<?xml version="1.0" encoding="utf-8" standalone="no"?>
<!DOCTYPE svg PUBLIC "-//W3C//DTD SVG 1.1//EN"
  "http://www.w3.org/Graphics/SVG/1.1/DTD/svg11.dtd">
<svg xmlns:xlink="http://www.w3.org/1999/xlink" width="1008pt" height="612pt" viewBox="0 0 1008 612" xmlns="http://www.w3.org/2000/svg" version="1.1">
 <metadata>
  <rdf:RDF xmlns:dc="http://purl.org/dc/elements/1.1/" xmlns:cc="http://creativecommons.org/ns#" xmlns:rdf="http://www.w3.org/1999/02/22-rdf-syntax-ns#">
   <cc:Work>
    <dc:type rdf:resource="http://purl.org/dc/dcmitype/StillImage"/>
    <dc:date>2022-11-20T19:46:44.477749</dc:date>
    <dc:format>image/svg+xml</dc:format>
    <dc:creator>
     <cc:Agent>
      <dc:title>Matplotlib v3.5.2, https://matplotlib.org/</dc:title>
     </cc:Agent>
    </dc:creator>
   </cc:Work>
  </rdf:RDF>
 </metadata>
 <defs>
  <style type="text/css">*{stroke-linejoin: round; stroke-linecap: butt}</style>
 </defs>
 <g id="figure_1">
  <g id="patch_1">
   <path d="M 0 612 
L 1008 612 
L 1008 0 
L 0 0 
z
" style="fill: #ffffff"/>
  </g>
  <g id="axes_1">
   <g id="patch_2">
    <path d="M 43.25 301.717812 
L 982.876106 301.717812 
L 982.876106 48.331875 
L 43.25 48.331875 
z
" style="fill: #ffffff"/>
   </g>
   <g id="matplotlib.axis_1">
    <g id="xtick_1">
     <g id="line2d_1">
      <path d="M 80.604757 301.717812 
L 80.604757 48.331875 
" clip-path="url(#p1bc38dbe11)" style="fill: none; stroke-dasharray: 2.96,1.28; stroke-dashoffset: 0; stroke: #b0b0b0; stroke-width: 0.8"/>
     </g>
     <g id="line2d_2">
      <defs>
       <path id="m49ba584816" d="M 0 0 
L 0 3.5 
" style="stroke: #000000; stroke-width: 0.8"/>
      </defs>
      <g>
       <use xlink:href="#m49ba584816" x="80.604757" y="301.717812" style="stroke: #000000; stroke-width: 0.8"/>
      </g>
     </g>
    </g>
    <g id="xtick_2">
     <g id="line2d_3">
      <path d="M 163.615328 301.717812 
L 163.615328 48.331875 
" clip-path="url(#p1bc38dbe11)" style="fill: none; stroke-dasharray: 2.96,1.28; stroke-dashoffset: 0; stroke: #b0b0b0; stroke-width: 0.8"/>
     </g>
     <g id="line2d_4">
      <g>
       <use xlink:href="#m49ba584816" x="163.615328" y="301.717812" style="stroke: #000000; stroke-width: 0.8"/>
      </g>
     </g>
    </g>
    <g id="xtick_3">
     <g id="line2d_5">
      <path d="M 238.592617 301.717812 
L 238.592617 48.331875 
" clip-path="url(#p1bc38dbe11)" style="fill: none; stroke-dasharray: 2.96,1.28; stroke-dashoffset: 0; stroke: #b0b0b0; stroke-width: 0.8"/>
     </g>
     <g id="line2d_6">
      <g>
       <use xlink:href="#m49ba584816" x="238.592617" y="301.717812" style="stroke: #000000; stroke-width: 0.8"/>
      </g>
     </g>
    </g>
    <g id="xtick_4">
     <g id="line2d_7">
      <path d="M 321.603188 301.717812 
L 321.603188 48.331875 
" clip-path="url(#p1bc38dbe11)" style="fill: none; stroke-dasharray: 2.96,1.28; stroke-dashoffset: 0; stroke: #b0b0b0; stroke-width: 0.8"/>
     </g>
     <g id="line2d_8">
      <g>
       <use xlink:href="#m49ba584816" x="321.603188" y="301.717812" style="stroke: #000000; stroke-width: 0.8"/>
      </g>
     </g>
    </g>
    <g id="xtick_5">
     <g id="line2d_9">
      <path d="M 401.935999 301.717812 
L 401.935999 48.331875 
" clip-path="url(#p1bc38dbe11)" style="fill: none; stroke-dasharray: 2.96,1.28; stroke-dashoffset: 0; stroke: #b0b0b0; stroke-width: 0.8"/>
     </g>
     <g id="line2d_10">
      <g>
       <use xlink:href="#m49ba584816" x="401.935999" y="301.717812" style="stroke: #000000; stroke-width: 0.8"/>
      </g>
     </g>
    </g>
    <g id="xtick_6">
     <g id="line2d_11">
      <path d="M 484.946569 301.717812 
L 484.946569 48.331875 
" clip-path="url(#p1bc38dbe11)" style="fill: none; stroke-dasharray: 2.96,1.28; stroke-dashoffset: 0; stroke: #b0b0b0; stroke-width: 0.8"/>
     </g>
     <g id="line2d_12">
      <g>
       <use xlink:href="#m49ba584816" x="484.946569" y="301.717812" style="stroke: #000000; stroke-width: 0.8"/>
      </g>
     </g>
    </g>
    <g id="xtick_7">
     <g id="line2d_13">
      <path d="M 565.27938 301.717812 
L 565.27938 48.331875 
" clip-path="url(#p1bc38dbe11)" style="fill: none; stroke-dasharray: 2.96,1.28; stroke-dashoffset: 0; stroke: #b0b0b0; stroke-width: 0.8"/>
     </g>
     <g id="line2d_14">
      <g>
       <use xlink:href="#m49ba584816" x="565.27938" y="301.717812" style="stroke: #000000; stroke-width: 0.8"/>
      </g>
     </g>
    </g>
    <g id="xtick_8">
     <g id="line2d_15">
      <path d="M 648.28995 301.717812 
L 648.28995 48.331875 
" clip-path="url(#p1bc38dbe11)" style="fill: none; stroke-dasharray: 2.96,1.28; stroke-dashoffset: 0; stroke: #b0b0b0; stroke-width: 0.8"/>
     </g>
     <g id="line2d_16">
      <g>
       <use xlink:href="#m49ba584816" x="648.28995" y="301.717812" style="stroke: #000000; stroke-width: 0.8"/>
      </g>
     </g>
    </g>
    <g id="xtick_9">
     <g id="line2d_17">
      <path d="M 731.300521 301.717812 
L 731.300521 48.331875 
" clip-path="url(#p1bc38dbe11)" style="fill: none; stroke-dasharray: 2.96,1.28; stroke-dashoffset: 0; stroke: #b0b0b0; stroke-width: 0.8"/>
     </g>
     <g id="line2d_18">
      <g>
       <use xlink:href="#m49ba584816" x="731.300521" y="301.717812" style="stroke: #000000; stroke-width: 0.8"/>
      </g>
     </g>
    </g>
    <g id="xtick_10">
     <g id="line2d_19">
      <path d="M 811.633332 301.717812 
L 811.633332 48.331875 
" clip-path="url(#p1bc38dbe11)" style="fill: none; stroke-dasharray: 2.96,1.28; stroke-dashoffset: 0; stroke: #b0b0b0; stroke-width: 0.8"/>
     </g>
     <g id="line2d_20">
      <g>
       <use xlink:href="#m49ba584816" x="811.633332" y="301.717812" style="stroke: #000000; stroke-width: 0.8"/>
      </g>
     </g>
    </g>
    <g id="xtick_11">
     <g id="line2d_21">
      <path d="M 894.643902 301.717812 
L 894.643902 48.331875 
" clip-path="url(#p1bc38dbe11)" style="fill: none; stroke-dasharray: 2.96,1.28; stroke-dashoffset: 0; stroke: #b0b0b0; stroke-width: 0.8"/>
     </g>
     <g id="line2d_22">
      <g>
       <use xlink:href="#m49ba584816" x="894.643902" y="301.717812" style="stroke: #000000; stroke-width: 0.8"/>
      </g>
     </g>
    </g>
    <g id="xtick_12">
     <g id="line2d_23">
      <path d="M 974.976713 301.717812 
L 974.976713 48.331875 
" clip-path="url(#p1bc38dbe11)" style="fill: none; stroke-dasharray: 2.96,1.28; stroke-dashoffset: 0; stroke: #b0b0b0; stroke-width: 0.8"/>
     </g>
     <g id="line2d_24">
      <g>
       <use xlink:href="#m49ba584816" x="974.976713" y="301.717812" style="stroke: #000000; stroke-width: 0.8"/>
      </g>
     </g>
    </g>
   </g>
   <g id="matplotlib.axis_2">
    <g id="ytick_1">
     <g id="line2d_25">
      <path d="M 43.25 286.213385 
L 982.876106 286.213385 
" clip-path="url(#p1bc38dbe11)" style="fill: none; stroke-dasharray: 2.96,1.28; stroke-dashoffset: 0; stroke: #b0b0b0; stroke-width: 0.8"/>
     </g>
     <g id="line2d_26">
      <defs>
       <path id="m6f5802b7ed" d="M 0 0 
L -3.5 0 
" style="stroke: #000000; stroke-width: 0.8"/>
      </defs>
      <g>
       <use xlink:href="#m6f5802b7ed" x="43.25" y="286.213385" style="stroke: #000000; stroke-width: 0.8"/>
      </g>
     </g>
     <g id="text_1">
      <!-- 3000 -->
      <g transform="translate(10.8 290.012604)scale(0.1 -0.1)">
       <defs>
        <path id="DejaVuSans-33" d="M 2597 2516 
Q 3050 2419 3304 2112 
Q 3559 1806 3559 1356 
Q 3559 666 3084 287 
Q 2609 -91 1734 -91 
Q 1441 -91 1130 -33 
Q 819 25 488 141 
L 488 750 
Q 750 597 1062 519 
Q 1375 441 1716 441 
Q 2309 441 2620 675 
Q 2931 909 2931 1356 
Q 2931 1769 2642 2001 
Q 2353 2234 1838 2234 
L 1294 2234 
L 1294 2753 
L 1863 2753 
Q 2328 2753 2575 2939 
Q 2822 3125 2822 3475 
Q 2822 3834 2567 4026 
Q 2313 4219 1838 4219 
Q 1578 4219 1281 4162 
Q 984 4106 628 3988 
L 628 4550 
Q 988 4650 1302 4700 
Q 1616 4750 1894 4750 
Q 2613 4750 3031 4423 
Q 3450 4097 3450 3541 
Q 3450 3153 3228 2886 
Q 3006 2619 2597 2516 
z
" transform="scale(0.015625)"/>
        <path id="DejaVuSans-30" d="M 2034 4250 
Q 1547 4250 1301 3770 
Q 1056 3291 1056 2328 
Q 1056 1369 1301 889 
Q 1547 409 2034 409 
Q 2525 409 2770 889 
Q 3016 1369 3016 2328 
Q 3016 3291 2770 3770 
Q 2525 4250 2034 4250 
z
M 2034 4750 
Q 2819 4750 3233 4129 
Q 3647 3509 3647 2328 
Q 3647 1150 3233 529 
Q 2819 -91 2034 -91 
Q 1250 -91 836 529 
Q 422 1150 422 2328 
Q 422 3509 836 4129 
Q 1250 4750 2034 4750 
z
" transform="scale(0.015625)"/>
       </defs>
       <use xlink:href="#DejaVuSans-33"/>
       <use xlink:href="#DejaVuSans-30" x="63.623047"/>
       <use xlink:href="#DejaVuSans-30" x="127.246094"/>
       <use xlink:href="#DejaVuSans-30" x="190.869141"/>
      </g>
     </g>
    </g>
    <g id="ytick_2">
     <g id="line2d_27">
      <path d="M 43.25 241.791275 
L 982.876106 241.791275 
" clip-path="url(#p1bc38dbe11)" style="fill: none; stroke-dasharray: 2.96,1.28; stroke-dashoffset: 0; stroke: #b0b0b0; stroke-width: 0.8"/>
     </g>
     <g id="line2d_28">
      <g>
       <use xlink:href="#m6f5802b7ed" x="43.25" y="241.791275" style="stroke: #000000; stroke-width: 0.8"/>
      </g>
     </g>
     <g id="text_2">
      <!-- 3200 -->
      <g transform="translate(10.8 245.590494)scale(0.1 -0.1)">
       <defs>
        <path id="DejaVuSans-32" d="M 1228 531 
L 3431 531 
L 3431 0 
L 469 0 
L 469 531 
Q 828 903 1448 1529 
Q 2069 2156 2228 2338 
Q 2531 2678 2651 2914 
Q 2772 3150 2772 3378 
Q 2772 3750 2511 3984 
Q 2250 4219 1831 4219 
Q 1534 4219 1204 4116 
Q 875 4013 500 3803 
L 500 4441 
Q 881 4594 1212 4672 
Q 1544 4750 1819 4750 
Q 2544 4750 2975 4387 
Q 3406 4025 3406 3419 
Q 3406 3131 3298 2873 
Q 3191 2616 2906 2266 
Q 2828 2175 2409 1742 
Q 1991 1309 1228 531 
z
" transform="scale(0.015625)"/>
       </defs>
       <use xlink:href="#DejaVuSans-33"/>
       <use xlink:href="#DejaVuSans-32" x="63.623047"/>
       <use xlink:href="#DejaVuSans-30" x="127.246094"/>
       <use xlink:href="#DejaVuSans-30" x="190.869141"/>
      </g>
     </g>
    </g>
    <g id="ytick_3">
     <g id="line2d_29">
      <path d="M 43.25 197.369165 
L 982.876106 197.369165 
" clip-path="url(#p1bc38dbe11)" style="fill: none; stroke-dasharray: 2.96,1.28; stroke-dashoffset: 0; stroke: #b0b0b0; stroke-width: 0.8"/>
     </g>
     <g id="line2d_30">
      <g>
       <use xlink:href="#m6f5802b7ed" x="43.25" y="197.369165" style="stroke: #000000; stroke-width: 0.8"/>
      </g>
     </g>
     <g id="text_3">
      <!-- 3400 -->
      <g transform="translate(10.8 201.168384)scale(0.1 -0.1)">
       <defs>
        <path id="DejaVuSans-34" d="M 2419 4116 
L 825 1625 
L 2419 1625 
L 2419 4116 
z
M 2253 4666 
L 3047 4666 
L 3047 1625 
L 3713 1625 
L 3713 1100 
L 3047 1100 
L 3047 0 
L 2419 0 
L 2419 1100 
L 313 1100 
L 313 1709 
L 2253 4666 
z
" transform="scale(0.015625)"/>
       </defs>
       <use xlink:href="#DejaVuSans-33"/>
       <use xlink:href="#DejaVuSans-34" x="63.623047"/>
       <use xlink:href="#DejaVuSans-30" x="127.246094"/>
       <use xlink:href="#DejaVuSans-30" x="190.869141"/>
      </g>
     </g>
    </g>
    <g id="ytick_4">
     <g id="line2d_31">
      <path d="M 43.25 152.947055 
L 982.876106 152.947055 
" clip-path="url(#p1bc38dbe11)" style="fill: none; stroke-dasharray: 2.96,1.28; stroke-dashoffset: 0; stroke: #b0b0b0; stroke-width: 0.8"/>
     </g>
     <g id="line2d_32">
      <g>
       <use xlink:href="#m6f5802b7ed" x="43.25" y="152.947055" style="stroke: #000000; stroke-width: 0.8"/>
      </g>
     </g>
     <g id="text_4">
      <!-- 3600 -->
      <g transform="translate(10.8 156.746274)scale(0.1 -0.1)">
       <defs>
        <path id="DejaVuSans-36" d="M 2113 2584 
Q 1688 2584 1439 2293 
Q 1191 2003 1191 1497 
Q 1191 994 1439 701 
Q 1688 409 2113 409 
Q 2538 409 2786 701 
Q 3034 994 3034 1497 
Q 3034 2003 2786 2293 
Q 2538 2584 2113 2584 
z
M 3366 4563 
L 3366 3988 
Q 3128 4100 2886 4159 
Q 2644 4219 2406 4219 
Q 1781 4219 1451 3797 
Q 1122 3375 1075 2522 
Q 1259 2794 1537 2939 
Q 1816 3084 2150 3084 
Q 2853 3084 3261 2657 
Q 3669 2231 3669 1497 
Q 3669 778 3244 343 
Q 2819 -91 2113 -91 
Q 1303 -91 875 529 
Q 447 1150 447 2328 
Q 447 3434 972 4092 
Q 1497 4750 2381 4750 
Q 2619 4750 2861 4703 
Q 3103 4656 3366 4563 
z
" transform="scale(0.015625)"/>
       </defs>
       <use xlink:href="#DejaVuSans-33"/>
       <use xlink:href="#DejaVuSans-36" x="63.623047"/>
       <use xlink:href="#DejaVuSans-30" x="127.246094"/>
       <use xlink:href="#DejaVuSans-30" x="190.869141"/>
      </g>
     </g>
    </g>
    <g id="ytick_5">
     <g id="line2d_33">
      <path d="M 43.25 108.524945 
L 982.876106 108.524945 
" clip-path="url(#p1bc38dbe11)" style="fill: none; stroke-dasharray: 2.96,1.28; stroke-dashoffset: 0; stroke: #b0b0b0; stroke-width: 0.8"/>
     </g>
     <g id="line2d_34">
      <g>
       <use xlink:href="#m6f5802b7ed" x="43.25" y="108.524945" style="stroke: #000000; stroke-width: 0.8"/>
      </g>
     </g>
     <g id="text_5">
      <!-- 3800 -->
      <g transform="translate(10.8 112.324164)scale(0.1 -0.1)">
       <defs>
        <path id="DejaVuSans-38" d="M 2034 2216 
Q 1584 2216 1326 1975 
Q 1069 1734 1069 1313 
Q 1069 891 1326 650 
Q 1584 409 2034 409 
Q 2484 409 2743 651 
Q 3003 894 3003 1313 
Q 3003 1734 2745 1975 
Q 2488 2216 2034 2216 
z
M 1403 2484 
Q 997 2584 770 2862 
Q 544 3141 544 3541 
Q 544 4100 942 4425 
Q 1341 4750 2034 4750 
Q 2731 4750 3128 4425 
Q 3525 4100 3525 3541 
Q 3525 3141 3298 2862 
Q 3072 2584 2669 2484 
Q 3125 2378 3379 2068 
Q 3634 1759 3634 1313 
Q 3634 634 3220 271 
Q 2806 -91 2034 -91 
Q 1263 -91 848 271 
Q 434 634 434 1313 
Q 434 1759 690 2068 
Q 947 2378 1403 2484 
z
M 1172 3481 
Q 1172 3119 1398 2916 
Q 1625 2713 2034 2713 
Q 2441 2713 2670 2916 
Q 2900 3119 2900 3481 
Q 2900 3844 2670 4047 
Q 2441 4250 2034 4250 
Q 1625 4250 1398 4047 
Q 1172 3844 1172 3481 
z
" transform="scale(0.015625)"/>
       </defs>
       <use xlink:href="#DejaVuSans-33"/>
       <use xlink:href="#DejaVuSans-38" x="63.623047"/>
       <use xlink:href="#DejaVuSans-30" x="127.246094"/>
       <use xlink:href="#DejaVuSans-30" x="190.869141"/>
      </g>
     </g>
    </g>
    <g id="ytick_6">
     <g id="line2d_35">
      <path d="M 43.25 64.102835 
L 982.876106 64.102835 
" clip-path="url(#p1bc38dbe11)" style="fill: none; stroke-dasharray: 2.96,1.28; stroke-dashoffset: 0; stroke: #b0b0b0; stroke-width: 0.8"/>
     </g>
     <g id="line2d_36">
      <g>
       <use xlink:href="#m6f5802b7ed" x="43.25" y="64.102835" style="stroke: #000000; stroke-width: 0.8"/>
      </g>
     </g>
     <g id="text_6">
      <!-- 4000 -->
      <g transform="translate(10.8 67.902053)scale(0.1 -0.1)">
       <use xlink:href="#DejaVuSans-34"/>
       <use xlink:href="#DejaVuSans-30" x="63.623047"/>
       <use xlink:href="#DejaVuSans-30" x="127.246094"/>
       <use xlink:href="#DejaVuSans-30" x="190.869141"/>
      </g>
     </g>
    </g>
   </g>
   <g id="line2d_37">
    <path d="M 85.960278 104.582483 
L 88.638038 89.701076 
L 91.315798 94.987307 
L 93.993559 106.870221 
L 96.671319 96.64203 
L 104.7046 90.789417 
L 107.38236 82.782332 
L 110.060121 95.220523 
L 112.737881 86.780322 
L 115.415641 71.177056 
L 123.448922 59.849418 
L 126.126683 66.190674 
L 128.804443 83.05997 
L 131.482203 102.62791 
L 134.159964 101.084241 
L 142.193245 114.888412 
L 144.871005 115.210472 
L 150.226526 142.00811 
L 152.904286 132.946 
L 160.937567 122.684492 
L 163.615328 108.380573 
L 166.293088 96.042332 
L 168.970848 103.061025 
L 171.648609 105.215498 
L 179.68189 113.189266 
L 182.35965 121.085296 
L 185.03741 117.287206 
L 187.715171 115.110523 
L 190.392931 131.857658 
L 198.426212 123.239769 
L 201.103972 104.571377 
L 203.781733 105.615297 
L 206.459493 112.034292 
L 209.137254 109.879819 
L 217.170535 126.427055 
L 219.848295 155.967758 
L 222.526055 160.987457 
L 225.203816 197.002683 
L 227.881576 170.549316 
L 235.914857 163.119718 
L 241.270378 164.907708 
L 243.948138 165.296402 
L 246.625898 169.749718 
L 254.659179 178.511979 
L 257.33694 152.958161 
L 260.0147 145.706251 
L 262.69246 148.293839 
L 265.370221 153.135849 
L 273.403502 143.396301 
L 276.081262 154.301929 
L 278.759023 140.531075 
L 281.436783 136.788512 
L 292.147824 147.016703 
L 294.825585 130.524995 
L 297.503345 127.981829 
L 300.181105 119.663789 
L 302.858866 129.081276 
L 310.892147 129.025749 
L 313.569907 129.547708 
L 316.247667 123.728412 
L 318.925428 121.862683 
L 321.603188 117.687005 
L 329.636469 115.110523 
L 332.314229 105.237709 
L 334.99199 118.442181 
L 337.66975 134.256452 
L 340.347511 133.923286 
L 348.380792 131.535598 
L 351.058552 132.712784 
L 353.736312 139.187306 
L 367.125114 168.927909 
L 369.802874 181.399417 
L 372.480635 162.542231 
L 375.158395 146.583588 
L 377.836155 150.159568 
L 385.869436 164.452382 
L 388.547197 164.874392 
L 391.224957 161.564944 
L 393.902717 156.434191 
L 396.580478 164.785547 
L 404.613759 165.740623 
L 409.96928 179.655849 
L 412.64704 172.181829 
L 415.3248 190.128361 
L 423.358081 187.351979 
L 426.035842 188.762381 
L 428.713602 194.703839 
L 431.391362 195.447909 
L 434.069123 194.059718 
L 442.102404 202.52213 
L 444.780164 185.908261 
L 447.457924 186.53017 
L 450.135685 228.031527 
L 452.813445 221.134994 
L 460.846726 214.749316 
L 463.524487 222.245547 
L 466.202247 248.976552 
L 468.880007 235.805396 
L 471.557768 228.175899 
L 479.591049 202.866401 
L 482.268809 205.287406 
L 484.946569 207.319718 
L 487.62433 192.260622 
L 490.30209 188.451427 
L 498.335371 190.494844 
L 501.013131 205.653889 
L 503.690892 196.447406 
L 506.368652 191.349969 
L 509.046412 206.275798 
L 517.079693 237.437909 
L 519.757454 239.448009 
L 522.435214 240.391979 
L 525.112974 254.673687 
L 527.790735 266.467758 
L 535.824016 261.24816 
L 538.501776 239.137054 
L 541.179537 236.693838 
L 543.857297 217.625647 
L 546.535057 221.112783 
L 554.568338 216.315195 
L 557.246099 215.548914 
L 559.923859 221.69027 
L 562.601619 226.887657 
L 565.27938 216.226351 
L 573.312661 234.006301 
L 575.990421 238.170873 
L 578.668181 228.298059 
L 581.345942 222.278863 
L 584.023702 227.25414 
L 592.056983 260.937205 
L 594.734744 267.400622 
L 597.412504 277.606602 
L 600.090264 286.491024 
L 602.768025 287.412782 
L 610.801306 272.109366 
L 613.479066 269.721677 
L 616.156826 249.609567 
L 618.834587 246.833185 
L 621.512347 248.232481 
L 629.545628 249.176451 
L 632.223388 260.470773 
L 637.578909 228.353587 
L 640.256669 219.15821 
L 648.28995 219.846753 
L 650.967711 221.401527 
L 653.645471 210.806853 
L 656.323232 207.375245 
L 659.000992 205.131929 
L 667.034273 203.04409 
L 672.389794 207.530723 
L 675.067554 192.371678 
L 677.745314 197.024894 
L 688.456356 198.990572 
L 691.134116 197.124844 
L 693.811876 201.533738 
L 696.489637 200.534241 
L 704.522918 207.46409 
L 707.200678 223.000723 
L 709.878438 229.497456 
L 712.556199 237.748863 
L 715.233959 236.860421 
L 723.26724 256.772632 
L 725.945001 239.314743 
L 731.300521 256.961426 
L 733.978282 257.25017 
L 742.011563 256.583838 
L 744.689323 257.99424 
L 747.367083 252.985647 
L 750.044844 248.532331 
L 752.722604 237.871024 
L 760.755885 232.251627 
L 763.433645 235.272331 
L 766.111406 259.471275 
L 768.789166 263.03615 
L 771.466926 284.281024 
L 779.500207 279.816602 
L 782.177968 277.26233 
L 784.855728 285.946853 
L 787.533489 284.569767 
L 790.211249 290.20027 
L 798.24453 287.457205 
L 800.92229 282.337556 
L 803.600051 278.295144 
L 806.277811 286.813084 
L 808.955571 285.202782 
L 816.988852 289.556149 
L 819.666613 265.968009 
L 825.022133 263.569215 
L 827.699894 271.798411 
L 835.733175 259.88218 
L 838.410935 270.765597 
L 841.088695 263.835748 
L 843.766456 263.269366 
L 846.444216 264.191124 
L 854.477497 261.392531 
L 857.155258 254.073989 
L 859.833018 259.149215 
L 862.510778 251.275396 
L 865.188539 255.695396 
L 873.22182 250.298109 
L 875.89958 250.209265 
L 881.255101 251.253185 
L 883.932861 249.953838 
L 891.966142 243.312733 
L 894.643902 228.531275 
L 897.321663 232.529265 
L 899.999423 240.292029 
L 902.677183 237.926552 
L 910.710465 234.30615 
L 916.065985 238.226401 
L 918.743746 240.536351 
L 921.421506 216.037557 
L 929.454787 211.695296 
L 932.132547 212.339416 
L 934.810308 207.286401 
L 937.488068 208.696803 
L 940.165828 209.929517 
L 940.165828 209.929517 
" clip-path="url(#p1bc38dbe11)" style="fill: none; stroke: #1f77b4; stroke-width: 1.5; stroke-linecap: square"/>
   </g>
   <g id="line2d_38">
    <path d="M 96.671319 98.556623 
L 104.7046 95.79801 
L 107.38236 94.414262 
L 110.060121 94.460905 
L 112.737881 90.442925 
L 115.415641 85.34993 
L 123.448922 79.16193 
L 126.126683 75.843598 
L 128.804443 73.411488 
L 131.482203 76.581005 
L 134.159964 82.562443 
L 142.193245 93.570241 
L 144.871005 103.374201 
L 152.904286 121.227447 
L 160.937567 125.547497 
L 163.615328 124.24593 
L 166.293088 120.412302 
L 168.970848 112.622884 
L 171.648609 107.076784 
L 179.68189 105.177739 
L 182.35965 107.718684 
L 185.03741 111.967658 
L 187.715171 114.377558 
L 190.392931 119.70599 
L 198.426212 121.71609 
L 201.103972 118.413307 
L 203.781733 116.078925 
L 206.459493 115.463678 
L 209.137254 111.068111 
L 217.170535 111.705568 
L 219.848295 121.984844 
L 222.526055 133.059276 
L 225.203816 150.052955 
L 227.881576 162.186854 
L 235.914857 169.525387 
L 243.948138 172.175165 
L 246.625898 166.724572 
L 254.659179 168.317105 
L 257.33694 166.284794 
L 260.0147 162.444502 
L 265.370221 155.721216 
L 273.403502 148.69808 
L 276.081262 148.966834 
L 278.759023 147.931799 
L 281.436783 145.630733 
L 292.147824 144.406904 
L 294.825585 141.832643 
L 297.503345 136.568623 
L 300.181105 132.395166 
L 302.858866 130.853719 
L 310.892147 127.255528 
L 313.569907 127.06007 
L 316.247667 126.209387 
L 318.925428 126.649166 
L 321.603188 124.370312 
L 329.636469 121.587266 
L 332.314229 116.725266 
L 334.99199 115.66802 
L 337.66975 118.146774 
L 340.347511 121.39403 
L 348.380792 124.679045 
L 351.058552 130.17406 
L 353.736312 134.323085 
L 367.125114 141.257377 
L 369.802874 150.752603 
L 372.480635 156.953929 
L 375.158395 159.72809 
L 377.836155 161.922542 
L 385.869436 161.027437 
L 388.547197 157.722432 
L 391.224957 157.526975 
L 393.902717 159.497095 
L 396.580478 162.422291 
L 404.613759 162.679939 
L 409.96928 165.636231 
L 412.64704 167.759608 
L 415.3248 174.498442 
L 423.358081 179.011728 
L 426.035842 183.61608 
L 428.713602 186.625678 
L 431.391362 191.278894 
L 434.069123 192.065165 
L 442.102404 195.099195 
L 444.780164 194.528371 
L 447.457924 192.893638 
L 450.135685 199.410361 
L 452.813445 204.825416 
L 460.846726 207.270854 
L 463.524487 214.538311 
L 466.202247 227.027587 
L 468.880007 228.582361 
L 471.557768 229.990542 
L 479.591049 227.613959 
L 482.268809 224.222331 
L 484.946569 215.890964 
L 487.62433 207.182009 
L 490.30209 199.237115 
L 498.335371 196.762803 
L 501.013131 196.8361 
L 503.690892 194.661638 
L 506.368652 194.479507 
L 509.046412 198.044381 
L 517.079693 207.432994 
L 519.757454 214.191818 
L 522.435214 222.980733 
L 525.112974 235.645476 
L 527.790735 247.683868 
L 535.824016 252.445918 
L 538.501776 252.383728 
L 541.179537 251.644099 
L 543.857297 244.234491 
L 546.535057 235.163496 
L 554.568338 226.176904 
L 557.246099 221.459276 
L 559.923859 218.458562 
L 562.601619 220.310964 
L 565.27938 219.333678 
L 573.312661 222.871899 
L 575.990421 227.396291 
L 578.668181 228.717848 
L 581.345942 227.79609 
L 584.023702 230.001647 
L 592.056983 235.387828 
L 594.734744 241.233778 
L 597.412504 251.095486 
L 600.090264 263.937918 
L 602.768025 275.969647 
L 610.801306 278.204079 
L 613.479066 278.66829 
L 616.156826 273.068883 
L 621.512347 257.301255 
L 629.545628 252.714672 
L 632.223388 250.864491 
L 634.901149 249.79614 
L 637.578909 246.10022 
L 640.256669 240.285366 
L 648.28995 234.419426 
L 650.967711 226.605577 
L 653.645471 219.913386 
L 656.323232 215.717718 
L 659.000992 212.912462 
L 667.034273 209.551929 
L 672.389794 206.777768 
L 675.067554 203.090733 
L 677.745314 201.020663 
L 688.456356 199.792391 
L 693.811876 197.409145 
L 696.489637 199.041658 
L 704.522918 201.129497 
L 707.200678 205.931527 
L 709.878438 212.406049 
L 715.233959 226.914311 
L 725.945001 240.038823 
L 731.300521 245.531617 
L 733.978282 249.431878 
L 742.011563 253.376562 
L 744.689323 253.620883 
L 747.367083 256.355064 
L 750.044844 254.669245 
L 752.722604 250.793416 
L 760.755885 245.926974 
L 763.433645 241.382592 
L 766.111406 242.679718 
L 768.789166 245.580481 
L 771.466926 254.862481 
L 779.500207 264.375476 
L 782.177968 272.773476 
L 784.855728 278.068592 
L 787.533489 282.375315 
L 790.211249 283.559164 
L 798.24453 285.087285 
L 800.92229 286.10233 
L 803.600051 284.571989 
L 806.277811 285.020652 
L 808.955571 284.021154 
L 816.988852 284.440943 
L 819.666613 281.167034 
L 825.022133 278.221848 
L 827.699894 275.218913 
L 835.733175 270.154793 
L 838.410935 266.396682 
L 841.088695 265.97023 
L 843.766456 265.91026 
L 846.444216 264.388803 
L 854.477497 264.690873 
L 857.155258 261.352552 
L 859.833018 260.415245 
L 862.510778 258.016451 
L 865.188539 256.317305 
L 875.89958 253.325476 
L 881.255101 251.74627 
L 883.932861 251.481959 
L 891.966142 249.005426 
L 894.643902 244.652059 
L 897.321663 241.116059 
L 899.999423 238.923828 
L 902.677183 236.518371 
L 910.710465 234.717054 
L 916.065985 236.656079 
L 918.743746 238.257496 
L 921.421506 233.406602 
L 929.454787 228.160351 
L 932.132547 223.767004 
L 937.488068 211.211095 
L 940.165828 209.989487 
L 940.165828 209.989487 
" clip-path="url(#p1bc38dbe11)" style="fill: none; stroke: #ff7f0e; stroke-width: 1.5; stroke-linecap: square"/>
   </g>
   <g id="patch_3">
    <path d="M 43.25 301.717813 
L 43.25 48.331875 
" style="fill: none; stroke: #000000; stroke-width: 0.8; stroke-linejoin: miter; stroke-linecap: square"/>
   </g>
   <g id="patch_4">
    <path d="M 982.876106 301.717813 
L 982.876106 48.331875 
" style="fill: none; stroke: #000000; stroke-width: 0.8; stroke-linejoin: miter; stroke-linecap: square"/>
   </g>
   <g id="patch_5">
    <path d="M 43.25 301.717812 
L 982.876106 301.717812 
" style="fill: none; stroke: #000000; stroke-width: 0.8; stroke-linejoin: miter; stroke-linecap: square"/>
   </g>
   <g id="patch_6">
    <path d="M 43.25 48.331875 
L 982.876106 48.331875 
" style="fill: none; stroke: #000000; stroke-width: 0.8; stroke-linejoin: miter; stroke-linecap: square"/>
   </g>
   <g id="text_7">
    <!-- Closing Price -->
    <g transform="translate(474.587115 42.331875)scale(0.12 -0.12)">
     <defs>
      <path id="DejaVuSans-43" d="M 4122 4306 
L 4122 3641 
Q 3803 3938 3442 4084 
Q 3081 4231 2675 4231 
Q 1875 4231 1450 3742 
Q 1025 3253 1025 2328 
Q 1025 1406 1450 917 
Q 1875 428 2675 428 
Q 3081 428 3442 575 
Q 3803 722 4122 1019 
L 4122 359 
Q 3791 134 3420 21 
Q 3050 -91 2638 -91 
Q 1578 -91 968 557 
Q 359 1206 359 2328 
Q 359 3453 968 4101 
Q 1578 4750 2638 4750 
Q 3056 4750 3426 4639 
Q 3797 4528 4122 4306 
z
" transform="scale(0.015625)"/>
      <path id="DejaVuSans-6c" d="M 603 4863 
L 1178 4863 
L 1178 0 
L 603 0 
L 603 4863 
z
" transform="scale(0.015625)"/>
      <path id="DejaVuSans-6f" d="M 1959 3097 
Q 1497 3097 1228 2736 
Q 959 2375 959 1747 
Q 959 1119 1226 758 
Q 1494 397 1959 397 
Q 2419 397 2687 759 
Q 2956 1122 2956 1747 
Q 2956 2369 2687 2733 
Q 2419 3097 1959 3097 
z
M 1959 3584 
Q 2709 3584 3137 3096 
Q 3566 2609 3566 1747 
Q 3566 888 3137 398 
Q 2709 -91 1959 -91 
Q 1206 -91 779 398 
Q 353 888 353 1747 
Q 353 2609 779 3096 
Q 1206 3584 1959 3584 
z
" transform="scale(0.015625)"/>
      <path id="DejaVuSans-73" d="M 2834 3397 
L 2834 2853 
Q 2591 2978 2328 3040 
Q 2066 3103 1784 3103 
Q 1356 3103 1142 2972 
Q 928 2841 928 2578 
Q 928 2378 1081 2264 
Q 1234 2150 1697 2047 
L 1894 2003 
Q 2506 1872 2764 1633 
Q 3022 1394 3022 966 
Q 3022 478 2636 193 
Q 2250 -91 1575 -91 
Q 1294 -91 989 -36 
Q 684 19 347 128 
L 347 722 
Q 666 556 975 473 
Q 1284 391 1588 391 
Q 1994 391 2212 530 
Q 2431 669 2431 922 
Q 2431 1156 2273 1281 
Q 2116 1406 1581 1522 
L 1381 1569 
Q 847 1681 609 1914 
Q 372 2147 372 2553 
Q 372 3047 722 3315 
Q 1072 3584 1716 3584 
Q 2034 3584 2315 3537 
Q 2597 3491 2834 3397 
z
" transform="scale(0.015625)"/>
      <path id="DejaVuSans-69" d="M 603 3500 
L 1178 3500 
L 1178 0 
L 603 0 
L 603 3500 
z
M 603 4863 
L 1178 4863 
L 1178 4134 
L 603 4134 
L 603 4863 
z
" transform="scale(0.015625)"/>
      <path id="DejaVuSans-6e" d="M 3513 2113 
L 3513 0 
L 2938 0 
L 2938 2094 
Q 2938 2591 2744 2837 
Q 2550 3084 2163 3084 
Q 1697 3084 1428 2787 
Q 1159 2491 1159 1978 
L 1159 0 
L 581 0 
L 581 3500 
L 1159 3500 
L 1159 2956 
Q 1366 3272 1645 3428 
Q 1925 3584 2291 3584 
Q 2894 3584 3203 3211 
Q 3513 2838 3513 2113 
z
" transform="scale(0.015625)"/>
      <path id="DejaVuSans-67" d="M 2906 1791 
Q 2906 2416 2648 2759 
Q 2391 3103 1925 3103 
Q 1463 3103 1205 2759 
Q 947 2416 947 1791 
Q 947 1169 1205 825 
Q 1463 481 1925 481 
Q 2391 481 2648 825 
Q 2906 1169 2906 1791 
z
M 3481 434 
Q 3481 -459 3084 -895 
Q 2688 -1331 1869 -1331 
Q 1566 -1331 1297 -1286 
Q 1028 -1241 775 -1147 
L 775 -588 
Q 1028 -725 1275 -790 
Q 1522 -856 1778 -856 
Q 2344 -856 2625 -561 
Q 2906 -266 2906 331 
L 2906 616 
Q 2728 306 2450 153 
Q 2172 0 1784 0 
Q 1141 0 747 490 
Q 353 981 353 1791 
Q 353 2603 747 3093 
Q 1141 3584 1784 3584 
Q 2172 3584 2450 3431 
Q 2728 3278 2906 2969 
L 2906 3500 
L 3481 3500 
L 3481 434 
z
" transform="scale(0.015625)"/>
      <path id="DejaVuSans-20" transform="scale(0.015625)"/>
      <path id="DejaVuSans-50" d="M 1259 4147 
L 1259 2394 
L 2053 2394 
Q 2494 2394 2734 2622 
Q 2975 2850 2975 3272 
Q 2975 3691 2734 3919 
Q 2494 4147 2053 4147 
L 1259 4147 
z
M 628 4666 
L 2053 4666 
Q 2838 4666 3239 4311 
Q 3641 3956 3641 3272 
Q 3641 2581 3239 2228 
Q 2838 1875 2053 1875 
L 1259 1875 
L 1259 0 
L 628 0 
L 628 4666 
z
" transform="scale(0.015625)"/>
      <path id="DejaVuSans-72" d="M 2631 2963 
Q 2534 3019 2420 3045 
Q 2306 3072 2169 3072 
Q 1681 3072 1420 2755 
Q 1159 2438 1159 1844 
L 1159 0 
L 581 0 
L 581 3500 
L 1159 3500 
L 1159 2956 
Q 1341 3275 1631 3429 
Q 1922 3584 2338 3584 
Q 2397 3584 2469 3576 
Q 2541 3569 2628 3553 
L 2631 2963 
z
" transform="scale(0.015625)"/>
      <path id="DejaVuSans-63" d="M 3122 3366 
L 3122 2828 
Q 2878 2963 2633 3030 
Q 2388 3097 2138 3097 
Q 1578 3097 1268 2742 
Q 959 2388 959 1747 
Q 959 1106 1268 751 
Q 1578 397 2138 397 
Q 2388 397 2633 464 
Q 2878 531 3122 666 
L 3122 134 
Q 2881 22 2623 -34 
Q 2366 -91 2075 -91 
Q 1284 -91 818 406 
Q 353 903 353 1747 
Q 353 2603 823 3093 
Q 1294 3584 2113 3584 
Q 2378 3584 2631 3529 
Q 2884 3475 3122 3366 
z
" transform="scale(0.015625)"/>
      <path id="DejaVuSans-65" d="M 3597 1894 
L 3597 1613 
L 953 1613 
Q 991 1019 1311 708 
Q 1631 397 2203 397 
Q 2534 397 2845 478 
Q 3156 559 3463 722 
L 3463 178 
Q 3153 47 2828 -22 
Q 2503 -91 2169 -91 
Q 1331 -91 842 396 
Q 353 884 353 1716 
Q 353 2575 817 3079 
Q 1281 3584 2069 3584 
Q 2775 3584 3186 3129 
Q 3597 2675 3597 1894 
z
M 3022 2063 
Q 3016 2534 2758 2815 
Q 2500 3097 2075 3097 
Q 1594 3097 1305 2825 
Q 1016 2553 972 2059 
L 3022 2063 
z
" transform="scale(0.015625)"/>
     </defs>
     <use xlink:href="#DejaVuSans-43"/>
     <use xlink:href="#DejaVuSans-6c" x="69.824219"/>
     <use xlink:href="#DejaVuSans-6f" x="97.607422"/>
     <use xlink:href="#DejaVuSans-73" x="158.789062"/>
     <use xlink:href="#DejaVuSans-69" x="210.888672"/>
     <use xlink:href="#DejaVuSans-6e" x="238.671875"/>
     <use xlink:href="#DejaVuSans-67" x="302.050781"/>
     <use xlink:href="#DejaVuSans-20" x="365.527344"/>
     <use xlink:href="#DejaVuSans-50" x="397.314453"/>
     <use xlink:href="#DejaVuSans-72" x="455.867188"/>
     <use xlink:href="#DejaVuSans-69" x="496.980469"/>
     <use xlink:href="#DejaVuSans-63" x="524.763672"/>
     <use xlink:href="#DejaVuSans-65" x="579.744141"/>
    </g>
   </g>
   <g id="legend_1">
    <g id="patch_7">
     <path d="M 911.144856 85.688125 
L 975.876106 85.688125 
Q 977.876106 85.688125 977.876106 83.688125 
L 977.876106 55.331875 
Q 977.876106 53.331875 975.876106 53.331875 
L 911.144856 53.331875 
Q 909.144856 53.331875 909.144856 55.331875 
L 909.144856 83.688125 
Q 909.144856 85.688125 911.144856 85.688125 
z
" style="fill: #ffffff; opacity: 0.8; stroke: #cccccc; stroke-linejoin: miter"/>
    </g>
    <g id="line2d_39">
     <path d="M 913.144856 61.430312 
L 923.144856 61.430312 
L 933.144856 61.430312 
" style="fill: none; stroke: #1f77b4; stroke-width: 1.5; stroke-linecap: square"/>
    </g>
    <g id="text_8">
     <!-- CLOSE -->
     <g transform="translate(941.144856 64.930312)scale(0.1 -0.1)">
      <defs>
       <path id="DejaVuSans-4c" d="M 628 4666 
L 1259 4666 
L 1259 531 
L 3531 531 
L 3531 0 
L 628 0 
L 628 4666 
z
" transform="scale(0.015625)"/>
       <path id="DejaVuSans-4f" d="M 2522 4238 
Q 1834 4238 1429 3725 
Q 1025 3213 1025 2328 
Q 1025 1447 1429 934 
Q 1834 422 2522 422 
Q 3209 422 3611 934 
Q 4013 1447 4013 2328 
Q 4013 3213 3611 3725 
Q 3209 4238 2522 4238 
z
M 2522 4750 
Q 3503 4750 4090 4092 
Q 4678 3434 4678 2328 
Q 4678 1225 4090 567 
Q 3503 -91 2522 -91 
Q 1538 -91 948 565 
Q 359 1222 359 2328 
Q 359 3434 948 4092 
Q 1538 4750 2522 4750 
z
" transform="scale(0.015625)"/>
       <path id="DejaVuSans-53" d="M 3425 4513 
L 3425 3897 
Q 3066 4069 2747 4153 
Q 2428 4238 2131 4238 
Q 1616 4238 1336 4038 
Q 1056 3838 1056 3469 
Q 1056 3159 1242 3001 
Q 1428 2844 1947 2747 
L 2328 2669 
Q 3034 2534 3370 2195 
Q 3706 1856 3706 1288 
Q 3706 609 3251 259 
Q 2797 -91 1919 -91 
Q 1588 -91 1214 -16 
Q 841 59 441 206 
L 441 856 
Q 825 641 1194 531 
Q 1563 422 1919 422 
Q 2459 422 2753 634 
Q 3047 847 3047 1241 
Q 3047 1584 2836 1778 
Q 2625 1972 2144 2069 
L 1759 2144 
Q 1053 2284 737 2584 
Q 422 2884 422 3419 
Q 422 4038 858 4394 
Q 1294 4750 2059 4750 
Q 2388 4750 2728 4690 
Q 3069 4631 3425 4513 
z
" transform="scale(0.015625)"/>
       <path id="DejaVuSans-45" d="M 628 4666 
L 3578 4666 
L 3578 4134 
L 1259 4134 
L 1259 2753 
L 3481 2753 
L 3481 2222 
L 1259 2222 
L 1259 531 
L 3634 531 
L 3634 0 
L 628 0 
L 628 4666 
z
" transform="scale(0.015625)"/>
      </defs>
      <use xlink:href="#DejaVuSans-43"/>
      <use xlink:href="#DejaVuSans-4c" x="69.824219"/>
      <use xlink:href="#DejaVuSans-4f" x="121.912109"/>
      <use xlink:href="#DejaVuSans-53" x="200.623047"/>
      <use xlink:href="#DejaVuSans-45" x="264.099609"/>
     </g>
    </g>
    <g id="line2d_40">
     <path d="M 913.144856 76.108437 
L 923.144856 76.108437 
L 933.144856 76.108437 
" style="fill: none; stroke: #ff7f0e; stroke-width: 1.5; stroke-linecap: square"/>
    </g>
    <g id="text_9">
     <!-- SMA5 -->
     <g transform="translate(941.144856 79.608437)scale(0.1 -0.1)">
      <defs>
       <path id="DejaVuSans-4d" d="M 628 4666 
L 1569 4666 
L 2759 1491 
L 3956 4666 
L 4897 4666 
L 4897 0 
L 4281 0 
L 4281 4097 
L 3078 897 
L 2444 897 
L 1241 4097 
L 1241 0 
L 628 0 
L 628 4666 
z
" transform="scale(0.015625)"/>
       <path id="DejaVuSans-41" d="M 2188 4044 
L 1331 1722 
L 3047 1722 
L 2188 4044 
z
M 1831 4666 
L 2547 4666 
L 4325 0 
L 3669 0 
L 3244 1197 
L 1141 1197 
L 716 0 
L 50 0 
L 1831 4666 
z
" transform="scale(0.015625)"/>
       <path id="DejaVuSans-35" d="M 691 4666 
L 3169 4666 
L 3169 4134 
L 1269 4134 
L 1269 2991 
Q 1406 3038 1543 3061 
Q 1681 3084 1819 3084 
Q 2600 3084 3056 2656 
Q 3513 2228 3513 1497 
Q 3513 744 3044 326 
Q 2575 -91 1722 -91 
Q 1428 -91 1123 -41 
Q 819 9 494 109 
L 494 744 
Q 775 591 1075 516 
Q 1375 441 1709 441 
Q 2250 441 2565 725 
Q 2881 1009 2881 1497 
Q 2881 1984 2565 2268 
Q 2250 2553 1709 2553 
Q 1456 2553 1204 2497 
Q 953 2441 691 2322 
L 691 4666 
z
" transform="scale(0.015625)"/>
      </defs>
      <use xlink:href="#DejaVuSans-53"/>
      <use xlink:href="#DejaVuSans-4d" x="63.476562"/>
      <use xlink:href="#DejaVuSans-41" x="149.755859"/>
      <use xlink:href="#DejaVuSans-35" x="218.164062"/>
     </g>
    </g>
   </g>
  </g>
  <g id="axes_2">
   <g id="patch_8">
    <path d="M 43.25 584.521875 
L 982.876106 584.521875 
L 982.876106 331.135938 
L 43.25 331.135938 
z
" style="fill: #ffffff"/>
   </g>
   <g id="matplotlib.axis_3">
    <g id="xtick_13">
     <g id="line2d_41">
      <path d="M 80.604757 584.521875 
L 80.604757 331.135938 
" clip-path="url(#pc7efc931bd)" style="fill: none; stroke-dasharray: 2.96,1.28; stroke-dashoffset: 0; stroke: #b0b0b0; stroke-width: 0.8"/>
     </g>
     <g id="line2d_42">
      <g>
       <use xlink:href="#m49ba584816" x="80.604757" y="584.521875" style="stroke: #000000; stroke-width: 0.8"/>
      </g>
     </g>
     <g id="text_10">
      <!-- 2022-01 -->
      <g transform="translate(59.713351 599.120312)scale(0.1 -0.1)">
       <defs>
        <path id="DejaVuSans-2d" d="M 313 2009 
L 1997 2009 
L 1997 1497 
L 313 1497 
L 313 2009 
z
" transform="scale(0.015625)"/>
        <path id="DejaVuSans-31" d="M 794 531 
L 1825 531 
L 1825 4091 
L 703 3866 
L 703 4441 
L 1819 4666 
L 2450 4666 
L 2450 531 
L 3481 531 
L 3481 0 
L 794 0 
L 794 531 
z
" transform="scale(0.015625)"/>
       </defs>
       <use xlink:href="#DejaVuSans-32"/>
       <use xlink:href="#DejaVuSans-30" x="63.623047"/>
       <use xlink:href="#DejaVuSans-32" x="127.246094"/>
       <use xlink:href="#DejaVuSans-32" x="190.869141"/>
       <use xlink:href="#DejaVuSans-2d" x="254.492188"/>
       <use xlink:href="#DejaVuSans-30" x="290.576172"/>
       <use xlink:href="#DejaVuSans-31" x="354.199219"/>
      </g>
     </g>
    </g>
    <g id="xtick_14">
     <g id="line2d_43">
      <path d="M 163.615328 584.521875 
L 163.615328 331.135938 
" clip-path="url(#pc7efc931bd)" style="fill: none; stroke-dasharray: 2.96,1.28; stroke-dashoffset: 0; stroke: #b0b0b0; stroke-width: 0.8"/>
     </g>
     <g id="line2d_44">
      <g>
       <use xlink:href="#m49ba584816" x="163.615328" y="584.521875" style="stroke: #000000; stroke-width: 0.8"/>
      </g>
     </g>
     <g id="text_11">
      <!-- 2022-02 -->
      <g transform="translate(142.723921 599.120312)scale(0.1 -0.1)">
       <use xlink:href="#DejaVuSans-32"/>
       <use xlink:href="#DejaVuSans-30" x="63.623047"/>
       <use xlink:href="#DejaVuSans-32" x="127.246094"/>
       <use xlink:href="#DejaVuSans-32" x="190.869141"/>
       <use xlink:href="#DejaVuSans-2d" x="254.492188"/>
       <use xlink:href="#DejaVuSans-30" x="290.576172"/>
       <use xlink:href="#DejaVuSans-32" x="354.199219"/>
      </g>
     </g>
    </g>
    <g id="xtick_15">
     <g id="line2d_45">
      <path d="M 238.592617 584.521875 
L 238.592617 331.135938 
" clip-path="url(#pc7efc931bd)" style="fill: none; stroke-dasharray: 2.96,1.28; stroke-dashoffset: 0; stroke: #b0b0b0; stroke-width: 0.8"/>
     </g>
     <g id="line2d_46">
      <g>
       <use xlink:href="#m49ba584816" x="238.592617" y="584.521875" style="stroke: #000000; stroke-width: 0.8"/>
      </g>
     </g>
     <g id="text_12">
      <!-- 2022-03 -->
      <g transform="translate(217.701211 599.120312)scale(0.1 -0.1)">
       <use xlink:href="#DejaVuSans-32"/>
       <use xlink:href="#DejaVuSans-30" x="63.623047"/>
       <use xlink:href="#DejaVuSans-32" x="127.246094"/>
       <use xlink:href="#DejaVuSans-32" x="190.869141"/>
       <use xlink:href="#DejaVuSans-2d" x="254.492188"/>
       <use xlink:href="#DejaVuSans-30" x="290.576172"/>
       <use xlink:href="#DejaVuSans-33" x="354.199219"/>
      </g>
     </g>
    </g>
    <g id="xtick_16">
     <g id="line2d_47">
      <path d="M 321.603188 584.521875 
L 321.603188 331.135938 
" clip-path="url(#pc7efc931bd)" style="fill: none; stroke-dasharray: 2.96,1.28; stroke-dashoffset: 0; stroke: #b0b0b0; stroke-width: 0.8"/>
     </g>
     <g id="line2d_48">
      <g>
       <use xlink:href="#m49ba584816" x="321.603188" y="584.521875" style="stroke: #000000; stroke-width: 0.8"/>
      </g>
     </g>
     <g id="text_13">
      <!-- 2022-04 -->
      <g transform="translate(300.711782 599.120312)scale(0.1 -0.1)">
       <use xlink:href="#DejaVuSans-32"/>
       <use xlink:href="#DejaVuSans-30" x="63.623047"/>
       <use xlink:href="#DejaVuSans-32" x="127.246094"/>
       <use xlink:href="#DejaVuSans-32" x="190.869141"/>
       <use xlink:href="#DejaVuSans-2d" x="254.492188"/>
       <use xlink:href="#DejaVuSans-30" x="290.576172"/>
       <use xlink:href="#DejaVuSans-34" x="354.199219"/>
      </g>
     </g>
    </g>
    <g id="xtick_17">
     <g id="line2d_49">
      <path d="M 401.935999 584.521875 
L 401.935999 331.135938 
" clip-path="url(#pc7efc931bd)" style="fill: none; stroke-dasharray: 2.96,1.28; stroke-dashoffset: 0; stroke: #b0b0b0; stroke-width: 0.8"/>
     </g>
     <g id="line2d_50">
      <g>
       <use xlink:href="#m49ba584816" x="401.935999" y="584.521875" style="stroke: #000000; stroke-width: 0.8"/>
      </g>
     </g>
     <g id="text_14">
      <!-- 2022-05 -->
      <g transform="translate(381.044592 599.120312)scale(0.1 -0.1)">
       <use xlink:href="#DejaVuSans-32"/>
       <use xlink:href="#DejaVuSans-30" x="63.623047"/>
       <use xlink:href="#DejaVuSans-32" x="127.246094"/>
       <use xlink:href="#DejaVuSans-32" x="190.869141"/>
       <use xlink:href="#DejaVuSans-2d" x="254.492188"/>
       <use xlink:href="#DejaVuSans-30" x="290.576172"/>
       <use xlink:href="#DejaVuSans-35" x="354.199219"/>
      </g>
     </g>
    </g>
    <g id="xtick_18">
     <g id="line2d_51">
      <path d="M 484.946569 584.521875 
L 484.946569 331.135938 
" clip-path="url(#pc7efc931bd)" style="fill: none; stroke-dasharray: 2.96,1.28; stroke-dashoffset: 0; stroke: #b0b0b0; stroke-width: 0.8"/>
     </g>
     <g id="line2d_52">
      <g>
       <use xlink:href="#m49ba584816" x="484.946569" y="584.521875" style="stroke: #000000; stroke-width: 0.8"/>
      </g>
     </g>
     <g id="text_15">
      <!-- 2022-06 -->
      <g transform="translate(464.055163 599.120312)scale(0.1 -0.1)">
       <use xlink:href="#DejaVuSans-32"/>
       <use xlink:href="#DejaVuSans-30" x="63.623047"/>
       <use xlink:href="#DejaVuSans-32" x="127.246094"/>
       <use xlink:href="#DejaVuSans-32" x="190.869141"/>
       <use xlink:href="#DejaVuSans-2d" x="254.492188"/>
       <use xlink:href="#DejaVuSans-30" x="290.576172"/>
       <use xlink:href="#DejaVuSans-36" x="354.199219"/>
      </g>
     </g>
    </g>
    <g id="xtick_19">
     <g id="line2d_53">
      <path d="M 565.27938 584.521875 
L 565.27938 331.135938 
" clip-path="url(#pc7efc931bd)" style="fill: none; stroke-dasharray: 2.96,1.28; stroke-dashoffset: 0; stroke: #b0b0b0; stroke-width: 0.8"/>
     </g>
     <g id="line2d_54">
      <g>
       <use xlink:href="#m49ba584816" x="565.27938" y="584.521875" style="stroke: #000000; stroke-width: 0.8"/>
      </g>
     </g>
     <g id="text_16">
      <!-- 2022-07 -->
      <g transform="translate(544.387973 599.120312)scale(0.1 -0.1)">
       <defs>
        <path id="DejaVuSans-37" d="M 525 4666 
L 3525 4666 
L 3525 4397 
L 1831 0 
L 1172 0 
L 2766 4134 
L 525 4134 
L 525 4666 
z
" transform="scale(0.015625)"/>
       </defs>
       <use xlink:href="#DejaVuSans-32"/>
       <use xlink:href="#DejaVuSans-30" x="63.623047"/>
       <use xlink:href="#DejaVuSans-32" x="127.246094"/>
       <use xlink:href="#DejaVuSans-32" x="190.869141"/>
       <use xlink:href="#DejaVuSans-2d" x="254.492188"/>
       <use xlink:href="#DejaVuSans-30" x="290.576172"/>
       <use xlink:href="#DejaVuSans-37" x="354.199219"/>
      </g>
     </g>
    </g>
    <g id="xtick_20">
     <g id="line2d_55">
      <path d="M 648.28995 584.521875 
L 648.28995 331.135938 
" clip-path="url(#pc7efc931bd)" style="fill: none; stroke-dasharray: 2.96,1.28; stroke-dashoffset: 0; stroke: #b0b0b0; stroke-width: 0.8"/>
     </g>
     <g id="line2d_56">
      <g>
       <use xlink:href="#m49ba584816" x="648.28995" y="584.521875" style="stroke: #000000; stroke-width: 0.8"/>
      </g>
     </g>
     <g id="text_17">
      <!-- 2022-08 -->
      <g transform="translate(627.398544 599.120312)scale(0.1 -0.1)">
       <use xlink:href="#DejaVuSans-32"/>
       <use xlink:href="#DejaVuSans-30" x="63.623047"/>
       <use xlink:href="#DejaVuSans-32" x="127.246094"/>
       <use xlink:href="#DejaVuSans-32" x="190.869141"/>
       <use xlink:href="#DejaVuSans-2d" x="254.492188"/>
       <use xlink:href="#DejaVuSans-30" x="290.576172"/>
       <use xlink:href="#DejaVuSans-38" x="354.199219"/>
      </g>
     </g>
    </g>
    <g id="xtick_21">
     <g id="line2d_57">
      <path d="M 731.300521 584.521875 
L 731.300521 331.135938 
" clip-path="url(#pc7efc931bd)" style="fill: none; stroke-dasharray: 2.96,1.28; stroke-dashoffset: 0; stroke: #b0b0b0; stroke-width: 0.8"/>
     </g>
     <g id="line2d_58">
      <g>
       <use xlink:href="#m49ba584816" x="731.300521" y="584.521875" style="stroke: #000000; stroke-width: 0.8"/>
      </g>
     </g>
     <g id="text_18">
      <!-- 2022-09 -->
      <g transform="translate(710.409115 599.120312)scale(0.1 -0.1)">
       <defs>
        <path id="DejaVuSans-39" d="M 703 97 
L 703 672 
Q 941 559 1184 500 
Q 1428 441 1663 441 
Q 2288 441 2617 861 
Q 2947 1281 2994 2138 
Q 2813 1869 2534 1725 
Q 2256 1581 1919 1581 
Q 1219 1581 811 2004 
Q 403 2428 403 3163 
Q 403 3881 828 4315 
Q 1253 4750 1959 4750 
Q 2769 4750 3195 4129 
Q 3622 3509 3622 2328 
Q 3622 1225 3098 567 
Q 2575 -91 1691 -91 
Q 1453 -91 1209 -44 
Q 966 3 703 97 
z
M 1959 2075 
Q 2384 2075 2632 2365 
Q 2881 2656 2881 3163 
Q 2881 3666 2632 3958 
Q 2384 4250 1959 4250 
Q 1534 4250 1286 3958 
Q 1038 3666 1038 3163 
Q 1038 2656 1286 2365 
Q 1534 2075 1959 2075 
z
" transform="scale(0.015625)"/>
       </defs>
       <use xlink:href="#DejaVuSans-32"/>
       <use xlink:href="#DejaVuSans-30" x="63.623047"/>
       <use xlink:href="#DejaVuSans-32" x="127.246094"/>
       <use xlink:href="#DejaVuSans-32" x="190.869141"/>
       <use xlink:href="#DejaVuSans-2d" x="254.492188"/>
       <use xlink:href="#DejaVuSans-30" x="290.576172"/>
       <use xlink:href="#DejaVuSans-39" x="354.199219"/>
      </g>
     </g>
    </g>
    <g id="xtick_22">
     <g id="line2d_59">
      <path d="M 811.633332 584.521875 
L 811.633332 331.135938 
" clip-path="url(#pc7efc931bd)" style="fill: none; stroke-dasharray: 2.96,1.28; stroke-dashoffset: 0; stroke: #b0b0b0; stroke-width: 0.8"/>
     </g>
     <g id="line2d_60">
      <g>
       <use xlink:href="#m49ba584816" x="811.633332" y="584.521875" style="stroke: #000000; stroke-width: 0.8"/>
      </g>
     </g>
     <g id="text_19">
      <!-- 2022-10 -->
      <g transform="translate(790.741925 599.120312)scale(0.1 -0.1)">
       <use xlink:href="#DejaVuSans-32"/>
       <use xlink:href="#DejaVuSans-30" x="63.623047"/>
       <use xlink:href="#DejaVuSans-32" x="127.246094"/>
       <use xlink:href="#DejaVuSans-32" x="190.869141"/>
       <use xlink:href="#DejaVuSans-2d" x="254.492188"/>
       <use xlink:href="#DejaVuSans-31" x="290.576172"/>
       <use xlink:href="#DejaVuSans-30" x="354.199219"/>
      </g>
     </g>
    </g>
    <g id="xtick_23">
     <g id="line2d_61">
      <path d="M 894.643902 584.521875 
L 894.643902 331.135938 
" clip-path="url(#pc7efc931bd)" style="fill: none; stroke-dasharray: 2.96,1.28; stroke-dashoffset: 0; stroke: #b0b0b0; stroke-width: 0.8"/>
     </g>
     <g id="line2d_62">
      <g>
       <use xlink:href="#m49ba584816" x="894.643902" y="584.521875" style="stroke: #000000; stroke-width: 0.8"/>
      </g>
     </g>
     <g id="text_20">
      <!-- 2022-11 -->
      <g transform="translate(873.752496 599.120312)scale(0.1 -0.1)">
       <use xlink:href="#DejaVuSans-32"/>
       <use xlink:href="#DejaVuSans-30" x="63.623047"/>
       <use xlink:href="#DejaVuSans-32" x="127.246094"/>
       <use xlink:href="#DejaVuSans-32" x="190.869141"/>
       <use xlink:href="#DejaVuSans-2d" x="254.492188"/>
       <use xlink:href="#DejaVuSans-31" x="290.576172"/>
       <use xlink:href="#DejaVuSans-31" x="354.199219"/>
      </g>
     </g>
    </g>
    <g id="xtick_24">
     <g id="line2d_63">
      <path d="M 974.976713 584.521875 
L 974.976713 331.135938 
" clip-path="url(#pc7efc931bd)" style="fill: none; stroke-dasharray: 2.96,1.28; stroke-dashoffset: 0; stroke: #b0b0b0; stroke-width: 0.8"/>
     </g>
     <g id="line2d_64">
      <g>
       <use xlink:href="#m49ba584816" x="974.976713" y="584.521875" style="stroke: #000000; stroke-width: 0.8"/>
      </g>
     </g>
     <g id="text_21">
      <!-- 2022-12 -->
      <g transform="translate(954.085307 599.120312)scale(0.1 -0.1)">
       <use xlink:href="#DejaVuSans-32"/>
       <use xlink:href="#DejaVuSans-30" x="63.623047"/>
       <use xlink:href="#DejaVuSans-32" x="127.246094"/>
       <use xlink:href="#DejaVuSans-32" x="190.869141"/>
       <use xlink:href="#DejaVuSans-2d" x="254.492188"/>
       <use xlink:href="#DejaVuSans-31" x="290.576172"/>
       <use xlink:href="#DejaVuSans-32" x="354.199219"/>
      </g>
     </g>
    </g>
   </g>
   <g id="matplotlib.axis_4">
    <g id="ytick_7">
     <g id="line2d_65">
      <path d="M 43.25 555.037134 
L 982.876106 555.037134 
" clip-path="url(#pc7efc931bd)" style="fill: none; stroke-dasharray: 2.96,1.28; stroke-dashoffset: 0; stroke: #b0b0b0; stroke-width: 0.8"/>
     </g>
     <g id="line2d_66">
      <g>
       <use xlink:href="#m6f5802b7ed" x="43.25" y="555.037134" style="stroke: #000000; stroke-width: 0.8"/>
      </g>
     </g>
     <g id="text_22">
      <!-- −80 -->
      <g transform="translate(15.145313 558.836353)scale(0.1 -0.1)">
       <defs>
        <path id="DejaVuSans-2212" d="M 678 2272 
L 4684 2272 
L 4684 1741 
L 678 1741 
L 678 2272 
z
" transform="scale(0.015625)"/>
       </defs>
       <use xlink:href="#DejaVuSans-2212"/>
       <use xlink:href="#DejaVuSans-38" x="83.789062"/>
       <use xlink:href="#DejaVuSans-30" x="147.412109"/>
      </g>
     </g>
    </g>
    <g id="ytick_8">
     <g id="line2d_67">
      <path d="M 43.25 524.248425 
L 982.876106 524.248425 
" clip-path="url(#pc7efc931bd)" style="fill: none; stroke-dasharray: 2.96,1.28; stroke-dashoffset: 0; stroke: #b0b0b0; stroke-width: 0.8"/>
     </g>
     <g id="line2d_68">
      <g>
       <use xlink:href="#m6f5802b7ed" x="43.25" y="524.248425" style="stroke: #000000; stroke-width: 0.8"/>
      </g>
     </g>
     <g id="text_23">
      <!-- −60 -->
      <g transform="translate(15.145313 528.047644)scale(0.1 -0.1)">
       <use xlink:href="#DejaVuSans-2212"/>
       <use xlink:href="#DejaVuSans-36" x="83.789062"/>
       <use xlink:href="#DejaVuSans-30" x="147.412109"/>
      </g>
     </g>
    </g>
    <g id="ytick_9">
     <g id="line2d_69">
      <path d="M 43.25 493.459717 
L 982.876106 493.459717 
" clip-path="url(#pc7efc931bd)" style="fill: none; stroke-dasharray: 2.96,1.28; stroke-dashoffset: 0; stroke: #b0b0b0; stroke-width: 0.8"/>
     </g>
     <g id="line2d_70">
      <g>
       <use xlink:href="#m6f5802b7ed" x="43.25" y="493.459717" style="stroke: #000000; stroke-width: 0.8"/>
      </g>
     </g>
     <g id="text_24">
      <!-- −40 -->
      <g transform="translate(15.145313 497.258935)scale(0.1 -0.1)">
       <use xlink:href="#DejaVuSans-2212"/>
       <use xlink:href="#DejaVuSans-34" x="83.789062"/>
       <use xlink:href="#DejaVuSans-30" x="147.412109"/>
      </g>
     </g>
    </g>
    <g id="ytick_10">
     <g id="line2d_71">
      <path d="M 43.25 462.671008 
L 982.876106 462.671008 
" clip-path="url(#pc7efc931bd)" style="fill: none; stroke-dasharray: 2.96,1.28; stroke-dashoffset: 0; stroke: #b0b0b0; stroke-width: 0.8"/>
     </g>
     <g id="line2d_72">
      <g>
       <use xlink:href="#m6f5802b7ed" x="43.25" y="462.671008" style="stroke: #000000; stroke-width: 0.8"/>
      </g>
     </g>
     <g id="text_25">
      <!-- −20 -->
      <g transform="translate(15.145313 466.470227)scale(0.1 -0.1)">
       <use xlink:href="#DejaVuSans-2212"/>
       <use xlink:href="#DejaVuSans-32" x="83.789062"/>
       <use xlink:href="#DejaVuSans-30" x="147.412109"/>
      </g>
     </g>
    </g>
    <g id="ytick_11">
     <g id="line2d_73">
      <path d="M 43.25 431.882299 
L 982.876106 431.882299 
" clip-path="url(#pc7efc931bd)" style="fill: none; stroke-dasharray: 2.96,1.28; stroke-dashoffset: 0; stroke: #b0b0b0; stroke-width: 0.8"/>
     </g>
     <g id="line2d_74">
      <g>
       <use xlink:href="#m6f5802b7ed" x="43.25" y="431.882299" style="stroke: #000000; stroke-width: 0.8"/>
      </g>
     </g>
     <g id="text_26">
      <!-- 0 -->
      <g transform="translate(29.8875 435.681518)scale(0.1 -0.1)">
       <use xlink:href="#DejaVuSans-30"/>
      </g>
     </g>
    </g>
    <g id="ytick_12">
     <g id="line2d_75">
      <path d="M 43.25 401.093591 
L 982.876106 401.093591 
" clip-path="url(#pc7efc931bd)" style="fill: none; stroke-dasharray: 2.96,1.28; stroke-dashoffset: 0; stroke: #b0b0b0; stroke-width: 0.8"/>
     </g>
     <g id="line2d_76">
      <g>
       <use xlink:href="#m6f5802b7ed" x="43.25" y="401.093591" style="stroke: #000000; stroke-width: 0.8"/>
      </g>
     </g>
     <g id="text_27">
      <!-- 20 -->
      <g transform="translate(23.525 404.89281)scale(0.1 -0.1)">
       <use xlink:href="#DejaVuSans-32"/>
       <use xlink:href="#DejaVuSans-30" x="63.623047"/>
      </g>
     </g>
    </g>
    <g id="ytick_13">
     <g id="line2d_77">
      <path d="M 43.25 370.304882 
L 982.876106 370.304882 
" clip-path="url(#pc7efc931bd)" style="fill: none; stroke-dasharray: 2.96,1.28; stroke-dashoffset: 0; stroke: #b0b0b0; stroke-width: 0.8"/>
     </g>
     <g id="line2d_78">
      <g>
       <use xlink:href="#m6f5802b7ed" x="43.25" y="370.304882" style="stroke: #000000; stroke-width: 0.8"/>
      </g>
     </g>
     <g id="text_28">
      <!-- 40 -->
      <g transform="translate(23.525 374.104101)scale(0.1 -0.1)">
       <use xlink:href="#DejaVuSans-34"/>
       <use xlink:href="#DejaVuSans-30" x="63.623047"/>
      </g>
     </g>
    </g>
    <g id="ytick_14">
     <g id="line2d_79">
      <path d="M 43.25 339.516174 
L 982.876106 339.516174 
" clip-path="url(#pc7efc931bd)" style="fill: none; stroke-dasharray: 2.96,1.28; stroke-dashoffset: 0; stroke: #b0b0b0; stroke-width: 0.8"/>
     </g>
     <g id="line2d_80">
      <g>
       <use xlink:href="#m6f5802b7ed" x="43.25" y="339.516174" style="stroke: #000000; stroke-width: 0.8"/>
      </g>
     </g>
     <g id="text_29">
      <!-- 60 -->
      <g transform="translate(23.525 343.315392)scale(0.1 -0.1)">
       <use xlink:href="#DejaVuSans-36"/>
       <use xlink:href="#DejaVuSans-30" x="63.623047"/>
      </g>
     </g>
    </g>
   </g>
   <g id="line2d_81">
    <path d="M 85.960278 431.882299 
L 88.638038 429.568212 
L 91.315798 430.069853 
L 93.993559 433.315996 
L 96.671319 432.228803 
L 104.7046 429.834193 
L 107.38236 425.819693 
L 110.060121 427.325381 
L 112.737881 425.535051 
L 115.415641 418.786888 
L 123.448922 409.911482 
L 126.126683 406.117652 
L 128.804443 410.250426 
L 131.482203 421.485079 
L 134.159964 429.455454 
L 142.193245 441.33654 
L 150.226526 468.856403 
L 152.904286 478.547389 
L 160.937567 480.817534 
L 163.615328 475.425992 
L 166.293088 464.996893 
L 168.970848 459.820977 
L 171.648609 456.497755 
L 179.68189 457.465341 
L 182.35965 461.761479 
L 185.03741 462.893709 
L 187.715171 462.336338 
L 190.392931 469.914634 
L 198.426212 471.051106 
L 201.103972 462.021717 
L 203.781733 455.150592 
L 206.459493 452.805734 
L 209.137254 449.619092 
L 217.170535 455.506316 
L 219.848295 475.236294 
L 222.526055 492.801528 
L 225.203816 524.77698 
L 227.881576 534.777025 
L 241.270378 539.350749 
L 243.948138 539.782828 
L 246.625898 541.263654 
L 254.659179 545.863223 
L 257.33694 534.440608 
L 260.0147 520.419931 
L 262.69246 509.821991 
L 265.370221 503.246011 
L 276.081262 488.432264 
L 281.436783 466.398626 
L 292.147824 462.867587 
L 294.825585 450.762276 
L 297.503345 439.677229 
L 300.181105 426.36337 
L 302.858866 421.143801 
L 310.892147 417.147251 
L 313.569907 414.470419 
L 316.247667 409.384242 
L 318.925428 404.633778 
L 321.603188 398.932685 
L 329.636469 393.428259 
L 332.314229 384.132964 
L 334.99199 384.650746 
L 337.66975 394.288207 
L 340.347511 402.083944 
L 348.380792 407.217559 
L 351.058552 412.168531 
L 353.736312 419.836606 
L 367.125114 442.360125 
L 369.802874 466.756731 
L 372.480635 475.081499 
L 375.158395 472.315037 
L 377.836155 471.658102 
L 385.869436 478.571214 
L 388.547197 483.68776 
L 391.224957 485.280156 
L 393.902717 483.088253 
L 396.580478 485.395604 
L 404.613759 487.120391 
L 409.96928 495.522707 
L 412.64704 497.254257 
L 415.3248 507.773908 
L 423.358081 513.617613 
L 426.035842 518.043133 
L 428.713602 523.809529 
L 431.391362 527.69047 
L 434.069123 528.872279 
L 442.102404 533.36729 
L 444.780164 526.554318 
L 447.457924 520.481135 
L 450.135685 537.642513 
L 452.813445 546.072035 
L 460.846726 547.846446 
L 463.524487 552.057244 
L 466.202247 568.758242 
L 468.880007 573.004332 
L 471.557768 570.506281 
L 479.591049 552.981656 
L 482.268809 539.20951 
L 484.946569 528.319493 
L 487.62433 510.365088 
L 490.30209 493.298434 
L 498.335371 480.356713 
L 501.013131 478.043926 
L 503.690892 470.616869 
L 506.368652 461.538822 
L 509.046412 462.339118 
L 517.079693 479.84506 
L 519.757454 494.125082 
L 522.435214 505.125601 
L 525.112974 520.804589 
L 527.790735 538.595245 
L 535.824016 548.43213 
L 538.501776 542.587222 
L 541.179537 535.395577 
L 543.857297 518.039839 
L 546.535057 505.388022 
L 554.568338 491.985632 
L 557.246099 480.376609 
L 559.923859 474.123847 
L 562.601619 471.61698 
L 565.27938 463.305892 
L 573.312661 466.266106 
L 575.990421 470.495961 
L 578.668181 467.911554 
L 581.345942 462.148317 
L 584.023702 460.038734 
L 592.056983 476.687494 
L 594.734744 492.79424 
L 600.090264 528.143476 
L 602.768025 541.487478 
L 610.801306 542.232157 
L 613.479066 540.237933 
L 618.834587 512.806275 
L 621.512347 502.069211 
L 629.545628 493.379037 
L 632.223388 492.114148 
L 634.901149 481.478333 
L 637.578909 463.781464 
L 640.256669 444.468863 
L 648.28995 429.575161 
L 650.967711 418.792217 
L 653.645471 404.635535 
L 656.323232 391.957323 
L 659.000992 381.23893 
L 667.034273 372.264116 
L 672.389794 368.392598 
L 675.067554 357.701581 
L 677.745314 352.743519 
L 688.456356 350.847674 
L 691.134116 349.25425 
L 696.489637 353.419333 
L 704.522918 359.738722 
L 707.200678 374.102058 
L 709.878438 389.60585 
L 712.556199 406.796627 
L 715.233959 420.059847 
L 725.945001 448.7048 
L 731.300521 463.839938 
L 733.978282 475.493407 
L 742.011563 483.758213 
L 744.689323 490.422113 
L 747.367083 492.206773 
L 750.044844 490.455338 
L 752.722604 482.521052 
L 760.755885 472.620716 
L 763.433645 466.069918 
L 768.789166 481.575396 
L 771.466926 498.7473 
L 779.500207 508.970719 
L 782.177968 514.689776 
L 784.855728 523.028473 
L 787.533489 527.761554 
L 790.211249 533.490245 
L 798.24453 535.303982 
L 800.92229 532.715777 
L 803.600051 527.303851 
L 806.277811 526.685842 
L 808.955571 524.230936 
L 816.988852 523.662127 
L 819.666613 509.12878 
L 827.699894 488.710289 
L 838.410935 471.78099 
L 841.088695 464.090043 
L 843.766456 457.384183 
L 846.444216 452.34932 
L 854.477497 446.624055 
L 857.155258 437.924062 
L 859.833018 433.845046 
L 862.510778 426.273468 
L 865.188539 422.849038 
L 873.22182 417.284886 
L 875.89958 413.042739 
L 881.255101 410.510994 
L 883.932861 408.052578 
L 891.966142 402.726194 
L 894.643902 390.712761 
L 897.321663 383.980167 
L 899.999423 383.543235 
L 902.677183 382.443919 
L 910.710465 380.144327 
L 916.065985 381.099749 
L 918.743746 383.704179 
L 921.421506 372.748449 
L 929.454787 362.437972 
L 932.132547 355.507483 
L 934.810308 348.154191 
L 937.488068 344.127036 
L 940.165828 342.65348 
L 940.165828 342.65348 
" clip-path="url(#pc7efc931bd)" style="fill: none; stroke: #1f77b4; stroke-width: 1.5; stroke-linecap: square"/>
   </g>
   <g id="line2d_82">
    <path d="M 85.960278 431.882299 
L 88.638038 430.596695 
L 91.315798 430.380776 
L 93.993559 431.375092 
L 96.671319 431.629052 
L 104.7046 431.142545 
L 107.38236 429.795473 
L 110.060121 429.201864 
L 112.737881 428.354812 
L 115.415641 426.211041 
L 123.448922 422.644791 
L 126.126683 419.095455 
L 128.804443 417.223539 
L 131.482203 418.115057 
L 134.159964 420.465847 
L 142.193245 424.76088 
L 144.871005 430.010584 
L 150.226526 437.922272 
L 152.904286 446.166102 
L 160.937567 453.177221 
L 163.615328 457.668399 
L 166.293088 459.144993 
L 168.970848 459.280993 
L 171.648609 458.721704 
L 179.68189 458.469478 
L 187.715171 460.375791 
L 190.392931 462.286516 
L 198.426212 464.041607 
L 201.103972 463.637228 
L 206.459493 460.110832 
L 209.137254 458.01142 
L 217.170535 457.510196 
L 219.848295 461.056566 
L 222.526055 467.407207 
L 227.881576 490.064099 
L 235.914857 499.550411 
L 241.270378 507.511325 
L 243.948138 513.966175 
L 246.625898 519.426042 
L 254.659179 524.713766 
L 257.33694 526.659219 
L 260.0147 525.411318 
L 262.69246 522.293366 
L 265.370221 518.48381 
L 273.403502 513.188893 
L 276.081262 508.237497 
L 278.759023 502.091833 
L 281.436783 494.953126 
L 292.147824 488.535972 
L 294.825585 480.981188 
L 297.503345 472.720358 
L 300.181105 463.448926 
L 302.858866 454.987875 
L 310.892147 447.419732 
L 313.569907 440.829857 
L 316.247667 434.540724 
L 321.603188 422.633993 
L 329.636469 416.792842 
L 332.314229 410.260862 
L 334.99199 405.138836 
L 337.66975 402.96871 
L 340.347511 402.791756 
L 348.380792 403.676917 
L 351.058552 405.37524 
L 353.736312 408.267514 
L 367.125114 415.086037 
L 372.480635 435.352442 
L 375.158395 442.744962 
L 377.836155 448.52759 
L 385.869436 454.536315 
L 388.547197 460.366604 
L 391.224957 465.349315 
L 393.902717 468.897103 
L 396.580478 472.196803 
L 404.613759 475.181521 
L 409.96928 479.249758 
L 412.64704 482.850658 
L 415.3248 487.835308 
L 423.358081 492.991769 
L 431.391362 508.068925 
L 434.069123 512.229596 
L 442.102404 516.457135 
L 444.780164 518.476571 
L 447.457924 518.877484 
L 450.135685 522.63049 
L 452.813445 527.318799 
L 460.846726 531.424328 
L 463.524487 535.550912 
L 466.202247 542.192378 
L 468.880007 548.354769 
L 471.557768 552.785071 
L 479.591049 552.824388 
L 482.268809 550.101413 
L 484.946569 545.745029 
L 487.62433 538.669041 
L 490.30209 529.594919 
L 498.335371 519.747278 
L 506.368652 494.906692 
L 509.046412 488.393177 
L 517.079693 486.683554 
L 519.757454 488.17186 
L 522.435214 491.562608 
L 525.112974 497.411004 
L 527.790735 505.647852 
L 535.824016 514.204708 
L 538.501776 519.881211 
L 541.179537 522.984084 
L 543.857297 521.995235 
L 546.535057 518.673792 
L 554.568338 513.33616 
L 559.923859 500.220169 
L 562.601619 494.499532 
L 565.27938 488.260804 
L 573.312661 483.861864 
L 578.668181 478.533258 
L 581.345942 475.256269 
L 584.023702 472.212762 
L 592.056983 473.107709 
L 594.734744 477.045015 
L 597.412504 483.708404 
L 600.090264 492.595419 
L 602.768025 502.373831 
L 610.801306 510.345496 
L 613.479066 516.323983 
L 616.156826 518.323397 
L 618.834587 517.219973 
L 621.512347 514.18982 
L 629.545628 510.027664 
L 632.223388 506.444961 
L 634.901149 501.451635 
L 637.578909 493.917601 
L 640.256669 484.027853 
L 648.28995 473.137315 
L 650.967711 462.268295 
L 659.000992 427.435673 
L 667.034273 416.401362 
L 672.389794 406.799609 
L 675.067554 396.980004 
L 677.745314 388.132707 
L 688.456356 380.6757 
L 691.134116 374.39141 
L 693.811876 369.790152 
L 696.489637 366.515988 
L 704.522918 365.160535 
L 707.200678 366.948839 
L 709.878438 371.480241 
L 712.556199 378.543518 
L 715.233959 386.846784 
L 723.26724 397.796492 
L 725.945001 407.978154 
L 731.300521 419.150511 
L 733.978282 430.41909 
L 742.011563 441.086915 
L 744.689323 450.953954 
L 747.367083 459.204518 
L 750.044844 465.454682 
L 752.722604 468.867956 
L 760.755885 469.618508 
L 763.433645 468.90879 
L 766.111406 469.912511 
L 768.789166 472.245088 
L 771.466926 477.545531 
L 779.500207 483.830568 
L 782.177968 490.00241 
L 784.855728 496.607623 
L 790.211249 508.968776 
L 798.24453 514.235817 
L 800.92229 517.931809 
L 803.600051 519.806218 
L 806.277811 521.182142 
L 808.955571 521.791901 
L 816.988852 522.165946 
L 819.666613 519.558513 
L 825.022133 514.753944 
L 827.699894 509.545213 
L 835.733175 502.861516 
L 838.410935 496.645411 
L 846.444216 477.337309 
L 854.477497 471.194658 
L 857.155258 464.540539 
L 859.833018 458.40144 
L 862.510778 451.975846 
L 865.188539 446.150484 
L 873.22182 440.377365 
L 875.89958 434.91044 
L 881.255101 430.03055 
L 883.932861 425.634956 
L 891.966142 421.053203 
L 897.321663 408.784125 
L 899.999423 403.735947 
L 902.677183 399.477542 
L 910.710465 395.610899 
L 916.065985 392.708669 
L 918.743746 390.907771 
L 921.421506 387.275907 
L 929.454787 382.30832 
L 932.132547 376.948152 
L 934.810308 371.18936 
L 937.488068 365.776895 
L 940.165828 361.152212 
L 940.165828 361.152212 
" clip-path="url(#pc7efc931bd)" style="fill: none; stroke: #ff7f0e; stroke-width: 1.5; stroke-linecap: square"/>
   </g>
   <g id="patch_9">
    <path d="M 43.25 584.521875 
L 43.25 331.135938 
" style="fill: none; stroke: #000000; stroke-width: 0.8; stroke-linejoin: miter; stroke-linecap: square"/>
   </g>
   <g id="patch_10">
    <path d="M 982.876106 584.521875 
L 982.876106 331.135938 
" style="fill: none; stroke: #000000; stroke-width: 0.8; stroke-linejoin: miter; stroke-linecap: square"/>
   </g>
   <g id="patch_11">
    <path d="M 43.25 584.521875 
L 982.876106 584.521875 
" style="fill: none; stroke: #000000; stroke-width: 0.8; stroke-linejoin: miter; stroke-linecap: square"/>
   </g>
   <g id="patch_12">
    <path d="M 43.25 331.135938 
L 982.876106 331.135938 
" style="fill: none; stroke: #000000; stroke-width: 0.8; stroke-linejoin: miter; stroke-linecap: square"/>
   </g>
   <g id="text_30">
    <!-- MACD -->
    <g transform="translate(495.077115 325.135938)scale(0.12 -0.12)">
     <defs>
      <path id="DejaVuSans-44" d="M 1259 4147 
L 1259 519 
L 2022 519 
Q 2988 519 3436 956 
Q 3884 1394 3884 2338 
Q 3884 3275 3436 3711 
Q 2988 4147 2022 4147 
L 1259 4147 
z
M 628 4666 
L 1925 4666 
Q 3281 4666 3915 4102 
Q 4550 3538 4550 2338 
Q 4550 1131 3912 565 
Q 3275 0 1925 0 
L 628 0 
L 628 4666 
z
" transform="scale(0.015625)"/>
     </defs>
     <use xlink:href="#DejaVuSans-4d"/>
     <use xlink:href="#DejaVuSans-41" x="86.279297"/>
     <use xlink:href="#DejaVuSans-43" x="152.9375"/>
     <use xlink:href="#DejaVuSans-44" x="222.761719"/>
    </g>
   </g>
   <g id="legend_2">
    <g id="patch_13">
     <path d="M 50.25 368.492188 
L 112.226563 368.492188 
Q 114.226563 368.492188 114.226563 366.492188 
L 114.226563 338.135938 
Q 114.226563 336.135938 112.226563 336.135938 
L 50.25 336.135938 
Q 48.25 336.135938 48.25 338.135938 
L 48.25 366.492188 
Q 48.25 368.492188 50.25 368.492188 
z
" style="fill: #ffffff; opacity: 0.8; stroke: #cccccc; stroke-linejoin: miter"/>
    </g>
    <g id="line2d_83">
     <path d="M 52.25 344.234375 
L 62.25 344.234375 
L 72.25 344.234375 
" style="fill: none; stroke: #1f77b4; stroke-width: 1.5; stroke-linecap: square"/>
    </g>
    <g id="text_31">
     <!-- MACD -->
     <g transform="translate(80.25 347.734375)scale(0.1 -0.1)">
      <use xlink:href="#DejaVuSans-4d"/>
      <use xlink:href="#DejaVuSans-41" x="86.279297"/>
      <use xlink:href="#DejaVuSans-43" x="152.9375"/>
      <use xlink:href="#DejaVuSans-44" x="222.761719"/>
     </g>
    </g>
    <g id="line2d_84">
     <path d="M 52.25 358.9125 
L 62.25 358.9125 
L 72.25 358.9125 
" style="fill: none; stroke: #ff7f0e; stroke-width: 1.5; stroke-linecap: square"/>
    </g>
    <g id="text_32">
     <!-- SIG -->
     <g transform="translate(80.25 362.4125)scale(0.1 -0.1)">
      <defs>
       <path id="DejaVuSans-49" d="M 628 4666 
L 1259 4666 
L 1259 0 
L 628 0 
L 628 4666 
z
" transform="scale(0.015625)"/>
       <path id="DejaVuSans-47" d="M 3809 666 
L 3809 1919 
L 2778 1919 
L 2778 2438 
L 4434 2438 
L 4434 434 
Q 4069 175 3628 42 
Q 3188 -91 2688 -91 
Q 1594 -91 976 548 
Q 359 1188 359 2328 
Q 359 3472 976 4111 
Q 1594 4750 2688 4750 
Q 3144 4750 3555 4637 
Q 3966 4525 4313 4306 
L 4313 3634 
Q 3963 3931 3569 4081 
Q 3175 4231 2741 4231 
Q 1884 4231 1454 3753 
Q 1025 3275 1025 2328 
Q 1025 1384 1454 906 
Q 1884 428 2741 428 
Q 3075 428 3337 486 
Q 3600 544 3809 666 
z
" transform="scale(0.015625)"/>
      </defs>
      <use xlink:href="#DejaVuSans-53"/>
      <use xlink:href="#DejaVuSans-49" x="63.476562"/>
      <use xlink:href="#DejaVuSans-47" x="92.96875"/>
     </g>
    </g>
   </g>
  </g>
  <g id="text_33">
   <!-- Tata Consultancy Services Limited -->
   <g transform="translate(401.281875 21.358125)scale(0.12 -0.12)">
    <defs>
     <path id="DejaVuSans-54" d="M -19 4666 
L 3928 4666 
L 3928 4134 
L 2272 4134 
L 2272 0 
L 1638 0 
L 1638 4134 
L -19 4134 
L -19 4666 
z
" transform="scale(0.015625)"/>
     <path id="DejaVuSans-61" d="M 2194 1759 
Q 1497 1759 1228 1600 
Q 959 1441 959 1056 
Q 959 750 1161 570 
Q 1363 391 1709 391 
Q 2188 391 2477 730 
Q 2766 1069 2766 1631 
L 2766 1759 
L 2194 1759 
z
M 3341 1997 
L 3341 0 
L 2766 0 
L 2766 531 
Q 2569 213 2275 61 
Q 1981 -91 1556 -91 
Q 1019 -91 701 211 
Q 384 513 384 1019 
Q 384 1609 779 1909 
Q 1175 2209 1959 2209 
L 2766 2209 
L 2766 2266 
Q 2766 2663 2505 2880 
Q 2244 3097 1772 3097 
Q 1472 3097 1187 3025 
Q 903 2953 641 2809 
L 641 3341 
Q 956 3463 1253 3523 
Q 1550 3584 1831 3584 
Q 2591 3584 2966 3190 
Q 3341 2797 3341 1997 
z
" transform="scale(0.015625)"/>
     <path id="DejaVuSans-74" d="M 1172 4494 
L 1172 3500 
L 2356 3500 
L 2356 3053 
L 1172 3053 
L 1172 1153 
Q 1172 725 1289 603 
Q 1406 481 1766 481 
L 2356 481 
L 2356 0 
L 1766 0 
Q 1100 0 847 248 
Q 594 497 594 1153 
L 594 3053 
L 172 3053 
L 172 3500 
L 594 3500 
L 594 4494 
L 1172 4494 
z
" transform="scale(0.015625)"/>
     <path id="DejaVuSans-75" d="M 544 1381 
L 544 3500 
L 1119 3500 
L 1119 1403 
Q 1119 906 1312 657 
Q 1506 409 1894 409 
Q 2359 409 2629 706 
Q 2900 1003 2900 1516 
L 2900 3500 
L 3475 3500 
L 3475 0 
L 2900 0 
L 2900 538 
Q 2691 219 2414 64 
Q 2138 -91 1772 -91 
Q 1169 -91 856 284 
Q 544 659 544 1381 
z
M 1991 3584 
L 1991 3584 
z
" transform="scale(0.015625)"/>
     <path id="DejaVuSans-79" d="M 2059 -325 
Q 1816 -950 1584 -1140 
Q 1353 -1331 966 -1331 
L 506 -1331 
L 506 -850 
L 844 -850 
Q 1081 -850 1212 -737 
Q 1344 -625 1503 -206 
L 1606 56 
L 191 3500 
L 800 3500 
L 1894 763 
L 2988 3500 
L 3597 3500 
L 2059 -325 
z
" transform="scale(0.015625)"/>
     <path id="DejaVuSans-76" d="M 191 3500 
L 800 3500 
L 1894 563 
L 2988 3500 
L 3597 3500 
L 2284 0 
L 1503 0 
L 191 3500 
z
" transform="scale(0.015625)"/>
     <path id="DejaVuSans-6d" d="M 3328 2828 
Q 3544 3216 3844 3400 
Q 4144 3584 4550 3584 
Q 5097 3584 5394 3201 
Q 5691 2819 5691 2113 
L 5691 0 
L 5113 0 
L 5113 2094 
Q 5113 2597 4934 2840 
Q 4756 3084 4391 3084 
Q 3944 3084 3684 2787 
Q 3425 2491 3425 1978 
L 3425 0 
L 2847 0 
L 2847 2094 
Q 2847 2600 2669 2842 
Q 2491 3084 2119 3084 
Q 1678 3084 1418 2786 
Q 1159 2488 1159 1978 
L 1159 0 
L 581 0 
L 581 3500 
L 1159 3500 
L 1159 2956 
Q 1356 3278 1631 3431 
Q 1906 3584 2284 3584 
Q 2666 3584 2933 3390 
Q 3200 3197 3328 2828 
z
" transform="scale(0.015625)"/>
     <path id="DejaVuSans-64" d="M 2906 2969 
L 2906 4863 
L 3481 4863 
L 3481 0 
L 2906 0 
L 2906 525 
Q 2725 213 2448 61 
Q 2172 -91 1784 -91 
Q 1150 -91 751 415 
Q 353 922 353 1747 
Q 353 2572 751 3078 
Q 1150 3584 1784 3584 
Q 2172 3584 2448 3432 
Q 2725 3281 2906 2969 
z
M 947 1747 
Q 947 1113 1208 752 
Q 1469 391 1925 391 
Q 2381 391 2643 752 
Q 2906 1113 2906 1747 
Q 2906 2381 2643 2742 
Q 2381 3103 1925 3103 
Q 1469 3103 1208 2742 
Q 947 2381 947 1747 
z
" transform="scale(0.015625)"/>
    </defs>
    <use xlink:href="#DejaVuSans-54"/>
    <use xlink:href="#DejaVuSans-61" x="44.583984"/>
    <use xlink:href="#DejaVuSans-74" x="105.863281"/>
    <use xlink:href="#DejaVuSans-61" x="145.072266"/>
    <use xlink:href="#DejaVuSans-20" x="206.351562"/>
    <use xlink:href="#DejaVuSans-43" x="238.138672"/>
    <use xlink:href="#DejaVuSans-6f" x="307.962891"/>
    <use xlink:href="#DejaVuSans-6e" x="369.144531"/>
    <use xlink:href="#DejaVuSans-73" x="432.523438"/>
    <use xlink:href="#DejaVuSans-75" x="484.623047"/>
    <use xlink:href="#DejaVuSans-6c" x="548.001953"/>
    <use xlink:href="#DejaVuSans-74" x="575.785156"/>
    <use xlink:href="#DejaVuSans-61" x="614.994141"/>
    <use xlink:href="#DejaVuSans-6e" x="676.273438"/>
    <use xlink:href="#DejaVuSans-63" x="739.652344"/>
    <use xlink:href="#DejaVuSans-79" x="794.632812"/>
    <use xlink:href="#DejaVuSans-20" x="853.8125"/>
    <use xlink:href="#DejaVuSans-53" x="885.599609"/>
    <use xlink:href="#DejaVuSans-65" x="949.076172"/>
    <use xlink:href="#DejaVuSans-72" x="1010.599609"/>
    <use xlink:href="#DejaVuSans-76" x="1051.712891"/>
    <use xlink:href="#DejaVuSans-69" x="1110.892578"/>
    <use xlink:href="#DejaVuSans-63" x="1138.675781"/>
    <use xlink:href="#DejaVuSans-65" x="1193.65625"/>
    <use xlink:href="#DejaVuSans-73" x="1255.179688"/>
    <use xlink:href="#DejaVuSans-20" x="1307.279297"/>
    <use xlink:href="#DejaVuSans-4c" x="1339.066406"/>
    <use xlink:href="#DejaVuSans-69" x="1394.779297"/>
    <use xlink:href="#DejaVuSans-6d" x="1422.5625"/>
    <use xlink:href="#DejaVuSans-69" x="1519.974609"/>
    <use xlink:href="#DejaVuSans-74" x="1547.757812"/>
    <use xlink:href="#DejaVuSans-65" x="1586.966797"/>
    <use xlink:href="#DejaVuSans-64" x="1648.490234"/>
   </g>
  </g>
 </g>
 <defs>
  <clipPath id="p1bc38dbe11">
   <rect x="43.25" y="48.331875" width="939.626106" height="253.385938"/>
  </clipPath>
  <clipPath id="pc7efc931bd">
   <rect x="43.25" y="331.135938" width="939.626106" height="253.385937"/>
  </clipPath>
 </defs>
</svg>
