<?xml version="1.0" encoding="utf-8" standalone="no"?>
<!DOCTYPE svg PUBLIC "-//W3C//DTD SVG 1.1//EN"
  "http://www.w3.org/Graphics/SVG/1.1/DTD/svg11.dtd">
<svg xmlns:xlink="http://www.w3.org/1999/xlink" width="1008pt" height="612pt" viewBox="0 0 1008 612" xmlns="http://www.w3.org/2000/svg" version="1.1">
 <metadata>
  <rdf:RDF xmlns:dc="http://purl.org/dc/elements/1.1/" xmlns:cc="http://creativecommons.org/ns#" xmlns:rdf="http://www.w3.org/1999/02/22-rdf-syntax-ns#">
   <cc:Work>
    <dc:type rdf:resource="http://purl.org/dc/dcmitype/StillImage"/>
    <dc:date>2022-11-20T19:46:45.015050</dc:date>
    <dc:format>image/svg+xml</dc:format>
    <dc:creator>
     <cc:Agent>
      <dc:title>Matplotlib v3.5.2, https://matplotlib.org/</dc:title>
     </cc:Agent>
    </dc:creator>
   </cc:Work>
  </rdf:RDF>
 </metadata>
 <defs>
  <style type="text/css">*{stroke-linejoin: round; stroke-linecap: butt}</style>
 </defs>
 <g id="figure_1">
  <g id="patch_1">
   <path d="M 0 612 
L 1008 612 
L 1008 0 
L 0 0 
z
" style="fill: #ffffff"/>
  </g>
  <g id="axes_1">
   <g id="patch_2">
    <path d="M 43.25 301.717812 
L 982.876106 301.717812 
L 982.876106 48.331875 
L 43.25 48.331875 
z
" style="fill: #ffffff"/>
   </g>
   <g id="matplotlib.axis_1">
    <g id="xtick_1">
     <g id="line2d_1">
      <path d="M 80.604757 301.717812 
L 80.604757 48.331875 
" clip-path="url(#p18c40b8deb)" style="fill: none; stroke-dasharray: 2.96,1.28; stroke-dashoffset: 0; stroke: #b0b0b0; stroke-width: 0.8"/>
     </g>
     <g id="line2d_2">
      <defs>
       <path id="m919f067d39" d="M 0 0 
L 0 3.5 
" style="stroke: #000000; stroke-width: 0.8"/>
      </defs>
      <g>
       <use xlink:href="#m919f067d39" x="80.604757" y="301.717812" style="stroke: #000000; stroke-width: 0.8"/>
      </g>
     </g>
    </g>
    <g id="xtick_2">
     <g id="line2d_3">
      <path d="M 163.615328 301.717812 
L 163.615328 48.331875 
" clip-path="url(#p18c40b8deb)" style="fill: none; stroke-dasharray: 2.96,1.28; stroke-dashoffset: 0; stroke: #b0b0b0; stroke-width: 0.8"/>
     </g>
     <g id="line2d_4">
      <g>
       <use xlink:href="#m919f067d39" x="163.615328" y="301.717812" style="stroke: #000000; stroke-width: 0.8"/>
      </g>
     </g>
    </g>
    <g id="xtick_3">
     <g id="line2d_5">
      <path d="M 238.592617 301.717812 
L 238.592617 48.331875 
" clip-path="url(#p18c40b8deb)" style="fill: none; stroke-dasharray: 2.96,1.28; stroke-dashoffset: 0; stroke: #b0b0b0; stroke-width: 0.8"/>
     </g>
     <g id="line2d_6">
      <g>
       <use xlink:href="#m919f067d39" x="238.592617" y="301.717812" style="stroke: #000000; stroke-width: 0.8"/>
      </g>
     </g>
    </g>
    <g id="xtick_4">
     <g id="line2d_7">
      <path d="M 321.603188 301.717812 
L 321.603188 48.331875 
" clip-path="url(#p18c40b8deb)" style="fill: none; stroke-dasharray: 2.96,1.28; stroke-dashoffset: 0; stroke: #b0b0b0; stroke-width: 0.8"/>
     </g>
     <g id="line2d_8">
      <g>
       <use xlink:href="#m919f067d39" x="321.603188" y="301.717812" style="stroke: #000000; stroke-width: 0.8"/>
      </g>
     </g>
    </g>
    <g id="xtick_5">
     <g id="line2d_9">
      <path d="M 401.935999 301.717812 
L 401.935999 48.331875 
" clip-path="url(#p18c40b8deb)" style="fill: none; stroke-dasharray: 2.96,1.28; stroke-dashoffset: 0; stroke: #b0b0b0; stroke-width: 0.8"/>
     </g>
     <g id="line2d_10">
      <g>
       <use xlink:href="#m919f067d39" x="401.935999" y="301.717812" style="stroke: #000000; stroke-width: 0.8"/>
      </g>
     </g>
    </g>
    <g id="xtick_6">
     <g id="line2d_11">
      <path d="M 484.946569 301.717812 
L 484.946569 48.331875 
" clip-path="url(#p18c40b8deb)" style="fill: none; stroke-dasharray: 2.96,1.28; stroke-dashoffset: 0; stroke: #b0b0b0; stroke-width: 0.8"/>
     </g>
     <g id="line2d_12">
      <g>
       <use xlink:href="#m919f067d39" x="484.946569" y="301.717812" style="stroke: #000000; stroke-width: 0.8"/>
      </g>
     </g>
    </g>
    <g id="xtick_7">
     <g id="line2d_13">
      <path d="M 565.27938 301.717812 
L 565.27938 48.331875 
" clip-path="url(#p18c40b8deb)" style="fill: none; stroke-dasharray: 2.96,1.28; stroke-dashoffset: 0; stroke: #b0b0b0; stroke-width: 0.8"/>
     </g>
     <g id="line2d_14">
      <g>
       <use xlink:href="#m919f067d39" x="565.27938" y="301.717812" style="stroke: #000000; stroke-width: 0.8"/>
      </g>
     </g>
    </g>
    <g id="xtick_8">
     <g id="line2d_15">
      <path d="M 648.28995 301.717812 
L 648.28995 48.331875 
" clip-path="url(#p18c40b8deb)" style="fill: none; stroke-dasharray: 2.96,1.28; stroke-dashoffset: 0; stroke: #b0b0b0; stroke-width: 0.8"/>
     </g>
     <g id="line2d_16">
      <g>
       <use xlink:href="#m919f067d39" x="648.28995" y="301.717812" style="stroke: #000000; stroke-width: 0.8"/>
      </g>
     </g>
    </g>
    <g id="xtick_9">
     <g id="line2d_17">
      <path d="M 731.300521 301.717812 
L 731.300521 48.331875 
" clip-path="url(#p18c40b8deb)" style="fill: none; stroke-dasharray: 2.96,1.28; stroke-dashoffset: 0; stroke: #b0b0b0; stroke-width: 0.8"/>
     </g>
     <g id="line2d_18">
      <g>
       <use xlink:href="#m919f067d39" x="731.300521" y="301.717812" style="stroke: #000000; stroke-width: 0.8"/>
      </g>
     </g>
    </g>
    <g id="xtick_10">
     <g id="line2d_19">
      <path d="M 811.633332 301.717812 
L 811.633332 48.331875 
" clip-path="url(#p18c40b8deb)" style="fill: none; stroke-dasharray: 2.96,1.28; stroke-dashoffset: 0; stroke: #b0b0b0; stroke-width: 0.8"/>
     </g>
     <g id="line2d_20">
      <g>
       <use xlink:href="#m919f067d39" x="811.633332" y="301.717812" style="stroke: #000000; stroke-width: 0.8"/>
      </g>
     </g>
    </g>
    <g id="xtick_11">
     <g id="line2d_21">
      <path d="M 894.643902 301.717812 
L 894.643902 48.331875 
" clip-path="url(#p18c40b8deb)" style="fill: none; stroke-dasharray: 2.96,1.28; stroke-dashoffset: 0; stroke: #b0b0b0; stroke-width: 0.8"/>
     </g>
     <g id="line2d_22">
      <g>
       <use xlink:href="#m919f067d39" x="894.643902" y="301.717812" style="stroke: #000000; stroke-width: 0.8"/>
      </g>
     </g>
    </g>
    <g id="xtick_12">
     <g id="line2d_23">
      <path d="M 974.976713 301.717812 
L 974.976713 48.331875 
" clip-path="url(#p18c40b8deb)" style="fill: none; stroke-dasharray: 2.96,1.28; stroke-dashoffset: 0; stroke: #b0b0b0; stroke-width: 0.8"/>
     </g>
     <g id="line2d_24">
      <g>
       <use xlink:href="#m919f067d39" x="974.976713" y="301.717812" style="stroke: #000000; stroke-width: 0.8"/>
      </g>
     </g>
    </g>
   </g>
   <g id="matplotlib.axis_2">
    <g id="ytick_1">
     <g id="line2d_25">
      <path d="M 43.25 278.728736 
L 982.876106 278.728736 
" clip-path="url(#p18c40b8deb)" style="fill: none; stroke-dasharray: 2.96,1.28; stroke-dashoffset: 0; stroke: #b0b0b0; stroke-width: 0.8"/>
     </g>
     <g id="line2d_26">
      <defs>
       <path id="m3b7a2b280c" d="M 0 0 
L -3.5 0 
" style="stroke: #000000; stroke-width: 0.8"/>
      </defs>
      <g>
       <use xlink:href="#m3b7a2b280c" x="43.25" y="278.728736" style="stroke: #000000; stroke-width: 0.8"/>
      </g>
     </g>
     <g id="text_1">
      <!-- 1300 -->
      <g transform="translate(10.8 282.527955)scale(0.1 -0.1)">
       <defs>
        <path id="DejaVuSans-31" d="M 794 531 
L 1825 531 
L 1825 4091 
L 703 3866 
L 703 4441 
L 1819 4666 
L 2450 4666 
L 2450 531 
L 3481 531 
L 3481 0 
L 794 0 
L 794 531 
z
" transform="scale(0.015625)"/>
        <path id="DejaVuSans-33" d="M 2597 2516 
Q 3050 2419 3304 2112 
Q 3559 1806 3559 1356 
Q 3559 666 3084 287 
Q 2609 -91 1734 -91 
Q 1441 -91 1130 -33 
Q 819 25 488 141 
L 488 750 
Q 750 597 1062 519 
Q 1375 441 1716 441 
Q 2309 441 2620 675 
Q 2931 909 2931 1356 
Q 2931 1769 2642 2001 
Q 2353 2234 1838 2234 
L 1294 2234 
L 1294 2753 
L 1863 2753 
Q 2328 2753 2575 2939 
Q 2822 3125 2822 3475 
Q 2822 3834 2567 4026 
Q 2313 4219 1838 4219 
Q 1578 4219 1281 4162 
Q 984 4106 628 3988 
L 628 4550 
Q 988 4650 1302 4700 
Q 1616 4750 1894 4750 
Q 2613 4750 3031 4423 
Q 3450 4097 3450 3541 
Q 3450 3153 3228 2886 
Q 3006 2619 2597 2516 
z
" transform="scale(0.015625)"/>
        <path id="DejaVuSans-30" d="M 2034 4250 
Q 1547 4250 1301 3770 
Q 1056 3291 1056 2328 
Q 1056 1369 1301 889 
Q 1547 409 2034 409 
Q 2525 409 2770 889 
Q 3016 1369 3016 2328 
Q 3016 3291 2770 3770 
Q 2525 4250 2034 4250 
z
M 2034 4750 
Q 2819 4750 3233 4129 
Q 3647 3509 3647 2328 
Q 3647 1150 3233 529 
Q 2819 -91 2034 -91 
Q 1250 -91 836 529 
Q 422 1150 422 2328 
Q 422 3509 836 4129 
Q 1250 4750 2034 4750 
z
" transform="scale(0.015625)"/>
       </defs>
       <use xlink:href="#DejaVuSans-31"/>
       <use xlink:href="#DejaVuSans-33" x="63.623047"/>
       <use xlink:href="#DejaVuSans-30" x="127.246094"/>
       <use xlink:href="#DejaVuSans-30" x="190.869141"/>
      </g>
     </g>
    </g>
    <g id="ytick_2">
     <g id="line2d_27">
      <path d="M 43.25 248.056186 
L 982.876106 248.056186 
" clip-path="url(#p18c40b8deb)" style="fill: none; stroke-dasharray: 2.96,1.28; stroke-dashoffset: 0; stroke: #b0b0b0; stroke-width: 0.8"/>
     </g>
     <g id="line2d_28">
      <g>
       <use xlink:href="#m3b7a2b280c" x="43.25" y="248.056186" style="stroke: #000000; stroke-width: 0.8"/>
      </g>
     </g>
     <g id="text_2">
      <!-- 1350 -->
      <g transform="translate(10.8 251.855405)scale(0.1 -0.1)">
       <defs>
        <path id="DejaVuSans-35" d="M 691 4666 
L 3169 4666 
L 3169 4134 
L 1269 4134 
L 1269 2991 
Q 1406 3038 1543 3061 
Q 1681 3084 1819 3084 
Q 2600 3084 3056 2656 
Q 3513 2228 3513 1497 
Q 3513 744 3044 326 
Q 2575 -91 1722 -91 
Q 1428 -91 1123 -41 
Q 819 9 494 109 
L 494 744 
Q 775 591 1075 516 
Q 1375 441 1709 441 
Q 2250 441 2565 725 
Q 2881 1009 2881 1497 
Q 2881 1984 2565 2268 
Q 2250 2553 1709 2553 
Q 1456 2553 1204 2497 
Q 953 2441 691 2322 
L 691 4666 
z
" transform="scale(0.015625)"/>
       </defs>
       <use xlink:href="#DejaVuSans-31"/>
       <use xlink:href="#DejaVuSans-33" x="63.623047"/>
       <use xlink:href="#DejaVuSans-35" x="127.246094"/>
       <use xlink:href="#DejaVuSans-30" x="190.869141"/>
      </g>
     </g>
    </g>
    <g id="ytick_3">
     <g id="line2d_29">
      <path d="M 43.25 217.383636 
L 982.876106 217.383636 
" clip-path="url(#p18c40b8deb)" style="fill: none; stroke-dasharray: 2.96,1.28; stroke-dashoffset: 0; stroke: #b0b0b0; stroke-width: 0.8"/>
     </g>
     <g id="line2d_30">
      <g>
       <use xlink:href="#m3b7a2b280c" x="43.25" y="217.383636" style="stroke: #000000; stroke-width: 0.8"/>
      </g>
     </g>
     <g id="text_3">
      <!-- 1400 -->
      <g transform="translate(10.8 221.182854)scale(0.1 -0.1)">
       <defs>
        <path id="DejaVuSans-34" d="M 2419 4116 
L 825 1625 
L 2419 1625 
L 2419 4116 
z
M 2253 4666 
L 3047 4666 
L 3047 1625 
L 3713 1625 
L 3713 1100 
L 3047 1100 
L 3047 0 
L 2419 0 
L 2419 1100 
L 313 1100 
L 313 1709 
L 2253 4666 
z
" transform="scale(0.015625)"/>
       </defs>
       <use xlink:href="#DejaVuSans-31"/>
       <use xlink:href="#DejaVuSans-34" x="63.623047"/>
       <use xlink:href="#DejaVuSans-30" x="127.246094"/>
       <use xlink:href="#DejaVuSans-30" x="190.869141"/>
      </g>
     </g>
    </g>
    <g id="ytick_4">
     <g id="line2d_31">
      <path d="M 43.25 186.711085 
L 982.876106 186.711085 
" clip-path="url(#p18c40b8deb)" style="fill: none; stroke-dasharray: 2.96,1.28; stroke-dashoffset: 0; stroke: #b0b0b0; stroke-width: 0.8"/>
     </g>
     <g id="line2d_32">
      <g>
       <use xlink:href="#m3b7a2b280c" x="43.25" y="186.711085" style="stroke: #000000; stroke-width: 0.8"/>
      </g>
     </g>
     <g id="text_4">
      <!-- 1450 -->
      <g transform="translate(10.8 190.510304)scale(0.1 -0.1)">
       <use xlink:href="#DejaVuSans-31"/>
       <use xlink:href="#DejaVuSans-34" x="63.623047"/>
       <use xlink:href="#DejaVuSans-35" x="127.246094"/>
       <use xlink:href="#DejaVuSans-30" x="190.869141"/>
      </g>
     </g>
    </g>
    <g id="ytick_5">
     <g id="line2d_33">
      <path d="M 43.25 156.038535 
L 982.876106 156.038535 
" clip-path="url(#p18c40b8deb)" style="fill: none; stroke-dasharray: 2.96,1.28; stroke-dashoffset: 0; stroke: #b0b0b0; stroke-width: 0.8"/>
     </g>
     <g id="line2d_34">
      <g>
       <use xlink:href="#m3b7a2b280c" x="43.25" y="156.038535" style="stroke: #000000; stroke-width: 0.8"/>
      </g>
     </g>
     <g id="text_5">
      <!-- 1500 -->
      <g transform="translate(10.8 159.837754)scale(0.1 -0.1)">
       <use xlink:href="#DejaVuSans-31"/>
       <use xlink:href="#DejaVuSans-35" x="63.623047"/>
       <use xlink:href="#DejaVuSans-30" x="127.246094"/>
       <use xlink:href="#DejaVuSans-30" x="190.869141"/>
      </g>
     </g>
    </g>
    <g id="ytick_6">
     <g id="line2d_35">
      <path d="M 43.25 125.365985 
L 982.876106 125.365985 
" clip-path="url(#p18c40b8deb)" style="fill: none; stroke-dasharray: 2.96,1.28; stroke-dashoffset: 0; stroke: #b0b0b0; stroke-width: 0.8"/>
     </g>
     <g id="line2d_36">
      <g>
       <use xlink:href="#m3b7a2b280c" x="43.25" y="125.365985" style="stroke: #000000; stroke-width: 0.8"/>
      </g>
     </g>
     <g id="text_6">
      <!-- 1550 -->
      <g transform="translate(10.8 129.165204)scale(0.1 -0.1)">
       <use xlink:href="#DejaVuSans-31"/>
       <use xlink:href="#DejaVuSans-35" x="63.623047"/>
       <use xlink:href="#DejaVuSans-35" x="127.246094"/>
       <use xlink:href="#DejaVuSans-30" x="190.869141"/>
      </g>
     </g>
    </g>
    <g id="ytick_7">
     <g id="line2d_37">
      <path d="M 43.25 94.693435 
L 982.876106 94.693435 
" clip-path="url(#p18c40b8deb)" style="fill: none; stroke-dasharray: 2.96,1.28; stroke-dashoffset: 0; stroke: #b0b0b0; stroke-width: 0.8"/>
     </g>
     <g id="line2d_38">
      <g>
       <use xlink:href="#m3b7a2b280c" x="43.25" y="94.693435" style="stroke: #000000; stroke-width: 0.8"/>
      </g>
     </g>
     <g id="text_7">
      <!-- 1600 -->
      <g transform="translate(10.8 98.492653)scale(0.1 -0.1)">
       <defs>
        <path id="DejaVuSans-36" d="M 2113 2584 
Q 1688 2584 1439 2293 
Q 1191 2003 1191 1497 
Q 1191 994 1439 701 
Q 1688 409 2113 409 
Q 2538 409 2786 701 
Q 3034 994 3034 1497 
Q 3034 2003 2786 2293 
Q 2538 2584 2113 2584 
z
M 3366 4563 
L 3366 3988 
Q 3128 4100 2886 4159 
Q 2644 4219 2406 4219 
Q 1781 4219 1451 3797 
Q 1122 3375 1075 2522 
Q 1259 2794 1537 2939 
Q 1816 3084 2150 3084 
Q 2853 3084 3261 2657 
Q 3669 2231 3669 1497 
Q 3669 778 3244 343 
Q 2819 -91 2113 -91 
Q 1303 -91 875 529 
Q 447 1150 447 2328 
Q 447 3434 972 4092 
Q 1497 4750 2381 4750 
Q 2619 4750 2861 4703 
Q 3103 4656 3366 4563 
z
" transform="scale(0.015625)"/>
       </defs>
       <use xlink:href="#DejaVuSans-31"/>
       <use xlink:href="#DejaVuSans-36" x="63.623047"/>
       <use xlink:href="#DejaVuSans-30" x="127.246094"/>
       <use xlink:href="#DejaVuSans-30" x="190.869141"/>
      </g>
     </g>
    </g>
    <g id="ytick_8">
     <g id="line2d_39">
      <path d="M 43.25 64.020884 
L 982.876106 64.020884 
" clip-path="url(#p18c40b8deb)" style="fill: none; stroke-dasharray: 2.96,1.28; stroke-dashoffset: 0; stroke: #b0b0b0; stroke-width: 0.8"/>
     </g>
     <g id="line2d_40">
      <g>
       <use xlink:href="#m3b7a2b280c" x="43.25" y="64.020884" style="stroke: #000000; stroke-width: 0.8"/>
      </g>
     </g>
     <g id="text_8">
      <!-- 1650 -->
      <g transform="translate(10.8 67.820103)scale(0.1 -0.1)">
       <use xlink:href="#DejaVuSans-31"/>
       <use xlink:href="#DejaVuSans-36" x="63.623047"/>
       <use xlink:href="#DejaVuSans-35" x="127.246094"/>
       <use xlink:href="#DejaVuSans-30" x="190.869141"/>
      </g>
     </g>
    </g>
   </g>
   <g id="line2d_41">
    <path d="M 85.960278 143.984223 
L 88.638038 138.524509 
L 91.315798 116.256237 
L 93.993559 131.653858 
L 96.671319 125.028587 
L 104.7046 119.752908 
L 107.38236 115.612114 
L 110.060121 121.286536 
L 112.737881 138.861907 
L 115.415641 128.341222 
L 123.448922 142.849339 
L 126.126683 138.095093 
L 128.804443 144.720364 
L 131.482203 150.517476 
L 134.159964 142.787993 
L 142.193245 164.228106 
L 144.871005 163.369275 
L 150.226526 171.405483 
L 152.904286 178.58286 
L 160.937567 164.810885 
L 163.615328 157.878888 
L 166.293088 136.898864 
L 168.970848 146.622062 
L 171.648609 141.315711 
L 179.68189 175.57695 
L 182.35965 179.441691 
L 185.03741 157.510818 
L 187.715171 140.640915 
L 190.392931 144.474984 
L 198.426212 172.172297 
L 201.103972 145.119107 
L 203.781733 146.376682 
L 206.459493 152.051104 
L 209.137254 148.462415 
L 217.170535 142.481268 
L 219.848295 149.474609 
L 222.526055 155.486429 
L 225.203816 205.482686 
L 227.881576 182.969034 
L 235.914857 201.280547 
L 241.270378 233.179999 
L 243.948138 235.173715 
L 246.625898 237.934244 
L 254.659179 263.515151 
L 257.33694 261.674798 
L 260.0147 235.081697 
L 262.69246 221.861828 
L 265.370221 219.346679 
L 273.403502 191.281295 
L 276.081262 202.660812 
L 278.759023 187.84597 
L 281.436783 168.276883 
L 292.147824 164.320124 
L 294.825585 159.627224 
L 297.503345 168.767644 
L 300.181105 191.21995 
L 302.858866 198.428 
L 310.892147 197.262443 
L 313.569907 185.606874 
L 316.247667 170.178581 
L 318.925428 174.227357 
L 321.603188 152.357829 
L 329.636469 59.849418 
L 332.314229 89.632464 
L 334.99199 124.844552 
L 337.66975 145.763231 
L 340.347511 147.051478 
L 348.380792 158.400322 
L 351.058552 160.025967 
L 353.736312 177.539993 
L 367.125114 220.174838 
L 369.802874 252.841104 
L 372.480635 245.418347 
L 375.158395 233.118654 
L 377.836155 244.62086 
L 385.869436 238.394333 
L 388.547197 234.529591 
L 391.224957 234.222866 
L 393.902717 234.959007 
L 396.580478 226.830781 
L 404.613759 215.113867 
L 409.96928 244.37548 
L 412.64704 246.246505 
L 415.3248 267.931998 
L 423.358081 266.551734 
L 426.035842 253.546572 
L 428.713602 248.915017 
L 431.391362 276.857711 
L 434.069123 284.035087 
L 442.102404 275.600136 
L 444.780164 270.140422 
L 447.457924 270.201767 
L 450.135685 286.672927 
L 452.813445 265.876938 
L 460.846726 276.274932 
L 463.524487 267.10384 
L 466.202247 261.061347 
L 468.880007 237.811554 
L 471.557768 222.260571 
L 479.591049 216.432787 
L 482.268809 224.162269 
L 484.946569 220.542908 
L 487.62433 226.524056 
L 490.30209 229.46862 
L 498.335371 230.603505 
L 501.013131 240.326703 
L 503.690892 237.382138 
L 506.368652 231.063593 
L 509.046412 247.38139 
L 517.079693 262.410939 
L 519.757454 271.367324 
L 522.435214 274.158526 
L 525.112974 290.20027 
L 527.790735 285.016609 
L 535.824016 265.140796 
L 538.501776 256.307102 
L 541.179537 260.171843 
L 543.857297 257.165933 
L 546.535057 245.725072 
L 554.568338 244.222117 
L 557.246099 250.571335 
L 559.923859 251.767564 
L 562.601619 249.283088 
L 565.27938 245.755745 
L 573.312661 244.590188 
L 575.990421 246.461213 
L 578.668181 235.020352 
L 581.345942 219.96013 
L 584.023702 219.162644 
L 592.056983 213.610912 
L 594.734744 222.413934 
L 597.412504 243.240595 
L 600.090264 247.412062 
L 602.768025 240.664101 
L 610.801306 249.559141 
L 613.479066 249.252415 
L 616.156826 238.823748 
L 618.834587 241.461588 
L 621.512347 221.984518 
L 629.545628 219.469369 
L 632.223388 221.217704 
L 634.901149 214.684451 
L 637.578909 207.046986 
L 640.256669 196.403611 
L 648.28995 189.072872 
L 650.967711 198.826743 
L 653.645471 196.771682 
L 656.323232 197.814549 
L 659.000992 200.789786 
L 667.034273 179.319001 
L 672.389794 176.711834 
L 675.067554 164.810885 
L 677.745314 165.148283 
L 688.456356 154.719615 
L 691.134116 149.96537 
L 693.811876 148.861158 
L 696.489637 160.30202 
L 704.522918 174.227357 
L 707.200678 177.01856 
L 709.878438 172.69373 
L 712.556199 177.601338 
L 715.233959 177.447975 
L 723.26724 193.213666 
L 725.945001 164.565504 
L 731.300521 173.123146 
L 733.978282 164.933575 
L 742.011563 159.075118 
L 744.689323 162.571788 
L 747.367083 166.896618 
L 750.044844 157.510818 
L 752.722604 156.897367 
L 760.755885 159.995294 
L 763.433645 148.002327 
L 766.111406 138.463164 
L 768.789166 143.340099 
L 771.466926 160.486055 
L 779.500207 154.443563 
L 782.177968 143.340099 
L 784.855728 144.781709 
L 787.533489 164.626849 
L 790.211249 189.072872 
L 798.24453 201.035166 
L 800.92229 208.887339 
L 803.600051 223.794199 
L 806.277811 228.211046 
L 808.955571 204.286457 
L 816.988852 209.286082 
L 819.666613 184.870732 
L 825.022133 194.685948 
L 827.699894 198.489345 
L 835.733175 208.181871 
L 838.410935 216.984892 
L 841.088695 211.371816 
L 843.766456 221.309722 
L 846.444216 193.459046 
L 854.477497 188.827491 
L 857.155258 190.483809 
L 859.833018 181.404734 
L 865.188539 193.704427 
L 873.22182 179.932452 
L 875.89958 186.158979 
L 881.255101 184.011901 
L 883.932861 181.374062 
L 891.966142 158.062923 
L 894.643902 147.910309 
L 897.321663 147.327531 
L 899.999423 151.40698 
L 902.677183 157.786871 
L 910.710465 150.640166 
L 916.065985 150.916219 
L 918.743746 140.855623 
L 921.421506 87.853456 
L 929.454787 85.460997 
L 932.132547 83.037866 
L 934.810308 74.510897 
L 937.488068 83.559299 
L 940.165828 86.166466 
L 940.165828 86.166466 
" clip-path="url(#p18c40b8deb)" style="fill: none; stroke: #1f77b4; stroke-width: 1.5; stroke-linecap: square"/>
   </g>
   <g id="line2d_42">
    <path d="M 96.671319 131.089483 
L 104.7046 126.24322 
L 107.38236 121.660741 
L 110.060121 122.6668 
L 112.737881 124.10841 
L 115.415641 124.770937 
L 123.448922 129.390224 
L 128.804443 138.573585 
L 131.482203 140.904699 
L 134.159964 143.794053 
L 142.193245 148.069807 
L 144.871005 153.124643 
L 150.226526 158.461667 
L 152.904286 164.074743 
L 160.937567 168.479322 
L 163.615328 167.209478 
L 166.293088 161.915396 
L 168.970848 156.958712 
L 171.648609 149.505282 
L 179.68189 151.658495 
L 185.03741 160.093446 
L 187.715171 158.897217 
L 190.392931 159.529071 
L 198.426212 158.848141 
L 201.103972 151.983624 
L 203.781733 149.756797 
L 206.459493 152.038835 
L 209.137254 152.836321 
L 217.170535 146.898115 
L 219.848295 147.769216 
L 222.526055 149.591165 
L 225.203816 160.277482 
L 227.881576 167.178805 
L 235.914857 178.938661 
L 241.270378 195.679739 
L 243.948138 211.617196 
L 246.625898 218.107508 
L 254.659179 234.216731 
L 257.33694 246.295581 
L 260.0147 246.675921 
L 262.69246 244.013544 
L 265.370221 240.296031 
L 273.403502 225.849259 
L 276.081262 214.046462 
L 278.759023 204.599317 
L 281.436783 193.882328 
L 292.147824 182.877017 
L 294.825585 176.546202 
L 297.503345 169.767569 
L 300.181105 170.442365 
L 302.858866 176.472588 
L 310.892147 183.061052 
L 313.569907 188.256982 
L 316.247667 188.539169 
L 318.925428 185.140651 
L 329.636469 148.444012 
L 332.314229 129.24913 
L 334.99199 120.182324 
L 337.66975 114.489499 
L 340.347511 113.428228 
L 348.380792 133.138409 
L 351.058552 147.21711 
L 353.736312 157.756198 
L 367.125114 172.638519 
L 369.802874 193.796444 
L 372.480635 211.200049 
L 375.158395 225.818587 
L 377.836155 239.23476 
L 385.869436 242.878659 
L 388.547197 239.216357 
L 391.224957 236.977261 
L 393.902717 237.345331 
L 396.580478 233.787315 
L 404.613759 229.131222 
L 409.96928 231.1004 
L 412.64704 233.505128 
L 415.3248 240.099726 
L 423.358081 248.043917 
L 426.035842 255.730458 
L 428.713602 256.638365 
L 431.391362 262.760606 
L 434.069123 265.981224 
L 442.102404 267.790905 
L 444.780164 271.109675 
L 447.457924 275.367025 
L 450.135685 277.330068 
L 452.813445 273.698438 
L 460.846726 273.833397 
L 463.524487 273.226081 
L 466.202247 271.397997 
L 468.880007 261.625722 
L 471.557768 252.902449 
L 479.591049 240.93402 
L 482.268809 232.345706 
L 484.946569 224.242018 
L 487.62433 221.984518 
L 490.30209 223.426128 
L 498.335371 226.260272 
L 503.690892 232.861004 
L 506.368652 233.768912 
L 509.046412 237.351466 
L 517.079693 243.712953 
L 519.757454 249.921077 
L 522.435214 257.276354 
L 525.112974 269.10369 
L 527.790735 276.630734 
L 535.824016 277.176705 
L 538.501776 274.164661 
L 541.179537 271.367324 
L 543.857297 264.760457 
L 546.535057 256.902149 
L 554.568338 252.718413 
L 557.246099 251.57126 
L 562.601619 248.313835 
L 573.312661 248.393584 
L 575.990421 247.57156 
L 578.668181 244.222117 
L 581.345942 238.357525 
L 584.023702 233.038905 
L 592.056983 226.84305 
L 594.734744 222.033594 
L 597.412504 223.677643 
L 600.090264 229.168029 
L 602.768025 233.468321 
L 610.801306 240.657967 
L 613.479066 246.025663 
L 616.156826 245.142294 
L 618.834587 243.952199 
L 621.512347 240.216282 
L 629.545628 234.198328 
L 632.223388 228.591385 
L 634.901149 223.763526 
L 637.578909 216.880606 
L 640.256669 211.764424 
L 648.28995 205.685125 
L 650.967711 201.206933 
L 653.645471 197.624379 
L 656.323232 195.777891 
L 659.000992 196.655126 
L 667.034273 194.704352 
L 672.389794 190.28137 
L 677.745314 177.355958 
L 688.456356 168.141923 
L 691.134116 162.271197 
L 693.811876 156.701062 
L 696.489637 155.799289 
L 704.522918 157.615104 
L 709.878438 166.620565 
L 712.556199 172.368601 
L 715.233959 175.797792 
L 723.26724 179.595054 
L 725.945001 177.104443 
L 731.300521 177.190326 
L 733.978282 174.656773 
L 742.011563 170.982202 
L 744.689323 164.853826 
L 747.367083 165.320049 
L 750.044844 162.197583 
L 752.722604 160.590342 
L 760.755885 160.774377 
L 763.433645 157.860485 
L 766.111406 152.173794 
L 768.789166 149.33965 
L 771.466926 150.057388 
L 779.500207 148.947042 
L 782.177968 148.014596 
L 784.855728 149.278305 
L 787.533489 153.535655 
L 790.211249 159.253018 
L 798.24453 168.571339 
L 800.92229 181.680787 
L 803.600051 197.483285 
L 806.277811 210.200124 
L 808.955571 213.242841 
L 816.988852 214.893025 
L 819.666613 210.089703 
L 825.022133 204.268053 
L 827.699894 198.323713 
L 835.733175 199.102796 
L 838.410935 200.642558 
L 843.766456 211.267529 
L 846.444216 210.261469 
L 854.477497 206.390594 
L 857.155258 201.090377 
L 859.833018 195.096961 
L 862.510778 188.324462 
L 865.188539 188.373538 
L 873.22182 186.59453 
L 875.89958 185.729564 
L 881.255101 186.250997 
L 883.932861 185.036364 
L 891.966142 177.908063 
L 894.643902 171.503635 
L 897.321663 163.737345 
L 899.999423 157.216361 
L 902.677183 152.498923 
L 910.710465 151.014371 
L 916.065985 151.615553 
L 918.743746 150.321172 
L 921.421506 137.610467 
L 929.454787 123.145292 
L 932.132547 109.624832 
L 934.810308 94.343768 
L 937.488068 82.884503 
L 940.165828 82.547105 
L 940.165828 82.547105 
" clip-path="url(#p18c40b8deb)" style="fill: none; stroke: #ff7f0e; stroke-width: 1.5; stroke-linecap: square"/>
   </g>
   <g id="patch_3">
    <path d="M 43.25 301.717812 
L 43.25 48.331875 
" style="fill: none; stroke: #000000; stroke-width: 0.8; stroke-linejoin: miter; stroke-linecap: square"/>
   </g>
   <g id="patch_4">
    <path d="M 982.876106 301.717812 
L 982.876106 48.331875 
" style="fill: none; stroke: #000000; stroke-width: 0.8; stroke-linejoin: miter; stroke-linecap: square"/>
   </g>
   <g id="patch_5">
    <path d="M 43.25 301.717812 
L 982.876106 301.717812 
" style="fill: none; stroke: #000000; stroke-width: 0.8; stroke-linejoin: miter; stroke-linecap: square"/>
   </g>
   <g id="patch_6">
    <path d="M 43.25 48.331875 
L 982.876106 48.331875 
" style="fill: none; stroke: #000000; stroke-width: 0.8; stroke-linejoin: miter; stroke-linecap: square"/>
   </g>
   <g id="text_9">
    <!-- Closing Price -->
    <g transform="translate(474.587115 42.331875)scale(0.12 -0.12)">
     <defs>
      <path id="DejaVuSans-43" d="M 4122 4306 
L 4122 3641 
Q 3803 3938 3442 4084 
Q 3081 4231 2675 4231 
Q 1875 4231 1450 3742 
Q 1025 3253 1025 2328 
Q 1025 1406 1450 917 
Q 1875 428 2675 428 
Q 3081 428 3442 575 
Q 3803 722 4122 1019 
L 4122 359 
Q 3791 134 3420 21 
Q 3050 -91 2638 -91 
Q 1578 -91 968 557 
Q 359 1206 359 2328 
Q 359 3453 968 4101 
Q 1578 4750 2638 4750 
Q 3056 4750 3426 4639 
Q 3797 4528 4122 4306 
z
" transform="scale(0.015625)"/>
      <path id="DejaVuSans-6c" d="M 603 4863 
L 1178 4863 
L 1178 0 
L 603 0 
L 603 4863 
z
" transform="scale(0.015625)"/>
      <path id="DejaVuSans-6f" d="M 1959 3097 
Q 1497 3097 1228 2736 
Q 959 2375 959 1747 
Q 959 1119 1226 758 
Q 1494 397 1959 397 
Q 2419 397 2687 759 
Q 2956 1122 2956 1747 
Q 2956 2369 2687 2733 
Q 2419 3097 1959 3097 
z
M 1959 3584 
Q 2709 3584 3137 3096 
Q 3566 2609 3566 1747 
Q 3566 888 3137 398 
Q 2709 -91 1959 -91 
Q 1206 -91 779 398 
Q 353 888 353 1747 
Q 353 2609 779 3096 
Q 1206 3584 1959 3584 
z
" transform="scale(0.015625)"/>
      <path id="DejaVuSans-73" d="M 2834 3397 
L 2834 2853 
Q 2591 2978 2328 3040 
Q 2066 3103 1784 3103 
Q 1356 3103 1142 2972 
Q 928 2841 928 2578 
Q 928 2378 1081 2264 
Q 1234 2150 1697 2047 
L 1894 2003 
Q 2506 1872 2764 1633 
Q 3022 1394 3022 966 
Q 3022 478 2636 193 
Q 2250 -91 1575 -91 
Q 1294 -91 989 -36 
Q 684 19 347 128 
L 347 722 
Q 666 556 975 473 
Q 1284 391 1588 391 
Q 1994 391 2212 530 
Q 2431 669 2431 922 
Q 2431 1156 2273 1281 
Q 2116 1406 1581 1522 
L 1381 1569 
Q 847 1681 609 1914 
Q 372 2147 372 2553 
Q 372 3047 722 3315 
Q 1072 3584 1716 3584 
Q 2034 3584 2315 3537 
Q 2597 3491 2834 3397 
z
" transform="scale(0.015625)"/>
      <path id="DejaVuSans-69" d="M 603 3500 
L 1178 3500 
L 1178 0 
L 603 0 
L 603 3500 
z
M 603 4863 
L 1178 4863 
L 1178 4134 
L 603 4134 
L 603 4863 
z
" transform="scale(0.015625)"/>
      <path id="DejaVuSans-6e" d="M 3513 2113 
L 3513 0 
L 2938 0 
L 2938 2094 
Q 2938 2591 2744 2837 
Q 2550 3084 2163 3084 
Q 1697 3084 1428 2787 
Q 1159 2491 1159 1978 
L 1159 0 
L 581 0 
L 581 3500 
L 1159 3500 
L 1159 2956 
Q 1366 3272 1645 3428 
Q 1925 3584 2291 3584 
Q 2894 3584 3203 3211 
Q 3513 2838 3513 2113 
z
" transform="scale(0.015625)"/>
      <path id="DejaVuSans-67" d="M 2906 1791 
Q 2906 2416 2648 2759 
Q 2391 3103 1925 3103 
Q 1463 3103 1205 2759 
Q 947 2416 947 1791 
Q 947 1169 1205 825 
Q 1463 481 1925 481 
Q 2391 481 2648 825 
Q 2906 1169 2906 1791 
z
M 3481 434 
Q 3481 -459 3084 -895 
Q 2688 -1331 1869 -1331 
Q 1566 -1331 1297 -1286 
Q 1028 -1241 775 -1147 
L 775 -588 
Q 1028 -725 1275 -790 
Q 1522 -856 1778 -856 
Q 2344 -856 2625 -561 
Q 2906 -266 2906 331 
L 2906 616 
Q 2728 306 2450 153 
Q 2172 0 1784 0 
Q 1141 0 747 490 
Q 353 981 353 1791 
Q 353 2603 747 3093 
Q 1141 3584 1784 3584 
Q 2172 3584 2450 3431 
Q 2728 3278 2906 2969 
L 2906 3500 
L 3481 3500 
L 3481 434 
z
" transform="scale(0.015625)"/>
      <path id="DejaVuSans-20" transform="scale(0.015625)"/>
      <path id="DejaVuSans-50" d="M 1259 4147 
L 1259 2394 
L 2053 2394 
Q 2494 2394 2734 2622 
Q 2975 2850 2975 3272 
Q 2975 3691 2734 3919 
Q 2494 4147 2053 4147 
L 1259 4147 
z
M 628 4666 
L 2053 4666 
Q 2838 4666 3239 4311 
Q 3641 3956 3641 3272 
Q 3641 2581 3239 2228 
Q 2838 1875 2053 1875 
L 1259 1875 
L 1259 0 
L 628 0 
L 628 4666 
z
" transform="scale(0.015625)"/>
      <path id="DejaVuSans-72" d="M 2631 2963 
Q 2534 3019 2420 3045 
Q 2306 3072 2169 3072 
Q 1681 3072 1420 2755 
Q 1159 2438 1159 1844 
L 1159 0 
L 581 0 
L 581 3500 
L 1159 3500 
L 1159 2956 
Q 1341 3275 1631 3429 
Q 1922 3584 2338 3584 
Q 2397 3584 2469 3576 
Q 2541 3569 2628 3553 
L 2631 2963 
z
" transform="scale(0.015625)"/>
      <path id="DejaVuSans-63" d="M 3122 3366 
L 3122 2828 
Q 2878 2963 2633 3030 
Q 2388 3097 2138 3097 
Q 1578 3097 1268 2742 
Q 959 2388 959 1747 
Q 959 1106 1268 751 
Q 1578 397 2138 397 
Q 2388 397 2633 464 
Q 2878 531 3122 666 
L 3122 134 
Q 2881 22 2623 -34 
Q 2366 -91 2075 -91 
Q 1284 -91 818 406 
Q 353 903 353 1747 
Q 353 2603 823 3093 
Q 1294 3584 2113 3584 
Q 2378 3584 2631 3529 
Q 2884 3475 3122 3366 
z
" transform="scale(0.015625)"/>
      <path id="DejaVuSans-65" d="M 3597 1894 
L 3597 1613 
L 953 1613 
Q 991 1019 1311 708 
Q 1631 397 2203 397 
Q 2534 397 2845 478 
Q 3156 559 3463 722 
L 3463 178 
Q 3153 47 2828 -22 
Q 2503 -91 2169 -91 
Q 1331 -91 842 396 
Q 353 884 353 1716 
Q 353 2575 817 3079 
Q 1281 3584 2069 3584 
Q 2775 3584 3186 3129 
Q 3597 2675 3597 1894 
z
M 3022 2063 
Q 3016 2534 2758 2815 
Q 2500 3097 2075 3097 
Q 1594 3097 1305 2825 
Q 1016 2553 972 2059 
L 3022 2063 
z
" transform="scale(0.015625)"/>
     </defs>
     <use xlink:href="#DejaVuSans-43"/>
     <use xlink:href="#DejaVuSans-6c" x="69.824219"/>
     <use xlink:href="#DejaVuSans-6f" x="97.607422"/>
     <use xlink:href="#DejaVuSans-73" x="158.789062"/>
     <use xlink:href="#DejaVuSans-69" x="210.888672"/>
     <use xlink:href="#DejaVuSans-6e" x="238.671875"/>
     <use xlink:href="#DejaVuSans-67" x="302.050781"/>
     <use xlink:href="#DejaVuSans-20" x="365.527344"/>
     <use xlink:href="#DejaVuSans-50" x="397.314453"/>
     <use xlink:href="#DejaVuSans-72" x="455.867188"/>
     <use xlink:href="#DejaVuSans-69" x="496.980469"/>
     <use xlink:href="#DejaVuSans-63" x="524.763672"/>
     <use xlink:href="#DejaVuSans-65" x="579.744141"/>
    </g>
   </g>
   <g id="legend_1">
    <g id="patch_7">
     <path d="M 50.25 85.688125 
L 114.98125 85.688125 
Q 116.98125 85.688125 116.98125 83.688125 
L 116.98125 55.331875 
Q 116.98125 53.331875 114.98125 53.331875 
L 50.25 53.331875 
Q 48.25 53.331875 48.25 55.331875 
L 48.25 83.688125 
Q 48.25 85.688125 50.25 85.688125 
z
" style="fill: #ffffff; opacity: 0.8; stroke: #cccccc; stroke-linejoin: miter"/>
    </g>
    <g id="line2d_43">
     <path d="M 52.25 61.430312 
L 62.25 61.430312 
L 72.25 61.430312 
" style="fill: none; stroke: #1f77b4; stroke-width: 1.5; stroke-linecap: square"/>
    </g>
    <g id="text_10">
     <!-- CLOSE -->
     <g transform="translate(80.25 64.930312)scale(0.1 -0.1)">
      <defs>
       <path id="DejaVuSans-4c" d="M 628 4666 
L 1259 4666 
L 1259 531 
L 3531 531 
L 3531 0 
L 628 0 
L 628 4666 
z
" transform="scale(0.015625)"/>
       <path id="DejaVuSans-4f" d="M 2522 4238 
Q 1834 4238 1429 3725 
Q 1025 3213 1025 2328 
Q 1025 1447 1429 934 
Q 1834 422 2522 422 
Q 3209 422 3611 934 
Q 4013 1447 4013 2328 
Q 4013 3213 3611 3725 
Q 3209 4238 2522 4238 
z
M 2522 4750 
Q 3503 4750 4090 4092 
Q 4678 3434 4678 2328 
Q 4678 1225 4090 567 
Q 3503 -91 2522 -91 
Q 1538 -91 948 565 
Q 359 1222 359 2328 
Q 359 3434 948 4092 
Q 1538 4750 2522 4750 
z
" transform="scale(0.015625)"/>
       <path id="DejaVuSans-53" d="M 3425 4513 
L 3425 3897 
Q 3066 4069 2747 4153 
Q 2428 4238 2131 4238 
Q 1616 4238 1336 4038 
Q 1056 3838 1056 3469 
Q 1056 3159 1242 3001 
Q 1428 2844 1947 2747 
L 2328 2669 
Q 3034 2534 3370 2195 
Q 3706 1856 3706 1288 
Q 3706 609 3251 259 
Q 2797 -91 1919 -91 
Q 1588 -91 1214 -16 
Q 841 59 441 206 
L 441 856 
Q 825 641 1194 531 
Q 1563 422 1919 422 
Q 2459 422 2753 634 
Q 3047 847 3047 1241 
Q 3047 1584 2836 1778 
Q 2625 1972 2144 2069 
L 1759 2144 
Q 1053 2284 737 2584 
Q 422 2884 422 3419 
Q 422 4038 858 4394 
Q 1294 4750 2059 4750 
Q 2388 4750 2728 4690 
Q 3069 4631 3425 4513 
z
" transform="scale(0.015625)"/>
       <path id="DejaVuSans-45" d="M 628 4666 
L 3578 4666 
L 3578 4134 
L 1259 4134 
L 1259 2753 
L 3481 2753 
L 3481 2222 
L 1259 2222 
L 1259 531 
L 3634 531 
L 3634 0 
L 628 0 
L 628 4666 
z
" transform="scale(0.015625)"/>
      </defs>
      <use xlink:href="#DejaVuSans-43"/>
      <use xlink:href="#DejaVuSans-4c" x="69.824219"/>
      <use xlink:href="#DejaVuSans-4f" x="121.912109"/>
      <use xlink:href="#DejaVuSans-53" x="200.623047"/>
      <use xlink:href="#DejaVuSans-45" x="264.099609"/>
     </g>
    </g>
    <g id="line2d_44">
     <path d="M 52.25 76.108437 
L 62.25 76.108437 
L 72.25 76.108437 
" style="fill: none; stroke: #ff7f0e; stroke-width: 1.5; stroke-linecap: square"/>
    </g>
    <g id="text_11">
     <!-- SMA5 -->
     <g transform="translate(80.25 79.608437)scale(0.1 -0.1)">
      <defs>
       <path id="DejaVuSans-4d" d="M 628 4666 
L 1569 4666 
L 2759 1491 
L 3956 4666 
L 4897 4666 
L 4897 0 
L 4281 0 
L 4281 4097 
L 3078 897 
L 2444 897 
L 1241 4097 
L 1241 0 
L 628 0 
L 628 4666 
z
" transform="scale(0.015625)"/>
       <path id="DejaVuSans-41" d="M 2188 4044 
L 1331 1722 
L 3047 1722 
L 2188 4044 
z
M 1831 4666 
L 2547 4666 
L 4325 0 
L 3669 0 
L 3244 1197 
L 1141 1197 
L 716 0 
L 50 0 
L 1831 4666 
z
" transform="scale(0.015625)"/>
      </defs>
      <use xlink:href="#DejaVuSans-53"/>
      <use xlink:href="#DejaVuSans-4d" x="63.476562"/>
      <use xlink:href="#DejaVuSans-41" x="149.755859"/>
      <use xlink:href="#DejaVuSans-35" x="218.164062"/>
     </g>
    </g>
   </g>
  </g>
  <g id="axes_2">
   <g id="patch_8">
    <path d="M 43.25 584.521875 
L 982.876106 584.521875 
L 982.876106 331.135938 
L 43.25 331.135938 
z
" style="fill: #ffffff"/>
   </g>
   <g id="matplotlib.axis_3">
    <g id="xtick_13">
     <g id="line2d_45">
      <path d="M 80.604757 584.521875 
L 80.604757 331.135938 
" clip-path="url(#pa44d334d61)" style="fill: none; stroke-dasharray: 2.96,1.28; stroke-dashoffset: 0; stroke: #b0b0b0; stroke-width: 0.8"/>
     </g>
     <g id="line2d_46">
      <g>
       <use xlink:href="#m919f067d39" x="80.604757" y="584.521875" style="stroke: #000000; stroke-width: 0.8"/>
      </g>
     </g>
     <g id="text_12">
      <!-- 2022-01 -->
      <g transform="translate(59.713351 599.120312)scale(0.1 -0.1)">
       <defs>
        <path id="DejaVuSans-32" d="M 1228 531 
L 3431 531 
L 3431 0 
L 469 0 
L 469 531 
Q 828 903 1448 1529 
Q 2069 2156 2228 2338 
Q 2531 2678 2651 2914 
Q 2772 3150 2772 3378 
Q 2772 3750 2511 3984 
Q 2250 4219 1831 4219 
Q 1534 4219 1204 4116 
Q 875 4013 500 3803 
L 500 4441 
Q 881 4594 1212 4672 
Q 1544 4750 1819 4750 
Q 2544 4750 2975 4387 
Q 3406 4025 3406 3419 
Q 3406 3131 3298 2873 
Q 3191 2616 2906 2266 
Q 2828 2175 2409 1742 
Q 1991 1309 1228 531 
z
" transform="scale(0.015625)"/>
        <path id="DejaVuSans-2d" d="M 313 2009 
L 1997 2009 
L 1997 1497 
L 313 1497 
L 313 2009 
z
" transform="scale(0.015625)"/>
       </defs>
       <use xlink:href="#DejaVuSans-32"/>
       <use xlink:href="#DejaVuSans-30" x="63.623047"/>
       <use xlink:href="#DejaVuSans-32" x="127.246094"/>
       <use xlink:href="#DejaVuSans-32" x="190.869141"/>
       <use xlink:href="#DejaVuSans-2d" x="254.492188"/>
       <use xlink:href="#DejaVuSans-30" x="290.576172"/>
       <use xlink:href="#DejaVuSans-31" x="354.199219"/>
      </g>
     </g>
    </g>
    <g id="xtick_14">
     <g id="line2d_47">
      <path d="M 163.615328 584.521875 
L 163.615328 331.135938 
" clip-path="url(#pa44d334d61)" style="fill: none; stroke-dasharray: 2.96,1.28; stroke-dashoffset: 0; stroke: #b0b0b0; stroke-width: 0.8"/>
     </g>
     <g id="line2d_48">
      <g>
       <use xlink:href="#m919f067d39" x="163.615328" y="584.521875" style="stroke: #000000; stroke-width: 0.8"/>
      </g>
     </g>
     <g id="text_13">
      <!-- 2022-02 -->
      <g transform="translate(142.723921 599.120312)scale(0.1 -0.1)">
       <use xlink:href="#DejaVuSans-32"/>
       <use xlink:href="#DejaVuSans-30" x="63.623047"/>
       <use xlink:href="#DejaVuSans-32" x="127.246094"/>
       <use xlink:href="#DejaVuSans-32" x="190.869141"/>
       <use xlink:href="#DejaVuSans-2d" x="254.492188"/>
       <use xlink:href="#DejaVuSans-30" x="290.576172"/>
       <use xlink:href="#DejaVuSans-32" x="354.199219"/>
      </g>
     </g>
    </g>
    <g id="xtick_15">
     <g id="line2d_49">
      <path d="M 238.592617 584.521875 
L 238.592617 331.135938 
" clip-path="url(#pa44d334d61)" style="fill: none; stroke-dasharray: 2.96,1.28; stroke-dashoffset: 0; stroke: #b0b0b0; stroke-width: 0.8"/>
     </g>
     <g id="line2d_50">
      <g>
       <use xlink:href="#m919f067d39" x="238.592617" y="584.521875" style="stroke: #000000; stroke-width: 0.8"/>
      </g>
     </g>
     <g id="text_14">
      <!-- 2022-03 -->
      <g transform="translate(217.701211 599.120312)scale(0.1 -0.1)">
       <use xlink:href="#DejaVuSans-32"/>
       <use xlink:href="#DejaVuSans-30" x="63.623047"/>
       <use xlink:href="#DejaVuSans-32" x="127.246094"/>
       <use xlink:href="#DejaVuSans-32" x="190.869141"/>
       <use xlink:href="#DejaVuSans-2d" x="254.492188"/>
       <use xlink:href="#DejaVuSans-30" x="290.576172"/>
       <use xlink:href="#DejaVuSans-33" x="354.199219"/>
      </g>
     </g>
    </g>
    <g id="xtick_16">
     <g id="line2d_51">
      <path d="M 321.603188 584.521875 
L 321.603188 331.135938 
" clip-path="url(#pa44d334d61)" style="fill: none; stroke-dasharray: 2.96,1.28; stroke-dashoffset: 0; stroke: #b0b0b0; stroke-width: 0.8"/>
     </g>
     <g id="line2d_52">
      <g>
       <use xlink:href="#m919f067d39" x="321.603188" y="584.521875" style="stroke: #000000; stroke-width: 0.8"/>
      </g>
     </g>
     <g id="text_15">
      <!-- 2022-04 -->
      <g transform="translate(300.711782 599.120312)scale(0.1 -0.1)">
       <use xlink:href="#DejaVuSans-32"/>
       <use xlink:href="#DejaVuSans-30" x="63.623047"/>
       <use xlink:href="#DejaVuSans-32" x="127.246094"/>
       <use xlink:href="#DejaVuSans-32" x="190.869141"/>
       <use xlink:href="#DejaVuSans-2d" x="254.492188"/>
       <use xlink:href="#DejaVuSans-30" x="290.576172"/>
       <use xlink:href="#DejaVuSans-34" x="354.199219"/>
      </g>
     </g>
    </g>
    <g id="xtick_17">
     <g id="line2d_53">
      <path d="M 401.935999 584.521875 
L 401.935999 331.135938 
" clip-path="url(#pa44d334d61)" style="fill: none; stroke-dasharray: 2.96,1.28; stroke-dashoffset: 0; stroke: #b0b0b0; stroke-width: 0.8"/>
     </g>
     <g id="line2d_54">
      <g>
       <use xlink:href="#m919f067d39" x="401.935999" y="584.521875" style="stroke: #000000; stroke-width: 0.8"/>
      </g>
     </g>
     <g id="text_16">
      <!-- 2022-05 -->
      <g transform="translate(381.044592 599.120312)scale(0.1 -0.1)">
       <use xlink:href="#DejaVuSans-32"/>
       <use xlink:href="#DejaVuSans-30" x="63.623047"/>
       <use xlink:href="#DejaVuSans-32" x="127.246094"/>
       <use xlink:href="#DejaVuSans-32" x="190.869141"/>
       <use xlink:href="#DejaVuSans-2d" x="254.492188"/>
       <use xlink:href="#DejaVuSans-30" x="290.576172"/>
       <use xlink:href="#DejaVuSans-35" x="354.199219"/>
      </g>
     </g>
    </g>
    <g id="xtick_18">
     <g id="line2d_55">
      <path d="M 484.946569 584.521875 
L 484.946569 331.135938 
" clip-path="url(#pa44d334d61)" style="fill: none; stroke-dasharray: 2.96,1.28; stroke-dashoffset: 0; stroke: #b0b0b0; stroke-width: 0.8"/>
     </g>
     <g id="line2d_56">
      <g>
       <use xlink:href="#m919f067d39" x="484.946569" y="584.521875" style="stroke: #000000; stroke-width: 0.8"/>
      </g>
     </g>
     <g id="text_17">
      <!-- 2022-06 -->
      <g transform="translate(464.055163 599.120312)scale(0.1 -0.1)">
       <use xlink:href="#DejaVuSans-32"/>
       <use xlink:href="#DejaVuSans-30" x="63.623047"/>
       <use xlink:href="#DejaVuSans-32" x="127.246094"/>
       <use xlink:href="#DejaVuSans-32" x="190.869141"/>
       <use xlink:href="#DejaVuSans-2d" x="254.492188"/>
       <use xlink:href="#DejaVuSans-30" x="290.576172"/>
       <use xlink:href="#DejaVuSans-36" x="354.199219"/>
      </g>
     </g>
    </g>
    <g id="xtick_19">
     <g id="line2d_57">
      <path d="M 565.27938 584.521875 
L 565.27938 331.135938 
" clip-path="url(#pa44d334d61)" style="fill: none; stroke-dasharray: 2.96,1.28; stroke-dashoffset: 0; stroke: #b0b0b0; stroke-width: 0.8"/>
     </g>
     <g id="line2d_58">
      <g>
       <use xlink:href="#m919f067d39" x="565.27938" y="584.521875" style="stroke: #000000; stroke-width: 0.8"/>
      </g>
     </g>
     <g id="text_18">
      <!-- 2022-07 -->
      <g transform="translate(544.387973 599.120312)scale(0.1 -0.1)">
       <defs>
        <path id="DejaVuSans-37" d="M 525 4666 
L 3525 4666 
L 3525 4397 
L 1831 0 
L 1172 0 
L 2766 4134 
L 525 4134 
L 525 4666 
z
" transform="scale(0.015625)"/>
       </defs>
       <use xlink:href="#DejaVuSans-32"/>
       <use xlink:href="#DejaVuSans-30" x="63.623047"/>
       <use xlink:href="#DejaVuSans-32" x="127.246094"/>
       <use xlink:href="#DejaVuSans-32" x="190.869141"/>
       <use xlink:href="#DejaVuSans-2d" x="254.492188"/>
       <use xlink:href="#DejaVuSans-30" x="290.576172"/>
       <use xlink:href="#DejaVuSans-37" x="354.199219"/>
      </g>
     </g>
    </g>
    <g id="xtick_20">
     <g id="line2d_59">
      <path d="M 648.28995 584.521875 
L 648.28995 331.135938 
" clip-path="url(#pa44d334d61)" style="fill: none; stroke-dasharray: 2.96,1.28; stroke-dashoffset: 0; stroke: #b0b0b0; stroke-width: 0.8"/>
     </g>
     <g id="line2d_60">
      <g>
       <use xlink:href="#m919f067d39" x="648.28995" y="584.521875" style="stroke: #000000; stroke-width: 0.8"/>
      </g>
     </g>
     <g id="text_19">
      <!-- 2022-08 -->
      <g transform="translate(627.398544 599.120312)scale(0.1 -0.1)">
       <defs>
        <path id="DejaVuSans-38" d="M 2034 2216 
Q 1584 2216 1326 1975 
Q 1069 1734 1069 1313 
Q 1069 891 1326 650 
Q 1584 409 2034 409 
Q 2484 409 2743 651 
Q 3003 894 3003 1313 
Q 3003 1734 2745 1975 
Q 2488 2216 2034 2216 
z
M 1403 2484 
Q 997 2584 770 2862 
Q 544 3141 544 3541 
Q 544 4100 942 4425 
Q 1341 4750 2034 4750 
Q 2731 4750 3128 4425 
Q 3525 4100 3525 3541 
Q 3525 3141 3298 2862 
Q 3072 2584 2669 2484 
Q 3125 2378 3379 2068 
Q 3634 1759 3634 1313 
Q 3634 634 3220 271 
Q 2806 -91 2034 -91 
Q 1263 -91 848 271 
Q 434 634 434 1313 
Q 434 1759 690 2068 
Q 947 2378 1403 2484 
z
M 1172 3481 
Q 1172 3119 1398 2916 
Q 1625 2713 2034 2713 
Q 2441 2713 2670 2916 
Q 2900 3119 2900 3481 
Q 2900 3844 2670 4047 
Q 2441 4250 2034 4250 
Q 1625 4250 1398 4047 
Q 1172 3844 1172 3481 
z
" transform="scale(0.015625)"/>
       </defs>
       <use xlink:href="#DejaVuSans-32"/>
       <use xlink:href="#DejaVuSans-30" x="63.623047"/>
       <use xlink:href="#DejaVuSans-32" x="127.246094"/>
       <use xlink:href="#DejaVuSans-32" x="190.869141"/>
       <use xlink:href="#DejaVuSans-2d" x="254.492188"/>
       <use xlink:href="#DejaVuSans-30" x="290.576172"/>
       <use xlink:href="#DejaVuSans-38" x="354.199219"/>
      </g>
     </g>
    </g>
    <g id="xtick_21">
     <g id="line2d_61">
      <path d="M 731.300521 584.521875 
L 731.300521 331.135938 
" clip-path="url(#pa44d334d61)" style="fill: none; stroke-dasharray: 2.96,1.28; stroke-dashoffset: 0; stroke: #b0b0b0; stroke-width: 0.8"/>
     </g>
     <g id="line2d_62">
      <g>
       <use xlink:href="#m919f067d39" x="731.300521" y="584.521875" style="stroke: #000000; stroke-width: 0.8"/>
      </g>
     </g>
     <g id="text_20">
      <!-- 2022-09 -->
      <g transform="translate(710.409115 599.120312)scale(0.1 -0.1)">
       <defs>
        <path id="DejaVuSans-39" d="M 703 97 
L 703 672 
Q 941 559 1184 500 
Q 1428 441 1663 441 
Q 2288 441 2617 861 
Q 2947 1281 2994 2138 
Q 2813 1869 2534 1725 
Q 2256 1581 1919 1581 
Q 1219 1581 811 2004 
Q 403 2428 403 3163 
Q 403 3881 828 4315 
Q 1253 4750 1959 4750 
Q 2769 4750 3195 4129 
Q 3622 3509 3622 2328 
Q 3622 1225 3098 567 
Q 2575 -91 1691 -91 
Q 1453 -91 1209 -44 
Q 966 3 703 97 
z
M 1959 2075 
Q 2384 2075 2632 2365 
Q 2881 2656 2881 3163 
Q 2881 3666 2632 3958 
Q 2384 4250 1959 4250 
Q 1534 4250 1286 3958 
Q 1038 3666 1038 3163 
Q 1038 2656 1286 2365 
Q 1534 2075 1959 2075 
z
" transform="scale(0.015625)"/>
       </defs>
       <use xlink:href="#DejaVuSans-32"/>
       <use xlink:href="#DejaVuSans-30" x="63.623047"/>
       <use xlink:href="#DejaVuSans-32" x="127.246094"/>
       <use xlink:href="#DejaVuSans-32" x="190.869141"/>
       <use xlink:href="#DejaVuSans-2d" x="254.492188"/>
       <use xlink:href="#DejaVuSans-30" x="290.576172"/>
       <use xlink:href="#DejaVuSans-39" x="354.199219"/>
      </g>
     </g>
    </g>
    <g id="xtick_22">
     <g id="line2d_63">
      <path d="M 811.633332 584.521875 
L 811.633332 331.135938 
" clip-path="url(#pa44d334d61)" style="fill: none; stroke-dasharray: 2.96,1.28; stroke-dashoffset: 0; stroke: #b0b0b0; stroke-width: 0.8"/>
     </g>
     <g id="line2d_64">
      <g>
       <use xlink:href="#m919f067d39" x="811.633332" y="584.521875" style="stroke: #000000; stroke-width: 0.8"/>
      </g>
     </g>
     <g id="text_21">
      <!-- 2022-10 -->
      <g transform="translate(790.741925 599.120312)scale(0.1 -0.1)">
       <use xlink:href="#DejaVuSans-32"/>
       <use xlink:href="#DejaVuSans-30" x="63.623047"/>
       <use xlink:href="#DejaVuSans-32" x="127.246094"/>
       <use xlink:href="#DejaVuSans-32" x="190.869141"/>
       <use xlink:href="#DejaVuSans-2d" x="254.492188"/>
       <use xlink:href="#DejaVuSans-31" x="290.576172"/>
       <use xlink:href="#DejaVuSans-30" x="354.199219"/>
      </g>
     </g>
    </g>
    <g id="xtick_23">
     <g id="line2d_65">
      <path d="M 894.643902 584.521875 
L 894.643902 331.135938 
" clip-path="url(#pa44d334d61)" style="fill: none; stroke-dasharray: 2.96,1.28; stroke-dashoffset: 0; stroke: #b0b0b0; stroke-width: 0.8"/>
     </g>
     <g id="line2d_66">
      <g>
       <use xlink:href="#m919f067d39" x="894.643902" y="584.521875" style="stroke: #000000; stroke-width: 0.8"/>
      </g>
     </g>
     <g id="text_22">
      <!-- 2022-11 -->
      <g transform="translate(873.752496 599.120312)scale(0.1 -0.1)">
       <use xlink:href="#DejaVuSans-32"/>
       <use xlink:href="#DejaVuSans-30" x="63.623047"/>
       <use xlink:href="#DejaVuSans-32" x="127.246094"/>
       <use xlink:href="#DejaVuSans-32" x="190.869141"/>
       <use xlink:href="#DejaVuSans-2d" x="254.492188"/>
       <use xlink:href="#DejaVuSans-31" x="290.576172"/>
       <use xlink:href="#DejaVuSans-31" x="354.199219"/>
      </g>
     </g>
    </g>
    <g id="xtick_24">
     <g id="line2d_67">
      <path d="M 974.976713 584.521875 
L 974.976713 331.135938 
" clip-path="url(#pa44d334d61)" style="fill: none; stroke-dasharray: 2.96,1.28; stroke-dashoffset: 0; stroke: #b0b0b0; stroke-width: 0.8"/>
     </g>
     <g id="line2d_68">
      <g>
       <use xlink:href="#m919f067d39" x="974.976713" y="584.521875" style="stroke: #000000; stroke-width: 0.8"/>
      </g>
     </g>
     <g id="text_23">
      <!-- 2022-12 -->
      <g transform="translate(954.085307 599.120312)scale(0.1 -0.1)">
       <use xlink:href="#DejaVuSans-32"/>
       <use xlink:href="#DejaVuSans-30" x="63.623047"/>
       <use xlink:href="#DejaVuSans-32" x="127.246094"/>
       <use xlink:href="#DejaVuSans-32" x="190.869141"/>
       <use xlink:href="#DejaVuSans-2d" x="254.492188"/>
       <use xlink:href="#DejaVuSans-31" x="290.576172"/>
       <use xlink:href="#DejaVuSans-32" x="354.199219"/>
      </g>
     </g>
    </g>
   </g>
   <g id="matplotlib.axis_4">
    <g id="ytick_9">
     <g id="line2d_69">
      <path d="M 43.25 571.175227 
L 982.876106 571.175227 
" clip-path="url(#pa44d334d61)" style="fill: none; stroke-dasharray: 2.96,1.28; stroke-dashoffset: 0; stroke: #b0b0b0; stroke-width: 0.8"/>
     </g>
     <g id="line2d_70">
      <g>
       <use xlink:href="#m3b7a2b280c" x="43.25" y="571.175227" style="stroke: #000000; stroke-width: 0.8"/>
      </g>
     </g>
     <g id="text_24">
      <!-- 40 -->
      <g transform="translate(15.145313 574.974446)scale(0.1 -0.1)">
       <defs>
        <path id="DejaVuSans-2212" d="M 678 2272 
L 4684 2272 
L 4684 1741 
L 678 1741 
L 678 2272 
z
" transform="scale(0.015625)"/>
       </defs>
       <use xlink:href="#DejaVuSans-2212"/>
       <use xlink:href="#DejaVuSans-34" x="83.789062"/>
       <use xlink:href="#DejaVuSans-30" x="147.412109"/>
      </g>
     </g>
    </g>
    <g id="ytick_10">
     <g id="line2d_71">
      <path d="M 43.25 517.161605 
L 982.876106 517.161605 
" clip-path="url(#pa44d334d61)" style="fill: none; stroke-dasharray: 2.96,1.28; stroke-dashoffset: 0; stroke: #b0b0b0; stroke-width: 0.8"/>
     </g>
     <g id="line2d_72">
      <g>
       <use xlink:href="#m3b7a2b280c" x="43.25" y="517.161605" style="stroke: #000000; stroke-width: 0.8"/>
      </g>
     </g>
     <g id="text_25">
      <!-- 20 -->
      <g transform="translate(15.145313 520.960824)scale(0.1 -0.1)">
       <use xlink:href="#DejaVuSans-2212"/>
       <use xlink:href="#DejaVuSans-32" x="83.789062"/>
       <use xlink:href="#DejaVuSans-30" x="147.412109"/>
      </g>
     </g>
    </g>
    <g id="ytick_11">
     <g id="line2d_73">
      <path d="M 43.25 463.147982 
L 982.876106 463.147982 
" clip-path="url(#pa44d334d61)" style="fill: none; stroke-dasharray: 2.96,1.28; stroke-dashoffset: 0; stroke: #b0b0b0; stroke-width: 0.8"/>
     </g>
     <g id="line2d_74">
      <g>
       <use xlink:href="#m3b7a2b280c" x="43.25" y="463.147982" style="stroke: #000000; stroke-width: 0.8"/>
      </g>
     </g>
     <g id="text_26">
      <!-- 0 -->
      <g transform="translate(29.8875 466.947201)scale(0.1 -0.1)">
       <use xlink:href="#DejaVuSans-30"/>
      </g>
     </g>
    </g>
    <g id="ytick_12">
     <g id="line2d_75">
      <path d="M 43.25 409.134359 
L 982.876106 409.134359 
" clip-path="url(#pa44d334d61)" style="fill: none; stroke-dasharray: 2.96,1.28; stroke-dashoffset: 0; stroke: #b0b0b0; stroke-width: 0.8"/>
     </g>
     <g id="line2d_76">
      <g>
       <use xlink:href="#m3b7a2b280c" x="43.25" y="409.134359" style="stroke: #000000; stroke-width: 0.8"/>
      </g>
     </g>
     <g id="text_27">
      <!-- 20 -->
      <g transform="translate(23.525 412.933578)scale(0.1 -0.1)">
       <use xlink:href="#DejaVuSans-32"/>
       <use xlink:href="#DejaVuSans-30" x="63.623047"/>
      </g>
     </g>
    </g>
    <g id="ytick_13">
     <g id="line2d_77">
      <path d="M 43.25 355.120737 
L 982.876106 355.120737 
" clip-path="url(#pa44d334d61)" style="fill: none; stroke-dasharray: 2.96,1.28; stroke-dashoffset: 0; stroke: #b0b0b0; stroke-width: 0.8"/>
     </g>
     <g id="line2d_78">
      <g>
       <use xlink:href="#m3b7a2b280c" x="43.25" y="355.120737" style="stroke: #000000; stroke-width: 0.8"/>
      </g>
     </g>
     <g id="text_28">
      <!-- 40 -->
      <g transform="translate(23.525 358.919955)scale(0.1 -0.1)">
       <use xlink:href="#DejaVuSans-34"/>
       <use xlink:href="#DejaVuSans-30" x="63.623047"/>
      </g>
     </g>
    </g>
   </g>
   <g id="line2d_79">
    <path d="M 85.960278 463.147982 
L 88.638038 462.608711 
L 91.315798 459.420793 
L 93.993559 460.509637 
L 96.671319 459.996206 
L 104.7046 458.753656 
L 107.38236 457.206655 
L 110.060121 457.452979 
L 112.737881 461.549036 
L 115.415641 462.092191 
L 123.448922 465.902259 
L 126.126683 467.508418 
L 128.804443 470.289357 
L 131.482203 473.7573 
L 134.159964 474.217975 
L 142.193245 480.153043 
L 144.871005 484.234347 
L 150.226526 489.331741 
L 152.904286 494.95763 
L 160.937567 494.957767 
L 163.615328 492.55759 
L 166.293088 484.153535 
L 168.970848 480.294908 
L 171.648609 475.489619 
L 179.68189 482.091479 
L 182.35965 488.203373 
L 185.03741 485.829005 
L 187.715171 478.402722 
L 190.392931 473.647858 
L 198.426212 478.670247 
L 201.103972 473.702391 
L 203.781733 470.106225 
L 206.459493 469.064921 
L 209.137254 467.006087 
L 217.170535 463.380738 
L 219.848295 462.857484 
L 222.526055 464.450511 
L 225.203816 482.374683 
L 227.881576 488.636362 
L 235.914857 499.403135 
L 241.270378 518.178029 
L 243.948138 532.920012 
L 246.625898 544.599151 
L 254.659179 561.513575 
L 257.33694 573.004332 
L 260.0147 571.656628 
L 262.69246 564.832397 
L 265.370221 557.461847 
L 273.403502 540.964866 
L 276.081262 531.07188 
L 278.759023 517.439382 
L 281.436783 499.385246 
L 292.147824 483.462018 
L 294.825585 469.133203 
L 297.503345 461.007661 
L 300.181105 462.453798 
L 302.858866 466.096696 
L 310.892147 468.511755 
L 313.569907 466.289624 
L 316.247667 459.144443 
L 318.925428 455.002546 
L 321.603188 444.230805 
L 329.636469 403.7566 
L 332.314229 383.115577 
L 334.99199 380.14715 
L 340.347511 392.043426 
L 348.380792 401.498091 
L 351.058552 410.176506 
L 353.736312 423.704154 
L 367.125114 449.666036 
L 369.802874 481.589592 
L 372.480635 503.791506 
L 375.158395 516.415981 
L 377.836155 529.727038 
L 385.869436 537.215647 
L 388.547197 540.884284 
L 391.224957 542.7648 
L 393.902717 543.588449 
L 396.580478 540.467802 
L 404.613759 533.034128 
L 409.96928 536.672608 
L 412.64704 539.341172 
L 415.3248 548.168134 
L 423.358081 553.630534 
L 426.035842 552.317135 
L 428.713602 548.647075 
L 434.069123 560.73972 
L 442.102404 561.478075 
L 444.780164 559.020039 
L 447.457924 556.023076 
L 450.135685 558.39687 
L 452.813445 551.872602 
L 460.846726 549.399253 
L 463.524487 543.259484 
L 466.202247 535.415182 
L 468.880007 520.284662 
L 471.557768 502.320271 
L 479.591049 485.753438 
L 482.268809 475.229634 
L 484.946569 465.576206 
L 487.62433 460.085165 
L 490.30209 456.851776 
L 498.335371 454.788706 
L 501.013131 456.681412 
L 503.690892 457.20414 
L 506.368652 455.462908 
L 509.046412 459.915746 
L 517.079693 468.718485 
L 519.757454 478.696558 
L 522.435214 487.317006 
L 525.112974 499.428321 
L 527.790735 506.683567 
L 535.824016 504.892431 
L 538.501776 499.911453 
L 541.179537 496.947129 
L 543.857297 493.183934 
L 546.535057 485.875728 
L 554.568338 479.363144 
L 557.246099 476.305514 
L 559.923859 474.180065 
L 562.601619 471.516641 
L 565.27938 468.095852 
L 573.312661 464.950054 
L 575.990421 463.121914 
L 578.668181 457.672184 
L 581.345942 448.176091 
L 584.023702 440.6267 
L 594.734744 430.49325 
L 597.412504 436.20045 
L 600.090264 442.443933 
L 602.768025 445.201738 
L 610.801306 450.690703 
L 613.479066 455.02542 
L 616.156826 454.851757 
L 618.834587 455.736608 
L 621.512347 449.674284 
L 629.545628 444.194865 
L 632.223388 440.731855 
L 634.901149 435.979739 
L 637.578909 429.884009 
L 640.256669 421.749418 
L 648.28995 413.273483 
L 650.967711 410.626602 
L 653.645471 408.429659 
L 656.323232 407.698221 
L 659.000992 408.801934 
L 667.034273 402.745699 
L 672.389794 397.773525 
L 675.067554 390.443472 
L 677.745314 385.647587 
L 688.456356 379.110886 
L 691.134116 373.277587 
L 693.811876 369.343715 
L 696.489637 371.348533 
L 704.522918 378.855848 
L 707.200678 386.678485 
L 709.878438 392.159941 
L 712.556199 398.987014 
L 715.233959 405.013181 
L 723.26724 415.933804 
L 725.945001 414.966933 
L 731.300521 417.76385 
L 733.978282 417.596262 
L 742.011563 415.926633 
L 744.689323 416.384653 
L 747.367083 418.795258 
L 750.044844 417.893143 
L 752.722604 417.486644 
L 760.755885 418.776484 
L 763.433645 416.080876 
L 766.111406 411.155238 
L 768.789166 409.601368 
L 771.466926 415.015678 
L 779.500207 417.684104 
L 782.177968 416.393416 
L 784.855728 416.421291 
L 787.533489 423.945072 
L 790.211249 438.871764 
L 798.24453 455.044174 
L 800.92229 470.564833 
L 803.600051 487.875534 
L 806.277811 502.707413 
L 808.955571 505.474897 
L 816.988852 508.916622 
L 819.666613 502.517084 
L 825.022133 500.501572 
L 827.699894 499.832506 
L 835.733175 502.294186 
L 838.410935 506.86829 
L 841.088695 507.982487 
L 843.766456 511.834608 
L 846.444216 504.516893 
L 854.477497 496.685636 
L 857.155258 490.749526 
L 859.833018 482.595684 
L 862.510778 478.107793 
L 865.188539 476.618634 
L 873.22182 470.461798 
L 875.89958 467.741424 
L 881.255101 464.803693 
L 883.932861 461.556796 
L 891.966142 450.844385 
L 894.643902 439.026168 
L 897.321663 429.837107 
L 899.999423 424.44998 
L 902.677183 422.910864 
L 910.710465 419.653684 
L 916.065985 417.69437 
L 918.743746 413.144087 
L 921.421506 391.534972 
L 929.454787 374.580644 
L 932.132547 361.455669 
L 934.810308 349.336854 
L 937.488068 344.316774 
L 940.165828 342.65348 
L 940.165828 342.65348 
" clip-path="url(#pa44d334d61)" style="fill: none; stroke: #1f77b4; stroke-width: 1.5; stroke-linecap: square"/>
   </g>
   <g id="line2d_80">
    <path d="M 85.960278 463.147982 
L 88.638038 462.848387 
L 91.315798 461.443636 
L 96.671319 460.790783 
L 104.7046 460.238608 
L 107.38236 459.471302 
L 110.060121 458.986261 
L 115.415641 460.141538 
L 123.448922 461.401951 
L 126.126683 462.713364 
L 128.804443 464.316707 
L 131.482203 466.291686 
L 134.159964 467.934754 
L 142.193245 470.449187 
L 144.871005 473.269732 
L 150.226526 476.541065 
L 152.904286 480.278236 
L 160.937567 483.248386 
L 163.615328 485.127559 
L 166.293088 484.931306 
L 168.970848 483.99852 
L 171.648609 482.288666 
L 179.68189 482.249079 
L 182.35965 483.443548 
L 185.03741 483.921796 
L 187.715171 482.815842 
L 190.392931 480.979403 
L 198.426212 480.516999 
L 201.103972 479.152727 
L 203.781733 477.341992 
L 209.137254 473.948759 
L 217.170535 471.834297 
L 219.848295 470.038352 
L 222.526055 468.920493 
L 225.203816 471.61189 
L 227.881576 475.017351 
L 235.914857 479.895156 
L 241.270378 487.552545 
L 243.948138 496.62681 
L 246.625898 506.221931 
L 254.659179 517.280862 
L 257.33694 528.426042 
L 260.0147 537.07246 
L 262.69246 542.624602 
L 265.370221 545.592117 
L 273.403502 544.666651 
L 276.081262 541.947658 
L 278.759023 537.045947 
L 281.436783 529.513738 
L 292.147824 520.303326 
L 297.503345 500.25688 
L 300.181105 492.696235 
L 302.858866 487.376311 
L 310.892147 483.603391 
L 313.569907 480.140631 
L 318.925428 471.753614 
L 321.603188 466.249046 
L 329.636469 453.750547 
L 332.314229 439.623544 
L 334.99199 427.72826 
L 337.66975 419.397081 
L 340.347511 413.926348 
L 348.380792 411.440696 
L 351.058552 411.187858 
L 353.736312 413.691117 
L 367.125114 420.886102 
L 369.802874 433.026801 
L 375.158395 461.026992 
L 377.836155 474.767002 
L 385.869436 487.256731 
L 388.547197 497.982242 
L 391.224957 506.938754 
L 393.902717 514.268693 
L 396.580478 519.508515 
L 404.613759 522.213638 
L 409.96928 525.105432 
L 412.64704 527.95258 
L 415.3248 531.995691 
L 423.358081 536.322659 
L 426.035842 539.521555 
L 428.713602 541.346659 
L 431.391362 543.997328 
L 434.069123 547.345806 
L 442.102404 550.17226 
L 444.780164 551.941816 
L 447.457924 552.758068 
L 450.135685 553.885828 
L 452.813445 553.483183 
L 460.846726 552.666397 
L 463.524487 550.785015 
L 466.202247 547.711048 
L 468.880007 542.225771 
L 471.557768 534.244671 
L 479.591049 524.546424 
L 484.946569 504.861694 
L 487.62433 495.906388 
L 490.30209 488.095466 
L 498.335371 481.434114 
L 501.013131 476.483574 
L 503.690892 472.627687 
L 506.368652 469.194731 
L 509.046412 467.338934 
L 517.079693 467.614844 
L 519.757454 469.831187 
L 522.435214 473.328351 
L 525.112974 478.548345 
L 527.790735 484.175389 
L 535.824016 488.318798 
L 538.501776 490.637329 
L 541.179537 491.899289 
L 543.857297 492.156218 
L 546.535057 490.90012 
L 554.568338 488.592725 
L 565.27938 478.658146 
L 573.312661 475.916528 
L 575.990421 473.357605 
L 578.668181 470.220521 
L 581.345942 465.811635 
L 584.023702 460.774648 
L 592.056983 455.223509 
L 594.734744 450.277457 
L 597.412504 447.462055 
L 600.090264 446.458431 
L 602.768025 446.207092 
L 610.801306 447.103814 
L 613.479066 448.688136 
L 618.834587 451.08401 
L 621.512347 450.802064 
L 629.545628 449.480624 
L 632.223388 447.73087 
L 634.901149 445.380644 
L 637.578909 442.281317 
L 640.256669 438.174937 
L 648.28995 433.194647 
L 650.967711 428.681038 
L 653.645471 424.630762 
L 656.323232 421.244254 
L 659.000992 418.75579 
L 667.034273 415.553772 
L 672.389794 411.997722 
L 677.745314 403.279015 
L 688.456356 398.445389 
L 693.811876 388.598206 
L 696.489637 385.148272 
L 704.522918 383.889787 
L 707.200678 384.447527 
L 709.878438 385.990009 
L 712.556199 388.58941 
L 715.233959 391.874164 
L 723.26724 396.686092 
L 725.945001 400.342261 
L 731.300521 403.826578 
L 733.978282 406.580515 
L 742.011563 408.449739 
L 744.689323 410.036722 
L 747.367083 411.788429 
L 750.044844 413.009372 
L 752.722604 413.904826 
L 763.433645 415.119501 
L 766.111406 414.326649 
L 768.789166 413.381593 
L 771.466926 413.70841 
L 779.500207 414.503548 
L 784.855728 415.189476 
L 787.533489 416.940595 
L 790.211249 421.326829 
L 798.24453 428.070298 
L 800.92229 436.569205 
L 803.600051 446.830471 
L 806.277811 458.005859 
L 808.955571 467.499667 
L 816.988852 475.783058 
L 819.666613 481.129863 
L 825.022133 485.004205 
L 827.699894 487.969865 
L 835.733175 490.834729 
L 838.410935 494.041441 
L 841.088695 496.82965 
L 843.766456 499.830642 
L 846.444216 500.767892 
L 854.477497 499.951441 
L 857.155258 498.111058 
L 859.833018 495.007983 
L 862.510778 491.627945 
L 865.188539 488.626083 
L 873.22182 484.993226 
L 875.89958 481.542865 
L 881.255101 478.195031 
L 883.932861 474.867384 
L 891.966142 470.062784 
L 894.643902 463.855461 
L 899.999423 450.531428 
L 902.677183 445.007315 
L 910.710465 439.936589 
L 916.065985 435.488145 
L 918.743746 431.019334 
L 921.421506 423.122461 
L 929.454787 413.414098 
L 934.810308 392.2853 
L 937.488068 382.691595 
L 940.165828 374.683972 
L 940.165828 374.683972 
" clip-path="url(#pa44d334d61)" style="fill: none; stroke: #ff7f0e; stroke-width: 1.5; stroke-linecap: square"/>
   </g>
   <g id="patch_9">
    <path d="M 43.25 584.521875 
L 43.25 331.135938 
" style="fill: none; stroke: #000000; stroke-width: 0.8; stroke-linejoin: miter; stroke-linecap: square"/>
   </g>
   <g id="patch_10">
    <path d="M 982.876106 584.521875 
L 982.876106 331.135938 
" style="fill: none; stroke: #000000; stroke-width: 0.8; stroke-linejoin: miter; stroke-linecap: square"/>
   </g>
   <g id="patch_11">
    <path d="M 43.25 584.521875 
L 982.876106 584.521875 
" style="fill: none; stroke: #000000; stroke-width: 0.8; stroke-linejoin: miter; stroke-linecap: square"/>
   </g>
   <g id="patch_12">
    <path d="M 43.25 331.135938 
L 982.876106 331.135938 
" style="fill: none; stroke: #000000; stroke-width: 0.8; stroke-linejoin: miter; stroke-linecap: square"/>
   </g>
   <g id="text_29">
    <!-- MACD -->
    <g transform="translate(495.077115 325.135938)scale(0.12 -0.12)">
     <defs>
      <path id="DejaVuSans-44" d="M 1259 4147 
L 1259 519 
L 2022 519 
Q 2988 519 3436 956 
Q 3884 1394 3884 2338 
Q 3884 3275 3436 3711 
Q 2988 4147 2022 4147 
L 1259 4147 
z
M 628 4666 
L 1925 4666 
Q 3281 4666 3915 4102 
Q 4550 3538 4550 2338 
Q 4550 1131 3912 565 
Q 3275 0 1925 0 
L 628 0 
L 628 4666 
z
" transform="scale(0.015625)"/>
     </defs>
     <use xlink:href="#DejaVuSans-4d"/>
     <use xlink:href="#DejaVuSans-41" x="86.279297"/>
     <use xlink:href="#DejaVuSans-43" x="152.9375"/>
     <use xlink:href="#DejaVuSans-44" x="222.761719"/>
    </g>
   </g>
   <g id="legend_2">
    <g id="patch_13">
     <path d="M 50.25 368.492188 
L 112.226563 368.492188 
Q 114.226563 368.492188 114.226563 366.492188 
L 114.226563 338.135938 
Q 114.226563 336.135938 112.226563 336.135938 
L 50.25 336.135938 
Q 48.25 336.135938 48.25 338.135938 
L 48.25 366.492188 
Q 48.25 368.492188 50.25 368.492188 
z
" style="fill: #ffffff; opacity: 0.8; stroke: #cccccc; stroke-linejoin: miter"/>
    </g>
    <g id="line2d_81">
     <path d="M 52.25 344.234375 
L 62.25 344.234375 
L 72.25 344.234375 
" style="fill: none; stroke: #1f77b4; stroke-width: 1.5; stroke-linecap: square"/>
    </g>
    <g id="text_30">
     <!-- MACD -->
     <g transform="translate(80.25 347.734375)scale(0.1 -0.1)">
      <use xlink:href="#DejaVuSans-4d"/>
      <use xlink:href="#DejaVuSans-41" x="86.279297"/>
      <use xlink:href="#DejaVuSans-43" x="152.9375"/>
      <use xlink:href="#DejaVuSans-44" x="222.761719"/>
     </g>
    </g>
    <g id="line2d_82">
     <path d="M 52.25 358.9125 
L 62.25 358.9125 
L 72.25 358.9125 
" style="fill: none; stroke: #ff7f0e; stroke-width: 1.5; stroke-linecap: square"/>
    </g>
    <g id="text_31">
     <!-- SIG -->
     <g transform="translate(80.25 362.4125)scale(0.1 -0.1)">
      <defs>
       <path id="DejaVuSans-49" d="M 628 4666 
L 1259 4666 
L 1259 0 
L 628 0 
L 628 4666 
z
" transform="scale(0.015625)"/>
       <path id="DejaVuSans-47" d="M 3809 666 
L 3809 1919 
L 2778 1919 
L 2778 2438 
L 4434 2438 
L 4434 434 
Q 4069 175 3628 42 
Q 3188 -91 2688 -91 
Q 1594 -91 976 548 
Q 359 1188 359 2328 
Q 359 3472 976 4111 
Q 1594 4750 2688 4750 
Q 3144 4750 3555 4637 
Q 3966 4525 4313 4306 
L 4313 3634 
Q 3963 3931 3569 4081 
Q 3175 4231 2741 4231 
Q 1884 4231 1454 3753 
Q 1025 3275 1025 2328 
Q 1025 1384 1454 906 
Q 1884 428 2741 428 
Q 3075 428 3337 486 
Q 3600 544 3809 666 
z
" transform="scale(0.015625)"/>
      </defs>
      <use xlink:href="#DejaVuSans-53"/>
      <use xlink:href="#DejaVuSans-49" x="63.476562"/>
      <use xlink:href="#DejaVuSans-47" x="92.96875"/>
     </g>
    </g>
   </g>
  </g>
  <g id="text_32">
   <!-- HDFC Bank Limited -->
   <g transform="translate(445.96875 21.358125)scale(0.12 -0.12)">
    <defs>
     <path id="DejaVuSans-48" d="M 628 4666 
L 1259 4666 
L 1259 2753 
L 3553 2753 
L 3553 4666 
L 4184 4666 
L 4184 0 
L 3553 0 
L 3553 2222 
L 1259 2222 
L 1259 0 
L 628 0 
L 628 4666 
z
" transform="scale(0.015625)"/>
     <path id="DejaVuSans-46" d="M 628 4666 
L 3309 4666 
L 3309 4134 
L 1259 4134 
L 1259 2759 
L 3109 2759 
L 3109 2228 
L 1259 2228 
L 1259 0 
L 628 0 
L 628 4666 
z
" transform="scale(0.015625)"/>
     <path id="DejaVuSans-42" d="M 1259 2228 
L 1259 519 
L 2272 519 
Q 2781 519 3026 730 
Q 3272 941 3272 1375 
Q 3272 1813 3026 2020 
Q 2781 2228 2272 2228 
L 1259 2228 
z
M 1259 4147 
L 1259 2741 
L 2194 2741 
Q 2656 2741 2882 2914 
Q 3109 3088 3109 3444 
Q 3109 3797 2882 3972 
Q 2656 4147 2194 4147 
L 1259 4147 
z
M 628 4666 
L 2241 4666 
Q 2963 4666 3353 4366 
Q 3744 4066 3744 3513 
Q 3744 3084 3544 2831 
Q 3344 2578 2956 2516 
Q 3422 2416 3680 2098 
Q 3938 1781 3938 1306 
Q 3938 681 3513 340 
Q 3088 0 2303 0 
L 628 0 
L 628 4666 
z
" transform="scale(0.015625)"/>
     <path id="DejaVuSans-61" d="M 2194 1759 
Q 1497 1759 1228 1600 
Q 959 1441 959 1056 
Q 959 750 1161 570 
Q 1363 391 1709 391 
Q 2188 391 2477 730 
Q 2766 1069 2766 1631 
L 2766 1759 
L 2194 1759 
z
M 3341 1997 
L 3341 0 
L 2766 0 
L 2766 531 
Q 2569 213 2275 61 
Q 1981 -91 1556 -91 
Q 1019 -91 701 211 
Q 384 513 384 1019 
Q 384 1609 779 1909 
Q 1175 2209 1959 2209 
L 2766 2209 
L 2766 2266 
Q 2766 2663 2505 2880 
Q 2244 3097 1772 3097 
Q 1472 3097 1187 3025 
Q 903 2953 641 2809 
L 641 3341 
Q 956 3463 1253 3523 
Q 1550 3584 1831 3584 
Q 2591 3584 2966 3190 
Q 3341 2797 3341 1997 
z
" transform="scale(0.015625)"/>
     <path id="DejaVuSans-6b" d="M 581 4863 
L 1159 4863 
L 1159 1991 
L 2875 3500 
L 3609 3500 
L 1753 1863 
L 3688 0 
L 2938 0 
L 1159 1709 
L 1159 0 
L 581 0 
L 581 4863 
z
" transform="scale(0.015625)"/>
     <path id="DejaVuSans-6d" d="M 3328 2828 
Q 3544 3216 3844 3400 
Q 4144 3584 4550 3584 
Q 5097 3584 5394 3201 
Q 5691 2819 5691 2113 
L 5691 0 
L 5113 0 
L 5113 2094 
Q 5113 2597 4934 2840 
Q 4756 3084 4391 3084 
Q 3944 3084 3684 2787 
Q 3425 2491 3425 1978 
L 3425 0 
L 2847 0 
L 2847 2094 
Q 2847 2600 2669 2842 
Q 2491 3084 2119 3084 
Q 1678 3084 1418 2786 
Q 1159 2488 1159 1978 
L 1159 0 
L 581 0 
L 581 3500 
L 1159 3500 
L 1159 2956 
Q 1356 3278 1631 3431 
Q 1906 3584 2284 3584 
Q 2666 3584 2933 3390 
Q 3200 3197 3328 2828 
z
" transform="scale(0.015625)"/>
     <path id="DejaVuSans-74" d="M 1172 4494 
L 1172 3500 
L 2356 3500 
L 2356 3053 
L 1172 3053 
L 1172 1153 
Q 1172 725 1289 603 
Q 1406 481 1766 481 
L 2356 481 
L 2356 0 
L 1766 0 
Q 1100 0 847 248 
Q 594 497 594 1153 
L 594 3053 
L 172 3053 
L 172 3500 
L 594 3500 
L 594 4494 
L 1172 4494 
z
" transform="scale(0.015625)"/>
     <path id="DejaVuSans-64" d="M 2906 2969 
L 2906 4863 
L 3481 4863 
L 3481 0 
L 2906 0 
L 2906 525 
Q 2725 213 2448 61 
Q 2172 -91 1784 -91 
Q 1150 -91 751 415 
Q 353 922 353 1747 
Q 353 2572 751 3078 
Q 1150 3584 1784 3584 
Q 2172 3584 2448 3432 
Q 2725 3281 2906 2969 
z
M 947 1747 
Q 947 1113 1208 752 
Q 1469 391 1925 391 
Q 2381 391 2643 752 
Q 2906 1113 2906 1747 
Q 2906 2381 2643 2742 
Q 2381 3103 1925 3103 
Q 1469 3103 1208 2742 
Q 947 2381 947 1747 
z
" transform="scale(0.015625)"/>
    </defs>
    <use xlink:href="#DejaVuSans-48"/>
    <use xlink:href="#DejaVuSans-44" x="75.195312"/>
    <use xlink:href="#DejaVuSans-46" x="152.197266"/>
    <use xlink:href="#DejaVuSans-43" x="209.716797"/>
    <use xlink:href="#DejaVuSans-20" x="279.541016"/>
    <use xlink:href="#DejaVuSans-42" x="311.328125"/>
    <use xlink:href="#DejaVuSans-61" x="379.931641"/>
    <use xlink:href="#DejaVuSans-6e" x="441.210938"/>
    <use xlink:href="#DejaVuSans-6b" x="504.589844"/>
    <use xlink:href="#DejaVuSans-20" x="562.5"/>
    <use xlink:href="#DejaVuSans-4c" x="594.287109"/>
    <use xlink:href="#DejaVuSans-69" x="650"/>
    <use xlink:href="#DejaVuSans-6d" x="677.783203"/>
    <use xlink:href="#DejaVuSans-69" x="775.195312"/>
    <use xlink:href="#DejaVuSans-74" x="802.978516"/>
    <use xlink:href="#DejaVuSans-65" x="842.1875"/>
    <use xlink:href="#DejaVuSans-64" x="903.710938"/>
   </g>
  </g>
 </g>
 <defs>
  <clipPath id="p18c40b8deb">
   <rect x="43.25" y="48.331875" width="939.626106" height="253.385938"/>
  </clipPath>
  <clipPath id="pa44d334d61">
   <rect x="43.25" y="331.135938" width="939.626106" height="253.385937"/>
  </clipPath>
 </defs>
</svg>
