<?xml version="1.0" encoding="utf-8" standalone="no"?>
<!DOCTYPE svg PUBLIC "-//W3C//DTD SVG 1.1//EN"
  "http://www.w3.org/Graphics/SVG/1.1/DTD/svg11.dtd">
<svg xmlns:xlink="http://www.w3.org/1999/xlink" width="1008pt" height="612pt" viewBox="0 0 1008 612" xmlns="http://www.w3.org/2000/svg" version="1.1">
 <metadata>
  <rdf:RDF xmlns:dc="http://purl.org/dc/elements/1.1/" xmlns:cc="http://creativecommons.org/ns#" xmlns:rdf="http://www.w3.org/1999/02/22-rdf-syntax-ns#">
   <cc:Work>
    <dc:type rdf:resource="http://purl.org/dc/dcmitype/StillImage"/>
    <dc:date>2022-11-20T19:46:45.547168</dc:date>
    <dc:format>image/svg+xml</dc:format>
    <dc:creator>
     <cc:Agent>
      <dc:title>Matplotlib v3.5.2, https://matplotlib.org/</dc:title>
     </cc:Agent>
    </dc:creator>
   </cc:Work>
  </rdf:RDF>
 </metadata>
 <defs>
  <style type="text/css">*{stroke-linejoin: round; stroke-linecap: butt}</style>
 </defs>
 <g id="figure_1">
  <g id="patch_1">
   <path d="M 0 612 
L 1008 612 
L 1008 0 
L 0 0 
z
" style="fill: #ffffff"/>
  </g>
  <g id="axes_1">
   <g id="patch_2">
    <path d="M 43.25 301.717812 
L 982.876106 301.717812 
L 982.876106 48.331875 
L 43.25 48.331875 
z
" style="fill: #ffffff"/>
   </g>
   <g id="matplotlib.axis_1">
    <g id="xtick_1">
     <g id="line2d_1">
      <path d="M 80.604757 301.717812 
L 80.604757 48.331875 
" clip-path="url(#p8a78150398)" style="fill: none; stroke-dasharray: 2.96,1.28; stroke-dashoffset: 0; stroke: #b0b0b0; stroke-width: 0.8"/>
     </g>
     <g id="line2d_2">
      <defs>
       <path id="ma63d3a2ef1" d="M 0 0 
L 0 3.5 
" style="stroke: #000000; stroke-width: 0.8"/>
      </defs>
      <g>
       <use xlink:href="#ma63d3a2ef1" x="80.604757" y="301.717812" style="stroke: #000000; stroke-width: 0.8"/>
      </g>
     </g>
    </g>
    <g id="xtick_2">
     <g id="line2d_3">
      <path d="M 163.615328 301.717812 
L 163.615328 48.331875 
" clip-path="url(#p8a78150398)" style="fill: none; stroke-dasharray: 2.96,1.28; stroke-dashoffset: 0; stroke: #b0b0b0; stroke-width: 0.8"/>
     </g>
     <g id="line2d_4">
      <g>
       <use xlink:href="#ma63d3a2ef1" x="163.615328" y="301.717812" style="stroke: #000000; stroke-width: 0.8"/>
      </g>
     </g>
    </g>
    <g id="xtick_3">
     <g id="line2d_5">
      <path d="M 238.592617 301.717812 
L 238.592617 48.331875 
" clip-path="url(#p8a78150398)" style="fill: none; stroke-dasharray: 2.96,1.28; stroke-dashoffset: 0; stroke: #b0b0b0; stroke-width: 0.8"/>
     </g>
     <g id="line2d_6">
      <g>
       <use xlink:href="#ma63d3a2ef1" x="238.592617" y="301.717812" style="stroke: #000000; stroke-width: 0.8"/>
      </g>
     </g>
    </g>
    <g id="xtick_4">
     <g id="line2d_7">
      <path d="M 321.603188 301.717812 
L 321.603188 48.331875 
" clip-path="url(#p8a78150398)" style="fill: none; stroke-dasharray: 2.96,1.28; stroke-dashoffset: 0; stroke: #b0b0b0; stroke-width: 0.8"/>
     </g>
     <g id="line2d_8">
      <g>
       <use xlink:href="#ma63d3a2ef1" x="321.603188" y="301.717812" style="stroke: #000000; stroke-width: 0.8"/>
      </g>
     </g>
    </g>
    <g id="xtick_5">
     <g id="line2d_9">
      <path d="M 401.935999 301.717812 
L 401.935999 48.331875 
" clip-path="url(#p8a78150398)" style="fill: none; stroke-dasharray: 2.96,1.28; stroke-dashoffset: 0; stroke: #b0b0b0; stroke-width: 0.8"/>
     </g>
     <g id="line2d_10">
      <g>
       <use xlink:href="#ma63d3a2ef1" x="401.935999" y="301.717812" style="stroke: #000000; stroke-width: 0.8"/>
      </g>
     </g>
    </g>
    <g id="xtick_6">
     <g id="line2d_11">
      <path d="M 484.946569 301.717812 
L 484.946569 48.331875 
" clip-path="url(#p8a78150398)" style="fill: none; stroke-dasharray: 2.96,1.28; stroke-dashoffset: 0; stroke: #b0b0b0; stroke-width: 0.8"/>
     </g>
     <g id="line2d_12">
      <g>
       <use xlink:href="#ma63d3a2ef1" x="484.946569" y="301.717812" style="stroke: #000000; stroke-width: 0.8"/>
      </g>
     </g>
    </g>
    <g id="xtick_7">
     <g id="line2d_13">
      <path d="M 565.27938 301.717812 
L 565.27938 48.331875 
" clip-path="url(#p8a78150398)" style="fill: none; stroke-dasharray: 2.96,1.28; stroke-dashoffset: 0; stroke: #b0b0b0; stroke-width: 0.8"/>
     </g>
     <g id="line2d_14">
      <g>
       <use xlink:href="#ma63d3a2ef1" x="565.27938" y="301.717812" style="stroke: #000000; stroke-width: 0.8"/>
      </g>
     </g>
    </g>
    <g id="xtick_8">
     <g id="line2d_15">
      <path d="M 648.28995 301.717812 
L 648.28995 48.331875 
" clip-path="url(#p8a78150398)" style="fill: none; stroke-dasharray: 2.96,1.28; stroke-dashoffset: 0; stroke: #b0b0b0; stroke-width: 0.8"/>
     </g>
     <g id="line2d_16">
      <g>
       <use xlink:href="#ma63d3a2ef1" x="648.28995" y="301.717812" style="stroke: #000000; stroke-width: 0.8"/>
      </g>
     </g>
    </g>
    <g id="xtick_9">
     <g id="line2d_17">
      <path d="M 731.300521 301.717812 
L 731.300521 48.331875 
" clip-path="url(#p8a78150398)" style="fill: none; stroke-dasharray: 2.96,1.28; stroke-dashoffset: 0; stroke: #b0b0b0; stroke-width: 0.8"/>
     </g>
     <g id="line2d_18">
      <g>
       <use xlink:href="#ma63d3a2ef1" x="731.300521" y="301.717812" style="stroke: #000000; stroke-width: 0.8"/>
      </g>
     </g>
    </g>
    <g id="xtick_10">
     <g id="line2d_19">
      <path d="M 811.633332 301.717812 
L 811.633332 48.331875 
" clip-path="url(#p8a78150398)" style="fill: none; stroke-dasharray: 2.96,1.28; stroke-dashoffset: 0; stroke: #b0b0b0; stroke-width: 0.8"/>
     </g>
     <g id="line2d_20">
      <g>
       <use xlink:href="#ma63d3a2ef1" x="811.633332" y="301.717812" style="stroke: #000000; stroke-width: 0.8"/>
      </g>
     </g>
    </g>
    <g id="xtick_11">
     <g id="line2d_21">
      <path d="M 894.643902 301.717812 
L 894.643902 48.331875 
" clip-path="url(#p8a78150398)" style="fill: none; stroke-dasharray: 2.96,1.28; stroke-dashoffset: 0; stroke: #b0b0b0; stroke-width: 0.8"/>
     </g>
     <g id="line2d_22">
      <g>
       <use xlink:href="#ma63d3a2ef1" x="894.643902" y="301.717812" style="stroke: #000000; stroke-width: 0.8"/>
      </g>
     </g>
    </g>
    <g id="xtick_12">
     <g id="line2d_23">
      <path d="M 974.976713 301.717812 
L 974.976713 48.331875 
" clip-path="url(#p8a78150398)" style="fill: none; stroke-dasharray: 2.96,1.28; stroke-dashoffset: 0; stroke: #b0b0b0; stroke-width: 0.8"/>
     </g>
     <g id="line2d_24">
      <g>
       <use xlink:href="#ma63d3a2ef1" x="974.976713" y="301.717812" style="stroke: #000000; stroke-width: 0.8"/>
      </g>
     </g>
    </g>
   </g>
   <g id="matplotlib.axis_2">
    <g id="ytick_1">
     <g id="line2d_25">
      <path d="M 43.25 276.336283 
L 982.876106 276.336283 
" clip-path="url(#p8a78150398)" style="fill: none; stroke-dasharray: 2.96,1.28; stroke-dashoffset: 0; stroke: #b0b0b0; stroke-width: 0.8"/>
     </g>
     <g id="line2d_26">
      <defs>
       <path id="ma0812719dd" d="M 0 0 
L -3.5 0 
" style="stroke: #000000; stroke-width: 0.8"/>
      </defs>
      <g>
       <use xlink:href="#ma0812719dd" x="43.25" y="276.336283" style="stroke: #000000; stroke-width: 0.8"/>
      </g>
     </g>
     <g id="text_1">
      <!-- 1400 -->
      <g transform="translate(10.8 280.135501)scale(0.1 -0.1)">
       <defs>
        <path id="DejaVuSans-31" d="M 794 531 
L 1825 531 
L 1825 4091 
L 703 3866 
L 703 4441 
L 1819 4666 
L 2450 4666 
L 2450 531 
L 3481 531 
L 3481 0 
L 794 0 
L 794 531 
z
" transform="scale(0.015625)"/>
        <path id="DejaVuSans-34" d="M 2419 4116 
L 825 1625 
L 2419 1625 
L 2419 4116 
z
M 2253 4666 
L 3047 4666 
L 3047 1625 
L 3713 1625 
L 3713 1100 
L 3047 1100 
L 3047 0 
L 2419 0 
L 2419 1100 
L 313 1100 
L 313 1709 
L 2253 4666 
z
" transform="scale(0.015625)"/>
        <path id="DejaVuSans-30" d="M 2034 4250 
Q 1547 4250 1301 3770 
Q 1056 3291 1056 2328 
Q 1056 1369 1301 889 
Q 1547 409 2034 409 
Q 2525 409 2770 889 
Q 3016 1369 3016 2328 
Q 3016 3291 2770 3770 
Q 2525 4250 2034 4250 
z
M 2034 4750 
Q 2819 4750 3233 4129 
Q 3647 3509 3647 2328 
Q 3647 1150 3233 529 
Q 2819 -91 2034 -91 
Q 1250 -91 836 529 
Q 422 1150 422 2328 
Q 422 3509 836 4129 
Q 1250 4750 2034 4750 
z
" transform="scale(0.015625)"/>
       </defs>
       <use xlink:href="#DejaVuSans-31"/>
       <use xlink:href="#DejaVuSans-34" x="63.623047"/>
       <use xlink:href="#DejaVuSans-30" x="127.246094"/>
       <use xlink:href="#DejaVuSans-30" x="190.869141"/>
      </g>
     </g>
    </g>
    <g id="ytick_2">
     <g id="line2d_27">
      <path d="M 43.25 236.208967 
L 982.876106 236.208967 
" clip-path="url(#p8a78150398)" style="fill: none; stroke-dasharray: 2.96,1.28; stroke-dashoffset: 0; stroke: #b0b0b0; stroke-width: 0.8"/>
     </g>
     <g id="line2d_28">
      <g>
       <use xlink:href="#ma0812719dd" x="43.25" y="236.208967" style="stroke: #000000; stroke-width: 0.8"/>
      </g>
     </g>
     <g id="text_2">
      <!-- 1500 -->
      <g transform="translate(10.8 240.008186)scale(0.1 -0.1)">
       <defs>
        <path id="DejaVuSans-35" d="M 691 4666 
L 3169 4666 
L 3169 4134 
L 1269 4134 
L 1269 2991 
Q 1406 3038 1543 3061 
Q 1681 3084 1819 3084 
Q 2600 3084 3056 2656 
Q 3513 2228 3513 1497 
Q 3513 744 3044 326 
Q 2575 -91 1722 -91 
Q 1428 -91 1123 -41 
Q 819 9 494 109 
L 494 744 
Q 775 591 1075 516 
Q 1375 441 1709 441 
Q 2250 441 2565 725 
Q 2881 1009 2881 1497 
Q 2881 1984 2565 2268 
Q 2250 2553 1709 2553 
Q 1456 2553 1204 2497 
Q 953 2441 691 2322 
L 691 4666 
z
" transform="scale(0.015625)"/>
       </defs>
       <use xlink:href="#DejaVuSans-31"/>
       <use xlink:href="#DejaVuSans-35" x="63.623047"/>
       <use xlink:href="#DejaVuSans-30" x="127.246094"/>
       <use xlink:href="#DejaVuSans-30" x="190.869141"/>
      </g>
     </g>
    </g>
    <g id="ytick_3">
     <g id="line2d_29">
      <path d="M 43.25 196.081652 
L 982.876106 196.081652 
" clip-path="url(#p8a78150398)" style="fill: none; stroke-dasharray: 2.96,1.28; stroke-dashoffset: 0; stroke: #b0b0b0; stroke-width: 0.8"/>
     </g>
     <g id="line2d_30">
      <g>
       <use xlink:href="#ma0812719dd" x="43.25" y="196.081652" style="stroke: #000000; stroke-width: 0.8"/>
      </g>
     </g>
     <g id="text_3">
      <!-- 1600 -->
      <g transform="translate(10.8 199.880871)scale(0.1 -0.1)">
       <defs>
        <path id="DejaVuSans-36" d="M 2113 2584 
Q 1688 2584 1439 2293 
Q 1191 2003 1191 1497 
Q 1191 994 1439 701 
Q 1688 409 2113 409 
Q 2538 409 2786 701 
Q 3034 994 3034 1497 
Q 3034 2003 2786 2293 
Q 2538 2584 2113 2584 
z
M 3366 4563 
L 3366 3988 
Q 3128 4100 2886 4159 
Q 2644 4219 2406 4219 
Q 1781 4219 1451 3797 
Q 1122 3375 1075 2522 
Q 1259 2794 1537 2939 
Q 1816 3084 2150 3084 
Q 2853 3084 3261 2657 
Q 3669 2231 3669 1497 
Q 3669 778 3244 343 
Q 2819 -91 2113 -91 
Q 1303 -91 875 529 
Q 447 1150 447 2328 
Q 447 3434 972 4092 
Q 1497 4750 2381 4750 
Q 2619 4750 2861 4703 
Q 3103 4656 3366 4563 
z
" transform="scale(0.015625)"/>
       </defs>
       <use xlink:href="#DejaVuSans-31"/>
       <use xlink:href="#DejaVuSans-36" x="63.623047"/>
       <use xlink:href="#DejaVuSans-30" x="127.246094"/>
       <use xlink:href="#DejaVuSans-30" x="190.869141"/>
      </g>
     </g>
    </g>
    <g id="ytick_4">
     <g id="line2d_31">
      <path d="M 43.25 155.954337 
L 982.876106 155.954337 
" clip-path="url(#p8a78150398)" style="fill: none; stroke-dasharray: 2.96,1.28; stroke-dashoffset: 0; stroke: #b0b0b0; stroke-width: 0.8"/>
     </g>
     <g id="line2d_32">
      <g>
       <use xlink:href="#ma0812719dd" x="43.25" y="155.954337" style="stroke: #000000; stroke-width: 0.8"/>
      </g>
     </g>
     <g id="text_4">
      <!-- 1700 -->
      <g transform="translate(10.8 159.753556)scale(0.1 -0.1)">
       <defs>
        <path id="DejaVuSans-37" d="M 525 4666 
L 3525 4666 
L 3525 4397 
L 1831 0 
L 1172 0 
L 2766 4134 
L 525 4134 
L 525 4666 
z
" transform="scale(0.015625)"/>
       </defs>
       <use xlink:href="#DejaVuSans-31"/>
       <use xlink:href="#DejaVuSans-37" x="63.623047"/>
       <use xlink:href="#DejaVuSans-30" x="127.246094"/>
       <use xlink:href="#DejaVuSans-30" x="190.869141"/>
      </g>
     </g>
    </g>
    <g id="ytick_5">
     <g id="line2d_33">
      <path d="M 43.25 115.827022 
L 982.876106 115.827022 
" clip-path="url(#p8a78150398)" style="fill: none; stroke-dasharray: 2.96,1.28; stroke-dashoffset: 0; stroke: #b0b0b0; stroke-width: 0.8"/>
     </g>
     <g id="line2d_34">
      <g>
       <use xlink:href="#ma0812719dd" x="43.25" y="115.827022" style="stroke: #000000; stroke-width: 0.8"/>
      </g>
     </g>
     <g id="text_5">
      <!-- 1800 -->
      <g transform="translate(10.8 119.626241)scale(0.1 -0.1)">
       <defs>
        <path id="DejaVuSans-38" d="M 2034 2216 
Q 1584 2216 1326 1975 
Q 1069 1734 1069 1313 
Q 1069 891 1326 650 
Q 1584 409 2034 409 
Q 2484 409 2743 651 
Q 3003 894 3003 1313 
Q 3003 1734 2745 1975 
Q 2488 2216 2034 2216 
z
M 1403 2484 
Q 997 2584 770 2862 
Q 544 3141 544 3541 
Q 544 4100 942 4425 
Q 1341 4750 2034 4750 
Q 2731 4750 3128 4425 
Q 3525 4100 3525 3541 
Q 3525 3141 3298 2862 
Q 3072 2584 2669 2484 
Q 3125 2378 3379 2068 
Q 3634 1759 3634 1313 
Q 3634 634 3220 271 
Q 2806 -91 2034 -91 
Q 1263 -91 848 271 
Q 434 634 434 1313 
Q 434 1759 690 2068 
Q 947 2378 1403 2484 
z
M 1172 3481 
Q 1172 3119 1398 2916 
Q 1625 2713 2034 2713 
Q 2441 2713 2670 2916 
Q 2900 3119 2900 3481 
Q 2900 3844 2670 4047 
Q 2441 4250 2034 4250 
Q 1625 4250 1398 4047 
Q 1172 3844 1172 3481 
z
" transform="scale(0.015625)"/>
       </defs>
       <use xlink:href="#DejaVuSans-31"/>
       <use xlink:href="#DejaVuSans-38" x="63.623047"/>
       <use xlink:href="#DejaVuSans-30" x="127.246094"/>
       <use xlink:href="#DejaVuSans-30" x="190.869141"/>
      </g>
     </g>
    </g>
    <g id="ytick_6">
     <g id="line2d_35">
      <path d="M 43.25 75.699707 
L 982.876106 75.699707 
" clip-path="url(#p8a78150398)" style="fill: none; stroke-dasharray: 2.96,1.28; stroke-dashoffset: 0; stroke: #b0b0b0; stroke-width: 0.8"/>
     </g>
     <g id="line2d_36">
      <g>
       <use xlink:href="#ma0812719dd" x="43.25" y="75.699707" style="stroke: #000000; stroke-width: 0.8"/>
      </g>
     </g>
     <g id="text_6">
      <!-- 1900 -->
      <g transform="translate(10.8 79.498926)scale(0.1 -0.1)">
       <defs>
        <path id="DejaVuSans-39" d="M 703 97 
L 703 672 
Q 941 559 1184 500 
Q 1428 441 1663 441 
Q 2288 441 2617 861 
Q 2947 1281 2994 2138 
Q 2813 1869 2534 1725 
Q 2256 1581 1919 1581 
Q 1219 1581 811 2004 
Q 403 2428 403 3163 
Q 403 3881 828 4315 
Q 1253 4750 1959 4750 
Q 2769 4750 3195 4129 
Q 3622 3509 3622 2328 
Q 3622 1225 3098 567 
Q 2575 -91 1691 -91 
Q 1453 -91 1209 -44 
Q 966 3 703 97 
z
M 1959 2075 
Q 2384 2075 2632 2365 
Q 2881 2656 2881 3163 
Q 2881 3666 2632 3958 
Q 2384 4250 1959 4250 
Q 1534 4250 1286 3958 
Q 1038 3666 1038 3163 
Q 1038 2656 1286 2365 
Q 1534 2075 1959 2075 
z
" transform="scale(0.015625)"/>
       </defs>
       <use xlink:href="#DejaVuSans-31"/>
       <use xlink:href="#DejaVuSans-39" x="63.623047"/>
       <use xlink:href="#DejaVuSans-30" x="127.246094"/>
       <use xlink:href="#DejaVuSans-30" x="190.869141"/>
      </g>
     </g>
    </g>
   </g>
   <g id="line2d_37">
    <path d="M 85.960278 76.32168 
L 88.638038 76.040789 
L 91.315798 97.910176 
L 93.993559 108.68436 
L 96.671319 110.088816 
L 104.7046 95.46241 
L 107.38236 93.516235 
L 110.060121 84.748417 
L 112.737881 76.983781 
L 115.415641 63.92234 
L 123.448922 59.849418 
L 126.126683 67.373289 
L 128.804443 88.921657 
L 131.482203 106.316848 
L 134.159964 121.565228 
L 142.193245 141.187485 
L 144.871005 147.066137 
L 150.226526 164.541583 
L 152.904286 161.491907 
L 160.937567 141.428249 
L 163.615328 127.042607 
L 166.293088 121.003446 
L 168.970848 140.485257 
L 171.648609 139.462011 
L 179.68189 149.93524 
L 182.35965 149.012312 
L 185.03741 140.986849 
L 187.715171 128.025726 
L 190.392931 147.387155 
L 198.426212 163.096999 
L 201.103972 140.605639 
L 203.781733 142.591941 
L 206.459493 146.002763 
L 209.137254 153.165489 
L 217.170535 143.635252 
L 219.848295 142.170605 
L 222.526055 138.759783 
L 225.203816 164.722156 
L 227.881576 158.121212 
L 235.914857 149.694476 
L 241.270378 154.830772 
L 243.948138 147.587792 
L 246.625898 146.604673 
L 254.659179 139.963602 
L 257.33694 124.574777 
L 260.0147 110.470026 
L 262.69246 105.434048 
L 265.370221 106.999013 
L 273.403502 79.431547 
L 276.081262 100.056987 
L 278.759023 79.953202 
L 281.436783 93.917508 
L 292.147824 94.539482 
L 294.825585 80.755749 
L 297.503345 86.774846 
L 300.181105 81.03664 
L 302.858866 85.109562 
L 310.892147 86.172936 
L 313.569907 81.317531 
L 316.247667 74.114678 
L 318.925428 72.950986 
L 321.603188 74.275187 
L 329.636469 82.541414 
L 332.314229 91.309233 
L 334.99199 104.250292 
L 337.66975 111.413018 
L 340.347511 109.968434 
L 348.380792 129.249609 
L 351.058552 138.920292 
L 353.736312 136.472526 
L 367.125114 187.494407 
L 369.802874 211.330032 
L 372.480635 201.017312 
L 375.158395 188.537717 
L 377.836155 201.920177 
L 385.869436 211.691178 
L 388.547197 203.705842 
L 391.224957 215.021745 
L 393.902717 203.063805 
L 396.580478 209.102966 
L 404.613759 219.756768 
L 409.96928 221.943707 
L 412.64704 202.040559 
L 415.3248 219.014413 
L 423.358081 207.979401 
L 426.035842 214.94149 
L 428.713602 225.474911 
L 431.391362 232.677764 
L 434.069123 234.443366 
L 442.102404 240.582845 
L 444.780164 228.805478 
L 447.457924 232.517254 
L 450.135685 265.441716 
L 452.813445 254.206068 
L 460.846726 248.889199 
L 463.524487 259.884083 
L 466.202247 272.142978 
L 468.880007 266.725791 
L 471.557768 251.718175 
L 479.591049 225.454847 
L 482.268809 234.764384 
L 484.946569 244.816277 
L 487.62433 232.998782 
L 490.30209 227.50134 
L 498.335371 224.150709 
L 501.013131 233.520437 
L 503.690892 236.208967 
L 506.368652 230.18987 
L 509.046412 245.518505 
L 517.079693 266.50509 
L 519.757454 260.064656 
L 522.435214 267.428019 
L 525.112974 277.459847 
L 527.790735 281.432452 
L 535.824016 270.658267 
L 538.501776 256.312752 
L 541.179537 261.388858 
L 543.857297 255.289506 
L 546.535057 259.843956 
L 554.568338 246.401305 
L 557.246099 244.174239 
L 559.923859 250.955756 
L 562.601619 251.497474 
L 565.27938 244.475194 
L 573.312661 241.024245 
L 575.990421 245.859587 
L 578.668181 239.559598 
L 581.345942 236.730623 
L 584.023702 230.41057 
L 592.056983 246.983152 
L 594.734744 260.847139 
L 597.412504 258.499691 
L 600.090264 264.759552 
L 602.768025 264.157642 
L 610.801306 240.261826 
L 613.479066 242.569147 
L 616.156826 230.069488 
L 618.834587 223.007081 
L 621.512347 233.680947 
L 629.545628 234.764384 
L 632.223388 255.811161 
L 634.901149 247.825825 
L 637.578909 229.226815 
L 640.256669 216.265692 
L 648.28995 215.723973 
L 650.967711 218.713458 
L 653.645471 209.684812 
L 656.323232 196.12178 
L 659.000992 189.400454 
L 667.034273 188.296953 
L 672.389794 195.098533 
L 675.067554 188.076253 
L 677.745314 198.449164 
L 688.456356 197.506172 
L 691.134116 193.573695 
L 693.811876 202.92336 
L 696.489637 197.245344 
L 704.522918 205.852654 
L 707.200678 219.194986 
L 709.878438 221.161224 
L 712.556199 228.92586 
L 715.233959 227.561531 
L 723.26724 251.557665 
L 725.945001 239.037943 
L 731.300521 250.574546 
L 733.978282 255.068806 
L 742.011563 251.738238 
L 744.689323 254.226132 
L 747.367083 253.202885 
L 750.044844 245.87965 
L 752.722604 231.534135 
L 760.755885 221.682879 
L 763.433645 218.171739 
L 766.111406 246.080287 
L 768.789166 263.174523 
L 771.466926 285.545501 
L 779.500207 280.228632 
L 782.177968 280.93086 
L 784.855728 285.465247 
L 787.533489 289.197087 
L 790.211249 290.20027 
L 798.24453 284.261427 
L 800.92229 278.924494 
L 803.600051 278.46303 
L 806.277811 276.878001 
L 808.955571 270.939159 
L 816.988852 278.84424 
L 819.666613 264.538852 
L 825.022133 254.206068 
L 827.699894 255.791097 
L 835.733175 251.19652 
L 838.410935 266.785982 
L 841.088695 264.819743 
L 843.766456 268.350947 
L 846.444216 246.541751 
L 854.477497 240.241763 
L 857.155258 234.724257 
L 859.833018 242.047492 
L 862.510778 235.847822 
L 865.188539 236.008331 
L 873.22182 229.046242 
L 875.89958 225.655484 
L 881.255101 226.598475 
L 883.932861 230.892098 
L 891.966142 221.101033 
L 894.643902 206.916027 
L 897.321663 214.821108 
L 899.999423 223.869818 
L 902.677183 230.591143 
L 910.710465 233.219482 
L 916.065985 231.714708 
L 918.743746 235.426485 
L 921.421506 208.07972 
L 929.454787 201.980368 
L 934.810308 194.958088 
L 937.488068 201.137694 
L 940.165828 198.730055 
L 940.165828 198.730055 
" clip-path="url(#p8a78150398)" style="fill: none; stroke: #1f77b4; stroke-width: 1.5; stroke-linecap: square"/>
   </g>
   <g id="line2d_38">
    <path d="M 96.671319 93.809164 
L 104.7046 97.63731 
L 107.38236 101.132399 
L 110.060121 98.500048 
L 112.737881 92.159932 
L 115.415641 82.926637 
L 123.448922 75.804038 
L 126.126683 70.575449 
L 128.804443 71.410097 
L 131.482203 77.276711 
L 134.159964 88.805288 
L 142.193245 105.072902 
L 144.871005 121.011471 
L 150.226526 136.135456 
L 152.904286 147.170468 
L 160.937567 151.143072 
L 163.615328 148.314096 
L 166.293088 143.101558 
L 168.970848 138.290293 
L 171.648609 133.884314 
L 179.68189 135.585712 
L 182.35965 139.979653 
L 185.03741 143.976334 
L 187.715171 141.484427 
L 190.392931 143.069456 
L 198.426212 145.701808 
L 201.103972 144.020474 
L 203.781733 144.341492 
L 206.459493 147.9369 
L 209.137254 149.092566 
L 217.170535 145.200217 
L 219.848295 145.51321 
L 222.526055 144.746778 
L 225.203816 148.490657 
L 227.881576 149.481801 
L 235.914857 150.693646 
L 241.270378 153.22568 
L 243.948138 154.991282 
L 246.625898 151.367785 
L 254.659179 147.736263 
L 257.33694 142.712323 
L 260.0147 133.840174 
L 262.69246 125.409425 
L 265.370221 117.488293 
L 273.403502 105.381882 
L 276.081262 100.478324 
L 278.759023 94.37496 
L 281.436783 92.071652 
L 292.147824 89.579745 
L 294.825585 89.844586 
L 297.503345 87.188157 
L 300.181105 87.404845 
L 302.858866 85.643256 
L 310.892147 83.969947 
L 313.569907 84.082303 
L 316.247667 81.55027 
L 318.925428 79.933139 
L 321.603188 77.766264 
L 329.636469 77.039959 
L 332.314229 79.0383 
L 334.99199 85.065422 
L 337.66975 92.757829 
L 340.347511 99.896478 
L 348.380792 109.238117 
L 351.058552 118.760329 
L 353.736312 125.204776 
L 367.125114 140.421054 
L 369.802874 160.693373 
L 372.480635 175.046914 
L 375.158395 184.970399 
L 377.836155 198.059929 
L 385.869436 202.899283 
L 388.547197 201.374445 
L 393.902717 207.080549 
L 396.580478 208.517107 
L 404.613759 210.130225 
L 409.96928 213.777798 
L 412.64704 211.181561 
L 415.3248 214.371683 
L 423.358081 214.14697 
L 426.035842 213.183914 
L 428.713602 213.890155 
L 431.391362 220.017596 
L 434.069123 223.103386 
L 442.102404 229.624075 
L 444.780164 232.396872 
L 447.457924 233.805341 
L 450.135685 240.358132 
L 452.813445 244.310672 
L 460.846726 245.971943 
L 463.524487 252.187664 
L 466.202247 260.112809 
L 468.880007 260.369624 
L 471.557768 259.872045 
L 479.591049 255.185175 
L 482.268809 250.161235 
L 484.946569 244.695895 
L 487.62433 237.950493 
L 490.30209 233.107126 
L 498.335371 232.846298 
L 501.013131 232.597509 
L 503.690892 230.876047 
L 506.368652 230.314265 
L 509.046412 233.917698 
L 517.079693 242.388574 
L 519.757454 247.697418 
L 522.435214 253.941228 
L 525.112974 263.395223 
L 527.790735 270.578013 
L 535.824016 271.408648 
L 538.501776 270.658267 
L 541.179537 269.450435 
L 546.535057 260.698668 
L 554.568338 255.847275 
L 557.246099 253.419573 
L 559.923859 251.332952 
L 562.601619 250.574546 
L 565.27938 247.500794 
L 573.312661 246.425382 
L 575.990421 246.762451 
L 578.668181 244.48322 
L 584.023702 238.716925 
L 592.056983 239.908706 
L 594.734744 242.906216 
L 597.412504 246.694235 
L 600.090264 252.300021 
L 602.768025 259.049435 
L 610.801306 257.70517 
L 613.479066 254.049572 
L 616.156826 248.363531 
L 618.834587 240.013037 
L 621.512347 233.917698 
L 629.545628 232.818209 
L 632.223388 235.466612 
L 634.901149 239.017879 
L 637.578909 240.261826 
L 640.256669 236.778775 
L 648.28995 232.970693 
L 653.645471 217.92295 
L 656.323232 211.301943 
L 659.000992 205.928895 
L 667.034273 200.443491 
L 672.389794 195.720507 
L 675.067554 191.398795 
L 677.745314 191.864272 
L 688.456356 193.485415 
L 691.134116 194.540763 
L 693.811876 196.105729 
L 696.489637 197.939547 
L 704.522918 199.420245 
L 707.200678 203.758008 
L 709.878438 209.275514 
L 712.556199 214.476014 
L 715.233959 220.539251 
L 723.26724 229.680253 
L 725.945001 233.648845 
L 731.300521 239.531509 
L 733.978282 244.760098 
L 742.011563 249.59544 
L 744.689323 250.129133 
L 747.367083 252.962121 
L 750.044844 252.023142 
L 752.722604 247.316208 
L 760.755885 241.305136 
L 763.433645 234.094258 
L 766.111406 232.669738 
L 768.789166 236.128713 
L 771.466926 246.930986 
L 779.500207 258.640137 
L 782.177968 271.191961 
L 784.855728 279.068953 
L 787.533489 284.273465 
L 790.211249 285.204419 
L 798.24453 286.010978 
L 800.92229 285.609705 
L 803.600051 284.209262 
L 806.277811 281.745445 
L 808.955571 277.893222 
L 816.988852 276.809785 
L 819.666613 273.932656 
L 825.022133 269.081264 
L 827.699894 264.863883 
L 835.733175 260.915355 
L 838.410935 258.503704 
L 841.088695 258.559882 
L 843.766456 261.388858 
L 846.444216 259.538988 
L 854.477497 257.348037 
L 857.155258 250.935692 
L 859.833018 246.381242 
L 862.510778 239.880617 
L 865.188539 237.773933 
L 873.22182 235.534829 
L 875.89958 233.721074 
L 881.255101 230.631271 
L 891.966142 226.658666 
L 894.643902 222.232624 
L 897.321663 220.065749 
L 899.999423 219.520017 
L 902.677183 219.459826 
L 910.710465 221.883516 
L 916.065985 226.843252 
L 918.743746 230.964327 
L 921.421506 227.806308 
L 929.454787 222.084153 
L 932.132547 215.138114 
L 934.810308 207.78679 
L 937.488068 200.929032 
L 940.165828 199.059099 
L 940.165828 199.059099 
" clip-path="url(#p8a78150398)" style="fill: none; stroke: #ff7f0e; stroke-width: 1.5; stroke-linecap: square"/>
   </g>
   <g id="patch_3">
    <path d="M 43.25 301.717813 
L 43.25 48.331875 
" style="fill: none; stroke: #000000; stroke-width: 0.8; stroke-linejoin: miter; stroke-linecap: square"/>
   </g>
   <g id="patch_4">
    <path d="M 982.876106 301.717813 
L 982.876106 48.331875 
" style="fill: none; stroke: #000000; stroke-width: 0.8; stroke-linejoin: miter; stroke-linecap: square"/>
   </g>
   <g id="patch_5">
    <path d="M 43.25 301.717812 
L 982.876106 301.717812 
" style="fill: none; stroke: #000000; stroke-width: 0.8; stroke-linejoin: miter; stroke-linecap: square"/>
   </g>
   <g id="patch_6">
    <path d="M 43.25 48.331875 
L 982.876106 48.331875 
" style="fill: none; stroke: #000000; stroke-width: 0.8; stroke-linejoin: miter; stroke-linecap: square"/>
   </g>
   <g id="text_7">
    <!-- Closing Price -->
    <g transform="translate(474.587115 42.331875)scale(0.12 -0.12)">
     <defs>
      <path id="DejaVuSans-43" d="M 4122 4306 
L 4122 3641 
Q 3803 3938 3442 4084 
Q 3081 4231 2675 4231 
Q 1875 4231 1450 3742 
Q 1025 3253 1025 2328 
Q 1025 1406 1450 917 
Q 1875 428 2675 428 
Q 3081 428 3442 575 
Q 3803 722 4122 1019 
L 4122 359 
Q 3791 134 3420 21 
Q 3050 -91 2638 -91 
Q 1578 -91 968 557 
Q 359 1206 359 2328 
Q 359 3453 968 4101 
Q 1578 4750 2638 4750 
Q 3056 4750 3426 4639 
Q 3797 4528 4122 4306 
z
" transform="scale(0.015625)"/>
      <path id="DejaVuSans-6c" d="M 603 4863 
L 1178 4863 
L 1178 0 
L 603 0 
L 603 4863 
z
" transform="scale(0.015625)"/>
      <path id="DejaVuSans-6f" d="M 1959 3097 
Q 1497 3097 1228 2736 
Q 959 2375 959 1747 
Q 959 1119 1226 758 
Q 1494 397 1959 397 
Q 2419 397 2687 759 
Q 2956 1122 2956 1747 
Q 2956 2369 2687 2733 
Q 2419 3097 1959 3097 
z
M 1959 3584 
Q 2709 3584 3137 3096 
Q 3566 2609 3566 1747 
Q 3566 888 3137 398 
Q 2709 -91 1959 -91 
Q 1206 -91 779 398 
Q 353 888 353 1747 
Q 353 2609 779 3096 
Q 1206 3584 1959 3584 
z
" transform="scale(0.015625)"/>
      <path id="DejaVuSans-73" d="M 2834 3397 
L 2834 2853 
Q 2591 2978 2328 3040 
Q 2066 3103 1784 3103 
Q 1356 3103 1142 2972 
Q 928 2841 928 2578 
Q 928 2378 1081 2264 
Q 1234 2150 1697 2047 
L 1894 2003 
Q 2506 1872 2764 1633 
Q 3022 1394 3022 966 
Q 3022 478 2636 193 
Q 2250 -91 1575 -91 
Q 1294 -91 989 -36 
Q 684 19 347 128 
L 347 722 
Q 666 556 975 473 
Q 1284 391 1588 391 
Q 1994 391 2212 530 
Q 2431 669 2431 922 
Q 2431 1156 2273 1281 
Q 2116 1406 1581 1522 
L 1381 1569 
Q 847 1681 609 1914 
Q 372 2147 372 2553 
Q 372 3047 722 3315 
Q 1072 3584 1716 3584 
Q 2034 3584 2315 3537 
Q 2597 3491 2834 3397 
z
" transform="scale(0.015625)"/>
      <path id="DejaVuSans-69" d="M 603 3500 
L 1178 3500 
L 1178 0 
L 603 0 
L 603 3500 
z
M 603 4863 
L 1178 4863 
L 1178 4134 
L 603 4134 
L 603 4863 
z
" transform="scale(0.015625)"/>
      <path id="DejaVuSans-6e" d="M 3513 2113 
L 3513 0 
L 2938 0 
L 2938 2094 
Q 2938 2591 2744 2837 
Q 2550 3084 2163 3084 
Q 1697 3084 1428 2787 
Q 1159 2491 1159 1978 
L 1159 0 
L 581 0 
L 581 3500 
L 1159 3500 
L 1159 2956 
Q 1366 3272 1645 3428 
Q 1925 3584 2291 3584 
Q 2894 3584 3203 3211 
Q 3513 2838 3513 2113 
z
" transform="scale(0.015625)"/>
      <path id="DejaVuSans-67" d="M 2906 1791 
Q 2906 2416 2648 2759 
Q 2391 3103 1925 3103 
Q 1463 3103 1205 2759 
Q 947 2416 947 1791 
Q 947 1169 1205 825 
Q 1463 481 1925 481 
Q 2391 481 2648 825 
Q 2906 1169 2906 1791 
z
M 3481 434 
Q 3481 -459 3084 -895 
Q 2688 -1331 1869 -1331 
Q 1566 -1331 1297 -1286 
Q 1028 -1241 775 -1147 
L 775 -588 
Q 1028 -725 1275 -790 
Q 1522 -856 1778 -856 
Q 2344 -856 2625 -561 
Q 2906 -266 2906 331 
L 2906 616 
Q 2728 306 2450 153 
Q 2172 0 1784 0 
Q 1141 0 747 490 
Q 353 981 353 1791 
Q 353 2603 747 3093 
Q 1141 3584 1784 3584 
Q 2172 3584 2450 3431 
Q 2728 3278 2906 2969 
L 2906 3500 
L 3481 3500 
L 3481 434 
z
" transform="scale(0.015625)"/>
      <path id="DejaVuSans-20" transform="scale(0.015625)"/>
      <path id="DejaVuSans-50" d="M 1259 4147 
L 1259 2394 
L 2053 2394 
Q 2494 2394 2734 2622 
Q 2975 2850 2975 3272 
Q 2975 3691 2734 3919 
Q 2494 4147 2053 4147 
L 1259 4147 
z
M 628 4666 
L 2053 4666 
Q 2838 4666 3239 4311 
Q 3641 3956 3641 3272 
Q 3641 2581 3239 2228 
Q 2838 1875 2053 1875 
L 1259 1875 
L 1259 0 
L 628 0 
L 628 4666 
z
" transform="scale(0.015625)"/>
      <path id="DejaVuSans-72" d="M 2631 2963 
Q 2534 3019 2420 3045 
Q 2306 3072 2169 3072 
Q 1681 3072 1420 2755 
Q 1159 2438 1159 1844 
L 1159 0 
L 581 0 
L 581 3500 
L 1159 3500 
L 1159 2956 
Q 1341 3275 1631 3429 
Q 1922 3584 2338 3584 
Q 2397 3584 2469 3576 
Q 2541 3569 2628 3553 
L 2631 2963 
z
" transform="scale(0.015625)"/>
      <path id="DejaVuSans-63" d="M 3122 3366 
L 3122 2828 
Q 2878 2963 2633 3030 
Q 2388 3097 2138 3097 
Q 1578 3097 1268 2742 
Q 959 2388 959 1747 
Q 959 1106 1268 751 
Q 1578 397 2138 397 
Q 2388 397 2633 464 
Q 2878 531 3122 666 
L 3122 134 
Q 2881 22 2623 -34 
Q 2366 -91 2075 -91 
Q 1284 -91 818 406 
Q 353 903 353 1747 
Q 353 2603 823 3093 
Q 1294 3584 2113 3584 
Q 2378 3584 2631 3529 
Q 2884 3475 3122 3366 
z
" transform="scale(0.015625)"/>
      <path id="DejaVuSans-65" d="M 3597 1894 
L 3597 1613 
L 953 1613 
Q 991 1019 1311 708 
Q 1631 397 2203 397 
Q 2534 397 2845 478 
Q 3156 559 3463 722 
L 3463 178 
Q 3153 47 2828 -22 
Q 2503 -91 2169 -91 
Q 1331 -91 842 396 
Q 353 884 353 1716 
Q 353 2575 817 3079 
Q 1281 3584 2069 3584 
Q 2775 3584 3186 3129 
Q 3597 2675 3597 1894 
z
M 3022 2063 
Q 3016 2534 2758 2815 
Q 2500 3097 2075 3097 
Q 1594 3097 1305 2825 
Q 1016 2553 972 2059 
L 3022 2063 
z
" transform="scale(0.015625)"/>
     </defs>
     <use xlink:href="#DejaVuSans-43"/>
     <use xlink:href="#DejaVuSans-6c" x="69.824219"/>
     <use xlink:href="#DejaVuSans-6f" x="97.607422"/>
     <use xlink:href="#DejaVuSans-73" x="158.789062"/>
     <use xlink:href="#DejaVuSans-69" x="210.888672"/>
     <use xlink:href="#DejaVuSans-6e" x="238.671875"/>
     <use xlink:href="#DejaVuSans-67" x="302.050781"/>
     <use xlink:href="#DejaVuSans-20" x="365.527344"/>
     <use xlink:href="#DejaVuSans-50" x="397.314453"/>
     <use xlink:href="#DejaVuSans-72" x="455.867188"/>
     <use xlink:href="#DejaVuSans-69" x="496.980469"/>
     <use xlink:href="#DejaVuSans-63" x="524.763672"/>
     <use xlink:href="#DejaVuSans-65" x="579.744141"/>
    </g>
   </g>
   <g id="legend_1">
    <g id="patch_7">
     <path d="M 911.144856 85.688125 
L 975.876106 85.688125 
Q 977.876106 85.688125 977.876106 83.688125 
L 977.876106 55.331875 
Q 977.876106 53.331875 975.876106 53.331875 
L 911.144856 53.331875 
Q 909.144856 53.331875 909.144856 55.331875 
L 909.144856 83.688125 
Q 909.144856 85.688125 911.144856 85.688125 
z
" style="fill: #ffffff; opacity: 0.8; stroke: #cccccc; stroke-linejoin: miter"/>
    </g>
    <g id="line2d_39">
     <path d="M 913.144856 61.430312 
L 923.144856 61.430312 
L 933.144856 61.430312 
" style="fill: none; stroke: #1f77b4; stroke-width: 1.5; stroke-linecap: square"/>
    </g>
    <g id="text_8">
     <!-- CLOSE -->
     <g transform="translate(941.144856 64.930312)scale(0.1 -0.1)">
      <defs>
       <path id="DejaVuSans-4c" d="M 628 4666 
L 1259 4666 
L 1259 531 
L 3531 531 
L 3531 0 
L 628 0 
L 628 4666 
z
" transform="scale(0.015625)"/>
       <path id="DejaVuSans-4f" d="M 2522 4238 
Q 1834 4238 1429 3725 
Q 1025 3213 1025 2328 
Q 1025 1447 1429 934 
Q 1834 422 2522 422 
Q 3209 422 3611 934 
Q 4013 1447 4013 2328 
Q 4013 3213 3611 3725 
Q 3209 4238 2522 4238 
z
M 2522 4750 
Q 3503 4750 4090 4092 
Q 4678 3434 4678 2328 
Q 4678 1225 4090 567 
Q 3503 -91 2522 -91 
Q 1538 -91 948 565 
Q 359 1222 359 2328 
Q 359 3434 948 4092 
Q 1538 4750 2522 4750 
z
" transform="scale(0.015625)"/>
       <path id="DejaVuSans-53" d="M 3425 4513 
L 3425 3897 
Q 3066 4069 2747 4153 
Q 2428 4238 2131 4238 
Q 1616 4238 1336 4038 
Q 1056 3838 1056 3469 
Q 1056 3159 1242 3001 
Q 1428 2844 1947 2747 
L 2328 2669 
Q 3034 2534 3370 2195 
Q 3706 1856 3706 1288 
Q 3706 609 3251 259 
Q 2797 -91 1919 -91 
Q 1588 -91 1214 -16 
Q 841 59 441 206 
L 441 856 
Q 825 641 1194 531 
Q 1563 422 1919 422 
Q 2459 422 2753 634 
Q 3047 847 3047 1241 
Q 3047 1584 2836 1778 
Q 2625 1972 2144 2069 
L 1759 2144 
Q 1053 2284 737 2584 
Q 422 2884 422 3419 
Q 422 4038 858 4394 
Q 1294 4750 2059 4750 
Q 2388 4750 2728 4690 
Q 3069 4631 3425 4513 
z
" transform="scale(0.015625)"/>
       <path id="DejaVuSans-45" d="M 628 4666 
L 3578 4666 
L 3578 4134 
L 1259 4134 
L 1259 2753 
L 3481 2753 
L 3481 2222 
L 1259 2222 
L 1259 531 
L 3634 531 
L 3634 0 
L 628 0 
L 628 4666 
z
" transform="scale(0.015625)"/>
      </defs>
      <use xlink:href="#DejaVuSans-43"/>
      <use xlink:href="#DejaVuSans-4c" x="69.824219"/>
      <use xlink:href="#DejaVuSans-4f" x="121.912109"/>
      <use xlink:href="#DejaVuSans-53" x="200.623047"/>
      <use xlink:href="#DejaVuSans-45" x="264.099609"/>
     </g>
    </g>
    <g id="line2d_40">
     <path d="M 913.144856 76.108437 
L 923.144856 76.108437 
L 933.144856 76.108437 
" style="fill: none; stroke: #ff7f0e; stroke-width: 1.5; stroke-linecap: square"/>
    </g>
    <g id="text_9">
     <!-- SMA5 -->
     <g transform="translate(941.144856 79.608437)scale(0.1 -0.1)">
      <defs>
       <path id="DejaVuSans-4d" d="M 628 4666 
L 1569 4666 
L 2759 1491 
L 3956 4666 
L 4897 4666 
L 4897 0 
L 4281 0 
L 4281 4097 
L 3078 897 
L 2444 897 
L 1241 4097 
L 1241 0 
L 628 0 
L 628 4666 
z
" transform="scale(0.015625)"/>
       <path id="DejaVuSans-41" d="M 2188 4044 
L 1331 1722 
L 3047 1722 
L 2188 4044 
z
M 1831 4666 
L 2547 4666 
L 4325 0 
L 3669 0 
L 3244 1197 
L 1141 1197 
L 716 0 
L 50 0 
L 1831 4666 
z
" transform="scale(0.015625)"/>
      </defs>
      <use xlink:href="#DejaVuSans-53"/>
      <use xlink:href="#DejaVuSans-4d" x="63.476562"/>
      <use xlink:href="#DejaVuSans-41" x="149.755859"/>
      <use xlink:href="#DejaVuSans-35" x="218.164062"/>
     </g>
    </g>
   </g>
  </g>
  <g id="axes_2">
   <g id="patch_8">
    <path d="M 43.25 584.521875 
L 982.876106 584.521875 
L 982.876106 331.135938 
L 43.25 331.135938 
z
" style="fill: #ffffff"/>
   </g>
   <g id="matplotlib.axis_3">
    <g id="xtick_13">
     <g id="line2d_41">
      <path d="M 80.604757 584.521875 
L 80.604757 331.135938 
" clip-path="url(#p8c41a23716)" style="fill: none; stroke-dasharray: 2.96,1.28; stroke-dashoffset: 0; stroke: #b0b0b0; stroke-width: 0.8"/>
     </g>
     <g id="line2d_42">
      <g>
       <use xlink:href="#ma63d3a2ef1" x="80.604757" y="584.521875" style="stroke: #000000; stroke-width: 0.8"/>
      </g>
     </g>
     <g id="text_10">
      <!-- 2022-01 -->
      <g transform="translate(59.713351 599.120312)scale(0.1 -0.1)">
       <defs>
        <path id="DejaVuSans-32" d="M 1228 531 
L 3431 531 
L 3431 0 
L 469 0 
L 469 531 
Q 828 903 1448 1529 
Q 2069 2156 2228 2338 
Q 2531 2678 2651 2914 
Q 2772 3150 2772 3378 
Q 2772 3750 2511 3984 
Q 2250 4219 1831 4219 
Q 1534 4219 1204 4116 
Q 875 4013 500 3803 
L 500 4441 
Q 881 4594 1212 4672 
Q 1544 4750 1819 4750 
Q 2544 4750 2975 4387 
Q 3406 4025 3406 3419 
Q 3406 3131 3298 2873 
Q 3191 2616 2906 2266 
Q 2828 2175 2409 1742 
Q 1991 1309 1228 531 
z
" transform="scale(0.015625)"/>
        <path id="DejaVuSans-2d" d="M 313 2009 
L 1997 2009 
L 1997 1497 
L 313 1497 
L 313 2009 
z
" transform="scale(0.015625)"/>
       </defs>
       <use xlink:href="#DejaVuSans-32"/>
       <use xlink:href="#DejaVuSans-30" x="63.623047"/>
       <use xlink:href="#DejaVuSans-32" x="127.246094"/>
       <use xlink:href="#DejaVuSans-32" x="190.869141"/>
       <use xlink:href="#DejaVuSans-2d" x="254.492188"/>
       <use xlink:href="#DejaVuSans-30" x="290.576172"/>
       <use xlink:href="#DejaVuSans-31" x="354.199219"/>
      </g>
     </g>
    </g>
    <g id="xtick_14">
     <g id="line2d_43">
      <path d="M 163.615328 584.521875 
L 163.615328 331.135938 
" clip-path="url(#p8c41a23716)" style="fill: none; stroke-dasharray: 2.96,1.28; stroke-dashoffset: 0; stroke: #b0b0b0; stroke-width: 0.8"/>
     </g>
     <g id="line2d_44">
      <g>
       <use xlink:href="#ma63d3a2ef1" x="163.615328" y="584.521875" style="stroke: #000000; stroke-width: 0.8"/>
      </g>
     </g>
     <g id="text_11">
      <!-- 2022-02 -->
      <g transform="translate(142.723921 599.120312)scale(0.1 -0.1)">
       <use xlink:href="#DejaVuSans-32"/>
       <use xlink:href="#DejaVuSans-30" x="63.623047"/>
       <use xlink:href="#DejaVuSans-32" x="127.246094"/>
       <use xlink:href="#DejaVuSans-32" x="190.869141"/>
       <use xlink:href="#DejaVuSans-2d" x="254.492188"/>
       <use xlink:href="#DejaVuSans-30" x="290.576172"/>
       <use xlink:href="#DejaVuSans-32" x="354.199219"/>
      </g>
     </g>
    </g>
    <g id="xtick_15">
     <g id="line2d_45">
      <path d="M 238.592617 584.521875 
L 238.592617 331.135938 
" clip-path="url(#p8c41a23716)" style="fill: none; stroke-dasharray: 2.96,1.28; stroke-dashoffset: 0; stroke: #b0b0b0; stroke-width: 0.8"/>
     </g>
     <g id="line2d_46">
      <g>
       <use xlink:href="#ma63d3a2ef1" x="238.592617" y="584.521875" style="stroke: #000000; stroke-width: 0.8"/>
      </g>
     </g>
     <g id="text_12">
      <!-- 2022-03 -->
      <g transform="translate(217.701211 599.120312)scale(0.1 -0.1)">
       <defs>
        <path id="DejaVuSans-33" d="M 2597 2516 
Q 3050 2419 3304 2112 
Q 3559 1806 3559 1356 
Q 3559 666 3084 287 
Q 2609 -91 1734 -91 
Q 1441 -91 1130 -33 
Q 819 25 488 141 
L 488 750 
Q 750 597 1062 519 
Q 1375 441 1716 441 
Q 2309 441 2620 675 
Q 2931 909 2931 1356 
Q 2931 1769 2642 2001 
Q 2353 2234 1838 2234 
L 1294 2234 
L 1294 2753 
L 1863 2753 
Q 2328 2753 2575 2939 
Q 2822 3125 2822 3475 
Q 2822 3834 2567 4026 
Q 2313 4219 1838 4219 
Q 1578 4219 1281 4162 
Q 984 4106 628 3988 
L 628 4550 
Q 988 4650 1302 4700 
Q 1616 4750 1894 4750 
Q 2613 4750 3031 4423 
Q 3450 4097 3450 3541 
Q 3450 3153 3228 2886 
Q 3006 2619 2597 2516 
z
" transform="scale(0.015625)"/>
       </defs>
       <use xlink:href="#DejaVuSans-32"/>
       <use xlink:href="#DejaVuSans-30" x="63.623047"/>
       <use xlink:href="#DejaVuSans-32" x="127.246094"/>
       <use xlink:href="#DejaVuSans-32" x="190.869141"/>
       <use xlink:href="#DejaVuSans-2d" x="254.492188"/>
       <use xlink:href="#DejaVuSans-30" x="290.576172"/>
       <use xlink:href="#DejaVuSans-33" x="354.199219"/>
      </g>
     </g>
    </g>
    <g id="xtick_16">
     <g id="line2d_47">
      <path d="M 321.603188 584.521875 
L 321.603188 331.135938 
" clip-path="url(#p8c41a23716)" style="fill: none; stroke-dasharray: 2.96,1.28; stroke-dashoffset: 0; stroke: #b0b0b0; stroke-width: 0.8"/>
     </g>
     <g id="line2d_48">
      <g>
       <use xlink:href="#ma63d3a2ef1" x="321.603188" y="584.521875" style="stroke: #000000; stroke-width: 0.8"/>
      </g>
     </g>
     <g id="text_13">
      <!-- 2022-04 -->
      <g transform="translate(300.711782 599.120312)scale(0.1 -0.1)">
       <use xlink:href="#DejaVuSans-32"/>
       <use xlink:href="#DejaVuSans-30" x="63.623047"/>
       <use xlink:href="#DejaVuSans-32" x="127.246094"/>
       <use xlink:href="#DejaVuSans-32" x="190.869141"/>
       <use xlink:href="#DejaVuSans-2d" x="254.492188"/>
       <use xlink:href="#DejaVuSans-30" x="290.576172"/>
       <use xlink:href="#DejaVuSans-34" x="354.199219"/>
      </g>
     </g>
    </g>
    <g id="xtick_17">
     <g id="line2d_49">
      <path d="M 401.935999 584.521875 
L 401.935999 331.135938 
" clip-path="url(#p8c41a23716)" style="fill: none; stroke-dasharray: 2.96,1.28; stroke-dashoffset: 0; stroke: #b0b0b0; stroke-width: 0.8"/>
     </g>
     <g id="line2d_50">
      <g>
       <use xlink:href="#ma63d3a2ef1" x="401.935999" y="584.521875" style="stroke: #000000; stroke-width: 0.8"/>
      </g>
     </g>
     <g id="text_14">
      <!-- 2022-05 -->
      <g transform="translate(381.044592 599.120312)scale(0.1 -0.1)">
       <use xlink:href="#DejaVuSans-32"/>
       <use xlink:href="#DejaVuSans-30" x="63.623047"/>
       <use xlink:href="#DejaVuSans-32" x="127.246094"/>
       <use xlink:href="#DejaVuSans-32" x="190.869141"/>
       <use xlink:href="#DejaVuSans-2d" x="254.492188"/>
       <use xlink:href="#DejaVuSans-30" x="290.576172"/>
       <use xlink:href="#DejaVuSans-35" x="354.199219"/>
      </g>
     </g>
    </g>
    <g id="xtick_18">
     <g id="line2d_51">
      <path d="M 484.946569 584.521875 
L 484.946569 331.135938 
" clip-path="url(#p8c41a23716)" style="fill: none; stroke-dasharray: 2.96,1.28; stroke-dashoffset: 0; stroke: #b0b0b0; stroke-width: 0.8"/>
     </g>
     <g id="line2d_52">
      <g>
       <use xlink:href="#ma63d3a2ef1" x="484.946569" y="584.521875" style="stroke: #000000; stroke-width: 0.8"/>
      </g>
     </g>
     <g id="text_15">
      <!-- 2022-06 -->
      <g transform="translate(464.055163 599.120312)scale(0.1 -0.1)">
       <use xlink:href="#DejaVuSans-32"/>
       <use xlink:href="#DejaVuSans-30" x="63.623047"/>
       <use xlink:href="#DejaVuSans-32" x="127.246094"/>
       <use xlink:href="#DejaVuSans-32" x="190.869141"/>
       <use xlink:href="#DejaVuSans-2d" x="254.492188"/>
       <use xlink:href="#DejaVuSans-30" x="290.576172"/>
       <use xlink:href="#DejaVuSans-36" x="354.199219"/>
      </g>
     </g>
    </g>
    <g id="xtick_19">
     <g id="line2d_53">
      <path d="M 565.27938 584.521875 
L 565.27938 331.135938 
" clip-path="url(#p8c41a23716)" style="fill: none; stroke-dasharray: 2.96,1.28; stroke-dashoffset: 0; stroke: #b0b0b0; stroke-width: 0.8"/>
     </g>
     <g id="line2d_54">
      <g>
       <use xlink:href="#ma63d3a2ef1" x="565.27938" y="584.521875" style="stroke: #000000; stroke-width: 0.8"/>
      </g>
     </g>
     <g id="text_16">
      <!-- 2022-07 -->
      <g transform="translate(544.387973 599.120312)scale(0.1 -0.1)">
       <use xlink:href="#DejaVuSans-32"/>
       <use xlink:href="#DejaVuSans-30" x="63.623047"/>
       <use xlink:href="#DejaVuSans-32" x="127.246094"/>
       <use xlink:href="#DejaVuSans-32" x="190.869141"/>
       <use xlink:href="#DejaVuSans-2d" x="254.492188"/>
       <use xlink:href="#DejaVuSans-30" x="290.576172"/>
       <use xlink:href="#DejaVuSans-37" x="354.199219"/>
      </g>
     </g>
    </g>
    <g id="xtick_20">
     <g id="line2d_55">
      <path d="M 648.28995 584.521875 
L 648.28995 331.135938 
" clip-path="url(#p8c41a23716)" style="fill: none; stroke-dasharray: 2.96,1.28; stroke-dashoffset: 0; stroke: #b0b0b0; stroke-width: 0.8"/>
     </g>
     <g id="line2d_56">
      <g>
       <use xlink:href="#ma63d3a2ef1" x="648.28995" y="584.521875" style="stroke: #000000; stroke-width: 0.8"/>
      </g>
     </g>
     <g id="text_17">
      <!-- 2022-08 -->
      <g transform="translate(627.398544 599.120312)scale(0.1 -0.1)">
       <use xlink:href="#DejaVuSans-32"/>
       <use xlink:href="#DejaVuSans-30" x="63.623047"/>
       <use xlink:href="#DejaVuSans-32" x="127.246094"/>
       <use xlink:href="#DejaVuSans-32" x="190.869141"/>
       <use xlink:href="#DejaVuSans-2d" x="254.492188"/>
       <use xlink:href="#DejaVuSans-30" x="290.576172"/>
       <use xlink:href="#DejaVuSans-38" x="354.199219"/>
      </g>
     </g>
    </g>
    <g id="xtick_21">
     <g id="line2d_57">
      <path d="M 731.300521 584.521875 
L 731.300521 331.135938 
" clip-path="url(#p8c41a23716)" style="fill: none; stroke-dasharray: 2.96,1.28; stroke-dashoffset: 0; stroke: #b0b0b0; stroke-width: 0.8"/>
     </g>
     <g id="line2d_58">
      <g>
       <use xlink:href="#ma63d3a2ef1" x="731.300521" y="584.521875" style="stroke: #000000; stroke-width: 0.8"/>
      </g>
     </g>
     <g id="text_18">
      <!-- 2022-09 -->
      <g transform="translate(710.409115 599.120312)scale(0.1 -0.1)">
       <use xlink:href="#DejaVuSans-32"/>
       <use xlink:href="#DejaVuSans-30" x="63.623047"/>
       <use xlink:href="#DejaVuSans-32" x="127.246094"/>
       <use xlink:href="#DejaVuSans-32" x="190.869141"/>
       <use xlink:href="#DejaVuSans-2d" x="254.492188"/>
       <use xlink:href="#DejaVuSans-30" x="290.576172"/>
       <use xlink:href="#DejaVuSans-39" x="354.199219"/>
      </g>
     </g>
    </g>
    <g id="xtick_22">
     <g id="line2d_59">
      <path d="M 811.633332 584.521875 
L 811.633332 331.135938 
" clip-path="url(#p8c41a23716)" style="fill: none; stroke-dasharray: 2.96,1.28; stroke-dashoffset: 0; stroke: #b0b0b0; stroke-width: 0.8"/>
     </g>
     <g id="line2d_60">
      <g>
       <use xlink:href="#ma63d3a2ef1" x="811.633332" y="584.521875" style="stroke: #000000; stroke-width: 0.8"/>
      </g>
     </g>
     <g id="text_19">
      <!-- 2022-10 -->
      <g transform="translate(790.741925 599.120312)scale(0.1 -0.1)">
       <use xlink:href="#DejaVuSans-32"/>
       <use xlink:href="#DejaVuSans-30" x="63.623047"/>
       <use xlink:href="#DejaVuSans-32" x="127.246094"/>
       <use xlink:href="#DejaVuSans-32" x="190.869141"/>
       <use xlink:href="#DejaVuSans-2d" x="254.492188"/>
       <use xlink:href="#DejaVuSans-31" x="290.576172"/>
       <use xlink:href="#DejaVuSans-30" x="354.199219"/>
      </g>
     </g>
    </g>
    <g id="xtick_23">
     <g id="line2d_61">
      <path d="M 894.643902 584.521875 
L 894.643902 331.135938 
" clip-path="url(#p8c41a23716)" style="fill: none; stroke-dasharray: 2.96,1.28; stroke-dashoffset: 0; stroke: #b0b0b0; stroke-width: 0.8"/>
     </g>
     <g id="line2d_62">
      <g>
       <use xlink:href="#ma63d3a2ef1" x="894.643902" y="584.521875" style="stroke: #000000; stroke-width: 0.8"/>
      </g>
     </g>
     <g id="text_20">
      <!-- 2022-11 -->
      <g transform="translate(873.752496 599.120312)scale(0.1 -0.1)">
       <use xlink:href="#DejaVuSans-32"/>
       <use xlink:href="#DejaVuSans-30" x="63.623047"/>
       <use xlink:href="#DejaVuSans-32" x="127.246094"/>
       <use xlink:href="#DejaVuSans-32" x="190.869141"/>
       <use xlink:href="#DejaVuSans-2d" x="254.492188"/>
       <use xlink:href="#DejaVuSans-31" x="290.576172"/>
       <use xlink:href="#DejaVuSans-31" x="354.199219"/>
      </g>
     </g>
    </g>
    <g id="xtick_24">
     <g id="line2d_63">
      <path d="M 974.976713 584.521875 
L 974.976713 331.135938 
" clip-path="url(#p8c41a23716)" style="fill: none; stroke-dasharray: 2.96,1.28; stroke-dashoffset: 0; stroke: #b0b0b0; stroke-width: 0.8"/>
     </g>
     <g id="line2d_64">
      <g>
       <use xlink:href="#ma63d3a2ef1" x="974.976713" y="584.521875" style="stroke: #000000; stroke-width: 0.8"/>
      </g>
     </g>
     <g id="text_21">
      <!-- 2022-12 -->
      <g transform="translate(954.085307 599.120312)scale(0.1 -0.1)">
       <use xlink:href="#DejaVuSans-32"/>
       <use xlink:href="#DejaVuSans-30" x="63.623047"/>
       <use xlink:href="#DejaVuSans-32" x="127.246094"/>
       <use xlink:href="#DejaVuSans-32" x="190.869141"/>
       <use xlink:href="#DejaVuSans-2d" x="254.492188"/>
       <use xlink:href="#DejaVuSans-31" x="290.576172"/>
       <use xlink:href="#DejaVuSans-32" x="354.199219"/>
      </g>
     </g>
    </g>
   </g>
   <g id="matplotlib.axis_4">
    <g id="ytick_7">
     <g id="line2d_65">
      <path d="M 43.25 548.075478 
L 982.876106 548.075478 
" clip-path="url(#p8c41a23716)" style="fill: none; stroke-dasharray: 2.96,1.28; stroke-dashoffset: 0; stroke: #b0b0b0; stroke-width: 0.8"/>
     </g>
     <g id="line2d_66">
      <g>
       <use xlink:href="#ma0812719dd" x="43.25" y="548.075478" style="stroke: #000000; stroke-width: 0.8"/>
      </g>
     </g>
     <g id="text_22">
      <!-- −60 -->
      <g transform="translate(15.145313 551.874697)scale(0.1 -0.1)">
       <defs>
        <path id="DejaVuSans-2212" d="M 678 2272 
L 4684 2272 
L 4684 1741 
L 678 1741 
L 678 2272 
z
" transform="scale(0.015625)"/>
       </defs>
       <use xlink:href="#DejaVuSans-2212"/>
       <use xlink:href="#DejaVuSans-36" x="83.789062"/>
       <use xlink:href="#DejaVuSans-30" x="147.412109"/>
      </g>
     </g>
    </g>
    <g id="ytick_8">
     <g id="line2d_67">
      <path d="M 43.25 505.435712 
L 982.876106 505.435712 
" clip-path="url(#p8c41a23716)" style="fill: none; stroke-dasharray: 2.96,1.28; stroke-dashoffset: 0; stroke: #b0b0b0; stroke-width: 0.8"/>
     </g>
     <g id="line2d_68">
      <g>
       <use xlink:href="#ma0812719dd" x="43.25" y="505.435712" style="stroke: #000000; stroke-width: 0.8"/>
      </g>
     </g>
     <g id="text_23">
      <!-- −40 -->
      <g transform="translate(15.145313 509.234931)scale(0.1 -0.1)">
       <use xlink:href="#DejaVuSans-2212"/>
       <use xlink:href="#DejaVuSans-34" x="83.789062"/>
       <use xlink:href="#DejaVuSans-30" x="147.412109"/>
      </g>
     </g>
    </g>
    <g id="ytick_9">
     <g id="line2d_69">
      <path d="M 43.25 462.795945 
L 982.876106 462.795945 
" clip-path="url(#p8c41a23716)" style="fill: none; stroke-dasharray: 2.96,1.28; stroke-dashoffset: 0; stroke: #b0b0b0; stroke-width: 0.8"/>
     </g>
     <g id="line2d_70">
      <g>
       <use xlink:href="#ma0812719dd" x="43.25" y="462.795945" style="stroke: #000000; stroke-width: 0.8"/>
      </g>
     </g>
     <g id="text_24">
      <!-- −20 -->
      <g transform="translate(15.145313 466.595164)scale(0.1 -0.1)">
       <use xlink:href="#DejaVuSans-2212"/>
       <use xlink:href="#DejaVuSans-32" x="83.789062"/>
       <use xlink:href="#DejaVuSans-30" x="147.412109"/>
      </g>
     </g>
    </g>
    <g id="ytick_10">
     <g id="line2d_71">
      <path d="M 43.25 420.156179 
L 982.876106 420.156179 
" clip-path="url(#p8c41a23716)" style="fill: none; stroke-dasharray: 2.96,1.28; stroke-dashoffset: 0; stroke: #b0b0b0; stroke-width: 0.8"/>
     </g>
     <g id="line2d_72">
      <g>
       <use xlink:href="#ma0812719dd" x="43.25" y="420.156179" style="stroke: #000000; stroke-width: 0.8"/>
      </g>
     </g>
     <g id="text_25">
      <!-- 0 -->
      <g transform="translate(29.8875 423.955397)scale(0.1 -0.1)">
       <use xlink:href="#DejaVuSans-30"/>
      </g>
     </g>
    </g>
    <g id="ytick_11">
     <g id="line2d_73">
      <path d="M 43.25 377.516412 
L 982.876106 377.516412 
" clip-path="url(#p8c41a23716)" style="fill: none; stroke-dasharray: 2.96,1.28; stroke-dashoffset: 0; stroke: #b0b0b0; stroke-width: 0.8"/>
     </g>
     <g id="line2d_74">
      <g>
       <use xlink:href="#ma0812719dd" x="43.25" y="377.516412" style="stroke: #000000; stroke-width: 0.8"/>
      </g>
     </g>
     <g id="text_26">
      <!-- 20 -->
      <g transform="translate(23.525 381.315631)scale(0.1 -0.1)">
       <use xlink:href="#DejaVuSans-32"/>
       <use xlink:href="#DejaVuSans-30" x="63.623047"/>
      </g>
     </g>
    </g>
    <g id="ytick_12">
     <g id="line2d_75">
      <path d="M 43.25 334.876645 
L 982.876106 334.876645 
" clip-path="url(#p8c41a23716)" style="fill: none; stroke-dasharray: 2.96,1.28; stroke-dashoffset: 0; stroke: #b0b0b0; stroke-width: 0.8"/>
     </g>
     <g id="line2d_76">
      <g>
       <use xlink:href="#ma0812719dd" x="43.25" y="334.876645" style="stroke: #000000; stroke-width: 0.8"/>
      </g>
     </g>
     <g id="text_27">
      <!-- 40 -->
      <g transform="translate(23.525 338.675864)scale(0.1 -0.1)">
       <use xlink:href="#DejaVuSans-34"/>
       <use xlink:href="#DejaVuSans-30" x="63.623047"/>
      </g>
     </g>
    </g>
   </g>
   <g id="line2d_77">
    <path d="M 85.960278 420.156179 
L 88.638038 420.122695 
L 93.993559 427.330781 
L 96.671319 429.440524 
L 104.7046 427.211283 
L 107.38236 425.191702 
L 110.060121 421.541023 
L 112.737881 416.945165 
L 115.415641 410.15715 
L 126.126683 402.313173 
L 128.804443 407.588542 
L 131.482203 417.056861 
L 134.159964 429.044534 
L 142.193245 444.351975 
L 144.871005 457.658643 
L 150.226526 473.24307 
L 152.904286 483.534734 
L 160.937567 483.753585 
L 163.615328 478.103762 
L 166.293088 470.886904 
L 168.970848 471.720595 
L 171.648609 471.38573 
L 179.68189 474.390589 
L 182.35965 475.749823 
L 185.03741 473.13684 
L 187.715171 465.557865 
L 190.392931 466.531942 
L 198.426212 472.816348 
L 201.103972 468.374779 
L 203.781733 465.123419 
L 206.459493 463.404585 
L 209.137254 464.395443 
L 217.170535 460.870742 
L 219.848295 457.059671 
L 222.526055 452.284701 
L 225.203816 458.640202 
L 227.881576 460.502249 
L 235.914857 458.076409 
L 241.270378 457.833851 
L 246.625898 450.657701 
L 254.659179 444.765813 
L 257.33694 433.537154 
L 260.0147 418.773452 
L 262.69246 405.146145 
L 265.370221 395.2935 
L 273.403502 376.426746 
L 276.081262 370.718828 
L 278.759023 358.448615 
L 281.436783 355.361108 
L 292.147824 353.942469 
L 294.825585 347.830585 
L 297.503345 346.385787 
L 300.181105 343.694715 
L 302.858866 344.165954 
L 310.892147 345.848445 
L 313.569907 345.977114 
L 316.247667 343.899701 
L 318.925428 342.65348 
L 321.603188 343.118368 
L 329.636469 347.839491 
L 332.314229 356.054075 
L 334.99199 368.671286 
L 337.66975 382.161294 
L 340.347511 392.553993 
L 348.380792 409.14217 
L 351.058552 426.343349 
L 353.736312 438.715689 
L 367.125114 469.736648 
L 369.802874 503.539805 
L 372.480635 524.715676 
L 375.158395 534.840856 
L 377.836155 547.121357 
L 385.869436 559.425155 
L 388.547197 564.100758 
L 391.224957 570.907914 
L 393.902717 569.465044 
L 396.580478 569.187113 
L 404.613759 571.777719 
L 409.96928 573.004332 
L 412.64704 563.800588 
L 415.3248 562.136143 
L 423.358081 554.543011 
L 426.035842 550.009399 
L 428.713602 549.436686 
L 431.391362 550.564016 
L 434.069123 550.708458 
L 442.102404 551.933376 
L 444.780164 546.403685 
L 447.457924 542.204396 
L 450.135685 551.467763 
L 452.813445 552.469875 
L 460.846726 549.494927 
L 463.524487 550.347389 
L 466.202247 554.72445 
L 468.880007 554.325228 
L 471.557768 546.125509 
L 479.591049 527.139028 
L 482.268809 514.988556 
L 484.946569 508.647016 
L 487.62433 497.663121 
L 490.30209 485.844947 
L 498.335371 474.417401 
L 501.013131 468.815989 
L 503.690892 465.012092 
L 506.368652 458.970127 
L 509.046412 460.28949 
L 517.079693 469.758888 
L 519.757454 473.883444 
L 522.435214 479.622953 
L 525.112974 487.693178 
L 527.790735 494.929803 
L 535.824016 495.181519 
L 538.501776 488.444359 
L 541.179537 484.538917 
L 543.857297 478.160545 
L 546.535057 474.432363 
L 554.568338 465.195951 
L 557.246099 456.502347 
L 559.923859 452.150931 
L 562.601619 448.606671 
L 565.27938 442.529524 
L 573.312661 436.050722 
L 575.990421 432.84287 
L 581.345942 422.057946 
L 584.023702 415.082267 
L 592.056983 416.698543 
L 594.734744 423.880058 
L 597.412504 428.469269 
L 600.090264 434.623119 
L 602.768025 439.024541 
L 610.801306 432.130356 
L 613.479066 427.570367 
L 616.156826 418.615586 
L 618.834587 408.624072 
L 621.512347 405.451235 
L 629.545628 403.592162 
L 632.223388 411.244564 
L 634.901149 413.957192 
L 637.578909 408.270345 
L 640.256669 398.457006 
L 648.28995 390.786183 
L 650.967711 386.378011 
L 653.645471 379.48265 
L 659.000992 358.158824 
L 667.034273 350.064147 
L 672.389794 347.40365 
L 675.067554 343.172048 
L 677.745314 345.130363 
L 688.456356 347.119982 
L 691.134116 347.844415 
L 693.811876 353.19874 
L 696.489637 355.750249 
L 704.522918 362.131317 
L 707.200678 373.446888 
L 709.878438 383.678018 
L 712.556199 395.400469 
L 715.233959 404.288595 
L 723.26724 421.603394 
L 725.945001 429.84636 
L 731.300521 441.083684 
L 733.978282 451.554179 
L 742.011563 457.988142 
L 744.689323 463.652314 
L 747.367083 467.160687 
L 750.044844 466.269919 
L 752.722604 458.966407 
L 760.755885 448.626712 
L 763.433645 438.713223 
L 766.111406 442.563339 
L 768.789166 452.569565 
L 771.466926 469.521384 
L 779.500207 479.98669 
L 782.177968 487.801802 
L 784.855728 495.075687 
L 787.533489 501.502495 
L 790.211249 506.035903 
L 798.24453 506.09195 
L 800.92229 502.894566 
L 803.600051 499.251021 
L 806.277811 494.823238 
L 808.955571 487.986189 
L 816.988852 485.206974 
L 819.666613 476.225102 
L 825.022133 464.16968 
L 827.699894 454.894759 
L 835.733175 445.284864 
L 838.410935 444.076717 
L 841.088695 442.024207 
L 843.766456 441.663549 
L 846.444216 431.892412 
L 854.477497 421.433068 
L 857.155258 410.885369 
L 859.833018 405.830987 
L 862.510778 399.406622 
L 865.188539 394.677778 
L 873.22182 388.312428 
L 875.89958 382.251104 
L 881.255101 378.333841 
L 883.932861 377.561152 
L 891.966142 373.291397 
L 894.643902 364.468135 
L 897.321663 361.540384 
L 899.999423 363.749698 
L 902.677183 368.972176 
L 910.710465 374.761133 
L 916.065985 379.176189 
L 918.743746 384.675463 
L 921.421506 377.797866 
L 929.454787 370.30704 
L 932.132547 363.526604 
L 934.810308 357.363004 
L 940.165828 354.410115 
L 940.165828 354.410115 
" clip-path="url(#p8c41a23716)" style="fill: none; stroke: #1f77b4; stroke-width: 1.5; stroke-linecap: square"/>
   </g>
   <g id="line2d_78">
    <path d="M 85.960278 420.156179 
L 88.638038 420.137577 
L 91.315798 421.604416 
L 93.993559 423.544241 
L 96.671319 425.298252 
L 104.7046 425.81679 
L 107.38236 425.658597 
L 110.060121 424.669066 
L 112.737881 422.884807 
L 115.415641 420.033073 
L 123.448922 416.577504 
L 126.126683 413.514124 
L 128.804443 412.260065 
L 131.482203 413.263558 
L 134.159964 416.534852 
L 142.193245 422.259408 
L 144.871005 429.502352 
L 150.226526 438.410979 
L 152.904286 447.567692 
L 160.937567 454.889283 
L 163.615328 459.575401 
L 166.293088 461.854518 
L 168.970848 463.839451 
L 171.648609 465.355868 
L 179.68189 467.169664 
L 182.35965 468.890898 
L 185.03741 469.742145 
L 187.715171 468.903667 
L 190.392931 468.428587 
L 198.426212 469.307227 
L 201.103972 469.120552 
L 203.781733 468.320492 
L 206.459493 467.336687 
L 209.137254 466.74814 
L 217.170535 465.572183 
L 219.848295 463.869128 
L 222.526055 461.551641 
L 225.203816 460.969232 
L 227.881576 460.87582 
L 235.914857 460.315863 
L 241.270378 459.819408 
L 243.948138 458.706218 
L 246.625898 457.096405 
L 254.659179 454.630152 
L 257.33694 450.411369 
L 260.0147 444.083565 
L 262.69246 436.295864 
L 265.370221 428.095208 
L 273.403502 417.761331 
L 276.081262 408.352697 
L 278.759023 398.371766 
L 281.436783 389.769556 
L 292.147824 382.604086 
L 294.825585 375.649345 
L 297.503345 369.796606 
L 300.181105 364.576208 
L 302.858866 360.494145 
L 310.892147 357.564998 
L 316.247667 352.97787 
L 318.925428 350.91299 
L 321.603188 349.354064 
L 329.636469 349.051149 
L 332.314229 350.451735 
L 334.99199 354.095647 
L 337.66975 359.708779 
L 340.347511 366.277824 
L 348.380792 374.850695 
L 353.736312 395.862522 
L 367.125114 410.637349 
L 375.158395 465.622101 
L 377.836155 481.921953 
L 385.869436 497.422594 
L 388.547197 510.758227 
L 391.224957 522.788165 
L 393.902717 532.123541 
L 396.580478 539.536256 
L 404.613759 545.984548 
L 409.96928 551.388505 
L 412.64704 553.870922 
L 415.3248 555.523966 
L 423.358081 555.327775 
L 428.713602 553.298617 
L 431.391362 552.751697 
L 434.069123 552.343049 
L 442.102404 552.261114 
L 444.780164 551.089628 
L 447.457924 549.312582 
L 450.135685 549.743618 
L 452.813445 550.28887 
L 463.524487 550.173543 
L 466.202247 551.083724 
L 468.880007 551.732025 
L 471.557768 550.610722 
L 479.591049 545.916383 
L 484.946569 533.514057 
L 487.62433 526.34387 
L 490.30209 518.244085 
L 498.335371 509.478749 
L 501.013131 501.346197 
L 506.368652 487.057526 
L 509.046412 481.703919 
L 517.079693 479.314913 
L 519.757454 478.228619 
L 522.435214 478.507486 
L 525.112974 480.344624 
L 527.790735 483.26166 
L 535.824016 485.645632 
L 538.501776 486.205377 
L 541.179537 485.872085 
L 543.857297 484.329777 
L 546.535057 482.350294 
L 554.568338 478.919426 
L 559.923859 469.978994 
L 562.601619 465.70453 
L 565.27938 461.069529 
L 573.312661 456.065767 
L 578.668181 446.639952 
L 581.345942 441.723551 
L 584.023702 436.395294 
L 592.056983 432.455944 
L 594.734744 430.740767 
L 597.412504 430.286467 
L 600.090264 431.153797 
L 602.768025 432.727946 
L 610.801306 432.608428 
L 613.479066 431.600816 
L 616.156826 429.00377 
L 621.512347 421.032511 
L 632.223388 416.284466 
L 634.901149 415.819011 
L 637.578909 414.309278 
L 640.256669 411.138824 
L 648.28995 407.068296 
L 650.967711 402.930239 
L 653.645471 398.240721 
L 656.323232 392.351658 
L 659.000992 385.513092 
L 667.034273 378.423303 
L 672.389794 372.219372 
L 675.067554 366.409907 
L 677.745314 362.153998 
L 688.456356 359.147195 
L 691.134116 356.886639 
L 693.811876 356.149059 
L 696.489637 356.069297 
L 704.522918 357.281701 
L 707.200678 360.514739 
L 709.878438 365.147395 
L 712.556199 371.198009 
L 715.233959 377.816127 
L 723.26724 386.57358 
L 725.945001 395.228136 
L 731.300521 404.399246 
L 733.978282 413.830232 
L 742.011563 422.661814 
L 744.689323 430.859914 
L 747.367083 438.120069 
L 750.044844 443.750039 
L 752.722604 446.793313 
L 760.755885 447.159992 
L 763.433645 445.470639 
L 766.111406 444.889179 
L 768.789166 446.425256 
L 771.466926 451.044482 
L 779.500207 456.832923 
L 784.855728 469.436497 
L 787.533489 475.849696 
L 790.211249 481.886938 
L 798.24453 486.72794 
L 800.92229 489.961265 
L 803.600051 491.819217 
L 806.277811 492.420021 
L 808.955571 491.533254 
L 816.988852 490.267998 
L 819.666613 487.459419 
L 825.022133 482.801471 
L 827.699894 477.220129 
L 835.733175 470.833076 
L 838.410935 465.481804 
L 841.088695 460.790285 
L 843.766456 456.964938 
L 846.444216 451.950432 
L 854.477497 445.84696 
L 857.155258 438.854642 
L 862.510778 425.681253 
L 865.188539 419.480558 
L 873.22182 413.246932 
L 875.89958 407.047766 
L 881.255101 401.304981 
L 883.932861 396.556215 
L 891.966142 391.903252 
L 894.643902 386.416228 
L 897.321663 381.44106 
L 899.999423 377.902787 
L 902.677183 376.116665 
L 910.710465 375.845559 
L 916.065985 376.511685 
L 918.743746 378.14444 
L 921.421506 378.075125 
L 929.454787 376.521508 
L 932.132547 373.922527 
L 934.810308 370.610623 
L 937.488068 367.662236 
L 940.165828 365.011812 
L 940.165828 365.011812 
" clip-path="url(#p8c41a23716)" style="fill: none; stroke: #ff7f0e; stroke-width: 1.5; stroke-linecap: square"/>
   </g>
   <g id="patch_9">
    <path d="M 43.25 584.521875 
L 43.25 331.135938 
" style="fill: none; stroke: #000000; stroke-width: 0.8; stroke-linejoin: miter; stroke-linecap: square"/>
   </g>
   <g id="patch_10">
    <path d="M 982.876106 584.521875 
L 982.876106 331.135938 
" style="fill: none; stroke: #000000; stroke-width: 0.8; stroke-linejoin: miter; stroke-linecap: square"/>
   </g>
   <g id="patch_11">
    <path d="M 43.25 584.521875 
L 982.876106 584.521875 
" style="fill: none; stroke: #000000; stroke-width: 0.8; stroke-linejoin: miter; stroke-linecap: square"/>
   </g>
   <g id="patch_12">
    <path d="M 43.25 331.135938 
L 982.876106 331.135938 
" style="fill: none; stroke: #000000; stroke-width: 0.8; stroke-linejoin: miter; stroke-linecap: square"/>
   </g>
   <g id="text_28">
    <!-- MACD -->
    <g transform="translate(495.077115 325.135938)scale(0.12 -0.12)">
     <defs>
      <path id="DejaVuSans-44" d="M 1259 4147 
L 1259 519 
L 2022 519 
Q 2988 519 3436 956 
Q 3884 1394 3884 2338 
Q 3884 3275 3436 3711 
Q 2988 4147 2022 4147 
L 1259 4147 
z
M 628 4666 
L 1925 4666 
Q 3281 4666 3915 4102 
Q 4550 3538 4550 2338 
Q 4550 1131 3912 565 
Q 3275 0 1925 0 
L 628 0 
L 628 4666 
z
" transform="scale(0.015625)"/>
     </defs>
     <use xlink:href="#DejaVuSans-4d"/>
     <use xlink:href="#DejaVuSans-41" x="86.279297"/>
     <use xlink:href="#DejaVuSans-43" x="152.9375"/>
     <use xlink:href="#DejaVuSans-44" x="222.761719"/>
    </g>
   </g>
   <g id="legend_2">
    <g id="patch_13">
     <path d="M 50.25 368.492188 
L 112.226563 368.492188 
Q 114.226563 368.492188 114.226563 366.492188 
L 114.226563 338.135938 
Q 114.226563 336.135938 112.226563 336.135938 
L 50.25 336.135938 
Q 48.25 336.135938 48.25 338.135938 
L 48.25 366.492188 
Q 48.25 368.492188 50.25 368.492188 
z
" style="fill: #ffffff; opacity: 0.8; stroke: #cccccc; stroke-linejoin: miter"/>
    </g>
    <g id="line2d_79">
     <path d="M 52.25 344.234375 
L 62.25 344.234375 
L 72.25 344.234375 
" style="fill: none; stroke: #1f77b4; stroke-width: 1.5; stroke-linecap: square"/>
    </g>
    <g id="text_29">
     <!-- MACD -->
     <g transform="translate(80.25 347.734375)scale(0.1 -0.1)">
      <use xlink:href="#DejaVuSans-4d"/>
      <use xlink:href="#DejaVuSans-41" x="86.279297"/>
      <use xlink:href="#DejaVuSans-43" x="152.9375"/>
      <use xlink:href="#DejaVuSans-44" x="222.761719"/>
     </g>
    </g>
    <g id="line2d_80">
     <path d="M 52.25 358.9125 
L 62.25 358.9125 
L 72.25 358.9125 
" style="fill: none; stroke: #ff7f0e; stroke-width: 1.5; stroke-linecap: square"/>
    </g>
    <g id="text_30">
     <!-- SIG -->
     <g transform="translate(80.25 362.4125)scale(0.1 -0.1)">
      <defs>
       <path id="DejaVuSans-49" d="M 628 4666 
L 1259 4666 
L 1259 0 
L 628 0 
L 628 4666 
z
" transform="scale(0.015625)"/>
       <path id="DejaVuSans-47" d="M 3809 666 
L 3809 1919 
L 2778 1919 
L 2778 2438 
L 4434 2438 
L 4434 434 
Q 4069 175 3628 42 
Q 3188 -91 2688 -91 
Q 1594 -91 976 548 
Q 359 1188 359 2328 
Q 359 3472 976 4111 
Q 1594 4750 2688 4750 
Q 3144 4750 3555 4637 
Q 3966 4525 4313 4306 
L 4313 3634 
Q 3963 3931 3569 4081 
Q 3175 4231 2741 4231 
Q 1884 4231 1454 3753 
Q 1025 3275 1025 2328 
Q 1025 1384 1454 906 
Q 1884 428 2741 428 
Q 3075 428 3337 486 
Q 3600 544 3809 666 
z
" transform="scale(0.015625)"/>
      </defs>
      <use xlink:href="#DejaVuSans-53"/>
      <use xlink:href="#DejaVuSans-49" x="63.476562"/>
      <use xlink:href="#DejaVuSans-47" x="92.96875"/>
     </g>
    </g>
   </g>
  </g>
  <g id="text_31">
   <!-- Infosys Limited -->
   <g transform="translate(458.560313 21.358125)scale(0.12 -0.12)">
    <defs>
     <path id="DejaVuSans-66" d="M 2375 4863 
L 2375 4384 
L 1825 4384 
Q 1516 4384 1395 4259 
Q 1275 4134 1275 3809 
L 1275 3500 
L 2222 3500 
L 2222 3053 
L 1275 3053 
L 1275 0 
L 697 0 
L 697 3053 
L 147 3053 
L 147 3500 
L 697 3500 
L 697 3744 
Q 697 4328 969 4595 
Q 1241 4863 1831 4863 
L 2375 4863 
z
" transform="scale(0.015625)"/>
     <path id="DejaVuSans-79" d="M 2059 -325 
Q 1816 -950 1584 -1140 
Q 1353 -1331 966 -1331 
L 506 -1331 
L 506 -850 
L 844 -850 
Q 1081 -850 1212 -737 
Q 1344 -625 1503 -206 
L 1606 56 
L 191 3500 
L 800 3500 
L 1894 763 
L 2988 3500 
L 3597 3500 
L 2059 -325 
z
" transform="scale(0.015625)"/>
     <path id="DejaVuSans-6d" d="M 3328 2828 
Q 3544 3216 3844 3400 
Q 4144 3584 4550 3584 
Q 5097 3584 5394 3201 
Q 5691 2819 5691 2113 
L 5691 0 
L 5113 0 
L 5113 2094 
Q 5113 2597 4934 2840 
Q 4756 3084 4391 3084 
Q 3944 3084 3684 2787 
Q 3425 2491 3425 1978 
L 3425 0 
L 2847 0 
L 2847 2094 
Q 2847 2600 2669 2842 
Q 2491 3084 2119 3084 
Q 1678 3084 1418 2786 
Q 1159 2488 1159 1978 
L 1159 0 
L 581 0 
L 581 3500 
L 1159 3500 
L 1159 2956 
Q 1356 3278 1631 3431 
Q 1906 3584 2284 3584 
Q 2666 3584 2933 3390 
Q 3200 3197 3328 2828 
z
" transform="scale(0.015625)"/>
     <path id="DejaVuSans-74" d="M 1172 4494 
L 1172 3500 
L 2356 3500 
L 2356 3053 
L 1172 3053 
L 1172 1153 
Q 1172 725 1289 603 
Q 1406 481 1766 481 
L 2356 481 
L 2356 0 
L 1766 0 
Q 1100 0 847 248 
Q 594 497 594 1153 
L 594 3053 
L 172 3053 
L 172 3500 
L 594 3500 
L 594 4494 
L 1172 4494 
z
" transform="scale(0.015625)"/>
     <path id="DejaVuSans-64" d="M 2906 2969 
L 2906 4863 
L 3481 4863 
L 3481 0 
L 2906 0 
L 2906 525 
Q 2725 213 2448 61 
Q 2172 -91 1784 -91 
Q 1150 -91 751 415 
Q 353 922 353 1747 
Q 353 2572 751 3078 
Q 1150 3584 1784 3584 
Q 2172 3584 2448 3432 
Q 2725 3281 2906 2969 
z
M 947 1747 
Q 947 1113 1208 752 
Q 1469 391 1925 391 
Q 2381 391 2643 752 
Q 2906 1113 2906 1747 
Q 2906 2381 2643 2742 
Q 2381 3103 1925 3103 
Q 1469 3103 1208 2742 
Q 947 2381 947 1747 
z
" transform="scale(0.015625)"/>
    </defs>
    <use xlink:href="#DejaVuSans-49"/>
    <use xlink:href="#DejaVuSans-6e" x="29.492188"/>
    <use xlink:href="#DejaVuSans-66" x="92.871094"/>
    <use xlink:href="#DejaVuSans-6f" x="128.076172"/>
    <use xlink:href="#DejaVuSans-73" x="189.257812"/>
    <use xlink:href="#DejaVuSans-79" x="241.357422"/>
    <use xlink:href="#DejaVuSans-73" x="300.537109"/>
    <use xlink:href="#DejaVuSans-20" x="352.636719"/>
    <use xlink:href="#DejaVuSans-4c" x="384.423828"/>
    <use xlink:href="#DejaVuSans-69" x="440.136719"/>
    <use xlink:href="#DejaVuSans-6d" x="467.919922"/>
    <use xlink:href="#DejaVuSans-69" x="565.332031"/>
    <use xlink:href="#DejaVuSans-74" x="593.115234"/>
    <use xlink:href="#DejaVuSans-65" x="632.324219"/>
    <use xlink:href="#DejaVuSans-64" x="693.847656"/>
   </g>
  </g>
 </g>
 <defs>
  <clipPath id="p8a78150398">
   <rect x="43.25" y="48.331875" width="939.626106" height="253.385938"/>
  </clipPath>
  <clipPath id="p8c41a23716">
   <rect x="43.25" y="331.135938" width="939.626106" height="253.385937"/>
  </clipPath>
 </defs>
</svg>
