<?xml version="1.0" encoding="utf-8" standalone="no"?>
<!DOCTYPE svg PUBLIC "-//W3C//DTD SVG 1.1//EN"
  "http://www.w3.org/Graphics/SVG/1.1/DTD/svg11.dtd">
<svg xmlns:xlink="http://www.w3.org/1999/xlink" width="1008pt" height="612pt" viewBox="0 0 1008 612" xmlns="http://www.w3.org/2000/svg" version="1.1">
 <metadata>
  <rdf:RDF xmlns:dc="http://purl.org/dc/elements/1.1/" xmlns:cc="http://creativecommons.org/ns#" xmlns:rdf="http://www.w3.org/1999/02/22-rdf-syntax-ns#">
   <cc:Work>
    <dc:type rdf:resource="http://purl.org/dc/dcmitype/StillImage"/>
    <dc:date>2022-11-20T19:46:46.134870</dc:date>
    <dc:format>image/svg+xml</dc:format>
    <dc:creator>
     <cc:Agent>
      <dc:title>Matplotlib v3.5.2, https://matplotlib.org/</dc:title>
     </cc:Agent>
    </dc:creator>
   </cc:Work>
  </rdf:RDF>
 </metadata>
 <defs>
  <style type="text/css">*{stroke-linejoin: round; stroke-linecap: butt}</style>
 </defs>
 <g id="figure_1">
  <g id="patch_1">
   <path d="M 0 612 
L 1008 612 
L 1008 0 
L 0 0 
z
" style="fill: #ffffff"/>
  </g>
  <g id="axes_1">
   <g id="patch_2">
    <path d="M 38.904688 301.717812 
L 982.876106 301.717812 
L 982.876106 48.331875 
L 38.904688 48.331875 
z
" style="fill: #ffffff"/>
   </g>
   <g id="matplotlib.axis_1">
    <g id="xtick_1">
     <g id="line2d_1">
      <path d="M 76.432192 301.717812 
L 76.432192 48.331875 
" clip-path="url(#p514c5881ae)" style="fill: none; stroke-dasharray: 2.96,1.28; stroke-dashoffset: 0; stroke: #b0b0b0; stroke-width: 0.8"/>
     </g>
     <g id="line2d_2">
      <defs>
       <path id="m2edd15b7ed" d="M 0 0 
L 0 3.5 
" style="stroke: #000000; stroke-width: 0.8"/>
      </defs>
      <g>
       <use xlink:href="#m2edd15b7ed" x="76.432192" y="301.717812" style="stroke: #000000; stroke-width: 0.8"/>
      </g>
     </g>
    </g>
    <g id="xtick_2">
     <g id="line2d_3">
      <path d="M 159.826646 301.717812 
L 159.826646 48.331875 
" clip-path="url(#p514c5881ae)" style="fill: none; stroke-dasharray: 2.96,1.28; stroke-dashoffset: 0; stroke: #b0b0b0; stroke-width: 0.8"/>
     </g>
     <g id="line2d_4">
      <g>
       <use xlink:href="#m2edd15b7ed" x="159.826646" y="301.717812" style="stroke: #000000; stroke-width: 0.8"/>
      </g>
     </g>
    </g>
    <g id="xtick_3">
     <g id="line2d_5">
      <path d="M 235.150669 301.717812 
L 235.150669 48.331875 
" clip-path="url(#p514c5881ae)" style="fill: none; stroke-dasharray: 2.96,1.28; stroke-dashoffset: 0; stroke: #b0b0b0; stroke-width: 0.8"/>
     </g>
     <g id="line2d_6">
      <g>
       <use xlink:href="#m2edd15b7ed" x="235.150669" y="301.717812" style="stroke: #000000; stroke-width: 0.8"/>
      </g>
     </g>
    </g>
    <g id="xtick_4">
     <g id="line2d_7">
      <path d="M 318.545123 301.717812 
L 318.545123 48.331875 
" clip-path="url(#p514c5881ae)" style="fill: none; stroke-dasharray: 2.96,1.28; stroke-dashoffset: 0; stroke: #b0b0b0; stroke-width: 0.8"/>
     </g>
     <g id="line2d_8">
      <g>
       <use xlink:href="#m2edd15b7ed" x="318.545123" y="301.717812" style="stroke: #000000; stroke-width: 0.8"/>
      </g>
     </g>
    </g>
    <g id="xtick_5">
     <g id="line2d_9">
      <path d="M 399.249434 301.717812 
L 399.249434 48.331875 
" clip-path="url(#p514c5881ae)" style="fill: none; stroke-dasharray: 2.96,1.28; stroke-dashoffset: 0; stroke: #b0b0b0; stroke-width: 0.8"/>
     </g>
     <g id="line2d_10">
      <g>
       <use xlink:href="#m2edd15b7ed" x="399.249434" y="301.717812" style="stroke: #000000; stroke-width: 0.8"/>
      </g>
     </g>
    </g>
    <g id="xtick_6">
     <g id="line2d_11">
      <path d="M 482.643888 301.717812 
L 482.643888 48.331875 
" clip-path="url(#p514c5881ae)" style="fill: none; stroke-dasharray: 2.96,1.28; stroke-dashoffset: 0; stroke: #b0b0b0; stroke-width: 0.8"/>
     </g>
     <g id="line2d_12">
      <g>
       <use xlink:href="#m2edd15b7ed" x="482.643888" y="301.717812" style="stroke: #000000; stroke-width: 0.8"/>
      </g>
     </g>
    </g>
    <g id="xtick_7">
     <g id="line2d_13">
      <path d="M 563.348198 301.717812 
L 563.348198 48.331875 
" clip-path="url(#p514c5881ae)" style="fill: none; stroke-dasharray: 2.96,1.28; stroke-dashoffset: 0; stroke: #b0b0b0; stroke-width: 0.8"/>
     </g>
     <g id="line2d_14">
      <g>
       <use xlink:href="#m2edd15b7ed" x="563.348198" y="301.717812" style="stroke: #000000; stroke-width: 0.8"/>
      </g>
     </g>
    </g>
    <g id="xtick_8">
     <g id="line2d_15">
      <path d="M 646.742653 301.717812 
L 646.742653 48.331875 
" clip-path="url(#p514c5881ae)" style="fill: none; stroke-dasharray: 2.96,1.28; stroke-dashoffset: 0; stroke: #b0b0b0; stroke-width: 0.8"/>
     </g>
     <g id="line2d_16">
      <g>
       <use xlink:href="#m2edd15b7ed" x="646.742653" y="301.717812" style="stroke: #000000; stroke-width: 0.8"/>
      </g>
     </g>
    </g>
    <g id="xtick_9">
     <g id="line2d_17">
      <path d="M 730.137107 301.717812 
L 730.137107 48.331875 
" clip-path="url(#p514c5881ae)" style="fill: none; stroke-dasharray: 2.96,1.28; stroke-dashoffset: 0; stroke: #b0b0b0; stroke-width: 0.8"/>
     </g>
     <g id="line2d_18">
      <g>
       <use xlink:href="#m2edd15b7ed" x="730.137107" y="301.717812" style="stroke: #000000; stroke-width: 0.8"/>
      </g>
     </g>
    </g>
    <g id="xtick_10">
     <g id="line2d_19">
      <path d="M 810.841417 301.717812 
L 810.841417 48.331875 
" clip-path="url(#p514c5881ae)" style="fill: none; stroke-dasharray: 2.96,1.28; stroke-dashoffset: 0; stroke: #b0b0b0; stroke-width: 0.8"/>
     </g>
     <g id="line2d_20">
      <g>
       <use xlink:href="#m2edd15b7ed" x="810.841417" y="301.717812" style="stroke: #000000; stroke-width: 0.8"/>
      </g>
     </g>
    </g>
    <g id="xtick_11">
     <g id="line2d_21">
      <path d="M 894.235872 301.717812 
L 894.235872 48.331875 
" clip-path="url(#p514c5881ae)" style="fill: none; stroke-dasharray: 2.96,1.28; stroke-dashoffset: 0; stroke: #b0b0b0; stroke-width: 0.8"/>
     </g>
     <g id="line2d_22">
      <g>
       <use xlink:href="#m2edd15b7ed" x="894.235872" y="301.717812" style="stroke: #000000; stroke-width: 0.8"/>
      </g>
     </g>
    </g>
    <g id="xtick_12">
     <g id="line2d_23">
      <path d="M 974.940182 301.717812 
L 974.940182 48.331875 
" clip-path="url(#p514c5881ae)" style="fill: none; stroke-dasharray: 2.96,1.28; stroke-dashoffset: 0; stroke: #b0b0b0; stroke-width: 0.8"/>
     </g>
     <g id="line2d_24">
      <g>
       <use xlink:href="#m2edd15b7ed" x="974.940182" y="301.717812" style="stroke: #000000; stroke-width: 0.8"/>
      </g>
     </g>
    </g>
   </g>
   <g id="matplotlib.axis_2">
    <g id="ytick_1">
     <g id="line2d_25">
      <path d="M 38.904688 293.369654 
L 982.876106 293.369654 
" clip-path="url(#p514c5881ae)" style="fill: none; stroke-dasharray: 2.96,1.28; stroke-dashoffset: 0; stroke: #b0b0b0; stroke-width: 0.8"/>
     </g>
     <g id="line2d_26">
      <defs>
       <path id="m5a9c3efd42" d="M 0 0 
L -3.5 0 
" style="stroke: #000000; stroke-width: 0.8"/>
      </defs>
      <g>
       <use xlink:href="#m5a9c3efd42" x="38.904688" y="293.369654" style="stroke: #000000; stroke-width: 0.8"/>
      </g>
     </g>
     <g id="text_1">
      <!-- 650 -->
      <g transform="translate(12.817187 297.168873)scale(0.1 -0.1)">
       <defs>
        <path id="DejaVuSans-36" d="M 2113 2584 
Q 1688 2584 1439 2293 
Q 1191 2003 1191 1497 
Q 1191 994 1439 701 
Q 1688 409 2113 409 
Q 2538 409 2786 701 
Q 3034 994 3034 1497 
Q 3034 2003 2786 2293 
Q 2538 2584 2113 2584 
z
M 3366 4563 
L 3366 3988 
Q 3128 4100 2886 4159 
Q 2644 4219 2406 4219 
Q 1781 4219 1451 3797 
Q 1122 3375 1075 2522 
Q 1259 2794 1537 2939 
Q 1816 3084 2150 3084 
Q 2853 3084 3261 2657 
Q 3669 2231 3669 1497 
Q 3669 778 3244 343 
Q 2819 -91 2113 -91 
Q 1303 -91 875 529 
Q 447 1150 447 2328 
Q 447 3434 972 4092 
Q 1497 4750 2381 4750 
Q 2619 4750 2861 4703 
Q 3103 4656 3366 4563 
z
" transform="scale(0.015625)"/>
        <path id="DejaVuSans-35" d="M 691 4666 
L 3169 4666 
L 3169 4134 
L 1269 4134 
L 1269 2991 
Q 1406 3038 1543 3061 
Q 1681 3084 1819 3084 
Q 2600 3084 3056 2656 
Q 3513 2228 3513 1497 
Q 3513 744 3044 326 
Q 2575 -91 1722 -91 
Q 1428 -91 1123 -41 
Q 819 9 494 109 
L 494 744 
Q 775 591 1075 516 
Q 1375 441 1709 441 
Q 2250 441 2565 725 
Q 2881 1009 2881 1497 
Q 2881 1984 2565 2268 
Q 2250 2553 1709 2553 
Q 1456 2553 1204 2497 
Q 953 2441 691 2322 
L 691 4666 
z
" transform="scale(0.015625)"/>
        <path id="DejaVuSans-30" d="M 2034 4250 
Q 1547 4250 1301 3770 
Q 1056 3291 1056 2328 
Q 1056 1369 1301 889 
Q 1547 409 2034 409 
Q 2525 409 2770 889 
Q 3016 1369 3016 2328 
Q 3016 3291 2770 3770 
Q 2525 4250 2034 4250 
z
M 2034 4750 
Q 2819 4750 3233 4129 
Q 3647 3509 3647 2328 
Q 3647 1150 3233 529 
Q 2819 -91 2034 -91 
Q 1250 -91 836 529 
Q 422 1150 422 2328 
Q 422 3509 836 4129 
Q 1250 4750 2034 4750 
z
" transform="scale(0.015625)"/>
       </defs>
       <use xlink:href="#DejaVuSans-36"/>
       <use xlink:href="#DejaVuSans-35" x="63.623047"/>
       <use xlink:href="#DejaVuSans-30" x="127.246094"/>
      </g>
     </g>
    </g>
    <g id="ytick_2">
     <g id="line2d_27">
      <path d="M 38.904688 251.111197 
L 982.876106 251.111197 
" clip-path="url(#p514c5881ae)" style="fill: none; stroke-dasharray: 2.96,1.28; stroke-dashoffset: 0; stroke: #b0b0b0; stroke-width: 0.8"/>
     </g>
     <g id="line2d_28">
      <g>
       <use xlink:href="#m5a9c3efd42" x="38.904688" y="251.111197" style="stroke: #000000; stroke-width: 0.8"/>
      </g>
     </g>
     <g id="text_2">
      <!-- 700 -->
      <g transform="translate(12.817187 254.910415)scale(0.1 -0.1)">
       <defs>
        <path id="DejaVuSans-37" d="M 525 4666 
L 3525 4666 
L 3525 4397 
L 1831 0 
L 1172 0 
L 2766 4134 
L 525 4134 
L 525 4666 
z
" transform="scale(0.015625)"/>
       </defs>
       <use xlink:href="#DejaVuSans-37"/>
       <use xlink:href="#DejaVuSans-30" x="63.623047"/>
       <use xlink:href="#DejaVuSans-30" x="127.246094"/>
      </g>
     </g>
    </g>
    <g id="ytick_3">
     <g id="line2d_29">
      <path d="M 38.904688 208.852739 
L 982.876106 208.852739 
" clip-path="url(#p514c5881ae)" style="fill: none; stroke-dasharray: 2.96,1.28; stroke-dashoffset: 0; stroke: #b0b0b0; stroke-width: 0.8"/>
     </g>
     <g id="line2d_30">
      <g>
       <use xlink:href="#m5a9c3efd42" x="38.904688" y="208.852739" style="stroke: #000000; stroke-width: 0.8"/>
      </g>
     </g>
     <g id="text_3">
      <!-- 750 -->
      <g transform="translate(12.817187 212.651958)scale(0.1 -0.1)">
       <use xlink:href="#DejaVuSans-37"/>
       <use xlink:href="#DejaVuSans-35" x="63.623047"/>
       <use xlink:href="#DejaVuSans-30" x="127.246094"/>
      </g>
     </g>
    </g>
    <g id="ytick_4">
     <g id="line2d_31">
      <path d="M 38.904688 166.594281 
L 982.876106 166.594281 
" clip-path="url(#p514c5881ae)" style="fill: none; stroke-dasharray: 2.96,1.28; stroke-dashoffset: 0; stroke: #b0b0b0; stroke-width: 0.8"/>
     </g>
     <g id="line2d_32">
      <g>
       <use xlink:href="#m5a9c3efd42" x="38.904688" y="166.594281" style="stroke: #000000; stroke-width: 0.8"/>
      </g>
     </g>
     <g id="text_4">
      <!-- 800 -->
      <g transform="translate(12.817187 170.3935)scale(0.1 -0.1)">
       <defs>
        <path id="DejaVuSans-38" d="M 2034 2216 
Q 1584 2216 1326 1975 
Q 1069 1734 1069 1313 
Q 1069 891 1326 650 
Q 1584 409 2034 409 
Q 2484 409 2743 651 
Q 3003 894 3003 1313 
Q 3003 1734 2745 1975 
Q 2488 2216 2034 2216 
z
M 1403 2484 
Q 997 2584 770 2862 
Q 544 3141 544 3541 
Q 544 4100 942 4425 
Q 1341 4750 2034 4750 
Q 2731 4750 3128 4425 
Q 3525 4100 3525 3541 
Q 3525 3141 3298 2862 
Q 3072 2584 2669 2484 
Q 3125 2378 3379 2068 
Q 3634 1759 3634 1313 
Q 3634 634 3220 271 
Q 2806 -91 2034 -91 
Q 1263 -91 848 271 
Q 434 634 434 1313 
Q 434 1759 690 2068 
Q 947 2378 1403 2484 
z
M 1172 3481 
Q 1172 3119 1398 2916 
Q 1625 2713 2034 2713 
Q 2441 2713 2670 2916 
Q 2900 3119 2900 3481 
Q 2900 3844 2670 4047 
Q 2441 4250 2034 4250 
Q 1625 4250 1398 4047 
Q 1172 3844 1172 3481 
z
" transform="scale(0.015625)"/>
       </defs>
       <use xlink:href="#DejaVuSans-38"/>
       <use xlink:href="#DejaVuSans-30" x="63.623047"/>
       <use xlink:href="#DejaVuSans-30" x="127.246094"/>
      </g>
     </g>
    </g>
    <g id="ytick_5">
     <g id="line2d_33">
      <path d="M 38.904688 124.335824 
L 982.876106 124.335824 
" clip-path="url(#p514c5881ae)" style="fill: none; stroke-dasharray: 2.96,1.28; stroke-dashoffset: 0; stroke: #b0b0b0; stroke-width: 0.8"/>
     </g>
     <g id="line2d_34">
      <g>
       <use xlink:href="#m5a9c3efd42" x="38.904688" y="124.335824" style="stroke: #000000; stroke-width: 0.8"/>
      </g>
     </g>
     <g id="text_5">
      <!-- 850 -->
      <g transform="translate(12.817187 128.135043)scale(0.1 -0.1)">
       <use xlink:href="#DejaVuSans-38"/>
       <use xlink:href="#DejaVuSans-35" x="63.623047"/>
       <use xlink:href="#DejaVuSans-30" x="127.246094"/>
      </g>
     </g>
    </g>
    <g id="ytick_6">
     <g id="line2d_35">
      <path d="M 38.904688 82.077366 
L 982.876106 82.077366 
" clip-path="url(#p514c5881ae)" style="fill: none; stroke-dasharray: 2.96,1.28; stroke-dashoffset: 0; stroke: #b0b0b0; stroke-width: 0.8"/>
     </g>
     <g id="line2d_36">
      <g>
       <use xlink:href="#m5a9c3efd42" x="38.904688" y="82.077366" style="stroke: #000000; stroke-width: 0.8"/>
      </g>
     </g>
     <g id="text_6">
      <!-- 900 -->
      <g transform="translate(12.817187 85.876585)scale(0.1 -0.1)">
       <defs>
        <path id="DejaVuSans-39" d="M 703 97 
L 703 672 
Q 941 559 1184 500 
Q 1428 441 1663 441 
Q 2288 441 2617 861 
Q 2947 1281 2994 2138 
Q 2813 1869 2534 1725 
Q 2256 1581 1919 1581 
Q 1219 1581 811 2004 
Q 403 2428 403 3163 
Q 403 3881 828 4315 
Q 1253 4750 1959 4750 
Q 2769 4750 3195 4129 
Q 3622 3509 3622 2328 
Q 3622 1225 3098 567 
Q 2575 -91 1691 -91 
Q 1453 -91 1209 -44 
Q 966 3 703 97 
z
M 1959 2075 
Q 2384 2075 2632 2365 
Q 2881 2656 2881 3163 
Q 2881 3666 2632 3958 
Q 2384 4250 1959 4250 
Q 1534 4250 1286 3958 
Q 1038 3666 1038 3163 
Q 1038 2656 1286 2365 
Q 1534 2075 1959 2075 
z
" transform="scale(0.015625)"/>
       </defs>
       <use xlink:href="#DejaVuSans-39"/>
       <use xlink:href="#DejaVuSans-30" x="63.623047"/>
       <use xlink:href="#DejaVuSans-30" x="127.246094"/>
      </g>
     </g>
    </g>
   </g>
   <g id="line2d_37">
    <path d="M 81.812479 196.428753 
L 84.502623 189.540624 
L 87.192767 176.694053 
L 89.88291 179.22956 
L 92.573054 172.299173 
L 100.643485 157.508713 
L 103.333629 157.59323 
L 106.023772 146.521514 
L 108.713916 145.718603 
L 111.40406 149.690898 
L 119.474491 150.282517 
L 122.164634 147.070874 
L 124.854778 159.325827 
L 127.544922 157.931298 
L 130.235066 162.79102 
L 138.305497 167.904294 
L 140.99564 165.199752 
L 146.375928 171.115936 
L 149.066071 182.52572 
L 157.136502 176.060176 
L 159.826646 157.889039 
L 162.51679 154.973206 
L 165.206933 159.030018 
L 167.897077 162.326177 
L 175.967508 178.088582 
L 178.657652 172.93305 
L 181.347796 164.227808 
L 184.037939 161.945851 
L 186.728083 174.369838 
L 194.798514 205.725613 
L 197.488658 186.836083 
L 200.178801 196.978112 
L 202.868945 208.55693 
L 205.559089 209.782425 
L 213.62952 205.091736 
L 216.319663 207.754019 
L 219.009807 213.416652 
L 221.699951 244.856945 
L 224.390094 225.713864 
L 232.460525 215.022474 
L 237.840813 238.560435 
L 240.530957 252.547984 
L 243.2211 261.210968 
L 251.291531 290.20027 
L 253.981675 280.692117 
L 256.671819 278.621453 
L 259.361962 270.888155 
L 262.052106 269.789435 
L 270.122537 254.365098 
L 272.812681 253.350895 
L 275.502824 244.349843 
L 278.192968 234.123297 
L 288.953543 242.025628 
L 291.643687 235.729118 
L 294.33383 235.644601 
L 297.023974 247.561486 
L 299.714118 251.745073 
L 307.784549 242.363696 
L 310.474692 238.180109 
L 313.164836 224.99547 
L 315.85498 225.502571 
L 318.545123 220.473815 
L 326.615554 211.726314 
L 329.305698 215.783126 
L 331.995842 215.95216 
L 334.685985 210.078234 
L 337.376129 205.218512 
L 345.44656 200.739115 
L 348.136704 197.147146 
L 350.826848 198.499417 
L 364.277566 202.26042 
L 366.96771 195.076482 
L 369.657853 204.16205 
L 372.347997 198.4149 
L 375.038141 210.838887 
L 385.798715 205.683355 
L 388.488859 220.093489 
L 391.179003 211.261471 
L 393.869146 214.515372 
L 401.939578 216.459261 
L 407.319865 230.615845 
L 410.010009 226.770325 
L 412.700152 234.84169 
L 420.770583 242.363696 
L 423.460727 241.560785 
L 426.150871 239.109795 
L 431.531158 270.254278 
L 439.601589 265.479072 
L 442.291733 242.659505 
L 444.981876 244.899203 
L 447.67202 259.309337 
L 450.362164 243.039831 
L 458.432595 241.772077 
L 461.122739 244.223068 
L 463.812882 239.828188 
L 466.503026 227.023876 
L 469.19317 217.473464 
L 477.263601 210.120493 
L 479.953744 206.444007 
L 482.643888 206.613041 
L 485.334032 209.064031 
L 488.024175 213.670203 
L 496.094606 211.599539 
L 498.78475 221.318984 
L 501.474894 226.178707 
L 504.165037 223.431907 
L 506.855181 234.207814 
L 514.925612 261.253226 
L 517.615756 263.366149 
L 520.3059 261.887103 
L 522.996043 269.282333 
L 525.686187 262.225171 
L 533.756618 262.985823 
L 536.446762 254.407356 
L 539.136905 262.436463 
L 541.827049 251.82959 
L 544.517193 239.743672 
L 552.587624 236.447512 
L 555.277767 242.405954 
L 557.967911 248.786981 
L 560.658055 245.025979 
L 563.348198 247.815037 
L 571.41863 234.123297 
L 574.108773 234.672657 
L 576.798917 229.179057 
L 579.489061 215.614092 
L 582.179204 204.035275 
L 590.249635 192.371941 
L 592.939779 200.485564 
L 595.629923 206.148198 
L 598.320066 206.824333 
L 601.01021 207.838536 
L 609.080641 190.259018 
L 611.770785 182.948305 
L 614.460928 180.87764 
L 617.151072 178.42665 
L 619.841216 166.552023 
L 627.911647 165.833629 
L 630.601791 169.721407 
L 633.291934 166.171697 
L 635.982078 154.254812 
L 638.672222 150.874135 
L 646.742653 146.817323 
L 649.432796 151.592529 
L 652.12294 145.634087 
L 654.813084 149.479606 
L 657.503227 134.30882 
L 665.573658 135.365281 
L 670.953946 125.392285 
L 673.64409 116.137683 
L 676.334233 103.713697 
L 687.094808 99.614626 
L 689.784952 96.23395 
L 692.475095 94.670387 
L 695.165239 107.094373 
L 703.23567 122.434193 
L 705.925814 112.587973 
L 708.615957 104.643383 
L 711.306101 105.446293 
L 713.996245 106.714047 
L 722.066676 119.391584 
L 724.756819 92.811015 
L 730.137107 103.755955 
L 732.827251 105.404035 
L 740.897682 96.910085 
L 743.587825 95.895882 
L 746.277969 102.192392 
L 748.968113 83.091569 
L 751.658256 81.020905 
L 759.728687 75.992148 
L 762.418831 73.625675 
L 765.108975 66.779805 
L 767.799118 67.202389 
L 770.489262 74.386327 
L 778.559693 82.753502 
L 781.249837 67.920783 
L 783.939981 69.188537 
L 786.630124 79.203791 
L 789.320268 97.079119 
L 797.390699 114.996705 
L 800.080843 122.180643 
L 802.770986 124.758408 
L 805.46113 129.491356 
L 808.151274 114.193794 
L 816.221705 125.730353 
L 818.911848 109.418588 
L 824.292136 94.374577 
L 826.982279 96.825568 
L 835.05271 97.501703 
L 837.742854 106.925339 
L 840.432998 108.82697 
L 843.123142 121.293215 
L 845.813285 107.221149 
L 853.883716 94.58587 
L 856.57386 84.697391 
L 859.264004 88.754203 
L 861.954147 91.670036 
L 864.644291 76.034407 
L 872.714722 59.849418 
L 875.404866 60.905879 
L 880.785153 61.455239 
L 883.475297 75.442788 
L 891.545728 74.724395 
L 894.235872 74.808912 
L 896.926015 78.105071 
L 899.616159 74.766653 
L 902.306303 77.59797 
L 910.376734 67.286906 
L 915.757021 73.20309 
L 918.447165 73.034056 
L 921.137308 76.541508 
L 929.207739 86.345471 
L 931.897883 72.188887 
L 934.588027 70.583066 
L 937.27817 65.343017 
L 939.968314 64.878174 
L 939.968314 64.878174 
" clip-path="url(#p514c5881ae)" style="fill: none; stroke: #1f77b4; stroke-width: 1.5; stroke-linecap: square"/>
   </g>
   <g id="line2d_38">
    <path d="M 92.573054 182.838433 
L 100.643485 175.054425 
L 103.333629 168.664946 
L 106.023772 162.630438 
L 108.713916 155.928247 
L 111.40406 151.406592 
L 119.474491 149.961353 
L 122.164634 147.856881 
L 130.235066 155.480307 
L 138.305497 159.004662 
L 140.99564 162.630438 
L 146.375928 164.98846 
L 149.066071 169.907345 
L 157.136502 172.561176 
L 162.51679 168.512815 
L 165.206933 166.095632 
L 167.897077 162.055723 
L 175.967508 162.461404 
L 178.657652 165.470206 
L 181.347796 167.321127 
L 184.037939 167.904294 
L 186.728083 170.313026 
L 194.798514 175.840432 
L 197.488658 178.621038 
L 200.178801 185.171099 
L 202.868945 194.493315 
L 205.559089 201.575833 
L 213.62952 201.449057 
L 216.319663 205.632645 
L 219.009807 208.920353 
L 221.699951 216.180356 
L 224.390094 219.366643 
L 232.460525 221.352791 
L 237.840813 227.514074 
L 240.530957 235.34034 
L 243.2211 238.611145 
L 251.291531 251.508426 
L 253.981675 264.642355 
L 256.671819 272.654558 
L 259.361962 276.322592 
L 262.052106 278.038286 
L 270.122537 270.871251 
L 272.812681 265.403007 
L 275.502824 258.548685 
L 278.192968 251.195714 
L 288.953543 245.642952 
L 294.33383 238.374498 
L 297.023974 239.016826 
L 299.714118 242.541181 
L 307.784549 242.608795 
L 310.474692 243.098993 
L 313.164836 240.969167 
L 315.85498 236.557384 
L 318.545123 230.303132 
L 326.615554 224.175656 
L 329.305698 219.696259 
L 331.995842 217.887597 
L 337.376129 211.751669 
L 345.44656 209.554229 
L 348.136704 205.827033 
L 350.826848 202.336485 
L 364.277566 200.772922 
L 366.96771 198.744516 
L 369.657853 199.429103 
L 372.347997 199.682654 
L 375.038141 202.150548 
L 383.108572 203.097137 
L 385.798715 205.218512 
L 388.488859 208.404799 
L 391.179003 210.974114 
L 393.869146 211.709411 
L 401.939578 213.60259 
L 407.319865 218.589088 
L 410.010009 219.924455 
L 412.700152 224.640499 
L 420.770583 230.210164 
L 423.460727 235.230468 
L 426.150871 236.929258 
L 428.841014 242.507375 
L 431.531158 249.589892 
L 439.601589 254.212967 
L 442.291733 254.432711 
L 444.981876 255.590593 
L 447.67202 256.520279 
L 450.362164 251.07739 
L 458.432595 246.335991 
L 461.122739 246.648704 
L 463.812882 245.634501 
L 466.503026 239.177408 
L 469.19317 234.064135 
L 477.263601 227.733818 
L 479.953744 220.178006 
L 482.643888 213.534976 
L 485.334032 209.943007 
L 488.024175 209.182355 
L 496.094606 209.478164 
L 498.78475 212.45316 
L 501.474894 216.366293 
L 504.165037 219.239868 
L 506.855181 223.34739 
L 514.925612 233.278128 
L 517.615756 241.687561 
L 520.3059 248.82924 
L 522.996043 257.999325 
L 525.686187 263.602797 
L 533.756618 263.949316 
L 536.446762 262.157557 
L 539.136905 262.267429 
L 541.827049 258.776881 
L 544.517193 254.280581 
L 552.587624 248.972919 
L 555.277767 246.572638 
L 557.967911 243.842742 
L 560.658055 242.48202 
L 563.348198 244.096293 
L 571.41863 243.63145 
L 574.108773 242.08479 
L 576.798917 238.163205 
L 579.489061 232.280828 
L 582.179204 223.524876 
L 590.249635 215.174604 
L 592.939779 208.337186 
L 595.629923 203.731014 
L 598.320066 201.973062 
L 601.01021 202.733714 
L 609.080641 202.31113 
L 611.770785 198.803678 
L 614.460928 193.749566 
L 617.151072 188.07003 
L 619.841216 179.812727 
L 627.911647 174.927649 
L 630.601791 172.28227 
L 633.291934 169.341081 
L 635.982078 164.506714 
L 638.672222 161.371136 
L 646.742653 157.567875 
L 649.432796 153.942099 
L 652.12294 149.834577 
L 654.813084 148.879536 
L 657.503227 145.566473 
L 665.573658 143.276065 
L 670.953946 138.036016 
L 673.64409 132.136735 
L 676.334233 122.983553 
L 687.094808 116.044715 
L 689.784952 108.218448 
L 692.475095 102.074068 
L 695.165239 100.265406 
L 703.23567 104.009506 
L 705.925814 106.604175 
L 708.615957 108.286062 
L 711.306101 110.441243 
L 713.996245 110.365178 
L 722.066676 109.756656 
L 724.756819 105.801264 
L 732.827251 105.615327 
L 740.897682 103.654535 
L 743.587825 98.955394 
L 746.277969 100.83167 
L 748.968113 96.698793 
L 751.658256 91.822167 
L 759.728687 87.638579 
L 762.418831 83.184538 
L 765.108975 76.10202 
L 767.799118 72.924184 
L 770.489262 71.597269 
L 778.559693 72.949539 
L 781.249837 71.808561 
L 783.939981 72.290308 
L 786.630124 74.690588 
L 789.320268 79.229146 
L 797.390699 85.677787 
L 802.770986 107.643733 
L 805.46113 117.701246 
L 808.151274 121.124181 
L 816.221705 123.270911 
L 818.911848 120.7185 
L 824.292136 114.641734 
L 826.982279 108.108576 
L 835.05271 104.770158 
L 837.742854 101.009155 
L 840.432998 100.890832 
L 843.123142 106.274559 
L 845.813285 108.353675 
L 853.883716 107.770509 
L 856.57386 103.324919 
L 859.264004 99.310365 
L 861.954147 93.38573 
L 864.644291 87.148381 
L 872.714722 80.201091 
L 875.404866 75.442788 
L 880.785153 69.982996 
L 883.475297 66.737546 
L 891.545728 66.475544 
L 894.235872 69.467443 
L 896.926015 72.907281 
L 899.616159 75.569564 
L 902.306303 76.0006 
L 910.376734 74.513102 
L 915.757021 74.191938 
L 918.447165 73.177735 
L 921.137308 73.532706 
L 929.207739 75.282206 
L 931.897883 76.262603 
L 934.588027 75.738598 
L 937.27817 74.20039 
L 939.968314 71.867723 
L 939.968314 71.867723 
" clip-path="url(#p514c5881ae)" style="fill: none; stroke: #ff7f0e; stroke-width: 1.5; stroke-linecap: square"/>
   </g>
   <g id="patch_3">
    <path d="M 38.904688 301.717813 
L 38.904688 48.331875 
" style="fill: none; stroke: #000000; stroke-width: 0.8; stroke-linejoin: miter; stroke-linecap: square"/>
   </g>
   <g id="patch_4">
    <path d="M 982.876106 301.717813 
L 982.876106 48.331875 
" style="fill: none; stroke: #000000; stroke-width: 0.8; stroke-linejoin: miter; stroke-linecap: square"/>
   </g>
   <g id="patch_5">
    <path d="M 38.904687 301.717812 
L 982.876106 301.717812 
" style="fill: none; stroke: #000000; stroke-width: 0.8; stroke-linejoin: miter; stroke-linecap: square"/>
   </g>
   <g id="patch_6">
    <path d="M 38.904687 48.331875 
L 982.876106 48.331875 
" style="fill: none; stroke: #000000; stroke-width: 0.8; stroke-linejoin: miter; stroke-linecap: square"/>
   </g>
   <g id="text_7">
    <!-- Closing Price -->
    <g transform="translate(472.414459 42.331875)scale(0.12 -0.12)">
     <defs>
      <path id="DejaVuSans-43" d="M 4122 4306 
L 4122 3641 
Q 3803 3938 3442 4084 
Q 3081 4231 2675 4231 
Q 1875 4231 1450 3742 
Q 1025 3253 1025 2328 
Q 1025 1406 1450 917 
Q 1875 428 2675 428 
Q 3081 428 3442 575 
Q 3803 722 4122 1019 
L 4122 359 
Q 3791 134 3420 21 
Q 3050 -91 2638 -91 
Q 1578 -91 968 557 
Q 359 1206 359 2328 
Q 359 3453 968 4101 
Q 1578 4750 2638 4750 
Q 3056 4750 3426 4639 
Q 3797 4528 4122 4306 
z
" transform="scale(0.015625)"/>
      <path id="DejaVuSans-6c" d="M 603 4863 
L 1178 4863 
L 1178 0 
L 603 0 
L 603 4863 
z
" transform="scale(0.015625)"/>
      <path id="DejaVuSans-6f" d="M 1959 3097 
Q 1497 3097 1228 2736 
Q 959 2375 959 1747 
Q 959 1119 1226 758 
Q 1494 397 1959 397 
Q 2419 397 2687 759 
Q 2956 1122 2956 1747 
Q 2956 2369 2687 2733 
Q 2419 3097 1959 3097 
z
M 1959 3584 
Q 2709 3584 3137 3096 
Q 3566 2609 3566 1747 
Q 3566 888 3137 398 
Q 2709 -91 1959 -91 
Q 1206 -91 779 398 
Q 353 888 353 1747 
Q 353 2609 779 3096 
Q 1206 3584 1959 3584 
z
" transform="scale(0.015625)"/>
      <path id="DejaVuSans-73" d="M 2834 3397 
L 2834 2853 
Q 2591 2978 2328 3040 
Q 2066 3103 1784 3103 
Q 1356 3103 1142 2972 
Q 928 2841 928 2578 
Q 928 2378 1081 2264 
Q 1234 2150 1697 2047 
L 1894 2003 
Q 2506 1872 2764 1633 
Q 3022 1394 3022 966 
Q 3022 478 2636 193 
Q 2250 -91 1575 -91 
Q 1294 -91 989 -36 
Q 684 19 347 128 
L 347 722 
Q 666 556 975 473 
Q 1284 391 1588 391 
Q 1994 391 2212 530 
Q 2431 669 2431 922 
Q 2431 1156 2273 1281 
Q 2116 1406 1581 1522 
L 1381 1569 
Q 847 1681 609 1914 
Q 372 2147 372 2553 
Q 372 3047 722 3315 
Q 1072 3584 1716 3584 
Q 2034 3584 2315 3537 
Q 2597 3491 2834 3397 
z
" transform="scale(0.015625)"/>
      <path id="DejaVuSans-69" d="M 603 3500 
L 1178 3500 
L 1178 0 
L 603 0 
L 603 3500 
z
M 603 4863 
L 1178 4863 
L 1178 4134 
L 603 4134 
L 603 4863 
z
" transform="scale(0.015625)"/>
      <path id="DejaVuSans-6e" d="M 3513 2113 
L 3513 0 
L 2938 0 
L 2938 2094 
Q 2938 2591 2744 2837 
Q 2550 3084 2163 3084 
Q 1697 3084 1428 2787 
Q 1159 2491 1159 1978 
L 1159 0 
L 581 0 
L 581 3500 
L 1159 3500 
L 1159 2956 
Q 1366 3272 1645 3428 
Q 1925 3584 2291 3584 
Q 2894 3584 3203 3211 
Q 3513 2838 3513 2113 
z
" transform="scale(0.015625)"/>
      <path id="DejaVuSans-67" d="M 2906 1791 
Q 2906 2416 2648 2759 
Q 2391 3103 1925 3103 
Q 1463 3103 1205 2759 
Q 947 2416 947 1791 
Q 947 1169 1205 825 
Q 1463 481 1925 481 
Q 2391 481 2648 825 
Q 2906 1169 2906 1791 
z
M 3481 434 
Q 3481 -459 3084 -895 
Q 2688 -1331 1869 -1331 
Q 1566 -1331 1297 -1286 
Q 1028 -1241 775 -1147 
L 775 -588 
Q 1028 -725 1275 -790 
Q 1522 -856 1778 -856 
Q 2344 -856 2625 -561 
Q 2906 -266 2906 331 
L 2906 616 
Q 2728 306 2450 153 
Q 2172 0 1784 0 
Q 1141 0 747 490 
Q 353 981 353 1791 
Q 353 2603 747 3093 
Q 1141 3584 1784 3584 
Q 2172 3584 2450 3431 
Q 2728 3278 2906 2969 
L 2906 3500 
L 3481 3500 
L 3481 434 
z
" transform="scale(0.015625)"/>
      <path id="DejaVuSans-20" transform="scale(0.015625)"/>
      <path id="DejaVuSans-50" d="M 1259 4147 
L 1259 2394 
L 2053 2394 
Q 2494 2394 2734 2622 
Q 2975 2850 2975 3272 
Q 2975 3691 2734 3919 
Q 2494 4147 2053 4147 
L 1259 4147 
z
M 628 4666 
L 2053 4666 
Q 2838 4666 3239 4311 
Q 3641 3956 3641 3272 
Q 3641 2581 3239 2228 
Q 2838 1875 2053 1875 
L 1259 1875 
L 1259 0 
L 628 0 
L 628 4666 
z
" transform="scale(0.015625)"/>
      <path id="DejaVuSans-72" d="M 2631 2963 
Q 2534 3019 2420 3045 
Q 2306 3072 2169 3072 
Q 1681 3072 1420 2755 
Q 1159 2438 1159 1844 
L 1159 0 
L 581 0 
L 581 3500 
L 1159 3500 
L 1159 2956 
Q 1341 3275 1631 3429 
Q 1922 3584 2338 3584 
Q 2397 3584 2469 3576 
Q 2541 3569 2628 3553 
L 2631 2963 
z
" transform="scale(0.015625)"/>
      <path id="DejaVuSans-63" d="M 3122 3366 
L 3122 2828 
Q 2878 2963 2633 3030 
Q 2388 3097 2138 3097 
Q 1578 3097 1268 2742 
Q 959 2388 959 1747 
Q 959 1106 1268 751 
Q 1578 397 2138 397 
Q 2388 397 2633 464 
Q 2878 531 3122 666 
L 3122 134 
Q 2881 22 2623 -34 
Q 2366 -91 2075 -91 
Q 1284 -91 818 406 
Q 353 903 353 1747 
Q 353 2603 823 3093 
Q 1294 3584 2113 3584 
Q 2378 3584 2631 3529 
Q 2884 3475 3122 3366 
z
" transform="scale(0.015625)"/>
      <path id="DejaVuSans-65" d="M 3597 1894 
L 3597 1613 
L 953 1613 
Q 991 1019 1311 708 
Q 1631 397 2203 397 
Q 2534 397 2845 478 
Q 3156 559 3463 722 
L 3463 178 
Q 3153 47 2828 -22 
Q 2503 -91 2169 -91 
Q 1331 -91 842 396 
Q 353 884 353 1716 
Q 353 2575 817 3079 
Q 1281 3584 2069 3584 
Q 2775 3584 3186 3129 
Q 3597 2675 3597 1894 
z
M 3022 2063 
Q 3016 2534 2758 2815 
Q 2500 3097 2075 3097 
Q 1594 3097 1305 2825 
Q 1016 2553 972 2059 
L 3022 2063 
z
" transform="scale(0.015625)"/>
     </defs>
     <use xlink:href="#DejaVuSans-43"/>
     <use xlink:href="#DejaVuSans-6c" x="69.824219"/>
     <use xlink:href="#DejaVuSans-6f" x="97.607422"/>
     <use xlink:href="#DejaVuSans-73" x="158.789062"/>
     <use xlink:href="#DejaVuSans-69" x="210.888672"/>
     <use xlink:href="#DejaVuSans-6e" x="238.671875"/>
     <use xlink:href="#DejaVuSans-67" x="302.050781"/>
     <use xlink:href="#DejaVuSans-20" x="365.527344"/>
     <use xlink:href="#DejaVuSans-50" x="397.314453"/>
     <use xlink:href="#DejaVuSans-72" x="455.867188"/>
     <use xlink:href="#DejaVuSans-69" x="496.980469"/>
     <use xlink:href="#DejaVuSans-63" x="524.763672"/>
     <use xlink:href="#DejaVuSans-65" x="579.744141"/>
    </g>
   </g>
   <g id="legend_1">
    <g id="patch_7">
     <path d="M 45.904688 85.688125 
L 110.635938 85.688125 
Q 112.635938 85.688125 112.635938 83.688125 
L 112.635938 55.331875 
Q 112.635938 53.331875 110.635938 53.331875 
L 45.904688 53.331875 
Q 43.904688 53.331875 43.904688 55.331875 
L 43.904688 83.688125 
Q 43.904688 85.688125 45.904688 85.688125 
z
" style="fill: #ffffff; opacity: 0.8; stroke: #cccccc; stroke-linejoin: miter"/>
    </g>
    <g id="line2d_39">
     <path d="M 47.904688 61.430312 
L 57.904688 61.430312 
L 67.904687 61.430312 
" style="fill: none; stroke: #1f77b4; stroke-width: 1.5; stroke-linecap: square"/>
    </g>
    <g id="text_8">
     <!-- CLOSE -->
     <g transform="translate(75.904687 64.930312)scale(0.1 -0.1)">
      <defs>
       <path id="DejaVuSans-4c" d="M 628 4666 
L 1259 4666 
L 1259 531 
L 3531 531 
L 3531 0 
L 628 0 
L 628 4666 
z
" transform="scale(0.015625)"/>
       <path id="DejaVuSans-4f" d="M 2522 4238 
Q 1834 4238 1429 3725 
Q 1025 3213 1025 2328 
Q 1025 1447 1429 934 
Q 1834 422 2522 422 
Q 3209 422 3611 934 
Q 4013 1447 4013 2328 
Q 4013 3213 3611 3725 
Q 3209 4238 2522 4238 
z
M 2522 4750 
Q 3503 4750 4090 4092 
Q 4678 3434 4678 2328 
Q 4678 1225 4090 567 
Q 3503 -91 2522 -91 
Q 1538 -91 948 565 
Q 359 1222 359 2328 
Q 359 3434 948 4092 
Q 1538 4750 2522 4750 
z
" transform="scale(0.015625)"/>
       <path id="DejaVuSans-53" d="M 3425 4513 
L 3425 3897 
Q 3066 4069 2747 4153 
Q 2428 4238 2131 4238 
Q 1616 4238 1336 4038 
Q 1056 3838 1056 3469 
Q 1056 3159 1242 3001 
Q 1428 2844 1947 2747 
L 2328 2669 
Q 3034 2534 3370 2195 
Q 3706 1856 3706 1288 
Q 3706 609 3251 259 
Q 2797 -91 1919 -91 
Q 1588 -91 1214 -16 
Q 841 59 441 206 
L 441 856 
Q 825 641 1194 531 
Q 1563 422 1919 422 
Q 2459 422 2753 634 
Q 3047 847 3047 1241 
Q 3047 1584 2836 1778 
Q 2625 1972 2144 2069 
L 1759 2144 
Q 1053 2284 737 2584 
Q 422 2884 422 3419 
Q 422 4038 858 4394 
Q 1294 4750 2059 4750 
Q 2388 4750 2728 4690 
Q 3069 4631 3425 4513 
z
" transform="scale(0.015625)"/>
       <path id="DejaVuSans-45" d="M 628 4666 
L 3578 4666 
L 3578 4134 
L 1259 4134 
L 1259 2753 
L 3481 2753 
L 3481 2222 
L 1259 2222 
L 1259 531 
L 3634 531 
L 3634 0 
L 628 0 
L 628 4666 
z
" transform="scale(0.015625)"/>
      </defs>
      <use xlink:href="#DejaVuSans-43"/>
      <use xlink:href="#DejaVuSans-4c" x="69.824219"/>
      <use xlink:href="#DejaVuSans-4f" x="121.912109"/>
      <use xlink:href="#DejaVuSans-53" x="200.623047"/>
      <use xlink:href="#DejaVuSans-45" x="264.099609"/>
     </g>
    </g>
    <g id="line2d_40">
     <path d="M 47.904688 76.108437 
L 57.904688 76.108437 
L 67.904687 76.108437 
" style="fill: none; stroke: #ff7f0e; stroke-width: 1.5; stroke-linecap: square"/>
    </g>
    <g id="text_9">
     <!-- SMA5 -->
     <g transform="translate(75.904687 79.608437)scale(0.1 -0.1)">
      <defs>
       <path id="DejaVuSans-4d" d="M 628 4666 
L 1569 4666 
L 2759 1491 
L 3956 4666 
L 4897 4666 
L 4897 0 
L 4281 0 
L 4281 4097 
L 3078 897 
L 2444 897 
L 1241 4097 
L 1241 0 
L 628 0 
L 628 4666 
z
" transform="scale(0.015625)"/>
       <path id="DejaVuSans-41" d="M 2188 4044 
L 1331 1722 
L 3047 1722 
L 2188 4044 
z
M 1831 4666 
L 2547 4666 
L 4325 0 
L 3669 0 
L 3244 1197 
L 1141 1197 
L 716 0 
L 50 0 
L 1831 4666 
z
" transform="scale(0.015625)"/>
      </defs>
      <use xlink:href="#DejaVuSans-53"/>
      <use xlink:href="#DejaVuSans-4d" x="63.476562"/>
      <use xlink:href="#DejaVuSans-41" x="149.755859"/>
      <use xlink:href="#DejaVuSans-35" x="218.164062"/>
     </g>
    </g>
   </g>
  </g>
  <g id="axes_2">
   <g id="patch_8">
    <path d="M 38.904688 584.521875 
L 982.876106 584.521875 
L 982.876106 331.135938 
L 38.904688 331.135938 
z
" style="fill: #ffffff"/>
   </g>
   <g id="matplotlib.axis_3">
    <g id="xtick_13">
     <g id="line2d_41">
      <path d="M 76.432192 584.521875 
L 76.432192 331.135938 
" clip-path="url(#pcdcd8f8497)" style="fill: none; stroke-dasharray: 2.96,1.28; stroke-dashoffset: 0; stroke: #b0b0b0; stroke-width: 0.8"/>
     </g>
     <g id="line2d_42">
      <g>
       <use xlink:href="#m2edd15b7ed" x="76.432192" y="584.521875" style="stroke: #000000; stroke-width: 0.8"/>
      </g>
     </g>
     <g id="text_10">
      <!-- 2022-01 -->
      <g transform="translate(55.540786 599.120312)scale(0.1 -0.1)">
       <defs>
        <path id="DejaVuSans-32" d="M 1228 531 
L 3431 531 
L 3431 0 
L 469 0 
L 469 531 
Q 828 903 1448 1529 
Q 2069 2156 2228 2338 
Q 2531 2678 2651 2914 
Q 2772 3150 2772 3378 
Q 2772 3750 2511 3984 
Q 2250 4219 1831 4219 
Q 1534 4219 1204 4116 
Q 875 4013 500 3803 
L 500 4441 
Q 881 4594 1212 4672 
Q 1544 4750 1819 4750 
Q 2544 4750 2975 4387 
Q 3406 4025 3406 3419 
Q 3406 3131 3298 2873 
Q 3191 2616 2906 2266 
Q 2828 2175 2409 1742 
Q 1991 1309 1228 531 
z
" transform="scale(0.015625)"/>
        <path id="DejaVuSans-2d" d="M 313 2009 
L 1997 2009 
L 1997 1497 
L 313 1497 
L 313 2009 
z
" transform="scale(0.015625)"/>
        <path id="DejaVuSans-31" d="M 794 531 
L 1825 531 
L 1825 4091 
L 703 3866 
L 703 4441 
L 1819 4666 
L 2450 4666 
L 2450 531 
L 3481 531 
L 3481 0 
L 794 0 
L 794 531 
z
" transform="scale(0.015625)"/>
       </defs>
       <use xlink:href="#DejaVuSans-32"/>
       <use xlink:href="#DejaVuSans-30" x="63.623047"/>
       <use xlink:href="#DejaVuSans-32" x="127.246094"/>
       <use xlink:href="#DejaVuSans-32" x="190.869141"/>
       <use xlink:href="#DejaVuSans-2d" x="254.492188"/>
       <use xlink:href="#DejaVuSans-30" x="290.576172"/>
       <use xlink:href="#DejaVuSans-31" x="354.199219"/>
      </g>
     </g>
    </g>
    <g id="xtick_14">
     <g id="line2d_43">
      <path d="M 159.826646 584.521875 
L 159.826646 331.135938 
" clip-path="url(#pcdcd8f8497)" style="fill: none; stroke-dasharray: 2.96,1.28; stroke-dashoffset: 0; stroke: #b0b0b0; stroke-width: 0.8"/>
     </g>
     <g id="line2d_44">
      <g>
       <use xlink:href="#m2edd15b7ed" x="159.826646" y="584.521875" style="stroke: #000000; stroke-width: 0.8"/>
      </g>
     </g>
     <g id="text_11">
      <!-- 2022-02 -->
      <g transform="translate(138.93524 599.120312)scale(0.1 -0.1)">
       <use xlink:href="#DejaVuSans-32"/>
       <use xlink:href="#DejaVuSans-30" x="63.623047"/>
       <use xlink:href="#DejaVuSans-32" x="127.246094"/>
       <use xlink:href="#DejaVuSans-32" x="190.869141"/>
       <use xlink:href="#DejaVuSans-2d" x="254.492188"/>
       <use xlink:href="#DejaVuSans-30" x="290.576172"/>
       <use xlink:href="#DejaVuSans-32" x="354.199219"/>
      </g>
     </g>
    </g>
    <g id="xtick_15">
     <g id="line2d_45">
      <path d="M 235.150669 584.521875 
L 235.150669 331.135938 
" clip-path="url(#pcdcd8f8497)" style="fill: none; stroke-dasharray: 2.96,1.28; stroke-dashoffset: 0; stroke: #b0b0b0; stroke-width: 0.8"/>
     </g>
     <g id="line2d_46">
      <g>
       <use xlink:href="#m2edd15b7ed" x="235.150669" y="584.521875" style="stroke: #000000; stroke-width: 0.8"/>
      </g>
     </g>
     <g id="text_12">
      <!-- 2022-03 -->
      <g transform="translate(214.259263 599.120312)scale(0.1 -0.1)">
       <defs>
        <path id="DejaVuSans-33" d="M 2597 2516 
Q 3050 2419 3304 2112 
Q 3559 1806 3559 1356 
Q 3559 666 3084 287 
Q 2609 -91 1734 -91 
Q 1441 -91 1130 -33 
Q 819 25 488 141 
L 488 750 
Q 750 597 1062 519 
Q 1375 441 1716 441 
Q 2309 441 2620 675 
Q 2931 909 2931 1356 
Q 2931 1769 2642 2001 
Q 2353 2234 1838 2234 
L 1294 2234 
L 1294 2753 
L 1863 2753 
Q 2328 2753 2575 2939 
Q 2822 3125 2822 3475 
Q 2822 3834 2567 4026 
Q 2313 4219 1838 4219 
Q 1578 4219 1281 4162 
Q 984 4106 628 3988 
L 628 4550 
Q 988 4650 1302 4700 
Q 1616 4750 1894 4750 
Q 2613 4750 3031 4423 
Q 3450 4097 3450 3541 
Q 3450 3153 3228 2886 
Q 3006 2619 2597 2516 
z
" transform="scale(0.015625)"/>
       </defs>
       <use xlink:href="#DejaVuSans-32"/>
       <use xlink:href="#DejaVuSans-30" x="63.623047"/>
       <use xlink:href="#DejaVuSans-32" x="127.246094"/>
       <use xlink:href="#DejaVuSans-32" x="190.869141"/>
       <use xlink:href="#DejaVuSans-2d" x="254.492188"/>
       <use xlink:href="#DejaVuSans-30" x="290.576172"/>
       <use xlink:href="#DejaVuSans-33" x="354.199219"/>
      </g>
     </g>
    </g>
    <g id="xtick_16">
     <g id="line2d_47">
      <path d="M 318.545123 584.521875 
L 318.545123 331.135938 
" clip-path="url(#pcdcd8f8497)" style="fill: none; stroke-dasharray: 2.96,1.28; stroke-dashoffset: 0; stroke: #b0b0b0; stroke-width: 0.8"/>
     </g>
     <g id="line2d_48">
      <g>
       <use xlink:href="#m2edd15b7ed" x="318.545123" y="584.521875" style="stroke: #000000; stroke-width: 0.8"/>
      </g>
     </g>
     <g id="text_13">
      <!-- 2022-04 -->
      <g transform="translate(297.653717 599.120312)scale(0.1 -0.1)">
       <defs>
        <path id="DejaVuSans-34" d="M 2419 4116 
L 825 1625 
L 2419 1625 
L 2419 4116 
z
M 2253 4666 
L 3047 4666 
L 3047 1625 
L 3713 1625 
L 3713 1100 
L 3047 1100 
L 3047 0 
L 2419 0 
L 2419 1100 
L 313 1100 
L 313 1709 
L 2253 4666 
z
" transform="scale(0.015625)"/>
       </defs>
       <use xlink:href="#DejaVuSans-32"/>
       <use xlink:href="#DejaVuSans-30" x="63.623047"/>
       <use xlink:href="#DejaVuSans-32" x="127.246094"/>
       <use xlink:href="#DejaVuSans-32" x="190.869141"/>
       <use xlink:href="#DejaVuSans-2d" x="254.492188"/>
       <use xlink:href="#DejaVuSans-30" x="290.576172"/>
       <use xlink:href="#DejaVuSans-34" x="354.199219"/>
      </g>
     </g>
    </g>
    <g id="xtick_17">
     <g id="line2d_49">
      <path d="M 399.249434 584.521875 
L 399.249434 331.135938 
" clip-path="url(#pcdcd8f8497)" style="fill: none; stroke-dasharray: 2.96,1.28; stroke-dashoffset: 0; stroke: #b0b0b0; stroke-width: 0.8"/>
     </g>
     <g id="line2d_50">
      <g>
       <use xlink:href="#m2edd15b7ed" x="399.249434" y="584.521875" style="stroke: #000000; stroke-width: 0.8"/>
      </g>
     </g>
     <g id="text_14">
      <!-- 2022-05 -->
      <g transform="translate(378.358028 599.120312)scale(0.1 -0.1)">
       <use xlink:href="#DejaVuSans-32"/>
       <use xlink:href="#DejaVuSans-30" x="63.623047"/>
       <use xlink:href="#DejaVuSans-32" x="127.246094"/>
       <use xlink:href="#DejaVuSans-32" x="190.869141"/>
       <use xlink:href="#DejaVuSans-2d" x="254.492188"/>
       <use xlink:href="#DejaVuSans-30" x="290.576172"/>
       <use xlink:href="#DejaVuSans-35" x="354.199219"/>
      </g>
     </g>
    </g>
    <g id="xtick_18">
     <g id="line2d_51">
      <path d="M 482.643888 584.521875 
L 482.643888 331.135938 
" clip-path="url(#pcdcd8f8497)" style="fill: none; stroke-dasharray: 2.96,1.28; stroke-dashoffset: 0; stroke: #b0b0b0; stroke-width: 0.8"/>
     </g>
     <g id="line2d_52">
      <g>
       <use xlink:href="#m2edd15b7ed" x="482.643888" y="584.521875" style="stroke: #000000; stroke-width: 0.8"/>
      </g>
     </g>
     <g id="text_15">
      <!-- 2022-06 -->
      <g transform="translate(461.752482 599.120312)scale(0.1 -0.1)">
       <use xlink:href="#DejaVuSans-32"/>
       <use xlink:href="#DejaVuSans-30" x="63.623047"/>
       <use xlink:href="#DejaVuSans-32" x="127.246094"/>
       <use xlink:href="#DejaVuSans-32" x="190.869141"/>
       <use xlink:href="#DejaVuSans-2d" x="254.492188"/>
       <use xlink:href="#DejaVuSans-30" x="290.576172"/>
       <use xlink:href="#DejaVuSans-36" x="354.199219"/>
      </g>
     </g>
    </g>
    <g id="xtick_19">
     <g id="line2d_53">
      <path d="M 563.348198 584.521875 
L 563.348198 331.135938 
" clip-path="url(#pcdcd8f8497)" style="fill: none; stroke-dasharray: 2.96,1.28; stroke-dashoffset: 0; stroke: #b0b0b0; stroke-width: 0.8"/>
     </g>
     <g id="line2d_54">
      <g>
       <use xlink:href="#m2edd15b7ed" x="563.348198" y="584.521875" style="stroke: #000000; stroke-width: 0.8"/>
      </g>
     </g>
     <g id="text_16">
      <!-- 2022-07 -->
      <g transform="translate(542.456792 599.120312)scale(0.1 -0.1)">
       <use xlink:href="#DejaVuSans-32"/>
       <use xlink:href="#DejaVuSans-30" x="63.623047"/>
       <use xlink:href="#DejaVuSans-32" x="127.246094"/>
       <use xlink:href="#DejaVuSans-32" x="190.869141"/>
       <use xlink:href="#DejaVuSans-2d" x="254.492188"/>
       <use xlink:href="#DejaVuSans-30" x="290.576172"/>
       <use xlink:href="#DejaVuSans-37" x="354.199219"/>
      </g>
     </g>
    </g>
    <g id="xtick_20">
     <g id="line2d_55">
      <path d="M 646.742653 584.521875 
L 646.742653 331.135938 
" clip-path="url(#pcdcd8f8497)" style="fill: none; stroke-dasharray: 2.96,1.28; stroke-dashoffset: 0; stroke: #b0b0b0; stroke-width: 0.8"/>
     </g>
     <g id="line2d_56">
      <g>
       <use xlink:href="#m2edd15b7ed" x="646.742653" y="584.521875" style="stroke: #000000; stroke-width: 0.8"/>
      </g>
     </g>
     <g id="text_17">
      <!-- 2022-08 -->
      <g transform="translate(625.851246 599.120312)scale(0.1 -0.1)">
       <use xlink:href="#DejaVuSans-32"/>
       <use xlink:href="#DejaVuSans-30" x="63.623047"/>
       <use xlink:href="#DejaVuSans-32" x="127.246094"/>
       <use xlink:href="#DejaVuSans-32" x="190.869141"/>
       <use xlink:href="#DejaVuSans-2d" x="254.492188"/>
       <use xlink:href="#DejaVuSans-30" x="290.576172"/>
       <use xlink:href="#DejaVuSans-38" x="354.199219"/>
      </g>
     </g>
    </g>
    <g id="xtick_21">
     <g id="line2d_57">
      <path d="M 730.137107 584.521875 
L 730.137107 331.135938 
" clip-path="url(#pcdcd8f8497)" style="fill: none; stroke-dasharray: 2.96,1.28; stroke-dashoffset: 0; stroke: #b0b0b0; stroke-width: 0.8"/>
     </g>
     <g id="line2d_58">
      <g>
       <use xlink:href="#m2edd15b7ed" x="730.137107" y="584.521875" style="stroke: #000000; stroke-width: 0.8"/>
      </g>
     </g>
     <g id="text_18">
      <!-- 2022-09 -->
      <g transform="translate(709.245701 599.120312)scale(0.1 -0.1)">
       <use xlink:href="#DejaVuSans-32"/>
       <use xlink:href="#DejaVuSans-30" x="63.623047"/>
       <use xlink:href="#DejaVuSans-32" x="127.246094"/>
       <use xlink:href="#DejaVuSans-32" x="190.869141"/>
       <use xlink:href="#DejaVuSans-2d" x="254.492188"/>
       <use xlink:href="#DejaVuSans-30" x="290.576172"/>
       <use xlink:href="#DejaVuSans-39" x="354.199219"/>
      </g>
     </g>
    </g>
    <g id="xtick_22">
     <g id="line2d_59">
      <path d="M 810.841417 584.521875 
L 810.841417 331.135938 
" clip-path="url(#pcdcd8f8497)" style="fill: none; stroke-dasharray: 2.96,1.28; stroke-dashoffset: 0; stroke: #b0b0b0; stroke-width: 0.8"/>
     </g>
     <g id="line2d_60">
      <g>
       <use xlink:href="#m2edd15b7ed" x="810.841417" y="584.521875" style="stroke: #000000; stroke-width: 0.8"/>
      </g>
     </g>
     <g id="text_19">
      <!-- 2022-10 -->
      <g transform="translate(789.950011 599.120312)scale(0.1 -0.1)">
       <use xlink:href="#DejaVuSans-32"/>
       <use xlink:href="#DejaVuSans-30" x="63.623047"/>
       <use xlink:href="#DejaVuSans-32" x="127.246094"/>
       <use xlink:href="#DejaVuSans-32" x="190.869141"/>
       <use xlink:href="#DejaVuSans-2d" x="254.492188"/>
       <use xlink:href="#DejaVuSans-31" x="290.576172"/>
       <use xlink:href="#DejaVuSans-30" x="354.199219"/>
      </g>
     </g>
    </g>
    <g id="xtick_23">
     <g id="line2d_61">
      <path d="M 894.235872 584.521875 
L 894.235872 331.135938 
" clip-path="url(#pcdcd8f8497)" style="fill: none; stroke-dasharray: 2.96,1.28; stroke-dashoffset: 0; stroke: #b0b0b0; stroke-width: 0.8"/>
     </g>
     <g id="line2d_62">
      <g>
       <use xlink:href="#m2edd15b7ed" x="894.235872" y="584.521875" style="stroke: #000000; stroke-width: 0.8"/>
      </g>
     </g>
     <g id="text_20">
      <!-- 2022-11 -->
      <g transform="translate(873.344465 599.120312)scale(0.1 -0.1)">
       <use xlink:href="#DejaVuSans-32"/>
       <use xlink:href="#DejaVuSans-30" x="63.623047"/>
       <use xlink:href="#DejaVuSans-32" x="127.246094"/>
       <use xlink:href="#DejaVuSans-32" x="190.869141"/>
       <use xlink:href="#DejaVuSans-2d" x="254.492188"/>
       <use xlink:href="#DejaVuSans-31" x="290.576172"/>
       <use xlink:href="#DejaVuSans-31" x="354.199219"/>
      </g>
     </g>
    </g>
    <g id="xtick_24">
     <g id="line2d_63">
      <path d="M 974.940182 584.521875 
L 974.940182 331.135938 
" clip-path="url(#pcdcd8f8497)" style="fill: none; stroke-dasharray: 2.96,1.28; stroke-dashoffset: 0; stroke: #b0b0b0; stroke-width: 0.8"/>
     </g>
     <g id="line2d_64">
      <g>
       <use xlink:href="#m2edd15b7ed" x="974.940182" y="584.521875" style="stroke: #000000; stroke-width: 0.8"/>
      </g>
     </g>
     <g id="text_21">
      <!-- 2022-12 -->
      <g transform="translate(954.048776 599.120312)scale(0.1 -0.1)">
       <use xlink:href="#DejaVuSans-32"/>
       <use xlink:href="#DejaVuSans-30" x="63.623047"/>
       <use xlink:href="#DejaVuSans-32" x="127.246094"/>
       <use xlink:href="#DejaVuSans-32" x="190.869141"/>
       <use xlink:href="#DejaVuSans-2d" x="254.492188"/>
       <use xlink:href="#DejaVuSans-31" x="290.576172"/>
       <use xlink:href="#DejaVuSans-32" x="354.199219"/>
      </g>
     </g>
    </g>
   </g>
   <g id="matplotlib.axis_4">
    <g id="ytick_7">
     <g id="line2d_65">
      <path d="M 38.904688 573.244535 
L 982.876106 573.244535 
" clip-path="url(#pcdcd8f8497)" style="fill: none; stroke-dasharray: 2.96,1.28; stroke-dashoffset: 0; stroke: #b0b0b0; stroke-width: 0.8"/>
     </g>
     <g id="line2d_66">
      <g>
       <use xlink:href="#m5a9c3efd42" x="38.904688" y="573.244535" style="stroke: #000000; stroke-width: 0.8"/>
      </g>
     </g>
     <g id="text_22">
      <!-- −30 -->
      <g transform="translate(10.8 577.043753)scale(0.1 -0.1)">
       <defs>
        <path id="DejaVuSans-2212" d="M 678 2272 
L 4684 2272 
L 4684 1741 
L 678 1741 
L 678 2272 
z
" transform="scale(0.015625)"/>
       </defs>
       <use xlink:href="#DejaVuSans-2212"/>
       <use xlink:href="#DejaVuSans-33" x="83.789062"/>
       <use xlink:href="#DejaVuSans-30" x="147.412109"/>
      </g>
     </g>
    </g>
    <g id="ytick_8">
     <g id="line2d_67">
      <path d="M 38.904688 536.417308 
L 982.876106 536.417308 
" clip-path="url(#pcdcd8f8497)" style="fill: none; stroke-dasharray: 2.96,1.28; stroke-dashoffset: 0; stroke: #b0b0b0; stroke-width: 0.8"/>
     </g>
     <g id="line2d_68">
      <g>
       <use xlink:href="#m5a9c3efd42" x="38.904688" y="536.417308" style="stroke: #000000; stroke-width: 0.8"/>
      </g>
     </g>
     <g id="text_23">
      <!-- −20 -->
      <g transform="translate(10.8 540.216527)scale(0.1 -0.1)">
       <use xlink:href="#DejaVuSans-2212"/>
       <use xlink:href="#DejaVuSans-32" x="83.789062"/>
       <use xlink:href="#DejaVuSans-30" x="147.412109"/>
      </g>
     </g>
    </g>
    <g id="ytick_9">
     <g id="line2d_69">
      <path d="M 38.904688 499.590082 
L 982.876106 499.590082 
" clip-path="url(#pcdcd8f8497)" style="fill: none; stroke-dasharray: 2.96,1.28; stroke-dashoffset: 0; stroke: #b0b0b0; stroke-width: 0.8"/>
     </g>
     <g id="line2d_70">
      <g>
       <use xlink:href="#m5a9c3efd42" x="38.904688" y="499.590082" style="stroke: #000000; stroke-width: 0.8"/>
      </g>
     </g>
     <g id="text_24">
      <!-- −10 -->
      <g transform="translate(10.8 503.389301)scale(0.1 -0.1)">
       <use xlink:href="#DejaVuSans-2212"/>
       <use xlink:href="#DejaVuSans-31" x="83.789062"/>
       <use xlink:href="#DejaVuSans-30" x="147.412109"/>
      </g>
     </g>
    </g>
    <g id="ytick_10">
     <g id="line2d_71">
      <path d="M 38.904688 462.762856 
L 982.876106 462.762856 
" clip-path="url(#pcdcd8f8497)" style="fill: none; stroke-dasharray: 2.96,1.28; stroke-dashoffset: 0; stroke: #b0b0b0; stroke-width: 0.8"/>
     </g>
     <g id="line2d_72">
      <g>
       <use xlink:href="#m5a9c3efd42" x="38.904688" y="462.762856" style="stroke: #000000; stroke-width: 0.8"/>
      </g>
     </g>
     <g id="text_25">
      <!-- 0 -->
      <g transform="translate(25.542188 466.562075)scale(0.1 -0.1)">
       <use xlink:href="#DejaVuSans-30"/>
      </g>
     </g>
    </g>
    <g id="ytick_11">
     <g id="line2d_73">
      <path d="M 38.904688 425.93563 
L 982.876106 425.93563 
" clip-path="url(#pcdcd8f8497)" style="fill: none; stroke-dasharray: 2.96,1.28; stroke-dashoffset: 0; stroke: #b0b0b0; stroke-width: 0.8"/>
     </g>
     <g id="line2d_74">
      <g>
       <use xlink:href="#m5a9c3efd42" x="38.904688" y="425.93563" style="stroke: #000000; stroke-width: 0.8"/>
      </g>
     </g>
     <g id="text_26">
      <!-- 10 -->
      <g transform="translate(19.179688 429.734848)scale(0.1 -0.1)">
       <use xlink:href="#DejaVuSans-31"/>
       <use xlink:href="#DejaVuSans-30" x="63.623047"/>
      </g>
     </g>
    </g>
    <g id="ytick_12">
     <g id="line2d_75">
      <path d="M 38.904688 389.108403 
L 982.876106 389.108403 
" clip-path="url(#pcdcd8f8497)" style="fill: none; stroke-dasharray: 2.96,1.28; stroke-dashoffset: 0; stroke: #b0b0b0; stroke-width: 0.8"/>
     </g>
     <g id="line2d_76">
      <g>
       <use xlink:href="#m5a9c3efd42" x="38.904688" y="389.108403" style="stroke: #000000; stroke-width: 0.8"/>
      </g>
     </g>
     <g id="text_27">
      <!-- 20 -->
      <g transform="translate(19.179688 392.907622)scale(0.1 -0.1)">
       <use xlink:href="#DejaVuSans-32"/>
       <use xlink:href="#DejaVuSans-30" x="63.623047"/>
      </g>
     </g>
    </g>
    <g id="ytick_13">
     <g id="line2d_77">
      <path d="M 38.904688 352.281177 
L 982.876106 352.281177 
" clip-path="url(#pcdcd8f8497)" style="fill: none; stroke-dasharray: 2.96,1.28; stroke-dashoffset: 0; stroke: #b0b0b0; stroke-width: 0.8"/>
     </g>
     <g id="line2d_78">
      <g>
       <use xlink:href="#m5a9c3efd42" x="38.904688" y="352.281177" style="stroke: #000000; stroke-width: 0.8"/>
      </g>
     </g>
     <g id="text_28">
      <!-- 30 -->
      <g transform="translate(19.179688 356.080396)scale(0.1 -0.1)">
       <use xlink:href="#DejaVuSans-33"/>
       <use xlink:href="#DejaVuSans-30" x="63.623047"/>
      </g>
     </g>
    </g>
   </g>
   <g id="line2d_79">
    <path d="M 81.812479 462.762856 
L 84.502623 462.089461 
L 87.192767 460.168961 
L 89.88291 459.75794 
L 92.573054 458.396198 
L 100.643485 454.903865 
L 103.333629 452.81625 
L 106.023772 449.281909 
L 108.713916 446.865985 
L 111.40406 446.275039 
L 119.474491 446.21658 
L 122.164634 445.630107 
L 124.854778 448.438874 
L 127.544922 450.375142 
L 130.235066 453.250032 
L 138.305497 456.90235 
L 140.99564 459.031188 
L 146.375928 462.332711 
L 149.066071 468.064465 
L 157.136502 470.581796 
L 162.51679 463.667241 
L 165.206933 462.121794 
L 167.897077 461.916432 
L 175.967508 466.540525 
L 178.657652 468.518489 
L 181.347796 467.303645 
L 184.037939 465.592473 
L 186.728083 468.126934 
L 194.798514 479.966603 
L 197.488658 482.994568 
L 200.178801 488.379444 
L 202.868945 496.028545 
L 205.559089 502.022777 
L 213.62952 504.728315 
L 216.319663 507.233819 
L 219.009807 510.546143 
L 221.699951 522.978531 
L 224.390094 525.666729 
L 232.460525 523.48996 
L 237.840813 528.949586 
L 243.2211 545.627162 
L 251.291531 561.077033 
L 253.981675 568.839939 
L 256.671819 573.004332 
L 259.361962 572.38294 
L 262.052106 570.269253 
L 270.122537 562.137443 
L 272.812681 554.286808 
L 275.502824 544.02034 
L 278.192968 531.556039 
L 288.953543 523.710699 
L 291.643687 514.71246 
L 294.33383 507.041724 
L 297.023974 504.617987 
L 299.714118 503.678904 
L 307.784549 499.250146 
L 310.474692 493.924557 
L 313.164836 484.856106 
L 315.85498 477.674705 
L 318.545123 470.144498 
L 326.615554 461.142691 
L 329.305698 455.509763 
L 331.995842 451.238009 
L 334.685985 445.992968 
L 337.376129 440.395001 
L 345.44656 434.715228 
L 348.136704 429.342582 
L 350.826848 425.982651 
L 364.277566 425.071948 
L 366.96771 422.300232 
L 369.657853 423.737582 
L 372.347997 423.317168 
L 375.038141 427.743581 
L 383.108572 430.277585 
L 385.798715 432.178975 
L 388.488859 439.014706 
L 391.179003 441.577456 
L 393.869146 444.955582 
L 401.939578 448.479649 
L 407.319865 456.315909 
L 410.010009 461.194188 
L 412.700152 467.835534 
L 420.770583 475.592081 
L 423.460727 481.244074 
L 426.150871 484.610577 
L 428.841014 492.398868 
L 431.531158 503.577817 
L 439.601589 510.212616 
L 442.291733 506.944629 
L 444.981876 504.658611 
L 447.67202 507.395385 
L 450.362164 503.379428 
L 458.432595 499.329741 
L 461.122739 496.591646 
L 463.812882 492.534047 
L 466.503026 484.567186 
L 469.19317 474.758697 
L 477.263601 464.382518 
L 479.953744 454.957179 
L 482.643888 447.720383 
L 485.334032 443.073658 
L 488.024175 441.258062 
L 496.094606 439.361121 
L 498.78475 441.519171 
L 501.474894 445.140858 
L 504.165037 447.22462 
L 506.855181 452.779156 
L 514.925612 466.643839 
L 517.615756 478.196541 
L 520.3059 486.557871 
L 522.996043 495.407743 
L 525.686187 499.516664 
L 533.756618 502.581408 
L 536.446762 501.547291 
L 539.136905 503.085667 
L 541.827049 500.144889 
L 544.517193 493.214229 
L 552.587624 486.291571 
L 555.277767 482.670668 
L 557.967911 481.824764 
L 560.658055 479.637567 
L 563.348198 478.701051 
L 571.41863 473.026762 
L 574.108773 468.655074 
L 576.798917 463.253358 
L 579.489061 454.300743 
L 582.179204 443.358443 
L 590.249635 430.952583 
L 592.939779 424.415573 
L 595.629923 421.699239 
L 598.320066 420.274038 
L 601.01021 419.994156 
L 609.080641 414.151853 
L 611.770785 407.58741 
L 614.460928 402.353372 
L 617.151072 398.089123 
L 619.841216 391.357712 
L 630.601791 385.176547 
L 633.291934 383.674149 
L 635.982078 379.256142 
L 638.672222 375.57129 
L 646.742653 372.267818 
L 649.432796 372.370741 
L 652.12294 371.410376 
L 654.813084 373.035686 
L 657.503227 370.058339 
L 665.573658 369.149343 
L 670.953946 366.037432 
L 673.64409 361.484762 
L 676.334233 354.753511 
L 687.094808 349.2858 
L 689.784952 345.120062 
L 692.475095 342.65348 
L 695.165239 346.408262 
L 703.23567 356.008075 
L 705.925814 361.323372 
L 708.615957 363.882279 
L 711.306101 367.293053 
L 713.996245 371.493954 
L 722.066676 380.232022 
L 724.756819 378.779305 
L 730.137107 382.402635 
L 732.827251 386.730079 
L 740.897682 388.034531 
L 743.587825 389.555609 
L 746.277969 393.770253 
L 748.968113 391.219185 
L 751.658256 389.316042 
L 759.728687 386.913997 
L 762.418831 385.07385 
L 765.108975 382.137882 
L 767.799118 380.903315 
L 770.489262 383.366047 
L 778.559693 389.108749 
L 781.249837 389.291574 
L 783.939981 390.712759 
L 786.630124 396.128579 
L 789.320268 407.344516 
L 797.390699 422.991578 
L 800.080843 438.201021 
L 802.770986 451.293182 
L 805.46113 463.326439 
L 808.151274 467.430396 
L 816.221705 474.602628 
L 818.911848 474.417052 
L 824.292136 468.909591 
L 826.982279 465.376539 
L 835.05271 462.813714 
L 837.742854 464.080853 
L 840.432998 465.719606 
L 843.123142 471.303065 
L 845.813285 470.688836 
L 853.883716 465.725292 
L 856.57386 458.365508 
L 859.264004 454.059544 
L 861.954147 451.798644 
L 864.644291 444.717331 
L 872.714722 433.749085 
L 875.404866 425.853595 
L 880.785153 420.279243 
L 883.475297 421.25805 
L 891.545728 422.248199 
L 894.235872 423.51504 
L 896.926015 426.100584 
L 899.616159 427.383674 
L 902.306303 429.776283 
L 910.376734 428.442653 
L 915.757021 429.845349 
L 918.447165 431.260699 
L 921.137308 433.947771 
L 929.207739 439.789234 
L 931.897883 439.706898 
L 934.588027 439.346956 
L 937.27817 437.510372 
L 939.968314 436.197653 
L 939.968314 436.197653 
" clip-path="url(#pcdcd8f8497)" style="fill: none; stroke: #1f77b4; stroke-width: 1.5; stroke-linecap: square"/>
   </g>
   <g id="line2d_80">
    <path d="M 81.812479 462.762856 
L 84.502623 462.388747 
L 87.192767 461.478999 
L 89.88291 460.895984 
L 92.573054 460.152354 
L 100.643485 458.729722 
L 103.333629 457.23318 
L 108.713916 453.36888 
L 111.40406 451.779448 
L 119.474491 450.562324 
L 122.164634 449.503091 
L 124.854778 449.277865 
L 127.544922 449.507416 
L 130.235066 450.283236 
L 138.305497 451.645401 
L 140.99564 453.156587 
L 146.375928 455.025479 
L 149.066071 457.671408 
L 157.136502 460.283602 
L 159.826646 461.678678 
L 162.51679 462.079347 
L 167.897077 462.053433 
L 175.967508 462.954255 
L 178.657652 464.070475 
L 181.347796 464.718676 
L 184.037939 464.893774 
L 186.728083 465.541408 
L 194.798514 468.430023 
L 197.488658 471.34582 
L 200.178801 474.755246 
L 202.868945 479.012604 
L 205.559089 483.616973 
L 213.62952 487.840955 
L 219.009807 495.486836 
L 221.699951 500.986317 
L 224.390094 505.92322 
L 232.460525 509.437035 
L 237.840813 513.33996 
L 240.530957 518.102338 
L 243.2211 523.607678 
L 251.291531 531.101957 
L 253.981675 538.649882 
L 256.671819 545.521012 
L 259.361962 550.893547 
L 262.052106 554.768775 
L 270.122537 556.242535 
L 272.812681 555.851384 
L 275.502824 553.485148 
L 278.192968 549.099286 
L 288.953543 544.021531 
L 291.643687 538.159683 
L 294.33383 531.936062 
L 297.023974 526.472427 
L 299.714118 521.913708 
L 307.784549 517.380985 
L 310.474692 512.68969 
L 313.164836 507.122965 
L 315.85498 501.233306 
L 318.545123 495.015538 
L 326.615554 488.240963 
L 329.305698 481.694719 
L 334.685985 469.68129 
L 337.376129 463.824031 
L 345.44656 458.002269 
L 348.136704 452.27033 
L 350.826848 447.012794 
L 364.277566 442.624624 
L 366.96771 438.559745 
L 369.657853 435.595312 
L 372.347997 433.139683 
L 375.038141 432.060463 
L 383.108572 431.703887 
L 385.798715 431.798905 
L 388.488859 433.242065 
L 391.179003 434.909143 
L 393.869146 436.918431 
L 401.939578 439.230675 
L 407.319865 442.647722 
L 410.010009 446.357015 
L 412.700152 450.652719 
L 420.770583 455.640591 
L 423.460727 460.761288 
L 426.150871 465.531146 
L 428.841014 470.90469 
L 431.531158 477.439315 
L 439.601589 483.993976 
L 442.291733 488.584106 
L 447.67202 494.918283 
L 450.362164 496.610512 
L 458.432595 497.154358 
L 461.122739 497.041815 
L 463.812882 496.140262 
L 466.503026 493.825647 
L 469.19317 490.012257 
L 477.263601 484.886309 
L 485.334032 466.746302 
L 488.024175 461.648654 
L 496.094606 457.191147 
L 498.78475 454.056752 
L 501.474894 452.273573 
L 504.165037 451.263783 
L 506.855181 451.566857 
L 514.925612 454.582254 
L 517.615756 459.305111 
L 520.3059 464.755663 
L 522.996043 470.886079 
L 525.686187 476.612196 
L 533.756618 481.806038 
L 536.446762 485.754289 
L 539.136905 489.220564 
L 541.827049 491.405429 
L 544.517193 491.767189 
L 552.587624 490.672066 
L 555.277767 489.071786 
L 557.967911 487.622382 
L 560.658055 486.025419 
L 563.348198 484.560545 
L 571.41863 482.253789 
L 574.108773 479.534046 
L 576.798917 476.277908 
L 579.489061 471.882475 
L 582.179204 466.177669 
L 590.249635 459.132652 
L 592.939779 452.189236 
L 595.629923 446.091237 
L 598.320066 440.927797 
L 601.01021 436.741069 
L 609.080641 432.223226 
L 617.151072 417.463844 
L 619.841216 412.242618 
L 627.911647 407.123663 
L 630.601791 402.73424 
L 635.982078 394.989006 
L 638.672222 391.105463 
L 646.742653 387.337934 
L 649.432796 384.344495 
L 652.12294 381.757671 
L 654.813084 380.013274 
L 657.503227 378.022287 
L 665.573658 376.247699 
L 670.953946 374.205645 
L 673.64409 371.661469 
L 676.334233 368.279877 
L 687.094808 364.481062 
L 689.784952 360.608862 
L 692.475095 357.017785 
L 695.165239 354.895881 
L 703.23567 355.11832 
L 705.925814 356.35933 
L 708.615957 357.86392 
L 711.306101 359.749747 
L 713.996245 362.098588 
L 722.066676 365.725275 
L 724.756819 368.336081 
L 730.137107 371.149392 
L 732.827251 374.265529 
L 740.897682 377.01933 
L 743.587825 379.526585 
L 746.277969 382.375319 
L 748.968113 384.144092 
L 751.658256 385.178482 
L 759.728687 385.525585 
L 762.418831 385.435238 
L 765.108975 384.775767 
L 767.799118 384.001276 
L 770.489262 383.874231 
L 778.559693 384.921134 
L 783.939981 386.77873 
L 786.630124 388.648699 
L 789.320268 392.387863 
L 797.390699 398.508606 
L 800.080843 406.447089 
L 802.770986 415.416307 
L 805.46113 424.998334 
L 808.151274 433.484746 
L 816.221705 441.708323 
L 818.911848 448.250068 
L 824.292136 452.381973 
L 826.982279 454.980886 
L 835.05271 456.547452 
L 840.432998 459.587227 
L 843.123142 461.930394 
L 845.813285 463.682083 
L 853.883716 464.090725 
L 856.57386 462.945681 
L 861.954147 459.294492 
L 864.644291 456.37906 
L 872.714722 451.853065 
L 875.404866 446.653171 
L 880.785153 441.378385 
L 883.475297 437.354318 
L 891.545728 434.333094 
L 894.235872 432.169484 
L 896.926015 430.955704 
L 899.616159 430.241298 
L 910.376734 429.807166 
L 915.757021 429.814803 
L 918.447165 430.103982 
L 921.137308 430.87274 
L 929.207739 432.656039 
L 931.897883 434.066211 
L 934.588027 435.12236 
L 937.27817 435.599962 
L 939.968314 435.7195 
L 939.968314 435.7195 
" clip-path="url(#pcdcd8f8497)" style="fill: none; stroke: #ff7f0e; stroke-width: 1.5; stroke-linecap: square"/>
   </g>
   <g id="patch_9">
    <path d="M 38.904688 584.521875 
L 38.904688 331.135938 
" style="fill: none; stroke: #000000; stroke-width: 0.8; stroke-linejoin: miter; stroke-linecap: square"/>
   </g>
   <g id="patch_10">
    <path d="M 982.876106 584.521875 
L 982.876106 331.135938 
" style="fill: none; stroke: #000000; stroke-width: 0.8; stroke-linejoin: miter; stroke-linecap: square"/>
   </g>
   <g id="patch_11">
    <path d="M 38.904687 584.521875 
L 982.876106 584.521875 
" style="fill: none; stroke: #000000; stroke-width: 0.8; stroke-linejoin: miter; stroke-linecap: square"/>
   </g>
   <g id="patch_12">
    <path d="M 38.904687 331.135938 
L 982.876106 331.135938 
" style="fill: none; stroke: #000000; stroke-width: 0.8; stroke-linejoin: miter; stroke-linecap: square"/>
   </g>
   <g id="text_29">
    <!-- MACD -->
    <g transform="translate(492.904459 325.135938)scale(0.12 -0.12)">
     <defs>
      <path id="DejaVuSans-44" d="M 1259 4147 
L 1259 519 
L 2022 519 
Q 2988 519 3436 956 
Q 3884 1394 3884 2338 
Q 3884 3275 3436 3711 
Q 2988 4147 2022 4147 
L 1259 4147 
z
M 628 4666 
L 1925 4666 
Q 3281 4666 3915 4102 
Q 4550 3538 4550 2338 
Q 4550 1131 3912 565 
Q 3275 0 1925 0 
L 628 0 
L 628 4666 
z
" transform="scale(0.015625)"/>
     </defs>
     <use xlink:href="#DejaVuSans-4d"/>
     <use xlink:href="#DejaVuSans-41" x="86.279297"/>
     <use xlink:href="#DejaVuSans-43" x="152.9375"/>
     <use xlink:href="#DejaVuSans-44" x="222.761719"/>
    </g>
   </g>
   <g id="legend_2">
    <g id="patch_13">
     <path d="M 913.899543 368.492188 
L 975.876106 368.492188 
Q 977.876106 368.492188 977.876106 366.492188 
L 977.876106 338.135938 
Q 977.876106 336.135938 975.876106 336.135938 
L 913.899543 336.135938 
Q 911.899543 336.135938 911.899543 338.135938 
L 911.899543 366.492188 
Q 911.899543 368.492188 913.899543 368.492188 
z
" style="fill: #ffffff; opacity: 0.8; stroke: #cccccc; stroke-linejoin: miter"/>
    </g>
    <g id="line2d_81">
     <path d="M 915.899543 344.234375 
L 925.899543 344.234375 
L 935.899543 344.234375 
" style="fill: none; stroke: #1f77b4; stroke-width: 1.5; stroke-linecap: square"/>
    </g>
    <g id="text_30">
     <!-- MACD -->
     <g transform="translate(943.899543 347.734375)scale(0.1 -0.1)">
      <use xlink:href="#DejaVuSans-4d"/>
      <use xlink:href="#DejaVuSans-41" x="86.279297"/>
      <use xlink:href="#DejaVuSans-43" x="152.9375"/>
      <use xlink:href="#DejaVuSans-44" x="222.761719"/>
     </g>
    </g>
    <g id="line2d_82">
     <path d="M 915.899543 358.9125 
L 925.899543 358.9125 
L 935.899543 358.9125 
" style="fill: none; stroke: #ff7f0e; stroke-width: 1.5; stroke-linecap: square"/>
    </g>
    <g id="text_31">
     <!-- SIG -->
     <g transform="translate(943.899543 362.4125)scale(0.1 -0.1)">
      <defs>
       <path id="DejaVuSans-49" d="M 628 4666 
L 1259 4666 
L 1259 0 
L 628 0 
L 628 4666 
z
" transform="scale(0.015625)"/>
       <path id="DejaVuSans-47" d="M 3809 666 
L 3809 1919 
L 2778 1919 
L 2778 2438 
L 4434 2438 
L 4434 434 
Q 4069 175 3628 42 
Q 3188 -91 2688 -91 
Q 1594 -91 976 548 
Q 359 1188 359 2328 
Q 359 3472 976 4111 
Q 1594 4750 2688 4750 
Q 3144 4750 3555 4637 
Q 3966 4525 4313 4306 
L 4313 3634 
Q 3963 3931 3569 4081 
Q 3175 4231 2741 4231 
Q 1884 4231 1454 3753 
Q 1025 3275 1025 2328 
Q 1025 1384 1454 906 
Q 1884 428 2741 428 
Q 3075 428 3337 486 
Q 3600 544 3809 666 
z
" transform="scale(0.015625)"/>
      </defs>
      <use xlink:href="#DejaVuSans-53"/>
      <use xlink:href="#DejaVuSans-49" x="63.476562"/>
      <use xlink:href="#DejaVuSans-47" x="92.96875"/>
     </g>
    </g>
   </g>
  </g>
  <g id="text_32">
   <!-- ICICI Bank Limited -->
   <g transform="translate(449.052188 21.358125)scale(0.12 -0.12)">
    <defs>
     <path id="DejaVuSans-42" d="M 1259 2228 
L 1259 519 
L 2272 519 
Q 2781 519 3026 730 
Q 3272 941 3272 1375 
Q 3272 1813 3026 2020 
Q 2781 2228 2272 2228 
L 1259 2228 
z
M 1259 4147 
L 1259 2741 
L 2194 2741 
Q 2656 2741 2882 2914 
Q 3109 3088 3109 3444 
Q 3109 3797 2882 3972 
Q 2656 4147 2194 4147 
L 1259 4147 
z
M 628 4666 
L 2241 4666 
Q 2963 4666 3353 4366 
Q 3744 4066 3744 3513 
Q 3744 3084 3544 2831 
Q 3344 2578 2956 2516 
Q 3422 2416 3680 2098 
Q 3938 1781 3938 1306 
Q 3938 681 3513 340 
Q 3088 0 2303 0 
L 628 0 
L 628 4666 
z
" transform="scale(0.015625)"/>
     <path id="DejaVuSans-61" d="M 2194 1759 
Q 1497 1759 1228 1600 
Q 959 1441 959 1056 
Q 959 750 1161 570 
Q 1363 391 1709 391 
Q 2188 391 2477 730 
Q 2766 1069 2766 1631 
L 2766 1759 
L 2194 1759 
z
M 3341 1997 
L 3341 0 
L 2766 0 
L 2766 531 
Q 2569 213 2275 61 
Q 1981 -91 1556 -91 
Q 1019 -91 701 211 
Q 384 513 384 1019 
Q 384 1609 779 1909 
Q 1175 2209 1959 2209 
L 2766 2209 
L 2766 2266 
Q 2766 2663 2505 2880 
Q 2244 3097 1772 3097 
Q 1472 3097 1187 3025 
Q 903 2953 641 2809 
L 641 3341 
Q 956 3463 1253 3523 
Q 1550 3584 1831 3584 
Q 2591 3584 2966 3190 
Q 3341 2797 3341 1997 
z
" transform="scale(0.015625)"/>
     <path id="DejaVuSans-6b" d="M 581 4863 
L 1159 4863 
L 1159 1991 
L 2875 3500 
L 3609 3500 
L 1753 1863 
L 3688 0 
L 2938 0 
L 1159 1709 
L 1159 0 
L 581 0 
L 581 4863 
z
" transform="scale(0.015625)"/>
     <path id="DejaVuSans-6d" d="M 3328 2828 
Q 3544 3216 3844 3400 
Q 4144 3584 4550 3584 
Q 5097 3584 5394 3201 
Q 5691 2819 5691 2113 
L 5691 0 
L 5113 0 
L 5113 2094 
Q 5113 2597 4934 2840 
Q 4756 3084 4391 3084 
Q 3944 3084 3684 2787 
Q 3425 2491 3425 1978 
L 3425 0 
L 2847 0 
L 2847 2094 
Q 2847 2600 2669 2842 
Q 2491 3084 2119 3084 
Q 1678 3084 1418 2786 
Q 1159 2488 1159 1978 
L 1159 0 
L 581 0 
L 581 3500 
L 1159 3500 
L 1159 2956 
Q 1356 3278 1631 3431 
Q 1906 3584 2284 3584 
Q 2666 3584 2933 3390 
Q 3200 3197 3328 2828 
z
" transform="scale(0.015625)"/>
     <path id="DejaVuSans-74" d="M 1172 4494 
L 1172 3500 
L 2356 3500 
L 2356 3053 
L 1172 3053 
L 1172 1153 
Q 1172 725 1289 603 
Q 1406 481 1766 481 
L 2356 481 
L 2356 0 
L 1766 0 
Q 1100 0 847 248 
Q 594 497 594 1153 
L 594 3053 
L 172 3053 
L 172 3500 
L 594 3500 
L 594 4494 
L 1172 4494 
z
" transform="scale(0.015625)"/>
     <path id="DejaVuSans-64" d="M 2906 2969 
L 2906 4863 
L 3481 4863 
L 3481 0 
L 2906 0 
L 2906 525 
Q 2725 213 2448 61 
Q 2172 -91 1784 -91 
Q 1150 -91 751 415 
Q 353 922 353 1747 
Q 353 2572 751 3078 
Q 1150 3584 1784 3584 
Q 2172 3584 2448 3432 
Q 2725 3281 2906 2969 
z
M 947 1747 
Q 947 1113 1208 752 
Q 1469 391 1925 391 
Q 2381 391 2643 752 
Q 2906 1113 2906 1747 
Q 2906 2381 2643 2742 
Q 2381 3103 1925 3103 
Q 1469 3103 1208 2742 
Q 947 2381 947 1747 
z
" transform="scale(0.015625)"/>
    </defs>
    <use xlink:href="#DejaVuSans-49"/>
    <use xlink:href="#DejaVuSans-43" x="29.492188"/>
    <use xlink:href="#DejaVuSans-49" x="99.316406"/>
    <use xlink:href="#DejaVuSans-43" x="128.808594"/>
    <use xlink:href="#DejaVuSans-49" x="198.632812"/>
    <use xlink:href="#DejaVuSans-20" x="228.125"/>
    <use xlink:href="#DejaVuSans-42" x="259.912109"/>
    <use xlink:href="#DejaVuSans-61" x="328.515625"/>
    <use xlink:href="#DejaVuSans-6e" x="389.794922"/>
    <use xlink:href="#DejaVuSans-6b" x="453.173828"/>
    <use xlink:href="#DejaVuSans-20" x="511.083984"/>
    <use xlink:href="#DejaVuSans-4c" x="542.871094"/>
    <use xlink:href="#DejaVuSans-69" x="598.583984"/>
    <use xlink:href="#DejaVuSans-6d" x="626.367188"/>
    <use xlink:href="#DejaVuSans-69" x="723.779297"/>
    <use xlink:href="#DejaVuSans-74" x="751.5625"/>
    <use xlink:href="#DejaVuSans-65" x="790.771484"/>
    <use xlink:href="#DejaVuSans-64" x="852.294922"/>
   </g>
  </g>
 </g>
 <defs>
  <clipPath id="p514c5881ae">
   <rect x="38.904688" y="48.331875" width="943.971418" height="253.385938"/>
  </clipPath>
  <clipPath id="pcdcd8f8497">
   <rect x="38.904688" y="331.135938" width="943.971418" height="253.385937"/>
  </clipPath>
 </defs>
</svg>
