<?xml version="1.0" encoding="utf-8" standalone="no"?>
<!DOCTYPE svg PUBLIC "-//W3C//DTD SVG 1.1//EN"
  "http://www.w3.org/Graphics/SVG/1.1/DTD/svg11.dtd">
<svg xmlns:xlink="http://www.w3.org/1999/xlink" width="1008pt" height="612pt" viewBox="0 0 1008 612" xmlns="http://www.w3.org/2000/svg" version="1.1">
 <metadata>
  <rdf:RDF xmlns:dc="http://purl.org/dc/elements/1.1/" xmlns:cc="http://creativecommons.org/ns#" xmlns:rdf="http://www.w3.org/1999/02/22-rdf-syntax-ns#">
   <cc:Work>
    <dc:type rdf:resource="http://purl.org/dc/dcmitype/StillImage"/>
    <dc:date>2022-11-20T19:46:48.323494</dc:date>
    <dc:format>image/svg+xml</dc:format>
    <dc:creator>
     <cc:Agent>
      <dc:title>Matplotlib v3.5.2, https://matplotlib.org/</dc:title>
     </cc:Agent>
    </dc:creator>
   </cc:Work>
  </rdf:RDF>
 </metadata>
 <defs>
  <style type="text/css">*{stroke-linejoin: round; stroke-linecap: butt}</style>
 </defs>
 <g id="figure_1">
  <g id="patch_1">
   <path d="M 0 612 
L 1008 612 
L 1008 0 
L 0 0 
z
" style="fill: #ffffff"/>
  </g>
  <g id="axes_1">
   <g id="patch_2">
    <path d="M 43.25 301.717812 
L 982.876106 301.717812 
L 982.876106 48.331875 
L 43.25 48.331875 
z
" style="fill: #ffffff"/>
   </g>
   <g id="matplotlib.axis_1">
    <g id="xtick_1">
     <g id="line2d_1">
      <path d="M 80.604757 301.717812 
L 80.604757 48.331875 
" clip-path="url(#p76de7f5bdf)" style="fill: none; stroke-dasharray: 2.96,1.28; stroke-dashoffset: 0; stroke: #b0b0b0; stroke-width: 0.8"/>
     </g>
     <g id="line2d_2">
      <defs>
       <path id="mf821522763" d="M 0 0 
L 0 3.5 
" style="stroke: #000000; stroke-width: 0.8"/>
      </defs>
      <g>
       <use xlink:href="#mf821522763" x="80.604757" y="301.717812" style="stroke: #000000; stroke-width: 0.8"/>
      </g>
     </g>
    </g>
    <g id="xtick_2">
     <g id="line2d_3">
      <path d="M 163.615328 301.717812 
L 163.615328 48.331875 
" clip-path="url(#p76de7f5bdf)" style="fill: none; stroke-dasharray: 2.96,1.28; stroke-dashoffset: 0; stroke: #b0b0b0; stroke-width: 0.8"/>
     </g>
     <g id="line2d_4">
      <g>
       <use xlink:href="#mf821522763" x="163.615328" y="301.717812" style="stroke: #000000; stroke-width: 0.8"/>
      </g>
     </g>
    </g>
    <g id="xtick_3">
     <g id="line2d_5">
      <path d="M 238.592617 301.717812 
L 238.592617 48.331875 
" clip-path="url(#p76de7f5bdf)" style="fill: none; stroke-dasharray: 2.96,1.28; stroke-dashoffset: 0; stroke: #b0b0b0; stroke-width: 0.8"/>
     </g>
     <g id="line2d_6">
      <g>
       <use xlink:href="#mf821522763" x="238.592617" y="301.717812" style="stroke: #000000; stroke-width: 0.8"/>
      </g>
     </g>
    </g>
    <g id="xtick_4">
     <g id="line2d_7">
      <path d="M 321.603188 301.717812 
L 321.603188 48.331875 
" clip-path="url(#p76de7f5bdf)" style="fill: none; stroke-dasharray: 2.96,1.28; stroke-dashoffset: 0; stroke: #b0b0b0; stroke-width: 0.8"/>
     </g>
     <g id="line2d_8">
      <g>
       <use xlink:href="#mf821522763" x="321.603188" y="301.717812" style="stroke: #000000; stroke-width: 0.8"/>
      </g>
     </g>
    </g>
    <g id="xtick_5">
     <g id="line2d_9">
      <path d="M 401.935999 301.717812 
L 401.935999 48.331875 
" clip-path="url(#p76de7f5bdf)" style="fill: none; stroke-dasharray: 2.96,1.28; stroke-dashoffset: 0; stroke: #b0b0b0; stroke-width: 0.8"/>
     </g>
     <g id="line2d_10">
      <g>
       <use xlink:href="#mf821522763" x="401.935999" y="301.717812" style="stroke: #000000; stroke-width: 0.8"/>
      </g>
     </g>
    </g>
    <g id="xtick_6">
     <g id="line2d_11">
      <path d="M 484.946569 301.717812 
L 484.946569 48.331875 
" clip-path="url(#p76de7f5bdf)" style="fill: none; stroke-dasharray: 2.96,1.28; stroke-dashoffset: 0; stroke: #b0b0b0; stroke-width: 0.8"/>
     </g>
     <g id="line2d_12">
      <g>
       <use xlink:href="#mf821522763" x="484.946569" y="301.717812" style="stroke: #000000; stroke-width: 0.8"/>
      </g>
     </g>
    </g>
    <g id="xtick_7">
     <g id="line2d_13">
      <path d="M 565.27938 301.717812 
L 565.27938 48.331875 
" clip-path="url(#p76de7f5bdf)" style="fill: none; stroke-dasharray: 2.96,1.28; stroke-dashoffset: 0; stroke: #b0b0b0; stroke-width: 0.8"/>
     </g>
     <g id="line2d_14">
      <g>
       <use xlink:href="#mf821522763" x="565.27938" y="301.717812" style="stroke: #000000; stroke-width: 0.8"/>
      </g>
     </g>
    </g>
    <g id="xtick_8">
     <g id="line2d_15">
      <path d="M 648.28995 301.717812 
L 648.28995 48.331875 
" clip-path="url(#p76de7f5bdf)" style="fill: none; stroke-dasharray: 2.96,1.28; stroke-dashoffset: 0; stroke: #b0b0b0; stroke-width: 0.8"/>
     </g>
     <g id="line2d_16">
      <g>
       <use xlink:href="#mf821522763" x="648.28995" y="301.717812" style="stroke: #000000; stroke-width: 0.8"/>
      </g>
     </g>
    </g>
    <g id="xtick_9">
     <g id="line2d_17">
      <path d="M 731.300521 301.717812 
L 731.300521 48.331875 
" clip-path="url(#p76de7f5bdf)" style="fill: none; stroke-dasharray: 2.96,1.28; stroke-dashoffset: 0; stroke: #b0b0b0; stroke-width: 0.8"/>
     </g>
     <g id="line2d_18">
      <g>
       <use xlink:href="#mf821522763" x="731.300521" y="301.717812" style="stroke: #000000; stroke-width: 0.8"/>
      </g>
     </g>
    </g>
    <g id="xtick_10">
     <g id="line2d_19">
      <path d="M 811.633332 301.717812 
L 811.633332 48.331875 
" clip-path="url(#p76de7f5bdf)" style="fill: none; stroke-dasharray: 2.96,1.28; stroke-dashoffset: 0; stroke: #b0b0b0; stroke-width: 0.8"/>
     </g>
     <g id="line2d_20">
      <g>
       <use xlink:href="#mf821522763" x="811.633332" y="301.717812" style="stroke: #000000; stroke-width: 0.8"/>
      </g>
     </g>
    </g>
    <g id="xtick_11">
     <g id="line2d_21">
      <path d="M 894.643902 301.717812 
L 894.643902 48.331875 
" clip-path="url(#p76de7f5bdf)" style="fill: none; stroke-dasharray: 2.96,1.28; stroke-dashoffset: 0; stroke: #b0b0b0; stroke-width: 0.8"/>
     </g>
     <g id="line2d_22">
      <g>
       <use xlink:href="#mf821522763" x="894.643902" y="301.717812" style="stroke: #000000; stroke-width: 0.8"/>
      </g>
     </g>
    </g>
    <g id="xtick_12">
     <g id="line2d_23">
      <path d="M 974.976713 301.717812 
L 974.976713 48.331875 
" clip-path="url(#p76de7f5bdf)" style="fill: none; stroke-dasharray: 2.96,1.28; stroke-dashoffset: 0; stroke: #b0b0b0; stroke-width: 0.8"/>
     </g>
     <g id="line2d_24">
      <g>
       <use xlink:href="#mf821522763" x="974.976713" y="301.717812" style="stroke: #000000; stroke-width: 0.8"/>
      </g>
     </g>
    </g>
   </g>
   <g id="matplotlib.axis_2">
    <g id="ytick_1">
     <g id="line2d_25">
      <path d="M 43.25 274.708168 
L 982.876106 274.708168 
" clip-path="url(#p76de7f5bdf)" style="fill: none; stroke-dasharray: 2.96,1.28; stroke-dashoffset: 0; stroke: #b0b0b0; stroke-width: 0.8"/>
     </g>
     <g id="line2d_26">
      <defs>
       <path id="m50f062fa5c" d="M 0 0 
L -3.5 0 
" style="stroke: #000000; stroke-width: 0.8"/>
      </defs>
      <g>
       <use xlink:href="#m50f062fa5c" x="43.25" y="274.708168" style="stroke: #000000; stroke-width: 0.8"/>
      </g>
     </g>
     <g id="text_1">
      <!-- 2100 -->
      <g transform="translate(10.8 278.507387)scale(0.1 -0.1)">
       <defs>
        <path id="DejaVuSans-32" d="M 1228 531 
L 3431 531 
L 3431 0 
L 469 0 
L 469 531 
Q 828 903 1448 1529 
Q 2069 2156 2228 2338 
Q 2531 2678 2651 2914 
Q 2772 3150 2772 3378 
Q 2772 3750 2511 3984 
Q 2250 4219 1831 4219 
Q 1534 4219 1204 4116 
Q 875 4013 500 3803 
L 500 4441 
Q 881 4594 1212 4672 
Q 1544 4750 1819 4750 
Q 2544 4750 2975 4387 
Q 3406 4025 3406 3419 
Q 3406 3131 3298 2873 
Q 3191 2616 2906 2266 
Q 2828 2175 2409 1742 
Q 1991 1309 1228 531 
z
" transform="scale(0.015625)"/>
        <path id="DejaVuSans-31" d="M 794 531 
L 1825 531 
L 1825 4091 
L 703 3866 
L 703 4441 
L 1819 4666 
L 2450 4666 
L 2450 531 
L 3481 531 
L 3481 0 
L 794 0 
L 794 531 
z
" transform="scale(0.015625)"/>
        <path id="DejaVuSans-30" d="M 2034 4250 
Q 1547 4250 1301 3770 
Q 1056 3291 1056 2328 
Q 1056 1369 1301 889 
Q 1547 409 2034 409 
Q 2525 409 2770 889 
Q 3016 1369 3016 2328 
Q 3016 3291 2770 3770 
Q 2525 4250 2034 4250 
z
M 2034 4750 
Q 2819 4750 3233 4129 
Q 3647 3509 3647 2328 
Q 3647 1150 3233 529 
Q 2819 -91 2034 -91 
Q 1250 -91 836 529 
Q 422 1150 422 2328 
Q 422 3509 836 4129 
Q 1250 4750 2034 4750 
z
" transform="scale(0.015625)"/>
       </defs>
       <use xlink:href="#DejaVuSans-32"/>
       <use xlink:href="#DejaVuSans-31" x="63.623047"/>
       <use xlink:href="#DejaVuSans-30" x="127.246094"/>
       <use xlink:href="#DejaVuSans-30" x="190.869141"/>
      </g>
     </g>
    </g>
    <g id="ytick_2">
     <g id="line2d_27">
      <path d="M 43.25 241.95531 
L 982.876106 241.95531 
" clip-path="url(#p76de7f5bdf)" style="fill: none; stroke-dasharray: 2.96,1.28; stroke-dashoffset: 0; stroke: #b0b0b0; stroke-width: 0.8"/>
     </g>
     <g id="line2d_28">
      <g>
       <use xlink:href="#m50f062fa5c" x="43.25" y="241.95531" style="stroke: #000000; stroke-width: 0.8"/>
      </g>
     </g>
     <g id="text_2">
      <!-- 2200 -->
      <g transform="translate(10.8 245.754528)scale(0.1 -0.1)">
       <use xlink:href="#DejaVuSans-32"/>
       <use xlink:href="#DejaVuSans-32" x="63.623047"/>
       <use xlink:href="#DejaVuSans-30" x="127.246094"/>
       <use xlink:href="#DejaVuSans-30" x="190.869141"/>
      </g>
     </g>
    </g>
    <g id="ytick_3">
     <g id="line2d_29">
      <path d="M 43.25 209.202451 
L 982.876106 209.202451 
" clip-path="url(#p76de7f5bdf)" style="fill: none; stroke-dasharray: 2.96,1.28; stroke-dashoffset: 0; stroke: #b0b0b0; stroke-width: 0.8"/>
     </g>
     <g id="line2d_30">
      <g>
       <use xlink:href="#m50f062fa5c" x="43.25" y="209.202451" style="stroke: #000000; stroke-width: 0.8"/>
      </g>
     </g>
     <g id="text_3">
      <!-- 2300 -->
      <g transform="translate(10.8 213.00167)scale(0.1 -0.1)">
       <defs>
        <path id="DejaVuSans-33" d="M 2597 2516 
Q 3050 2419 3304 2112 
Q 3559 1806 3559 1356 
Q 3559 666 3084 287 
Q 2609 -91 1734 -91 
Q 1441 -91 1130 -33 
Q 819 25 488 141 
L 488 750 
Q 750 597 1062 519 
Q 1375 441 1716 441 
Q 2309 441 2620 675 
Q 2931 909 2931 1356 
Q 2931 1769 2642 2001 
Q 2353 2234 1838 2234 
L 1294 2234 
L 1294 2753 
L 1863 2753 
Q 2328 2753 2575 2939 
Q 2822 3125 2822 3475 
Q 2822 3834 2567 4026 
Q 2313 4219 1838 4219 
Q 1578 4219 1281 4162 
Q 984 4106 628 3988 
L 628 4550 
Q 988 4650 1302 4700 
Q 1616 4750 1894 4750 
Q 2613 4750 3031 4423 
Q 3450 4097 3450 3541 
Q 3450 3153 3228 2886 
Q 3006 2619 2597 2516 
z
" transform="scale(0.015625)"/>
       </defs>
       <use xlink:href="#DejaVuSans-32"/>
       <use xlink:href="#DejaVuSans-33" x="63.623047"/>
       <use xlink:href="#DejaVuSans-30" x="127.246094"/>
       <use xlink:href="#DejaVuSans-30" x="190.869141"/>
      </g>
     </g>
    </g>
    <g id="ytick_4">
     <g id="line2d_31">
      <path d="M 43.25 176.449593 
L 982.876106 176.449593 
" clip-path="url(#p76de7f5bdf)" style="fill: none; stroke-dasharray: 2.96,1.28; stroke-dashoffset: 0; stroke: #b0b0b0; stroke-width: 0.8"/>
     </g>
     <g id="line2d_32">
      <g>
       <use xlink:href="#m50f062fa5c" x="43.25" y="176.449593" style="stroke: #000000; stroke-width: 0.8"/>
      </g>
     </g>
     <g id="text_4">
      <!-- 2400 -->
      <g transform="translate(10.8 180.248812)scale(0.1 -0.1)">
       <defs>
        <path id="DejaVuSans-34" d="M 2419 4116 
L 825 1625 
L 2419 1625 
L 2419 4116 
z
M 2253 4666 
L 3047 4666 
L 3047 1625 
L 3713 1625 
L 3713 1100 
L 3047 1100 
L 3047 0 
L 2419 0 
L 2419 1100 
L 313 1100 
L 313 1709 
L 2253 4666 
z
" transform="scale(0.015625)"/>
       </defs>
       <use xlink:href="#DejaVuSans-32"/>
       <use xlink:href="#DejaVuSans-34" x="63.623047"/>
       <use xlink:href="#DejaVuSans-30" x="127.246094"/>
       <use xlink:href="#DejaVuSans-30" x="190.869141"/>
      </g>
     </g>
    </g>
    <g id="ytick_5">
     <g id="line2d_33">
      <path d="M 43.25 143.696735 
L 982.876106 143.696735 
" clip-path="url(#p76de7f5bdf)" style="fill: none; stroke-dasharray: 2.96,1.28; stroke-dashoffset: 0; stroke: #b0b0b0; stroke-width: 0.8"/>
     </g>
     <g id="line2d_34">
      <g>
       <use xlink:href="#m50f062fa5c" x="43.25" y="143.696735" style="stroke: #000000; stroke-width: 0.8"/>
      </g>
     </g>
     <g id="text_5">
      <!-- 2500 -->
      <g transform="translate(10.8 147.495954)scale(0.1 -0.1)">
       <defs>
        <path id="DejaVuSans-35" d="M 691 4666 
L 3169 4666 
L 3169 4134 
L 1269 4134 
L 1269 2991 
Q 1406 3038 1543 3061 
Q 1681 3084 1819 3084 
Q 2600 3084 3056 2656 
Q 3513 2228 3513 1497 
Q 3513 744 3044 326 
Q 2575 -91 1722 -91 
Q 1428 -91 1123 -41 
Q 819 9 494 109 
L 494 744 
Q 775 591 1075 516 
Q 1375 441 1709 441 
Q 2250 441 2565 725 
Q 2881 1009 2881 1497 
Q 2881 1984 2565 2268 
Q 2250 2553 1709 2553 
Q 1456 2553 1204 2497 
Q 953 2441 691 2322 
L 691 4666 
z
" transform="scale(0.015625)"/>
       </defs>
       <use xlink:href="#DejaVuSans-32"/>
       <use xlink:href="#DejaVuSans-35" x="63.623047"/>
       <use xlink:href="#DejaVuSans-30" x="127.246094"/>
       <use xlink:href="#DejaVuSans-30" x="190.869141"/>
      </g>
     </g>
    </g>
    <g id="ytick_6">
     <g id="line2d_35">
      <path d="M 43.25 110.943877 
L 982.876106 110.943877 
" clip-path="url(#p76de7f5bdf)" style="fill: none; stroke-dasharray: 2.96,1.28; stroke-dashoffset: 0; stroke: #b0b0b0; stroke-width: 0.8"/>
     </g>
     <g id="line2d_36">
      <g>
       <use xlink:href="#m50f062fa5c" x="43.25" y="110.943877" style="stroke: #000000; stroke-width: 0.8"/>
      </g>
     </g>
     <g id="text_6">
      <!-- 2600 -->
      <g transform="translate(10.8 114.743095)scale(0.1 -0.1)">
       <defs>
        <path id="DejaVuSans-36" d="M 2113 2584 
Q 1688 2584 1439 2293 
Q 1191 2003 1191 1497 
Q 1191 994 1439 701 
Q 1688 409 2113 409 
Q 2538 409 2786 701 
Q 3034 994 3034 1497 
Q 3034 2003 2786 2293 
Q 2538 2584 2113 2584 
z
M 3366 4563 
L 3366 3988 
Q 3128 4100 2886 4159 
Q 2644 4219 2406 4219 
Q 1781 4219 1451 3797 
Q 1122 3375 1075 2522 
Q 1259 2794 1537 2939 
Q 1816 3084 2150 3084 
Q 2853 3084 3261 2657 
Q 3669 2231 3669 1497 
Q 3669 778 3244 343 
Q 2819 -91 2113 -91 
Q 1303 -91 875 529 
Q 447 1150 447 2328 
Q 447 3434 972 4092 
Q 1497 4750 2381 4750 
Q 2619 4750 2861 4703 
Q 3103 4656 3366 4563 
z
" transform="scale(0.015625)"/>
       </defs>
       <use xlink:href="#DejaVuSans-32"/>
       <use xlink:href="#DejaVuSans-36" x="63.623047"/>
       <use xlink:href="#DejaVuSans-30" x="127.246094"/>
       <use xlink:href="#DejaVuSans-30" x="190.869141"/>
      </g>
     </g>
    </g>
    <g id="ytick_7">
     <g id="line2d_37">
      <path d="M 43.25 78.191018 
L 982.876106 78.191018 
" clip-path="url(#p76de7f5bdf)" style="fill: none; stroke-dasharray: 2.96,1.28; stroke-dashoffset: 0; stroke: #b0b0b0; stroke-width: 0.8"/>
     </g>
     <g id="line2d_38">
      <g>
       <use xlink:href="#m50f062fa5c" x="43.25" y="78.191018" style="stroke: #000000; stroke-width: 0.8"/>
      </g>
     </g>
     <g id="text_7">
      <!-- 2700 -->
      <g transform="translate(10.8 81.990237)scale(0.1 -0.1)">
       <defs>
        <path id="DejaVuSans-37" d="M 525 4666 
L 3525 4666 
L 3525 4397 
L 1831 0 
L 1172 0 
L 2766 4134 
L 525 4134 
L 525 4666 
z
" transform="scale(0.015625)"/>
       </defs>
       <use xlink:href="#DejaVuSans-32"/>
       <use xlink:href="#DejaVuSans-37" x="63.623047"/>
       <use xlink:href="#DejaVuSans-30" x="127.246094"/>
       <use xlink:href="#DejaVuSans-30" x="190.869141"/>
      </g>
     </g>
    </g>
   </g>
   <g id="line2d_39">
    <path d="M 85.960278 99.021836 
L 88.638038 86.280974 
L 91.315798 86.821396 
L 93.993559 104.262293 
L 96.671319 112.024721 
L 104.7046 91.406797 
L 107.38236 74.60458 
L 110.060121 65.908696 
L 112.737881 59.849418 
L 115.415641 74.113287 
L 123.448922 77.306691 
L 126.126683 90.47334 
L 128.804443 104.311423 
L 131.482203 120.999004 
L 134.159964 113.252953 
L 142.193245 130.661097 
L 144.871005 133.67436 
L 150.226526 142.599514 
L 152.904286 138.292513 
L 160.937567 136.818635 
L 163.615328 122.292742 
L 166.293088 106.702381 
L 168.970848 134.59144 
L 171.648609 142.632267 
L 179.68189 167.229663 
L 182.35965 171.667676 
L 185.03741 164.871458 
L 187.715171 151.37728 
L 190.392931 167.819215 
L 198.426212 210.250543 
L 201.103972 196.019426 
L 203.781733 188.289751 
L 206.459493 172.584756 
L 209.137254 162.971792 
L 217.170535 164.396541 
L 219.848295 158.779426 
L 222.526055 164.314659 
L 225.203816 195.102346 
L 227.881576 176.007429 
L 235.914857 188.076858 
L 241.270378 216.375327 
L 243.948138 218.045723 
L 246.625898 236.223559 
L 254.659179 267.518916 
L 257.33694 257.77494 
L 262.69246 229.5256 
L 265.370221 232.129452 
L 273.403502 217.161396 
L 276.081262 228.575767 
L 278.759023 211.789927 
L 281.436783 171.454782 
L 292.147824 179.102575 
L 294.825585 175.548889 
L 297.503345 194.037878 
L 300.181105 205.763401 
L 302.858866 208.219866 
L 310.892147 219.601484 
L 313.569907 196.969259 
L 316.247667 181.215134 
L 318.925428 179.593867 
L 321.603188 159.319848 
L 329.636469 84.725213 
L 332.314229 103.181449 
L 334.99199 131.889329 
L 337.66975 155.913551 
L 340.347511 157.371053 
L 348.380792 168.359637 
L 351.058552 168.032109 
L 353.736312 183.491458 
L 367.125114 221.157245 
L 369.802874 261.541519 
L 372.480635 248.440376 
L 375.158395 231.916559 
L 377.836155 239.859127 
L 385.869436 238.51626 
L 388.547197 232.063946 
L 391.224957 235.830525 
L 396.580478 232.227711 
L 404.613759 220.99348 
L 409.96928 239.678986 
L 412.64704 236.911369 
L 415.3248 258.118845 
L 423.358081 252.337966 
L 426.035842 241.529522 
L 428.713602 235.699514 
L 431.391362 258.184351 
L 434.069123 263.916101 
L 442.102404 251.093357 
L 444.780164 245.050455 
L 447.457924 247.015626 
L 450.135685 262.81888 
L 452.813445 241.431264 
L 460.846726 249.832372 
L 466.202247 229.689364 
L 468.880007 213.214677 
L 471.557768 199.245582 
L 479.591049 187.176154 
L 482.268809 206.991633 
L 484.946569 199.409347 
L 487.62433 212.608749 
L 490.30209 216.620974 
L 498.335371 217.718195 
L 501.013131 222.467359 
L 503.690892 222.745758 
L 506.368652 220.518564 
L 509.046412 248.571387 
L 517.079693 265.38998 
L 519.757454 271.596646 
L 522.435214 272.923137 
L 525.112974 288.955661 
L 527.790735 290.20027 
L 535.824016 263.162785 
L 538.501776 250.241783 
L 541.179537 255.302099 
L 543.857297 253.680833 
L 546.535057 245.558124 
L 554.568338 243.773093 
L 557.246099 248.227482 
L 559.923859 249.439338 
L 562.601619 251.502768 
L 565.27938 238.499883 
L 573.312661 236.436453 
L 575.990421 241.005477 
L 578.668181 232.293216 
L 581.345942 227.036383 
L 584.023702 228.936048 
L 592.056983 225.742645 
L 594.734744 233.144791 
L 597.412504 253.402434 
L 600.090264 252.632741 
L 602.768025 236.682099 
L 610.801306 240.546937 
L 616.156826 231.670912 
L 618.834587 228.068098 
L 621.512347 210.528942 
L 629.545628 206.369329 
L 632.223388 211.658916 
L 634.901149 204.829945 
L 637.578909 196.903753 
L 640.256669 183.720728 
L 648.28995 181.771933 
L 650.967711 191.745178 
L 653.645471 186.799496 
L 659.000992 191.122874 
L 667.034273 178.513023 
L 672.389794 177.006392 
L 675.067554 158.48465 
L 677.745314 157.976981 
L 688.456356 148.888063 
L 691.134116 146.447975 
L 693.811876 144.368168 
L 696.489637 154.161273 
L 704.522918 168.85093 
L 707.200678 169.653375 
L 709.878438 163.839743 
L 712.556199 169.980904 
L 715.233959 177.530437 
L 723.26724 187.585565 
L 725.945001 161.252267 
L 731.300521 175.073973 
L 733.978282 161.9237 
L 742.011563 158.02611 
L 744.689323 160.564457 
L 747.367083 167.344298 
L 750.044844 160.187799 
L 752.722604 166.132443 
L 760.755885 170.22655 
L 763.433645 159.581871 
L 766.111406 158.975943 
L 768.789166 156.994395 
L 771.466926 175.106726 
L 779.500207 162.88991 
L 782.177968 148.200253 
L 784.855728 156.847007 
L 787.533489 170.996242 
L 790.211249 191.761554 
L 798.24453 206.041801 
L 800.92229 212.756136 
L 803.600051 227.527676 
L 806.277811 229.672988 
L 808.955571 213.214677 
L 816.988852 214.754061 
L 819.666613 193.006163 
L 825.022133 203.929241 
L 827.699894 200.391932 
L 835.733175 209.693744 
L 838.410935 218.618898 
L 841.088695 208.629276 
L 843.766456 214.688555 
L 846.444216 194.954958 
L 854.477497 193.071669 
L 857.155258 198.836172 
L 859.833018 182.410613 
L 862.510778 186.537473 
L 865.188539 192.858775 
L 873.22182 178.742293 
L 875.89958 190.631581 
L 881.255101 181.91932 
L 883.932861 176.302205 
L 891.966142 153.588098 
L 894.643902 141.666058 
L 897.321663 141.076506 
L 899.999423 147.168538 
L 902.677183 148.069241 
L 910.710465 141.273023 
L 916.065985 142.550385 
L 918.743746 142.353868 
L 921.421506 94.010649 
L 929.454787 90.784492 
L 932.132547 86.215469 
L 934.810308 79.108098 
L 937.488068 91.537808 
L 940.165828 88.983085 
L 940.165828 88.983085 
" clip-path="url(#p76de7f5bdf)" style="fill: none; stroke: #1f77b4; stroke-width: 1.5; stroke-linecap: square"/>
   </g>
   <g id="line2d_40">
    <path d="M 96.671319 97.682244 
L 104.7046 96.159236 
L 107.38236 93.823958 
L 110.060121 89.641418 
L 112.737881 80.758842 
L 115.415641 73.176556 
L 123.448922 70.356535 
L 126.126683 73.530287 
L 128.804443 81.210832 
L 131.482203 93.440749 
L 134.159964 101.268682 
L 142.193245 111.939563 
L 144.871005 120.579767 
L 150.226526 128.237386 
L 152.904286 131.696088 
L 160.937567 136.409224 
L 163.615328 134.735553 
L 166.293088 129.341157 
L 168.970848 127.739542 
L 171.648609 128.607493 
L 179.68189 134.689699 
L 182.35965 144.564686 
L 185.03741 156.198501 
L 187.715171 159.555669 
L 190.392931 164.593058 
L 198.426212 173.197234 
L 203.781733 182.751243 
L 206.459493 186.992738 
L 209.137254 186.023254 
L 217.170535 176.852453 
L 219.848295 169.404453 
L 222.526055 164.609435 
L 225.203816 169.112953 
L 227.881576 171.72008 
L 235.914857 176.456144 
L 241.270378 187.975324 
L 243.948138 198.721537 
L 246.625898 206.945779 
L 254.659179 225.248077 
L 257.33694 239.187693 
L 260.0147 244.670522 
L 262.69246 246.966497 
L 265.370221 246.147676 
L 273.403502 236.076172 
L 276.081262 230.236337 
L 278.759023 223.836428 
L 281.436783 212.222265 
L 292.147824 201.616889 
L 294.825585 193.294388 
L 297.503345 186.38681 
L 300.181105 185.181505 
L 302.858866 192.534522 
L 310.892147 200.634304 
L 313.569907 204.918378 
L 316.247667 202.353829 
L 318.925428 197.119922 
L 321.603188 187.339918 
L 329.636469 160.364664 
L 332.314229 141.607102 
L 334.99199 131.741942 
L 337.66975 127.005878 
L 340.347511 126.616119 
L 348.380792 143.343004 
L 351.058552 156.313136 
L 353.736312 166.633561 
L 367.125114 179.6823 
L 369.802874 200.516393 
L 372.480635 216.532541 
L 375.158395 229.309431 
L 377.836155 240.582965 
L 385.869436 244.054768 
L 388.547197 238.159253 
L 391.224957 235.637283 
L 393.902717 236.072896 
L 396.580478 234.546613 
L 404.613759 231.042057 
L 409.96928 232.565065 
L 412.64704 232.781234 
L 415.3248 237.586078 
L 423.358081 241.608129 
L 426.035842 245.715338 
L 428.713602 244.919443 
L 431.391362 249.17404 
L 434.069123 250.333491 
L 442.102404 250.084569 
L 444.780164 250.788756 
L 447.457924 253.051978 
L 450.135685 253.978884 
L 452.813445 249.481916 
L 460.846726 249.229719 
L 463.524487 248.165252 
L 466.202247 244.699999 
L 468.880007 234.779158 
L 471.557768 226.342022 
L 479.591049 213.810779 
L 482.268809 207.263482 
L 484.946569 201.207479 
L 487.62433 201.086293 
L 490.30209 204.561371 
L 498.335371 210.669779 
L 501.013131 213.764925 
L 503.690892 218.432207 
L 506.368652 220.01417 
L 509.046412 226.404253 
L 517.079693 235.93861 
L 522.435214 255.799943 
L 525.112974 269.487362 
L 527.790735 277.813139 
L 535.824016 277.3677 
L 538.501776 273.096727 
L 541.179537 269.57252 
L 543.857297 262.517554 
L 546.535057 253.589125 
L 554.568338 249.711186 
L 557.246099 249.308326 
L 559.923859 248.135774 
L 562.601619 247.700161 
L 565.27938 246.288513 
L 573.312661 244.821185 
L 575.990421 243.376784 
L 578.668181 239.947559 
L 581.345942 235.054282 
L 584.023702 233.141515 
L 592.056983 231.002754 
L 594.734744 229.430617 
L 597.412504 233.65246 
L 600.090264 238.771732 
L 602.768025 240.320942 
L 610.801306 243.2818 
L 613.479066 243.884453 
L 616.156826 239.538149 
L 618.834587 234.62522 
L 621.512347 229.394588 
L 629.545628 222.559067 
L 632.223388 217.659239 
L 634.901149 212.291046 
L 637.578909 206.058177 
L 640.256669 200.696534 
L 648.28995 195.777055 
L 650.967711 191.794307 
L 653.645471 188.188217 
L 656.323232 186.602979 
L 659.000992 188.083408 
L 667.034273 187.431626 
L 672.389794 184.483869 
L 675.067554 178.8209 
L 677.745314 172.620784 
L 688.456356 164.173822 
L 693.811876 151.233167 
L 696.489637 150.368492 
L 704.522918 152.543282 
L 707.200678 156.696344 
L 709.878438 160.174698 
L 712.556199 165.297245 
L 715.233959 169.971078 
L 723.26724 173.718005 
L 725.945001 172.037783 
L 731.300521 174.284629 
L 733.978282 172.673189 
L 742.011563 168.772323 
L 744.689323 163.368101 
L 747.367083 164.586508 
L 750.044844 161.609273 
L 760.755885 164.891109 
L 763.433645 164.694592 
L 766.111406 163.020921 
L 768.789166 162.38224 
L 771.466926 164.177097 
L 779.500207 162.709769 
L 782.177968 160.433445 
L 784.855728 160.007658 
L 787.533489 162.808028 
L 790.211249 166.138993 
L 798.24453 174.769371 
L 800.92229 187.680548 
L 803.600051 201.816682 
L 806.277811 213.552031 
L 808.955571 217.842655 
L 816.988852 219.585107 
L 819.666613 215.635113 
L 825.022133 210.915426 
L 827.699894 205.059215 
L 835.733175 204.355028 
L 838.410935 205.127996 
L 841.088695 208.252618 
L 843.766456 210.404481 
L 854.477497 205.992671 
L 857.155258 202.036126 
L 859.833018 196.792393 
L 862.510778 191.162177 
L 865.188539 190.74294 
L 873.22182 187.877065 
L 875.89958 186.236147 
L 881.255101 186.137889 
L 883.932861 184.090835 
L 891.966142 176.2367 
L 894.643902 168.821452 
L 897.321663 158.910437 
L 899.999423 151.960281 
L 902.677183 146.313688 
L 910.710465 143.850673 
L 916.065985 144.027539 
L 918.743746 144.283011 
L 921.421506 133.651433 
L 929.454787 122.194483 
L 932.132547 111.182972 
L 934.810308 98.494515 
L 937.488068 88.331303 
L 940.165828 87.32579 
L 940.165828 87.32579 
" clip-path="url(#p76de7f5bdf)" style="fill: none; stroke: #ff7f0e; stroke-width: 1.5; stroke-linecap: square"/>
   </g>
   <g id="patch_3">
    <path d="M 43.25 301.717812 
L 43.25 48.331875 
" style="fill: none; stroke: #000000; stroke-width: 0.8; stroke-linejoin: miter; stroke-linecap: square"/>
   </g>
   <g id="patch_4">
    <path d="M 982.876106 301.717812 
L 982.876106 48.331875 
" style="fill: none; stroke: #000000; stroke-width: 0.8; stroke-linejoin: miter; stroke-linecap: square"/>
   </g>
   <g id="patch_5">
    <path d="M 43.25 301.717812 
L 982.876106 301.717812 
" style="fill: none; stroke: #000000; stroke-width: 0.8; stroke-linejoin: miter; stroke-linecap: square"/>
   </g>
   <g id="patch_6">
    <path d="M 43.25 48.331875 
L 982.876106 48.331875 
" style="fill: none; stroke: #000000; stroke-width: 0.8; stroke-linejoin: miter; stroke-linecap: square"/>
   </g>
   <g id="text_8">
    <!-- Closing Price -->
    <g transform="translate(474.587115 42.331875)scale(0.12 -0.12)">
     <defs>
      <path id="DejaVuSans-43" d="M 4122 4306 
L 4122 3641 
Q 3803 3938 3442 4084 
Q 3081 4231 2675 4231 
Q 1875 4231 1450 3742 
Q 1025 3253 1025 2328 
Q 1025 1406 1450 917 
Q 1875 428 2675 428 
Q 3081 428 3442 575 
Q 3803 722 4122 1019 
L 4122 359 
Q 3791 134 3420 21 
Q 3050 -91 2638 -91 
Q 1578 -91 968 557 
Q 359 1206 359 2328 
Q 359 3453 968 4101 
Q 1578 4750 2638 4750 
Q 3056 4750 3426 4639 
Q 3797 4528 4122 4306 
z
" transform="scale(0.015625)"/>
      <path id="DejaVuSans-6c" d="M 603 4863 
L 1178 4863 
L 1178 0 
L 603 0 
L 603 4863 
z
" transform="scale(0.015625)"/>
      <path id="DejaVuSans-6f" d="M 1959 3097 
Q 1497 3097 1228 2736 
Q 959 2375 959 1747 
Q 959 1119 1226 758 
Q 1494 397 1959 397 
Q 2419 397 2687 759 
Q 2956 1122 2956 1747 
Q 2956 2369 2687 2733 
Q 2419 3097 1959 3097 
z
M 1959 3584 
Q 2709 3584 3137 3096 
Q 3566 2609 3566 1747 
Q 3566 888 3137 398 
Q 2709 -91 1959 -91 
Q 1206 -91 779 398 
Q 353 888 353 1747 
Q 353 2609 779 3096 
Q 1206 3584 1959 3584 
z
" transform="scale(0.015625)"/>
      <path id="DejaVuSans-73" d="M 2834 3397 
L 2834 2853 
Q 2591 2978 2328 3040 
Q 2066 3103 1784 3103 
Q 1356 3103 1142 2972 
Q 928 2841 928 2578 
Q 928 2378 1081 2264 
Q 1234 2150 1697 2047 
L 1894 2003 
Q 2506 1872 2764 1633 
Q 3022 1394 3022 966 
Q 3022 478 2636 193 
Q 2250 -91 1575 -91 
Q 1294 -91 989 -36 
Q 684 19 347 128 
L 347 722 
Q 666 556 975 473 
Q 1284 391 1588 391 
Q 1994 391 2212 530 
Q 2431 669 2431 922 
Q 2431 1156 2273 1281 
Q 2116 1406 1581 1522 
L 1381 1569 
Q 847 1681 609 1914 
Q 372 2147 372 2553 
Q 372 3047 722 3315 
Q 1072 3584 1716 3584 
Q 2034 3584 2315 3537 
Q 2597 3491 2834 3397 
z
" transform="scale(0.015625)"/>
      <path id="DejaVuSans-69" d="M 603 3500 
L 1178 3500 
L 1178 0 
L 603 0 
L 603 3500 
z
M 603 4863 
L 1178 4863 
L 1178 4134 
L 603 4134 
L 603 4863 
z
" transform="scale(0.015625)"/>
      <path id="DejaVuSans-6e" d="M 3513 2113 
L 3513 0 
L 2938 0 
L 2938 2094 
Q 2938 2591 2744 2837 
Q 2550 3084 2163 3084 
Q 1697 3084 1428 2787 
Q 1159 2491 1159 1978 
L 1159 0 
L 581 0 
L 581 3500 
L 1159 3500 
L 1159 2956 
Q 1366 3272 1645 3428 
Q 1925 3584 2291 3584 
Q 2894 3584 3203 3211 
Q 3513 2838 3513 2113 
z
" transform="scale(0.015625)"/>
      <path id="DejaVuSans-67" d="M 2906 1791 
Q 2906 2416 2648 2759 
Q 2391 3103 1925 3103 
Q 1463 3103 1205 2759 
Q 947 2416 947 1791 
Q 947 1169 1205 825 
Q 1463 481 1925 481 
Q 2391 481 2648 825 
Q 2906 1169 2906 1791 
z
M 3481 434 
Q 3481 -459 3084 -895 
Q 2688 -1331 1869 -1331 
Q 1566 -1331 1297 -1286 
Q 1028 -1241 775 -1147 
L 775 -588 
Q 1028 -725 1275 -790 
Q 1522 -856 1778 -856 
Q 2344 -856 2625 -561 
Q 2906 -266 2906 331 
L 2906 616 
Q 2728 306 2450 153 
Q 2172 0 1784 0 
Q 1141 0 747 490 
Q 353 981 353 1791 
Q 353 2603 747 3093 
Q 1141 3584 1784 3584 
Q 2172 3584 2450 3431 
Q 2728 3278 2906 2969 
L 2906 3500 
L 3481 3500 
L 3481 434 
z
" transform="scale(0.015625)"/>
      <path id="DejaVuSans-20" transform="scale(0.015625)"/>
      <path id="DejaVuSans-50" d="M 1259 4147 
L 1259 2394 
L 2053 2394 
Q 2494 2394 2734 2622 
Q 2975 2850 2975 3272 
Q 2975 3691 2734 3919 
Q 2494 4147 2053 4147 
L 1259 4147 
z
M 628 4666 
L 2053 4666 
Q 2838 4666 3239 4311 
Q 3641 3956 3641 3272 
Q 3641 2581 3239 2228 
Q 2838 1875 2053 1875 
L 1259 1875 
L 1259 0 
L 628 0 
L 628 4666 
z
" transform="scale(0.015625)"/>
      <path id="DejaVuSans-72" d="M 2631 2963 
Q 2534 3019 2420 3045 
Q 2306 3072 2169 3072 
Q 1681 3072 1420 2755 
Q 1159 2438 1159 1844 
L 1159 0 
L 581 0 
L 581 3500 
L 1159 3500 
L 1159 2956 
Q 1341 3275 1631 3429 
Q 1922 3584 2338 3584 
Q 2397 3584 2469 3576 
Q 2541 3569 2628 3553 
L 2631 2963 
z
" transform="scale(0.015625)"/>
      <path id="DejaVuSans-63" d="M 3122 3366 
L 3122 2828 
Q 2878 2963 2633 3030 
Q 2388 3097 2138 3097 
Q 1578 3097 1268 2742 
Q 959 2388 959 1747 
Q 959 1106 1268 751 
Q 1578 397 2138 397 
Q 2388 397 2633 464 
Q 2878 531 3122 666 
L 3122 134 
Q 2881 22 2623 -34 
Q 2366 -91 2075 -91 
Q 1284 -91 818 406 
Q 353 903 353 1747 
Q 353 2603 823 3093 
Q 1294 3584 2113 3584 
Q 2378 3584 2631 3529 
Q 2884 3475 3122 3366 
z
" transform="scale(0.015625)"/>
      <path id="DejaVuSans-65" d="M 3597 1894 
L 3597 1613 
L 953 1613 
Q 991 1019 1311 708 
Q 1631 397 2203 397 
Q 2534 397 2845 478 
Q 3156 559 3463 722 
L 3463 178 
Q 3153 47 2828 -22 
Q 2503 -91 2169 -91 
Q 1331 -91 842 396 
Q 353 884 353 1716 
Q 353 2575 817 3079 
Q 1281 3584 2069 3584 
Q 2775 3584 3186 3129 
Q 3597 2675 3597 1894 
z
M 3022 2063 
Q 3016 2534 2758 2815 
Q 2500 3097 2075 3097 
Q 1594 3097 1305 2825 
Q 1016 2553 972 2059 
L 3022 2063 
z
" transform="scale(0.015625)"/>
     </defs>
     <use xlink:href="#DejaVuSans-43"/>
     <use xlink:href="#DejaVuSans-6c" x="69.824219"/>
     <use xlink:href="#DejaVuSans-6f" x="97.607422"/>
     <use xlink:href="#DejaVuSans-73" x="158.789062"/>
     <use xlink:href="#DejaVuSans-69" x="210.888672"/>
     <use xlink:href="#DejaVuSans-6e" x="238.671875"/>
     <use xlink:href="#DejaVuSans-67" x="302.050781"/>
     <use xlink:href="#DejaVuSans-20" x="365.527344"/>
     <use xlink:href="#DejaVuSans-50" x="397.314453"/>
     <use xlink:href="#DejaVuSans-72" x="455.867188"/>
     <use xlink:href="#DejaVuSans-69" x="496.980469"/>
     <use xlink:href="#DejaVuSans-63" x="524.763672"/>
     <use xlink:href="#DejaVuSans-65" x="579.744141"/>
    </g>
   </g>
   <g id="legend_1">
    <g id="patch_7">
     <path d="M 50.25 296.717812 
L 114.98125 296.717812 
Q 116.98125 296.717812 116.98125 294.717812 
L 116.98125 266.361562 
Q 116.98125 264.361562 114.98125 264.361562 
L 50.25 264.361562 
Q 48.25 264.361562 48.25 266.361562 
L 48.25 294.717812 
Q 48.25 296.717812 50.25 296.717812 
z
" style="fill: #ffffff; opacity: 0.8; stroke: #cccccc; stroke-linejoin: miter"/>
    </g>
    <g id="line2d_41">
     <path d="M 52.25 272.46 
L 62.25 272.46 
L 72.25 272.46 
" style="fill: none; stroke: #1f77b4; stroke-width: 1.5; stroke-linecap: square"/>
    </g>
    <g id="text_9">
     <!-- CLOSE -->
     <g transform="translate(80.25 275.96)scale(0.1 -0.1)">
      <defs>
       <path id="DejaVuSans-4c" d="M 628 4666 
L 1259 4666 
L 1259 531 
L 3531 531 
L 3531 0 
L 628 0 
L 628 4666 
z
" transform="scale(0.015625)"/>
       <path id="DejaVuSans-4f" d="M 2522 4238 
Q 1834 4238 1429 3725 
Q 1025 3213 1025 2328 
Q 1025 1447 1429 934 
Q 1834 422 2522 422 
Q 3209 422 3611 934 
Q 4013 1447 4013 2328 
Q 4013 3213 3611 3725 
Q 3209 4238 2522 4238 
z
M 2522 4750 
Q 3503 4750 4090 4092 
Q 4678 3434 4678 2328 
Q 4678 1225 4090 567 
Q 3503 -91 2522 -91 
Q 1538 -91 948 565 
Q 359 1222 359 2328 
Q 359 3434 948 4092 
Q 1538 4750 2522 4750 
z
" transform="scale(0.015625)"/>
       <path id="DejaVuSans-53" d="M 3425 4513 
L 3425 3897 
Q 3066 4069 2747 4153 
Q 2428 4238 2131 4238 
Q 1616 4238 1336 4038 
Q 1056 3838 1056 3469 
Q 1056 3159 1242 3001 
Q 1428 2844 1947 2747 
L 2328 2669 
Q 3034 2534 3370 2195 
Q 3706 1856 3706 1288 
Q 3706 609 3251 259 
Q 2797 -91 1919 -91 
Q 1588 -91 1214 -16 
Q 841 59 441 206 
L 441 856 
Q 825 641 1194 531 
Q 1563 422 1919 422 
Q 2459 422 2753 634 
Q 3047 847 3047 1241 
Q 3047 1584 2836 1778 
Q 2625 1972 2144 2069 
L 1759 2144 
Q 1053 2284 737 2584 
Q 422 2884 422 3419 
Q 422 4038 858 4394 
Q 1294 4750 2059 4750 
Q 2388 4750 2728 4690 
Q 3069 4631 3425 4513 
z
" transform="scale(0.015625)"/>
       <path id="DejaVuSans-45" d="M 628 4666 
L 3578 4666 
L 3578 4134 
L 1259 4134 
L 1259 2753 
L 3481 2753 
L 3481 2222 
L 1259 2222 
L 1259 531 
L 3634 531 
L 3634 0 
L 628 0 
L 628 4666 
z
" transform="scale(0.015625)"/>
      </defs>
      <use xlink:href="#DejaVuSans-43"/>
      <use xlink:href="#DejaVuSans-4c" x="69.824219"/>
      <use xlink:href="#DejaVuSans-4f" x="121.912109"/>
      <use xlink:href="#DejaVuSans-53" x="200.623047"/>
      <use xlink:href="#DejaVuSans-45" x="264.099609"/>
     </g>
    </g>
    <g id="line2d_42">
     <path d="M 52.25 287.138125 
L 62.25 287.138125 
L 72.25 287.138125 
" style="fill: none; stroke: #ff7f0e; stroke-width: 1.5; stroke-linecap: square"/>
    </g>
    <g id="text_10">
     <!-- SMA5 -->
     <g transform="translate(80.25 290.638125)scale(0.1 -0.1)">
      <defs>
       <path id="DejaVuSans-4d" d="M 628 4666 
L 1569 4666 
L 2759 1491 
L 3956 4666 
L 4897 4666 
L 4897 0 
L 4281 0 
L 4281 4097 
L 3078 897 
L 2444 897 
L 1241 4097 
L 1241 0 
L 628 0 
L 628 4666 
z
" transform="scale(0.015625)"/>
       <path id="DejaVuSans-41" d="M 2188 4044 
L 1331 1722 
L 3047 1722 
L 2188 4044 
z
M 1831 4666 
L 2547 4666 
L 4325 0 
L 3669 0 
L 3244 1197 
L 1141 1197 
L 716 0 
L 50 0 
L 1831 4666 
z
" transform="scale(0.015625)"/>
      </defs>
      <use xlink:href="#DejaVuSans-53"/>
      <use xlink:href="#DejaVuSans-4d" x="63.476562"/>
      <use xlink:href="#DejaVuSans-41" x="149.755859"/>
      <use xlink:href="#DejaVuSans-35" x="218.164062"/>
     </g>
    </g>
   </g>
  </g>
  <g id="axes_2">
   <g id="patch_8">
    <path d="M 43.25 584.521875 
L 982.876106 584.521875 
L 982.876106 331.135938 
L 43.25 331.135938 
z
" style="fill: #ffffff"/>
   </g>
   <g id="matplotlib.axis_3">
    <g id="xtick_13">
     <g id="line2d_43">
      <path d="M 80.604757 584.521875 
L 80.604757 331.135938 
" clip-path="url(#p516fde4f6f)" style="fill: none; stroke-dasharray: 2.96,1.28; stroke-dashoffset: 0; stroke: #b0b0b0; stroke-width: 0.8"/>
     </g>
     <g id="line2d_44">
      <g>
       <use xlink:href="#mf821522763" x="80.604757" y="584.521875" style="stroke: #000000; stroke-width: 0.8"/>
      </g>
     </g>
     <g id="text_11">
      <!-- 2022-01 -->
      <g transform="translate(59.713351 599.120312)scale(0.1 -0.1)">
       <defs>
        <path id="DejaVuSans-2d" d="M 313 2009 
L 1997 2009 
L 1997 1497 
L 313 1497 
L 313 2009 
z
" transform="scale(0.015625)"/>
       </defs>
       <use xlink:href="#DejaVuSans-32"/>
       <use xlink:href="#DejaVuSans-30" x="63.623047"/>
       <use xlink:href="#DejaVuSans-32" x="127.246094"/>
       <use xlink:href="#DejaVuSans-32" x="190.869141"/>
       <use xlink:href="#DejaVuSans-2d" x="254.492188"/>
       <use xlink:href="#DejaVuSans-30" x="290.576172"/>
       <use xlink:href="#DejaVuSans-31" x="354.199219"/>
      </g>
     </g>
    </g>
    <g id="xtick_14">
     <g id="line2d_45">
      <path d="M 163.615328 584.521875 
L 163.615328 331.135938 
" clip-path="url(#p516fde4f6f)" style="fill: none; stroke-dasharray: 2.96,1.28; stroke-dashoffset: 0; stroke: #b0b0b0; stroke-width: 0.8"/>
     </g>
     <g id="line2d_46">
      <g>
       <use xlink:href="#mf821522763" x="163.615328" y="584.521875" style="stroke: #000000; stroke-width: 0.8"/>
      </g>
     </g>
     <g id="text_12">
      <!-- 2022-02 -->
      <g transform="translate(142.723921 599.120312)scale(0.1 -0.1)">
       <use xlink:href="#DejaVuSans-32"/>
       <use xlink:href="#DejaVuSans-30" x="63.623047"/>
       <use xlink:href="#DejaVuSans-32" x="127.246094"/>
       <use xlink:href="#DejaVuSans-32" x="190.869141"/>
       <use xlink:href="#DejaVuSans-2d" x="254.492188"/>
       <use xlink:href="#DejaVuSans-30" x="290.576172"/>
       <use xlink:href="#DejaVuSans-32" x="354.199219"/>
      </g>
     </g>
    </g>
    <g id="xtick_15">
     <g id="line2d_47">
      <path d="M 238.592617 584.521875 
L 238.592617 331.135938 
" clip-path="url(#p516fde4f6f)" style="fill: none; stroke-dasharray: 2.96,1.28; stroke-dashoffset: 0; stroke: #b0b0b0; stroke-width: 0.8"/>
     </g>
     <g id="line2d_48">
      <g>
       <use xlink:href="#mf821522763" x="238.592617" y="584.521875" style="stroke: #000000; stroke-width: 0.8"/>
      </g>
     </g>
     <g id="text_13">
      <!-- 2022-03 -->
      <g transform="translate(217.701211 599.120312)scale(0.1 -0.1)">
       <use xlink:href="#DejaVuSans-32"/>
       <use xlink:href="#DejaVuSans-30" x="63.623047"/>
       <use xlink:href="#DejaVuSans-32" x="127.246094"/>
       <use xlink:href="#DejaVuSans-32" x="190.869141"/>
       <use xlink:href="#DejaVuSans-2d" x="254.492188"/>
       <use xlink:href="#DejaVuSans-30" x="290.576172"/>
       <use xlink:href="#DejaVuSans-33" x="354.199219"/>
      </g>
     </g>
    </g>
    <g id="xtick_16">
     <g id="line2d_49">
      <path d="M 321.603188 584.521875 
L 321.603188 331.135938 
" clip-path="url(#p516fde4f6f)" style="fill: none; stroke-dasharray: 2.96,1.28; stroke-dashoffset: 0; stroke: #b0b0b0; stroke-width: 0.8"/>
     </g>
     <g id="line2d_50">
      <g>
       <use xlink:href="#mf821522763" x="321.603188" y="584.521875" style="stroke: #000000; stroke-width: 0.8"/>
      </g>
     </g>
     <g id="text_14">
      <!-- 2022-04 -->
      <g transform="translate(300.711782 599.120312)scale(0.1 -0.1)">
       <use xlink:href="#DejaVuSans-32"/>
       <use xlink:href="#DejaVuSans-30" x="63.623047"/>
       <use xlink:href="#DejaVuSans-32" x="127.246094"/>
       <use xlink:href="#DejaVuSans-32" x="190.869141"/>
       <use xlink:href="#DejaVuSans-2d" x="254.492188"/>
       <use xlink:href="#DejaVuSans-30" x="290.576172"/>
       <use xlink:href="#DejaVuSans-34" x="354.199219"/>
      </g>
     </g>
    </g>
    <g id="xtick_17">
     <g id="line2d_51">
      <path d="M 401.935999 584.521875 
L 401.935999 331.135938 
" clip-path="url(#p516fde4f6f)" style="fill: none; stroke-dasharray: 2.96,1.28; stroke-dashoffset: 0; stroke: #b0b0b0; stroke-width: 0.8"/>
     </g>
     <g id="line2d_52">
      <g>
       <use xlink:href="#mf821522763" x="401.935999" y="584.521875" style="stroke: #000000; stroke-width: 0.8"/>
      </g>
     </g>
     <g id="text_15">
      <!-- 2022-05 -->
      <g transform="translate(381.044592 599.120312)scale(0.1 -0.1)">
       <use xlink:href="#DejaVuSans-32"/>
       <use xlink:href="#DejaVuSans-30" x="63.623047"/>
       <use xlink:href="#DejaVuSans-32" x="127.246094"/>
       <use xlink:href="#DejaVuSans-32" x="190.869141"/>
       <use xlink:href="#DejaVuSans-2d" x="254.492188"/>
       <use xlink:href="#DejaVuSans-30" x="290.576172"/>
       <use xlink:href="#DejaVuSans-35" x="354.199219"/>
      </g>
     </g>
    </g>
    <g id="xtick_18">
     <g id="line2d_53">
      <path d="M 484.946569 584.521875 
L 484.946569 331.135938 
" clip-path="url(#p516fde4f6f)" style="fill: none; stroke-dasharray: 2.96,1.28; stroke-dashoffset: 0; stroke: #b0b0b0; stroke-width: 0.8"/>
     </g>
     <g id="line2d_54">
      <g>
       <use xlink:href="#mf821522763" x="484.946569" y="584.521875" style="stroke: #000000; stroke-width: 0.8"/>
      </g>
     </g>
     <g id="text_16">
      <!-- 2022-06 -->
      <g transform="translate(464.055163 599.120312)scale(0.1 -0.1)">
       <use xlink:href="#DejaVuSans-32"/>
       <use xlink:href="#DejaVuSans-30" x="63.623047"/>
       <use xlink:href="#DejaVuSans-32" x="127.246094"/>
       <use xlink:href="#DejaVuSans-32" x="190.869141"/>
       <use xlink:href="#DejaVuSans-2d" x="254.492188"/>
       <use xlink:href="#DejaVuSans-30" x="290.576172"/>
       <use xlink:href="#DejaVuSans-36" x="354.199219"/>
      </g>
     </g>
    </g>
    <g id="xtick_19">
     <g id="line2d_55">
      <path d="M 565.27938 584.521875 
L 565.27938 331.135938 
" clip-path="url(#p516fde4f6f)" style="fill: none; stroke-dasharray: 2.96,1.28; stroke-dashoffset: 0; stroke: #b0b0b0; stroke-width: 0.8"/>
     </g>
     <g id="line2d_56">
      <g>
       <use xlink:href="#mf821522763" x="565.27938" y="584.521875" style="stroke: #000000; stroke-width: 0.8"/>
      </g>
     </g>
     <g id="text_17">
      <!-- 2022-07 -->
      <g transform="translate(544.387973 599.120312)scale(0.1 -0.1)">
       <use xlink:href="#DejaVuSans-32"/>
       <use xlink:href="#DejaVuSans-30" x="63.623047"/>
       <use xlink:href="#DejaVuSans-32" x="127.246094"/>
       <use xlink:href="#DejaVuSans-32" x="190.869141"/>
       <use xlink:href="#DejaVuSans-2d" x="254.492188"/>
       <use xlink:href="#DejaVuSans-30" x="290.576172"/>
       <use xlink:href="#DejaVuSans-37" x="354.199219"/>
      </g>
     </g>
    </g>
    <g id="xtick_20">
     <g id="line2d_57">
      <path d="M 648.28995 584.521875 
L 648.28995 331.135938 
" clip-path="url(#p516fde4f6f)" style="fill: none; stroke-dasharray: 2.96,1.28; stroke-dashoffset: 0; stroke: #b0b0b0; stroke-width: 0.8"/>
     </g>
     <g id="line2d_58">
      <g>
       <use xlink:href="#mf821522763" x="648.28995" y="584.521875" style="stroke: #000000; stroke-width: 0.8"/>
      </g>
     </g>
     <g id="text_18">
      <!-- 2022-08 -->
      <g transform="translate(627.398544 599.120312)scale(0.1 -0.1)">
       <defs>
        <path id="DejaVuSans-38" d="M 2034 2216 
Q 1584 2216 1326 1975 
Q 1069 1734 1069 1313 
Q 1069 891 1326 650 
Q 1584 409 2034 409 
Q 2484 409 2743 651 
Q 3003 894 3003 1313 
Q 3003 1734 2745 1975 
Q 2488 2216 2034 2216 
z
M 1403 2484 
Q 997 2584 770 2862 
Q 544 3141 544 3541 
Q 544 4100 942 4425 
Q 1341 4750 2034 4750 
Q 2731 4750 3128 4425 
Q 3525 4100 3525 3541 
Q 3525 3141 3298 2862 
Q 3072 2584 2669 2484 
Q 3125 2378 3379 2068 
Q 3634 1759 3634 1313 
Q 3634 634 3220 271 
Q 2806 -91 2034 -91 
Q 1263 -91 848 271 
Q 434 634 434 1313 
Q 434 1759 690 2068 
Q 947 2378 1403 2484 
z
M 1172 3481 
Q 1172 3119 1398 2916 
Q 1625 2713 2034 2713 
Q 2441 2713 2670 2916 
Q 2900 3119 2900 3481 
Q 2900 3844 2670 4047 
Q 2441 4250 2034 4250 
Q 1625 4250 1398 4047 
Q 1172 3844 1172 3481 
z
" transform="scale(0.015625)"/>
       </defs>
       <use xlink:href="#DejaVuSans-32"/>
       <use xlink:href="#DejaVuSans-30" x="63.623047"/>
       <use xlink:href="#DejaVuSans-32" x="127.246094"/>
       <use xlink:href="#DejaVuSans-32" x="190.869141"/>
       <use xlink:href="#DejaVuSans-2d" x="254.492188"/>
       <use xlink:href="#DejaVuSans-30" x="290.576172"/>
       <use xlink:href="#DejaVuSans-38" x="354.199219"/>
      </g>
     </g>
    </g>
    <g id="xtick_21">
     <g id="line2d_59">
      <path d="M 731.300521 584.521875 
L 731.300521 331.135938 
" clip-path="url(#p516fde4f6f)" style="fill: none; stroke-dasharray: 2.96,1.28; stroke-dashoffset: 0; stroke: #b0b0b0; stroke-width: 0.8"/>
     </g>
     <g id="line2d_60">
      <g>
       <use xlink:href="#mf821522763" x="731.300521" y="584.521875" style="stroke: #000000; stroke-width: 0.8"/>
      </g>
     </g>
     <g id="text_19">
      <!-- 2022-09 -->
      <g transform="translate(710.409115 599.120312)scale(0.1 -0.1)">
       <defs>
        <path id="DejaVuSans-39" d="M 703 97 
L 703 672 
Q 941 559 1184 500 
Q 1428 441 1663 441 
Q 2288 441 2617 861 
Q 2947 1281 2994 2138 
Q 2813 1869 2534 1725 
Q 2256 1581 1919 1581 
Q 1219 1581 811 2004 
Q 403 2428 403 3163 
Q 403 3881 828 4315 
Q 1253 4750 1959 4750 
Q 2769 4750 3195 4129 
Q 3622 3509 3622 2328 
Q 3622 1225 3098 567 
Q 2575 -91 1691 -91 
Q 1453 -91 1209 -44 
Q 966 3 703 97 
z
M 1959 2075 
Q 2384 2075 2632 2365 
Q 2881 2656 2881 3163 
Q 2881 3666 2632 3958 
Q 2384 4250 1959 4250 
Q 1534 4250 1286 3958 
Q 1038 3666 1038 3163 
Q 1038 2656 1286 2365 
Q 1534 2075 1959 2075 
z
" transform="scale(0.015625)"/>
       </defs>
       <use xlink:href="#DejaVuSans-32"/>
       <use xlink:href="#DejaVuSans-30" x="63.623047"/>
       <use xlink:href="#DejaVuSans-32" x="127.246094"/>
       <use xlink:href="#DejaVuSans-32" x="190.869141"/>
       <use xlink:href="#DejaVuSans-2d" x="254.492188"/>
       <use xlink:href="#DejaVuSans-30" x="290.576172"/>
       <use xlink:href="#DejaVuSans-39" x="354.199219"/>
      </g>
     </g>
    </g>
    <g id="xtick_22">
     <g id="line2d_61">
      <path d="M 811.633332 584.521875 
L 811.633332 331.135938 
" clip-path="url(#p516fde4f6f)" style="fill: none; stroke-dasharray: 2.96,1.28; stroke-dashoffset: 0; stroke: #b0b0b0; stroke-width: 0.8"/>
     </g>
     <g id="line2d_62">
      <g>
       <use xlink:href="#mf821522763" x="811.633332" y="584.521875" style="stroke: #000000; stroke-width: 0.8"/>
      </g>
     </g>
     <g id="text_20">
      <!-- 2022-10 -->
      <g transform="translate(790.741925 599.120312)scale(0.1 -0.1)">
       <use xlink:href="#DejaVuSans-32"/>
       <use xlink:href="#DejaVuSans-30" x="63.623047"/>
       <use xlink:href="#DejaVuSans-32" x="127.246094"/>
       <use xlink:href="#DejaVuSans-32" x="190.869141"/>
       <use xlink:href="#DejaVuSans-2d" x="254.492188"/>
       <use xlink:href="#DejaVuSans-31" x="290.576172"/>
       <use xlink:href="#DejaVuSans-30" x="354.199219"/>
      </g>
     </g>
    </g>
    <g id="xtick_23">
     <g id="line2d_63">
      <path d="M 894.643902 584.521875 
L 894.643902 331.135938 
" clip-path="url(#p516fde4f6f)" style="fill: none; stroke-dasharray: 2.96,1.28; stroke-dashoffset: 0; stroke: #b0b0b0; stroke-width: 0.8"/>
     </g>
     <g id="line2d_64">
      <g>
       <use xlink:href="#mf821522763" x="894.643902" y="584.521875" style="stroke: #000000; stroke-width: 0.8"/>
      </g>
     </g>
     <g id="text_21">
      <!-- 2022-11 -->
      <g transform="translate(873.752496 599.120312)scale(0.1 -0.1)">
       <use xlink:href="#DejaVuSans-32"/>
       <use xlink:href="#DejaVuSans-30" x="63.623047"/>
       <use xlink:href="#DejaVuSans-32" x="127.246094"/>
       <use xlink:href="#DejaVuSans-32" x="190.869141"/>
       <use xlink:href="#DejaVuSans-2d" x="254.492188"/>
       <use xlink:href="#DejaVuSans-31" x="290.576172"/>
       <use xlink:href="#DejaVuSans-31" x="354.199219"/>
      </g>
     </g>
    </g>
    <g id="xtick_24">
     <g id="line2d_65">
      <path d="M 974.976713 584.521875 
L 974.976713 331.135938 
" clip-path="url(#p516fde4f6f)" style="fill: none; stroke-dasharray: 2.96,1.28; stroke-dashoffset: 0; stroke: #b0b0b0; stroke-width: 0.8"/>
     </g>
     <g id="line2d_66">
      <g>
       <use xlink:href="#mf821522763" x="974.976713" y="584.521875" style="stroke: #000000; stroke-width: 0.8"/>
      </g>
     </g>
     <g id="text_22">
      <!-- 2022-12 -->
      <g transform="translate(954.085307 599.120312)scale(0.1 -0.1)">
       <use xlink:href="#DejaVuSans-32"/>
       <use xlink:href="#DejaVuSans-30" x="63.623047"/>
       <use xlink:href="#DejaVuSans-32" x="127.246094"/>
       <use xlink:href="#DejaVuSans-32" x="190.869141"/>
       <use xlink:href="#DejaVuSans-2d" x="254.492188"/>
       <use xlink:href="#DejaVuSans-31" x="290.576172"/>
       <use xlink:href="#DejaVuSans-32" x="354.199219"/>
      </g>
     </g>
    </g>
   </g>
   <g id="matplotlib.axis_4">
    <g id="ytick_8">
     <g id="line2d_67">
      <path d="M 43.25 571.837266 
L 982.876106 571.837266 
" clip-path="url(#p516fde4f6f)" style="fill: none; stroke-dasharray: 2.96,1.28; stroke-dashoffset: 0; stroke: #b0b0b0; stroke-width: 0.8"/>
     </g>
     <g id="line2d_68">
      <g>
       <use xlink:href="#m50f062fa5c" x="43.25" y="571.837266" style="stroke: #000000; stroke-width: 0.8"/>
      </g>
     </g>
     <g id="text_23">
      <!-- 80 -->
      <g transform="translate(15.145313 575.636485)scale(0.1 -0.1)">
       <defs>
        <path id="DejaVuSans-2212" d="M 678 2272 
L 4684 2272 
L 4684 1741 
L 678 1741 
L 678 2272 
z
" transform="scale(0.015625)"/>
       </defs>
       <use xlink:href="#DejaVuSans-2212"/>
       <use xlink:href="#DejaVuSans-38" x="83.789062"/>
       <use xlink:href="#DejaVuSans-30" x="147.412109"/>
      </g>
     </g>
    </g>
    <g id="ytick_9">
     <g id="line2d_69">
      <path d="M 43.25 543.330875 
L 982.876106 543.330875 
" clip-path="url(#p516fde4f6f)" style="fill: none; stroke-dasharray: 2.96,1.28; stroke-dashoffset: 0; stroke: #b0b0b0; stroke-width: 0.8"/>
     </g>
     <g id="line2d_70">
      <g>
       <use xlink:href="#m50f062fa5c" x="43.25" y="543.330875" style="stroke: #000000; stroke-width: 0.8"/>
      </g>
     </g>
     <g id="text_24">
      <!-- 60 -->
      <g transform="translate(15.145313 547.130094)scale(0.1 -0.1)">
       <use xlink:href="#DejaVuSans-2212"/>
       <use xlink:href="#DejaVuSans-36" x="83.789062"/>
       <use xlink:href="#DejaVuSans-30" x="147.412109"/>
      </g>
     </g>
    </g>
    <g id="ytick_10">
     <g id="line2d_71">
      <path d="M 43.25 514.824484 
L 982.876106 514.824484 
" clip-path="url(#p516fde4f6f)" style="fill: none; stroke-dasharray: 2.96,1.28; stroke-dashoffset: 0; stroke: #b0b0b0; stroke-width: 0.8"/>
     </g>
     <g id="line2d_72">
      <g>
       <use xlink:href="#m50f062fa5c" x="43.25" y="514.824484" style="stroke: #000000; stroke-width: 0.8"/>
      </g>
     </g>
     <g id="text_25">
      <!-- 40 -->
      <g transform="translate(15.145313 518.623702)scale(0.1 -0.1)">
       <use xlink:href="#DejaVuSans-2212"/>
       <use xlink:href="#DejaVuSans-34" x="83.789062"/>
       <use xlink:href="#DejaVuSans-30" x="147.412109"/>
      </g>
     </g>
    </g>
    <g id="ytick_11">
     <g id="line2d_73">
      <path d="M 43.25 486.318093 
L 982.876106 486.318093 
" clip-path="url(#p516fde4f6f)" style="fill: none; stroke-dasharray: 2.96,1.28; stroke-dashoffset: 0; stroke: #b0b0b0; stroke-width: 0.8"/>
     </g>
     <g id="line2d_74">
      <g>
       <use xlink:href="#m50f062fa5c" x="43.25" y="486.318093" style="stroke: #000000; stroke-width: 0.8"/>
      </g>
     </g>
     <g id="text_26">
      <!-- 20 -->
      <g transform="translate(15.145313 490.117311)scale(0.1 -0.1)">
       <use xlink:href="#DejaVuSans-2212"/>
       <use xlink:href="#DejaVuSans-32" x="83.789062"/>
       <use xlink:href="#DejaVuSans-30" x="147.412109"/>
      </g>
     </g>
    </g>
    <g id="ytick_12">
     <g id="line2d_75">
      <path d="M 43.25 457.811701 
L 982.876106 457.811701 
" clip-path="url(#p516fde4f6f)" style="fill: none; stroke-dasharray: 2.96,1.28; stroke-dashoffset: 0; stroke: #b0b0b0; stroke-width: 0.8"/>
     </g>
     <g id="line2d_76">
      <g>
       <use xlink:href="#m50f062fa5c" x="43.25" y="457.811701" style="stroke: #000000; stroke-width: 0.8"/>
      </g>
     </g>
     <g id="text_27">
      <!-- 0 -->
      <g transform="translate(29.8875 461.61092)scale(0.1 -0.1)">
       <use xlink:href="#DejaVuSans-30"/>
      </g>
     </g>
    </g>
    <g id="ytick_13">
     <g id="line2d_77">
      <path d="M 43.25 429.30531 
L 982.876106 429.30531 
" clip-path="url(#p516fde4f6f)" style="fill: none; stroke-dasharray: 2.96,1.28; stroke-dashoffset: 0; stroke: #b0b0b0; stroke-width: 0.8"/>
     </g>
     <g id="line2d_78">
      <g>
       <use xlink:href="#m50f062fa5c" x="43.25" y="429.30531" style="stroke: #000000; stroke-width: 0.8"/>
      </g>
     </g>
     <g id="text_28">
      <!-- 20 -->
      <g transform="translate(23.525 433.104529)scale(0.1 -0.1)">
       <use xlink:href="#DejaVuSans-32"/>
       <use xlink:href="#DejaVuSans-30" x="63.623047"/>
      </g>
     </g>
    </g>
    <g id="ytick_14">
     <g id="line2d_79">
      <path d="M 43.25 400.798919 
L 982.876106 400.798919 
" clip-path="url(#p516fde4f6f)" style="fill: none; stroke-dasharray: 2.96,1.28; stroke-dashoffset: 0; stroke: #b0b0b0; stroke-width: 0.8"/>
     </g>
     <g id="line2d_80">
      <g>
       <use xlink:href="#m50f062fa5c" x="43.25" y="400.798919" style="stroke: #000000; stroke-width: 0.8"/>
      </g>
     </g>
     <g id="text_29">
      <!-- 40 -->
      <g transform="translate(23.525 404.598138)scale(0.1 -0.1)">
       <use xlink:href="#DejaVuSans-34"/>
       <use xlink:href="#DejaVuSans-30" x="63.623047"/>
      </g>
     </g>
    </g>
    <g id="ytick_15">
     <g id="line2d_81">
      <path d="M 43.25 372.292528 
L 982.876106 372.292528 
" clip-path="url(#p516fde4f6f)" style="fill: none; stroke-dasharray: 2.96,1.28; stroke-dashoffset: 0; stroke: #b0b0b0; stroke-width: 0.8"/>
     </g>
     <g id="line2d_82">
      <g>
       <use xlink:href="#m50f062fa5c" x="43.25" y="372.292528" style="stroke: #000000; stroke-width: 0.8"/>
      </g>
     </g>
     <g id="text_30">
      <!-- 60 -->
      <g transform="translate(23.525 376.091747)scale(0.1 -0.1)">
       <use xlink:href="#DejaVuSans-36"/>
       <use xlink:href="#DejaVuSans-30" x="63.623047"/>
      </g>
     </g>
    </g>
    <g id="ytick_16">
     <g id="line2d_83">
      <path d="M 43.25 343.786137 
L 982.876106 343.786137 
" clip-path="url(#p516fde4f6f)" style="fill: none; stroke-dasharray: 2.96,1.28; stroke-dashoffset: 0; stroke: #b0b0b0; stroke-width: 0.8"/>
     </g>
     <g id="line2d_84">
      <g>
       <use xlink:href="#m50f062fa5c" x="43.25" y="343.786137" style="stroke: #000000; stroke-width: 0.8"/>
      </g>
     </g>
     <g id="text_31">
      <!-- 80 -->
      <g transform="translate(23.525 347.585356)scale(0.1 -0.1)">
       <use xlink:href="#DejaVuSans-38"/>
       <use xlink:href="#DejaVuSans-30" x="63.623047"/>
      </g>
     </g>
    </g>
   </g>
   <g id="line2d_85">
    <path d="M 85.960278 457.811701 
L 88.638038 456.567745 
L 91.315798 456.299582 
L 96.671319 461.71796 
L 104.7046 459.468832 
L 112.737881 445.11082 
L 115.415641 445.217188 
L 123.448922 446.211043 
L 126.126683 450.244937 
L 128.804443 456.738663 
L 131.482203 465.822018 
L 134.159964 470.569694 
L 142.193245 478.606407 
L 144.871005 485.288949 
L 150.226526 492.518233 
L 152.904286 496.449525 
L 160.937567 498.595217 
L 163.615328 495.582108 
L 166.293088 488.248474 
L 168.970848 490.445418 
L 171.648609 494.172117 
L 179.68189 504.08258 
L 182.35965 512.611213 
L 185.03741 516.519514 
L 187.715171 514.68369 
L 190.392931 517.747805 
L 198.426212 532.855349 
L 201.103972 539.255926 
L 203.781733 540.838752 
L 206.459493 536.055804 
L 209.137254 528.298508 
L 217.170535 521.883593 
L 219.848295 514.289778 
L 222.526055 509.518284 
L 225.203816 515.351167 
L 227.881576 512.929427 
L 235.914857 514.413499 
L 241.270378 524.363629 
L 243.948138 531.94895 
L 246.625898 543.135513 
L 254.659179 561.441379 
L 257.33694 571.304441 
L 260.0147 573.004332 
L 262.69246 568.188996 
L 265.370221 564.038324 
L 273.403502 554.487608 
L 276.081262 549.786192 
L 278.759023 539.332173 
L 281.436783 516.447678 
L 292.147824 500.465964 
L 294.825585 486.244575 
L 297.503345 481.111944 
L 300.181105 480.845033 
L 302.858866 481.215876 
L 310.892147 485.14802 
L 313.569907 480.137435 
L 316.247667 470.538664 
L 318.925428 462.315898 
L 321.603188 448.840184 
L 329.636469 412.67905 
L 332.314229 391.229041 
L 334.99199 385.088084 
L 337.66975 389.398417 
L 340.347511 394.058779 
L 348.380792 402.232666 
L 351.058552 409.156978 
L 353.736312 420.480406 
L 367.125114 442.801379 
L 369.802874 474.427827 
L 372.480635 494.483124 
L 377.836155 513.783006 
L 391.224957 524.713953 
L 393.902717 525.118992 
L 396.580478 524.022224 
L 404.613759 518.515371 
L 409.96928 519.984689 
L 412.64704 519.467867 
L 415.3248 525.711627 
L 423.358081 527.825291 
L 426.035842 524.935763 
L 428.713602 519.885284 
L 431.391362 523.018152 
L 434.069123 526.717237 
L 442.102404 524.382657 
L 444.780164 519.698836 
L 447.457924 516.005528 
L 450.135685 517.930771 
L 452.813445 511.334266 
L 460.846726 508.470715 
L 463.524487 502.144192 
L 466.202247 493.199219 
L 468.880007 480.071456 
L 471.557768 464.685418 
L 479.591049 448.364456 
L 482.268809 442.561314 
L 484.946569 435.5573 
L 487.62433 434.904076 
L 490.30209 436.045763 
L 498.335371 437.569089 
L 501.013131 440.64149 
L 503.690892 443.340935 
L 506.368652 444.847806 
L 509.046412 455.91255 
L 517.079693 470.44052 
L 519.757454 483.833121 
L 522.435214 494.489739 
L 525.112974 507.985716 
L 527.790735 518.419671 
L 535.824016 516.51896 
L 538.501776 509.875819 
L 541.179537 505.834227 
L 543.857297 501.557709 
L 546.535057 494.889125 
L 554.568338 488.622304 
L 557.246099 484.907484 
L 559.923859 482.108887 
L 562.601619 480.355625 
L 565.27938 474.211457 
L 573.312661 468.49449 
L 575.990421 465.47968 
L 578.668181 460.005987 
L 581.345942 453.86767 
L 584.023702 449.762832 
L 592.056983 445.529982 
L 594.734744 444.923148 
L 597.412504 451.626723 
L 600.090264 456.682106 
L 602.768025 455.118695 
L 610.801306 455.266119 
L 613.479066 453.887083 
L 616.156826 451.293706 
L 618.834587 448.085459 
L 621.512347 439.594171 
L 629.545628 431.705091 
L 632.223388 427.657935 
L 634.901149 422.4601 
L 637.578909 416.039077 
L 640.256669 406.908016 
L 648.28995 399.657642 
L 650.967711 398.102021 
L 653.645471 395.846821 
L 656.323232 395.542183 
L 659.000992 396.757864 
L 672.389794 392.094238 
L 675.067554 384.897863 
L 677.745314 379.914372 
L 688.456356 373.742473 
L 691.134116 369.01793 
L 693.811876 365.606265 
L 696.489637 367.383718 
L 704.522918 374.906279 
L 707.200678 382.023381 
L 709.878438 386.444964 
L 712.556199 392.854343 
L 715.233959 401.236983 
L 723.26724 411.939906 
L 725.945001 411.706633 
L 731.300521 416.847439 
L 733.978282 416.776894 
L 742.011563 415.836223 
L 744.689323 416.458761 
L 747.367083 419.771363 
L 750.044844 420.315859 
L 752.722604 423.233426 
L 760.755885 427.334579 
L 763.433645 427.199784 
L 766.111406 427.232684 
L 768.789166 426.91905 
L 771.466926 433.31302 
L 779.500207 434.360697 
L 782.177968 430.349302 
L 784.855728 430.52113 
L 787.533489 435.878622 
L 790.211249 447.534656 
L 798.24453 461.74134 
L 800.92229 475.158014 
L 803.600051 490.599873 
L 806.277811 503.069279 
L 808.955571 506.609545 
L 816.988852 509.361549 
L 819.666613 503.380491 
L 825.022133 501.967092 
L 827.699894 499.128566 
L 835.733175 499.6629 
L 838.410935 502.702945 
L 841.088695 501.105295 
L 843.766456 501.463662 
L 846.444216 494.396511 
L 854.477497 487.788869 
L 857.155258 484.271454 
L 859.833018 475.512019 
L 862.510778 469.88013 
L 865.188539 467.524572 
L 873.22182 460.667863 
L 875.89958 459.390582 
L 881.255101 455.347433 
L 883.932861 450.25784 
L 891.966142 438.471208 
L 894.643902 425.318366 
L 897.321663 415.179066 
L 899.999423 409.835845 
L 902.677183 406.508972 
L 910.710465 402.127804 
L 918.743746 398.521739 
L 921.421506 381.43464 
L 929.454787 367.797753 
L 932.132547 356.553258 
L 934.810308 346.430106 
L 937.488068 344.083109 
L 940.165828 342.65348 
L 940.165828 342.65348 
" clip-path="url(#p516fde4f6f)" style="fill: none; stroke: #1f77b4; stroke-width: 1.5; stroke-linecap: square"/>
   </g>
   <g id="line2d_86">
    <path d="M 85.960278 457.811701 
L 88.638038 457.120614 
L 91.315798 456.784126 
L 93.993559 457.519501 
L 96.671319 458.768447 
L 104.7046 458.958291 
L 107.38236 457.876959 
L 110.060121 455.918758 
L 112.737881 453.422071 
L 115.415641 451.583701 
L 123.448922 450.408194 
L 126.126683 450.373133 
L 128.804443 451.7203 
L 131.482203 454.67039 
L 134.159964 457.966212 
L 142.193245 462.213811 
L 144.871005 466.935153 
L 150.226526 472.145633 
L 152.904286 477.077487 
L 160.937567 481.431228 
L 163.615328 484.287751 
L 166.293088 485.085784 
L 168.970848 486.164076 
L 171.648609 487.773283 
L 179.68189 491.047512 
L 185.03741 499.612814 
L 190.392931 505.660511 
L 198.426212 511.10622 
L 201.103972 516.741742 
L 203.781733 521.564966 
L 206.459493 524.464971 
L 209.137254 525.232068 
L 217.170535 524.562101 
L 219.848295 522.50697 
L 222.526055 519.908558 
L 225.203816 518.99689 
L 227.881576 517.783196 
L 235.914857 517.109167 
L 241.270378 518.560214 
L 243.948138 521.238189 
L 246.625898 525.617952 
L 254.659179 532.783027 
L 257.33694 540.487645 
L 260.0147 546.991209 
L 262.69246 551.230885 
L 265.370221 553.79243 
L 273.403502 553.931468 
L 276.081262 553.102401 
L 278.759023 550.348324 
L 281.436783 543.568133 
L 292.147824 534.947636 
L 294.825585 525.206967 
L 297.503345 516.387921 
L 300.181105 509.279317 
L 302.858866 503.666612 
L 310.892147 499.962885 
L 313.569907 495.997787 
L 316.247667 490.905955 
L 318.925428 485.187936 
L 321.603188 477.918379 
L 329.636469 464.870503 
L 332.314229 450.142201 
L 334.99199 437.131371 
L 337.66975 427.584777 
L 340.347511 420.879575 
L 348.380792 417.150192 
L 351.058552 415.551549 
L 353.736312 416.537321 
L 367.125114 421.790133 
L 369.802874 432.317673 
L 372.480635 444.750764 
L 377.836155 468.046517 
L 385.869436 478.49687 
L 388.547197 487.288683 
L 391.224957 494.773737 
L 393.902717 500.842788 
L 396.580478 505.478676 
L 404.613759 508.086015 
L 409.96928 510.465749 
L 412.64704 512.266173 
L 415.3248 514.955264 
L 423.358081 517.529269 
L 426.035842 519.010568 
L 428.713602 519.185511 
L 431.391362 519.952039 
L 434.069123 521.305079 
L 442.102404 521.920595 
L 444.780164 521.476243 
L 447.457924 520.3821 
L 450.135685 519.891834 
L 452.813445 518.180321 
L 460.846726 516.238399 
L 463.524487 513.419558 
L 466.202247 509.37549 
L 468.880007 503.514683 
L 471.557768 495.74883 
L 479.591049 486.271956 
L 484.946569 469.135322 
L 487.62433 462.289073 
L 490.30209 457.040411 
L 498.335371 453.146146 
L 501.013131 450.645215 
L 503.690892 449.184359 
L 506.368652 448.317048 
L 509.046412 449.836149 
L 517.079693 453.957023 
L 519.757454 459.932242 
L 522.435214 466.843742 
L 525.112974 475.072137 
L 527.790735 483.741644 
L 535.824016 490.297107 
L 538.501776 494.212849 
L 541.179537 496.537125 
L 543.857297 497.541242 
L 554.568338 495.333115 
L 557.246099 493.247989 
L 562.601619 488.88726 
L 565.27938 485.952099 
L 573.312661 482.460577 
L 575.990421 479.064398 
L 578.668181 475.252716 
L 584.023702 466.733132 
L 592.056983 462.492502 
L 594.734744 458.978631 
L 597.412504 457.508249 
L 600.090264 457.343021 
L 602.768025 456.898156 
L 610.801306 456.571748 
L 613.479066 456.034815 
L 616.156826 455.086594 
L 618.834587 453.686367 
L 621.512347 450.867927 
L 629.545628 447.03536 
L 632.223388 443.159875 
L 634.901149 439.01992 
L 637.578909 434.423751 
L 640.256669 428.920604 
L 648.28995 423.068012 
L 650.967711 418.074814 
L 653.645471 413.629215 
L 656.323232 410.011809 
L 659.000992 407.36102 
L 667.034273 404.694547 
L 672.389794 402.174485 
L 675.067554 398.719161 
L 677.745314 394.958203 
L 688.456356 390.715057 
L 693.811876 382.221758 
L 696.489637 379.25415 
L 704.522918 378.384576 
L 707.200678 379.112337 
L 709.878438 380.578862 
L 712.556199 383.033958 
L 715.233959 386.674563 
L 723.26724 391.727632 
L 725.945001 395.723432 
L 731.300521 399.948233 
L 733.978282 403.313966 
L 742.011563 405.818417 
L 744.689323 407.946486 
L 747.367083 410.311461 
L 750.044844 412.312341 
L 752.722604 414.496558 
L 760.755885 417.064162 
L 763.433645 419.091287 
L 766.111406 420.719566 
L 768.789166 421.959463 
L 771.466926 424.230174 
L 779.500207 426.256279 
L 782.177968 427.074883 
L 784.855728 427.764133 
L 787.533489 429.387031 
L 790.211249 433.016556 
L 798.24453 438.761513 
L 800.92229 446.040813 
L 803.600051 454.952625 
L 806.277811 464.575956 
L 808.955571 472.982674 
L 816.988852 480.258449 
L 819.666613 484.882857 
L 825.022133 488.299704 
L 827.699894 490.465476 
L 835.733175 492.304961 
L 838.410935 494.384558 
L 841.088695 495.728705 
L 843.766456 496.875697 
L 846.444216 496.37986 
L 854.477497 494.661662 
L 857.155258 492.58362 
L 859.833018 489.1693 
L 862.510778 485.311466 
L 865.188539 481.754087 
L 873.22182 477.536842 
L 875.89958 473.90759 
L 881.255101 470.195559 
L 883.932861 466.208015 
L 891.966142 460.660654 
L 894.643902 453.592196 
L 897.321663 445.90957 
L 899.999423 438.694825 
L 902.677183 432.257654 
L 910.710465 426.231684 
L 916.065985 420.940002 
L 918.743746 416.456349 
L 921.421506 409.452007 
L 929.454787 401.121157 
L 934.810308 383.052083 
L 937.488068 375.258288 
L 940.165828 368.737326 
L 940.165828 368.737326 
" clip-path="url(#p516fde4f6f)" style="fill: none; stroke: #ff7f0e; stroke-width: 1.5; stroke-linecap: square"/>
   </g>
   <g id="patch_9">
    <path d="M 43.25 584.521875 
L 43.25 331.135938 
" style="fill: none; stroke: #000000; stroke-width: 0.8; stroke-linejoin: miter; stroke-linecap: square"/>
   </g>
   <g id="patch_10">
    <path d="M 982.876106 584.521875 
L 982.876106 331.135938 
" style="fill: none; stroke: #000000; stroke-width: 0.8; stroke-linejoin: miter; stroke-linecap: square"/>
   </g>
   <g id="patch_11">
    <path d="M 43.25 584.521875 
L 982.876106 584.521875 
" style="fill: none; stroke: #000000; stroke-width: 0.8; stroke-linejoin: miter; stroke-linecap: square"/>
   </g>
   <g id="patch_12">
    <path d="M 43.25 331.135938 
L 982.876106 331.135938 
" style="fill: none; stroke: #000000; stroke-width: 0.8; stroke-linejoin: miter; stroke-linecap: square"/>
   </g>
   <g id="text_32">
    <!-- MACD -->
    <g transform="translate(495.077115 325.135938)scale(0.12 -0.12)">
     <defs>
      <path id="DejaVuSans-44" d="M 1259 4147 
L 1259 519 
L 2022 519 
Q 2988 519 3436 956 
Q 3884 1394 3884 2338 
Q 3884 3275 3436 3711 
Q 2988 4147 2022 4147 
L 1259 4147 
z
M 628 4666 
L 1925 4666 
Q 3281 4666 3915 4102 
Q 4550 3538 4550 2338 
Q 4550 1131 3912 565 
Q 3275 0 1925 0 
L 628 0 
L 628 4666 
z
" transform="scale(0.015625)"/>
     </defs>
     <use xlink:href="#DejaVuSans-4d"/>
     <use xlink:href="#DejaVuSans-41" x="86.279297"/>
     <use xlink:href="#DejaVuSans-43" x="152.9375"/>
     <use xlink:href="#DejaVuSans-44" x="222.761719"/>
    </g>
   </g>
   <g id="legend_2">
    <g id="patch_13">
     <path d="M 50.25 368.492188 
L 112.226563 368.492188 
Q 114.226563 368.492188 114.226563 366.492188 
L 114.226563 338.135938 
Q 114.226563 336.135938 112.226563 336.135938 
L 50.25 336.135938 
Q 48.25 336.135938 48.25 338.135938 
L 48.25 366.492188 
Q 48.25 368.492188 50.25 368.492188 
z
" style="fill: #ffffff; opacity: 0.8; stroke: #cccccc; stroke-linejoin: miter"/>
    </g>
    <g id="line2d_87">
     <path d="M 52.25 344.234375 
L 62.25 344.234375 
L 72.25 344.234375 
" style="fill: none; stroke: #1f77b4; stroke-width: 1.5; stroke-linecap: square"/>
    </g>
    <g id="text_33">
     <!-- MACD -->
     <g transform="translate(80.25 347.734375)scale(0.1 -0.1)">
      <use xlink:href="#DejaVuSans-4d"/>
      <use xlink:href="#DejaVuSans-41" x="86.279297"/>
      <use xlink:href="#DejaVuSans-43" x="152.9375"/>
      <use xlink:href="#DejaVuSans-44" x="222.761719"/>
     </g>
    </g>
    <g id="line2d_88">
     <path d="M 52.25 358.9125 
L 62.25 358.9125 
L 72.25 358.9125 
" style="fill: none; stroke: #ff7f0e; stroke-width: 1.5; stroke-linecap: square"/>
    </g>
    <g id="text_34">
     <!-- SIG -->
     <g transform="translate(80.25 362.4125)scale(0.1 -0.1)">
      <defs>
       <path id="DejaVuSans-49" d="M 628 4666 
L 1259 4666 
L 1259 0 
L 628 0 
L 628 4666 
z
" transform="scale(0.015625)"/>
       <path id="DejaVuSans-47" d="M 3809 666 
L 3809 1919 
L 2778 1919 
L 2778 2438 
L 4434 2438 
L 4434 434 
Q 4069 175 3628 42 
Q 3188 -91 2688 -91 
Q 1594 -91 976 548 
Q 359 1188 359 2328 
Q 359 3472 976 4111 
Q 1594 4750 2688 4750 
Q 3144 4750 3555 4637 
Q 3966 4525 4313 4306 
L 4313 3634 
Q 3963 3931 3569 4081 
Q 3175 4231 2741 4231 
Q 1884 4231 1454 3753 
Q 1025 3275 1025 2328 
Q 1025 1384 1454 906 
Q 1884 428 2741 428 
Q 3075 428 3337 486 
Q 3600 544 3809 666 
z
" transform="scale(0.015625)"/>
      </defs>
      <use xlink:href="#DejaVuSans-53"/>
      <use xlink:href="#DejaVuSans-49" x="63.476562"/>
      <use xlink:href="#DejaVuSans-47" x="92.96875"/>
     </g>
    </g>
   </g>
  </g>
  <g id="text_35">
   <!-- Housing Development Finance Corporation Limited -->
   <g transform="translate(350.815313 21.358125)scale(0.12 -0.12)">
    <defs>
     <path id="DejaVuSans-48" d="M 628 4666 
L 1259 4666 
L 1259 2753 
L 3553 2753 
L 3553 4666 
L 4184 4666 
L 4184 0 
L 3553 0 
L 3553 2222 
L 1259 2222 
L 1259 0 
L 628 0 
L 628 4666 
z
" transform="scale(0.015625)"/>
     <path id="DejaVuSans-75" d="M 544 1381 
L 544 3500 
L 1119 3500 
L 1119 1403 
Q 1119 906 1312 657 
Q 1506 409 1894 409 
Q 2359 409 2629 706 
Q 2900 1003 2900 1516 
L 2900 3500 
L 3475 3500 
L 3475 0 
L 2900 0 
L 2900 538 
Q 2691 219 2414 64 
Q 2138 -91 1772 -91 
Q 1169 -91 856 284 
Q 544 659 544 1381 
z
M 1991 3584 
L 1991 3584 
z
" transform="scale(0.015625)"/>
     <path id="DejaVuSans-76" d="M 191 3500 
L 800 3500 
L 1894 563 
L 2988 3500 
L 3597 3500 
L 2284 0 
L 1503 0 
L 191 3500 
z
" transform="scale(0.015625)"/>
     <path id="DejaVuSans-70" d="M 1159 525 
L 1159 -1331 
L 581 -1331 
L 581 3500 
L 1159 3500 
L 1159 2969 
Q 1341 3281 1617 3432 
Q 1894 3584 2278 3584 
Q 2916 3584 3314 3078 
Q 3713 2572 3713 1747 
Q 3713 922 3314 415 
Q 2916 -91 2278 -91 
Q 1894 -91 1617 61 
Q 1341 213 1159 525 
z
M 3116 1747 
Q 3116 2381 2855 2742 
Q 2594 3103 2138 3103 
Q 1681 3103 1420 2742 
Q 1159 2381 1159 1747 
Q 1159 1113 1420 752 
Q 1681 391 2138 391 
Q 2594 391 2855 752 
Q 3116 1113 3116 1747 
z
" transform="scale(0.015625)"/>
     <path id="DejaVuSans-6d" d="M 3328 2828 
Q 3544 3216 3844 3400 
Q 4144 3584 4550 3584 
Q 5097 3584 5394 3201 
Q 5691 2819 5691 2113 
L 5691 0 
L 5113 0 
L 5113 2094 
Q 5113 2597 4934 2840 
Q 4756 3084 4391 3084 
Q 3944 3084 3684 2787 
Q 3425 2491 3425 1978 
L 3425 0 
L 2847 0 
L 2847 2094 
Q 2847 2600 2669 2842 
Q 2491 3084 2119 3084 
Q 1678 3084 1418 2786 
Q 1159 2488 1159 1978 
L 1159 0 
L 581 0 
L 581 3500 
L 1159 3500 
L 1159 2956 
Q 1356 3278 1631 3431 
Q 1906 3584 2284 3584 
Q 2666 3584 2933 3390 
Q 3200 3197 3328 2828 
z
" transform="scale(0.015625)"/>
     <path id="DejaVuSans-74" d="M 1172 4494 
L 1172 3500 
L 2356 3500 
L 2356 3053 
L 1172 3053 
L 1172 1153 
Q 1172 725 1289 603 
Q 1406 481 1766 481 
L 2356 481 
L 2356 0 
L 1766 0 
Q 1100 0 847 248 
Q 594 497 594 1153 
L 594 3053 
L 172 3053 
L 172 3500 
L 594 3500 
L 594 4494 
L 1172 4494 
z
" transform="scale(0.015625)"/>
     <path id="DejaVuSans-46" d="M 628 4666 
L 3309 4666 
L 3309 4134 
L 1259 4134 
L 1259 2759 
L 3109 2759 
L 3109 2228 
L 1259 2228 
L 1259 0 
L 628 0 
L 628 4666 
z
" transform="scale(0.015625)"/>
     <path id="DejaVuSans-61" d="M 2194 1759 
Q 1497 1759 1228 1600 
Q 959 1441 959 1056 
Q 959 750 1161 570 
Q 1363 391 1709 391 
Q 2188 391 2477 730 
Q 2766 1069 2766 1631 
L 2766 1759 
L 2194 1759 
z
M 3341 1997 
L 3341 0 
L 2766 0 
L 2766 531 
Q 2569 213 2275 61 
Q 1981 -91 1556 -91 
Q 1019 -91 701 211 
Q 384 513 384 1019 
Q 384 1609 779 1909 
Q 1175 2209 1959 2209 
L 2766 2209 
L 2766 2266 
Q 2766 2663 2505 2880 
Q 2244 3097 1772 3097 
Q 1472 3097 1187 3025 
Q 903 2953 641 2809 
L 641 3341 
Q 956 3463 1253 3523 
Q 1550 3584 1831 3584 
Q 2591 3584 2966 3190 
Q 3341 2797 3341 1997 
z
" transform="scale(0.015625)"/>
     <path id="DejaVuSans-64" d="M 2906 2969 
L 2906 4863 
L 3481 4863 
L 3481 0 
L 2906 0 
L 2906 525 
Q 2725 213 2448 61 
Q 2172 -91 1784 -91 
Q 1150 -91 751 415 
Q 353 922 353 1747 
Q 353 2572 751 3078 
Q 1150 3584 1784 3584 
Q 2172 3584 2448 3432 
Q 2725 3281 2906 2969 
z
M 947 1747 
Q 947 1113 1208 752 
Q 1469 391 1925 391 
Q 2381 391 2643 752 
Q 2906 1113 2906 1747 
Q 2906 2381 2643 2742 
Q 2381 3103 1925 3103 
Q 1469 3103 1208 2742 
Q 947 2381 947 1747 
z
" transform="scale(0.015625)"/>
    </defs>
    <use xlink:href="#DejaVuSans-48"/>
    <use xlink:href="#DejaVuSans-6f" x="75.195312"/>
    <use xlink:href="#DejaVuSans-75" x="136.376953"/>
    <use xlink:href="#DejaVuSans-73" x="199.755859"/>
    <use xlink:href="#DejaVuSans-69" x="251.855469"/>
    <use xlink:href="#DejaVuSans-6e" x="279.638672"/>
    <use xlink:href="#DejaVuSans-67" x="343.017578"/>
    <use xlink:href="#DejaVuSans-20" x="406.494141"/>
    <use xlink:href="#DejaVuSans-44" x="438.28125"/>
    <use xlink:href="#DejaVuSans-65" x="515.283203"/>
    <use xlink:href="#DejaVuSans-76" x="576.806641"/>
    <use xlink:href="#DejaVuSans-65" x="635.986328"/>
    <use xlink:href="#DejaVuSans-6c" x="697.509766"/>
    <use xlink:href="#DejaVuSans-6f" x="725.292969"/>
    <use xlink:href="#DejaVuSans-70" x="786.474609"/>
    <use xlink:href="#DejaVuSans-6d" x="849.951172"/>
    <use xlink:href="#DejaVuSans-65" x="947.363281"/>
    <use xlink:href="#DejaVuSans-6e" x="1008.886719"/>
    <use xlink:href="#DejaVuSans-74" x="1072.265625"/>
    <use xlink:href="#DejaVuSans-20" x="1111.474609"/>
    <use xlink:href="#DejaVuSans-46" x="1143.261719"/>
    <use xlink:href="#DejaVuSans-69" x="1193.53125"/>
    <use xlink:href="#DejaVuSans-6e" x="1221.314453"/>
    <use xlink:href="#DejaVuSans-61" x="1284.693359"/>
    <use xlink:href="#DejaVuSans-6e" x="1345.972656"/>
    <use xlink:href="#DejaVuSans-63" x="1409.351562"/>
    <use xlink:href="#DejaVuSans-65" x="1464.332031"/>
    <use xlink:href="#DejaVuSans-20" x="1525.855469"/>
    <use xlink:href="#DejaVuSans-43" x="1557.642578"/>
    <use xlink:href="#DejaVuSans-6f" x="1627.466797"/>
    <use xlink:href="#DejaVuSans-72" x="1688.648438"/>
    <use xlink:href="#DejaVuSans-70" x="1729.761719"/>
    <use xlink:href="#DejaVuSans-6f" x="1793.238281"/>
    <use xlink:href="#DejaVuSans-72" x="1854.419922"/>
    <use xlink:href="#DejaVuSans-61" x="1895.533203"/>
    <use xlink:href="#DejaVuSans-74" x="1956.8125"/>
    <use xlink:href="#DejaVuSans-69" x="1996.021484"/>
    <use xlink:href="#DejaVuSans-6f" x="2023.804688"/>
    <use xlink:href="#DejaVuSans-6e" x="2084.986328"/>
    <use xlink:href="#DejaVuSans-20" x="2148.365234"/>
    <use xlink:href="#DejaVuSans-4c" x="2180.152344"/>
    <use xlink:href="#DejaVuSans-69" x="2235.865234"/>
    <use xlink:href="#DejaVuSans-6d" x="2263.648438"/>
    <use xlink:href="#DejaVuSans-69" x="2361.060547"/>
    <use xlink:href="#DejaVuSans-74" x="2388.84375"/>
    <use xlink:href="#DejaVuSans-65" x="2428.052734"/>
    <use xlink:href="#DejaVuSans-64" x="2489.576172"/>
   </g>
  </g>
 </g>
 <defs>
  <clipPath id="p76de7f5bdf">
   <rect x="43.25" y="48.331875" width="939.626106" height="253.385938"/>
  </clipPath>
  <clipPath id="p516fde4f6f">
   <rect x="43.25" y="331.135938" width="939.626106" height="253.385937"/>
  </clipPath>
 </defs>
</svg>
