<?xml version="1.0" encoding="utf-8" standalone="no"?>
<!DOCTYPE svg PUBLIC "-//W3C//DTD SVG 1.1//EN"
  "http://www.w3.org/Graphics/SVG/1.1/DTD/svg11.dtd">
<svg xmlns:xlink="http://www.w3.org/1999/xlink" width="1008pt" height="612pt" viewBox="0 0 1008 612" xmlns="http://www.w3.org/2000/svg" version="1.1">
 <metadata>
  <rdf:RDF xmlns:dc="http://purl.org/dc/elements/1.1/" xmlns:cc="http://creativecommons.org/ns#" xmlns:rdf="http://www.w3.org/1999/02/22-rdf-syntax-ns#">
   <cc:Work>
    <dc:type rdf:resource="http://purl.org/dc/dcmitype/StillImage"/>
    <dc:date>2022-11-20T19:46:48.880054</dc:date>
    <dc:format>image/svg+xml</dc:format>
    <dc:creator>
     <cc:Agent>
      <dc:title>Matplotlib v3.5.2, https://matplotlib.org/</dc:title>
     </cc:Agent>
    </dc:creator>
   </cc:Work>
  </rdf:RDF>
 </metadata>
 <defs>
  <style type="text/css">*{stroke-linejoin: round; stroke-linecap: butt}</style>
 </defs>
 <g id="figure_1">
  <g id="patch_1">
   <path d="M 0 612 
L 1008 612 
L 1008 0 
L 0 0 
z
" style="fill: #ffffff"/>
  </g>
  <g id="axes_1">
   <g id="patch_2">
    <path d="M 38.904688 301.717812 
L 982.876106 301.717812 
L 982.876106 48.331875 
L 38.904688 48.331875 
z
" style="fill: #ffffff"/>
   </g>
   <g id="matplotlib.axis_1">
    <g id="xtick_1">
     <g id="line2d_1">
      <path d="M 76.432192 301.717812 
L 76.432192 48.331875 
" clip-path="url(#pe9d80656dd)" style="fill: none; stroke-dasharray: 2.96,1.28; stroke-dashoffset: 0; stroke: #b0b0b0; stroke-width: 0.8"/>
     </g>
     <g id="line2d_2">
      <defs>
       <path id="m3e1137fad4" d="M 0 0 
L 0 3.5 
" style="stroke: #000000; stroke-width: 0.8"/>
      </defs>
      <g>
       <use xlink:href="#m3e1137fad4" x="76.432192" y="301.717812" style="stroke: #000000; stroke-width: 0.8"/>
      </g>
     </g>
    </g>
    <g id="xtick_2">
     <g id="line2d_3">
      <path d="M 159.826646 301.717812 
L 159.826646 48.331875 
" clip-path="url(#pe9d80656dd)" style="fill: none; stroke-dasharray: 2.96,1.28; stroke-dashoffset: 0; stroke: #b0b0b0; stroke-width: 0.8"/>
     </g>
     <g id="line2d_4">
      <g>
       <use xlink:href="#m3e1137fad4" x="159.826646" y="301.717812" style="stroke: #000000; stroke-width: 0.8"/>
      </g>
     </g>
    </g>
    <g id="xtick_3">
     <g id="line2d_5">
      <path d="M 235.150669 301.717812 
L 235.150669 48.331875 
" clip-path="url(#pe9d80656dd)" style="fill: none; stroke-dasharray: 2.96,1.28; stroke-dashoffset: 0; stroke: #b0b0b0; stroke-width: 0.8"/>
     </g>
     <g id="line2d_6">
      <g>
       <use xlink:href="#m3e1137fad4" x="235.150669" y="301.717812" style="stroke: #000000; stroke-width: 0.8"/>
      </g>
     </g>
    </g>
    <g id="xtick_4">
     <g id="line2d_7">
      <path d="M 318.545123 301.717812 
L 318.545123 48.331875 
" clip-path="url(#pe9d80656dd)" style="fill: none; stroke-dasharray: 2.96,1.28; stroke-dashoffset: 0; stroke: #b0b0b0; stroke-width: 0.8"/>
     </g>
     <g id="line2d_8">
      <g>
       <use xlink:href="#m3e1137fad4" x="318.545123" y="301.717812" style="stroke: #000000; stroke-width: 0.8"/>
      </g>
     </g>
    </g>
    <g id="xtick_5">
     <g id="line2d_9">
      <path d="M 399.249434 301.717812 
L 399.249434 48.331875 
" clip-path="url(#pe9d80656dd)" style="fill: none; stroke-dasharray: 2.96,1.28; stroke-dashoffset: 0; stroke: #b0b0b0; stroke-width: 0.8"/>
     </g>
     <g id="line2d_10">
      <g>
       <use xlink:href="#m3e1137fad4" x="399.249434" y="301.717812" style="stroke: #000000; stroke-width: 0.8"/>
      </g>
     </g>
    </g>
    <g id="xtick_6">
     <g id="line2d_11">
      <path d="M 482.643888 301.717812 
L 482.643888 48.331875 
" clip-path="url(#pe9d80656dd)" style="fill: none; stroke-dasharray: 2.96,1.28; stroke-dashoffset: 0; stroke: #b0b0b0; stroke-width: 0.8"/>
     </g>
     <g id="line2d_12">
      <g>
       <use xlink:href="#m3e1137fad4" x="482.643888" y="301.717812" style="stroke: #000000; stroke-width: 0.8"/>
      </g>
     </g>
    </g>
    <g id="xtick_7">
     <g id="line2d_13">
      <path d="M 563.348198 301.717812 
L 563.348198 48.331875 
" clip-path="url(#pe9d80656dd)" style="fill: none; stroke-dasharray: 2.96,1.28; stroke-dashoffset: 0; stroke: #b0b0b0; stroke-width: 0.8"/>
     </g>
     <g id="line2d_14">
      <g>
       <use xlink:href="#m3e1137fad4" x="563.348198" y="301.717812" style="stroke: #000000; stroke-width: 0.8"/>
      </g>
     </g>
    </g>
    <g id="xtick_8">
     <g id="line2d_15">
      <path d="M 646.742653 301.717812 
L 646.742653 48.331875 
" clip-path="url(#pe9d80656dd)" style="fill: none; stroke-dasharray: 2.96,1.28; stroke-dashoffset: 0; stroke: #b0b0b0; stroke-width: 0.8"/>
     </g>
     <g id="line2d_16">
      <g>
       <use xlink:href="#m3e1137fad4" x="646.742653" y="301.717812" style="stroke: #000000; stroke-width: 0.8"/>
      </g>
     </g>
    </g>
    <g id="xtick_9">
     <g id="line2d_17">
      <path d="M 730.137107 301.717812 
L 730.137107 48.331875 
" clip-path="url(#pe9d80656dd)" style="fill: none; stroke-dasharray: 2.96,1.28; stroke-dashoffset: 0; stroke: #b0b0b0; stroke-width: 0.8"/>
     </g>
     <g id="line2d_18">
      <g>
       <use xlink:href="#m3e1137fad4" x="730.137107" y="301.717812" style="stroke: #000000; stroke-width: 0.8"/>
      </g>
     </g>
    </g>
    <g id="xtick_10">
     <g id="line2d_19">
      <path d="M 810.841417 301.717812 
L 810.841417 48.331875 
" clip-path="url(#pe9d80656dd)" style="fill: none; stroke-dasharray: 2.96,1.28; stroke-dashoffset: 0; stroke: #b0b0b0; stroke-width: 0.8"/>
     </g>
     <g id="line2d_20">
      <g>
       <use xlink:href="#m3e1137fad4" x="810.841417" y="301.717812" style="stroke: #000000; stroke-width: 0.8"/>
      </g>
     </g>
    </g>
    <g id="xtick_11">
     <g id="line2d_21">
      <path d="M 894.235872 301.717812 
L 894.235872 48.331875 
" clip-path="url(#pe9d80656dd)" style="fill: none; stroke-dasharray: 2.96,1.28; stroke-dashoffset: 0; stroke: #b0b0b0; stroke-width: 0.8"/>
     </g>
     <g id="line2d_22">
      <g>
       <use xlink:href="#m3e1137fad4" x="894.235872" y="301.717812" style="stroke: #000000; stroke-width: 0.8"/>
      </g>
     </g>
    </g>
    <g id="xtick_12">
     <g id="line2d_23">
      <path d="M 974.940182 301.717812 
L 974.940182 48.331875 
" clip-path="url(#pe9d80656dd)" style="fill: none; stroke-dasharray: 2.96,1.28; stroke-dashoffset: 0; stroke: #b0b0b0; stroke-width: 0.8"/>
     </g>
     <g id="line2d_24">
      <g>
       <use xlink:href="#m3e1137fad4" x="974.940182" y="301.717812" style="stroke: #000000; stroke-width: 0.8"/>
      </g>
     </g>
    </g>
   </g>
   <g id="matplotlib.axis_2">
    <g id="ytick_1">
     <g id="line2d_25">
      <path d="M 38.904688 279.987394 
L 982.876106 279.987394 
" clip-path="url(#pe9d80656dd)" style="fill: none; stroke-dasharray: 2.96,1.28; stroke-dashoffset: 0; stroke: #b0b0b0; stroke-width: 0.8"/>
     </g>
     <g id="line2d_26">
      <defs>
       <path id="m5a59c0e046" d="M 0 0 
L -3.5 0 
" style="stroke: #000000; stroke-width: 0.8"/>
      </defs>
      <g>
       <use xlink:href="#m5a59c0e046" x="38.904688" y="279.987394" style="stroke: #000000; stroke-width: 0.8"/>
      </g>
     </g>
     <g id="text_1">
      <!-- 650 -->
      <g transform="translate(12.817187 283.786613)scale(0.1 -0.1)">
       <defs>
        <path id="DejaVuSans-36" d="M 2113 2584 
Q 1688 2584 1439 2293 
Q 1191 2003 1191 1497 
Q 1191 994 1439 701 
Q 1688 409 2113 409 
Q 2538 409 2786 701 
Q 3034 994 3034 1497 
Q 3034 2003 2786 2293 
Q 2538 2584 2113 2584 
z
M 3366 4563 
L 3366 3988 
Q 3128 4100 2886 4159 
Q 2644 4219 2406 4219 
Q 1781 4219 1451 3797 
Q 1122 3375 1075 2522 
Q 1259 2794 1537 2939 
Q 1816 3084 2150 3084 
Q 2853 3084 3261 2657 
Q 3669 2231 3669 1497 
Q 3669 778 3244 343 
Q 2819 -91 2113 -91 
Q 1303 -91 875 529 
Q 447 1150 447 2328 
Q 447 3434 972 4092 
Q 1497 4750 2381 4750 
Q 2619 4750 2861 4703 
Q 3103 4656 3366 4563 
z
" transform="scale(0.015625)"/>
        <path id="DejaVuSans-35" d="M 691 4666 
L 3169 4666 
L 3169 4134 
L 1269 4134 
L 1269 2991 
Q 1406 3038 1543 3061 
Q 1681 3084 1819 3084 
Q 2600 3084 3056 2656 
Q 3513 2228 3513 1497 
Q 3513 744 3044 326 
Q 2575 -91 1722 -91 
Q 1428 -91 1123 -41 
Q 819 9 494 109 
L 494 744 
Q 775 591 1075 516 
Q 1375 441 1709 441 
Q 2250 441 2565 725 
Q 2881 1009 2881 1497 
Q 2881 1984 2565 2268 
Q 2250 2553 1709 2553 
Q 1456 2553 1204 2497 
Q 953 2441 691 2322 
L 691 4666 
z
" transform="scale(0.015625)"/>
        <path id="DejaVuSans-30" d="M 2034 4250 
Q 1547 4250 1301 3770 
Q 1056 3291 1056 2328 
Q 1056 1369 1301 889 
Q 1547 409 2034 409 
Q 2525 409 2770 889 
Q 3016 1369 3016 2328 
Q 3016 3291 2770 3770 
Q 2525 4250 2034 4250 
z
M 2034 4750 
Q 2819 4750 3233 4129 
Q 3647 3509 3647 2328 
Q 3647 1150 3233 529 
Q 2819 -91 2034 -91 
Q 1250 -91 836 529 
Q 422 1150 422 2328 
Q 422 3509 836 4129 
Q 1250 4750 2034 4750 
z
" transform="scale(0.015625)"/>
       </defs>
       <use xlink:href="#DejaVuSans-36"/>
       <use xlink:href="#DejaVuSans-35" x="63.623047"/>
       <use xlink:href="#DejaVuSans-30" x="127.246094"/>
      </g>
     </g>
    </g>
    <g id="ytick_2">
     <g id="line2d_27">
      <path d="M 38.904688 223.872692 
L 982.876106 223.872692 
" clip-path="url(#pe9d80656dd)" style="fill: none; stroke-dasharray: 2.96,1.28; stroke-dashoffset: 0; stroke: #b0b0b0; stroke-width: 0.8"/>
     </g>
     <g id="line2d_28">
      <g>
       <use xlink:href="#m5a59c0e046" x="38.904688" y="223.872692" style="stroke: #000000; stroke-width: 0.8"/>
      </g>
     </g>
     <g id="text_2">
      <!-- 700 -->
      <g transform="translate(12.817187 227.671911)scale(0.1 -0.1)">
       <defs>
        <path id="DejaVuSans-37" d="M 525 4666 
L 3525 4666 
L 3525 4397 
L 1831 0 
L 1172 0 
L 2766 4134 
L 525 4134 
L 525 4666 
z
" transform="scale(0.015625)"/>
       </defs>
       <use xlink:href="#DejaVuSans-37"/>
       <use xlink:href="#DejaVuSans-30" x="63.623047"/>
       <use xlink:href="#DejaVuSans-30" x="127.246094"/>
      </g>
     </g>
    </g>
    <g id="ytick_3">
     <g id="line2d_29">
      <path d="M 38.904688 167.75799 
L 982.876106 167.75799 
" clip-path="url(#pe9d80656dd)" style="fill: none; stroke-dasharray: 2.96,1.28; stroke-dashoffset: 0; stroke: #b0b0b0; stroke-width: 0.8"/>
     </g>
     <g id="line2d_30">
      <g>
       <use xlink:href="#m5a59c0e046" x="38.904688" y="167.75799" style="stroke: #000000; stroke-width: 0.8"/>
      </g>
     </g>
     <g id="text_3">
      <!-- 750 -->
      <g transform="translate(12.817187 171.557209)scale(0.1 -0.1)">
       <use xlink:href="#DejaVuSans-37"/>
       <use xlink:href="#DejaVuSans-35" x="63.623047"/>
       <use xlink:href="#DejaVuSans-30" x="127.246094"/>
      </g>
     </g>
    </g>
    <g id="ytick_4">
     <g id="line2d_31">
      <path d="M 38.904688 111.643288 
L 982.876106 111.643288 
" clip-path="url(#pe9d80656dd)" style="fill: none; stroke-dasharray: 2.96,1.28; stroke-dashoffset: 0; stroke: #b0b0b0; stroke-width: 0.8"/>
     </g>
     <g id="line2d_32">
      <g>
       <use xlink:href="#m5a59c0e046" x="38.904688" y="111.643288" style="stroke: #000000; stroke-width: 0.8"/>
      </g>
     </g>
     <g id="text_4">
      <!-- 800 -->
      <g transform="translate(12.817187 115.442506)scale(0.1 -0.1)">
       <defs>
        <path id="DejaVuSans-38" d="M 2034 2216 
Q 1584 2216 1326 1975 
Q 1069 1734 1069 1313 
Q 1069 891 1326 650 
Q 1584 409 2034 409 
Q 2484 409 2743 651 
Q 3003 894 3003 1313 
Q 3003 1734 2745 1975 
Q 2488 2216 2034 2216 
z
M 1403 2484 
Q 997 2584 770 2862 
Q 544 3141 544 3541 
Q 544 4100 942 4425 
Q 1341 4750 2034 4750 
Q 2731 4750 3128 4425 
Q 3525 4100 3525 3541 
Q 3525 3141 3298 2862 
Q 3072 2584 2669 2484 
Q 3125 2378 3379 2068 
Q 3634 1759 3634 1313 
Q 3634 634 3220 271 
Q 2806 -91 2034 -91 
Q 1263 -91 848 271 
Q 434 634 434 1313 
Q 434 1759 690 2068 
Q 947 2378 1403 2484 
z
M 1172 3481 
Q 1172 3119 1398 2916 
Q 1625 2713 2034 2713 
Q 2441 2713 2670 2916 
Q 2900 3119 2900 3481 
Q 2900 3844 2670 4047 
Q 2441 4250 2034 4250 
Q 1625 4250 1398 4047 
Q 1172 3844 1172 3481 
z
" transform="scale(0.015625)"/>
       </defs>
       <use xlink:href="#DejaVuSans-38"/>
       <use xlink:href="#DejaVuSans-30" x="63.623047"/>
       <use xlink:href="#DejaVuSans-30" x="127.246094"/>
      </g>
     </g>
    </g>
    <g id="ytick_5">
     <g id="line2d_33">
      <path d="M 38.904688 55.528586 
L 982.876106 55.528586 
" clip-path="url(#pe9d80656dd)" style="fill: none; stroke-dasharray: 2.96,1.28; stroke-dashoffset: 0; stroke: #b0b0b0; stroke-width: 0.8"/>
     </g>
     <g id="line2d_34">
      <g>
       <use xlink:href="#m5a59c0e046" x="38.904688" y="55.528586" style="stroke: #000000; stroke-width: 0.8"/>
      </g>
     </g>
     <g id="text_5">
      <!-- 850 -->
      <g transform="translate(12.817187 59.327804)scale(0.1 -0.1)">
       <use xlink:href="#DejaVuSans-38"/>
       <use xlink:href="#DejaVuSans-35" x="63.623047"/>
       <use xlink:href="#DejaVuSans-30" x="127.246094"/>
      </g>
     </g>
    </g>
   </g>
   <g id="line2d_35">
    <path d="M 81.812479 233.63665 
L 84.502623 226.734542 
L 87.192767 223.872692 
L 89.88291 212.200834 
L 92.573054 218.59791 
L 100.643485 218.317336 
L 103.333629 220.000778 
L 106.023772 189.979412 
L 108.713916 188.183741 
L 111.40406 200.753435 
L 119.474491 191.775082 
L 122.164634 207.767772 
L 124.854778 219.720204 
L 127.544922 206.589364 
L 130.235066 229.203589 
L 138.305497 235.207862 
L 140.99564 210.573508 
L 146.375928 215.73606 
L 149.066071 206.140446 
L 157.136502 190.989477 
L 159.826646 198.003814 
L 162.51679 195.759226 
L 165.206933 199.575026 
L 167.897077 201.202352 
L 175.967508 216.577781 
L 178.657652 213.884275 
L 181.347796 202.156302 
L 184.037939 196.88152 
L 186.728083 206.869937 
L 194.798514 235.432321 
L 197.488658 210.910196 
L 200.178801 199.406682 
L 202.868945 204.793693 
L 205.559089 209.787902 
L 213.62952 212.705866 
L 216.319663 224.714412 
L 219.009807 218.934598 
L 221.699951 256.531449 
L 224.390094 236.610729 
L 232.460525 239.023662 
L 237.840813 252.771764 
L 240.530957 255.24081 
L 243.2211 275.834906 
L 251.291531 251.481125 
L 253.981675 242.951691 
L 256.671819 233.412191 
L 259.361962 226.397854 
L 262.052106 229.652506 
L 270.122537 223.423774 
L 272.812681 220.39358 
L 275.502824 210.405163 
L 278.192968 198.172158 
L 288.953543 214.669881 
L 291.643687 202.268532 
L 294.33383 218.317336 
L 297.023974 216.746125 
L 299.714118 213.379243 
L 307.784549 186.780874 
L 310.474692 162.202634 
L 313.164836 168.319137 
L 315.85498 162.202634 
L 318.545123 158.21849 
L 326.615554 147.781156 
L 329.305698 149.127909 
L 331.995842 138.971148 
L 334.685985 153.841544 
L 337.376129 154.178232 
L 345.44656 158.723523 
L 348.136704 177.129145 
L 350.826848 178.251439 
L 364.277566 190.765018 
L 366.96771 197.498782 
L 369.657853 179.710421 
L 372.347997 183.75068 
L 375.038141 180.383798 
L 383.108572 179.710421 
L 385.798715 160.687537 
L 388.488859 164.952255 
L 391.179003 170.732069 
L 393.869146 180.103224 
L 401.939578 177.465833 
L 407.319865 198.733305 
L 410.010009 202.60522 
L 412.700152 212.369178 
L 420.770583 210.96631 
L 423.460727 201.819614 
L 426.150871 198.228273 
L 428.841014 217.812304 
L 431.531158 235.207862 
L 439.601589 231.504291 
L 442.291733 215.960519 
L 444.981876 228.193524 
L 447.67202 252.771764 
L 450.362164 237.45245 
L 458.432595 239.753153 
L 461.122739 248.338702 
L 463.812882 237.115762 
L 466.503026 230.999259 
L 469.19317 241.380479 
L 477.263601 224.938871 
L 479.953744 223.648233 
L 482.643888 229.876965 
L 485.334032 228.417983 
L 488.024175 239.023662 
L 496.094606 243.007805 
L 498.78475 240.370414 
L 501.474894 265.060883 
L 504.165037 250.414946 
L 506.855181 253.781828 
L 514.925612 256.082531 
L 517.615756 244.01787 
L 520.3059 243.961755 
L 522.996043 275.273759 
L 525.686187 287.113961 
L 533.756618 290.20027 
L 536.446762 275.16153 
L 539.136905 288.011797 
L 541.827049 268.539995 
L 544.517193 256.19476 
L 552.587624 241.885511 
L 555.277767 245.027935 
L 557.967911 237.564679 
L 560.658055 240.763217 
L 563.348198 253.669599 
L 571.41863 244.186214 
L 574.108773 241.324364 
L 576.798917 230.662571 
L 579.489061 238.686973 
L 582.179204 229.315818 
L 590.249635 268.147192 
L 592.939779 265.397572 
L 595.629923 287.282305 
L 598.320066 289.358549 
L 601.01021 277.967265 
L 609.080641 265.341457 
L 611.770785 254.286861 
L 614.460928 256.812022 
L 617.151072 248.170358 
L 619.841216 247.609211 
L 627.911647 248.114243 
L 630.601791 241.717167 
L 633.291934 252.042272 
L 635.982078 261.076739 
L 638.672222 248.619276 
L 646.742653 230.101424 
L 649.432796 238.686973 
L 652.12294 231.560406 
L 654.813084 230.269768 
L 657.503227 219.776319 
L 665.573658 218.990713 
L 670.953946 206.757708 
L 673.64409 212.87421 
L 676.334233 212.98644 
L 687.094808 219.271286 
L 689.784952 198.116044 
L 692.475095 186.61253 
L 695.165239 187.622594 
L 703.23567 192.897376 
L 705.925814 181.674436 
L 708.615957 180.383798 
L 711.306101 177.858636 
L 713.996245 189.249921 
L 722.066676 200.753435 
L 724.756819 194.01967 
L 730.137107 184.536286 
L 732.827251 184.5924 
L 740.897682 178.532013 
L 743.587825 155.132182 
L 746.277969 164.278878 
L 748.968113 145.536568 
L 751.658256 150.081859 
L 759.728687 146.266059 
L 762.418831 129.319419 
L 765.108975 130.329483 
L 767.799118 128.365469 
L 770.489262 134.481971 
L 778.559693 131.00286 
L 781.249837 120.453296 
L 783.939981 133.86471 
L 786.630124 129.487763 
L 789.320268 143.797012 
L 797.390699 162.090405 
L 800.080843 155.861673 
L 802.770986 154.907723 
L 805.46113 151.316382 
L 808.151274 111.755517 
L 816.221705 107.883603 
L 818.911848 101.87933 
L 824.292136 124.43744 
L 826.982279 119.387117 
L 835.05271 120.228837 
L 837.742854 133.75248 
L 840.432998 139.083377 
L 843.123142 146.546632 
L 845.813285 149.8574 
L 853.883716 149.801285 
L 856.57386 130.553942 
L 859.264004 130.273369 
L 861.954147 119.611575 
L 864.644291 114.505137 
L 872.714722 109.28647 
L 875.404866 109.062011 
L 880.785153 92.45206 
L 883.475297 92.732633 
L 891.545728 75.729878 
L 894.235872 71.745734 
L 896.926015 100.588691 
L 899.616159 90.712504 
L 902.306303 93.237665 
L 910.376734 86.167213 
L 915.757021 90.263586 
L 918.447165 82.744216 
L 921.137308 81.453578 
L 929.207739 87.065048 
L 931.897883 72.082423 
L 934.588027 65.404773 
L 937.27817 59.849418 
L 939.968314 69.78172 
L 939.968314 69.78172 
" clip-path="url(#pe9d80656dd)" style="fill: none; stroke: #1f77b4; stroke-width: 1.5; stroke-linecap: square"/>
   </g>
   <g id="line2d_36">
    <path d="M 92.573054 223.008526 
L 100.643485 219.944663 
L 103.333629 218.59791 
L 106.023772 211.819254 
L 108.713916 207.015835 
L 111.40406 203.44694 
L 119.474491 198.13849 
L 122.164634 195.691889 
L 124.854778 201.640047 
L 127.544922 205.321171 
L 130.235066 211.011202 
L 138.305497 219.697758 
L 140.99564 220.258905 
L 146.375928 219.462076 
L 149.066071 219.372293 
L 157.136502 211.72947 
L 159.826646 204.288661 
L 162.51679 201.325805 
L 165.206933 198.093598 
L 167.897077 197.105979 
L 175.967508 202.22364 
L 178.657652 205.399732 
L 181.347796 206.679147 
L 184.037939 206.140446 
L 186.728083 207.273963 
L 194.798514 211.044871 
L 200.178801 209.900131 
L 202.868945 211.482566 
L 205.559089 212.066159 
L 213.62952 207.520868 
L 216.319663 210.281711 
L 219.009807 214.187294 
L 221.699951 224.534845 
L 224.390094 229.899411 
L 232.460525 235.16297 
L 237.840813 240.77444 
L 240.530957 248.035683 
L 243.2211 251.896374 
L 251.291531 254.870453 
L 253.981675 255.656059 
L 256.671819 251.784145 
L 259.361962 246.015553 
L 262.052106 236.779073 
L 270.122537 231.167603 
L 275.502824 222.054576 
L 278.192968 216.409437 
L 288.953543 213.412911 
L 291.643687 209.181863 
L 294.33383 208.766614 
L 297.023974 210.034806 
L 299.714118 213.076223 
L 307.784549 207.498422 
L 310.474692 199.485242 
L 313.164836 189.485602 
L 318.545123 167.544754 
L 329.305698 157.129865 
L 331.995842 151.260267 
L 334.685985 149.588049 
L 337.376129 148.779998 
L 345.44656 150.968471 
L 348.136704 156.568718 
L 350.826848 164.424777 
L 364.277566 171.809471 
L 366.96771 180.473581 
L 369.657853 184.670961 
L 372.347997 185.995268 
L 375.038141 186.42174 
L 383.108572 184.21082 
L 385.798715 176.848572 
L 388.488859 173.896938 
L 391.179003 171.293216 
L 393.869146 171.237101 
L 401.939578 170.788184 
L 407.319865 178.397337 
L 410.010009 185.92793 
L 412.700152 194.255352 
L 420.770583 200.427969 
L 423.460727 205.298726 
L 426.150871 205.197719 
L 428.841014 208.239136 
L 431.531158 212.806873 
L 439.601589 216.914469 
L 442.291733 219.74265 
L 444.981876 225.7357 
L 447.67202 232.727592 
L 450.362164 233.17651 
L 458.432595 234.826282 
L 461.122739 241.301918 
L 463.812882 243.086366 
L 466.503026 238.731865 
L 469.19317 239.517471 
L 477.263601 236.554615 
L 479.953744 231.616521 
L 482.643888 230.168762 
L 488.024175 229.181143 
L 496.094606 232.79493 
L 498.78475 236.139366 
L 501.474894 243.176149 
L 504.165037 247.575542 
L 506.855181 250.527175 
L 514.925612 253.142121 
L 517.615756 253.871612 
L 520.3059 249.651786 
L 522.996043 254.623549 
L 525.686187 261.289975 
L 533.756618 268.113523 
L 536.446762 274.342255 
L 539.136905 283.152263 
L 541.827049 281.80551 
L 544.517193 275.62167 
L 552.587624 265.958719 
L 555.277767 259.932 
L 557.967911 249.842576 
L 560.658055 244.287221 
L 563.348198 243.782188 
L 571.41863 244.242329 
L 574.108773 243.501615 
L 576.798917 242.121193 
L 579.489061 241.705944 
L 582.179204 236.835188 
L 590.249635 241.627384 
L 592.939779 246.442025 
L 595.629923 257.765972 
L 601.01021 277.630577 
L 609.080641 277.06943 
L 611.770785 274.847287 
L 614.460928 268.753231 
L 617.151072 260.515592 
L 619.841216 254.443982 
L 627.911647 250.998539 
L 630.601791 248.4846 
L 633.291934 247.53065 
L 635.982078 250.111927 
L 638.672222 250.31394 
L 646.742653 246.711376 
L 649.432796 246.105337 
L 652.12294 242.008964 
L 654.813084 235.847569 
L 657.503227 230.078978 
L 665.573658 227.856836 
L 670.953946 221.470983 
L 673.64409 217.733744 
L 676.334233 214.277078 
L 687.094808 214.176071 
L 692.475095 205.972102 
L 695.165239 200.921779 
L 703.23567 196.903966 
L 705.925814 189.384596 
L 708.615957 185.838147 
L 711.306101 184.087368 
L 713.996245 184.412833 
L 722.066676 185.984045 
L 724.756819 188.453092 
L 730.137107 189.28359 
L 732.827251 190.630342 
L 740.897682 188.486761 
L 743.587825 179.36251 
L 746.277969 173.414352 
L 748.968113 165.614408 
L 751.658256 158.7123 
L 759.728687 152.259109 
L 762.418831 147.096556 
L 765.108975 140.306678 
L 767.799118 136.872458 
L 770.489262 133.75248 
L 778.559693 130.699841 
L 781.249837 128.926616 
L 783.939981 129.633661 
L 786.630124 129.85812 
L 789.320268 131.721128 
L 797.390699 137.938637 
L 800.080843 145.020313 
L 805.46113 153.594639 
L 808.151274 147.18634 
L 816.221705 136.34498 
L 818.911848 125.548511 
L 824.292136 119.454454 
L 826.982279 113.068601 
L 835.05271 114.763265 
L 837.742854 119.937041 
L 840.432998 127.37785 
L 843.123142 131.799689 
L 845.813285 137.893745 
L 853.883716 143.808235 
L 856.57386 143.168527 
L 859.264004 141.406526 
L 861.954147 136.019514 
L 864.644291 128.949062 
L 872.714722 120.846099 
L 875.404866 116.547713 
L 880.785153 108.983451 
L 883.475297 103.607662 
L 891.545728 95.852611 
L 894.235872 88.344463 
L 896.926015 86.649799 
L 899.616159 86.301888 
L 902.306303 86.402895 
L 910.376734 88.490362 
L 915.757021 92.193932 
L 918.447165 88.625037 
L 921.137308 86.773252 
L 929.207739 85.538728 
L 931.897883 82.72177 
L 934.588027 77.750008 
L 937.27817 73.171048 
L 939.968314 70.836676 
L 939.968314 70.836676 
" clip-path="url(#pe9d80656dd)" style="fill: none; stroke: #ff7f0e; stroke-width: 1.5; stroke-linecap: square"/>
   </g>
   <g id="patch_3">
    <path d="M 38.904688 301.717812 
L 38.904688 48.331875 
" style="fill: none; stroke: #000000; stroke-width: 0.8; stroke-linejoin: miter; stroke-linecap: square"/>
   </g>
   <g id="patch_4">
    <path d="M 982.876106 301.717812 
L 982.876106 48.331875 
" style="fill: none; stroke: #000000; stroke-width: 0.8; stroke-linejoin: miter; stroke-linecap: square"/>
   </g>
   <g id="patch_5">
    <path d="M 38.904687 301.717812 
L 982.876106 301.717812 
" style="fill: none; stroke: #000000; stroke-width: 0.8; stroke-linejoin: miter; stroke-linecap: square"/>
   </g>
   <g id="patch_6">
    <path d="M 38.904687 48.331875 
L 982.876106 48.331875 
" style="fill: none; stroke: #000000; stroke-width: 0.8; stroke-linejoin: miter; stroke-linecap: square"/>
   </g>
   <g id="text_6">
    <!-- Closing Price -->
    <g transform="translate(472.414459 42.331875)scale(0.12 -0.12)">
     <defs>
      <path id="DejaVuSans-43" d="M 4122 4306 
L 4122 3641 
Q 3803 3938 3442 4084 
Q 3081 4231 2675 4231 
Q 1875 4231 1450 3742 
Q 1025 3253 1025 2328 
Q 1025 1406 1450 917 
Q 1875 428 2675 428 
Q 3081 428 3442 575 
Q 3803 722 4122 1019 
L 4122 359 
Q 3791 134 3420 21 
Q 3050 -91 2638 -91 
Q 1578 -91 968 557 
Q 359 1206 359 2328 
Q 359 3453 968 4101 
Q 1578 4750 2638 4750 
Q 3056 4750 3426 4639 
Q 3797 4528 4122 4306 
z
" transform="scale(0.015625)"/>
      <path id="DejaVuSans-6c" d="M 603 4863 
L 1178 4863 
L 1178 0 
L 603 0 
L 603 4863 
z
" transform="scale(0.015625)"/>
      <path id="DejaVuSans-6f" d="M 1959 3097 
Q 1497 3097 1228 2736 
Q 959 2375 959 1747 
Q 959 1119 1226 758 
Q 1494 397 1959 397 
Q 2419 397 2687 759 
Q 2956 1122 2956 1747 
Q 2956 2369 2687 2733 
Q 2419 3097 1959 3097 
z
M 1959 3584 
Q 2709 3584 3137 3096 
Q 3566 2609 3566 1747 
Q 3566 888 3137 398 
Q 2709 -91 1959 -91 
Q 1206 -91 779 398 
Q 353 888 353 1747 
Q 353 2609 779 3096 
Q 1206 3584 1959 3584 
z
" transform="scale(0.015625)"/>
      <path id="DejaVuSans-73" d="M 2834 3397 
L 2834 2853 
Q 2591 2978 2328 3040 
Q 2066 3103 1784 3103 
Q 1356 3103 1142 2972 
Q 928 2841 928 2578 
Q 928 2378 1081 2264 
Q 1234 2150 1697 2047 
L 1894 2003 
Q 2506 1872 2764 1633 
Q 3022 1394 3022 966 
Q 3022 478 2636 193 
Q 2250 -91 1575 -91 
Q 1294 -91 989 -36 
Q 684 19 347 128 
L 347 722 
Q 666 556 975 473 
Q 1284 391 1588 391 
Q 1994 391 2212 530 
Q 2431 669 2431 922 
Q 2431 1156 2273 1281 
Q 2116 1406 1581 1522 
L 1381 1569 
Q 847 1681 609 1914 
Q 372 2147 372 2553 
Q 372 3047 722 3315 
Q 1072 3584 1716 3584 
Q 2034 3584 2315 3537 
Q 2597 3491 2834 3397 
z
" transform="scale(0.015625)"/>
      <path id="DejaVuSans-69" d="M 603 3500 
L 1178 3500 
L 1178 0 
L 603 0 
L 603 3500 
z
M 603 4863 
L 1178 4863 
L 1178 4134 
L 603 4134 
L 603 4863 
z
" transform="scale(0.015625)"/>
      <path id="DejaVuSans-6e" d="M 3513 2113 
L 3513 0 
L 2938 0 
L 2938 2094 
Q 2938 2591 2744 2837 
Q 2550 3084 2163 3084 
Q 1697 3084 1428 2787 
Q 1159 2491 1159 1978 
L 1159 0 
L 581 0 
L 581 3500 
L 1159 3500 
L 1159 2956 
Q 1366 3272 1645 3428 
Q 1925 3584 2291 3584 
Q 2894 3584 3203 3211 
Q 3513 2838 3513 2113 
z
" transform="scale(0.015625)"/>
      <path id="DejaVuSans-67" d="M 2906 1791 
Q 2906 2416 2648 2759 
Q 2391 3103 1925 3103 
Q 1463 3103 1205 2759 
Q 947 2416 947 1791 
Q 947 1169 1205 825 
Q 1463 481 1925 481 
Q 2391 481 2648 825 
Q 2906 1169 2906 1791 
z
M 3481 434 
Q 3481 -459 3084 -895 
Q 2688 -1331 1869 -1331 
Q 1566 -1331 1297 -1286 
Q 1028 -1241 775 -1147 
L 775 -588 
Q 1028 -725 1275 -790 
Q 1522 -856 1778 -856 
Q 2344 -856 2625 -561 
Q 2906 -266 2906 331 
L 2906 616 
Q 2728 306 2450 153 
Q 2172 0 1784 0 
Q 1141 0 747 490 
Q 353 981 353 1791 
Q 353 2603 747 3093 
Q 1141 3584 1784 3584 
Q 2172 3584 2450 3431 
Q 2728 3278 2906 2969 
L 2906 3500 
L 3481 3500 
L 3481 434 
z
" transform="scale(0.015625)"/>
      <path id="DejaVuSans-20" transform="scale(0.015625)"/>
      <path id="DejaVuSans-50" d="M 1259 4147 
L 1259 2394 
L 2053 2394 
Q 2494 2394 2734 2622 
Q 2975 2850 2975 3272 
Q 2975 3691 2734 3919 
Q 2494 4147 2053 4147 
L 1259 4147 
z
M 628 4666 
L 2053 4666 
Q 2838 4666 3239 4311 
Q 3641 3956 3641 3272 
Q 3641 2581 3239 2228 
Q 2838 1875 2053 1875 
L 1259 1875 
L 1259 0 
L 628 0 
L 628 4666 
z
" transform="scale(0.015625)"/>
      <path id="DejaVuSans-72" d="M 2631 2963 
Q 2534 3019 2420 3045 
Q 2306 3072 2169 3072 
Q 1681 3072 1420 2755 
Q 1159 2438 1159 1844 
L 1159 0 
L 581 0 
L 581 3500 
L 1159 3500 
L 1159 2956 
Q 1341 3275 1631 3429 
Q 1922 3584 2338 3584 
Q 2397 3584 2469 3576 
Q 2541 3569 2628 3553 
L 2631 2963 
z
" transform="scale(0.015625)"/>
      <path id="DejaVuSans-63" d="M 3122 3366 
L 3122 2828 
Q 2878 2963 2633 3030 
Q 2388 3097 2138 3097 
Q 1578 3097 1268 2742 
Q 959 2388 959 1747 
Q 959 1106 1268 751 
Q 1578 397 2138 397 
Q 2388 397 2633 464 
Q 2878 531 3122 666 
L 3122 134 
Q 2881 22 2623 -34 
Q 2366 -91 2075 -91 
Q 1284 -91 818 406 
Q 353 903 353 1747 
Q 353 2603 823 3093 
Q 1294 3584 2113 3584 
Q 2378 3584 2631 3529 
Q 2884 3475 3122 3366 
z
" transform="scale(0.015625)"/>
      <path id="DejaVuSans-65" d="M 3597 1894 
L 3597 1613 
L 953 1613 
Q 991 1019 1311 708 
Q 1631 397 2203 397 
Q 2534 397 2845 478 
Q 3156 559 3463 722 
L 3463 178 
Q 3153 47 2828 -22 
Q 2503 -91 2169 -91 
Q 1331 -91 842 396 
Q 353 884 353 1716 
Q 353 2575 817 3079 
Q 1281 3584 2069 3584 
Q 2775 3584 3186 3129 
Q 3597 2675 3597 1894 
z
M 3022 2063 
Q 3016 2534 2758 2815 
Q 2500 3097 2075 3097 
Q 1594 3097 1305 2825 
Q 1016 2553 972 2059 
L 3022 2063 
z
" transform="scale(0.015625)"/>
     </defs>
     <use xlink:href="#DejaVuSans-43"/>
     <use xlink:href="#DejaVuSans-6c" x="69.824219"/>
     <use xlink:href="#DejaVuSans-6f" x="97.607422"/>
     <use xlink:href="#DejaVuSans-73" x="158.789062"/>
     <use xlink:href="#DejaVuSans-69" x="210.888672"/>
     <use xlink:href="#DejaVuSans-6e" x="238.671875"/>
     <use xlink:href="#DejaVuSans-67" x="302.050781"/>
     <use xlink:href="#DejaVuSans-20" x="365.527344"/>
     <use xlink:href="#DejaVuSans-50" x="397.314453"/>
     <use xlink:href="#DejaVuSans-72" x="455.867188"/>
     <use xlink:href="#DejaVuSans-69" x="496.980469"/>
     <use xlink:href="#DejaVuSans-63" x="524.763672"/>
     <use xlink:href="#DejaVuSans-65" x="579.744141"/>
    </g>
   </g>
   <g id="legend_1">
    <g id="patch_7">
     <path d="M 45.904688 85.688125 
L 110.635938 85.688125 
Q 112.635938 85.688125 112.635938 83.688125 
L 112.635938 55.331875 
Q 112.635938 53.331875 110.635938 53.331875 
L 45.904688 53.331875 
Q 43.904688 53.331875 43.904688 55.331875 
L 43.904688 83.688125 
Q 43.904688 85.688125 45.904688 85.688125 
z
" style="fill: #ffffff; opacity: 0.8; stroke: #cccccc; stroke-linejoin: miter"/>
    </g>
    <g id="line2d_37">
     <path d="M 47.904688 61.430312 
L 57.904688 61.430312 
L 67.904687 61.430312 
" style="fill: none; stroke: #1f77b4; stroke-width: 1.5; stroke-linecap: square"/>
    </g>
    <g id="text_7">
     <!-- CLOSE -->
     <g transform="translate(75.904687 64.930312)scale(0.1 -0.1)">
      <defs>
       <path id="DejaVuSans-4c" d="M 628 4666 
L 1259 4666 
L 1259 531 
L 3531 531 
L 3531 0 
L 628 0 
L 628 4666 
z
" transform="scale(0.015625)"/>
       <path id="DejaVuSans-4f" d="M 2522 4238 
Q 1834 4238 1429 3725 
Q 1025 3213 1025 2328 
Q 1025 1447 1429 934 
Q 1834 422 2522 422 
Q 3209 422 3611 934 
Q 4013 1447 4013 2328 
Q 4013 3213 3611 3725 
Q 3209 4238 2522 4238 
z
M 2522 4750 
Q 3503 4750 4090 4092 
Q 4678 3434 4678 2328 
Q 4678 1225 4090 567 
Q 3503 -91 2522 -91 
Q 1538 -91 948 565 
Q 359 1222 359 2328 
Q 359 3434 948 4092 
Q 1538 4750 2522 4750 
z
" transform="scale(0.015625)"/>
       <path id="DejaVuSans-53" d="M 3425 4513 
L 3425 3897 
Q 3066 4069 2747 4153 
Q 2428 4238 2131 4238 
Q 1616 4238 1336 4038 
Q 1056 3838 1056 3469 
Q 1056 3159 1242 3001 
Q 1428 2844 1947 2747 
L 2328 2669 
Q 3034 2534 3370 2195 
Q 3706 1856 3706 1288 
Q 3706 609 3251 259 
Q 2797 -91 1919 -91 
Q 1588 -91 1214 -16 
Q 841 59 441 206 
L 441 856 
Q 825 641 1194 531 
Q 1563 422 1919 422 
Q 2459 422 2753 634 
Q 3047 847 3047 1241 
Q 3047 1584 2836 1778 
Q 2625 1972 2144 2069 
L 1759 2144 
Q 1053 2284 737 2584 
Q 422 2884 422 3419 
Q 422 4038 858 4394 
Q 1294 4750 2059 4750 
Q 2388 4750 2728 4690 
Q 3069 4631 3425 4513 
z
" transform="scale(0.015625)"/>
       <path id="DejaVuSans-45" d="M 628 4666 
L 3578 4666 
L 3578 4134 
L 1259 4134 
L 1259 2753 
L 3481 2753 
L 3481 2222 
L 1259 2222 
L 1259 531 
L 3634 531 
L 3634 0 
L 628 0 
L 628 4666 
z
" transform="scale(0.015625)"/>
      </defs>
      <use xlink:href="#DejaVuSans-43"/>
      <use xlink:href="#DejaVuSans-4c" x="69.824219"/>
      <use xlink:href="#DejaVuSans-4f" x="121.912109"/>
      <use xlink:href="#DejaVuSans-53" x="200.623047"/>
      <use xlink:href="#DejaVuSans-45" x="264.099609"/>
     </g>
    </g>
    <g id="line2d_38">
     <path d="M 47.904688 76.108437 
L 57.904688 76.108437 
L 67.904687 76.108437 
" style="fill: none; stroke: #ff7f0e; stroke-width: 1.5; stroke-linecap: square"/>
    </g>
    <g id="text_8">
     <!-- SMA5 -->
     <g transform="translate(75.904687 79.608437)scale(0.1 -0.1)">
      <defs>
       <path id="DejaVuSans-4d" d="M 628 4666 
L 1569 4666 
L 2759 1491 
L 3956 4666 
L 4897 4666 
L 4897 0 
L 4281 0 
L 4281 4097 
L 3078 897 
L 2444 897 
L 1241 4097 
L 1241 0 
L 628 0 
L 628 4666 
z
" transform="scale(0.015625)"/>
       <path id="DejaVuSans-41" d="M 2188 4044 
L 1331 1722 
L 3047 1722 
L 2188 4044 
z
M 1831 4666 
L 2547 4666 
L 4325 0 
L 3669 0 
L 3244 1197 
L 1141 1197 
L 716 0 
L 50 0 
L 1831 4666 
z
" transform="scale(0.015625)"/>
      </defs>
      <use xlink:href="#DejaVuSans-53"/>
      <use xlink:href="#DejaVuSans-4d" x="63.476562"/>
      <use xlink:href="#DejaVuSans-41" x="149.755859"/>
      <use xlink:href="#DejaVuSans-35" x="218.164062"/>
     </g>
    </g>
   </g>
  </g>
  <g id="axes_2">
   <g id="patch_8">
    <path d="M 38.904688 584.521875 
L 982.876106 584.521875 
L 982.876106 331.135938 
L 38.904688 331.135938 
z
" style="fill: #ffffff"/>
   </g>
   <g id="matplotlib.axis_3">
    <g id="xtick_13">
     <g id="line2d_39">
      <path d="M 76.432192 584.521875 
L 76.432192 331.135938 
" clip-path="url(#p448d60d13f)" style="fill: none; stroke-dasharray: 2.96,1.28; stroke-dashoffset: 0; stroke: #b0b0b0; stroke-width: 0.8"/>
     </g>
     <g id="line2d_40">
      <g>
       <use xlink:href="#m3e1137fad4" x="76.432192" y="584.521875" style="stroke: #000000; stroke-width: 0.8"/>
      </g>
     </g>
     <g id="text_9">
      <!-- 2022-01 -->
      <g transform="translate(55.540786 599.120312)scale(0.1 -0.1)">
       <defs>
        <path id="DejaVuSans-32" d="M 1228 531 
L 3431 531 
L 3431 0 
L 469 0 
L 469 531 
Q 828 903 1448 1529 
Q 2069 2156 2228 2338 
Q 2531 2678 2651 2914 
Q 2772 3150 2772 3378 
Q 2772 3750 2511 3984 
Q 2250 4219 1831 4219 
Q 1534 4219 1204 4116 
Q 875 4013 500 3803 
L 500 4441 
Q 881 4594 1212 4672 
Q 1544 4750 1819 4750 
Q 2544 4750 2975 4387 
Q 3406 4025 3406 3419 
Q 3406 3131 3298 2873 
Q 3191 2616 2906 2266 
Q 2828 2175 2409 1742 
Q 1991 1309 1228 531 
z
" transform="scale(0.015625)"/>
        <path id="DejaVuSans-2d" d="M 313 2009 
L 1997 2009 
L 1997 1497 
L 313 1497 
L 313 2009 
z
" transform="scale(0.015625)"/>
        <path id="DejaVuSans-31" d="M 794 531 
L 1825 531 
L 1825 4091 
L 703 3866 
L 703 4441 
L 1819 4666 
L 2450 4666 
L 2450 531 
L 3481 531 
L 3481 0 
L 794 0 
L 794 531 
z
" transform="scale(0.015625)"/>
       </defs>
       <use xlink:href="#DejaVuSans-32"/>
       <use xlink:href="#DejaVuSans-30" x="63.623047"/>
       <use xlink:href="#DejaVuSans-32" x="127.246094"/>
       <use xlink:href="#DejaVuSans-32" x="190.869141"/>
       <use xlink:href="#DejaVuSans-2d" x="254.492188"/>
       <use xlink:href="#DejaVuSans-30" x="290.576172"/>
       <use xlink:href="#DejaVuSans-31" x="354.199219"/>
      </g>
     </g>
    </g>
    <g id="xtick_14">
     <g id="line2d_41">
      <path d="M 159.826646 584.521875 
L 159.826646 331.135938 
" clip-path="url(#p448d60d13f)" style="fill: none; stroke-dasharray: 2.96,1.28; stroke-dashoffset: 0; stroke: #b0b0b0; stroke-width: 0.8"/>
     </g>
     <g id="line2d_42">
      <g>
       <use xlink:href="#m3e1137fad4" x="159.826646" y="584.521875" style="stroke: #000000; stroke-width: 0.8"/>
      </g>
     </g>
     <g id="text_10">
      <!-- 2022-02 -->
      <g transform="translate(138.93524 599.120312)scale(0.1 -0.1)">
       <use xlink:href="#DejaVuSans-32"/>
       <use xlink:href="#DejaVuSans-30" x="63.623047"/>
       <use xlink:href="#DejaVuSans-32" x="127.246094"/>
       <use xlink:href="#DejaVuSans-32" x="190.869141"/>
       <use xlink:href="#DejaVuSans-2d" x="254.492188"/>
       <use xlink:href="#DejaVuSans-30" x="290.576172"/>
       <use xlink:href="#DejaVuSans-32" x="354.199219"/>
      </g>
     </g>
    </g>
    <g id="xtick_15">
     <g id="line2d_43">
      <path d="M 235.150669 584.521875 
L 235.150669 331.135938 
" clip-path="url(#p448d60d13f)" style="fill: none; stroke-dasharray: 2.96,1.28; stroke-dashoffset: 0; stroke: #b0b0b0; stroke-width: 0.8"/>
     </g>
     <g id="line2d_44">
      <g>
       <use xlink:href="#m3e1137fad4" x="235.150669" y="584.521875" style="stroke: #000000; stroke-width: 0.8"/>
      </g>
     </g>
     <g id="text_11">
      <!-- 2022-03 -->
      <g transform="translate(214.259263 599.120312)scale(0.1 -0.1)">
       <defs>
        <path id="DejaVuSans-33" d="M 2597 2516 
Q 3050 2419 3304 2112 
Q 3559 1806 3559 1356 
Q 3559 666 3084 287 
Q 2609 -91 1734 -91 
Q 1441 -91 1130 -33 
Q 819 25 488 141 
L 488 750 
Q 750 597 1062 519 
Q 1375 441 1716 441 
Q 2309 441 2620 675 
Q 2931 909 2931 1356 
Q 2931 1769 2642 2001 
Q 2353 2234 1838 2234 
L 1294 2234 
L 1294 2753 
L 1863 2753 
Q 2328 2753 2575 2939 
Q 2822 3125 2822 3475 
Q 2822 3834 2567 4026 
Q 2313 4219 1838 4219 
Q 1578 4219 1281 4162 
Q 984 4106 628 3988 
L 628 4550 
Q 988 4650 1302 4700 
Q 1616 4750 1894 4750 
Q 2613 4750 3031 4423 
Q 3450 4097 3450 3541 
Q 3450 3153 3228 2886 
Q 3006 2619 2597 2516 
z
" transform="scale(0.015625)"/>
       </defs>
       <use xlink:href="#DejaVuSans-32"/>
       <use xlink:href="#DejaVuSans-30" x="63.623047"/>
       <use xlink:href="#DejaVuSans-32" x="127.246094"/>
       <use xlink:href="#DejaVuSans-32" x="190.869141"/>
       <use xlink:href="#DejaVuSans-2d" x="254.492188"/>
       <use xlink:href="#DejaVuSans-30" x="290.576172"/>
       <use xlink:href="#DejaVuSans-33" x="354.199219"/>
      </g>
     </g>
    </g>
    <g id="xtick_16">
     <g id="line2d_45">
      <path d="M 318.545123 584.521875 
L 318.545123 331.135938 
" clip-path="url(#p448d60d13f)" style="fill: none; stroke-dasharray: 2.96,1.28; stroke-dashoffset: 0; stroke: #b0b0b0; stroke-width: 0.8"/>
     </g>
     <g id="line2d_46">
      <g>
       <use xlink:href="#m3e1137fad4" x="318.545123" y="584.521875" style="stroke: #000000; stroke-width: 0.8"/>
      </g>
     </g>
     <g id="text_12">
      <!-- 2022-04 -->
      <g transform="translate(297.653717 599.120312)scale(0.1 -0.1)">
       <defs>
        <path id="DejaVuSans-34" d="M 2419 4116 
L 825 1625 
L 2419 1625 
L 2419 4116 
z
M 2253 4666 
L 3047 4666 
L 3047 1625 
L 3713 1625 
L 3713 1100 
L 3047 1100 
L 3047 0 
L 2419 0 
L 2419 1100 
L 313 1100 
L 313 1709 
L 2253 4666 
z
" transform="scale(0.015625)"/>
       </defs>
       <use xlink:href="#DejaVuSans-32"/>
       <use xlink:href="#DejaVuSans-30" x="63.623047"/>
       <use xlink:href="#DejaVuSans-32" x="127.246094"/>
       <use xlink:href="#DejaVuSans-32" x="190.869141"/>
       <use xlink:href="#DejaVuSans-2d" x="254.492188"/>
       <use xlink:href="#DejaVuSans-30" x="290.576172"/>
       <use xlink:href="#DejaVuSans-34" x="354.199219"/>
      </g>
     </g>
    </g>
    <g id="xtick_17">
     <g id="line2d_47">
      <path d="M 399.249434 584.521875 
L 399.249434 331.135938 
" clip-path="url(#p448d60d13f)" style="fill: none; stroke-dasharray: 2.96,1.28; stroke-dashoffset: 0; stroke: #b0b0b0; stroke-width: 0.8"/>
     </g>
     <g id="line2d_48">
      <g>
       <use xlink:href="#m3e1137fad4" x="399.249434" y="584.521875" style="stroke: #000000; stroke-width: 0.8"/>
      </g>
     </g>
     <g id="text_13">
      <!-- 2022-05 -->
      <g transform="translate(378.358028 599.120312)scale(0.1 -0.1)">
       <use xlink:href="#DejaVuSans-32"/>
       <use xlink:href="#DejaVuSans-30" x="63.623047"/>
       <use xlink:href="#DejaVuSans-32" x="127.246094"/>
       <use xlink:href="#DejaVuSans-32" x="190.869141"/>
       <use xlink:href="#DejaVuSans-2d" x="254.492188"/>
       <use xlink:href="#DejaVuSans-30" x="290.576172"/>
       <use xlink:href="#DejaVuSans-35" x="354.199219"/>
      </g>
     </g>
    </g>
    <g id="xtick_18">
     <g id="line2d_49">
      <path d="M 482.643888 584.521875 
L 482.643888 331.135938 
" clip-path="url(#p448d60d13f)" style="fill: none; stroke-dasharray: 2.96,1.28; stroke-dashoffset: 0; stroke: #b0b0b0; stroke-width: 0.8"/>
     </g>
     <g id="line2d_50">
      <g>
       <use xlink:href="#m3e1137fad4" x="482.643888" y="584.521875" style="stroke: #000000; stroke-width: 0.8"/>
      </g>
     </g>
     <g id="text_14">
      <!-- 2022-06 -->
      <g transform="translate(461.752482 599.120312)scale(0.1 -0.1)">
       <use xlink:href="#DejaVuSans-32"/>
       <use xlink:href="#DejaVuSans-30" x="63.623047"/>
       <use xlink:href="#DejaVuSans-32" x="127.246094"/>
       <use xlink:href="#DejaVuSans-32" x="190.869141"/>
       <use xlink:href="#DejaVuSans-2d" x="254.492188"/>
       <use xlink:href="#DejaVuSans-30" x="290.576172"/>
       <use xlink:href="#DejaVuSans-36" x="354.199219"/>
      </g>
     </g>
    </g>
    <g id="xtick_19">
     <g id="line2d_51">
      <path d="M 563.348198 584.521875 
L 563.348198 331.135938 
" clip-path="url(#p448d60d13f)" style="fill: none; stroke-dasharray: 2.96,1.28; stroke-dashoffset: 0; stroke: #b0b0b0; stroke-width: 0.8"/>
     </g>
     <g id="line2d_52">
      <g>
       <use xlink:href="#m3e1137fad4" x="563.348198" y="584.521875" style="stroke: #000000; stroke-width: 0.8"/>
      </g>
     </g>
     <g id="text_15">
      <!-- 2022-07 -->
      <g transform="translate(542.456792 599.120312)scale(0.1 -0.1)">
       <use xlink:href="#DejaVuSans-32"/>
       <use xlink:href="#DejaVuSans-30" x="63.623047"/>
       <use xlink:href="#DejaVuSans-32" x="127.246094"/>
       <use xlink:href="#DejaVuSans-32" x="190.869141"/>
       <use xlink:href="#DejaVuSans-2d" x="254.492188"/>
       <use xlink:href="#DejaVuSans-30" x="290.576172"/>
       <use xlink:href="#DejaVuSans-37" x="354.199219"/>
      </g>
     </g>
    </g>
    <g id="xtick_20">
     <g id="line2d_53">
      <path d="M 646.742653 584.521875 
L 646.742653 331.135938 
" clip-path="url(#p448d60d13f)" style="fill: none; stroke-dasharray: 2.96,1.28; stroke-dashoffset: 0; stroke: #b0b0b0; stroke-width: 0.8"/>
     </g>
     <g id="line2d_54">
      <g>
       <use xlink:href="#m3e1137fad4" x="646.742653" y="584.521875" style="stroke: #000000; stroke-width: 0.8"/>
      </g>
     </g>
     <g id="text_16">
      <!-- 2022-08 -->
      <g transform="translate(625.851246 599.120312)scale(0.1 -0.1)">
       <use xlink:href="#DejaVuSans-32"/>
       <use xlink:href="#DejaVuSans-30" x="63.623047"/>
       <use xlink:href="#DejaVuSans-32" x="127.246094"/>
       <use xlink:href="#DejaVuSans-32" x="190.869141"/>
       <use xlink:href="#DejaVuSans-2d" x="254.492188"/>
       <use xlink:href="#DejaVuSans-30" x="290.576172"/>
       <use xlink:href="#DejaVuSans-38" x="354.199219"/>
      </g>
     </g>
    </g>
    <g id="xtick_21">
     <g id="line2d_55">
      <path d="M 730.137107 584.521875 
L 730.137107 331.135938 
" clip-path="url(#p448d60d13f)" style="fill: none; stroke-dasharray: 2.96,1.28; stroke-dashoffset: 0; stroke: #b0b0b0; stroke-width: 0.8"/>
     </g>
     <g id="line2d_56">
      <g>
       <use xlink:href="#m3e1137fad4" x="730.137107" y="584.521875" style="stroke: #000000; stroke-width: 0.8"/>
      </g>
     </g>
     <g id="text_17">
      <!-- 2022-09 -->
      <g transform="translate(709.245701 599.120312)scale(0.1 -0.1)">
       <defs>
        <path id="DejaVuSans-39" d="M 703 97 
L 703 672 
Q 941 559 1184 500 
Q 1428 441 1663 441 
Q 2288 441 2617 861 
Q 2947 1281 2994 2138 
Q 2813 1869 2534 1725 
Q 2256 1581 1919 1581 
Q 1219 1581 811 2004 
Q 403 2428 403 3163 
Q 403 3881 828 4315 
Q 1253 4750 1959 4750 
Q 2769 4750 3195 4129 
Q 3622 3509 3622 2328 
Q 3622 1225 3098 567 
Q 2575 -91 1691 -91 
Q 1453 -91 1209 -44 
Q 966 3 703 97 
z
M 1959 2075 
Q 2384 2075 2632 2365 
Q 2881 2656 2881 3163 
Q 2881 3666 2632 3958 
Q 2384 4250 1959 4250 
Q 1534 4250 1286 3958 
Q 1038 3666 1038 3163 
Q 1038 2656 1286 2365 
Q 1534 2075 1959 2075 
z
" transform="scale(0.015625)"/>
       </defs>
       <use xlink:href="#DejaVuSans-32"/>
       <use xlink:href="#DejaVuSans-30" x="63.623047"/>
       <use xlink:href="#DejaVuSans-32" x="127.246094"/>
       <use xlink:href="#DejaVuSans-32" x="190.869141"/>
       <use xlink:href="#DejaVuSans-2d" x="254.492188"/>
       <use xlink:href="#DejaVuSans-30" x="290.576172"/>
       <use xlink:href="#DejaVuSans-39" x="354.199219"/>
      </g>
     </g>
    </g>
    <g id="xtick_22">
     <g id="line2d_57">
      <path d="M 810.841417 584.521875 
L 810.841417 331.135938 
" clip-path="url(#p448d60d13f)" style="fill: none; stroke-dasharray: 2.96,1.28; stroke-dashoffset: 0; stroke: #b0b0b0; stroke-width: 0.8"/>
     </g>
     <g id="line2d_58">
      <g>
       <use xlink:href="#m3e1137fad4" x="810.841417" y="584.521875" style="stroke: #000000; stroke-width: 0.8"/>
      </g>
     </g>
     <g id="text_18">
      <!-- 2022-10 -->
      <g transform="translate(789.950011 599.120312)scale(0.1 -0.1)">
       <use xlink:href="#DejaVuSans-32"/>
       <use xlink:href="#DejaVuSans-30" x="63.623047"/>
       <use xlink:href="#DejaVuSans-32" x="127.246094"/>
       <use xlink:href="#DejaVuSans-32" x="190.869141"/>
       <use xlink:href="#DejaVuSans-2d" x="254.492188"/>
       <use xlink:href="#DejaVuSans-31" x="290.576172"/>
       <use xlink:href="#DejaVuSans-30" x="354.199219"/>
      </g>
     </g>
    </g>
    <g id="xtick_23">
     <g id="line2d_59">
      <path d="M 894.235872 584.521875 
L 894.235872 331.135938 
" clip-path="url(#p448d60d13f)" style="fill: none; stroke-dasharray: 2.96,1.28; stroke-dashoffset: 0; stroke: #b0b0b0; stroke-width: 0.8"/>
     </g>
     <g id="line2d_60">
      <g>
       <use xlink:href="#m3e1137fad4" x="894.235872" y="584.521875" style="stroke: #000000; stroke-width: 0.8"/>
      </g>
     </g>
     <g id="text_19">
      <!-- 2022-11 -->
      <g transform="translate(873.344465 599.120312)scale(0.1 -0.1)">
       <use xlink:href="#DejaVuSans-32"/>
       <use xlink:href="#DejaVuSans-30" x="63.623047"/>
       <use xlink:href="#DejaVuSans-32" x="127.246094"/>
       <use xlink:href="#DejaVuSans-32" x="190.869141"/>
       <use xlink:href="#DejaVuSans-2d" x="254.492188"/>
       <use xlink:href="#DejaVuSans-31" x="290.576172"/>
       <use xlink:href="#DejaVuSans-31" x="354.199219"/>
      </g>
     </g>
    </g>
    <g id="xtick_24">
     <g id="line2d_61">
      <path d="M 974.940182 584.521875 
L 974.940182 331.135938 
" clip-path="url(#p448d60d13f)" style="fill: none; stroke-dasharray: 2.96,1.28; stroke-dashoffset: 0; stroke: #b0b0b0; stroke-width: 0.8"/>
     </g>
     <g id="line2d_62">
      <g>
       <use xlink:href="#m3e1137fad4" x="974.940182" y="584.521875" style="stroke: #000000; stroke-width: 0.8"/>
      </g>
     </g>
     <g id="text_20">
      <!-- 2022-12 -->
      <g transform="translate(954.048776 599.120312)scale(0.1 -0.1)">
       <use xlink:href="#DejaVuSans-32"/>
       <use xlink:href="#DejaVuSans-30" x="63.623047"/>
       <use xlink:href="#DejaVuSans-32" x="127.246094"/>
       <use xlink:href="#DejaVuSans-32" x="190.869141"/>
       <use xlink:href="#DejaVuSans-2d" x="254.492188"/>
       <use xlink:href="#DejaVuSans-31" x="290.576172"/>
       <use xlink:href="#DejaVuSans-32" x="354.199219"/>
      </g>
     </g>
    </g>
   </g>
   <g id="matplotlib.axis_4">
    <g id="ytick_6">
     <g id="line2d_63">
      <path d="M 38.904688 574.112384 
L 982.876106 574.112384 
" clip-path="url(#p448d60d13f)" style="fill: none; stroke-dasharray: 2.96,1.28; stroke-dashoffset: 0; stroke: #b0b0b0; stroke-width: 0.8"/>
     </g>
     <g id="line2d_64">
      <g>
       <use xlink:href="#m5a59c0e046" x="38.904688" y="574.112384" style="stroke: #000000; stroke-width: 0.8"/>
      </g>
     </g>
     <g id="text_21">
      <!-- −15 -->
      <g transform="translate(10.8 577.911603)scale(0.1 -0.1)">
       <defs>
        <path id="DejaVuSans-2212" d="M 678 2272 
L 4684 2272 
L 4684 1741 
L 678 1741 
L 678 2272 
z
" transform="scale(0.015625)"/>
       </defs>
       <use xlink:href="#DejaVuSans-2212"/>
       <use xlink:href="#DejaVuSans-31" x="83.789062"/>
       <use xlink:href="#DejaVuSans-35" x="147.412109"/>
      </g>
     </g>
    </g>
    <g id="ytick_7">
     <g id="line2d_65">
      <path d="M 38.904688 541.492524 
L 982.876106 541.492524 
" clip-path="url(#p448d60d13f)" style="fill: none; stroke-dasharray: 2.96,1.28; stroke-dashoffset: 0; stroke: #b0b0b0; stroke-width: 0.8"/>
     </g>
     <g id="line2d_66">
      <g>
       <use xlink:href="#m5a59c0e046" x="38.904688" y="541.492524" style="stroke: #000000; stroke-width: 0.8"/>
      </g>
     </g>
     <g id="text_22">
      <!-- −10 -->
      <g transform="translate(10.8 545.291743)scale(0.1 -0.1)">
       <use xlink:href="#DejaVuSans-2212"/>
       <use xlink:href="#DejaVuSans-31" x="83.789062"/>
       <use xlink:href="#DejaVuSans-30" x="147.412109"/>
      </g>
     </g>
    </g>
    <g id="ytick_8">
     <g id="line2d_67">
      <path d="M 38.904688 508.872665 
L 982.876106 508.872665 
" clip-path="url(#p448d60d13f)" style="fill: none; stroke-dasharray: 2.96,1.28; stroke-dashoffset: 0; stroke: #b0b0b0; stroke-width: 0.8"/>
     </g>
     <g id="line2d_68">
      <g>
       <use xlink:href="#m5a59c0e046" x="38.904688" y="508.872665" style="stroke: #000000; stroke-width: 0.8"/>
      </g>
     </g>
     <g id="text_23">
      <!-- −5 -->
      <g transform="translate(17.1625 512.671883)scale(0.1 -0.1)">
       <use xlink:href="#DejaVuSans-2212"/>
       <use xlink:href="#DejaVuSans-35" x="83.789062"/>
      </g>
     </g>
    </g>
    <g id="ytick_9">
     <g id="line2d_69">
      <path d="M 38.904688 476.252805 
L 982.876106 476.252805 
" clip-path="url(#p448d60d13f)" style="fill: none; stroke-dasharray: 2.96,1.28; stroke-dashoffset: 0; stroke: #b0b0b0; stroke-width: 0.8"/>
     </g>
     <g id="line2d_70">
      <g>
       <use xlink:href="#m5a59c0e046" x="38.904688" y="476.252805" style="stroke: #000000; stroke-width: 0.8"/>
      </g>
     </g>
     <g id="text_24">
      <!-- 0 -->
      <g transform="translate(25.542188 480.052024)scale(0.1 -0.1)">
       <use xlink:href="#DejaVuSans-30"/>
      </g>
     </g>
    </g>
    <g id="ytick_10">
     <g id="line2d_71">
      <path d="M 38.904688 443.632946 
L 982.876106 443.632946 
" clip-path="url(#p448d60d13f)" style="fill: none; stroke-dasharray: 2.96,1.28; stroke-dashoffset: 0; stroke: #b0b0b0; stroke-width: 0.8"/>
     </g>
     <g id="line2d_72">
      <g>
       <use xlink:href="#m5a59c0e046" x="38.904688" y="443.632946" style="stroke: #000000; stroke-width: 0.8"/>
      </g>
     </g>
     <g id="text_25">
      <!-- 5 -->
      <g transform="translate(25.542188 447.432164)scale(0.1 -0.1)">
       <use xlink:href="#DejaVuSans-35"/>
      </g>
     </g>
    </g>
    <g id="ytick_11">
     <g id="line2d_73">
      <path d="M 38.904688 411.013086 
L 982.876106 411.013086 
" clip-path="url(#p448d60d13f)" style="fill: none; stroke-dasharray: 2.96,1.28; stroke-dashoffset: 0; stroke: #b0b0b0; stroke-width: 0.8"/>
     </g>
     <g id="line2d_74">
      <g>
       <use xlink:href="#m5a59c0e046" x="38.904688" y="411.013086" style="stroke: #000000; stroke-width: 0.8"/>
      </g>
     </g>
     <g id="text_26">
      <!-- 10 -->
      <g transform="translate(19.179688 414.812305)scale(0.1 -0.1)">
       <use xlink:href="#DejaVuSans-31"/>
       <use xlink:href="#DejaVuSans-30" x="63.623047"/>
      </g>
     </g>
    </g>
    <g id="ytick_12">
     <g id="line2d_75">
      <path d="M 38.904688 378.393226 
L 982.876106 378.393226 
" clip-path="url(#p448d60d13f)" style="fill: none; stroke-dasharray: 2.96,1.28; stroke-dashoffset: 0; stroke: #b0b0b0; stroke-width: 0.8"/>
     </g>
     <g id="line2d_76">
      <g>
       <use xlink:href="#m5a59c0e046" x="38.904688" y="378.393226" style="stroke: #000000; stroke-width: 0.8"/>
      </g>
     </g>
     <g id="text_27">
      <!-- 15 -->
      <g transform="translate(19.179688 382.192445)scale(0.1 -0.1)">
       <use xlink:href="#DejaVuSans-31"/>
       <use xlink:href="#DejaVuSans-35" x="63.623047"/>
      </g>
     </g>
    </g>
    <g id="ytick_13">
     <g id="line2d_77">
      <path d="M 38.904688 345.773367 
L 982.876106 345.773367 
" clip-path="url(#p448d60d13f)" style="fill: none; stroke-dasharray: 2.96,1.28; stroke-dashoffset: 0; stroke: #b0b0b0; stroke-width: 0.8"/>
     </g>
     <g id="line2d_78">
      <g>
       <use xlink:href="#m5a59c0e046" x="38.904688" y="345.773367" style="stroke: #000000; stroke-width: 0.8"/>
      </g>
     </g>
     <g id="text_28">
      <!-- 20 -->
      <g transform="translate(19.179688 349.572586)scale(0.1 -0.1)">
       <use xlink:href="#DejaVuSans-32"/>
       <use xlink:href="#DejaVuSans-30" x="63.623047"/>
      </g>
     </g>
    </g>
   </g>
   <g id="line2d_79">
    <path d="M 81.812479 476.252805 
L 84.502623 475.352622 
L 87.192767 474.589908 
L 89.88291 471.834091 
L 92.573054 471.909388 
L 100.643485 471.966552 
L 103.333629 472.520361 
L 106.023772 464.65176 
L 108.713916 458.861532 
L 111.40406 458.770833 
L 119.474491 456.169915 
L 122.164634 459.643022 
L 124.854778 466.363922 
L 127.544922 467.09922 
L 130.235066 475.571468 
L 138.305497 484.125591 
L 140.99564 481.689661 
L 146.375928 481.649532 
L 149.066071 477.974833 
L 157.136502 469.380767 
L 162.51679 461.78496 
L 165.206933 460.56616 
L 167.897077 460.455027 
L 175.967508 466.766661 
L 178.657652 470.691701 
L 181.347796 468.982421 
L 184.037939 465.54186 
L 186.728083 467.16757 
L 194.798514 480.60128 
L 197.488658 480.617398 
L 200.178801 475.657127 
L 202.868945 474.105907 
L 205.559089 475.079616 
L 213.62952 477.12416 
L 216.319663 483.962881 
L 219.009807 486.68686 
L 221.699951 505.2733 
L 224.390094 510.670598 
L 232.460525 515.571536 
L 237.840813 525.081675 
L 240.530957 533.070247 
L 243.2211 547.901195 
L 251.291531 547.752825 
L 253.981675 542.977288 
L 256.671819 534.169011 
L 259.361962 523.436562 
L 262.052106 515.966092 
L 270.122537 506.834429 
L 272.812681 497.955359 
L 275.502824 486.205859 
L 278.192968 471.312721 
L 288.953543 467.233774 
L 291.643687 458.474679 
L 294.33383 459.158465 
L 297.023974 459.169782 
L 299.714118 457.830437 
L 307.784549 444.789345 
L 310.474692 423.648075 
L 313.164836 410.497276 
L 315.85498 398.133315 
L 318.545123 387.505911 
L 326.615554 375.388247 
L 329.305698 367.666245 
L 331.995842 358.174983 
L 334.685985 358.942094 
L 337.376129 361.036381 
L 345.44656 366.088442 
L 348.136704 379.798604 
L 350.826848 392.157731 
L 364.277566 408.579214 
L 366.96771 425.327286 
L 369.657853 430.808073 
L 372.347997 437.487805 
L 375.038141 441.606209 
L 383.108572 444.916345 
L 385.798715 439.067501 
L 388.488859 436.88223 
L 391.179003 438.293513 
L 393.869146 444.168954 
L 401.939578 447.917063 
L 407.319865 461.022072 
L 410.010009 473.255612 
L 412.700152 487.395473 
L 423.460727 501.286906 
L 426.150871 502.150785 
L 428.841014 511.604279 
L 431.531158 526.666573 
L 439.601589 536.176917 
L 442.291733 535.743087 
L 444.981876 540.39342 
L 447.67202 554.694962 
L 450.362164 557.906631 
L 458.432595 560.558474 
L 461.122739 565.654284 
L 463.812882 563.426252 
L 466.503026 557.852194 
L 469.19317 557.366893 
L 477.263601 548.441141 
L 479.953744 540.027094 
L 482.643888 535.595452 
L 485.334032 530.770744 
L 496.094606 532.9094 
L 498.78475 532.31296 
L 501.474894 542.653435 
L 504.165037 543.208119 
L 506.855181 544.440612 
L 514.925612 545.695819 
L 517.615756 540.294226 
L 520.3059 535.306364 
L 522.996043 545.243276 
L 525.686187 557.732113 
L 533.756618 568.019232 
L 536.446762 568.060223 
L 539.136905 573.004332 
L 541.827049 566.746796 
L 544.517193 555.088709 
L 552.587624 538.42157 
L 555.277767 526.111883 
L 557.967911 512.438754 
L 560.658055 502.796939 
L 563.348198 500.924872 
L 571.41863 494.779619 
L 574.108773 488.426809 
L 576.798917 478.366972 
L 579.489061 474.182143 
L 582.179204 466.581631 
L 590.249635 478.74318 
L 592.939779 486.968068 
L 595.629923 503.43799 
L 598.320066 516.99473 
L 601.01021 521.869595 
L 609.080641 519.314401 
L 611.770785 511.695629 
L 614.460928 506.49354 
L 617.151072 498.065978 
L 619.841216 490.954396 
L 627.911647 485.449294 
L 630.601791 478.064975 
L 633.291934 477.046774 
L 635.982078 480.429393 
L 638.672222 477.255296 
L 646.742653 466.17005 
L 649.432796 461.58118 
L 652.12294 454.848412 
L 654.813084 449.218888 
L 657.503227 440.250391 
L 665.573658 433.269778 
L 670.953946 422.617825 
L 673.64409 417.71983 
L 676.334233 414.601456 
L 687.094808 415.775259 
L 689.784952 407.574048 
L 692.475095 396.596877 
L 695.165239 389.372676 
L 703.23567 387.148791 
L 705.925814 381.217577 
L 708.615957 377.055145 
L 711.306101 373.753474 
L 713.996245 377.617133 
L 722.066676 387.102669 
L 724.756819 392.427737 
L 730.137107 393.157442 
L 732.827251 394.702127 
L 740.897682 394.031383 
L 743.587825 383.59191 
L 746.277969 380.710303 
L 748.968113 370.85026 
L 751.658256 366.434065 
L 759.728687 362.456118 
L 762.418831 352.777828 
L 765.108975 347.070632 
L 767.799118 343.160591 
L 770.489262 344.450234 
L 778.559693 345.349328 
L 781.249837 342.65348 
L 783.939981 348.28299 
L 786.630124 352.122242 
L 789.320268 363.180284 
L 797.390699 381.615584 
L 800.080843 394.249292 
L 802.770986 404.639644 
L 805.46113 411.93096 
L 808.151274 400.031366 
L 816.221705 389.781458 
L 818.911848 379.952028 
L 824.292136 383.809007 
L 826.982279 385.54241 
L 835.05271 388.324549 
L 837.742854 397.777508 
L 840.432998 408.550023 
L 843.123142 421.222433 
L 845.813285 433.313357 
L 853.883716 443.24962 
L 856.57386 442.48516 
L 859.264004 442.140933 
L 861.954147 437.315886 
L 864.644291 431.611346 
L 872.714722 425.230708 
L 875.404866 420.708995 
L 880.785153 410.096945 
L 883.475297 402.666682 
L 891.545728 389.799314 
L 894.235872 378.855738 
L 896.926015 384.76672 
L 899.616159 385.860616 
L 902.306303 388.918738 
L 910.376734 389.031248 
L 915.757021 392.012947 
L 918.447165 391.822149 
L 921.137308 392.03634 
L 929.207739 395.766039 
L 931.897883 392.657646 
L 934.588027 388.078383 
L 937.27817 382.919346 
L 939.968314 384.546806 
L 939.968314 384.546806 
" clip-path="url(#p448d60d13f)" style="fill: none; stroke: #1f77b4; stroke-width: 1.5; stroke-linecap: square"/>
   </g>
   <g id="line2d_80">
    <path d="M 81.812479 476.252805 
L 87.192767 475.276148 
L 89.88291 474.11014 
L 92.573054 473.455466 
L 103.333629 472.917372 
L 106.023772 470.93099 
L 108.713916 468.142885 
L 111.40406 466.043001 
L 119.474491 463.882827 
L 122.164634 462.972294 
L 127.544922 464.403275 
L 130.235066 466.718369 
L 138.305497 470.300645 
L 140.99564 472.630922 
L 146.375928 474.467733 
L 149.066071 475.179409 
L 157.136502 474.006154 
L 159.826646 472.293275 
L 162.51679 470.17599 
L 165.206933 468.242611 
L 167.897077 466.677704 
L 175.967508 466.695563 
L 178.657652 467.497214 
L 181.347796 467.794975 
L 184.037939 467.343479 
L 186.728083 467.308243 
L 194.798514 469.970145 
L 197.488658 472.101707 
L 200.178801 472.813355 
L 202.868945 473.072029 
L 205.559089 473.47375 
L 213.62952 474.204128 
L 216.319663 476.156512 
L 219.009807 478.263129 
L 224.390094 489.068045 
L 232.460525 494.369448 
L 237.840813 500.512547 
L 240.530957 507.024641 
L 243.2211 515.200508 
L 251.291531 521.711326 
L 253.981675 525.964704 
L 256.671819 527.605622 
L 259.361962 526.771787 
L 262.052106 524.6106 
L 270.122537 521.055302 
L 272.812681 516.435248 
L 275.502824 510.389301 
L 278.192968 502.573913 
L 288.953543 495.505834 
L 291.643687 488.09956 
L 294.33383 482.311314 
L 297.023974 477.68299 
L 299.714118 473.712467 
L 307.784549 467.927829 
L 310.474692 459.071861 
L 313.164836 449.356929 
L 318.545123 428.790927 
L 326.615554 418.110383 
L 331.995842 398.052231 
L 334.685985 390.2302 
L 337.376129 384.391435 
L 345.44656 380.730835 
L 348.136704 380.544389 
L 350.826848 382.867058 
L 364.277566 388.00949 
L 366.96771 395.47305 
L 372.347997 409.529605 
L 375.038141 415.944926 
L 383.108572 421.73921 
L 385.798715 425.204869 
L 388.488859 427.540341 
L 391.179003 429.690975 
L 393.869146 432.586571 
L 401.939578 435.65267 
L 407.319865 440.72655 
L 410.010009 447.232362 
L 412.700152 455.264985 
L 420.770583 463.751356 
L 423.460727 471.258466 
L 426.150871 477.43693 
L 428.841014 484.2704 
L 431.531158 492.749634 
L 439.601589 501.435091 
L 442.291733 508.29669 
L 444.981876 514.716036 
L 447.67202 522.711821 
L 450.362164 529.750783 
L 458.432595 535.912321 
L 461.122739 541.860714 
L 463.812882 546.173822 
L 466.503026 548.509496 
L 469.19317 550.280975 
L 477.263601 549.913009 
L 479.953744 547.935826 
L 482.643888 545.467751 
L 485.334032 542.52835 
L 488.024175 540.279869 
L 496.094606 538.805775 
L 498.78475 537.507212 
L 504.165037 539.470789 
L 506.855181 540.464754 
L 514.925612 541.510967 
L 517.615756 541.267618 
L 520.3059 540.075367 
L 522.996043 541.108949 
L 525.686187 544.433582 
L 533.756618 549.150712 
L 536.446762 552.932614 
L 539.136905 556.946958 
L 541.827049 558.906926 
L 544.517193 558.143282 
L 552.587624 554.19894 
L 555.277767 548.581528 
L 557.967911 541.352973 
L 560.658055 533.641767 
L 563.348198 527.098388 
L 571.41863 520.634634 
L 574.108773 514.193069 
L 576.798917 507.02785 
L 582.179204 493.683293 
L 590.249635 490.69527 
L 592.939779 489.94983 
L 595.629923 492.647462 
L 601.01021 502.387451 
L 611.770785 506.957399 
L 614.460928 506.864627 
L 617.151072 505.104897 
L 619.841216 502.274797 
L 627.911647 498.909696 
L 630.601791 494.740752 
L 633.291934 491.201956 
L 635.982078 489.047444 
L 638.672222 486.689014 
L 646.742653 482.585221 
L 649.432796 478.384413 
L 654.813084 468.785548 
L 657.503227 463.078516 
L 665.573658 457.116769 
L 670.953946 450.21698 
L 673.64409 443.71755 
L 676.334233 437.894331 
L 687.094808 433.470517 
L 689.784952 428.291223 
L 695.165239 415.436418 
L 703.23567 409.778893 
L 705.925814 404.066629 
L 708.615957 398.664333 
L 711.306101 393.682161 
L 713.996245 390.469155 
L 722.066676 389.795858 
L 724.756819 390.322234 
L 730.137107 390.889275 
L 732.827251 391.651846 
L 740.897682 392.127753 
L 743.587825 390.420584 
L 746.277969 388.478528 
L 751.658256 381.249113 
L 759.728687 377.490514 
L 767.799118 362.594124 
L 770.489262 358.965346 
L 778.559693 356.242143 
L 781.249837 353.52441 
L 783.939981 352.476126 
L 786.630124 352.405349 
L 789.320268 354.560336 
L 797.390699 359.971386 
L 800.080843 366.826967 
L 805.46113 381.897794 
L 808.151274 385.524508 
L 816.221705 386.375898 
L 818.911848 385.091124 
L 824.292136 384.834701 
L 826.982279 384.976243 
L 835.05271 385.645904 
L 837.742854 388.072225 
L 840.432998 392.167784 
L 843.123142 397.978714 
L 845.813285 405.045643 
L 853.883716 412.686438 
L 856.57386 418.646182 
L 859.264004 423.345132 
L 861.954147 426.139283 
L 864.644291 427.233696 
L 872.714722 426.833098 
L 875.404866 425.608277 
L 880.785153 422.506011 
L 883.475297 418.538145 
L 891.545728 412.790379 
L 894.235872 406.003451 
L 896.926015 401.756105 
L 899.616159 398.577007 
L 902.306303 396.645353 
L 910.376734 395.122532 
L 915.757021 394.500615 
L 918.447165 393.964922 
L 921.137308 393.579205 
L 929.207739 394.016572 
L 931.897883 393.744787 
L 934.588027 392.611506 
L 937.27817 390.673074 
L 939.968314 389.447821 
L 939.968314 389.447821 
" clip-path="url(#p448d60d13f)" style="fill: none; stroke: #ff7f0e; stroke-width: 1.5; stroke-linecap: square"/>
   </g>
   <g id="patch_9">
    <path d="M 38.904688 584.521875 
L 38.904688 331.135938 
" style="fill: none; stroke: #000000; stroke-width: 0.8; stroke-linejoin: miter; stroke-linecap: square"/>
   </g>
   <g id="patch_10">
    <path d="M 982.876106 584.521875 
L 982.876106 331.135938 
" style="fill: none; stroke: #000000; stroke-width: 0.8; stroke-linejoin: miter; stroke-linecap: square"/>
   </g>
   <g id="patch_11">
    <path d="M 38.904687 584.521875 
L 982.876106 584.521875 
" style="fill: none; stroke: #000000; stroke-width: 0.8; stroke-linejoin: miter; stroke-linecap: square"/>
   </g>
   <g id="patch_12">
    <path d="M 38.904687 331.135938 
L 982.876106 331.135938 
" style="fill: none; stroke: #000000; stroke-width: 0.8; stroke-linejoin: miter; stroke-linecap: square"/>
   </g>
   <g id="text_29">
    <!-- MACD -->
    <g transform="translate(492.904459 325.135938)scale(0.12 -0.12)">
     <defs>
      <path id="DejaVuSans-44" d="M 1259 4147 
L 1259 519 
L 2022 519 
Q 2988 519 3436 956 
Q 3884 1394 3884 2338 
Q 3884 3275 3436 3711 
Q 2988 4147 2022 4147 
L 1259 4147 
z
M 628 4666 
L 1925 4666 
Q 3281 4666 3915 4102 
Q 4550 3538 4550 2338 
Q 4550 1131 3912 565 
Q 3275 0 1925 0 
L 628 0 
L 628 4666 
z
" transform="scale(0.015625)"/>
     </defs>
     <use xlink:href="#DejaVuSans-4d"/>
     <use xlink:href="#DejaVuSans-41" x="86.279297"/>
     <use xlink:href="#DejaVuSans-43" x="152.9375"/>
     <use xlink:href="#DejaVuSans-44" x="222.761719"/>
    </g>
   </g>
   <g id="legend_2">
    <g id="patch_13">
     <path d="M 913.899543 368.492188 
L 975.876106 368.492188 
Q 977.876106 368.492188 977.876106 366.492188 
L 977.876106 338.135938 
Q 977.876106 336.135938 975.876106 336.135938 
L 913.899543 336.135938 
Q 911.899543 336.135938 911.899543 338.135938 
L 911.899543 366.492188 
Q 911.899543 368.492188 913.899543 368.492188 
z
" style="fill: #ffffff; opacity: 0.8; stroke: #cccccc; stroke-linejoin: miter"/>
    </g>
    <g id="line2d_81">
     <path d="M 915.899543 344.234375 
L 925.899543 344.234375 
L 935.899543 344.234375 
" style="fill: none; stroke: #1f77b4; stroke-width: 1.5; stroke-linecap: square"/>
    </g>
    <g id="text_30">
     <!-- MACD -->
     <g transform="translate(943.899543 347.734375)scale(0.1 -0.1)">
      <use xlink:href="#DejaVuSans-4d"/>
      <use xlink:href="#DejaVuSans-41" x="86.279297"/>
      <use xlink:href="#DejaVuSans-43" x="152.9375"/>
      <use xlink:href="#DejaVuSans-44" x="222.761719"/>
     </g>
    </g>
    <g id="line2d_82">
     <path d="M 915.899543 358.9125 
L 925.899543 358.9125 
L 935.899543 358.9125 
" style="fill: none; stroke: #ff7f0e; stroke-width: 1.5; stroke-linecap: square"/>
    </g>
    <g id="text_31">
     <!-- SIG -->
     <g transform="translate(943.899543 362.4125)scale(0.1 -0.1)">
      <defs>
       <path id="DejaVuSans-49" d="M 628 4666 
L 1259 4666 
L 1259 0 
L 628 0 
L 628 4666 
z
" transform="scale(0.015625)"/>
       <path id="DejaVuSans-47" d="M 3809 666 
L 3809 1919 
L 2778 1919 
L 2778 2438 
L 4434 2438 
L 4434 434 
Q 4069 175 3628 42 
Q 3188 -91 2688 -91 
Q 1594 -91 976 548 
Q 359 1188 359 2328 
Q 359 3472 976 4111 
Q 1594 4750 2688 4750 
Q 3144 4750 3555 4637 
Q 3966 4525 4313 4306 
L 4313 3634 
Q 3963 3931 3569 4081 
Q 3175 4231 2741 4231 
Q 1884 4231 1454 3753 
Q 1025 3275 1025 2328 
Q 1025 1384 1454 906 
Q 1884 428 2741 428 
Q 3075 428 3337 486 
Q 3600 544 3809 666 
z
" transform="scale(0.015625)"/>
      </defs>
      <use xlink:href="#DejaVuSans-53"/>
      <use xlink:href="#DejaVuSans-49" x="63.476562"/>
      <use xlink:href="#DejaVuSans-47" x="92.96875"/>
     </g>
    </g>
   </g>
  </g>
  <g id="text_32">
   <!-- Bharti Airtel Limited -->
   <g transform="translate(443.781563 21.358125)scale(0.12 -0.12)">
    <defs>
     <path id="DejaVuSans-42" d="M 1259 2228 
L 1259 519 
L 2272 519 
Q 2781 519 3026 730 
Q 3272 941 3272 1375 
Q 3272 1813 3026 2020 
Q 2781 2228 2272 2228 
L 1259 2228 
z
M 1259 4147 
L 1259 2741 
L 2194 2741 
Q 2656 2741 2882 2914 
Q 3109 3088 3109 3444 
Q 3109 3797 2882 3972 
Q 2656 4147 2194 4147 
L 1259 4147 
z
M 628 4666 
L 2241 4666 
Q 2963 4666 3353 4366 
Q 3744 4066 3744 3513 
Q 3744 3084 3544 2831 
Q 3344 2578 2956 2516 
Q 3422 2416 3680 2098 
Q 3938 1781 3938 1306 
Q 3938 681 3513 340 
Q 3088 0 2303 0 
L 628 0 
L 628 4666 
z
" transform="scale(0.015625)"/>
     <path id="DejaVuSans-68" d="M 3513 2113 
L 3513 0 
L 2938 0 
L 2938 2094 
Q 2938 2591 2744 2837 
Q 2550 3084 2163 3084 
Q 1697 3084 1428 2787 
Q 1159 2491 1159 1978 
L 1159 0 
L 581 0 
L 581 4863 
L 1159 4863 
L 1159 2956 
Q 1366 3272 1645 3428 
Q 1925 3584 2291 3584 
Q 2894 3584 3203 3211 
Q 3513 2838 3513 2113 
z
" transform="scale(0.015625)"/>
     <path id="DejaVuSans-61" d="M 2194 1759 
Q 1497 1759 1228 1600 
Q 959 1441 959 1056 
Q 959 750 1161 570 
Q 1363 391 1709 391 
Q 2188 391 2477 730 
Q 2766 1069 2766 1631 
L 2766 1759 
L 2194 1759 
z
M 3341 1997 
L 3341 0 
L 2766 0 
L 2766 531 
Q 2569 213 2275 61 
Q 1981 -91 1556 -91 
Q 1019 -91 701 211 
Q 384 513 384 1019 
Q 384 1609 779 1909 
Q 1175 2209 1959 2209 
L 2766 2209 
L 2766 2266 
Q 2766 2663 2505 2880 
Q 2244 3097 1772 3097 
Q 1472 3097 1187 3025 
Q 903 2953 641 2809 
L 641 3341 
Q 956 3463 1253 3523 
Q 1550 3584 1831 3584 
Q 2591 3584 2966 3190 
Q 3341 2797 3341 1997 
z
" transform="scale(0.015625)"/>
     <path id="DejaVuSans-74" d="M 1172 4494 
L 1172 3500 
L 2356 3500 
L 2356 3053 
L 1172 3053 
L 1172 1153 
Q 1172 725 1289 603 
Q 1406 481 1766 481 
L 2356 481 
L 2356 0 
L 1766 0 
Q 1100 0 847 248 
Q 594 497 594 1153 
L 594 3053 
L 172 3053 
L 172 3500 
L 594 3500 
L 594 4494 
L 1172 4494 
z
" transform="scale(0.015625)"/>
     <path id="DejaVuSans-6d" d="M 3328 2828 
Q 3544 3216 3844 3400 
Q 4144 3584 4550 3584 
Q 5097 3584 5394 3201 
Q 5691 2819 5691 2113 
L 5691 0 
L 5113 0 
L 5113 2094 
Q 5113 2597 4934 2840 
Q 4756 3084 4391 3084 
Q 3944 3084 3684 2787 
Q 3425 2491 3425 1978 
L 3425 0 
L 2847 0 
L 2847 2094 
Q 2847 2600 2669 2842 
Q 2491 3084 2119 3084 
Q 1678 3084 1418 2786 
Q 1159 2488 1159 1978 
L 1159 0 
L 581 0 
L 581 3500 
L 1159 3500 
L 1159 2956 
Q 1356 3278 1631 3431 
Q 1906 3584 2284 3584 
Q 2666 3584 2933 3390 
Q 3200 3197 3328 2828 
z
" transform="scale(0.015625)"/>
     <path id="DejaVuSans-64" d="M 2906 2969 
L 2906 4863 
L 3481 4863 
L 3481 0 
L 2906 0 
L 2906 525 
Q 2725 213 2448 61 
Q 2172 -91 1784 -91 
Q 1150 -91 751 415 
Q 353 922 353 1747 
Q 353 2572 751 3078 
Q 1150 3584 1784 3584 
Q 2172 3584 2448 3432 
Q 2725 3281 2906 2969 
z
M 947 1747 
Q 947 1113 1208 752 
Q 1469 391 1925 391 
Q 2381 391 2643 752 
Q 2906 1113 2906 1747 
Q 2906 2381 2643 2742 
Q 2381 3103 1925 3103 
Q 1469 3103 1208 2742 
Q 947 2381 947 1747 
z
" transform="scale(0.015625)"/>
    </defs>
    <use xlink:href="#DejaVuSans-42"/>
    <use xlink:href="#DejaVuSans-68" x="68.603516"/>
    <use xlink:href="#DejaVuSans-61" x="131.982422"/>
    <use xlink:href="#DejaVuSans-72" x="193.261719"/>
    <use xlink:href="#DejaVuSans-74" x="234.375"/>
    <use xlink:href="#DejaVuSans-69" x="273.583984"/>
    <use xlink:href="#DejaVuSans-20" x="301.367188"/>
    <use xlink:href="#DejaVuSans-41" x="333.154297"/>
    <use xlink:href="#DejaVuSans-69" x="401.5625"/>
    <use xlink:href="#DejaVuSans-72" x="429.345703"/>
    <use xlink:href="#DejaVuSans-74" x="470.458984"/>
    <use xlink:href="#DejaVuSans-65" x="509.667969"/>
    <use xlink:href="#DejaVuSans-6c" x="571.191406"/>
    <use xlink:href="#DejaVuSans-20" x="598.974609"/>
    <use xlink:href="#DejaVuSans-4c" x="630.761719"/>
    <use xlink:href="#DejaVuSans-69" x="686.474609"/>
    <use xlink:href="#DejaVuSans-6d" x="714.257812"/>
    <use xlink:href="#DejaVuSans-69" x="811.669922"/>
    <use xlink:href="#DejaVuSans-74" x="839.453125"/>
    <use xlink:href="#DejaVuSans-65" x="878.662109"/>
    <use xlink:href="#DejaVuSans-64" x="940.185547"/>
   </g>
  </g>
 </g>
 <defs>
  <clipPath id="pe9d80656dd">
   <rect x="38.904688" y="48.331875" width="943.971418" height="253.385938"/>
  </clipPath>
  <clipPath id="p448d60d13f">
   <rect x="38.904688" y="331.135938" width="943.971418" height="253.385937"/>
  </clipPath>
 </defs>
</svg>
