<?xml version="1.0" encoding="utf-8" standalone="no"?>
<!DOCTYPE svg PUBLIC "-//W3C//DTD SVG 1.1//EN"
  "http://www.w3.org/Graphics/SVG/1.1/DTD/svg11.dtd">
<svg xmlns:xlink="http://www.w3.org/1999/xlink" width="1008pt" height="612pt" viewBox="0 0 1008 612" xmlns="http://www.w3.org/2000/svg" version="1.1">
 <metadata>
  <rdf:RDF xmlns:dc="http://purl.org/dc/elements/1.1/" xmlns:cc="http://creativecommons.org/ns#" xmlns:rdf="http://www.w3.org/1999/02/22-rdf-syntax-ns#">
   <cc:Work>
    <dc:type rdf:resource="http://purl.org/dc/dcmitype/StillImage"/>
    <dc:date>2022-11-20T19:46:49.476179</dc:date>
    <dc:format>image/svg+xml</dc:format>
    <dc:creator>
     <cc:Agent>
      <dc:title>Matplotlib v3.5.2, https://matplotlib.org/</dc:title>
     </cc:Agent>
    </dc:creator>
   </cc:Work>
  </rdf:RDF>
 </metadata>
 <defs>
  <style type="text/css">*{stroke-linejoin: round; stroke-linecap: butt}</style>
 </defs>
 <g id="figure_1">
  <g id="patch_1">
   <path d="M 0 612 
L 1008 612 
L 1008 0 
L 0 0 
z
" style="fill: #ffffff"/>
  </g>
  <g id="axes_1">
   <g id="patch_2">
    <path d="M 43.25 301.717812 
L 982.876106 301.717812 
L 982.876106 48.331875 
L 43.25 48.331875 
z
" style="fill: #ffffff"/>
   </g>
   <g id="matplotlib.axis_1">
    <g id="xtick_1">
     <g id="line2d_1">
      <path d="M 80.604757 301.717812 
L 80.604757 48.331875 
" clip-path="url(#pe8fbed6e58)" style="fill: none; stroke-dasharray: 2.96,1.28; stroke-dashoffset: 0; stroke: #b0b0b0; stroke-width: 0.8"/>
     </g>
     <g id="line2d_2">
      <defs>
       <path id="mba89d597a1" d="M 0 0 
L 0 3.5 
" style="stroke: #000000; stroke-width: 0.8"/>
      </defs>
      <g>
       <use xlink:href="#mba89d597a1" x="80.604757" y="301.717812" style="stroke: #000000; stroke-width: 0.8"/>
      </g>
     </g>
    </g>
    <g id="xtick_2">
     <g id="line2d_3">
      <path d="M 163.615328 301.717812 
L 163.615328 48.331875 
" clip-path="url(#pe8fbed6e58)" style="fill: none; stroke-dasharray: 2.96,1.28; stroke-dashoffset: 0; stroke: #b0b0b0; stroke-width: 0.8"/>
     </g>
     <g id="line2d_4">
      <g>
       <use xlink:href="#mba89d597a1" x="163.615328" y="301.717812" style="stroke: #000000; stroke-width: 0.8"/>
      </g>
     </g>
    </g>
    <g id="xtick_3">
     <g id="line2d_5">
      <path d="M 238.592617 301.717812 
L 238.592617 48.331875 
" clip-path="url(#pe8fbed6e58)" style="fill: none; stroke-dasharray: 2.96,1.28; stroke-dashoffset: 0; stroke: #b0b0b0; stroke-width: 0.8"/>
     </g>
     <g id="line2d_6">
      <g>
       <use xlink:href="#mba89d597a1" x="238.592617" y="301.717812" style="stroke: #000000; stroke-width: 0.8"/>
      </g>
     </g>
    </g>
    <g id="xtick_4">
     <g id="line2d_7">
      <path d="M 321.603188 301.717812 
L 321.603188 48.331875 
" clip-path="url(#pe8fbed6e58)" style="fill: none; stroke-dasharray: 2.96,1.28; stroke-dashoffset: 0; stroke: #b0b0b0; stroke-width: 0.8"/>
     </g>
     <g id="line2d_8">
      <g>
       <use xlink:href="#mba89d597a1" x="321.603188" y="301.717812" style="stroke: #000000; stroke-width: 0.8"/>
      </g>
     </g>
    </g>
    <g id="xtick_5">
     <g id="line2d_9">
      <path d="M 401.935999 301.717812 
L 401.935999 48.331875 
" clip-path="url(#pe8fbed6e58)" style="fill: none; stroke-dasharray: 2.96,1.28; stroke-dashoffset: 0; stroke: #b0b0b0; stroke-width: 0.8"/>
     </g>
     <g id="line2d_10">
      <g>
       <use xlink:href="#mba89d597a1" x="401.935999" y="301.717812" style="stroke: #000000; stroke-width: 0.8"/>
      </g>
     </g>
    </g>
    <g id="xtick_6">
     <g id="line2d_11">
      <path d="M 484.946569 301.717812 
L 484.946569 48.331875 
" clip-path="url(#pe8fbed6e58)" style="fill: none; stroke-dasharray: 2.96,1.28; stroke-dashoffset: 0; stroke: #b0b0b0; stroke-width: 0.8"/>
     </g>
     <g id="line2d_12">
      <g>
       <use xlink:href="#mba89d597a1" x="484.946569" y="301.717812" style="stroke: #000000; stroke-width: 0.8"/>
      </g>
     </g>
    </g>
    <g id="xtick_7">
     <g id="line2d_13">
      <path d="M 565.27938 301.717812 
L 565.27938 48.331875 
" clip-path="url(#pe8fbed6e58)" style="fill: none; stroke-dasharray: 2.96,1.28; stroke-dashoffset: 0; stroke: #b0b0b0; stroke-width: 0.8"/>
     </g>
     <g id="line2d_14">
      <g>
       <use xlink:href="#mba89d597a1" x="565.27938" y="301.717812" style="stroke: #000000; stroke-width: 0.8"/>
      </g>
     </g>
    </g>
    <g id="xtick_8">
     <g id="line2d_15">
      <path d="M 648.28995 301.717812 
L 648.28995 48.331875 
" clip-path="url(#pe8fbed6e58)" style="fill: none; stroke-dasharray: 2.96,1.28; stroke-dashoffset: 0; stroke: #b0b0b0; stroke-width: 0.8"/>
     </g>
     <g id="line2d_16">
      <g>
       <use xlink:href="#mba89d597a1" x="648.28995" y="301.717812" style="stroke: #000000; stroke-width: 0.8"/>
      </g>
     </g>
    </g>
    <g id="xtick_9">
     <g id="line2d_17">
      <path d="M 731.300521 301.717812 
L 731.300521 48.331875 
" clip-path="url(#pe8fbed6e58)" style="fill: none; stroke-dasharray: 2.96,1.28; stroke-dashoffset: 0; stroke: #b0b0b0; stroke-width: 0.8"/>
     </g>
     <g id="line2d_18">
      <g>
       <use xlink:href="#mba89d597a1" x="731.300521" y="301.717812" style="stroke: #000000; stroke-width: 0.8"/>
      </g>
     </g>
    </g>
    <g id="xtick_10">
     <g id="line2d_19">
      <path d="M 811.633332 301.717812 
L 811.633332 48.331875 
" clip-path="url(#pe8fbed6e58)" style="fill: none; stroke-dasharray: 2.96,1.28; stroke-dashoffset: 0; stroke: #b0b0b0; stroke-width: 0.8"/>
     </g>
     <g id="line2d_20">
      <g>
       <use xlink:href="#mba89d597a1" x="811.633332" y="301.717812" style="stroke: #000000; stroke-width: 0.8"/>
      </g>
     </g>
    </g>
    <g id="xtick_11">
     <g id="line2d_21">
      <path d="M 894.643902 301.717812 
L 894.643902 48.331875 
" clip-path="url(#pe8fbed6e58)" style="fill: none; stroke-dasharray: 2.96,1.28; stroke-dashoffset: 0; stroke: #b0b0b0; stroke-width: 0.8"/>
     </g>
     <g id="line2d_22">
      <g>
       <use xlink:href="#mba89d597a1" x="894.643902" y="301.717812" style="stroke: #000000; stroke-width: 0.8"/>
      </g>
     </g>
    </g>
    <g id="xtick_12">
     <g id="line2d_23">
      <path d="M 974.976713 301.717812 
L 974.976713 48.331875 
" clip-path="url(#pe8fbed6e58)" style="fill: none; stroke-dasharray: 2.96,1.28; stroke-dashoffset: 0; stroke: #b0b0b0; stroke-width: 0.8"/>
     </g>
     <g id="line2d_24">
      <g>
       <use xlink:href="#mba89d597a1" x="974.976713" y="301.717812" style="stroke: #000000; stroke-width: 0.8"/>
      </g>
     </g>
    </g>
   </g>
   <g id="matplotlib.axis_2">
    <g id="ytick_1">
     <g id="line2d_25">
      <path d="M 43.25 284.823399 
L 982.876106 284.823399 
" clip-path="url(#pe8fbed6e58)" style="fill: none; stroke-dasharray: 2.96,1.28; stroke-dashoffset: 0; stroke: #b0b0b0; stroke-width: 0.8"/>
     </g>
     <g id="line2d_26">
      <defs>
       <path id="m07786d50a4" d="M 0 0 
L -3.5 0 
" style="stroke: #000000; stroke-width: 0.8"/>
      </defs>
      <g>
       <use xlink:href="#m07786d50a4" x="43.25" y="284.823399" style="stroke: #000000; stroke-width: 0.8"/>
      </g>
     </g>
     <g id="text_1">
      <!-- 1650 -->
      <g transform="translate(10.8 288.622618)scale(0.1 -0.1)">
       <defs>
        <path id="DejaVuSans-31" d="M 794 531 
L 1825 531 
L 1825 4091 
L 703 3866 
L 703 4441 
L 1819 4666 
L 2450 4666 
L 2450 531 
L 3481 531 
L 3481 0 
L 794 0 
L 794 531 
z
" transform="scale(0.015625)"/>
        <path id="DejaVuSans-36" d="M 2113 2584 
Q 1688 2584 1439 2293 
Q 1191 2003 1191 1497 
Q 1191 994 1439 701 
Q 1688 409 2113 409 
Q 2538 409 2786 701 
Q 3034 994 3034 1497 
Q 3034 2003 2786 2293 
Q 2538 2584 2113 2584 
z
M 3366 4563 
L 3366 3988 
Q 3128 4100 2886 4159 
Q 2644 4219 2406 4219 
Q 1781 4219 1451 3797 
Q 1122 3375 1075 2522 
Q 1259 2794 1537 2939 
Q 1816 3084 2150 3084 
Q 2853 3084 3261 2657 
Q 3669 2231 3669 1497 
Q 3669 778 3244 343 
Q 2819 -91 2113 -91 
Q 1303 -91 875 529 
Q 447 1150 447 2328 
Q 447 3434 972 4092 
Q 1497 4750 2381 4750 
Q 2619 4750 2861 4703 
Q 3103 4656 3366 4563 
z
" transform="scale(0.015625)"/>
        <path id="DejaVuSans-35" d="M 691 4666 
L 3169 4666 
L 3169 4134 
L 1269 4134 
L 1269 2991 
Q 1406 3038 1543 3061 
Q 1681 3084 1819 3084 
Q 2600 3084 3056 2656 
Q 3513 2228 3513 1497 
Q 3513 744 3044 326 
Q 2575 -91 1722 -91 
Q 1428 -91 1123 -41 
Q 819 9 494 109 
L 494 744 
Q 775 591 1075 516 
Q 1375 441 1709 441 
Q 2250 441 2565 725 
Q 2881 1009 2881 1497 
Q 2881 1984 2565 2268 
Q 2250 2553 1709 2553 
Q 1456 2553 1204 2497 
Q 953 2441 691 2322 
L 691 4666 
z
" transform="scale(0.015625)"/>
        <path id="DejaVuSans-30" d="M 2034 4250 
Q 1547 4250 1301 3770 
Q 1056 3291 1056 2328 
Q 1056 1369 1301 889 
Q 1547 409 2034 409 
Q 2525 409 2770 889 
Q 3016 1369 3016 2328 
Q 3016 3291 2770 3770 
Q 2525 4250 2034 4250 
z
M 2034 4750 
Q 2819 4750 3233 4129 
Q 3647 3509 3647 2328 
Q 3647 1150 3233 529 
Q 2819 -91 2034 -91 
Q 1250 -91 836 529 
Q 422 1150 422 2328 
Q 422 3509 836 4129 
Q 1250 4750 2034 4750 
z
" transform="scale(0.015625)"/>
       </defs>
       <use xlink:href="#DejaVuSans-31"/>
       <use xlink:href="#DejaVuSans-36" x="63.623047"/>
       <use xlink:href="#DejaVuSans-35" x="127.246094"/>
       <use xlink:href="#DejaVuSans-30" x="190.869141"/>
      </g>
     </g>
    </g>
    <g id="ytick_2">
     <g id="line2d_27">
      <path d="M 43.25 249.214981 
L 982.876106 249.214981 
" clip-path="url(#pe8fbed6e58)" style="fill: none; stroke-dasharray: 2.96,1.28; stroke-dashoffset: 0; stroke: #b0b0b0; stroke-width: 0.8"/>
     </g>
     <g id="line2d_28">
      <g>
       <use xlink:href="#m07786d50a4" x="43.25" y="249.214981" style="stroke: #000000; stroke-width: 0.8"/>
      </g>
     </g>
     <g id="text_2">
      <!-- 1700 -->
      <g transform="translate(10.8 253.0142)scale(0.1 -0.1)">
       <defs>
        <path id="DejaVuSans-37" d="M 525 4666 
L 3525 4666 
L 3525 4397 
L 1831 0 
L 1172 0 
L 2766 4134 
L 525 4134 
L 525 4666 
z
" transform="scale(0.015625)"/>
       </defs>
       <use xlink:href="#DejaVuSans-31"/>
       <use xlink:href="#DejaVuSans-37" x="63.623047"/>
       <use xlink:href="#DejaVuSans-30" x="127.246094"/>
       <use xlink:href="#DejaVuSans-30" x="190.869141"/>
      </g>
     </g>
    </g>
    <g id="ytick_3">
     <g id="line2d_29">
      <path d="M 43.25 213.606564 
L 982.876106 213.606564 
" clip-path="url(#pe8fbed6e58)" style="fill: none; stroke-dasharray: 2.96,1.28; stroke-dashoffset: 0; stroke: #b0b0b0; stroke-width: 0.8"/>
     </g>
     <g id="line2d_30">
      <g>
       <use xlink:href="#m07786d50a4" x="43.25" y="213.606564" style="stroke: #000000; stroke-width: 0.8"/>
      </g>
     </g>
     <g id="text_3">
      <!-- 1750 -->
      <g transform="translate(10.8 217.405783)scale(0.1 -0.1)">
       <use xlink:href="#DejaVuSans-31"/>
       <use xlink:href="#DejaVuSans-37" x="63.623047"/>
       <use xlink:href="#DejaVuSans-35" x="127.246094"/>
       <use xlink:href="#DejaVuSans-30" x="190.869141"/>
      </g>
     </g>
    </g>
    <g id="ytick_4">
     <g id="line2d_31">
      <path d="M 43.25 177.998147 
L 982.876106 177.998147 
" clip-path="url(#pe8fbed6e58)" style="fill: none; stroke-dasharray: 2.96,1.28; stroke-dashoffset: 0; stroke: #b0b0b0; stroke-width: 0.8"/>
     </g>
     <g id="line2d_32">
      <g>
       <use xlink:href="#m07786d50a4" x="43.25" y="177.998147" style="stroke: #000000; stroke-width: 0.8"/>
      </g>
     </g>
     <g id="text_4">
      <!-- 1800 -->
      <g transform="translate(10.8 181.797365)scale(0.1 -0.1)">
       <defs>
        <path id="DejaVuSans-38" d="M 2034 2216 
Q 1584 2216 1326 1975 
Q 1069 1734 1069 1313 
Q 1069 891 1326 650 
Q 1584 409 2034 409 
Q 2484 409 2743 651 
Q 3003 894 3003 1313 
Q 3003 1734 2745 1975 
Q 2488 2216 2034 2216 
z
M 1403 2484 
Q 997 2584 770 2862 
Q 544 3141 544 3541 
Q 544 4100 942 4425 
Q 1341 4750 2034 4750 
Q 2731 4750 3128 4425 
Q 3525 4100 3525 3541 
Q 3525 3141 3298 2862 
Q 3072 2584 2669 2484 
Q 3125 2378 3379 2068 
Q 3634 1759 3634 1313 
Q 3634 634 3220 271 
Q 2806 -91 2034 -91 
Q 1263 -91 848 271 
Q 434 634 434 1313 
Q 434 1759 690 2068 
Q 947 2378 1403 2484 
z
M 1172 3481 
Q 1172 3119 1398 2916 
Q 1625 2713 2034 2713 
Q 2441 2713 2670 2916 
Q 2900 3119 2900 3481 
Q 2900 3844 2670 4047 
Q 2441 4250 2034 4250 
Q 1625 4250 1398 4047 
Q 1172 3844 1172 3481 
z
" transform="scale(0.015625)"/>
       </defs>
       <use xlink:href="#DejaVuSans-31"/>
       <use xlink:href="#DejaVuSans-38" x="63.623047"/>
       <use xlink:href="#DejaVuSans-30" x="127.246094"/>
       <use xlink:href="#DejaVuSans-30" x="190.869141"/>
      </g>
     </g>
    </g>
    <g id="ytick_5">
     <g id="line2d_33">
      <path d="M 43.25 142.389729 
L 982.876106 142.389729 
" clip-path="url(#pe8fbed6e58)" style="fill: none; stroke-dasharray: 2.96,1.28; stroke-dashoffset: 0; stroke: #b0b0b0; stroke-width: 0.8"/>
     </g>
     <g id="line2d_34">
      <g>
       <use xlink:href="#m07786d50a4" x="43.25" y="142.389729" style="stroke: #000000; stroke-width: 0.8"/>
      </g>
     </g>
     <g id="text_5">
      <!-- 1850 -->
      <g transform="translate(10.8 146.188948)scale(0.1 -0.1)">
       <use xlink:href="#DejaVuSans-31"/>
       <use xlink:href="#DejaVuSans-38" x="63.623047"/>
       <use xlink:href="#DejaVuSans-35" x="127.246094"/>
       <use xlink:href="#DejaVuSans-30" x="190.869141"/>
      </g>
     </g>
    </g>
    <g id="ytick_6">
     <g id="line2d_35">
      <path d="M 43.25 106.781312 
L 982.876106 106.781312 
" clip-path="url(#pe8fbed6e58)" style="fill: none; stroke-dasharray: 2.96,1.28; stroke-dashoffset: 0; stroke: #b0b0b0; stroke-width: 0.8"/>
     </g>
     <g id="line2d_36">
      <g>
       <use xlink:href="#m07786d50a4" x="43.25" y="106.781312" style="stroke: #000000; stroke-width: 0.8"/>
      </g>
     </g>
     <g id="text_6">
      <!-- 1900 -->
      <g transform="translate(10.8 110.580531)scale(0.1 -0.1)">
       <defs>
        <path id="DejaVuSans-39" d="M 703 97 
L 703 672 
Q 941 559 1184 500 
Q 1428 441 1663 441 
Q 2288 441 2617 861 
Q 2947 1281 2994 2138 
Q 2813 1869 2534 1725 
Q 2256 1581 1919 1581 
Q 1219 1581 811 2004 
Q 403 2428 403 3163 
Q 403 3881 828 4315 
Q 1253 4750 1959 4750 
Q 2769 4750 3195 4129 
Q 3622 3509 3622 2328 
Q 3622 1225 3098 567 
Q 2575 -91 1691 -91 
Q 1453 -91 1209 -44 
Q 966 3 703 97 
z
M 1959 2075 
Q 2384 2075 2632 2365 
Q 2881 2656 2881 3163 
Q 2881 3666 2632 3958 
Q 2384 4250 1959 4250 
Q 1534 4250 1286 3958 
Q 1038 3666 1038 3163 
Q 1038 2656 1286 2365 
Q 1534 2075 1959 2075 
z
" transform="scale(0.015625)"/>
       </defs>
       <use xlink:href="#DejaVuSans-31"/>
       <use xlink:href="#DejaVuSans-39" x="63.623047"/>
       <use xlink:href="#DejaVuSans-30" x="127.246094"/>
       <use xlink:href="#DejaVuSans-30" x="190.869141"/>
      </g>
     </g>
    </g>
    <g id="ytick_7">
     <g id="line2d_37">
      <path d="M 43.25 71.172894 
L 982.876106 71.172894 
" clip-path="url(#pe8fbed6e58)" style="fill: none; stroke-dasharray: 2.96,1.28; stroke-dashoffset: 0; stroke: #b0b0b0; stroke-width: 0.8"/>
     </g>
     <g id="line2d_38">
      <g>
       <use xlink:href="#m07786d50a4" x="43.25" y="71.172894" style="stroke: #000000; stroke-width: 0.8"/>
      </g>
     </g>
     <g id="text_7">
      <!-- 1950 -->
      <g transform="translate(10.8 74.972113)scale(0.1 -0.1)">
       <use xlink:href="#DejaVuSans-31"/>
       <use xlink:href="#DejaVuSans-39" x="63.623047"/>
       <use xlink:href="#DejaVuSans-35" x="127.246094"/>
       <use xlink:href="#DejaVuSans-30" x="190.869141"/>
      </g>
     </g>
    </g>
   </g>
   <g id="line2d_39">
    <path d="M 85.960278 160.58563 
L 88.638038 140.538091 
L 91.315798 91.006783 
L 93.993559 112.549875 
L 96.671319 103.754596 
L 104.7046 72.632839 
L 107.38236 80.573517 
L 110.060121 66.472583 
L 112.737881 88.015676 
L 115.415641 79.576481 
L 123.448922 80.110607 
L 126.126683 76.763416 
L 128.804443 102.757561 
L 131.482203 112.051358 
L 134.159964 111.232364 
L 142.193245 155.992145 
L 144.871005 139.078146 
L 150.226526 114.437122 
L 152.904286 107.991998 
L 160.937567 137.226509 
L 163.615328 119.386692 
L 166.293088 76.44294 
L 168.970848 100.336188 
L 171.648609 118.033572 
L 179.68189 157.736957 
L 182.35965 165.32155 
L 185.03741 153.072254 
L 187.715171 130.140434 
L 190.392931 157.879391 
L 198.426212 215.849894 
L 201.103972 168.668741 
L 203.781733 156.597488 
L 206.459493 165.677634 
L 209.137254 159.090077 
L 217.170535 158.698384 
L 219.848295 148.265118 
L 222.526055 116.680452 
L 225.203816 181.665814 
L 227.881576 137.618201 
L 235.914857 147.55295 
L 241.270378 173.725137 
L 243.948138 183.517451 
L 246.625898 212.075402 
L 254.659179 240.740178 
L 257.33694 232.763893 
L 260.0147 221.369199 
L 262.69246 210.508632 
L 273.403502 186.010041 
L 276.081262 225.1793 
L 278.759023 206.128796 
L 281.436783 163.75478 
L 292.147824 194.306802 
L 294.825585 172.407625 
L 297.503345 199.541239 
L 300.181105 239.137799 
L 302.858866 233.369236 
L 310.892147 231.268339 
L 313.569907 227.849931 
L 316.247667 204.277159 
L 318.925428 210.864716 
L 321.603188 194.627278 
L 329.636469 152.324478 
L 332.314229 176.431376 
L 334.99199 192.668815 
L 337.66975 201.891395 
L 340.347511 189.036756 
L 348.380792 189.784533 
L 351.058552 176.680635 
L 353.736312 192.526381 
L 367.125114 213.321697 
L 369.802874 243.873719 
L 372.480635 234.045796 
L 375.158395 205.879537 
L 377.836155 229.45231 
L 385.869436 228.668925 
L 388.547197 218.805393 
L 391.224957 219.659995 
L 396.580478 184.585704 
L 404.613759 196.265265 
L 409.96928 195.375054 
L 412.64704 179.707351 
L 415.3248 195.588705 
L 423.358081 201.143618 
L 426.035842 180.027826 
L 428.713602 170.912072 
L 431.391362 205.843929 
L 434.069123 192.561989 
L 442.102404 168.846783 
L 444.780164 149.297762 
L 447.457924 144.668668 
L 450.135685 189.820141 
L 452.813445 157.238439 
L 460.846726 139.327405 
L 463.524487 119.173041 
L 466.202247 101.404441 
L 468.880007 100.621056 
L 471.557768 73.879134 
L 479.591049 104.502373 
L 482.268809 144.633059 
L 484.946569 131.635987 
L 487.62433 136.941641 
L 490.30209 136.229473 
L 498.335371 128.64488 
L 501.013131 136.585557 
L 503.690892 145.594487 
L 506.368652 131.56477 
L 509.046412 183.837927 
L 517.079693 222.615494 
L 519.757454 220.941898 
L 522.435214 223.114011 
L 525.112974 266.449455 
L 527.790735 268.016226 
L 535.824016 264.028083 
L 538.501776 262.390096 
L 541.179537 270.793682 
L 546.535057 250.354451 
L 554.568338 255.232804 
L 557.246099 271.434634 
L 559.923859 290.20027 
L 562.601619 276.91833 
L 565.27938 272.182411 
L 573.312661 269.93908 
L 575.990421 275.529602 
L 578.668181 246.010224 
L 581.345942 221.7965 
L 584.023702 217.345448 
L 592.056983 219.838037 
L 594.734744 235.719391 
L 597.412504 219.268302 
L 600.090264 199.327589 
L 602.768025 186.757817 
L 610.801306 145.487662 
L 613.479066 153.107863 
L 616.156826 158.235475 
L 618.834587 177.606454 
L 621.512347 158.698384 
L 629.545628 181.167296 
L 632.223388 205.345411 
L 634.901149 210.686674 
L 637.578909 157.701349 
L 640.256669 170.627204 
L 648.28995 138.294761 
L 650.967711 117.748704 
L 653.645471 141.606344 
L 656.323232 152.680562 
L 659.000992 153.85564 
L 667.034273 146.306655 
L 672.389794 157.808174 
L 675.067554 139.89714 
L 677.745314 148.656811 
L 688.456356 144.989144 
L 691.134116 149.725063 
L 693.811876 103.576554 
L 696.489637 123.161184 
L 704.522918 155.173151 
L 707.200678 138.294761 
L 709.878438 129.855566 
L 712.556199 129.036573 
L 715.233959 105.321367 
L 723.26724 142.389729 
L 725.945001 95.778311 
L 731.300521 104.751632 
L 733.978282 93.356938 
L 742.011563 79.790131 
L 744.689323 95.600269 
L 747.367083 100.905923 
L 750.044844 85.380653 
L 752.722604 88.015676 
L 760.755885 89.689271 
L 763.433645 90.116572 
L 766.111406 67.825703 
L 768.789166 82.460763 
L 771.466926 85.202611 
L 779.500207 85.772345 
L 782.177968 78.47262 
L 784.855728 93.606197 
L 787.533489 111.944532 
L 790.211249 133.345191 
L 798.24453 157.345265 
L 800.92229 178.496664 
L 803.600051 183.268192 
L 806.277811 202.710388 
L 808.955571 164.324514 
L 816.988852 189.464057 
L 819.666613 162.152401 
L 825.022133 164.538165 
L 827.699894 159.909071 
L 835.733175 172.122758 
L 838.410935 186.615384 
L 841.088695 170.734029 
L 843.766456 176.929894 
L 846.444216 153.784423 
L 854.477497 136.585557 
L 857.155258 135.481696 
L 859.833018 128.609272 
L 862.510778 132.739848 
L 865.188539 104.894066 
L 873.22182 109.772419 
L 875.89958 144.811102 
L 881.255101 131.707204 
L 883.932861 117.997963 
L 891.966142 105.392583 
L 894.643902 100.229363 
L 897.321663 99.695237 
L 899.999423 106.674487 
L 902.677183 106.81692 
L 910.710465 119.173041 
L 916.065985 111.481623 
L 918.743746 98.128466 
L 921.421506 107.422263 
L 929.454787 90.543873 
L 932.132547 97.950424 
L 934.810308 59.849418 
L 937.488068 70.781202 
L 940.165828 64.371687 
L 940.165828 64.371687 
" clip-path="url(#pe8fbed6e58)" style="fill: none; stroke: #1f77b4; stroke-width: 1.5; stroke-linecap: square"/>
   </g>
   <g id="line2d_40">
    <path d="M 96.671319 121.686995 
L 104.7046 104.096437 
L 107.38236 92.103522 
L 115.415641 77.454219 
L 123.448922 78.949773 
L 126.126683 78.187753 
L 128.804443 85.444748 
L 131.482203 90.251884 
L 134.159964 96.583061 
L 142.193245 111.759369 
L 144.871005 124.222315 
L 150.226526 126.558227 
L 152.904286 125.746355 
L 160.937567 130.945184 
L 163.615328 123.624093 
L 166.293088 111.097052 
L 168.970848 108.276865 
L 171.648609 110.28518 
L 179.68189 114.38727 
L 182.35965 123.574241 
L 185.03741 138.900104 
L 187.715171 144.860953 
L 190.392931 152.830117 
L 198.426212 164.452705 
L 203.781733 165.82719 
L 206.459493 172.93463 
L 209.137254 173.176767 
L 217.170535 161.746465 
L 219.848295 157.66574 
L 222.526055 149.682333 
L 225.203816 152.879969 
L 227.881576 148.585594 
L 235.914857 146.356507 
L 241.270378 151.448511 
L 243.948138 164.81591 
L 246.625898 170.897828 
L 254.659179 191.522224 
L 257.33694 208.564412 
L 260.0147 218.093225 
L 262.69246 223.491461 
L 265.370221 221.946055 
L 273.403502 211.000028 
L 276.081262 209.483109 
L 278.759023 206.435029 
L 281.436783 197.084258 
L 292.147824 195.075944 
L 294.825585 192.355461 
L 297.503345 187.227848 
L 300.181105 193.829649 
L 302.858866 207.75254 
L 310.892147 215.144848 
L 313.569907 226.233309 
L 316.247667 227.180493 
L 318.925428 221.525876 
L 321.603188 213.777484 
L 329.636469 197.988712 
L 332.314229 187.705001 
L 334.99199 185.383332 
L 337.66975 183.588668 
L 340.347511 182.470564 
L 348.380792 189.962575 
L 353.736312 189.98394 
L 367.125114 192.27 
L 369.802874 203.237393 
L 372.480635 212.089645 
L 375.158395 217.929426 
L 377.836155 225.314612 
L 385.869436 228.384057 
L 388.547197 223.370392 
L 391.224957 220.493232 
L 393.902717 219.80955 
L 396.580478 210.836229 
L 404.613759 204.355497 
L 409.96928 199.669429 
L 412.64704 191.678901 
L 415.3248 190.304416 
L 423.358081 193.615998 
L 426.035842 190.368511 
L 428.713602 185.475914 
L 431.391362 190.70323 
L 434.069123 190.097887 
L 442.102404 183.63852 
L 444.780164 177.492507 
L 447.457924 172.243826 
L 450.135685 169.039069 
L 452.813445 161.974359 
L 460.846726 156.070483 
L 463.524487 150.045539 
L 466.202247 141.392693 
L 468.880007 123.552876 
L 471.557768 106.881015 
L 479.591049 99.916009 
L 482.268809 105.008013 
L 484.946569 111.054322 
L 487.62433 118.318439 
L 490.30209 130.788507 
L 498.335371 135.617008 
L 501.013131 134.007508 
L 503.690892 136.799208 
L 506.368652 135.723833 
L 509.046412 145.245524 
L 517.079693 164.039647 
L 519.757454 180.910915 
L 522.435214 196.41482 
L 525.112974 223.391757 
L 527.790735 240.227417 
L 535.824016 248.509935 
L 538.501776 256.799574 
L 541.179537 266.335509 
L 543.857297 265.153309 
L 546.535057 261.620954 
L 554.568338 259.861898 
L 557.246099 261.670806 
L 559.923859 265.552123 
L 562.601619 268.828098 
L 565.27938 273.19369 
L 573.312661 276.134945 
L 575.990421 276.953939 
L 578.668181 268.115929 
L 584.023702 246.124171 
L 592.056983 236.103962 
L 594.734744 228.14192 
L 597.412504 222.793536 
L 600.090264 218.299753 
L 602.768025 212.182227 
L 610.801306 197.312152 
L 613.479066 180.789847 
L 616.156826 168.583281 
L 618.834587 164.239054 
L 621.512347 158.627168 
L 629.545628 165.763094 
L 634.901149 186.700844 
L 637.578909 182.719823 
L 640.256669 185.105587 
L 648.28995 176.53108 
L 650.967711 159.011738 
L 653.645471 145.195672 
L 656.323232 144.191515 
L 659.000992 140.837202 
L 667.034273 142.439581 
L 672.389794 150.451475 
L 675.067554 150.109634 
L 677.745314 149.304884 
L 688.456356 147.531585 
L 691.134116 148.215266 
L 693.811876 137.368942 
L 696.489637 134.021751 
L 704.522918 135.325019 
L 707.200678 133.986143 
L 709.878438 130.012243 
L 712.556199 135.104247 
L 715.233959 131.536284 
L 723.26724 128.979599 
L 725.945001 120.476309 
L 731.300521 115.455522 
L 733.978282 108.319595 
L 742.011563 103.213348 
L 744.689323 93.855456 
L 747.367083 94.880979 
L 750.044844 91.006783 
L 752.722604 89.93853 
L 760.755885 91.918358 
L 763.433645 90.821619 
L 766.111406 84.205575 
L 771.466926 83.058984 
L 779.500207 82.275599 
L 782.177968 79.946808 
L 784.855728 85.102907 
L 787.533489 90.999661 
L 790.211249 100.628177 
L 798.24453 114.942761 
L 800.92229 134.94757 
L 806.277811 171.03314 
L 808.955571 177.229005 
L 816.988852 183.652763 
L 819.666613 180.383911 
L 825.022133 176.637905 
L 827.699894 168.077642 
L 835.733175 169.63729 
L 838.410935 169.067556 
L 841.088695 170.783881 
L 843.766456 173.262227 
L 846.444216 172.037298 
L 854.477497 164.929857 
L 857.155258 154.70312 
L 859.833018 146.278168 
L 862.510778 137.440159 
L 865.188539 127.662088 
L 873.22182 122.29946 
L 875.89958 124.165341 
L 881.255101 124.784928 
L 883.932861 121.836551 
L 891.966142 121.936254 
L 894.643902 120.027643 
L 897.321663 111.00447 
L 899.999423 105.997927 
L 902.677183 103.761718 
L 910.710465 106.517809 
L 916.065985 108.768261 
L 918.743746 108.454907 
L 921.421506 108.604463 
L 929.454787 105.349853 
L 932.132547 101.10533 
L 934.810308 90.778889 
L 937.488068 85.309436 
L 940.165828 76.699321 
L 940.165828 76.699321 
" clip-path="url(#pe8fbed6e58)" style="fill: none; stroke: #ff7f0e; stroke-width: 1.5; stroke-linecap: square"/>
   </g>
   <g id="patch_3">
    <path d="M 43.25 301.717813 
L 43.25 48.331875 
" style="fill: none; stroke: #000000; stroke-width: 0.8; stroke-linejoin: miter; stroke-linecap: square"/>
   </g>
   <g id="patch_4">
    <path d="M 982.876106 301.717813 
L 982.876106 48.331875 
" style="fill: none; stroke: #000000; stroke-width: 0.8; stroke-linejoin: miter; stroke-linecap: square"/>
   </g>
   <g id="patch_5">
    <path d="M 43.25 301.717812 
L 982.876106 301.717812 
" style="fill: none; stroke: #000000; stroke-width: 0.8; stroke-linejoin: miter; stroke-linecap: square"/>
   </g>
   <g id="patch_6">
    <path d="M 43.25 48.331875 
L 982.876106 48.331875 
" style="fill: none; stroke: #000000; stroke-width: 0.8; stroke-linejoin: miter; stroke-linecap: square"/>
   </g>
   <g id="text_8">
    <!-- Closing Price -->
    <g transform="translate(474.587115 42.331875)scale(0.12 -0.12)">
     <defs>
      <path id="DejaVuSans-43" d="M 4122 4306 
L 4122 3641 
Q 3803 3938 3442 4084 
Q 3081 4231 2675 4231 
Q 1875 4231 1450 3742 
Q 1025 3253 1025 2328 
Q 1025 1406 1450 917 
Q 1875 428 2675 428 
Q 3081 428 3442 575 
Q 3803 722 4122 1019 
L 4122 359 
Q 3791 134 3420 21 
Q 3050 -91 2638 -91 
Q 1578 -91 968 557 
Q 359 1206 359 2328 
Q 359 3453 968 4101 
Q 1578 4750 2638 4750 
Q 3056 4750 3426 4639 
Q 3797 4528 4122 4306 
z
" transform="scale(0.015625)"/>
      <path id="DejaVuSans-6c" d="M 603 4863 
L 1178 4863 
L 1178 0 
L 603 0 
L 603 4863 
z
" transform="scale(0.015625)"/>
      <path id="DejaVuSans-6f" d="M 1959 3097 
Q 1497 3097 1228 2736 
Q 959 2375 959 1747 
Q 959 1119 1226 758 
Q 1494 397 1959 397 
Q 2419 397 2687 759 
Q 2956 1122 2956 1747 
Q 2956 2369 2687 2733 
Q 2419 3097 1959 3097 
z
M 1959 3584 
Q 2709 3584 3137 3096 
Q 3566 2609 3566 1747 
Q 3566 888 3137 398 
Q 2709 -91 1959 -91 
Q 1206 -91 779 398 
Q 353 888 353 1747 
Q 353 2609 779 3096 
Q 1206 3584 1959 3584 
z
" transform="scale(0.015625)"/>
      <path id="DejaVuSans-73" d="M 2834 3397 
L 2834 2853 
Q 2591 2978 2328 3040 
Q 2066 3103 1784 3103 
Q 1356 3103 1142 2972 
Q 928 2841 928 2578 
Q 928 2378 1081 2264 
Q 1234 2150 1697 2047 
L 1894 2003 
Q 2506 1872 2764 1633 
Q 3022 1394 3022 966 
Q 3022 478 2636 193 
Q 2250 -91 1575 -91 
Q 1294 -91 989 -36 
Q 684 19 347 128 
L 347 722 
Q 666 556 975 473 
Q 1284 391 1588 391 
Q 1994 391 2212 530 
Q 2431 669 2431 922 
Q 2431 1156 2273 1281 
Q 2116 1406 1581 1522 
L 1381 1569 
Q 847 1681 609 1914 
Q 372 2147 372 2553 
Q 372 3047 722 3315 
Q 1072 3584 1716 3584 
Q 2034 3584 2315 3537 
Q 2597 3491 2834 3397 
z
" transform="scale(0.015625)"/>
      <path id="DejaVuSans-69" d="M 603 3500 
L 1178 3500 
L 1178 0 
L 603 0 
L 603 3500 
z
M 603 4863 
L 1178 4863 
L 1178 4134 
L 603 4134 
L 603 4863 
z
" transform="scale(0.015625)"/>
      <path id="DejaVuSans-6e" d="M 3513 2113 
L 3513 0 
L 2938 0 
L 2938 2094 
Q 2938 2591 2744 2837 
Q 2550 3084 2163 3084 
Q 1697 3084 1428 2787 
Q 1159 2491 1159 1978 
L 1159 0 
L 581 0 
L 581 3500 
L 1159 3500 
L 1159 2956 
Q 1366 3272 1645 3428 
Q 1925 3584 2291 3584 
Q 2894 3584 3203 3211 
Q 3513 2838 3513 2113 
z
" transform="scale(0.015625)"/>
      <path id="DejaVuSans-67" d="M 2906 1791 
Q 2906 2416 2648 2759 
Q 2391 3103 1925 3103 
Q 1463 3103 1205 2759 
Q 947 2416 947 1791 
Q 947 1169 1205 825 
Q 1463 481 1925 481 
Q 2391 481 2648 825 
Q 2906 1169 2906 1791 
z
M 3481 434 
Q 3481 -459 3084 -895 
Q 2688 -1331 1869 -1331 
Q 1566 -1331 1297 -1286 
Q 1028 -1241 775 -1147 
L 775 -588 
Q 1028 -725 1275 -790 
Q 1522 -856 1778 -856 
Q 2344 -856 2625 -561 
Q 2906 -266 2906 331 
L 2906 616 
Q 2728 306 2450 153 
Q 2172 0 1784 0 
Q 1141 0 747 490 
Q 353 981 353 1791 
Q 353 2603 747 3093 
Q 1141 3584 1784 3584 
Q 2172 3584 2450 3431 
Q 2728 3278 2906 2969 
L 2906 3500 
L 3481 3500 
L 3481 434 
z
" transform="scale(0.015625)"/>
      <path id="DejaVuSans-20" transform="scale(0.015625)"/>
      <path id="DejaVuSans-50" d="M 1259 4147 
L 1259 2394 
L 2053 2394 
Q 2494 2394 2734 2622 
Q 2975 2850 2975 3272 
Q 2975 3691 2734 3919 
Q 2494 4147 2053 4147 
L 1259 4147 
z
M 628 4666 
L 2053 4666 
Q 2838 4666 3239 4311 
Q 3641 3956 3641 3272 
Q 3641 2581 3239 2228 
Q 2838 1875 2053 1875 
L 1259 1875 
L 1259 0 
L 628 0 
L 628 4666 
z
" transform="scale(0.015625)"/>
      <path id="DejaVuSans-72" d="M 2631 2963 
Q 2534 3019 2420 3045 
Q 2306 3072 2169 3072 
Q 1681 3072 1420 2755 
Q 1159 2438 1159 1844 
L 1159 0 
L 581 0 
L 581 3500 
L 1159 3500 
L 1159 2956 
Q 1341 3275 1631 3429 
Q 1922 3584 2338 3584 
Q 2397 3584 2469 3576 
Q 2541 3569 2628 3553 
L 2631 2963 
z
" transform="scale(0.015625)"/>
      <path id="DejaVuSans-63" d="M 3122 3366 
L 3122 2828 
Q 2878 2963 2633 3030 
Q 2388 3097 2138 3097 
Q 1578 3097 1268 2742 
Q 959 2388 959 1747 
Q 959 1106 1268 751 
Q 1578 397 2138 397 
Q 2388 397 2633 464 
Q 2878 531 3122 666 
L 3122 134 
Q 2881 22 2623 -34 
Q 2366 -91 2075 -91 
Q 1284 -91 818 406 
Q 353 903 353 1747 
Q 353 2603 823 3093 
Q 1294 3584 2113 3584 
Q 2378 3584 2631 3529 
Q 2884 3475 3122 3366 
z
" transform="scale(0.015625)"/>
      <path id="DejaVuSans-65" d="M 3597 1894 
L 3597 1613 
L 953 1613 
Q 991 1019 1311 708 
Q 1631 397 2203 397 
Q 2534 397 2845 478 
Q 3156 559 3463 722 
L 3463 178 
Q 3153 47 2828 -22 
Q 2503 -91 2169 -91 
Q 1331 -91 842 396 
Q 353 884 353 1716 
Q 353 2575 817 3079 
Q 1281 3584 2069 3584 
Q 2775 3584 3186 3129 
Q 3597 2675 3597 1894 
z
M 3022 2063 
Q 3016 2534 2758 2815 
Q 2500 3097 2075 3097 
Q 1594 3097 1305 2825 
Q 1016 2553 972 2059 
L 3022 2063 
z
" transform="scale(0.015625)"/>
     </defs>
     <use xlink:href="#DejaVuSans-43"/>
     <use xlink:href="#DejaVuSans-6c" x="69.824219"/>
     <use xlink:href="#DejaVuSans-6f" x="97.607422"/>
     <use xlink:href="#DejaVuSans-73" x="158.789062"/>
     <use xlink:href="#DejaVuSans-69" x="210.888672"/>
     <use xlink:href="#DejaVuSans-6e" x="238.671875"/>
     <use xlink:href="#DejaVuSans-67" x="302.050781"/>
     <use xlink:href="#DejaVuSans-20" x="365.527344"/>
     <use xlink:href="#DejaVuSans-50" x="397.314453"/>
     <use xlink:href="#DejaVuSans-72" x="455.867188"/>
     <use xlink:href="#DejaVuSans-69" x="496.980469"/>
     <use xlink:href="#DejaVuSans-63" x="524.763672"/>
     <use xlink:href="#DejaVuSans-65" x="579.744141"/>
    </g>
   </g>
   <g id="legend_1">
    <g id="patch_7">
     <path d="M 50.25 296.717812 
L 114.98125 296.717812 
Q 116.98125 296.717812 116.98125 294.717812 
L 116.98125 266.361562 
Q 116.98125 264.361562 114.98125 264.361562 
L 50.25 264.361562 
Q 48.25 264.361562 48.25 266.361562 
L 48.25 294.717812 
Q 48.25 296.717812 50.25 296.717812 
z
" style="fill: #ffffff; opacity: 0.8; stroke: #cccccc; stroke-linejoin: miter"/>
    </g>
    <g id="line2d_41">
     <path d="M 52.25 272.46 
L 62.25 272.46 
L 72.25 272.46 
" style="fill: none; stroke: #1f77b4; stroke-width: 1.5; stroke-linecap: square"/>
    </g>
    <g id="text_9">
     <!-- CLOSE -->
     <g transform="translate(80.25 275.96)scale(0.1 -0.1)">
      <defs>
       <path id="DejaVuSans-4c" d="M 628 4666 
L 1259 4666 
L 1259 531 
L 3531 531 
L 3531 0 
L 628 0 
L 628 4666 
z
" transform="scale(0.015625)"/>
       <path id="DejaVuSans-4f" d="M 2522 4238 
Q 1834 4238 1429 3725 
Q 1025 3213 1025 2328 
Q 1025 1447 1429 934 
Q 1834 422 2522 422 
Q 3209 422 3611 934 
Q 4013 1447 4013 2328 
Q 4013 3213 3611 3725 
Q 3209 4238 2522 4238 
z
M 2522 4750 
Q 3503 4750 4090 4092 
Q 4678 3434 4678 2328 
Q 4678 1225 4090 567 
Q 3503 -91 2522 -91 
Q 1538 -91 948 565 
Q 359 1222 359 2328 
Q 359 3434 948 4092 
Q 1538 4750 2522 4750 
z
" transform="scale(0.015625)"/>
       <path id="DejaVuSans-53" d="M 3425 4513 
L 3425 3897 
Q 3066 4069 2747 4153 
Q 2428 4238 2131 4238 
Q 1616 4238 1336 4038 
Q 1056 3838 1056 3469 
Q 1056 3159 1242 3001 
Q 1428 2844 1947 2747 
L 2328 2669 
Q 3034 2534 3370 2195 
Q 3706 1856 3706 1288 
Q 3706 609 3251 259 
Q 2797 -91 1919 -91 
Q 1588 -91 1214 -16 
Q 841 59 441 206 
L 441 856 
Q 825 641 1194 531 
Q 1563 422 1919 422 
Q 2459 422 2753 634 
Q 3047 847 3047 1241 
Q 3047 1584 2836 1778 
Q 2625 1972 2144 2069 
L 1759 2144 
Q 1053 2284 737 2584 
Q 422 2884 422 3419 
Q 422 4038 858 4394 
Q 1294 4750 2059 4750 
Q 2388 4750 2728 4690 
Q 3069 4631 3425 4513 
z
" transform="scale(0.015625)"/>
       <path id="DejaVuSans-45" d="M 628 4666 
L 3578 4666 
L 3578 4134 
L 1259 4134 
L 1259 2753 
L 3481 2753 
L 3481 2222 
L 1259 2222 
L 1259 531 
L 3634 531 
L 3634 0 
L 628 0 
L 628 4666 
z
" transform="scale(0.015625)"/>
      </defs>
      <use xlink:href="#DejaVuSans-43"/>
      <use xlink:href="#DejaVuSans-4c" x="69.824219"/>
      <use xlink:href="#DejaVuSans-4f" x="121.912109"/>
      <use xlink:href="#DejaVuSans-53" x="200.623047"/>
      <use xlink:href="#DejaVuSans-45" x="264.099609"/>
     </g>
    </g>
    <g id="line2d_42">
     <path d="M 52.25 287.138125 
L 62.25 287.138125 
L 72.25 287.138125 
" style="fill: none; stroke: #ff7f0e; stroke-width: 1.5; stroke-linecap: square"/>
    </g>
    <g id="text_10">
     <!-- SMA5 -->
     <g transform="translate(80.25 290.638125)scale(0.1 -0.1)">
      <defs>
       <path id="DejaVuSans-4d" d="M 628 4666 
L 1569 4666 
L 2759 1491 
L 3956 4666 
L 4897 4666 
L 4897 0 
L 4281 0 
L 4281 4097 
L 3078 897 
L 2444 897 
L 1241 4097 
L 1241 0 
L 628 0 
L 628 4666 
z
" transform="scale(0.015625)"/>
       <path id="DejaVuSans-41" d="M 2188 4044 
L 1331 1722 
L 3047 1722 
L 2188 4044 
z
M 1831 4666 
L 2547 4666 
L 4325 0 
L 3669 0 
L 3244 1197 
L 1141 1197 
L 716 0 
L 50 0 
L 1831 4666 
z
" transform="scale(0.015625)"/>
      </defs>
      <use xlink:href="#DejaVuSans-53"/>
      <use xlink:href="#DejaVuSans-4d" x="63.476562"/>
      <use xlink:href="#DejaVuSans-41" x="149.755859"/>
      <use xlink:href="#DejaVuSans-35" x="218.164062"/>
     </g>
    </g>
   </g>
  </g>
  <g id="axes_2">
   <g id="patch_8">
    <path d="M 43.25 584.521875 
L 982.876106 584.521875 
L 982.876106 331.135938 
L 43.25 331.135938 
z
" style="fill: #ffffff"/>
   </g>
   <g id="matplotlib.axis_3">
    <g id="xtick_13">
     <g id="line2d_43">
      <path d="M 80.604757 584.521875 
L 80.604757 331.135938 
" clip-path="url(#p6556a01543)" style="fill: none; stroke-dasharray: 2.96,1.28; stroke-dashoffset: 0; stroke: #b0b0b0; stroke-width: 0.8"/>
     </g>
     <g id="line2d_44">
      <g>
       <use xlink:href="#mba89d597a1" x="80.604757" y="584.521875" style="stroke: #000000; stroke-width: 0.8"/>
      </g>
     </g>
     <g id="text_11">
      <!-- 2022-01 -->
      <g transform="translate(59.713351 599.120312)scale(0.1 -0.1)">
       <defs>
        <path id="DejaVuSans-32" d="M 1228 531 
L 3431 531 
L 3431 0 
L 469 0 
L 469 531 
Q 828 903 1448 1529 
Q 2069 2156 2228 2338 
Q 2531 2678 2651 2914 
Q 2772 3150 2772 3378 
Q 2772 3750 2511 3984 
Q 2250 4219 1831 4219 
Q 1534 4219 1204 4116 
Q 875 4013 500 3803 
L 500 4441 
Q 881 4594 1212 4672 
Q 1544 4750 1819 4750 
Q 2544 4750 2975 4387 
Q 3406 4025 3406 3419 
Q 3406 3131 3298 2873 
Q 3191 2616 2906 2266 
Q 2828 2175 2409 1742 
Q 1991 1309 1228 531 
z
" transform="scale(0.015625)"/>
        <path id="DejaVuSans-2d" d="M 313 2009 
L 1997 2009 
L 1997 1497 
L 313 1497 
L 313 2009 
z
" transform="scale(0.015625)"/>
       </defs>
       <use xlink:href="#DejaVuSans-32"/>
       <use xlink:href="#DejaVuSans-30" x="63.623047"/>
       <use xlink:href="#DejaVuSans-32" x="127.246094"/>
       <use xlink:href="#DejaVuSans-32" x="190.869141"/>
       <use xlink:href="#DejaVuSans-2d" x="254.492188"/>
       <use xlink:href="#DejaVuSans-30" x="290.576172"/>
       <use xlink:href="#DejaVuSans-31" x="354.199219"/>
      </g>
     </g>
    </g>
    <g id="xtick_14">
     <g id="line2d_45">
      <path d="M 163.615328 584.521875 
L 163.615328 331.135938 
" clip-path="url(#p6556a01543)" style="fill: none; stroke-dasharray: 2.96,1.28; stroke-dashoffset: 0; stroke: #b0b0b0; stroke-width: 0.8"/>
     </g>
     <g id="line2d_46">
      <g>
       <use xlink:href="#mba89d597a1" x="163.615328" y="584.521875" style="stroke: #000000; stroke-width: 0.8"/>
      </g>
     </g>
     <g id="text_12">
      <!-- 2022-02 -->
      <g transform="translate(142.723921 599.120312)scale(0.1 -0.1)">
       <use xlink:href="#DejaVuSans-32"/>
       <use xlink:href="#DejaVuSans-30" x="63.623047"/>
       <use xlink:href="#DejaVuSans-32" x="127.246094"/>
       <use xlink:href="#DejaVuSans-32" x="190.869141"/>
       <use xlink:href="#DejaVuSans-2d" x="254.492188"/>
       <use xlink:href="#DejaVuSans-30" x="290.576172"/>
       <use xlink:href="#DejaVuSans-32" x="354.199219"/>
      </g>
     </g>
    </g>
    <g id="xtick_15">
     <g id="line2d_47">
      <path d="M 238.592617 584.521875 
L 238.592617 331.135938 
" clip-path="url(#p6556a01543)" style="fill: none; stroke-dasharray: 2.96,1.28; stroke-dashoffset: 0; stroke: #b0b0b0; stroke-width: 0.8"/>
     </g>
     <g id="line2d_48">
      <g>
       <use xlink:href="#mba89d597a1" x="238.592617" y="584.521875" style="stroke: #000000; stroke-width: 0.8"/>
      </g>
     </g>
     <g id="text_13">
      <!-- 2022-03 -->
      <g transform="translate(217.701211 599.120312)scale(0.1 -0.1)">
       <defs>
        <path id="DejaVuSans-33" d="M 2597 2516 
Q 3050 2419 3304 2112 
Q 3559 1806 3559 1356 
Q 3559 666 3084 287 
Q 2609 -91 1734 -91 
Q 1441 -91 1130 -33 
Q 819 25 488 141 
L 488 750 
Q 750 597 1062 519 
Q 1375 441 1716 441 
Q 2309 441 2620 675 
Q 2931 909 2931 1356 
Q 2931 1769 2642 2001 
Q 2353 2234 1838 2234 
L 1294 2234 
L 1294 2753 
L 1863 2753 
Q 2328 2753 2575 2939 
Q 2822 3125 2822 3475 
Q 2822 3834 2567 4026 
Q 2313 4219 1838 4219 
Q 1578 4219 1281 4162 
Q 984 4106 628 3988 
L 628 4550 
Q 988 4650 1302 4700 
Q 1616 4750 1894 4750 
Q 2613 4750 3031 4423 
Q 3450 4097 3450 3541 
Q 3450 3153 3228 2886 
Q 3006 2619 2597 2516 
z
" transform="scale(0.015625)"/>
       </defs>
       <use xlink:href="#DejaVuSans-32"/>
       <use xlink:href="#DejaVuSans-30" x="63.623047"/>
       <use xlink:href="#DejaVuSans-32" x="127.246094"/>
       <use xlink:href="#DejaVuSans-32" x="190.869141"/>
       <use xlink:href="#DejaVuSans-2d" x="254.492188"/>
       <use xlink:href="#DejaVuSans-30" x="290.576172"/>
       <use xlink:href="#DejaVuSans-33" x="354.199219"/>
      </g>
     </g>
    </g>
    <g id="xtick_16">
     <g id="line2d_49">
      <path d="M 321.603188 584.521875 
L 321.603188 331.135938 
" clip-path="url(#p6556a01543)" style="fill: none; stroke-dasharray: 2.96,1.28; stroke-dashoffset: 0; stroke: #b0b0b0; stroke-width: 0.8"/>
     </g>
     <g id="line2d_50">
      <g>
       <use xlink:href="#mba89d597a1" x="321.603188" y="584.521875" style="stroke: #000000; stroke-width: 0.8"/>
      </g>
     </g>
     <g id="text_14">
      <!-- 2022-04 -->
      <g transform="translate(300.711782 599.120312)scale(0.1 -0.1)">
       <defs>
        <path id="DejaVuSans-34" d="M 2419 4116 
L 825 1625 
L 2419 1625 
L 2419 4116 
z
M 2253 4666 
L 3047 4666 
L 3047 1625 
L 3713 1625 
L 3713 1100 
L 3047 1100 
L 3047 0 
L 2419 0 
L 2419 1100 
L 313 1100 
L 313 1709 
L 2253 4666 
z
" transform="scale(0.015625)"/>
       </defs>
       <use xlink:href="#DejaVuSans-32"/>
       <use xlink:href="#DejaVuSans-30" x="63.623047"/>
       <use xlink:href="#DejaVuSans-32" x="127.246094"/>
       <use xlink:href="#DejaVuSans-32" x="190.869141"/>
       <use xlink:href="#DejaVuSans-2d" x="254.492188"/>
       <use xlink:href="#DejaVuSans-30" x="290.576172"/>
       <use xlink:href="#DejaVuSans-34" x="354.199219"/>
      </g>
     </g>
    </g>
    <g id="xtick_17">
     <g id="line2d_51">
      <path d="M 401.935999 584.521875 
L 401.935999 331.135938 
" clip-path="url(#p6556a01543)" style="fill: none; stroke-dasharray: 2.96,1.28; stroke-dashoffset: 0; stroke: #b0b0b0; stroke-width: 0.8"/>
     </g>
     <g id="line2d_52">
      <g>
       <use xlink:href="#mba89d597a1" x="401.935999" y="584.521875" style="stroke: #000000; stroke-width: 0.8"/>
      </g>
     </g>
     <g id="text_15">
      <!-- 2022-05 -->
      <g transform="translate(381.044592 599.120312)scale(0.1 -0.1)">
       <use xlink:href="#DejaVuSans-32"/>
       <use xlink:href="#DejaVuSans-30" x="63.623047"/>
       <use xlink:href="#DejaVuSans-32" x="127.246094"/>
       <use xlink:href="#DejaVuSans-32" x="190.869141"/>
       <use xlink:href="#DejaVuSans-2d" x="254.492188"/>
       <use xlink:href="#DejaVuSans-30" x="290.576172"/>
       <use xlink:href="#DejaVuSans-35" x="354.199219"/>
      </g>
     </g>
    </g>
    <g id="xtick_18">
     <g id="line2d_53">
      <path d="M 484.946569 584.521875 
L 484.946569 331.135938 
" clip-path="url(#p6556a01543)" style="fill: none; stroke-dasharray: 2.96,1.28; stroke-dashoffset: 0; stroke: #b0b0b0; stroke-width: 0.8"/>
     </g>
     <g id="line2d_54">
      <g>
       <use xlink:href="#mba89d597a1" x="484.946569" y="584.521875" style="stroke: #000000; stroke-width: 0.8"/>
      </g>
     </g>
     <g id="text_16">
      <!-- 2022-06 -->
      <g transform="translate(464.055163 599.120312)scale(0.1 -0.1)">
       <use xlink:href="#DejaVuSans-32"/>
       <use xlink:href="#DejaVuSans-30" x="63.623047"/>
       <use xlink:href="#DejaVuSans-32" x="127.246094"/>
       <use xlink:href="#DejaVuSans-32" x="190.869141"/>
       <use xlink:href="#DejaVuSans-2d" x="254.492188"/>
       <use xlink:href="#DejaVuSans-30" x="290.576172"/>
       <use xlink:href="#DejaVuSans-36" x="354.199219"/>
      </g>
     </g>
    </g>
    <g id="xtick_19">
     <g id="line2d_55">
      <path d="M 565.27938 584.521875 
L 565.27938 331.135938 
" clip-path="url(#p6556a01543)" style="fill: none; stroke-dasharray: 2.96,1.28; stroke-dashoffset: 0; stroke: #b0b0b0; stroke-width: 0.8"/>
     </g>
     <g id="line2d_56">
      <g>
       <use xlink:href="#mba89d597a1" x="565.27938" y="584.521875" style="stroke: #000000; stroke-width: 0.8"/>
      </g>
     </g>
     <g id="text_17">
      <!-- 2022-07 -->
      <g transform="translate(544.387973 599.120312)scale(0.1 -0.1)">
       <use xlink:href="#DejaVuSans-32"/>
       <use xlink:href="#DejaVuSans-30" x="63.623047"/>
       <use xlink:href="#DejaVuSans-32" x="127.246094"/>
       <use xlink:href="#DejaVuSans-32" x="190.869141"/>
       <use xlink:href="#DejaVuSans-2d" x="254.492188"/>
       <use xlink:href="#DejaVuSans-30" x="290.576172"/>
       <use xlink:href="#DejaVuSans-37" x="354.199219"/>
      </g>
     </g>
    </g>
    <g id="xtick_20">
     <g id="line2d_57">
      <path d="M 648.28995 584.521875 
L 648.28995 331.135938 
" clip-path="url(#p6556a01543)" style="fill: none; stroke-dasharray: 2.96,1.28; stroke-dashoffset: 0; stroke: #b0b0b0; stroke-width: 0.8"/>
     </g>
     <g id="line2d_58">
      <g>
       <use xlink:href="#mba89d597a1" x="648.28995" y="584.521875" style="stroke: #000000; stroke-width: 0.8"/>
      </g>
     </g>
     <g id="text_18">
      <!-- 2022-08 -->
      <g transform="translate(627.398544 599.120312)scale(0.1 -0.1)">
       <use xlink:href="#DejaVuSans-32"/>
       <use xlink:href="#DejaVuSans-30" x="63.623047"/>
       <use xlink:href="#DejaVuSans-32" x="127.246094"/>
       <use xlink:href="#DejaVuSans-32" x="190.869141"/>
       <use xlink:href="#DejaVuSans-2d" x="254.492188"/>
       <use xlink:href="#DejaVuSans-30" x="290.576172"/>
       <use xlink:href="#DejaVuSans-38" x="354.199219"/>
      </g>
     </g>
    </g>
    <g id="xtick_21">
     <g id="line2d_59">
      <path d="M 731.300521 584.521875 
L 731.300521 331.135938 
" clip-path="url(#p6556a01543)" style="fill: none; stroke-dasharray: 2.96,1.28; stroke-dashoffset: 0; stroke: #b0b0b0; stroke-width: 0.8"/>
     </g>
     <g id="line2d_60">
      <g>
       <use xlink:href="#mba89d597a1" x="731.300521" y="584.521875" style="stroke: #000000; stroke-width: 0.8"/>
      </g>
     </g>
     <g id="text_19">
      <!-- 2022-09 -->
      <g transform="translate(710.409115 599.120312)scale(0.1 -0.1)">
       <use xlink:href="#DejaVuSans-32"/>
       <use xlink:href="#DejaVuSans-30" x="63.623047"/>
       <use xlink:href="#DejaVuSans-32" x="127.246094"/>
       <use xlink:href="#DejaVuSans-32" x="190.869141"/>
       <use xlink:href="#DejaVuSans-2d" x="254.492188"/>
       <use xlink:href="#DejaVuSans-30" x="290.576172"/>
       <use xlink:href="#DejaVuSans-39" x="354.199219"/>
      </g>
     </g>
    </g>
    <g id="xtick_22">
     <g id="line2d_61">
      <path d="M 811.633332 584.521875 
L 811.633332 331.135938 
" clip-path="url(#p6556a01543)" style="fill: none; stroke-dasharray: 2.96,1.28; stroke-dashoffset: 0; stroke: #b0b0b0; stroke-width: 0.8"/>
     </g>
     <g id="line2d_62">
      <g>
       <use xlink:href="#mba89d597a1" x="811.633332" y="584.521875" style="stroke: #000000; stroke-width: 0.8"/>
      </g>
     </g>
     <g id="text_20">
      <!-- 2022-10 -->
      <g transform="translate(790.741925 599.120312)scale(0.1 -0.1)">
       <use xlink:href="#DejaVuSans-32"/>
       <use xlink:href="#DejaVuSans-30" x="63.623047"/>
       <use xlink:href="#DejaVuSans-32" x="127.246094"/>
       <use xlink:href="#DejaVuSans-32" x="190.869141"/>
       <use xlink:href="#DejaVuSans-2d" x="254.492188"/>
       <use xlink:href="#DejaVuSans-31" x="290.576172"/>
       <use xlink:href="#DejaVuSans-30" x="354.199219"/>
      </g>
     </g>
    </g>
    <g id="xtick_23">
     <g id="line2d_63">
      <path d="M 894.643902 584.521875 
L 894.643902 331.135938 
" clip-path="url(#p6556a01543)" style="fill: none; stroke-dasharray: 2.96,1.28; stroke-dashoffset: 0; stroke: #b0b0b0; stroke-width: 0.8"/>
     </g>
     <g id="line2d_64">
      <g>
       <use xlink:href="#mba89d597a1" x="894.643902" y="584.521875" style="stroke: #000000; stroke-width: 0.8"/>
      </g>
     </g>
     <g id="text_21">
      <!-- 2022-11 -->
      <g transform="translate(873.752496 599.120312)scale(0.1 -0.1)">
       <use xlink:href="#DejaVuSans-32"/>
       <use xlink:href="#DejaVuSans-30" x="63.623047"/>
       <use xlink:href="#DejaVuSans-32" x="127.246094"/>
       <use xlink:href="#DejaVuSans-32" x="190.869141"/>
       <use xlink:href="#DejaVuSans-2d" x="254.492188"/>
       <use xlink:href="#DejaVuSans-31" x="290.576172"/>
       <use xlink:href="#DejaVuSans-31" x="354.199219"/>
      </g>
     </g>
    </g>
    <g id="xtick_24">
     <g id="line2d_65">
      <path d="M 974.976713 584.521875 
L 974.976713 331.135938 
" clip-path="url(#p6556a01543)" style="fill: none; stroke-dasharray: 2.96,1.28; stroke-dashoffset: 0; stroke: #b0b0b0; stroke-width: 0.8"/>
     </g>
     <g id="line2d_66">
      <g>
       <use xlink:href="#mba89d597a1" x="974.976713" y="584.521875" style="stroke: #000000; stroke-width: 0.8"/>
      </g>
     </g>
     <g id="text_22">
      <!-- 2022-12 -->
      <g transform="translate(954.085307 599.120312)scale(0.1 -0.1)">
       <use xlink:href="#DejaVuSans-32"/>
       <use xlink:href="#DejaVuSans-30" x="63.623047"/>
       <use xlink:href="#DejaVuSans-32" x="127.246094"/>
       <use xlink:href="#DejaVuSans-32" x="190.869141"/>
       <use xlink:href="#DejaVuSans-2d" x="254.492188"/>
       <use xlink:href="#DejaVuSans-31" x="290.576172"/>
       <use xlink:href="#DejaVuSans-32" x="354.199219"/>
      </g>
     </g>
    </g>
   </g>
   <g id="matplotlib.axis_4">
    <g id="ytick_8">
     <g id="line2d_67">
      <path d="M 43.25 564.134275 
L 982.876106 564.134275 
" clip-path="url(#p6556a01543)" style="fill: none; stroke-dasharray: 2.96,1.28; stroke-dashoffset: 0; stroke: #b0b0b0; stroke-width: 0.8"/>
     </g>
     <g id="line2d_68">
      <g>
       <use xlink:href="#m07786d50a4" x="43.25" y="564.134275" style="stroke: #000000; stroke-width: 0.8"/>
      </g>
     </g>
     <g id="text_23">
      <!-- −40 -->
      <g transform="translate(15.145313 567.933494)scale(0.1 -0.1)">
       <defs>
        <path id="DejaVuSans-2212" d="M 678 2272 
L 4684 2272 
L 4684 1741 
L 678 1741 
L 678 2272 
z
" transform="scale(0.015625)"/>
       </defs>
       <use xlink:href="#DejaVuSans-2212"/>
       <use xlink:href="#DejaVuSans-34" x="83.789062"/>
       <use xlink:href="#DejaVuSans-30" x="147.412109"/>
      </g>
     </g>
    </g>
    <g id="ytick_9">
     <g id="line2d_69">
      <path d="M 43.25 535.374667 
L 982.876106 535.374667 
" clip-path="url(#p6556a01543)" style="fill: none; stroke-dasharray: 2.96,1.28; stroke-dashoffset: 0; stroke: #b0b0b0; stroke-width: 0.8"/>
     </g>
     <g id="line2d_70">
      <g>
       <use xlink:href="#m07786d50a4" x="43.25" y="535.374667" style="stroke: #000000; stroke-width: 0.8"/>
      </g>
     </g>
     <g id="text_24">
      <!-- −30 -->
      <g transform="translate(15.145313 539.173886)scale(0.1 -0.1)">
       <use xlink:href="#DejaVuSans-2212"/>
       <use xlink:href="#DejaVuSans-33" x="83.789062"/>
       <use xlink:href="#DejaVuSans-30" x="147.412109"/>
      </g>
     </g>
    </g>
    <g id="ytick_10">
     <g id="line2d_71">
      <path d="M 43.25 506.615059 
L 982.876106 506.615059 
" clip-path="url(#p6556a01543)" style="fill: none; stroke-dasharray: 2.96,1.28; stroke-dashoffset: 0; stroke: #b0b0b0; stroke-width: 0.8"/>
     </g>
     <g id="line2d_72">
      <g>
       <use xlink:href="#m07786d50a4" x="43.25" y="506.615059" style="stroke: #000000; stroke-width: 0.8"/>
      </g>
     </g>
     <g id="text_25">
      <!-- −20 -->
      <g transform="translate(15.145313 510.414278)scale(0.1 -0.1)">
       <use xlink:href="#DejaVuSans-2212"/>
       <use xlink:href="#DejaVuSans-32" x="83.789062"/>
       <use xlink:href="#DejaVuSans-30" x="147.412109"/>
      </g>
     </g>
    </g>
    <g id="ytick_11">
     <g id="line2d_73">
      <path d="M 43.25 477.855451 
L 982.876106 477.855451 
" clip-path="url(#p6556a01543)" style="fill: none; stroke-dasharray: 2.96,1.28; stroke-dashoffset: 0; stroke: #b0b0b0; stroke-width: 0.8"/>
     </g>
     <g id="line2d_74">
      <g>
       <use xlink:href="#m07786d50a4" x="43.25" y="477.855451" style="stroke: #000000; stroke-width: 0.8"/>
      </g>
     </g>
     <g id="text_26">
      <!-- −10 -->
      <g transform="translate(15.145313 481.654669)scale(0.1 -0.1)">
       <use xlink:href="#DejaVuSans-2212"/>
       <use xlink:href="#DejaVuSans-31" x="83.789062"/>
       <use xlink:href="#DejaVuSans-30" x="147.412109"/>
      </g>
     </g>
    </g>
    <g id="ytick_12">
     <g id="line2d_75">
      <path d="M 43.25 449.095842 
L 982.876106 449.095842 
" clip-path="url(#p6556a01543)" style="fill: none; stroke-dasharray: 2.96,1.28; stroke-dashoffset: 0; stroke: #b0b0b0; stroke-width: 0.8"/>
     </g>
     <g id="line2d_76">
      <g>
       <use xlink:href="#m07786d50a4" x="43.25" y="449.095842" style="stroke: #000000; stroke-width: 0.8"/>
      </g>
     </g>
     <g id="text_27">
      <!-- 0 -->
      <g transform="translate(29.8875 452.895061)scale(0.1 -0.1)">
       <use xlink:href="#DejaVuSans-30"/>
      </g>
     </g>
    </g>
    <g id="ytick_13">
     <g id="line2d_77">
      <path d="M 43.25 420.336234 
L 982.876106 420.336234 
" clip-path="url(#p6556a01543)" style="fill: none; stroke-dasharray: 2.96,1.28; stroke-dashoffset: 0; stroke: #b0b0b0; stroke-width: 0.8"/>
     </g>
     <g id="line2d_78">
      <g>
       <use xlink:href="#m07786d50a4" x="43.25" y="420.336234" style="stroke: #000000; stroke-width: 0.8"/>
      </g>
     </g>
     <g id="text_28">
      <!-- 10 -->
      <g transform="translate(23.525 424.135453)scale(0.1 -0.1)">
       <use xlink:href="#DejaVuSans-31"/>
       <use xlink:href="#DejaVuSans-30" x="63.623047"/>
      </g>
     </g>
    </g>
    <g id="ytick_14">
     <g id="line2d_79">
      <path d="M 43.25 391.576626 
L 982.876106 391.576626 
" clip-path="url(#p6556a01543)" style="fill: none; stroke-dasharray: 2.96,1.28; stroke-dashoffset: 0; stroke: #b0b0b0; stroke-width: 0.8"/>
     </g>
     <g id="line2d_80">
      <g>
       <use xlink:href="#m07786d50a4" x="43.25" y="391.576626" style="stroke: #000000; stroke-width: 0.8"/>
      </g>
     </g>
     <g id="text_29">
      <!-- 20 -->
      <g transform="translate(23.525 395.375844)scale(0.1 -0.1)">
       <use xlink:href="#DejaVuSans-32"/>
       <use xlink:href="#DejaVuSans-30" x="63.623047"/>
      </g>
     </g>
    </g>
    <g id="ytick_15">
     <g id="line2d_81">
      <path d="M 43.25 362.817017 
L 982.876106 362.817017 
" clip-path="url(#p6556a01543)" style="fill: none; stroke-dasharray: 2.96,1.28; stroke-dashoffset: 0; stroke: #b0b0b0; stroke-width: 0.8"/>
     </g>
     <g id="line2d_82">
      <g>
       <use xlink:href="#m07786d50a4" x="43.25" y="362.817017" style="stroke: #000000; stroke-width: 0.8"/>
      </g>
     </g>
     <g id="text_30">
      <!-- 30 -->
      <g transform="translate(23.525 366.616236)scale(0.1 -0.1)">
       <use xlink:href="#DejaVuSans-33"/>
       <use xlink:href="#DejaVuSans-30" x="63.623047"/>
      </g>
     </g>
    </g>
    <g id="ytick_16">
     <g id="line2d_83">
      <path d="M 43.25 334.057409 
L 982.876106 334.057409 
" clip-path="url(#p6556a01543)" style="fill: none; stroke-dasharray: 2.96,1.28; stroke-dashoffset: 0; stroke: #b0b0b0; stroke-width: 0.8"/>
     </g>
     <g id="line2d_84">
      <g>
       <use xlink:href="#m07786d50a4" x="43.25" y="334.057409" style="stroke: #000000; stroke-width: 0.8"/>
      </g>
     </g>
     <g id="text_31">
      <!-- 40 -->
      <g transform="translate(23.525 337.856628)scale(0.1 -0.1)">
       <use xlink:href="#DejaVuSans-34"/>
       <use xlink:href="#DejaVuSans-30" x="63.623047"/>
      </g>
     </g>
    </g>
   </g>
   <g id="line2d_85">
    <path d="M 85.960278 449.095842 
L 88.638038 447.27947 
L 91.315798 440.57872 
L 93.993559 440.880844 
L 96.671319 439.804612 
L 107.38236 431.922213 
L 110.060121 428.124925 
L 112.737881 430.130735 
L 115.415641 430.074078 
L 123.448922 430.414815 
L 126.126683 430.176275 
L 128.804443 436.180052 
L 131.482203 443.016878 
L 134.159964 448.05417 
L 142.193245 462.852208 
L 144.871005 469.740092 
L 150.226526 468.487683 
L 152.904286 465.619699 
L 160.937567 470.905357 
L 163.615328 469.961503 
L 166.293088 457.349741 
L 168.970848 454.026104 
L 171.648609 456.299693 
L 179.68189 469.127181 
L 182.35965 481.02864 
L 185.03741 486.422124 
L 187.715171 483.570776 
L 190.392931 489.020182 
L 198.426212 509.813873 
L 201.103972 511.415861 
L 203.781733 508.358317 
L 206.459493 507.99923 
L 209.137254 505.057966 
L 217.170535 501.994386 
L 219.848295 495.820517 
L 222.526055 480.818821 
L 225.203816 488.617919 
L 227.881576 480.726621 
L 235.914857 477.251718 
L 241.270378 482.308533 
L 243.948138 488.926199 
L 246.625898 502.540205 
L 254.659179 521.533011 
L 257.33694 533.080659 
L 260.0147 537.589959 
L 262.69246 536.697077 
L 265.370221 533.056992 
L 273.403502 523.464492 
L 276.081262 527.469919 
L 278.759023 523.686718 
L 281.436783 506.452113 
L 292.147824 501.984816 
L 294.825585 490.929397 
L 297.503345 490.414922 
L 300.181105 502.136747 
L 302.858866 508.87652 
L 313.569907 514.063438 
L 316.247667 506.784297 
L 318.925428 502.527757 
L 321.603188 493.3939 
L 329.636469 472.204718 
L 332.314229 463.054956 
L 334.99199 460.925854 
L 337.66975 462.076771 
L 340.347511 458.711482 
L 348.380792 456.205068 
L 351.058552 449.958428 
L 353.736312 450.137705 
L 367.125114 456.939013 
L 369.802874 471.984285 
L 372.480635 480.35505 
L 375.158395 477.511393 
L 377.836155 482.531446 
L 385.869436 485.831511 
L 391.224957 483.910061 
L 393.902717 477.264855 
L 396.580478 465.990375 
L 404.613759 460.720371 
L 409.96928 456.17274 
L 412.64704 447.489802 
L 415.3248 445.814061 
L 423.358081 446.325679 
L 426.035842 439.964181 
L 428.713602 432.151039 
L 431.391362 437.464006 
L 434.069123 437.484615 
L 442.102404 430.000336 
L 444.780164 418.06199 
L 447.457924 407.572315 
L 450.135685 414.362034 
L 452.813445 409.588442 
L 460.846726 400.532383 
L 463.524487 387.50182 
L 466.202247 372.273728 
L 468.880007 360.96626 
L 471.557768 344.500741 
L 479.591049 342.65348 
L 482.268809 355.342139 
L 484.946569 362.166406 
L 487.62433 370.21235 
L 490.30209 377.185779 
L 498.335371 381.026161 
L 501.013131 387.368122 
L 503.690892 395.941822 
L 506.368652 398.746285 
L 509.046412 418.353284 
L 517.079693 446.554758 
L 519.757454 468.139795 
L 522.435214 485.533699 
L 525.112974 512.70424 
L 527.790735 533.771417 
L 535.824016 548.027438 
L 538.501776 557.541614 
L 541.179537 566.466721 
L 543.857297 568.818415 
L 546.535057 566.016122 
L 554.568338 564.059545 
L 557.246099 566.435369 
L 559.923859 573.004332 
L 562.601619 572.460471 
L 565.27938 569.102938 
L 573.312661 564.382146 
L 575.990421 561.170562 
L 578.668181 547.868135 
L 581.345942 528.520449 
L 584.023702 511.023065 
L 592.056983 497.411509 
L 594.734744 491.312478 
L 597.412504 480.75349 
L 600.090264 465.696425 
L 602.768025 449.66124 
L 610.801306 423.797033 
L 613.479066 406.276111 
L 616.156826 394.688667 
L 618.834587 392.470334 
L 621.512347 385.286623 
L 629.545628 387.623637 
L 634.901149 408.333111 
L 637.578909 399.868662 
L 640.256669 397.961906 
L 648.28995 386.63514 
L 650.967711 371.853974 
L 653.645471 368.839069 
L 656.323232 370.959038 
L 659.000992 373.888974 
L 667.034273 374.609722 
L 672.389794 379.72838 
L 675.067554 378.759335 
L 677.745314 381.623532 
L 688.456356 383.454963 
L 691.134116 387.163534 
L 693.811876 375.908469 
L 696.489637 374.233499 
L 704.522918 384.086774 
L 707.200678 387.110159 
L 709.878438 387.466665 
L 712.556199 388.184473 
L 715.233959 381.801301 
L 723.26724 389.508473 
L 725.945001 381.210331 
L 731.300521 378.373263 
L 733.978282 373.285713 
L 742.011563 365.793208 
L 744.689323 365.965472 
L 747.367083 368.756978 
L 750.044844 366.858222 
L 752.722604 367.156631 
L 760.755885 368.863348 
L 763.433645 371.252502 
L 766.111406 366.830571 
L 768.789166 369.018194 
L 771.466926 372.527982 
L 779.500207 376.33392 
L 782.177968 377.79341 
L 784.855728 384.624648 
L 787.533489 396.619067 
L 790.211249 413.508537 
L 798.24453 434.878075 
L 800.92229 458.596426 
L 803.600051 478.608033 
L 806.277811 500.213521 
L 808.955571 504.192555 
L 816.988852 514.780719 
L 819.666613 513.529438 
L 825.022133 512.583364 
L 827.699894 509.627396 
L 835.733175 510.556223 
L 838.410935 515.252257 
L 841.088695 513.061471 
L 843.766456 512.612056 
L 846.444216 504.079926 
L 854.477497 491.228084 
L 859.833018 469.209767 
L 862.510778 461.604058 
L 865.188539 446.532252 
L 873.22182 436.324608 
L 875.89958 439.760237 
L 881.255101 438.337005 
L 883.932861 432.928184 
L 891.966142 424.813993 
L 894.643902 417.070132 
L 897.321663 411.195904 
L 899.999423 409.273826 
L 902.677183 408.267621 
L 910.710465 411.925023 
L 916.065985 412.736357 
L 918.743746 409.484721 
L 921.421506 410.3825 
L 929.454787 406.08978 
L 932.132547 405.602617 
L 934.810308 393.442543 
L 940.165828 382.49364 
L 940.165828 382.49364 
" clip-path="url(#p6556a01543)" style="fill: none; stroke: #1f77b4; stroke-width: 1.5; stroke-linecap: square"/>
   </g>
   <g id="line2d_86">
    <path d="M 85.960278 449.095842 
L 88.638038 448.086747 
L 91.315798 445.009687 
L 93.993559 443.611027 
L 96.671319 442.478705 
L 104.7046 440.169165 
L 107.38236 438.082081 
L 110.060121 435.68919 
L 112.737881 434.405159 
L 115.415641 433.434745 
L 123.448922 432.774002 
L 126.126683 432.216119 
L 128.804443 433.055025 
L 131.482203 435.139052 
L 134.159964 437.816272 
L 142.193245 442.968481 
L 144.871005 448.446149 
L 150.226526 452.527988 
L 152.904286 455.184616 
L 160.937567 458.365437 
L 163.615328 460.70624 
L 166.293088 460.02995 
L 168.970848 458.82205 
L 171.648609 458.315185 
L 179.68189 460.485785 
L 182.35965 464.606811 
L 185.03741 468.980448 
L 187.715171 471.904169 
L 190.392931 475.332677 
L 198.426212 482.237464 
L 201.103972 488.078928 
L 203.781733 492.138022 
L 206.459493 495.312276 
L 209.137254 497.262402 
L 217.170535 498.209183 
L 219.848295 497.731295 
L 222.526055 494.347922 
L 225.203816 493.201683 
L 227.881576 490.706256 
L 235.914857 488.014991 
L 241.270378 486.873578 
L 243.948138 487.284137 
L 246.625898 490.335558 
L 254.659179 496.575389 
L 257.33694 503.876761 
L 260.0147 510.619635 
L 262.69246 515.835269 
L 265.370221 519.27969 
L 273.403502 520.116666 
L 276.081262 521.587337 
L 278.759023 522.007218 
L 281.436783 518.896169 
L 292.147824 515.513873 
L 294.825585 510.596949 
L 297.503345 506.560525 
L 300.181105 505.675766 
L 302.858866 506.315919 
L 310.892147 507.61357 
L 313.569907 508.903546 
L 316.247667 508.479695 
L 318.925428 507.289306 
L 321.603188 504.510222 
L 329.636469 498.049116 
L 332.314229 491.05028 
L 334.99199 485.025392 
L 337.66975 480.435666 
L 340.347511 476.090828 
L 348.380792 472.113675 
L 351.058552 467.682624 
L 353.736312 464.17364 
L 367.125114 462.726714 
L 369.802874 464.578229 
L 372.480635 467.733593 
L 375.158395 469.689153 
L 377.836155 472.257612 
L 385.869436 474.972392 
L 388.547197 476.94362 
L 391.224957 478.336909 
L 393.902717 478.122498 
L 396.580478 475.696073 
L 404.613759 472.700933 
L 409.96928 469.395294 
L 412.64704 465.014196 
L 415.3248 461.174169 
L 423.358081 458.204471 
L 426.035842 454.556413 
L 428.713602 450.075338 
L 431.391362 447.553072 
L 434.069123 445.53938 
L 442.102404 442.431571 
L 444.780164 437.557655 
L 447.457924 431.560587 
L 450.135685 428.120876 
L 452.813445 424.41439 
L 460.846726 419.637988 
L 463.524487 413.210755 
L 466.202247 405.023349 
L 468.880007 396.211931 
L 471.557768 385.869693 
L 479.591049 377.226451 
L 482.268809 372.849588 
L 484.946569 370.712952 
L 487.62433 370.612832 
L 490.30209 371.927421 
L 498.335371 373.747169 
L 501.013131 376.47136 
L 503.690892 380.365452 
L 506.368652 384.041619 
L 509.046412 390.903952 
L 517.079693 402.034113 
L 519.757454 415.25525 
L 522.435214 429.310939 
L 525.112974 445.989599 
L 527.790735 463.545963 
L 535.824016 480.442258 
L 538.501776 495.862129 
L 541.179537 509.983048 
L 543.857297 521.750121 
L 546.535057 530.603321 
L 554.568338 537.294566 
L 559.923859 549.099048 
L 562.601619 553.771332 
L 565.27938 556.837654 
L 575.990421 558.911354 
L 578.668181 556.70271 
L 581.345942 551.066258 
L 584.023702 543.057619 
L 592.056983 533.928397 
L 594.734744 525.405213 
L 597.412504 516.474869 
L 600.090264 506.31918 
L 602.768025 494.987592 
L 610.801306 480.74948 
L 613.479066 465.854806 
L 616.156826 451.621578 
L 618.834587 439.79133 
L 621.512347 428.890388 
L 629.545628 420.637038 
L 632.223388 416.098407 
L 634.901149 414.545348 
L 637.578909 411.610011 
L 640.256669 408.88039 
L 648.28995 404.43134 
L 650.967711 397.915867 
L 653.645471 392.100507 
L 656.323232 387.872213 
L 659.000992 385.075565 
L 667.034273 382.982397 
L 672.389794 382.331593 
L 675.067554 381.617142 
L 677.745314 381.61842 
L 688.456356 381.985728 
L 691.134116 383.02129 
L 696.489637 380.12568 
L 704.522918 380.917899 
L 707.200678 382.156351 
L 712.556199 384.211626 
L 715.233959 383.729561 
L 723.26724 384.885343 
L 725.945001 384.150341 
L 731.300521 382.994925 
L 733.978282 381.053083 
L 742.011563 378.001108 
L 744.689323 375.593981 
L 750.044844 372.752909 
L 752.722604 371.633653 
L 760.755885 371.079592 
L 763.433645 371.114174 
L 766.111406 370.257453 
L 768.789166 370.009602 
L 771.466926 370.513278 
L 779.500207 371.677406 
L 782.177968 372.900607 
L 784.855728 375.245415 
L 787.533489 379.520146 
L 790.211249 386.317824 
L 798.24453 396.029874 
L 800.92229 408.543184 
L 803.600051 422.556154 
L 806.277811 438.087628 
L 808.955571 451.308613 
L 816.988852 464.003034 
L 819.666613 473.908315 
L 825.022133 481.643325 
L 827.699894 487.240139 
L 835.733175 491.903356 
L 838.410935 496.573136 
L 841.088695 499.870803 
L 843.766456 502.419054 
L 846.444216 502.751228 
L 854.477497 500.446599 
L 857.155258 496.421926 
L 859.833018 490.979494 
L 862.510778 485.104407 
L 865.188539 477.389976 
L 873.22182 469.176903 
L 875.89958 463.293569 
L 881.255101 458.302257 
L 883.932861 453.227442 
L 891.966142 447.544752 
L 897.321663 435.399043 
L 899.999423 430.174 
L 902.677183 425.792724 
L 910.710465 423.019184 
L 916.065985 420.962619 
L 918.743746 418.667039 
L 921.421506 417.010131 
L 929.454787 414.826061 
L 932.132547 412.981372 
L 934.810308 409.073606 
L 937.488068 404.873138 
L 940.165828 400.397238 
L 940.165828 400.397238 
" clip-path="url(#p6556a01543)" style="fill: none; stroke: #ff7f0e; stroke-width: 1.5; stroke-linecap: square"/>
   </g>
   <g id="patch_9">
    <path d="M 43.25 584.521875 
L 43.25 331.135937 
" style="fill: none; stroke: #000000; stroke-width: 0.8; stroke-linejoin: miter; stroke-linecap: square"/>
   </g>
   <g id="patch_10">
    <path d="M 982.876106 584.521875 
L 982.876106 331.135937 
" style="fill: none; stroke: #000000; stroke-width: 0.8; stroke-linejoin: miter; stroke-linecap: square"/>
   </g>
   <g id="patch_11">
    <path d="M 43.25 584.521875 
L 982.876106 584.521875 
" style="fill: none; stroke: #000000; stroke-width: 0.8; stroke-linejoin: miter; stroke-linecap: square"/>
   </g>
   <g id="patch_12">
    <path d="M 43.25 331.135938 
L 982.876106 331.135938 
" style="fill: none; stroke: #000000; stroke-width: 0.8; stroke-linejoin: miter; stroke-linecap: square"/>
   </g>
   <g id="text_32">
    <!-- MACD -->
    <g transform="translate(495.077115 325.135938)scale(0.12 -0.12)">
     <defs>
      <path id="DejaVuSans-44" d="M 1259 4147 
L 1259 519 
L 2022 519 
Q 2988 519 3436 956 
Q 3884 1394 3884 2338 
Q 3884 3275 3436 3711 
Q 2988 4147 2022 4147 
L 1259 4147 
z
M 628 4666 
L 1925 4666 
Q 3281 4666 3915 4102 
Q 4550 3538 4550 2338 
Q 4550 1131 3912 565 
Q 3275 0 1925 0 
L 628 0 
L 628 4666 
z
" transform="scale(0.015625)"/>
     </defs>
     <use xlink:href="#DejaVuSans-4d"/>
     <use xlink:href="#DejaVuSans-41" x="86.279297"/>
     <use xlink:href="#DejaVuSans-43" x="152.9375"/>
     <use xlink:href="#DejaVuSans-44" x="222.761719"/>
    </g>
   </g>
   <g id="legend_2">
    <g id="patch_13">
     <path d="M 913.899543 368.492188 
L 975.876106 368.492188 
Q 977.876106 368.492188 977.876106 366.492188 
L 977.876106 338.135938 
Q 977.876106 336.135938 975.876106 336.135938 
L 913.899543 336.135938 
Q 911.899543 336.135938 911.899543 338.135938 
L 911.899543 366.492188 
Q 911.899543 368.492188 913.899543 368.492188 
z
" style="fill: #ffffff; opacity: 0.8; stroke: #cccccc; stroke-linejoin: miter"/>
    </g>
    <g id="line2d_87">
     <path d="M 915.899543 344.234375 
L 925.899543 344.234375 
L 935.899543 344.234375 
" style="fill: none; stroke: #1f77b4; stroke-width: 1.5; stroke-linecap: square"/>
    </g>
    <g id="text_33">
     <!-- MACD -->
     <g transform="translate(943.899543 347.734375)scale(0.1 -0.1)">
      <use xlink:href="#DejaVuSans-4d"/>
      <use xlink:href="#DejaVuSans-41" x="86.279297"/>
      <use xlink:href="#DejaVuSans-43" x="152.9375"/>
      <use xlink:href="#DejaVuSans-44" x="222.761719"/>
     </g>
    </g>
    <g id="line2d_88">
     <path d="M 915.899543 358.9125 
L 925.899543 358.9125 
L 935.899543 358.9125 
" style="fill: none; stroke: #ff7f0e; stroke-width: 1.5; stroke-linecap: square"/>
    </g>
    <g id="text_34">
     <!-- SIG -->
     <g transform="translate(943.899543 362.4125)scale(0.1 -0.1)">
      <defs>
       <path id="DejaVuSans-49" d="M 628 4666 
L 1259 4666 
L 1259 0 
L 628 0 
L 628 4666 
z
" transform="scale(0.015625)"/>
       <path id="DejaVuSans-47" d="M 3809 666 
L 3809 1919 
L 2778 1919 
L 2778 2438 
L 4434 2438 
L 4434 434 
Q 4069 175 3628 42 
Q 3188 -91 2688 -91 
Q 1594 -91 976 548 
Q 359 1188 359 2328 
Q 359 3472 976 4111 
Q 1594 4750 2688 4750 
Q 3144 4750 3555 4637 
Q 3966 4525 4313 4306 
L 4313 3634 
Q 3963 3931 3569 4081 
Q 3175 4231 2741 4231 
Q 1884 4231 1454 3753 
Q 1025 3275 1025 2328 
Q 1025 1384 1454 906 
Q 1884 428 2741 428 
Q 3075 428 3337 486 
Q 3600 544 3809 666 
z
" transform="scale(0.015625)"/>
      </defs>
      <use xlink:href="#DejaVuSans-53"/>
      <use xlink:href="#DejaVuSans-49" x="63.476562"/>
      <use xlink:href="#DejaVuSans-47" x="92.96875"/>
     </g>
    </g>
   </g>
  </g>
  <g id="text_35">
   <!-- Kotak Mahindra Bank Limited -->
   <g transform="translate(415.947187 21.358125)scale(0.12 -0.12)">
    <defs>
     <path id="DejaVuSans-4b" d="M 628 4666 
L 1259 4666 
L 1259 2694 
L 3353 4666 
L 4166 4666 
L 1850 2491 
L 4331 0 
L 3500 0 
L 1259 2247 
L 1259 0 
L 628 0 
L 628 4666 
z
" transform="scale(0.015625)"/>
     <path id="DejaVuSans-74" d="M 1172 4494 
L 1172 3500 
L 2356 3500 
L 2356 3053 
L 1172 3053 
L 1172 1153 
Q 1172 725 1289 603 
Q 1406 481 1766 481 
L 2356 481 
L 2356 0 
L 1766 0 
Q 1100 0 847 248 
Q 594 497 594 1153 
L 594 3053 
L 172 3053 
L 172 3500 
L 594 3500 
L 594 4494 
L 1172 4494 
z
" transform="scale(0.015625)"/>
     <path id="DejaVuSans-61" d="M 2194 1759 
Q 1497 1759 1228 1600 
Q 959 1441 959 1056 
Q 959 750 1161 570 
Q 1363 391 1709 391 
Q 2188 391 2477 730 
Q 2766 1069 2766 1631 
L 2766 1759 
L 2194 1759 
z
M 3341 1997 
L 3341 0 
L 2766 0 
L 2766 531 
Q 2569 213 2275 61 
Q 1981 -91 1556 -91 
Q 1019 -91 701 211 
Q 384 513 384 1019 
Q 384 1609 779 1909 
Q 1175 2209 1959 2209 
L 2766 2209 
L 2766 2266 
Q 2766 2663 2505 2880 
Q 2244 3097 1772 3097 
Q 1472 3097 1187 3025 
Q 903 2953 641 2809 
L 641 3341 
Q 956 3463 1253 3523 
Q 1550 3584 1831 3584 
Q 2591 3584 2966 3190 
Q 3341 2797 3341 1997 
z
" transform="scale(0.015625)"/>
     <path id="DejaVuSans-6b" d="M 581 4863 
L 1159 4863 
L 1159 1991 
L 2875 3500 
L 3609 3500 
L 1753 1863 
L 3688 0 
L 2938 0 
L 1159 1709 
L 1159 0 
L 581 0 
L 581 4863 
z
" transform="scale(0.015625)"/>
     <path id="DejaVuSans-68" d="M 3513 2113 
L 3513 0 
L 2938 0 
L 2938 2094 
Q 2938 2591 2744 2837 
Q 2550 3084 2163 3084 
Q 1697 3084 1428 2787 
Q 1159 2491 1159 1978 
L 1159 0 
L 581 0 
L 581 4863 
L 1159 4863 
L 1159 2956 
Q 1366 3272 1645 3428 
Q 1925 3584 2291 3584 
Q 2894 3584 3203 3211 
Q 3513 2838 3513 2113 
z
" transform="scale(0.015625)"/>
     <path id="DejaVuSans-64" d="M 2906 2969 
L 2906 4863 
L 3481 4863 
L 3481 0 
L 2906 0 
L 2906 525 
Q 2725 213 2448 61 
Q 2172 -91 1784 -91 
Q 1150 -91 751 415 
Q 353 922 353 1747 
Q 353 2572 751 3078 
Q 1150 3584 1784 3584 
Q 2172 3584 2448 3432 
Q 2725 3281 2906 2969 
z
M 947 1747 
Q 947 1113 1208 752 
Q 1469 391 1925 391 
Q 2381 391 2643 752 
Q 2906 1113 2906 1747 
Q 2906 2381 2643 2742 
Q 2381 3103 1925 3103 
Q 1469 3103 1208 2742 
Q 947 2381 947 1747 
z
" transform="scale(0.015625)"/>
     <path id="DejaVuSans-42" d="M 1259 2228 
L 1259 519 
L 2272 519 
Q 2781 519 3026 730 
Q 3272 941 3272 1375 
Q 3272 1813 3026 2020 
Q 2781 2228 2272 2228 
L 1259 2228 
z
M 1259 4147 
L 1259 2741 
L 2194 2741 
Q 2656 2741 2882 2914 
Q 3109 3088 3109 3444 
Q 3109 3797 2882 3972 
Q 2656 4147 2194 4147 
L 1259 4147 
z
M 628 4666 
L 2241 4666 
Q 2963 4666 3353 4366 
Q 3744 4066 3744 3513 
Q 3744 3084 3544 2831 
Q 3344 2578 2956 2516 
Q 3422 2416 3680 2098 
Q 3938 1781 3938 1306 
Q 3938 681 3513 340 
Q 3088 0 2303 0 
L 628 0 
L 628 4666 
z
" transform="scale(0.015625)"/>
     <path id="DejaVuSans-6d" d="M 3328 2828 
Q 3544 3216 3844 3400 
Q 4144 3584 4550 3584 
Q 5097 3584 5394 3201 
Q 5691 2819 5691 2113 
L 5691 0 
L 5113 0 
L 5113 2094 
Q 5113 2597 4934 2840 
Q 4756 3084 4391 3084 
Q 3944 3084 3684 2787 
Q 3425 2491 3425 1978 
L 3425 0 
L 2847 0 
L 2847 2094 
Q 2847 2600 2669 2842 
Q 2491 3084 2119 3084 
Q 1678 3084 1418 2786 
Q 1159 2488 1159 1978 
L 1159 0 
L 581 0 
L 581 3500 
L 1159 3500 
L 1159 2956 
Q 1356 3278 1631 3431 
Q 1906 3584 2284 3584 
Q 2666 3584 2933 3390 
Q 3200 3197 3328 2828 
z
" transform="scale(0.015625)"/>
    </defs>
    <use xlink:href="#DejaVuSans-4b"/>
    <use xlink:href="#DejaVuSans-6f" x="60.576172"/>
    <use xlink:href="#DejaVuSans-74" x="121.757812"/>
    <use xlink:href="#DejaVuSans-61" x="160.966797"/>
    <use xlink:href="#DejaVuSans-6b" x="222.246094"/>
    <use xlink:href="#DejaVuSans-20" x="280.15625"/>
    <use xlink:href="#DejaVuSans-4d" x="311.943359"/>
    <use xlink:href="#DejaVuSans-61" x="398.222656"/>
    <use xlink:href="#DejaVuSans-68" x="459.501953"/>
    <use xlink:href="#DejaVuSans-69" x="522.880859"/>
    <use xlink:href="#DejaVuSans-6e" x="550.664062"/>
    <use xlink:href="#DejaVuSans-64" x="614.042969"/>
    <use xlink:href="#DejaVuSans-72" x="677.519531"/>
    <use xlink:href="#DejaVuSans-61" x="718.632812"/>
    <use xlink:href="#DejaVuSans-20" x="779.912109"/>
    <use xlink:href="#DejaVuSans-42" x="811.699219"/>
    <use xlink:href="#DejaVuSans-61" x="880.302734"/>
    <use xlink:href="#DejaVuSans-6e" x="941.582031"/>
    <use xlink:href="#DejaVuSans-6b" x="1004.960938"/>
    <use xlink:href="#DejaVuSans-20" x="1062.871094"/>
    <use xlink:href="#DejaVuSans-4c" x="1094.658203"/>
    <use xlink:href="#DejaVuSans-69" x="1150.371094"/>
    <use xlink:href="#DejaVuSans-6d" x="1178.154297"/>
    <use xlink:href="#DejaVuSans-69" x="1275.566406"/>
    <use xlink:href="#DejaVuSans-74" x="1303.349609"/>
    <use xlink:href="#DejaVuSans-65" x="1342.558594"/>
    <use xlink:href="#DejaVuSans-64" x="1404.082031"/>
   </g>
  </g>
 </g>
 <defs>
  <clipPath id="pe8fbed6e58">
   <rect x="43.25" y="48.331875" width="939.626106" height="253.385938"/>
  </clipPath>
  <clipPath id="p6556a01543">
   <rect x="43.25" y="331.135938" width="939.626106" height="253.385937"/>
  </clipPath>
 </defs>
</svg>
