<?xml version="1.0" encoding="utf-8" standalone="no"?>
<!DOCTYPE svg PUBLIC "-//W3C//DTD SVG 1.1//EN"
  "http://www.w3.org/Graphics/SVG/1.1/DTD/svg11.dtd">
<svg xmlns:xlink="http://www.w3.org/1999/xlink" width="1008pt" height="612pt" viewBox="0 0 1008 612" xmlns="http://www.w3.org/2000/svg" version="1.1">
 <metadata>
  <rdf:RDF xmlns:dc="http://purl.org/dc/elements/1.1/" xmlns:cc="http://creativecommons.org/ns#" xmlns:rdf="http://www.w3.org/1999/02/22-rdf-syntax-ns#">
   <cc:Work>
    <dc:type rdf:resource="http://purl.org/dc/dcmitype/StillImage"/>
    <dc:date>2022-11-20T19:46:50.032625</dc:date>
    <dc:format>image/svg+xml</dc:format>
    <dc:creator>
     <cc:Agent>
      <dc:title>Matplotlib v3.5.2, https://matplotlib.org/</dc:title>
     </cc:Agent>
    </dc:creator>
   </cc:Work>
  </rdf:RDF>
 </metadata>
 <defs>
  <style type="text/css">*{stroke-linejoin: round; stroke-linecap: butt}</style>
 </defs>
 <g id="figure_1">
  <g id="patch_1">
   <path d="M 0 612 
L 1008 612 
L 1008 0 
L 0 0 
z
" style="fill: #ffffff"/>
  </g>
  <g id="axes_1">
   <g id="patch_2">
    <path d="M 38.904688 301.717812 
L 982.876106 301.717812 
L 982.876106 48.331875 
L 38.904688 48.331875 
z
" style="fill: #ffffff"/>
   </g>
   <g id="matplotlib.axis_1">
    <g id="xtick_1">
     <g id="line2d_1">
      <path d="M 76.432192 301.717812 
L 76.432192 48.331875 
" clip-path="url(#p1e82e2bce9)" style="fill: none; stroke-dasharray: 2.96,1.28; stroke-dashoffset: 0; stroke: #b0b0b0; stroke-width: 0.8"/>
     </g>
     <g id="line2d_2">
      <defs>
       <path id="mcb99d0aae5" d="M 0 0 
L 0 3.5 
" style="stroke: #000000; stroke-width: 0.8"/>
      </defs>
      <g>
       <use xlink:href="#mcb99d0aae5" x="76.432192" y="301.717812" style="stroke: #000000; stroke-width: 0.8"/>
      </g>
     </g>
    </g>
    <g id="xtick_2">
     <g id="line2d_3">
      <path d="M 159.826646 301.717812 
L 159.826646 48.331875 
" clip-path="url(#p1e82e2bce9)" style="fill: none; stroke-dasharray: 2.96,1.28; stroke-dashoffset: 0; stroke: #b0b0b0; stroke-width: 0.8"/>
     </g>
     <g id="line2d_4">
      <g>
       <use xlink:href="#mcb99d0aae5" x="159.826646" y="301.717812" style="stroke: #000000; stroke-width: 0.8"/>
      </g>
     </g>
    </g>
    <g id="xtick_3">
     <g id="line2d_5">
      <path d="M 235.150669 301.717812 
L 235.150669 48.331875 
" clip-path="url(#p1e82e2bce9)" style="fill: none; stroke-dasharray: 2.96,1.28; stroke-dashoffset: 0; stroke: #b0b0b0; stroke-width: 0.8"/>
     </g>
     <g id="line2d_6">
      <g>
       <use xlink:href="#mcb99d0aae5" x="235.150669" y="301.717812" style="stroke: #000000; stroke-width: 0.8"/>
      </g>
     </g>
    </g>
    <g id="xtick_4">
     <g id="line2d_7">
      <path d="M 318.545123 301.717812 
L 318.545123 48.331875 
" clip-path="url(#p1e82e2bce9)" style="fill: none; stroke-dasharray: 2.96,1.28; stroke-dashoffset: 0; stroke: #b0b0b0; stroke-width: 0.8"/>
     </g>
     <g id="line2d_8">
      <g>
       <use xlink:href="#mcb99d0aae5" x="318.545123" y="301.717812" style="stroke: #000000; stroke-width: 0.8"/>
      </g>
     </g>
    </g>
    <g id="xtick_5">
     <g id="line2d_9">
      <path d="M 399.249434 301.717812 
L 399.249434 48.331875 
" clip-path="url(#p1e82e2bce9)" style="fill: none; stroke-dasharray: 2.96,1.28; stroke-dashoffset: 0; stroke: #b0b0b0; stroke-width: 0.8"/>
     </g>
     <g id="line2d_10">
      <g>
       <use xlink:href="#mcb99d0aae5" x="399.249434" y="301.717812" style="stroke: #000000; stroke-width: 0.8"/>
      </g>
     </g>
    </g>
    <g id="xtick_6">
     <g id="line2d_11">
      <path d="M 482.643888 301.717812 
L 482.643888 48.331875 
" clip-path="url(#p1e82e2bce9)" style="fill: none; stroke-dasharray: 2.96,1.28; stroke-dashoffset: 0; stroke: #b0b0b0; stroke-width: 0.8"/>
     </g>
     <g id="line2d_12">
      <g>
       <use xlink:href="#mcb99d0aae5" x="482.643888" y="301.717812" style="stroke: #000000; stroke-width: 0.8"/>
      </g>
     </g>
    </g>
    <g id="xtick_7">
     <g id="line2d_13">
      <path d="M 563.348198 301.717812 
L 563.348198 48.331875 
" clip-path="url(#p1e82e2bce9)" style="fill: none; stroke-dasharray: 2.96,1.28; stroke-dashoffset: 0; stroke: #b0b0b0; stroke-width: 0.8"/>
     </g>
     <g id="line2d_14">
      <g>
       <use xlink:href="#mcb99d0aae5" x="563.348198" y="301.717812" style="stroke: #000000; stroke-width: 0.8"/>
      </g>
     </g>
    </g>
    <g id="xtick_8">
     <g id="line2d_15">
      <path d="M 646.742653 301.717812 
L 646.742653 48.331875 
" clip-path="url(#p1e82e2bce9)" style="fill: none; stroke-dasharray: 2.96,1.28; stroke-dashoffset: 0; stroke: #b0b0b0; stroke-width: 0.8"/>
     </g>
     <g id="line2d_16">
      <g>
       <use xlink:href="#mcb99d0aae5" x="646.742653" y="301.717812" style="stroke: #000000; stroke-width: 0.8"/>
      </g>
     </g>
    </g>
    <g id="xtick_9">
     <g id="line2d_17">
      <path d="M 730.137107 301.717812 
L 730.137107 48.331875 
" clip-path="url(#p1e82e2bce9)" style="fill: none; stroke-dasharray: 2.96,1.28; stroke-dashoffset: 0; stroke: #b0b0b0; stroke-width: 0.8"/>
     </g>
     <g id="line2d_18">
      <g>
       <use xlink:href="#mcb99d0aae5" x="730.137107" y="301.717812" style="stroke: #000000; stroke-width: 0.8"/>
      </g>
     </g>
    </g>
    <g id="xtick_10">
     <g id="line2d_19">
      <path d="M 810.841417 301.717812 
L 810.841417 48.331875 
" clip-path="url(#p1e82e2bce9)" style="fill: none; stroke-dasharray: 2.96,1.28; stroke-dashoffset: 0; stroke: #b0b0b0; stroke-width: 0.8"/>
     </g>
     <g id="line2d_20">
      <g>
       <use xlink:href="#mcb99d0aae5" x="810.841417" y="301.717812" style="stroke: #000000; stroke-width: 0.8"/>
      </g>
     </g>
    </g>
    <g id="xtick_11">
     <g id="line2d_21">
      <path d="M 894.235872 301.717812 
L 894.235872 48.331875 
" clip-path="url(#p1e82e2bce9)" style="fill: none; stroke-dasharray: 2.96,1.28; stroke-dashoffset: 0; stroke: #b0b0b0; stroke-width: 0.8"/>
     </g>
     <g id="line2d_22">
      <g>
       <use xlink:href="#mcb99d0aae5" x="894.235872" y="301.717812" style="stroke: #000000; stroke-width: 0.8"/>
      </g>
     </g>
    </g>
    <g id="xtick_12">
     <g id="line2d_23">
      <path d="M 974.940182 301.717812 
L 974.940182 48.331875 
" clip-path="url(#p1e82e2bce9)" style="fill: none; stroke-dasharray: 2.96,1.28; stroke-dashoffset: 0; stroke: #b0b0b0; stroke-width: 0.8"/>
     </g>
     <g id="line2d_24">
      <g>
       <use xlink:href="#mcb99d0aae5" x="974.940182" y="301.717812" style="stroke: #000000; stroke-width: 0.8"/>
      </g>
     </g>
    </g>
   </g>
   <g id="matplotlib.axis_2">
    <g id="ytick_1">
     <g id="line2d_25">
      <path d="M 38.904688 273.64214 
L 982.876106 273.64214 
" clip-path="url(#p1e82e2bce9)" style="fill: none; stroke-dasharray: 2.96,1.28; stroke-dashoffset: 0; stroke: #b0b0b0; stroke-width: 0.8"/>
     </g>
     <g id="line2d_26">
      <defs>
       <path id="m3103e3f203" d="M 0 0 
L -3.5 0 
" style="stroke: #000000; stroke-width: 0.8"/>
      </defs>
      <g>
       <use xlink:href="#m3103e3f203" x="38.904688" y="273.64214" style="stroke: #000000; stroke-width: 0.8"/>
      </g>
     </g>
     <g id="text_1">
      <!-- 400 -->
      <g transform="translate(12.817187 277.441359)scale(0.1 -0.1)">
       <defs>
        <path id="DejaVuSans-34" d="M 2419 4116 
L 825 1625 
L 2419 1625 
L 2419 4116 
z
M 2253 4666 
L 3047 4666 
L 3047 1625 
L 3713 1625 
L 3713 1100 
L 3047 1100 
L 3047 0 
L 2419 0 
L 2419 1100 
L 313 1100 
L 313 1709 
L 2253 4666 
z
" transform="scale(0.015625)"/>
        <path id="DejaVuSans-30" d="M 2034 4250 
Q 1547 4250 1301 3770 
Q 1056 3291 1056 2328 
Q 1056 1369 1301 889 
Q 1547 409 2034 409 
Q 2525 409 2770 889 
Q 3016 1369 3016 2328 
Q 3016 3291 2770 3770 
Q 2525 4250 2034 4250 
z
M 2034 4750 
Q 2819 4750 3233 4129 
Q 3647 3509 3647 2328 
Q 3647 1150 3233 529 
Q 2819 -91 2034 -91 
Q 1250 -91 836 529 
Q 422 1150 422 2328 
Q 422 3509 836 4129 
Q 1250 4750 2034 4750 
z
" transform="scale(0.015625)"/>
       </defs>
       <use xlink:href="#DejaVuSans-34"/>
       <use xlink:href="#DejaVuSans-30" x="63.623047"/>
       <use xlink:href="#DejaVuSans-30" x="127.246094"/>
      </g>
     </g>
    </g>
    <g id="ytick_2">
     <g id="line2d_27">
      <path d="M 38.904688 240.392883 
L 982.876106 240.392883 
" clip-path="url(#p1e82e2bce9)" style="fill: none; stroke-dasharray: 2.96,1.28; stroke-dashoffset: 0; stroke: #b0b0b0; stroke-width: 0.8"/>
     </g>
     <g id="line2d_28">
      <g>
       <use xlink:href="#m3103e3f203" x="38.904688" y="240.392883" style="stroke: #000000; stroke-width: 0.8"/>
      </g>
     </g>
     <g id="text_2">
      <!-- 450 -->
      <g transform="translate(12.817187 244.192102)scale(0.1 -0.1)">
       <defs>
        <path id="DejaVuSans-35" d="M 691 4666 
L 3169 4666 
L 3169 4134 
L 1269 4134 
L 1269 2991 
Q 1406 3038 1543 3061 
Q 1681 3084 1819 3084 
Q 2600 3084 3056 2656 
Q 3513 2228 3513 1497 
Q 3513 744 3044 326 
Q 2575 -91 1722 -91 
Q 1428 -91 1123 -41 
Q 819 9 494 109 
L 494 744 
Q 775 591 1075 516 
Q 1375 441 1709 441 
Q 2250 441 2565 725 
Q 2881 1009 2881 1497 
Q 2881 1984 2565 2268 
Q 2250 2553 1709 2553 
Q 1456 2553 1204 2497 
Q 953 2441 691 2322 
L 691 4666 
z
" transform="scale(0.015625)"/>
       </defs>
       <use xlink:href="#DejaVuSans-34"/>
       <use xlink:href="#DejaVuSans-35" x="63.623047"/>
       <use xlink:href="#DejaVuSans-30" x="127.246094"/>
      </g>
     </g>
    </g>
    <g id="ytick_3">
     <g id="line2d_29">
      <path d="M 38.904688 207.143626 
L 982.876106 207.143626 
" clip-path="url(#p1e82e2bce9)" style="fill: none; stroke-dasharray: 2.96,1.28; stroke-dashoffset: 0; stroke: #b0b0b0; stroke-width: 0.8"/>
     </g>
     <g id="line2d_30">
      <g>
       <use xlink:href="#m3103e3f203" x="38.904688" y="207.143626" style="stroke: #000000; stroke-width: 0.8"/>
      </g>
     </g>
     <g id="text_3">
      <!-- 500 -->
      <g transform="translate(12.817187 210.942845)scale(0.1 -0.1)">
       <use xlink:href="#DejaVuSans-35"/>
       <use xlink:href="#DejaVuSans-30" x="63.623047"/>
       <use xlink:href="#DejaVuSans-30" x="127.246094"/>
      </g>
     </g>
    </g>
    <g id="ytick_4">
     <g id="line2d_31">
      <path d="M 38.904688 173.894369 
L 982.876106 173.894369 
" clip-path="url(#p1e82e2bce9)" style="fill: none; stroke-dasharray: 2.96,1.28; stroke-dashoffset: 0; stroke: #b0b0b0; stroke-width: 0.8"/>
     </g>
     <g id="line2d_32">
      <g>
       <use xlink:href="#m3103e3f203" x="38.904688" y="173.894369" style="stroke: #000000; stroke-width: 0.8"/>
      </g>
     </g>
     <g id="text_4">
      <!-- 550 -->
      <g transform="translate(12.817187 177.693588)scale(0.1 -0.1)">
       <use xlink:href="#DejaVuSans-35"/>
       <use xlink:href="#DejaVuSans-35" x="63.623047"/>
       <use xlink:href="#DejaVuSans-30" x="127.246094"/>
      </g>
     </g>
    </g>
    <g id="ytick_5">
     <g id="line2d_33">
      <path d="M 38.904688 140.645112 
L 982.876106 140.645112 
" clip-path="url(#p1e82e2bce9)" style="fill: none; stroke-dasharray: 2.96,1.28; stroke-dashoffset: 0; stroke: #b0b0b0; stroke-width: 0.8"/>
     </g>
     <g id="line2d_34">
      <g>
       <use xlink:href="#m3103e3f203" x="38.904688" y="140.645112" style="stroke: #000000; stroke-width: 0.8"/>
      </g>
     </g>
     <g id="text_5">
      <!-- 600 -->
      <g transform="translate(12.817187 144.444331)scale(0.1 -0.1)">
       <defs>
        <path id="DejaVuSans-36" d="M 2113 2584 
Q 1688 2584 1439 2293 
Q 1191 2003 1191 1497 
Q 1191 994 1439 701 
Q 1688 409 2113 409 
Q 2538 409 2786 701 
Q 3034 994 3034 1497 
Q 3034 2003 2786 2293 
Q 2538 2584 2113 2584 
z
M 3366 4563 
L 3366 3988 
Q 3128 4100 2886 4159 
Q 2644 4219 2406 4219 
Q 1781 4219 1451 3797 
Q 1122 3375 1075 2522 
Q 1259 2794 1537 2939 
Q 1816 3084 2150 3084 
Q 2853 3084 3261 2657 
Q 3669 2231 3669 1497 
Q 3669 778 3244 343 
Q 2819 -91 2113 -91 
Q 1303 -91 875 529 
Q 447 1150 447 2328 
Q 447 3434 972 4092 
Q 1497 4750 2381 4750 
Q 2619 4750 2861 4703 
Q 3103 4656 3366 4563 
z
" transform="scale(0.015625)"/>
       </defs>
       <use xlink:href="#DejaVuSans-36"/>
       <use xlink:href="#DejaVuSans-30" x="63.623047"/>
       <use xlink:href="#DejaVuSans-30" x="127.246094"/>
      </g>
     </g>
    </g>
    <g id="ytick_6">
     <g id="line2d_35">
      <path d="M 38.904688 107.395855 
L 982.876106 107.395855 
" clip-path="url(#p1e82e2bce9)" style="fill: none; stroke-dasharray: 2.96,1.28; stroke-dashoffset: 0; stroke: #b0b0b0; stroke-width: 0.8"/>
     </g>
     <g id="line2d_36">
      <g>
       <use xlink:href="#m3103e3f203" x="38.904688" y="107.395855" style="stroke: #000000; stroke-width: 0.8"/>
      </g>
     </g>
     <g id="text_6">
      <!-- 650 -->
      <g transform="translate(12.817187 111.195074)scale(0.1 -0.1)">
       <use xlink:href="#DejaVuSans-36"/>
       <use xlink:href="#DejaVuSans-35" x="63.623047"/>
       <use xlink:href="#DejaVuSans-30" x="127.246094"/>
      </g>
     </g>
    </g>
    <g id="ytick_7">
     <g id="line2d_37">
      <path d="M 38.904688 74.146598 
L 982.876106 74.146598 
" clip-path="url(#p1e82e2bce9)" style="fill: none; stroke-dasharray: 2.96,1.28; stroke-dashoffset: 0; stroke: #b0b0b0; stroke-width: 0.8"/>
     </g>
     <g id="line2d_38">
      <g>
       <use xlink:href="#m3103e3f203" x="38.904688" y="74.146598" style="stroke: #000000; stroke-width: 0.8"/>
      </g>
     </g>
     <g id="text_7">
      <!-- 700 -->
      <g transform="translate(12.817187 77.945817)scale(0.1 -0.1)">
       <defs>
        <path id="DejaVuSans-37" d="M 525 4666 
L 3525 4666 
L 3525 4397 
L 1831 0 
L 1172 0 
L 2766 4134 
L 525 4134 
L 525 4666 
z
" transform="scale(0.015625)"/>
       </defs>
       <use xlink:href="#DejaVuSans-37"/>
       <use xlink:href="#DejaVuSans-30" x="63.623047"/>
       <use xlink:href="#DejaVuSans-30" x="127.246094"/>
      </g>
     </g>
    </g>
   </g>
   <g id="line2d_39">
    <path d="M 81.812479 61.711376 
L 84.502623 59.849418 
L 89.88291 70.322934 
L 92.573054 66.499269 
L 100.643485 78.469002 
L 103.333629 78.036761 
L 106.023772 79.89872 
L 108.713916 107.562101 
L 111.40406 114.178703 
L 119.474491 109.623555 
L 122.164634 118.501107 
L 124.854778 126.580676 
L 127.544922 130.537338 
L 130.235066 137.286937 
L 138.305497 158.765957 
L 140.99564 165.449058 
L 146.375928 177.385541 
L 149.066071 172.464651 
L 157.136502 158.865705 
L 159.826646 156.172515 
L 162.51679 148.624934 
L 165.206933 155.108539 
L 167.897077 159.430942 
L 175.967508 169.239473 
L 178.657652 167.078271 
L 181.347796 161.292901 
L 184.037939 158.16747 
L 186.728083 166.280289 
L 194.798514 179.413746 
L 197.488658 165.016817 
L 200.178801 164.651076 
L 202.868945 163.98609 
L 205.559089 165.615304 
L 213.62952 160.062678 
L 216.319663 164.484829 
L 219.009807 162.523123 
L 221.699951 182.439428 
L 224.390094 170.403197 
L 232.460525 170.037455 
L 237.840813 170.436446 
L 240.530957 160.89391 
L 243.2211 157.070245 
L 251.291531 159.364444 
L 253.981675 148.990676 
L 256.671819 150.287397 
L 259.361962 148.458687 
L 262.052106 149.821907 
L 270.122537 141.875335 
L 272.812681 148.824429 
L 275.502824 141.808836 
L 278.192968 139.84713 
L 288.953543 140.645112 
L 291.643687 133.962011 
L 294.33383 133.197278 
L 297.023974 133.629519 
L 299.714118 138.417412 
L 307.784549 140.512115 
L 310.474692 138.982649 
L 313.164836 140.113124 
L 315.85498 146.031492 
L 318.545123 139.448139 
L 326.615554 136.921195 
L 329.305698 141.210349 
L 331.995842 144.934266 
L 334.685985 153.379577 
L 337.376129 151.517619 
L 345.44656 159.863183 
L 348.136704 168.108998 
L 350.826848 167.776506 
L 364.277566 181.4752 
L 366.96771 186.894828 
L 369.657853 182.871668 
L 372.347997 181.076209 
L 375.038141 182.073686 
L 383.108572 187.626312 
L 385.798715 187.692811 
L 388.488859 194.542158 
L 391.179003 192.148211 
L 393.869146 201.291757 
L 401.939578 210.468552 
L 407.319865 212.629753 
L 410.010009 206.378893 
L 412.700152 217.051905 
L 420.770583 218.348626 
L 426.150871 225.829708 
L 428.841014 224.566237 
L 431.531158 227.99091 
L 439.601589 228.42315 
L 442.291733 216.021178 
L 444.981876 219.612097 
L 447.67202 239.62815 
L 450.362164 234.009026 
L 458.432595 229.753121 
L 461.122739 233.776281 
L 463.812882 243.817556 
L 466.503026 238.165183 
L 469.19317 229.121385 
L 477.263601 222.937023 
L 479.953744 221.74005 
L 482.643888 226.594441 
L 485.334032 224.333492 
L 488.024175 223.435762 
L 496.094606 224.965228 
L 498.78475 228.655895 
L 501.474894 226.827186 
L 504.165037 223.735005 
L 506.855181 233.111296 
L 514.925612 242.986325 
L 517.615756 243.119322 
L 520.3059 246.976236 
L 525.686187 270.184217 
L 533.756618 263.900108 
L 536.446762 256.917764 
L 539.136905 266.161057 
L 541.827049 260.974173 
L 544.517193 261.173669 
L 552.587624 257.08401 
L 555.277767 255.521295 
L 557.967911 259.843698 
L 560.658055 262.969128 
L 563.348198 259.012467 
L 571.41863 260.142942 
L 574.108773 264.598342 
L 576.798917 262.969128 
L 579.489061 259.810449 
L 582.179204 260.940924 
L 590.249635 266.194306 
L 592.939779 267.557526 
L 595.629923 269.186739 
L 598.320066 272.677911 
L 601.01021 277.731799 
L 609.080641 270.483461 
L 611.770785 269.884974 
L 614.460928 265.59582 
L 617.151072 264.332348 
L 619.841216 266.427051 
L 627.911647 263.80036 
L 630.601791 270.184217 
L 633.291934 269.219989 
L 635.982078 263.002378 
L 638.672222 257.881992 
L 646.742653 254.357571 
L 649.432796 253.95858 
L 652.12294 252.129871 
L 654.813084 250.035167 
L 657.503227 247.042734 
L 665.573658 249.802423 
L 670.953946 253.592838 
L 673.64409 248.073461 
L 676.334233 249.636176 
L 687.094808 248.971191 
L 689.784952 245.01453 
L 692.475095 250.334411 
L 695.165239 252.063372 
L 703.23567 260.342437 
L 705.925814 262.570137 
L 708.615957 262.90263 
L 711.306101 263.534366 
L 713.996245 262.171146 
L 722.066676 270.749455 
L 724.756819 264.631591 
L 730.137107 266.693045 
L 732.827251 268.521754 
L 740.897682 269.984722 
L 743.587825 270.682956 
L 746.277969 268.688001 
L 748.968113 265.13033 
L 751.658256 262.237645 
L 759.728687 259.012467 
L 762.418831 258.580227 
L 765.108975 262.802882 
L 767.799118 263.634114 
L 770.489262 272.544914 
L 778.559693 272.345419 
L 781.249837 270.383713 
L 783.939981 273.143401 
L 786.630124 275.005359 
L 789.320268 277.399306 
L 797.390699 277.100063 
L 800.080843 274.706116 
L 802.770986 274.938861 
L 805.46113 278.430033 
L 808.151274 277.465804 
L 816.221705 277.299558 
L 818.911848 269.984722 
L 824.292136 266.892541 
L 826.982279 268.25576 
L 835.05271 266.127808 
L 837.742854 270.716205 
L 840.432998 268.355508 
L 843.123142 287.540329 
L 845.813285 288.737303 
L 853.883716 290.20027 
L 856.57386 287.407332 
L 859.264004 288.238564 
L 861.954147 285.944365 
L 864.644291 285.246131 
L 872.714722 283.816413 
L 875.404866 283.849662 
L 880.785153 285.179632 
L 883.475297 284.780641 
L 891.545728 282.58619 
L 894.235872 278.696027 
L 896.926015 277.6653 
L 899.616159 281.289469 
L 902.306303 279.926249 
L 910.376734 279.294514 
L 915.757021 279.660255 
L 918.447165 281.023475 
L 921.137308 273.841635 
L 929.207739 275.936339 
L 931.897883 275.537348 
L 934.588027 274.805864 
L 937.27817 275.803342 
L 939.968314 277.731799 
L 939.968314 277.731799 
" clip-path="url(#p1e82e2bce9)" style="fill: none; stroke: #1f77b4; stroke-width: 1.5; stroke-linecap: square"/>
   </g>
   <g id="line2d_40">
    <path d="M 92.573054 64.710459 
L 100.643485 68.061984 
L 103.333629 71.699453 
L 106.023772 74.645337 
L 108.713916 82.093171 
L 111.40406 91.629057 
L 119.474491 97.859968 
L 122.164634 105.952837 
L 124.854778 115.289229 
L 130.235066 124.505923 
L 138.305497 134.334403 
L 140.99564 143.723993 
L 146.375928 153.884966 
L 149.066071 162.270429 
L 157.136502 166.586182 
L 159.826646 166.067494 
L 162.51679 162.702669 
L 165.206933 158.247269 
L 167.897077 155.640527 
L 175.967508 157.715281 
L 178.657652 159.896432 
L 181.347796 162.430025 
L 184.037939 163.041812 
L 186.728083 164.411681 
L 194.798514 166.446535 
L 197.488658 166.034245 
L 200.178801 166.70588 
L 202.868945 167.869604 
L 205.559089 167.736607 
L 213.62952 163.866393 
L 216.319663 163.759995 
L 219.009807 163.334405 
L 221.699951 167.025073 
L 224.390094 167.982651 
L 232.460525 169.977607 
L 237.840813 171.16793 
L 240.530957 170.842087 
L 243.2211 165.768251 
L 251.291531 163.5605 
L 256.671819 155.321334 
L 259.361962 152.83429 
L 262.052106 151.384622 
L 270.122537 147.8868 
L 272.812681 147.853551 
L 278.192968 144.435527 
L 288.953543 142.600168 
L 291.643687 141.017504 
L 294.33383 137.892074 
L 297.023974 136.25621 
L 299.714118 135.970267 
L 307.784549 135.943667 
L 310.474692 136.947795 
L 313.164836 138.330964 
L 315.85498 140.811358 
L 318.545123 141.017504 
L 326.615554 140.29932 
L 329.305698 140.74486 
L 331.995842 141.709088 
L 334.685985 143.178705 
L 337.376129 145.592601 
L 345.44656 150.180999 
L 348.136704 155.560729 
L 350.826848 160.129177 
L 364.277566 165.748301 
L 366.96771 172.823743 
L 369.657853 177.42544 
L 372.347997 180.018882 
L 375.038141 182.878318 
L 383.108572 184.108541 
L 385.798715 184.268137 
L 391.179003 188.816636 
L 393.869146 192.66025 
L 401.939578 197.228698 
L 410.010009 204.583433 
L 412.700152 209.564172 
L 420.770583 212.975546 
L 423.460727 215.283044 
L 426.150871 217.923035 
L 428.841014 221.560504 
L 431.531158 223.748305 
L 439.601589 225.76321 
L 444.981876 223.322714 
L 447.67202 226.335097 
L 450.362164 227.53872 
L 458.432595 227.804714 
L 461.122739 231.355735 
L 463.812882 236.196827 
L 466.503026 235.904233 
L 469.19317 234.926705 
L 477.263601 233.563486 
L 479.953744 231.156239 
L 482.643888 227.711616 
L 485.334032 224.945278 
L 488.024175 223.808154 
L 496.094606 224.213795 
L 498.78475 225.596964 
L 501.474894 225.643513 
L 504.165037 225.523815 
L 506.855181 227.458922 
L 514.925612 231.063141 
L 517.615756 233.955827 
L 520.3059 237.985637 
L 522.996043 245.00123 
L 525.686187 252.415814 
L 533.756618 256.598571 
L 536.446762 259.358259 
L 539.136905 263.195223 
L 541.827049 263.627464 
L 544.517193 261.825354 
L 552.587624 260.462134 
L 555.277767 260.182841 
L 557.967911 258.919369 
L 560.658055 259.31836 
L 563.348198 258.88612 
L 571.41863 259.497906 
L 574.108773 261.313315 
L 576.798917 261.938401 
L 579.489061 261.306666 
L 590.249635 262.90263 
L 592.939779 263.494467 
L 595.629923 264.737989 
L 598.320066 267.311481 
L 601.01021 270.669656 
L 609.080641 271.527487 
L 611.770785 271.992977 
L 614.460928 271.274793 
L 617.151072 269.60568 
L 619.841216 267.344731 
L 627.911647 266.008111 
L 630.601791 266.067959 
L 633.291934 266.792793 
L 635.982078 266.526799 
L 638.672222 264.817787 
L 646.742653 262.929229 
L 652.12294 256.266078 
L 654.813084 253.672636 
L 657.503227 251.504785 
L 665.573658 250.593755 
L 670.953946 250.520607 
L 673.64409 249.709325 
L 676.334233 249.629527 
L 687.094808 250.015218 
L 689.784952 249.057639 
L 692.475095 248.405954 
L 695.165239 249.203936 
L 703.23567 251.345188 
L 705.925814 254.064977 
L 708.615957 257.642597 
L 711.306101 260.282588 
L 713.996245 262.304143 
L 722.066676 264.385547 
L 730.137107 265.555921 
L 732.827251 266.553398 
L 740.897682 268.116113 
L 743.587825 268.102814 
L 746.277969 268.914096 
L 748.968113 268.601553 
L 751.658256 267.344731 
L 759.728687 265.15028 
L 762.418831 262.729734 
L 765.108975 261.55271 
L 767.799118 261.253467 
L 770.489262 263.314921 
L 778.559693 265.981511 
L 781.249837 268.342208 
L 783.939981 270.410312 
L 786.630124 272.684561 
L 789.320268 273.65544 
L 797.390699 274.606368 
L 800.080843 275.470849 
L 802.770986 275.829941 
L 805.46113 276.514876 
L 816.221705 276.568075 
L 818.911848 275.623796 
L 824.292136 274.014532 
L 826.982279 271.979677 
L 835.05271 269.712078 
L 837.742854 268.395407 
L 840.432998 268.069564 
L 845.813285 276.295431 
L 853.883716 281.109923 
L 856.57386 284.448148 
L 859.264004 288.42476 
L 861.954147 288.105567 
L 864.644291 287.407332 
L 872.714722 286.130561 
L 875.404866 285.419027 
L 883.475297 284.574496 
L 891.545728 284.042507 
L 894.235872 283.01843 
L 896.926015 281.781558 
L 899.616159 281.003525 
L 902.306303 280.032647 
L 910.376734 279.374312 
L 915.757021 279.567158 
L 918.447165 280.238792 
L 921.137308 278.749226 
L 929.207739 277.951244 
L 931.897883 277.19981 
L 937.27817 275.184905 
L 939.968314 275.962938 
L 939.968314 275.962938 
" clip-path="url(#p1e82e2bce9)" style="fill: none; stroke: #ff7f0e; stroke-width: 1.5; stroke-linecap: square"/>
   </g>
   <g id="patch_3">
    <path d="M 38.904688 301.717812 
L 38.904688 48.331875 
" style="fill: none; stroke: #000000; stroke-width: 0.8; stroke-linejoin: miter; stroke-linecap: square"/>
   </g>
   <g id="patch_4">
    <path d="M 982.876106 301.717812 
L 982.876106 48.331875 
" style="fill: none; stroke: #000000; stroke-width: 0.8; stroke-linejoin: miter; stroke-linecap: square"/>
   </g>
   <g id="patch_5">
    <path d="M 38.904687 301.717812 
L 982.876106 301.717812 
" style="fill: none; stroke: #000000; stroke-width: 0.8; stroke-linejoin: miter; stroke-linecap: square"/>
   </g>
   <g id="patch_6">
    <path d="M 38.904687 48.331875 
L 982.876106 48.331875 
" style="fill: none; stroke: #000000; stroke-width: 0.8; stroke-linejoin: miter; stroke-linecap: square"/>
   </g>
   <g id="text_8">
    <!-- Closing Price -->
    <g transform="translate(472.414459 42.331875)scale(0.12 -0.12)">
     <defs>
      <path id="DejaVuSans-43" d="M 4122 4306 
L 4122 3641 
Q 3803 3938 3442 4084 
Q 3081 4231 2675 4231 
Q 1875 4231 1450 3742 
Q 1025 3253 1025 2328 
Q 1025 1406 1450 917 
Q 1875 428 2675 428 
Q 3081 428 3442 575 
Q 3803 722 4122 1019 
L 4122 359 
Q 3791 134 3420 21 
Q 3050 -91 2638 -91 
Q 1578 -91 968 557 
Q 359 1206 359 2328 
Q 359 3453 968 4101 
Q 1578 4750 2638 4750 
Q 3056 4750 3426 4639 
Q 3797 4528 4122 4306 
z
" transform="scale(0.015625)"/>
      <path id="DejaVuSans-6c" d="M 603 4863 
L 1178 4863 
L 1178 0 
L 603 0 
L 603 4863 
z
" transform="scale(0.015625)"/>
      <path id="DejaVuSans-6f" d="M 1959 3097 
Q 1497 3097 1228 2736 
Q 959 2375 959 1747 
Q 959 1119 1226 758 
Q 1494 397 1959 397 
Q 2419 397 2687 759 
Q 2956 1122 2956 1747 
Q 2956 2369 2687 2733 
Q 2419 3097 1959 3097 
z
M 1959 3584 
Q 2709 3584 3137 3096 
Q 3566 2609 3566 1747 
Q 3566 888 3137 398 
Q 2709 -91 1959 -91 
Q 1206 -91 779 398 
Q 353 888 353 1747 
Q 353 2609 779 3096 
Q 1206 3584 1959 3584 
z
" transform="scale(0.015625)"/>
      <path id="DejaVuSans-73" d="M 2834 3397 
L 2834 2853 
Q 2591 2978 2328 3040 
Q 2066 3103 1784 3103 
Q 1356 3103 1142 2972 
Q 928 2841 928 2578 
Q 928 2378 1081 2264 
Q 1234 2150 1697 2047 
L 1894 2003 
Q 2506 1872 2764 1633 
Q 3022 1394 3022 966 
Q 3022 478 2636 193 
Q 2250 -91 1575 -91 
Q 1294 -91 989 -36 
Q 684 19 347 128 
L 347 722 
Q 666 556 975 473 
Q 1284 391 1588 391 
Q 1994 391 2212 530 
Q 2431 669 2431 922 
Q 2431 1156 2273 1281 
Q 2116 1406 1581 1522 
L 1381 1569 
Q 847 1681 609 1914 
Q 372 2147 372 2553 
Q 372 3047 722 3315 
Q 1072 3584 1716 3584 
Q 2034 3584 2315 3537 
Q 2597 3491 2834 3397 
z
" transform="scale(0.015625)"/>
      <path id="DejaVuSans-69" d="M 603 3500 
L 1178 3500 
L 1178 0 
L 603 0 
L 603 3500 
z
M 603 4863 
L 1178 4863 
L 1178 4134 
L 603 4134 
L 603 4863 
z
" transform="scale(0.015625)"/>
      <path id="DejaVuSans-6e" d="M 3513 2113 
L 3513 0 
L 2938 0 
L 2938 2094 
Q 2938 2591 2744 2837 
Q 2550 3084 2163 3084 
Q 1697 3084 1428 2787 
Q 1159 2491 1159 1978 
L 1159 0 
L 581 0 
L 581 3500 
L 1159 3500 
L 1159 2956 
Q 1366 3272 1645 3428 
Q 1925 3584 2291 3584 
Q 2894 3584 3203 3211 
Q 3513 2838 3513 2113 
z
" transform="scale(0.015625)"/>
      <path id="DejaVuSans-67" d="M 2906 1791 
Q 2906 2416 2648 2759 
Q 2391 3103 1925 3103 
Q 1463 3103 1205 2759 
Q 947 2416 947 1791 
Q 947 1169 1205 825 
Q 1463 481 1925 481 
Q 2391 481 2648 825 
Q 2906 1169 2906 1791 
z
M 3481 434 
Q 3481 -459 3084 -895 
Q 2688 -1331 1869 -1331 
Q 1566 -1331 1297 -1286 
Q 1028 -1241 775 -1147 
L 775 -588 
Q 1028 -725 1275 -790 
Q 1522 -856 1778 -856 
Q 2344 -856 2625 -561 
Q 2906 -266 2906 331 
L 2906 616 
Q 2728 306 2450 153 
Q 2172 0 1784 0 
Q 1141 0 747 490 
Q 353 981 353 1791 
Q 353 2603 747 3093 
Q 1141 3584 1784 3584 
Q 2172 3584 2450 3431 
Q 2728 3278 2906 2969 
L 2906 3500 
L 3481 3500 
L 3481 434 
z
" transform="scale(0.015625)"/>
      <path id="DejaVuSans-20" transform="scale(0.015625)"/>
      <path id="DejaVuSans-50" d="M 1259 4147 
L 1259 2394 
L 2053 2394 
Q 2494 2394 2734 2622 
Q 2975 2850 2975 3272 
Q 2975 3691 2734 3919 
Q 2494 4147 2053 4147 
L 1259 4147 
z
M 628 4666 
L 2053 4666 
Q 2838 4666 3239 4311 
Q 3641 3956 3641 3272 
Q 3641 2581 3239 2228 
Q 2838 1875 2053 1875 
L 1259 1875 
L 1259 0 
L 628 0 
L 628 4666 
z
" transform="scale(0.015625)"/>
      <path id="DejaVuSans-72" d="M 2631 2963 
Q 2534 3019 2420 3045 
Q 2306 3072 2169 3072 
Q 1681 3072 1420 2755 
Q 1159 2438 1159 1844 
L 1159 0 
L 581 0 
L 581 3500 
L 1159 3500 
L 1159 2956 
Q 1341 3275 1631 3429 
Q 1922 3584 2338 3584 
Q 2397 3584 2469 3576 
Q 2541 3569 2628 3553 
L 2631 2963 
z
" transform="scale(0.015625)"/>
      <path id="DejaVuSans-63" d="M 3122 3366 
L 3122 2828 
Q 2878 2963 2633 3030 
Q 2388 3097 2138 3097 
Q 1578 3097 1268 2742 
Q 959 2388 959 1747 
Q 959 1106 1268 751 
Q 1578 397 2138 397 
Q 2388 397 2633 464 
Q 2878 531 3122 666 
L 3122 134 
Q 2881 22 2623 -34 
Q 2366 -91 2075 -91 
Q 1284 -91 818 406 
Q 353 903 353 1747 
Q 353 2603 823 3093 
Q 1294 3584 2113 3584 
Q 2378 3584 2631 3529 
Q 2884 3475 3122 3366 
z
" transform="scale(0.015625)"/>
      <path id="DejaVuSans-65" d="M 3597 1894 
L 3597 1613 
L 953 1613 
Q 991 1019 1311 708 
Q 1631 397 2203 397 
Q 2534 397 2845 478 
Q 3156 559 3463 722 
L 3463 178 
Q 3153 47 2828 -22 
Q 2503 -91 2169 -91 
Q 1331 -91 842 396 
Q 353 884 353 1716 
Q 353 2575 817 3079 
Q 1281 3584 2069 3584 
Q 2775 3584 3186 3129 
Q 3597 2675 3597 1894 
z
M 3022 2063 
Q 3016 2534 2758 2815 
Q 2500 3097 2075 3097 
Q 1594 3097 1305 2825 
Q 1016 2553 972 2059 
L 3022 2063 
z
" transform="scale(0.015625)"/>
     </defs>
     <use xlink:href="#DejaVuSans-43"/>
     <use xlink:href="#DejaVuSans-6c" x="69.824219"/>
     <use xlink:href="#DejaVuSans-6f" x="97.607422"/>
     <use xlink:href="#DejaVuSans-73" x="158.789062"/>
     <use xlink:href="#DejaVuSans-69" x="210.888672"/>
     <use xlink:href="#DejaVuSans-6e" x="238.671875"/>
     <use xlink:href="#DejaVuSans-67" x="302.050781"/>
     <use xlink:href="#DejaVuSans-20" x="365.527344"/>
     <use xlink:href="#DejaVuSans-50" x="397.314453"/>
     <use xlink:href="#DejaVuSans-72" x="455.867188"/>
     <use xlink:href="#DejaVuSans-69" x="496.980469"/>
     <use xlink:href="#DejaVuSans-63" x="524.763672"/>
     <use xlink:href="#DejaVuSans-65" x="579.744141"/>
    </g>
   </g>
   <g id="legend_1">
    <g id="patch_7">
     <path d="M 911.144856 85.688125 
L 975.876106 85.688125 
Q 977.876106 85.688125 977.876106 83.688125 
L 977.876106 55.331875 
Q 977.876106 53.331875 975.876106 53.331875 
L 911.144856 53.331875 
Q 909.144856 53.331875 909.144856 55.331875 
L 909.144856 83.688125 
Q 909.144856 85.688125 911.144856 85.688125 
z
" style="fill: #ffffff; opacity: 0.8; stroke: #cccccc; stroke-linejoin: miter"/>
    </g>
    <g id="line2d_41">
     <path d="M 913.144856 61.430312 
L 923.144856 61.430312 
L 933.144856 61.430312 
" style="fill: none; stroke: #1f77b4; stroke-width: 1.5; stroke-linecap: square"/>
    </g>
    <g id="text_9">
     <!-- CLOSE -->
     <g transform="translate(941.144856 64.930312)scale(0.1 -0.1)">
      <defs>
       <path id="DejaVuSans-4c" d="M 628 4666 
L 1259 4666 
L 1259 531 
L 3531 531 
L 3531 0 
L 628 0 
L 628 4666 
z
" transform="scale(0.015625)"/>
       <path id="DejaVuSans-4f" d="M 2522 4238 
Q 1834 4238 1429 3725 
Q 1025 3213 1025 2328 
Q 1025 1447 1429 934 
Q 1834 422 2522 422 
Q 3209 422 3611 934 
Q 4013 1447 4013 2328 
Q 4013 3213 3611 3725 
Q 3209 4238 2522 4238 
z
M 2522 4750 
Q 3503 4750 4090 4092 
Q 4678 3434 4678 2328 
Q 4678 1225 4090 567 
Q 3503 -91 2522 -91 
Q 1538 -91 948 565 
Q 359 1222 359 2328 
Q 359 3434 948 4092 
Q 1538 4750 2522 4750 
z
" transform="scale(0.015625)"/>
       <path id="DejaVuSans-53" d="M 3425 4513 
L 3425 3897 
Q 3066 4069 2747 4153 
Q 2428 4238 2131 4238 
Q 1616 4238 1336 4038 
Q 1056 3838 1056 3469 
Q 1056 3159 1242 3001 
Q 1428 2844 1947 2747 
L 2328 2669 
Q 3034 2534 3370 2195 
Q 3706 1856 3706 1288 
Q 3706 609 3251 259 
Q 2797 -91 1919 -91 
Q 1588 -91 1214 -16 
Q 841 59 441 206 
L 441 856 
Q 825 641 1194 531 
Q 1563 422 1919 422 
Q 2459 422 2753 634 
Q 3047 847 3047 1241 
Q 3047 1584 2836 1778 
Q 2625 1972 2144 2069 
L 1759 2144 
Q 1053 2284 737 2584 
Q 422 2884 422 3419 
Q 422 4038 858 4394 
Q 1294 4750 2059 4750 
Q 2388 4750 2728 4690 
Q 3069 4631 3425 4513 
z
" transform="scale(0.015625)"/>
       <path id="DejaVuSans-45" d="M 628 4666 
L 3578 4666 
L 3578 4134 
L 1259 4134 
L 1259 2753 
L 3481 2753 
L 3481 2222 
L 1259 2222 
L 1259 531 
L 3634 531 
L 3634 0 
L 628 0 
L 628 4666 
z
" transform="scale(0.015625)"/>
      </defs>
      <use xlink:href="#DejaVuSans-43"/>
      <use xlink:href="#DejaVuSans-4c" x="69.824219"/>
      <use xlink:href="#DejaVuSans-4f" x="121.912109"/>
      <use xlink:href="#DejaVuSans-53" x="200.623047"/>
      <use xlink:href="#DejaVuSans-45" x="264.099609"/>
     </g>
    </g>
    <g id="line2d_42">
     <path d="M 913.144856 76.108437 
L 923.144856 76.108437 
L 933.144856 76.108437 
" style="fill: none; stroke: #ff7f0e; stroke-width: 1.5; stroke-linecap: square"/>
    </g>
    <g id="text_10">
     <!-- SMA5 -->
     <g transform="translate(941.144856 79.608437)scale(0.1 -0.1)">
      <defs>
       <path id="DejaVuSans-4d" d="M 628 4666 
L 1569 4666 
L 2759 1491 
L 3956 4666 
L 4897 4666 
L 4897 0 
L 4281 0 
L 4281 4097 
L 3078 897 
L 2444 897 
L 1241 4097 
L 1241 0 
L 628 0 
L 628 4666 
z
" transform="scale(0.015625)"/>
       <path id="DejaVuSans-41" d="M 2188 4044 
L 1331 1722 
L 3047 1722 
L 2188 4044 
z
M 1831 4666 
L 2547 4666 
L 4325 0 
L 3669 0 
L 3244 1197 
L 1141 1197 
L 716 0 
L 50 0 
L 1831 4666 
z
" transform="scale(0.015625)"/>
      </defs>
      <use xlink:href="#DejaVuSans-53"/>
      <use xlink:href="#DejaVuSans-4d" x="63.476562"/>
      <use xlink:href="#DejaVuSans-41" x="149.755859"/>
      <use xlink:href="#DejaVuSans-35" x="218.164062"/>
     </g>
    </g>
   </g>
  </g>
  <g id="axes_2">
   <g id="patch_8">
    <path d="M 38.904688 584.521875 
L 982.876106 584.521875 
L 982.876106 331.135938 
L 38.904688 331.135938 
z
" style="fill: #ffffff"/>
   </g>
   <g id="matplotlib.axis_3">
    <g id="xtick_13">
     <g id="line2d_43">
      <path d="M 76.432192 584.521875 
L 76.432192 331.135938 
" clip-path="url(#p2f703c18d6)" style="fill: none; stroke-dasharray: 2.96,1.28; stroke-dashoffset: 0; stroke: #b0b0b0; stroke-width: 0.8"/>
     </g>
     <g id="line2d_44">
      <g>
       <use xlink:href="#mcb99d0aae5" x="76.432192" y="584.521875" style="stroke: #000000; stroke-width: 0.8"/>
      </g>
     </g>
     <g id="text_11">
      <!-- 2022-01 -->
      <g transform="translate(55.540786 599.120312)scale(0.1 -0.1)">
       <defs>
        <path id="DejaVuSans-32" d="M 1228 531 
L 3431 531 
L 3431 0 
L 469 0 
L 469 531 
Q 828 903 1448 1529 
Q 2069 2156 2228 2338 
Q 2531 2678 2651 2914 
Q 2772 3150 2772 3378 
Q 2772 3750 2511 3984 
Q 2250 4219 1831 4219 
Q 1534 4219 1204 4116 
Q 875 4013 500 3803 
L 500 4441 
Q 881 4594 1212 4672 
Q 1544 4750 1819 4750 
Q 2544 4750 2975 4387 
Q 3406 4025 3406 3419 
Q 3406 3131 3298 2873 
Q 3191 2616 2906 2266 
Q 2828 2175 2409 1742 
Q 1991 1309 1228 531 
z
" transform="scale(0.015625)"/>
        <path id="DejaVuSans-2d" d="M 313 2009 
L 1997 2009 
L 1997 1497 
L 313 1497 
L 313 2009 
z
" transform="scale(0.015625)"/>
        <path id="DejaVuSans-31" d="M 794 531 
L 1825 531 
L 1825 4091 
L 703 3866 
L 703 4441 
L 1819 4666 
L 2450 4666 
L 2450 531 
L 3481 531 
L 3481 0 
L 794 0 
L 794 531 
z
" transform="scale(0.015625)"/>
       </defs>
       <use xlink:href="#DejaVuSans-32"/>
       <use xlink:href="#DejaVuSans-30" x="63.623047"/>
       <use xlink:href="#DejaVuSans-32" x="127.246094"/>
       <use xlink:href="#DejaVuSans-32" x="190.869141"/>
       <use xlink:href="#DejaVuSans-2d" x="254.492188"/>
       <use xlink:href="#DejaVuSans-30" x="290.576172"/>
       <use xlink:href="#DejaVuSans-31" x="354.199219"/>
      </g>
     </g>
    </g>
    <g id="xtick_14">
     <g id="line2d_45">
      <path d="M 159.826646 584.521875 
L 159.826646 331.135938 
" clip-path="url(#p2f703c18d6)" style="fill: none; stroke-dasharray: 2.96,1.28; stroke-dashoffset: 0; stroke: #b0b0b0; stroke-width: 0.8"/>
     </g>
     <g id="line2d_46">
      <g>
       <use xlink:href="#mcb99d0aae5" x="159.826646" y="584.521875" style="stroke: #000000; stroke-width: 0.8"/>
      </g>
     </g>
     <g id="text_12">
      <!-- 2022-02 -->
      <g transform="translate(138.93524 599.120312)scale(0.1 -0.1)">
       <use xlink:href="#DejaVuSans-32"/>
       <use xlink:href="#DejaVuSans-30" x="63.623047"/>
       <use xlink:href="#DejaVuSans-32" x="127.246094"/>
       <use xlink:href="#DejaVuSans-32" x="190.869141"/>
       <use xlink:href="#DejaVuSans-2d" x="254.492188"/>
       <use xlink:href="#DejaVuSans-30" x="290.576172"/>
       <use xlink:href="#DejaVuSans-32" x="354.199219"/>
      </g>
     </g>
    </g>
    <g id="xtick_15">
     <g id="line2d_47">
      <path d="M 235.150669 584.521875 
L 235.150669 331.135938 
" clip-path="url(#p2f703c18d6)" style="fill: none; stroke-dasharray: 2.96,1.28; stroke-dashoffset: 0; stroke: #b0b0b0; stroke-width: 0.8"/>
     </g>
     <g id="line2d_48">
      <g>
       <use xlink:href="#mcb99d0aae5" x="235.150669" y="584.521875" style="stroke: #000000; stroke-width: 0.8"/>
      </g>
     </g>
     <g id="text_13">
      <!-- 2022-03 -->
      <g transform="translate(214.259263 599.120312)scale(0.1 -0.1)">
       <defs>
        <path id="DejaVuSans-33" d="M 2597 2516 
Q 3050 2419 3304 2112 
Q 3559 1806 3559 1356 
Q 3559 666 3084 287 
Q 2609 -91 1734 -91 
Q 1441 -91 1130 -33 
Q 819 25 488 141 
L 488 750 
Q 750 597 1062 519 
Q 1375 441 1716 441 
Q 2309 441 2620 675 
Q 2931 909 2931 1356 
Q 2931 1769 2642 2001 
Q 2353 2234 1838 2234 
L 1294 2234 
L 1294 2753 
L 1863 2753 
Q 2328 2753 2575 2939 
Q 2822 3125 2822 3475 
Q 2822 3834 2567 4026 
Q 2313 4219 1838 4219 
Q 1578 4219 1281 4162 
Q 984 4106 628 3988 
L 628 4550 
Q 988 4650 1302 4700 
Q 1616 4750 1894 4750 
Q 2613 4750 3031 4423 
Q 3450 4097 3450 3541 
Q 3450 3153 3228 2886 
Q 3006 2619 2597 2516 
z
" transform="scale(0.015625)"/>
       </defs>
       <use xlink:href="#DejaVuSans-32"/>
       <use xlink:href="#DejaVuSans-30" x="63.623047"/>
       <use xlink:href="#DejaVuSans-32" x="127.246094"/>
       <use xlink:href="#DejaVuSans-32" x="190.869141"/>
       <use xlink:href="#DejaVuSans-2d" x="254.492188"/>
       <use xlink:href="#DejaVuSans-30" x="290.576172"/>
       <use xlink:href="#DejaVuSans-33" x="354.199219"/>
      </g>
     </g>
    </g>
    <g id="xtick_16">
     <g id="line2d_49">
      <path d="M 318.545123 584.521875 
L 318.545123 331.135938 
" clip-path="url(#p2f703c18d6)" style="fill: none; stroke-dasharray: 2.96,1.28; stroke-dashoffset: 0; stroke: #b0b0b0; stroke-width: 0.8"/>
     </g>
     <g id="line2d_50">
      <g>
       <use xlink:href="#mcb99d0aae5" x="318.545123" y="584.521875" style="stroke: #000000; stroke-width: 0.8"/>
      </g>
     </g>
     <g id="text_14">
      <!-- 2022-04 -->
      <g transform="translate(297.653717 599.120312)scale(0.1 -0.1)">
       <use xlink:href="#DejaVuSans-32"/>
       <use xlink:href="#DejaVuSans-30" x="63.623047"/>
       <use xlink:href="#DejaVuSans-32" x="127.246094"/>
       <use xlink:href="#DejaVuSans-32" x="190.869141"/>
       <use xlink:href="#DejaVuSans-2d" x="254.492188"/>
       <use xlink:href="#DejaVuSans-30" x="290.576172"/>
       <use xlink:href="#DejaVuSans-34" x="354.199219"/>
      </g>
     </g>
    </g>
    <g id="xtick_17">
     <g id="line2d_51">
      <path d="M 399.249434 584.521875 
L 399.249434 331.135938 
" clip-path="url(#p2f703c18d6)" style="fill: none; stroke-dasharray: 2.96,1.28; stroke-dashoffset: 0; stroke: #b0b0b0; stroke-width: 0.8"/>
     </g>
     <g id="line2d_52">
      <g>
       <use xlink:href="#mcb99d0aae5" x="399.249434" y="584.521875" style="stroke: #000000; stroke-width: 0.8"/>
      </g>
     </g>
     <g id="text_15">
      <!-- 2022-05 -->
      <g transform="translate(378.358028 599.120312)scale(0.1 -0.1)">
       <use xlink:href="#DejaVuSans-32"/>
       <use xlink:href="#DejaVuSans-30" x="63.623047"/>
       <use xlink:href="#DejaVuSans-32" x="127.246094"/>
       <use xlink:href="#DejaVuSans-32" x="190.869141"/>
       <use xlink:href="#DejaVuSans-2d" x="254.492188"/>
       <use xlink:href="#DejaVuSans-30" x="290.576172"/>
       <use xlink:href="#DejaVuSans-35" x="354.199219"/>
      </g>
     </g>
    </g>
    <g id="xtick_18">
     <g id="line2d_53">
      <path d="M 482.643888 584.521875 
L 482.643888 331.135938 
" clip-path="url(#p2f703c18d6)" style="fill: none; stroke-dasharray: 2.96,1.28; stroke-dashoffset: 0; stroke: #b0b0b0; stroke-width: 0.8"/>
     </g>
     <g id="line2d_54">
      <g>
       <use xlink:href="#mcb99d0aae5" x="482.643888" y="584.521875" style="stroke: #000000; stroke-width: 0.8"/>
      </g>
     </g>
     <g id="text_16">
      <!-- 2022-06 -->
      <g transform="translate(461.752482 599.120312)scale(0.1 -0.1)">
       <use xlink:href="#DejaVuSans-32"/>
       <use xlink:href="#DejaVuSans-30" x="63.623047"/>
       <use xlink:href="#DejaVuSans-32" x="127.246094"/>
       <use xlink:href="#DejaVuSans-32" x="190.869141"/>
       <use xlink:href="#DejaVuSans-2d" x="254.492188"/>
       <use xlink:href="#DejaVuSans-30" x="290.576172"/>
       <use xlink:href="#DejaVuSans-36" x="354.199219"/>
      </g>
     </g>
    </g>
    <g id="xtick_19">
     <g id="line2d_55">
      <path d="M 563.348198 584.521875 
L 563.348198 331.135938 
" clip-path="url(#p2f703c18d6)" style="fill: none; stroke-dasharray: 2.96,1.28; stroke-dashoffset: 0; stroke: #b0b0b0; stroke-width: 0.8"/>
     </g>
     <g id="line2d_56">
      <g>
       <use xlink:href="#mcb99d0aae5" x="563.348198" y="584.521875" style="stroke: #000000; stroke-width: 0.8"/>
      </g>
     </g>
     <g id="text_17">
      <!-- 2022-07 -->
      <g transform="translate(542.456792 599.120312)scale(0.1 -0.1)">
       <use xlink:href="#DejaVuSans-32"/>
       <use xlink:href="#DejaVuSans-30" x="63.623047"/>
       <use xlink:href="#DejaVuSans-32" x="127.246094"/>
       <use xlink:href="#DejaVuSans-32" x="190.869141"/>
       <use xlink:href="#DejaVuSans-2d" x="254.492188"/>
       <use xlink:href="#DejaVuSans-30" x="290.576172"/>
       <use xlink:href="#DejaVuSans-37" x="354.199219"/>
      </g>
     </g>
    </g>
    <g id="xtick_20">
     <g id="line2d_57">
      <path d="M 646.742653 584.521875 
L 646.742653 331.135938 
" clip-path="url(#p2f703c18d6)" style="fill: none; stroke-dasharray: 2.96,1.28; stroke-dashoffset: 0; stroke: #b0b0b0; stroke-width: 0.8"/>
     </g>
     <g id="line2d_58">
      <g>
       <use xlink:href="#mcb99d0aae5" x="646.742653" y="584.521875" style="stroke: #000000; stroke-width: 0.8"/>
      </g>
     </g>
     <g id="text_18">
      <!-- 2022-08 -->
      <g transform="translate(625.851246 599.120312)scale(0.1 -0.1)">
       <defs>
        <path id="DejaVuSans-38" d="M 2034 2216 
Q 1584 2216 1326 1975 
Q 1069 1734 1069 1313 
Q 1069 891 1326 650 
Q 1584 409 2034 409 
Q 2484 409 2743 651 
Q 3003 894 3003 1313 
Q 3003 1734 2745 1975 
Q 2488 2216 2034 2216 
z
M 1403 2484 
Q 997 2584 770 2862 
Q 544 3141 544 3541 
Q 544 4100 942 4425 
Q 1341 4750 2034 4750 
Q 2731 4750 3128 4425 
Q 3525 4100 3525 3541 
Q 3525 3141 3298 2862 
Q 3072 2584 2669 2484 
Q 3125 2378 3379 2068 
Q 3634 1759 3634 1313 
Q 3634 634 3220 271 
Q 2806 -91 2034 -91 
Q 1263 -91 848 271 
Q 434 634 434 1313 
Q 434 1759 690 2068 
Q 947 2378 1403 2484 
z
M 1172 3481 
Q 1172 3119 1398 2916 
Q 1625 2713 2034 2713 
Q 2441 2713 2670 2916 
Q 2900 3119 2900 3481 
Q 2900 3844 2670 4047 
Q 2441 4250 2034 4250 
Q 1625 4250 1398 4047 
Q 1172 3844 1172 3481 
z
" transform="scale(0.015625)"/>
       </defs>
       <use xlink:href="#DejaVuSans-32"/>
       <use xlink:href="#DejaVuSans-30" x="63.623047"/>
       <use xlink:href="#DejaVuSans-32" x="127.246094"/>
       <use xlink:href="#DejaVuSans-32" x="190.869141"/>
       <use xlink:href="#DejaVuSans-2d" x="254.492188"/>
       <use xlink:href="#DejaVuSans-30" x="290.576172"/>
       <use xlink:href="#DejaVuSans-38" x="354.199219"/>
      </g>
     </g>
    </g>
    <g id="xtick_21">
     <g id="line2d_59">
      <path d="M 730.137107 584.521875 
L 730.137107 331.135938 
" clip-path="url(#p2f703c18d6)" style="fill: none; stroke-dasharray: 2.96,1.28; stroke-dashoffset: 0; stroke: #b0b0b0; stroke-width: 0.8"/>
     </g>
     <g id="line2d_60">
      <g>
       <use xlink:href="#mcb99d0aae5" x="730.137107" y="584.521875" style="stroke: #000000; stroke-width: 0.8"/>
      </g>
     </g>
     <g id="text_19">
      <!-- 2022-09 -->
      <g transform="translate(709.245701 599.120312)scale(0.1 -0.1)">
       <defs>
        <path id="DejaVuSans-39" d="M 703 97 
L 703 672 
Q 941 559 1184 500 
Q 1428 441 1663 441 
Q 2288 441 2617 861 
Q 2947 1281 2994 2138 
Q 2813 1869 2534 1725 
Q 2256 1581 1919 1581 
Q 1219 1581 811 2004 
Q 403 2428 403 3163 
Q 403 3881 828 4315 
Q 1253 4750 1959 4750 
Q 2769 4750 3195 4129 
Q 3622 3509 3622 2328 
Q 3622 1225 3098 567 
Q 2575 -91 1691 -91 
Q 1453 -91 1209 -44 
Q 966 3 703 97 
z
M 1959 2075 
Q 2384 2075 2632 2365 
Q 2881 2656 2881 3163 
Q 2881 3666 2632 3958 
Q 2384 4250 1959 4250 
Q 1534 4250 1286 3958 
Q 1038 3666 1038 3163 
Q 1038 2656 1286 2365 
Q 1534 2075 1959 2075 
z
" transform="scale(0.015625)"/>
       </defs>
       <use xlink:href="#DejaVuSans-32"/>
       <use xlink:href="#DejaVuSans-30" x="63.623047"/>
       <use xlink:href="#DejaVuSans-32" x="127.246094"/>
       <use xlink:href="#DejaVuSans-32" x="190.869141"/>
       <use xlink:href="#DejaVuSans-2d" x="254.492188"/>
       <use xlink:href="#DejaVuSans-30" x="290.576172"/>
       <use xlink:href="#DejaVuSans-39" x="354.199219"/>
      </g>
     </g>
    </g>
    <g id="xtick_22">
     <g id="line2d_61">
      <path d="M 810.841417 584.521875 
L 810.841417 331.135938 
" clip-path="url(#p2f703c18d6)" style="fill: none; stroke-dasharray: 2.96,1.28; stroke-dashoffset: 0; stroke: #b0b0b0; stroke-width: 0.8"/>
     </g>
     <g id="line2d_62">
      <g>
       <use xlink:href="#mcb99d0aae5" x="810.841417" y="584.521875" style="stroke: #000000; stroke-width: 0.8"/>
      </g>
     </g>
     <g id="text_20">
      <!-- 2022-10 -->
      <g transform="translate(789.950011 599.120312)scale(0.1 -0.1)">
       <use xlink:href="#DejaVuSans-32"/>
       <use xlink:href="#DejaVuSans-30" x="63.623047"/>
       <use xlink:href="#DejaVuSans-32" x="127.246094"/>
       <use xlink:href="#DejaVuSans-32" x="190.869141"/>
       <use xlink:href="#DejaVuSans-2d" x="254.492188"/>
       <use xlink:href="#DejaVuSans-31" x="290.576172"/>
       <use xlink:href="#DejaVuSans-30" x="354.199219"/>
      </g>
     </g>
    </g>
    <g id="xtick_23">
     <g id="line2d_63">
      <path d="M 894.235872 584.521875 
L 894.235872 331.135938 
" clip-path="url(#p2f703c18d6)" style="fill: none; stroke-dasharray: 2.96,1.28; stroke-dashoffset: 0; stroke: #b0b0b0; stroke-width: 0.8"/>
     </g>
     <g id="line2d_64">
      <g>
       <use xlink:href="#mcb99d0aae5" x="894.235872" y="584.521875" style="stroke: #000000; stroke-width: 0.8"/>
      </g>
     </g>
     <g id="text_21">
      <!-- 2022-11 -->
      <g transform="translate(873.344465 599.120312)scale(0.1 -0.1)">
       <use xlink:href="#DejaVuSans-32"/>
       <use xlink:href="#DejaVuSans-30" x="63.623047"/>
       <use xlink:href="#DejaVuSans-32" x="127.246094"/>
       <use xlink:href="#DejaVuSans-32" x="190.869141"/>
       <use xlink:href="#DejaVuSans-2d" x="254.492188"/>
       <use xlink:href="#DejaVuSans-31" x="290.576172"/>
       <use xlink:href="#DejaVuSans-31" x="354.199219"/>
      </g>
     </g>
    </g>
    <g id="xtick_24">
     <g id="line2d_65">
      <path d="M 974.940182 584.521875 
L 974.940182 331.135938 
" clip-path="url(#p2f703c18d6)" style="fill: none; stroke-dasharray: 2.96,1.28; stroke-dashoffset: 0; stroke: #b0b0b0; stroke-width: 0.8"/>
     </g>
     <g id="line2d_66">
      <g>
       <use xlink:href="#mcb99d0aae5" x="974.940182" y="584.521875" style="stroke: #000000; stroke-width: 0.8"/>
      </g>
     </g>
     <g id="text_22">
      <!-- 2022-12 -->
      <g transform="translate(954.048776 599.120312)scale(0.1 -0.1)">
       <use xlink:href="#DejaVuSans-32"/>
       <use xlink:href="#DejaVuSans-30" x="63.623047"/>
       <use xlink:href="#DejaVuSans-32" x="127.246094"/>
       <use xlink:href="#DejaVuSans-32" x="190.869141"/>
       <use xlink:href="#DejaVuSans-2d" x="254.492188"/>
       <use xlink:href="#DejaVuSans-31" x="290.576172"/>
       <use xlink:href="#DejaVuSans-32" x="354.199219"/>
      </g>
     </g>
    </g>
   </g>
   <g id="matplotlib.axis_4">
    <g id="ytick_8">
     <g id="line2d_67">
      <path d="M 38.904688 565.415621 
L 982.876106 565.415621 
" clip-path="url(#p2f703c18d6)" style="fill: none; stroke-dasharray: 2.96,1.28; stroke-dashoffset: 0; stroke: #b0b0b0; stroke-width: 0.8"/>
     </g>
     <g id="line2d_68">
      <g>
       <use xlink:href="#m3103e3f203" x="38.904688" y="565.415621" style="stroke: #000000; stroke-width: 0.8"/>
      </g>
     </g>
     <g id="text_23">
      <!-- −25 -->
      <g transform="translate(10.8 569.214839)scale(0.1 -0.1)">
       <defs>
        <path id="DejaVuSans-2212" d="M 678 2272 
L 4684 2272 
L 4684 1741 
L 678 1741 
L 678 2272 
z
" transform="scale(0.015625)"/>
       </defs>
       <use xlink:href="#DejaVuSans-2212"/>
       <use xlink:href="#DejaVuSans-32" x="83.789062"/>
       <use xlink:href="#DejaVuSans-35" x="147.412109"/>
      </g>
     </g>
    </g>
    <g id="ytick_9">
     <g id="line2d_69">
      <path d="M 38.904688 532.373752 
L 982.876106 532.373752 
" clip-path="url(#p2f703c18d6)" style="fill: none; stroke-dasharray: 2.96,1.28; stroke-dashoffset: 0; stroke: #b0b0b0; stroke-width: 0.8"/>
     </g>
     <g id="line2d_70">
      <g>
       <use xlink:href="#m3103e3f203" x="38.904688" y="532.373752" style="stroke: #000000; stroke-width: 0.8"/>
      </g>
     </g>
     <g id="text_24">
      <!-- −20 -->
      <g transform="translate(10.8 536.17297)scale(0.1 -0.1)">
       <use xlink:href="#DejaVuSans-2212"/>
       <use xlink:href="#DejaVuSans-32" x="83.789062"/>
       <use xlink:href="#DejaVuSans-30" x="147.412109"/>
      </g>
     </g>
    </g>
    <g id="ytick_10">
     <g id="line2d_71">
      <path d="M 38.904688 499.331883 
L 982.876106 499.331883 
" clip-path="url(#p2f703c18d6)" style="fill: none; stroke-dasharray: 2.96,1.28; stroke-dashoffset: 0; stroke: #b0b0b0; stroke-width: 0.8"/>
     </g>
     <g id="line2d_72">
      <g>
       <use xlink:href="#m3103e3f203" x="38.904688" y="499.331883" style="stroke: #000000; stroke-width: 0.8"/>
      </g>
     </g>
     <g id="text_25">
      <!-- −15 -->
      <g transform="translate(10.8 503.131101)scale(0.1 -0.1)">
       <use xlink:href="#DejaVuSans-2212"/>
       <use xlink:href="#DejaVuSans-31" x="83.789062"/>
       <use xlink:href="#DejaVuSans-35" x="147.412109"/>
      </g>
     </g>
    </g>
    <g id="ytick_11">
     <g id="line2d_73">
      <path d="M 38.904688 466.290014 
L 982.876106 466.290014 
" clip-path="url(#p2f703c18d6)" style="fill: none; stroke-dasharray: 2.96,1.28; stroke-dashoffset: 0; stroke: #b0b0b0; stroke-width: 0.8"/>
     </g>
     <g id="line2d_74">
      <g>
       <use xlink:href="#m3103e3f203" x="38.904688" y="466.290014" style="stroke: #000000; stroke-width: 0.8"/>
      </g>
     </g>
     <g id="text_26">
      <!-- −10 -->
      <g transform="translate(10.8 470.089232)scale(0.1 -0.1)">
       <use xlink:href="#DejaVuSans-2212"/>
       <use xlink:href="#DejaVuSans-31" x="83.789062"/>
       <use xlink:href="#DejaVuSans-30" x="147.412109"/>
      </g>
     </g>
    </g>
    <g id="ytick_12">
     <g id="line2d_75">
      <path d="M 38.904688 433.248145 
L 982.876106 433.248145 
" clip-path="url(#p2f703c18d6)" style="fill: none; stroke-dasharray: 2.96,1.28; stroke-dashoffset: 0; stroke: #b0b0b0; stroke-width: 0.8"/>
     </g>
     <g id="line2d_76">
      <g>
       <use xlink:href="#m3103e3f203" x="38.904688" y="433.248145" style="stroke: #000000; stroke-width: 0.8"/>
      </g>
     </g>
     <g id="text_27">
      <!-- −5 -->
      <g transform="translate(17.1625 437.047363)scale(0.1 -0.1)">
       <use xlink:href="#DejaVuSans-2212"/>
       <use xlink:href="#DejaVuSans-35" x="83.789062"/>
      </g>
     </g>
    </g>
    <g id="ytick_13">
     <g id="line2d_77">
      <path d="M 38.904688 400.206276 
L 982.876106 400.206276 
" clip-path="url(#p2f703c18d6)" style="fill: none; stroke-dasharray: 2.96,1.28; stroke-dashoffset: 0; stroke: #b0b0b0; stroke-width: 0.8"/>
     </g>
     <g id="line2d_78">
      <g>
       <use xlink:href="#m3103e3f203" x="38.904688" y="400.206276" style="stroke: #000000; stroke-width: 0.8"/>
      </g>
     </g>
     <g id="text_28">
      <!-- 0 -->
      <g transform="translate(25.542188 404.005495)scale(0.1 -0.1)">
       <use xlink:href="#DejaVuSans-30"/>
      </g>
     </g>
    </g>
    <g id="ytick_14">
     <g id="line2d_79">
      <path d="M 38.904688 367.164407 
L 982.876106 367.164407 
" clip-path="url(#p2f703c18d6)" style="fill: none; stroke-dasharray: 2.96,1.28; stroke-dashoffset: 0; stroke: #b0b0b0; stroke-width: 0.8"/>
     </g>
     <g id="line2d_80">
      <g>
       <use xlink:href="#m3103e3f203" x="38.904688" y="367.164407" style="stroke: #000000; stroke-width: 0.8"/>
      </g>
     </g>
     <g id="text_29">
      <!-- 5 -->
      <g transform="translate(25.542188 370.963626)scale(0.1 -0.1)">
       <use xlink:href="#DejaVuSans-35"/>
      </g>
     </g>
    </g>
    <g id="ytick_15">
     <g id="line2d_81">
      <path d="M 38.904688 334.122538 
L 982.876106 334.122538 
" clip-path="url(#p2f703c18d6)" style="fill: none; stroke-dasharray: 2.96,1.28; stroke-dashoffset: 0; stroke: #b0b0b0; stroke-width: 0.8"/>
     </g>
     <g id="line2d_82">
      <g>
       <use xlink:href="#m3103e3f203" x="38.904688" y="334.122538" style="stroke: #000000; stroke-width: 0.8"/>
      </g>
     </g>
     <g id="text_30">
      <!-- 10 -->
      <g transform="translate(19.179688 337.921757)scale(0.1 -0.1)">
       <use xlink:href="#DejaVuSans-31"/>
       <use xlink:href="#DejaVuSans-30" x="63.623047"/>
      </g>
     </g>
    </g>
   </g>
   <g id="line2d_83">
    <path d="M 81.812479 400.206276 
L 84.502623 399.791134 
L 87.192767 401.316705 
L 89.88291 403.832446 
L 92.573054 403.611087 
L 100.643485 408.500425 
L 103.333629 411.29855 
L 106.023772 413.87645 
L 108.713916 429.092803 
L 111.40406 442.853521 
L 119.474491 449.787496 
L 122.164634 459.042705 
L 124.854778 469.661662 
L 127.544922 478.986839 
L 130.235066 488.994597 
L 138.305497 508.418149 
L 140.99564 525.998426 
L 149.066071 555.40168 
L 157.136502 552.431023 
L 159.826646 546.540652 
L 162.51679 535.205577 
L 165.206933 529.191608 
L 167.897077 525.951233 
L 175.967508 528.727813 
L 178.657652 527.875015 
L 181.347796 521.643519 
L 184.037939 513.148342 
L 186.728083 511.01846 
L 194.798514 517.548952 
L 200.178801 504.025983 
L 202.868945 497.022224 
L 205.559089 491.634866 
L 213.62952 482.23804 
L 216.319663 477.247865 
L 219.009807 470.984969 
L 221.699951 480.280814 
L 224.390094 477.53064 
L 232.460525 474.212805 
L 237.840813 471.070483 
L 240.530957 460.508634 
L 243.2211 448.61944 
L 251.291531 440.517555 
L 253.981675 425.726448 
L 256.671819 414.852006 
L 259.361962 404.754752 
L 262.052106 397.850751 
L 270.122537 386.305431 
L 272.812681 382.821793 
L 275.502824 374.832257 
L 278.192968 367.335559 
L 288.953543 362.461735 
L 291.643687 353.854314 
L 294.33383 347.0433 
L 297.023974 342.65348 
L 299.714118 343.623559 
L 307.784549 346.672193 
L 310.474692 348.470965 
L 313.164836 351.358473 
L 315.85498 358.829812 
L 318.545123 359.977039 
L 326.615554 359.346134 
L 329.305698 362.695297 
L 331.995842 368.680639 
L 334.685985 380.385495 
L 337.376129 388.313214 
L 345.44656 401.24271 
L 348.136704 417.867025 
L 350.826848 430.427164 
L 364.277566 450.739419 
L 366.96771 470.357313 
L 369.657853 481.748309 
L 372.347997 488.323889 
L 375.038141 493.259298 
L 383.108572 500.455068 
L 385.798715 505.002286 
L 388.488859 512.787431 
L 391.179003 515.709561 
L 393.869146 523.916455 
L 401.939578 536.197583 
L 407.319865 545.979545 
L 410.010009 547.034068 
L 412.700152 554.635338 
L 420.770583 559.856978 
L 426.150871 570.221267 
L 428.841014 571.354772 
L 431.531158 573.004332 
L 439.601589 572.669552 
L 442.291733 560.618295 
L 444.981876 552.192693 
L 447.67202 559.715404 
L 450.362164 559.339699 
L 458.432595 553.859922 
L 461.122739 551.002988 
L 463.812882 555.001973 
L 466.503026 551.892182 
L 469.19317 540.56085 
L 477.263601 525.18293 
L 479.953744 510.761914 
L 482.643888 502.050385 
L 488.024175 482.851471 
L 496.094606 475.740447 
L 498.78475 472.233306 
L 501.474894 467.215358 
L 504.165037 460.069512 
L 506.855181 461.220143 
L 514.925612 469.253146 
L 517.615756 474.865326 
L 520.3059 481.468522 
L 522.996043 495.097924 
L 525.686187 513.708003 
L 533.756618 522.013995 
L 536.446762 521.598841 
L 539.136905 527.216901 
L 541.827049 526.059627 
L 544.517193 523.876816 
L 552.587624 517.515504 
L 555.277767 509.955969 
L 557.967911 506.208836 
L 560.658055 504.542522 
L 563.348198 498.911561 
L 571.41863 494.271108 
L 574.108773 493.09525 
L 576.798917 489.823938 
L 579.489061 483.735749 
L 582.179204 478.910031 
L 592.939779 478.184103 
L 595.629923 478.420399 
L 598.320066 480.481715 
L 601.01021 485.188201 
L 609.080641 482.161238 
L 611.770785 478.381288 
L 617.151072 463.636792 
L 619.841216 458.704677 
L 627.911647 452.091577 
L 630.601791 451.379769 
L 633.291934 449.474535 
L 635.982078 442.491462 
L 638.672222 432.479409 
L 646.742653 421.473492 
L 649.432796 412.291968 
L 657.503227 385.90056 
L 665.573658 381.174435 
L 670.953946 380.693326 
L 673.64409 376.163334 
L 676.334233 374.127015 
L 687.094808 372.301649 
L 689.784952 368.052915 
L 692.475095 369.307841 
L 695.165239 372.013784 
L 703.23567 381.018262 
L 705.925814 390.05771 
L 708.615957 397.519133 
L 711.306101 403.896402 
L 713.996245 407.770104 
L 722.066676 417.519247 
L 724.756819 420.110274 
L 730.137107 423.547658 
L 732.827251 427.424462 
L 740.897682 431.311423 
L 743.587825 434.555808 
L 746.277969 435.12477 
L 748.968113 432.352285 
L 751.658256 427.520616 
L 759.728687 420.867106 
L 762.418831 415.076136 
L 765.108975 413.717078 
L 767.799118 413.157274 
L 770.489262 419.635076 
L 778.559693 424.330718 
L 781.249837 426.179585 
L 783.939981 429.519864 
L 786.630124 433.27889 
L 789.320268 437.744887 
L 797.390699 440.578874 
L 800.080843 440.44136 
L 802.770986 440.059608 
L 805.46113 442.073954 
L 808.151274 442.410633 
L 816.221705 442.061661 
L 818.911848 435.512467 
L 824.292136 427.527673 
L 826.982279 422.04111 
L 835.05271 415.806767 
L 837.742854 414.381956 
L 840.432998 411.232674 
L 843.123142 423.848299 
L 845.813285 434.411806 
L 853.883716 443.458011 
L 856.57386 447.838509 
L 859.264004 451.38666 
L 861.954147 451.764584 
L 864.644291 450.919597 
L 872.714722 448.546239 
L 875.404866 446.162246 
L 880.785153 444.825058 
L 883.475297 442.952629 
L 891.545728 439.258848 
L 896.926015 426.614741 
L 899.616159 424.312697 
L 902.306303 421.153699 
L 910.376734 417.939177 
L 915.757021 415.508534 
L 918.447165 414.510484 
L 921.137308 407.872157 
L 929.207739 404.244394 
L 934.588027 397.939723 
L 937.27817 396.327452 
L 939.968314 396.637255 
L 939.968314 396.637255 
" clip-path="url(#p2f703c18d6)" style="fill: none; stroke: #1f77b4; stroke-width: 1.5; stroke-linecap: square"/>
   </g>
   <g id="line2d_84">
    <path d="M 81.812479 400.206276 
L 84.502623 399.975642 
L 87.192767 400.525258 
L 89.88291 401.645579 
L 100.643485 403.929833 
L 106.023772 407.736865 
L 108.713916 412.670193 
L 111.40406 419.43301 
L 119.474491 426.074398 
L 122.164634 433.154608 
L 127.544922 448.852587 
L 130.235066 457.173765 
L 138.305497 467.719477 
L 140.99564 479.643778 
L 146.375928 493.035632 
L 149.066071 505.691228 
L 157.136502 515.148219 
L 159.826646 521.485153 
L 162.51679 524.249636 
L 165.206933 525.2439 
L 167.897077 525.386037 
L 175.967508 526.056927 
L 178.657652 526.421647 
L 181.347796 525.463705 
L 186.728083 520.596667 
L 194.798514 519.986368 
L 197.488658 518.152494 
L 200.178801 515.324951 
L 202.868945 511.662084 
L 205.559089 507.654609 
L 213.62952 502.569232 
L 216.319663 497.503315 
L 219.009807 492.198268 
L 224.390094 487.357146 
L 232.460525 484.727928 
L 237.840813 481.996149 
L 240.530957 477.69828 
L 243.2211 471.882116 
L 251.291531 465.608862 
L 253.981675 457.632032 
L 262.052106 431.73899 
L 270.122537 422.652116 
L 278.192968 398.839128 
L 288.953543 391.563597 
L 294.33383 376.625982 
L 297.023974 369.831456 
L 299.714118 364.589861 
L 307.784549 361.006319 
L 310.474692 358.499243 
L 313.164836 357.071087 
L 315.85498 357.422833 
L 318.545123 357.933674 
L 326.615554 358.216167 
L 329.305698 359.111993 
L 331.995842 361.025723 
L 334.685985 364.897679 
L 337.376129 369.580788 
L 345.44656 375.913174 
L 348.136704 384.303946 
L 350.826848 393.528591 
L 364.277566 404.970758 
L 369.657853 430.788119 
L 372.347997 442.295274 
L 375.038141 452.488079 
L 383.108572 462.081478 
L 388.488859 479.089998 
L 393.869146 493.91442 
L 401.939578 502.371053 
L 407.319865 511.092751 
L 412.700152 525.551879 
L 420.770583 532.412899 
L 426.150871 545.192348 
L 428.841014 550.424833 
L 431.531158 554.940733 
L 439.601589 558.486497 
L 442.291733 558.912856 
L 444.981876 557.568824 
L 447.67202 557.99814 
L 450.362164 558.266452 
L 458.432595 557.385146 
L 461.122739 556.108714 
L 463.812882 555.887366 
L 466.503026 555.088329 
L 469.19317 552.182833 
L 477.263601 546.782853 
L 482.643888 532.073009 
L 488.024175 515.860653 
L 496.094606 507.836612 
L 498.78475 500.715951 
L 504.165037 487.226568 
L 506.855181 482.025283 
L 517.615756 478.54975 
L 520.3059 479.133504 
L 522.996043 482.326388 
L 525.686187 488.602711 
L 533.756618 495.284968 
L 539.136905 505.881574 
L 541.827049 509.917185 
L 544.517193 512.709111 
L 552.587624 513.67039 
L 555.277767 512.927506 
L 560.658055 510.175522 
L 563.348198 507.92273 
L 571.41863 505.192405 
L 574.108773 502.772974 
L 576.798917 500.183167 
L 579.489061 496.893683 
L 582.179204 493.296953 
L 590.249635 490.316903 
L 592.939779 487.890343 
L 595.629923 485.996354 
L 598.320066 484.893426 
L 601.01021 484.952381 
L 609.080641 484.394153 
L 611.770785 483.19158 
L 614.460928 480.77902 
L 617.151072 477.350574 
L 619.841216 473.621395 
L 627.911647 469.315431 
L 630.601791 465.728299 
L 633.291934 462.477546 
L 635.982078 458.480329 
L 638.672222 453.280145 
L 646.742653 446.918814 
L 649.432796 439.993445 
L 654.813084 425.144216 
L 657.503227 417.295485 
L 665.573658 410.071275 
L 670.953946 404.195685 
L 673.64409 398.589215 
L 676.334233 393.696775 
L 687.094808 389.41775 
L 689.784952 385.144783 
L 692.475095 381.977395 
L 695.165239 379.984672 
L 703.23567 380.19139 
L 705.925814 382.164654 
L 708.615957 385.23555 
L 713.996245 392.728197 
L 722.066676 397.686407 
L 724.756819 402.171181 
L 730.137107 406.446476 
L 732.827251 410.642073 
L 740.897682 414.775943 
L 743.587825 418.731916 
L 746.277969 422.010487 
L 748.968113 424.078846 
L 751.658256 424.7672 
L 759.728687 423.987182 
L 765.108975 420.507394 
L 767.799118 419.03737 
L 770.489262 419.156911 
L 778.559693 420.191672 
L 781.249837 421.389255 
L 783.939981 423.015377 
L 786.630124 425.068079 
L 789.320268 427.603441 
L 797.390699 430.198528 
L 800.080843 432.247094 
L 808.151274 436.852101 
L 816.221705 437.894013 
L 818.911848 437.417704 
L 824.292136 435.439698 
L 826.982279 432.75998 
L 835.05271 429.369338 
L 840.432998 423.344024 
L 843.123142 423.444879 
L 845.813285 425.638264 
L 853.883716 429.202214 
L 859.264004 436.62091 
L 861.954147 439.649645 
L 864.644291 441.903636 
L 872.714722 443.232156 
L 875.404866 443.818174 
L 880.785153 444.019551 
L 883.475297 443.806167 
L 891.545728 442.896703 
L 894.235872 440.884544 
L 902.306303 432.460345 
L 910.376734 429.556111 
L 915.757021 426.746596 
L 918.447165 424.299373 
L 921.137308 421.01393 
L 929.207739 417.660023 
L 934.588027 411.056729 
L 937.27817 408.110874 
L 939.968314 405.81615 
L 939.968314 405.81615 
" clip-path="url(#p2f703c18d6)" style="fill: none; stroke: #ff7f0e; stroke-width: 1.5; stroke-linecap: square"/>
   </g>
   <g id="patch_9">
    <path d="M 38.904688 584.521875 
L 38.904688 331.135938 
" style="fill: none; stroke: #000000; stroke-width: 0.8; stroke-linejoin: miter; stroke-linecap: square"/>
   </g>
   <g id="patch_10">
    <path d="M 982.876106 584.521875 
L 982.876106 331.135938 
" style="fill: none; stroke: #000000; stroke-width: 0.8; stroke-linejoin: miter; stroke-linecap: square"/>
   </g>
   <g id="patch_11">
    <path d="M 38.904687 584.521875 
L 982.876106 584.521875 
" style="fill: none; stroke: #000000; stroke-width: 0.8; stroke-linejoin: miter; stroke-linecap: square"/>
   </g>
   <g id="patch_12">
    <path d="M 38.904687 331.135938 
L 982.876106 331.135938 
" style="fill: none; stroke: #000000; stroke-width: 0.8; stroke-linejoin: miter; stroke-linecap: square"/>
   </g>
   <g id="text_31">
    <!-- MACD -->
    <g transform="translate(492.904459 325.135938)scale(0.12 -0.12)">
     <defs>
      <path id="DejaVuSans-44" d="M 1259 4147 
L 1259 519 
L 2022 519 
Q 2988 519 3436 956 
Q 3884 1394 3884 2338 
Q 3884 3275 3436 3711 
Q 2988 4147 2022 4147 
L 1259 4147 
z
M 628 4666 
L 1925 4666 
Q 3281 4666 3915 4102 
Q 4550 3538 4550 2338 
Q 4550 1131 3912 565 
Q 3275 0 1925 0 
L 628 0 
L 628 4666 
z
" transform="scale(0.015625)"/>
     </defs>
     <use xlink:href="#DejaVuSans-4d"/>
     <use xlink:href="#DejaVuSans-41" x="86.279297"/>
     <use xlink:href="#DejaVuSans-43" x="152.9375"/>
     <use xlink:href="#DejaVuSans-44" x="222.761719"/>
    </g>
   </g>
   <g id="legend_2">
    <g id="patch_13">
     <path d="M 913.899543 368.492188 
L 975.876106 368.492188 
Q 977.876106 368.492188 977.876106 366.492188 
L 977.876106 338.135938 
Q 977.876106 336.135938 975.876106 336.135938 
L 913.899543 336.135938 
Q 911.899543 336.135938 911.899543 338.135938 
L 911.899543 366.492188 
Q 911.899543 368.492188 913.899543 368.492188 
z
" style="fill: #ffffff; opacity: 0.8; stroke: #cccccc; stroke-linejoin: miter"/>
    </g>
    <g id="line2d_85">
     <path d="M 915.899543 344.234375 
L 925.899543 344.234375 
L 935.899543 344.234375 
" style="fill: none; stroke: #1f77b4; stroke-width: 1.5; stroke-linecap: square"/>
    </g>
    <g id="text_32">
     <!-- MACD -->
     <g transform="translate(943.899543 347.734375)scale(0.1 -0.1)">
      <use xlink:href="#DejaVuSans-4d"/>
      <use xlink:href="#DejaVuSans-41" x="86.279297"/>
      <use xlink:href="#DejaVuSans-43" x="152.9375"/>
      <use xlink:href="#DejaVuSans-44" x="222.761719"/>
     </g>
    </g>
    <g id="line2d_86">
     <path d="M 915.899543 358.9125 
L 925.899543 358.9125 
L 935.899543 358.9125 
" style="fill: none; stroke: #ff7f0e; stroke-width: 1.5; stroke-linecap: square"/>
    </g>
    <g id="text_33">
     <!-- SIG -->
     <g transform="translate(943.899543 362.4125)scale(0.1 -0.1)">
      <defs>
       <path id="DejaVuSans-49" d="M 628 4666 
L 1259 4666 
L 1259 0 
L 628 0 
L 628 4666 
z
" transform="scale(0.015625)"/>
       <path id="DejaVuSans-47" d="M 3809 666 
L 3809 1919 
L 2778 1919 
L 2778 2438 
L 4434 2438 
L 4434 434 
Q 4069 175 3628 42 
Q 3188 -91 2688 -91 
Q 1594 -91 976 548 
Q 359 1188 359 2328 
Q 359 3472 976 4111 
Q 1594 4750 2688 4750 
Q 3144 4750 3555 4637 
Q 3966 4525 4313 4306 
L 4313 3634 
Q 3963 3931 3569 4081 
Q 3175 4231 2741 4231 
Q 1884 4231 1454 3753 
Q 1025 3275 1025 2328 
Q 1025 1384 1454 906 
Q 1884 428 2741 428 
Q 3075 428 3337 486 
Q 3600 544 3809 666 
z
" transform="scale(0.015625)"/>
      </defs>
      <use xlink:href="#DejaVuSans-53"/>
      <use xlink:href="#DejaVuSans-49" x="63.476562"/>
      <use xlink:href="#DejaVuSans-47" x="92.96875"/>
     </g>
    </g>
   </g>
  </g>
  <g id="text_34">
   <!-- Wipro Limited -->
   <g transform="translate(462.4425 21.358125)scale(0.12 -0.12)">
    <defs>
     <path id="DejaVuSans-57" d="M 213 4666 
L 850 4666 
L 1831 722 
L 2809 4666 
L 3519 4666 
L 4500 722 
L 5478 4666 
L 6119 4666 
L 4947 0 
L 4153 0 
L 3169 4050 
L 2175 0 
L 1381 0 
L 213 4666 
z
" transform="scale(0.015625)"/>
     <path id="DejaVuSans-70" d="M 1159 525 
L 1159 -1331 
L 581 -1331 
L 581 3500 
L 1159 3500 
L 1159 2969 
Q 1341 3281 1617 3432 
Q 1894 3584 2278 3584 
Q 2916 3584 3314 3078 
Q 3713 2572 3713 1747 
Q 3713 922 3314 415 
Q 2916 -91 2278 -91 
Q 1894 -91 1617 61 
Q 1341 213 1159 525 
z
M 3116 1747 
Q 3116 2381 2855 2742 
Q 2594 3103 2138 3103 
Q 1681 3103 1420 2742 
Q 1159 2381 1159 1747 
Q 1159 1113 1420 752 
Q 1681 391 2138 391 
Q 2594 391 2855 752 
Q 3116 1113 3116 1747 
z
" transform="scale(0.015625)"/>
     <path id="DejaVuSans-6d" d="M 3328 2828 
Q 3544 3216 3844 3400 
Q 4144 3584 4550 3584 
Q 5097 3584 5394 3201 
Q 5691 2819 5691 2113 
L 5691 0 
L 5113 0 
L 5113 2094 
Q 5113 2597 4934 2840 
Q 4756 3084 4391 3084 
Q 3944 3084 3684 2787 
Q 3425 2491 3425 1978 
L 3425 0 
L 2847 0 
L 2847 2094 
Q 2847 2600 2669 2842 
Q 2491 3084 2119 3084 
Q 1678 3084 1418 2786 
Q 1159 2488 1159 1978 
L 1159 0 
L 581 0 
L 581 3500 
L 1159 3500 
L 1159 2956 
Q 1356 3278 1631 3431 
Q 1906 3584 2284 3584 
Q 2666 3584 2933 3390 
Q 3200 3197 3328 2828 
z
" transform="scale(0.015625)"/>
     <path id="DejaVuSans-74" d="M 1172 4494 
L 1172 3500 
L 2356 3500 
L 2356 3053 
L 1172 3053 
L 1172 1153 
Q 1172 725 1289 603 
Q 1406 481 1766 481 
L 2356 481 
L 2356 0 
L 1766 0 
Q 1100 0 847 248 
Q 594 497 594 1153 
L 594 3053 
L 172 3053 
L 172 3500 
L 594 3500 
L 594 4494 
L 1172 4494 
z
" transform="scale(0.015625)"/>
     <path id="DejaVuSans-64" d="M 2906 2969 
L 2906 4863 
L 3481 4863 
L 3481 0 
L 2906 0 
L 2906 525 
Q 2725 213 2448 61 
Q 2172 -91 1784 -91 
Q 1150 -91 751 415 
Q 353 922 353 1747 
Q 353 2572 751 3078 
Q 1150 3584 1784 3584 
Q 2172 3584 2448 3432 
Q 2725 3281 2906 2969 
z
M 947 1747 
Q 947 1113 1208 752 
Q 1469 391 1925 391 
Q 2381 391 2643 752 
Q 2906 1113 2906 1747 
Q 2906 2381 2643 2742 
Q 2381 3103 1925 3103 
Q 1469 3103 1208 2742 
Q 947 2381 947 1747 
z
" transform="scale(0.015625)"/>
    </defs>
    <use xlink:href="#DejaVuSans-57"/>
    <use xlink:href="#DejaVuSans-69" x="96.626953"/>
    <use xlink:href="#DejaVuSans-70" x="124.410156"/>
    <use xlink:href="#DejaVuSans-72" x="187.886719"/>
    <use xlink:href="#DejaVuSans-6f" x="226.75"/>
    <use xlink:href="#DejaVuSans-20" x="287.931641"/>
    <use xlink:href="#DejaVuSans-4c" x="319.71875"/>
    <use xlink:href="#DejaVuSans-69" x="375.431641"/>
    <use xlink:href="#DejaVuSans-6d" x="403.214844"/>
    <use xlink:href="#DejaVuSans-69" x="500.626953"/>
    <use xlink:href="#DejaVuSans-74" x="528.410156"/>
    <use xlink:href="#DejaVuSans-65" x="567.619141"/>
    <use xlink:href="#DejaVuSans-64" x="629.142578"/>
   </g>
  </g>
 </g>
 <defs>
  <clipPath id="p1e82e2bce9">
   <rect x="38.904688" y="48.331875" width="943.971418" height="253.385938"/>
  </clipPath>
  <clipPath id="p2f703c18d6">
   <rect x="38.904688" y="331.135938" width="943.971418" height="253.385937"/>
  </clipPath>
 </defs>
</svg>
