<?xml version="1.0" encoding="utf-8" standalone="no"?>
<!DOCTYPE svg PUBLIC "-//W3C//DTD SVG 1.1//EN"
  "http://www.w3.org/Graphics/SVG/1.1/DTD/svg11.dtd">
<svg xmlns:xlink="http://www.w3.org/1999/xlink" width="1008pt" height="612pt" viewBox="0 0 1008 612" xmlns="http://www.w3.org/2000/svg" version="1.1">
 <metadata>
  <rdf:RDF xmlns:dc="http://purl.org/dc/elements/1.1/" xmlns:cc="http://creativecommons.org/ns#" xmlns:rdf="http://www.w3.org/1999/02/22-rdf-syntax-ns#">
   <cc:Work>
    <dc:type rdf:resource="http://purl.org/dc/dcmitype/StillImage"/>
    <dc:date>2022-11-20T19:46:50.574921</dc:date>
    <dc:format>image/svg+xml</dc:format>
    <dc:creator>
     <cc:Agent>
      <dc:title>Matplotlib v3.5.2, https://matplotlib.org/</dc:title>
     </cc:Agent>
    </dc:creator>
   </cc:Work>
  </rdf:RDF>
 </metadata>
 <defs>
  <style type="text/css">*{stroke-linejoin: round; stroke-linecap: butt}</style>
 </defs>
 <g id="figure_1">
  <g id="patch_1">
   <path d="M 0 612 
L 1008 612 
L 1008 0 
L 0 0 
z
" style="fill: #ffffff"/>
  </g>
  <g id="axes_1">
   <g id="patch_2">
    <path d="M 43.25 301.717812 
L 982.876106 301.717812 
L 982.876106 48.331875 
L 43.25 48.331875 
z
" style="fill: #ffffff"/>
   </g>
   <g id="matplotlib.axis_1">
    <g id="xtick_1">
     <g id="line2d_1">
      <path d="M 80.604757 301.717812 
L 80.604757 48.331875 
" clip-path="url(#p9c4ea55cab)" style="fill: none; stroke-dasharray: 2.96,1.28; stroke-dashoffset: 0; stroke: #b0b0b0; stroke-width: 0.8"/>
     </g>
     <g id="line2d_2">
      <defs>
       <path id="m23c1f59974" d="M 0 0 
L 0 3.5 
" style="stroke: #000000; stroke-width: 0.8"/>
      </defs>
      <g>
       <use xlink:href="#m23c1f59974" x="80.604757" y="301.717812" style="stroke: #000000; stroke-width: 0.8"/>
      </g>
     </g>
    </g>
    <g id="xtick_2">
     <g id="line2d_3">
      <path d="M 163.615328 301.717812 
L 163.615328 48.331875 
" clip-path="url(#p9c4ea55cab)" style="fill: none; stroke-dasharray: 2.96,1.28; stroke-dashoffset: 0; stroke: #b0b0b0; stroke-width: 0.8"/>
     </g>
     <g id="line2d_4">
      <g>
       <use xlink:href="#m23c1f59974" x="163.615328" y="301.717812" style="stroke: #000000; stroke-width: 0.8"/>
      </g>
     </g>
    </g>
    <g id="xtick_3">
     <g id="line2d_5">
      <path d="M 238.592617 301.717812 
L 238.592617 48.331875 
" clip-path="url(#p9c4ea55cab)" style="fill: none; stroke-dasharray: 2.96,1.28; stroke-dashoffset: 0; stroke: #b0b0b0; stroke-width: 0.8"/>
     </g>
     <g id="line2d_6">
      <g>
       <use xlink:href="#m23c1f59974" x="238.592617" y="301.717812" style="stroke: #000000; stroke-width: 0.8"/>
      </g>
     </g>
    </g>
    <g id="xtick_4">
     <g id="line2d_7">
      <path d="M 321.603188 301.717812 
L 321.603188 48.331875 
" clip-path="url(#p9c4ea55cab)" style="fill: none; stroke-dasharray: 2.96,1.28; stroke-dashoffset: 0; stroke: #b0b0b0; stroke-width: 0.8"/>
     </g>
     <g id="line2d_8">
      <g>
       <use xlink:href="#m23c1f59974" x="321.603188" y="301.717812" style="stroke: #000000; stroke-width: 0.8"/>
      </g>
     </g>
    </g>
    <g id="xtick_5">
     <g id="line2d_9">
      <path d="M 401.935999 301.717812 
L 401.935999 48.331875 
" clip-path="url(#p9c4ea55cab)" style="fill: none; stroke-dasharray: 2.96,1.28; stroke-dashoffset: 0; stroke: #b0b0b0; stroke-width: 0.8"/>
     </g>
     <g id="line2d_10">
      <g>
       <use xlink:href="#m23c1f59974" x="401.935999" y="301.717812" style="stroke: #000000; stroke-width: 0.8"/>
      </g>
     </g>
    </g>
    <g id="xtick_6">
     <g id="line2d_11">
      <path d="M 484.946569 301.717812 
L 484.946569 48.331875 
" clip-path="url(#p9c4ea55cab)" style="fill: none; stroke-dasharray: 2.96,1.28; stroke-dashoffset: 0; stroke: #b0b0b0; stroke-width: 0.8"/>
     </g>
     <g id="line2d_12">
      <g>
       <use xlink:href="#m23c1f59974" x="484.946569" y="301.717812" style="stroke: #000000; stroke-width: 0.8"/>
      </g>
     </g>
    </g>
    <g id="xtick_7">
     <g id="line2d_13">
      <path d="M 565.27938 301.717812 
L 565.27938 48.331875 
" clip-path="url(#p9c4ea55cab)" style="fill: none; stroke-dasharray: 2.96,1.28; stroke-dashoffset: 0; stroke: #b0b0b0; stroke-width: 0.8"/>
     </g>
     <g id="line2d_14">
      <g>
       <use xlink:href="#m23c1f59974" x="565.27938" y="301.717812" style="stroke: #000000; stroke-width: 0.8"/>
      </g>
     </g>
    </g>
    <g id="xtick_8">
     <g id="line2d_15">
      <path d="M 648.28995 301.717812 
L 648.28995 48.331875 
" clip-path="url(#p9c4ea55cab)" style="fill: none; stroke-dasharray: 2.96,1.28; stroke-dashoffset: 0; stroke: #b0b0b0; stroke-width: 0.8"/>
     </g>
     <g id="line2d_16">
      <g>
       <use xlink:href="#m23c1f59974" x="648.28995" y="301.717812" style="stroke: #000000; stroke-width: 0.8"/>
      </g>
     </g>
    </g>
    <g id="xtick_9">
     <g id="line2d_17">
      <path d="M 731.300521 301.717812 
L 731.300521 48.331875 
" clip-path="url(#p9c4ea55cab)" style="fill: none; stroke-dasharray: 2.96,1.28; stroke-dashoffset: 0; stroke: #b0b0b0; stroke-width: 0.8"/>
     </g>
     <g id="line2d_18">
      <g>
       <use xlink:href="#m23c1f59974" x="731.300521" y="301.717812" style="stroke: #000000; stroke-width: 0.8"/>
      </g>
     </g>
    </g>
    <g id="xtick_10">
     <g id="line2d_19">
      <path d="M 811.633332 301.717812 
L 811.633332 48.331875 
" clip-path="url(#p9c4ea55cab)" style="fill: none; stroke-dasharray: 2.96,1.28; stroke-dashoffset: 0; stroke: #b0b0b0; stroke-width: 0.8"/>
     </g>
     <g id="line2d_20">
      <g>
       <use xlink:href="#m23c1f59974" x="811.633332" y="301.717812" style="stroke: #000000; stroke-width: 0.8"/>
      </g>
     </g>
    </g>
    <g id="xtick_11">
     <g id="line2d_21">
      <path d="M 894.643902 301.717812 
L 894.643902 48.331875 
" clip-path="url(#p9c4ea55cab)" style="fill: none; stroke-dasharray: 2.96,1.28; stroke-dashoffset: 0; stroke: #b0b0b0; stroke-width: 0.8"/>
     </g>
     <g id="line2d_22">
      <g>
       <use xlink:href="#m23c1f59974" x="894.643902" y="301.717812" style="stroke: #000000; stroke-width: 0.8"/>
      </g>
     </g>
    </g>
    <g id="xtick_12">
     <g id="line2d_23">
      <path d="M 974.976713 301.717812 
L 974.976713 48.331875 
" clip-path="url(#p9c4ea55cab)" style="fill: none; stroke-dasharray: 2.96,1.28; stroke-dashoffset: 0; stroke: #b0b0b0; stroke-width: 0.8"/>
     </g>
     <g id="line2d_24">
      <g>
       <use xlink:href="#m23c1f59974" x="974.976713" y="301.717812" style="stroke: #000000; stroke-width: 0.8"/>
      </g>
     </g>
    </g>
   </g>
   <g id="matplotlib.axis_2">
    <g id="ytick_1">
     <g id="line2d_25">
      <path d="M 43.25 281.924338 
L 982.876106 281.924338 
" clip-path="url(#p9c4ea55cab)" style="fill: none; stroke-dasharray: 2.96,1.28; stroke-dashoffset: 0; stroke: #b0b0b0; stroke-width: 0.8"/>
     </g>
     <g id="line2d_26">
      <defs>
       <path id="mac755a8daa" d="M 0 0 
L -3.5 0 
" style="stroke: #000000; stroke-width: 0.8"/>
      </defs>
      <g>
       <use xlink:href="#mac755a8daa" x="43.25" y="281.924338" style="stroke: #000000; stroke-width: 0.8"/>
      </g>
     </g>
     <g id="text_1">
      <!-- 900 -->
      <g transform="translate(17.1625 285.723557)scale(0.1 -0.1)">
       <defs>
        <path id="DejaVuSans-39" d="M 703 97 
L 703 672 
Q 941 559 1184 500 
Q 1428 441 1663 441 
Q 2288 441 2617 861 
Q 2947 1281 2994 2138 
Q 2813 1869 2534 1725 
Q 2256 1581 1919 1581 
Q 1219 1581 811 2004 
Q 403 2428 403 3163 
Q 403 3881 828 4315 
Q 1253 4750 1959 4750 
Q 2769 4750 3195 4129 
Q 3622 3509 3622 2328 
Q 3622 1225 3098 567 
Q 2575 -91 1691 -91 
Q 1453 -91 1209 -44 
Q 966 3 703 97 
z
M 1959 2075 
Q 2384 2075 2632 2365 
Q 2881 2656 2881 3163 
Q 2881 3666 2632 3958 
Q 2384 4250 1959 4250 
Q 1534 4250 1286 3958 
Q 1038 3666 1038 3163 
Q 1038 2656 1286 2365 
Q 1534 2075 1959 2075 
z
" transform="scale(0.015625)"/>
        <path id="DejaVuSans-30" d="M 2034 4250 
Q 1547 4250 1301 3770 
Q 1056 3291 1056 2328 
Q 1056 1369 1301 889 
Q 1547 409 2034 409 
Q 2525 409 2770 889 
Q 3016 1369 3016 2328 
Q 3016 3291 2770 3770 
Q 2525 4250 2034 4250 
z
M 2034 4750 
Q 2819 4750 3233 4129 
Q 3647 3509 3647 2328 
Q 3647 1150 3233 529 
Q 2819 -91 2034 -91 
Q 1250 -91 836 529 
Q 422 1150 422 2328 
Q 422 3509 836 4129 
Q 1250 4750 2034 4750 
z
" transform="scale(0.015625)"/>
       </defs>
       <use xlink:href="#DejaVuSans-39"/>
       <use xlink:href="#DejaVuSans-30" x="63.623047"/>
       <use xlink:href="#DejaVuSans-30" x="127.246094"/>
      </g>
     </g>
    </g>
    <g id="ytick_2">
     <g id="line2d_27">
      <path d="M 43.25 232.809018 
L 982.876106 232.809018 
" clip-path="url(#p9c4ea55cab)" style="fill: none; stroke-dasharray: 2.96,1.28; stroke-dashoffset: 0; stroke: #b0b0b0; stroke-width: 0.8"/>
     </g>
     <g id="line2d_28">
      <g>
       <use xlink:href="#mac755a8daa" x="43.25" y="232.809018" style="stroke: #000000; stroke-width: 0.8"/>
      </g>
     </g>
     <g id="text_2">
      <!-- 1000 -->
      <g transform="translate(10.8 236.608237)scale(0.1 -0.1)">
       <defs>
        <path id="DejaVuSans-31" d="M 794 531 
L 1825 531 
L 1825 4091 
L 703 3866 
L 703 4441 
L 1819 4666 
L 2450 4666 
L 2450 531 
L 3481 531 
L 3481 0 
L 794 0 
L 794 531 
z
" transform="scale(0.015625)"/>
       </defs>
       <use xlink:href="#DejaVuSans-31"/>
       <use xlink:href="#DejaVuSans-30" x="63.623047"/>
       <use xlink:href="#DejaVuSans-30" x="127.246094"/>
       <use xlink:href="#DejaVuSans-30" x="190.869141"/>
      </g>
     </g>
    </g>
    <g id="ytick_3">
     <g id="line2d_29">
      <path d="M 43.25 183.693698 
L 982.876106 183.693698 
" clip-path="url(#p9c4ea55cab)" style="fill: none; stroke-dasharray: 2.96,1.28; stroke-dashoffset: 0; stroke: #b0b0b0; stroke-width: 0.8"/>
     </g>
     <g id="line2d_30">
      <g>
       <use xlink:href="#mac755a8daa" x="43.25" y="183.693698" style="stroke: #000000; stroke-width: 0.8"/>
      </g>
     </g>
     <g id="text_3">
      <!-- 1100 -->
      <g transform="translate(10.8 187.492917)scale(0.1 -0.1)">
       <use xlink:href="#DejaVuSans-31"/>
       <use xlink:href="#DejaVuSans-31" x="63.623047"/>
       <use xlink:href="#DejaVuSans-30" x="127.246094"/>
       <use xlink:href="#DejaVuSans-30" x="190.869141"/>
      </g>
     </g>
    </g>
    <g id="ytick_4">
     <g id="line2d_31">
      <path d="M 43.25 134.578377 
L 982.876106 134.578377 
" clip-path="url(#p9c4ea55cab)" style="fill: none; stroke-dasharray: 2.96,1.28; stroke-dashoffset: 0; stroke: #b0b0b0; stroke-width: 0.8"/>
     </g>
     <g id="line2d_32">
      <g>
       <use xlink:href="#mac755a8daa" x="43.25" y="134.578377" style="stroke: #000000; stroke-width: 0.8"/>
      </g>
     </g>
     <g id="text_4">
      <!-- 1200 -->
      <g transform="translate(10.8 138.377596)scale(0.1 -0.1)">
       <defs>
        <path id="DejaVuSans-32" d="M 1228 531 
L 3431 531 
L 3431 0 
L 469 0 
L 469 531 
Q 828 903 1448 1529 
Q 2069 2156 2228 2338 
Q 2531 2678 2651 2914 
Q 2772 3150 2772 3378 
Q 2772 3750 2511 3984 
Q 2250 4219 1831 4219 
Q 1534 4219 1204 4116 
Q 875 4013 500 3803 
L 500 4441 
Q 881 4594 1212 4672 
Q 1544 4750 1819 4750 
Q 2544 4750 2975 4387 
Q 3406 4025 3406 3419 
Q 3406 3131 3298 2873 
Q 3191 2616 2906 2266 
Q 2828 2175 2409 1742 
Q 1991 1309 1228 531 
z
" transform="scale(0.015625)"/>
       </defs>
       <use xlink:href="#DejaVuSans-31"/>
       <use xlink:href="#DejaVuSans-32" x="63.623047"/>
       <use xlink:href="#DejaVuSans-30" x="127.246094"/>
       <use xlink:href="#DejaVuSans-30" x="190.869141"/>
      </g>
     </g>
    </g>
    <g id="ytick_5">
     <g id="line2d_33">
      <path d="M 43.25 85.463057 
L 982.876106 85.463057 
" clip-path="url(#p9c4ea55cab)" style="fill: none; stroke-dasharray: 2.96,1.28; stroke-dashoffset: 0; stroke: #b0b0b0; stroke-width: 0.8"/>
     </g>
     <g id="line2d_34">
      <g>
       <use xlink:href="#mac755a8daa" x="43.25" y="85.463057" style="stroke: #000000; stroke-width: 0.8"/>
      </g>
     </g>
     <g id="text_5">
      <!-- 1300 -->
      <g transform="translate(10.8 89.262276)scale(0.1 -0.1)">
       <defs>
        <path id="DejaVuSans-33" d="M 2597 2516 
Q 3050 2419 3304 2112 
Q 3559 1806 3559 1356 
Q 3559 666 3084 287 
Q 2609 -91 1734 -91 
Q 1441 -91 1130 -33 
Q 819 25 488 141 
L 488 750 
Q 750 597 1062 519 
Q 1375 441 1716 441 
Q 2309 441 2620 675 
Q 2931 909 2931 1356 
Q 2931 1769 2642 2001 
Q 2353 2234 1838 2234 
L 1294 2234 
L 1294 2753 
L 1863 2753 
Q 2328 2753 2575 2939 
Q 2822 3125 2822 3475 
Q 2822 3834 2567 4026 
Q 2313 4219 1838 4219 
Q 1578 4219 1281 4162 
Q 984 4106 628 3988 
L 628 4550 
Q 988 4650 1302 4700 
Q 1616 4750 1894 4750 
Q 2613 4750 3031 4423 
Q 3450 4097 3450 3541 
Q 3450 3153 3228 2886 
Q 3006 2619 2597 2516 
z
" transform="scale(0.015625)"/>
       </defs>
       <use xlink:href="#DejaVuSans-31"/>
       <use xlink:href="#DejaVuSans-33" x="63.623047"/>
       <use xlink:href="#DejaVuSans-30" x="127.246094"/>
       <use xlink:href="#DejaVuSans-30" x="190.869141"/>
      </g>
     </g>
    </g>
   </g>
   <g id="line2d_35">
    <path d="M 85.960278 72.619401 
L 88.638038 69.033983 
L 91.315798 80.18316 
L 93.993559 92.879471 
L 96.671319 90.104455 
L 104.7046 91.30778 
L 107.38236 64.02422 
L 110.060121 59.849418 
L 112.737881 68.64106 
L 115.415641 67.192158 
L 123.448922 105.723127 
L 126.126683 124.878102 
L 128.804443 134.9713 
L 131.482203 146.685304 
L 134.159964 150.319838 
L 142.193245 171.463983 
L 144.871005 172.053367 
L 150.226526 194.621857 
L 152.904286 193.295743 
L 160.937567 183.98839 
L 163.615328 167.583873 
L 166.293088 148.846378 
L 168.970848 155.820754 
L 171.648609 152.358123 
L 179.68189 155.526062 
L 182.35965 153.266757 
L 185.03741 143.959404 
L 187.715171 139.318006 
L 190.392931 152.407239 
L 198.426212 160.879631 
L 201.103972 150.025146 
L 203.781733 150.393511 
L 206.459493 152.726488 
L 209.137254 151.76874 
L 217.170535 151.891528 
L 219.848295 159.357057 
L 222.526055 157.662578 
L 225.203816 184.40587 
L 227.881576 169.106448 
L 235.914857 170.457119 
L 241.270378 176.056265 
L 243.948138 164.194916 
L 246.625898 164.808857 
L 254.659179 157.073194 
L 257.33694 146.709862 
L 260.0147 143.075328 
L 262.69246 138.43393 
L 265.370221 137.795431 
L 273.403502 133.178591 
L 276.081262 145.948574 
L 278.759023 134.823954 
L 281.436783 136.100952 
L 292.147824 150.270722 
L 294.825585 146.169593 
L 297.503345 144.057634 
L 300.181105 138.458488 
L 302.858866 144.720691 
L 310.892147 152.28445 
L 313.569907 150.442626 
L 316.247667 151.670509 
L 318.925428 152.382681 
L 329.636469 140.938811 
L 332.314229 136.813125 
L 334.99199 149.067397 
L 337.66975 147.692168 
L 340.347511 151.596836 
L 348.380792 167.240065 
L 351.058552 168.394276 
L 353.736312 171.365752 
L 367.125114 182.83418 
L 369.802874 198.305506 
L 372.480635 188.899922 
L 375.158395 184.08662 
L 377.836155 182.686834 
L 385.869436 188.678903 
L 388.547197 186.493271 
L 391.224957 185.854772 
L 393.902717 187.377347 
L 396.580478 193.885127 
L 404.613759 199.950869 
L 409.96928 210.731682 
L 412.64704 197.42143 
L 415.3248 208.153127 
L 423.358081 195.432259 
L 426.035842 197.175853 
L 428.713602 202.897788 
L 431.391362 203.634518 
L 434.069123 207.195379 
L 442.102404 210.928143 
L 444.780164 192.092418 
L 447.457924 196.611027 
L 450.135685 228.192178 
L 452.813445 218.639248 
L 460.846726 223.820914 
L 463.524487 236.861032 
L 466.202247 245.357982 
L 468.880007 242.288275 
L 471.557768 230.893521 
L 479.591049 213.212005 
L 482.268809 212.794525 
L 484.946569 224.017376 
L 487.62433 213.310236 
L 490.30209 211.68943 
L 498.335371 214.489004 
L 501.013131 221.56161 
L 503.690892 217.976191 
L 506.368652 218.737479 
L 509.046412 225.269816 
L 517.079693 236.836474 
L 519.757454 234.331593 
L 522.435214 237.769665 
L 525.112974 250.023938 
L 527.790735 253.069088 
L 535.824016 252.430589 
L 538.501776 239.390471 
L 541.179537 251.816647 
L 543.857297 246.929673 
L 546.535057 249.16442 
L 554.568338 236.56634 
L 557.246099 231.851269 
L 562.601619 245.947366 
L 565.27938 244.915945 
L 573.312661 240.372777 
L 575.990421 241.576103 
L 578.668181 239.390471 
L 581.345942 237.794223 
L 584.023702 240.888488 
L 592.056983 260.534616 
L 594.734744 268.270279 
L 597.412504 273.206369 
L 600.090264 280.450879 
L 602.768025 290.20027 
L 610.801306 281.776992 
L 613.479066 286.983216 
L 616.156826 273.378273 
L 618.834587 269.915643 
L 621.512347 271.978486 
L 629.545628 266.870493 
L 632.223388 275.29377 
L 634.901149 267.95103 
L 637.578909 259.282176 
L 640.256669 258.152523 
L 648.28995 256.310699 
L 650.967711 256.850967 
L 653.645471 253.830375 
L 656.323232 253.388337 
L 659.000992 253.560241 
L 667.034273 249.483669 
L 672.389794 256.359814 
L 675.067554 251.300936 
L 677.745314 254.223298 
L 688.456356 253.339222 
L 691.134116 242.33739 
L 693.811876 245.824578 
L 704.522918 252.72528 
L 707.200678 258.889253 
L 709.878438 257.784158 
L 712.556199 260.411828 
L 715.233959 259.503195 
L 723.26724 273.329157 
L 725.945001 262.793921 
L 731.300521 269.129797 
L 733.978282 269.915643 
L 742.011563 264.242823 
L 744.689323 263.358747 
L 747.367083 266.354782 
L 750.044844 266.674031 
L 752.722604 258.103408 
L 760.755885 254.640778 
L 763.433645 254.714451 
L 766.111406 266.207436 
L 768.789166 272.15039 
L 771.466926 283.446913 
L 779.500207 283.004875 
L 782.177968 275.048194 
L 784.855728 281.457743 
L 787.533489 283.078548 
L 790.211249 283.962624 
L 798.24453 278.633612 
L 800.92229 272.715216 
L 806.277811 270.603257 
L 808.955571 266.035532 
L 816.988852 267.066954 
L 819.666613 259.331291 
L 825.022133 250.220399 
L 827.699894 253.584799 
L 835.733175 250.858898 
L 838.410935 262.965825 
L 841.088695 256.384372 
L 843.766456 241.60066 
L 846.444216 231.556577 
L 854.477497 235.461245 
L 857.155258 228.290409 
L 859.833018 234.945535 
L 862.510778 224.262952 
L 865.188539 219.449651 
L 873.22182 217.288577 
L 875.89958 219.793458 
L 881.255101 217.067558 
L 883.932861 218.074422 
L 891.966142 212.598064 
L 894.643902 203.315268 
L 897.321663 210.608893 
L 899.999423 210.633451 
L 902.677183 210.53522 
L 910.710465 209.651145 
L 916.065985 206.556879 
L 918.743746 207.048033 
L 921.421506 188.28598 
L 929.454787 184.184851 
L 932.132547 181.7782 
L 934.810308 181.139701 
L 937.488068 187.352789 
L 940.165828 182.146565 
L 940.165828 182.146565 
" clip-path="url(#p9c4ea55cab)" style="fill: none; stroke: #1f77b4; stroke-width: 1.5; stroke-linecap: square"/>
   </g>
   <g id="line2d_36">
    <path d="M 96.671319 80.964094 
L 104.7046 84.70177 
L 107.38236 83.699817 
L 110.060121 79.633069 
L 112.737881 74.785387 
L 115.415641 70.202927 
L 123.448922 73.085996 
L 126.126683 85.256773 
L 131.482203 115.889998 
L 134.159964 132.515534 
L 142.193245 145.663705 
L 144.871005 155.098758 
L 150.226526 167.02887 
L 152.904286 176.350957 
L 160.937567 183.084668 
L 163.615328 182.308646 
L 166.293088 177.667248 
L 168.970848 169.907027 
L 171.648609 161.719503 
L 179.68189 156.027038 
L 182.35965 153.163615 
L 185.03741 152.18622 
L 187.715171 148.88567 
L 190.392931 148.895493 
L 198.426212 149.966207 
L 201.103972 149.317885 
L 203.781733 150.604706 
L 206.459493 153.286403 
L 209.137254 153.158703 
L 217.170535 151.361082 
L 219.848295 153.227465 
L 222.526055 154.681278 
L 225.203816 161.017154 
L 227.881576 164.484696 
L 235.914857 168.197814 
L 241.270378 171.537656 
L 243.948138 172.844124 
L 246.625898 168.924721 
L 254.659179 166.51807 
L 257.33694 161.768619 
L 260.0147 155.172431 
L 262.69246 150.020234 
L 265.370221 144.617549 
L 273.403502 139.838628 
L 276.081262 139.686371 
L 278.759023 138.036096 
L 281.436783 137.5695 
L 292.147824 140.064559 
L 294.825585 142.662759 
L 297.503345 142.284571 
L 300.181105 143.011478 
L 302.858866 144.735426 
L 310.892147 145.138171 
L 313.569907 145.992778 
L 316.247667 147.515353 
L 318.925428 150.300192 
L 321.603188 151.253029 
L 329.636469 148.983901 
L 332.314229 146.258001 
L 334.99199 145.737378 
L 337.66975 144.799276 
L 340.347511 145.221667 
L 348.380792 150.481918 
L 351.058552 156.798148 
L 353.736312 161.257819 
L 367.125114 168.286222 
L 369.802874 177.627956 
L 372.480635 181.959927 
L 375.158395 185.098396 
L 377.836155 187.362612 
L 385.869436 188.531557 
L 388.547197 186.16911 
L 391.224957 185.56008 
L 393.902717 186.218225 
L 396.580478 188.457884 
L 404.613759 190.712277 
L 412.64704 197.873291 
L 415.3248 202.028447 
L 423.358081 202.337873 
L 426.035842 201.78287 
L 428.713602 200.216092 
L 431.391362 201.458709 
L 434.069123 201.267159 
L 442.102404 204.366336 
L 444.780164 203.349649 
L 447.457924 202.092297 
L 450.135685 207.003829 
L 452.813445 209.292603 
L 460.846726 211.871157 
L 463.524487 220.82488 
L 466.202247 230.574271 
L 468.880007 233.39349 
L 471.557768 235.844345 
L 479.591049 233.722563 
L 482.268809 228.909262 
L 484.946569 224.64114 
L 487.62433 218.845533 
L 490.30209 215.004714 
L 498.335371 215.260114 
L 501.013131 217.013531 
L 503.690892 215.805294 
L 506.368652 216.890743 
L 509.046412 219.60682 
L 517.079693 224.076314 
L 519.757454 226.630311 
L 522.435214 230.589006 
L 525.112974 236.846297 
L 527.790735 242.406152 
L 538.501776 246.53675 
L 541.179537 249.346146 
L 543.857297 248.727293 
L 546.535057 247.94636 
L 554.568338 244.77351 
L 557.246099 243.26567 
L 559.923859 240.687115 
L 562.601619 240.490654 
L 565.27938 239.640959 
L 573.312661 240.402247 
L 575.990421 242.347213 
L 578.668181 242.440532 
L 581.345942 240.809904 
L 584.023702 240.004413 
L 592.056983 244.03678 
L 594.734744 249.375616 
L 597.412504 256.138795 
L 600.090264 264.670126 
L 602.768025 274.532483 
L 610.801306 278.780958 
L 613.479066 282.523545 
L 616.156826 282.557926 
L 618.834587 280.450879 
L 621.512347 276.806522 
L 629.545628 273.825222 
L 632.223388 271.487333 
L 634.901149 270.401884 
L 637.578909 268.275191 
L 640.256669 265.509998 
L 648.28995 263.39804 
L 650.967711 259.709479 
L 653.645471 256.885348 
L 656.323232 255.70658 
L 659.000992 254.788124 
L 667.034273 253.422718 
L 672.389794 253.324487 
L 675.067554 252.8186 
L 677.745314 252.985592 
L 688.456356 252.941388 
L 691.134116 251.512132 
L 693.811876 249.405085 
L 696.489637 248.648709 
L 704.522918 248.349105 
L 707.200678 249.459112 
L 709.878438 252.548465 
L 712.556199 255.465915 
L 715.233959 257.862743 
L 723.26724 261.983518 
L 725.945001 262.764452 
L 731.300521 265.03358 
L 733.978282 266.934343 
L 742.011563 267.882268 
L 744.689323 265.888186 
L 747.367083 266.600358 
L 750.044844 266.109205 
L 752.722604 263.746758 
L 760.755885 261.826349 
L 763.433645 260.09749 
L 766.111406 260.068021 
L 768.789166 261.163293 
L 771.466926 266.231994 
L 779.500207 271.904813 
L 782.177968 275.971562 
L 784.855728 279.021623 
L 787.533489 281.207255 
L 790.211249 281.310397 
L 798.24453 280.436144 
L 800.92229 279.969549 
L 803.600051 278.01967 
L 806.277811 275.524612 
L 808.955571 271.939194 
L 816.988852 269.625862 
L 819.666613 266.949077 
L 825.022133 262.651487 
L 827.699894 259.247795 
L 835.733175 256.212468 
L 838.410935 255.392242 
L 841.088695 254.802859 
L 843.766456 253.078911 
L 846.444216 248.673267 
L 854.477497 245.593736 
L 857.155258 238.658653 
L 859.833018 234.370885 
L 862.510778 230.903344 
L 865.188539 228.481958 
L 873.22182 224.847425 
L 875.89958 223.148035 
L 881.255101 219.572439 
L 883.932861 218.334733 
L 891.966142 216.964416 
L 894.643902 214.169754 
L 897.321663 212.332841 
L 899.999423 211.04602 
L 902.677183 209.538179 
L 910.710465 208.948795 
L 916.065985 209.597118 
L 918.743746 208.884946 
L 921.421506 204.415451 
L 929.454787 199.145378 
L 932.132547 193.570789 
L 934.810308 188.487353 
L 937.488068 184.548304 
L 940.165828 183.320421 
L 940.165828 183.320421 
" clip-path="url(#p9c4ea55cab)" style="fill: none; stroke: #ff7f0e; stroke-width: 1.5; stroke-linecap: square"/>
   </g>
   <g id="patch_3">
    <path d="M 43.25 301.717812 
L 43.25 48.331875 
" style="fill: none; stroke: #000000; stroke-width: 0.8; stroke-linejoin: miter; stroke-linecap: square"/>
   </g>
   <g id="patch_4">
    <path d="M 982.876106 301.717812 
L 982.876106 48.331875 
" style="fill: none; stroke: #000000; stroke-width: 0.8; stroke-linejoin: miter; stroke-linecap: square"/>
   </g>
   <g id="patch_5">
    <path d="M 43.25 301.717812 
L 982.876106 301.717812 
" style="fill: none; stroke: #000000; stroke-width: 0.8; stroke-linejoin: miter; stroke-linecap: square"/>
   </g>
   <g id="patch_6">
    <path d="M 43.25 48.331875 
L 982.876106 48.331875 
" style="fill: none; stroke: #000000; stroke-width: 0.8; stroke-linejoin: miter; stroke-linecap: square"/>
   </g>
   <g id="text_6">
    <!-- Closing Price -->
    <g transform="translate(474.587115 42.331875)scale(0.12 -0.12)">
     <defs>
      <path id="DejaVuSans-43" d="M 4122 4306 
L 4122 3641 
Q 3803 3938 3442 4084 
Q 3081 4231 2675 4231 
Q 1875 4231 1450 3742 
Q 1025 3253 1025 2328 
Q 1025 1406 1450 917 
Q 1875 428 2675 428 
Q 3081 428 3442 575 
Q 3803 722 4122 1019 
L 4122 359 
Q 3791 134 3420 21 
Q 3050 -91 2638 -91 
Q 1578 -91 968 557 
Q 359 1206 359 2328 
Q 359 3453 968 4101 
Q 1578 4750 2638 4750 
Q 3056 4750 3426 4639 
Q 3797 4528 4122 4306 
z
" transform="scale(0.015625)"/>
      <path id="DejaVuSans-6c" d="M 603 4863 
L 1178 4863 
L 1178 0 
L 603 0 
L 603 4863 
z
" transform="scale(0.015625)"/>
      <path id="DejaVuSans-6f" d="M 1959 3097 
Q 1497 3097 1228 2736 
Q 959 2375 959 1747 
Q 959 1119 1226 758 
Q 1494 397 1959 397 
Q 2419 397 2687 759 
Q 2956 1122 2956 1747 
Q 2956 2369 2687 2733 
Q 2419 3097 1959 3097 
z
M 1959 3584 
Q 2709 3584 3137 3096 
Q 3566 2609 3566 1747 
Q 3566 888 3137 398 
Q 2709 -91 1959 -91 
Q 1206 -91 779 398 
Q 353 888 353 1747 
Q 353 2609 779 3096 
Q 1206 3584 1959 3584 
z
" transform="scale(0.015625)"/>
      <path id="DejaVuSans-73" d="M 2834 3397 
L 2834 2853 
Q 2591 2978 2328 3040 
Q 2066 3103 1784 3103 
Q 1356 3103 1142 2972 
Q 928 2841 928 2578 
Q 928 2378 1081 2264 
Q 1234 2150 1697 2047 
L 1894 2003 
Q 2506 1872 2764 1633 
Q 3022 1394 3022 966 
Q 3022 478 2636 193 
Q 2250 -91 1575 -91 
Q 1294 -91 989 -36 
Q 684 19 347 128 
L 347 722 
Q 666 556 975 473 
Q 1284 391 1588 391 
Q 1994 391 2212 530 
Q 2431 669 2431 922 
Q 2431 1156 2273 1281 
Q 2116 1406 1581 1522 
L 1381 1569 
Q 847 1681 609 1914 
Q 372 2147 372 2553 
Q 372 3047 722 3315 
Q 1072 3584 1716 3584 
Q 2034 3584 2315 3537 
Q 2597 3491 2834 3397 
z
" transform="scale(0.015625)"/>
      <path id="DejaVuSans-69" d="M 603 3500 
L 1178 3500 
L 1178 0 
L 603 0 
L 603 3500 
z
M 603 4863 
L 1178 4863 
L 1178 4134 
L 603 4134 
L 603 4863 
z
" transform="scale(0.015625)"/>
      <path id="DejaVuSans-6e" d="M 3513 2113 
L 3513 0 
L 2938 0 
L 2938 2094 
Q 2938 2591 2744 2837 
Q 2550 3084 2163 3084 
Q 1697 3084 1428 2787 
Q 1159 2491 1159 1978 
L 1159 0 
L 581 0 
L 581 3500 
L 1159 3500 
L 1159 2956 
Q 1366 3272 1645 3428 
Q 1925 3584 2291 3584 
Q 2894 3584 3203 3211 
Q 3513 2838 3513 2113 
z
" transform="scale(0.015625)"/>
      <path id="DejaVuSans-67" d="M 2906 1791 
Q 2906 2416 2648 2759 
Q 2391 3103 1925 3103 
Q 1463 3103 1205 2759 
Q 947 2416 947 1791 
Q 947 1169 1205 825 
Q 1463 481 1925 481 
Q 2391 481 2648 825 
Q 2906 1169 2906 1791 
z
M 3481 434 
Q 3481 -459 3084 -895 
Q 2688 -1331 1869 -1331 
Q 1566 -1331 1297 -1286 
Q 1028 -1241 775 -1147 
L 775 -588 
Q 1028 -725 1275 -790 
Q 1522 -856 1778 -856 
Q 2344 -856 2625 -561 
Q 2906 -266 2906 331 
L 2906 616 
Q 2728 306 2450 153 
Q 2172 0 1784 0 
Q 1141 0 747 490 
Q 353 981 353 1791 
Q 353 2603 747 3093 
Q 1141 3584 1784 3584 
Q 2172 3584 2450 3431 
Q 2728 3278 2906 2969 
L 2906 3500 
L 3481 3500 
L 3481 434 
z
" transform="scale(0.015625)"/>
      <path id="DejaVuSans-20" transform="scale(0.015625)"/>
      <path id="DejaVuSans-50" d="M 1259 4147 
L 1259 2394 
L 2053 2394 
Q 2494 2394 2734 2622 
Q 2975 2850 2975 3272 
Q 2975 3691 2734 3919 
Q 2494 4147 2053 4147 
L 1259 4147 
z
M 628 4666 
L 2053 4666 
Q 2838 4666 3239 4311 
Q 3641 3956 3641 3272 
Q 3641 2581 3239 2228 
Q 2838 1875 2053 1875 
L 1259 1875 
L 1259 0 
L 628 0 
L 628 4666 
z
" transform="scale(0.015625)"/>
      <path id="DejaVuSans-72" d="M 2631 2963 
Q 2534 3019 2420 3045 
Q 2306 3072 2169 3072 
Q 1681 3072 1420 2755 
Q 1159 2438 1159 1844 
L 1159 0 
L 581 0 
L 581 3500 
L 1159 3500 
L 1159 2956 
Q 1341 3275 1631 3429 
Q 1922 3584 2338 3584 
Q 2397 3584 2469 3576 
Q 2541 3569 2628 3553 
L 2631 2963 
z
" transform="scale(0.015625)"/>
      <path id="DejaVuSans-63" d="M 3122 3366 
L 3122 2828 
Q 2878 2963 2633 3030 
Q 2388 3097 2138 3097 
Q 1578 3097 1268 2742 
Q 959 2388 959 1747 
Q 959 1106 1268 751 
Q 1578 397 2138 397 
Q 2388 397 2633 464 
Q 2878 531 3122 666 
L 3122 134 
Q 2881 22 2623 -34 
Q 2366 -91 2075 -91 
Q 1284 -91 818 406 
Q 353 903 353 1747 
Q 353 2603 823 3093 
Q 1294 3584 2113 3584 
Q 2378 3584 2631 3529 
Q 2884 3475 3122 3366 
z
" transform="scale(0.015625)"/>
      <path id="DejaVuSans-65" d="M 3597 1894 
L 3597 1613 
L 953 1613 
Q 991 1019 1311 708 
Q 1631 397 2203 397 
Q 2534 397 2845 478 
Q 3156 559 3463 722 
L 3463 178 
Q 3153 47 2828 -22 
Q 2503 -91 2169 -91 
Q 1331 -91 842 396 
Q 353 884 353 1716 
Q 353 2575 817 3079 
Q 1281 3584 2069 3584 
Q 2775 3584 3186 3129 
Q 3597 2675 3597 1894 
z
M 3022 2063 
Q 3016 2534 2758 2815 
Q 2500 3097 2075 3097 
Q 1594 3097 1305 2825 
Q 1016 2553 972 2059 
L 3022 2063 
z
" transform="scale(0.015625)"/>
     </defs>
     <use xlink:href="#DejaVuSans-43"/>
     <use xlink:href="#DejaVuSans-6c" x="69.824219"/>
     <use xlink:href="#DejaVuSans-6f" x="97.607422"/>
     <use xlink:href="#DejaVuSans-73" x="158.789062"/>
     <use xlink:href="#DejaVuSans-69" x="210.888672"/>
     <use xlink:href="#DejaVuSans-6e" x="238.671875"/>
     <use xlink:href="#DejaVuSans-67" x="302.050781"/>
     <use xlink:href="#DejaVuSans-20" x="365.527344"/>
     <use xlink:href="#DejaVuSans-50" x="397.314453"/>
     <use xlink:href="#DejaVuSans-72" x="455.867188"/>
     <use xlink:href="#DejaVuSans-69" x="496.980469"/>
     <use xlink:href="#DejaVuSans-63" x="524.763672"/>
     <use xlink:href="#DejaVuSans-65" x="579.744141"/>
    </g>
   </g>
   <g id="legend_1">
    <g id="patch_7">
     <path d="M 911.144856 85.688125 
L 975.876106 85.688125 
Q 977.876106 85.688125 977.876106 83.688125 
L 977.876106 55.331875 
Q 977.876106 53.331875 975.876106 53.331875 
L 911.144856 53.331875 
Q 909.144856 53.331875 909.144856 55.331875 
L 909.144856 83.688125 
Q 909.144856 85.688125 911.144856 85.688125 
z
" style="fill: #ffffff; opacity: 0.8; stroke: #cccccc; stroke-linejoin: miter"/>
    </g>
    <g id="line2d_37">
     <path d="M 913.144856 61.430312 
L 923.144856 61.430312 
L 933.144856 61.430312 
" style="fill: none; stroke: #1f77b4; stroke-width: 1.5; stroke-linecap: square"/>
    </g>
    <g id="text_7">
     <!-- CLOSE -->
     <g transform="translate(941.144856 64.930312)scale(0.1 -0.1)">
      <defs>
       <path id="DejaVuSans-4c" d="M 628 4666 
L 1259 4666 
L 1259 531 
L 3531 531 
L 3531 0 
L 628 0 
L 628 4666 
z
" transform="scale(0.015625)"/>
       <path id="DejaVuSans-4f" d="M 2522 4238 
Q 1834 4238 1429 3725 
Q 1025 3213 1025 2328 
Q 1025 1447 1429 934 
Q 1834 422 2522 422 
Q 3209 422 3611 934 
Q 4013 1447 4013 2328 
Q 4013 3213 3611 3725 
Q 3209 4238 2522 4238 
z
M 2522 4750 
Q 3503 4750 4090 4092 
Q 4678 3434 4678 2328 
Q 4678 1225 4090 567 
Q 3503 -91 2522 -91 
Q 1538 -91 948 565 
Q 359 1222 359 2328 
Q 359 3434 948 4092 
Q 1538 4750 2522 4750 
z
" transform="scale(0.015625)"/>
       <path id="DejaVuSans-53" d="M 3425 4513 
L 3425 3897 
Q 3066 4069 2747 4153 
Q 2428 4238 2131 4238 
Q 1616 4238 1336 4038 
Q 1056 3838 1056 3469 
Q 1056 3159 1242 3001 
Q 1428 2844 1947 2747 
L 2328 2669 
Q 3034 2534 3370 2195 
Q 3706 1856 3706 1288 
Q 3706 609 3251 259 
Q 2797 -91 1919 -91 
Q 1588 -91 1214 -16 
Q 841 59 441 206 
L 441 856 
Q 825 641 1194 531 
Q 1563 422 1919 422 
Q 2459 422 2753 634 
Q 3047 847 3047 1241 
Q 3047 1584 2836 1778 
Q 2625 1972 2144 2069 
L 1759 2144 
Q 1053 2284 737 2584 
Q 422 2884 422 3419 
Q 422 4038 858 4394 
Q 1294 4750 2059 4750 
Q 2388 4750 2728 4690 
Q 3069 4631 3425 4513 
z
" transform="scale(0.015625)"/>
       <path id="DejaVuSans-45" d="M 628 4666 
L 3578 4666 
L 3578 4134 
L 1259 4134 
L 1259 2753 
L 3481 2753 
L 3481 2222 
L 1259 2222 
L 1259 531 
L 3634 531 
L 3634 0 
L 628 0 
L 628 4666 
z
" transform="scale(0.015625)"/>
      </defs>
      <use xlink:href="#DejaVuSans-43"/>
      <use xlink:href="#DejaVuSans-4c" x="69.824219"/>
      <use xlink:href="#DejaVuSans-4f" x="121.912109"/>
      <use xlink:href="#DejaVuSans-53" x="200.623047"/>
      <use xlink:href="#DejaVuSans-45" x="264.099609"/>
     </g>
    </g>
    <g id="line2d_38">
     <path d="M 913.144856 76.108437 
L 923.144856 76.108437 
L 933.144856 76.108437 
" style="fill: none; stroke: #ff7f0e; stroke-width: 1.5; stroke-linecap: square"/>
    </g>
    <g id="text_8">
     <!-- SMA5 -->
     <g transform="translate(941.144856 79.608437)scale(0.1 -0.1)">
      <defs>
       <path id="DejaVuSans-4d" d="M 628 4666 
L 1569 4666 
L 2759 1491 
L 3956 4666 
L 4897 4666 
L 4897 0 
L 4281 0 
L 4281 4097 
L 3078 897 
L 2444 897 
L 1241 4097 
L 1241 0 
L 628 0 
L 628 4666 
z
" transform="scale(0.015625)"/>
       <path id="DejaVuSans-41" d="M 2188 4044 
L 1331 1722 
L 3047 1722 
L 2188 4044 
z
M 1831 4666 
L 2547 4666 
L 4325 0 
L 3669 0 
L 3244 1197 
L 1141 1197 
L 716 0 
L 50 0 
L 1831 4666 
z
" transform="scale(0.015625)"/>
       <path id="DejaVuSans-35" d="M 691 4666 
L 3169 4666 
L 3169 4134 
L 1269 4134 
L 1269 2991 
Q 1406 3038 1543 3061 
Q 1681 3084 1819 3084 
Q 2600 3084 3056 2656 
Q 3513 2228 3513 1497 
Q 3513 744 3044 326 
Q 2575 -91 1722 -91 
Q 1428 -91 1123 -41 
Q 819 9 494 109 
L 494 744 
Q 775 591 1075 516 
Q 1375 441 1709 441 
Q 2250 441 2565 725 
Q 2881 1009 2881 1497 
Q 2881 1984 2565 2268 
Q 2250 2553 1709 2553 
Q 1456 2553 1204 2497 
Q 953 2441 691 2322 
L 691 4666 
z
" transform="scale(0.015625)"/>
      </defs>
      <use xlink:href="#DejaVuSans-53"/>
      <use xlink:href="#DejaVuSans-4d" x="63.476562"/>
      <use xlink:href="#DejaVuSans-41" x="149.755859"/>
      <use xlink:href="#DejaVuSans-35" x="218.164062"/>
     </g>
    </g>
   </g>
  </g>
  <g id="axes_2">
   <g id="patch_8">
    <path d="M 43.25 584.521875 
L 982.876106 584.521875 
L 982.876106 331.135938 
L 43.25 331.135938 
z
" style="fill: #ffffff"/>
   </g>
   <g id="matplotlib.axis_3">
    <g id="xtick_13">
     <g id="line2d_39">
      <path d="M 80.604757 584.521875 
L 80.604757 331.135938 
" clip-path="url(#p7447ff3c29)" style="fill: none; stroke-dasharray: 2.96,1.28; stroke-dashoffset: 0; stroke: #b0b0b0; stroke-width: 0.8"/>
     </g>
     <g id="line2d_40">
      <g>
       <use xlink:href="#m23c1f59974" x="80.604757" y="584.521875" style="stroke: #000000; stroke-width: 0.8"/>
      </g>
     </g>
     <g id="text_9">
      <!-- 2022-01 -->
      <g transform="translate(59.713351 599.120312)scale(0.1 -0.1)">
       <defs>
        <path id="DejaVuSans-2d" d="M 313 2009 
L 1997 2009 
L 1997 1497 
L 313 1497 
L 313 2009 
z
" transform="scale(0.015625)"/>
       </defs>
       <use xlink:href="#DejaVuSans-32"/>
       <use xlink:href="#DejaVuSans-30" x="63.623047"/>
       <use xlink:href="#DejaVuSans-32" x="127.246094"/>
       <use xlink:href="#DejaVuSans-32" x="190.869141"/>
       <use xlink:href="#DejaVuSans-2d" x="254.492188"/>
       <use xlink:href="#DejaVuSans-30" x="290.576172"/>
       <use xlink:href="#DejaVuSans-31" x="354.199219"/>
      </g>
     </g>
    </g>
    <g id="xtick_14">
     <g id="line2d_41">
      <path d="M 163.615328 584.521875 
L 163.615328 331.135938 
" clip-path="url(#p7447ff3c29)" style="fill: none; stroke-dasharray: 2.96,1.28; stroke-dashoffset: 0; stroke: #b0b0b0; stroke-width: 0.8"/>
     </g>
     <g id="line2d_42">
      <g>
       <use xlink:href="#m23c1f59974" x="163.615328" y="584.521875" style="stroke: #000000; stroke-width: 0.8"/>
      </g>
     </g>
     <g id="text_10">
      <!-- 2022-02 -->
      <g transform="translate(142.723921 599.120312)scale(0.1 -0.1)">
       <use xlink:href="#DejaVuSans-32"/>
       <use xlink:href="#DejaVuSans-30" x="63.623047"/>
       <use xlink:href="#DejaVuSans-32" x="127.246094"/>
       <use xlink:href="#DejaVuSans-32" x="190.869141"/>
       <use xlink:href="#DejaVuSans-2d" x="254.492188"/>
       <use xlink:href="#DejaVuSans-30" x="290.576172"/>
       <use xlink:href="#DejaVuSans-32" x="354.199219"/>
      </g>
     </g>
    </g>
    <g id="xtick_15">
     <g id="line2d_43">
      <path d="M 238.592617 584.521875 
L 238.592617 331.135938 
" clip-path="url(#p7447ff3c29)" style="fill: none; stroke-dasharray: 2.96,1.28; stroke-dashoffset: 0; stroke: #b0b0b0; stroke-width: 0.8"/>
     </g>
     <g id="line2d_44">
      <g>
       <use xlink:href="#m23c1f59974" x="238.592617" y="584.521875" style="stroke: #000000; stroke-width: 0.8"/>
      </g>
     </g>
     <g id="text_11">
      <!-- 2022-03 -->
      <g transform="translate(217.701211 599.120312)scale(0.1 -0.1)">
       <use xlink:href="#DejaVuSans-32"/>
       <use xlink:href="#DejaVuSans-30" x="63.623047"/>
       <use xlink:href="#DejaVuSans-32" x="127.246094"/>
       <use xlink:href="#DejaVuSans-32" x="190.869141"/>
       <use xlink:href="#DejaVuSans-2d" x="254.492188"/>
       <use xlink:href="#DejaVuSans-30" x="290.576172"/>
       <use xlink:href="#DejaVuSans-33" x="354.199219"/>
      </g>
     </g>
    </g>
    <g id="xtick_16">
     <g id="line2d_45">
      <path d="M 321.603188 584.521875 
L 321.603188 331.135938 
" clip-path="url(#p7447ff3c29)" style="fill: none; stroke-dasharray: 2.96,1.28; stroke-dashoffset: 0; stroke: #b0b0b0; stroke-width: 0.8"/>
     </g>
     <g id="line2d_46">
      <g>
       <use xlink:href="#m23c1f59974" x="321.603188" y="584.521875" style="stroke: #000000; stroke-width: 0.8"/>
      </g>
     </g>
     <g id="text_12">
      <!-- 2022-04 -->
      <g transform="translate(300.711782 599.120312)scale(0.1 -0.1)">
       <defs>
        <path id="DejaVuSans-34" d="M 2419 4116 
L 825 1625 
L 2419 1625 
L 2419 4116 
z
M 2253 4666 
L 3047 4666 
L 3047 1625 
L 3713 1625 
L 3713 1100 
L 3047 1100 
L 3047 0 
L 2419 0 
L 2419 1100 
L 313 1100 
L 313 1709 
L 2253 4666 
z
" transform="scale(0.015625)"/>
       </defs>
       <use xlink:href="#DejaVuSans-32"/>
       <use xlink:href="#DejaVuSans-30" x="63.623047"/>
       <use xlink:href="#DejaVuSans-32" x="127.246094"/>
       <use xlink:href="#DejaVuSans-32" x="190.869141"/>
       <use xlink:href="#DejaVuSans-2d" x="254.492188"/>
       <use xlink:href="#DejaVuSans-30" x="290.576172"/>
       <use xlink:href="#DejaVuSans-34" x="354.199219"/>
      </g>
     </g>
    </g>
    <g id="xtick_17">
     <g id="line2d_47">
      <path d="M 401.935999 584.521875 
L 401.935999 331.135938 
" clip-path="url(#p7447ff3c29)" style="fill: none; stroke-dasharray: 2.96,1.28; stroke-dashoffset: 0; stroke: #b0b0b0; stroke-width: 0.8"/>
     </g>
     <g id="line2d_48">
      <g>
       <use xlink:href="#m23c1f59974" x="401.935999" y="584.521875" style="stroke: #000000; stroke-width: 0.8"/>
      </g>
     </g>
     <g id="text_13">
      <!-- 2022-05 -->
      <g transform="translate(381.044592 599.120312)scale(0.1 -0.1)">
       <use xlink:href="#DejaVuSans-32"/>
       <use xlink:href="#DejaVuSans-30" x="63.623047"/>
       <use xlink:href="#DejaVuSans-32" x="127.246094"/>
       <use xlink:href="#DejaVuSans-32" x="190.869141"/>
       <use xlink:href="#DejaVuSans-2d" x="254.492188"/>
       <use xlink:href="#DejaVuSans-30" x="290.576172"/>
       <use xlink:href="#DejaVuSans-35" x="354.199219"/>
      </g>
     </g>
    </g>
    <g id="xtick_18">
     <g id="line2d_49">
      <path d="M 484.946569 584.521875 
L 484.946569 331.135938 
" clip-path="url(#p7447ff3c29)" style="fill: none; stroke-dasharray: 2.96,1.28; stroke-dashoffset: 0; stroke: #b0b0b0; stroke-width: 0.8"/>
     </g>
     <g id="line2d_50">
      <g>
       <use xlink:href="#m23c1f59974" x="484.946569" y="584.521875" style="stroke: #000000; stroke-width: 0.8"/>
      </g>
     </g>
     <g id="text_14">
      <!-- 2022-06 -->
      <g transform="translate(464.055163 599.120312)scale(0.1 -0.1)">
       <defs>
        <path id="DejaVuSans-36" d="M 2113 2584 
Q 1688 2584 1439 2293 
Q 1191 2003 1191 1497 
Q 1191 994 1439 701 
Q 1688 409 2113 409 
Q 2538 409 2786 701 
Q 3034 994 3034 1497 
Q 3034 2003 2786 2293 
Q 2538 2584 2113 2584 
z
M 3366 4563 
L 3366 3988 
Q 3128 4100 2886 4159 
Q 2644 4219 2406 4219 
Q 1781 4219 1451 3797 
Q 1122 3375 1075 2522 
Q 1259 2794 1537 2939 
Q 1816 3084 2150 3084 
Q 2853 3084 3261 2657 
Q 3669 2231 3669 1497 
Q 3669 778 3244 343 
Q 2819 -91 2113 -91 
Q 1303 -91 875 529 
Q 447 1150 447 2328 
Q 447 3434 972 4092 
Q 1497 4750 2381 4750 
Q 2619 4750 2861 4703 
Q 3103 4656 3366 4563 
z
" transform="scale(0.015625)"/>
       </defs>
       <use xlink:href="#DejaVuSans-32"/>
       <use xlink:href="#DejaVuSans-30" x="63.623047"/>
       <use xlink:href="#DejaVuSans-32" x="127.246094"/>
       <use xlink:href="#DejaVuSans-32" x="190.869141"/>
       <use xlink:href="#DejaVuSans-2d" x="254.492188"/>
       <use xlink:href="#DejaVuSans-30" x="290.576172"/>
       <use xlink:href="#DejaVuSans-36" x="354.199219"/>
      </g>
     </g>
    </g>
    <g id="xtick_19">
     <g id="line2d_51">
      <path d="M 565.27938 584.521875 
L 565.27938 331.135938 
" clip-path="url(#p7447ff3c29)" style="fill: none; stroke-dasharray: 2.96,1.28; stroke-dashoffset: 0; stroke: #b0b0b0; stroke-width: 0.8"/>
     </g>
     <g id="line2d_52">
      <g>
       <use xlink:href="#m23c1f59974" x="565.27938" y="584.521875" style="stroke: #000000; stroke-width: 0.8"/>
      </g>
     </g>
     <g id="text_15">
      <!-- 2022-07 -->
      <g transform="translate(544.387973 599.120312)scale(0.1 -0.1)">
       <defs>
        <path id="DejaVuSans-37" d="M 525 4666 
L 3525 4666 
L 3525 4397 
L 1831 0 
L 1172 0 
L 2766 4134 
L 525 4134 
L 525 4666 
z
" transform="scale(0.015625)"/>
       </defs>
       <use xlink:href="#DejaVuSans-32"/>
       <use xlink:href="#DejaVuSans-30" x="63.623047"/>
       <use xlink:href="#DejaVuSans-32" x="127.246094"/>
       <use xlink:href="#DejaVuSans-32" x="190.869141"/>
       <use xlink:href="#DejaVuSans-2d" x="254.492188"/>
       <use xlink:href="#DejaVuSans-30" x="290.576172"/>
       <use xlink:href="#DejaVuSans-37" x="354.199219"/>
      </g>
     </g>
    </g>
    <g id="xtick_20">
     <g id="line2d_53">
      <path d="M 648.28995 584.521875 
L 648.28995 331.135938 
" clip-path="url(#p7447ff3c29)" style="fill: none; stroke-dasharray: 2.96,1.28; stroke-dashoffset: 0; stroke: #b0b0b0; stroke-width: 0.8"/>
     </g>
     <g id="line2d_54">
      <g>
       <use xlink:href="#m23c1f59974" x="648.28995" y="584.521875" style="stroke: #000000; stroke-width: 0.8"/>
      </g>
     </g>
     <g id="text_16">
      <!-- 2022-08 -->
      <g transform="translate(627.398544 599.120312)scale(0.1 -0.1)">
       <defs>
        <path id="DejaVuSans-38" d="M 2034 2216 
Q 1584 2216 1326 1975 
Q 1069 1734 1069 1313 
Q 1069 891 1326 650 
Q 1584 409 2034 409 
Q 2484 409 2743 651 
Q 3003 894 3003 1313 
Q 3003 1734 2745 1975 
Q 2488 2216 2034 2216 
z
M 1403 2484 
Q 997 2584 770 2862 
Q 544 3141 544 3541 
Q 544 4100 942 4425 
Q 1341 4750 2034 4750 
Q 2731 4750 3128 4425 
Q 3525 4100 3525 3541 
Q 3525 3141 3298 2862 
Q 3072 2584 2669 2484 
Q 3125 2378 3379 2068 
Q 3634 1759 3634 1313 
Q 3634 634 3220 271 
Q 2806 -91 2034 -91 
Q 1263 -91 848 271 
Q 434 634 434 1313 
Q 434 1759 690 2068 
Q 947 2378 1403 2484 
z
M 1172 3481 
Q 1172 3119 1398 2916 
Q 1625 2713 2034 2713 
Q 2441 2713 2670 2916 
Q 2900 3119 2900 3481 
Q 2900 3844 2670 4047 
Q 2441 4250 2034 4250 
Q 1625 4250 1398 4047 
Q 1172 3844 1172 3481 
z
" transform="scale(0.015625)"/>
       </defs>
       <use xlink:href="#DejaVuSans-32"/>
       <use xlink:href="#DejaVuSans-30" x="63.623047"/>
       <use xlink:href="#DejaVuSans-32" x="127.246094"/>
       <use xlink:href="#DejaVuSans-32" x="190.869141"/>
       <use xlink:href="#DejaVuSans-2d" x="254.492188"/>
       <use xlink:href="#DejaVuSans-30" x="290.576172"/>
       <use xlink:href="#DejaVuSans-38" x="354.199219"/>
      </g>
     </g>
    </g>
    <g id="xtick_21">
     <g id="line2d_55">
      <path d="M 731.300521 584.521875 
L 731.300521 331.135938 
" clip-path="url(#p7447ff3c29)" style="fill: none; stroke-dasharray: 2.96,1.28; stroke-dashoffset: 0; stroke: #b0b0b0; stroke-width: 0.8"/>
     </g>
     <g id="line2d_56">
      <g>
       <use xlink:href="#m23c1f59974" x="731.300521" y="584.521875" style="stroke: #000000; stroke-width: 0.8"/>
      </g>
     </g>
     <g id="text_17">
      <!-- 2022-09 -->
      <g transform="translate(710.409115 599.120312)scale(0.1 -0.1)">
       <use xlink:href="#DejaVuSans-32"/>
       <use xlink:href="#DejaVuSans-30" x="63.623047"/>
       <use xlink:href="#DejaVuSans-32" x="127.246094"/>
       <use xlink:href="#DejaVuSans-32" x="190.869141"/>
       <use xlink:href="#DejaVuSans-2d" x="254.492188"/>
       <use xlink:href="#DejaVuSans-30" x="290.576172"/>
       <use xlink:href="#DejaVuSans-39" x="354.199219"/>
      </g>
     </g>
    </g>
    <g id="xtick_22">
     <g id="line2d_57">
      <path d="M 811.633332 584.521875 
L 811.633332 331.135938 
" clip-path="url(#p7447ff3c29)" style="fill: none; stroke-dasharray: 2.96,1.28; stroke-dashoffset: 0; stroke: #b0b0b0; stroke-width: 0.8"/>
     </g>
     <g id="line2d_58">
      <g>
       <use xlink:href="#m23c1f59974" x="811.633332" y="584.521875" style="stroke: #000000; stroke-width: 0.8"/>
      </g>
     </g>
     <g id="text_18">
      <!-- 2022-10 -->
      <g transform="translate(790.741925 599.120312)scale(0.1 -0.1)">
       <use xlink:href="#DejaVuSans-32"/>
       <use xlink:href="#DejaVuSans-30" x="63.623047"/>
       <use xlink:href="#DejaVuSans-32" x="127.246094"/>
       <use xlink:href="#DejaVuSans-32" x="190.869141"/>
       <use xlink:href="#DejaVuSans-2d" x="254.492188"/>
       <use xlink:href="#DejaVuSans-31" x="290.576172"/>
       <use xlink:href="#DejaVuSans-30" x="354.199219"/>
      </g>
     </g>
    </g>
    <g id="xtick_23">
     <g id="line2d_59">
      <path d="M 894.643902 584.521875 
L 894.643902 331.135938 
" clip-path="url(#p7447ff3c29)" style="fill: none; stroke-dasharray: 2.96,1.28; stroke-dashoffset: 0; stroke: #b0b0b0; stroke-width: 0.8"/>
     </g>
     <g id="line2d_60">
      <g>
       <use xlink:href="#m23c1f59974" x="894.643902" y="584.521875" style="stroke: #000000; stroke-width: 0.8"/>
      </g>
     </g>
     <g id="text_19">
      <!-- 2022-11 -->
      <g transform="translate(873.752496 599.120312)scale(0.1 -0.1)">
       <use xlink:href="#DejaVuSans-32"/>
       <use xlink:href="#DejaVuSans-30" x="63.623047"/>
       <use xlink:href="#DejaVuSans-32" x="127.246094"/>
       <use xlink:href="#DejaVuSans-32" x="190.869141"/>
       <use xlink:href="#DejaVuSans-2d" x="254.492188"/>
       <use xlink:href="#DejaVuSans-31" x="290.576172"/>
       <use xlink:href="#DejaVuSans-31" x="354.199219"/>
      </g>
     </g>
    </g>
    <g id="xtick_24">
     <g id="line2d_61">
      <path d="M 974.976713 584.521875 
L 974.976713 331.135938 
" clip-path="url(#p7447ff3c29)" style="fill: none; stroke-dasharray: 2.96,1.28; stroke-dashoffset: 0; stroke: #b0b0b0; stroke-width: 0.8"/>
     </g>
     <g id="line2d_62">
      <g>
       <use xlink:href="#m23c1f59974" x="974.976713" y="584.521875" style="stroke: #000000; stroke-width: 0.8"/>
      </g>
     </g>
     <g id="text_20">
      <!-- 2022-12 -->
      <g transform="translate(954.085307 599.120312)scale(0.1 -0.1)">
       <use xlink:href="#DejaVuSans-32"/>
       <use xlink:href="#DejaVuSans-30" x="63.623047"/>
       <use xlink:href="#DejaVuSans-32" x="127.246094"/>
       <use xlink:href="#DejaVuSans-32" x="190.869141"/>
       <use xlink:href="#DejaVuSans-2d" x="254.492188"/>
       <use xlink:href="#DejaVuSans-31" x="290.576172"/>
       <use xlink:href="#DejaVuSans-32" x="354.199219"/>
      </g>
     </g>
    </g>
   </g>
   <g id="matplotlib.axis_4">
    <g id="ytick_6">
     <g id="line2d_63">
      <path d="M 43.25 576.830885 
L 982.876106 576.830885 
" clip-path="url(#p7447ff3c29)" style="fill: none; stroke-dasharray: 2.96,1.28; stroke-dashoffset: 0; stroke: #b0b0b0; stroke-width: 0.8"/>
     </g>
     <g id="line2d_64">
      <g>
       <use xlink:href="#mac755a8daa" x="43.25" y="576.830885" style="stroke: #000000; stroke-width: 0.8"/>
      </g>
     </g>
     <g id="text_21">
      <!-- −40 -->
      <g transform="translate(15.145313 580.630103)scale(0.1 -0.1)">
       <defs>
        <path id="DejaVuSans-2212" d="M 678 2272 
L 4684 2272 
L 4684 1741 
L 678 1741 
L 678 2272 
z
" transform="scale(0.015625)"/>
       </defs>
       <use xlink:href="#DejaVuSans-2212"/>
       <use xlink:href="#DejaVuSans-34" x="83.789062"/>
       <use xlink:href="#DejaVuSans-30" x="147.412109"/>
      </g>
     </g>
    </g>
    <g id="ytick_7">
     <g id="line2d_65">
      <path d="M 43.25 544.645453 
L 982.876106 544.645453 
" clip-path="url(#p7447ff3c29)" style="fill: none; stroke-dasharray: 2.96,1.28; stroke-dashoffset: 0; stroke: #b0b0b0; stroke-width: 0.8"/>
     </g>
     <g id="line2d_66">
      <g>
       <use xlink:href="#mac755a8daa" x="43.25" y="544.645453" style="stroke: #000000; stroke-width: 0.8"/>
      </g>
     </g>
     <g id="text_22">
      <!-- −30 -->
      <g transform="translate(15.145313 548.444672)scale(0.1 -0.1)">
       <use xlink:href="#DejaVuSans-2212"/>
       <use xlink:href="#DejaVuSans-33" x="83.789062"/>
       <use xlink:href="#DejaVuSans-30" x="147.412109"/>
      </g>
     </g>
    </g>
    <g id="ytick_8">
     <g id="line2d_67">
      <path d="M 43.25 512.460022 
L 982.876106 512.460022 
" clip-path="url(#p7447ff3c29)" style="fill: none; stroke-dasharray: 2.96,1.28; stroke-dashoffset: 0; stroke: #b0b0b0; stroke-width: 0.8"/>
     </g>
     <g id="line2d_68">
      <g>
       <use xlink:href="#mac755a8daa" x="43.25" y="512.460022" style="stroke: #000000; stroke-width: 0.8"/>
      </g>
     </g>
     <g id="text_23">
      <!-- −20 -->
      <g transform="translate(15.145313 516.259241)scale(0.1 -0.1)">
       <use xlink:href="#DejaVuSans-2212"/>
       <use xlink:href="#DejaVuSans-32" x="83.789062"/>
       <use xlink:href="#DejaVuSans-30" x="147.412109"/>
      </g>
     </g>
    </g>
    <g id="ytick_9">
     <g id="line2d_69">
      <path d="M 43.25 480.274591 
L 982.876106 480.274591 
" clip-path="url(#p7447ff3c29)" style="fill: none; stroke-dasharray: 2.96,1.28; stroke-dashoffset: 0; stroke: #b0b0b0; stroke-width: 0.8"/>
     </g>
     <g id="line2d_70">
      <g>
       <use xlink:href="#mac755a8daa" x="43.25" y="480.274591" style="stroke: #000000; stroke-width: 0.8"/>
      </g>
     </g>
     <g id="text_24">
      <!-- −10 -->
      <g transform="translate(15.145313 484.07381)scale(0.1 -0.1)">
       <use xlink:href="#DejaVuSans-2212"/>
       <use xlink:href="#DejaVuSans-31" x="83.789062"/>
       <use xlink:href="#DejaVuSans-30" x="147.412109"/>
      </g>
     </g>
    </g>
    <g id="ytick_10">
     <g id="line2d_71">
      <path d="M 43.25 448.08916 
L 982.876106 448.08916 
" clip-path="url(#p7447ff3c29)" style="fill: none; stroke-dasharray: 2.96,1.28; stroke-dashoffset: 0; stroke: #b0b0b0; stroke-width: 0.8"/>
     </g>
     <g id="line2d_72">
      <g>
       <use xlink:href="#mac755a8daa" x="43.25" y="448.08916" style="stroke: #000000; stroke-width: 0.8"/>
      </g>
     </g>
     <g id="text_25">
      <!-- 0 -->
      <g transform="translate(29.8875 451.888379)scale(0.1 -0.1)">
       <use xlink:href="#DejaVuSans-30"/>
      </g>
     </g>
    </g>
    <g id="ytick_11">
     <g id="line2d_73">
      <path d="M 43.25 415.903729 
L 982.876106 415.903729 
" clip-path="url(#p7447ff3c29)" style="fill: none; stroke-dasharray: 2.96,1.28; stroke-dashoffset: 0; stroke: #b0b0b0; stroke-width: 0.8"/>
     </g>
     <g id="line2d_74">
      <g>
       <use xlink:href="#mac755a8daa" x="43.25" y="415.903729" style="stroke: #000000; stroke-width: 0.8"/>
      </g>
     </g>
     <g id="text_26">
      <!-- 10 -->
      <g transform="translate(23.525 419.702948)scale(0.1 -0.1)">
       <use xlink:href="#DejaVuSans-31"/>
       <use xlink:href="#DejaVuSans-30" x="63.623047"/>
      </g>
     </g>
    </g>
    <g id="ytick_12">
     <g id="line2d_75">
      <path d="M 43.25 383.718298 
L 982.876106 383.718298 
" clip-path="url(#p7447ff3c29)" style="fill: none; stroke-dasharray: 2.96,1.28; stroke-dashoffset: 0; stroke: #b0b0b0; stroke-width: 0.8"/>
     </g>
     <g id="line2d_76">
      <g>
       <use xlink:href="#mac755a8daa" x="43.25" y="383.718298" style="stroke: #000000; stroke-width: 0.8"/>
      </g>
     </g>
     <g id="text_27">
      <!-- 20 -->
      <g transform="translate(23.525 387.517516)scale(0.1 -0.1)">
       <use xlink:href="#DejaVuSans-32"/>
       <use xlink:href="#DejaVuSans-30" x="63.623047"/>
      </g>
     </g>
    </g>
    <g id="ytick_13">
     <g id="line2d_77">
      <path d="M 43.25 351.532866 
L 982.876106 351.532866 
" clip-path="url(#p7447ff3c29)" style="fill: none; stroke-dasharray: 2.96,1.28; stroke-dashoffset: 0; stroke: #b0b0b0; stroke-width: 0.8"/>
     </g>
     <g id="line2d_78">
      <g>
       <use xlink:href="#mac755a8daa" x="43.25" y="351.532866" style="stroke: #000000; stroke-width: 0.8"/>
      </g>
     </g>
     <g id="text_28">
      <!-- 30 -->
      <g transform="translate(23.525 355.332085)scale(0.1 -0.1)">
       <use xlink:href="#DejaVuSans-33"/>
       <use xlink:href="#DejaVuSans-30" x="63.623047"/>
      </g>
     </g>
    </g>
   </g>
   <g id="line2d_79">
    <path d="M 85.960278 448.08916 
L 88.638038 447.56202 
L 91.315798 449.683094 
L 93.993559 453.612618 
L 96.671319 454.907965 
L 104.7046 455.89566 
L 107.38236 448.295122 
L 110.060121 441.894294 
L 115.415641 438.987256 
L 123.448922 451.5354 
L 128.804443 482.962437 
L 131.482203 498.469845 
L 134.159964 510.935303 
L 142.193245 528.007622 
L 144.871005 540.274877 
L 150.226526 557.862494 
L 152.904286 569.48609 
L 160.937567 573.004332 
L 163.615328 567.113382 
L 166.293088 552.898204 
L 168.970848 543.736124 
L 171.648609 533.93128 
L 179.68189 526.740235 
L 182.35965 519.181065 
L 187.715171 496.651757 
L 190.392931 493.308629 
L 198.426212 494.206352 
L 201.103972 489.170944 
L 203.781733 484.939004 
L 206.459493 482.337661 
L 209.137254 479.441312 
L 217.170535 476.875107 
L 219.848295 478.215266 
L 222.526055 478.078503 
L 225.203816 490.917544 
L 227.881576 492.841462 
L 235.914857 494.509759 
L 241.270378 498.095095 
L 243.948138 494.353883 
L 246.625898 491.204658 
L 254.659179 484.327617 
L 262.69246 451.482007 
L 265.370221 442.512627 
L 273.403502 433.189752 
L 276.081262 432.601752 
L 278.759023 426.609355 
L 281.436783 422.817417 
L 292.147824 427.426843 
L 294.825585 429.160754 
L 297.503345 429.645981 
L 300.181105 427.346252 
L 302.858866 429.017334 
L 310.892147 434.455732 
L 316.247667 441.38287 
L 318.925428 444.542589 
L 321.603188 445.55544 
L 329.636469 441.942911 
L 332.314229 437.040816 
L 334.99199 439.692404 
L 337.66975 441.150731 
L 340.347511 444.40258 
L 348.380792 455.129134 
L 351.058552 464.052911 
L 353.736312 472.408758 
L 367.125114 484.649206 
L 369.802874 501.880093 
L 372.480635 509.865962 
L 375.158395 512.909786 
L 377.836155 513.825794 
L 385.869436 516.917937 
L 388.547197 517.416086 
L 391.224957 516.68301 
L 393.902717 516.120946 
L 396.580478 518.300294 
L 404.613759 522.372438 
L 409.96928 530.342178 
L 412.64704 528.701505 
L 415.3248 532.099095 
L 423.358081 527.162479 
L 426.035842 523.303852 
L 428.713602 522.411151 
L 431.391362 521.249346 
L 434.069123 521.364847 
L 442.102404 522.569685 
L 444.780164 512.826692 
L 447.457924 506.815781 
L 450.135685 517.934164 
L 452.813445 520.858592 
L 460.846726 525.027457 
L 463.524487 534.22956 
L 466.202247 544.896802 
L 468.880007 550.547069 
L 471.557768 547.852311 
L 479.591049 535.364972 
L 482.268809 524.368682 
L 484.946569 520.748674 
L 487.62433 511.489152 
L 490.30209 502.665016 
L 498.335371 496.592622 
L 501.013131 494.978509 
L 503.690892 491.30571 
L 506.368652 488.333526 
L 509.046412 488.96031 
L 517.079693 495.030873 
L 519.757454 497.942849 
L 522.435214 501.453106 
L 525.112974 510.000066 
L 527.790735 517.582455 
L 535.824016 522.39737 
L 538.501776 518.507029 
L 541.179537 521.151579 
L 543.857297 519.836491 
L 546.535057 519.156604 
L 554.568338 511.228994 
L 557.246099 501.833767 
L 559.923859 497.55727 
L 562.601619 497.314255 
L 573.312661 492.091603 
L 575.990421 489.138411 
L 578.668181 485.214381 
L 581.345942 480.882521 
L 584.023702 478.73235 
L 592.056983 486.968096 
L 597.412504 506.920146 
L 600.090264 517.792229 
L 602.768025 530.612227 
L 610.801306 535.312809 
L 613.479066 540.72307 
L 616.156826 536.794418 
L 618.834587 530.89548 
L 621.512347 526.408468 
L 629.545628 519.330327 
L 632.223388 517.376089 
L 634.901149 511.217048 
L 637.578909 501.140616 
L 640.256669 492.050884 
L 648.28995 483.465512 
L 650.967711 476.618353 
L 653.645471 469.349658 
L 656.323232 463.181454 
L 659.000992 458.266685 
L 667.034273 452.169095 
L 672.389794 450.939755 
L 675.067554 447.299608 
L 677.745314 445.98429 
L 688.456356 444.515611 
L 691.134116 437.654498 
L 693.811876 434.220811 
L 696.489637 432.574426 
L 704.522918 434.182866 
L 707.200678 438.823712 
L 709.878438 441.987606 
L 712.556199 445.909581 
L 715.233959 448.532206 
L 723.26724 457.809406 
L 725.945001 459.459826 
L 731.300521 463.935374 
L 733.978282 467.672073 
L 742.011563 467.411065 
L 744.689323 466.52423 
L 747.367083 467.1855 
L 750.044844 467.652855 
L 752.722604 463.31579 
L 760.755885 457.934199 
L 763.433645 453.644171 
L 766.111406 456.227671 
L 768.789166 461.265704 
L 771.466926 470.96796 
L 779.500207 478.077642 
L 782.177968 479.146812 
L 784.855728 482.98113 
L 787.533489 486.43487 
L 790.211249 489.165953 
L 798.24453 488.051844 
L 806.277811 474.856972 
L 808.955571 468.735068 
L 816.988852 464.242598 
L 819.666613 456.494963 
L 825.022133 445.566378 
L 827.699894 438.791582 
L 835.733175 432.164688 
L 838.410935 433.483034 
L 841.088695 431.241931 
L 843.766456 421.949903 
L 846.444216 409.717174 
L 854.477497 402.611576 
L 857.155258 393.814227 
L 859.833018 391.019196 
L 865.188539 376.529514 
L 873.22182 370.444302 
L 875.89958 367.870952 
L 881.255101 365.344001 
L 883.932861 364.833497 
L 891.966142 362.519552 
L 894.643902 356.829212 
L 897.321663 357.223704 
L 899.999423 358.581119 
L 902.677183 360.613306 
L 910.710465 362.740201 
L 916.065985 363.761686 
L 918.743746 365.779741 
L 921.421506 358.490993 
L 929.454787 351.657636 
L 932.132547 346.144726 
L 934.810308 342.65348 
L 937.488068 344.367605 
L 940.165828 344.171045 
L 940.165828 344.171045 
" clip-path="url(#p7447ff3c29)" style="fill: none; stroke: #1f77b4; stroke-width: 1.5; stroke-linecap: square"/>
   </g>
   <g id="line2d_80">
    <path d="M 85.960278 448.08916 
L 88.638038 447.796305 
L 91.315798 448.569579 
L 93.993559 450.277926 
L 96.671319 451.655258 
L 104.7046 452.804642 
L 107.38236 451.663403 
L 110.060121 449.315702 
L 112.737881 447.259466 
L 115.415641 445.40601 
L 123.448922 446.747086 
L 126.126683 451.221829 
L 128.804443 457.939245 
L 131.482203 466.418276 
L 134.159964 475.646366 
L 142.193245 486.421922 
L 144.871005 497.440633 
L 150.226526 509.746691 
L 152.904286 521.869276 
L 160.937567 532.215572 
L 163.615328 539.260108 
L 166.293088 542.008003 
L 168.970848 542.35568 
L 171.648609 540.662805 
L 179.68189 537.867732 
L 182.35965 534.119069 
L 185.03741 528.910158 
L 187.715171 522.445974 
L 190.392931 516.609474 
L 198.426212 512.123296 
L 203.781733 503.006838 
L 206.459493 498.870381 
L 209.137254 494.982596 
L 217.170535 491.359628 
L 219.848295 488.729902 
L 222.526055 486.599069 
L 225.203816 487.462944 
L 227.881576 488.538826 
L 235.914857 489.733171 
L 241.270378 491.405734 
L 243.948138 491.995414 
L 246.625898 491.837252 
L 254.659179 490.335243 
L 257.33694 486.921495 
L 260.0147 482.030808 
L 262.69246 475.920877 
L 265.370221 469.239078 
L 273.403502 462.029085 
L 278.759023 450.236631 
L 281.436783 444.752738 
L 292.147824 441.287534 
L 294.825585 438.862164 
L 300.181105 435.084378 
L 302.858866 433.870965 
L 310.892147 433.987919 
L 313.569907 434.774 
L 316.247667 436.095776 
L 318.925428 437.785141 
L 321.603188 439.339202 
L 329.636469 439.859944 
L 332.314229 439.296118 
L 334.99199 439.375375 
L 337.66975 439.730447 
L 348.380792 443.557727 
L 351.058552 447.656764 
L 353.736312 452.607164 
L 367.125114 459.015573 
L 372.480635 476.043976 
L 375.158395 483.417138 
L 377.836155 489.49887 
L 385.869436 494.982683 
L 388.547197 499.469364 
L 391.224957 502.912093 
L 396.580478 508.10315 
L 404.613759 510.957008 
L 409.96928 514.834042 
L 415.3248 520.505847 
L 423.358081 521.837173 
L 426.035842 522.130509 
L 428.713602 522.186637 
L 434.069123 521.872313 
L 442.102404 522.011787 
L 444.780164 520.174768 
L 447.457924 517.502971 
L 450.135685 517.589209 
L 452.813445 518.243086 
L 460.846726 519.59996 
L 463.524487 522.52588 
L 466.202247 527.000064 
L 468.880007 531.709465 
L 471.557768 534.938035 
L 479.591049 535.023422 
L 482.268809 532.892474 
L 484.946569 530.463714 
L 487.62433 526.668802 
L 490.30209 521.868045 
L 498.335371 516.81296 
L 503.690892 508.217998 
L 506.368652 504.241104 
L 509.046412 501.184945 
L 519.757454 499.551874 
L 522.435214 499.932121 
L 525.112974 501.94571 
L 527.790735 505.073059 
L 535.824016 508.537921 
L 541.179537 512.65571 
L 543.857297 514.091866 
L 546.535057 515.104814 
L 554.568338 514.32965 
L 557.246099 511.830473 
L 559.923859 508.975832 
L 562.601619 506.643517 
L 565.27938 504.519562 
L 573.312661 502.03397 
L 575.990421 499.454859 
L 578.668181 496.606763 
L 581.345942 493.461915 
L 584.023702 490.516002 
L 592.056983 489.806421 
L 594.734744 491.249374 
L 597.412504 494.383528 
L 600.090264 499.065268 
L 602.768025 505.37466 
L 610.801306 511.36229 
L 613.479066 517.234446 
L 616.156826 521.14644 
L 618.834587 523.096248 
L 621.512347 523.758692 
L 629.545628 522.873019 
L 632.223388 521.773633 
L 634.901149 519.662316 
L 637.578909 515.957976 
L 640.256669 511.176558 
L 648.28995 505.634349 
L 650.967711 499.83115 
L 659.000992 481.752674 
L 667.034273 475.835959 
L 672.389794 470.856718 
L 675.067554 466.145296 
L 677.745314 462.113095 
L 688.456356 458.593598 
L 693.811876 450.368785 
L 696.489637 446.809913 
L 704.522918 444.284503 
L 707.200678 443.192345 
L 709.878438 442.951397 
L 712.556199 443.543034 
L 715.233959 444.540869 
L 723.26724 447.194576 
L 725.945001 449.647626 
L 731.300521 452.505176 
L 733.978282 455.538555 
L 742.011563 457.913057 
L 744.689323 459.635292 
L 747.367083 461.145333 
L 750.044844 462.446838 
L 752.722604 462.620628 
L 760.755885 461.683342 
L 763.433645 460.075508 
L 766.111406 459.305941 
L 768.789166 459.697893 
L 771.466926 461.951907 
L 779.500207 465.177054 
L 782.177968 467.971005 
L 790.211249 477.085509 
L 798.24453 479.278776 
L 800.92229 480.148964 
L 803.600051 479.965918 
L 806.277811 478.944129 
L 808.955571 476.902317 
L 816.988852 474.370373 
L 819.666613 470.795291 
L 825.022133 465.749508 
L 827.699894 460.357923 
L 835.733175 454.719276 
L 838.410935 450.472028 
L 841.088695 446.626008 
L 843.766456 441.690787 
L 846.444216 435.296065 
L 854.477497 428.759167 
L 857.155258 421.770179 
L 862.510778 409.275069 
L 865.188539 402.725958 
L 873.22182 396.269627 
L 875.89958 390.589892 
L 881.255101 385.540714 
L 883.932861 381.39927 
L 891.966142 377.623327 
L 894.643902 373.464504 
L 897.321663 370.216344 
L 899.999423 367.889299 
L 902.677183 366.4341 
L 916.065985 365.308594 
L 918.743746 365.402823 
L 921.421506 364.020457 
L 929.454787 361.547893 
L 934.810308 355.304504 
L 937.488068 353.117124 
L 940.165828 351.327908 
L 940.165828 351.327908 
" clip-path="url(#p7447ff3c29)" style="fill: none; stroke: #ff7f0e; stroke-width: 1.5; stroke-linecap: square"/>
   </g>
   <g id="patch_9">
    <path d="M 43.25 584.521875 
L 43.25 331.135937 
" style="fill: none; stroke: #000000; stroke-width: 0.8; stroke-linejoin: miter; stroke-linecap: square"/>
   </g>
   <g id="patch_10">
    <path d="M 982.876106 584.521875 
L 982.876106 331.135937 
" style="fill: none; stroke: #000000; stroke-width: 0.8; stroke-linejoin: miter; stroke-linecap: square"/>
   </g>
   <g id="patch_11">
    <path d="M 43.25 584.521875 
L 982.876106 584.521875 
" style="fill: none; stroke: #000000; stroke-width: 0.8; stroke-linejoin: miter; stroke-linecap: square"/>
   </g>
   <g id="patch_12">
    <path d="M 43.25 331.135938 
L 982.876106 331.135938 
" style="fill: none; stroke: #000000; stroke-width: 0.8; stroke-linejoin: miter; stroke-linecap: square"/>
   </g>
   <g id="text_29">
    <!-- MACD -->
    <g transform="translate(495.077115 325.135938)scale(0.12 -0.12)">
     <defs>
      <path id="DejaVuSans-44" d="M 1259 4147 
L 1259 519 
L 2022 519 
Q 2988 519 3436 956 
Q 3884 1394 3884 2338 
Q 3884 3275 3436 3711 
Q 2988 4147 2022 4147 
L 1259 4147 
z
M 628 4666 
L 1925 4666 
Q 3281 4666 3915 4102 
Q 4550 3538 4550 2338 
Q 4550 1131 3912 565 
Q 3275 0 1925 0 
L 628 0 
L 628 4666 
z
" transform="scale(0.015625)"/>
     </defs>
     <use xlink:href="#DejaVuSans-4d"/>
     <use xlink:href="#DejaVuSans-41" x="86.279297"/>
     <use xlink:href="#DejaVuSans-43" x="152.9375"/>
     <use xlink:href="#DejaVuSans-44" x="222.761719"/>
    </g>
   </g>
   <g id="legend_2">
    <g id="patch_13">
     <path d="M 50.25 368.492188 
L 112.226563 368.492188 
Q 114.226563 368.492188 114.226563 366.492188 
L 114.226563 338.135938 
Q 114.226563 336.135938 112.226563 336.135938 
L 50.25 336.135938 
Q 48.25 336.135938 48.25 338.135938 
L 48.25 366.492188 
Q 48.25 368.492188 50.25 368.492188 
z
" style="fill: #ffffff; opacity: 0.8; stroke: #cccccc; stroke-linejoin: miter"/>
    </g>
    <g id="line2d_81">
     <path d="M 52.25 344.234375 
L 62.25 344.234375 
L 72.25 344.234375 
" style="fill: none; stroke: #1f77b4; stroke-width: 1.5; stroke-linecap: square"/>
    </g>
    <g id="text_30">
     <!-- MACD -->
     <g transform="translate(80.25 347.734375)scale(0.1 -0.1)">
      <use xlink:href="#DejaVuSans-4d"/>
      <use xlink:href="#DejaVuSans-41" x="86.279297"/>
      <use xlink:href="#DejaVuSans-43" x="152.9375"/>
      <use xlink:href="#DejaVuSans-44" x="222.761719"/>
     </g>
    </g>
    <g id="line2d_82">
     <path d="M 52.25 358.9125 
L 62.25 358.9125 
L 72.25 358.9125 
" style="fill: none; stroke: #ff7f0e; stroke-width: 1.5; stroke-linecap: square"/>
    </g>
    <g id="text_31">
     <!-- SIG -->
     <g transform="translate(80.25 362.4125)scale(0.1 -0.1)">
      <defs>
       <path id="DejaVuSans-49" d="M 628 4666 
L 1259 4666 
L 1259 0 
L 628 0 
L 628 4666 
z
" transform="scale(0.015625)"/>
       <path id="DejaVuSans-47" d="M 3809 666 
L 3809 1919 
L 2778 1919 
L 2778 2438 
L 4434 2438 
L 4434 434 
Q 4069 175 3628 42 
Q 3188 -91 2688 -91 
Q 1594 -91 976 548 
Q 359 1188 359 2328 
Q 359 3472 976 4111 
Q 1594 4750 2688 4750 
Q 3144 4750 3555 4637 
Q 3966 4525 4313 4306 
L 4313 3634 
Q 3963 3931 3569 4081 
Q 3175 4231 2741 4231 
Q 1884 4231 1454 3753 
Q 1025 3275 1025 2328 
Q 1025 1384 1454 906 
Q 1884 428 2741 428 
Q 3075 428 3337 486 
Q 3600 544 3809 666 
z
" transform="scale(0.015625)"/>
      </defs>
      <use xlink:href="#DejaVuSans-53"/>
      <use xlink:href="#DejaVuSans-49" x="63.476562"/>
      <use xlink:href="#DejaVuSans-47" x="92.96875"/>
     </g>
    </g>
   </g>
  </g>
  <g id="text_32">
   <!-- HCL Technologies Limited -->
   <g transform="translate(427.223437 21.358125)scale(0.12 -0.12)">
    <defs>
     <path id="DejaVuSans-48" d="M 628 4666 
L 1259 4666 
L 1259 2753 
L 3553 2753 
L 3553 4666 
L 4184 4666 
L 4184 0 
L 3553 0 
L 3553 2222 
L 1259 2222 
L 1259 0 
L 628 0 
L 628 4666 
z
" transform="scale(0.015625)"/>
     <path id="DejaVuSans-54" d="M -19 4666 
L 3928 4666 
L 3928 4134 
L 2272 4134 
L 2272 0 
L 1638 0 
L 1638 4134 
L -19 4134 
L -19 4666 
z
" transform="scale(0.015625)"/>
     <path id="DejaVuSans-68" d="M 3513 2113 
L 3513 0 
L 2938 0 
L 2938 2094 
Q 2938 2591 2744 2837 
Q 2550 3084 2163 3084 
Q 1697 3084 1428 2787 
Q 1159 2491 1159 1978 
L 1159 0 
L 581 0 
L 581 4863 
L 1159 4863 
L 1159 2956 
Q 1366 3272 1645 3428 
Q 1925 3584 2291 3584 
Q 2894 3584 3203 3211 
Q 3513 2838 3513 2113 
z
" transform="scale(0.015625)"/>
     <path id="DejaVuSans-6d" d="M 3328 2828 
Q 3544 3216 3844 3400 
Q 4144 3584 4550 3584 
Q 5097 3584 5394 3201 
Q 5691 2819 5691 2113 
L 5691 0 
L 5113 0 
L 5113 2094 
Q 5113 2597 4934 2840 
Q 4756 3084 4391 3084 
Q 3944 3084 3684 2787 
Q 3425 2491 3425 1978 
L 3425 0 
L 2847 0 
L 2847 2094 
Q 2847 2600 2669 2842 
Q 2491 3084 2119 3084 
Q 1678 3084 1418 2786 
Q 1159 2488 1159 1978 
L 1159 0 
L 581 0 
L 581 3500 
L 1159 3500 
L 1159 2956 
Q 1356 3278 1631 3431 
Q 1906 3584 2284 3584 
Q 2666 3584 2933 3390 
Q 3200 3197 3328 2828 
z
" transform="scale(0.015625)"/>
     <path id="DejaVuSans-74" d="M 1172 4494 
L 1172 3500 
L 2356 3500 
L 2356 3053 
L 1172 3053 
L 1172 1153 
Q 1172 725 1289 603 
Q 1406 481 1766 481 
L 2356 481 
L 2356 0 
L 1766 0 
Q 1100 0 847 248 
Q 594 497 594 1153 
L 594 3053 
L 172 3053 
L 172 3500 
L 594 3500 
L 594 4494 
L 1172 4494 
z
" transform="scale(0.015625)"/>
     <path id="DejaVuSans-64" d="M 2906 2969 
L 2906 4863 
L 3481 4863 
L 3481 0 
L 2906 0 
L 2906 525 
Q 2725 213 2448 61 
Q 2172 -91 1784 -91 
Q 1150 -91 751 415 
Q 353 922 353 1747 
Q 353 2572 751 3078 
Q 1150 3584 1784 3584 
Q 2172 3584 2448 3432 
Q 2725 3281 2906 2969 
z
M 947 1747 
Q 947 1113 1208 752 
Q 1469 391 1925 391 
Q 2381 391 2643 752 
Q 2906 1113 2906 1747 
Q 2906 2381 2643 2742 
Q 2381 3103 1925 3103 
Q 1469 3103 1208 2742 
Q 947 2381 947 1747 
z
" transform="scale(0.015625)"/>
    </defs>
    <use xlink:href="#DejaVuSans-48"/>
    <use xlink:href="#DejaVuSans-43" x="75.195312"/>
    <use xlink:href="#DejaVuSans-4c" x="145.019531"/>
    <use xlink:href="#DejaVuSans-20" x="200.732422"/>
    <use xlink:href="#DejaVuSans-54" x="232.519531"/>
    <use xlink:href="#DejaVuSans-65" x="276.603516"/>
    <use xlink:href="#DejaVuSans-63" x="338.126953"/>
    <use xlink:href="#DejaVuSans-68" x="393.107422"/>
    <use xlink:href="#DejaVuSans-6e" x="456.486328"/>
    <use xlink:href="#DejaVuSans-6f" x="519.865234"/>
    <use xlink:href="#DejaVuSans-6c" x="581.046875"/>
    <use xlink:href="#DejaVuSans-6f" x="608.830078"/>
    <use xlink:href="#DejaVuSans-67" x="670.011719"/>
    <use xlink:href="#DejaVuSans-69" x="733.488281"/>
    <use xlink:href="#DejaVuSans-65" x="761.271484"/>
    <use xlink:href="#DejaVuSans-73" x="822.794922"/>
    <use xlink:href="#DejaVuSans-20" x="874.894531"/>
    <use xlink:href="#DejaVuSans-4c" x="906.681641"/>
    <use xlink:href="#DejaVuSans-69" x="962.394531"/>
    <use xlink:href="#DejaVuSans-6d" x="990.177734"/>
    <use xlink:href="#DejaVuSans-69" x="1087.589844"/>
    <use xlink:href="#DejaVuSans-74" x="1115.373047"/>
    <use xlink:href="#DejaVuSans-65" x="1154.582031"/>
    <use xlink:href="#DejaVuSans-64" x="1216.105469"/>
   </g>
  </g>
 </g>
 <defs>
  <clipPath id="p9c4ea55cab">
   <rect x="43.25" y="48.331875" width="939.626106" height="253.385938"/>
  </clipPath>
  <clipPath id="p7447ff3c29">
   <rect x="43.25" y="331.135938" width="939.626106" height="253.385937"/>
  </clipPath>
 </defs>
</svg>
