<?xml version="1.0" encoding="utf-8" standalone="no"?>
<!DOCTYPE svg PUBLIC "-//W3C//DTD SVG 1.1//EN"
  "http://www.w3.org/Graphics/SVG/1.1/DTD/svg11.dtd">
<svg xmlns:xlink="http://www.w3.org/1999/xlink" width="1008pt" height="612pt" viewBox="0 0 1008 612" xmlns="http://www.w3.org/2000/svg" version="1.1">
 <metadata>
  <rdf:RDF xmlns:dc="http://purl.org/dc/elements/1.1/" xmlns:cc="http://creativecommons.org/ns#" xmlns:rdf="http://www.w3.org/1999/02/22-rdf-syntax-ns#">
   <cc:Work>
    <dc:type rdf:resource="http://purl.org/dc/dcmitype/StillImage"/>
    <dc:date>2022-11-20T19:46:51.648376</dc:date>
    <dc:format>image/svg+xml</dc:format>
    <dc:creator>
     <cc:Agent>
      <dc:title>Matplotlib v3.5.2, https://matplotlib.org/</dc:title>
     </cc:Agent>
    </dc:creator>
   </cc:Work>
  </rdf:RDF>
 </metadata>
 <defs>
  <style type="text/css">*{stroke-linejoin: round; stroke-linecap: butt}</style>
 </defs>
 <g id="figure_1">
  <g id="patch_1">
   <path d="M 0 612 
L 1008 612 
L 1008 0 
L 0 0 
z
" style="fill: #ffffff"/>
  </g>
  <g id="axes_1">
   <g id="patch_2">
    <path d="M 45.267188 301.717812 
L 982.876106 301.717812 
L 982.876106 48.331875 
L 45.267188 48.331875 
z
" style="fill: #ffffff"/>
   </g>
   <g id="matplotlib.axis_1">
    <g id="xtick_1">
     <g id="line2d_1">
      <path d="M 82.541751 301.717812 
L 82.541751 48.331875 
" clip-path="url(#p44a2c48807)" style="fill: none; stroke-dasharray: 2.96,1.28; stroke-dashoffset: 0; stroke: #b0b0b0; stroke-width: 0.8"/>
     </g>
     <g id="line2d_2">
      <defs>
       <path id="mb5c2f1cb82" d="M 0 0 
L 0 3.5 
" style="stroke: #000000; stroke-width: 0.8"/>
      </defs>
      <g>
       <use xlink:href="#mb5c2f1cb82" x="82.541751" y="301.717812" style="stroke: #000000; stroke-width: 0.8"/>
      </g>
     </g>
    </g>
    <g id="xtick_2">
     <g id="line2d_3">
      <path d="M 165.374115 301.717812 
L 165.374115 48.331875 
" clip-path="url(#p44a2c48807)" style="fill: none; stroke-dasharray: 2.96,1.28; stroke-dashoffset: 0; stroke: #b0b0b0; stroke-width: 0.8"/>
     </g>
     <g id="line2d_4">
      <g>
       <use xlink:href="#mb5c2f1cb82" x="165.374115" y="301.717812" style="stroke: #000000; stroke-width: 0.8"/>
      </g>
     </g>
    </g>
    <g id="xtick_3">
     <g id="line2d_5">
      <path d="M 240.190444 301.717812 
L 240.190444 48.331875 
" clip-path="url(#p44a2c48807)" style="fill: none; stroke-dasharray: 2.96,1.28; stroke-dashoffset: 0; stroke: #b0b0b0; stroke-width: 0.8"/>
     </g>
     <g id="line2d_6">
      <g>
       <use xlink:href="#mb5c2f1cb82" x="240.190444" y="301.717812" style="stroke: #000000; stroke-width: 0.8"/>
      </g>
     </g>
    </g>
    <g id="xtick_4">
     <g id="line2d_7">
      <path d="M 323.022808 301.717812 
L 323.022808 48.331875 
" clip-path="url(#p44a2c48807)" style="fill: none; stroke-dasharray: 2.96,1.28; stroke-dashoffset: 0; stroke: #b0b0b0; stroke-width: 0.8"/>
     </g>
     <g id="line2d_8">
      <g>
       <use xlink:href="#mb5c2f1cb82" x="323.022808" y="301.717812" style="stroke: #000000; stroke-width: 0.8"/>
      </g>
     </g>
    </g>
    <g id="xtick_5">
     <g id="line2d_9">
      <path d="M 403.18316 301.717812 
L 403.18316 48.331875 
" clip-path="url(#p44a2c48807)" style="fill: none; stroke-dasharray: 2.96,1.28; stroke-dashoffset: 0; stroke: #b0b0b0; stroke-width: 0.8"/>
     </g>
     <g id="line2d_10">
      <g>
       <use xlink:href="#mb5c2f1cb82" x="403.18316" y="301.717812" style="stroke: #000000; stroke-width: 0.8"/>
      </g>
     </g>
    </g>
    <g id="xtick_6">
     <g id="line2d_11">
      <path d="M 486.015523 301.717812 
L 486.015523 48.331875 
" clip-path="url(#p44a2c48807)" style="fill: none; stroke-dasharray: 2.96,1.28; stroke-dashoffset: 0; stroke: #b0b0b0; stroke-width: 0.8"/>
     </g>
     <g id="line2d_12">
      <g>
       <use xlink:href="#mb5c2f1cb82" x="486.015523" y="301.717812" style="stroke: #000000; stroke-width: 0.8"/>
      </g>
     </g>
    </g>
    <g id="xtick_7">
     <g id="line2d_13">
      <path d="M 566.175876 301.717812 
L 566.175876 48.331875 
" clip-path="url(#p44a2c48807)" style="fill: none; stroke-dasharray: 2.96,1.28; stroke-dashoffset: 0; stroke: #b0b0b0; stroke-width: 0.8"/>
     </g>
     <g id="line2d_14">
      <g>
       <use xlink:href="#mb5c2f1cb82" x="566.175876" y="301.717812" style="stroke: #000000; stroke-width: 0.8"/>
      </g>
     </g>
    </g>
    <g id="xtick_8">
     <g id="line2d_15">
      <path d="M 649.008239 301.717812 
L 649.008239 48.331875 
" clip-path="url(#p44a2c48807)" style="fill: none; stroke-dasharray: 2.96,1.28; stroke-dashoffset: 0; stroke: #b0b0b0; stroke-width: 0.8"/>
     </g>
     <g id="line2d_16">
      <g>
       <use xlink:href="#mb5c2f1cb82" x="649.008239" y="301.717812" style="stroke: #000000; stroke-width: 0.8"/>
      </g>
     </g>
    </g>
    <g id="xtick_9">
     <g id="line2d_17">
      <path d="M 731.840603 301.717812 
L 731.840603 48.331875 
" clip-path="url(#p44a2c48807)" style="fill: none; stroke-dasharray: 2.96,1.28; stroke-dashoffset: 0; stroke: #b0b0b0; stroke-width: 0.8"/>
     </g>
     <g id="line2d_18">
      <g>
       <use xlink:href="#mb5c2f1cb82" x="731.840603" y="301.717812" style="stroke: #000000; stroke-width: 0.8"/>
      </g>
     </g>
    </g>
    <g id="xtick_10">
     <g id="line2d_19">
      <path d="M 812.000955 301.717812 
L 812.000955 48.331875 
" clip-path="url(#p44a2c48807)" style="fill: none; stroke-dasharray: 2.96,1.28; stroke-dashoffset: 0; stroke: #b0b0b0; stroke-width: 0.8"/>
     </g>
     <g id="line2d_20">
      <g>
       <use xlink:href="#mb5c2f1cb82" x="812.000955" y="301.717812" style="stroke: #000000; stroke-width: 0.8"/>
      </g>
     </g>
    </g>
    <g id="xtick_11">
     <g id="line2d_21">
      <path d="M 894.833319 301.717812 
L 894.833319 48.331875 
" clip-path="url(#p44a2c48807)" style="fill: none; stroke-dasharray: 2.96,1.28; stroke-dashoffset: 0; stroke: #b0b0b0; stroke-width: 0.8"/>
     </g>
     <g id="line2d_22">
      <g>
       <use xlink:href="#mb5c2f1cb82" x="894.833319" y="301.717812" style="stroke: #000000; stroke-width: 0.8"/>
      </g>
     </g>
    </g>
    <g id="xtick_12">
     <g id="line2d_23">
      <path d="M 974.993671 301.717812 
L 974.993671 48.331875 
" clip-path="url(#p44a2c48807)" style="fill: none; stroke-dasharray: 2.96,1.28; stroke-dashoffset: 0; stroke: #b0b0b0; stroke-width: 0.8"/>
     </g>
     <g id="line2d_24">
      <g>
       <use xlink:href="#mb5c2f1cb82" x="974.993671" y="301.717812" style="stroke: #000000; stroke-width: 0.8"/>
      </g>
     </g>
    </g>
   </g>
   <g id="matplotlib.axis_2">
    <g id="ytick_1">
     <g id="line2d_25">
      <path d="M 45.267188 282.666622 
L 982.876106 282.666622 
" clip-path="url(#p44a2c48807)" style="fill: none; stroke-dasharray: 2.96,1.28; stroke-dashoffset: 0; stroke: #b0b0b0; stroke-width: 0.8"/>
     </g>
     <g id="line2d_26">
      <defs>
       <path id="mfa82435d83" d="M 0 0 
L -3.5 0 
" style="stroke: #000000; stroke-width: 0.8"/>
      </defs>
      <g>
       <use xlink:href="#mfa82435d83" x="45.267188" y="282.666622" style="stroke: #000000; stroke-width: 0.8"/>
      </g>
     </g>
     <g id="text_1">
      <!-- 1400 -->
      <g transform="translate(12.817188 286.465841)scale(0.1 -0.1)">
       <defs>
        <path id="DejaVuSans-31" d="M 794 531 
L 1825 531 
L 1825 4091 
L 703 3866 
L 703 4441 
L 1819 4666 
L 2450 4666 
L 2450 531 
L 3481 531 
L 3481 0 
L 794 0 
L 794 531 
z
" transform="scale(0.015625)"/>
        <path id="DejaVuSans-34" d="M 2419 4116 
L 825 1625 
L 2419 1625 
L 2419 4116 
z
M 2253 4666 
L 3047 4666 
L 3047 1625 
L 3713 1625 
L 3713 1100 
L 3047 1100 
L 3047 0 
L 2419 0 
L 2419 1100 
L 313 1100 
L 313 1709 
L 2253 4666 
z
" transform="scale(0.015625)"/>
        <path id="DejaVuSans-30" d="M 2034 4250 
Q 1547 4250 1301 3770 
Q 1056 3291 1056 2328 
Q 1056 1369 1301 889 
Q 1547 409 2034 409 
Q 2525 409 2770 889 
Q 3016 1369 3016 2328 
Q 3016 3291 2770 3770 
Q 2525 4250 2034 4250 
z
M 2034 4750 
Q 2819 4750 3233 4129 
Q 3647 3509 3647 2328 
Q 3647 1150 3233 529 
Q 2819 -91 2034 -91 
Q 1250 -91 836 529 
Q 422 1150 422 2328 
Q 422 3509 836 4129 
Q 1250 4750 2034 4750 
z
" transform="scale(0.015625)"/>
       </defs>
       <use xlink:href="#DejaVuSans-31"/>
       <use xlink:href="#DejaVuSans-34" x="63.623047"/>
       <use xlink:href="#DejaVuSans-30" x="127.246094"/>
       <use xlink:href="#DejaVuSans-30" x="190.869141"/>
      </g>
     </g>
    </g>
    <g id="ytick_2">
     <g id="line2d_27">
      <path d="M 45.267188 254.291302 
L 982.876106 254.291302 
" clip-path="url(#p44a2c48807)" style="fill: none; stroke-dasharray: 2.96,1.28; stroke-dashoffset: 0; stroke: #b0b0b0; stroke-width: 0.8"/>
     </g>
     <g id="line2d_28">
      <g>
       <use xlink:href="#mfa82435d83" x="45.267188" y="254.291302" style="stroke: #000000; stroke-width: 0.8"/>
      </g>
     </g>
     <g id="text_2">
      <!-- 1600 -->
      <g transform="translate(12.817188 258.09052)scale(0.1 -0.1)">
       <defs>
        <path id="DejaVuSans-36" d="M 2113 2584 
Q 1688 2584 1439 2293 
Q 1191 2003 1191 1497 
Q 1191 994 1439 701 
Q 1688 409 2113 409 
Q 2538 409 2786 701 
Q 3034 994 3034 1497 
Q 3034 2003 2786 2293 
Q 2538 2584 2113 2584 
z
M 3366 4563 
L 3366 3988 
Q 3128 4100 2886 4159 
Q 2644 4219 2406 4219 
Q 1781 4219 1451 3797 
Q 1122 3375 1075 2522 
Q 1259 2794 1537 2939 
Q 1816 3084 2150 3084 
Q 2853 3084 3261 2657 
Q 3669 2231 3669 1497 
Q 3669 778 3244 343 
Q 2819 -91 2113 -91 
Q 1303 -91 875 529 
Q 447 1150 447 2328 
Q 447 3434 972 4092 
Q 1497 4750 2381 4750 
Q 2619 4750 2861 4703 
Q 3103 4656 3366 4563 
z
" transform="scale(0.015625)"/>
       </defs>
       <use xlink:href="#DejaVuSans-31"/>
       <use xlink:href="#DejaVuSans-36" x="63.623047"/>
       <use xlink:href="#DejaVuSans-30" x="127.246094"/>
       <use xlink:href="#DejaVuSans-30" x="190.869141"/>
      </g>
     </g>
    </g>
    <g id="ytick_3">
     <g id="line2d_29">
      <path d="M 45.267188 225.915981 
L 982.876106 225.915981 
" clip-path="url(#p44a2c48807)" style="fill: none; stroke-dasharray: 2.96,1.28; stroke-dashoffset: 0; stroke: #b0b0b0; stroke-width: 0.8"/>
     </g>
     <g id="line2d_30">
      <g>
       <use xlink:href="#mfa82435d83" x="45.267188" y="225.915981" style="stroke: #000000; stroke-width: 0.8"/>
      </g>
     </g>
     <g id="text_3">
      <!-- 1800 -->
      <g transform="translate(12.817188 229.7152)scale(0.1 -0.1)">
       <defs>
        <path id="DejaVuSans-38" d="M 2034 2216 
Q 1584 2216 1326 1975 
Q 1069 1734 1069 1313 
Q 1069 891 1326 650 
Q 1584 409 2034 409 
Q 2484 409 2743 651 
Q 3003 894 3003 1313 
Q 3003 1734 2745 1975 
Q 2488 2216 2034 2216 
z
M 1403 2484 
Q 997 2584 770 2862 
Q 544 3141 544 3541 
Q 544 4100 942 4425 
Q 1341 4750 2034 4750 
Q 2731 4750 3128 4425 
Q 3525 4100 3525 3541 
Q 3525 3141 3298 2862 
Q 3072 2584 2669 2484 
Q 3125 2378 3379 2068 
Q 3634 1759 3634 1313 
Q 3634 634 3220 271 
Q 2806 -91 2034 -91 
Q 1263 -91 848 271 
Q 434 634 434 1313 
Q 434 1759 690 2068 
Q 947 2378 1403 2484 
z
M 1172 3481 
Q 1172 3119 1398 2916 
Q 1625 2713 2034 2713 
Q 2441 2713 2670 2916 
Q 2900 3119 2900 3481 
Q 2900 3844 2670 4047 
Q 2441 4250 2034 4250 
Q 1625 4250 1398 4047 
Q 1172 3844 1172 3481 
z
" transform="scale(0.015625)"/>
       </defs>
       <use xlink:href="#DejaVuSans-31"/>
       <use xlink:href="#DejaVuSans-38" x="63.623047"/>
       <use xlink:href="#DejaVuSans-30" x="127.246094"/>
       <use xlink:href="#DejaVuSans-30" x="190.869141"/>
      </g>
     </g>
    </g>
    <g id="ytick_4">
     <g id="line2d_31">
      <path d="M 45.267188 197.540661 
L 982.876106 197.540661 
" clip-path="url(#p44a2c48807)" style="fill: none; stroke-dasharray: 2.96,1.28; stroke-dashoffset: 0; stroke: #b0b0b0; stroke-width: 0.8"/>
     </g>
     <g id="line2d_32">
      <g>
       <use xlink:href="#mfa82435d83" x="45.267188" y="197.540661" style="stroke: #000000; stroke-width: 0.8"/>
      </g>
     </g>
     <g id="text_4">
      <!-- 2000 -->
      <g transform="translate(12.817188 201.339879)scale(0.1 -0.1)">
       <defs>
        <path id="DejaVuSans-32" d="M 1228 531 
L 3431 531 
L 3431 0 
L 469 0 
L 469 531 
Q 828 903 1448 1529 
Q 2069 2156 2228 2338 
Q 2531 2678 2651 2914 
Q 2772 3150 2772 3378 
Q 2772 3750 2511 3984 
Q 2250 4219 1831 4219 
Q 1534 4219 1204 4116 
Q 875 4013 500 3803 
L 500 4441 
Q 881 4594 1212 4672 
Q 1544 4750 1819 4750 
Q 2544 4750 2975 4387 
Q 3406 4025 3406 3419 
Q 3406 3131 3298 2873 
Q 3191 2616 2906 2266 
Q 2828 2175 2409 1742 
Q 1991 1309 1228 531 
z
" transform="scale(0.015625)"/>
       </defs>
       <use xlink:href="#DejaVuSans-32"/>
       <use xlink:href="#DejaVuSans-30" x="63.623047"/>
       <use xlink:href="#DejaVuSans-30" x="127.246094"/>
       <use xlink:href="#DejaVuSans-30" x="190.869141"/>
      </g>
     </g>
    </g>
    <g id="ytick_5">
     <g id="line2d_33">
      <path d="M 45.267188 169.16534 
L 982.876106 169.16534 
" clip-path="url(#p44a2c48807)" style="fill: none; stroke-dasharray: 2.96,1.28; stroke-dashoffset: 0; stroke: #b0b0b0; stroke-width: 0.8"/>
     </g>
     <g id="line2d_34">
      <g>
       <use xlink:href="#mfa82435d83" x="45.267188" y="169.16534" style="stroke: #000000; stroke-width: 0.8"/>
      </g>
     </g>
     <g id="text_5">
      <!-- 2200 -->
      <g transform="translate(12.817188 172.964559)scale(0.1 -0.1)">
       <use xlink:href="#DejaVuSans-32"/>
       <use xlink:href="#DejaVuSans-32" x="63.623047"/>
       <use xlink:href="#DejaVuSans-30" x="127.246094"/>
       <use xlink:href="#DejaVuSans-30" x="190.869141"/>
      </g>
     </g>
    </g>
    <g id="ytick_6">
     <g id="line2d_35">
      <path d="M 45.267188 140.790019 
L 982.876106 140.790019 
" clip-path="url(#p44a2c48807)" style="fill: none; stroke-dasharray: 2.96,1.28; stroke-dashoffset: 0; stroke: #b0b0b0; stroke-width: 0.8"/>
     </g>
     <g id="line2d_36">
      <g>
       <use xlink:href="#mfa82435d83" x="45.267188" y="140.790019" style="stroke: #000000; stroke-width: 0.8"/>
      </g>
     </g>
     <g id="text_6">
      <!-- 2400 -->
      <g transform="translate(12.817188 144.589238)scale(0.1 -0.1)">
       <use xlink:href="#DejaVuSans-32"/>
       <use xlink:href="#DejaVuSans-34" x="63.623047"/>
       <use xlink:href="#DejaVuSans-30" x="127.246094"/>
       <use xlink:href="#DejaVuSans-30" x="190.869141"/>
      </g>
     </g>
    </g>
    <g id="ytick_7">
     <g id="line2d_37">
      <path d="M 45.267188 112.414699 
L 982.876106 112.414699 
" clip-path="url(#p44a2c48807)" style="fill: none; stroke-dasharray: 2.96,1.28; stroke-dashoffset: 0; stroke: #b0b0b0; stroke-width: 0.8"/>
     </g>
     <g id="line2d_38">
      <g>
       <use xlink:href="#mfa82435d83" x="45.267188" y="112.414699" style="stroke: #000000; stroke-width: 0.8"/>
      </g>
     </g>
     <g id="text_7">
      <!-- 2600 -->
      <g transform="translate(12.817188 116.213918)scale(0.1 -0.1)">
       <use xlink:href="#DejaVuSans-32"/>
       <use xlink:href="#DejaVuSans-36" x="63.623047"/>
       <use xlink:href="#DejaVuSans-30" x="127.246094"/>
       <use xlink:href="#DejaVuSans-30" x="190.869141"/>
      </g>
     </g>
    </g>
    <g id="ytick_8">
     <g id="line2d_39">
      <path d="M 45.267188 84.039378 
L 982.876106 84.039378 
" clip-path="url(#p44a2c48807)" style="fill: none; stroke-dasharray: 2.96,1.28; stroke-dashoffset: 0; stroke: #b0b0b0; stroke-width: 0.8"/>
     </g>
     <g id="line2d_40">
      <g>
       <use xlink:href="#mfa82435d83" x="45.267188" y="84.039378" style="stroke: #000000; stroke-width: 0.8"/>
      </g>
     </g>
     <g id="text_8">
      <!-- 2800 -->
      <g transform="translate(12.817188 87.838597)scale(0.1 -0.1)">
       <use xlink:href="#DejaVuSans-32"/>
       <use xlink:href="#DejaVuSans-38" x="63.623047"/>
       <use xlink:href="#DejaVuSans-30" x="127.246094"/>
       <use xlink:href="#DejaVuSans-30" x="190.869141"/>
      </g>
     </g>
    </g>
    <g id="ytick_9">
     <g id="line2d_41">
      <path d="M 45.267188 55.664058 
L 982.876106 55.664058 
" clip-path="url(#p44a2c48807)" style="fill: none; stroke-dasharray: 2.96,1.28; stroke-dashoffset: 0; stroke: #b0b0b0; stroke-width: 0.8"/>
     </g>
     <g id="line2d_42">
      <g>
       <use xlink:href="#mfa82435d83" x="45.267188" y="55.664058" style="stroke: #000000; stroke-width: 0.8"/>
      </g>
     </g>
     <g id="text_9">
      <!-- 3000 -->
      <g transform="translate(12.817188 59.463277)scale(0.1 -0.1)">
       <defs>
        <path id="DejaVuSans-33" d="M 2597 2516 
Q 3050 2419 3304 2112 
Q 3559 1806 3559 1356 
Q 3559 666 3084 287 
Q 2609 -91 1734 -91 
Q 1441 -91 1130 -33 
Q 819 25 488 141 
L 488 750 
Q 750 597 1062 519 
Q 1375 441 1716 441 
Q 2309 441 2620 675 
Q 2931 909 2931 1356 
Q 2931 1769 2642 2001 
Q 2353 2234 1838 2234 
L 1294 2234 
L 1294 2753 
L 1863 2753 
Q 2328 2753 2575 2939 
Q 2822 3125 2822 3475 
Q 2822 3834 2567 4026 
Q 2313 4219 1838 4219 
Q 1578 4219 1281 4162 
Q 984 4106 628 3988 
L 628 4550 
Q 988 4650 1302 4700 
Q 1616 4750 1894 4750 
Q 2613 4750 3031 4423 
Q 3450 4097 3450 3541 
Q 3450 3153 3228 2886 
Q 3006 2619 2597 2516 
z
" transform="scale(0.015625)"/>
       </defs>
       <use xlink:href="#DejaVuSans-33"/>
       <use xlink:href="#DejaVuSans-30" x="63.623047"/>
       <use xlink:href="#DejaVuSans-30" x="127.246094"/>
       <use xlink:href="#DejaVuSans-30" x="190.869141"/>
      </g>
     </g>
    </g>
   </g>
   <g id="line2d_43">
    <path d="M 87.885775 290.20027 
L 90.557786 287.391113 
L 93.229798 282.716279 
L 95.90181 281.276232 
L 98.573822 279.389273 
L 106.589857 277.147622 
L 109.261869 258.838447 
L 111.93388 247.545069 
L 114.605892 245.523328 
L 117.277904 240.394488 
L 125.293939 220.907737 
L 127.965951 211.714133 
L 130.637962 206.273166 
L 133.309974 202.265151 
L 143.998021 220.545952 
L 146.670033 207.613899 
L 152.014056 210.274086 
L 154.686068 206.280259 
L 162.702103 214.870888 
L 165.374115 211.160814 
L 168.046127 209.415732 
L 170.718139 209.94777 
L 173.39015 204.584834 
L 181.406185 194.043402 
L 184.078197 207.755776 
L 186.750209 208.919164 
L 189.422221 210.600402 
L 192.094232 210.650059 
L 200.110268 217.09835 
L 202.782279 213.218025 
L 205.454291 207.223739 
L 208.126303 190.787334 
L 210.798315 191.603125 
L 218.81435 203.797419 
L 224.158373 199.3354 
L 226.830385 218.85762 
L 229.502397 208.394221 
L 237.518432 219.758537 
L 242.862455 214.204068 
L 245.534467 204.506802 
L 248.206479 212.537018 
L 256.222514 225.383944 
L 258.894526 228.193101 
L 261.566538 221.837029 
L 264.238549 214.303381 
L 266.910561 217.396291 
L 274.926596 222.737945 
L 277.598608 226.093327 
L 280.27062 221.141833 
L 282.942631 211.558069 
L 293.630678 215.126266 
L 296.30269 214.927638 
L 298.974702 208.692162 
L 301.646714 210.110928 
L 304.318725 208.713443 
L 312.334761 207.351428 
L 315.006772 208.422596 
L 317.678784 217.807733 
L 320.350796 209.642735 
L 323.022808 205.329686 
L 331.038843 181.87039 
L 333.710854 170.612481 
L 336.382866 169.534219 
L 339.054878 173.989145 
L 341.72689 151.877676 
L 349.742925 103.171438 
L 352.414937 85.117641 
L 355.086948 74.916713 
L 368.447007 59.849418 
L 371.119019 68.156293 
L 373.791031 82.500017 
L 376.463042 82.407797 
L 379.135054 72.291996 
L 387.151089 80.63434 
L 389.823101 62.41029 
L 392.495113 78.130218 
L 395.167124 68.120824 
L 397.839136 72.291996 
L 405.855171 79.733423 
L 411.199195 102.291803 
L 413.871207 77.527242 
L 416.543218 73.427008 
L 424.559254 97.319028 
L 427.231265 128.489318 
L 429.903277 105.597528 
L 432.575289 135.568961 
L 435.2473 173.201729 
L 443.263336 157.574022 
L 445.935347 156.992328 
L 448.607359 141.343338 
L 451.279371 152.494839 
L 453.951383 158.716128 
L 461.967418 162.305606 
L 464.63943 178.20288 
L 467.311441 170.960079 
L 469.983453 174.272898 
L 472.655465 173.9253 
L 480.6715 176.025074 
L 483.343512 213.296057 
L 486.015523 219.049154 
L 488.687535 208.067905 
L 491.359547 217.985079 
L 499.375582 225.582571 
L 502.047594 221.766091 
L 504.719606 225.646416 
L 507.391617 224.121242 
L 510.063629 231.931549 
L 518.079664 226.100421 
L 520.751676 227.512093 
L 523.423688 231.89608 
L 526.095699 238.528811 
L 528.767711 238.50753 
L 536.783746 233.910728 
L 539.455758 224.624904 
L 542.12777 234.981896 
L 547.471793 217.743889 
L 555.487829 209.224199 
L 560.831852 211.487131 
L 563.503864 207.528773 
L 566.175876 202.697875 
L 574.191911 214.055097 
L 576.863922 215.076609 
L 579.535934 211.203377 
L 582.207946 210.352118 
L 584.879958 208.748912 
L 592.895993 168.122547 
L 595.568005 155.722532 
L 598.240016 182.679086 
L 600.912028 185.197396 
L 603.58404 187.233325 
L 611.600075 184.310667 
L 614.272087 182.076111 
L 616.944099 185.580463 
L 619.61611 181.969703 
L 622.288122 180.451624 
L 630.304157 178.01844 
L 632.976169 182.835151 
L 635.648181 183.466502 
L 638.320192 177.117524 
L 640.992204 172.754818 
L 649.008239 158.709034 
L 651.680251 155.523905 
L 654.352263 168.512708 
L 657.024275 170.449323 
L 659.696286 182.473365 
L 667.712322 174.102646 
L 675.728357 174.145209 
L 678.400368 172.570379 
L 689.088415 166.583186 
L 691.760427 165.327578 
L 694.432439 155.495529 
L 697.104451 139.17972 
L 705.120486 123.800296 
L 707.792498 138.959811 
L 710.464509 146.628242 
L 713.136521 145.287508 
L 715.808533 141.818625 
L 723.824568 149.60765 
L 726.49658 135.654086 
L 731.840603 141.768968 
L 742.52865 147.344719 
L 745.200662 144.351122 
L 747.872674 148.316573 
L 750.544685 150.146781 
L 753.216697 152.721842 
L 761.232732 147.039684 
L 763.904744 149.919779 
L 766.576756 155.88569 
L 769.248768 148.749297 
L 771.920779 152.622528 
L 779.936814 148.401699 
L 782.608826 140.797113 
L 785.280838 146.067829 
L 787.95285 145.954328 
L 790.624861 151.593923 
L 798.640897 167.696917 
L 801.312908 176.784114 
L 803.98492 190.29786 
L 806.656932 196.96606 
L 809.328944 160.539243 
L 817.344979 187.034698 
L 820.016991 178.500821 
L 825.361014 168.92415 
L 828.033026 168.576552 
L 836.049061 175.422098 
L 838.721073 179.266954 
L 841.393084 183.480689 
L 844.065096 185.715246 
L 846.737108 192.837451 
L 854.753143 175.627819 
L 857.425155 175.727133 
L 860.097167 180.543844 
L 862.769178 177.834 
L 865.44119 182.601054 
L 873.457225 180.338123 
L 876.129237 186.20472 
L 881.47326 180.855972 
L 884.145272 183.558721 
L 892.161307 182.941558 
L 894.833319 180.338123 
L 897.505331 178.096472 
L 900.177343 182.402427 
L 910.86539 174.031708 
L 916.209413 166.966253 
L 918.881425 172.570379 
L 921.553437 169.633533 
L 929.569472 172.208593 
L 932.241483 169.598064 
L 934.913495 181.912953 
L 937.585507 182.984121 
L 940.257519 185.424399 
L 940.257519 185.424399 
" clip-path="url(#p44a2c48807)" style="fill: none; stroke: #1f77b4; stroke-width: 1.5; stroke-linecap: square"/>
   </g>
   <g id="line2d_44">
    <path d="M 98.573822 284.194633 
L 106.589857 281.584104 
L 109.261869 275.873571 
L 114.605892 261.688748 
L 117.277904 253.889791 
L 125.293939 242.641814 
L 127.965951 233.216951 
L 130.637962 224.96257 
L 133.309974 216.310935 
L 135.981986 209.597334 
L 143.998021 209.524977 
L 146.670033 208.70493 
L 152.014056 209.505115 
L 154.686068 210.308136 
L 162.702103 211.917017 
L 165.374115 210.039989 
L 168.046127 210.400356 
L 170.718139 210.335093 
L 173.39015 209.996008 
L 181.406185 205.830511 
L 184.078197 205.149503 
L 186.750209 205.050189 
L 189.422221 205.180716 
L 192.094232 206.393761 
L 200.110268 211.00475 
L 202.782279 212.0972 
L 205.454291 211.758115 
L 210.798315 203.986115 
L 218.81435 201.325928 
L 221.486362 198.986383 
L 224.158373 197.408715 
L 226.830385 203.022773 
L 229.502397 206.380992 
L 237.518432 209.573215 
L 242.862455 212.109969 
L 245.534467 213.144249 
L 248.206479 211.880129 
L 256.222514 215.278073 
L 258.894526 216.964986 
L 261.566538 218.491579 
L 264.238549 220.450894 
L 266.910561 221.422749 
L 274.926596 220.893549 
L 277.598608 220.473595 
L 280.27062 220.334556 
L 282.942631 219.785493 
L 293.630678 219.331488 
L 296.30269 217.769427 
L 298.974702 214.289194 
L 301.646714 212.083012 
L 304.318725 211.514087 
L 312.334761 209.95912 
L 315.006772 208.658111 
L 317.678784 210.481226 
L 320.350796 210.387587 
L 323.022808 209.710836 
L 331.038843 204.614628 
L 333.710854 197.052605 
L 336.382866 187.397902 
L 339.054878 180.267184 
L 341.72689 169.576782 
L 349.742925 153.836992 
L 352.414937 136.738024 
L 355.086948 117.814522 
L 368.447007 94.986577 
L 371.119019 78.2423 
L 373.791031 74.108016 
L 379.135054 73.041104 
L 387.151089 77.198089 
L 389.823101 76.048888 
L 392.495113 75.174928 
L 395.167124 72.317533 
L 397.839136 72.317533 
L 405.855171 72.13735 
L 411.199195 80.113653 
L 413.871207 79.993058 
L 416.543218 81.054295 
L 424.559254 86.059701 
L 427.231265 95.81088 
L 429.903277 96.472025 
L 432.575289 108.080369 
L 435.2473 128.035313 
L 443.263336 140.086312 
L 445.935347 145.786913 
L 448.607359 152.936075 
L 451.279371 156.321251 
L 453.951383 153.424131 
L 461.967418 154.370448 
L 464.63943 158.612558 
L 467.311441 164.535907 
L 469.983453 168.891518 
L 472.655465 171.933353 
L 480.6715 174.677246 
L 483.343512 181.695882 
L 486.015523 191.313697 
L 488.687535 198.072698 
L 491.359547 206.884654 
L 499.375582 216.796153 
L 502.047594 218.49016 
L 504.719606 219.809612 
L 507.391617 223.02028 
L 510.063629 225.809574 
L 518.079664 225.913144 
L 523.423688 228.312277 
L 526.095699 231.193791 
L 528.767711 232.508987 
L 536.783746 234.071048 
L 539.455758 233.493611 
L 542.12777 234.110774 
L 544.799782 231.680428 
L 547.471793 227.527699 
L 555.487829 222.590394 
L 558.15984 219.73158 
L 560.831852 215.032627 
L 563.503864 211.262966 
L 566.175876 208.253763 
L 574.191911 209.219943 
L 576.863922 210.169097 
L 579.535934 210.112346 
L 582.207946 210.677015 
L 584.879958 211.887223 
L 592.895993 202.700713 
L 595.568005 190.829897 
L 598.240016 185.125039 
L 600.912028 180.094095 
L 603.58404 175.790977 
L 611.600075 179.028601 
L 614.272087 184.299317 
L 616.944099 184.879593 
L 619.61611 184.234054 
L 622.288122 182.877714 
L 630.304157 181.619268 
L 632.976169 181.771076 
L 635.648181 181.348284 
L 638.320192 180.377848 
L 640.992204 178.838487 
L 649.008239 174.976606 
L 651.680251 169.514356 
L 654.352263 166.523598 
L 657.024275 165.189958 
L 659.696286 167.133667 
L 667.712322 170.212389 
L 673.056345 173.935231 
L 675.728357 175.061732 
L 678.400368 175.485943 
L 689.088415 172.307907 
L 691.760427 170.552893 
L 694.432439 166.824376 
L 697.104451 159.831278 
L 705.120486 150.077262 
L 707.792498 144.552587 
L 710.464509 140.81272 
L 713.136521 138.771115 
L 715.808533 139.298896 
L 723.824568 144.460367 
L 726.49658 143.799222 
L 734.512615 142.407413 
L 742.52865 143.512632 
L 745.200662 142.461326 
L 747.872674 144.993823 
L 750.544685 146.669386 
L 753.216697 148.576207 
L 761.232732 148.515201 
L 763.904744 149.628932 
L 766.576756 151.142755 
L 769.248768 150.863258 
L 771.920779 150.843396 
L 779.936814 151.115799 
L 782.608826 149.291266 
L 785.280838 147.327693 
L 787.95285 146.7687 
L 790.624861 146.562978 
L 798.640897 150.422022 
L 801.312908 157.619422 
L 803.98492 166.465428 
L 806.656932 176.667775 
L 809.328944 178.456839 
L 817.344979 182.324395 
L 820.016991 182.667736 
L 825.361014 178.392994 
L 828.033026 172.715093 
L 836.049061 175.691664 
L 838.721073 174.138115 
L 841.393084 175.134089 
L 844.065096 178.492308 
L 846.737108 183.344488 
L 854.753143 183.385632 
L 857.425155 182.677668 
L 860.097167 182.090299 
L 862.769178 180.51405 
L 865.44119 178.46677 
L 873.457225 179.408831 
L 876.129237 181.504348 
L 881.47326 181.566774 
L 884.145272 182.711718 
L 894.833319 182.779819 
L 897.505331 181.158169 
L 900.177343 181.46746 
L 902.849354 180.823341 
L 910.86539 179.04137 
L 916.209413 176.366996 
L 918.881425 175.261778 
L 921.553437 172.707999 
L 929.569472 171.082093 
L 932.241483 170.195364 
L 934.913495 173.184704 
L 937.585507 175.267453 
L 940.257519 178.425626 
L 940.257519 178.425626 
" clip-path="url(#p44a2c48807)" style="fill: none; stroke: #ff7f0e; stroke-width: 1.5; stroke-linecap: square"/>
   </g>
   <g id="patch_3">
    <path d="M 45.267188 301.717813 
L 45.267188 48.331875 
" style="fill: none; stroke: #000000; stroke-width: 0.8; stroke-linejoin: miter; stroke-linecap: square"/>
   </g>
   <g id="patch_4">
    <path d="M 982.876106 301.717813 
L 982.876106 48.331875 
" style="fill: none; stroke: #000000; stroke-width: 0.8; stroke-linejoin: miter; stroke-linecap: square"/>
   </g>
   <g id="patch_5">
    <path d="M 45.267188 301.717812 
L 982.876106 301.717812 
" style="fill: none; stroke: #000000; stroke-width: 0.8; stroke-linejoin: miter; stroke-linecap: square"/>
   </g>
   <g id="patch_6">
    <path d="M 45.267188 48.331875 
L 982.876106 48.331875 
" style="fill: none; stroke: #000000; stroke-width: 0.8; stroke-linejoin: miter; stroke-linecap: square"/>
   </g>
   <g id="text_10">
    <!-- Closing Price -->
    <g transform="translate(475.595709 42.331875)scale(0.12 -0.12)">
     <defs>
      <path id="DejaVuSans-43" d="M 4122 4306 
L 4122 3641 
Q 3803 3938 3442 4084 
Q 3081 4231 2675 4231 
Q 1875 4231 1450 3742 
Q 1025 3253 1025 2328 
Q 1025 1406 1450 917 
Q 1875 428 2675 428 
Q 3081 428 3442 575 
Q 3803 722 4122 1019 
L 4122 359 
Q 3791 134 3420 21 
Q 3050 -91 2638 -91 
Q 1578 -91 968 557 
Q 359 1206 359 2328 
Q 359 3453 968 4101 
Q 1578 4750 2638 4750 
Q 3056 4750 3426 4639 
Q 3797 4528 4122 4306 
z
" transform="scale(0.015625)"/>
      <path id="DejaVuSans-6c" d="M 603 4863 
L 1178 4863 
L 1178 0 
L 603 0 
L 603 4863 
z
" transform="scale(0.015625)"/>
      <path id="DejaVuSans-6f" d="M 1959 3097 
Q 1497 3097 1228 2736 
Q 959 2375 959 1747 
Q 959 1119 1226 758 
Q 1494 397 1959 397 
Q 2419 397 2687 759 
Q 2956 1122 2956 1747 
Q 2956 2369 2687 2733 
Q 2419 3097 1959 3097 
z
M 1959 3584 
Q 2709 3584 3137 3096 
Q 3566 2609 3566 1747 
Q 3566 888 3137 398 
Q 2709 -91 1959 -91 
Q 1206 -91 779 398 
Q 353 888 353 1747 
Q 353 2609 779 3096 
Q 1206 3584 1959 3584 
z
" transform="scale(0.015625)"/>
      <path id="DejaVuSans-73" d="M 2834 3397 
L 2834 2853 
Q 2591 2978 2328 3040 
Q 2066 3103 1784 3103 
Q 1356 3103 1142 2972 
Q 928 2841 928 2578 
Q 928 2378 1081 2264 
Q 1234 2150 1697 2047 
L 1894 2003 
Q 2506 1872 2764 1633 
Q 3022 1394 3022 966 
Q 3022 478 2636 193 
Q 2250 -91 1575 -91 
Q 1294 -91 989 -36 
Q 684 19 347 128 
L 347 722 
Q 666 556 975 473 
Q 1284 391 1588 391 
Q 1994 391 2212 530 
Q 2431 669 2431 922 
Q 2431 1156 2273 1281 
Q 2116 1406 1581 1522 
L 1381 1569 
Q 847 1681 609 1914 
Q 372 2147 372 2553 
Q 372 3047 722 3315 
Q 1072 3584 1716 3584 
Q 2034 3584 2315 3537 
Q 2597 3491 2834 3397 
z
" transform="scale(0.015625)"/>
      <path id="DejaVuSans-69" d="M 603 3500 
L 1178 3500 
L 1178 0 
L 603 0 
L 603 3500 
z
M 603 4863 
L 1178 4863 
L 1178 4134 
L 603 4134 
L 603 4863 
z
" transform="scale(0.015625)"/>
      <path id="DejaVuSans-6e" d="M 3513 2113 
L 3513 0 
L 2938 0 
L 2938 2094 
Q 2938 2591 2744 2837 
Q 2550 3084 2163 3084 
Q 1697 3084 1428 2787 
Q 1159 2491 1159 1978 
L 1159 0 
L 581 0 
L 581 3500 
L 1159 3500 
L 1159 2956 
Q 1366 3272 1645 3428 
Q 1925 3584 2291 3584 
Q 2894 3584 3203 3211 
Q 3513 2838 3513 2113 
z
" transform="scale(0.015625)"/>
      <path id="DejaVuSans-67" d="M 2906 1791 
Q 2906 2416 2648 2759 
Q 2391 3103 1925 3103 
Q 1463 3103 1205 2759 
Q 947 2416 947 1791 
Q 947 1169 1205 825 
Q 1463 481 1925 481 
Q 2391 481 2648 825 
Q 2906 1169 2906 1791 
z
M 3481 434 
Q 3481 -459 3084 -895 
Q 2688 -1331 1869 -1331 
Q 1566 -1331 1297 -1286 
Q 1028 -1241 775 -1147 
L 775 -588 
Q 1028 -725 1275 -790 
Q 1522 -856 1778 -856 
Q 2344 -856 2625 -561 
Q 2906 -266 2906 331 
L 2906 616 
Q 2728 306 2450 153 
Q 2172 0 1784 0 
Q 1141 0 747 490 
Q 353 981 353 1791 
Q 353 2603 747 3093 
Q 1141 3584 1784 3584 
Q 2172 3584 2450 3431 
Q 2728 3278 2906 2969 
L 2906 3500 
L 3481 3500 
L 3481 434 
z
" transform="scale(0.015625)"/>
      <path id="DejaVuSans-20" transform="scale(0.015625)"/>
      <path id="DejaVuSans-50" d="M 1259 4147 
L 1259 2394 
L 2053 2394 
Q 2494 2394 2734 2622 
Q 2975 2850 2975 3272 
Q 2975 3691 2734 3919 
Q 2494 4147 2053 4147 
L 1259 4147 
z
M 628 4666 
L 2053 4666 
Q 2838 4666 3239 4311 
Q 3641 3956 3641 3272 
Q 3641 2581 3239 2228 
Q 2838 1875 2053 1875 
L 1259 1875 
L 1259 0 
L 628 0 
L 628 4666 
z
" transform="scale(0.015625)"/>
      <path id="DejaVuSans-72" d="M 2631 2963 
Q 2534 3019 2420 3045 
Q 2306 3072 2169 3072 
Q 1681 3072 1420 2755 
Q 1159 2438 1159 1844 
L 1159 0 
L 581 0 
L 581 3500 
L 1159 3500 
L 1159 2956 
Q 1341 3275 1631 3429 
Q 1922 3584 2338 3584 
Q 2397 3584 2469 3576 
Q 2541 3569 2628 3553 
L 2631 2963 
z
" transform="scale(0.015625)"/>
      <path id="DejaVuSans-63" d="M 3122 3366 
L 3122 2828 
Q 2878 2963 2633 3030 
Q 2388 3097 2138 3097 
Q 1578 3097 1268 2742 
Q 959 2388 959 1747 
Q 959 1106 1268 751 
Q 1578 397 2138 397 
Q 2388 397 2633 464 
Q 2878 531 3122 666 
L 3122 134 
Q 2881 22 2623 -34 
Q 2366 -91 2075 -91 
Q 1284 -91 818 406 
Q 353 903 353 1747 
Q 353 2603 823 3093 
Q 1294 3584 2113 3584 
Q 2378 3584 2631 3529 
Q 2884 3475 3122 3366 
z
" transform="scale(0.015625)"/>
      <path id="DejaVuSans-65" d="M 3597 1894 
L 3597 1613 
L 953 1613 
Q 991 1019 1311 708 
Q 1631 397 2203 397 
Q 2534 397 2845 478 
Q 3156 559 3463 722 
L 3463 178 
Q 3153 47 2828 -22 
Q 2503 -91 2169 -91 
Q 1331 -91 842 396 
Q 353 884 353 1716 
Q 353 2575 817 3079 
Q 1281 3584 2069 3584 
Q 2775 3584 3186 3129 
Q 3597 2675 3597 1894 
z
M 3022 2063 
Q 3016 2534 2758 2815 
Q 2500 3097 2075 3097 
Q 1594 3097 1305 2825 
Q 1016 2553 972 2059 
L 3022 2063 
z
" transform="scale(0.015625)"/>
     </defs>
     <use xlink:href="#DejaVuSans-43"/>
     <use xlink:href="#DejaVuSans-6c" x="69.824219"/>
     <use xlink:href="#DejaVuSans-6f" x="97.607422"/>
     <use xlink:href="#DejaVuSans-73" x="158.789062"/>
     <use xlink:href="#DejaVuSans-69" x="210.888672"/>
     <use xlink:href="#DejaVuSans-6e" x="238.671875"/>
     <use xlink:href="#DejaVuSans-67" x="302.050781"/>
     <use xlink:href="#DejaVuSans-20" x="365.527344"/>
     <use xlink:href="#DejaVuSans-50" x="397.314453"/>
     <use xlink:href="#DejaVuSans-72" x="455.867188"/>
     <use xlink:href="#DejaVuSans-69" x="496.980469"/>
     <use xlink:href="#DejaVuSans-63" x="524.763672"/>
     <use xlink:href="#DejaVuSans-65" x="579.744141"/>
    </g>
   </g>
   <g id="legend_1">
    <g id="patch_7">
     <path d="M 911.144856 85.688125 
L 975.876106 85.688125 
Q 977.876106 85.688125 977.876106 83.688125 
L 977.876106 55.331875 
Q 977.876106 53.331875 975.876106 53.331875 
L 911.144856 53.331875 
Q 909.144856 53.331875 909.144856 55.331875 
L 909.144856 83.688125 
Q 909.144856 85.688125 911.144856 85.688125 
z
" style="fill: #ffffff; opacity: 0.8; stroke: #cccccc; stroke-linejoin: miter"/>
    </g>
    <g id="line2d_45">
     <path d="M 913.144856 61.430312 
L 923.144856 61.430312 
L 933.144856 61.430312 
" style="fill: none; stroke: #1f77b4; stroke-width: 1.5; stroke-linecap: square"/>
    </g>
    <g id="text_11">
     <!-- CLOSE -->
     <g transform="translate(941.144856 64.930312)scale(0.1 -0.1)">
      <defs>
       <path id="DejaVuSans-4c" d="M 628 4666 
L 1259 4666 
L 1259 531 
L 3531 531 
L 3531 0 
L 628 0 
L 628 4666 
z
" transform="scale(0.015625)"/>
       <path id="DejaVuSans-4f" d="M 2522 4238 
Q 1834 4238 1429 3725 
Q 1025 3213 1025 2328 
Q 1025 1447 1429 934 
Q 1834 422 2522 422 
Q 3209 422 3611 934 
Q 4013 1447 4013 2328 
Q 4013 3213 3611 3725 
Q 3209 4238 2522 4238 
z
M 2522 4750 
Q 3503 4750 4090 4092 
Q 4678 3434 4678 2328 
Q 4678 1225 4090 567 
Q 3503 -91 2522 -91 
Q 1538 -91 948 565 
Q 359 1222 359 2328 
Q 359 3434 948 4092 
Q 1538 4750 2522 4750 
z
" transform="scale(0.015625)"/>
       <path id="DejaVuSans-53" d="M 3425 4513 
L 3425 3897 
Q 3066 4069 2747 4153 
Q 2428 4238 2131 4238 
Q 1616 4238 1336 4038 
Q 1056 3838 1056 3469 
Q 1056 3159 1242 3001 
Q 1428 2844 1947 2747 
L 2328 2669 
Q 3034 2534 3370 2195 
Q 3706 1856 3706 1288 
Q 3706 609 3251 259 
Q 2797 -91 1919 -91 
Q 1588 -91 1214 -16 
Q 841 59 441 206 
L 441 856 
Q 825 641 1194 531 
Q 1563 422 1919 422 
Q 2459 422 2753 634 
Q 3047 847 3047 1241 
Q 3047 1584 2836 1778 
Q 2625 1972 2144 2069 
L 1759 2144 
Q 1053 2284 737 2584 
Q 422 2884 422 3419 
Q 422 4038 858 4394 
Q 1294 4750 2059 4750 
Q 2388 4750 2728 4690 
Q 3069 4631 3425 4513 
z
" transform="scale(0.015625)"/>
       <path id="DejaVuSans-45" d="M 628 4666 
L 3578 4666 
L 3578 4134 
L 1259 4134 
L 1259 2753 
L 3481 2753 
L 3481 2222 
L 1259 2222 
L 1259 531 
L 3634 531 
L 3634 0 
L 628 0 
L 628 4666 
z
" transform="scale(0.015625)"/>
      </defs>
      <use xlink:href="#DejaVuSans-43"/>
      <use xlink:href="#DejaVuSans-4c" x="69.824219"/>
      <use xlink:href="#DejaVuSans-4f" x="121.912109"/>
      <use xlink:href="#DejaVuSans-53" x="200.623047"/>
      <use xlink:href="#DejaVuSans-45" x="264.099609"/>
     </g>
    </g>
    <g id="line2d_46">
     <path d="M 913.144856 76.108437 
L 923.144856 76.108437 
L 933.144856 76.108437 
" style="fill: none; stroke: #ff7f0e; stroke-width: 1.5; stroke-linecap: square"/>
    </g>
    <g id="text_12">
     <!-- SMA5 -->
     <g transform="translate(941.144856 79.608437)scale(0.1 -0.1)">
      <defs>
       <path id="DejaVuSans-4d" d="M 628 4666 
L 1569 4666 
L 2759 1491 
L 3956 4666 
L 4897 4666 
L 4897 0 
L 4281 0 
L 4281 4097 
L 3078 897 
L 2444 897 
L 1241 4097 
L 1241 0 
L 628 0 
L 628 4666 
z
" transform="scale(0.015625)"/>
       <path id="DejaVuSans-41" d="M 2188 4044 
L 1331 1722 
L 3047 1722 
L 2188 4044 
z
M 1831 4666 
L 2547 4666 
L 4325 0 
L 3669 0 
L 3244 1197 
L 1141 1197 
L 716 0 
L 50 0 
L 1831 4666 
z
" transform="scale(0.015625)"/>
       <path id="DejaVuSans-35" d="M 691 4666 
L 3169 4666 
L 3169 4134 
L 1269 4134 
L 1269 2991 
Q 1406 3038 1543 3061 
Q 1681 3084 1819 3084 
Q 2600 3084 3056 2656 
Q 3513 2228 3513 1497 
Q 3513 744 3044 326 
Q 2575 -91 1722 -91 
Q 1428 -91 1123 -41 
Q 819 9 494 109 
L 494 744 
Q 775 591 1075 516 
Q 1375 441 1709 441 
Q 2250 441 2565 725 
Q 2881 1009 2881 1497 
Q 2881 1984 2565 2268 
Q 2250 2553 1709 2553 
Q 1456 2553 1204 2497 
Q 953 2441 691 2322 
L 691 4666 
z
" transform="scale(0.015625)"/>
      </defs>
      <use xlink:href="#DejaVuSans-53"/>
      <use xlink:href="#DejaVuSans-4d" x="63.476562"/>
      <use xlink:href="#DejaVuSans-41" x="149.755859"/>
      <use xlink:href="#DejaVuSans-35" x="218.164062"/>
     </g>
    </g>
   </g>
  </g>
  <g id="axes_2">
   <g id="patch_8">
    <path d="M 45.267188 584.521875 
L 982.876106 584.521875 
L 982.876106 331.135938 
L 45.267188 331.135938 
z
" style="fill: #ffffff"/>
   </g>
   <g id="matplotlib.axis_3">
    <g id="xtick_13">
     <g id="line2d_47">
      <path d="M 82.541751 584.521875 
L 82.541751 331.135938 
" clip-path="url(#p9ce2329cae)" style="fill: none; stroke-dasharray: 2.96,1.28; stroke-dashoffset: 0; stroke: #b0b0b0; stroke-width: 0.8"/>
     </g>
     <g id="line2d_48">
      <g>
       <use xlink:href="#mb5c2f1cb82" x="82.541751" y="584.521875" style="stroke: #000000; stroke-width: 0.8"/>
      </g>
     </g>
     <g id="text_13">
      <!-- 2022-01 -->
      <g transform="translate(61.650345 599.120312)scale(0.1 -0.1)">
       <defs>
        <path id="DejaVuSans-2d" d="M 313 2009 
L 1997 2009 
L 1997 1497 
L 313 1497 
L 313 2009 
z
" transform="scale(0.015625)"/>
       </defs>
       <use xlink:href="#DejaVuSans-32"/>
       <use xlink:href="#DejaVuSans-30" x="63.623047"/>
       <use xlink:href="#DejaVuSans-32" x="127.246094"/>
       <use xlink:href="#DejaVuSans-32" x="190.869141"/>
       <use xlink:href="#DejaVuSans-2d" x="254.492188"/>
       <use xlink:href="#DejaVuSans-30" x="290.576172"/>
       <use xlink:href="#DejaVuSans-31" x="354.199219"/>
      </g>
     </g>
    </g>
    <g id="xtick_14">
     <g id="line2d_49">
      <path d="M 165.374115 584.521875 
L 165.374115 331.135938 
" clip-path="url(#p9ce2329cae)" style="fill: none; stroke-dasharray: 2.96,1.28; stroke-dashoffset: 0; stroke: #b0b0b0; stroke-width: 0.8"/>
     </g>
     <g id="line2d_50">
      <g>
       <use xlink:href="#mb5c2f1cb82" x="165.374115" y="584.521875" style="stroke: #000000; stroke-width: 0.8"/>
      </g>
     </g>
     <g id="text_14">
      <!-- 2022-02 -->
      <g transform="translate(144.482709 599.120312)scale(0.1 -0.1)">
       <use xlink:href="#DejaVuSans-32"/>
       <use xlink:href="#DejaVuSans-30" x="63.623047"/>
       <use xlink:href="#DejaVuSans-32" x="127.246094"/>
       <use xlink:href="#DejaVuSans-32" x="190.869141"/>
       <use xlink:href="#DejaVuSans-2d" x="254.492188"/>
       <use xlink:href="#DejaVuSans-30" x="290.576172"/>
       <use xlink:href="#DejaVuSans-32" x="354.199219"/>
      </g>
     </g>
    </g>
    <g id="xtick_15">
     <g id="line2d_51">
      <path d="M 240.190444 584.521875 
L 240.190444 331.135938 
" clip-path="url(#p9ce2329cae)" style="fill: none; stroke-dasharray: 2.96,1.28; stroke-dashoffset: 0; stroke: #b0b0b0; stroke-width: 0.8"/>
     </g>
     <g id="line2d_52">
      <g>
       <use xlink:href="#mb5c2f1cb82" x="240.190444" y="584.521875" style="stroke: #000000; stroke-width: 0.8"/>
      </g>
     </g>
     <g id="text_15">
      <!-- 2022-03 -->
      <g transform="translate(219.299037 599.120312)scale(0.1 -0.1)">
       <use xlink:href="#DejaVuSans-32"/>
       <use xlink:href="#DejaVuSans-30" x="63.623047"/>
       <use xlink:href="#DejaVuSans-32" x="127.246094"/>
       <use xlink:href="#DejaVuSans-32" x="190.869141"/>
       <use xlink:href="#DejaVuSans-2d" x="254.492188"/>
       <use xlink:href="#DejaVuSans-30" x="290.576172"/>
       <use xlink:href="#DejaVuSans-33" x="354.199219"/>
      </g>
     </g>
    </g>
    <g id="xtick_16">
     <g id="line2d_53">
      <path d="M 323.022808 584.521875 
L 323.022808 331.135938 
" clip-path="url(#p9ce2329cae)" style="fill: none; stroke-dasharray: 2.96,1.28; stroke-dashoffset: 0; stroke: #b0b0b0; stroke-width: 0.8"/>
     </g>
     <g id="line2d_54">
      <g>
       <use xlink:href="#mb5c2f1cb82" x="323.022808" y="584.521875" style="stroke: #000000; stroke-width: 0.8"/>
      </g>
     </g>
     <g id="text_16">
      <!-- 2022-04 -->
      <g transform="translate(302.131401 599.120312)scale(0.1 -0.1)">
       <use xlink:href="#DejaVuSans-32"/>
       <use xlink:href="#DejaVuSans-30" x="63.623047"/>
       <use xlink:href="#DejaVuSans-32" x="127.246094"/>
       <use xlink:href="#DejaVuSans-32" x="190.869141"/>
       <use xlink:href="#DejaVuSans-2d" x="254.492188"/>
       <use xlink:href="#DejaVuSans-30" x="290.576172"/>
       <use xlink:href="#DejaVuSans-34" x="354.199219"/>
      </g>
     </g>
    </g>
    <g id="xtick_17">
     <g id="line2d_55">
      <path d="M 403.18316 584.521875 
L 403.18316 331.135938 
" clip-path="url(#p9ce2329cae)" style="fill: none; stroke-dasharray: 2.96,1.28; stroke-dashoffset: 0; stroke: #b0b0b0; stroke-width: 0.8"/>
     </g>
     <g id="line2d_56">
      <g>
       <use xlink:href="#mb5c2f1cb82" x="403.18316" y="584.521875" style="stroke: #000000; stroke-width: 0.8"/>
      </g>
     </g>
     <g id="text_17">
      <!-- 2022-05 -->
      <g transform="translate(382.291753 599.120312)scale(0.1 -0.1)">
       <use xlink:href="#DejaVuSans-32"/>
       <use xlink:href="#DejaVuSans-30" x="63.623047"/>
       <use xlink:href="#DejaVuSans-32" x="127.246094"/>
       <use xlink:href="#DejaVuSans-32" x="190.869141"/>
       <use xlink:href="#DejaVuSans-2d" x="254.492188"/>
       <use xlink:href="#DejaVuSans-30" x="290.576172"/>
       <use xlink:href="#DejaVuSans-35" x="354.199219"/>
      </g>
     </g>
    </g>
    <g id="xtick_18">
     <g id="line2d_57">
      <path d="M 486.015523 584.521875 
L 486.015523 331.135938 
" clip-path="url(#p9ce2329cae)" style="fill: none; stroke-dasharray: 2.96,1.28; stroke-dashoffset: 0; stroke: #b0b0b0; stroke-width: 0.8"/>
     </g>
     <g id="line2d_58">
      <g>
       <use xlink:href="#mb5c2f1cb82" x="486.015523" y="584.521875" style="stroke: #000000; stroke-width: 0.8"/>
      </g>
     </g>
     <g id="text_18">
      <!-- 2022-06 -->
      <g transform="translate(465.124117 599.120312)scale(0.1 -0.1)">
       <use xlink:href="#DejaVuSans-32"/>
       <use xlink:href="#DejaVuSans-30" x="63.623047"/>
       <use xlink:href="#DejaVuSans-32" x="127.246094"/>
       <use xlink:href="#DejaVuSans-32" x="190.869141"/>
       <use xlink:href="#DejaVuSans-2d" x="254.492188"/>
       <use xlink:href="#DejaVuSans-30" x="290.576172"/>
       <use xlink:href="#DejaVuSans-36" x="354.199219"/>
      </g>
     </g>
    </g>
    <g id="xtick_19">
     <g id="line2d_59">
      <path d="M 566.175876 584.521875 
L 566.175876 331.135938 
" clip-path="url(#p9ce2329cae)" style="fill: none; stroke-dasharray: 2.96,1.28; stroke-dashoffset: 0; stroke: #b0b0b0; stroke-width: 0.8"/>
     </g>
     <g id="line2d_60">
      <g>
       <use xlink:href="#mb5c2f1cb82" x="566.175876" y="584.521875" style="stroke: #000000; stroke-width: 0.8"/>
      </g>
     </g>
     <g id="text_19">
      <!-- 2022-07 -->
      <g transform="translate(545.284469 599.120312)scale(0.1 -0.1)">
       <defs>
        <path id="DejaVuSans-37" d="M 525 4666 
L 3525 4666 
L 3525 4397 
L 1831 0 
L 1172 0 
L 2766 4134 
L 525 4134 
L 525 4666 
z
" transform="scale(0.015625)"/>
       </defs>
       <use xlink:href="#DejaVuSans-32"/>
       <use xlink:href="#DejaVuSans-30" x="63.623047"/>
       <use xlink:href="#DejaVuSans-32" x="127.246094"/>
       <use xlink:href="#DejaVuSans-32" x="190.869141"/>
       <use xlink:href="#DejaVuSans-2d" x="254.492188"/>
       <use xlink:href="#DejaVuSans-30" x="290.576172"/>
       <use xlink:href="#DejaVuSans-37" x="354.199219"/>
      </g>
     </g>
    </g>
    <g id="xtick_20">
     <g id="line2d_61">
      <path d="M 649.008239 584.521875 
L 649.008239 331.135938 
" clip-path="url(#p9ce2329cae)" style="fill: none; stroke-dasharray: 2.96,1.28; stroke-dashoffset: 0; stroke: #b0b0b0; stroke-width: 0.8"/>
     </g>
     <g id="line2d_62">
      <g>
       <use xlink:href="#mb5c2f1cb82" x="649.008239" y="584.521875" style="stroke: #000000; stroke-width: 0.8"/>
      </g>
     </g>
     <g id="text_20">
      <!-- 2022-08 -->
      <g transform="translate(628.116833 599.120312)scale(0.1 -0.1)">
       <use xlink:href="#DejaVuSans-32"/>
       <use xlink:href="#DejaVuSans-30" x="63.623047"/>
       <use xlink:href="#DejaVuSans-32" x="127.246094"/>
       <use xlink:href="#DejaVuSans-32" x="190.869141"/>
       <use xlink:href="#DejaVuSans-2d" x="254.492188"/>
       <use xlink:href="#DejaVuSans-30" x="290.576172"/>
       <use xlink:href="#DejaVuSans-38" x="354.199219"/>
      </g>
     </g>
    </g>
    <g id="xtick_21">
     <g id="line2d_63">
      <path d="M 731.840603 584.521875 
L 731.840603 331.135938 
" clip-path="url(#p9ce2329cae)" style="fill: none; stroke-dasharray: 2.96,1.28; stroke-dashoffset: 0; stroke: #b0b0b0; stroke-width: 0.8"/>
     </g>
     <g id="line2d_64">
      <g>
       <use xlink:href="#mb5c2f1cb82" x="731.840603" y="584.521875" style="stroke: #000000; stroke-width: 0.8"/>
      </g>
     </g>
     <g id="text_21">
      <!-- 2022-09 -->
      <g transform="translate(710.949197 599.120312)scale(0.1 -0.1)">
       <defs>
        <path id="DejaVuSans-39" d="M 703 97 
L 703 672 
Q 941 559 1184 500 
Q 1428 441 1663 441 
Q 2288 441 2617 861 
Q 2947 1281 2994 2138 
Q 2813 1869 2534 1725 
Q 2256 1581 1919 1581 
Q 1219 1581 811 2004 
Q 403 2428 403 3163 
Q 403 3881 828 4315 
Q 1253 4750 1959 4750 
Q 2769 4750 3195 4129 
Q 3622 3509 3622 2328 
Q 3622 1225 3098 567 
Q 2575 -91 1691 -91 
Q 1453 -91 1209 -44 
Q 966 3 703 97 
z
M 1959 2075 
Q 2384 2075 2632 2365 
Q 2881 2656 2881 3163 
Q 2881 3666 2632 3958 
Q 2384 4250 1959 4250 
Q 1534 4250 1286 3958 
Q 1038 3666 1038 3163 
Q 1038 2656 1286 2365 
Q 1534 2075 1959 2075 
z
" transform="scale(0.015625)"/>
       </defs>
       <use xlink:href="#DejaVuSans-32"/>
       <use xlink:href="#DejaVuSans-30" x="63.623047"/>
       <use xlink:href="#DejaVuSans-32" x="127.246094"/>
       <use xlink:href="#DejaVuSans-32" x="190.869141"/>
       <use xlink:href="#DejaVuSans-2d" x="254.492188"/>
       <use xlink:href="#DejaVuSans-30" x="290.576172"/>
       <use xlink:href="#DejaVuSans-39" x="354.199219"/>
      </g>
     </g>
    </g>
    <g id="xtick_22">
     <g id="line2d_65">
      <path d="M 812.000955 584.521875 
L 812.000955 331.135938 
" clip-path="url(#p9ce2329cae)" style="fill: none; stroke-dasharray: 2.96,1.28; stroke-dashoffset: 0; stroke: #b0b0b0; stroke-width: 0.8"/>
     </g>
     <g id="line2d_66">
      <g>
       <use xlink:href="#mb5c2f1cb82" x="812.000955" y="584.521875" style="stroke: #000000; stroke-width: 0.8"/>
      </g>
     </g>
     <g id="text_22">
      <!-- 2022-10 -->
      <g transform="translate(791.109549 599.120312)scale(0.1 -0.1)">
       <use xlink:href="#DejaVuSans-32"/>
       <use xlink:href="#DejaVuSans-30" x="63.623047"/>
       <use xlink:href="#DejaVuSans-32" x="127.246094"/>
       <use xlink:href="#DejaVuSans-32" x="190.869141"/>
       <use xlink:href="#DejaVuSans-2d" x="254.492188"/>
       <use xlink:href="#DejaVuSans-31" x="290.576172"/>
       <use xlink:href="#DejaVuSans-30" x="354.199219"/>
      </g>
     </g>
    </g>
    <g id="xtick_23">
     <g id="line2d_67">
      <path d="M 894.833319 584.521875 
L 894.833319 331.135938 
" clip-path="url(#p9ce2329cae)" style="fill: none; stroke-dasharray: 2.96,1.28; stroke-dashoffset: 0; stroke: #b0b0b0; stroke-width: 0.8"/>
     </g>
     <g id="line2d_68">
      <g>
       <use xlink:href="#mb5c2f1cb82" x="894.833319" y="584.521875" style="stroke: #000000; stroke-width: 0.8"/>
      </g>
     </g>
     <g id="text_23">
      <!-- 2022-11 -->
      <g transform="translate(873.941913 599.120312)scale(0.1 -0.1)">
       <use xlink:href="#DejaVuSans-32"/>
       <use xlink:href="#DejaVuSans-30" x="63.623047"/>
       <use xlink:href="#DejaVuSans-32" x="127.246094"/>
       <use xlink:href="#DejaVuSans-32" x="190.869141"/>
       <use xlink:href="#DejaVuSans-2d" x="254.492188"/>
       <use xlink:href="#DejaVuSans-31" x="290.576172"/>
       <use xlink:href="#DejaVuSans-31" x="354.199219"/>
      </g>
     </g>
    </g>
    <g id="xtick_24">
     <g id="line2d_69">
      <path d="M 974.993671 584.521875 
L 974.993671 331.135938 
" clip-path="url(#p9ce2329cae)" style="fill: none; stroke-dasharray: 2.96,1.28; stroke-dashoffset: 0; stroke: #b0b0b0; stroke-width: 0.8"/>
     </g>
     <g id="line2d_70">
      <g>
       <use xlink:href="#mb5c2f1cb82" x="974.993671" y="584.521875" style="stroke: #000000; stroke-width: 0.8"/>
      </g>
     </g>
     <g id="text_24">
      <!-- 2022-12 -->
      <g transform="translate(954.102265 599.120312)scale(0.1 -0.1)">
       <use xlink:href="#DejaVuSans-32"/>
       <use xlink:href="#DejaVuSans-30" x="63.623047"/>
       <use xlink:href="#DejaVuSans-32" x="127.246094"/>
       <use xlink:href="#DejaVuSans-32" x="190.869141"/>
       <use xlink:href="#DejaVuSans-2d" x="254.492188"/>
       <use xlink:href="#DejaVuSans-31" x="290.576172"/>
       <use xlink:href="#DejaVuSans-32" x="354.199219"/>
      </g>
     </g>
    </g>
   </g>
   <g id="matplotlib.axis_4">
    <g id="ytick_10">
     <g id="line2d_71">
      <path d="M 45.267188 583.223627 
L 982.876106 583.223627 
" clip-path="url(#p9ce2329cae)" style="fill: none; stroke-dasharray: 2.96,1.28; stroke-dashoffset: 0; stroke: #b0b0b0; stroke-width: 0.8"/>
     </g>
     <g id="line2d_72">
      <g>
       <use xlink:href="#mfa82435d83" x="45.267188" y="583.223627" style="stroke: #000000; stroke-width: 0.8"/>
      </g>
     </g>
     <g id="text_25">
      <!-- 200 -->
      <g transform="translate(10.8 587.022845)scale(0.1 -0.1)">
       <defs>
        <path id="DejaVuSans-2212" d="M 678 2272 
L 4684 2272 
L 4684 1741 
L 678 1741 
L 678 2272 
z
" transform="scale(0.015625)"/>
       </defs>
       <use xlink:href="#DejaVuSans-2212"/>
       <use xlink:href="#DejaVuSans-32" x="83.789062"/>
       <use xlink:href="#DejaVuSans-30" x="147.412109"/>
       <use xlink:href="#DejaVuSans-30" x="211.035156"/>
      </g>
     </g>
    </g>
    <g id="ytick_11">
     <g id="line2d_73">
      <path d="M 45.267188 531.069523 
L 982.876106 531.069523 
" clip-path="url(#p9ce2329cae)" style="fill: none; stroke-dasharray: 2.96,1.28; stroke-dashoffset: 0; stroke: #b0b0b0; stroke-width: 0.8"/>
     </g>
     <g id="line2d_74">
      <g>
       <use xlink:href="#mfa82435d83" x="45.267188" y="531.069523" style="stroke: #000000; stroke-width: 0.8"/>
      </g>
     </g>
     <g id="text_26">
      <!-- 100 -->
      <g transform="translate(10.8 534.868742)scale(0.1 -0.1)">
       <use xlink:href="#DejaVuSans-2212"/>
       <use xlink:href="#DejaVuSans-31" x="83.789062"/>
       <use xlink:href="#DejaVuSans-30" x="147.412109"/>
       <use xlink:href="#DejaVuSans-30" x="211.035156"/>
      </g>
     </g>
    </g>
    <g id="ytick_12">
     <g id="line2d_75">
      <path d="M 45.267188 478.91542 
L 982.876106 478.91542 
" clip-path="url(#p9ce2329cae)" style="fill: none; stroke-dasharray: 2.96,1.28; stroke-dashoffset: 0; stroke: #b0b0b0; stroke-width: 0.8"/>
     </g>
     <g id="line2d_76">
      <g>
       <use xlink:href="#mfa82435d83" x="45.267188" y="478.91542" style="stroke: #000000; stroke-width: 0.8"/>
      </g>
     </g>
     <g id="text_27">
      <!-- 0 -->
      <g transform="translate(31.904688 482.714639)scale(0.1 -0.1)">
       <use xlink:href="#DejaVuSans-30"/>
      </g>
     </g>
    </g>
    <g id="ytick_13">
     <g id="line2d_77">
      <path d="M 45.267188 426.761317 
L 982.876106 426.761317 
" clip-path="url(#p9ce2329cae)" style="fill: none; stroke-dasharray: 2.96,1.28; stroke-dashoffset: 0; stroke: #b0b0b0; stroke-width: 0.8"/>
     </g>
     <g id="line2d_78">
      <g>
       <use xlink:href="#mfa82435d83" x="45.267188" y="426.761317" style="stroke: #000000; stroke-width: 0.8"/>
      </g>
     </g>
     <g id="text_28">
      <!-- 100 -->
      <g transform="translate(19.179688 430.560536)scale(0.1 -0.1)">
       <use xlink:href="#DejaVuSans-31"/>
       <use xlink:href="#DejaVuSans-30" x="63.623047"/>
       <use xlink:href="#DejaVuSans-30" x="127.246094"/>
      </g>
     </g>
    </g>
    <g id="ytick_14">
     <g id="line2d_79">
      <path d="M 45.267188 374.607214 
L 982.876106 374.607214 
" clip-path="url(#p9ce2329cae)" style="fill: none; stroke-dasharray: 2.96,1.28; stroke-dashoffset: 0; stroke: #b0b0b0; stroke-width: 0.8"/>
     </g>
     <g id="line2d_80">
      <g>
       <use xlink:href="#mfa82435d83" x="45.267188" y="374.607214" style="stroke: #000000; stroke-width: 0.8"/>
      </g>
     </g>
     <g id="text_29">
      <!-- 200 -->
      <g transform="translate(19.179688 378.406433)scale(0.1 -0.1)">
       <use xlink:href="#DejaVuSans-32"/>
       <use xlink:href="#DejaVuSans-30" x="63.623047"/>
       <use xlink:href="#DejaVuSans-30" x="127.246094"/>
      </g>
     </g>
    </g>
   </g>
   <g id="line2d_81">
    <path d="M 87.885775 478.91542 
L 90.557786 478.683736 
L 93.229798 478.087309 
L 98.573822 477.155706 
L 106.589857 476.542161 
L 109.261869 473.140543 
L 111.93388 468.978076 
L 117.277904 462.897631 
L 125.293939 457.152194 
L 127.965951 451.379573 
L 130.637962 446.33389 
L 133.309974 442.126396 
L 135.981986 440.417719 
L 143.998021 442.663806 
L 146.670033 441.884744 
L 152.014056 442.359262 
L 154.686068 442.226781 
L 162.702103 444.62588 
L 165.374115 445.988164 
L 168.046127 447.004908 
L 170.718139 448.304616 
L 173.39015 448.320084 
L 181.406185 445.998483 
L 184.078197 448.116395 
L 186.750209 450.429576 
L 189.422221 453.007165 
L 192.094232 455.332738 
L 200.110268 459.14356 
L 202.782279 461.305762 
L 205.454291 461.576888 
L 208.126303 457.514886 
L 210.798315 454.809242 
L 218.81435 456.326141 
L 221.486362 457.143302 
L 224.158373 457.426439 
L 226.830385 463.337521 
L 229.502397 465.214487 
L 237.518432 470.032138 
L 242.862455 472.340466 
L 245.534467 471.482873 
L 256.222514 478.209709 
L 258.894526 482.962459 
L 261.566538 484.824116 
L 264.238549 484.06018 
L 266.910561 484.28912 
L 274.926596 485.939938 
L 277.598608 488.117064 
L 280.27062 488.291706 
L 282.942631 485.558649 
L 293.630678 484.371909 
L 296.30269 483.32261 
L 298.974702 480.646472 
L 304.318725 477.200139 
L 312.334761 475.460678 
L 315.006772 474.448482 
L 317.678784 476.433413 
L 320.350796 475.642704 
L 323.022808 473.805793 
L 331.038843 465.595891 
L 333.710854 456.03715 
L 336.382866 448.495519 
L 339.054878 444.233115 
L 341.72689 434.840125 
L 349.742925 413.772154 
L 352.414937 392.740003 
L 355.086948 374.266855 
L 368.447007 356.586694 
L 371.119019 346.557331 
L 373.791031 344.401111 
L 376.463042 344.218576 
L 379.135054 342.65348 
L 387.151089 345.42061 
L 389.823101 343.779603 
L 392.495113 348.633717 
L 395.167124 350.992943 
L 397.839136 355.520323 
L 405.855171 362.652131 
L 411.199195 376.168843 
L 413.871207 380.679137 
L 416.543218 384.131913 
L 424.559254 394.914217 
L 427.231265 413.448376 
L 429.903277 422.010262 
L 432.575289 438.146389 
L 435.2473 462.277874 
L 443.263336 476.795164 
L 445.935347 488.022715 
L 448.607359 492.12996 
L 453.951383 505.028601 
L 461.967418 510.925316 
L 464.63943 519.839492 
L 467.311441 524.234297 
L 469.983453 528.131987 
L 472.655465 530.522916 
L 480.6715 532.423466 
L 483.343512 544.227883 
L 486.015523 554.418417 
L 488.687535 558.322837 
L 491.359547 563.384115 
L 499.375582 568.614114 
L 502.047594 570.570564 
L 504.719606 572.196447 
L 507.391617 571.960066 
L 510.063629 573.004332 
L 518.079664 571.040608 
L 520.751676 568.86608 
L 523.423688 567.422648 
L 526.095699 567.227805 
L 528.767711 566.062479 
L 536.783746 562.808522 
L 539.455758 556.58039 
L 542.12777 553.852495 
L 544.799782 548.338218 
L 547.471793 540.695386 
L 555.487829 531.505244 
L 558.15984 524.030163 
L 560.831852 517.998539 
L 563.503864 511.666836 
L 566.175876 504.916328 
L 574.191911 502.661392 
L 576.863922 500.923628 
L 582.207946 495.553455 
L 584.879958 492.839364 
L 592.895993 478.641339 
L 595.568005 463.884574 
L 598.240016 460.398859 
L 600.912028 458.617356 
L 603.58404 458.049916 
L 611.600075 456.986098 
L 614.272087 455.747279 
L 616.944099 456.068324 
L 622.288122 454.914363 
L 630.304157 453.998769 
L 632.976169 454.97782 
L 635.648181 456.202813 
L 638.320192 455.55963 
L 640.992204 454.042557 
L 649.008239 449.018638 
L 651.680251 444.489216 
L 654.352263 445.141688 
L 657.024275 446.605664 
L 659.696286 451.646796 
L 667.712322 453.452517 
L 673.056345 455.167832 
L 675.728357 456.784448 
L 678.400368 457.841427 
L 689.088415 457.154009 
L 691.760427 456.495231 
L 694.432439 453.351426 
L 697.104451 446.395176 
L 705.120486 436.805828 
L 707.792498 434.2181 
L 713.136521 435.629096 
L 715.808533 435.638192 
L 723.824568 438.422581 
L 726.49658 436.973758 
L 731.840603 438.109753 
L 734.512615 439.880843 
L 742.52865 442.932294 
L 745.200662 444.855245 
L 747.872674 447.912821 
L 750.544685 451.19836 
L 753.216697 454.843484 
L 761.232732 456.307419 
L 763.904744 458.556587 
L 766.576756 462.300228 
L 769.248768 463.329928 
L 771.920779 465.450084 
L 779.936814 466.026896 
L 782.608826 464.395698 
L 787.95285 465.295308 
L 798.640897 474.026035 
L 801.312908 481.883148 
L 806.656932 501.675902 
L 809.328944 498.3405 
L 817.344979 503.275544 
L 820.016991 504.36192 
L 825.361014 502.114783 
L 828.033026 499.987896 
L 836.049061 500.0888 
L 838.721073 501.054044 
L 844.065096 504.539737 
L 846.737108 507.704283 
L 854.753143 504.808935 
L 857.425155 502.27454 
L 860.097167 501.435172 
L 862.769178 499.726268 
L 865.44119 499.548131 
L 873.457225 498.509843 
L 876.129237 499.193414 
L 881.47326 497.929401 
L 884.145272 497.514958 
L 892.161307 496.797312 
L 894.833319 495.267831 
L 897.505331 493.225817 
L 900.177343 492.725561 
L 902.849354 491.570898 
L 910.86539 488.67271 
L 916.209413 484.218956 
L 918.881425 482.312482 
L 921.553437 479.918882 
L 929.569472 478.787239 
L 932.241483 477.136563 
L 934.913495 479.474834 
L 937.585507 481.614551 
L 940.257519 483.975803 
L 940.257519 483.975803 
" clip-path="url(#p9ce2329cae)" style="fill: none; stroke: #1f77b4; stroke-width: 1.5; stroke-linecap: square"/>
   </g>
   <g id="line2d_82">
    <path d="M 87.885775 478.91542 
L 90.557786 478.786707 
L 98.573822 477.896711 
L 106.589857 477.529552 
L 109.261869 476.418811 
L 111.93388 474.630663 
L 114.605892 472.608782 
L 117.277904 470.432921 
L 125.293939 467.527174 
L 127.965951 464.059346 
L 133.309974 456.504414 
L 135.981986 453.169747 
L 143.998021 451.007702 
L 146.670033 449.141078 
L 152.014056 447.759833 
L 154.686068 446.637041 
L 165.374115 446.181276 
L 168.046127 446.347227 
L 173.39015 447.058339 
L 181.406185 446.845564 
L 184.078197 447.1005 
L 186.750209 447.767929 
L 189.422221 448.817807 
L 192.094232 450.122813 
L 200.110268 451.929198 
L 202.782279 453.80637 
L 205.454291 455.361706 
L 208.126303 455.792615 
L 210.798315 455.595841 
L 218.81435 455.74196 
L 224.158373 456.303216 
L 229.502397 459.211442 
L 237.518432 461.375869 
L 242.862455 463.569022 
L 248.206479 466.756039 
L 256.222514 469.046898 
L 258.894526 471.830131 
L 261.566538 474.429019 
L 264.238549 476.355305 
L 266.910561 477.942103 
L 274.926596 479.541699 
L 277.598608 481.256796 
L 280.27062 482.663794 
L 282.942631 483.24277 
L 296.30269 483.439402 
L 298.974702 482.880813 
L 301.646714 482.0929 
L 304.318725 481.114345 
L 312.334761 479.983609 
L 315.006772 478.876581 
L 320.350796 477.838898 
L 323.022808 477.032276 
L 331.038843 474.744997 
L 333.710854 471.003425 
L 339.054878 462.048094 
L 341.72689 456.606499 
L 349.742925 448.039628 
L 352.414937 436.9797 
L 355.086948 424.437129 
L 368.447007 410.86704 
L 371.119019 398.005097 
L 373.791031 387.284299 
L 376.463042 378.671154 
L 379.135054 371.467619 
L 387.151089 366.258217 
L 389.823101 361.762494 
L 392.495113 359.136739 
L 395.167124 357.507979 
L 397.839136 357.110448 
L 405.855171 358.218785 
L 411.199195 361.808797 
L 416.543218 369.292674 
L 424.559254 374.416983 
L 429.903277 390.180662 
L 432.575289 399.773807 
L 435.2473 412.274621 
L 443.263336 425.178729 
L 445.935347 437.747527 
L 448.607359 448.624013 
L 451.279371 458.592208 
L 453.951383 467.879487 
L 461.967418 476.488652 
L 464.63943 485.15882 
L 467.311441 492.973916 
L 469.983453 500.00553 
L 472.655465 506.109007 
L 480.6715 511.371899 
L 483.343512 517.943096 
L 486.015523 525.23816 
L 488.687535 531.855096 
L 491.359547 538.160899 
L 499.375582 544.251542 
L 502.047594 549.515347 
L 504.719606 554.051567 
L 507.391617 557.633266 
L 510.063629 560.70748 
L 518.079664 562.774105 
L 520.751676 563.9925 
L 523.423688 564.67853 
L 526.095699 565.188385 
L 528.767711 565.363204 
L 536.783746 564.852267 
L 539.455758 563.197892 
L 542.12777 561.328812 
L 544.799782 558.730694 
L 547.471793 555.123632 
L 555.487829 550.399954 
L 560.831852 539.700505 
L 566.175876 528.258282 
L 574.191911 523.138904 
L 576.863922 518.695849 
L 579.535934 514.591796 
L 582.207946 510.784128 
L 584.879958 507.195175 
L 592.895993 501.484408 
L 595.568005 493.964441 
L 598.240016 487.251325 
L 600.912028 481.524531 
L 603.58404 476.829608 
L 611.600075 472.860906 
L 614.272087 469.438181 
L 616.944099 466.764209 
L 619.61611 464.51565 
L 622.288122 462.595392 
L 630.304157 460.876068 
L 632.976169 459.696418 
L 638.320192 458.310084 
L 640.992204 457.456578 
L 649.008239 455.76899 
L 651.680251 453.513035 
L 654.352263 451.838766 
L 657.024275 450.792146 
L 667.712322 451.460964 
L 673.056345 452.202338 
L 678.400368 454.063293 
L 689.088415 454.681436 
L 691.760427 455.044195 
L 694.432439 454.705641 
L 697.104451 453.043548 
L 705.120486 449.796004 
L 707.792498 446.680423 
L 710.464509 444.33409 
L 713.136521 442.593091 
L 715.808533 441.202112 
L 723.824568 440.646205 
L 726.49658 439.911716 
L 731.840603 439.551323 
L 734.512615 439.617227 
L 742.52865 440.28024 
L 745.200662 441.195241 
L 747.872674 442.538757 
L 750.544685 444.270678 
L 753.216697 446.385239 
L 761.232732 448.369675 
L 763.904744 450.407057 
L 766.576756 452.785692 
L 771.920779 457.005648 
L 779.936814 458.809897 
L 782.608826 459.927058 
L 790.624861 462.921949 
L 798.640897 465.142766 
L 801.312908 468.490843 
L 803.98492 473.186275 
L 806.656932 478.8842 
L 809.328944 482.77546 
L 817.344979 486.875477 
L 820.016991 490.372766 
L 825.361014 492.721169 
L 828.033026 494.174514 
L 836.049061 495.357372 
L 841.393084 497.756094 
L 844.065096 499.112823 
L 846.737108 500.831115 
L 854.753143 501.626679 
L 857.425155 501.756251 
L 860.097167 501.692035 
L 865.44119 500.948732 
L 876.129237 500.207446 
L 881.47326 499.751837 
L 884.145272 499.304461 
L 892.161307 498.803031 
L 894.833319 498.095991 
L 900.177343 496.242677 
L 902.849354 495.308322 
L 910.86539 493.981199 
L 916.209413 492.028751 
L 921.553437 488.052174 
L 929.569472 486.199187 
L 932.241483 484.386662 
L 934.913495 483.404297 
L 937.585507 483.046347 
L 940.257519 483.232239 
L 940.257519 483.232239 
" clip-path="url(#p9ce2329cae)" style="fill: none; stroke: #ff7f0e; stroke-width: 1.5; stroke-linecap: square"/>
   </g>
   <g id="patch_9">
    <path d="M 45.267188 584.521875 
L 45.267188 331.135938 
" style="fill: none; stroke: #000000; stroke-width: 0.8; stroke-linejoin: miter; stroke-linecap: square"/>
   </g>
   <g id="patch_10">
    <path d="M 982.876106 584.521875 
L 982.876106 331.135938 
" style="fill: none; stroke: #000000; stroke-width: 0.8; stroke-linejoin: miter; stroke-linecap: square"/>
   </g>
   <g id="patch_11">
    <path d="M 45.267188 584.521875 
L 982.876106 584.521875 
" style="fill: none; stroke: #000000; stroke-width: 0.8; stroke-linejoin: miter; stroke-linecap: square"/>
   </g>
   <g id="patch_12">
    <path d="M 45.267188 331.135938 
L 982.876106 331.135938 
" style="fill: none; stroke: #000000; stroke-width: 0.8; stroke-linejoin: miter; stroke-linecap: square"/>
   </g>
   <g id="text_30">
    <!-- MACD -->
    <g transform="translate(496.085709 325.135938)scale(0.12 -0.12)">
     <defs>
      <path id="DejaVuSans-44" d="M 1259 4147 
L 1259 519 
L 2022 519 
Q 2988 519 3436 956 
Q 3884 1394 3884 2338 
Q 3884 3275 3436 3711 
Q 2988 4147 2022 4147 
L 1259 4147 
z
M 628 4666 
L 1925 4666 
Q 3281 4666 3915 4102 
Q 4550 3538 4550 2338 
Q 4550 1131 3912 565 
Q 3275 0 1925 0 
L 628 0 
L 628 4666 
z
" transform="scale(0.015625)"/>
     </defs>
     <use xlink:href="#DejaVuSans-4d"/>
     <use xlink:href="#DejaVuSans-41" x="86.279297"/>
     <use xlink:href="#DejaVuSans-43" x="152.9375"/>
     <use xlink:href="#DejaVuSans-44" x="222.761719"/>
    </g>
   </g>
   <g id="legend_2">
    <g id="patch_13">
     <path d="M 913.899543 368.492188 
L 975.876106 368.492188 
Q 977.876106 368.492188 977.876106 366.492188 
L 977.876106 338.135938 
Q 977.876106 336.135938 975.876106 336.135938 
L 913.899543 336.135938 
Q 911.899543 336.135938 911.899543 338.135938 
L 911.899543 366.492188 
Q 911.899543 368.492188 913.899543 368.492188 
z
" style="fill: #ffffff; opacity: 0.8; stroke: #cccccc; stroke-linejoin: miter"/>
    </g>
    <g id="line2d_83">
     <path d="M 915.899543 344.234375 
L 925.899543 344.234375 
L 935.899543 344.234375 
" style="fill: none; stroke: #1f77b4; stroke-width: 1.5; stroke-linecap: square"/>
    </g>
    <g id="text_31">
     <!-- MACD -->
     <g transform="translate(943.899543 347.734375)scale(0.1 -0.1)">
      <use xlink:href="#DejaVuSans-4d"/>
      <use xlink:href="#DejaVuSans-41" x="86.279297"/>
      <use xlink:href="#DejaVuSans-43" x="152.9375"/>
      <use xlink:href="#DejaVuSans-44" x="222.761719"/>
     </g>
    </g>
    <g id="line2d_84">
     <path d="M 915.899543 358.9125 
L 925.899543 358.9125 
L 935.899543 358.9125 
" style="fill: none; stroke: #ff7f0e; stroke-width: 1.5; stroke-linecap: square"/>
    </g>
    <g id="text_32">
     <!-- SIG -->
     <g transform="translate(943.899543 362.4125)scale(0.1 -0.1)">
      <defs>
       <path id="DejaVuSans-49" d="M 628 4666 
L 1259 4666 
L 1259 0 
L 628 0 
L 628 4666 
z
" transform="scale(0.015625)"/>
       <path id="DejaVuSans-47" d="M 3809 666 
L 3809 1919 
L 2778 1919 
L 2778 2438 
L 4434 2438 
L 4434 434 
Q 4069 175 3628 42 
Q 3188 -91 2688 -91 
Q 1594 -91 976 548 
Q 359 1188 359 2328 
Q 359 3472 976 4111 
Q 1594 4750 2688 4750 
Q 3144 4750 3555 4637 
Q 3966 4525 4313 4306 
L 4313 3634 
Q 3963 3931 3569 4081 
Q 3175 4231 2741 4231 
Q 1884 4231 1454 3753 
Q 1025 3275 1025 2328 
Q 1025 1384 1454 906 
Q 1884 428 2741 428 
Q 3075 428 3337 486 
Q 3600 544 3809 666 
z
" transform="scale(0.015625)"/>
      </defs>
      <use xlink:href="#DejaVuSans-53"/>
      <use xlink:href="#DejaVuSans-49" x="63.476562"/>
      <use xlink:href="#DejaVuSans-47" x="92.96875"/>
     </g>
    </g>
   </g>
  </g>
  <g id="text_33">
   <!-- Adani Green Energy Limited -->
   <g transform="translate(419.775937 21.358125)scale(0.12 -0.12)">
    <defs>
     <path id="DejaVuSans-64" d="M 2906 2969 
L 2906 4863 
L 3481 4863 
L 3481 0 
L 2906 0 
L 2906 525 
Q 2725 213 2448 61 
Q 2172 -91 1784 -91 
Q 1150 -91 751 415 
Q 353 922 353 1747 
Q 353 2572 751 3078 
Q 1150 3584 1784 3584 
Q 2172 3584 2448 3432 
Q 2725 3281 2906 2969 
z
M 947 1747 
Q 947 1113 1208 752 
Q 1469 391 1925 391 
Q 2381 391 2643 752 
Q 2906 1113 2906 1747 
Q 2906 2381 2643 2742 
Q 2381 3103 1925 3103 
Q 1469 3103 1208 2742 
Q 947 2381 947 1747 
z
" transform="scale(0.015625)"/>
     <path id="DejaVuSans-61" d="M 2194 1759 
Q 1497 1759 1228 1600 
Q 959 1441 959 1056 
Q 959 750 1161 570 
Q 1363 391 1709 391 
Q 2188 391 2477 730 
Q 2766 1069 2766 1631 
L 2766 1759 
L 2194 1759 
z
M 3341 1997 
L 3341 0 
L 2766 0 
L 2766 531 
Q 2569 213 2275 61 
Q 1981 -91 1556 -91 
Q 1019 -91 701 211 
Q 384 513 384 1019 
Q 384 1609 779 1909 
Q 1175 2209 1959 2209 
L 2766 2209 
L 2766 2266 
Q 2766 2663 2505 2880 
Q 2244 3097 1772 3097 
Q 1472 3097 1187 3025 
Q 903 2953 641 2809 
L 641 3341 
Q 956 3463 1253 3523 
Q 1550 3584 1831 3584 
Q 2591 3584 2966 3190 
Q 3341 2797 3341 1997 
z
" transform="scale(0.015625)"/>
     <path id="DejaVuSans-79" d="M 2059 -325 
Q 1816 -950 1584 -1140 
Q 1353 -1331 966 -1331 
L 506 -1331 
L 506 -850 
L 844 -850 
Q 1081 -850 1212 -737 
Q 1344 -625 1503 -206 
L 1606 56 
L 191 3500 
L 800 3500 
L 1894 763 
L 2988 3500 
L 3597 3500 
L 2059 -325 
z
" transform="scale(0.015625)"/>
     <path id="DejaVuSans-6d" d="M 3328 2828 
Q 3544 3216 3844 3400 
Q 4144 3584 4550 3584 
Q 5097 3584 5394 3201 
Q 5691 2819 5691 2113 
L 5691 0 
L 5113 0 
L 5113 2094 
Q 5113 2597 4934 2840 
Q 4756 3084 4391 3084 
Q 3944 3084 3684 2787 
Q 3425 2491 3425 1978 
L 3425 0 
L 2847 0 
L 2847 2094 
Q 2847 2600 2669 2842 
Q 2491 3084 2119 3084 
Q 1678 3084 1418 2786 
Q 1159 2488 1159 1978 
L 1159 0 
L 581 0 
L 581 3500 
L 1159 3500 
L 1159 2956 
Q 1356 3278 1631 3431 
Q 1906 3584 2284 3584 
Q 2666 3584 2933 3390 
Q 3200 3197 3328 2828 
z
" transform="scale(0.015625)"/>
     <path id="DejaVuSans-74" d="M 1172 4494 
L 1172 3500 
L 2356 3500 
L 2356 3053 
L 1172 3053 
L 1172 1153 
Q 1172 725 1289 603 
Q 1406 481 1766 481 
L 2356 481 
L 2356 0 
L 1766 0 
Q 1100 0 847 248 
Q 594 497 594 1153 
L 594 3053 
L 172 3053 
L 172 3500 
L 594 3500 
L 594 4494 
L 1172 4494 
z
" transform="scale(0.015625)"/>
    </defs>
    <use xlink:href="#DejaVuSans-41"/>
    <use xlink:href="#DejaVuSans-64" x="66.658203"/>
    <use xlink:href="#DejaVuSans-61" x="130.134766"/>
    <use xlink:href="#DejaVuSans-6e" x="191.414062"/>
    <use xlink:href="#DejaVuSans-69" x="254.792969"/>
    <use xlink:href="#DejaVuSans-20" x="282.576172"/>
    <use xlink:href="#DejaVuSans-47" x="314.363281"/>
    <use xlink:href="#DejaVuSans-72" x="391.853516"/>
    <use xlink:href="#DejaVuSans-65" x="430.716797"/>
    <use xlink:href="#DejaVuSans-65" x="492.240234"/>
    <use xlink:href="#DejaVuSans-6e" x="553.763672"/>
    <use xlink:href="#DejaVuSans-20" x="617.142578"/>
    <use xlink:href="#DejaVuSans-45" x="648.929688"/>
    <use xlink:href="#DejaVuSans-6e" x="712.113281"/>
    <use xlink:href="#DejaVuSans-65" x="775.492188"/>
    <use xlink:href="#DejaVuSans-72" x="837.015625"/>
    <use xlink:href="#DejaVuSans-67" x="876.378906"/>
    <use xlink:href="#DejaVuSans-79" x="939.855469"/>
    <use xlink:href="#DejaVuSans-20" x="999.035156"/>
    <use xlink:href="#DejaVuSans-4c" x="1030.822266"/>
    <use xlink:href="#DejaVuSans-69" x="1086.535156"/>
    <use xlink:href="#DejaVuSans-6d" x="1114.318359"/>
    <use xlink:href="#DejaVuSans-69" x="1211.730469"/>
    <use xlink:href="#DejaVuSans-74" x="1239.513672"/>
    <use xlink:href="#DejaVuSans-65" x="1278.722656"/>
    <use xlink:href="#DejaVuSans-64" x="1340.246094"/>
   </g>
  </g>
 </g>
 <defs>
  <clipPath id="p44a2c48807">
   <rect x="45.267188" y="48.331875" width="937.608918" height="253.385938"/>
  </clipPath>
  <clipPath id="p9ce2329cae">
   <rect x="45.267188" y="331.135938" width="937.608918" height="253.385937"/>
  </clipPath>
 </defs>
</svg>
