<?xml version="1.0" encoding="utf-8" standalone="no"?>
<!DOCTYPE svg PUBLIC "-//W3C//DTD SVG 1.1//EN"
  "http://www.w3.org/Graphics/SVG/1.1/DTD/svg11.dtd">
<svg xmlns:xlink="http://www.w3.org/1999/xlink" width="1008pt" height="612pt" viewBox="0 0 1008 612" xmlns="http://www.w3.org/2000/svg" version="1.1">
 <metadata>
  <rdf:RDF xmlns:dc="http://purl.org/dc/elements/1.1/" xmlns:cc="http://creativecommons.org/ns#" xmlns:rdf="http://www.w3.org/1999/02/22-rdf-syntax-ns#">
   <cc:Work>
    <dc:type rdf:resource="http://purl.org/dc/dcmitype/StillImage"/>
    <dc:date>2022-11-20T19:46:52.259571</dc:date>
    <dc:format>image/svg+xml</dc:format>
    <dc:creator>
     <cc:Agent>
      <dc:title>Matplotlib v3.5.2, https://matplotlib.org/</dc:title>
     </cc:Agent>
    </dc:creator>
   </cc:Work>
  </rdf:RDF>
 </metadata>
 <defs>
  <style type="text/css">*{stroke-linejoin: round; stroke-linecap: butt}</style>
 </defs>
 <g id="figure_1">
  <g id="patch_1">
   <path d="M 0 612 
L 1008 612 
L 1008 0 
L 0 0 
z
" style="fill: #ffffff"/>
  </g>
  <g id="axes_1">
   <g id="patch_2">
    <path d="M 45.267188 301.717812 
L 982.876106 301.717812 
L 982.876106 48.331875 
L 45.267188 48.331875 
z
" style="fill: #ffffff"/>
   </g>
   <g id="matplotlib.axis_1">
    <g id="xtick_1">
     <g id="line2d_1">
      <path d="M 82.541751 301.717812 
L 82.541751 48.331875 
" clip-path="url(#p1133ebb3ce)" style="fill: none; stroke-dasharray: 2.96,1.28; stroke-dashoffset: 0; stroke: #b0b0b0; stroke-width: 0.8"/>
     </g>
     <g id="line2d_2">
      <defs>
       <path id="m1a414b0947" d="M 0 0 
L 0 3.5 
" style="stroke: #000000; stroke-width: 0.8"/>
      </defs>
      <g>
       <use xlink:href="#m1a414b0947" x="82.541751" y="301.717812" style="stroke: #000000; stroke-width: 0.8"/>
      </g>
     </g>
    </g>
    <g id="xtick_2">
     <g id="line2d_3">
      <path d="M 165.374115 301.717812 
L 165.374115 48.331875 
" clip-path="url(#p1133ebb3ce)" style="fill: none; stroke-dasharray: 2.96,1.28; stroke-dashoffset: 0; stroke: #b0b0b0; stroke-width: 0.8"/>
     </g>
     <g id="line2d_4">
      <g>
       <use xlink:href="#m1a414b0947" x="165.374115" y="301.717812" style="stroke: #000000; stroke-width: 0.8"/>
      </g>
     </g>
    </g>
    <g id="xtick_3">
     <g id="line2d_5">
      <path d="M 240.190444 301.717812 
L 240.190444 48.331875 
" clip-path="url(#p1133ebb3ce)" style="fill: none; stroke-dasharray: 2.96,1.28; stroke-dashoffset: 0; stroke: #b0b0b0; stroke-width: 0.8"/>
     </g>
     <g id="line2d_6">
      <g>
       <use xlink:href="#m1a414b0947" x="240.190444" y="301.717812" style="stroke: #000000; stroke-width: 0.8"/>
      </g>
     </g>
    </g>
    <g id="xtick_4">
     <g id="line2d_7">
      <path d="M 323.022808 301.717812 
L 323.022808 48.331875 
" clip-path="url(#p1133ebb3ce)" style="fill: none; stroke-dasharray: 2.96,1.28; stroke-dashoffset: 0; stroke: #b0b0b0; stroke-width: 0.8"/>
     </g>
     <g id="line2d_8">
      <g>
       <use xlink:href="#m1a414b0947" x="323.022808" y="301.717812" style="stroke: #000000; stroke-width: 0.8"/>
      </g>
     </g>
    </g>
    <g id="xtick_5">
     <g id="line2d_9">
      <path d="M 403.18316 301.717812 
L 403.18316 48.331875 
" clip-path="url(#p1133ebb3ce)" style="fill: none; stroke-dasharray: 2.96,1.28; stroke-dashoffset: 0; stroke: #b0b0b0; stroke-width: 0.8"/>
     </g>
     <g id="line2d_10">
      <g>
       <use xlink:href="#m1a414b0947" x="403.18316" y="301.717812" style="stroke: #000000; stroke-width: 0.8"/>
      </g>
     </g>
    </g>
    <g id="xtick_6">
     <g id="line2d_11">
      <path d="M 486.015523 301.717812 
L 486.015523 48.331875 
" clip-path="url(#p1133ebb3ce)" style="fill: none; stroke-dasharray: 2.96,1.28; stroke-dashoffset: 0; stroke: #b0b0b0; stroke-width: 0.8"/>
     </g>
     <g id="line2d_12">
      <g>
       <use xlink:href="#m1a414b0947" x="486.015523" y="301.717812" style="stroke: #000000; stroke-width: 0.8"/>
      </g>
     </g>
    </g>
    <g id="xtick_7">
     <g id="line2d_13">
      <path d="M 566.175876 301.717812 
L 566.175876 48.331875 
" clip-path="url(#p1133ebb3ce)" style="fill: none; stroke-dasharray: 2.96,1.28; stroke-dashoffset: 0; stroke: #b0b0b0; stroke-width: 0.8"/>
     </g>
     <g id="line2d_14">
      <g>
       <use xlink:href="#m1a414b0947" x="566.175876" y="301.717812" style="stroke: #000000; stroke-width: 0.8"/>
      </g>
     </g>
    </g>
    <g id="xtick_8">
     <g id="line2d_15">
      <path d="M 649.008239 301.717812 
L 649.008239 48.331875 
" clip-path="url(#p1133ebb3ce)" style="fill: none; stroke-dasharray: 2.96,1.28; stroke-dashoffset: 0; stroke: #b0b0b0; stroke-width: 0.8"/>
     </g>
     <g id="line2d_16">
      <g>
       <use xlink:href="#m1a414b0947" x="649.008239" y="301.717812" style="stroke: #000000; stroke-width: 0.8"/>
      </g>
     </g>
    </g>
    <g id="xtick_9">
     <g id="line2d_17">
      <path d="M 731.840603 301.717812 
L 731.840603 48.331875 
" clip-path="url(#p1133ebb3ce)" style="fill: none; stroke-dasharray: 2.96,1.28; stroke-dashoffset: 0; stroke: #b0b0b0; stroke-width: 0.8"/>
     </g>
     <g id="line2d_18">
      <g>
       <use xlink:href="#m1a414b0947" x="731.840603" y="301.717812" style="stroke: #000000; stroke-width: 0.8"/>
      </g>
     </g>
    </g>
    <g id="xtick_10">
     <g id="line2d_19">
      <path d="M 812.000955 301.717812 
L 812.000955 48.331875 
" clip-path="url(#p1133ebb3ce)" style="fill: none; stroke-dasharray: 2.96,1.28; stroke-dashoffset: 0; stroke: #b0b0b0; stroke-width: 0.8"/>
     </g>
     <g id="line2d_20">
      <g>
       <use xlink:href="#m1a414b0947" x="812.000955" y="301.717812" style="stroke: #000000; stroke-width: 0.8"/>
      </g>
     </g>
    </g>
    <g id="xtick_11">
     <g id="line2d_21">
      <path d="M 894.833319 301.717812 
L 894.833319 48.331875 
" clip-path="url(#p1133ebb3ce)" style="fill: none; stroke-dasharray: 2.96,1.28; stroke-dashoffset: 0; stroke: #b0b0b0; stroke-width: 0.8"/>
     </g>
     <g id="line2d_22">
      <g>
       <use xlink:href="#m1a414b0947" x="894.833319" y="301.717812" style="stroke: #000000; stroke-width: 0.8"/>
      </g>
     </g>
    </g>
    <g id="xtick_12">
     <g id="line2d_23">
      <path d="M 974.993671 301.717812 
L 974.993671 48.331875 
" clip-path="url(#p1133ebb3ce)" style="fill: none; stroke-dasharray: 2.96,1.28; stroke-dashoffset: 0; stroke: #b0b0b0; stroke-width: 0.8"/>
     </g>
     <g id="line2d_24">
      <g>
       <use xlink:href="#m1a414b0947" x="974.993671" y="301.717812" style="stroke: #000000; stroke-width: 0.8"/>
      </g>
     </g>
    </g>
   </g>
   <g id="matplotlib.axis_2">
    <g id="ytick_1">
     <g id="line2d_25">
      <path d="M 45.267188 285.621466 
L 982.876106 285.621466 
" clip-path="url(#p1133ebb3ce)" style="fill: none; stroke-dasharray: 2.96,1.28; stroke-dashoffset: 0; stroke: #b0b0b0; stroke-width: 0.8"/>
     </g>
     <g id="line2d_26">
      <defs>
       <path id="mc085402dba" d="M 0 0 
L -3.5 0 
" style="stroke: #000000; stroke-width: 0.8"/>
      </defs>
      <g>
       <use xlink:href="#mc085402dba" x="45.267188" y="285.621466" style="stroke: #000000; stroke-width: 0.8"/>
      </g>
     </g>
     <g id="text_1">
      <!-- 2600 -->
      <g transform="translate(12.817188 289.420684)scale(0.1 -0.1)">
       <defs>
        <path id="DejaVuSans-32" d="M 1228 531 
L 3431 531 
L 3431 0 
L 469 0 
L 469 531 
Q 828 903 1448 1529 
Q 2069 2156 2228 2338 
Q 2531 2678 2651 2914 
Q 2772 3150 2772 3378 
Q 2772 3750 2511 3984 
Q 2250 4219 1831 4219 
Q 1534 4219 1204 4116 
Q 875 4013 500 3803 
L 500 4441 
Q 881 4594 1212 4672 
Q 1544 4750 1819 4750 
Q 2544 4750 2975 4387 
Q 3406 4025 3406 3419 
Q 3406 3131 3298 2873 
Q 3191 2616 2906 2266 
Q 2828 2175 2409 1742 
Q 1991 1309 1228 531 
z
" transform="scale(0.015625)"/>
        <path id="DejaVuSans-36" d="M 2113 2584 
Q 1688 2584 1439 2293 
Q 1191 2003 1191 1497 
Q 1191 994 1439 701 
Q 1688 409 2113 409 
Q 2538 409 2786 701 
Q 3034 994 3034 1497 
Q 3034 2003 2786 2293 
Q 2538 2584 2113 2584 
z
M 3366 4563 
L 3366 3988 
Q 3128 4100 2886 4159 
Q 2644 4219 2406 4219 
Q 1781 4219 1451 3797 
Q 1122 3375 1075 2522 
Q 1259 2794 1537 2939 
Q 1816 3084 2150 3084 
Q 2853 3084 3261 2657 
Q 3669 2231 3669 1497 
Q 3669 778 3244 343 
Q 2819 -91 2113 -91 
Q 1303 -91 875 529 
Q 447 1150 447 2328 
Q 447 3434 972 4092 
Q 1497 4750 2381 4750 
Q 2619 4750 2861 4703 
Q 3103 4656 3366 4563 
z
" transform="scale(0.015625)"/>
        <path id="DejaVuSans-30" d="M 2034 4250 
Q 1547 4250 1301 3770 
Q 1056 3291 1056 2328 
Q 1056 1369 1301 889 
Q 1547 409 2034 409 
Q 2525 409 2770 889 
Q 3016 1369 3016 2328 
Q 3016 3291 2770 3770 
Q 2525 4250 2034 4250 
z
M 2034 4750 
Q 2819 4750 3233 4129 
Q 3647 3509 3647 2328 
Q 3647 1150 3233 529 
Q 2819 -91 2034 -91 
Q 1250 -91 836 529 
Q 422 1150 422 2328 
Q 422 3509 836 4129 
Q 1250 4750 2034 4750 
z
" transform="scale(0.015625)"/>
       </defs>
       <use xlink:href="#DejaVuSans-32"/>
       <use xlink:href="#DejaVuSans-36" x="63.623047"/>
       <use xlink:href="#DejaVuSans-30" x="127.246094"/>
       <use xlink:href="#DejaVuSans-30" x="190.869141"/>
      </g>
     </g>
    </g>
    <g id="ytick_2">
     <g id="line2d_27">
      <path d="M 45.267188 239.370918 
L 982.876106 239.370918 
" clip-path="url(#p1133ebb3ce)" style="fill: none; stroke-dasharray: 2.96,1.28; stroke-dashoffset: 0; stroke: #b0b0b0; stroke-width: 0.8"/>
     </g>
     <g id="line2d_28">
      <g>
       <use xlink:href="#mc085402dba" x="45.267188" y="239.370918" style="stroke: #000000; stroke-width: 0.8"/>
      </g>
     </g>
     <g id="text_2">
      <!-- 2800 -->
      <g transform="translate(12.817188 243.170137)scale(0.1 -0.1)">
       <defs>
        <path id="DejaVuSans-38" d="M 2034 2216 
Q 1584 2216 1326 1975 
Q 1069 1734 1069 1313 
Q 1069 891 1326 650 
Q 1584 409 2034 409 
Q 2484 409 2743 651 
Q 3003 894 3003 1313 
Q 3003 1734 2745 1975 
Q 2488 2216 2034 2216 
z
M 1403 2484 
Q 997 2584 770 2862 
Q 544 3141 544 3541 
Q 544 4100 942 4425 
Q 1341 4750 2034 4750 
Q 2731 4750 3128 4425 
Q 3525 4100 3525 3541 
Q 3525 3141 3298 2862 
Q 3072 2584 2669 2484 
Q 3125 2378 3379 2068 
Q 3634 1759 3634 1313 
Q 3634 634 3220 271 
Q 2806 -91 2034 -91 
Q 1263 -91 848 271 
Q 434 634 434 1313 
Q 434 1759 690 2068 
Q 947 2378 1403 2484 
z
M 1172 3481 
Q 1172 3119 1398 2916 
Q 1625 2713 2034 2713 
Q 2441 2713 2670 2916 
Q 2900 3119 2900 3481 
Q 2900 3844 2670 4047 
Q 2441 4250 2034 4250 
Q 1625 4250 1398 4047 
Q 1172 3844 1172 3481 
z
" transform="scale(0.015625)"/>
       </defs>
       <use xlink:href="#DejaVuSans-32"/>
       <use xlink:href="#DejaVuSans-38" x="63.623047"/>
       <use xlink:href="#DejaVuSans-30" x="127.246094"/>
       <use xlink:href="#DejaVuSans-30" x="190.869141"/>
      </g>
     </g>
    </g>
    <g id="ytick_3">
     <g id="line2d_29">
      <path d="M 45.267188 193.12037 
L 982.876106 193.12037 
" clip-path="url(#p1133ebb3ce)" style="fill: none; stroke-dasharray: 2.96,1.28; stroke-dashoffset: 0; stroke: #b0b0b0; stroke-width: 0.8"/>
     </g>
     <g id="line2d_30">
      <g>
       <use xlink:href="#mc085402dba" x="45.267188" y="193.12037" style="stroke: #000000; stroke-width: 0.8"/>
      </g>
     </g>
     <g id="text_3">
      <!-- 3000 -->
      <g transform="translate(12.817188 196.919589)scale(0.1 -0.1)">
       <defs>
        <path id="DejaVuSans-33" d="M 2597 2516 
Q 3050 2419 3304 2112 
Q 3559 1806 3559 1356 
Q 3559 666 3084 287 
Q 2609 -91 1734 -91 
Q 1441 -91 1130 -33 
Q 819 25 488 141 
L 488 750 
Q 750 597 1062 519 
Q 1375 441 1716 441 
Q 2309 441 2620 675 
Q 2931 909 2931 1356 
Q 2931 1769 2642 2001 
Q 2353 2234 1838 2234 
L 1294 2234 
L 1294 2753 
L 1863 2753 
Q 2328 2753 2575 2939 
Q 2822 3125 2822 3475 
Q 2822 3834 2567 4026 
Q 2313 4219 1838 4219 
Q 1578 4219 1281 4162 
Q 984 4106 628 3988 
L 628 4550 
Q 988 4650 1302 4700 
Q 1616 4750 1894 4750 
Q 2613 4750 3031 4423 
Q 3450 4097 3450 3541 
Q 3450 3153 3228 2886 
Q 3006 2619 2597 2516 
z
" transform="scale(0.015625)"/>
       </defs>
       <use xlink:href="#DejaVuSans-33"/>
       <use xlink:href="#DejaVuSans-30" x="63.623047"/>
       <use xlink:href="#DejaVuSans-30" x="127.246094"/>
       <use xlink:href="#DejaVuSans-30" x="190.869141"/>
      </g>
     </g>
    </g>
    <g id="ytick_4">
     <g id="line2d_31">
      <path d="M 45.267188 146.869823 
L 982.876106 146.869823 
" clip-path="url(#p1133ebb3ce)" style="fill: none; stroke-dasharray: 2.96,1.28; stroke-dashoffset: 0; stroke: #b0b0b0; stroke-width: 0.8"/>
     </g>
     <g id="line2d_32">
      <g>
       <use xlink:href="#mc085402dba" x="45.267188" y="146.869823" style="stroke: #000000; stroke-width: 0.8"/>
      </g>
     </g>
     <g id="text_4">
      <!-- 3200 -->
      <g transform="translate(12.817188 150.669042)scale(0.1 -0.1)">
       <use xlink:href="#DejaVuSans-33"/>
       <use xlink:href="#DejaVuSans-32" x="63.623047"/>
       <use xlink:href="#DejaVuSans-30" x="127.246094"/>
       <use xlink:href="#DejaVuSans-30" x="190.869141"/>
      </g>
     </g>
    </g>
    <g id="ytick_5">
     <g id="line2d_33">
      <path d="M 45.267188 100.619275 
L 982.876106 100.619275 
" clip-path="url(#p1133ebb3ce)" style="fill: none; stroke-dasharray: 2.96,1.28; stroke-dashoffset: 0; stroke: #b0b0b0; stroke-width: 0.8"/>
     </g>
     <g id="line2d_34">
      <g>
       <use xlink:href="#mc085402dba" x="45.267188" y="100.619275" style="stroke: #000000; stroke-width: 0.8"/>
      </g>
     </g>
     <g id="text_5">
      <!-- 3400 -->
      <g transform="translate(12.817188 104.418494)scale(0.1 -0.1)">
       <defs>
        <path id="DejaVuSans-34" d="M 2419 4116 
L 825 1625 
L 2419 1625 
L 2419 4116 
z
M 2253 4666 
L 3047 4666 
L 3047 1625 
L 3713 1625 
L 3713 1100 
L 3047 1100 
L 3047 0 
L 2419 0 
L 2419 1100 
L 313 1100 
L 313 1709 
L 2253 4666 
z
" transform="scale(0.015625)"/>
       </defs>
       <use xlink:href="#DejaVuSans-33"/>
       <use xlink:href="#DejaVuSans-34" x="63.623047"/>
       <use xlink:href="#DejaVuSans-30" x="127.246094"/>
       <use xlink:href="#DejaVuSans-30" x="190.869141"/>
      </g>
     </g>
    </g>
    <g id="ytick_6">
     <g id="line2d_35">
      <path d="M 45.267188 54.368728 
L 982.876106 54.368728 
" clip-path="url(#p1133ebb3ce)" style="fill: none; stroke-dasharray: 2.96,1.28; stroke-dashoffset: 0; stroke: #b0b0b0; stroke-width: 0.8"/>
     </g>
     <g id="line2d_36">
      <g>
       <use xlink:href="#mc085402dba" x="45.267188" y="54.368728" style="stroke: #000000; stroke-width: 0.8"/>
      </g>
     </g>
     <g id="text_6">
      <!-- 3600 -->
      <g transform="translate(12.817188 58.167946)scale(0.1 -0.1)">
       <use xlink:href="#DejaVuSans-33"/>
       <use xlink:href="#DejaVuSans-36" x="63.623047"/>
       <use xlink:href="#DejaVuSans-30" x="127.246094"/>
       <use xlink:href="#DejaVuSans-30" x="190.869141"/>
      </g>
     </g>
    </g>
   </g>
   <g id="line2d_37">
    <path d="M 87.885775 95.439214 
L 90.557786 86.905988 
L 93.229798 71.296428 
L 95.90181 74.106149 
L 98.573822 59.849418 
L 106.589857 65.12198 
L 109.261869 68.532958 
L 111.93388 67.365132 
L 114.605892 87.611309 
L 117.277904 108.851873 
L 125.293939 105.556521 
L 127.965951 106.701222 
L 130.637962 128.277103 
L 133.309974 122.264532 
L 135.981986 129.560555 
L 143.998021 157.241508 
L 146.670033 159.103093 
L 152.014056 166.075363 
L 154.686068 167.486004 
L 162.702103 157.912141 
L 165.374115 147.737021 
L 168.046127 147.401704 
L 170.718139 146.176065 
L 173.39015 138.39441 
L 181.406185 152.720517 
L 184.078197 143.088841 
L 186.750209 140.313808 
L 189.422221 137.908779 
L 192.094232 143.100403 
L 200.110268 159.947165 
L 202.782279 131.930896 
L 205.454291 134.648116 
L 208.126303 131.64183 
L 210.798315 133.3531 
L 218.81435 134.925619 
L 221.486362 140.591311 
L 224.158373 138.267221 
L 226.830385 177.152369 
L 229.502397 165.555044 
L 237.518432 152.73208 
L 242.862455 186.425604 
L 245.534467 222.743846 
L 248.206479 253.6739 
L 256.222514 260.542106 
L 258.894526 257.084878 
L 261.566538 222.038525 
L 264.238549 213.285609 
L 266.910561 208.845557 
L 274.926596 201.722972 
L 277.598608 196.091968 
L 280.27062 183.407756 
L 282.942631 161.531246 
L 293.630678 182.540558 
L 296.30269 181.291793 
L 298.974702 189.235324 
L 301.646714 187.258114 
L 304.318725 182.263054 
L 312.334761 186.772483 
L 315.006772 183.269004 
L 317.678784 174.26171 
L 320.350796 174.631714 
L 323.022808 166.72287 
L 331.038843 165.832547 
L 333.710854 160.559985 
L 336.382866 157.507449 
L 339.054878 157.276196 
L 341.72689 145.424493 
L 349.742925 156.709627 
L 352.414937 163.369706 
L 355.086948 174.469837 
L 368.447007 188.136874 
L 371.119019 195.155395 
L 373.791031 173.926393 
L 376.463042 156.524625 
L 379.135054 155.10242 
L 387.151089 162.918763 
L 389.823101 164.063464 
L 392.495113 158.814027 
L 395.167124 135.839067 
L 397.839136 138.267221 
L 405.855171 146.869823 
L 411.199195 169.798532 
L 413.871207 175.417973 
L 416.543218 189.362514 
L 424.559254 191.906294 
L 427.231265 173.151697 
L 429.903277 180.713661 
L 432.575289 183.881824 
L 435.2473 178.320195 
L 443.263336 193.143496 
L 448.607359 169.971971 
L 451.279371 182.274617 
L 453.951383 167.694132 
L 461.967418 152.836144 
L 464.63943 173.03607 
L 467.311441 230.571751 
L 469.983453 230.086121 
L 472.655465 231.31176 
L 480.6715 229.195798 
L 483.343512 225.576692 
L 486.015523 227.230149 
L 488.687535 214.268433 
L 491.359547 219.275055 
L 499.375582 235.335558 
L 502.047594 252.159194 
L 504.719606 261.293678 
L 507.391617 265.548728 
L 510.063629 260.47273 
L 518.079664 271.572862 
L 520.751676 277.435119 
L 523.423688 271.480361 
L 526.095699 272.335996 
L 528.767711 290.20027 
L 536.783746 271.584424 
L 539.455758 267.502814 
L 542.12777 270.277847 
L 544.799782 249.037283 
L 547.471793 248.4129 
L 555.487829 234.526173 
L 558.15984 256.367994 
L 560.831852 263.004948 
L 563.503864 263.606205 
L 566.175876 245.580054 
L 574.191911 241.61407 
L 576.863922 247.09476 
L 579.535934 225.172 
L 582.207946 218.234418 
L 584.879958 220.91695 
L 592.895993 208.602741 
L 595.568005 217.818163 
L 598.240016 206.718031 
L 600.912028 207.1921 
L 603.58404 198.173243 
L 611.600075 188.992509 
L 614.272087 188.703443 
L 616.944099 191.62879 
L 619.61611 177.834565 
L 622.288122 177.533936 
L 630.304157 168.850396 
L 632.976169 168.029448 
L 635.648181 150.095799 
L 638.320192 130.127125 
L 640.992204 115.939769 
L 649.008239 118.067294 
L 651.680251 101.509598 
L 654.352263 91.450104 
L 657.024275 86.628485 
L 659.696286 83.529698 
L 667.712322 87.102553 
L 673.056345 97.925181 
L 675.728357 99.416761 
L 678.400368 94.178887 
L 689.088415 77.262749 
L 691.760427 72.013312 
L 694.432439 69.319217 
L 697.104451 81.529362 
L 705.120486 112.239725 
L 707.792498 110.655644 
L 710.464509 105.510271 
L 713.136521 109.291253 
L 715.808533 118.298547 
L 723.824568 113.742868 
L 726.49658 102.561798 
L 731.840603 89.85446 
L 734.512615 93.438878 
L 742.52865 94.884207 
L 745.200662 101.717726 
L 747.872674 100.538337 
L 750.544685 89.021951 
L 753.216697 90.941348 
L 761.232732 93.172937 
L 763.904744 95.485465 
L 766.576756 91.611981 
L 769.248768 101.683038 
L 771.920779 118.5298 
L 779.936814 119.986692 
L 782.608826 102.191794 
L 785.280838 110.782833 
L 787.95285 92.294177 
L 790.624861 101.717726 
L 798.640897 91.820109 
L 801.312908 84.281269 
L 803.98492 61.155996 
L 806.656932 104.134317 
L 809.328944 113.92787 
L 817.344979 123.073916 
L 820.016991 115.014758 
L 825.361014 117.049782 
L 828.033026 113.638804 
L 836.049061 128.843672 
L 838.721073 124.045178 
L 841.393084 135.723441 
L 844.065096 144.788548 
L 846.737108 150.222988 
L 854.753143 147.424829 
L 857.425155 140.89194 
L 860.097167 143.92135 
L 862.769178 160.53686 
L 865.44119 171.752618 
L 873.457225 164.988475 
L 876.129237 173.487013 
L 881.47326 183.072439 
L 884.145272 180.771474 
L 892.161307 168.214451 
L 894.833319 156.258684 
L 897.505331 162.618134 
L 900.177343 160.444359 
L 902.849354 151.182686 
L 910.86539 169.174149 
L 916.209413 173.117009 
L 918.881425 182.679309 
L 921.553437 180.308969 
L 929.569472 180.817725 
L 932.241483 174.782028 
L 934.913495 173.914831 
L 937.585507 176.562674 
L 940.257519 171.035734 
L 940.257519 171.035734 
" clip-path="url(#p1133ebb3ce)" style="fill: none; stroke: #1f77b4; stroke-width: 1.5; stroke-linecap: square"/>
   </g>
   <g id="line2d_38">
    <path d="M 98.573822 77.519439 
L 106.589857 71.455993 
L 109.261869 67.781387 
L 111.93388 66.995127 
L 114.605892 69.696159 
L 117.277904 79.49665 
L 125.293939 87.583558 
L 127.965951 95.217211 
L 130.637962 107.399606 
L 133.309974 114.33025 
L 135.981986 118.471987 
L 143.998021 128.808984 
L 146.670033 139.289358 
L 152.014056 146.84901 
L 154.686068 155.893305 
L 162.702103 161.563622 
L 165.374115 159.662724 
L 168.046127 157.322447 
L 170.718139 153.342587 
L 173.39015 147.524268 
L 181.406185 146.485943 
L 184.078197 145.556307 
L 186.750209 144.138728 
L 189.422221 142.485271 
L 192.094232 143.42647 
L 200.110268 144.871799 
L 202.782279 142.64021 
L 208.126303 140.253682 
L 210.798315 138.304221 
L 218.81435 133.299912 
L 221.486362 135.031995 
L 224.158373 135.755816 
L 226.830385 144.857924 
L 229.502397 151.298313 
L 237.518432 154.859605 
L 242.862455 164.026464 
L 245.534467 180.921789 
L 248.206479 196.226095 
L 256.222514 215.223507 
L 258.894526 236.094067 
L 261.566538 243.216651 
L 264.238549 241.325004 
L 266.910561 232.359335 
L 274.926596 220.595508 
L 277.598608 208.396926 
L 280.27062 200.670772 
L 282.942631 190.3199 
L 293.630678 185.0589 
L 296.30269 180.972664 
L 298.974702 179.601335 
L 301.646714 180.371407 
L 304.318725 184.517769 
L 312.334761 185.364154 
L 315.006772 185.759596 
L 317.678784 182.764873 
L 320.350796 180.239593 
L 323.022808 177.131556 
L 331.038843 172.943569 
L 333.710854 168.401765 
L 339.054878 161.57981 
L 341.72689 157.320134 
L 349.742925 155.49555 
L 352.414937 156.057494 
L 355.086948 159.449972 
L 368.447007 165.622107 
L 371.119019 175.568288 
L 373.791031 179.011641 
L 376.463042 177.642625 
L 379.135054 173.769141 
L 387.151089 168.725519 
L 389.823101 162.507133 
L 392.495113 159.48466 
L 395.167124 155.347548 
L 397.839136 151.980508 
L 405.855171 148.77072 
L 411.199195 149.917734 
L 413.871207 153.238523 
L 416.543218 163.943213 
L 424.559254 174.671027 
L 427.231265 179.927402 
L 429.903277 182.110428 
L 432.575289 183.803198 
L 435.2473 181.594734 
L 443.263336 181.842174 
L 445.935347 183.523382 
L 448.607359 181.375044 
L 451.279371 181.053603 
L 453.951383 178.92839 
L 461.967418 170.86692 
L 464.63943 169.162587 
L 467.311441 181.282543 
L 469.983453 190.844844 
L 472.655465 203.568369 
L 480.6715 218.8403 
L 483.343512 229.348424 
L 486.015523 228.680104 
L 488.687535 225.516567 
L 491.359547 223.109226 
L 499.375582 224.337178 
L 502.047594 229.653678 
L 504.719606 236.466384 
L 507.391617 246.722443 
L 510.063629 254.961978 
L 518.079664 262.209438 
L 520.751676 267.264623 
L 523.423688 269.30196 
L 526.095699 270.659414 
L 528.767711 276.604921 
L 536.783746 276.607234 
L 539.455758 274.620773 
L 542.12777 274.38027 
L 544.799782 269.720527 
L 547.471793 261.363053 
L 555.487829 253.951403 
L 558.15984 251.724439 
L 560.831852 250.26986 
L 563.503864 253.183644 
L 566.175876 252.617075 
L 574.191911 254.034654 
L 576.863922 252.180007 
L 579.535934 244.613418 
L 582.207946 235.53906 
L 584.879958 230.606439 
L 592.895993 224.004174 
L 595.568005 218.148854 
L 598.240016 214.458061 
L 600.912028 212.249597 
L 603.58404 207.700856 
L 611.600075 203.778809 
L 614.272087 197.955865 
L 616.944099 194.938017 
L 619.61611 189.06651 
L 622.288122 184.938649 
L 630.304157 180.910226 
L 632.976169 176.775427 
L 635.648181 168.468829 
L 638.320192 158.927341 
L 640.992204 146.608507 
L 649.008239 136.451887 
L 651.680251 123.147917 
L 654.352263 111.418778 
L 657.024275 102.71905 
L 659.696286 96.237036 
L 667.712322 90.044088 
L 673.056345 89.327204 
L 678.400368 92.430616 
L 689.088415 91.177226 
L 691.760427 88.159378 
L 694.432439 82.438185 
L 697.104451 78.860705 
L 705.120486 82.472873 
L 710.464509 95.850844 
L 713.136521 103.845251 
L 715.808533 111.199088 
L 723.824568 111.499717 
L 731.840603 106.749785 
L 734.512615 103.57931 
L 742.52865 98.896442 
L 745.200662 96.491414 
L 747.872674 96.086722 
L 750.544685 95.92022 
L 753.216697 95.420714 
L 761.232732 95.07846 
L 763.904744 93.832007 
L 766.576756 92.046736 
L 769.248768 94.578954 
L 771.920779 100.096644 
L 779.936814 105.459395 
L 782.608826 106.800661 
L 785.280838 110.634831 
L 787.95285 108.757059 
L 790.624861 105.394644 
L 798.640897 99.761328 
L 801.312908 96.179223 
L 803.98492 86.253855 
L 809.328944 91.063912 
L 817.344979 97.314674 
L 820.016991 103.461371 
L 825.361014 114.640129 
L 828.033026 116.541026 
L 836.049061 119.524187 
L 838.721073 119.718439 
L 841.393084 123.860175 
L 844.065096 129.407929 
L 846.737108 136.724765 
L 854.753143 140.440997 
L 857.425155 143.810349 
L 860.097167 145.449931 
L 862.769178 148.599593 
L 865.44119 152.905519 
L 873.457225 156.418248 
L 876.129237 162.937263 
L 884.145272 174.814404 
L 892.161307 174.10677 
L 894.833319 172.360812 
L 897.505331 170.187036 
L 900.177343 165.66142 
L 902.849354 159.743663 
L 910.86539 159.935603 
L 916.209413 163.307268 
L 921.553437 171.292425 
L 929.569472 177.219432 
L 932.241483 178.341008 
L 934.913495 178.500572 
L 937.585507 177.277245 
L 940.257519 175.422598 
L 940.257519 175.422598 
" clip-path="url(#p1133ebb3ce)" style="fill: none; stroke: #ff7f0e; stroke-width: 1.5; stroke-linecap: square"/>
   </g>
   <g id="patch_3">
    <path d="M 45.267188 301.717812 
L 45.267188 48.331875 
" style="fill: none; stroke: #000000; stroke-width: 0.8; stroke-linejoin: miter; stroke-linecap: square"/>
   </g>
   <g id="patch_4">
    <path d="M 982.876106 301.717812 
L 982.876106 48.331875 
" style="fill: none; stroke: #000000; stroke-width: 0.8; stroke-linejoin: miter; stroke-linecap: square"/>
   </g>
   <g id="patch_5">
    <path d="M 45.267188 301.717812 
L 982.876106 301.717812 
" style="fill: none; stroke: #000000; stroke-width: 0.8; stroke-linejoin: miter; stroke-linecap: square"/>
   </g>
   <g id="patch_6">
    <path d="M 45.267188 48.331875 
L 982.876106 48.331875 
" style="fill: none; stroke: #000000; stroke-width: 0.8; stroke-linejoin: miter; stroke-linecap: square"/>
   </g>
   <g id="text_7">
    <!-- Closing Price -->
    <g transform="translate(475.595709 42.331875)scale(0.12 -0.12)">
     <defs>
      <path id="DejaVuSans-43" d="M 4122 4306 
L 4122 3641 
Q 3803 3938 3442 4084 
Q 3081 4231 2675 4231 
Q 1875 4231 1450 3742 
Q 1025 3253 1025 2328 
Q 1025 1406 1450 917 
Q 1875 428 2675 428 
Q 3081 428 3442 575 
Q 3803 722 4122 1019 
L 4122 359 
Q 3791 134 3420 21 
Q 3050 -91 2638 -91 
Q 1578 -91 968 557 
Q 359 1206 359 2328 
Q 359 3453 968 4101 
Q 1578 4750 2638 4750 
Q 3056 4750 3426 4639 
Q 3797 4528 4122 4306 
z
" transform="scale(0.015625)"/>
      <path id="DejaVuSans-6c" d="M 603 4863 
L 1178 4863 
L 1178 0 
L 603 0 
L 603 4863 
z
" transform="scale(0.015625)"/>
      <path id="DejaVuSans-6f" d="M 1959 3097 
Q 1497 3097 1228 2736 
Q 959 2375 959 1747 
Q 959 1119 1226 758 
Q 1494 397 1959 397 
Q 2419 397 2687 759 
Q 2956 1122 2956 1747 
Q 2956 2369 2687 2733 
Q 2419 3097 1959 3097 
z
M 1959 3584 
Q 2709 3584 3137 3096 
Q 3566 2609 3566 1747 
Q 3566 888 3137 398 
Q 2709 -91 1959 -91 
Q 1206 -91 779 398 
Q 353 888 353 1747 
Q 353 2609 779 3096 
Q 1206 3584 1959 3584 
z
" transform="scale(0.015625)"/>
      <path id="DejaVuSans-73" d="M 2834 3397 
L 2834 2853 
Q 2591 2978 2328 3040 
Q 2066 3103 1784 3103 
Q 1356 3103 1142 2972 
Q 928 2841 928 2578 
Q 928 2378 1081 2264 
Q 1234 2150 1697 2047 
L 1894 2003 
Q 2506 1872 2764 1633 
Q 3022 1394 3022 966 
Q 3022 478 2636 193 
Q 2250 -91 1575 -91 
Q 1294 -91 989 -36 
Q 684 19 347 128 
L 347 722 
Q 666 556 975 473 
Q 1284 391 1588 391 
Q 1994 391 2212 530 
Q 2431 669 2431 922 
Q 2431 1156 2273 1281 
Q 2116 1406 1581 1522 
L 1381 1569 
Q 847 1681 609 1914 
Q 372 2147 372 2553 
Q 372 3047 722 3315 
Q 1072 3584 1716 3584 
Q 2034 3584 2315 3537 
Q 2597 3491 2834 3397 
z
" transform="scale(0.015625)"/>
      <path id="DejaVuSans-69" d="M 603 3500 
L 1178 3500 
L 1178 0 
L 603 0 
L 603 3500 
z
M 603 4863 
L 1178 4863 
L 1178 4134 
L 603 4134 
L 603 4863 
z
" transform="scale(0.015625)"/>
      <path id="DejaVuSans-6e" d="M 3513 2113 
L 3513 0 
L 2938 0 
L 2938 2094 
Q 2938 2591 2744 2837 
Q 2550 3084 2163 3084 
Q 1697 3084 1428 2787 
Q 1159 2491 1159 1978 
L 1159 0 
L 581 0 
L 581 3500 
L 1159 3500 
L 1159 2956 
Q 1366 3272 1645 3428 
Q 1925 3584 2291 3584 
Q 2894 3584 3203 3211 
Q 3513 2838 3513 2113 
z
" transform="scale(0.015625)"/>
      <path id="DejaVuSans-67" d="M 2906 1791 
Q 2906 2416 2648 2759 
Q 2391 3103 1925 3103 
Q 1463 3103 1205 2759 
Q 947 2416 947 1791 
Q 947 1169 1205 825 
Q 1463 481 1925 481 
Q 2391 481 2648 825 
Q 2906 1169 2906 1791 
z
M 3481 434 
Q 3481 -459 3084 -895 
Q 2688 -1331 1869 -1331 
Q 1566 -1331 1297 -1286 
Q 1028 -1241 775 -1147 
L 775 -588 
Q 1028 -725 1275 -790 
Q 1522 -856 1778 -856 
Q 2344 -856 2625 -561 
Q 2906 -266 2906 331 
L 2906 616 
Q 2728 306 2450 153 
Q 2172 0 1784 0 
Q 1141 0 747 490 
Q 353 981 353 1791 
Q 353 2603 747 3093 
Q 1141 3584 1784 3584 
Q 2172 3584 2450 3431 
Q 2728 3278 2906 2969 
L 2906 3500 
L 3481 3500 
L 3481 434 
z
" transform="scale(0.015625)"/>
      <path id="DejaVuSans-20" transform="scale(0.015625)"/>
      <path id="DejaVuSans-50" d="M 1259 4147 
L 1259 2394 
L 2053 2394 
Q 2494 2394 2734 2622 
Q 2975 2850 2975 3272 
Q 2975 3691 2734 3919 
Q 2494 4147 2053 4147 
L 1259 4147 
z
M 628 4666 
L 2053 4666 
Q 2838 4666 3239 4311 
Q 3641 3956 3641 3272 
Q 3641 2581 3239 2228 
Q 2838 1875 2053 1875 
L 1259 1875 
L 1259 0 
L 628 0 
L 628 4666 
z
" transform="scale(0.015625)"/>
      <path id="DejaVuSans-72" d="M 2631 2963 
Q 2534 3019 2420 3045 
Q 2306 3072 2169 3072 
Q 1681 3072 1420 2755 
Q 1159 2438 1159 1844 
L 1159 0 
L 581 0 
L 581 3500 
L 1159 3500 
L 1159 2956 
Q 1341 3275 1631 3429 
Q 1922 3584 2338 3584 
Q 2397 3584 2469 3576 
Q 2541 3569 2628 3553 
L 2631 2963 
z
" transform="scale(0.015625)"/>
      <path id="DejaVuSans-63" d="M 3122 3366 
L 3122 2828 
Q 2878 2963 2633 3030 
Q 2388 3097 2138 3097 
Q 1578 3097 1268 2742 
Q 959 2388 959 1747 
Q 959 1106 1268 751 
Q 1578 397 2138 397 
Q 2388 397 2633 464 
Q 2878 531 3122 666 
L 3122 134 
Q 2881 22 2623 -34 
Q 2366 -91 2075 -91 
Q 1284 -91 818 406 
Q 353 903 353 1747 
Q 353 2603 823 3093 
Q 1294 3584 2113 3584 
Q 2378 3584 2631 3529 
Q 2884 3475 3122 3366 
z
" transform="scale(0.015625)"/>
      <path id="DejaVuSans-65" d="M 3597 1894 
L 3597 1613 
L 953 1613 
Q 991 1019 1311 708 
Q 1631 397 2203 397 
Q 2534 397 2845 478 
Q 3156 559 3463 722 
L 3463 178 
Q 3153 47 2828 -22 
Q 2503 -91 2169 -91 
Q 1331 -91 842 396 
Q 353 884 353 1716 
Q 353 2575 817 3079 
Q 1281 3584 2069 3584 
Q 2775 3584 3186 3129 
Q 3597 2675 3597 1894 
z
M 3022 2063 
Q 3016 2534 2758 2815 
Q 2500 3097 2075 3097 
Q 1594 3097 1305 2825 
Q 1016 2553 972 2059 
L 3022 2063 
z
" transform="scale(0.015625)"/>
     </defs>
     <use xlink:href="#DejaVuSans-43"/>
     <use xlink:href="#DejaVuSans-6c" x="69.824219"/>
     <use xlink:href="#DejaVuSans-6f" x="97.607422"/>
     <use xlink:href="#DejaVuSans-73" x="158.789062"/>
     <use xlink:href="#DejaVuSans-69" x="210.888672"/>
     <use xlink:href="#DejaVuSans-6e" x="238.671875"/>
     <use xlink:href="#DejaVuSans-67" x="302.050781"/>
     <use xlink:href="#DejaVuSans-20" x="365.527344"/>
     <use xlink:href="#DejaVuSans-50" x="397.314453"/>
     <use xlink:href="#DejaVuSans-72" x="455.867188"/>
     <use xlink:href="#DejaVuSans-69" x="496.980469"/>
     <use xlink:href="#DejaVuSans-63" x="524.763672"/>
     <use xlink:href="#DejaVuSans-65" x="579.744141"/>
    </g>
   </g>
   <g id="legend_1">
    <g id="patch_7">
     <path d="M 911.144856 85.688125 
L 975.876106 85.688125 
Q 977.876106 85.688125 977.876106 83.688125 
L 977.876106 55.331875 
Q 977.876106 53.331875 975.876106 53.331875 
L 911.144856 53.331875 
Q 909.144856 53.331875 909.144856 55.331875 
L 909.144856 83.688125 
Q 909.144856 85.688125 911.144856 85.688125 
z
" style="fill: #ffffff; opacity: 0.8; stroke: #cccccc; stroke-linejoin: miter"/>
    </g>
    <g id="line2d_39">
     <path d="M 913.144856 61.430312 
L 923.144856 61.430312 
L 933.144856 61.430312 
" style="fill: none; stroke: #1f77b4; stroke-width: 1.5; stroke-linecap: square"/>
    </g>
    <g id="text_8">
     <!-- CLOSE -->
     <g transform="translate(941.144856 64.930312)scale(0.1 -0.1)">
      <defs>
       <path id="DejaVuSans-4c" d="M 628 4666 
L 1259 4666 
L 1259 531 
L 3531 531 
L 3531 0 
L 628 0 
L 628 4666 
z
" transform="scale(0.015625)"/>
       <path id="DejaVuSans-4f" d="M 2522 4238 
Q 1834 4238 1429 3725 
Q 1025 3213 1025 2328 
Q 1025 1447 1429 934 
Q 1834 422 2522 422 
Q 3209 422 3611 934 
Q 4013 1447 4013 2328 
Q 4013 3213 3611 3725 
Q 3209 4238 2522 4238 
z
M 2522 4750 
Q 3503 4750 4090 4092 
Q 4678 3434 4678 2328 
Q 4678 1225 4090 567 
Q 3503 -91 2522 -91 
Q 1538 -91 948 565 
Q 359 1222 359 2328 
Q 359 3434 948 4092 
Q 1538 4750 2522 4750 
z
" transform="scale(0.015625)"/>
       <path id="DejaVuSans-53" d="M 3425 4513 
L 3425 3897 
Q 3066 4069 2747 4153 
Q 2428 4238 2131 4238 
Q 1616 4238 1336 4038 
Q 1056 3838 1056 3469 
Q 1056 3159 1242 3001 
Q 1428 2844 1947 2747 
L 2328 2669 
Q 3034 2534 3370 2195 
Q 3706 1856 3706 1288 
Q 3706 609 3251 259 
Q 2797 -91 1919 -91 
Q 1588 -91 1214 -16 
Q 841 59 441 206 
L 441 856 
Q 825 641 1194 531 
Q 1563 422 1919 422 
Q 2459 422 2753 634 
Q 3047 847 3047 1241 
Q 3047 1584 2836 1778 
Q 2625 1972 2144 2069 
L 1759 2144 
Q 1053 2284 737 2584 
Q 422 2884 422 3419 
Q 422 4038 858 4394 
Q 1294 4750 2059 4750 
Q 2388 4750 2728 4690 
Q 3069 4631 3425 4513 
z
" transform="scale(0.015625)"/>
       <path id="DejaVuSans-45" d="M 628 4666 
L 3578 4666 
L 3578 4134 
L 1259 4134 
L 1259 2753 
L 3481 2753 
L 3481 2222 
L 1259 2222 
L 1259 531 
L 3634 531 
L 3634 0 
L 628 0 
L 628 4666 
z
" transform="scale(0.015625)"/>
      </defs>
      <use xlink:href="#DejaVuSans-43"/>
      <use xlink:href="#DejaVuSans-4c" x="69.824219"/>
      <use xlink:href="#DejaVuSans-4f" x="121.912109"/>
      <use xlink:href="#DejaVuSans-53" x="200.623047"/>
      <use xlink:href="#DejaVuSans-45" x="264.099609"/>
     </g>
    </g>
    <g id="line2d_40">
     <path d="M 913.144856 76.108437 
L 923.144856 76.108437 
L 933.144856 76.108437 
" style="fill: none; stroke: #ff7f0e; stroke-width: 1.5; stroke-linecap: square"/>
    </g>
    <g id="text_9">
     <!-- SMA5 -->
     <g transform="translate(941.144856 79.608437)scale(0.1 -0.1)">
      <defs>
       <path id="DejaVuSans-4d" d="M 628 4666 
L 1569 4666 
L 2759 1491 
L 3956 4666 
L 4897 4666 
L 4897 0 
L 4281 0 
L 4281 4097 
L 3078 897 
L 2444 897 
L 1241 4097 
L 1241 0 
L 628 0 
L 628 4666 
z
" transform="scale(0.015625)"/>
       <path id="DejaVuSans-41" d="M 2188 4044 
L 1331 1722 
L 3047 1722 
L 2188 4044 
z
M 1831 4666 
L 2547 4666 
L 4325 0 
L 3669 0 
L 3244 1197 
L 1141 1197 
L 716 0 
L 50 0 
L 1831 4666 
z
" transform="scale(0.015625)"/>
       <path id="DejaVuSans-35" d="M 691 4666 
L 3169 4666 
L 3169 4134 
L 1269 4134 
L 1269 2991 
Q 1406 3038 1543 3061 
Q 1681 3084 1819 3084 
Q 2600 3084 3056 2656 
Q 3513 2228 3513 1497 
Q 3513 744 3044 326 
Q 2575 -91 1722 -91 
Q 1428 -91 1123 -41 
Q 819 9 494 109 
L 494 744 
Q 775 591 1075 516 
Q 1375 441 1709 441 
Q 2250 441 2565 725 
Q 2881 1009 2881 1497 
Q 2881 1984 2565 2268 
Q 2250 2553 1709 2553 
Q 1456 2553 1204 2497 
Q 953 2441 691 2322 
L 691 4666 
z
" transform="scale(0.015625)"/>
      </defs>
      <use xlink:href="#DejaVuSans-53"/>
      <use xlink:href="#DejaVuSans-4d" x="63.476562"/>
      <use xlink:href="#DejaVuSans-41" x="149.755859"/>
      <use xlink:href="#DejaVuSans-35" x="218.164062"/>
     </g>
    </g>
   </g>
  </g>
  <g id="axes_2">
   <g id="patch_8">
    <path d="M 45.267188 584.521875 
L 982.876106 584.521875 
L 982.876106 331.135938 
L 45.267188 331.135938 
z
" style="fill: #ffffff"/>
   </g>
   <g id="matplotlib.axis_3">
    <g id="xtick_13">
     <g id="line2d_41">
      <path d="M 82.541751 584.521875 
L 82.541751 331.135938 
" clip-path="url(#pe4a38f1913)" style="fill: none; stroke-dasharray: 2.96,1.28; stroke-dashoffset: 0; stroke: #b0b0b0; stroke-width: 0.8"/>
     </g>
     <g id="line2d_42">
      <g>
       <use xlink:href="#m1a414b0947" x="82.541751" y="584.521875" style="stroke: #000000; stroke-width: 0.8"/>
      </g>
     </g>
     <g id="text_10">
      <!-- 2022-01 -->
      <g transform="translate(61.650345 599.120312)scale(0.1 -0.1)">
       <defs>
        <path id="DejaVuSans-2d" d="M 313 2009 
L 1997 2009 
L 1997 1497 
L 313 1497 
L 313 2009 
z
" transform="scale(0.015625)"/>
        <path id="DejaVuSans-31" d="M 794 531 
L 1825 531 
L 1825 4091 
L 703 3866 
L 703 4441 
L 1819 4666 
L 2450 4666 
L 2450 531 
L 3481 531 
L 3481 0 
L 794 0 
L 794 531 
z
" transform="scale(0.015625)"/>
       </defs>
       <use xlink:href="#DejaVuSans-32"/>
       <use xlink:href="#DejaVuSans-30" x="63.623047"/>
       <use xlink:href="#DejaVuSans-32" x="127.246094"/>
       <use xlink:href="#DejaVuSans-32" x="190.869141"/>
       <use xlink:href="#DejaVuSans-2d" x="254.492188"/>
       <use xlink:href="#DejaVuSans-30" x="290.576172"/>
       <use xlink:href="#DejaVuSans-31" x="354.199219"/>
      </g>
     </g>
    </g>
    <g id="xtick_14">
     <g id="line2d_43">
      <path d="M 165.374115 584.521875 
L 165.374115 331.135938 
" clip-path="url(#pe4a38f1913)" style="fill: none; stroke-dasharray: 2.96,1.28; stroke-dashoffset: 0; stroke: #b0b0b0; stroke-width: 0.8"/>
     </g>
     <g id="line2d_44">
      <g>
       <use xlink:href="#m1a414b0947" x="165.374115" y="584.521875" style="stroke: #000000; stroke-width: 0.8"/>
      </g>
     </g>
     <g id="text_11">
      <!-- 2022-02 -->
      <g transform="translate(144.482709 599.120312)scale(0.1 -0.1)">
       <use xlink:href="#DejaVuSans-32"/>
       <use xlink:href="#DejaVuSans-30" x="63.623047"/>
       <use xlink:href="#DejaVuSans-32" x="127.246094"/>
       <use xlink:href="#DejaVuSans-32" x="190.869141"/>
       <use xlink:href="#DejaVuSans-2d" x="254.492188"/>
       <use xlink:href="#DejaVuSans-30" x="290.576172"/>
       <use xlink:href="#DejaVuSans-32" x="354.199219"/>
      </g>
     </g>
    </g>
    <g id="xtick_15">
     <g id="line2d_45">
      <path d="M 240.190444 584.521875 
L 240.190444 331.135938 
" clip-path="url(#pe4a38f1913)" style="fill: none; stroke-dasharray: 2.96,1.28; stroke-dashoffset: 0; stroke: #b0b0b0; stroke-width: 0.8"/>
     </g>
     <g id="line2d_46">
      <g>
       <use xlink:href="#m1a414b0947" x="240.190444" y="584.521875" style="stroke: #000000; stroke-width: 0.8"/>
      </g>
     </g>
     <g id="text_12">
      <!-- 2022-03 -->
      <g transform="translate(219.299037 599.120312)scale(0.1 -0.1)">
       <use xlink:href="#DejaVuSans-32"/>
       <use xlink:href="#DejaVuSans-30" x="63.623047"/>
       <use xlink:href="#DejaVuSans-32" x="127.246094"/>
       <use xlink:href="#DejaVuSans-32" x="190.869141"/>
       <use xlink:href="#DejaVuSans-2d" x="254.492188"/>
       <use xlink:href="#DejaVuSans-30" x="290.576172"/>
       <use xlink:href="#DejaVuSans-33" x="354.199219"/>
      </g>
     </g>
    </g>
    <g id="xtick_16">
     <g id="line2d_47">
      <path d="M 323.022808 584.521875 
L 323.022808 331.135938 
" clip-path="url(#pe4a38f1913)" style="fill: none; stroke-dasharray: 2.96,1.28; stroke-dashoffset: 0; stroke: #b0b0b0; stroke-width: 0.8"/>
     </g>
     <g id="line2d_48">
      <g>
       <use xlink:href="#m1a414b0947" x="323.022808" y="584.521875" style="stroke: #000000; stroke-width: 0.8"/>
      </g>
     </g>
     <g id="text_13">
      <!-- 2022-04 -->
      <g transform="translate(302.131401 599.120312)scale(0.1 -0.1)">
       <use xlink:href="#DejaVuSans-32"/>
       <use xlink:href="#DejaVuSans-30" x="63.623047"/>
       <use xlink:href="#DejaVuSans-32" x="127.246094"/>
       <use xlink:href="#DejaVuSans-32" x="190.869141"/>
       <use xlink:href="#DejaVuSans-2d" x="254.492188"/>
       <use xlink:href="#DejaVuSans-30" x="290.576172"/>
       <use xlink:href="#DejaVuSans-34" x="354.199219"/>
      </g>
     </g>
    </g>
    <g id="xtick_17">
     <g id="line2d_49">
      <path d="M 403.18316 584.521875 
L 403.18316 331.135938 
" clip-path="url(#pe4a38f1913)" style="fill: none; stroke-dasharray: 2.96,1.28; stroke-dashoffset: 0; stroke: #b0b0b0; stroke-width: 0.8"/>
     </g>
     <g id="line2d_50">
      <g>
       <use xlink:href="#m1a414b0947" x="403.18316" y="584.521875" style="stroke: #000000; stroke-width: 0.8"/>
      </g>
     </g>
     <g id="text_14">
      <!-- 2022-05 -->
      <g transform="translate(382.291753 599.120312)scale(0.1 -0.1)">
       <use xlink:href="#DejaVuSans-32"/>
       <use xlink:href="#DejaVuSans-30" x="63.623047"/>
       <use xlink:href="#DejaVuSans-32" x="127.246094"/>
       <use xlink:href="#DejaVuSans-32" x="190.869141"/>
       <use xlink:href="#DejaVuSans-2d" x="254.492188"/>
       <use xlink:href="#DejaVuSans-30" x="290.576172"/>
       <use xlink:href="#DejaVuSans-35" x="354.199219"/>
      </g>
     </g>
    </g>
    <g id="xtick_18">
     <g id="line2d_51">
      <path d="M 486.015523 584.521875 
L 486.015523 331.135938 
" clip-path="url(#pe4a38f1913)" style="fill: none; stroke-dasharray: 2.96,1.28; stroke-dashoffset: 0; stroke: #b0b0b0; stroke-width: 0.8"/>
     </g>
     <g id="line2d_52">
      <g>
       <use xlink:href="#m1a414b0947" x="486.015523" y="584.521875" style="stroke: #000000; stroke-width: 0.8"/>
      </g>
     </g>
     <g id="text_15">
      <!-- 2022-06 -->
      <g transform="translate(465.124117 599.120312)scale(0.1 -0.1)">
       <use xlink:href="#DejaVuSans-32"/>
       <use xlink:href="#DejaVuSans-30" x="63.623047"/>
       <use xlink:href="#DejaVuSans-32" x="127.246094"/>
       <use xlink:href="#DejaVuSans-32" x="190.869141"/>
       <use xlink:href="#DejaVuSans-2d" x="254.492188"/>
       <use xlink:href="#DejaVuSans-30" x="290.576172"/>
       <use xlink:href="#DejaVuSans-36" x="354.199219"/>
      </g>
     </g>
    </g>
    <g id="xtick_19">
     <g id="line2d_53">
      <path d="M 566.175876 584.521875 
L 566.175876 331.135938 
" clip-path="url(#pe4a38f1913)" style="fill: none; stroke-dasharray: 2.96,1.28; stroke-dashoffset: 0; stroke: #b0b0b0; stroke-width: 0.8"/>
     </g>
     <g id="line2d_54">
      <g>
       <use xlink:href="#m1a414b0947" x="566.175876" y="584.521875" style="stroke: #000000; stroke-width: 0.8"/>
      </g>
     </g>
     <g id="text_16">
      <!-- 2022-07 -->
      <g transform="translate(545.284469 599.120312)scale(0.1 -0.1)">
       <defs>
        <path id="DejaVuSans-37" d="M 525 4666 
L 3525 4666 
L 3525 4397 
L 1831 0 
L 1172 0 
L 2766 4134 
L 525 4134 
L 525 4666 
z
" transform="scale(0.015625)"/>
       </defs>
       <use xlink:href="#DejaVuSans-32"/>
       <use xlink:href="#DejaVuSans-30" x="63.623047"/>
       <use xlink:href="#DejaVuSans-32" x="127.246094"/>
       <use xlink:href="#DejaVuSans-32" x="190.869141"/>
       <use xlink:href="#DejaVuSans-2d" x="254.492188"/>
       <use xlink:href="#DejaVuSans-30" x="290.576172"/>
       <use xlink:href="#DejaVuSans-37" x="354.199219"/>
      </g>
     </g>
    </g>
    <g id="xtick_20">
     <g id="line2d_55">
      <path d="M 649.008239 584.521875 
L 649.008239 331.135938 
" clip-path="url(#pe4a38f1913)" style="fill: none; stroke-dasharray: 2.96,1.28; stroke-dashoffset: 0; stroke: #b0b0b0; stroke-width: 0.8"/>
     </g>
     <g id="line2d_56">
      <g>
       <use xlink:href="#m1a414b0947" x="649.008239" y="584.521875" style="stroke: #000000; stroke-width: 0.8"/>
      </g>
     </g>
     <g id="text_17">
      <!-- 2022-08 -->
      <g transform="translate(628.116833 599.120312)scale(0.1 -0.1)">
       <use xlink:href="#DejaVuSans-32"/>
       <use xlink:href="#DejaVuSans-30" x="63.623047"/>
       <use xlink:href="#DejaVuSans-32" x="127.246094"/>
       <use xlink:href="#DejaVuSans-32" x="190.869141"/>
       <use xlink:href="#DejaVuSans-2d" x="254.492188"/>
       <use xlink:href="#DejaVuSans-30" x="290.576172"/>
       <use xlink:href="#DejaVuSans-38" x="354.199219"/>
      </g>
     </g>
    </g>
    <g id="xtick_21">
     <g id="line2d_57">
      <path d="M 731.840603 584.521875 
L 731.840603 331.135938 
" clip-path="url(#pe4a38f1913)" style="fill: none; stroke-dasharray: 2.96,1.28; stroke-dashoffset: 0; stroke: #b0b0b0; stroke-width: 0.8"/>
     </g>
     <g id="line2d_58">
      <g>
       <use xlink:href="#m1a414b0947" x="731.840603" y="584.521875" style="stroke: #000000; stroke-width: 0.8"/>
      </g>
     </g>
     <g id="text_18">
      <!-- 2022-09 -->
      <g transform="translate(710.949197 599.120312)scale(0.1 -0.1)">
       <defs>
        <path id="DejaVuSans-39" d="M 703 97 
L 703 672 
Q 941 559 1184 500 
Q 1428 441 1663 441 
Q 2288 441 2617 861 
Q 2947 1281 2994 2138 
Q 2813 1869 2534 1725 
Q 2256 1581 1919 1581 
Q 1219 1581 811 2004 
Q 403 2428 403 3163 
Q 403 3881 828 4315 
Q 1253 4750 1959 4750 
Q 2769 4750 3195 4129 
Q 3622 3509 3622 2328 
Q 3622 1225 3098 567 
Q 2575 -91 1691 -91 
Q 1453 -91 1209 -44 
Q 966 3 703 97 
z
M 1959 2075 
Q 2384 2075 2632 2365 
Q 2881 2656 2881 3163 
Q 2881 3666 2632 3958 
Q 2384 4250 1959 4250 
Q 1534 4250 1286 3958 
Q 1038 3666 1038 3163 
Q 1038 2656 1286 2365 
Q 1534 2075 1959 2075 
z
" transform="scale(0.015625)"/>
       </defs>
       <use xlink:href="#DejaVuSans-32"/>
       <use xlink:href="#DejaVuSans-30" x="63.623047"/>
       <use xlink:href="#DejaVuSans-32" x="127.246094"/>
       <use xlink:href="#DejaVuSans-32" x="190.869141"/>
       <use xlink:href="#DejaVuSans-2d" x="254.492188"/>
       <use xlink:href="#DejaVuSans-30" x="290.576172"/>
       <use xlink:href="#DejaVuSans-39" x="354.199219"/>
      </g>
     </g>
    </g>
    <g id="xtick_22">
     <g id="line2d_59">
      <path d="M 812.000955 584.521875 
L 812.000955 331.135938 
" clip-path="url(#pe4a38f1913)" style="fill: none; stroke-dasharray: 2.96,1.28; stroke-dashoffset: 0; stroke: #b0b0b0; stroke-width: 0.8"/>
     </g>
     <g id="line2d_60">
      <g>
       <use xlink:href="#m1a414b0947" x="812.000955" y="584.521875" style="stroke: #000000; stroke-width: 0.8"/>
      </g>
     </g>
     <g id="text_19">
      <!-- 2022-10 -->
      <g transform="translate(791.109549 599.120312)scale(0.1 -0.1)">
       <use xlink:href="#DejaVuSans-32"/>
       <use xlink:href="#DejaVuSans-30" x="63.623047"/>
       <use xlink:href="#DejaVuSans-32" x="127.246094"/>
       <use xlink:href="#DejaVuSans-32" x="190.869141"/>
       <use xlink:href="#DejaVuSans-2d" x="254.492188"/>
       <use xlink:href="#DejaVuSans-31" x="290.576172"/>
       <use xlink:href="#DejaVuSans-30" x="354.199219"/>
      </g>
     </g>
    </g>
    <g id="xtick_23">
     <g id="line2d_61">
      <path d="M 894.833319 584.521875 
L 894.833319 331.135938 
" clip-path="url(#pe4a38f1913)" style="fill: none; stroke-dasharray: 2.96,1.28; stroke-dashoffset: 0; stroke: #b0b0b0; stroke-width: 0.8"/>
     </g>
     <g id="line2d_62">
      <g>
       <use xlink:href="#m1a414b0947" x="894.833319" y="584.521875" style="stroke: #000000; stroke-width: 0.8"/>
      </g>
     </g>
     <g id="text_20">
      <!-- 2022-11 -->
      <g transform="translate(873.941913 599.120312)scale(0.1 -0.1)">
       <use xlink:href="#DejaVuSans-32"/>
       <use xlink:href="#DejaVuSans-30" x="63.623047"/>
       <use xlink:href="#DejaVuSans-32" x="127.246094"/>
       <use xlink:href="#DejaVuSans-32" x="190.869141"/>
       <use xlink:href="#DejaVuSans-2d" x="254.492188"/>
       <use xlink:href="#DejaVuSans-31" x="290.576172"/>
       <use xlink:href="#DejaVuSans-31" x="354.199219"/>
      </g>
     </g>
    </g>
    <g id="xtick_24">
     <g id="line2d_63">
      <path d="M 974.993671 584.521875 
L 974.993671 331.135938 
" clip-path="url(#pe4a38f1913)" style="fill: none; stroke-dasharray: 2.96,1.28; stroke-dashoffset: 0; stroke: #b0b0b0; stroke-width: 0.8"/>
     </g>
     <g id="line2d_64">
      <g>
       <use xlink:href="#m1a414b0947" x="974.993671" y="584.521875" style="stroke: #000000; stroke-width: 0.8"/>
      </g>
     </g>
     <g id="text_21">
      <!-- 2022-12 -->
      <g transform="translate(954.102265 599.120312)scale(0.1 -0.1)">
       <use xlink:href="#DejaVuSans-32"/>
       <use xlink:href="#DejaVuSans-30" x="63.623047"/>
       <use xlink:href="#DejaVuSans-32" x="127.246094"/>
       <use xlink:href="#DejaVuSans-32" x="190.869141"/>
       <use xlink:href="#DejaVuSans-2d" x="254.492188"/>
       <use xlink:href="#DejaVuSans-31" x="290.576172"/>
       <use xlink:href="#DejaVuSans-32" x="354.199219"/>
      </g>
     </g>
    </g>
   </g>
   <g id="matplotlib.axis_4">
    <g id="ytick_7">
     <g id="line2d_65">
      <path d="M 45.267188 558.386638 
L 982.876106 558.386638 
" clip-path="url(#pe4a38f1913)" style="fill: none; stroke-dasharray: 2.96,1.28; stroke-dashoffset: 0; stroke: #b0b0b0; stroke-width: 0.8"/>
     </g>
     <g id="line2d_66">
      <g>
       <use xlink:href="#mc085402dba" x="45.267188" y="558.386638" style="stroke: #000000; stroke-width: 0.8"/>
      </g>
     </g>
     <g id="text_22">
      <!-- −100 -->
      <g transform="translate(10.8 562.185856)scale(0.1 -0.1)">
       <defs>
        <path id="DejaVuSans-2212" d="M 678 2272 
L 4684 2272 
L 4684 1741 
L 678 1741 
L 678 2272 
z
" transform="scale(0.015625)"/>
       </defs>
       <use xlink:href="#DejaVuSans-2212"/>
       <use xlink:href="#DejaVuSans-31" x="83.789062"/>
       <use xlink:href="#DejaVuSans-30" x="147.412109"/>
       <use xlink:href="#DejaVuSans-30" x="211.035156"/>
      </g>
     </g>
    </g>
    <g id="ytick_8">
     <g id="line2d_67">
      <path d="M 45.267188 516.564159 
L 982.876106 516.564159 
" clip-path="url(#pe4a38f1913)" style="fill: none; stroke-dasharray: 2.96,1.28; stroke-dashoffset: 0; stroke: #b0b0b0; stroke-width: 0.8"/>
     </g>
     <g id="line2d_68">
      <g>
       <use xlink:href="#mc085402dba" x="45.267188" y="516.564159" style="stroke: #000000; stroke-width: 0.8"/>
      </g>
     </g>
     <g id="text_23">
      <!-- −50 -->
      <g transform="translate(17.1625 520.363377)scale(0.1 -0.1)">
       <use xlink:href="#DejaVuSans-2212"/>
       <use xlink:href="#DejaVuSans-35" x="83.789062"/>
       <use xlink:href="#DejaVuSans-30" x="147.412109"/>
      </g>
     </g>
    </g>
    <g id="ytick_9">
     <g id="line2d_69">
      <path d="M 45.267188 474.74168 
L 982.876106 474.74168 
" clip-path="url(#pe4a38f1913)" style="fill: none; stroke-dasharray: 2.96,1.28; stroke-dashoffset: 0; stroke: #b0b0b0; stroke-width: 0.8"/>
     </g>
     <g id="line2d_70">
      <g>
       <use xlink:href="#mc085402dba" x="45.267188" y="474.74168" style="stroke: #000000; stroke-width: 0.8"/>
      </g>
     </g>
     <g id="text_24">
      <!-- 0 -->
      <g transform="translate(31.904688 478.540899)scale(0.1 -0.1)">
       <use xlink:href="#DejaVuSans-30"/>
      </g>
     </g>
    </g>
    <g id="ytick_10">
     <g id="line2d_71">
      <path d="M 45.267188 432.919201 
L 982.876106 432.919201 
" clip-path="url(#pe4a38f1913)" style="fill: none; stroke-dasharray: 2.96,1.28; stroke-dashoffset: 0; stroke: #b0b0b0; stroke-width: 0.8"/>
     </g>
     <g id="line2d_72">
      <g>
       <use xlink:href="#mc085402dba" x="45.267188" y="432.919201" style="stroke: #000000; stroke-width: 0.8"/>
      </g>
     </g>
     <g id="text_25">
      <!-- 50 -->
      <g transform="translate(25.542188 436.71842)scale(0.1 -0.1)">
       <use xlink:href="#DejaVuSans-35"/>
       <use xlink:href="#DejaVuSans-30" x="63.623047"/>
      </g>
     </g>
    </g>
    <g id="ytick_11">
     <g id="line2d_73">
      <path d="M 45.267188 391.096722 
L 982.876106 391.096722 
" clip-path="url(#pe4a38f1913)" style="fill: none; stroke-dasharray: 2.96,1.28; stroke-dashoffset: 0; stroke: #b0b0b0; stroke-width: 0.8"/>
     </g>
     <g id="line2d_74">
      <g>
       <use xlink:href="#mc085402dba" x="45.267188" y="391.096722" style="stroke: #000000; stroke-width: 0.8"/>
      </g>
     </g>
     <g id="text_26">
      <!-- 100 -->
      <g transform="translate(19.179688 394.895941)scale(0.1 -0.1)">
       <use xlink:href="#DejaVuSans-31"/>
       <use xlink:href="#DejaVuSans-30" x="63.623047"/>
       <use xlink:href="#DejaVuSans-30" x="127.246094"/>
      </g>
     </g>
    </g>
    <g id="ytick_12">
     <g id="line2d_75">
      <path d="M 45.267188 349.274243 
L 982.876106 349.274243 
" clip-path="url(#pe4a38f1913)" style="fill: none; stroke-dasharray: 2.96,1.28; stroke-dashoffset: 0; stroke: #b0b0b0; stroke-width: 0.8"/>
     </g>
     <g id="line2d_76">
      <g>
       <use xlink:href="#mc085402dba" x="45.267188" y="349.274243" style="stroke: #000000; stroke-width: 0.8"/>
      </g>
     </g>
     <g id="text_27">
      <!-- 150 -->
      <g transform="translate(19.179688 353.073462)scale(0.1 -0.1)">
       <use xlink:href="#DejaVuSans-31"/>
       <use xlink:href="#DejaVuSans-35" x="63.623047"/>
       <use xlink:href="#DejaVuSans-30" x="127.246094"/>
      </g>
     </g>
    </g>
   </g>
   <g id="line2d_77">
    <path d="M 87.885775 474.74168 
L 90.557786 474.049196 
L 93.229798 472.108486 
L 95.90181 471.657272 
L 98.573822 469.42505 
L 106.589857 468.998606 
L 109.261869 469.382961 
L 111.93388 469.525948 
L 114.605892 473.337588 
L 117.277904 480.019245 
L 125.293939 484.13849 
L 127.965951 487.25811 
L 130.637962 493.814048 
L 133.309974 497.213131 
L 135.981986 501.055861 
L 143.998021 509.713388 
L 146.670033 516.298657 
L 152.014056 522.421798 
L 154.686068 526.874856 
L 162.702103 527.420664 
L 168.046127 522.05108 
L 170.718139 519.075673 
L 173.39015 514.30647 
L 181.406185 513.734197 
L 184.078197 510.385539 
L 189.422221 502.74068 
L 192.094232 500.719735 
L 200.110268 503.266286 
L 202.782279 497.513303 
L 208.126303 489.302772 
L 210.798315 486.331057 
L 218.81435 484.299166 
L 221.486362 484.140816 
L 224.158373 483.273861 
L 226.830385 493.164086 
L 229.502397 497.499393 
L 237.518432 497.08835 
L 242.862455 505.850114 
L 245.534467 522.450307 
L 248.206479 543.523689 
L 256.222514 561.155796 
L 258.894526 573.004332 
L 261.566538 571.317316 
L 264.238549 566.42839 
L 266.910561 560.299195 
L 274.926596 552.509211 
L 277.598608 543.926255 
L 280.27062 532.820122 
L 282.942631 517.252298 
L 293.630678 510.539382 
L 296.30269 504.517181 
L 298.974702 501.720974 
L 301.646714 498.65917 
L 304.318725 494.563052 
L 312.334761 492.415293 
L 315.006772 489.530218 
L 317.678784 484.526249 
L 320.350796 480.600431 
L 323.022808 475.194088 
L 331.038843 470.698598 
L 333.710854 465.711873 
L 336.382866 461.032966 
L 339.054878 457.457478 
L 341.72689 451.452156 
L 349.742925 450.253119 
L 352.414937 451.505905 
L 355.086948 455.941552 
L 368.447007 463.558917 
L 371.119019 471.671893 
L 373.791031 471.958215 
L 376.463042 467.208875 
L 379.135054 463.164736 
L 387.151089 462.377627 
L 389.823101 462.231395 
L 392.495113 460.748262 
L 395.167124 453.130755 
L 397.839136 448.108371 
L 405.855171 446.954809 
L 411.199195 452.972438 
L 413.871207 459.554045 
L 416.543218 468.90131 
L 424.559254 477.024104 
L 427.231265 477.957286 
L 429.903277 480.831161 
L 432.575289 483.926498 
L 435.2473 484.643737 
L 443.263336 489.366003 
L 445.935347 489.558945 
L 448.607359 486.200903 
L 451.279371 486.986598 
L 453.951383 483.258393 
L 461.967418 475.955951 
L 464.63943 476.045977 
L 467.311441 492.694074 
L 469.983453 505.392716 
L 472.655465 515.345892 
L 480.6715 522.070885 
L 483.343512 525.756485 
L 486.015523 528.539564 
L 488.687535 526.368214 
L 491.359547 525.522809 
L 499.375582 528.91447 
L 502.047594 535.807341 
L 504.719606 543.146788 
L 507.391617 549.344942 
L 510.063629 551.886512 
L 518.079664 556.200783 
L 520.751676 560.343747 
L 523.423688 560.896213 
L 526.095699 560.594059 
L 528.767711 564.532722 
L 536.783746 561.224608 
L 539.455758 556.469648 
L 542.12777 552.613479 
L 544.799782 542.576752 
L 547.471793 533.760028 
L 555.487829 522.173269 
L 558.15984 518.856474 
L 563.503864 516.424643 
L 566.175876 509.773037 
L 574.191911 503.018179 
L 576.863922 498.984972 
L 582.207946 479.409017 
L 584.879958 472.440363 
L 592.895993 463.453845 
L 595.568005 459.200668 
L 598.240016 452.842814 
L 600.912028 448.247936 
L 603.58404 442.347678 
L 611.600075 435.445216 
L 614.272087 430.401726 
L 616.944099 427.79963 
L 619.61611 422.31583 
L 622.288122 418.530114 
L 630.304157 413.6992 
L 632.976169 410.373069 
L 635.648181 403.326211 
L 638.320192 392.857381 
L 640.992204 381.494924 
L 649.008239 374.269224 
L 654.352263 356.042609 
L 657.024275 349.005337 
L 659.696286 344.03059 
L 667.712322 342.65348 
L 673.056345 346.202548 
L 675.728357 350.878367 
L 678.400368 354.441989 
L 689.088415 353.724013 
L 691.760427 353.025961 
L 694.432439 353.088784 
L 697.104451 358.047442 
L 705.120486 372.123359 
L 707.792498 383.863873 
L 713.136521 401.495144 
L 715.808533 411.887519 
L 723.824568 419.431496 
L 726.49658 422.746175 
L 731.840603 422.269141 
L 734.512615 423.527615 
L 742.52865 425.514267 
L 745.200662 429.603485 
L 747.872674 432.981386 
L 750.544685 432.780876 
L 753.216697 433.655786 
L 761.232732 435.453371 
L 763.904744 437.976717 
L 766.576756 439.255025 
L 769.248768 443.566838 
L 771.920779 452.161242 
L 779.936814 459.572445 
L 782.608826 460.417304 
L 785.280838 463.721314 
L 787.95285 461.10083 
L 790.624861 461.92225 
L 798.640897 459.856061 
L 801.312908 456.231645 
L 803.98492 446.930416 
L 806.656932 452.360959 
L 809.328944 459.696525 
L 817.344979 468.254203 
L 820.016991 472.707491 
L 825.361014 476.806899 
L 828.033026 479.010953 
L 836.049061 485.076311 
L 838.721073 488.326048 
L 841.393084 494.086959 
L 846.737108 507.677324 
L 854.753143 511.729531 
L 857.425155 512.597832 
L 860.097167 513.720818 
L 862.769178 518.950657 
L 865.44119 525.78048 
L 873.457225 528.598127 
L 876.129237 532.644092 
L 884.145272 540.669498 
L 892.161307 538.449231 
L 894.833319 532.533995 
L 897.505331 529.075895 
L 900.177343 525.120146 
L 902.849354 518.77445 
L 910.86539 518.492182 
L 916.209413 518.910118 
L 918.881425 521.493308 
L 921.553437 522.300459 
L 929.569472 522.537657 
L 932.241483 520.437282 
L 934.913495 518.020721 
L 937.585507 516.3982 
L 940.257519 513.057542 
L 940.257519 513.057542 
" clip-path="url(#pe4a38f1913)" style="fill: none; stroke: #1f77b4; stroke-width: 1.5; stroke-linecap: square"/>
   </g>
   <g id="line2d_78">
    <path d="M 87.885775 474.74168 
L 90.557786 474.356967 
L 93.229798 473.435458 
L 95.90181 472.833092 
L 98.573822 471.819276 
L 106.589857 471.054718 
L 109.261869 470.631641 
L 111.93388 470.365922 
L 114.605892 471.052391 
L 117.277904 473.061487 
L 125.293939 475.485072 
L 127.965951 478.013427 
L 135.981986 488.070187 
L 143.998021 492.524196 
L 146.670033 497.388626 
L 152.014056 502.487106 
L 154.686068 507.435977 
L 162.702103 511.479533 
L 165.374115 514.163598 
L 168.046127 515.752821 
L 170.718139 516.421338 
L 173.39015 515.996357 
L 181.406185 515.542209 
L 184.078197 514.507749 
L 186.750209 512.932086 
L 192.094232 508.852678 
L 200.110268 507.734015 
L 202.782279 505.687846 
L 205.454291 503.243996 
L 210.798315 497.627965 
L 218.81435 494.961123 
L 221.486362 492.796359 
L 224.158373 490.891365 
L 226.830385 491.346004 
L 229.502397 492.576886 
L 237.518432 493.479299 
L 242.862455 495.953725 
L 245.534467 501.253492 
L 248.206479 509.708107 
L 256.222514 519.998205 
L 258.894526 530.599892 
L 261.566538 538.743661 
L 264.238549 544.280761 
L 266.910561 547.484519 
L 274.926596 548.489475 
L 277.598608 547.576818 
L 280.27062 544.625445 
L 282.942631 539.150766 
L 293.630678 533.428447 
L 296.30269 527.64616 
L 298.974702 522.461099 
L 304.318725 513.073153 
L 312.334761 508.941571 
L 315.006772 505.059293 
L 323.022808 492.544592 
L 331.038843 488.17539 
L 341.72689 470.141377 
L 349.742925 466.163724 
L 352.414937 463.23216 
L 355.086948 461.774038 
L 368.447007 462.131014 
L 371.119019 464.03919 
L 373.791031 465.622995 
L 376.463042 465.940171 
L 379.135054 465.385084 
L 387.151089 464.783593 
L 389.823101 464.273153 
L 392.495113 463.568175 
L 395.167124 461.480691 
L 397.839136 458.806227 
L 405.855171 456.435943 
L 411.199195 455.743242 
L 413.871207 456.505403 
L 416.543218 458.984584 
L 424.559254 462.592488 
L 432.575289 471.744172 
L 435.2473 474.324085 
L 443.263336 477.332469 
L 445.935347 479.777764 
L 451.279371 482.247233 
L 453.951383 482.449465 
L 461.967418 481.150762 
L 464.63943 480.129805 
L 467.311441 482.642659 
L 469.983453 487.19267 
L 472.655465 492.823315 
L 480.6715 498.672829 
L 483.343512 504.08956 
L 486.015523 508.979561 
L 488.687535 512.457291 
L 491.359547 515.070395 
L 499.375582 517.83921 
L 502.047594 521.432836 
L 504.719606 525.775627 
L 507.391617 530.48949 
L 510.063629 534.768894 
L 518.079664 539.055272 
L 520.751676 543.312967 
L 523.423688 546.829616 
L 526.095699 549.582505 
L 528.767711 552.572548 
L 536.783746 554.30296 
L 539.455758 554.736298 
L 542.12777 554.311734 
L 544.799782 551.964738 
L 547.471793 548.323796 
L 555.487829 543.09369 
L 558.15984 538.246247 
L 560.831852 534.130993 
L 563.503864 530.589723 
L 566.175876 526.426386 
L 574.191911 521.744744 
L 576.863922 517.19279 
L 579.535934 511.598942 
L 584.879958 498.616838 
L 592.895993 491.58424 
L 598.240016 478.654583 
L 603.58404 466.528139 
L 611.600075 460.311554 
L 614.272087 454.329588 
L 622.288122 438.651657 
L 630.304157 433.661166 
L 632.976169 429.003546 
L 635.648181 423.868079 
L 638.320192 417.66594 
L 640.992204 410.431737 
L 649.008239 403.199234 
L 654.352263 387.652124 
L 657.024275 379.922766 
L 659.696286 372.744331 
L 673.056345 362.621438 
L 675.728357 360.272824 
L 678.400368 359.106657 
L 689.088415 358.030128 
L 691.760427 357.029295 
L 694.432439 356.241193 
L 697.104451 356.602443 
L 705.120486 359.706626 
L 707.792498 364.538075 
L 710.464509 370.153119 
L 713.136521 376.421524 
L 715.808533 383.514723 
L 723.824568 390.698078 
L 726.49658 397.107697 
L 731.840603 402.139986 
L 734.512615 406.417512 
L 742.52865 410.236863 
L 747.872674 417.884427 
L 750.544685 420.863717 
L 753.216697 423.422131 
L 761.232732 425.828379 
L 763.904744 428.258047 
L 766.576756 430.457442 
L 769.248768 433.079321 
L 771.920779 436.895705 
L 779.936814 441.431053 
L 785.280838 448.926906 
L 787.95285 451.36169 
L 790.624861 453.473802 
L 798.640897 454.750254 
L 801.312908 455.046532 
L 803.98492 453.423309 
L 806.656932 453.210839 
L 809.328944 454.507976 
L 817.344979 457.257222 
L 820.016991 460.347275 
L 825.361014 463.6392 
L 828.033026 466.713551 
L 836.049061 470.386103 
L 838.721073 473.974092 
L 841.393084 477.996665 
L 844.065096 482.596465 
L 846.737108 487.612637 
L 854.753143 492.436016 
L 857.425155 496.468379 
L 860.097167 499.918867 
L 862.769178 503.725225 
L 865.44119 508.136276 
L 873.457225 512.228646 
L 876.129237 516.311735 
L 881.47326 520.633371 
L 884.145272 524.640597 
L 894.833319 528.428658 
L 897.505331 528.558105 
L 900.177343 527.870513 
L 902.849354 526.051301 
L 910.86539 524.539477 
L 916.209413 523.413605 
L 918.881425 523.029546 
L 921.553437 522.883728 
L 929.569472 522.814514 
L 932.241483 522.339068 
L 934.913495 521.475398 
L 937.585507 520.459959 
L 940.257519 518.979475 
L 940.257519 518.979475 
" clip-path="url(#pe4a38f1913)" style="fill: none; stroke: #ff7f0e; stroke-width: 1.5; stroke-linecap: square"/>
   </g>
   <g id="patch_9">
    <path d="M 45.267188 584.521875 
L 45.267188 331.135938 
" style="fill: none; stroke: #000000; stroke-width: 0.8; stroke-linejoin: miter; stroke-linecap: square"/>
   </g>
   <g id="patch_10">
    <path d="M 982.876106 584.521875 
L 982.876106 331.135938 
" style="fill: none; stroke: #000000; stroke-width: 0.8; stroke-linejoin: miter; stroke-linecap: square"/>
   </g>
   <g id="patch_11">
    <path d="M 45.267188 584.521875 
L 982.876106 584.521875 
" style="fill: none; stroke: #000000; stroke-width: 0.8; stroke-linejoin: miter; stroke-linecap: square"/>
   </g>
   <g id="patch_12">
    <path d="M 45.267188 331.135938 
L 982.876106 331.135938 
" style="fill: none; stroke: #000000; stroke-width: 0.8; stroke-linejoin: miter; stroke-linecap: square"/>
   </g>
   <g id="text_28">
    <!-- MACD -->
    <g transform="translate(496.085709 325.135938)scale(0.12 -0.12)">
     <defs>
      <path id="DejaVuSans-44" d="M 1259 4147 
L 1259 519 
L 2022 519 
Q 2988 519 3436 956 
Q 3884 1394 3884 2338 
Q 3884 3275 3436 3711 
Q 2988 4147 2022 4147 
L 1259 4147 
z
M 628 4666 
L 1925 4666 
Q 3281 4666 3915 4102 
Q 4550 3538 4550 2338 
Q 4550 1131 3912 565 
Q 3275 0 1925 0 
L 628 0 
L 628 4666 
z
" transform="scale(0.015625)"/>
     </defs>
     <use xlink:href="#DejaVuSans-4d"/>
     <use xlink:href="#DejaVuSans-41" x="86.279297"/>
     <use xlink:href="#DejaVuSans-43" x="152.9375"/>
     <use xlink:href="#DejaVuSans-44" x="222.761719"/>
    </g>
   </g>
   <g id="legend_2">
    <g id="patch_13">
     <path d="M 913.899543 368.492188 
L 975.876106 368.492188 
Q 977.876106 368.492188 977.876106 366.492188 
L 977.876106 338.135938 
Q 977.876106 336.135938 975.876106 336.135938 
L 913.899543 336.135938 
Q 911.899543 336.135938 911.899543 338.135938 
L 911.899543 366.492188 
Q 911.899543 368.492188 913.899543 368.492188 
z
" style="fill: #ffffff; opacity: 0.8; stroke: #cccccc; stroke-linejoin: miter"/>
    </g>
    <g id="line2d_79">
     <path d="M 915.899543 344.234375 
L 925.899543 344.234375 
L 935.899543 344.234375 
" style="fill: none; stroke: #1f77b4; stroke-width: 1.5; stroke-linecap: square"/>
    </g>
    <g id="text_29">
     <!-- MACD -->
     <g transform="translate(943.899543 347.734375)scale(0.1 -0.1)">
      <use xlink:href="#DejaVuSans-4d"/>
      <use xlink:href="#DejaVuSans-41" x="86.279297"/>
      <use xlink:href="#DejaVuSans-43" x="152.9375"/>
      <use xlink:href="#DejaVuSans-44" x="222.761719"/>
     </g>
    </g>
    <g id="line2d_80">
     <path d="M 915.899543 358.9125 
L 925.899543 358.9125 
L 935.899543 358.9125 
" style="fill: none; stroke: #ff7f0e; stroke-width: 1.5; stroke-linecap: square"/>
    </g>
    <g id="text_30">
     <!-- SIG -->
     <g transform="translate(943.899543 362.4125)scale(0.1 -0.1)">
      <defs>
       <path id="DejaVuSans-49" d="M 628 4666 
L 1259 4666 
L 1259 0 
L 628 0 
L 628 4666 
z
" transform="scale(0.015625)"/>
       <path id="DejaVuSans-47" d="M 3809 666 
L 3809 1919 
L 2778 1919 
L 2778 2438 
L 4434 2438 
L 4434 434 
Q 4069 175 3628 42 
Q 3188 -91 2688 -91 
Q 1594 -91 976 548 
Q 359 1188 359 2328 
Q 359 3472 976 4111 
Q 1594 4750 2688 4750 
Q 3144 4750 3555 4637 
Q 3966 4525 4313 4306 
L 4313 3634 
Q 3963 3931 3569 4081 
Q 3175 4231 2741 4231 
Q 1884 4231 1454 3753 
Q 1025 3275 1025 2328 
Q 1025 1384 1454 906 
Q 1884 428 2741 428 
Q 3075 428 3337 486 
Q 3600 544 3809 666 
z
" transform="scale(0.015625)"/>
      </defs>
      <use xlink:href="#DejaVuSans-53"/>
      <use xlink:href="#DejaVuSans-49" x="63.476562"/>
      <use xlink:href="#DejaVuSans-47" x="92.96875"/>
     </g>
    </g>
   </g>
  </g>
  <g id="text_31">
   <!-- Asian Paints Limited -->
   <g transform="translate(443.46375 21.358125)scale(0.12 -0.12)">
    <defs>
     <path id="DejaVuSans-61" d="M 2194 1759 
Q 1497 1759 1228 1600 
Q 959 1441 959 1056 
Q 959 750 1161 570 
Q 1363 391 1709 391 
Q 2188 391 2477 730 
Q 2766 1069 2766 1631 
L 2766 1759 
L 2194 1759 
z
M 3341 1997 
L 3341 0 
L 2766 0 
L 2766 531 
Q 2569 213 2275 61 
Q 1981 -91 1556 -91 
Q 1019 -91 701 211 
Q 384 513 384 1019 
Q 384 1609 779 1909 
Q 1175 2209 1959 2209 
L 2766 2209 
L 2766 2266 
Q 2766 2663 2505 2880 
Q 2244 3097 1772 3097 
Q 1472 3097 1187 3025 
Q 903 2953 641 2809 
L 641 3341 
Q 956 3463 1253 3523 
Q 1550 3584 1831 3584 
Q 2591 3584 2966 3190 
Q 3341 2797 3341 1997 
z
" transform="scale(0.015625)"/>
     <path id="DejaVuSans-74" d="M 1172 4494 
L 1172 3500 
L 2356 3500 
L 2356 3053 
L 1172 3053 
L 1172 1153 
Q 1172 725 1289 603 
Q 1406 481 1766 481 
L 2356 481 
L 2356 0 
L 1766 0 
Q 1100 0 847 248 
Q 594 497 594 1153 
L 594 3053 
L 172 3053 
L 172 3500 
L 594 3500 
L 594 4494 
L 1172 4494 
z
" transform="scale(0.015625)"/>
     <path id="DejaVuSans-6d" d="M 3328 2828 
Q 3544 3216 3844 3400 
Q 4144 3584 4550 3584 
Q 5097 3584 5394 3201 
Q 5691 2819 5691 2113 
L 5691 0 
L 5113 0 
L 5113 2094 
Q 5113 2597 4934 2840 
Q 4756 3084 4391 3084 
Q 3944 3084 3684 2787 
Q 3425 2491 3425 1978 
L 3425 0 
L 2847 0 
L 2847 2094 
Q 2847 2600 2669 2842 
Q 2491 3084 2119 3084 
Q 1678 3084 1418 2786 
Q 1159 2488 1159 1978 
L 1159 0 
L 581 0 
L 581 3500 
L 1159 3500 
L 1159 2956 
Q 1356 3278 1631 3431 
Q 1906 3584 2284 3584 
Q 2666 3584 2933 3390 
Q 3200 3197 3328 2828 
z
" transform="scale(0.015625)"/>
     <path id="DejaVuSans-64" d="M 2906 2969 
L 2906 4863 
L 3481 4863 
L 3481 0 
L 2906 0 
L 2906 525 
Q 2725 213 2448 61 
Q 2172 -91 1784 -91 
Q 1150 -91 751 415 
Q 353 922 353 1747 
Q 353 2572 751 3078 
Q 1150 3584 1784 3584 
Q 2172 3584 2448 3432 
Q 2725 3281 2906 2969 
z
M 947 1747 
Q 947 1113 1208 752 
Q 1469 391 1925 391 
Q 2381 391 2643 752 
Q 2906 1113 2906 1747 
Q 2906 2381 2643 2742 
Q 2381 3103 1925 3103 
Q 1469 3103 1208 2742 
Q 947 2381 947 1747 
z
" transform="scale(0.015625)"/>
    </defs>
    <use xlink:href="#DejaVuSans-41"/>
    <use xlink:href="#DejaVuSans-73" x="68.408203"/>
    <use xlink:href="#DejaVuSans-69" x="120.507812"/>
    <use xlink:href="#DejaVuSans-61" x="148.291016"/>
    <use xlink:href="#DejaVuSans-6e" x="209.570312"/>
    <use xlink:href="#DejaVuSans-20" x="272.949219"/>
    <use xlink:href="#DejaVuSans-50" x="304.736328"/>
    <use xlink:href="#DejaVuSans-61" x="360.539062"/>
    <use xlink:href="#DejaVuSans-69" x="421.818359"/>
    <use xlink:href="#DejaVuSans-6e" x="449.601562"/>
    <use xlink:href="#DejaVuSans-74" x="512.980469"/>
    <use xlink:href="#DejaVuSans-73" x="552.189453"/>
    <use xlink:href="#DejaVuSans-20" x="604.289062"/>
    <use xlink:href="#DejaVuSans-4c" x="636.076172"/>
    <use xlink:href="#DejaVuSans-69" x="691.789062"/>
    <use xlink:href="#DejaVuSans-6d" x="719.572266"/>
    <use xlink:href="#DejaVuSans-69" x="816.984375"/>
    <use xlink:href="#DejaVuSans-74" x="844.767578"/>
    <use xlink:href="#DejaVuSans-65" x="883.976562"/>
    <use xlink:href="#DejaVuSans-64" x="945.5"/>
   </g>
  </g>
 </g>
 <defs>
  <clipPath id="p1133ebb3ce">
   <rect x="45.267188" y="48.331875" width="937.608918" height="253.385938"/>
  </clipPath>
  <clipPath id="pe4a38f1913">
   <rect x="45.267188" y="331.135938" width="937.608918" height="253.385937"/>
  </clipPath>
 </defs>
</svg>
