<?xml version="1.0" encoding="utf-8" standalone="no"?>
<!DOCTYPE svg PUBLIC "-//W3C//DTD SVG 1.1//EN"
  "http://www.w3.org/Graphics/SVG/1.1/DTD/svg11.dtd">
<svg xmlns:xlink="http://www.w3.org/1999/xlink" width="1008pt" height="612pt" viewBox="0 0 1008 612" xmlns="http://www.w3.org/2000/svg" version="1.1">
 <metadata>
  <rdf:RDF xmlns:dc="http://purl.org/dc/elements/1.1/" xmlns:cc="http://creativecommons.org/ns#" xmlns:rdf="http://www.w3.org/1999/02/22-rdf-syntax-ns#">
   <cc:Work>
    <dc:type rdf:resource="http://purl.org/dc/dcmitype/StillImage"/>
    <dc:date>2022-11-20T19:46:53.328637</dc:date>
    <dc:format>image/svg+xml</dc:format>
    <dc:creator>
     <cc:Agent>
      <dc:title>Matplotlib v3.5.2, https://matplotlib.org/</dc:title>
     </cc:Agent>
    </dc:creator>
   </cc:Work>
  </rdf:RDF>
 </metadata>
 <defs>
  <style type="text/css">*{stroke-linejoin: round; stroke-linecap: butt}</style>
 </defs>
 <g id="figure_1">
  <g id="patch_1">
   <path d="M 0 612 
L 1008 612 
L 1008 0 
L 0 0 
z
" style="fill: #ffffff"/>
  </g>
  <g id="axes_1">
   <g id="patch_2">
    <path d="M 45.267188 301.717812 
L 982.876106 301.717812 
L 982.876106 48.331875 
L 45.267188 48.331875 
z
" style="fill: #ffffff"/>
   </g>
   <g id="matplotlib.axis_1">
    <g id="xtick_1">
     <g id="line2d_1">
      <path d="M 82.541751 301.717812 
L 82.541751 48.331875 
" clip-path="url(#pa6fdc06c8a)" style="fill: none; stroke-dasharray: 2.96,1.28; stroke-dashoffset: 0; stroke: #b0b0b0; stroke-width: 0.8"/>
     </g>
     <g id="line2d_2">
      <defs>
       <path id="m07f62dc31b" d="M 0 0 
L 0 3.5 
" style="stroke: #000000; stroke-width: 0.8"/>
      </defs>
      <g>
       <use xlink:href="#m07f62dc31b" x="82.541751" y="301.717812" style="stroke: #000000; stroke-width: 0.8"/>
      </g>
     </g>
    </g>
    <g id="xtick_2">
     <g id="line2d_3">
      <path d="M 165.374115 301.717812 
L 165.374115 48.331875 
" clip-path="url(#pa6fdc06c8a)" style="fill: none; stroke-dasharray: 2.96,1.28; stroke-dashoffset: 0; stroke: #b0b0b0; stroke-width: 0.8"/>
     </g>
     <g id="line2d_4">
      <g>
       <use xlink:href="#m07f62dc31b" x="165.374115" y="301.717812" style="stroke: #000000; stroke-width: 0.8"/>
      </g>
     </g>
    </g>
    <g id="xtick_3">
     <g id="line2d_5">
      <path d="M 240.190444 301.717812 
L 240.190444 48.331875 
" clip-path="url(#pa6fdc06c8a)" style="fill: none; stroke-dasharray: 2.96,1.28; stroke-dashoffset: 0; stroke: #b0b0b0; stroke-width: 0.8"/>
     </g>
     <g id="line2d_6">
      <g>
       <use xlink:href="#m07f62dc31b" x="240.190444" y="301.717812" style="stroke: #000000; stroke-width: 0.8"/>
      </g>
     </g>
    </g>
    <g id="xtick_4">
     <g id="line2d_7">
      <path d="M 323.022808 301.717812 
L 323.022808 48.331875 
" clip-path="url(#pa6fdc06c8a)" style="fill: none; stroke-dasharray: 2.96,1.28; stroke-dashoffset: 0; stroke: #b0b0b0; stroke-width: 0.8"/>
     </g>
     <g id="line2d_8">
      <g>
       <use xlink:href="#m07f62dc31b" x="323.022808" y="301.717812" style="stroke: #000000; stroke-width: 0.8"/>
      </g>
     </g>
    </g>
    <g id="xtick_5">
     <g id="line2d_9">
      <path d="M 403.18316 301.717812 
L 403.18316 48.331875 
" clip-path="url(#pa6fdc06c8a)" style="fill: none; stroke-dasharray: 2.96,1.28; stroke-dashoffset: 0; stroke: #b0b0b0; stroke-width: 0.8"/>
     </g>
     <g id="line2d_10">
      <g>
       <use xlink:href="#m07f62dc31b" x="403.18316" y="301.717812" style="stroke: #000000; stroke-width: 0.8"/>
      </g>
     </g>
    </g>
    <g id="xtick_6">
     <g id="line2d_11">
      <path d="M 486.015523 301.717812 
L 486.015523 48.331875 
" clip-path="url(#pa6fdc06c8a)" style="fill: none; stroke-dasharray: 2.96,1.28; stroke-dashoffset: 0; stroke: #b0b0b0; stroke-width: 0.8"/>
     </g>
     <g id="line2d_12">
      <g>
       <use xlink:href="#m07f62dc31b" x="486.015523" y="301.717812" style="stroke: #000000; stroke-width: 0.8"/>
      </g>
     </g>
    </g>
    <g id="xtick_7">
     <g id="line2d_13">
      <path d="M 566.175876 301.717812 
L 566.175876 48.331875 
" clip-path="url(#pa6fdc06c8a)" style="fill: none; stroke-dasharray: 2.96,1.28; stroke-dashoffset: 0; stroke: #b0b0b0; stroke-width: 0.8"/>
     </g>
     <g id="line2d_14">
      <g>
       <use xlink:href="#m07f62dc31b" x="566.175876" y="301.717812" style="stroke: #000000; stroke-width: 0.8"/>
      </g>
     </g>
    </g>
    <g id="xtick_8">
     <g id="line2d_15">
      <path d="M 649.008239 301.717812 
L 649.008239 48.331875 
" clip-path="url(#pa6fdc06c8a)" style="fill: none; stroke-dasharray: 2.96,1.28; stroke-dashoffset: 0; stroke: #b0b0b0; stroke-width: 0.8"/>
     </g>
     <g id="line2d_16">
      <g>
       <use xlink:href="#m07f62dc31b" x="649.008239" y="301.717812" style="stroke: #000000; stroke-width: 0.8"/>
      </g>
     </g>
    </g>
    <g id="xtick_9">
     <g id="line2d_17">
      <path d="M 731.840603 301.717812 
L 731.840603 48.331875 
" clip-path="url(#pa6fdc06c8a)" style="fill: none; stroke-dasharray: 2.96,1.28; stroke-dashoffset: 0; stroke: #b0b0b0; stroke-width: 0.8"/>
     </g>
     <g id="line2d_18">
      <g>
       <use xlink:href="#m07f62dc31b" x="731.840603" y="301.717812" style="stroke: #000000; stroke-width: 0.8"/>
      </g>
     </g>
    </g>
    <g id="xtick_10">
     <g id="line2d_19">
      <path d="M 812.000955 301.717812 
L 812.000955 48.331875 
" clip-path="url(#pa6fdc06c8a)" style="fill: none; stroke-dasharray: 2.96,1.28; stroke-dashoffset: 0; stroke: #b0b0b0; stroke-width: 0.8"/>
     </g>
     <g id="line2d_20">
      <g>
       <use xlink:href="#m07f62dc31b" x="812.000955" y="301.717812" style="stroke: #000000; stroke-width: 0.8"/>
      </g>
     </g>
    </g>
    <g id="xtick_11">
     <g id="line2d_21">
      <path d="M 894.833319 301.717812 
L 894.833319 48.331875 
" clip-path="url(#pa6fdc06c8a)" style="fill: none; stroke-dasharray: 2.96,1.28; stroke-dashoffset: 0; stroke: #b0b0b0; stroke-width: 0.8"/>
     </g>
     <g id="line2d_22">
      <g>
       <use xlink:href="#m07f62dc31b" x="894.833319" y="301.717812" style="stroke: #000000; stroke-width: 0.8"/>
      </g>
     </g>
    </g>
    <g id="xtick_12">
     <g id="line2d_23">
      <path d="M 974.993671 301.717812 
L 974.993671 48.331875 
" clip-path="url(#pa6fdc06c8a)" style="fill: none; stroke-dasharray: 2.96,1.28; stroke-dashoffset: 0; stroke: #b0b0b0; stroke-width: 0.8"/>
     </g>
     <g id="line2d_24">
      <g>
       <use xlink:href="#m07f62dc31b" x="974.993671" y="301.717812" style="stroke: #000000; stroke-width: 0.8"/>
      </g>
     </g>
    </g>
   </g>
   <g id="matplotlib.axis_2">
    <g id="ytick_1">
     <g id="line2d_25">
      <path d="M 45.267188 264.112015 
L 982.876106 264.112015 
" clip-path="url(#pa6fdc06c8a)" style="fill: none; stroke-dasharray: 2.96,1.28; stroke-dashoffset: 0; stroke: #b0b0b0; stroke-width: 0.8"/>
     </g>
     <g id="line2d_26">
      <defs>
       <path id="m85dfeda8d2" d="M 0 0 
L -3.5 0 
" style="stroke: #000000; stroke-width: 0.8"/>
      </defs>
      <g>
       <use xlink:href="#m85dfeda8d2" x="45.267188" y="264.112015" style="stroke: #000000; stroke-width: 0.8"/>
      </g>
     </g>
     <g id="text_1">
      <!-- 2000 -->
      <g transform="translate(12.817188 267.911233)scale(0.1 -0.1)">
       <defs>
        <path id="DejaVuSans-32" d="M 1228 531 
L 3431 531 
L 3431 0 
L 469 0 
L 469 531 
Q 828 903 1448 1529 
Q 2069 2156 2228 2338 
Q 2531 2678 2651 2914 
Q 2772 3150 2772 3378 
Q 2772 3750 2511 3984 
Q 2250 4219 1831 4219 
Q 1534 4219 1204 4116 
Q 875 4013 500 3803 
L 500 4441 
Q 881 4594 1212 4672 
Q 1544 4750 1819 4750 
Q 2544 4750 2975 4387 
Q 3406 4025 3406 3419 
Q 3406 3131 3298 2873 
Q 3191 2616 2906 2266 
Q 2828 2175 2409 1742 
Q 1991 1309 1228 531 
z
" transform="scale(0.015625)"/>
        <path id="DejaVuSans-30" d="M 2034 4250 
Q 1547 4250 1301 3770 
Q 1056 3291 1056 2328 
Q 1056 1369 1301 889 
Q 1547 409 2034 409 
Q 2525 409 2770 889 
Q 3016 1369 3016 2328 
Q 3016 3291 2770 3770 
Q 2525 4250 2034 4250 
z
M 2034 4750 
Q 2819 4750 3233 4129 
Q 3647 3509 3647 2328 
Q 3647 1150 3233 529 
Q 2819 -91 2034 -91 
Q 1250 -91 836 529 
Q 422 1150 422 2328 
Q 422 3509 836 4129 
Q 1250 4750 2034 4750 
z
" transform="scale(0.015625)"/>
       </defs>
       <use xlink:href="#DejaVuSans-32"/>
       <use xlink:href="#DejaVuSans-30" x="63.623047"/>
       <use xlink:href="#DejaVuSans-30" x="127.246094"/>
       <use xlink:href="#DejaVuSans-30" x="190.869141"/>
      </g>
     </g>
    </g>
    <g id="ytick_2">
     <g id="line2d_27">
      <path d="M 45.267188 215.602801 
L 982.876106 215.602801 
" clip-path="url(#pa6fdc06c8a)" style="fill: none; stroke-dasharray: 2.96,1.28; stroke-dashoffset: 0; stroke: #b0b0b0; stroke-width: 0.8"/>
     </g>
     <g id="line2d_28">
      <g>
       <use xlink:href="#m85dfeda8d2" x="45.267188" y="215.602801" style="stroke: #000000; stroke-width: 0.8"/>
      </g>
     </g>
     <g id="text_2">
      <!-- 2500 -->
      <g transform="translate(12.817188 219.40202)scale(0.1 -0.1)">
       <defs>
        <path id="DejaVuSans-35" d="M 691 4666 
L 3169 4666 
L 3169 4134 
L 1269 4134 
L 1269 2991 
Q 1406 3038 1543 3061 
Q 1681 3084 1819 3084 
Q 2600 3084 3056 2656 
Q 3513 2228 3513 1497 
Q 3513 744 3044 326 
Q 2575 -91 1722 -91 
Q 1428 -91 1123 -41 
Q 819 9 494 109 
L 494 744 
Q 775 591 1075 516 
Q 1375 441 1709 441 
Q 2250 441 2565 725 
Q 2881 1009 2881 1497 
Q 2881 1984 2565 2268 
Q 2250 2553 1709 2553 
Q 1456 2553 1204 2497 
Q 953 2441 691 2322 
L 691 4666 
z
" transform="scale(0.015625)"/>
       </defs>
       <use xlink:href="#DejaVuSans-32"/>
       <use xlink:href="#DejaVuSans-35" x="63.623047"/>
       <use xlink:href="#DejaVuSans-30" x="127.246094"/>
       <use xlink:href="#DejaVuSans-30" x="190.869141"/>
      </g>
     </g>
    </g>
    <g id="ytick_3">
     <g id="line2d_29">
      <path d="M 45.267188 167.093587 
L 982.876106 167.093587 
" clip-path="url(#pa6fdc06c8a)" style="fill: none; stroke-dasharray: 2.96,1.28; stroke-dashoffset: 0; stroke: #b0b0b0; stroke-width: 0.8"/>
     </g>
     <g id="line2d_30">
      <g>
       <use xlink:href="#m85dfeda8d2" x="45.267188" y="167.093587" style="stroke: #000000; stroke-width: 0.8"/>
      </g>
     </g>
     <g id="text_3">
      <!-- 3000 -->
      <g transform="translate(12.817188 170.892806)scale(0.1 -0.1)">
       <defs>
        <path id="DejaVuSans-33" d="M 2597 2516 
Q 3050 2419 3304 2112 
Q 3559 1806 3559 1356 
Q 3559 666 3084 287 
Q 2609 -91 1734 -91 
Q 1441 -91 1130 -33 
Q 819 25 488 141 
L 488 750 
Q 750 597 1062 519 
Q 1375 441 1716 441 
Q 2309 441 2620 675 
Q 2931 909 2931 1356 
Q 2931 1769 2642 2001 
Q 2353 2234 1838 2234 
L 1294 2234 
L 1294 2753 
L 1863 2753 
Q 2328 2753 2575 2939 
Q 2822 3125 2822 3475 
Q 2822 3834 2567 4026 
Q 2313 4219 1838 4219 
Q 1578 4219 1281 4162 
Q 984 4106 628 3988 
L 628 4550 
Q 988 4650 1302 4700 
Q 1616 4750 1894 4750 
Q 2613 4750 3031 4423 
Q 3450 4097 3450 3541 
Q 3450 3153 3228 2886 
Q 3006 2619 2597 2516 
z
" transform="scale(0.015625)"/>
       </defs>
       <use xlink:href="#DejaVuSans-33"/>
       <use xlink:href="#DejaVuSans-30" x="63.623047"/>
       <use xlink:href="#DejaVuSans-30" x="127.246094"/>
       <use xlink:href="#DejaVuSans-30" x="190.869141"/>
      </g>
     </g>
    </g>
    <g id="ytick_4">
     <g id="line2d_31">
      <path d="M 45.267188 118.584374 
L 982.876106 118.584374 
" clip-path="url(#pa6fdc06c8a)" style="fill: none; stroke-dasharray: 2.96,1.28; stroke-dashoffset: 0; stroke: #b0b0b0; stroke-width: 0.8"/>
     </g>
     <g id="line2d_32">
      <g>
       <use xlink:href="#m85dfeda8d2" x="45.267188" y="118.584374" style="stroke: #000000; stroke-width: 0.8"/>
      </g>
     </g>
     <g id="text_4">
      <!-- 3500 -->
      <g transform="translate(12.817188 122.383592)scale(0.1 -0.1)">
       <use xlink:href="#DejaVuSans-33"/>
       <use xlink:href="#DejaVuSans-35" x="63.623047"/>
       <use xlink:href="#DejaVuSans-30" x="127.246094"/>
       <use xlink:href="#DejaVuSans-30" x="190.869141"/>
      </g>
     </g>
    </g>
    <g id="ytick_5">
     <g id="line2d_33">
      <path d="M 45.267188 70.07516 
L 982.876106 70.07516 
" clip-path="url(#pa6fdc06c8a)" style="fill: none; stroke-dasharray: 2.96,1.28; stroke-dashoffset: 0; stroke: #b0b0b0; stroke-width: 0.8"/>
     </g>
     <g id="line2d_34">
      <g>
       <use xlink:href="#m85dfeda8d2" x="45.267188" y="70.07516" style="stroke: #000000; stroke-width: 0.8"/>
      </g>
     </g>
     <g id="text_5">
      <!-- 4000 -->
      <g transform="translate(12.817188 73.874379)scale(0.1 -0.1)">
       <defs>
        <path id="DejaVuSans-34" d="M 2419 4116 
L 825 1625 
L 2419 1625 
L 2419 4116 
z
M 2253 4666 
L 3047 4666 
L 3047 1625 
L 3713 1625 
L 3713 1100 
L 3047 1100 
L 3047 0 
L 2419 0 
L 2419 1100 
L 313 1100 
L 313 1709 
L 2253 4666 
z
" transform="scale(0.015625)"/>
       </defs>
       <use xlink:href="#DejaVuSans-34"/>
       <use xlink:href="#DejaVuSans-30" x="63.623047"/>
       <use xlink:href="#DejaVuSans-30" x="127.246094"/>
       <use xlink:href="#DejaVuSans-30" x="190.869141"/>
      </g>
     </g>
    </g>
   </g>
   <g id="line2d_35">
    <path d="M 87.885775 290.20027 
L 90.557786 287.88638 
L 93.229798 287.294568 
L 95.90181 287.391586 
L 98.573822 285.844142 
L 106.589857 281.604437 
L 109.261869 276.971807 
L 111.93388 271.073087 
L 114.605892 262.200752 
L 117.277904 262.113435 
L 125.293939 263.850065 
L 127.965951 261.516772 
L 130.637962 259.915968 
L 133.309974 260.255532 
L 135.981986 257.631184 
L 143.998021 260.629053 
L 146.670033 264.844504 
L 152.014056 263.209743 
L 154.686068 265.392658 
L 162.702103 266.935251 
L 165.374115 265.382956 
L 168.046127 262.55972 
L 170.718139 263.5105 
L 173.39015 260.900705 
L 181.406185 261.34699 
L 184.078197 267.187499 
L 186.750209 268.45844 
L 189.422221 260.580544 
L 192.094232 262.554869 
L 200.110268 272.334326 
L 202.782279 271.199211 
L 205.454291 270.655908 
L 208.126303 262.089181 
L 210.798315 268.177087 
L 218.81435 274.211633 
L 221.486362 267.109884 
L 224.158373 258.276356 
L 226.830385 268.254702 
L 229.502397 260.924959 
L 237.518432 251.072738 
L 242.862455 240.725723 
L 245.534467 229.854808 
L 248.206479 232.755659 
L 256.222514 243.995244 
L 258.894526 243.059016 
L 261.566538 248.137931 
L 264.238549 237.650239 
L 266.910561 234.303103 
L 274.926596 238.081971 
L 277.598608 243.005656 
L 282.942631 226.294232 
L 293.630678 236.068838 
L 296.30269 231.314935 
L 298.974702 224.65462 
L 301.646714 223.907578 
L 304.318725 220.574995 
L 312.334761 221.520925 
L 315.006772 219.33316 
L 317.678784 227.49726 
L 320.350796 228.394681 
L 323.022808 223.223599 
L 331.038843 220.114158 
L 333.710854 221.050386 
L 336.382866 217.150245 
L 339.054878 220.487679 
L 341.72689 211.697809 
L 349.742925 190.717574 
L 352.414937 198.086124 
L 355.086948 197.096536 
L 368.447007 193.453494 
L 371.119019 206.090144 
L 373.791031 197.406995 
L 376.463042 196.237923 
L 379.135054 200.220529 
L 387.151089 204.358365 
L 389.823101 185.279692 
L 392.495113 195.015491 
L 395.167124 186.822285 
L 397.839136 187.515966 
L 405.855171 186.065541 
L 411.199195 188.117481 
L 413.871207 186.337192 
L 416.543218 184.896469 
L 424.559254 195.864402 
L 427.231265 217.295773 
L 429.903277 235.39456 
L 432.575289 245.964718 
L 435.2473 245.620302 
L 443.263336 239.86711 
L 445.935347 231.766071 
L 448.607359 233.454192 
L 451.279371 238.402131 
L 453.951383 233.944135 
L 461.967418 244.785944 
L 464.63943 245.047894 
L 467.311441 255.579244 
L 469.983453 249.743586 
L 472.655465 246.042333 
L 480.6715 248.39503 
L 483.343512 258.776001 
L 486.015523 268.196491 
L 488.687535 261.618641 
L 491.359547 268.375975 
L 499.375582 262.453 
L 502.047594 259.649167 
L 504.719606 255.196021 
L 507.391617 252.809368 
L 510.063629 259.076758 
L 518.079664 259.076758 
L 520.751676 258.533455 
L 523.423688 258.552859 
L 526.095699 252.018668 
L 528.767711 260.949214 
L 536.783746 258.266654 
L 539.455758 243.248202 
L 542.12777 252.24181 
L 544.799782 253.92508 
L 547.471793 249.355512 
L 555.487829 250.476075 
L 558.15984 248.259204 
L 560.831852 230.359304 
L 563.503864 218.159237 
L 566.175876 225.241582 
L 574.191911 223.063518 
L 576.863922 217.902138 
L 579.535934 214.472536 
L 582.207946 218.891726 
L 584.879958 211.149655 
L 592.895993 197.077132 
L 595.568005 191.367598 
L 598.240016 193.210948 
L 600.912028 177.84808 
L 603.58404 177.828676 
L 611.600075 168.985447 
L 614.272087 164.207289 
L 616.944099 165.274492 
L 619.61611 162.849031 
L 622.288122 169.281353 
L 630.304157 170.028395 
L 632.976169 167.699952 
L 635.648181 167.471959 
L 638.320192 165.866304 
L 640.992204 156.460368 
L 649.008239 141.699014 
L 651.680251 126.205171 
L 654.352263 118.065325 
L 657.024275 115.630162 
L 659.696286 136.673459 
L 667.712322 123.692394 
L 673.056345 124.779 
L 675.728357 119.171335 
L 678.400368 115.130518 
L 689.088415 110.66767 
L 691.760427 109.110524 
L 694.432439 108.926189 
L 697.104451 105.462631 
L 705.120486 119.903824 
L 707.792498 108.698196 
L 710.464509 99.141881 
L 713.136521 97.647797 
L 723.824568 84.089472 
L 726.49658 73.887984 
L 731.840603 81.673713 
L 734.512615 83.022269 
L 742.52865 81.596098 
L 745.200662 73.562972 
L 747.872674 80.44643 
L 750.544685 77.259374 
L 753.216697 76.75973 
L 761.232732 69.493049 
L 763.904744 66.480627 
L 766.576756 72.195013 
L 769.248768 59.849418 
L 771.920779 60.882664 
L 779.936814 67.222818 
L 782.608826 67.984413 
L 785.280838 83.099884 
L 787.95285 70.278899 
L 790.624861 82.440158 
L 798.640897 97.919449 
L 801.312908 108.251911 
L 803.98492 108.678792 
L 806.656932 127.665298 
L 809.328944 138.977647 
L 817.344979 155.097259 
L 820.016991 136.183516 
L 825.361014 132.288226 
L 828.033026 140.064253 
L 836.049061 148.519409 
L 838.721073 152.118793 
L 841.393084 148.858974 
L 844.065096 155.344656 
L 846.737108 163.668837 
L 854.753143 159.880267 
L 857.425155 143.518109 
L 860.097167 153.346076 
L 862.769178 140.893761 
L 873.457225 139.545205 
L 876.129237 148.810465 
L 881.47326 139.690732 
L 884.145272 140.127315 
L 892.161307 133.263262 
L 894.833319 133.869627 
L 897.505331 137.153701 
L 900.177343 138.749654 
L 902.849354 136.101051 
L 910.86539 134.839811 
L 916.209413 138.958243 
L 918.881425 138.458598 
L 921.553437 138.759356 
L 929.569472 139.186237 
L 932.241483 138.929138 
L 934.913495 140.787041 
L 937.585507 155.689071 
L 940.257519 155.815195 
L 940.257519 155.815195 
" clip-path="url(#pa6fdc06c8a)" style="fill: none; stroke: #1f77b4; stroke-width: 1.5; stroke-linecap: square"/>
   </g>
   <g id="line2d_36">
    <path d="M 98.573822 287.723389 
L 106.589857 286.004223 
L 109.261869 283.821308 
L 111.93388 280.577012 
L 114.605892 275.538845 
L 117.277904 270.792704 
L 125.293939 267.241829 
L 127.965951 264.150822 
L 130.637962 261.919398 
L 133.309974 261.530354 
L 135.981986 260.633904 
L 143.998021 259.989702 
L 146.670033 260.655248 
L 152.014056 261.314003 
L 154.686068 262.341428 
L 162.702103 264.202242 
L 165.374115 265.153022 
L 168.046127 264.696066 
L 170.718139 264.756217 
L 173.39015 263.857826 
L 181.406185 262.740174 
L 184.078197 263.101083 
L 186.750209 264.280827 
L 189.422221 263.694836 
L 192.094232 264.025668 
L 202.782279 267.025478 
L 205.454291 267.464972 
L 208.126303 267.766699 
L 210.798315 268.891142 
L 218.81435 269.266604 
L 221.486362 268.448738 
L 224.158373 265.972828 
L 226.830385 267.205932 
L 229.502397 265.755507 
L 237.518432 261.127728 
L 242.862455 255.850896 
L 245.534467 250.166586 
L 248.206479 243.066777 
L 256.222514 239.680834 
L 258.894526 238.07809 
L 264.238549 241.119618 
L 266.910561 241.429106 
L 274.926596 240.246452 
L 277.598608 240.23578 
L 280.27062 237.504711 
L 282.942631 235.23351 
L 293.630678 235.586657 
L 296.30269 234.23325 
L 298.974702 230.563043 
L 301.646714 228.448041 
L 304.318725 227.304194 
L 312.334761 224.394611 
L 315.006772 221.998256 
L 317.678784 222.566784 
L 320.350796 223.464204 
L 323.022808 223.993925 
L 331.038843 223.712571 
L 333.710854 224.056017 
L 336.382866 221.986614 
L 339.054878 220.405213 
L 341.72689 218.100055 
L 349.742925 212.220739 
L 352.414937 207.627886 
L 355.086948 203.617145 
L 371.119019 197.088775 
L 373.791031 198.426659 
L 376.463042 198.057018 
L 379.135054 198.681817 
L 387.151089 200.862791 
L 389.823101 196.700701 
L 392.495113 196.2224 
L 395.167124 194.339272 
L 397.839136 191.79836 
L 405.855171 188.139795 
L 411.199195 188.707353 
L 413.871207 186.971693 
L 416.543218 186.58653 
L 424.559254 188.256217 
L 427.231265 194.502263 
L 429.903277 203.957679 
L 435.2473 228.027951 
L 445.935347 239.722552 
L 448.607359 239.334479 
L 451.279371 237.821961 
L 453.951383 235.486728 
L 461.967418 236.470495 
L 464.63943 239.126859 
L 467.311441 243.55187 
L 469.983453 245.82016 
L 472.655465 248.2398 
L 480.6715 248.961617 
L 483.343512 251.707239 
L 488.687535 256.605699 
L 491.359547 261.072427 
L 499.375582 263.884021 
L 502.047594 264.058655 
L 504.719606 261.458561 
L 510.063629 257.836863 
L 520.751676 256.938472 
L 523.423688 257.60984 
L 526.095699 257.4517 
L 528.767711 257.826191 
L 536.783746 257.66417 
L 539.455758 254.607119 
L 542.12777 253.34491 
L 544.799782 253.726192 
L 547.471793 251.407452 
L 555.487829 249.849336 
L 558.15984 250.851536 
L 560.831852 246.475035 
L 563.503864 239.321866 
L 566.175876 234.49908 
L 574.191911 229.016569 
L 576.863922 222.945156 
L 579.535934 219.767802 
L 582.207946 219.9143 
L 584.879958 217.095915 
L 592.895993 211.898637 
L 595.568005 206.591729 
L 598.240016 202.339412 
L 600.912028 194.130683 
L 603.58404 187.466487 
L 611.600075 181.84815 
L 616.944099 170.828797 
L 619.61611 167.828987 
L 622.288122 166.119522 
L 630.304157 166.328112 
L 632.976169 167.026645 
L 635.648181 167.466138 
L 638.320192 168.069593 
L 640.992204 165.505396 
L 649.008239 159.839519 
L 651.680251 151.540563 
L 657.024275 131.612008 
L 659.696286 127.654626 
L 667.712322 124.053302 
L 673.056345 123.768068 
L 675.728357 123.98927 
L 678.400368 123.889341 
L 689.088415 118.688183 
L 691.760427 115.771809 
L 694.432439 112.601247 
L 697.104451 109.859506 
L 705.120486 110.814168 
L 707.792498 110.420273 
L 710.464509 108.426544 
L 715.808533 103.921008 
L 723.824568 96.758138 
L 726.49658 89.796096 
L 731.840603 86.302462 
L 734.512615 83.377356 
L 742.52865 80.853907 
L 745.200662 78.748607 
L 747.872674 80.060296 
L 750.544685 79.177429 
L 753.216697 77.924921 
L 761.232732 75.504311 
L 763.904744 74.087842 
L 766.576756 72.437559 
L 769.248768 68.955567 
L 771.920779 65.780154 
L 779.936814 65.326108 
L 782.608826 65.626865 
L 787.95285 69.893735 
L 790.624861 74.205234 
L 798.640897 80.34456 
L 801.312908 88.39806 
L 803.98492 93.513842 
L 809.328944 116.298619 
L 817.344979 127.734181 
L 820.016991 133.320503 
L 828.033026 140.52218 
L 836.049061 142.430533 
L 838.721073 141.83484 
L 841.393084 144.369931 
L 846.737108 153.702134 
L 854.753143 155.974305 
L 857.425155 154.254169 
L 860.097167 155.151589 
L 862.769178 152.26141 
L 865.44119 147.635571 
L 873.457225 143.568559 
L 876.129237 144.62703 
L 881.47326 141.895961 
L 884.145272 141.742672 
L 892.161307 140.287396 
L 894.833319 139.15228 
L 897.505331 136.820927 
L 900.177343 136.632712 
L 902.849354 135.827459 
L 910.86539 136.142769 
L 916.209413 137.160492 
L 918.881425 137.421471 
L 921.553437 137.423412 
L 929.569472 138.040449 
L 932.241483 138.858314 
L 934.913495 139.224074 
L 940.257519 146.081336 
L 940.257519 146.081336 
" clip-path="url(#pa6fdc06c8a)" style="fill: none; stroke: #ff7f0e; stroke-width: 1.5; stroke-linecap: square"/>
   </g>
   <g id="patch_3">
    <path d="M 45.267188 301.717812 
L 45.267188 48.331875 
" style="fill: none; stroke: #000000; stroke-width: 0.8; stroke-linejoin: miter; stroke-linecap: square"/>
   </g>
   <g id="patch_4">
    <path d="M 982.876106 301.717812 
L 982.876106 48.331875 
" style="fill: none; stroke: #000000; stroke-width: 0.8; stroke-linejoin: miter; stroke-linecap: square"/>
   </g>
   <g id="patch_5">
    <path d="M 45.267188 301.717812 
L 982.876106 301.717812 
" style="fill: none; stroke: #000000; stroke-width: 0.8; stroke-linejoin: miter; stroke-linecap: square"/>
   </g>
   <g id="patch_6">
    <path d="M 45.267188 48.331875 
L 982.876106 48.331875 
" style="fill: none; stroke: #000000; stroke-width: 0.8; stroke-linejoin: miter; stroke-linecap: square"/>
   </g>
   <g id="text_6">
    <!-- Closing Price -->
    <g transform="translate(475.595709 42.331875)scale(0.12 -0.12)">
     <defs>
      <path id="DejaVuSans-43" d="M 4122 4306 
L 4122 3641 
Q 3803 3938 3442 4084 
Q 3081 4231 2675 4231 
Q 1875 4231 1450 3742 
Q 1025 3253 1025 2328 
Q 1025 1406 1450 917 
Q 1875 428 2675 428 
Q 3081 428 3442 575 
Q 3803 722 4122 1019 
L 4122 359 
Q 3791 134 3420 21 
Q 3050 -91 2638 -91 
Q 1578 -91 968 557 
Q 359 1206 359 2328 
Q 359 3453 968 4101 
Q 1578 4750 2638 4750 
Q 3056 4750 3426 4639 
Q 3797 4528 4122 4306 
z
" transform="scale(0.015625)"/>
      <path id="DejaVuSans-6c" d="M 603 4863 
L 1178 4863 
L 1178 0 
L 603 0 
L 603 4863 
z
" transform="scale(0.015625)"/>
      <path id="DejaVuSans-6f" d="M 1959 3097 
Q 1497 3097 1228 2736 
Q 959 2375 959 1747 
Q 959 1119 1226 758 
Q 1494 397 1959 397 
Q 2419 397 2687 759 
Q 2956 1122 2956 1747 
Q 2956 2369 2687 2733 
Q 2419 3097 1959 3097 
z
M 1959 3584 
Q 2709 3584 3137 3096 
Q 3566 2609 3566 1747 
Q 3566 888 3137 398 
Q 2709 -91 1959 -91 
Q 1206 -91 779 398 
Q 353 888 353 1747 
Q 353 2609 779 3096 
Q 1206 3584 1959 3584 
z
" transform="scale(0.015625)"/>
      <path id="DejaVuSans-73" d="M 2834 3397 
L 2834 2853 
Q 2591 2978 2328 3040 
Q 2066 3103 1784 3103 
Q 1356 3103 1142 2972 
Q 928 2841 928 2578 
Q 928 2378 1081 2264 
Q 1234 2150 1697 2047 
L 1894 2003 
Q 2506 1872 2764 1633 
Q 3022 1394 3022 966 
Q 3022 478 2636 193 
Q 2250 -91 1575 -91 
Q 1294 -91 989 -36 
Q 684 19 347 128 
L 347 722 
Q 666 556 975 473 
Q 1284 391 1588 391 
Q 1994 391 2212 530 
Q 2431 669 2431 922 
Q 2431 1156 2273 1281 
Q 2116 1406 1581 1522 
L 1381 1569 
Q 847 1681 609 1914 
Q 372 2147 372 2553 
Q 372 3047 722 3315 
Q 1072 3584 1716 3584 
Q 2034 3584 2315 3537 
Q 2597 3491 2834 3397 
z
" transform="scale(0.015625)"/>
      <path id="DejaVuSans-69" d="M 603 3500 
L 1178 3500 
L 1178 0 
L 603 0 
L 603 3500 
z
M 603 4863 
L 1178 4863 
L 1178 4134 
L 603 4134 
L 603 4863 
z
" transform="scale(0.015625)"/>
      <path id="DejaVuSans-6e" d="M 3513 2113 
L 3513 0 
L 2938 0 
L 2938 2094 
Q 2938 2591 2744 2837 
Q 2550 3084 2163 3084 
Q 1697 3084 1428 2787 
Q 1159 2491 1159 1978 
L 1159 0 
L 581 0 
L 581 3500 
L 1159 3500 
L 1159 2956 
Q 1366 3272 1645 3428 
Q 1925 3584 2291 3584 
Q 2894 3584 3203 3211 
Q 3513 2838 3513 2113 
z
" transform="scale(0.015625)"/>
      <path id="DejaVuSans-67" d="M 2906 1791 
Q 2906 2416 2648 2759 
Q 2391 3103 1925 3103 
Q 1463 3103 1205 2759 
Q 947 2416 947 1791 
Q 947 1169 1205 825 
Q 1463 481 1925 481 
Q 2391 481 2648 825 
Q 2906 1169 2906 1791 
z
M 3481 434 
Q 3481 -459 3084 -895 
Q 2688 -1331 1869 -1331 
Q 1566 -1331 1297 -1286 
Q 1028 -1241 775 -1147 
L 775 -588 
Q 1028 -725 1275 -790 
Q 1522 -856 1778 -856 
Q 2344 -856 2625 -561 
Q 2906 -266 2906 331 
L 2906 616 
Q 2728 306 2450 153 
Q 2172 0 1784 0 
Q 1141 0 747 490 
Q 353 981 353 1791 
Q 353 2603 747 3093 
Q 1141 3584 1784 3584 
Q 2172 3584 2450 3431 
Q 2728 3278 2906 2969 
L 2906 3500 
L 3481 3500 
L 3481 434 
z
" transform="scale(0.015625)"/>
      <path id="DejaVuSans-20" transform="scale(0.015625)"/>
      <path id="DejaVuSans-50" d="M 1259 4147 
L 1259 2394 
L 2053 2394 
Q 2494 2394 2734 2622 
Q 2975 2850 2975 3272 
Q 2975 3691 2734 3919 
Q 2494 4147 2053 4147 
L 1259 4147 
z
M 628 4666 
L 2053 4666 
Q 2838 4666 3239 4311 
Q 3641 3956 3641 3272 
Q 3641 2581 3239 2228 
Q 2838 1875 2053 1875 
L 1259 1875 
L 1259 0 
L 628 0 
L 628 4666 
z
" transform="scale(0.015625)"/>
      <path id="DejaVuSans-72" d="M 2631 2963 
Q 2534 3019 2420 3045 
Q 2306 3072 2169 3072 
Q 1681 3072 1420 2755 
Q 1159 2438 1159 1844 
L 1159 0 
L 581 0 
L 581 3500 
L 1159 3500 
L 1159 2956 
Q 1341 3275 1631 3429 
Q 1922 3584 2338 3584 
Q 2397 3584 2469 3576 
Q 2541 3569 2628 3553 
L 2631 2963 
z
" transform="scale(0.015625)"/>
      <path id="DejaVuSans-63" d="M 3122 3366 
L 3122 2828 
Q 2878 2963 2633 3030 
Q 2388 3097 2138 3097 
Q 1578 3097 1268 2742 
Q 959 2388 959 1747 
Q 959 1106 1268 751 
Q 1578 397 2138 397 
Q 2388 397 2633 464 
Q 2878 531 3122 666 
L 3122 134 
Q 2881 22 2623 -34 
Q 2366 -91 2075 -91 
Q 1284 -91 818 406 
Q 353 903 353 1747 
Q 353 2603 823 3093 
Q 1294 3584 2113 3584 
Q 2378 3584 2631 3529 
Q 2884 3475 3122 3366 
z
" transform="scale(0.015625)"/>
      <path id="DejaVuSans-65" d="M 3597 1894 
L 3597 1613 
L 953 1613 
Q 991 1019 1311 708 
Q 1631 397 2203 397 
Q 2534 397 2845 478 
Q 3156 559 3463 722 
L 3463 178 
Q 3153 47 2828 -22 
Q 2503 -91 2169 -91 
Q 1331 -91 842 396 
Q 353 884 353 1716 
Q 353 2575 817 3079 
Q 1281 3584 2069 3584 
Q 2775 3584 3186 3129 
Q 3597 2675 3597 1894 
z
M 3022 2063 
Q 3016 2534 2758 2815 
Q 2500 3097 2075 3097 
Q 1594 3097 1305 2825 
Q 1016 2553 972 2059 
L 3022 2063 
z
" transform="scale(0.015625)"/>
     </defs>
     <use xlink:href="#DejaVuSans-43"/>
     <use xlink:href="#DejaVuSans-6c" x="69.824219"/>
     <use xlink:href="#DejaVuSans-6f" x="97.607422"/>
     <use xlink:href="#DejaVuSans-73" x="158.789062"/>
     <use xlink:href="#DejaVuSans-69" x="210.888672"/>
     <use xlink:href="#DejaVuSans-6e" x="238.671875"/>
     <use xlink:href="#DejaVuSans-67" x="302.050781"/>
     <use xlink:href="#DejaVuSans-20" x="365.527344"/>
     <use xlink:href="#DejaVuSans-50" x="397.314453"/>
     <use xlink:href="#DejaVuSans-72" x="455.867188"/>
     <use xlink:href="#DejaVuSans-69" x="496.980469"/>
     <use xlink:href="#DejaVuSans-63" x="524.763672"/>
     <use xlink:href="#DejaVuSans-65" x="579.744141"/>
    </g>
   </g>
   <g id="legend_1">
    <g id="patch_7">
     <path d="M 911.144856 85.688125 
L 975.876106 85.688125 
Q 977.876106 85.688125 977.876106 83.688125 
L 977.876106 55.331875 
Q 977.876106 53.331875 975.876106 53.331875 
L 911.144856 53.331875 
Q 909.144856 53.331875 909.144856 55.331875 
L 909.144856 83.688125 
Q 909.144856 85.688125 911.144856 85.688125 
z
" style="fill: #ffffff; opacity: 0.8; stroke: #cccccc; stroke-linejoin: miter"/>
    </g>
    <g id="line2d_37">
     <path d="M 913.144856 61.430312 
L 923.144856 61.430312 
L 933.144856 61.430312 
" style="fill: none; stroke: #1f77b4; stroke-width: 1.5; stroke-linecap: square"/>
    </g>
    <g id="text_7">
     <!-- CLOSE -->
     <g transform="translate(941.144856 64.930312)scale(0.1 -0.1)">
      <defs>
       <path id="DejaVuSans-4c" d="M 628 4666 
L 1259 4666 
L 1259 531 
L 3531 531 
L 3531 0 
L 628 0 
L 628 4666 
z
" transform="scale(0.015625)"/>
       <path id="DejaVuSans-4f" d="M 2522 4238 
Q 1834 4238 1429 3725 
Q 1025 3213 1025 2328 
Q 1025 1447 1429 934 
Q 1834 422 2522 422 
Q 3209 422 3611 934 
Q 4013 1447 4013 2328 
Q 4013 3213 3611 3725 
Q 3209 4238 2522 4238 
z
M 2522 4750 
Q 3503 4750 4090 4092 
Q 4678 3434 4678 2328 
Q 4678 1225 4090 567 
Q 3503 -91 2522 -91 
Q 1538 -91 948 565 
Q 359 1222 359 2328 
Q 359 3434 948 4092 
Q 1538 4750 2522 4750 
z
" transform="scale(0.015625)"/>
       <path id="DejaVuSans-53" d="M 3425 4513 
L 3425 3897 
Q 3066 4069 2747 4153 
Q 2428 4238 2131 4238 
Q 1616 4238 1336 4038 
Q 1056 3838 1056 3469 
Q 1056 3159 1242 3001 
Q 1428 2844 1947 2747 
L 2328 2669 
Q 3034 2534 3370 2195 
Q 3706 1856 3706 1288 
Q 3706 609 3251 259 
Q 2797 -91 1919 -91 
Q 1588 -91 1214 -16 
Q 841 59 441 206 
L 441 856 
Q 825 641 1194 531 
Q 1563 422 1919 422 
Q 2459 422 2753 634 
Q 3047 847 3047 1241 
Q 3047 1584 2836 1778 
Q 2625 1972 2144 2069 
L 1759 2144 
Q 1053 2284 737 2584 
Q 422 2884 422 3419 
Q 422 4038 858 4394 
Q 1294 4750 2059 4750 
Q 2388 4750 2728 4690 
Q 3069 4631 3425 4513 
z
" transform="scale(0.015625)"/>
       <path id="DejaVuSans-45" d="M 628 4666 
L 3578 4666 
L 3578 4134 
L 1259 4134 
L 1259 2753 
L 3481 2753 
L 3481 2222 
L 1259 2222 
L 1259 531 
L 3634 531 
L 3634 0 
L 628 0 
L 628 4666 
z
" transform="scale(0.015625)"/>
      </defs>
      <use xlink:href="#DejaVuSans-43"/>
      <use xlink:href="#DejaVuSans-4c" x="69.824219"/>
      <use xlink:href="#DejaVuSans-4f" x="121.912109"/>
      <use xlink:href="#DejaVuSans-53" x="200.623047"/>
      <use xlink:href="#DejaVuSans-45" x="264.099609"/>
     </g>
    </g>
    <g id="line2d_38">
     <path d="M 913.144856 76.108437 
L 923.144856 76.108437 
L 933.144856 76.108437 
" style="fill: none; stroke: #ff7f0e; stroke-width: 1.5; stroke-linecap: square"/>
    </g>
    <g id="text_8">
     <!-- SMA5 -->
     <g transform="translate(941.144856 79.608437)scale(0.1 -0.1)">
      <defs>
       <path id="DejaVuSans-4d" d="M 628 4666 
L 1569 4666 
L 2759 1491 
L 3956 4666 
L 4897 4666 
L 4897 0 
L 4281 0 
L 4281 4097 
L 3078 897 
L 2444 897 
L 1241 4097 
L 1241 0 
L 628 0 
L 628 4666 
z
" transform="scale(0.015625)"/>
       <path id="DejaVuSans-41" d="M 2188 4044 
L 1331 1722 
L 3047 1722 
L 2188 4044 
z
M 1831 4666 
L 2547 4666 
L 4325 0 
L 3669 0 
L 3244 1197 
L 1141 1197 
L 716 0 
L 50 0 
L 1831 4666 
z
" transform="scale(0.015625)"/>
      </defs>
      <use xlink:href="#DejaVuSans-53"/>
      <use xlink:href="#DejaVuSans-4d" x="63.476562"/>
      <use xlink:href="#DejaVuSans-41" x="149.755859"/>
      <use xlink:href="#DejaVuSans-35" x="218.164062"/>
     </g>
    </g>
   </g>
  </g>
  <g id="axes_2">
   <g id="patch_8">
    <path d="M 45.267188 584.521875 
L 982.876106 584.521875 
L 982.876106 331.135938 
L 45.267188 331.135938 
z
" style="fill: #ffffff"/>
   </g>
   <g id="matplotlib.axis_3">
    <g id="xtick_13">
     <g id="line2d_39">
      <path d="M 82.541751 584.521875 
L 82.541751 331.135938 
" clip-path="url(#p7f809bede4)" style="fill: none; stroke-dasharray: 2.96,1.28; stroke-dashoffset: 0; stroke: #b0b0b0; stroke-width: 0.8"/>
     </g>
     <g id="line2d_40">
      <g>
       <use xlink:href="#m07f62dc31b" x="82.541751" y="584.521875" style="stroke: #000000; stroke-width: 0.8"/>
      </g>
     </g>
     <g id="text_9">
      <!-- 2022-01 -->
      <g transform="translate(61.650345 599.120312)scale(0.1 -0.1)">
       <defs>
        <path id="DejaVuSans-2d" d="M 313 2009 
L 1997 2009 
L 1997 1497 
L 313 1497 
L 313 2009 
z
" transform="scale(0.015625)"/>
        <path id="DejaVuSans-31" d="M 794 531 
L 1825 531 
L 1825 4091 
L 703 3866 
L 703 4441 
L 1819 4666 
L 2450 4666 
L 2450 531 
L 3481 531 
L 3481 0 
L 794 0 
L 794 531 
z
" transform="scale(0.015625)"/>
       </defs>
       <use xlink:href="#DejaVuSans-32"/>
       <use xlink:href="#DejaVuSans-30" x="63.623047"/>
       <use xlink:href="#DejaVuSans-32" x="127.246094"/>
       <use xlink:href="#DejaVuSans-32" x="190.869141"/>
       <use xlink:href="#DejaVuSans-2d" x="254.492188"/>
       <use xlink:href="#DejaVuSans-30" x="290.576172"/>
       <use xlink:href="#DejaVuSans-31" x="354.199219"/>
      </g>
     </g>
    </g>
    <g id="xtick_14">
     <g id="line2d_41">
      <path d="M 165.374115 584.521875 
L 165.374115 331.135938 
" clip-path="url(#p7f809bede4)" style="fill: none; stroke-dasharray: 2.96,1.28; stroke-dashoffset: 0; stroke: #b0b0b0; stroke-width: 0.8"/>
     </g>
     <g id="line2d_42">
      <g>
       <use xlink:href="#m07f62dc31b" x="165.374115" y="584.521875" style="stroke: #000000; stroke-width: 0.8"/>
      </g>
     </g>
     <g id="text_10">
      <!-- 2022-02 -->
      <g transform="translate(144.482709 599.120312)scale(0.1 -0.1)">
       <use xlink:href="#DejaVuSans-32"/>
       <use xlink:href="#DejaVuSans-30" x="63.623047"/>
       <use xlink:href="#DejaVuSans-32" x="127.246094"/>
       <use xlink:href="#DejaVuSans-32" x="190.869141"/>
       <use xlink:href="#DejaVuSans-2d" x="254.492188"/>
       <use xlink:href="#DejaVuSans-30" x="290.576172"/>
       <use xlink:href="#DejaVuSans-32" x="354.199219"/>
      </g>
     </g>
    </g>
    <g id="xtick_15">
     <g id="line2d_43">
      <path d="M 240.190444 584.521875 
L 240.190444 331.135938 
" clip-path="url(#p7f809bede4)" style="fill: none; stroke-dasharray: 2.96,1.28; stroke-dashoffset: 0; stroke: #b0b0b0; stroke-width: 0.8"/>
     </g>
     <g id="line2d_44">
      <g>
       <use xlink:href="#m07f62dc31b" x="240.190444" y="584.521875" style="stroke: #000000; stroke-width: 0.8"/>
      </g>
     </g>
     <g id="text_11">
      <!-- 2022-03 -->
      <g transform="translate(219.299037 599.120312)scale(0.1 -0.1)">
       <use xlink:href="#DejaVuSans-32"/>
       <use xlink:href="#DejaVuSans-30" x="63.623047"/>
       <use xlink:href="#DejaVuSans-32" x="127.246094"/>
       <use xlink:href="#DejaVuSans-32" x="190.869141"/>
       <use xlink:href="#DejaVuSans-2d" x="254.492188"/>
       <use xlink:href="#DejaVuSans-30" x="290.576172"/>
       <use xlink:href="#DejaVuSans-33" x="354.199219"/>
      </g>
     </g>
    </g>
    <g id="xtick_16">
     <g id="line2d_45">
      <path d="M 323.022808 584.521875 
L 323.022808 331.135938 
" clip-path="url(#p7f809bede4)" style="fill: none; stroke-dasharray: 2.96,1.28; stroke-dashoffset: 0; stroke: #b0b0b0; stroke-width: 0.8"/>
     </g>
     <g id="line2d_46">
      <g>
       <use xlink:href="#m07f62dc31b" x="323.022808" y="584.521875" style="stroke: #000000; stroke-width: 0.8"/>
      </g>
     </g>
     <g id="text_12">
      <!-- 2022-04 -->
      <g transform="translate(302.131401 599.120312)scale(0.1 -0.1)">
       <use xlink:href="#DejaVuSans-32"/>
       <use xlink:href="#DejaVuSans-30" x="63.623047"/>
       <use xlink:href="#DejaVuSans-32" x="127.246094"/>
       <use xlink:href="#DejaVuSans-32" x="190.869141"/>
       <use xlink:href="#DejaVuSans-2d" x="254.492188"/>
       <use xlink:href="#DejaVuSans-30" x="290.576172"/>
       <use xlink:href="#DejaVuSans-34" x="354.199219"/>
      </g>
     </g>
    </g>
    <g id="xtick_17">
     <g id="line2d_47">
      <path d="M 403.18316 584.521875 
L 403.18316 331.135938 
" clip-path="url(#p7f809bede4)" style="fill: none; stroke-dasharray: 2.96,1.28; stroke-dashoffset: 0; stroke: #b0b0b0; stroke-width: 0.8"/>
     </g>
     <g id="line2d_48">
      <g>
       <use xlink:href="#m07f62dc31b" x="403.18316" y="584.521875" style="stroke: #000000; stroke-width: 0.8"/>
      </g>
     </g>
     <g id="text_13">
      <!-- 2022-05 -->
      <g transform="translate(382.291753 599.120312)scale(0.1 -0.1)">
       <use xlink:href="#DejaVuSans-32"/>
       <use xlink:href="#DejaVuSans-30" x="63.623047"/>
       <use xlink:href="#DejaVuSans-32" x="127.246094"/>
       <use xlink:href="#DejaVuSans-32" x="190.869141"/>
       <use xlink:href="#DejaVuSans-2d" x="254.492188"/>
       <use xlink:href="#DejaVuSans-30" x="290.576172"/>
       <use xlink:href="#DejaVuSans-35" x="354.199219"/>
      </g>
     </g>
    </g>
    <g id="xtick_18">
     <g id="line2d_49">
      <path d="M 486.015523 584.521875 
L 486.015523 331.135938 
" clip-path="url(#p7f809bede4)" style="fill: none; stroke-dasharray: 2.96,1.28; stroke-dashoffset: 0; stroke: #b0b0b0; stroke-width: 0.8"/>
     </g>
     <g id="line2d_50">
      <g>
       <use xlink:href="#m07f62dc31b" x="486.015523" y="584.521875" style="stroke: #000000; stroke-width: 0.8"/>
      </g>
     </g>
     <g id="text_14">
      <!-- 2022-06 -->
      <g transform="translate(465.124117 599.120312)scale(0.1 -0.1)">
       <defs>
        <path id="DejaVuSans-36" d="M 2113 2584 
Q 1688 2584 1439 2293 
Q 1191 2003 1191 1497 
Q 1191 994 1439 701 
Q 1688 409 2113 409 
Q 2538 409 2786 701 
Q 3034 994 3034 1497 
Q 3034 2003 2786 2293 
Q 2538 2584 2113 2584 
z
M 3366 4563 
L 3366 3988 
Q 3128 4100 2886 4159 
Q 2644 4219 2406 4219 
Q 1781 4219 1451 3797 
Q 1122 3375 1075 2522 
Q 1259 2794 1537 2939 
Q 1816 3084 2150 3084 
Q 2853 3084 3261 2657 
Q 3669 2231 3669 1497 
Q 3669 778 3244 343 
Q 2819 -91 2113 -91 
Q 1303 -91 875 529 
Q 447 1150 447 2328 
Q 447 3434 972 4092 
Q 1497 4750 2381 4750 
Q 2619 4750 2861 4703 
Q 3103 4656 3366 4563 
z
" transform="scale(0.015625)"/>
       </defs>
       <use xlink:href="#DejaVuSans-32"/>
       <use xlink:href="#DejaVuSans-30" x="63.623047"/>
       <use xlink:href="#DejaVuSans-32" x="127.246094"/>
       <use xlink:href="#DejaVuSans-32" x="190.869141"/>
       <use xlink:href="#DejaVuSans-2d" x="254.492188"/>
       <use xlink:href="#DejaVuSans-30" x="290.576172"/>
       <use xlink:href="#DejaVuSans-36" x="354.199219"/>
      </g>
     </g>
    </g>
    <g id="xtick_19">
     <g id="line2d_51">
      <path d="M 566.175876 584.521875 
L 566.175876 331.135938 
" clip-path="url(#p7f809bede4)" style="fill: none; stroke-dasharray: 2.96,1.28; stroke-dashoffset: 0; stroke: #b0b0b0; stroke-width: 0.8"/>
     </g>
     <g id="line2d_52">
      <g>
       <use xlink:href="#m07f62dc31b" x="566.175876" y="584.521875" style="stroke: #000000; stroke-width: 0.8"/>
      </g>
     </g>
     <g id="text_15">
      <!-- 2022-07 -->
      <g transform="translate(545.284469 599.120312)scale(0.1 -0.1)">
       <defs>
        <path id="DejaVuSans-37" d="M 525 4666 
L 3525 4666 
L 3525 4397 
L 1831 0 
L 1172 0 
L 2766 4134 
L 525 4134 
L 525 4666 
z
" transform="scale(0.015625)"/>
       </defs>
       <use xlink:href="#DejaVuSans-32"/>
       <use xlink:href="#DejaVuSans-30" x="63.623047"/>
       <use xlink:href="#DejaVuSans-32" x="127.246094"/>
       <use xlink:href="#DejaVuSans-32" x="190.869141"/>
       <use xlink:href="#DejaVuSans-2d" x="254.492188"/>
       <use xlink:href="#DejaVuSans-30" x="290.576172"/>
       <use xlink:href="#DejaVuSans-37" x="354.199219"/>
      </g>
     </g>
    </g>
    <g id="xtick_20">
     <g id="line2d_53">
      <path d="M 649.008239 584.521875 
L 649.008239 331.135938 
" clip-path="url(#p7f809bede4)" style="fill: none; stroke-dasharray: 2.96,1.28; stroke-dashoffset: 0; stroke: #b0b0b0; stroke-width: 0.8"/>
     </g>
     <g id="line2d_54">
      <g>
       <use xlink:href="#m07f62dc31b" x="649.008239" y="584.521875" style="stroke: #000000; stroke-width: 0.8"/>
      </g>
     </g>
     <g id="text_16">
      <!-- 2022-08 -->
      <g transform="translate(628.116833 599.120312)scale(0.1 -0.1)">
       <defs>
        <path id="DejaVuSans-38" d="M 2034 2216 
Q 1584 2216 1326 1975 
Q 1069 1734 1069 1313 
Q 1069 891 1326 650 
Q 1584 409 2034 409 
Q 2484 409 2743 651 
Q 3003 894 3003 1313 
Q 3003 1734 2745 1975 
Q 2488 2216 2034 2216 
z
M 1403 2484 
Q 997 2584 770 2862 
Q 544 3141 544 3541 
Q 544 4100 942 4425 
Q 1341 4750 2034 4750 
Q 2731 4750 3128 4425 
Q 3525 4100 3525 3541 
Q 3525 3141 3298 2862 
Q 3072 2584 2669 2484 
Q 3125 2378 3379 2068 
Q 3634 1759 3634 1313 
Q 3634 634 3220 271 
Q 2806 -91 2034 -91 
Q 1263 -91 848 271 
Q 434 634 434 1313 
Q 434 1759 690 2068 
Q 947 2378 1403 2484 
z
M 1172 3481 
Q 1172 3119 1398 2916 
Q 1625 2713 2034 2713 
Q 2441 2713 2670 2916 
Q 2900 3119 2900 3481 
Q 2900 3844 2670 4047 
Q 2441 4250 2034 4250 
Q 1625 4250 1398 4047 
Q 1172 3844 1172 3481 
z
" transform="scale(0.015625)"/>
       </defs>
       <use xlink:href="#DejaVuSans-32"/>
       <use xlink:href="#DejaVuSans-30" x="63.623047"/>
       <use xlink:href="#DejaVuSans-32" x="127.246094"/>
       <use xlink:href="#DejaVuSans-32" x="190.869141"/>
       <use xlink:href="#DejaVuSans-2d" x="254.492188"/>
       <use xlink:href="#DejaVuSans-30" x="290.576172"/>
       <use xlink:href="#DejaVuSans-38" x="354.199219"/>
      </g>
     </g>
    </g>
    <g id="xtick_21">
     <g id="line2d_55">
      <path d="M 731.840603 584.521875 
L 731.840603 331.135938 
" clip-path="url(#p7f809bede4)" style="fill: none; stroke-dasharray: 2.96,1.28; stroke-dashoffset: 0; stroke: #b0b0b0; stroke-width: 0.8"/>
     </g>
     <g id="line2d_56">
      <g>
       <use xlink:href="#m07f62dc31b" x="731.840603" y="584.521875" style="stroke: #000000; stroke-width: 0.8"/>
      </g>
     </g>
     <g id="text_17">
      <!-- 2022-09 -->
      <g transform="translate(710.949197 599.120312)scale(0.1 -0.1)">
       <defs>
        <path id="DejaVuSans-39" d="M 703 97 
L 703 672 
Q 941 559 1184 500 
Q 1428 441 1663 441 
Q 2288 441 2617 861 
Q 2947 1281 2994 2138 
Q 2813 1869 2534 1725 
Q 2256 1581 1919 1581 
Q 1219 1581 811 2004 
Q 403 2428 403 3163 
Q 403 3881 828 4315 
Q 1253 4750 1959 4750 
Q 2769 4750 3195 4129 
Q 3622 3509 3622 2328 
Q 3622 1225 3098 567 
Q 2575 -91 1691 -91 
Q 1453 -91 1209 -44 
Q 966 3 703 97 
z
M 1959 2075 
Q 2384 2075 2632 2365 
Q 2881 2656 2881 3163 
Q 2881 3666 2632 3958 
Q 2384 4250 1959 4250 
Q 1534 4250 1286 3958 
Q 1038 3666 1038 3163 
Q 1038 2656 1286 2365 
Q 1534 2075 1959 2075 
z
" transform="scale(0.015625)"/>
       </defs>
       <use xlink:href="#DejaVuSans-32"/>
       <use xlink:href="#DejaVuSans-30" x="63.623047"/>
       <use xlink:href="#DejaVuSans-32" x="127.246094"/>
       <use xlink:href="#DejaVuSans-32" x="190.869141"/>
       <use xlink:href="#DejaVuSans-2d" x="254.492188"/>
       <use xlink:href="#DejaVuSans-30" x="290.576172"/>
       <use xlink:href="#DejaVuSans-39" x="354.199219"/>
      </g>
     </g>
    </g>
    <g id="xtick_22">
     <g id="line2d_57">
      <path d="M 812.000955 584.521875 
L 812.000955 331.135938 
" clip-path="url(#p7f809bede4)" style="fill: none; stroke-dasharray: 2.96,1.28; stroke-dashoffset: 0; stroke: #b0b0b0; stroke-width: 0.8"/>
     </g>
     <g id="line2d_58">
      <g>
       <use xlink:href="#m07f62dc31b" x="812.000955" y="584.521875" style="stroke: #000000; stroke-width: 0.8"/>
      </g>
     </g>
     <g id="text_18">
      <!-- 2022-10 -->
      <g transform="translate(791.109549 599.120312)scale(0.1 -0.1)">
       <use xlink:href="#DejaVuSans-32"/>
       <use xlink:href="#DejaVuSans-30" x="63.623047"/>
       <use xlink:href="#DejaVuSans-32" x="127.246094"/>
       <use xlink:href="#DejaVuSans-32" x="190.869141"/>
       <use xlink:href="#DejaVuSans-2d" x="254.492188"/>
       <use xlink:href="#DejaVuSans-31" x="290.576172"/>
       <use xlink:href="#DejaVuSans-30" x="354.199219"/>
      </g>
     </g>
    </g>
    <g id="xtick_23">
     <g id="line2d_59">
      <path d="M 894.833319 584.521875 
L 894.833319 331.135938 
" clip-path="url(#p7f809bede4)" style="fill: none; stroke-dasharray: 2.96,1.28; stroke-dashoffset: 0; stroke: #b0b0b0; stroke-width: 0.8"/>
     </g>
     <g id="line2d_60">
      <g>
       <use xlink:href="#m07f62dc31b" x="894.833319" y="584.521875" style="stroke: #000000; stroke-width: 0.8"/>
      </g>
     </g>
     <g id="text_19">
      <!-- 2022-11 -->
      <g transform="translate(873.941913 599.120312)scale(0.1 -0.1)">
       <use xlink:href="#DejaVuSans-32"/>
       <use xlink:href="#DejaVuSans-30" x="63.623047"/>
       <use xlink:href="#DejaVuSans-32" x="127.246094"/>
       <use xlink:href="#DejaVuSans-32" x="190.869141"/>
       <use xlink:href="#DejaVuSans-2d" x="254.492188"/>
       <use xlink:href="#DejaVuSans-31" x="290.576172"/>
       <use xlink:href="#DejaVuSans-31" x="354.199219"/>
      </g>
     </g>
    </g>
    <g id="xtick_24">
     <g id="line2d_61">
      <path d="M 974.993671 584.521875 
L 974.993671 331.135938 
" clip-path="url(#p7f809bede4)" style="fill: none; stroke-dasharray: 2.96,1.28; stroke-dashoffset: 0; stroke: #b0b0b0; stroke-width: 0.8"/>
     </g>
     <g id="line2d_62">
      <g>
       <use xlink:href="#m07f62dc31b" x="974.993671" y="584.521875" style="stroke: #000000; stroke-width: 0.8"/>
      </g>
     </g>
     <g id="text_20">
      <!-- 2022-12 -->
      <g transform="translate(954.102265 599.120312)scale(0.1 -0.1)">
       <use xlink:href="#DejaVuSans-32"/>
       <use xlink:href="#DejaVuSans-30" x="63.623047"/>
       <use xlink:href="#DejaVuSans-32" x="127.246094"/>
       <use xlink:href="#DejaVuSans-32" x="190.869141"/>
       <use xlink:href="#DejaVuSans-2d" x="254.492188"/>
       <use xlink:href="#DejaVuSans-31" x="290.576172"/>
       <use xlink:href="#DejaVuSans-32" x="354.199219"/>
      </g>
     </g>
    </g>
   </g>
   <g id="matplotlib.axis_4">
    <g id="ytick_6">
     <g id="line2d_63">
      <path d="M 45.267188 532.605728 
L 982.876106 532.605728 
" clip-path="url(#p7f809bede4)" style="fill: none; stroke-dasharray: 2.96,1.28; stroke-dashoffset: 0; stroke: #b0b0b0; stroke-width: 0.8"/>
     </g>
     <g id="line2d_64">
      <g>
       <use xlink:href="#m85dfeda8d2" x="45.267188" y="532.605728" style="stroke: #000000; stroke-width: 0.8"/>
      </g>
     </g>
     <g id="text_21">
      <!-- −100 -->
      <g transform="translate(10.8 536.404947)scale(0.1 -0.1)">
       <defs>
        <path id="DejaVuSans-2212" d="M 678 2272 
L 4684 2272 
L 4684 1741 
L 678 1741 
L 678 2272 
z
" transform="scale(0.015625)"/>
       </defs>
       <use xlink:href="#DejaVuSans-2212"/>
       <use xlink:href="#DejaVuSans-31" x="83.789062"/>
       <use xlink:href="#DejaVuSans-30" x="147.412109"/>
       <use xlink:href="#DejaVuSans-30" x="211.035156"/>
      </g>
     </g>
    </g>
    <g id="ytick_7">
     <g id="line2d_65">
      <path d="M 45.267188 478.905516 
L 982.876106 478.905516 
" clip-path="url(#p7f809bede4)" style="fill: none; stroke-dasharray: 2.96,1.28; stroke-dashoffset: 0; stroke: #b0b0b0; stroke-width: 0.8"/>
     </g>
     <g id="line2d_66">
      <g>
       <use xlink:href="#m85dfeda8d2" x="45.267188" y="478.905516" style="stroke: #000000; stroke-width: 0.8"/>
      </g>
     </g>
     <g id="text_22">
      <!-- 0 -->
      <g transform="translate(31.904688 482.704735)scale(0.1 -0.1)">
       <use xlink:href="#DejaVuSans-30"/>
      </g>
     </g>
    </g>
    <g id="ytick_8">
     <g id="line2d_67">
      <path d="M 45.267188 425.205305 
L 982.876106 425.205305 
" clip-path="url(#p7f809bede4)" style="fill: none; stroke-dasharray: 2.96,1.28; stroke-dashoffset: 0; stroke: #b0b0b0; stroke-width: 0.8"/>
     </g>
     <g id="line2d_68">
      <g>
       <use xlink:href="#m85dfeda8d2" x="45.267188" y="425.205305" style="stroke: #000000; stroke-width: 0.8"/>
      </g>
     </g>
     <g id="text_23">
      <!-- 100 -->
      <g transform="translate(19.179688 429.004524)scale(0.1 -0.1)">
       <use xlink:href="#DejaVuSans-31"/>
       <use xlink:href="#DejaVuSans-30" x="63.623047"/>
       <use xlink:href="#DejaVuSans-30" x="127.246094"/>
      </g>
     </g>
    </g>
    <g id="ytick_9">
     <g id="line2d_69">
      <path d="M 45.267188 371.505093 
L 982.876106 371.505093 
" clip-path="url(#p7f809bede4)" style="fill: none; stroke-dasharray: 2.96,1.28; stroke-dashoffset: 0; stroke: #b0b0b0; stroke-width: 0.8"/>
     </g>
     <g id="line2d_70">
      <g>
       <use xlink:href="#m85dfeda8d2" x="45.267188" y="371.505093" style="stroke: #000000; stroke-width: 0.8"/>
      </g>
     </g>
     <g id="text_24">
      <!-- 200 -->
      <g transform="translate(19.179688 375.304312)scale(0.1 -0.1)">
       <use xlink:href="#DejaVuSans-32"/>
       <use xlink:href="#DejaVuSans-30" x="63.623047"/>
       <use xlink:href="#DejaVuSans-30" x="127.246094"/>
      </g>
     </g>
    </g>
   </g>
   <g id="line2d_71">
    <path d="M 87.885775 478.905516 
L 93.229798 478.437799 
L 95.90181 478.386614 
L 98.573822 478.028896 
L 106.589857 476.826875 
L 109.261869 474.930192 
L 111.93388 472.169511 
L 114.605892 467.923813 
L 117.277904 465.046907 
L 125.293939 463.674466 
L 130.637962 460.768907 
L 133.309974 460.067613 
L 135.981986 458.917096 
L 143.998021 459.301704 
L 146.670033 461.28224 
L 152.014056 462.444852 
L 154.686068 464.313626 
L 162.702103 466.486628 
L 165.374115 467.745951 
L 168.046127 467.805718 
L 170.718139 468.341192 
L 173.39015 467.888702 
L 181.406185 467.838061 
L 186.750209 472.637585 
L 189.422221 471.494719 
L 192.094232 471.476961 
L 200.110268 475.480767 
L 202.782279 478.188021 
L 205.454291 480.090257 
L 208.126303 478.052079 
L 210.798315 478.977518 
L 218.81435 482.200344 
L 221.486362 481.727353 
L 224.158373 477.631805 
L 226.830385 478.630327 
L 229.502397 476.326507 
L 237.518432 470.387099 
L 242.862455 461.446349 
L 245.534467 450.021939 
L 248.206479 442.646016 
L 256.222514 442.093628 
L 258.894526 441.6812 
L 261.566538 443.966654 
L 264.238549 441.640672 
L 266.910561 438.801484 
L 274.926596 438.669385 
L 277.598608 441.156952 
L 280.27062 439.842403 
L 282.942631 435.704976 
L 293.630678 437.205863 
L 296.30269 436.789321 
L 298.974702 434.042851 
L 301.646714 432.07801 
L 304.318725 429.619033 
L 312.334761 428.668621 
L 315.006772 427.541095 
L 317.678784 430.815754 
L 320.350796 434.322722 
L 323.022808 435.31346 
L 331.038843 435.224008 
L 333.710854 436.062862 
L 336.382866 435.497431 
L 339.054878 437.0147 
L 341.72689 434.820838 
L 349.742925 424.387172 
L 352.414937 420.073499 
L 355.086948 416.929855 
L 368.447007 413.571514 
L 371.119019 417.244733 
L 373.791031 417.004507 
L 376.463042 417.007502 
L 379.135054 419.468971 
L 387.151089 423.897174 
L 389.823101 419.590421 
L 392.495113 421.181392 
L 395.167124 419.475937 
L 397.839136 419.122952 
L 405.855171 418.88863 
L 411.199195 420.293678 
L 413.871207 421.277742 
L 416.543218 422.070378 
L 424.559254 428.175535 
L 427.231265 442.988063 
L 432.575289 483.495122 
L 435.2473 499.360061 
L 443.263336 509.01861 
L 445.935347 512.668614 
L 448.607359 515.888256 
L 451.279371 520.172384 
L 453.951383 521.09146 
L 461.967418 526.114879 
L 464.63943 529.628123 
L 467.311441 536.450128 
L 469.983453 538.563714 
L 472.655465 537.906216 
L 480.6715 537.757044 
L 483.343512 541.551306 
L 486.015523 547.968093 
L 488.687535 549.30496 
L 491.359547 552.53277 
L 499.375582 551.60808 
L 502.047594 548.817374 
L 504.719606 543.868412 
L 507.391617 538.197117 
L 510.063629 535.844832 
L 518.079664 533.352977 
L 523.423688 527.756801 
L 526.095699 522.134583 
L 528.767711 521.179719 
L 536.783746 518.765534 
L 539.455758 509.789356 
L 542.12777 506.375398 
L 544.799782 504.130753 
L 547.471793 500.067196 
L 555.487829 497.137071 
L 558.15984 493.654861 
L 560.831852 482.855594 
L 563.503864 468.96316 
L 566.175876 461.319037 
L 574.191911 454.568826 
L 576.863922 447.278707 
L 579.535934 440.413266 
L 582.207946 437.42419 
L 584.879958 432.136748 
L 592.895993 422.31379 
L 595.568005 412.741764 
L 598.240016 406.810212 
L 600.912028 396.201454 
L 603.58404 388.823686 
L 611.600075 380.165413 
L 614.272087 372.397411 
L 616.944099 367.996348 
L 619.61611 364.741229 
L 622.288122 366.332031 
L 630.304157 369.191122 
L 632.976169 371.653372 
L 635.648181 374.704068 
L 638.320192 377.572743 
L 640.992204 376.822009 
L 649.008239 370.879494 
L 654.352263 350.324597 
L 657.024275 342.65348 
L 659.696286 347.487502 
L 667.712322 347.040841 
L 673.056345 348.673405 
L 675.728357 348.960604 
L 678.400368 348.882292 
L 689.088415 348.33216 
L 691.760427 348.70162 
L 694.432439 350.393497 
L 697.104451 351.654268 
L 705.120486 360.46858 
L 707.792498 363.776349 
L 710.464509 363.460417 
L 713.136521 363.868807 
L 715.808533 363.983279 
L 723.824568 360.912514 
L 726.49658 355.346916 
L 731.840603 355.832202 
L 734.512615 358.210402 
L 742.52865 360.819393 
L 745.200662 360.662225 
L 747.872674 364.925925 
L 750.544685 368.158125 
L 753.216697 371.73194 
L 761.232732 372.544745 
L 763.904744 373.063537 
L 766.576756 377.199315 
L 769.248768 376.147543 
L 771.920779 376.950757 
L 779.936814 381.54138 
L 782.608826 386.583861 
L 785.280838 398.26074 
L 787.95285 402.667314 
L 790.624861 412.358281 
L 798.640897 427.544053 
L 801.312908 444.589274 
L 803.98492 458.523345 
L 809.328944 498.363882 
L 817.344979 521.17038 
L 820.016991 530.205847 
L 825.361014 534.980362 
L 828.033026 541.515495 
L 836.049061 549.65542 
L 838.721073 556.815869 
L 841.393084 560.098691 
L 844.065096 564.609128 
L 846.737108 570.841747 
L 854.753143 573.004332 
L 857.425155 566.401725 
L 860.097167 564.5711 
L 862.769178 556.662376 
L 865.44119 549.423607 
L 873.457225 542.509494 
L 876.129237 540.45863 
L 881.47326 534.123617 
L 884.145272 528.723791 
L 892.161307 520.894657 
L 894.833319 514.549947 
L 897.505331 510.622875 
L 900.177343 507.889339 
L 902.849354 504.247908 
L 910.86539 500.549243 
L 916.209413 499.223239 
L 918.881425 497.732191 
L 921.553437 496.48224 
L 929.569472 495.491115 
L 932.241483 494.412063 
L 934.913495 494.210282 
L 937.585507 500.45766 
L 940.257519 505.162411 
L 940.257519 505.162411 
" clip-path="url(#p7f809bede4)" style="fill: none; stroke: #1f77b4; stroke-width: 1.5; stroke-linecap: square"/>
   </g>
   <g id="line2d_72">
    <path d="M 87.885775 478.905516 
L 93.229798 478.619616 
L 98.573822 478.38844 
L 106.589857 477.965169 
L 109.261869 477.197097 
L 111.93388 475.988874 
L 114.605892 474.125805 
L 117.277904 472.091605 
L 125.293939 470.249983 
L 130.637962 466.874785 
L 135.981986 464.096342 
L 146.670033 462.735742 
L 152.014056 462.676496 
L 154.686068 463.00871 
L 162.702103 463.712407 
L 165.374115 464.526625 
L 170.718139 465.821839 
L 173.39015 466.237173 
L 181.406185 466.558565 
L 184.078197 467.288712 
L 186.750209 468.36108 
L 189.422221 468.989022 
L 192.094232 469.487381 
L 200.110268 470.687544 
L 205.454291 473.770606 
L 210.798315 475.4979 
L 218.81435 476.838932 
L 221.486362 477.816934 
L 224.158373 477.779899 
L 226.830385 477.950019 
L 229.502397 477.625263 
L 237.518432 476.177438 
L 242.862455 473.230907 
L 245.534467 468.588718 
L 248.206479 463.399824 
L 256.222514 459.138353 
L 258.894526 455.64677 
L 266.910561 448.541524 
L 274.926596 446.567061 
L 280.27062 444.356487 
L 282.942631 442.626169 
L 293.630678 441.5421 
L 296.30269 440.591538 
L 298.974702 439.281795 
L 301.646714 437.841032 
L 304.318725 436.196628 
L 312.334761 434.691023 
L 315.006772 433.261034 
L 317.678784 432.771978 
L 320.350796 433.082127 
L 323.022808 433.528394 
L 331.038843 433.867517 
L 333.710854 434.306586 
L 336.382866 434.544755 
L 339.054878 435.038744 
L 341.72689 434.995163 
L 349.742925 432.873564 
L 355.086948 427.636811 
L 368.447007 424.823751 
L 371.119019 423.307947 
L 373.791031 422.047259 
L 376.463042 421.039308 
L 379.135054 420.72524 
L 387.151089 421.359627 
L 389.823101 421.005786 
L 392.495113 421.040907 
L 397.839136 420.406921 
L 405.855171 420.103263 
L 411.199195 420.141346 
L 413.871207 420.368625 
L 416.543218 420.708976 
L 424.559254 422.202288 
L 427.231265 426.359443 
L 429.903277 433.684503 
L 432.575289 443.646627 
L 435.2473 454.789314 
L 443.263336 465.635173 
L 445.935347 475.041861 
L 448.607359 483.21114 
L 451.279371 490.603389 
L 453.951383 496.701003 
L 461.967418 502.583778 
L 464.63943 507.992647 
L 467.311441 513.684143 
L 469.983453 518.660057 
L 472.655465 522.509289 
L 480.6715 525.55884 
L 483.343512 528.757333 
L 486.015523 532.599485 
L 491.359547 539.259018 
L 499.375582 541.728831 
L 502.047594 543.146539 
L 504.719606 543.290914 
L 507.391617 542.272154 
L 510.063629 540.98669 
L 518.079664 539.459947 
L 520.751676 537.676023 
L 523.423688 535.692178 
L 526.095699 532.980659 
L 528.767711 530.620471 
L 536.783746 528.249484 
L 542.12777 520.921046 
L 547.471793 514.063829 
L 555.487829 510.678478 
L 558.15984 507.273754 
L 560.831852 502.390122 
L 566.175876 488.827591 
L 574.191911 481.975838 
L 579.535934 468.111783 
L 584.879958 456.006761 
L 592.895993 449.268167 
L 600.912028 427.186172 
L 603.58404 419.513675 
L 611.600075 411.644022 
L 614.272087 403.7947 
L 616.944099 396.63503 
L 619.61611 390.25627 
L 622.288122 385.471422 
L 630.304157 382.215362 
L 632.976169 380.102964 
L 635.648181 379.023184 
L 640.992204 378.350879 
L 649.008239 376.856602 
L 651.680251 373.608009 
L 654.352263 368.951327 
L 657.024275 363.691757 
L 659.696286 360.450906 
L 673.056345 355.949796 
L 675.728357 354.551957 
L 678.400368 353.418024 
L 689.088415 352.400851 
L 691.760427 351.661005 
L 694.432439 351.407504 
L 697.104451 351.456856 
L 705.120486 353.259201 
L 707.792498 355.362631 
L 710.464509 356.982188 
L 713.136521 358.359512 
L 715.808533 359.484265 
L 723.824568 359.769915 
L 726.49658 358.885315 
L 731.840603 358.274692 
L 734.512615 358.261834 
L 742.52865 358.773346 
L 745.200662 359.151122 
L 747.872674 360.306082 
L 750.544685 361.876491 
L 753.216697 363.847581 
L 761.232732 365.587014 
L 763.904744 367.082318 
L 766.576756 369.105718 
L 771.920779 371.801418 
L 779.936814 373.74941 
L 782.608826 376.3163 
L 787.95285 385.097614 
L 790.624861 390.549747 
L 798.640897 397.948608 
L 801.312908 407.276741 
L 803.98492 417.526062 
L 806.656932 429.632045 
L 809.328944 443.378412 
L 817.344979 458.936806 
L 820.016991 473.190614 
L 825.361014 485.548564 
L 828.033026 496.74195 
L 836.049061 507.324644 
L 838.721073 517.222889 
L 841.393084 525.798049 
L 846.737108 541.016562 
L 854.753143 547.414116 
L 857.425155 551.211638 
L 860.097167 553.88353 
L 862.769178 554.439299 
L 865.44119 553.436161 
L 873.457225 551.250828 
L 876.129237 549.092388 
L 881.47326 546.098634 
L 884.145272 542.623665 
L 892.161307 538.277864 
L 897.505331 528.950399 
L 902.849354 520.640131 
L 910.86539 516.621954 
L 916.209413 513.142211 
L 918.881425 510.060207 
L 921.553437 507.344613 
L 929.569472 504.973914 
L 932.241483 502.861543 
L 934.913495 501.131291 
L 937.585507 500.996565 
L 940.257519 501.829734 
L 940.257519 501.829734 
" clip-path="url(#p7f809bede4)" style="fill: none; stroke: #ff7f0e; stroke-width: 1.5; stroke-linecap: square"/>
   </g>
   <g id="patch_9">
    <path d="M 45.267188 584.521875 
L 45.267188 331.135938 
" style="fill: none; stroke: #000000; stroke-width: 0.8; stroke-linejoin: miter; stroke-linecap: square"/>
   </g>
   <g id="patch_10">
    <path d="M 982.876106 584.521875 
L 982.876106 331.135938 
" style="fill: none; stroke: #000000; stroke-width: 0.8; stroke-linejoin: miter; stroke-linecap: square"/>
   </g>
   <g id="patch_11">
    <path d="M 45.267188 584.521875 
L 982.876106 584.521875 
" style="fill: none; stroke: #000000; stroke-width: 0.8; stroke-linejoin: miter; stroke-linecap: square"/>
   </g>
   <g id="patch_12">
    <path d="M 45.267188 331.135938 
L 982.876106 331.135938 
" style="fill: none; stroke: #000000; stroke-width: 0.8; stroke-linejoin: miter; stroke-linecap: square"/>
   </g>
   <g id="text_25">
    <!-- MACD -->
    <g transform="translate(496.085709 325.135938)scale(0.12 -0.12)">
     <defs>
      <path id="DejaVuSans-44" d="M 1259 4147 
L 1259 519 
L 2022 519 
Q 2988 519 3436 956 
Q 3884 1394 3884 2338 
Q 3884 3275 3436 3711 
Q 2988 4147 2022 4147 
L 1259 4147 
z
M 628 4666 
L 1925 4666 
Q 3281 4666 3915 4102 
Q 4550 3538 4550 2338 
Q 4550 1131 3912 565 
Q 3275 0 1925 0 
L 628 0 
L 628 4666 
z
" transform="scale(0.015625)"/>
     </defs>
     <use xlink:href="#DejaVuSans-4d"/>
     <use xlink:href="#DejaVuSans-41" x="86.279297"/>
     <use xlink:href="#DejaVuSans-43" x="152.9375"/>
     <use xlink:href="#DejaVuSans-44" x="222.761719"/>
    </g>
   </g>
   <g id="legend_2">
    <g id="patch_13">
     <path d="M 913.899543 368.492188 
L 975.876106 368.492188 
Q 977.876106 368.492188 977.876106 366.492188 
L 977.876106 338.135938 
Q 977.876106 336.135938 975.876106 336.135938 
L 913.899543 336.135938 
Q 911.899543 336.135938 911.899543 338.135938 
L 911.899543 366.492188 
Q 911.899543 368.492188 913.899543 368.492188 
z
" style="fill: #ffffff; opacity: 0.8; stroke: #cccccc; stroke-linejoin: miter"/>
    </g>
    <g id="line2d_73">
     <path d="M 915.899543 344.234375 
L 925.899543 344.234375 
L 935.899543 344.234375 
" style="fill: none; stroke: #1f77b4; stroke-width: 1.5; stroke-linecap: square"/>
    </g>
    <g id="text_26">
     <!-- MACD -->
     <g transform="translate(943.899543 347.734375)scale(0.1 -0.1)">
      <use xlink:href="#DejaVuSans-4d"/>
      <use xlink:href="#DejaVuSans-41" x="86.279297"/>
      <use xlink:href="#DejaVuSans-43" x="152.9375"/>
      <use xlink:href="#DejaVuSans-44" x="222.761719"/>
     </g>
    </g>
    <g id="line2d_74">
     <path d="M 915.899543 358.9125 
L 925.899543 358.9125 
L 935.899543 358.9125 
" style="fill: none; stroke: #ff7f0e; stroke-width: 1.5; stroke-linecap: square"/>
    </g>
    <g id="text_27">
     <!-- SIG -->
     <g transform="translate(943.899543 362.4125)scale(0.1 -0.1)">
      <defs>
       <path id="DejaVuSans-49" d="M 628 4666 
L 1259 4666 
L 1259 0 
L 628 0 
L 628 4666 
z
" transform="scale(0.015625)"/>
       <path id="DejaVuSans-47" d="M 3809 666 
L 3809 1919 
L 2778 1919 
L 2778 2438 
L 4434 2438 
L 4434 434 
Q 4069 175 3628 42 
Q 3188 -91 2688 -91 
Q 1594 -91 976 548 
Q 359 1188 359 2328 
Q 359 3472 976 4111 
Q 1594 4750 2688 4750 
Q 3144 4750 3555 4637 
Q 3966 4525 4313 4306 
L 4313 3634 
Q 3963 3931 3569 4081 
Q 3175 4231 2741 4231 
Q 1884 4231 1454 3753 
Q 1025 3275 1025 2328 
Q 1025 1384 1454 906 
Q 1884 428 2741 428 
Q 3075 428 3337 486 
Q 3600 544 3809 666 
z
" transform="scale(0.015625)"/>
      </defs>
      <use xlink:href="#DejaVuSans-53"/>
      <use xlink:href="#DejaVuSans-49" x="63.476562"/>
      <use xlink:href="#DejaVuSans-47" x="92.96875"/>
     </g>
    </g>
   </g>
  </g>
  <g id="text_28">
   <!-- Adani Transmission Limited -->
   <g transform="translate(422.102813 21.358125)scale(0.12 -0.12)">
    <defs>
     <path id="DejaVuSans-64" d="M 2906 2969 
L 2906 4863 
L 3481 4863 
L 3481 0 
L 2906 0 
L 2906 525 
Q 2725 213 2448 61 
Q 2172 -91 1784 -91 
Q 1150 -91 751 415 
Q 353 922 353 1747 
Q 353 2572 751 3078 
Q 1150 3584 1784 3584 
Q 2172 3584 2448 3432 
Q 2725 3281 2906 2969 
z
M 947 1747 
Q 947 1113 1208 752 
Q 1469 391 1925 391 
Q 2381 391 2643 752 
Q 2906 1113 2906 1747 
Q 2906 2381 2643 2742 
Q 2381 3103 1925 3103 
Q 1469 3103 1208 2742 
Q 947 2381 947 1747 
z
" transform="scale(0.015625)"/>
     <path id="DejaVuSans-61" d="M 2194 1759 
Q 1497 1759 1228 1600 
Q 959 1441 959 1056 
Q 959 750 1161 570 
Q 1363 391 1709 391 
Q 2188 391 2477 730 
Q 2766 1069 2766 1631 
L 2766 1759 
L 2194 1759 
z
M 3341 1997 
L 3341 0 
L 2766 0 
L 2766 531 
Q 2569 213 2275 61 
Q 1981 -91 1556 -91 
Q 1019 -91 701 211 
Q 384 513 384 1019 
Q 384 1609 779 1909 
Q 1175 2209 1959 2209 
L 2766 2209 
L 2766 2266 
Q 2766 2663 2505 2880 
Q 2244 3097 1772 3097 
Q 1472 3097 1187 3025 
Q 903 2953 641 2809 
L 641 3341 
Q 956 3463 1253 3523 
Q 1550 3584 1831 3584 
Q 2591 3584 2966 3190 
Q 3341 2797 3341 1997 
z
" transform="scale(0.015625)"/>
     <path id="DejaVuSans-54" d="M -19 4666 
L 3928 4666 
L 3928 4134 
L 2272 4134 
L 2272 0 
L 1638 0 
L 1638 4134 
L -19 4134 
L -19 4666 
z
" transform="scale(0.015625)"/>
     <path id="DejaVuSans-6d" d="M 3328 2828 
Q 3544 3216 3844 3400 
Q 4144 3584 4550 3584 
Q 5097 3584 5394 3201 
Q 5691 2819 5691 2113 
L 5691 0 
L 5113 0 
L 5113 2094 
Q 5113 2597 4934 2840 
Q 4756 3084 4391 3084 
Q 3944 3084 3684 2787 
Q 3425 2491 3425 1978 
L 3425 0 
L 2847 0 
L 2847 2094 
Q 2847 2600 2669 2842 
Q 2491 3084 2119 3084 
Q 1678 3084 1418 2786 
Q 1159 2488 1159 1978 
L 1159 0 
L 581 0 
L 581 3500 
L 1159 3500 
L 1159 2956 
Q 1356 3278 1631 3431 
Q 1906 3584 2284 3584 
Q 2666 3584 2933 3390 
Q 3200 3197 3328 2828 
z
" transform="scale(0.015625)"/>
     <path id="DejaVuSans-74" d="M 1172 4494 
L 1172 3500 
L 2356 3500 
L 2356 3053 
L 1172 3053 
L 1172 1153 
Q 1172 725 1289 603 
Q 1406 481 1766 481 
L 2356 481 
L 2356 0 
L 1766 0 
Q 1100 0 847 248 
Q 594 497 594 1153 
L 594 3053 
L 172 3053 
L 172 3500 
L 594 3500 
L 594 4494 
L 1172 4494 
z
" transform="scale(0.015625)"/>
    </defs>
    <use xlink:href="#DejaVuSans-41"/>
    <use xlink:href="#DejaVuSans-64" x="66.658203"/>
    <use xlink:href="#DejaVuSans-61" x="130.134766"/>
    <use xlink:href="#DejaVuSans-6e" x="191.414062"/>
    <use xlink:href="#DejaVuSans-69" x="254.792969"/>
    <use xlink:href="#DejaVuSans-20" x="282.576172"/>
    <use xlink:href="#DejaVuSans-54" x="314.363281"/>
    <use xlink:href="#DejaVuSans-72" x="360.697266"/>
    <use xlink:href="#DejaVuSans-61" x="401.810547"/>
    <use xlink:href="#DejaVuSans-6e" x="463.089844"/>
    <use xlink:href="#DejaVuSans-73" x="526.46875"/>
    <use xlink:href="#DejaVuSans-6d" x="578.568359"/>
    <use xlink:href="#DejaVuSans-69" x="675.980469"/>
    <use xlink:href="#DejaVuSans-73" x="703.763672"/>
    <use xlink:href="#DejaVuSans-73" x="755.863281"/>
    <use xlink:href="#DejaVuSans-69" x="807.962891"/>
    <use xlink:href="#DejaVuSans-6f" x="835.746094"/>
    <use xlink:href="#DejaVuSans-6e" x="896.927734"/>
    <use xlink:href="#DejaVuSans-20" x="960.306641"/>
    <use xlink:href="#DejaVuSans-4c" x="992.09375"/>
    <use xlink:href="#DejaVuSans-69" x="1047.806641"/>
    <use xlink:href="#DejaVuSans-6d" x="1075.589844"/>
    <use xlink:href="#DejaVuSans-69" x="1173.001953"/>
    <use xlink:href="#DejaVuSans-74" x="1200.785156"/>
    <use xlink:href="#DejaVuSans-65" x="1239.994141"/>
    <use xlink:href="#DejaVuSans-64" x="1301.517578"/>
   </g>
  </g>
 </g>
 <defs>
  <clipPath id="pa6fdc06c8a">
   <rect x="45.267188" y="48.331875" width="937.608918" height="253.385938"/>
  </clipPath>
  <clipPath id="p7f809bede4">
   <rect x="45.267188" y="331.135938" width="937.608918" height="253.385937"/>
  </clipPath>
 </defs>
</svg>
