<?xml version="1.0" encoding="utf-8" standalone="no"?>
<!DOCTYPE svg PUBLIC "-//W3C//DTD SVG 1.1//EN"
  "http://www.w3.org/Graphics/SVG/1.1/DTD/svg11.dtd">
<svg xmlns:xlink="http://www.w3.org/1999/xlink" width="1008pt" height="612pt" viewBox="0 0 1008 612" xmlns="http://www.w3.org/2000/svg" version="1.1">
 <metadata>
  <rdf:RDF xmlns:dc="http://purl.org/dc/elements/1.1/" xmlns:cc="http://creativecommons.org/ns#" xmlns:rdf="http://www.w3.org/1999/02/22-rdf-syntax-ns#">
   <cc:Work>
    <dc:type rdf:resource="http://purl.org/dc/dcmitype/StillImage"/>
    <dc:date>2022-11-20T19:46:55.555424</dc:date>
    <dc:format>image/svg+xml</dc:format>
    <dc:creator>
     <cc:Agent>
      <dc:title>Matplotlib v3.5.2, https://matplotlib.org/</dc:title>
     </cc:Agent>
    </dc:creator>
   </cc:Work>
  </rdf:RDF>
 </metadata>
 <defs>
  <style type="text/css">*{stroke-linejoin: round; stroke-linecap: butt}</style>
 </defs>
 <g id="figure_1">
  <g id="patch_1">
   <path d="M 0 612 
L 1008 612 
L 1008 0 
L 0 0 
z
" style="fill: #ffffff"/>
  </g>
  <g id="axes_1">
   <g id="patch_2">
    <path d="M 38.904688 301.717812 
L 982.876106 301.717812 
L 982.876106 48.331875 
L 38.904688 48.331875 
z
" style="fill: #ffffff"/>
   </g>
   <g id="matplotlib.axis_1">
    <g id="xtick_1">
     <g id="line2d_1">
      <path d="M 76.432192 301.717812 
L 76.432192 48.331875 
" clip-path="url(#pdb7f258f68)" style="fill: none; stroke-dasharray: 2.96,1.28; stroke-dashoffset: 0; stroke: #b0b0b0; stroke-width: 0.8"/>
     </g>
     <g id="line2d_2">
      <defs>
       <path id="m02fe1608f6" d="M 0 0 
L 0 3.5 
" style="stroke: #000000; stroke-width: 0.8"/>
      </defs>
      <g>
       <use xlink:href="#m02fe1608f6" x="76.432192" y="301.717812" style="stroke: #000000; stroke-width: 0.8"/>
      </g>
     </g>
    </g>
    <g id="xtick_2">
     <g id="line2d_3">
      <path d="M 159.826646 301.717812 
L 159.826646 48.331875 
" clip-path="url(#pdb7f258f68)" style="fill: none; stroke-dasharray: 2.96,1.28; stroke-dashoffset: 0; stroke: #b0b0b0; stroke-width: 0.8"/>
     </g>
     <g id="line2d_4">
      <g>
       <use xlink:href="#m02fe1608f6" x="159.826646" y="301.717812" style="stroke: #000000; stroke-width: 0.8"/>
      </g>
     </g>
    </g>
    <g id="xtick_3">
     <g id="line2d_5">
      <path d="M 235.150669 301.717812 
L 235.150669 48.331875 
" clip-path="url(#pdb7f258f68)" style="fill: none; stroke-dasharray: 2.96,1.28; stroke-dashoffset: 0; stroke: #b0b0b0; stroke-width: 0.8"/>
     </g>
     <g id="line2d_6">
      <g>
       <use xlink:href="#m02fe1608f6" x="235.150669" y="301.717812" style="stroke: #000000; stroke-width: 0.8"/>
      </g>
     </g>
    </g>
    <g id="xtick_4">
     <g id="line2d_7">
      <path d="M 318.545123 301.717812 
L 318.545123 48.331875 
" clip-path="url(#pdb7f258f68)" style="fill: none; stroke-dasharray: 2.96,1.28; stroke-dashoffset: 0; stroke: #b0b0b0; stroke-width: 0.8"/>
     </g>
     <g id="line2d_8">
      <g>
       <use xlink:href="#m02fe1608f6" x="318.545123" y="301.717812" style="stroke: #000000; stroke-width: 0.8"/>
      </g>
     </g>
    </g>
    <g id="xtick_5">
     <g id="line2d_9">
      <path d="M 399.249434 301.717812 
L 399.249434 48.331875 
" clip-path="url(#pdb7f258f68)" style="fill: none; stroke-dasharray: 2.96,1.28; stroke-dashoffset: 0; stroke: #b0b0b0; stroke-width: 0.8"/>
     </g>
     <g id="line2d_10">
      <g>
       <use xlink:href="#m02fe1608f6" x="399.249434" y="301.717812" style="stroke: #000000; stroke-width: 0.8"/>
      </g>
     </g>
    </g>
    <g id="xtick_6">
     <g id="line2d_11">
      <path d="M 482.643888 301.717812 
L 482.643888 48.331875 
" clip-path="url(#pdb7f258f68)" style="fill: none; stroke-dasharray: 2.96,1.28; stroke-dashoffset: 0; stroke: #b0b0b0; stroke-width: 0.8"/>
     </g>
     <g id="line2d_12">
      <g>
       <use xlink:href="#m02fe1608f6" x="482.643888" y="301.717812" style="stroke: #000000; stroke-width: 0.8"/>
      </g>
     </g>
    </g>
    <g id="xtick_7">
     <g id="line2d_13">
      <path d="M 563.348198 301.717812 
L 563.348198 48.331875 
" clip-path="url(#pdb7f258f68)" style="fill: none; stroke-dasharray: 2.96,1.28; stroke-dashoffset: 0; stroke: #b0b0b0; stroke-width: 0.8"/>
     </g>
     <g id="line2d_14">
      <g>
       <use xlink:href="#m02fe1608f6" x="563.348198" y="301.717812" style="stroke: #000000; stroke-width: 0.8"/>
      </g>
     </g>
    </g>
    <g id="xtick_8">
     <g id="line2d_15">
      <path d="M 646.742653 301.717812 
L 646.742653 48.331875 
" clip-path="url(#pdb7f258f68)" style="fill: none; stroke-dasharray: 2.96,1.28; stroke-dashoffset: 0; stroke: #b0b0b0; stroke-width: 0.8"/>
     </g>
     <g id="line2d_16">
      <g>
       <use xlink:href="#m02fe1608f6" x="646.742653" y="301.717812" style="stroke: #000000; stroke-width: 0.8"/>
      </g>
     </g>
    </g>
    <g id="xtick_9">
     <g id="line2d_17">
      <path d="M 730.137107 301.717812 
L 730.137107 48.331875 
" clip-path="url(#pdb7f258f68)" style="fill: none; stroke-dasharray: 2.96,1.28; stroke-dashoffset: 0; stroke: #b0b0b0; stroke-width: 0.8"/>
     </g>
     <g id="line2d_18">
      <g>
       <use xlink:href="#m02fe1608f6" x="730.137107" y="301.717812" style="stroke: #000000; stroke-width: 0.8"/>
      </g>
     </g>
    </g>
    <g id="xtick_10">
     <g id="line2d_19">
      <path d="M 810.841417 301.717812 
L 810.841417 48.331875 
" clip-path="url(#pdb7f258f68)" style="fill: none; stroke-dasharray: 2.96,1.28; stroke-dashoffset: 0; stroke: #b0b0b0; stroke-width: 0.8"/>
     </g>
     <g id="line2d_20">
      <g>
       <use xlink:href="#m02fe1608f6" x="810.841417" y="301.717812" style="stroke: #000000; stroke-width: 0.8"/>
      </g>
     </g>
    </g>
    <g id="xtick_11">
     <g id="line2d_21">
      <path d="M 894.235872 301.717812 
L 894.235872 48.331875 
" clip-path="url(#pdb7f258f68)" style="fill: none; stroke-dasharray: 2.96,1.28; stroke-dashoffset: 0; stroke: #b0b0b0; stroke-width: 0.8"/>
     </g>
     <g id="line2d_22">
      <g>
       <use xlink:href="#m02fe1608f6" x="894.235872" y="301.717812" style="stroke: #000000; stroke-width: 0.8"/>
      </g>
     </g>
    </g>
    <g id="xtick_12">
     <g id="line2d_23">
      <path d="M 974.940182 301.717812 
L 974.940182 48.331875 
" clip-path="url(#pdb7f258f68)" style="fill: none; stroke-dasharray: 2.96,1.28; stroke-dashoffset: 0; stroke: #b0b0b0; stroke-width: 0.8"/>
     </g>
     <g id="line2d_24">
      <g>
       <use xlink:href="#m02fe1608f6" x="974.940182" y="301.717812" style="stroke: #000000; stroke-width: 0.8"/>
      </g>
     </g>
    </g>
   </g>
   <g id="matplotlib.axis_2">
    <g id="ytick_1">
     <g id="line2d_25">
      <path d="M 38.904688 270.752486 
L 982.876106 270.752486 
" clip-path="url(#pdb7f258f68)" style="fill: none; stroke-dasharray: 2.96,1.28; stroke-dashoffset: 0; stroke: #b0b0b0; stroke-width: 0.8"/>
     </g>
     <g id="line2d_26">
      <defs>
       <path id="mdc6619e508" d="M 0 0 
L -3.5 0 
" style="stroke: #000000; stroke-width: 0.8"/>
      </defs>
      <g>
       <use xlink:href="#mdc6619e508" x="38.904688" y="270.752486" style="stroke: #000000; stroke-width: 0.8"/>
      </g>
     </g>
     <g id="text_1">
      <!-- 650 -->
      <g transform="translate(12.817187 274.551704)scale(0.1 -0.1)">
       <defs>
        <path id="DejaVuSans-36" d="M 2113 2584 
Q 1688 2584 1439 2293 
Q 1191 2003 1191 1497 
Q 1191 994 1439 701 
Q 1688 409 2113 409 
Q 2538 409 2786 701 
Q 3034 994 3034 1497 
Q 3034 2003 2786 2293 
Q 2538 2584 2113 2584 
z
M 3366 4563 
L 3366 3988 
Q 3128 4100 2886 4159 
Q 2644 4219 2406 4219 
Q 1781 4219 1451 3797 
Q 1122 3375 1075 2522 
Q 1259 2794 1537 2939 
Q 1816 3084 2150 3084 
Q 2853 3084 3261 2657 
Q 3669 2231 3669 1497 
Q 3669 778 3244 343 
Q 2819 -91 2113 -91 
Q 1303 -91 875 529 
Q 447 1150 447 2328 
Q 447 3434 972 4092 
Q 1497 4750 2381 4750 
Q 2619 4750 2861 4703 
Q 3103 4656 3366 4563 
z
" transform="scale(0.015625)"/>
        <path id="DejaVuSans-35" d="M 691 4666 
L 3169 4666 
L 3169 4134 
L 1269 4134 
L 1269 2991 
Q 1406 3038 1543 3061 
Q 1681 3084 1819 3084 
Q 2600 3084 3056 2656 
Q 3513 2228 3513 1497 
Q 3513 744 3044 326 
Q 2575 -91 1722 -91 
Q 1428 -91 1123 -41 
Q 819 9 494 109 
L 494 744 
Q 775 591 1075 516 
Q 1375 441 1709 441 
Q 2250 441 2565 725 
Q 2881 1009 2881 1497 
Q 2881 1984 2565 2268 
Q 2250 2553 1709 2553 
Q 1456 2553 1204 2497 
Q 953 2441 691 2322 
L 691 4666 
z
" transform="scale(0.015625)"/>
        <path id="DejaVuSans-30" d="M 2034 4250 
Q 1547 4250 1301 3770 
Q 1056 3291 1056 2328 
Q 1056 1369 1301 889 
Q 1547 409 2034 409 
Q 2525 409 2770 889 
Q 3016 1369 3016 2328 
Q 3016 3291 2770 3770 
Q 2525 4250 2034 4250 
z
M 2034 4750 
Q 2819 4750 3233 4129 
Q 3647 3509 3647 2328 
Q 3647 1150 3233 529 
Q 2819 -91 2034 -91 
Q 1250 -91 836 529 
Q 422 1150 422 2328 
Q 422 3509 836 4129 
Q 1250 4750 2034 4750 
z
" transform="scale(0.015625)"/>
       </defs>
       <use xlink:href="#DejaVuSans-36"/>
       <use xlink:href="#DejaVuSans-35" x="63.623047"/>
       <use xlink:href="#DejaVuSans-30" x="127.246094"/>
      </g>
     </g>
    </g>
    <g id="ytick_2">
     <g id="line2d_27">
      <path d="M 38.904688 230.981965 
L 982.876106 230.981965 
" clip-path="url(#pdb7f258f68)" style="fill: none; stroke-dasharray: 2.96,1.28; stroke-dashoffset: 0; stroke: #b0b0b0; stroke-width: 0.8"/>
     </g>
     <g id="line2d_28">
      <g>
       <use xlink:href="#mdc6619e508" x="38.904688" y="230.981965" style="stroke: #000000; stroke-width: 0.8"/>
      </g>
     </g>
     <g id="text_2">
      <!-- 700 -->
      <g transform="translate(12.817187 234.781184)scale(0.1 -0.1)">
       <defs>
        <path id="DejaVuSans-37" d="M 525 4666 
L 3525 4666 
L 3525 4397 
L 1831 0 
L 1172 0 
L 2766 4134 
L 525 4134 
L 525 4666 
z
" transform="scale(0.015625)"/>
       </defs>
       <use xlink:href="#DejaVuSans-37"/>
       <use xlink:href="#DejaVuSans-30" x="63.623047"/>
       <use xlink:href="#DejaVuSans-30" x="127.246094"/>
      </g>
     </g>
    </g>
    <g id="ytick_3">
     <g id="line2d_29">
      <path d="M 38.904688 191.211445 
L 982.876106 191.211445 
" clip-path="url(#pdb7f258f68)" style="fill: none; stroke-dasharray: 2.96,1.28; stroke-dashoffset: 0; stroke: #b0b0b0; stroke-width: 0.8"/>
     </g>
     <g id="line2d_30">
      <g>
       <use xlink:href="#mdc6619e508" x="38.904688" y="191.211445" style="stroke: #000000; stroke-width: 0.8"/>
      </g>
     </g>
     <g id="text_3">
      <!-- 750 -->
      <g transform="translate(12.817187 195.010664)scale(0.1 -0.1)">
       <use xlink:href="#DejaVuSans-37"/>
       <use xlink:href="#DejaVuSans-35" x="63.623047"/>
       <use xlink:href="#DejaVuSans-30" x="127.246094"/>
      </g>
     </g>
    </g>
    <g id="ytick_4">
     <g id="line2d_31">
      <path d="M 38.904688 151.440925 
L 982.876106 151.440925 
" clip-path="url(#pdb7f258f68)" style="fill: none; stroke-dasharray: 2.96,1.28; stroke-dashoffset: 0; stroke: #b0b0b0; stroke-width: 0.8"/>
     </g>
     <g id="line2d_32">
      <g>
       <use xlink:href="#mdc6619e508" x="38.904688" y="151.440925" style="stroke: #000000; stroke-width: 0.8"/>
      </g>
     </g>
     <g id="text_4">
      <!-- 800 -->
      <g transform="translate(12.817187 155.240144)scale(0.1 -0.1)">
       <defs>
        <path id="DejaVuSans-38" d="M 2034 2216 
Q 1584 2216 1326 1975 
Q 1069 1734 1069 1313 
Q 1069 891 1326 650 
Q 1584 409 2034 409 
Q 2484 409 2743 651 
Q 3003 894 3003 1313 
Q 3003 1734 2745 1975 
Q 2488 2216 2034 2216 
z
M 1403 2484 
Q 997 2584 770 2862 
Q 544 3141 544 3541 
Q 544 4100 942 4425 
Q 1341 4750 2034 4750 
Q 2731 4750 3128 4425 
Q 3525 4100 3525 3541 
Q 3525 3141 3298 2862 
Q 3072 2584 2669 2484 
Q 3125 2378 3379 2068 
Q 3634 1759 3634 1313 
Q 3634 634 3220 271 
Q 2806 -91 2034 -91 
Q 1263 -91 848 271 
Q 434 634 434 1313 
Q 434 1759 690 2068 
Q 947 2378 1403 2484 
z
M 1172 3481 
Q 1172 3119 1398 2916 
Q 1625 2713 2034 2713 
Q 2441 2713 2670 2916 
Q 2900 3119 2900 3481 
Q 2900 3844 2670 4047 
Q 2441 4250 2034 4250 
Q 1625 4250 1398 4047 
Q 1172 3844 1172 3481 
z
" transform="scale(0.015625)"/>
       </defs>
       <use xlink:href="#DejaVuSans-38"/>
       <use xlink:href="#DejaVuSans-30" x="63.623047"/>
       <use xlink:href="#DejaVuSans-30" x="127.246094"/>
      </g>
     </g>
    </g>
    <g id="ytick_5">
     <g id="line2d_33">
      <path d="M 38.904688 111.670405 
L 982.876106 111.670405 
" clip-path="url(#pdb7f258f68)" style="fill: none; stroke-dasharray: 2.96,1.28; stroke-dashoffset: 0; stroke: #b0b0b0; stroke-width: 0.8"/>
     </g>
     <g id="line2d_34">
      <g>
       <use xlink:href="#mdc6619e508" x="38.904688" y="111.670405" style="stroke: #000000; stroke-width: 0.8"/>
      </g>
     </g>
     <g id="text_5">
      <!-- 850 -->
      <g transform="translate(12.817187 115.469624)scale(0.1 -0.1)">
       <use xlink:href="#DejaVuSans-38"/>
       <use xlink:href="#DejaVuSans-35" x="63.623047"/>
       <use xlink:href="#DejaVuSans-30" x="127.246094"/>
      </g>
     </g>
    </g>
    <g id="ytick_6">
     <g id="line2d_35">
      <path d="M 38.904688 71.899885 
L 982.876106 71.899885 
" clip-path="url(#pdb7f258f68)" style="fill: none; stroke-dasharray: 2.96,1.28; stroke-dashoffset: 0; stroke: #b0b0b0; stroke-width: 0.8"/>
     </g>
     <g id="line2d_36">
      <g>
       <use xlink:href="#mdc6619e508" x="38.904688" y="71.899885" style="stroke: #000000; stroke-width: 0.8"/>
      </g>
     </g>
     <g id="text_6">
      <!-- 900 -->
      <g transform="translate(12.817187 75.699104)scale(0.1 -0.1)">
       <defs>
        <path id="DejaVuSans-39" d="M 703 97 
L 703 672 
Q 941 559 1184 500 
Q 1428 441 1663 441 
Q 2288 441 2617 861 
Q 2947 1281 2994 2138 
Q 2813 1869 2534 1725 
Q 2256 1581 1919 1581 
Q 1219 1581 811 2004 
Q 403 2428 403 3163 
Q 403 3881 828 4315 
Q 1253 4750 1959 4750 
Q 2769 4750 3195 4129 
Q 3622 3509 3622 2328 
Q 3622 1225 3098 567 
Q 2575 -91 1691 -91 
Q 1453 -91 1209 -44 
Q 966 3 703 97 
z
M 1959 2075 
Q 2384 2075 2632 2365 
Q 2881 2656 2881 3163 
Q 2881 3666 2632 3958 
Q 2384 4250 1959 4250 
Q 1534 4250 1286 3958 
Q 1038 3666 1038 3163 
Q 1038 2656 1286 2365 
Q 1534 2075 1959 2075 
z
" transform="scale(0.015625)"/>
       </defs>
       <use xlink:href="#DejaVuSans-39"/>
       <use xlink:href="#DejaVuSans-30" x="63.623047"/>
       <use xlink:href="#DejaVuSans-30" x="127.246094"/>
      </g>
     </g>
    </g>
   </g>
   <g id="line2d_37">
    <path d="M 81.812479 233.885213 
L 84.502623 223.70396 
L 87.192767 209.585426 
L 89.88291 206.88103 
L 92.573054 206.642407 
L 100.643485 196.9384 
L 103.333629 196.580466 
L 106.023772 193.716988 
L 108.713916 198.608762 
L 111.40406 213.72156 
L 119.474491 220.920024 
L 122.164634 210.937623 
L 124.854778 207.437818 
L 127.544922 207.994605 
L 130.235066 221.039335 
L 138.305497 227.323078 
L 140.99564 189.461543 
L 146.375928 172.240907 
L 149.066071 179.518913 
L 157.136502 172.877236 
L 159.826646 165.837854 
L 162.51679 148.179743 
L 165.206933 151.79886 
L 167.897077 152.59427 
L 175.967508 159.713194 
L 178.657652 152.59427 
L 181.347796 148.378595 
L 184.037939 143.645903 
L 186.728083 148.418366 
L 194.798514 172.638613 
L 197.488658 153.866927 
L 200.178801 153.787386 
L 202.868945 165.121984 
L 205.559089 161.463096 
L 213.62952 160.309751 
L 216.319663 168.025232 
L 219.009807 169.576282 
L 221.699951 206.88103 
L 224.390094 184.808392 
L 232.460525 197.256564 
L 237.840813 191.012593 
L 240.530957 201.034764 
L 243.2211 219.050809 
L 251.291531 256.793033 
L 253.981675 254.526113 
L 256.671819 251.503554 
L 259.361962 234.998788 
L 262.052106 238.259971 
L 270.122537 222.988091 
L 272.812681 232.453475 
L 275.502824 212.011427 
L 278.192968 199.762107 
L 288.953543 210.380836 
L 291.643687 206.006079 
L 297.023974 213.284084 
L 299.714118 214.079494 
L 307.784549 202.347191 
L 310.474692 200.915452 
L 313.164836 190.853511 
L 315.85498 182.342619 
L 318.545123 171.68412 
L 326.615554 164.087951 
L 329.305698 164.883361 
L 331.995842 172.360219 
L 334.685985 157.724668 
L 337.376129 155.497518 
L 345.44656 162.5369 
L 348.136704 152.673811 
L 350.826848 156.969028 
L 364.277566 152.355647 
L 366.96771 153.190828 
L 369.657853 155.6566 
L 372.347997 150.009187 
L 375.038141 166.871887 
L 383.108572 166.792346 
L 385.798715 171.326185 
L 388.488859 178.56442 
L 391.179003 167.508215 
L 393.869146 208.233228 
L 401.939578 209.227491 
L 407.319865 225.255011 
L 410.010009 229.112751 
L 412.700152 252.139882 
L 420.770583 259.855363 
L 423.460727 262.997234 
L 426.150871 252.975063 
L 428.841014 271.030879 
L 431.531158 281.928002 
L 439.601589 279.541771 
L 442.291733 266.815204 
L 444.981876 263.235857 
L 447.67202 270.593403 
L 450.362164 252.378505 
L 458.432595 250.588832 
L 461.122739 259.576969 
L 463.812882 258.82133 
L 466.503026 244.30509 
L 469.19317 240.288267 
L 477.263601 236.032822 
L 479.953744 242.754039 
L 482.643888 242.077941 
L 485.334032 237.703183 
L 488.024175 249.037782 
L 496.094606 253.094375 
L 498.78475 258.145231 
L 501.474894 263.911956 
L 504.165037 261.764348 
L 506.855181 262.241594 
L 514.925612 271.587666 
L 517.615756 270.155928 
L 520.3059 270.35478 
L 522.996043 282.763183 
L 525.686187 282.52456 
L 533.756618 288.012891 
L 536.446762 281.490526 
L 539.136905 289.206007 
L 541.827049 287.17771 
L 544.517193 283.479052 
L 552.587624 281.01328 
L 555.277767 276.837375 
L 557.967911 290.20027 
L 560.658055 281.251903 
L 563.348198 275.564718 
L 571.41863 267.29245 
L 574.108773 271.945601 
L 576.798917 264.428973 
L 579.489061 264.269891 
L 582.179204 255.520376 
L 590.249635 247.009485 
L 592.939779 249.912733 
L 595.629923 246.969715 
L 598.320066 256.236246 
L 601.01021 261.048479 
L 609.080641 243.310827 
L 611.770785 230.504719 
L 614.460928 226.448126 
L 617.151072 218.613334 
L 619.841216 206.523096 
L 627.911647 209.227491 
L 630.601791 225.851568 
L 633.291934 215.908938 
L 635.982078 210.380836 
L 638.672222 211.295558 
L 646.742653 206.483325 
L 649.432796 206.761719 
L 652.12294 206.721948 
L 654.813084 213.801101 
L 657.503227 208.312769 
L 665.573658 194.751022 
L 670.953946 199.96096 
L 673.64409 184.172063 
L 676.334233 182.819866 
L 687.094808 179.558683 
L 689.784952 173.632876 
L 692.475095 179.240519 
L 695.165239 185.245867 
L 703.23567 197.69404 
L 705.925814 193.557906 
L 708.615957 191.092134 
L 711.306101 196.500925 
L 713.996245 195.268038 
L 722.066676 208.153687 
L 724.756819 190.01833 
L 730.137107 195.864596 
L 732.827251 191.052363 
L 740.897682 186.359442 
L 743.587825 191.211445 
L 746.277969 186.916229 
L 748.968113 167.547986 
L 751.658256 163.491393 
L 759.728687 150.645515 
L 762.418831 147.026398 
L 765.108975 149.014924 
L 767.799118 159.395029 
L 770.489262 159.951817 
L 778.559693 152.952205 
L 781.249837 141.299443 
L 783.939981 146.230987 
L 786.630124 160.031358 
L 789.320268 176.416812 
L 797.390699 197.097482 
L 800.080843 201.154075 
L 802.770986 217.897464 
L 805.46113 215.869168 
L 808.151274 204.57434 
L 816.221705 212.886379 
L 818.911848 196.9384 
L 824.292136 187.154852 
L 826.982279 186.677606 
L 835.05271 169.854676 
L 837.742854 162.934606 
L 840.432998 144.520855 
L 843.123142 149.850105 
L 845.813285 151.04322 
L 853.883716 140.185868 
L 856.57386 138.435965 
L 859.264004 127.697925 
L 861.954147 130.879566 
L 864.644291 71.581721 
L 872.714722 64.383257 
L 875.404866 69.632966 
L 880.785153 59.849418 
L 883.475297 69.473883 
L 891.545728 67.127423 
L 894.235872 94.370229 
L 896.926015 100.892594 
L 899.616159 100.494889 
L 902.306303 97.273477 
L 910.376734 93.415737 
L 915.757021 92.819179 
L 918.447165 116.681491 
L 921.137308 111.113618 
L 929.207739 110.874995 
L 931.897883 104.790105 
L 934.588027 107.375189 
L 937.27817 105.14804 
L 939.968314 104.35263 
L 939.968314 104.35263 
" clip-path="url(#pdb7f258f68)" style="fill: none; stroke: #1f77b4; stroke-width: 1.5; stroke-linecap: square"/>
   </g>
   <g id="line2d_38">
    <path d="M 92.573054 216.139607 
L 100.643485 208.750245 
L 103.333629 203.325546 
L 106.023772 200.151858 
L 108.713916 198.497405 
L 111.40406 199.913235 
L 119.474491 204.70956 
L 124.854778 210.325157 
L 127.544922 212.202326 
L 130.235066 213.665881 
L 138.305497 214.946492 
L 140.99564 210.651276 
L 146.375928 203.611894 
L 149.066071 197.916755 
L 157.136502 188.284335 
L 159.826646 175.98729 
L 162.51679 167.73093 
L 165.206933 163.642521 
L 167.897077 158.257592 
L 175.967508 155.624784 
L 178.657652 152.976067 
L 181.347796 153.015838 
L 184.037939 151.385247 
L 186.728083 150.550066 
L 194.798514 153.13515 
L 197.488658 153.389681 
L 200.178801 154.471439 
L 202.868945 158.766655 
L 205.559089 161.375601 
L 213.62952 158.909829 
L 216.319663 161.74149 
L 219.009807 164.899269 
L 221.699951 173.251079 
L 224.390094 177.920138 
L 232.460525 185.3095 
L 237.840813 189.906972 
L 240.530957 196.198669 
L 243.2211 198.632624 
L 251.291531 213.029553 
L 253.981675 224.483463 
L 256.671819 236.581655 
L 259.361962 243.37446 
L 262.052106 247.216292 
L 270.122537 240.455303 
L 272.812681 236.040776 
L 275.502824 228.14235 
L 278.192968 221.095014 
L 288.953543 215.519187 
L 291.643687 212.122785 
L 294.33383 207.573037 
L 297.023974 207.827569 
L 299.714118 210.691046 
L 307.784549 209.084317 
L 310.474692 208.066192 
L 313.164836 204.295947 
L 315.85498 198.107654 
L 318.545123 189.628579 
L 326.615554 181.976731 
L 329.305698 174.770312 
L 331.995842 171.071654 
L 334.685985 166.148064 
L 337.376129 162.910743 
L 345.44656 162.600533 
L 348.136704 160.158623 
L 350.826848 157.080385 
L 364.277566 156.006581 
L 366.96771 155.545243 
L 369.657853 154.169183 
L 372.347997 153.636258 
L 375.038141 155.61683 
L 383.108572 158.50417 
L 385.798715 162.131241 
L 388.488859 166.712805 
L 391.179003 170.212611 
L 393.869146 178.484879 
L 401.939578 186.971908 
L 407.319865 197.757673 
L 410.010009 207.867339 
L 412.700152 224.793673 
L 420.770583 235.1181 
L 423.460727 245.872048 
L 426.150871 251.416059 
L 428.841014 259.799684 
L 431.531158 265.757308 
L 439.601589 269.69459 
L 442.291733 270.458184 
L 444.981876 272.510343 
L 447.67202 272.422847 
L 450.362164 266.512948 
L 458.432595 260.72236 
L 461.122739 259.274713 
L 463.812882 258.391808 
L 466.503026 253.134145 
L 469.19317 250.716098 
L 477.263601 247.804895 
L 482.643888 241.091632 
L 485.334032 239.77125 
L 488.024175 241.521153 
L 496.094606 244.933464 
L 498.78475 248.011702 
L 501.474894 252.378505 
L 504.165037 257.190738 
L 506.855181 259.831501 
L 514.925612 263.530159 
L 517.615756 265.932299 
L 520.3059 267.220863 
L 525.686187 275.477223 
L 533.756618 278.762268 
L 536.446762 281.029188 
L 539.136905 284.799433 
L 541.827049 285.682339 
L 544.517193 285.873237 
L 552.587624 284.473315 
L 555.277767 283.542685 
L 557.967911 283.741537 
L 560.658055 282.556376 
L 563.348198 280.973509 
L 574.108773 277.250989 
L 576.798917 272.096729 
L 579.489061 268.700327 
L 582.179204 264.691458 
L 590.249635 260.634865 
L 592.939779 256.228292 
L 595.629923 252.73644 
L 598.320066 251.129711 
L 601.01021 252.235331 
L 609.080641 251.4956 
L 611.770785 247.613997 
L 614.460928 243.509679 
L 617.151072 235.985097 
L 619.841216 225.08002 
L 627.911647 218.263353 
L 630.601791 217.332723 
L 633.291934 215.224885 
L 635.982078 213.578386 
L 638.672222 214.532878 
L 646.742653 213.984045 
L 649.432796 210.166075 
L 652.12294 208.328677 
L 654.813084 209.01273 
L 657.503227 208.416172 
L 665.573658 206.069712 
L 670.953946 204.70956 
L 673.64409 200.199583 
L 676.334233 194.003336 
L 687.094808 188.252519 
L 692.475095 179.884801 
L 695.165239 180.099562 
L 703.23567 183.074397 
L 705.925814 185.874242 
L 711.306101 192.818174 
L 713.996245 194.822609 
L 722.066676 196.914538 
L 724.756819 196.206623 
L 730.137107 197.161115 
L 732.827251 196.071403 
L 740.897682 194.289684 
L 743.587825 190.901235 
L 746.277969 190.280815 
L 751.658256 179.105299 
L 759.728687 171.962514 
L 762.418831 163.125504 
L 765.108975 155.545243 
L 767.799118 153.914652 
L 770.489262 153.206736 
L 778.559693 153.668074 
L 781.249837 152.522683 
L 783.939981 151.965896 
L 786.630124 152.093162 
L 789.320268 155.386161 
L 797.390699 164.215216 
L 800.080843 176.186143 
L 802.770986 190.519438 
L 805.46113 201.687 
L 808.151274 207.318506 
L 816.221705 210.476285 
L 818.911848 209.63315 
L 824.292136 203.484628 
L 826.982279 197.646316 
L 835.05271 190.702383 
L 837.742854 180.712028 
L 840.432998 170.228519 
L 843.123142 162.767569 
L 845.813285 155.640692 
L 853.883716 149.706931 
L 856.57386 144.807203 
L 859.264004 141.442617 
L 861.954147 137.648509 
L 864.644291 121.756209 
L 872.714722 106.595687 
L 875.404866 92.835087 
L 880.785153 79.265386 
L 883.475297 66.984249 
L 891.545728 66.093389 
L 896.926015 78.342709 
L 899.616159 86.471804 
L 902.306303 92.031722 
L 910.376734 97.289385 
L 915.757021 96.979175 
L 918.447165 100.136954 
L 921.137308 102.2607 
L 929.207739 104.981004 
L 931.897883 107.255878 
L 934.588027 110.16708 
L 937.27817 107.860389 
L 939.968314 106.508192 
L 939.968314 106.508192 
" clip-path="url(#pdb7f258f68)" style="fill: none; stroke: #ff7f0e; stroke-width: 1.5; stroke-linecap: square"/>
   </g>
   <g id="patch_3">
    <path d="M 38.904688 301.717812 
L 38.904688 48.331875 
" style="fill: none; stroke: #000000; stroke-width: 0.8; stroke-linejoin: miter; stroke-linecap: square"/>
   </g>
   <g id="patch_4">
    <path d="M 982.876106 301.717812 
L 982.876106 48.331875 
" style="fill: none; stroke: #000000; stroke-width: 0.8; stroke-linejoin: miter; stroke-linecap: square"/>
   </g>
   <g id="patch_5">
    <path d="M 38.904687 301.717812 
L 982.876106 301.717812 
" style="fill: none; stroke: #000000; stroke-width: 0.8; stroke-linejoin: miter; stroke-linecap: square"/>
   </g>
   <g id="patch_6">
    <path d="M 38.904687 48.331875 
L 982.876106 48.331875 
" style="fill: none; stroke: #000000; stroke-width: 0.8; stroke-linejoin: miter; stroke-linecap: square"/>
   </g>
   <g id="text_7">
    <!-- Closing Price -->
    <g transform="translate(472.414459 42.331875)scale(0.12 -0.12)">
     <defs>
      <path id="DejaVuSans-43" d="M 4122 4306 
L 4122 3641 
Q 3803 3938 3442 4084 
Q 3081 4231 2675 4231 
Q 1875 4231 1450 3742 
Q 1025 3253 1025 2328 
Q 1025 1406 1450 917 
Q 1875 428 2675 428 
Q 3081 428 3442 575 
Q 3803 722 4122 1019 
L 4122 359 
Q 3791 134 3420 21 
Q 3050 -91 2638 -91 
Q 1578 -91 968 557 
Q 359 1206 359 2328 
Q 359 3453 968 4101 
Q 1578 4750 2638 4750 
Q 3056 4750 3426 4639 
Q 3797 4528 4122 4306 
z
" transform="scale(0.015625)"/>
      <path id="DejaVuSans-6c" d="M 603 4863 
L 1178 4863 
L 1178 0 
L 603 0 
L 603 4863 
z
" transform="scale(0.015625)"/>
      <path id="DejaVuSans-6f" d="M 1959 3097 
Q 1497 3097 1228 2736 
Q 959 2375 959 1747 
Q 959 1119 1226 758 
Q 1494 397 1959 397 
Q 2419 397 2687 759 
Q 2956 1122 2956 1747 
Q 2956 2369 2687 2733 
Q 2419 3097 1959 3097 
z
M 1959 3584 
Q 2709 3584 3137 3096 
Q 3566 2609 3566 1747 
Q 3566 888 3137 398 
Q 2709 -91 1959 -91 
Q 1206 -91 779 398 
Q 353 888 353 1747 
Q 353 2609 779 3096 
Q 1206 3584 1959 3584 
z
" transform="scale(0.015625)"/>
      <path id="DejaVuSans-73" d="M 2834 3397 
L 2834 2853 
Q 2591 2978 2328 3040 
Q 2066 3103 1784 3103 
Q 1356 3103 1142 2972 
Q 928 2841 928 2578 
Q 928 2378 1081 2264 
Q 1234 2150 1697 2047 
L 1894 2003 
Q 2506 1872 2764 1633 
Q 3022 1394 3022 966 
Q 3022 478 2636 193 
Q 2250 -91 1575 -91 
Q 1294 -91 989 -36 
Q 684 19 347 128 
L 347 722 
Q 666 556 975 473 
Q 1284 391 1588 391 
Q 1994 391 2212 530 
Q 2431 669 2431 922 
Q 2431 1156 2273 1281 
Q 2116 1406 1581 1522 
L 1381 1569 
Q 847 1681 609 1914 
Q 372 2147 372 2553 
Q 372 3047 722 3315 
Q 1072 3584 1716 3584 
Q 2034 3584 2315 3537 
Q 2597 3491 2834 3397 
z
" transform="scale(0.015625)"/>
      <path id="DejaVuSans-69" d="M 603 3500 
L 1178 3500 
L 1178 0 
L 603 0 
L 603 3500 
z
M 603 4863 
L 1178 4863 
L 1178 4134 
L 603 4134 
L 603 4863 
z
" transform="scale(0.015625)"/>
      <path id="DejaVuSans-6e" d="M 3513 2113 
L 3513 0 
L 2938 0 
L 2938 2094 
Q 2938 2591 2744 2837 
Q 2550 3084 2163 3084 
Q 1697 3084 1428 2787 
Q 1159 2491 1159 1978 
L 1159 0 
L 581 0 
L 581 3500 
L 1159 3500 
L 1159 2956 
Q 1366 3272 1645 3428 
Q 1925 3584 2291 3584 
Q 2894 3584 3203 3211 
Q 3513 2838 3513 2113 
z
" transform="scale(0.015625)"/>
      <path id="DejaVuSans-67" d="M 2906 1791 
Q 2906 2416 2648 2759 
Q 2391 3103 1925 3103 
Q 1463 3103 1205 2759 
Q 947 2416 947 1791 
Q 947 1169 1205 825 
Q 1463 481 1925 481 
Q 2391 481 2648 825 
Q 2906 1169 2906 1791 
z
M 3481 434 
Q 3481 -459 3084 -895 
Q 2688 -1331 1869 -1331 
Q 1566 -1331 1297 -1286 
Q 1028 -1241 775 -1147 
L 775 -588 
Q 1028 -725 1275 -790 
Q 1522 -856 1778 -856 
Q 2344 -856 2625 -561 
Q 2906 -266 2906 331 
L 2906 616 
Q 2728 306 2450 153 
Q 2172 0 1784 0 
Q 1141 0 747 490 
Q 353 981 353 1791 
Q 353 2603 747 3093 
Q 1141 3584 1784 3584 
Q 2172 3584 2450 3431 
Q 2728 3278 2906 2969 
L 2906 3500 
L 3481 3500 
L 3481 434 
z
" transform="scale(0.015625)"/>
      <path id="DejaVuSans-20" transform="scale(0.015625)"/>
      <path id="DejaVuSans-50" d="M 1259 4147 
L 1259 2394 
L 2053 2394 
Q 2494 2394 2734 2622 
Q 2975 2850 2975 3272 
Q 2975 3691 2734 3919 
Q 2494 4147 2053 4147 
L 1259 4147 
z
M 628 4666 
L 2053 4666 
Q 2838 4666 3239 4311 
Q 3641 3956 3641 3272 
Q 3641 2581 3239 2228 
Q 2838 1875 2053 1875 
L 1259 1875 
L 1259 0 
L 628 0 
L 628 4666 
z
" transform="scale(0.015625)"/>
      <path id="DejaVuSans-72" d="M 2631 2963 
Q 2534 3019 2420 3045 
Q 2306 3072 2169 3072 
Q 1681 3072 1420 2755 
Q 1159 2438 1159 1844 
L 1159 0 
L 581 0 
L 581 3500 
L 1159 3500 
L 1159 2956 
Q 1341 3275 1631 3429 
Q 1922 3584 2338 3584 
Q 2397 3584 2469 3576 
Q 2541 3569 2628 3553 
L 2631 2963 
z
" transform="scale(0.015625)"/>
      <path id="DejaVuSans-63" d="M 3122 3366 
L 3122 2828 
Q 2878 2963 2633 3030 
Q 2388 3097 2138 3097 
Q 1578 3097 1268 2742 
Q 959 2388 959 1747 
Q 959 1106 1268 751 
Q 1578 397 2138 397 
Q 2388 397 2633 464 
Q 2878 531 3122 666 
L 3122 134 
Q 2881 22 2623 -34 
Q 2366 -91 2075 -91 
Q 1284 -91 818 406 
Q 353 903 353 1747 
Q 353 2603 823 3093 
Q 1294 3584 2113 3584 
Q 2378 3584 2631 3529 
Q 2884 3475 3122 3366 
z
" transform="scale(0.015625)"/>
      <path id="DejaVuSans-65" d="M 3597 1894 
L 3597 1613 
L 953 1613 
Q 991 1019 1311 708 
Q 1631 397 2203 397 
Q 2534 397 2845 478 
Q 3156 559 3463 722 
L 3463 178 
Q 3153 47 2828 -22 
Q 2503 -91 2169 -91 
Q 1331 -91 842 396 
Q 353 884 353 1716 
Q 353 2575 817 3079 
Q 1281 3584 2069 3584 
Q 2775 3584 3186 3129 
Q 3597 2675 3597 1894 
z
M 3022 2063 
Q 3016 2534 2758 2815 
Q 2500 3097 2075 3097 
Q 1594 3097 1305 2825 
Q 1016 2553 972 2059 
L 3022 2063 
z
" transform="scale(0.015625)"/>
     </defs>
     <use xlink:href="#DejaVuSans-43"/>
     <use xlink:href="#DejaVuSans-6c" x="69.824219"/>
     <use xlink:href="#DejaVuSans-6f" x="97.607422"/>
     <use xlink:href="#DejaVuSans-73" x="158.789062"/>
     <use xlink:href="#DejaVuSans-69" x="210.888672"/>
     <use xlink:href="#DejaVuSans-6e" x="238.671875"/>
     <use xlink:href="#DejaVuSans-67" x="302.050781"/>
     <use xlink:href="#DejaVuSans-20" x="365.527344"/>
     <use xlink:href="#DejaVuSans-50" x="397.314453"/>
     <use xlink:href="#DejaVuSans-72" x="455.867188"/>
     <use xlink:href="#DejaVuSans-69" x="496.980469"/>
     <use xlink:href="#DejaVuSans-63" x="524.763672"/>
     <use xlink:href="#DejaVuSans-65" x="579.744141"/>
    </g>
   </g>
   <g id="legend_1">
    <g id="patch_7">
     <path d="M 911.144856 85.688125 
L 975.876106 85.688125 
Q 977.876106 85.688125 977.876106 83.688125 
L 977.876106 55.331875 
Q 977.876106 53.331875 975.876106 53.331875 
L 911.144856 53.331875 
Q 909.144856 53.331875 909.144856 55.331875 
L 909.144856 83.688125 
Q 909.144856 85.688125 911.144856 85.688125 
z
" style="fill: #ffffff; opacity: 0.8; stroke: #cccccc; stroke-linejoin: miter"/>
    </g>
    <g id="line2d_39">
     <path d="M 913.144856 61.430312 
L 923.144856 61.430312 
L 933.144856 61.430312 
" style="fill: none; stroke: #1f77b4; stroke-width: 1.5; stroke-linecap: square"/>
    </g>
    <g id="text_8">
     <!-- CLOSE -->
     <g transform="translate(941.144856 64.930312)scale(0.1 -0.1)">
      <defs>
       <path id="DejaVuSans-4c" d="M 628 4666 
L 1259 4666 
L 1259 531 
L 3531 531 
L 3531 0 
L 628 0 
L 628 4666 
z
" transform="scale(0.015625)"/>
       <path id="DejaVuSans-4f" d="M 2522 4238 
Q 1834 4238 1429 3725 
Q 1025 3213 1025 2328 
Q 1025 1447 1429 934 
Q 1834 422 2522 422 
Q 3209 422 3611 934 
Q 4013 1447 4013 2328 
Q 4013 3213 3611 3725 
Q 3209 4238 2522 4238 
z
M 2522 4750 
Q 3503 4750 4090 4092 
Q 4678 3434 4678 2328 
Q 4678 1225 4090 567 
Q 3503 -91 2522 -91 
Q 1538 -91 948 565 
Q 359 1222 359 2328 
Q 359 3434 948 4092 
Q 1538 4750 2522 4750 
z
" transform="scale(0.015625)"/>
       <path id="DejaVuSans-53" d="M 3425 4513 
L 3425 3897 
Q 3066 4069 2747 4153 
Q 2428 4238 2131 4238 
Q 1616 4238 1336 4038 
Q 1056 3838 1056 3469 
Q 1056 3159 1242 3001 
Q 1428 2844 1947 2747 
L 2328 2669 
Q 3034 2534 3370 2195 
Q 3706 1856 3706 1288 
Q 3706 609 3251 259 
Q 2797 -91 1919 -91 
Q 1588 -91 1214 -16 
Q 841 59 441 206 
L 441 856 
Q 825 641 1194 531 
Q 1563 422 1919 422 
Q 2459 422 2753 634 
Q 3047 847 3047 1241 
Q 3047 1584 2836 1778 
Q 2625 1972 2144 2069 
L 1759 2144 
Q 1053 2284 737 2584 
Q 422 2884 422 3419 
Q 422 4038 858 4394 
Q 1294 4750 2059 4750 
Q 2388 4750 2728 4690 
Q 3069 4631 3425 4513 
z
" transform="scale(0.015625)"/>
       <path id="DejaVuSans-45" d="M 628 4666 
L 3578 4666 
L 3578 4134 
L 1259 4134 
L 1259 2753 
L 3481 2753 
L 3481 2222 
L 1259 2222 
L 1259 531 
L 3634 531 
L 3634 0 
L 628 0 
L 628 4666 
z
" transform="scale(0.015625)"/>
      </defs>
      <use xlink:href="#DejaVuSans-43"/>
      <use xlink:href="#DejaVuSans-4c" x="69.824219"/>
      <use xlink:href="#DejaVuSans-4f" x="121.912109"/>
      <use xlink:href="#DejaVuSans-53" x="200.623047"/>
      <use xlink:href="#DejaVuSans-45" x="264.099609"/>
     </g>
    </g>
    <g id="line2d_40">
     <path d="M 913.144856 76.108437 
L 923.144856 76.108437 
L 933.144856 76.108437 
" style="fill: none; stroke: #ff7f0e; stroke-width: 1.5; stroke-linecap: square"/>
    </g>
    <g id="text_9">
     <!-- SMA5 -->
     <g transform="translate(941.144856 79.608437)scale(0.1 -0.1)">
      <defs>
       <path id="DejaVuSans-4d" d="M 628 4666 
L 1569 4666 
L 2759 1491 
L 3956 4666 
L 4897 4666 
L 4897 0 
L 4281 0 
L 4281 4097 
L 3078 897 
L 2444 897 
L 1241 4097 
L 1241 0 
L 628 0 
L 628 4666 
z
" transform="scale(0.015625)"/>
       <path id="DejaVuSans-41" d="M 2188 4044 
L 1331 1722 
L 3047 1722 
L 2188 4044 
z
M 1831 4666 
L 2547 4666 
L 4325 0 
L 3669 0 
L 3244 1197 
L 1141 1197 
L 716 0 
L 50 0 
L 1831 4666 
z
" transform="scale(0.015625)"/>
      </defs>
      <use xlink:href="#DejaVuSans-53"/>
      <use xlink:href="#DejaVuSans-4d" x="63.476562"/>
      <use xlink:href="#DejaVuSans-41" x="149.755859"/>
      <use xlink:href="#DejaVuSans-35" x="218.164062"/>
     </g>
    </g>
   </g>
  </g>
  <g id="axes_2">
   <g id="patch_8">
    <path d="M 38.904688 584.521875 
L 982.876106 584.521875 
L 982.876106 331.135938 
L 38.904688 331.135938 
z
" style="fill: #ffffff"/>
   </g>
   <g id="matplotlib.axis_3">
    <g id="xtick_13">
     <g id="line2d_41">
      <path d="M 76.432192 584.521875 
L 76.432192 331.135938 
" clip-path="url(#p338befcc0b)" style="fill: none; stroke-dasharray: 2.96,1.28; stroke-dashoffset: 0; stroke: #b0b0b0; stroke-width: 0.8"/>
     </g>
     <g id="line2d_42">
      <g>
       <use xlink:href="#m02fe1608f6" x="76.432192" y="584.521875" style="stroke: #000000; stroke-width: 0.8"/>
      </g>
     </g>
     <g id="text_10">
      <!-- 2022-01 -->
      <g transform="translate(55.540786 599.120312)scale(0.1 -0.1)">
       <defs>
        <path id="DejaVuSans-32" d="M 1228 531 
L 3431 531 
L 3431 0 
L 469 0 
L 469 531 
Q 828 903 1448 1529 
Q 2069 2156 2228 2338 
Q 2531 2678 2651 2914 
Q 2772 3150 2772 3378 
Q 2772 3750 2511 3984 
Q 2250 4219 1831 4219 
Q 1534 4219 1204 4116 
Q 875 4013 500 3803 
L 500 4441 
Q 881 4594 1212 4672 
Q 1544 4750 1819 4750 
Q 2544 4750 2975 4387 
Q 3406 4025 3406 3419 
Q 3406 3131 3298 2873 
Q 3191 2616 2906 2266 
Q 2828 2175 2409 1742 
Q 1991 1309 1228 531 
z
" transform="scale(0.015625)"/>
        <path id="DejaVuSans-2d" d="M 313 2009 
L 1997 2009 
L 1997 1497 
L 313 1497 
L 313 2009 
z
" transform="scale(0.015625)"/>
        <path id="DejaVuSans-31" d="M 794 531 
L 1825 531 
L 1825 4091 
L 703 3866 
L 703 4441 
L 1819 4666 
L 2450 4666 
L 2450 531 
L 3481 531 
L 3481 0 
L 794 0 
L 794 531 
z
" transform="scale(0.015625)"/>
       </defs>
       <use xlink:href="#DejaVuSans-32"/>
       <use xlink:href="#DejaVuSans-30" x="63.623047"/>
       <use xlink:href="#DejaVuSans-32" x="127.246094"/>
       <use xlink:href="#DejaVuSans-32" x="190.869141"/>
       <use xlink:href="#DejaVuSans-2d" x="254.492188"/>
       <use xlink:href="#DejaVuSans-30" x="290.576172"/>
       <use xlink:href="#DejaVuSans-31" x="354.199219"/>
      </g>
     </g>
    </g>
    <g id="xtick_14">
     <g id="line2d_43">
      <path d="M 159.826646 584.521875 
L 159.826646 331.135938 
" clip-path="url(#p338befcc0b)" style="fill: none; stroke-dasharray: 2.96,1.28; stroke-dashoffset: 0; stroke: #b0b0b0; stroke-width: 0.8"/>
     </g>
     <g id="line2d_44">
      <g>
       <use xlink:href="#m02fe1608f6" x="159.826646" y="584.521875" style="stroke: #000000; stroke-width: 0.8"/>
      </g>
     </g>
     <g id="text_11">
      <!-- 2022-02 -->
      <g transform="translate(138.93524 599.120312)scale(0.1 -0.1)">
       <use xlink:href="#DejaVuSans-32"/>
       <use xlink:href="#DejaVuSans-30" x="63.623047"/>
       <use xlink:href="#DejaVuSans-32" x="127.246094"/>
       <use xlink:href="#DejaVuSans-32" x="190.869141"/>
       <use xlink:href="#DejaVuSans-2d" x="254.492188"/>
       <use xlink:href="#DejaVuSans-30" x="290.576172"/>
       <use xlink:href="#DejaVuSans-32" x="354.199219"/>
      </g>
     </g>
    </g>
    <g id="xtick_15">
     <g id="line2d_45">
      <path d="M 235.150669 584.521875 
L 235.150669 331.135938 
" clip-path="url(#p338befcc0b)" style="fill: none; stroke-dasharray: 2.96,1.28; stroke-dashoffset: 0; stroke: #b0b0b0; stroke-width: 0.8"/>
     </g>
     <g id="line2d_46">
      <g>
       <use xlink:href="#m02fe1608f6" x="235.150669" y="584.521875" style="stroke: #000000; stroke-width: 0.8"/>
      </g>
     </g>
     <g id="text_12">
      <!-- 2022-03 -->
      <g transform="translate(214.259263 599.120312)scale(0.1 -0.1)">
       <defs>
        <path id="DejaVuSans-33" d="M 2597 2516 
Q 3050 2419 3304 2112 
Q 3559 1806 3559 1356 
Q 3559 666 3084 287 
Q 2609 -91 1734 -91 
Q 1441 -91 1130 -33 
Q 819 25 488 141 
L 488 750 
Q 750 597 1062 519 
Q 1375 441 1716 441 
Q 2309 441 2620 675 
Q 2931 909 2931 1356 
Q 2931 1769 2642 2001 
Q 2353 2234 1838 2234 
L 1294 2234 
L 1294 2753 
L 1863 2753 
Q 2328 2753 2575 2939 
Q 2822 3125 2822 3475 
Q 2822 3834 2567 4026 
Q 2313 4219 1838 4219 
Q 1578 4219 1281 4162 
Q 984 4106 628 3988 
L 628 4550 
Q 988 4650 1302 4700 
Q 1616 4750 1894 4750 
Q 2613 4750 3031 4423 
Q 3450 4097 3450 3541 
Q 3450 3153 3228 2886 
Q 3006 2619 2597 2516 
z
" transform="scale(0.015625)"/>
       </defs>
       <use xlink:href="#DejaVuSans-32"/>
       <use xlink:href="#DejaVuSans-30" x="63.623047"/>
       <use xlink:href="#DejaVuSans-32" x="127.246094"/>
       <use xlink:href="#DejaVuSans-32" x="190.869141"/>
       <use xlink:href="#DejaVuSans-2d" x="254.492188"/>
       <use xlink:href="#DejaVuSans-30" x="290.576172"/>
       <use xlink:href="#DejaVuSans-33" x="354.199219"/>
      </g>
     </g>
    </g>
    <g id="xtick_16">
     <g id="line2d_47">
      <path d="M 318.545123 584.521875 
L 318.545123 331.135938 
" clip-path="url(#p338befcc0b)" style="fill: none; stroke-dasharray: 2.96,1.28; stroke-dashoffset: 0; stroke: #b0b0b0; stroke-width: 0.8"/>
     </g>
     <g id="line2d_48">
      <g>
       <use xlink:href="#m02fe1608f6" x="318.545123" y="584.521875" style="stroke: #000000; stroke-width: 0.8"/>
      </g>
     </g>
     <g id="text_13">
      <!-- 2022-04 -->
      <g transform="translate(297.653717 599.120312)scale(0.1 -0.1)">
       <defs>
        <path id="DejaVuSans-34" d="M 2419 4116 
L 825 1625 
L 2419 1625 
L 2419 4116 
z
M 2253 4666 
L 3047 4666 
L 3047 1625 
L 3713 1625 
L 3713 1100 
L 3047 1100 
L 3047 0 
L 2419 0 
L 2419 1100 
L 313 1100 
L 313 1709 
L 2253 4666 
z
" transform="scale(0.015625)"/>
       </defs>
       <use xlink:href="#DejaVuSans-32"/>
       <use xlink:href="#DejaVuSans-30" x="63.623047"/>
       <use xlink:href="#DejaVuSans-32" x="127.246094"/>
       <use xlink:href="#DejaVuSans-32" x="190.869141"/>
       <use xlink:href="#DejaVuSans-2d" x="254.492188"/>
       <use xlink:href="#DejaVuSans-30" x="290.576172"/>
       <use xlink:href="#DejaVuSans-34" x="354.199219"/>
      </g>
     </g>
    </g>
    <g id="xtick_17">
     <g id="line2d_49">
      <path d="M 399.249434 584.521875 
L 399.249434 331.135938 
" clip-path="url(#p338befcc0b)" style="fill: none; stroke-dasharray: 2.96,1.28; stroke-dashoffset: 0; stroke: #b0b0b0; stroke-width: 0.8"/>
     </g>
     <g id="line2d_50">
      <g>
       <use xlink:href="#m02fe1608f6" x="399.249434" y="584.521875" style="stroke: #000000; stroke-width: 0.8"/>
      </g>
     </g>
     <g id="text_14">
      <!-- 2022-05 -->
      <g transform="translate(378.358028 599.120312)scale(0.1 -0.1)">
       <use xlink:href="#DejaVuSans-32"/>
       <use xlink:href="#DejaVuSans-30" x="63.623047"/>
       <use xlink:href="#DejaVuSans-32" x="127.246094"/>
       <use xlink:href="#DejaVuSans-32" x="190.869141"/>
       <use xlink:href="#DejaVuSans-2d" x="254.492188"/>
       <use xlink:href="#DejaVuSans-30" x="290.576172"/>
       <use xlink:href="#DejaVuSans-35" x="354.199219"/>
      </g>
     </g>
    </g>
    <g id="xtick_18">
     <g id="line2d_51">
      <path d="M 482.643888 584.521875 
L 482.643888 331.135938 
" clip-path="url(#p338befcc0b)" style="fill: none; stroke-dasharray: 2.96,1.28; stroke-dashoffset: 0; stroke: #b0b0b0; stroke-width: 0.8"/>
     </g>
     <g id="line2d_52">
      <g>
       <use xlink:href="#m02fe1608f6" x="482.643888" y="584.521875" style="stroke: #000000; stroke-width: 0.8"/>
      </g>
     </g>
     <g id="text_15">
      <!-- 2022-06 -->
      <g transform="translate(461.752482 599.120312)scale(0.1 -0.1)">
       <use xlink:href="#DejaVuSans-32"/>
       <use xlink:href="#DejaVuSans-30" x="63.623047"/>
       <use xlink:href="#DejaVuSans-32" x="127.246094"/>
       <use xlink:href="#DejaVuSans-32" x="190.869141"/>
       <use xlink:href="#DejaVuSans-2d" x="254.492188"/>
       <use xlink:href="#DejaVuSans-30" x="290.576172"/>
       <use xlink:href="#DejaVuSans-36" x="354.199219"/>
      </g>
     </g>
    </g>
    <g id="xtick_19">
     <g id="line2d_53">
      <path d="M 563.348198 584.521875 
L 563.348198 331.135938 
" clip-path="url(#p338befcc0b)" style="fill: none; stroke-dasharray: 2.96,1.28; stroke-dashoffset: 0; stroke: #b0b0b0; stroke-width: 0.8"/>
     </g>
     <g id="line2d_54">
      <g>
       <use xlink:href="#m02fe1608f6" x="563.348198" y="584.521875" style="stroke: #000000; stroke-width: 0.8"/>
      </g>
     </g>
     <g id="text_16">
      <!-- 2022-07 -->
      <g transform="translate(542.456792 599.120312)scale(0.1 -0.1)">
       <use xlink:href="#DejaVuSans-32"/>
       <use xlink:href="#DejaVuSans-30" x="63.623047"/>
       <use xlink:href="#DejaVuSans-32" x="127.246094"/>
       <use xlink:href="#DejaVuSans-32" x="190.869141"/>
       <use xlink:href="#DejaVuSans-2d" x="254.492188"/>
       <use xlink:href="#DejaVuSans-30" x="290.576172"/>
       <use xlink:href="#DejaVuSans-37" x="354.199219"/>
      </g>
     </g>
    </g>
    <g id="xtick_20">
     <g id="line2d_55">
      <path d="M 646.742653 584.521875 
L 646.742653 331.135938 
" clip-path="url(#p338befcc0b)" style="fill: none; stroke-dasharray: 2.96,1.28; stroke-dashoffset: 0; stroke: #b0b0b0; stroke-width: 0.8"/>
     </g>
     <g id="line2d_56">
      <g>
       <use xlink:href="#m02fe1608f6" x="646.742653" y="584.521875" style="stroke: #000000; stroke-width: 0.8"/>
      </g>
     </g>
     <g id="text_17">
      <!-- 2022-08 -->
      <g transform="translate(625.851246 599.120312)scale(0.1 -0.1)">
       <use xlink:href="#DejaVuSans-32"/>
       <use xlink:href="#DejaVuSans-30" x="63.623047"/>
       <use xlink:href="#DejaVuSans-32" x="127.246094"/>
       <use xlink:href="#DejaVuSans-32" x="190.869141"/>
       <use xlink:href="#DejaVuSans-2d" x="254.492188"/>
       <use xlink:href="#DejaVuSans-30" x="290.576172"/>
       <use xlink:href="#DejaVuSans-38" x="354.199219"/>
      </g>
     </g>
    </g>
    <g id="xtick_21">
     <g id="line2d_57">
      <path d="M 730.137107 584.521875 
L 730.137107 331.135938 
" clip-path="url(#p338befcc0b)" style="fill: none; stroke-dasharray: 2.96,1.28; stroke-dashoffset: 0; stroke: #b0b0b0; stroke-width: 0.8"/>
     </g>
     <g id="line2d_58">
      <g>
       <use xlink:href="#m02fe1608f6" x="730.137107" y="584.521875" style="stroke: #000000; stroke-width: 0.8"/>
      </g>
     </g>
     <g id="text_18">
      <!-- 2022-09 -->
      <g transform="translate(709.245701 599.120312)scale(0.1 -0.1)">
       <use xlink:href="#DejaVuSans-32"/>
       <use xlink:href="#DejaVuSans-30" x="63.623047"/>
       <use xlink:href="#DejaVuSans-32" x="127.246094"/>
       <use xlink:href="#DejaVuSans-32" x="190.869141"/>
       <use xlink:href="#DejaVuSans-2d" x="254.492188"/>
       <use xlink:href="#DejaVuSans-30" x="290.576172"/>
       <use xlink:href="#DejaVuSans-39" x="354.199219"/>
      </g>
     </g>
    </g>
    <g id="xtick_22">
     <g id="line2d_59">
      <path d="M 810.841417 584.521875 
L 810.841417 331.135938 
" clip-path="url(#p338befcc0b)" style="fill: none; stroke-dasharray: 2.96,1.28; stroke-dashoffset: 0; stroke: #b0b0b0; stroke-width: 0.8"/>
     </g>
     <g id="line2d_60">
      <g>
       <use xlink:href="#m02fe1608f6" x="810.841417" y="584.521875" style="stroke: #000000; stroke-width: 0.8"/>
      </g>
     </g>
     <g id="text_19">
      <!-- 2022-10 -->
      <g transform="translate(789.950011 599.120312)scale(0.1 -0.1)">
       <use xlink:href="#DejaVuSans-32"/>
       <use xlink:href="#DejaVuSans-30" x="63.623047"/>
       <use xlink:href="#DejaVuSans-32" x="127.246094"/>
       <use xlink:href="#DejaVuSans-32" x="190.869141"/>
       <use xlink:href="#DejaVuSans-2d" x="254.492188"/>
       <use xlink:href="#DejaVuSans-31" x="290.576172"/>
       <use xlink:href="#DejaVuSans-30" x="354.199219"/>
      </g>
     </g>
    </g>
    <g id="xtick_23">
     <g id="line2d_61">
      <path d="M 894.235872 584.521875 
L 894.235872 331.135938 
" clip-path="url(#p338befcc0b)" style="fill: none; stroke-dasharray: 2.96,1.28; stroke-dashoffset: 0; stroke: #b0b0b0; stroke-width: 0.8"/>
     </g>
     <g id="line2d_62">
      <g>
       <use xlink:href="#m02fe1608f6" x="894.235872" y="584.521875" style="stroke: #000000; stroke-width: 0.8"/>
      </g>
     </g>
     <g id="text_20">
      <!-- 2022-11 -->
      <g transform="translate(873.344465 599.120312)scale(0.1 -0.1)">
       <use xlink:href="#DejaVuSans-32"/>
       <use xlink:href="#DejaVuSans-30" x="63.623047"/>
       <use xlink:href="#DejaVuSans-32" x="127.246094"/>
       <use xlink:href="#DejaVuSans-32" x="190.869141"/>
       <use xlink:href="#DejaVuSans-2d" x="254.492188"/>
       <use xlink:href="#DejaVuSans-31" x="290.576172"/>
       <use xlink:href="#DejaVuSans-31" x="354.199219"/>
      </g>
     </g>
    </g>
    <g id="xtick_24">
     <g id="line2d_63">
      <path d="M 974.940182 584.521875 
L 974.940182 331.135938 
" clip-path="url(#p338befcc0b)" style="fill: none; stroke-dasharray: 2.96,1.28; stroke-dashoffset: 0; stroke: #b0b0b0; stroke-width: 0.8"/>
     </g>
     <g id="line2d_64">
      <g>
       <use xlink:href="#m02fe1608f6" x="974.940182" y="584.521875" style="stroke: #000000; stroke-width: 0.8"/>
      </g>
     </g>
     <g id="text_21">
      <!-- 2022-12 -->
      <g transform="translate(954.048776 599.120312)scale(0.1 -0.1)">
       <use xlink:href="#DejaVuSans-32"/>
       <use xlink:href="#DejaVuSans-30" x="63.623047"/>
       <use xlink:href="#DejaVuSans-32" x="127.246094"/>
       <use xlink:href="#DejaVuSans-32" x="190.869141"/>
       <use xlink:href="#DejaVuSans-2d" x="254.492188"/>
       <use xlink:href="#DejaVuSans-31" x="290.576172"/>
       <use xlink:href="#DejaVuSans-32" x="354.199219"/>
      </g>
     </g>
    </g>
   </g>
   <g id="matplotlib.axis_4">
    <g id="ytick_7">
     <g id="line2d_65">
      <path d="M 38.904688 565.24478 
L 982.876106 565.24478 
" clip-path="url(#p338befcc0b)" style="fill: none; stroke-dasharray: 2.96,1.28; stroke-dashoffset: 0; stroke: #b0b0b0; stroke-width: 0.8"/>
     </g>
     <g id="line2d_66">
      <g>
       <use xlink:href="#mdc6619e508" x="38.904688" y="565.24478" style="stroke: #000000; stroke-width: 0.8"/>
      </g>
     </g>
     <g id="text_22">
      <!-- −30 -->
      <g transform="translate(10.8 569.043999)scale(0.1 -0.1)">
       <defs>
        <path id="DejaVuSans-2212" d="M 678 2272 
L 4684 2272 
L 4684 1741 
L 678 1741 
L 678 2272 
z
" transform="scale(0.015625)"/>
       </defs>
       <use xlink:href="#DejaVuSans-2212"/>
       <use xlink:href="#DejaVuSans-33" x="83.789062"/>
       <use xlink:href="#DejaVuSans-30" x="147.412109"/>
      </g>
     </g>
    </g>
    <g id="ytick_8">
     <g id="line2d_67">
      <path d="M 38.904688 532.878518 
L 982.876106 532.878518 
" clip-path="url(#p338befcc0b)" style="fill: none; stroke-dasharray: 2.96,1.28; stroke-dashoffset: 0; stroke: #b0b0b0; stroke-width: 0.8"/>
     </g>
     <g id="line2d_68">
      <g>
       <use xlink:href="#mdc6619e508" x="38.904688" y="532.878518" style="stroke: #000000; stroke-width: 0.8"/>
      </g>
     </g>
     <g id="text_23">
      <!-- −20 -->
      <g transform="translate(10.8 536.677737)scale(0.1 -0.1)">
       <use xlink:href="#DejaVuSans-2212"/>
       <use xlink:href="#DejaVuSans-32" x="83.789062"/>
       <use xlink:href="#DejaVuSans-30" x="147.412109"/>
      </g>
     </g>
    </g>
    <g id="ytick_9">
     <g id="line2d_69">
      <path d="M 38.904688 500.512256 
L 982.876106 500.512256 
" clip-path="url(#p338befcc0b)" style="fill: none; stroke-dasharray: 2.96,1.28; stroke-dashoffset: 0; stroke: #b0b0b0; stroke-width: 0.8"/>
     </g>
     <g id="line2d_70">
      <g>
       <use xlink:href="#mdc6619e508" x="38.904688" y="500.512256" style="stroke: #000000; stroke-width: 0.8"/>
      </g>
     </g>
     <g id="text_24">
      <!-- −10 -->
      <g transform="translate(10.8 504.311475)scale(0.1 -0.1)">
       <use xlink:href="#DejaVuSans-2212"/>
       <use xlink:href="#DejaVuSans-31" x="83.789062"/>
       <use xlink:href="#DejaVuSans-30" x="147.412109"/>
      </g>
     </g>
    </g>
    <g id="ytick_10">
     <g id="line2d_71">
      <path d="M 38.904688 468.145994 
L 982.876106 468.145994 
" clip-path="url(#p338befcc0b)" style="fill: none; stroke-dasharray: 2.96,1.28; stroke-dashoffset: 0; stroke: #b0b0b0; stroke-width: 0.8"/>
     </g>
     <g id="line2d_72">
      <g>
       <use xlink:href="#mdc6619e508" x="38.904688" y="468.145994" style="stroke: #000000; stroke-width: 0.8"/>
      </g>
     </g>
     <g id="text_25">
      <!-- 0 -->
      <g transform="translate(25.542188 471.945213)scale(0.1 -0.1)">
       <use xlink:href="#DejaVuSans-30"/>
      </g>
     </g>
    </g>
    <g id="ytick_11">
     <g id="line2d_73">
      <path d="M 38.904688 435.779732 
L 982.876106 435.779732 
" clip-path="url(#p338befcc0b)" style="fill: none; stroke-dasharray: 2.96,1.28; stroke-dashoffset: 0; stroke: #b0b0b0; stroke-width: 0.8"/>
     </g>
     <g id="line2d_74">
      <g>
       <use xlink:href="#mdc6619e508" x="38.904688" y="435.779732" style="stroke: #000000; stroke-width: 0.8"/>
      </g>
     </g>
     <g id="text_26">
      <!-- 10 -->
      <g transform="translate(19.179688 439.578951)scale(0.1 -0.1)">
       <use xlink:href="#DejaVuSans-31"/>
       <use xlink:href="#DejaVuSans-30" x="63.623047"/>
      </g>
     </g>
    </g>
    <g id="ytick_12">
     <g id="line2d_75">
      <path d="M 38.904688 403.413471 
L 982.876106 403.413471 
" clip-path="url(#p338befcc0b)" style="fill: none; stroke-dasharray: 2.96,1.28; stroke-dashoffset: 0; stroke: #b0b0b0; stroke-width: 0.8"/>
     </g>
     <g id="line2d_76">
      <g>
       <use xlink:href="#mdc6619e508" x="38.904688" y="403.413471" style="stroke: #000000; stroke-width: 0.8"/>
      </g>
     </g>
     <g id="text_27">
      <!-- 20 -->
      <g transform="translate(19.179688 407.212689)scale(0.1 -0.1)">
       <use xlink:href="#DejaVuSans-32"/>
       <use xlink:href="#DejaVuSans-30" x="63.623047"/>
      </g>
     </g>
    </g>
    <g id="ytick_13">
     <g id="line2d_77">
      <path d="M 38.904688 371.047209 
L 982.876106 371.047209 
" clip-path="url(#p338befcc0b)" style="fill: none; stroke-dasharray: 2.96,1.28; stroke-dashoffset: 0; stroke: #b0b0b0; stroke-width: 0.8"/>
     </g>
     <g id="line2d_78">
      <g>
       <use xlink:href="#mdc6619e508" x="38.904688" y="371.047209" style="stroke: #000000; stroke-width: 0.8"/>
      </g>
     </g>
     <g id="text_28">
      <!-- 30 -->
      <g transform="translate(19.179688 374.846428)scale(0.1 -0.1)">
       <use xlink:href="#DejaVuSans-33"/>
       <use xlink:href="#DejaVuSans-30" x="63.623047"/>
      </g>
     </g>
    </g>
    <g id="ytick_14">
     <g id="line2d_79">
      <path d="M 38.904688 338.680947 
L 982.876106 338.680947 
" clip-path="url(#p338befcc0b)" style="fill: none; stroke-dasharray: 2.96,1.28; stroke-dashoffset: 0; stroke: #b0b0b0; stroke-width: 0.8"/>
     </g>
     <g id="line2d_80">
      <g>
       <use xlink:href="#mdc6619e508" x="38.904688" y="338.680947" style="stroke: #000000; stroke-width: 0.8"/>
      </g>
     </g>
     <g id="text_29">
      <!-- 40 -->
      <g transform="translate(19.179688 342.480166)scale(0.1 -0.1)">
       <use xlink:href="#DejaVuSans-34"/>
       <use xlink:href="#DejaVuSans-30" x="63.623047"/>
      </g>
     </g>
    </g>
   </g>
   <g id="line2d_81">
    <path d="M 81.812479 468.145994 
L 84.502623 467.216502 
L 87.192767 465.180112 
L 89.88291 463.929293 
L 100.643485 461.323925 
L 106.023772 458.868319 
L 108.713916 459.138367 
L 111.40406 462.628596 
L 119.474491 466.788587 
L 122.164634 467.625675 
L 124.854778 467.448927 
L 127.544922 467.456991 
L 130.235066 470.621755 
L 138.305497 474.542814 
L 140.99564 467.919639 
L 146.375928 458.432046 
L 149.066071 453.158669 
L 157.136502 447.513423 
L 159.826646 441.503967 
L 162.51679 432.349192 
L 165.206933 426.674107 
L 167.897077 422.978404 
L 175.967508 422.649008 
L 178.657652 420.891761 
L 181.347796 418.858873 
L 184.037939 416.471199 
L 186.728083 416.609105 
L 194.798514 424.472991 
L 197.488658 425.534374 
L 200.178801 426.832794 
L 202.868945 431.740302 
L 205.559089 434.888648 
L 213.62952 437.382854 
L 216.319663 442.049015 
L 219.009807 446.476603 
L 221.699951 461.702474 
L 224.390094 466.855148 
L 232.460525 474.772454 
L 237.840813 478.946884 
L 240.530957 485.225818 
L 243.2211 495.596738 
L 251.291531 515.270654 
L 253.981675 529.422008 
L 256.671819 538.847553 
L 262.052106 541.461568 
L 272.812681 535.310448 
L 275.502824 526.890989 
L 278.192968 515.716342 
L 288.953543 509.812674 
L 291.643687 503.312995 
L 294.33383 499.004486 
L 297.023974 496.424505 
L 299.714118 494.335848 
L 307.784549 488.633136 
L 310.474692 483.471859 
L 313.164836 476.017583 
L 315.85498 467.349034 
L 318.545123 457.134728 
L 326.615554 446.810741 
L 329.305698 439.222758 
L 331.995842 436.02006 
L 334.685985 429.154208 
L 337.376129 423.50104 
L 345.44656 421.855071 
L 348.136704 417.906609 
L 350.826848 416.774496 
L 364.277566 414.981739 
L 366.96771 414.453556 
L 369.657853 415.449665 
L 372.347997 415.003452 
L 375.038141 420.717608 
L 383.108572 425.709329 
L 385.798715 431.571943 
L 388.488859 438.926127 
L 391.179003 441.439652 
L 393.869146 456.906756 
L 401.939578 469.474838 
L 407.319865 484.500056 
L 410.010009 497.335567 
L 412.700152 514.522821 
L 420.770583 529.960866 
L 423.460727 542.370014 
L 426.150871 547.996632 
L 428.841014 557.349488 
L 431.531158 567.194157 
L 439.601589 573.004332 
L 442.291733 572.233692 
L 444.981876 569.282627 
L 447.67202 568.204423 
L 450.362164 560.310648 
L 458.432595 552.495129 
L 461.122739 548.326469 
L 463.812882 543.901479 
L 469.19317 525.715418 
L 477.263601 516.512824 
L 479.953744 510.9325 
L 482.643888 505.853464 
L 485.334032 500.024859 
L 488.024175 498.773097 
L 496.094606 498.759734 
L 498.78475 500.039461 
L 501.474894 502.550054 
L 504.165037 503.427993 
L 506.855181 503.868629 
L 514.925612 506.839916 
L 517.615756 508.262209 
L 520.3059 508.9839 
L 522.996043 513.111101 
L 525.686187 515.754775 
L 533.756618 519.064755 
L 536.446762 518.960841 
L 539.136905 520.80451 
L 541.827049 520.990549 
L 544.517193 519.333602 
L 552.587624 516.651759 
L 555.277767 512.642426 
L 557.967911 513.331421 
L 560.658055 510.451836 
L 563.348198 505.867677 
L 571.41863 499.161186 
L 574.108773 495.063703 
L 576.798917 489.10688 
L 579.489061 484.149348 
L 582.179204 477.242881 
L 590.249635 468.965622 
L 592.939779 463.413619 
L 595.629923 458.162414 
L 598.320066 457.169839 
L 601.01021 458.079281 
L 609.080641 453.149002 
L 611.770785 445.300367 
L 614.460928 438.094755 
L 617.151072 430.248663 
L 619.841216 420.608878 
L 627.911647 414.475915 
L 630.601791 415.678639 
L 633.291934 413.991512 
L 635.982078 411.492427 
L 638.672222 410.476998 
L 649.432796 408.211301 
L 652.12294 408.43852 
L 654.813084 411.594858 
L 657.503227 412.930719 
L 665.573658 410.204428 
L 670.953946 410.419896 
L 673.64409 406.121477 
L 676.334233 403.02168 
L 687.094808 400.27664 
L 689.784952 396.975888 
L 692.475095 397.02113 
L 695.165239 399.81646 
L 703.23567 406.825908 
L 705.925814 411.673852 
L 708.615957 415.315263 
L 711.306101 420.525981 
L 713.996245 424.750935 
L 722.066676 432.738317 
L 724.756819 433.512975 
L 730.137107 436.412288 
L 732.827251 437.483408 
L 740.897682 437.148704 
L 743.587825 438.814687 
L 746.277969 439.059969 
L 748.968113 433.296633 
L 751.658256 427.861563 
L 759.728687 419.8926 
L 762.418831 413.024233 
L 765.108975 408.916682 
L 767.799118 409.7429 
L 770.489262 411.236519 
L 778.559693 410.783184 
L 781.249837 407.299199 
L 783.939981 406.863784 
L 786.630124 411.700654 
L 789.320268 421.452235 
L 797.390699 436.337482 
L 800.080843 449.678984 
L 802.770986 465.777124 
L 805.46113 477.758232 
L 808.151274 483.369269 
L 816.221705 490.290005 
L 818.911848 490.283125 
L 824.292136 486.849695 
L 826.982279 483.791623 
L 835.05271 475.756632 
L 837.742854 467.128408 
L 840.432998 454.402847 
L 843.123142 446.319184 
L 845.813285 440.621857 
L 853.883716 432.947479 
L 856.57386 426.76789 
L 859.264004 418.91228 
L 861.954147 414.351437 
L 864.644291 392.142931 
L 872.714722 373.272595 
L 875.404866 361.273392 
L 880.785153 349.914462 
L 883.475297 345.486511 
L 891.545728 342.65348 
L 894.235872 350.707072 
L 896.926015 360.472379 
L 899.616159 369.221214 
L 902.306303 376.157383 
L 910.376734 381.387774 
L 915.757021 386.280712 
L 918.447165 398.792919 
L 921.137308 407.578933 
L 929.207739 415.075327 
L 931.897883 419.578192 
L 934.588027 424.498682 
L 937.27817 428.128234 
L 939.968314 431.16975 
L 939.968314 431.16975 
" clip-path="url(#p338befcc0b)" style="fill: none; stroke: #1f77b4; stroke-width: 1.5; stroke-linecap: square"/>
   </g>
   <g id="line2d_82">
    <path d="M 81.812479 468.145994 
L 84.502623 467.62961 
L 89.88291 465.712294 
L 92.573054 464.994617 
L 100.643485 463.999656 
L 106.023772 462.018373 
L 108.713916 461.353077 
L 111.40406 461.638867 
L 119.474491 462.765597 
L 122.164634 463.809338 
L 124.854778 464.579601 
L 127.544922 465.181553 
L 130.235066 466.309272 
L 138.305497 468.003673 
L 140.99564 467.986479 
L 146.375928 466.040538 
L 149.066071 463.426491 
L 157.136502 460.206757 
L 159.826646 456.431377 
L 167.897077 441.828138 
L 175.967508 437.977765 
L 178.657652 434.550206 
L 184.037939 428.411918 
L 186.728083 426.047697 
L 197.488658 425.692728 
L 200.178801 425.920922 
L 202.868945 427.085536 
L 205.559089 428.64695 
L 213.62952 430.39484 
L 216.319663 432.726431 
L 219.009807 435.47718 
L 224.390094 445.950561 
L 232.460525 451.715706 
L 237.840813 457.162521 
L 240.530957 462.775658 
L 243.2211 469.34032 
L 251.291531 478.526887 
L 256.671819 498.734944 
L 259.361962 507.027329 
L 262.052106 513.914331 
L 270.122537 518.484166 
L 272.812681 521.849471 
L 275.502824 522.857786 
L 278.192968 521.429484 
L 288.953543 519.106105 
L 291.643687 515.947465 
L 297.023974 509.331972 
L 299.714118 506.332738 
L 307.784549 502.792809 
L 310.474692 498.928612 
L 313.164836 494.346399 
L 315.85498 488.946919 
L 318.545123 482.584475 
L 326.615554 475.429722 
L 329.305698 468.188325 
L 337.376129 448.887865 
L 345.44656 443.481305 
L 348.136704 438.366365 
L 350.826848 434.04799 
L 364.277566 430.234739 
L 366.96771 427.078503 
L 369.657853 424.752735 
L 372.347997 422.802878 
L 375.038141 422.385824 
L 383.108572 423.050525 
L 385.798715 424.754809 
L 391.179003 430.359188 
L 393.869146 435.668702 
L 401.939578 442.429929 
L 407.319865 450.843955 
L 410.010009 460.142277 
L 412.700152 471.018386 
L 420.770583 482.806882 
L 423.460727 494.719509 
L 428.841014 515.769844 
L 431.531158 526.054707 
L 439.601589 535.444632 
L 442.291733 542.802444 
L 444.981876 548.098481 
L 447.67202 552.119669 
L 450.362164 553.757865 
L 458.432595 553.505318 
L 461.122739 552.469548 
L 463.812882 550.755934 
L 466.503026 547.577059 
L 469.19317 543.204731 
L 477.263601 537.866349 
L 485.334032 521.728457 
L 488.024175 517.137385 
L 496.094606 513.461855 
L 498.78475 510.777376 
L 501.474894 509.131912 
L 504.165037 507.991128 
L 506.855181 507.166628 
L 514.925612 507.101286 
L 520.3059 507.663556 
L 522.996043 508.753065 
L 525.686187 510.153407 
L 533.756618 511.935677 
L 541.827049 516.064885 
L 544.517193 516.718629 
L 552.587624 516.705255 
L 555.277767 515.892689 
L 557.967911 515.380436 
L 560.658055 514.394716 
L 563.348198 512.689308 
L 571.41863 509.983684 
L 574.108773 506.999687 
L 576.798917 503.421126 
L 579.489061 499.566771 
L 582.179204 495.101993 
L 590.249635 489.874719 
L 595.629923 479.298482 
L 598.320066 474.872753 
L 601.01021 471.514059 
L 609.080641 467.841047 
L 611.770785 463.332911 
L 614.460928 458.28528 
L 617.151072 452.677957 
L 619.841216 446.264141 
L 627.911647 439.906496 
L 630.601791 435.060924 
L 633.291934 430.847042 
L 635.982078 426.976119 
L 638.672222 423.676295 
L 646.742653 420.696354 
L 649.432796 418.199343 
L 652.12294 416.247179 
L 654.813084 415.316714 
L 657.503227 414.839515 
L 670.953946 413.213977 
L 673.64409 411.795477 
L 676.334233 410.040718 
L 687.094808 408.087902 
L 689.784952 405.865499 
L 692.475095 404.096626 
L 695.165239 403.240592 
L 703.23567 403.957656 
L 705.925814 405.500895 
L 708.615957 407.463768 
L 711.306101 410.076211 
L 713.996245 413.011156 
L 722.066676 416.956588 
L 724.756819 420.267865 
L 730.137107 423.49675 
L 732.827251 426.294082 
L 740.897682 428.465006 
L 743.587825 430.534942 
L 746.277969 432.239947 
L 748.968113 432.451285 
L 751.658256 431.53334 
L 759.728687 429.205192 
L 762.418831 425.969 
L 765.108975 422.558537 
L 767.799118 419.99541 
L 770.489262 418.243631 
L 778.559693 416.751542 
L 781.249837 414.861073 
L 783.939981 413.261616 
L 786.630124 412.949423 
L 789.320268 414.649985 
L 797.390699 418.987485 
L 800.080843 425.125785 
L 802.770986 433.256052 
L 805.46113 442.156488 
L 808.151274 450.399044 
L 816.221705 458.377236 
L 818.911848 464.758414 
L 824.292136 469.17667 
L 826.982279 472.099661 
L 835.05271 472.831055 
L 837.742854 471.690526 
L 840.432998 468.23299 
L 843.123142 463.850229 
L 845.813285 459.204554 
L 853.883716 453.953139 
L 856.57386 448.51609 
L 859.264004 442.595328 
L 861.954147 436.946549 
L 864.644291 427.985826 
L 872.714722 417.04318 
L 875.404866 405.889222 
L 880.785153 394.69427 
L 883.475297 384.852718 
L 891.545728 376.412871 
L 894.235872 371.271711 
L 896.926015 369.111844 
L 899.616159 369.133718 
L 902.306303 370.538451 
L 910.376734 372.708316 
L 915.757021 375.422795 
L 918.447165 380.09682 
L 921.137308 385.593243 
L 929.207739 391.489659 
L 934.588027 402.585629 
L 937.27817 407.69415 
L 939.968314 412.38927 
L 939.968314 412.38927 
" clip-path="url(#p338befcc0b)" style="fill: none; stroke: #ff7f0e; stroke-width: 1.5; stroke-linecap: square"/>
   </g>
   <g id="patch_9">
    <path d="M 38.904688 584.521875 
L 38.904688 331.135938 
" style="fill: none; stroke: #000000; stroke-width: 0.8; stroke-linejoin: miter; stroke-linecap: square"/>
   </g>
   <g id="patch_10">
    <path d="M 982.876106 584.521875 
L 982.876106 331.135938 
" style="fill: none; stroke: #000000; stroke-width: 0.8; stroke-linejoin: miter; stroke-linecap: square"/>
   </g>
   <g id="patch_11">
    <path d="M 38.904687 584.521875 
L 982.876106 584.521875 
" style="fill: none; stroke: #000000; stroke-width: 0.8; stroke-linejoin: miter; stroke-linecap: square"/>
   </g>
   <g id="patch_12">
    <path d="M 38.904687 331.135938 
L 982.876106 331.135938 
" style="fill: none; stroke: #000000; stroke-width: 0.8; stroke-linejoin: miter; stroke-linecap: square"/>
   </g>
   <g id="text_30">
    <!-- MACD -->
    <g transform="translate(492.904459 325.135938)scale(0.12 -0.12)">
     <defs>
      <path id="DejaVuSans-44" d="M 1259 4147 
L 1259 519 
L 2022 519 
Q 2988 519 3436 956 
Q 3884 1394 3884 2338 
Q 3884 3275 3436 3711 
Q 2988 4147 2022 4147 
L 1259 4147 
z
M 628 4666 
L 1925 4666 
Q 3281 4666 3915 4102 
Q 4550 3538 4550 2338 
Q 4550 1131 3912 565 
Q 3275 0 1925 0 
L 628 0 
L 628 4666 
z
" transform="scale(0.015625)"/>
     </defs>
     <use xlink:href="#DejaVuSans-4d"/>
     <use xlink:href="#DejaVuSans-41" x="86.279297"/>
     <use xlink:href="#DejaVuSans-43" x="152.9375"/>
     <use xlink:href="#DejaVuSans-44" x="222.761719"/>
    </g>
   </g>
   <g id="legend_2">
    <g id="patch_13">
     <path d="M 913.899543 368.492188 
L 975.876106 368.492188 
Q 977.876106 368.492188 977.876106 366.492188 
L 977.876106 338.135938 
Q 977.876106 336.135938 975.876106 336.135938 
L 913.899543 336.135938 
Q 911.899543 336.135938 911.899543 338.135938 
L 911.899543 366.492188 
Q 911.899543 368.492188 913.899543 368.492188 
z
" style="fill: #ffffff; opacity: 0.8; stroke: #cccccc; stroke-linejoin: miter"/>
    </g>
    <g id="line2d_83">
     <path d="M 915.899543 344.234375 
L 925.899543 344.234375 
L 935.899543 344.234375 
" style="fill: none; stroke: #1f77b4; stroke-width: 1.5; stroke-linecap: square"/>
    </g>
    <g id="text_31">
     <!-- MACD -->
     <g transform="translate(943.899543 347.734375)scale(0.1 -0.1)">
      <use xlink:href="#DejaVuSans-4d"/>
      <use xlink:href="#DejaVuSans-41" x="86.279297"/>
      <use xlink:href="#DejaVuSans-43" x="152.9375"/>
      <use xlink:href="#DejaVuSans-44" x="222.761719"/>
     </g>
    </g>
    <g id="line2d_84">
     <path d="M 915.899543 358.9125 
L 925.899543 358.9125 
L 935.899543 358.9125 
" style="fill: none; stroke: #ff7f0e; stroke-width: 1.5; stroke-linecap: square"/>
    </g>
    <g id="text_32">
     <!-- SIG -->
     <g transform="translate(943.899543 362.4125)scale(0.1 -0.1)">
      <defs>
       <path id="DejaVuSans-49" d="M 628 4666 
L 1259 4666 
L 1259 0 
L 628 0 
L 628 4666 
z
" transform="scale(0.015625)"/>
       <path id="DejaVuSans-47" d="M 3809 666 
L 3809 1919 
L 2778 1919 
L 2778 2438 
L 4434 2438 
L 4434 434 
Q 4069 175 3628 42 
Q 3188 -91 2688 -91 
Q 1594 -91 976 548 
Q 359 1188 359 2328 
Q 359 3472 976 4111 
Q 1594 4750 2688 4750 
Q 3144 4750 3555 4637 
Q 3966 4525 4313 4306 
L 4313 3634 
Q 3963 3931 3569 4081 
Q 3175 4231 2741 4231 
Q 1884 4231 1454 3753 
Q 1025 3275 1025 2328 
Q 1025 1384 1454 906 
Q 1884 428 2741 428 
Q 3075 428 3337 486 
Q 3600 544 3809 666 
z
" transform="scale(0.015625)"/>
      </defs>
      <use xlink:href="#DejaVuSans-53"/>
      <use xlink:href="#DejaVuSans-49" x="63.476562"/>
      <use xlink:href="#DejaVuSans-47" x="92.96875"/>
     </g>
    </g>
   </g>
  </g>
  <g id="text_33">
   <!-- Axis Bank Limited -->
   <g transform="translate(450.293437 21.358125)scale(0.12 -0.12)">
    <defs>
     <path id="DejaVuSans-78" d="M 3513 3500 
L 2247 1797 
L 3578 0 
L 2900 0 
L 1881 1375 
L 863 0 
L 184 0 
L 1544 1831 
L 300 3500 
L 978 3500 
L 1906 2253 
L 2834 3500 
L 3513 3500 
z
" transform="scale(0.015625)"/>
     <path id="DejaVuSans-42" d="M 1259 2228 
L 1259 519 
L 2272 519 
Q 2781 519 3026 730 
Q 3272 941 3272 1375 
Q 3272 1813 3026 2020 
Q 2781 2228 2272 2228 
L 1259 2228 
z
M 1259 4147 
L 1259 2741 
L 2194 2741 
Q 2656 2741 2882 2914 
Q 3109 3088 3109 3444 
Q 3109 3797 2882 3972 
Q 2656 4147 2194 4147 
L 1259 4147 
z
M 628 4666 
L 2241 4666 
Q 2963 4666 3353 4366 
Q 3744 4066 3744 3513 
Q 3744 3084 3544 2831 
Q 3344 2578 2956 2516 
Q 3422 2416 3680 2098 
Q 3938 1781 3938 1306 
Q 3938 681 3513 340 
Q 3088 0 2303 0 
L 628 0 
L 628 4666 
z
" transform="scale(0.015625)"/>
     <path id="DejaVuSans-61" d="M 2194 1759 
Q 1497 1759 1228 1600 
Q 959 1441 959 1056 
Q 959 750 1161 570 
Q 1363 391 1709 391 
Q 2188 391 2477 730 
Q 2766 1069 2766 1631 
L 2766 1759 
L 2194 1759 
z
M 3341 1997 
L 3341 0 
L 2766 0 
L 2766 531 
Q 2569 213 2275 61 
Q 1981 -91 1556 -91 
Q 1019 -91 701 211 
Q 384 513 384 1019 
Q 384 1609 779 1909 
Q 1175 2209 1959 2209 
L 2766 2209 
L 2766 2266 
Q 2766 2663 2505 2880 
Q 2244 3097 1772 3097 
Q 1472 3097 1187 3025 
Q 903 2953 641 2809 
L 641 3341 
Q 956 3463 1253 3523 
Q 1550 3584 1831 3584 
Q 2591 3584 2966 3190 
Q 3341 2797 3341 1997 
z
" transform="scale(0.015625)"/>
     <path id="DejaVuSans-6b" d="M 581 4863 
L 1159 4863 
L 1159 1991 
L 2875 3500 
L 3609 3500 
L 1753 1863 
L 3688 0 
L 2938 0 
L 1159 1709 
L 1159 0 
L 581 0 
L 581 4863 
z
" transform="scale(0.015625)"/>
     <path id="DejaVuSans-6d" d="M 3328 2828 
Q 3544 3216 3844 3400 
Q 4144 3584 4550 3584 
Q 5097 3584 5394 3201 
Q 5691 2819 5691 2113 
L 5691 0 
L 5113 0 
L 5113 2094 
Q 5113 2597 4934 2840 
Q 4756 3084 4391 3084 
Q 3944 3084 3684 2787 
Q 3425 2491 3425 1978 
L 3425 0 
L 2847 0 
L 2847 2094 
Q 2847 2600 2669 2842 
Q 2491 3084 2119 3084 
Q 1678 3084 1418 2786 
Q 1159 2488 1159 1978 
L 1159 0 
L 581 0 
L 581 3500 
L 1159 3500 
L 1159 2956 
Q 1356 3278 1631 3431 
Q 1906 3584 2284 3584 
Q 2666 3584 2933 3390 
Q 3200 3197 3328 2828 
z
" transform="scale(0.015625)"/>
     <path id="DejaVuSans-74" d="M 1172 4494 
L 1172 3500 
L 2356 3500 
L 2356 3053 
L 1172 3053 
L 1172 1153 
Q 1172 725 1289 603 
Q 1406 481 1766 481 
L 2356 481 
L 2356 0 
L 1766 0 
Q 1100 0 847 248 
Q 594 497 594 1153 
L 594 3053 
L 172 3053 
L 172 3500 
L 594 3500 
L 594 4494 
L 1172 4494 
z
" transform="scale(0.015625)"/>
     <path id="DejaVuSans-64" d="M 2906 2969 
L 2906 4863 
L 3481 4863 
L 3481 0 
L 2906 0 
L 2906 525 
Q 2725 213 2448 61 
Q 2172 -91 1784 -91 
Q 1150 -91 751 415 
Q 353 922 353 1747 
Q 353 2572 751 3078 
Q 1150 3584 1784 3584 
Q 2172 3584 2448 3432 
Q 2725 3281 2906 2969 
z
M 947 1747 
Q 947 1113 1208 752 
Q 1469 391 1925 391 
Q 2381 391 2643 752 
Q 2906 1113 2906 1747 
Q 2906 2381 2643 2742 
Q 2381 3103 1925 3103 
Q 1469 3103 1208 2742 
Q 947 2381 947 1747 
z
" transform="scale(0.015625)"/>
    </defs>
    <use xlink:href="#DejaVuSans-41"/>
    <use xlink:href="#DejaVuSans-78" x="68.408203"/>
    <use xlink:href="#DejaVuSans-69" x="127.587891"/>
    <use xlink:href="#DejaVuSans-73" x="155.371094"/>
    <use xlink:href="#DejaVuSans-20" x="207.470703"/>
    <use xlink:href="#DejaVuSans-42" x="239.257812"/>
    <use xlink:href="#DejaVuSans-61" x="307.861328"/>
    <use xlink:href="#DejaVuSans-6e" x="369.140625"/>
    <use xlink:href="#DejaVuSans-6b" x="432.519531"/>
    <use xlink:href="#DejaVuSans-20" x="490.429688"/>
    <use xlink:href="#DejaVuSans-4c" x="522.216797"/>
    <use xlink:href="#DejaVuSans-69" x="577.929688"/>
    <use xlink:href="#DejaVuSans-6d" x="605.712891"/>
    <use xlink:href="#DejaVuSans-69" x="703.125"/>
    <use xlink:href="#DejaVuSans-74" x="730.908203"/>
    <use xlink:href="#DejaVuSans-65" x="770.117188"/>
    <use xlink:href="#DejaVuSans-64" x="831.640625"/>
   </g>
  </g>
 </g>
 <defs>
  <clipPath id="pdb7f258f68">
   <rect x="38.904688" y="48.331875" width="943.971418" height="253.385938"/>
  </clipPath>
  <clipPath id="p338befcc0b">
   <rect x="38.904688" y="331.135938" width="943.971418" height="253.385937"/>
  </clipPath>
 </defs>
</svg>
