<?xml version="1.0" encoding="utf-8" standalone="no"?>
<!DOCTYPE svg PUBLIC "-//W3C//DTD SVG 1.1//EN"
  "http://www.w3.org/Graphics/SVG/1.1/DTD/svg11.dtd">
<svg xmlns:xlink="http://www.w3.org/1999/xlink" width="1008pt" height="612pt" viewBox="0 0 1008 612" xmlns="http://www.w3.org/2000/svg" version="1.1">
 <metadata>
  <rdf:RDF xmlns:dc="http://purl.org/dc/elements/1.1/" xmlns:cc="http://creativecommons.org/ns#" xmlns:rdf="http://www.w3.org/1999/02/22-rdf-syntax-ns#">
   <cc:Work>
    <dc:type rdf:resource="http://purl.org/dc/dcmitype/StillImage"/>
    <dc:date>2022-11-20T19:46:56.627449</dc:date>
    <dc:format>image/svg+xml</dc:format>
    <dc:creator>
     <cc:Agent>
      <dc:title>Matplotlib v3.5.2, https://matplotlib.org/</dc:title>
     </cc:Agent>
    </dc:creator>
   </cc:Work>
  </rdf:RDF>
 </metadata>
 <defs>
  <style type="text/css">*{stroke-linejoin: round; stroke-linecap: butt}</style>
 </defs>
 <g id="figure_1">
  <g id="patch_1">
   <path d="M 0 612 
L 1008 612 
L 1008 0 
L 0 0 
z
" style="fill: #ffffff"/>
  </g>
  <g id="axes_1">
   <g id="patch_2">
    <path d="M 45.267188 301.717812 
L 982.876106 301.717812 
L 982.876106 48.331875 
L 45.267188 48.331875 
z
" style="fill: #ffffff"/>
   </g>
   <g id="matplotlib.axis_1">
    <g id="xtick_1">
     <g id="line2d_1">
      <path d="M 82.541751 301.717812 
L 82.541751 48.331875 
" clip-path="url(#p0063df5930)" style="fill: none; stroke-dasharray: 2.96,1.28; stroke-dashoffset: 0; stroke: #b0b0b0; stroke-width: 0.8"/>
     </g>
     <g id="line2d_2">
      <defs>
       <path id="m7bcf83b890" d="M 0 0 
L 0 3.5 
" style="stroke: #000000; stroke-width: 0.8"/>
      </defs>
      <g>
       <use xlink:href="#m7bcf83b890" x="82.541751" y="301.717812" style="stroke: #000000; stroke-width: 0.8"/>
      </g>
     </g>
    </g>
    <g id="xtick_2">
     <g id="line2d_3">
      <path d="M 165.374115 301.717812 
L 165.374115 48.331875 
" clip-path="url(#p0063df5930)" style="fill: none; stroke-dasharray: 2.96,1.28; stroke-dashoffset: 0; stroke: #b0b0b0; stroke-width: 0.8"/>
     </g>
     <g id="line2d_4">
      <g>
       <use xlink:href="#m7bcf83b890" x="165.374115" y="301.717812" style="stroke: #000000; stroke-width: 0.8"/>
      </g>
     </g>
    </g>
    <g id="xtick_3">
     <g id="line2d_5">
      <path d="M 240.190444 301.717812 
L 240.190444 48.331875 
" clip-path="url(#p0063df5930)" style="fill: none; stroke-dasharray: 2.96,1.28; stroke-dashoffset: 0; stroke: #b0b0b0; stroke-width: 0.8"/>
     </g>
     <g id="line2d_6">
      <g>
       <use xlink:href="#m7bcf83b890" x="240.190444" y="301.717812" style="stroke: #000000; stroke-width: 0.8"/>
      </g>
     </g>
    </g>
    <g id="xtick_4">
     <g id="line2d_7">
      <path d="M 323.022808 301.717812 
L 323.022808 48.331875 
" clip-path="url(#p0063df5930)" style="fill: none; stroke-dasharray: 2.96,1.28; stroke-dashoffset: 0; stroke: #b0b0b0; stroke-width: 0.8"/>
     </g>
     <g id="line2d_8">
      <g>
       <use xlink:href="#m7bcf83b890" x="323.022808" y="301.717812" style="stroke: #000000; stroke-width: 0.8"/>
      </g>
     </g>
    </g>
    <g id="xtick_5">
     <g id="line2d_9">
      <path d="M 403.18316 301.717812 
L 403.18316 48.331875 
" clip-path="url(#p0063df5930)" style="fill: none; stroke-dasharray: 2.96,1.28; stroke-dashoffset: 0; stroke: #b0b0b0; stroke-width: 0.8"/>
     </g>
     <g id="line2d_10">
      <g>
       <use xlink:href="#m7bcf83b890" x="403.18316" y="301.717812" style="stroke: #000000; stroke-width: 0.8"/>
      </g>
     </g>
    </g>
    <g id="xtick_6">
     <g id="line2d_11">
      <path d="M 486.015523 301.717812 
L 486.015523 48.331875 
" clip-path="url(#p0063df5930)" style="fill: none; stroke-dasharray: 2.96,1.28; stroke-dashoffset: 0; stroke: #b0b0b0; stroke-width: 0.8"/>
     </g>
     <g id="line2d_12">
      <g>
       <use xlink:href="#m7bcf83b890" x="486.015523" y="301.717812" style="stroke: #000000; stroke-width: 0.8"/>
      </g>
     </g>
    </g>
    <g id="xtick_7">
     <g id="line2d_13">
      <path d="M 566.175876 301.717812 
L 566.175876 48.331875 
" clip-path="url(#p0063df5930)" style="fill: none; stroke-dasharray: 2.96,1.28; stroke-dashoffset: 0; stroke: #b0b0b0; stroke-width: 0.8"/>
     </g>
     <g id="line2d_14">
      <g>
       <use xlink:href="#m7bcf83b890" x="566.175876" y="301.717812" style="stroke: #000000; stroke-width: 0.8"/>
      </g>
     </g>
    </g>
    <g id="xtick_8">
     <g id="line2d_15">
      <path d="M 649.008239 301.717812 
L 649.008239 48.331875 
" clip-path="url(#p0063df5930)" style="fill: none; stroke-dasharray: 2.96,1.28; stroke-dashoffset: 0; stroke: #b0b0b0; stroke-width: 0.8"/>
     </g>
     <g id="line2d_16">
      <g>
       <use xlink:href="#m7bcf83b890" x="649.008239" y="301.717812" style="stroke: #000000; stroke-width: 0.8"/>
      </g>
     </g>
    </g>
    <g id="xtick_9">
     <g id="line2d_17">
      <path d="M 731.840603 301.717812 
L 731.840603 48.331875 
" clip-path="url(#p0063df5930)" style="fill: none; stroke-dasharray: 2.96,1.28; stroke-dashoffset: 0; stroke: #b0b0b0; stroke-width: 0.8"/>
     </g>
     <g id="line2d_18">
      <g>
       <use xlink:href="#m7bcf83b890" x="731.840603" y="301.717812" style="stroke: #000000; stroke-width: 0.8"/>
      </g>
     </g>
    </g>
    <g id="xtick_10">
     <g id="line2d_19">
      <path d="M 812.000955 301.717812 
L 812.000955 48.331875 
" clip-path="url(#p0063df5930)" style="fill: none; stroke-dasharray: 2.96,1.28; stroke-dashoffset: 0; stroke: #b0b0b0; stroke-width: 0.8"/>
     </g>
     <g id="line2d_20">
      <g>
       <use xlink:href="#m7bcf83b890" x="812.000955" y="301.717812" style="stroke: #000000; stroke-width: 0.8"/>
      </g>
     </g>
    </g>
    <g id="xtick_11">
     <g id="line2d_21">
      <path d="M 894.833319 301.717812 
L 894.833319 48.331875 
" clip-path="url(#p0063df5930)" style="fill: none; stroke-dasharray: 2.96,1.28; stroke-dashoffset: 0; stroke: #b0b0b0; stroke-width: 0.8"/>
     </g>
     <g id="line2d_22">
      <g>
       <use xlink:href="#m7bcf83b890" x="894.833319" y="301.717812" style="stroke: #000000; stroke-width: 0.8"/>
      </g>
     </g>
    </g>
    <g id="xtick_12">
     <g id="line2d_23">
      <path d="M 974.993671 301.717812 
L 974.993671 48.331875 
" clip-path="url(#p0063df5930)" style="fill: none; stroke-dasharray: 2.96,1.28; stroke-dashoffset: 0; stroke: #b0b0b0; stroke-width: 0.8"/>
     </g>
     <g id="line2d_24">
      <g>
       <use xlink:href="#m7bcf83b890" x="974.993671" y="301.717812" style="stroke: #000000; stroke-width: 0.8"/>
      </g>
     </g>
    </g>
   </g>
   <g id="matplotlib.axis_2">
    <g id="ytick_1">
     <g id="line2d_25">
      <path d="M 45.267188 272.555375 
L 982.876106 272.555375 
" clip-path="url(#p0063df5930)" style="fill: none; stroke-dasharray: 2.96,1.28; stroke-dashoffset: 0; stroke: #b0b0b0; stroke-width: 0.8"/>
     </g>
     <g id="line2d_26">
      <defs>
       <path id="m2169a65e67" d="M 0 0 
L -3.5 0 
" style="stroke: #000000; stroke-width: 0.8"/>
      </defs>
      <g>
       <use xlink:href="#m2169a65e67" x="45.267188" y="272.555375" style="stroke: #000000; stroke-width: 0.8"/>
      </g>
     </g>
     <g id="text_1">
      <!-- 2000 -->
      <g transform="translate(12.817188 276.354594)scale(0.1 -0.1)">
       <defs>
        <path id="DejaVuSans-32" d="M 1228 531 
L 3431 531 
L 3431 0 
L 469 0 
L 469 531 
Q 828 903 1448 1529 
Q 2069 2156 2228 2338 
Q 2531 2678 2651 2914 
Q 2772 3150 2772 3378 
Q 2772 3750 2511 3984 
Q 2250 4219 1831 4219 
Q 1534 4219 1204 4116 
Q 875 4013 500 3803 
L 500 4441 
Q 881 4594 1212 4672 
Q 1544 4750 1819 4750 
Q 2544 4750 2975 4387 
Q 3406 4025 3406 3419 
Q 3406 3131 3298 2873 
Q 3191 2616 2906 2266 
Q 2828 2175 2409 1742 
Q 1991 1309 1228 531 
z
" transform="scale(0.015625)"/>
        <path id="DejaVuSans-30" d="M 2034 4250 
Q 1547 4250 1301 3770 
Q 1056 3291 1056 2328 
Q 1056 1369 1301 889 
Q 1547 409 2034 409 
Q 2525 409 2770 889 
Q 3016 1369 3016 2328 
Q 3016 3291 2770 3770 
Q 2525 4250 2034 4250 
z
M 2034 4750 
Q 2819 4750 3233 4129 
Q 3647 3509 3647 2328 
Q 3647 1150 3233 529 
Q 2819 -91 2034 -91 
Q 1250 -91 836 529 
Q 422 1150 422 2328 
Q 422 3509 836 4129 
Q 1250 4750 2034 4750 
z
" transform="scale(0.015625)"/>
       </defs>
       <use xlink:href="#DejaVuSans-32"/>
       <use xlink:href="#DejaVuSans-30" x="63.623047"/>
       <use xlink:href="#DejaVuSans-30" x="127.246094"/>
       <use xlink:href="#DejaVuSans-30" x="190.869141"/>
      </g>
     </g>
    </g>
    <g id="ytick_2">
     <g id="line2d_27">
      <path d="M 45.267188 217.285541 
L 982.876106 217.285541 
" clip-path="url(#p0063df5930)" style="fill: none; stroke-dasharray: 2.96,1.28; stroke-dashoffset: 0; stroke: #b0b0b0; stroke-width: 0.8"/>
     </g>
     <g id="line2d_28">
      <g>
       <use xlink:href="#m2169a65e67" x="45.267188" y="217.285541" style="stroke: #000000; stroke-width: 0.8"/>
      </g>
     </g>
     <g id="text_2">
      <!-- 2200 -->
      <g transform="translate(12.817188 221.08476)scale(0.1 -0.1)">
       <use xlink:href="#DejaVuSans-32"/>
       <use xlink:href="#DejaVuSans-32" x="63.623047"/>
       <use xlink:href="#DejaVuSans-30" x="127.246094"/>
       <use xlink:href="#DejaVuSans-30" x="190.869141"/>
      </g>
     </g>
    </g>
    <g id="ytick_3">
     <g id="line2d_29">
      <path d="M 45.267188 162.015706 
L 982.876106 162.015706 
" clip-path="url(#p0063df5930)" style="fill: none; stroke-dasharray: 2.96,1.28; stroke-dashoffset: 0; stroke: #b0b0b0; stroke-width: 0.8"/>
     </g>
     <g id="line2d_30">
      <g>
       <use xlink:href="#m2169a65e67" x="45.267188" y="162.015706" style="stroke: #000000; stroke-width: 0.8"/>
      </g>
     </g>
     <g id="text_3">
      <!-- 2400 -->
      <g transform="translate(12.817188 165.814925)scale(0.1 -0.1)">
       <defs>
        <path id="DejaVuSans-34" d="M 2419 4116 
L 825 1625 
L 2419 1625 
L 2419 4116 
z
M 2253 4666 
L 3047 4666 
L 3047 1625 
L 3713 1625 
L 3713 1100 
L 3047 1100 
L 3047 0 
L 2419 0 
L 2419 1100 
L 313 1100 
L 313 1709 
L 2253 4666 
z
" transform="scale(0.015625)"/>
       </defs>
       <use xlink:href="#DejaVuSans-32"/>
       <use xlink:href="#DejaVuSans-34" x="63.623047"/>
       <use xlink:href="#DejaVuSans-30" x="127.246094"/>
       <use xlink:href="#DejaVuSans-30" x="190.869141"/>
      </g>
     </g>
    </g>
    <g id="ytick_4">
     <g id="line2d_31">
      <path d="M 45.267188 106.745872 
L 982.876106 106.745872 
" clip-path="url(#p0063df5930)" style="fill: none; stroke-dasharray: 2.96,1.28; stroke-dashoffset: 0; stroke: #b0b0b0; stroke-width: 0.8"/>
     </g>
     <g id="line2d_32">
      <g>
       <use xlink:href="#m2169a65e67" x="45.267188" y="106.745872" style="stroke: #000000; stroke-width: 0.8"/>
      </g>
     </g>
     <g id="text_4">
      <!-- 2600 -->
      <g transform="translate(12.817188 110.545091)scale(0.1 -0.1)">
       <defs>
        <path id="DejaVuSans-36" d="M 2113 2584 
Q 1688 2584 1439 2293 
Q 1191 2003 1191 1497 
Q 1191 994 1439 701 
Q 1688 409 2113 409 
Q 2538 409 2786 701 
Q 3034 994 3034 1497 
Q 3034 2003 2786 2293 
Q 2538 2584 2113 2584 
z
M 3366 4563 
L 3366 3988 
Q 3128 4100 2886 4159 
Q 2644 4219 2406 4219 
Q 1781 4219 1451 3797 
Q 1122 3375 1075 2522 
Q 1259 2794 1537 2939 
Q 1816 3084 2150 3084 
Q 2853 3084 3261 2657 
Q 3669 2231 3669 1497 
Q 3669 778 3244 343 
Q 2819 -91 2113 -91 
Q 1303 -91 875 529 
Q 447 1150 447 2328 
Q 447 3434 972 4092 
Q 1497 4750 2381 4750 
Q 2619 4750 2861 4703 
Q 3103 4656 3366 4563 
z
" transform="scale(0.015625)"/>
       </defs>
       <use xlink:href="#DejaVuSans-32"/>
       <use xlink:href="#DejaVuSans-36" x="63.623047"/>
       <use xlink:href="#DejaVuSans-30" x="127.246094"/>
       <use xlink:href="#DejaVuSans-30" x="190.869141"/>
      </g>
     </g>
    </g>
    <g id="ytick_5">
     <g id="line2d_33">
      <path d="M 45.267188 51.476038 
L 982.876106 51.476038 
" clip-path="url(#p0063df5930)" style="fill: none; stroke-dasharray: 2.96,1.28; stroke-dashoffset: 0; stroke: #b0b0b0; stroke-width: 0.8"/>
     </g>
     <g id="line2d_34">
      <g>
       <use xlink:href="#m2169a65e67" x="45.267188" y="51.476038" style="stroke: #000000; stroke-width: 0.8"/>
      </g>
     </g>
     <g id="text_5">
      <!-- 2800 -->
      <g transform="translate(12.817188 55.275256)scale(0.1 -0.1)">
       <defs>
        <path id="DejaVuSans-38" d="M 2034 2216 
Q 1584 2216 1326 1975 
Q 1069 1734 1069 1313 
Q 1069 891 1326 650 
Q 1584 409 2034 409 
Q 2484 409 2743 651 
Q 3003 894 3003 1313 
Q 3003 1734 2745 1975 
Q 2488 2216 2034 2216 
z
M 1403 2484 
Q 997 2584 770 2862 
Q 544 3141 544 3541 
Q 544 4100 942 4425 
Q 1341 4750 2034 4750 
Q 2731 4750 3128 4425 
Q 3525 4100 3525 3541 
Q 3525 3141 3298 2862 
Q 3072 2584 2669 2484 
Q 3125 2378 3379 2068 
Q 3634 1759 3634 1313 
Q 3634 634 3220 271 
Q 2806 -91 2034 -91 
Q 1263 -91 848 271 
Q 434 634 434 1313 
Q 434 1759 690 2068 
Q 947 2378 1403 2484 
z
M 1172 3481 
Q 1172 3119 1398 2916 
Q 1625 2713 2034 2713 
Q 2441 2713 2670 2916 
Q 2900 3119 2900 3481 
Q 2900 3844 2670 4047 
Q 2441 4250 2034 4250 
Q 1625 4250 1398 4047 
Q 1172 3844 1172 3481 
z
" transform="scale(0.015625)"/>
       </defs>
       <use xlink:href="#DejaVuSans-32"/>
       <use xlink:href="#DejaVuSans-38" x="63.623047"/>
       <use xlink:href="#DejaVuSans-30" x="127.246094"/>
       <use xlink:href="#DejaVuSans-30" x="190.869141"/>
      </g>
     </g>
    </g>
   </g>
   <g id="line2d_35">
    <path d="M 87.885775 127.789862 
L 90.557786 111.443808 
L 93.229798 113.3368 
L 95.90181 107.878904 
L 98.573822 114.290204 
L 106.589857 90.855795 
L 109.261869 92.002644 
L 111.93388 103.16715 
L 114.605892 101.426151 
L 117.277904 108.749404 
L 125.293939 107.422928 
L 127.965951 106.580063 
L 130.637962 109.813348 
L 133.309974 116.611538 
L 135.981986 126.60156 
L 143.998021 161.172842 
L 146.670033 168.509912 
L 152.014056 186.873314 
L 154.686068 185.339577 
L 162.702103 172.986769 
L 165.374115 153.227803 
L 168.046127 144.329359 
L 170.718139 141.303336 
L 173.39015 142.353463 
L 181.406185 159.473294 
L 184.078197 149.953065 
L 186.750209 138.581297 
L 189.422221 136.633035 
L 192.094232 150.339954 
L 200.110268 162.568405 
L 202.782279 135.513821 
L 205.454291 137.683162 
L 208.126303 136.259964 
L 210.798315 137.434448 
L 218.81435 146.996129 
L 221.486362 148.170613 
L 224.158373 135.569091 
L 226.830385 160.191802 
L 229.502397 143.099606 
L 237.518432 121.516735 
L 242.862455 108.777039 
L 245.534467 113.861863 
L 248.206479 150.68539 
L 256.222514 164.862103 
L 258.894526 169.960745 
L 261.566538 152.716557 
L 264.238549 143.279233 
L 266.910561 136.149424 
L 274.926596 123.603172 
L 277.598608 118.642704 
L 280.27062 110.255507 
L 282.942631 78.281907 
L 293.630678 77.107423 
L 296.30269 75.587503 
L 298.974702 81.874447 
L 301.646714 101.633412 
L 304.318725 127.776044 
L 312.334761 124.459854 
L 315.006772 123.658441 
L 317.678784 127.983306 
L 320.350796 124.390767 
L 323.022808 128.618909 
L 331.038843 129.682853 
L 333.710854 120.78441 
L 336.382866 123.313005 
L 339.054878 145.890732 
L 341.72689 131.631115 
L 349.742925 137.185733 
L 352.414937 137.64171 
L 355.086948 145.061685 
L 368.447007 136.190876 
L 371.119019 147.47974 
L 373.791031 139.16163 
L 376.463042 128.577457 
L 379.135054 130.871155 
L 387.151089 147.120486 
L 389.823101 121.060759 
L 392.495113 136.49486 
L 395.167124 130.73298 
L 397.839136 145.932185 
L 405.855171 165.732603 
L 411.199195 192.427933 
L 413.871207 200.151892 
L 416.543218 214.867486 
L 424.559254 221.928207 
L 427.231265 234.598816 
L 429.903277 240.858125 
L 432.575289 259.138623 
L 435.2473 247.214156 
L 443.263336 242.267506 
L 445.935347 223.821199 
L 448.607359 226.474151 
L 451.279371 241.618085 
L 453.951383 234.681721 
L 461.967418 230.743746 
L 464.63943 233.797404 
L 467.311441 241.217379 
L 469.983453 233.32761 
L 472.655465 231.324079 
L 480.6715 201.837622 
L 483.343512 212.863954 
L 486.015523 217.948779 
L 488.687535 211.496026 
L 491.359547 216.069605 
L 499.375582 217.686247 
L 502.047594 244.699379 
L 504.719606 236.947784 
L 507.391617 233.949396 
L 510.063629 233.244706 
L 518.079664 244.25722 
L 520.751676 244.36776 
L 523.423688 243.524895 
L 526.095699 255.711893 
L 528.767711 290.117365 
L 536.783746 283.139549 
L 539.455758 250.972505 
L 542.12777 263.933281 
L 544.799782 261.11452 
L 547.471793 259.953853 
L 555.487829 261.418504 
L 558.15984 281.384731 
L 560.831852 290.20027 
L 566.175876 287.422961 
L 574.191911 282.918469 
L 576.863922 285.19835 
L 579.535934 268.810844 
L 582.207946 237.320856 
L 584.879958 232.664372 
L 592.895993 227.344651 
L 595.568005 236.629983 
L 598.240016 241.770078 
L 600.912028 237.334673 
L 603.58404 220.131937 
L 611.600075 206.936264 
L 614.272087 205.899955 
L 616.944099 197.60948 
L 619.61611 192.801004 
L 622.288122 182.741894 
L 630.304157 181.67795 
L 632.976169 191.529798 
L 635.648181 188.669584 
L 638.320192 180.075125 
L 640.992204 175.266649 
L 649.008239 168.578999 
L 651.680251 166.174762 
L 654.352263 157.48358 
L 657.024275 155.480049 
L 659.696286 152.951454 
L 667.712322 149.041113 
L 673.056345 152.730374 
L 675.728357 142.021844 
L 678.400368 142.132384 
L 689.088415 136.080337 
L 691.760427 136.536313 
L 694.432439 140.267027 
L 697.104451 150.79593 
L 705.120486 157.151961 
L 707.792498 139.852503 
L 710.464509 145.241312 
L 713.136521 143.652304 
L 715.808533 125.288902 
L 723.824568 125.620521 
L 726.49658 105.460848 
L 731.840603 100.66619 
L 734.512615 103.263873 
L 742.52865 99.187722 
L 745.200662 97.999421 
L 747.872674 96.313691 
L 750.544685 99.367349 
L 753.216697 105.792467 
L 761.232732 89.84712 
L 763.904744 77.577217 
L 766.576756 78.945145 
L 771.920779 103.484952 
L 779.936814 101.274158 
L 782.608826 83.532542 
L 785.280838 88.3272 
L 787.95285 68.720226 
L 790.624861 86.724375 
L 798.640897 91.408493 
L 801.312908 106.64915 
L 803.98492 113.115721 
L 806.656932 125.67579 
L 809.328944 104.825245 
L 817.344979 113.875681 
L 820.016991 110.863475 
L 825.361014 108.721769 
L 828.033026 70.682305 
L 836.049061 84.610303 
L 838.721073 99.975317 
L 841.393084 100.845817 
L 844.065096 107.118943 
L 846.737108 101.826857 
L 854.753143 99.837143 
L 857.425155 95.387921 
L 860.097167 94.434516 
L 862.769178 98.040873 
L 865.44119 88.603549 
L 873.457225 83.560177 
L 876.129237 87.318525 
L 881.47326 78.060828 
L 884.145272 69.051845 
L 892.161307 62.115481 
L 894.833319 63.925568 
L 897.505331 71.248821 
L 900.177343 61.52133 
L 902.849354 59.849418 
L 910.86539 67.628647 
L 916.209413 74.109035 
L 918.881425 95.415556 
L 921.553437 92.430985 
L 929.569472 98.510667 
L 932.241483 91.090692 
L 934.913495 94.503604 
L 937.585507 111.720157 
L 940.257519 116.197014 
L 940.257519 116.197014 
" clip-path="url(#p0063df5930)" style="fill: none; stroke: #1f77b4; stroke-width: 1.5; stroke-linecap: square"/>
   </g>
   <g id="line2d_36">
    <path d="M 98.573822 114.947916 
L 106.589857 107.561102 
L 109.261869 103.672869 
L 111.93388 101.638939 
L 114.605892 100.348389 
L 117.277904 99.240229 
L 125.293939 102.553655 
L 127.965951 105.469139 
L 130.637962 106.798378 
L 133.309974 109.835456 
L 143.998021 124.15587 
L 146.670033 136.54184 
L 152.014056 151.953833 
L 154.686068 165.699441 
L 162.702103 174.976483 
L 165.374115 173.387475 
L 168.046127 168.551364 
L 170.718139 159.437369 
L 173.39015 150.840146 
L 181.406185 148.137451 
L 184.078197 147.482504 
L 186.750209 146.332891 
L 189.422221 145.398831 
L 192.094232 146.996129 
L 200.110268 147.615151 
L 202.782279 144.727302 
L 208.126303 144.473061 
L 210.798315 141.89196 
L 218.81435 138.777505 
L 221.486362 141.308863 
L 224.158373 140.886049 
L 226.830385 145.672416 
L 229.502397 146.805448 
L 237.518432 141.709569 
L 242.862455 133.830854 
L 245.534467 129.489409 
L 248.206479 127.588127 
L 256.222514 131.940626 
L 258.894526 141.629428 
L 261.566538 150.417332 
L 264.238549 156.300806 
L 266.910561 153.393612 
L 274.926596 145.141826 
L 277.598608 134.878218 
L 280.27062 126.386008 
L 282.942631 113.386543 
L 293.630678 101.578143 
L 296.30269 91.975009 
L 298.974702 84.621357 
L 301.646714 82.896939 
L 304.318725 92.795766 
L 312.334761 102.266252 
L 317.678784 121.102212 
L 320.350796 125.653682 
L 323.022808 125.822255 
L 331.038843 126.866855 
L 333.710854 126.292049 
L 336.382866 125.357989 
L 339.054878 129.657982 
L 341.72689 130.260423 
L 349.742925 131.760999 
L 352.414937 135.132459 
L 355.086948 139.482195 
L 368.447007 137.542224 
L 371.119019 140.711949 
L 373.791031 141.107128 
L 376.463042 139.294278 
L 379.135054 136.456172 
L 387.151089 138.642094 
L 389.823101 133.358297 
L 392.495113 132.824943 
L 395.167124 133.256048 
L 397.839136 136.268254 
L 405.855171 139.990677 
L 411.199195 154.264112 
L 413.871207 166.995519 
L 416.543218 183.82242 
L 424.559254 199.021624 
L 427.231265 212.794867 
L 429.903277 222.480905 
L 432.575289 234.278251 
L 435.2473 240.747586 
L 443.263336 244.815445 
L 445.935347 242.659922 
L 448.607359 239.783127 
L 451.279371 236.279019 
L 453.951383 233.772532 
L 461.967418 231.46778 
L 464.63943 233.463021 
L 467.311441 236.411667 
L 469.983453 234.753572 
L 472.655465 234.082044 
L 480.6715 228.300819 
L 483.343512 224.114129 
L 486.015523 219.460409 
L 488.687535 215.094092 
L 491.359547 212.043197 
L 499.375582 215.212922 
L 502.047594 221.580007 
L 504.719606 225.379808 
L 507.391617 229.870482 
L 510.063629 233.305502 
L 518.079664 238.619697 
L 520.751676 238.553373 
L 523.423688 239.868795 
L 526.095699 244.221295 
L 528.767711 255.595827 
L 536.783746 263.372292 
L 539.455758 264.693241 
L 542.12777 268.774919 
L 544.799782 269.855444 
L 547.471793 263.822741 
L 555.487829 259.478532 
L 558.15984 265.560978 
L 560.831852 270.814375 
L 566.175876 281.843471 
L 574.191911 286.143464 
L 576.863922 286.906188 
L 579.535934 282.628303 
L 582.207946 272.334296 
L 584.879958 261.382578 
L 592.895993 250.267815 
L 595.568005 240.554141 
L 598.240016 235.145988 
L 600.912028 235.148751 
L 603.58404 232.642264 
L 611.600075 228.560587 
L 614.272087 222.414582 
L 619.61611 204.675728 
L 622.288122 197.19772 
L 630.304157 192.146057 
L 632.976169 189.272025 
L 635.648181 187.484046 
L 638.320192 184.93887 
L 640.992204 183.443821 
L 649.008239 180.824031 
L 651.680251 175.753024 
L 654.352263 169.515823 
L 657.024275 164.596808 
L 659.696286 160.133769 
L 673.056345 153.537314 
L 675.728357 150.444967 
L 678.400368 147.775434 
L 689.088415 144.40121 
L 694.432439 139.407581 
L 697.104451 141.162398 
L 705.120486 144.166313 
L 707.792498 144.920747 
L 710.464509 146.661746 
L 713.136521 147.338802 
L 715.808533 142.237396 
L 723.824568 135.931108 
L 726.49658 129.052777 
L 731.840603 120.137753 
L 734.512615 112.060067 
L 742.52865 106.839831 
L 745.200662 101.315611 
L 747.872674 99.486179 
L 750.544685 99.226411 
L 753.216697 99.73213 
L 761.232732 97.86401 
L 763.904744 93.779569 
L 766.576756 90.30586 
L 769.248768 88.678163 
L 771.920779 88.21666 
L 779.936814 90.502068 
L 782.608826 91.693133 
L 785.280838 93.569544 
L 787.95285 89.067816 
L 790.624861 85.7157 
L 798.640897 83.742567 
L 801.312908 88.365889 
L 803.98492 93.323593 
L 806.656932 104.714706 
L 809.328944 108.33488 
L 817.344979 112.828317 
L 820.016991 113.671182 
L 825.361014 112.792392 
L 828.033026 101.793695 
L 836.049061 97.750707 
L 838.721073 94.970634 
L 841.393084 92.967102 
L 844.065096 92.646537 
L 846.737108 98.875448 
L 854.753143 101.920816 
L 857.425155 101.003336 
L 860.097167 99.721076 
L 862.769178 97.905462 
L 865.44119 95.260801 
L 873.457225 92.005407 
L 881.47326 87.11679 
L 884.145272 81.318985 
L 892.161307 76.021371 
L 894.833319 72.094449 
L 900.177343 65.572609 
L 902.849354 63.732123 
L 910.86539 64.834757 
L 916.209413 66.87145 
L 918.881425 71.704797 
L 921.553437 77.886728 
L 929.569472 85.618978 
L 932.241483 90.311387 
L 934.913495 94.390301 
L 937.585507 97.651221 
L 940.257519 102.404427 
L 940.257519 102.404427 
" clip-path="url(#p0063df5930)" style="fill: none; stroke: #ff7f0e; stroke-width: 1.5; stroke-linecap: square"/>
   </g>
   <g id="patch_3">
    <path d="M 45.267188 301.717812 
L 45.267188 48.331875 
" style="fill: none; stroke: #000000; stroke-width: 0.8; stroke-linejoin: miter; stroke-linecap: square"/>
   </g>
   <g id="patch_4">
    <path d="M 982.876106 301.717812 
L 982.876106 48.331875 
" style="fill: none; stroke: #000000; stroke-width: 0.8; stroke-linejoin: miter; stroke-linecap: square"/>
   </g>
   <g id="patch_5">
    <path d="M 45.267188 301.717812 
L 982.876106 301.717812 
" style="fill: none; stroke: #000000; stroke-width: 0.8; stroke-linejoin: miter; stroke-linecap: square"/>
   </g>
   <g id="patch_6">
    <path d="M 45.267188 48.331875 
L 982.876106 48.331875 
" style="fill: none; stroke: #000000; stroke-width: 0.8; stroke-linejoin: miter; stroke-linecap: square"/>
   </g>
   <g id="text_6">
    <!-- Closing Price -->
    <g transform="translate(475.595709 42.331875)scale(0.12 -0.12)">
     <defs>
      <path id="DejaVuSans-43" d="M 4122 4306 
L 4122 3641 
Q 3803 3938 3442 4084 
Q 3081 4231 2675 4231 
Q 1875 4231 1450 3742 
Q 1025 3253 1025 2328 
Q 1025 1406 1450 917 
Q 1875 428 2675 428 
Q 3081 428 3442 575 
Q 3803 722 4122 1019 
L 4122 359 
Q 3791 134 3420 21 
Q 3050 -91 2638 -91 
Q 1578 -91 968 557 
Q 359 1206 359 2328 
Q 359 3453 968 4101 
Q 1578 4750 2638 4750 
Q 3056 4750 3426 4639 
Q 3797 4528 4122 4306 
z
" transform="scale(0.015625)"/>
      <path id="DejaVuSans-6c" d="M 603 4863 
L 1178 4863 
L 1178 0 
L 603 0 
L 603 4863 
z
" transform="scale(0.015625)"/>
      <path id="DejaVuSans-6f" d="M 1959 3097 
Q 1497 3097 1228 2736 
Q 959 2375 959 1747 
Q 959 1119 1226 758 
Q 1494 397 1959 397 
Q 2419 397 2687 759 
Q 2956 1122 2956 1747 
Q 2956 2369 2687 2733 
Q 2419 3097 1959 3097 
z
M 1959 3584 
Q 2709 3584 3137 3096 
Q 3566 2609 3566 1747 
Q 3566 888 3137 398 
Q 2709 -91 1959 -91 
Q 1206 -91 779 398 
Q 353 888 353 1747 
Q 353 2609 779 3096 
Q 1206 3584 1959 3584 
z
" transform="scale(0.015625)"/>
      <path id="DejaVuSans-73" d="M 2834 3397 
L 2834 2853 
Q 2591 2978 2328 3040 
Q 2066 3103 1784 3103 
Q 1356 3103 1142 2972 
Q 928 2841 928 2578 
Q 928 2378 1081 2264 
Q 1234 2150 1697 2047 
L 1894 2003 
Q 2506 1872 2764 1633 
Q 3022 1394 3022 966 
Q 3022 478 2636 193 
Q 2250 -91 1575 -91 
Q 1294 -91 989 -36 
Q 684 19 347 128 
L 347 722 
Q 666 556 975 473 
Q 1284 391 1588 391 
Q 1994 391 2212 530 
Q 2431 669 2431 922 
Q 2431 1156 2273 1281 
Q 2116 1406 1581 1522 
L 1381 1569 
Q 847 1681 609 1914 
Q 372 2147 372 2553 
Q 372 3047 722 3315 
Q 1072 3584 1716 3584 
Q 2034 3584 2315 3537 
Q 2597 3491 2834 3397 
z
" transform="scale(0.015625)"/>
      <path id="DejaVuSans-69" d="M 603 3500 
L 1178 3500 
L 1178 0 
L 603 0 
L 603 3500 
z
M 603 4863 
L 1178 4863 
L 1178 4134 
L 603 4134 
L 603 4863 
z
" transform="scale(0.015625)"/>
      <path id="DejaVuSans-6e" d="M 3513 2113 
L 3513 0 
L 2938 0 
L 2938 2094 
Q 2938 2591 2744 2837 
Q 2550 3084 2163 3084 
Q 1697 3084 1428 2787 
Q 1159 2491 1159 1978 
L 1159 0 
L 581 0 
L 581 3500 
L 1159 3500 
L 1159 2956 
Q 1366 3272 1645 3428 
Q 1925 3584 2291 3584 
Q 2894 3584 3203 3211 
Q 3513 2838 3513 2113 
z
" transform="scale(0.015625)"/>
      <path id="DejaVuSans-67" d="M 2906 1791 
Q 2906 2416 2648 2759 
Q 2391 3103 1925 3103 
Q 1463 3103 1205 2759 
Q 947 2416 947 1791 
Q 947 1169 1205 825 
Q 1463 481 1925 481 
Q 2391 481 2648 825 
Q 2906 1169 2906 1791 
z
M 3481 434 
Q 3481 -459 3084 -895 
Q 2688 -1331 1869 -1331 
Q 1566 -1331 1297 -1286 
Q 1028 -1241 775 -1147 
L 775 -588 
Q 1028 -725 1275 -790 
Q 1522 -856 1778 -856 
Q 2344 -856 2625 -561 
Q 2906 -266 2906 331 
L 2906 616 
Q 2728 306 2450 153 
Q 2172 0 1784 0 
Q 1141 0 747 490 
Q 353 981 353 1791 
Q 353 2603 747 3093 
Q 1141 3584 1784 3584 
Q 2172 3584 2450 3431 
Q 2728 3278 2906 2969 
L 2906 3500 
L 3481 3500 
L 3481 434 
z
" transform="scale(0.015625)"/>
      <path id="DejaVuSans-20" transform="scale(0.015625)"/>
      <path id="DejaVuSans-50" d="M 1259 4147 
L 1259 2394 
L 2053 2394 
Q 2494 2394 2734 2622 
Q 2975 2850 2975 3272 
Q 2975 3691 2734 3919 
Q 2494 4147 2053 4147 
L 1259 4147 
z
M 628 4666 
L 2053 4666 
Q 2838 4666 3239 4311 
Q 3641 3956 3641 3272 
Q 3641 2581 3239 2228 
Q 2838 1875 2053 1875 
L 1259 1875 
L 1259 0 
L 628 0 
L 628 4666 
z
" transform="scale(0.015625)"/>
      <path id="DejaVuSans-72" d="M 2631 2963 
Q 2534 3019 2420 3045 
Q 2306 3072 2169 3072 
Q 1681 3072 1420 2755 
Q 1159 2438 1159 1844 
L 1159 0 
L 581 0 
L 581 3500 
L 1159 3500 
L 1159 2956 
Q 1341 3275 1631 3429 
Q 1922 3584 2338 3584 
Q 2397 3584 2469 3576 
Q 2541 3569 2628 3553 
L 2631 2963 
z
" transform="scale(0.015625)"/>
      <path id="DejaVuSans-63" d="M 3122 3366 
L 3122 2828 
Q 2878 2963 2633 3030 
Q 2388 3097 2138 3097 
Q 1578 3097 1268 2742 
Q 959 2388 959 1747 
Q 959 1106 1268 751 
Q 1578 397 2138 397 
Q 2388 397 2633 464 
Q 2878 531 3122 666 
L 3122 134 
Q 2881 22 2623 -34 
Q 2366 -91 2075 -91 
Q 1284 -91 818 406 
Q 353 903 353 1747 
Q 353 2603 823 3093 
Q 1294 3584 2113 3584 
Q 2378 3584 2631 3529 
Q 2884 3475 3122 3366 
z
" transform="scale(0.015625)"/>
      <path id="DejaVuSans-65" d="M 3597 1894 
L 3597 1613 
L 953 1613 
Q 991 1019 1311 708 
Q 1631 397 2203 397 
Q 2534 397 2845 478 
Q 3156 559 3463 722 
L 3463 178 
Q 3153 47 2828 -22 
Q 2503 -91 2169 -91 
Q 1331 -91 842 396 
Q 353 884 353 1716 
Q 353 2575 817 3079 
Q 1281 3584 2069 3584 
Q 2775 3584 3186 3129 
Q 3597 2675 3597 1894 
z
M 3022 2063 
Q 3016 2534 2758 2815 
Q 2500 3097 2075 3097 
Q 1594 3097 1305 2825 
Q 1016 2553 972 2059 
L 3022 2063 
z
" transform="scale(0.015625)"/>
     </defs>
     <use xlink:href="#DejaVuSans-43"/>
     <use xlink:href="#DejaVuSans-6c" x="69.824219"/>
     <use xlink:href="#DejaVuSans-6f" x="97.607422"/>
     <use xlink:href="#DejaVuSans-73" x="158.789062"/>
     <use xlink:href="#DejaVuSans-69" x="210.888672"/>
     <use xlink:href="#DejaVuSans-6e" x="238.671875"/>
     <use xlink:href="#DejaVuSans-67" x="302.050781"/>
     <use xlink:href="#DejaVuSans-20" x="365.527344"/>
     <use xlink:href="#DejaVuSans-50" x="397.314453"/>
     <use xlink:href="#DejaVuSans-72" x="455.867188"/>
     <use xlink:href="#DejaVuSans-69" x="496.980469"/>
     <use xlink:href="#DejaVuSans-63" x="524.763672"/>
     <use xlink:href="#DejaVuSans-65" x="579.744141"/>
    </g>
   </g>
   <g id="legend_1">
    <g id="patch_7">
     <path d="M 52.267188 85.688125 
L 116.998438 85.688125 
Q 118.998438 85.688125 118.998438 83.688125 
L 118.998438 55.331875 
Q 118.998438 53.331875 116.998438 53.331875 
L 52.267188 53.331875 
Q 50.267188 53.331875 50.267188 55.331875 
L 50.267188 83.688125 
Q 50.267188 85.688125 52.267188 85.688125 
z
" style="fill: #ffffff; opacity: 0.8; stroke: #cccccc; stroke-linejoin: miter"/>
    </g>
    <g id="line2d_37">
     <path d="M 54.267188 61.430312 
L 64.267188 61.430312 
L 74.267188 61.430312 
" style="fill: none; stroke: #1f77b4; stroke-width: 1.5; stroke-linecap: square"/>
    </g>
    <g id="text_7">
     <!-- CLOSE -->
     <g transform="translate(82.267188 64.930312)scale(0.1 -0.1)">
      <defs>
       <path id="DejaVuSans-4c" d="M 628 4666 
L 1259 4666 
L 1259 531 
L 3531 531 
L 3531 0 
L 628 0 
L 628 4666 
z
" transform="scale(0.015625)"/>
       <path id="DejaVuSans-4f" d="M 2522 4238 
Q 1834 4238 1429 3725 
Q 1025 3213 1025 2328 
Q 1025 1447 1429 934 
Q 1834 422 2522 422 
Q 3209 422 3611 934 
Q 4013 1447 4013 2328 
Q 4013 3213 3611 3725 
Q 3209 4238 2522 4238 
z
M 2522 4750 
Q 3503 4750 4090 4092 
Q 4678 3434 4678 2328 
Q 4678 1225 4090 567 
Q 3503 -91 2522 -91 
Q 1538 -91 948 565 
Q 359 1222 359 2328 
Q 359 3434 948 4092 
Q 1538 4750 2522 4750 
z
" transform="scale(0.015625)"/>
       <path id="DejaVuSans-53" d="M 3425 4513 
L 3425 3897 
Q 3066 4069 2747 4153 
Q 2428 4238 2131 4238 
Q 1616 4238 1336 4038 
Q 1056 3838 1056 3469 
Q 1056 3159 1242 3001 
Q 1428 2844 1947 2747 
L 2328 2669 
Q 3034 2534 3370 2195 
Q 3706 1856 3706 1288 
Q 3706 609 3251 259 
Q 2797 -91 1919 -91 
Q 1588 -91 1214 -16 
Q 841 59 441 206 
L 441 856 
Q 825 641 1194 531 
Q 1563 422 1919 422 
Q 2459 422 2753 634 
Q 3047 847 3047 1241 
Q 3047 1584 2836 1778 
Q 2625 1972 2144 2069 
L 1759 2144 
Q 1053 2284 737 2584 
Q 422 2884 422 3419 
Q 422 4038 858 4394 
Q 1294 4750 2059 4750 
Q 2388 4750 2728 4690 
Q 3069 4631 3425 4513 
z
" transform="scale(0.015625)"/>
       <path id="DejaVuSans-45" d="M 628 4666 
L 3578 4666 
L 3578 4134 
L 1259 4134 
L 1259 2753 
L 3481 2753 
L 3481 2222 
L 1259 2222 
L 1259 531 
L 3634 531 
L 3634 0 
L 628 0 
L 628 4666 
z
" transform="scale(0.015625)"/>
      </defs>
      <use xlink:href="#DejaVuSans-43"/>
      <use xlink:href="#DejaVuSans-4c" x="69.824219"/>
      <use xlink:href="#DejaVuSans-4f" x="121.912109"/>
      <use xlink:href="#DejaVuSans-53" x="200.623047"/>
      <use xlink:href="#DejaVuSans-45" x="264.099609"/>
     </g>
    </g>
    <g id="line2d_38">
     <path d="M 54.267188 76.108437 
L 64.267188 76.108437 
L 74.267188 76.108437 
" style="fill: none; stroke: #ff7f0e; stroke-width: 1.5; stroke-linecap: square"/>
    </g>
    <g id="text_8">
     <!-- SMA5 -->
     <g transform="translate(82.267188 79.608437)scale(0.1 -0.1)">
      <defs>
       <path id="DejaVuSans-4d" d="M 628 4666 
L 1569 4666 
L 2759 1491 
L 3956 4666 
L 4897 4666 
L 4897 0 
L 4281 0 
L 4281 4097 
L 3078 897 
L 2444 897 
L 1241 4097 
L 1241 0 
L 628 0 
L 628 4666 
z
" transform="scale(0.015625)"/>
       <path id="DejaVuSans-41" d="M 2188 4044 
L 1331 1722 
L 3047 1722 
L 2188 4044 
z
M 1831 4666 
L 2547 4666 
L 4325 0 
L 3669 0 
L 3244 1197 
L 1141 1197 
L 716 0 
L 50 0 
L 1831 4666 
z
" transform="scale(0.015625)"/>
       <path id="DejaVuSans-35" d="M 691 4666 
L 3169 4666 
L 3169 4134 
L 1269 4134 
L 1269 2991 
Q 1406 3038 1543 3061 
Q 1681 3084 1819 3084 
Q 2600 3084 3056 2656 
Q 3513 2228 3513 1497 
Q 3513 744 3044 326 
Q 2575 -91 1722 -91 
Q 1428 -91 1123 -41 
Q 819 9 494 109 
L 494 744 
Q 775 591 1075 516 
Q 1375 441 1709 441 
Q 2250 441 2565 725 
Q 2881 1009 2881 1497 
Q 2881 1984 2565 2268 
Q 2250 2553 1709 2553 
Q 1456 2553 1204 2497 
Q 953 2441 691 2322 
L 691 4666 
z
" transform="scale(0.015625)"/>
      </defs>
      <use xlink:href="#DejaVuSans-53"/>
      <use xlink:href="#DejaVuSans-4d" x="63.476562"/>
      <use xlink:href="#DejaVuSans-41" x="149.755859"/>
      <use xlink:href="#DejaVuSans-35" x="218.164062"/>
     </g>
    </g>
   </g>
  </g>
  <g id="axes_2">
   <g id="patch_8">
    <path d="M 45.267188 584.521875 
L 982.876106 584.521875 
L 982.876106 331.135938 
L 45.267188 331.135938 
z
" style="fill: #ffffff"/>
   </g>
   <g id="matplotlib.axis_3">
    <g id="xtick_13">
     <g id="line2d_39">
      <path d="M 82.541751 584.521875 
L 82.541751 331.135938 
" clip-path="url(#pfad63a28b0)" style="fill: none; stroke-dasharray: 2.96,1.28; stroke-dashoffset: 0; stroke: #b0b0b0; stroke-width: 0.8"/>
     </g>
     <g id="line2d_40">
      <g>
       <use xlink:href="#m7bcf83b890" x="82.541751" y="584.521875" style="stroke: #000000; stroke-width: 0.8"/>
      </g>
     </g>
     <g id="text_9">
      <!-- 2022-01 -->
      <g transform="translate(61.650345 599.120312)scale(0.1 -0.1)">
       <defs>
        <path id="DejaVuSans-2d" d="M 313 2009 
L 1997 2009 
L 1997 1497 
L 313 1497 
L 313 2009 
z
" transform="scale(0.015625)"/>
        <path id="DejaVuSans-31" d="M 794 531 
L 1825 531 
L 1825 4091 
L 703 3866 
L 703 4441 
L 1819 4666 
L 2450 4666 
L 2450 531 
L 3481 531 
L 3481 0 
L 794 0 
L 794 531 
z
" transform="scale(0.015625)"/>
       </defs>
       <use xlink:href="#DejaVuSans-32"/>
       <use xlink:href="#DejaVuSans-30" x="63.623047"/>
       <use xlink:href="#DejaVuSans-32" x="127.246094"/>
       <use xlink:href="#DejaVuSans-32" x="190.869141"/>
       <use xlink:href="#DejaVuSans-2d" x="254.492188"/>
       <use xlink:href="#DejaVuSans-30" x="290.576172"/>
       <use xlink:href="#DejaVuSans-31" x="354.199219"/>
      </g>
     </g>
    </g>
    <g id="xtick_14">
     <g id="line2d_41">
      <path d="M 165.374115 584.521875 
L 165.374115 331.135938 
" clip-path="url(#pfad63a28b0)" style="fill: none; stroke-dasharray: 2.96,1.28; stroke-dashoffset: 0; stroke: #b0b0b0; stroke-width: 0.8"/>
     </g>
     <g id="line2d_42">
      <g>
       <use xlink:href="#m7bcf83b890" x="165.374115" y="584.521875" style="stroke: #000000; stroke-width: 0.8"/>
      </g>
     </g>
     <g id="text_10">
      <!-- 2022-02 -->
      <g transform="translate(144.482709 599.120312)scale(0.1 -0.1)">
       <use xlink:href="#DejaVuSans-32"/>
       <use xlink:href="#DejaVuSans-30" x="63.623047"/>
       <use xlink:href="#DejaVuSans-32" x="127.246094"/>
       <use xlink:href="#DejaVuSans-32" x="190.869141"/>
       <use xlink:href="#DejaVuSans-2d" x="254.492188"/>
       <use xlink:href="#DejaVuSans-30" x="290.576172"/>
       <use xlink:href="#DejaVuSans-32" x="354.199219"/>
      </g>
     </g>
    </g>
    <g id="xtick_15">
     <g id="line2d_43">
      <path d="M 240.190444 584.521875 
L 240.190444 331.135938 
" clip-path="url(#pfad63a28b0)" style="fill: none; stroke-dasharray: 2.96,1.28; stroke-dashoffset: 0; stroke: #b0b0b0; stroke-width: 0.8"/>
     </g>
     <g id="line2d_44">
      <g>
       <use xlink:href="#m7bcf83b890" x="240.190444" y="584.521875" style="stroke: #000000; stroke-width: 0.8"/>
      </g>
     </g>
     <g id="text_11">
      <!-- 2022-03 -->
      <g transform="translate(219.299037 599.120312)scale(0.1 -0.1)">
       <defs>
        <path id="DejaVuSans-33" d="M 2597 2516 
Q 3050 2419 3304 2112 
Q 3559 1806 3559 1356 
Q 3559 666 3084 287 
Q 2609 -91 1734 -91 
Q 1441 -91 1130 -33 
Q 819 25 488 141 
L 488 750 
Q 750 597 1062 519 
Q 1375 441 1716 441 
Q 2309 441 2620 675 
Q 2931 909 2931 1356 
Q 2931 1769 2642 2001 
Q 2353 2234 1838 2234 
L 1294 2234 
L 1294 2753 
L 1863 2753 
Q 2328 2753 2575 2939 
Q 2822 3125 2822 3475 
Q 2822 3834 2567 4026 
Q 2313 4219 1838 4219 
Q 1578 4219 1281 4162 
Q 984 4106 628 3988 
L 628 4550 
Q 988 4650 1302 4700 
Q 1616 4750 1894 4750 
Q 2613 4750 3031 4423 
Q 3450 4097 3450 3541 
Q 3450 3153 3228 2886 
Q 3006 2619 2597 2516 
z
" transform="scale(0.015625)"/>
       </defs>
       <use xlink:href="#DejaVuSans-32"/>
       <use xlink:href="#DejaVuSans-30" x="63.623047"/>
       <use xlink:href="#DejaVuSans-32" x="127.246094"/>
       <use xlink:href="#DejaVuSans-32" x="190.869141"/>
       <use xlink:href="#DejaVuSans-2d" x="254.492188"/>
       <use xlink:href="#DejaVuSans-30" x="290.576172"/>
       <use xlink:href="#DejaVuSans-33" x="354.199219"/>
      </g>
     </g>
    </g>
    <g id="xtick_16">
     <g id="line2d_45">
      <path d="M 323.022808 584.521875 
L 323.022808 331.135938 
" clip-path="url(#pfad63a28b0)" style="fill: none; stroke-dasharray: 2.96,1.28; stroke-dashoffset: 0; stroke: #b0b0b0; stroke-width: 0.8"/>
     </g>
     <g id="line2d_46">
      <g>
       <use xlink:href="#m7bcf83b890" x="323.022808" y="584.521875" style="stroke: #000000; stroke-width: 0.8"/>
      </g>
     </g>
     <g id="text_12">
      <!-- 2022-04 -->
      <g transform="translate(302.131401 599.120312)scale(0.1 -0.1)">
       <use xlink:href="#DejaVuSans-32"/>
       <use xlink:href="#DejaVuSans-30" x="63.623047"/>
       <use xlink:href="#DejaVuSans-32" x="127.246094"/>
       <use xlink:href="#DejaVuSans-32" x="190.869141"/>
       <use xlink:href="#DejaVuSans-2d" x="254.492188"/>
       <use xlink:href="#DejaVuSans-30" x="290.576172"/>
       <use xlink:href="#DejaVuSans-34" x="354.199219"/>
      </g>
     </g>
    </g>
    <g id="xtick_17">
     <g id="line2d_47">
      <path d="M 403.18316 584.521875 
L 403.18316 331.135938 
" clip-path="url(#pfad63a28b0)" style="fill: none; stroke-dasharray: 2.96,1.28; stroke-dashoffset: 0; stroke: #b0b0b0; stroke-width: 0.8"/>
     </g>
     <g id="line2d_48">
      <g>
       <use xlink:href="#m7bcf83b890" x="403.18316" y="584.521875" style="stroke: #000000; stroke-width: 0.8"/>
      </g>
     </g>
     <g id="text_13">
      <!-- 2022-05 -->
      <g transform="translate(382.291753 599.120312)scale(0.1 -0.1)">
       <use xlink:href="#DejaVuSans-32"/>
       <use xlink:href="#DejaVuSans-30" x="63.623047"/>
       <use xlink:href="#DejaVuSans-32" x="127.246094"/>
       <use xlink:href="#DejaVuSans-32" x="190.869141"/>
       <use xlink:href="#DejaVuSans-2d" x="254.492188"/>
       <use xlink:href="#DejaVuSans-30" x="290.576172"/>
       <use xlink:href="#DejaVuSans-35" x="354.199219"/>
      </g>
     </g>
    </g>
    <g id="xtick_18">
     <g id="line2d_49">
      <path d="M 486.015523 584.521875 
L 486.015523 331.135938 
" clip-path="url(#pfad63a28b0)" style="fill: none; stroke-dasharray: 2.96,1.28; stroke-dashoffset: 0; stroke: #b0b0b0; stroke-width: 0.8"/>
     </g>
     <g id="line2d_50">
      <g>
       <use xlink:href="#m7bcf83b890" x="486.015523" y="584.521875" style="stroke: #000000; stroke-width: 0.8"/>
      </g>
     </g>
     <g id="text_14">
      <!-- 2022-06 -->
      <g transform="translate(465.124117 599.120312)scale(0.1 -0.1)">
       <use xlink:href="#DejaVuSans-32"/>
       <use xlink:href="#DejaVuSans-30" x="63.623047"/>
       <use xlink:href="#DejaVuSans-32" x="127.246094"/>
       <use xlink:href="#DejaVuSans-32" x="190.869141"/>
       <use xlink:href="#DejaVuSans-2d" x="254.492188"/>
       <use xlink:href="#DejaVuSans-30" x="290.576172"/>
       <use xlink:href="#DejaVuSans-36" x="354.199219"/>
      </g>
     </g>
    </g>
    <g id="xtick_19">
     <g id="line2d_51">
      <path d="M 566.175876 584.521875 
L 566.175876 331.135938 
" clip-path="url(#pfad63a28b0)" style="fill: none; stroke-dasharray: 2.96,1.28; stroke-dashoffset: 0; stroke: #b0b0b0; stroke-width: 0.8"/>
     </g>
     <g id="line2d_52">
      <g>
       <use xlink:href="#m7bcf83b890" x="566.175876" y="584.521875" style="stroke: #000000; stroke-width: 0.8"/>
      </g>
     </g>
     <g id="text_15">
      <!-- 2022-07 -->
      <g transform="translate(545.284469 599.120312)scale(0.1 -0.1)">
       <defs>
        <path id="DejaVuSans-37" d="M 525 4666 
L 3525 4666 
L 3525 4397 
L 1831 0 
L 1172 0 
L 2766 4134 
L 525 4134 
L 525 4666 
z
" transform="scale(0.015625)"/>
       </defs>
       <use xlink:href="#DejaVuSans-32"/>
       <use xlink:href="#DejaVuSans-30" x="63.623047"/>
       <use xlink:href="#DejaVuSans-32" x="127.246094"/>
       <use xlink:href="#DejaVuSans-32" x="190.869141"/>
       <use xlink:href="#DejaVuSans-2d" x="254.492188"/>
       <use xlink:href="#DejaVuSans-30" x="290.576172"/>
       <use xlink:href="#DejaVuSans-37" x="354.199219"/>
      </g>
     </g>
    </g>
    <g id="xtick_20">
     <g id="line2d_53">
      <path d="M 649.008239 584.521875 
L 649.008239 331.135938 
" clip-path="url(#pfad63a28b0)" style="fill: none; stroke-dasharray: 2.96,1.28; stroke-dashoffset: 0; stroke: #b0b0b0; stroke-width: 0.8"/>
     </g>
     <g id="line2d_54">
      <g>
       <use xlink:href="#m7bcf83b890" x="649.008239" y="584.521875" style="stroke: #000000; stroke-width: 0.8"/>
      </g>
     </g>
     <g id="text_16">
      <!-- 2022-08 -->
      <g transform="translate(628.116833 599.120312)scale(0.1 -0.1)">
       <use xlink:href="#DejaVuSans-32"/>
       <use xlink:href="#DejaVuSans-30" x="63.623047"/>
       <use xlink:href="#DejaVuSans-32" x="127.246094"/>
       <use xlink:href="#DejaVuSans-32" x="190.869141"/>
       <use xlink:href="#DejaVuSans-2d" x="254.492188"/>
       <use xlink:href="#DejaVuSans-30" x="290.576172"/>
       <use xlink:href="#DejaVuSans-38" x="354.199219"/>
      </g>
     </g>
    </g>
    <g id="xtick_21">
     <g id="line2d_55">
      <path d="M 731.840603 584.521875 
L 731.840603 331.135938 
" clip-path="url(#pfad63a28b0)" style="fill: none; stroke-dasharray: 2.96,1.28; stroke-dashoffset: 0; stroke: #b0b0b0; stroke-width: 0.8"/>
     </g>
     <g id="line2d_56">
      <g>
       <use xlink:href="#m7bcf83b890" x="731.840603" y="584.521875" style="stroke: #000000; stroke-width: 0.8"/>
      </g>
     </g>
     <g id="text_17">
      <!-- 2022-09 -->
      <g transform="translate(710.949197 599.120312)scale(0.1 -0.1)">
       <defs>
        <path id="DejaVuSans-39" d="M 703 97 
L 703 672 
Q 941 559 1184 500 
Q 1428 441 1663 441 
Q 2288 441 2617 861 
Q 2947 1281 2994 2138 
Q 2813 1869 2534 1725 
Q 2256 1581 1919 1581 
Q 1219 1581 811 2004 
Q 403 2428 403 3163 
Q 403 3881 828 4315 
Q 1253 4750 1959 4750 
Q 2769 4750 3195 4129 
Q 3622 3509 3622 2328 
Q 3622 1225 3098 567 
Q 2575 -91 1691 -91 
Q 1453 -91 1209 -44 
Q 966 3 703 97 
z
M 1959 2075 
Q 2384 2075 2632 2365 
Q 2881 2656 2881 3163 
Q 2881 3666 2632 3958 
Q 2384 4250 1959 4250 
Q 1534 4250 1286 3958 
Q 1038 3666 1038 3163 
Q 1038 2656 1286 2365 
Q 1534 2075 1959 2075 
z
" transform="scale(0.015625)"/>
       </defs>
       <use xlink:href="#DejaVuSans-32"/>
       <use xlink:href="#DejaVuSans-30" x="63.623047"/>
       <use xlink:href="#DejaVuSans-32" x="127.246094"/>
       <use xlink:href="#DejaVuSans-32" x="190.869141"/>
       <use xlink:href="#DejaVuSans-2d" x="254.492188"/>
       <use xlink:href="#DejaVuSans-30" x="290.576172"/>
       <use xlink:href="#DejaVuSans-39" x="354.199219"/>
      </g>
     </g>
    </g>
    <g id="xtick_22">
     <g id="line2d_57">
      <path d="M 812.000955 584.521875 
L 812.000955 331.135938 
" clip-path="url(#pfad63a28b0)" style="fill: none; stroke-dasharray: 2.96,1.28; stroke-dashoffset: 0; stroke: #b0b0b0; stroke-width: 0.8"/>
     </g>
     <g id="line2d_58">
      <g>
       <use xlink:href="#m7bcf83b890" x="812.000955" y="584.521875" style="stroke: #000000; stroke-width: 0.8"/>
      </g>
     </g>
     <g id="text_18">
      <!-- 2022-10 -->
      <g transform="translate(791.109549 599.120312)scale(0.1 -0.1)">
       <use xlink:href="#DejaVuSans-32"/>
       <use xlink:href="#DejaVuSans-30" x="63.623047"/>
       <use xlink:href="#DejaVuSans-32" x="127.246094"/>
       <use xlink:href="#DejaVuSans-32" x="190.869141"/>
       <use xlink:href="#DejaVuSans-2d" x="254.492188"/>
       <use xlink:href="#DejaVuSans-31" x="290.576172"/>
       <use xlink:href="#DejaVuSans-30" x="354.199219"/>
      </g>
     </g>
    </g>
    <g id="xtick_23">
     <g id="line2d_59">
      <path d="M 894.833319 584.521875 
L 894.833319 331.135938 
" clip-path="url(#pfad63a28b0)" style="fill: none; stroke-dasharray: 2.96,1.28; stroke-dashoffset: 0; stroke: #b0b0b0; stroke-width: 0.8"/>
     </g>
     <g id="line2d_60">
      <g>
       <use xlink:href="#m7bcf83b890" x="894.833319" y="584.521875" style="stroke: #000000; stroke-width: 0.8"/>
      </g>
     </g>
     <g id="text_19">
      <!-- 2022-11 -->
      <g transform="translate(873.941913 599.120312)scale(0.1 -0.1)">
       <use xlink:href="#DejaVuSans-32"/>
       <use xlink:href="#DejaVuSans-30" x="63.623047"/>
       <use xlink:href="#DejaVuSans-32" x="127.246094"/>
       <use xlink:href="#DejaVuSans-32" x="190.869141"/>
       <use xlink:href="#DejaVuSans-2d" x="254.492188"/>
       <use xlink:href="#DejaVuSans-31" x="290.576172"/>
       <use xlink:href="#DejaVuSans-31" x="354.199219"/>
      </g>
     </g>
    </g>
    <g id="xtick_24">
     <g id="line2d_61">
      <path d="M 974.993671 584.521875 
L 974.993671 331.135938 
" clip-path="url(#pfad63a28b0)" style="fill: none; stroke-dasharray: 2.96,1.28; stroke-dashoffset: 0; stroke: #b0b0b0; stroke-width: 0.8"/>
     </g>
     <g id="line2d_62">
      <g>
       <use xlink:href="#m7bcf83b890" x="974.993671" y="584.521875" style="stroke: #000000; stroke-width: 0.8"/>
      </g>
     </g>
     <g id="text_20">
      <!-- 2022-12 -->
      <g transform="translate(954.102265 599.120312)scale(0.1 -0.1)">
       <use xlink:href="#DejaVuSans-32"/>
       <use xlink:href="#DejaVuSans-30" x="63.623047"/>
       <use xlink:href="#DejaVuSans-32" x="127.246094"/>
       <use xlink:href="#DejaVuSans-32" x="190.869141"/>
       <use xlink:href="#DejaVuSans-2d" x="254.492188"/>
       <use xlink:href="#DejaVuSans-31" x="290.576172"/>
       <use xlink:href="#DejaVuSans-32" x="354.199219"/>
      </g>
     </g>
    </g>
   </g>
   <g id="matplotlib.axis_4">
    <g id="ytick_6">
     <g id="line2d_63">
      <path d="M 45.267188 558.988496 
L 982.876106 558.988496 
" clip-path="url(#pfad63a28b0)" style="fill: none; stroke-dasharray: 2.96,1.28; stroke-dashoffset: 0; stroke: #b0b0b0; stroke-width: 0.8"/>
     </g>
     <g id="line2d_64">
      <g>
       <use xlink:href="#m2169a65e67" x="45.267188" y="558.988496" style="stroke: #000000; stroke-width: 0.8"/>
      </g>
     </g>
     <g id="text_21">
      <!-- −100 -->
      <g transform="translate(10.8 562.787715)scale(0.1 -0.1)">
       <defs>
        <path id="DejaVuSans-2212" d="M 678 2272 
L 4684 2272 
L 4684 1741 
L 678 1741 
L 678 2272 
z
" transform="scale(0.015625)"/>
       </defs>
       <use xlink:href="#DejaVuSans-2212"/>
       <use xlink:href="#DejaVuSans-31" x="83.789062"/>
       <use xlink:href="#DejaVuSans-30" x="147.412109"/>
       <use xlink:href="#DejaVuSans-30" x="211.035156"/>
      </g>
     </g>
    </g>
    <g id="ytick_7">
     <g id="line2d_65">
      <path d="M 45.267188 529.761933 
L 982.876106 529.761933 
" clip-path="url(#pfad63a28b0)" style="fill: none; stroke-dasharray: 2.96,1.28; stroke-dashoffset: 0; stroke: #b0b0b0; stroke-width: 0.8"/>
     </g>
     <g id="line2d_66">
      <g>
       <use xlink:href="#m2169a65e67" x="45.267188" y="529.761933" style="stroke: #000000; stroke-width: 0.8"/>
      </g>
     </g>
     <g id="text_22">
      <!-- −75 -->
      <g transform="translate(17.1625 533.561151)scale(0.1 -0.1)">
       <use xlink:href="#DejaVuSans-2212"/>
       <use xlink:href="#DejaVuSans-37" x="83.789062"/>
       <use xlink:href="#DejaVuSans-35" x="147.412109"/>
      </g>
     </g>
    </g>
    <g id="ytick_8">
     <g id="line2d_67">
      <path d="M 45.267188 500.535369 
L 982.876106 500.535369 
" clip-path="url(#pfad63a28b0)" style="fill: none; stroke-dasharray: 2.96,1.28; stroke-dashoffset: 0; stroke: #b0b0b0; stroke-width: 0.8"/>
     </g>
     <g id="line2d_68">
      <g>
       <use xlink:href="#m2169a65e67" x="45.267188" y="500.535369" style="stroke: #000000; stroke-width: 0.8"/>
      </g>
     </g>
     <g id="text_23">
      <!-- −50 -->
      <g transform="translate(17.1625 504.334588)scale(0.1 -0.1)">
       <use xlink:href="#DejaVuSans-2212"/>
       <use xlink:href="#DejaVuSans-35" x="83.789062"/>
       <use xlink:href="#DejaVuSans-30" x="147.412109"/>
      </g>
     </g>
    </g>
    <g id="ytick_9">
     <g id="line2d_69">
      <path d="M 45.267188 471.308805 
L 982.876106 471.308805 
" clip-path="url(#pfad63a28b0)" style="fill: none; stroke-dasharray: 2.96,1.28; stroke-dashoffset: 0; stroke: #b0b0b0; stroke-width: 0.8"/>
     </g>
     <g id="line2d_70">
      <g>
       <use xlink:href="#m2169a65e67" x="45.267188" y="471.308805" style="stroke: #000000; stroke-width: 0.8"/>
      </g>
     </g>
     <g id="text_24">
      <!-- −25 -->
      <g transform="translate(17.1625 475.108024)scale(0.1 -0.1)">
       <use xlink:href="#DejaVuSans-2212"/>
       <use xlink:href="#DejaVuSans-32" x="83.789062"/>
       <use xlink:href="#DejaVuSans-35" x="147.412109"/>
      </g>
     </g>
    </g>
    <g id="ytick_10">
     <g id="line2d_71">
      <path d="M 45.267188 442.082242 
L 982.876106 442.082242 
" clip-path="url(#pfad63a28b0)" style="fill: none; stroke-dasharray: 2.96,1.28; stroke-dashoffset: 0; stroke: #b0b0b0; stroke-width: 0.8"/>
     </g>
     <g id="line2d_72">
      <g>
       <use xlink:href="#m2169a65e67" x="45.267188" y="442.082242" style="stroke: #000000; stroke-width: 0.8"/>
      </g>
     </g>
     <g id="text_25">
      <!-- 0 -->
      <g transform="translate(31.904688 445.88146)scale(0.1 -0.1)">
       <use xlink:href="#DejaVuSans-30"/>
      </g>
     </g>
    </g>
    <g id="ytick_11">
     <g id="line2d_73">
      <path d="M 45.267188 412.855678 
L 982.876106 412.855678 
" clip-path="url(#pfad63a28b0)" style="fill: none; stroke-dasharray: 2.96,1.28; stroke-dashoffset: 0; stroke: #b0b0b0; stroke-width: 0.8"/>
     </g>
     <g id="line2d_74">
      <g>
       <use xlink:href="#m2169a65e67" x="45.267188" y="412.855678" style="stroke: #000000; stroke-width: 0.8"/>
      </g>
     </g>
     <g id="text_26">
      <!-- 25 -->
      <g transform="translate(25.542188 416.654897)scale(0.1 -0.1)">
       <use xlink:href="#DejaVuSans-32"/>
       <use xlink:href="#DejaVuSans-35" x="63.623047"/>
      </g>
     </g>
    </g>
    <g id="ytick_12">
     <g id="line2d_75">
      <path d="M 45.267188 383.629114 
L 982.876106 383.629114 
" clip-path="url(#pfad63a28b0)" style="fill: none; stroke-dasharray: 2.96,1.28; stroke-dashoffset: 0; stroke: #b0b0b0; stroke-width: 0.8"/>
     </g>
     <g id="line2d_76">
      <g>
       <use xlink:href="#m2169a65e67" x="45.267188" y="383.629114" style="stroke: #000000; stroke-width: 0.8"/>
      </g>
     </g>
     <g id="text_27">
      <!-- 50 -->
      <g transform="translate(25.542188 387.428333)scale(0.1 -0.1)">
       <use xlink:href="#DejaVuSans-35"/>
       <use xlink:href="#DejaVuSans-30" x="63.623047"/>
      </g>
     </g>
    </g>
    <g id="ytick_13">
     <g id="line2d_77">
      <path d="M 45.267188 354.402551 
L 982.876106 354.402551 
" clip-path="url(#pfad63a28b0)" style="fill: none; stroke-dasharray: 2.96,1.28; stroke-dashoffset: 0; stroke: #b0b0b0; stroke-width: 0.8"/>
     </g>
     <g id="line2d_78">
      <g>
       <use xlink:href="#m2169a65e67" x="45.267188" y="354.402551" style="stroke: #000000; stroke-width: 0.8"/>
      </g>
     </g>
     <g id="text_28">
      <!-- 75 -->
      <g transform="translate(25.542188 358.201769)scale(0.1 -0.1)">
       <use xlink:href="#DejaVuSans-37"/>
       <use xlink:href="#DejaVuSans-35" x="63.623047"/>
      </g>
     </g>
    </g>
   </g>
   <g id="line2d_79">
    <path d="M 87.885775 442.082242 
L 90.557786 440.530798 
L 93.229798 440.353725 
L 95.90181 439.481931 
L 98.573822 440.142211 
L 106.589857 436.33646 
L 109.261869 434.21455 
L 111.93388 435.164502 
L 114.605892 435.562173 
L 117.277904 437.534898 
L 125.293939 438.725237 
L 127.965951 439.447741 
L 130.637962 440.791164 
L 133.309974 443.480261 
L 135.981986 447.998278 
L 143.998021 460.222162 
L 146.670033 471.240272 
L 152.014056 484.218392 
L 154.686068 493.263473 
L 162.702103 496.210982 
L 165.374115 492.309431 
L 170.718139 480.007982 
L 173.39015 475.083466 
L 181.406185 475.899781 
L 184.078197 473.311013 
L 186.750209 467.519164 
L 189.422221 462.117273 
L 192.094232 461.849522 
L 200.110268 465.168298 
L 202.782279 459.122237 
L 205.454291 454.87659 
L 208.126303 450.964489 
L 210.798315 448.173304 
L 218.81435 448.947687 
L 221.486362 449.848011 
L 224.158373 446.436543 
L 226.830385 451.616683 
L 229.502397 450.056862 
L 237.518432 441.76966 
L 242.862455 431.155774 
L 245.534467 424.625241 
L 248.206479 431.719599 
L 256.222514 442.027648 
L 258.894526 451.770649 
L 261.566538 453.626283 
L 264.238549 451.841832 
L 266.910561 447.982067 
L 274.926596 440.748124 
L 277.598608 433.456745 
L 280.27062 425.065874 
L 282.942631 408.081102 
L 293.630678 394.775581 
L 296.30269 384.388292 
L 298.974702 379.003726 
L 301.646714 382.090902 
L 304.318725 393.914451 
L 312.334761 402.619197 
L 317.678784 416.922315 
L 320.350796 421.727205 
L 323.022808 427.13919 
L 331.038843 431.905837 
L 333.710854 432.773466 
L 336.382866 434.407349 
L 339.054878 443.350056 
L 341.72689 445.555106 
L 349.742925 449.108186 
L 352.414937 451.964808 
L 355.086948 456.583422 
L 368.447007 457.054626 
L 371.119019 461.048787 
L 373.791031 461.164103 
L 376.463042 457.476238 
L 379.135054 455.183291 
L 387.151089 458.706436 
L 389.823101 452.504648 
L 392.495113 452.723557 
L 395.167124 450.833446 
L 397.839136 454.371989 
L 405.855171 463.673986 
L 411.199195 479.709158 
L 413.871207 494.445667 
L 416.543218 510.353104 
L 424.559254 524.417356 
L 427.231265 538.768297 
L 429.903277 551.019583 
L 432.575289 565.538862 
L 435.2473 571.486937 
L 443.263336 573.004332 
L 445.935347 566.481214 
L 448.607359 560.847311 
L 451.279371 560.18659 
L 453.951383 555.983649 
L 461.967418 550.06451 
L 464.63943 545.226277 
L 467.311441 542.762792 
L 469.983453 537.024055 
L 472.655465 530.770066 
L 480.6715 514.913001 
L 483.343512 505.378966 
L 486.015523 498.90328 
L 488.687535 491.005333 
L 491.359547 485.802901 
L 499.375582 481.774079 
L 502.047594 487.278855 
L 504.719606 488.46136 
L 507.391617 487.84764 
L 510.063629 486.607487 
L 518.079664 488.84406 
L 520.751676 490.100739 
L 523.423688 490.253689 
L 526.095699 493.936609 
L 528.767711 507.840156 
L 536.783746 515.629371 
L 539.455758 510.039903 
L 542.12777 509.259564 
L 544.799782 506.931484 
L 547.471793 503.97681 
L 555.487829 501.450762 
L 558.15984 505.532458 
L 560.831852 510.981992 
L 563.503864 513.990791 
L 566.175876 515.067031 
L 574.191911 513.558474 
L 576.863922 512.331345 
L 579.535934 505.039413 
L 582.207946 487.982606 
L 584.879958 472.524599 
L 592.895993 458.271555 
L 595.568005 450.053517 
L 598.240016 445.258592 
L 600.912028 439.968938 
L 603.58404 430.043542 
L 611.600075 417.951462 
L 622.288122 379.876527 
L 630.304157 372.58523 
L 632.976169 370.989276 
L 635.648181 369.583853 
L 640.992204 363.160636 
L 649.008239 359.258473 
L 651.680251 356.333746 
L 654.352263 352.086538 
L 657.024275 349.10843 
L 659.696286 346.98138 
L 667.712322 345.079064 
L 673.056345 345.939087 
L 675.728357 344.094803 
L 689.088415 342.65348 
L 691.760427 343.039183 
L 694.432439 345.729052 
L 697.104451 352.487674 
L 705.120486 360.948849 
L 707.792498 362.664612 
L 710.464509 366.73245 
L 713.136521 370.241956 
L 715.808533 367.613253 
L 723.824568 366.514288 
L 726.49658 359.711258 
L 731.840603 353.70192 
L 734.512615 350.87756 
L 742.52865 348.328553 
L 745.200662 346.998875 
L 747.872674 346.4718 
L 750.544685 348.178932 
L 753.216697 352.75481 
L 761.232732 351.976867 
L 763.904744 348.253536 
L 766.576756 346.867299 
L 769.248768 351.011624 
L 771.920779 359.432455 
L 779.936814 366.225784 
L 782.608826 366.42546 
L 785.280838 369.062122 
L 787.95285 365.343332 
L 790.624861 369.380058 
L 798.640897 374.951981 
L 801.312908 385.225671 
L 803.98492 396.105044 
L 806.656932 409.391325 
L 809.328944 413.136997 
L 817.344979 419.455716 
L 820.016991 423.647614 
L 825.361014 426.419193 
L 828.033026 415.932119 
L 836.049061 412.713988 
L 841.393084 418.656061 
L 844.065096 423.346192 
L 846.737108 425.448412 
L 854.753143 426.613548 
L 860.097167 425.737415 
L 862.769178 426.777322 
L 865.44119 424.5817 
L 876.129237 420.338485 
L 881.47326 416.662606 
L 884.145272 411.032097 
L 892.161307 404.633789 
L 894.833319 400.658475 
L 897.505331 400.487331 
L 900.177343 397.544558 
L 902.849354 395.182305 
L 910.86539 396.491237 
L 916.209413 400.223222 
L 918.881425 410.814402 
L 921.553437 418.461471 
L 929.569472 426.773635 
L 932.241483 430.956479 
L 934.913495 435.512169 
L 937.585507 444.966321 
L 940.257519 453.851342 
L 940.257519 453.851342 
" clip-path="url(#pfad63a28b0)" style="fill: none; stroke: #1f77b4; stroke-width: 1.5; stroke-linecap: square"/>
   </g>
   <g id="line2d_80">
    <path d="M 87.885775 442.082242 
L 90.557786 441.220329 
L 93.229798 440.865163 
L 95.90181 440.396589 
L 98.573822 440.320917 
L 106.589857 439.240908 
L 109.261869 437.968871 
L 111.93388 437.294928 
L 114.605892 436.894653 
L 125.293939 437.40724 
L 127.965951 437.845454 
L 130.637962 438.468868 
L 133.309974 439.517255 
L 135.981986 441.275316 
L 143.998021 445.174436 
L 146.670033 450.507698 
L 152.014056 457.37352 
L 154.686068 464.656469 
L 162.702103 471.04098 
L 165.374115 475.334269 
L 168.046127 477.516583 
L 170.718139 478.017822 
L 173.39015 477.428166 
L 181.406185 477.12133 
L 184.078197 476.356956 
L 186.750209 474.585114 
L 189.422221 472.086713 
L 192.094232 470.036101 
L 200.110268 469.061334 
L 202.782279 467.071544 
L 205.454291 464.630619 
L 210.798315 459.149796 
L 218.81435 457.108547 
L 221.486362 455.655968 
L 224.158373 453.811604 
L 226.830385 453.372529 
L 229.502397 452.709285 
L 237.518432 450.521069 
L 242.862455 446.647598 
L 245.534467 442.242752 
L 248.206479 440.137978 
L 256.222514 440.515933 
L 261.566538 444.938912 
L 264.238549 446.319534 
L 266.910561 446.652048 
L 274.926596 445.471242 
L 277.598608 443.068309 
L 280.27062 439.46778 
L 282.942631 433.190387 
L 293.630678 425.50737 
L 296.30269 417.283506 
L 298.974702 409.627514 
L 301.646714 404.120171 
L 304.318725 402.079021 
L 312.334761 402.187057 
L 315.006772 403.673816 
L 317.678784 406.32352 
L 320.350796 409.404261 
L 323.022808 412.95125 
L 331.038843 416.74217 
L 333.710854 419.948432 
L 336.382866 422.840217 
L 339.054878 426.942186 
L 341.72689 430.664771 
L 349.742925 434.353455 
L 352.414937 437.875726 
L 355.086948 441.617266 
L 368.447007 444.704738 
L 371.119019 447.973548 
L 373.791031 450.61166 
L 376.463042 451.984575 
L 379.135054 452.624318 
L 387.151089 453.840742 
L 392.495113 453.40353 
L 395.167124 452.889513 
L 397.839136 453.186008 
L 405.855171 455.283604 
L 411.199195 460.168715 
L 413.871207 467.024105 
L 416.543218 475.689905 
L 424.559254 485.435395 
L 429.903277 507.085497 
L 432.575289 518.77617 
L 435.2473 529.318324 
L 443.263336 538.055525 
L 445.935347 543.740663 
L 448.607359 547.161993 
L 451.279371 549.766912 
L 453.951383 551.010259 
L 461.967418 550.82111 
L 464.63943 549.702143 
L 467.311441 548.314273 
L 469.983453 546.056229 
L 472.655465 542.998997 
L 480.6715 537.381797 
L 486.015523 524.565641 
L 488.687535 517.853579 
L 491.359547 511.443444 
L 499.375582 505.509571 
L 502.047594 501.863428 
L 504.719606 499.183014 
L 507.391617 496.915939 
L 510.063629 494.854249 
L 518.079664 493.652211 
L 520.751676 492.941917 
L 523.423688 492.404271 
L 526.095699 492.710739 
L 528.767711 495.736622 
L 536.783746 499.715172 
L 539.455758 501.780118 
L 542.12777 503.276007 
L 544.799782 504.007103 
L 547.471793 504.001044 
L 555.487829 503.490988 
L 558.15984 503.899282 
L 560.831852 505.315824 
L 566.175876 508.65406 
L 574.191911 509.634943 
L 576.863922 510.174223 
L 579.535934 509.147261 
L 582.207946 504.91433 
L 584.879958 498.436384 
L 592.895993 490.403418 
L 595.568005 482.333438 
L 598.240016 474.918469 
L 600.912028 467.928563 
L 603.58404 460.351559 
L 611.600075 451.871539 
L 616.944099 434.24384 
L 622.288122 416.232071 
L 630.304157 407.502703 
L 632.976169 400.200018 
L 635.648181 394.076785 
L 638.320192 388.543155 
L 640.992204 383.466651 
L 649.008239 378.625016 
L 654.352263 369.750717 
L 657.024275 365.62226 
L 659.696286 361.894084 
L 667.712322 358.53108 
L 673.056345 356.012681 
L 675.728357 353.629106 
L 678.400368 351.664049 
L 689.088415 349.861935 
L 691.760427 348.497385 
L 694.432439 347.943718 
L 697.104451 348.852509 
L 705.120486 351.271777 
L 707.792498 353.550344 
L 710.464509 356.186765 
L 713.136521 358.997803 
L 715.808533 360.720893 
L 723.824568 361.879572 
L 726.49658 361.445909 
L 731.840603 359.897111 
L 734.512615 358.093201 
L 742.52865 356.140271 
L 745.200662 354.311992 
L 747.872674 352.743954 
L 750.544685 351.830949 
L 753.216697 352.015722 
L 761.232732 352.007951 
L 763.904744 351.257068 
L 766.576756 350.379114 
L 769.248768 350.505616 
L 771.920779 352.290984 
L 779.936814 355.077944 
L 785.280838 359.690382 
L 787.95285 360.820972 
L 790.624861 362.532789 
L 798.640897 365.016628 
L 801.312908 369.058436 
L 803.98492 374.467758 
L 806.656932 381.452471 
L 809.328944 387.789376 
L 817.344979 394.122644 
L 820.016991 400.027638 
L 825.361014 405.305949 
L 828.033026 407.431183 
L 836.049061 408.487744 
L 838.721073 409.932698 
L 841.393084 411.677371 
L 846.737108 416.29859 
L 854.753143 418.361582 
L 857.425155 419.92951 
L 862.769178 422.228337 
L 865.44119 422.69901 
L 873.457225 422.430998 
L 876.129237 422.012495 
L 881.47326 420.942517 
L 884.145272 418.960433 
L 892.161307 416.095104 
L 894.833319 413.007779 
L 902.849354 405.365951 
L 910.86539 403.591009 
L 916.209413 402.917451 
L 918.881425 404.496841 
L 921.553437 407.289767 
L 929.569472 411.186541 
L 934.913495 419.214857 
L 937.585507 424.36515 
L 940.257519 430.262388 
L 940.257519 430.262388 
" clip-path="url(#pfad63a28b0)" style="fill: none; stroke: #ff7f0e; stroke-width: 1.5; stroke-linecap: square"/>
   </g>
   <g id="patch_9">
    <path d="M 45.267188 584.521875 
L 45.267188 331.135938 
" style="fill: none; stroke: #000000; stroke-width: 0.8; stroke-linejoin: miter; stroke-linecap: square"/>
   </g>
   <g id="patch_10">
    <path d="M 982.876106 584.521875 
L 982.876106 331.135938 
" style="fill: none; stroke: #000000; stroke-width: 0.8; stroke-linejoin: miter; stroke-linecap: square"/>
   </g>
   <g id="patch_11">
    <path d="M 45.267188 584.521875 
L 982.876106 584.521875 
" style="fill: none; stroke: #000000; stroke-width: 0.8; stroke-linejoin: miter; stroke-linecap: square"/>
   </g>
   <g id="patch_12">
    <path d="M 45.267188 331.135938 
L 982.876106 331.135938 
" style="fill: none; stroke: #000000; stroke-width: 0.8; stroke-linejoin: miter; stroke-linecap: square"/>
   </g>
   <g id="text_29">
    <!-- MACD -->
    <g transform="translate(496.085709 325.135938)scale(0.12 -0.12)">
     <defs>
      <path id="DejaVuSans-44" d="M 1259 4147 
L 1259 519 
L 2022 519 
Q 2988 519 3436 956 
Q 3884 1394 3884 2338 
Q 3884 3275 3436 3711 
Q 2988 4147 2022 4147 
L 1259 4147 
z
M 628 4666 
L 1925 4666 
Q 3281 4666 3915 4102 
Q 4550 3538 4550 2338 
Q 4550 1131 3912 565 
Q 3275 0 1925 0 
L 628 0 
L 628 4666 
z
" transform="scale(0.015625)"/>
     </defs>
     <use xlink:href="#DejaVuSans-4d"/>
     <use xlink:href="#DejaVuSans-41" x="86.279297"/>
     <use xlink:href="#DejaVuSans-43" x="152.9375"/>
     <use xlink:href="#DejaVuSans-44" x="222.761719"/>
    </g>
   </g>
   <g id="legend_2">
    <g id="patch_13">
     <path d="M 913.899543 368.492188 
L 975.876106 368.492188 
Q 977.876106 368.492188 977.876106 366.492188 
L 977.876106 338.135938 
Q 977.876106 336.135938 975.876106 336.135938 
L 913.899543 336.135938 
Q 911.899543 336.135938 911.899543 338.135938 
L 911.899543 366.492188 
Q 911.899543 368.492188 913.899543 368.492188 
z
" style="fill: #ffffff; opacity: 0.8; stroke: #cccccc; stroke-linejoin: miter"/>
    </g>
    <g id="line2d_81">
     <path d="M 915.899543 344.234375 
L 925.899543 344.234375 
L 935.899543 344.234375 
" style="fill: none; stroke: #1f77b4; stroke-width: 1.5; stroke-linecap: square"/>
    </g>
    <g id="text_30">
     <!-- MACD -->
     <g transform="translate(943.899543 347.734375)scale(0.1 -0.1)">
      <use xlink:href="#DejaVuSans-4d"/>
      <use xlink:href="#DejaVuSans-41" x="86.279297"/>
      <use xlink:href="#DejaVuSans-43" x="152.9375"/>
      <use xlink:href="#DejaVuSans-44" x="222.761719"/>
     </g>
    </g>
    <g id="line2d_82">
     <path d="M 915.899543 358.9125 
L 925.899543 358.9125 
L 935.899543 358.9125 
" style="fill: none; stroke: #ff7f0e; stroke-width: 1.5; stroke-linecap: square"/>
    </g>
    <g id="text_31">
     <!-- SIG -->
     <g transform="translate(943.899543 362.4125)scale(0.1 -0.1)">
      <defs>
       <path id="DejaVuSans-49" d="M 628 4666 
L 1259 4666 
L 1259 0 
L 628 0 
L 628 4666 
z
" transform="scale(0.015625)"/>
       <path id="DejaVuSans-47" d="M 3809 666 
L 3809 1919 
L 2778 1919 
L 2778 2438 
L 4434 2438 
L 4434 434 
Q 4069 175 3628 42 
Q 3188 -91 2688 -91 
Q 1594 -91 976 548 
Q 359 1188 359 2328 
Q 359 3472 976 4111 
Q 1594 4750 2688 4750 
Q 3144 4750 3555 4637 
Q 3966 4525 4313 4306 
L 4313 3634 
Q 3963 3931 3569 4081 
Q 3175 4231 2741 4231 
Q 1884 4231 1454 3753 
Q 1025 3275 1025 2328 
Q 1025 1384 1454 906 
Q 1884 428 2741 428 
Q 3075 428 3337 486 
Q 3600 544 3809 666 
z
" transform="scale(0.015625)"/>
      </defs>
      <use xlink:href="#DejaVuSans-53"/>
      <use xlink:href="#DejaVuSans-49" x="63.476562"/>
      <use xlink:href="#DejaVuSans-47" x="92.96875"/>
     </g>
    </g>
   </g>
  </g>
  <g id="text_32">
   <!-- Titan Company Limited -->
   <g transform="translate(434.29125 21.358125)scale(0.12 -0.12)">
    <defs>
     <path id="DejaVuSans-54" d="M -19 4666 
L 3928 4666 
L 3928 4134 
L 2272 4134 
L 2272 0 
L 1638 0 
L 1638 4134 
L -19 4134 
L -19 4666 
z
" transform="scale(0.015625)"/>
     <path id="DejaVuSans-74" d="M 1172 4494 
L 1172 3500 
L 2356 3500 
L 2356 3053 
L 1172 3053 
L 1172 1153 
Q 1172 725 1289 603 
Q 1406 481 1766 481 
L 2356 481 
L 2356 0 
L 1766 0 
Q 1100 0 847 248 
Q 594 497 594 1153 
L 594 3053 
L 172 3053 
L 172 3500 
L 594 3500 
L 594 4494 
L 1172 4494 
z
" transform="scale(0.015625)"/>
     <path id="DejaVuSans-61" d="M 2194 1759 
Q 1497 1759 1228 1600 
Q 959 1441 959 1056 
Q 959 750 1161 570 
Q 1363 391 1709 391 
Q 2188 391 2477 730 
Q 2766 1069 2766 1631 
L 2766 1759 
L 2194 1759 
z
M 3341 1997 
L 3341 0 
L 2766 0 
L 2766 531 
Q 2569 213 2275 61 
Q 1981 -91 1556 -91 
Q 1019 -91 701 211 
Q 384 513 384 1019 
Q 384 1609 779 1909 
Q 1175 2209 1959 2209 
L 2766 2209 
L 2766 2266 
Q 2766 2663 2505 2880 
Q 2244 3097 1772 3097 
Q 1472 3097 1187 3025 
Q 903 2953 641 2809 
L 641 3341 
Q 956 3463 1253 3523 
Q 1550 3584 1831 3584 
Q 2591 3584 2966 3190 
Q 3341 2797 3341 1997 
z
" transform="scale(0.015625)"/>
     <path id="DejaVuSans-6d" d="M 3328 2828 
Q 3544 3216 3844 3400 
Q 4144 3584 4550 3584 
Q 5097 3584 5394 3201 
Q 5691 2819 5691 2113 
L 5691 0 
L 5113 0 
L 5113 2094 
Q 5113 2597 4934 2840 
Q 4756 3084 4391 3084 
Q 3944 3084 3684 2787 
Q 3425 2491 3425 1978 
L 3425 0 
L 2847 0 
L 2847 2094 
Q 2847 2600 2669 2842 
Q 2491 3084 2119 3084 
Q 1678 3084 1418 2786 
Q 1159 2488 1159 1978 
L 1159 0 
L 581 0 
L 581 3500 
L 1159 3500 
L 1159 2956 
Q 1356 3278 1631 3431 
Q 1906 3584 2284 3584 
Q 2666 3584 2933 3390 
Q 3200 3197 3328 2828 
z
" transform="scale(0.015625)"/>
     <path id="DejaVuSans-70" d="M 1159 525 
L 1159 -1331 
L 581 -1331 
L 581 3500 
L 1159 3500 
L 1159 2969 
Q 1341 3281 1617 3432 
Q 1894 3584 2278 3584 
Q 2916 3584 3314 3078 
Q 3713 2572 3713 1747 
Q 3713 922 3314 415 
Q 2916 -91 2278 -91 
Q 1894 -91 1617 61 
Q 1341 213 1159 525 
z
M 3116 1747 
Q 3116 2381 2855 2742 
Q 2594 3103 2138 3103 
Q 1681 3103 1420 2742 
Q 1159 2381 1159 1747 
Q 1159 1113 1420 752 
Q 1681 391 2138 391 
Q 2594 391 2855 752 
Q 3116 1113 3116 1747 
z
" transform="scale(0.015625)"/>
     <path id="DejaVuSans-79" d="M 2059 -325 
Q 1816 -950 1584 -1140 
Q 1353 -1331 966 -1331 
L 506 -1331 
L 506 -850 
L 844 -850 
Q 1081 -850 1212 -737 
Q 1344 -625 1503 -206 
L 1606 56 
L 191 3500 
L 800 3500 
L 1894 763 
L 2988 3500 
L 3597 3500 
L 2059 -325 
z
" transform="scale(0.015625)"/>
     <path id="DejaVuSans-64" d="M 2906 2969 
L 2906 4863 
L 3481 4863 
L 3481 0 
L 2906 0 
L 2906 525 
Q 2725 213 2448 61 
Q 2172 -91 1784 -91 
Q 1150 -91 751 415 
Q 353 922 353 1747 
Q 353 2572 751 3078 
Q 1150 3584 1784 3584 
Q 2172 3584 2448 3432 
Q 2725 3281 2906 2969 
z
M 947 1747 
Q 947 1113 1208 752 
Q 1469 391 1925 391 
Q 2381 391 2643 752 
Q 2906 1113 2906 1747 
Q 2906 2381 2643 2742 
Q 2381 3103 1925 3103 
Q 1469 3103 1208 2742 
Q 947 2381 947 1747 
z
" transform="scale(0.015625)"/>
    </defs>
    <use xlink:href="#DejaVuSans-54"/>
    <use xlink:href="#DejaVuSans-69" x="57.958984"/>
    <use xlink:href="#DejaVuSans-74" x="85.742188"/>
    <use xlink:href="#DejaVuSans-61" x="124.951172"/>
    <use xlink:href="#DejaVuSans-6e" x="186.230469"/>
    <use xlink:href="#DejaVuSans-20" x="249.609375"/>
    <use xlink:href="#DejaVuSans-43" x="281.396484"/>
    <use xlink:href="#DejaVuSans-6f" x="351.220703"/>
    <use xlink:href="#DejaVuSans-6d" x="412.402344"/>
    <use xlink:href="#DejaVuSans-70" x="509.814453"/>
    <use xlink:href="#DejaVuSans-61" x="573.291016"/>
    <use xlink:href="#DejaVuSans-6e" x="634.570312"/>
    <use xlink:href="#DejaVuSans-79" x="697.949219"/>
    <use xlink:href="#DejaVuSans-20" x="757.128906"/>
    <use xlink:href="#DejaVuSans-4c" x="788.916016"/>
    <use xlink:href="#DejaVuSans-69" x="844.628906"/>
    <use xlink:href="#DejaVuSans-6d" x="872.412109"/>
    <use xlink:href="#DejaVuSans-69" x="969.824219"/>
    <use xlink:href="#DejaVuSans-74" x="997.607422"/>
    <use xlink:href="#DejaVuSans-65" x="1036.816406"/>
    <use xlink:href="#DejaVuSans-64" x="1098.339844"/>
   </g>
  </g>
 </g>
 <defs>
  <clipPath id="p0063df5930">
   <rect x="45.267188" y="48.331875" width="937.608918" height="253.385938"/>
  </clipPath>
  <clipPath id="pfad63a28b0">
   <rect x="45.267188" y="331.135938" width="937.608918" height="253.385937"/>
  </clipPath>
 </defs>
</svg>
