<?xml version="1.0" encoding="utf-8" standalone="no"?>
<!DOCTYPE svg PUBLIC "-//W3C//DTD SVG 1.1//EN"
  "http://www.w3.org/Graphics/SVG/1.1/DTD/svg11.dtd">
<svg xmlns:xlink="http://www.w3.org/1999/xlink" width="1008pt" height="612pt" viewBox="0 0 1008 612" xmlns="http://www.w3.org/2000/svg" version="1.1">
 <metadata>
  <rdf:RDF xmlns:dc="http://purl.org/dc/elements/1.1/" xmlns:cc="http://creativecommons.org/ns#" xmlns:rdf="http://www.w3.org/1999/02/22-rdf-syntax-ns#">
   <cc:Work>
    <dc:type rdf:resource="http://purl.org/dc/dcmitype/StillImage"/>
    <dc:date>2022-11-20T19:46:57.158679</dc:date>
    <dc:format>image/svg+xml</dc:format>
    <dc:creator>
     <cc:Agent>
      <dc:title>Matplotlib v3.5.2, https://matplotlib.org/</dc:title>
     </cc:Agent>
    </dc:creator>
   </cc:Work>
  </rdf:RDF>
 </metadata>
 <defs>
  <style type="text/css">*{stroke-linejoin: round; stroke-linecap: butt}</style>
 </defs>
 <g id="figure_1">
  <g id="patch_1">
   <path d="M 0 612 
L 1008 612 
L 1008 0 
L 0 0 
z
" style="fill: #ffffff"/>
  </g>
  <g id="axes_1">
   <g id="patch_2">
    <path d="M 43.25 301.717812 
L 982.876106 301.717812 
L 982.876106 48.331875 
L 43.25 48.331875 
z
" style="fill: #ffffff"/>
   </g>
   <g id="matplotlib.axis_1">
    <g id="xtick_1">
     <g id="line2d_1">
      <path d="M 80.604757 301.717812 
L 80.604757 48.331875 
" clip-path="url(#pfe36cabc93)" style="fill: none; stroke-dasharray: 2.96,1.28; stroke-dashoffset: 0; stroke: #b0b0b0; stroke-width: 0.8"/>
     </g>
     <g id="line2d_2">
      <defs>
       <path id="m85c69c15f5" d="M 0 0 
L 0 3.5 
" style="stroke: #000000; stroke-width: 0.8"/>
      </defs>
      <g>
       <use xlink:href="#m85c69c15f5" x="80.604757" y="301.717812" style="stroke: #000000; stroke-width: 0.8"/>
      </g>
     </g>
    </g>
    <g id="xtick_2">
     <g id="line2d_3">
      <path d="M 163.615328 301.717812 
L 163.615328 48.331875 
" clip-path="url(#pfe36cabc93)" style="fill: none; stroke-dasharray: 2.96,1.28; stroke-dashoffset: 0; stroke: #b0b0b0; stroke-width: 0.8"/>
     </g>
     <g id="line2d_4">
      <g>
       <use xlink:href="#m85c69c15f5" x="163.615328" y="301.717812" style="stroke: #000000; stroke-width: 0.8"/>
      </g>
     </g>
    </g>
    <g id="xtick_3">
     <g id="line2d_5">
      <path d="M 238.592617 301.717812 
L 238.592617 48.331875 
" clip-path="url(#pfe36cabc93)" style="fill: none; stroke-dasharray: 2.96,1.28; stroke-dashoffset: 0; stroke: #b0b0b0; stroke-width: 0.8"/>
     </g>
     <g id="line2d_6">
      <g>
       <use xlink:href="#m85c69c15f5" x="238.592617" y="301.717812" style="stroke: #000000; stroke-width: 0.8"/>
      </g>
     </g>
    </g>
    <g id="xtick_4">
     <g id="line2d_7">
      <path d="M 321.603188 301.717812 
L 321.603188 48.331875 
" clip-path="url(#pfe36cabc93)" style="fill: none; stroke-dasharray: 2.96,1.28; stroke-dashoffset: 0; stroke: #b0b0b0; stroke-width: 0.8"/>
     </g>
     <g id="line2d_8">
      <g>
       <use xlink:href="#m85c69c15f5" x="321.603188" y="301.717812" style="stroke: #000000; stroke-width: 0.8"/>
      </g>
     </g>
    </g>
    <g id="xtick_5">
     <g id="line2d_9">
      <path d="M 401.935999 301.717812 
L 401.935999 48.331875 
" clip-path="url(#pfe36cabc93)" style="fill: none; stroke-dasharray: 2.96,1.28; stroke-dashoffset: 0; stroke: #b0b0b0; stroke-width: 0.8"/>
     </g>
     <g id="line2d_10">
      <g>
       <use xlink:href="#m85c69c15f5" x="401.935999" y="301.717812" style="stroke: #000000; stroke-width: 0.8"/>
      </g>
     </g>
    </g>
    <g id="xtick_6">
     <g id="line2d_11">
      <path d="M 484.946569 301.717812 
L 484.946569 48.331875 
" clip-path="url(#pfe36cabc93)" style="fill: none; stroke-dasharray: 2.96,1.28; stroke-dashoffset: 0; stroke: #b0b0b0; stroke-width: 0.8"/>
     </g>
     <g id="line2d_12">
      <g>
       <use xlink:href="#m85c69c15f5" x="484.946569" y="301.717812" style="stroke: #000000; stroke-width: 0.8"/>
      </g>
     </g>
    </g>
    <g id="xtick_7">
     <g id="line2d_13">
      <path d="M 565.27938 301.717812 
L 565.27938 48.331875 
" clip-path="url(#pfe36cabc93)" style="fill: none; stroke-dasharray: 2.96,1.28; stroke-dashoffset: 0; stroke: #b0b0b0; stroke-width: 0.8"/>
     </g>
     <g id="line2d_14">
      <g>
       <use xlink:href="#m85c69c15f5" x="565.27938" y="301.717812" style="stroke: #000000; stroke-width: 0.8"/>
      </g>
     </g>
    </g>
    <g id="xtick_8">
     <g id="line2d_15">
      <path d="M 648.28995 301.717812 
L 648.28995 48.331875 
" clip-path="url(#pfe36cabc93)" style="fill: none; stroke-dasharray: 2.96,1.28; stroke-dashoffset: 0; stroke: #b0b0b0; stroke-width: 0.8"/>
     </g>
     <g id="line2d_16">
      <g>
       <use xlink:href="#m85c69c15f5" x="648.28995" y="301.717812" style="stroke: #000000; stroke-width: 0.8"/>
      </g>
     </g>
    </g>
    <g id="xtick_9">
     <g id="line2d_17">
      <path d="M 731.300521 301.717812 
L 731.300521 48.331875 
" clip-path="url(#pfe36cabc93)" style="fill: none; stroke-dasharray: 2.96,1.28; stroke-dashoffset: 0; stroke: #b0b0b0; stroke-width: 0.8"/>
     </g>
     <g id="line2d_18">
      <g>
       <use xlink:href="#m85c69c15f5" x="731.300521" y="301.717812" style="stroke: #000000; stroke-width: 0.8"/>
      </g>
     </g>
    </g>
    <g id="xtick_10">
     <g id="line2d_19">
      <path d="M 811.633332 301.717812 
L 811.633332 48.331875 
" clip-path="url(#pfe36cabc93)" style="fill: none; stroke-dasharray: 2.96,1.28; stroke-dashoffset: 0; stroke: #b0b0b0; stroke-width: 0.8"/>
     </g>
     <g id="line2d_20">
      <g>
       <use xlink:href="#m85c69c15f5" x="811.633332" y="301.717812" style="stroke: #000000; stroke-width: 0.8"/>
      </g>
     </g>
    </g>
    <g id="xtick_11">
     <g id="line2d_21">
      <path d="M 894.643902 301.717812 
L 894.643902 48.331875 
" clip-path="url(#pfe36cabc93)" style="fill: none; stroke-dasharray: 2.96,1.28; stroke-dashoffset: 0; stroke: #b0b0b0; stroke-width: 0.8"/>
     </g>
     <g id="line2d_22">
      <g>
       <use xlink:href="#m85c69c15f5" x="894.643902" y="301.717812" style="stroke: #000000; stroke-width: 0.8"/>
      </g>
     </g>
    </g>
    <g id="xtick_12">
     <g id="line2d_23">
      <path d="M 974.976713 301.717812 
L 974.976713 48.331875 
" clip-path="url(#pfe36cabc93)" style="fill: none; stroke-dasharray: 2.96,1.28; stroke-dashoffset: 0; stroke: #b0b0b0; stroke-width: 0.8"/>
     </g>
     <g id="line2d_24">
      <g>
       <use xlink:href="#m85c69c15f5" x="974.976713" y="301.717812" style="stroke: #000000; stroke-width: 0.8"/>
      </g>
     </g>
    </g>
   </g>
   <g id="matplotlib.axis_2">
    <g id="ytick_1">
     <g id="line2d_25">
      <path d="M 43.25 294.227527 
L 982.876106 294.227527 
" clip-path="url(#pfe36cabc93)" style="fill: none; stroke-dasharray: 2.96,1.28; stroke-dashoffset: 0; stroke: #b0b0b0; stroke-width: 0.8"/>
     </g>
     <g id="line2d_26">
      <defs>
       <path id="m015c75deef" d="M 0 0 
L -3.5 0 
" style="stroke: #000000; stroke-width: 0.8"/>
      </defs>
      <g>
       <use xlink:href="#m015c75deef" x="43.25" y="294.227527" style="stroke: #000000; stroke-width: 0.8"/>
      </g>
     </g>
     <g id="text_1">
      <!-- 1500 -->
      <g transform="translate(10.8 298.026746)scale(0.1 -0.1)">
       <defs>
        <path id="DejaVuSans-31" d="M 794 531 
L 1825 531 
L 1825 4091 
L 703 3866 
L 703 4441 
L 1819 4666 
L 2450 4666 
L 2450 531 
L 3481 531 
L 3481 0 
L 794 0 
L 794 531 
z
" transform="scale(0.015625)"/>
        <path id="DejaVuSans-35" d="M 691 4666 
L 3169 4666 
L 3169 4134 
L 1269 4134 
L 1269 2991 
Q 1406 3038 1543 3061 
Q 1681 3084 1819 3084 
Q 2600 3084 3056 2656 
Q 3513 2228 3513 1497 
Q 3513 744 3044 326 
Q 2575 -91 1722 -91 
Q 1428 -91 1123 -41 
Q 819 9 494 109 
L 494 744 
Q 775 591 1075 516 
Q 1375 441 1709 441 
Q 2250 441 2565 725 
Q 2881 1009 2881 1497 
Q 2881 1984 2565 2268 
Q 2250 2553 1709 2553 
Q 1456 2553 1204 2497 
Q 953 2441 691 2322 
L 691 4666 
z
" transform="scale(0.015625)"/>
        <path id="DejaVuSans-30" d="M 2034 4250 
Q 1547 4250 1301 3770 
Q 1056 3291 1056 2328 
Q 1056 1369 1301 889 
Q 1547 409 2034 409 
Q 2525 409 2770 889 
Q 3016 1369 3016 2328 
Q 3016 3291 2770 3770 
Q 2525 4250 2034 4250 
z
M 2034 4750 
Q 2819 4750 3233 4129 
Q 3647 3509 3647 2328 
Q 3647 1150 3233 529 
Q 2819 -91 2034 -91 
Q 1250 -91 836 529 
Q 422 1150 422 2328 
Q 422 3509 836 4129 
Q 1250 4750 2034 4750 
z
" transform="scale(0.015625)"/>
       </defs>
       <use xlink:href="#DejaVuSans-31"/>
       <use xlink:href="#DejaVuSans-35" x="63.623047"/>
       <use xlink:href="#DejaVuSans-30" x="127.246094"/>
       <use xlink:href="#DejaVuSans-30" x="190.869141"/>
      </g>
     </g>
    </g>
    <g id="ytick_2">
     <g id="line2d_27">
      <path d="M 43.25 248.411179 
L 982.876106 248.411179 
" clip-path="url(#pfe36cabc93)" style="fill: none; stroke-dasharray: 2.96,1.28; stroke-dashoffset: 0; stroke: #b0b0b0; stroke-width: 0.8"/>
     </g>
     <g id="line2d_28">
      <g>
       <use xlink:href="#m015c75deef" x="43.25" y="248.411179" style="stroke: #000000; stroke-width: 0.8"/>
      </g>
     </g>
     <g id="text_2">
      <!-- 2000 -->
      <g transform="translate(10.8 252.210398)scale(0.1 -0.1)">
       <defs>
        <path id="DejaVuSans-32" d="M 1228 531 
L 3431 531 
L 3431 0 
L 469 0 
L 469 531 
Q 828 903 1448 1529 
Q 2069 2156 2228 2338 
Q 2531 2678 2651 2914 
Q 2772 3150 2772 3378 
Q 2772 3750 2511 3984 
Q 2250 4219 1831 4219 
Q 1534 4219 1204 4116 
Q 875 4013 500 3803 
L 500 4441 
Q 881 4594 1212 4672 
Q 1544 4750 1819 4750 
Q 2544 4750 2975 4387 
Q 3406 4025 3406 3419 
Q 3406 3131 3298 2873 
Q 3191 2616 2906 2266 
Q 2828 2175 2409 1742 
Q 1991 1309 1228 531 
z
" transform="scale(0.015625)"/>
       </defs>
       <use xlink:href="#DejaVuSans-32"/>
       <use xlink:href="#DejaVuSans-30" x="63.623047"/>
       <use xlink:href="#DejaVuSans-30" x="127.246094"/>
       <use xlink:href="#DejaVuSans-30" x="190.869141"/>
      </g>
     </g>
    </g>
    <g id="ytick_3">
     <g id="line2d_29">
      <path d="M 43.25 202.594831 
L 982.876106 202.594831 
" clip-path="url(#pfe36cabc93)" style="fill: none; stroke-dasharray: 2.96,1.28; stroke-dashoffset: 0; stroke: #b0b0b0; stroke-width: 0.8"/>
     </g>
     <g id="line2d_30">
      <g>
       <use xlink:href="#m015c75deef" x="43.25" y="202.594831" style="stroke: #000000; stroke-width: 0.8"/>
      </g>
     </g>
     <g id="text_3">
      <!-- 2500 -->
      <g transform="translate(10.8 206.39405)scale(0.1 -0.1)">
       <use xlink:href="#DejaVuSans-32"/>
       <use xlink:href="#DejaVuSans-35" x="63.623047"/>
       <use xlink:href="#DejaVuSans-30" x="127.246094"/>
       <use xlink:href="#DejaVuSans-30" x="190.869141"/>
      </g>
     </g>
    </g>
    <g id="ytick_4">
     <g id="line2d_31">
      <path d="M 43.25 156.778483 
L 982.876106 156.778483 
" clip-path="url(#pfe36cabc93)" style="fill: none; stroke-dasharray: 2.96,1.28; stroke-dashoffset: 0; stroke: #b0b0b0; stroke-width: 0.8"/>
     </g>
     <g id="line2d_32">
      <g>
       <use xlink:href="#m015c75deef" x="43.25" y="156.778483" style="stroke: #000000; stroke-width: 0.8"/>
      </g>
     </g>
     <g id="text_4">
      <!-- 3000 -->
      <g transform="translate(10.8 160.577702)scale(0.1 -0.1)">
       <defs>
        <path id="DejaVuSans-33" d="M 2597 2516 
Q 3050 2419 3304 2112 
Q 3559 1806 3559 1356 
Q 3559 666 3084 287 
Q 2609 -91 1734 -91 
Q 1441 -91 1130 -33 
Q 819 25 488 141 
L 488 750 
Q 750 597 1062 519 
Q 1375 441 1716 441 
Q 2309 441 2620 675 
Q 2931 909 2931 1356 
Q 2931 1769 2642 2001 
Q 2353 2234 1838 2234 
L 1294 2234 
L 1294 2753 
L 1863 2753 
Q 2328 2753 2575 2939 
Q 2822 3125 2822 3475 
Q 2822 3834 2567 4026 
Q 2313 4219 1838 4219 
Q 1578 4219 1281 4162 
Q 984 4106 628 3988 
L 628 4550 
Q 988 4650 1302 4700 
Q 1616 4750 1894 4750 
Q 2613 4750 3031 4423 
Q 3450 4097 3450 3541 
Q 3450 3153 3228 2886 
Q 3006 2619 2597 2516 
z
" transform="scale(0.015625)"/>
       </defs>
       <use xlink:href="#DejaVuSans-33"/>
       <use xlink:href="#DejaVuSans-30" x="63.623047"/>
       <use xlink:href="#DejaVuSans-30" x="127.246094"/>
       <use xlink:href="#DejaVuSans-30" x="190.869141"/>
      </g>
     </g>
    </g>
    <g id="ytick_5">
     <g id="line2d_33">
      <path d="M 43.25 110.962135 
L 982.876106 110.962135 
" clip-path="url(#pfe36cabc93)" style="fill: none; stroke-dasharray: 2.96,1.28; stroke-dashoffset: 0; stroke: #b0b0b0; stroke-width: 0.8"/>
     </g>
     <g id="line2d_34">
      <g>
       <use xlink:href="#m015c75deef" x="43.25" y="110.962135" style="stroke: #000000; stroke-width: 0.8"/>
      </g>
     </g>
     <g id="text_5">
      <!-- 3500 -->
      <g transform="translate(10.8 114.761354)scale(0.1 -0.1)">
       <use xlink:href="#DejaVuSans-33"/>
       <use xlink:href="#DejaVuSans-35" x="63.623047"/>
       <use xlink:href="#DejaVuSans-30" x="127.246094"/>
       <use xlink:href="#DejaVuSans-30" x="190.869141"/>
      </g>
     </g>
    </g>
    <g id="ytick_6">
     <g id="line2d_35">
      <path d="M 43.25 65.145787 
L 982.876106 65.145787 
" clip-path="url(#pfe36cabc93)" style="fill: none; stroke-dasharray: 2.96,1.28; stroke-dashoffset: 0; stroke: #b0b0b0; stroke-width: 0.8"/>
     </g>
     <g id="line2d_36">
      <g>
       <use xlink:href="#m015c75deef" x="43.25" y="65.145787" style="stroke: #000000; stroke-width: 0.8"/>
      </g>
     </g>
     <g id="text_6">
      <!-- 4000 -->
      <g transform="translate(10.8 68.945006)scale(0.1 -0.1)">
       <defs>
        <path id="DejaVuSans-34" d="M 2419 4116 
L 825 1625 
L 2419 1625 
L 2419 4116 
z
M 2253 4666 
L 3047 4666 
L 3047 1625 
L 3713 1625 
L 3713 1100 
L 3047 1100 
L 3047 0 
L 2419 0 
L 2419 1100 
L 313 1100 
L 313 1709 
L 2253 4666 
z
" transform="scale(0.015625)"/>
       </defs>
       <use xlink:href="#DejaVuSans-34"/>
       <use xlink:href="#DejaVuSans-30" x="63.623047"/>
       <use xlink:href="#DejaVuSans-30" x="127.246094"/>
       <use xlink:href="#DejaVuSans-30" x="190.869141"/>
      </g>
     </g>
    </g>
   </g>
   <g id="line2d_37">
    <path d="M 85.960278 274.329487 
L 88.638038 274.159966 
L 93.993559 274.700599 
L 96.671319 275.983457 
L 104.7046 271.081108 
L 107.38236 262.715043 
L 110.060121 263.979574 
L 112.737881 261.849114 
L 115.415641 260.300521 
L 123.448922 259.608694 
L 126.126683 262.985359 
L 128.804443 262.220226 
L 131.482203 260.703705 
L 142.193245 274.453191 
L 144.871005 272.107394 
L 150.226526 277.183845 
L 152.904286 276.478274 
L 160.937567 274.531079 
L 166.293088 268.629933 
L 168.970848 271.149832 
L 171.648609 270.650434 
L 179.68189 272.987068 
L 182.35965 274.434865 
L 185.03741 268.281729 
L 187.715171 268.011413 
L 190.392931 270.009005 
L 198.426212 279.204346 
L 201.103972 271.846241 
L 206.459493 273.064956 
L 209.137254 272.574721 
L 219.848295 278.860724 
L 222.526055 276.936437 
L 225.203816 290.20027 
L 227.881576 283.350726 
L 235.914857 280.991184 
L 241.270378 281.234011 
L 243.948138 281.050745 
L 246.625898 283.689767 
L 254.659179 288.358453 
L 257.33694 284.917645 
L 260.0147 279.882428 
L 262.69246 271.974527 
L 265.370221 272.776313 
L 273.403502 272.593047 
L 276.081262 275.772702 
L 278.759023 270.586291 
L 281.436783 264.937136 
L 292.147824 266.467402 
L 294.825585 263.846707 
L 297.503345 265.729758 
L 300.181105 263.732166 
L 302.858866 260.598328 
L 310.892147 256.685611 
L 313.569907 255.993785 
L 316.247667 248.846434 
L 318.925428 247.059597 
L 321.603188 244.411412 
L 329.636469 242.377166 
L 332.314229 235.596346 
L 334.99199 233.749948 
L 337.66975 239.33496 
L 340.347511 232.74657 
L 348.380792 231.898967 
L 351.058552 230.36412 
L 353.736312 230.135038 
L 367.125114 226.982873 
L 369.802874 232.989396 
L 372.480635 231.555345 
L 375.158395 222.172157 
L 377.836155 223.367963 
L 385.869436 222.369167 
L 388.547197 212.188774 
L 391.224957 217.796695 
L 393.902717 213.723622 
L 396.580478 217.989124 
L 404.613759 217.301879 
L 409.96928 225.154801 
L 412.64704 225.008188 
L 415.3248 225.71376 
L 423.358081 230.299977 
L 426.035842 238.377399 
L 428.713602 237.479398 
L 431.391362 244.269381 
L 434.069123 243.449269 
L 442.102404 238.707276 
L 444.780164 231.472875 
L 447.457924 231.816498 
L 450.135685 237.896327 
L 452.813445 228.293221 
L 460.846726 232.774059 
L 463.524487 233.731621 
L 466.202247 241.616615 
L 468.880007 244.159422 
L 471.557768 241.066818 
L 479.591049 233.232223 
L 482.268809 233.058121 
L 484.946569 234.583805 
L 487.62433 229.223292 
L 490.30209 231.000967 
L 498.335371 227.789241 
L 501.013131 227.560159 
L 503.690892 232.173865 
L 506.368652 228.325292 
L 509.046412 229.800578 
L 517.079693 241.103471 
L 519.757454 230.409936 
L 522.435214 231.495783 
L 525.112974 240.805665 
L 527.790735 239.632767 
L 535.824016 241.094308 
L 538.501776 233.585009 
L 541.179537 240.237543 
L 543.857297 238.299511 
L 546.535057 233.61708 
L 554.568338 231.770681 
L 557.246099 229.663129 
L 559.923859 228.242823 
L 562.601619 230.918497 
L 565.27938 227.134067 
L 573.312661 224.417158 
L 575.990421 225.828301 
L 578.668181 223.409198 
L 581.345942 223.276331 
L 584.023702 221.558217 
L 592.056983 214.209275 
L 594.734744 214.905684 
L 597.412504 216.019021 
L 600.090264 213.306693 
L 602.768025 211.277029 
L 610.801306 209.595569 
L 613.479066 207.057343 
L 616.156826 207.07567 
L 618.834587 203.007178 
L 621.512347 202.649811 
L 629.545628 197.958217 
L 632.223388 197.124359 
L 634.901149 198.132319 
L 637.578909 197.976543 
L 640.256669 196.253849 
L 648.28995 187.919855 
L 650.967711 185.766487 
L 653.645471 183.223679 
L 656.323232 182.10576 
L 659.000992 184.414904 
L 667.034273 175.847247 
L 672.389794 172.612613 
L 675.067554 171.984929 
L 677.745314 169.190132 
L 688.456356 158.991413 
L 691.134116 155.98586 
L 693.811876 142.699119 
L 696.489637 144.847906 
L 704.522918 152.050236 
L 707.200678 153.969941 
L 709.878438 144.440141 
L 712.556199 150.698654 
L 715.233959 143.991141 
L 723.26724 143.711661 
L 725.945001 138.969669 
L 731.300521 135.405157 
L 733.978282 124.17557 
L 742.011563 125.023172 
L 744.689323 116.844954 
L 747.367083 113.367494 
L 752.722604 115.433811 
L 760.755885 114.279239 
L 763.433645 105.849031 
L 766.111406 104.355418 
L 768.789166 88.173084 
L 771.466926 92.434004 
L 779.500207 85.428685 
L 782.177968 80.306417 
L 784.855728 98.124395 
L 787.533489 91.141983 
L 790.211249 94.990556 
L 798.24453 103.063397 
L 800.92229 105.546643 
L 803.600051 106.495041 
L 806.277811 113.646973 
L 808.955571 115.016882 
L 816.988852 142.36466 
L 819.666613 134.997391 
L 825.022133 130.663165 
L 827.699894 131.341247 
L 835.733175 134.213932 
L 838.410935 131.675706 
L 841.088695 136.284831 
L 843.766456 135.368504 
L 846.444216 137.581433 
L 854.477497 137.297372 
L 857.155258 130.727308 
L 859.833018 131.373318 
L 862.510778 124.056448 
L 865.188539 128.198245 
L 873.22182 128.390674 
L 875.89958 129.242858 
L 881.255101 126.997857 
L 883.932861 127.153633 
L 891.966142 124.940703 
L 894.643902 104.02554 
L 897.321663 103.567377 
L 899.999423 102.67854 
L 902.677183 80.425539 
L 910.710465 68.756116 
L 916.065985 65.402359 
L 918.743746 65.855941 
L 921.421506 64.334838 
L 929.454787 63.07947 
L 932.132547 59.849418 
L 934.810308 69.122646 
L 937.488068 63.482654 
L 940.165828 63.33146 
L 940.165828 63.33146 
" clip-path="url(#pfe36cabc93)" style="fill: none; stroke: #1f77b4; stroke-width: 1.5; stroke-linecap: square"/>
   </g>
   <g id="line2d_38">
    <path d="M 96.671319 274.731755 
L 104.7046 274.082079 
L 107.38236 271.793094 
L 110.060121 269.691956 
L 112.737881 267.121659 
L 115.415641 263.985072 
L 123.448922 261.690589 
L 126.126683 261.744653 
L 128.804443 261.392783 
L 131.482203 261.163701 
L 134.159964 261.931583 
L 142.193245 264.900483 
L 144.871005 266.72489 
L 150.226526 269.717613 
L 152.904286 272.872527 
L 160.937567 274.950757 
L 163.615328 274.380801 
L 166.293088 273.685309 
L 171.648609 271.312939 
L 179.68189 271.004136 
L 182.35965 271.570427 
L 185.03741 271.500786 
L 187.715171 270.873102 
L 190.392931 270.744816 
L 198.426212 271.988272 
L 201.103972 271.470547 
L 203.781733 272.296157 
L 206.459493 273.306866 
L 209.137254 273.820009 
L 217.170535 273.43057 
L 219.848295 274.833467 
L 222.526055 275.738798 
L 225.203816 279.165861 
L 227.881576 281.321062 
L 241.270378 282.542526 
L 243.948138 283.365387 
L 246.625898 282.063287 
L 254.659179 283.064832 
L 257.33694 283.850124 
L 260.0147 283.579808 
L 262.69246 281.764564 
L 265.370221 279.581873 
L 273.403502 276.428792 
L 278.759023 272.740576 
L 281.436783 271.333098 
L 292.147824 270.071316 
L 294.825585 268.322047 
L 297.503345 266.313459 
L 300.181105 264.942634 
L 302.858866 264.074872 
L 310.892147 262.118514 
L 313.569907 260.54793 
L 318.925428 253.836751 
L 321.603188 250.599368 
L 329.636469 247.737679 
L 332.314229 243.658191 
L 334.99199 240.638894 
L 337.66975 239.093966 
L 340.347511 236.760998 
L 348.380792 234.665358 
L 351.058552 233.618913 
L 353.736312 232.895931 
L 367.125114 230.425513 
L 369.802874 230.474079 
L 372.480635 230.405354 
L 375.158395 228.766962 
L 377.836155 227.413547 
L 385.869436 226.490805 
L 388.547197 222.330681 
L 391.224957 219.578951 
L 393.902717 217.889244 
L 396.580478 216.813476 
L 404.613759 215.800019 
L 409.96928 218.393224 
L 412.64704 219.835523 
L 415.3248 222.23355 
L 423.358081 224.695721 
L 426.035842 228.910825 
L 428.713602 231.375745 
L 431.391362 235.227983 
L 434.069123 238.775085 
L 442.102404 240.456545 
L 444.780164 239.07564 
L 447.457924 237.94306 
L 450.135685 236.668449 
L 452.813445 233.637239 
L 460.846726 232.450596 
L 463.524487 232.902345 
L 466.202247 234.862369 
L 468.880007 236.114988 
L 471.557768 238.669707 
L 479.591049 238.76134 
L 482.268809 238.62664 
L 484.946569 237.220078 
L 487.62433 234.232852 
L 490.30209 232.219682 
L 498.335371 231.131085 
L 501.013131 230.031493 
L 503.690892 229.549505 
L 509.046412 229.129827 
L 517.079693 231.792673 
L 519.757454 232.362629 
L 522.435214 232.227012 
L 525.112974 234.723087 
L 527.790735 236.689525 
L 535.824016 236.687692 
L 538.501776 237.322706 
L 541.179537 239.071058 
L 543.857297 238.569827 
L 546.535057 237.36669 
L 554.568338 235.501965 
L 557.246099 234.717589 
L 559.923859 232.318645 
L 562.601619 230.842442 
L 565.27938 229.54584 
L 573.312661 228.075135 
L 575.990421 227.308169 
L 578.668181 226.341444 
L 581.345942 224.813011 
L 584.023702 223.697841 
L 592.056983 221.656264 
L 594.734744 219.471741 
L 597.412504 217.993706 
L 602.768025 213.94354 
L 610.801306 213.020799 
L 613.479066 211.451131 
L 616.156826 209.662461 
L 618.834587 207.602558 
L 621.512347 205.877114 
L 629.545628 203.549644 
L 632.223388 201.563047 
L 634.901149 199.774377 
L 637.578909 198.76825 
L 640.256669 197.489057 
L 648.28995 195.481385 
L 650.967711 193.20981 
L 653.645471 190.228082 
L 656.323232 187.053926 
L 659.000992 184.686137 
L 667.034273 182.271615 
L 672.389794 179.640841 
L 675.067554 177.393091 
L 677.745314 174.809965 
L 688.456356 169.725267 
L 691.134116 165.752989 
L 693.811876 159.770291 
L 696.489637 154.342886 
L 704.522918 150.914907 
L 707.200678 149.910613 
L 709.878438 147.601469 
L 712.556199 149.201376 
L 715.233959 149.030022 
L 723.26724 147.362307 
L 725.945001 144.362253 
L 731.300521 142.555256 
L 733.978282 137.250639 
L 742.011563 133.457046 
L 744.689323 128.083705 
L 747.367083 122.963269 
L 750.044844 118.756412 
L 752.722604 117.008061 
L 760.755885 114.859274 
L 763.433645 112.660089 
L 766.111406 110.857674 
L 768.789166 105.618116 
L 771.466926 101.018155 
L 779.500207 95.248044 
L 782.177968 90.139522 
L 784.855728 88.893317 
L 790.211249 89.998407 
L 798.24453 93.52535 
L 800.92229 98.573395 
L 803.600051 100.247524 
L 806.277811 104.748522 
L 808.955571 108.753787 
L 816.988852 116.61404 
L 819.666613 122.50419 
L 825.022133 127.337814 
L 827.699894 130.876669 
L 835.733175 134.716079 
L 838.410935 132.578288 
L 841.088695 132.835776 
L 843.766456 133.776844 
L 846.444216 135.024881 
L 854.477497 135.641569 
L 857.155258 135.45189 
L 859.833018 134.469587 
L 862.510778 132.207176 
L 865.188539 130.330538 
L 873.22182 128.549199 
L 875.89958 128.252309 
L 881.255101 127.377216 
L 883.932861 127.996653 
L 891.966142 127.345145 
L 894.643902 122.472118 
L 897.321663 117.337022 
L 899.999423 112.473158 
L 902.677183 103.12754 
L 910.710465 91.890622 
L 916.065985 84.165986 
L 921.421506 68.954959 
L 929.454787 65.485745 
L 932.132547 63.704405 
L 934.810308 64.448463 
L 937.488068 63.973805 
L 940.165828 63.77313 
L 940.165828 63.77313 
" clip-path="url(#pfe36cabc93)" style="fill: none; stroke: #ff7f0e; stroke-width: 1.5; stroke-linecap: square"/>
   </g>
   <g id="patch_3">
    <path d="M 43.25 301.717812 
L 43.25 48.331875 
" style="fill: none; stroke: #000000; stroke-width: 0.8; stroke-linejoin: miter; stroke-linecap: square"/>
   </g>
   <g id="patch_4">
    <path d="M 982.876106 301.717812 
L 982.876106 48.331875 
" style="fill: none; stroke: #000000; stroke-width: 0.8; stroke-linejoin: miter; stroke-linecap: square"/>
   </g>
   <g id="patch_5">
    <path d="M 43.25 301.717812 
L 982.876106 301.717812 
" style="fill: none; stroke: #000000; stroke-width: 0.8; stroke-linejoin: miter; stroke-linecap: square"/>
   </g>
   <g id="patch_6">
    <path d="M 43.25 48.331875 
L 982.876106 48.331875 
" style="fill: none; stroke: #000000; stroke-width: 0.8; stroke-linejoin: miter; stroke-linecap: square"/>
   </g>
   <g id="text_7">
    <!-- Closing Price -->
    <g transform="translate(474.587115 42.331875)scale(0.12 -0.12)">
     <defs>
      <path id="DejaVuSans-43" d="M 4122 4306 
L 4122 3641 
Q 3803 3938 3442 4084 
Q 3081 4231 2675 4231 
Q 1875 4231 1450 3742 
Q 1025 3253 1025 2328 
Q 1025 1406 1450 917 
Q 1875 428 2675 428 
Q 3081 428 3442 575 
Q 3803 722 4122 1019 
L 4122 359 
Q 3791 134 3420 21 
Q 3050 -91 2638 -91 
Q 1578 -91 968 557 
Q 359 1206 359 2328 
Q 359 3453 968 4101 
Q 1578 4750 2638 4750 
Q 3056 4750 3426 4639 
Q 3797 4528 4122 4306 
z
" transform="scale(0.015625)"/>
      <path id="DejaVuSans-6c" d="M 603 4863 
L 1178 4863 
L 1178 0 
L 603 0 
L 603 4863 
z
" transform="scale(0.015625)"/>
      <path id="DejaVuSans-6f" d="M 1959 3097 
Q 1497 3097 1228 2736 
Q 959 2375 959 1747 
Q 959 1119 1226 758 
Q 1494 397 1959 397 
Q 2419 397 2687 759 
Q 2956 1122 2956 1747 
Q 2956 2369 2687 2733 
Q 2419 3097 1959 3097 
z
M 1959 3584 
Q 2709 3584 3137 3096 
Q 3566 2609 3566 1747 
Q 3566 888 3137 398 
Q 2709 -91 1959 -91 
Q 1206 -91 779 398 
Q 353 888 353 1747 
Q 353 2609 779 3096 
Q 1206 3584 1959 3584 
z
" transform="scale(0.015625)"/>
      <path id="DejaVuSans-73" d="M 2834 3397 
L 2834 2853 
Q 2591 2978 2328 3040 
Q 2066 3103 1784 3103 
Q 1356 3103 1142 2972 
Q 928 2841 928 2578 
Q 928 2378 1081 2264 
Q 1234 2150 1697 2047 
L 1894 2003 
Q 2506 1872 2764 1633 
Q 3022 1394 3022 966 
Q 3022 478 2636 193 
Q 2250 -91 1575 -91 
Q 1294 -91 989 -36 
Q 684 19 347 128 
L 347 722 
Q 666 556 975 473 
Q 1284 391 1588 391 
Q 1994 391 2212 530 
Q 2431 669 2431 922 
Q 2431 1156 2273 1281 
Q 2116 1406 1581 1522 
L 1381 1569 
Q 847 1681 609 1914 
Q 372 2147 372 2553 
Q 372 3047 722 3315 
Q 1072 3584 1716 3584 
Q 2034 3584 2315 3537 
Q 2597 3491 2834 3397 
z
" transform="scale(0.015625)"/>
      <path id="DejaVuSans-69" d="M 603 3500 
L 1178 3500 
L 1178 0 
L 603 0 
L 603 3500 
z
M 603 4863 
L 1178 4863 
L 1178 4134 
L 603 4134 
L 603 4863 
z
" transform="scale(0.015625)"/>
      <path id="DejaVuSans-6e" d="M 3513 2113 
L 3513 0 
L 2938 0 
L 2938 2094 
Q 2938 2591 2744 2837 
Q 2550 3084 2163 3084 
Q 1697 3084 1428 2787 
Q 1159 2491 1159 1978 
L 1159 0 
L 581 0 
L 581 3500 
L 1159 3500 
L 1159 2956 
Q 1366 3272 1645 3428 
Q 1925 3584 2291 3584 
Q 2894 3584 3203 3211 
Q 3513 2838 3513 2113 
z
" transform="scale(0.015625)"/>
      <path id="DejaVuSans-67" d="M 2906 1791 
Q 2906 2416 2648 2759 
Q 2391 3103 1925 3103 
Q 1463 3103 1205 2759 
Q 947 2416 947 1791 
Q 947 1169 1205 825 
Q 1463 481 1925 481 
Q 2391 481 2648 825 
Q 2906 1169 2906 1791 
z
M 3481 434 
Q 3481 -459 3084 -895 
Q 2688 -1331 1869 -1331 
Q 1566 -1331 1297 -1286 
Q 1028 -1241 775 -1147 
L 775 -588 
Q 1028 -725 1275 -790 
Q 1522 -856 1778 -856 
Q 2344 -856 2625 -561 
Q 2906 -266 2906 331 
L 2906 616 
Q 2728 306 2450 153 
Q 2172 0 1784 0 
Q 1141 0 747 490 
Q 353 981 353 1791 
Q 353 2603 747 3093 
Q 1141 3584 1784 3584 
Q 2172 3584 2450 3431 
Q 2728 3278 2906 2969 
L 2906 3500 
L 3481 3500 
L 3481 434 
z
" transform="scale(0.015625)"/>
      <path id="DejaVuSans-20" transform="scale(0.015625)"/>
      <path id="DejaVuSans-50" d="M 1259 4147 
L 1259 2394 
L 2053 2394 
Q 2494 2394 2734 2622 
Q 2975 2850 2975 3272 
Q 2975 3691 2734 3919 
Q 2494 4147 2053 4147 
L 1259 4147 
z
M 628 4666 
L 2053 4666 
Q 2838 4666 3239 4311 
Q 3641 3956 3641 3272 
Q 3641 2581 3239 2228 
Q 2838 1875 2053 1875 
L 1259 1875 
L 1259 0 
L 628 0 
L 628 4666 
z
" transform="scale(0.015625)"/>
      <path id="DejaVuSans-72" d="M 2631 2963 
Q 2534 3019 2420 3045 
Q 2306 3072 2169 3072 
Q 1681 3072 1420 2755 
Q 1159 2438 1159 1844 
L 1159 0 
L 581 0 
L 581 3500 
L 1159 3500 
L 1159 2956 
Q 1341 3275 1631 3429 
Q 1922 3584 2338 3584 
Q 2397 3584 2469 3576 
Q 2541 3569 2628 3553 
L 2631 2963 
z
" transform="scale(0.015625)"/>
      <path id="DejaVuSans-63" d="M 3122 3366 
L 3122 2828 
Q 2878 2963 2633 3030 
Q 2388 3097 2138 3097 
Q 1578 3097 1268 2742 
Q 959 2388 959 1747 
Q 959 1106 1268 751 
Q 1578 397 2138 397 
Q 2388 397 2633 464 
Q 2878 531 3122 666 
L 3122 134 
Q 2881 22 2623 -34 
Q 2366 -91 2075 -91 
Q 1284 -91 818 406 
Q 353 903 353 1747 
Q 353 2603 823 3093 
Q 1294 3584 2113 3584 
Q 2378 3584 2631 3529 
Q 2884 3475 3122 3366 
z
" transform="scale(0.015625)"/>
      <path id="DejaVuSans-65" d="M 3597 1894 
L 3597 1613 
L 953 1613 
Q 991 1019 1311 708 
Q 1631 397 2203 397 
Q 2534 397 2845 478 
Q 3156 559 3463 722 
L 3463 178 
Q 3153 47 2828 -22 
Q 2503 -91 2169 -91 
Q 1331 -91 842 396 
Q 353 884 353 1716 
Q 353 2575 817 3079 
Q 1281 3584 2069 3584 
Q 2775 3584 3186 3129 
Q 3597 2675 3597 1894 
z
M 3022 2063 
Q 3016 2534 2758 2815 
Q 2500 3097 2075 3097 
Q 1594 3097 1305 2825 
Q 1016 2553 972 2059 
L 3022 2063 
z
" transform="scale(0.015625)"/>
     </defs>
     <use xlink:href="#DejaVuSans-43"/>
     <use xlink:href="#DejaVuSans-6c" x="69.824219"/>
     <use xlink:href="#DejaVuSans-6f" x="97.607422"/>
     <use xlink:href="#DejaVuSans-73" x="158.789062"/>
     <use xlink:href="#DejaVuSans-69" x="210.888672"/>
     <use xlink:href="#DejaVuSans-6e" x="238.671875"/>
     <use xlink:href="#DejaVuSans-67" x="302.050781"/>
     <use xlink:href="#DejaVuSans-20" x="365.527344"/>
     <use xlink:href="#DejaVuSans-50" x="397.314453"/>
     <use xlink:href="#DejaVuSans-72" x="455.867188"/>
     <use xlink:href="#DejaVuSans-69" x="496.980469"/>
     <use xlink:href="#DejaVuSans-63" x="524.763672"/>
     <use xlink:href="#DejaVuSans-65" x="579.744141"/>
    </g>
   </g>
   <g id="legend_1">
    <g id="patch_7">
     <path d="M 50.25 85.688125 
L 114.98125 85.688125 
Q 116.98125 85.688125 116.98125 83.688125 
L 116.98125 55.331875 
Q 116.98125 53.331875 114.98125 53.331875 
L 50.25 53.331875 
Q 48.25 53.331875 48.25 55.331875 
L 48.25 83.688125 
Q 48.25 85.688125 50.25 85.688125 
z
" style="fill: #ffffff; opacity: 0.8; stroke: #cccccc; stroke-linejoin: miter"/>
    </g>
    <g id="line2d_39">
     <path d="M 52.25 61.430312 
L 62.25 61.430312 
L 72.25 61.430312 
" style="fill: none; stroke: #1f77b4; stroke-width: 1.5; stroke-linecap: square"/>
    </g>
    <g id="text_8">
     <!-- CLOSE -->
     <g transform="translate(80.25 64.930312)scale(0.1 -0.1)">
      <defs>
       <path id="DejaVuSans-4c" d="M 628 4666 
L 1259 4666 
L 1259 531 
L 3531 531 
L 3531 0 
L 628 0 
L 628 4666 
z
" transform="scale(0.015625)"/>
       <path id="DejaVuSans-4f" d="M 2522 4238 
Q 1834 4238 1429 3725 
Q 1025 3213 1025 2328 
Q 1025 1447 1429 934 
Q 1834 422 2522 422 
Q 3209 422 3611 934 
Q 4013 1447 4013 2328 
Q 4013 3213 3611 3725 
Q 3209 4238 2522 4238 
z
M 2522 4750 
Q 3503 4750 4090 4092 
Q 4678 3434 4678 2328 
Q 4678 1225 4090 567 
Q 3503 -91 2522 -91 
Q 1538 -91 948 565 
Q 359 1222 359 2328 
Q 359 3434 948 4092 
Q 1538 4750 2522 4750 
z
" transform="scale(0.015625)"/>
       <path id="DejaVuSans-53" d="M 3425 4513 
L 3425 3897 
Q 3066 4069 2747 4153 
Q 2428 4238 2131 4238 
Q 1616 4238 1336 4038 
Q 1056 3838 1056 3469 
Q 1056 3159 1242 3001 
Q 1428 2844 1947 2747 
L 2328 2669 
Q 3034 2534 3370 2195 
Q 3706 1856 3706 1288 
Q 3706 609 3251 259 
Q 2797 -91 1919 -91 
Q 1588 -91 1214 -16 
Q 841 59 441 206 
L 441 856 
Q 825 641 1194 531 
Q 1563 422 1919 422 
Q 2459 422 2753 634 
Q 3047 847 3047 1241 
Q 3047 1584 2836 1778 
Q 2625 1972 2144 2069 
L 1759 2144 
Q 1053 2284 737 2584 
Q 422 2884 422 3419 
Q 422 4038 858 4394 
Q 1294 4750 2059 4750 
Q 2388 4750 2728 4690 
Q 3069 4631 3425 4513 
z
" transform="scale(0.015625)"/>
       <path id="DejaVuSans-45" d="M 628 4666 
L 3578 4666 
L 3578 4134 
L 1259 4134 
L 1259 2753 
L 3481 2753 
L 3481 2222 
L 1259 2222 
L 1259 531 
L 3634 531 
L 3634 0 
L 628 0 
L 628 4666 
z
" transform="scale(0.015625)"/>
      </defs>
      <use xlink:href="#DejaVuSans-43"/>
      <use xlink:href="#DejaVuSans-4c" x="69.824219"/>
      <use xlink:href="#DejaVuSans-4f" x="121.912109"/>
      <use xlink:href="#DejaVuSans-53" x="200.623047"/>
      <use xlink:href="#DejaVuSans-45" x="264.099609"/>
     </g>
    </g>
    <g id="line2d_40">
     <path d="M 52.25 76.108437 
L 62.25 76.108437 
L 72.25 76.108437 
" style="fill: none; stroke: #ff7f0e; stroke-width: 1.5; stroke-linecap: square"/>
    </g>
    <g id="text_9">
     <!-- SMA5 -->
     <g transform="translate(80.25 79.608437)scale(0.1 -0.1)">
      <defs>
       <path id="DejaVuSans-4d" d="M 628 4666 
L 1569 4666 
L 2759 1491 
L 3956 4666 
L 4897 4666 
L 4897 0 
L 4281 0 
L 4281 4097 
L 3078 897 
L 2444 897 
L 1241 4097 
L 1241 0 
L 628 0 
L 628 4666 
z
" transform="scale(0.015625)"/>
       <path id="DejaVuSans-41" d="M 2188 4044 
L 1331 1722 
L 3047 1722 
L 2188 4044 
z
M 1831 4666 
L 2547 4666 
L 4325 0 
L 3669 0 
L 3244 1197 
L 1141 1197 
L 716 0 
L 50 0 
L 1831 4666 
z
" transform="scale(0.015625)"/>
      </defs>
      <use xlink:href="#DejaVuSans-53"/>
      <use xlink:href="#DejaVuSans-4d" x="63.476562"/>
      <use xlink:href="#DejaVuSans-41" x="149.755859"/>
      <use xlink:href="#DejaVuSans-35" x="218.164062"/>
     </g>
    </g>
   </g>
  </g>
  <g id="axes_2">
   <g id="patch_8">
    <path d="M 43.25 584.521875 
L 982.876106 584.521875 
L 982.876106 331.135938 
L 43.25 331.135938 
z
" style="fill: #ffffff"/>
   </g>
   <g id="matplotlib.axis_3">
    <g id="xtick_13">
     <g id="line2d_41">
      <path d="M 80.604757 584.521875 
L 80.604757 331.135938 
" clip-path="url(#p0c74c73fee)" style="fill: none; stroke-dasharray: 2.96,1.28; stroke-dashoffset: 0; stroke: #b0b0b0; stroke-width: 0.8"/>
     </g>
     <g id="line2d_42">
      <g>
       <use xlink:href="#m85c69c15f5" x="80.604757" y="584.521875" style="stroke: #000000; stroke-width: 0.8"/>
      </g>
     </g>
     <g id="text_10">
      <!-- 2022-01 -->
      <g transform="translate(59.713351 599.120312)scale(0.1 -0.1)">
       <defs>
        <path id="DejaVuSans-2d" d="M 313 2009 
L 1997 2009 
L 1997 1497 
L 313 1497 
L 313 2009 
z
" transform="scale(0.015625)"/>
       </defs>
       <use xlink:href="#DejaVuSans-32"/>
       <use xlink:href="#DejaVuSans-30" x="63.623047"/>
       <use xlink:href="#DejaVuSans-32" x="127.246094"/>
       <use xlink:href="#DejaVuSans-32" x="190.869141"/>
       <use xlink:href="#DejaVuSans-2d" x="254.492188"/>
       <use xlink:href="#DejaVuSans-30" x="290.576172"/>
       <use xlink:href="#DejaVuSans-31" x="354.199219"/>
      </g>
     </g>
    </g>
    <g id="xtick_14">
     <g id="line2d_43">
      <path d="M 163.615328 584.521875 
L 163.615328 331.135938 
" clip-path="url(#p0c74c73fee)" style="fill: none; stroke-dasharray: 2.96,1.28; stroke-dashoffset: 0; stroke: #b0b0b0; stroke-width: 0.8"/>
     </g>
     <g id="line2d_44">
      <g>
       <use xlink:href="#m85c69c15f5" x="163.615328" y="584.521875" style="stroke: #000000; stroke-width: 0.8"/>
      </g>
     </g>
     <g id="text_11">
      <!-- 2022-02 -->
      <g transform="translate(142.723921 599.120312)scale(0.1 -0.1)">
       <use xlink:href="#DejaVuSans-32"/>
       <use xlink:href="#DejaVuSans-30" x="63.623047"/>
       <use xlink:href="#DejaVuSans-32" x="127.246094"/>
       <use xlink:href="#DejaVuSans-32" x="190.869141"/>
       <use xlink:href="#DejaVuSans-2d" x="254.492188"/>
       <use xlink:href="#DejaVuSans-30" x="290.576172"/>
       <use xlink:href="#DejaVuSans-32" x="354.199219"/>
      </g>
     </g>
    </g>
    <g id="xtick_15">
     <g id="line2d_45">
      <path d="M 238.592617 584.521875 
L 238.592617 331.135938 
" clip-path="url(#p0c74c73fee)" style="fill: none; stroke-dasharray: 2.96,1.28; stroke-dashoffset: 0; stroke: #b0b0b0; stroke-width: 0.8"/>
     </g>
     <g id="line2d_46">
      <g>
       <use xlink:href="#m85c69c15f5" x="238.592617" y="584.521875" style="stroke: #000000; stroke-width: 0.8"/>
      </g>
     </g>
     <g id="text_12">
      <!-- 2022-03 -->
      <g transform="translate(217.701211 599.120312)scale(0.1 -0.1)">
       <use xlink:href="#DejaVuSans-32"/>
       <use xlink:href="#DejaVuSans-30" x="63.623047"/>
       <use xlink:href="#DejaVuSans-32" x="127.246094"/>
       <use xlink:href="#DejaVuSans-32" x="190.869141"/>
       <use xlink:href="#DejaVuSans-2d" x="254.492188"/>
       <use xlink:href="#DejaVuSans-30" x="290.576172"/>
       <use xlink:href="#DejaVuSans-33" x="354.199219"/>
      </g>
     </g>
    </g>
    <g id="xtick_16">
     <g id="line2d_47">
      <path d="M 321.603188 584.521875 
L 321.603188 331.135938 
" clip-path="url(#p0c74c73fee)" style="fill: none; stroke-dasharray: 2.96,1.28; stroke-dashoffset: 0; stroke: #b0b0b0; stroke-width: 0.8"/>
     </g>
     <g id="line2d_48">
      <g>
       <use xlink:href="#m85c69c15f5" x="321.603188" y="584.521875" style="stroke: #000000; stroke-width: 0.8"/>
      </g>
     </g>
     <g id="text_13">
      <!-- 2022-04 -->
      <g transform="translate(300.711782 599.120312)scale(0.1 -0.1)">
       <use xlink:href="#DejaVuSans-32"/>
       <use xlink:href="#DejaVuSans-30" x="63.623047"/>
       <use xlink:href="#DejaVuSans-32" x="127.246094"/>
       <use xlink:href="#DejaVuSans-32" x="190.869141"/>
       <use xlink:href="#DejaVuSans-2d" x="254.492188"/>
       <use xlink:href="#DejaVuSans-30" x="290.576172"/>
       <use xlink:href="#DejaVuSans-34" x="354.199219"/>
      </g>
     </g>
    </g>
    <g id="xtick_17">
     <g id="line2d_49">
      <path d="M 401.935999 584.521875 
L 401.935999 331.135938 
" clip-path="url(#p0c74c73fee)" style="fill: none; stroke-dasharray: 2.96,1.28; stroke-dashoffset: 0; stroke: #b0b0b0; stroke-width: 0.8"/>
     </g>
     <g id="line2d_50">
      <g>
       <use xlink:href="#m85c69c15f5" x="401.935999" y="584.521875" style="stroke: #000000; stroke-width: 0.8"/>
      </g>
     </g>
     <g id="text_14">
      <!-- 2022-05 -->
      <g transform="translate(381.044592 599.120312)scale(0.1 -0.1)">
       <use xlink:href="#DejaVuSans-32"/>
       <use xlink:href="#DejaVuSans-30" x="63.623047"/>
       <use xlink:href="#DejaVuSans-32" x="127.246094"/>
       <use xlink:href="#DejaVuSans-32" x="190.869141"/>
       <use xlink:href="#DejaVuSans-2d" x="254.492188"/>
       <use xlink:href="#DejaVuSans-30" x="290.576172"/>
       <use xlink:href="#DejaVuSans-35" x="354.199219"/>
      </g>
     </g>
    </g>
    <g id="xtick_18">
     <g id="line2d_51">
      <path d="M 484.946569 584.521875 
L 484.946569 331.135938 
" clip-path="url(#p0c74c73fee)" style="fill: none; stroke-dasharray: 2.96,1.28; stroke-dashoffset: 0; stroke: #b0b0b0; stroke-width: 0.8"/>
     </g>
     <g id="line2d_52">
      <g>
       <use xlink:href="#m85c69c15f5" x="484.946569" y="584.521875" style="stroke: #000000; stroke-width: 0.8"/>
      </g>
     </g>
     <g id="text_15">
      <!-- 2022-06 -->
      <g transform="translate(464.055163 599.120312)scale(0.1 -0.1)">
       <defs>
        <path id="DejaVuSans-36" d="M 2113 2584 
Q 1688 2584 1439 2293 
Q 1191 2003 1191 1497 
Q 1191 994 1439 701 
Q 1688 409 2113 409 
Q 2538 409 2786 701 
Q 3034 994 3034 1497 
Q 3034 2003 2786 2293 
Q 2538 2584 2113 2584 
z
M 3366 4563 
L 3366 3988 
Q 3128 4100 2886 4159 
Q 2644 4219 2406 4219 
Q 1781 4219 1451 3797 
Q 1122 3375 1075 2522 
Q 1259 2794 1537 2939 
Q 1816 3084 2150 3084 
Q 2853 3084 3261 2657 
Q 3669 2231 3669 1497 
Q 3669 778 3244 343 
Q 2819 -91 2113 -91 
Q 1303 -91 875 529 
Q 447 1150 447 2328 
Q 447 3434 972 4092 
Q 1497 4750 2381 4750 
Q 2619 4750 2861 4703 
Q 3103 4656 3366 4563 
z
" transform="scale(0.015625)"/>
       </defs>
       <use xlink:href="#DejaVuSans-32"/>
       <use xlink:href="#DejaVuSans-30" x="63.623047"/>
       <use xlink:href="#DejaVuSans-32" x="127.246094"/>
       <use xlink:href="#DejaVuSans-32" x="190.869141"/>
       <use xlink:href="#DejaVuSans-2d" x="254.492188"/>
       <use xlink:href="#DejaVuSans-30" x="290.576172"/>
       <use xlink:href="#DejaVuSans-36" x="354.199219"/>
      </g>
     </g>
    </g>
    <g id="xtick_19">
     <g id="line2d_53">
      <path d="M 565.27938 584.521875 
L 565.27938 331.135938 
" clip-path="url(#p0c74c73fee)" style="fill: none; stroke-dasharray: 2.96,1.28; stroke-dashoffset: 0; stroke: #b0b0b0; stroke-width: 0.8"/>
     </g>
     <g id="line2d_54">
      <g>
       <use xlink:href="#m85c69c15f5" x="565.27938" y="584.521875" style="stroke: #000000; stroke-width: 0.8"/>
      </g>
     </g>
     <g id="text_16">
      <!-- 2022-07 -->
      <g transform="translate(544.387973 599.120312)scale(0.1 -0.1)">
       <defs>
        <path id="DejaVuSans-37" d="M 525 4666 
L 3525 4666 
L 3525 4397 
L 1831 0 
L 1172 0 
L 2766 4134 
L 525 4134 
L 525 4666 
z
" transform="scale(0.015625)"/>
       </defs>
       <use xlink:href="#DejaVuSans-32"/>
       <use xlink:href="#DejaVuSans-30" x="63.623047"/>
       <use xlink:href="#DejaVuSans-32" x="127.246094"/>
       <use xlink:href="#DejaVuSans-32" x="190.869141"/>
       <use xlink:href="#DejaVuSans-2d" x="254.492188"/>
       <use xlink:href="#DejaVuSans-30" x="290.576172"/>
       <use xlink:href="#DejaVuSans-37" x="354.199219"/>
      </g>
     </g>
    </g>
    <g id="xtick_20">
     <g id="line2d_55">
      <path d="M 648.28995 584.521875 
L 648.28995 331.135938 
" clip-path="url(#p0c74c73fee)" style="fill: none; stroke-dasharray: 2.96,1.28; stroke-dashoffset: 0; stroke: #b0b0b0; stroke-width: 0.8"/>
     </g>
     <g id="line2d_56">
      <g>
       <use xlink:href="#m85c69c15f5" x="648.28995" y="584.521875" style="stroke: #000000; stroke-width: 0.8"/>
      </g>
     </g>
     <g id="text_17">
      <!-- 2022-08 -->
      <g transform="translate(627.398544 599.120312)scale(0.1 -0.1)">
       <defs>
        <path id="DejaVuSans-38" d="M 2034 2216 
Q 1584 2216 1326 1975 
Q 1069 1734 1069 1313 
Q 1069 891 1326 650 
Q 1584 409 2034 409 
Q 2484 409 2743 651 
Q 3003 894 3003 1313 
Q 3003 1734 2745 1975 
Q 2488 2216 2034 2216 
z
M 1403 2484 
Q 997 2584 770 2862 
Q 544 3141 544 3541 
Q 544 4100 942 4425 
Q 1341 4750 2034 4750 
Q 2731 4750 3128 4425 
Q 3525 4100 3525 3541 
Q 3525 3141 3298 2862 
Q 3072 2584 2669 2484 
Q 3125 2378 3379 2068 
Q 3634 1759 3634 1313 
Q 3634 634 3220 271 
Q 2806 -91 2034 -91 
Q 1263 -91 848 271 
Q 434 634 434 1313 
Q 434 1759 690 2068 
Q 947 2378 1403 2484 
z
M 1172 3481 
Q 1172 3119 1398 2916 
Q 1625 2713 2034 2713 
Q 2441 2713 2670 2916 
Q 2900 3119 2900 3481 
Q 2900 3844 2670 4047 
Q 2441 4250 2034 4250 
Q 1625 4250 1398 4047 
Q 1172 3844 1172 3481 
z
" transform="scale(0.015625)"/>
       </defs>
       <use xlink:href="#DejaVuSans-32"/>
       <use xlink:href="#DejaVuSans-30" x="63.623047"/>
       <use xlink:href="#DejaVuSans-32" x="127.246094"/>
       <use xlink:href="#DejaVuSans-32" x="190.869141"/>
       <use xlink:href="#DejaVuSans-2d" x="254.492188"/>
       <use xlink:href="#DejaVuSans-30" x="290.576172"/>
       <use xlink:href="#DejaVuSans-38" x="354.199219"/>
      </g>
     </g>
    </g>
    <g id="xtick_21">
     <g id="line2d_57">
      <path d="M 731.300521 584.521875 
L 731.300521 331.135938 
" clip-path="url(#p0c74c73fee)" style="fill: none; stroke-dasharray: 2.96,1.28; stroke-dashoffset: 0; stroke: #b0b0b0; stroke-width: 0.8"/>
     </g>
     <g id="line2d_58">
      <g>
       <use xlink:href="#m85c69c15f5" x="731.300521" y="584.521875" style="stroke: #000000; stroke-width: 0.8"/>
      </g>
     </g>
     <g id="text_18">
      <!-- 2022-09 -->
      <g transform="translate(710.409115 599.120312)scale(0.1 -0.1)">
       <defs>
        <path id="DejaVuSans-39" d="M 703 97 
L 703 672 
Q 941 559 1184 500 
Q 1428 441 1663 441 
Q 2288 441 2617 861 
Q 2947 1281 2994 2138 
Q 2813 1869 2534 1725 
Q 2256 1581 1919 1581 
Q 1219 1581 811 2004 
Q 403 2428 403 3163 
Q 403 3881 828 4315 
Q 1253 4750 1959 4750 
Q 2769 4750 3195 4129 
Q 3622 3509 3622 2328 
Q 3622 1225 3098 567 
Q 2575 -91 1691 -91 
Q 1453 -91 1209 -44 
Q 966 3 703 97 
z
M 1959 2075 
Q 2384 2075 2632 2365 
Q 2881 2656 2881 3163 
Q 2881 3666 2632 3958 
Q 2384 4250 1959 4250 
Q 1534 4250 1286 3958 
Q 1038 3666 1038 3163 
Q 1038 2656 1286 2365 
Q 1534 2075 1959 2075 
z
" transform="scale(0.015625)"/>
       </defs>
       <use xlink:href="#DejaVuSans-32"/>
       <use xlink:href="#DejaVuSans-30" x="63.623047"/>
       <use xlink:href="#DejaVuSans-32" x="127.246094"/>
       <use xlink:href="#DejaVuSans-32" x="190.869141"/>
       <use xlink:href="#DejaVuSans-2d" x="254.492188"/>
       <use xlink:href="#DejaVuSans-30" x="290.576172"/>
       <use xlink:href="#DejaVuSans-39" x="354.199219"/>
      </g>
     </g>
    </g>
    <g id="xtick_22">
     <g id="line2d_59">
      <path d="M 811.633332 584.521875 
L 811.633332 331.135938 
" clip-path="url(#p0c74c73fee)" style="fill: none; stroke-dasharray: 2.96,1.28; stroke-dashoffset: 0; stroke: #b0b0b0; stroke-width: 0.8"/>
     </g>
     <g id="line2d_60">
      <g>
       <use xlink:href="#m85c69c15f5" x="811.633332" y="584.521875" style="stroke: #000000; stroke-width: 0.8"/>
      </g>
     </g>
     <g id="text_19">
      <!-- 2022-10 -->
      <g transform="translate(790.741925 599.120312)scale(0.1 -0.1)">
       <use xlink:href="#DejaVuSans-32"/>
       <use xlink:href="#DejaVuSans-30" x="63.623047"/>
       <use xlink:href="#DejaVuSans-32" x="127.246094"/>
       <use xlink:href="#DejaVuSans-32" x="190.869141"/>
       <use xlink:href="#DejaVuSans-2d" x="254.492188"/>
       <use xlink:href="#DejaVuSans-31" x="290.576172"/>
       <use xlink:href="#DejaVuSans-30" x="354.199219"/>
      </g>
     </g>
    </g>
    <g id="xtick_23">
     <g id="line2d_61">
      <path d="M 894.643902 584.521875 
L 894.643902 331.135938 
" clip-path="url(#p0c74c73fee)" style="fill: none; stroke-dasharray: 2.96,1.28; stroke-dashoffset: 0; stroke: #b0b0b0; stroke-width: 0.8"/>
     </g>
     <g id="line2d_62">
      <g>
       <use xlink:href="#m85c69c15f5" x="894.643902" y="584.521875" style="stroke: #000000; stroke-width: 0.8"/>
      </g>
     </g>
     <g id="text_20">
      <!-- 2022-11 -->
      <g transform="translate(873.752496 599.120312)scale(0.1 -0.1)">
       <use xlink:href="#DejaVuSans-32"/>
       <use xlink:href="#DejaVuSans-30" x="63.623047"/>
       <use xlink:href="#DejaVuSans-32" x="127.246094"/>
       <use xlink:href="#DejaVuSans-32" x="190.869141"/>
       <use xlink:href="#DejaVuSans-2d" x="254.492188"/>
       <use xlink:href="#DejaVuSans-31" x="290.576172"/>
       <use xlink:href="#DejaVuSans-31" x="354.199219"/>
      </g>
     </g>
    </g>
    <g id="xtick_24">
     <g id="line2d_63">
      <path d="M 974.976713 584.521875 
L 974.976713 331.135938 
" clip-path="url(#p0c74c73fee)" style="fill: none; stroke-dasharray: 2.96,1.28; stroke-dashoffset: 0; stroke: #b0b0b0; stroke-width: 0.8"/>
     </g>
     <g id="line2d_64">
      <g>
       <use xlink:href="#m85c69c15f5" x="974.976713" y="584.521875" style="stroke: #000000; stroke-width: 0.8"/>
      </g>
     </g>
     <g id="text_21">
      <!-- 2022-12 -->
      <g transform="translate(954.085307 599.120312)scale(0.1 -0.1)">
       <use xlink:href="#DejaVuSans-32"/>
       <use xlink:href="#DejaVuSans-30" x="63.623047"/>
       <use xlink:href="#DejaVuSans-32" x="127.246094"/>
       <use xlink:href="#DejaVuSans-32" x="190.869141"/>
       <use xlink:href="#DejaVuSans-2d" x="254.492188"/>
       <use xlink:href="#DejaVuSans-31" x="290.576172"/>
       <use xlink:href="#DejaVuSans-32" x="354.199219"/>
      </g>
     </g>
    </g>
   </g>
   <g id="matplotlib.axis_4">
    <g id="ytick_7">
     <g id="line2d_65">
      <path d="M 43.25 582.37513 
L 982.876106 582.37513 
" clip-path="url(#p0c74c73fee)" style="fill: none; stroke-dasharray: 2.96,1.28; stroke-dashoffset: 0; stroke: #b0b0b0; stroke-width: 0.8"/>
     </g>
     <g id="line2d_66">
      <g>
       <use xlink:href="#m015c75deef" x="43.25" y="582.37513" style="stroke: #000000; stroke-width: 0.8"/>
      </g>
     </g>
     <g id="text_22">
      <!-- −50 -->
      <g transform="translate(15.145313 586.174349)scale(0.1 -0.1)">
       <defs>
        <path id="DejaVuSans-2212" d="M 678 2272 
L 4684 2272 
L 4684 1741 
L 678 1741 
L 678 2272 
z
" transform="scale(0.015625)"/>
       </defs>
       <use xlink:href="#DejaVuSans-2212"/>
       <use xlink:href="#DejaVuSans-35" x="83.789062"/>
       <use xlink:href="#DejaVuSans-30" x="147.412109"/>
      </g>
     </g>
    </g>
    <g id="ytick_8">
     <g id="line2d_67">
      <path d="M 43.25 540.614572 
L 982.876106 540.614572 
" clip-path="url(#p0c74c73fee)" style="fill: none; stroke-dasharray: 2.96,1.28; stroke-dashoffset: 0; stroke: #b0b0b0; stroke-width: 0.8"/>
     </g>
     <g id="line2d_68">
      <g>
       <use xlink:href="#m015c75deef" x="43.25" y="540.614572" style="stroke: #000000; stroke-width: 0.8"/>
      </g>
     </g>
     <g id="text_23">
      <!-- 0 -->
      <g transform="translate(29.8875 544.413791)scale(0.1 -0.1)">
       <use xlink:href="#DejaVuSans-30"/>
      </g>
     </g>
    </g>
    <g id="ytick_9">
     <g id="line2d_69">
      <path d="M 43.25 498.854014 
L 982.876106 498.854014 
" clip-path="url(#p0c74c73fee)" style="fill: none; stroke-dasharray: 2.96,1.28; stroke-dashoffset: 0; stroke: #b0b0b0; stroke-width: 0.8"/>
     </g>
     <g id="line2d_70">
      <g>
       <use xlink:href="#m015c75deef" x="43.25" y="498.854014" style="stroke: #000000; stroke-width: 0.8"/>
      </g>
     </g>
     <g id="text_24">
      <!-- 50 -->
      <g transform="translate(23.525 502.653233)scale(0.1 -0.1)">
       <use xlink:href="#DejaVuSans-35"/>
       <use xlink:href="#DejaVuSans-30" x="63.623047"/>
      </g>
     </g>
    </g>
    <g id="ytick_10">
     <g id="line2d_71">
      <path d="M 43.25 457.093456 
L 982.876106 457.093456 
" clip-path="url(#p0c74c73fee)" style="fill: none; stroke-dasharray: 2.96,1.28; stroke-dashoffset: 0; stroke: #b0b0b0; stroke-width: 0.8"/>
     </g>
     <g id="line2d_72">
      <g>
       <use xlink:href="#m015c75deef" x="43.25" y="457.093456" style="stroke: #000000; stroke-width: 0.8"/>
      </g>
     </g>
     <g id="text_25">
      <!-- 100 -->
      <g transform="translate(17.1625 460.892675)scale(0.1 -0.1)">
       <use xlink:href="#DejaVuSans-31"/>
       <use xlink:href="#DejaVuSans-30" x="63.623047"/>
       <use xlink:href="#DejaVuSans-30" x="127.246094"/>
      </g>
     </g>
    </g>
    <g id="ytick_11">
     <g id="line2d_73">
      <path d="M 43.25 415.332898 
L 982.876106 415.332898 
" clip-path="url(#p0c74c73fee)" style="fill: none; stroke-dasharray: 2.96,1.28; stroke-dashoffset: 0; stroke: #b0b0b0; stroke-width: 0.8"/>
     </g>
     <g id="line2d_74">
      <g>
       <use xlink:href="#m015c75deef" x="43.25" y="415.332898" style="stroke: #000000; stroke-width: 0.8"/>
      </g>
     </g>
     <g id="text_26">
      <!-- 150 -->
      <g transform="translate(17.1625 419.132117)scale(0.1 -0.1)">
       <use xlink:href="#DejaVuSans-31"/>
       <use xlink:href="#DejaVuSans-35" x="63.623047"/>
       <use xlink:href="#DejaVuSans-30" x="127.246094"/>
      </g>
     </g>
    </g>
    <g id="ytick_12">
     <g id="line2d_75">
      <path d="M 43.25 373.57234 
L 982.876106 373.57234 
" clip-path="url(#p0c74c73fee)" style="fill: none; stroke-dasharray: 2.96,1.28; stroke-dashoffset: 0; stroke: #b0b0b0; stroke-width: 0.8"/>
     </g>
     <g id="line2d_76">
      <g>
       <use xlink:href="#m015c75deef" x="43.25" y="373.57234" style="stroke: #000000; stroke-width: 0.8"/>
      </g>
     </g>
     <g id="text_27">
      <!-- 200 -->
      <g transform="translate(17.1625 377.371559)scale(0.1 -0.1)">
       <use xlink:href="#DejaVuSans-32"/>
       <use xlink:href="#DejaVuSans-30" x="63.623047"/>
       <use xlink:href="#DejaVuSans-30" x="127.246094"/>
      </g>
     </g>
    </g>
    <g id="ytick_13">
     <g id="line2d_77">
      <path d="M 43.25 331.811782 
L 982.876106 331.811782 
" clip-path="url(#p0c74c73fee)" style="fill: none; stroke-dasharray: 2.96,1.28; stroke-dashoffset: 0; stroke: #b0b0b0; stroke-width: 0.8"/>
     </g>
     <g id="line2d_78">
      <g>
       <use xlink:href="#m015c75deef" x="43.25" y="331.811782" style="stroke: #000000; stroke-width: 0.8"/>
      </g>
     </g>
     <g id="text_28">
      <!-- 250 -->
      <g transform="translate(17.1625 335.611001)scale(0.1 -0.1)">
       <use xlink:href="#DejaVuSans-32"/>
       <use xlink:href="#DejaVuSans-35" x="63.623047"/>
       <use xlink:href="#DejaVuSans-30" x="127.246094"/>
      </g>
     </g>
    </g>
   </g>
   <g id="line2d_79">
    <path d="M 85.960278 540.614572 
L 88.638038 540.579906 
L 93.993559 540.769533 
L 96.671319 541.289805 
L 104.7046 539.679161 
L 107.38236 535.207882 
L 115.415641 528.025024 
L 123.448922 526.175966 
L 126.126683 526.707402 
L 128.804443 526.892065 
L 131.482203 526.407401 
L 134.159964 528.081766 
L 142.193245 535.211039 
L 144.871005 539.391983 
L 150.226526 545.526279 
L 152.904286 549.768253 
L 160.937567 551.770376 
L 163.615328 551.418103 
L 166.293088 549.1987 
L 168.970848 548.936102 
L 171.648609 548.320998 
L 179.68189 549.232379 
L 182.35965 550.76745 
L 185.03741 547.869467 
L 187.715171 545.349085 
L 190.392931 544.640065 
L 198.426212 550.127211 
L 201.103972 549.397492 
L 203.781733 549.10383 
L 206.459493 549.218446 
L 209.137254 548.876062 
L 217.170535 551.707392 
L 219.848295 554.893535 
L 222.526055 555.897239 
L 225.203816 565.675672 
L 227.881576 568.287881 
L 235.914857 568.371908 
L 241.270378 568.288871 
L 243.948138 567.778153 
L 246.625898 568.921068 
L 254.659179 572.780148 
L 257.33694 573.004332 
L 260.0147 569.246328 
L 262.69246 560.368901 
L 265.370221 553.760048 
L 273.403502 548.303331 
L 276.081262 546.207862 
L 278.759023 540.800685 
L 281.436783 532.525477 
L 292.147824 527.231257 
L 294.825585 521.359382 
L 297.503345 518.33049 
L 300.181105 514.777999 
L 302.858866 510.037872 
L 310.892147 503.859225 
L 313.569907 498.940586 
L 316.247667 490.413896 
L 318.925428 483.01894 
L 321.603188 475.972648 
L 329.636469 469.721802 
L 332.314229 460.736542 
L 334.99199 453.274483 
L 337.66975 452.46226 
L 340.347511 448.066606 
L 348.380792 445.065229 
L 351.058552 442.692686 
L 353.736312 441.784786 
L 367.125114 439.917555 
L 369.802874 443.954367 
L 372.480635 447.179922 
L 375.158395 443.97104 
L 377.836155 443.425882 
L 385.869436 443.382537 
L 388.547197 437.073231 
L 391.224957 437.378769 
L 393.902717 435.839772 
L 396.580478 438.923791 
L 404.613759 442.00041 
L 409.96928 451.235185 
L 415.3248 467.204089 
L 423.358081 477.498848 
L 426.035842 492.149667 
L 428.713602 503.528275 
L 431.391362 517.7975 
L 434.069123 528.641293 
L 442.102404 533.828728 
L 444.780164 532.714532 
L 447.457924 532.181289 
L 450.135685 536.277098 
L 452.813445 532.557691 
L 460.846726 532.991491 
L 463.524487 534.114088 
L 466.202247 540.79786 
L 468.880007 547.880286 
L 471.557768 551.098735 
L 479.591049 547.80665 
L 482.268809 545.018887 
L 484.946569 543.893488 
L 487.62433 539.078054 
L 490.30209 536.614959 
L 498.335371 532.396183 
L 501.013131 529.018025 
L 503.690892 529.857308 
L 506.368652 527.839782 
L 509.046412 527.477151 
L 517.079693 535.559533 
L 519.757454 534.17557 
L 522.435214 533.954043 
L 525.112974 540.624593 
L 527.790735 544.997987 
L 535.824016 549.437026 
L 538.501776 547.354985 
L 541.179537 550.483479 
L 543.857297 551.413104 
L 546.535057 548.614097 
L 554.568338 544.987578 
L 559.923859 536.066491 
L 562.601619 534.539855 
L 565.27938 530.661508 
L 573.312661 525.760992 
L 575.990421 523.116822 
L 578.668181 519.485739 
L 581.345942 516.785058 
L 584.023702 513.691514 
L 592.056983 506.231392 
L 594.734744 501.284745 
L 597.412504 498.666859 
L 600.090264 495.121768 
L 602.768025 491.386984 
L 610.801306 487.799311 
L 613.479066 483.744836 
L 616.156826 481.229671 
L 618.834587 476.977702 
L 621.512347 474.11176 
L 629.545628 469.213021 
L 632.223388 465.582384 
L 634.901149 464.325817 
L 637.578909 464.097455 
L 640.256669 463.537969 
L 648.28995 457.918391 
L 650.967711 452.892292 
L 653.645471 448.105287 
L 656.323232 444.596188 
L 659.000992 444.620095 
L 667.034273 439.503257 
L 672.389794 434.294708 
L 677.745314 427.581124 
L 688.456356 418.799318 
L 691.134116 411.121859 
L 693.811876 396.921665 
L 696.489637 388.996069 
L 704.522918 389.751225 
L 707.200678 393.457932 
L 709.878438 391.109917 
L 712.556199 395.524637 
L 715.233959 395.759865 
L 723.26724 397.391717 
L 725.945001 396.854492 
L 731.300521 395.480116 
L 733.978282 387.892221 
L 742.011563 384.304009 
L 744.689323 377.327645 
L 747.367083 371.194182 
L 750.044844 369.049038 
L 752.722604 370.0964 
L 760.755885 372.020717 
L 763.433645 369.32004 
L 766.111406 368.070188 
L 768.789166 357.291048 
L 771.466926 354.033141 
L 779.500207 348.513341 
L 782.177968 342.65348 
L 784.855728 353.273905 
L 787.533489 358.65275 
L 790.211249 367.738897 
L 798.24453 382.697558 
L 800.92229 398.022509 
L 803.600051 412.343803 
L 806.277811 430.226162 
L 808.955571 446.490611 
L 816.988852 480.190728 
L 819.666613 501.925775 
L 825.022133 516.244121 
L 827.699894 528.232961 
L 835.733175 539.855769 
L 838.410935 547.12505 
L 841.088695 556.097476 
L 846.444216 568.493867 
L 854.477497 572.834543 
L 857.155258 571.091058 
L 859.833018 569.847485 
L 862.510778 563.219911 
L 865.188539 560.781274 
L 873.22182 558.780757 
L 875.89958 557.626006 
L 881.255101 554.895073 
L 883.932861 552.705978 
L 891.966142 549.244051 
L 894.643902 531.225869 
L 897.321663 516.882921 
L 899.999423 505.269738 
L 902.677183 480.393628 
L 910.710465 453.105189 
L 916.065985 430.284086 
L 918.743746 413.991432 
L 921.421506 401.563531 
L 929.454787 392.498416 
L 932.132547 384.735466 
L 934.810308 387.172387 
L 937.488068 386.729422 
L 940.165828 388.026112 
L 940.165828 388.026112 
" clip-path="url(#p0c74c73fee)" style="fill: none; stroke: #1f77b4; stroke-width: 1.5; stroke-linecap: square"/>
   </g>
   <g id="line2d_80">
    <path d="M 85.960278 540.614572 
L 91.315798 540.622785 
L 93.993559 540.672496 
L 96.671319 540.856132 
L 104.7046 540.537107 
L 107.38236 539.188422 
L 110.060121 537.663944 
L 115.415641 534.19565 
L 123.448922 532.440989 
L 126.126683 531.209655 
L 131.482203 529.482426 
L 134.159964 529.192078 
L 142.193245 530.430735 
L 144.871005 532.264272 
L 150.226526 534.965332 
L 152.904286 537.969207 
L 160.937567 540.761635 
L 163.615328 542.912769 
L 166.293088 544.179301 
L 168.970848 545.13631 
L 171.648609 545.77627 
L 179.68189 546.470113 
L 182.35965 547.332186 
L 185.03741 547.439902 
L 190.392931 546.544018 
L 198.426212 547.261545 
L 201.103972 547.689158 
L 206.459493 548.2217 
L 209.137254 548.352639 
L 217.170535 549.023862 
L 222.526055 551.338286 
L 227.881576 557.023131 
L 235.914857 559.293188 
L 241.270378 561.092516 
L 246.625898 563.728108 
L 254.659179 565.538614 
L 257.33694 567.031823 
L 260.0147 567.474739 
L 262.69246 566.053532 
L 265.370221 563.59478 
L 273.403502 560.536436 
L 276.081262 557.67068 
L 278.759023 554.296643 
L 281.436783 549.94237 
L 292.147824 545.400114 
L 294.825585 540.591939 
L 300.181105 531.867287 
L 302.858866 527.501391 
L 310.892147 522.772946 
L 313.569907 518.006465 
L 316.247667 512.487943 
L 321.603188 500.469832 
L 329.636469 494.320221 
L 334.99199 480.737678 
L 340.347511 469.679393 
L 348.380792 464.756559 
L 351.058552 460.343783 
L 353.736312 456.631983 
L 367.125114 453.289097 
L 369.802874 451.422151 
L 372.480635 450.573705 
L 375.158395 449.253172 
L 377.836155 448.087714 
L 385.869436 447.146679 
L 388.547197 445.131989 
L 393.902717 442.03303 
L 396.580478 441.411182 
L 404.613759 441.529028 
L 409.96928 443.470259 
L 412.64704 446.652738 
L 415.3248 450.763008 
L 423.358081 456.110176 
L 426.035842 463.318074 
L 428.713602 471.360114 
L 434.069123 490.246332 
L 442.102404 498.962811 
L 444.780164 505.713155 
L 450.135685 516.060845 
L 452.813445 519.360214 
L 460.846726 522.08647 
L 463.524487 524.491993 
L 466.202247 527.753167 
L 471.557768 535.642619 
L 479.591049 538.075426 
L 482.268809 539.464118 
L 484.946569 540.349992 
L 487.62433 540.095604 
L 490.30209 539.399475 
L 498.335371 537.998817 
L 501.013131 536.202658 
L 503.690892 534.933588 
L 506.368652 533.514827 
L 509.046412 532.307292 
L 522.435214 533.351853 
L 525.112974 534.806401 
L 527.790735 536.844718 
L 535.824016 539.36318 
L 538.501776 540.961541 
L 541.179537 542.865929 
L 543.857297 544.575364 
L 546.535057 545.38311 
L 554.568338 545.304004 
L 557.246099 544.356038 
L 562.601619 541.066474 
L 565.27938 538.985481 
L 573.312661 536.340583 
L 575.990421 533.695831 
L 584.023702 525.170352 
L 592.056983 521.38256 
L 594.734744 517.362997 
L 602.768025 506.216092 
L 610.801306 502.532736 
L 613.479066 498.775156 
L 621.512347 488.109062 
L 629.545628 484.329854 
L 632.223388 480.58036 
L 634.901149 477.329451 
L 637.578909 474.683052 
L 640.256669 472.454035 
L 648.28995 469.546906 
L 650.967711 466.215984 
L 656.323232 458.994313 
L 659.000992 456.119469 
L 667.034273 452.796227 
L 672.389794 449.095923 
L 677.745314 441.892683 
L 688.456356 437.27401 
L 691.134116 432.04358 
L 696.489637 417.814571 
L 704.522918 412.201902 
L 707.200678 408.453108 
L 709.878438 404.98447 
L 712.556199 403.092503 
L 715.233959 401.625976 
L 723.26724 400.779124 
L 725.945001 399.994198 
L 731.300521 399.091381 
L 733.978282 396.851549 
L 742.011563 394.342041 
L 744.689323 390.939162 
L 747.367083 386.990166 
L 750.044844 383.40194 
L 752.722604 380.740832 
L 760.755885 378.996809 
L 763.433645 377.061455 
L 766.111406 375.263202 
L 771.466926 368.141645 
L 779.500207 364.215984 
L 782.177968 359.903483 
L 784.855728 358.577568 
L 787.533489 358.592604 
L 790.211249 360.421863 
L 798.24453 364.877002 
L 800.92229 371.506103 
L 803.600051 379.673643 
L 806.277811 389.784147 
L 808.955571 401.12544 
L 816.988852 416.938497 
L 819.666613 433.935953 
L 825.022133 450.397587 
L 827.699894 465.964662 
L 835.733175 480.742883 
L 838.410935 494.019316 
L 841.088695 506.434948 
L 843.766456 517.604848 
L 846.444216 527.782652 
L 854.477497 536.79303 
L 857.155258 543.652636 
L 859.833018 548.891606 
L 862.510778 551.757267 
L 865.188539 553.562068 
L 873.22182 554.605806 
L 875.89958 555.209846 
L 881.255101 555.146891 
L 883.932861 554.658709 
L 891.966142 553.575777 
L 894.643902 549.105795 
L 897.321663 542.661221 
L 899.999423 535.182924 
L 902.677183 524.225065 
L 910.710465 510.00109 
L 916.065985 494.057689 
L 918.743746 478.044438 
L 921.421506 462.748256 
L 929.454787 448.698288 
L 932.132547 435.905724 
L 934.810308 426.159056 
L 937.488068 418.273129 
L 940.165828 412.223726 
L 940.165828 412.223726 
" clip-path="url(#p0c74c73fee)" style="fill: none; stroke: #ff7f0e; stroke-width: 1.5; stroke-linecap: square"/>
   </g>
   <g id="patch_9">
    <path d="M 43.25 584.521875 
L 43.25 331.135938 
" style="fill: none; stroke: #000000; stroke-width: 0.8; stroke-linejoin: miter; stroke-linecap: square"/>
   </g>
   <g id="patch_10">
    <path d="M 982.876106 584.521875 
L 982.876106 331.135938 
" style="fill: none; stroke: #000000; stroke-width: 0.8; stroke-linejoin: miter; stroke-linecap: square"/>
   </g>
   <g id="patch_11">
    <path d="M 43.25 584.521875 
L 982.876106 584.521875 
" style="fill: none; stroke: #000000; stroke-width: 0.8; stroke-linejoin: miter; stroke-linecap: square"/>
   </g>
   <g id="patch_12">
    <path d="M 43.25 331.135938 
L 982.876106 331.135938 
" style="fill: none; stroke: #000000; stroke-width: 0.8; stroke-linejoin: miter; stroke-linecap: square"/>
   </g>
   <g id="text_29">
    <!-- MACD -->
    <g transform="translate(495.077115 325.135938)scale(0.12 -0.12)">
     <defs>
      <path id="DejaVuSans-44" d="M 1259 4147 
L 1259 519 
L 2022 519 
Q 2988 519 3436 956 
Q 3884 1394 3884 2338 
Q 3884 3275 3436 3711 
Q 2988 4147 2022 4147 
L 1259 4147 
z
M 628 4666 
L 1925 4666 
Q 3281 4666 3915 4102 
Q 4550 3538 4550 2338 
Q 4550 1131 3912 565 
Q 3275 0 1925 0 
L 628 0 
L 628 4666 
z
" transform="scale(0.015625)"/>
     </defs>
     <use xlink:href="#DejaVuSans-4d"/>
     <use xlink:href="#DejaVuSans-41" x="86.279297"/>
     <use xlink:href="#DejaVuSans-43" x="152.9375"/>
     <use xlink:href="#DejaVuSans-44" x="222.761719"/>
    </g>
   </g>
   <g id="legend_2">
    <g id="patch_13">
     <path d="M 913.899543 368.492188 
L 975.876106 368.492188 
Q 977.876106 368.492188 977.876106 366.492188 
L 977.876106 338.135938 
Q 977.876106 336.135938 975.876106 336.135938 
L 913.899543 336.135938 
Q 911.899543 336.135938 911.899543 338.135938 
L 911.899543 366.492188 
Q 911.899543 368.492188 913.899543 368.492188 
z
" style="fill: #ffffff; opacity: 0.8; stroke: #cccccc; stroke-linejoin: miter"/>
    </g>
    <g id="line2d_81">
     <path d="M 915.899543 344.234375 
L 925.899543 344.234375 
L 935.899543 344.234375 
" style="fill: none; stroke: #1f77b4; stroke-width: 1.5; stroke-linecap: square"/>
    </g>
    <g id="text_30">
     <!-- MACD -->
     <g transform="translate(943.899543 347.734375)scale(0.1 -0.1)">
      <use xlink:href="#DejaVuSans-4d"/>
      <use xlink:href="#DejaVuSans-41" x="86.279297"/>
      <use xlink:href="#DejaVuSans-43" x="152.9375"/>
      <use xlink:href="#DejaVuSans-44" x="222.761719"/>
     </g>
    </g>
    <g id="line2d_82">
     <path d="M 915.899543 358.9125 
L 925.899543 358.9125 
L 935.899543 358.9125 
" style="fill: none; stroke: #ff7f0e; stroke-width: 1.5; stroke-linecap: square"/>
    </g>
    <g id="text_31">
     <!-- SIG -->
     <g transform="translate(943.899543 362.4125)scale(0.1 -0.1)">
      <defs>
       <path id="DejaVuSans-49" d="M 628 4666 
L 1259 4666 
L 1259 0 
L 628 0 
L 628 4666 
z
" transform="scale(0.015625)"/>
       <path id="DejaVuSans-47" d="M 3809 666 
L 3809 1919 
L 2778 1919 
L 2778 2438 
L 4434 2438 
L 4434 434 
Q 4069 175 3628 42 
Q 3188 -91 2688 -91 
Q 1594 -91 976 548 
Q 359 1188 359 2328 
Q 359 3472 976 4111 
Q 1594 4750 2688 4750 
Q 3144 4750 3555 4637 
Q 3966 4525 4313 4306 
L 4313 3634 
Q 3963 3931 3569 4081 
Q 3175 4231 2741 4231 
Q 1884 4231 1454 3753 
Q 1025 3275 1025 2328 
Q 1025 1384 1454 906 
Q 1884 428 2741 428 
Q 3075 428 3337 486 
Q 3600 544 3809 666 
z
" transform="scale(0.015625)"/>
      </defs>
      <use xlink:href="#DejaVuSans-53"/>
      <use xlink:href="#DejaVuSans-49" x="63.476562"/>
      <use xlink:href="#DejaVuSans-47" x="92.96875"/>
     </g>
    </g>
   </g>
  </g>
  <g id="text_32">
   <!-- Adani Enterprises Limited -->
   <g transform="translate(426.867188 21.358125)scale(0.12 -0.12)">
    <defs>
     <path id="DejaVuSans-64" d="M 2906 2969 
L 2906 4863 
L 3481 4863 
L 3481 0 
L 2906 0 
L 2906 525 
Q 2725 213 2448 61 
Q 2172 -91 1784 -91 
Q 1150 -91 751 415 
Q 353 922 353 1747 
Q 353 2572 751 3078 
Q 1150 3584 1784 3584 
Q 2172 3584 2448 3432 
Q 2725 3281 2906 2969 
z
M 947 1747 
Q 947 1113 1208 752 
Q 1469 391 1925 391 
Q 2381 391 2643 752 
Q 2906 1113 2906 1747 
Q 2906 2381 2643 2742 
Q 2381 3103 1925 3103 
Q 1469 3103 1208 2742 
Q 947 2381 947 1747 
z
" transform="scale(0.015625)"/>
     <path id="DejaVuSans-61" d="M 2194 1759 
Q 1497 1759 1228 1600 
Q 959 1441 959 1056 
Q 959 750 1161 570 
Q 1363 391 1709 391 
Q 2188 391 2477 730 
Q 2766 1069 2766 1631 
L 2766 1759 
L 2194 1759 
z
M 3341 1997 
L 3341 0 
L 2766 0 
L 2766 531 
Q 2569 213 2275 61 
Q 1981 -91 1556 -91 
Q 1019 -91 701 211 
Q 384 513 384 1019 
Q 384 1609 779 1909 
Q 1175 2209 1959 2209 
L 2766 2209 
L 2766 2266 
Q 2766 2663 2505 2880 
Q 2244 3097 1772 3097 
Q 1472 3097 1187 3025 
Q 903 2953 641 2809 
L 641 3341 
Q 956 3463 1253 3523 
Q 1550 3584 1831 3584 
Q 2591 3584 2966 3190 
Q 3341 2797 3341 1997 
z
" transform="scale(0.015625)"/>
     <path id="DejaVuSans-74" d="M 1172 4494 
L 1172 3500 
L 2356 3500 
L 2356 3053 
L 1172 3053 
L 1172 1153 
Q 1172 725 1289 603 
Q 1406 481 1766 481 
L 2356 481 
L 2356 0 
L 1766 0 
Q 1100 0 847 248 
Q 594 497 594 1153 
L 594 3053 
L 172 3053 
L 172 3500 
L 594 3500 
L 594 4494 
L 1172 4494 
z
" transform="scale(0.015625)"/>
     <path id="DejaVuSans-70" d="M 1159 525 
L 1159 -1331 
L 581 -1331 
L 581 3500 
L 1159 3500 
L 1159 2969 
Q 1341 3281 1617 3432 
Q 1894 3584 2278 3584 
Q 2916 3584 3314 3078 
Q 3713 2572 3713 1747 
Q 3713 922 3314 415 
Q 2916 -91 2278 -91 
Q 1894 -91 1617 61 
Q 1341 213 1159 525 
z
M 3116 1747 
Q 3116 2381 2855 2742 
Q 2594 3103 2138 3103 
Q 1681 3103 1420 2742 
Q 1159 2381 1159 1747 
Q 1159 1113 1420 752 
Q 1681 391 2138 391 
Q 2594 391 2855 752 
Q 3116 1113 3116 1747 
z
" transform="scale(0.015625)"/>
     <path id="DejaVuSans-6d" d="M 3328 2828 
Q 3544 3216 3844 3400 
Q 4144 3584 4550 3584 
Q 5097 3584 5394 3201 
Q 5691 2819 5691 2113 
L 5691 0 
L 5113 0 
L 5113 2094 
Q 5113 2597 4934 2840 
Q 4756 3084 4391 3084 
Q 3944 3084 3684 2787 
Q 3425 2491 3425 1978 
L 3425 0 
L 2847 0 
L 2847 2094 
Q 2847 2600 2669 2842 
Q 2491 3084 2119 3084 
Q 1678 3084 1418 2786 
Q 1159 2488 1159 1978 
L 1159 0 
L 581 0 
L 581 3500 
L 1159 3500 
L 1159 2956 
Q 1356 3278 1631 3431 
Q 1906 3584 2284 3584 
Q 2666 3584 2933 3390 
Q 3200 3197 3328 2828 
z
" transform="scale(0.015625)"/>
    </defs>
    <use xlink:href="#DejaVuSans-41"/>
    <use xlink:href="#DejaVuSans-64" x="66.658203"/>
    <use xlink:href="#DejaVuSans-61" x="130.134766"/>
    <use xlink:href="#DejaVuSans-6e" x="191.414062"/>
    <use xlink:href="#DejaVuSans-69" x="254.792969"/>
    <use xlink:href="#DejaVuSans-20" x="282.576172"/>
    <use xlink:href="#DejaVuSans-45" x="314.363281"/>
    <use xlink:href="#DejaVuSans-6e" x="377.546875"/>
    <use xlink:href="#DejaVuSans-74" x="440.925781"/>
    <use xlink:href="#DejaVuSans-65" x="480.134766"/>
    <use xlink:href="#DejaVuSans-72" x="541.658203"/>
    <use xlink:href="#DejaVuSans-70" x="582.771484"/>
    <use xlink:href="#DejaVuSans-72" x="646.248047"/>
    <use xlink:href="#DejaVuSans-69" x="687.361328"/>
    <use xlink:href="#DejaVuSans-73" x="715.144531"/>
    <use xlink:href="#DejaVuSans-65" x="767.244141"/>
    <use xlink:href="#DejaVuSans-73" x="828.767578"/>
    <use xlink:href="#DejaVuSans-20" x="880.867188"/>
    <use xlink:href="#DejaVuSans-4c" x="912.654297"/>
    <use xlink:href="#DejaVuSans-69" x="968.367188"/>
    <use xlink:href="#DejaVuSans-6d" x="996.150391"/>
    <use xlink:href="#DejaVuSans-69" x="1093.5625"/>
    <use xlink:href="#DejaVuSans-74" x="1121.345703"/>
    <use xlink:href="#DejaVuSans-65" x="1160.554688"/>
    <use xlink:href="#DejaVuSans-64" x="1222.078125"/>
   </g>
  </g>
 </g>
 <defs>
  <clipPath id="pfe36cabc93">
   <rect x="43.25" y="48.331875" width="939.626106" height="253.385938"/>
  </clipPath>
  <clipPath id="p0c74c73fee">
   <rect x="43.25" y="331.135938" width="939.626106" height="253.385937"/>
  </clipPath>
 </defs>
</svg>
