<?xml version="1.0" encoding="utf-8" standalone="no"?>
<!DOCTYPE svg PUBLIC "-//W3C//DTD SVG 1.1//EN"
  "http://www.w3.org/Graphics/SVG/1.1/DTD/svg11.dtd">
<svg xmlns:xlink="http://www.w3.org/1999/xlink" width="1008pt" height="612pt" viewBox="0 0 1008 612" xmlns="http://www.w3.org/2000/svg" version="1.1">
 <metadata>
  <rdf:RDF xmlns:dc="http://purl.org/dc/elements/1.1/" xmlns:cc="http://creativecommons.org/ns#" xmlns:rdf="http://www.w3.org/1999/02/22-rdf-syntax-ns#">
   <cc:Work>
    <dc:type rdf:resource="http://purl.org/dc/dcmitype/StillImage"/>
    <dc:date>2022-11-20T19:46:58.851656</dc:date>
    <dc:format>image/svg+xml</dc:format>
    <dc:creator>
     <cc:Agent>
      <dc:title>Matplotlib v3.5.2, https://matplotlib.org/</dc:title>
     </cc:Agent>
    </dc:creator>
   </cc:Work>
  </rdf:RDF>
 </metadata>
 <defs>
  <style type="text/css">*{stroke-linejoin: round; stroke-linecap: butt}</style>
 </defs>
 <g id="figure_1">
  <g id="patch_1">
   <path d="M 0 612 
L 1008 612 
L 1008 0 
L 0 0 
z
" style="fill: #ffffff"/>
  </g>
  <g id="axes_1">
   <g id="patch_2">
    <path d="M 45.267188 301.717812 
L 982.876106 301.717812 
L 982.876106 48.331875 
L 45.267188 48.331875 
z
" style="fill: #ffffff"/>
   </g>
   <g id="matplotlib.axis_1">
    <g id="xtick_1">
     <g id="line2d_1">
      <path d="M 82.541751 301.717812 
L 82.541751 48.331875 
" clip-path="url(#p8698ab5e16)" style="fill: none; stroke-dasharray: 2.96,1.28; stroke-dashoffset: 0; stroke: #b0b0b0; stroke-width: 0.8"/>
     </g>
     <g id="line2d_2">
      <defs>
       <path id="mfa4522238b" d="M 0 0 
L 0 3.5 
" style="stroke: #000000; stroke-width: 0.8"/>
      </defs>
      <g>
       <use xlink:href="#mfa4522238b" x="82.541751" y="301.717812" style="stroke: #000000; stroke-width: 0.8"/>
      </g>
     </g>
    </g>
    <g id="xtick_2">
     <g id="line2d_3">
      <path d="M 165.374115 301.717812 
L 165.374115 48.331875 
" clip-path="url(#p8698ab5e16)" style="fill: none; stroke-dasharray: 2.96,1.28; stroke-dashoffset: 0; stroke: #b0b0b0; stroke-width: 0.8"/>
     </g>
     <g id="line2d_4">
      <g>
       <use xlink:href="#mfa4522238b" x="165.374115" y="301.717812" style="stroke: #000000; stroke-width: 0.8"/>
      </g>
     </g>
    </g>
    <g id="xtick_3">
     <g id="line2d_5">
      <path d="M 240.190444 301.717812 
L 240.190444 48.331875 
" clip-path="url(#p8698ab5e16)" style="fill: none; stroke-dasharray: 2.96,1.28; stroke-dashoffset: 0; stroke: #b0b0b0; stroke-width: 0.8"/>
     </g>
     <g id="line2d_6">
      <g>
       <use xlink:href="#mfa4522238b" x="240.190444" y="301.717812" style="stroke: #000000; stroke-width: 0.8"/>
      </g>
     </g>
    </g>
    <g id="xtick_4">
     <g id="line2d_7">
      <path d="M 323.022808 301.717812 
L 323.022808 48.331875 
" clip-path="url(#p8698ab5e16)" style="fill: none; stroke-dasharray: 2.96,1.28; stroke-dashoffset: 0; stroke: #b0b0b0; stroke-width: 0.8"/>
     </g>
     <g id="line2d_8">
      <g>
       <use xlink:href="#mfa4522238b" x="323.022808" y="301.717812" style="stroke: #000000; stroke-width: 0.8"/>
      </g>
     </g>
    </g>
    <g id="xtick_5">
     <g id="line2d_9">
      <path d="M 403.18316 301.717812 
L 403.18316 48.331875 
" clip-path="url(#p8698ab5e16)" style="fill: none; stroke-dasharray: 2.96,1.28; stroke-dashoffset: 0; stroke: #b0b0b0; stroke-width: 0.8"/>
     </g>
     <g id="line2d_10">
      <g>
       <use xlink:href="#mfa4522238b" x="403.18316" y="301.717812" style="stroke: #000000; stroke-width: 0.8"/>
      </g>
     </g>
    </g>
    <g id="xtick_6">
     <g id="line2d_11">
      <path d="M 486.015523 301.717812 
L 486.015523 48.331875 
" clip-path="url(#p8698ab5e16)" style="fill: none; stroke-dasharray: 2.96,1.28; stroke-dashoffset: 0; stroke: #b0b0b0; stroke-width: 0.8"/>
     </g>
     <g id="line2d_12">
      <g>
       <use xlink:href="#mfa4522238b" x="486.015523" y="301.717812" style="stroke: #000000; stroke-width: 0.8"/>
      </g>
     </g>
    </g>
    <g id="xtick_7">
     <g id="line2d_13">
      <path d="M 566.175876 301.717812 
L 566.175876 48.331875 
" clip-path="url(#p8698ab5e16)" style="fill: none; stroke-dasharray: 2.96,1.28; stroke-dashoffset: 0; stroke: #b0b0b0; stroke-width: 0.8"/>
     </g>
     <g id="line2d_14">
      <g>
       <use xlink:href="#mfa4522238b" x="566.175876" y="301.717812" style="stroke: #000000; stroke-width: 0.8"/>
      </g>
     </g>
    </g>
    <g id="xtick_8">
     <g id="line2d_15">
      <path d="M 649.008239 301.717812 
L 649.008239 48.331875 
" clip-path="url(#p8698ab5e16)" style="fill: none; stroke-dasharray: 2.96,1.28; stroke-dashoffset: 0; stroke: #b0b0b0; stroke-width: 0.8"/>
     </g>
     <g id="line2d_16">
      <g>
       <use xlink:href="#mfa4522238b" x="649.008239" y="301.717812" style="stroke: #000000; stroke-width: 0.8"/>
      </g>
     </g>
    </g>
    <g id="xtick_9">
     <g id="line2d_17">
      <path d="M 731.840603 301.717812 
L 731.840603 48.331875 
" clip-path="url(#p8698ab5e16)" style="fill: none; stroke-dasharray: 2.96,1.28; stroke-dashoffset: 0; stroke: #b0b0b0; stroke-width: 0.8"/>
     </g>
     <g id="line2d_18">
      <g>
       <use xlink:href="#mfa4522238b" x="731.840603" y="301.717812" style="stroke: #000000; stroke-width: 0.8"/>
      </g>
     </g>
    </g>
    <g id="xtick_10">
     <g id="line2d_19">
      <path d="M 812.000955 301.717812 
L 812.000955 48.331875 
" clip-path="url(#p8698ab5e16)" style="fill: none; stroke-dasharray: 2.96,1.28; stroke-dashoffset: 0; stroke: #b0b0b0; stroke-width: 0.8"/>
     </g>
     <g id="line2d_20">
      <g>
       <use xlink:href="#mfa4522238b" x="812.000955" y="301.717812" style="stroke: #000000; stroke-width: 0.8"/>
      </g>
     </g>
    </g>
    <g id="xtick_11">
     <g id="line2d_21">
      <path d="M 894.833319 301.717812 
L 894.833319 48.331875 
" clip-path="url(#p8698ab5e16)" style="fill: none; stroke-dasharray: 2.96,1.28; stroke-dashoffset: 0; stroke: #b0b0b0; stroke-width: 0.8"/>
     </g>
     <g id="line2d_22">
      <g>
       <use xlink:href="#mfa4522238b" x="894.833319" y="301.717812" style="stroke: #000000; stroke-width: 0.8"/>
      </g>
     </g>
    </g>
    <g id="xtick_12">
     <g id="line2d_23">
      <path d="M 974.993671 301.717812 
L 974.993671 48.331875 
" clip-path="url(#p8698ab5e16)" style="fill: none; stroke-dasharray: 2.96,1.28; stroke-dashoffset: 0; stroke: #b0b0b0; stroke-width: 0.8"/>
     </g>
     <g id="line2d_24">
      <g>
       <use xlink:href="#mfa4522238b" x="974.993671" y="301.717812" style="stroke: #000000; stroke-width: 0.8"/>
      </g>
     </g>
    </g>
   </g>
   <g id="matplotlib.axis_2">
    <g id="ytick_1">
     <g id="line2d_25">
      <path d="M 45.267188 262.595464 
L 982.876106 262.595464 
" clip-path="url(#p8698ab5e16)" style="fill: none; stroke-dasharray: 2.96,1.28; stroke-dashoffset: 0; stroke: #b0b0b0; stroke-width: 0.8"/>
     </g>
     <g id="line2d_26">
      <defs>
       <path id="m628f6deb9b" d="M 0 0 
L -3.5 0 
" style="stroke: #000000; stroke-width: 0.8"/>
      </defs>
      <g>
       <use xlink:href="#m628f6deb9b" x="45.267188" y="262.595464" style="stroke: #000000; stroke-width: 0.8"/>
      </g>
     </g>
     <g id="text_1">
      <!-- 5500 -->
      <g transform="translate(12.817188 266.394683)scale(0.1 -0.1)">
       <defs>
        <path id="DejaVuSans-35" d="M 691 4666 
L 3169 4666 
L 3169 4134 
L 1269 4134 
L 1269 2991 
Q 1406 3038 1543 3061 
Q 1681 3084 1819 3084 
Q 2600 3084 3056 2656 
Q 3513 2228 3513 1497 
Q 3513 744 3044 326 
Q 2575 -91 1722 -91 
Q 1428 -91 1123 -41 
Q 819 9 494 109 
L 494 744 
Q 775 591 1075 516 
Q 1375 441 1709 441 
Q 2250 441 2565 725 
Q 2881 1009 2881 1497 
Q 2881 1984 2565 2268 
Q 2250 2553 1709 2553 
Q 1456 2553 1204 2497 
Q 953 2441 691 2322 
L 691 4666 
z
" transform="scale(0.015625)"/>
        <path id="DejaVuSans-30" d="M 2034 4250 
Q 1547 4250 1301 3770 
Q 1056 3291 1056 2328 
Q 1056 1369 1301 889 
Q 1547 409 2034 409 
Q 2525 409 2770 889 
Q 3016 1369 3016 2328 
Q 3016 3291 2770 3770 
Q 2525 4250 2034 4250 
z
M 2034 4750 
Q 2819 4750 3233 4129 
Q 3647 3509 3647 2328 
Q 3647 1150 3233 529 
Q 2819 -91 2034 -91 
Q 1250 -91 836 529 
Q 422 1150 422 2328 
Q 422 3509 836 4129 
Q 1250 4750 2034 4750 
z
" transform="scale(0.015625)"/>
       </defs>
       <use xlink:href="#DejaVuSans-35"/>
       <use xlink:href="#DejaVuSans-35" x="63.623047"/>
       <use xlink:href="#DejaVuSans-30" x="127.246094"/>
       <use xlink:href="#DejaVuSans-30" x="190.869141"/>
      </g>
     </g>
    </g>
    <g id="ytick_2">
     <g id="line2d_27">
      <path d="M 45.267188 219.823842 
L 982.876106 219.823842 
" clip-path="url(#p8698ab5e16)" style="fill: none; stroke-dasharray: 2.96,1.28; stroke-dashoffset: 0; stroke: #b0b0b0; stroke-width: 0.8"/>
     </g>
     <g id="line2d_28">
      <g>
       <use xlink:href="#m628f6deb9b" x="45.267188" y="219.823842" style="stroke: #000000; stroke-width: 0.8"/>
      </g>
     </g>
     <g id="text_2">
      <!-- 6000 -->
      <g transform="translate(12.817188 223.62306)scale(0.1 -0.1)">
       <defs>
        <path id="DejaVuSans-36" d="M 2113 2584 
Q 1688 2584 1439 2293 
Q 1191 2003 1191 1497 
Q 1191 994 1439 701 
Q 1688 409 2113 409 
Q 2538 409 2786 701 
Q 3034 994 3034 1497 
Q 3034 2003 2786 2293 
Q 2538 2584 2113 2584 
z
M 3366 4563 
L 3366 3988 
Q 3128 4100 2886 4159 
Q 2644 4219 2406 4219 
Q 1781 4219 1451 3797 
Q 1122 3375 1075 2522 
Q 1259 2794 1537 2939 
Q 1816 3084 2150 3084 
Q 2853 3084 3261 2657 
Q 3669 2231 3669 1497 
Q 3669 778 3244 343 
Q 2819 -91 2113 -91 
Q 1303 -91 875 529 
Q 447 1150 447 2328 
Q 447 3434 972 4092 
Q 1497 4750 2381 4750 
Q 2619 4750 2861 4703 
Q 3103 4656 3366 4563 
z
" transform="scale(0.015625)"/>
       </defs>
       <use xlink:href="#DejaVuSans-36"/>
       <use xlink:href="#DejaVuSans-30" x="63.623047"/>
       <use xlink:href="#DejaVuSans-30" x="127.246094"/>
       <use xlink:href="#DejaVuSans-30" x="190.869141"/>
      </g>
     </g>
    </g>
    <g id="ytick_3">
     <g id="line2d_29">
      <path d="M 45.267188 177.052219 
L 982.876106 177.052219 
" clip-path="url(#p8698ab5e16)" style="fill: none; stroke-dasharray: 2.96,1.28; stroke-dashoffset: 0; stroke: #b0b0b0; stroke-width: 0.8"/>
     </g>
     <g id="line2d_30">
      <g>
       <use xlink:href="#m628f6deb9b" x="45.267188" y="177.052219" style="stroke: #000000; stroke-width: 0.8"/>
      </g>
     </g>
     <g id="text_3">
      <!-- 6500 -->
      <g transform="translate(12.817188 180.851437)scale(0.1 -0.1)">
       <use xlink:href="#DejaVuSans-36"/>
       <use xlink:href="#DejaVuSans-35" x="63.623047"/>
       <use xlink:href="#DejaVuSans-30" x="127.246094"/>
       <use xlink:href="#DejaVuSans-30" x="190.869141"/>
      </g>
     </g>
    </g>
    <g id="ytick_4">
     <g id="line2d_31">
      <path d="M 45.267188 134.280596 
L 982.876106 134.280596 
" clip-path="url(#p8698ab5e16)" style="fill: none; stroke-dasharray: 2.96,1.28; stroke-dashoffset: 0; stroke: #b0b0b0; stroke-width: 0.8"/>
     </g>
     <g id="line2d_32">
      <g>
       <use xlink:href="#m628f6deb9b" x="45.267188" y="134.280596" style="stroke: #000000; stroke-width: 0.8"/>
      </g>
     </g>
     <g id="text_4">
      <!-- 7000 -->
      <g transform="translate(12.817188 138.079815)scale(0.1 -0.1)">
       <defs>
        <path id="DejaVuSans-37" d="M 525 4666 
L 3525 4666 
L 3525 4397 
L 1831 0 
L 1172 0 
L 2766 4134 
L 525 4134 
L 525 4666 
z
" transform="scale(0.015625)"/>
       </defs>
       <use xlink:href="#DejaVuSans-37"/>
       <use xlink:href="#DejaVuSans-30" x="63.623047"/>
       <use xlink:href="#DejaVuSans-30" x="127.246094"/>
       <use xlink:href="#DejaVuSans-30" x="190.869141"/>
      </g>
     </g>
    </g>
    <g id="ytick_5">
     <g id="line2d_33">
      <path d="M 45.267188 91.508973 
L 982.876106 91.508973 
" clip-path="url(#p8698ab5e16)" style="fill: none; stroke-dasharray: 2.96,1.28; stroke-dashoffset: 0; stroke: #b0b0b0; stroke-width: 0.8"/>
     </g>
     <g id="line2d_34">
      <g>
       <use xlink:href="#m628f6deb9b" x="45.267188" y="91.508973" style="stroke: #000000; stroke-width: 0.8"/>
      </g>
     </g>
     <g id="text_5">
      <!-- 7500 -->
      <g transform="translate(12.817188 95.308192)scale(0.1 -0.1)">
       <use xlink:href="#DejaVuSans-37"/>
       <use xlink:href="#DejaVuSans-35" x="63.623047"/>
       <use xlink:href="#DejaVuSans-30" x="127.246094"/>
       <use xlink:href="#DejaVuSans-30" x="190.869141"/>
      </g>
     </g>
    </g>
    <g id="ytick_6">
     <g id="line2d_35">
      <path d="M 45.267188 48.73735 
L 982.876106 48.73735 
" clip-path="url(#p8698ab5e16)" style="fill: none; stroke-dasharray: 2.96,1.28; stroke-dashoffset: 0; stroke: #b0b0b0; stroke-width: 0.8"/>
     </g>
     <g id="line2d_36">
      <g>
       <use xlink:href="#m628f6deb9b" x="45.267188" y="48.73735" style="stroke: #000000; stroke-width: 0.8"/>
      </g>
     </g>
     <g id="text_6">
      <!-- 8000 -->
      <g transform="translate(12.817188 52.536569)scale(0.1 -0.1)">
       <defs>
        <path id="DejaVuSans-38" d="M 2034 2216 
Q 1584 2216 1326 1975 
Q 1069 1734 1069 1313 
Q 1069 891 1326 650 
Q 1584 409 2034 409 
Q 2484 409 2743 651 
Q 3003 894 3003 1313 
Q 3003 1734 2745 1975 
Q 2488 2216 2034 2216 
z
M 1403 2484 
Q 997 2584 770 2862 
Q 544 3141 544 3541 
Q 544 4100 942 4425 
Q 1341 4750 2034 4750 
Q 2731 4750 3128 4425 
Q 3525 4100 3525 3541 
Q 3525 3141 3298 2862 
Q 3072 2584 2669 2484 
Q 3125 2378 3379 2068 
Q 3634 1759 3634 1313 
Q 3634 634 3220 271 
Q 2806 -91 2034 -91 
Q 1263 -91 848 271 
Q 434 634 434 1313 
Q 434 1759 690 2068 
Q 947 2378 1403 2484 
z
M 1172 3481 
Q 1172 3119 1398 2916 
Q 1625 2713 2034 2713 
Q 2441 2713 2670 2916 
Q 2900 3119 2900 3481 
Q 2900 3844 2670 4047 
Q 2441 4250 2034 4250 
Q 1625 4250 1398 4047 
Q 1172 3844 1172 3481 
z
" transform="scale(0.015625)"/>
       </defs>
       <use xlink:href="#DejaVuSans-38"/>
       <use xlink:href="#DejaVuSans-30" x="63.623047"/>
       <use xlink:href="#DejaVuSans-30" x="127.246094"/>
       <use xlink:href="#DejaVuSans-30" x="190.869141"/>
      </g>
     </g>
    </g>
   </g>
   <g id="line2d_37">
    <path d="M 87.885775 72.35584 
L 90.557786 78.647546 
L 93.229798 77.860548 
L 95.90181 95.05474 
L 98.573822 86.551742 
L 106.589857 84.224966 
L 109.261869 82.415726 
L 111.93388 77.93326 
L 114.605892 82.372954 
L 117.277904 77.775005 
L 125.293939 59.849418 
L 127.965951 86.727105 
L 130.637962 97.12061 
L 133.309974 94.460215 
L 135.981986 103.686054 
L 143.998021 120.935849 
L 146.670033 125.867418 
L 152.014056 125.666391 
L 154.686068 124.88367 
L 162.702103 115.769037 
L 165.374115 90.118895 
L 168.046127 96.556024 
L 170.718139 102.171938 
L 173.39015 96.671508 
L 181.406185 94.130873 
L 184.078197 98.236949 
L 186.750209 91.162523 
L 189.422221 93.690326 
L 192.094232 106.598801 
L 200.110268 126.658693 
L 202.782279 109.447392 
L 205.454291 118.976909 
L 210.798315 141.414902 
L 218.81435 150.238688 
L 221.486362 155.704902 
L 224.158373 153.083001 
L 226.830385 184.02827 
L 229.502397 171.042806 
L 237.518432 171.243832 
L 242.862455 185.662146 
L 245.534467 221.474826 
L 248.206479 215.521016 
L 256.222514 245.649347 
L 258.894526 234.071069 
L 261.566538 218.339666 
L 264.238549 215.328544 
L 266.910561 218.027433 
L 274.926596 216.752839 
L 277.598608 218.006048 
L 280.27062 193.656163 
L 282.942631 187.864885 
L 293.630678 203.463696 
L 296.30269 201.722891 
L 298.974702 199.806722 
L 301.646714 189.725451 
L 304.318725 193.074469 
L 312.334761 189.03255 
L 315.006772 174.776768 
L 317.678784 164.845198 
L 320.350796 168.301145 
L 323.022808 162.462818 
L 331.038843 156.188221 
L 333.710854 157.706614 
L 336.382866 156.851181 
L 339.054878 156.80841 
L 341.72689 148.224145 
L 349.742925 146.363579 
L 352.414937 153.480777 
L 355.086948 157.372995 
L 368.447007 165.110382 
L 371.119019 169.721163 
L 373.791031 150.777611 
L 376.463042 147.411484 
L 379.135054 156.171112 
L 387.151089 168.921333 
L 389.823101 163.348191 
L 392.495113 172.907648 
L 395.167124 167.047936 
L 397.839136 165.910211 
L 405.855171 161.739978 
L 411.199195 175.174544 
L 413.871207 189.396109 
L 416.543218 202.698084 
L 424.559254 200.610829 
L 427.231265 188.476519 
L 429.903277 190.722029 
L 432.575289 203.959847 
L 435.2473 203.010317 
L 443.263336 218.728888 
L 445.935347 210.606557 
L 448.607359 199.828108 
L 451.279371 213.613402 
L 453.951383 208.818703 
L 461.967418 226.983811 
L 464.63943 231.111273 
L 467.311441 237.599728 
L 469.983453 230.580905 
L 472.655465 224.27209 
L 480.6715 211.042827 
L 483.343512 212.757969 
L 486.015523 221.90682 
L 488.687535 219.152327 
L 491.359547 247.296055 
L 499.375582 255.636521 
L 502.047594 257.873477 
L 504.719606 259.870912 
L 507.391617 264.143797 
L 510.063629 261.650212 
L 518.079664 274.90086 
L 520.751676 268.703252 
L 523.423688 266.517622 
L 526.095699 279.255012 
L 528.767711 290.20027 
L 536.783746 276.855524 
L 539.455758 269.533022 
L 542.12777 270.298634 
L 544.799782 270.268694 
L 547.471793 265.307185 
L 555.487829 257.441484 
L 558.15984 256.372193 
L 560.831852 252.475698 
L 563.503864 253.416674 
L 566.175876 246.196824 
L 574.191911 244.712649 
L 576.863922 242.924795 
L 579.535934 234.533003 
L 582.207946 233.609136 
L 584.879958 233.58775 
L 592.895993 232.29177 
L 595.568005 238.74173 
L 598.240016 237.022311 
L 600.912028 242.488525 
L 603.58404 236.329411 
L 611.600075 221.329403 
L 614.272087 212.479954 
L 616.944099 212.210493 
L 619.61611 208.643339 
L 622.288122 180.585155 
L 630.304157 187.069333 
L 632.976169 185.636483 
L 635.648181 174.028265 
L 638.320192 179.511587 
L 640.992204 173.219881 
L 649.008239 163.566326 
L 651.680251 164.109526 
L 654.352263 168.266927 
L 657.024275 169.520136 
L 659.696286 153.510717 
L 667.712322 161.838352 
L 673.056345 168.870007 
L 675.728357 168.74597 
L 678.400368 171.979504 
L 689.088415 163.707472 
L 691.760427 167.655293 
L 694.432439 159.605674 
L 697.104451 164.430313 
L 705.120486 179.832374 
L 707.792498 177.445718 
L 710.464509 176.337933 
L 713.136521 179.186523 
L 715.808533 175.585152 
L 723.824568 176.513296 
L 726.49658 161.838352 
L 731.840603 165.717739 
L 734.512615 170.422617 
L 742.52865 175.174544 
L 745.200662 177.437163 
L 747.872674 153.887108 
L 750.544685 141.153996 
L 753.216697 152.787877 
L 761.232732 145.435435 
L 763.904744 143.15143 
L 766.576756 144.909344 
L 769.248768 152.2404 
L 771.920779 178.643323 
L 779.936814 180.48678 
L 782.608826 178.365307 
L 785.280838 192.984648 
L 787.95285 199.344789 
L 790.624861 207.852064 
L 798.640897 204.674133 
L 801.312908 203.326827 
L 803.98492 205.029137 
L 806.656932 204.776785 
L 809.328944 198.00176 
L 817.344979 199.075327 
L 820.016991 193.515016 
L 825.361014 195.251544 
L 828.033026 202.415791 
L 836.049061 207.000909 
L 838.721073 213.258397 
L 841.393084 204.622807 
L 844.065096 204.276357 
L 846.737108 203.399538 
L 854.753143 196.59885 
L 857.425155 190.161721 
L 860.097167 185.743412 
L 862.769178 193.964118 
L 865.44119 188.780198 
L 873.457225 186.068477 
L 876.129237 184.263514 
L 881.47326 182.458552 
L 884.145272 181.684385 
L 892.161307 158.664698 
L 894.833319 149.601391 
L 897.505331 153.108664 
L 900.177343 157.526973 
L 902.849354 143.429446 
L 910.86539 136.547492 
L 916.209413 142.535519 
L 918.881425 151.278039 
L 921.553437 150.260074 
L 929.569472 146.735692 
L 932.241483 137.313104 
L 934.913495 141.808401 
L 937.585507 145.242963 
L 940.257519 150.153145 
L 940.257519 150.153145 
" clip-path="url(#p8698ab5e16)" style="fill: none; stroke: #1f77b4; stroke-width: 1.5; stroke-linecap: square"/>
   </g>
   <g id="line2d_38">
    <path d="M 98.573822 82.094083 
L 109.261869 85.221544 
L 111.93388 85.236087 
L 114.605892 82.699729 
L 117.277904 80.944382 
L 125.293939 76.069272 
L 127.965951 76.931548 
L 130.637962 80.769018 
L 133.309974 83.18647 
L 135.981986 88.36868 
L 143.998021 100.585967 
L 146.670033 108.414029 
L 152.014056 114.123185 
L 154.686068 120.207876 
L 162.702103 122.624473 
L 165.374115 116.461082 
L 168.046127 110.598804 
L 170.718139 105.899913 
L 173.39015 100.257481 
L 181.406185 95.929848 
L 184.078197 97.553459 
L 186.750209 96.474758 
L 189.422221 94.778436 
L 192.094232 96.763894 
L 202.782279 105.511547 
L 205.454291 111.074424 
L 208.126303 118.406336 
L 210.798315 125.369556 
L 218.81435 130.085555 
L 221.486362 139.337057 
L 224.158373 146.158275 
L 226.830385 156.893953 
L 229.502397 162.819533 
L 237.518432 167.020562 
L 242.862455 173.012011 
L 245.534467 186.690376 
L 248.206479 192.988925 
L 256.222514 207.910234 
L 258.894526 220.475681 
L 261.566538 227.011185 
L 264.238549 225.781929 
L 266.910561 226.283212 
L 274.926596 220.50391 
L 277.598608 217.290906 
L 280.27062 212.354205 
L 282.942631 206.861474 
L 293.630678 203.948726 
L 296.30269 200.942736 
L 298.974702 197.302871 
L 301.646714 196.516729 
L 304.318725 197.558646 
L 312.334761 194.672416 
L 315.006772 189.283192 
L 317.678784 182.290887 
L 320.350796 178.006026 
L 323.022808 171.883696 
L 331.038843 165.31483 
L 333.710854 161.900799 
L 336.382866 160.301996 
L 339.054878 158.003449 
L 341.72689 155.155714 
L 349.742925 153.190786 
L 352.414937 152.345618 
L 355.086948 152.449981 
L 368.447007 154.110376 
L 371.119019 158.409779 
L 373.791031 159.292585 
L 376.463042 158.078727 
L 379.135054 157.83835 
L 387.151089 158.600541 
L 389.823101 157.325946 
L 392.495113 161.751954 
L 395.167124 165.679244 
L 397.839136 167.627064 
L 405.855171 166.190793 
L 411.199195 168.556064 
L 413.871207 171.853756 
L 416.543218 178.983785 
L 424.559254 185.923909 
L 427.231265 191.271217 
L 429.903277 194.380714 
L 432.575289 197.293461 
L 435.2473 197.355908 
L 443.263336 200.97952 
L 445.935347 205.405527 
L 451.279371 209.157454 
L 453.951383 210.319132 
L 461.967418 211.970116 
L 464.63943 216.071059 
L 467.311441 223.625383 
L 469.983453 227.018884 
L 472.655465 230.109561 
L 480.6715 226.921365 
L 483.343512 223.250704 
L 486.015523 220.112122 
L 488.687535 217.826407 
L 491.359547 222.4312 
L 499.375582 231.349939 
L 502.047594 240.37304 
L 504.719606 247.965859 
L 507.391617 256.964153 
L 510.063629 259.834984 
L 518.079664 263.687852 
L 520.751676 265.853807 
L 523.423688 267.183149 
L 526.095699 270.205392 
L 528.767711 275.915403 
L 539.455758 276.47229 
L 542.12777 277.228492 
L 544.799782 275.431229 
L 547.471793 270.452612 
L 555.487829 266.569804 
L 558.15984 263.937638 
L 560.831852 260.373051 
L 563.503864 257.002647 
L 566.175876 253.180575 
L 574.191911 250.634808 
L 576.863922 247.945328 
L 579.535934 244.356789 
L 582.207946 240.395281 
L 584.879958 237.873466 
L 595.568005 234.552678 
L 598.240016 235.050539 
L 600.912028 236.826417 
L 603.58404 237.374749 
L 611.600075 235.182276 
L 614.272087 229.929921 
L 616.944099 224.967557 
L 619.61611 218.19852 
L 622.288122 207.049669 
L 630.304157 200.197655 
L 632.976169 194.828961 
L 635.648181 187.192515 
L 638.320192 181.366165 
L 640.992204 179.89311 
L 649.008239 175.192509 
L 651.680251 170.887117 
L 654.352263 169.734849 
L 657.024275 167.736559 
L 659.696286 163.794726 
L 667.712322 163.449132 
L 673.056345 164.401228 
L 675.728357 164.497036 
L 689.088415 167.028261 
L 691.760427 168.191649 
L 694.432439 166.338783 
L 697.104451 165.475651 
L 705.120486 167.046225 
L 707.792498 169.793874 
L 710.464509 171.530402 
L 713.136521 175.446572 
L 715.808533 177.67754 
L 723.824568 177.013724 
L 726.49658 173.892251 
L 731.840603 171.768212 
L 734.512615 170.015431 
L 742.52865 169.93331 
L 745.200662 170.118083 
L 747.872674 168.527834 
L 750.544685 163.615086 
L 753.216697 160.088138 
L 761.232732 154.140316 
L 763.904744 147.283169 
L 766.576756 145.487616 
L 769.248768 147.704897 
L 771.920779 152.875987 
L 779.936814 159.886256 
L 782.608826 166.929031 
L 787.95285 185.964969 
L 790.624861 191.806718 
L 798.640897 196.644188 
L 801.312908 201.636492 
L 803.98492 204.04539 
L 806.656932 205.131789 
L 809.328944 203.161728 
L 817.344979 202.041967 
L 820.016991 200.079605 
L 825.361014 198.124086 
L 828.033026 197.651888 
L 836.049061 199.451718 
L 838.721073 202.288332 
L 841.393084 204.50989 
L 844.065096 206.314852 
L 846.737108 206.511602 
L 854.753143 204.43119 
L 857.425155 199.811855 
L 860.097167 196.035976 
L 862.769178 193.973528 
L 865.44119 191.04966 
L 873.457225 188.943585 
L 876.129237 187.763944 
L 881.47326 187.106972 
L 884.145272 184.651025 
L 892.161307 178.627925 
L 894.833319 171.334508 
L 897.505331 165.103538 
L 900.177343 160.117222 
L 902.849354 152.466234 
L 910.86539 148.042793 
L 916.209413 146.629619 
L 918.881425 146.263494 
L 921.553437 144.810114 
L 932.241483 145.624486 
L 934.913495 145.479062 
L 937.585507 144.272047 
L 940.257519 144.250661 
L 940.257519 144.250661 
" clip-path="url(#p8698ab5e16)" style="fill: none; stroke: #ff7f0e; stroke-width: 1.5; stroke-linecap: square"/>
   </g>
   <g id="patch_3">
    <path d="M 45.267188 301.717813 
L 45.267188 48.331875 
" style="fill: none; stroke: #000000; stroke-width: 0.8; stroke-linejoin: miter; stroke-linecap: square"/>
   </g>
   <g id="patch_4">
    <path d="M 982.876106 301.717813 
L 982.876106 48.331875 
" style="fill: none; stroke: #000000; stroke-width: 0.8; stroke-linejoin: miter; stroke-linecap: square"/>
   </g>
   <g id="patch_5">
    <path d="M 45.267188 301.717812 
L 982.876106 301.717812 
" style="fill: none; stroke: #000000; stroke-width: 0.8; stroke-linejoin: miter; stroke-linecap: square"/>
   </g>
   <g id="patch_6">
    <path d="M 45.267188 48.331875 
L 982.876106 48.331875 
" style="fill: none; stroke: #000000; stroke-width: 0.8; stroke-linejoin: miter; stroke-linecap: square"/>
   </g>
   <g id="text_7">
    <!-- Closing Price -->
    <g transform="translate(475.595709 42.331875)scale(0.12 -0.12)">
     <defs>
      <path id="DejaVuSans-43" d="M 4122 4306 
L 4122 3641 
Q 3803 3938 3442 4084 
Q 3081 4231 2675 4231 
Q 1875 4231 1450 3742 
Q 1025 3253 1025 2328 
Q 1025 1406 1450 917 
Q 1875 428 2675 428 
Q 3081 428 3442 575 
Q 3803 722 4122 1019 
L 4122 359 
Q 3791 134 3420 21 
Q 3050 -91 2638 -91 
Q 1578 -91 968 557 
Q 359 1206 359 2328 
Q 359 3453 968 4101 
Q 1578 4750 2638 4750 
Q 3056 4750 3426 4639 
Q 3797 4528 4122 4306 
z
" transform="scale(0.015625)"/>
      <path id="DejaVuSans-6c" d="M 603 4863 
L 1178 4863 
L 1178 0 
L 603 0 
L 603 4863 
z
" transform="scale(0.015625)"/>
      <path id="DejaVuSans-6f" d="M 1959 3097 
Q 1497 3097 1228 2736 
Q 959 2375 959 1747 
Q 959 1119 1226 758 
Q 1494 397 1959 397 
Q 2419 397 2687 759 
Q 2956 1122 2956 1747 
Q 2956 2369 2687 2733 
Q 2419 3097 1959 3097 
z
M 1959 3584 
Q 2709 3584 3137 3096 
Q 3566 2609 3566 1747 
Q 3566 888 3137 398 
Q 2709 -91 1959 -91 
Q 1206 -91 779 398 
Q 353 888 353 1747 
Q 353 2609 779 3096 
Q 1206 3584 1959 3584 
z
" transform="scale(0.015625)"/>
      <path id="DejaVuSans-73" d="M 2834 3397 
L 2834 2853 
Q 2591 2978 2328 3040 
Q 2066 3103 1784 3103 
Q 1356 3103 1142 2972 
Q 928 2841 928 2578 
Q 928 2378 1081 2264 
Q 1234 2150 1697 2047 
L 1894 2003 
Q 2506 1872 2764 1633 
Q 3022 1394 3022 966 
Q 3022 478 2636 193 
Q 2250 -91 1575 -91 
Q 1294 -91 989 -36 
Q 684 19 347 128 
L 347 722 
Q 666 556 975 473 
Q 1284 391 1588 391 
Q 1994 391 2212 530 
Q 2431 669 2431 922 
Q 2431 1156 2273 1281 
Q 2116 1406 1581 1522 
L 1381 1569 
Q 847 1681 609 1914 
Q 372 2147 372 2553 
Q 372 3047 722 3315 
Q 1072 3584 1716 3584 
Q 2034 3584 2315 3537 
Q 2597 3491 2834 3397 
z
" transform="scale(0.015625)"/>
      <path id="DejaVuSans-69" d="M 603 3500 
L 1178 3500 
L 1178 0 
L 603 0 
L 603 3500 
z
M 603 4863 
L 1178 4863 
L 1178 4134 
L 603 4134 
L 603 4863 
z
" transform="scale(0.015625)"/>
      <path id="DejaVuSans-6e" d="M 3513 2113 
L 3513 0 
L 2938 0 
L 2938 2094 
Q 2938 2591 2744 2837 
Q 2550 3084 2163 3084 
Q 1697 3084 1428 2787 
Q 1159 2491 1159 1978 
L 1159 0 
L 581 0 
L 581 3500 
L 1159 3500 
L 1159 2956 
Q 1366 3272 1645 3428 
Q 1925 3584 2291 3584 
Q 2894 3584 3203 3211 
Q 3513 2838 3513 2113 
z
" transform="scale(0.015625)"/>
      <path id="DejaVuSans-67" d="M 2906 1791 
Q 2906 2416 2648 2759 
Q 2391 3103 1925 3103 
Q 1463 3103 1205 2759 
Q 947 2416 947 1791 
Q 947 1169 1205 825 
Q 1463 481 1925 481 
Q 2391 481 2648 825 
Q 2906 1169 2906 1791 
z
M 3481 434 
Q 3481 -459 3084 -895 
Q 2688 -1331 1869 -1331 
Q 1566 -1331 1297 -1286 
Q 1028 -1241 775 -1147 
L 775 -588 
Q 1028 -725 1275 -790 
Q 1522 -856 1778 -856 
Q 2344 -856 2625 -561 
Q 2906 -266 2906 331 
L 2906 616 
Q 2728 306 2450 153 
Q 2172 0 1784 0 
Q 1141 0 747 490 
Q 353 981 353 1791 
Q 353 2603 747 3093 
Q 1141 3584 1784 3584 
Q 2172 3584 2450 3431 
Q 2728 3278 2906 2969 
L 2906 3500 
L 3481 3500 
L 3481 434 
z
" transform="scale(0.015625)"/>
      <path id="DejaVuSans-20" transform="scale(0.015625)"/>
      <path id="DejaVuSans-50" d="M 1259 4147 
L 1259 2394 
L 2053 2394 
Q 2494 2394 2734 2622 
Q 2975 2850 2975 3272 
Q 2975 3691 2734 3919 
Q 2494 4147 2053 4147 
L 1259 4147 
z
M 628 4666 
L 2053 4666 
Q 2838 4666 3239 4311 
Q 3641 3956 3641 3272 
Q 3641 2581 3239 2228 
Q 2838 1875 2053 1875 
L 1259 1875 
L 1259 0 
L 628 0 
L 628 4666 
z
" transform="scale(0.015625)"/>
      <path id="DejaVuSans-72" d="M 2631 2963 
Q 2534 3019 2420 3045 
Q 2306 3072 2169 3072 
Q 1681 3072 1420 2755 
Q 1159 2438 1159 1844 
L 1159 0 
L 581 0 
L 581 3500 
L 1159 3500 
L 1159 2956 
Q 1341 3275 1631 3429 
Q 1922 3584 2338 3584 
Q 2397 3584 2469 3576 
Q 2541 3569 2628 3553 
L 2631 2963 
z
" transform="scale(0.015625)"/>
      <path id="DejaVuSans-63" d="M 3122 3366 
L 3122 2828 
Q 2878 2963 2633 3030 
Q 2388 3097 2138 3097 
Q 1578 3097 1268 2742 
Q 959 2388 959 1747 
Q 959 1106 1268 751 
Q 1578 397 2138 397 
Q 2388 397 2633 464 
Q 2878 531 3122 666 
L 3122 134 
Q 2881 22 2623 -34 
Q 2366 -91 2075 -91 
Q 1284 -91 818 406 
Q 353 903 353 1747 
Q 353 2603 823 3093 
Q 1294 3584 2113 3584 
Q 2378 3584 2631 3529 
Q 2884 3475 3122 3366 
z
" transform="scale(0.015625)"/>
      <path id="DejaVuSans-65" d="M 3597 1894 
L 3597 1613 
L 953 1613 
Q 991 1019 1311 708 
Q 1631 397 2203 397 
Q 2534 397 2845 478 
Q 3156 559 3463 722 
L 3463 178 
Q 3153 47 2828 -22 
Q 2503 -91 2169 -91 
Q 1331 -91 842 396 
Q 353 884 353 1716 
Q 353 2575 817 3079 
Q 1281 3584 2069 3584 
Q 2775 3584 3186 3129 
Q 3597 2675 3597 1894 
z
M 3022 2063 
Q 3016 2534 2758 2815 
Q 2500 3097 2075 3097 
Q 1594 3097 1305 2825 
Q 1016 2553 972 2059 
L 3022 2063 
z
" transform="scale(0.015625)"/>
     </defs>
     <use xlink:href="#DejaVuSans-43"/>
     <use xlink:href="#DejaVuSans-6c" x="69.824219"/>
     <use xlink:href="#DejaVuSans-6f" x="97.607422"/>
     <use xlink:href="#DejaVuSans-73" x="158.789062"/>
     <use xlink:href="#DejaVuSans-69" x="210.888672"/>
     <use xlink:href="#DejaVuSans-6e" x="238.671875"/>
     <use xlink:href="#DejaVuSans-67" x="302.050781"/>
     <use xlink:href="#DejaVuSans-20" x="365.527344"/>
     <use xlink:href="#DejaVuSans-50" x="397.314453"/>
     <use xlink:href="#DejaVuSans-72" x="455.867188"/>
     <use xlink:href="#DejaVuSans-69" x="496.980469"/>
     <use xlink:href="#DejaVuSans-63" x="524.763672"/>
     <use xlink:href="#DejaVuSans-65" x="579.744141"/>
    </g>
   </g>
   <g id="legend_1">
    <g id="patch_7">
     <path d="M 911.144856 85.688125 
L 975.876106 85.688125 
Q 977.876106 85.688125 977.876106 83.688125 
L 977.876106 55.331875 
Q 977.876106 53.331875 975.876106 53.331875 
L 911.144856 53.331875 
Q 909.144856 53.331875 909.144856 55.331875 
L 909.144856 83.688125 
Q 909.144856 85.688125 911.144856 85.688125 
z
" style="fill: #ffffff; opacity: 0.8; stroke: #cccccc; stroke-linejoin: miter"/>
    </g>
    <g id="line2d_39">
     <path d="M 913.144856 61.430312 
L 923.144856 61.430312 
L 933.144856 61.430312 
" style="fill: none; stroke: #1f77b4; stroke-width: 1.5; stroke-linecap: square"/>
    </g>
    <g id="text_8">
     <!-- CLOSE -->
     <g transform="translate(941.144856 64.930312)scale(0.1 -0.1)">
      <defs>
       <path id="DejaVuSans-4c" d="M 628 4666 
L 1259 4666 
L 1259 531 
L 3531 531 
L 3531 0 
L 628 0 
L 628 4666 
z
" transform="scale(0.015625)"/>
       <path id="DejaVuSans-4f" d="M 2522 4238 
Q 1834 4238 1429 3725 
Q 1025 3213 1025 2328 
Q 1025 1447 1429 934 
Q 1834 422 2522 422 
Q 3209 422 3611 934 
Q 4013 1447 4013 2328 
Q 4013 3213 3611 3725 
Q 3209 4238 2522 4238 
z
M 2522 4750 
Q 3503 4750 4090 4092 
Q 4678 3434 4678 2328 
Q 4678 1225 4090 567 
Q 3503 -91 2522 -91 
Q 1538 -91 948 565 
Q 359 1222 359 2328 
Q 359 3434 948 4092 
Q 1538 4750 2522 4750 
z
" transform="scale(0.015625)"/>
       <path id="DejaVuSans-53" d="M 3425 4513 
L 3425 3897 
Q 3066 4069 2747 4153 
Q 2428 4238 2131 4238 
Q 1616 4238 1336 4038 
Q 1056 3838 1056 3469 
Q 1056 3159 1242 3001 
Q 1428 2844 1947 2747 
L 2328 2669 
Q 3034 2534 3370 2195 
Q 3706 1856 3706 1288 
Q 3706 609 3251 259 
Q 2797 -91 1919 -91 
Q 1588 -91 1214 -16 
Q 841 59 441 206 
L 441 856 
Q 825 641 1194 531 
Q 1563 422 1919 422 
Q 2459 422 2753 634 
Q 3047 847 3047 1241 
Q 3047 1584 2836 1778 
Q 2625 1972 2144 2069 
L 1759 2144 
Q 1053 2284 737 2584 
Q 422 2884 422 3419 
Q 422 4038 858 4394 
Q 1294 4750 2059 4750 
Q 2388 4750 2728 4690 
Q 3069 4631 3425 4513 
z
" transform="scale(0.015625)"/>
       <path id="DejaVuSans-45" d="M 628 4666 
L 3578 4666 
L 3578 4134 
L 1259 4134 
L 1259 2753 
L 3481 2753 
L 3481 2222 
L 1259 2222 
L 1259 531 
L 3634 531 
L 3634 0 
L 628 0 
L 628 4666 
z
" transform="scale(0.015625)"/>
      </defs>
      <use xlink:href="#DejaVuSans-43"/>
      <use xlink:href="#DejaVuSans-4c" x="69.824219"/>
      <use xlink:href="#DejaVuSans-4f" x="121.912109"/>
      <use xlink:href="#DejaVuSans-53" x="200.623047"/>
      <use xlink:href="#DejaVuSans-45" x="264.099609"/>
     </g>
    </g>
    <g id="line2d_40">
     <path d="M 913.144856 76.108437 
L 923.144856 76.108437 
L 933.144856 76.108437 
" style="fill: none; stroke: #ff7f0e; stroke-width: 1.5; stroke-linecap: square"/>
    </g>
    <g id="text_9">
     <!-- SMA5 -->
     <g transform="translate(941.144856 79.608437)scale(0.1 -0.1)">
      <defs>
       <path id="DejaVuSans-4d" d="M 628 4666 
L 1569 4666 
L 2759 1491 
L 3956 4666 
L 4897 4666 
L 4897 0 
L 4281 0 
L 4281 4097 
L 3078 897 
L 2444 897 
L 1241 4097 
L 1241 0 
L 628 0 
L 628 4666 
z
" transform="scale(0.015625)"/>
       <path id="DejaVuSans-41" d="M 2188 4044 
L 1331 1722 
L 3047 1722 
L 2188 4044 
z
M 1831 4666 
L 2547 4666 
L 4325 0 
L 3669 0 
L 3244 1197 
L 1141 1197 
L 716 0 
L 50 0 
L 1831 4666 
z
" transform="scale(0.015625)"/>
      </defs>
      <use xlink:href="#DejaVuSans-53"/>
      <use xlink:href="#DejaVuSans-4d" x="63.476562"/>
      <use xlink:href="#DejaVuSans-41" x="149.755859"/>
      <use xlink:href="#DejaVuSans-35" x="218.164062"/>
     </g>
    </g>
   </g>
  </g>
  <g id="axes_2">
   <g id="patch_8">
    <path d="M 45.267188 584.521875 
L 982.876106 584.521875 
L 982.876106 331.135938 
L 45.267188 331.135938 
z
" style="fill: #ffffff"/>
   </g>
   <g id="matplotlib.axis_3">
    <g id="xtick_13">
     <g id="line2d_41">
      <path d="M 82.541751 584.521875 
L 82.541751 331.135938 
" clip-path="url(#p249a780354)" style="fill: none; stroke-dasharray: 2.96,1.28; stroke-dashoffset: 0; stroke: #b0b0b0; stroke-width: 0.8"/>
     </g>
     <g id="line2d_42">
      <g>
       <use xlink:href="#mfa4522238b" x="82.541751" y="584.521875" style="stroke: #000000; stroke-width: 0.8"/>
      </g>
     </g>
     <g id="text_10">
      <!-- 2022-01 -->
      <g transform="translate(61.650345 599.120312)scale(0.1 -0.1)">
       <defs>
        <path id="DejaVuSans-32" d="M 1228 531 
L 3431 531 
L 3431 0 
L 469 0 
L 469 531 
Q 828 903 1448 1529 
Q 2069 2156 2228 2338 
Q 2531 2678 2651 2914 
Q 2772 3150 2772 3378 
Q 2772 3750 2511 3984 
Q 2250 4219 1831 4219 
Q 1534 4219 1204 4116 
Q 875 4013 500 3803 
L 500 4441 
Q 881 4594 1212 4672 
Q 1544 4750 1819 4750 
Q 2544 4750 2975 4387 
Q 3406 4025 3406 3419 
Q 3406 3131 3298 2873 
Q 3191 2616 2906 2266 
Q 2828 2175 2409 1742 
Q 1991 1309 1228 531 
z
" transform="scale(0.015625)"/>
        <path id="DejaVuSans-2d" d="M 313 2009 
L 1997 2009 
L 1997 1497 
L 313 1497 
L 313 2009 
z
" transform="scale(0.015625)"/>
        <path id="DejaVuSans-31" d="M 794 531 
L 1825 531 
L 1825 4091 
L 703 3866 
L 703 4441 
L 1819 4666 
L 2450 4666 
L 2450 531 
L 3481 531 
L 3481 0 
L 794 0 
L 794 531 
z
" transform="scale(0.015625)"/>
       </defs>
       <use xlink:href="#DejaVuSans-32"/>
       <use xlink:href="#DejaVuSans-30" x="63.623047"/>
       <use xlink:href="#DejaVuSans-32" x="127.246094"/>
       <use xlink:href="#DejaVuSans-32" x="190.869141"/>
       <use xlink:href="#DejaVuSans-2d" x="254.492188"/>
       <use xlink:href="#DejaVuSans-30" x="290.576172"/>
       <use xlink:href="#DejaVuSans-31" x="354.199219"/>
      </g>
     </g>
    </g>
    <g id="xtick_14">
     <g id="line2d_43">
      <path d="M 165.374115 584.521875 
L 165.374115 331.135938 
" clip-path="url(#p249a780354)" style="fill: none; stroke-dasharray: 2.96,1.28; stroke-dashoffset: 0; stroke: #b0b0b0; stroke-width: 0.8"/>
     </g>
     <g id="line2d_44">
      <g>
       <use xlink:href="#mfa4522238b" x="165.374115" y="584.521875" style="stroke: #000000; stroke-width: 0.8"/>
      </g>
     </g>
     <g id="text_11">
      <!-- 2022-02 -->
      <g transform="translate(144.482709 599.120312)scale(0.1 -0.1)">
       <use xlink:href="#DejaVuSans-32"/>
       <use xlink:href="#DejaVuSans-30" x="63.623047"/>
       <use xlink:href="#DejaVuSans-32" x="127.246094"/>
       <use xlink:href="#DejaVuSans-32" x="190.869141"/>
       <use xlink:href="#DejaVuSans-2d" x="254.492188"/>
       <use xlink:href="#DejaVuSans-30" x="290.576172"/>
       <use xlink:href="#DejaVuSans-32" x="354.199219"/>
      </g>
     </g>
    </g>
    <g id="xtick_15">
     <g id="line2d_45">
      <path d="M 240.190444 584.521875 
L 240.190444 331.135938 
" clip-path="url(#p249a780354)" style="fill: none; stroke-dasharray: 2.96,1.28; stroke-dashoffset: 0; stroke: #b0b0b0; stroke-width: 0.8"/>
     </g>
     <g id="line2d_46">
      <g>
       <use xlink:href="#mfa4522238b" x="240.190444" y="584.521875" style="stroke: #000000; stroke-width: 0.8"/>
      </g>
     </g>
     <g id="text_12">
      <!-- 2022-03 -->
      <g transform="translate(219.299037 599.120312)scale(0.1 -0.1)">
       <defs>
        <path id="DejaVuSans-33" d="M 2597 2516 
Q 3050 2419 3304 2112 
Q 3559 1806 3559 1356 
Q 3559 666 3084 287 
Q 2609 -91 1734 -91 
Q 1441 -91 1130 -33 
Q 819 25 488 141 
L 488 750 
Q 750 597 1062 519 
Q 1375 441 1716 441 
Q 2309 441 2620 675 
Q 2931 909 2931 1356 
Q 2931 1769 2642 2001 
Q 2353 2234 1838 2234 
L 1294 2234 
L 1294 2753 
L 1863 2753 
Q 2328 2753 2575 2939 
Q 2822 3125 2822 3475 
Q 2822 3834 2567 4026 
Q 2313 4219 1838 4219 
Q 1578 4219 1281 4162 
Q 984 4106 628 3988 
L 628 4550 
Q 988 4650 1302 4700 
Q 1616 4750 1894 4750 
Q 2613 4750 3031 4423 
Q 3450 4097 3450 3541 
Q 3450 3153 3228 2886 
Q 3006 2619 2597 2516 
z
" transform="scale(0.015625)"/>
       </defs>
       <use xlink:href="#DejaVuSans-32"/>
       <use xlink:href="#DejaVuSans-30" x="63.623047"/>
       <use xlink:href="#DejaVuSans-32" x="127.246094"/>
       <use xlink:href="#DejaVuSans-32" x="190.869141"/>
       <use xlink:href="#DejaVuSans-2d" x="254.492188"/>
       <use xlink:href="#DejaVuSans-30" x="290.576172"/>
       <use xlink:href="#DejaVuSans-33" x="354.199219"/>
      </g>
     </g>
    </g>
    <g id="xtick_16">
     <g id="line2d_47">
      <path d="M 323.022808 584.521875 
L 323.022808 331.135938 
" clip-path="url(#p249a780354)" style="fill: none; stroke-dasharray: 2.96,1.28; stroke-dashoffset: 0; stroke: #b0b0b0; stroke-width: 0.8"/>
     </g>
     <g id="line2d_48">
      <g>
       <use xlink:href="#mfa4522238b" x="323.022808" y="584.521875" style="stroke: #000000; stroke-width: 0.8"/>
      </g>
     </g>
     <g id="text_13">
      <!-- 2022-04 -->
      <g transform="translate(302.131401 599.120312)scale(0.1 -0.1)">
       <defs>
        <path id="DejaVuSans-34" d="M 2419 4116 
L 825 1625 
L 2419 1625 
L 2419 4116 
z
M 2253 4666 
L 3047 4666 
L 3047 1625 
L 3713 1625 
L 3713 1100 
L 3047 1100 
L 3047 0 
L 2419 0 
L 2419 1100 
L 313 1100 
L 313 1709 
L 2253 4666 
z
" transform="scale(0.015625)"/>
       </defs>
       <use xlink:href="#DejaVuSans-32"/>
       <use xlink:href="#DejaVuSans-30" x="63.623047"/>
       <use xlink:href="#DejaVuSans-32" x="127.246094"/>
       <use xlink:href="#DejaVuSans-32" x="190.869141"/>
       <use xlink:href="#DejaVuSans-2d" x="254.492188"/>
       <use xlink:href="#DejaVuSans-30" x="290.576172"/>
       <use xlink:href="#DejaVuSans-34" x="354.199219"/>
      </g>
     </g>
    </g>
    <g id="xtick_17">
     <g id="line2d_49">
      <path d="M 403.18316 584.521875 
L 403.18316 331.135938 
" clip-path="url(#p249a780354)" style="fill: none; stroke-dasharray: 2.96,1.28; stroke-dashoffset: 0; stroke: #b0b0b0; stroke-width: 0.8"/>
     </g>
     <g id="line2d_50">
      <g>
       <use xlink:href="#mfa4522238b" x="403.18316" y="584.521875" style="stroke: #000000; stroke-width: 0.8"/>
      </g>
     </g>
     <g id="text_14">
      <!-- 2022-05 -->
      <g transform="translate(382.291753 599.120312)scale(0.1 -0.1)">
       <use xlink:href="#DejaVuSans-32"/>
       <use xlink:href="#DejaVuSans-30" x="63.623047"/>
       <use xlink:href="#DejaVuSans-32" x="127.246094"/>
       <use xlink:href="#DejaVuSans-32" x="190.869141"/>
       <use xlink:href="#DejaVuSans-2d" x="254.492188"/>
       <use xlink:href="#DejaVuSans-30" x="290.576172"/>
       <use xlink:href="#DejaVuSans-35" x="354.199219"/>
      </g>
     </g>
    </g>
    <g id="xtick_18">
     <g id="line2d_51">
      <path d="M 486.015523 584.521875 
L 486.015523 331.135938 
" clip-path="url(#p249a780354)" style="fill: none; stroke-dasharray: 2.96,1.28; stroke-dashoffset: 0; stroke: #b0b0b0; stroke-width: 0.8"/>
     </g>
     <g id="line2d_52">
      <g>
       <use xlink:href="#mfa4522238b" x="486.015523" y="584.521875" style="stroke: #000000; stroke-width: 0.8"/>
      </g>
     </g>
     <g id="text_15">
      <!-- 2022-06 -->
      <g transform="translate(465.124117 599.120312)scale(0.1 -0.1)">
       <use xlink:href="#DejaVuSans-32"/>
       <use xlink:href="#DejaVuSans-30" x="63.623047"/>
       <use xlink:href="#DejaVuSans-32" x="127.246094"/>
       <use xlink:href="#DejaVuSans-32" x="190.869141"/>
       <use xlink:href="#DejaVuSans-2d" x="254.492188"/>
       <use xlink:href="#DejaVuSans-30" x="290.576172"/>
       <use xlink:href="#DejaVuSans-36" x="354.199219"/>
      </g>
     </g>
    </g>
    <g id="xtick_19">
     <g id="line2d_53">
      <path d="M 566.175876 584.521875 
L 566.175876 331.135938 
" clip-path="url(#p249a780354)" style="fill: none; stroke-dasharray: 2.96,1.28; stroke-dashoffset: 0; stroke: #b0b0b0; stroke-width: 0.8"/>
     </g>
     <g id="line2d_54">
      <g>
       <use xlink:href="#mfa4522238b" x="566.175876" y="584.521875" style="stroke: #000000; stroke-width: 0.8"/>
      </g>
     </g>
     <g id="text_16">
      <!-- 2022-07 -->
      <g transform="translate(545.284469 599.120312)scale(0.1 -0.1)">
       <use xlink:href="#DejaVuSans-32"/>
       <use xlink:href="#DejaVuSans-30" x="63.623047"/>
       <use xlink:href="#DejaVuSans-32" x="127.246094"/>
       <use xlink:href="#DejaVuSans-32" x="190.869141"/>
       <use xlink:href="#DejaVuSans-2d" x="254.492188"/>
       <use xlink:href="#DejaVuSans-30" x="290.576172"/>
       <use xlink:href="#DejaVuSans-37" x="354.199219"/>
      </g>
     </g>
    </g>
    <g id="xtick_20">
     <g id="line2d_55">
      <path d="M 649.008239 584.521875 
L 649.008239 331.135938 
" clip-path="url(#p249a780354)" style="fill: none; stroke-dasharray: 2.96,1.28; stroke-dashoffset: 0; stroke: #b0b0b0; stroke-width: 0.8"/>
     </g>
     <g id="line2d_56">
      <g>
       <use xlink:href="#mfa4522238b" x="649.008239" y="584.521875" style="stroke: #000000; stroke-width: 0.8"/>
      </g>
     </g>
     <g id="text_17">
      <!-- 2022-08 -->
      <g transform="translate(628.116833 599.120312)scale(0.1 -0.1)">
       <use xlink:href="#DejaVuSans-32"/>
       <use xlink:href="#DejaVuSans-30" x="63.623047"/>
       <use xlink:href="#DejaVuSans-32" x="127.246094"/>
       <use xlink:href="#DejaVuSans-32" x="190.869141"/>
       <use xlink:href="#DejaVuSans-2d" x="254.492188"/>
       <use xlink:href="#DejaVuSans-30" x="290.576172"/>
       <use xlink:href="#DejaVuSans-38" x="354.199219"/>
      </g>
     </g>
    </g>
    <g id="xtick_21">
     <g id="line2d_57">
      <path d="M 731.840603 584.521875 
L 731.840603 331.135938 
" clip-path="url(#p249a780354)" style="fill: none; stroke-dasharray: 2.96,1.28; stroke-dashoffset: 0; stroke: #b0b0b0; stroke-width: 0.8"/>
     </g>
     <g id="line2d_58">
      <g>
       <use xlink:href="#mfa4522238b" x="731.840603" y="584.521875" style="stroke: #000000; stroke-width: 0.8"/>
      </g>
     </g>
     <g id="text_18">
      <!-- 2022-09 -->
      <g transform="translate(710.949197 599.120312)scale(0.1 -0.1)">
       <defs>
        <path id="DejaVuSans-39" d="M 703 97 
L 703 672 
Q 941 559 1184 500 
Q 1428 441 1663 441 
Q 2288 441 2617 861 
Q 2947 1281 2994 2138 
Q 2813 1869 2534 1725 
Q 2256 1581 1919 1581 
Q 1219 1581 811 2004 
Q 403 2428 403 3163 
Q 403 3881 828 4315 
Q 1253 4750 1959 4750 
Q 2769 4750 3195 4129 
Q 3622 3509 3622 2328 
Q 3622 1225 3098 567 
Q 2575 -91 1691 -91 
Q 1453 -91 1209 -44 
Q 966 3 703 97 
z
M 1959 2075 
Q 2384 2075 2632 2365 
Q 2881 2656 2881 3163 
Q 2881 3666 2632 3958 
Q 2384 4250 1959 4250 
Q 1534 4250 1286 3958 
Q 1038 3666 1038 3163 
Q 1038 2656 1286 2365 
Q 1534 2075 1959 2075 
z
" transform="scale(0.015625)"/>
       </defs>
       <use xlink:href="#DejaVuSans-32"/>
       <use xlink:href="#DejaVuSans-30" x="63.623047"/>
       <use xlink:href="#DejaVuSans-32" x="127.246094"/>
       <use xlink:href="#DejaVuSans-32" x="190.869141"/>
       <use xlink:href="#DejaVuSans-2d" x="254.492188"/>
       <use xlink:href="#DejaVuSans-30" x="290.576172"/>
       <use xlink:href="#DejaVuSans-39" x="354.199219"/>
      </g>
     </g>
    </g>
    <g id="xtick_22">
     <g id="line2d_59">
      <path d="M 812.000955 584.521875 
L 812.000955 331.135938 
" clip-path="url(#p249a780354)" style="fill: none; stroke-dasharray: 2.96,1.28; stroke-dashoffset: 0; stroke: #b0b0b0; stroke-width: 0.8"/>
     </g>
     <g id="line2d_60">
      <g>
       <use xlink:href="#mfa4522238b" x="812.000955" y="584.521875" style="stroke: #000000; stroke-width: 0.8"/>
      </g>
     </g>
     <g id="text_19">
      <!-- 2022-10 -->
      <g transform="translate(791.109549 599.120312)scale(0.1 -0.1)">
       <use xlink:href="#DejaVuSans-32"/>
       <use xlink:href="#DejaVuSans-30" x="63.623047"/>
       <use xlink:href="#DejaVuSans-32" x="127.246094"/>
       <use xlink:href="#DejaVuSans-32" x="190.869141"/>
       <use xlink:href="#DejaVuSans-2d" x="254.492188"/>
       <use xlink:href="#DejaVuSans-31" x="290.576172"/>
       <use xlink:href="#DejaVuSans-30" x="354.199219"/>
      </g>
     </g>
    </g>
    <g id="xtick_23">
     <g id="line2d_61">
      <path d="M 894.833319 584.521875 
L 894.833319 331.135938 
" clip-path="url(#p249a780354)" style="fill: none; stroke-dasharray: 2.96,1.28; stroke-dashoffset: 0; stroke: #b0b0b0; stroke-width: 0.8"/>
     </g>
     <g id="line2d_62">
      <g>
       <use xlink:href="#mfa4522238b" x="894.833319" y="584.521875" style="stroke: #000000; stroke-width: 0.8"/>
      </g>
     </g>
     <g id="text_20">
      <!-- 2022-11 -->
      <g transform="translate(873.941913 599.120312)scale(0.1 -0.1)">
       <use xlink:href="#DejaVuSans-32"/>
       <use xlink:href="#DejaVuSans-30" x="63.623047"/>
       <use xlink:href="#DejaVuSans-32" x="127.246094"/>
       <use xlink:href="#DejaVuSans-32" x="190.869141"/>
       <use xlink:href="#DejaVuSans-2d" x="254.492188"/>
       <use xlink:href="#DejaVuSans-31" x="290.576172"/>
       <use xlink:href="#DejaVuSans-31" x="354.199219"/>
      </g>
     </g>
    </g>
    <g id="xtick_24">
     <g id="line2d_63">
      <path d="M 974.993671 584.521875 
L 974.993671 331.135938 
" clip-path="url(#p249a780354)" style="fill: none; stroke-dasharray: 2.96,1.28; stroke-dashoffset: 0; stroke: #b0b0b0; stroke-width: 0.8"/>
     </g>
     <g id="line2d_64">
      <g>
       <use xlink:href="#mfa4522238b" x="974.993671" y="584.521875" style="stroke: #000000; stroke-width: 0.8"/>
      </g>
     </g>
     <g id="text_21">
      <!-- 2022-12 -->
      <g transform="translate(954.102265 599.120312)scale(0.1 -0.1)">
       <use xlink:href="#DejaVuSans-32"/>
       <use xlink:href="#DejaVuSans-30" x="63.623047"/>
       <use xlink:href="#DejaVuSans-32" x="127.246094"/>
       <use xlink:href="#DejaVuSans-32" x="190.869141"/>
       <use xlink:href="#DejaVuSans-2d" x="254.492188"/>
       <use xlink:href="#DejaVuSans-31" x="290.576172"/>
       <use xlink:href="#DejaVuSans-32" x="354.199219"/>
      </g>
     </g>
    </g>
   </g>
   <g id="matplotlib.axis_4">
    <g id="ytick_7">
     <g id="line2d_65">
      <path d="M 45.267188 551.102149 
L 982.876106 551.102149 
" clip-path="url(#p249a780354)" style="fill: none; stroke-dasharray: 2.96,1.28; stroke-dashoffset: 0; stroke: #b0b0b0; stroke-width: 0.8"/>
     </g>
     <g id="line2d_66">
      <g>
       <use xlink:href="#m628f6deb9b" x="45.267188" y="551.102149" style="stroke: #000000; stroke-width: 0.8"/>
      </g>
     </g>
     <g id="text_22">
      <!-- −300 -->
      <g transform="translate(10.8 554.901368)scale(0.1 -0.1)">
       <defs>
        <path id="DejaVuSans-2212" d="M 678 2272 
L 4684 2272 
L 4684 1741 
L 678 1741 
L 678 2272 
z
" transform="scale(0.015625)"/>
       </defs>
       <use xlink:href="#DejaVuSans-2212"/>
       <use xlink:href="#DejaVuSans-33" x="83.789062"/>
       <use xlink:href="#DejaVuSans-30" x="147.412109"/>
       <use xlink:href="#DejaVuSans-30" x="211.035156"/>
      </g>
     </g>
    </g>
    <g id="ytick_8">
     <g id="line2d_67">
      <path d="M 45.267188 512.719054 
L 982.876106 512.719054 
" clip-path="url(#p249a780354)" style="fill: none; stroke-dasharray: 2.96,1.28; stroke-dashoffset: 0; stroke: #b0b0b0; stroke-width: 0.8"/>
     </g>
     <g id="line2d_68">
      <g>
       <use xlink:href="#m628f6deb9b" x="45.267188" y="512.719054" style="stroke: #000000; stroke-width: 0.8"/>
      </g>
     </g>
     <g id="text_23">
      <!-- −200 -->
      <g transform="translate(10.8 516.518273)scale(0.1 -0.1)">
       <use xlink:href="#DejaVuSans-2212"/>
       <use xlink:href="#DejaVuSans-32" x="83.789062"/>
       <use xlink:href="#DejaVuSans-30" x="147.412109"/>
       <use xlink:href="#DejaVuSans-30" x="211.035156"/>
      </g>
     </g>
    </g>
    <g id="ytick_9">
     <g id="line2d_69">
      <path d="M 45.267188 474.335958 
L 982.876106 474.335958 
" clip-path="url(#p249a780354)" style="fill: none; stroke-dasharray: 2.96,1.28; stroke-dashoffset: 0; stroke: #b0b0b0; stroke-width: 0.8"/>
     </g>
     <g id="line2d_70">
      <g>
       <use xlink:href="#m628f6deb9b" x="45.267188" y="474.335958" style="stroke: #000000; stroke-width: 0.8"/>
      </g>
     </g>
     <g id="text_24">
      <!-- −100 -->
      <g transform="translate(10.8 478.135177)scale(0.1 -0.1)">
       <use xlink:href="#DejaVuSans-2212"/>
       <use xlink:href="#DejaVuSans-31" x="83.789062"/>
       <use xlink:href="#DejaVuSans-30" x="147.412109"/>
       <use xlink:href="#DejaVuSans-30" x="211.035156"/>
      </g>
     </g>
    </g>
    <g id="ytick_10">
     <g id="line2d_71">
      <path d="M 45.267188 435.952863 
L 982.876106 435.952863 
" clip-path="url(#p249a780354)" style="fill: none; stroke-dasharray: 2.96,1.28; stroke-dashoffset: 0; stroke: #b0b0b0; stroke-width: 0.8"/>
     </g>
     <g id="line2d_72">
      <g>
       <use xlink:href="#m628f6deb9b" x="45.267188" y="435.952863" style="stroke: #000000; stroke-width: 0.8"/>
      </g>
     </g>
     <g id="text_25">
      <!-- 0 -->
      <g transform="translate(31.904688 439.752082)scale(0.1 -0.1)">
       <use xlink:href="#DejaVuSans-30"/>
      </g>
     </g>
    </g>
    <g id="ytick_11">
     <g id="line2d_73">
      <path d="M 45.267188 397.569767 
L 982.876106 397.569767 
" clip-path="url(#p249a780354)" style="fill: none; stroke-dasharray: 2.96,1.28; stroke-dashoffset: 0; stroke: #b0b0b0; stroke-width: 0.8"/>
     </g>
     <g id="line2d_74">
      <g>
       <use xlink:href="#m628f6deb9b" x="45.267188" y="397.569767" style="stroke: #000000; stroke-width: 0.8"/>
      </g>
     </g>
     <g id="text_26">
      <!-- 100 -->
      <g transform="translate(19.179688 401.368986)scale(0.1 -0.1)">
       <use xlink:href="#DejaVuSans-31"/>
       <use xlink:href="#DejaVuSans-30" x="63.623047"/>
       <use xlink:href="#DejaVuSans-30" x="127.246094"/>
      </g>
     </g>
    </g>
    <g id="ytick_12">
     <g id="line2d_75">
      <path d="M 45.267188 359.186672 
L 982.876106 359.186672 
" clip-path="url(#p249a780354)" style="fill: none; stroke-dasharray: 2.96,1.28; stroke-dashoffset: 0; stroke: #b0b0b0; stroke-width: 0.8"/>
     </g>
     <g id="line2d_76">
      <g>
       <use xlink:href="#m628f6deb9b" x="45.267188" y="359.186672" style="stroke: #000000; stroke-width: 0.8"/>
      </g>
     </g>
     <g id="text_27">
      <!-- 200 -->
      <g transform="translate(19.179688 362.98589)scale(0.1 -0.1)">
       <use xlink:href="#DejaVuSans-32"/>
       <use xlink:href="#DejaVuSans-30" x="63.623047"/>
       <use xlink:href="#DejaVuSans-30" x="127.246094"/>
      </g>
     </g>
    </g>
   </g>
   <g id="line2d_77">
    <path d="M 87.885775 435.952863 
L 90.557786 436.586245 
L 93.229798 436.650414 
L 95.90181 439.447976 
L 98.573822 439.376361 
L 106.589857 438.822531 
L 109.261869 438.050166 
L 111.93388 436.541991 
L 114.605892 436.476989 
L 117.277904 435.360568 
L 125.293939 430.277082 
L 127.965951 433.251999 
L 130.637962 438.128459 
L 133.309974 441.058466 
L 135.981986 445.659504 
L 143.998021 453.722997 
L 146.670033 461.02138 
L 152.014056 466.246144 
L 154.686068 469.667668 
L 162.702103 469.232095 
L 165.374115 460.882309 
L 168.046127 456.058156 
L 170.718139 453.79038 
L 173.39015 450.121813 
L 181.406185 446.310052 
L 184.078197 444.515072 
L 186.750209 440.766481 
L 189.422221 438.598508 
L 192.094232 441.051477 
L 200.110268 449.444551 
L 202.782279 450.195319 
L 205.454291 453.764654 
L 208.126303 460.127594 
L 210.798315 468.520441 
L 218.81435 477.671948 
L 221.486362 486.194513 
L 224.158373 491.39576 
L 226.830385 505.358758 
L 229.502397 511.053671 
L 237.518432 514.717963 
L 242.862455 521.640804 
L 245.534467 538.429785 
L 248.206479 548.340872 
L 256.222514 565.260437 
L 258.894526 573.004332 
L 261.566538 572.020096 
L 266.910561 565.42131 
L 274.926596 560.972341 
L 277.598608 556.498242 
L 282.942631 529.272795 
L 293.630678 522.90295 
L 298.974702 509.544591 
L 301.646714 499.84426 
L 304.318725 492.701013 
L 312.334761 485.026252 
L 315.006772 473.401908 
L 317.678784 460.346074 
L 323.022808 441.551254 
L 331.038843 431.803626 
L 333.710854 424.754468 
L 336.382866 419.055569 
L 339.054878 414.768495 
L 341.72689 408.595386 
L 349.742925 403.408585 
L 352.414937 402.252059 
L 355.086948 403.117559 
L 368.447007 406.928638 
L 371.119019 411.889683 
L 373.791031 409.293045 
L 376.463042 406.361603 
L 379.135054 407.528671 
L 387.151089 413.318607 
L 389.823101 416.122897 
L 392.495113 421.959805 
L 395.167124 424.59933 
L 397.839136 426.390276 
L 405.855171 426.412458 
L 411.199195 431.339185 
L 413.871207 440.334122 
L 416.543218 452.085727 
L 424.559254 460.36267 
L 429.903277 464.198431 
L 432.575289 470.150994 
L 435.2473 474.085302 
L 443.263336 482.354189 
L 445.935347 485.398908 
L 448.607359 483.365811 
L 451.279371 486.163241 
L 453.951383 486.067636 
L 461.967418 491.919475 
L 464.63943 497.342878 
L 467.311441 503.213506 
L 469.983453 504.535356 
L 472.655465 502.532242 
L 480.6715 495.470839 
L 483.343512 489.873789 
L 486.015523 488.147653 
L 488.687535 485.214828 
L 491.359547 492.426144 
L 499.375582 500.416908 
L 502.047594 506.743265 
L 504.719606 511.607813 
L 507.391617 516.085931 
L 518.079664 522.932336 
L 520.751676 523.752943 
L 523.423688 522.613084 
L 526.095699 525.290889 
L 528.767711 530.287897 
L 536.783746 528.351931 
L 539.455758 523.161486 
L 544.799782 513.675007 
L 547.471793 507.331167 
L 555.487829 498.732326 
L 560.831852 482.737832 
L 563.503864 476.148788 
L 566.175876 467.944287 
L 574.191911 460.620479 
L 576.863922 453.961442 
L 579.535934 445.535459 
L 582.207946 438.494036 
L 584.879958 432.940641 
L 592.895993 428.160162 
L 595.568005 426.812164 
L 598.240016 425.244788 
L 600.912028 426.095307 
L 603.58404 424.669505 
L 611.600075 418.312123 
L 614.272087 410.364853 
L 616.944099 404.333517 
L 619.61611 398.691665 
L 622.288122 384.653223 
L 630.304157 376.559935 
L 632.976169 370.383026 
L 635.648181 362.135877 
L 638.320192 358.478306 
L 640.992204 354.243596 
L 649.008239 348.401658 
L 651.680251 345.016806 
L 654.352263 344.889234 
L 657.024275 346.275611 
L 659.696286 342.65348 
L 667.712322 343.859603 
L 673.056345 348.370928 
L 675.728357 352.859131 
L 678.400368 358.479857 
L 689.088415 360.805606 
L 691.760427 364.897212 
L 694.432439 366.031406 
L 697.104451 369.443749 
L 705.120486 378.388099 
L 707.792498 385.197523 
L 710.464509 390.714436 
L 713.136521 396.57195 
L 715.808533 400.320901 
L 723.824568 403.99639 
L 726.49658 401.987552 
L 731.840603 402.189312 
L 734.512615 404.416196 
L 742.52865 408.221179 
L 745.200662 412.328193 
L 747.872674 407.385774 
L 750.544685 399.281431 
L 753.216697 397.513959 
L 761.232732 393.935539 
L 763.904744 390.793238 
L 766.576756 389.475181 
L 769.248768 391.59622 
L 771.920779 403.214032 
L 779.936814 413.349237 
L 782.608826 420.788165 
L 790.624861 454.822221 
L 798.640897 462.618726 
L 801.312908 467.940965 
L 803.98492 472.355592 
L 806.656932 475.309173 
L 809.328944 474.749704 
L 817.344979 474.253513 
L 820.016991 471.43805 
L 825.361014 469.44938 
L 828.033026 470.073917 
L 836.049061 471.815561 
L 838.721073 475.011183 
L 841.393084 473.97878 
L 844.065096 472.612567 
L 846.737108 470.810553 
L 854.753143 466.567271 
L 857.425155 460.589801 
L 860.097167 454.044365 
L 862.769178 451.652487 
L 865.44119 447.744086 
L 873.457225 443.576953 
L 876.129237 439.57916 
L 881.47326 435.759601 
L 884.145272 432.492169 
L 892.161307 421.732083 
L 894.833319 410.219795 
L 897.505331 402.748829 
L 900.177343 398.855372 
L 902.849354 391.181697 
L 910.86539 383.216473 
L 916.209413 379.720227 
L 921.553437 381.823463 
L 929.569472 382.018997 
L 932.241483 379.414142 
L 934.913495 379.626645 
L 937.585507 381.664383 
L 940.257519 385.637103 
L 940.257519 385.637103 
" clip-path="url(#p249a780354)" style="fill: none; stroke: #1f77b4; stroke-width: 1.5; stroke-linecap: square"/>
   </g>
   <g id="line2d_78">
    <path d="M 87.885775 435.952863 
L 90.557786 436.304742 
L 93.229798 436.446411 
L 95.90181 437.463201 
L 98.573822 438.032323 
L 106.589857 438.246514 
L 109.261869 438.196823 
L 117.277904 437.015765 
L 127.965951 435.049717 
L 130.637962 435.701285 
L 133.309974 436.822012 
L 135.981986 438.653966 
L 143.998021 441.75506 
L 146.670033 445.697091 
L 152.014056 449.882296 
L 154.686068 453.897231 
L 162.702103 456.999976 
L 165.374115 457.783671 
L 168.046127 457.436003 
L 170.718139 456.702549 
L 173.39015 455.380157 
L 181.406185 453.559257 
L 184.078197 451.744936 
L 189.422221 447.350598 
L 192.094232 446.088821 
L 200.110268 446.760799 
L 202.782279 447.448384 
L 205.454291 448.71264 
L 208.126303 450.997078 
L 210.798315 454.503529 
L 218.81435 459.139093 
L 224.158373 469.922093 
L 229.502397 483.820584 
L 237.518432 490.000882 
L 242.862455 496.329539 
L 248.206479 513.469011 
L 256.222514 523.82786 
L 258.894526 533.663583 
L 261.566538 541.335153 
L 264.238549 546.796555 
L 266.910561 550.521589 
L 277.598608 553.389081 
L 280.27062 551.323257 
L 282.942631 546.913125 
L 293.630678 542.111055 
L 296.30269 536.950058 
L 298.974702 531.468939 
L 304.318725 518.655367 
L 312.334761 511.929528 
L 315.006772 504.223989 
L 323.022808 477.567847 
L 331.038843 468.414995 
L 333.710854 459.682884 
L 336.382866 451.557417 
L 341.72689 437.078779 
L 349.742925 430.344738 
L 352.414937 424.726201 
L 355.086948 420.404472 
L 368.447007 417.709305 
L 371.119019 416.54538 
L 373.791031 415.094913 
L 376.463042 413.348251 
L 379.135054 412.184335 
L 387.151089 412.411189 
L 389.823101 413.153531 
L 392.495113 414.914786 
L 397.839136 418.759411 
L 405.855171 420.29002 
L 411.199195 422.499853 
L 413.871207 426.066707 
L 416.543218 431.270511 
L 424.559254 437.088943 
L 427.231265 442.117395 
L 429.903277 446.533602 
L 435.2473 455.822725 
L 443.263336 461.129017 
L 445.935347 465.982996 
L 451.279371 472.800295 
L 453.951383 475.453763 
L 461.967418 478.746906 
L 464.63943 482.4661 
L 467.311441 486.615581 
L 469.983453 490.199536 
L 472.655465 492.666077 
L 480.6715 493.22703 
L 483.343512 492.556382 
L 486.015523 491.674636 
L 488.687535 490.382674 
L 491.359547 490.791368 
L 499.375582 492.716476 
L 502.047594 495.521834 
L 504.719606 498.73903 
L 507.391617 502.20841 
L 510.063629 505.324495 
L 518.079664 508.846063 
L 520.751676 511.827439 
L 526.095699 516.245832 
L 528.767711 519.054245 
L 536.783746 520.913782 
L 539.455758 521.363323 
L 542.12777 520.765671 
L 544.799782 519.347538 
L 547.471793 516.944264 
L 555.487829 513.301876 
L 558.15984 508.820941 
L 560.831852 503.604319 
L 563.503864 498.113213 
L 566.175876 492.079428 
L 574.191911 485.787638 
L 576.863922 479.422399 
L 584.879958 459.239981 
L 592.895993 453.024017 
L 595.568005 447.781646 
L 598.240016 443.274275 
L 600.912028 439.838481 
L 603.58404 436.804686 
L 611.600075 433.106173 
L 614.272087 428.557909 
L 619.61611 418.708758 
L 622.288122 411.897651 
L 630.304157 404.830108 
L 638.320192 384.319444 
L 640.992204 378.304274 
L 649.008239 372.323751 
L 651.680251 366.862362 
L 654.352263 362.467736 
L 659.696286 355.914145 
L 667.712322 353.503237 
L 673.056345 352.476775 
L 675.728357 352.553246 
L 678.400368 353.738568 
L 689.088415 355.151976 
L 691.760427 357.101023 
L 694.432439 358.8871 
L 697.104451 360.99843 
L 705.120486 364.476363 
L 707.792498 368.620595 
L 710.464509 373.039363 
L 715.808533 382.260885 
L 723.824568 386.607986 
L 726.49658 389.683899 
L 731.840603 392.184982 
L 734.512615 394.631225 
L 742.52865 397.349216 
L 745.200662 400.345011 
L 747.872674 401.753164 
L 750.544685 401.258817 
L 753.216697 400.509845 
L 761.232732 399.194984 
L 766.576756 395.906744 
L 769.248768 395.044639 
L 771.920779 396.678518 
L 779.936814 400.012662 
L 782.608826 404.167762 
L 785.280838 409.738607 
L 787.95285 416.41983 
L 790.624861 424.100308 
L 798.640897 431.803992 
L 801.312908 439.031386 
L 803.98492 445.696227 
L 806.656932 451.618816 
L 809.328944 456.244994 
L 817.344979 459.846698 
L 820.016991 462.164968 
L 825.361014 463.62185 
L 828.033026 464.912264 
L 836.049061 466.292923 
L 838.721073 468.036575 
L 841.393084 469.225016 
L 844.065096 469.902526 
L 846.737108 470.084132 
L 854.753143 469.380759 
L 857.425155 467.622568 
L 865.44119 459.353649 
L 873.457225 456.198309 
L 876.129237 452.87448 
L 881.47326 449.451504 
L 884.145272 446.059637 
L 892.161307 441.194126 
L 902.849354 416.32467 
L 910.86539 409.703031 
L 916.209413 403.70647 
L 918.881425 399.115394 
L 921.553437 395.657008 
L 929.569472 392.929406 
L 932.241483 390.226353 
L 934.913495 388.106411 
L 937.585507 386.818005 
L 940.257519 386.581825 
L 940.257519 386.581825 
" clip-path="url(#p249a780354)" style="fill: none; stroke: #ff7f0e; stroke-width: 1.5; stroke-linecap: square"/>
   </g>
   <g id="patch_9">
    <path d="M 45.267188 584.521875 
L 45.267188 331.135938 
" style="fill: none; stroke: #000000; stroke-width: 0.8; stroke-linejoin: miter; stroke-linecap: square"/>
   </g>
   <g id="patch_10">
    <path d="M 982.876106 584.521875 
L 982.876106 331.135938 
" style="fill: none; stroke: #000000; stroke-width: 0.8; stroke-linejoin: miter; stroke-linecap: square"/>
   </g>
   <g id="patch_11">
    <path d="M 45.267188 584.521875 
L 982.876106 584.521875 
" style="fill: none; stroke: #000000; stroke-width: 0.8; stroke-linejoin: miter; stroke-linecap: square"/>
   </g>
   <g id="patch_12">
    <path d="M 45.267188 331.135938 
L 982.876106 331.135938 
" style="fill: none; stroke: #000000; stroke-width: 0.8; stroke-linejoin: miter; stroke-linecap: square"/>
   </g>
   <g id="text_28">
    <!-- MACD -->
    <g transform="translate(496.085709 325.135938)scale(0.12 -0.12)">
     <defs>
      <path id="DejaVuSans-44" d="M 1259 4147 
L 1259 519 
L 2022 519 
Q 2988 519 3436 956 
Q 3884 1394 3884 2338 
Q 3884 3275 3436 3711 
Q 2988 4147 2022 4147 
L 1259 4147 
z
M 628 4666 
L 1925 4666 
Q 3281 4666 3915 4102 
Q 4550 3538 4550 2338 
Q 4550 1131 3912 565 
Q 3275 0 1925 0 
L 628 0 
L 628 4666 
z
" transform="scale(0.015625)"/>
     </defs>
     <use xlink:href="#DejaVuSans-4d"/>
     <use xlink:href="#DejaVuSans-41" x="86.279297"/>
     <use xlink:href="#DejaVuSans-43" x="152.9375"/>
     <use xlink:href="#DejaVuSans-44" x="222.761719"/>
    </g>
   </g>
   <g id="legend_2">
    <g id="patch_13">
     <path d="M 913.899543 368.492188 
L 975.876106 368.492188 
Q 977.876106 368.492188 977.876106 366.492188 
L 977.876106 338.135938 
Q 977.876106 336.135938 975.876106 336.135938 
L 913.899543 336.135938 
Q 911.899543 336.135938 911.899543 338.135938 
L 911.899543 366.492188 
Q 911.899543 368.492188 913.899543 368.492188 
z
" style="fill: #ffffff; opacity: 0.8; stroke: #cccccc; stroke-linejoin: miter"/>
    </g>
    <g id="line2d_79">
     <path d="M 915.899543 344.234375 
L 925.899543 344.234375 
L 935.899543 344.234375 
" style="fill: none; stroke: #1f77b4; stroke-width: 1.5; stroke-linecap: square"/>
    </g>
    <g id="text_29">
     <!-- MACD -->
     <g transform="translate(943.899543 347.734375)scale(0.1 -0.1)">
      <use xlink:href="#DejaVuSans-4d"/>
      <use xlink:href="#DejaVuSans-41" x="86.279297"/>
      <use xlink:href="#DejaVuSans-43" x="152.9375"/>
      <use xlink:href="#DejaVuSans-44" x="222.761719"/>
     </g>
    </g>
    <g id="line2d_80">
     <path d="M 915.899543 358.9125 
L 925.899543 358.9125 
L 935.899543 358.9125 
" style="fill: none; stroke: #ff7f0e; stroke-width: 1.5; stroke-linecap: square"/>
    </g>
    <g id="text_30">
     <!-- SIG -->
     <g transform="translate(943.899543 362.4125)scale(0.1 -0.1)">
      <defs>
       <path id="DejaVuSans-49" d="M 628 4666 
L 1259 4666 
L 1259 0 
L 628 0 
L 628 4666 
z
" transform="scale(0.015625)"/>
       <path id="DejaVuSans-47" d="M 3809 666 
L 3809 1919 
L 2778 1919 
L 2778 2438 
L 4434 2438 
L 4434 434 
Q 4069 175 3628 42 
Q 3188 -91 2688 -91 
Q 1594 -91 976 548 
Q 359 1188 359 2328 
Q 359 3472 976 4111 
Q 1594 4750 2688 4750 
Q 3144 4750 3555 4637 
Q 3966 4525 4313 4306 
L 4313 3634 
Q 3963 3931 3569 4081 
Q 3175 4231 2741 4231 
Q 1884 4231 1454 3753 
Q 1025 3275 1025 2328 
Q 1025 1384 1454 906 
Q 1884 428 2741 428 
Q 3075 428 3337 486 
Q 3600 544 3809 666 
z
" transform="scale(0.015625)"/>
      </defs>
      <use xlink:href="#DejaVuSans-53"/>
      <use xlink:href="#DejaVuSans-49" x="63.476562"/>
      <use xlink:href="#DejaVuSans-47" x="92.96875"/>
     </g>
    </g>
   </g>
  </g>
  <g id="text_31">
   <!-- UltraTech Cement Limited -->
   <g transform="translate(426.2475 21.358125)scale(0.12 -0.12)">
    <defs>
     <path id="DejaVuSans-55" d="M 556 4666 
L 1191 4666 
L 1191 1831 
Q 1191 1081 1462 751 
Q 1734 422 2344 422 
Q 2950 422 3222 751 
Q 3494 1081 3494 1831 
L 3494 4666 
L 4128 4666 
L 4128 1753 
Q 4128 841 3676 375 
Q 3225 -91 2344 -91 
Q 1459 -91 1007 375 
Q 556 841 556 1753 
L 556 4666 
z
" transform="scale(0.015625)"/>
     <path id="DejaVuSans-74" d="M 1172 4494 
L 1172 3500 
L 2356 3500 
L 2356 3053 
L 1172 3053 
L 1172 1153 
Q 1172 725 1289 603 
Q 1406 481 1766 481 
L 2356 481 
L 2356 0 
L 1766 0 
Q 1100 0 847 248 
Q 594 497 594 1153 
L 594 3053 
L 172 3053 
L 172 3500 
L 594 3500 
L 594 4494 
L 1172 4494 
z
" transform="scale(0.015625)"/>
     <path id="DejaVuSans-61" d="M 2194 1759 
Q 1497 1759 1228 1600 
Q 959 1441 959 1056 
Q 959 750 1161 570 
Q 1363 391 1709 391 
Q 2188 391 2477 730 
Q 2766 1069 2766 1631 
L 2766 1759 
L 2194 1759 
z
M 3341 1997 
L 3341 0 
L 2766 0 
L 2766 531 
Q 2569 213 2275 61 
Q 1981 -91 1556 -91 
Q 1019 -91 701 211 
Q 384 513 384 1019 
Q 384 1609 779 1909 
Q 1175 2209 1959 2209 
L 2766 2209 
L 2766 2266 
Q 2766 2663 2505 2880 
Q 2244 3097 1772 3097 
Q 1472 3097 1187 3025 
Q 903 2953 641 2809 
L 641 3341 
Q 956 3463 1253 3523 
Q 1550 3584 1831 3584 
Q 2591 3584 2966 3190 
Q 3341 2797 3341 1997 
z
" transform="scale(0.015625)"/>
     <path id="DejaVuSans-54" d="M -19 4666 
L 3928 4666 
L 3928 4134 
L 2272 4134 
L 2272 0 
L 1638 0 
L 1638 4134 
L -19 4134 
L -19 4666 
z
" transform="scale(0.015625)"/>
     <path id="DejaVuSans-68" d="M 3513 2113 
L 3513 0 
L 2938 0 
L 2938 2094 
Q 2938 2591 2744 2837 
Q 2550 3084 2163 3084 
Q 1697 3084 1428 2787 
Q 1159 2491 1159 1978 
L 1159 0 
L 581 0 
L 581 4863 
L 1159 4863 
L 1159 2956 
Q 1366 3272 1645 3428 
Q 1925 3584 2291 3584 
Q 2894 3584 3203 3211 
Q 3513 2838 3513 2113 
z
" transform="scale(0.015625)"/>
     <path id="DejaVuSans-6d" d="M 3328 2828 
Q 3544 3216 3844 3400 
Q 4144 3584 4550 3584 
Q 5097 3584 5394 3201 
Q 5691 2819 5691 2113 
L 5691 0 
L 5113 0 
L 5113 2094 
Q 5113 2597 4934 2840 
Q 4756 3084 4391 3084 
Q 3944 3084 3684 2787 
Q 3425 2491 3425 1978 
L 3425 0 
L 2847 0 
L 2847 2094 
Q 2847 2600 2669 2842 
Q 2491 3084 2119 3084 
Q 1678 3084 1418 2786 
Q 1159 2488 1159 1978 
L 1159 0 
L 581 0 
L 581 3500 
L 1159 3500 
L 1159 2956 
Q 1356 3278 1631 3431 
Q 1906 3584 2284 3584 
Q 2666 3584 2933 3390 
Q 3200 3197 3328 2828 
z
" transform="scale(0.015625)"/>
     <path id="DejaVuSans-64" d="M 2906 2969 
L 2906 4863 
L 3481 4863 
L 3481 0 
L 2906 0 
L 2906 525 
Q 2725 213 2448 61 
Q 2172 -91 1784 -91 
Q 1150 -91 751 415 
Q 353 922 353 1747 
Q 353 2572 751 3078 
Q 1150 3584 1784 3584 
Q 2172 3584 2448 3432 
Q 2725 3281 2906 2969 
z
M 947 1747 
Q 947 1113 1208 752 
Q 1469 391 1925 391 
Q 2381 391 2643 752 
Q 2906 1113 2906 1747 
Q 2906 2381 2643 2742 
Q 2381 3103 1925 3103 
Q 1469 3103 1208 2742 
Q 947 2381 947 1747 
z
" transform="scale(0.015625)"/>
    </defs>
    <use xlink:href="#DejaVuSans-55"/>
    <use xlink:href="#DejaVuSans-6c" x="73.193359"/>
    <use xlink:href="#DejaVuSans-74" x="100.976562"/>
    <use xlink:href="#DejaVuSans-72" x="140.185547"/>
    <use xlink:href="#DejaVuSans-61" x="181.298828"/>
    <use xlink:href="#DejaVuSans-54" x="242.578125"/>
    <use xlink:href="#DejaVuSans-65" x="286.662109"/>
    <use xlink:href="#DejaVuSans-63" x="348.185547"/>
    <use xlink:href="#DejaVuSans-68" x="403.166016"/>
    <use xlink:href="#DejaVuSans-20" x="466.544922"/>
    <use xlink:href="#DejaVuSans-43" x="498.332031"/>
    <use xlink:href="#DejaVuSans-65" x="568.15625"/>
    <use xlink:href="#DejaVuSans-6d" x="629.679688"/>
    <use xlink:href="#DejaVuSans-65" x="727.091797"/>
    <use xlink:href="#DejaVuSans-6e" x="788.615234"/>
    <use xlink:href="#DejaVuSans-74" x="851.994141"/>
    <use xlink:href="#DejaVuSans-20" x="891.203125"/>
    <use xlink:href="#DejaVuSans-4c" x="922.990234"/>
    <use xlink:href="#DejaVuSans-69" x="978.703125"/>
    <use xlink:href="#DejaVuSans-6d" x="1006.486328"/>
    <use xlink:href="#DejaVuSans-69" x="1103.898438"/>
    <use xlink:href="#DejaVuSans-74" x="1131.681641"/>
    <use xlink:href="#DejaVuSans-65" x="1170.890625"/>
    <use xlink:href="#DejaVuSans-64" x="1232.414062"/>
   </g>
  </g>
 </g>
 <defs>
  <clipPath id="p8698ab5e16">
   <rect x="45.267188" y="48.331875" width="937.608918" height="253.385938"/>
  </clipPath>
  <clipPath id="p249a780354">
   <rect x="45.267188" y="331.135938" width="937.608918" height="253.385937"/>
  </clipPath>
 </defs>
</svg>
