<?xml version="1.0" encoding="utf-8" standalone="no"?>
<!DOCTYPE svg PUBLIC "-//W3C//DTD SVG 1.1//EN"
  "http://www.w3.org/Graphics/SVG/1.1/DTD/svg11.dtd">
<svg xmlns:xlink="http://www.w3.org/1999/xlink" width="1008pt" height="612pt" viewBox="0 0 1008 612" xmlns="http://www.w3.org/2000/svg" version="1.1">
 <metadata>
  <rdf:RDF xmlns:dc="http://purl.org/dc/elements/1.1/" xmlns:cc="http://creativecommons.org/ns#" xmlns:rdf="http://www.w3.org/1999/02/22-rdf-syntax-ns#">
   <cc:Work>
    <dc:type rdf:resource="http://purl.org/dc/dcmitype/StillImage"/>
    <dc:date>2022-11-20T19:47:00.490582</dc:date>
    <dc:format>image/svg+xml</dc:format>
    <dc:creator>
     <cc:Agent>
      <dc:title>Matplotlib v3.5.2, https://matplotlib.org/</dc:title>
     </cc:Agent>
    </dc:creator>
   </cc:Work>
  </rdf:RDF>
 </metadata>
 <defs>
  <style type="text/css">*{stroke-linejoin: round; stroke-linecap: butt}</style>
 </defs>
 <g id="figure_1">
  <g id="patch_1">
   <path d="M 0 612 
L 1008 612 
L 1008 0 
L 0 0 
z
" style="fill: #ffffff"/>
  </g>
  <g id="axes_1">
   <g id="patch_2">
    <path d="M 45.267188 301.717812 
L 982.876106 301.717812 
L 982.876106 48.331875 
L 45.267188 48.331875 
z
" style="fill: #ffffff"/>
   </g>
   <g id="matplotlib.axis_1">
    <g id="xtick_1">
     <g id="line2d_1">
      <path d="M 82.541751 301.717812 
L 82.541751 48.331875 
" clip-path="url(#pac834e55ac)" style="fill: none; stroke-dasharray: 2.96,1.28; stroke-dashoffset: 0; stroke: #b0b0b0; stroke-width: 0.8"/>
     </g>
     <g id="line2d_2">
      <defs>
       <path id="m90abae22cf" d="M 0 0 
L 0 3.5 
" style="stroke: #000000; stroke-width: 0.8"/>
      </defs>
      <g>
       <use xlink:href="#m90abae22cf" x="82.541751" y="301.717812" style="stroke: #000000; stroke-width: 0.8"/>
      </g>
     </g>
    </g>
    <g id="xtick_2">
     <g id="line2d_3">
      <path d="M 165.374115 301.717812 
L 165.374115 48.331875 
" clip-path="url(#pac834e55ac)" style="fill: none; stroke-dasharray: 2.96,1.28; stroke-dashoffset: 0; stroke: #b0b0b0; stroke-width: 0.8"/>
     </g>
     <g id="line2d_4">
      <g>
       <use xlink:href="#m90abae22cf" x="165.374115" y="301.717812" style="stroke: #000000; stroke-width: 0.8"/>
      </g>
     </g>
    </g>
    <g id="xtick_3">
     <g id="line2d_5">
      <path d="M 240.190444 301.717812 
L 240.190444 48.331875 
" clip-path="url(#pac834e55ac)" style="fill: none; stroke-dasharray: 2.96,1.28; stroke-dashoffset: 0; stroke: #b0b0b0; stroke-width: 0.8"/>
     </g>
     <g id="line2d_6">
      <g>
       <use xlink:href="#m90abae22cf" x="240.190444" y="301.717812" style="stroke: #000000; stroke-width: 0.8"/>
      </g>
     </g>
    </g>
    <g id="xtick_4">
     <g id="line2d_7">
      <path d="M 323.022808 301.717812 
L 323.022808 48.331875 
" clip-path="url(#pac834e55ac)" style="fill: none; stroke-dasharray: 2.96,1.28; stroke-dashoffset: 0; stroke: #b0b0b0; stroke-width: 0.8"/>
     </g>
     <g id="line2d_8">
      <g>
       <use xlink:href="#m90abae22cf" x="323.022808" y="301.717812" style="stroke: #000000; stroke-width: 0.8"/>
      </g>
     </g>
    </g>
    <g id="xtick_5">
     <g id="line2d_9">
      <path d="M 403.18316 301.717812 
L 403.18316 48.331875 
" clip-path="url(#pac834e55ac)" style="fill: none; stroke-dasharray: 2.96,1.28; stroke-dashoffset: 0; stroke: #b0b0b0; stroke-width: 0.8"/>
     </g>
     <g id="line2d_10">
      <g>
       <use xlink:href="#m90abae22cf" x="403.18316" y="301.717812" style="stroke: #000000; stroke-width: 0.8"/>
      </g>
     </g>
    </g>
    <g id="xtick_6">
     <g id="line2d_11">
      <path d="M 486.015523 301.717812 
L 486.015523 48.331875 
" clip-path="url(#pac834e55ac)" style="fill: none; stroke-dasharray: 2.96,1.28; stroke-dashoffset: 0; stroke: #b0b0b0; stroke-width: 0.8"/>
     </g>
     <g id="line2d_12">
      <g>
       <use xlink:href="#m90abae22cf" x="486.015523" y="301.717812" style="stroke: #000000; stroke-width: 0.8"/>
      </g>
     </g>
    </g>
    <g id="xtick_7">
     <g id="line2d_13">
      <path d="M 566.175876 301.717812 
L 566.175876 48.331875 
" clip-path="url(#pac834e55ac)" style="fill: none; stroke-dasharray: 2.96,1.28; stroke-dashoffset: 0; stroke: #b0b0b0; stroke-width: 0.8"/>
     </g>
     <g id="line2d_14">
      <g>
       <use xlink:href="#m90abae22cf" x="566.175876" y="301.717812" style="stroke: #000000; stroke-width: 0.8"/>
      </g>
     </g>
    </g>
    <g id="xtick_8">
     <g id="line2d_15">
      <path d="M 649.008239 301.717812 
L 649.008239 48.331875 
" clip-path="url(#pac834e55ac)" style="fill: none; stroke-dasharray: 2.96,1.28; stroke-dashoffset: 0; stroke: #b0b0b0; stroke-width: 0.8"/>
     </g>
     <g id="line2d_16">
      <g>
       <use xlink:href="#m90abae22cf" x="649.008239" y="301.717812" style="stroke: #000000; stroke-width: 0.8"/>
      </g>
     </g>
    </g>
    <g id="xtick_9">
     <g id="line2d_17">
      <path d="M 731.840603 301.717812 
L 731.840603 48.331875 
" clip-path="url(#pac834e55ac)" style="fill: none; stroke-dasharray: 2.96,1.28; stroke-dashoffset: 0; stroke: #b0b0b0; stroke-width: 0.8"/>
     </g>
     <g id="line2d_18">
      <g>
       <use xlink:href="#m90abae22cf" x="731.840603" y="301.717812" style="stroke: #000000; stroke-width: 0.8"/>
      </g>
     </g>
    </g>
    <g id="xtick_10">
     <g id="line2d_19">
      <path d="M 812.000955 301.717812 
L 812.000955 48.331875 
" clip-path="url(#pac834e55ac)" style="fill: none; stroke-dasharray: 2.96,1.28; stroke-dashoffset: 0; stroke: #b0b0b0; stroke-width: 0.8"/>
     </g>
     <g id="line2d_20">
      <g>
       <use xlink:href="#m90abae22cf" x="812.000955" y="301.717812" style="stroke: #000000; stroke-width: 0.8"/>
      </g>
     </g>
    </g>
    <g id="xtick_11">
     <g id="line2d_21">
      <path d="M 894.833319 301.717812 
L 894.833319 48.331875 
" clip-path="url(#pac834e55ac)" style="fill: none; stroke-dasharray: 2.96,1.28; stroke-dashoffset: 0; stroke: #b0b0b0; stroke-width: 0.8"/>
     </g>
     <g id="line2d_22">
      <g>
       <use xlink:href="#m90abae22cf" x="894.833319" y="301.717812" style="stroke: #000000; stroke-width: 0.8"/>
      </g>
     </g>
    </g>
    <g id="xtick_12">
     <g id="line2d_23">
      <path d="M 974.993671 301.717812 
L 974.993671 48.331875 
" clip-path="url(#pac834e55ac)" style="fill: none; stroke-dasharray: 2.96,1.28; stroke-dashoffset: 0; stroke: #b0b0b0; stroke-width: 0.8"/>
     </g>
     <g id="line2d_24">
      <g>
       <use xlink:href="#m90abae22cf" x="974.993671" y="301.717812" style="stroke: #000000; stroke-width: 0.8"/>
      </g>
     </g>
    </g>
   </g>
   <g id="matplotlib.axis_2">
    <g id="ytick_1">
     <g id="line2d_25">
      <path d="M 45.267188 271.274497 
L 982.876106 271.274497 
" clip-path="url(#pac834e55ac)" style="fill: none; stroke-dasharray: 2.96,1.28; stroke-dashoffset: 0; stroke: #b0b0b0; stroke-width: 0.8"/>
     </g>
     <g id="line2d_26">
      <defs>
       <path id="m65bff9e70d" d="M 0 0 
L -3.5 0 
" style="stroke: #000000; stroke-width: 0.8"/>
      </defs>
      <g>
       <use xlink:href="#m65bff9e70d" x="45.267188" y="271.274497" style="stroke: #000000; stroke-width: 0.8"/>
      </g>
     </g>
     <g id="text_1">
      <!-- 200 -->
      <g transform="translate(19.179688 275.073716)scale(0.1 -0.1)">
       <defs>
        <path id="DejaVuSans-32" d="M 1228 531 
L 3431 531 
L 3431 0 
L 469 0 
L 469 531 
Q 828 903 1448 1529 
Q 2069 2156 2228 2338 
Q 2531 2678 2651 2914 
Q 2772 3150 2772 3378 
Q 2772 3750 2511 3984 
Q 2250 4219 1831 4219 
Q 1534 4219 1204 4116 
Q 875 4013 500 3803 
L 500 4441 
Q 881 4594 1212 4672 
Q 1544 4750 1819 4750 
Q 2544 4750 2975 4387 
Q 3406 4025 3406 3419 
Q 3406 3131 3298 2873 
Q 3191 2616 2906 2266 
Q 2828 2175 2409 1742 
Q 1991 1309 1228 531 
z
" transform="scale(0.015625)"/>
        <path id="DejaVuSans-30" d="M 2034 4250 
Q 1547 4250 1301 3770 
Q 1056 3291 1056 2328 
Q 1056 1369 1301 889 
Q 1547 409 2034 409 
Q 2525 409 2770 889 
Q 3016 1369 3016 2328 
Q 3016 3291 2770 3770 
Q 2525 4250 2034 4250 
z
M 2034 4750 
Q 2819 4750 3233 4129 
Q 3647 3509 3647 2328 
Q 3647 1150 3233 529 
Q 2819 -91 2034 -91 
Q 1250 -91 836 529 
Q 422 1150 422 2328 
Q 422 3509 836 4129 
Q 1250 4750 2034 4750 
z
" transform="scale(0.015625)"/>
       </defs>
       <use xlink:href="#DejaVuSans-32"/>
       <use xlink:href="#DejaVuSans-30" x="63.623047"/>
       <use xlink:href="#DejaVuSans-30" x="127.246094"/>
      </g>
     </g>
    </g>
    <g id="ytick_2">
     <g id="line2d_27">
      <path d="M 45.267188 235.15661 
L 982.876106 235.15661 
" clip-path="url(#pac834e55ac)" style="fill: none; stroke-dasharray: 2.96,1.28; stroke-dashoffset: 0; stroke: #b0b0b0; stroke-width: 0.8"/>
     </g>
     <g id="line2d_28">
      <g>
       <use xlink:href="#m65bff9e70d" x="45.267188" y="235.15661" style="stroke: #000000; stroke-width: 0.8"/>
      </g>
     </g>
     <g id="text_2">
      <!-- 400 -->
      <g transform="translate(19.179688 238.955829)scale(0.1 -0.1)">
       <defs>
        <path id="DejaVuSans-34" d="M 2419 4116 
L 825 1625 
L 2419 1625 
L 2419 4116 
z
M 2253 4666 
L 3047 4666 
L 3047 1625 
L 3713 1625 
L 3713 1100 
L 3047 1100 
L 3047 0 
L 2419 0 
L 2419 1100 
L 313 1100 
L 313 1709 
L 2253 4666 
z
" transform="scale(0.015625)"/>
       </defs>
       <use xlink:href="#DejaVuSans-34"/>
       <use xlink:href="#DejaVuSans-30" x="63.623047"/>
       <use xlink:href="#DejaVuSans-30" x="127.246094"/>
      </g>
     </g>
    </g>
    <g id="ytick_3">
     <g id="line2d_29">
      <path d="M 45.267188 199.038724 
L 982.876106 199.038724 
" clip-path="url(#pac834e55ac)" style="fill: none; stroke-dasharray: 2.96,1.28; stroke-dashoffset: 0; stroke: #b0b0b0; stroke-width: 0.8"/>
     </g>
     <g id="line2d_30">
      <g>
       <use xlink:href="#m65bff9e70d" x="45.267188" y="199.038724" style="stroke: #000000; stroke-width: 0.8"/>
      </g>
     </g>
     <g id="text_3">
      <!-- 600 -->
      <g transform="translate(19.179688 202.837942)scale(0.1 -0.1)">
       <defs>
        <path id="DejaVuSans-36" d="M 2113 2584 
Q 1688 2584 1439 2293 
Q 1191 2003 1191 1497 
Q 1191 994 1439 701 
Q 1688 409 2113 409 
Q 2538 409 2786 701 
Q 3034 994 3034 1497 
Q 3034 2003 2786 2293 
Q 2538 2584 2113 2584 
z
M 3366 4563 
L 3366 3988 
Q 3128 4100 2886 4159 
Q 2644 4219 2406 4219 
Q 1781 4219 1451 3797 
Q 1122 3375 1075 2522 
Q 1259 2794 1537 2939 
Q 1816 3084 2150 3084 
Q 2853 3084 3261 2657 
Q 3669 2231 3669 1497 
Q 3669 778 3244 343 
Q 2819 -91 2113 -91 
Q 1303 -91 875 529 
Q 447 1150 447 2328 
Q 447 3434 972 4092 
Q 1497 4750 2381 4750 
Q 2619 4750 2861 4703 
Q 3103 4656 3366 4563 
z
" transform="scale(0.015625)"/>
       </defs>
       <use xlink:href="#DejaVuSans-36"/>
       <use xlink:href="#DejaVuSans-30" x="63.623047"/>
       <use xlink:href="#DejaVuSans-30" x="127.246094"/>
      </g>
     </g>
    </g>
    <g id="ytick_4">
     <g id="line2d_31">
      <path d="M 45.267188 162.920837 
L 982.876106 162.920837 
" clip-path="url(#pac834e55ac)" style="fill: none; stroke-dasharray: 2.96,1.28; stroke-dashoffset: 0; stroke: #b0b0b0; stroke-width: 0.8"/>
     </g>
     <g id="line2d_32">
      <g>
       <use xlink:href="#m65bff9e70d" x="45.267188" y="162.920837" style="stroke: #000000; stroke-width: 0.8"/>
      </g>
     </g>
     <g id="text_4">
      <!-- 800 -->
      <g transform="translate(19.179688 166.720056)scale(0.1 -0.1)">
       <defs>
        <path id="DejaVuSans-38" d="M 2034 2216 
Q 1584 2216 1326 1975 
Q 1069 1734 1069 1313 
Q 1069 891 1326 650 
Q 1584 409 2034 409 
Q 2484 409 2743 651 
Q 3003 894 3003 1313 
Q 3003 1734 2745 1975 
Q 2488 2216 2034 2216 
z
M 1403 2484 
Q 997 2584 770 2862 
Q 544 3141 544 3541 
Q 544 4100 942 4425 
Q 1341 4750 2034 4750 
Q 2731 4750 3128 4425 
Q 3525 4100 3525 3541 
Q 3525 3141 3298 2862 
Q 3072 2584 2669 2484 
Q 3125 2378 3379 2068 
Q 3634 1759 3634 1313 
Q 3634 634 3220 271 
Q 2806 -91 2034 -91 
Q 1263 -91 848 271 
Q 434 634 434 1313 
Q 434 1759 690 2068 
Q 947 2378 1403 2484 
z
M 1172 3481 
Q 1172 3119 1398 2916 
Q 1625 2713 2034 2713 
Q 2441 2713 2670 2916 
Q 2900 3119 2900 3481 
Q 2900 3844 2670 4047 
Q 2441 4250 2034 4250 
Q 1625 4250 1398 4047 
Q 1172 3844 1172 3481 
z
" transform="scale(0.015625)"/>
       </defs>
       <use xlink:href="#DejaVuSans-38"/>
       <use xlink:href="#DejaVuSans-30" x="63.623047"/>
       <use xlink:href="#DejaVuSans-30" x="127.246094"/>
      </g>
     </g>
    </g>
    <g id="ytick_5">
     <g id="line2d_33">
      <path d="M 45.267188 126.80295 
L 982.876106 126.80295 
" clip-path="url(#pac834e55ac)" style="fill: none; stroke-dasharray: 2.96,1.28; stroke-dashoffset: 0; stroke: #b0b0b0; stroke-width: 0.8"/>
     </g>
     <g id="line2d_34">
      <g>
       <use xlink:href="#m65bff9e70d" x="45.267188" y="126.80295" style="stroke: #000000; stroke-width: 0.8"/>
      </g>
     </g>
     <g id="text_5">
      <!-- 1000 -->
      <g transform="translate(12.817188 130.602169)scale(0.1 -0.1)">
       <defs>
        <path id="DejaVuSans-31" d="M 794 531 
L 1825 531 
L 1825 4091 
L 703 3866 
L 703 4441 
L 1819 4666 
L 2450 4666 
L 2450 531 
L 3481 531 
L 3481 0 
L 794 0 
L 794 531 
z
" transform="scale(0.015625)"/>
       </defs>
       <use xlink:href="#DejaVuSans-31"/>
       <use xlink:href="#DejaVuSans-30" x="63.623047"/>
       <use xlink:href="#DejaVuSans-30" x="127.246094"/>
       <use xlink:href="#DejaVuSans-30" x="190.869141"/>
      </g>
     </g>
    </g>
    <g id="ytick_6">
     <g id="line2d_35">
      <path d="M 45.267188 90.685063 
L 982.876106 90.685063 
" clip-path="url(#pac834e55ac)" style="fill: none; stroke-dasharray: 2.96,1.28; stroke-dashoffset: 0; stroke: #b0b0b0; stroke-width: 0.8"/>
     </g>
     <g id="line2d_36">
      <g>
       <use xlink:href="#m65bff9e70d" x="45.267188" y="90.685063" style="stroke: #000000; stroke-width: 0.8"/>
      </g>
     </g>
     <g id="text_6">
      <!-- 1200 -->
      <g transform="translate(12.817188 94.484282)scale(0.1 -0.1)">
       <use xlink:href="#DejaVuSans-31"/>
       <use xlink:href="#DejaVuSans-32" x="63.623047"/>
       <use xlink:href="#DejaVuSans-30" x="127.246094"/>
       <use xlink:href="#DejaVuSans-30" x="190.869141"/>
      </g>
     </g>
    </g>
    <g id="ytick_7">
     <g id="line2d_37">
      <path d="M 45.267188 54.567177 
L 982.876106 54.567177 
" clip-path="url(#pac834e55ac)" style="fill: none; stroke-dasharray: 2.96,1.28; stroke-dashoffset: 0; stroke: #b0b0b0; stroke-width: 0.8"/>
     </g>
     <g id="line2d_38">
      <g>
       <use xlink:href="#m65bff9e70d" x="45.267188" y="54.567177" style="stroke: #000000; stroke-width: 0.8"/>
      </g>
     </g>
     <g id="text_7">
      <!-- 1400 -->
      <g transform="translate(12.817188 58.366395)scale(0.1 -0.1)">
       <use xlink:href="#DejaVuSans-31"/>
       <use xlink:href="#DejaVuSans-34" x="63.623047"/>
       <use xlink:href="#DejaVuSans-30" x="127.246094"/>
       <use xlink:href="#DejaVuSans-30" x="190.869141"/>
      </g>
     </g>
    </g>
   </g>
   <g id="line2d_39">
    <path d="M 87.885775 101.077985 
L 90.557786 99.931242 
L 93.229798 94.730267 
L 95.90181 97.321725 
L 98.573822 97.845434 
L 106.589857 96.274306 
L 109.261869 103.281176 
L 111.93388 100.220186 
L 114.605892 86.865597 
L 117.277904 88.229047 
L 125.293939 85.312528 
L 127.965951 91.615099 
L 130.637962 88.951405 
L 133.309974 89.475114 
L 135.981986 96.156923 
L 143.998021 108.888478 
L 146.670033 107.100643 
L 152.014056 110.847874 
L 154.686068 111.516055 
L 162.702103 111.353524 
L 165.374115 96.581308 
L 168.046127 96.55422 
L 170.718139 96.716751 
L 173.39015 94.965033 
L 181.406185 93.755084 
L 184.078197 87.145511 
L 186.750209 86.64889 
L 189.422221 81.953564 
L 192.094232 80.851969 
L 200.110268 93.059814 
L 202.782279 89.285495 
L 205.454291 92.165897 
L 208.126303 92.319398 
L 210.798315 92.346486 
L 218.81435 93.962762 
L 221.486362 101.755196 
L 224.158373 101.701019 
L 226.830385 113.439332 
L 229.502397 100.554276 
L 237.518432 86.937833 
L 242.862455 74.549398 
L 245.534467 72.030175 
L 248.206479 76.761618 
L 256.222514 74.088894 
L 258.894526 78.134098 
L 261.566538 80.689438 
L 264.238549 71.054992 
L 266.910561 72.319118 
L 274.926596 73.167888 
L 277.598608 84.59017 
L 280.27062 78.901603 
L 282.942631 72.003087 
L 293.630678 72.093381 
L 296.30269 72.264941 
L 298.974702 67.027848 
L 301.646714 63.497324 
L 304.318725 65.592162 
L 312.334761 65.592162 
L 315.006772 66.368696 
L 317.678784 71.172375 
L 320.350796 71.325876 
L 323.022808 69.538041 
L 331.038843 65.059423 
L 333.710854 64.517654 
L 336.382866 59.849418 
L 339.054878 63.686943 
L 341.72689 59.849418 
L 349.742925 62.169992 
L 352.414937 68.969184 
L 355.086948 69.104626 
L 368.447007 65.565073 
L 376.463042 72.237853 
L 379.135054 76.680353 
L 387.151089 87.010068 
L 395.167124 79.696196 
L 397.839136 77.854184 
L 405.855171 73.492949 
L 411.199195 79.605902 
L 413.871207 75.470404 
L 416.543218 75.569728 
L 424.559254 81.249266 
L 427.231265 97.023753 
L 429.903277 96.879281 
L 432.575289 105.547574 
L 435.2473 109.285775 
L 443.263336 108.111944 
L 445.935347 92.725724 
L 448.607359 94.251705 
L 451.279371 104.743951 
L 453.951383 95.994393 
L 461.967418 122.658423 
L 464.63943 125.656207 
L 467.311441 126.965481 
L 469.983453 117.4123 
L 472.655465 118.94731 
L 480.6715 118.233982 
L 486.015523 115.326492 
L 488.687535 112.075882 
L 491.359547 114.649281 
L 499.375582 112.698915 
L 502.047594 114.432574 
L 504.719606 111.136817 
L 507.391617 118.703514 
L 510.063629 122.522981 
L 518.079664 128.256695 
L 520.751676 127.49822 
L 523.423688 134.107793 
L 526.095699 144.554892 
L 528.767711 143.651944 
L 536.783746 151.832646 
L 539.455758 147.606853 
L 542.12777 156.04038 
L 544.799782 155.462493 
L 547.471793 153.376685 
L 555.487829 150.667844 
L 558.15984 148.672331 
L 560.831852 148.184739 
L 563.503864 150.812315 
L 566.175876 149.764897 
L 574.191911 153.069683 
L 576.863922 152.058383 
L 579.535934 152.419561 
L 582.207946 144.861894 
L 584.879958 147.408205 
L 592.895993 142.559378 
L 595.568005 144.482656 
L 600.912028 143.417178 
L 603.58404 147.787442 
L 611.600075 144.085359 
L 614.272087 141.349429 
L 616.944099 139.724124 
L 619.61611 138.667676 
L 622.288122 138.351644 
L 630.304157 133.900115 
L 632.976169 135.922717 
L 635.648181 134.134881 
L 638.320192 289.270234 
L 640.992204 287.960961 
L 649.008239 287.843578 
L 651.680251 288.069315 
L 667.712322 288.033197 
L 673.056345 287.672018 
L 675.728357 287.690077 
L 678.400368 287.048984 
L 691.760427 287.076073 
L 694.432439 287.067043 
L 697.104451 287.518517 
L 705.120486 288.421464 
L 707.792498 287.960961 
L 710.464509 288.15058 
L 713.136521 288.204757 
L 715.808533 288.006108 
L 723.824568 288.457582 
L 726.49658 287.834548 
L 734.512615 288.340199 
L 742.52865 288.087374 
L 745.200662 287.780371 
L 747.872674 287.960961 
L 750.544685 288.276992 
L 753.216697 288.304081 
L 761.232732 287.933872 
L 763.904744 287.933872 
L 766.576756 287.681047 
L 769.248768 288.069315 
L 771.920779 288.304081 
L 779.936814 288.773613 
L 782.608826 288.286022 
L 787.95285 288.683319 
L 790.624861 288.556906 
L 798.640897 289.360529 
L 803.98492 290.20027 
L 806.656932 289.902297 
L 809.328944 289.459853 
L 817.344979 289.631413 
L 820.016991 289.125763 
L 825.361014 288.692348 
L 828.033026 288.737495 
L 836.049061 288.755554 
L 838.721073 289.270234 
L 841.393084 289.234116 
L 846.737108 289.315382 
L 854.753143 289.414706 
L 857.425155 289.216057 
L 860.097167 289.324411 
L 862.769178 289.17091 
L 865.44119 289.297323 
L 876.129237 289.116733 
L 881.47326 288.574965 
L 884.145272 289.044498 
L 900.177343 288.972262 
L 902.849354 288.475641 
L 910.86539 288.123491 
L 916.209413 288.231845 
L 918.881425 288.48467 
L 921.553437 287.96999 
L 932.241483 287.789401 
L 934.913495 288.15058 
L 940.257519 288.340199 
L 940.257519 288.340199 
" clip-path="url(#pac834e55ac)" style="fill: none; stroke: #1f77b4; stroke-width: 1.5; stroke-linecap: square"/>
   </g>
   <g id="line2d_40">
    <path d="M 98.573822 98.181331 
L 106.589857 97.220595 
L 109.261869 97.890582 
L 111.93388 98.988566 
L 114.605892 96.89734 
L 117.277904 94.974062 
L 125.293939 92.781707 
L 130.637962 88.194735 
L 133.309974 88.716639 
L 143.998021 95.017404 
L 146.670033 98.114513 
L 152.014056 102.493807 
L 154.686068 106.901995 
L 162.702103 109.941315 
L 165.374115 107.479881 
L 168.046127 105.370596 
L 170.718139 102.544372 
L 173.39015 99.234167 
L 181.406185 95.714479 
L 186.750209 91.846253 
L 192.094232 86.071003 
L 200.110268 85.93195 
L 202.782279 86.359946 
L 205.454291 87.463348 
L 208.126303 89.536515 
L 210.798315 91.835418 
L 218.81435 92.016008 
L 221.486362 94.509948 
L 224.158373 96.416972 
L 226.830385 100.640959 
L 229.502397 102.282517 
L 237.518432 100.877531 
L 242.862455 95.436371 
L 245.534467 89.502203 
L 248.206479 82.16666 
L 258.894526 75.112837 
L 261.566538 76.340845 
L 264.238549 76.145808 
L 266.910561 75.257308 
L 274.926596 75.073107 
L 277.598608 76.364321 
L 280.27062 76.006754 
L 282.942631 76.196373 
L 293.630678 76.151226 
L 296.30269 75.970636 
L 298.974702 72.458172 
L 301.646714 69.377316 
L 304.318725 68.095131 
L 312.334761 66.794887 
L 315.006772 65.615638 
L 317.678784 66.444544 
L 320.350796 68.010254 
L 323.022808 68.79943 
L 331.038843 68.692882 
L 333.710854 68.322674 
L 336.382866 66.058082 
L 339.054878 64.530296 
L 341.72689 62.592571 
L 349.742925 62.014685 
L 352.414937 62.904991 
L 355.086948 64.756033 
L 368.447007 65.131659 
L 373.791031 68.302809 
L 376.463042 68.956543 
L 379.135054 70.471688 
L 387.151089 74.760687 
L 389.823101 78.119651 
L 392.495113 80.559414 
L 395.167124 82.051083 
L 397.839136 82.285849 
L 405.855171 79.582425 
L 411.199195 78.580154 
L 413.871207 77.223927 
L 416.543218 76.398633 
L 424.559254 77.07765 
L 427.231265 81.78381 
L 429.903277 85.238486 
L 432.575289 91.25392 
L 435.2473 97.99713 
L 443.263336 103.369665 
L 445.935347 102.51006 
L 448.607359 101.984544 
L 451.279371 101.82382 
L 453.951383 99.165543 
L 461.967418 102.074839 
L 467.311441 115.203691 
L 469.983453 117.737361 
L 472.655465 122.327944 
L 480.6715 121.443056 
L 483.343512 119.662444 
L 486.015523 117.334646 
L 488.687535 116.267363 
L 491.359547 115.407757 
L 502.047594 113.836629 
L 504.719606 112.998694 
L 507.391617 114.32422 
L 510.063629 115.89896 
L 518.079664 119.010516 
L 520.751676 121.623645 
L 523.423688 126.21784 
L 526.095699 131.388116 
L 528.767711 135.613909 
L 536.783746 140.329099 
L 539.455758 144.350825 
L 542.12777 148.737343 
L 544.799782 150.918863 
L 547.471793 152.863811 
L 555.487829 152.630851 
L 558.15984 152.843947 
L 560.831852 151.272818 
L 563.503864 150.342783 
L 566.175876 149.620425 
L 574.191911 150.100793 
L 576.863922 150.778003 
L 579.535934 151.624968 
L 582.207946 150.434883 
L 584.879958 149.963545 
L 592.895993 147.861484 
L 595.568005 146.346339 
L 598.240016 144.659633 
L 600.912028 144.37069 
L 611.600075 144.751734 
L 614.272087 144.125089 
L 619.61611 142.322806 
L 622.288122 140.435647 
L 630.304157 138.398598 
L 635.648181 136.195407 
L 640.992204 196.237782 
L 649.008239 227.026474 
L 654.352263 288.240875 
L 657.024275 287.975408 
L 673.056345 287.942902 
L 689.088415 287.486011 
L 694.432439 287.173591 
L 697.104451 287.139279 
L 707.792498 287.608812 
L 715.808533 288.148774 
L 742.52865 288.179474 
L 745.200662 288.044032 
L 753.216697 288.081956 
L 771.920779 287.984438 
L 782.608826 288.222816 
L 787.95285 288.51537 
L 798.640897 288.683319 
L 806.656932 289.555566 
L 809.328944 289.736155 
L 817.344979 289.790332 
L 825.361014 289.362335 
L 828.033026 289.129375 
L 841.393084 288.93795 
L 846.737108 289.178134 
L 860.097167 289.317188 
L 897.505331 288.979485 
L 900.177343 289.058945 
L 902.849354 288.945173 
L 916.209413 288.582189 
L 921.553437 288.257128 
L 937.585507 287.989855 
L 940.257519 288.063897 
L 940.257519 288.063897 
" clip-path="url(#pac834e55ac)" style="fill: none; stroke: #ff7f0e; stroke-width: 1.5; stroke-linecap: square"/>
   </g>
   <g id="patch_3">
    <path d="M 45.267188 301.717812 
L 45.267188 48.331875 
" style="fill: none; stroke: #000000; stroke-width: 0.8; stroke-linejoin: miter; stroke-linecap: square"/>
   </g>
   <g id="patch_4">
    <path d="M 982.876106 301.717812 
L 982.876106 48.331875 
" style="fill: none; stroke: #000000; stroke-width: 0.8; stroke-linejoin: miter; stroke-linecap: square"/>
   </g>
   <g id="patch_5">
    <path d="M 45.267188 301.717812 
L 982.876106 301.717812 
" style="fill: none; stroke: #000000; stroke-width: 0.8; stroke-linejoin: miter; stroke-linecap: square"/>
   </g>
   <g id="patch_6">
    <path d="M 45.267188 48.331875 
L 982.876106 48.331875 
" style="fill: none; stroke: #000000; stroke-width: 0.8; stroke-linejoin: miter; stroke-linecap: square"/>
   </g>
   <g id="text_8">
    <!-- Closing Price -->
    <g transform="translate(475.595709 42.331875)scale(0.12 -0.12)">
     <defs>
      <path id="DejaVuSans-43" d="M 4122 4306 
L 4122 3641 
Q 3803 3938 3442 4084 
Q 3081 4231 2675 4231 
Q 1875 4231 1450 3742 
Q 1025 3253 1025 2328 
Q 1025 1406 1450 917 
Q 1875 428 2675 428 
Q 3081 428 3442 575 
Q 3803 722 4122 1019 
L 4122 359 
Q 3791 134 3420 21 
Q 3050 -91 2638 -91 
Q 1578 -91 968 557 
Q 359 1206 359 2328 
Q 359 3453 968 4101 
Q 1578 4750 2638 4750 
Q 3056 4750 3426 4639 
Q 3797 4528 4122 4306 
z
" transform="scale(0.015625)"/>
      <path id="DejaVuSans-6c" d="M 603 4863 
L 1178 4863 
L 1178 0 
L 603 0 
L 603 4863 
z
" transform="scale(0.015625)"/>
      <path id="DejaVuSans-6f" d="M 1959 3097 
Q 1497 3097 1228 2736 
Q 959 2375 959 1747 
Q 959 1119 1226 758 
Q 1494 397 1959 397 
Q 2419 397 2687 759 
Q 2956 1122 2956 1747 
Q 2956 2369 2687 2733 
Q 2419 3097 1959 3097 
z
M 1959 3584 
Q 2709 3584 3137 3096 
Q 3566 2609 3566 1747 
Q 3566 888 3137 398 
Q 2709 -91 1959 -91 
Q 1206 -91 779 398 
Q 353 888 353 1747 
Q 353 2609 779 3096 
Q 1206 3584 1959 3584 
z
" transform="scale(0.015625)"/>
      <path id="DejaVuSans-73" d="M 2834 3397 
L 2834 2853 
Q 2591 2978 2328 3040 
Q 2066 3103 1784 3103 
Q 1356 3103 1142 2972 
Q 928 2841 928 2578 
Q 928 2378 1081 2264 
Q 1234 2150 1697 2047 
L 1894 2003 
Q 2506 1872 2764 1633 
Q 3022 1394 3022 966 
Q 3022 478 2636 193 
Q 2250 -91 1575 -91 
Q 1294 -91 989 -36 
Q 684 19 347 128 
L 347 722 
Q 666 556 975 473 
Q 1284 391 1588 391 
Q 1994 391 2212 530 
Q 2431 669 2431 922 
Q 2431 1156 2273 1281 
Q 2116 1406 1581 1522 
L 1381 1569 
Q 847 1681 609 1914 
Q 372 2147 372 2553 
Q 372 3047 722 3315 
Q 1072 3584 1716 3584 
Q 2034 3584 2315 3537 
Q 2597 3491 2834 3397 
z
" transform="scale(0.015625)"/>
      <path id="DejaVuSans-69" d="M 603 3500 
L 1178 3500 
L 1178 0 
L 603 0 
L 603 3500 
z
M 603 4863 
L 1178 4863 
L 1178 4134 
L 603 4134 
L 603 4863 
z
" transform="scale(0.015625)"/>
      <path id="DejaVuSans-6e" d="M 3513 2113 
L 3513 0 
L 2938 0 
L 2938 2094 
Q 2938 2591 2744 2837 
Q 2550 3084 2163 3084 
Q 1697 3084 1428 2787 
Q 1159 2491 1159 1978 
L 1159 0 
L 581 0 
L 581 3500 
L 1159 3500 
L 1159 2956 
Q 1366 3272 1645 3428 
Q 1925 3584 2291 3584 
Q 2894 3584 3203 3211 
Q 3513 2838 3513 2113 
z
" transform="scale(0.015625)"/>
      <path id="DejaVuSans-67" d="M 2906 1791 
Q 2906 2416 2648 2759 
Q 2391 3103 1925 3103 
Q 1463 3103 1205 2759 
Q 947 2416 947 1791 
Q 947 1169 1205 825 
Q 1463 481 1925 481 
Q 2391 481 2648 825 
Q 2906 1169 2906 1791 
z
M 3481 434 
Q 3481 -459 3084 -895 
Q 2688 -1331 1869 -1331 
Q 1566 -1331 1297 -1286 
Q 1028 -1241 775 -1147 
L 775 -588 
Q 1028 -725 1275 -790 
Q 1522 -856 1778 -856 
Q 2344 -856 2625 -561 
Q 2906 -266 2906 331 
L 2906 616 
Q 2728 306 2450 153 
Q 2172 0 1784 0 
Q 1141 0 747 490 
Q 353 981 353 1791 
Q 353 2603 747 3093 
Q 1141 3584 1784 3584 
Q 2172 3584 2450 3431 
Q 2728 3278 2906 2969 
L 2906 3500 
L 3481 3500 
L 3481 434 
z
" transform="scale(0.015625)"/>
      <path id="DejaVuSans-20" transform="scale(0.015625)"/>
      <path id="DejaVuSans-50" d="M 1259 4147 
L 1259 2394 
L 2053 2394 
Q 2494 2394 2734 2622 
Q 2975 2850 2975 3272 
Q 2975 3691 2734 3919 
Q 2494 4147 2053 4147 
L 1259 4147 
z
M 628 4666 
L 2053 4666 
Q 2838 4666 3239 4311 
Q 3641 3956 3641 3272 
Q 3641 2581 3239 2228 
Q 2838 1875 2053 1875 
L 1259 1875 
L 1259 0 
L 628 0 
L 628 4666 
z
" transform="scale(0.015625)"/>
      <path id="DejaVuSans-72" d="M 2631 2963 
Q 2534 3019 2420 3045 
Q 2306 3072 2169 3072 
Q 1681 3072 1420 2755 
Q 1159 2438 1159 1844 
L 1159 0 
L 581 0 
L 581 3500 
L 1159 3500 
L 1159 2956 
Q 1341 3275 1631 3429 
Q 1922 3584 2338 3584 
Q 2397 3584 2469 3576 
Q 2541 3569 2628 3553 
L 2631 2963 
z
" transform="scale(0.015625)"/>
      <path id="DejaVuSans-63" d="M 3122 3366 
L 3122 2828 
Q 2878 2963 2633 3030 
Q 2388 3097 2138 3097 
Q 1578 3097 1268 2742 
Q 959 2388 959 1747 
Q 959 1106 1268 751 
Q 1578 397 2138 397 
Q 2388 397 2633 464 
Q 2878 531 3122 666 
L 3122 134 
Q 2881 22 2623 -34 
Q 2366 -91 2075 -91 
Q 1284 -91 818 406 
Q 353 903 353 1747 
Q 353 2603 823 3093 
Q 1294 3584 2113 3584 
Q 2378 3584 2631 3529 
Q 2884 3475 3122 3366 
z
" transform="scale(0.015625)"/>
      <path id="DejaVuSans-65" d="M 3597 1894 
L 3597 1613 
L 953 1613 
Q 991 1019 1311 708 
Q 1631 397 2203 397 
Q 2534 397 2845 478 
Q 3156 559 3463 722 
L 3463 178 
Q 3153 47 2828 -22 
Q 2503 -91 2169 -91 
Q 1331 -91 842 396 
Q 353 884 353 1716 
Q 353 2575 817 3079 
Q 1281 3584 2069 3584 
Q 2775 3584 3186 3129 
Q 3597 2675 3597 1894 
z
M 3022 2063 
Q 3016 2534 2758 2815 
Q 2500 3097 2075 3097 
Q 1594 3097 1305 2825 
Q 1016 2553 972 2059 
L 3022 2063 
z
" transform="scale(0.015625)"/>
     </defs>
     <use xlink:href="#DejaVuSans-43"/>
     <use xlink:href="#DejaVuSans-6c" x="69.824219"/>
     <use xlink:href="#DejaVuSans-6f" x="97.607422"/>
     <use xlink:href="#DejaVuSans-73" x="158.789062"/>
     <use xlink:href="#DejaVuSans-69" x="210.888672"/>
     <use xlink:href="#DejaVuSans-6e" x="238.671875"/>
     <use xlink:href="#DejaVuSans-67" x="302.050781"/>
     <use xlink:href="#DejaVuSans-20" x="365.527344"/>
     <use xlink:href="#DejaVuSans-50" x="397.314453"/>
     <use xlink:href="#DejaVuSans-72" x="455.867188"/>
     <use xlink:href="#DejaVuSans-69" x="496.980469"/>
     <use xlink:href="#DejaVuSans-63" x="524.763672"/>
     <use xlink:href="#DejaVuSans-65" x="579.744141"/>
    </g>
   </g>
   <g id="legend_1">
    <g id="patch_7">
     <path d="M 911.144856 85.688125 
L 975.876106 85.688125 
Q 977.876106 85.688125 977.876106 83.688125 
L 977.876106 55.331875 
Q 977.876106 53.331875 975.876106 53.331875 
L 911.144856 53.331875 
Q 909.144856 53.331875 909.144856 55.331875 
L 909.144856 83.688125 
Q 909.144856 85.688125 911.144856 85.688125 
z
" style="fill: #ffffff; opacity: 0.8; stroke: #cccccc; stroke-linejoin: miter"/>
    </g>
    <g id="line2d_41">
     <path d="M 913.144856 61.430312 
L 923.144856 61.430312 
L 933.144856 61.430312 
" style="fill: none; stroke: #1f77b4; stroke-width: 1.5; stroke-linecap: square"/>
    </g>
    <g id="text_9">
     <!-- CLOSE -->
     <g transform="translate(941.144856 64.930312)scale(0.1 -0.1)">
      <defs>
       <path id="DejaVuSans-4c" d="M 628 4666 
L 1259 4666 
L 1259 531 
L 3531 531 
L 3531 0 
L 628 0 
L 628 4666 
z
" transform="scale(0.015625)"/>
       <path id="DejaVuSans-4f" d="M 2522 4238 
Q 1834 4238 1429 3725 
Q 1025 3213 1025 2328 
Q 1025 1447 1429 934 
Q 1834 422 2522 422 
Q 3209 422 3611 934 
Q 4013 1447 4013 2328 
Q 4013 3213 3611 3725 
Q 3209 4238 2522 4238 
z
M 2522 4750 
Q 3503 4750 4090 4092 
Q 4678 3434 4678 2328 
Q 4678 1225 4090 567 
Q 3503 -91 2522 -91 
Q 1538 -91 948 565 
Q 359 1222 359 2328 
Q 359 3434 948 4092 
Q 1538 4750 2522 4750 
z
" transform="scale(0.015625)"/>
       <path id="DejaVuSans-53" d="M 3425 4513 
L 3425 3897 
Q 3066 4069 2747 4153 
Q 2428 4238 2131 4238 
Q 1616 4238 1336 4038 
Q 1056 3838 1056 3469 
Q 1056 3159 1242 3001 
Q 1428 2844 1947 2747 
L 2328 2669 
Q 3034 2534 3370 2195 
Q 3706 1856 3706 1288 
Q 3706 609 3251 259 
Q 2797 -91 1919 -91 
Q 1588 -91 1214 -16 
Q 841 59 441 206 
L 441 856 
Q 825 641 1194 531 
Q 1563 422 1919 422 
Q 2459 422 2753 634 
Q 3047 847 3047 1241 
Q 3047 1584 2836 1778 
Q 2625 1972 2144 2069 
L 1759 2144 
Q 1053 2284 737 2584 
Q 422 2884 422 3419 
Q 422 4038 858 4394 
Q 1294 4750 2059 4750 
Q 2388 4750 2728 4690 
Q 3069 4631 3425 4513 
z
" transform="scale(0.015625)"/>
       <path id="DejaVuSans-45" d="M 628 4666 
L 3578 4666 
L 3578 4134 
L 1259 4134 
L 1259 2753 
L 3481 2753 
L 3481 2222 
L 1259 2222 
L 1259 531 
L 3634 531 
L 3634 0 
L 628 0 
L 628 4666 
z
" transform="scale(0.015625)"/>
      </defs>
      <use xlink:href="#DejaVuSans-43"/>
      <use xlink:href="#DejaVuSans-4c" x="69.824219"/>
      <use xlink:href="#DejaVuSans-4f" x="121.912109"/>
      <use xlink:href="#DejaVuSans-53" x="200.623047"/>
      <use xlink:href="#DejaVuSans-45" x="264.099609"/>
     </g>
    </g>
    <g id="line2d_42">
     <path d="M 913.144856 76.108437 
L 923.144856 76.108437 
L 933.144856 76.108437 
" style="fill: none; stroke: #ff7f0e; stroke-width: 1.5; stroke-linecap: square"/>
    </g>
    <g id="text_10">
     <!-- SMA5 -->
     <g transform="translate(941.144856 79.608437)scale(0.1 -0.1)">
      <defs>
       <path id="DejaVuSans-4d" d="M 628 4666 
L 1569 4666 
L 2759 1491 
L 3956 4666 
L 4897 4666 
L 4897 0 
L 4281 0 
L 4281 4097 
L 3078 897 
L 2444 897 
L 1241 4097 
L 1241 0 
L 628 0 
L 628 4666 
z
" transform="scale(0.015625)"/>
       <path id="DejaVuSans-41" d="M 2188 4044 
L 1331 1722 
L 3047 1722 
L 2188 4044 
z
M 1831 4666 
L 2547 4666 
L 4325 0 
L 3669 0 
L 3244 1197 
L 1141 1197 
L 716 0 
L 50 0 
L 1831 4666 
z
" transform="scale(0.015625)"/>
       <path id="DejaVuSans-35" d="M 691 4666 
L 3169 4666 
L 3169 4134 
L 1269 4134 
L 1269 2991 
Q 1406 3038 1543 3061 
Q 1681 3084 1819 3084 
Q 2600 3084 3056 2656 
Q 3513 2228 3513 1497 
Q 3513 744 3044 326 
Q 2575 -91 1722 -91 
Q 1428 -91 1123 -41 
Q 819 9 494 109 
L 494 744 
Q 775 591 1075 516 
Q 1375 441 1709 441 
Q 2250 441 2565 725 
Q 2881 1009 2881 1497 
Q 2881 1984 2565 2268 
Q 2250 2553 1709 2553 
Q 1456 2553 1204 2497 
Q 953 2441 691 2322 
L 691 4666 
z
" transform="scale(0.015625)"/>
      </defs>
      <use xlink:href="#DejaVuSans-53"/>
      <use xlink:href="#DejaVuSans-4d" x="63.476562"/>
      <use xlink:href="#DejaVuSans-41" x="149.755859"/>
      <use xlink:href="#DejaVuSans-35" x="218.164062"/>
     </g>
    </g>
   </g>
  </g>
  <g id="axes_2">
   <g id="patch_8">
    <path d="M 45.267188 584.521875 
L 982.876106 584.521875 
L 982.876106 331.135938 
L 45.267188 331.135938 
z
" style="fill: #ffffff"/>
   </g>
   <g id="matplotlib.axis_3">
    <g id="xtick_13">
     <g id="line2d_43">
      <path d="M 82.541751 584.521875 
L 82.541751 331.135938 
" clip-path="url(#p0c95b07059)" style="fill: none; stroke-dasharray: 2.96,1.28; stroke-dashoffset: 0; stroke: #b0b0b0; stroke-width: 0.8"/>
     </g>
     <g id="line2d_44">
      <g>
       <use xlink:href="#m90abae22cf" x="82.541751" y="584.521875" style="stroke: #000000; stroke-width: 0.8"/>
      </g>
     </g>
     <g id="text_11">
      <!-- 2022-01 -->
      <g transform="translate(61.650345 599.120312)scale(0.1 -0.1)">
       <defs>
        <path id="DejaVuSans-2d" d="M 313 2009 
L 1997 2009 
L 1997 1497 
L 313 1497 
L 313 2009 
z
" transform="scale(0.015625)"/>
       </defs>
       <use xlink:href="#DejaVuSans-32"/>
       <use xlink:href="#DejaVuSans-30" x="63.623047"/>
       <use xlink:href="#DejaVuSans-32" x="127.246094"/>
       <use xlink:href="#DejaVuSans-32" x="190.869141"/>
       <use xlink:href="#DejaVuSans-2d" x="254.492188"/>
       <use xlink:href="#DejaVuSans-30" x="290.576172"/>
       <use xlink:href="#DejaVuSans-31" x="354.199219"/>
      </g>
     </g>
    </g>
    <g id="xtick_14">
     <g id="line2d_45">
      <path d="M 165.374115 584.521875 
L 165.374115 331.135938 
" clip-path="url(#p0c95b07059)" style="fill: none; stroke-dasharray: 2.96,1.28; stroke-dashoffset: 0; stroke: #b0b0b0; stroke-width: 0.8"/>
     </g>
     <g id="line2d_46">
      <g>
       <use xlink:href="#m90abae22cf" x="165.374115" y="584.521875" style="stroke: #000000; stroke-width: 0.8"/>
      </g>
     </g>
     <g id="text_12">
      <!-- 2022-02 -->
      <g transform="translate(144.482709 599.120312)scale(0.1 -0.1)">
       <use xlink:href="#DejaVuSans-32"/>
       <use xlink:href="#DejaVuSans-30" x="63.623047"/>
       <use xlink:href="#DejaVuSans-32" x="127.246094"/>
       <use xlink:href="#DejaVuSans-32" x="190.869141"/>
       <use xlink:href="#DejaVuSans-2d" x="254.492188"/>
       <use xlink:href="#DejaVuSans-30" x="290.576172"/>
       <use xlink:href="#DejaVuSans-32" x="354.199219"/>
      </g>
     </g>
    </g>
    <g id="xtick_15">
     <g id="line2d_47">
      <path d="M 240.190444 584.521875 
L 240.190444 331.135938 
" clip-path="url(#p0c95b07059)" style="fill: none; stroke-dasharray: 2.96,1.28; stroke-dashoffset: 0; stroke: #b0b0b0; stroke-width: 0.8"/>
     </g>
     <g id="line2d_48">
      <g>
       <use xlink:href="#m90abae22cf" x="240.190444" y="584.521875" style="stroke: #000000; stroke-width: 0.8"/>
      </g>
     </g>
     <g id="text_13">
      <!-- 2022-03 -->
      <g transform="translate(219.299037 599.120312)scale(0.1 -0.1)">
       <defs>
        <path id="DejaVuSans-33" d="M 2597 2516 
Q 3050 2419 3304 2112 
Q 3559 1806 3559 1356 
Q 3559 666 3084 287 
Q 2609 -91 1734 -91 
Q 1441 -91 1130 -33 
Q 819 25 488 141 
L 488 750 
Q 750 597 1062 519 
Q 1375 441 1716 441 
Q 2309 441 2620 675 
Q 2931 909 2931 1356 
Q 2931 1769 2642 2001 
Q 2353 2234 1838 2234 
L 1294 2234 
L 1294 2753 
L 1863 2753 
Q 2328 2753 2575 2939 
Q 2822 3125 2822 3475 
Q 2822 3834 2567 4026 
Q 2313 4219 1838 4219 
Q 1578 4219 1281 4162 
Q 984 4106 628 3988 
L 628 4550 
Q 988 4650 1302 4700 
Q 1616 4750 1894 4750 
Q 2613 4750 3031 4423 
Q 3450 4097 3450 3541 
Q 3450 3153 3228 2886 
Q 3006 2619 2597 2516 
z
" transform="scale(0.015625)"/>
       </defs>
       <use xlink:href="#DejaVuSans-32"/>
       <use xlink:href="#DejaVuSans-30" x="63.623047"/>
       <use xlink:href="#DejaVuSans-32" x="127.246094"/>
       <use xlink:href="#DejaVuSans-32" x="190.869141"/>
       <use xlink:href="#DejaVuSans-2d" x="254.492188"/>
       <use xlink:href="#DejaVuSans-30" x="290.576172"/>
       <use xlink:href="#DejaVuSans-33" x="354.199219"/>
      </g>
     </g>
    </g>
    <g id="xtick_16">
     <g id="line2d_49">
      <path d="M 323.022808 584.521875 
L 323.022808 331.135938 
" clip-path="url(#p0c95b07059)" style="fill: none; stroke-dasharray: 2.96,1.28; stroke-dashoffset: 0; stroke: #b0b0b0; stroke-width: 0.8"/>
     </g>
     <g id="line2d_50">
      <g>
       <use xlink:href="#m90abae22cf" x="323.022808" y="584.521875" style="stroke: #000000; stroke-width: 0.8"/>
      </g>
     </g>
     <g id="text_14">
      <!-- 2022-04 -->
      <g transform="translate(302.131401 599.120312)scale(0.1 -0.1)">
       <use xlink:href="#DejaVuSans-32"/>
       <use xlink:href="#DejaVuSans-30" x="63.623047"/>
       <use xlink:href="#DejaVuSans-32" x="127.246094"/>
       <use xlink:href="#DejaVuSans-32" x="190.869141"/>
       <use xlink:href="#DejaVuSans-2d" x="254.492188"/>
       <use xlink:href="#DejaVuSans-30" x="290.576172"/>
       <use xlink:href="#DejaVuSans-34" x="354.199219"/>
      </g>
     </g>
    </g>
    <g id="xtick_17">
     <g id="line2d_51">
      <path d="M 403.18316 584.521875 
L 403.18316 331.135938 
" clip-path="url(#p0c95b07059)" style="fill: none; stroke-dasharray: 2.96,1.28; stroke-dashoffset: 0; stroke: #b0b0b0; stroke-width: 0.8"/>
     </g>
     <g id="line2d_52">
      <g>
       <use xlink:href="#m90abae22cf" x="403.18316" y="584.521875" style="stroke: #000000; stroke-width: 0.8"/>
      </g>
     </g>
     <g id="text_15">
      <!-- 2022-05 -->
      <g transform="translate(382.291753 599.120312)scale(0.1 -0.1)">
       <use xlink:href="#DejaVuSans-32"/>
       <use xlink:href="#DejaVuSans-30" x="63.623047"/>
       <use xlink:href="#DejaVuSans-32" x="127.246094"/>
       <use xlink:href="#DejaVuSans-32" x="190.869141"/>
       <use xlink:href="#DejaVuSans-2d" x="254.492188"/>
       <use xlink:href="#DejaVuSans-30" x="290.576172"/>
       <use xlink:href="#DejaVuSans-35" x="354.199219"/>
      </g>
     </g>
    </g>
    <g id="xtick_18">
     <g id="line2d_53">
      <path d="M 486.015523 584.521875 
L 486.015523 331.135938 
" clip-path="url(#p0c95b07059)" style="fill: none; stroke-dasharray: 2.96,1.28; stroke-dashoffset: 0; stroke: #b0b0b0; stroke-width: 0.8"/>
     </g>
     <g id="line2d_54">
      <g>
       <use xlink:href="#m90abae22cf" x="486.015523" y="584.521875" style="stroke: #000000; stroke-width: 0.8"/>
      </g>
     </g>
     <g id="text_16">
      <!-- 2022-06 -->
      <g transform="translate(465.124117 599.120312)scale(0.1 -0.1)">
       <use xlink:href="#DejaVuSans-32"/>
       <use xlink:href="#DejaVuSans-30" x="63.623047"/>
       <use xlink:href="#DejaVuSans-32" x="127.246094"/>
       <use xlink:href="#DejaVuSans-32" x="190.869141"/>
       <use xlink:href="#DejaVuSans-2d" x="254.492188"/>
       <use xlink:href="#DejaVuSans-30" x="290.576172"/>
       <use xlink:href="#DejaVuSans-36" x="354.199219"/>
      </g>
     </g>
    </g>
    <g id="xtick_19">
     <g id="line2d_55">
      <path d="M 566.175876 584.521875 
L 566.175876 331.135938 
" clip-path="url(#p0c95b07059)" style="fill: none; stroke-dasharray: 2.96,1.28; stroke-dashoffset: 0; stroke: #b0b0b0; stroke-width: 0.8"/>
     </g>
     <g id="line2d_56">
      <g>
       <use xlink:href="#m90abae22cf" x="566.175876" y="584.521875" style="stroke: #000000; stroke-width: 0.8"/>
      </g>
     </g>
     <g id="text_17">
      <!-- 2022-07 -->
      <g transform="translate(545.284469 599.120312)scale(0.1 -0.1)">
       <defs>
        <path id="DejaVuSans-37" d="M 525 4666 
L 3525 4666 
L 3525 4397 
L 1831 0 
L 1172 0 
L 2766 4134 
L 525 4134 
L 525 4666 
z
" transform="scale(0.015625)"/>
       </defs>
       <use xlink:href="#DejaVuSans-32"/>
       <use xlink:href="#DejaVuSans-30" x="63.623047"/>
       <use xlink:href="#DejaVuSans-32" x="127.246094"/>
       <use xlink:href="#DejaVuSans-32" x="190.869141"/>
       <use xlink:href="#DejaVuSans-2d" x="254.492188"/>
       <use xlink:href="#DejaVuSans-30" x="290.576172"/>
       <use xlink:href="#DejaVuSans-37" x="354.199219"/>
      </g>
     </g>
    </g>
    <g id="xtick_20">
     <g id="line2d_57">
      <path d="M 649.008239 584.521875 
L 649.008239 331.135938 
" clip-path="url(#p0c95b07059)" style="fill: none; stroke-dasharray: 2.96,1.28; stroke-dashoffset: 0; stroke: #b0b0b0; stroke-width: 0.8"/>
     </g>
     <g id="line2d_58">
      <g>
       <use xlink:href="#m90abae22cf" x="649.008239" y="584.521875" style="stroke: #000000; stroke-width: 0.8"/>
      </g>
     </g>
     <g id="text_18">
      <!-- 2022-08 -->
      <g transform="translate(628.116833 599.120312)scale(0.1 -0.1)">
       <use xlink:href="#DejaVuSans-32"/>
       <use xlink:href="#DejaVuSans-30" x="63.623047"/>
       <use xlink:href="#DejaVuSans-32" x="127.246094"/>
       <use xlink:href="#DejaVuSans-32" x="190.869141"/>
       <use xlink:href="#DejaVuSans-2d" x="254.492188"/>
       <use xlink:href="#DejaVuSans-30" x="290.576172"/>
       <use xlink:href="#DejaVuSans-38" x="354.199219"/>
      </g>
     </g>
    </g>
    <g id="xtick_21">
     <g id="line2d_59">
      <path d="M 731.840603 584.521875 
L 731.840603 331.135938 
" clip-path="url(#p0c95b07059)" style="fill: none; stroke-dasharray: 2.96,1.28; stroke-dashoffset: 0; stroke: #b0b0b0; stroke-width: 0.8"/>
     </g>
     <g id="line2d_60">
      <g>
       <use xlink:href="#m90abae22cf" x="731.840603" y="584.521875" style="stroke: #000000; stroke-width: 0.8"/>
      </g>
     </g>
     <g id="text_19">
      <!-- 2022-09 -->
      <g transform="translate(710.949197 599.120312)scale(0.1 -0.1)">
       <defs>
        <path id="DejaVuSans-39" d="M 703 97 
L 703 672 
Q 941 559 1184 500 
Q 1428 441 1663 441 
Q 2288 441 2617 861 
Q 2947 1281 2994 2138 
Q 2813 1869 2534 1725 
Q 2256 1581 1919 1581 
Q 1219 1581 811 2004 
Q 403 2428 403 3163 
Q 403 3881 828 4315 
Q 1253 4750 1959 4750 
Q 2769 4750 3195 4129 
Q 3622 3509 3622 2328 
Q 3622 1225 3098 567 
Q 2575 -91 1691 -91 
Q 1453 -91 1209 -44 
Q 966 3 703 97 
z
M 1959 2075 
Q 2384 2075 2632 2365 
Q 2881 2656 2881 3163 
Q 2881 3666 2632 3958 
Q 2384 4250 1959 4250 
Q 1534 4250 1286 3958 
Q 1038 3666 1038 3163 
Q 1038 2656 1286 2365 
Q 1534 2075 1959 2075 
z
" transform="scale(0.015625)"/>
       </defs>
       <use xlink:href="#DejaVuSans-32"/>
       <use xlink:href="#DejaVuSans-30" x="63.623047"/>
       <use xlink:href="#DejaVuSans-32" x="127.246094"/>
       <use xlink:href="#DejaVuSans-32" x="190.869141"/>
       <use xlink:href="#DejaVuSans-2d" x="254.492188"/>
       <use xlink:href="#DejaVuSans-30" x="290.576172"/>
       <use xlink:href="#DejaVuSans-39" x="354.199219"/>
      </g>
     </g>
    </g>
    <g id="xtick_22">
     <g id="line2d_61">
      <path d="M 812.000955 584.521875 
L 812.000955 331.135938 
" clip-path="url(#p0c95b07059)" style="fill: none; stroke-dasharray: 2.96,1.28; stroke-dashoffset: 0; stroke: #b0b0b0; stroke-width: 0.8"/>
     </g>
     <g id="line2d_62">
      <g>
       <use xlink:href="#m90abae22cf" x="812.000955" y="584.521875" style="stroke: #000000; stroke-width: 0.8"/>
      </g>
     </g>
     <g id="text_20">
      <!-- 2022-10 -->
      <g transform="translate(791.109549 599.120312)scale(0.1 -0.1)">
       <use xlink:href="#DejaVuSans-32"/>
       <use xlink:href="#DejaVuSans-30" x="63.623047"/>
       <use xlink:href="#DejaVuSans-32" x="127.246094"/>
       <use xlink:href="#DejaVuSans-32" x="190.869141"/>
       <use xlink:href="#DejaVuSans-2d" x="254.492188"/>
       <use xlink:href="#DejaVuSans-31" x="290.576172"/>
       <use xlink:href="#DejaVuSans-30" x="354.199219"/>
      </g>
     </g>
    </g>
    <g id="xtick_23">
     <g id="line2d_63">
      <path d="M 894.833319 584.521875 
L 894.833319 331.135938 
" clip-path="url(#p0c95b07059)" style="fill: none; stroke-dasharray: 2.96,1.28; stroke-dashoffset: 0; stroke: #b0b0b0; stroke-width: 0.8"/>
     </g>
     <g id="line2d_64">
      <g>
       <use xlink:href="#m90abae22cf" x="894.833319" y="584.521875" style="stroke: #000000; stroke-width: 0.8"/>
      </g>
     </g>
     <g id="text_21">
      <!-- 2022-11 -->
      <g transform="translate(873.941913 599.120312)scale(0.1 -0.1)">
       <use xlink:href="#DejaVuSans-32"/>
       <use xlink:href="#DejaVuSans-30" x="63.623047"/>
       <use xlink:href="#DejaVuSans-32" x="127.246094"/>
       <use xlink:href="#DejaVuSans-32" x="190.869141"/>
       <use xlink:href="#DejaVuSans-2d" x="254.492188"/>
       <use xlink:href="#DejaVuSans-31" x="290.576172"/>
       <use xlink:href="#DejaVuSans-31" x="354.199219"/>
      </g>
     </g>
    </g>
    <g id="xtick_24">
     <g id="line2d_65">
      <path d="M 974.993671 584.521875 
L 974.993671 331.135938 
" clip-path="url(#p0c95b07059)" style="fill: none; stroke-dasharray: 2.96,1.28; stroke-dashoffset: 0; stroke: #b0b0b0; stroke-width: 0.8"/>
     </g>
     <g id="line2d_66">
      <g>
       <use xlink:href="#m90abae22cf" x="974.993671" y="584.521875" style="stroke: #000000; stroke-width: 0.8"/>
      </g>
     </g>
     <g id="text_22">
      <!-- 2022-12 -->
      <g transform="translate(954.102265 599.120312)scale(0.1 -0.1)">
       <use xlink:href="#DejaVuSans-32"/>
       <use xlink:href="#DejaVuSans-30" x="63.623047"/>
       <use xlink:href="#DejaVuSans-32" x="127.246094"/>
       <use xlink:href="#DejaVuSans-32" x="190.869141"/>
       <use xlink:href="#DejaVuSans-2d" x="254.492188"/>
       <use xlink:href="#DejaVuSans-31" x="290.576172"/>
       <use xlink:href="#DejaVuSans-32" x="354.199219"/>
      </g>
     </g>
    </g>
   </g>
   <g id="matplotlib.axis_4">
    <g id="ytick_8">
     <g id="line2d_67">
      <path d="M 45.267188 548.528637 
L 982.876106 548.528637 
" clip-path="url(#p0c95b07059)" style="fill: none; stroke-dasharray: 2.96,1.28; stroke-dashoffset: 0; stroke: #b0b0b0; stroke-width: 0.8"/>
     </g>
     <g id="line2d_68">
      <g>
       <use xlink:href="#m65bff9e70d" x="45.267188" y="548.528637" style="stroke: #000000; stroke-width: 0.8"/>
      </g>
     </g>
     <g id="text_23">
      <!-- −200 -->
      <g transform="translate(10.8 552.327856)scale(0.1 -0.1)">
       <defs>
        <path id="DejaVuSans-2212" d="M 678 2272 
L 4684 2272 
L 4684 1741 
L 678 1741 
L 678 2272 
z
" transform="scale(0.015625)"/>
       </defs>
       <use xlink:href="#DejaVuSans-2212"/>
       <use xlink:href="#DejaVuSans-32" x="83.789062"/>
       <use xlink:href="#DejaVuSans-30" x="147.412109"/>
       <use xlink:href="#DejaVuSans-30" x="211.035156"/>
      </g>
     </g>
    </g>
    <g id="ytick_9">
     <g id="line2d_69">
      <path d="M 45.267188 504.592429 
L 982.876106 504.592429 
" clip-path="url(#p0c95b07059)" style="fill: none; stroke-dasharray: 2.96,1.28; stroke-dashoffset: 0; stroke: #b0b0b0; stroke-width: 0.8"/>
     </g>
     <g id="line2d_70">
      <g>
       <use xlink:href="#m65bff9e70d" x="45.267188" y="504.592429" style="stroke: #000000; stroke-width: 0.8"/>
      </g>
     </g>
     <g id="text_24">
      <!-- −150 -->
      <g transform="translate(10.8 508.391648)scale(0.1 -0.1)">
       <use xlink:href="#DejaVuSans-2212"/>
       <use xlink:href="#DejaVuSans-31" x="83.789062"/>
       <use xlink:href="#DejaVuSans-35" x="147.412109"/>
       <use xlink:href="#DejaVuSans-30" x="211.035156"/>
      </g>
     </g>
    </g>
    <g id="ytick_10">
     <g id="line2d_71">
      <path d="M 45.267188 460.65622 
L 982.876106 460.65622 
" clip-path="url(#p0c95b07059)" style="fill: none; stroke-dasharray: 2.96,1.28; stroke-dashoffset: 0; stroke: #b0b0b0; stroke-width: 0.8"/>
     </g>
     <g id="line2d_72">
      <g>
       <use xlink:href="#m65bff9e70d" x="45.267188" y="460.65622" style="stroke: #000000; stroke-width: 0.8"/>
      </g>
     </g>
     <g id="text_25">
      <!-- −100 -->
      <g transform="translate(10.8 464.455439)scale(0.1 -0.1)">
       <use xlink:href="#DejaVuSans-2212"/>
       <use xlink:href="#DejaVuSans-31" x="83.789062"/>
       <use xlink:href="#DejaVuSans-30" x="147.412109"/>
       <use xlink:href="#DejaVuSans-30" x="211.035156"/>
      </g>
     </g>
    </g>
    <g id="ytick_11">
     <g id="line2d_73">
      <path d="M 45.267188 416.720012 
L 982.876106 416.720012 
" clip-path="url(#p0c95b07059)" style="fill: none; stroke-dasharray: 2.96,1.28; stroke-dashoffset: 0; stroke: #b0b0b0; stroke-width: 0.8"/>
     </g>
     <g id="line2d_74">
      <g>
       <use xlink:href="#m65bff9e70d" x="45.267188" y="416.720012" style="stroke: #000000; stroke-width: 0.8"/>
      </g>
     </g>
     <g id="text_26">
      <!-- −50 -->
      <g transform="translate(17.1625 420.51923)scale(0.1 -0.1)">
       <use xlink:href="#DejaVuSans-2212"/>
       <use xlink:href="#DejaVuSans-35" x="83.789062"/>
       <use xlink:href="#DejaVuSans-30" x="147.412109"/>
      </g>
     </g>
    </g>
    <g id="ytick_12">
     <g id="line2d_75">
      <path d="M 45.267188 372.783803 
L 982.876106 372.783803 
" clip-path="url(#p0c95b07059)" style="fill: none; stroke-dasharray: 2.96,1.28; stroke-dashoffset: 0; stroke: #b0b0b0; stroke-width: 0.8"/>
     </g>
     <g id="line2d_76">
      <g>
       <use xlink:href="#m65bff9e70d" x="45.267188" y="372.783803" style="stroke: #000000; stroke-width: 0.8"/>
      </g>
     </g>
     <g id="text_27">
      <!-- 0 -->
      <g transform="translate(31.904688 376.583022)scale(0.1 -0.1)">
       <use xlink:href="#DejaVuSans-30"/>
      </g>
     </g>
    </g>
   </g>
   <g id="line2d_77">
    <path d="M 87.885775 372.783803 
L 90.557786 372.658613 
L 93.229798 371.83951 
L 98.573822 372.121955 
L 106.589857 371.913644 
L 109.261869 373.339578 
L 111.93388 373.578401 
L 114.605892 370.507715 
L 117.277904 368.704299 
L 125.293939 366.702279 
L 127.965951 367.00183 
L 130.637962 366.568532 
L 133.309974 366.472616 
L 135.981986 368.410167 
L 143.998021 373.692591 
L 146.670033 377.171541 
L 152.014056 380.931611 
L 154.686068 383.930723 
L 162.702103 386.056216 
L 165.374115 382.783849 
L 168.046127 380.122353 
L 170.718139 378.024965 
L 173.39015 375.748136 
L 181.406185 373.533525 
L 184.078197 369.542521 
L 186.750209 366.299555 
L 189.422221 362.212839 
L 192.094232 358.760783 
L 200.110268 360.543001 
L 202.782279 360.7336 
L 208.126303 363.26463 
L 210.798315 364.331104 
L 218.81435 365.851179 
L 221.486362 369.9714 
L 224.158373 373.207379 
L 226.830385 380.066368 
L 229.502397 380.577829 
L 237.518432 375.827348 
L 242.862455 367.454025 
L 245.534467 360.017674 
L 248.206479 356.116378 
L 258.894526 350.978077 
L 261.566538 351.19875 
L 264.238549 347.971875 
L 266.910561 346.207915 
L 274.926596 345.452736 
L 277.598608 349.519734 
L 280.27062 350.803442 
L 282.942631 349.427792 
L 296.30269 348.384903 
L 298.974702 346.449204 
L 301.646714 343.88032 
L 304.318725 343.001739 
L 312.334761 342.65348 
L 315.006772 343.023012 
L 317.678784 345.499634 
L 320.350796 347.810205 
L 323.022808 349.216732 
L 333.710854 348.647654 
L 336.382866 346.954573 
L 339.054878 347.403775 
L 341.72689 346.56357 
L 349.742925 347.100666 
L 352.414937 350.441404 
L 355.086948 353.365779 
L 368.447007 354.509756 
L 371.119019 356.487392 
L 373.791031 359.085352 
L 376.463042 362.122424 
L 379.135054 366.342772 
L 387.151089 373.721474 
L 389.823101 378.565139 
L 392.495113 381.377838 
L 395.167124 382.493713 
L 397.839136 382.543674 
L 405.855171 380.781787 
L 411.199195 381.679053 
L 413.871207 380.677901 
L 416.543218 379.842053 
L 424.559254 381.308362 
L 427.231265 388.475431 
L 429.903277 393.855702 
L 432.575289 401.191888 
L 435.2473 408.06534 
L 443.263336 412.593111 
L 445.935347 409.719463 
L 448.607359 407.638942 
L 451.279371 409.681389 
L 453.951383 407.467097 
L 461.967418 415.680473 
L 464.63943 422.789462 
L 467.311441 428.297167 
L 472.655465 428.217703 
L 480.6715 427.265629 
L 483.343512 425.324215 
L 486.015523 422.650814 
L 488.687535 418.726627 
L 491.359547 416.127125 
L 499.375582 412.839684 
L 502.047594 410.480324 
L 504.719606 406.923254 
L 507.391617 406.683738 
L 510.063629 407.591998 
L 518.079664 410.132075 
L 520.751676 411.402168 
L 523.423688 414.522289 
L 526.095699 420.54568 
L 528.767711 424.370106 
L 536.783746 429.953556 
L 539.455758 432.036444 
L 542.12777 436.266264 
L 544.799782 438.632473 
L 547.471793 438.926366 
L 555.487829 437.351481 
L 558.15984 434.60726 
L 560.831852 431.563433 
L 563.503864 429.528657 
L 566.175876 426.881249 
L 574.191911 425.473277 
L 579.535934 421.298571 
L 582.207946 416.183705 
L 584.879958 412.670077 
L 592.895993 407.580645 
L 595.568005 403.943163 
L 598.240016 400.54543 
L 600.912028 397.346215 
L 603.58404 396.256105 
L 611.600075 393.697578 
L 619.61611 383.720104 
L 622.288122 380.925055 
L 630.304157 376.914552 
L 632.976169 374.510425 
L 635.648181 371.913219 
L 638.320192 430.104754 
L 640.992204 474.534971 
L 649.008239 508.139841 
L 651.680251 533.013538 
L 654.352263 550.671987 
L 657.024275 562.434169 
L 659.696286 569.512826 
L 667.712322 572.827366 
L 673.056345 573.004332 
L 675.728357 570.868272 
L 678.400368 566.688501 
L 689.088415 561.179475 
L 691.760427 554.751374 
L 697.104451 540.247271 
L 705.120486 532.89896 
L 715.808533 502.037069 
L 723.824568 494.734012 
L 726.49658 487.380661 
L 731.840603 480.446726 
L 734.512615 473.850315 
L 742.52865 467.432295 
L 745.200662 461.206151 
L 747.872674 455.390552 
L 750.544685 450.015455 
L 753.216697 444.934578 
L 761.232732 439.987903 
L 766.576756 430.898872 
L 769.248768 426.902737 
L 771.920779 423.246248 
L 779.936814 419.988661 
L 782.608826 416.70921 
L 785.280838 413.733897 
L 790.624861 408.365904 
L 798.640897 406.211942 
L 801.312908 404.297632 
L 806.656932 400.832972 
L 809.328944 398.948993 
L 817.344979 397.241355 
L 820.016991 395.42847 
L 825.361014 393.581826 
L 828.033026 391.915535 
L 836.049061 390.39902 
L 841.393084 388.077046 
L 846.737108 386.076984 
L 854.753143 385.204267 
L 860.097167 383.505649 
L 865.44119 382.004973 
L 873.457225 381.285203 
L 876.129237 380.624398 
L 881.47326 379.80703 
L 884.145272 379.268858 
L 892.161307 378.776815 
L 900.177343 377.517016 
L 902.849354 376.935527 
L 916.209413 375.796874 
L 918.881425 375.469667 
L 921.553437 374.982922 
L 929.569472 374.495896 
L 932.241483 374.105326 
L 937.585507 373.818824 
L 940.257519 373.7488 
L 940.257519 373.7488 
" clip-path="url(#p0c95b07059)" style="fill: none; stroke: #1f77b4; stroke-width: 1.5; stroke-linecap: square"/>
   </g>
   <g id="line2d_78">
    <path d="M 87.885775 372.783803 
L 90.557786 372.714253 
L 93.229798 372.355752 
L 98.573822 372.18854 
L 106.589857 372.114028 
L 111.93388 372.701563 
L 114.605892 372.194773 
L 117.277904 371.412704 
L 125.293939 370.38209 
L 130.637962 369.002704 
L 133.309974 368.473408 
L 135.981986 368.460299 
L 143.998021 369.537065 
L 146.670033 371.099135 
L 152.014056 373.101706 
L 154.686068 375.299178 
L 162.702103 377.475679 
L 165.374115 378.547196 
L 168.046127 378.864569 
L 170.718139 378.695651 
L 173.39015 378.103351 
L 181.406185 377.18592 
L 184.078197 375.652606 
L 186.750209 373.777462 
L 189.422221 371.460055 
L 192.094232 368.916264 
L 200.110268 367.239536 
L 202.782279 365.937059 
L 205.454291 365.159755 
L 208.126303 364.780489 
L 210.798315 364.690567 
L 218.81435 364.922783 
L 221.486362 365.932834 
L 224.158373 367.388121 
L 226.830385 369.924297 
L 229.502397 372.055358 
L 237.518432 372.809856 
L 242.862455 371.738576 
L 245.534467 369.394196 
L 248.206479 366.738452 
L 256.222514 363.84013 
L 258.894526 361.267607 
L 261.566538 359.253765 
L 266.910561 354.839394 
L 277.598608 352.27356 
L 280.27062 351.979533 
L 282.942631 351.46918 
L 293.630678 350.905662 
L 296.30269 350.401507 
L 298.974702 349.611043 
L 304.318725 347.37226 
L 312.334761 346.428502 
L 315.006772 345.747402 
L 317.678784 345.697849 
L 320.350796 346.12032 
L 323.022808 346.739603 
L 331.038843 347.164029 
L 333.710854 347.460754 
L 341.72689 347.207409 
L 349.742925 347.186061 
L 352.414937 347.837129 
L 355.086948 348.942859 
L 368.447007 350.056239 
L 371.119019 351.34247 
L 373.791031 352.891046 
L 376.463042 354.737322 
L 379.135054 357.058412 
L 387.151089 360.391025 
L 392.495113 367.496246 
L 395.167124 370.495739 
L 397.839136 372.905326 
L 405.855171 374.480618 
L 411.199195 375.920305 
L 413.871207 376.871824 
L 416.543218 377.46587 
L 424.559254 378.234368 
L 427.231265 380.282581 
L 429.903277 382.997205 
L 432.575289 386.636142 
L 435.2473 390.921981 
L 443.263336 395.256207 
L 445.935347 398.148858 
L 451.279371 401.973778 
L 453.951383 403.072442 
L 461.967418 405.594048 
L 464.63943 409.033131 
L 467.311441 412.885938 
L 469.983453 415.963405 
L 472.655465 418.414264 
L 480.6715 420.184537 
L 483.343512 421.212473 
L 486.015523 421.500141 
L 488.687535 420.945438 
L 491.359547 419.981776 
L 499.375582 418.553357 
L 502.047594 416.93875 
L 504.719606 414.935651 
L 507.391617 413.285268 
L 510.063629 412.146614 
L 520.751676 411.675399 
L 523.423688 412.244777 
L 526.095699 413.904957 
L 528.767711 415.997987 
L 536.783746 418.789101 
L 539.455758 421.438569 
L 544.799782 427.249781 
L 547.471793 429.585098 
L 555.487829 431.138375 
L 558.15984 431.832152 
L 560.831852 431.778408 
L 563.503864 431.328458 
L 566.175876 430.439016 
L 574.191911 429.445868 
L 576.863922 428.232132 
L 579.535934 426.84542 
L 582.207946 424.713077 
L 584.879958 422.304477 
L 592.895993 419.35971 
L 600.912028 409.973408 
L 603.58404 407.229948 
L 611.600075 404.523474 
L 616.944099 398.752255 
L 622.288122 392.781671 
L 630.304157 389.608247 
L 635.648181 383.65359 
L 638.320192 392.943823 
L 640.992204 409.262052 
L 649.008239 429.03761 
L 654.352263 470.000634 
L 657.024275 488.487341 
L 659.696286 504.692438 
L 667.712322 518.319424 
L 673.056345 529.256405 
L 675.728357 537.578779 
L 678.400368 543.400723 
L 689.088415 546.956473 
L 691.760427 548.515454 
L 694.432439 548.339943 
L 697.104451 546.721409 
L 705.120486 543.956919 
L 707.792498 540.193198 
L 710.464509 535.633639 
L 713.136521 530.447322 
L 715.808533 524.765271 
L 723.824568 518.759019 
L 726.49658 512.483348 
L 731.840603 506.076023 
L 734.512615 499.630882 
L 742.52865 493.191164 
L 747.872674 480.51344 
L 753.216697 468.51799 
L 761.232732 462.811973 
L 766.576756 452.034868 
L 769.248768 447.008442 
L 771.920779 442.256003 
L 779.936814 437.802535 
L 782.608826 433.58387 
L 785.280838 429.613875 
L 787.95285 425.890245 
L 790.624861 422.385377 
L 798.640897 419.15069 
L 801.312908 416.180078 
L 803.98492 413.466147 
L 809.328944 408.541408 
L 817.344979 406.281398 
L 820.016991 404.110812 
L 825.361014 402.005015 
L 828.033026 399.987119 
L 836.049061 398.069499 
L 841.393084 394.653473 
L 846.737108 391.721099 
L 854.753143 390.417732 
L 860.097167 388.056776 
L 865.44119 385.989342 
L 873.457225 385.048514 
L 876.129237 384.163691 
L 881.47326 383.292359 
L 884.145272 382.487659 
L 892.161307 381.74549 
L 897.505331 380.441585 
L 902.849354 379.272442 
L 910.86539 378.677142 
L 916.209413 378.101088 
L 921.553437 377.056428 
L 929.569472 376.544321 
L 934.913495 375.63011 
L 940.257519 374.964042 
L 940.257519 374.964042 
" clip-path="url(#p0c95b07059)" style="fill: none; stroke: #ff7f0e; stroke-width: 1.5; stroke-linecap: square"/>
   </g>
   <g id="patch_9">
    <path d="M 45.267188 584.521875 
L 45.267188 331.135938 
" style="fill: none; stroke: #000000; stroke-width: 0.8; stroke-linejoin: miter; stroke-linecap: square"/>
   </g>
   <g id="patch_10">
    <path d="M 982.876106 584.521875 
L 982.876106 331.135938 
" style="fill: none; stroke: #000000; stroke-width: 0.8; stroke-linejoin: miter; stroke-linecap: square"/>
   </g>
   <g id="patch_11">
    <path d="M 45.267188 584.521875 
L 982.876106 584.521875 
" style="fill: none; stroke: #000000; stroke-width: 0.8; stroke-linejoin: miter; stroke-linecap: square"/>
   </g>
   <g id="patch_12">
    <path d="M 45.267188 331.135938 
L 982.876106 331.135938 
" style="fill: none; stroke: #000000; stroke-width: 0.8; stroke-linejoin: miter; stroke-linecap: square"/>
   </g>
   <g id="text_28">
    <!-- MACD -->
    <g transform="translate(496.085709 325.135938)scale(0.12 -0.12)">
     <defs>
      <path id="DejaVuSans-44" d="M 1259 4147 
L 1259 519 
L 2022 519 
Q 2988 519 3436 956 
Q 3884 1394 3884 2338 
Q 3884 3275 3436 3711 
Q 2988 4147 2022 4147 
L 1259 4147 
z
M 628 4666 
L 1925 4666 
Q 3281 4666 3915 4102 
Q 4550 3538 4550 2338 
Q 4550 1131 3912 565 
Q 3275 0 1925 0 
L 628 0 
L 628 4666 
z
" transform="scale(0.015625)"/>
     </defs>
     <use xlink:href="#DejaVuSans-4d"/>
     <use xlink:href="#DejaVuSans-41" x="86.279297"/>
     <use xlink:href="#DejaVuSans-43" x="152.9375"/>
     <use xlink:href="#DejaVuSans-44" x="222.761719"/>
    </g>
   </g>
   <g id="legend_2">
    <g id="patch_13">
     <path d="M 913.899543 368.492188 
L 975.876106 368.492188 
Q 977.876106 368.492188 977.876106 366.492188 
L 977.876106 338.135938 
Q 977.876106 336.135938 975.876106 336.135938 
L 913.899543 336.135938 
Q 911.899543 336.135938 911.899543 338.135938 
L 911.899543 366.492188 
Q 911.899543 368.492188 913.899543 368.492188 
z
" style="fill: #ffffff; opacity: 0.8; stroke: #cccccc; stroke-linejoin: miter"/>
    </g>
    <g id="line2d_79">
     <path d="M 915.899543 344.234375 
L 925.899543 344.234375 
L 935.899543 344.234375 
" style="fill: none; stroke: #1f77b4; stroke-width: 1.5; stroke-linecap: square"/>
    </g>
    <g id="text_29">
     <!-- MACD -->
     <g transform="translate(943.899543 347.734375)scale(0.1 -0.1)">
      <use xlink:href="#DejaVuSans-4d"/>
      <use xlink:href="#DejaVuSans-41" x="86.279297"/>
      <use xlink:href="#DejaVuSans-43" x="152.9375"/>
      <use xlink:href="#DejaVuSans-44" x="222.761719"/>
     </g>
    </g>
    <g id="line2d_80">
     <path d="M 915.899543 358.9125 
L 925.899543 358.9125 
L 935.899543 358.9125 
" style="fill: none; stroke: #ff7f0e; stroke-width: 1.5; stroke-linecap: square"/>
    </g>
    <g id="text_30">
     <!-- SIG -->
     <g transform="translate(943.899543 362.4125)scale(0.1 -0.1)">
      <defs>
       <path id="DejaVuSans-49" d="M 628 4666 
L 1259 4666 
L 1259 0 
L 628 0 
L 628 4666 
z
" transform="scale(0.015625)"/>
       <path id="DejaVuSans-47" d="M 3809 666 
L 3809 1919 
L 2778 1919 
L 2778 2438 
L 4434 2438 
L 4434 434 
Q 4069 175 3628 42 
Q 3188 -91 2688 -91 
Q 1594 -91 976 548 
Q 359 1188 359 2328 
Q 359 3472 976 4111 
Q 1594 4750 2688 4750 
Q 3144 4750 3555 4637 
Q 3966 4525 4313 4306 
L 4313 3634 
Q 3963 3931 3569 4081 
Q 3175 4231 2741 4231 
Q 1884 4231 1454 3753 
Q 1025 3275 1025 2328 
Q 1025 1384 1454 906 
Q 1884 428 2741 428 
Q 3075 428 3337 486 
Q 3600 544 3809 666 
z
" transform="scale(0.015625)"/>
      </defs>
      <use xlink:href="#DejaVuSans-53"/>
      <use xlink:href="#DejaVuSans-49" x="63.476562"/>
      <use xlink:href="#DejaVuSans-47" x="92.96875"/>
     </g>
    </g>
   </g>
  </g>
  <g id="text_31">
   <!-- Tata Steel Limited -->
   <g transform="translate(450.219375 21.358125)scale(0.12 -0.12)">
    <defs>
     <path id="DejaVuSans-54" d="M -19 4666 
L 3928 4666 
L 3928 4134 
L 2272 4134 
L 2272 0 
L 1638 0 
L 1638 4134 
L -19 4134 
L -19 4666 
z
" transform="scale(0.015625)"/>
     <path id="DejaVuSans-61" d="M 2194 1759 
Q 1497 1759 1228 1600 
Q 959 1441 959 1056 
Q 959 750 1161 570 
Q 1363 391 1709 391 
Q 2188 391 2477 730 
Q 2766 1069 2766 1631 
L 2766 1759 
L 2194 1759 
z
M 3341 1997 
L 3341 0 
L 2766 0 
L 2766 531 
Q 2569 213 2275 61 
Q 1981 -91 1556 -91 
Q 1019 -91 701 211 
Q 384 513 384 1019 
Q 384 1609 779 1909 
Q 1175 2209 1959 2209 
L 2766 2209 
L 2766 2266 
Q 2766 2663 2505 2880 
Q 2244 3097 1772 3097 
Q 1472 3097 1187 3025 
Q 903 2953 641 2809 
L 641 3341 
Q 956 3463 1253 3523 
Q 1550 3584 1831 3584 
Q 2591 3584 2966 3190 
Q 3341 2797 3341 1997 
z
" transform="scale(0.015625)"/>
     <path id="DejaVuSans-74" d="M 1172 4494 
L 1172 3500 
L 2356 3500 
L 2356 3053 
L 1172 3053 
L 1172 1153 
Q 1172 725 1289 603 
Q 1406 481 1766 481 
L 2356 481 
L 2356 0 
L 1766 0 
Q 1100 0 847 248 
Q 594 497 594 1153 
L 594 3053 
L 172 3053 
L 172 3500 
L 594 3500 
L 594 4494 
L 1172 4494 
z
" transform="scale(0.015625)"/>
     <path id="DejaVuSans-6d" d="M 3328 2828 
Q 3544 3216 3844 3400 
Q 4144 3584 4550 3584 
Q 5097 3584 5394 3201 
Q 5691 2819 5691 2113 
L 5691 0 
L 5113 0 
L 5113 2094 
Q 5113 2597 4934 2840 
Q 4756 3084 4391 3084 
Q 3944 3084 3684 2787 
Q 3425 2491 3425 1978 
L 3425 0 
L 2847 0 
L 2847 2094 
Q 2847 2600 2669 2842 
Q 2491 3084 2119 3084 
Q 1678 3084 1418 2786 
Q 1159 2488 1159 1978 
L 1159 0 
L 581 0 
L 581 3500 
L 1159 3500 
L 1159 2956 
Q 1356 3278 1631 3431 
Q 1906 3584 2284 3584 
Q 2666 3584 2933 3390 
Q 3200 3197 3328 2828 
z
" transform="scale(0.015625)"/>
     <path id="DejaVuSans-64" d="M 2906 2969 
L 2906 4863 
L 3481 4863 
L 3481 0 
L 2906 0 
L 2906 525 
Q 2725 213 2448 61 
Q 2172 -91 1784 -91 
Q 1150 -91 751 415 
Q 353 922 353 1747 
Q 353 2572 751 3078 
Q 1150 3584 1784 3584 
Q 2172 3584 2448 3432 
Q 2725 3281 2906 2969 
z
M 947 1747 
Q 947 1113 1208 752 
Q 1469 391 1925 391 
Q 2381 391 2643 752 
Q 2906 1113 2906 1747 
Q 2906 2381 2643 2742 
Q 2381 3103 1925 3103 
Q 1469 3103 1208 2742 
Q 947 2381 947 1747 
z
" transform="scale(0.015625)"/>
    </defs>
    <use xlink:href="#DejaVuSans-54"/>
    <use xlink:href="#DejaVuSans-61" x="44.583984"/>
    <use xlink:href="#DejaVuSans-74" x="105.863281"/>
    <use xlink:href="#DejaVuSans-61" x="145.072266"/>
    <use xlink:href="#DejaVuSans-20" x="206.351562"/>
    <use xlink:href="#DejaVuSans-53" x="238.138672"/>
    <use xlink:href="#DejaVuSans-74" x="301.615234"/>
    <use xlink:href="#DejaVuSans-65" x="340.824219"/>
    <use xlink:href="#DejaVuSans-65" x="402.347656"/>
    <use xlink:href="#DejaVuSans-6c" x="463.871094"/>
    <use xlink:href="#DejaVuSans-20" x="491.654297"/>
    <use xlink:href="#DejaVuSans-4c" x="523.441406"/>
    <use xlink:href="#DejaVuSans-69" x="579.154297"/>
    <use xlink:href="#DejaVuSans-6d" x="606.9375"/>
    <use xlink:href="#DejaVuSans-69" x="704.349609"/>
    <use xlink:href="#DejaVuSans-74" x="732.132812"/>
    <use xlink:href="#DejaVuSans-65" x="771.341797"/>
    <use xlink:href="#DejaVuSans-64" x="832.865234"/>
   </g>
  </g>
 </g>
 <defs>
  <clipPath id="pac834e55ac">
   <rect x="45.267188" y="48.331875" width="937.608918" height="253.385938"/>
  </clipPath>
  <clipPath id="p0c95b07059">
   <rect x="45.267188" y="331.135938" width="937.608918" height="253.385937"/>
  </clipPath>
 </defs>
</svg>
