<?xml version="1.0" encoding="utf-8" standalone="no"?>
<!DOCTYPE svg PUBLIC "-//W3C//DTD SVG 1.1//EN"
  "http://www.w3.org/Graphics/SVG/1.1/DTD/svg11.dtd">
<svg xmlns:xlink="http://www.w3.org/1999/xlink" width="1008pt" height="612pt" viewBox="0 0 1008 612" xmlns="http://www.w3.org/2000/svg" version="1.1">
 <metadata>
  <rdf:RDF xmlns:dc="http://purl.org/dc/elements/1.1/" xmlns:cc="http://creativecommons.org/ns#" xmlns:rdf="http://www.w3.org/1999/02/22-rdf-syntax-ns#">
   <cc:Work>
    <dc:type rdf:resource="http://purl.org/dc/dcmitype/StillImage"/>
    <dc:date>2022-11-20T19:47:02.129864</dc:date>
    <dc:format>image/svg+xml</dc:format>
    <dc:creator>
     <cc:Agent>
      <dc:title>Matplotlib v3.5.2, https://matplotlib.org/</dc:title>
     </cc:Agent>
    </dc:creator>
   </cc:Work>
  </rdf:RDF>
 </metadata>
 <defs>
  <style type="text/css">*{stroke-linejoin: round; stroke-linecap: butt}</style>
 </defs>
 <g id="figure_1">
  <g id="patch_1">
   <path d="M 0 612 
L 1008 612 
L 1008 0 
L 0 0 
z
" style="fill: #ffffff"/>
  </g>
  <g id="axes_1">
   <g id="patch_2">
    <path d="M 43.25 301.717812 
L 982.876106 301.717812 
L 982.876106 48.331875 
L 43.25 48.331875 
z
" style="fill: #ffffff"/>
   </g>
   <g id="matplotlib.axis_1">
    <g id="xtick_1">
     <g id="line2d_1">
      <path d="M 80.604757 301.717812 
L 80.604757 48.331875 
" clip-path="url(#pa7a6a2847d)" style="fill: none; stroke-dasharray: 2.96,1.28; stroke-dashoffset: 0; stroke: #b0b0b0; stroke-width: 0.8"/>
     </g>
     <g id="line2d_2">
      <defs>
       <path id="meeb9070ec3" d="M 0 0 
L 0 3.5 
" style="stroke: #000000; stroke-width: 0.8"/>
      </defs>
      <g>
       <use xlink:href="#meeb9070ec3" x="80.604757" y="301.717812" style="stroke: #000000; stroke-width: 0.8"/>
      </g>
     </g>
    </g>
    <g id="xtick_2">
     <g id="line2d_3">
      <path d="M 163.615328 301.717812 
L 163.615328 48.331875 
" clip-path="url(#pa7a6a2847d)" style="fill: none; stroke-dasharray: 2.96,1.28; stroke-dashoffset: 0; stroke: #b0b0b0; stroke-width: 0.8"/>
     </g>
     <g id="line2d_4">
      <g>
       <use xlink:href="#meeb9070ec3" x="163.615328" y="301.717812" style="stroke: #000000; stroke-width: 0.8"/>
      </g>
     </g>
    </g>
    <g id="xtick_3">
     <g id="line2d_5">
      <path d="M 238.592617 301.717812 
L 238.592617 48.331875 
" clip-path="url(#pa7a6a2847d)" style="fill: none; stroke-dasharray: 2.96,1.28; stroke-dashoffset: 0; stroke: #b0b0b0; stroke-width: 0.8"/>
     </g>
     <g id="line2d_6">
      <g>
       <use xlink:href="#meeb9070ec3" x="238.592617" y="301.717812" style="stroke: #000000; stroke-width: 0.8"/>
      </g>
     </g>
    </g>
    <g id="xtick_4">
     <g id="line2d_7">
      <path d="M 321.603188 301.717812 
L 321.603188 48.331875 
" clip-path="url(#pa7a6a2847d)" style="fill: none; stroke-dasharray: 2.96,1.28; stroke-dashoffset: 0; stroke: #b0b0b0; stroke-width: 0.8"/>
     </g>
     <g id="line2d_8">
      <g>
       <use xlink:href="#meeb9070ec3" x="321.603188" y="301.717812" style="stroke: #000000; stroke-width: 0.8"/>
      </g>
     </g>
    </g>
    <g id="xtick_5">
     <g id="line2d_9">
      <path d="M 401.935999 301.717812 
L 401.935999 48.331875 
" clip-path="url(#pa7a6a2847d)" style="fill: none; stroke-dasharray: 2.96,1.28; stroke-dashoffset: 0; stroke: #b0b0b0; stroke-width: 0.8"/>
     </g>
     <g id="line2d_10">
      <g>
       <use xlink:href="#meeb9070ec3" x="401.935999" y="301.717812" style="stroke: #000000; stroke-width: 0.8"/>
      </g>
     </g>
    </g>
    <g id="xtick_6">
     <g id="line2d_11">
      <path d="M 484.946569 301.717812 
L 484.946569 48.331875 
" clip-path="url(#pa7a6a2847d)" style="fill: none; stroke-dasharray: 2.96,1.28; stroke-dashoffset: 0; stroke: #b0b0b0; stroke-width: 0.8"/>
     </g>
     <g id="line2d_12">
      <g>
       <use xlink:href="#meeb9070ec3" x="484.946569" y="301.717812" style="stroke: #000000; stroke-width: 0.8"/>
      </g>
     </g>
    </g>
    <g id="xtick_7">
     <g id="line2d_13">
      <path d="M 565.27938 301.717812 
L 565.27938 48.331875 
" clip-path="url(#pa7a6a2847d)" style="fill: none; stroke-dasharray: 2.96,1.28; stroke-dashoffset: 0; stroke: #b0b0b0; stroke-width: 0.8"/>
     </g>
     <g id="line2d_14">
      <g>
       <use xlink:href="#meeb9070ec3" x="565.27938" y="301.717812" style="stroke: #000000; stroke-width: 0.8"/>
      </g>
     </g>
    </g>
    <g id="xtick_8">
     <g id="line2d_15">
      <path d="M 648.28995 301.717812 
L 648.28995 48.331875 
" clip-path="url(#pa7a6a2847d)" style="fill: none; stroke-dasharray: 2.96,1.28; stroke-dashoffset: 0; stroke: #b0b0b0; stroke-width: 0.8"/>
     </g>
     <g id="line2d_16">
      <g>
       <use xlink:href="#meeb9070ec3" x="648.28995" y="301.717812" style="stroke: #000000; stroke-width: 0.8"/>
      </g>
     </g>
    </g>
    <g id="xtick_9">
     <g id="line2d_17">
      <path d="M 731.300521 301.717812 
L 731.300521 48.331875 
" clip-path="url(#pa7a6a2847d)" style="fill: none; stroke-dasharray: 2.96,1.28; stroke-dashoffset: 0; stroke: #b0b0b0; stroke-width: 0.8"/>
     </g>
     <g id="line2d_18">
      <g>
       <use xlink:href="#meeb9070ec3" x="731.300521" y="301.717812" style="stroke: #000000; stroke-width: 0.8"/>
      </g>
     </g>
    </g>
    <g id="xtick_10">
     <g id="line2d_19">
      <path d="M 811.633332 301.717812 
L 811.633332 48.331875 
" clip-path="url(#pa7a6a2847d)" style="fill: none; stroke-dasharray: 2.96,1.28; stroke-dashoffset: 0; stroke: #b0b0b0; stroke-width: 0.8"/>
     </g>
     <g id="line2d_20">
      <g>
       <use xlink:href="#meeb9070ec3" x="811.633332" y="301.717812" style="stroke: #000000; stroke-width: 0.8"/>
      </g>
     </g>
    </g>
    <g id="xtick_11">
     <g id="line2d_21">
      <path d="M 894.643902 301.717812 
L 894.643902 48.331875 
" clip-path="url(#pa7a6a2847d)" style="fill: none; stroke-dasharray: 2.96,1.28; stroke-dashoffset: 0; stroke: #b0b0b0; stroke-width: 0.8"/>
     </g>
     <g id="line2d_22">
      <g>
       <use xlink:href="#meeb9070ec3" x="894.643902" y="301.717812" style="stroke: #000000; stroke-width: 0.8"/>
      </g>
     </g>
    </g>
    <g id="xtick_12">
     <g id="line2d_23">
      <path d="M 974.976713 301.717812 
L 974.976713 48.331875 
" clip-path="url(#pa7a6a2847d)" style="fill: none; stroke-dasharray: 2.96,1.28; stroke-dashoffset: 0; stroke: #b0b0b0; stroke-width: 0.8"/>
     </g>
     <g id="line2d_24">
      <g>
       <use xlink:href="#meeb9070ec3" x="974.976713" y="301.717812" style="stroke: #000000; stroke-width: 0.8"/>
      </g>
     </g>
    </g>
   </g>
   <g id="matplotlib.axis_2">
    <g id="ytick_1">
     <g id="line2d_25">
      <path d="M 43.25 280.438812 
L 982.876106 280.438812 
" clip-path="url(#pa7a6a2847d)" style="fill: none; stroke-dasharray: 2.96,1.28; stroke-dashoffset: 0; stroke: #b0b0b0; stroke-width: 0.8"/>
     </g>
     <g id="line2d_26">
      <defs>
       <path id="m320f48a88d" d="M 0 0 
L -3.5 0 
" style="stroke: #000000; stroke-width: 0.8"/>
      </defs>
      <g>
       <use xlink:href="#m320f48a88d" x="43.25" y="280.438812" style="stroke: #000000; stroke-width: 0.8"/>
      </g>
     </g>
     <g id="text_1">
      <!-- 1000 -->
      <g transform="translate(10.8 284.238031)scale(0.1 -0.1)">
       <defs>
        <path id="DejaVuSans-31" d="M 794 531 
L 1825 531 
L 1825 4091 
L 703 3866 
L 703 4441 
L 1819 4666 
L 2450 4666 
L 2450 531 
L 3481 531 
L 3481 0 
L 794 0 
L 794 531 
z
" transform="scale(0.015625)"/>
        <path id="DejaVuSans-30" d="M 2034 4250 
Q 1547 4250 1301 3770 
Q 1056 3291 1056 2328 
Q 1056 1369 1301 889 
Q 1547 409 2034 409 
Q 2525 409 2770 889 
Q 3016 1369 3016 2328 
Q 3016 3291 2770 3770 
Q 2525 4250 2034 4250 
z
M 2034 4750 
Q 2819 4750 3233 4129 
Q 3647 3509 3647 2328 
Q 3647 1150 3233 529 
Q 2819 -91 2034 -91 
Q 1250 -91 836 529 
Q 422 1150 422 2328 
Q 422 3509 836 4129 
Q 1250 4750 2034 4750 
z
" transform="scale(0.015625)"/>
       </defs>
       <use xlink:href="#DejaVuSans-31"/>
       <use xlink:href="#DejaVuSans-30" x="63.623047"/>
       <use xlink:href="#DejaVuSans-30" x="127.246094"/>
       <use xlink:href="#DejaVuSans-30" x="190.869141"/>
      </g>
     </g>
    </g>
    <g id="ytick_2">
     <g id="line2d_27">
      <path d="M 43.25 224.579254 
L 982.876106 224.579254 
" clip-path="url(#pa7a6a2847d)" style="fill: none; stroke-dasharray: 2.96,1.28; stroke-dashoffset: 0; stroke: #b0b0b0; stroke-width: 0.8"/>
     </g>
     <g id="line2d_28">
      <g>
       <use xlink:href="#m320f48a88d" x="43.25" y="224.579254" style="stroke: #000000; stroke-width: 0.8"/>
      </g>
     </g>
     <g id="text_2">
      <!-- 1200 -->
      <g transform="translate(10.8 228.378473)scale(0.1 -0.1)">
       <defs>
        <path id="DejaVuSans-32" d="M 1228 531 
L 3431 531 
L 3431 0 
L 469 0 
L 469 531 
Q 828 903 1448 1529 
Q 2069 2156 2228 2338 
Q 2531 2678 2651 2914 
Q 2772 3150 2772 3378 
Q 2772 3750 2511 3984 
Q 2250 4219 1831 4219 
Q 1534 4219 1204 4116 
Q 875 4013 500 3803 
L 500 4441 
Q 881 4594 1212 4672 
Q 1544 4750 1819 4750 
Q 2544 4750 2975 4387 
Q 3406 4025 3406 3419 
Q 3406 3131 3298 2873 
Q 3191 2616 2906 2266 
Q 2828 2175 2409 1742 
Q 1991 1309 1228 531 
z
" transform="scale(0.015625)"/>
       </defs>
       <use xlink:href="#DejaVuSans-31"/>
       <use xlink:href="#DejaVuSans-32" x="63.623047"/>
       <use xlink:href="#DejaVuSans-30" x="127.246094"/>
       <use xlink:href="#DejaVuSans-30" x="190.869141"/>
      </g>
     </g>
    </g>
    <g id="ytick_3">
     <g id="line2d_29">
      <path d="M 43.25 168.719696 
L 982.876106 168.719696 
" clip-path="url(#pa7a6a2847d)" style="fill: none; stroke-dasharray: 2.96,1.28; stroke-dashoffset: 0; stroke: #b0b0b0; stroke-width: 0.8"/>
     </g>
     <g id="line2d_30">
      <g>
       <use xlink:href="#m320f48a88d" x="43.25" y="168.719696" style="stroke: #000000; stroke-width: 0.8"/>
      </g>
     </g>
     <g id="text_3">
      <!-- 1400 -->
      <g transform="translate(10.8 172.518915)scale(0.1 -0.1)">
       <defs>
        <path id="DejaVuSans-34" d="M 2419 4116 
L 825 1625 
L 2419 1625 
L 2419 4116 
z
M 2253 4666 
L 3047 4666 
L 3047 1625 
L 3713 1625 
L 3713 1100 
L 3047 1100 
L 3047 0 
L 2419 0 
L 2419 1100 
L 313 1100 
L 313 1709 
L 2253 4666 
z
" transform="scale(0.015625)"/>
       </defs>
       <use xlink:href="#DejaVuSans-31"/>
       <use xlink:href="#DejaVuSans-34" x="63.623047"/>
       <use xlink:href="#DejaVuSans-30" x="127.246094"/>
       <use xlink:href="#DejaVuSans-30" x="190.869141"/>
      </g>
     </g>
    </g>
    <g id="ytick_4">
     <g id="line2d_31">
      <path d="M 43.25 112.860138 
L 982.876106 112.860138 
" clip-path="url(#pa7a6a2847d)" style="fill: none; stroke-dasharray: 2.96,1.28; stroke-dashoffset: 0; stroke: #b0b0b0; stroke-width: 0.8"/>
     </g>
     <g id="line2d_32">
      <g>
       <use xlink:href="#m320f48a88d" x="43.25" y="112.860138" style="stroke: #000000; stroke-width: 0.8"/>
      </g>
     </g>
     <g id="text_4">
      <!-- 1600 -->
      <g transform="translate(10.8 116.659357)scale(0.1 -0.1)">
       <defs>
        <path id="DejaVuSans-36" d="M 2113 2584 
Q 1688 2584 1439 2293 
Q 1191 2003 1191 1497 
Q 1191 994 1439 701 
Q 1688 409 2113 409 
Q 2538 409 2786 701 
Q 3034 994 3034 1497 
Q 3034 2003 2786 2293 
Q 2538 2584 2113 2584 
z
M 3366 4563 
L 3366 3988 
Q 3128 4100 2886 4159 
Q 2644 4219 2406 4219 
Q 1781 4219 1451 3797 
Q 1122 3375 1075 2522 
Q 1259 2794 1537 2939 
Q 1816 3084 2150 3084 
Q 2853 3084 3261 2657 
Q 3669 2231 3669 1497 
Q 3669 778 3244 343 
Q 2819 -91 2113 -91 
Q 1303 -91 875 529 
Q 447 1150 447 2328 
Q 447 3434 972 4092 
Q 1497 4750 2381 4750 
Q 2619 4750 2861 4703 
Q 3103 4656 3366 4563 
z
" transform="scale(0.015625)"/>
       </defs>
       <use xlink:href="#DejaVuSans-31"/>
       <use xlink:href="#DejaVuSans-36" x="63.623047"/>
       <use xlink:href="#DejaVuSans-30" x="127.246094"/>
       <use xlink:href="#DejaVuSans-30" x="190.869141"/>
      </g>
     </g>
    </g>
    <g id="ytick_5">
     <g id="line2d_33">
      <path d="M 43.25 57.00058 
L 982.876106 57.00058 
" clip-path="url(#pa7a6a2847d)" style="fill: none; stroke-dasharray: 2.96,1.28; stroke-dashoffset: 0; stroke: #b0b0b0; stroke-width: 0.8"/>
     </g>
     <g id="line2d_34">
      <g>
       <use xlink:href="#m320f48a88d" x="43.25" y="57.00058" style="stroke: #000000; stroke-width: 0.8"/>
      </g>
     </g>
     <g id="text_5">
      <!-- 1800 -->
      <g transform="translate(10.8 60.799799)scale(0.1 -0.1)">
       <defs>
        <path id="DejaVuSans-38" d="M 2034 2216 
Q 1584 2216 1326 1975 
Q 1069 1734 1069 1313 
Q 1069 891 1326 650 
Q 1584 409 2034 409 
Q 2484 409 2743 651 
Q 3003 894 3003 1313 
Q 3003 1734 2745 1975 
Q 2488 2216 2034 2216 
z
M 1403 2484 
Q 997 2584 770 2862 
Q 544 3141 544 3541 
Q 544 4100 942 4425 
Q 1341 4750 2034 4750 
Q 2731 4750 3128 4425 
Q 3525 4100 3525 3541 
Q 3525 3141 3298 2862 
Q 3072 2584 2669 2484 
Q 3125 2378 3379 2068 
Q 3634 1759 3634 1313 
Q 3634 634 3220 271 
Q 2806 -91 2034 -91 
Q 1263 -91 848 271 
Q 434 634 434 1313 
Q 434 1759 690 2068 
Q 947 2378 1403 2484 
z
M 1172 3481 
Q 1172 3119 1398 2916 
Q 1625 2713 2034 2713 
Q 2441 2713 2670 2916 
Q 2900 3119 2900 3481 
Q 2900 3844 2670 4047 
Q 2441 4250 2034 4250 
Q 1625 4250 1398 4047 
Q 1172 3844 1172 3481 
z
" transform="scale(0.015625)"/>
       </defs>
       <use xlink:href="#DejaVuSans-31"/>
       <use xlink:href="#DejaVuSans-38" x="63.623047"/>
       <use xlink:href="#DejaVuSans-30" x="127.246094"/>
       <use xlink:href="#DejaVuSans-30" x="190.869141"/>
      </g>
     </g>
    </g>
   </g>
   <g id="line2d_35">
    <path d="M 85.960278 61.245907 
L 88.638038 59.849418 
L 91.315798 74.442727 
L 93.993559 87.136812 
L 96.671319 83.855063 
L 104.7046 80.461595 
L 107.38236 74.554446 
L 110.060121 76.425741 
L 112.737881 79.679561 
L 115.415641 74.386868 
L 123.448922 78.674089 
L 126.126683 95.892797 
L 128.804443 93.281363 
L 131.482203 94.175116 
L 134.159964 114.661609 
L 142.193245 137.117151 
L 144.871005 140.622338 
L 150.226526 155.983717 
L 152.904286 165.745175 
L 160.937567 146.655171 
L 163.615328 139.183955 
L 166.293088 145.551944 
L 168.970848 153.553826 
L 171.648609 155.257543 
L 179.68189 156.346804 
L 182.35965 159.167712 
L 185.03741 153.414177 
L 187.715171 149.587798 
L 190.392931 161.765181 
L 198.426212 171.470779 
L 201.103972 157.645539 
L 203.781733 156.430593 
L 206.459493 155.439086 
L 209.137254 158.120345 
L 217.170535 163.636476 
L 219.848295 165.214509 
L 222.526055 165.005036 
L 225.203816 187.432648 
L 227.881576 171.596463 
L 235.914857 165.926718 
L 241.270378 170.297729 
L 243.948138 161.27641 
L 246.625898 153.749335 
L 254.659179 161.988619 
L 257.33694 151.417198 
L 260.0147 139.463253 
L 262.69246 144.88163 
L 265.370221 144.476648 
L 273.403502 139.952024 
L 276.081262 152.352846 
L 278.759023 143.610825 
L 281.436783 142.605353 
L 292.147824 146.431733 
L 294.825585 130.120742 
L 297.503345 129.017515 
L 300.181105 121.644054 
L 302.858866 132.25737 
L 313.569907 134.547612 
L 316.247667 141.823319 
L 318.925428 140.943531 
L 321.603188 144.392859 
L 329.636469 141.166969 
L 332.314229 143.848228 
L 334.99199 152.143372 
L 337.66975 149.573833 
L 340.347511 155.103929 
L 348.380792 154.978245 
L 351.058552 164.530229 
L 353.736312 165.801034 
L 367.125114 184.206759 
L 369.802874 196.314318 
L 372.480635 194.079935 
L 375.158395 193.102393 
L 377.836155 194.83404 
L 385.869436 204.91669 
L 388.547197 203.506236 
L 391.224957 207.472264 
L 393.902717 204.665322 
L 396.580478 208.100685 
L 409.96928 221.004242 
L 412.64704 206.885739 
L 415.3248 199.23298 
L 423.358081 207.500194 
L 426.035842 212.764958 
L 428.713602 217.750423 
L 431.391362 221.004242 
L 434.069123 223.783255 
L 442.102404 227.637565 
L 444.780164 225.08199 
L 447.457924 232.385627 
L 450.135685 250.176897 
L 452.813445 243.878731 
L 460.846726 240.527158 
L 463.524487 252.969874 
L 466.202247 263.63905 
L 468.880007 258.486006 
L 471.557768 246.01536 
L 479.591049 234.633975 
L 482.268809 230.095385 
L 484.946569 239.493756 
L 487.62433 239.661335 
L 490.30209 239.130669 
L 498.335371 240.164071 
L 501.013131 244.04631 
L 503.690892 245.750027 
L 506.368652 241.728138 
L 509.046412 249.75795 
L 517.079693 265.929292 
L 519.757454 272.017984 
L 522.435214 274.838891 
L 525.112974 287.337468 
L 527.790735 290.20027 
L 535.824016 286.206311 
L 538.501776 280.410882 
L 541.179537 286.024768 
L 543.857297 282.924562 
L 546.535057 285.689611 
L 554.568338 278.427868 
L 557.246099 274.657348 
L 559.923859 274.545629 
L 562.601619 280.438812 
L 565.27938 277.450326 
L 573.312661 280.452777 
L 575.990421 279.545059 
L 578.668181 277.673764 
L 581.345942 274.643383 
L 584.023702 273.037421 
L 592.056983 278.330114 
L 594.734744 281.178951 
L 597.412504 283.217825 
L 600.090264 287.197819 
L 602.768025 287.756414 
L 610.801306 278.20443 
L 613.479066 278.288219 
L 616.156826 267.730763 
L 618.834587 271.29181 
L 621.512347 272.422966 
L 629.545628 275.620925 
L 632.223388 280.620356 
L 634.901149 278.302184 
L 637.578909 269.825496 
L 640.256669 266.850975 
L 648.28995 266.585642 
L 650.967711 271.333704 
L 653.645471 265.733783 
L 656.323232 264.784171 
L 659.000992 264.183681 
L 672.389794 265.021574 
L 675.067554 258.863058 
L 677.745314 262.033088 
L 688.456356 258.737374 
L 691.134116 251.252193 
L 693.811876 251.07065 
L 696.489637 251.349947 
L 704.522918 258.458076 
L 707.200678 262.033088 
L 709.878438 260.622634 
L 712.556199 260.720388 
L 715.233959 256.544886 
L 723.26724 270.509776 
L 725.945001 259.18425 
L 731.300521 265.663959 
L 733.978282 264.686417 
L 742.011563 262.270491 
L 744.689323 262.647543 
L 747.367083 264.840031 
L 750.044844 255.41373 
L 752.722604 245.065747 
L 760.755885 238.516214 
L 763.433645 239.256353 
L 768.789166 257.257096 
L 771.466926 271.166126 
L 779.500207 269.406549 
L 782.177968 264.756241 
L 784.855728 263.63905 
L 787.533489 266.920799 
L 790.211249 270.63546 
L 798.24453 271.249915 
L 800.92229 274.154612 
L 803.600051 272.143668 
L 806.277811 278.455798 
L 808.955571 278.036851 
L 816.988852 278.902674 
L 819.666613 272.534685 
L 825.022133 271.696791 
L 827.699894 273.77756 
L 835.733175 272.241422 
L 838.410935 279.084218 
L 841.088695 275.997977 
L 843.766456 276.821906 
L 846.444216 274.894751 
L 854.477497 273.945139 
L 857.155258 275.020435 
L 859.833018 275.076295 
L 862.510778 268.806059 
L 865.188539 268.945708 
L 873.22182 266.990624 
L 875.89958 257.396744 
L 881.255101 259.254075 
L 883.932861 266.767185 
L 891.966142 262.731332 
L 894.643902 260.636599 
L 897.321663 257.536393 
L 899.999423 265.677924 
L 902.677183 265.454486 
L 910.710465 265.49638 
L 916.065985 272.422966 
L 918.743746 274.545629 
L 921.421506 264.044032 
L 929.454787 262.186702 
L 932.132547 261.739825 
L 934.810308 261.767755 
L 937.488068 264.085927 
L 940.165828 263.443542 
L 940.165828 263.443542 
" clip-path="url(#pa7a6a2847d)" style="fill: none; stroke: #1f77b4; stroke-width: 1.5; stroke-linecap: square"/>
   </g>
   <g id="line2d_36">
    <path d="M 96.671319 73.305985 
L 104.7046 77.149123 
L 107.38236 80.090128 
L 110.060121 80.486731 
L 112.737881 78.995281 
L 115.415641 77.101642 
L 123.448922 76.744141 
L 126.126683 81.011811 
L 128.804443 84.382935 
L 131.482203 87.282047 
L 134.159964 95.336995 
L 142.193245 107.025607 
L 144.871005 115.971516 
L 150.226526 128.511986 
L 152.904286 142.825998 
L 160.937567 149.22471 
L 163.615328 149.638071 
L 166.293088 150.623992 
L 168.970848 150.138014 
L 171.648609 148.040488 
L 179.68189 149.978814 
L 182.35965 153.975566 
L 185.03741 155.548012 
L 187.715171 154.754807 
L 190.392931 156.056334 
L 198.426212 159.081129 
L 201.103972 158.776695 
L 203.781733 159.379978 
L 206.459493 160.550236 
L 209.137254 159.821269 
L 217.170535 158.254408 
L 219.848295 159.768202 
L 222.526055 161.48309 
L 225.203816 167.881803 
L 227.881576 170.577026 
L 235.914857 171.035075 
L 241.270378 172.051719 
L 243.948138 171.305994 
L 246.625898 164.569331 
L 254.659179 162.647762 
L 257.33694 159.745858 
L 260.0147 153.578963 
L 262.69246 150.300007 
L 265.370221 148.44547 
L 273.403502 144.03815 
L 276.081262 144.22528 
L 278.759023 145.054794 
L 281.436783 144.599539 
L 292.147824 144.990556 
L 294.825585 143.024299 
L 297.503345 138.357233 
L 300.181105 133.963879 
L 302.858866 131.894283 
L 310.892147 129.400153 
L 313.569907 130.285527 
L 316.247667 132.846688 
L 318.925428 136.706583 
L 321.603188 139.133681 
L 329.636469 140.574858 
L 332.314229 142.434981 
L 334.99199 144.498992 
L 337.66975 146.225052 
L 340.347511 148.367266 
L 348.380792 151.129521 
L 351.058552 155.265922 
L 353.736312 157.997454 
L 367.125114 164.924039 
L 369.802874 173.166117 
L 372.480635 180.986455 
L 377.836155 192.507489 
L 388.547197 198.087859 
L 391.224957 200.766325 
L 393.902717 203.07891 
L 396.580478 205.732239 
L 404.613759 207.921934 
L 409.96928 211.421535 
L 412.64704 211.30423 
L 415.3248 210.217762 
L 423.358081 210.097664 
L 428.713602 208.826859 
L 431.391362 211.650559 
L 434.069123 216.560615 
L 442.102404 220.588089 
L 444.780164 223.051495 
L 447.457924 225.978536 
L 450.135685 231.813067 
L 452.813445 235.832162 
L 460.846726 238.410081 
L 463.524487 243.987658 
L 466.202247 250.238342 
L 468.880007 251.900164 
L 471.557768 252.32749 
L 479.591049 251.148853 
L 482.268809 246.573955 
L 484.946569 241.744896 
L 487.62433 237.979962 
L 490.30209 236.603024 
L 498.335371 237.709043 
L 501.013131 240.499228 
L 503.690892 241.750482 
L 506.368652 242.163843 
L 509.046412 244.289299 
L 517.079693 249.442343 
L 522.435214 260.854451 
L 525.112974 269.976317 
L 527.790735 278.064781 
L 535.824016 282.120185 
L 538.501776 283.798765 
L 541.179537 286.03594 
L 546.535057 284.251227 
L 554.568338 282.695538 
L 557.246099 281.544831 
L 559.923859 279.249004 
L 562.601619 278.751853 
L 565.27938 277.103997 
L 573.312661 277.508978 
L 575.990421 278.486521 
L 578.668181 279.112148 
L 581.345942 277.953062 
L 584.023702 277.070481 
L 592.056983 276.645948 
L 594.734744 276.972727 
L 597.412504 278.081539 
L 600.090264 280.592426 
L 602.768025 283.536225 
L 610.801306 283.511088 
L 613.479066 282.932941 
L 621.512347 273.587637 
L 629.545628 273.070936 
L 632.223388 273.537364 
L 634.901149 275.651648 
L 637.578909 275.358385 
L 640.256669 274.243987 
L 648.28995 272.43693 
L 650.967711 270.5796 
L 653.645471 268.06592 
L 656.323232 267.057655 
L 659.000992 266.524196 
L 667.034273 266.133179 
L 672.389794 264.870753 
L 675.067554 263.496608 
L 677.745314 262.946392 
L 688.456356 261.85713 
L 693.811876 256.391272 
L 696.489637 254.88865 
L 704.522918 254.173648 
L 707.200678 254.832791 
L 712.556199 258.636827 
L 715.233959 259.675814 
L 723.26724 262.086154 
L 725.945001 261.516387 
L 731.300521 262.524652 
L 733.978282 263.317858 
L 742.011563 264.462979 
L 744.689323 262.890532 
L 747.367083 264.021688 
L 750.044844 261.971642 
L 752.722604 258.047508 
L 760.755885 253.296653 
L 763.433645 248.618415 
L 766.111406 245.33108 
L 768.789166 245.699753 
L 771.466926 250.919829 
L 779.500207 257.097896 
L 782.177968 262.197873 
L 784.855728 265.245012 
L 787.533489 267.177753 
L 790.211249 267.07162 
L 798.24453 267.440293 
L 800.92229 269.319967 
L 803.600051 271.020891 
L 806.277811 273.32789 
L 808.955571 274.808169 
L 816.988852 276.338721 
L 819.666613 276.014735 
L 825.022133 275.92536 
L 827.699894 274.989712 
L 835.733175 273.830626 
L 838.410935 273.866935 
L 841.088695 274.559594 
L 843.766456 275.584617 
L 846.444216 275.808055 
L 854.477497 276.148798 
L 857.155258 275.336042 
L 859.833018 275.151705 
L 862.510778 273.548536 
L 865.188539 272.358727 
L 873.22182 270.967824 
L 875.89958 267.443086 
L 881.255101 264.278642 
L 891.966142 262.627992 
L 894.643902 261.357187 
L 897.321663 261.385117 
L 899.999423 262.669887 
L 902.677183 262.407347 
L 910.710465 262.960356 
L 916.065985 265.31763 
L 918.743746 268.719477 
L 921.421506 268.392698 
L 929.454787 267.739142 
L 932.132547 266.987831 
L 937.488068 262.764848 
L 940.165828 262.64475 
L 940.165828 262.64475 
" clip-path="url(#pa7a6a2847d)" style="fill: none; stroke: #ff7f0e; stroke-width: 1.5; stroke-linecap: square"/>
   </g>
   <g id="patch_3">
    <path d="M 43.25 301.717813 
L 43.25 48.331875 
" style="fill: none; stroke: #000000; stroke-width: 0.8; stroke-linejoin: miter; stroke-linecap: square"/>
   </g>
   <g id="patch_4">
    <path d="M 982.876106 301.717813 
L 982.876106 48.331875 
" style="fill: none; stroke: #000000; stroke-width: 0.8; stroke-linejoin: miter; stroke-linecap: square"/>
   </g>
   <g id="patch_5">
    <path d="M 43.25 301.717812 
L 982.876106 301.717812 
" style="fill: none; stroke: #000000; stroke-width: 0.8; stroke-linejoin: miter; stroke-linecap: square"/>
   </g>
   <g id="patch_6">
    <path d="M 43.25 48.331875 
L 982.876106 48.331875 
" style="fill: none; stroke: #000000; stroke-width: 0.8; stroke-linejoin: miter; stroke-linecap: square"/>
   </g>
   <g id="text_6">
    <!-- Closing Price -->
    <g transform="translate(474.587115 42.331875)scale(0.12 -0.12)">
     <defs>
      <path id="DejaVuSans-43" d="M 4122 4306 
L 4122 3641 
Q 3803 3938 3442 4084 
Q 3081 4231 2675 4231 
Q 1875 4231 1450 3742 
Q 1025 3253 1025 2328 
Q 1025 1406 1450 917 
Q 1875 428 2675 428 
Q 3081 428 3442 575 
Q 3803 722 4122 1019 
L 4122 359 
Q 3791 134 3420 21 
Q 3050 -91 2638 -91 
Q 1578 -91 968 557 
Q 359 1206 359 2328 
Q 359 3453 968 4101 
Q 1578 4750 2638 4750 
Q 3056 4750 3426 4639 
Q 3797 4528 4122 4306 
z
" transform="scale(0.015625)"/>
      <path id="DejaVuSans-6c" d="M 603 4863 
L 1178 4863 
L 1178 0 
L 603 0 
L 603 4863 
z
" transform="scale(0.015625)"/>
      <path id="DejaVuSans-6f" d="M 1959 3097 
Q 1497 3097 1228 2736 
Q 959 2375 959 1747 
Q 959 1119 1226 758 
Q 1494 397 1959 397 
Q 2419 397 2687 759 
Q 2956 1122 2956 1747 
Q 2956 2369 2687 2733 
Q 2419 3097 1959 3097 
z
M 1959 3584 
Q 2709 3584 3137 3096 
Q 3566 2609 3566 1747 
Q 3566 888 3137 398 
Q 2709 -91 1959 -91 
Q 1206 -91 779 398 
Q 353 888 353 1747 
Q 353 2609 779 3096 
Q 1206 3584 1959 3584 
z
" transform="scale(0.015625)"/>
      <path id="DejaVuSans-73" d="M 2834 3397 
L 2834 2853 
Q 2591 2978 2328 3040 
Q 2066 3103 1784 3103 
Q 1356 3103 1142 2972 
Q 928 2841 928 2578 
Q 928 2378 1081 2264 
Q 1234 2150 1697 2047 
L 1894 2003 
Q 2506 1872 2764 1633 
Q 3022 1394 3022 966 
Q 3022 478 2636 193 
Q 2250 -91 1575 -91 
Q 1294 -91 989 -36 
Q 684 19 347 128 
L 347 722 
Q 666 556 975 473 
Q 1284 391 1588 391 
Q 1994 391 2212 530 
Q 2431 669 2431 922 
Q 2431 1156 2273 1281 
Q 2116 1406 1581 1522 
L 1381 1569 
Q 847 1681 609 1914 
Q 372 2147 372 2553 
Q 372 3047 722 3315 
Q 1072 3584 1716 3584 
Q 2034 3584 2315 3537 
Q 2597 3491 2834 3397 
z
" transform="scale(0.015625)"/>
      <path id="DejaVuSans-69" d="M 603 3500 
L 1178 3500 
L 1178 0 
L 603 0 
L 603 3500 
z
M 603 4863 
L 1178 4863 
L 1178 4134 
L 603 4134 
L 603 4863 
z
" transform="scale(0.015625)"/>
      <path id="DejaVuSans-6e" d="M 3513 2113 
L 3513 0 
L 2938 0 
L 2938 2094 
Q 2938 2591 2744 2837 
Q 2550 3084 2163 3084 
Q 1697 3084 1428 2787 
Q 1159 2491 1159 1978 
L 1159 0 
L 581 0 
L 581 3500 
L 1159 3500 
L 1159 2956 
Q 1366 3272 1645 3428 
Q 1925 3584 2291 3584 
Q 2894 3584 3203 3211 
Q 3513 2838 3513 2113 
z
" transform="scale(0.015625)"/>
      <path id="DejaVuSans-67" d="M 2906 1791 
Q 2906 2416 2648 2759 
Q 2391 3103 1925 3103 
Q 1463 3103 1205 2759 
Q 947 2416 947 1791 
Q 947 1169 1205 825 
Q 1463 481 1925 481 
Q 2391 481 2648 825 
Q 2906 1169 2906 1791 
z
M 3481 434 
Q 3481 -459 3084 -895 
Q 2688 -1331 1869 -1331 
Q 1566 -1331 1297 -1286 
Q 1028 -1241 775 -1147 
L 775 -588 
Q 1028 -725 1275 -790 
Q 1522 -856 1778 -856 
Q 2344 -856 2625 -561 
Q 2906 -266 2906 331 
L 2906 616 
Q 2728 306 2450 153 
Q 2172 0 1784 0 
Q 1141 0 747 490 
Q 353 981 353 1791 
Q 353 2603 747 3093 
Q 1141 3584 1784 3584 
Q 2172 3584 2450 3431 
Q 2728 3278 2906 2969 
L 2906 3500 
L 3481 3500 
L 3481 434 
z
" transform="scale(0.015625)"/>
      <path id="DejaVuSans-20" transform="scale(0.015625)"/>
      <path id="DejaVuSans-50" d="M 1259 4147 
L 1259 2394 
L 2053 2394 
Q 2494 2394 2734 2622 
Q 2975 2850 2975 3272 
Q 2975 3691 2734 3919 
Q 2494 4147 2053 4147 
L 1259 4147 
z
M 628 4666 
L 2053 4666 
Q 2838 4666 3239 4311 
Q 3641 3956 3641 3272 
Q 3641 2581 3239 2228 
Q 2838 1875 2053 1875 
L 1259 1875 
L 1259 0 
L 628 0 
L 628 4666 
z
" transform="scale(0.015625)"/>
      <path id="DejaVuSans-72" d="M 2631 2963 
Q 2534 3019 2420 3045 
Q 2306 3072 2169 3072 
Q 1681 3072 1420 2755 
Q 1159 2438 1159 1844 
L 1159 0 
L 581 0 
L 581 3500 
L 1159 3500 
L 1159 2956 
Q 1341 3275 1631 3429 
Q 1922 3584 2338 3584 
Q 2397 3584 2469 3576 
Q 2541 3569 2628 3553 
L 2631 2963 
z
" transform="scale(0.015625)"/>
      <path id="DejaVuSans-63" d="M 3122 3366 
L 3122 2828 
Q 2878 2963 2633 3030 
Q 2388 3097 2138 3097 
Q 1578 3097 1268 2742 
Q 959 2388 959 1747 
Q 959 1106 1268 751 
Q 1578 397 2138 397 
Q 2388 397 2633 464 
Q 2878 531 3122 666 
L 3122 134 
Q 2881 22 2623 -34 
Q 2366 -91 2075 -91 
Q 1284 -91 818 406 
Q 353 903 353 1747 
Q 353 2603 823 3093 
Q 1294 3584 2113 3584 
Q 2378 3584 2631 3529 
Q 2884 3475 3122 3366 
z
" transform="scale(0.015625)"/>
      <path id="DejaVuSans-65" d="M 3597 1894 
L 3597 1613 
L 953 1613 
Q 991 1019 1311 708 
Q 1631 397 2203 397 
Q 2534 397 2845 478 
Q 3156 559 3463 722 
L 3463 178 
Q 3153 47 2828 -22 
Q 2503 -91 2169 -91 
Q 1331 -91 842 396 
Q 353 884 353 1716 
Q 353 2575 817 3079 
Q 1281 3584 2069 3584 
Q 2775 3584 3186 3129 
Q 3597 2675 3597 1894 
z
M 3022 2063 
Q 3016 2534 2758 2815 
Q 2500 3097 2075 3097 
Q 1594 3097 1305 2825 
Q 1016 2553 972 2059 
L 3022 2063 
z
" transform="scale(0.015625)"/>
     </defs>
     <use xlink:href="#DejaVuSans-43"/>
     <use xlink:href="#DejaVuSans-6c" x="69.824219"/>
     <use xlink:href="#DejaVuSans-6f" x="97.607422"/>
     <use xlink:href="#DejaVuSans-73" x="158.789062"/>
     <use xlink:href="#DejaVuSans-69" x="210.888672"/>
     <use xlink:href="#DejaVuSans-6e" x="238.671875"/>
     <use xlink:href="#DejaVuSans-67" x="302.050781"/>
     <use xlink:href="#DejaVuSans-20" x="365.527344"/>
     <use xlink:href="#DejaVuSans-50" x="397.314453"/>
     <use xlink:href="#DejaVuSans-72" x="455.867188"/>
     <use xlink:href="#DejaVuSans-69" x="496.980469"/>
     <use xlink:href="#DejaVuSans-63" x="524.763672"/>
     <use xlink:href="#DejaVuSans-65" x="579.744141"/>
    </g>
   </g>
   <g id="legend_1">
    <g id="patch_7">
     <path d="M 911.144856 85.688125 
L 975.876106 85.688125 
Q 977.876106 85.688125 977.876106 83.688125 
L 977.876106 55.331875 
Q 977.876106 53.331875 975.876106 53.331875 
L 911.144856 53.331875 
Q 909.144856 53.331875 909.144856 55.331875 
L 909.144856 83.688125 
Q 909.144856 85.688125 911.144856 85.688125 
z
" style="fill: #ffffff; opacity: 0.8; stroke: #cccccc; stroke-linejoin: miter"/>
    </g>
    <g id="line2d_37">
     <path d="M 913.144856 61.430312 
L 923.144856 61.430312 
L 933.144856 61.430312 
" style="fill: none; stroke: #1f77b4; stroke-width: 1.5; stroke-linecap: square"/>
    </g>
    <g id="text_7">
     <!-- CLOSE -->
     <g transform="translate(941.144856 64.930312)scale(0.1 -0.1)">
      <defs>
       <path id="DejaVuSans-4c" d="M 628 4666 
L 1259 4666 
L 1259 531 
L 3531 531 
L 3531 0 
L 628 0 
L 628 4666 
z
" transform="scale(0.015625)"/>
       <path id="DejaVuSans-4f" d="M 2522 4238 
Q 1834 4238 1429 3725 
Q 1025 3213 1025 2328 
Q 1025 1447 1429 934 
Q 1834 422 2522 422 
Q 3209 422 3611 934 
Q 4013 1447 4013 2328 
Q 4013 3213 3611 3725 
Q 3209 4238 2522 4238 
z
M 2522 4750 
Q 3503 4750 4090 4092 
Q 4678 3434 4678 2328 
Q 4678 1225 4090 567 
Q 3503 -91 2522 -91 
Q 1538 -91 948 565 
Q 359 1222 359 2328 
Q 359 3434 948 4092 
Q 1538 4750 2522 4750 
z
" transform="scale(0.015625)"/>
       <path id="DejaVuSans-53" d="M 3425 4513 
L 3425 3897 
Q 3066 4069 2747 4153 
Q 2428 4238 2131 4238 
Q 1616 4238 1336 4038 
Q 1056 3838 1056 3469 
Q 1056 3159 1242 3001 
Q 1428 2844 1947 2747 
L 2328 2669 
Q 3034 2534 3370 2195 
Q 3706 1856 3706 1288 
Q 3706 609 3251 259 
Q 2797 -91 1919 -91 
Q 1588 -91 1214 -16 
Q 841 59 441 206 
L 441 856 
Q 825 641 1194 531 
Q 1563 422 1919 422 
Q 2459 422 2753 634 
Q 3047 847 3047 1241 
Q 3047 1584 2836 1778 
Q 2625 1972 2144 2069 
L 1759 2144 
Q 1053 2284 737 2584 
Q 422 2884 422 3419 
Q 422 4038 858 4394 
Q 1294 4750 2059 4750 
Q 2388 4750 2728 4690 
Q 3069 4631 3425 4513 
z
" transform="scale(0.015625)"/>
       <path id="DejaVuSans-45" d="M 628 4666 
L 3578 4666 
L 3578 4134 
L 1259 4134 
L 1259 2753 
L 3481 2753 
L 3481 2222 
L 1259 2222 
L 1259 531 
L 3634 531 
L 3634 0 
L 628 0 
L 628 4666 
z
" transform="scale(0.015625)"/>
      </defs>
      <use xlink:href="#DejaVuSans-43"/>
      <use xlink:href="#DejaVuSans-4c" x="69.824219"/>
      <use xlink:href="#DejaVuSans-4f" x="121.912109"/>
      <use xlink:href="#DejaVuSans-53" x="200.623047"/>
      <use xlink:href="#DejaVuSans-45" x="264.099609"/>
     </g>
    </g>
    <g id="line2d_38">
     <path d="M 913.144856 76.108437 
L 923.144856 76.108437 
L 933.144856 76.108437 
" style="fill: none; stroke: #ff7f0e; stroke-width: 1.5; stroke-linecap: square"/>
    </g>
    <g id="text_8">
     <!-- SMA5 -->
     <g transform="translate(941.144856 79.608437)scale(0.1 -0.1)">
      <defs>
       <path id="DejaVuSans-4d" d="M 628 4666 
L 1569 4666 
L 2759 1491 
L 3956 4666 
L 4897 4666 
L 4897 0 
L 4281 0 
L 4281 4097 
L 3078 897 
L 2444 897 
L 1241 4097 
L 1241 0 
L 628 0 
L 628 4666 
z
" transform="scale(0.015625)"/>
       <path id="DejaVuSans-41" d="M 2188 4044 
L 1331 1722 
L 3047 1722 
L 2188 4044 
z
M 1831 4666 
L 2547 4666 
L 4325 0 
L 3669 0 
L 3244 1197 
L 1141 1197 
L 716 0 
L 50 0 
L 1831 4666 
z
" transform="scale(0.015625)"/>
       <path id="DejaVuSans-35" d="M 691 4666 
L 3169 4666 
L 3169 4134 
L 1269 4134 
L 1269 2991 
Q 1406 3038 1543 3061 
Q 1681 3084 1819 3084 
Q 2600 3084 3056 2656 
Q 3513 2228 3513 1497 
Q 3513 744 3044 326 
Q 2575 -91 1722 -91 
Q 1428 -91 1123 -41 
Q 819 9 494 109 
L 494 744 
Q 775 591 1075 516 
Q 1375 441 1709 441 
Q 2250 441 2565 725 
Q 2881 1009 2881 1497 
Q 2881 1984 2565 2268 
Q 2250 2553 1709 2553 
Q 1456 2553 1204 2497 
Q 953 2441 691 2322 
L 691 4666 
z
" transform="scale(0.015625)"/>
      </defs>
      <use xlink:href="#DejaVuSans-53"/>
      <use xlink:href="#DejaVuSans-4d" x="63.476562"/>
      <use xlink:href="#DejaVuSans-41" x="149.755859"/>
      <use xlink:href="#DejaVuSans-35" x="218.164062"/>
     </g>
    </g>
   </g>
  </g>
  <g id="axes_2">
   <g id="patch_8">
    <path d="M 43.25 584.521875 
L 982.876106 584.521875 
L 982.876106 331.135938 
L 43.25 331.135938 
z
" style="fill: #ffffff"/>
   </g>
   <g id="matplotlib.axis_3">
    <g id="xtick_13">
     <g id="line2d_39">
      <path d="M 80.604757 584.521875 
L 80.604757 331.135938 
" clip-path="url(#p9402120c79)" style="fill: none; stroke-dasharray: 2.96,1.28; stroke-dashoffset: 0; stroke: #b0b0b0; stroke-width: 0.8"/>
     </g>
     <g id="line2d_40">
      <g>
       <use xlink:href="#meeb9070ec3" x="80.604757" y="584.521875" style="stroke: #000000; stroke-width: 0.8"/>
      </g>
     </g>
     <g id="text_9">
      <!-- 2022-01 -->
      <g transform="translate(59.713351 599.120312)scale(0.1 -0.1)">
       <defs>
        <path id="DejaVuSans-2d" d="M 313 2009 
L 1997 2009 
L 1997 1497 
L 313 1497 
L 313 2009 
z
" transform="scale(0.015625)"/>
       </defs>
       <use xlink:href="#DejaVuSans-32"/>
       <use xlink:href="#DejaVuSans-30" x="63.623047"/>
       <use xlink:href="#DejaVuSans-32" x="127.246094"/>
       <use xlink:href="#DejaVuSans-32" x="190.869141"/>
       <use xlink:href="#DejaVuSans-2d" x="254.492188"/>
       <use xlink:href="#DejaVuSans-30" x="290.576172"/>
       <use xlink:href="#DejaVuSans-31" x="354.199219"/>
      </g>
     </g>
    </g>
    <g id="xtick_14">
     <g id="line2d_41">
      <path d="M 163.615328 584.521875 
L 163.615328 331.135938 
" clip-path="url(#p9402120c79)" style="fill: none; stroke-dasharray: 2.96,1.28; stroke-dashoffset: 0; stroke: #b0b0b0; stroke-width: 0.8"/>
     </g>
     <g id="line2d_42">
      <g>
       <use xlink:href="#meeb9070ec3" x="163.615328" y="584.521875" style="stroke: #000000; stroke-width: 0.8"/>
      </g>
     </g>
     <g id="text_10">
      <!-- 2022-02 -->
      <g transform="translate(142.723921 599.120312)scale(0.1 -0.1)">
       <use xlink:href="#DejaVuSans-32"/>
       <use xlink:href="#DejaVuSans-30" x="63.623047"/>
       <use xlink:href="#DejaVuSans-32" x="127.246094"/>
       <use xlink:href="#DejaVuSans-32" x="190.869141"/>
       <use xlink:href="#DejaVuSans-2d" x="254.492188"/>
       <use xlink:href="#DejaVuSans-30" x="290.576172"/>
       <use xlink:href="#DejaVuSans-32" x="354.199219"/>
      </g>
     </g>
    </g>
    <g id="xtick_15">
     <g id="line2d_43">
      <path d="M 238.592617 584.521875 
L 238.592617 331.135938 
" clip-path="url(#p9402120c79)" style="fill: none; stroke-dasharray: 2.96,1.28; stroke-dashoffset: 0; stroke: #b0b0b0; stroke-width: 0.8"/>
     </g>
     <g id="line2d_44">
      <g>
       <use xlink:href="#meeb9070ec3" x="238.592617" y="584.521875" style="stroke: #000000; stroke-width: 0.8"/>
      </g>
     </g>
     <g id="text_11">
      <!-- 2022-03 -->
      <g transform="translate(217.701211 599.120312)scale(0.1 -0.1)">
       <defs>
        <path id="DejaVuSans-33" d="M 2597 2516 
Q 3050 2419 3304 2112 
Q 3559 1806 3559 1356 
Q 3559 666 3084 287 
Q 2609 -91 1734 -91 
Q 1441 -91 1130 -33 
Q 819 25 488 141 
L 488 750 
Q 750 597 1062 519 
Q 1375 441 1716 441 
Q 2309 441 2620 675 
Q 2931 909 2931 1356 
Q 2931 1769 2642 2001 
Q 2353 2234 1838 2234 
L 1294 2234 
L 1294 2753 
L 1863 2753 
Q 2328 2753 2575 2939 
Q 2822 3125 2822 3475 
Q 2822 3834 2567 4026 
Q 2313 4219 1838 4219 
Q 1578 4219 1281 4162 
Q 984 4106 628 3988 
L 628 4550 
Q 988 4650 1302 4700 
Q 1616 4750 1894 4750 
Q 2613 4750 3031 4423 
Q 3450 4097 3450 3541 
Q 3450 3153 3228 2886 
Q 3006 2619 2597 2516 
z
" transform="scale(0.015625)"/>
       </defs>
       <use xlink:href="#DejaVuSans-32"/>
       <use xlink:href="#DejaVuSans-30" x="63.623047"/>
       <use xlink:href="#DejaVuSans-32" x="127.246094"/>
       <use xlink:href="#DejaVuSans-32" x="190.869141"/>
       <use xlink:href="#DejaVuSans-2d" x="254.492188"/>
       <use xlink:href="#DejaVuSans-30" x="290.576172"/>
       <use xlink:href="#DejaVuSans-33" x="354.199219"/>
      </g>
     </g>
    </g>
    <g id="xtick_16">
     <g id="line2d_45">
      <path d="M 321.603188 584.521875 
L 321.603188 331.135938 
" clip-path="url(#p9402120c79)" style="fill: none; stroke-dasharray: 2.96,1.28; stroke-dashoffset: 0; stroke: #b0b0b0; stroke-width: 0.8"/>
     </g>
     <g id="line2d_46">
      <g>
       <use xlink:href="#meeb9070ec3" x="321.603188" y="584.521875" style="stroke: #000000; stroke-width: 0.8"/>
      </g>
     </g>
     <g id="text_12">
      <!-- 2022-04 -->
      <g transform="translate(300.711782 599.120312)scale(0.1 -0.1)">
       <use xlink:href="#DejaVuSans-32"/>
       <use xlink:href="#DejaVuSans-30" x="63.623047"/>
       <use xlink:href="#DejaVuSans-32" x="127.246094"/>
       <use xlink:href="#DejaVuSans-32" x="190.869141"/>
       <use xlink:href="#DejaVuSans-2d" x="254.492188"/>
       <use xlink:href="#DejaVuSans-30" x="290.576172"/>
       <use xlink:href="#DejaVuSans-34" x="354.199219"/>
      </g>
     </g>
    </g>
    <g id="xtick_17">
     <g id="line2d_47">
      <path d="M 401.935999 584.521875 
L 401.935999 331.135938 
" clip-path="url(#p9402120c79)" style="fill: none; stroke-dasharray: 2.96,1.28; stroke-dashoffset: 0; stroke: #b0b0b0; stroke-width: 0.8"/>
     </g>
     <g id="line2d_48">
      <g>
       <use xlink:href="#meeb9070ec3" x="401.935999" y="584.521875" style="stroke: #000000; stroke-width: 0.8"/>
      </g>
     </g>
     <g id="text_13">
      <!-- 2022-05 -->
      <g transform="translate(381.044592 599.120312)scale(0.1 -0.1)">
       <use xlink:href="#DejaVuSans-32"/>
       <use xlink:href="#DejaVuSans-30" x="63.623047"/>
       <use xlink:href="#DejaVuSans-32" x="127.246094"/>
       <use xlink:href="#DejaVuSans-32" x="190.869141"/>
       <use xlink:href="#DejaVuSans-2d" x="254.492188"/>
       <use xlink:href="#DejaVuSans-30" x="290.576172"/>
       <use xlink:href="#DejaVuSans-35" x="354.199219"/>
      </g>
     </g>
    </g>
    <g id="xtick_18">
     <g id="line2d_49">
      <path d="M 484.946569 584.521875 
L 484.946569 331.135938 
" clip-path="url(#p9402120c79)" style="fill: none; stroke-dasharray: 2.96,1.28; stroke-dashoffset: 0; stroke: #b0b0b0; stroke-width: 0.8"/>
     </g>
     <g id="line2d_50">
      <g>
       <use xlink:href="#meeb9070ec3" x="484.946569" y="584.521875" style="stroke: #000000; stroke-width: 0.8"/>
      </g>
     </g>
     <g id="text_14">
      <!-- 2022-06 -->
      <g transform="translate(464.055163 599.120312)scale(0.1 -0.1)">
       <use xlink:href="#DejaVuSans-32"/>
       <use xlink:href="#DejaVuSans-30" x="63.623047"/>
       <use xlink:href="#DejaVuSans-32" x="127.246094"/>
       <use xlink:href="#DejaVuSans-32" x="190.869141"/>
       <use xlink:href="#DejaVuSans-2d" x="254.492188"/>
       <use xlink:href="#DejaVuSans-30" x="290.576172"/>
       <use xlink:href="#DejaVuSans-36" x="354.199219"/>
      </g>
     </g>
    </g>
    <g id="xtick_19">
     <g id="line2d_51">
      <path d="M 565.27938 584.521875 
L 565.27938 331.135938 
" clip-path="url(#p9402120c79)" style="fill: none; stroke-dasharray: 2.96,1.28; stroke-dashoffset: 0; stroke: #b0b0b0; stroke-width: 0.8"/>
     </g>
     <g id="line2d_52">
      <g>
       <use xlink:href="#meeb9070ec3" x="565.27938" y="584.521875" style="stroke: #000000; stroke-width: 0.8"/>
      </g>
     </g>
     <g id="text_15">
      <!-- 2022-07 -->
      <g transform="translate(544.387973 599.120312)scale(0.1 -0.1)">
       <defs>
        <path id="DejaVuSans-37" d="M 525 4666 
L 3525 4666 
L 3525 4397 
L 1831 0 
L 1172 0 
L 2766 4134 
L 525 4134 
L 525 4666 
z
" transform="scale(0.015625)"/>
       </defs>
       <use xlink:href="#DejaVuSans-32"/>
       <use xlink:href="#DejaVuSans-30" x="63.623047"/>
       <use xlink:href="#DejaVuSans-32" x="127.246094"/>
       <use xlink:href="#DejaVuSans-32" x="190.869141"/>
       <use xlink:href="#DejaVuSans-2d" x="254.492188"/>
       <use xlink:href="#DejaVuSans-30" x="290.576172"/>
       <use xlink:href="#DejaVuSans-37" x="354.199219"/>
      </g>
     </g>
    </g>
    <g id="xtick_20">
     <g id="line2d_53">
      <path d="M 648.28995 584.521875 
L 648.28995 331.135938 
" clip-path="url(#p9402120c79)" style="fill: none; stroke-dasharray: 2.96,1.28; stroke-dashoffset: 0; stroke: #b0b0b0; stroke-width: 0.8"/>
     </g>
     <g id="line2d_54">
      <g>
       <use xlink:href="#meeb9070ec3" x="648.28995" y="584.521875" style="stroke: #000000; stroke-width: 0.8"/>
      </g>
     </g>
     <g id="text_16">
      <!-- 2022-08 -->
      <g transform="translate(627.398544 599.120312)scale(0.1 -0.1)">
       <use xlink:href="#DejaVuSans-32"/>
       <use xlink:href="#DejaVuSans-30" x="63.623047"/>
       <use xlink:href="#DejaVuSans-32" x="127.246094"/>
       <use xlink:href="#DejaVuSans-32" x="190.869141"/>
       <use xlink:href="#DejaVuSans-2d" x="254.492188"/>
       <use xlink:href="#DejaVuSans-30" x="290.576172"/>
       <use xlink:href="#DejaVuSans-38" x="354.199219"/>
      </g>
     </g>
    </g>
    <g id="xtick_21">
     <g id="line2d_55">
      <path d="M 731.300521 584.521875 
L 731.300521 331.135938 
" clip-path="url(#p9402120c79)" style="fill: none; stroke-dasharray: 2.96,1.28; stroke-dashoffset: 0; stroke: #b0b0b0; stroke-width: 0.8"/>
     </g>
     <g id="line2d_56">
      <g>
       <use xlink:href="#meeb9070ec3" x="731.300521" y="584.521875" style="stroke: #000000; stroke-width: 0.8"/>
      </g>
     </g>
     <g id="text_17">
      <!-- 2022-09 -->
      <g transform="translate(710.409115 599.120312)scale(0.1 -0.1)">
       <defs>
        <path id="DejaVuSans-39" d="M 703 97 
L 703 672 
Q 941 559 1184 500 
Q 1428 441 1663 441 
Q 2288 441 2617 861 
Q 2947 1281 2994 2138 
Q 2813 1869 2534 1725 
Q 2256 1581 1919 1581 
Q 1219 1581 811 2004 
Q 403 2428 403 3163 
Q 403 3881 828 4315 
Q 1253 4750 1959 4750 
Q 2769 4750 3195 4129 
Q 3622 3509 3622 2328 
Q 3622 1225 3098 567 
Q 2575 -91 1691 -91 
Q 1453 -91 1209 -44 
Q 966 3 703 97 
z
M 1959 2075 
Q 2384 2075 2632 2365 
Q 2881 2656 2881 3163 
Q 2881 3666 2632 3958 
Q 2384 4250 1959 4250 
Q 1534 4250 1286 3958 
Q 1038 3666 1038 3163 
Q 1038 2656 1286 2365 
Q 1534 2075 1959 2075 
z
" transform="scale(0.015625)"/>
       </defs>
       <use xlink:href="#DejaVuSans-32"/>
       <use xlink:href="#DejaVuSans-30" x="63.623047"/>
       <use xlink:href="#DejaVuSans-32" x="127.246094"/>
       <use xlink:href="#DejaVuSans-32" x="190.869141"/>
       <use xlink:href="#DejaVuSans-2d" x="254.492188"/>
       <use xlink:href="#DejaVuSans-30" x="290.576172"/>
       <use xlink:href="#DejaVuSans-39" x="354.199219"/>
      </g>
     </g>
    </g>
    <g id="xtick_22">
     <g id="line2d_57">
      <path d="M 811.633332 584.521875 
L 811.633332 331.135938 
" clip-path="url(#p9402120c79)" style="fill: none; stroke-dasharray: 2.96,1.28; stroke-dashoffset: 0; stroke: #b0b0b0; stroke-width: 0.8"/>
     </g>
     <g id="line2d_58">
      <g>
       <use xlink:href="#meeb9070ec3" x="811.633332" y="584.521875" style="stroke: #000000; stroke-width: 0.8"/>
      </g>
     </g>
     <g id="text_18">
      <!-- 2022-10 -->
      <g transform="translate(790.741925 599.120312)scale(0.1 -0.1)">
       <use xlink:href="#DejaVuSans-32"/>
       <use xlink:href="#DejaVuSans-30" x="63.623047"/>
       <use xlink:href="#DejaVuSans-32" x="127.246094"/>
       <use xlink:href="#DejaVuSans-32" x="190.869141"/>
       <use xlink:href="#DejaVuSans-2d" x="254.492188"/>
       <use xlink:href="#DejaVuSans-31" x="290.576172"/>
       <use xlink:href="#DejaVuSans-30" x="354.199219"/>
      </g>
     </g>
    </g>
    <g id="xtick_23">
     <g id="line2d_59">
      <path d="M 894.643902 584.521875 
L 894.643902 331.135938 
" clip-path="url(#p9402120c79)" style="fill: none; stroke-dasharray: 2.96,1.28; stroke-dashoffset: 0; stroke: #b0b0b0; stroke-width: 0.8"/>
     </g>
     <g id="line2d_60">
      <g>
       <use xlink:href="#meeb9070ec3" x="894.643902" y="584.521875" style="stroke: #000000; stroke-width: 0.8"/>
      </g>
     </g>
     <g id="text_19">
      <!-- 2022-11 -->
      <g transform="translate(873.752496 599.120312)scale(0.1 -0.1)">
       <use xlink:href="#DejaVuSans-32"/>
       <use xlink:href="#DejaVuSans-30" x="63.623047"/>
       <use xlink:href="#DejaVuSans-32" x="127.246094"/>
       <use xlink:href="#DejaVuSans-32" x="190.869141"/>
       <use xlink:href="#DejaVuSans-2d" x="254.492188"/>
       <use xlink:href="#DejaVuSans-31" x="290.576172"/>
       <use xlink:href="#DejaVuSans-31" x="354.199219"/>
      </g>
     </g>
    </g>
    <g id="xtick_24">
     <g id="line2d_61">
      <path d="M 974.976713 584.521875 
L 974.976713 331.135938 
" clip-path="url(#p9402120c79)" style="fill: none; stroke-dasharray: 2.96,1.28; stroke-dashoffset: 0; stroke: #b0b0b0; stroke-width: 0.8"/>
     </g>
     <g id="line2d_62">
      <g>
       <use xlink:href="#meeb9070ec3" x="974.976713" y="584.521875" style="stroke: #000000; stroke-width: 0.8"/>
      </g>
     </g>
     <g id="text_20">
      <!-- 2022-12 -->
      <g transform="translate(954.085307 599.120312)scale(0.1 -0.1)">
       <use xlink:href="#DejaVuSans-32"/>
       <use xlink:href="#DejaVuSans-30" x="63.623047"/>
       <use xlink:href="#DejaVuSans-32" x="127.246094"/>
       <use xlink:href="#DejaVuSans-32" x="190.869141"/>
       <use xlink:href="#DejaVuSans-2d" x="254.492188"/>
       <use xlink:href="#DejaVuSans-31" x="290.576172"/>
       <use xlink:href="#DejaVuSans-32" x="354.199219"/>
      </g>
     </g>
    </g>
   </g>
   <g id="matplotlib.axis_4">
    <g id="ytick_6">
     <g id="line2d_63">
      <path d="M 43.25 549.224858 
L 982.876106 549.224858 
" clip-path="url(#p9402120c79)" style="fill: none; stroke-dasharray: 2.96,1.28; stroke-dashoffset: 0; stroke: #b0b0b0; stroke-width: 0.8"/>
     </g>
     <g id="line2d_64">
      <g>
       <use xlink:href="#m320f48a88d" x="43.25" y="549.224858" style="stroke: #000000; stroke-width: 0.8"/>
      </g>
     </g>
     <g id="text_21">
      <!-- −60 -->
      <g transform="translate(15.145313 553.024076)scale(0.1 -0.1)">
       <defs>
        <path id="DejaVuSans-2212" d="M 678 2272 
L 4684 2272 
L 4684 1741 
L 678 1741 
L 678 2272 
z
" transform="scale(0.015625)"/>
       </defs>
       <use xlink:href="#DejaVuSans-2212"/>
       <use xlink:href="#DejaVuSans-36" x="83.789062"/>
       <use xlink:href="#DejaVuSans-30" x="147.412109"/>
      </g>
     </g>
    </g>
    <g id="ytick_7">
     <g id="line2d_65">
      <path d="M 43.25 497.490407 
L 982.876106 497.490407 
" clip-path="url(#p9402120c79)" style="fill: none; stroke-dasharray: 2.96,1.28; stroke-dashoffset: 0; stroke: #b0b0b0; stroke-width: 0.8"/>
     </g>
     <g id="line2d_66">
      <g>
       <use xlink:href="#m320f48a88d" x="43.25" y="497.490407" style="stroke: #000000; stroke-width: 0.8"/>
      </g>
     </g>
     <g id="text_22">
      <!-- −40 -->
      <g transform="translate(15.145313 501.289626)scale(0.1 -0.1)">
       <use xlink:href="#DejaVuSans-2212"/>
       <use xlink:href="#DejaVuSans-34" x="83.789062"/>
       <use xlink:href="#DejaVuSans-30" x="147.412109"/>
      </g>
     </g>
    </g>
    <g id="ytick_8">
     <g id="line2d_67">
      <path d="M 43.25 445.755956 
L 982.876106 445.755956 
" clip-path="url(#p9402120c79)" style="fill: none; stroke-dasharray: 2.96,1.28; stroke-dashoffset: 0; stroke: #b0b0b0; stroke-width: 0.8"/>
     </g>
     <g id="line2d_68">
      <g>
       <use xlink:href="#m320f48a88d" x="43.25" y="445.755956" style="stroke: #000000; stroke-width: 0.8"/>
      </g>
     </g>
     <g id="text_23">
      <!-- −20 -->
      <g transform="translate(15.145313 449.555175)scale(0.1 -0.1)">
       <use xlink:href="#DejaVuSans-2212"/>
       <use xlink:href="#DejaVuSans-32" x="83.789062"/>
       <use xlink:href="#DejaVuSans-30" x="147.412109"/>
      </g>
     </g>
    </g>
    <g id="ytick_9">
     <g id="line2d_69">
      <path d="M 43.25 394.021506 
L 982.876106 394.021506 
" clip-path="url(#p9402120c79)" style="fill: none; stroke-dasharray: 2.96,1.28; stroke-dashoffset: 0; stroke: #b0b0b0; stroke-width: 0.8"/>
     </g>
     <g id="line2d_70">
      <g>
       <use xlink:href="#m320f48a88d" x="43.25" y="394.021506" style="stroke: #000000; stroke-width: 0.8"/>
      </g>
     </g>
     <g id="text_24">
      <!-- 0 -->
      <g transform="translate(29.8875 397.820725)scale(0.1 -0.1)">
       <use xlink:href="#DejaVuSans-30"/>
      </g>
     </g>
    </g>
    <g id="ytick_10">
     <g id="line2d_71">
      <path d="M 43.25 342.287055 
L 982.876106 342.287055 
" clip-path="url(#p9402120c79)" style="fill: none; stroke-dasharray: 2.96,1.28; stroke-dashoffset: 0; stroke: #b0b0b0; stroke-width: 0.8"/>
     </g>
     <g id="line2d_72">
      <g>
       <use xlink:href="#m320f48a88d" x="43.25" y="342.287055" style="stroke: #000000; stroke-width: 0.8"/>
      </g>
     </g>
     <g id="text_25">
      <!-- 20 -->
      <g transform="translate(23.525 346.086274)scale(0.1 -0.1)">
       <use xlink:href="#DejaVuSans-32"/>
       <use xlink:href="#DejaVuSans-30" x="63.623047"/>
      </g>
     </g>
    </g>
   </g>
   <g id="line2d_73">
    <path d="M 85.960278 394.021506 
L 88.638038 393.731329 
L 91.315798 397.84295 
L 93.993559 403.864037 
L 96.671319 405.719149 
L 104.7046 405.270537 
L 107.38236 402.310659 
L 110.060121 401.016953 
L 112.737881 401.509769 
L 115.415641 399.225509 
L 123.448922 399.617255 
L 126.126683 408.588254 
L 128.804443 413.681941 
L 131.482203 417.719018 
L 134.159964 431.72047 
L 142.193245 454.484313 
L 144.871005 473.103559 
L 150.226526 495.36215 
L 152.904286 517.034896 
L 160.937567 520.729915 
L 163.615328 517.488252 
L 166.293088 517.463348 
L 168.970848 521.015466 
L 171.648609 523.360139 
L 179.68189 524.363831 
L 182.35965 525.452114 
L 185.03741 520.987193 
L 187.715171 513.491931 
L 190.392931 514.384523 
L 198.426212 520.212972 
L 201.103972 513.938401 
L 203.781733 506.820302 
L 206.459493 499.273612 
L 209.137254 494.00793 
L 217.170535 492.561172 
L 219.848295 491.393954 
L 222.526055 489.214069 
L 225.203816 502.166933 
L 227.881576 499.896742 
L 235.914857 492.893191 
L 241.270378 489.379048 
L 243.948138 479.112257 
L 246.625898 464.725486 
L 254.659179 458.547721 
L 257.33694 445.387494 
L 260.0147 425.899415 
L 262.69246 414.176638 
L 265.370221 404.472984 
L 273.403502 393.482192 
L 276.081262 393.860877 
L 278.759023 387.818914 
L 281.436783 382.427099 
L 292.147824 381.118809 
L 294.825585 368.366023 
L 297.503345 357.865492 
L 300.181105 344.673376 
L 302.858866 342.65348 
L 310.892147 342.90284 
L 313.569907 344.110692 
L 316.247667 350.952558 
L 318.925428 356.159355 
L 321.603188 363.198674 
L 329.636469 366.698956 
L 332.314229 371.720371 
L 334.99199 381.998848 
L 337.66975 388.300859 
L 340.347511 397.367034 
L 348.380792 404.339131 
L 351.058552 416.708302 
L 353.736312 427.074868 
L 367.125114 448.3643 
L 369.802874 473.33618 
L 372.480635 490.350581 
L 375.158395 501.862114 
L 377.836155 510.926905 
L 385.869436 524.125084 
L 391.224957 539.418095 
L 393.902717 541.548003 
L 396.580478 544.068029 
L 404.613759 550.057949 
L 409.96928 556.762523 
L 412.64704 549.745615 
L 415.3248 536.827331 
L 423.358081 531.178301 
L 426.035842 529.07398 
L 428.713602 529.56506 
L 431.391362 530.806282 
L 434.069123 532.27083 
L 442.102404 534.68754 
L 444.780164 533.091209 
L 447.457924 535.647283 
L 450.135685 549.170598 
L 452.813445 553.347387 
L 460.846726 552.329268 
L 463.524487 558.91489 
L 466.202247 570.07355 
L 468.880007 573.004332 
L 471.557768 564.051426 
L 479.591049 546.694144 
L 482.268809 528.003385 
L 484.946569 518.773853 
L 490.30209 501.845997 
L 498.335371 494.800221 
L 501.013131 490.998997 
L 503.690892 488.174053 
L 506.368652 481.917044 
L 509.046412 481.944409 
L 517.079693 492.909073 
L 519.757454 504.870221 
L 522.435214 515.061971 
L 525.112974 530.90018 
L 527.790735 543.863868 
L 535.824016 549.362557 
L 538.501776 547.619138 
L 541.179537 548.649906 
L 543.857297 545.405086 
L 546.535057 543.180303 
L 554.568338 534.372833 
L 557.246099 523.087466 
L 559.923859 512.692274 
L 562.601619 507.549147 
L 565.27938 500.018079 
L 573.312661 495.127831 
L 575.990421 489.473629 
L 578.668181 482.57346 
L 584.023702 465.042241 
L 592.056983 461.187957 
L 594.734744 459.507457 
L 597.412504 458.950831 
L 600.090264 460.715153 
L 602.768025 461.750095 
L 610.801306 454.732198 
L 613.479066 448.603889 
L 616.156826 435.380712 
L 618.834587 427.180224 
L 621.512347 421.213157 
L 629.545628 418.59087 
L 632.223388 419.949945 
L 634.901149 419.006604 
L 637.578909 411.720216 
L 640.256669 403.612236 
L 648.28995 396.954506 
L 650.967711 395.21279 
L 653.645471 389.697386 
L 656.323232 384.723902 
L 659.000992 380.48961 
L 667.034273 377.65651 
L 672.389794 375.912225 
L 675.067554 370.202051 
L 677.745314 368.341751 
L 688.456356 364.742005 
L 691.134116 356.725262 
L 693.811876 350.735243 
L 696.489637 346.741846 
L 704.522918 349.403453 
L 707.200678 354.638472 
L 709.878438 358.146737 
L 712.556199 361.37643 
L 715.233959 361.193944 
L 723.26724 371.742452 
L 725.945001 371.893449 
L 731.300521 377.051189 
L 733.978282 380.563331 
L 742.011563 381.68347 
L 744.689323 382.980246 
L 747.367083 385.741895 
L 750.044844 381.035695 
L 752.722604 369.8513 
L 760.755885 356.525183 
L 763.433645 347.058624 
L 766.111406 346.934889 
L 768.789166 353.915776 
L 771.466926 370.118307 
L 779.500207 381.785006 
L 782.177968 387.629335 
L 784.855728 391.455678 
L 787.533489 396.907355 
L 790.211249 403.890154 
L 798.24453 409.70251 
L 800.92229 416.22367 
L 803.600051 419.594118 
L 806.277811 426.606824 
L 808.955571 431.420245 
L 816.988852 435.404926 
L 819.666613 433.350483 
L 825.022133 430.673639 
L 827.699894 429.696003 
L 835.733175 427.388586 
L 838.410935 430.256059 
L 841.088695 429.809579 
L 843.766456 429.660658 
L 846.444216 427.714035 
L 854.477497 425.103359 
L 859.833018 421.94593 
L 862.510778 415.779029 
L 865.188539 410.802636 
L 873.22182 405.268078 
L 875.89958 393.715658 
L 881.255101 386.040318 
L 883.932861 385.668596 
L 891.966142 382.490819 
L 894.643902 378.5849 
L 897.321663 373.410157 
L 899.999423 375.605809 
L 902.677183 377.370836 
L 910.710465 378.974396 
L 916.065985 385.519659 
L 918.743746 392.312848 
L 921.421506 389.895925 
L 929.454787 386.677124 
L 932.132547 383.908811 
L 934.810308 381.875784 
L 937.488068 382.13406 
L 940.165828 381.997281 
L 940.165828 381.997281 
" clip-path="url(#p9402120c79)" style="fill: none; stroke: #1f77b4; stroke-width: 1.5; stroke-linecap: square"/>
   </g>
   <g id="line2d_74">
    <path d="M 85.960278 394.021506 
L 88.638038 393.860296 
L 91.315798 395.492531 
L 93.993559 398.328407 
L 96.671319 400.526986 
L 104.7046 401.812752 
L 107.38236 401.938759 
L 110.060121 401.717231 
L 112.737881 401.669307 
L 115.415641 401.121754 
L 123.448922 400.792578 
L 126.126683 402.466762 
L 128.804443 404.840284 
L 131.482203 407.534525 
L 134.159964 412.548114 
L 142.193245 421.178271 
L 144.871005 431.802566 
L 150.226526 444.747682 
L 152.904286 459.416525 
L 160.937567 471.822231 
L 163.615328 481.040458 
L 166.293088 488.379186 
L 168.970848 494.945201 
L 171.648609 500.655153 
L 179.68189 505.41487 
L 182.35965 509.434468 
L 185.03741 511.750613 
L 190.392931 512.557254 
L 198.426212 514.090295 
L 201.103972 514.059886 
L 203.781733 512.610821 
L 206.459493 509.941688 
L 209.137254 506.75332 
L 217.170535 503.913738 
L 222.526055 498.969355 
L 225.203816 499.609004 
L 227.881576 499.666561 
L 235.914857 498.311707 
L 241.270378 496.524985 
L 243.948138 493.042143 
L 246.625898 487.378426 
L 254.659179 481.611971 
L 257.33694 474.36676 
L 262.69246 454.573409 
L 265.370221 444.5531 
L 273.403502 434.338736 
L 276.081262 426.243049 
L 278.759023 418.558134 
L 281.436783 411.331861 
L 292.147824 405.289207 
L 294.825585 397.904527 
L 297.503345 389.896682 
L 300.181105 380.851987 
L 302.858866 373.212263 
L 310.892147 367.150364 
L 313.569907 362.542421 
L 316.247667 360.224445 
L 318.925428 359.411426 
L 321.603188 360.168876 
L 329.636469 361.474893 
L 332.314229 363.52399 
L 334.99199 367.218963 
L 337.66975 371.435344 
L 340.347511 376.621684 
L 348.380792 382.165175 
L 351.058552 389.073801 
L 353.736312 396.674016 
L 367.125114 407.012074 
L 369.802874 420.276897 
L 375.158395 447.805732 
L 377.836155 460.429967 
L 385.869436 473.168991 
L 388.547197 484.923686 
L 391.224957 495.822569 
L 393.902717 504.967656 
L 396.580478 512.78773 
L 404.613759 520.241774 
L 409.96928 527.545924 
L 412.64704 531.985862 
L 415.3248 532.954156 
L 423.358081 532.598985 
L 426.035842 531.893984 
L 428.713602 531.428199 
L 431.391362 531.303816 
L 444.780164 532.326468 
L 447.457924 532.990631 
L 450.135685 536.226625 
L 452.813445 539.650777 
L 460.846726 542.186475 
L 463.524487 545.532158 
L 466.202247 550.440437 
L 468.880007 554.953216 
L 471.557768 556.772858 
L 479.591049 554.757115 
L 482.268809 549.406369 
L 484.946569 543.279866 
L 487.62433 536.672849 
L 490.30209 529.707478 
L 498.335371 522.726027 
L 501.013131 516.380621 
L 506.368652 504.974855 
L 509.046412 500.368766 
L 517.079693 498.876827 
L 519.757454 500.075506 
L 522.435214 503.072799 
L 525.112974 508.638275 
L 527.790735 515.683394 
L 535.824016 522.419226 
L 538.501776 527.459209 
L 541.179537 531.697348 
L 543.857297 534.438896 
L 546.535057 536.187177 
L 554.568338 535.824308 
L 557.246099 533.27694 
L 559.923859 529.160007 
L 562.601619 524.837835 
L 565.27938 519.873883 
L 573.312661 514.924673 
L 575.990421 509.834464 
L 578.668181 504.382263 
L 581.345942 498.289697 
L 584.023702 491.640206 
L 592.056983 485.549756 
L 594.734744 480.341296 
L 597.412504 476.063203 
L 600.090264 472.993593 
L 602.768025 470.744893 
L 610.801306 467.542354 
L 613.479066 463.754661 
L 616.156826 458.079871 
L 621.512347 445.762585 
L 629.545628 440.328242 
L 632.223388 436.252583 
L 634.901149 432.803387 
L 637.578909 428.586753 
L 640.256669 423.591849 
L 648.28995 418.264381 
L 653.645471 408.862727 
L 659.000992 399.325892 
L 667.034273 394.992015 
L 672.389794 391.176057 
L 675.067554 386.981256 
L 677.745314 383.253355 
L 688.456356 379.551085 
L 691.134116 374.98592 
L 696.489637 365.456997 
L 704.522918 362.246288 
L 707.200678 360.724725 
L 709.878438 360.209127 
L 715.233959 360.592859 
L 723.26724 362.822778 
L 725.945001 364.636912 
L 731.300521 367.119767 
L 733.978282 369.80848 
L 742.011563 372.183478 
L 747.367083 376.622644 
L 750.044844 377.505254 
L 752.722604 375.974463 
L 760.755885 372.084607 
L 763.433645 367.07941 
L 766.111406 363.050506 
L 768.789166 361.22356 
L 771.466926 363.002509 
L 779.500207 366.759009 
L 787.533489 379.411547 
L 790.211249 384.307268 
L 798.24453 389.386317 
L 800.92229 394.753787 
L 803.600051 399.721853 
L 808.955571 410.363127 
L 816.988852 415.371487 
L 819.666613 418.967286 
L 825.022133 421.308557 
L 827.699894 422.986046 
L 835.733175 423.866554 
L 838.410935 425.144455 
L 841.088695 426.07748 
L 843.766456 426.794115 
L 846.444216 426.978099 
L 854.477497 426.603151 
L 857.155258 425.982159 
L 859.833018 425.174913 
L 862.510778 423.295736 
L 865.188539 420.797116 
L 873.22182 417.691308 
L 875.89958 412.896178 
L 881.255101 407.525006 
L 883.932861 403.153724 
L 891.966142 399.021143 
L 894.643902 394.933895 
L 897.321663 390.629147 
L 899.999423 387.624479 
L 902.677183 385.573751 
L 910.710465 384.25388 
L 916.065985 384.507036 
L 918.743746 386.068198 
L 921.421506 386.833743 
L 929.454787 386.80242 
L 932.132547 386.223698 
L 934.810308 385.354115 
L 940.165828 384.16754 
L 940.165828 384.16754 
" clip-path="url(#p9402120c79)" style="fill: none; stroke: #ff7f0e; stroke-width: 1.5; stroke-linecap: square"/>
   </g>
   <g id="patch_9">
    <path d="M 43.25 584.521875 
L 43.25 331.135938 
" style="fill: none; stroke: #000000; stroke-width: 0.8; stroke-linejoin: miter; stroke-linecap: square"/>
   </g>
   <g id="patch_10">
    <path d="M 982.876106 584.521875 
L 982.876106 331.135938 
" style="fill: none; stroke: #000000; stroke-width: 0.8; stroke-linejoin: miter; stroke-linecap: square"/>
   </g>
   <g id="patch_11">
    <path d="M 43.25 584.521875 
L 982.876106 584.521875 
" style="fill: none; stroke: #000000; stroke-width: 0.8; stroke-linejoin: miter; stroke-linecap: square"/>
   </g>
   <g id="patch_12">
    <path d="M 43.25 331.135938 
L 982.876106 331.135938 
" style="fill: none; stroke: #000000; stroke-width: 0.8; stroke-linejoin: miter; stroke-linecap: square"/>
   </g>
   <g id="text_26">
    <!-- MACD -->
    <g transform="translate(495.077115 325.135938)scale(0.12 -0.12)">
     <defs>
      <path id="DejaVuSans-44" d="M 1259 4147 
L 1259 519 
L 2022 519 
Q 2988 519 3436 956 
Q 3884 1394 3884 2338 
Q 3884 3275 3436 3711 
Q 2988 4147 2022 4147 
L 1259 4147 
z
M 628 4666 
L 1925 4666 
Q 3281 4666 3915 4102 
Q 4550 3538 4550 2338 
Q 4550 1131 3912 565 
Q 3275 0 1925 0 
L 628 0 
L 628 4666 
z
" transform="scale(0.015625)"/>
     </defs>
     <use xlink:href="#DejaVuSans-4d"/>
     <use xlink:href="#DejaVuSans-41" x="86.279297"/>
     <use xlink:href="#DejaVuSans-43" x="152.9375"/>
     <use xlink:href="#DejaVuSans-44" x="222.761719"/>
    </g>
   </g>
   <g id="legend_2">
    <g id="patch_13">
     <path d="M 913.899543 368.492188 
L 975.876106 368.492188 
Q 977.876106 368.492188 977.876106 366.492188 
L 977.876106 338.135938 
Q 977.876106 336.135938 975.876106 336.135938 
L 913.899543 336.135938 
Q 911.899543 336.135938 911.899543 338.135938 
L 911.899543 366.492188 
Q 911.899543 368.492188 913.899543 368.492188 
z
" style="fill: #ffffff; opacity: 0.8; stroke: #cccccc; stroke-linejoin: miter"/>
    </g>
    <g id="line2d_75">
     <path d="M 915.899543 344.234375 
L 925.899543 344.234375 
L 935.899543 344.234375 
" style="fill: none; stroke: #1f77b4; stroke-width: 1.5; stroke-linecap: square"/>
    </g>
    <g id="text_27">
     <!-- MACD -->
     <g transform="translate(943.899543 347.734375)scale(0.1 -0.1)">
      <use xlink:href="#DejaVuSans-4d"/>
      <use xlink:href="#DejaVuSans-41" x="86.279297"/>
      <use xlink:href="#DejaVuSans-43" x="152.9375"/>
      <use xlink:href="#DejaVuSans-44" x="222.761719"/>
     </g>
    </g>
    <g id="line2d_76">
     <path d="M 915.899543 358.9125 
L 925.899543 358.9125 
L 935.899543 358.9125 
" style="fill: none; stroke: #ff7f0e; stroke-width: 1.5; stroke-linecap: square"/>
    </g>
    <g id="text_28">
     <!-- SIG -->
     <g transform="translate(943.899543 362.4125)scale(0.1 -0.1)">
      <defs>
       <path id="DejaVuSans-49" d="M 628 4666 
L 1259 4666 
L 1259 0 
L 628 0 
L 628 4666 
z
" transform="scale(0.015625)"/>
       <path id="DejaVuSans-47" d="M 3809 666 
L 3809 1919 
L 2778 1919 
L 2778 2438 
L 4434 2438 
L 4434 434 
Q 4069 175 3628 42 
Q 3188 -91 2688 -91 
Q 1594 -91 976 548 
Q 359 1188 359 2328 
Q 359 3472 976 4111 
Q 1594 4750 2688 4750 
Q 3144 4750 3555 4637 
Q 3966 4525 4313 4306 
L 4313 3634 
Q 3963 3931 3569 4081 
Q 3175 4231 2741 4231 
Q 1884 4231 1454 3753 
Q 1025 3275 1025 2328 
Q 1025 1384 1454 906 
Q 1884 428 2741 428 
Q 3075 428 3337 486 
Q 3600 544 3809 666 
z
" transform="scale(0.015625)"/>
      </defs>
      <use xlink:href="#DejaVuSans-53"/>
      <use xlink:href="#DejaVuSans-49" x="63.476562"/>
      <use xlink:href="#DejaVuSans-47" x="92.96875"/>
     </g>
    </g>
   </g>
  </g>
  <g id="text_29">
   <!-- Tech Mahindra Limited -->
   <g transform="translate(436.295625 21.358125)scale(0.12 -0.12)">
    <defs>
     <path id="DejaVuSans-54" d="M -19 4666 
L 3928 4666 
L 3928 4134 
L 2272 4134 
L 2272 0 
L 1638 0 
L 1638 4134 
L -19 4134 
L -19 4666 
z
" transform="scale(0.015625)"/>
     <path id="DejaVuSans-68" d="M 3513 2113 
L 3513 0 
L 2938 0 
L 2938 2094 
Q 2938 2591 2744 2837 
Q 2550 3084 2163 3084 
Q 1697 3084 1428 2787 
Q 1159 2491 1159 1978 
L 1159 0 
L 581 0 
L 581 4863 
L 1159 4863 
L 1159 2956 
Q 1366 3272 1645 3428 
Q 1925 3584 2291 3584 
Q 2894 3584 3203 3211 
Q 3513 2838 3513 2113 
z
" transform="scale(0.015625)"/>
     <path id="DejaVuSans-61" d="M 2194 1759 
Q 1497 1759 1228 1600 
Q 959 1441 959 1056 
Q 959 750 1161 570 
Q 1363 391 1709 391 
Q 2188 391 2477 730 
Q 2766 1069 2766 1631 
L 2766 1759 
L 2194 1759 
z
M 3341 1997 
L 3341 0 
L 2766 0 
L 2766 531 
Q 2569 213 2275 61 
Q 1981 -91 1556 -91 
Q 1019 -91 701 211 
Q 384 513 384 1019 
Q 384 1609 779 1909 
Q 1175 2209 1959 2209 
L 2766 2209 
L 2766 2266 
Q 2766 2663 2505 2880 
Q 2244 3097 1772 3097 
Q 1472 3097 1187 3025 
Q 903 2953 641 2809 
L 641 3341 
Q 956 3463 1253 3523 
Q 1550 3584 1831 3584 
Q 2591 3584 2966 3190 
Q 3341 2797 3341 1997 
z
" transform="scale(0.015625)"/>
     <path id="DejaVuSans-64" d="M 2906 2969 
L 2906 4863 
L 3481 4863 
L 3481 0 
L 2906 0 
L 2906 525 
Q 2725 213 2448 61 
Q 2172 -91 1784 -91 
Q 1150 -91 751 415 
Q 353 922 353 1747 
Q 353 2572 751 3078 
Q 1150 3584 1784 3584 
Q 2172 3584 2448 3432 
Q 2725 3281 2906 2969 
z
M 947 1747 
Q 947 1113 1208 752 
Q 1469 391 1925 391 
Q 2381 391 2643 752 
Q 2906 1113 2906 1747 
Q 2906 2381 2643 2742 
Q 2381 3103 1925 3103 
Q 1469 3103 1208 2742 
Q 947 2381 947 1747 
z
" transform="scale(0.015625)"/>
     <path id="DejaVuSans-6d" d="M 3328 2828 
Q 3544 3216 3844 3400 
Q 4144 3584 4550 3584 
Q 5097 3584 5394 3201 
Q 5691 2819 5691 2113 
L 5691 0 
L 5113 0 
L 5113 2094 
Q 5113 2597 4934 2840 
Q 4756 3084 4391 3084 
Q 3944 3084 3684 2787 
Q 3425 2491 3425 1978 
L 3425 0 
L 2847 0 
L 2847 2094 
Q 2847 2600 2669 2842 
Q 2491 3084 2119 3084 
Q 1678 3084 1418 2786 
Q 1159 2488 1159 1978 
L 1159 0 
L 581 0 
L 581 3500 
L 1159 3500 
L 1159 2956 
Q 1356 3278 1631 3431 
Q 1906 3584 2284 3584 
Q 2666 3584 2933 3390 
Q 3200 3197 3328 2828 
z
" transform="scale(0.015625)"/>
     <path id="DejaVuSans-74" d="M 1172 4494 
L 1172 3500 
L 2356 3500 
L 2356 3053 
L 1172 3053 
L 1172 1153 
Q 1172 725 1289 603 
Q 1406 481 1766 481 
L 2356 481 
L 2356 0 
L 1766 0 
Q 1100 0 847 248 
Q 594 497 594 1153 
L 594 3053 
L 172 3053 
L 172 3500 
L 594 3500 
L 594 4494 
L 1172 4494 
z
" transform="scale(0.015625)"/>
    </defs>
    <use xlink:href="#DejaVuSans-54"/>
    <use xlink:href="#DejaVuSans-65" x="44.083984"/>
    <use xlink:href="#DejaVuSans-63" x="105.607422"/>
    <use xlink:href="#DejaVuSans-68" x="160.587891"/>
    <use xlink:href="#DejaVuSans-20" x="223.966797"/>
    <use xlink:href="#DejaVuSans-4d" x="255.753906"/>
    <use xlink:href="#DejaVuSans-61" x="342.033203"/>
    <use xlink:href="#DejaVuSans-68" x="403.3125"/>
    <use xlink:href="#DejaVuSans-69" x="466.691406"/>
    <use xlink:href="#DejaVuSans-6e" x="494.474609"/>
    <use xlink:href="#DejaVuSans-64" x="557.853516"/>
    <use xlink:href="#DejaVuSans-72" x="621.330078"/>
    <use xlink:href="#DejaVuSans-61" x="662.443359"/>
    <use xlink:href="#DejaVuSans-20" x="723.722656"/>
    <use xlink:href="#DejaVuSans-4c" x="755.509766"/>
    <use xlink:href="#DejaVuSans-69" x="811.222656"/>
    <use xlink:href="#DejaVuSans-6d" x="839.005859"/>
    <use xlink:href="#DejaVuSans-69" x="936.417969"/>
    <use xlink:href="#DejaVuSans-74" x="964.201172"/>
    <use xlink:href="#DejaVuSans-65" x="1003.410156"/>
    <use xlink:href="#DejaVuSans-64" x="1064.933594"/>
   </g>
  </g>
 </g>
 <defs>
  <clipPath id="pa7a6a2847d">
   <rect x="43.25" y="48.331875" width="939.626106" height="253.385938"/>
  </clipPath>
  <clipPath id="p9402120c79">
   <rect x="43.25" y="331.135938" width="939.626106" height="253.385937"/>
  </clipPath>
 </defs>
</svg>
