<?xml version="1.0" encoding="utf-8" standalone="no"?>
<!DOCTYPE svg PUBLIC "-//W3C//DTD SVG 1.1//EN"
  "http://www.w3.org/Graphics/SVG/1.1/DTD/svg11.dtd">
<svg xmlns:xlink="http://www.w3.org/1999/xlink" width="1008pt" height="612pt" viewBox="0 0 1008 612" xmlns="http://www.w3.org/2000/svg" version="1.1">
 <metadata>
  <rdf:RDF xmlns:dc="http://purl.org/dc/elements/1.1/" xmlns:cc="http://creativecommons.org/ns#" xmlns:rdf="http://www.w3.org/1999/02/22-rdf-syntax-ns#">
   <cc:Work>
    <dc:type rdf:resource="http://purl.org/dc/dcmitype/StillImage"/>
    <dc:date>2022-11-20T19:47:03.220396</dc:date>
    <dc:format>image/svg+xml</dc:format>
    <dc:creator>
     <cc:Agent>
      <dc:title>Matplotlib v3.5.2, https://matplotlib.org/</dc:title>
     </cc:Agent>
    </dc:creator>
   </cc:Work>
  </rdf:RDF>
 </metadata>
 <defs>
  <style type="text/css">*{stroke-linejoin: round; stroke-linecap: butt}</style>
 </defs>
 <g id="figure_1">
  <g id="patch_1">
   <path d="M 0 612 
L 1008 612 
L 1008 0 
L 0 0 
z
" style="fill: #ffffff"/>
  </g>
  <g id="axes_1">
   <g id="patch_2">
    <path d="M 38.904688 301.717812 
L 982.876106 301.717812 
L 982.876106 48.331875 
L 38.904688 48.331875 
z
" style="fill: #ffffff"/>
   </g>
   <g id="matplotlib.axis_1">
    <g id="xtick_1">
     <g id="line2d_1">
      <path d="M 76.432192 301.717812 
L 76.432192 48.331875 
" clip-path="url(#pece377035e)" style="fill: none; stroke-dasharray: 2.96,1.28; stroke-dashoffset: 0; stroke: #b0b0b0; stroke-width: 0.8"/>
     </g>
     <g id="line2d_2">
      <defs>
       <path id="mf92681893c" d="M 0 0 
L 0 3.5 
" style="stroke: #000000; stroke-width: 0.8"/>
      </defs>
      <g>
       <use xlink:href="#mf92681893c" x="76.432192" y="301.717812" style="stroke: #000000; stroke-width: 0.8"/>
      </g>
     </g>
    </g>
    <g id="xtick_2">
     <g id="line2d_3">
      <path d="M 159.826646 301.717812 
L 159.826646 48.331875 
" clip-path="url(#pece377035e)" style="fill: none; stroke-dasharray: 2.96,1.28; stroke-dashoffset: 0; stroke: #b0b0b0; stroke-width: 0.8"/>
     </g>
     <g id="line2d_4">
      <g>
       <use xlink:href="#mf92681893c" x="159.826646" y="301.717812" style="stroke: #000000; stroke-width: 0.8"/>
      </g>
     </g>
    </g>
    <g id="xtick_3">
     <g id="line2d_5">
      <path d="M 235.150669 301.717812 
L 235.150669 48.331875 
" clip-path="url(#pece377035e)" style="fill: none; stroke-dasharray: 2.96,1.28; stroke-dashoffset: 0; stroke: #b0b0b0; stroke-width: 0.8"/>
     </g>
     <g id="line2d_6">
      <g>
       <use xlink:href="#mf92681893c" x="235.150669" y="301.717812" style="stroke: #000000; stroke-width: 0.8"/>
      </g>
     </g>
    </g>
    <g id="xtick_4">
     <g id="line2d_7">
      <path d="M 318.545123 301.717812 
L 318.545123 48.331875 
" clip-path="url(#pece377035e)" style="fill: none; stroke-dasharray: 2.96,1.28; stroke-dashoffset: 0; stroke: #b0b0b0; stroke-width: 0.8"/>
     </g>
     <g id="line2d_8">
      <g>
       <use xlink:href="#mf92681893c" x="318.545123" y="301.717812" style="stroke: #000000; stroke-width: 0.8"/>
      </g>
     </g>
    </g>
    <g id="xtick_5">
     <g id="line2d_9">
      <path d="M 399.249434 301.717812 
L 399.249434 48.331875 
" clip-path="url(#pece377035e)" style="fill: none; stroke-dasharray: 2.96,1.28; stroke-dashoffset: 0; stroke: #b0b0b0; stroke-width: 0.8"/>
     </g>
     <g id="line2d_10">
      <g>
       <use xlink:href="#mf92681893c" x="399.249434" y="301.717812" style="stroke: #000000; stroke-width: 0.8"/>
      </g>
     </g>
    </g>
    <g id="xtick_6">
     <g id="line2d_11">
      <path d="M 482.643888 301.717812 
L 482.643888 48.331875 
" clip-path="url(#pece377035e)" style="fill: none; stroke-dasharray: 2.96,1.28; stroke-dashoffset: 0; stroke: #b0b0b0; stroke-width: 0.8"/>
     </g>
     <g id="line2d_12">
      <g>
       <use xlink:href="#mf92681893c" x="482.643888" y="301.717812" style="stroke: #000000; stroke-width: 0.8"/>
      </g>
     </g>
    </g>
    <g id="xtick_7">
     <g id="line2d_13">
      <path d="M 563.348198 301.717812 
L 563.348198 48.331875 
" clip-path="url(#pece377035e)" style="fill: none; stroke-dasharray: 2.96,1.28; stroke-dashoffset: 0; stroke: #b0b0b0; stroke-width: 0.8"/>
     </g>
     <g id="line2d_14">
      <g>
       <use xlink:href="#mf92681893c" x="563.348198" y="301.717812" style="stroke: #000000; stroke-width: 0.8"/>
      </g>
     </g>
    </g>
    <g id="xtick_8">
     <g id="line2d_15">
      <path d="M 646.742653 301.717812 
L 646.742653 48.331875 
" clip-path="url(#pece377035e)" style="fill: none; stroke-dasharray: 2.96,1.28; stroke-dashoffset: 0; stroke: #b0b0b0; stroke-width: 0.8"/>
     </g>
     <g id="line2d_16">
      <g>
       <use xlink:href="#mf92681893c" x="646.742653" y="301.717812" style="stroke: #000000; stroke-width: 0.8"/>
      </g>
     </g>
    </g>
    <g id="xtick_9">
     <g id="line2d_17">
      <path d="M 730.137107 301.717812 
L 730.137107 48.331875 
" clip-path="url(#pece377035e)" style="fill: none; stroke-dasharray: 2.96,1.28; stroke-dashoffset: 0; stroke: #b0b0b0; stroke-width: 0.8"/>
     </g>
     <g id="line2d_18">
      <g>
       <use xlink:href="#mf92681893c" x="730.137107" y="301.717812" style="stroke: #000000; stroke-width: 0.8"/>
      </g>
     </g>
    </g>
    <g id="xtick_10">
     <g id="line2d_19">
      <path d="M 810.841417 301.717812 
L 810.841417 48.331875 
" clip-path="url(#pece377035e)" style="fill: none; stroke-dasharray: 2.96,1.28; stroke-dashoffset: 0; stroke: #b0b0b0; stroke-width: 0.8"/>
     </g>
     <g id="line2d_20">
      <g>
       <use xlink:href="#mf92681893c" x="810.841417" y="301.717812" style="stroke: #000000; stroke-width: 0.8"/>
      </g>
     </g>
    </g>
    <g id="xtick_11">
     <g id="line2d_21">
      <path d="M 894.235872 301.717812 
L 894.235872 48.331875 
" clip-path="url(#pece377035e)" style="fill: none; stroke-dasharray: 2.96,1.28; stroke-dashoffset: 0; stroke: #b0b0b0; stroke-width: 0.8"/>
     </g>
     <g id="line2d_22">
      <g>
       <use xlink:href="#mf92681893c" x="894.235872" y="301.717812" style="stroke: #000000; stroke-width: 0.8"/>
      </g>
     </g>
    </g>
    <g id="xtick_12">
     <g id="line2d_23">
      <path d="M 974.940182 301.717812 
L 974.940182 48.331875 
" clip-path="url(#pece377035e)" style="fill: none; stroke-dasharray: 2.96,1.28; stroke-dashoffset: 0; stroke: #b0b0b0; stroke-width: 0.8"/>
     </g>
     <g id="line2d_24">
      <g>
       <use xlink:href="#mf92681893c" x="974.940182" y="301.717812" style="stroke: #000000; stroke-width: 0.8"/>
      </g>
     </g>
    </g>
   </g>
   <g id="matplotlib.axis_2">
    <g id="ytick_1">
     <g id="line2d_25">
      <path d="M 38.904688 260.093294 
L 982.876106 260.093294 
" clip-path="url(#pece377035e)" style="fill: none; stroke-dasharray: 2.96,1.28; stroke-dashoffset: 0; stroke: #b0b0b0; stroke-width: 0.8"/>
     </g>
     <g id="line2d_26">
      <defs>
       <path id="m1fd6e07076" d="M 0 0 
L -3.5 0 
" style="stroke: #000000; stroke-width: 0.8"/>
      </defs>
      <g>
       <use xlink:href="#m1fd6e07076" x="38.904688" y="260.093294" style="stroke: #000000; stroke-width: 0.8"/>
      </g>
     </g>
     <g id="text_1">
      <!-- 260 -->
      <g transform="translate(12.817187 263.892513)scale(0.1 -0.1)">
       <defs>
        <path id="DejaVuSans-32" d="M 1228 531 
L 3431 531 
L 3431 0 
L 469 0 
L 469 531 
Q 828 903 1448 1529 
Q 2069 2156 2228 2338 
Q 2531 2678 2651 2914 
Q 2772 3150 2772 3378 
Q 2772 3750 2511 3984 
Q 2250 4219 1831 4219 
Q 1534 4219 1204 4116 
Q 875 4013 500 3803 
L 500 4441 
Q 881 4594 1212 4672 
Q 1544 4750 1819 4750 
Q 2544 4750 2975 4387 
Q 3406 4025 3406 3419 
Q 3406 3131 3298 2873 
Q 3191 2616 2906 2266 
Q 2828 2175 2409 1742 
Q 1991 1309 1228 531 
z
" transform="scale(0.015625)"/>
        <path id="DejaVuSans-36" d="M 2113 2584 
Q 1688 2584 1439 2293 
Q 1191 2003 1191 1497 
Q 1191 994 1439 701 
Q 1688 409 2113 409 
Q 2538 409 2786 701 
Q 3034 994 3034 1497 
Q 3034 2003 2786 2293 
Q 2538 2584 2113 2584 
z
M 3366 4563 
L 3366 3988 
Q 3128 4100 2886 4159 
Q 2644 4219 2406 4219 
Q 1781 4219 1451 3797 
Q 1122 3375 1075 2522 
Q 1259 2794 1537 2939 
Q 1816 3084 2150 3084 
Q 2853 3084 3261 2657 
Q 3669 2231 3669 1497 
Q 3669 778 3244 343 
Q 2819 -91 2113 -91 
Q 1303 -91 875 529 
Q 447 1150 447 2328 
Q 447 3434 972 4092 
Q 1497 4750 2381 4750 
Q 2619 4750 2861 4703 
Q 3103 4656 3366 4563 
z
" transform="scale(0.015625)"/>
        <path id="DejaVuSans-30" d="M 2034 4250 
Q 1547 4250 1301 3770 
Q 1056 3291 1056 2328 
Q 1056 1369 1301 889 
Q 1547 409 2034 409 
Q 2525 409 2770 889 
Q 3016 1369 3016 2328 
Q 3016 3291 2770 3770 
Q 2525 4250 2034 4250 
z
M 2034 4750 
Q 2819 4750 3233 4129 
Q 3647 3509 3647 2328 
Q 3647 1150 3233 529 
Q 2819 -91 2034 -91 
Q 1250 -91 836 529 
Q 422 1150 422 2328 
Q 422 3509 836 4129 
Q 1250 4750 2034 4750 
z
" transform="scale(0.015625)"/>
       </defs>
       <use xlink:href="#DejaVuSans-32"/>
       <use xlink:href="#DejaVuSans-36" x="63.623047"/>
       <use xlink:href="#DejaVuSans-30" x="127.246094"/>
      </g>
     </g>
    </g>
    <g id="ytick_2">
     <g id="line2d_27">
      <path d="M 38.904688 216.773905 
L 982.876106 216.773905 
" clip-path="url(#pece377035e)" style="fill: none; stroke-dasharray: 2.96,1.28; stroke-dashoffset: 0; stroke: #b0b0b0; stroke-width: 0.8"/>
     </g>
     <g id="line2d_28">
      <g>
       <use xlink:href="#m1fd6e07076" x="38.904688" y="216.773905" style="stroke: #000000; stroke-width: 0.8"/>
      </g>
     </g>
     <g id="text_2">
      <!-- 280 -->
      <g transform="translate(12.817187 220.573124)scale(0.1 -0.1)">
       <defs>
        <path id="DejaVuSans-38" d="M 2034 2216 
Q 1584 2216 1326 1975 
Q 1069 1734 1069 1313 
Q 1069 891 1326 650 
Q 1584 409 2034 409 
Q 2484 409 2743 651 
Q 3003 894 3003 1313 
Q 3003 1734 2745 1975 
Q 2488 2216 2034 2216 
z
M 1403 2484 
Q 997 2584 770 2862 
Q 544 3141 544 3541 
Q 544 4100 942 4425 
Q 1341 4750 2034 4750 
Q 2731 4750 3128 4425 
Q 3525 4100 3525 3541 
Q 3525 3141 3298 2862 
Q 3072 2584 2669 2484 
Q 3125 2378 3379 2068 
Q 3634 1759 3634 1313 
Q 3634 634 3220 271 
Q 2806 -91 2034 -91 
Q 1263 -91 848 271 
Q 434 634 434 1313 
Q 434 1759 690 2068 
Q 947 2378 1403 2484 
z
M 1172 3481 
Q 1172 3119 1398 2916 
Q 1625 2713 2034 2713 
Q 2441 2713 2670 2916 
Q 2900 3119 2900 3481 
Q 2900 3844 2670 4047 
Q 2441 4250 2034 4250 
Q 1625 4250 1398 4047 
Q 1172 3844 1172 3481 
z
" transform="scale(0.015625)"/>
       </defs>
       <use xlink:href="#DejaVuSans-32"/>
       <use xlink:href="#DejaVuSans-38" x="63.623047"/>
       <use xlink:href="#DejaVuSans-30" x="127.246094"/>
      </g>
     </g>
    </g>
    <g id="ytick_3">
     <g id="line2d_29">
      <path d="M 38.904688 173.454516 
L 982.876106 173.454516 
" clip-path="url(#pece377035e)" style="fill: none; stroke-dasharray: 2.96,1.28; stroke-dashoffset: 0; stroke: #b0b0b0; stroke-width: 0.8"/>
     </g>
     <g id="line2d_30">
      <g>
       <use xlink:href="#m1fd6e07076" x="38.904688" y="173.454516" style="stroke: #000000; stroke-width: 0.8"/>
      </g>
     </g>
     <g id="text_3">
      <!-- 300 -->
      <g transform="translate(12.817187 177.253735)scale(0.1 -0.1)">
       <defs>
        <path id="DejaVuSans-33" d="M 2597 2516 
Q 3050 2419 3304 2112 
Q 3559 1806 3559 1356 
Q 3559 666 3084 287 
Q 2609 -91 1734 -91 
Q 1441 -91 1130 -33 
Q 819 25 488 141 
L 488 750 
Q 750 597 1062 519 
Q 1375 441 1716 441 
Q 2309 441 2620 675 
Q 2931 909 2931 1356 
Q 2931 1769 2642 2001 
Q 2353 2234 1838 2234 
L 1294 2234 
L 1294 2753 
L 1863 2753 
Q 2328 2753 2575 2939 
Q 2822 3125 2822 3475 
Q 2822 3834 2567 4026 
Q 2313 4219 1838 4219 
Q 1578 4219 1281 4162 
Q 984 4106 628 3988 
L 628 4550 
Q 988 4650 1302 4700 
Q 1616 4750 1894 4750 
Q 2613 4750 3031 4423 
Q 3450 4097 3450 3541 
Q 3450 3153 3228 2886 
Q 3006 2619 2597 2516 
z
" transform="scale(0.015625)"/>
       </defs>
       <use xlink:href="#DejaVuSans-33"/>
       <use xlink:href="#DejaVuSans-30" x="63.623047"/>
       <use xlink:href="#DejaVuSans-30" x="127.246094"/>
      </g>
     </g>
    </g>
    <g id="ytick_4">
     <g id="line2d_31">
      <path d="M 38.904688 130.135127 
L 982.876106 130.135127 
" clip-path="url(#pece377035e)" style="fill: none; stroke-dasharray: 2.96,1.28; stroke-dashoffset: 0; stroke: #b0b0b0; stroke-width: 0.8"/>
     </g>
     <g id="line2d_32">
      <g>
       <use xlink:href="#m1fd6e07076" x="38.904688" y="130.135127" style="stroke: #000000; stroke-width: 0.8"/>
      </g>
     </g>
     <g id="text_4">
      <!-- 320 -->
      <g transform="translate(12.817187 133.934345)scale(0.1 -0.1)">
       <use xlink:href="#DejaVuSans-33"/>
       <use xlink:href="#DejaVuSans-32" x="63.623047"/>
       <use xlink:href="#DejaVuSans-30" x="127.246094"/>
      </g>
     </g>
    </g>
    <g id="ytick_5">
     <g id="line2d_33">
      <path d="M 38.904688 86.815737 
L 982.876106 86.815737 
" clip-path="url(#pece377035e)" style="fill: none; stroke-dasharray: 2.96,1.28; stroke-dashoffset: 0; stroke: #b0b0b0; stroke-width: 0.8"/>
     </g>
     <g id="line2d_34">
      <g>
       <use xlink:href="#m1fd6e07076" x="38.904688" y="86.815737" style="stroke: #000000; stroke-width: 0.8"/>
      </g>
     </g>
     <g id="text_5">
      <!-- 340 -->
      <g transform="translate(12.817187 90.614956)scale(0.1 -0.1)">
       <defs>
        <path id="DejaVuSans-34" d="M 2419 4116 
L 825 1625 
L 2419 1625 
L 2419 4116 
z
M 2253 4666 
L 3047 4666 
L 3047 1625 
L 3713 1625 
L 3713 1100 
L 3047 1100 
L 3047 0 
L 2419 0 
L 2419 1100 
L 313 1100 
L 313 1709 
L 2253 4666 
z
" transform="scale(0.015625)"/>
       </defs>
       <use xlink:href="#DejaVuSans-33"/>
       <use xlink:href="#DejaVuSans-34" x="63.623047"/>
       <use xlink:href="#DejaVuSans-30" x="127.246094"/>
      </g>
     </g>
    </g>
   </g>
   <g id="line2d_35">
    <path d="M 81.812479 131.001514 
L 84.502623 107.284149 
L 87.192767 104.251792 
L 89.88291 105.334776 
L 92.573054 101.977524 
L 100.643485 107.500746 
L 103.333629 115.514833 
L 106.023772 106.959253 
L 108.713916 105.443075 
L 111.40406 108.475432 
L 119.474491 113.890356 
L 122.164634 117.572504 
L 124.854778 121.038055 
L 127.544922 125.369994 
L 130.235066 117.13931 
L 138.305497 137.607721 
L 140.99564 146.92139 
L 146.375928 145.405211 
L 149.066071 140.206885 
L 157.136502 139.990288 
L 162.51679 129.16044 
L 165.206933 122.987427 
L 167.897077 109.233521 
L 175.967508 99.703256 
L 178.657652 114.32355 
L 181.347796 104.793284 
L 184.037939 104.576687 
L 186.728083 114.865042 
L 194.798514 143.780734 
L 197.488658 140.748377 
L 200.178801 135.55005 
L 202.868945 137.607721 
L 205.559089 136.091543 
L 213.62952 146.704793 
L 216.319663 153.527597 
L 219.009807 145.405211 
L 221.699951 176.270276 
L 224.390094 151.036732 
L 232.460525 147.571181 
L 237.840813 61.365596 
L 240.530957 85.94935 
L 243.2211 127.319366 
L 251.291531 131.32641 
L 253.981675 124.9368 
L 256.671819 136.741334 
L 259.361962 145.51351 
L 262.052106 144.972017 
L 270.122537 152.119717 
L 272.812681 161.541684 
L 275.502824 151.90312 
L 278.192968 151.686523 
L 288.953543 148.762464 
L 291.643687 145.296913 
L 294.33383 149.628852 
L 297.023974 149.520553 
L 310.474692 152.119717 
L 313.164836 149.195658 
L 315.85498 151.469926 
L 318.545123 128.727247 
L 326.615554 119.196981 
L 329.305698 102.302419 
L 331.995842 101.111136 
L 334.685985 92.447258 
L 337.376129 89.523199 
L 345.44656 68.296699 
L 348.136704 86.057648 
L 350.826848 59.849418 
L 364.277566 78.043561 
L 366.96771 83.675082 
L 369.657853 70.679265 
L 372.347997 65.589237 
L 375.038141 75.227801 
L 383.108572 123.962114 
L 385.798715 123.745517 
L 388.488859 134.14217 
L 391.179003 126.777874 
L 393.869146 126.019785 
L 401.939578 122.879129 
L 407.319865 139.1239 
L 410.010009 149.628852 
L 412.700152 163.057862 
L 420.770583 153.852492 
L 423.460727 171.396845 
L 426.150871 183.309677 
L 428.841014 203.453193 
L 431.531158 206.918744 
L 439.601589 211.900474 
L 442.291733 186.883527 
L 444.981876 192.948241 
L 447.67202 204.969372 
L 450.362164 187.208422 
L 458.432595 175.078993 
L 461.122739 183.417975 
L 463.812882 163.707653 
L 466.503026 175.187291 
L 469.19317 181.468603 
L 477.263601 177.136664 
L 479.953744 171.396845 
L 482.643888 151.794821 
L 485.334032 160.891893 
L 488.024175 174.104307 
L 496.094606 174.429202 
L 498.78475 169.555771 
L 501.474894 178.436246 
L 504.165037 189.807585 
L 506.855181 195.8723 
L 514.925612 215.582622 
L 517.615756 222.730321 
L 520.3059 214.824533 
L 522.996043 227.495454 
L 525.686187 247.422373 
L 533.756618 265.075024 
L 536.446762 252.404103 
L 539.136905 286.951316 
L 541.827049 280.9949 
L 544.517193 289.225584 
L 552.587624 290.20027 
L 555.277767 279.153826 
L 557.967911 274.172096 
L 560.658055 283.160869 
L 563.348198 287.059614 
L 571.41863 286.409823 
L 574.108773 284.785346 
L 576.798917 288.142599 
L 579.489061 267.674187 
L 582.179204 253.487088 
L 590.249635 235.401243 
L 592.939779 243.307031 
L 595.629923 234.85975 
L 598.320066 208.759818 
L 601.01021 205.185969 
L 609.080641 187.749914 
L 611.770785 176.378575 
L 614.460928 219.26477 
L 617.151072 210.275997 
L 619.841216 222.730321 
L 627.911647 231.827393 
L 630.601791 247.314075 
L 633.291934 253.703684 
L 635.982078 250.346432 
L 638.672222 239.083391 
L 646.742653 233.235273 
L 649.432796 235.942735 
L 652.12294 239.733181 
L 654.813084 235.942735 
L 657.503227 234.318258 
L 665.573658 235.401243 
L 670.953946 232.585482 
L 673.64409 232.152288 
L 676.334233 230.419513 
L 687.094808 188.183108 
L 689.784952 204.644476 
L 695.165239 216.773905 
L 703.23567 218.506681 
L 705.925814 211.358981 
L 708.615957 211.46728 
L 711.306101 213.308354 
L 713.996245 205.619162 
L 722.066676 206.593849 
L 724.756819 205.944058 
L 730.137107 207.351938 
L 732.827251 205.07767 
L 740.897682 200.637433 
L 743.587825 201.612119 
L 746.277969 200.312537 
L 748.968113 198.038269 
L 751.658256 196.088897 
L 759.728687 196.305494 
L 762.418831 198.471463 
L 765.108975 195.655703 
L 767.799118 193.489733 
L 770.489262 213.958145 
L 778.559693 226.737365 
L 781.249837 219.373068 
L 783.939981 214.28304 
L 786.630124 211.683877 
L 789.320268 220.239456 
L 797.390699 233.126975 
L 800.080843 229.769722 
L 802.770986 246.880881 
L 805.46113 243.090434 
L 808.151274 244.498314 
L 816.221705 246.989179 
L 818.911848 233.343572 
L 824.292136 206.918744 
L 826.982279 199.879343 
L 835.05271 195.655703 
L 837.742854 201.828716 
L 840.432998 196.305494 
L 843.123142 196.955285 
L 845.813285 205.619162 
L 853.883716 223.48841 
L 856.57386 215.582622 
L 859.264004 213.633249 
L 861.954147 220.347755 
L 864.644291 214.28304 
L 872.714722 209.734504 
L 875.404866 207.676833 
L 880.785153 207.89343 
L 883.475297 209.193012 
L 891.545728 208.759818 
L 894.235872 208.976415 
L 896.926015 198.904657 
L 899.616159 204.102984 
L 902.306303 197.496777 
L 910.376734 193.381435 
L 918.447165 188.941198 
L 921.137308 180.927111 
L 929.207739 153.202701 
L 937.27817 120.929756 
L 939.968314 122.77083 
L 939.968314 122.77083 
" clip-path="url(#pece377035e)" style="fill: none; stroke: #1f77b4; stroke-width: 1.5; stroke-linecap: square"/>
   </g>
   <g id="line2d_36">
    <path d="M 92.573054 109.969951 
L 100.643485 105.269797 
L 103.333629 106.915934 
L 106.023772 107.457426 
L 108.713916 107.479086 
L 111.40406 108.778668 
L 122.164634 110.468124 
L 124.854778 113.283884 
L 127.544922 117.269268 
L 130.235066 119.002044 
L 138.305497 123.745517 
L 140.99564 129.615294 
L 146.375928 134.488725 
L 149.066071 137.456103 
L 157.136502 142.026299 
L 159.826646 141.398168 
L 162.51679 137.845978 
L 165.206933 133.362421 
L 167.897077 127.167748 
L 175.967508 119.110342 
L 178.657652 115.081639 
L 181.347796 110.208208 
L 184.037939 106.52606 
L 186.728083 107.652364 
L 194.798514 116.467859 
L 197.488658 121.752825 
L 200.178801 127.904178 
L 202.868945 134.510385 
L 205.559089 138.755685 
L 213.62952 139.340497 
L 216.319663 141.896341 
L 219.009807 143.867373 
L 221.699951 151.599884 
L 224.390094 154.588922 
L 232.460525 154.762199 
L 237.840813 136.329799 
L 240.530957 124.438627 
L 243.2211 114.648445 
L 251.291531 110.706381 
L 253.981675 106.179504 
L 256.671819 121.254652 
L 259.361962 133.167484 
L 262.052106 136.698014 
L 270.122537 140.856675 
L 272.812681 148.177652 
L 275.502824 151.21001 
L 278.192968 152.444612 
L 288.953543 153.202701 
L 291.643687 151.838141 
L 294.33383 149.455574 
L 297.023974 148.979061 
L 299.714118 148.654166 
L 307.784549 149.260637 
L 310.474692 150.625198 
L 313.164836 150.538559 
L 315.85498 150.928433 
L 318.545123 146.661474 
L 326.615554 140.141906 
L 331.995842 120.561542 
L 334.685985 108.757008 
L 337.376129 100.916199 
L 348.136704 87.487188 
L 350.826848 79.234844 
L 364.277566 76.354105 
L 366.96771 75.184481 
L 369.657853 75.660995 
L 372.347997 71.567312 
L 383.108572 83.8267 
L 385.798715 91.840787 
L 391.179003 116.771095 
L 393.869146 126.929492 
L 401.939578 126.712895 
L 407.319865 129.788572 
L 410.010009 132.885908 
L 412.700152 140.141906 
L 420.770583 145.708447 
L 423.460727 155.41199 
L 426.150871 164.249146 
L 428.841014 175.014014 
L 431.531158 183.78619 
L 439.601589 195.395787 
L 442.291733 198.493123 
L 444.981876 200.420836 
L 447.67202 200.724071 
L 450.362164 196.782007 
L 458.432595 189.417711 
L 461.122739 188.724601 
L 466.503026 176.920067 
L 469.19317 175.772103 
L 477.263601 176.183637 
L 482.643888 171.396845 
L 485.334032 168.537765 
L 488.024175 167.064906 
L 496.094606 166.523414 
L 498.78475 166.155199 
L 501.474894 171.483484 
L 504.165037 177.266622 
L 506.855181 181.620221 
L 514.925612 189.850905 
L 517.615756 200.485815 
L 522.996043 215.301046 
L 525.686187 225.611061 
L 533.756618 235.509541 
L 536.446762 241.444297 
L 539.136905 255.869654 
L 541.827049 266.569543 
L 544.517193 274.930185 
L 552.587624 279.955234 
L 555.277767 285.305179 
L 557.967911 282.749335 
L 560.658055 283.182529 
L 563.348198 282.749335 
L 571.41863 281.991246 
L 574.108773 283.11755 
L 576.798917 285.91165 
L 579.489061 282.814314 
L 582.179204 276.099809 
L 590.249635 265.898093 
L 592.939779 257.602429 
L 595.629923 246.94586 
L 598.320066 235.162986 
L 601.01021 225.502762 
L 609.080641 215.972496 
L 611.770785 202.586805 
L 614.460928 199.467809 
L 617.151072 199.771045 
L 619.841216 203.279915 
L 627.911647 212.095411 
L 630.601791 226.282511 
L 633.291934 233.170294 
L 635.982078 241.184381 
L 638.672222 244.454995 
L 646.742653 244.736571 
L 649.432796 242.462303 
L 654.813084 236.787463 
L 657.503227 235.834436 
L 665.573658 236.26763 
L 670.953946 235.59618 
L 673.64409 234.080001 
L 676.334233 232.975357 
L 687.094808 223.748327 
L 689.784952 217.596974 
L 692.475095 213.200056 
L 695.165239 210.124379 
L 703.23567 207.741812 
L 705.925814 212.376987 
L 708.615957 213.741548 
L 711.306101 214.28304 
L 713.996245 212.052092 
L 722.066676 209.669525 
L 724.756819 208.586541 
L 730.137107 207.763472 
L 732.827251 206.117335 
L 740.897682 205.120989 
L 743.587825 204.124643 
L 746.277969 202.998339 
L 751.658256 199.337851 
L 759.728687 198.471463 
L 762.418831 197.843332 
L 767.799118 196.002258 
L 770.489262 199.576108 
L 778.559693 205.662482 
L 781.249837 209.842803 
L 786.630124 217.207099 
L 789.320268 218.463361 
L 797.390699 219.741283 
L 800.080843 221.820614 
L 805.46113 234.621493 
L 808.151274 239.473265 
L 816.221705 242.245706 
L 818.911848 242.960476 
L 824.292136 234.968049 
L 826.982279 226.32583 
L 835.05271 216.557308 
L 837.742854 207.525216 
L 840.432998 200.1176 
L 843.123142 198.124908 
L 845.813285 199.272872 
L 853.883716 204.839413 
L 856.57386 207.590195 
L 859.264004 211.055746 
L 861.954147 215.73424 
L 864.644291 217.467015 
L 872.714722 214.716234 
L 875.404866 213.135076 
L 880.785153 211.987113 
L 883.475297 209.756164 
L 891.545728 208.65152 
L 894.235872 208.499902 
L 896.926015 206.745467 
L 899.616159 205.987377 
L 902.306303 203.64813 
L 910.376734 200.572454 
L 915.757021 196.868646 
L 918.447165 194.875954 
L 921.137308 190.240779 
L 929.207739 181.381964 
L 931.897883 171.201908 
L 934.588027 159.548992 
L 937.27817 145.946704 
L 939.968314 134.315448 
L 939.968314 134.315448 
" clip-path="url(#pece377035e)" style="fill: none; stroke: #ff7f0e; stroke-width: 1.5; stroke-linecap: square"/>
   </g>
   <g id="patch_3">
    <path d="M 38.904688 301.717812 
L 38.904688 48.331875 
" style="fill: none; stroke: #000000; stroke-width: 0.8; stroke-linejoin: miter; stroke-linecap: square"/>
   </g>
   <g id="patch_4">
    <path d="M 982.876106 301.717812 
L 982.876106 48.331875 
" style="fill: none; stroke: #000000; stroke-width: 0.8; stroke-linejoin: miter; stroke-linecap: square"/>
   </g>
   <g id="patch_5">
    <path d="M 38.904687 301.717812 
L 982.876106 301.717812 
" style="fill: none; stroke: #000000; stroke-width: 0.8; stroke-linejoin: miter; stroke-linecap: square"/>
   </g>
   <g id="patch_6">
    <path d="M 38.904687 48.331875 
L 982.876106 48.331875 
" style="fill: none; stroke: #000000; stroke-width: 0.8; stroke-linejoin: miter; stroke-linecap: square"/>
   </g>
   <g id="text_6">
    <!-- Closing Price -->
    <g transform="translate(472.414459 42.331875)scale(0.12 -0.12)">
     <defs>
      <path id="DejaVuSans-43" d="M 4122 4306 
L 4122 3641 
Q 3803 3938 3442 4084 
Q 3081 4231 2675 4231 
Q 1875 4231 1450 3742 
Q 1025 3253 1025 2328 
Q 1025 1406 1450 917 
Q 1875 428 2675 428 
Q 3081 428 3442 575 
Q 3803 722 4122 1019 
L 4122 359 
Q 3791 134 3420 21 
Q 3050 -91 2638 -91 
Q 1578 -91 968 557 
Q 359 1206 359 2328 
Q 359 3453 968 4101 
Q 1578 4750 2638 4750 
Q 3056 4750 3426 4639 
Q 3797 4528 4122 4306 
z
" transform="scale(0.015625)"/>
      <path id="DejaVuSans-6c" d="M 603 4863 
L 1178 4863 
L 1178 0 
L 603 0 
L 603 4863 
z
" transform="scale(0.015625)"/>
      <path id="DejaVuSans-6f" d="M 1959 3097 
Q 1497 3097 1228 2736 
Q 959 2375 959 1747 
Q 959 1119 1226 758 
Q 1494 397 1959 397 
Q 2419 397 2687 759 
Q 2956 1122 2956 1747 
Q 2956 2369 2687 2733 
Q 2419 3097 1959 3097 
z
M 1959 3584 
Q 2709 3584 3137 3096 
Q 3566 2609 3566 1747 
Q 3566 888 3137 398 
Q 2709 -91 1959 -91 
Q 1206 -91 779 398 
Q 353 888 353 1747 
Q 353 2609 779 3096 
Q 1206 3584 1959 3584 
z
" transform="scale(0.015625)"/>
      <path id="DejaVuSans-73" d="M 2834 3397 
L 2834 2853 
Q 2591 2978 2328 3040 
Q 2066 3103 1784 3103 
Q 1356 3103 1142 2972 
Q 928 2841 928 2578 
Q 928 2378 1081 2264 
Q 1234 2150 1697 2047 
L 1894 2003 
Q 2506 1872 2764 1633 
Q 3022 1394 3022 966 
Q 3022 478 2636 193 
Q 2250 -91 1575 -91 
Q 1294 -91 989 -36 
Q 684 19 347 128 
L 347 722 
Q 666 556 975 473 
Q 1284 391 1588 391 
Q 1994 391 2212 530 
Q 2431 669 2431 922 
Q 2431 1156 2273 1281 
Q 2116 1406 1581 1522 
L 1381 1569 
Q 847 1681 609 1914 
Q 372 2147 372 2553 
Q 372 3047 722 3315 
Q 1072 3584 1716 3584 
Q 2034 3584 2315 3537 
Q 2597 3491 2834 3397 
z
" transform="scale(0.015625)"/>
      <path id="DejaVuSans-69" d="M 603 3500 
L 1178 3500 
L 1178 0 
L 603 0 
L 603 3500 
z
M 603 4863 
L 1178 4863 
L 1178 4134 
L 603 4134 
L 603 4863 
z
" transform="scale(0.015625)"/>
      <path id="DejaVuSans-6e" d="M 3513 2113 
L 3513 0 
L 2938 0 
L 2938 2094 
Q 2938 2591 2744 2837 
Q 2550 3084 2163 3084 
Q 1697 3084 1428 2787 
Q 1159 2491 1159 1978 
L 1159 0 
L 581 0 
L 581 3500 
L 1159 3500 
L 1159 2956 
Q 1366 3272 1645 3428 
Q 1925 3584 2291 3584 
Q 2894 3584 3203 3211 
Q 3513 2838 3513 2113 
z
" transform="scale(0.015625)"/>
      <path id="DejaVuSans-67" d="M 2906 1791 
Q 2906 2416 2648 2759 
Q 2391 3103 1925 3103 
Q 1463 3103 1205 2759 
Q 947 2416 947 1791 
Q 947 1169 1205 825 
Q 1463 481 1925 481 
Q 2391 481 2648 825 
Q 2906 1169 2906 1791 
z
M 3481 434 
Q 3481 -459 3084 -895 
Q 2688 -1331 1869 -1331 
Q 1566 -1331 1297 -1286 
Q 1028 -1241 775 -1147 
L 775 -588 
Q 1028 -725 1275 -790 
Q 1522 -856 1778 -856 
Q 2344 -856 2625 -561 
Q 2906 -266 2906 331 
L 2906 616 
Q 2728 306 2450 153 
Q 2172 0 1784 0 
Q 1141 0 747 490 
Q 353 981 353 1791 
Q 353 2603 747 3093 
Q 1141 3584 1784 3584 
Q 2172 3584 2450 3431 
Q 2728 3278 2906 2969 
L 2906 3500 
L 3481 3500 
L 3481 434 
z
" transform="scale(0.015625)"/>
      <path id="DejaVuSans-20" transform="scale(0.015625)"/>
      <path id="DejaVuSans-50" d="M 1259 4147 
L 1259 2394 
L 2053 2394 
Q 2494 2394 2734 2622 
Q 2975 2850 2975 3272 
Q 2975 3691 2734 3919 
Q 2494 4147 2053 4147 
L 1259 4147 
z
M 628 4666 
L 2053 4666 
Q 2838 4666 3239 4311 
Q 3641 3956 3641 3272 
Q 3641 2581 3239 2228 
Q 2838 1875 2053 1875 
L 1259 1875 
L 1259 0 
L 628 0 
L 628 4666 
z
" transform="scale(0.015625)"/>
      <path id="DejaVuSans-72" d="M 2631 2963 
Q 2534 3019 2420 3045 
Q 2306 3072 2169 3072 
Q 1681 3072 1420 2755 
Q 1159 2438 1159 1844 
L 1159 0 
L 581 0 
L 581 3500 
L 1159 3500 
L 1159 2956 
Q 1341 3275 1631 3429 
Q 1922 3584 2338 3584 
Q 2397 3584 2469 3576 
Q 2541 3569 2628 3553 
L 2631 2963 
z
" transform="scale(0.015625)"/>
      <path id="DejaVuSans-63" d="M 3122 3366 
L 3122 2828 
Q 2878 2963 2633 3030 
Q 2388 3097 2138 3097 
Q 1578 3097 1268 2742 
Q 959 2388 959 1747 
Q 959 1106 1268 751 
Q 1578 397 2138 397 
Q 2388 397 2633 464 
Q 2878 531 3122 666 
L 3122 134 
Q 2881 22 2623 -34 
Q 2366 -91 2075 -91 
Q 1284 -91 818 406 
Q 353 903 353 1747 
Q 353 2603 823 3093 
Q 1294 3584 2113 3584 
Q 2378 3584 2631 3529 
Q 2884 3475 3122 3366 
z
" transform="scale(0.015625)"/>
      <path id="DejaVuSans-65" d="M 3597 1894 
L 3597 1613 
L 953 1613 
Q 991 1019 1311 708 
Q 1631 397 2203 397 
Q 2534 397 2845 478 
Q 3156 559 3463 722 
L 3463 178 
Q 3153 47 2828 -22 
Q 2503 -91 2169 -91 
Q 1331 -91 842 396 
Q 353 884 353 1716 
Q 353 2575 817 3079 
Q 1281 3584 2069 3584 
Q 2775 3584 3186 3129 
Q 3597 2675 3597 1894 
z
M 3022 2063 
Q 3016 2534 2758 2815 
Q 2500 3097 2075 3097 
Q 1594 3097 1305 2825 
Q 1016 2553 972 2059 
L 3022 2063 
z
" transform="scale(0.015625)"/>
     </defs>
     <use xlink:href="#DejaVuSans-43"/>
     <use xlink:href="#DejaVuSans-6c" x="69.824219"/>
     <use xlink:href="#DejaVuSans-6f" x="97.607422"/>
     <use xlink:href="#DejaVuSans-73" x="158.789062"/>
     <use xlink:href="#DejaVuSans-69" x="210.888672"/>
     <use xlink:href="#DejaVuSans-6e" x="238.671875"/>
     <use xlink:href="#DejaVuSans-67" x="302.050781"/>
     <use xlink:href="#DejaVuSans-20" x="365.527344"/>
     <use xlink:href="#DejaVuSans-50" x="397.314453"/>
     <use xlink:href="#DejaVuSans-72" x="455.867188"/>
     <use xlink:href="#DejaVuSans-69" x="496.980469"/>
     <use xlink:href="#DejaVuSans-63" x="524.763672"/>
     <use xlink:href="#DejaVuSans-65" x="579.744141"/>
    </g>
   </g>
   <g id="legend_1">
    <g id="patch_7">
     <path d="M 911.144856 85.688125 
L 975.876106 85.688125 
Q 977.876106 85.688125 977.876106 83.688125 
L 977.876106 55.331875 
Q 977.876106 53.331875 975.876106 53.331875 
L 911.144856 53.331875 
Q 909.144856 53.331875 909.144856 55.331875 
L 909.144856 83.688125 
Q 909.144856 85.688125 911.144856 85.688125 
z
" style="fill: #ffffff; opacity: 0.8; stroke: #cccccc; stroke-linejoin: miter"/>
    </g>
    <g id="line2d_37">
     <path d="M 913.144856 61.430312 
L 923.144856 61.430312 
L 933.144856 61.430312 
" style="fill: none; stroke: #1f77b4; stroke-width: 1.5; stroke-linecap: square"/>
    </g>
    <g id="text_7">
     <!-- CLOSE -->
     <g transform="translate(941.144856 64.930312)scale(0.1 -0.1)">
      <defs>
       <path id="DejaVuSans-4c" d="M 628 4666 
L 1259 4666 
L 1259 531 
L 3531 531 
L 3531 0 
L 628 0 
L 628 4666 
z
" transform="scale(0.015625)"/>
       <path id="DejaVuSans-4f" d="M 2522 4238 
Q 1834 4238 1429 3725 
Q 1025 3213 1025 2328 
Q 1025 1447 1429 934 
Q 1834 422 2522 422 
Q 3209 422 3611 934 
Q 4013 1447 4013 2328 
Q 4013 3213 3611 3725 
Q 3209 4238 2522 4238 
z
M 2522 4750 
Q 3503 4750 4090 4092 
Q 4678 3434 4678 2328 
Q 4678 1225 4090 567 
Q 3503 -91 2522 -91 
Q 1538 -91 948 565 
Q 359 1222 359 2328 
Q 359 3434 948 4092 
Q 1538 4750 2522 4750 
z
" transform="scale(0.015625)"/>
       <path id="DejaVuSans-53" d="M 3425 4513 
L 3425 3897 
Q 3066 4069 2747 4153 
Q 2428 4238 2131 4238 
Q 1616 4238 1336 4038 
Q 1056 3838 1056 3469 
Q 1056 3159 1242 3001 
Q 1428 2844 1947 2747 
L 2328 2669 
Q 3034 2534 3370 2195 
Q 3706 1856 3706 1288 
Q 3706 609 3251 259 
Q 2797 -91 1919 -91 
Q 1588 -91 1214 -16 
Q 841 59 441 206 
L 441 856 
Q 825 641 1194 531 
Q 1563 422 1919 422 
Q 2459 422 2753 634 
Q 3047 847 3047 1241 
Q 3047 1584 2836 1778 
Q 2625 1972 2144 2069 
L 1759 2144 
Q 1053 2284 737 2584 
Q 422 2884 422 3419 
Q 422 4038 858 4394 
Q 1294 4750 2059 4750 
Q 2388 4750 2728 4690 
Q 3069 4631 3425 4513 
z
" transform="scale(0.015625)"/>
       <path id="DejaVuSans-45" d="M 628 4666 
L 3578 4666 
L 3578 4134 
L 1259 4134 
L 1259 2753 
L 3481 2753 
L 3481 2222 
L 1259 2222 
L 1259 531 
L 3634 531 
L 3634 0 
L 628 0 
L 628 4666 
z
" transform="scale(0.015625)"/>
      </defs>
      <use xlink:href="#DejaVuSans-43"/>
      <use xlink:href="#DejaVuSans-4c" x="69.824219"/>
      <use xlink:href="#DejaVuSans-4f" x="121.912109"/>
      <use xlink:href="#DejaVuSans-53" x="200.623047"/>
      <use xlink:href="#DejaVuSans-45" x="264.099609"/>
     </g>
    </g>
    <g id="line2d_38">
     <path d="M 913.144856 76.108437 
L 923.144856 76.108437 
L 933.144856 76.108437 
" style="fill: none; stroke: #ff7f0e; stroke-width: 1.5; stroke-linecap: square"/>
    </g>
    <g id="text_8">
     <!-- SMA5 -->
     <g transform="translate(941.144856 79.608437)scale(0.1 -0.1)">
      <defs>
       <path id="DejaVuSans-4d" d="M 628 4666 
L 1569 4666 
L 2759 1491 
L 3956 4666 
L 4897 4666 
L 4897 0 
L 4281 0 
L 4281 4097 
L 3078 897 
L 2444 897 
L 1241 4097 
L 1241 0 
L 628 0 
L 628 4666 
z
" transform="scale(0.015625)"/>
       <path id="DejaVuSans-41" d="M 2188 4044 
L 1331 1722 
L 3047 1722 
L 2188 4044 
z
M 1831 4666 
L 2547 4666 
L 4325 0 
L 3669 0 
L 3244 1197 
L 1141 1197 
L 716 0 
L 50 0 
L 1831 4666 
z
" transform="scale(0.015625)"/>
       <path id="DejaVuSans-35" d="M 691 4666 
L 3169 4666 
L 3169 4134 
L 1269 4134 
L 1269 2991 
Q 1406 3038 1543 3061 
Q 1681 3084 1819 3084 
Q 2600 3084 3056 2656 
Q 3513 2228 3513 1497 
Q 3513 744 3044 326 
Q 2575 -91 1722 -91 
Q 1428 -91 1123 -41 
Q 819 9 494 109 
L 494 744 
Q 775 591 1075 516 
Q 1375 441 1709 441 
Q 2250 441 2565 725 
Q 2881 1009 2881 1497 
Q 2881 1984 2565 2268 
Q 2250 2553 1709 2553 
Q 1456 2553 1204 2497 
Q 953 2441 691 2322 
L 691 4666 
z
" transform="scale(0.015625)"/>
      </defs>
      <use xlink:href="#DejaVuSans-53"/>
      <use xlink:href="#DejaVuSans-4d" x="63.476562"/>
      <use xlink:href="#DejaVuSans-41" x="149.755859"/>
      <use xlink:href="#DejaVuSans-35" x="218.164062"/>
     </g>
    </g>
   </g>
  </g>
  <g id="axes_2">
   <g id="patch_8">
    <path d="M 38.904688 584.521875 
L 982.876106 584.521875 
L 982.876106 331.135938 
L 38.904688 331.135938 
z
" style="fill: #ffffff"/>
   </g>
   <g id="matplotlib.axis_3">
    <g id="xtick_13">
     <g id="line2d_39">
      <path d="M 76.432192 584.521875 
L 76.432192 331.135938 
" clip-path="url(#p8dad8e6dc2)" style="fill: none; stroke-dasharray: 2.96,1.28; stroke-dashoffset: 0; stroke: #b0b0b0; stroke-width: 0.8"/>
     </g>
     <g id="line2d_40">
      <g>
       <use xlink:href="#mf92681893c" x="76.432192" y="584.521875" style="stroke: #000000; stroke-width: 0.8"/>
      </g>
     </g>
     <g id="text_9">
      <!-- 2022-01 -->
      <g transform="translate(55.540786 599.120312)scale(0.1 -0.1)">
       <defs>
        <path id="DejaVuSans-2d" d="M 313 2009 
L 1997 2009 
L 1997 1497 
L 313 1497 
L 313 2009 
z
" transform="scale(0.015625)"/>
        <path id="DejaVuSans-31" d="M 794 531 
L 1825 531 
L 1825 4091 
L 703 3866 
L 703 4441 
L 1819 4666 
L 2450 4666 
L 2450 531 
L 3481 531 
L 3481 0 
L 794 0 
L 794 531 
z
" transform="scale(0.015625)"/>
       </defs>
       <use xlink:href="#DejaVuSans-32"/>
       <use xlink:href="#DejaVuSans-30" x="63.623047"/>
       <use xlink:href="#DejaVuSans-32" x="127.246094"/>
       <use xlink:href="#DejaVuSans-32" x="190.869141"/>
       <use xlink:href="#DejaVuSans-2d" x="254.492188"/>
       <use xlink:href="#DejaVuSans-30" x="290.576172"/>
       <use xlink:href="#DejaVuSans-31" x="354.199219"/>
      </g>
     </g>
    </g>
    <g id="xtick_14">
     <g id="line2d_41">
      <path d="M 159.826646 584.521875 
L 159.826646 331.135938 
" clip-path="url(#p8dad8e6dc2)" style="fill: none; stroke-dasharray: 2.96,1.28; stroke-dashoffset: 0; stroke: #b0b0b0; stroke-width: 0.8"/>
     </g>
     <g id="line2d_42">
      <g>
       <use xlink:href="#mf92681893c" x="159.826646" y="584.521875" style="stroke: #000000; stroke-width: 0.8"/>
      </g>
     </g>
     <g id="text_10">
      <!-- 2022-02 -->
      <g transform="translate(138.93524 599.120312)scale(0.1 -0.1)">
       <use xlink:href="#DejaVuSans-32"/>
       <use xlink:href="#DejaVuSans-30" x="63.623047"/>
       <use xlink:href="#DejaVuSans-32" x="127.246094"/>
       <use xlink:href="#DejaVuSans-32" x="190.869141"/>
       <use xlink:href="#DejaVuSans-2d" x="254.492188"/>
       <use xlink:href="#DejaVuSans-30" x="290.576172"/>
       <use xlink:href="#DejaVuSans-32" x="354.199219"/>
      </g>
     </g>
    </g>
    <g id="xtick_15">
     <g id="line2d_43">
      <path d="M 235.150669 584.521875 
L 235.150669 331.135938 
" clip-path="url(#p8dad8e6dc2)" style="fill: none; stroke-dasharray: 2.96,1.28; stroke-dashoffset: 0; stroke: #b0b0b0; stroke-width: 0.8"/>
     </g>
     <g id="line2d_44">
      <g>
       <use xlink:href="#mf92681893c" x="235.150669" y="584.521875" style="stroke: #000000; stroke-width: 0.8"/>
      </g>
     </g>
     <g id="text_11">
      <!-- 2022-03 -->
      <g transform="translate(214.259263 599.120312)scale(0.1 -0.1)">
       <use xlink:href="#DejaVuSans-32"/>
       <use xlink:href="#DejaVuSans-30" x="63.623047"/>
       <use xlink:href="#DejaVuSans-32" x="127.246094"/>
       <use xlink:href="#DejaVuSans-32" x="190.869141"/>
       <use xlink:href="#DejaVuSans-2d" x="254.492188"/>
       <use xlink:href="#DejaVuSans-30" x="290.576172"/>
       <use xlink:href="#DejaVuSans-33" x="354.199219"/>
      </g>
     </g>
    </g>
    <g id="xtick_16">
     <g id="line2d_45">
      <path d="M 318.545123 584.521875 
L 318.545123 331.135938 
" clip-path="url(#p8dad8e6dc2)" style="fill: none; stroke-dasharray: 2.96,1.28; stroke-dashoffset: 0; stroke: #b0b0b0; stroke-width: 0.8"/>
     </g>
     <g id="line2d_46">
      <g>
       <use xlink:href="#mf92681893c" x="318.545123" y="584.521875" style="stroke: #000000; stroke-width: 0.8"/>
      </g>
     </g>
     <g id="text_12">
      <!-- 2022-04 -->
      <g transform="translate(297.653717 599.120312)scale(0.1 -0.1)">
       <use xlink:href="#DejaVuSans-32"/>
       <use xlink:href="#DejaVuSans-30" x="63.623047"/>
       <use xlink:href="#DejaVuSans-32" x="127.246094"/>
       <use xlink:href="#DejaVuSans-32" x="190.869141"/>
       <use xlink:href="#DejaVuSans-2d" x="254.492188"/>
       <use xlink:href="#DejaVuSans-30" x="290.576172"/>
       <use xlink:href="#DejaVuSans-34" x="354.199219"/>
      </g>
     </g>
    </g>
    <g id="xtick_17">
     <g id="line2d_47">
      <path d="M 399.249434 584.521875 
L 399.249434 331.135938 
" clip-path="url(#p8dad8e6dc2)" style="fill: none; stroke-dasharray: 2.96,1.28; stroke-dashoffset: 0; stroke: #b0b0b0; stroke-width: 0.8"/>
     </g>
     <g id="line2d_48">
      <g>
       <use xlink:href="#mf92681893c" x="399.249434" y="584.521875" style="stroke: #000000; stroke-width: 0.8"/>
      </g>
     </g>
     <g id="text_13">
      <!-- 2022-05 -->
      <g transform="translate(378.358028 599.120312)scale(0.1 -0.1)">
       <use xlink:href="#DejaVuSans-32"/>
       <use xlink:href="#DejaVuSans-30" x="63.623047"/>
       <use xlink:href="#DejaVuSans-32" x="127.246094"/>
       <use xlink:href="#DejaVuSans-32" x="190.869141"/>
       <use xlink:href="#DejaVuSans-2d" x="254.492188"/>
       <use xlink:href="#DejaVuSans-30" x="290.576172"/>
       <use xlink:href="#DejaVuSans-35" x="354.199219"/>
      </g>
     </g>
    </g>
    <g id="xtick_18">
     <g id="line2d_49">
      <path d="M 482.643888 584.521875 
L 482.643888 331.135938 
" clip-path="url(#p8dad8e6dc2)" style="fill: none; stroke-dasharray: 2.96,1.28; stroke-dashoffset: 0; stroke: #b0b0b0; stroke-width: 0.8"/>
     </g>
     <g id="line2d_50">
      <g>
       <use xlink:href="#mf92681893c" x="482.643888" y="584.521875" style="stroke: #000000; stroke-width: 0.8"/>
      </g>
     </g>
     <g id="text_14">
      <!-- 2022-06 -->
      <g transform="translate(461.752482 599.120312)scale(0.1 -0.1)">
       <use xlink:href="#DejaVuSans-32"/>
       <use xlink:href="#DejaVuSans-30" x="63.623047"/>
       <use xlink:href="#DejaVuSans-32" x="127.246094"/>
       <use xlink:href="#DejaVuSans-32" x="190.869141"/>
       <use xlink:href="#DejaVuSans-2d" x="254.492188"/>
       <use xlink:href="#DejaVuSans-30" x="290.576172"/>
       <use xlink:href="#DejaVuSans-36" x="354.199219"/>
      </g>
     </g>
    </g>
    <g id="xtick_19">
     <g id="line2d_51">
      <path d="M 563.348198 584.521875 
L 563.348198 331.135938 
" clip-path="url(#p8dad8e6dc2)" style="fill: none; stroke-dasharray: 2.96,1.28; stroke-dashoffset: 0; stroke: #b0b0b0; stroke-width: 0.8"/>
     </g>
     <g id="line2d_52">
      <g>
       <use xlink:href="#mf92681893c" x="563.348198" y="584.521875" style="stroke: #000000; stroke-width: 0.8"/>
      </g>
     </g>
     <g id="text_15">
      <!-- 2022-07 -->
      <g transform="translate(542.456792 599.120312)scale(0.1 -0.1)">
       <defs>
        <path id="DejaVuSans-37" d="M 525 4666 
L 3525 4666 
L 3525 4397 
L 1831 0 
L 1172 0 
L 2766 4134 
L 525 4134 
L 525 4666 
z
" transform="scale(0.015625)"/>
       </defs>
       <use xlink:href="#DejaVuSans-32"/>
       <use xlink:href="#DejaVuSans-30" x="63.623047"/>
       <use xlink:href="#DejaVuSans-32" x="127.246094"/>
       <use xlink:href="#DejaVuSans-32" x="190.869141"/>
       <use xlink:href="#DejaVuSans-2d" x="254.492188"/>
       <use xlink:href="#DejaVuSans-30" x="290.576172"/>
       <use xlink:href="#DejaVuSans-37" x="354.199219"/>
      </g>
     </g>
    </g>
    <g id="xtick_20">
     <g id="line2d_53">
      <path d="M 646.742653 584.521875 
L 646.742653 331.135938 
" clip-path="url(#p8dad8e6dc2)" style="fill: none; stroke-dasharray: 2.96,1.28; stroke-dashoffset: 0; stroke: #b0b0b0; stroke-width: 0.8"/>
     </g>
     <g id="line2d_54">
      <g>
       <use xlink:href="#mf92681893c" x="646.742653" y="584.521875" style="stroke: #000000; stroke-width: 0.8"/>
      </g>
     </g>
     <g id="text_16">
      <!-- 2022-08 -->
      <g transform="translate(625.851246 599.120312)scale(0.1 -0.1)">
       <use xlink:href="#DejaVuSans-32"/>
       <use xlink:href="#DejaVuSans-30" x="63.623047"/>
       <use xlink:href="#DejaVuSans-32" x="127.246094"/>
       <use xlink:href="#DejaVuSans-32" x="190.869141"/>
       <use xlink:href="#DejaVuSans-2d" x="254.492188"/>
       <use xlink:href="#DejaVuSans-30" x="290.576172"/>
       <use xlink:href="#DejaVuSans-38" x="354.199219"/>
      </g>
     </g>
    </g>
    <g id="xtick_21">
     <g id="line2d_55">
      <path d="M 730.137107 584.521875 
L 730.137107 331.135938 
" clip-path="url(#p8dad8e6dc2)" style="fill: none; stroke-dasharray: 2.96,1.28; stroke-dashoffset: 0; stroke: #b0b0b0; stroke-width: 0.8"/>
     </g>
     <g id="line2d_56">
      <g>
       <use xlink:href="#mf92681893c" x="730.137107" y="584.521875" style="stroke: #000000; stroke-width: 0.8"/>
      </g>
     </g>
     <g id="text_17">
      <!-- 2022-09 -->
      <g transform="translate(709.245701 599.120312)scale(0.1 -0.1)">
       <defs>
        <path id="DejaVuSans-39" d="M 703 97 
L 703 672 
Q 941 559 1184 500 
Q 1428 441 1663 441 
Q 2288 441 2617 861 
Q 2947 1281 2994 2138 
Q 2813 1869 2534 1725 
Q 2256 1581 1919 1581 
Q 1219 1581 811 2004 
Q 403 2428 403 3163 
Q 403 3881 828 4315 
Q 1253 4750 1959 4750 
Q 2769 4750 3195 4129 
Q 3622 3509 3622 2328 
Q 3622 1225 3098 567 
Q 2575 -91 1691 -91 
Q 1453 -91 1209 -44 
Q 966 3 703 97 
z
M 1959 2075 
Q 2384 2075 2632 2365 
Q 2881 2656 2881 3163 
Q 2881 3666 2632 3958 
Q 2384 4250 1959 4250 
Q 1534 4250 1286 3958 
Q 1038 3666 1038 3163 
Q 1038 2656 1286 2365 
Q 1534 2075 1959 2075 
z
" transform="scale(0.015625)"/>
       </defs>
       <use xlink:href="#DejaVuSans-32"/>
       <use xlink:href="#DejaVuSans-30" x="63.623047"/>
       <use xlink:href="#DejaVuSans-32" x="127.246094"/>
       <use xlink:href="#DejaVuSans-32" x="190.869141"/>
       <use xlink:href="#DejaVuSans-2d" x="254.492188"/>
       <use xlink:href="#DejaVuSans-30" x="290.576172"/>
       <use xlink:href="#DejaVuSans-39" x="354.199219"/>
      </g>
     </g>
    </g>
    <g id="xtick_22">
     <g id="line2d_57">
      <path d="M 810.841417 584.521875 
L 810.841417 331.135938 
" clip-path="url(#p8dad8e6dc2)" style="fill: none; stroke-dasharray: 2.96,1.28; stroke-dashoffset: 0; stroke: #b0b0b0; stroke-width: 0.8"/>
     </g>
     <g id="line2d_58">
      <g>
       <use xlink:href="#mf92681893c" x="810.841417" y="584.521875" style="stroke: #000000; stroke-width: 0.8"/>
      </g>
     </g>
     <g id="text_18">
      <!-- 2022-10 -->
      <g transform="translate(789.950011 599.120312)scale(0.1 -0.1)">
       <use xlink:href="#DejaVuSans-32"/>
       <use xlink:href="#DejaVuSans-30" x="63.623047"/>
       <use xlink:href="#DejaVuSans-32" x="127.246094"/>
       <use xlink:href="#DejaVuSans-32" x="190.869141"/>
       <use xlink:href="#DejaVuSans-2d" x="254.492188"/>
       <use xlink:href="#DejaVuSans-31" x="290.576172"/>
       <use xlink:href="#DejaVuSans-30" x="354.199219"/>
      </g>
     </g>
    </g>
    <g id="xtick_23">
     <g id="line2d_59">
      <path d="M 894.235872 584.521875 
L 894.235872 331.135938 
" clip-path="url(#p8dad8e6dc2)" style="fill: none; stroke-dasharray: 2.96,1.28; stroke-dashoffset: 0; stroke: #b0b0b0; stroke-width: 0.8"/>
     </g>
     <g id="line2d_60">
      <g>
       <use xlink:href="#mf92681893c" x="894.235872" y="584.521875" style="stroke: #000000; stroke-width: 0.8"/>
      </g>
     </g>
     <g id="text_19">
      <!-- 2022-11 -->
      <g transform="translate(873.344465 599.120312)scale(0.1 -0.1)">
       <use xlink:href="#DejaVuSans-32"/>
       <use xlink:href="#DejaVuSans-30" x="63.623047"/>
       <use xlink:href="#DejaVuSans-32" x="127.246094"/>
       <use xlink:href="#DejaVuSans-32" x="190.869141"/>
       <use xlink:href="#DejaVuSans-2d" x="254.492188"/>
       <use xlink:href="#DejaVuSans-31" x="290.576172"/>
       <use xlink:href="#DejaVuSans-31" x="354.199219"/>
      </g>
     </g>
    </g>
    <g id="xtick_24">
     <g id="line2d_61">
      <path d="M 974.940182 584.521875 
L 974.940182 331.135938 
" clip-path="url(#p8dad8e6dc2)" style="fill: none; stroke-dasharray: 2.96,1.28; stroke-dashoffset: 0; stroke: #b0b0b0; stroke-width: 0.8"/>
     </g>
     <g id="line2d_62">
      <g>
       <use xlink:href="#mf92681893c" x="974.940182" y="584.521875" style="stroke: #000000; stroke-width: 0.8"/>
      </g>
     </g>
     <g id="text_20">
      <!-- 2022-12 -->
      <g transform="translate(954.048776 599.120312)scale(0.1 -0.1)">
       <use xlink:href="#DejaVuSans-32"/>
       <use xlink:href="#DejaVuSans-30" x="63.623047"/>
       <use xlink:href="#DejaVuSans-32" x="127.246094"/>
       <use xlink:href="#DejaVuSans-32" x="190.869141"/>
       <use xlink:href="#DejaVuSans-2d" x="254.492188"/>
       <use xlink:href="#DejaVuSans-31" x="290.576172"/>
       <use xlink:href="#DejaVuSans-32" x="354.199219"/>
      </g>
     </g>
    </g>
   </g>
   <g id="matplotlib.axis_4">
    <g id="ytick_6">
     <g id="line2d_63">
      <path d="M 38.904688 577.682942 
L 982.876106 577.682942 
" clip-path="url(#p8dad8e6dc2)" style="fill: none; stroke-dasharray: 2.96,1.28; stroke-dashoffset: 0; stroke: #b0b0b0; stroke-width: 0.8"/>
     </g>
     <g id="line2d_64">
      <g>
       <use xlink:href="#m1fd6e07076" x="38.904688" y="577.682942" style="stroke: #000000; stroke-width: 0.8"/>
      </g>
     </g>
     <g id="text_21">
      <!-- −15 -->
      <g transform="translate(10.8 581.482161)scale(0.1 -0.1)">
       <defs>
        <path id="DejaVuSans-2212" d="M 678 2272 
L 4684 2272 
L 4684 1741 
L 678 1741 
L 678 2272 
z
" transform="scale(0.015625)"/>
       </defs>
       <use xlink:href="#DejaVuSans-2212"/>
       <use xlink:href="#DejaVuSans-31" x="83.789062"/>
       <use xlink:href="#DejaVuSans-35" x="147.412109"/>
      </g>
     </g>
    </g>
    <g id="ytick_7">
     <g id="line2d_65">
      <path d="M 38.904688 530.406264 
L 982.876106 530.406264 
" clip-path="url(#p8dad8e6dc2)" style="fill: none; stroke-dasharray: 2.96,1.28; stroke-dashoffset: 0; stroke: #b0b0b0; stroke-width: 0.8"/>
     </g>
     <g id="line2d_66">
      <g>
       <use xlink:href="#m1fd6e07076" x="38.904688" y="530.406264" style="stroke: #000000; stroke-width: 0.8"/>
      </g>
     </g>
     <g id="text_22">
      <!-- −10 -->
      <g transform="translate(10.8 534.205483)scale(0.1 -0.1)">
       <use xlink:href="#DejaVuSans-2212"/>
       <use xlink:href="#DejaVuSans-31" x="83.789062"/>
       <use xlink:href="#DejaVuSans-30" x="147.412109"/>
      </g>
     </g>
    </g>
    <g id="ytick_8">
     <g id="line2d_67">
      <path d="M 38.904688 483.129585 
L 982.876106 483.129585 
" clip-path="url(#p8dad8e6dc2)" style="fill: none; stroke-dasharray: 2.96,1.28; stroke-dashoffset: 0; stroke: #b0b0b0; stroke-width: 0.8"/>
     </g>
     <g id="line2d_68">
      <g>
       <use xlink:href="#m1fd6e07076" x="38.904688" y="483.129585" style="stroke: #000000; stroke-width: 0.8"/>
      </g>
     </g>
     <g id="text_23">
      <!-- −5 -->
      <g transform="translate(17.1625 486.928804)scale(0.1 -0.1)">
       <use xlink:href="#DejaVuSans-2212"/>
       <use xlink:href="#DejaVuSans-35" x="83.789062"/>
      </g>
     </g>
    </g>
    <g id="ytick_9">
     <g id="line2d_69">
      <path d="M 38.904688 435.852907 
L 982.876106 435.852907 
" clip-path="url(#p8dad8e6dc2)" style="fill: none; stroke-dasharray: 2.96,1.28; stroke-dashoffset: 0; stroke: #b0b0b0; stroke-width: 0.8"/>
     </g>
     <g id="line2d_70">
      <g>
       <use xlink:href="#m1fd6e07076" x="38.904688" y="435.852907" style="stroke: #000000; stroke-width: 0.8"/>
      </g>
     </g>
     <g id="text_24">
      <!-- 0 -->
      <g transform="translate(25.542188 439.652126)scale(0.1 -0.1)">
       <use xlink:href="#DejaVuSans-30"/>
      </g>
     </g>
    </g>
    <g id="ytick_10">
     <g id="line2d_71">
      <path d="M 38.904688 388.576229 
L 982.876106 388.576229 
" clip-path="url(#p8dad8e6dc2)" style="fill: none; stroke-dasharray: 2.96,1.28; stroke-dashoffset: 0; stroke: #b0b0b0; stroke-width: 0.8"/>
     </g>
     <g id="line2d_72">
      <g>
       <use xlink:href="#m1fd6e07076" x="38.904688" y="388.576229" style="stroke: #000000; stroke-width: 0.8"/>
      </g>
     </g>
     <g id="text_25">
      <!-- 5 -->
      <g transform="translate(25.542188 392.375447)scale(0.1 -0.1)">
       <use xlink:href="#DejaVuSans-35"/>
      </g>
     </g>
    </g>
    <g id="ytick_11">
     <g id="line2d_73">
      <path d="M 38.904688 341.29955 
L 982.876106 341.29955 
" clip-path="url(#p8dad8e6dc2)" style="fill: none; stroke-dasharray: 2.96,1.28; stroke-dashoffset: 0; stroke: #b0b0b0; stroke-width: 0.8"/>
     </g>
     <g id="line2d_74">
      <g>
       <use xlink:href="#m1fd6e07076" x="38.904688" y="341.29955" style="stroke: #000000; stroke-width: 0.8"/>
      </g>
     </g>
     <g id="text_26">
      <!-- 10 -->
      <g transform="translate(19.179688 345.098769)scale(0.1 -0.1)">
       <use xlink:href="#DejaVuSans-31"/>
       <use xlink:href="#DejaVuSans-30" x="63.623047"/>
      </g>
     </g>
    </g>
   </g>
   <g id="line2d_75">
    <path d="M 81.812479 435.852907 
L 84.502623 433.529986 
L 87.192767 432.482551 
L 89.88291 432.259447 
L 92.573054 431.63068 
L 100.643485 432.363074 
L 103.333629 434.477745 
L 106.023772 434.141516 
L 108.713916 433.606344 
L 111.40406 433.941246 
L 119.474491 435.469407 
L 122.164634 437.477959 
L 124.854778 439.800582 
L 127.544922 442.583815 
L 130.235066 442.46475 
L 138.305497 447.710525 
L 140.99564 454.080107 
L 146.375928 458.317106 
L 149.066071 459.844326 
L 157.136502 460.670282 
L 159.826646 459.415818 
L 162.51679 456.609977 
L 165.206933 452.357065 
L 167.897077 444.73146 
L 175.967508 435.805445 
L 178.657652 433.339015 
L 181.347796 428.497752 
L 184.037939 424.740991 
L 186.728083 425.17668 
L 194.798514 434.808714 
L 197.488658 441.375563 
L 200.178801 444.772224 
L 202.868945 447.989237 
L 205.559089 449.871577 
L 213.62952 454.649714 
L 216.319663 460.410633 
L 219.009807 461.957143 
L 221.699951 473.085676 
L 224.390094 472.981788 
L 232.460525 471.318594 
L 240.530957 425.046063 
L 243.2211 426.779984 
L 251.291531 429.593318 
L 253.981675 429.707337 
L 256.671819 433.867363 
L 259.361962 440.126703 
L 262.052106 444.795649 
L 270.122537 450.78601 
L 272.812681 458.523235 
L 275.502824 461.029195 
L 278.192968 462.630176 
L 288.953543 462.576 
L 291.643687 461.039039 
L 294.33383 461.035686 
L 299.714118 460.354381 
L 307.784549 460.394432 
L 310.474692 460.257705 
L 313.164836 458.863147 
L 315.85498 458.293349 
L 318.545123 449.733382 
L 326.615554 439.574556 
L 329.305698 425.730019 
L 334.685985 403.100903 
L 337.376129 393.462986 
L 345.44656 379.040672 
L 348.136704 374.546385 
L 350.826848 362.63666 
L 364.277566 360.452019 
L 366.96771 361.554223 
L 369.657853 358.754545 
L 372.347997 355.673212 
L 375.038141 357.520111 
L 383.108572 376.785783 
L 385.798715 392.477634 
L 388.488859 408.878125 
L 391.179003 419.475591 
L 393.869146 427.701453 
L 401.939578 433.147283 
L 407.319865 443.092197 
L 410.010009 454.453618 
L 412.700152 467.812542 
L 420.770583 474.713099 
L 423.460727 485.778514 
L 426.150871 498.022539 
L 428.841014 513.913963 
L 431.531158 526.680268 
L 439.601589 537.38026 
L 442.291733 535.901702 
L 444.981876 535.713307 
L 447.67202 538.610741 
L 450.362164 533.528749 
L 458.432595 524.212635 
L 461.122739 518.808975 
L 463.812882 506.769696 
L 466.503026 500.524711 
L 469.19317 497.081282 
L 477.263601 492.177739 
L 479.953744 485.695994 
L 482.643888 473.225992 
L 485.334032 466.197043 
L 488.024175 464.943865 
L 496.094606 463.743606 
L 498.78475 460.788718 
L 501.474894 461.281215 
L 504.165037 465.336305 
L 506.855181 470.288872 
L 514.925612 480.639164 
L 517.615756 490.726594 
L 520.3059 495.251845 
L 522.996043 502.53214 
L 525.686187 514.414472 
L 533.756618 528.975164 
L 536.446762 534.909906 
L 539.136905 550.460012 
L 541.827049 559.263012 
L 544.517193 567.619488 
L 552.587624 573.004332 
L 555.277767 571.813759 
L 557.967911 567.596853 
L 560.658055 565.921642 
L 563.348198 564.484474 
L 571.41863 561.66632 
L 574.108773 557.45891 
L 576.798917 553.945732 
L 579.489061 542.719927 
L 582.179204 527.766662 
L 590.249635 508.705785 
L 592.939779 495.694805 
L 595.629923 481.877504 
L 598.320066 461.438817 
L 601.01021 443.889518 
L 609.080641 423.976771 
L 611.770785 404.551141 
L 614.460928 404.622568 
L 617.151072 401.904275 
L 619.841216 404.498411 
L 627.911647 410.05605 
L 633.291934 430.368908 
L 635.982078 437.309892 
L 638.672222 438.809222 
L 646.742653 437.913714 
L 649.432796 438.131448 
L 652.12294 439.596032 
L 654.813084 439.380879 
L 657.503227 438.606409 
L 665.573658 438.345384 
L 670.953946 437.131928 
L 673.64409 436.015785 
L 676.334233 434.536045 
L 687.094808 418.68351 
L 689.784952 412.191526 
L 692.475095 409.449096 
L 695.165239 409.75103 
L 703.23567 410.88846 
L 705.925814 409.575018 
L 708.615957 408.883146 
L 711.306101 409.289557 
L 713.996245 407.233031 
L 722.066676 406.287366 
L 724.756819 405.65711 
L 730.137107 405.997706 
L 732.827251 405.812802 
L 743.587825 404.104409 
L 746.277969 403.731908 
L 748.968113 403.01413 
L 751.658256 402.147156 
L 759.728687 401.927441 
L 762.418831 402.896186 
L 765.108975 403.050197 
L 767.799118 402.790411 
L 770.489262 410.091514 
L 778.559693 420.555528 
L 781.249837 426.363637 
L 783.939981 429.249753 
L 786.630124 430.681079 
L 789.320268 434.840797 
L 797.390699 442.599283 
L 800.080843 447.431867 
L 802.770986 457.044869 
L 805.46113 463.014944 
L 808.151274 467.873091 
L 816.221705 472.181841 
L 818.911848 470.391728 
L 824.292136 459.3935 
L 826.982279 448.057004 
L 835.05271 437.565227 
L 837.742854 431.475334 
L 840.432998 424.830544 
L 843.123142 419.976405 
L 845.813285 419.37132 
L 856.57386 427.325996 
L 859.264004 428.32552 
L 861.954147 431.532648 
L 864.644291 431.982627 
L 872.714722 430.795311 
L 875.404866 429.206155 
L 880.785153 428.112264 
L 883.475297 427.796002 
L 894.235872 427.419534 
L 896.926015 423.953711 
L 899.616159 423.184178 
L 902.306303 420.425112 
L 910.376734 417.006149 
L 915.757021 413.523986 
L 918.447165 410.522266 
L 921.137308 405.668354 
L 929.207739 392.554736 
L 937.27817 351.800686 
L 939.968314 342.65348 
L 939.968314 342.65348 
" clip-path="url(#p8dad8e6dc2)" style="fill: none; stroke: #1f77b4; stroke-width: 1.5; stroke-linecap: square"/>
   </g>
   <g id="line2d_76">
    <path d="M 81.812479 435.852907 
L 84.502623 434.562395 
L 87.192767 433.71 
L 92.573054 432.746244 
L 100.643485 432.642383 
L 103.333629 433.106864 
L 106.023772 433.355511 
L 111.40406 433.53171 
L 119.474491 433.955667 
L 122.164634 434.712108 
L 124.854778 435.789006 
L 127.544922 437.210485 
L 130.235066 438.29966 
L 138.305497 440.236346 
L 140.99564 443.068881 
L 146.375928 446.174471 
L 149.066071 448.948419 
L 157.136502 451.320136 
L 159.826646 452.954345 
L 162.51679 453.690906 
L 165.206933 453.422554 
L 167.897077 451.676088 
L 175.967508 448.489922 
L 178.657652 445.450555 
L 184.037939 438.582909 
L 186.728083 435.897508 
L 194.798514 435.679479 
L 197.488658 436.819825 
L 200.178801 438.411566 
L 205.559089 442.237936 
L 213.62952 444.721299 
L 216.319663 447.860184 
L 219.009807 450.680308 
L 221.699951 455.162313 
L 224.390094 458.7268 
L 232.460525 461.245494 
L 237.840813 457.149822 
L 240.530957 450.728524 
L 243.2211 445.93849 
L 251.291531 442.669278 
L 253.981675 440.076776 
L 256.671819 438.83485 
L 259.361962 439.093228 
L 262.052106 440.233738 
L 270.122537 442.34423 
L 275.502824 448.669936 
L 278.192968 451.46201 
L 288.953543 453.684824 
L 291.643687 455.155676 
L 294.33383 456.331683 
L 297.023974 457.207002 
L 299.714118 457.836479 
L 307.784549 458.348071 
L 310.474692 458.729999 
L 313.164836 458.756628 
L 315.85498 458.663972 
L 318.545123 456.877852 
L 326.615554 453.41719 
L 329.305698 447.879753 
L 331.995842 441.221262 
L 334.685985 433.597187 
L 337.376129 425.570344 
L 345.44656 416.264408 
L 348.136704 407.920801 
L 350.826848 398.863972 
L 364.277566 391.18158 
L 366.96771 385.256108 
L 369.657853 379.955795 
L 372.347997 375.099278 
L 375.038141 371.583444 
L 383.108572 372.623912 
L 385.798715 376.594657 
L 388.488859 383.051351 
L 393.869146 397.80925 
L 401.939578 404.876856 
L 407.319865 412.519925 
L 410.010009 420.906663 
L 412.700152 430.287839 
L 420.770583 439.172891 
L 423.460727 448.494016 
L 426.150871 458.39972 
L 431.531158 480.938109 
L 439.601589 492.226539 
L 442.291733 500.961572 
L 444.981876 507.911919 
L 447.67202 514.051683 
L 450.362164 517.947096 
L 458.432595 519.200204 
L 461.122739 519.121958 
L 463.812882 516.651506 
L 469.19317 510.157174 
L 477.263601 506.561287 
L 479.953744 502.388228 
L 485.334032 490.484033 
L 488.024175 485.376 
L 496.094606 481.049521 
L 498.78475 476.99736 
L 501.474894 473.854131 
L 504.165037 472.150566 
L 506.855181 471.778227 
L 514.925612 473.550415 
L 517.615756 476.98565 
L 520.3059 480.638889 
L 522.996043 485.01754 
L 525.686187 490.896926 
L 533.756618 498.512574 
L 536.446762 505.79204 
L 544.517193 532.430386 
L 552.587624 540.545175 
L 555.277767 546.798892 
L 557.967911 550.958484 
L 560.658055 553.951116 
L 563.348198 556.057787 
L 571.41863 557.179494 
L 574.108773 557.235377 
L 576.798917 556.577448 
L 579.489061 553.805944 
L 582.179204 548.598087 
L 590.249635 540.619627 
L 592.939779 531.634663 
L 595.629923 521.683231 
L 598.320066 509.634348 
L 601.01021 496.485382 
L 609.080641 481.98366 
L 611.770785 466.497156 
L 614.460928 454.122239 
L 617.151072 443.678646 
L 619.841216 435.842599 
L 627.911647 430.685289 
L 630.601791 428.567682 
L 633.291934 428.927927 
L 638.672222 432.2453 
L 646.742653 433.378983 
L 654.813084 436.182406 
L 657.503227 436.667206 
L 665.573658 437.002842 
L 670.953946 437.028659 
L 673.64409 436.826084 
L 676.334233 436.368076 
L 687.094808 432.831163 
L 689.784952 428.703236 
L 692.475095 424.852408 
L 695.165239 421.832132 
L 703.23567 419.643398 
L 705.925814 417.629722 
L 708.615957 415.880407 
L 711.306101 414.562237 
L 713.996245 413.096395 
L 722.066676 411.73459 
L 724.756819 410.519094 
L 730.137107 409.614816 
L 732.827251 408.854413 
L 740.897682 407.976335 
L 746.277969 406.507941 
L 751.658256 405.076774 
L 765.108975 403.91945 
L 767.799118 403.693642 
L 770.489262 404.973217 
L 778.559693 408.089679 
L 783.939981 415.245527 
L 786.630124 418.332637 
L 789.320268 421.634269 
L 797.390699 425.827272 
L 800.080843 430.148191 
L 808.151274 446.394626 
L 816.221705 451.552069 
L 818.911848 455.320001 
L 824.292136 456.134701 
L 826.982279 454.519162 
L 835.05271 451.128375 
L 837.742854 447.197767 
L 843.123142 438.174739 
L 845.813285 434.414055 
L 853.883716 432.592807 
L 856.57386 431.539445 
L 859.264004 430.89666 
L 864.644291 431.215611 
L 872.714722 431.131551 
L 875.404866 430.746472 
L 880.785153 430.21963 
L 883.475297 429.734905 
L 891.545728 429.28576 
L 894.235872 428.912515 
L 899.616159 426.973439 
L 902.306303 425.663774 
L 910.376734 423.932249 
L 915.757021 421.850596 
L 918.447165 419.58493 
L 921.137308 416.801615 
L 929.207739 411.952239 
L 931.897883 405.369854 
L 934.588027 397.399232 
L 939.968314 379.154314 
L 939.968314 379.154314 
" clip-path="url(#p8dad8e6dc2)" style="fill: none; stroke: #ff7f0e; stroke-width: 1.5; stroke-linecap: square"/>
   </g>
   <g id="patch_9">
    <path d="M 38.904688 584.521875 
L 38.904688 331.135938 
" style="fill: none; stroke: #000000; stroke-width: 0.8; stroke-linejoin: miter; stroke-linecap: square"/>
   </g>
   <g id="patch_10">
    <path d="M 982.876106 584.521875 
L 982.876106 331.135938 
" style="fill: none; stroke: #000000; stroke-width: 0.8; stroke-linejoin: miter; stroke-linecap: square"/>
   </g>
   <g id="patch_11">
    <path d="M 38.904687 584.521875 
L 982.876106 584.521875 
" style="fill: none; stroke: #000000; stroke-width: 0.8; stroke-linejoin: miter; stroke-linecap: square"/>
   </g>
   <g id="patch_12">
    <path d="M 38.904687 331.135938 
L 982.876106 331.135938 
" style="fill: none; stroke: #000000; stroke-width: 0.8; stroke-linejoin: miter; stroke-linecap: square"/>
   </g>
   <g id="text_27">
    <!-- MACD -->
    <g transform="translate(492.904459 325.135938)scale(0.12 -0.12)">
     <defs>
      <path id="DejaVuSans-44" d="M 1259 4147 
L 1259 519 
L 2022 519 
Q 2988 519 3436 956 
Q 3884 1394 3884 2338 
Q 3884 3275 3436 3711 
Q 2988 4147 2022 4147 
L 1259 4147 
z
M 628 4666 
L 1925 4666 
Q 3281 4666 3915 4102 
Q 4550 3538 4550 2338 
Q 4550 1131 3912 565 
Q 3275 0 1925 0 
L 628 0 
L 628 4666 
z
" transform="scale(0.015625)"/>
     </defs>
     <use xlink:href="#DejaVuSans-4d"/>
     <use xlink:href="#DejaVuSans-41" x="86.279297"/>
     <use xlink:href="#DejaVuSans-43" x="152.9375"/>
     <use xlink:href="#DejaVuSans-44" x="222.761719"/>
    </g>
   </g>
   <g id="legend_2">
    <g id="patch_13">
     <path d="M 45.904688 368.492188 
L 107.88125 368.492188 
Q 109.88125 368.492188 109.88125 366.492188 
L 109.88125 338.135938 
Q 109.88125 336.135938 107.88125 336.135938 
L 45.904688 336.135938 
Q 43.904688 336.135938 43.904688 338.135938 
L 43.904688 366.492188 
Q 43.904688 368.492188 45.904688 368.492188 
z
" style="fill: #ffffff; opacity: 0.8; stroke: #cccccc; stroke-linejoin: miter"/>
    </g>
    <g id="line2d_77">
     <path d="M 47.904688 344.234375 
L 57.904688 344.234375 
L 67.904687 344.234375 
" style="fill: none; stroke: #1f77b4; stroke-width: 1.5; stroke-linecap: square"/>
    </g>
    <g id="text_28">
     <!-- MACD -->
     <g transform="translate(75.904687 347.734375)scale(0.1 -0.1)">
      <use xlink:href="#DejaVuSans-4d"/>
      <use xlink:href="#DejaVuSans-41" x="86.279297"/>
      <use xlink:href="#DejaVuSans-43" x="152.9375"/>
      <use xlink:href="#DejaVuSans-44" x="222.761719"/>
     </g>
    </g>
    <g id="line2d_78">
     <path d="M 47.904688 358.9125 
L 57.904688 358.9125 
L 67.904687 358.9125 
" style="fill: none; stroke: #ff7f0e; stroke-width: 1.5; stroke-linecap: square"/>
    </g>
    <g id="text_29">
     <!-- SIG -->
     <g transform="translate(75.904687 362.4125)scale(0.1 -0.1)">
      <defs>
       <path id="DejaVuSans-49" d="M 628 4666 
L 1259 4666 
L 1259 0 
L 628 0 
L 628 4666 
z
" transform="scale(0.015625)"/>
       <path id="DejaVuSans-47" d="M 3809 666 
L 3809 1919 
L 2778 1919 
L 2778 2438 
L 4434 2438 
L 4434 434 
Q 4069 175 3628 42 
Q 3188 -91 2688 -91 
Q 1594 -91 976 548 
Q 359 1188 359 2328 
Q 359 3472 976 4111 
Q 1594 4750 2688 4750 
Q 3144 4750 3555 4637 
Q 3966 4525 4313 4306 
L 4313 3634 
Q 3963 3931 3569 4081 
Q 3175 4231 2741 4231 
Q 1884 4231 1454 3753 
Q 1025 3275 1025 2328 
Q 1025 1384 1454 906 
Q 1884 428 2741 428 
Q 3075 428 3337 486 
Q 3600 544 3809 666 
z
" transform="scale(0.015625)"/>
      </defs>
      <use xlink:href="#DejaVuSans-53"/>
      <use xlink:href="#DejaVuSans-49" x="63.476562"/>
      <use xlink:href="#DejaVuSans-47" x="92.96875"/>
     </g>
    </g>
   </g>
  </g>
  <g id="text_30">
   <!-- Hindustan Zinc Limited -->
   <g transform="translate(434.383125 21.358125)scale(0.12 -0.12)">
    <defs>
     <path id="DejaVuSans-48" d="M 628 4666 
L 1259 4666 
L 1259 2753 
L 3553 2753 
L 3553 4666 
L 4184 4666 
L 4184 0 
L 3553 0 
L 3553 2222 
L 1259 2222 
L 1259 0 
L 628 0 
L 628 4666 
z
" transform="scale(0.015625)"/>
     <path id="DejaVuSans-64" d="M 2906 2969 
L 2906 4863 
L 3481 4863 
L 3481 0 
L 2906 0 
L 2906 525 
Q 2725 213 2448 61 
Q 2172 -91 1784 -91 
Q 1150 -91 751 415 
Q 353 922 353 1747 
Q 353 2572 751 3078 
Q 1150 3584 1784 3584 
Q 2172 3584 2448 3432 
Q 2725 3281 2906 2969 
z
M 947 1747 
Q 947 1113 1208 752 
Q 1469 391 1925 391 
Q 2381 391 2643 752 
Q 2906 1113 2906 1747 
Q 2906 2381 2643 2742 
Q 2381 3103 1925 3103 
Q 1469 3103 1208 2742 
Q 947 2381 947 1747 
z
" transform="scale(0.015625)"/>
     <path id="DejaVuSans-75" d="M 544 1381 
L 544 3500 
L 1119 3500 
L 1119 1403 
Q 1119 906 1312 657 
Q 1506 409 1894 409 
Q 2359 409 2629 706 
Q 2900 1003 2900 1516 
L 2900 3500 
L 3475 3500 
L 3475 0 
L 2900 0 
L 2900 538 
Q 2691 219 2414 64 
Q 2138 -91 1772 -91 
Q 1169 -91 856 284 
Q 544 659 544 1381 
z
M 1991 3584 
L 1991 3584 
z
" transform="scale(0.015625)"/>
     <path id="DejaVuSans-74" d="M 1172 4494 
L 1172 3500 
L 2356 3500 
L 2356 3053 
L 1172 3053 
L 1172 1153 
Q 1172 725 1289 603 
Q 1406 481 1766 481 
L 2356 481 
L 2356 0 
L 1766 0 
Q 1100 0 847 248 
Q 594 497 594 1153 
L 594 3053 
L 172 3053 
L 172 3500 
L 594 3500 
L 594 4494 
L 1172 4494 
z
" transform="scale(0.015625)"/>
     <path id="DejaVuSans-61" d="M 2194 1759 
Q 1497 1759 1228 1600 
Q 959 1441 959 1056 
Q 959 750 1161 570 
Q 1363 391 1709 391 
Q 2188 391 2477 730 
Q 2766 1069 2766 1631 
L 2766 1759 
L 2194 1759 
z
M 3341 1997 
L 3341 0 
L 2766 0 
L 2766 531 
Q 2569 213 2275 61 
Q 1981 -91 1556 -91 
Q 1019 -91 701 211 
Q 384 513 384 1019 
Q 384 1609 779 1909 
Q 1175 2209 1959 2209 
L 2766 2209 
L 2766 2266 
Q 2766 2663 2505 2880 
Q 2244 3097 1772 3097 
Q 1472 3097 1187 3025 
Q 903 2953 641 2809 
L 641 3341 
Q 956 3463 1253 3523 
Q 1550 3584 1831 3584 
Q 2591 3584 2966 3190 
Q 3341 2797 3341 1997 
z
" transform="scale(0.015625)"/>
     <path id="DejaVuSans-5a" d="M 359 4666 
L 4025 4666 
L 4025 4184 
L 1075 531 
L 4097 531 
L 4097 0 
L 288 0 
L 288 481 
L 3238 4134 
L 359 4134 
L 359 4666 
z
" transform="scale(0.015625)"/>
     <path id="DejaVuSans-6d" d="M 3328 2828 
Q 3544 3216 3844 3400 
Q 4144 3584 4550 3584 
Q 5097 3584 5394 3201 
Q 5691 2819 5691 2113 
L 5691 0 
L 5113 0 
L 5113 2094 
Q 5113 2597 4934 2840 
Q 4756 3084 4391 3084 
Q 3944 3084 3684 2787 
Q 3425 2491 3425 1978 
L 3425 0 
L 2847 0 
L 2847 2094 
Q 2847 2600 2669 2842 
Q 2491 3084 2119 3084 
Q 1678 3084 1418 2786 
Q 1159 2488 1159 1978 
L 1159 0 
L 581 0 
L 581 3500 
L 1159 3500 
L 1159 2956 
Q 1356 3278 1631 3431 
Q 1906 3584 2284 3584 
Q 2666 3584 2933 3390 
Q 3200 3197 3328 2828 
z
" transform="scale(0.015625)"/>
    </defs>
    <use xlink:href="#DejaVuSans-48"/>
    <use xlink:href="#DejaVuSans-69" x="75.195312"/>
    <use xlink:href="#DejaVuSans-6e" x="102.978516"/>
    <use xlink:href="#DejaVuSans-64" x="166.357422"/>
    <use xlink:href="#DejaVuSans-75" x="229.833984"/>
    <use xlink:href="#DejaVuSans-73" x="293.212891"/>
    <use xlink:href="#DejaVuSans-74" x="345.3125"/>
    <use xlink:href="#DejaVuSans-61" x="384.521484"/>
    <use xlink:href="#DejaVuSans-6e" x="445.800781"/>
    <use xlink:href="#DejaVuSans-20" x="509.179688"/>
    <use xlink:href="#DejaVuSans-5a" x="540.966797"/>
    <use xlink:href="#DejaVuSans-69" x="609.472656"/>
    <use xlink:href="#DejaVuSans-6e" x="637.255859"/>
    <use xlink:href="#DejaVuSans-63" x="700.634766"/>
    <use xlink:href="#DejaVuSans-20" x="755.615234"/>
    <use xlink:href="#DejaVuSans-4c" x="787.402344"/>
    <use xlink:href="#DejaVuSans-69" x="843.115234"/>
    <use xlink:href="#DejaVuSans-6d" x="870.898438"/>
    <use xlink:href="#DejaVuSans-69" x="968.310547"/>
    <use xlink:href="#DejaVuSans-74" x="996.09375"/>
    <use xlink:href="#DejaVuSans-65" x="1035.302734"/>
    <use xlink:href="#DejaVuSans-64" x="1096.826172"/>
   </g>
  </g>
 </g>
 <defs>
  <clipPath id="pece377035e">
   <rect x="38.904688" y="48.331875" width="943.971418" height="253.385938"/>
  </clipPath>
  <clipPath id="p8dad8e6dc2">
   <rect x="38.904688" y="331.135938" width="943.971418" height="253.385937"/>
  </clipPath>
 </defs>
</svg>
