<?xml version="1.0" encoding="utf-8" standalone="no"?>
<!DOCTYPE svg PUBLIC "-//W3C//DTD SVG 1.1//EN"
  "http://www.w3.org/Graphics/SVG/1.1/DTD/svg11.dtd">
<svg xmlns:xlink="http://www.w3.org/1999/xlink" width="1008pt" height="612pt" viewBox="0 0 1008 612" xmlns="http://www.w3.org/2000/svg" version="1.1">
 <metadata>
  <rdf:RDF xmlns:dc="http://purl.org/dc/elements/1.1/" xmlns:cc="http://creativecommons.org/ns#" xmlns:rdf="http://www.w3.org/1999/02/22-rdf-syntax-ns#">
   <cc:Work>
    <dc:type rdf:resource="http://purl.org/dc/dcmitype/StillImage"/>
    <dc:date>2022-11-20T19:47:03.754186</dc:date>
    <dc:format>image/svg+xml</dc:format>
    <dc:creator>
     <cc:Agent>
      <dc:title>Matplotlib v3.5.2, https://matplotlib.org/</dc:title>
     </cc:Agent>
    </dc:creator>
   </cc:Work>
  </rdf:RDF>
 </metadata>
 <defs>
  <style type="text/css">*{stroke-linejoin: round; stroke-linecap: butt}</style>
 </defs>
 <g id="figure_1">
  <g id="patch_1">
   <path d="M 0 612 
L 1008 612 
L 1008 0 
L 0 0 
z
" style="fill: #ffffff"/>
  </g>
  <g id="axes_1">
   <g id="patch_2">
    <path d="M 36.8875 301.717812 
L 982.876106 301.717812 
L 982.876106 48.331875 
L 36.8875 48.331875 
z
" style="fill: #ffffff"/>
   </g>
   <g id="matplotlib.axis_1">
    <g id="xtick_1">
     <g id="line2d_1">
      <path d="M 74.495197 301.717812 
L 74.495197 48.331875 
" clip-path="url(#p81cb411203)" style="fill: none; stroke-dasharray: 2.96,1.28; stroke-dashoffset: 0; stroke: #b0b0b0; stroke-width: 0.8"/>
     </g>
     <g id="line2d_2">
      <defs>
       <path id="m0fd2955d8b" d="M 0 0 
L 0 3.5 
" style="stroke: #000000; stroke-width: 0.8"/>
      </defs>
      <g>
       <use xlink:href="#m0fd2955d8b" x="74.495197" y="301.717812" style="stroke: #000000; stroke-width: 0.8"/>
      </g>
     </g>
    </g>
    <g id="xtick_2">
     <g id="line2d_3">
      <path d="M 158.067859 301.717812 
L 158.067859 48.331875 
" clip-path="url(#p81cb411203)" style="fill: none; stroke-dasharray: 2.96,1.28; stroke-dashoffset: 0; stroke: #b0b0b0; stroke-width: 0.8"/>
     </g>
     <g id="line2d_4">
      <g>
       <use xlink:href="#m0fd2955d8b" x="158.067859" y="301.717812" style="stroke: #000000; stroke-width: 0.8"/>
      </g>
     </g>
    </g>
    <g id="xtick_3">
     <g id="line2d_5">
      <path d="M 233.552843 301.717812 
L 233.552843 48.331875 
" clip-path="url(#p81cb411203)" style="fill: none; stroke-dasharray: 2.96,1.28; stroke-dashoffset: 0; stroke: #b0b0b0; stroke-width: 0.8"/>
     </g>
     <g id="line2d_6">
      <g>
       <use xlink:href="#m0fd2955d8b" x="233.552843" y="301.717812" style="stroke: #000000; stroke-width: 0.8"/>
      </g>
     </g>
    </g>
    <g id="xtick_4">
     <g id="line2d_7">
      <path d="M 317.125504 301.717812 
L 317.125504 48.331875 
" clip-path="url(#p81cb411203)" style="fill: none; stroke-dasharray: 2.96,1.28; stroke-dashoffset: 0; stroke: #b0b0b0; stroke-width: 0.8"/>
     </g>
     <g id="line2d_8">
      <g>
       <use xlink:href="#m0fd2955d8b" x="317.125504" y="301.717812" style="stroke: #000000; stroke-width: 0.8"/>
      </g>
     </g>
    </g>
    <g id="xtick_5">
     <g id="line2d_9">
      <path d="M 398.002273 301.717812 
L 398.002273 48.331875 
" clip-path="url(#p81cb411203)" style="fill: none; stroke-dasharray: 2.96,1.28; stroke-dashoffset: 0; stroke: #b0b0b0; stroke-width: 0.8"/>
     </g>
     <g id="line2d_10">
      <g>
       <use xlink:href="#m0fd2955d8b" x="398.002273" y="301.717812" style="stroke: #000000; stroke-width: 0.8"/>
      </g>
     </g>
    </g>
    <g id="xtick_6">
     <g id="line2d_11">
      <path d="M 481.574934 301.717812 
L 481.574934 48.331875 
" clip-path="url(#p81cb411203)" style="fill: none; stroke-dasharray: 2.96,1.28; stroke-dashoffset: 0; stroke: #b0b0b0; stroke-width: 0.8"/>
     </g>
     <g id="line2d_12">
      <g>
       <use xlink:href="#m0fd2955d8b" x="481.574934" y="301.717812" style="stroke: #000000; stroke-width: 0.8"/>
      </g>
     </g>
    </g>
    <g id="xtick_7">
     <g id="line2d_13">
      <path d="M 562.451703 301.717812 
L 562.451703 48.331875 
" clip-path="url(#p81cb411203)" style="fill: none; stroke-dasharray: 2.96,1.28; stroke-dashoffset: 0; stroke: #b0b0b0; stroke-width: 0.8"/>
     </g>
     <g id="line2d_14">
      <g>
       <use xlink:href="#m0fd2955d8b" x="562.451703" y="301.717812" style="stroke: #000000; stroke-width: 0.8"/>
      </g>
     </g>
    </g>
    <g id="xtick_8">
     <g id="line2d_15">
      <path d="M 646.024364 301.717812 
L 646.024364 48.331875 
" clip-path="url(#p81cb411203)" style="fill: none; stroke-dasharray: 2.96,1.28; stroke-dashoffset: 0; stroke: #b0b0b0; stroke-width: 0.8"/>
     </g>
     <g id="line2d_16">
      <g>
       <use xlink:href="#m0fd2955d8b" x="646.024364" y="301.717812" style="stroke: #000000; stroke-width: 0.8"/>
      </g>
     </g>
    </g>
    <g id="xtick_9">
     <g id="line2d_17">
      <path d="M 729.597025 301.717812 
L 729.597025 48.331875 
" clip-path="url(#p81cb411203)" style="fill: none; stroke-dasharray: 2.96,1.28; stroke-dashoffset: 0; stroke: #b0b0b0; stroke-width: 0.8"/>
     </g>
     <g id="line2d_18">
      <g>
       <use xlink:href="#m0fd2955d8b" x="729.597025" y="301.717812" style="stroke: #000000; stroke-width: 0.8"/>
      </g>
     </g>
    </g>
    <g id="xtick_10">
     <g id="line2d_19">
      <path d="M 810.473794 301.717812 
L 810.473794 48.331875 
" clip-path="url(#p81cb411203)" style="fill: none; stroke-dasharray: 2.96,1.28; stroke-dashoffset: 0; stroke: #b0b0b0; stroke-width: 0.8"/>
     </g>
     <g id="line2d_20">
      <g>
       <use xlink:href="#m0fd2955d8b" x="810.473794" y="301.717812" style="stroke: #000000; stroke-width: 0.8"/>
      </g>
     </g>
    </g>
    <g id="xtick_11">
     <g id="line2d_21">
      <path d="M 894.046455 301.717812 
L 894.046455 48.331875 
" clip-path="url(#p81cb411203)" style="fill: none; stroke-dasharray: 2.96,1.28; stroke-dashoffset: 0; stroke: #b0b0b0; stroke-width: 0.8"/>
     </g>
     <g id="line2d_22">
      <g>
       <use xlink:href="#m0fd2955d8b" x="894.046455" y="301.717812" style="stroke: #000000; stroke-width: 0.8"/>
      </g>
     </g>
    </g>
    <g id="xtick_12">
     <g id="line2d_23">
      <path d="M 974.923224 301.717812 
L 974.923224 48.331875 
" clip-path="url(#p81cb411203)" style="fill: none; stroke-dasharray: 2.96,1.28; stroke-dashoffset: 0; stroke: #b0b0b0; stroke-width: 0.8"/>
     </g>
     <g id="line2d_24">
      <g>
       <use xlink:href="#m0fd2955d8b" x="974.923224" y="301.717812" style="stroke: #000000; stroke-width: 0.8"/>
      </g>
     </g>
    </g>
   </g>
   <g id="matplotlib.axis_2">
    <g id="ytick_1">
     <g id="line2d_25">
      <path d="M 36.8875 267.727016 
L 982.876106 267.727016 
" clip-path="url(#p81cb411203)" style="fill: none; stroke-dasharray: 2.96,1.28; stroke-dashoffset: 0; stroke: #b0b0b0; stroke-width: 0.8"/>
     </g>
     <g id="line2d_26">
      <defs>
       <path id="ma46ceaa8c5" d="M 0 0 
L -3.5 0 
" style="stroke: #000000; stroke-width: 0.8"/>
      </defs>
      <g>
       <use xlink:href="#ma46ceaa8c5" x="36.8875" y="267.727016" style="stroke: #000000; stroke-width: 0.8"/>
      </g>
     </g>
     <g id="text_1">
      <!-- 130 -->
      <g transform="translate(10.8 271.526235)scale(0.1 -0.1)">
       <defs>
        <path id="DejaVuSans-31" d="M 794 531 
L 1825 531 
L 1825 4091 
L 703 3866 
L 703 4441 
L 1819 4666 
L 2450 4666 
L 2450 531 
L 3481 531 
L 3481 0 
L 794 0 
L 794 531 
z
" transform="scale(0.015625)"/>
        <path id="DejaVuSans-33" d="M 2597 2516 
Q 3050 2419 3304 2112 
Q 3559 1806 3559 1356 
Q 3559 666 3084 287 
Q 2609 -91 1734 -91 
Q 1441 -91 1130 -33 
Q 819 25 488 141 
L 488 750 
Q 750 597 1062 519 
Q 1375 441 1716 441 
Q 2309 441 2620 675 
Q 2931 909 2931 1356 
Q 2931 1769 2642 2001 
Q 2353 2234 1838 2234 
L 1294 2234 
L 1294 2753 
L 1863 2753 
Q 2328 2753 2575 2939 
Q 2822 3125 2822 3475 
Q 2822 3834 2567 4026 
Q 2313 4219 1838 4219 
Q 1578 4219 1281 4162 
Q 984 4106 628 3988 
L 628 4550 
Q 988 4650 1302 4700 
Q 1616 4750 1894 4750 
Q 2613 4750 3031 4423 
Q 3450 4097 3450 3541 
Q 3450 3153 3228 2886 
Q 3006 2619 2597 2516 
z
" transform="scale(0.015625)"/>
        <path id="DejaVuSans-30" d="M 2034 4250 
Q 1547 4250 1301 3770 
Q 1056 3291 1056 2328 
Q 1056 1369 1301 889 
Q 1547 409 2034 409 
Q 2525 409 2770 889 
Q 3016 1369 3016 2328 
Q 3016 3291 2770 3770 
Q 2525 4250 2034 4250 
z
M 2034 4750 
Q 2819 4750 3233 4129 
Q 3647 3509 3647 2328 
Q 3647 1150 3233 529 
Q 2819 -91 2034 -91 
Q 1250 -91 836 529 
Q 422 1150 422 2328 
Q 422 3509 836 4129 
Q 1250 4750 2034 4750 
z
" transform="scale(0.015625)"/>
       </defs>
       <use xlink:href="#DejaVuSans-31"/>
       <use xlink:href="#DejaVuSans-33" x="63.623047"/>
       <use xlink:href="#DejaVuSans-30" x="127.246094"/>
      </g>
     </g>
    </g>
    <g id="ytick_2">
     <g id="line2d_27">
      <path d="M 36.8875 227.596206 
L 982.876106 227.596206 
" clip-path="url(#p81cb411203)" style="fill: none; stroke-dasharray: 2.96,1.28; stroke-dashoffset: 0; stroke: #b0b0b0; stroke-width: 0.8"/>
     </g>
     <g id="line2d_28">
      <g>
       <use xlink:href="#ma46ceaa8c5" x="36.8875" y="227.596206" style="stroke: #000000; stroke-width: 0.8"/>
      </g>
     </g>
     <g id="text_2">
      <!-- 140 -->
      <g transform="translate(10.8 231.395424)scale(0.1 -0.1)">
       <defs>
        <path id="DejaVuSans-34" d="M 2419 4116 
L 825 1625 
L 2419 1625 
L 2419 4116 
z
M 2253 4666 
L 3047 4666 
L 3047 1625 
L 3713 1625 
L 3713 1100 
L 3047 1100 
L 3047 0 
L 2419 0 
L 2419 1100 
L 313 1100 
L 313 1709 
L 2253 4666 
z
" transform="scale(0.015625)"/>
       </defs>
       <use xlink:href="#DejaVuSans-31"/>
       <use xlink:href="#DejaVuSans-34" x="63.623047"/>
       <use xlink:href="#DejaVuSans-30" x="127.246094"/>
      </g>
     </g>
    </g>
    <g id="ytick_3">
     <g id="line2d_29">
      <path d="M 36.8875 187.465395 
L 982.876106 187.465395 
" clip-path="url(#p81cb411203)" style="fill: none; stroke-dasharray: 2.96,1.28; stroke-dashoffset: 0; stroke: #b0b0b0; stroke-width: 0.8"/>
     </g>
     <g id="line2d_30">
      <g>
       <use xlink:href="#ma46ceaa8c5" x="36.8875" y="187.465395" style="stroke: #000000; stroke-width: 0.8"/>
      </g>
     </g>
     <g id="text_3">
      <!-- 150 -->
      <g transform="translate(10.8 191.264614)scale(0.1 -0.1)">
       <defs>
        <path id="DejaVuSans-35" d="M 691 4666 
L 3169 4666 
L 3169 4134 
L 1269 4134 
L 1269 2991 
Q 1406 3038 1543 3061 
Q 1681 3084 1819 3084 
Q 2600 3084 3056 2656 
Q 3513 2228 3513 1497 
Q 3513 744 3044 326 
Q 2575 -91 1722 -91 
Q 1428 -91 1123 -41 
Q 819 9 494 109 
L 494 744 
Q 775 591 1075 516 
Q 1375 441 1709 441 
Q 2250 441 2565 725 
Q 2881 1009 2881 1497 
Q 2881 1984 2565 2268 
Q 2250 2553 1709 2553 
Q 1456 2553 1204 2497 
Q 953 2441 691 2322 
L 691 4666 
z
" transform="scale(0.015625)"/>
       </defs>
       <use xlink:href="#DejaVuSans-31"/>
       <use xlink:href="#DejaVuSans-35" x="63.623047"/>
       <use xlink:href="#DejaVuSans-30" x="127.246094"/>
      </g>
     </g>
    </g>
    <g id="ytick_4">
     <g id="line2d_31">
      <path d="M 36.8875 147.334585 
L 982.876106 147.334585 
" clip-path="url(#p81cb411203)" style="fill: none; stroke-dasharray: 2.96,1.28; stroke-dashoffset: 0; stroke: #b0b0b0; stroke-width: 0.8"/>
     </g>
     <g id="line2d_32">
      <g>
       <use xlink:href="#ma46ceaa8c5" x="36.8875" y="147.334585" style="stroke: #000000; stroke-width: 0.8"/>
      </g>
     </g>
     <g id="text_4">
      <!-- 160 -->
      <g transform="translate(10.8 151.133803)scale(0.1 -0.1)">
       <defs>
        <path id="DejaVuSans-36" d="M 2113 2584 
Q 1688 2584 1439 2293 
Q 1191 2003 1191 1497 
Q 1191 994 1439 701 
Q 1688 409 2113 409 
Q 2538 409 2786 701 
Q 3034 994 3034 1497 
Q 3034 2003 2786 2293 
Q 2538 2584 2113 2584 
z
M 3366 4563 
L 3366 3988 
Q 3128 4100 2886 4159 
Q 2644 4219 2406 4219 
Q 1781 4219 1451 3797 
Q 1122 3375 1075 2522 
Q 1259 2794 1537 2939 
Q 1816 3084 2150 3084 
Q 2853 3084 3261 2657 
Q 3669 2231 3669 1497 
Q 3669 778 3244 343 
Q 2819 -91 2113 -91 
Q 1303 -91 875 529 
Q 447 1150 447 2328 
Q 447 3434 972 4092 
Q 1497 4750 2381 4750 
Q 2619 4750 2861 4703 
Q 3103 4656 3366 4563 
z
" transform="scale(0.015625)"/>
       </defs>
       <use xlink:href="#DejaVuSans-31"/>
       <use xlink:href="#DejaVuSans-36" x="63.623047"/>
       <use xlink:href="#DejaVuSans-30" x="127.246094"/>
      </g>
     </g>
    </g>
    <g id="ytick_5">
     <g id="line2d_33">
      <path d="M 36.8875 107.203774 
L 982.876106 107.203774 
" clip-path="url(#p81cb411203)" style="fill: none; stroke-dasharray: 2.96,1.28; stroke-dashoffset: 0; stroke: #b0b0b0; stroke-width: 0.8"/>
     </g>
     <g id="line2d_34">
      <g>
       <use xlink:href="#ma46ceaa8c5" x="36.8875" y="107.203774" style="stroke: #000000; stroke-width: 0.8"/>
      </g>
     </g>
     <g id="text_5">
      <!-- 170 -->
      <g transform="translate(10.8 111.002993)scale(0.1 -0.1)">
       <defs>
        <path id="DejaVuSans-37" d="M 525 4666 
L 3525 4666 
L 3525 4397 
L 1831 0 
L 1172 0 
L 2766 4134 
L 525 4134 
L 525 4666 
z
" transform="scale(0.015625)"/>
       </defs>
       <use xlink:href="#DejaVuSans-31"/>
       <use xlink:href="#DejaVuSans-37" x="63.623047"/>
       <use xlink:href="#DejaVuSans-30" x="127.246094"/>
      </g>
     </g>
    </g>
    <g id="ytick_6">
     <g id="line2d_35">
      <path d="M 36.8875 67.072964 
L 982.876106 67.072964 
" clip-path="url(#p81cb411203)" style="fill: none; stroke-dasharray: 2.96,1.28; stroke-dashoffset: 0; stroke: #b0b0b0; stroke-width: 0.8"/>
     </g>
     <g id="line2d_36">
      <g>
       <use xlink:href="#ma46ceaa8c5" x="36.8875" y="67.072964" style="stroke: #000000; stroke-width: 0.8"/>
      </g>
     </g>
     <g id="text_6">
      <!-- 180 -->
      <g transform="translate(10.8 70.872182)scale(0.1 -0.1)">
       <defs>
        <path id="DejaVuSans-38" d="M 2034 2216 
Q 1584 2216 1326 1975 
Q 1069 1734 1069 1313 
Q 1069 891 1326 650 
Q 1584 409 2034 409 
Q 2484 409 2743 651 
Q 3003 894 3003 1313 
Q 3003 1734 2745 1975 
Q 2488 2216 2034 2216 
z
M 1403 2484 
Q 997 2584 770 2862 
Q 544 3141 544 3541 
Q 544 4100 942 4425 
Q 1341 4750 2034 4750 
Q 2731 4750 3128 4425 
Q 3525 4100 3525 3541 
Q 3525 3141 3298 2862 
Q 3072 2584 2669 2484 
Q 3125 2378 3379 2068 
Q 3634 1759 3634 1313 
Q 3634 634 3220 271 
Q 2806 -91 2034 -91 
Q 1263 -91 848 271 
Q 434 634 434 1313 
Q 434 1759 690 2068 
Q 947 2378 1403 2484 
z
M 1172 3481 
Q 1172 3119 1398 2916 
Q 1625 2713 2034 2713 
Q 2441 2713 2670 2916 
Q 2900 3119 2900 3481 
Q 2900 3844 2670 4047 
Q 2441 4250 2034 4250 
Q 1625 4250 1398 4047 
Q 1172 3844 1172 3481 
z
" transform="scale(0.015625)"/>
       </defs>
       <use xlink:href="#DejaVuSans-31"/>
       <use xlink:href="#DejaVuSans-38" x="63.623047"/>
       <use xlink:href="#DejaVuSans-30" x="127.246094"/>
      </g>
     </g>
    </g>
   </g>
   <g id="line2d_37">
    <path d="M 79.886982 283.77934 
L 82.582874 256.089081 
L 85.278767 259.700854 
L 87.974659 264.115243 
L 90.670551 262.309357 
L 98.758228 260.302816 
L 101.45412 258.49693 
L 104.150013 252.276654 
L 106.845905 247.862265 
L 109.541797 246.257032 
L 117.629474 241.240681 
L 120.325366 247.661611 
L 123.021259 248.464227 
L 125.717151 248.062919 
L 128.413043 251.273384 
L 136.50072 257.293005 
L 139.196613 246.457686 
L 144.588397 247.661611 
L 147.284289 226.994243 
L 155.371966 219.369389 
L 158.067859 222.981162 
L 160.763751 222.981162 
L 163.459643 241.040027 
L 166.155535 250.872076 
L 174.243212 247.059649 
L 176.939105 247.661611 
L 179.634997 247.460957 
L 182.330889 241.842643 
L 185.026782 239.033486 
L 193.114458 257.694313 
L 195.810351 246.257032 
L 198.506243 254.885157 
L 201.202135 256.691043 
L 203.898028 258.296276 
L 211.985704 259.901508 
L 214.681597 259.299546 
L 217.377489 266.9244 
L 220.073381 290.20027 
L 222.769274 266.322438 
L 230.856951 253.681232 
L 236.248735 263.914589 
L 238.944627 259.299546 
L 241.64052 266.9244 
L 249.728197 267.526362 
L 252.424089 252.677962 
L 255.119981 261.707394 
L 257.815873 255.888427 
L 260.511766 259.901508 
L 268.599443 259.098892 
L 271.295335 263.513281 
L 273.991227 256.691043 
L 276.68712 256.089081 
L 287.470689 256.089081 
L 290.166581 256.289735 
L 292.862473 253.881886 
L 295.558366 246.056378 
L 298.254258 248.664881 
L 306.341935 248.464227 
L 309.037827 250.270113 
L 311.733719 246.457686 
L 314.429612 247.661611 
L 317.125504 215.757616 
L 325.213181 210.339957 
L 327.909073 191.077168 
L 330.604965 175.426152 
L 333.300858 173.419611 
L 335.99675 179.238579 
L 344.084427 175.024844 
L 346.780319 177.031384 
L 349.476211 171.613725 
L 362.955673 134.492725 
L 365.651565 144.726082 
L 368.347458 145.328044 
L 371.04335 136.499266 
L 373.739242 145.528698 
L 381.826919 162.985601 
L 384.522811 159.373828 
L 387.218704 164.791487 
L 389.914596 148.538509 
L 392.610488 162.584292 
L 400.698165 157.367287 
L 406.08995 152.752244 
L 408.785842 153.755514 
L 411.481734 151.347666 
L 419.569411 151.347666 
L 422.265303 165.594103 
L 424.961196 177.232038 
L 427.657088 193.284363 
L 430.35298 210.941919 
L 438.440657 194.488287 
L 441.136549 185.458854 
L 443.832442 193.485017 
L 446.528334 195.491557 
L 449.224226 189.070627 
L 457.311903 186.863433 
L 460.007795 199.905946 
L 462.703688 176.83073 
L 465.39958 170.811109 
L 468.095472 185.659509 
L 476.183149 183.853622 
L 478.879042 163.386909 
L 481.574934 160.176444 
L 484.270826 151.147012 
L 486.966718 167.39999 
L 495.054395 166.597374 
L 497.750288 158.370557 
L 500.44618 159.173174 
L 503.142072 166.798028 
L 505.837964 166.396719 
L 513.925641 191.879784 
L 516.621534 181.847082 
L 519.317426 194.889595 
L 522.013318 215.757616 
L 524.709211 225.790319 
L 532.796887 238.632178 
L 535.49278 227.79686 
L 538.188672 237.026946 
L 540.884564 241.641989 
L 543.580457 241.240681 
L 551.668133 233.615827 
L 554.364026 233.214519 
L 557.059918 220.573314 
L 559.75581 215.95827 
L 562.451703 224.987703 
L 570.53938 221.977892 
L 573.235272 224.185087 
L 575.931164 231.809941 
L 578.627056 225.790319 
L 581.322949 212.747806 
L 589.410626 208.333416 
L 592.106518 199.10333 
L 594.80241 193.083708 
L 597.498302 194.287633 
L 600.194195 188.468665 
L 608.281872 188.268011 
L 610.977764 184.455584 
L 613.673656 185.2582 
L 616.369549 184.054276 
L 619.065441 191.67913 
L 627.153118 187.064087 
L 629.84901 187.465395 
L 632.544902 188.669319 
L 635.240795 186.060817 
L 637.936687 175.626806 
L 646.024364 161.380368 
L 648.720256 149.140471 
L 651.416148 148.739163 
L 654.112041 168.603914 
L 656.807933 164.992141 
L 664.89561 149.742433 
L 670.287394 164.390179 
L 672.983287 172.817649 
L 675.679179 153.354206 
L 686.462748 152.350936 
L 689.15864 141.515617 
L 691.854533 144.12412 
L 694.550425 156.364017 
L 702.638102 161.380368 
L 708.029887 144.12412 
L 710.725779 151.748974 
L 713.421671 133.690109 
L 721.509348 143.522158 
L 724.20524 131.28226 
L 729.597025 144.525428 
L 732.292917 140.111039 
L 740.380594 129.27572 
L 743.076486 113.42405 
L 745.772379 118.039093 
L 748.468271 120.045633 
L 751.164163 120.84825 
L 759.25184 121.650866 
L 761.947732 117.637785 
L 764.643625 97.773034 
L 767.339517 86.737061 
L 770.035409 95.967147 
L 778.123086 103.190693 
L 780.818978 99.57892 
L 783.514871 112.822087 
L 786.210763 112.621433 
L 788.906655 131.482914 
L 796.994332 152.952898 
L 799.690225 151.347666 
L 802.386117 155.561401 
L 805.082009 149.140471 
L 807.777901 148.739163 
L 815.865578 145.930006 
L 818.561471 137.101228 
L 823.953255 135.696649 
L 826.649147 130.078336 
L 834.736824 131.482914 
L 837.432717 143.120849 
L 840.128609 127.269179 
L 842.824501 128.27245 
L 845.520393 126.867871 
L 853.60807 113.42405 
L 856.303963 119.443671 
L 858.999855 131.081606 
L 861.695747 119.443671 
L 864.39164 127.068525 
L 872.479316 119.443671 
L 875.175209 109.812277 
L 880.566993 104.595271 
L 883.262886 90.950796 
L 891.350562 94.763223 
L 894.046455 59.849418 
L 896.742347 63.260537 
L 899.438239 74.497163 
L 902.134132 79.312861 
L 910.221809 83.72725 
L 915.613593 93.559298 
L 918.309485 98.776304 
L 921.005378 101.384806 
L 929.093055 101.384806 
L 931.788947 98.776304 
L 934.484839 107.404428 
L 937.180731 114.026012 
L 939.876624 123.85806 
L 939.876624 123.85806 
" clip-path="url(#p81cb411203)" style="fill: none; stroke: #1f77b4; stroke-width: 1.5; stroke-linecap: square"/>
   </g>
   <g id="line2d_38">
    <path d="M 90.670551 265.198775 
L 98.758228 260.50347 
L 101.45412 260.98504 
L 104.150013 259.5002 
L 109.541797 253.039139 
L 117.629474 249.226712 
L 120.325366 247.059649 
L 123.021259 246.297163 
L 125.717151 246.337294 
L 128.413043 247.340564 
L 136.50072 250.551029 
L 139.196613 250.310244 
L 144.588397 250.149721 
L 147.284289 245.935986 
L 155.371966 239.555187 
L 158.067859 232.692818 
L 160.763751 227.997514 
L 163.459643 226.673197 
L 166.155535 231.448763 
L 174.243212 236.986815 
L 179.634997 246.818864 
L 182.330889 246.979387 
L 185.026782 244.611669 
L 193.114458 246.738602 
L 195.810351 246.457686 
L 198.506243 247.942526 
L 201.202135 250.912206 
L 203.898028 254.764764 
L 211.985704 255.206203 
L 214.681597 257.814706 
L 217.377489 260.222554 
L 220.073381 266.9244 
L 222.769274 268.529632 
L 230.856951 267.285577 
L 236.248735 268.208586 
L 238.944627 266.683615 
L 241.64052 262.028441 
L 249.728197 262.269226 
L 252.424089 262.068572 
L 255.119981 261.627133 
L 257.815873 260.944909 
L 260.511766 259.540331 
L 268.599443 257.854837 
L 271.295335 260.0219 
L 273.991227 259.01863 
L 276.68712 259.058761 
L 287.470689 258.296276 
L 290.166581 257.734444 
L 292.862473 255.808165 
L 295.558366 253.681232 
L 298.254258 252.196392 
L 306.341935 250.671422 
L 309.037827 249.467497 
L 311.733719 247.982657 
L 314.429612 248.303704 
L 317.125504 241.722251 
L 325.213181 234.097397 
L 327.909073 222.258808 
L 330.604965 208.052501 
L 333.300858 193.204101 
L 335.99675 185.900293 
L 344.084427 178.837271 
L 346.780319 176.028114 
L 349.476211 175.265629 
L 362.955673 167.480251 
L 365.651565 160.577752 
L 368.347458 154.638392 
L 371.04335 146.531968 
L 373.739242 141.314963 
L 381.826919 147.013538 
L 384.522811 149.943087 
L 387.218704 153.835776 
L 389.914596 156.243624 
L 392.610488 159.654743 
L 400.698165 158.531081 
L 406.08995 157.206764 
L 408.785842 154.999569 
L 411.481734 155.561401 
L 419.569411 153.314075 
L 422.265303 154.959438 
L 424.961196 159.855397 
L 427.657088 167.761167 
L 430.35298 179.680018 
L 438.440657 188.308142 
L 441.136549 192.281092 
L 443.832442 195.531688 
L 446.528334 195.973127 
L 449.224226 191.598868 
L 457.311903 190.073898 
L 460.007795 192.963316 
L 462.703688 189.632459 
L 465.39958 184.696369 
L 468.095472 184.014145 
L 476.183149 183.412183 
L 478.879042 176.108376 
L 481.574934 172.777518 
L 484.270826 168.844699 
L 486.966718 165.192795 
L 495.054395 161.741545 
L 497.750288 160.738275 
L 500.44618 160.537621 
L 503.142072 163.667824 
L 505.837964 163.46717 
L 513.925641 168.523652 
L 516.621534 173.218957 
L 519.317426 180.362242 
L 522.013318 190.154159 
L 524.709211 202.032879 
L 532.796887 211.383358 
L 535.49278 220.573314 
L 538.188672 229.000784 
L 540.884564 234.177658 
L 543.580457 237.267731 
L 551.668133 236.264461 
L 554.364026 237.347992 
L 557.059918 234.057266 
L 559.75581 228.920522 
L 562.451703 225.669927 
L 570.53938 223.34234 
L 573.235272 221.536453 
L 575.931164 223.783779 
L 578.627056 225.750188 
L 581.322949 223.302209 
L 589.410626 220.573314 
L 592.106518 215.556962 
L 594.80241 207.811716 
L 597.498302 201.511179 
L 600.194195 196.655351 
L 608.281872 192.64227 
L 610.977764 189.71272 
L 613.673656 188.147619 
L 616.369549 186.100947 
L 619.065441 186.74304 
L 627.153118 186.502256 
L 632.544902 187.786441 
L 635.240795 188.18775 
L 637.936687 184.977285 
L 646.024364 179.840541 
L 651.416148 164.189525 
L 654.112041 160.698144 
L 656.807933 158.571211 
L 664.89561 156.243624 
L 670.287394 159.293566 
L 672.983287 164.109263 
L 675.679179 161.059322 
L 686.462748 158.531081 
L 689.15864 156.885717 
L 691.854533 152.832506 
L 694.550425 149.541779 
L 702.638102 151.147012 
L 705.333994 151.227273 
L 708.029887 151.748974 
L 710.725779 153.273944 
L 713.421671 148.739163 
L 721.509348 145.167521 
L 724.20524 140.873524 
L 729.597025 140.953786 
L 732.292917 138.626199 
L 740.380594 137.743321 
L 743.076486 131.723699 
L 745.772379 129.075066 
L 748.468271 124.179107 
L 751.164163 120.326549 
L 759.25184 118.801578 
L 761.947732 119.644325 
L 764.643625 115.591113 
L 767.339517 108.929399 
L 770.035409 103.953178 
L 778.123086 100.261144 
L 780.818978 96.649371 
L 783.514871 99.659182 
L 786.210763 104.836056 
L 788.906655 111.93921 
L 796.994332 121.891651 
L 799.690225 132.2454 
L 802.386117 140.793262 
L 805.082009 148.09707 
L 807.777901 151.54832 
L 815.865578 150.143741 
L 818.561471 147.294454 
L 823.953255 143.321503 
L 826.649147 139.509076 
L 834.736824 136.057827 
L 837.432717 135.495995 
L 840.128609 133.529586 
L 842.824501 132.044746 
L 845.520393 131.402653 
L 853.60807 127.79088 
L 856.303963 123.055444 
L 858.999855 123.81793 
L 861.695747 122.052174 
L 864.39164 122.092305 
L 872.479316 123.296229 
L 875.175209 121.36995 
L 880.566993 116.072683 
L 883.262886 110.374108 
L 891.350562 103.913048 
L 894.046455 91.994197 
L 896.742347 82.683849 
L 899.438239 76.664227 
L 902.134132 74.33664 
L 910.221809 72.129446 
L 915.613593 78.871422 
L 918.309485 85.974575 
L 921.005378 91.352104 
L 929.093055 95.766493 
L 931.788947 98.776304 
L 934.484839 101.54533 
L 937.180731 104.595271 
L 939.876624 109.089922 
L 939.876624 109.089922 
" clip-path="url(#p81cb411203)" style="fill: none; stroke: #ff7f0e; stroke-width: 1.5; stroke-linecap: square"/>
   </g>
   <g id="patch_3">
    <path d="M 36.8875 301.717812 
L 36.8875 48.331875 
" style="fill: none; stroke: #000000; stroke-width: 0.8; stroke-linejoin: miter; stroke-linecap: square"/>
   </g>
   <g id="patch_4">
    <path d="M 982.876106 301.717812 
L 982.876106 48.331875 
" style="fill: none; stroke: #000000; stroke-width: 0.8; stroke-linejoin: miter; stroke-linecap: square"/>
   </g>
   <g id="patch_5">
    <path d="M 36.8875 301.717812 
L 982.876106 301.717812 
" style="fill: none; stroke: #000000; stroke-width: 0.8; stroke-linejoin: miter; stroke-linecap: square"/>
   </g>
   <g id="patch_6">
    <path d="M 36.8875 48.331875 
L 982.876106 48.331875 
" style="fill: none; stroke: #000000; stroke-width: 0.8; stroke-linejoin: miter; stroke-linecap: square"/>
   </g>
   <g id="text_7">
    <!-- Closing Price -->
    <g transform="translate(471.405865 42.331875)scale(0.12 -0.12)">
     <defs>
      <path id="DejaVuSans-43" d="M 4122 4306 
L 4122 3641 
Q 3803 3938 3442 4084 
Q 3081 4231 2675 4231 
Q 1875 4231 1450 3742 
Q 1025 3253 1025 2328 
Q 1025 1406 1450 917 
Q 1875 428 2675 428 
Q 3081 428 3442 575 
Q 3803 722 4122 1019 
L 4122 359 
Q 3791 134 3420 21 
Q 3050 -91 2638 -91 
Q 1578 -91 968 557 
Q 359 1206 359 2328 
Q 359 3453 968 4101 
Q 1578 4750 2638 4750 
Q 3056 4750 3426 4639 
Q 3797 4528 4122 4306 
z
" transform="scale(0.015625)"/>
      <path id="DejaVuSans-6c" d="M 603 4863 
L 1178 4863 
L 1178 0 
L 603 0 
L 603 4863 
z
" transform="scale(0.015625)"/>
      <path id="DejaVuSans-6f" d="M 1959 3097 
Q 1497 3097 1228 2736 
Q 959 2375 959 1747 
Q 959 1119 1226 758 
Q 1494 397 1959 397 
Q 2419 397 2687 759 
Q 2956 1122 2956 1747 
Q 2956 2369 2687 2733 
Q 2419 3097 1959 3097 
z
M 1959 3584 
Q 2709 3584 3137 3096 
Q 3566 2609 3566 1747 
Q 3566 888 3137 398 
Q 2709 -91 1959 -91 
Q 1206 -91 779 398 
Q 353 888 353 1747 
Q 353 2609 779 3096 
Q 1206 3584 1959 3584 
z
" transform="scale(0.015625)"/>
      <path id="DejaVuSans-73" d="M 2834 3397 
L 2834 2853 
Q 2591 2978 2328 3040 
Q 2066 3103 1784 3103 
Q 1356 3103 1142 2972 
Q 928 2841 928 2578 
Q 928 2378 1081 2264 
Q 1234 2150 1697 2047 
L 1894 2003 
Q 2506 1872 2764 1633 
Q 3022 1394 3022 966 
Q 3022 478 2636 193 
Q 2250 -91 1575 -91 
Q 1294 -91 989 -36 
Q 684 19 347 128 
L 347 722 
Q 666 556 975 473 
Q 1284 391 1588 391 
Q 1994 391 2212 530 
Q 2431 669 2431 922 
Q 2431 1156 2273 1281 
Q 2116 1406 1581 1522 
L 1381 1569 
Q 847 1681 609 1914 
Q 372 2147 372 2553 
Q 372 3047 722 3315 
Q 1072 3584 1716 3584 
Q 2034 3584 2315 3537 
Q 2597 3491 2834 3397 
z
" transform="scale(0.015625)"/>
      <path id="DejaVuSans-69" d="M 603 3500 
L 1178 3500 
L 1178 0 
L 603 0 
L 603 3500 
z
M 603 4863 
L 1178 4863 
L 1178 4134 
L 603 4134 
L 603 4863 
z
" transform="scale(0.015625)"/>
      <path id="DejaVuSans-6e" d="M 3513 2113 
L 3513 0 
L 2938 0 
L 2938 2094 
Q 2938 2591 2744 2837 
Q 2550 3084 2163 3084 
Q 1697 3084 1428 2787 
Q 1159 2491 1159 1978 
L 1159 0 
L 581 0 
L 581 3500 
L 1159 3500 
L 1159 2956 
Q 1366 3272 1645 3428 
Q 1925 3584 2291 3584 
Q 2894 3584 3203 3211 
Q 3513 2838 3513 2113 
z
" transform="scale(0.015625)"/>
      <path id="DejaVuSans-67" d="M 2906 1791 
Q 2906 2416 2648 2759 
Q 2391 3103 1925 3103 
Q 1463 3103 1205 2759 
Q 947 2416 947 1791 
Q 947 1169 1205 825 
Q 1463 481 1925 481 
Q 2391 481 2648 825 
Q 2906 1169 2906 1791 
z
M 3481 434 
Q 3481 -459 3084 -895 
Q 2688 -1331 1869 -1331 
Q 1566 -1331 1297 -1286 
Q 1028 -1241 775 -1147 
L 775 -588 
Q 1028 -725 1275 -790 
Q 1522 -856 1778 -856 
Q 2344 -856 2625 -561 
Q 2906 -266 2906 331 
L 2906 616 
Q 2728 306 2450 153 
Q 2172 0 1784 0 
Q 1141 0 747 490 
Q 353 981 353 1791 
Q 353 2603 747 3093 
Q 1141 3584 1784 3584 
Q 2172 3584 2450 3431 
Q 2728 3278 2906 2969 
L 2906 3500 
L 3481 3500 
L 3481 434 
z
" transform="scale(0.015625)"/>
      <path id="DejaVuSans-20" transform="scale(0.015625)"/>
      <path id="DejaVuSans-50" d="M 1259 4147 
L 1259 2394 
L 2053 2394 
Q 2494 2394 2734 2622 
Q 2975 2850 2975 3272 
Q 2975 3691 2734 3919 
Q 2494 4147 2053 4147 
L 1259 4147 
z
M 628 4666 
L 2053 4666 
Q 2838 4666 3239 4311 
Q 3641 3956 3641 3272 
Q 3641 2581 3239 2228 
Q 2838 1875 2053 1875 
L 1259 1875 
L 1259 0 
L 628 0 
L 628 4666 
z
" transform="scale(0.015625)"/>
      <path id="DejaVuSans-72" d="M 2631 2963 
Q 2534 3019 2420 3045 
Q 2306 3072 2169 3072 
Q 1681 3072 1420 2755 
Q 1159 2438 1159 1844 
L 1159 0 
L 581 0 
L 581 3500 
L 1159 3500 
L 1159 2956 
Q 1341 3275 1631 3429 
Q 1922 3584 2338 3584 
Q 2397 3584 2469 3576 
Q 2541 3569 2628 3553 
L 2631 2963 
z
" transform="scale(0.015625)"/>
      <path id="DejaVuSans-63" d="M 3122 3366 
L 3122 2828 
Q 2878 2963 2633 3030 
Q 2388 3097 2138 3097 
Q 1578 3097 1268 2742 
Q 959 2388 959 1747 
Q 959 1106 1268 751 
Q 1578 397 2138 397 
Q 2388 397 2633 464 
Q 2878 531 3122 666 
L 3122 134 
Q 2881 22 2623 -34 
Q 2366 -91 2075 -91 
Q 1284 -91 818 406 
Q 353 903 353 1747 
Q 353 2603 823 3093 
Q 1294 3584 2113 3584 
Q 2378 3584 2631 3529 
Q 2884 3475 3122 3366 
z
" transform="scale(0.015625)"/>
      <path id="DejaVuSans-65" d="M 3597 1894 
L 3597 1613 
L 953 1613 
Q 991 1019 1311 708 
Q 1631 397 2203 397 
Q 2534 397 2845 478 
Q 3156 559 3463 722 
L 3463 178 
Q 3153 47 2828 -22 
Q 2503 -91 2169 -91 
Q 1331 -91 842 396 
Q 353 884 353 1716 
Q 353 2575 817 3079 
Q 1281 3584 2069 3584 
Q 2775 3584 3186 3129 
Q 3597 2675 3597 1894 
z
M 3022 2063 
Q 3016 2534 2758 2815 
Q 2500 3097 2075 3097 
Q 1594 3097 1305 2825 
Q 1016 2553 972 2059 
L 3022 2063 
z
" transform="scale(0.015625)"/>
     </defs>
     <use xlink:href="#DejaVuSans-43"/>
     <use xlink:href="#DejaVuSans-6c" x="69.824219"/>
     <use xlink:href="#DejaVuSans-6f" x="97.607422"/>
     <use xlink:href="#DejaVuSans-73" x="158.789062"/>
     <use xlink:href="#DejaVuSans-69" x="210.888672"/>
     <use xlink:href="#DejaVuSans-6e" x="238.671875"/>
     <use xlink:href="#DejaVuSans-67" x="302.050781"/>
     <use xlink:href="#DejaVuSans-20" x="365.527344"/>
     <use xlink:href="#DejaVuSans-50" x="397.314453"/>
     <use xlink:href="#DejaVuSans-72" x="455.867188"/>
     <use xlink:href="#DejaVuSans-69" x="496.980469"/>
     <use xlink:href="#DejaVuSans-63" x="524.763672"/>
     <use xlink:href="#DejaVuSans-65" x="579.744141"/>
    </g>
   </g>
   <g id="legend_1">
    <g id="patch_7">
     <path d="M 43.8875 85.688125 
L 108.61875 85.688125 
Q 110.61875 85.688125 110.61875 83.688125 
L 110.61875 55.331875 
Q 110.61875 53.331875 108.61875 53.331875 
L 43.8875 53.331875 
Q 41.8875 53.331875 41.8875 55.331875 
L 41.8875 83.688125 
Q 41.8875 85.688125 43.8875 85.688125 
z
" style="fill: #ffffff; opacity: 0.8; stroke: #cccccc; stroke-linejoin: miter"/>
    </g>
    <g id="line2d_39">
     <path d="M 45.8875 61.430312 
L 55.8875 61.430312 
L 65.8875 61.430312 
" style="fill: none; stroke: #1f77b4; stroke-width: 1.5; stroke-linecap: square"/>
    </g>
    <g id="text_8">
     <!-- CLOSE -->
     <g transform="translate(73.8875 64.930312)scale(0.1 -0.1)">
      <defs>
       <path id="DejaVuSans-4c" d="M 628 4666 
L 1259 4666 
L 1259 531 
L 3531 531 
L 3531 0 
L 628 0 
L 628 4666 
z
" transform="scale(0.015625)"/>
       <path id="DejaVuSans-4f" d="M 2522 4238 
Q 1834 4238 1429 3725 
Q 1025 3213 1025 2328 
Q 1025 1447 1429 934 
Q 1834 422 2522 422 
Q 3209 422 3611 934 
Q 4013 1447 4013 2328 
Q 4013 3213 3611 3725 
Q 3209 4238 2522 4238 
z
M 2522 4750 
Q 3503 4750 4090 4092 
Q 4678 3434 4678 2328 
Q 4678 1225 4090 567 
Q 3503 -91 2522 -91 
Q 1538 -91 948 565 
Q 359 1222 359 2328 
Q 359 3434 948 4092 
Q 1538 4750 2522 4750 
z
" transform="scale(0.015625)"/>
       <path id="DejaVuSans-53" d="M 3425 4513 
L 3425 3897 
Q 3066 4069 2747 4153 
Q 2428 4238 2131 4238 
Q 1616 4238 1336 4038 
Q 1056 3838 1056 3469 
Q 1056 3159 1242 3001 
Q 1428 2844 1947 2747 
L 2328 2669 
Q 3034 2534 3370 2195 
Q 3706 1856 3706 1288 
Q 3706 609 3251 259 
Q 2797 -91 1919 -91 
Q 1588 -91 1214 -16 
Q 841 59 441 206 
L 441 856 
Q 825 641 1194 531 
Q 1563 422 1919 422 
Q 2459 422 2753 634 
Q 3047 847 3047 1241 
Q 3047 1584 2836 1778 
Q 2625 1972 2144 2069 
L 1759 2144 
Q 1053 2284 737 2584 
Q 422 2884 422 3419 
Q 422 4038 858 4394 
Q 1294 4750 2059 4750 
Q 2388 4750 2728 4690 
Q 3069 4631 3425 4513 
z
" transform="scale(0.015625)"/>
       <path id="DejaVuSans-45" d="M 628 4666 
L 3578 4666 
L 3578 4134 
L 1259 4134 
L 1259 2753 
L 3481 2753 
L 3481 2222 
L 1259 2222 
L 1259 531 
L 3634 531 
L 3634 0 
L 628 0 
L 628 4666 
z
" transform="scale(0.015625)"/>
      </defs>
      <use xlink:href="#DejaVuSans-43"/>
      <use xlink:href="#DejaVuSans-4c" x="69.824219"/>
      <use xlink:href="#DejaVuSans-4f" x="121.912109"/>
      <use xlink:href="#DejaVuSans-53" x="200.623047"/>
      <use xlink:href="#DejaVuSans-45" x="264.099609"/>
     </g>
    </g>
    <g id="line2d_40">
     <path d="M 45.8875 76.108437 
L 55.8875 76.108437 
L 65.8875 76.108437 
" style="fill: none; stroke: #ff7f0e; stroke-width: 1.5; stroke-linecap: square"/>
    </g>
    <g id="text_9">
     <!-- SMA5 -->
     <g transform="translate(73.8875 79.608437)scale(0.1 -0.1)">
      <defs>
       <path id="DejaVuSans-4d" d="M 628 4666 
L 1569 4666 
L 2759 1491 
L 3956 4666 
L 4897 4666 
L 4897 0 
L 4281 0 
L 4281 4097 
L 3078 897 
L 2444 897 
L 1241 4097 
L 1241 0 
L 628 0 
L 628 4666 
z
" transform="scale(0.015625)"/>
       <path id="DejaVuSans-41" d="M 2188 4044 
L 1331 1722 
L 3047 1722 
L 2188 4044 
z
M 1831 4666 
L 2547 4666 
L 4325 0 
L 3669 0 
L 3244 1197 
L 1141 1197 
L 716 0 
L 50 0 
L 1831 4666 
z
" transform="scale(0.015625)"/>
      </defs>
      <use xlink:href="#DejaVuSans-53"/>
      <use xlink:href="#DejaVuSans-4d" x="63.476562"/>
      <use xlink:href="#DejaVuSans-41" x="149.755859"/>
      <use xlink:href="#DejaVuSans-35" x="218.164062"/>
     </g>
    </g>
   </g>
  </g>
  <g id="axes_2">
   <g id="patch_8">
    <path d="M 36.8875 584.521875 
L 982.876106 584.521875 
L 982.876106 331.135938 
L 36.8875 331.135938 
z
" style="fill: #ffffff"/>
   </g>
   <g id="matplotlib.axis_3">
    <g id="xtick_13">
     <g id="line2d_41">
      <path d="M 74.495197 584.521875 
L 74.495197 331.135938 
" clip-path="url(#pe5acbbfbca)" style="fill: none; stroke-dasharray: 2.96,1.28; stroke-dashoffset: 0; stroke: #b0b0b0; stroke-width: 0.8"/>
     </g>
     <g id="line2d_42">
      <g>
       <use xlink:href="#m0fd2955d8b" x="74.495197" y="584.521875" style="stroke: #000000; stroke-width: 0.8"/>
      </g>
     </g>
     <g id="text_10">
      <!-- 2022-01 -->
      <g transform="translate(53.603791 599.120312)scale(0.1 -0.1)">
       <defs>
        <path id="DejaVuSans-32" d="M 1228 531 
L 3431 531 
L 3431 0 
L 469 0 
L 469 531 
Q 828 903 1448 1529 
Q 2069 2156 2228 2338 
Q 2531 2678 2651 2914 
Q 2772 3150 2772 3378 
Q 2772 3750 2511 3984 
Q 2250 4219 1831 4219 
Q 1534 4219 1204 4116 
Q 875 4013 500 3803 
L 500 4441 
Q 881 4594 1212 4672 
Q 1544 4750 1819 4750 
Q 2544 4750 2975 4387 
Q 3406 4025 3406 3419 
Q 3406 3131 3298 2873 
Q 3191 2616 2906 2266 
Q 2828 2175 2409 1742 
Q 1991 1309 1228 531 
z
" transform="scale(0.015625)"/>
        <path id="DejaVuSans-2d" d="M 313 2009 
L 1997 2009 
L 1997 1497 
L 313 1497 
L 313 2009 
z
" transform="scale(0.015625)"/>
       </defs>
       <use xlink:href="#DejaVuSans-32"/>
       <use xlink:href="#DejaVuSans-30" x="63.623047"/>
       <use xlink:href="#DejaVuSans-32" x="127.246094"/>
       <use xlink:href="#DejaVuSans-32" x="190.869141"/>
       <use xlink:href="#DejaVuSans-2d" x="254.492188"/>
       <use xlink:href="#DejaVuSans-30" x="290.576172"/>
       <use xlink:href="#DejaVuSans-31" x="354.199219"/>
      </g>
     </g>
    </g>
    <g id="xtick_14">
     <g id="line2d_43">
      <path d="M 158.067859 584.521875 
L 158.067859 331.135938 
" clip-path="url(#pe5acbbfbca)" style="fill: none; stroke-dasharray: 2.96,1.28; stroke-dashoffset: 0; stroke: #b0b0b0; stroke-width: 0.8"/>
     </g>
     <g id="line2d_44">
      <g>
       <use xlink:href="#m0fd2955d8b" x="158.067859" y="584.521875" style="stroke: #000000; stroke-width: 0.8"/>
      </g>
     </g>
     <g id="text_11">
      <!-- 2022-02 -->
      <g transform="translate(137.176452 599.120312)scale(0.1 -0.1)">
       <use xlink:href="#DejaVuSans-32"/>
       <use xlink:href="#DejaVuSans-30" x="63.623047"/>
       <use xlink:href="#DejaVuSans-32" x="127.246094"/>
       <use xlink:href="#DejaVuSans-32" x="190.869141"/>
       <use xlink:href="#DejaVuSans-2d" x="254.492188"/>
       <use xlink:href="#DejaVuSans-30" x="290.576172"/>
       <use xlink:href="#DejaVuSans-32" x="354.199219"/>
      </g>
     </g>
    </g>
    <g id="xtick_15">
     <g id="line2d_45">
      <path d="M 233.552843 584.521875 
L 233.552843 331.135938 
" clip-path="url(#pe5acbbfbca)" style="fill: none; stroke-dasharray: 2.96,1.28; stroke-dashoffset: 0; stroke: #b0b0b0; stroke-width: 0.8"/>
     </g>
     <g id="line2d_46">
      <g>
       <use xlink:href="#m0fd2955d8b" x="233.552843" y="584.521875" style="stroke: #000000; stroke-width: 0.8"/>
      </g>
     </g>
     <g id="text_12">
      <!-- 2022-03 -->
      <g transform="translate(212.661437 599.120312)scale(0.1 -0.1)">
       <use xlink:href="#DejaVuSans-32"/>
       <use xlink:href="#DejaVuSans-30" x="63.623047"/>
       <use xlink:href="#DejaVuSans-32" x="127.246094"/>
       <use xlink:href="#DejaVuSans-32" x="190.869141"/>
       <use xlink:href="#DejaVuSans-2d" x="254.492188"/>
       <use xlink:href="#DejaVuSans-30" x="290.576172"/>
       <use xlink:href="#DejaVuSans-33" x="354.199219"/>
      </g>
     </g>
    </g>
    <g id="xtick_16">
     <g id="line2d_47">
      <path d="M 317.125504 584.521875 
L 317.125504 331.135938 
" clip-path="url(#pe5acbbfbca)" style="fill: none; stroke-dasharray: 2.96,1.28; stroke-dashoffset: 0; stroke: #b0b0b0; stroke-width: 0.8"/>
     </g>
     <g id="line2d_48">
      <g>
       <use xlink:href="#m0fd2955d8b" x="317.125504" y="584.521875" style="stroke: #000000; stroke-width: 0.8"/>
      </g>
     </g>
     <g id="text_13">
      <!-- 2022-04 -->
      <g transform="translate(296.234098 599.120312)scale(0.1 -0.1)">
       <use xlink:href="#DejaVuSans-32"/>
       <use xlink:href="#DejaVuSans-30" x="63.623047"/>
       <use xlink:href="#DejaVuSans-32" x="127.246094"/>
       <use xlink:href="#DejaVuSans-32" x="190.869141"/>
       <use xlink:href="#DejaVuSans-2d" x="254.492188"/>
       <use xlink:href="#DejaVuSans-30" x="290.576172"/>
       <use xlink:href="#DejaVuSans-34" x="354.199219"/>
      </g>
     </g>
    </g>
    <g id="xtick_17">
     <g id="line2d_49">
      <path d="M 398.002273 584.521875 
L 398.002273 331.135938 
" clip-path="url(#pe5acbbfbca)" style="fill: none; stroke-dasharray: 2.96,1.28; stroke-dashoffset: 0; stroke: #b0b0b0; stroke-width: 0.8"/>
     </g>
     <g id="line2d_50">
      <g>
       <use xlink:href="#m0fd2955d8b" x="398.002273" y="584.521875" style="stroke: #000000; stroke-width: 0.8"/>
      </g>
     </g>
     <g id="text_14">
      <!-- 2022-05 -->
      <g transform="translate(377.110866 599.120312)scale(0.1 -0.1)">
       <use xlink:href="#DejaVuSans-32"/>
       <use xlink:href="#DejaVuSans-30" x="63.623047"/>
       <use xlink:href="#DejaVuSans-32" x="127.246094"/>
       <use xlink:href="#DejaVuSans-32" x="190.869141"/>
       <use xlink:href="#DejaVuSans-2d" x="254.492188"/>
       <use xlink:href="#DejaVuSans-30" x="290.576172"/>
       <use xlink:href="#DejaVuSans-35" x="354.199219"/>
      </g>
     </g>
    </g>
    <g id="xtick_18">
     <g id="line2d_51">
      <path d="M 481.574934 584.521875 
L 481.574934 331.135938 
" clip-path="url(#pe5acbbfbca)" style="fill: none; stroke-dasharray: 2.96,1.28; stroke-dashoffset: 0; stroke: #b0b0b0; stroke-width: 0.8"/>
     </g>
     <g id="line2d_52">
      <g>
       <use xlink:href="#m0fd2955d8b" x="481.574934" y="584.521875" style="stroke: #000000; stroke-width: 0.8"/>
      </g>
     </g>
     <g id="text_15">
      <!-- 2022-06 -->
      <g transform="translate(460.683528 599.120312)scale(0.1 -0.1)">
       <use xlink:href="#DejaVuSans-32"/>
       <use xlink:href="#DejaVuSans-30" x="63.623047"/>
       <use xlink:href="#DejaVuSans-32" x="127.246094"/>
       <use xlink:href="#DejaVuSans-32" x="190.869141"/>
       <use xlink:href="#DejaVuSans-2d" x="254.492188"/>
       <use xlink:href="#DejaVuSans-30" x="290.576172"/>
       <use xlink:href="#DejaVuSans-36" x="354.199219"/>
      </g>
     </g>
    </g>
    <g id="xtick_19">
     <g id="line2d_53">
      <path d="M 562.451703 584.521875 
L 562.451703 331.135938 
" clip-path="url(#pe5acbbfbca)" style="fill: none; stroke-dasharray: 2.96,1.28; stroke-dashoffset: 0; stroke: #b0b0b0; stroke-width: 0.8"/>
     </g>
     <g id="line2d_54">
      <g>
       <use xlink:href="#m0fd2955d8b" x="562.451703" y="584.521875" style="stroke: #000000; stroke-width: 0.8"/>
      </g>
     </g>
     <g id="text_16">
      <!-- 2022-07 -->
      <g transform="translate(541.560296 599.120312)scale(0.1 -0.1)">
       <use xlink:href="#DejaVuSans-32"/>
       <use xlink:href="#DejaVuSans-30" x="63.623047"/>
       <use xlink:href="#DejaVuSans-32" x="127.246094"/>
       <use xlink:href="#DejaVuSans-32" x="190.869141"/>
       <use xlink:href="#DejaVuSans-2d" x="254.492188"/>
       <use xlink:href="#DejaVuSans-30" x="290.576172"/>
       <use xlink:href="#DejaVuSans-37" x="354.199219"/>
      </g>
     </g>
    </g>
    <g id="xtick_20">
     <g id="line2d_55">
      <path d="M 646.024364 584.521875 
L 646.024364 331.135938 
" clip-path="url(#pe5acbbfbca)" style="fill: none; stroke-dasharray: 2.96,1.28; stroke-dashoffset: 0; stroke: #b0b0b0; stroke-width: 0.8"/>
     </g>
     <g id="line2d_56">
      <g>
       <use xlink:href="#m0fd2955d8b" x="646.024364" y="584.521875" style="stroke: #000000; stroke-width: 0.8"/>
      </g>
     </g>
     <g id="text_17">
      <!-- 2022-08 -->
      <g transform="translate(625.132958 599.120312)scale(0.1 -0.1)">
       <use xlink:href="#DejaVuSans-32"/>
       <use xlink:href="#DejaVuSans-30" x="63.623047"/>
       <use xlink:href="#DejaVuSans-32" x="127.246094"/>
       <use xlink:href="#DejaVuSans-32" x="190.869141"/>
       <use xlink:href="#DejaVuSans-2d" x="254.492188"/>
       <use xlink:href="#DejaVuSans-30" x="290.576172"/>
       <use xlink:href="#DejaVuSans-38" x="354.199219"/>
      </g>
     </g>
    </g>
    <g id="xtick_21">
     <g id="line2d_57">
      <path d="M 729.597025 584.521875 
L 729.597025 331.135938 
" clip-path="url(#pe5acbbfbca)" style="fill: none; stroke-dasharray: 2.96,1.28; stroke-dashoffset: 0; stroke: #b0b0b0; stroke-width: 0.8"/>
     </g>
     <g id="line2d_58">
      <g>
       <use xlink:href="#m0fd2955d8b" x="729.597025" y="584.521875" style="stroke: #000000; stroke-width: 0.8"/>
      </g>
     </g>
     <g id="text_18">
      <!-- 2022-09 -->
      <g transform="translate(708.705619 599.120312)scale(0.1 -0.1)">
       <defs>
        <path id="DejaVuSans-39" d="M 703 97 
L 703 672 
Q 941 559 1184 500 
Q 1428 441 1663 441 
Q 2288 441 2617 861 
Q 2947 1281 2994 2138 
Q 2813 1869 2534 1725 
Q 2256 1581 1919 1581 
Q 1219 1581 811 2004 
Q 403 2428 403 3163 
Q 403 3881 828 4315 
Q 1253 4750 1959 4750 
Q 2769 4750 3195 4129 
Q 3622 3509 3622 2328 
Q 3622 1225 3098 567 
Q 2575 -91 1691 -91 
Q 1453 -91 1209 -44 
Q 966 3 703 97 
z
M 1959 2075 
Q 2384 2075 2632 2365 
Q 2881 2656 2881 3163 
Q 2881 3666 2632 3958 
Q 2384 4250 1959 4250 
Q 1534 4250 1286 3958 
Q 1038 3666 1038 3163 
Q 1038 2656 1286 2365 
Q 1534 2075 1959 2075 
z
" transform="scale(0.015625)"/>
       </defs>
       <use xlink:href="#DejaVuSans-32"/>
       <use xlink:href="#DejaVuSans-30" x="63.623047"/>
       <use xlink:href="#DejaVuSans-32" x="127.246094"/>
       <use xlink:href="#DejaVuSans-32" x="190.869141"/>
       <use xlink:href="#DejaVuSans-2d" x="254.492188"/>
       <use xlink:href="#DejaVuSans-30" x="290.576172"/>
       <use xlink:href="#DejaVuSans-39" x="354.199219"/>
      </g>
     </g>
    </g>
    <g id="xtick_22">
     <g id="line2d_59">
      <path d="M 810.473794 584.521875 
L 810.473794 331.135938 
" clip-path="url(#pe5acbbfbca)" style="fill: none; stroke-dasharray: 2.96,1.28; stroke-dashoffset: 0; stroke: #b0b0b0; stroke-width: 0.8"/>
     </g>
     <g id="line2d_60">
      <g>
       <use xlink:href="#m0fd2955d8b" x="810.473794" y="584.521875" style="stroke: #000000; stroke-width: 0.8"/>
      </g>
     </g>
     <g id="text_19">
      <!-- 2022-10 -->
      <g transform="translate(789.582387 599.120312)scale(0.1 -0.1)">
       <use xlink:href="#DejaVuSans-32"/>
       <use xlink:href="#DejaVuSans-30" x="63.623047"/>
       <use xlink:href="#DejaVuSans-32" x="127.246094"/>
       <use xlink:href="#DejaVuSans-32" x="190.869141"/>
       <use xlink:href="#DejaVuSans-2d" x="254.492188"/>
       <use xlink:href="#DejaVuSans-31" x="290.576172"/>
       <use xlink:href="#DejaVuSans-30" x="354.199219"/>
      </g>
     </g>
    </g>
    <g id="xtick_23">
     <g id="line2d_61">
      <path d="M 894.046455 584.521875 
L 894.046455 331.135938 
" clip-path="url(#pe5acbbfbca)" style="fill: none; stroke-dasharray: 2.96,1.28; stroke-dashoffset: 0; stroke: #b0b0b0; stroke-width: 0.8"/>
     </g>
     <g id="line2d_62">
      <g>
       <use xlink:href="#m0fd2955d8b" x="894.046455" y="584.521875" style="stroke: #000000; stroke-width: 0.8"/>
      </g>
     </g>
     <g id="text_20">
      <!-- 2022-11 -->
      <g transform="translate(873.155049 599.120312)scale(0.1 -0.1)">
       <use xlink:href="#DejaVuSans-32"/>
       <use xlink:href="#DejaVuSans-30" x="63.623047"/>
       <use xlink:href="#DejaVuSans-32" x="127.246094"/>
       <use xlink:href="#DejaVuSans-32" x="190.869141"/>
       <use xlink:href="#DejaVuSans-2d" x="254.492188"/>
       <use xlink:href="#DejaVuSans-31" x="290.576172"/>
       <use xlink:href="#DejaVuSans-31" x="354.199219"/>
      </g>
     </g>
    </g>
    <g id="xtick_24">
     <g id="line2d_63">
      <path d="M 974.923224 584.521875 
L 974.923224 331.135938 
" clip-path="url(#pe5acbbfbca)" style="fill: none; stroke-dasharray: 2.96,1.28; stroke-dashoffset: 0; stroke: #b0b0b0; stroke-width: 0.8"/>
     </g>
     <g id="line2d_64">
      <g>
       <use xlink:href="#m0fd2955d8b" x="974.923224" y="584.521875" style="stroke: #000000; stroke-width: 0.8"/>
      </g>
     </g>
     <g id="text_21">
      <!-- 2022-12 -->
      <g transform="translate(954.031817 599.120312)scale(0.1 -0.1)">
       <use xlink:href="#DejaVuSans-32"/>
       <use xlink:href="#DejaVuSans-30" x="63.623047"/>
       <use xlink:href="#DejaVuSans-32" x="127.246094"/>
       <use xlink:href="#DejaVuSans-32" x="190.869141"/>
       <use xlink:href="#DejaVuSans-2d" x="254.492188"/>
       <use xlink:href="#DejaVuSans-31" x="290.576172"/>
       <use xlink:href="#DejaVuSans-32" x="354.199219"/>
      </g>
     </g>
    </g>
   </g>
   <g id="matplotlib.axis_4">
    <g id="ytick_7">
     <g id="line2d_65">
      <path d="M 36.8875 569.306121 
L 982.876106 569.306121 
" clip-path="url(#pe5acbbfbca)" style="fill: none; stroke-dasharray: 2.96,1.28; stroke-dashoffset: 0; stroke: #b0b0b0; stroke-width: 0.8"/>
     </g>
     <g id="line2d_66">
      <g>
       <use xlink:href="#ma46ceaa8c5" x="36.8875" y="569.306121" style="stroke: #000000; stroke-width: 0.8"/>
      </g>
     </g>
     <g id="text_22">
      <!-- −4 -->
      <g transform="translate(15.145313 573.10534)scale(0.1 -0.1)">
       <defs>
        <path id="DejaVuSans-2212" d="M 678 2272 
L 4684 2272 
L 4684 1741 
L 678 1741 
L 678 2272 
z
" transform="scale(0.015625)"/>
       </defs>
       <use xlink:href="#DejaVuSans-2212"/>
       <use xlink:href="#DejaVuSans-34" x="83.789062"/>
      </g>
     </g>
    </g>
    <g id="ytick_8">
     <g id="line2d_67">
      <path d="M 36.8875 528.474125 
L 982.876106 528.474125 
" clip-path="url(#pe5acbbfbca)" style="fill: none; stroke-dasharray: 2.96,1.28; stroke-dashoffset: 0; stroke: #b0b0b0; stroke-width: 0.8"/>
     </g>
     <g id="line2d_68">
      <g>
       <use xlink:href="#ma46ceaa8c5" x="36.8875" y="528.474125" style="stroke: #000000; stroke-width: 0.8"/>
      </g>
     </g>
     <g id="text_23">
      <!-- −2 -->
      <g transform="translate(15.145313 532.273344)scale(0.1 -0.1)">
       <use xlink:href="#DejaVuSans-2212"/>
       <use xlink:href="#DejaVuSans-32" x="83.789062"/>
      </g>
     </g>
    </g>
    <g id="ytick_9">
     <g id="line2d_69">
      <path d="M 36.8875 487.642129 
L 982.876106 487.642129 
" clip-path="url(#pe5acbbfbca)" style="fill: none; stroke-dasharray: 2.96,1.28; stroke-dashoffset: 0; stroke: #b0b0b0; stroke-width: 0.8"/>
     </g>
     <g id="line2d_70">
      <g>
       <use xlink:href="#ma46ceaa8c5" x="36.8875" y="487.642129" style="stroke: #000000; stroke-width: 0.8"/>
      </g>
     </g>
     <g id="text_24">
      <!-- 0 -->
      <g transform="translate(23.525 491.441348)scale(0.1 -0.1)">
       <use xlink:href="#DejaVuSans-30"/>
      </g>
     </g>
    </g>
    <g id="ytick_10">
     <g id="line2d_71">
      <path d="M 36.8875 446.810134 
L 982.876106 446.810134 
" clip-path="url(#pe5acbbfbca)" style="fill: none; stroke-dasharray: 2.96,1.28; stroke-dashoffset: 0; stroke: #b0b0b0; stroke-width: 0.8"/>
     </g>
     <g id="line2d_72">
      <g>
       <use xlink:href="#ma46ceaa8c5" x="36.8875" y="446.810134" style="stroke: #000000; stroke-width: 0.8"/>
      </g>
     </g>
     <g id="text_25">
      <!-- 2 -->
      <g transform="translate(23.525 450.609352)scale(0.1 -0.1)">
       <use xlink:href="#DejaVuSans-32"/>
      </g>
     </g>
    </g>
    <g id="ytick_11">
     <g id="line2d_73">
      <path d="M 36.8875 405.978138 
L 982.876106 405.978138 
" clip-path="url(#pe5acbbfbca)" style="fill: none; stroke-dasharray: 2.96,1.28; stroke-dashoffset: 0; stroke: #b0b0b0; stroke-width: 0.8"/>
     </g>
     <g id="line2d_74">
      <g>
       <use xlink:href="#ma46ceaa8c5" x="36.8875" y="405.978138" style="stroke: #000000; stroke-width: 0.8"/>
      </g>
     </g>
     <g id="text_26">
      <!-- 4 -->
      <g transform="translate(23.525 409.777357)scale(0.1 -0.1)">
       <use xlink:href="#DejaVuSans-34"/>
      </g>
     </g>
    </g>
    <g id="ytick_12">
     <g id="line2d_75">
      <path d="M 36.8875 365.146142 
L 982.876106 365.146142 
" clip-path="url(#pe5acbbfbca)" style="fill: none; stroke-dasharray: 2.96,1.28; stroke-dashoffset: 0; stroke: #b0b0b0; stroke-width: 0.8"/>
     </g>
     <g id="line2d_76">
      <g>
       <use xlink:href="#ma46ceaa8c5" x="36.8875" y="365.146142" style="stroke: #000000; stroke-width: 0.8"/>
      </g>
     </g>
     <g id="text_27">
      <!-- 6 -->
      <g transform="translate(23.525 368.945361)scale(0.1 -0.1)">
       <use xlink:href="#DejaVuSans-36"/>
      </g>
     </g>
    </g>
   </g>
   <g id="line2d_77">
    <path d="M 79.886982 487.642129 
L 82.582874 484.481576 
L 85.278767 484.184746 
L 87.974659 484.945297 
L 90.670551 485.049764 
L 98.758228 484.72479 
L 101.45412 484.150437 
L 104.150013 482.316436 
L 106.845905 480.013254 
L 109.541797 478.069785 
L 117.629474 475.440055 
L 120.325366 475.472428 
L 125.717151 476.234311 
L 128.413043 477.609853 
L 136.50072 480.637036 
L 139.196613 479.621344 
L 144.588397 479.32812 
L 147.284289 472.459141 
L 155.371966 464.819584 
L 158.067859 460.406229 
L 160.763751 457.313889 
L 163.459643 461.516775 
L 166.155535 468.528092 
L 174.243212 472.857017 
L 176.939105 476.615168 
L 179.634997 479.599792 
L 182.330889 479.976956 
L 185.026782 479.33017 
L 193.114458 485.816807 
L 195.810351 486.648677 
L 198.506243 490.541226 
L 201.202135 494.230533 
L 203.898028 497.647077 
L 211.985704 500.814876 
L 214.681597 502.91083 
L 217.377489 507.304882 
L 220.073381 519.497527 
L 222.769274 519.426417 
L 230.856951 514.093183 
L 236.248735 513.604727 
L 238.944627 511.119933 
L 241.64052 511.895388 
L 249.728197 512.461388 
L 252.424089 506.76912 
L 255.119981 505.658667 
L 257.815873 502.280132 
L 260.511766 501.057855 
L 268.599443 499.628392 
L 271.295335 500.127843 
L 273.991227 497.65837 
L 276.68712 495.369517 
L 287.470689 493.488417 
L 290.166581 492.028419 
L 292.862473 489.870679 
L 295.558366 485.018822 
L 298.254258 482.294486 
L 306.341935 480.140858 
L 309.037827 479.265024 
L 311.733719 477.141529 
L 314.429612 476.082288 
L 317.125504 462.538684 
L 325.213181 450.032468 
L 327.909073 432.899464 
L 330.604965 413.789835 
L 333.300858 398.851895 
L 335.99675 390.510826 
L 344.084427 383.382455 
L 349.476211 376.029467 
L 362.955673 359.344711 
L 365.651565 351.874049 
L 368.347458 347.812756 
L 371.04335 342.65348 
L 373.739242 343.918341 
L 381.826919 353.613429 
L 384.522811 361.274923 
L 387.218704 370.911548 
L 389.914596 373.210206 
L 392.610488 382.004556 
L 406.08995 391.937377 
L 408.785842 396.531044 
L 411.481734 400.192786 
L 419.569411 404.058411 
L 422.265303 413.814152 
L 424.961196 427.016517 
L 427.657088 444.558695 
L 430.35298 465.952348 
L 438.440657 476.289489 
L 441.136549 480.856376 
L 443.832442 487.766432 
L 446.528334 493.992549 
L 449.224226 496.194085 
L 457.311903 496.926264 
L 460.007795 502.684088 
L 462.703688 497.664118 
L 465.39958 491.175161 
L 468.095472 492.074156 
L 476.183149 491.995409 
L 478.879042 483.581351 
L 481.574934 475.733022 
L 484.270826 466.056615 
L 486.966718 465.315307 
L 495.054395 464.663329 
L 497.750288 461.076604 
L 500.44618 458.894899 
L 503.142072 460.606891 
L 505.837964 462.093469 
L 513.925641 473.889082 
L 516.621534 479.216542 
L 519.317426 488.778639 
L 524.709211 521.094665 
L 532.796887 538.749645 
L 535.49278 547.602688 
L 538.188672 557.600913 
L 540.884564 566.509727 
L 543.580457 572.427921 
L 551.668133 573.004332 
L 554.364026 572.320286 
L 557.059918 565.689571 
L 559.75581 557.732346 
L 562.451703 554.363467 
L 570.53938 549.742274 
L 573.235272 546.309677 
L 575.931164 546.045967 
L 578.627056 542.730961 
L 581.322949 534.213141 
L 589.410626 525.217497 
L 594.80241 502.460561 
L 597.498302 493.742744 
L 600.194195 484.48159 
L 608.281872 477.180291 
L 610.977764 470.031971 
L 613.673656 464.957841 
L 616.369549 460.752319 
L 619.065441 460.858158 
L 627.153118 459.373428 
L 629.84901 458.695189 
L 632.544902 458.982266 
L 635.240795 458.475202 
L 637.936687 454.175948 
L 646.024364 445.407421 
L 648.720256 434.051551 
L 651.416148 425.602363 
L 654.112041 427.751254 
L 656.807933 428.651626 
L 664.89561 423.840577 
L 670.287394 426.74276 
L 672.983287 433.130649 
L 675.679179 430.857837 
L 686.462748 429.317105 
L 689.15864 424.377388 
L 691.854533 422.286807 
L 694.550425 426.360963 
L 702.638102 432.2871 
L 705.333994 434.05938 
L 708.029887 432.557016 
L 710.725779 435.10208 
L 713.421671 430.36603 
L 721.509348 431.29829 
L 724.20524 427.703494 
L 729.597025 430.944572 
L 732.292917 432.338519 
L 740.380594 429.663603 
L 743.076486 421.795535 
L 745.772379 418.2544 
L 748.468271 417.085061 
L 751.164163 417.298707 
L 759.25184 418.593453 
L 761.947732 418.766111 
L 764.643625 411.624605 
L 767.339517 402.416989 
L 770.035409 399.920107 
L 778.123086 401.895067 
L 780.818978 402.953813 
L 783.514871 410.122886 
L 786.210763 416.541661 
L 788.906655 430.035415 
L 796.994332 449.977078 
L 799.690225 465.378669 
L 802.386117 479.409214 
L 805.082009 487.889827 
L 807.777901 494.368497 
L 815.865578 498.227686 
L 818.561471 497.547657 
L 823.953255 496.331969 
L 826.649147 493.0004 
L 834.736824 490.899153 
L 837.432717 493.938775 
L 840.128609 489.815416 
L 845.520393 484.173459 
L 853.60807 476.56822 
L 856.303963 473.178837 
L 858.999855 475.411178 
L 861.695747 472.576531 
L 864.39164 473.621731 
L 872.479316 471.506006 
L 875.175209 466.123572 
L 880.566993 460.034576 
L 883.262886 450.041282 
L 891.350562 444.187472 
L 894.046455 425.927315 
L 896.742347 413.708558 
L 899.438239 409.53816 
L 902.134132 409.11518 
L 910.221809 411.470169 
L 915.613593 418.173437 
L 921.005378 434.485172 
L 929.093055 441.477065 
L 931.788947 446.422535 
L 934.484839 454.268477 
L 937.180731 463.483142 
L 939.876624 474.968061 
L 939.876624 474.968061 
" clip-path="url(#pe5acbbfbca)" style="fill: none; stroke: #1f77b4; stroke-width: 1.5; stroke-linecap: square"/>
   </g>
   <g id="line2d_78">
    <path d="M 79.886982 487.642129 
L 82.582874 485.886266 
L 85.278767 485.188922 
L 90.670551 485.089547 
L 98.758228 484.990678 
L 101.45412 484.778035 
L 104.150013 484.186467 
L 106.845905 483.222434 
L 109.541797 482.067941 
L 117.629474 480.617798 
L 120.325366 479.512788 
L 123.021259 478.745768 
L 125.717151 478.220369 
L 128.413043 478.093813 
L 139.196613 478.822647 
L 144.588397 478.925596 
L 147.284289 477.613394 
L 155.371966 475.024788 
L 160.763751 469.099921 
L 163.459643 467.574286 
L 166.155535 467.765952 
L 174.243212 468.788027 
L 176.939105 470.3582 
L 179.634997 472.210998 
L 182.330889 473.7672 
L 185.026782 474.881518 
L 193.114458 477.071287 
L 195.810351 478.988664 
L 198.506243 481.301008 
L 201.202135 483.888553 
L 203.898028 486.641654 
L 211.985704 489.477449 
L 214.681597 492.164997 
L 217.377489 495.193761 
L 220.073381 500.055524 
L 222.769274 503.930346 
L 230.856951 505.963184 
L 241.64052 508.953025 
L 249.728197 509.654736 
L 255.119981 508.39378 
L 260.511766 505.948357 
L 268.599443 504.684341 
L 271.295335 503.773028 
L 273.991227 502.550083 
L 276.68712 501.113957 
L 287.470689 499.588837 
L 290.166581 498.076745 
L 292.862473 496.435524 
L 298.254258 491.78063 
L 306.341935 489.45267 
L 311.733719 485.360412 
L 314.429612 483.504785 
L 317.125504 479.311561 
L 325.213181 473.455738 
L 327.909073 465.344478 
L 330.604965 455.033544 
L 333.300858 443.79721 
L 335.99675 433.139929 
L 344.084427 423.188432 
L 346.780319 414.510243 
L 349.476211 406.814086 
L 362.955673 397.32021 
L 365.651565 388.230977 
L 368.347458 380.147332 
L 371.04335 372.648561 
L 373.739242 366.902517 
L 381.826919 364.244699 
L 384.522811 363.650744 
L 387.218704 365.102905 
L 389.914596 366.724365 
L 392.610488 369.780403 
L 400.698165 373.421402 
L 406.08995 377.124597 
L 411.481734 384.843266 
L 419.569411 388.686295 
L 422.265303 393.711867 
L 424.961196 400.372797 
L 427.657088 409.209976 
L 430.35298 420.558451 
L 438.440657 431.704658 
L 441.136549 441.535002 
L 443.832442 450.781288 
L 446.528334 459.42354 
L 449.224226 466.777649 
L 457.311903 472.807372 
L 460.007795 478.782715 
L 462.703688 482.558996 
L 465.39958 484.282229 
L 468.095472 485.840614 
L 476.183149 487.071573 
L 478.879042 486.373529 
L 481.574934 484.245427 
L 484.270826 480.607665 
L 486.966718 477.549193 
L 495.054395 474.97202 
L 500.44618 469.533329 
L 503.142072 467.748042 
L 505.837964 466.617127 
L 513.925641 468.071518 
L 516.621534 470.300523 
L 519.317426 473.996146 
L 522.013318 480.141894 
L 524.709211 488.332449 
L 532.796887 498.415888 
L 540.884564 527.80017 
L 543.580457 536.72572 
L 551.668133 543.981443 
L 554.364026 549.649211 
L 557.059918 552.857283 
L 559.75581 553.832296 
L 562.451703 553.93853 
L 570.53938 553.099279 
L 573.235272 551.741358 
L 575.931164 550.60228 
L 578.627056 549.028016 
L 581.322949 546.065041 
L 589.410626 541.895532 
L 592.106518 536.315571 
L 594.80241 529.544569 
L 597.498302 522.384204 
L 600.194195 514.803681 
L 608.281872 507.279003 
L 610.977764 499.829597 
L 613.673656 492.855245 
L 616.369549 486.43466 
L 619.065441 481.31936 
L 627.153118 476.930173 
L 629.84901 473.283177 
L 632.544902 470.422994 
L 635.240795 468.033436 
L 637.936687 465.261938 
L 646.024364 461.291035 
L 648.720256 455.843138 
L 651.416148 449.794983 
L 654.112041 445.386237 
L 656.807933 442.039315 
L 670.287394 436.068206 
L 672.983287 435.480695 
L 675.679179 434.556123 
L 686.462748 433.50832 
L 691.854533 429.803068 
L 694.550425 429.114647 
L 702.638102 429.749137 
L 705.333994 430.611186 
L 708.029887 431.000352 
L 710.725779 431.820698 
L 713.421671 431.529764 
L 721.509348 431.483469 
L 724.20524 430.727474 
L 729.597025 430.770894 
L 732.292917 431.084419 
L 740.380594 430.800256 
L 743.076486 428.999312 
L 745.772379 426.850329 
L 748.468271 424.897276 
L 751.164163 423.377562 
L 759.25184 422.42074 
L 761.947732 421.689814 
L 764.643625 419.676773 
L 767.339517 416.224816 
L 770.035409 412.963874 
L 778.123086 410.750113 
L 780.818978 409.190853 
L 783.514871 409.377259 
L 786.210763 410.81014 
L 788.906655 414.655195 
L 796.994332 421.719571 
L 799.690225 430.451391 
L 805.082009 449.77233 
L 807.777901 458.691563 
L 815.865578 466.598788 
L 818.561471 472.788562 
L 823.953255 477.497243 
L 826.649147 480.597874 
L 834.736824 482.65813 
L 837.432717 484.914259 
L 840.128609 485.894491 
L 842.824501 486.109043 
L 845.520393 485.721926 
L 853.60807 483.891185 
L 856.303963 481.748716 
L 858.999855 480.481208 
L 861.695747 478.900273 
L 864.39164 477.844564 
L 872.479316 476.576853 
L 875.175209 474.486197 
L 880.566993 471.595872 
L 883.262886 467.284954 
L 891.350562 462.665458 
L 894.046455 455.317829 
L 896.742347 446.995975 
L 899.438239 439.504412 
L 902.134132 433.426566 
L 910.221809 429.035286 
L 915.613593 426.862916 
L 918.309485 426.757166 
L 921.005378 428.302767 
L 929.093055 430.937627 
L 931.788947 434.034608 
L 934.484839 438.081382 
L 937.180731 443.161734 
L 939.876624 449.522999 
L 939.876624 449.522999 
" clip-path="url(#pe5acbbfbca)" style="fill: none; stroke: #ff7f0e; stroke-width: 1.5; stroke-linecap: square"/>
   </g>
   <g id="patch_9">
    <path d="M 36.8875 584.521875 
L 36.8875 331.135938 
" style="fill: none; stroke: #000000; stroke-width: 0.8; stroke-linejoin: miter; stroke-linecap: square"/>
   </g>
   <g id="patch_10">
    <path d="M 982.876106 584.521875 
L 982.876106 331.135938 
" style="fill: none; stroke: #000000; stroke-width: 0.8; stroke-linejoin: miter; stroke-linecap: square"/>
   </g>
   <g id="patch_11">
    <path d="M 36.8875 584.521875 
L 982.876106 584.521875 
" style="fill: none; stroke: #000000; stroke-width: 0.8; stroke-linejoin: miter; stroke-linecap: square"/>
   </g>
   <g id="patch_12">
    <path d="M 36.8875 331.135938 
L 982.876106 331.135938 
" style="fill: none; stroke: #000000; stroke-width: 0.8; stroke-linejoin: miter; stroke-linecap: square"/>
   </g>
   <g id="text_28">
    <!-- MACD -->
    <g transform="translate(491.895865 325.135938)scale(0.12 -0.12)">
     <defs>
      <path id="DejaVuSans-44" d="M 1259 4147 
L 1259 519 
L 2022 519 
Q 2988 519 3436 956 
Q 3884 1394 3884 2338 
Q 3884 3275 3436 3711 
Q 2988 4147 2022 4147 
L 1259 4147 
z
M 628 4666 
L 1925 4666 
Q 3281 4666 3915 4102 
Q 4550 3538 4550 2338 
Q 4550 1131 3912 565 
Q 3275 0 1925 0 
L 628 0 
L 628 4666 
z
" transform="scale(0.015625)"/>
     </defs>
     <use xlink:href="#DejaVuSans-4d"/>
     <use xlink:href="#DejaVuSans-41" x="86.279297"/>
     <use xlink:href="#DejaVuSans-43" x="152.9375"/>
     <use xlink:href="#DejaVuSans-44" x="222.761719"/>
    </g>
   </g>
   <g id="legend_2">
    <g id="patch_13">
     <path d="M 913.899543 368.492188 
L 975.876106 368.492188 
Q 977.876106 368.492188 977.876106 366.492188 
L 977.876106 338.135938 
Q 977.876106 336.135938 975.876106 336.135938 
L 913.899543 336.135938 
Q 911.899543 336.135938 911.899543 338.135938 
L 911.899543 366.492188 
Q 911.899543 368.492188 913.899543 368.492188 
z
" style="fill: #ffffff; opacity: 0.8; stroke: #cccccc; stroke-linejoin: miter"/>
    </g>
    <g id="line2d_79">
     <path d="M 915.899543 344.234375 
L 925.899543 344.234375 
L 935.899543 344.234375 
" style="fill: none; stroke: #1f77b4; stroke-width: 1.5; stroke-linecap: square"/>
    </g>
    <g id="text_29">
     <!-- MACD -->
     <g transform="translate(943.899543 347.734375)scale(0.1 -0.1)">
      <use xlink:href="#DejaVuSans-4d"/>
      <use xlink:href="#DejaVuSans-41" x="86.279297"/>
      <use xlink:href="#DejaVuSans-43" x="152.9375"/>
      <use xlink:href="#DejaVuSans-44" x="222.761719"/>
     </g>
    </g>
    <g id="line2d_80">
     <path d="M 915.899543 358.9125 
L 925.899543 358.9125 
L 935.899543 358.9125 
" style="fill: none; stroke: #ff7f0e; stroke-width: 1.5; stroke-linecap: square"/>
    </g>
    <g id="text_30">
     <!-- SIG -->
     <g transform="translate(943.899543 362.4125)scale(0.1 -0.1)">
      <defs>
       <path id="DejaVuSans-49" d="M 628 4666 
L 1259 4666 
L 1259 0 
L 628 0 
L 628 4666 
z
" transform="scale(0.015625)"/>
       <path id="DejaVuSans-47" d="M 3809 666 
L 3809 1919 
L 2778 1919 
L 2778 2438 
L 4434 2438 
L 4434 434 
Q 4069 175 3628 42 
Q 3188 -91 2688 -91 
Q 1594 -91 976 548 
Q 359 1188 359 2328 
Q 359 3472 976 4111 
Q 1594 4750 2688 4750 
Q 3144 4750 3555 4637 
Q 3966 4525 4313 4306 
L 4313 3634 
Q 3963 3931 3569 4081 
Q 3175 4231 2741 4231 
Q 1884 4231 1454 3753 
Q 1025 3275 1025 2328 
Q 1025 1384 1454 906 
Q 1884 428 2741 428 
Q 3075 428 3337 486 
Q 3600 544 3809 666 
z
" transform="scale(0.015625)"/>
      </defs>
      <use xlink:href="#DejaVuSans-53"/>
      <use xlink:href="#DejaVuSans-49" x="63.476562"/>
      <use xlink:href="#DejaVuSans-47" x="92.96875"/>
     </g>
    </g>
   </g>
  </g>
  <g id="text_31">
   <!-- NTPC Limited -->
   <g transform="translate(463.757812 21.358125)scale(0.12 -0.12)">
    <defs>
     <path id="DejaVuSans-4e" d="M 628 4666 
L 1478 4666 
L 3547 763 
L 3547 4666 
L 4159 4666 
L 4159 0 
L 3309 0 
L 1241 3903 
L 1241 0 
L 628 0 
L 628 4666 
z
" transform="scale(0.015625)"/>
     <path id="DejaVuSans-54" d="M -19 4666 
L 3928 4666 
L 3928 4134 
L 2272 4134 
L 2272 0 
L 1638 0 
L 1638 4134 
L -19 4134 
L -19 4666 
z
" transform="scale(0.015625)"/>
     <path id="DejaVuSans-6d" d="M 3328 2828 
Q 3544 3216 3844 3400 
Q 4144 3584 4550 3584 
Q 5097 3584 5394 3201 
Q 5691 2819 5691 2113 
L 5691 0 
L 5113 0 
L 5113 2094 
Q 5113 2597 4934 2840 
Q 4756 3084 4391 3084 
Q 3944 3084 3684 2787 
Q 3425 2491 3425 1978 
L 3425 0 
L 2847 0 
L 2847 2094 
Q 2847 2600 2669 2842 
Q 2491 3084 2119 3084 
Q 1678 3084 1418 2786 
Q 1159 2488 1159 1978 
L 1159 0 
L 581 0 
L 581 3500 
L 1159 3500 
L 1159 2956 
Q 1356 3278 1631 3431 
Q 1906 3584 2284 3584 
Q 2666 3584 2933 3390 
Q 3200 3197 3328 2828 
z
" transform="scale(0.015625)"/>
     <path id="DejaVuSans-74" d="M 1172 4494 
L 1172 3500 
L 2356 3500 
L 2356 3053 
L 1172 3053 
L 1172 1153 
Q 1172 725 1289 603 
Q 1406 481 1766 481 
L 2356 481 
L 2356 0 
L 1766 0 
Q 1100 0 847 248 
Q 594 497 594 1153 
L 594 3053 
L 172 3053 
L 172 3500 
L 594 3500 
L 594 4494 
L 1172 4494 
z
" transform="scale(0.015625)"/>
     <path id="DejaVuSans-64" d="M 2906 2969 
L 2906 4863 
L 3481 4863 
L 3481 0 
L 2906 0 
L 2906 525 
Q 2725 213 2448 61 
Q 2172 -91 1784 -91 
Q 1150 -91 751 415 
Q 353 922 353 1747 
Q 353 2572 751 3078 
Q 1150 3584 1784 3584 
Q 2172 3584 2448 3432 
Q 2725 3281 2906 2969 
z
M 947 1747 
Q 947 1113 1208 752 
Q 1469 391 1925 391 
Q 2381 391 2643 752 
Q 2906 1113 2906 1747 
Q 2906 2381 2643 2742 
Q 2381 3103 1925 3103 
Q 1469 3103 1208 2742 
Q 947 2381 947 1747 
z
" transform="scale(0.015625)"/>
    </defs>
    <use xlink:href="#DejaVuSans-4e"/>
    <use xlink:href="#DejaVuSans-54" x="74.804688"/>
    <use xlink:href="#DejaVuSans-50" x="135.888672"/>
    <use xlink:href="#DejaVuSans-43" x="196.191406"/>
    <use xlink:href="#DejaVuSans-20" x="266.015625"/>
    <use xlink:href="#DejaVuSans-4c" x="297.802734"/>
    <use xlink:href="#DejaVuSans-69" x="353.515625"/>
    <use xlink:href="#DejaVuSans-6d" x="381.298828"/>
    <use xlink:href="#DejaVuSans-69" x="478.710938"/>
    <use xlink:href="#DejaVuSans-74" x="506.494141"/>
    <use xlink:href="#DejaVuSans-65" x="545.703125"/>
    <use xlink:href="#DejaVuSans-64" x="607.226562"/>
   </g>
  </g>
 </g>
 <defs>
  <clipPath id="p81cb411203">
   <rect x="36.8875" y="48.331875" width="945.988606" height="253.385938"/>
  </clipPath>
  <clipPath id="pe5acbbfbca">
   <rect x="36.8875" y="331.135938" width="945.988606" height="253.385937"/>
  </clipPath>
 </defs>
</svg>
