<?xml version="1.0" encoding="utf-8" standalone="no"?>
<!DOCTYPE svg PUBLIC "-//W3C//DTD SVG 1.1//EN"
  "http://www.w3.org/Graphics/SVG/1.1/DTD/svg11.dtd">
<svg xmlns:xlink="http://www.w3.org/1999/xlink" width="1008pt" height="612pt" viewBox="0 0 1008 612" xmlns="http://www.w3.org/2000/svg" version="1.1">
 <metadata>
  <rdf:RDF xmlns:dc="http://purl.org/dc/elements/1.1/" xmlns:cc="http://creativecommons.org/ns#" xmlns:rdf="http://www.w3.org/1999/02/22-rdf-syntax-ns#">
   <cc:Work>
    <dc:type rdf:resource="http://purl.org/dc/dcmitype/StillImage"/>
    <dc:date>2022-11-20T19:47:04.359333</dc:date>
    <dc:format>image/svg+xml</dc:format>
    <dc:creator>
     <cc:Agent>
      <dc:title>Matplotlib v3.5.2, https://matplotlib.org/</dc:title>
     </cc:Agent>
    </dc:creator>
   </cc:Work>
  </rdf:RDF>
 </metadata>
 <defs>
  <style type="text/css">*{stroke-linejoin: round; stroke-linecap: butt}</style>
 </defs>
 <g id="figure_1">
  <g id="patch_1">
   <path d="M 0 612 
L 1008 612 
L 1008 0 
L 0 0 
z
" style="fill: #ffffff"/>
  </g>
  <g id="axes_1">
   <g id="patch_2">
    <path d="M 38.904688 301.717812 
L 982.876106 301.717812 
L 982.876106 48.331875 
L 38.904688 48.331875 
z
" style="fill: #ffffff"/>
   </g>
   <g id="matplotlib.axis_1">
    <g id="xtick_1">
     <g id="line2d_1">
      <path d="M 76.432192 301.717812 
L 76.432192 48.331875 
" clip-path="url(#pcda30c6dc5)" style="fill: none; stroke-dasharray: 2.96,1.28; stroke-dashoffset: 0; stroke: #b0b0b0; stroke-width: 0.8"/>
     </g>
     <g id="line2d_2">
      <defs>
       <path id="m0b82b87d63" d="M 0 0 
L 0 3.5 
" style="stroke: #000000; stroke-width: 0.8"/>
      </defs>
      <g>
       <use xlink:href="#m0b82b87d63" x="76.432192" y="301.717812" style="stroke: #000000; stroke-width: 0.8"/>
      </g>
     </g>
    </g>
    <g id="xtick_2">
     <g id="line2d_3">
      <path d="M 159.826646 301.717812 
L 159.826646 48.331875 
" clip-path="url(#pcda30c6dc5)" style="fill: none; stroke-dasharray: 2.96,1.28; stroke-dashoffset: 0; stroke: #b0b0b0; stroke-width: 0.8"/>
     </g>
     <g id="line2d_4">
      <g>
       <use xlink:href="#m0b82b87d63" x="159.826646" y="301.717812" style="stroke: #000000; stroke-width: 0.8"/>
      </g>
     </g>
    </g>
    <g id="xtick_3">
     <g id="line2d_5">
      <path d="M 235.150669 301.717812 
L 235.150669 48.331875 
" clip-path="url(#pcda30c6dc5)" style="fill: none; stroke-dasharray: 2.96,1.28; stroke-dashoffset: 0; stroke: #b0b0b0; stroke-width: 0.8"/>
     </g>
     <g id="line2d_6">
      <g>
       <use xlink:href="#m0b82b87d63" x="235.150669" y="301.717812" style="stroke: #000000; stroke-width: 0.8"/>
      </g>
     </g>
    </g>
    <g id="xtick_4">
     <g id="line2d_7">
      <path d="M 318.545123 301.717812 
L 318.545123 48.331875 
" clip-path="url(#pcda30c6dc5)" style="fill: none; stroke-dasharray: 2.96,1.28; stroke-dashoffset: 0; stroke: #b0b0b0; stroke-width: 0.8"/>
     </g>
     <g id="line2d_8">
      <g>
       <use xlink:href="#m0b82b87d63" x="318.545123" y="301.717812" style="stroke: #000000; stroke-width: 0.8"/>
      </g>
     </g>
    </g>
    <g id="xtick_5">
     <g id="line2d_9">
      <path d="M 399.249434 301.717812 
L 399.249434 48.331875 
" clip-path="url(#pcda30c6dc5)" style="fill: none; stroke-dasharray: 2.96,1.28; stroke-dashoffset: 0; stroke: #b0b0b0; stroke-width: 0.8"/>
     </g>
     <g id="line2d_10">
      <g>
       <use xlink:href="#m0b82b87d63" x="399.249434" y="301.717812" style="stroke: #000000; stroke-width: 0.8"/>
      </g>
     </g>
    </g>
    <g id="xtick_6">
     <g id="line2d_11">
      <path d="M 482.643888 301.717812 
L 482.643888 48.331875 
" clip-path="url(#pcda30c6dc5)" style="fill: none; stroke-dasharray: 2.96,1.28; stroke-dashoffset: 0; stroke: #b0b0b0; stroke-width: 0.8"/>
     </g>
     <g id="line2d_12">
      <g>
       <use xlink:href="#m0b82b87d63" x="482.643888" y="301.717812" style="stroke: #000000; stroke-width: 0.8"/>
      </g>
     </g>
    </g>
    <g id="xtick_7">
     <g id="line2d_13">
      <path d="M 563.348198 301.717812 
L 563.348198 48.331875 
" clip-path="url(#pcda30c6dc5)" style="fill: none; stroke-dasharray: 2.96,1.28; stroke-dashoffset: 0; stroke: #b0b0b0; stroke-width: 0.8"/>
     </g>
     <g id="line2d_14">
      <g>
       <use xlink:href="#m0b82b87d63" x="563.348198" y="301.717812" style="stroke: #000000; stroke-width: 0.8"/>
      </g>
     </g>
    </g>
    <g id="xtick_8">
     <g id="line2d_15">
      <path d="M 646.742653 301.717812 
L 646.742653 48.331875 
" clip-path="url(#pcda30c6dc5)" style="fill: none; stroke-dasharray: 2.96,1.28; stroke-dashoffset: 0; stroke: #b0b0b0; stroke-width: 0.8"/>
     </g>
     <g id="line2d_16">
      <g>
       <use xlink:href="#m0b82b87d63" x="646.742653" y="301.717812" style="stroke: #000000; stroke-width: 0.8"/>
      </g>
     </g>
    </g>
    <g id="xtick_9">
     <g id="line2d_17">
      <path d="M 730.137107 301.717812 
L 730.137107 48.331875 
" clip-path="url(#pcda30c6dc5)" style="fill: none; stroke-dasharray: 2.96,1.28; stroke-dashoffset: 0; stroke: #b0b0b0; stroke-width: 0.8"/>
     </g>
     <g id="line2d_18">
      <g>
       <use xlink:href="#m0b82b87d63" x="730.137107" y="301.717812" style="stroke: #000000; stroke-width: 0.8"/>
      </g>
     </g>
    </g>
    <g id="xtick_10">
     <g id="line2d_19">
      <path d="M 810.841417 301.717812 
L 810.841417 48.331875 
" clip-path="url(#pcda30c6dc5)" style="fill: none; stroke-dasharray: 2.96,1.28; stroke-dashoffset: 0; stroke: #b0b0b0; stroke-width: 0.8"/>
     </g>
     <g id="line2d_20">
      <g>
       <use xlink:href="#m0b82b87d63" x="810.841417" y="301.717812" style="stroke: #000000; stroke-width: 0.8"/>
      </g>
     </g>
    </g>
    <g id="xtick_11">
     <g id="line2d_21">
      <path d="M 894.235872 301.717812 
L 894.235872 48.331875 
" clip-path="url(#pcda30c6dc5)" style="fill: none; stroke-dasharray: 2.96,1.28; stroke-dashoffset: 0; stroke: #b0b0b0; stroke-width: 0.8"/>
     </g>
     <g id="line2d_22">
      <g>
       <use xlink:href="#m0b82b87d63" x="894.235872" y="301.717812" style="stroke: #000000; stroke-width: 0.8"/>
      </g>
     </g>
    </g>
    <g id="xtick_12">
     <g id="line2d_23">
      <path d="M 974.940182 301.717812 
L 974.940182 48.331875 
" clip-path="url(#pcda30c6dc5)" style="fill: none; stroke-dasharray: 2.96,1.28; stroke-dashoffset: 0; stroke: #b0b0b0; stroke-width: 0.8"/>
     </g>
     <g id="line2d_24">
      <g>
       <use xlink:href="#m0b82b87d63" x="974.940182" y="301.717812" style="stroke: #000000; stroke-width: 0.8"/>
      </g>
     </g>
    </g>
   </g>
   <g id="matplotlib.axis_2">
    <g id="ytick_1">
     <g id="line2d_25">
      <path d="M 38.904688 265.654387 
L 982.876106 265.654387 
" clip-path="url(#pcda30c6dc5)" style="fill: none; stroke-dasharray: 2.96,1.28; stroke-dashoffset: 0; stroke: #b0b0b0; stroke-width: 0.8"/>
     </g>
     <g id="line2d_26">
      <defs>
       <path id="m63fa9259d3" d="M 0 0 
L -3.5 0 
" style="stroke: #000000; stroke-width: 0.8"/>
      </defs>
      <g>
       <use xlink:href="#m63fa9259d3" x="38.904688" y="265.654387" style="stroke: #000000; stroke-width: 0.8"/>
      </g>
     </g>
     <g id="text_1">
      <!-- 350 -->
      <g transform="translate(12.817187 269.453606)scale(0.1 -0.1)">
       <defs>
        <path id="DejaVuSans-33" d="M 2597 2516 
Q 3050 2419 3304 2112 
Q 3559 1806 3559 1356 
Q 3559 666 3084 287 
Q 2609 -91 1734 -91 
Q 1441 -91 1130 -33 
Q 819 25 488 141 
L 488 750 
Q 750 597 1062 519 
Q 1375 441 1716 441 
Q 2309 441 2620 675 
Q 2931 909 2931 1356 
Q 2931 1769 2642 2001 
Q 2353 2234 1838 2234 
L 1294 2234 
L 1294 2753 
L 1863 2753 
Q 2328 2753 2575 2939 
Q 2822 3125 2822 3475 
Q 2822 3834 2567 4026 
Q 2313 4219 1838 4219 
Q 1578 4219 1281 4162 
Q 984 4106 628 3988 
L 628 4550 
Q 988 4650 1302 4700 
Q 1616 4750 1894 4750 
Q 2613 4750 3031 4423 
Q 3450 4097 3450 3541 
Q 3450 3153 3228 2886 
Q 3006 2619 2597 2516 
z
" transform="scale(0.015625)"/>
        <path id="DejaVuSans-35" d="M 691 4666 
L 3169 4666 
L 3169 4134 
L 1269 4134 
L 1269 2991 
Q 1406 3038 1543 3061 
Q 1681 3084 1819 3084 
Q 2600 3084 3056 2656 
Q 3513 2228 3513 1497 
Q 3513 744 3044 326 
Q 2575 -91 1722 -91 
Q 1428 -91 1123 -41 
Q 819 9 494 109 
L 494 744 
Q 775 591 1075 516 
Q 1375 441 1709 441 
Q 2250 441 2565 725 
Q 2881 1009 2881 1497 
Q 2881 1984 2565 2268 
Q 2250 2553 1709 2553 
Q 1456 2553 1204 2497 
Q 953 2441 691 2322 
L 691 4666 
z
" transform="scale(0.015625)"/>
        <path id="DejaVuSans-30" d="M 2034 4250 
Q 1547 4250 1301 3770 
Q 1056 3291 1056 2328 
Q 1056 1369 1301 889 
Q 1547 409 2034 409 
Q 2525 409 2770 889 
Q 3016 1369 3016 2328 
Q 3016 3291 2770 3770 
Q 2525 4250 2034 4250 
z
M 2034 4750 
Q 2819 4750 3233 4129 
Q 3647 3509 3647 2328 
Q 3647 1150 3233 529 
Q 2819 -91 2034 -91 
Q 1250 -91 836 529 
Q 422 1150 422 2328 
Q 422 3509 836 4129 
Q 1250 4750 2034 4750 
z
" transform="scale(0.015625)"/>
       </defs>
       <use xlink:href="#DejaVuSans-33"/>
       <use xlink:href="#DejaVuSans-35" x="63.623047"/>
       <use xlink:href="#DejaVuSans-30" x="127.246094"/>
      </g>
     </g>
    </g>
    <g id="ytick_2">
     <g id="line2d_27">
      <path d="M 38.904688 229.073341 
L 982.876106 229.073341 
" clip-path="url(#pcda30c6dc5)" style="fill: none; stroke-dasharray: 2.96,1.28; stroke-dashoffset: 0; stroke: #b0b0b0; stroke-width: 0.8"/>
     </g>
     <g id="line2d_28">
      <g>
       <use xlink:href="#m63fa9259d3" x="38.904688" y="229.073341" style="stroke: #000000; stroke-width: 0.8"/>
      </g>
     </g>
     <g id="text_2">
      <!-- 400 -->
      <g transform="translate(12.817187 232.872559)scale(0.1 -0.1)">
       <defs>
        <path id="DejaVuSans-34" d="M 2419 4116 
L 825 1625 
L 2419 1625 
L 2419 4116 
z
M 2253 4666 
L 3047 4666 
L 3047 1625 
L 3713 1625 
L 3713 1100 
L 3047 1100 
L 3047 0 
L 2419 0 
L 2419 1100 
L 313 1100 
L 313 1709 
L 2253 4666 
z
" transform="scale(0.015625)"/>
       </defs>
       <use xlink:href="#DejaVuSans-34"/>
       <use xlink:href="#DejaVuSans-30" x="63.623047"/>
       <use xlink:href="#DejaVuSans-30" x="127.246094"/>
      </g>
     </g>
    </g>
    <g id="ytick_3">
     <g id="line2d_29">
      <path d="M 38.904688 192.492294 
L 982.876106 192.492294 
" clip-path="url(#pcda30c6dc5)" style="fill: none; stroke-dasharray: 2.96,1.28; stroke-dashoffset: 0; stroke: #b0b0b0; stroke-width: 0.8"/>
     </g>
     <g id="line2d_30">
      <g>
       <use xlink:href="#m63fa9259d3" x="38.904688" y="192.492294" style="stroke: #000000; stroke-width: 0.8"/>
      </g>
     </g>
     <g id="text_3">
      <!-- 450 -->
      <g transform="translate(12.817187 196.291512)scale(0.1 -0.1)">
       <use xlink:href="#DejaVuSans-34"/>
       <use xlink:href="#DejaVuSans-35" x="63.623047"/>
       <use xlink:href="#DejaVuSans-30" x="127.246094"/>
      </g>
     </g>
    </g>
    <g id="ytick_4">
     <g id="line2d_31">
      <path d="M 38.904688 155.911247 
L 982.876106 155.911247 
" clip-path="url(#pcda30c6dc5)" style="fill: none; stroke-dasharray: 2.96,1.28; stroke-dashoffset: 0; stroke: #b0b0b0; stroke-width: 0.8"/>
     </g>
     <g id="line2d_32">
      <g>
       <use xlink:href="#m63fa9259d3" x="38.904688" y="155.911247" style="stroke: #000000; stroke-width: 0.8"/>
      </g>
     </g>
     <g id="text_4">
      <!-- 500 -->
      <g transform="translate(12.817187 159.710465)scale(0.1 -0.1)">
       <use xlink:href="#DejaVuSans-35"/>
       <use xlink:href="#DejaVuSans-30" x="63.623047"/>
       <use xlink:href="#DejaVuSans-30" x="127.246094"/>
      </g>
     </g>
    </g>
    <g id="ytick_5">
     <g id="line2d_33">
      <path d="M 38.904688 119.3302 
L 982.876106 119.3302 
" clip-path="url(#pcda30c6dc5)" style="fill: none; stroke-dasharray: 2.96,1.28; stroke-dashoffset: 0; stroke: #b0b0b0; stroke-width: 0.8"/>
     </g>
     <g id="line2d_34">
      <g>
       <use xlink:href="#m63fa9259d3" x="38.904688" y="119.3302" style="stroke: #000000; stroke-width: 0.8"/>
      </g>
     </g>
     <g id="text_5">
      <!-- 550 -->
      <g transform="translate(12.817187 123.129419)scale(0.1 -0.1)">
       <use xlink:href="#DejaVuSans-35"/>
       <use xlink:href="#DejaVuSans-35" x="63.623047"/>
       <use xlink:href="#DejaVuSans-30" x="127.246094"/>
      </g>
     </g>
    </g>
    <g id="ytick_6">
     <g id="line2d_35">
      <path d="M 38.904688 82.749153 
L 982.876106 82.749153 
" clip-path="url(#pcda30c6dc5)" style="fill: none; stroke-dasharray: 2.96,1.28; stroke-dashoffset: 0; stroke: #b0b0b0; stroke-width: 0.8"/>
     </g>
     <g id="line2d_36">
      <g>
       <use xlink:href="#m63fa9259d3" x="38.904688" y="82.749153" style="stroke: #000000; stroke-width: 0.8"/>
      </g>
     </g>
     <g id="text_6">
      <!-- 600 -->
      <g transform="translate(12.817187 86.548372)scale(0.1 -0.1)">
       <defs>
        <path id="DejaVuSans-36" d="M 2113 2584 
Q 1688 2584 1439 2293 
Q 1191 2003 1191 1497 
Q 1191 994 1439 701 
Q 1688 409 2113 409 
Q 2538 409 2786 701 
Q 3034 994 3034 1497 
Q 3034 2003 2786 2293 
Q 2538 2584 2113 2584 
z
M 3366 4563 
L 3366 3988 
Q 3128 4100 2886 4159 
Q 2644 4219 2406 4219 
Q 1781 4219 1451 3797 
Q 1122 3375 1075 2522 
Q 1259 2794 1537 2939 
Q 1816 3084 2150 3084 
Q 2853 3084 3261 2657 
Q 3669 2231 3669 1497 
Q 3669 778 3244 343 
Q 2819 -91 2113 -91 
Q 1303 -91 875 529 
Q 447 1150 447 2328 
Q 447 3434 972 4092 
Q 1497 4750 2381 4750 
Q 2619 4750 2861 4703 
Q 3103 4656 3366 4563 
z
" transform="scale(0.015625)"/>
       </defs>
       <use xlink:href="#DejaVuSans-36"/>
       <use xlink:href="#DejaVuSans-30" x="63.623047"/>
       <use xlink:href="#DejaVuSans-30" x="127.246094"/>
      </g>
     </g>
    </g>
   </g>
   <g id="line2d_37">
    <path d="M 81.812479 171.970326 
L 84.502623 173.396987 
L 87.192767 173.945703 
L 89.88291 171.202124 
L 92.573054 160.666783 
L 100.643485 161.105755 
L 103.333629 165.897873 
L 106.023772 157.41107 
L 108.713916 150.42409 
L 111.40406 151.265454 
L 119.474491 151.558102 
L 122.164634 158.837731 
L 124.854778 152.399466 
L 127.544922 153.423736 
L 130.235066 151.009386 
L 138.305497 171.714259 
L 140.99564 166.336845 
L 146.375928 163.849334 
L 149.066071 162.971389 
L 157.136502 163.922496 
L 159.826646 147.863416 
L 162.51679 145.705135 
L 165.206933 146.656242 
L 167.897077 137.51098 
L 175.967508 139.376614 
L 178.657652 136.303806 
L 181.347796 124.963681 
L 184.037939 121.342157 
L 186.728083 124.671033 
L 194.798514 140.364302 
L 197.488658 131.145878 
L 200.178801 134.474753 
L 202.868945 132.096985 
L 205.559089 134.255267 
L 213.62952 147.131795 
L 216.319663 144.058988 
L 219.009807 142.229935 
L 221.699951 142.998137 
L 224.390094 131.109297 
L 237.840813 82.675991 
L 240.530957 78.139941 
L 243.2211 94.601412 
L 251.291531 68.299639 
L 253.981675 90.101943 
L 256.671819 91.492023 
L 259.361962 87.285203 
L 262.052106 90.723821 
L 270.122537 89.480066 
L 272.812681 112.196896 
L 275.502824 102.722405 
L 278.192968 99.722759 
L 288.953543 90.101943 
L 291.643687 87.54127 
L 294.33383 76.566956 
L 297.023974 66.690073 
L 299.714118 66.141358 
L 307.784549 60.654201 
L 310.474692 59.849418 
L 315.85498 105.063592 
L 318.545123 104.331971 
L 326.615554 91.894415 
L 329.305698 92.369968 
L 331.995842 96.467046 
L 334.685985 101.222582 
L 337.376129 96.101235 
L 345.44656 100.051988 
L 348.136704 124.9271 
L 350.826848 121.707968 
L 364.277566 122.732237 
L 366.96771 126.061112 
L 369.657853 122.988305 
L 372.347997 126.463504 
L 375.038141 145.55881 
L 383.108572 159.203541 
L 385.798715 160.703364 
L 388.488859 161.544728 
L 391.179003 164.251725 
L 393.869146 168.60487 
L 401.939578 167.324533 
L 407.319865 183.96891 
L 410.010009 184.005491 
L 412.700152 197.064925 
L 420.770583 196.808857 
L 423.460727 212.246059 
L 426.150871 212.575288 
L 428.841014 224.793358 
L 431.531158 237.852792 
L 439.601589 235.69451 
L 442.291733 208.295306 
L 444.981876 202.661825 
L 447.67202 216.635785 
L 450.362164 207.783171 
L 458.432595 219.452525 
L 461.122739 228.488044 
L 463.812882 231.377946 
L 466.503026 223.330116 
L 469.19317 222.379009 
L 477.263601 216.81869 
L 479.953744 212.575288 
L 482.643888 221.281578 
L 485.334032 221.830293 
L 488.024175 224.134899 
L 496.094606 222.379009 
L 498.78475 226.000533 
L 501.474894 226.512667 
L 504.165037 229.256246 
L 506.855181 239.498939 
L 514.925612 253.619223 
L 517.615756 259.581934 
L 520.3059 260.16723 
L 522.996043 275.823918 
L 525.686187 277.579809 
L 533.756618 286.505584 
L 536.446762 273.519313 
L 539.136905 290.20027 
L 541.827049 289.358906 
L 544.517193 285.920287 
L 552.587624 280.323387 
L 555.277767 270.373342 
L 557.967911 269.93437 
L 560.658055 273.958285 
L 563.348198 272.129233 
L 571.41863 272.604786 
L 574.108773 269.129587 
L 576.798917 272.275557 
L 579.489061 257.131003 
L 582.179204 260.130649 
L 590.249635 261.118338 
L 592.939779 267.922412 
L 595.629923 266.45917 
L 598.320066 266.312846 
L 601.01021 265.251996 
L 609.080641 253.143669 
L 611.770785 252.521792 
L 614.460928 251.497522 
L 617.151072 246.668824 
L 619.841216 242.791233 
L 627.911647 238.547832 
L 630.601791 242.31568 
L 633.291934 237.377238 
L 635.982078 234.63366 
L 638.672222 218.062445 
L 646.742653 211.514438 
L 649.432796 215.611515 
L 652.12294 218.647742 
L 654.813084 213.197166 
L 657.503227 221.171834 
L 665.573658 213.416652 
L 670.953946 199.735341 
L 673.64409 204.564039 
L 676.334233 202.552082 
L 687.094808 207.929495 
L 689.784952 200.576705 
L 692.475095 201.235164 
L 695.165239 209.063508 
L 703.23567 215.538353 
L 705.925814 208.661116 
L 708.615957 207.966076 
L 711.306101 205.112755 
L 713.996245 199.771922 
L 722.066676 206.978388 
L 724.756819 200.540124 
L 730.137107 213.014261 
L 732.827251 218.172189 
L 740.897682 207.636847 
L 743.587825 206.429673 
L 746.277969 205.039593 
L 748.968113 214.03853 
L 751.658256 210.051196 
L 759.728687 206.283348 
L 765.108975 198.345261 
L 767.799118 211.22179 
L 770.489262 219.928079 
L 778.559693 220.184146 
L 781.249837 213.380071 
L 783.939981 220.769443 
L 786.630124 220.220727 
L 789.320268 231.743757 
L 797.390699 248.534457 
L 800.080843 248.388133 
L 802.770986 257.789462 
L 805.46113 250.144024 
L 808.151274 235.987158 
L 816.221705 243.010719 
L 818.911848 233.426485 
L 824.292136 219.818336 
L 826.982279 220.952348 
L 835.05271 223.586183 
L 837.742854 231.963243 
L 840.432998 228.927016 
L 843.123142 227.939328 
L 845.813285 231.15846 
L 853.883716 237.633306 
L 856.57386 233.865458 
L 859.264004 236.170064 
L 861.954147 232.585121 
L 864.644291 233.645971 
L 872.714722 232.329054 
L 875.404866 230.243934 
L 880.785153 220.001241 
L 883.475297 225.451817 
L 891.545728 224.939682 
L 894.235872 218.537999 
L 896.926015 213.489815 
L 899.616159 221.501064 
L 902.306303 206.722321 
L 910.376734 201.637555 
L 915.757021 216.562622 
L 918.447165 218.025864 
L 921.137308 207.234456 
L 929.207739 188.431797 
L 931.897883 187.444109 
L 934.588027 194.394508 
L 937.27817 199.479274 
L 939.968314 200.832772 
L 939.968314 200.832772 
" clip-path="url(#pcda30c6dc5)" style="fill: none; stroke: #1f77b4; stroke-width: 1.5; stroke-linecap: square"/>
   </g>
   <g id="line2d_38">
    <path d="M 92.573054 170.236385 
L 100.643485 168.063471 
L 103.333629 166.563648 
L 106.023772 163.256721 
L 108.713916 159.101114 
L 111.40406 157.220848 
L 119.474491 155.311318 
L 122.164634 153.899289 
L 124.854778 152.896968 
L 127.544922 153.496898 
L 130.235066 153.445684 
L 138.305497 157.476916 
L 140.99564 158.976738 
L 146.375928 161.266712 
L 149.066071 163.176243 
L 157.136502 165.758865 
L 159.826646 160.988696 
L 162.51679 156.862354 
L 165.206933 153.423736 
L 167.897077 148.331654 
L 175.967508 143.422477 
L 178.657652 141.110555 
L 181.347796 136.962264 
L 184.037939 131.899448 
L 186.728083 129.331458 
L 194.798514 129.528996 
L 197.488658 128.49741 
L 200.178801 130.399625 
L 202.868945 132.55059 
L 205.559089 134.467437 
L 213.62952 135.820936 
L 216.319663 138.403558 
L 219.009807 139.954594 
L 221.699951 142.134824 
L 224.390094 141.50563 
L 232.460525 132.470112 
L 237.840813 120.193513 
L 240.530957 107.375514 
L 243.2211 97.696169 
L 251.291531 85.134237 
L 253.981675 82.763785 
L 259.361962 86.356044 
L 262.052106 85.580526 
L 270.122537 89.816611 
L 272.812681 94.235602 
L 275.502824 96.481678 
L 278.192968 98.969189 
L 288.953543 98.844814 
L 291.643687 98.457055 
L 297.023974 84.1246 
L 299.714118 77.40832 
L 307.784549 71.518772 
L 310.474692 65.980401 
L 313.164836 67.246105 
L 318.545123 82.558932 
L 326.615554 88.806974 
L 329.305698 95.311084 
L 331.995842 98.025398 
L 334.685985 97.257196 
L 337.376129 95.611049 
L 345.44656 97.242564 
L 348.136704 103.75399 
L 350.826848 108.802175 
L 364.277566 113.104106 
L 366.96771 119.096081 
L 369.657853 123.683344 
L 372.347997 123.990625 
L 375.038141 128.760794 
L 383.108572 136.055054 
L 385.798715 142.983505 
L 391.179003 158.252434 
L 393.869146 162.861646 
L 401.939578 164.485844 
L 407.319865 169.138953 
L 410.010009 173.631106 
L 412.700152 180.193746 
L 420.770583 185.834543 
L 423.460727 194.818848 
L 426.150871 200.540124 
L 431.531158 216.855271 
L 439.601589 224.632401 
L 442.291733 223.842251 
L 444.981876 221.859558 
L 447.67202 220.228043 
L 450.362164 214.214119 
L 458.432595 210.965722 
L 461.122739 215.00427 
L 463.812882 220.747494 
L 466.503026 222.086361 
L 469.19317 225.005528 
L 477.263601 224.478761 
L 479.953744 221.29621 
L 482.643888 219.276936 
L 485.334032 218.976972 
L 496.094606 220.440213 
L 498.78475 223.125262 
L 501.474894 224.17148 
L 504.165037 225.656671 
L 506.855181 228.729479 
L 514.925612 234.977521 
L 520.3059 248.424714 
L 522.996043 257.738249 
L 525.686187 265.354423 
L 533.756618 271.931695 
L 536.446762 274.719171 
L 539.136905 280.725779 
L 541.827049 283.432776 
L 544.517193 285.100872 
L 552.587624 283.864433 
L 555.277767 283.235239 
L 557.967911 279.182059 
L 560.658055 276.101934 
L 563.348198 273.343723 
L 571.41863 271.800003 
L 574.108773 271.551252 
L 576.798917 272.01949 
L 579.489061 268.654033 
L 582.179204 266.254317 
L 590.249635 263.957027 
L 592.939779 263.715592 
L 595.629923 262.552315 
L 598.320066 264.388683 
L 601.01021 265.412953 
L 609.080641 263.818019 
L 614.460928 257.745565 
L 617.151072 253.816761 
L 619.841216 249.324608 
L 627.911647 246.405441 
L 630.601791 244.364218 
L 633.291934 241.540161 
L 635.982078 239.133128 
L 638.672222 234.187371 
L 646.742653 228.780692 
L 649.432796 223.439859 
L 652.12294 219.69396 
L 654.813084 215.406661 
L 657.503227 216.028539 
L 665.573658 216.408982 
L 670.953946 213.233747 
L 673.64409 210.417007 
L 676.334233 208.28799 
L 687.094808 205.639522 
L 689.784952 203.071532 
L 692.475095 203.371497 
L 703.23567 206.868645 
L 705.925814 207.014969 
L 708.615957 208.492844 
L 711.306101 209.268362 
L 713.996245 207.410045 
L 722.066676 205.698052 
L 724.756819 204.073853 
L 730.137107 205.08349 
L 732.827251 207.695377 
L 740.897682 209.268362 
L 743.587825 209.158619 
L 746.277969 210.058512 
L 748.968113 210.263366 
L 751.658256 208.639168 
L 759.728687 208.368468 
L 762.418831 207.53442 
L 765.108975 206.195554 
L 767.799118 205.632206 
L 770.489262 207.607582 
L 778.559693 210.387742 
L 781.249837 212.611869 
L 783.939981 217.096706 
L 786.630124 218.896493 
L 789.320268 221.259629 
L 797.390699 226.929691 
L 800.080843 233.931304 
L 802.770986 241.335307 
L 805.46113 247.319967 
L 808.151274 248.168647 
L 816.221705 247.063899 
L 818.911848 244.07157 
L 824.292136 236.477344 
L 826.982279 230.639009 
L 835.05271 228.158814 
L 837.742854 225.949319 
L 840.432998 225.049425 
L 843.123142 226.673624 
L 845.813285 228.714846 
L 853.883716 231.524271 
L 856.57386 231.904714 
L 859.264004 233.353323 
L 861.954147 234.282482 
L 864.644291 234.779984 
L 872.714722 233.719133 
L 875.404866 232.994829 
L 880.785153 229.761064 
L 883.475297 228.334403 
L 891.545728 226.593146 
L 894.235872 223.834935 
L 896.926015 220.484111 
L 899.616159 220.784075 
L 902.306303 217.038176 
L 910.376734 212.377751 
L 915.757021 211.982675 
L 918.447165 212.889885 
L 921.137308 210.036564 
L 929.207739 206.378459 
L 931.897883 203.53977 
L 934.588027 199.106147 
L 937.27817 195.396829 
L 939.968314 194.116492 
L 939.968314 194.116492 
" clip-path="url(#pcda30c6dc5)" style="fill: none; stroke: #ff7f0e; stroke-width: 1.5; stroke-linecap: square"/>
   </g>
   <g id="patch_3">
    <path d="M 38.904688 301.717812 
L 38.904688 48.331875 
" style="fill: none; stroke: #000000; stroke-width: 0.8; stroke-linejoin: miter; stroke-linecap: square"/>
   </g>
   <g id="patch_4">
    <path d="M 982.876106 301.717812 
L 982.876106 48.331875 
" style="fill: none; stroke: #000000; stroke-width: 0.8; stroke-linejoin: miter; stroke-linecap: square"/>
   </g>
   <g id="patch_5">
    <path d="M 38.904687 301.717812 
L 982.876106 301.717812 
" style="fill: none; stroke: #000000; stroke-width: 0.8; stroke-linejoin: miter; stroke-linecap: square"/>
   </g>
   <g id="patch_6">
    <path d="M 38.904687 48.331875 
L 982.876106 48.331875 
" style="fill: none; stroke: #000000; stroke-width: 0.8; stroke-linejoin: miter; stroke-linecap: square"/>
   </g>
   <g id="text_7">
    <!-- Closing Price -->
    <g transform="translate(472.414459 42.331875)scale(0.12 -0.12)">
     <defs>
      <path id="DejaVuSans-43" d="M 4122 4306 
L 4122 3641 
Q 3803 3938 3442 4084 
Q 3081 4231 2675 4231 
Q 1875 4231 1450 3742 
Q 1025 3253 1025 2328 
Q 1025 1406 1450 917 
Q 1875 428 2675 428 
Q 3081 428 3442 575 
Q 3803 722 4122 1019 
L 4122 359 
Q 3791 134 3420 21 
Q 3050 -91 2638 -91 
Q 1578 -91 968 557 
Q 359 1206 359 2328 
Q 359 3453 968 4101 
Q 1578 4750 2638 4750 
Q 3056 4750 3426 4639 
Q 3797 4528 4122 4306 
z
" transform="scale(0.015625)"/>
      <path id="DejaVuSans-6c" d="M 603 4863 
L 1178 4863 
L 1178 0 
L 603 0 
L 603 4863 
z
" transform="scale(0.015625)"/>
      <path id="DejaVuSans-6f" d="M 1959 3097 
Q 1497 3097 1228 2736 
Q 959 2375 959 1747 
Q 959 1119 1226 758 
Q 1494 397 1959 397 
Q 2419 397 2687 759 
Q 2956 1122 2956 1747 
Q 2956 2369 2687 2733 
Q 2419 3097 1959 3097 
z
M 1959 3584 
Q 2709 3584 3137 3096 
Q 3566 2609 3566 1747 
Q 3566 888 3137 398 
Q 2709 -91 1959 -91 
Q 1206 -91 779 398 
Q 353 888 353 1747 
Q 353 2609 779 3096 
Q 1206 3584 1959 3584 
z
" transform="scale(0.015625)"/>
      <path id="DejaVuSans-73" d="M 2834 3397 
L 2834 2853 
Q 2591 2978 2328 3040 
Q 2066 3103 1784 3103 
Q 1356 3103 1142 2972 
Q 928 2841 928 2578 
Q 928 2378 1081 2264 
Q 1234 2150 1697 2047 
L 1894 2003 
Q 2506 1872 2764 1633 
Q 3022 1394 3022 966 
Q 3022 478 2636 193 
Q 2250 -91 1575 -91 
Q 1294 -91 989 -36 
Q 684 19 347 128 
L 347 722 
Q 666 556 975 473 
Q 1284 391 1588 391 
Q 1994 391 2212 530 
Q 2431 669 2431 922 
Q 2431 1156 2273 1281 
Q 2116 1406 1581 1522 
L 1381 1569 
Q 847 1681 609 1914 
Q 372 2147 372 2553 
Q 372 3047 722 3315 
Q 1072 3584 1716 3584 
Q 2034 3584 2315 3537 
Q 2597 3491 2834 3397 
z
" transform="scale(0.015625)"/>
      <path id="DejaVuSans-69" d="M 603 3500 
L 1178 3500 
L 1178 0 
L 603 0 
L 603 3500 
z
M 603 4863 
L 1178 4863 
L 1178 4134 
L 603 4134 
L 603 4863 
z
" transform="scale(0.015625)"/>
      <path id="DejaVuSans-6e" d="M 3513 2113 
L 3513 0 
L 2938 0 
L 2938 2094 
Q 2938 2591 2744 2837 
Q 2550 3084 2163 3084 
Q 1697 3084 1428 2787 
Q 1159 2491 1159 1978 
L 1159 0 
L 581 0 
L 581 3500 
L 1159 3500 
L 1159 2956 
Q 1366 3272 1645 3428 
Q 1925 3584 2291 3584 
Q 2894 3584 3203 3211 
Q 3513 2838 3513 2113 
z
" transform="scale(0.015625)"/>
      <path id="DejaVuSans-67" d="M 2906 1791 
Q 2906 2416 2648 2759 
Q 2391 3103 1925 3103 
Q 1463 3103 1205 2759 
Q 947 2416 947 1791 
Q 947 1169 1205 825 
Q 1463 481 1925 481 
Q 2391 481 2648 825 
Q 2906 1169 2906 1791 
z
M 3481 434 
Q 3481 -459 3084 -895 
Q 2688 -1331 1869 -1331 
Q 1566 -1331 1297 -1286 
Q 1028 -1241 775 -1147 
L 775 -588 
Q 1028 -725 1275 -790 
Q 1522 -856 1778 -856 
Q 2344 -856 2625 -561 
Q 2906 -266 2906 331 
L 2906 616 
Q 2728 306 2450 153 
Q 2172 0 1784 0 
Q 1141 0 747 490 
Q 353 981 353 1791 
Q 353 2603 747 3093 
Q 1141 3584 1784 3584 
Q 2172 3584 2450 3431 
Q 2728 3278 2906 2969 
L 2906 3500 
L 3481 3500 
L 3481 434 
z
" transform="scale(0.015625)"/>
      <path id="DejaVuSans-20" transform="scale(0.015625)"/>
      <path id="DejaVuSans-50" d="M 1259 4147 
L 1259 2394 
L 2053 2394 
Q 2494 2394 2734 2622 
Q 2975 2850 2975 3272 
Q 2975 3691 2734 3919 
Q 2494 4147 2053 4147 
L 1259 4147 
z
M 628 4666 
L 2053 4666 
Q 2838 4666 3239 4311 
Q 3641 3956 3641 3272 
Q 3641 2581 3239 2228 
Q 2838 1875 2053 1875 
L 1259 1875 
L 1259 0 
L 628 0 
L 628 4666 
z
" transform="scale(0.015625)"/>
      <path id="DejaVuSans-72" d="M 2631 2963 
Q 2534 3019 2420 3045 
Q 2306 3072 2169 3072 
Q 1681 3072 1420 2755 
Q 1159 2438 1159 1844 
L 1159 0 
L 581 0 
L 581 3500 
L 1159 3500 
L 1159 2956 
Q 1341 3275 1631 3429 
Q 1922 3584 2338 3584 
Q 2397 3584 2469 3576 
Q 2541 3569 2628 3553 
L 2631 2963 
z
" transform="scale(0.015625)"/>
      <path id="DejaVuSans-63" d="M 3122 3366 
L 3122 2828 
Q 2878 2963 2633 3030 
Q 2388 3097 2138 3097 
Q 1578 3097 1268 2742 
Q 959 2388 959 1747 
Q 959 1106 1268 751 
Q 1578 397 2138 397 
Q 2388 397 2633 464 
Q 2878 531 3122 666 
L 3122 134 
Q 2881 22 2623 -34 
Q 2366 -91 2075 -91 
Q 1284 -91 818 406 
Q 353 903 353 1747 
Q 353 2603 823 3093 
Q 1294 3584 2113 3584 
Q 2378 3584 2631 3529 
Q 2884 3475 3122 3366 
z
" transform="scale(0.015625)"/>
      <path id="DejaVuSans-65" d="M 3597 1894 
L 3597 1613 
L 953 1613 
Q 991 1019 1311 708 
Q 1631 397 2203 397 
Q 2534 397 2845 478 
Q 3156 559 3463 722 
L 3463 178 
Q 3153 47 2828 -22 
Q 2503 -91 2169 -91 
Q 1331 -91 842 396 
Q 353 884 353 1716 
Q 353 2575 817 3079 
Q 1281 3584 2069 3584 
Q 2775 3584 3186 3129 
Q 3597 2675 3597 1894 
z
M 3022 2063 
Q 3016 2534 2758 2815 
Q 2500 3097 2075 3097 
Q 1594 3097 1305 2825 
Q 1016 2553 972 2059 
L 3022 2063 
z
" transform="scale(0.015625)"/>
     </defs>
     <use xlink:href="#DejaVuSans-43"/>
     <use xlink:href="#DejaVuSans-6c" x="69.824219"/>
     <use xlink:href="#DejaVuSans-6f" x="97.607422"/>
     <use xlink:href="#DejaVuSans-73" x="158.789062"/>
     <use xlink:href="#DejaVuSans-69" x="210.888672"/>
     <use xlink:href="#DejaVuSans-6e" x="238.671875"/>
     <use xlink:href="#DejaVuSans-67" x="302.050781"/>
     <use xlink:href="#DejaVuSans-20" x="365.527344"/>
     <use xlink:href="#DejaVuSans-50" x="397.314453"/>
     <use xlink:href="#DejaVuSans-72" x="455.867188"/>
     <use xlink:href="#DejaVuSans-69" x="496.980469"/>
     <use xlink:href="#DejaVuSans-63" x="524.763672"/>
     <use xlink:href="#DejaVuSans-65" x="579.744141"/>
    </g>
   </g>
   <g id="legend_1">
    <g id="patch_7">
     <path d="M 911.144856 85.688125 
L 975.876106 85.688125 
Q 977.876106 85.688125 977.876106 83.688125 
L 977.876106 55.331875 
Q 977.876106 53.331875 975.876106 53.331875 
L 911.144856 53.331875 
Q 909.144856 53.331875 909.144856 55.331875 
L 909.144856 83.688125 
Q 909.144856 85.688125 911.144856 85.688125 
z
" style="fill: #ffffff; opacity: 0.8; stroke: #cccccc; stroke-linejoin: miter"/>
    </g>
    <g id="line2d_39">
     <path d="M 913.144856 61.430312 
L 923.144856 61.430312 
L 933.144856 61.430312 
" style="fill: none; stroke: #1f77b4; stroke-width: 1.5; stroke-linecap: square"/>
    </g>
    <g id="text_8">
     <!-- CLOSE -->
     <g transform="translate(941.144856 64.930312)scale(0.1 -0.1)">
      <defs>
       <path id="DejaVuSans-4c" d="M 628 4666 
L 1259 4666 
L 1259 531 
L 3531 531 
L 3531 0 
L 628 0 
L 628 4666 
z
" transform="scale(0.015625)"/>
       <path id="DejaVuSans-4f" d="M 2522 4238 
Q 1834 4238 1429 3725 
Q 1025 3213 1025 2328 
Q 1025 1447 1429 934 
Q 1834 422 2522 422 
Q 3209 422 3611 934 
Q 4013 1447 4013 2328 
Q 4013 3213 3611 3725 
Q 3209 4238 2522 4238 
z
M 2522 4750 
Q 3503 4750 4090 4092 
Q 4678 3434 4678 2328 
Q 4678 1225 4090 567 
Q 3503 -91 2522 -91 
Q 1538 -91 948 565 
Q 359 1222 359 2328 
Q 359 3434 948 4092 
Q 1538 4750 2522 4750 
z
" transform="scale(0.015625)"/>
       <path id="DejaVuSans-53" d="M 3425 4513 
L 3425 3897 
Q 3066 4069 2747 4153 
Q 2428 4238 2131 4238 
Q 1616 4238 1336 4038 
Q 1056 3838 1056 3469 
Q 1056 3159 1242 3001 
Q 1428 2844 1947 2747 
L 2328 2669 
Q 3034 2534 3370 2195 
Q 3706 1856 3706 1288 
Q 3706 609 3251 259 
Q 2797 -91 1919 -91 
Q 1588 -91 1214 -16 
Q 841 59 441 206 
L 441 856 
Q 825 641 1194 531 
Q 1563 422 1919 422 
Q 2459 422 2753 634 
Q 3047 847 3047 1241 
Q 3047 1584 2836 1778 
Q 2625 1972 2144 2069 
L 1759 2144 
Q 1053 2284 737 2584 
Q 422 2884 422 3419 
Q 422 4038 858 4394 
Q 1294 4750 2059 4750 
Q 2388 4750 2728 4690 
Q 3069 4631 3425 4513 
z
" transform="scale(0.015625)"/>
       <path id="DejaVuSans-45" d="M 628 4666 
L 3578 4666 
L 3578 4134 
L 1259 4134 
L 1259 2753 
L 3481 2753 
L 3481 2222 
L 1259 2222 
L 1259 531 
L 3634 531 
L 3634 0 
L 628 0 
L 628 4666 
z
" transform="scale(0.015625)"/>
      </defs>
      <use xlink:href="#DejaVuSans-43"/>
      <use xlink:href="#DejaVuSans-4c" x="69.824219"/>
      <use xlink:href="#DejaVuSans-4f" x="121.912109"/>
      <use xlink:href="#DejaVuSans-53" x="200.623047"/>
      <use xlink:href="#DejaVuSans-45" x="264.099609"/>
     </g>
    </g>
    <g id="line2d_40">
     <path d="M 913.144856 76.108437 
L 923.144856 76.108437 
L 933.144856 76.108437 
" style="fill: none; stroke: #ff7f0e; stroke-width: 1.5; stroke-linecap: square"/>
    </g>
    <g id="text_9">
     <!-- SMA5 -->
     <g transform="translate(941.144856 79.608437)scale(0.1 -0.1)">
      <defs>
       <path id="DejaVuSans-4d" d="M 628 4666 
L 1569 4666 
L 2759 1491 
L 3956 4666 
L 4897 4666 
L 4897 0 
L 4281 0 
L 4281 4097 
L 3078 897 
L 2444 897 
L 1241 4097 
L 1241 0 
L 628 0 
L 628 4666 
z
" transform="scale(0.015625)"/>
       <path id="DejaVuSans-41" d="M 2188 4044 
L 1331 1722 
L 3047 1722 
L 2188 4044 
z
M 1831 4666 
L 2547 4666 
L 4325 0 
L 3669 0 
L 3244 1197 
L 1141 1197 
L 716 0 
L 50 0 
L 1831 4666 
z
" transform="scale(0.015625)"/>
      </defs>
      <use xlink:href="#DejaVuSans-53"/>
      <use xlink:href="#DejaVuSans-4d" x="63.476562"/>
      <use xlink:href="#DejaVuSans-41" x="149.755859"/>
      <use xlink:href="#DejaVuSans-35" x="218.164062"/>
     </g>
    </g>
   </g>
  </g>
  <g id="axes_2">
   <g id="patch_8">
    <path d="M 38.904688 584.521875 
L 982.876106 584.521875 
L 982.876106 331.135938 
L 38.904688 331.135938 
z
" style="fill: #ffffff"/>
   </g>
   <g id="matplotlib.axis_3">
    <g id="xtick_13">
     <g id="line2d_41">
      <path d="M 76.432192 584.521875 
L 76.432192 331.135938 
" clip-path="url(#p7dee3be5e0)" style="fill: none; stroke-dasharray: 2.96,1.28; stroke-dashoffset: 0; stroke: #b0b0b0; stroke-width: 0.8"/>
     </g>
     <g id="line2d_42">
      <g>
       <use xlink:href="#m0b82b87d63" x="76.432192" y="584.521875" style="stroke: #000000; stroke-width: 0.8"/>
      </g>
     </g>
     <g id="text_10">
      <!-- 2022-01 -->
      <g transform="translate(55.540786 599.120312)scale(0.1 -0.1)">
       <defs>
        <path id="DejaVuSans-32" d="M 1228 531 
L 3431 531 
L 3431 0 
L 469 0 
L 469 531 
Q 828 903 1448 1529 
Q 2069 2156 2228 2338 
Q 2531 2678 2651 2914 
Q 2772 3150 2772 3378 
Q 2772 3750 2511 3984 
Q 2250 4219 1831 4219 
Q 1534 4219 1204 4116 
Q 875 4013 500 3803 
L 500 4441 
Q 881 4594 1212 4672 
Q 1544 4750 1819 4750 
Q 2544 4750 2975 4387 
Q 3406 4025 3406 3419 
Q 3406 3131 3298 2873 
Q 3191 2616 2906 2266 
Q 2828 2175 2409 1742 
Q 1991 1309 1228 531 
z
" transform="scale(0.015625)"/>
        <path id="DejaVuSans-2d" d="M 313 2009 
L 1997 2009 
L 1997 1497 
L 313 1497 
L 313 2009 
z
" transform="scale(0.015625)"/>
        <path id="DejaVuSans-31" d="M 794 531 
L 1825 531 
L 1825 4091 
L 703 3866 
L 703 4441 
L 1819 4666 
L 2450 4666 
L 2450 531 
L 3481 531 
L 3481 0 
L 794 0 
L 794 531 
z
" transform="scale(0.015625)"/>
       </defs>
       <use xlink:href="#DejaVuSans-32"/>
       <use xlink:href="#DejaVuSans-30" x="63.623047"/>
       <use xlink:href="#DejaVuSans-32" x="127.246094"/>
       <use xlink:href="#DejaVuSans-32" x="190.869141"/>
       <use xlink:href="#DejaVuSans-2d" x="254.492188"/>
       <use xlink:href="#DejaVuSans-30" x="290.576172"/>
       <use xlink:href="#DejaVuSans-31" x="354.199219"/>
      </g>
     </g>
    </g>
    <g id="xtick_14">
     <g id="line2d_43">
      <path d="M 159.826646 584.521875 
L 159.826646 331.135938 
" clip-path="url(#p7dee3be5e0)" style="fill: none; stroke-dasharray: 2.96,1.28; stroke-dashoffset: 0; stroke: #b0b0b0; stroke-width: 0.8"/>
     </g>
     <g id="line2d_44">
      <g>
       <use xlink:href="#m0b82b87d63" x="159.826646" y="584.521875" style="stroke: #000000; stroke-width: 0.8"/>
      </g>
     </g>
     <g id="text_11">
      <!-- 2022-02 -->
      <g transform="translate(138.93524 599.120312)scale(0.1 -0.1)">
       <use xlink:href="#DejaVuSans-32"/>
       <use xlink:href="#DejaVuSans-30" x="63.623047"/>
       <use xlink:href="#DejaVuSans-32" x="127.246094"/>
       <use xlink:href="#DejaVuSans-32" x="190.869141"/>
       <use xlink:href="#DejaVuSans-2d" x="254.492188"/>
       <use xlink:href="#DejaVuSans-30" x="290.576172"/>
       <use xlink:href="#DejaVuSans-32" x="354.199219"/>
      </g>
     </g>
    </g>
    <g id="xtick_15">
     <g id="line2d_45">
      <path d="M 235.150669 584.521875 
L 235.150669 331.135938 
" clip-path="url(#p7dee3be5e0)" style="fill: none; stroke-dasharray: 2.96,1.28; stroke-dashoffset: 0; stroke: #b0b0b0; stroke-width: 0.8"/>
     </g>
     <g id="line2d_46">
      <g>
       <use xlink:href="#m0b82b87d63" x="235.150669" y="584.521875" style="stroke: #000000; stroke-width: 0.8"/>
      </g>
     </g>
     <g id="text_12">
      <!-- 2022-03 -->
      <g transform="translate(214.259263 599.120312)scale(0.1 -0.1)">
       <use xlink:href="#DejaVuSans-32"/>
       <use xlink:href="#DejaVuSans-30" x="63.623047"/>
       <use xlink:href="#DejaVuSans-32" x="127.246094"/>
       <use xlink:href="#DejaVuSans-32" x="190.869141"/>
       <use xlink:href="#DejaVuSans-2d" x="254.492188"/>
       <use xlink:href="#DejaVuSans-30" x="290.576172"/>
       <use xlink:href="#DejaVuSans-33" x="354.199219"/>
      </g>
     </g>
    </g>
    <g id="xtick_16">
     <g id="line2d_47">
      <path d="M 318.545123 584.521875 
L 318.545123 331.135938 
" clip-path="url(#p7dee3be5e0)" style="fill: none; stroke-dasharray: 2.96,1.28; stroke-dashoffset: 0; stroke: #b0b0b0; stroke-width: 0.8"/>
     </g>
     <g id="line2d_48">
      <g>
       <use xlink:href="#m0b82b87d63" x="318.545123" y="584.521875" style="stroke: #000000; stroke-width: 0.8"/>
      </g>
     </g>
     <g id="text_13">
      <!-- 2022-04 -->
      <g transform="translate(297.653717 599.120312)scale(0.1 -0.1)">
       <use xlink:href="#DejaVuSans-32"/>
       <use xlink:href="#DejaVuSans-30" x="63.623047"/>
       <use xlink:href="#DejaVuSans-32" x="127.246094"/>
       <use xlink:href="#DejaVuSans-32" x="190.869141"/>
       <use xlink:href="#DejaVuSans-2d" x="254.492188"/>
       <use xlink:href="#DejaVuSans-30" x="290.576172"/>
       <use xlink:href="#DejaVuSans-34" x="354.199219"/>
      </g>
     </g>
    </g>
    <g id="xtick_17">
     <g id="line2d_49">
      <path d="M 399.249434 584.521875 
L 399.249434 331.135938 
" clip-path="url(#p7dee3be5e0)" style="fill: none; stroke-dasharray: 2.96,1.28; stroke-dashoffset: 0; stroke: #b0b0b0; stroke-width: 0.8"/>
     </g>
     <g id="line2d_50">
      <g>
       <use xlink:href="#m0b82b87d63" x="399.249434" y="584.521875" style="stroke: #000000; stroke-width: 0.8"/>
      </g>
     </g>
     <g id="text_14">
      <!-- 2022-05 -->
      <g transform="translate(378.358028 599.120312)scale(0.1 -0.1)">
       <use xlink:href="#DejaVuSans-32"/>
       <use xlink:href="#DejaVuSans-30" x="63.623047"/>
       <use xlink:href="#DejaVuSans-32" x="127.246094"/>
       <use xlink:href="#DejaVuSans-32" x="190.869141"/>
       <use xlink:href="#DejaVuSans-2d" x="254.492188"/>
       <use xlink:href="#DejaVuSans-30" x="290.576172"/>
       <use xlink:href="#DejaVuSans-35" x="354.199219"/>
      </g>
     </g>
    </g>
    <g id="xtick_18">
     <g id="line2d_51">
      <path d="M 482.643888 584.521875 
L 482.643888 331.135938 
" clip-path="url(#p7dee3be5e0)" style="fill: none; stroke-dasharray: 2.96,1.28; stroke-dashoffset: 0; stroke: #b0b0b0; stroke-width: 0.8"/>
     </g>
     <g id="line2d_52">
      <g>
       <use xlink:href="#m0b82b87d63" x="482.643888" y="584.521875" style="stroke: #000000; stroke-width: 0.8"/>
      </g>
     </g>
     <g id="text_15">
      <!-- 2022-06 -->
      <g transform="translate(461.752482 599.120312)scale(0.1 -0.1)">
       <use xlink:href="#DejaVuSans-32"/>
       <use xlink:href="#DejaVuSans-30" x="63.623047"/>
       <use xlink:href="#DejaVuSans-32" x="127.246094"/>
       <use xlink:href="#DejaVuSans-32" x="190.869141"/>
       <use xlink:href="#DejaVuSans-2d" x="254.492188"/>
       <use xlink:href="#DejaVuSans-30" x="290.576172"/>
       <use xlink:href="#DejaVuSans-36" x="354.199219"/>
      </g>
     </g>
    </g>
    <g id="xtick_19">
     <g id="line2d_53">
      <path d="M 563.348198 584.521875 
L 563.348198 331.135938 
" clip-path="url(#p7dee3be5e0)" style="fill: none; stroke-dasharray: 2.96,1.28; stroke-dashoffset: 0; stroke: #b0b0b0; stroke-width: 0.8"/>
     </g>
     <g id="line2d_54">
      <g>
       <use xlink:href="#m0b82b87d63" x="563.348198" y="584.521875" style="stroke: #000000; stroke-width: 0.8"/>
      </g>
     </g>
     <g id="text_16">
      <!-- 2022-07 -->
      <g transform="translate(542.456792 599.120312)scale(0.1 -0.1)">
       <defs>
        <path id="DejaVuSans-37" d="M 525 4666 
L 3525 4666 
L 3525 4397 
L 1831 0 
L 1172 0 
L 2766 4134 
L 525 4134 
L 525 4666 
z
" transform="scale(0.015625)"/>
       </defs>
       <use xlink:href="#DejaVuSans-32"/>
       <use xlink:href="#DejaVuSans-30" x="63.623047"/>
       <use xlink:href="#DejaVuSans-32" x="127.246094"/>
       <use xlink:href="#DejaVuSans-32" x="190.869141"/>
       <use xlink:href="#DejaVuSans-2d" x="254.492188"/>
       <use xlink:href="#DejaVuSans-30" x="290.576172"/>
       <use xlink:href="#DejaVuSans-37" x="354.199219"/>
      </g>
     </g>
    </g>
    <g id="xtick_20">
     <g id="line2d_55">
      <path d="M 646.742653 584.521875 
L 646.742653 331.135938 
" clip-path="url(#p7dee3be5e0)" style="fill: none; stroke-dasharray: 2.96,1.28; stroke-dashoffset: 0; stroke: #b0b0b0; stroke-width: 0.8"/>
     </g>
     <g id="line2d_56">
      <g>
       <use xlink:href="#m0b82b87d63" x="646.742653" y="584.521875" style="stroke: #000000; stroke-width: 0.8"/>
      </g>
     </g>
     <g id="text_17">
      <!-- 2022-08 -->
      <g transform="translate(625.851246 599.120312)scale(0.1 -0.1)">
       <defs>
        <path id="DejaVuSans-38" d="M 2034 2216 
Q 1584 2216 1326 1975 
Q 1069 1734 1069 1313 
Q 1069 891 1326 650 
Q 1584 409 2034 409 
Q 2484 409 2743 651 
Q 3003 894 3003 1313 
Q 3003 1734 2745 1975 
Q 2488 2216 2034 2216 
z
M 1403 2484 
Q 997 2584 770 2862 
Q 544 3141 544 3541 
Q 544 4100 942 4425 
Q 1341 4750 2034 4750 
Q 2731 4750 3128 4425 
Q 3525 4100 3525 3541 
Q 3525 3141 3298 2862 
Q 3072 2584 2669 2484 
Q 3125 2378 3379 2068 
Q 3634 1759 3634 1313 
Q 3634 634 3220 271 
Q 2806 -91 2034 -91 
Q 1263 -91 848 271 
Q 434 634 434 1313 
Q 434 1759 690 2068 
Q 947 2378 1403 2484 
z
M 1172 3481 
Q 1172 3119 1398 2916 
Q 1625 2713 2034 2713 
Q 2441 2713 2670 2916 
Q 2900 3119 2900 3481 
Q 2900 3844 2670 4047 
Q 2441 4250 2034 4250 
Q 1625 4250 1398 4047 
Q 1172 3844 1172 3481 
z
" transform="scale(0.015625)"/>
       </defs>
       <use xlink:href="#DejaVuSans-32"/>
       <use xlink:href="#DejaVuSans-30" x="63.623047"/>
       <use xlink:href="#DejaVuSans-32" x="127.246094"/>
       <use xlink:href="#DejaVuSans-32" x="190.869141"/>
       <use xlink:href="#DejaVuSans-2d" x="254.492188"/>
       <use xlink:href="#DejaVuSans-30" x="290.576172"/>
       <use xlink:href="#DejaVuSans-38" x="354.199219"/>
      </g>
     </g>
    </g>
    <g id="xtick_21">
     <g id="line2d_57">
      <path d="M 730.137107 584.521875 
L 730.137107 331.135938 
" clip-path="url(#p7dee3be5e0)" style="fill: none; stroke-dasharray: 2.96,1.28; stroke-dashoffset: 0; stroke: #b0b0b0; stroke-width: 0.8"/>
     </g>
     <g id="line2d_58">
      <g>
       <use xlink:href="#m0b82b87d63" x="730.137107" y="584.521875" style="stroke: #000000; stroke-width: 0.8"/>
      </g>
     </g>
     <g id="text_18">
      <!-- 2022-09 -->
      <g transform="translate(709.245701 599.120312)scale(0.1 -0.1)">
       <defs>
        <path id="DejaVuSans-39" d="M 703 97 
L 703 672 
Q 941 559 1184 500 
Q 1428 441 1663 441 
Q 2288 441 2617 861 
Q 2947 1281 2994 2138 
Q 2813 1869 2534 1725 
Q 2256 1581 1919 1581 
Q 1219 1581 811 2004 
Q 403 2428 403 3163 
Q 403 3881 828 4315 
Q 1253 4750 1959 4750 
Q 2769 4750 3195 4129 
Q 3622 3509 3622 2328 
Q 3622 1225 3098 567 
Q 2575 -91 1691 -91 
Q 1453 -91 1209 -44 
Q 966 3 703 97 
z
M 1959 2075 
Q 2384 2075 2632 2365 
Q 2881 2656 2881 3163 
Q 2881 3666 2632 3958 
Q 2384 4250 1959 4250 
Q 1534 4250 1286 3958 
Q 1038 3666 1038 3163 
Q 1038 2656 1286 2365 
Q 1534 2075 1959 2075 
z
" transform="scale(0.015625)"/>
       </defs>
       <use xlink:href="#DejaVuSans-32"/>
       <use xlink:href="#DejaVuSans-30" x="63.623047"/>
       <use xlink:href="#DejaVuSans-32" x="127.246094"/>
       <use xlink:href="#DejaVuSans-32" x="190.869141"/>
       <use xlink:href="#DejaVuSans-2d" x="254.492188"/>
       <use xlink:href="#DejaVuSans-30" x="290.576172"/>
       <use xlink:href="#DejaVuSans-39" x="354.199219"/>
      </g>
     </g>
    </g>
    <g id="xtick_22">
     <g id="line2d_59">
      <path d="M 810.841417 584.521875 
L 810.841417 331.135938 
" clip-path="url(#p7dee3be5e0)" style="fill: none; stroke-dasharray: 2.96,1.28; stroke-dashoffset: 0; stroke: #b0b0b0; stroke-width: 0.8"/>
     </g>
     <g id="line2d_60">
      <g>
       <use xlink:href="#m0b82b87d63" x="810.841417" y="584.521875" style="stroke: #000000; stroke-width: 0.8"/>
      </g>
     </g>
     <g id="text_19">
      <!-- 2022-10 -->
      <g transform="translate(789.950011 599.120312)scale(0.1 -0.1)">
       <use xlink:href="#DejaVuSans-32"/>
       <use xlink:href="#DejaVuSans-30" x="63.623047"/>
       <use xlink:href="#DejaVuSans-32" x="127.246094"/>
       <use xlink:href="#DejaVuSans-32" x="190.869141"/>
       <use xlink:href="#DejaVuSans-2d" x="254.492188"/>
       <use xlink:href="#DejaVuSans-31" x="290.576172"/>
       <use xlink:href="#DejaVuSans-30" x="354.199219"/>
      </g>
     </g>
    </g>
    <g id="xtick_23">
     <g id="line2d_61">
      <path d="M 894.235872 584.521875 
L 894.235872 331.135938 
" clip-path="url(#p7dee3be5e0)" style="fill: none; stroke-dasharray: 2.96,1.28; stroke-dashoffset: 0; stroke: #b0b0b0; stroke-width: 0.8"/>
     </g>
     <g id="line2d_62">
      <g>
       <use xlink:href="#m0b82b87d63" x="894.235872" y="584.521875" style="stroke: #000000; stroke-width: 0.8"/>
      </g>
     </g>
     <g id="text_20">
      <!-- 2022-11 -->
      <g transform="translate(873.344465 599.120312)scale(0.1 -0.1)">
       <use xlink:href="#DejaVuSans-32"/>
       <use xlink:href="#DejaVuSans-30" x="63.623047"/>
       <use xlink:href="#DejaVuSans-32" x="127.246094"/>
       <use xlink:href="#DejaVuSans-32" x="190.869141"/>
       <use xlink:href="#DejaVuSans-2d" x="254.492188"/>
       <use xlink:href="#DejaVuSans-31" x="290.576172"/>
       <use xlink:href="#DejaVuSans-31" x="354.199219"/>
      </g>
     </g>
    </g>
    <g id="xtick_24">
     <g id="line2d_63">
      <path d="M 974.940182 584.521875 
L 974.940182 331.135938 
" clip-path="url(#p7dee3be5e0)" style="fill: none; stroke-dasharray: 2.96,1.28; stroke-dashoffset: 0; stroke: #b0b0b0; stroke-width: 0.8"/>
     </g>
     <g id="line2d_64">
      <g>
       <use xlink:href="#m0b82b87d63" x="974.940182" y="584.521875" style="stroke: #000000; stroke-width: 0.8"/>
      </g>
     </g>
     <g id="text_21">
      <!-- 2022-12 -->
      <g transform="translate(954.048776 599.120312)scale(0.1 -0.1)">
       <use xlink:href="#DejaVuSans-32"/>
       <use xlink:href="#DejaVuSans-30" x="63.623047"/>
       <use xlink:href="#DejaVuSans-32" x="127.246094"/>
       <use xlink:href="#DejaVuSans-32" x="190.869141"/>
       <use xlink:href="#DejaVuSans-2d" x="254.492188"/>
       <use xlink:href="#DejaVuSans-31" x="290.576172"/>
       <use xlink:href="#DejaVuSans-32" x="354.199219"/>
      </g>
     </g>
    </g>
   </g>
   <g id="matplotlib.axis_4">
    <g id="ytick_7">
     <g id="line2d_65">
      <path d="M 38.904688 566.894463 
L 982.876106 566.894463 
" clip-path="url(#p7dee3be5e0)" style="fill: none; stroke-dasharray: 2.96,1.28; stroke-dashoffset: 0; stroke: #b0b0b0; stroke-width: 0.8"/>
     </g>
     <g id="line2d_66">
      <g>
       <use xlink:href="#m63fa9259d3" x="38.904688" y="566.894463" style="stroke: #000000; stroke-width: 0.8"/>
      </g>
     </g>
     <g id="text_22">
      <!-- −40 -->
      <g transform="translate(10.8 570.693682)scale(0.1 -0.1)">
       <defs>
        <path id="DejaVuSans-2212" d="M 678 2272 
L 4684 2272 
L 4684 1741 
L 678 1741 
L 678 2272 
z
" transform="scale(0.015625)"/>
       </defs>
       <use xlink:href="#DejaVuSans-2212"/>
       <use xlink:href="#DejaVuSans-34" x="83.789062"/>
       <use xlink:href="#DejaVuSans-30" x="147.412109"/>
      </g>
     </g>
    </g>
    <g id="ytick_8">
     <g id="line2d_67">
      <path d="M 38.904688 530.330627 
L 982.876106 530.330627 
" clip-path="url(#p7dee3be5e0)" style="fill: none; stroke-dasharray: 2.96,1.28; stroke-dashoffset: 0; stroke: #b0b0b0; stroke-width: 0.8"/>
     </g>
     <g id="line2d_68">
      <g>
       <use xlink:href="#m63fa9259d3" x="38.904688" y="530.330627" style="stroke: #000000; stroke-width: 0.8"/>
      </g>
     </g>
     <g id="text_23">
      <!-- −30 -->
      <g transform="translate(10.8 534.129846)scale(0.1 -0.1)">
       <use xlink:href="#DejaVuSans-2212"/>
       <use xlink:href="#DejaVuSans-33" x="83.789062"/>
       <use xlink:href="#DejaVuSans-30" x="147.412109"/>
      </g>
     </g>
    </g>
    <g id="ytick_9">
     <g id="line2d_69">
      <path d="M 38.904688 493.766792 
L 982.876106 493.766792 
" clip-path="url(#p7dee3be5e0)" style="fill: none; stroke-dasharray: 2.96,1.28; stroke-dashoffset: 0; stroke: #b0b0b0; stroke-width: 0.8"/>
     </g>
     <g id="line2d_70">
      <g>
       <use xlink:href="#m63fa9259d3" x="38.904688" y="493.766792" style="stroke: #000000; stroke-width: 0.8"/>
      </g>
     </g>
     <g id="text_24">
      <!-- −20 -->
      <g transform="translate(10.8 497.566011)scale(0.1 -0.1)">
       <use xlink:href="#DejaVuSans-2212"/>
       <use xlink:href="#DejaVuSans-32" x="83.789062"/>
       <use xlink:href="#DejaVuSans-30" x="147.412109"/>
      </g>
     </g>
    </g>
    <g id="ytick_10">
     <g id="line2d_71">
      <path d="M 38.904688 457.202956 
L 982.876106 457.202956 
" clip-path="url(#p7dee3be5e0)" style="fill: none; stroke-dasharray: 2.96,1.28; stroke-dashoffset: 0; stroke: #b0b0b0; stroke-width: 0.8"/>
     </g>
     <g id="line2d_72">
      <g>
       <use xlink:href="#m63fa9259d3" x="38.904688" y="457.202956" style="stroke: #000000; stroke-width: 0.8"/>
      </g>
     </g>
     <g id="text_25">
      <!-- −10 -->
      <g transform="translate(10.8 461.002175)scale(0.1 -0.1)">
       <use xlink:href="#DejaVuSans-2212"/>
       <use xlink:href="#DejaVuSans-31" x="83.789062"/>
       <use xlink:href="#DejaVuSans-30" x="147.412109"/>
      </g>
     </g>
    </g>
    <g id="ytick_11">
     <g id="line2d_73">
      <path d="M 38.904688 420.639121 
L 982.876106 420.639121 
" clip-path="url(#p7dee3be5e0)" style="fill: none; stroke-dasharray: 2.96,1.28; stroke-dashoffset: 0; stroke: #b0b0b0; stroke-width: 0.8"/>
     </g>
     <g id="line2d_74">
      <g>
       <use xlink:href="#m63fa9259d3" x="38.904688" y="420.639121" style="stroke: #000000; stroke-width: 0.8"/>
      </g>
     </g>
     <g id="text_26">
      <!-- 0 -->
      <g transform="translate(25.542188 424.438339)scale(0.1 -0.1)">
       <use xlink:href="#DejaVuSans-30"/>
      </g>
     </g>
    </g>
    <g id="ytick_12">
     <g id="line2d_75">
      <path d="M 38.904688 384.075285 
L 982.876106 384.075285 
" clip-path="url(#p7dee3be5e0)" style="fill: none; stroke-dasharray: 2.96,1.28; stroke-dashoffset: 0; stroke: #b0b0b0; stroke-width: 0.8"/>
     </g>
     <g id="line2d_76">
      <g>
       <use xlink:href="#m63fa9259d3" x="38.904688" y="384.075285" style="stroke: #000000; stroke-width: 0.8"/>
      </g>
     </g>
     <g id="text_27">
      <!-- 10 -->
      <g transform="translate(19.179688 387.874504)scale(0.1 -0.1)">
       <use xlink:href="#DejaVuSans-31"/>
       <use xlink:href="#DejaVuSans-30" x="63.623047"/>
      </g>
     </g>
    </g>
    <g id="ytick_13">
     <g id="line2d_77">
      <path d="M 38.904688 347.511449 
L 982.876106 347.511449 
" clip-path="url(#p7dee3be5e0)" style="fill: none; stroke-dasharray: 2.96,1.28; stroke-dashoffset: 0; stroke: #b0b0b0; stroke-width: 0.8"/>
     </g>
     <g id="line2d_78">
      <g>
       <use xlink:href="#m63fa9259d3" x="38.904688" y="347.511449" style="stroke: #000000; stroke-width: 0.8"/>
      </g>
     </g>
     <g id="text_28">
      <!-- 20 -->
      <g transform="translate(19.179688 351.310668)scale(0.1 -0.1)">
       <use xlink:href="#DejaVuSans-32"/>
       <use xlink:href="#DejaVuSans-30" x="63.623047"/>
      </g>
     </g>
    </g>
   </g>
   <g id="line2d_79">
    <path d="M 81.812479 420.639121 
L 87.192767 420.927988 
L 89.88291 420.484489 
L 92.573054 418.151613 
L 100.643485 416.889804 
L 103.333629 417.230118 
L 106.023772 415.495918 
L 108.713916 412.640841 
L 111.40406 410.94848 
L 119.474491 409.939375 
L 122.164634 411.343562 
L 124.854778 410.690681 
L 127.544922 410.627874 
L 130.235066 409.992223 
L 138.305497 415.919479 
L 140.99564 418.835297 
L 146.375928 420.306669 
L 149.066071 421.160012 
L 157.136502 422.12128 
L 159.826646 417.53643 
L 162.51679 413.300254 
L 165.206933 410.424832 
L 167.897077 405.170053 
L 175.967508 401.913692 
L 178.657652 398.519926 
L 181.347796 392.117002 
L 184.037939 386.162717 
L 186.728083 383.117198 
L 194.798514 386.871502 
L 197.488658 386.825494 
L 200.178801 388.405329 
L 202.868945 389.132553 
L 205.559089 390.867827 
L 213.62952 397.384432 
L 216.319663 401.594773 
L 221.699951 407.103853 
L 224.390094 404.83865 
L 232.460525 392.11635 
L 237.840813 375.100907 
L 240.530957 360.559648 
L 243.2211 356.204568 
L 251.291531 343.374868 
L 253.981675 342.65348 
L 256.671819 343.520526 
L 259.361962 343.446533 
L 262.052106 345.610869 
L 270.122537 347.678678 
L 272.812681 359.009833 
L 275.502824 364.881225 
L 278.192968 368.941633 
L 288.953543 368.93742 
L 291.643687 368.518678 
L 294.33383 364.469722 
L 297.023974 358.050945 
L 299.714118 353.521203 
L 307.784549 348.574839 
L 310.474692 345.204927 
L 313.164836 352.529471 
L 315.85498 367.807344 
L 318.545123 380.089307 
L 326.615554 385.251202 
L 329.305698 389.887072 
L 331.995842 395.492842 
L 334.685985 402.056249 
L 337.376129 405.379289 
L 345.44656 409.723922 
L 348.136704 423.123604 
L 350.826848 432.31507 
L 364.277566 439.789577 
L 366.96771 446.749314 
L 372.347997 454.80381 
L 375.038141 465.233293 
L 383.108572 478.321045 
L 385.798715 488.513493 
L 388.488859 496.059661 
L 391.179003 502.188858 
L 393.869146 507.793236 
L 401.939578 510.681018 
L 407.319865 518.541536 
L 410.010009 523.598517 
L 412.700152 531.585769 
L 420.770583 536.476903 
L 423.460727 545.13533 
L 426.150871 550.630975 
L 428.841014 558.320807 
L 431.531158 567.977567 
L 439.601589 573.004332 
L 442.291733 564.291949 
L 444.981876 553.58464 
L 447.67202 549.24758 
L 450.362164 540.856915 
L 458.432595 537.562311 
L 463.812882 536.825422 
L 466.503026 531.962798 
L 469.19317 526.505324 
L 477.263601 518.807203 
L 479.953744 509.966079 
L 482.643888 505.490978 
L 485.334032 501.236519 
L 488.024175 497.90323 
L 496.094606 493.71132 
L 501.474894 488.34486 
L 504.165037 486.557009 
L 506.855181 488.487668 
L 514.925612 494.855333 
L 517.615756 501.375179 
L 520.3059 505.796518 
L 522.996043 514.530969 
L 525.686187 521.004094 
L 533.756618 528.489827 
L 536.446762 527.948981 
L 539.136905 532.951799 
L 541.827049 535.256048 
L 544.517193 534.384423 
L 552.587624 530.174136 
L 555.277767 521.660723 
L 557.967911 513.664426 
L 560.658055 507.943507 
L 563.348198 501.737232 
L 571.41863 496.140144 
L 574.108773 489.509158 
L 576.798917 484.78324 
L 579.489061 474.312182 
L 582.179204 466.692526 
L 590.249635 460.591633 
L 592.939779 458.068924 
L 595.629923 455.082558 
L 598.320066 452.291959 
L 601.01021 449.321957 
L 609.080641 441.84104 
L 611.770785 435.490387 
L 614.460928 429.937221 
L 619.841216 416.97642 
L 627.911647 410.171945 
L 630.601791 406.4622 
L 635.982078 397.176896 
L 638.672222 387.256153 
L 646.742653 377.253448 
L 649.432796 371.54437 
L 652.12294 368.841378 
L 654.813084 365.140966 
L 657.503227 366.053493 
L 665.573658 364.298744 
L 670.953946 358.111676 
L 673.64409 355.901879 
L 676.334233 354.106197 
L 687.094808 355.601348 
L 689.784952 354.582596 
L 692.475095 354.799718 
L 695.165239 358.841066 
L 703.23567 365.292948 
L 705.925814 368.236812 
L 708.615957 370.863344 
L 711.306101 372.350876 
L 713.996245 371.937379 
L 722.066676 375.041431 
L 724.756819 375.426261 
L 730.137107 381.216096 
L 732.827251 388.257877 
L 740.897682 389.943815 
L 743.587825 391.133245 
L 746.277969 391.847198 
L 748.968113 396.3223 
L 751.658256 398.51591 
L 759.728687 398.984532 
L 762.418831 397.994238 
L 765.108975 395.915957 
L 767.799118 399.702934 
L 770.489262 406.379484 
L 778.559693 411.874989 
L 781.249837 413.567863 
L 783.939981 417.920712 
L 786.630124 421.143285 
L 789.320268 428.256261 
L 797.390699 440.43629 
L 800.080843 449.695103 
L 802.770986 460.366088 
L 805.46113 465.225791 
L 808.151274 462.881187 
L 816.221705 463.362956 
L 818.911848 459.432559 
L 824.292136 450.485901 
L 826.982279 443.588377 
L 835.05271 438.972842 
L 837.742854 438.487455 
L 840.432998 436.693305 
L 843.123142 434.710915 
L 845.813285 434.280777 
L 853.883716 436.369658 
L 856.57386 436.324842 
L 859.264004 437.029759 
L 861.954147 435.966038 
L 864.644291 435.380904 
L 872.714722 434.229449 
L 875.404866 432.341157 
L 880.785153 426.644887 
L 883.475297 424.286551 
L 891.545728 422.193112 
L 894.235872 417.983068 
L 896.926015 412.702295 
L 899.616159 411.849252 
L 902.306303 405.389202 
L 910.376734 398.47454 
L 915.757021 399.259874 
L 918.447165 400.702157 
L 921.137308 397.757113 
L 929.207739 388.214399 
L 931.897883 380.713662 
L 934.588027 378.062941 
L 937.27817 378.498522 
L 939.968314 379.859627 
L 939.968314 379.859627 
" clip-path="url(#p7dee3be5e0)" style="fill: none; stroke: #1f77b4; stroke-width: 1.5; stroke-linecap: square"/>
   </g>
   <g id="line2d_80">
    <path d="M 81.812479 420.639121 
L 87.192767 420.809957 
L 89.88291 420.699704 
L 92.573054 419.941704 
L 100.643485 419.114469 
L 103.333629 418.63759 
L 106.023772 417.882587 
L 111.40406 415.38938 
L 119.474491 414.19695 
L 124.854778 412.971801 
L 130.235066 411.965449 
L 138.305497 412.779159 
L 140.99564 414.018289 
L 146.375928 415.299037 
L 149.066071 416.488372 
L 157.136502 417.628094 
L 159.826646 417.60959 
L 162.51679 416.741316 
L 165.206933 415.470518 
L 167.897077 413.40065 
L 175.967508 411.094547 
L 178.657652 408.571998 
L 181.347796 405.273023 
L 186.728083 397.772603 
L 194.798514 395.58968 
L 197.488658 393.835105 
L 200.178801 392.748289 
L 202.868945 392.024683 
L 205.559089 391.793194 
L 213.62952 392.911896 
L 216.319663 394.649035 
L 219.009807 396.603229 
L 221.699951 398.70379 
L 224.390094 399.930966 
L 232.460525 398.367835 
L 237.840813 393.713955 
L 240.530957 387.082529 
L 243.2211 380.906517 
L 251.291531 373.399778 
L 253.981675 367.250251 
L 256.671819 362.504141 
L 259.361962 358.692513 
L 262.052106 356.076126 
L 270.122537 354.396606 
L 272.812681 355.319265 
L 275.502824 357.231679 
L 278.192968 359.573691 
L 288.953543 361.44645 
L 291.643687 362.860904 
L 294.33383 363.182669 
L 297.023974 362.15632 
L 299.714118 360.429292 
L 307.784549 358.058396 
L 310.474692 355.487697 
L 313.164836 354.896051 
L 315.85498 357.478313 
L 318.545123 362.000516 
L 326.615554 366.650657 
L 331.995842 376.136925 
L 334.685985 381.320792 
L 337.376129 386.132493 
L 345.44656 390.85078 
L 348.136704 397.305346 
L 350.826848 404.307292 
L 364.277566 411.40375 
L 366.96771 418.472864 
L 369.657853 424.914937 
L 372.347997 430.892712 
L 375.038141 437.760829 
L 383.108572 445.872872 
L 388.488859 462.73273 
L 391.179003 470.623956 
L 393.869146 478.057812 
L 401.939578 484.582453 
L 407.319865 491.37427 
L 410.010009 497.819119 
L 412.700152 504.572449 
L 420.770583 510.95334 
L 426.150871 524.357985 
L 428.841014 531.15055 
L 431.531158 538.515953 
L 439.601589 545.413629 
L 442.291733 549.189293 
L 444.981876 550.068362 
L 447.67202 549.904206 
L 450.362164 548.094748 
L 458.432595 545.988261 
L 461.122739 544.240339 
L 463.812882 542.757355 
L 466.503026 540.598444 
L 469.19317 537.77982 
L 477.263601 533.985297 
L 482.643888 524.443358 
L 485.334032 519.80199 
L 488.024175 515.422238 
L 496.094606 511.080055 
L 498.78475 507.071588 
L 501.474894 503.326243 
L 504.165037 499.972396 
L 506.855181 497.67545 
L 514.925612 497.111427 
L 517.615756 497.964177 
L 520.3059 499.530645 
L 522.996043 502.53071 
L 525.686187 506.225387 
L 533.756618 510.678275 
L 536.446762 514.132416 
L 539.136905 517.896293 
L 541.827049 521.368244 
L 544.517193 523.97148 
L 552.587624 525.212011 
L 555.277767 524.501753 
L 557.967911 522.334288 
L 560.658055 519.456132 
L 563.348198 515.912352 
L 571.41863 511.95791 
L 576.798917 502.931176 
L 579.489061 497.207377 
L 582.179204 491.104407 
L 590.249635 485.001852 
L 592.939779 479.615267 
L 595.629923 474.708725 
L 598.320066 470.225372 
L 601.01021 466.044689 
L 609.080641 461.203959 
L 614.460928 450.83644 
L 619.841216 439.69948 
L 627.911647 433.793973 
L 633.291934 423.01179 
L 635.982078 417.844811 
L 638.672222 411.727079 
L 646.742653 404.832353 
L 649.432796 398.174756 
L 652.12294 392.308081 
L 654.813084 386.874658 
L 657.503227 382.710425 
L 665.573658 379.028089 
L 670.953946 374.844806 
L 673.64409 371.056221 
L 676.334233 367.666216 
L 687.094808 365.253242 
L 689.784952 363.119113 
L 692.475095 361.455234 
L 695.165239 360.932401 
L 703.23567 361.80451 
L 705.925814 363.09097 
L 711.306101 366.186531 
L 713.996245 367.336701 
L 722.066676 368.877647 
L 724.756819 370.18737 
L 730.137107 372.393115 
L 732.827251 375.566067 
L 740.897682 378.441617 
L 743.587825 380.979943 
L 746.277969 383.153394 
L 751.658256 388.332922 
L 759.728687 390.463244 
L 762.418831 391.969443 
L 765.108975 392.758746 
L 767.799118 394.147583 
L 770.489262 396.593963 
L 778.559693 399.650168 
L 781.249837 402.433707 
L 786.630124 408.653544 
L 789.320268 412.574087 
L 797.390699 418.146528 
L 800.080843 424.456243 
L 802.770986 431.638212 
L 805.46113 438.355727 
L 808.151274 443.260819 
L 816.221705 447.281247 
L 818.911848 449.711509 
L 824.292136 449.866388 
L 826.982279 448.610785 
L 835.05271 446.683197 
L 845.813285 440.169197 
L 853.883716 439.40929 
L 856.57386 438.7924 
L 859.264004 438.439872 
L 864.644291 437.432265 
L 872.714722 436.791702 
L 880.785153 434.050252 
L 883.475297 432.097511 
L 891.545728 430.116632 
L 894.235872 427.689919 
L 896.926015 424.692394 
L 899.616159 422.123766 
L 902.306303 418.776853 
L 910.376734 414.71639 
L 915.757021 411.625087 
L 918.447165 409.440501 
L 921.137308 407.103823 
L 929.207739 403.325939 
L 931.897883 398.803483 
L 934.588027 394.655375 
L 937.27817 391.424004 
L 939.968314 389.111129 
L 939.968314 389.111129 
" clip-path="url(#p7dee3be5e0)" style="fill: none; stroke: #ff7f0e; stroke-width: 1.5; stroke-linecap: square"/>
   </g>
   <g id="patch_9">
    <path d="M 38.904688 584.521875 
L 38.904688 331.135938 
" style="fill: none; stroke: #000000; stroke-width: 0.8; stroke-linejoin: miter; stroke-linecap: square"/>
   </g>
   <g id="patch_10">
    <path d="M 982.876106 584.521875 
L 982.876106 331.135938 
" style="fill: none; stroke: #000000; stroke-width: 0.8; stroke-linejoin: miter; stroke-linecap: square"/>
   </g>
   <g id="patch_11">
    <path d="M 38.904687 584.521875 
L 982.876106 584.521875 
" style="fill: none; stroke: #000000; stroke-width: 0.8; stroke-linejoin: miter; stroke-linecap: square"/>
   </g>
   <g id="patch_12">
    <path d="M 38.904687 331.135938 
L 982.876106 331.135938 
" style="fill: none; stroke: #000000; stroke-width: 0.8; stroke-linejoin: miter; stroke-linecap: square"/>
   </g>
   <g id="text_29">
    <!-- MACD -->
    <g transform="translate(492.904459 325.135938)scale(0.12 -0.12)">
     <defs>
      <path id="DejaVuSans-44" d="M 1259 4147 
L 1259 519 
L 2022 519 
Q 2988 519 3436 956 
Q 3884 1394 3884 2338 
Q 3884 3275 3436 3711 
Q 2988 4147 2022 4147 
L 1259 4147 
z
M 628 4666 
L 1925 4666 
Q 3281 4666 3915 4102 
Q 4550 3538 4550 2338 
Q 4550 1131 3912 565 
Q 3275 0 1925 0 
L 628 0 
L 628 4666 
z
" transform="scale(0.015625)"/>
     </defs>
     <use xlink:href="#DejaVuSans-4d"/>
     <use xlink:href="#DejaVuSans-41" x="86.279297"/>
     <use xlink:href="#DejaVuSans-43" x="152.9375"/>
     <use xlink:href="#DejaVuSans-44" x="222.761719"/>
    </g>
   </g>
   <g id="legend_2">
    <g id="patch_13">
     <path d="M 913.899543 368.492188 
L 975.876106 368.492188 
Q 977.876106 368.492188 977.876106 366.492188 
L 977.876106 338.135938 
Q 977.876106 336.135938 975.876106 336.135938 
L 913.899543 336.135938 
Q 911.899543 336.135938 911.899543 338.135938 
L 911.899543 366.492188 
Q 911.899543 368.492188 913.899543 368.492188 
z
" style="fill: #ffffff; opacity: 0.8; stroke: #cccccc; stroke-linejoin: miter"/>
    </g>
    <g id="line2d_81">
     <path d="M 915.899543 344.234375 
L 925.899543 344.234375 
L 935.899543 344.234375 
" style="fill: none; stroke: #1f77b4; stroke-width: 1.5; stroke-linecap: square"/>
    </g>
    <g id="text_30">
     <!-- MACD -->
     <g transform="translate(943.899543 347.734375)scale(0.1 -0.1)">
      <use xlink:href="#DejaVuSans-4d"/>
      <use xlink:href="#DejaVuSans-41" x="86.279297"/>
      <use xlink:href="#DejaVuSans-43" x="152.9375"/>
      <use xlink:href="#DejaVuSans-44" x="222.761719"/>
     </g>
    </g>
    <g id="line2d_82">
     <path d="M 915.899543 358.9125 
L 925.899543 358.9125 
L 935.899543 358.9125 
" style="fill: none; stroke: #ff7f0e; stroke-width: 1.5; stroke-linecap: square"/>
    </g>
    <g id="text_31">
     <!-- SIG -->
     <g transform="translate(943.899543 362.4125)scale(0.1 -0.1)">
      <defs>
       <path id="DejaVuSans-49" d="M 628 4666 
L 1259 4666 
L 1259 0 
L 628 0 
L 628 4666 
z
" transform="scale(0.015625)"/>
       <path id="DejaVuSans-47" d="M 3809 666 
L 3809 1919 
L 2778 1919 
L 2778 2438 
L 4434 2438 
L 4434 434 
Q 4069 175 3628 42 
Q 3188 -91 2688 -91 
Q 1594 -91 976 548 
Q 359 1188 359 2328 
Q 359 3472 976 4111 
Q 1594 4750 2688 4750 
Q 3144 4750 3555 4637 
Q 3966 4525 4313 4306 
L 4313 3634 
Q 3963 3931 3569 4081 
Q 3175 4231 2741 4231 
Q 1884 4231 1454 3753 
Q 1025 3275 1025 2328 
Q 1025 1384 1454 906 
Q 1884 428 2741 428 
Q 3075 428 3337 486 
Q 3600 544 3809 666 
z
" transform="scale(0.015625)"/>
      </defs>
      <use xlink:href="#DejaVuSans-53"/>
      <use xlink:href="#DejaVuSans-49" x="63.476562"/>
      <use xlink:href="#DejaVuSans-47" x="92.96875"/>
     </g>
    </g>
   </g>
  </g>
  <g id="text_32">
   <!-- Hindalco Industries Limited -->
   <g transform="translate(422.094375 21.358125)scale(0.12 -0.12)">
    <defs>
     <path id="DejaVuSans-48" d="M 628 4666 
L 1259 4666 
L 1259 2753 
L 3553 2753 
L 3553 4666 
L 4184 4666 
L 4184 0 
L 3553 0 
L 3553 2222 
L 1259 2222 
L 1259 0 
L 628 0 
L 628 4666 
z
" transform="scale(0.015625)"/>
     <path id="DejaVuSans-64" d="M 2906 2969 
L 2906 4863 
L 3481 4863 
L 3481 0 
L 2906 0 
L 2906 525 
Q 2725 213 2448 61 
Q 2172 -91 1784 -91 
Q 1150 -91 751 415 
Q 353 922 353 1747 
Q 353 2572 751 3078 
Q 1150 3584 1784 3584 
Q 2172 3584 2448 3432 
Q 2725 3281 2906 2969 
z
M 947 1747 
Q 947 1113 1208 752 
Q 1469 391 1925 391 
Q 2381 391 2643 752 
Q 2906 1113 2906 1747 
Q 2906 2381 2643 2742 
Q 2381 3103 1925 3103 
Q 1469 3103 1208 2742 
Q 947 2381 947 1747 
z
" transform="scale(0.015625)"/>
     <path id="DejaVuSans-61" d="M 2194 1759 
Q 1497 1759 1228 1600 
Q 959 1441 959 1056 
Q 959 750 1161 570 
Q 1363 391 1709 391 
Q 2188 391 2477 730 
Q 2766 1069 2766 1631 
L 2766 1759 
L 2194 1759 
z
M 3341 1997 
L 3341 0 
L 2766 0 
L 2766 531 
Q 2569 213 2275 61 
Q 1981 -91 1556 -91 
Q 1019 -91 701 211 
Q 384 513 384 1019 
Q 384 1609 779 1909 
Q 1175 2209 1959 2209 
L 2766 2209 
L 2766 2266 
Q 2766 2663 2505 2880 
Q 2244 3097 1772 3097 
Q 1472 3097 1187 3025 
Q 903 2953 641 2809 
L 641 3341 
Q 956 3463 1253 3523 
Q 1550 3584 1831 3584 
Q 2591 3584 2966 3190 
Q 3341 2797 3341 1997 
z
" transform="scale(0.015625)"/>
     <path id="DejaVuSans-75" d="M 544 1381 
L 544 3500 
L 1119 3500 
L 1119 1403 
Q 1119 906 1312 657 
Q 1506 409 1894 409 
Q 2359 409 2629 706 
Q 2900 1003 2900 1516 
L 2900 3500 
L 3475 3500 
L 3475 0 
L 2900 0 
L 2900 538 
Q 2691 219 2414 64 
Q 2138 -91 1772 -91 
Q 1169 -91 856 284 
Q 544 659 544 1381 
z
M 1991 3584 
L 1991 3584 
z
" transform="scale(0.015625)"/>
     <path id="DejaVuSans-74" d="M 1172 4494 
L 1172 3500 
L 2356 3500 
L 2356 3053 
L 1172 3053 
L 1172 1153 
Q 1172 725 1289 603 
Q 1406 481 1766 481 
L 2356 481 
L 2356 0 
L 1766 0 
Q 1100 0 847 248 
Q 594 497 594 1153 
L 594 3053 
L 172 3053 
L 172 3500 
L 594 3500 
L 594 4494 
L 1172 4494 
z
" transform="scale(0.015625)"/>
     <path id="DejaVuSans-6d" d="M 3328 2828 
Q 3544 3216 3844 3400 
Q 4144 3584 4550 3584 
Q 5097 3584 5394 3201 
Q 5691 2819 5691 2113 
L 5691 0 
L 5113 0 
L 5113 2094 
Q 5113 2597 4934 2840 
Q 4756 3084 4391 3084 
Q 3944 3084 3684 2787 
Q 3425 2491 3425 1978 
L 3425 0 
L 2847 0 
L 2847 2094 
Q 2847 2600 2669 2842 
Q 2491 3084 2119 3084 
Q 1678 3084 1418 2786 
Q 1159 2488 1159 1978 
L 1159 0 
L 581 0 
L 581 3500 
L 1159 3500 
L 1159 2956 
Q 1356 3278 1631 3431 
Q 1906 3584 2284 3584 
Q 2666 3584 2933 3390 
Q 3200 3197 3328 2828 
z
" transform="scale(0.015625)"/>
    </defs>
    <use xlink:href="#DejaVuSans-48"/>
    <use xlink:href="#DejaVuSans-69" x="75.195312"/>
    <use xlink:href="#DejaVuSans-6e" x="102.978516"/>
    <use xlink:href="#DejaVuSans-64" x="166.357422"/>
    <use xlink:href="#DejaVuSans-61" x="229.833984"/>
    <use xlink:href="#DejaVuSans-6c" x="291.113281"/>
    <use xlink:href="#DejaVuSans-63" x="318.896484"/>
    <use xlink:href="#DejaVuSans-6f" x="373.876953"/>
    <use xlink:href="#DejaVuSans-20" x="435.058594"/>
    <use xlink:href="#DejaVuSans-49" x="466.845703"/>
    <use xlink:href="#DejaVuSans-6e" x="496.337891"/>
    <use xlink:href="#DejaVuSans-64" x="559.716797"/>
    <use xlink:href="#DejaVuSans-75" x="623.193359"/>
    <use xlink:href="#DejaVuSans-73" x="686.572266"/>
    <use xlink:href="#DejaVuSans-74" x="738.671875"/>
    <use xlink:href="#DejaVuSans-72" x="777.880859"/>
    <use xlink:href="#DejaVuSans-69" x="818.994141"/>
    <use xlink:href="#DejaVuSans-65" x="846.777344"/>
    <use xlink:href="#DejaVuSans-73" x="908.300781"/>
    <use xlink:href="#DejaVuSans-20" x="960.400391"/>
    <use xlink:href="#DejaVuSans-4c" x="992.1875"/>
    <use xlink:href="#DejaVuSans-69" x="1047.900391"/>
    <use xlink:href="#DejaVuSans-6d" x="1075.683594"/>
    <use xlink:href="#DejaVuSans-69" x="1173.095703"/>
    <use xlink:href="#DejaVuSans-74" x="1200.878906"/>
    <use xlink:href="#DejaVuSans-65" x="1240.087891"/>
    <use xlink:href="#DejaVuSans-64" x="1301.611328"/>
   </g>
  </g>
 </g>
 <defs>
  <clipPath id="pcda30c6dc5">
   <rect x="38.904688" y="48.331875" width="943.971418" height="253.385938"/>
  </clipPath>
  <clipPath id="p7dee3be5e0">
   <rect x="38.904688" y="331.135938" width="943.971418" height="253.385937"/>
  </clipPath>
 </defs>
</svg>
