<?xml version="1.0" encoding="utf-8" standalone="no"?>
<!DOCTYPE svg PUBLIC "-//W3C//DTD SVG 1.1//EN"
  "http://www.w3.org/Graphics/SVG/1.1/DTD/svg11.dtd">
<svg xmlns:xlink="http://www.w3.org/1999/xlink" width="1008pt" height="612pt" viewBox="0 0 1008 612" xmlns="http://www.w3.org/2000/svg" version="1.1">
 <metadata>
  <rdf:RDF xmlns:dc="http://purl.org/dc/elements/1.1/" xmlns:cc="http://creativecommons.org/ns#" xmlns:rdf="http://www.w3.org/1999/02/22-rdf-syntax-ns#">
   <cc:Work>
    <dc:type rdf:resource="http://purl.org/dc/dcmitype/StillImage"/>
    <dc:date>2022-11-20T19:47:04.906450</dc:date>
    <dc:format>image/svg+xml</dc:format>
    <dc:creator>
     <cc:Agent>
      <dc:title>Matplotlib v3.5.2, https://matplotlib.org/</dc:title>
     </cc:Agent>
    </dc:creator>
   </cc:Work>
  </rdf:RDF>
 </metadata>
 <defs>
  <style type="text/css">*{stroke-linejoin: round; stroke-linecap: butt}</style>
 </defs>
 <g id="figure_1">
  <g id="patch_1">
   <path d="M 0 612 
L 1008 612 
L 1008 0 
L 0 0 
z
" style="fill: #ffffff"/>
  </g>
  <g id="axes_1">
   <g id="patch_2">
    <path d="M 43.25 301.717812 
L 982.876106 301.717812 
L 982.876106 48.331875 
L 43.25 48.331875 
z
" style="fill: #ffffff"/>
   </g>
   <g id="matplotlib.axis_1">
    <g id="xtick_1">
     <g id="line2d_1">
      <path d="M 80.604757 301.717812 
L 80.604757 48.331875 
" clip-path="url(#pfb62041c5d)" style="fill: none; stroke-dasharray: 2.96,1.28; stroke-dashoffset: 0; stroke: #b0b0b0; stroke-width: 0.8"/>
     </g>
     <g id="line2d_2">
      <defs>
       <path id="mfad8e8107d" d="M 0 0 
L 0 3.5 
" style="stroke: #000000; stroke-width: 0.8"/>
      </defs>
      <g>
       <use xlink:href="#mfad8e8107d" x="80.604757" y="301.717812" style="stroke: #000000; stroke-width: 0.8"/>
      </g>
     </g>
    </g>
    <g id="xtick_2">
     <g id="line2d_3">
      <path d="M 163.615328 301.717812 
L 163.615328 48.331875 
" clip-path="url(#pfb62041c5d)" style="fill: none; stroke-dasharray: 2.96,1.28; stroke-dashoffset: 0; stroke: #b0b0b0; stroke-width: 0.8"/>
     </g>
     <g id="line2d_4">
      <g>
       <use xlink:href="#mfad8e8107d" x="163.615328" y="301.717812" style="stroke: #000000; stroke-width: 0.8"/>
      </g>
     </g>
    </g>
    <g id="xtick_3">
     <g id="line2d_5">
      <path d="M 238.592617 301.717812 
L 238.592617 48.331875 
" clip-path="url(#pfb62041c5d)" style="fill: none; stroke-dasharray: 2.96,1.28; stroke-dashoffset: 0; stroke: #b0b0b0; stroke-width: 0.8"/>
     </g>
     <g id="line2d_6">
      <g>
       <use xlink:href="#mfad8e8107d" x="238.592617" y="301.717812" style="stroke: #000000; stroke-width: 0.8"/>
      </g>
     </g>
    </g>
    <g id="xtick_4">
     <g id="line2d_7">
      <path d="M 321.603188 301.717812 
L 321.603188 48.331875 
" clip-path="url(#pfb62041c5d)" style="fill: none; stroke-dasharray: 2.96,1.28; stroke-dashoffset: 0; stroke: #b0b0b0; stroke-width: 0.8"/>
     </g>
     <g id="line2d_8">
      <g>
       <use xlink:href="#mfad8e8107d" x="321.603188" y="301.717812" style="stroke: #000000; stroke-width: 0.8"/>
      </g>
     </g>
    </g>
    <g id="xtick_5">
     <g id="line2d_9">
      <path d="M 401.935999 301.717812 
L 401.935999 48.331875 
" clip-path="url(#pfb62041c5d)" style="fill: none; stroke-dasharray: 2.96,1.28; stroke-dashoffset: 0; stroke: #b0b0b0; stroke-width: 0.8"/>
     </g>
     <g id="line2d_10">
      <g>
       <use xlink:href="#mfad8e8107d" x="401.935999" y="301.717812" style="stroke: #000000; stroke-width: 0.8"/>
      </g>
     </g>
    </g>
    <g id="xtick_6">
     <g id="line2d_11">
      <path d="M 484.946569 301.717812 
L 484.946569 48.331875 
" clip-path="url(#pfb62041c5d)" style="fill: none; stroke-dasharray: 2.96,1.28; stroke-dashoffset: 0; stroke: #b0b0b0; stroke-width: 0.8"/>
     </g>
     <g id="line2d_12">
      <g>
       <use xlink:href="#mfad8e8107d" x="484.946569" y="301.717812" style="stroke: #000000; stroke-width: 0.8"/>
      </g>
     </g>
    </g>
    <g id="xtick_7">
     <g id="line2d_13">
      <path d="M 565.27938 301.717812 
L 565.27938 48.331875 
" clip-path="url(#pfb62041c5d)" style="fill: none; stroke-dasharray: 2.96,1.28; stroke-dashoffset: 0; stroke: #b0b0b0; stroke-width: 0.8"/>
     </g>
     <g id="line2d_14">
      <g>
       <use xlink:href="#mfad8e8107d" x="565.27938" y="301.717812" style="stroke: #000000; stroke-width: 0.8"/>
      </g>
     </g>
    </g>
    <g id="xtick_8">
     <g id="line2d_15">
      <path d="M 648.28995 301.717812 
L 648.28995 48.331875 
" clip-path="url(#pfb62041c5d)" style="fill: none; stroke-dasharray: 2.96,1.28; stroke-dashoffset: 0; stroke: #b0b0b0; stroke-width: 0.8"/>
     </g>
     <g id="line2d_16">
      <g>
       <use xlink:href="#mfad8e8107d" x="648.28995" y="301.717812" style="stroke: #000000; stroke-width: 0.8"/>
      </g>
     </g>
    </g>
    <g id="xtick_9">
     <g id="line2d_17">
      <path d="M 731.300521 301.717812 
L 731.300521 48.331875 
" clip-path="url(#pfb62041c5d)" style="fill: none; stroke-dasharray: 2.96,1.28; stroke-dashoffset: 0; stroke: #b0b0b0; stroke-width: 0.8"/>
     </g>
     <g id="line2d_18">
      <g>
       <use xlink:href="#mfad8e8107d" x="731.300521" y="301.717812" style="stroke: #000000; stroke-width: 0.8"/>
      </g>
     </g>
    </g>
    <g id="xtick_10">
     <g id="line2d_19">
      <path d="M 811.633332 301.717812 
L 811.633332 48.331875 
" clip-path="url(#pfb62041c5d)" style="fill: none; stroke-dasharray: 2.96,1.28; stroke-dashoffset: 0; stroke: #b0b0b0; stroke-width: 0.8"/>
     </g>
     <g id="line2d_20">
      <g>
       <use xlink:href="#mfad8e8107d" x="811.633332" y="301.717812" style="stroke: #000000; stroke-width: 0.8"/>
      </g>
     </g>
    </g>
    <g id="xtick_11">
     <g id="line2d_21">
      <path d="M 894.643902 301.717812 
L 894.643902 48.331875 
" clip-path="url(#pfb62041c5d)" style="fill: none; stroke-dasharray: 2.96,1.28; stroke-dashoffset: 0; stroke: #b0b0b0; stroke-width: 0.8"/>
     </g>
     <g id="line2d_22">
      <g>
       <use xlink:href="#mfad8e8107d" x="894.643902" y="301.717812" style="stroke: #000000; stroke-width: 0.8"/>
      </g>
     </g>
    </g>
    <g id="xtick_12">
     <g id="line2d_23">
      <path d="M 974.976713 301.717812 
L 974.976713 48.331875 
" clip-path="url(#pfb62041c5d)" style="fill: none; stroke-dasharray: 2.96,1.28; stroke-dashoffset: 0; stroke: #b0b0b0; stroke-width: 0.8"/>
     </g>
     <g id="line2d_24">
      <g>
       <use xlink:href="#mfad8e8107d" x="974.976713" y="301.717812" style="stroke: #000000; stroke-width: 0.8"/>
      </g>
     </g>
    </g>
   </g>
   <g id="matplotlib.axis_2">
    <g id="ytick_1">
     <g id="line2d_25">
      <path d="M 43.25 290.059874 
L 982.876106 290.059874 
" clip-path="url(#pfb62041c5d)" style="fill: none; stroke-dasharray: 2.96,1.28; stroke-dashoffset: 0; stroke: #b0b0b0; stroke-width: 0.8"/>
     </g>
     <g id="line2d_26">
      <defs>
       <path id="m12b241515a" d="M 0 0 
L -3.5 0 
" style="stroke: #000000; stroke-width: 0.8"/>
      </defs>
      <g>
       <use xlink:href="#m12b241515a" x="43.25" y="290.059874" style="stroke: #000000; stroke-width: 0.8"/>
      </g>
     </g>
     <g id="text_1">
      <!-- 2000 -->
      <g transform="translate(10.8 293.859093)scale(0.1 -0.1)">
       <defs>
        <path id="DejaVuSans-32" d="M 1228 531 
L 3431 531 
L 3431 0 
L 469 0 
L 469 531 
Q 828 903 1448 1529 
Q 2069 2156 2228 2338 
Q 2531 2678 2651 2914 
Q 2772 3150 2772 3378 
Q 2772 3750 2511 3984 
Q 2250 4219 1831 4219 
Q 1534 4219 1204 4116 
Q 875 4013 500 3803 
L 500 4441 
Q 881 4594 1212 4672 
Q 1544 4750 1819 4750 
Q 2544 4750 2975 4387 
Q 3406 4025 3406 3419 
Q 3406 3131 3298 2873 
Q 3191 2616 2906 2266 
Q 2828 2175 2409 1742 
Q 1991 1309 1228 531 
z
" transform="scale(0.015625)"/>
        <path id="DejaVuSans-30" d="M 2034 4250 
Q 1547 4250 1301 3770 
Q 1056 3291 1056 2328 
Q 1056 1369 1301 889 
Q 1547 409 2034 409 
Q 2525 409 2770 889 
Q 3016 1369 3016 2328 
Q 3016 3291 2770 3770 
Q 2525 4250 2034 4250 
z
M 2034 4750 
Q 2819 4750 3233 4129 
Q 3647 3509 3647 2328 
Q 3647 1150 3233 529 
Q 2819 -91 2034 -91 
Q 1250 -91 836 529 
Q 422 1150 422 2328 
Q 422 3509 836 4129 
Q 1250 4750 2034 4750 
z
" transform="scale(0.015625)"/>
       </defs>
       <use xlink:href="#DejaVuSans-32"/>
       <use xlink:href="#DejaVuSans-30" x="63.623047"/>
       <use xlink:href="#DejaVuSans-30" x="127.246094"/>
       <use xlink:href="#DejaVuSans-30" x="190.869141"/>
      </g>
     </g>
    </g>
    <g id="ytick_2">
     <g id="line2d_27">
      <path d="M 43.25 239.006937 
L 982.876106 239.006937 
" clip-path="url(#pfb62041c5d)" style="fill: none; stroke-dasharray: 2.96,1.28; stroke-dashoffset: 0; stroke: #b0b0b0; stroke-width: 0.8"/>
     </g>
     <g id="line2d_28">
      <g>
       <use xlink:href="#m12b241515a" x="43.25" y="239.006937" style="stroke: #000000; stroke-width: 0.8"/>
      </g>
     </g>
     <g id="text_2">
      <!-- 2200 -->
      <g transform="translate(10.8 242.806156)scale(0.1 -0.1)">
       <use xlink:href="#DejaVuSans-32"/>
       <use xlink:href="#DejaVuSans-32" x="63.623047"/>
       <use xlink:href="#DejaVuSans-30" x="127.246094"/>
       <use xlink:href="#DejaVuSans-30" x="190.869141"/>
      </g>
     </g>
    </g>
    <g id="ytick_3">
     <g id="line2d_29">
      <path d="M 43.25 187.954 
L 982.876106 187.954 
" clip-path="url(#pfb62041c5d)" style="fill: none; stroke-dasharray: 2.96,1.28; stroke-dashoffset: 0; stroke: #b0b0b0; stroke-width: 0.8"/>
     </g>
     <g id="line2d_30">
      <g>
       <use xlink:href="#m12b241515a" x="43.25" y="187.954" style="stroke: #000000; stroke-width: 0.8"/>
      </g>
     </g>
     <g id="text_3">
      <!-- 2400 -->
      <g transform="translate(10.8 191.753219)scale(0.1 -0.1)">
       <defs>
        <path id="DejaVuSans-34" d="M 2419 4116 
L 825 1625 
L 2419 1625 
L 2419 4116 
z
M 2253 4666 
L 3047 4666 
L 3047 1625 
L 3713 1625 
L 3713 1100 
L 3047 1100 
L 3047 0 
L 2419 0 
L 2419 1100 
L 313 1100 
L 313 1709 
L 2253 4666 
z
" transform="scale(0.015625)"/>
       </defs>
       <use xlink:href="#DejaVuSans-32"/>
       <use xlink:href="#DejaVuSans-34" x="63.623047"/>
       <use xlink:href="#DejaVuSans-30" x="127.246094"/>
       <use xlink:href="#DejaVuSans-30" x="190.869141"/>
      </g>
     </g>
    </g>
    <g id="ytick_4">
     <g id="line2d_31">
      <path d="M 43.25 136.901063 
L 982.876106 136.901063 
" clip-path="url(#pfb62041c5d)" style="fill: none; stroke-dasharray: 2.96,1.28; stroke-dashoffset: 0; stroke: #b0b0b0; stroke-width: 0.8"/>
     </g>
     <g id="line2d_32">
      <g>
       <use xlink:href="#m12b241515a" x="43.25" y="136.901063" style="stroke: #000000; stroke-width: 0.8"/>
      </g>
     </g>
     <g id="text_4">
      <!-- 2600 -->
      <g transform="translate(10.8 140.700282)scale(0.1 -0.1)">
       <defs>
        <path id="DejaVuSans-36" d="M 2113 2584 
Q 1688 2584 1439 2293 
Q 1191 2003 1191 1497 
Q 1191 994 1439 701 
Q 1688 409 2113 409 
Q 2538 409 2786 701 
Q 3034 994 3034 1497 
Q 3034 2003 2786 2293 
Q 2538 2584 2113 2584 
z
M 3366 4563 
L 3366 3988 
Q 3128 4100 2886 4159 
Q 2644 4219 2406 4219 
Q 1781 4219 1451 3797 
Q 1122 3375 1075 2522 
Q 1259 2794 1537 2939 
Q 1816 3084 2150 3084 
Q 2853 3084 3261 2657 
Q 3669 2231 3669 1497 
Q 3669 778 3244 343 
Q 2819 -91 2113 -91 
Q 1303 -91 875 529 
Q 447 1150 447 2328 
Q 447 3434 972 4092 
Q 1497 4750 2381 4750 
Q 2619 4750 2861 4703 
Q 3103 4656 3366 4563 
z
" transform="scale(0.015625)"/>
       </defs>
       <use xlink:href="#DejaVuSans-32"/>
       <use xlink:href="#DejaVuSans-36" x="63.623047"/>
       <use xlink:href="#DejaVuSans-30" x="127.246094"/>
       <use xlink:href="#DejaVuSans-30" x="190.869141"/>
      </g>
     </g>
    </g>
    <g id="ytick_5">
     <g id="line2d_33">
      <path d="M 43.25 85.848126 
L 982.876106 85.848126 
" clip-path="url(#pfb62041c5d)" style="fill: none; stroke-dasharray: 2.96,1.28; stroke-dashoffset: 0; stroke: #b0b0b0; stroke-width: 0.8"/>
     </g>
     <g id="line2d_34">
      <g>
       <use xlink:href="#m12b241515a" x="43.25" y="85.848126" style="stroke: #000000; stroke-width: 0.8"/>
      </g>
     </g>
     <g id="text_5">
      <!-- 2800 -->
      <g transform="translate(10.8 89.647345)scale(0.1 -0.1)">
       <defs>
        <path id="DejaVuSans-38" d="M 2034 2216 
Q 1584 2216 1326 1975 
Q 1069 1734 1069 1313 
Q 1069 891 1326 650 
Q 1584 409 2034 409 
Q 2484 409 2743 651 
Q 3003 894 3003 1313 
Q 3003 1734 2745 1975 
Q 2488 2216 2034 2216 
z
M 1403 2484 
Q 997 2584 770 2862 
Q 544 3141 544 3541 
Q 544 4100 942 4425 
Q 1341 4750 2034 4750 
Q 2731 4750 3128 4425 
Q 3525 4100 3525 3541 
Q 3525 3141 3298 2862 
Q 3072 2584 2669 2484 
Q 3125 2378 3379 2068 
Q 3634 1759 3634 1313 
Q 3634 634 3220 271 
Q 2806 -91 2034 -91 
Q 1263 -91 848 271 
Q 434 634 434 1313 
Q 434 1759 690 2068 
Q 947 2378 1403 2484 
z
M 1172 3481 
Q 1172 3119 1398 2916 
Q 1625 2713 2034 2713 
Q 2441 2713 2670 2916 
Q 2900 3119 2900 3481 
Q 2900 3844 2670 4047 
Q 2441 4250 2034 4250 
Q 1625 4250 1398 4047 
Q 1172 3844 1172 3481 
z
" transform="scale(0.015625)"/>
       </defs>
       <use xlink:href="#DejaVuSans-32"/>
       <use xlink:href="#DejaVuSans-38" x="63.623047"/>
       <use xlink:href="#DejaVuSans-30" x="127.246094"/>
       <use xlink:href="#DejaVuSans-30" x="190.869141"/>
      </g>
     </g>
    </g>
   </g>
   <g id="line2d_35">
    <path d="M 85.960278 169.077177 
L 88.638038 137.105275 
L 91.315798 127.213768 
L 93.993559 125.158887 
L 96.671319 105.388638 
L 104.7046 109.038923 
L 107.38236 108.885764 
L 110.060121 98.904915 
L 115.415641 111.234199 
L 123.448922 107.660493 
L 126.126683 115.178038 
L 128.804443 118.164635 
L 131.482203 117.51371 
L 134.159964 111.221436 
L 142.193245 126.601133 
L 144.871005 139.492 
L 150.226526 172.408381 
L 152.904286 168.604937 
L 160.937567 173.531545 
L 163.615328 169.357968 
L 166.293088 156.58197 
L 168.970848 161.610685 
L 171.648609 167.073349 
L 179.68189 178.892104 
L 182.35965 184.035687 
L 185.03741 167.379666 
L 187.715171 165.22268 
L 190.392931 179.721714 
L 198.426212 190.876781 
L 201.103972 175.675769 
L 203.781733 182.159492 
L 206.459493 176.007613 
L 209.137254 180.117374 
L 217.170535 181.240539 
L 219.848295 192.370079 
L 222.526055 183.971871 
L 225.203816 210.736373 
L 227.881576 195.854442 
L 235.914857 187.200969 
L 241.270378 188.515582 
L 243.948138 203.614489 
L 246.625898 223.448555 
L 254.659179 248.030544 
L 257.33694 243.895256 
L 260.0147 229.408985 
L 262.69246 200.742761 
L 265.370221 203.742121 
L 273.403502 202.070137 
L 276.081262 195.471545 
L 278.759023 171.897851 
L 281.436783 159.772779 
L 292.147824 166.192686 
L 294.825585 175.101423 
L 297.503345 179.300527 
L 300.181105 181.91699 
L 302.858866 173.544309 
L 310.892147 188.017816 
L 313.569907 188.477293 
L 316.247667 177.666833 
L 318.925428 174.093128 
L 321.603188 166.026764 
L 329.636469 163.691092 
L 332.314229 160.474757 
L 334.99199 154.88446 
L 337.66975 164.188858 
L 340.347511 156.007625 
L 348.380792 175.407741 
L 351.058552 194.156932 
L 353.736312 196.620236 
L 367.125114 197.054186 
L 369.802874 206.192662 
L 372.480635 195.892732 
L 375.158395 186.333069 
L 377.836155 181.215012 
L 385.869436 185.82254 
L 388.547197 178.56026 
L 391.224957 185.069509 
L 393.902717 173.161412 
L 396.580478 181.904227 
L 404.613759 181.802121 
L 409.96928 207.341353 
L 412.64704 213.033755 
L 415.3248 229.689776 
L 423.358081 239.147333 
L 426.035842 238.177327 
L 428.713602 248.158176 
L 431.391362 260.704435 
L 434.069123 258.981399 
L 442.102404 260.793778 
L 444.780164 246.779747 
L 447.457924 248.464494 
L 450.135685 259.976931 
L 452.813445 254.463214 
L 460.846726 241.878665 
L 463.524487 246.013953 
L 466.202247 254.475977 
L 468.880007 256.084145 
L 471.557768 248.324098 
L 482.268809 227.41792 
L 484.946569 237.679561 
L 487.62433 227.328578 
L 490.30209 240.130102 
L 498.335371 246.154348 
L 501.013131 256.033092 
L 503.690892 264.316431 
L 506.368652 265.414069 
L 509.046412 262.287077 
L 517.079693 256.250067 
L 519.757454 259.402586 
L 522.435214 261.304307 
L 525.112974 265.286437 
L 527.790735 290.20027 
L 535.824016 262.835896 
L 538.501776 264.380247 
L 541.179537 269.102644 
L 543.857297 252.906099 
L 546.535057 246.856326 
L 554.568338 253.518735 
L 557.246099 260.398118 
L 559.923859 265.005645 
L 562.601619 267.111579 
L 565.27938 249.638711 
L 573.312661 240.934186 
L 575.990421 244.865262 
L 578.668181 234.016513 
L 581.345942 229.549381 
L 584.023702 226.026728 
L 592.056983 221.508543 
L 594.734744 226.052254 
L 597.412504 217.19457 
L 600.090264 216.084168 
L 602.768025 211.527694 
L 610.801306 212.944413 
L 613.479066 215.662982 
L 616.156826 208.1582 
L 618.834587 197.615768 
L 621.512347 198.738933 
L 629.545628 204.980155 
L 632.223388 208.247543 
L 634.901149 199.59407 
L 637.578909 188.005053 
L 640.256669 174.871685 
L 648.28995 163.410301 
L 650.967711 157.207369 
L 653.645471 156.492628 
L 656.323232 148.617712 
L 659.000992 126.473501 
L 667.034273 124.303751 
L 672.389794 127.507323 
L 675.067554 126.524553 
L 677.745314 131.157608 
L 688.456356 120.11741 
L 691.134116 107.21378 
L 693.811876 105.43969 
L 696.489637 106.065089 
L 704.522918 116.441598 
L 707.200678 117.028707 
L 712.556199 120.755572 
L 715.233959 119.823855 
L 723.26724 111.285252 
L 725.945001 102.108486 
L 731.300521 80.666253 
L 733.978282 68.821971 
L 742.011563 77.488207 
L 744.689323 81.814944 
L 747.367083 84.865357 
L 750.044844 68.06894 
L 752.722604 74.57819 
L 760.755885 71.14488 
L 763.433645 71.18317 
L 766.111406 68.196573 
L 768.789166 59.849418 
L 771.466926 86.090627 
L 779.500207 84.112326 
L 782.177968 77.194653 
L 784.855728 81.061913 
L 790.211249 85.682204 
L 798.24453 85.286544 
L 800.92229 84.750488 
L 803.600051 93.569883 
L 806.277811 110.302483 
L 808.955571 113.850662 
L 816.988852 122.542424 
L 819.666613 114.782378 
L 825.022133 121.087416 
L 827.699894 120.921494 
L 835.733175 125.299283 
L 838.410935 133.837887 
L 841.088695 122.823216 
L 843.766456 131.387346 
L 846.444216 131.859585 
L 854.477497 113.569871 
L 857.155258 108.145496 
L 859.833018 120.321622 
L 862.510778 113.991057 
L 865.188539 127.277584 
L 873.22182 125.797049 
L 875.89958 132.229719 
L 881.255101 145.988486 
L 883.932861 146.971255 
L 891.966142 140.883192 
L 894.643902 125.733233 
L 897.321663 128.107195 
L 899.999423 125.784286 
L 902.677183 124.648358 
L 910.710465 129.58773 
L 916.065985 123.563483 
L 918.743746 122.516898 
L 921.421506 121.278864 
L 929.454787 122.976374 
L 932.132547 117.756212 
L 934.810308 115.85449 
L 937.488068 113.110394 
L 940.165828 111.566043 
L 940.165828 111.566043 
" clip-path="url(#pfb62041c5d)" style="fill: none; stroke: #1f77b4; stroke-width: 1.5; stroke-linecap: square"/>
   </g>
   <g id="line2d_36">
    <path d="M 96.671319 132.788749 
L 104.7046 120.781098 
L 110.060121 109.475425 
L 112.737881 105.475428 
L 115.415641 106.64454 
L 123.448922 106.368854 
L 126.126683 107.627309 
L 128.804443 111.479253 
L 131.482203 113.950215 
L 134.159964 113.947662 
L 142.193245 117.73579 
L 144.871005 122.598583 
L 150.226526 133.447332 
L 152.904286 143.665577 
L 160.937567 156.127599 
L 163.615328 164.678966 
L 166.293088 168.09696 
L 168.970848 165.937421 
L 171.648609 165.631103 
L 179.68189 166.703215 
L 182.35965 169.638759 
L 185.03741 171.798298 
L 187.715171 172.520697 
L 190.392931 175.05037 
L 198.426212 177.447306 
L 201.103972 175.775322 
L 203.781733 178.731287 
L 206.459493 180.888274 
L 209.137254 180.967406 
L 217.170535 179.040157 
L 219.848295 182.379019 
L 222.526055 182.741495 
L 225.203816 189.687247 
L 227.881576 192.834661 
L 235.914857 194.026747 
L 241.270378 193.255848 
L 243.948138 197.184371 
L 246.625898 199.726807 
L 254.659179 210.162028 
L 257.33694 221.500885 
L 260.0147 229.679566 
L 262.69246 229.10522 
L 265.370221 225.163933 
L 273.403502 215.971852 
L 276.081262 206.28711 
L 278.759023 194.784883 
L 281.436783 186.590887 
L 292.147824 179.081 
L 294.825585 173.687257 
L 297.503345 170.453053 
L 300.181105 172.456881 
L 302.858866 175.211187 
L 310.892147 179.576213 
L 313.569907 182.251387 
L 316.247667 181.924648 
L 329.636469 173.991022 
L 332.314229 168.390515 
L 334.99199 163.83404 
L 340.347511 159.849358 
L 348.380792 162.192688 
L 351.058552 168.929123 
L 353.736312 177.276278 
L 367.125114 183.849344 
L 369.802874 193.886351 
L 372.480635 197.98335 
L 375.158395 196.418577 
L 377.836155 193.337532 
L 385.869436 191.091203 
L 388.547197 185.564723 
L 391.224957 183.400078 
L 393.902717 180.765747 
L 396.580478 180.903589 
L 404.613759 180.099506 
L 409.96928 185.855724 
L 412.64704 191.448574 
L 415.3248 202.754247 
L 423.358081 214.202868 
L 426.035842 225.477909 
L 428.713602 233.641274 
L 431.391362 243.17541 
L 434.069123 249.033734 
L 442.102404 253.363023 
L 444.780164 255.083507 
L 447.457924 255.144771 
L 450.135685 254.99927 
L 452.813445 254.095633 
L 460.846726 250.31261 
L 463.524487 250.159451 
L 466.202247 251.361748 
L 468.880007 250.583191 
L 471.557768 249.355368 
L 479.591049 247.52512 
L 482.268809 243.805913 
L 484.946569 240.44663 
L 487.62433 234.695517 
L 490.30209 233.056717 
L 498.335371 235.742102 
L 501.013131 241.465136 
L 503.690892 246.79251 
L 506.368652 254.409608 
L 509.046412 258.841003 
L 519.757454 261.534046 
L 522.435214 260.931621 
L 525.112974 260.906095 
L 527.790735 266.488733 
L 535.824016 267.805899 
L 538.501776 268.801431 
L 541.179537 270.361099 
L 543.857297 267.885031 
L 546.535057 259.216242 
L 554.568338 257.35281 
L 559.923859 255.736985 
L 562.601619 258.578081 
L 565.27938 259.134558 
L 573.312661 256.617648 
L 575.990421 253.511077 
L 578.668181 247.31325 
L 581.345942 239.80081 
L 584.023702 235.078414 
L 592.056983 231.193285 
L 594.734744 227.430684 
L 597.412504 224.066295 
L 600.090264 221.373253 
L 602.768025 218.473446 
L 610.801306 216.76062 
L 613.479066 214.682765 
L 616.156826 212.875491 
L 618.834587 209.181811 
L 621.512347 206.624059 
L 629.545628 205.031208 
L 632.223388 203.54812 
L 634.901149 201.835294 
L 637.578909 199.913151 
L 640.256669 195.139701 
L 648.28995 186.82573 
L 650.967711 176.617695 
L 653.645471 167.997407 
L 656.323232 160.119939 
L 659.000992 150.440302 
L 667.034273 142.618992 
L 672.389794 136.678983 
L 675.067554 130.685368 
L 677.745314 127.193347 
L 688.456356 125.922129 
L 691.134116 122.504135 
L 693.811876 118.090608 
L 696.489637 113.998715 
L 704.522918 111.055514 
L 707.200678 110.437773 
L 709.878438 112.763234 
L 712.556199 115.826411 
L 715.233959 118.578164 
L 723.26724 117.546894 
L 725.945001 114.56285 
L 731.300521 106.927884 
L 733.978282 96.541164 
L 742.011563 88.074034 
L 744.689323 82.179972 
L 747.367083 78.731346 
L 750.044844 76.211884 
L 752.722604 77.363128 
L 760.755885 76.094462 
L 763.433645 73.968107 
L 766.111406 70.634351 
L 768.789166 68.990446 
L 771.466926 71.292933 
L 779.500207 73.886423 
L 782.177968 75.088719 
L 784.855728 77.661787 
L 787.533489 82.353552 
L 790.211249 82.271868 
L 798.24453 82.506711 
L 800.92229 84.017878 
L 803.600051 86.519472 
L 808.955571 97.552012 
L 816.988852 105.003188 
L 819.666613 111.009566 
L 825.022133 116.513073 
L 827.699894 118.636875 
L 835.733175 120.926599 
L 838.410935 123.185691 
L 841.088695 124.793859 
L 846.444216 129.041463 
L 854.477497 126.695581 
L 857.155258 121.557103 
L 859.833018 121.056784 
L 862.510778 117.577526 
L 865.188539 116.661126 
L 873.22182 119.106562 
L 875.89958 123.923406 
L 881.255101 129.056779 
L 883.932861 135.652819 
L 891.966142 138.37394 
L 894.643902 138.361177 
L 897.321663 137.536672 
L 899.999423 133.495832 
L 902.677183 129.031253 
L 910.710465 126.77216 
L 916.065985 126.33821 
L 918.743746 125.220151 
L 921.421506 124.319067 
L 929.454787 123.98467 
L 932.132547 121.618366 
L 934.810308 120.076568 
L 940.165828 116.252703 
L 940.165828 116.252703 
" clip-path="url(#pfb62041c5d)" style="fill: none; stroke: #ff7f0e; stroke-width: 1.5; stroke-linecap: square"/>
   </g>
   <g id="patch_3">
    <path d="M 43.25 301.717812 
L 43.25 48.331875 
" style="fill: none; stroke: #000000; stroke-width: 0.8; stroke-linejoin: miter; stroke-linecap: square"/>
   </g>
   <g id="patch_4">
    <path d="M 982.876106 301.717812 
L 982.876106 48.331875 
" style="fill: none; stroke: #000000; stroke-width: 0.8; stroke-linejoin: miter; stroke-linecap: square"/>
   </g>
   <g id="patch_5">
    <path d="M 43.25 301.717812 
L 982.876106 301.717812 
" style="fill: none; stroke: #000000; stroke-width: 0.8; stroke-linejoin: miter; stroke-linecap: square"/>
   </g>
   <g id="patch_6">
    <path d="M 43.25 48.331875 
L 982.876106 48.331875 
" style="fill: none; stroke: #000000; stroke-width: 0.8; stroke-linejoin: miter; stroke-linecap: square"/>
   </g>
   <g id="text_6">
    <!-- Closing Price -->
    <g transform="translate(474.587115 42.331875)scale(0.12 -0.12)">
     <defs>
      <path id="DejaVuSans-43" d="M 4122 4306 
L 4122 3641 
Q 3803 3938 3442 4084 
Q 3081 4231 2675 4231 
Q 1875 4231 1450 3742 
Q 1025 3253 1025 2328 
Q 1025 1406 1450 917 
Q 1875 428 2675 428 
Q 3081 428 3442 575 
Q 3803 722 4122 1019 
L 4122 359 
Q 3791 134 3420 21 
Q 3050 -91 2638 -91 
Q 1578 -91 968 557 
Q 359 1206 359 2328 
Q 359 3453 968 4101 
Q 1578 4750 2638 4750 
Q 3056 4750 3426 4639 
Q 3797 4528 4122 4306 
z
" transform="scale(0.015625)"/>
      <path id="DejaVuSans-6c" d="M 603 4863 
L 1178 4863 
L 1178 0 
L 603 0 
L 603 4863 
z
" transform="scale(0.015625)"/>
      <path id="DejaVuSans-6f" d="M 1959 3097 
Q 1497 3097 1228 2736 
Q 959 2375 959 1747 
Q 959 1119 1226 758 
Q 1494 397 1959 397 
Q 2419 397 2687 759 
Q 2956 1122 2956 1747 
Q 2956 2369 2687 2733 
Q 2419 3097 1959 3097 
z
M 1959 3584 
Q 2709 3584 3137 3096 
Q 3566 2609 3566 1747 
Q 3566 888 3137 398 
Q 2709 -91 1959 -91 
Q 1206 -91 779 398 
Q 353 888 353 1747 
Q 353 2609 779 3096 
Q 1206 3584 1959 3584 
z
" transform="scale(0.015625)"/>
      <path id="DejaVuSans-73" d="M 2834 3397 
L 2834 2853 
Q 2591 2978 2328 3040 
Q 2066 3103 1784 3103 
Q 1356 3103 1142 2972 
Q 928 2841 928 2578 
Q 928 2378 1081 2264 
Q 1234 2150 1697 2047 
L 1894 2003 
Q 2506 1872 2764 1633 
Q 3022 1394 3022 966 
Q 3022 478 2636 193 
Q 2250 -91 1575 -91 
Q 1294 -91 989 -36 
Q 684 19 347 128 
L 347 722 
Q 666 556 975 473 
Q 1284 391 1588 391 
Q 1994 391 2212 530 
Q 2431 669 2431 922 
Q 2431 1156 2273 1281 
Q 2116 1406 1581 1522 
L 1381 1569 
Q 847 1681 609 1914 
Q 372 2147 372 2553 
Q 372 3047 722 3315 
Q 1072 3584 1716 3584 
Q 2034 3584 2315 3537 
Q 2597 3491 2834 3397 
z
" transform="scale(0.015625)"/>
      <path id="DejaVuSans-69" d="M 603 3500 
L 1178 3500 
L 1178 0 
L 603 0 
L 603 3500 
z
M 603 4863 
L 1178 4863 
L 1178 4134 
L 603 4134 
L 603 4863 
z
" transform="scale(0.015625)"/>
      <path id="DejaVuSans-6e" d="M 3513 2113 
L 3513 0 
L 2938 0 
L 2938 2094 
Q 2938 2591 2744 2837 
Q 2550 3084 2163 3084 
Q 1697 3084 1428 2787 
Q 1159 2491 1159 1978 
L 1159 0 
L 581 0 
L 581 3500 
L 1159 3500 
L 1159 2956 
Q 1366 3272 1645 3428 
Q 1925 3584 2291 3584 
Q 2894 3584 3203 3211 
Q 3513 2838 3513 2113 
z
" transform="scale(0.015625)"/>
      <path id="DejaVuSans-67" d="M 2906 1791 
Q 2906 2416 2648 2759 
Q 2391 3103 1925 3103 
Q 1463 3103 1205 2759 
Q 947 2416 947 1791 
Q 947 1169 1205 825 
Q 1463 481 1925 481 
Q 2391 481 2648 825 
Q 2906 1169 2906 1791 
z
M 3481 434 
Q 3481 -459 3084 -895 
Q 2688 -1331 1869 -1331 
Q 1566 -1331 1297 -1286 
Q 1028 -1241 775 -1147 
L 775 -588 
Q 1028 -725 1275 -790 
Q 1522 -856 1778 -856 
Q 2344 -856 2625 -561 
Q 2906 -266 2906 331 
L 2906 616 
Q 2728 306 2450 153 
Q 2172 0 1784 0 
Q 1141 0 747 490 
Q 353 981 353 1791 
Q 353 2603 747 3093 
Q 1141 3584 1784 3584 
Q 2172 3584 2450 3431 
Q 2728 3278 2906 2969 
L 2906 3500 
L 3481 3500 
L 3481 434 
z
" transform="scale(0.015625)"/>
      <path id="DejaVuSans-20" transform="scale(0.015625)"/>
      <path id="DejaVuSans-50" d="M 1259 4147 
L 1259 2394 
L 2053 2394 
Q 2494 2394 2734 2622 
Q 2975 2850 2975 3272 
Q 2975 3691 2734 3919 
Q 2494 4147 2053 4147 
L 1259 4147 
z
M 628 4666 
L 2053 4666 
Q 2838 4666 3239 4311 
Q 3641 3956 3641 3272 
Q 3641 2581 3239 2228 
Q 2838 1875 2053 1875 
L 1259 1875 
L 1259 0 
L 628 0 
L 628 4666 
z
" transform="scale(0.015625)"/>
      <path id="DejaVuSans-72" d="M 2631 2963 
Q 2534 3019 2420 3045 
Q 2306 3072 2169 3072 
Q 1681 3072 1420 2755 
Q 1159 2438 1159 1844 
L 1159 0 
L 581 0 
L 581 3500 
L 1159 3500 
L 1159 2956 
Q 1341 3275 1631 3429 
Q 1922 3584 2338 3584 
Q 2397 3584 2469 3576 
Q 2541 3569 2628 3553 
L 2631 2963 
z
" transform="scale(0.015625)"/>
      <path id="DejaVuSans-63" d="M 3122 3366 
L 3122 2828 
Q 2878 2963 2633 3030 
Q 2388 3097 2138 3097 
Q 1578 3097 1268 2742 
Q 959 2388 959 1747 
Q 959 1106 1268 751 
Q 1578 397 2138 397 
Q 2388 397 2633 464 
Q 2878 531 3122 666 
L 3122 134 
Q 2881 22 2623 -34 
Q 2366 -91 2075 -91 
Q 1284 -91 818 406 
Q 353 903 353 1747 
Q 353 2603 823 3093 
Q 1294 3584 2113 3584 
Q 2378 3584 2631 3529 
Q 2884 3475 3122 3366 
z
" transform="scale(0.015625)"/>
      <path id="DejaVuSans-65" d="M 3597 1894 
L 3597 1613 
L 953 1613 
Q 991 1019 1311 708 
Q 1631 397 2203 397 
Q 2534 397 2845 478 
Q 3156 559 3463 722 
L 3463 178 
Q 3153 47 2828 -22 
Q 2503 -91 2169 -91 
Q 1331 -91 842 396 
Q 353 884 353 1716 
Q 353 2575 817 3079 
Q 1281 3584 2069 3584 
Q 2775 3584 3186 3129 
Q 3597 2675 3597 1894 
z
M 3022 2063 
Q 3016 2534 2758 2815 
Q 2500 3097 2075 3097 
Q 1594 3097 1305 2825 
Q 1016 2553 972 2059 
L 3022 2063 
z
" transform="scale(0.015625)"/>
     </defs>
     <use xlink:href="#DejaVuSans-43"/>
     <use xlink:href="#DejaVuSans-6c" x="69.824219"/>
     <use xlink:href="#DejaVuSans-6f" x="97.607422"/>
     <use xlink:href="#DejaVuSans-73" x="158.789062"/>
     <use xlink:href="#DejaVuSans-69" x="210.888672"/>
     <use xlink:href="#DejaVuSans-6e" x="238.671875"/>
     <use xlink:href="#DejaVuSans-67" x="302.050781"/>
     <use xlink:href="#DejaVuSans-20" x="365.527344"/>
     <use xlink:href="#DejaVuSans-50" x="397.314453"/>
     <use xlink:href="#DejaVuSans-72" x="455.867188"/>
     <use xlink:href="#DejaVuSans-69" x="496.980469"/>
     <use xlink:href="#DejaVuSans-63" x="524.763672"/>
     <use xlink:href="#DejaVuSans-65" x="579.744141"/>
    </g>
   </g>
   <g id="legend_1">
    <g id="patch_7">
     <path d="M 911.144856 85.688125 
L 975.876106 85.688125 
Q 977.876106 85.688125 977.876106 83.688125 
L 977.876106 55.331875 
Q 977.876106 53.331875 975.876106 53.331875 
L 911.144856 53.331875 
Q 909.144856 53.331875 909.144856 55.331875 
L 909.144856 83.688125 
Q 909.144856 85.688125 911.144856 85.688125 
z
" style="fill: #ffffff; opacity: 0.8; stroke: #cccccc; stroke-linejoin: miter"/>
    </g>
    <g id="line2d_37">
     <path d="M 913.144856 61.430312 
L 923.144856 61.430312 
L 933.144856 61.430312 
" style="fill: none; stroke: #1f77b4; stroke-width: 1.5; stroke-linecap: square"/>
    </g>
    <g id="text_7">
     <!-- CLOSE -->
     <g transform="translate(941.144856 64.930312)scale(0.1 -0.1)">
      <defs>
       <path id="DejaVuSans-4c" d="M 628 4666 
L 1259 4666 
L 1259 531 
L 3531 531 
L 3531 0 
L 628 0 
L 628 4666 
z
" transform="scale(0.015625)"/>
       <path id="DejaVuSans-4f" d="M 2522 4238 
Q 1834 4238 1429 3725 
Q 1025 3213 1025 2328 
Q 1025 1447 1429 934 
Q 1834 422 2522 422 
Q 3209 422 3611 934 
Q 4013 1447 4013 2328 
Q 4013 3213 3611 3725 
Q 3209 4238 2522 4238 
z
M 2522 4750 
Q 3503 4750 4090 4092 
Q 4678 3434 4678 2328 
Q 4678 1225 4090 567 
Q 3503 -91 2522 -91 
Q 1538 -91 948 565 
Q 359 1222 359 2328 
Q 359 3434 948 4092 
Q 1538 4750 2522 4750 
z
" transform="scale(0.015625)"/>
       <path id="DejaVuSans-53" d="M 3425 4513 
L 3425 3897 
Q 3066 4069 2747 4153 
Q 2428 4238 2131 4238 
Q 1616 4238 1336 4038 
Q 1056 3838 1056 3469 
Q 1056 3159 1242 3001 
Q 1428 2844 1947 2747 
L 2328 2669 
Q 3034 2534 3370 2195 
Q 3706 1856 3706 1288 
Q 3706 609 3251 259 
Q 2797 -91 1919 -91 
Q 1588 -91 1214 -16 
Q 841 59 441 206 
L 441 856 
Q 825 641 1194 531 
Q 1563 422 1919 422 
Q 2459 422 2753 634 
Q 3047 847 3047 1241 
Q 3047 1584 2836 1778 
Q 2625 1972 2144 2069 
L 1759 2144 
Q 1053 2284 737 2584 
Q 422 2884 422 3419 
Q 422 4038 858 4394 
Q 1294 4750 2059 4750 
Q 2388 4750 2728 4690 
Q 3069 4631 3425 4513 
z
" transform="scale(0.015625)"/>
       <path id="DejaVuSans-45" d="M 628 4666 
L 3578 4666 
L 3578 4134 
L 1259 4134 
L 1259 2753 
L 3481 2753 
L 3481 2222 
L 1259 2222 
L 1259 531 
L 3634 531 
L 3634 0 
L 628 0 
L 628 4666 
z
" transform="scale(0.015625)"/>
      </defs>
      <use xlink:href="#DejaVuSans-43"/>
      <use xlink:href="#DejaVuSans-4c" x="69.824219"/>
      <use xlink:href="#DejaVuSans-4f" x="121.912109"/>
      <use xlink:href="#DejaVuSans-53" x="200.623047"/>
      <use xlink:href="#DejaVuSans-45" x="264.099609"/>
     </g>
    </g>
    <g id="line2d_38">
     <path d="M 913.144856 76.108437 
L 923.144856 76.108437 
L 933.144856 76.108437 
" style="fill: none; stroke: #ff7f0e; stroke-width: 1.5; stroke-linecap: square"/>
    </g>
    <g id="text_8">
     <!-- SMA5 -->
     <g transform="translate(941.144856 79.608437)scale(0.1 -0.1)">
      <defs>
       <path id="DejaVuSans-4d" d="M 628 4666 
L 1569 4666 
L 2759 1491 
L 3956 4666 
L 4897 4666 
L 4897 0 
L 4281 0 
L 4281 4097 
L 3078 897 
L 2444 897 
L 1241 4097 
L 1241 0 
L 628 0 
L 628 4666 
z
" transform="scale(0.015625)"/>
       <path id="DejaVuSans-41" d="M 2188 4044 
L 1331 1722 
L 3047 1722 
L 2188 4044 
z
M 1831 4666 
L 2547 4666 
L 4325 0 
L 3669 0 
L 3244 1197 
L 1141 1197 
L 716 0 
L 50 0 
L 1831 4666 
z
" transform="scale(0.015625)"/>
       <path id="DejaVuSans-35" d="M 691 4666 
L 3169 4666 
L 3169 4134 
L 1269 4134 
L 1269 2991 
Q 1406 3038 1543 3061 
Q 1681 3084 1819 3084 
Q 2600 3084 3056 2656 
Q 3513 2228 3513 1497 
Q 3513 744 3044 326 
Q 2575 -91 1722 -91 
Q 1428 -91 1123 -41 
Q 819 9 494 109 
L 494 744 
Q 775 591 1075 516 
Q 1375 441 1709 441 
Q 2250 441 2565 725 
Q 2881 1009 2881 1497 
Q 2881 1984 2565 2268 
Q 2250 2553 1709 2553 
Q 1456 2553 1204 2497 
Q 953 2441 691 2322 
L 691 4666 
z
" transform="scale(0.015625)"/>
      </defs>
      <use xlink:href="#DejaVuSans-53"/>
      <use xlink:href="#DejaVuSans-4d" x="63.476562"/>
      <use xlink:href="#DejaVuSans-41" x="149.755859"/>
      <use xlink:href="#DejaVuSans-35" x="218.164062"/>
     </g>
    </g>
   </g>
  </g>
  <g id="axes_2">
   <g id="patch_8">
    <path d="M 43.25 584.521875 
L 982.876106 584.521875 
L 982.876106 331.135938 
L 43.25 331.135938 
z
" style="fill: #ffffff"/>
   </g>
   <g id="matplotlib.axis_3">
    <g id="xtick_13">
     <g id="line2d_39">
      <path d="M 80.604757 584.521875 
L 80.604757 331.135938 
" clip-path="url(#pe1452ff26c)" style="fill: none; stroke-dasharray: 2.96,1.28; stroke-dashoffset: 0; stroke: #b0b0b0; stroke-width: 0.8"/>
     </g>
     <g id="line2d_40">
      <g>
       <use xlink:href="#mfad8e8107d" x="80.604757" y="584.521875" style="stroke: #000000; stroke-width: 0.8"/>
      </g>
     </g>
     <g id="text_9">
      <!-- 2022-01 -->
      <g transform="translate(59.713351 599.120312)scale(0.1 -0.1)">
       <defs>
        <path id="DejaVuSans-2d" d="M 313 2009 
L 1997 2009 
L 1997 1497 
L 313 1497 
L 313 2009 
z
" transform="scale(0.015625)"/>
        <path id="DejaVuSans-31" d="M 794 531 
L 1825 531 
L 1825 4091 
L 703 3866 
L 703 4441 
L 1819 4666 
L 2450 4666 
L 2450 531 
L 3481 531 
L 3481 0 
L 794 0 
L 794 531 
z
" transform="scale(0.015625)"/>
       </defs>
       <use xlink:href="#DejaVuSans-32"/>
       <use xlink:href="#DejaVuSans-30" x="63.623047"/>
       <use xlink:href="#DejaVuSans-32" x="127.246094"/>
       <use xlink:href="#DejaVuSans-32" x="190.869141"/>
       <use xlink:href="#DejaVuSans-2d" x="254.492188"/>
       <use xlink:href="#DejaVuSans-30" x="290.576172"/>
       <use xlink:href="#DejaVuSans-31" x="354.199219"/>
      </g>
     </g>
    </g>
    <g id="xtick_14">
     <g id="line2d_41">
      <path d="M 163.615328 584.521875 
L 163.615328 331.135938 
" clip-path="url(#pe1452ff26c)" style="fill: none; stroke-dasharray: 2.96,1.28; stroke-dashoffset: 0; stroke: #b0b0b0; stroke-width: 0.8"/>
     </g>
     <g id="line2d_42">
      <g>
       <use xlink:href="#mfad8e8107d" x="163.615328" y="584.521875" style="stroke: #000000; stroke-width: 0.8"/>
      </g>
     </g>
     <g id="text_10">
      <!-- 2022-02 -->
      <g transform="translate(142.723921 599.120312)scale(0.1 -0.1)">
       <use xlink:href="#DejaVuSans-32"/>
       <use xlink:href="#DejaVuSans-30" x="63.623047"/>
       <use xlink:href="#DejaVuSans-32" x="127.246094"/>
       <use xlink:href="#DejaVuSans-32" x="190.869141"/>
       <use xlink:href="#DejaVuSans-2d" x="254.492188"/>
       <use xlink:href="#DejaVuSans-30" x="290.576172"/>
       <use xlink:href="#DejaVuSans-32" x="354.199219"/>
      </g>
     </g>
    </g>
    <g id="xtick_15">
     <g id="line2d_43">
      <path d="M 238.592617 584.521875 
L 238.592617 331.135938 
" clip-path="url(#pe1452ff26c)" style="fill: none; stroke-dasharray: 2.96,1.28; stroke-dashoffset: 0; stroke: #b0b0b0; stroke-width: 0.8"/>
     </g>
     <g id="line2d_44">
      <g>
       <use xlink:href="#mfad8e8107d" x="238.592617" y="584.521875" style="stroke: #000000; stroke-width: 0.8"/>
      </g>
     </g>
     <g id="text_11">
      <!-- 2022-03 -->
      <g transform="translate(217.701211 599.120312)scale(0.1 -0.1)">
       <defs>
        <path id="DejaVuSans-33" d="M 2597 2516 
Q 3050 2419 3304 2112 
Q 3559 1806 3559 1356 
Q 3559 666 3084 287 
Q 2609 -91 1734 -91 
Q 1441 -91 1130 -33 
Q 819 25 488 141 
L 488 750 
Q 750 597 1062 519 
Q 1375 441 1716 441 
Q 2309 441 2620 675 
Q 2931 909 2931 1356 
Q 2931 1769 2642 2001 
Q 2353 2234 1838 2234 
L 1294 2234 
L 1294 2753 
L 1863 2753 
Q 2328 2753 2575 2939 
Q 2822 3125 2822 3475 
Q 2822 3834 2567 4026 
Q 2313 4219 1838 4219 
Q 1578 4219 1281 4162 
Q 984 4106 628 3988 
L 628 4550 
Q 988 4650 1302 4700 
Q 1616 4750 1894 4750 
Q 2613 4750 3031 4423 
Q 3450 4097 3450 3541 
Q 3450 3153 3228 2886 
Q 3006 2619 2597 2516 
z
" transform="scale(0.015625)"/>
       </defs>
       <use xlink:href="#DejaVuSans-32"/>
       <use xlink:href="#DejaVuSans-30" x="63.623047"/>
       <use xlink:href="#DejaVuSans-32" x="127.246094"/>
       <use xlink:href="#DejaVuSans-32" x="190.869141"/>
       <use xlink:href="#DejaVuSans-2d" x="254.492188"/>
       <use xlink:href="#DejaVuSans-30" x="290.576172"/>
       <use xlink:href="#DejaVuSans-33" x="354.199219"/>
      </g>
     </g>
    </g>
    <g id="xtick_16">
     <g id="line2d_45">
      <path d="M 321.603188 584.521875 
L 321.603188 331.135938 
" clip-path="url(#pe1452ff26c)" style="fill: none; stroke-dasharray: 2.96,1.28; stroke-dashoffset: 0; stroke: #b0b0b0; stroke-width: 0.8"/>
     </g>
     <g id="line2d_46">
      <g>
       <use xlink:href="#mfad8e8107d" x="321.603188" y="584.521875" style="stroke: #000000; stroke-width: 0.8"/>
      </g>
     </g>
     <g id="text_12">
      <!-- 2022-04 -->
      <g transform="translate(300.711782 599.120312)scale(0.1 -0.1)">
       <use xlink:href="#DejaVuSans-32"/>
       <use xlink:href="#DejaVuSans-30" x="63.623047"/>
       <use xlink:href="#DejaVuSans-32" x="127.246094"/>
       <use xlink:href="#DejaVuSans-32" x="190.869141"/>
       <use xlink:href="#DejaVuSans-2d" x="254.492188"/>
       <use xlink:href="#DejaVuSans-30" x="290.576172"/>
       <use xlink:href="#DejaVuSans-34" x="354.199219"/>
      </g>
     </g>
    </g>
    <g id="xtick_17">
     <g id="line2d_47">
      <path d="M 401.935999 584.521875 
L 401.935999 331.135938 
" clip-path="url(#pe1452ff26c)" style="fill: none; stroke-dasharray: 2.96,1.28; stroke-dashoffset: 0; stroke: #b0b0b0; stroke-width: 0.8"/>
     </g>
     <g id="line2d_48">
      <g>
       <use xlink:href="#mfad8e8107d" x="401.935999" y="584.521875" style="stroke: #000000; stroke-width: 0.8"/>
      </g>
     </g>
     <g id="text_13">
      <!-- 2022-05 -->
      <g transform="translate(381.044592 599.120312)scale(0.1 -0.1)">
       <use xlink:href="#DejaVuSans-32"/>
       <use xlink:href="#DejaVuSans-30" x="63.623047"/>
       <use xlink:href="#DejaVuSans-32" x="127.246094"/>
       <use xlink:href="#DejaVuSans-32" x="190.869141"/>
       <use xlink:href="#DejaVuSans-2d" x="254.492188"/>
       <use xlink:href="#DejaVuSans-30" x="290.576172"/>
       <use xlink:href="#DejaVuSans-35" x="354.199219"/>
      </g>
     </g>
    </g>
    <g id="xtick_18">
     <g id="line2d_49">
      <path d="M 484.946569 584.521875 
L 484.946569 331.135938 
" clip-path="url(#pe1452ff26c)" style="fill: none; stroke-dasharray: 2.96,1.28; stroke-dashoffset: 0; stroke: #b0b0b0; stroke-width: 0.8"/>
     </g>
     <g id="line2d_50">
      <g>
       <use xlink:href="#mfad8e8107d" x="484.946569" y="584.521875" style="stroke: #000000; stroke-width: 0.8"/>
      </g>
     </g>
     <g id="text_14">
      <!-- 2022-06 -->
      <g transform="translate(464.055163 599.120312)scale(0.1 -0.1)">
       <use xlink:href="#DejaVuSans-32"/>
       <use xlink:href="#DejaVuSans-30" x="63.623047"/>
       <use xlink:href="#DejaVuSans-32" x="127.246094"/>
       <use xlink:href="#DejaVuSans-32" x="190.869141"/>
       <use xlink:href="#DejaVuSans-2d" x="254.492188"/>
       <use xlink:href="#DejaVuSans-30" x="290.576172"/>
       <use xlink:href="#DejaVuSans-36" x="354.199219"/>
      </g>
     </g>
    </g>
    <g id="xtick_19">
     <g id="line2d_51">
      <path d="M 565.27938 584.521875 
L 565.27938 331.135938 
" clip-path="url(#pe1452ff26c)" style="fill: none; stroke-dasharray: 2.96,1.28; stroke-dashoffset: 0; stroke: #b0b0b0; stroke-width: 0.8"/>
     </g>
     <g id="line2d_52">
      <g>
       <use xlink:href="#mfad8e8107d" x="565.27938" y="584.521875" style="stroke: #000000; stroke-width: 0.8"/>
      </g>
     </g>
     <g id="text_15">
      <!-- 2022-07 -->
      <g transform="translate(544.387973 599.120312)scale(0.1 -0.1)">
       <defs>
        <path id="DejaVuSans-37" d="M 525 4666 
L 3525 4666 
L 3525 4397 
L 1831 0 
L 1172 0 
L 2766 4134 
L 525 4134 
L 525 4666 
z
" transform="scale(0.015625)"/>
       </defs>
       <use xlink:href="#DejaVuSans-32"/>
       <use xlink:href="#DejaVuSans-30" x="63.623047"/>
       <use xlink:href="#DejaVuSans-32" x="127.246094"/>
       <use xlink:href="#DejaVuSans-32" x="190.869141"/>
       <use xlink:href="#DejaVuSans-2d" x="254.492188"/>
       <use xlink:href="#DejaVuSans-30" x="290.576172"/>
       <use xlink:href="#DejaVuSans-37" x="354.199219"/>
      </g>
     </g>
    </g>
    <g id="xtick_20">
     <g id="line2d_53">
      <path d="M 648.28995 584.521875 
L 648.28995 331.135938 
" clip-path="url(#pe1452ff26c)" style="fill: none; stroke-dasharray: 2.96,1.28; stroke-dashoffset: 0; stroke: #b0b0b0; stroke-width: 0.8"/>
     </g>
     <g id="line2d_54">
      <g>
       <use xlink:href="#mfad8e8107d" x="648.28995" y="584.521875" style="stroke: #000000; stroke-width: 0.8"/>
      </g>
     </g>
     <g id="text_16">
      <!-- 2022-08 -->
      <g transform="translate(627.398544 599.120312)scale(0.1 -0.1)">
       <use xlink:href="#DejaVuSans-32"/>
       <use xlink:href="#DejaVuSans-30" x="63.623047"/>
       <use xlink:href="#DejaVuSans-32" x="127.246094"/>
       <use xlink:href="#DejaVuSans-32" x="190.869141"/>
       <use xlink:href="#DejaVuSans-2d" x="254.492188"/>
       <use xlink:href="#DejaVuSans-30" x="290.576172"/>
       <use xlink:href="#DejaVuSans-38" x="354.199219"/>
      </g>
     </g>
    </g>
    <g id="xtick_21">
     <g id="line2d_55">
      <path d="M 731.300521 584.521875 
L 731.300521 331.135938 
" clip-path="url(#pe1452ff26c)" style="fill: none; stroke-dasharray: 2.96,1.28; stroke-dashoffset: 0; stroke: #b0b0b0; stroke-width: 0.8"/>
     </g>
     <g id="line2d_56">
      <g>
       <use xlink:href="#mfad8e8107d" x="731.300521" y="584.521875" style="stroke: #000000; stroke-width: 0.8"/>
      </g>
     </g>
     <g id="text_17">
      <!-- 2022-09 -->
      <g transform="translate(710.409115 599.120312)scale(0.1 -0.1)">
       <defs>
        <path id="DejaVuSans-39" d="M 703 97 
L 703 672 
Q 941 559 1184 500 
Q 1428 441 1663 441 
Q 2288 441 2617 861 
Q 2947 1281 2994 2138 
Q 2813 1869 2534 1725 
Q 2256 1581 1919 1581 
Q 1219 1581 811 2004 
Q 403 2428 403 3163 
Q 403 3881 828 4315 
Q 1253 4750 1959 4750 
Q 2769 4750 3195 4129 
Q 3622 3509 3622 2328 
Q 3622 1225 3098 567 
Q 2575 -91 1691 -91 
Q 1453 -91 1209 -44 
Q 966 3 703 97 
z
M 1959 2075 
Q 2384 2075 2632 2365 
Q 2881 2656 2881 3163 
Q 2881 3666 2632 3958 
Q 2384 4250 1959 4250 
Q 1534 4250 1286 3958 
Q 1038 3666 1038 3163 
Q 1038 2656 1286 2365 
Q 1534 2075 1959 2075 
z
" transform="scale(0.015625)"/>
       </defs>
       <use xlink:href="#DejaVuSans-32"/>
       <use xlink:href="#DejaVuSans-30" x="63.623047"/>
       <use xlink:href="#DejaVuSans-32" x="127.246094"/>
       <use xlink:href="#DejaVuSans-32" x="190.869141"/>
       <use xlink:href="#DejaVuSans-2d" x="254.492188"/>
       <use xlink:href="#DejaVuSans-30" x="290.576172"/>
       <use xlink:href="#DejaVuSans-39" x="354.199219"/>
      </g>
     </g>
    </g>
    <g id="xtick_22">
     <g id="line2d_57">
      <path d="M 811.633332 584.521875 
L 811.633332 331.135938 
" clip-path="url(#pe1452ff26c)" style="fill: none; stroke-dasharray: 2.96,1.28; stroke-dashoffset: 0; stroke: #b0b0b0; stroke-width: 0.8"/>
     </g>
     <g id="line2d_58">
      <g>
       <use xlink:href="#mfad8e8107d" x="811.633332" y="584.521875" style="stroke: #000000; stroke-width: 0.8"/>
      </g>
     </g>
     <g id="text_18">
      <!-- 2022-10 -->
      <g transform="translate(790.741925 599.120312)scale(0.1 -0.1)">
       <use xlink:href="#DejaVuSans-32"/>
       <use xlink:href="#DejaVuSans-30" x="63.623047"/>
       <use xlink:href="#DejaVuSans-32" x="127.246094"/>
       <use xlink:href="#DejaVuSans-32" x="190.869141"/>
       <use xlink:href="#DejaVuSans-2d" x="254.492188"/>
       <use xlink:href="#DejaVuSans-31" x="290.576172"/>
       <use xlink:href="#DejaVuSans-30" x="354.199219"/>
      </g>
     </g>
    </g>
    <g id="xtick_23">
     <g id="line2d_59">
      <path d="M 894.643902 584.521875 
L 894.643902 331.135938 
" clip-path="url(#pe1452ff26c)" style="fill: none; stroke-dasharray: 2.96,1.28; stroke-dashoffset: 0; stroke: #b0b0b0; stroke-width: 0.8"/>
     </g>
     <g id="line2d_60">
      <g>
       <use xlink:href="#mfad8e8107d" x="894.643902" y="584.521875" style="stroke: #000000; stroke-width: 0.8"/>
      </g>
     </g>
     <g id="text_19">
      <!-- 2022-11 -->
      <g transform="translate(873.752496 599.120312)scale(0.1 -0.1)">
       <use xlink:href="#DejaVuSans-32"/>
       <use xlink:href="#DejaVuSans-30" x="63.623047"/>
       <use xlink:href="#DejaVuSans-32" x="127.246094"/>
       <use xlink:href="#DejaVuSans-32" x="190.869141"/>
       <use xlink:href="#DejaVuSans-2d" x="254.492188"/>
       <use xlink:href="#DejaVuSans-31" x="290.576172"/>
       <use xlink:href="#DejaVuSans-31" x="354.199219"/>
      </g>
     </g>
    </g>
    <g id="xtick_24">
     <g id="line2d_61">
      <path d="M 974.976713 584.521875 
L 974.976713 331.135938 
" clip-path="url(#pe1452ff26c)" style="fill: none; stroke-dasharray: 2.96,1.28; stroke-dashoffset: 0; stroke: #b0b0b0; stroke-width: 0.8"/>
     </g>
     <g id="line2d_62">
      <g>
       <use xlink:href="#mfad8e8107d" x="974.976713" y="584.521875" style="stroke: #000000; stroke-width: 0.8"/>
      </g>
     </g>
     <g id="text_20">
      <!-- 2022-12 -->
      <g transform="translate(954.085307 599.120312)scale(0.1 -0.1)">
       <use xlink:href="#DejaVuSans-32"/>
       <use xlink:href="#DejaVuSans-30" x="63.623047"/>
       <use xlink:href="#DejaVuSans-32" x="127.246094"/>
       <use xlink:href="#DejaVuSans-32" x="190.869141"/>
       <use xlink:href="#DejaVuSans-2d" x="254.492188"/>
       <use xlink:href="#DejaVuSans-31" x="290.576172"/>
       <use xlink:href="#DejaVuSans-32" x="354.199219"/>
      </g>
     </g>
    </g>
   </g>
   <g id="matplotlib.axis_4">
    <g id="ytick_6">
     <g id="line2d_63">
      <path d="M 43.25 569.834805 
L 982.876106 569.834805 
" clip-path="url(#pe1452ff26c)" style="fill: none; stroke-dasharray: 2.96,1.28; stroke-dashoffset: 0; stroke: #b0b0b0; stroke-width: 0.8"/>
     </g>
     <g id="line2d_64">
      <g>
       <use xlink:href="#m12b241515a" x="43.25" y="569.834805" style="stroke: #000000; stroke-width: 0.8"/>
      </g>
     </g>
     <g id="text_21">
      <!-- −75 -->
      <g transform="translate(15.145313 573.634024)scale(0.1 -0.1)">
       <defs>
        <path id="DejaVuSans-2212" d="M 678 2272 
L 4684 2272 
L 4684 1741 
L 678 1741 
L 678 2272 
z
" transform="scale(0.015625)"/>
       </defs>
       <use xlink:href="#DejaVuSans-2212"/>
       <use xlink:href="#DejaVuSans-37" x="83.789062"/>
       <use xlink:href="#DejaVuSans-35" x="147.412109"/>
      </g>
     </g>
    </g>
    <g id="ytick_7">
     <g id="line2d_65">
      <path d="M 43.25 539.955727 
L 982.876106 539.955727 
" clip-path="url(#pe1452ff26c)" style="fill: none; stroke-dasharray: 2.96,1.28; stroke-dashoffset: 0; stroke: #b0b0b0; stroke-width: 0.8"/>
     </g>
     <g id="line2d_66">
      <g>
       <use xlink:href="#m12b241515a" x="43.25" y="539.955727" style="stroke: #000000; stroke-width: 0.8"/>
      </g>
     </g>
     <g id="text_22">
      <!-- −50 -->
      <g transform="translate(15.145313 543.754946)scale(0.1 -0.1)">
       <use xlink:href="#DejaVuSans-2212"/>
       <use xlink:href="#DejaVuSans-35" x="83.789062"/>
       <use xlink:href="#DejaVuSans-30" x="147.412109"/>
      </g>
     </g>
    </g>
    <g id="ytick_8">
     <g id="line2d_67">
      <path d="M 43.25 510.076649 
L 982.876106 510.076649 
" clip-path="url(#pe1452ff26c)" style="fill: none; stroke-dasharray: 2.96,1.28; stroke-dashoffset: 0; stroke: #b0b0b0; stroke-width: 0.8"/>
     </g>
     <g id="line2d_68">
      <g>
       <use xlink:href="#m12b241515a" x="43.25" y="510.076649" style="stroke: #000000; stroke-width: 0.8"/>
      </g>
     </g>
     <g id="text_23">
      <!-- −25 -->
      <g transform="translate(15.145313 513.875867)scale(0.1 -0.1)">
       <use xlink:href="#DejaVuSans-2212"/>
       <use xlink:href="#DejaVuSans-32" x="83.789062"/>
       <use xlink:href="#DejaVuSans-35" x="147.412109"/>
      </g>
     </g>
    </g>
    <g id="ytick_9">
     <g id="line2d_69">
      <path d="M 43.25 480.197571 
L 982.876106 480.197571 
" clip-path="url(#pe1452ff26c)" style="fill: none; stroke-dasharray: 2.96,1.28; stroke-dashoffset: 0; stroke: #b0b0b0; stroke-width: 0.8"/>
     </g>
     <g id="line2d_70">
      <g>
       <use xlink:href="#m12b241515a" x="43.25" y="480.197571" style="stroke: #000000; stroke-width: 0.8"/>
      </g>
     </g>
     <g id="text_24">
      <!-- 0 -->
      <g transform="translate(29.8875 483.996789)scale(0.1 -0.1)">
       <use xlink:href="#DejaVuSans-30"/>
      </g>
     </g>
    </g>
    <g id="ytick_10">
     <g id="line2d_71">
      <path d="M 43.25 450.318492 
L 982.876106 450.318492 
" clip-path="url(#pe1452ff26c)" style="fill: none; stroke-dasharray: 2.96,1.28; stroke-dashoffset: 0; stroke: #b0b0b0; stroke-width: 0.8"/>
     </g>
     <g id="line2d_72">
      <g>
       <use xlink:href="#m12b241515a" x="43.25" y="450.318492" style="stroke: #000000; stroke-width: 0.8"/>
      </g>
     </g>
     <g id="text_25">
      <!-- 25 -->
      <g transform="translate(23.525 454.117711)scale(0.1 -0.1)">
       <use xlink:href="#DejaVuSans-32"/>
       <use xlink:href="#DejaVuSans-35" x="63.623047"/>
      </g>
     </g>
    </g>
    <g id="ytick_11">
     <g id="line2d_73">
      <path d="M 43.25 420.439414 
L 982.876106 420.439414 
" clip-path="url(#pe1452ff26c)" style="fill: none; stroke-dasharray: 2.96,1.28; stroke-dashoffset: 0; stroke: #b0b0b0; stroke-width: 0.8"/>
     </g>
     <g id="line2d_74">
      <g>
       <use xlink:href="#m12b241515a" x="43.25" y="420.439414" style="stroke: #000000; stroke-width: 0.8"/>
      </g>
     </g>
     <g id="text_26">
      <!-- 50 -->
      <g transform="translate(23.525 424.238633)scale(0.1 -0.1)">
       <use xlink:href="#DejaVuSans-35"/>
       <use xlink:href="#DejaVuSans-30" x="63.623047"/>
      </g>
     </g>
    </g>
    <g id="ytick_12">
     <g id="line2d_75">
      <path d="M 43.25 390.560336 
L 982.876106 390.560336 
" clip-path="url(#pe1452ff26c)" style="fill: none; stroke-dasharray: 2.96,1.28; stroke-dashoffset: 0; stroke: #b0b0b0; stroke-width: 0.8"/>
     </g>
     <g id="line2d_76">
      <g>
       <use xlink:href="#m12b241515a" x="43.25" y="390.560336" style="stroke: #000000; stroke-width: 0.8"/>
      </g>
     </g>
     <g id="text_27">
      <!-- 75 -->
      <g transform="translate(23.525 394.359555)scale(0.1 -0.1)">
       <use xlink:href="#DejaVuSans-37"/>
       <use xlink:href="#DejaVuSans-35" x="63.623047"/>
      </g>
     </g>
    </g>
    <g id="ytick_13">
     <g id="line2d_77">
      <path d="M 43.25 360.681258 
L 982.876106 360.681258 
" clip-path="url(#pe1452ff26c)" style="fill: none; stroke-dasharray: 2.96,1.28; stroke-dashoffset: 0; stroke: #b0b0b0; stroke-width: 0.8"/>
     </g>
     <g id="line2d_78">
      <g>
       <use xlink:href="#m12b241515a" x="43.25" y="360.681258" style="stroke: #000000; stroke-width: 0.8"/>
      </g>
     </g>
     <g id="text_28">
      <!-- 100 -->
      <g transform="translate(17.1625 364.480477)scale(0.1 -0.1)">
       <use xlink:href="#DejaVuSans-31"/>
       <use xlink:href="#DejaVuSans-30" x="63.623047"/>
       <use xlink:href="#DejaVuSans-30" x="127.246094"/>
      </g>
     </g>
    </g>
   </g>
   <g id="line2d_79">
    <path d="M 85.960278 480.197571 
L 88.638038 476.839047 
L 91.315798 474.481995 
L 93.993559 473.202671 
L 96.671319 468.971376 
L 104.7046 467.369623 
L 107.38236 466.530875 
L 110.060121 463.965699 
L 112.737881 463.889099 
L 115.415641 465.537208 
L 123.448922 466.042336 
L 126.126683 468.538684 
L 128.804443 471.334601 
L 131.482203 473.365863 
L 134.159964 473.236656 
L 142.193245 477.593402 
L 144.871005 484.683433 
L 150.226526 499.775192 
L 152.904286 509.992868 
L 160.937567 519.01215 
L 163.615328 524.222671 
L 166.293088 523.719773 
L 168.970848 524.41337 
L 171.648609 526.188487 
L 179.68189 530.874274 
L 182.35965 535.619023 
L 185.03741 533.140545 
L 187.715171 529.868794 
L 190.392931 531.632039 
L 198.426212 536.204937 
L 201.103972 533.922278 
L 203.781733 533.751838 
L 206.459493 530.867019 
L 209.137254 529.459713 
L 217.170535 528.184955 
L 219.848295 530.553907 
L 222.526055 528.858057 
L 225.203816 536.475334 
L 227.881576 536.486029 
L 235.914857 532.753217 
L 241.270378 529.69998 
L 243.948138 532.176123 
L 246.625898 540.677017 
L 254.659179 555.534464 
L 257.33694 564.806047 
L 260.0147 565.832736 
L 262.69246 555.216492 
L 265.370221 547.138594 
L 273.403502 539.435414 
L 276.081262 530.309098 
L 278.759023 513.944793 
L 281.436783 496.289758 
L 292.147824 484.637187 
L 294.825585 478.738 
L 297.503345 475.68097 
L 300.181105 474.302932 
L 302.858866 470.199724 
L 310.892147 472.44756 
L 313.569907 474.466804 
L 316.247667 472.113403 
L 318.925428 469.038619 
L 321.603188 463.768136 
L 329.636469 458.9607 
L 332.314229 454.243634 
L 334.99199 448.769396 
L 337.66975 448.29436 
L 340.347511 445.246788 
L 348.380792 450.467826 
L 351.058552 461.867799 
L 353.736312 471.924044 
L 367.125114 480.058238 
L 369.802874 489.833214 
L 372.480635 493.547445 
L 375.158395 492.74577 
L 377.836155 490.068585 
L 385.869436 489.574901 
L 388.547197 486.375502 
L 391.224957 486.224101 
L 393.902717 481.598598 
L 396.580478 481.217741 
L 404.613759 480.869659 
L 409.96928 490.112023 
L 412.64704 499.362803 
L 415.3248 512.603946 
L 423.358081 526.136133 
L 426.035842 535.852635 
L 428.713602 546.554338 
L 431.391362 558.863423 
L 434.069123 566.967633 
L 442.102404 573.004332 
L 447.457924 569.814442 
L 450.135685 571.811265 
L 452.813445 570.27359 
L 460.846726 563.344881 
L 463.524487 558.512441 
L 468.880007 555.527104 
L 471.557768 550.623318 
L 479.591049 540.15586 
L 482.268809 529.289263 
L 484.946569 524.047411 
L 487.62433 515.576058 
L 490.30209 513.31564 
L 498.335371 513.416625 
L 501.013131 516.805865 
L 503.690892 522.13708 
L 506.368652 526.245856 
L 509.046412 527.772513 
L 519.757454 525.571451 
L 522.435214 525.293962 
L 525.112974 526.049708 
L 527.790735 535.423182 
L 535.824016 531.918536 
L 538.501776 529.16005 
L 541.179537 528.20446 
L 543.857297 520.859958 
L 546.535057 512.382977 
L 554.568338 507.862851 
L 557.246099 506.575382 
L 559.923859 506.986842 
L 562.601619 507.790419 
L 565.27938 501.579918 
L 573.312661 493.219553 
L 575.990421 487.989176 
L 581.345942 471.632855 
L 584.023702 464.05465 
L 592.056983 456.61382 
L 594.734744 452.749873 
L 597.412504 446.72716 
L 600.090264 441.975226 
L 602.768025 436.986009 
L 610.801306 434.098646 
L 613.479066 433.377165 
L 616.156826 430.542525 
L 618.834587 424.950045 
L 621.512347 421.617567 
L 629.545628 422.005266 
L 632.223388 424.19252 
L 634.901149 423.312421 
L 637.578909 418.942752 
L 640.256669 411.312079 
L 648.28995 401.837915 
L 650.967711 392.991379 
L 653.645471 386.787186 
L 656.323232 380.049632 
L 659.000992 367.64149 
L 667.034273 358.392316 
L 672.389794 353.730425 
L 675.067554 351.15211 
L 677.745314 352.333089 
L 688.456356 350.592048 
L 691.134116 345.885532 
L 693.811876 343.0661 
L 696.489637 342.65348 
L 704.522918 347.773236 
L 707.200678 353.512834 
L 709.878438 360.130287 
L 712.556199 367.398241 
L 715.233959 374.029979 
L 723.26724 377.246538 
L 725.945001 377.51238 
L 731.300521 370.882271 
L 733.978282 362.509706 
L 742.011563 360.527984 
L 744.689323 361.95513 
L 747.367083 365.560075 
L 750.044844 363.41747 
L 752.722604 365.500801 
L 760.755885 367.157797 
L 763.433645 369.758517 
L 766.111406 371.939199 
L 768.789166 371.76379 
L 771.466926 382.66308 
L 779.500207 391.575025 
L 782.177968 396.983533 
L 787.533489 410.519998 
L 790.211249 417.61164 
L 798.24453 423.733221 
L 800.92229 428.972586 
L 803.600051 436.955278 
L 806.277811 449.95189 
L 808.955571 461.804335 
L 816.988852 474.546396 
L 819.666613 481.695538 
L 825.022133 489.63456 
L 827.699894 495.685076 
L 835.733175 501.884104 
L 838.410935 509.682896 
L 841.088695 511.343098 
L 843.766456 515.487569 
L 846.444216 518.508877 
L 854.477497 513.608247 
L 857.155258 507.361985 
L 859.833018 506.706371 
L 862.510778 503.526172 
L 865.188539 505.73119 
L 873.22182 506.614811 
L 875.89958 509.408639 
L 881.255101 516.403507 
L 883.932861 521.838274 
L 891.966142 523.34787 
L 894.643902 518.380395 
L 897.321663 514.940034 
L 902.677183 507.104241 
L 910.710465 505.605052 
L 916.065985 501.890892 
L 921.421506 494.893811 
L 929.454787 492.658131 
L 934.810308 484.995176 
L 937.488068 480.922997 
L 940.165828 477.147466 
L 940.165828 477.147466 
" clip-path="url(#pe1452ff26c)" style="fill: none; stroke: #1f77b4; stroke-width: 1.5; stroke-linecap: square"/>
   </g>
   <g id="line2d_80">
    <path d="M 85.960278 480.197571 
L 88.638038 478.331724 
L 91.315798 476.753966 
L 93.993559 475.550953 
L 96.671319 473.593678 
L 104.7046 471.906613 
L 107.38236 470.546157 
L 110.060121 468.964749 
L 112.737881 467.792249 
L 115.415641 467.286989 
L 123.448922 467.014666 
L 126.126683 467.341961 
L 128.804443 468.186942 
L 131.482203 469.270376 
L 134.159964 470.09256 
L 142.193245 471.636177 
L 150.226526 479.493079 
L 152.904286 485.682232 
L 160.937567 492.425965 
L 163.615328 498.844507 
L 166.293088 503.856542 
L 168.970848 507.992321 
L 171.648609 511.648822 
L 179.68189 515.508493 
L 182.35965 519.542792 
L 185.03741 522.268934 
L 190.392931 525.36232 
L 198.426212 527.533531 
L 201.103972 528.812547 
L 203.781733 529.801188 
L 206.459493 530.01449 
L 217.170535 529.559634 
L 219.848295 529.758553 
L 222.526055 529.578407 
L 225.203816 530.958079 
L 227.881576 532.063853 
L 235.914857 532.201744 
L 241.270378 531.701338 
L 243.948138 531.796303 
L 246.625898 533.572567 
L 254.659179 537.965185 
L 257.33694 543.333592 
L 260.0147 547.833577 
L 262.69246 549.310201 
L 265.370221 548.87587 
L 273.403502 546.987745 
L 276.081262 543.651968 
L 278.759023 537.710465 
L 281.436783 529.426248 
L 292.147824 520.468371 
L 294.825585 512.122248 
L 297.503345 504.833958 
L 300.181105 498.72773 
L 302.858866 493.022112 
L 310.892147 488.907191 
L 318.925428 480.398091 
L 321.603188 477.072097 
L 329.636469 473.449814 
L 332.314229 469.608576 
L 334.99199 465.440738 
L 340.347511 458.658525 
L 348.380792 457.020385 
L 351.058552 457.989868 
L 353.736312 460.776704 
L 367.125114 464.633011 
L 369.802874 469.673052 
L 372.480635 474.447931 
L 375.158395 478.107499 
L 377.836155 480.499716 
L 385.869436 482.314753 
L 388.547197 483.126903 
L 391.224957 483.746343 
L 396.580478 482.896983 
L 404.613759 482.491518 
L 409.96928 484.015619 
L 412.64704 487.085056 
L 415.3248 492.188834 
L 423.358081 498.978294 
L 426.035842 506.353162 
L 428.713602 514.393397 
L 434.069123 532.023449 
L 442.102404 540.219625 
L 444.780164 546.464967 
L 447.457924 551.134862 
L 450.135685 555.270143 
L 452.813445 558.270832 
L 460.846726 559.285642 
L 463.524487 559.131002 
L 466.202247 558.703336 
L 468.880007 558.06809 
L 471.557768 556.579135 
L 479.591049 553.29448 
L 484.946569 543.604232 
L 487.62433 537.998597 
L 490.30209 533.062005 
L 498.335371 529.132929 
L 501.013131 526.667516 
L 503.690892 525.761429 
L 506.368652 525.858315 
L 509.046412 526.241154 
L 517.079693 526.227335 
L 522.435214 525.935719 
L 525.112974 525.958517 
L 527.790735 527.85145 
L 535.824016 528.664867 
L 538.501776 528.763904 
L 541.179537 528.652015 
L 543.857297 527.093604 
L 546.535057 524.151478 
L 554.568338 520.893753 
L 557.246099 518.030079 
L 559.923859 515.821431 
L 562.601619 514.215229 
L 565.27938 511.688167 
L 573.312661 507.994444 
L 575.990421 503.99339 
L 578.668181 499.144862 
L 581.345942 493.64246 
L 584.023702 487.724898 
L 592.056983 481.502683 
L 600.090264 464.352748 
L 602.768025 458.8794 
L 610.801306 453.923249 
L 613.479066 449.814033 
L 616.156826 445.959731 
L 621.512347 437.729748 
L 629.545628 434.584852 
L 632.223388 432.506386 
L 634.901149 430.667593 
L 637.578909 428.322625 
L 640.256669 424.920515 
L 648.28995 420.303995 
L 653.645471 409.230615 
L 656.323232 403.394418 
L 659.000992 396.243833 
L 667.034273 388.673529 
L 672.389794 381.684908 
L 675.067554 375.578349 
L 677.745314 370.929297 
L 688.456356 366.861847 
L 691.134116 362.666584 
L 693.811876 358.746487 
L 696.489637 355.527886 
L 704.522918 353.976956 
L 707.200678 353.884131 
L 709.878438 355.133362 
L 712.556199 357.586338 
L 715.233959 360.875066 
L 723.26724 364.149361 
L 725.945001 366.821965 
L 731.300521 367.634026 
L 733.978282 366.609162 
L 742.011563 365.392926 
L 744.689323 364.705367 
L 747.367083 364.876309 
L 750.044844 364.584541 
L 760.755885 365.245794 
L 763.433645 366.148339 
L 766.111406 367.306511 
L 768.789166 368.197967 
L 771.466926 371.090989 
L 779.500207 375.187796 
L 782.177968 379.546944 
L 784.855728 384.360292 
L 787.533489 389.592233 
L 790.211249 395.196115 
L 798.24453 400.903536 
L 800.92229 406.517346 
L 803.600051 412.604932 
L 806.277811 420.074324 
L 808.955571 428.420326 
L 816.988852 437.64554 
L 819.666613 446.45554 
L 825.022133 455.091344 
L 827.699894 463.21009 
L 835.733175 470.944893 
L 838.410935 478.692494 
L 841.088695 485.222615 
L 843.766456 491.275606 
L 846.444216 496.72226 
L 854.477497 500.099457 
L 857.155258 501.551963 
L 859.833018 502.582844 
L 862.510778 502.77151 
L 865.188539 503.363446 
L 873.22182 504.013719 
L 881.255101 507.354864 
L 883.932861 510.251546 
L 891.966142 512.870811 
L 894.643902 513.972727 
L 897.321663 514.166189 
L 899.999423 513.529165 
L 902.677183 512.24418 
L 910.710465 510.916354 
L 916.065985 509.111262 
L 918.743746 506.957574 
L 921.421506 504.544821 
L 929.454787 502.167483 
L 932.132547 499.496949 
L 934.810308 496.596594 
L 940.165828 490.198993 
L 940.165828 490.198993 
" clip-path="url(#pe1452ff26c)" style="fill: none; stroke: #ff7f0e; stroke-width: 1.5; stroke-linecap: square"/>
   </g>
   <g id="patch_9">
    <path d="M 43.25 584.521875 
L 43.25 331.135938 
" style="fill: none; stroke: #000000; stroke-width: 0.8; stroke-linejoin: miter; stroke-linecap: square"/>
   </g>
   <g id="patch_10">
    <path d="M 982.876106 584.521875 
L 982.876106 331.135938 
" style="fill: none; stroke: #000000; stroke-width: 0.8; stroke-linejoin: miter; stroke-linecap: square"/>
   </g>
   <g id="patch_11">
    <path d="M 43.25 584.521875 
L 982.876106 584.521875 
" style="fill: none; stroke: #000000; stroke-width: 0.8; stroke-linejoin: miter; stroke-linecap: square"/>
   </g>
   <g id="patch_12">
    <path d="M 43.25 331.135938 
L 982.876106 331.135938 
" style="fill: none; stroke: #000000; stroke-width: 0.8; stroke-linejoin: miter; stroke-linecap: square"/>
   </g>
   <g id="text_29">
    <!-- MACD -->
    <g transform="translate(495.077115 325.135938)scale(0.12 -0.12)">
     <defs>
      <path id="DejaVuSans-44" d="M 1259 4147 
L 1259 519 
L 2022 519 
Q 2988 519 3436 956 
Q 3884 1394 3884 2338 
Q 3884 3275 3436 3711 
Q 2988 4147 2022 4147 
L 1259 4147 
z
M 628 4666 
L 1925 4666 
Q 3281 4666 3915 4102 
Q 4550 3538 4550 2338 
Q 4550 1131 3912 565 
Q 3275 0 1925 0 
L 628 0 
L 628 4666 
z
" transform="scale(0.015625)"/>
     </defs>
     <use xlink:href="#DejaVuSans-4d"/>
     <use xlink:href="#DejaVuSans-41" x="86.279297"/>
     <use xlink:href="#DejaVuSans-43" x="152.9375"/>
     <use xlink:href="#DejaVuSans-44" x="222.761719"/>
    </g>
   </g>
   <g id="legend_2">
    <g id="patch_13">
     <path d="M 913.899543 368.492188 
L 975.876106 368.492188 
Q 977.876106 368.492188 977.876106 366.492188 
L 977.876106 338.135938 
Q 977.876106 336.135938 975.876106 336.135938 
L 913.899543 336.135938 
Q 911.899543 336.135938 911.899543 338.135938 
L 911.899543 366.492188 
Q 911.899543 368.492188 913.899543 368.492188 
z
" style="fill: #ffffff; opacity: 0.8; stroke: #cccccc; stroke-linejoin: miter"/>
    </g>
    <g id="line2d_81">
     <path d="M 915.899543 344.234375 
L 925.899543 344.234375 
L 935.899543 344.234375 
" style="fill: none; stroke: #1f77b4; stroke-width: 1.5; stroke-linecap: square"/>
    </g>
    <g id="text_30">
     <!-- MACD -->
     <g transform="translate(943.899543 347.734375)scale(0.1 -0.1)">
      <use xlink:href="#DejaVuSans-4d"/>
      <use xlink:href="#DejaVuSans-41" x="86.279297"/>
      <use xlink:href="#DejaVuSans-43" x="152.9375"/>
      <use xlink:href="#DejaVuSans-44" x="222.761719"/>
     </g>
    </g>
    <g id="line2d_82">
     <path d="M 915.899543 358.9125 
L 925.899543 358.9125 
L 935.899543 358.9125 
" style="fill: none; stroke: #ff7f0e; stroke-width: 1.5; stroke-linecap: square"/>
    </g>
    <g id="text_31">
     <!-- SIG -->
     <g transform="translate(943.899543 362.4125)scale(0.1 -0.1)">
      <defs>
       <path id="DejaVuSans-49" d="M 628 4666 
L 1259 4666 
L 1259 0 
L 628 0 
L 628 4666 
z
" transform="scale(0.015625)"/>
       <path id="DejaVuSans-47" d="M 3809 666 
L 3809 1919 
L 2778 1919 
L 2778 2438 
L 4434 2438 
L 4434 434 
Q 4069 175 3628 42 
Q 3188 -91 2688 -91 
Q 1594 -91 976 548 
Q 359 1188 359 2328 
Q 359 3472 976 4111 
Q 1594 4750 2688 4750 
Q 3144 4750 3555 4637 
Q 3966 4525 4313 4306 
L 4313 3634 
Q 3963 3931 3569 4081 
Q 3175 4231 2741 4231 
Q 1884 4231 1454 3753 
Q 1025 3275 1025 2328 
Q 1025 1384 1454 906 
Q 1884 428 2741 428 
Q 3075 428 3337 486 
Q 3600 544 3809 666 
z
" transform="scale(0.015625)"/>
      </defs>
      <use xlink:href="#DejaVuSans-53"/>
      <use xlink:href="#DejaVuSans-49" x="63.476562"/>
      <use xlink:href="#DejaVuSans-47" x="92.96875"/>
     </g>
    </g>
   </g>
  </g>
  <g id="text_32">
   <!-- Pidilite Industries Limited -->
   <g transform="translate(428.195625 21.358125)scale(0.12 -0.12)">
    <defs>
     <path id="DejaVuSans-64" d="M 2906 2969 
L 2906 4863 
L 3481 4863 
L 3481 0 
L 2906 0 
L 2906 525 
Q 2725 213 2448 61 
Q 2172 -91 1784 -91 
Q 1150 -91 751 415 
Q 353 922 353 1747 
Q 353 2572 751 3078 
Q 1150 3584 1784 3584 
Q 2172 3584 2448 3432 
Q 2725 3281 2906 2969 
z
M 947 1747 
Q 947 1113 1208 752 
Q 1469 391 1925 391 
Q 2381 391 2643 752 
Q 2906 1113 2906 1747 
Q 2906 2381 2643 2742 
Q 2381 3103 1925 3103 
Q 1469 3103 1208 2742 
Q 947 2381 947 1747 
z
" transform="scale(0.015625)"/>
     <path id="DejaVuSans-74" d="M 1172 4494 
L 1172 3500 
L 2356 3500 
L 2356 3053 
L 1172 3053 
L 1172 1153 
Q 1172 725 1289 603 
Q 1406 481 1766 481 
L 2356 481 
L 2356 0 
L 1766 0 
Q 1100 0 847 248 
Q 594 497 594 1153 
L 594 3053 
L 172 3053 
L 172 3500 
L 594 3500 
L 594 4494 
L 1172 4494 
z
" transform="scale(0.015625)"/>
     <path id="DejaVuSans-75" d="M 544 1381 
L 544 3500 
L 1119 3500 
L 1119 1403 
Q 1119 906 1312 657 
Q 1506 409 1894 409 
Q 2359 409 2629 706 
Q 2900 1003 2900 1516 
L 2900 3500 
L 3475 3500 
L 3475 0 
L 2900 0 
L 2900 538 
Q 2691 219 2414 64 
Q 2138 -91 1772 -91 
Q 1169 -91 856 284 
Q 544 659 544 1381 
z
M 1991 3584 
L 1991 3584 
z
" transform="scale(0.015625)"/>
     <path id="DejaVuSans-6d" d="M 3328 2828 
Q 3544 3216 3844 3400 
Q 4144 3584 4550 3584 
Q 5097 3584 5394 3201 
Q 5691 2819 5691 2113 
L 5691 0 
L 5113 0 
L 5113 2094 
Q 5113 2597 4934 2840 
Q 4756 3084 4391 3084 
Q 3944 3084 3684 2787 
Q 3425 2491 3425 1978 
L 3425 0 
L 2847 0 
L 2847 2094 
Q 2847 2600 2669 2842 
Q 2491 3084 2119 3084 
Q 1678 3084 1418 2786 
Q 1159 2488 1159 1978 
L 1159 0 
L 581 0 
L 581 3500 
L 1159 3500 
L 1159 2956 
Q 1356 3278 1631 3431 
Q 1906 3584 2284 3584 
Q 2666 3584 2933 3390 
Q 3200 3197 3328 2828 
z
" transform="scale(0.015625)"/>
    </defs>
    <use xlink:href="#DejaVuSans-50"/>
    <use xlink:href="#DejaVuSans-69" x="58.052734"/>
    <use xlink:href="#DejaVuSans-64" x="85.835938"/>
    <use xlink:href="#DejaVuSans-69" x="149.3125"/>
    <use xlink:href="#DejaVuSans-6c" x="177.095703"/>
    <use xlink:href="#DejaVuSans-69" x="204.878906"/>
    <use xlink:href="#DejaVuSans-74" x="232.662109"/>
    <use xlink:href="#DejaVuSans-65" x="271.871094"/>
    <use xlink:href="#DejaVuSans-20" x="333.394531"/>
    <use xlink:href="#DejaVuSans-49" x="365.181641"/>
    <use xlink:href="#DejaVuSans-6e" x="394.673828"/>
    <use xlink:href="#DejaVuSans-64" x="458.052734"/>
    <use xlink:href="#DejaVuSans-75" x="521.529297"/>
    <use xlink:href="#DejaVuSans-73" x="584.908203"/>
    <use xlink:href="#DejaVuSans-74" x="637.007812"/>
    <use xlink:href="#DejaVuSans-72" x="676.216797"/>
    <use xlink:href="#DejaVuSans-69" x="717.330078"/>
    <use xlink:href="#DejaVuSans-65" x="745.113281"/>
    <use xlink:href="#DejaVuSans-73" x="806.636719"/>
    <use xlink:href="#DejaVuSans-20" x="858.736328"/>
    <use xlink:href="#DejaVuSans-4c" x="890.523438"/>
    <use xlink:href="#DejaVuSans-69" x="946.236328"/>
    <use xlink:href="#DejaVuSans-6d" x="974.019531"/>
    <use xlink:href="#DejaVuSans-69" x="1071.431641"/>
    <use xlink:href="#DejaVuSans-74" x="1099.214844"/>
    <use xlink:href="#DejaVuSans-65" x="1138.423828"/>
    <use xlink:href="#DejaVuSans-64" x="1199.947266"/>
   </g>
  </g>
 </g>
 <defs>
  <clipPath id="pfb62041c5d">
   <rect x="43.25" y="48.331875" width="939.626106" height="253.385938"/>
  </clipPath>
  <clipPath id="pe1452ff26c">
   <rect x="43.25" y="331.135938" width="939.626106" height="253.385937"/>
  </clipPath>
 </defs>
</svg>
