<?xml version="1.0" encoding="utf-8" standalone="no"?>
<!DOCTYPE svg PUBLIC "-//W3C//DTD SVG 1.1//EN"
  "http://www.w3.org/Graphics/SVG/1.1/DTD/svg11.dtd">
<svg xmlns:xlink="http://www.w3.org/1999/xlink" width="1008pt" height="612pt" viewBox="0 0 1008 612" xmlns="http://www.w3.org/2000/svg" version="1.1">
 <metadata>
  <rdf:RDF xmlns:dc="http://purl.org/dc/elements/1.1/" xmlns:cc="http://creativecommons.org/ns#" xmlns:rdf="http://www.w3.org/1999/02/22-rdf-syntax-ns#">
   <cc:Work>
    <dc:type rdf:resource="http://purl.org/dc/dcmitype/StillImage"/>
    <dc:date>2022-11-20T19:47:05.447447</dc:date>
    <dc:format>image/svg+xml</dc:format>
    <dc:creator>
     <cc:Agent>
      <dc:title>Matplotlib v3.5.2, https://matplotlib.org/</dc:title>
     </cc:Agent>
    </dc:creator>
   </cc:Work>
  </rdf:RDF>
 </metadata>
 <defs>
  <style type="text/css">*{stroke-linejoin: round; stroke-linecap: butt}</style>
 </defs>
 <g id="figure_1">
  <g id="patch_1">
   <path d="M 0 612 
L 1008 612 
L 1008 0 
L 0 0 
z
" style="fill: #ffffff"/>
  </g>
  <g id="axes_1">
   <g id="patch_2">
    <path d="M 45.267188 301.717812 
L 982.876106 301.717812 
L 982.876106 48.331875 
L 45.267188 48.331875 
z
" style="fill: #ffffff"/>
   </g>
   <g id="matplotlib.axis_1">
    <g id="xtick_1">
     <g id="line2d_1">
      <path d="M 82.541751 301.717812 
L 82.541751 48.331875 
" clip-path="url(#p1d45000ed2)" style="fill: none; stroke-dasharray: 2.96,1.28; stroke-dashoffset: 0; stroke: #b0b0b0; stroke-width: 0.8"/>
     </g>
     <g id="line2d_2">
      <defs>
       <path id="m2b950e4018" d="M 0 0 
L 0 3.5 
" style="stroke: #000000; stroke-width: 0.8"/>
      </defs>
      <g>
       <use xlink:href="#m2b950e4018" x="82.541751" y="301.717812" style="stroke: #000000; stroke-width: 0.8"/>
      </g>
     </g>
    </g>
    <g id="xtick_2">
     <g id="line2d_3">
      <path d="M 165.374115 301.717812 
L 165.374115 48.331875 
" clip-path="url(#p1d45000ed2)" style="fill: none; stroke-dasharray: 2.96,1.28; stroke-dashoffset: 0; stroke: #b0b0b0; stroke-width: 0.8"/>
     </g>
     <g id="line2d_4">
      <g>
       <use xlink:href="#m2b950e4018" x="165.374115" y="301.717812" style="stroke: #000000; stroke-width: 0.8"/>
      </g>
     </g>
    </g>
    <g id="xtick_3">
     <g id="line2d_5">
      <path d="M 240.190444 301.717812 
L 240.190444 48.331875 
" clip-path="url(#p1d45000ed2)" style="fill: none; stroke-dasharray: 2.96,1.28; stroke-dashoffset: 0; stroke: #b0b0b0; stroke-width: 0.8"/>
     </g>
     <g id="line2d_6">
      <g>
       <use xlink:href="#m2b950e4018" x="240.190444" y="301.717812" style="stroke: #000000; stroke-width: 0.8"/>
      </g>
     </g>
    </g>
    <g id="xtick_4">
     <g id="line2d_7">
      <path d="M 323.022808 301.717812 
L 323.022808 48.331875 
" clip-path="url(#p1d45000ed2)" style="fill: none; stroke-dasharray: 2.96,1.28; stroke-dashoffset: 0; stroke: #b0b0b0; stroke-width: 0.8"/>
     </g>
     <g id="line2d_8">
      <g>
       <use xlink:href="#m2b950e4018" x="323.022808" y="301.717812" style="stroke: #000000; stroke-width: 0.8"/>
      </g>
     </g>
    </g>
    <g id="xtick_5">
     <g id="line2d_9">
      <path d="M 403.18316 301.717812 
L 403.18316 48.331875 
" clip-path="url(#p1d45000ed2)" style="fill: none; stroke-dasharray: 2.96,1.28; stroke-dashoffset: 0; stroke: #b0b0b0; stroke-width: 0.8"/>
     </g>
     <g id="line2d_10">
      <g>
       <use xlink:href="#m2b950e4018" x="403.18316" y="301.717812" style="stroke: #000000; stroke-width: 0.8"/>
      </g>
     </g>
    </g>
    <g id="xtick_6">
     <g id="line2d_11">
      <path d="M 486.015523 301.717812 
L 486.015523 48.331875 
" clip-path="url(#p1d45000ed2)" style="fill: none; stroke-dasharray: 2.96,1.28; stroke-dashoffset: 0; stroke: #b0b0b0; stroke-width: 0.8"/>
     </g>
     <g id="line2d_12">
      <g>
       <use xlink:href="#m2b950e4018" x="486.015523" y="301.717812" style="stroke: #000000; stroke-width: 0.8"/>
      </g>
     </g>
    </g>
    <g id="xtick_7">
     <g id="line2d_13">
      <path d="M 566.175876 301.717812 
L 566.175876 48.331875 
" clip-path="url(#p1d45000ed2)" style="fill: none; stroke-dasharray: 2.96,1.28; stroke-dashoffset: 0; stroke: #b0b0b0; stroke-width: 0.8"/>
     </g>
     <g id="line2d_14">
      <g>
       <use xlink:href="#m2b950e4018" x="566.175876" y="301.717812" style="stroke: #000000; stroke-width: 0.8"/>
      </g>
     </g>
    </g>
    <g id="xtick_8">
     <g id="line2d_15">
      <path d="M 649.008239 301.717812 
L 649.008239 48.331875 
" clip-path="url(#p1d45000ed2)" style="fill: none; stroke-dasharray: 2.96,1.28; stroke-dashoffset: 0; stroke: #b0b0b0; stroke-width: 0.8"/>
     </g>
     <g id="line2d_16">
      <g>
       <use xlink:href="#m2b950e4018" x="649.008239" y="301.717812" style="stroke: #000000; stroke-width: 0.8"/>
      </g>
     </g>
    </g>
    <g id="xtick_9">
     <g id="line2d_17">
      <path d="M 731.840603 301.717812 
L 731.840603 48.331875 
" clip-path="url(#p1d45000ed2)" style="fill: none; stroke-dasharray: 2.96,1.28; stroke-dashoffset: 0; stroke: #b0b0b0; stroke-width: 0.8"/>
     </g>
     <g id="line2d_18">
      <g>
       <use xlink:href="#m2b950e4018" x="731.840603" y="301.717812" style="stroke: #000000; stroke-width: 0.8"/>
      </g>
     </g>
    </g>
    <g id="xtick_10">
     <g id="line2d_19">
      <path d="M 812.000955 301.717812 
L 812.000955 48.331875 
" clip-path="url(#p1d45000ed2)" style="fill: none; stroke-dasharray: 2.96,1.28; stroke-dashoffset: 0; stroke: #b0b0b0; stroke-width: 0.8"/>
     </g>
     <g id="line2d_20">
      <g>
       <use xlink:href="#m2b950e4018" x="812.000955" y="301.717812" style="stroke: #000000; stroke-width: 0.8"/>
      </g>
     </g>
    </g>
    <g id="xtick_11">
     <g id="line2d_21">
      <path d="M 894.833319 301.717812 
L 894.833319 48.331875 
" clip-path="url(#p1d45000ed2)" style="fill: none; stroke-dasharray: 2.96,1.28; stroke-dashoffset: 0; stroke: #b0b0b0; stroke-width: 0.8"/>
     </g>
     <g id="line2d_22">
      <g>
       <use xlink:href="#m2b950e4018" x="894.833319" y="301.717812" style="stroke: #000000; stroke-width: 0.8"/>
      </g>
     </g>
    </g>
    <g id="xtick_12">
     <g id="line2d_23">
      <path d="M 974.993671 301.717812 
L 974.993671 48.331875 
" clip-path="url(#p1d45000ed2)" style="fill: none; stroke-dasharray: 2.96,1.28; stroke-dashoffset: 0; stroke: #b0b0b0; stroke-width: 0.8"/>
     </g>
     <g id="line2d_24">
      <g>
       <use xlink:href="#m2b950e4018" x="974.993671" y="301.717812" style="stroke: #000000; stroke-width: 0.8"/>
      </g>
     </g>
    </g>
   </g>
   <g id="matplotlib.axis_2">
    <g id="ytick_1">
     <g id="line2d_25">
      <path d="M 45.267188 268.731908 
L 982.876106 268.731908 
" clip-path="url(#p1d45000ed2)" style="fill: none; stroke-dasharray: 2.96,1.28; stroke-dashoffset: 0; stroke: #b0b0b0; stroke-width: 0.8"/>
     </g>
     <g id="line2d_26">
      <defs>
       <path id="ma4dde8ec82" d="M 0 0 
L -3.5 0 
" style="stroke: #000000; stroke-width: 0.8"/>
      </defs>
      <g>
       <use xlink:href="#ma4dde8ec82" x="45.267188" y="268.731908" style="stroke: #000000; stroke-width: 0.8"/>
      </g>
     </g>
     <g id="text_1">
      <!-- 3400 -->
      <g transform="translate(12.817188 272.531126)scale(0.1 -0.1)">
       <defs>
        <path id="DejaVuSans-33" d="M 2597 2516 
Q 3050 2419 3304 2112 
Q 3559 1806 3559 1356 
Q 3559 666 3084 287 
Q 2609 -91 1734 -91 
Q 1441 -91 1130 -33 
Q 819 25 488 141 
L 488 750 
Q 750 597 1062 519 
Q 1375 441 1716 441 
Q 2309 441 2620 675 
Q 2931 909 2931 1356 
Q 2931 1769 2642 2001 
Q 2353 2234 1838 2234 
L 1294 2234 
L 1294 2753 
L 1863 2753 
Q 2328 2753 2575 2939 
Q 2822 3125 2822 3475 
Q 2822 3834 2567 4026 
Q 2313 4219 1838 4219 
Q 1578 4219 1281 4162 
Q 984 4106 628 3988 
L 628 4550 
Q 988 4650 1302 4700 
Q 1616 4750 1894 4750 
Q 2613 4750 3031 4423 
Q 3450 4097 3450 3541 
Q 3450 3153 3228 2886 
Q 3006 2619 2597 2516 
z
" transform="scale(0.015625)"/>
        <path id="DejaVuSans-34" d="M 2419 4116 
L 825 1625 
L 2419 1625 
L 2419 4116 
z
M 2253 4666 
L 3047 4666 
L 3047 1625 
L 3713 1625 
L 3713 1100 
L 3047 1100 
L 3047 0 
L 2419 0 
L 2419 1100 
L 313 1100 
L 313 1709 
L 2253 4666 
z
" transform="scale(0.015625)"/>
        <path id="DejaVuSans-30" d="M 2034 4250 
Q 1547 4250 1301 3770 
Q 1056 3291 1056 2328 
Q 1056 1369 1301 889 
Q 1547 409 2034 409 
Q 2525 409 2770 889 
Q 3016 1369 3016 2328 
Q 3016 3291 2770 3770 
Q 2525 4250 2034 4250 
z
M 2034 4750 
Q 2819 4750 3233 4129 
Q 3647 3509 3647 2328 
Q 3647 1150 3233 529 
Q 2819 -91 2034 -91 
Q 1250 -91 836 529 
Q 422 1150 422 2328 
Q 422 3509 836 4129 
Q 1250 4750 2034 4750 
z
" transform="scale(0.015625)"/>
       </defs>
       <use xlink:href="#DejaVuSans-33"/>
       <use xlink:href="#DejaVuSans-34" x="63.623047"/>
       <use xlink:href="#DejaVuSans-30" x="127.246094"/>
       <use xlink:href="#DejaVuSans-30" x="190.869141"/>
      </g>
     </g>
    </g>
    <g id="ytick_2">
     <g id="line2d_27">
      <path d="M 45.267188 235.344097 
L 982.876106 235.344097 
" clip-path="url(#p1d45000ed2)" style="fill: none; stroke-dasharray: 2.96,1.28; stroke-dashoffset: 0; stroke: #b0b0b0; stroke-width: 0.8"/>
     </g>
     <g id="line2d_28">
      <g>
       <use xlink:href="#ma4dde8ec82" x="45.267188" y="235.344097" style="stroke: #000000; stroke-width: 0.8"/>
      </g>
     </g>
     <g id="text_2">
      <!-- 3600 -->
      <g transform="translate(12.817188 239.143316)scale(0.1 -0.1)">
       <defs>
        <path id="DejaVuSans-36" d="M 2113 2584 
Q 1688 2584 1439 2293 
Q 1191 2003 1191 1497 
Q 1191 994 1439 701 
Q 1688 409 2113 409 
Q 2538 409 2786 701 
Q 3034 994 3034 1497 
Q 3034 2003 2786 2293 
Q 2538 2584 2113 2584 
z
M 3366 4563 
L 3366 3988 
Q 3128 4100 2886 4159 
Q 2644 4219 2406 4219 
Q 1781 4219 1451 3797 
Q 1122 3375 1075 2522 
Q 1259 2794 1537 2939 
Q 1816 3084 2150 3084 
Q 2853 3084 3261 2657 
Q 3669 2231 3669 1497 
Q 3669 778 3244 343 
Q 2819 -91 2113 -91 
Q 1303 -91 875 529 
Q 447 1150 447 2328 
Q 447 3434 972 4092 
Q 1497 4750 2381 4750 
Q 2619 4750 2861 4703 
Q 3103 4656 3366 4563 
z
" transform="scale(0.015625)"/>
       </defs>
       <use xlink:href="#DejaVuSans-33"/>
       <use xlink:href="#DejaVuSans-36" x="63.623047"/>
       <use xlink:href="#DejaVuSans-30" x="127.246094"/>
       <use xlink:href="#DejaVuSans-30" x="190.869141"/>
      </g>
     </g>
    </g>
    <g id="ytick_3">
     <g id="line2d_29">
      <path d="M 45.267188 201.956286 
L 982.876106 201.956286 
" clip-path="url(#p1d45000ed2)" style="fill: none; stroke-dasharray: 2.96,1.28; stroke-dashoffset: 0; stroke: #b0b0b0; stroke-width: 0.8"/>
     </g>
     <g id="line2d_30">
      <g>
       <use xlink:href="#ma4dde8ec82" x="45.267188" y="201.956286" style="stroke: #000000; stroke-width: 0.8"/>
      </g>
     </g>
     <g id="text_3">
      <!-- 3800 -->
      <g transform="translate(12.817188 205.755505)scale(0.1 -0.1)">
       <defs>
        <path id="DejaVuSans-38" d="M 2034 2216 
Q 1584 2216 1326 1975 
Q 1069 1734 1069 1313 
Q 1069 891 1326 650 
Q 1584 409 2034 409 
Q 2484 409 2743 651 
Q 3003 894 3003 1313 
Q 3003 1734 2745 1975 
Q 2488 2216 2034 2216 
z
M 1403 2484 
Q 997 2584 770 2862 
Q 544 3141 544 3541 
Q 544 4100 942 4425 
Q 1341 4750 2034 4750 
Q 2731 4750 3128 4425 
Q 3525 4100 3525 3541 
Q 3525 3141 3298 2862 
Q 3072 2584 2669 2484 
Q 3125 2378 3379 2068 
Q 3634 1759 3634 1313 
Q 3634 634 3220 271 
Q 2806 -91 2034 -91 
Q 1263 -91 848 271 
Q 434 634 434 1313 
Q 434 1759 690 2068 
Q 947 2378 1403 2484 
z
M 1172 3481 
Q 1172 3119 1398 2916 
Q 1625 2713 2034 2713 
Q 2441 2713 2670 2916 
Q 2900 3119 2900 3481 
Q 2900 3844 2670 4047 
Q 2441 4250 2034 4250 
Q 1625 4250 1398 4047 
Q 1172 3844 1172 3481 
z
" transform="scale(0.015625)"/>
       </defs>
       <use xlink:href="#DejaVuSans-33"/>
       <use xlink:href="#DejaVuSans-38" x="63.623047"/>
       <use xlink:href="#DejaVuSans-30" x="127.246094"/>
       <use xlink:href="#DejaVuSans-30" x="190.869141"/>
      </g>
     </g>
    </g>
    <g id="ytick_4">
     <g id="line2d_31">
      <path d="M 45.267188 168.568476 
L 982.876106 168.568476 
" clip-path="url(#p1d45000ed2)" style="fill: none; stroke-dasharray: 2.96,1.28; stroke-dashoffset: 0; stroke: #b0b0b0; stroke-width: 0.8"/>
     </g>
     <g id="line2d_32">
      <g>
       <use xlink:href="#ma4dde8ec82" x="45.267188" y="168.568476" style="stroke: #000000; stroke-width: 0.8"/>
      </g>
     </g>
     <g id="text_4">
      <!-- 4000 -->
      <g transform="translate(12.817188 172.367695)scale(0.1 -0.1)">
       <use xlink:href="#DejaVuSans-34"/>
       <use xlink:href="#DejaVuSans-30" x="63.623047"/>
       <use xlink:href="#DejaVuSans-30" x="127.246094"/>
       <use xlink:href="#DejaVuSans-30" x="190.869141"/>
      </g>
     </g>
    </g>
    <g id="ytick_5">
     <g id="line2d_33">
      <path d="M 45.267188 135.180665 
L 982.876106 135.180665 
" clip-path="url(#p1d45000ed2)" style="fill: none; stroke-dasharray: 2.96,1.28; stroke-dashoffset: 0; stroke: #b0b0b0; stroke-width: 0.8"/>
     </g>
     <g id="line2d_34">
      <g>
       <use xlink:href="#ma4dde8ec82" x="45.267188" y="135.180665" style="stroke: #000000; stroke-width: 0.8"/>
      </g>
     </g>
     <g id="text_5">
      <!-- 4200 -->
      <g transform="translate(12.817188 138.979884)scale(0.1 -0.1)">
       <defs>
        <path id="DejaVuSans-32" d="M 1228 531 
L 3431 531 
L 3431 0 
L 469 0 
L 469 531 
Q 828 903 1448 1529 
Q 2069 2156 2228 2338 
Q 2531 2678 2651 2914 
Q 2772 3150 2772 3378 
Q 2772 3750 2511 3984 
Q 2250 4219 1831 4219 
Q 1534 4219 1204 4116 
Q 875 4013 500 3803 
L 500 4441 
Q 881 4594 1212 4672 
Q 1544 4750 1819 4750 
Q 2544 4750 2975 4387 
Q 3406 4025 3406 3419 
Q 3406 3131 3298 2873 
Q 3191 2616 2906 2266 
Q 2828 2175 2409 1742 
Q 1991 1309 1228 531 
z
" transform="scale(0.015625)"/>
       </defs>
       <use xlink:href="#DejaVuSans-34"/>
       <use xlink:href="#DejaVuSans-32" x="63.623047"/>
       <use xlink:href="#DejaVuSans-30" x="127.246094"/>
       <use xlink:href="#DejaVuSans-30" x="190.869141"/>
      </g>
     </g>
    </g>
    <g id="ytick_6">
     <g id="line2d_35">
      <path d="M 45.267188 101.792855 
L 982.876106 101.792855 
" clip-path="url(#p1d45000ed2)" style="fill: none; stroke-dasharray: 2.96,1.28; stroke-dashoffset: 0; stroke: #b0b0b0; stroke-width: 0.8"/>
     </g>
     <g id="line2d_36">
      <g>
       <use xlink:href="#ma4dde8ec82" x="45.267188" y="101.792855" style="stroke: #000000; stroke-width: 0.8"/>
      </g>
     </g>
     <g id="text_6">
      <!-- 4400 -->
      <g transform="translate(12.817188 105.592073)scale(0.1 -0.1)">
       <use xlink:href="#DejaVuSans-34"/>
       <use xlink:href="#DejaVuSans-34" x="63.623047"/>
       <use xlink:href="#DejaVuSans-30" x="127.246094"/>
       <use xlink:href="#DejaVuSans-30" x="190.869141"/>
      </g>
     </g>
    </g>
    <g id="ytick_7">
     <g id="line2d_37">
      <path d="M 45.267188 68.405044 
L 982.876106 68.405044 
" clip-path="url(#p1d45000ed2)" style="fill: none; stroke-dasharray: 2.96,1.28; stroke-dashoffset: 0; stroke: #b0b0b0; stroke-width: 0.8"/>
     </g>
     <g id="line2d_38">
      <g>
       <use xlink:href="#ma4dde8ec82" x="45.267188" y="68.405044" style="stroke: #000000; stroke-width: 0.8"/>
      </g>
     </g>
     <g id="text_7">
      <!-- 4600 -->
      <g transform="translate(12.817188 72.204263)scale(0.1 -0.1)">
       <use xlink:href="#DejaVuSans-34"/>
       <use xlink:href="#DejaVuSans-36" x="63.623047"/>
       <use xlink:href="#DejaVuSans-30" x="127.246094"/>
       <use xlink:href="#DejaVuSans-30" x="190.869141"/>
      </g>
     </g>
    </g>
   </g>
   <g id="line2d_39">
    <path d="M 87.885775 59.849418 
L 90.557786 64.782467 
L 93.229798 75.341362 
L 95.90181 86.910238 
L 98.573822 82.311067 
L 106.589857 90.808265 
L 109.261869 82.336108 
L 111.93388 86.284217 
L 114.605892 70.066088 
L 117.277904 65.633856 
L 125.293939 63.338444 
L 127.965951 80.566554 
L 130.637962 88.187322 
L 135.981986 138.61961 
L 143.998021 159.119725 
L 146.670033 160.355074 
L 152.014056 178.60986 
L 154.686068 178.467962 
L 162.702103 162.541976 
L 165.374115 150.480629 
L 168.046127 131.900313 
L 173.39015 117.735534 
L 181.406185 134.930257 
L 184.078197 122.234542 
L 186.750209 113.570405 
L 189.422221 116.191348 
L 192.094232 119.947477 
L 200.110268 122.176113 
L 202.782279 114.179732 
L 205.454291 90.916775 
L 208.126303 94.748027 
L 210.798315 109.572215 
L 218.81435 125.448118 
L 221.486362 131.040577 
L 224.158373 138.252344 
L 226.830385 179.144065 
L 229.502397 145.472458 
L 237.518432 124.329627 
L 242.862455 141.707982 
L 245.534467 141.783105 
L 248.206479 152.759348 
L 256.222514 156.056394 
L 258.894526 141.148736 
L 264.238549 118.336515 
L 266.910561 111.909361 
L 274.926596 102.827877 
L 277.598608 104.088267 
L 280.27062 101.417242 
L 282.942631 84.372764 
L 293.630678 92.402533 
L 296.30269 93.687964 
L 298.974702 76.159363 
L 301.646714 85.992073 
L 304.318725 92.753105 
L 312.334761 99.030013 
L 315.006772 74.815504 
L 317.678784 78.655102 
L 320.350796 101.45063 
L 323.022808 105.181717 
L 331.038843 85.499603 
L 333.710854 91.576185 
L 336.382866 103.979756 
L 339.054878 93.704658 
L 341.72689 84.105662 
L 349.742925 84.464581 
L 352.414937 89.539528 
L 355.086948 85.224154 
L 368.447007 80.942167 
L 371.119019 99.889749 
L 373.791031 92.502696 
L 376.463042 80.24937 
L 379.135054 86.350992 
L 387.151089 100.10677 
L 389.823101 81.826944 
L 392.495113 79.990614 
L 395.167124 74.314687 
L 397.839136 84.197478 
L 405.855171 83.487988 
L 411.199195 111.116401 
L 413.871207 107.50217 
L 416.543218 140.881634 
L 424.559254 129.988861 
L 427.231265 119.096088 
L 429.903277 119.521782 
L 432.575289 129.604901 
L 435.2473 121.641908 
L 443.263336 132.159068 
L 445.935347 117.927514 
L 448.607359 107.351925 
L 451.279371 135.314217 
L 453.951383 117.685453 
L 461.967418 185.612953 
L 464.63943 225.043958 
L 467.311441 248.807732 
L 469.983453 260.601976 
L 472.655465 249.583998 
L 480.6715 240.936555 
L 483.343512 236.796467 
L 486.015523 242.831314 
L 488.687535 247.973036 
L 491.359547 255.66058 
L 499.375582 252.096431 
L 502.047594 251.829329 
L 504.719606 252.822616 
L 507.391617 250.836041 
L 510.063629 247.355362 
L 518.079664 256.353377 
L 520.751676 247.756016 
L 523.423688 238.499245 
L 526.095699 241.203658 
L 528.767711 255.051252 
L 536.783746 246.437197 
L 539.455758 235.427567 
L 542.12777 235.410873 
L 544.799782 224.276038 
L 547.471793 221.822034 
L 555.487829 223.082424 
L 558.15984 233.098767 
L 560.831852 238.123632 
L 563.503864 230.26915 
L 566.175876 229.075536 
L 574.191911 228.741658 
L 576.863922 233.66636 
L 579.535934 227.865227 
L 582.207946 225.928734 
L 584.879958 223.441343 
L 592.895993 212.95757 
L 595.568005 220.745277 
L 598.240016 205.495394 
L 600.912028 213.007652 
L 603.58404 214.017633 
L 611.600075 212.231385 
L 614.272087 209.760687 
L 616.944099 211.69718 
L 619.61611 202.874451 
L 622.288122 202.498838 
L 630.304157 206.24662 
L 632.976169 220.820399 
L 635.648181 204.218311 
L 638.320192 193.667762 
L 640.992204 196.672665 
L 649.008239 202.757594 
L 651.680251 197.799504 
L 654.352263 198.475607 
L 657.024275 187.240609 
L 659.696286 183.225725 
L 667.712322 178.985473 
L 673.056345 177.115755 
L 675.728357 177.24096 
L 678.400368 214.276389 
L 689.088415 213.308142 
L 691.760427 210.570342 
L 694.432439 211.371649 
L 697.104451 219.28456 
L 705.120486 238.574368 
L 707.792498 246.645871 
L 710.464509 252.597248 
L 713.136521 246.053237 
L 715.808533 237.430835 
L 723.824568 238.273877 
L 726.49658 230.861783 
L 731.840603 235.477648 
L 734.512615 235.652934 
L 742.52865 236.554405 
L 745.200662 237.764713 
L 747.872674 236.854896 
L 750.544685 240.619371 
L 753.216697 234.84328 
L 761.232732 222.322851 
L 763.904744 224.059017 
L 766.576756 223.900425 
L 769.248768 234.434279 
L 771.920779 239.734594 
L 779.936814 232.080439 
L 782.608826 230.07717 
L 785.280838 239.734594 
L 787.95285 238.666184 
L 790.624861 228.232493 
L 798.640897 223.658363 
L 801.312908 221.955585 
L 803.98492 218.090946 
L 806.656932 219.710255 
L 809.328944 217.782109 
L 817.344979 214.167878 
L 820.016991 205.278374 
L 825.361014 213.141203 
L 828.033026 212.682121 
L 836.049061 220.887175 
L 838.721073 251.670736 
L 841.393084 247.397097 
L 844.065096 248.056506 
L 846.737108 239.884839 
L 854.753143 238.92494 
L 857.425155 239.976656 
L 860.097167 234.000238 
L 862.769178 226.67996 
L 865.44119 240.118554 
L 873.457225 233.265706 
L 876.129237 235.819873 
L 881.47326 231.83003 
L 884.145272 244.108397 
L 892.161307 233.85834 
L 894.833319 195.871358 
L 897.505331 205.053006 
L 900.177343 205.053006 
L 902.849354 210.920914 
L 910.86539 266.302944 
L 916.209413 285.634487 
L 918.881425 287.637755 
L 921.553437 290.20027 
L 929.569472 289.482432 
L 932.241483 280.985234 
L 934.913495 287.128591 
L 937.585507 287.095204 
L 940.257519 287.537592 
L 940.257519 287.537592 
" clip-path="url(#p1d45000ed2)" style="fill: none; stroke: #1f77b4; stroke-width: 1.5; stroke-linecap: square"/>
   </g>
   <g id="line2d_40">
    <path d="M 98.573822 73.83891 
L 106.589857 80.03068 
L 109.261869 83.541408 
L 111.93388 85.729979 
L 117.277904 79.025707 
L 125.293939 73.531742 
L 127.965951 73.177832 
L 130.637962 73.558453 
L 133.309974 82.2493 
L 135.981986 96.846451 
L 143.998021 116.002707 
L 146.670033 131.960411 
L 152.014056 150.044919 
L 154.686068 163.034446 
L 162.702103 167.81892 
L 165.374115 166.0911 
L 168.046127 160.400148 
L 170.718139 149.62924 
L 173.39015 137.482755 
L 181.406185 131.960411 
L 184.078197 126.311193 
L 186.750209 122.645212 
L 189.422221 120.932417 
L 192.094232 121.374806 
L 200.110268 118.823977 
L 202.782279 117.213015 
L 205.454291 112.682289 
L 208.126303 108.393625 
L 210.798315 106.318572 
L 218.81435 106.972973 
L 221.486362 110.345142 
L 224.158373 119.812256 
L 226.830385 136.691464 
L 229.502397 143.871512 
L 237.518432 143.647814 
L 242.862455 145.781295 
L 245.534467 146.487447 
L 248.206479 141.210504 
L 256.222514 143.327291 
L 258.894526 146.691113 
L 261.566538 144.248795 
L 264.238549 139.559477 
L 266.910561 131.389479 
L 274.926596 120.743776 
L 277.598608 113.331682 
L 280.27062 107.715852 
L 282.942631 100.923102 
L 293.630678 97.021737 
L 296.30269 95.193754 
L 298.974702 89.607973 
L 301.646714 86.52294 
L 304.318725 88.199008 
L 312.334761 89.524504 
L 315.006772 85.750012 
L 317.678784 86.249159 
L 320.350796 89.340871 
L 323.022808 91.826593 
L 331.038843 89.120511 
L 333.710854 92.472647 
L 336.382866 97.537578 
L 339.054878 95.988384 
L 341.72689 91.773173 
L 349.742925 91.566168 
L 352.414937 91.158837 
L 355.086948 87.407716 
L 368.447007 84.855218 
L 371.119019 88.012036 
L 373.791031 89.619659 
L 376.463042 87.761627 
L 379.135054 87.986995 
L 387.151089 91.819916 
L 389.823101 88.207355 
L 392.495113 85.704938 
L 395.167124 84.518001 
L 397.839136 84.087299 
L 405.855171 80.763542 
L 411.199195 86.621434 
L 413.871207 92.123745 
L 416.543218 105.437134 
L 424.559254 114.595411 
L 427.231265 121.717031 
L 429.903277 123.398107 
L 432.575289 127.818653 
L 435.2473 123.970708 
L 443.263336 124.404749 
L 445.935347 124.171035 
L 448.607359 121.737063 
L 451.279371 122.878926 
L 453.951383 122.087635 
L 461.967418 132.778412 
L 464.63943 154.201701 
L 467.311441 182.492862 
L 469.983453 207.550414 
L 472.655465 233.930123 
L 480.6715 244.994844 
L 483.343512 247.345346 
L 486.015523 246.150062 
L 488.687535 243.624274 
L 491.359547 244.83959 
L 499.375582 247.071566 
L 502.047594 250.078138 
L 504.719606 252.076398 
L 507.391617 252.648999 
L 510.063629 250.987956 
L 518.079664 251.839345 
L 520.751676 251.024682 
L 523.423688 248.160008 
L 526.095699 246.233531 
L 528.767711 247.77271 
L 536.783746 245.789474 
L 539.455758 243.323784 
L 542.12777 242.706109 
L 544.799782 239.320585 
L 547.471793 232.674742 
L 555.487829 228.003787 
L 558.15984 227.538027 
L 560.831852 228.080579 
L 563.503864 229.279201 
L 566.175876 230.729902 
L 574.191911 231.861748 
L 576.863922 231.975267 
L 579.535934 229.923586 
L 582.207946 229.055503 
L 584.879958 227.928664 
L 592.895993 224.771847 
L 595.568005 222.18763 
L 598.240016 217.713664 
L 600.912028 215.129447 
L 603.58404 213.244705 
L 611.600075 213.099468 
L 614.272087 210.90255 
L 616.944099 212.142907 
L 619.61611 210.116267 
L 622.288122 207.812508 
L 630.304157 206.615555 
L 632.976169 208.827498 
L 635.648181 207.331724 
L 638.320192 205.490386 
L 640.992204 204.325152 
L 649.008239 203.627346 
L 651.680251 199.023167 
L 654.352263 197.874627 
L 657.024275 196.589196 
L 659.696286 193.899808 
L 667.712322 189.145384 
L 673.056345 185.008634 
L 675.728357 180.761704 
L 678.400368 186.16886 
L 689.088415 192.185344 
L 691.760427 198.502317 
L 694.432439 205.353496 
L 697.104451 213.762216 
L 705.120486 218.621812 
L 707.792498 225.289358 
L 710.464509 233.694739 
L 713.136521 240.631057 
L 715.808533 244.260312 
L 723.824568 244.200214 
L 726.49658 241.043396 
L 731.840603 237.619476 
L 734.512615 235.539416 
L 745.200662 235.262297 
L 747.872674 236.460919 
L 750.544685 237.489264 
L 753.216697 237.327333 
L 761.232732 234.481022 
L 766.576756 229.148989 
L 769.248768 227.91197 
L 771.920779 228.890233 
L 779.936814 230.841751 
L 782.608826 232.045381 
L 785.280838 235.212215 
L 787.95285 236.058596 
L 790.624861 233.758176 
L 798.640897 232.073761 
L 801.312908 230.449444 
L 803.98492 226.120714 
L 806.656932 222.329529 
L 809.328944 220.239452 
L 817.344979 218.341355 
L 820.016991 215.005912 
L 825.361014 214.015964 
L 828.033026 212.610337 
L 836.049061 213.23135 
L 838.721073 220.731922 
L 841.393084 229.155666 
L 844.065096 236.138727 
L 846.737108 241.579271 
L 854.753143 245.186824 
L 857.425155 242.848008 
L 860.097167 240.168636 
L 862.769178 235.893327 
L 865.44119 235.940069 
L 873.457225 234.808223 
L 876.129237 233.976866 
L 881.47326 233.542825 
L 884.145272 237.028512 
L 892.161307 235.776469 
L 894.833319 228.2976 
L 897.505331 222.144226 
L 900.177343 216.788821 
L 902.849354 210.151325 
L 910.86539 216.640246 
L 916.209413 234.592871 
L 921.553437 268.139274 
L 929.569472 283.851578 
L 932.241483 286.788036 
L 934.913495 287.086857 
L 937.585507 286.978346 
L 940.257519 286.445811 
L 940.257519 286.445811 
" clip-path="url(#p1d45000ed2)" style="fill: none; stroke: #ff7f0e; stroke-width: 1.5; stroke-linecap: square"/>
   </g>
   <g id="patch_3">
    <path d="M 45.267188 301.717813 
L 45.267188 48.331875 
" style="fill: none; stroke: #000000; stroke-width: 0.8; stroke-linejoin: miter; stroke-linecap: square"/>
   </g>
   <g id="patch_4">
    <path d="M 982.876106 301.717813 
L 982.876106 48.331875 
" style="fill: none; stroke: #000000; stroke-width: 0.8; stroke-linejoin: miter; stroke-linecap: square"/>
   </g>
   <g id="patch_5">
    <path d="M 45.267188 301.717812 
L 982.876106 301.717812 
" style="fill: none; stroke: #000000; stroke-width: 0.8; stroke-linejoin: miter; stroke-linecap: square"/>
   </g>
   <g id="patch_6">
    <path d="M 45.267188 48.331875 
L 982.876106 48.331875 
" style="fill: none; stroke: #000000; stroke-width: 0.8; stroke-linejoin: miter; stroke-linecap: square"/>
   </g>
   <g id="text_8">
    <!-- Closing Price -->
    <g transform="translate(475.595709 42.331875)scale(0.12 -0.12)">
     <defs>
      <path id="DejaVuSans-43" d="M 4122 4306 
L 4122 3641 
Q 3803 3938 3442 4084 
Q 3081 4231 2675 4231 
Q 1875 4231 1450 3742 
Q 1025 3253 1025 2328 
Q 1025 1406 1450 917 
Q 1875 428 2675 428 
Q 3081 428 3442 575 
Q 3803 722 4122 1019 
L 4122 359 
Q 3791 134 3420 21 
Q 3050 -91 2638 -91 
Q 1578 -91 968 557 
Q 359 1206 359 2328 
Q 359 3453 968 4101 
Q 1578 4750 2638 4750 
Q 3056 4750 3426 4639 
Q 3797 4528 4122 4306 
z
" transform="scale(0.015625)"/>
      <path id="DejaVuSans-6c" d="M 603 4863 
L 1178 4863 
L 1178 0 
L 603 0 
L 603 4863 
z
" transform="scale(0.015625)"/>
      <path id="DejaVuSans-6f" d="M 1959 3097 
Q 1497 3097 1228 2736 
Q 959 2375 959 1747 
Q 959 1119 1226 758 
Q 1494 397 1959 397 
Q 2419 397 2687 759 
Q 2956 1122 2956 1747 
Q 2956 2369 2687 2733 
Q 2419 3097 1959 3097 
z
M 1959 3584 
Q 2709 3584 3137 3096 
Q 3566 2609 3566 1747 
Q 3566 888 3137 398 
Q 2709 -91 1959 -91 
Q 1206 -91 779 398 
Q 353 888 353 1747 
Q 353 2609 779 3096 
Q 1206 3584 1959 3584 
z
" transform="scale(0.015625)"/>
      <path id="DejaVuSans-73" d="M 2834 3397 
L 2834 2853 
Q 2591 2978 2328 3040 
Q 2066 3103 1784 3103 
Q 1356 3103 1142 2972 
Q 928 2841 928 2578 
Q 928 2378 1081 2264 
Q 1234 2150 1697 2047 
L 1894 2003 
Q 2506 1872 2764 1633 
Q 3022 1394 3022 966 
Q 3022 478 2636 193 
Q 2250 -91 1575 -91 
Q 1294 -91 989 -36 
Q 684 19 347 128 
L 347 722 
Q 666 556 975 473 
Q 1284 391 1588 391 
Q 1994 391 2212 530 
Q 2431 669 2431 922 
Q 2431 1156 2273 1281 
Q 2116 1406 1581 1522 
L 1381 1569 
Q 847 1681 609 1914 
Q 372 2147 372 2553 
Q 372 3047 722 3315 
Q 1072 3584 1716 3584 
Q 2034 3584 2315 3537 
Q 2597 3491 2834 3397 
z
" transform="scale(0.015625)"/>
      <path id="DejaVuSans-69" d="M 603 3500 
L 1178 3500 
L 1178 0 
L 603 0 
L 603 3500 
z
M 603 4863 
L 1178 4863 
L 1178 4134 
L 603 4134 
L 603 4863 
z
" transform="scale(0.015625)"/>
      <path id="DejaVuSans-6e" d="M 3513 2113 
L 3513 0 
L 2938 0 
L 2938 2094 
Q 2938 2591 2744 2837 
Q 2550 3084 2163 3084 
Q 1697 3084 1428 2787 
Q 1159 2491 1159 1978 
L 1159 0 
L 581 0 
L 581 3500 
L 1159 3500 
L 1159 2956 
Q 1366 3272 1645 3428 
Q 1925 3584 2291 3584 
Q 2894 3584 3203 3211 
Q 3513 2838 3513 2113 
z
" transform="scale(0.015625)"/>
      <path id="DejaVuSans-67" d="M 2906 1791 
Q 2906 2416 2648 2759 
Q 2391 3103 1925 3103 
Q 1463 3103 1205 2759 
Q 947 2416 947 1791 
Q 947 1169 1205 825 
Q 1463 481 1925 481 
Q 2391 481 2648 825 
Q 2906 1169 2906 1791 
z
M 3481 434 
Q 3481 -459 3084 -895 
Q 2688 -1331 1869 -1331 
Q 1566 -1331 1297 -1286 
Q 1028 -1241 775 -1147 
L 775 -588 
Q 1028 -725 1275 -790 
Q 1522 -856 1778 -856 
Q 2344 -856 2625 -561 
Q 2906 -266 2906 331 
L 2906 616 
Q 2728 306 2450 153 
Q 2172 0 1784 0 
Q 1141 0 747 490 
Q 353 981 353 1791 
Q 353 2603 747 3093 
Q 1141 3584 1784 3584 
Q 2172 3584 2450 3431 
Q 2728 3278 2906 2969 
L 2906 3500 
L 3481 3500 
L 3481 434 
z
" transform="scale(0.015625)"/>
      <path id="DejaVuSans-20" transform="scale(0.015625)"/>
      <path id="DejaVuSans-50" d="M 1259 4147 
L 1259 2394 
L 2053 2394 
Q 2494 2394 2734 2622 
Q 2975 2850 2975 3272 
Q 2975 3691 2734 3919 
Q 2494 4147 2053 4147 
L 1259 4147 
z
M 628 4666 
L 2053 4666 
Q 2838 4666 3239 4311 
Q 3641 3956 3641 3272 
Q 3641 2581 3239 2228 
Q 2838 1875 2053 1875 
L 1259 1875 
L 1259 0 
L 628 0 
L 628 4666 
z
" transform="scale(0.015625)"/>
      <path id="DejaVuSans-72" d="M 2631 2963 
Q 2534 3019 2420 3045 
Q 2306 3072 2169 3072 
Q 1681 3072 1420 2755 
Q 1159 2438 1159 1844 
L 1159 0 
L 581 0 
L 581 3500 
L 1159 3500 
L 1159 2956 
Q 1341 3275 1631 3429 
Q 1922 3584 2338 3584 
Q 2397 3584 2469 3576 
Q 2541 3569 2628 3553 
L 2631 2963 
z
" transform="scale(0.015625)"/>
      <path id="DejaVuSans-63" d="M 3122 3366 
L 3122 2828 
Q 2878 2963 2633 3030 
Q 2388 3097 2138 3097 
Q 1578 3097 1268 2742 
Q 959 2388 959 1747 
Q 959 1106 1268 751 
Q 1578 397 2138 397 
Q 2388 397 2633 464 
Q 2878 531 3122 666 
L 3122 134 
Q 2881 22 2623 -34 
Q 2366 -91 2075 -91 
Q 1284 -91 818 406 
Q 353 903 353 1747 
Q 353 2603 823 3093 
Q 1294 3584 2113 3584 
Q 2378 3584 2631 3529 
Q 2884 3475 3122 3366 
z
" transform="scale(0.015625)"/>
      <path id="DejaVuSans-65" d="M 3597 1894 
L 3597 1613 
L 953 1613 
Q 991 1019 1311 708 
Q 1631 397 2203 397 
Q 2534 397 2845 478 
Q 3156 559 3463 722 
L 3463 178 
Q 3153 47 2828 -22 
Q 2503 -91 2169 -91 
Q 1331 -91 842 396 
Q 353 884 353 1716 
Q 353 2575 817 3079 
Q 1281 3584 2069 3584 
Q 2775 3584 3186 3129 
Q 3597 2675 3597 1894 
z
M 3022 2063 
Q 3016 2534 2758 2815 
Q 2500 3097 2075 3097 
Q 1594 3097 1305 2825 
Q 1016 2553 972 2059 
L 3022 2063 
z
" transform="scale(0.015625)"/>
     </defs>
     <use xlink:href="#DejaVuSans-43"/>
     <use xlink:href="#DejaVuSans-6c" x="69.824219"/>
     <use xlink:href="#DejaVuSans-6f" x="97.607422"/>
     <use xlink:href="#DejaVuSans-73" x="158.789062"/>
     <use xlink:href="#DejaVuSans-69" x="210.888672"/>
     <use xlink:href="#DejaVuSans-6e" x="238.671875"/>
     <use xlink:href="#DejaVuSans-67" x="302.050781"/>
     <use xlink:href="#DejaVuSans-20" x="365.527344"/>
     <use xlink:href="#DejaVuSans-50" x="397.314453"/>
     <use xlink:href="#DejaVuSans-72" x="455.867188"/>
     <use xlink:href="#DejaVuSans-69" x="496.980469"/>
     <use xlink:href="#DejaVuSans-63" x="524.763672"/>
     <use xlink:href="#DejaVuSans-65" x="579.744141"/>
    </g>
   </g>
   <g id="legend_1">
    <g id="patch_7">
     <path d="M 911.144856 85.688125 
L 975.876106 85.688125 
Q 977.876106 85.688125 977.876106 83.688125 
L 977.876106 55.331875 
Q 977.876106 53.331875 975.876106 53.331875 
L 911.144856 53.331875 
Q 909.144856 53.331875 909.144856 55.331875 
L 909.144856 83.688125 
Q 909.144856 85.688125 911.144856 85.688125 
z
" style="fill: #ffffff; opacity: 0.8; stroke: #cccccc; stroke-linejoin: miter"/>
    </g>
    <g id="line2d_41">
     <path d="M 913.144856 61.430312 
L 923.144856 61.430312 
L 933.144856 61.430312 
" style="fill: none; stroke: #1f77b4; stroke-width: 1.5; stroke-linecap: square"/>
    </g>
    <g id="text_9">
     <!-- CLOSE -->
     <g transform="translate(941.144856 64.930312)scale(0.1 -0.1)">
      <defs>
       <path id="DejaVuSans-4c" d="M 628 4666 
L 1259 4666 
L 1259 531 
L 3531 531 
L 3531 0 
L 628 0 
L 628 4666 
z
" transform="scale(0.015625)"/>
       <path id="DejaVuSans-4f" d="M 2522 4238 
Q 1834 4238 1429 3725 
Q 1025 3213 1025 2328 
Q 1025 1447 1429 934 
Q 1834 422 2522 422 
Q 3209 422 3611 934 
Q 4013 1447 4013 2328 
Q 4013 3213 3611 3725 
Q 3209 4238 2522 4238 
z
M 2522 4750 
Q 3503 4750 4090 4092 
Q 4678 3434 4678 2328 
Q 4678 1225 4090 567 
Q 3503 -91 2522 -91 
Q 1538 -91 948 565 
Q 359 1222 359 2328 
Q 359 3434 948 4092 
Q 1538 4750 2522 4750 
z
" transform="scale(0.015625)"/>
       <path id="DejaVuSans-53" d="M 3425 4513 
L 3425 3897 
Q 3066 4069 2747 4153 
Q 2428 4238 2131 4238 
Q 1616 4238 1336 4038 
Q 1056 3838 1056 3469 
Q 1056 3159 1242 3001 
Q 1428 2844 1947 2747 
L 2328 2669 
Q 3034 2534 3370 2195 
Q 3706 1856 3706 1288 
Q 3706 609 3251 259 
Q 2797 -91 1919 -91 
Q 1588 -91 1214 -16 
Q 841 59 441 206 
L 441 856 
Q 825 641 1194 531 
Q 1563 422 1919 422 
Q 2459 422 2753 634 
Q 3047 847 3047 1241 
Q 3047 1584 2836 1778 
Q 2625 1972 2144 2069 
L 1759 2144 
Q 1053 2284 737 2584 
Q 422 2884 422 3419 
Q 422 4038 858 4394 
Q 1294 4750 2059 4750 
Q 2388 4750 2728 4690 
Q 3069 4631 3425 4513 
z
" transform="scale(0.015625)"/>
       <path id="DejaVuSans-45" d="M 628 4666 
L 3578 4666 
L 3578 4134 
L 1259 4134 
L 1259 2753 
L 3481 2753 
L 3481 2222 
L 1259 2222 
L 1259 531 
L 3634 531 
L 3634 0 
L 628 0 
L 628 4666 
z
" transform="scale(0.015625)"/>
      </defs>
      <use xlink:href="#DejaVuSans-43"/>
      <use xlink:href="#DejaVuSans-4c" x="69.824219"/>
      <use xlink:href="#DejaVuSans-4f" x="121.912109"/>
      <use xlink:href="#DejaVuSans-53" x="200.623047"/>
      <use xlink:href="#DejaVuSans-45" x="264.099609"/>
     </g>
    </g>
    <g id="line2d_42">
     <path d="M 913.144856 76.108437 
L 923.144856 76.108437 
L 933.144856 76.108437 
" style="fill: none; stroke: #ff7f0e; stroke-width: 1.5; stroke-linecap: square"/>
    </g>
    <g id="text_10">
     <!-- SMA5 -->
     <g transform="translate(941.144856 79.608437)scale(0.1 -0.1)">
      <defs>
       <path id="DejaVuSans-4d" d="M 628 4666 
L 1569 4666 
L 2759 1491 
L 3956 4666 
L 4897 4666 
L 4897 0 
L 4281 0 
L 4281 4097 
L 3078 897 
L 2444 897 
L 1241 4097 
L 1241 0 
L 628 0 
L 628 4666 
z
" transform="scale(0.015625)"/>
       <path id="DejaVuSans-41" d="M 2188 4044 
L 1331 1722 
L 3047 1722 
L 2188 4044 
z
M 1831 4666 
L 2547 4666 
L 4325 0 
L 3669 0 
L 3244 1197 
L 1141 1197 
L 716 0 
L 50 0 
L 1831 4666 
z
" transform="scale(0.015625)"/>
       <path id="DejaVuSans-35" d="M 691 4666 
L 3169 4666 
L 3169 4134 
L 1269 4134 
L 1269 2991 
Q 1406 3038 1543 3061 
Q 1681 3084 1819 3084 
Q 2600 3084 3056 2656 
Q 3513 2228 3513 1497 
Q 3513 744 3044 326 
Q 2575 -91 1722 -91 
Q 1428 -91 1123 -41 
Q 819 9 494 109 
L 494 744 
Q 775 591 1075 516 
Q 1375 441 1709 441 
Q 2250 441 2565 725 
Q 2881 1009 2881 1497 
Q 2881 1984 2565 2268 
Q 2250 2553 1709 2553 
Q 1456 2553 1204 2497 
Q 953 2441 691 2322 
L 691 4666 
z
" transform="scale(0.015625)"/>
      </defs>
      <use xlink:href="#DejaVuSans-53"/>
      <use xlink:href="#DejaVuSans-4d" x="63.476562"/>
      <use xlink:href="#DejaVuSans-41" x="149.755859"/>
      <use xlink:href="#DejaVuSans-35" x="218.164062"/>
     </g>
    </g>
   </g>
  </g>
  <g id="axes_2">
   <g id="patch_8">
    <path d="M 45.267188 584.521875 
L 982.876106 584.521875 
L 982.876106 331.135938 
L 45.267188 331.135938 
z
" style="fill: #ffffff"/>
   </g>
   <g id="matplotlib.axis_3">
    <g id="xtick_13">
     <g id="line2d_43">
      <path d="M 82.541751 584.521875 
L 82.541751 331.135938 
" clip-path="url(#p1a68e396ce)" style="fill: none; stroke-dasharray: 2.96,1.28; stroke-dashoffset: 0; stroke: #b0b0b0; stroke-width: 0.8"/>
     </g>
     <g id="line2d_44">
      <g>
       <use xlink:href="#m2b950e4018" x="82.541751" y="584.521875" style="stroke: #000000; stroke-width: 0.8"/>
      </g>
     </g>
     <g id="text_11">
      <!-- 2022-01 -->
      <g transform="translate(61.650345 599.120312)scale(0.1 -0.1)">
       <defs>
        <path id="DejaVuSans-2d" d="M 313 2009 
L 1997 2009 
L 1997 1497 
L 313 1497 
L 313 2009 
z
" transform="scale(0.015625)"/>
        <path id="DejaVuSans-31" d="M 794 531 
L 1825 531 
L 1825 4091 
L 703 3866 
L 703 4441 
L 1819 4666 
L 2450 4666 
L 2450 531 
L 3481 531 
L 3481 0 
L 794 0 
L 794 531 
z
" transform="scale(0.015625)"/>
       </defs>
       <use xlink:href="#DejaVuSans-32"/>
       <use xlink:href="#DejaVuSans-30" x="63.623047"/>
       <use xlink:href="#DejaVuSans-32" x="127.246094"/>
       <use xlink:href="#DejaVuSans-32" x="190.869141"/>
       <use xlink:href="#DejaVuSans-2d" x="254.492188"/>
       <use xlink:href="#DejaVuSans-30" x="290.576172"/>
       <use xlink:href="#DejaVuSans-31" x="354.199219"/>
      </g>
     </g>
    </g>
    <g id="xtick_14">
     <g id="line2d_45">
      <path d="M 165.374115 584.521875 
L 165.374115 331.135938 
" clip-path="url(#p1a68e396ce)" style="fill: none; stroke-dasharray: 2.96,1.28; stroke-dashoffset: 0; stroke: #b0b0b0; stroke-width: 0.8"/>
     </g>
     <g id="line2d_46">
      <g>
       <use xlink:href="#m2b950e4018" x="165.374115" y="584.521875" style="stroke: #000000; stroke-width: 0.8"/>
      </g>
     </g>
     <g id="text_12">
      <!-- 2022-02 -->
      <g transform="translate(144.482709 599.120312)scale(0.1 -0.1)">
       <use xlink:href="#DejaVuSans-32"/>
       <use xlink:href="#DejaVuSans-30" x="63.623047"/>
       <use xlink:href="#DejaVuSans-32" x="127.246094"/>
       <use xlink:href="#DejaVuSans-32" x="190.869141"/>
       <use xlink:href="#DejaVuSans-2d" x="254.492188"/>
       <use xlink:href="#DejaVuSans-30" x="290.576172"/>
       <use xlink:href="#DejaVuSans-32" x="354.199219"/>
      </g>
     </g>
    </g>
    <g id="xtick_15">
     <g id="line2d_47">
      <path d="M 240.190444 584.521875 
L 240.190444 331.135938 
" clip-path="url(#p1a68e396ce)" style="fill: none; stroke-dasharray: 2.96,1.28; stroke-dashoffset: 0; stroke: #b0b0b0; stroke-width: 0.8"/>
     </g>
     <g id="line2d_48">
      <g>
       <use xlink:href="#m2b950e4018" x="240.190444" y="584.521875" style="stroke: #000000; stroke-width: 0.8"/>
      </g>
     </g>
     <g id="text_13">
      <!-- 2022-03 -->
      <g transform="translate(219.299037 599.120312)scale(0.1 -0.1)">
       <use xlink:href="#DejaVuSans-32"/>
       <use xlink:href="#DejaVuSans-30" x="63.623047"/>
       <use xlink:href="#DejaVuSans-32" x="127.246094"/>
       <use xlink:href="#DejaVuSans-32" x="190.869141"/>
       <use xlink:href="#DejaVuSans-2d" x="254.492188"/>
       <use xlink:href="#DejaVuSans-30" x="290.576172"/>
       <use xlink:href="#DejaVuSans-33" x="354.199219"/>
      </g>
     </g>
    </g>
    <g id="xtick_16">
     <g id="line2d_49">
      <path d="M 323.022808 584.521875 
L 323.022808 331.135938 
" clip-path="url(#p1a68e396ce)" style="fill: none; stroke-dasharray: 2.96,1.28; stroke-dashoffset: 0; stroke: #b0b0b0; stroke-width: 0.8"/>
     </g>
     <g id="line2d_50">
      <g>
       <use xlink:href="#m2b950e4018" x="323.022808" y="584.521875" style="stroke: #000000; stroke-width: 0.8"/>
      </g>
     </g>
     <g id="text_14">
      <!-- 2022-04 -->
      <g transform="translate(302.131401 599.120312)scale(0.1 -0.1)">
       <use xlink:href="#DejaVuSans-32"/>
       <use xlink:href="#DejaVuSans-30" x="63.623047"/>
       <use xlink:href="#DejaVuSans-32" x="127.246094"/>
       <use xlink:href="#DejaVuSans-32" x="190.869141"/>
       <use xlink:href="#DejaVuSans-2d" x="254.492188"/>
       <use xlink:href="#DejaVuSans-30" x="290.576172"/>
       <use xlink:href="#DejaVuSans-34" x="354.199219"/>
      </g>
     </g>
    </g>
    <g id="xtick_17">
     <g id="line2d_51">
      <path d="M 403.18316 584.521875 
L 403.18316 331.135938 
" clip-path="url(#p1a68e396ce)" style="fill: none; stroke-dasharray: 2.96,1.28; stroke-dashoffset: 0; stroke: #b0b0b0; stroke-width: 0.8"/>
     </g>
     <g id="line2d_52">
      <g>
       <use xlink:href="#m2b950e4018" x="403.18316" y="584.521875" style="stroke: #000000; stroke-width: 0.8"/>
      </g>
     </g>
     <g id="text_15">
      <!-- 2022-05 -->
      <g transform="translate(382.291753 599.120312)scale(0.1 -0.1)">
       <use xlink:href="#DejaVuSans-32"/>
       <use xlink:href="#DejaVuSans-30" x="63.623047"/>
       <use xlink:href="#DejaVuSans-32" x="127.246094"/>
       <use xlink:href="#DejaVuSans-32" x="190.869141"/>
       <use xlink:href="#DejaVuSans-2d" x="254.492188"/>
       <use xlink:href="#DejaVuSans-30" x="290.576172"/>
       <use xlink:href="#DejaVuSans-35" x="354.199219"/>
      </g>
     </g>
    </g>
    <g id="xtick_18">
     <g id="line2d_53">
      <path d="M 486.015523 584.521875 
L 486.015523 331.135938 
" clip-path="url(#p1a68e396ce)" style="fill: none; stroke-dasharray: 2.96,1.28; stroke-dashoffset: 0; stroke: #b0b0b0; stroke-width: 0.8"/>
     </g>
     <g id="line2d_54">
      <g>
       <use xlink:href="#m2b950e4018" x="486.015523" y="584.521875" style="stroke: #000000; stroke-width: 0.8"/>
      </g>
     </g>
     <g id="text_16">
      <!-- 2022-06 -->
      <g transform="translate(465.124117 599.120312)scale(0.1 -0.1)">
       <use xlink:href="#DejaVuSans-32"/>
       <use xlink:href="#DejaVuSans-30" x="63.623047"/>
       <use xlink:href="#DejaVuSans-32" x="127.246094"/>
       <use xlink:href="#DejaVuSans-32" x="190.869141"/>
       <use xlink:href="#DejaVuSans-2d" x="254.492188"/>
       <use xlink:href="#DejaVuSans-30" x="290.576172"/>
       <use xlink:href="#DejaVuSans-36" x="354.199219"/>
      </g>
     </g>
    </g>
    <g id="xtick_19">
     <g id="line2d_55">
      <path d="M 566.175876 584.521875 
L 566.175876 331.135938 
" clip-path="url(#p1a68e396ce)" style="fill: none; stroke-dasharray: 2.96,1.28; stroke-dashoffset: 0; stroke: #b0b0b0; stroke-width: 0.8"/>
     </g>
     <g id="line2d_56">
      <g>
       <use xlink:href="#m2b950e4018" x="566.175876" y="584.521875" style="stroke: #000000; stroke-width: 0.8"/>
      </g>
     </g>
     <g id="text_17">
      <!-- 2022-07 -->
      <g transform="translate(545.284469 599.120312)scale(0.1 -0.1)">
       <defs>
        <path id="DejaVuSans-37" d="M 525 4666 
L 3525 4666 
L 3525 4397 
L 1831 0 
L 1172 0 
L 2766 4134 
L 525 4134 
L 525 4666 
z
" transform="scale(0.015625)"/>
       </defs>
       <use xlink:href="#DejaVuSans-32"/>
       <use xlink:href="#DejaVuSans-30" x="63.623047"/>
       <use xlink:href="#DejaVuSans-32" x="127.246094"/>
       <use xlink:href="#DejaVuSans-32" x="190.869141"/>
       <use xlink:href="#DejaVuSans-2d" x="254.492188"/>
       <use xlink:href="#DejaVuSans-30" x="290.576172"/>
       <use xlink:href="#DejaVuSans-37" x="354.199219"/>
      </g>
     </g>
    </g>
    <g id="xtick_20">
     <g id="line2d_57">
      <path d="M 649.008239 584.521875 
L 649.008239 331.135938 
" clip-path="url(#p1a68e396ce)" style="fill: none; stroke-dasharray: 2.96,1.28; stroke-dashoffset: 0; stroke: #b0b0b0; stroke-width: 0.8"/>
     </g>
     <g id="line2d_58">
      <g>
       <use xlink:href="#m2b950e4018" x="649.008239" y="584.521875" style="stroke: #000000; stroke-width: 0.8"/>
      </g>
     </g>
     <g id="text_18">
      <!-- 2022-08 -->
      <g transform="translate(628.116833 599.120312)scale(0.1 -0.1)">
       <use xlink:href="#DejaVuSans-32"/>
       <use xlink:href="#DejaVuSans-30" x="63.623047"/>
       <use xlink:href="#DejaVuSans-32" x="127.246094"/>
       <use xlink:href="#DejaVuSans-32" x="190.869141"/>
       <use xlink:href="#DejaVuSans-2d" x="254.492188"/>
       <use xlink:href="#DejaVuSans-30" x="290.576172"/>
       <use xlink:href="#DejaVuSans-38" x="354.199219"/>
      </g>
     </g>
    </g>
    <g id="xtick_21">
     <g id="line2d_59">
      <path d="M 731.840603 584.521875 
L 731.840603 331.135938 
" clip-path="url(#p1a68e396ce)" style="fill: none; stroke-dasharray: 2.96,1.28; stroke-dashoffset: 0; stroke: #b0b0b0; stroke-width: 0.8"/>
     </g>
     <g id="line2d_60">
      <g>
       <use xlink:href="#m2b950e4018" x="731.840603" y="584.521875" style="stroke: #000000; stroke-width: 0.8"/>
      </g>
     </g>
     <g id="text_19">
      <!-- 2022-09 -->
      <g transform="translate(710.949197 599.120312)scale(0.1 -0.1)">
       <defs>
        <path id="DejaVuSans-39" d="M 703 97 
L 703 672 
Q 941 559 1184 500 
Q 1428 441 1663 441 
Q 2288 441 2617 861 
Q 2947 1281 2994 2138 
Q 2813 1869 2534 1725 
Q 2256 1581 1919 1581 
Q 1219 1581 811 2004 
Q 403 2428 403 3163 
Q 403 3881 828 4315 
Q 1253 4750 1959 4750 
Q 2769 4750 3195 4129 
Q 3622 3509 3622 2328 
Q 3622 1225 3098 567 
Q 2575 -91 1691 -91 
Q 1453 -91 1209 -44 
Q 966 3 703 97 
z
M 1959 2075 
Q 2384 2075 2632 2365 
Q 2881 2656 2881 3163 
Q 2881 3666 2632 3958 
Q 2384 4250 1959 4250 
Q 1534 4250 1286 3958 
Q 1038 3666 1038 3163 
Q 1038 2656 1286 2365 
Q 1534 2075 1959 2075 
z
" transform="scale(0.015625)"/>
       </defs>
       <use xlink:href="#DejaVuSans-32"/>
       <use xlink:href="#DejaVuSans-30" x="63.623047"/>
       <use xlink:href="#DejaVuSans-32" x="127.246094"/>
       <use xlink:href="#DejaVuSans-32" x="190.869141"/>
       <use xlink:href="#DejaVuSans-2d" x="254.492188"/>
       <use xlink:href="#DejaVuSans-30" x="290.576172"/>
       <use xlink:href="#DejaVuSans-39" x="354.199219"/>
      </g>
     </g>
    </g>
    <g id="xtick_22">
     <g id="line2d_61">
      <path d="M 812.000955 584.521875 
L 812.000955 331.135938 
" clip-path="url(#p1a68e396ce)" style="fill: none; stroke-dasharray: 2.96,1.28; stroke-dashoffset: 0; stroke: #b0b0b0; stroke-width: 0.8"/>
     </g>
     <g id="line2d_62">
      <g>
       <use xlink:href="#m2b950e4018" x="812.000955" y="584.521875" style="stroke: #000000; stroke-width: 0.8"/>
      </g>
     </g>
     <g id="text_20">
      <!-- 2022-10 -->
      <g transform="translate(791.109549 599.120312)scale(0.1 -0.1)">
       <use xlink:href="#DejaVuSans-32"/>
       <use xlink:href="#DejaVuSans-30" x="63.623047"/>
       <use xlink:href="#DejaVuSans-32" x="127.246094"/>
       <use xlink:href="#DejaVuSans-32" x="190.869141"/>
       <use xlink:href="#DejaVuSans-2d" x="254.492188"/>
       <use xlink:href="#DejaVuSans-31" x="290.576172"/>
       <use xlink:href="#DejaVuSans-30" x="354.199219"/>
      </g>
     </g>
    </g>
    <g id="xtick_23">
     <g id="line2d_63">
      <path d="M 894.833319 584.521875 
L 894.833319 331.135938 
" clip-path="url(#p1a68e396ce)" style="fill: none; stroke-dasharray: 2.96,1.28; stroke-dashoffset: 0; stroke: #b0b0b0; stroke-width: 0.8"/>
     </g>
     <g id="line2d_64">
      <g>
       <use xlink:href="#m2b950e4018" x="894.833319" y="584.521875" style="stroke: #000000; stroke-width: 0.8"/>
      </g>
     </g>
     <g id="text_21">
      <!-- 2022-11 -->
      <g transform="translate(873.941913 599.120312)scale(0.1 -0.1)">
       <use xlink:href="#DejaVuSans-32"/>
       <use xlink:href="#DejaVuSans-30" x="63.623047"/>
       <use xlink:href="#DejaVuSans-32" x="127.246094"/>
       <use xlink:href="#DejaVuSans-32" x="190.869141"/>
       <use xlink:href="#DejaVuSans-2d" x="254.492188"/>
       <use xlink:href="#DejaVuSans-31" x="290.576172"/>
       <use xlink:href="#DejaVuSans-31" x="354.199219"/>
      </g>
     </g>
    </g>
    <g id="xtick_24">
     <g id="line2d_65">
      <path d="M 974.993671 584.521875 
L 974.993671 331.135938 
" clip-path="url(#p1a68e396ce)" style="fill: none; stroke-dasharray: 2.96,1.28; stroke-dashoffset: 0; stroke: #b0b0b0; stroke-width: 0.8"/>
     </g>
     <g id="line2d_66">
      <g>
       <use xlink:href="#m2b950e4018" x="974.993671" y="584.521875" style="stroke: #000000; stroke-width: 0.8"/>
      </g>
     </g>
     <g id="text_22">
      <!-- 2022-12 -->
      <g transform="translate(954.102265 599.120312)scale(0.1 -0.1)">
       <use xlink:href="#DejaVuSans-32"/>
       <use xlink:href="#DejaVuSans-30" x="63.623047"/>
       <use xlink:href="#DejaVuSans-32" x="127.246094"/>
       <use xlink:href="#DejaVuSans-32" x="190.869141"/>
       <use xlink:href="#DejaVuSans-2d" x="254.492188"/>
       <use xlink:href="#DejaVuSans-31" x="290.576172"/>
       <use xlink:href="#DejaVuSans-32" x="354.199219"/>
      </g>
     </g>
    </g>
   </g>
   <g id="matplotlib.axis_4">
    <g id="ytick_8">
     <g id="line2d_67">
      <path d="M 45.267188 584.049368 
L 982.876106 584.049368 
" clip-path="url(#p1a68e396ce)" style="fill: none; stroke-dasharray: 2.96,1.28; stroke-dashoffset: 0; stroke: #b0b0b0; stroke-width: 0.8"/>
     </g>
     <g id="line2d_68">
      <g>
       <use xlink:href="#ma4dde8ec82" x="45.267188" y="584.049368" style="stroke: #000000; stroke-width: 0.8"/>
      </g>
     </g>
     <g id="text_23">
      <!-- 250 -->
      <g transform="translate(10.8 587.848587)scale(0.1 -0.1)">
       <defs>
        <path id="DejaVuSans-2212" d="M 678 2272 
L 4684 2272 
L 4684 1741 
L 678 1741 
L 678 2272 
z
" transform="scale(0.015625)"/>
       </defs>
       <use xlink:href="#DejaVuSans-2212"/>
       <use xlink:href="#DejaVuSans-32" x="83.789062"/>
       <use xlink:href="#DejaVuSans-35" x="147.412109"/>
       <use xlink:href="#DejaVuSans-30" x="211.035156"/>
      </g>
     </g>
    </g>
    <g id="ytick_9">
     <g id="line2d_69">
      <path d="M 45.267188 546.45009 
L 982.876106 546.45009 
" clip-path="url(#p1a68e396ce)" style="fill: none; stroke-dasharray: 2.96,1.28; stroke-dashoffset: 0; stroke: #b0b0b0; stroke-width: 0.8"/>
     </g>
     <g id="line2d_70">
      <g>
       <use xlink:href="#ma4dde8ec82" x="45.267188" y="546.45009" style="stroke: #000000; stroke-width: 0.8"/>
      </g>
     </g>
     <g id="text_24">
      <!-- 200 -->
      <g transform="translate(10.8 550.249309)scale(0.1 -0.1)">
       <use xlink:href="#DejaVuSans-2212"/>
       <use xlink:href="#DejaVuSans-32" x="83.789062"/>
       <use xlink:href="#DejaVuSans-30" x="147.412109"/>
       <use xlink:href="#DejaVuSans-30" x="211.035156"/>
      </g>
     </g>
    </g>
    <g id="ytick_10">
     <g id="line2d_71">
      <path d="M 45.267188 508.850812 
L 982.876106 508.850812 
" clip-path="url(#p1a68e396ce)" style="fill: none; stroke-dasharray: 2.96,1.28; stroke-dashoffset: 0; stroke: #b0b0b0; stroke-width: 0.8"/>
     </g>
     <g id="line2d_72">
      <g>
       <use xlink:href="#ma4dde8ec82" x="45.267188" y="508.850812" style="stroke: #000000; stroke-width: 0.8"/>
      </g>
     </g>
     <g id="text_25">
      <!-- 150 -->
      <g transform="translate(10.8 512.65003)scale(0.1 -0.1)">
       <use xlink:href="#DejaVuSans-2212"/>
       <use xlink:href="#DejaVuSans-31" x="83.789062"/>
       <use xlink:href="#DejaVuSans-35" x="147.412109"/>
       <use xlink:href="#DejaVuSans-30" x="211.035156"/>
      </g>
     </g>
    </g>
    <g id="ytick_11">
     <g id="line2d_73">
      <path d="M 45.267188 471.251533 
L 982.876106 471.251533 
" clip-path="url(#p1a68e396ce)" style="fill: none; stroke-dasharray: 2.96,1.28; stroke-dashoffset: 0; stroke: #b0b0b0; stroke-width: 0.8"/>
     </g>
     <g id="line2d_74">
      <g>
       <use xlink:href="#ma4dde8ec82" x="45.267188" y="471.251533" style="stroke: #000000; stroke-width: 0.8"/>
      </g>
     </g>
     <g id="text_26">
      <!-- 100 -->
      <g transform="translate(10.8 475.050752)scale(0.1 -0.1)">
       <use xlink:href="#DejaVuSans-2212"/>
       <use xlink:href="#DejaVuSans-31" x="83.789062"/>
       <use xlink:href="#DejaVuSans-30" x="147.412109"/>
       <use xlink:href="#DejaVuSans-30" x="211.035156"/>
      </g>
     </g>
    </g>
    <g id="ytick_12">
     <g id="line2d_75">
      <path d="M 45.267188 433.652255 
L 982.876106 433.652255 
" clip-path="url(#p1a68e396ce)" style="fill: none; stroke-dasharray: 2.96,1.28; stroke-dashoffset: 0; stroke: #b0b0b0; stroke-width: 0.8"/>
     </g>
     <g id="line2d_76">
      <g>
       <use xlink:href="#ma4dde8ec82" x="45.267188" y="433.652255" style="stroke: #000000; stroke-width: 0.8"/>
      </g>
     </g>
     <g id="text_27">
      <!-- 50 -->
      <g transform="translate(17.1625 437.451474)scale(0.1 -0.1)">
       <use xlink:href="#DejaVuSans-2212"/>
       <use xlink:href="#DejaVuSans-35" x="83.789062"/>
       <use xlink:href="#DejaVuSans-30" x="147.412109"/>
      </g>
     </g>
    </g>
    <g id="ytick_13">
     <g id="line2d_77">
      <path d="M 45.267188 396.052977 
L 982.876106 396.052977 
" clip-path="url(#p1a68e396ce)" style="fill: none; stroke-dasharray: 2.96,1.28; stroke-dashoffset: 0; stroke: #b0b0b0; stroke-width: 0.8"/>
     </g>
     <g id="line2d_78">
      <g>
       <use xlink:href="#ma4dde8ec82" x="45.267188" y="396.052977" style="stroke: #000000; stroke-width: 0.8"/>
      </g>
     </g>
     <g id="text_28">
      <!-- 0 -->
      <g transform="translate(31.904688 399.852196)scale(0.1 -0.1)">
       <use xlink:href="#DejaVuSans-30"/>
      </g>
     </g>
    </g>
    <g id="ytick_14">
     <g id="line2d_79">
      <path d="M 45.267188 358.453699 
L 982.876106 358.453699 
" clip-path="url(#p1a68e396ce)" style="fill: none; stroke-dasharray: 2.96,1.28; stroke-dashoffset: 0; stroke: #b0b0b0; stroke-width: 0.8"/>
     </g>
     <g id="line2d_80">
      <g>
       <use xlink:href="#ma4dde8ec82" x="45.267188" y="358.453699" style="stroke: #000000; stroke-width: 0.8"/>
      </g>
     </g>
     <g id="text_29">
      <!-- 50 -->
      <g transform="translate(25.542188 362.252918)scale(0.1 -0.1)">
       <use xlink:href="#DejaVuSans-35"/>
       <use xlink:href="#DejaVuSans-30" x="63.623047"/>
      </g>
     </g>
    </g>
   </g>
   <g id="line2d_81">
    <path d="M 87.885775 396.052977 
L 90.557786 396.551529 
L 93.229798 398.16316 
L 95.90181 400.725951 
L 98.573822 401.195771 
L 106.589857 403.018236 
L 109.261869 402.338166 
L 111.93388 402.626926 
L 117.277904 395.529295 
L 125.293939 392.403857 
L 127.965951 394.425001 
L 130.637962 397.884666 
L 133.309974 407.06408 
L 135.981986 420.555471 
L 143.998021 436.085308 
L 146.670033 447.776544 
L 152.014056 461.279737 
L 154.686068 470.822699 
L 162.702103 472.599358 
L 165.374115 469.460114 
L 168.046127 460.54099 
L 170.718139 450.672689 
L 173.39015 440.189664 
L 181.406185 436.902239 
L 184.078197 429.848846 
L 186.750209 421.191957 
L 189.422221 414.993111 
L 192.094232 411.155989 
L 200.110268 408.714335 
L 202.782279 404.026224 
L 205.454291 392.557395 
L 208.126303 384.91155 
L 210.798315 384.034514 
L 218.81435 388.839557 
L 221.486362 394.575625 
L 224.158373 401.534041 
L 226.830385 420.885468 
L 229.502397 424.19857 
L 237.518432 419.193298 
L 242.862455 421.009059 
L 245.534467 422.170428 
L 248.206479 426.591437 
L 256.222514 430.850917 
L 258.894526 428.586182 
L 261.566538 422.365627 
L 264.238549 413.282683 
L 266.910561 403.715918 
L 274.926596 392.942052 
L 277.598608 384.983299 
L 280.27062 377.933985 
L 282.942631 366.598757 
L 293.630678 360.896654 
L 296.30269 357.286966 
L 298.974702 348.688377 
L 301.646714 345.982874 
L 304.318725 346.836618 
L 312.334761 350.298624 
L 315.006772 344.917926 
L 317.678784 342.65348 
L 320.350796 349.610612 
L 323.022808 356.920848 
L 331.038843 356.073134 
L 333.710854 358.033951 
L 336.382866 364.432998 
L 339.054878 366.135901 
L 341.72689 364.380409 
L 349.742925 363.494679 
L 352.414937 364.987329 
L 355.086948 364.966901 
L 368.447007 363.772756 
L 371.119019 369.989063 
L 373.791031 372.510867 
L 376.463042 370.365657 
L 379.135054 371.16407 
L 387.151089 377.003068 
L 392.495113 373.442034 
L 395.167124 370.253998 
L 397.839136 371.594678 
L 405.855171 372.669371 
L 411.199195 383.689069 
L 413.871207 391.166794 
L 416.543218 409.058132 
L 424.559254 419.018138 
L 427.231265 422.650345 
L 429.903277 425.345681 
L 432.575289 430.742893 
L 435.2473 431.71745 
L 443.263336 435.850253 
L 445.935347 433.524963 
L 448.607359 427.478853 
L 451.279371 432.424372 
L 453.951383 429.554068 
L 461.967418 451.317206 
L 467.311441 513.415243 
L 469.983453 541.005742 
L 472.655465 557.012728 
L 483.343512 567.159957 
L 486.015523 569.372916 
L 488.687535 570.978438 
L 491.359547 573.004332 
L 499.375582 571.294568 
L 502.047594 567.861917 
L 504.719606 563.571349 
L 507.391617 557.587003 
L 510.063629 549.807045 
L 518.079664 545.192104 
L 520.751676 536.787982 
L 523.423688 525.273962 
L 526.095699 515.75203 
L 528.767711 511.902961 
L 536.783746 504.472117 
L 539.455758 493.458984 
L 542.12777 483.714415 
L 544.799782 471.080044 
L 547.471793 459.444581 
L 555.487829 450.058929 
L 558.15984 445.688992 
L 560.831852 443.505077 
L 566.175876 433.54386 
L 574.191911 429.167645 
L 576.863922 427.131139 
L 582.207946 418.932269 
L 584.879958 414.514827 
L 592.895993 407.076423 
L 595.568005 403.921299 
L 598.240016 395.880012 
L 600.912028 392.281178 
L 603.58404 389.867476 
L 611.600075 387.405042 
L 614.272087 384.686548 
L 616.944099 383.382044 
L 619.61611 379.33413 
L 622.288122 376.218249 
L 630.304157 375.349761 
L 632.976169 380.142068 
L 635.648181 378.112392 
L 638.320192 372.935493 
L 640.992204 370.222726 
L 649.008239 370.578215 
L 651.680251 369.365437 
L 654.352263 368.962334 
L 657.024275 364.918125 
L 659.696286 360.661716 
L 667.712322 356.206574 
L 673.056345 352.498316 
L 675.728357 350.134326 
L 678.400368 362.113609 
L 689.088415 371.537935 
L 691.760427 378.217251 
L 694.432439 383.941528 
L 697.104451 391.407772 
L 705.120486 404.241847 
L 707.792498 417.104093 
L 710.464509 429.079995 
L 713.136521 435.734949 
L 715.808533 437.398386 
L 723.824568 438.533412 
L 726.49658 436.275134 
L 731.840603 435.706104 
L 734.512615 434.871382 
L 742.52865 434.098954 
L 745.200662 433.495111 
L 747.872674 432.268392 
L 750.544685 432.247291 
L 753.216697 429.742726 
L 761.232732 422.897479 
L 763.904744 417.852342 
L 766.576756 413.594186 
L 769.248768 413.843327 
L 771.920779 415.740384 
L 779.936814 414.251902 
L 782.608826 412.158468 
L 785.280838 413.805046 
L 787.95285 414.508878 
L 790.624861 411.100777 
L 798.640897 406.615473 
L 801.312908 402.369103 
L 803.98492 397.581488 
L 809.328944 391.224445 
L 817.344979 387.496716 
L 820.016991 381.479308 
L 825.361014 379.756303 
L 828.033026 378.427123 
L 836.049061 380.534989 
L 838.721073 393.424976 
L 841.393084 402.018239 
L 844.065096 408.919823 
L 846.737108 411.244031 
L 854.753143 412.546947 
L 857.425155 413.757705 
L 860.097167 412.356991 
L 862.769178 408.443316 
L 865.44119 410.064835 
L 873.457225 408.713091 
L 876.129237 408.427566 
L 881.47326 406.629144 
L 884.145272 409.511673 
L 892.161307 407.933461 
L 894.833319 392.911437 
L 897.505331 384.477155 
L 900.177343 378.001017 
L 902.849354 375.2414 
L 910.86539 393.217311 
L 916.209413 414.279863 
L 918.881425 431.293999 
L 921.553437 445.143362 
L 929.569472 455.176622 
L 932.241483 459.310304 
L 934.913495 464.0356 
L 937.585507 466.951027 
L 940.257519 468.586205 
L 940.257519 468.586205 
" clip-path="url(#p1a68e396ce)" style="fill: none; stroke: #1f77b4; stroke-width: 1.5; stroke-linecap: square"/>
   </g>
   <g id="line2d_82">
    <path d="M 87.885775 396.052977 
L 90.557786 396.32995 
L 93.229798 397.081266 
L 95.90181 398.315915 
L 98.573822 399.172607 
L 106.589857 400.214986 
L 111.93388 401.202813 
L 114.605892 400.717588 
L 117.277904 399.555109 
L 125.293939 397.990456 
L 127.965951 397.224746 
L 130.637962 397.364408 
L 133.309974 399.393586 
L 135.981986 403.780307 
L 143.998021 410.428436 
L 146.670033 418.070133 
L 152.014056 426.870589 
L 154.686068 435.789546 
L 162.702103 443.237376 
L 165.374115 448.530747 
L 168.046127 450.950651 
L 170.718139 450.894729 
L 173.39015 448.743557 
L 181.406185 446.366312 
L 184.078197 443.052805 
L 186.750209 438.670038 
L 192.094232 429.36452 
L 200.110268 425.229364 
L 202.782279 420.984532 
L 205.454291 415.294597 
L 208.126303 409.214134 
L 210.798315 404.175655 
L 218.81435 401.107191 
L 221.486362 399.800453 
L 224.158373 400.147261 
L 229.502397 408.276987 
L 237.518432 410.460539 
L 242.862455 412.570468 
L 245.534467 414.490623 
L 248.206479 416.910951 
L 256.222514 419.699096 
L 258.894526 421.47659 
L 261.566538 421.654404 
L 264.238549 419.980013 
L 266.910561 416.727121 
L 274.926596 411.970023 
L 277.598608 406.572601 
L 280.27062 400.844812 
L 282.942631 393.995539 
L 293.630678 387.375713 
L 296.30269 381.357929 
L 298.974702 374.823988 
L 301.646714 369.055744 
L 304.318725 364.611905 
L 312.334761 361.749242 
L 315.006772 358.382972 
L 317.678784 355.237069 
L 320.350796 354.111776 
L 323.022808 354.673591 
L 331.038843 354.9535 
L 333.710854 355.569591 
L 339.054878 359.100999 
L 341.72689 360.156882 
L 349.742925 360.824441 
L 352.414937 361.657019 
L 355.086948 362.318996 
L 368.447007 362.609748 
L 371.119019 364.085611 
L 373.791031 365.770662 
L 379.135054 367.584543 
L 387.151089 369.468248 
L 389.823101 370.623094 
L 392.495113 371.186882 
L 395.167124 371.000305 
L 405.855171 371.429218 
L 411.199195 373.881188 
L 413.871207 377.338309 
L 416.543218 383.682274 
L 424.559254 390.749447 
L 427.231265 397.129627 
L 432.575289 408.366849 
L 435.2473 413.036969 
L 443.263336 417.599626 
L 445.935347 420.784693 
L 448.607359 422.123525 
L 451.279371 424.183694 
L 453.951383 425.257769 
L 461.967418 430.469657 
L 464.63943 440.755529 
L 467.311441 455.287471 
L 472.655465 489.347446 
L 480.6715 504.400613 
L 483.343512 516.952482 
L 486.015523 527.436569 
L 488.687535 536.144943 
L 491.359547 543.516821 
L 499.375582 549.07237 
L 502.047594 552.830279 
L 504.719606 554.978493 
L 507.391617 555.500195 
L 510.063629 554.361565 
L 518.079664 552.527673 
L 520.751676 549.379735 
L 523.423688 544.55858 
L 526.095699 538.79727 
L 528.767711 533.418408 
L 536.783746 527.62915 
L 539.455758 520.795117 
L 542.12777 513.378977 
L 544.799782 504.91919 
L 547.471793 495.824268 
L 555.487829 486.6712 
L 558.15984 478.474759 
L 560.831852 471.480822 
L 563.503864 464.870869 
L 566.175876 458.605467 
L 574.191911 452.717903 
L 579.535934 442.699832 
L 584.879958 433.260021 
L 592.895993 428.023302 
L 595.568005 423.202901 
L 598.240016 417.738323 
L 600.912028 412.646894 
L 603.58404 408.09101 
L 611.600075 403.953817 
L 614.272087 400.100363 
L 619.61611 393.272185 
L 622.288122 389.861398 
L 630.304157 386.959071 
L 632.976169 385.59567 
L 635.648181 384.099014 
L 640.992204 379.537593 
L 649.008239 377.745718 
L 651.680251 376.069661 
L 654.352263 374.648196 
L 657.024275 372.702182 
L 659.696286 370.294089 
L 667.712322 367.476586 
L 673.056345 364.480932 
L 675.728357 361.611611 
L 678.400368 361.71201 
L 689.088415 363.677195 
L 691.760427 366.585206 
L 694.432439 370.056471 
L 697.104451 374.326731 
L 705.120486 380.309754 
L 707.792498 387.668622 
L 713.136521 403.907707 
L 715.808533 410.605843 
L 723.824568 416.191357 
L 726.49658 420.208112 
L 731.840603 423.307711 
L 734.512615 425.620445 
L 742.52865 427.316147 
L 745.200662 428.55194 
L 747.872674 429.29523 
L 750.544685 429.885642 
L 753.216697 429.857059 
L 761.232732 428.465143 
L 763.904744 426.342583 
L 766.576756 423.792903 
L 769.248768 421.802988 
L 771.920779 420.590467 
L 779.936814 419.322754 
L 782.608826 417.889897 
L 785.280838 417.072927 
L 787.95285 416.560117 
L 790.624861 415.468249 
L 798.640897 413.697694 
L 801.312908 411.431976 
L 806.656932 405.808496 
L 809.328944 402.891686 
L 817.344979 399.812692 
L 820.016991 396.146015 
L 825.361014 392.868073 
L 828.033026 389.979883 
L 836.049061 388.090904 
L 838.721073 389.157718 
L 841.393084 391.729823 
L 844.065096 395.167823 
L 846.737108 398.383064 
L 854.753143 401.215841 
L 857.425155 403.724214 
L 860.097167 405.450769 
L 862.769178 406.049279 
L 865.44119 406.85239 
L 873.457225 407.22453 
L 876.129237 407.465137 
L 881.47326 407.297939 
L 884.145272 407.740686 
L 892.161307 407.779241 
L 894.833319 404.80568 
L 897.505331 400.739975 
L 900.177343 396.192183 
L 902.849354 392.002027 
L 910.86539 392.245083 
L 916.209413 396.652039 
L 918.881425 403.580431 
L 921.553437 411.893017 
L 929.569472 420.549738 
L 932.241483 428.301851 
L 934.913495 435.448601 
L 937.585507 441.749086 
L 940.257519 447.11651 
L 940.257519 447.11651 
" clip-path="url(#p1a68e396ce)" style="fill: none; stroke: #ff7f0e; stroke-width: 1.5; stroke-linecap: square"/>
   </g>
   <g id="patch_9">
    <path d="M 45.267188 584.521875 
L 45.267188 331.135938 
" style="fill: none; stroke: #000000; stroke-width: 0.8; stroke-linejoin: miter; stroke-linecap: square"/>
   </g>
   <g id="patch_10">
    <path d="M 982.876106 584.521875 
L 982.876106 331.135938 
" style="fill: none; stroke: #000000; stroke-width: 0.8; stroke-linejoin: miter; stroke-linecap: square"/>
   </g>
   <g id="patch_11">
    <path d="M 45.267188 584.521875 
L 982.876106 584.521875 
" style="fill: none; stroke: #000000; stroke-width: 0.8; stroke-linejoin: miter; stroke-linecap: square"/>
   </g>
   <g id="patch_12">
    <path d="M 45.267188 331.135938 
L 982.876106 331.135938 
" style="fill: none; stroke: #000000; stroke-width: 0.8; stroke-linejoin: miter; stroke-linecap: square"/>
   </g>
   <g id="text_30">
    <!-- MACD -->
    <g transform="translate(496.085709 325.135938)scale(0.12 -0.12)">
     <defs>
      <path id="DejaVuSans-44" d="M 1259 4147 
L 1259 519 
L 2022 519 
Q 2988 519 3436 956 
Q 3884 1394 3884 2338 
Q 3884 3275 3436 3711 
Q 2988 4147 2022 4147 
L 1259 4147 
z
M 628 4666 
L 1925 4666 
Q 3281 4666 3915 4102 
Q 4550 3538 4550 2338 
Q 4550 1131 3912 565 
Q 3275 0 1925 0 
L 628 0 
L 628 4666 
z
" transform="scale(0.015625)"/>
     </defs>
     <use xlink:href="#DejaVuSans-4d"/>
     <use xlink:href="#DejaVuSans-41" x="86.279297"/>
     <use xlink:href="#DejaVuSans-43" x="152.9375"/>
     <use xlink:href="#DejaVuSans-44" x="222.761719"/>
    </g>
   </g>
   <g id="legend_2">
    <g id="patch_13">
     <path d="M 913.899543 368.492188 
L 975.876106 368.492188 
Q 977.876106 368.492188 977.876106 366.492188 
L 977.876106 338.135938 
Q 977.876106 336.135938 975.876106 336.135938 
L 913.899543 336.135938 
Q 911.899543 336.135938 911.899543 338.135938 
L 911.899543 366.492188 
Q 911.899543 368.492188 913.899543 368.492188 
z
" style="fill: #ffffff; opacity: 0.8; stroke: #cccccc; stroke-linejoin: miter"/>
    </g>
    <g id="line2d_83">
     <path d="M 915.899543 344.234375 
L 925.899543 344.234375 
L 935.899543 344.234375 
" style="fill: none; stroke: #1f77b4; stroke-width: 1.5; stroke-linecap: square"/>
    </g>
    <g id="text_31">
     <!-- MACD -->
     <g transform="translate(943.899543 347.734375)scale(0.1 -0.1)">
      <use xlink:href="#DejaVuSans-4d"/>
      <use xlink:href="#DejaVuSans-41" x="86.279297"/>
      <use xlink:href="#DejaVuSans-43" x="152.9375"/>
      <use xlink:href="#DejaVuSans-44" x="222.761719"/>
     </g>
    </g>
    <g id="line2d_84">
     <path d="M 915.899543 358.9125 
L 925.899543 358.9125 
L 935.899543 358.9125 
" style="fill: none; stroke: #ff7f0e; stroke-width: 1.5; stroke-linecap: square"/>
    </g>
    <g id="text_32">
     <!-- SIG -->
     <g transform="translate(943.899543 362.4125)scale(0.1 -0.1)">
      <defs>
       <path id="DejaVuSans-49" d="M 628 4666 
L 1259 4666 
L 1259 0 
L 628 0 
L 628 4666 
z
" transform="scale(0.015625)"/>
       <path id="DejaVuSans-47" d="M 3809 666 
L 3809 1919 
L 2778 1919 
L 2778 2438 
L 4434 2438 
L 4434 434 
Q 4069 175 3628 42 
Q 3188 -91 2688 -91 
Q 1594 -91 976 548 
Q 359 1188 359 2328 
Q 359 3472 976 4111 
Q 1594 4750 2688 4750 
Q 3144 4750 3555 4637 
Q 3966 4525 4313 4306 
L 4313 3634 
Q 3963 3931 3569 4081 
Q 3175 4231 2741 4231 
Q 1884 4231 1454 3753 
Q 1025 3275 1025 2328 
Q 1025 1384 1454 906 
Q 1884 428 2741 428 
Q 3075 428 3337 486 
Q 3600 544 3809 666 
z
" transform="scale(0.015625)"/>
      </defs>
      <use xlink:href="#DejaVuSans-53"/>
      <use xlink:href="#DejaVuSans-49" x="63.476562"/>
      <use xlink:href="#DejaVuSans-47" x="92.96875"/>
     </g>
    </g>
   </g>
  </g>
  <g id="text_33">
   <!-- Divi's Laboratories Limited -->
   <g transform="translate(423.914062 21.358125)scale(0.12 -0.12)">
    <defs>
     <path id="DejaVuSans-76" d="M 191 3500 
L 800 3500 
L 1894 563 
L 2988 3500 
L 3597 3500 
L 2284 0 
L 1503 0 
L 191 3500 
z
" transform="scale(0.015625)"/>
     <path id="DejaVuSans-27" d="M 1147 4666 
L 1147 2931 
L 616 2931 
L 616 4666 
L 1147 4666 
z
" transform="scale(0.015625)"/>
     <path id="DejaVuSans-61" d="M 2194 1759 
Q 1497 1759 1228 1600 
Q 959 1441 959 1056 
Q 959 750 1161 570 
Q 1363 391 1709 391 
Q 2188 391 2477 730 
Q 2766 1069 2766 1631 
L 2766 1759 
L 2194 1759 
z
M 3341 1997 
L 3341 0 
L 2766 0 
L 2766 531 
Q 2569 213 2275 61 
Q 1981 -91 1556 -91 
Q 1019 -91 701 211 
Q 384 513 384 1019 
Q 384 1609 779 1909 
Q 1175 2209 1959 2209 
L 2766 2209 
L 2766 2266 
Q 2766 2663 2505 2880 
Q 2244 3097 1772 3097 
Q 1472 3097 1187 3025 
Q 903 2953 641 2809 
L 641 3341 
Q 956 3463 1253 3523 
Q 1550 3584 1831 3584 
Q 2591 3584 2966 3190 
Q 3341 2797 3341 1997 
z
" transform="scale(0.015625)"/>
     <path id="DejaVuSans-62" d="M 3116 1747 
Q 3116 2381 2855 2742 
Q 2594 3103 2138 3103 
Q 1681 3103 1420 2742 
Q 1159 2381 1159 1747 
Q 1159 1113 1420 752 
Q 1681 391 2138 391 
Q 2594 391 2855 752 
Q 3116 1113 3116 1747 
z
M 1159 2969 
Q 1341 3281 1617 3432 
Q 1894 3584 2278 3584 
Q 2916 3584 3314 3078 
Q 3713 2572 3713 1747 
Q 3713 922 3314 415 
Q 2916 -91 2278 -91 
Q 1894 -91 1617 61 
Q 1341 213 1159 525 
L 1159 0 
L 581 0 
L 581 4863 
L 1159 4863 
L 1159 2969 
z
" transform="scale(0.015625)"/>
     <path id="DejaVuSans-74" d="M 1172 4494 
L 1172 3500 
L 2356 3500 
L 2356 3053 
L 1172 3053 
L 1172 1153 
Q 1172 725 1289 603 
Q 1406 481 1766 481 
L 2356 481 
L 2356 0 
L 1766 0 
Q 1100 0 847 248 
Q 594 497 594 1153 
L 594 3053 
L 172 3053 
L 172 3500 
L 594 3500 
L 594 4494 
L 1172 4494 
z
" transform="scale(0.015625)"/>
     <path id="DejaVuSans-6d" d="M 3328 2828 
Q 3544 3216 3844 3400 
Q 4144 3584 4550 3584 
Q 5097 3584 5394 3201 
Q 5691 2819 5691 2113 
L 5691 0 
L 5113 0 
L 5113 2094 
Q 5113 2597 4934 2840 
Q 4756 3084 4391 3084 
Q 3944 3084 3684 2787 
Q 3425 2491 3425 1978 
L 3425 0 
L 2847 0 
L 2847 2094 
Q 2847 2600 2669 2842 
Q 2491 3084 2119 3084 
Q 1678 3084 1418 2786 
Q 1159 2488 1159 1978 
L 1159 0 
L 581 0 
L 581 3500 
L 1159 3500 
L 1159 2956 
Q 1356 3278 1631 3431 
Q 1906 3584 2284 3584 
Q 2666 3584 2933 3390 
Q 3200 3197 3328 2828 
z
" transform="scale(0.015625)"/>
     <path id="DejaVuSans-64" d="M 2906 2969 
L 2906 4863 
L 3481 4863 
L 3481 0 
L 2906 0 
L 2906 525 
Q 2725 213 2448 61 
Q 2172 -91 1784 -91 
Q 1150 -91 751 415 
Q 353 922 353 1747 
Q 353 2572 751 3078 
Q 1150 3584 1784 3584 
Q 2172 3584 2448 3432 
Q 2725 3281 2906 2969 
z
M 947 1747 
Q 947 1113 1208 752 
Q 1469 391 1925 391 
Q 2381 391 2643 752 
Q 2906 1113 2906 1747 
Q 2906 2381 2643 2742 
Q 2381 3103 1925 3103 
Q 1469 3103 1208 2742 
Q 947 2381 947 1747 
z
" transform="scale(0.015625)"/>
    </defs>
    <use xlink:href="#DejaVuSans-44"/>
    <use xlink:href="#DejaVuSans-69" x="77.001953"/>
    <use xlink:href="#DejaVuSans-76" x="104.785156"/>
    <use xlink:href="#DejaVuSans-69" x="163.964844"/>
    <use xlink:href="#DejaVuSans-27" x="191.748047"/>
    <use xlink:href="#DejaVuSans-73" x="219.238281"/>
    <use xlink:href="#DejaVuSans-20" x="271.337891"/>
    <use xlink:href="#DejaVuSans-4c" x="303.125"/>
    <use xlink:href="#DejaVuSans-61" x="358.837891"/>
    <use xlink:href="#DejaVuSans-62" x="420.117188"/>
    <use xlink:href="#DejaVuSans-6f" x="483.59375"/>
    <use xlink:href="#DejaVuSans-72" x="544.775391"/>
    <use xlink:href="#DejaVuSans-61" x="585.888672"/>
    <use xlink:href="#DejaVuSans-74" x="647.167969"/>
    <use xlink:href="#DejaVuSans-6f" x="686.376953"/>
    <use xlink:href="#DejaVuSans-72" x="747.558594"/>
    <use xlink:href="#DejaVuSans-69" x="788.671875"/>
    <use xlink:href="#DejaVuSans-65" x="816.455078"/>
    <use xlink:href="#DejaVuSans-73" x="877.978516"/>
    <use xlink:href="#DejaVuSans-20" x="930.078125"/>
    <use xlink:href="#DejaVuSans-4c" x="961.865234"/>
    <use xlink:href="#DejaVuSans-69" x="1017.578125"/>
    <use xlink:href="#DejaVuSans-6d" x="1045.361328"/>
    <use xlink:href="#DejaVuSans-69" x="1142.773438"/>
    <use xlink:href="#DejaVuSans-74" x="1170.556641"/>
    <use xlink:href="#DejaVuSans-65" x="1209.765625"/>
    <use xlink:href="#DejaVuSans-64" x="1271.289062"/>
   </g>
  </g>
 </g>
 <defs>
  <clipPath id="p1d45000ed2">
   <rect x="45.267188" y="48.331875" width="937.608918" height="253.385938"/>
  </clipPath>
  <clipPath id="p1a68e396ce">
   <rect x="45.267188" y="331.135938" width="937.608918" height="253.385937"/>
  </clipPath>
 </defs>
</svg>
