<?xml version="1.0" encoding="utf-8" standalone="no"?>
<!DOCTYPE svg PUBLIC "-//W3C//DTD SVG 1.1//EN"
  "http://www.w3.org/Graphics/SVG/1.1/DTD/svg11.dtd">
<svg xmlns:xlink="http://www.w3.org/1999/xlink" width="1008pt" height="612pt" viewBox="0 0 1008 612" xmlns="http://www.w3.org/2000/svg" version="1.1">
 <metadata>
  <rdf:RDF xmlns:dc="http://purl.org/dc/elements/1.1/" xmlns:cc="http://creativecommons.org/ns#" xmlns:rdf="http://www.w3.org/1999/02/22-rdf-syntax-ns#">
   <cc:Work>
    <dc:type rdf:resource="http://purl.org/dc/dcmitype/StillImage"/>
    <dc:date>2022-11-20T19:47:06.557719</dc:date>
    <dc:format>image/svg+xml</dc:format>
    <dc:creator>
     <cc:Agent>
      <dc:title>Matplotlib v3.5.2, https://matplotlib.org/</dc:title>
     </cc:Agent>
    </dc:creator>
   </cc:Work>
  </rdf:RDF>
 </metadata>
 <defs>
  <style type="text/css">*{stroke-linejoin: round; stroke-linecap: butt}</style>
 </defs>
 <g id="figure_1">
  <g id="patch_1">
   <path d="M 0 612 
L 1008 612 
L 1008 0 
L 0 0 
z
" style="fill: #ffffff"/>
  </g>
  <g id="axes_1">
   <g id="patch_2">
    <path d="M 36.8875 301.717812 
L 982.876106 301.717812 
L 982.876106 48.331875 
L 36.8875 48.331875 
z
" style="fill: #ffffff"/>
   </g>
   <g id="matplotlib.axis_1">
    <g id="xtick_1">
     <g id="line2d_1">
      <path d="M 74.495197 301.717812 
L 74.495197 48.331875 
" clip-path="url(#p5b2dbf040a)" style="fill: none; stroke-dasharray: 2.96,1.28; stroke-dashoffset: 0; stroke: #b0b0b0; stroke-width: 0.8"/>
     </g>
     <g id="line2d_2">
      <defs>
       <path id="m72b6ea4ffc" d="M 0 0 
L 0 3.5 
" style="stroke: #000000; stroke-width: 0.8"/>
      </defs>
      <g>
       <use xlink:href="#m72b6ea4ffc" x="74.495197" y="301.717812" style="stroke: #000000; stroke-width: 0.8"/>
      </g>
     </g>
    </g>
    <g id="xtick_2">
     <g id="line2d_3">
      <path d="M 158.067859 301.717812 
L 158.067859 48.331875 
" clip-path="url(#p5b2dbf040a)" style="fill: none; stroke-dasharray: 2.96,1.28; stroke-dashoffset: 0; stroke: #b0b0b0; stroke-width: 0.8"/>
     </g>
     <g id="line2d_4">
      <g>
       <use xlink:href="#m72b6ea4ffc" x="158.067859" y="301.717812" style="stroke: #000000; stroke-width: 0.8"/>
      </g>
     </g>
    </g>
    <g id="xtick_3">
     <g id="line2d_5">
      <path d="M 233.552843 301.717812 
L 233.552843 48.331875 
" clip-path="url(#p5b2dbf040a)" style="fill: none; stroke-dasharray: 2.96,1.28; stroke-dashoffset: 0; stroke: #b0b0b0; stroke-width: 0.8"/>
     </g>
     <g id="line2d_6">
      <g>
       <use xlink:href="#m72b6ea4ffc" x="233.552843" y="301.717812" style="stroke: #000000; stroke-width: 0.8"/>
      </g>
     </g>
    </g>
    <g id="xtick_4">
     <g id="line2d_7">
      <path d="M 317.125504 301.717812 
L 317.125504 48.331875 
" clip-path="url(#p5b2dbf040a)" style="fill: none; stroke-dasharray: 2.96,1.28; stroke-dashoffset: 0; stroke: #b0b0b0; stroke-width: 0.8"/>
     </g>
     <g id="line2d_8">
      <g>
       <use xlink:href="#m72b6ea4ffc" x="317.125504" y="301.717812" style="stroke: #000000; stroke-width: 0.8"/>
      </g>
     </g>
    </g>
    <g id="xtick_5">
     <g id="line2d_9">
      <path d="M 398.002273 301.717812 
L 398.002273 48.331875 
" clip-path="url(#p5b2dbf040a)" style="fill: none; stroke-dasharray: 2.96,1.28; stroke-dashoffset: 0; stroke: #b0b0b0; stroke-width: 0.8"/>
     </g>
     <g id="line2d_10">
      <g>
       <use xlink:href="#m72b6ea4ffc" x="398.002273" y="301.717812" style="stroke: #000000; stroke-width: 0.8"/>
      </g>
     </g>
    </g>
    <g id="xtick_6">
     <g id="line2d_11">
      <path d="M 481.574934 301.717812 
L 481.574934 48.331875 
" clip-path="url(#p5b2dbf040a)" style="fill: none; stroke-dasharray: 2.96,1.28; stroke-dashoffset: 0; stroke: #b0b0b0; stroke-width: 0.8"/>
     </g>
     <g id="line2d_12">
      <g>
       <use xlink:href="#m72b6ea4ffc" x="481.574934" y="301.717812" style="stroke: #000000; stroke-width: 0.8"/>
      </g>
     </g>
    </g>
    <g id="xtick_7">
     <g id="line2d_13">
      <path d="M 562.451703 301.717812 
L 562.451703 48.331875 
" clip-path="url(#p5b2dbf040a)" style="fill: none; stroke-dasharray: 2.96,1.28; stroke-dashoffset: 0; stroke: #b0b0b0; stroke-width: 0.8"/>
     </g>
     <g id="line2d_14">
      <g>
       <use xlink:href="#m72b6ea4ffc" x="562.451703" y="301.717812" style="stroke: #000000; stroke-width: 0.8"/>
      </g>
     </g>
    </g>
    <g id="xtick_8">
     <g id="line2d_15">
      <path d="M 646.024364 301.717812 
L 646.024364 48.331875 
" clip-path="url(#p5b2dbf040a)" style="fill: none; stroke-dasharray: 2.96,1.28; stroke-dashoffset: 0; stroke: #b0b0b0; stroke-width: 0.8"/>
     </g>
     <g id="line2d_16">
      <g>
       <use xlink:href="#m72b6ea4ffc" x="646.024364" y="301.717812" style="stroke: #000000; stroke-width: 0.8"/>
      </g>
     </g>
    </g>
    <g id="xtick_9">
     <g id="line2d_17">
      <path d="M 729.597025 301.717812 
L 729.597025 48.331875 
" clip-path="url(#p5b2dbf040a)" style="fill: none; stroke-dasharray: 2.96,1.28; stroke-dashoffset: 0; stroke: #b0b0b0; stroke-width: 0.8"/>
     </g>
     <g id="line2d_18">
      <g>
       <use xlink:href="#m72b6ea4ffc" x="729.597025" y="301.717812" style="stroke: #000000; stroke-width: 0.8"/>
      </g>
     </g>
    </g>
    <g id="xtick_10">
     <g id="line2d_19">
      <path d="M 810.473794 301.717812 
L 810.473794 48.331875 
" clip-path="url(#p5b2dbf040a)" style="fill: none; stroke-dasharray: 2.96,1.28; stroke-dashoffset: 0; stroke: #b0b0b0; stroke-width: 0.8"/>
     </g>
     <g id="line2d_20">
      <g>
       <use xlink:href="#m72b6ea4ffc" x="810.473794" y="301.717812" style="stroke: #000000; stroke-width: 0.8"/>
      </g>
     </g>
    </g>
    <g id="xtick_11">
     <g id="line2d_21">
      <path d="M 894.046455 301.717812 
L 894.046455 48.331875 
" clip-path="url(#p5b2dbf040a)" style="fill: none; stroke-dasharray: 2.96,1.28; stroke-dashoffset: 0; stroke: #b0b0b0; stroke-width: 0.8"/>
     </g>
     <g id="line2d_22">
      <g>
       <use xlink:href="#m72b6ea4ffc" x="894.046455" y="301.717812" style="stroke: #000000; stroke-width: 0.8"/>
      </g>
     </g>
    </g>
    <g id="xtick_12">
     <g id="line2d_23">
      <path d="M 974.923224 301.717812 
L 974.923224 48.331875 
" clip-path="url(#p5b2dbf040a)" style="fill: none; stroke-dasharray: 2.96,1.28; stroke-dashoffset: 0; stroke: #b0b0b0; stroke-width: 0.8"/>
     </g>
     <g id="line2d_24">
      <g>
       <use xlink:href="#m72b6ea4ffc" x="974.923224" y="301.717812" style="stroke: #000000; stroke-width: 0.8"/>
      </g>
     </g>
    </g>
   </g>
   <g id="matplotlib.axis_2">
    <g id="ytick_1">
     <g id="line2d_25">
      <path d="M 36.8875 268.427978 
L 982.876106 268.427978 
" clip-path="url(#p5b2dbf040a)" style="fill: none; stroke-dasharray: 2.96,1.28; stroke-dashoffset: 0; stroke: #b0b0b0; stroke-width: 0.8"/>
     </g>
     <g id="line2d_26">
      <defs>
       <path id="ma39bf45ce7" d="M 0 0 
L -3.5 0 
" style="stroke: #000000; stroke-width: 0.8"/>
      </defs>
      <g>
       <use xlink:href="#ma39bf45ce7" x="36.8875" y="268.427978" style="stroke: #000000; stroke-width: 0.8"/>
      </g>
     </g>
     <g id="text_1">
      <!-- 160 -->
      <g transform="translate(10.8 272.227196)scale(0.1 -0.1)">
       <defs>
        <path id="DejaVuSans-31" d="M 794 531 
L 1825 531 
L 1825 4091 
L 703 3866 
L 703 4441 
L 1819 4666 
L 2450 4666 
L 2450 531 
L 3481 531 
L 3481 0 
L 794 0 
L 794 531 
z
" transform="scale(0.015625)"/>
        <path id="DejaVuSans-36" d="M 2113 2584 
Q 1688 2584 1439 2293 
Q 1191 2003 1191 1497 
Q 1191 994 1439 701 
Q 1688 409 2113 409 
Q 2538 409 2786 701 
Q 3034 994 3034 1497 
Q 3034 2003 2786 2293 
Q 2538 2584 2113 2584 
z
M 3366 4563 
L 3366 3988 
Q 3128 4100 2886 4159 
Q 2644 4219 2406 4219 
Q 1781 4219 1451 3797 
Q 1122 3375 1075 2522 
Q 1259 2794 1537 2939 
Q 1816 3084 2150 3084 
Q 2853 3084 3261 2657 
Q 3669 2231 3669 1497 
Q 3669 778 3244 343 
Q 2819 -91 2113 -91 
Q 1303 -91 875 529 
Q 447 1150 447 2328 
Q 447 3434 972 4092 
Q 1497 4750 2381 4750 
Q 2619 4750 2861 4703 
Q 3103 4656 3366 4563 
z
" transform="scale(0.015625)"/>
        <path id="DejaVuSans-30" d="M 2034 4250 
Q 1547 4250 1301 3770 
Q 1056 3291 1056 2328 
Q 1056 1369 1301 889 
Q 1547 409 2034 409 
Q 2525 409 2770 889 
Q 3016 1369 3016 2328 
Q 3016 3291 2770 3770 
Q 2525 4250 2034 4250 
z
M 2034 4750 
Q 2819 4750 3233 4129 
Q 3647 3509 3647 2328 
Q 3647 1150 3233 529 
Q 2819 -91 2034 -91 
Q 1250 -91 836 529 
Q 422 1150 422 2328 
Q 422 3509 836 4129 
Q 1250 4750 2034 4750 
z
" transform="scale(0.015625)"/>
       </defs>
       <use xlink:href="#DejaVuSans-31"/>
       <use xlink:href="#DejaVuSans-36" x="63.623047"/>
       <use xlink:href="#DejaVuSans-30" x="127.246094"/>
      </g>
     </g>
    </g>
    <g id="ytick_2">
     <g id="line2d_27">
      <path d="M 36.8875 224.883393 
L 982.876106 224.883393 
" clip-path="url(#p5b2dbf040a)" style="fill: none; stroke-dasharray: 2.96,1.28; stroke-dashoffset: 0; stroke: #b0b0b0; stroke-width: 0.8"/>
     </g>
     <g id="line2d_28">
      <g>
       <use xlink:href="#ma39bf45ce7" x="36.8875" y="224.883393" style="stroke: #000000; stroke-width: 0.8"/>
      </g>
     </g>
     <g id="text_2">
      <!-- 180 -->
      <g transform="translate(10.8 228.682612)scale(0.1 -0.1)">
       <defs>
        <path id="DejaVuSans-38" d="M 2034 2216 
Q 1584 2216 1326 1975 
Q 1069 1734 1069 1313 
Q 1069 891 1326 650 
Q 1584 409 2034 409 
Q 2484 409 2743 651 
Q 3003 894 3003 1313 
Q 3003 1734 2745 1975 
Q 2488 2216 2034 2216 
z
M 1403 2484 
Q 997 2584 770 2862 
Q 544 3141 544 3541 
Q 544 4100 942 4425 
Q 1341 4750 2034 4750 
Q 2731 4750 3128 4425 
Q 3525 4100 3525 3541 
Q 3525 3141 3298 2862 
Q 3072 2584 2669 2484 
Q 3125 2378 3379 2068 
Q 3634 1759 3634 1313 
Q 3634 634 3220 271 
Q 2806 -91 2034 -91 
Q 1263 -91 848 271 
Q 434 634 434 1313 
Q 434 1759 690 2068 
Q 947 2378 1403 2484 
z
M 1172 3481 
Q 1172 3119 1398 2916 
Q 1625 2713 2034 2713 
Q 2441 2713 2670 2916 
Q 2900 3119 2900 3481 
Q 2900 3844 2670 4047 
Q 2441 4250 2034 4250 
Q 1625 4250 1398 4047 
Q 1172 3844 1172 3481 
z
" transform="scale(0.015625)"/>
       </defs>
       <use xlink:href="#DejaVuSans-31"/>
       <use xlink:href="#DejaVuSans-38" x="63.623047"/>
       <use xlink:href="#DejaVuSans-30" x="127.246094"/>
      </g>
     </g>
    </g>
    <g id="ytick_3">
     <g id="line2d_29">
      <path d="M 36.8875 181.338809 
L 982.876106 181.338809 
" clip-path="url(#p5b2dbf040a)" style="fill: none; stroke-dasharray: 2.96,1.28; stroke-dashoffset: 0; stroke: #b0b0b0; stroke-width: 0.8"/>
     </g>
     <g id="line2d_30">
      <g>
       <use xlink:href="#ma39bf45ce7" x="36.8875" y="181.338809" style="stroke: #000000; stroke-width: 0.8"/>
      </g>
     </g>
     <g id="text_3">
      <!-- 200 -->
      <g transform="translate(10.8 185.138027)scale(0.1 -0.1)">
       <defs>
        <path id="DejaVuSans-32" d="M 1228 531 
L 3431 531 
L 3431 0 
L 469 0 
L 469 531 
Q 828 903 1448 1529 
Q 2069 2156 2228 2338 
Q 2531 2678 2651 2914 
Q 2772 3150 2772 3378 
Q 2772 3750 2511 3984 
Q 2250 4219 1831 4219 
Q 1534 4219 1204 4116 
Q 875 4013 500 3803 
L 500 4441 
Q 881 4594 1212 4672 
Q 1544 4750 1819 4750 
Q 2544 4750 2975 4387 
Q 3406 4025 3406 3419 
Q 3406 3131 3298 2873 
Q 3191 2616 2906 2266 
Q 2828 2175 2409 1742 
Q 1991 1309 1228 531 
z
" transform="scale(0.015625)"/>
       </defs>
       <use xlink:href="#DejaVuSans-32"/>
       <use xlink:href="#DejaVuSans-30" x="63.623047"/>
       <use xlink:href="#DejaVuSans-30" x="127.246094"/>
      </g>
     </g>
    </g>
    <g id="ytick_4">
     <g id="line2d_31">
      <path d="M 36.8875 137.794224 
L 982.876106 137.794224 
" clip-path="url(#p5b2dbf040a)" style="fill: none; stroke-dasharray: 2.96,1.28; stroke-dashoffset: 0; stroke: #b0b0b0; stroke-width: 0.8"/>
     </g>
     <g id="line2d_32">
      <g>
       <use xlink:href="#ma39bf45ce7" x="36.8875" y="137.794224" style="stroke: #000000; stroke-width: 0.8"/>
      </g>
     </g>
     <g id="text_4">
      <!-- 220 -->
      <g transform="translate(10.8 141.593443)scale(0.1 -0.1)">
       <use xlink:href="#DejaVuSans-32"/>
       <use xlink:href="#DejaVuSans-32" x="63.623047"/>
       <use xlink:href="#DejaVuSans-30" x="127.246094"/>
      </g>
     </g>
    </g>
    <g id="ytick_5">
     <g id="line2d_33">
      <path d="M 36.8875 94.249639 
L 982.876106 94.249639 
" clip-path="url(#p5b2dbf040a)" style="fill: none; stroke-dasharray: 2.96,1.28; stroke-dashoffset: 0; stroke: #b0b0b0; stroke-width: 0.8"/>
     </g>
     <g id="line2d_34">
      <g>
       <use xlink:href="#ma39bf45ce7" x="36.8875" y="94.249639" style="stroke: #000000; stroke-width: 0.8"/>
      </g>
     </g>
     <g id="text_5">
      <!-- 240 -->
      <g transform="translate(10.8 98.048858)scale(0.1 -0.1)">
       <defs>
        <path id="DejaVuSans-34" d="M 2419 4116 
L 825 1625 
L 2419 1625 
L 2419 4116 
z
M 2253 4666 
L 3047 4666 
L 3047 1625 
L 3713 1625 
L 3713 1100 
L 3047 1100 
L 3047 0 
L 2419 0 
L 2419 1100 
L 313 1100 
L 313 1709 
L 2253 4666 
z
" transform="scale(0.015625)"/>
       </defs>
       <use xlink:href="#DejaVuSans-32"/>
       <use xlink:href="#DejaVuSans-34" x="63.623047"/>
       <use xlink:href="#DejaVuSans-30" x="127.246094"/>
      </g>
     </g>
    </g>
    <g id="ytick_6">
     <g id="line2d_35">
      <path d="M 36.8875 50.705055 
L 982.876106 50.705055 
" clip-path="url(#p5b2dbf040a)" style="fill: none; stroke-dasharray: 2.96,1.28; stroke-dashoffset: 0; stroke: #b0b0b0; stroke-width: 0.8"/>
     </g>
     <g id="line2d_36">
      <g>
       <use xlink:href="#ma39bf45ce7" x="36.8875" y="50.705055" style="stroke: #000000; stroke-width: 0.8"/>
      </g>
     </g>
     <g id="text_6">
      <!-- 260 -->
      <g transform="translate(10.8 54.504274)scale(0.1 -0.1)">
       <use xlink:href="#DejaVuSans-32"/>
       <use xlink:href="#DejaVuSans-36" x="63.623047"/>
       <use xlink:href="#DejaVuSans-30" x="127.246094"/>
      </g>
     </g>
    </g>
   </g>
   <g id="line2d_37">
    <path d="M 79.886982 278.660955 
L 82.582874 283.668582 
L 85.278767 282.144522 
L 87.974659 280.076154 
L 90.670551 275.068527 
L 98.758228 266.903917 
L 101.45412 271.58496 
L 104.150013 269.843177 
L 106.845905 258.086139 
L 109.541797 258.086139 
L 117.629474 260.372229 
L 120.325366 266.686194 
L 123.021259 259.936784 
L 125.717151 257.43297 
L 128.413043 271.149514 
L 136.50072 276.483726 
L 139.196613 265.924164 
L 144.588397 267.230502 
L 147.284289 264.835549 
L 155.371966 268.863423 
L 158.067859 261.787428 
L 160.763751 260.045645 
L 163.459643 265.59758 
L 166.155535 267.557086 
L 174.243212 266.35961 
L 176.939105 268.536839 
L 179.634997 249.703806 
L 182.330889 250.901282 
L 185.026782 254.275988 
L 193.114458 264.835549 
L 195.810351 260.481091 
L 198.506243 260.045645 
L 201.202135 261.787428 
L 203.898028 252.534204 
L 211.985704 265.815303 
L 214.681597 268.645701 
L 217.377489 271.693821 
L 220.073381 290.20027 
L 222.769274 260.916537 
L 230.856951 247.635438 
L 236.248735 214.432693 
L 238.944627 205.397191 
L 241.64052 222.706164 
L 249.728197 205.941499 
L 252.424089 204.961746 
L 255.119981 210.404819 
L 257.815873 227.169484 
L 260.511766 221.073242 
L 268.599443 224.121363 
L 271.295335 240.341721 
L 273.991227 231.632804 
L 276.68712 232.394834 
L 287.470689 219.875766 
L 290.166581 217.589675 
L 292.862473 218.242844 
L 295.558366 208.771897 
L 298.254258 211.602295 
L 306.341935 200.389564 
L 309.037827 211.820018 
L 311.733719 218.569428 
L 314.429612 218.242844 
L 317.125504 211.493433 
L 325.213181 208.009867 
L 327.909073 207.683282 
L 330.604965 194.728768 
L 333.300858 201.478179 
L 335.99675 193.204708 
L 344.084427 189.176834 
L 346.780319 211.820018 
L 349.476211 210.51368 
L 362.955673 204.308577 
L 365.651565 186.237574 
L 368.347458 183.298315 
L 371.04335 166.315927 
L 373.739242 176.657766 
L 381.826919 206.485806 
L 384.522811 200.06298 
L 387.218704 208.554174 
L 389.914596 202.566793 
L 392.610488 218.67829 
L 400.698165 208.227589 
L 406.08995 208.880758 
L 408.785842 212.146602 
L 411.481734 208.771897 
L 419.569411 218.242844 
L 422.265303 246.546824 
L 424.961196 246.98227 
L 427.657088 253.078512 
L 430.35298 249.486083 
L 438.440657 242.954396 
L 441.136549 214.977 
L 443.832442 212.799771 
L 446.528334 222.270718 
L 449.224226 211.928879 
L 457.311903 215.521307 
L 460.007795 219.766904 
L 462.703688 223.359333 
L 465.39958 217.807398 
L 468.095472 220.855519 
L 476.183149 209.207343 
L 478.879042 196.797136 
L 481.574934 189.938864 
L 484.270826 185.257821 
L 486.966718 187.870496 
L 495.054395 192.551539 
L 497.750288 186.67302 
L 500.44618 186.455297 
L 503.142072 184.060345 
L 505.837964 184.604652 
L 513.925641 200.82501 
L 516.621534 198.321196 
L 519.317426 203.002239 
L 522.013318 225.101116 
L 524.709211 219.113736 
L 532.796887 231.741665 
L 535.49278 214.432693 
L 538.188672 226.298592 
L 540.884564 231.088496 
L 543.580457 232.394834 
L 551.668133 220.420073 
L 554.364026 210.949126 
L 557.059918 205.832637 
L 559.75581 212.690909 
L 562.451703 217.807398 
L 570.53938 220.420073 
L 573.235272 219.549181 
L 575.931164 221.182103 
L 578.627056 211.820018 
L 581.322949 203.546547 
L 589.410626 195.817383 
L 592.106518 194.619907 
L 594.80241 195.59966 
L 597.498302 198.756642 
L 600.194195 195.708521 
L 608.281872 190.918617 
L 610.977764 185.14896 
L 613.673656 186.019851 
L 616.369549 184.386929 
L 619.065441 187.652773 
L 627.153118 179.379302 
L 629.84901 176.331181 
L 632.544902 173.827368 
L 635.240795 175.133705 
L 637.936687 156.84498 
L 646.024364 153.579136 
L 648.720256 148.136063 
L 651.416148 154.994335 
L 654.112041 165.77162 
L 656.807933 162.941222 
L 664.89561 147.809478 
L 670.287394 138.120808 
L 672.983287 140.842345 
L 675.679179 134.201796 
L 686.462748 131.480259 
L 689.15864 134.637242 
L 691.854533 133.984073 
L 694.550425 143.999327 
L 702.638102 141.495514 
L 705.333994 131.589121 
L 708.029887 129.847337 
L 710.725779 127.125801 
L 713.421671 116.130793 
L 721.509348 114.715594 
L 724.20524 105.571231 
L 729.597025 115.368763 
L 732.292917 117.545992 
L 740.380594 112.538365 
L 743.076486 110.143413 
L 745.772379 96.753453 
L 748.468271 101.978803 
L 751.164163 99.47499 
L 759.25184 112.756088 
L 761.947732 113.191534 
L 764.643625 111.776335 
L 767.339517 106.768707 
L 770.035409 113.735841 
L 778.123086 116.239655 
L 780.818978 116.348516 
L 783.514871 112.647226 
L 786.210763 122.444758 
L 788.906655 131.589121 
L 796.994332 147.591755 
L 799.690225 151.075322 
L 802.386117 157.824733 
L 805.082009 151.075322 
L 807.777901 154.66775 
L 815.865578 148.789232 
L 818.561471 130.718229 
L 823.953255 108.401629 
L 826.649147 116.6751 
L 834.736824 116.348516 
L 837.432717 125.928325 
L 840.128609 111.44975 
L 842.824501 106.115539 
L 845.520393 102.196526 
L 853.60807 98.604098 
L 856.303963 90.54835 
L 858.999855 98.168652 
L 861.695747 92.07241 
L 864.39164 97.080037 
L 872.479316 93.161025 
L 875.175209 94.358501 
L 880.566993 92.290133 
L 883.262886 84.669831 
L 891.350562 81.295126 
L 894.046455 81.948294 
L 896.742347 81.62171 
L 899.438239 80.750818 
L 902.134132 81.077403 
L 910.221809 73.4571 
L 915.613593 59.849418 
L 918.309485 64.639322 
L 921.005378 65.401352 
L 929.093055 78.573589 
L 931.788947 111.340889 
L 934.484839 105.353508 
L 937.180731 110.796582 
L 939.876624 117.001685 
L 939.876624 117.001685 
" clip-path="url(#p5b2dbf040a)" style="fill: none; stroke: #1f77b4; stroke-width: 1.5; stroke-linecap: square"/>
   </g>
   <g id="line2d_38">
    <path d="M 90.670551 279.923748 
L 98.758228 277.57234 
L 104.150013 272.695347 
L 106.845905 268.297344 
L 109.541797 264.900866 
L 117.629474 263.594529 
L 120.325366 262.614776 
L 123.021259 260.633497 
L 125.717151 260.502863 
L 128.413043 263.115538 
L 136.50072 266.337838 
L 139.196613 266.185432 
L 144.588397 267.644175 
L 147.284289 269.124691 
L 155.371966 268.667473 
L 158.067859 265.728213 
L 160.763751 264.55251 
L 163.459643 264.225925 
L 166.155535 264.770233 
L 174.243212 264.26947 
L 176.939105 265.619352 
L 179.634997 263.550984 
L 182.330889 260.611725 
L 185.026782 257.955505 
L 193.114458 257.650693 
L 195.810351 256.039543 
L 201.202135 260.28514 
L 203.898028 259.936784 
L 211.985704 260.132734 
L 214.681597 261.765656 
L 217.377489 264.095291 
L 220.073381 269.77786 
L 222.769274 271.454326 
L 230.856951 267.818353 
L 236.248735 256.975752 
L 241.64052 230.217605 
L 249.728197 219.222597 
L 252.424089 210.687858 
L 255.119981 209.882284 
L 257.815873 214.236742 
L 260.511766 213.910158 
L 268.599443 217.546131 
L 271.295335 224.622126 
L 273.991227 228.867723 
L 276.68712 229.912793 
L 287.470689 229.673297 
L 290.166581 228.36696 
L 298.254258 215.216495 
L 306.341935 211.319255 
L 309.037827 210.165323 
L 311.733719 210.23064 
L 314.429612 212.12483 
L 317.125504 212.103057 
L 325.213181 213.627118 
L 327.909073 212.799771 
L 330.604965 208.031639 
L 333.300858 204.678706 
L 335.99675 201.020961 
L 344.084427 197.254354 
L 346.780319 198.081701 
L 349.476211 201.238684 
L 362.955673 201.804763 
L 365.651565 200.411337 
L 368.347458 199.235633 
L 371.04335 190.134815 
L 373.739242 183.363632 
L 381.826919 183.799078 
L 384.522811 186.564159 
L 387.218704 191.61533 
L 389.914596 198.865504 
L 392.610488 207.269609 
L 400.698165 207.617965 
L 406.08995 209.381521 
L 408.785842 210.100007 
L 411.481734 211.341027 
L 419.569411 211.253938 
L 424.961196 226.538087 
L 430.35298 242.867306 
L 438.440657 247.809617 
L 441.136549 241.495652 
L 443.832442 234.659152 
L 446.528334 228.497594 
L 449.224226 220.986153 
L 457.311903 215.499535 
L 460.007795 216.457516 
L 462.703688 218.569428 
L 465.39958 217.676764 
L 468.095472 219.462092 
L 476.183149 218.199299 
L 478.879042 213.605346 
L 486.966718 193.814332 
L 495.054395 190.483171 
L 497.750288 188.458348 
L 500.44618 187.761635 
L 503.142072 187.52214 
L 505.837964 186.868971 
L 513.925641 188.523665 
L 516.621534 190.8533 
L 519.317426 194.162689 
L 522.013318 202.370843 
L 524.709211 209.272659 
L 532.796887 215.455991 
L 535.49278 218.67829 
L 538.188672 223.33756 
L 540.884564 224.535036 
L 543.580457 227.191256 
L 554.364026 224.230224 
L 557.059918 220.137033 
L 559.75581 216.457516 
L 562.451703 213.540029 
L 570.53938 213.540029 
L 573.235272 215.26004 
L 575.931164 218.329933 
L 578.627056 218.155755 
L 581.322949 215.303584 
L 589.410626 210.383046 
L 594.80241 200.280703 
L 597.498302 197.668028 
L 600.194195 196.100423 
L 608.281872 195.12067 
L 613.673656 191.310518 
L 616.369549 188.436576 
L 619.065441 186.825426 
L 627.153118 184.517563 
L 629.84901 182.754008 
L 632.544902 180.315511 
L 635.240795 178.464866 
L 637.936687 172.303307 
L 646.024364 167.143274 
L 648.720256 161.50425 
L 651.416148 157.737644 
L 654.112041 155.865227 
L 656.807933 157.084475 
L 664.89561 155.930543 
L 670.287394 153.927493 
L 672.983287 151.097095 
L 675.679179 144.78313 
L 686.462748 138.490937 
L 689.15864 135.85649 
L 691.854533 135.029143 
L 694.550425 135.660539 
L 702.638102 137.119283 
L 705.333994 137.141055 
L 708.029887 136.183074 
L 710.725779 134.81142 
L 713.421671 129.237713 
L 721.509348 123.881729 
L 724.20524 118.678151 
L 729.597025 115.782436 
L 732.292917 113.866475 
L 740.380594 113.147989 
L 743.076486 112.233553 
L 745.772379 110.469997 
L 748.468271 107.792005 
L 751.164163 104.177805 
L 759.25184 104.221349 
L 761.947732 104.830973 
L 764.643625 107.83555 
L 767.339517 108.793531 
L 770.035409 111.645701 
L 778.123086 112.342414 
L 780.818978 112.973811 
L 783.514871 113.147989 
L 786.210763 116.283199 
L 788.906655 119.853855 
L 796.994332 126.124275 
L 799.690225 133.069637 
L 802.386117 142.105138 
L 805.082009 147.831251 
L 807.777901 152.446977 
L 815.865578 152.686472 
L 818.561471 148.615053 
L 823.953255 138.730433 
L 826.649147 131.850388 
L 834.736824 124.186541 
L 837.432717 119.61436 
L 840.128609 115.760664 
L 842.824501 115.303446 
L 845.520393 112.407731 
L 853.60807 108.858848 
L 856.303963 101.782853 
L 861.695747 96.318007 
L 864.39164 95.294709 
L 872.479316 94.206095 
L 875.175209 94.968125 
L 880.566993 93.792421 
L 883.262886 92.311905 
L 891.350562 89.154923 
L 894.046455 86.912377 
L 896.742347 84.365019 
L 899.438239 82.057156 
L 902.134132 81.33867 
L 910.221809 79.771065 
L 915.613593 75.35129 
L 918.309485 71.954812 
L 921.005378 68.884919 
L 929.093055 68.384156 
L 931.788947 75.960914 
L 937.180731 94.293184 
L 939.876624 104.613251 
L 939.876624 104.613251 
" clip-path="url(#p5b2dbf040a)" style="fill: none; stroke: #ff7f0e; stroke-width: 1.5; stroke-linecap: square"/>
   </g>
   <g id="patch_3">
    <path d="M 36.8875 301.717813 
L 36.8875 48.331875 
" style="fill: none; stroke: #000000; stroke-width: 0.8; stroke-linejoin: miter; stroke-linecap: square"/>
   </g>
   <g id="patch_4">
    <path d="M 982.876106 301.717813 
L 982.876106 48.331875 
" style="fill: none; stroke: #000000; stroke-width: 0.8; stroke-linejoin: miter; stroke-linecap: square"/>
   </g>
   <g id="patch_5">
    <path d="M 36.8875 301.717812 
L 982.876106 301.717812 
" style="fill: none; stroke: #000000; stroke-width: 0.8; stroke-linejoin: miter; stroke-linecap: square"/>
   </g>
   <g id="patch_6">
    <path d="M 36.8875 48.331875 
L 982.876106 48.331875 
" style="fill: none; stroke: #000000; stroke-width: 0.8; stroke-linejoin: miter; stroke-linecap: square"/>
   </g>
   <g id="text_7">
    <!-- Closing Price -->
    <g transform="translate(471.405865 42.331875)scale(0.12 -0.12)">
     <defs>
      <path id="DejaVuSans-43" d="M 4122 4306 
L 4122 3641 
Q 3803 3938 3442 4084 
Q 3081 4231 2675 4231 
Q 1875 4231 1450 3742 
Q 1025 3253 1025 2328 
Q 1025 1406 1450 917 
Q 1875 428 2675 428 
Q 3081 428 3442 575 
Q 3803 722 4122 1019 
L 4122 359 
Q 3791 134 3420 21 
Q 3050 -91 2638 -91 
Q 1578 -91 968 557 
Q 359 1206 359 2328 
Q 359 3453 968 4101 
Q 1578 4750 2638 4750 
Q 3056 4750 3426 4639 
Q 3797 4528 4122 4306 
z
" transform="scale(0.015625)"/>
      <path id="DejaVuSans-6c" d="M 603 4863 
L 1178 4863 
L 1178 0 
L 603 0 
L 603 4863 
z
" transform="scale(0.015625)"/>
      <path id="DejaVuSans-6f" d="M 1959 3097 
Q 1497 3097 1228 2736 
Q 959 2375 959 1747 
Q 959 1119 1226 758 
Q 1494 397 1959 397 
Q 2419 397 2687 759 
Q 2956 1122 2956 1747 
Q 2956 2369 2687 2733 
Q 2419 3097 1959 3097 
z
M 1959 3584 
Q 2709 3584 3137 3096 
Q 3566 2609 3566 1747 
Q 3566 888 3137 398 
Q 2709 -91 1959 -91 
Q 1206 -91 779 398 
Q 353 888 353 1747 
Q 353 2609 779 3096 
Q 1206 3584 1959 3584 
z
" transform="scale(0.015625)"/>
      <path id="DejaVuSans-73" d="M 2834 3397 
L 2834 2853 
Q 2591 2978 2328 3040 
Q 2066 3103 1784 3103 
Q 1356 3103 1142 2972 
Q 928 2841 928 2578 
Q 928 2378 1081 2264 
Q 1234 2150 1697 2047 
L 1894 2003 
Q 2506 1872 2764 1633 
Q 3022 1394 3022 966 
Q 3022 478 2636 193 
Q 2250 -91 1575 -91 
Q 1294 -91 989 -36 
Q 684 19 347 128 
L 347 722 
Q 666 556 975 473 
Q 1284 391 1588 391 
Q 1994 391 2212 530 
Q 2431 669 2431 922 
Q 2431 1156 2273 1281 
Q 2116 1406 1581 1522 
L 1381 1569 
Q 847 1681 609 1914 
Q 372 2147 372 2553 
Q 372 3047 722 3315 
Q 1072 3584 1716 3584 
Q 2034 3584 2315 3537 
Q 2597 3491 2834 3397 
z
" transform="scale(0.015625)"/>
      <path id="DejaVuSans-69" d="M 603 3500 
L 1178 3500 
L 1178 0 
L 603 0 
L 603 3500 
z
M 603 4863 
L 1178 4863 
L 1178 4134 
L 603 4134 
L 603 4863 
z
" transform="scale(0.015625)"/>
      <path id="DejaVuSans-6e" d="M 3513 2113 
L 3513 0 
L 2938 0 
L 2938 2094 
Q 2938 2591 2744 2837 
Q 2550 3084 2163 3084 
Q 1697 3084 1428 2787 
Q 1159 2491 1159 1978 
L 1159 0 
L 581 0 
L 581 3500 
L 1159 3500 
L 1159 2956 
Q 1366 3272 1645 3428 
Q 1925 3584 2291 3584 
Q 2894 3584 3203 3211 
Q 3513 2838 3513 2113 
z
" transform="scale(0.015625)"/>
      <path id="DejaVuSans-67" d="M 2906 1791 
Q 2906 2416 2648 2759 
Q 2391 3103 1925 3103 
Q 1463 3103 1205 2759 
Q 947 2416 947 1791 
Q 947 1169 1205 825 
Q 1463 481 1925 481 
Q 2391 481 2648 825 
Q 2906 1169 2906 1791 
z
M 3481 434 
Q 3481 -459 3084 -895 
Q 2688 -1331 1869 -1331 
Q 1566 -1331 1297 -1286 
Q 1028 -1241 775 -1147 
L 775 -588 
Q 1028 -725 1275 -790 
Q 1522 -856 1778 -856 
Q 2344 -856 2625 -561 
Q 2906 -266 2906 331 
L 2906 616 
Q 2728 306 2450 153 
Q 2172 0 1784 0 
Q 1141 0 747 490 
Q 353 981 353 1791 
Q 353 2603 747 3093 
Q 1141 3584 1784 3584 
Q 2172 3584 2450 3431 
Q 2728 3278 2906 2969 
L 2906 3500 
L 3481 3500 
L 3481 434 
z
" transform="scale(0.015625)"/>
      <path id="DejaVuSans-20" transform="scale(0.015625)"/>
      <path id="DejaVuSans-50" d="M 1259 4147 
L 1259 2394 
L 2053 2394 
Q 2494 2394 2734 2622 
Q 2975 2850 2975 3272 
Q 2975 3691 2734 3919 
Q 2494 4147 2053 4147 
L 1259 4147 
z
M 628 4666 
L 2053 4666 
Q 2838 4666 3239 4311 
Q 3641 3956 3641 3272 
Q 3641 2581 3239 2228 
Q 2838 1875 2053 1875 
L 1259 1875 
L 1259 0 
L 628 0 
L 628 4666 
z
" transform="scale(0.015625)"/>
      <path id="DejaVuSans-72" d="M 2631 2963 
Q 2534 3019 2420 3045 
Q 2306 3072 2169 3072 
Q 1681 3072 1420 2755 
Q 1159 2438 1159 1844 
L 1159 0 
L 581 0 
L 581 3500 
L 1159 3500 
L 1159 2956 
Q 1341 3275 1631 3429 
Q 1922 3584 2338 3584 
Q 2397 3584 2469 3576 
Q 2541 3569 2628 3553 
L 2631 2963 
z
" transform="scale(0.015625)"/>
      <path id="DejaVuSans-63" d="M 3122 3366 
L 3122 2828 
Q 2878 2963 2633 3030 
Q 2388 3097 2138 3097 
Q 1578 3097 1268 2742 
Q 959 2388 959 1747 
Q 959 1106 1268 751 
Q 1578 397 2138 397 
Q 2388 397 2633 464 
Q 2878 531 3122 666 
L 3122 134 
Q 2881 22 2623 -34 
Q 2366 -91 2075 -91 
Q 1284 -91 818 406 
Q 353 903 353 1747 
Q 353 2603 823 3093 
Q 1294 3584 2113 3584 
Q 2378 3584 2631 3529 
Q 2884 3475 3122 3366 
z
" transform="scale(0.015625)"/>
      <path id="DejaVuSans-65" d="M 3597 1894 
L 3597 1613 
L 953 1613 
Q 991 1019 1311 708 
Q 1631 397 2203 397 
Q 2534 397 2845 478 
Q 3156 559 3463 722 
L 3463 178 
Q 3153 47 2828 -22 
Q 2503 -91 2169 -91 
Q 1331 -91 842 396 
Q 353 884 353 1716 
Q 353 2575 817 3079 
Q 1281 3584 2069 3584 
Q 2775 3584 3186 3129 
Q 3597 2675 3597 1894 
z
M 3022 2063 
Q 3016 2534 2758 2815 
Q 2500 3097 2075 3097 
Q 1594 3097 1305 2825 
Q 1016 2553 972 2059 
L 3022 2063 
z
" transform="scale(0.015625)"/>
     </defs>
     <use xlink:href="#DejaVuSans-43"/>
     <use xlink:href="#DejaVuSans-6c" x="69.824219"/>
     <use xlink:href="#DejaVuSans-6f" x="97.607422"/>
     <use xlink:href="#DejaVuSans-73" x="158.789062"/>
     <use xlink:href="#DejaVuSans-69" x="210.888672"/>
     <use xlink:href="#DejaVuSans-6e" x="238.671875"/>
     <use xlink:href="#DejaVuSans-67" x="302.050781"/>
     <use xlink:href="#DejaVuSans-20" x="365.527344"/>
     <use xlink:href="#DejaVuSans-50" x="397.314453"/>
     <use xlink:href="#DejaVuSans-72" x="455.867188"/>
     <use xlink:href="#DejaVuSans-69" x="496.980469"/>
     <use xlink:href="#DejaVuSans-63" x="524.763672"/>
     <use xlink:href="#DejaVuSans-65" x="579.744141"/>
    </g>
   </g>
   <g id="legend_1">
    <g id="patch_7">
     <path d="M 43.8875 85.688125 
L 108.61875 85.688125 
Q 110.61875 85.688125 110.61875 83.688125 
L 110.61875 55.331875 
Q 110.61875 53.331875 108.61875 53.331875 
L 43.8875 53.331875 
Q 41.8875 53.331875 41.8875 55.331875 
L 41.8875 83.688125 
Q 41.8875 85.688125 43.8875 85.688125 
z
" style="fill: #ffffff; opacity: 0.8; stroke: #cccccc; stroke-linejoin: miter"/>
    </g>
    <g id="line2d_39">
     <path d="M 45.8875 61.430312 
L 55.8875 61.430312 
L 65.8875 61.430312 
" style="fill: none; stroke: #1f77b4; stroke-width: 1.5; stroke-linecap: square"/>
    </g>
    <g id="text_8">
     <!-- CLOSE -->
     <g transform="translate(73.8875 64.930312)scale(0.1 -0.1)">
      <defs>
       <path id="DejaVuSans-4c" d="M 628 4666 
L 1259 4666 
L 1259 531 
L 3531 531 
L 3531 0 
L 628 0 
L 628 4666 
z
" transform="scale(0.015625)"/>
       <path id="DejaVuSans-4f" d="M 2522 4238 
Q 1834 4238 1429 3725 
Q 1025 3213 1025 2328 
Q 1025 1447 1429 934 
Q 1834 422 2522 422 
Q 3209 422 3611 934 
Q 4013 1447 4013 2328 
Q 4013 3213 3611 3725 
Q 3209 4238 2522 4238 
z
M 2522 4750 
Q 3503 4750 4090 4092 
Q 4678 3434 4678 2328 
Q 4678 1225 4090 567 
Q 3503 -91 2522 -91 
Q 1538 -91 948 565 
Q 359 1222 359 2328 
Q 359 3434 948 4092 
Q 1538 4750 2522 4750 
z
" transform="scale(0.015625)"/>
       <path id="DejaVuSans-53" d="M 3425 4513 
L 3425 3897 
Q 3066 4069 2747 4153 
Q 2428 4238 2131 4238 
Q 1616 4238 1336 4038 
Q 1056 3838 1056 3469 
Q 1056 3159 1242 3001 
Q 1428 2844 1947 2747 
L 2328 2669 
Q 3034 2534 3370 2195 
Q 3706 1856 3706 1288 
Q 3706 609 3251 259 
Q 2797 -91 1919 -91 
Q 1588 -91 1214 -16 
Q 841 59 441 206 
L 441 856 
Q 825 641 1194 531 
Q 1563 422 1919 422 
Q 2459 422 2753 634 
Q 3047 847 3047 1241 
Q 3047 1584 2836 1778 
Q 2625 1972 2144 2069 
L 1759 2144 
Q 1053 2284 737 2584 
Q 422 2884 422 3419 
Q 422 4038 858 4394 
Q 1294 4750 2059 4750 
Q 2388 4750 2728 4690 
Q 3069 4631 3425 4513 
z
" transform="scale(0.015625)"/>
       <path id="DejaVuSans-45" d="M 628 4666 
L 3578 4666 
L 3578 4134 
L 1259 4134 
L 1259 2753 
L 3481 2753 
L 3481 2222 
L 1259 2222 
L 1259 531 
L 3634 531 
L 3634 0 
L 628 0 
L 628 4666 
z
" transform="scale(0.015625)"/>
      </defs>
      <use xlink:href="#DejaVuSans-43"/>
      <use xlink:href="#DejaVuSans-4c" x="69.824219"/>
      <use xlink:href="#DejaVuSans-4f" x="121.912109"/>
      <use xlink:href="#DejaVuSans-53" x="200.623047"/>
      <use xlink:href="#DejaVuSans-45" x="264.099609"/>
     </g>
    </g>
    <g id="line2d_40">
     <path d="M 45.8875 76.108437 
L 55.8875 76.108437 
L 65.8875 76.108437 
" style="fill: none; stroke: #ff7f0e; stroke-width: 1.5; stroke-linecap: square"/>
    </g>
    <g id="text_9">
     <!-- SMA5 -->
     <g transform="translate(73.8875 79.608437)scale(0.1 -0.1)">
      <defs>
       <path id="DejaVuSans-4d" d="M 628 4666 
L 1569 4666 
L 2759 1491 
L 3956 4666 
L 4897 4666 
L 4897 0 
L 4281 0 
L 4281 4097 
L 3078 897 
L 2444 897 
L 1241 4097 
L 1241 0 
L 628 0 
L 628 4666 
z
" transform="scale(0.015625)"/>
       <path id="DejaVuSans-41" d="M 2188 4044 
L 1331 1722 
L 3047 1722 
L 2188 4044 
z
M 1831 4666 
L 2547 4666 
L 4325 0 
L 3669 0 
L 3244 1197 
L 1141 1197 
L 716 0 
L 50 0 
L 1831 4666 
z
" transform="scale(0.015625)"/>
       <path id="DejaVuSans-35" d="M 691 4666 
L 3169 4666 
L 3169 4134 
L 1269 4134 
L 1269 2991 
Q 1406 3038 1543 3061 
Q 1681 3084 1819 3084 
Q 2600 3084 3056 2656 
Q 3513 2228 3513 1497 
Q 3513 744 3044 326 
Q 2575 -91 1722 -91 
Q 1428 -91 1123 -41 
Q 819 9 494 109 
L 494 744 
Q 775 591 1075 516 
Q 1375 441 1709 441 
Q 2250 441 2565 725 
Q 2881 1009 2881 1497 
Q 2881 1984 2565 2268 
Q 2250 2553 1709 2553 
Q 1456 2553 1204 2497 
Q 953 2441 691 2322 
L 691 4666 
z
" transform="scale(0.015625)"/>
      </defs>
      <use xlink:href="#DejaVuSans-53"/>
      <use xlink:href="#DejaVuSans-4d" x="63.476562"/>
      <use xlink:href="#DejaVuSans-41" x="149.755859"/>
      <use xlink:href="#DejaVuSans-35" x="218.164062"/>
     </g>
    </g>
   </g>
  </g>
  <g id="axes_2">
   <g id="patch_8">
    <path d="M 36.8875 584.521875 
L 982.876106 584.521875 
L 982.876106 331.135938 
L 36.8875 331.135938 
z
" style="fill: #ffffff"/>
   </g>
   <g id="matplotlib.axis_3">
    <g id="xtick_13">
     <g id="line2d_41">
      <path d="M 74.495197 584.521875 
L 74.495197 331.135938 
" clip-path="url(#pfbf40e755f)" style="fill: none; stroke-dasharray: 2.96,1.28; stroke-dashoffset: 0; stroke: #b0b0b0; stroke-width: 0.8"/>
     </g>
     <g id="line2d_42">
      <g>
       <use xlink:href="#m72b6ea4ffc" x="74.495197" y="584.521875" style="stroke: #000000; stroke-width: 0.8"/>
      </g>
     </g>
     <g id="text_10">
      <!-- 2022-01 -->
      <g transform="translate(53.603791 599.120312)scale(0.1 -0.1)">
       <defs>
        <path id="DejaVuSans-2d" d="M 313 2009 
L 1997 2009 
L 1997 1497 
L 313 1497 
L 313 2009 
z
" transform="scale(0.015625)"/>
       </defs>
       <use xlink:href="#DejaVuSans-32"/>
       <use xlink:href="#DejaVuSans-30" x="63.623047"/>
       <use xlink:href="#DejaVuSans-32" x="127.246094"/>
       <use xlink:href="#DejaVuSans-32" x="190.869141"/>
       <use xlink:href="#DejaVuSans-2d" x="254.492188"/>
       <use xlink:href="#DejaVuSans-30" x="290.576172"/>
       <use xlink:href="#DejaVuSans-31" x="354.199219"/>
      </g>
     </g>
    </g>
    <g id="xtick_14">
     <g id="line2d_43">
      <path d="M 158.067859 584.521875 
L 158.067859 331.135938 
" clip-path="url(#pfbf40e755f)" style="fill: none; stroke-dasharray: 2.96,1.28; stroke-dashoffset: 0; stroke: #b0b0b0; stroke-width: 0.8"/>
     </g>
     <g id="line2d_44">
      <g>
       <use xlink:href="#m72b6ea4ffc" x="158.067859" y="584.521875" style="stroke: #000000; stroke-width: 0.8"/>
      </g>
     </g>
     <g id="text_11">
      <!-- 2022-02 -->
      <g transform="translate(137.176452 599.120312)scale(0.1 -0.1)">
       <use xlink:href="#DejaVuSans-32"/>
       <use xlink:href="#DejaVuSans-30" x="63.623047"/>
       <use xlink:href="#DejaVuSans-32" x="127.246094"/>
       <use xlink:href="#DejaVuSans-32" x="190.869141"/>
       <use xlink:href="#DejaVuSans-2d" x="254.492188"/>
       <use xlink:href="#DejaVuSans-30" x="290.576172"/>
       <use xlink:href="#DejaVuSans-32" x="354.199219"/>
      </g>
     </g>
    </g>
    <g id="xtick_15">
     <g id="line2d_45">
      <path d="M 233.552843 584.521875 
L 233.552843 331.135938 
" clip-path="url(#pfbf40e755f)" style="fill: none; stroke-dasharray: 2.96,1.28; stroke-dashoffset: 0; stroke: #b0b0b0; stroke-width: 0.8"/>
     </g>
     <g id="line2d_46">
      <g>
       <use xlink:href="#m72b6ea4ffc" x="233.552843" y="584.521875" style="stroke: #000000; stroke-width: 0.8"/>
      </g>
     </g>
     <g id="text_12">
      <!-- 2022-03 -->
      <g transform="translate(212.661437 599.120312)scale(0.1 -0.1)">
       <defs>
        <path id="DejaVuSans-33" d="M 2597 2516 
Q 3050 2419 3304 2112 
Q 3559 1806 3559 1356 
Q 3559 666 3084 287 
Q 2609 -91 1734 -91 
Q 1441 -91 1130 -33 
Q 819 25 488 141 
L 488 750 
Q 750 597 1062 519 
Q 1375 441 1716 441 
Q 2309 441 2620 675 
Q 2931 909 2931 1356 
Q 2931 1769 2642 2001 
Q 2353 2234 1838 2234 
L 1294 2234 
L 1294 2753 
L 1863 2753 
Q 2328 2753 2575 2939 
Q 2822 3125 2822 3475 
Q 2822 3834 2567 4026 
Q 2313 4219 1838 4219 
Q 1578 4219 1281 4162 
Q 984 4106 628 3988 
L 628 4550 
Q 988 4650 1302 4700 
Q 1616 4750 1894 4750 
Q 2613 4750 3031 4423 
Q 3450 4097 3450 3541 
Q 3450 3153 3228 2886 
Q 3006 2619 2597 2516 
z
" transform="scale(0.015625)"/>
       </defs>
       <use xlink:href="#DejaVuSans-32"/>
       <use xlink:href="#DejaVuSans-30" x="63.623047"/>
       <use xlink:href="#DejaVuSans-32" x="127.246094"/>
       <use xlink:href="#DejaVuSans-32" x="190.869141"/>
       <use xlink:href="#DejaVuSans-2d" x="254.492188"/>
       <use xlink:href="#DejaVuSans-30" x="290.576172"/>
       <use xlink:href="#DejaVuSans-33" x="354.199219"/>
      </g>
     </g>
    </g>
    <g id="xtick_16">
     <g id="line2d_47">
      <path d="M 317.125504 584.521875 
L 317.125504 331.135938 
" clip-path="url(#pfbf40e755f)" style="fill: none; stroke-dasharray: 2.96,1.28; stroke-dashoffset: 0; stroke: #b0b0b0; stroke-width: 0.8"/>
     </g>
     <g id="line2d_48">
      <g>
       <use xlink:href="#m72b6ea4ffc" x="317.125504" y="584.521875" style="stroke: #000000; stroke-width: 0.8"/>
      </g>
     </g>
     <g id="text_13">
      <!-- 2022-04 -->
      <g transform="translate(296.234098 599.120312)scale(0.1 -0.1)">
       <use xlink:href="#DejaVuSans-32"/>
       <use xlink:href="#DejaVuSans-30" x="63.623047"/>
       <use xlink:href="#DejaVuSans-32" x="127.246094"/>
       <use xlink:href="#DejaVuSans-32" x="190.869141"/>
       <use xlink:href="#DejaVuSans-2d" x="254.492188"/>
       <use xlink:href="#DejaVuSans-30" x="290.576172"/>
       <use xlink:href="#DejaVuSans-34" x="354.199219"/>
      </g>
     </g>
    </g>
    <g id="xtick_17">
     <g id="line2d_49">
      <path d="M 398.002273 584.521875 
L 398.002273 331.135938 
" clip-path="url(#pfbf40e755f)" style="fill: none; stroke-dasharray: 2.96,1.28; stroke-dashoffset: 0; stroke: #b0b0b0; stroke-width: 0.8"/>
     </g>
     <g id="line2d_50">
      <g>
       <use xlink:href="#m72b6ea4ffc" x="398.002273" y="584.521875" style="stroke: #000000; stroke-width: 0.8"/>
      </g>
     </g>
     <g id="text_14">
      <!-- 2022-05 -->
      <g transform="translate(377.110866 599.120312)scale(0.1 -0.1)">
       <use xlink:href="#DejaVuSans-32"/>
       <use xlink:href="#DejaVuSans-30" x="63.623047"/>
       <use xlink:href="#DejaVuSans-32" x="127.246094"/>
       <use xlink:href="#DejaVuSans-32" x="190.869141"/>
       <use xlink:href="#DejaVuSans-2d" x="254.492188"/>
       <use xlink:href="#DejaVuSans-30" x="290.576172"/>
       <use xlink:href="#DejaVuSans-35" x="354.199219"/>
      </g>
     </g>
    </g>
    <g id="xtick_18">
     <g id="line2d_51">
      <path d="M 481.574934 584.521875 
L 481.574934 331.135938 
" clip-path="url(#pfbf40e755f)" style="fill: none; stroke-dasharray: 2.96,1.28; stroke-dashoffset: 0; stroke: #b0b0b0; stroke-width: 0.8"/>
     </g>
     <g id="line2d_52">
      <g>
       <use xlink:href="#m72b6ea4ffc" x="481.574934" y="584.521875" style="stroke: #000000; stroke-width: 0.8"/>
      </g>
     </g>
     <g id="text_15">
      <!-- 2022-06 -->
      <g transform="translate(460.683528 599.120312)scale(0.1 -0.1)">
       <use xlink:href="#DejaVuSans-32"/>
       <use xlink:href="#DejaVuSans-30" x="63.623047"/>
       <use xlink:href="#DejaVuSans-32" x="127.246094"/>
       <use xlink:href="#DejaVuSans-32" x="190.869141"/>
       <use xlink:href="#DejaVuSans-2d" x="254.492188"/>
       <use xlink:href="#DejaVuSans-30" x="290.576172"/>
       <use xlink:href="#DejaVuSans-36" x="354.199219"/>
      </g>
     </g>
    </g>
    <g id="xtick_19">
     <g id="line2d_53">
      <path d="M 562.451703 584.521875 
L 562.451703 331.135938 
" clip-path="url(#pfbf40e755f)" style="fill: none; stroke-dasharray: 2.96,1.28; stroke-dashoffset: 0; stroke: #b0b0b0; stroke-width: 0.8"/>
     </g>
     <g id="line2d_54">
      <g>
       <use xlink:href="#m72b6ea4ffc" x="562.451703" y="584.521875" style="stroke: #000000; stroke-width: 0.8"/>
      </g>
     </g>
     <g id="text_16">
      <!-- 2022-07 -->
      <g transform="translate(541.560296 599.120312)scale(0.1 -0.1)">
       <defs>
        <path id="DejaVuSans-37" d="M 525 4666 
L 3525 4666 
L 3525 4397 
L 1831 0 
L 1172 0 
L 2766 4134 
L 525 4134 
L 525 4666 
z
" transform="scale(0.015625)"/>
       </defs>
       <use xlink:href="#DejaVuSans-32"/>
       <use xlink:href="#DejaVuSans-30" x="63.623047"/>
       <use xlink:href="#DejaVuSans-32" x="127.246094"/>
       <use xlink:href="#DejaVuSans-32" x="190.869141"/>
       <use xlink:href="#DejaVuSans-2d" x="254.492188"/>
       <use xlink:href="#DejaVuSans-30" x="290.576172"/>
       <use xlink:href="#DejaVuSans-37" x="354.199219"/>
      </g>
     </g>
    </g>
    <g id="xtick_20">
     <g id="line2d_55">
      <path d="M 646.024364 584.521875 
L 646.024364 331.135938 
" clip-path="url(#pfbf40e755f)" style="fill: none; stroke-dasharray: 2.96,1.28; stroke-dashoffset: 0; stroke: #b0b0b0; stroke-width: 0.8"/>
     </g>
     <g id="line2d_56">
      <g>
       <use xlink:href="#m72b6ea4ffc" x="646.024364" y="584.521875" style="stroke: #000000; stroke-width: 0.8"/>
      </g>
     </g>
     <g id="text_17">
      <!-- 2022-08 -->
      <g transform="translate(625.132958 599.120312)scale(0.1 -0.1)">
       <use xlink:href="#DejaVuSans-32"/>
       <use xlink:href="#DejaVuSans-30" x="63.623047"/>
       <use xlink:href="#DejaVuSans-32" x="127.246094"/>
       <use xlink:href="#DejaVuSans-32" x="190.869141"/>
       <use xlink:href="#DejaVuSans-2d" x="254.492188"/>
       <use xlink:href="#DejaVuSans-30" x="290.576172"/>
       <use xlink:href="#DejaVuSans-38" x="354.199219"/>
      </g>
     </g>
    </g>
    <g id="xtick_21">
     <g id="line2d_57">
      <path d="M 729.597025 584.521875 
L 729.597025 331.135938 
" clip-path="url(#pfbf40e755f)" style="fill: none; stroke-dasharray: 2.96,1.28; stroke-dashoffset: 0; stroke: #b0b0b0; stroke-width: 0.8"/>
     </g>
     <g id="line2d_58">
      <g>
       <use xlink:href="#m72b6ea4ffc" x="729.597025" y="584.521875" style="stroke: #000000; stroke-width: 0.8"/>
      </g>
     </g>
     <g id="text_18">
      <!-- 2022-09 -->
      <g transform="translate(708.705619 599.120312)scale(0.1 -0.1)">
       <defs>
        <path id="DejaVuSans-39" d="M 703 97 
L 703 672 
Q 941 559 1184 500 
Q 1428 441 1663 441 
Q 2288 441 2617 861 
Q 2947 1281 2994 2138 
Q 2813 1869 2534 1725 
Q 2256 1581 1919 1581 
Q 1219 1581 811 2004 
Q 403 2428 403 3163 
Q 403 3881 828 4315 
Q 1253 4750 1959 4750 
Q 2769 4750 3195 4129 
Q 3622 3509 3622 2328 
Q 3622 1225 3098 567 
Q 2575 -91 1691 -91 
Q 1453 -91 1209 -44 
Q 966 3 703 97 
z
M 1959 2075 
Q 2384 2075 2632 2365 
Q 2881 2656 2881 3163 
Q 2881 3666 2632 3958 
Q 2384 4250 1959 4250 
Q 1534 4250 1286 3958 
Q 1038 3666 1038 3163 
Q 1038 2656 1286 2365 
Q 1534 2075 1959 2075 
z
" transform="scale(0.015625)"/>
       </defs>
       <use xlink:href="#DejaVuSans-32"/>
       <use xlink:href="#DejaVuSans-30" x="63.623047"/>
       <use xlink:href="#DejaVuSans-32" x="127.246094"/>
       <use xlink:href="#DejaVuSans-32" x="190.869141"/>
       <use xlink:href="#DejaVuSans-2d" x="254.492188"/>
       <use xlink:href="#DejaVuSans-30" x="290.576172"/>
       <use xlink:href="#DejaVuSans-39" x="354.199219"/>
      </g>
     </g>
    </g>
    <g id="xtick_22">
     <g id="line2d_59">
      <path d="M 810.473794 584.521875 
L 810.473794 331.135938 
" clip-path="url(#pfbf40e755f)" style="fill: none; stroke-dasharray: 2.96,1.28; stroke-dashoffset: 0; stroke: #b0b0b0; stroke-width: 0.8"/>
     </g>
     <g id="line2d_60">
      <g>
       <use xlink:href="#m72b6ea4ffc" x="810.473794" y="584.521875" style="stroke: #000000; stroke-width: 0.8"/>
      </g>
     </g>
     <g id="text_19">
      <!-- 2022-10 -->
      <g transform="translate(789.582387 599.120312)scale(0.1 -0.1)">
       <use xlink:href="#DejaVuSans-32"/>
       <use xlink:href="#DejaVuSans-30" x="63.623047"/>
       <use xlink:href="#DejaVuSans-32" x="127.246094"/>
       <use xlink:href="#DejaVuSans-32" x="190.869141"/>
       <use xlink:href="#DejaVuSans-2d" x="254.492188"/>
       <use xlink:href="#DejaVuSans-31" x="290.576172"/>
       <use xlink:href="#DejaVuSans-30" x="354.199219"/>
      </g>
     </g>
    </g>
    <g id="xtick_23">
     <g id="line2d_61">
      <path d="M 894.046455 584.521875 
L 894.046455 331.135938 
" clip-path="url(#pfbf40e755f)" style="fill: none; stroke-dasharray: 2.96,1.28; stroke-dashoffset: 0; stroke: #b0b0b0; stroke-width: 0.8"/>
     </g>
     <g id="line2d_62">
      <g>
       <use xlink:href="#m72b6ea4ffc" x="894.046455" y="584.521875" style="stroke: #000000; stroke-width: 0.8"/>
      </g>
     </g>
     <g id="text_20">
      <!-- 2022-11 -->
      <g transform="translate(873.155049 599.120312)scale(0.1 -0.1)">
       <use xlink:href="#DejaVuSans-32"/>
       <use xlink:href="#DejaVuSans-30" x="63.623047"/>
       <use xlink:href="#DejaVuSans-32" x="127.246094"/>
       <use xlink:href="#DejaVuSans-32" x="190.869141"/>
       <use xlink:href="#DejaVuSans-2d" x="254.492188"/>
       <use xlink:href="#DejaVuSans-31" x="290.576172"/>
       <use xlink:href="#DejaVuSans-31" x="354.199219"/>
      </g>
     </g>
    </g>
    <g id="xtick_24">
     <g id="line2d_63">
      <path d="M 974.923224 584.521875 
L 974.923224 331.135938 
" clip-path="url(#pfbf40e755f)" style="fill: none; stroke-dasharray: 2.96,1.28; stroke-dashoffset: 0; stroke: #b0b0b0; stroke-width: 0.8"/>
     </g>
     <g id="line2d_64">
      <g>
       <use xlink:href="#m72b6ea4ffc" x="974.923224" y="584.521875" style="stroke: #000000; stroke-width: 0.8"/>
      </g>
     </g>
     <g id="text_21">
      <!-- 2022-12 -->
      <g transform="translate(954.031817 599.120312)scale(0.1 -0.1)">
       <use xlink:href="#DejaVuSans-32"/>
       <use xlink:href="#DejaVuSans-30" x="63.623047"/>
       <use xlink:href="#DejaVuSans-32" x="127.246094"/>
       <use xlink:href="#DejaVuSans-32" x="190.869141"/>
       <use xlink:href="#DejaVuSans-2d" x="254.492188"/>
       <use xlink:href="#DejaVuSans-31" x="290.576172"/>
       <use xlink:href="#DejaVuSans-32" x="354.199219"/>
      </g>
     </g>
    </g>
   </g>
   <g id="matplotlib.axis_4">
    <g id="ytick_7">
     <g id="line2d_65">
      <path d="M 36.8875 562.758172 
L 982.876106 562.758172 
" clip-path="url(#pfbf40e755f)" style="fill: none; stroke-dasharray: 2.96,1.28; stroke-dashoffset: 0; stroke: #b0b0b0; stroke-width: 0.8"/>
     </g>
     <g id="line2d_66">
      <g>
       <use xlink:href="#ma39bf45ce7" x="36.8875" y="562.758172" style="stroke: #000000; stroke-width: 0.8"/>
      </g>
     </g>
     <g id="text_22">
      <!-- −4 -->
      <g transform="translate(15.145313 566.557391)scale(0.1 -0.1)">
       <defs>
        <path id="DejaVuSans-2212" d="M 678 2272 
L 4684 2272 
L 4684 1741 
L 678 1741 
L 678 2272 
z
" transform="scale(0.015625)"/>
       </defs>
       <use xlink:href="#DejaVuSans-2212"/>
       <use xlink:href="#DejaVuSans-34" x="83.789062"/>
      </g>
     </g>
    </g>
    <g id="ytick_8">
     <g id="line2d_67">
      <path d="M 36.8875 525.11639 
L 982.876106 525.11639 
" clip-path="url(#pfbf40e755f)" style="fill: none; stroke-dasharray: 2.96,1.28; stroke-dashoffset: 0; stroke: #b0b0b0; stroke-width: 0.8"/>
     </g>
     <g id="line2d_68">
      <g>
       <use xlink:href="#ma39bf45ce7" x="36.8875" y="525.11639" style="stroke: #000000; stroke-width: 0.8"/>
      </g>
     </g>
     <g id="text_23">
      <!-- −2 -->
      <g transform="translate(15.145313 528.915609)scale(0.1 -0.1)">
       <use xlink:href="#DejaVuSans-2212"/>
       <use xlink:href="#DejaVuSans-32" x="83.789062"/>
      </g>
     </g>
    </g>
    <g id="ytick_9">
     <g id="line2d_69">
      <path d="M 36.8875 487.474609 
L 982.876106 487.474609 
" clip-path="url(#pfbf40e755f)" style="fill: none; stroke-dasharray: 2.96,1.28; stroke-dashoffset: 0; stroke: #b0b0b0; stroke-width: 0.8"/>
     </g>
     <g id="line2d_70">
      <g>
       <use xlink:href="#ma39bf45ce7" x="36.8875" y="487.474609" style="stroke: #000000; stroke-width: 0.8"/>
      </g>
     </g>
     <g id="text_24">
      <!-- 0 -->
      <g transform="translate(23.525 491.273828)scale(0.1 -0.1)">
       <use xlink:href="#DejaVuSans-30"/>
      </g>
     </g>
    </g>
    <g id="ytick_10">
     <g id="line2d_71">
      <path d="M 36.8875 449.832828 
L 982.876106 449.832828 
" clip-path="url(#pfbf40e755f)" style="fill: none; stroke-dasharray: 2.96,1.28; stroke-dashoffset: 0; stroke: #b0b0b0; stroke-width: 0.8"/>
     </g>
     <g id="line2d_72">
      <g>
       <use xlink:href="#ma39bf45ce7" x="36.8875" y="449.832828" style="stroke: #000000; stroke-width: 0.8"/>
      </g>
     </g>
     <g id="text_25">
      <!-- 2 -->
      <g transform="translate(23.525 453.632046)scale(0.1 -0.1)">
       <use xlink:href="#DejaVuSans-32"/>
      </g>
     </g>
    </g>
    <g id="ytick_11">
     <g id="line2d_73">
      <path d="M 36.8875 412.191046 
L 982.876106 412.191046 
" clip-path="url(#pfbf40e755f)" style="fill: none; stroke-dasharray: 2.96,1.28; stroke-dashoffset: 0; stroke: #b0b0b0; stroke-width: 0.8"/>
     </g>
     <g id="line2d_74">
      <g>
       <use xlink:href="#ma39bf45ce7" x="36.8875" y="412.191046" style="stroke: #000000; stroke-width: 0.8"/>
      </g>
     </g>
     <g id="text_26">
      <!-- 4 -->
      <g transform="translate(23.525 415.990265)scale(0.1 -0.1)">
       <use xlink:href="#DejaVuSans-34"/>
      </g>
     </g>
    </g>
    <g id="ytick_12">
     <g id="line2d_75">
      <path d="M 36.8875 374.549265 
L 982.876106 374.549265 
" clip-path="url(#pfbf40e755f)" style="fill: none; stroke-dasharray: 2.96,1.28; stroke-dashoffset: 0; stroke: #b0b0b0; stroke-width: 0.8"/>
     </g>
     <g id="line2d_76">
      <g>
       <use xlink:href="#ma39bf45ce7" x="36.8875" y="374.549265" style="stroke: #000000; stroke-width: 0.8"/>
      </g>
     </g>
     <g id="text_27">
      <!-- 6 -->
      <g transform="translate(23.525 378.348483)scale(0.1 -0.1)">
       <use xlink:href="#DejaVuSans-36"/>
      </g>
     </g>
    </g>
    <g id="ytick_13">
     <g id="line2d_77">
      <path d="M 36.8875 336.907483 
L 982.876106 336.907483 
" clip-path="url(#pfbf40e755f)" style="fill: none; stroke-dasharray: 2.96,1.28; stroke-dashoffset: 0; stroke: #b0b0b0; stroke-width: 0.8"/>
     </g>
     <g id="line2d_78">
      <g>
       <use xlink:href="#ma39bf45ce7" x="36.8875" y="336.907483" style="stroke: #000000; stroke-width: 0.8"/>
      </g>
     </g>
     <g id="text_28">
      <!-- 8 -->
      <g transform="translate(23.525 340.706702)scale(0.1 -0.1)">
       <use xlink:href="#DejaVuSans-38"/>
      </g>
     </g>
    </g>
   </g>
   <g id="line2d_79">
    <path d="M 79.886982 487.474609 
L 82.582874 488.445815 
L 85.278767 488.303574 
L 87.974659 487.573019 
L 90.670551 485.451444 
L 98.758228 481.196147 
L 101.45412 480.408457 
L 104.150013 479.277806 
L 106.845905 473.577196 
L 109.541797 469.735528 
L 117.629474 468.261082 
L 120.325366 470.439652 
L 123.021259 468.985526 
L 125.717151 466.882823 
L 128.413043 472.596031 
L 136.50072 479.914814 
L 139.196613 479.941319 
L 144.588397 480.766091 
L 147.284289 480.153461 
L 155.371966 482.039256 
L 158.067859 479.514593 
L 160.763751 476.644871 
L 163.459643 477.808219 
L 166.155535 479.99035 
L 174.243212 481.05577 
L 176.939105 483.281906 
L 179.634997 473.525719 
L 182.330889 466.821287 
L 185.026782 463.93339 
L 193.114458 468.581911 
L 195.810351 469.67842 
L 198.506243 470.463958 
L 201.202135 472.389425 
L 203.898028 468.112776 
L 211.985704 473.584079 
L 214.681597 479.863718 
L 217.377489 486.854466 
L 220.073381 504.464403 
L 222.769274 498.780606 
L 230.856951 485.431824 
L 236.248735 453.009464 
L 238.944627 422.018371 
L 241.64052 410.037662 
L 249.728197 390.344892 
L 252.424089 375.380798 
L 255.119981 368.598365 
L 257.815873 375.920147 
L 260.511766 378.823333 
L 268.599443 384.396627 
L 271.295335 400.904273 
L 276.68712 416.626259 
L 287.470689 414.968539 
L 290.166581 412.944754 
L 292.862473 412.655022 
L 295.558366 406.832916 
L 298.254258 405.12216 
L 306.341935 397.072768 
L 309.037827 399.603174 
L 311.733719 407.199857 
L 314.429612 413.84372 
L 317.125504 415.270944 
L 325.213181 414.828112 
L 327.909073 415.086286 
L 330.604965 407.236888 
L 333.300858 406.630168 
L 335.99675 401.402253 
L 344.084427 395.524466 
L 346.780319 407.510967 
L 349.476211 416.916452 
L 362.955673 420.827528 
L 365.651565 412.235517 
L 368.347458 404.342055 
L 371.04335 387.431647 
L 373.739242 382.434817 
L 381.826919 400.231445 
L 384.522811 410.750745 
L 387.218704 425.708724 
L 389.914596 434.011715 
L 392.610488 452.214548 
L 400.698165 459.684132 
L 406.08995 466.302681 
L 408.785842 473.977937 
L 411.481734 477.82127 
L 419.569411 487.464669 
L 422.265303 514.51378 
L 424.961196 535.697519 
L 427.657088 555.94399 
L 430.35298 568.551161 
L 438.440657 573.004332 
L 441.136549 556.241946 
L 443.832442 540.825176 
L 446.528334 534.664852 
L 449.224226 522.173807 
L 457.311903 514.467725 
L 460.007795 511.048612 
L 462.703688 510.577127 
L 465.39958 506.117797 
L 468.095472 504.512543 
L 476.183149 495.031695 
L 478.879042 478.963061 
L 481.574934 461.743099 
L 484.270826 445.318099 
L 486.966718 434.7311 
L 495.054395 430.264611 
L 497.750288 423.364579 
L 503.142072 413.892968 
L 505.837964 411.466667 
L 513.925641 421.615044 
L 516.621534 428.590315 
L 519.317426 437.953752 
L 522.013318 461.090777 
L 524.709211 475.390512 
L 532.796887 495.438557 
L 535.49278 499.120418 
L 538.188672 510.05394 
L 540.884564 521.66545 
L 543.580457 531.27387 
L 551.668133 530.045831 
L 554.364026 522.068082 
L 557.059918 511.89551 
L 559.75581 508.376262 
L 562.451703 508.908832 
L 573.235272 511.563079 
L 575.931164 512.947078 
L 578.627056 507.285496 
L 581.322949 496.919028 
L 589.410626 483.359844 
L 592.106518 471.957723 
L 594.80241 463.87687 
L 597.498302 459.991572 
L 600.194195 455.158866 
L 608.281872 448.437886 
L 610.977764 439.638472 
L 613.673656 433.890027 
L 616.369549 428.870904 
L 619.065441 427.858419 
L 627.153118 422.039412 
L 629.84901 416.124167 
L 632.544902 410.57627 
L 635.240795 408.00678 
L 637.936687 394.28784 
L 646.024364 382.349301 
L 648.720256 370.440351 
L 651.416148 367.173002 
L 654.112041 373.415836 
L 656.807933 377.654984 
L 664.89561 371.793253 
L 670.287394 361.837945 
L 672.983287 357.346674 
L 675.679179 350.731632 
L 686.462748 345.230519 
L 689.15864 344.718538 
L 691.854533 345.493852 
L 694.550425 354.625627 
L 702.638102 361.56752 
L 705.333994 361.609909 
L 708.029887 361.876376 
L 710.725779 361.639747 
L 713.421671 355.30642 
L 721.509348 350.874708 
L 724.20524 342.65348 
L 729.597025 344.61893 
L 732.292917 349.288175 
L 740.380594 351.068021 
L 743.076486 352.365463 
L 745.772379 345.688206 
L 751.164163 345.555516 
L 759.25184 356.236966 
L 761.947732 366.401485 
L 764.643625 374.768993 
L 767.339517 379.155955 
L 770.035409 388.63185 
L 778.123086 398.908984 
L 780.818978 408.045233 
L 783.514871 413.556096 
L 786.210763 425.47231 
L 788.906655 441.820752 
L 796.994332 466.184778 
L 802.386117 509.595089 
L 805.082009 521.672016 
L 807.777901 533.221561 
L 815.865578 537.695288 
L 818.561471 528.166569 
L 823.953255 504.848167 
L 826.649147 492.086023 
L 834.736824 481.809433 
L 837.432717 480.42861 
L 840.128609 469.442882 
L 845.520393 445.539257 
L 853.60807 434.276307 
L 856.303963 420.503198 
L 858.999855 415.730341 
L 861.695747 408.604654 
L 864.39164 407.373831 
L 872.479316 404.619854 
L 880.566993 403.450719 
L 883.262886 398.541187 
L 891.350562 393.381032 
L 894.046455 390.860881 
L 896.742347 389.762209 
L 899.438239 389.414404 
L 902.134132 390.48461 
L 910.221809 387.173555 
L 915.613593 376.338821 
L 918.309485 372.419613 
L 921.005378 371.18566 
L 929.093055 380.627477 
L 931.788947 411.838334 
L 939.876624 475.089306 
L 939.876624 475.089306 
" clip-path="url(#pfbf40e755f)" style="fill: none; stroke: #1f77b4; stroke-width: 1.5; stroke-linecap: square"/>
   </g>
   <g id="line2d_80">
    <path d="M 79.886982 487.474609 
L 82.582874 488.014168 
L 85.278767 488.132777 
L 87.974659 487.943157 
L 90.670551 487.201929 
L 98.758228 485.574028 
L 104.150013 483.06782 
L 106.845905 480.875439 
L 109.541797 478.379452 
L 117.629474 476.165611 
L 123.021259 473.676606 
L 125.717151 472.255341 
L 128.413043 472.325964 
L 136.50072 473.887693 
L 139.196613 475.126309 
L 144.588397 476.274958 
L 147.284289 477.062001 
L 158.067859 478.36086 
L 160.763751 478.015111 
L 163.459643 477.973487 
L 166.155535 478.378773 
L 174.243212 478.916203 
L 176.939105 479.791991 
L 179.634997 478.535699 
L 185.026782 473.7335 
L 193.114458 472.701905 
L 195.810351 472.096609 
L 198.506243 471.76982 
L 201.202135 471.893819 
L 203.898028 471.137227 
L 211.985704 471.626796 
L 214.681597 473.274715 
L 217.377489 475.991371 
L 220.073381 481.68716 
L 222.769274 485.106417 
L 230.856951 485.171507 
L 236.248735 478.738415 
L 241.64052 455.921504 
L 249.728197 442.805468 
L 252.424089 429.319946 
L 255.119981 417.175207 
L 257.815873 408.923965 
L 260.511766 402.903704 
L 268.599443 399.202223 
L 271.295335 399.542638 
L 273.991227 401.419668 
L 276.68712 404.461014 
L 287.470689 406.562534 
L 290.166581 407.838986 
L 292.862473 408.802197 
L 295.558366 408.40834 
L 298.254258 407.751102 
L 306.341935 405.61543 
L 309.037827 404.412976 
L 311.733719 404.970353 
L 317.125504 408.450214 
L 325.213181 409.725794 
L 327.909073 410.797893 
L 333.300858 409.394587 
L 335.99675 407.79612 
L 344.084427 405.341788 
L 346.780319 405.775624 
L 349.476211 408.00379 
L 362.955673 410.568538 
L 365.651565 410.901934 
L 368.347458 409.589958 
L 373.739242 400.6136 
L 381.826919 400.537169 
L 384.522811 402.579884 
L 387.218704 407.205652 
L 389.914596 412.566865 
L 392.610488 420.496402 
L 400.698165 428.333948 
L 406.08995 435.927694 
L 408.785842 443.537743 
L 411.481734 450.394448 
L 419.569411 457.808493 
L 422.265303 469.14955 
L 424.961196 482.459144 
L 430.35298 511.435123 
L 438.440657 523.748965 
L 441.136549 530.247561 
L 443.832442 532.363084 
L 446.528334 532.823438 
L 449.224226 530.693511 
L 457.311903 527.448354 
L 460.007795 524.168406 
L 462.703688 521.45015 
L 465.39958 518.38368 
L 468.095472 515.609452 
L 476.183149 511.493901 
L 478.879042 504.987733 
L 481.574934 496.338806 
L 486.966718 475.853952 
L 495.054395 466.736084 
L 497.750288 458.061783 
L 500.44618 450.157249 
L 503.142072 442.904393 
L 505.837964 436.616848 
L 516.621534 432.611252 
L 519.317426 433.679752 
L 522.013318 439.161957 
L 524.709211 446.407668 
L 532.796887 456.213846 
L 535.49278 464.79516 
L 538.188672 473.846916 
L 543.580457 492.983272 
L 551.668133 500.395784 
L 554.364026 504.730244 
L 557.059918 506.163297 
L 562.451703 507.066478 
L 570.53938 507.829856 
L 573.235272 508.576501 
L 575.931164 509.450616 
L 578.627056 509.017592 
L 581.322949 506.597879 
L 589.410626 501.950272 
L 592.106518 495.951762 
L 594.80241 489.536784 
L 600.194195 477.933966 
L 608.281872 472.03475 
L 613.673656 459.222401 
L 616.369549 453.152102 
L 619.065441 448.093365 
L 627.153118 442.882574 
L 632.544902 432.139968 
L 635.240795 427.313331 
L 637.936687 420.708232 
L 646.024364 413.036446 
L 648.720256 404.517227 
L 651.416148 397.048382 
L 654.112041 392.321873 
L 656.807933 389.388495 
L 664.89561 385.869447 
L 670.287394 381.063146 
L 672.983287 376.319852 
L 675.679179 371.202208 
L 686.462748 366.00787 
L 689.15864 361.750004 
L 691.854533 358.498774 
L 694.550425 357.724144 
L 702.638102 358.492819 
L 708.029887 359.668265 
L 710.725779 360.062561 
L 713.421671 359.111333 
L 721.509348 357.464008 
L 724.20524 354.501902 
L 729.597025 352.525308 
L 732.292917 351.877881 
L 740.380594 351.715909 
L 743.076486 351.84582 
L 745.772379 350.614297 
L 748.468271 349.626607 
L 751.164163 348.812389 
L 759.25184 350.297304 
L 761.947732 353.51814 
L 767.339517 362.04584 
L 770.035409 367.363042 
L 778.123086 373.67223 
L 783.514871 387.148684 
L 786.210763 394.813409 
L 788.906655 404.214878 
L 796.994332 416.608858 
L 799.690225 430.870732 
L 802.386117 446.615604 
L 805.082009 461.626886 
L 807.777901 475.945821 
L 815.865578 488.295715 
L 818.561471 496.269885 
L 823.953255 497.985542 
L 826.649147 496.805638 
L 834.736824 493.806397 
L 837.432717 491.13084 
L 840.128609 486.793248 
L 842.824501 480.907185 
L 845.520393 473.8336 
L 853.60807 465.922141 
L 856.303963 456.838352 
L 861.695747 440.614331 
L 864.39164 433.966231 
L 872.479316 428.096956 
L 875.175209 423.323995 
L 880.566993 419.34934 
L 883.262886 415.187709 
L 891.350562 410.826374 
L 894.046455 406.833275 
L 896.742347 403.419062 
L 899.438239 400.61813 
L 902.134132 398.591426 
L 910.221809 396.307852 
L 915.613593 392.314046 
L 918.309485 388.335159 
L 921.005378 384.905259 
L 929.093055 384.049703 
L 931.788947 389.607429 
L 934.484839 398.290831 
L 937.180731 409.432105 
L 939.876624 422.563546 
L 939.876624 422.563546 
" clip-path="url(#pfbf40e755f)" style="fill: none; stroke: #ff7f0e; stroke-width: 1.5; stroke-linecap: square"/>
   </g>
   <g id="patch_9">
    <path d="M 36.8875 584.521875 
L 36.8875 331.135938 
" style="fill: none; stroke: #000000; stroke-width: 0.8; stroke-linejoin: miter; stroke-linecap: square"/>
   </g>
   <g id="patch_10">
    <path d="M 982.876106 584.521875 
L 982.876106 331.135938 
" style="fill: none; stroke: #000000; stroke-width: 0.8; stroke-linejoin: miter; stroke-linecap: square"/>
   </g>
   <g id="patch_11">
    <path d="M 36.8875 584.521875 
L 982.876106 584.521875 
" style="fill: none; stroke: #000000; stroke-width: 0.8; stroke-linejoin: miter; stroke-linecap: square"/>
   </g>
   <g id="patch_12">
    <path d="M 36.8875 331.135938 
L 982.876106 331.135938 
" style="fill: none; stroke: #000000; stroke-width: 0.8; stroke-linejoin: miter; stroke-linecap: square"/>
   </g>
   <g id="text_29">
    <!-- MACD -->
    <g transform="translate(491.895865 325.135938)scale(0.12 -0.12)">
     <defs>
      <path id="DejaVuSans-44" d="M 1259 4147 
L 1259 519 
L 2022 519 
Q 2988 519 3436 956 
Q 3884 1394 3884 2338 
Q 3884 3275 3436 3711 
Q 2988 4147 2022 4147 
L 1259 4147 
z
M 628 4666 
L 1925 4666 
Q 3281 4666 3915 4102 
Q 4550 3538 4550 2338 
Q 4550 1131 3912 565 
Q 3275 0 1925 0 
L 628 0 
L 628 4666 
z
" transform="scale(0.015625)"/>
     </defs>
     <use xlink:href="#DejaVuSans-4d"/>
     <use xlink:href="#DejaVuSans-41" x="86.279297"/>
     <use xlink:href="#DejaVuSans-43" x="152.9375"/>
     <use xlink:href="#DejaVuSans-44" x="222.761719"/>
    </g>
   </g>
   <g id="legend_2">
    <g id="patch_13">
     <path d="M 913.899543 368.492188 
L 975.876106 368.492188 
Q 977.876106 368.492188 977.876106 366.492188 
L 977.876106 338.135938 
Q 977.876106 336.135938 975.876106 336.135938 
L 913.899543 336.135938 
Q 911.899543 336.135938 911.899543 338.135938 
L 911.899543 366.492188 
Q 911.899543 368.492188 913.899543 368.492188 
z
" style="fill: #ffffff; opacity: 0.8; stroke: #cccccc; stroke-linejoin: miter"/>
    </g>
    <g id="line2d_81">
     <path d="M 915.899543 344.234375 
L 925.899543 344.234375 
L 935.899543 344.234375 
" style="fill: none; stroke: #1f77b4; stroke-width: 1.5; stroke-linecap: square"/>
    </g>
    <g id="text_30">
     <!-- MACD -->
     <g transform="translate(943.899543 347.734375)scale(0.1 -0.1)">
      <use xlink:href="#DejaVuSans-4d"/>
      <use xlink:href="#DejaVuSans-41" x="86.279297"/>
      <use xlink:href="#DejaVuSans-43" x="152.9375"/>
      <use xlink:href="#DejaVuSans-44" x="222.761719"/>
     </g>
    </g>
    <g id="line2d_82">
     <path d="M 915.899543 358.9125 
L 925.899543 358.9125 
L 935.899543 358.9125 
" style="fill: none; stroke: #ff7f0e; stroke-width: 1.5; stroke-linecap: square"/>
    </g>
    <g id="text_31">
     <!-- SIG -->
     <g transform="translate(943.899543 362.4125)scale(0.1 -0.1)">
      <defs>
       <path id="DejaVuSans-49" d="M 628 4666 
L 1259 4666 
L 1259 0 
L 628 0 
L 628 4666 
z
" transform="scale(0.015625)"/>
       <path id="DejaVuSans-47" d="M 3809 666 
L 3809 1919 
L 2778 1919 
L 2778 2438 
L 4434 2438 
L 4434 434 
Q 4069 175 3628 42 
Q 3188 -91 2688 -91 
Q 1594 -91 976 548 
Q 359 1188 359 2328 
Q 359 3472 976 4111 
Q 1594 4750 2688 4750 
Q 3144 4750 3555 4637 
Q 3966 4525 4313 4306 
L 4313 3634 
Q 3963 3931 3569 4081 
Q 3175 4231 2741 4231 
Q 1884 4231 1454 3753 
Q 1025 3275 1025 2328 
Q 1025 1384 1454 906 
Q 1884 428 2741 428 
Q 3075 428 3337 486 
Q 3600 544 3809 666 
z
" transform="scale(0.015625)"/>
      </defs>
      <use xlink:href="#DejaVuSans-53"/>
      <use xlink:href="#DejaVuSans-49" x="63.476562"/>
      <use xlink:href="#DejaVuSans-47" x="92.96875"/>
     </g>
    </g>
   </g>
  </g>
  <g id="text_32">
   <!-- Coal India Limited -->
   <g transform="translate(449.881875 21.358125)scale(0.12 -0.12)">
    <defs>
     <path id="DejaVuSans-61" d="M 2194 1759 
Q 1497 1759 1228 1600 
Q 959 1441 959 1056 
Q 959 750 1161 570 
Q 1363 391 1709 391 
Q 2188 391 2477 730 
Q 2766 1069 2766 1631 
L 2766 1759 
L 2194 1759 
z
M 3341 1997 
L 3341 0 
L 2766 0 
L 2766 531 
Q 2569 213 2275 61 
Q 1981 -91 1556 -91 
Q 1019 -91 701 211 
Q 384 513 384 1019 
Q 384 1609 779 1909 
Q 1175 2209 1959 2209 
L 2766 2209 
L 2766 2266 
Q 2766 2663 2505 2880 
Q 2244 3097 1772 3097 
Q 1472 3097 1187 3025 
Q 903 2953 641 2809 
L 641 3341 
Q 956 3463 1253 3523 
Q 1550 3584 1831 3584 
Q 2591 3584 2966 3190 
Q 3341 2797 3341 1997 
z
" transform="scale(0.015625)"/>
     <path id="DejaVuSans-64" d="M 2906 2969 
L 2906 4863 
L 3481 4863 
L 3481 0 
L 2906 0 
L 2906 525 
Q 2725 213 2448 61 
Q 2172 -91 1784 -91 
Q 1150 -91 751 415 
Q 353 922 353 1747 
Q 353 2572 751 3078 
Q 1150 3584 1784 3584 
Q 2172 3584 2448 3432 
Q 2725 3281 2906 2969 
z
M 947 1747 
Q 947 1113 1208 752 
Q 1469 391 1925 391 
Q 2381 391 2643 752 
Q 2906 1113 2906 1747 
Q 2906 2381 2643 2742 
Q 2381 3103 1925 3103 
Q 1469 3103 1208 2742 
Q 947 2381 947 1747 
z
" transform="scale(0.015625)"/>
     <path id="DejaVuSans-6d" d="M 3328 2828 
Q 3544 3216 3844 3400 
Q 4144 3584 4550 3584 
Q 5097 3584 5394 3201 
Q 5691 2819 5691 2113 
L 5691 0 
L 5113 0 
L 5113 2094 
Q 5113 2597 4934 2840 
Q 4756 3084 4391 3084 
Q 3944 3084 3684 2787 
Q 3425 2491 3425 1978 
L 3425 0 
L 2847 0 
L 2847 2094 
Q 2847 2600 2669 2842 
Q 2491 3084 2119 3084 
Q 1678 3084 1418 2786 
Q 1159 2488 1159 1978 
L 1159 0 
L 581 0 
L 581 3500 
L 1159 3500 
L 1159 2956 
Q 1356 3278 1631 3431 
Q 1906 3584 2284 3584 
Q 2666 3584 2933 3390 
Q 3200 3197 3328 2828 
z
" transform="scale(0.015625)"/>
     <path id="DejaVuSans-74" d="M 1172 4494 
L 1172 3500 
L 2356 3500 
L 2356 3053 
L 1172 3053 
L 1172 1153 
Q 1172 725 1289 603 
Q 1406 481 1766 481 
L 2356 481 
L 2356 0 
L 1766 0 
Q 1100 0 847 248 
Q 594 497 594 1153 
L 594 3053 
L 172 3053 
L 172 3500 
L 594 3500 
L 594 4494 
L 1172 4494 
z
" transform="scale(0.015625)"/>
    </defs>
    <use xlink:href="#DejaVuSans-43"/>
    <use xlink:href="#DejaVuSans-6f" x="69.824219"/>
    <use xlink:href="#DejaVuSans-61" x="131.005859"/>
    <use xlink:href="#DejaVuSans-6c" x="192.285156"/>
    <use xlink:href="#DejaVuSans-20" x="220.068359"/>
    <use xlink:href="#DejaVuSans-49" x="251.855469"/>
    <use xlink:href="#DejaVuSans-6e" x="281.347656"/>
    <use xlink:href="#DejaVuSans-64" x="344.726562"/>
    <use xlink:href="#DejaVuSans-69" x="408.203125"/>
    <use xlink:href="#DejaVuSans-61" x="435.986328"/>
    <use xlink:href="#DejaVuSans-20" x="497.265625"/>
    <use xlink:href="#DejaVuSans-4c" x="529.052734"/>
    <use xlink:href="#DejaVuSans-69" x="584.765625"/>
    <use xlink:href="#DejaVuSans-6d" x="612.548828"/>
    <use xlink:href="#DejaVuSans-69" x="709.960938"/>
    <use xlink:href="#DejaVuSans-74" x="737.744141"/>
    <use xlink:href="#DejaVuSans-65" x="776.953125"/>
    <use xlink:href="#DejaVuSans-64" x="838.476562"/>
   </g>
  </g>
 </g>
 <defs>
  <clipPath id="p5b2dbf040a">
   <rect x="36.8875" y="48.331875" width="945.988606" height="253.385938"/>
  </clipPath>
  <clipPath id="pfbf40e755f">
   <rect x="36.8875" y="331.135938" width="945.988606" height="253.385937"/>
  </clipPath>
 </defs>
</svg>
