<?xml version="1.0" encoding="utf-8" standalone="no"?>
<!DOCTYPE svg PUBLIC "-//W3C//DTD SVG 1.1//EN"
  "http://www.w3.org/Graphics/SVG/1.1/DTD/svg11.dtd">
<svg xmlns:xlink="http://www.w3.org/1999/xlink" width="1008pt" height="612pt" viewBox="0 0 1008 612" xmlns="http://www.w3.org/2000/svg" version="1.1">
 <metadata>
  <rdf:RDF xmlns:dc="http://purl.org/dc/elements/1.1/" xmlns:cc="http://creativecommons.org/ns#" xmlns:rdf="http://www.w3.org/1999/02/22-rdf-syntax-ns#">
   <cc:Work>
    <dc:type rdf:resource="http://purl.org/dc/dcmitype/StillImage"/>
    <dc:date>2022-11-20T19:47:07.713391</dc:date>
    <dc:format>image/svg+xml</dc:format>
    <dc:creator>
     <cc:Agent>
      <dc:title>Matplotlib v3.5.2, https://matplotlib.org/</dc:title>
     </cc:Agent>
    </dc:creator>
   </cc:Work>
  </rdf:RDF>
 </metadata>
 <defs>
  <style type="text/css">*{stroke-linejoin: round; stroke-linecap: butt}</style>
 </defs>
 <g id="figure_1">
  <g id="patch_1">
   <path d="M 0 612 
L 1008 612 
L 1008 0 
L 0 0 
z
" style="fill: #ffffff"/>
  </g>
  <g id="axes_1">
   <g id="patch_2">
    <path d="M 38.904688 301.717812 
L 982.876106 301.717812 
L 982.876106 48.331875 
L 38.904688 48.331875 
z
" style="fill: #ffffff"/>
   </g>
   <g id="matplotlib.axis_1">
    <g id="xtick_1">
     <g id="line2d_1">
      <path d="M 76.432192 301.717812 
L 76.432192 48.331875 
" clip-path="url(#pb7567539e8)" style="fill: none; stroke-dasharray: 2.96,1.28; stroke-dashoffset: 0; stroke: #b0b0b0; stroke-width: 0.8"/>
     </g>
     <g id="line2d_2">
      <defs>
       <path id="m7a7d72113c" d="M 0 0 
L 0 3.5 
" style="stroke: #000000; stroke-width: 0.8"/>
      </defs>
      <g>
       <use xlink:href="#m7a7d72113c" x="76.432192" y="301.717812" style="stroke: #000000; stroke-width: 0.8"/>
      </g>
     </g>
    </g>
    <g id="xtick_2">
     <g id="line2d_3">
      <path d="M 159.826646 301.717812 
L 159.826646 48.331875 
" clip-path="url(#pb7567539e8)" style="fill: none; stroke-dasharray: 2.96,1.28; stroke-dashoffset: 0; stroke: #b0b0b0; stroke-width: 0.8"/>
     </g>
     <g id="line2d_4">
      <g>
       <use xlink:href="#m7a7d72113c" x="159.826646" y="301.717812" style="stroke: #000000; stroke-width: 0.8"/>
      </g>
     </g>
    </g>
    <g id="xtick_3">
     <g id="line2d_5">
      <path d="M 235.150669 301.717812 
L 235.150669 48.331875 
" clip-path="url(#pb7567539e8)" style="fill: none; stroke-dasharray: 2.96,1.28; stroke-dashoffset: 0; stroke: #b0b0b0; stroke-width: 0.8"/>
     </g>
     <g id="line2d_6">
      <g>
       <use xlink:href="#m7a7d72113c" x="235.150669" y="301.717812" style="stroke: #000000; stroke-width: 0.8"/>
      </g>
     </g>
    </g>
    <g id="xtick_4">
     <g id="line2d_7">
      <path d="M 318.545123 301.717812 
L 318.545123 48.331875 
" clip-path="url(#pb7567539e8)" style="fill: none; stroke-dasharray: 2.96,1.28; stroke-dashoffset: 0; stroke: #b0b0b0; stroke-width: 0.8"/>
     </g>
     <g id="line2d_8">
      <g>
       <use xlink:href="#m7a7d72113c" x="318.545123" y="301.717812" style="stroke: #000000; stroke-width: 0.8"/>
      </g>
     </g>
    </g>
    <g id="xtick_5">
     <g id="line2d_9">
      <path d="M 399.249434 301.717812 
L 399.249434 48.331875 
" clip-path="url(#pb7567539e8)" style="fill: none; stroke-dasharray: 2.96,1.28; stroke-dashoffset: 0; stroke: #b0b0b0; stroke-width: 0.8"/>
     </g>
     <g id="line2d_10">
      <g>
       <use xlink:href="#m7a7d72113c" x="399.249434" y="301.717812" style="stroke: #000000; stroke-width: 0.8"/>
      </g>
     </g>
    </g>
    <g id="xtick_6">
     <g id="line2d_11">
      <path d="M 482.643888 301.717812 
L 482.643888 48.331875 
" clip-path="url(#pb7567539e8)" style="fill: none; stroke-dasharray: 2.96,1.28; stroke-dashoffset: 0; stroke: #b0b0b0; stroke-width: 0.8"/>
     </g>
     <g id="line2d_12">
      <g>
       <use xlink:href="#m7a7d72113c" x="482.643888" y="301.717812" style="stroke: #000000; stroke-width: 0.8"/>
      </g>
     </g>
    </g>
    <g id="xtick_7">
     <g id="line2d_13">
      <path d="M 563.348198 301.717812 
L 563.348198 48.331875 
" clip-path="url(#pb7567539e8)" style="fill: none; stroke-dasharray: 2.96,1.28; stroke-dashoffset: 0; stroke: #b0b0b0; stroke-width: 0.8"/>
     </g>
     <g id="line2d_14">
      <g>
       <use xlink:href="#m7a7d72113c" x="563.348198" y="301.717812" style="stroke: #000000; stroke-width: 0.8"/>
      </g>
     </g>
    </g>
    <g id="xtick_8">
     <g id="line2d_15">
      <path d="M 646.742653 301.717812 
L 646.742653 48.331875 
" clip-path="url(#pb7567539e8)" style="fill: none; stroke-dasharray: 2.96,1.28; stroke-dashoffset: 0; stroke: #b0b0b0; stroke-width: 0.8"/>
     </g>
     <g id="line2d_16">
      <g>
       <use xlink:href="#m7a7d72113c" x="646.742653" y="301.717812" style="stroke: #000000; stroke-width: 0.8"/>
      </g>
     </g>
    </g>
    <g id="xtick_9">
     <g id="line2d_17">
      <path d="M 730.137107 301.717812 
L 730.137107 48.331875 
" clip-path="url(#pb7567539e8)" style="fill: none; stroke-dasharray: 2.96,1.28; stroke-dashoffset: 0; stroke: #b0b0b0; stroke-width: 0.8"/>
     </g>
     <g id="line2d_18">
      <g>
       <use xlink:href="#m7a7d72113c" x="730.137107" y="301.717812" style="stroke: #000000; stroke-width: 0.8"/>
      </g>
     </g>
    </g>
    <g id="xtick_10">
     <g id="line2d_19">
      <path d="M 810.841417 301.717812 
L 810.841417 48.331875 
" clip-path="url(#pb7567539e8)" style="fill: none; stroke-dasharray: 2.96,1.28; stroke-dashoffset: 0; stroke: #b0b0b0; stroke-width: 0.8"/>
     </g>
     <g id="line2d_20">
      <g>
       <use xlink:href="#m7a7d72113c" x="810.841417" y="301.717812" style="stroke: #000000; stroke-width: 0.8"/>
      </g>
     </g>
    </g>
    <g id="xtick_11">
     <g id="line2d_21">
      <path d="M 894.235872 301.717812 
L 894.235872 48.331875 
" clip-path="url(#pb7567539e8)" style="fill: none; stroke-dasharray: 2.96,1.28; stroke-dashoffset: 0; stroke: #b0b0b0; stroke-width: 0.8"/>
     </g>
     <g id="line2d_22">
      <g>
       <use xlink:href="#m7a7d72113c" x="894.235872" y="301.717812" style="stroke: #000000; stroke-width: 0.8"/>
      </g>
     </g>
    </g>
    <g id="xtick_12">
     <g id="line2d_23">
      <path d="M 974.940182 301.717812 
L 974.940182 48.331875 
" clip-path="url(#pb7567539e8)" style="fill: none; stroke-dasharray: 2.96,1.28; stroke-dashoffset: 0; stroke: #b0b0b0; stroke-width: 0.8"/>
     </g>
     <g id="line2d_24">
      <g>
       <use xlink:href="#m7a7d72113c" x="974.940182" y="301.717812" style="stroke: #000000; stroke-width: 0.8"/>
      </g>
     </g>
    </g>
   </g>
   <g id="matplotlib.axis_2">
    <g id="ytick_1">
     <g id="line2d_25">
      <path d="M 38.904688 276.073414 
L 982.876106 276.073414 
" clip-path="url(#pb7567539e8)" style="fill: none; stroke-dasharray: 2.96,1.28; stroke-dashoffset: 0; stroke: #b0b0b0; stroke-width: 0.8"/>
     </g>
     <g id="line2d_26">
      <defs>
       <path id="me4bd872369" d="M 0 0 
L -3.5 0 
" style="stroke: #000000; stroke-width: 0.8"/>
      </defs>
      <g>
       <use xlink:href="#me4bd872369" x="38.904688" y="276.073414" style="stroke: #000000; stroke-width: 0.8"/>
      </g>
     </g>
     <g id="text_1">
      <!-- 70 -->
      <g transform="translate(19.179688 279.872633)scale(0.1 -0.1)">
       <defs>
        <path id="DejaVuSans-37" d="M 525 4666 
L 3525 4666 
L 3525 4397 
L 1831 0 
L 1172 0 
L 2766 4134 
L 525 4134 
L 525 4666 
z
" transform="scale(0.015625)"/>
        <path id="DejaVuSans-30" d="M 2034 4250 
Q 1547 4250 1301 3770 
Q 1056 3291 1056 2328 
Q 1056 1369 1301 889 
Q 1547 409 2034 409 
Q 2525 409 2770 889 
Q 3016 1369 3016 2328 
Q 3016 3291 2770 3770 
Q 2525 4250 2034 4250 
z
M 2034 4750 
Q 2819 4750 3233 4129 
Q 3647 3509 3647 2328 
Q 3647 1150 3233 529 
Q 2819 -91 2034 -91 
Q 1250 -91 836 529 
Q 422 1150 422 2328 
Q 422 3509 836 4129 
Q 1250 4750 2034 4750 
z
" transform="scale(0.015625)"/>
       </defs>
       <use xlink:href="#DejaVuSans-37"/>
       <use xlink:href="#DejaVuSans-30" x="63.623047"/>
      </g>
     </g>
    </g>
    <g id="ytick_2">
     <g id="line2d_27">
      <path d="M 38.904688 242.833753 
L 982.876106 242.833753 
" clip-path="url(#pb7567539e8)" style="fill: none; stroke-dasharray: 2.96,1.28; stroke-dashoffset: 0; stroke: #b0b0b0; stroke-width: 0.8"/>
     </g>
     <g id="line2d_28">
      <g>
       <use xlink:href="#me4bd872369" x="38.904688" y="242.833753" style="stroke: #000000; stroke-width: 0.8"/>
      </g>
     </g>
     <g id="text_2">
      <!-- 80 -->
      <g transform="translate(19.179688 246.632971)scale(0.1 -0.1)">
       <defs>
        <path id="DejaVuSans-38" d="M 2034 2216 
Q 1584 2216 1326 1975 
Q 1069 1734 1069 1313 
Q 1069 891 1326 650 
Q 1584 409 2034 409 
Q 2484 409 2743 651 
Q 3003 894 3003 1313 
Q 3003 1734 2745 1975 
Q 2488 2216 2034 2216 
z
M 1403 2484 
Q 997 2584 770 2862 
Q 544 3141 544 3541 
Q 544 4100 942 4425 
Q 1341 4750 2034 4750 
Q 2731 4750 3128 4425 
Q 3525 4100 3525 3541 
Q 3525 3141 3298 2862 
Q 3072 2584 2669 2484 
Q 3125 2378 3379 2068 
Q 3634 1759 3634 1313 
Q 3634 634 3220 271 
Q 2806 -91 2034 -91 
Q 1263 -91 848 271 
Q 434 634 434 1313 
Q 434 1759 690 2068 
Q 947 2378 1403 2484 
z
M 1172 3481 
Q 1172 3119 1398 2916 
Q 1625 2713 2034 2713 
Q 2441 2713 2670 2916 
Q 2900 3119 2900 3481 
Q 2900 3844 2670 4047 
Q 2441 4250 2034 4250 
Q 1625 4250 1398 4047 
Q 1172 3844 1172 3481 
z
" transform="scale(0.015625)"/>
       </defs>
       <use xlink:href="#DejaVuSans-38"/>
       <use xlink:href="#DejaVuSans-30" x="63.623047"/>
      </g>
     </g>
    </g>
    <g id="ytick_3">
     <g id="line2d_29">
      <path d="M 38.904688 209.594091 
L 982.876106 209.594091 
" clip-path="url(#pb7567539e8)" style="fill: none; stroke-dasharray: 2.96,1.28; stroke-dashoffset: 0; stroke: #b0b0b0; stroke-width: 0.8"/>
     </g>
     <g id="line2d_30">
      <g>
       <use xlink:href="#me4bd872369" x="38.904688" y="209.594091" style="stroke: #000000; stroke-width: 0.8"/>
      </g>
     </g>
     <g id="text_3">
      <!-- 90 -->
      <g transform="translate(19.179688 213.39331)scale(0.1 -0.1)">
       <defs>
        <path id="DejaVuSans-39" d="M 703 97 
L 703 672 
Q 941 559 1184 500 
Q 1428 441 1663 441 
Q 2288 441 2617 861 
Q 2947 1281 2994 2138 
Q 2813 1869 2534 1725 
Q 2256 1581 1919 1581 
Q 1219 1581 811 2004 
Q 403 2428 403 3163 
Q 403 3881 828 4315 
Q 1253 4750 1959 4750 
Q 2769 4750 3195 4129 
Q 3622 3509 3622 2328 
Q 3622 1225 3098 567 
Q 2575 -91 1691 -91 
Q 1453 -91 1209 -44 
Q 966 3 703 97 
z
M 1959 2075 
Q 2384 2075 2632 2365 
Q 2881 2656 2881 3163 
Q 2881 3666 2632 3958 
Q 2384 4250 1959 4250 
Q 1534 4250 1286 3958 
Q 1038 3666 1038 3163 
Q 1038 2656 1286 2365 
Q 1534 2075 1959 2075 
z
" transform="scale(0.015625)"/>
       </defs>
       <use xlink:href="#DejaVuSans-39"/>
       <use xlink:href="#DejaVuSans-30" x="63.623047"/>
      </g>
     </g>
    </g>
    <g id="ytick_4">
     <g id="line2d_31">
      <path d="M 38.904688 176.35443 
L 982.876106 176.35443 
" clip-path="url(#pb7567539e8)" style="fill: none; stroke-dasharray: 2.96,1.28; stroke-dashoffset: 0; stroke: #b0b0b0; stroke-width: 0.8"/>
     </g>
     <g id="line2d_32">
      <g>
       <use xlink:href="#me4bd872369" x="38.904688" y="176.35443" style="stroke: #000000; stroke-width: 0.8"/>
      </g>
     </g>
     <g id="text_4">
      <!-- 100 -->
      <g transform="translate(12.817187 180.153649)scale(0.1 -0.1)">
       <defs>
        <path id="DejaVuSans-31" d="M 794 531 
L 1825 531 
L 1825 4091 
L 703 3866 
L 703 4441 
L 1819 4666 
L 2450 4666 
L 2450 531 
L 3481 531 
L 3481 0 
L 794 0 
L 794 531 
z
" transform="scale(0.015625)"/>
       </defs>
       <use xlink:href="#DejaVuSans-31"/>
       <use xlink:href="#DejaVuSans-30" x="63.623047"/>
       <use xlink:href="#DejaVuSans-30" x="127.246094"/>
      </g>
     </g>
    </g>
    <g id="ytick_5">
     <g id="line2d_33">
      <path d="M 38.904688 143.114769 
L 982.876106 143.114769 
" clip-path="url(#pb7567539e8)" style="fill: none; stroke-dasharray: 2.96,1.28; stroke-dashoffset: 0; stroke: #b0b0b0; stroke-width: 0.8"/>
     </g>
     <g id="line2d_34">
      <g>
       <use xlink:href="#me4bd872369" x="38.904688" y="143.114769" style="stroke: #000000; stroke-width: 0.8"/>
      </g>
     </g>
     <g id="text_5">
      <!-- 110 -->
      <g transform="translate(12.817187 146.913988)scale(0.1 -0.1)">
       <use xlink:href="#DejaVuSans-31"/>
       <use xlink:href="#DejaVuSans-31" x="63.623047"/>
       <use xlink:href="#DejaVuSans-30" x="127.246094"/>
      </g>
     </g>
    </g>
    <g id="ytick_6">
     <g id="line2d_35">
      <path d="M 38.904688 109.875108 
L 982.876106 109.875108 
" clip-path="url(#pb7567539e8)" style="fill: none; stroke-dasharray: 2.96,1.28; stroke-dashoffset: 0; stroke: #b0b0b0; stroke-width: 0.8"/>
     </g>
     <g id="line2d_36">
      <g>
       <use xlink:href="#me4bd872369" x="38.904688" y="109.875108" style="stroke: #000000; stroke-width: 0.8"/>
      </g>
     </g>
     <g id="text_6">
      <!-- 120 -->
      <g transform="translate(12.817187 113.674327)scale(0.1 -0.1)">
       <defs>
        <path id="DejaVuSans-32" d="M 1228 531 
L 3431 531 
L 3431 0 
L 469 0 
L 469 531 
Q 828 903 1448 1529 
Q 2069 2156 2228 2338 
Q 2531 2678 2651 2914 
Q 2772 3150 2772 3378 
Q 2772 3750 2511 3984 
Q 2250 4219 1831 4219 
Q 1534 4219 1204 4116 
Q 875 4013 500 3803 
L 500 4441 
Q 881 4594 1212 4672 
Q 1544 4750 1819 4750 
Q 2544 4750 2975 4387 
Q 3406 4025 3406 3419 
Q 3406 3131 3298 2873 
Q 3191 2616 2906 2266 
Q 2828 2175 2409 1742 
Q 1991 1309 1228 531 
z
" transform="scale(0.015625)"/>
       </defs>
       <use xlink:href="#DejaVuSans-31"/>
       <use xlink:href="#DejaVuSans-32" x="63.623047"/>
       <use xlink:href="#DejaVuSans-30" x="127.246094"/>
      </g>
     </g>
    </g>
    <g id="ytick_7">
     <g id="line2d_37">
      <path d="M 38.904688 76.635447 
L 982.876106 76.635447 
" clip-path="url(#pb7567539e8)" style="fill: none; stroke-dasharray: 2.96,1.28; stroke-dashoffset: 0; stroke: #b0b0b0; stroke-width: 0.8"/>
     </g>
     <g id="line2d_38">
      <g>
       <use xlink:href="#me4bd872369" x="38.904688" y="76.635447" style="stroke: #000000; stroke-width: 0.8"/>
      </g>
     </g>
     <g id="text_7">
      <!-- 130 -->
      <g transform="translate(12.817187 80.434665)scale(0.1 -0.1)">
       <defs>
        <path id="DejaVuSans-33" d="M 2597 2516 
Q 3050 2419 3304 2112 
Q 3559 1806 3559 1356 
Q 3559 666 3084 287 
Q 2609 -91 1734 -91 
Q 1441 -91 1130 -33 
Q 819 25 488 141 
L 488 750 
Q 750 597 1062 519 
Q 1375 441 1716 441 
Q 2309 441 2620 675 
Q 2931 909 2931 1356 
Q 2931 1769 2642 2001 
Q 2353 2234 1838 2234 
L 1294 2234 
L 1294 2753 
L 1863 2753 
Q 2328 2753 2575 2939 
Q 2822 3125 2822 3475 
Q 2822 3834 2567 4026 
Q 2313 4219 1838 4219 
Q 1578 4219 1281 4162 
Q 984 4106 628 3988 
L 628 4550 
Q 988 4650 1302 4700 
Q 1616 4750 1894 4750 
Q 2613 4750 3031 4423 
Q 3450 4097 3450 3541 
Q 3450 3153 3228 2886 
Q 3006 2619 2597 2516 
z
" transform="scale(0.015625)"/>
       </defs>
       <use xlink:href="#DejaVuSans-31"/>
       <use xlink:href="#DejaVuSans-33" x="63.623047"/>
       <use xlink:href="#DejaVuSans-30" x="127.246094"/>
      </g>
     </g>
    </g>
   </g>
   <g id="line2d_39">
    <path d="M 81.812479 133.309069 
L 84.502623 129.652706 
L 87.192767 119.016015 
L 89.88291 119.016015 
L 92.573054 114.861057 
L 100.643485 110.872298 
L 103.333629 114.52866 
L 106.023772 112.700479 
L 108.713916 106.052547 
L 111.40406 98.90602 
L 119.474491 97.410235 
L 122.164634 96.745442 
L 124.854778 92.922881 
L 127.544922 91.593294 
L 130.235066 104.224365 
L 138.305497 108.71172 
L 140.99564 105.055357 
L 146.375928 100.900399 
L 149.066071 96.246847 
L 157.136502 92.590484 
L 159.826646 104.058167 
L 162.51679 95.083459 
L 165.206933 94.418665 
L 167.897077 96.080648 
L 175.967508 100.235606 
L 178.657652 105.387753 
L 181.347796 106.384943 
L 184.037939 110.041306 
L 186.728083 103.060977 
L 194.798514 121.342791 
L 197.488658 114.030065 
L 200.178801 104.889159 
L 202.868945 105.221555 
L 205.559089 106.052547 
L 213.62952 112.534281 
L 216.319663 119.51461 
L 219.009807 119.348411 
L 221.699951 143.114769 
L 224.390094 135.303449 
L 232.460525 126.494938 
L 237.840813 135.635845 
L 240.530957 127.658327 
L 243.2211 132.311879 
L 251.291531 135.635845 
L 253.981675 119.680808 
L 256.671819 120.013204 
L 259.361962 106.71734 
L 262.052106 97.576433 
L 270.122537 107.215935 
L 272.812681 113.199074 
L 275.502824 103.393374 
L 278.192968 105.387753 
L 288.953543 116.52304 
L 291.643687 107.71453 
L 294.33383 104.224365 
L 297.023974 107.880728 
L 299.714118 113.863867 
L 307.784549 110.041306 
L 310.474692 115.52585 
L 313.164836 119.182213 
L 315.85498 113.365272 
L 318.545123 102.894779 
L 326.615554 102.229986 
L 329.305698 101.066598 
L 331.995842 89.765113 
L 334.685985 98.075028 
L 337.376129 86.773543 
L 345.44656 80.458008 
L 348.136704 89.765113 
L 350.826848 83.615775 
L 364.277566 82.950982 
L 366.96771 75.638257 
L 369.657853 65.333962 
L 372.347997 59.849418 
L 375.038141 62.176194 
L 383.108572 84.11437 
L 385.798715 79.793214 
L 388.488859 85.443957 
L 391.179003 76.801645 
L 393.869146 89.931311 
L 401.939578 87.770733 
L 407.319865 90.429906 
L 410.010009 90.928501 
L 412.700152 89.100319 
L 420.770583 96.579243 
L 423.460727 103.227176 
L 426.150871 108.379323 
L 428.841014 102.894779 
L 431.531158 105.553952 
L 439.601589 102.894779 
L 442.291733 95.249657 
L 444.981876 116.356842 
L 447.67202 119.016015 
L 450.362164 120.013204 
L 458.432595 117.52023 
L 461.122739 114.196264 
L 463.812882 127.159732 
L 466.503026 129.154111 
L 469.19317 129.32031 
L 477.263601 122.838576 
L 479.953744 123.170972 
L 482.643888 115.858247 
L 485.334032 117.686428 
L 488.024175 115.52585 
L 496.094606 118.018825 
L 498.78475 115.858247 
L 501.474894 116.52304 
L 504.165037 115.52585 
L 506.855181 119.016015 
L 514.925612 131.148491 
L 517.615756 142.283777 
L 522.996043 149.264106 
L 525.686187 162.393772 
L 533.756618 166.216334 
L 536.446762 157.241625 
L 539.136905 157.906418 
L 541.827049 152.089478 
L 544.517193 148.100718 
L 552.587624 144.610554 
L 555.277767 148.765511 
L 557.967911 143.779562 
L 560.658055 261.946558 
L 563.348198 260.949368 
L 571.41863 261.614161 
L 574.108773 264.107136 
L 576.798917 267.431102 
L 579.489061 267.098705 
L 582.179204 267.098705 
L 590.249635 267.5973 
L 592.939779 273.912836 
L 595.629923 274.743827 
L 598.320066 273.580439 
L 601.01021 274.910026 
L 609.080641 272.250853 
L 611.770785 269.425482 
L 614.460928 268.262093 
L 617.151072 267.5973 
L 619.841216 268.926887 
L 627.911647 269.093085 
L 630.601791 270.58887 
L 633.291934 269.093085 
L 635.982078 269.259283 
L 638.672222 266.267714 
L 646.742653 272.417051 
L 649.432796 269.59168 
L 652.12294 272.749448 
L 654.813084 272.084655 
L 657.503227 265.769119 
L 665.573658 264.938127 
L 670.953946 267.763499 
L 673.64409 272.915646 
L 676.334233 270.921266 
L 687.094808 265.602921 
L 689.784952 264.938127 
L 692.475095 267.264904 
L 695.165239 268.926887 
L 705.925814 272.583249 
L 708.615957 274.245232 
L 711.306101 271.253663 
L 713.996245 269.757878 
L 722.066676 272.583249 
L 724.756819 271.087465 
L 730.137107 272.250853 
L 732.827251 271.752258 
L 740.897682 272.915646 
L 743.587825 273.746638 
L 746.277969 271.419861 
L 748.968113 265.935317 
L 751.658256 267.5973 
L 759.728687 267.264904 
L 762.418831 268.59449 
L 765.108975 270.090275 
L 767.799118 270.921266 
L 770.489262 276.239612 
L 778.559693 277.236802 
L 781.249837 279.064983 
L 786.630124 283.386139 
L 789.320268 284.549527 
L 797.390699 289.20308 
L 800.080843 286.876304 
L 802.770986 290.20027 
L 805.46113 289.701675 
L 808.151274 286.211511 
L 816.221705 287.042502 
L 818.911848 285.048122 
L 824.292136 283.552338 
L 826.982279 284.549527 
L 835.05271 284.217131 
L 837.742854 289.535477 
L 840.432998 285.214321 
L 843.123142 286.543907 
L 845.813285 288.372089 
L 853.883716 289.20308 
L 856.57386 287.042502 
L 859.264004 286.045312 
L 861.954147 283.219941 
L 864.644291 284.383329 
L 872.714722 282.555148 
L 875.404866 283.053743 
L 880.785153 281.724156 
L 883.475297 281.225561 
L 891.545728 281.890355 
L 894.235872 281.059363 
L 899.616159 280.39457 
L 902.306303 281.059363 
L 910.376734 275.741017 
L 915.757021 277.569199 
L 918.447165 277.403 
L 921.137308 276.904405 
L 929.207739 277.901595 
L 931.897883 277.403 
L 934.588027 278.40019 
L 937.27817 279.064983 
L 939.968314 278.566388 
L 939.968314 278.566388 
" clip-path="url(#pb7567539e8)" style="fill: none; stroke: #1f77b4; stroke-width: 1.5; stroke-linecap: square"/>
   </g>
   <g id="line2d_40">
    <path d="M 92.573054 123.170972 
L 100.643485 118.683618 
L 103.333629 115.658809 
L 106.023772 114.395702 
L 108.713916 111.803008 
L 111.40406 108.612001 
L 119.474491 105.919588 
L 122.164634 102.362944 
L 124.854778 98.407425 
L 127.544922 95.515574 
L 130.235066 96.579243 
L 138.305497 98.83954 
L 140.99564 100.501523 
L 146.375928 102.097027 
L 149.066071 103.027738 
L 157.136502 100.700961 
L 159.826646 99.770251 
L 162.51679 97.775871 
L 165.206933 96.479524 
L 167.897077 96.446285 
L 175.967508 97.975309 
L 178.657652 98.241226 
L 181.347796 100.501523 
L 184.037939 103.626051 
L 194.798514 109.243554 
L 197.488658 110.972017 
L 200.178801 110.67286 
L 202.868945 109.708909 
L 205.559089 110.307223 
L 213.62952 108.545521 
L 216.319663 109.64243 
L 219.009807 112.534281 
L 221.699951 120.112923 
L 224.390094 125.963104 
L 232.460525 128.755235 
L 240.530957 133.641466 
L 243.2211 131.480888 
L 251.291531 131.547367 
L 253.981675 130.184541 
L 256.671819 127.060013 
L 259.361962 122.871815 
L 262.052106 115.924726 
L 270.122537 110.240744 
L 272.812681 108.944397 
L 275.502824 105.620431 
L 278.192968 105.354514 
L 288.953543 109.143835 
L 291.643687 109.243554 
L 294.33383 107.448612 
L 297.023974 108.346083 
L 299.714118 110.041306 
L 307.784549 108.744959 
L 310.474692 110.307223 
L 313.164836 113.298793 
L 315.85498 114.395702 
L 318.545123 112.201884 
L 326.615554 110.63962 
L 329.305698 107.747769 
L 331.995842 101.864349 
L 337.376129 95.582053 
L 345.44656 91.227658 
L 348.136704 88.967361 
L 350.826848 87.737493 
L 364.277566 84.712684 
L 366.96771 82.485627 
L 369.657853 79.460818 
L 372.347997 73.477679 
L 375.038141 69.189762 
L 383.108572 69.42244 
L 385.798715 70.253432 
L 388.488859 74.275431 
L 391.179003 77.665876 
L 393.869146 83.216899 
L 401.939578 83.948172 
L 410.010009 87.172419 
L 412.700152 89.632154 
L 420.770583 90.961741 
L 423.460727 94.053029 
L 426.150871 97.642912 
L 428.841014 100.036168 
L 431.531158 103.326894 
L 439.601589 104.590002 
L 442.291733 102.994498 
L 444.981876 104.590002 
L 447.67202 107.814249 
L 450.362164 110.706099 
L 458.432595 113.631189 
L 461.122739 117.420511 
L 466.503026 121.608708 
L 469.19317 123.470129 
L 477.263601 124.533798 
L 479.953744 126.32874 
L 485.334032 121.774906 
L 488.024175 119.016015 
L 496.094606 118.052064 
L 498.78475 116.589519 
L 501.474894 116.722478 
L 504.165037 116.290362 
L 506.855181 116.988395 
L 514.925612 119.614328 
L 517.615756 124.899435 
L 520.3059 130.749615 
L 522.996043 137.497266 
L 525.686187 146.172818 
L 533.756618 153.186386 
L 536.446762 156.177956 
L 539.136905 158.604451 
L 541.827049 159.169525 
L 544.517193 156.310914 
L 552.587624 151.989759 
L 555.277767 150.294536 
L 557.967911 147.469165 
L 563.348198 192.010311 
L 571.41863 215.411032 
L 574.108773 238.479357 
L 576.798917 263.209665 
L 579.489061 264.240094 
L 582.179204 265.469962 
L 590.249635 266.66659 
L 592.939779 268.62773 
L 595.629923 270.090275 
L 598.320066 271.386622 
L 601.01021 272.948886 
L 609.080641 273.879596 
L 611.770785 272.982125 
L 617.151072 270.489151 
L 619.841216 269.292523 
L 627.911647 268.660969 
L 635.982078 269.392242 
L 638.672222 268.860407 
L 646.742653 269.525201 
L 649.432796 269.325763 
L 652.12294 270.057035 
L 654.813084 270.622109 
L 657.503227 270.52239 
L 665.573658 269.026606 
L 670.953946 268.660969 
L 673.64409 268.694209 
L 676.334233 268.461531 
L 692.475095 268.328573 
L 695.165239 267.530821 
L 703.23567 267.697019 
L 705.925814 269.093085 
L 708.615957 270.954506 
L 711.306101 271.752258 
L 713.996245 271.918456 
L 722.066676 272.084655 
L 724.756819 271.785498 
L 730.137107 271.386622 
L 732.827251 271.486341 
L 743.587825 272.350572 
L 746.277969 272.417051 
L 748.968113 271.153944 
L 751.658256 270.322952 
L 759.728687 269.192804 
L 762.418831 268.162374 
L 765.108975 267.896457 
L 767.799118 268.893647 
L 770.489262 270.622109 
L 778.559693 272.616489 
L 783.939981 276.937645 
L 786.630124 279.43062 
L 789.320268 281.092603 
L 797.390699 283.485858 
L 800.080843 285.048122 
L 802.770986 286.843064 
L 805.46113 288.106171 
L 808.151274 288.438568 
L 816.221705 288.006452 
L 818.911848 287.640816 
L 824.292136 286.31123 
L 826.982279 285.2808 
L 835.05271 284.881924 
L 837.742854 285.380519 
L 840.432998 285.413759 
L 843.123142 286.012073 
L 845.813285 286.776585 
L 853.883716 287.773775 
L 856.57386 287.27518 
L 859.264004 287.441378 
L 861.954147 286.776585 
L 864.644291 285.978833 
L 872.714722 284.649246 
L 875.404866 283.851495 
L 883.475297 282.588387 
L 891.545728 282.089793 
L 894.235872 281.790636 
L 896.926015 281.32528 
L 899.616159 281.059363 
L 902.306303 281.026123 
L 910.376734 279.796256 
L 915.757021 279.098223 
L 921.137308 277.735397 
L 929.207739 277.103843 
L 931.897883 277.43624 
L 934.588027 277.602438 
L 939.968314 278.267232 
L 939.968314 278.267232 
" clip-path="url(#pb7567539e8)" style="fill: none; stroke: #ff7f0e; stroke-width: 1.5; stroke-linecap: square"/>
   </g>
   <g id="patch_3">
    <path d="M 38.904688 301.717812 
L 38.904688 48.331875 
" style="fill: none; stroke: #000000; stroke-width: 0.8; stroke-linejoin: miter; stroke-linecap: square"/>
   </g>
   <g id="patch_4">
    <path d="M 982.876106 301.717812 
L 982.876106 48.331875 
" style="fill: none; stroke: #000000; stroke-width: 0.8; stroke-linejoin: miter; stroke-linecap: square"/>
   </g>
   <g id="patch_5">
    <path d="M 38.904687 301.717812 
L 982.876106 301.717812 
" style="fill: none; stroke: #000000; stroke-width: 0.8; stroke-linejoin: miter; stroke-linecap: square"/>
   </g>
   <g id="patch_6">
    <path d="M 38.904687 48.331875 
L 982.876106 48.331875 
" style="fill: none; stroke: #000000; stroke-width: 0.8; stroke-linejoin: miter; stroke-linecap: square"/>
   </g>
   <g id="text_8">
    <!-- Closing Price -->
    <g transform="translate(472.414459 42.331875)scale(0.12 -0.12)">
     <defs>
      <path id="DejaVuSans-43" d="M 4122 4306 
L 4122 3641 
Q 3803 3938 3442 4084 
Q 3081 4231 2675 4231 
Q 1875 4231 1450 3742 
Q 1025 3253 1025 2328 
Q 1025 1406 1450 917 
Q 1875 428 2675 428 
Q 3081 428 3442 575 
Q 3803 722 4122 1019 
L 4122 359 
Q 3791 134 3420 21 
Q 3050 -91 2638 -91 
Q 1578 -91 968 557 
Q 359 1206 359 2328 
Q 359 3453 968 4101 
Q 1578 4750 2638 4750 
Q 3056 4750 3426 4639 
Q 3797 4528 4122 4306 
z
" transform="scale(0.015625)"/>
      <path id="DejaVuSans-6c" d="M 603 4863 
L 1178 4863 
L 1178 0 
L 603 0 
L 603 4863 
z
" transform="scale(0.015625)"/>
      <path id="DejaVuSans-6f" d="M 1959 3097 
Q 1497 3097 1228 2736 
Q 959 2375 959 1747 
Q 959 1119 1226 758 
Q 1494 397 1959 397 
Q 2419 397 2687 759 
Q 2956 1122 2956 1747 
Q 2956 2369 2687 2733 
Q 2419 3097 1959 3097 
z
M 1959 3584 
Q 2709 3584 3137 3096 
Q 3566 2609 3566 1747 
Q 3566 888 3137 398 
Q 2709 -91 1959 -91 
Q 1206 -91 779 398 
Q 353 888 353 1747 
Q 353 2609 779 3096 
Q 1206 3584 1959 3584 
z
" transform="scale(0.015625)"/>
      <path id="DejaVuSans-73" d="M 2834 3397 
L 2834 2853 
Q 2591 2978 2328 3040 
Q 2066 3103 1784 3103 
Q 1356 3103 1142 2972 
Q 928 2841 928 2578 
Q 928 2378 1081 2264 
Q 1234 2150 1697 2047 
L 1894 2003 
Q 2506 1872 2764 1633 
Q 3022 1394 3022 966 
Q 3022 478 2636 193 
Q 2250 -91 1575 -91 
Q 1294 -91 989 -36 
Q 684 19 347 128 
L 347 722 
Q 666 556 975 473 
Q 1284 391 1588 391 
Q 1994 391 2212 530 
Q 2431 669 2431 922 
Q 2431 1156 2273 1281 
Q 2116 1406 1581 1522 
L 1381 1569 
Q 847 1681 609 1914 
Q 372 2147 372 2553 
Q 372 3047 722 3315 
Q 1072 3584 1716 3584 
Q 2034 3584 2315 3537 
Q 2597 3491 2834 3397 
z
" transform="scale(0.015625)"/>
      <path id="DejaVuSans-69" d="M 603 3500 
L 1178 3500 
L 1178 0 
L 603 0 
L 603 3500 
z
M 603 4863 
L 1178 4863 
L 1178 4134 
L 603 4134 
L 603 4863 
z
" transform="scale(0.015625)"/>
      <path id="DejaVuSans-6e" d="M 3513 2113 
L 3513 0 
L 2938 0 
L 2938 2094 
Q 2938 2591 2744 2837 
Q 2550 3084 2163 3084 
Q 1697 3084 1428 2787 
Q 1159 2491 1159 1978 
L 1159 0 
L 581 0 
L 581 3500 
L 1159 3500 
L 1159 2956 
Q 1366 3272 1645 3428 
Q 1925 3584 2291 3584 
Q 2894 3584 3203 3211 
Q 3513 2838 3513 2113 
z
" transform="scale(0.015625)"/>
      <path id="DejaVuSans-67" d="M 2906 1791 
Q 2906 2416 2648 2759 
Q 2391 3103 1925 3103 
Q 1463 3103 1205 2759 
Q 947 2416 947 1791 
Q 947 1169 1205 825 
Q 1463 481 1925 481 
Q 2391 481 2648 825 
Q 2906 1169 2906 1791 
z
M 3481 434 
Q 3481 -459 3084 -895 
Q 2688 -1331 1869 -1331 
Q 1566 -1331 1297 -1286 
Q 1028 -1241 775 -1147 
L 775 -588 
Q 1028 -725 1275 -790 
Q 1522 -856 1778 -856 
Q 2344 -856 2625 -561 
Q 2906 -266 2906 331 
L 2906 616 
Q 2728 306 2450 153 
Q 2172 0 1784 0 
Q 1141 0 747 490 
Q 353 981 353 1791 
Q 353 2603 747 3093 
Q 1141 3584 1784 3584 
Q 2172 3584 2450 3431 
Q 2728 3278 2906 2969 
L 2906 3500 
L 3481 3500 
L 3481 434 
z
" transform="scale(0.015625)"/>
      <path id="DejaVuSans-20" transform="scale(0.015625)"/>
      <path id="DejaVuSans-50" d="M 1259 4147 
L 1259 2394 
L 2053 2394 
Q 2494 2394 2734 2622 
Q 2975 2850 2975 3272 
Q 2975 3691 2734 3919 
Q 2494 4147 2053 4147 
L 1259 4147 
z
M 628 4666 
L 2053 4666 
Q 2838 4666 3239 4311 
Q 3641 3956 3641 3272 
Q 3641 2581 3239 2228 
Q 2838 1875 2053 1875 
L 1259 1875 
L 1259 0 
L 628 0 
L 628 4666 
z
" transform="scale(0.015625)"/>
      <path id="DejaVuSans-72" d="M 2631 2963 
Q 2534 3019 2420 3045 
Q 2306 3072 2169 3072 
Q 1681 3072 1420 2755 
Q 1159 2438 1159 1844 
L 1159 0 
L 581 0 
L 581 3500 
L 1159 3500 
L 1159 2956 
Q 1341 3275 1631 3429 
Q 1922 3584 2338 3584 
Q 2397 3584 2469 3576 
Q 2541 3569 2628 3553 
L 2631 2963 
z
" transform="scale(0.015625)"/>
      <path id="DejaVuSans-63" d="M 3122 3366 
L 3122 2828 
Q 2878 2963 2633 3030 
Q 2388 3097 2138 3097 
Q 1578 3097 1268 2742 
Q 959 2388 959 1747 
Q 959 1106 1268 751 
Q 1578 397 2138 397 
Q 2388 397 2633 464 
Q 2878 531 3122 666 
L 3122 134 
Q 2881 22 2623 -34 
Q 2366 -91 2075 -91 
Q 1284 -91 818 406 
Q 353 903 353 1747 
Q 353 2603 823 3093 
Q 1294 3584 2113 3584 
Q 2378 3584 2631 3529 
Q 2884 3475 3122 3366 
z
" transform="scale(0.015625)"/>
      <path id="DejaVuSans-65" d="M 3597 1894 
L 3597 1613 
L 953 1613 
Q 991 1019 1311 708 
Q 1631 397 2203 397 
Q 2534 397 2845 478 
Q 3156 559 3463 722 
L 3463 178 
Q 3153 47 2828 -22 
Q 2503 -91 2169 -91 
Q 1331 -91 842 396 
Q 353 884 353 1716 
Q 353 2575 817 3079 
Q 1281 3584 2069 3584 
Q 2775 3584 3186 3129 
Q 3597 2675 3597 1894 
z
M 3022 2063 
Q 3016 2534 2758 2815 
Q 2500 3097 2075 3097 
Q 1594 3097 1305 2825 
Q 1016 2553 972 2059 
L 3022 2063 
z
" transform="scale(0.015625)"/>
     </defs>
     <use xlink:href="#DejaVuSans-43"/>
     <use xlink:href="#DejaVuSans-6c" x="69.824219"/>
     <use xlink:href="#DejaVuSans-6f" x="97.607422"/>
     <use xlink:href="#DejaVuSans-73" x="158.789062"/>
     <use xlink:href="#DejaVuSans-69" x="210.888672"/>
     <use xlink:href="#DejaVuSans-6e" x="238.671875"/>
     <use xlink:href="#DejaVuSans-67" x="302.050781"/>
     <use xlink:href="#DejaVuSans-20" x="365.527344"/>
     <use xlink:href="#DejaVuSans-50" x="397.314453"/>
     <use xlink:href="#DejaVuSans-72" x="455.867188"/>
     <use xlink:href="#DejaVuSans-69" x="496.980469"/>
     <use xlink:href="#DejaVuSans-63" x="524.763672"/>
     <use xlink:href="#DejaVuSans-65" x="579.744141"/>
    </g>
   </g>
   <g id="legend_1">
    <g id="patch_7">
     <path d="M 911.144856 85.688125 
L 975.876106 85.688125 
Q 977.876106 85.688125 977.876106 83.688125 
L 977.876106 55.331875 
Q 977.876106 53.331875 975.876106 53.331875 
L 911.144856 53.331875 
Q 909.144856 53.331875 909.144856 55.331875 
L 909.144856 83.688125 
Q 909.144856 85.688125 911.144856 85.688125 
z
" style="fill: #ffffff; opacity: 0.8; stroke: #cccccc; stroke-linejoin: miter"/>
    </g>
    <g id="line2d_41">
     <path d="M 913.144856 61.430312 
L 923.144856 61.430312 
L 933.144856 61.430312 
" style="fill: none; stroke: #1f77b4; stroke-width: 1.5; stroke-linecap: square"/>
    </g>
    <g id="text_9">
     <!-- CLOSE -->
     <g transform="translate(941.144856 64.930312)scale(0.1 -0.1)">
      <defs>
       <path id="DejaVuSans-4c" d="M 628 4666 
L 1259 4666 
L 1259 531 
L 3531 531 
L 3531 0 
L 628 0 
L 628 4666 
z
" transform="scale(0.015625)"/>
       <path id="DejaVuSans-4f" d="M 2522 4238 
Q 1834 4238 1429 3725 
Q 1025 3213 1025 2328 
Q 1025 1447 1429 934 
Q 1834 422 2522 422 
Q 3209 422 3611 934 
Q 4013 1447 4013 2328 
Q 4013 3213 3611 3725 
Q 3209 4238 2522 4238 
z
M 2522 4750 
Q 3503 4750 4090 4092 
Q 4678 3434 4678 2328 
Q 4678 1225 4090 567 
Q 3503 -91 2522 -91 
Q 1538 -91 948 565 
Q 359 1222 359 2328 
Q 359 3434 948 4092 
Q 1538 4750 2522 4750 
z
" transform="scale(0.015625)"/>
       <path id="DejaVuSans-53" d="M 3425 4513 
L 3425 3897 
Q 3066 4069 2747 4153 
Q 2428 4238 2131 4238 
Q 1616 4238 1336 4038 
Q 1056 3838 1056 3469 
Q 1056 3159 1242 3001 
Q 1428 2844 1947 2747 
L 2328 2669 
Q 3034 2534 3370 2195 
Q 3706 1856 3706 1288 
Q 3706 609 3251 259 
Q 2797 -91 1919 -91 
Q 1588 -91 1214 -16 
Q 841 59 441 206 
L 441 856 
Q 825 641 1194 531 
Q 1563 422 1919 422 
Q 2459 422 2753 634 
Q 3047 847 3047 1241 
Q 3047 1584 2836 1778 
Q 2625 1972 2144 2069 
L 1759 2144 
Q 1053 2284 737 2584 
Q 422 2884 422 3419 
Q 422 4038 858 4394 
Q 1294 4750 2059 4750 
Q 2388 4750 2728 4690 
Q 3069 4631 3425 4513 
z
" transform="scale(0.015625)"/>
       <path id="DejaVuSans-45" d="M 628 4666 
L 3578 4666 
L 3578 4134 
L 1259 4134 
L 1259 2753 
L 3481 2753 
L 3481 2222 
L 1259 2222 
L 1259 531 
L 3634 531 
L 3634 0 
L 628 0 
L 628 4666 
z
" transform="scale(0.015625)"/>
      </defs>
      <use xlink:href="#DejaVuSans-43"/>
      <use xlink:href="#DejaVuSans-4c" x="69.824219"/>
      <use xlink:href="#DejaVuSans-4f" x="121.912109"/>
      <use xlink:href="#DejaVuSans-53" x="200.623047"/>
      <use xlink:href="#DejaVuSans-45" x="264.099609"/>
     </g>
    </g>
    <g id="line2d_42">
     <path d="M 913.144856 76.108437 
L 923.144856 76.108437 
L 933.144856 76.108437 
" style="fill: none; stroke: #ff7f0e; stroke-width: 1.5; stroke-linecap: square"/>
    </g>
    <g id="text_10">
     <!-- SMA5 -->
     <g transform="translate(941.144856 79.608437)scale(0.1 -0.1)">
      <defs>
       <path id="DejaVuSans-4d" d="M 628 4666 
L 1569 4666 
L 2759 1491 
L 3956 4666 
L 4897 4666 
L 4897 0 
L 4281 0 
L 4281 4097 
L 3078 897 
L 2444 897 
L 1241 4097 
L 1241 0 
L 628 0 
L 628 4666 
z
" transform="scale(0.015625)"/>
       <path id="DejaVuSans-41" d="M 2188 4044 
L 1331 1722 
L 3047 1722 
L 2188 4044 
z
M 1831 4666 
L 2547 4666 
L 4325 0 
L 3669 0 
L 3244 1197 
L 1141 1197 
L 716 0 
L 50 0 
L 1831 4666 
z
" transform="scale(0.015625)"/>
       <path id="DejaVuSans-35" d="M 691 4666 
L 3169 4666 
L 3169 4134 
L 1269 4134 
L 1269 2991 
Q 1406 3038 1543 3061 
Q 1681 3084 1819 3084 
Q 2600 3084 3056 2656 
Q 3513 2228 3513 1497 
Q 3513 744 3044 326 
Q 2575 -91 1722 -91 
Q 1428 -91 1123 -41 
Q 819 9 494 109 
L 494 744 
Q 775 591 1075 516 
Q 1375 441 1709 441 
Q 2250 441 2565 725 
Q 2881 1009 2881 1497 
Q 2881 1984 2565 2268 
Q 2250 2553 1709 2553 
Q 1456 2553 1204 2497 
Q 953 2441 691 2322 
L 691 4666 
z
" transform="scale(0.015625)"/>
      </defs>
      <use xlink:href="#DejaVuSans-53"/>
      <use xlink:href="#DejaVuSans-4d" x="63.476562"/>
      <use xlink:href="#DejaVuSans-41" x="149.755859"/>
      <use xlink:href="#DejaVuSans-35" x="218.164062"/>
     </g>
    </g>
   </g>
  </g>
  <g id="axes_2">
   <g id="patch_8">
    <path d="M 38.904688 584.521875 
L 982.876106 584.521875 
L 982.876106 331.135938 
L 38.904688 331.135938 
z
" style="fill: #ffffff"/>
   </g>
   <g id="matplotlib.axis_3">
    <g id="xtick_13">
     <g id="line2d_43">
      <path d="M 76.432192 584.521875 
L 76.432192 331.135938 
" clip-path="url(#p0e8526a3d6)" style="fill: none; stroke-dasharray: 2.96,1.28; stroke-dashoffset: 0; stroke: #b0b0b0; stroke-width: 0.8"/>
     </g>
     <g id="line2d_44">
      <g>
       <use xlink:href="#m7a7d72113c" x="76.432192" y="584.521875" style="stroke: #000000; stroke-width: 0.8"/>
      </g>
     </g>
     <g id="text_11">
      <!-- 2022-01 -->
      <g transform="translate(55.540786 599.120312)scale(0.1 -0.1)">
       <defs>
        <path id="DejaVuSans-2d" d="M 313 2009 
L 1997 2009 
L 1997 1497 
L 313 1497 
L 313 2009 
z
" transform="scale(0.015625)"/>
       </defs>
       <use xlink:href="#DejaVuSans-32"/>
       <use xlink:href="#DejaVuSans-30" x="63.623047"/>
       <use xlink:href="#DejaVuSans-32" x="127.246094"/>
       <use xlink:href="#DejaVuSans-32" x="190.869141"/>
       <use xlink:href="#DejaVuSans-2d" x="254.492188"/>
       <use xlink:href="#DejaVuSans-30" x="290.576172"/>
       <use xlink:href="#DejaVuSans-31" x="354.199219"/>
      </g>
     </g>
    </g>
    <g id="xtick_14">
     <g id="line2d_45">
      <path d="M 159.826646 584.521875 
L 159.826646 331.135938 
" clip-path="url(#p0e8526a3d6)" style="fill: none; stroke-dasharray: 2.96,1.28; stroke-dashoffset: 0; stroke: #b0b0b0; stroke-width: 0.8"/>
     </g>
     <g id="line2d_46">
      <g>
       <use xlink:href="#m7a7d72113c" x="159.826646" y="584.521875" style="stroke: #000000; stroke-width: 0.8"/>
      </g>
     </g>
     <g id="text_12">
      <!-- 2022-02 -->
      <g transform="translate(138.93524 599.120312)scale(0.1 -0.1)">
       <use xlink:href="#DejaVuSans-32"/>
       <use xlink:href="#DejaVuSans-30" x="63.623047"/>
       <use xlink:href="#DejaVuSans-32" x="127.246094"/>
       <use xlink:href="#DejaVuSans-32" x="190.869141"/>
       <use xlink:href="#DejaVuSans-2d" x="254.492188"/>
       <use xlink:href="#DejaVuSans-30" x="290.576172"/>
       <use xlink:href="#DejaVuSans-32" x="354.199219"/>
      </g>
     </g>
    </g>
    <g id="xtick_15">
     <g id="line2d_47">
      <path d="M 235.150669 584.521875 
L 235.150669 331.135938 
" clip-path="url(#p0e8526a3d6)" style="fill: none; stroke-dasharray: 2.96,1.28; stroke-dashoffset: 0; stroke: #b0b0b0; stroke-width: 0.8"/>
     </g>
     <g id="line2d_48">
      <g>
       <use xlink:href="#m7a7d72113c" x="235.150669" y="584.521875" style="stroke: #000000; stroke-width: 0.8"/>
      </g>
     </g>
     <g id="text_13">
      <!-- 2022-03 -->
      <g transform="translate(214.259263 599.120312)scale(0.1 -0.1)">
       <use xlink:href="#DejaVuSans-32"/>
       <use xlink:href="#DejaVuSans-30" x="63.623047"/>
       <use xlink:href="#DejaVuSans-32" x="127.246094"/>
       <use xlink:href="#DejaVuSans-32" x="190.869141"/>
       <use xlink:href="#DejaVuSans-2d" x="254.492188"/>
       <use xlink:href="#DejaVuSans-30" x="290.576172"/>
       <use xlink:href="#DejaVuSans-33" x="354.199219"/>
      </g>
     </g>
    </g>
    <g id="xtick_16">
     <g id="line2d_49">
      <path d="M 318.545123 584.521875 
L 318.545123 331.135938 
" clip-path="url(#p0e8526a3d6)" style="fill: none; stroke-dasharray: 2.96,1.28; stroke-dashoffset: 0; stroke: #b0b0b0; stroke-width: 0.8"/>
     </g>
     <g id="line2d_50">
      <g>
       <use xlink:href="#m7a7d72113c" x="318.545123" y="584.521875" style="stroke: #000000; stroke-width: 0.8"/>
      </g>
     </g>
     <g id="text_14">
      <!-- 2022-04 -->
      <g transform="translate(297.653717 599.120312)scale(0.1 -0.1)">
       <defs>
        <path id="DejaVuSans-34" d="M 2419 4116 
L 825 1625 
L 2419 1625 
L 2419 4116 
z
M 2253 4666 
L 3047 4666 
L 3047 1625 
L 3713 1625 
L 3713 1100 
L 3047 1100 
L 3047 0 
L 2419 0 
L 2419 1100 
L 313 1100 
L 313 1709 
L 2253 4666 
z
" transform="scale(0.015625)"/>
       </defs>
       <use xlink:href="#DejaVuSans-32"/>
       <use xlink:href="#DejaVuSans-30" x="63.623047"/>
       <use xlink:href="#DejaVuSans-32" x="127.246094"/>
       <use xlink:href="#DejaVuSans-32" x="190.869141"/>
       <use xlink:href="#DejaVuSans-2d" x="254.492188"/>
       <use xlink:href="#DejaVuSans-30" x="290.576172"/>
       <use xlink:href="#DejaVuSans-34" x="354.199219"/>
      </g>
     </g>
    </g>
    <g id="xtick_17">
     <g id="line2d_51">
      <path d="M 399.249434 584.521875 
L 399.249434 331.135938 
" clip-path="url(#p0e8526a3d6)" style="fill: none; stroke-dasharray: 2.96,1.28; stroke-dashoffset: 0; stroke: #b0b0b0; stroke-width: 0.8"/>
     </g>
     <g id="line2d_52">
      <g>
       <use xlink:href="#m7a7d72113c" x="399.249434" y="584.521875" style="stroke: #000000; stroke-width: 0.8"/>
      </g>
     </g>
     <g id="text_15">
      <!-- 2022-05 -->
      <g transform="translate(378.358028 599.120312)scale(0.1 -0.1)">
       <use xlink:href="#DejaVuSans-32"/>
       <use xlink:href="#DejaVuSans-30" x="63.623047"/>
       <use xlink:href="#DejaVuSans-32" x="127.246094"/>
       <use xlink:href="#DejaVuSans-32" x="190.869141"/>
       <use xlink:href="#DejaVuSans-2d" x="254.492188"/>
       <use xlink:href="#DejaVuSans-30" x="290.576172"/>
       <use xlink:href="#DejaVuSans-35" x="354.199219"/>
      </g>
     </g>
    </g>
    <g id="xtick_18">
     <g id="line2d_53">
      <path d="M 482.643888 584.521875 
L 482.643888 331.135938 
" clip-path="url(#p0e8526a3d6)" style="fill: none; stroke-dasharray: 2.96,1.28; stroke-dashoffset: 0; stroke: #b0b0b0; stroke-width: 0.8"/>
     </g>
     <g id="line2d_54">
      <g>
       <use xlink:href="#m7a7d72113c" x="482.643888" y="584.521875" style="stroke: #000000; stroke-width: 0.8"/>
      </g>
     </g>
     <g id="text_16">
      <!-- 2022-06 -->
      <g transform="translate(461.752482 599.120312)scale(0.1 -0.1)">
       <defs>
        <path id="DejaVuSans-36" d="M 2113 2584 
Q 1688 2584 1439 2293 
Q 1191 2003 1191 1497 
Q 1191 994 1439 701 
Q 1688 409 2113 409 
Q 2538 409 2786 701 
Q 3034 994 3034 1497 
Q 3034 2003 2786 2293 
Q 2538 2584 2113 2584 
z
M 3366 4563 
L 3366 3988 
Q 3128 4100 2886 4159 
Q 2644 4219 2406 4219 
Q 1781 4219 1451 3797 
Q 1122 3375 1075 2522 
Q 1259 2794 1537 2939 
Q 1816 3084 2150 3084 
Q 2853 3084 3261 2657 
Q 3669 2231 3669 1497 
Q 3669 778 3244 343 
Q 2819 -91 2113 -91 
Q 1303 -91 875 529 
Q 447 1150 447 2328 
Q 447 3434 972 4092 
Q 1497 4750 2381 4750 
Q 2619 4750 2861 4703 
Q 3103 4656 3366 4563 
z
" transform="scale(0.015625)"/>
       </defs>
       <use xlink:href="#DejaVuSans-32"/>
       <use xlink:href="#DejaVuSans-30" x="63.623047"/>
       <use xlink:href="#DejaVuSans-32" x="127.246094"/>
       <use xlink:href="#DejaVuSans-32" x="190.869141"/>
       <use xlink:href="#DejaVuSans-2d" x="254.492188"/>
       <use xlink:href="#DejaVuSans-30" x="290.576172"/>
       <use xlink:href="#DejaVuSans-36" x="354.199219"/>
      </g>
     </g>
    </g>
    <g id="xtick_19">
     <g id="line2d_55">
      <path d="M 563.348198 584.521875 
L 563.348198 331.135938 
" clip-path="url(#p0e8526a3d6)" style="fill: none; stroke-dasharray: 2.96,1.28; stroke-dashoffset: 0; stroke: #b0b0b0; stroke-width: 0.8"/>
     </g>
     <g id="line2d_56">
      <g>
       <use xlink:href="#m7a7d72113c" x="563.348198" y="584.521875" style="stroke: #000000; stroke-width: 0.8"/>
      </g>
     </g>
     <g id="text_17">
      <!-- 2022-07 -->
      <g transform="translate(542.456792 599.120312)scale(0.1 -0.1)">
       <use xlink:href="#DejaVuSans-32"/>
       <use xlink:href="#DejaVuSans-30" x="63.623047"/>
       <use xlink:href="#DejaVuSans-32" x="127.246094"/>
       <use xlink:href="#DejaVuSans-32" x="190.869141"/>
       <use xlink:href="#DejaVuSans-2d" x="254.492188"/>
       <use xlink:href="#DejaVuSans-30" x="290.576172"/>
       <use xlink:href="#DejaVuSans-37" x="354.199219"/>
      </g>
     </g>
    </g>
    <g id="xtick_20">
     <g id="line2d_57">
      <path d="M 646.742653 584.521875 
L 646.742653 331.135938 
" clip-path="url(#p0e8526a3d6)" style="fill: none; stroke-dasharray: 2.96,1.28; stroke-dashoffset: 0; stroke: #b0b0b0; stroke-width: 0.8"/>
     </g>
     <g id="line2d_58">
      <g>
       <use xlink:href="#m7a7d72113c" x="646.742653" y="584.521875" style="stroke: #000000; stroke-width: 0.8"/>
      </g>
     </g>
     <g id="text_18">
      <!-- 2022-08 -->
      <g transform="translate(625.851246 599.120312)scale(0.1 -0.1)">
       <use xlink:href="#DejaVuSans-32"/>
       <use xlink:href="#DejaVuSans-30" x="63.623047"/>
       <use xlink:href="#DejaVuSans-32" x="127.246094"/>
       <use xlink:href="#DejaVuSans-32" x="190.869141"/>
       <use xlink:href="#DejaVuSans-2d" x="254.492188"/>
       <use xlink:href="#DejaVuSans-30" x="290.576172"/>
       <use xlink:href="#DejaVuSans-38" x="354.199219"/>
      </g>
     </g>
    </g>
    <g id="xtick_21">
     <g id="line2d_59">
      <path d="M 730.137107 584.521875 
L 730.137107 331.135938 
" clip-path="url(#p0e8526a3d6)" style="fill: none; stroke-dasharray: 2.96,1.28; stroke-dashoffset: 0; stroke: #b0b0b0; stroke-width: 0.8"/>
     </g>
     <g id="line2d_60">
      <g>
       <use xlink:href="#m7a7d72113c" x="730.137107" y="584.521875" style="stroke: #000000; stroke-width: 0.8"/>
      </g>
     </g>
     <g id="text_19">
      <!-- 2022-09 -->
      <g transform="translate(709.245701 599.120312)scale(0.1 -0.1)">
       <use xlink:href="#DejaVuSans-32"/>
       <use xlink:href="#DejaVuSans-30" x="63.623047"/>
       <use xlink:href="#DejaVuSans-32" x="127.246094"/>
       <use xlink:href="#DejaVuSans-32" x="190.869141"/>
       <use xlink:href="#DejaVuSans-2d" x="254.492188"/>
       <use xlink:href="#DejaVuSans-30" x="290.576172"/>
       <use xlink:href="#DejaVuSans-39" x="354.199219"/>
      </g>
     </g>
    </g>
    <g id="xtick_22">
     <g id="line2d_61">
      <path d="M 810.841417 584.521875 
L 810.841417 331.135938 
" clip-path="url(#p0e8526a3d6)" style="fill: none; stroke-dasharray: 2.96,1.28; stroke-dashoffset: 0; stroke: #b0b0b0; stroke-width: 0.8"/>
     </g>
     <g id="line2d_62">
      <g>
       <use xlink:href="#m7a7d72113c" x="810.841417" y="584.521875" style="stroke: #000000; stroke-width: 0.8"/>
      </g>
     </g>
     <g id="text_20">
      <!-- 2022-10 -->
      <g transform="translate(789.950011 599.120312)scale(0.1 -0.1)">
       <use xlink:href="#DejaVuSans-32"/>
       <use xlink:href="#DejaVuSans-30" x="63.623047"/>
       <use xlink:href="#DejaVuSans-32" x="127.246094"/>
       <use xlink:href="#DejaVuSans-32" x="190.869141"/>
       <use xlink:href="#DejaVuSans-2d" x="254.492188"/>
       <use xlink:href="#DejaVuSans-31" x="290.576172"/>
       <use xlink:href="#DejaVuSans-30" x="354.199219"/>
      </g>
     </g>
    </g>
    <g id="xtick_23">
     <g id="line2d_63">
      <path d="M 894.235872 584.521875 
L 894.235872 331.135938 
" clip-path="url(#p0e8526a3d6)" style="fill: none; stroke-dasharray: 2.96,1.28; stroke-dashoffset: 0; stroke: #b0b0b0; stroke-width: 0.8"/>
     </g>
     <g id="line2d_64">
      <g>
       <use xlink:href="#m7a7d72113c" x="894.235872" y="584.521875" style="stroke: #000000; stroke-width: 0.8"/>
      </g>
     </g>
     <g id="text_21">
      <!-- 2022-11 -->
      <g transform="translate(873.344465 599.120312)scale(0.1 -0.1)">
       <use xlink:href="#DejaVuSans-32"/>
       <use xlink:href="#DejaVuSans-30" x="63.623047"/>
       <use xlink:href="#DejaVuSans-32" x="127.246094"/>
       <use xlink:href="#DejaVuSans-32" x="190.869141"/>
       <use xlink:href="#DejaVuSans-2d" x="254.492188"/>
       <use xlink:href="#DejaVuSans-31" x="290.576172"/>
       <use xlink:href="#DejaVuSans-31" x="354.199219"/>
      </g>
     </g>
    </g>
    <g id="xtick_24">
     <g id="line2d_65">
      <path d="M 974.940182 584.521875 
L 974.940182 331.135938 
" clip-path="url(#p0e8526a3d6)" style="fill: none; stroke-dasharray: 2.96,1.28; stroke-dashoffset: 0; stroke: #b0b0b0; stroke-width: 0.8"/>
     </g>
     <g id="line2d_66">
      <g>
       <use xlink:href="#m7a7d72113c" x="974.940182" y="584.521875" style="stroke: #000000; stroke-width: 0.8"/>
      </g>
     </g>
     <g id="text_22">
      <!-- 2022-12 -->
      <g transform="translate(954.048776 599.120312)scale(0.1 -0.1)">
       <use xlink:href="#DejaVuSans-32"/>
       <use xlink:href="#DejaVuSans-30" x="63.623047"/>
       <use xlink:href="#DejaVuSans-32" x="127.246094"/>
       <use xlink:href="#DejaVuSans-32" x="190.869141"/>
       <use xlink:href="#DejaVuSans-2d" x="254.492188"/>
       <use xlink:href="#DejaVuSans-31" x="290.576172"/>
       <use xlink:href="#DejaVuSans-32" x="354.199219"/>
      </g>
     </g>
    </g>
   </g>
   <g id="matplotlib.axis_4">
    <g id="ytick_8">
     <g id="line2d_67">
      <path d="M 38.904688 577.500231 
L 982.876106 577.500231 
" clip-path="url(#p0e8526a3d6)" style="fill: none; stroke-dasharray: 2.96,1.28; stroke-dashoffset: 0; stroke: #b0b0b0; stroke-width: 0.8"/>
     </g>
     <g id="line2d_68">
      <g>
       <use xlink:href="#me4bd872369" x="38.904688" y="577.500231" style="stroke: #000000; stroke-width: 0.8"/>
      </g>
     </g>
     <g id="text_23">
      <!-- −12 -->
      <g transform="translate(10.8 581.29945)scale(0.1 -0.1)">
       <defs>
        <path id="DejaVuSans-2212" d="M 678 2272 
L 4684 2272 
L 4684 1741 
L 678 1741 
L 678 2272 
z
" transform="scale(0.015625)"/>
       </defs>
       <use xlink:href="#DejaVuSans-2212"/>
       <use xlink:href="#DejaVuSans-31" x="83.789062"/>
       <use xlink:href="#DejaVuSans-32" x="147.412109"/>
      </g>
     </g>
    </g>
    <g id="ytick_9">
     <g id="line2d_69">
      <path d="M 38.904688 547.416518 
L 982.876106 547.416518 
" clip-path="url(#p0e8526a3d6)" style="fill: none; stroke-dasharray: 2.96,1.28; stroke-dashoffset: 0; stroke: #b0b0b0; stroke-width: 0.8"/>
     </g>
     <g id="line2d_70">
      <g>
       <use xlink:href="#me4bd872369" x="38.904688" y="547.416518" style="stroke: #000000; stroke-width: 0.8"/>
      </g>
     </g>
     <g id="text_24">
      <!-- −10 -->
      <g transform="translate(10.8 551.215737)scale(0.1 -0.1)">
       <use xlink:href="#DejaVuSans-2212"/>
       <use xlink:href="#DejaVuSans-31" x="83.789062"/>
       <use xlink:href="#DejaVuSans-30" x="147.412109"/>
      </g>
     </g>
    </g>
    <g id="ytick_10">
     <g id="line2d_71">
      <path d="M 38.904688 517.332805 
L 982.876106 517.332805 
" clip-path="url(#p0e8526a3d6)" style="fill: none; stroke-dasharray: 2.96,1.28; stroke-dashoffset: 0; stroke: #b0b0b0; stroke-width: 0.8"/>
     </g>
     <g id="line2d_72">
      <g>
       <use xlink:href="#me4bd872369" x="38.904688" y="517.332805" style="stroke: #000000; stroke-width: 0.8"/>
      </g>
     </g>
     <g id="text_25">
      <!-- −8 -->
      <g transform="translate(17.1625 521.132024)scale(0.1 -0.1)">
       <use xlink:href="#DejaVuSans-2212"/>
       <use xlink:href="#DejaVuSans-38" x="83.789062"/>
      </g>
     </g>
    </g>
    <g id="ytick_11">
     <g id="line2d_73">
      <path d="M 38.904688 487.249091 
L 982.876106 487.249091 
" clip-path="url(#p0e8526a3d6)" style="fill: none; stroke-dasharray: 2.96,1.28; stroke-dashoffset: 0; stroke: #b0b0b0; stroke-width: 0.8"/>
     </g>
     <g id="line2d_74">
      <g>
       <use xlink:href="#me4bd872369" x="38.904688" y="487.249091" style="stroke: #000000; stroke-width: 0.8"/>
      </g>
     </g>
     <g id="text_26">
      <!-- −6 -->
      <g transform="translate(17.1625 491.04831)scale(0.1 -0.1)">
       <use xlink:href="#DejaVuSans-2212"/>
       <use xlink:href="#DejaVuSans-36" x="83.789062"/>
      </g>
     </g>
    </g>
    <g id="ytick_12">
     <g id="line2d_75">
      <path d="M 38.904688 457.165378 
L 982.876106 457.165378 
" clip-path="url(#p0e8526a3d6)" style="fill: none; stroke-dasharray: 2.96,1.28; stroke-dashoffset: 0; stroke: #b0b0b0; stroke-width: 0.8"/>
     </g>
     <g id="line2d_76">
      <g>
       <use xlink:href="#me4bd872369" x="38.904688" y="457.165378" style="stroke: #000000; stroke-width: 0.8"/>
      </g>
     </g>
     <g id="text_27">
      <!-- −4 -->
      <g transform="translate(17.1625 460.964597)scale(0.1 -0.1)">
       <use xlink:href="#DejaVuSans-2212"/>
       <use xlink:href="#DejaVuSans-34" x="83.789062"/>
      </g>
     </g>
    </g>
    <g id="ytick_13">
     <g id="line2d_77">
      <path d="M 38.904688 427.081665 
L 982.876106 427.081665 
" clip-path="url(#p0e8526a3d6)" style="fill: none; stroke-dasharray: 2.96,1.28; stroke-dashoffset: 0; stroke: #b0b0b0; stroke-width: 0.8"/>
     </g>
     <g id="line2d_78">
      <g>
       <use xlink:href="#me4bd872369" x="38.904688" y="427.081665" style="stroke: #000000; stroke-width: 0.8"/>
      </g>
     </g>
     <g id="text_28">
      <!-- −2 -->
      <g transform="translate(17.1625 430.880883)scale(0.1 -0.1)">
       <use xlink:href="#DejaVuSans-2212"/>
       <use xlink:href="#DejaVuSans-32" x="83.789062"/>
      </g>
     </g>
    </g>
    <g id="ytick_14">
     <g id="line2d_79">
      <path d="M 38.904688 396.997951 
L 982.876106 396.997951 
" clip-path="url(#p0e8526a3d6)" style="fill: none; stroke-dasharray: 2.96,1.28; stroke-dashoffset: 0; stroke: #b0b0b0; stroke-width: 0.8"/>
     </g>
     <g id="line2d_80">
      <g>
       <use xlink:href="#me4bd872369" x="38.904688" y="396.997951" style="stroke: #000000; stroke-width: 0.8"/>
      </g>
     </g>
     <g id="text_29">
      <!-- 0 -->
      <g transform="translate(25.542188 400.79717)scale(0.1 -0.1)">
       <use xlink:href="#DejaVuSans-30"/>
      </g>
     </g>
    </g>
    <g id="ytick_15">
     <g id="line2d_81">
      <path d="M 38.904688 366.914238 
L 982.876106 366.914238 
" clip-path="url(#p0e8526a3d6)" style="fill: none; stroke-dasharray: 2.96,1.28; stroke-dashoffset: 0; stroke: #b0b0b0; stroke-width: 0.8"/>
     </g>
     <g id="line2d_82">
      <g>
       <use xlink:href="#me4bd872369" x="38.904688" y="366.914238" style="stroke: #000000; stroke-width: 0.8"/>
      </g>
     </g>
     <g id="text_30">
      <!-- 2 -->
      <g transform="translate(25.542188 370.713457)scale(0.1 -0.1)">
       <use xlink:href="#DejaVuSans-32"/>
      </g>
     </g>
    </g>
    <g id="ytick_16">
     <g id="line2d_83">
      <path d="M 38.904688 336.830525 
L 982.876106 336.830525 
" clip-path="url(#p0e8526a3d6)" style="fill: none; stroke-dasharray: 2.96,1.28; stroke-dashoffset: 0; stroke: #b0b0b0; stroke-width: 0.8"/>
     </g>
     <g id="line2d_84">
      <g>
       <use xlink:href="#me4bd872369" x="38.904688" y="336.830525" style="stroke: #000000; stroke-width: 0.8"/>
      </g>
     </g>
     <g id="text_31">
      <!-- 4 -->
      <g transform="translate(25.542188 340.629743)scale(0.1 -0.1)">
       <use xlink:href="#DejaVuSans-34"/>
      </g>
     </g>
    </g>
   </g>
   <g id="line2d_85">
    <path d="M 81.812479 396.997951 
L 84.502623 396.626726 
L 87.192767 395.032306 
L 89.88291 394.355305 
L 92.573054 393.29488 
L 100.643485 391.955188 
L 103.333629 391.932454 
L 106.023772 391.605193 
L 108.713916 389.968061 
L 111.40406 387.243189 
L 119.474491 385.050343 
L 122.164634 383.439949 
L 124.854778 381.448351 
L 127.544922 379.810862 
L 130.235066 382.187151 
L 138.305497 385.408003 
L 140.99564 386.984238 
L 146.375928 387.128825 
L 149.066071 386.009099 
L 157.136502 384.200134 
L 159.826646 386.389163 
L 162.51679 385.48617 
L 165.206933 384.717948 
L 167.897077 384.783271 
L 175.967508 386.284558 
L 178.657652 389.215877 
L 181.347796 391.910581 
L 184.037939 395.254138 
L 186.728083 395.606107 
L 194.798514 401.905728 
L 197.488658 404.348793 
L 200.178801 403.127734 
L 202.868945 402.21391 
L 205.559089 401.71927 
L 213.62952 403.47333 
L 216.319663 407.146254 
L 219.009807 409.846289 
L 221.699951 419.967816 
L 224.390094 424.934303 
L 232.460525 425.45593 
L 237.840813 428.70791 
L 240.530957 428.11527 
L 243.2211 428.917845 
L 251.291531 430.342993 
L 253.981675 425.484432 
L 256.671819 421.470469 
L 259.361962 413.366738 
L 262.052106 403.609259 
L 270.122537 399.297183 
L 272.812681 398.010755 
L 275.502824 393.516666 
L 278.192968 390.744136 
L 288.953543 392.60049 
L 291.643687 390.971281 
L 294.33383 388.520988 
L 297.023974 388.001842 
L 299.714118 389.83278 
L 307.784549 389.983704 
L 310.474692 392.142242 
L 313.164836 395.196399 
L 315.85498 395.527508 
L 318.545123 392.053664 
L 326.615554 389.150445 
L 329.305698 386.548445 
L 331.995842 380.574974 
L 334.685985 379.065058 
L 337.376129 374.02882 
L 345.44656 368.076739 
L 348.136704 367.087898 
L 350.826848 364.443883 
L 364.277566 362.504653 
L 366.96771 358.748501 
L 372.347997 346.199831 
L 375.038141 342.65348 
L 383.108572 348.392937 
L 385.798715 351.887613 
L 388.488859 357.174972 
L 391.179003 358.658193 
L 393.869146 364.987645 
L 401.939578 369.532868 
L 407.319865 374.365256 
L 410.010009 378.588931 
L 412.700152 381.448853 
L 420.770583 386.562933 
L 423.460727 393.085431 
L 426.150871 400.097908 
L 431.531158 407.190017 
L 439.601589 408.944025 
L 442.291733 407.424589 
L 444.981876 413.728861 
L 447.67202 419.436612 
L 450.362164 424.012453 
L 458.432595 426.390214 
L 461.122739 426.718902 
L 463.812882 431.314889 
L 466.503026 435.244201 
L 469.19317 437.946785 
L 477.263601 437.25864 
L 479.953744 436.380603 
L 482.643888 432.604984 
L 485.334032 429.900827 
L 488.024175 426.627507 
L 496.094606 424.624956 
L 498.78475 421.96142 
L 501.474894 419.83004 
L 504.165037 417.540062 
L 506.855181 416.771469 
L 514.925612 420.322802 
L 517.615756 426.858365 
L 520.3059 432.898216 
L 522.996043 438.480874 
L 525.686187 447.120995 
L 533.756618 454.698819 
L 536.446762 456.738892 
L 539.136905 457.896374 
L 541.827049 456.009581 
L 544.517193 452.419056 
L 552.587624 447.714579 
L 555.277767 444.950538 
L 557.967911 440.438766 
L 560.658055 479.062942 
L 563.348198 508.028848 
L 571.41863 529.697562 
L 574.108773 546.06209 
L 576.798917 558.384399 
L 579.489061 566.07946 
L 582.179204 570.181482 
L 590.249635 571.601681 
L 592.939779 573.004332 
L 595.629923 572.397462 
L 598.320066 569.503171 
L 601.01021 565.749636 
L 609.080641 559.92582 
L 611.770785 552.486362 
L 619.841216 528.726307 
L 627.911647 521.381576 
L 630.601791 514.749632 
L 633.291934 507.671807 
L 635.982078 500.925255 
L 638.672222 493.375224 
L 646.742653 488.581462 
L 649.432796 482.762058 
L 652.12294 478.365237 
L 654.813084 473.75319 
L 657.503227 466.985231 
L 665.573658 460.585146 
L 670.953946 455.866117 
L 673.64409 453.357871 
L 676.334233 450.030496 
L 687.094808 444.899358 
L 689.784952 440.093368 
L 692.475095 436.676815 
L 695.165239 434.147804 
L 703.23567 432.762952 
L 705.925814 431.570354 
L 708.615957 430.841952 
L 711.306101 428.805657 
L 713.996245 426.307825 
L 722.066676 425.036747 
L 724.756819 423.181396 
L 730.137107 421.849356 
L 732.827251 420.342542 
L 740.897682 419.315924 
L 743.587825 418.557238 
L 746.277969 416.877193 
L 748.968113 413.35451 
L 751.658256 411.008133 
L 759.728687 408.890151 
L 762.418831 407.575208 
L 765.108975 406.964406 
L 767.799118 406.672259 
L 770.489262 408.252991 
L 778.559693 409.723169 
L 781.249837 411.389956 
L 783.939981 413.31178 
L 786.630124 415.411517 
L 789.320268 417.266741 
L 797.390699 420.169167 
L 800.080843 421.339145 
L 802.770986 423.178321 
L 805.46113 424.140931 
L 808.151274 423.325875 
L 816.221705 422.687246 
L 818.911848 421.174187 
L 824.292136 419.173266 
L 826.982279 417.712859 
L 835.05271 416.212606 
L 837.742854 416.738095 
L 840.432998 415.364949 
L 843.123142 414.559779 
L 845.813285 414.388769 
L 853.883716 414.356581 
L 856.57386 413.353595 
L 859.264004 412.021415 
L 861.954147 409.786545 
L 864.644291 408.309811 
L 872.714722 406.36396 
L 875.404866 404.912686 
L 880.785153 403.205483 
L 883.475297 401.617202 
L 891.545728 400.560165 
L 896.926015 398.328481 
L 899.616159 397.360534 
L 902.306303 396.838023 
L 910.376734 394.510599 
L 915.757021 393.37542 
L 921.137308 391.627491 
L 929.207739 391.390682 
L 931.897883 391.089061 
L 934.588027 391.280062 
L 937.27817 391.734851 
L 939.968314 391.971158 
L 939.968314 391.971158 
" clip-path="url(#p0e8526a3d6)" style="fill: none; stroke: #1f77b4; stroke-width: 1.5; stroke-linecap: square"/>
   </g>
   <g id="line2d_86">
    <path d="M 81.812479 396.997951 
L 84.502623 396.791715 
L 87.192767 396.070646 
L 92.573054 394.836698 
L 100.643485 394.055649 
L 108.713916 392.344642 
L 111.40406 391.20162 
L 119.474491 389.855756 
L 124.854778 386.990211 
L 127.544922 385.488286 
L 130.235066 384.803982 
L 138.305497 384.928285 
L 140.99564 385.348948 
L 146.375928 385.711454 
L 149.066071 385.771853 
L 157.136502 385.453843 
L 159.826646 385.642649 
L 162.51679 385.61112 
L 167.897077 385.301179 
L 175.967508 385.498601 
L 178.657652 386.24431 
L 181.347796 387.380311 
L 184.037939 388.958128 
L 186.728083 390.289785 
L 194.798514 392.615853 
L 197.488658 394.964767 
L 200.178801 396.598655 
L 202.868945 397.722418 
L 205.559089 398.522194 
L 213.62952 399.512823 
L 216.319663 401.040005 
L 219.009807 402.801719 
L 221.699951 406.235652 
L 224.390094 409.976003 
L 232.460525 413.0724 
L 237.840813 416.199835 
L 240.530957 418.583124 
L 243.2211 420.650209 
L 253.981675 423.168009 
L 256.671819 422.828489 
L 259.361962 420.936086 
L 262.052106 417.470643 
L 270.122537 413.835886 
L 272.812681 410.670815 
L 278.192968 403.940754 
L 288.953543 401.672684 
L 294.33383 397.3301 
L 297.023974 395.464442 
L 299.714118 394.338106 
L 310.474692 393.202227 
L 315.85498 393.986352 
L 318.545123 393.599814 
L 326.615554 392.709939 
L 329.305698 391.47764 
L 334.685985 387.250695 
L 337.376129 384.606319 
L 345.44656 381.300402 
L 350.826848 375.655097 
L 364.277566 373.025008 
L 366.96771 370.169706 
L 369.657853 366.642706 
L 375.038141 358.574 
L 383.108572 356.537788 
L 385.798715 355.607753 
L 388.488859 355.921197 
L 391.179003 356.468596 
L 393.869146 358.172406 
L 401.939578 360.444498 
L 407.319865 363.22865 
L 412.700152 369.330336 
L 420.770583 372.776855 
L 423.460727 376.83857 
L 426.150871 381.490438 
L 431.531158 390.164498 
L 439.601589 393.920404 
L 442.291733 396.621241 
L 444.981876 400.042765 
L 450.362164 407.939718 
L 458.432595 411.629817 
L 461.122739 414.647634 
L 469.19317 424.736323 
L 477.263601 427.240787 
L 479.953744 429.06875 
L 482.643888 429.775997 
L 485.334032 429.800963 
L 488.024175 429.166272 
L 496.094606 428.258008 
L 498.78475 426.998691 
L 501.474894 425.564961 
L 504.165037 423.959981 
L 506.855181 422.522278 
L 514.925612 422.082383 
L 517.615756 423.03758 
L 520.3059 425.009707 
L 522.996043 427.70394 
L 525.686187 431.587351 
L 533.756618 436.209645 
L 536.446762 440.315494 
L 539.136905 443.83167 
L 541.827049 446.267252 
L 544.517193 447.497613 
L 552.587624 447.541006 
L 555.277767 447.022913 
L 557.967911 445.706083 
L 560.658055 452.377455 
L 563.348198 463.507734 
L 571.41863 476.745699 
L 576.798917 504.164062 
L 579.489061 516.547141 
L 582.179204 527.27401 
L 590.249635 536.139544 
L 592.939779 543.512502 
L 595.629923 549.289494 
L 598.320066 553.332229 
L 601.01021 555.81571 
L 609.080641 556.637732 
L 611.770785 555.807458 
L 614.460928 553.539129 
L 617.151072 550.083578 
L 619.841216 545.812124 
L 627.911647 540.926014 
L 630.601791 535.690738 
L 635.982078 524.254612 
L 638.672222 518.078735 
L 646.742653 512.17928 
L 649.432796 506.295836 
L 657.503227 489.651775 
L 665.573658 483.838449 
L 670.953946 478.243983 
L 673.64409 473.26676 
L 676.334233 468.619508 
L 687.094808 463.875478 
L 689.784952 459.119056 
L 692.475095 454.630608 
L 695.165239 450.534047 
L 703.23567 446.979828 
L 705.925814 443.897933 
L 711.306101 438.790521 
L 713.996245 436.293982 
L 722.066676 434.042535 
L 724.756819 431.870307 
L 730.137107 429.866117 
L 732.827251 427.961402 
L 740.897682 426.232306 
L 746.277969 423.133273 
L 751.658256 419.143643 
L 759.728687 417.092945 
L 762.418831 415.189397 
L 765.108975 413.544399 
L 767.799118 412.169971 
L 770.489262 411.386575 
L 778.559693 411.053894 
L 781.249837 411.121106 
L 783.939981 411.559241 
L 786.630124 412.329696 
L 789.320268 413.317105 
L 797.390699 414.687517 
L 805.46113 418.788137 
L 808.151274 419.695685 
L 818.911848 420.470035 
L 824.292136 420.210681 
L 826.982279 419.711117 
L 835.05271 419.011415 
L 837.742854 418.556751 
L 845.813285 416.675088 
L 853.883716 416.211387 
L 856.57386 415.639829 
L 859.264004 414.916146 
L 864.644291 412.774143 
L 872.714722 411.492106 
L 875.404866 410.176222 
L 880.785153 408.782074 
L 883.475297 407.3491 
L 891.545728 405.991313 
L 896.926015 403.402765 
L 899.616159 402.194319 
L 902.306303 401.123059 
L 910.376734 399.800567 
L 915.757021 398.515538 
L 921.137308 396.170214 
L 929.207739 395.214308 
L 931.897883 394.389258 
L 934.588027 393.767419 
L 937.27817 393.360905 
L 939.968314 393.082956 
L 939.968314 393.082956 
" clip-path="url(#p0e8526a3d6)" style="fill: none; stroke: #ff7f0e; stroke-width: 1.5; stroke-linecap: square"/>
   </g>
   <g id="patch_9">
    <path d="M 38.904688 584.521875 
L 38.904688 331.135938 
" style="fill: none; stroke: #000000; stroke-width: 0.8; stroke-linejoin: miter; stroke-linecap: square"/>
   </g>
   <g id="patch_10">
    <path d="M 982.876106 584.521875 
L 982.876106 331.135938 
" style="fill: none; stroke: #000000; stroke-width: 0.8; stroke-linejoin: miter; stroke-linecap: square"/>
   </g>
   <g id="patch_11">
    <path d="M 38.904687 584.521875 
L 982.876106 584.521875 
" style="fill: none; stroke: #000000; stroke-width: 0.8; stroke-linejoin: miter; stroke-linecap: square"/>
   </g>
   <g id="patch_12">
    <path d="M 38.904687 331.135938 
L 982.876106 331.135938 
" style="fill: none; stroke: #000000; stroke-width: 0.8; stroke-linejoin: miter; stroke-linecap: square"/>
   </g>
   <g id="text_32">
    <!-- MACD -->
    <g transform="translate(492.904459 325.135938)scale(0.12 -0.12)">
     <defs>
      <path id="DejaVuSans-44" d="M 1259 4147 
L 1259 519 
L 2022 519 
Q 2988 519 3436 956 
Q 3884 1394 3884 2338 
Q 3884 3275 3436 3711 
Q 2988 4147 2022 4147 
L 1259 4147 
z
M 628 4666 
L 1925 4666 
Q 3281 4666 3915 4102 
Q 4550 3538 4550 2338 
Q 4550 1131 3912 565 
Q 3275 0 1925 0 
L 628 0 
L 628 4666 
z
" transform="scale(0.015625)"/>
     </defs>
     <use xlink:href="#DejaVuSans-4d"/>
     <use xlink:href="#DejaVuSans-41" x="86.279297"/>
     <use xlink:href="#DejaVuSans-43" x="152.9375"/>
     <use xlink:href="#DejaVuSans-44" x="222.761719"/>
    </g>
   </g>
   <g id="legend_2">
    <g id="patch_13">
     <path d="M 913.899543 368.492188 
L 975.876106 368.492188 
Q 977.876106 368.492188 977.876106 366.492188 
L 977.876106 338.135938 
Q 977.876106 336.135938 975.876106 336.135938 
L 913.899543 336.135938 
Q 911.899543 336.135938 911.899543 338.135938 
L 911.899543 366.492188 
Q 911.899543 368.492188 913.899543 368.492188 
z
" style="fill: #ffffff; opacity: 0.8; stroke: #cccccc; stroke-linejoin: miter"/>
    </g>
    <g id="line2d_87">
     <path d="M 915.899543 344.234375 
L 925.899543 344.234375 
L 935.899543 344.234375 
" style="fill: none; stroke: #1f77b4; stroke-width: 1.5; stroke-linecap: square"/>
    </g>
    <g id="text_33">
     <!-- MACD -->
     <g transform="translate(943.899543 347.734375)scale(0.1 -0.1)">
      <use xlink:href="#DejaVuSans-4d"/>
      <use xlink:href="#DejaVuSans-41" x="86.279297"/>
      <use xlink:href="#DejaVuSans-43" x="152.9375"/>
      <use xlink:href="#DejaVuSans-44" x="222.761719"/>
     </g>
    </g>
    <g id="line2d_88">
     <path d="M 915.899543 358.9125 
L 925.899543 358.9125 
L 935.899543 358.9125 
" style="fill: none; stroke: #ff7f0e; stroke-width: 1.5; stroke-linecap: square"/>
    </g>
    <g id="text_34">
     <!-- SIG -->
     <g transform="translate(943.899543 362.4125)scale(0.1 -0.1)">
      <defs>
       <path id="DejaVuSans-49" d="M 628 4666 
L 1259 4666 
L 1259 0 
L 628 0 
L 628 4666 
z
" transform="scale(0.015625)"/>
       <path id="DejaVuSans-47" d="M 3809 666 
L 3809 1919 
L 2778 1919 
L 2778 2438 
L 4434 2438 
L 4434 434 
Q 4069 175 3628 42 
Q 3188 -91 2688 -91 
Q 1594 -91 976 548 
Q 359 1188 359 2328 
Q 359 3472 976 4111 
Q 1594 4750 2688 4750 
Q 3144 4750 3555 4637 
Q 3966 4525 4313 4306 
L 4313 3634 
Q 3963 3931 3569 4081 
Q 3175 4231 2741 4231 
Q 1884 4231 1454 3753 
Q 1025 3275 1025 2328 
Q 1025 1384 1454 906 
Q 1884 428 2741 428 
Q 3075 428 3337 486 
Q 3600 544 3809 666 
z
" transform="scale(0.015625)"/>
      </defs>
      <use xlink:href="#DejaVuSans-53"/>
      <use xlink:href="#DejaVuSans-49" x="63.476562"/>
      <use xlink:href="#DejaVuSans-47" x="92.96875"/>
     </g>
    </g>
   </g>
  </g>
  <g id="text_35">
   <!-- Indian Oil Corporation Limited -->
   <g transform="translate(413.87625 21.358125)scale(0.12 -0.12)">
    <defs>
     <path id="DejaVuSans-64" d="M 2906 2969 
L 2906 4863 
L 3481 4863 
L 3481 0 
L 2906 0 
L 2906 525 
Q 2725 213 2448 61 
Q 2172 -91 1784 -91 
Q 1150 -91 751 415 
Q 353 922 353 1747 
Q 353 2572 751 3078 
Q 1150 3584 1784 3584 
Q 2172 3584 2448 3432 
Q 2725 3281 2906 2969 
z
M 947 1747 
Q 947 1113 1208 752 
Q 1469 391 1925 391 
Q 2381 391 2643 752 
Q 2906 1113 2906 1747 
Q 2906 2381 2643 2742 
Q 2381 3103 1925 3103 
Q 1469 3103 1208 2742 
Q 947 2381 947 1747 
z
" transform="scale(0.015625)"/>
     <path id="DejaVuSans-61" d="M 2194 1759 
Q 1497 1759 1228 1600 
Q 959 1441 959 1056 
Q 959 750 1161 570 
Q 1363 391 1709 391 
Q 2188 391 2477 730 
Q 2766 1069 2766 1631 
L 2766 1759 
L 2194 1759 
z
M 3341 1997 
L 3341 0 
L 2766 0 
L 2766 531 
Q 2569 213 2275 61 
Q 1981 -91 1556 -91 
Q 1019 -91 701 211 
Q 384 513 384 1019 
Q 384 1609 779 1909 
Q 1175 2209 1959 2209 
L 2766 2209 
L 2766 2266 
Q 2766 2663 2505 2880 
Q 2244 3097 1772 3097 
Q 1472 3097 1187 3025 
Q 903 2953 641 2809 
L 641 3341 
Q 956 3463 1253 3523 
Q 1550 3584 1831 3584 
Q 2591 3584 2966 3190 
Q 3341 2797 3341 1997 
z
" transform="scale(0.015625)"/>
     <path id="DejaVuSans-70" d="M 1159 525 
L 1159 -1331 
L 581 -1331 
L 581 3500 
L 1159 3500 
L 1159 2969 
Q 1341 3281 1617 3432 
Q 1894 3584 2278 3584 
Q 2916 3584 3314 3078 
Q 3713 2572 3713 1747 
Q 3713 922 3314 415 
Q 2916 -91 2278 -91 
Q 1894 -91 1617 61 
Q 1341 213 1159 525 
z
M 3116 1747 
Q 3116 2381 2855 2742 
Q 2594 3103 2138 3103 
Q 1681 3103 1420 2742 
Q 1159 2381 1159 1747 
Q 1159 1113 1420 752 
Q 1681 391 2138 391 
Q 2594 391 2855 752 
Q 3116 1113 3116 1747 
z
" transform="scale(0.015625)"/>
     <path id="DejaVuSans-74" d="M 1172 4494 
L 1172 3500 
L 2356 3500 
L 2356 3053 
L 1172 3053 
L 1172 1153 
Q 1172 725 1289 603 
Q 1406 481 1766 481 
L 2356 481 
L 2356 0 
L 1766 0 
Q 1100 0 847 248 
Q 594 497 594 1153 
L 594 3053 
L 172 3053 
L 172 3500 
L 594 3500 
L 594 4494 
L 1172 4494 
z
" transform="scale(0.015625)"/>
     <path id="DejaVuSans-6d" d="M 3328 2828 
Q 3544 3216 3844 3400 
Q 4144 3584 4550 3584 
Q 5097 3584 5394 3201 
Q 5691 2819 5691 2113 
L 5691 0 
L 5113 0 
L 5113 2094 
Q 5113 2597 4934 2840 
Q 4756 3084 4391 3084 
Q 3944 3084 3684 2787 
Q 3425 2491 3425 1978 
L 3425 0 
L 2847 0 
L 2847 2094 
Q 2847 2600 2669 2842 
Q 2491 3084 2119 3084 
Q 1678 3084 1418 2786 
Q 1159 2488 1159 1978 
L 1159 0 
L 581 0 
L 581 3500 
L 1159 3500 
L 1159 2956 
Q 1356 3278 1631 3431 
Q 1906 3584 2284 3584 
Q 2666 3584 2933 3390 
Q 3200 3197 3328 2828 
z
" transform="scale(0.015625)"/>
    </defs>
    <use xlink:href="#DejaVuSans-49"/>
    <use xlink:href="#DejaVuSans-6e" x="29.492188"/>
    <use xlink:href="#DejaVuSans-64" x="92.871094"/>
    <use xlink:href="#DejaVuSans-69" x="156.347656"/>
    <use xlink:href="#DejaVuSans-61" x="184.130859"/>
    <use xlink:href="#DejaVuSans-6e" x="245.410156"/>
    <use xlink:href="#DejaVuSans-20" x="308.789062"/>
    <use xlink:href="#DejaVuSans-4f" x="340.576172"/>
    <use xlink:href="#DejaVuSans-69" x="419.287109"/>
    <use xlink:href="#DejaVuSans-6c" x="447.070312"/>
    <use xlink:href="#DejaVuSans-20" x="474.853516"/>
    <use xlink:href="#DejaVuSans-43" x="506.640625"/>
    <use xlink:href="#DejaVuSans-6f" x="576.464844"/>
    <use xlink:href="#DejaVuSans-72" x="637.646484"/>
    <use xlink:href="#DejaVuSans-70" x="678.759766"/>
    <use xlink:href="#DejaVuSans-6f" x="742.236328"/>
    <use xlink:href="#DejaVuSans-72" x="803.417969"/>
    <use xlink:href="#DejaVuSans-61" x="844.53125"/>
    <use xlink:href="#DejaVuSans-74" x="905.810547"/>
    <use xlink:href="#DejaVuSans-69" x="945.019531"/>
    <use xlink:href="#DejaVuSans-6f" x="972.802734"/>
    <use xlink:href="#DejaVuSans-6e" x="1033.984375"/>
    <use xlink:href="#DejaVuSans-20" x="1097.363281"/>
    <use xlink:href="#DejaVuSans-4c" x="1129.150391"/>
    <use xlink:href="#DejaVuSans-69" x="1184.863281"/>
    <use xlink:href="#DejaVuSans-6d" x="1212.646484"/>
    <use xlink:href="#DejaVuSans-69" x="1310.058594"/>
    <use xlink:href="#DejaVuSans-74" x="1337.841797"/>
    <use xlink:href="#DejaVuSans-65" x="1377.050781"/>
    <use xlink:href="#DejaVuSans-64" x="1438.574219"/>
   </g>
  </g>
 </g>
 <defs>
  <clipPath id="pb7567539e8">
   <rect x="38.904688" y="48.331875" width="943.971418" height="253.385938"/>
  </clipPath>
  <clipPath id="p0e8526a3d6">
   <rect x="38.904688" y="331.135938" width="943.971418" height="253.385937"/>
  </clipPath>
 </defs>
</svg>
