<?xml version="1.0" encoding="utf-8" standalone="no"?>
<!DOCTYPE svg PUBLIC "-//W3C//DTD SVG 1.1//EN"
  "http://www.w3.org/Graphics/SVG/1.1/DTD/svg11.dtd">
<svg xmlns:xlink="http://www.w3.org/1999/xlink" width="1008pt" height="612pt" viewBox="0 0 1008 612" xmlns="http://www.w3.org/2000/svg" version="1.1">
 <metadata>
  <rdf:RDF xmlns:dc="http://purl.org/dc/elements/1.1/" xmlns:cc="http://creativecommons.org/ns#" xmlns:rdf="http://www.w3.org/1999/02/22-rdf-syntax-ns#">
   <cc:Work>
    <dc:type rdf:resource="http://purl.org/dc/dcmitype/StillImage"/>
    <dc:date>2022-11-20T19:47:08.283361</dc:date>
    <dc:format>image/svg+xml</dc:format>
    <dc:creator>
     <cc:Agent>
      <dc:title>Matplotlib v3.5.2, https://matplotlib.org/</dc:title>
     </cc:Agent>
    </dc:creator>
   </cc:Work>
  </rdf:RDF>
 </metadata>
 <defs>
  <style type="text/css">*{stroke-linejoin: round; stroke-linecap: butt}</style>
 </defs>
 <g id="figure_1">
  <g id="patch_1">
   <path d="M 0 612 
L 1008 612 
L 1008 0 
L 0 0 
z
" style="fill: #ffffff"/>
  </g>
  <g id="axes_1">
   <g id="patch_2">
    <path d="M 43.25 301.717812 
L 982.876106 301.717812 
L 982.876106 48.331875 
L 43.25 48.331875 
z
" style="fill: #ffffff"/>
   </g>
   <g id="matplotlib.axis_1">
    <g id="xtick_1">
     <g id="line2d_1">
      <path d="M 80.604757 301.717812 
L 80.604757 48.331875 
" clip-path="url(#pc13eb2294d)" style="fill: none; stroke-dasharray: 2.96,1.28; stroke-dashoffset: 0; stroke: #b0b0b0; stroke-width: 0.8"/>
     </g>
     <g id="line2d_2">
      <defs>
       <path id="m88ea783790" d="M 0 0 
L 0 3.5 
" style="stroke: #000000; stroke-width: 0.8"/>
      </defs>
      <g>
       <use xlink:href="#m88ea783790" x="80.604757" y="301.717812" style="stroke: #000000; stroke-width: 0.8"/>
      </g>
     </g>
    </g>
    <g id="xtick_2">
     <g id="line2d_3">
      <path d="M 163.615328 301.717812 
L 163.615328 48.331875 
" clip-path="url(#pc13eb2294d)" style="fill: none; stroke-dasharray: 2.96,1.28; stroke-dashoffset: 0; stroke: #b0b0b0; stroke-width: 0.8"/>
     </g>
     <g id="line2d_4">
      <g>
       <use xlink:href="#m88ea783790" x="163.615328" y="301.717812" style="stroke: #000000; stroke-width: 0.8"/>
      </g>
     </g>
    </g>
    <g id="xtick_3">
     <g id="line2d_5">
      <path d="M 238.592617 301.717812 
L 238.592617 48.331875 
" clip-path="url(#pc13eb2294d)" style="fill: none; stroke-dasharray: 2.96,1.28; stroke-dashoffset: 0; stroke: #b0b0b0; stroke-width: 0.8"/>
     </g>
     <g id="line2d_6">
      <g>
       <use xlink:href="#m88ea783790" x="238.592617" y="301.717812" style="stroke: #000000; stroke-width: 0.8"/>
      </g>
     </g>
    </g>
    <g id="xtick_4">
     <g id="line2d_7">
      <path d="M 321.603188 301.717812 
L 321.603188 48.331875 
" clip-path="url(#pc13eb2294d)" style="fill: none; stroke-dasharray: 2.96,1.28; stroke-dashoffset: 0; stroke: #b0b0b0; stroke-width: 0.8"/>
     </g>
     <g id="line2d_8">
      <g>
       <use xlink:href="#m88ea783790" x="321.603188" y="301.717812" style="stroke: #000000; stroke-width: 0.8"/>
      </g>
     </g>
    </g>
    <g id="xtick_5">
     <g id="line2d_9">
      <path d="M 401.935999 301.717812 
L 401.935999 48.331875 
" clip-path="url(#pc13eb2294d)" style="fill: none; stroke-dasharray: 2.96,1.28; stroke-dashoffset: 0; stroke: #b0b0b0; stroke-width: 0.8"/>
     </g>
     <g id="line2d_10">
      <g>
       <use xlink:href="#m88ea783790" x="401.935999" y="301.717812" style="stroke: #000000; stroke-width: 0.8"/>
      </g>
     </g>
    </g>
    <g id="xtick_6">
     <g id="line2d_11">
      <path d="M 484.946569 301.717812 
L 484.946569 48.331875 
" clip-path="url(#pc13eb2294d)" style="fill: none; stroke-dasharray: 2.96,1.28; stroke-dashoffset: 0; stroke: #b0b0b0; stroke-width: 0.8"/>
     </g>
     <g id="line2d_12">
      <g>
       <use xlink:href="#m88ea783790" x="484.946569" y="301.717812" style="stroke: #000000; stroke-width: 0.8"/>
      </g>
     </g>
    </g>
    <g id="xtick_7">
     <g id="line2d_13">
      <path d="M 565.27938 301.717812 
L 565.27938 48.331875 
" clip-path="url(#pc13eb2294d)" style="fill: none; stroke-dasharray: 2.96,1.28; stroke-dashoffset: 0; stroke: #b0b0b0; stroke-width: 0.8"/>
     </g>
     <g id="line2d_14">
      <g>
       <use xlink:href="#m88ea783790" x="565.27938" y="301.717812" style="stroke: #000000; stroke-width: 0.8"/>
      </g>
     </g>
    </g>
    <g id="xtick_8">
     <g id="line2d_15">
      <path d="M 648.28995 301.717812 
L 648.28995 48.331875 
" clip-path="url(#pc13eb2294d)" style="fill: none; stroke-dasharray: 2.96,1.28; stroke-dashoffset: 0; stroke: #b0b0b0; stroke-width: 0.8"/>
     </g>
     <g id="line2d_16">
      <g>
       <use xlink:href="#m88ea783790" x="648.28995" y="301.717812" style="stroke: #000000; stroke-width: 0.8"/>
      </g>
     </g>
    </g>
    <g id="xtick_9">
     <g id="line2d_17">
      <path d="M 731.300521 301.717812 
L 731.300521 48.331875 
" clip-path="url(#pc13eb2294d)" style="fill: none; stroke-dasharray: 2.96,1.28; stroke-dashoffset: 0; stroke: #b0b0b0; stroke-width: 0.8"/>
     </g>
     <g id="line2d_18">
      <g>
       <use xlink:href="#m88ea783790" x="731.300521" y="301.717812" style="stroke: #000000; stroke-width: 0.8"/>
      </g>
     </g>
    </g>
    <g id="xtick_10">
     <g id="line2d_19">
      <path d="M 811.633332 301.717812 
L 811.633332 48.331875 
" clip-path="url(#pc13eb2294d)" style="fill: none; stroke-dasharray: 2.96,1.28; stroke-dashoffset: 0; stroke: #b0b0b0; stroke-width: 0.8"/>
     </g>
     <g id="line2d_20">
      <g>
       <use xlink:href="#m88ea783790" x="811.633332" y="301.717812" style="stroke: #000000; stroke-width: 0.8"/>
      </g>
     </g>
    </g>
    <g id="xtick_11">
     <g id="line2d_21">
      <path d="M 894.643902 301.717812 
L 894.643902 48.331875 
" clip-path="url(#pc13eb2294d)" style="fill: none; stroke-dasharray: 2.96,1.28; stroke-dashoffset: 0; stroke: #b0b0b0; stroke-width: 0.8"/>
     </g>
     <g id="line2d_22">
      <g>
       <use xlink:href="#m88ea783790" x="894.643902" y="301.717812" style="stroke: #000000; stroke-width: 0.8"/>
      </g>
     </g>
    </g>
    <g id="xtick_12">
     <g id="line2d_23">
      <path d="M 974.976713 301.717812 
L 974.976713 48.331875 
" clip-path="url(#pc13eb2294d)" style="fill: none; stroke-dasharray: 2.96,1.28; stroke-dashoffset: 0; stroke: #b0b0b0; stroke-width: 0.8"/>
     </g>
     <g id="line2d_24">
      <g>
       <use xlink:href="#m88ea783790" x="974.976713" y="301.717812" style="stroke: #000000; stroke-width: 0.8"/>
      </g>
     </g>
    </g>
   </g>
   <g id="matplotlib.axis_2">
    <g id="ytick_1">
     <g id="line2d_25">
      <path d="M 43.25 284.765495 
L 982.876106 284.765495 
" clip-path="url(#pc13eb2294d)" style="fill: none; stroke-dasharray: 2.96,1.28; stroke-dashoffset: 0; stroke: #b0b0b0; stroke-width: 0.8"/>
     </g>
     <g id="line2d_26">
      <defs>
       <path id="m99a16a2e59" d="M 0 0 
L -3.5 0 
" style="stroke: #000000; stroke-width: 0.8"/>
      </defs>
      <g>
       <use xlink:href="#m99a16a2e59" x="43.25" y="284.765495" style="stroke: #000000; stroke-width: 0.8"/>
      </g>
     </g>
     <g id="text_1">
      <!-- 1300 -->
      <g transform="translate(10.8 288.564714)scale(0.1 -0.1)">
       <defs>
        <path id="DejaVuSans-31" d="M 794 531 
L 1825 531 
L 1825 4091 
L 703 3866 
L 703 4441 
L 1819 4666 
L 2450 4666 
L 2450 531 
L 3481 531 
L 3481 0 
L 794 0 
L 794 531 
z
" transform="scale(0.015625)"/>
        <path id="DejaVuSans-33" d="M 2597 2516 
Q 3050 2419 3304 2112 
Q 3559 1806 3559 1356 
Q 3559 666 3084 287 
Q 2609 -91 1734 -91 
Q 1441 -91 1130 -33 
Q 819 25 488 141 
L 488 750 
Q 750 597 1062 519 
Q 1375 441 1716 441 
Q 2309 441 2620 675 
Q 2931 909 2931 1356 
Q 2931 1769 2642 2001 
Q 2353 2234 1838 2234 
L 1294 2234 
L 1294 2753 
L 1863 2753 
Q 2328 2753 2575 2939 
Q 2822 3125 2822 3475 
Q 2822 3834 2567 4026 
Q 2313 4219 1838 4219 
Q 1578 4219 1281 4162 
Q 984 4106 628 3988 
L 628 4550 
Q 988 4650 1302 4700 
Q 1616 4750 1894 4750 
Q 2613 4750 3031 4423 
Q 3450 4097 3450 3541 
Q 3450 3153 3228 2886 
Q 3006 2619 2597 2516 
z
" transform="scale(0.015625)"/>
        <path id="DejaVuSans-30" d="M 2034 4250 
Q 1547 4250 1301 3770 
Q 1056 3291 1056 2328 
Q 1056 1369 1301 889 
Q 1547 409 2034 409 
Q 2525 409 2770 889 
Q 3016 1369 3016 2328 
Q 3016 3291 2770 3770 
Q 2525 4250 2034 4250 
z
M 2034 4750 
Q 2819 4750 3233 4129 
Q 3647 3509 3647 2328 
Q 3647 1150 3233 529 
Q 2819 -91 2034 -91 
Q 1250 -91 836 529 
Q 422 1150 422 2328 
Q 422 3509 836 4129 
Q 1250 4750 2034 4750 
z
" transform="scale(0.015625)"/>
       </defs>
       <use xlink:href="#DejaVuSans-31"/>
       <use xlink:href="#DejaVuSans-33" x="63.623047"/>
       <use xlink:href="#DejaVuSans-30" x="127.246094"/>
       <use xlink:href="#DejaVuSans-30" x="190.869141"/>
      </g>
     </g>
    </g>
    <g id="ytick_2">
     <g id="line2d_27">
      <path d="M 43.25 248.412484 
L 982.876106 248.412484 
" clip-path="url(#pc13eb2294d)" style="fill: none; stroke-dasharray: 2.96,1.28; stroke-dashoffset: 0; stroke: #b0b0b0; stroke-width: 0.8"/>
     </g>
     <g id="line2d_28">
      <g>
       <use xlink:href="#m99a16a2e59" x="43.25" y="248.412484" style="stroke: #000000; stroke-width: 0.8"/>
      </g>
     </g>
     <g id="text_2">
      <!-- 1400 -->
      <g transform="translate(10.8 252.211703)scale(0.1 -0.1)">
       <defs>
        <path id="DejaVuSans-34" d="M 2419 4116 
L 825 1625 
L 2419 1625 
L 2419 4116 
z
M 2253 4666 
L 3047 4666 
L 3047 1625 
L 3713 1625 
L 3713 1100 
L 3047 1100 
L 3047 0 
L 2419 0 
L 2419 1100 
L 313 1100 
L 313 1709 
L 2253 4666 
z
" transform="scale(0.015625)"/>
       </defs>
       <use xlink:href="#DejaVuSans-31"/>
       <use xlink:href="#DejaVuSans-34" x="63.623047"/>
       <use xlink:href="#DejaVuSans-30" x="127.246094"/>
       <use xlink:href="#DejaVuSans-30" x="190.869141"/>
      </g>
     </g>
    </g>
    <g id="ytick_3">
     <g id="line2d_29">
      <path d="M 43.25 212.059473 
L 982.876106 212.059473 
" clip-path="url(#pc13eb2294d)" style="fill: none; stroke-dasharray: 2.96,1.28; stroke-dashoffset: 0; stroke: #b0b0b0; stroke-width: 0.8"/>
     </g>
     <g id="line2d_30">
      <g>
       <use xlink:href="#m99a16a2e59" x="43.25" y="212.059473" style="stroke: #000000; stroke-width: 0.8"/>
      </g>
     </g>
     <g id="text_3">
      <!-- 1500 -->
      <g transform="translate(10.8 215.858692)scale(0.1 -0.1)">
       <defs>
        <path id="DejaVuSans-35" d="M 691 4666 
L 3169 4666 
L 3169 4134 
L 1269 4134 
L 1269 2991 
Q 1406 3038 1543 3061 
Q 1681 3084 1819 3084 
Q 2600 3084 3056 2656 
Q 3513 2228 3513 1497 
Q 3513 744 3044 326 
Q 2575 -91 1722 -91 
Q 1428 -91 1123 -41 
Q 819 9 494 109 
L 494 744 
Q 775 591 1075 516 
Q 1375 441 1709 441 
Q 2250 441 2565 725 
Q 2881 1009 2881 1497 
Q 2881 1984 2565 2268 
Q 2250 2553 1709 2553 
Q 1456 2553 1204 2497 
Q 953 2441 691 2322 
L 691 4666 
z
" transform="scale(0.015625)"/>
       </defs>
       <use xlink:href="#DejaVuSans-31"/>
       <use xlink:href="#DejaVuSans-35" x="63.623047"/>
       <use xlink:href="#DejaVuSans-30" x="127.246094"/>
       <use xlink:href="#DejaVuSans-30" x="190.869141"/>
      </g>
     </g>
    </g>
    <g id="ytick_4">
     <g id="line2d_31">
      <path d="M 43.25 175.706463 
L 982.876106 175.706463 
" clip-path="url(#pc13eb2294d)" style="fill: none; stroke-dasharray: 2.96,1.28; stroke-dashoffset: 0; stroke: #b0b0b0; stroke-width: 0.8"/>
     </g>
     <g id="line2d_32">
      <g>
       <use xlink:href="#m99a16a2e59" x="43.25" y="175.706463" style="stroke: #000000; stroke-width: 0.8"/>
      </g>
     </g>
     <g id="text_4">
      <!-- 1600 -->
      <g transform="translate(10.8 179.505681)scale(0.1 -0.1)">
       <defs>
        <path id="DejaVuSans-36" d="M 2113 2584 
Q 1688 2584 1439 2293 
Q 1191 2003 1191 1497 
Q 1191 994 1439 701 
Q 1688 409 2113 409 
Q 2538 409 2786 701 
Q 3034 994 3034 1497 
Q 3034 2003 2786 2293 
Q 2538 2584 2113 2584 
z
M 3366 4563 
L 3366 3988 
Q 3128 4100 2886 4159 
Q 2644 4219 2406 4219 
Q 1781 4219 1451 3797 
Q 1122 3375 1075 2522 
Q 1259 2794 1537 2939 
Q 1816 3084 2150 3084 
Q 2853 3084 3261 2657 
Q 3669 2231 3669 1497 
Q 3669 778 3244 343 
Q 2819 -91 2113 -91 
Q 1303 -91 875 529 
Q 447 1150 447 2328 
Q 447 3434 972 4092 
Q 1497 4750 2381 4750 
Q 2619 4750 2861 4703 
Q 3103 4656 3366 4563 
z
" transform="scale(0.015625)"/>
       </defs>
       <use xlink:href="#DejaVuSans-31"/>
       <use xlink:href="#DejaVuSans-36" x="63.623047"/>
       <use xlink:href="#DejaVuSans-30" x="127.246094"/>
       <use xlink:href="#DejaVuSans-30" x="190.869141"/>
      </g>
     </g>
    </g>
    <g id="ytick_5">
     <g id="line2d_33">
      <path d="M 43.25 139.353452 
L 982.876106 139.353452 
" clip-path="url(#pc13eb2294d)" style="fill: none; stroke-dasharray: 2.96,1.28; stroke-dashoffset: 0; stroke: #b0b0b0; stroke-width: 0.8"/>
     </g>
     <g id="line2d_34">
      <g>
       <use xlink:href="#m99a16a2e59" x="43.25" y="139.353452" style="stroke: #000000; stroke-width: 0.8"/>
      </g>
     </g>
     <g id="text_5">
      <!-- 1700 -->
      <g transform="translate(10.8 143.152671)scale(0.1 -0.1)">
       <defs>
        <path id="DejaVuSans-37" d="M 525 4666 
L 3525 4666 
L 3525 4397 
L 1831 0 
L 1172 0 
L 2766 4134 
L 525 4134 
L 525 4666 
z
" transform="scale(0.015625)"/>
       </defs>
       <use xlink:href="#DejaVuSans-31"/>
       <use xlink:href="#DejaVuSans-37" x="63.623047"/>
       <use xlink:href="#DejaVuSans-30" x="127.246094"/>
       <use xlink:href="#DejaVuSans-30" x="190.869141"/>
      </g>
     </g>
    </g>
    <g id="ytick_6">
     <g id="line2d_35">
      <path d="M 43.25 103.000441 
L 982.876106 103.000441 
" clip-path="url(#pc13eb2294d)" style="fill: none; stroke-dasharray: 2.96,1.28; stroke-dashoffset: 0; stroke: #b0b0b0; stroke-width: 0.8"/>
     </g>
     <g id="line2d_36">
      <g>
       <use xlink:href="#m99a16a2e59" x="43.25" y="103.000441" style="stroke: #000000; stroke-width: 0.8"/>
      </g>
     </g>
     <g id="text_6">
      <!-- 1800 -->
      <g transform="translate(10.8 106.79966)scale(0.1 -0.1)">
       <defs>
        <path id="DejaVuSans-38" d="M 2034 2216 
Q 1584 2216 1326 1975 
Q 1069 1734 1069 1313 
Q 1069 891 1326 650 
Q 1584 409 2034 409 
Q 2484 409 2743 651 
Q 3003 894 3003 1313 
Q 3003 1734 2745 1975 
Q 2488 2216 2034 2216 
z
M 1403 2484 
Q 997 2584 770 2862 
Q 544 3141 544 3541 
Q 544 4100 942 4425 
Q 1341 4750 2034 4750 
Q 2731 4750 3128 4425 
Q 3525 4100 3525 3541 
Q 3525 3141 3298 2862 
Q 3072 2584 2669 2484 
Q 3125 2378 3379 2068 
Q 3634 1759 3634 1313 
Q 3634 634 3220 271 
Q 2806 -91 2034 -91 
Q 1263 -91 848 271 
Q 434 634 434 1313 
Q 434 1759 690 2068 
Q 947 2378 1403 2484 
z
M 1172 3481 
Q 1172 3119 1398 2916 
Q 1625 2713 2034 2713 
Q 2441 2713 2670 2916 
Q 2900 3119 2900 3481 
Q 2900 3844 2670 4047 
Q 2441 4250 2034 4250 
Q 1625 4250 1398 4047 
Q 1172 3844 1172 3481 
z
" transform="scale(0.015625)"/>
       </defs>
       <use xlink:href="#DejaVuSans-31"/>
       <use xlink:href="#DejaVuSans-38" x="63.623047"/>
       <use xlink:href="#DejaVuSans-30" x="127.246094"/>
       <use xlink:href="#DejaVuSans-30" x="190.869141"/>
      </g>
     </g>
    </g>
    <g id="ytick_7">
     <g id="line2d_37">
      <path d="M 43.25 66.647431 
L 982.876106 66.647431 
" clip-path="url(#pc13eb2294d)" style="fill: none; stroke-dasharray: 2.96,1.28; stroke-dashoffset: 0; stroke: #b0b0b0; stroke-width: 0.8"/>
     </g>
     <g id="line2d_38">
      <g>
       <use xlink:href="#m99a16a2e59" x="43.25" y="66.647431" style="stroke: #000000; stroke-width: 0.8"/>
      </g>
     </g>
     <g id="text_7">
      <!-- 1900 -->
      <g transform="translate(10.8 70.446649)scale(0.1 -0.1)">
       <defs>
        <path id="DejaVuSans-39" d="M 703 97 
L 703 672 
Q 941 559 1184 500 
Q 1428 441 1663 441 
Q 2288 441 2617 861 
Q 2947 1281 2994 2138 
Q 2813 1869 2534 1725 
Q 2256 1581 1919 1581 
Q 1219 1581 811 2004 
Q 403 2428 403 3163 
Q 403 3881 828 4315 
Q 1253 4750 1959 4750 
Q 2769 4750 3195 4129 
Q 3622 3509 3622 2328 
Q 3622 1225 3098 567 
Q 2575 -91 1691 -91 
Q 1453 -91 1209 -44 
Q 966 3 703 97 
z
M 1959 2075 
Q 2384 2075 2632 2365 
Q 2881 2656 2881 3163 
Q 2881 3666 2632 3958 
Q 2384 4250 1959 4250 
Q 1534 4250 1286 3958 
Q 1038 3666 1038 3163 
Q 1038 2656 1286 2365 
Q 1534 2075 1959 2075 
z
" transform="scale(0.015625)"/>
       </defs>
       <use xlink:href="#DejaVuSans-31"/>
       <use xlink:href="#DejaVuSans-39" x="63.623047"/>
       <use xlink:href="#DejaVuSans-30" x="127.246094"/>
       <use xlink:href="#DejaVuSans-30" x="190.869141"/>
      </g>
     </g>
    </g>
   </g>
   <g id="line2d_39">
    <path d="M 85.960278 153.313008 
L 88.638038 142.261693 
L 91.315798 122.24936 
L 93.993559 131.882908 
L 96.671319 103.854737 
L 104.7046 88.877297 
L 107.38236 85.950879 
L 110.060121 76.099213 
L 112.737881 82.333755 
L 115.415641 82.170166 
L 123.448922 59.849418 
L 126.126683 84.005993 
L 128.804443 100.637496 
L 131.482203 91.731008 
L 134.159964 105.872329 
L 142.193245 142.734282 
L 144.871005 131.610261 
L 150.226526 144.061167 
L 152.904286 140.444042 
L 160.937567 129.356374 
L 163.615328 113.415579 
L 166.293088 110.961751 
L 168.970848 127.466018 
L 171.648609 126.520839 
L 179.68189 134.863855 
L 182.35965 132.882616 
L 185.03741 124.921307 
L 187.715171 114.433463 
L 190.392931 135.663621 
L 198.426212 160.092845 
L 201.103972 134.954738 
L 203.781733 131.610261 
L 206.459493 135.263738 
L 209.137254 131.083142 
L 217.170535 142.098104 
L 219.848295 145.115404 
L 222.526055 150.332061 
L 225.203816 195.936913 
L 227.881576 187.393956 
L 235.914857 176.251758 
L 241.270378 194.428263 
L 243.948138 210.750765 
L 246.625898 220.202548 
L 254.659179 231.490158 
L 257.33694 227.255032 
L 260.0147 214.476949 
L 262.69246 192.101671 
L 265.370221 187.975604 
L 273.403502 183.88589 
L 276.081262 188.702664 
L 278.759023 174.234166 
L 281.436783 168.49039 
L 292.147824 186.812307 
L 294.825585 182.06824 
L 297.503345 182.213652 
L 300.181105 175.924581 
L 302.858866 178.960057 
L 310.892147 171.725808 
L 313.569907 167.090799 
L 316.247667 151.095474 
L 318.925428 152.440536 
L 321.603188 150.277532 
L 329.636469 146.733113 
L 332.314229 138.517333 
L 334.99199 139.444335 
L 337.66975 145.91517 
L 340.347511 113.451932 
L 348.380792 95.67531 
L 351.058552 119.177531 
L 353.736312 115.378641 
L 367.125114 124.339659 
L 369.802874 131.937438 
L 372.480635 126.04825 
L 375.158395 115.996643 
L 377.836155 133.22797 
L 385.869436 141.643692 
L 388.547197 132.80991 
L 391.224957 139.280746 
L 393.902717 135.027444 
L 396.580478 142.152634 
L 404.613759 146.787643 
L 409.96928 167.617918 
L 412.64704 173.198105 
L 415.3248 188.211898 
L 423.358081 193.24679 
L 426.035842 196.754856 
L 428.713602 199.208684 
L 431.391362 217.203424 
L 434.069123 221.111373 
L 442.102404 229.418036 
L 444.780164 218.821133 
L 447.457924 216.658129 
L 450.135685 227.400444 
L 452.813445 216.294599 
L 460.846726 227.545856 
L 463.524487 247.412776 
L 466.202247 257.300795 
L 468.880007 251.120783 
L 471.557768 249.612133 
L 479.591049 233.50775 
L 482.268809 238.015523 
L 484.946569 235.125459 
L 487.62433 236.579579 
L 490.30209 270.424232 
L 498.335371 275.059241 
L 501.013131 275.077417 
L 503.690892 274.314004 
L 506.368652 281.457371 
L 509.046412 275.131947 
L 517.079693 287.473794 
L 519.757454 281.366488 
L 522.435214 273.24159 
L 525.112974 290.20027 
L 527.790735 288.382619 
L 535.824016 278.949013 
L 538.501776 272.369118 
L 543.857297 278.930837 
L 546.535057 276.31342 
L 554.568338 266.843461 
L 557.246099 269.115524 
L 559.923859 276.31342 
L 562.601619 277.222245 
L 565.27938 267.588697 
L 573.312661 266.298165 
L 575.990421 266.679872 
L 578.668181 259.445623 
L 581.345942 257.555266 
L 584.023702 251.55702 
L 592.056983 246.231303 
L 594.734744 255.66491 
L 597.412504 248.721485 
L 600.090264 251.393431 
L 602.768025 249.066838 
L 610.801306 238.124582 
L 613.479066 233.071514 
L 616.156826 233.271455 
L 618.834587 224.928439 
L 621.512347 204.298106 
L 629.545628 212.604769 
L 632.223388 206.661051 
L 634.901149 195.028088 
L 637.578909 193.66485 
L 640.256669 185.521776 
L 648.28995 187.194014 
L 650.967711 179.396293 
L 653.645471 180.486884 
L 656.323232 183.213359 
L 659.000992 176.324464 
L 667.034273 176.197228 
L 672.389794 171.743985 
L 675.067554 175.688286 
L 677.745314 167.490682 
L 688.456356 178.778292 
L 691.134116 169.690039 
L 693.811876 170.707924 
L 696.489637 173.579812 
L 704.522918 188.757194 
L 707.200678 177.360525 
L 709.878438 171.253219 
L 712.556199 166.67274 
L 715.233959 148.350822 
L 723.26724 152.422359 
L 725.945001 147.11482 
L 733.978282 143.752166 
L 742.011563 135.445503 
L 744.689323 130.974083 
L 747.367083 121.122417 
L 750.044844 113.960874 
L 752.722604 121.813124 
L 760.755885 114.469816 
L 763.433645 106.762978 
L 766.111406 109.253159 
L 768.789166 99.983141 
L 771.466926 123.140009 
L 779.500207 121.413241 
L 782.177968 124.212423 
L 784.855728 132.137379 
L 787.533489 127.466018 
L 790.211249 140.29863 
L 798.24453 151.913417 
L 800.92229 145.715229 
L 806.277811 155.421483 
L 808.955571 148.496234 
L 816.988852 162.45579 
L 819.666613 145.206287 
L 825.022133 145.497111 
L 827.699894 140.116865 
L 835.733175 148.823411 
L 838.410935 159.529373 
L 841.088695 149.659531 
L 843.766456 146.714937 
L 846.444216 140.971161 
L 854.477497 142.570693 
L 857.155258 143.624931 
L 859.833018 145.042698 
L 862.510778 143.37046 
L 865.188539 147.696468 
L 873.22182 139.698806 
L 875.89958 134.009559 
L 881.255101 130.465141 
L 883.932861 145.097228 
L 891.966142 131.464849 
L 894.643902 117.069056 
L 897.321663 117.523469 
L 899.999423 122.758303 
L 902.677183 115.687642 
L 910.710465 112.015988 
L 916.065985 122.812832 
L 918.743746 137.69939 
L 921.421506 136.281623 
L 929.454787 121.722242 
L 932.132547 127.175193 
L 934.810308 129.356374 
L 937.488068 135.481856 
L 940.165828 136.136211 
L 940.165828 136.136211 
" clip-path="url(#pc13eb2294d)" style="fill: none; stroke: #1f77b4; stroke-width: 1.5; stroke-linecap: square"/>
   </g>
   <g id="line2d_40">
    <path d="M 96.671319 130.712341 
L 104.7046 117.825199 
L 107.38236 106.563036 
L 110.060121 97.333007 
L 112.737881 87.423176 
L 115.415641 83.086262 
L 123.448922 77.280686 
L 126.126683 76.891709 
L 128.804443 81.799365 
L 131.482203 83.678816 
L 134.159964 88.419249 
L 142.193245 104.996222 
L 144.871005 114.517075 
L 150.226526 123.201809 
L 152.904286 132.944416 
L 160.937567 137.641225 
L 163.615328 131.777485 
L 166.293088 127.647783 
L 168.970848 124.328753 
L 171.648609 121.544112 
L 179.68189 122.645608 
L 182.35965 126.539016 
L 185.03741 129.330927 
L 187.715171 126.724416 
L 190.392931 128.552973 
L 198.426212 133.59877 
L 201.103972 134.013195 
L 203.781733 135.350986 
L 206.459493 139.517041 
L 209.137254 138.600945 
L 217.170535 135.001997 
L 219.848295 137.03413 
L 222.526055 140.77849 
L 225.203816 152.913125 
L 227.881576 164.175288 
L 235.914857 171.006018 
L 241.270378 180.86859 
L 243.948138 192.952331 
L 246.625898 197.805458 
L 254.659179 206.624698 
L 257.33694 216.825353 
L 260.0147 220.83509 
L 262.69246 217.105271 
L 265.370221 210.659882 
L 273.403502 201.139029 
L 278.759023 185.379999 
L 281.436783 180.657743 
L 292.147824 180.425083 
L 294.825585 180.061553 
L 297.503345 178.763751 
L 300.181105 179.101834 
L 302.858866 181.195767 
L 310.892147 178.178467 
L 313.569907 175.182979 
L 316.247667 168.959344 
L 318.925428 164.262535 
L 321.603188 158.52603 
L 329.636469 153.527491 
L 332.314229 147.812798 
L 334.99199 145.48257 
L 337.66975 144.177497 
L 340.347511 136.812377 
L 348.380792 126.600816 
L 351.058552 122.732856 
L 353.736312 117.919717 
L 367.125114 113.604615 
L 369.802874 117.301716 
L 372.480635 123.376304 
L 375.158395 122.740126 
L 377.836155 126.309992 
L 385.869436 129.770798 
L 388.547197 129.945293 
L 391.224957 132.591792 
L 393.902717 136.397952 
L 396.580478 138.182885 
L 404.613759 139.211675 
L 409.96928 146.173277 
L 412.64704 152.956749 
L 415.3248 163.59364 
L 423.358081 173.812471 
L 426.035842 183.805913 
L 428.713602 190.124067 
L 431.391362 198.925131 
L 434.069123 205.505026 
L 442.102404 212.739275 
L 444.780164 217.15253 
L 447.457924 220.642419 
L 450.135685 222.681823 
L 452.813445 221.718468 
L 460.846726 221.344032 
L 463.524487 227.062361 
L 466.202247 235.190894 
L 468.880007 239.934962 
L 471.557768 246.598469 
L 479.591049 247.790848 
L 482.268809 245.911397 
L 484.946569 241.47633 
L 487.62433 238.568089 
L 490.30209 242.730509 
L 498.335371 251.040807 
L 501.013131 258.453186 
L 503.690892 266.290895 
L 506.368652 275.266453 
L 509.046412 276.207996 
L 517.079693 278.690907 
L 519.757454 279.948721 
L 522.435214 279.734238 
L 525.112974 281.482818 
L 527.790735 284.132952 
L 535.824016 282.427996 
L 538.501776 280.628522 
L 541.179537 281.122923 
L 543.857297 278.869036 
L 546.535057 276.455197 
L 554.568338 274.034086 
L 557.246099 273.383367 
L 559.923859 273.503332 
L 562.601619 273.161614 
L 565.27938 271.416669 
L 573.312661 271.30761 
L 575.990421 270.82048 
L 578.668181 267.44692 
L 581.345942 263.513525 
L 584.023702 260.307189 
L 592.056983 256.293817 
L 597.412504 251.945997 
L 600.090264 250.71363 
L 602.768025 250.215593 
L 610.801306 248.594249 
L 613.479066 244.07557 
L 616.156826 240.985564 
L 618.834587 235.692566 
L 621.512347 226.738819 
L 629.545628 221.634856 
L 632.223388 216.352764 
L 634.901149 208.704091 
L 637.578909 202.451373 
L 640.256669 198.696107 
L 648.28995 193.613956 
L 650.967711 188.161004 
L 653.645471 185.252763 
L 656.323232 183.162465 
L 659.000992 181.323003 
L 672.389794 177.593184 
L 675.067554 176.633464 
L 677.745314 173.488929 
L 688.456356 173.979695 
L 691.134116 172.678257 
L 693.811876 172.471045 
L 696.489637 172.04935 
L 704.522918 176.302652 
L 707.200678 176.019099 
L 709.878438 176.331734 
L 712.556199 175.524698 
L 715.233959 170.4789 
L 723.26724 163.211933 
L 725.945001 157.162792 
L 731.300521 151.873429 
L 733.978282 147.289314 
L 742.011563 144.70825 
L 744.689323 140.418595 
L 747.367083 135.220115 
L 750.044844 129.051009 
L 752.722604 124.6632 
L 760.755885 120.468063 
L 763.433645 115.625842 
L 766.111406 113.25199 
L 768.789166 110.456444 
L 771.466926 110.721821 
L 779.500207 112.110506 
L 782.177968 115.600395 
L 784.855728 120.177239 
L 787.533489 125.673814 
L 790.211249 129.105538 
L 798.24453 135.205573 
L 800.92229 139.506135 
L 803.600051 143.19233 
L 806.277811 148.783423 
L 808.955571 150.422944 
L 816.988852 152.531418 
L 819.666613 152.42963 
L 825.022133 151.415381 
L 827.699894 148.354457 
L 835.733175 148.419893 
L 838.410935 147.834609 
L 841.088695 148.725258 
L 846.444216 149.139682 
L 854.477497 147.889139 
L 857.155258 144.70825 
L 859.833018 143.784884 
L 862.510778 143.115989 
L 865.188539 144.46105 
L 873.22182 143.886672 
L 875.89958 141.963598 
L 881.255101 139.048087 
L 883.932861 139.39344 
L 891.966142 136.147116 
L 894.643902 131.621167 
L 897.321663 128.323949 
L 899.999423 126.782581 
L 902.677183 120.900664 
L 910.710465 117.010892 
L 916.065985 118.159647 
L 918.743746 122.194831 
L 921.421506 124.899495 
L 929.454787 126.106415 
L 932.132547 129.138256 
L 934.810308 130.446964 
L 937.488068 130.003458 
L 940.165828 129.974375 
L 940.165828 129.974375 
" clip-path="url(#pc13eb2294d)" style="fill: none; stroke: #ff7f0e; stroke-width: 1.5; stroke-linecap: square"/>
   </g>
   <g id="patch_3">
    <path d="M 43.25 301.717813 
L 43.25 48.331875 
" style="fill: none; stroke: #000000; stroke-width: 0.8; stroke-linejoin: miter; stroke-linecap: square"/>
   </g>
   <g id="patch_4">
    <path d="M 982.876106 301.717813 
L 982.876106 48.331875 
" style="fill: none; stroke: #000000; stroke-width: 0.8; stroke-linejoin: miter; stroke-linecap: square"/>
   </g>
   <g id="patch_5">
    <path d="M 43.25 301.717812 
L 982.876106 301.717812 
" style="fill: none; stroke: #000000; stroke-width: 0.8; stroke-linejoin: miter; stroke-linecap: square"/>
   </g>
   <g id="patch_6">
    <path d="M 43.25 48.331875 
L 982.876106 48.331875 
" style="fill: none; stroke: #000000; stroke-width: 0.8; stroke-linejoin: miter; stroke-linecap: square"/>
   </g>
   <g id="text_8">
    <!-- Closing Price -->
    <g transform="translate(474.587115 42.331875)scale(0.12 -0.12)">
     <defs>
      <path id="DejaVuSans-43" d="M 4122 4306 
L 4122 3641 
Q 3803 3938 3442 4084 
Q 3081 4231 2675 4231 
Q 1875 4231 1450 3742 
Q 1025 3253 1025 2328 
Q 1025 1406 1450 917 
Q 1875 428 2675 428 
Q 3081 428 3442 575 
Q 3803 722 4122 1019 
L 4122 359 
Q 3791 134 3420 21 
Q 3050 -91 2638 -91 
Q 1578 -91 968 557 
Q 359 1206 359 2328 
Q 359 3453 968 4101 
Q 1578 4750 2638 4750 
Q 3056 4750 3426 4639 
Q 3797 4528 4122 4306 
z
" transform="scale(0.015625)"/>
      <path id="DejaVuSans-6c" d="M 603 4863 
L 1178 4863 
L 1178 0 
L 603 0 
L 603 4863 
z
" transform="scale(0.015625)"/>
      <path id="DejaVuSans-6f" d="M 1959 3097 
Q 1497 3097 1228 2736 
Q 959 2375 959 1747 
Q 959 1119 1226 758 
Q 1494 397 1959 397 
Q 2419 397 2687 759 
Q 2956 1122 2956 1747 
Q 2956 2369 2687 2733 
Q 2419 3097 1959 3097 
z
M 1959 3584 
Q 2709 3584 3137 3096 
Q 3566 2609 3566 1747 
Q 3566 888 3137 398 
Q 2709 -91 1959 -91 
Q 1206 -91 779 398 
Q 353 888 353 1747 
Q 353 2609 779 3096 
Q 1206 3584 1959 3584 
z
" transform="scale(0.015625)"/>
      <path id="DejaVuSans-73" d="M 2834 3397 
L 2834 2853 
Q 2591 2978 2328 3040 
Q 2066 3103 1784 3103 
Q 1356 3103 1142 2972 
Q 928 2841 928 2578 
Q 928 2378 1081 2264 
Q 1234 2150 1697 2047 
L 1894 2003 
Q 2506 1872 2764 1633 
Q 3022 1394 3022 966 
Q 3022 478 2636 193 
Q 2250 -91 1575 -91 
Q 1294 -91 989 -36 
Q 684 19 347 128 
L 347 722 
Q 666 556 975 473 
Q 1284 391 1588 391 
Q 1994 391 2212 530 
Q 2431 669 2431 922 
Q 2431 1156 2273 1281 
Q 2116 1406 1581 1522 
L 1381 1569 
Q 847 1681 609 1914 
Q 372 2147 372 2553 
Q 372 3047 722 3315 
Q 1072 3584 1716 3584 
Q 2034 3584 2315 3537 
Q 2597 3491 2834 3397 
z
" transform="scale(0.015625)"/>
      <path id="DejaVuSans-69" d="M 603 3500 
L 1178 3500 
L 1178 0 
L 603 0 
L 603 3500 
z
M 603 4863 
L 1178 4863 
L 1178 4134 
L 603 4134 
L 603 4863 
z
" transform="scale(0.015625)"/>
      <path id="DejaVuSans-6e" d="M 3513 2113 
L 3513 0 
L 2938 0 
L 2938 2094 
Q 2938 2591 2744 2837 
Q 2550 3084 2163 3084 
Q 1697 3084 1428 2787 
Q 1159 2491 1159 1978 
L 1159 0 
L 581 0 
L 581 3500 
L 1159 3500 
L 1159 2956 
Q 1366 3272 1645 3428 
Q 1925 3584 2291 3584 
Q 2894 3584 3203 3211 
Q 3513 2838 3513 2113 
z
" transform="scale(0.015625)"/>
      <path id="DejaVuSans-67" d="M 2906 1791 
Q 2906 2416 2648 2759 
Q 2391 3103 1925 3103 
Q 1463 3103 1205 2759 
Q 947 2416 947 1791 
Q 947 1169 1205 825 
Q 1463 481 1925 481 
Q 2391 481 2648 825 
Q 2906 1169 2906 1791 
z
M 3481 434 
Q 3481 -459 3084 -895 
Q 2688 -1331 1869 -1331 
Q 1566 -1331 1297 -1286 
Q 1028 -1241 775 -1147 
L 775 -588 
Q 1028 -725 1275 -790 
Q 1522 -856 1778 -856 
Q 2344 -856 2625 -561 
Q 2906 -266 2906 331 
L 2906 616 
Q 2728 306 2450 153 
Q 2172 0 1784 0 
Q 1141 0 747 490 
Q 353 981 353 1791 
Q 353 2603 747 3093 
Q 1141 3584 1784 3584 
Q 2172 3584 2450 3431 
Q 2728 3278 2906 2969 
L 2906 3500 
L 3481 3500 
L 3481 434 
z
" transform="scale(0.015625)"/>
      <path id="DejaVuSans-20" transform="scale(0.015625)"/>
      <path id="DejaVuSans-50" d="M 1259 4147 
L 1259 2394 
L 2053 2394 
Q 2494 2394 2734 2622 
Q 2975 2850 2975 3272 
Q 2975 3691 2734 3919 
Q 2494 4147 2053 4147 
L 1259 4147 
z
M 628 4666 
L 2053 4666 
Q 2838 4666 3239 4311 
Q 3641 3956 3641 3272 
Q 3641 2581 3239 2228 
Q 2838 1875 2053 1875 
L 1259 1875 
L 1259 0 
L 628 0 
L 628 4666 
z
" transform="scale(0.015625)"/>
      <path id="DejaVuSans-72" d="M 2631 2963 
Q 2534 3019 2420 3045 
Q 2306 3072 2169 3072 
Q 1681 3072 1420 2755 
Q 1159 2438 1159 1844 
L 1159 0 
L 581 0 
L 581 3500 
L 1159 3500 
L 1159 2956 
Q 1341 3275 1631 3429 
Q 1922 3584 2338 3584 
Q 2397 3584 2469 3576 
Q 2541 3569 2628 3553 
L 2631 2963 
z
" transform="scale(0.015625)"/>
      <path id="DejaVuSans-63" d="M 3122 3366 
L 3122 2828 
Q 2878 2963 2633 3030 
Q 2388 3097 2138 3097 
Q 1578 3097 1268 2742 
Q 959 2388 959 1747 
Q 959 1106 1268 751 
Q 1578 397 2138 397 
Q 2388 397 2633 464 
Q 2878 531 3122 666 
L 3122 134 
Q 2881 22 2623 -34 
Q 2366 -91 2075 -91 
Q 1284 -91 818 406 
Q 353 903 353 1747 
Q 353 2603 823 3093 
Q 1294 3584 2113 3584 
Q 2378 3584 2631 3529 
Q 2884 3475 3122 3366 
z
" transform="scale(0.015625)"/>
      <path id="DejaVuSans-65" d="M 3597 1894 
L 3597 1613 
L 953 1613 
Q 991 1019 1311 708 
Q 1631 397 2203 397 
Q 2534 397 2845 478 
Q 3156 559 3463 722 
L 3463 178 
Q 3153 47 2828 -22 
Q 2503 -91 2169 -91 
Q 1331 -91 842 396 
Q 353 884 353 1716 
Q 353 2575 817 3079 
Q 1281 3584 2069 3584 
Q 2775 3584 3186 3129 
Q 3597 2675 3597 1894 
z
M 3022 2063 
Q 3016 2534 2758 2815 
Q 2500 3097 2075 3097 
Q 1594 3097 1305 2825 
Q 1016 2553 972 2059 
L 3022 2063 
z
" transform="scale(0.015625)"/>
     </defs>
     <use xlink:href="#DejaVuSans-43"/>
     <use xlink:href="#DejaVuSans-6c" x="69.824219"/>
     <use xlink:href="#DejaVuSans-6f" x="97.607422"/>
     <use xlink:href="#DejaVuSans-73" x="158.789062"/>
     <use xlink:href="#DejaVuSans-69" x="210.888672"/>
     <use xlink:href="#DejaVuSans-6e" x="238.671875"/>
     <use xlink:href="#DejaVuSans-67" x="302.050781"/>
     <use xlink:href="#DejaVuSans-20" x="365.527344"/>
     <use xlink:href="#DejaVuSans-50" x="397.314453"/>
     <use xlink:href="#DejaVuSans-72" x="455.867188"/>
     <use xlink:href="#DejaVuSans-69" x="496.980469"/>
     <use xlink:href="#DejaVuSans-63" x="524.763672"/>
     <use xlink:href="#DejaVuSans-65" x="579.744141"/>
    </g>
   </g>
   <g id="legend_1">
    <g id="patch_7">
     <path d="M 911.144856 85.688125 
L 975.876106 85.688125 
Q 977.876106 85.688125 977.876106 83.688125 
L 977.876106 55.331875 
Q 977.876106 53.331875 975.876106 53.331875 
L 911.144856 53.331875 
Q 909.144856 53.331875 909.144856 55.331875 
L 909.144856 83.688125 
Q 909.144856 85.688125 911.144856 85.688125 
z
" style="fill: #ffffff; opacity: 0.8; stroke: #cccccc; stroke-linejoin: miter"/>
    </g>
    <g id="line2d_41">
     <path d="M 913.144856 61.430312 
L 923.144856 61.430312 
L 933.144856 61.430312 
" style="fill: none; stroke: #1f77b4; stroke-width: 1.5; stroke-linecap: square"/>
    </g>
    <g id="text_9">
     <!-- CLOSE -->
     <g transform="translate(941.144856 64.930312)scale(0.1 -0.1)">
      <defs>
       <path id="DejaVuSans-4c" d="M 628 4666 
L 1259 4666 
L 1259 531 
L 3531 531 
L 3531 0 
L 628 0 
L 628 4666 
z
" transform="scale(0.015625)"/>
       <path id="DejaVuSans-4f" d="M 2522 4238 
Q 1834 4238 1429 3725 
Q 1025 3213 1025 2328 
Q 1025 1447 1429 934 
Q 1834 422 2522 422 
Q 3209 422 3611 934 
Q 4013 1447 4013 2328 
Q 4013 3213 3611 3725 
Q 3209 4238 2522 4238 
z
M 2522 4750 
Q 3503 4750 4090 4092 
Q 4678 3434 4678 2328 
Q 4678 1225 4090 567 
Q 3503 -91 2522 -91 
Q 1538 -91 948 565 
Q 359 1222 359 2328 
Q 359 3434 948 4092 
Q 1538 4750 2522 4750 
z
" transform="scale(0.015625)"/>
       <path id="DejaVuSans-53" d="M 3425 4513 
L 3425 3897 
Q 3066 4069 2747 4153 
Q 2428 4238 2131 4238 
Q 1616 4238 1336 4038 
Q 1056 3838 1056 3469 
Q 1056 3159 1242 3001 
Q 1428 2844 1947 2747 
L 2328 2669 
Q 3034 2534 3370 2195 
Q 3706 1856 3706 1288 
Q 3706 609 3251 259 
Q 2797 -91 1919 -91 
Q 1588 -91 1214 -16 
Q 841 59 441 206 
L 441 856 
Q 825 641 1194 531 
Q 1563 422 1919 422 
Q 2459 422 2753 634 
Q 3047 847 3047 1241 
Q 3047 1584 2836 1778 
Q 2625 1972 2144 2069 
L 1759 2144 
Q 1053 2284 737 2584 
Q 422 2884 422 3419 
Q 422 4038 858 4394 
Q 1294 4750 2059 4750 
Q 2388 4750 2728 4690 
Q 3069 4631 3425 4513 
z
" transform="scale(0.015625)"/>
       <path id="DejaVuSans-45" d="M 628 4666 
L 3578 4666 
L 3578 4134 
L 1259 4134 
L 1259 2753 
L 3481 2753 
L 3481 2222 
L 1259 2222 
L 1259 531 
L 3634 531 
L 3634 0 
L 628 0 
L 628 4666 
z
" transform="scale(0.015625)"/>
      </defs>
      <use xlink:href="#DejaVuSans-43"/>
      <use xlink:href="#DejaVuSans-4c" x="69.824219"/>
      <use xlink:href="#DejaVuSans-4f" x="121.912109"/>
      <use xlink:href="#DejaVuSans-53" x="200.623047"/>
      <use xlink:href="#DejaVuSans-45" x="264.099609"/>
     </g>
    </g>
    <g id="line2d_42">
     <path d="M 913.144856 76.108437 
L 923.144856 76.108437 
L 933.144856 76.108437 
" style="fill: none; stroke: #ff7f0e; stroke-width: 1.5; stroke-linecap: square"/>
    </g>
    <g id="text_10">
     <!-- SMA5 -->
     <g transform="translate(941.144856 79.608437)scale(0.1 -0.1)">
      <defs>
       <path id="DejaVuSans-4d" d="M 628 4666 
L 1569 4666 
L 2759 1491 
L 3956 4666 
L 4897 4666 
L 4897 0 
L 4281 0 
L 4281 4097 
L 3078 897 
L 2444 897 
L 1241 4097 
L 1241 0 
L 628 0 
L 628 4666 
z
" transform="scale(0.015625)"/>
       <path id="DejaVuSans-41" d="M 2188 4044 
L 1331 1722 
L 3047 1722 
L 2188 4044 
z
M 1831 4666 
L 2547 4666 
L 4325 0 
L 3669 0 
L 3244 1197 
L 1141 1197 
L 716 0 
L 50 0 
L 1831 4666 
z
" transform="scale(0.015625)"/>
      </defs>
      <use xlink:href="#DejaVuSans-53"/>
      <use xlink:href="#DejaVuSans-4d" x="63.476562"/>
      <use xlink:href="#DejaVuSans-41" x="149.755859"/>
      <use xlink:href="#DejaVuSans-35" x="218.164062"/>
     </g>
    </g>
   </g>
  </g>
  <g id="axes_2">
   <g id="patch_8">
    <path d="M 43.25 584.521875 
L 982.876106 584.521875 
L 982.876106 331.135938 
L 43.25 331.135938 
z
" style="fill: #ffffff"/>
   </g>
   <g id="matplotlib.axis_3">
    <g id="xtick_13">
     <g id="line2d_43">
      <path d="M 80.604757 584.521875 
L 80.604757 331.135938 
" clip-path="url(#p2656e2e2f9)" style="fill: none; stroke-dasharray: 2.96,1.28; stroke-dashoffset: 0; stroke: #b0b0b0; stroke-width: 0.8"/>
     </g>
     <g id="line2d_44">
      <g>
       <use xlink:href="#m88ea783790" x="80.604757" y="584.521875" style="stroke: #000000; stroke-width: 0.8"/>
      </g>
     </g>
     <g id="text_11">
      <!-- 2022-01 -->
      <g transform="translate(59.713351 599.120312)scale(0.1 -0.1)">
       <defs>
        <path id="DejaVuSans-32" d="M 1228 531 
L 3431 531 
L 3431 0 
L 469 0 
L 469 531 
Q 828 903 1448 1529 
Q 2069 2156 2228 2338 
Q 2531 2678 2651 2914 
Q 2772 3150 2772 3378 
Q 2772 3750 2511 3984 
Q 2250 4219 1831 4219 
Q 1534 4219 1204 4116 
Q 875 4013 500 3803 
L 500 4441 
Q 881 4594 1212 4672 
Q 1544 4750 1819 4750 
Q 2544 4750 2975 4387 
Q 3406 4025 3406 3419 
Q 3406 3131 3298 2873 
Q 3191 2616 2906 2266 
Q 2828 2175 2409 1742 
Q 1991 1309 1228 531 
z
" transform="scale(0.015625)"/>
        <path id="DejaVuSans-2d" d="M 313 2009 
L 1997 2009 
L 1997 1497 
L 313 1497 
L 313 2009 
z
" transform="scale(0.015625)"/>
       </defs>
       <use xlink:href="#DejaVuSans-32"/>
       <use xlink:href="#DejaVuSans-30" x="63.623047"/>
       <use xlink:href="#DejaVuSans-32" x="127.246094"/>
       <use xlink:href="#DejaVuSans-32" x="190.869141"/>
       <use xlink:href="#DejaVuSans-2d" x="254.492188"/>
       <use xlink:href="#DejaVuSans-30" x="290.576172"/>
       <use xlink:href="#DejaVuSans-31" x="354.199219"/>
      </g>
     </g>
    </g>
    <g id="xtick_14">
     <g id="line2d_45">
      <path d="M 163.615328 584.521875 
L 163.615328 331.135938 
" clip-path="url(#p2656e2e2f9)" style="fill: none; stroke-dasharray: 2.96,1.28; stroke-dashoffset: 0; stroke: #b0b0b0; stroke-width: 0.8"/>
     </g>
     <g id="line2d_46">
      <g>
       <use xlink:href="#m88ea783790" x="163.615328" y="584.521875" style="stroke: #000000; stroke-width: 0.8"/>
      </g>
     </g>
     <g id="text_12">
      <!-- 2022-02 -->
      <g transform="translate(142.723921 599.120312)scale(0.1 -0.1)">
       <use xlink:href="#DejaVuSans-32"/>
       <use xlink:href="#DejaVuSans-30" x="63.623047"/>
       <use xlink:href="#DejaVuSans-32" x="127.246094"/>
       <use xlink:href="#DejaVuSans-32" x="190.869141"/>
       <use xlink:href="#DejaVuSans-2d" x="254.492188"/>
       <use xlink:href="#DejaVuSans-30" x="290.576172"/>
       <use xlink:href="#DejaVuSans-32" x="354.199219"/>
      </g>
     </g>
    </g>
    <g id="xtick_15">
     <g id="line2d_47">
      <path d="M 238.592617 584.521875 
L 238.592617 331.135938 
" clip-path="url(#p2656e2e2f9)" style="fill: none; stroke-dasharray: 2.96,1.28; stroke-dashoffset: 0; stroke: #b0b0b0; stroke-width: 0.8"/>
     </g>
     <g id="line2d_48">
      <g>
       <use xlink:href="#m88ea783790" x="238.592617" y="584.521875" style="stroke: #000000; stroke-width: 0.8"/>
      </g>
     </g>
     <g id="text_13">
      <!-- 2022-03 -->
      <g transform="translate(217.701211 599.120312)scale(0.1 -0.1)">
       <use xlink:href="#DejaVuSans-32"/>
       <use xlink:href="#DejaVuSans-30" x="63.623047"/>
       <use xlink:href="#DejaVuSans-32" x="127.246094"/>
       <use xlink:href="#DejaVuSans-32" x="190.869141"/>
       <use xlink:href="#DejaVuSans-2d" x="254.492188"/>
       <use xlink:href="#DejaVuSans-30" x="290.576172"/>
       <use xlink:href="#DejaVuSans-33" x="354.199219"/>
      </g>
     </g>
    </g>
    <g id="xtick_16">
     <g id="line2d_49">
      <path d="M 321.603188 584.521875 
L 321.603188 331.135938 
" clip-path="url(#p2656e2e2f9)" style="fill: none; stroke-dasharray: 2.96,1.28; stroke-dashoffset: 0; stroke: #b0b0b0; stroke-width: 0.8"/>
     </g>
     <g id="line2d_50">
      <g>
       <use xlink:href="#m88ea783790" x="321.603188" y="584.521875" style="stroke: #000000; stroke-width: 0.8"/>
      </g>
     </g>
     <g id="text_14">
      <!-- 2022-04 -->
      <g transform="translate(300.711782 599.120312)scale(0.1 -0.1)">
       <use xlink:href="#DejaVuSans-32"/>
       <use xlink:href="#DejaVuSans-30" x="63.623047"/>
       <use xlink:href="#DejaVuSans-32" x="127.246094"/>
       <use xlink:href="#DejaVuSans-32" x="190.869141"/>
       <use xlink:href="#DejaVuSans-2d" x="254.492188"/>
       <use xlink:href="#DejaVuSans-30" x="290.576172"/>
       <use xlink:href="#DejaVuSans-34" x="354.199219"/>
      </g>
     </g>
    </g>
    <g id="xtick_17">
     <g id="line2d_51">
      <path d="M 401.935999 584.521875 
L 401.935999 331.135938 
" clip-path="url(#p2656e2e2f9)" style="fill: none; stroke-dasharray: 2.96,1.28; stroke-dashoffset: 0; stroke: #b0b0b0; stroke-width: 0.8"/>
     </g>
     <g id="line2d_52">
      <g>
       <use xlink:href="#m88ea783790" x="401.935999" y="584.521875" style="stroke: #000000; stroke-width: 0.8"/>
      </g>
     </g>
     <g id="text_15">
      <!-- 2022-05 -->
      <g transform="translate(381.044592 599.120312)scale(0.1 -0.1)">
       <use xlink:href="#DejaVuSans-32"/>
       <use xlink:href="#DejaVuSans-30" x="63.623047"/>
       <use xlink:href="#DejaVuSans-32" x="127.246094"/>
       <use xlink:href="#DejaVuSans-32" x="190.869141"/>
       <use xlink:href="#DejaVuSans-2d" x="254.492188"/>
       <use xlink:href="#DejaVuSans-30" x="290.576172"/>
       <use xlink:href="#DejaVuSans-35" x="354.199219"/>
      </g>
     </g>
    </g>
    <g id="xtick_18">
     <g id="line2d_53">
      <path d="M 484.946569 584.521875 
L 484.946569 331.135938 
" clip-path="url(#p2656e2e2f9)" style="fill: none; stroke-dasharray: 2.96,1.28; stroke-dashoffset: 0; stroke: #b0b0b0; stroke-width: 0.8"/>
     </g>
     <g id="line2d_54">
      <g>
       <use xlink:href="#m88ea783790" x="484.946569" y="584.521875" style="stroke: #000000; stroke-width: 0.8"/>
      </g>
     </g>
     <g id="text_16">
      <!-- 2022-06 -->
      <g transform="translate(464.055163 599.120312)scale(0.1 -0.1)">
       <use xlink:href="#DejaVuSans-32"/>
       <use xlink:href="#DejaVuSans-30" x="63.623047"/>
       <use xlink:href="#DejaVuSans-32" x="127.246094"/>
       <use xlink:href="#DejaVuSans-32" x="190.869141"/>
       <use xlink:href="#DejaVuSans-2d" x="254.492188"/>
       <use xlink:href="#DejaVuSans-30" x="290.576172"/>
       <use xlink:href="#DejaVuSans-36" x="354.199219"/>
      </g>
     </g>
    </g>
    <g id="xtick_19">
     <g id="line2d_55">
      <path d="M 565.27938 584.521875 
L 565.27938 331.135938 
" clip-path="url(#p2656e2e2f9)" style="fill: none; stroke-dasharray: 2.96,1.28; stroke-dashoffset: 0; stroke: #b0b0b0; stroke-width: 0.8"/>
     </g>
     <g id="line2d_56">
      <g>
       <use xlink:href="#m88ea783790" x="565.27938" y="584.521875" style="stroke: #000000; stroke-width: 0.8"/>
      </g>
     </g>
     <g id="text_17">
      <!-- 2022-07 -->
      <g transform="translate(544.387973 599.120312)scale(0.1 -0.1)">
       <use xlink:href="#DejaVuSans-32"/>
       <use xlink:href="#DejaVuSans-30" x="63.623047"/>
       <use xlink:href="#DejaVuSans-32" x="127.246094"/>
       <use xlink:href="#DejaVuSans-32" x="190.869141"/>
       <use xlink:href="#DejaVuSans-2d" x="254.492188"/>
       <use xlink:href="#DejaVuSans-30" x="290.576172"/>
       <use xlink:href="#DejaVuSans-37" x="354.199219"/>
      </g>
     </g>
    </g>
    <g id="xtick_20">
     <g id="line2d_57">
      <path d="M 648.28995 584.521875 
L 648.28995 331.135938 
" clip-path="url(#p2656e2e2f9)" style="fill: none; stroke-dasharray: 2.96,1.28; stroke-dashoffset: 0; stroke: #b0b0b0; stroke-width: 0.8"/>
     </g>
     <g id="line2d_58">
      <g>
       <use xlink:href="#m88ea783790" x="648.28995" y="584.521875" style="stroke: #000000; stroke-width: 0.8"/>
      </g>
     </g>
     <g id="text_18">
      <!-- 2022-08 -->
      <g transform="translate(627.398544 599.120312)scale(0.1 -0.1)">
       <use xlink:href="#DejaVuSans-32"/>
       <use xlink:href="#DejaVuSans-30" x="63.623047"/>
       <use xlink:href="#DejaVuSans-32" x="127.246094"/>
       <use xlink:href="#DejaVuSans-32" x="190.869141"/>
       <use xlink:href="#DejaVuSans-2d" x="254.492188"/>
       <use xlink:href="#DejaVuSans-30" x="290.576172"/>
       <use xlink:href="#DejaVuSans-38" x="354.199219"/>
      </g>
     </g>
    </g>
    <g id="xtick_21">
     <g id="line2d_59">
      <path d="M 731.300521 584.521875 
L 731.300521 331.135938 
" clip-path="url(#p2656e2e2f9)" style="fill: none; stroke-dasharray: 2.96,1.28; stroke-dashoffset: 0; stroke: #b0b0b0; stroke-width: 0.8"/>
     </g>
     <g id="line2d_60">
      <g>
       <use xlink:href="#m88ea783790" x="731.300521" y="584.521875" style="stroke: #000000; stroke-width: 0.8"/>
      </g>
     </g>
     <g id="text_19">
      <!-- 2022-09 -->
      <g transform="translate(710.409115 599.120312)scale(0.1 -0.1)">
       <use xlink:href="#DejaVuSans-32"/>
       <use xlink:href="#DejaVuSans-30" x="63.623047"/>
       <use xlink:href="#DejaVuSans-32" x="127.246094"/>
       <use xlink:href="#DejaVuSans-32" x="190.869141"/>
       <use xlink:href="#DejaVuSans-2d" x="254.492188"/>
       <use xlink:href="#DejaVuSans-30" x="290.576172"/>
       <use xlink:href="#DejaVuSans-39" x="354.199219"/>
      </g>
     </g>
    </g>
    <g id="xtick_22">
     <g id="line2d_61">
      <path d="M 811.633332 584.521875 
L 811.633332 331.135938 
" clip-path="url(#p2656e2e2f9)" style="fill: none; stroke-dasharray: 2.96,1.28; stroke-dashoffset: 0; stroke: #b0b0b0; stroke-width: 0.8"/>
     </g>
     <g id="line2d_62">
      <g>
       <use xlink:href="#m88ea783790" x="811.633332" y="584.521875" style="stroke: #000000; stroke-width: 0.8"/>
      </g>
     </g>
     <g id="text_20">
      <!-- 2022-10 -->
      <g transform="translate(790.741925 599.120312)scale(0.1 -0.1)">
       <use xlink:href="#DejaVuSans-32"/>
       <use xlink:href="#DejaVuSans-30" x="63.623047"/>
       <use xlink:href="#DejaVuSans-32" x="127.246094"/>
       <use xlink:href="#DejaVuSans-32" x="190.869141"/>
       <use xlink:href="#DejaVuSans-2d" x="254.492188"/>
       <use xlink:href="#DejaVuSans-31" x="290.576172"/>
       <use xlink:href="#DejaVuSans-30" x="354.199219"/>
      </g>
     </g>
    </g>
    <g id="xtick_23">
     <g id="line2d_63">
      <path d="M 894.643902 584.521875 
L 894.643902 331.135938 
" clip-path="url(#p2656e2e2f9)" style="fill: none; stroke-dasharray: 2.96,1.28; stroke-dashoffset: 0; stroke: #b0b0b0; stroke-width: 0.8"/>
     </g>
     <g id="line2d_64">
      <g>
       <use xlink:href="#m88ea783790" x="894.643902" y="584.521875" style="stroke: #000000; stroke-width: 0.8"/>
      </g>
     </g>
     <g id="text_21">
      <!-- 2022-11 -->
      <g transform="translate(873.752496 599.120312)scale(0.1 -0.1)">
       <use xlink:href="#DejaVuSans-32"/>
       <use xlink:href="#DejaVuSans-30" x="63.623047"/>
       <use xlink:href="#DejaVuSans-32" x="127.246094"/>
       <use xlink:href="#DejaVuSans-32" x="190.869141"/>
       <use xlink:href="#DejaVuSans-2d" x="254.492188"/>
       <use xlink:href="#DejaVuSans-31" x="290.576172"/>
       <use xlink:href="#DejaVuSans-31" x="354.199219"/>
      </g>
     </g>
    </g>
    <g id="xtick_24">
     <g id="line2d_65">
      <path d="M 974.976713 584.521875 
L 974.976713 331.135938 
" clip-path="url(#p2656e2e2f9)" style="fill: none; stroke-dasharray: 2.96,1.28; stroke-dashoffset: 0; stroke: #b0b0b0; stroke-width: 0.8"/>
     </g>
     <g id="line2d_66">
      <g>
       <use xlink:href="#m88ea783790" x="974.976713" y="584.521875" style="stroke: #000000; stroke-width: 0.8"/>
      </g>
     </g>
     <g id="text_22">
      <!-- 2022-12 -->
      <g transform="translate(954.085307 599.120312)scale(0.1 -0.1)">
       <use xlink:href="#DejaVuSans-32"/>
       <use xlink:href="#DejaVuSans-30" x="63.623047"/>
       <use xlink:href="#DejaVuSans-32" x="127.246094"/>
       <use xlink:href="#DejaVuSans-32" x="190.869141"/>
       <use xlink:href="#DejaVuSans-2d" x="254.492188"/>
       <use xlink:href="#DejaVuSans-31" x="290.576172"/>
       <use xlink:href="#DejaVuSans-32" x="354.199219"/>
      </g>
     </g>
    </g>
   </g>
   <g id="matplotlib.axis_4">
    <g id="ytick_8">
     <g id="line2d_67">
      <path d="M 43.25 558.462126 
L 982.876106 558.462126 
" clip-path="url(#p2656e2e2f9)" style="fill: none; stroke-dasharray: 2.96,1.28; stroke-dashoffset: 0; stroke: #b0b0b0; stroke-width: 0.8"/>
     </g>
     <g id="line2d_68">
      <g>
       <use xlink:href="#m99a16a2e59" x="43.25" y="558.462126" style="stroke: #000000; stroke-width: 0.8"/>
      </g>
     </g>
     <g id="text_23">
      <!-- 60 -->
      <g transform="translate(15.145313 562.261345)scale(0.1 -0.1)">
       <defs>
        <path id="DejaVuSans-2212" d="M 678 2272 
L 4684 2272 
L 4684 1741 
L 678 1741 
L 678 2272 
z
" transform="scale(0.015625)"/>
       </defs>
       <use xlink:href="#DejaVuSans-2212"/>
       <use xlink:href="#DejaVuSans-36" x="83.789062"/>
       <use xlink:href="#DejaVuSans-30" x="147.412109"/>
      </g>
     </g>
    </g>
    <g id="ytick_9">
     <g id="line2d_69">
      <path d="M 43.25 523.085491 
L 982.876106 523.085491 
" clip-path="url(#p2656e2e2f9)" style="fill: none; stroke-dasharray: 2.96,1.28; stroke-dashoffset: 0; stroke: #b0b0b0; stroke-width: 0.8"/>
     </g>
     <g id="line2d_70">
      <g>
       <use xlink:href="#m99a16a2e59" x="43.25" y="523.085491" style="stroke: #000000; stroke-width: 0.8"/>
      </g>
     </g>
     <g id="text_24">
      <!-- 40 -->
      <g transform="translate(15.145313 526.88471)scale(0.1 -0.1)">
       <use xlink:href="#DejaVuSans-2212"/>
       <use xlink:href="#DejaVuSans-34" x="83.789062"/>
       <use xlink:href="#DejaVuSans-30" x="147.412109"/>
      </g>
     </g>
    </g>
    <g id="ytick_10">
     <g id="line2d_71">
      <path d="M 43.25 487.708856 
L 982.876106 487.708856 
" clip-path="url(#p2656e2e2f9)" style="fill: none; stroke-dasharray: 2.96,1.28; stroke-dashoffset: 0; stroke: #b0b0b0; stroke-width: 0.8"/>
     </g>
     <g id="line2d_72">
      <g>
       <use xlink:href="#m99a16a2e59" x="43.25" y="487.708856" style="stroke: #000000; stroke-width: 0.8"/>
      </g>
     </g>
     <g id="text_25">
      <!-- 20 -->
      <g transform="translate(15.145313 491.508075)scale(0.1 -0.1)">
       <use xlink:href="#DejaVuSans-2212"/>
       <use xlink:href="#DejaVuSans-32" x="83.789062"/>
       <use xlink:href="#DejaVuSans-30" x="147.412109"/>
      </g>
     </g>
    </g>
    <g id="ytick_11">
     <g id="line2d_73">
      <path d="M 43.25 452.332221 
L 982.876106 452.332221 
" clip-path="url(#p2656e2e2f9)" style="fill: none; stroke-dasharray: 2.96,1.28; stroke-dashoffset: 0; stroke: #b0b0b0; stroke-width: 0.8"/>
     </g>
     <g id="line2d_74">
      <g>
       <use xlink:href="#m99a16a2e59" x="43.25" y="452.332221" style="stroke: #000000; stroke-width: 0.8"/>
      </g>
     </g>
     <g id="text_26">
      <!-- 0 -->
      <g transform="translate(29.8875 456.13144)scale(0.1 -0.1)">
       <use xlink:href="#DejaVuSans-30"/>
      </g>
     </g>
    </g>
    <g id="ytick_12">
     <g id="line2d_75">
      <path d="M 43.25 416.955586 
L 982.876106 416.955586 
" clip-path="url(#p2656e2e2f9)" style="fill: none; stroke-dasharray: 2.96,1.28; stroke-dashoffset: 0; stroke: #b0b0b0; stroke-width: 0.8"/>
     </g>
     <g id="line2d_76">
      <g>
       <use xlink:href="#m99a16a2e59" x="43.25" y="416.955586" style="stroke: #000000; stroke-width: 0.8"/>
      </g>
     </g>
     <g id="text_27">
      <!-- 20 -->
      <g transform="translate(23.525 420.754805)scale(0.1 -0.1)">
       <use xlink:href="#DejaVuSans-32"/>
       <use xlink:href="#DejaVuSans-30" x="63.623047"/>
      </g>
     </g>
    </g>
    <g id="ytick_13">
     <g id="line2d_77">
      <path d="M 43.25 381.578951 
L 982.876106 381.578951 
" clip-path="url(#p2656e2e2f9)" style="fill: none; stroke-dasharray: 2.96,1.28; stroke-dashoffset: 0; stroke: #b0b0b0; stroke-width: 0.8"/>
     </g>
     <g id="line2d_78">
      <g>
       <use xlink:href="#m99a16a2e59" x="43.25" y="381.578951" style="stroke: #000000; stroke-width: 0.8"/>
      </g>
     </g>
     <g id="text_28">
      <!-- 40 -->
      <g transform="translate(23.525 385.37817)scale(0.1 -0.1)">
       <use xlink:href="#DejaVuSans-34"/>
       <use xlink:href="#DejaVuSans-30" x="63.623047"/>
      </g>
     </g>
    </g>
    <g id="ytick_14">
     <g id="line2d_79">
      <path d="M 43.25 346.202316 
L 982.876106 346.202316 
" clip-path="url(#p2656e2e2f9)" style="fill: none; stroke-dasharray: 2.96,1.28; stroke-dashoffset: 0; stroke: #b0b0b0; stroke-width: 0.8"/>
     </g>
     <g id="line2d_80">
      <g>
       <use xlink:href="#m99a16a2e59" x="43.25" y="346.202316" style="stroke: #000000; stroke-width: 0.8"/>
      </g>
     </g>
     <g id="text_29">
      <!-- 60 -->
      <g transform="translate(23.525 350.001535)scale(0.1 -0.1)">
       <use xlink:href="#DejaVuSans-36"/>
       <use xlink:href="#DejaVuSans-30" x="63.623047"/>
      </g>
     </g>
    </g>
   </g>
   <g id="line2d_81">
    <path d="M 85.960278 452.332221 
L 88.638038 451.125787 
L 91.315798 447.775417 
L 93.993559 448.055648 
L 96.671319 442.871203 
L 104.7046 436.816268 
L 107.38236 432.555382 
L 110.060121 427.736517 
L 112.737881 426.27883 
L 115.415641 425.582833 
L 123.448922 419.668972 
L 126.126683 422.234125 
L 128.804443 429.107028 
L 131.482203 432.041523 
L 134.159964 438.596615 
L 142.193245 454.621317 
L 144.871005 463.464399 
L 150.226526 473.919828 
L 152.904286 480.563338 
L 160.937567 481.826478 
L 166.293088 472.727821 
L 168.970848 474.382362 
L 171.648609 475.09098 
L 179.68189 478.195982 
L 182.35965 479.633069 
L 185.03741 477.687959 
L 187.715171 472.226826 
L 190.392931 475.181036 
L 198.426212 485.855288 
L 201.103972 484.858032 
L 203.781733 482.50469 
L 206.459493 481.633114 
L 209.137254 479.098927 
L 217.170535 480.819908 
L 219.848295 482.942126 
L 222.526055 486.167546 
L 225.203816 505.1312 
L 227.881576 516.201574 
L 235.914857 519.991803 
L 241.270378 528.960534 
L 246.625898 553.323385 
L 254.659179 565.896914 
L 257.33694 572.845907 
L 260.0147 572.081521 
L 262.69246 561.643837 
L 265.370221 550.654463 
L 273.403502 539.369809 
L 276.081262 531.36907 
L 281.436783 505.802226 
L 292.147824 502.09948 
L 294.825585 496.816041 
L 297.503345 492.22509 
L 300.181105 485.76271 
L 302.858866 481.483377 
L 310.892147 475.020464 
L 313.569907 467.91745 
L 316.247667 456.023696 
L 318.925428 447.181877 
L 321.603188 439.481103 
L 329.636469 432.229238 
L 332.314229 423.610029 
L 334.99199 417.542883 
L 337.66975 415.683742 
L 340.347511 402.11221 
L 348.380792 385.186984 
L 353.736312 378.435664 
L 367.125114 380.12785 
L 369.802874 385.215209 
L 372.480635 387.687974 
L 375.158395 386.472984 
L 377.836155 392.940939 
L 385.869436 401.943156 
L 388.547197 406.150099 
L 391.224957 412.478397 
L 393.902717 416.243257 
L 396.580478 422.36444 
L 404.613759 429.297526 
L 409.96928 443.063465 
L 412.64704 456.116729 
L 415.3248 472.11945 
L 423.358081 486.383094 
L 426.035842 498.529968 
L 428.713602 508.471392 
L 431.391362 522.597466 
L 434.069123 534.379257 
L 444.780164 549.742933 
L 447.457924 550.807722 
L 450.135685 554.686179 
L 452.813445 552.250455 
L 460.846726 553.567796 
L 463.524487 561.152974 
L 466.202247 569.691477 
L 468.880007 572.646034 
L 471.557768 573.004332 
L 479.591049 565.661533 
L 482.268809 560.36607 
L 484.946569 553.86463 
L 487.62433 548.178028 
L 490.30209 555.763065 
L 498.335371 562.325532 
L 501.013131 566.220563 
L 503.690892 567.678046 
L 506.368652 570.277463 
L 509.046412 568.515206 
L 517.079693 570.599982 
L 519.757454 568.515422 
L 522.435214 562.40503 
L 525.112974 562.944724 
L 527.790735 561.401574 
L 535.824016 555.288427 
L 538.501776 546.771962 
L 541.179537 540.321275 
L 543.857297 535.513216 
L 546.535057 529.782431 
L 554.568338 520.734459 
L 557.246099 513.747898 
L 559.923859 510.36783 
L 562.601619 507.410982 
L 565.27938 500.727689 
L 573.312661 494.439088 
L 575.990421 489.180421 
L 578.668181 481.83265 
L 581.345942 475.005961 
L 584.023702 467.070927 
L 592.056983 458.618982 
L 594.734744 455.586937 
L 597.412504 450.479335 
L 600.090264 447.535846 
L 602.768025 444.38132 
L 610.801306 437.753345 
L 613.479066 430.765345 
L 616.156826 425.6138 
L 618.834587 418.643926 
L 621.512347 405.559665 
L 629.545628 399.065637 
L 632.223388 392.277754 
L 634.901149 383.128764 
L 637.578909 376.220269 
L 640.256669 368.514335 
L 648.28995 364.081182 
L 650.967711 358.586996 
L 653.645471 355.774064 
L 656.323232 355.728844 
L 659.000992 354.120428 
L 667.034273 353.930111 
L 672.389794 353.173893 
L 675.067554 355.242386 
L 677.745314 354.787579 
L 688.456356 359.924101 
L 691.134116 361.473963 
L 693.811876 364.118753 
L 696.489637 368.310875 
L 704.522918 378.443847 
L 707.200678 382.801247 
L 709.878438 384.637014 
L 712.556199 385.068853 
L 715.233959 379.062137 
L 723.26724 376.771361 
L 725.945001 373.777583 
L 731.300521 371.431237 
L 733.978282 370.105681 
L 742.011563 366.779991 
L 744.689323 363.413781 
L 747.367083 357.965858 
L 750.044844 351.993212 
L 752.722604 351.505081 
L 760.755885 349.421386 
L 763.433645 345.970248 
L 766.111406 345.445024 
L 768.789166 342.65348 
L 771.466926 350.704548 
L 779.500207 357.500275 
L 782.177968 364.991764 
L 784.855728 374.932547 
L 787.533489 381.789781 
L 790.211249 392.947106 
L 798.24453 406.873603 
L 803.600051 425.265402 
L 806.277811 434.79757 
L 808.955571 439.7776 
L 816.988852 449.240773 
L 819.666613 449.994817 
L 825.022133 450.725112 
L 827.699894 449.227266 
L 835.733175 451.468549 
L 838.410935 457.389875 
L 841.088695 458.140498 
L 843.766456 457.519465 
L 846.444216 454.744354 
L 854.477497 453.163487 
L 857.155258 452.324643 
L 859.833018 452.217819 
L 862.510778 451.486353 
L 865.188539 452.602036 
L 873.22182 450.368799 
L 875.89958 446.433218 
L 881.255101 442.041254 
L 883.932861 444.396943 
L 891.966142 441.041622 
L 894.643902 432.953784 
L 897.321663 427.014374 
L 899.999423 424.681402 
L 902.677183 420.424223 
L 910.710465 416.027307 
L 916.065985 417.18693 
L 918.743746 424.274167 
L 921.421506 429.596292 
L 929.454787 428.373957 
L 932.132547 429.805866 
L 934.810308 432.031063 
L 937.488068 436.383395 
L 940.165828 440.229081 
L 940.165828 440.229081 
" clip-path="url(#p2656e2e2f9)" style="fill: none; stroke: #1f77b4; stroke-width: 1.5; stroke-linecap: square"/>
   </g>
   <g id="line2d_82">
    <path d="M 85.960278 452.332221 
L 88.638038 451.66198 
L 91.315798 450.069127 
L 93.993559 449.387054 
L 96.671319 447.448735 
L 104.7046 444.566746 
L 107.38236 441.52699 
L 110.060121 438.21288 
L 112.737881 435.456055 
L 115.415641 433.24388 
L 123.448922 430.273768 
L 126.126683 428.54719 
L 128.804443 428.665671 
L 131.482203 429.371902 
L 134.159964 431.284125 
L 142.193245 436.086745 
L 144.871005 441.688414 
L 150.226526 448.252953 
L 152.904286 454.80952 
L 160.937567 460.275935 
L 163.615328 463.715953 
L 168.970848 467.312363 
L 171.648609 468.875468 
L 179.68189 470.74664 
L 182.35965 472.529314 
L 185.03741 473.563543 
L 187.715171 473.295682 
L 190.392931 473.673337 
L 198.426212 476.112747 
L 201.103972 477.863538 
L 203.781733 478.792504 
L 206.459493 479.360987 
L 209.137254 479.308548 
L 217.170535 479.610943 
L 219.848295 480.277396 
L 222.526055 481.455732 
L 225.203816 486.191809 
L 227.881576 492.194759 
L 235.914857 497.754907 
L 241.270378 503.996696 
L 243.948138 511.439603 
L 246.625898 519.81693 
L 254.659179 529.033428 
L 257.33694 537.796306 
L 260.0147 544.653588 
L 262.69246 548.051733 
L 265.370221 548.57229 
L 273.403502 546.731761 
L 276.081262 543.659179 
L 278.759023 538.664514 
L 281.436783 532.091997 
L 292.147824 526.09345 
L 297.503345 514.635339 
L 300.181105 508.860791 
L 302.858866 503.385292 
L 310.892147 497.712313 
L 313.569907 491.753329 
L 316.247667 484.607391 
L 321.603188 469.594037 
L 329.636469 462.121071 
L 334.99199 447.043659 
L 337.66975 440.771673 
L 340.347511 433.039778 
L 348.380792 423.469217 
L 351.058552 415.130074 
L 353.736312 407.79119 
L 367.125114 402.258522 
L 369.802874 398.849859 
L 372.480635 396.617482 
L 375.158395 394.588582 
L 377.836155 394.259053 
L 385.869436 395.795874 
L 388.547197 397.866719 
L 391.224957 400.789055 
L 393.902717 403.879895 
L 396.580478 407.576804 
L 404.613759 411.920949 
L 409.96928 418.149452 
L 412.64704 425.742907 
L 415.3248 435.018216 
L 423.358081 445.291192 
L 431.391362 477.675842 
L 434.069123 489.016525 
L 442.102404 500.392424 
L 444.780164 510.262526 
L 447.457924 518.371565 
L 450.135685 525.634488 
L 452.813445 530.957681 
L 460.846726 535.479704 
L 463.524487 540.614358 
L 466.202247 546.429782 
L 468.880007 551.673032 
L 471.557768 555.939292 
L 479.591049 557.883741 
L 482.268809 558.380207 
L 484.946569 557.477091 
L 487.62433 555.617279 
L 490.30209 555.646436 
L 498.335371 556.982255 
L 506.368652 562.535127 
L 509.046412 563.731142 
L 517.079693 565.10491 
L 519.757454 565.787013 
L 522.435214 565.110616 
L 525.112974 564.677438 
L 527.790735 564.022265 
L 535.824016 562.275497 
L 538.501776 559.17479 
L 541.179537 555.404087 
L 543.857297 551.425913 
L 546.535057 547.097216 
L 554.568338 541.824665 
L 557.246099 536.209311 
L 559.923859 531.041015 
L 562.601619 526.315008 
L 565.27938 521.197545 
L 573.312661 515.845853 
L 575.990421 510.512767 
L 581.345942 498.822587 
L 584.023702 492.472255 
L 592.056983 485.7016 
L 597.412504 473.838801 
L 600.090264 468.57821 
L 602.768025 463.738832 
L 610.801306 458.541735 
L 618.834587 441.738326 
L 621.512347 434.502593 
L 629.545628 427.415202 
L 632.223388 420.387713 
L 640.256669 398.177101 
L 648.28995 391.357917 
L 650.967711 384.803733 
L 653.645471 378.997799 
L 656.323232 374.344008 
L 659.000992 370.299292 
L 667.034273 367.025456 
L 672.389794 364.255143 
L 675.067554 362.452592 
L 677.745314 360.919589 
L 688.456356 360.720491 
L 691.134116 360.871186 
L 693.811876 361.520699 
L 696.489637 362.878734 
L 704.522918 365.991757 
L 707.200678 369.353655 
L 709.878438 372.410327 
L 712.556199 374.942032 
L 715.233959 375.766053 
L 723.26724 375.967115 
L 731.300521 374.709614 
L 733.978282 373.788827 
L 742.011563 372.38706 
L 744.689323 370.592404 
L 747.367083 368.067095 
L 750.044844 364.852318 
L 752.722604 362.182871 
L 760.755885 359.630574 
L 763.433645 356.898509 
L 768.789166 352.216946 
L 771.466926 351.914466 
L 779.500207 353.031628 
L 782.177968 355.423655 
L 784.855728 359.325434 
L 787.533489 363.818303 
L 790.211249 369.644064 
L 798.24453 377.089972 
L 803.600051 392.934168 
L 806.277811 401.306849 
L 808.955571 409.000999 
L 816.988852 417.048954 
L 819.666613 423.638126 
L 825.022133 429.055523 
L 827.699894 433.089872 
L 835.733175 436.765607 
L 838.410935 440.890461 
L 841.088695 444.340468 
L 843.766456 446.976268 
L 846.444216 448.529885 
L 854.477497 449.456605 
L 857.155258 450.030213 
L 859.833018 450.467734 
L 862.510778 450.671458 
L 865.188539 451.057574 
L 873.22182 450.919819 
L 875.89958 450.022499 
L 883.932861 447.620388 
L 891.966142 446.304635 
L 894.643902 443.634465 
L 897.321663 440.310447 
L 899.999423 437.184638 
L 902.677183 433.832555 
L 910.710465 430.271505 
L 916.065985 427.65459 
L 918.743746 426.978506 
L 921.421506 427.502063 
L 929.454787 427.676442 
L 932.132547 428.102326 
L 934.810308 428.888074 
L 937.488068 430.387138 
L 940.165828 432.355527 
L 940.165828 432.355527 
" clip-path="url(#p2656e2e2f9)" style="fill: none; stroke: #ff7f0e; stroke-width: 1.5; stroke-linecap: square"/>
   </g>
   <g id="patch_9">
    <path d="M 43.25 584.521875 
L 43.25 331.135937 
" style="fill: none; stroke: #000000; stroke-width: 0.8; stroke-linejoin: miter; stroke-linecap: square"/>
   </g>
   <g id="patch_10">
    <path d="M 982.876106 584.521875 
L 982.876106 331.135937 
" style="fill: none; stroke: #000000; stroke-width: 0.8; stroke-linejoin: miter; stroke-linecap: square"/>
   </g>
   <g id="patch_11">
    <path d="M 43.25 584.521875 
L 982.876106 584.521875 
" style="fill: none; stroke: #000000; stroke-width: 0.8; stroke-linejoin: miter; stroke-linecap: square"/>
   </g>
   <g id="patch_12">
    <path d="M 43.25 331.135938 
L 982.876106 331.135938 
" style="fill: none; stroke: #000000; stroke-width: 0.8; stroke-linejoin: miter; stroke-linecap: square"/>
   </g>
   <g id="text_30">
    <!-- MACD -->
    <g transform="translate(495.077115 325.135938)scale(0.12 -0.12)">
     <defs>
      <path id="DejaVuSans-44" d="M 1259 4147 
L 1259 519 
L 2022 519 
Q 2988 519 3436 956 
Q 3884 1394 3884 2338 
Q 3884 3275 3436 3711 
Q 2988 4147 2022 4147 
L 1259 4147 
z
M 628 4666 
L 1925 4666 
Q 3281 4666 3915 4102 
Q 4550 3538 4550 2338 
Q 4550 1131 3912 565 
Q 3275 0 1925 0 
L 628 0 
L 628 4666 
z
" transform="scale(0.015625)"/>
     </defs>
     <use xlink:href="#DejaVuSans-4d"/>
     <use xlink:href="#DejaVuSans-41" x="86.279297"/>
     <use xlink:href="#DejaVuSans-43" x="152.9375"/>
     <use xlink:href="#DejaVuSans-44" x="222.761719"/>
    </g>
   </g>
   <g id="legend_2">
    <g id="patch_13">
     <path d="M 913.899543 368.492188 
L 975.876106 368.492188 
Q 977.876106 368.492188 977.876106 366.492188 
L 977.876106 338.135938 
Q 977.876106 336.135938 975.876106 336.135938 
L 913.899543 336.135938 
Q 911.899543 336.135938 911.899543 338.135938 
L 911.899543 366.492188 
Q 911.899543 368.492188 913.899543 368.492188 
z
" style="fill: #ffffff; opacity: 0.8; stroke: #cccccc; stroke-linejoin: miter"/>
    </g>
    <g id="line2d_83">
     <path d="M 915.899543 344.234375 
L 925.899543 344.234375 
L 935.899543 344.234375 
" style="fill: none; stroke: #1f77b4; stroke-width: 1.5; stroke-linecap: square"/>
    </g>
    <g id="text_31">
     <!-- MACD -->
     <g transform="translate(943.899543 347.734375)scale(0.1 -0.1)">
      <use xlink:href="#DejaVuSans-4d"/>
      <use xlink:href="#DejaVuSans-41" x="86.279297"/>
      <use xlink:href="#DejaVuSans-43" x="152.9375"/>
      <use xlink:href="#DejaVuSans-44" x="222.761719"/>
     </g>
    </g>
    <g id="line2d_84">
     <path d="M 915.899543 358.9125 
L 925.899543 358.9125 
L 935.899543 358.9125 
" style="fill: none; stroke: #ff7f0e; stroke-width: 1.5; stroke-linecap: square"/>
    </g>
    <g id="text_32">
     <!-- SIG -->
     <g transform="translate(943.899543 362.4125)scale(0.1 -0.1)">
      <defs>
       <path id="DejaVuSans-49" d="M 628 4666 
L 1259 4666 
L 1259 0 
L 628 0 
L 628 4666 
z
" transform="scale(0.015625)"/>
       <path id="DejaVuSans-47" d="M 3809 666 
L 3809 1919 
L 2778 1919 
L 2778 2438 
L 4434 2438 
L 4434 434 
Q 4069 175 3628 42 
Q 3188 -91 2688 -91 
Q 1594 -91 976 548 
Q 359 1188 359 2328 
Q 359 3472 976 4111 
Q 1594 4750 2688 4750 
Q 3144 4750 3555 4637 
Q 3966 4525 4313 4306 
L 4313 3634 
Q 3963 3931 3569 4081 
Q 3175 4231 2741 4231 
Q 1884 4231 1454 3753 
Q 1025 3275 1025 2328 
Q 1025 1384 1454 906 
Q 1884 428 2741 428 
Q 3075 428 3337 486 
Q 3600 544 3809 666 
z
" transform="scale(0.015625)"/>
      </defs>
      <use xlink:href="#DejaVuSans-53"/>
      <use xlink:href="#DejaVuSans-49" x="63.476562"/>
      <use xlink:href="#DejaVuSans-47" x="92.96875"/>
     </g>
    </g>
   </g>
  </g>
  <g id="text_33">
   <!-- Grasim Industries Limited -->
   <g transform="translate(426.769688 21.358125)scale(0.12 -0.12)">
    <defs>
     <path id="DejaVuSans-61" d="M 2194 1759 
Q 1497 1759 1228 1600 
Q 959 1441 959 1056 
Q 959 750 1161 570 
Q 1363 391 1709 391 
Q 2188 391 2477 730 
Q 2766 1069 2766 1631 
L 2766 1759 
L 2194 1759 
z
M 3341 1997 
L 3341 0 
L 2766 0 
L 2766 531 
Q 2569 213 2275 61 
Q 1981 -91 1556 -91 
Q 1019 -91 701 211 
Q 384 513 384 1019 
Q 384 1609 779 1909 
Q 1175 2209 1959 2209 
L 2766 2209 
L 2766 2266 
Q 2766 2663 2505 2880 
Q 2244 3097 1772 3097 
Q 1472 3097 1187 3025 
Q 903 2953 641 2809 
L 641 3341 
Q 956 3463 1253 3523 
Q 1550 3584 1831 3584 
Q 2591 3584 2966 3190 
Q 3341 2797 3341 1997 
z
" transform="scale(0.015625)"/>
     <path id="DejaVuSans-6d" d="M 3328 2828 
Q 3544 3216 3844 3400 
Q 4144 3584 4550 3584 
Q 5097 3584 5394 3201 
Q 5691 2819 5691 2113 
L 5691 0 
L 5113 0 
L 5113 2094 
Q 5113 2597 4934 2840 
Q 4756 3084 4391 3084 
Q 3944 3084 3684 2787 
Q 3425 2491 3425 1978 
L 3425 0 
L 2847 0 
L 2847 2094 
Q 2847 2600 2669 2842 
Q 2491 3084 2119 3084 
Q 1678 3084 1418 2786 
Q 1159 2488 1159 1978 
L 1159 0 
L 581 0 
L 581 3500 
L 1159 3500 
L 1159 2956 
Q 1356 3278 1631 3431 
Q 1906 3584 2284 3584 
Q 2666 3584 2933 3390 
Q 3200 3197 3328 2828 
z
" transform="scale(0.015625)"/>
     <path id="DejaVuSans-64" d="M 2906 2969 
L 2906 4863 
L 3481 4863 
L 3481 0 
L 2906 0 
L 2906 525 
Q 2725 213 2448 61 
Q 2172 -91 1784 -91 
Q 1150 -91 751 415 
Q 353 922 353 1747 
Q 353 2572 751 3078 
Q 1150 3584 1784 3584 
Q 2172 3584 2448 3432 
Q 2725 3281 2906 2969 
z
M 947 1747 
Q 947 1113 1208 752 
Q 1469 391 1925 391 
Q 2381 391 2643 752 
Q 2906 1113 2906 1747 
Q 2906 2381 2643 2742 
Q 2381 3103 1925 3103 
Q 1469 3103 1208 2742 
Q 947 2381 947 1747 
z
" transform="scale(0.015625)"/>
     <path id="DejaVuSans-75" d="M 544 1381 
L 544 3500 
L 1119 3500 
L 1119 1403 
Q 1119 906 1312 657 
Q 1506 409 1894 409 
Q 2359 409 2629 706 
Q 2900 1003 2900 1516 
L 2900 3500 
L 3475 3500 
L 3475 0 
L 2900 0 
L 2900 538 
Q 2691 219 2414 64 
Q 2138 -91 1772 -91 
Q 1169 -91 856 284 
Q 544 659 544 1381 
z
M 1991 3584 
L 1991 3584 
z
" transform="scale(0.015625)"/>
     <path id="DejaVuSans-74" d="M 1172 4494 
L 1172 3500 
L 2356 3500 
L 2356 3053 
L 1172 3053 
L 1172 1153 
Q 1172 725 1289 603 
Q 1406 481 1766 481 
L 2356 481 
L 2356 0 
L 1766 0 
Q 1100 0 847 248 
Q 594 497 594 1153 
L 594 3053 
L 172 3053 
L 172 3500 
L 594 3500 
L 594 4494 
L 1172 4494 
z
" transform="scale(0.015625)"/>
    </defs>
    <use xlink:href="#DejaVuSans-47"/>
    <use xlink:href="#DejaVuSans-72" x="77.490234"/>
    <use xlink:href="#DejaVuSans-61" x="118.603516"/>
    <use xlink:href="#DejaVuSans-73" x="179.882812"/>
    <use xlink:href="#DejaVuSans-69" x="231.982422"/>
    <use xlink:href="#DejaVuSans-6d" x="259.765625"/>
    <use xlink:href="#DejaVuSans-20" x="357.177734"/>
    <use xlink:href="#DejaVuSans-49" x="388.964844"/>
    <use xlink:href="#DejaVuSans-6e" x="418.457031"/>
    <use xlink:href="#DejaVuSans-64" x="481.835938"/>
    <use xlink:href="#DejaVuSans-75" x="545.3125"/>
    <use xlink:href="#DejaVuSans-73" x="608.691406"/>
    <use xlink:href="#DejaVuSans-74" x="660.791016"/>
    <use xlink:href="#DejaVuSans-72" x="700"/>
    <use xlink:href="#DejaVuSans-69" x="741.113281"/>
    <use xlink:href="#DejaVuSans-65" x="768.896484"/>
    <use xlink:href="#DejaVuSans-73" x="830.419922"/>
    <use xlink:href="#DejaVuSans-20" x="882.519531"/>
    <use xlink:href="#DejaVuSans-4c" x="914.306641"/>
    <use xlink:href="#DejaVuSans-69" x="970.019531"/>
    <use xlink:href="#DejaVuSans-6d" x="997.802734"/>
    <use xlink:href="#DejaVuSans-69" x="1095.214844"/>
    <use xlink:href="#DejaVuSans-74" x="1122.998047"/>
    <use xlink:href="#DejaVuSans-65" x="1162.207031"/>
    <use xlink:href="#DejaVuSans-64" x="1223.730469"/>
   </g>
  </g>
 </g>
 <defs>
  <clipPath id="pc13eb2294d">
   <rect x="43.25" y="48.331875" width="939.626106" height="253.385938"/>
  </clipPath>
  <clipPath id="p2656e2e2f9">
   <rect x="43.25" y="331.135938" width="939.626106" height="253.385937"/>
  </clipPath>
 </defs>
</svg>
