<?xml version="1.0" encoding="utf-8" standalone="no"?>
<!DOCTYPE svg PUBLIC "-//W3C//DTD SVG 1.1//EN"
  "http://www.w3.org/Graphics/SVG/1.1/DTD/svg11.dtd">
<svg xmlns:xlink="http://www.w3.org/1999/xlink" width="1008pt" height="612pt" viewBox="0 0 1008 612" xmlns="http://www.w3.org/2000/svg" version="1.1">
 <metadata>
  <rdf:RDF xmlns:dc="http://purl.org/dc/elements/1.1/" xmlns:cc="http://creativecommons.org/ns#" xmlns:rdf="http://www.w3.org/1999/02/22-rdf-syntax-ns#">
   <cc:Work>
    <dc:type rdf:resource="http://purl.org/dc/dcmitype/StillImage"/>
    <dc:date>2022-11-20T19:47:09.494826</dc:date>
    <dc:format>image/svg+xml</dc:format>
    <dc:creator>
     <cc:Agent>
      <dc:title>Matplotlib v3.5.2, https://matplotlib.org/</dc:title>
     </cc:Agent>
    </dc:creator>
   </cc:Work>
  </rdf:RDF>
 </metadata>
 <defs>
  <style type="text/css">*{stroke-linejoin: round; stroke-linecap: butt}</style>
 </defs>
 <g id="figure_1">
  <g id="patch_1">
   <path d="M 0 612 
L 1008 612 
L 1008 0 
L 0 0 
z
" style="fill: #ffffff"/>
  </g>
  <g id="axes_1">
   <g id="patch_2">
    <path d="M 45.267188 301.457662 
L 982.876106 301.457662 
L 982.876106 48.331875 
L 45.267188 48.331875 
z
" style="fill: #ffffff"/>
   </g>
   <g id="matplotlib.axis_1">
    <g id="xtick_1">
     <g id="line2d_1">
      <path d="M 82.541751 301.457662 
L 82.541751 48.331875 
" clip-path="url(#p563f296b83)" style="fill: none; stroke-dasharray: 2.96,1.28; stroke-dashoffset: 0; stroke: #b0b0b0; stroke-width: 0.8"/>
     </g>
     <g id="line2d_2">
      <defs>
       <path id="md42ec7399b" d="M 0 0 
L 0 3.5 
" style="stroke: #000000; stroke-width: 0.8"/>
      </defs>
      <g>
       <use xlink:href="#md42ec7399b" x="82.541751" y="301.457662" style="stroke: #000000; stroke-width: 0.8"/>
      </g>
     </g>
    </g>
    <g id="xtick_2">
     <g id="line2d_3">
      <path d="M 165.374115 301.457662 
L 165.374115 48.331875 
" clip-path="url(#p563f296b83)" style="fill: none; stroke-dasharray: 2.96,1.28; stroke-dashoffset: 0; stroke: #b0b0b0; stroke-width: 0.8"/>
     </g>
     <g id="line2d_4">
      <g>
       <use xlink:href="#md42ec7399b" x="165.374115" y="301.457662" style="stroke: #000000; stroke-width: 0.8"/>
      </g>
     </g>
    </g>
    <g id="xtick_3">
     <g id="line2d_5">
      <path d="M 240.190444 301.457662 
L 240.190444 48.331875 
" clip-path="url(#p563f296b83)" style="fill: none; stroke-dasharray: 2.96,1.28; stroke-dashoffset: 0; stroke: #b0b0b0; stroke-width: 0.8"/>
     </g>
     <g id="line2d_6">
      <g>
       <use xlink:href="#md42ec7399b" x="240.190444" y="301.457662" style="stroke: #000000; stroke-width: 0.8"/>
      </g>
     </g>
    </g>
    <g id="xtick_4">
     <g id="line2d_7">
      <path d="M 323.022808 301.457662 
L 323.022808 48.331875 
" clip-path="url(#p563f296b83)" style="fill: none; stroke-dasharray: 2.96,1.28; stroke-dashoffset: 0; stroke: #b0b0b0; stroke-width: 0.8"/>
     </g>
     <g id="line2d_8">
      <g>
       <use xlink:href="#md42ec7399b" x="323.022808" y="301.457662" style="stroke: #000000; stroke-width: 0.8"/>
      </g>
     </g>
    </g>
    <g id="xtick_5">
     <g id="line2d_9">
      <path d="M 403.18316 301.457662 
L 403.18316 48.331875 
" clip-path="url(#p563f296b83)" style="fill: none; stroke-dasharray: 2.96,1.28; stroke-dashoffset: 0; stroke: #b0b0b0; stroke-width: 0.8"/>
     </g>
     <g id="line2d_10">
      <g>
       <use xlink:href="#md42ec7399b" x="403.18316" y="301.457662" style="stroke: #000000; stroke-width: 0.8"/>
      </g>
     </g>
    </g>
    <g id="xtick_6">
     <g id="line2d_11">
      <path d="M 486.015523 301.457662 
L 486.015523 48.331875 
" clip-path="url(#p563f296b83)" style="fill: none; stroke-dasharray: 2.96,1.28; stroke-dashoffset: 0; stroke: #b0b0b0; stroke-width: 0.8"/>
     </g>
     <g id="line2d_12">
      <g>
       <use xlink:href="#md42ec7399b" x="486.015523" y="301.457662" style="stroke: #000000; stroke-width: 0.8"/>
      </g>
     </g>
    </g>
    <g id="xtick_7">
     <g id="line2d_13">
      <path d="M 566.175876 301.457662 
L 566.175876 48.331875 
" clip-path="url(#p563f296b83)" style="fill: none; stroke-dasharray: 2.96,1.28; stroke-dashoffset: 0; stroke: #b0b0b0; stroke-width: 0.8"/>
     </g>
     <g id="line2d_14">
      <g>
       <use xlink:href="#md42ec7399b" x="566.175876" y="301.457662" style="stroke: #000000; stroke-width: 0.8"/>
      </g>
     </g>
    </g>
    <g id="xtick_8">
     <g id="line2d_15">
      <path d="M 649.008239 301.457662 
L 649.008239 48.331875 
" clip-path="url(#p563f296b83)" style="fill: none; stroke-dasharray: 2.96,1.28; stroke-dashoffset: 0; stroke: #b0b0b0; stroke-width: 0.8"/>
     </g>
     <g id="line2d_16">
      <g>
       <use xlink:href="#md42ec7399b" x="649.008239" y="301.457662" style="stroke: #000000; stroke-width: 0.8"/>
      </g>
     </g>
    </g>
    <g id="xtick_9">
     <g id="line2d_17">
      <path d="M 731.840603 301.457662 
L 731.840603 48.331875 
" clip-path="url(#p563f296b83)" style="fill: none; stroke-dasharray: 2.96,1.28; stroke-dashoffset: 0; stroke: #b0b0b0; stroke-width: 0.8"/>
     </g>
     <g id="line2d_18">
      <g>
       <use xlink:href="#md42ec7399b" x="731.840603" y="301.457662" style="stroke: #000000; stroke-width: 0.8"/>
      </g>
     </g>
    </g>
    <g id="xtick_10">
     <g id="line2d_19">
      <path d="M 812.000955 301.457662 
L 812.000955 48.331875 
" clip-path="url(#p563f296b83)" style="fill: none; stroke-dasharray: 2.96,1.28; stroke-dashoffset: 0; stroke: #b0b0b0; stroke-width: 0.8"/>
     </g>
     <g id="line2d_20">
      <g>
       <use xlink:href="#md42ec7399b" x="812.000955" y="301.457662" style="stroke: #000000; stroke-width: 0.8"/>
      </g>
     </g>
    </g>
    <g id="xtick_11">
     <g id="line2d_21">
      <path d="M 894.833319 301.457662 
L 894.833319 48.331875 
" clip-path="url(#p563f296b83)" style="fill: none; stroke-dasharray: 2.96,1.28; stroke-dashoffset: 0; stroke: #b0b0b0; stroke-width: 0.8"/>
     </g>
     <g id="line2d_22">
      <g>
       <use xlink:href="#md42ec7399b" x="894.833319" y="301.457662" style="stroke: #000000; stroke-width: 0.8"/>
      </g>
     </g>
    </g>
    <g id="xtick_12">
     <g id="line2d_23">
      <path d="M 974.993671 301.457662 
L 974.993671 48.331875 
" clip-path="url(#p563f296b83)" style="fill: none; stroke-dasharray: 2.96,1.28; stroke-dashoffset: 0; stroke: #b0b0b0; stroke-width: 0.8"/>
     </g>
     <g id="line2d_24">
      <g>
       <use xlink:href="#md42ec7399b" x="974.993671" y="301.457662" style="stroke: #000000; stroke-width: 0.8"/>
      </g>
     </g>
    </g>
   </g>
   <g id="matplotlib.axis_2">
    <g id="ytick_1">
     <g id="line2d_25">
      <path d="M 45.267188 299.261299 
L 982.876106 299.261299 
" clip-path="url(#p563f296b83)" style="fill: none; stroke-dasharray: 2.96,1.28; stroke-dashoffset: 0; stroke: #b0b0b0; stroke-width: 0.8"/>
     </g>
     <g id="line2d_26">
      <defs>
       <path id="m42a13f4ce6" d="M 0 0 
L -3.5 0 
" style="stroke: #000000; stroke-width: 0.8"/>
      </defs>
      <g>
       <use xlink:href="#m42a13f4ce6" x="45.267188" y="299.261299" style="stroke: #000000; stroke-width: 0.8"/>
      </g>
     </g>
     <g id="text_1">
      <!-- 3200 -->
      <g transform="translate(12.817188 303.060518)scale(0.1 -0.1)">
       <defs>
        <path id="DejaVuSans-33" d="M 2597 2516 
Q 3050 2419 3304 2112 
Q 3559 1806 3559 1356 
Q 3559 666 3084 287 
Q 2609 -91 1734 -91 
Q 1441 -91 1130 -33 
Q 819 25 488 141 
L 488 750 
Q 750 597 1062 519 
Q 1375 441 1716 441 
Q 2309 441 2620 675 
Q 2931 909 2931 1356 
Q 2931 1769 2642 2001 
Q 2353 2234 1838 2234 
L 1294 2234 
L 1294 2753 
L 1863 2753 
Q 2328 2753 2575 2939 
Q 2822 3125 2822 3475 
Q 2822 3834 2567 4026 
Q 2313 4219 1838 4219 
Q 1578 4219 1281 4162 
Q 984 4106 628 3988 
L 628 4550 
Q 988 4650 1302 4700 
Q 1616 4750 1894 4750 
Q 2613 4750 3031 4423 
Q 3450 4097 3450 3541 
Q 3450 3153 3228 2886 
Q 3006 2619 2597 2516 
z
" transform="scale(0.015625)"/>
        <path id="DejaVuSans-32" d="M 1228 531 
L 3431 531 
L 3431 0 
L 469 0 
L 469 531 
Q 828 903 1448 1529 
Q 2069 2156 2228 2338 
Q 2531 2678 2651 2914 
Q 2772 3150 2772 3378 
Q 2772 3750 2511 3984 
Q 2250 4219 1831 4219 
Q 1534 4219 1204 4116 
Q 875 4013 500 3803 
L 500 4441 
Q 881 4594 1212 4672 
Q 1544 4750 1819 4750 
Q 2544 4750 2975 4387 
Q 3406 4025 3406 3419 
Q 3406 3131 3298 2873 
Q 3191 2616 2906 2266 
Q 2828 2175 2409 1742 
Q 1991 1309 1228 531 
z
" transform="scale(0.015625)"/>
        <path id="DejaVuSans-30" d="M 2034 4250 
Q 1547 4250 1301 3770 
Q 1056 3291 1056 2328 
Q 1056 1369 1301 889 
Q 1547 409 2034 409 
Q 2525 409 2770 889 
Q 3016 1369 3016 2328 
Q 3016 3291 2770 3770 
Q 2525 4250 2034 4250 
z
M 2034 4750 
Q 2819 4750 3233 4129 
Q 3647 3509 3647 2328 
Q 3647 1150 3233 529 
Q 2819 -91 2034 -91 
Q 1250 -91 836 529 
Q 422 1150 422 2328 
Q 422 3509 836 4129 
Q 1250 4750 2034 4750 
z
" transform="scale(0.015625)"/>
       </defs>
       <use xlink:href="#DejaVuSans-33"/>
       <use xlink:href="#DejaVuSans-32" x="63.623047"/>
       <use xlink:href="#DejaVuSans-30" x="127.246094"/>
       <use xlink:href="#DejaVuSans-30" x="190.869141"/>
      </g>
     </g>
    </g>
    <g id="ytick_2">
     <g id="line2d_27">
      <path d="M 45.267188 245.52765 
L 982.876106 245.52765 
" clip-path="url(#p563f296b83)" style="fill: none; stroke-dasharray: 2.96,1.28; stroke-dashoffset: 0; stroke: #b0b0b0; stroke-width: 0.8"/>
     </g>
     <g id="line2d_28">
      <g>
       <use xlink:href="#m42a13f4ce6" x="45.267188" y="245.52765" style="stroke: #000000; stroke-width: 0.8"/>
      </g>
     </g>
     <g id="text_2">
      <!-- 3400 -->
      <g transform="translate(12.817188 249.326869)scale(0.1 -0.1)">
       <defs>
        <path id="DejaVuSans-34" d="M 2419 4116 
L 825 1625 
L 2419 1625 
L 2419 4116 
z
M 2253 4666 
L 3047 4666 
L 3047 1625 
L 3713 1625 
L 3713 1100 
L 3047 1100 
L 3047 0 
L 2419 0 
L 2419 1100 
L 313 1100 
L 313 1709 
L 2253 4666 
z
" transform="scale(0.015625)"/>
       </defs>
       <use xlink:href="#DejaVuSans-33"/>
       <use xlink:href="#DejaVuSans-34" x="63.623047"/>
       <use xlink:href="#DejaVuSans-30" x="127.246094"/>
       <use xlink:href="#DejaVuSans-30" x="190.869141"/>
      </g>
     </g>
    </g>
    <g id="ytick_3">
     <g id="line2d_29">
      <path d="M 45.267188 191.794001 
L 982.876106 191.794001 
" clip-path="url(#p563f296b83)" style="fill: none; stroke-dasharray: 2.96,1.28; stroke-dashoffset: 0; stroke: #b0b0b0; stroke-width: 0.8"/>
     </g>
     <g id="line2d_30">
      <g>
       <use xlink:href="#m42a13f4ce6" x="45.267188" y="191.794001" style="stroke: #000000; stroke-width: 0.8"/>
      </g>
     </g>
     <g id="text_3">
      <!-- 3600 -->
      <g transform="translate(12.817188 195.59322)scale(0.1 -0.1)">
       <defs>
        <path id="DejaVuSans-36" d="M 2113 2584 
Q 1688 2584 1439 2293 
Q 1191 2003 1191 1497 
Q 1191 994 1439 701 
Q 1688 409 2113 409 
Q 2538 409 2786 701 
Q 3034 994 3034 1497 
Q 3034 2003 2786 2293 
Q 2538 2584 2113 2584 
z
M 3366 4563 
L 3366 3988 
Q 3128 4100 2886 4159 
Q 2644 4219 2406 4219 
Q 1781 4219 1451 3797 
Q 1122 3375 1075 2522 
Q 1259 2794 1537 2939 
Q 1816 3084 2150 3084 
Q 2853 3084 3261 2657 
Q 3669 2231 3669 1497 
Q 3669 778 3244 343 
Q 2819 -91 2113 -91 
Q 1303 -91 875 529 
Q 447 1150 447 2328 
Q 447 3434 972 4092 
Q 1497 4750 2381 4750 
Q 2619 4750 2861 4703 
Q 3103 4656 3366 4563 
z
" transform="scale(0.015625)"/>
       </defs>
       <use xlink:href="#DejaVuSans-33"/>
       <use xlink:href="#DejaVuSans-36" x="63.623047"/>
       <use xlink:href="#DejaVuSans-30" x="127.246094"/>
       <use xlink:href="#DejaVuSans-30" x="190.869141"/>
      </g>
     </g>
    </g>
    <g id="ytick_4">
     <g id="line2d_31">
      <path d="M 45.267188 138.060352 
L 982.876106 138.060352 
" clip-path="url(#p563f296b83)" style="fill: none; stroke-dasharray: 2.96,1.28; stroke-dashoffset: 0; stroke: #b0b0b0; stroke-width: 0.8"/>
     </g>
     <g id="line2d_32">
      <g>
       <use xlink:href="#m42a13f4ce6" x="45.267188" y="138.060352" style="stroke: #000000; stroke-width: 0.8"/>
      </g>
     </g>
     <g id="text_4">
      <!-- 3800 -->
      <g transform="translate(12.817188 141.859571)scale(0.1 -0.1)">
       <defs>
        <path id="DejaVuSans-38" d="M 2034 2216 
Q 1584 2216 1326 1975 
Q 1069 1734 1069 1313 
Q 1069 891 1326 650 
Q 1584 409 2034 409 
Q 2484 409 2743 651 
Q 3003 894 3003 1313 
Q 3003 1734 2745 1975 
Q 2488 2216 2034 2216 
z
M 1403 2484 
Q 997 2584 770 2862 
Q 544 3141 544 3541 
Q 544 4100 942 4425 
Q 1341 4750 2034 4750 
Q 2731 4750 3128 4425 
Q 3525 4100 3525 3541 
Q 3525 3141 3298 2862 
Q 3072 2584 2669 2484 
Q 3125 2378 3379 2068 
Q 3634 1759 3634 1313 
Q 3634 634 3220 271 
Q 2806 -91 2034 -91 
Q 1263 -91 848 271 
Q 434 634 434 1313 
Q 434 1759 690 2068 
Q 947 2378 1403 2484 
z
M 1172 3481 
Q 1172 3119 1398 2916 
Q 1625 2713 2034 2713 
Q 2441 2713 2670 2916 
Q 2900 3119 2900 3481 
Q 2900 3844 2670 4047 
Q 2441 4250 2034 4250 
Q 1625 4250 1398 4047 
Q 1172 3844 1172 3481 
z
" transform="scale(0.015625)"/>
       </defs>
       <use xlink:href="#DejaVuSans-33"/>
       <use xlink:href="#DejaVuSans-38" x="63.623047"/>
       <use xlink:href="#DejaVuSans-30" x="127.246094"/>
       <use xlink:href="#DejaVuSans-30" x="190.869141"/>
      </g>
     </g>
    </g>
    <g id="ytick_5">
     <g id="line2d_33">
      <path d="M 45.267188 84.326703 
L 982.876106 84.326703 
" clip-path="url(#p563f296b83)" style="fill: none; stroke-dasharray: 2.96,1.28; stroke-dashoffset: 0; stroke: #b0b0b0; stroke-width: 0.8"/>
     </g>
     <g id="line2d_34">
      <g>
       <use xlink:href="#m42a13f4ce6" x="45.267188" y="84.326703" style="stroke: #000000; stroke-width: 0.8"/>
      </g>
     </g>
     <g id="text_5">
      <!-- 4000 -->
      <g transform="translate(12.817188 88.125922)scale(0.1 -0.1)">
       <use xlink:href="#DejaVuSans-34"/>
       <use xlink:href="#DejaVuSans-30" x="63.623047"/>
       <use xlink:href="#DejaVuSans-30" x="127.246094"/>
       <use xlink:href="#DejaVuSans-30" x="190.869141"/>
      </g>
     </g>
    </g>
   </g>
   <g id="line2d_35">
    <path d="M 87.885775 278.546977 
L 90.557786 275.309525 
L 93.229798 256.663949 
L 95.90181 240.637888 
L 98.573822 247.542662 
L 106.589857 236.097395 
L 109.261869 235.654092 
L 111.93388 234.754054 
L 114.605892 231.82557 
L 117.277904 236.715332 
L 125.293939 221.414675 
L 127.965951 245.272415 
L 130.637962 235.640659 
L 133.309974 270.043627 
L 135.981986 240.208019 
L 143.998021 250.283078 
L 146.670033 226.962674 
L 152.014056 218.365291 
L 154.686068 219.413097 
L 162.702103 201.291424 
L 165.374115 209.405205 
L 168.046127 209.257437 
L 170.718139 186.125101 
L 173.39015 201.103356 
L 181.406185 225.108864 
L 184.078197 229.770258 
L 186.750209 201.586959 
L 189.422221 200.028683 
L 192.094232 200.754087 
L 200.110268 221.898278 
L 202.782279 194.695618 
L 205.454291 195.313555 
L 208.126303 192.519405 
L 210.798315 183.156317 
L 218.81435 197.3017 
L 221.486362 191.605933 
L 224.158373 197.086766 
L 226.830385 224.329726 
L 229.502397 216.404012 
L 237.518432 210.506744 
L 242.862455 252.969761 
L 245.534467 273.173613 
L 248.206479 287.950366 
L 256.222514 289.951944 
L 258.894526 267.800248 
L 261.566538 261.916413 
L 264.238549 239.522915 
L 266.910561 239.34828 
L 274.926596 231.409134 
L 277.598608 231.006131 
L 280.27062 199.907782 
L 282.942631 178.239688 
L 293.630678 194.735918 
L 296.30269 176.627679 
L 298.974702 191.390999 
L 301.646714 196.11956 
L 304.318725 177.191882 
L 312.334761 168.218363 
L 315.006772 167.85566 
L 317.678784 171.885684 
L 320.350796 177.554584 
L 323.022808 154.207314 
L 331.038843 147.826443 
L 333.710854 135.45427 
L 336.382866 137.576749 
L 339.054878 137.455849 
L 341.72689 135.279636 
L 349.742925 141.512739 
L 352.414937 161.689724 
L 355.086948 165.652581 
L 368.447007 161.00462 
L 371.119019 176.439611 
L 373.791031 159.352311 
L 376.463042 164.295806 
L 379.135054 180.375601 
L 387.151089 169.50797 
L 389.823101 113.316007 
L 392.495113 109.675552 
L 395.167124 128.818164 
L 397.839136 156.98803 
L 405.855171 185.493731 
L 411.199195 219.493697 
L 413.871207 212.239655 
L 416.543218 218.727993 
L 424.559254 200.189884 
L 427.231265 193.661245 
L 429.903277 188.341614 
L 432.575289 195.824025 
L 435.2473 180.483068 
L 443.263336 160.668785 
L 445.935347 153.401309 
L 448.607359 140.424633 
L 451.279371 165.316746 
L 453.951383 141.338105 
L 461.967418 141.781407 
L 464.63943 142.547112 
L 467.311441 140.263432 
L 469.983453 122.652228 
L 472.655465 129.180867 
L 483.343512 120.838718 
L 486.015523 159.526945 
L 488.687535 167.963128 
L 491.359547 172.26182 
L 499.375582 133.492992 
L 502.047594 128.898765 
L 504.719606 139.632061 
L 507.391617 116.929595 
L 510.063629 116.298224 
L 518.079664 116.231057 
L 520.751676 169.830372 
L 523.423688 165.437646 
L 526.095699 176.157509 
L 528.767711 184.016055 
L 536.783746 187.508743 
L 539.455758 179.636763 
L 542.12777 182.215978 
L 544.799782 142.144109 
L 547.471793 134.473631 
L 555.487829 121.617856 
L 558.15984 114.148878 
L 560.831852 119.911812 
L 563.503864 163.153966 
L 566.175876 185.184762 
L 574.191911 170.367709 
L 576.863922 169.561704 
L 579.535934 145.300961 
L 582.207946 139.269359 
L 584.879958 131.343646 
L 592.895993 125.016509 
L 595.568005 125.204577 
L 598.240016 121.738756 
L 600.912028 121.080519 
L 603.58404 107.606807 
L 611.600075 88.611962 
L 614.272087 83.789367 
L 616.944099 83.775933 
L 619.61611 68.99918 
L 622.288122 69.684284 
L 630.304157 78.64437 
L 632.976169 104.315621 
L 635.648181 115.53252 
L 638.320192 122.410427 
L 640.992204 107.311271 
L 649.008239 91.500145 
L 651.680251 85.347642 
L 654.352263 83.399798 
L 657.024275 81.183285 
L 659.696286 80.807149 
L 667.712322 78.241367 
L 673.056345 74.963615 
L 675.728357 75.326317 
L 678.400368 74.11731 
L 689.088415 59.837593 
L 691.760427 66.084129 
L 694.432439 68.031974 
L 697.104451 64.297485 
L 705.120486 73.150104 
L 707.792498 67.011035 
L 710.464509 66.661766 
L 713.136521 67.414037 
L 715.808533 69.711151 
L 723.824568 76.253222 
L 726.49658 61.530203 
L 731.840603 63.827316 
L 734.512615 76.024854 
L 742.52865 95.973472 
L 745.200662 103.294681 
L 747.872674 125.795647 
L 750.544685 125.540412 
L 753.216697 125.003075 
L 761.232732 119.172975 
L 763.904744 120.193914 
L 766.576756 124.559773 
L 769.248768 146.657736 
L 771.920779 167.73476 
L 779.936814 162.710664 
L 782.608826 146.496535 
L 785.280838 156.705928 
L 787.95285 157.162664 
L 790.624861 165.222712 
L 798.640897 198.645041 
L 801.312908 207.403626 
L 803.98492 206.328953 
L 806.656932 224.920796 
L 809.328944 211.205282 
L 817.344979 214.536768 
L 820.016991 197.274833 
L 825.361014 193.231376 
L 828.033026 190.840229 
L 836.049061 187.240074 
L 838.721073 210.936614 
L 841.393084 185.211629 
L 844.065096 190.504394 
L 846.737108 199.719714 
L 854.753143 184.002622 
L 857.425155 188.75805 
L 860.097167 176.78888 
L 862.769178 167.116823 
L 865.44119 173.36336 
L 873.457225 164.98091 
L 876.129237 177.259049 
L 881.47326 185.802699 
L 884.145272 172.799156 
L 892.161307 172.490188 
L 894.833319 156.141725 
L 897.505331 155.040185 
L 900.177343 145.180061 
L 902.849354 145.824864 
L 910.86539 146.1607 
L 918.881425 158.317938 
L 921.553437 157.4985 
L 929.569472 157.941802 
L 932.241483 147.692109 
L 934.913495 152.178868 
L 937.585507 166.498886 
L 940.257519 182.941382 
L 940.257519 182.941382 
" clip-path="url(#p563f296b83)" style="fill: none; stroke: #1f77b4; stroke-width: 1.5; stroke-linecap: square"/>
   </g>
   <g id="line2d_36">
    <path d="M 98.573822 259.7402 
L 106.589857 251.250284 
L 109.261869 243.319197 
L 111.93388 238.937218 
L 114.605892 237.174754 
L 117.277904 235.009288 
L 125.293939 232.072744 
L 127.965951 233.996409 
L 130.637962 234.17373 
L 133.309974 241.817342 
L 135.981986 242.515879 
L 143.998021 248.28956 
L 146.670033 244.627612 
L 152.014056 241.172538 
L 154.686068 231.046432 
L 162.702103 223.263113 
L 165.374115 215.087538 
L 168.046127 211.546491 
L 170.718139 205.098453 
L 173.39015 201.436504 
L 181.406185 206.199992 
L 184.078197 210.273003 
L 186.750209 208.738907 
L 189.422221 211.519624 
L 192.094232 211.44977 
L 200.110268 210.807653 
L 202.782279 203.792725 
L 205.454291 202.538044 
L 208.126303 201.036189 
L 210.798315 197.516635 
L 218.81435 192.597319 
L 221.486362 191.979382 
L 224.158373 192.334024 
L 226.830385 198.696088 
L 229.502397 205.345627 
L 237.518432 207.986636 
L 242.862455 220.259402 
L 245.534467 235.476771 
L 248.206479 248.200899 
L 256.222514 262.910486 
L 258.894526 274.369186 
L 261.566538 276.158517 
L 264.238549 269.428377 
L 266.910561 259.70796 
L 274.926596 247.999398 
L 277.598608 240.640575 
L 282.942631 215.982203 
L 293.630678 207.059731 
L 296.30269 196.10344 
L 298.974702 188.180413 
L 301.646714 187.422769 
L 304.318725 187.213208 
L 315.006772 180.155293 
L 320.350796 172.541235 
L 323.022808 167.944321 
L 331.038843 163.865937 
L 333.710854 157.385659 
L 336.382866 150.523872 
L 339.054878 142.504125 
L 341.72689 138.718589 
L 349.742925 137.455849 
L 352.414937 142.702939 
L 355.086948 148.318106 
L 368.447007 153.02786 
L 371.119019 161.259855 
L 373.791031 164.827769 
L 376.463042 165.348986 
L 379.135054 168.29359 
L 387.151089 169.99426 
L 389.823101 157.369539 
L 392.495113 147.434187 
L 395.167124 140.338659 
L 397.839136 135.661145 
L 405.855171 138.858297 
L 411.199195 160.093835 
L 413.871207 180.606655 
L 416.543218 198.588621 
L 424.559254 207.228992 
L 427.231265 208.862495 
L 429.903277 202.632078 
L 432.575289 199.348952 
L 435.2473 191.699967 
L 443.263336 183.795747 
L 445.935347 175.74376 
L 448.607359 166.160364 
L 451.279371 160.058908 
L 453.951383 152.229915 
L 461.967418 148.45244 
L 464.63943 146.2816 
L 467.311441 146.24936 
L 469.983453 137.716457 
L 472.655465 135.285009 
L 480.6715 131.4941 
L 483.343512 127.152421 
L 486.015523 131.005124 
L 488.687535 140.067304 
L 491.359547 148.683495 
L 499.375582 150.81672 
L 502.047594 152.42873 
L 504.719606 148.449753 
L 507.391617 138.243047 
L 510.063629 127.050327 
L 518.079664 123.59794 
L 520.751676 131.784262 
L 523.423688 136.945379 
L 526.095699 148.790962 
L 528.767711 162.334528 
L 536.783746 176.590065 
L 539.455758 178.551343 
L 542.12777 181.90701 
L 544.799782 175.10433 
L 547.471793 165.195845 
L 555.487829 152.017667 
L 558.15984 138.920091 
L 560.831852 126.459257 
L 563.503864 130.661229 
L 566.175876 140.803455 
L 574.191911 150.553426 
L 576.863922 161.635991 
L 579.535934 166.71382 
L 582.207946 161.936899 
L 584.879958 151.168676 
L 592.895993 142.098436 
L 595.568005 133.22701 
L 598.240016 128.514569 
L 600.912028 124.876801 
L 603.58404 120.129433 
L 611.600075 112.848524 
L 614.272087 104.565482 
L 616.944099 96.972917 
L 619.61611 86.55665 
L 622.288122 78.972145 
L 630.304157 76.978627 
L 632.976169 81.083877 
L 635.648181 87.435195 
L 638.320192 98.117444 
L 640.992204 105.642842 
L 649.008239 108.213997 
L 651.680251 104.420401 
L 654.352263 97.993857 
L 657.024275 89.748428 
L 659.696286 84.447604 
L 667.712322 81.795848 
L 673.056345 79.719043 
L 675.728357 78.104347 
L 678.400368 76.691152 
L 689.088415 72.49724 
L 691.760427 70.065793 
L 694.432439 68.679465 
L 697.104451 66.473698 
L 705.120486 66.280257 
L 707.792498 67.714946 
L 710.464509 67.830473 
L 713.136521 67.706885 
L 715.808533 68.789619 
L 723.824568 69.410242 
L 726.49658 68.314076 
L 731.840603 67.747186 
L 742.52865 74.721813 
L 745.200662 80.130105 
L 750.544685 105.325813 
L 753.216697 115.121457 
L 761.232732 119.761358 
L 763.904744 123.141204 
L 766.576756 122.89403 
L 769.248768 127.117495 
L 771.920779 135.663831 
L 779.936814 144.371369 
L 782.608826 149.631893 
L 785.280838 156.061125 
L 787.95285 158.16211 
L 790.624861 157.659701 
L 798.640897 164.846576 
L 801.312908 177.027994 
L 803.98492 186.952599 
L 806.656932 200.504226 
L 809.328944 209.70074 
L 817.344979 212.879085 
L 820.016991 210.853326 
L 825.361014 208.233811 
L 828.033026 201.417698 
L 836.049061 196.624656 
L 838.721073 195.904625 
L 841.393084 193.491984 
L 844.065096 192.946588 
L 846.737108 194.722485 
L 854.753143 194.074995 
L 857.425155 189.639282 
L 860.097167 187.954732 
L 862.769178 183.277218 
L 865.44119 178.005947 
L 873.457225 174.201604 
L 876.129237 171.901804 
L 881.47326 173.704568 
L 884.145272 174.841035 
L 892.161307 174.666401 
L 894.833319 172.898563 
L 897.505331 168.454791 
L 900.177343 160.330263 
L 902.849354 154.935405 
L 910.86539 149.669507 
L 916.209413 149.301431 
L 918.881425 149.956982 
L 921.553437 152.42067 
L 929.569472 154.844057 
L 932.241483 155.150339 
L 934.913495 154.725843 
L 937.585507 156.362033 
L 940.257519 161.45061 
L 940.257519 161.45061 
" clip-path="url(#p563f296b83)" style="fill: none; stroke: #ff7f0e; stroke-width: 1.5; stroke-linecap: square"/>
   </g>
   <g id="patch_3">
    <path d="M 45.267188 301.457662 
L 45.267188 48.331875 
" style="fill: none; stroke: #000000; stroke-width: 0.8; stroke-linejoin: miter; stroke-linecap: square"/>
   </g>
   <g id="patch_4">
    <path d="M 982.876106 301.457662 
L 982.876106 48.331875 
" style="fill: none; stroke: #000000; stroke-width: 0.8; stroke-linejoin: miter; stroke-linecap: square"/>
   </g>
   <g id="patch_5">
    <path d="M 45.267188 301.457662 
L 982.876106 301.457662 
" style="fill: none; stroke: #000000; stroke-width: 0.8; stroke-linejoin: miter; stroke-linecap: square"/>
   </g>
   <g id="patch_6">
    <path d="M 45.267188 48.331875 
L 982.876106 48.331875 
" style="fill: none; stroke: #000000; stroke-width: 0.8; stroke-linejoin: miter; stroke-linecap: square"/>
   </g>
   <g id="text_6">
    <!-- Closing Price -->
    <g transform="translate(475.595709 42.331875)scale(0.12 -0.12)">
     <defs>
      <path id="DejaVuSans-43" d="M 4122 4306 
L 4122 3641 
Q 3803 3938 3442 4084 
Q 3081 4231 2675 4231 
Q 1875 4231 1450 3742 
Q 1025 3253 1025 2328 
Q 1025 1406 1450 917 
Q 1875 428 2675 428 
Q 3081 428 3442 575 
Q 3803 722 4122 1019 
L 4122 359 
Q 3791 134 3420 21 
Q 3050 -91 2638 -91 
Q 1578 -91 968 557 
Q 359 1206 359 2328 
Q 359 3453 968 4101 
Q 1578 4750 2638 4750 
Q 3056 4750 3426 4639 
Q 3797 4528 4122 4306 
z
" transform="scale(0.015625)"/>
      <path id="DejaVuSans-6c" d="M 603 4863 
L 1178 4863 
L 1178 0 
L 603 0 
L 603 4863 
z
" transform="scale(0.015625)"/>
      <path id="DejaVuSans-6f" d="M 1959 3097 
Q 1497 3097 1228 2736 
Q 959 2375 959 1747 
Q 959 1119 1226 758 
Q 1494 397 1959 397 
Q 2419 397 2687 759 
Q 2956 1122 2956 1747 
Q 2956 2369 2687 2733 
Q 2419 3097 1959 3097 
z
M 1959 3584 
Q 2709 3584 3137 3096 
Q 3566 2609 3566 1747 
Q 3566 888 3137 398 
Q 2709 -91 1959 -91 
Q 1206 -91 779 398 
Q 353 888 353 1747 
Q 353 2609 779 3096 
Q 1206 3584 1959 3584 
z
" transform="scale(0.015625)"/>
      <path id="DejaVuSans-73" d="M 2834 3397 
L 2834 2853 
Q 2591 2978 2328 3040 
Q 2066 3103 1784 3103 
Q 1356 3103 1142 2972 
Q 928 2841 928 2578 
Q 928 2378 1081 2264 
Q 1234 2150 1697 2047 
L 1894 2003 
Q 2506 1872 2764 1633 
Q 3022 1394 3022 966 
Q 3022 478 2636 193 
Q 2250 -91 1575 -91 
Q 1294 -91 989 -36 
Q 684 19 347 128 
L 347 722 
Q 666 556 975 473 
Q 1284 391 1588 391 
Q 1994 391 2212 530 
Q 2431 669 2431 922 
Q 2431 1156 2273 1281 
Q 2116 1406 1581 1522 
L 1381 1569 
Q 847 1681 609 1914 
Q 372 2147 372 2553 
Q 372 3047 722 3315 
Q 1072 3584 1716 3584 
Q 2034 3584 2315 3537 
Q 2597 3491 2834 3397 
z
" transform="scale(0.015625)"/>
      <path id="DejaVuSans-69" d="M 603 3500 
L 1178 3500 
L 1178 0 
L 603 0 
L 603 3500 
z
M 603 4863 
L 1178 4863 
L 1178 4134 
L 603 4134 
L 603 4863 
z
" transform="scale(0.015625)"/>
      <path id="DejaVuSans-6e" d="M 3513 2113 
L 3513 0 
L 2938 0 
L 2938 2094 
Q 2938 2591 2744 2837 
Q 2550 3084 2163 3084 
Q 1697 3084 1428 2787 
Q 1159 2491 1159 1978 
L 1159 0 
L 581 0 
L 581 3500 
L 1159 3500 
L 1159 2956 
Q 1366 3272 1645 3428 
Q 1925 3584 2291 3584 
Q 2894 3584 3203 3211 
Q 3513 2838 3513 2113 
z
" transform="scale(0.015625)"/>
      <path id="DejaVuSans-67" d="M 2906 1791 
Q 2906 2416 2648 2759 
Q 2391 3103 1925 3103 
Q 1463 3103 1205 2759 
Q 947 2416 947 1791 
Q 947 1169 1205 825 
Q 1463 481 1925 481 
Q 2391 481 2648 825 
Q 2906 1169 2906 1791 
z
M 3481 434 
Q 3481 -459 3084 -895 
Q 2688 -1331 1869 -1331 
Q 1566 -1331 1297 -1286 
Q 1028 -1241 775 -1147 
L 775 -588 
Q 1028 -725 1275 -790 
Q 1522 -856 1778 -856 
Q 2344 -856 2625 -561 
Q 2906 -266 2906 331 
L 2906 616 
Q 2728 306 2450 153 
Q 2172 0 1784 0 
Q 1141 0 747 490 
Q 353 981 353 1791 
Q 353 2603 747 3093 
Q 1141 3584 1784 3584 
Q 2172 3584 2450 3431 
Q 2728 3278 2906 2969 
L 2906 3500 
L 3481 3500 
L 3481 434 
z
" transform="scale(0.015625)"/>
      <path id="DejaVuSans-20" transform="scale(0.015625)"/>
      <path id="DejaVuSans-50" d="M 1259 4147 
L 1259 2394 
L 2053 2394 
Q 2494 2394 2734 2622 
Q 2975 2850 2975 3272 
Q 2975 3691 2734 3919 
Q 2494 4147 2053 4147 
L 1259 4147 
z
M 628 4666 
L 2053 4666 
Q 2838 4666 3239 4311 
Q 3641 3956 3641 3272 
Q 3641 2581 3239 2228 
Q 2838 1875 2053 1875 
L 1259 1875 
L 1259 0 
L 628 0 
L 628 4666 
z
" transform="scale(0.015625)"/>
      <path id="DejaVuSans-72" d="M 2631 2963 
Q 2534 3019 2420 3045 
Q 2306 3072 2169 3072 
Q 1681 3072 1420 2755 
Q 1159 2438 1159 1844 
L 1159 0 
L 581 0 
L 581 3500 
L 1159 3500 
L 1159 2956 
Q 1341 3275 1631 3429 
Q 1922 3584 2338 3584 
Q 2397 3584 2469 3576 
Q 2541 3569 2628 3553 
L 2631 2963 
z
" transform="scale(0.015625)"/>
      <path id="DejaVuSans-63" d="M 3122 3366 
L 3122 2828 
Q 2878 2963 2633 3030 
Q 2388 3097 2138 3097 
Q 1578 3097 1268 2742 
Q 959 2388 959 1747 
Q 959 1106 1268 751 
Q 1578 397 2138 397 
Q 2388 397 2633 464 
Q 2878 531 3122 666 
L 3122 134 
Q 2881 22 2623 -34 
Q 2366 -91 2075 -91 
Q 1284 -91 818 406 
Q 353 903 353 1747 
Q 353 2603 823 3093 
Q 1294 3584 2113 3584 
Q 2378 3584 2631 3529 
Q 2884 3475 3122 3366 
z
" transform="scale(0.015625)"/>
      <path id="DejaVuSans-65" d="M 3597 1894 
L 3597 1613 
L 953 1613 
Q 991 1019 1311 708 
Q 1631 397 2203 397 
Q 2534 397 2845 478 
Q 3156 559 3463 722 
L 3463 178 
Q 3153 47 2828 -22 
Q 2503 -91 2169 -91 
Q 1331 -91 842 396 
Q 353 884 353 1716 
Q 353 2575 817 3079 
Q 1281 3584 2069 3584 
Q 2775 3584 3186 3129 
Q 3597 2675 3597 1894 
z
M 3022 2063 
Q 3016 2534 2758 2815 
Q 2500 3097 2075 3097 
Q 1594 3097 1305 2825 
Q 1016 2553 972 2059 
L 3022 2063 
z
" transform="scale(0.015625)"/>
     </defs>
     <use xlink:href="#DejaVuSans-43"/>
     <use xlink:href="#DejaVuSans-6c" x="69.824219"/>
     <use xlink:href="#DejaVuSans-6f" x="97.607422"/>
     <use xlink:href="#DejaVuSans-73" x="158.789062"/>
     <use xlink:href="#DejaVuSans-69" x="210.888672"/>
     <use xlink:href="#DejaVuSans-6e" x="238.671875"/>
     <use xlink:href="#DejaVuSans-67" x="302.050781"/>
     <use xlink:href="#DejaVuSans-20" x="365.527344"/>
     <use xlink:href="#DejaVuSans-50" x="397.314453"/>
     <use xlink:href="#DejaVuSans-72" x="455.867188"/>
     <use xlink:href="#DejaVuSans-69" x="496.980469"/>
     <use xlink:href="#DejaVuSans-63" x="524.763672"/>
     <use xlink:href="#DejaVuSans-65" x="579.744141"/>
    </g>
   </g>
   <g id="legend_1">
    <g id="patch_7">
     <path d="M 911.144856 85.688125 
L 975.876106 85.688125 
Q 977.876106 85.688125 977.876106 83.688125 
L 977.876106 55.331875 
Q 977.876106 53.331875 975.876106 53.331875 
L 911.144856 53.331875 
Q 909.144856 53.331875 909.144856 55.331875 
L 909.144856 83.688125 
Q 909.144856 85.688125 911.144856 85.688125 
z
" style="fill: #ffffff; opacity: 0.8; stroke: #cccccc; stroke-linejoin: miter"/>
    </g>
    <g id="line2d_37">
     <path d="M 913.144856 61.430312 
L 923.144856 61.430312 
L 933.144856 61.430312 
" style="fill: none; stroke: #1f77b4; stroke-width: 1.5; stroke-linecap: square"/>
    </g>
    <g id="text_7">
     <!-- CLOSE -->
     <g transform="translate(941.144856 64.930312)scale(0.1 -0.1)">
      <defs>
       <path id="DejaVuSans-4c" d="M 628 4666 
L 1259 4666 
L 1259 531 
L 3531 531 
L 3531 0 
L 628 0 
L 628 4666 
z
" transform="scale(0.015625)"/>
       <path id="DejaVuSans-4f" d="M 2522 4238 
Q 1834 4238 1429 3725 
Q 1025 3213 1025 2328 
Q 1025 1447 1429 934 
Q 1834 422 2522 422 
Q 3209 422 3611 934 
Q 4013 1447 4013 2328 
Q 4013 3213 3611 3725 
Q 3209 4238 2522 4238 
z
M 2522 4750 
Q 3503 4750 4090 4092 
Q 4678 3434 4678 2328 
Q 4678 1225 4090 567 
Q 3503 -91 2522 -91 
Q 1538 -91 948 565 
Q 359 1222 359 2328 
Q 359 3434 948 4092 
Q 1538 4750 2522 4750 
z
" transform="scale(0.015625)"/>
       <path id="DejaVuSans-53" d="M 3425 4513 
L 3425 3897 
Q 3066 4069 2747 4153 
Q 2428 4238 2131 4238 
Q 1616 4238 1336 4038 
Q 1056 3838 1056 3469 
Q 1056 3159 1242 3001 
Q 1428 2844 1947 2747 
L 2328 2669 
Q 3034 2534 3370 2195 
Q 3706 1856 3706 1288 
Q 3706 609 3251 259 
Q 2797 -91 1919 -91 
Q 1588 -91 1214 -16 
Q 841 59 441 206 
L 441 856 
Q 825 641 1194 531 
Q 1563 422 1919 422 
Q 2459 422 2753 634 
Q 3047 847 3047 1241 
Q 3047 1584 2836 1778 
Q 2625 1972 2144 2069 
L 1759 2144 
Q 1053 2284 737 2584 
Q 422 2884 422 3419 
Q 422 4038 858 4394 
Q 1294 4750 2059 4750 
Q 2388 4750 2728 4690 
Q 3069 4631 3425 4513 
z
" transform="scale(0.015625)"/>
       <path id="DejaVuSans-45" d="M 628 4666 
L 3578 4666 
L 3578 4134 
L 1259 4134 
L 1259 2753 
L 3481 2753 
L 3481 2222 
L 1259 2222 
L 1259 531 
L 3634 531 
L 3634 0 
L 628 0 
L 628 4666 
z
" transform="scale(0.015625)"/>
      </defs>
      <use xlink:href="#DejaVuSans-43"/>
      <use xlink:href="#DejaVuSans-4c" x="69.824219"/>
      <use xlink:href="#DejaVuSans-4f" x="121.912109"/>
      <use xlink:href="#DejaVuSans-53" x="200.623047"/>
      <use xlink:href="#DejaVuSans-45" x="264.099609"/>
     </g>
    </g>
    <g id="line2d_38">
     <path d="M 913.144856 76.108437 
L 923.144856 76.108437 
L 933.144856 76.108437 
" style="fill: none; stroke: #ff7f0e; stroke-width: 1.5; stroke-linecap: square"/>
    </g>
    <g id="text_8">
     <!-- SMA5 -->
     <g transform="translate(941.144856 79.608437)scale(0.1 -0.1)">
      <defs>
       <path id="DejaVuSans-4d" d="M 628 4666 
L 1569 4666 
L 2759 1491 
L 3956 4666 
L 4897 4666 
L 4897 0 
L 4281 0 
L 4281 4097 
L 3078 897 
L 2444 897 
L 1241 4097 
L 1241 0 
L 628 0 
L 628 4666 
z
" transform="scale(0.015625)"/>
       <path id="DejaVuSans-41" d="M 2188 4044 
L 1331 1722 
L 3047 1722 
L 2188 4044 
z
M 1831 4666 
L 2547 4666 
L 4325 0 
L 3669 0 
L 3244 1197 
L 1141 1197 
L 716 0 
L 50 0 
L 1831 4666 
z
" transform="scale(0.015625)"/>
       <path id="DejaVuSans-35" d="M 691 4666 
L 3169 4666 
L 3169 4134 
L 1269 4134 
L 1269 2991 
Q 1406 3038 1543 3061 
Q 1681 3084 1819 3084 
Q 2600 3084 3056 2656 
Q 3513 2228 3513 1497 
Q 3513 744 3044 326 
Q 2575 -91 1722 -91 
Q 1428 -91 1123 -41 
Q 819 9 494 109 
L 494 744 
Q 775 591 1075 516 
Q 1375 441 1709 441 
Q 2250 441 2565 725 
Q 2881 1009 2881 1497 
Q 2881 1984 2565 2268 
Q 2250 2553 1709 2553 
Q 1456 2553 1204 2497 
Q 953 2441 691 2322 
L 691 4666 
z
" transform="scale(0.015625)"/>
      </defs>
      <use xlink:href="#DejaVuSans-53"/>
      <use xlink:href="#DejaVuSans-4d" x="63.476562"/>
      <use xlink:href="#DejaVuSans-41" x="149.755859"/>
      <use xlink:href="#DejaVuSans-35" x="218.164062"/>
     </g>
    </g>
   </g>
  </g>
  <g id="axes_2">
   <g id="patch_8">
    <path d="M 45.267188 584.521875 
L 982.876106 584.521875 
L 982.876106 331.396088 
L 45.267188 331.396088 
z
" style="fill: #ffffff"/>
   </g>
   <g id="matplotlib.axis_3">
    <g id="xtick_13">
     <g id="line2d_39">
      <path d="M 82.541751 584.521875 
L 82.541751 331.396088 
" clip-path="url(#pfb74ee7117)" style="fill: none; stroke-dasharray: 2.96,1.28; stroke-dashoffset: 0; stroke: #b0b0b0; stroke-width: 0.8"/>
     </g>
     <g id="line2d_40">
      <g>
       <use xlink:href="#md42ec7399b" x="82.541751" y="584.521875" style="stroke: #000000; stroke-width: 0.8"/>
      </g>
     </g>
     <g id="text_9">
      <!-- 2022-01 -->
      <g transform="translate(61.650345 599.120313)scale(0.1 -0.1)">
       <defs>
        <path id="DejaVuSans-2d" d="M 313 2009 
L 1997 2009 
L 1997 1497 
L 313 1497 
L 313 2009 
z
" transform="scale(0.015625)"/>
        <path id="DejaVuSans-31" d="M 794 531 
L 1825 531 
L 1825 4091 
L 703 3866 
L 703 4441 
L 1819 4666 
L 2450 4666 
L 2450 531 
L 3481 531 
L 3481 0 
L 794 0 
L 794 531 
z
" transform="scale(0.015625)"/>
       </defs>
       <use xlink:href="#DejaVuSans-32"/>
       <use xlink:href="#DejaVuSans-30" x="63.623047"/>
       <use xlink:href="#DejaVuSans-32" x="127.246094"/>
       <use xlink:href="#DejaVuSans-32" x="190.869141"/>
       <use xlink:href="#DejaVuSans-2d" x="254.492188"/>
       <use xlink:href="#DejaVuSans-30" x="290.576172"/>
       <use xlink:href="#DejaVuSans-31" x="354.199219"/>
      </g>
     </g>
    </g>
    <g id="xtick_14">
     <g id="line2d_41">
      <path d="M 165.374115 584.521875 
L 165.374115 331.396088 
" clip-path="url(#pfb74ee7117)" style="fill: none; stroke-dasharray: 2.96,1.28; stroke-dashoffset: 0; stroke: #b0b0b0; stroke-width: 0.8"/>
     </g>
     <g id="line2d_42">
      <g>
       <use xlink:href="#md42ec7399b" x="165.374115" y="584.521875" style="stroke: #000000; stroke-width: 0.8"/>
      </g>
     </g>
     <g id="text_10">
      <!-- 2022-02 -->
      <g transform="translate(144.482709 599.120313)scale(0.1 -0.1)">
       <use xlink:href="#DejaVuSans-32"/>
       <use xlink:href="#DejaVuSans-30" x="63.623047"/>
       <use xlink:href="#DejaVuSans-32" x="127.246094"/>
       <use xlink:href="#DejaVuSans-32" x="190.869141"/>
       <use xlink:href="#DejaVuSans-2d" x="254.492188"/>
       <use xlink:href="#DejaVuSans-30" x="290.576172"/>
       <use xlink:href="#DejaVuSans-32" x="354.199219"/>
      </g>
     </g>
    </g>
    <g id="xtick_15">
     <g id="line2d_43">
      <path d="M 240.190444 584.521875 
L 240.190444 331.396088 
" clip-path="url(#pfb74ee7117)" style="fill: none; stroke-dasharray: 2.96,1.28; stroke-dashoffset: 0; stroke: #b0b0b0; stroke-width: 0.8"/>
     </g>
     <g id="line2d_44">
      <g>
       <use xlink:href="#md42ec7399b" x="240.190444" y="584.521875" style="stroke: #000000; stroke-width: 0.8"/>
      </g>
     </g>
     <g id="text_11">
      <!-- 2022-03 -->
      <g transform="translate(219.299037 599.120313)scale(0.1 -0.1)">
       <use xlink:href="#DejaVuSans-32"/>
       <use xlink:href="#DejaVuSans-30" x="63.623047"/>
       <use xlink:href="#DejaVuSans-32" x="127.246094"/>
       <use xlink:href="#DejaVuSans-32" x="190.869141"/>
       <use xlink:href="#DejaVuSans-2d" x="254.492188"/>
       <use xlink:href="#DejaVuSans-30" x="290.576172"/>
       <use xlink:href="#DejaVuSans-33" x="354.199219"/>
      </g>
     </g>
    </g>
    <g id="xtick_16">
     <g id="line2d_45">
      <path d="M 323.022808 584.521875 
L 323.022808 331.396088 
" clip-path="url(#pfb74ee7117)" style="fill: none; stroke-dasharray: 2.96,1.28; stroke-dashoffset: 0; stroke: #b0b0b0; stroke-width: 0.8"/>
     </g>
     <g id="line2d_46">
      <g>
       <use xlink:href="#md42ec7399b" x="323.022808" y="584.521875" style="stroke: #000000; stroke-width: 0.8"/>
      </g>
     </g>
     <g id="text_12">
      <!-- 2022-04 -->
      <g transform="translate(302.131401 599.120313)scale(0.1 -0.1)">
       <use xlink:href="#DejaVuSans-32"/>
       <use xlink:href="#DejaVuSans-30" x="63.623047"/>
       <use xlink:href="#DejaVuSans-32" x="127.246094"/>
       <use xlink:href="#DejaVuSans-32" x="190.869141"/>
       <use xlink:href="#DejaVuSans-2d" x="254.492188"/>
       <use xlink:href="#DejaVuSans-30" x="290.576172"/>
       <use xlink:href="#DejaVuSans-34" x="354.199219"/>
      </g>
     </g>
    </g>
    <g id="xtick_17">
     <g id="line2d_47">
      <path d="M 403.18316 584.521875 
L 403.18316 331.396088 
" clip-path="url(#pfb74ee7117)" style="fill: none; stroke-dasharray: 2.96,1.28; stroke-dashoffset: 0; stroke: #b0b0b0; stroke-width: 0.8"/>
     </g>
     <g id="line2d_48">
      <g>
       <use xlink:href="#md42ec7399b" x="403.18316" y="584.521875" style="stroke: #000000; stroke-width: 0.8"/>
      </g>
     </g>
     <g id="text_13">
      <!-- 2022-05 -->
      <g transform="translate(382.291753 599.120313)scale(0.1 -0.1)">
       <use xlink:href="#DejaVuSans-32"/>
       <use xlink:href="#DejaVuSans-30" x="63.623047"/>
       <use xlink:href="#DejaVuSans-32" x="127.246094"/>
       <use xlink:href="#DejaVuSans-32" x="190.869141"/>
       <use xlink:href="#DejaVuSans-2d" x="254.492188"/>
       <use xlink:href="#DejaVuSans-30" x="290.576172"/>
       <use xlink:href="#DejaVuSans-35" x="354.199219"/>
      </g>
     </g>
    </g>
    <g id="xtick_18">
     <g id="line2d_49">
      <path d="M 486.015523 584.521875 
L 486.015523 331.396088 
" clip-path="url(#pfb74ee7117)" style="fill: none; stroke-dasharray: 2.96,1.28; stroke-dashoffset: 0; stroke: #b0b0b0; stroke-width: 0.8"/>
     </g>
     <g id="line2d_50">
      <g>
       <use xlink:href="#md42ec7399b" x="486.015523" y="584.521875" style="stroke: #000000; stroke-width: 0.8"/>
      </g>
     </g>
     <g id="text_14">
      <!-- 2022-06 -->
      <g transform="translate(465.124117 599.120313)scale(0.1 -0.1)">
       <use xlink:href="#DejaVuSans-32"/>
       <use xlink:href="#DejaVuSans-30" x="63.623047"/>
       <use xlink:href="#DejaVuSans-32" x="127.246094"/>
       <use xlink:href="#DejaVuSans-32" x="190.869141"/>
       <use xlink:href="#DejaVuSans-2d" x="254.492188"/>
       <use xlink:href="#DejaVuSans-30" x="290.576172"/>
       <use xlink:href="#DejaVuSans-36" x="354.199219"/>
      </g>
     </g>
    </g>
    <g id="xtick_19">
     <g id="line2d_51">
      <path d="M 566.175876 584.521875 
L 566.175876 331.396088 
" clip-path="url(#pfb74ee7117)" style="fill: none; stroke-dasharray: 2.96,1.28; stroke-dashoffset: 0; stroke: #b0b0b0; stroke-width: 0.8"/>
     </g>
     <g id="line2d_52">
      <g>
       <use xlink:href="#md42ec7399b" x="566.175876" y="584.521875" style="stroke: #000000; stroke-width: 0.8"/>
      </g>
     </g>
     <g id="text_15">
      <!-- 2022-07 -->
      <g transform="translate(545.284469 599.120313)scale(0.1 -0.1)">
       <defs>
        <path id="DejaVuSans-37" d="M 525 4666 
L 3525 4666 
L 3525 4397 
L 1831 0 
L 1172 0 
L 2766 4134 
L 525 4134 
L 525 4666 
z
" transform="scale(0.015625)"/>
       </defs>
       <use xlink:href="#DejaVuSans-32"/>
       <use xlink:href="#DejaVuSans-30" x="63.623047"/>
       <use xlink:href="#DejaVuSans-32" x="127.246094"/>
       <use xlink:href="#DejaVuSans-32" x="190.869141"/>
       <use xlink:href="#DejaVuSans-2d" x="254.492188"/>
       <use xlink:href="#DejaVuSans-30" x="290.576172"/>
       <use xlink:href="#DejaVuSans-37" x="354.199219"/>
      </g>
     </g>
    </g>
    <g id="xtick_20">
     <g id="line2d_53">
      <path d="M 649.008239 584.521875 
L 649.008239 331.396088 
" clip-path="url(#pfb74ee7117)" style="fill: none; stroke-dasharray: 2.96,1.28; stroke-dashoffset: 0; stroke: #b0b0b0; stroke-width: 0.8"/>
     </g>
     <g id="line2d_54">
      <g>
       <use xlink:href="#md42ec7399b" x="649.008239" y="584.521875" style="stroke: #000000; stroke-width: 0.8"/>
      </g>
     </g>
     <g id="text_16">
      <!-- 2022-08 -->
      <g transform="translate(628.116833 599.120313)scale(0.1 -0.1)">
       <use xlink:href="#DejaVuSans-32"/>
       <use xlink:href="#DejaVuSans-30" x="63.623047"/>
       <use xlink:href="#DejaVuSans-32" x="127.246094"/>
       <use xlink:href="#DejaVuSans-32" x="190.869141"/>
       <use xlink:href="#DejaVuSans-2d" x="254.492188"/>
       <use xlink:href="#DejaVuSans-30" x="290.576172"/>
       <use xlink:href="#DejaVuSans-38" x="354.199219"/>
      </g>
     </g>
    </g>
    <g id="xtick_21">
     <g id="line2d_55">
      <path d="M 731.840603 584.521875 
L 731.840603 331.396088 
" clip-path="url(#pfb74ee7117)" style="fill: none; stroke-dasharray: 2.96,1.28; stroke-dashoffset: 0; stroke: #b0b0b0; stroke-width: 0.8"/>
     </g>
     <g id="line2d_56">
      <g>
       <use xlink:href="#md42ec7399b" x="731.840603" y="584.521875" style="stroke: #000000; stroke-width: 0.8"/>
      </g>
     </g>
     <g id="text_17">
      <!-- 2022-09 -->
      <g transform="translate(710.949197 599.120313)scale(0.1 -0.1)">
       <defs>
        <path id="DejaVuSans-39" d="M 703 97 
L 703 672 
Q 941 559 1184 500 
Q 1428 441 1663 441 
Q 2288 441 2617 861 
Q 2947 1281 2994 2138 
Q 2813 1869 2534 1725 
Q 2256 1581 1919 1581 
Q 1219 1581 811 2004 
Q 403 2428 403 3163 
Q 403 3881 828 4315 
Q 1253 4750 1959 4750 
Q 2769 4750 3195 4129 
Q 3622 3509 3622 2328 
Q 3622 1225 3098 567 
Q 2575 -91 1691 -91 
Q 1453 -91 1209 -44 
Q 966 3 703 97 
z
M 1959 2075 
Q 2384 2075 2632 2365 
Q 2881 2656 2881 3163 
Q 2881 3666 2632 3958 
Q 2384 4250 1959 4250 
Q 1534 4250 1286 3958 
Q 1038 3666 1038 3163 
Q 1038 2656 1286 2365 
Q 1534 2075 1959 2075 
z
" transform="scale(0.015625)"/>
       </defs>
       <use xlink:href="#DejaVuSans-32"/>
       <use xlink:href="#DejaVuSans-30" x="63.623047"/>
       <use xlink:href="#DejaVuSans-32" x="127.246094"/>
       <use xlink:href="#DejaVuSans-32" x="190.869141"/>
       <use xlink:href="#DejaVuSans-2d" x="254.492188"/>
       <use xlink:href="#DejaVuSans-30" x="290.576172"/>
       <use xlink:href="#DejaVuSans-39" x="354.199219"/>
      </g>
     </g>
    </g>
    <g id="xtick_22">
     <g id="line2d_57">
      <path d="M 812.000955 584.521875 
L 812.000955 331.396088 
" clip-path="url(#pfb74ee7117)" style="fill: none; stroke-dasharray: 2.96,1.28; stroke-dashoffset: 0; stroke: #b0b0b0; stroke-width: 0.8"/>
     </g>
     <g id="line2d_58">
      <g>
       <use xlink:href="#md42ec7399b" x="812.000955" y="584.521875" style="stroke: #000000; stroke-width: 0.8"/>
      </g>
     </g>
     <g id="text_18">
      <!-- 2022-10 -->
      <g transform="translate(791.109549 599.120313)scale(0.1 -0.1)">
       <use xlink:href="#DejaVuSans-32"/>
       <use xlink:href="#DejaVuSans-30" x="63.623047"/>
       <use xlink:href="#DejaVuSans-32" x="127.246094"/>
       <use xlink:href="#DejaVuSans-32" x="190.869141"/>
       <use xlink:href="#DejaVuSans-2d" x="254.492188"/>
       <use xlink:href="#DejaVuSans-31" x="290.576172"/>
       <use xlink:href="#DejaVuSans-30" x="354.199219"/>
      </g>
     </g>
    </g>
    <g id="xtick_23">
     <g id="line2d_59">
      <path d="M 894.833319 584.521875 
L 894.833319 331.396088 
" clip-path="url(#pfb74ee7117)" style="fill: none; stroke-dasharray: 2.96,1.28; stroke-dashoffset: 0; stroke: #b0b0b0; stroke-width: 0.8"/>
     </g>
     <g id="line2d_60">
      <g>
       <use xlink:href="#md42ec7399b" x="894.833319" y="584.521875" style="stroke: #000000; stroke-width: 0.8"/>
      </g>
     </g>
     <g id="text_19">
      <!-- 2022-11 -->
      <g transform="translate(873.941913 599.120313)scale(0.1 -0.1)">
       <use xlink:href="#DejaVuSans-32"/>
       <use xlink:href="#DejaVuSans-30" x="63.623047"/>
       <use xlink:href="#DejaVuSans-32" x="127.246094"/>
       <use xlink:href="#DejaVuSans-32" x="190.869141"/>
       <use xlink:href="#DejaVuSans-2d" x="254.492188"/>
       <use xlink:href="#DejaVuSans-31" x="290.576172"/>
       <use xlink:href="#DejaVuSans-31" x="354.199219"/>
      </g>
     </g>
    </g>
    <g id="xtick_24">
     <g id="line2d_61">
      <path d="M 974.993671 584.521875 
L 974.993671 331.396088 
" clip-path="url(#pfb74ee7117)" style="fill: none; stroke-dasharray: 2.96,1.28; stroke-dashoffset: 0; stroke: #b0b0b0; stroke-width: 0.8"/>
     </g>
     <g id="line2d_62">
      <g>
       <use xlink:href="#md42ec7399b" x="974.993671" y="584.521875" style="stroke: #000000; stroke-width: 0.8"/>
      </g>
     </g>
     <g id="text_20">
      <!-- 2022-12 -->
      <g transform="translate(954.102265 599.120313)scale(0.1 -0.1)">
       <use xlink:href="#DejaVuSans-32"/>
       <use xlink:href="#DejaVuSans-30" x="63.623047"/>
       <use xlink:href="#DejaVuSans-32" x="127.246094"/>
       <use xlink:href="#DejaVuSans-32" x="190.869141"/>
       <use xlink:href="#DejaVuSans-2d" x="254.492188"/>
       <use xlink:href="#DejaVuSans-31" x="290.576172"/>
       <use xlink:href="#DejaVuSans-32" x="354.199219"/>
      </g>
     </g>
    </g>
   </g>
   <g id="matplotlib.axis_4">
    <g id="ytick_6">
     <g id="line2d_63">
      <path d="M 45.267188 584.066126 
L 982.876106 584.066126 
" clip-path="url(#pfb74ee7117)" style="fill: none; stroke-dasharray: 2.96,1.28; stroke-dashoffset: 0; stroke: #b0b0b0; stroke-width: 0.8"/>
     </g>
     <g id="line2d_64">
      <g>
       <use xlink:href="#m42a13f4ce6" x="45.267188" y="584.066126" style="stroke: #000000; stroke-width: 0.8"/>
      </g>
     </g>
     <g id="text_21">
      <!-- −125 -->
      <g transform="translate(10.8 587.865345)scale(0.1 -0.1)">
       <defs>
        <path id="DejaVuSans-2212" d="M 678 2272 
L 4684 2272 
L 4684 1741 
L 678 1741 
L 678 2272 
z
" transform="scale(0.015625)"/>
       </defs>
       <use xlink:href="#DejaVuSans-2212"/>
       <use xlink:href="#DejaVuSans-31" x="83.789062"/>
       <use xlink:href="#DejaVuSans-32" x="147.412109"/>
       <use xlink:href="#DejaVuSans-35" x="211.035156"/>
      </g>
     </g>
    </g>
    <g id="ytick_7">
     <g id="line2d_65">
      <path d="M 45.267188 555.000289 
L 982.876106 555.000289 
" clip-path="url(#pfb74ee7117)" style="fill: none; stroke-dasharray: 2.96,1.28; stroke-dashoffset: 0; stroke: #b0b0b0; stroke-width: 0.8"/>
     </g>
     <g id="line2d_66">
      <g>
       <use xlink:href="#m42a13f4ce6" x="45.267188" y="555.000289" style="stroke: #000000; stroke-width: 0.8"/>
      </g>
     </g>
     <g id="text_22">
      <!-- −100 -->
      <g transform="translate(10.8 558.799508)scale(0.1 -0.1)">
       <use xlink:href="#DejaVuSans-2212"/>
       <use xlink:href="#DejaVuSans-31" x="83.789062"/>
       <use xlink:href="#DejaVuSans-30" x="147.412109"/>
       <use xlink:href="#DejaVuSans-30" x="211.035156"/>
      </g>
     </g>
    </g>
    <g id="ytick_8">
     <g id="line2d_67">
      <path d="M 45.267188 525.934452 
L 982.876106 525.934452 
" clip-path="url(#pfb74ee7117)" style="fill: none; stroke-dasharray: 2.96,1.28; stroke-dashoffset: 0; stroke: #b0b0b0; stroke-width: 0.8"/>
     </g>
     <g id="line2d_68">
      <g>
       <use xlink:href="#m42a13f4ce6" x="45.267188" y="525.934452" style="stroke: #000000; stroke-width: 0.8"/>
      </g>
     </g>
     <g id="text_23">
      <!-- −75 -->
      <g transform="translate(17.1625 529.733671)scale(0.1 -0.1)">
       <use xlink:href="#DejaVuSans-2212"/>
       <use xlink:href="#DejaVuSans-37" x="83.789062"/>
       <use xlink:href="#DejaVuSans-35" x="147.412109"/>
      </g>
     </g>
    </g>
    <g id="ytick_9">
     <g id="line2d_69">
      <path d="M 45.267188 496.868615 
L 982.876106 496.868615 
" clip-path="url(#pfb74ee7117)" style="fill: none; stroke-dasharray: 2.96,1.28; stroke-dashoffset: 0; stroke: #b0b0b0; stroke-width: 0.8"/>
     </g>
     <g id="line2d_70">
      <g>
       <use xlink:href="#m42a13f4ce6" x="45.267188" y="496.868615" style="stroke: #000000; stroke-width: 0.8"/>
      </g>
     </g>
     <g id="text_24">
      <!-- −50 -->
      <g transform="translate(17.1625 500.667834)scale(0.1 -0.1)">
       <use xlink:href="#DejaVuSans-2212"/>
       <use xlink:href="#DejaVuSans-35" x="83.789062"/>
       <use xlink:href="#DejaVuSans-30" x="147.412109"/>
      </g>
     </g>
    </g>
    <g id="ytick_10">
     <g id="line2d_71">
      <path d="M 45.267188 467.802778 
L 982.876106 467.802778 
" clip-path="url(#pfb74ee7117)" style="fill: none; stroke-dasharray: 2.96,1.28; stroke-dashoffset: 0; stroke: #b0b0b0; stroke-width: 0.8"/>
     </g>
     <g id="line2d_72">
      <g>
       <use xlink:href="#m42a13f4ce6" x="45.267188" y="467.802778" style="stroke: #000000; stroke-width: 0.8"/>
      </g>
     </g>
     <g id="text_25">
      <!-- −25 -->
      <g transform="translate(17.1625 471.601997)scale(0.1 -0.1)">
       <use xlink:href="#DejaVuSans-2212"/>
       <use xlink:href="#DejaVuSans-32" x="83.789062"/>
       <use xlink:href="#DejaVuSans-35" x="147.412109"/>
      </g>
     </g>
    </g>
    <g id="ytick_11">
     <g id="line2d_73">
      <path d="M 45.267188 438.736941 
L 982.876106 438.736941 
" clip-path="url(#pfb74ee7117)" style="fill: none; stroke-dasharray: 2.96,1.28; stroke-dashoffset: 0; stroke: #b0b0b0; stroke-width: 0.8"/>
     </g>
     <g id="line2d_74">
      <g>
       <use xlink:href="#m42a13f4ce6" x="45.267188" y="438.736941" style="stroke: #000000; stroke-width: 0.8"/>
      </g>
     </g>
     <g id="text_26">
      <!-- 0 -->
      <g transform="translate(31.904688 442.536159)scale(0.1 -0.1)">
       <use xlink:href="#DejaVuSans-30"/>
      </g>
     </g>
    </g>
    <g id="ytick_12">
     <g id="line2d_75">
      <path d="M 45.267188 409.671104 
L 982.876106 409.671104 
" clip-path="url(#pfb74ee7117)" style="fill: none; stroke-dasharray: 2.96,1.28; stroke-dashoffset: 0; stroke: #b0b0b0; stroke-width: 0.8"/>
     </g>
     <g id="line2d_76">
      <g>
       <use xlink:href="#m42a13f4ce6" x="45.267188" y="409.671104" style="stroke: #000000; stroke-width: 0.8"/>
      </g>
     </g>
     <g id="text_27">
      <!-- 25 -->
      <g transform="translate(25.542188 413.470322)scale(0.1 -0.1)">
       <use xlink:href="#DejaVuSans-32"/>
       <use xlink:href="#DejaVuSans-35" x="63.623047"/>
      </g>
     </g>
    </g>
    <g id="ytick_13">
     <g id="line2d_77">
      <path d="M 45.267188 380.605266 
L 982.876106 380.605266 
" clip-path="url(#pfb74ee7117)" style="fill: none; stroke-dasharray: 2.96,1.28; stroke-dashoffset: 0; stroke: #b0b0b0; stroke-width: 0.8"/>
     </g>
     <g id="line2d_78">
      <g>
       <use xlink:href="#m42a13f4ce6" x="45.267188" y="380.605266" style="stroke: #000000; stroke-width: 0.8"/>
      </g>
     </g>
     <g id="text_28">
      <!-- 50 -->
      <g transform="translate(25.542188 384.404485)scale(0.1 -0.1)">
       <use xlink:href="#DejaVuSans-35"/>
       <use xlink:href="#DejaVuSans-30" x="63.623047"/>
      </g>
     </g>
    </g>
    <g id="ytick_14">
     <g id="line2d_79">
      <path d="M 45.267188 351.539429 
L 982.876106 351.539429 
" clip-path="url(#pfb74ee7117)" style="fill: none; stroke-dasharray: 2.96,1.28; stroke-dashoffset: 0; stroke: #b0b0b0; stroke-width: 0.8"/>
     </g>
     <g id="line2d_80">
      <g>
       <use xlink:href="#m42a13f4ce6" x="45.267188" y="351.539429" style="stroke: #000000; stroke-width: 0.8"/>
      </g>
     </g>
     <g id="text_29">
      <!-- 75 -->
      <g transform="translate(25.542188 355.338648)scale(0.1 -0.1)">
       <use xlink:href="#DejaVuSans-37"/>
       <use xlink:href="#DejaVuSans-35" x="63.623047"/>
      </g>
     </g>
    </g>
   </g>
   <g id="line2d_81">
    <path d="M 87.885775 438.736941 
L 90.557786 438.42262 
L 93.229798 435.834342 
L 95.90181 432.224383 
L 98.573822 431.588872 
L 106.589857 429.22335 
L 109.261869 427.783281 
L 111.93388 426.808554 
L 114.605892 425.686331 
L 117.277904 426.170061 
L 125.293939 423.168372 
L 127.965951 426.850665 
L 130.637962 427.384779 
L 133.309974 436.56025 
L 135.981986 435.846083 
L 143.998021 437.984763 
L 146.670033 433.379961 
L 152.014056 427.573466 
L 154.686068 423.537772 
L 162.702103 415.498951 
L 165.374115 411.88941 
L 168.046127 409.371871 
L 170.718139 400.966752 
L 173.39015 399.340446 
L 181.406185 405.759339 
L 184.078197 412.558979 
L 186.750209 409.517955 
L 189.422221 407.005162 
L 192.094232 405.639905 
L 200.110268 411.603831 
L 202.782279 407.966729 
L 208.126303 403.375072 
L 210.798315 398.965746 
L 218.81435 400.557245 
L 221.486362 400.388225 
L 224.158373 402.488576 
L 226.830385 413.48951 
L 229.502397 419.778055 
L 237.518432 422.968304 
L 242.862455 439.729013 
L 248.206479 479.775745 
L 256.222514 495.804079 
L 258.894526 500.276209 
L 261.566538 501.097279 
L 264.238549 493.488686 
L 266.910561 486.844759 
L 274.926596 478.409041 
L 277.598608 471.212127 
L 280.27062 454.665344 
L 282.942631 434.169808 
L 293.630678 423.773326 
L 296.30269 409.640597 
L 298.974702 403.930225 
L 301.646714 401.466535 
L 304.318725 393.503722 
L 312.334761 384.71784 
L 315.006772 378.327921 
L 317.678784 375.39009 
L 320.350796 375.751842 
L 323.022808 368.757732 
L 331.038843 361.890331 
L 333.710854 353.144961 
L 336.382866 347.998267 
L 339.054878 344.959804 
L 341.72689 342.901806 
L 349.742925 344.523562 
L 355.086948 363.40136 
L 368.447007 370.182897 
L 371.119019 381.586331 
L 373.791031 385.293164 
L 376.463042 390.507798 
L 379.135054 400.677829 
L 387.151089 405.337913 
L 389.823101 390.019972 
L 392.495113 377.320668 
L 395.167124 374.665572 
L 397.839136 383.021054 
L 405.855171 400.024723 
L 411.199195 425.504833 
L 413.871207 443.118083 
L 416.543218 459.104004 
L 427.231265 467.078466 
L 429.903277 466.545395 
L 432.575289 468.391013 
L 435.2473 464.208435 
L 443.263336 453.80745 
L 445.935347 442.980199 
L 448.607359 429.972919 
L 451.279371 428.468683 
L 453.951383 419.135185 
L 461.967418 412.199014 
L 464.63943 407.33136 
L 467.311441 403.087709 
L 469.983453 394.092737 
L 472.655465 389.806933 
L 480.6715 384.814264 
L 483.343512 380.831141 
L 486.015523 391.720954 
L 488.687535 403.699885 
L 491.359547 414.967822 
L 499.375582 410.687473 
L 502.047594 406.068072 
L 504.719606 406.525481 
L 507.391617 399.415722 
L 510.063629 394.075628 
L 518.079664 390.377598 
L 520.751676 406.530824 
L 523.423688 418.037351 
L 528.767711 443.935755 
L 536.783746 455.226045 
L 539.455758 461.166672 
L 542.12777 466.455645 
L 544.799782 456.451975 
L 547.471793 445.764838 
L 555.487829 432.874163 
L 558.15984 420.263343 
L 560.831852 412.582849 
L 563.503864 421.789775 
L 566.175876 436.800945 
L 574.191911 443.469277 
L 576.863922 448.361598 
L 579.535934 443.710434 
L 582.207946 437.927644 
L 584.879958 430.67032 
L 592.895993 422.892244 
L 595.568005 417.0438 
L 598.240016 411.512528 
L 600.912028 407.261944 
L 603.58404 399.639354 
L 611.600075 387.555867 
L 614.272087 377.007273 
L 616.944099 369.441545 
L 619.61611 359.202778 
L 622.288122 352.323827 
L 630.304157 351.012113 
L 632.976169 359.845825 
L 635.648181 371.537937 
L 638.320192 383.838477 
L 640.992204 388.889043 
L 649.008239 387.956095 
L 651.680251 385.680002 
L 654.352263 383.828979 
L 657.024275 382.239337 
L 659.696286 381.507896 
L 667.712322 380.7013 
L 673.056345 379.59924 
L 675.728357 379.534943 
L 678.400368 379.741883 
L 689.088415 375.646923 
L 691.760427 375.313921 
L 694.432439 376.448195 
L 697.104451 376.757556 
L 705.120486 380.762207 
L 707.792498 382.441206 
L 710.464509 384.277639 
L 713.136521 386.596746 
L 715.808533 389.800873 
L 723.824568 395.127256 
L 726.49658 394.714876 
L 731.840603 395.686436 
L 734.512615 401.148877 
L 742.52865 412.743272 
L 745.200662 424.650738 
L 747.872674 441.907912 
L 750.544685 455.304244 
L 753.216697 465.425653 
L 761.232732 471.038809 
L 766.576756 479.943229 
L 769.248768 490.645098 
L 771.920779 505.714098 
L 779.936814 515.02268 
L 782.608826 515.849178 
L 785.280838 519.14228 
L 787.95285 520.963713 
L 790.624861 524.236073 
L 798.640897 537.363093 
L 801.312908 549.547358 
L 803.98492 557.459655 
L 806.656932 568.72378 
L 809.328944 571.332953 
L 817.344979 573.016157 
L 820.016991 566.845752 
L 825.361014 559.155636 
L 828.033026 550.932888 
L 836.049061 541.969186 
L 838.721073 541.950074 
L 841.393084 531.878484 
L 844.065096 524.753286 
L 846.737108 521.371798 
L 854.753143 512.355155 
L 857.425155 506.093478 
L 860.097167 496.28819 
L 862.769178 484.611285 
L 865.44119 477.096266 
L 873.457225 467.877622 
L 876.129237 464.561427 
L 881.47326 464.618285 
L 884.145272 459.878997 
L 892.161307 455.818287 
L 894.833319 446.798586 
L 897.505331 439.25974 
L 900.177343 429.943512 
L 902.849354 422.967274 
L 910.86539 417.797203 
L 916.209413 416.795401 
L 918.881425 417.647108 
L 921.553437 418.271865 
L 929.569472 419.147598 
L 932.241483 416.518706 
L 934.913495 416.261085 
L 937.585507 421.258725 
L 940.257519 431.049473 
L 940.257519 431.049473 
" clip-path="url(#pfb74ee7117)" style="fill: none; stroke: #1f77b4; stroke-width: 1.5; stroke-linecap: square"/>
   </g>
   <g id="line2d_82">
    <path d="M 87.885775 438.736941 
L 90.557786 438.562318 
L 93.229798 437.444295 
L 95.90181 435.676032 
L 98.573822 434.460194 
L 106.589857 433.040718 
L 109.261869 431.710201 
L 114.605892 429.412814 
L 117.277904 428.686249 
L 125.293939 427.478969 
L 127.965951 427.344035 
L 130.637962 427.352658 
L 133.309974 429.278893 
L 135.981986 430.640229 
L 143.998021 432.151679 
L 146.670033 432.402995 
L 152.014056 431.41937 
L 154.686068 429.820001 
L 162.702103 426.922383 
L 168.046127 420.963033 
L 170.718139 416.940029 
L 173.39015 413.403411 
L 181.406185 411.868799 
L 184.078197 412.007254 
L 186.750209 411.508187 
L 192.094232 409.611111 
L 200.110268 410.010149 
L 202.782279 409.60106 
L 205.454291 408.815764 
L 208.126303 407.726936 
L 210.798315 405.973809 
L 218.81435 404.890057 
L 221.486362 403.989398 
L 224.158373 403.689156 
L 226.830385 405.649634 
L 229.502397 408.475788 
L 237.518432 411.374676 
L 242.862455 417.046147 
L 245.534467 425.54955 
L 248.206479 436.395527 
L 256.222514 448.277884 
L 258.894526 458.678002 
L 261.566538 467.162153 
L 264.238549 472.427607 
L 266.910561 475.311101 
L 274.926596 475.9307 
L 277.598608 474.986972 
L 280.27062 470.9226 
L 282.942631 463.571975 
L 293.630678 455.612187 
L 296.30269 446.417815 
L 298.974702 437.920257 
L 304.318725 423.204311 
L 312.334761 415.506998 
L 315.006772 408.071168 
L 317.678784 401.534943 
L 320.350796 396.378316 
L 323.022808 390.854194 
L 331.038843 385.061417 
L 336.382866 372.542148 
L 339.054878 367.025677 
L 341.72689 362.200901 
L 349.742925 358.665432 
L 352.414937 357.692698 
L 355.086948 358.834431 
L 368.447007 361.104124 
L 376.463042 373.476829 
L 379.135054 378.917029 
L 387.151089 384.201206 
L 389.823101 385.364959 
L 392.495113 383.756101 
L 395.167124 381.937995 
L 397.839136 382.154607 
L 405.855171 385.72863 
L 411.199195 393.683871 
L 413.871207 403.570713 
L 416.543218 414.677372 
L 424.559254 424.742964 
L 427.231265 433.210064 
L 429.903277 439.877131 
L 432.575289 445.579907 
L 435.2473 449.305613 
L 443.263336 450.20598 
L 445.935347 448.760824 
L 448.607359 445.003243 
L 451.279371 441.696331 
L 453.951383 437.184102 
L 461.967418 432.187084 
L 467.311441 422.390293 
L 469.983453 416.730782 
L 472.655465 411.346012 
L 480.6715 406.039663 
L 483.343512 400.997958 
L 486.015523 399.142557 
L 488.687535 400.054023 
L 491.359547 403.036783 
L 499.375582 404.566921 
L 504.719606 405.198817 
L 507.391617 404.042198 
L 510.063629 402.048884 
L 518.079664 399.714627 
L 520.751676 401.077866 
L 523.423688 404.469763 
L 526.095699 409.77347 
L 528.767711 416.605927 
L 536.783746 424.329951 
L 539.455758 431.697295 
L 542.12777 438.648965 
L 544.799782 442.209567 
L 547.471793 442.920621 
L 555.487829 440.91133 
L 558.15984 436.781732 
L 560.831852 431.941955 
L 563.503864 429.911519 
L 566.175876 431.289404 
L 574.191911 433.725379 
L 576.863922 436.652623 
L 579.535934 438.064185 
L 582.207946 438.036877 
L 584.879958 436.563565 
L 592.895993 433.829301 
L 595.568005 430.472201 
L 600.912028 422.796602 
L 603.58404 418.165152 
L 611.600075 412.043295 
L 616.944099 397.917182 
L 622.288122 382.604206 
L 630.304157 376.285788 
L 632.976169 372.997795 
L 635.648181 372.705823 
L 638.320192 374.932354 
L 640.992204 377.723692 
L 649.008239 379.770172 
L 651.680251 380.952138 
L 654.352263 381.527507 
L 657.024275 381.669873 
L 667.712322 381.450242 
L 673.056345 381.080042 
L 678.400368 380.565194 
L 689.088415 379.58154 
L 691.760427 378.728016 
L 694.432439 378.272052 
L 697.104451 377.969153 
L 705.120486 378.527764 
L 707.792498 379.310452 
L 710.464509 380.303889 
L 713.136521 381.562461 
L 715.808533 383.210143 
L 723.824568 385.593566 
L 726.49658 387.417828 
L 731.840603 389.071549 
L 734.512615 391.487015 
L 742.52865 395.738266 
L 745.200662 401.520761 
L 747.872674 409.598191 
L 753.216697 428.076652 
L 761.232732 436.669083 
L 763.904744 444.419447 
L 766.576756 451.524203 
L 769.248768 459.348382 
L 771.920779 468.621526 
L 779.936814 477.901756 
L 782.608826 485.491241 
L 785.280838 492.221449 
L 787.95285 497.969901 
L 790.624861 503.223136 
L 798.640897 510.051127 
L 803.98492 525.85223 
L 806.656932 534.42654 
L 809.328944 541.807823 
L 817.344979 548.04949 
L 820.016991 551.808742 
L 825.361014 553.278121 
L 828.033026 552.809074 
L 836.049061 550.641097 
L 838.721073 548.902892 
L 841.393084 545.498011 
L 846.737108 537.353612 
L 854.753143 532.353921 
L 857.425155 527.101832 
L 860.097167 520.939104 
L 865.44119 506.358085 
L 873.457225 498.661992 
L 876.129237 491.841879 
L 881.47326 486.397161 
L 884.145272 481.093528 
L 892.161307 476.03848 
L 894.833319 470.190501 
L 897.505331 464.004349 
L 902.849354 450.3472 
L 910.86539 443.8372 
L 916.209413 438.428841 
L 918.881425 434.272494 
L 921.553437 431.072368 
L 929.569472 428.687414 
L 932.241483 426.253673 
L 934.913495 424.255155 
L 937.585507 423.655869 
L 940.257519 425.13459 
L 940.257519 425.13459 
" clip-path="url(#pfb74ee7117)" style="fill: none; stroke: #ff7f0e; stroke-width: 1.5; stroke-linecap: square"/>
   </g>
   <g id="patch_9">
    <path d="M 45.267188 584.521875 
L 45.267188 331.396088 
" style="fill: none; stroke: #000000; stroke-width: 0.8; stroke-linejoin: miter; stroke-linecap: square"/>
   </g>
   <g id="patch_10">
    <path d="M 982.876106 584.521875 
L 982.876106 331.396088 
" style="fill: none; stroke: #000000; stroke-width: 0.8; stroke-linejoin: miter; stroke-linecap: square"/>
   </g>
   <g id="patch_11">
    <path d="M 45.267188 584.521875 
L 982.876106 584.521875 
" style="fill: none; stroke: #000000; stroke-width: 0.8; stroke-linejoin: miter; stroke-linecap: square"/>
   </g>
   <g id="patch_12">
    <path d="M 45.267188 331.396088 
L 982.876106 331.396088 
" style="fill: none; stroke: #000000; stroke-width: 0.8; stroke-linejoin: miter; stroke-linecap: square"/>
   </g>
   <g id="text_30">
    <!-- MACD -->
    <g transform="translate(496.085709 325.396088)scale(0.12 -0.12)">
     <defs>
      <path id="DejaVuSans-44" d="M 1259 4147 
L 1259 519 
L 2022 519 
Q 2988 519 3436 956 
Q 3884 1394 3884 2338 
Q 3884 3275 3436 3711 
Q 2988 4147 2022 4147 
L 1259 4147 
z
M 628 4666 
L 1925 4666 
Q 3281 4666 3915 4102 
Q 4550 3538 4550 2338 
Q 4550 1131 3912 565 
Q 3275 0 1925 0 
L 628 0 
L 628 4666 
z
" transform="scale(0.015625)"/>
     </defs>
     <use xlink:href="#DejaVuSans-4d"/>
     <use xlink:href="#DejaVuSans-41" x="86.279297"/>
     <use xlink:href="#DejaVuSans-43" x="152.9375"/>
     <use xlink:href="#DejaVuSans-44" x="222.761719"/>
    </g>
   </g>
   <g id="legend_2">
    <g id="patch_13">
     <path d="M 913.899543 368.752338 
L 975.876106 368.752338 
Q 977.876106 368.752338 977.876106 366.752338 
L 977.876106 338.396088 
Q 977.876106 336.396088 975.876106 336.396088 
L 913.899543 336.396088 
Q 911.899543 336.396088 911.899543 338.396088 
L 911.899543 366.752338 
Q 911.899543 368.752338 913.899543 368.752338 
z
" style="fill: #ffffff; opacity: 0.8; stroke: #cccccc; stroke-linejoin: miter"/>
    </g>
    <g id="line2d_83">
     <path d="M 915.899543 344.494525 
L 925.899543 344.494525 
L 935.899543 344.494525 
" style="fill: none; stroke: #1f77b4; stroke-width: 1.5; stroke-linecap: square"/>
    </g>
    <g id="text_31">
     <!-- MACD -->
     <g transform="translate(943.899543 347.994525)scale(0.1 -0.1)">
      <use xlink:href="#DejaVuSans-4d"/>
      <use xlink:href="#DejaVuSans-41" x="86.279297"/>
      <use xlink:href="#DejaVuSans-43" x="152.9375"/>
      <use xlink:href="#DejaVuSans-44" x="222.761719"/>
     </g>
    </g>
    <g id="line2d_84">
     <path d="M 915.899543 359.17265 
L 925.899543 359.17265 
L 935.899543 359.17265 
" style="fill: none; stroke: #ff7f0e; stroke-width: 1.5; stroke-linecap: square"/>
    </g>
    <g id="text_32">
     <!-- SIG -->
     <g transform="translate(943.899543 362.67265)scale(0.1 -0.1)">
      <defs>
       <path id="DejaVuSans-49" d="M 628 4666 
L 1259 4666 
L 1259 0 
L 628 0 
L 628 4666 
z
" transform="scale(0.015625)"/>
       <path id="DejaVuSans-47" d="M 3809 666 
L 3809 1919 
L 2778 1919 
L 2778 2438 
L 4434 2438 
L 4434 434 
Q 4069 175 3628 42 
Q 3188 -91 2688 -91 
Q 1594 -91 976 548 
Q 359 1188 359 2328 
Q 359 3472 976 4111 
Q 1594 4750 2688 4750 
Q 3144 4750 3555 4637 
Q 3966 4525 4313 4306 
L 4313 3634 
Q 3963 3931 3569 4081 
Q 3175 4231 2741 4231 
Q 1884 4231 1454 3753 
Q 1025 3275 1025 2328 
Q 1025 1384 1454 906 
Q 1884 428 2741 428 
Q 3075 428 3337 486 
Q 3600 544 3809 666 
z
" transform="scale(0.015625)"/>
      </defs>
      <use xlink:href="#DejaVuSans-53"/>
      <use xlink:href="#DejaVuSans-49" x="63.476562"/>
      <use xlink:href="#DejaVuSans-47" x="92.96875"/>
     </g>
    </g>
   </g>
  </g>
  <g id="text_33">
   <!-- Bajaj Auto Limited -->
   <g transform="translate(449.0775 21.358125)scale(0.12 -0.12)">
    <defs>
     <path id="DejaVuSans-42" d="M 1259 2228 
L 1259 519 
L 2272 519 
Q 2781 519 3026 730 
Q 3272 941 3272 1375 
Q 3272 1813 3026 2020 
Q 2781 2228 2272 2228 
L 1259 2228 
z
M 1259 4147 
L 1259 2741 
L 2194 2741 
Q 2656 2741 2882 2914 
Q 3109 3088 3109 3444 
Q 3109 3797 2882 3972 
Q 2656 4147 2194 4147 
L 1259 4147 
z
M 628 4666 
L 2241 4666 
Q 2963 4666 3353 4366 
Q 3744 4066 3744 3513 
Q 3744 3084 3544 2831 
Q 3344 2578 2956 2516 
Q 3422 2416 3680 2098 
Q 3938 1781 3938 1306 
Q 3938 681 3513 340 
Q 3088 0 2303 0 
L 628 0 
L 628 4666 
z
" transform="scale(0.015625)"/>
     <path id="DejaVuSans-61" d="M 2194 1759 
Q 1497 1759 1228 1600 
Q 959 1441 959 1056 
Q 959 750 1161 570 
Q 1363 391 1709 391 
Q 2188 391 2477 730 
Q 2766 1069 2766 1631 
L 2766 1759 
L 2194 1759 
z
M 3341 1997 
L 3341 0 
L 2766 0 
L 2766 531 
Q 2569 213 2275 61 
Q 1981 -91 1556 -91 
Q 1019 -91 701 211 
Q 384 513 384 1019 
Q 384 1609 779 1909 
Q 1175 2209 1959 2209 
L 2766 2209 
L 2766 2266 
Q 2766 2663 2505 2880 
Q 2244 3097 1772 3097 
Q 1472 3097 1187 3025 
Q 903 2953 641 2809 
L 641 3341 
Q 956 3463 1253 3523 
Q 1550 3584 1831 3584 
Q 2591 3584 2966 3190 
Q 3341 2797 3341 1997 
z
" transform="scale(0.015625)"/>
     <path id="DejaVuSans-6a" d="M 603 3500 
L 1178 3500 
L 1178 -63 
Q 1178 -731 923 -1031 
Q 669 -1331 103 -1331 
L -116 -1331 
L -116 -844 
L 38 -844 
Q 366 -844 484 -692 
Q 603 -541 603 -63 
L 603 3500 
z
M 603 4863 
L 1178 4863 
L 1178 4134 
L 603 4134 
L 603 4863 
z
" transform="scale(0.015625)"/>
     <path id="DejaVuSans-75" d="M 544 1381 
L 544 3500 
L 1119 3500 
L 1119 1403 
Q 1119 906 1312 657 
Q 1506 409 1894 409 
Q 2359 409 2629 706 
Q 2900 1003 2900 1516 
L 2900 3500 
L 3475 3500 
L 3475 0 
L 2900 0 
L 2900 538 
Q 2691 219 2414 64 
Q 2138 -91 1772 -91 
Q 1169 -91 856 284 
Q 544 659 544 1381 
z
M 1991 3584 
L 1991 3584 
z
" transform="scale(0.015625)"/>
     <path id="DejaVuSans-74" d="M 1172 4494 
L 1172 3500 
L 2356 3500 
L 2356 3053 
L 1172 3053 
L 1172 1153 
Q 1172 725 1289 603 
Q 1406 481 1766 481 
L 2356 481 
L 2356 0 
L 1766 0 
Q 1100 0 847 248 
Q 594 497 594 1153 
L 594 3053 
L 172 3053 
L 172 3500 
L 594 3500 
L 594 4494 
L 1172 4494 
z
" transform="scale(0.015625)"/>
     <path id="DejaVuSans-6d" d="M 3328 2828 
Q 3544 3216 3844 3400 
Q 4144 3584 4550 3584 
Q 5097 3584 5394 3201 
Q 5691 2819 5691 2113 
L 5691 0 
L 5113 0 
L 5113 2094 
Q 5113 2597 4934 2840 
Q 4756 3084 4391 3084 
Q 3944 3084 3684 2787 
Q 3425 2491 3425 1978 
L 3425 0 
L 2847 0 
L 2847 2094 
Q 2847 2600 2669 2842 
Q 2491 3084 2119 3084 
Q 1678 3084 1418 2786 
Q 1159 2488 1159 1978 
L 1159 0 
L 581 0 
L 581 3500 
L 1159 3500 
L 1159 2956 
Q 1356 3278 1631 3431 
Q 1906 3584 2284 3584 
Q 2666 3584 2933 3390 
Q 3200 3197 3328 2828 
z
" transform="scale(0.015625)"/>
     <path id="DejaVuSans-64" d="M 2906 2969 
L 2906 4863 
L 3481 4863 
L 3481 0 
L 2906 0 
L 2906 525 
Q 2725 213 2448 61 
Q 2172 -91 1784 -91 
Q 1150 -91 751 415 
Q 353 922 353 1747 
Q 353 2572 751 3078 
Q 1150 3584 1784 3584 
Q 2172 3584 2448 3432 
Q 2725 3281 2906 2969 
z
M 947 1747 
Q 947 1113 1208 752 
Q 1469 391 1925 391 
Q 2381 391 2643 752 
Q 2906 1113 2906 1747 
Q 2906 2381 2643 2742 
Q 2381 3103 1925 3103 
Q 1469 3103 1208 2742 
Q 947 2381 947 1747 
z
" transform="scale(0.015625)"/>
    </defs>
    <use xlink:href="#DejaVuSans-42"/>
    <use xlink:href="#DejaVuSans-61" x="68.603516"/>
    <use xlink:href="#DejaVuSans-6a" x="129.882812"/>
    <use xlink:href="#DejaVuSans-61" x="157.666016"/>
    <use xlink:href="#DejaVuSans-6a" x="218.945312"/>
    <use xlink:href="#DejaVuSans-20" x="246.728516"/>
    <use xlink:href="#DejaVuSans-41" x="278.515625"/>
    <use xlink:href="#DejaVuSans-75" x="346.923828"/>
    <use xlink:href="#DejaVuSans-74" x="410.302734"/>
    <use xlink:href="#DejaVuSans-6f" x="449.511719"/>
    <use xlink:href="#DejaVuSans-20" x="510.693359"/>
    <use xlink:href="#DejaVuSans-4c" x="542.480469"/>
    <use xlink:href="#DejaVuSans-69" x="598.193359"/>
    <use xlink:href="#DejaVuSans-6d" x="625.976562"/>
    <use xlink:href="#DejaVuSans-69" x="723.388672"/>
    <use xlink:href="#DejaVuSans-74" x="751.171875"/>
    <use xlink:href="#DejaVuSans-65" x="790.380859"/>
    <use xlink:href="#DejaVuSans-64" x="851.904297"/>
   </g>
  </g>
 </g>
 <defs>
  <clipPath id="p563f296b83">
   <rect x="45.267188" y="48.331875" width="937.608918" height="253.125787"/>
  </clipPath>
  <clipPath id="pfb74ee7117">
   <rect x="45.267188" y="331.396088" width="937.608918" height="253.125787"/>
  </clipPath>
 </defs>
</svg>
