<?xml version="1.0" encoding="utf-8" standalone="no"?>
<!DOCTYPE svg PUBLIC "-//W3C//DTD SVG 1.1//EN"
  "http://www.w3.org/Graphics/SVG/1.1/DTD/svg11.dtd">
<svg xmlns:xlink="http://www.w3.org/1999/xlink" width="1008pt" height="612pt" viewBox="0 0 1008 612" xmlns="http://www.w3.org/2000/svg" version="1.1">
 <metadata>
  <rdf:RDF xmlns:dc="http://purl.org/dc/elements/1.1/" xmlns:cc="http://creativecommons.org/ns#" xmlns:rdf="http://www.w3.org/1999/02/22-rdf-syntax-ns#">
   <cc:Work>
    <dc:type rdf:resource="http://purl.org/dc/dcmitype/StillImage"/>
    <dc:date>2022-11-20T19:47:10.683612</dc:date>
    <dc:format>image/svg+xml</dc:format>
    <dc:creator>
     <cc:Agent>
      <dc:title>Matplotlib v3.5.2, https://matplotlib.org/</dc:title>
     </cc:Agent>
    </dc:creator>
   </cc:Work>
  </rdf:RDF>
 </metadata>
 <defs>
  <style type="text/css">*{stroke-linejoin: round; stroke-linecap: butt}</style>
 </defs>
 <g id="figure_1">
  <g id="patch_1">
   <path d="M 0 612 
L 1008 612 
L 1008 0 
L 0 0 
z
" style="fill: #ffffff"/>
  </g>
  <g id="axes_1">
   <g id="patch_2">
    <path d="M 38.904688 301.324971 
L 982.876106 301.324971 
L 982.876106 48.331875 
L 38.904688 48.331875 
z
" style="fill: #ffffff"/>
   </g>
   <g id="matplotlib.axis_1">
    <g id="xtick_1">
     <g id="line2d_1">
      <path d="M 76.432192 301.324971 
L 76.432192 48.331875 
" clip-path="url(#p48f938049a)" style="fill: none; stroke-dasharray: 2.96,1.28; stroke-dashoffset: 0; stroke: #b0b0b0; stroke-width: 0.8"/>
     </g>
     <g id="line2d_2">
      <defs>
       <path id="m018ab57ba2" d="M 0 0 
L 0 3.5 
" style="stroke: #000000; stroke-width: 0.8"/>
      </defs>
      <g>
       <use xlink:href="#m018ab57ba2" x="76.432192" y="301.324971" style="stroke: #000000; stroke-width: 0.8"/>
      </g>
     </g>
    </g>
    <g id="xtick_2">
     <g id="line2d_3">
      <path d="M 159.826646 301.324971 
L 159.826646 48.331875 
" clip-path="url(#p48f938049a)" style="fill: none; stroke-dasharray: 2.96,1.28; stroke-dashoffset: 0; stroke: #b0b0b0; stroke-width: 0.8"/>
     </g>
     <g id="line2d_4">
      <g>
       <use xlink:href="#m018ab57ba2" x="159.826646" y="301.324971" style="stroke: #000000; stroke-width: 0.8"/>
      </g>
     </g>
    </g>
    <g id="xtick_3">
     <g id="line2d_5">
      <path d="M 235.150669 301.324971 
L 235.150669 48.331875 
" clip-path="url(#p48f938049a)" style="fill: none; stroke-dasharray: 2.96,1.28; stroke-dashoffset: 0; stroke: #b0b0b0; stroke-width: 0.8"/>
     </g>
     <g id="line2d_6">
      <g>
       <use xlink:href="#m018ab57ba2" x="235.150669" y="301.324971" style="stroke: #000000; stroke-width: 0.8"/>
      </g>
     </g>
    </g>
    <g id="xtick_4">
     <g id="line2d_7">
      <path d="M 318.545123 301.324971 
L 318.545123 48.331875 
" clip-path="url(#p48f938049a)" style="fill: none; stroke-dasharray: 2.96,1.28; stroke-dashoffset: 0; stroke: #b0b0b0; stroke-width: 0.8"/>
     </g>
     <g id="line2d_8">
      <g>
       <use xlink:href="#m018ab57ba2" x="318.545123" y="301.324971" style="stroke: #000000; stroke-width: 0.8"/>
      </g>
     </g>
    </g>
    <g id="xtick_5">
     <g id="line2d_9">
      <path d="M 399.249434 301.324971 
L 399.249434 48.331875 
" clip-path="url(#p48f938049a)" style="fill: none; stroke-dasharray: 2.96,1.28; stroke-dashoffset: 0; stroke: #b0b0b0; stroke-width: 0.8"/>
     </g>
     <g id="line2d_10">
      <g>
       <use xlink:href="#m018ab57ba2" x="399.249434" y="301.324971" style="stroke: #000000; stroke-width: 0.8"/>
      </g>
     </g>
    </g>
    <g id="xtick_6">
     <g id="line2d_11">
      <path d="M 482.643888 301.324971 
L 482.643888 48.331875 
" clip-path="url(#p48f938049a)" style="fill: none; stroke-dasharray: 2.96,1.28; stroke-dashoffset: 0; stroke: #b0b0b0; stroke-width: 0.8"/>
     </g>
     <g id="line2d_12">
      <g>
       <use xlink:href="#m018ab57ba2" x="482.643888" y="301.324971" style="stroke: #000000; stroke-width: 0.8"/>
      </g>
     </g>
    </g>
    <g id="xtick_7">
     <g id="line2d_13">
      <path d="M 563.348198 301.324971 
L 563.348198 48.331875 
" clip-path="url(#p48f938049a)" style="fill: none; stroke-dasharray: 2.96,1.28; stroke-dashoffset: 0; stroke: #b0b0b0; stroke-width: 0.8"/>
     </g>
     <g id="line2d_14">
      <g>
       <use xlink:href="#m018ab57ba2" x="563.348198" y="301.324971" style="stroke: #000000; stroke-width: 0.8"/>
      </g>
     </g>
    </g>
    <g id="xtick_8">
     <g id="line2d_15">
      <path d="M 646.742653 301.324971 
L 646.742653 48.331875 
" clip-path="url(#p48f938049a)" style="fill: none; stroke-dasharray: 2.96,1.28; stroke-dashoffset: 0; stroke: #b0b0b0; stroke-width: 0.8"/>
     </g>
     <g id="line2d_16">
      <g>
       <use xlink:href="#m018ab57ba2" x="646.742653" y="301.324971" style="stroke: #000000; stroke-width: 0.8"/>
      </g>
     </g>
    </g>
    <g id="xtick_9">
     <g id="line2d_17">
      <path d="M 730.137107 301.324971 
L 730.137107 48.331875 
" clip-path="url(#p48f938049a)" style="fill: none; stroke-dasharray: 2.96,1.28; stroke-dashoffset: 0; stroke: #b0b0b0; stroke-width: 0.8"/>
     </g>
     <g id="line2d_18">
      <g>
       <use xlink:href="#m018ab57ba2" x="730.137107" y="301.324971" style="stroke: #000000; stroke-width: 0.8"/>
      </g>
     </g>
    </g>
    <g id="xtick_10">
     <g id="line2d_19">
      <path d="M 810.841417 301.324971 
L 810.841417 48.331875 
" clip-path="url(#p48f938049a)" style="fill: none; stroke-dasharray: 2.96,1.28; stroke-dashoffset: 0; stroke: #b0b0b0; stroke-width: 0.8"/>
     </g>
     <g id="line2d_20">
      <g>
       <use xlink:href="#m018ab57ba2" x="810.841417" y="301.324971" style="stroke: #000000; stroke-width: 0.8"/>
      </g>
     </g>
    </g>
    <g id="xtick_11">
     <g id="line2d_21">
      <path d="M 894.235872 301.324971 
L 894.235872 48.331875 
" clip-path="url(#p48f938049a)" style="fill: none; stroke-dasharray: 2.96,1.28; stroke-dashoffset: 0; stroke: #b0b0b0; stroke-width: 0.8"/>
     </g>
     <g id="line2d_22">
      <g>
       <use xlink:href="#m018ab57ba2" x="894.235872" y="301.324971" style="stroke: #000000; stroke-width: 0.8"/>
      </g>
     </g>
    </g>
    <g id="xtick_12">
     <g id="line2d_23">
      <path d="M 974.940182 301.324971 
L 974.940182 48.331875 
" clip-path="url(#p48f938049a)" style="fill: none; stroke-dasharray: 2.96,1.28; stroke-dashoffset: 0; stroke: #b0b0b0; stroke-width: 0.8"/>
     </g>
     <g id="line2d_24">
      <g>
       <use xlink:href="#m018ab57ba2" x="974.940182" y="301.324971" style="stroke: #000000; stroke-width: 0.8"/>
      </g>
     </g>
    </g>
   </g>
   <g id="matplotlib.axis_2">
    <g id="ytick_1">
     <g id="line2d_25">
      <path d="M 38.904688 299.443204 
L 982.876106 299.443204 
" clip-path="url(#p48f938049a)" style="fill: none; stroke-dasharray: 2.96,1.28; stroke-dashoffset: 0; stroke: #b0b0b0; stroke-width: 0.8"/>
     </g>
     <g id="line2d_26">
      <defs>
       <path id="m72d6b2ebd3" d="M 0 0 
L -3.5 0 
" style="stroke: #000000; stroke-width: 0.8"/>
      </defs>
      <g>
       <use xlink:href="#m72d6b2ebd3" x="38.904688" y="299.443204" style="stroke: #000000; stroke-width: 0.8"/>
      </g>
     </g>
     <g id="text_1">
      <!-- 480 -->
      <g transform="translate(12.817187 303.242423)scale(0.1 -0.1)">
       <defs>
        <path id="DejaVuSans-34" d="M 2419 4116 
L 825 1625 
L 2419 1625 
L 2419 4116 
z
M 2253 4666 
L 3047 4666 
L 3047 1625 
L 3713 1625 
L 3713 1100 
L 3047 1100 
L 3047 0 
L 2419 0 
L 2419 1100 
L 313 1100 
L 313 1709 
L 2253 4666 
z
" transform="scale(0.015625)"/>
        <path id="DejaVuSans-38" d="M 2034 2216 
Q 1584 2216 1326 1975 
Q 1069 1734 1069 1313 
Q 1069 891 1326 650 
Q 1584 409 2034 409 
Q 2484 409 2743 651 
Q 3003 894 3003 1313 
Q 3003 1734 2745 1975 
Q 2488 2216 2034 2216 
z
M 1403 2484 
Q 997 2584 770 2862 
Q 544 3141 544 3541 
Q 544 4100 942 4425 
Q 1341 4750 2034 4750 
Q 2731 4750 3128 4425 
Q 3525 4100 3525 3541 
Q 3525 3141 3298 2862 
Q 3072 2584 2669 2484 
Q 3125 2378 3379 2068 
Q 3634 1759 3634 1313 
Q 3634 634 3220 271 
Q 2806 -91 2034 -91 
Q 1263 -91 848 271 
Q 434 634 434 1313 
Q 434 1759 690 2068 
Q 947 2378 1403 2484 
z
M 1172 3481 
Q 1172 3119 1398 2916 
Q 1625 2713 2034 2713 
Q 2441 2713 2670 2916 
Q 2900 3119 2900 3481 
Q 2900 3844 2670 4047 
Q 2441 4250 2034 4250 
Q 1625 4250 1398 4047 
Q 1172 3844 1172 3481 
z
" transform="scale(0.015625)"/>
        <path id="DejaVuSans-30" d="M 2034 4250 
Q 1547 4250 1301 3770 
Q 1056 3291 1056 2328 
Q 1056 1369 1301 889 
Q 1547 409 2034 409 
Q 2525 409 2770 889 
Q 3016 1369 3016 2328 
Q 3016 3291 2770 3770 
Q 2525 4250 2034 4250 
z
M 2034 4750 
Q 2819 4750 3233 4129 
Q 3647 3509 3647 2328 
Q 3647 1150 3233 529 
Q 2819 -91 2034 -91 
Q 1250 -91 836 529 
Q 422 1150 422 2328 
Q 422 3509 836 4129 
Q 1250 4750 2034 4750 
z
" transform="scale(0.015625)"/>
       </defs>
       <use xlink:href="#DejaVuSans-34"/>
       <use xlink:href="#DejaVuSans-38" x="63.623047"/>
       <use xlink:href="#DejaVuSans-30" x="127.246094"/>
      </g>
     </g>
    </g>
    <g id="ytick_2">
     <g id="line2d_27">
      <path d="M 38.904688 257.626163 
L 982.876106 257.626163 
" clip-path="url(#p48f938049a)" style="fill: none; stroke-dasharray: 2.96,1.28; stroke-dashoffset: 0; stroke: #b0b0b0; stroke-width: 0.8"/>
     </g>
     <g id="line2d_28">
      <g>
       <use xlink:href="#m72d6b2ebd3" x="38.904688" y="257.626163" style="stroke: #000000; stroke-width: 0.8"/>
      </g>
     </g>
     <g id="text_2">
      <!-- 500 -->
      <g transform="translate(12.817187 261.425382)scale(0.1 -0.1)">
       <defs>
        <path id="DejaVuSans-35" d="M 691 4666 
L 3169 4666 
L 3169 4134 
L 1269 4134 
L 1269 2991 
Q 1406 3038 1543 3061 
Q 1681 3084 1819 3084 
Q 2600 3084 3056 2656 
Q 3513 2228 3513 1497 
Q 3513 744 3044 326 
Q 2575 -91 1722 -91 
Q 1428 -91 1123 -41 
Q 819 9 494 109 
L 494 744 
Q 775 591 1075 516 
Q 1375 441 1709 441 
Q 2250 441 2565 725 
Q 2881 1009 2881 1497 
Q 2881 1984 2565 2268 
Q 2250 2553 1709 2553 
Q 1456 2553 1204 2497 
Q 953 2441 691 2322 
L 691 4666 
z
" transform="scale(0.015625)"/>
       </defs>
       <use xlink:href="#DejaVuSans-35"/>
       <use xlink:href="#DejaVuSans-30" x="63.623047"/>
       <use xlink:href="#DejaVuSans-30" x="127.246094"/>
      </g>
     </g>
    </g>
    <g id="ytick_3">
     <g id="line2d_29">
      <path d="M 38.904688 215.809123 
L 982.876106 215.809123 
" clip-path="url(#p48f938049a)" style="fill: none; stroke-dasharray: 2.96,1.28; stroke-dashoffset: 0; stroke: #b0b0b0; stroke-width: 0.8"/>
     </g>
     <g id="line2d_30">
      <g>
       <use xlink:href="#m72d6b2ebd3" x="38.904688" y="215.809123" style="stroke: #000000; stroke-width: 0.8"/>
      </g>
     </g>
     <g id="text_3">
      <!-- 520 -->
      <g transform="translate(12.817187 219.608342)scale(0.1 -0.1)">
       <defs>
        <path id="DejaVuSans-32" d="M 1228 531 
L 3431 531 
L 3431 0 
L 469 0 
L 469 531 
Q 828 903 1448 1529 
Q 2069 2156 2228 2338 
Q 2531 2678 2651 2914 
Q 2772 3150 2772 3378 
Q 2772 3750 2511 3984 
Q 2250 4219 1831 4219 
Q 1534 4219 1204 4116 
Q 875 4013 500 3803 
L 500 4441 
Q 881 4594 1212 4672 
Q 1544 4750 1819 4750 
Q 2544 4750 2975 4387 
Q 3406 4025 3406 3419 
Q 3406 3131 3298 2873 
Q 3191 2616 2906 2266 
Q 2828 2175 2409 1742 
Q 1991 1309 1228 531 
z
" transform="scale(0.015625)"/>
       </defs>
       <use xlink:href="#DejaVuSans-35"/>
       <use xlink:href="#DejaVuSans-32" x="63.623047"/>
       <use xlink:href="#DejaVuSans-30" x="127.246094"/>
      </g>
     </g>
    </g>
    <g id="ytick_4">
     <g id="line2d_31">
      <path d="M 38.904688 173.992082 
L 982.876106 173.992082 
" clip-path="url(#p48f938049a)" style="fill: none; stroke-dasharray: 2.96,1.28; stroke-dashoffset: 0; stroke: #b0b0b0; stroke-width: 0.8"/>
     </g>
     <g id="line2d_32">
      <g>
       <use xlink:href="#m72d6b2ebd3" x="38.904688" y="173.992082" style="stroke: #000000; stroke-width: 0.8"/>
      </g>
     </g>
     <g id="text_4">
      <!-- 540 -->
      <g transform="translate(12.817187 177.791301)scale(0.1 -0.1)">
       <use xlink:href="#DejaVuSans-35"/>
       <use xlink:href="#DejaVuSans-34" x="63.623047"/>
       <use xlink:href="#DejaVuSans-30" x="127.246094"/>
      </g>
     </g>
    </g>
    <g id="ytick_5">
     <g id="line2d_33">
      <path d="M 38.904688 132.175042 
L 982.876106 132.175042 
" clip-path="url(#p48f938049a)" style="fill: none; stroke-dasharray: 2.96,1.28; stroke-dashoffset: 0; stroke: #b0b0b0; stroke-width: 0.8"/>
     </g>
     <g id="line2d_34">
      <g>
       <use xlink:href="#m72d6b2ebd3" x="38.904688" y="132.175042" style="stroke: #000000; stroke-width: 0.8"/>
      </g>
     </g>
     <g id="text_5">
      <!-- 560 -->
      <g transform="translate(12.817187 135.97426)scale(0.1 -0.1)">
       <defs>
        <path id="DejaVuSans-36" d="M 2113 2584 
Q 1688 2584 1439 2293 
Q 1191 2003 1191 1497 
Q 1191 994 1439 701 
Q 1688 409 2113 409 
Q 2538 409 2786 701 
Q 3034 994 3034 1497 
Q 3034 2003 2786 2293 
Q 2538 2584 2113 2584 
z
M 3366 4563 
L 3366 3988 
Q 3128 4100 2886 4159 
Q 2644 4219 2406 4219 
Q 1781 4219 1451 3797 
Q 1122 3375 1075 2522 
Q 1259 2794 1537 2939 
Q 1816 3084 2150 3084 
Q 2853 3084 3261 2657 
Q 3669 2231 3669 1497 
Q 3669 778 3244 343 
Q 2819 -91 2113 -91 
Q 1303 -91 875 529 
Q 447 1150 447 2328 
Q 447 3434 972 4092 
Q 1497 4750 2381 4750 
Q 2619 4750 2861 4703 
Q 3103 4656 3366 4563 
z
" transform="scale(0.015625)"/>
       </defs>
       <use xlink:href="#DejaVuSans-35"/>
       <use xlink:href="#DejaVuSans-36" x="63.623047"/>
       <use xlink:href="#DejaVuSans-30" x="127.246094"/>
      </g>
     </g>
    </g>
    <g id="ytick_6">
     <g id="line2d_35">
      <path d="M 38.904688 90.358001 
L 982.876106 90.358001 
" clip-path="url(#p48f938049a)" style="fill: none; stroke-dasharray: 2.96,1.28; stroke-dashoffset: 0; stroke: #b0b0b0; stroke-width: 0.8"/>
     </g>
     <g id="line2d_36">
      <g>
       <use xlink:href="#m72d6b2ebd3" x="38.904688" y="90.358001" style="stroke: #000000; stroke-width: 0.8"/>
      </g>
     </g>
     <g id="text_6">
      <!-- 580 -->
      <g transform="translate(12.817187 94.15722)scale(0.1 -0.1)">
       <use xlink:href="#DejaVuSans-35"/>
       <use xlink:href="#DejaVuSans-38" x="63.623047"/>
       <use xlink:href="#DejaVuSans-30" x="127.246094"/>
      </g>
     </g>
    </g>
    <g id="ytick_7">
     <g id="line2d_37">
      <path d="M 38.904688 48.54096 
L 982.876106 48.54096 
" clip-path="url(#p48f938049a)" style="fill: none; stroke-dasharray: 2.96,1.28; stroke-dashoffset: 0; stroke: #b0b0b0; stroke-width: 0.8"/>
     </g>
     <g id="line2d_38">
      <g>
       <use xlink:href="#m72d6b2ebd3" x="38.904688" y="48.54096" style="stroke: #000000; stroke-width: 0.8"/>
      </g>
     </g>
     <g id="text_7">
      <!-- 600 -->
      <g transform="translate(12.817187 52.340179)scale(0.1 -0.1)">
       <use xlink:href="#DejaVuSans-36"/>
       <use xlink:href="#DejaVuSans-30" x="63.623047"/>
       <use xlink:href="#DejaVuSans-30" x="127.246094"/>
      </g>
     </g>
    </g>
   </g>
   <g id="line2d_39">
    <path d="M 81.812479 87.953521 
L 84.502623 102.79857 
L 87.192767 85.130871 
L 89.88291 85.026328 
L 92.573054 74.676611 
L 100.643485 71.331247 
L 103.333629 74.572068 
L 106.023772 85.130871 
L 108.713916 88.894404 
L 111.40406 99.139579 
L 119.474491 112.102862 
L 122.164634 124.020719 
L 124.854778 114.298257 
L 127.544922 132.488669 
L 130.235066 149.842741 
L 138.305497 161.237885 
L 140.99564 168.137696 
L 146.375928 196.886912 
L 149.066071 186.641737 
L 157.136502 180.787351 
L 159.826646 160.506087 
L 162.51679 137.506714 
L 165.206933 139.597566 
L 167.897077 113.357373 
L 175.967508 118.166333 
L 178.657652 127.470624 
L 181.347796 110.221095 
L 184.037939 122.557122 
L 186.728083 130.397817 
L 194.798514 146.601921 
L 197.488658 127.052454 
L 200.178801 128.306965 
L 202.868945 143.883813 
L 205.559089 157.683436 
L 213.62952 145.556495 
L 216.319663 152.979019 
L 219.009807 167.196813 
L 221.699951 187.16445 
L 224.390094 163.85145 
L 232.460525 125.170687 
L 237.840813 121.198068 
L 240.530957 126.111571 
L 243.2211 175.978392 
L 251.291531 245.185594 
L 253.981675 212.568302 
L 256.671819 198.873221 
L 259.361962 162.074226 
L 262.052106 158.206149 
L 270.122537 172.737571 
L 272.812681 139.179396 
L 275.502824 122.348037 
L 278.192968 131.652328 
L 288.953543 154.024445 
L 291.643687 186.537194 
L 294.33383 209.850195 
L 297.023974 207.968428 
L 299.714118 216.227293 
L 307.784549 225.949755 
L 310.474692 224.590701 
L 313.164836 199.709562 
L 315.85498 181.93732 
L 318.545123 168.869495 
L 326.615554 164.26962 
L 329.305698 155.278956 
L 331.995842 170.960347 
L 334.685985 151.933593 
L 337.376129 138.55214 
L 345.44656 148.065517 
L 348.136704 145.242867 
L 350.826848 140.747535 
L 364.277566 126.529741 
L 366.96771 155.174414 
L 369.657853 152.456306 
L 372.347997 128.306965 
L 375.038141 132.488669 
L 383.108572 150.365454 
L 385.798715 132.384127 
L 388.488859 132.488669 
L 391.179003 106.562104 
L 393.869146 139.074853 
L 401.939578 138.029427 
L 407.319865 178.069244 
L 410.010009 196.886912 
L 412.700152 235.044962 
L 423.460727 252.294491 
L 426.150871 242.781114 
L 428.841014 261.076069 
L 431.531158 255.953482 
L 439.601589 264.31689 
L 442.291733 253.758087 
L 444.981876 237.135814 
L 447.67202 274.143895 
L 450.362164 250.621809 
L 458.432595 244.453796 
L 461.122739 253.130832 
L 463.812882 269.230392 
L 466.503026 262.121495 
L 469.19317 262.435123 
L 477.263601 236.508558 
L 479.953744 217.899975 
L 482.643888 220.93171 
L 485.334032 212.254674 
L 488.024175 228.458778 
L 496.094606 239.644836 
L 498.78475 255.012598 
L 501.474894 268.498594 
L 504.165037 262.539666 
L 506.855181 252.921746 
L 514.925612 262.226038 
L 517.615756 266.72137 
L 522.996043 263.89872 
L 525.686187 289.825285 
L 533.756618 255.953482 
L 536.446762 245.290136 
L 539.136905 259.821558 
L 541.827049 246.858275 
L 544.517193 237.240356 
L 552.587624 224.799787 
L 555.277767 232.326854 
L 557.967911 255.117141 
L 560.658055 266.094114 
L 563.348198 234.104078 
L 571.41863 205.354863 
L 574.108773 193.437006 
L 576.798917 167.824069 
L 579.489061 166.569557 
L 582.179204 165.837759 
L 590.249635 162.701481 
L 592.939779 166.778643 
L 595.629923 162.910566 
L 598.320066 154.651701 
L 601.01021 156.533468 
L 609.080641 152.874477 
L 611.770785 154.23353 
L 614.460928 135.834033 
L 617.151072 107.18936 
L 619.841216 98.094153 
L 627.911647 115.65731 
L 630.601791 135.834033 
L 633.291934 115.970938 
L 635.982078 105.621221 
L 638.672222 81.785508 
L 646.742653 88.685319 
L 649.432796 94.016992 
L 652.12294 111.684692 
L 654.813084 103.112198 
L 657.503227 92.135225 
L 665.573658 76.767463 
L 670.953946 80.008283 
L 673.64409 84.7127 
L 676.334233 87.012638 
L 687.094808 91.194342 
L 689.784952 80.008283 
L 692.475095 59.831561 
L 695.165239 75.303866 
L 703.23567 81.576422 
L 705.925814 73.422099 
L 708.615957 75.512951 
L 713.996245 107.084817 
L 722.066676 104.889422 
L 724.756819 82.830934 
L 730.137107 112.102862 
L 732.827251 109.802925 
L 740.897682 111.057436 
L 743.587825 109.175669 
L 746.277969 106.353019 
L 748.968113 110.43018 
L 751.658256 101.021346 
L 759.728687 110.43018 
L 762.418831 109.175669 
L 765.108975 117.539077 
L 767.799118 124.961602 
L 770.489262 160.610629 
L 778.559693 156.951638 
L 781.249837 138.865768 
L 783.939981 129.038763 
L 786.630124 99.453207 
L 789.320268 114.298257 
L 797.390699 140.120279 
L 800.080843 131.129615 
L 802.770986 123.707091 
L 805.46113 99.244122 
L 808.151274 105.098508 
L 816.221705 138.13397 
L 818.911848 145.138324 
L 824.292136 160.610629 
L 826.982279 173.678454 
L 835.05271 196.782369 
L 837.742854 218.004517 
L 840.432998 187.373535 
L 843.123142 194.900602 
L 845.813285 192.077952 
L 853.883716 195.005145 
L 856.57386 192.077952 
L 859.264004 203.054925 
L 861.954147 182.460033 
L 864.644291 178.278329 
L 872.714722 180.578266 
L 875.404866 190.405271 
L 880.785153 155.069871 
L 883.475297 150.888167 
L 891.545728 143.256557 
L 894.235872 124.229804 
L 896.926015 127.470624 
L 899.616159 140.747535 
L 902.306303 137.402172 
L 910.376734 145.556495 
L 915.757021 144.406526 
L 918.447165 144.929239 
L 921.137308 146.601921 
L 929.207739 146.392835 
L 931.897883 151.515423 
L 934.588027 152.979019 
L 937.27817 149.110943 
L 939.968314 156.21984 
L 939.968314 156.21984 
" clip-path="url(#p48f938049a)" style="fill: none; stroke: #1f77b4; stroke-width: 1.5; stroke-linecap: square"/>
   </g>
   <g id="line2d_40">
    <path d="M 92.573054 87.11718 
L 100.643485 83.792725 
L 103.333629 78.147425 
L 106.023772 78.147425 
L 108.713916 78.92104 
L 111.40406 83.813634 
L 119.474491 91.967957 
L 122.164634 101.857687 
L 124.854778 107.691164 
L 127.544922 116.410017 
L 130.235066 126.55065 
L 138.305497 136.377654 
L 140.99564 145.20105 
L 146.375928 161.718781 
L 149.066071 172.549394 
L 157.136502 178.738316 
L 159.826646 178.591957 
L 162.51679 172.46576 
L 165.206933 161.007891 
L 167.897077 146.351018 
L 175.967508 133.826815 
L 178.657652 127.219722 
L 181.347796 121.762598 
L 184.037939 118.35451 
L 186.728083 121.762598 
L 194.798514 127.449716 
L 197.488658 127.366082 
L 200.178801 130.983256 
L 202.868945 135.248594 
L 205.559089 140.705718 
L 213.62952 140.496633 
L 216.319663 145.681946 
L 219.009807 153.459915 
L 221.699951 162.116043 
L 224.390094 163.349645 
L 232.460525 159.272484 
L 237.840813 152.916294 
L 240.530957 144.699245 
L 243.2211 142.462034 
L 251.291531 158.728862 
L 253.981675 176.208385 
L 256.671819 191.743416 
L 259.361962 198.935947 
L 262.052106 195.381498 
L 270.122537 180.891894 
L 272.812681 166.214113 
L 275.502824 150.909076 
L 278.192968 144.824696 
L 288.953543 143.988355 
L 291.643687 146.74828 
L 294.33383 160.88244 
L 299.714118 194.921511 
L 307.784549 209.306573 
L 310.474692 216.917274 
L 313.164836 214.889148 
L 315.85498 209.682926 
L 318.545123 200.211367 
L 326.615554 187.87534 
L 329.305698 174.012991 
L 334.685985 162.262402 
L 337.376129 156.198931 
L 345.44656 152.958111 
L 348.136704 150.950893 
L 350.826848 144.90833 
L 364.277566 139.82756 
L 366.96771 143.152015 
L 369.657853 144.030173 
L 372.347997 140.642992 
L 375.038141 138.991219 
L 383.108572 143.758362 
L 385.798715 139.200304 
L 388.488859 135.206777 
L 391.179003 130.857805 
L 393.869146 132.175042 
L 401.939578 129.707836 
L 407.319865 138.844859 
L 410.010009 151.724508 
L 412.700152 177.421079 
L 420.770583 199.228666 
L 423.460727 222.081679 
L 428.841014 247.861884 
L 431.531158 252.043589 
L 439.601589 255.284409 
L 442.291733 255.577128 
L 444.981876 254.448068 
L 447.67202 257.061633 
L 450.362164 255.995299 
L 458.432595 252.02268 
L 461.122739 251.897229 
L 463.812882 258.316145 
L 466.503026 255.911665 
L 469.19317 258.274328 
L 477.263601 256.68528 
L 479.953744 249.639109 
L 485.334032 230.006008 
L 488.024175 223.210739 
L 496.094606 223.837995 
L 498.78475 231.260519 
L 501.474894 240.773896 
L 504.165037 250.830894 
L 506.855181 255.723488 
L 514.925612 260.239729 
L 517.615756 262.581483 
L 520.3059 261.954227 
L 522.996043 262.226038 
L 525.686187 269.606746 
L 533.756618 268.352234 
L 536.446762 264.065988 
L 539.136905 262.957836 
L 541.827049 259.549747 
L 544.517193 249.032762 
L 552.587624 242.802023 
L 555.277767 240.209366 
L 557.967911 239.268483 
L 560.658055 243.11565 
L 563.348198 242.488395 
L 571.41863 238.59941 
L 574.108773 230.82144 
L 576.798917 213.362826 
L 579.489061 193.457915 
L 582.179204 179.804651 
L 590.249635 171.273975 
L 592.939779 165.942302 
L 595.629923 164.959601 
L 598.320066 162.57603 
L 601.01021 160.715172 
L 609.080641 158.749771 
L 611.770785 156.240748 
L 614.460928 150.825442 
L 617.151072 141.332973 
L 619.841216 129.645111 
L 627.911647 122.201677 
L 630.601791 118.521778 
L 633.291934 114.549159 
L 635.982078 114.235531 
L 638.672222 110.973802 
L 646.742653 105.579404 
L 649.432796 97.215996 
L 652.12294 96.358746 
L 654.813084 95.856942 
L 657.503227 97.926885 
L 665.573658 95.543314 
L 670.953946 92.741572 
L 673.64409 87.347174 
L 676.334233 84.127262 
L 687.094808 83.939085 
L 689.784952 84.587249 
L 692.475095 80.551905 
L 695.165239 78.670138 
L 703.23567 77.582895 
L 705.925814 74.028446 
L 708.615957 73.12938 
L 713.996245 85.716309 
L 722.066676 90.378909 
L 724.756819 92.260676 
L 732.827251 103.342192 
L 740.897682 104.136716 
L 743.587825 104.993965 
L 746.277969 109.698382 
L 748.968113 109.363846 
L 751.658256 107.60753 
L 762.418831 107.482079 
L 765.108975 109.719291 
L 767.799118 112.625575 
L 770.489262 124.543432 
L 778.559693 133.847723 
L 781.249837 139.785743 
L 783.939981 142.08568 
L 786.630124 136.984001 
L 789.320268 127.721527 
L 797.390699 124.355255 
L 800.080843 122.808024 
L 802.770986 121.74169 
L 805.46113 121.699873 
L 808.151274 119.859923 
L 816.221705 119.462661 
L 818.911848 122.264403 
L 824.292136 129.645111 
L 826.982279 144.531977 
L 835.05271 162.868749 
L 837.742854 178.842859 
L 840.432998 187.289901 
L 843.123142 194.147896 
L 845.813285 197.827795 
L 853.883716 197.47235 
L 856.57386 192.287037 
L 859.264004 195.423315 
L 861.954147 192.935202 
L 864.644291 190.175277 
L 872.714722 187.289901 
L 875.404866 186.955365 
L 880.785153 177.358354 
L 883.475297 171.043981 
L 891.545728 164.039626 
L 894.235872 152.769934 
L 896.926015 140.183005 
L 899.616159 137.318538 
L 902.306303 134.621338 
L 910.376734 135.081326 
L 915.757021 139.11667 
L 918.447165 142.608393 
L 921.137308 143.77927 
L 929.207739 145.577403 
L 931.897883 146.769189 
L 934.588027 148.483687 
L 937.27817 149.320028 
L 939.968314 151.243612 
L 939.968314 151.243612 
" clip-path="url(#p48f938049a)" style="fill: none; stroke: #ff7f0e; stroke-width: 1.5; stroke-linecap: square"/>
   </g>
   <g id="patch_3">
    <path d="M 38.904688 301.324971 
L 38.904688 48.331875 
" style="fill: none; stroke: #000000; stroke-width: 0.8; stroke-linejoin: miter; stroke-linecap: square"/>
   </g>
   <g id="patch_4">
    <path d="M 982.876106 301.324971 
L 982.876106 48.331875 
" style="fill: none; stroke: #000000; stroke-width: 0.8; stroke-linejoin: miter; stroke-linecap: square"/>
   </g>
   <g id="patch_5">
    <path d="M 38.904687 301.324971 
L 982.876106 301.324971 
" style="fill: none; stroke: #000000; stroke-width: 0.8; stroke-linejoin: miter; stroke-linecap: square"/>
   </g>
   <g id="patch_6">
    <path d="M 38.904687 48.331875 
L 982.876106 48.331875 
" style="fill: none; stroke: #000000; stroke-width: 0.8; stroke-linejoin: miter; stroke-linecap: square"/>
   </g>
   <g id="text_8">
    <!-- Closing Price -->
    <g transform="translate(472.414459 42.331875)scale(0.12 -0.12)">
     <defs>
      <path id="DejaVuSans-43" d="M 4122 4306 
L 4122 3641 
Q 3803 3938 3442 4084 
Q 3081 4231 2675 4231 
Q 1875 4231 1450 3742 
Q 1025 3253 1025 2328 
Q 1025 1406 1450 917 
Q 1875 428 2675 428 
Q 3081 428 3442 575 
Q 3803 722 4122 1019 
L 4122 359 
Q 3791 134 3420 21 
Q 3050 -91 2638 -91 
Q 1578 -91 968 557 
Q 359 1206 359 2328 
Q 359 3453 968 4101 
Q 1578 4750 2638 4750 
Q 3056 4750 3426 4639 
Q 3797 4528 4122 4306 
z
" transform="scale(0.015625)"/>
      <path id="DejaVuSans-6c" d="M 603 4863 
L 1178 4863 
L 1178 0 
L 603 0 
L 603 4863 
z
" transform="scale(0.015625)"/>
      <path id="DejaVuSans-6f" d="M 1959 3097 
Q 1497 3097 1228 2736 
Q 959 2375 959 1747 
Q 959 1119 1226 758 
Q 1494 397 1959 397 
Q 2419 397 2687 759 
Q 2956 1122 2956 1747 
Q 2956 2369 2687 2733 
Q 2419 3097 1959 3097 
z
M 1959 3584 
Q 2709 3584 3137 3096 
Q 3566 2609 3566 1747 
Q 3566 888 3137 398 
Q 2709 -91 1959 -91 
Q 1206 -91 779 398 
Q 353 888 353 1747 
Q 353 2609 779 3096 
Q 1206 3584 1959 3584 
z
" transform="scale(0.015625)"/>
      <path id="DejaVuSans-73" d="M 2834 3397 
L 2834 2853 
Q 2591 2978 2328 3040 
Q 2066 3103 1784 3103 
Q 1356 3103 1142 2972 
Q 928 2841 928 2578 
Q 928 2378 1081 2264 
Q 1234 2150 1697 2047 
L 1894 2003 
Q 2506 1872 2764 1633 
Q 3022 1394 3022 966 
Q 3022 478 2636 193 
Q 2250 -91 1575 -91 
Q 1294 -91 989 -36 
Q 684 19 347 128 
L 347 722 
Q 666 556 975 473 
Q 1284 391 1588 391 
Q 1994 391 2212 530 
Q 2431 669 2431 922 
Q 2431 1156 2273 1281 
Q 2116 1406 1581 1522 
L 1381 1569 
Q 847 1681 609 1914 
Q 372 2147 372 2553 
Q 372 3047 722 3315 
Q 1072 3584 1716 3584 
Q 2034 3584 2315 3537 
Q 2597 3491 2834 3397 
z
" transform="scale(0.015625)"/>
      <path id="DejaVuSans-69" d="M 603 3500 
L 1178 3500 
L 1178 0 
L 603 0 
L 603 3500 
z
M 603 4863 
L 1178 4863 
L 1178 4134 
L 603 4134 
L 603 4863 
z
" transform="scale(0.015625)"/>
      <path id="DejaVuSans-6e" d="M 3513 2113 
L 3513 0 
L 2938 0 
L 2938 2094 
Q 2938 2591 2744 2837 
Q 2550 3084 2163 3084 
Q 1697 3084 1428 2787 
Q 1159 2491 1159 1978 
L 1159 0 
L 581 0 
L 581 3500 
L 1159 3500 
L 1159 2956 
Q 1366 3272 1645 3428 
Q 1925 3584 2291 3584 
Q 2894 3584 3203 3211 
Q 3513 2838 3513 2113 
z
" transform="scale(0.015625)"/>
      <path id="DejaVuSans-67" d="M 2906 1791 
Q 2906 2416 2648 2759 
Q 2391 3103 1925 3103 
Q 1463 3103 1205 2759 
Q 947 2416 947 1791 
Q 947 1169 1205 825 
Q 1463 481 1925 481 
Q 2391 481 2648 825 
Q 2906 1169 2906 1791 
z
M 3481 434 
Q 3481 -459 3084 -895 
Q 2688 -1331 1869 -1331 
Q 1566 -1331 1297 -1286 
Q 1028 -1241 775 -1147 
L 775 -588 
Q 1028 -725 1275 -790 
Q 1522 -856 1778 -856 
Q 2344 -856 2625 -561 
Q 2906 -266 2906 331 
L 2906 616 
Q 2728 306 2450 153 
Q 2172 0 1784 0 
Q 1141 0 747 490 
Q 353 981 353 1791 
Q 353 2603 747 3093 
Q 1141 3584 1784 3584 
Q 2172 3584 2450 3431 
Q 2728 3278 2906 2969 
L 2906 3500 
L 3481 3500 
L 3481 434 
z
" transform="scale(0.015625)"/>
      <path id="DejaVuSans-20" transform="scale(0.015625)"/>
      <path id="DejaVuSans-50" d="M 1259 4147 
L 1259 2394 
L 2053 2394 
Q 2494 2394 2734 2622 
Q 2975 2850 2975 3272 
Q 2975 3691 2734 3919 
Q 2494 4147 2053 4147 
L 1259 4147 
z
M 628 4666 
L 2053 4666 
Q 2838 4666 3239 4311 
Q 3641 3956 3641 3272 
Q 3641 2581 3239 2228 
Q 2838 1875 2053 1875 
L 1259 1875 
L 1259 0 
L 628 0 
L 628 4666 
z
" transform="scale(0.015625)"/>
      <path id="DejaVuSans-72" d="M 2631 2963 
Q 2534 3019 2420 3045 
Q 2306 3072 2169 3072 
Q 1681 3072 1420 2755 
Q 1159 2438 1159 1844 
L 1159 0 
L 581 0 
L 581 3500 
L 1159 3500 
L 1159 2956 
Q 1341 3275 1631 3429 
Q 1922 3584 2338 3584 
Q 2397 3584 2469 3576 
Q 2541 3569 2628 3553 
L 2631 2963 
z
" transform="scale(0.015625)"/>
      <path id="DejaVuSans-63" d="M 3122 3366 
L 3122 2828 
Q 2878 2963 2633 3030 
Q 2388 3097 2138 3097 
Q 1578 3097 1268 2742 
Q 959 2388 959 1747 
Q 959 1106 1268 751 
Q 1578 397 2138 397 
Q 2388 397 2633 464 
Q 2878 531 3122 666 
L 3122 134 
Q 2881 22 2623 -34 
Q 2366 -91 2075 -91 
Q 1284 -91 818 406 
Q 353 903 353 1747 
Q 353 2603 823 3093 
Q 1294 3584 2113 3584 
Q 2378 3584 2631 3529 
Q 2884 3475 3122 3366 
z
" transform="scale(0.015625)"/>
      <path id="DejaVuSans-65" d="M 3597 1894 
L 3597 1613 
L 953 1613 
Q 991 1019 1311 708 
Q 1631 397 2203 397 
Q 2534 397 2845 478 
Q 3156 559 3463 722 
L 3463 178 
Q 3153 47 2828 -22 
Q 2503 -91 2169 -91 
Q 1331 -91 842 396 
Q 353 884 353 1716 
Q 353 2575 817 3079 
Q 1281 3584 2069 3584 
Q 2775 3584 3186 3129 
Q 3597 2675 3597 1894 
z
M 3022 2063 
Q 3016 2534 2758 2815 
Q 2500 3097 2075 3097 
Q 1594 3097 1305 2825 
Q 1016 2553 972 2059 
L 3022 2063 
z
" transform="scale(0.015625)"/>
     </defs>
     <use xlink:href="#DejaVuSans-43"/>
     <use xlink:href="#DejaVuSans-6c" x="69.824219"/>
     <use xlink:href="#DejaVuSans-6f" x="97.607422"/>
     <use xlink:href="#DejaVuSans-73" x="158.789062"/>
     <use xlink:href="#DejaVuSans-69" x="210.888672"/>
     <use xlink:href="#DejaVuSans-6e" x="238.671875"/>
     <use xlink:href="#DejaVuSans-67" x="302.050781"/>
     <use xlink:href="#DejaVuSans-20" x="365.527344"/>
     <use xlink:href="#DejaVuSans-50" x="397.314453"/>
     <use xlink:href="#DejaVuSans-72" x="455.867188"/>
     <use xlink:href="#DejaVuSans-69" x="496.980469"/>
     <use xlink:href="#DejaVuSans-63" x="524.763672"/>
     <use xlink:href="#DejaVuSans-65" x="579.744141"/>
    </g>
   </g>
   <g id="legend_1">
    <g id="patch_7">
     <path d="M 911.144856 85.688125 
L 975.876106 85.688125 
Q 977.876106 85.688125 977.876106 83.688125 
L 977.876106 55.331875 
Q 977.876106 53.331875 975.876106 53.331875 
L 911.144856 53.331875 
Q 909.144856 53.331875 909.144856 55.331875 
L 909.144856 83.688125 
Q 909.144856 85.688125 911.144856 85.688125 
z
" style="fill: #ffffff; opacity: 0.8; stroke: #cccccc; stroke-linejoin: miter"/>
    </g>
    <g id="line2d_41">
     <path d="M 913.144856 61.430312 
L 923.144856 61.430312 
L 933.144856 61.430312 
" style="fill: none; stroke: #1f77b4; stroke-width: 1.5; stroke-linecap: square"/>
    </g>
    <g id="text_9">
     <!-- CLOSE -->
     <g transform="translate(941.144856 64.930312)scale(0.1 -0.1)">
      <defs>
       <path id="DejaVuSans-4c" d="M 628 4666 
L 1259 4666 
L 1259 531 
L 3531 531 
L 3531 0 
L 628 0 
L 628 4666 
z
" transform="scale(0.015625)"/>
       <path id="DejaVuSans-4f" d="M 2522 4238 
Q 1834 4238 1429 3725 
Q 1025 3213 1025 2328 
Q 1025 1447 1429 934 
Q 1834 422 2522 422 
Q 3209 422 3611 934 
Q 4013 1447 4013 2328 
Q 4013 3213 3611 3725 
Q 3209 4238 2522 4238 
z
M 2522 4750 
Q 3503 4750 4090 4092 
Q 4678 3434 4678 2328 
Q 4678 1225 4090 567 
Q 3503 -91 2522 -91 
Q 1538 -91 948 565 
Q 359 1222 359 2328 
Q 359 3434 948 4092 
Q 1538 4750 2522 4750 
z
" transform="scale(0.015625)"/>
       <path id="DejaVuSans-53" d="M 3425 4513 
L 3425 3897 
Q 3066 4069 2747 4153 
Q 2428 4238 2131 4238 
Q 1616 4238 1336 4038 
Q 1056 3838 1056 3469 
Q 1056 3159 1242 3001 
Q 1428 2844 1947 2747 
L 2328 2669 
Q 3034 2534 3370 2195 
Q 3706 1856 3706 1288 
Q 3706 609 3251 259 
Q 2797 -91 1919 -91 
Q 1588 -91 1214 -16 
Q 841 59 441 206 
L 441 856 
Q 825 641 1194 531 
Q 1563 422 1919 422 
Q 2459 422 2753 634 
Q 3047 847 3047 1241 
Q 3047 1584 2836 1778 
Q 2625 1972 2144 2069 
L 1759 2144 
Q 1053 2284 737 2584 
Q 422 2884 422 3419 
Q 422 4038 858 4394 
Q 1294 4750 2059 4750 
Q 2388 4750 2728 4690 
Q 3069 4631 3425 4513 
z
" transform="scale(0.015625)"/>
       <path id="DejaVuSans-45" d="M 628 4666 
L 3578 4666 
L 3578 4134 
L 1259 4134 
L 1259 2753 
L 3481 2753 
L 3481 2222 
L 1259 2222 
L 1259 531 
L 3634 531 
L 3634 0 
L 628 0 
L 628 4666 
z
" transform="scale(0.015625)"/>
      </defs>
      <use xlink:href="#DejaVuSans-43"/>
      <use xlink:href="#DejaVuSans-4c" x="69.824219"/>
      <use xlink:href="#DejaVuSans-4f" x="121.912109"/>
      <use xlink:href="#DejaVuSans-53" x="200.623047"/>
      <use xlink:href="#DejaVuSans-45" x="264.099609"/>
     </g>
    </g>
    <g id="line2d_42">
     <path d="M 913.144856 76.108437 
L 923.144856 76.108437 
L 933.144856 76.108437 
" style="fill: none; stroke: #ff7f0e; stroke-width: 1.5; stroke-linecap: square"/>
    </g>
    <g id="text_10">
     <!-- SMA5 -->
     <g transform="translate(941.144856 79.608437)scale(0.1 -0.1)">
      <defs>
       <path id="DejaVuSans-4d" d="M 628 4666 
L 1569 4666 
L 2759 1491 
L 3956 4666 
L 4897 4666 
L 4897 0 
L 4281 0 
L 4281 4097 
L 3078 897 
L 2444 897 
L 1241 4097 
L 1241 0 
L 628 0 
L 628 4666 
z
" transform="scale(0.015625)"/>
       <path id="DejaVuSans-41" d="M 2188 4044 
L 1331 1722 
L 3047 1722 
L 2188 4044 
z
M 1831 4666 
L 2547 4666 
L 4325 0 
L 3669 0 
L 3244 1197 
L 1141 1197 
L 716 0 
L 50 0 
L 1831 4666 
z
" transform="scale(0.015625)"/>
      </defs>
      <use xlink:href="#DejaVuSans-53"/>
      <use xlink:href="#DejaVuSans-4d" x="63.476562"/>
      <use xlink:href="#DejaVuSans-41" x="149.755859"/>
      <use xlink:href="#DejaVuSans-35" x="218.164062"/>
     </g>
    </g>
   </g>
  </g>
  <g id="axes_2">
   <g id="patch_8">
    <path d="M 38.904688 584.521875 
L 982.876106 584.521875 
L 982.876106 331.528779 
L 38.904688 331.528779 
z
" style="fill: #ffffff"/>
   </g>
   <g id="matplotlib.axis_3">
    <g id="xtick_13">
     <g id="line2d_43">
      <path d="M 76.432192 584.521875 
L 76.432192 331.528779 
" clip-path="url(#p221afe995e)" style="fill: none; stroke-dasharray: 2.96,1.28; stroke-dashoffset: 0; stroke: #b0b0b0; stroke-width: 0.8"/>
     </g>
     <g id="line2d_44">
      <g>
       <use xlink:href="#m018ab57ba2" x="76.432192" y="584.521875" style="stroke: #000000; stroke-width: 0.8"/>
      </g>
     </g>
     <g id="text_11">
      <!-- 2022-01 -->
      <g transform="translate(55.540786 599.120313)scale(0.1 -0.1)">
       <defs>
        <path id="DejaVuSans-2d" d="M 313 2009 
L 1997 2009 
L 1997 1497 
L 313 1497 
L 313 2009 
z
" transform="scale(0.015625)"/>
        <path id="DejaVuSans-31" d="M 794 531 
L 1825 531 
L 1825 4091 
L 703 3866 
L 703 4441 
L 1819 4666 
L 2450 4666 
L 2450 531 
L 3481 531 
L 3481 0 
L 794 0 
L 794 531 
z
" transform="scale(0.015625)"/>
       </defs>
       <use xlink:href="#DejaVuSans-32"/>
       <use xlink:href="#DejaVuSans-30" x="63.623047"/>
       <use xlink:href="#DejaVuSans-32" x="127.246094"/>
       <use xlink:href="#DejaVuSans-32" x="190.869141"/>
       <use xlink:href="#DejaVuSans-2d" x="254.492188"/>
       <use xlink:href="#DejaVuSans-30" x="290.576172"/>
       <use xlink:href="#DejaVuSans-31" x="354.199219"/>
      </g>
     </g>
    </g>
    <g id="xtick_14">
     <g id="line2d_45">
      <path d="M 159.826646 584.521875 
L 159.826646 331.528779 
" clip-path="url(#p221afe995e)" style="fill: none; stroke-dasharray: 2.96,1.28; stroke-dashoffset: 0; stroke: #b0b0b0; stroke-width: 0.8"/>
     </g>
     <g id="line2d_46">
      <g>
       <use xlink:href="#m018ab57ba2" x="159.826646" y="584.521875" style="stroke: #000000; stroke-width: 0.8"/>
      </g>
     </g>
     <g id="text_12">
      <!-- 2022-02 -->
      <g transform="translate(138.93524 599.120313)scale(0.1 -0.1)">
       <use xlink:href="#DejaVuSans-32"/>
       <use xlink:href="#DejaVuSans-30" x="63.623047"/>
       <use xlink:href="#DejaVuSans-32" x="127.246094"/>
       <use xlink:href="#DejaVuSans-32" x="190.869141"/>
       <use xlink:href="#DejaVuSans-2d" x="254.492188"/>
       <use xlink:href="#DejaVuSans-30" x="290.576172"/>
       <use xlink:href="#DejaVuSans-32" x="354.199219"/>
      </g>
     </g>
    </g>
    <g id="xtick_15">
     <g id="line2d_47">
      <path d="M 235.150669 584.521875 
L 235.150669 331.528779 
" clip-path="url(#p221afe995e)" style="fill: none; stroke-dasharray: 2.96,1.28; stroke-dashoffset: 0; stroke: #b0b0b0; stroke-width: 0.8"/>
     </g>
     <g id="line2d_48">
      <g>
       <use xlink:href="#m018ab57ba2" x="235.150669" y="584.521875" style="stroke: #000000; stroke-width: 0.8"/>
      </g>
     </g>
     <g id="text_13">
      <!-- 2022-03 -->
      <g transform="translate(214.259263 599.120313)scale(0.1 -0.1)">
       <defs>
        <path id="DejaVuSans-33" d="M 2597 2516 
Q 3050 2419 3304 2112 
Q 3559 1806 3559 1356 
Q 3559 666 3084 287 
Q 2609 -91 1734 -91 
Q 1441 -91 1130 -33 
Q 819 25 488 141 
L 488 750 
Q 750 597 1062 519 
Q 1375 441 1716 441 
Q 2309 441 2620 675 
Q 2931 909 2931 1356 
Q 2931 1769 2642 2001 
Q 2353 2234 1838 2234 
L 1294 2234 
L 1294 2753 
L 1863 2753 
Q 2328 2753 2575 2939 
Q 2822 3125 2822 3475 
Q 2822 3834 2567 4026 
Q 2313 4219 1838 4219 
Q 1578 4219 1281 4162 
Q 984 4106 628 3988 
L 628 4550 
Q 988 4650 1302 4700 
Q 1616 4750 1894 4750 
Q 2613 4750 3031 4423 
Q 3450 4097 3450 3541 
Q 3450 3153 3228 2886 
Q 3006 2619 2597 2516 
z
" transform="scale(0.015625)"/>
       </defs>
       <use xlink:href="#DejaVuSans-32"/>
       <use xlink:href="#DejaVuSans-30" x="63.623047"/>
       <use xlink:href="#DejaVuSans-32" x="127.246094"/>
       <use xlink:href="#DejaVuSans-32" x="190.869141"/>
       <use xlink:href="#DejaVuSans-2d" x="254.492188"/>
       <use xlink:href="#DejaVuSans-30" x="290.576172"/>
       <use xlink:href="#DejaVuSans-33" x="354.199219"/>
      </g>
     </g>
    </g>
    <g id="xtick_16">
     <g id="line2d_49">
      <path d="M 318.545123 584.521875 
L 318.545123 331.528779 
" clip-path="url(#p221afe995e)" style="fill: none; stroke-dasharray: 2.96,1.28; stroke-dashoffset: 0; stroke: #b0b0b0; stroke-width: 0.8"/>
     </g>
     <g id="line2d_50">
      <g>
       <use xlink:href="#m018ab57ba2" x="318.545123" y="584.521875" style="stroke: #000000; stroke-width: 0.8"/>
      </g>
     </g>
     <g id="text_14">
      <!-- 2022-04 -->
      <g transform="translate(297.653717 599.120313)scale(0.1 -0.1)">
       <use xlink:href="#DejaVuSans-32"/>
       <use xlink:href="#DejaVuSans-30" x="63.623047"/>
       <use xlink:href="#DejaVuSans-32" x="127.246094"/>
       <use xlink:href="#DejaVuSans-32" x="190.869141"/>
       <use xlink:href="#DejaVuSans-2d" x="254.492188"/>
       <use xlink:href="#DejaVuSans-30" x="290.576172"/>
       <use xlink:href="#DejaVuSans-34" x="354.199219"/>
      </g>
     </g>
    </g>
    <g id="xtick_17">
     <g id="line2d_51">
      <path d="M 399.249434 584.521875 
L 399.249434 331.528779 
" clip-path="url(#p221afe995e)" style="fill: none; stroke-dasharray: 2.96,1.28; stroke-dashoffset: 0; stroke: #b0b0b0; stroke-width: 0.8"/>
     </g>
     <g id="line2d_52">
      <g>
       <use xlink:href="#m018ab57ba2" x="399.249434" y="584.521875" style="stroke: #000000; stroke-width: 0.8"/>
      </g>
     </g>
     <g id="text_15">
      <!-- 2022-05 -->
      <g transform="translate(378.358028 599.120313)scale(0.1 -0.1)">
       <use xlink:href="#DejaVuSans-32"/>
       <use xlink:href="#DejaVuSans-30" x="63.623047"/>
       <use xlink:href="#DejaVuSans-32" x="127.246094"/>
       <use xlink:href="#DejaVuSans-32" x="190.869141"/>
       <use xlink:href="#DejaVuSans-2d" x="254.492188"/>
       <use xlink:href="#DejaVuSans-30" x="290.576172"/>
       <use xlink:href="#DejaVuSans-35" x="354.199219"/>
      </g>
     </g>
    </g>
    <g id="xtick_18">
     <g id="line2d_53">
      <path d="M 482.643888 584.521875 
L 482.643888 331.528779 
" clip-path="url(#p221afe995e)" style="fill: none; stroke-dasharray: 2.96,1.28; stroke-dashoffset: 0; stroke: #b0b0b0; stroke-width: 0.8"/>
     </g>
     <g id="line2d_54">
      <g>
       <use xlink:href="#m018ab57ba2" x="482.643888" y="584.521875" style="stroke: #000000; stroke-width: 0.8"/>
      </g>
     </g>
     <g id="text_16">
      <!-- 2022-06 -->
      <g transform="translate(461.752482 599.120313)scale(0.1 -0.1)">
       <use xlink:href="#DejaVuSans-32"/>
       <use xlink:href="#DejaVuSans-30" x="63.623047"/>
       <use xlink:href="#DejaVuSans-32" x="127.246094"/>
       <use xlink:href="#DejaVuSans-32" x="190.869141"/>
       <use xlink:href="#DejaVuSans-2d" x="254.492188"/>
       <use xlink:href="#DejaVuSans-30" x="290.576172"/>
       <use xlink:href="#DejaVuSans-36" x="354.199219"/>
      </g>
     </g>
    </g>
    <g id="xtick_19">
     <g id="line2d_55">
      <path d="M 563.348198 584.521875 
L 563.348198 331.528779 
" clip-path="url(#p221afe995e)" style="fill: none; stroke-dasharray: 2.96,1.28; stroke-dashoffset: 0; stroke: #b0b0b0; stroke-width: 0.8"/>
     </g>
     <g id="line2d_56">
      <g>
       <use xlink:href="#m018ab57ba2" x="563.348198" y="584.521875" style="stroke: #000000; stroke-width: 0.8"/>
      </g>
     </g>
     <g id="text_17">
      <!-- 2022-07 -->
      <g transform="translate(542.456792 599.120313)scale(0.1 -0.1)">
       <defs>
        <path id="DejaVuSans-37" d="M 525 4666 
L 3525 4666 
L 3525 4397 
L 1831 0 
L 1172 0 
L 2766 4134 
L 525 4134 
L 525 4666 
z
" transform="scale(0.015625)"/>
       </defs>
       <use xlink:href="#DejaVuSans-32"/>
       <use xlink:href="#DejaVuSans-30" x="63.623047"/>
       <use xlink:href="#DejaVuSans-32" x="127.246094"/>
       <use xlink:href="#DejaVuSans-32" x="190.869141"/>
       <use xlink:href="#DejaVuSans-2d" x="254.492188"/>
       <use xlink:href="#DejaVuSans-30" x="290.576172"/>
       <use xlink:href="#DejaVuSans-37" x="354.199219"/>
      </g>
     </g>
    </g>
    <g id="xtick_20">
     <g id="line2d_57">
      <path d="M 646.742653 584.521875 
L 646.742653 331.528779 
" clip-path="url(#p221afe995e)" style="fill: none; stroke-dasharray: 2.96,1.28; stroke-dashoffset: 0; stroke: #b0b0b0; stroke-width: 0.8"/>
     </g>
     <g id="line2d_58">
      <g>
       <use xlink:href="#m018ab57ba2" x="646.742653" y="584.521875" style="stroke: #000000; stroke-width: 0.8"/>
      </g>
     </g>
     <g id="text_18">
      <!-- 2022-08 -->
      <g transform="translate(625.851246 599.120313)scale(0.1 -0.1)">
       <use xlink:href="#DejaVuSans-32"/>
       <use xlink:href="#DejaVuSans-30" x="63.623047"/>
       <use xlink:href="#DejaVuSans-32" x="127.246094"/>
       <use xlink:href="#DejaVuSans-32" x="190.869141"/>
       <use xlink:href="#DejaVuSans-2d" x="254.492188"/>
       <use xlink:href="#DejaVuSans-30" x="290.576172"/>
       <use xlink:href="#DejaVuSans-38" x="354.199219"/>
      </g>
     </g>
    </g>
    <g id="xtick_21">
     <g id="line2d_59">
      <path d="M 730.137107 584.521875 
L 730.137107 331.528779 
" clip-path="url(#p221afe995e)" style="fill: none; stroke-dasharray: 2.96,1.28; stroke-dashoffset: 0; stroke: #b0b0b0; stroke-width: 0.8"/>
     </g>
     <g id="line2d_60">
      <g>
       <use xlink:href="#m018ab57ba2" x="730.137107" y="584.521875" style="stroke: #000000; stroke-width: 0.8"/>
      </g>
     </g>
     <g id="text_19">
      <!-- 2022-09 -->
      <g transform="translate(709.245701 599.120313)scale(0.1 -0.1)">
       <defs>
        <path id="DejaVuSans-39" d="M 703 97 
L 703 672 
Q 941 559 1184 500 
Q 1428 441 1663 441 
Q 2288 441 2617 861 
Q 2947 1281 2994 2138 
Q 2813 1869 2534 1725 
Q 2256 1581 1919 1581 
Q 1219 1581 811 2004 
Q 403 2428 403 3163 
Q 403 3881 828 4315 
Q 1253 4750 1959 4750 
Q 2769 4750 3195 4129 
Q 3622 3509 3622 2328 
Q 3622 1225 3098 567 
Q 2575 -91 1691 -91 
Q 1453 -91 1209 -44 
Q 966 3 703 97 
z
M 1959 2075 
Q 2384 2075 2632 2365 
Q 2881 2656 2881 3163 
Q 2881 3666 2632 3958 
Q 2384 4250 1959 4250 
Q 1534 4250 1286 3958 
Q 1038 3666 1038 3163 
Q 1038 2656 1286 2365 
Q 1534 2075 1959 2075 
z
" transform="scale(0.015625)"/>
       </defs>
       <use xlink:href="#DejaVuSans-32"/>
       <use xlink:href="#DejaVuSans-30" x="63.623047"/>
       <use xlink:href="#DejaVuSans-32" x="127.246094"/>
       <use xlink:href="#DejaVuSans-32" x="190.869141"/>
       <use xlink:href="#DejaVuSans-2d" x="254.492188"/>
       <use xlink:href="#DejaVuSans-30" x="290.576172"/>
       <use xlink:href="#DejaVuSans-39" x="354.199219"/>
      </g>
     </g>
    </g>
    <g id="xtick_22">
     <g id="line2d_61">
      <path d="M 810.841417 584.521875 
L 810.841417 331.528779 
" clip-path="url(#p221afe995e)" style="fill: none; stroke-dasharray: 2.96,1.28; stroke-dashoffset: 0; stroke: #b0b0b0; stroke-width: 0.8"/>
     </g>
     <g id="line2d_62">
      <g>
       <use xlink:href="#m018ab57ba2" x="810.841417" y="584.521875" style="stroke: #000000; stroke-width: 0.8"/>
      </g>
     </g>
     <g id="text_20">
      <!-- 2022-10 -->
      <g transform="translate(789.950011 599.120313)scale(0.1 -0.1)">
       <use xlink:href="#DejaVuSans-32"/>
       <use xlink:href="#DejaVuSans-30" x="63.623047"/>
       <use xlink:href="#DejaVuSans-32" x="127.246094"/>
       <use xlink:href="#DejaVuSans-32" x="190.869141"/>
       <use xlink:href="#DejaVuSans-2d" x="254.492188"/>
       <use xlink:href="#DejaVuSans-31" x="290.576172"/>
       <use xlink:href="#DejaVuSans-30" x="354.199219"/>
      </g>
     </g>
    </g>
    <g id="xtick_23">
     <g id="line2d_63">
      <path d="M 894.235872 584.521875 
L 894.235872 331.528779 
" clip-path="url(#p221afe995e)" style="fill: none; stroke-dasharray: 2.96,1.28; stroke-dashoffset: 0; stroke: #b0b0b0; stroke-width: 0.8"/>
     </g>
     <g id="line2d_64">
      <g>
       <use xlink:href="#m018ab57ba2" x="894.235872" y="584.521875" style="stroke: #000000; stroke-width: 0.8"/>
      </g>
     </g>
     <g id="text_21">
      <!-- 2022-11 -->
      <g transform="translate(873.344465 599.120313)scale(0.1 -0.1)">
       <use xlink:href="#DejaVuSans-32"/>
       <use xlink:href="#DejaVuSans-30" x="63.623047"/>
       <use xlink:href="#DejaVuSans-32" x="127.246094"/>
       <use xlink:href="#DejaVuSans-32" x="190.869141"/>
       <use xlink:href="#DejaVuSans-2d" x="254.492188"/>
       <use xlink:href="#DejaVuSans-31" x="290.576172"/>
       <use xlink:href="#DejaVuSans-31" x="354.199219"/>
      </g>
     </g>
    </g>
    <g id="xtick_24">
     <g id="line2d_65">
      <path d="M 974.940182 584.521875 
L 974.940182 331.528779 
" clip-path="url(#p221afe995e)" style="fill: none; stroke-dasharray: 2.96,1.28; stroke-dashoffset: 0; stroke: #b0b0b0; stroke-width: 0.8"/>
     </g>
     <g id="line2d_66">
      <g>
       <use xlink:href="#m018ab57ba2" x="974.940182" y="584.521875" style="stroke: #000000; stroke-width: 0.8"/>
      </g>
     </g>
     <g id="text_22">
      <!-- 2022-12 -->
      <g transform="translate(954.048776 599.120313)scale(0.1 -0.1)">
       <use xlink:href="#DejaVuSans-32"/>
       <use xlink:href="#DejaVuSans-30" x="63.623047"/>
       <use xlink:href="#DejaVuSans-32" x="127.246094"/>
       <use xlink:href="#DejaVuSans-32" x="190.869141"/>
       <use xlink:href="#DejaVuSans-2d" x="254.492188"/>
       <use xlink:href="#DejaVuSans-31" x="290.576172"/>
       <use xlink:href="#DejaVuSans-32" x="354.199219"/>
      </g>
     </g>
    </g>
   </g>
   <g id="matplotlib.axis_4">
    <g id="ytick_8">
     <g id="line2d_67">
      <path d="M 38.904688 584.347004 
L 982.876106 584.347004 
" clip-path="url(#p221afe995e)" style="fill: none; stroke-dasharray: 2.96,1.28; stroke-dashoffset: 0; stroke: #b0b0b0; stroke-width: 0.8"/>
     </g>
     <g id="line2d_68">
      <g>
       <use xlink:href="#m72d6b2ebd3" x="38.904688" y="584.347004" style="stroke: #000000; stroke-width: 0.8"/>
      </g>
     </g>
     <g id="text_23">
      <!-- −15 -->
      <g transform="translate(10.8 588.146223)scale(0.1 -0.1)">
       <defs>
        <path id="DejaVuSans-2212" d="M 678 2272 
L 4684 2272 
L 4684 1741 
L 678 1741 
L 678 2272 
z
" transform="scale(0.015625)"/>
       </defs>
       <use xlink:href="#DejaVuSans-2212"/>
       <use xlink:href="#DejaVuSans-31" x="83.789062"/>
       <use xlink:href="#DejaVuSans-35" x="147.412109"/>
      </g>
     </g>
    </g>
    <g id="ytick_9">
     <g id="line2d_69">
      <path d="M 38.904688 544.649584 
L 982.876106 544.649584 
" clip-path="url(#p221afe995e)" style="fill: none; stroke-dasharray: 2.96,1.28; stroke-dashoffset: 0; stroke: #b0b0b0; stroke-width: 0.8"/>
     </g>
     <g id="line2d_70">
      <g>
       <use xlink:href="#m72d6b2ebd3" x="38.904688" y="544.649584" style="stroke: #000000; stroke-width: 0.8"/>
      </g>
     </g>
     <g id="text_24">
      <!-- −10 -->
      <g transform="translate(10.8 548.448803)scale(0.1 -0.1)">
       <use xlink:href="#DejaVuSans-2212"/>
       <use xlink:href="#DejaVuSans-31" x="83.789062"/>
       <use xlink:href="#DejaVuSans-30" x="147.412109"/>
      </g>
     </g>
    </g>
    <g id="ytick_10">
     <g id="line2d_71">
      <path d="M 38.904688 504.952164 
L 982.876106 504.952164 
" clip-path="url(#p221afe995e)" style="fill: none; stroke-dasharray: 2.96,1.28; stroke-dashoffset: 0; stroke: #b0b0b0; stroke-width: 0.8"/>
     </g>
     <g id="line2d_72">
      <g>
       <use xlink:href="#m72d6b2ebd3" x="38.904688" y="504.952164" style="stroke: #000000; stroke-width: 0.8"/>
      </g>
     </g>
     <g id="text_25">
      <!-- −5 -->
      <g transform="translate(17.1625 508.751383)scale(0.1 -0.1)">
       <use xlink:href="#DejaVuSans-2212"/>
       <use xlink:href="#DejaVuSans-35" x="83.789062"/>
      </g>
     </g>
    </g>
    <g id="ytick_11">
     <g id="line2d_73">
      <path d="M 38.904688 465.254745 
L 982.876106 465.254745 
" clip-path="url(#p221afe995e)" style="fill: none; stroke-dasharray: 2.96,1.28; stroke-dashoffset: 0; stroke: #b0b0b0; stroke-width: 0.8"/>
     </g>
     <g id="line2d_74">
      <g>
       <use xlink:href="#m72d6b2ebd3" x="38.904688" y="465.254745" style="stroke: #000000; stroke-width: 0.8"/>
      </g>
     </g>
     <g id="text_26">
      <!-- 0 -->
      <g transform="translate(25.542188 469.053963)scale(0.1 -0.1)">
       <use xlink:href="#DejaVuSans-30"/>
      </g>
     </g>
    </g>
    <g id="ytick_12">
     <g id="line2d_75">
      <path d="M 38.904688 425.557325 
L 982.876106 425.557325 
" clip-path="url(#p221afe995e)" style="fill: none; stroke-dasharray: 2.96,1.28; stroke-dashoffset: 0; stroke: #b0b0b0; stroke-width: 0.8"/>
     </g>
     <g id="line2d_76">
      <g>
       <use xlink:href="#m72d6b2ebd3" x="38.904688" y="425.557325" style="stroke: #000000; stroke-width: 0.8"/>
      </g>
     </g>
     <g id="text_27">
      <!-- 5 -->
      <g transform="translate(25.542188 429.356544)scale(0.1 -0.1)">
       <use xlink:href="#DejaVuSans-35"/>
      </g>
     </g>
    </g>
    <g id="ytick_13">
     <g id="line2d_77">
      <path d="M 38.904688 385.859905 
L 982.876106 385.859905 
" clip-path="url(#p221afe995e)" style="fill: none; stroke-dasharray: 2.96,1.28; stroke-dashoffset: 0; stroke: #b0b0b0; stroke-width: 0.8"/>
     </g>
     <g id="line2d_78">
      <g>
       <use xlink:href="#m72d6b2ebd3" x="38.904688" y="385.859905" style="stroke: #000000; stroke-width: 0.8"/>
      </g>
     </g>
     <g id="text_28">
      <!-- 10 -->
      <g transform="translate(19.179688 389.659124)scale(0.1 -0.1)">
       <use xlink:href="#DejaVuSans-31"/>
       <use xlink:href="#DejaVuSans-30" x="63.623047"/>
      </g>
     </g>
    </g>
    <g id="ytick_14">
     <g id="line2d_79">
      <path d="M 38.904688 346.162486 
L 982.876106 346.162486 
" clip-path="url(#p221afe995e)" style="fill: none; stroke-dasharray: 2.96,1.28; stroke-dashoffset: 0; stroke: #b0b0b0; stroke-width: 0.8"/>
     </g>
     <g id="line2d_80">
      <g>
       <use xlink:href="#m72d6b2ebd3" x="38.904688" y="346.162486" style="stroke: #000000; stroke-width: 0.8"/>
      </g>
     </g>
     <g id="text_29">
      <!-- 15 -->
      <g transform="translate(19.179688 349.961704)scale(0.1 -0.1)">
       <use xlink:href="#DejaVuSans-31"/>
       <use xlink:href="#DejaVuSans-35" x="63.623047"/>
      </g>
     </g>
    </g>
   </g>
   <g id="line2d_81">
    <path d="M 81.812479 465.254745 
L 84.502623 466.519464 
L 87.192767 464.785833 
L 89.88291 463.994503 
L 92.573054 462.027182 
L 100.643485 460.362028 
L 103.333629 459.935915 
L 106.023772 461.642595 
L 108.713916 463.588431 
L 111.40406 466.99689 
L 119.474491 472.057944 
L 122.164634 478.161803 
L 124.854778 480.431908 
L 127.544922 485.937229 
L 130.235066 493.735656 
L 138.305497 501.919403 
L 140.99564 509.327038 
L 149.066071 527.397923 
L 157.136502 529.866472 
L 159.826646 525.904218 
L 162.51679 516.255875 
L 165.206933 508.707896 
L 167.897077 495.482683 
L 175.967508 486.112081 
L 178.657652 481.05391 
L 181.347796 472.285436 
L 184.037939 468.715936 
L 186.728083 468.036883 
L 194.798514 471.943479 
L 197.488658 469.487867 
L 200.178801 467.870875 
L 202.868945 470.956856 
L 205.559089 477.205684 
L 213.62952 478.508316 
L 216.319663 481.494192 
L 219.009807 487.721259 
L 221.699951 498.085967 
L 224.390094 499.081401 
L 232.460525 488.251919 
L 237.840813 478.354752 
L 240.530957 471.890532 
L 243.2211 481.34896 
L 251.291531 508.878608 
L 253.981675 520.342036 
L 256.671819 524.651287 
L 262.052106 508.344072 
L 270.122537 505.789748 
L 272.812681 493.361503 
L 275.502824 478.300867 
L 278.192968 469.12595 
L 288.953543 468.565539 
L 291.643687 477.794025 
L 294.33383 491.846305 
L 299.714118 511.984616 
L 307.784549 522.196138 
L 310.474692 529.137933 
L 313.164836 526.379163 
L 315.85498 518.182746 
L 318.545123 507.230549 
L 326.615554 496.788511 
L 329.305698 485.543417 
L 331.995842 481.222925 
L 334.685985 471.925907 
L 337.376129 460.534636 
L 345.44656 454.531736 
L 350.826848 443.673094 
L 364.277566 435.377673 
L 366.96771 437.86467 
L 369.657853 439.304815 
L 372.347997 433.436635 
L 375.038141 430.465038 
L 383.108572 433.934212 
L 385.798715 431.575915 
L 388.488859 430.143844 
L 391.179003 421.585313 
L 393.869146 425.207092 
L 401.939578 428.185021 
L 407.319865 443.048833 
L 410.010009 460.638388 
L 412.700152 486.013635 
L 420.770583 509.610687 
L 423.460727 528.857649 
L 426.150871 540.333567 
L 428.841014 554.004711 
L 431.531158 562.153848 
L 439.601589 569.965084 
L 442.291733 571.695774 
L 444.981876 566.807365 
L 447.67202 573.022189 
L 450.362164 569.542653 
L 458.432595 563.760737 
L 461.122739 560.734988 
L 463.812882 562.15041 
L 466.503026 560.002713 
L 469.19317 557.335184 
L 477.263601 546.345616 
L 479.953744 531.176825 
L 482.643888 519.459231 
L 485.334032 507.033553 
L 488.024175 501.729172 
L 496.094606 500.545095 
L 498.78475 503.869094 
L 501.474894 510.117387 
L 504.165037 512.696851 
L 506.855181 511.264333 
L 514.925612 512.435502 
L 517.615756 514.176849 
L 520.3059 514.572009 
L 522.996043 513.876297 
L 525.686187 520.62952 
L 533.756618 515.030542 
L 536.446762 506.846945 
L 539.136905 504.362585 
L 541.827049 498.044121 
L 544.517193 489.806969 
L 552.587624 479.30548 
L 555.277767 473.197567 
L 557.967911 475.224623 
L 560.658055 480.023996 
L 563.348198 473.926276 
L 571.41863 460.342028 
L 574.108773 446.145208 
L 576.798917 427.482009 
L 579.489061 412.910325 
L 582.179204 401.86863 
L 590.249635 392.990104 
L 592.939779 388.092514 
L 595.629923 383.963065 
L 598.320066 379.152504 
L 601.01021 376.934771 
L 609.080641 375.095403 
L 611.770785 375.09343 
L 614.460928 370.546031 
L 617.151072 359.385875 
L 619.841216 349.093641 
L 627.911647 347.673734 
L 630.601791 354.012939 
L 633.291934 354.230551 
L 635.982078 352.531251 
L 638.672222 345.264416 
L 646.742653 343.028465 
L 649.432796 344.284568 
L 652.12294 351.999014 
L 654.813084 356.737056 
L 657.503227 358.360816 
L 665.573658 356.196085 
L 670.953946 356.72459 
L 673.64409 359.800497 
L 676.334233 364.108834 
L 687.094808 369.903662 
L 689.784952 372.141996 
L 692.475095 368.845006 
L 695.165239 372.047341 
L 703.23567 377.518524 
L 705.925814 380.334857 
L 708.615957 384.142481 
L 711.306101 392.736784 
L 713.996245 405.173399 
L 722.066676 414.936859 
L 724.756819 416.477903 
L 730.137107 427.107999 
L 732.827251 435.17446 
L 740.897682 442.21714 
L 743.587825 447.427434 
L 746.277969 450.857713 
L 748.968113 454.944351 
L 751.658256 455.413564 
L 759.728687 458.743398 
L 762.418831 461.046437 
L 765.108975 465.432163 
L 767.799118 471.114637 
L 770.489262 486.298529 
L 778.559693 496.846565 
L 781.249837 499.272211 
L 783.939981 497.808244 
L 786.630124 487.328398 
L 789.320268 483.362917 
L 797.390699 487.871553 
L 800.080843 488.42282 
L 802.770986 486.342312 
L 805.46113 477.06179 
L 808.151274 471.42955 
L 816.221705 476.953368 
L 818.911848 483.269548 
L 824.292136 492.699606 
L 826.982279 503.733497 
L 835.05271 518.938284 
L 837.742854 536.66758 
L 840.432998 540.46567 
L 843.123142 544.864333 
L 845.813285 546.548327 
L 853.883716 547.827961 
L 856.57386 547.002829 
L 859.264004 548.749838 
L 861.954147 542.928579 
L 864.644291 536.215893 
L 872.714722 530.844677 
L 875.404866 528.865735 
L 880.785153 515.886772 
L 883.475297 503.874367 
L 891.545728 491.711105 
L 894.235872 476.116511 
L 896.926015 464.756434 
L 902.306303 455.113587 
L 910.376734 453.962079 
L 918.447165 452.261137 
L 921.137308 452.462171 
L 929.207739 452.702125 
L 931.897883 454.584878 
L 934.588027 456.624909 
L 937.27817 457.149873 
L 939.968314 459.806919 
L 939.968314 459.806919 
" clip-path="url(#p221afe995e)" style="fill: none; stroke: #1f77b4; stroke-width: 1.5; stroke-linecap: square"/>
   </g>
   <g id="line2d_82">
    <path d="M 81.812479 465.254745 
L 84.502623 465.957366 
L 89.88291 464.974951 
L 92.573054 464.098057 
L 100.643485 463.085385 
L 103.333629 462.288338 
L 106.023772 462.133154 
L 108.713916 462.46933 
L 111.40406 463.483767 
L 119.474491 465.359748 
L 124.854778 470.717028 
L 127.544922 473.901106 
L 130.235066 478.012679 
L 138.305497 482.932504 
L 140.99564 488.33302 
L 146.375928 495.055939 
L 149.066071 501.618919 
L 157.136502 507.334323 
L 159.826646 511.082877 
L 162.51679 512.125167 
L 165.206933 511.437655 
L 167.897077 508.23152 
L 175.967508 503.790856 
L 178.657652 499.229681 
L 181.347796 493.827771 
L 184.037939 488.795671 
L 186.728083 484.637479 
L 194.798514 482.095532 
L 197.488658 479.571499 
L 200.178801 477.229519 
L 202.868945 475.974191 
L 205.559089 476.220614 
L 213.62952 476.67834 
L 216.319663 477.641823 
L 219.009807 479.658234 
L 221.699951 483.344546 
L 224.390094 486.49244 
L 232.460525 486.844383 
L 237.840813 485.146276 
L 240.530957 482.494902 
L 243.2211 482.265698 
L 251.291531 487.58857 
L 253.981675 494.139548 
L 256.671819 500.242109 
L 259.361962 503.489115 
L 262.052106 504.460129 
L 270.122537 504.726057 
L 272.812681 502.453114 
L 275.502824 497.622609 
L 278.192968 491.923225 
L 288.953543 487.251654 
L 291.643687 485.360117 
L 294.33383 486.657361 
L 297.023974 489.723362 
L 299.714118 494.175626 
L 307.784549 499.779742 
L 310.474692 505.651391 
L 313.164836 509.796952 
L 315.85498 511.474113 
L 318.545123 510.625399 
L 326.615554 507.858019 
L 331.995842 498.96066 
L 334.685985 493.553707 
L 337.376129 486.949891 
L 345.44656 480.466258 
L 350.826848 468.089037 
L 364.277566 461.546763 
L 366.96771 456.810344 
L 369.657853 453.309238 
L 372.347997 449.334717 
L 375.038141 445.560781 
L 383.108572 443.235467 
L 385.798715 440.903557 
L 388.488859 438.751614 
L 391.179003 435.318354 
L 393.869146 433.296101 
L 401.939578 432.273885 
L 407.319865 434.428875 
L 410.010009 439.670778 
L 412.700152 448.939349 
L 420.770583 461.073617 
L 426.150871 487.771052 
L 428.841014 501.017784 
L 431.531158 513.244997 
L 439.601589 524.589014 
L 442.291733 534.010366 
L 447.67202 547.060251 
L 450.362164 551.556731 
L 458.432595 553.997532 
L 463.812882 556.706101 
L 466.503026 557.365423 
L 469.19317 557.359376 
L 477.263601 555.156624 
L 479.953744 550.360664 
L 482.643888 544.180377 
L 485.334032 536.751012 
L 488.024175 529.746644 
L 496.094606 523.906335 
L 498.78475 519.898886 
L 501.474894 517.942587 
L 506.855181 515.767618 
L 517.615756 514.916326 
L 520.3059 514.847462 
L 522.996043 514.653229 
L 525.686187 515.848487 
L 533.756618 515.684898 
L 536.446762 513.917308 
L 539.136905 512.006363 
L 541.827049 509.213915 
L 544.517193 505.332526 
L 552.587624 500.127116 
L 555.277767 494.741207 
L 557.967911 490.83789 
L 560.658055 488.675111 
L 563.348198 485.725344 
L 571.41863 480.648681 
L 574.108773 473.747986 
L 576.798917 464.494791 
L 582.179204 443.716044 
L 590.249635 433.570856 
L 592.939779 424.475187 
L 595.629923 416.372763 
L 598.320066 408.928711 
L 601.01021 402.529923 
L 609.080641 397.043019 
L 614.460928 388.231687 
L 617.151072 382.462525 
L 619.841216 375.788748 
L 627.911647 370.165745 
L 630.601791 366.935184 
L 633.291934 364.394257 
L 635.982078 362.021656 
L 638.672222 358.670208 
L 646.742653 355.54186 
L 649.432796 353.290401 
L 652.12294 353.032124 
L 654.813084 353.77311 
L 657.503227 354.690651 
L 665.573658 354.991738 
L 670.953946 355.338308 
L 673.64409 356.230746 
L 676.334233 357.806364 
L 687.094808 360.225824 
L 689.784952 362.609058 
L 692.475095 363.856248 
L 695.165239 365.494466 
L 703.23567 367.899278 
L 705.925814 370.386394 
L 708.615957 373.137611 
L 711.306101 377.057446 
L 713.996245 382.680636 
L 722.066676 389.131881 
L 724.756819 394.601085 
L 730.137107 401.102468 
L 732.827251 407.916866 
L 740.897682 414.776921 
L 743.587825 421.307024 
L 746.277969 427.217162 
L 748.968113 432.762599 
L 751.658256 437.292792 
L 759.728687 441.582914 
L 765.108975 449.466927 
L 767.799118 453.796469 
L 770.489262 460.296881 
L 778.559693 467.606818 
L 781.249837 473.939896 
L 783.939981 478.713566 
L 786.630124 480.436532 
L 789.320268 481.021809 
L 797.390699 482.391758 
L 800.080843 483.597971 
L 802.770986 484.146839 
L 805.46113 482.729829 
L 808.151274 480.469773 
L 816.221705 479.766492 
L 818.911848 480.467103 
L 824.292136 482.913604 
L 826.982279 487.077582 
L 835.05271 493.449723 
L 837.742854 502.093294 
L 840.432998 509.767769 
L 843.123142 516.787082 
L 845.813285 522.739331 
L 853.883716 527.757057 
L 856.57386 531.606211 
L 859.264004 535.034937 
L 861.954147 536.613665 
L 864.644291 536.534111 
L 872.714722 535.396224 
L 875.404866 534.090126 
L 880.785153 530.449455 
L 883.475297 525.134438 
L 891.545728 518.449771 
L 894.235872 509.983119 
L 896.926015 500.937782 
L 899.616159 492.726933 
L 902.306303 485.204263 
L 910.376734 478.955827 
L 915.757021 473.732711 
L 918.447165 469.438396 
L 921.137308 466.043151 
L 929.207739 463.374946 
L 931.897883 461.616932 
L 934.588027 460.618528 
L 937.27817 459.924797 
L 939.968314 459.901221 
L 939.968314 459.901221 
" clip-path="url(#p221afe995e)" style="fill: none; stroke: #ff7f0e; stroke-width: 1.5; stroke-linecap: square"/>
   </g>
   <g id="patch_9">
    <path d="M 38.904688 584.521875 
L 38.904688 331.528779 
" style="fill: none; stroke: #000000; stroke-width: 0.8; stroke-linejoin: miter; stroke-linecap: square"/>
   </g>
   <g id="patch_10">
    <path d="M 982.876106 584.521875 
L 982.876106 331.528779 
" style="fill: none; stroke: #000000; stroke-width: 0.8; stroke-linejoin: miter; stroke-linecap: square"/>
   </g>
   <g id="patch_11">
    <path d="M 38.904687 584.521875 
L 982.876106 584.521875 
" style="fill: none; stroke: #000000; stroke-width: 0.8; stroke-linejoin: miter; stroke-linecap: square"/>
   </g>
   <g id="patch_12">
    <path d="M 38.904687 331.528779 
L 982.876106 331.528779 
" style="fill: none; stroke: #000000; stroke-width: 0.8; stroke-linejoin: miter; stroke-linecap: square"/>
   </g>
   <g id="text_30">
    <!-- MACD -->
    <g transform="translate(492.904459 325.528779)scale(0.12 -0.12)">
     <defs>
      <path id="DejaVuSans-44" d="M 1259 4147 
L 1259 519 
L 2022 519 
Q 2988 519 3436 956 
Q 3884 1394 3884 2338 
Q 3884 3275 3436 3711 
Q 2988 4147 2022 4147 
L 1259 4147 
z
M 628 4666 
L 1925 4666 
Q 3281 4666 3915 4102 
Q 4550 3538 4550 2338 
Q 4550 1131 3912 565 
Q 3275 0 1925 0 
L 628 0 
L 628 4666 
z
" transform="scale(0.015625)"/>
     </defs>
     <use xlink:href="#DejaVuSans-4d"/>
     <use xlink:href="#DejaVuSans-41" x="86.279297"/>
     <use xlink:href="#DejaVuSans-43" x="152.9375"/>
     <use xlink:href="#DejaVuSans-44" x="222.761719"/>
    </g>
   </g>
   <g id="legend_2">
    <g id="patch_13">
     <path d="M 913.899543 368.885029 
L 975.876106 368.885029 
Q 977.876106 368.885029 977.876106 366.885029 
L 977.876106 338.528779 
Q 977.876106 336.528779 975.876106 336.528779 
L 913.899543 336.528779 
Q 911.899543 336.528779 911.899543 338.528779 
L 911.899543 366.885029 
Q 911.899543 368.885029 913.899543 368.885029 
z
" style="fill: #ffffff; opacity: 0.8; stroke: #cccccc; stroke-linejoin: miter"/>
    </g>
    <g id="line2d_83">
     <path d="M 915.899543 344.627217 
L 925.899543 344.627217 
L 935.899543 344.627217 
" style="fill: none; stroke: #1f77b4; stroke-width: 1.5; stroke-linecap: square"/>
    </g>
    <g id="text_31">
     <!-- MACD -->
     <g transform="translate(943.899543 348.127217)scale(0.1 -0.1)">
      <use xlink:href="#DejaVuSans-4d"/>
      <use xlink:href="#DejaVuSans-41" x="86.279297"/>
      <use xlink:href="#DejaVuSans-43" x="152.9375"/>
      <use xlink:href="#DejaVuSans-44" x="222.761719"/>
     </g>
    </g>
    <g id="line2d_84">
     <path d="M 915.899543 359.305342 
L 925.899543 359.305342 
L 935.899543 359.305342 
" style="fill: none; stroke: #ff7f0e; stroke-width: 1.5; stroke-linecap: square"/>
    </g>
    <g id="text_32">
     <!-- SIG -->
     <g transform="translate(943.899543 362.805342)scale(0.1 -0.1)">
      <defs>
       <path id="DejaVuSans-49" d="M 628 4666 
L 1259 4666 
L 1259 0 
L 628 0 
L 628 4666 
z
" transform="scale(0.015625)"/>
       <path id="DejaVuSans-47" d="M 3809 666 
L 3809 1919 
L 2778 1919 
L 2778 2438 
L 4434 2438 
L 4434 434 
Q 4069 175 3628 42 
Q 3188 -91 2688 -91 
Q 1594 -91 976 548 
Q 359 1188 359 2328 
Q 359 3472 976 4111 
Q 1594 4750 2688 4750 
Q 3144 4750 3555 4637 
Q 3966 4525 4313 4306 
L 4313 3634 
Q 3963 3931 3569 4081 
Q 3175 4231 2741 4231 
Q 1884 4231 1454 3753 
Q 1025 3275 1025 2328 
Q 1025 1384 1454 906 
Q 1884 428 2741 428 
Q 3075 428 3337 486 
Q 3600 544 3809 666 
z
" transform="scale(0.015625)"/>
      </defs>
      <use xlink:href="#DejaVuSans-53"/>
      <use xlink:href="#DejaVuSans-49" x="63.476562"/>
      <use xlink:href="#DejaVuSans-47" x="92.96875"/>
     </g>
    </g>
   </g>
  </g>
  <g id="text_33">
   <!-- Dabur India Limited -->
   <g transform="translate(444.711563 21.358125)scale(0.12 -0.12)">
    <defs>
     <path id="DejaVuSans-61" d="M 2194 1759 
Q 1497 1759 1228 1600 
Q 959 1441 959 1056 
Q 959 750 1161 570 
Q 1363 391 1709 391 
Q 2188 391 2477 730 
Q 2766 1069 2766 1631 
L 2766 1759 
L 2194 1759 
z
M 3341 1997 
L 3341 0 
L 2766 0 
L 2766 531 
Q 2569 213 2275 61 
Q 1981 -91 1556 -91 
Q 1019 -91 701 211 
Q 384 513 384 1019 
Q 384 1609 779 1909 
Q 1175 2209 1959 2209 
L 2766 2209 
L 2766 2266 
Q 2766 2663 2505 2880 
Q 2244 3097 1772 3097 
Q 1472 3097 1187 3025 
Q 903 2953 641 2809 
L 641 3341 
Q 956 3463 1253 3523 
Q 1550 3584 1831 3584 
Q 2591 3584 2966 3190 
Q 3341 2797 3341 1997 
z
" transform="scale(0.015625)"/>
     <path id="DejaVuSans-62" d="M 3116 1747 
Q 3116 2381 2855 2742 
Q 2594 3103 2138 3103 
Q 1681 3103 1420 2742 
Q 1159 2381 1159 1747 
Q 1159 1113 1420 752 
Q 1681 391 2138 391 
Q 2594 391 2855 752 
Q 3116 1113 3116 1747 
z
M 1159 2969 
Q 1341 3281 1617 3432 
Q 1894 3584 2278 3584 
Q 2916 3584 3314 3078 
Q 3713 2572 3713 1747 
Q 3713 922 3314 415 
Q 2916 -91 2278 -91 
Q 1894 -91 1617 61 
Q 1341 213 1159 525 
L 1159 0 
L 581 0 
L 581 4863 
L 1159 4863 
L 1159 2969 
z
" transform="scale(0.015625)"/>
     <path id="DejaVuSans-75" d="M 544 1381 
L 544 3500 
L 1119 3500 
L 1119 1403 
Q 1119 906 1312 657 
Q 1506 409 1894 409 
Q 2359 409 2629 706 
Q 2900 1003 2900 1516 
L 2900 3500 
L 3475 3500 
L 3475 0 
L 2900 0 
L 2900 538 
Q 2691 219 2414 64 
Q 2138 -91 1772 -91 
Q 1169 -91 856 284 
Q 544 659 544 1381 
z
M 1991 3584 
L 1991 3584 
z
" transform="scale(0.015625)"/>
     <path id="DejaVuSans-64" d="M 2906 2969 
L 2906 4863 
L 3481 4863 
L 3481 0 
L 2906 0 
L 2906 525 
Q 2725 213 2448 61 
Q 2172 -91 1784 -91 
Q 1150 -91 751 415 
Q 353 922 353 1747 
Q 353 2572 751 3078 
Q 1150 3584 1784 3584 
Q 2172 3584 2448 3432 
Q 2725 3281 2906 2969 
z
M 947 1747 
Q 947 1113 1208 752 
Q 1469 391 1925 391 
Q 2381 391 2643 752 
Q 2906 1113 2906 1747 
Q 2906 2381 2643 2742 
Q 2381 3103 1925 3103 
Q 1469 3103 1208 2742 
Q 947 2381 947 1747 
z
" transform="scale(0.015625)"/>
     <path id="DejaVuSans-6d" d="M 3328 2828 
Q 3544 3216 3844 3400 
Q 4144 3584 4550 3584 
Q 5097 3584 5394 3201 
Q 5691 2819 5691 2113 
L 5691 0 
L 5113 0 
L 5113 2094 
Q 5113 2597 4934 2840 
Q 4756 3084 4391 3084 
Q 3944 3084 3684 2787 
Q 3425 2491 3425 1978 
L 3425 0 
L 2847 0 
L 2847 2094 
Q 2847 2600 2669 2842 
Q 2491 3084 2119 3084 
Q 1678 3084 1418 2786 
Q 1159 2488 1159 1978 
L 1159 0 
L 581 0 
L 581 3500 
L 1159 3500 
L 1159 2956 
Q 1356 3278 1631 3431 
Q 1906 3584 2284 3584 
Q 2666 3584 2933 3390 
Q 3200 3197 3328 2828 
z
" transform="scale(0.015625)"/>
     <path id="DejaVuSans-74" d="M 1172 4494 
L 1172 3500 
L 2356 3500 
L 2356 3053 
L 1172 3053 
L 1172 1153 
Q 1172 725 1289 603 
Q 1406 481 1766 481 
L 2356 481 
L 2356 0 
L 1766 0 
Q 1100 0 847 248 
Q 594 497 594 1153 
L 594 3053 
L 172 3053 
L 172 3500 
L 594 3500 
L 594 4494 
L 1172 4494 
z
" transform="scale(0.015625)"/>
    </defs>
    <use xlink:href="#DejaVuSans-44"/>
    <use xlink:href="#DejaVuSans-61" x="77.001953"/>
    <use xlink:href="#DejaVuSans-62" x="138.28125"/>
    <use xlink:href="#DejaVuSans-75" x="201.757812"/>
    <use xlink:href="#DejaVuSans-72" x="265.136719"/>
    <use xlink:href="#DejaVuSans-20" x="306.25"/>
    <use xlink:href="#DejaVuSans-49" x="338.037109"/>
    <use xlink:href="#DejaVuSans-6e" x="367.529297"/>
    <use xlink:href="#DejaVuSans-64" x="430.908203"/>
    <use xlink:href="#DejaVuSans-69" x="494.384766"/>
    <use xlink:href="#DejaVuSans-61" x="522.167969"/>
    <use xlink:href="#DejaVuSans-20" x="583.447266"/>
    <use xlink:href="#DejaVuSans-4c" x="615.234375"/>
    <use xlink:href="#DejaVuSans-69" x="670.947266"/>
    <use xlink:href="#DejaVuSans-6d" x="698.730469"/>
    <use xlink:href="#DejaVuSans-69" x="796.142578"/>
    <use xlink:href="#DejaVuSans-74" x="823.925781"/>
    <use xlink:href="#DejaVuSans-65" x="863.134766"/>
    <use xlink:href="#DejaVuSans-64" x="924.658203"/>
   </g>
  </g>
 </g>
 <defs>
  <clipPath id="p48f938049a">
   <rect x="38.904688" y="48.331875" width="943.971418" height="252.993096"/>
  </clipPath>
  <clipPath id="p221afe995e">
   <rect x="38.904688" y="331.528779" width="943.971418" height="252.993096"/>
  </clipPath>
 </defs>
</svg>
