<?xml version="1.0" encoding="utf-8" standalone="no"?>
<!DOCTYPE svg PUBLIC "-//W3C//DTD SVG 1.1//EN"
  "http://www.w3.org/Graphics/SVG/1.1/DTD/svg11.dtd">
<svg xmlns:xlink="http://www.w3.org/1999/xlink" width="1008pt" height="612pt" viewBox="0 0 1008 612" xmlns="http://www.w3.org/2000/svg" version="1.1">
 <metadata>
  <rdf:RDF xmlns:dc="http://purl.org/dc/elements/1.1/" xmlns:cc="http://creativecommons.org/ns#" xmlns:rdf="http://www.w3.org/1999/02/22-rdf-syntax-ns#">
   <cc:Work>
    <dc:type rdf:resource="http://purl.org/dc/dcmitype/StillImage"/>
    <dc:date>2022-11-20T19:47:11.795370</dc:date>
    <dc:format>image/svg+xml</dc:format>
    <dc:creator>
     <cc:Agent>
      <dc:title>Matplotlib v3.5.2, https://matplotlib.org/</dc:title>
     </cc:Agent>
    </dc:creator>
   </cc:Work>
  </rdf:RDF>
 </metadata>
 <defs>
  <style type="text/css">*{stroke-linejoin: round; stroke-linecap: butt}</style>
 </defs>
 <g id="figure_1">
  <g id="patch_1">
   <path d="M 0 612 
L 1008 612 
L 1008 0 
L 0 0 
z
" style="fill: #ffffff"/>
  </g>
  <g id="axes_1">
   <g id="patch_2">
    <path d="M 51.629688 301.717812 
L 982.876106 301.717812 
L 982.876106 48.331875 
L 51.629688 48.331875 
z
" style="fill: #ffffff"/>
   </g>
   <g id="matplotlib.axis_1">
    <g id="xtick_1">
     <g id="line2d_1">
      <path d="M 88.651311 301.717812 
L 88.651311 48.331875 
" clip-path="url(#p3ae6b1c3a6)" style="fill: none; stroke-dasharray: 2.96,1.28; stroke-dashoffset: 0; stroke: #b0b0b0; stroke-width: 0.8"/>
     </g>
     <g id="line2d_2">
      <defs>
       <path id="m97cfb51be1" d="M 0 0 
L 0 3.5 
" style="stroke: #000000; stroke-width: 0.8"/>
      </defs>
      <g>
       <use xlink:href="#m97cfb51be1" x="88.651311" y="301.717812" style="stroke: #000000; stroke-width: 0.8"/>
      </g>
     </g>
    </g>
    <g id="xtick_2">
     <g id="line2d_3">
      <path d="M 170.921584 301.717812 
L 170.921584 48.331875 
" clip-path="url(#p3ae6b1c3a6)" style="fill: none; stroke-dasharray: 2.96,1.28; stroke-dashoffset: 0; stroke: #b0b0b0; stroke-width: 0.8"/>
     </g>
     <g id="line2d_4">
      <g>
       <use xlink:href="#m97cfb51be1" x="170.921584" y="301.717812" style="stroke: #000000; stroke-width: 0.8"/>
      </g>
     </g>
    </g>
    <g id="xtick_3">
     <g id="line2d_5">
      <path d="M 245.230218 301.717812 
L 245.230218 48.331875 
" clip-path="url(#p3ae6b1c3a6)" style="fill: none; stroke-dasharray: 2.96,1.28; stroke-dashoffset: 0; stroke: #b0b0b0; stroke-width: 0.8"/>
     </g>
     <g id="line2d_6">
      <g>
       <use xlink:href="#m97cfb51be1" x="245.230218" y="301.717812" style="stroke: #000000; stroke-width: 0.8"/>
      </g>
     </g>
    </g>
    <g id="xtick_4">
     <g id="line2d_7">
      <path d="M 327.500492 301.717812 
L 327.500492 48.331875 
" clip-path="url(#p3ae6b1c3a6)" style="fill: none; stroke-dasharray: 2.96,1.28; stroke-dashoffset: 0; stroke: #b0b0b0; stroke-width: 0.8"/>
     </g>
     <g id="line2d_8">
      <g>
       <use xlink:href="#m97cfb51be1" x="327.500492" y="301.717812" style="stroke: #000000; stroke-width: 0.8"/>
      </g>
     </g>
    </g>
    <g id="xtick_5">
     <g id="line2d_9">
      <path d="M 407.116885 301.717812 
L 407.116885 48.331875 
" clip-path="url(#p3ae6b1c3a6)" style="fill: none; stroke-dasharray: 2.96,1.28; stroke-dashoffset: 0; stroke: #b0b0b0; stroke-width: 0.8"/>
     </g>
     <g id="line2d_10">
      <g>
       <use xlink:href="#m97cfb51be1" x="407.116885" y="301.717812" style="stroke: #000000; stroke-width: 0.8"/>
      </g>
     </g>
    </g>
    <g id="xtick_6">
     <g id="line2d_11">
      <path d="M 489.387159 301.717812 
L 489.387159 48.331875 
" clip-path="url(#p3ae6b1c3a6)" style="fill: none; stroke-dasharray: 2.96,1.28; stroke-dashoffset: 0; stroke: #b0b0b0; stroke-width: 0.8"/>
     </g>
     <g id="line2d_12">
      <g>
       <use xlink:href="#m97cfb51be1" x="489.387159" y="301.717812" style="stroke: #000000; stroke-width: 0.8"/>
      </g>
     </g>
    </g>
    <g id="xtick_7">
     <g id="line2d_13">
      <path d="M 569.003553 301.717812 
L 569.003553 48.331875 
" clip-path="url(#p3ae6b1c3a6)" style="fill: none; stroke-dasharray: 2.96,1.28; stroke-dashoffset: 0; stroke: #b0b0b0; stroke-width: 0.8"/>
     </g>
     <g id="line2d_14">
      <g>
       <use xlink:href="#m97cfb51be1" x="569.003553" y="301.717812" style="stroke: #000000; stroke-width: 0.8"/>
      </g>
     </g>
    </g>
    <g id="xtick_8">
     <g id="line2d_15">
      <path d="M 651.273826 301.717812 
L 651.273826 48.331875 
" clip-path="url(#p3ae6b1c3a6)" style="fill: none; stroke-dasharray: 2.96,1.28; stroke-dashoffset: 0; stroke: #b0b0b0; stroke-width: 0.8"/>
     </g>
     <g id="line2d_16">
      <g>
       <use xlink:href="#m97cfb51be1" x="651.273826" y="301.717812" style="stroke: #000000; stroke-width: 0.8"/>
      </g>
     </g>
    </g>
    <g id="xtick_9">
     <g id="line2d_17">
      <path d="M 733.5441 301.717812 
L 733.5441 48.331875 
" clip-path="url(#p3ae6b1c3a6)" style="fill: none; stroke-dasharray: 2.96,1.28; stroke-dashoffset: 0; stroke: #b0b0b0; stroke-width: 0.8"/>
     </g>
     <g id="line2d_18">
      <g>
       <use xlink:href="#m97cfb51be1" x="733.5441" y="301.717812" style="stroke: #000000; stroke-width: 0.8"/>
      </g>
     </g>
    </g>
    <g id="xtick_10">
     <g id="line2d_19">
      <path d="M 813.160493 301.717812 
L 813.160493 48.331875 
" clip-path="url(#p3ae6b1c3a6)" style="fill: none; stroke-dasharray: 2.96,1.28; stroke-dashoffset: 0; stroke: #b0b0b0; stroke-width: 0.8"/>
     </g>
     <g id="line2d_20">
      <g>
       <use xlink:href="#m97cfb51be1" x="813.160493" y="301.717812" style="stroke: #000000; stroke-width: 0.8"/>
      </g>
     </g>
    </g>
    <g id="xtick_11">
     <g id="line2d_21">
      <path d="M 895.430767 301.717812 
L 895.430767 48.331875 
" clip-path="url(#p3ae6b1c3a6)" style="fill: none; stroke-dasharray: 2.96,1.28; stroke-dashoffset: 0; stroke: #b0b0b0; stroke-width: 0.8"/>
     </g>
     <g id="line2d_22">
      <g>
       <use xlink:href="#m97cfb51be1" x="895.430767" y="301.717812" style="stroke: #000000; stroke-width: 0.8"/>
      </g>
     </g>
    </g>
    <g id="xtick_12">
     <g id="line2d_23">
      <path d="M 975.04716 301.717812 
L 975.04716 48.331875 
" clip-path="url(#p3ae6b1c3a6)" style="fill: none; stroke-dasharray: 2.96,1.28; stroke-dashoffset: 0; stroke: #b0b0b0; stroke-width: 0.8"/>
     </g>
     <g id="line2d_24">
      <g>
       <use xlink:href="#m97cfb51be1" x="975.04716" y="301.717812" style="stroke: #000000; stroke-width: 0.8"/>
      </g>
     </g>
    </g>
   </g>
   <g id="matplotlib.axis_2">
    <g id="ytick_1">
     <g id="line2d_25">
      <path d="M 51.629688 291.309638 
L 982.876106 291.309638 
" clip-path="url(#p3ae6b1c3a6)" style="fill: none; stroke-dasharray: 2.96,1.28; stroke-dashoffset: 0; stroke: #b0b0b0; stroke-width: 0.8"/>
     </g>
     <g id="line2d_26">
      <defs>
       <path id="mb36b15effd" d="M 0 0 
L -3.5 0 
" style="stroke: #000000; stroke-width: 0.8"/>
      </defs>
      <g>
       <use xlink:href="#mb36b15effd" x="51.629688" y="291.309638" style="stroke: #000000; stroke-width: 0.8"/>
      </g>
     </g>
     <g id="text_1">
      <!-- 18000 -->
      <g transform="translate(12.817188 295.108857)scale(0.1 -0.1)">
       <defs>
        <path id="DejaVuSans-31" d="M 794 531 
L 1825 531 
L 1825 4091 
L 703 3866 
L 703 4441 
L 1819 4666 
L 2450 4666 
L 2450 531 
L 3481 531 
L 3481 0 
L 794 0 
L 794 531 
z
" transform="scale(0.015625)"/>
        <path id="DejaVuSans-38" d="M 2034 2216 
Q 1584 2216 1326 1975 
Q 1069 1734 1069 1313 
Q 1069 891 1326 650 
Q 1584 409 2034 409 
Q 2484 409 2743 651 
Q 3003 894 3003 1313 
Q 3003 1734 2745 1975 
Q 2488 2216 2034 2216 
z
M 1403 2484 
Q 997 2584 770 2862 
Q 544 3141 544 3541 
Q 544 4100 942 4425 
Q 1341 4750 2034 4750 
Q 2731 4750 3128 4425 
Q 3525 4100 3525 3541 
Q 3525 3141 3298 2862 
Q 3072 2584 2669 2484 
Q 3125 2378 3379 2068 
Q 3634 1759 3634 1313 
Q 3634 634 3220 271 
Q 2806 -91 2034 -91 
Q 1263 -91 848 271 
Q 434 634 434 1313 
Q 434 1759 690 2068 
Q 947 2378 1403 2484 
z
M 1172 3481 
Q 1172 3119 1398 2916 
Q 1625 2713 2034 2713 
Q 2441 2713 2670 2916 
Q 2900 3119 2900 3481 
Q 2900 3844 2670 4047 
Q 2441 4250 2034 4250 
Q 1625 4250 1398 4047 
Q 1172 3844 1172 3481 
z
" transform="scale(0.015625)"/>
        <path id="DejaVuSans-30" d="M 2034 4250 
Q 1547 4250 1301 3770 
Q 1056 3291 1056 2328 
Q 1056 1369 1301 889 
Q 1547 409 2034 409 
Q 2525 409 2770 889 
Q 3016 1369 3016 2328 
Q 3016 3291 2770 3770 
Q 2525 4250 2034 4250 
z
M 2034 4750 
Q 2819 4750 3233 4129 
Q 3647 3509 3647 2328 
Q 3647 1150 3233 529 
Q 2819 -91 2034 -91 
Q 1250 -91 836 529 
Q 422 1150 422 2328 
Q 422 3509 836 4129 
Q 1250 4750 2034 4750 
z
" transform="scale(0.015625)"/>
       </defs>
       <use xlink:href="#DejaVuSans-31"/>
       <use xlink:href="#DejaVuSans-38" x="63.623047"/>
       <use xlink:href="#DejaVuSans-30" x="127.246094"/>
       <use xlink:href="#DejaVuSans-30" x="190.869141"/>
       <use xlink:href="#DejaVuSans-30" x="254.492188"/>
      </g>
     </g>
    </g>
    <g id="ytick_2">
     <g id="line2d_27">
      <path d="M 51.629688 242.81268 
L 982.876106 242.81268 
" clip-path="url(#p3ae6b1c3a6)" style="fill: none; stroke-dasharray: 2.96,1.28; stroke-dashoffset: 0; stroke: #b0b0b0; stroke-width: 0.8"/>
     </g>
     <g id="line2d_28">
      <g>
       <use xlink:href="#mb36b15effd" x="51.629688" y="242.81268" style="stroke: #000000; stroke-width: 0.8"/>
      </g>
     </g>
     <g id="text_2">
      <!-- 20000 -->
      <g transform="translate(12.817188 246.611898)scale(0.1 -0.1)">
       <defs>
        <path id="DejaVuSans-32" d="M 1228 531 
L 3431 531 
L 3431 0 
L 469 0 
L 469 531 
Q 828 903 1448 1529 
Q 2069 2156 2228 2338 
Q 2531 2678 2651 2914 
Q 2772 3150 2772 3378 
Q 2772 3750 2511 3984 
Q 2250 4219 1831 4219 
Q 1534 4219 1204 4116 
Q 875 4013 500 3803 
L 500 4441 
Q 881 4594 1212 4672 
Q 1544 4750 1819 4750 
Q 2544 4750 2975 4387 
Q 3406 4025 3406 3419 
Q 3406 3131 3298 2873 
Q 3191 2616 2906 2266 
Q 2828 2175 2409 1742 
Q 1991 1309 1228 531 
z
" transform="scale(0.015625)"/>
       </defs>
       <use xlink:href="#DejaVuSans-32"/>
       <use xlink:href="#DejaVuSans-30" x="63.623047"/>
       <use xlink:href="#DejaVuSans-30" x="127.246094"/>
       <use xlink:href="#DejaVuSans-30" x="190.869141"/>
       <use xlink:href="#DejaVuSans-30" x="254.492188"/>
      </g>
     </g>
    </g>
    <g id="ytick_3">
     <g id="line2d_29">
      <path d="M 51.629688 194.315721 
L 982.876106 194.315721 
" clip-path="url(#p3ae6b1c3a6)" style="fill: none; stroke-dasharray: 2.96,1.28; stroke-dashoffset: 0; stroke: #b0b0b0; stroke-width: 0.8"/>
     </g>
     <g id="line2d_30">
      <g>
       <use xlink:href="#mb36b15effd" x="51.629688" y="194.315721" style="stroke: #000000; stroke-width: 0.8"/>
      </g>
     </g>
     <g id="text_3">
      <!-- 22000 -->
      <g transform="translate(12.817188 198.11494)scale(0.1 -0.1)">
       <use xlink:href="#DejaVuSans-32"/>
       <use xlink:href="#DejaVuSans-32" x="63.623047"/>
       <use xlink:href="#DejaVuSans-30" x="127.246094"/>
       <use xlink:href="#DejaVuSans-30" x="190.869141"/>
       <use xlink:href="#DejaVuSans-30" x="254.492188"/>
      </g>
     </g>
    </g>
    <g id="ytick_4">
     <g id="line2d_31">
      <path d="M 51.629688 145.818763 
L 982.876106 145.818763 
" clip-path="url(#p3ae6b1c3a6)" style="fill: none; stroke-dasharray: 2.96,1.28; stroke-dashoffset: 0; stroke: #b0b0b0; stroke-width: 0.8"/>
     </g>
     <g id="line2d_32">
      <g>
       <use xlink:href="#mb36b15effd" x="51.629688" y="145.818763" style="stroke: #000000; stroke-width: 0.8"/>
      </g>
     </g>
     <g id="text_4">
      <!-- 24000 -->
      <g transform="translate(12.817188 149.617982)scale(0.1 -0.1)">
       <defs>
        <path id="DejaVuSans-34" d="M 2419 4116 
L 825 1625 
L 2419 1625 
L 2419 4116 
z
M 2253 4666 
L 3047 4666 
L 3047 1625 
L 3713 1625 
L 3713 1100 
L 3047 1100 
L 3047 0 
L 2419 0 
L 2419 1100 
L 313 1100 
L 313 1709 
L 2253 4666 
z
" transform="scale(0.015625)"/>
       </defs>
       <use xlink:href="#DejaVuSans-32"/>
       <use xlink:href="#DejaVuSans-34" x="63.623047"/>
       <use xlink:href="#DejaVuSans-30" x="127.246094"/>
       <use xlink:href="#DejaVuSans-30" x="190.869141"/>
       <use xlink:href="#DejaVuSans-30" x="254.492188"/>
      </g>
     </g>
    </g>
    <g id="ytick_5">
     <g id="line2d_33">
      <path d="M 51.629688 97.321805 
L 982.876106 97.321805 
" clip-path="url(#p3ae6b1c3a6)" style="fill: none; stroke-dasharray: 2.96,1.28; stroke-dashoffset: 0; stroke: #b0b0b0; stroke-width: 0.8"/>
     </g>
     <g id="line2d_34">
      <g>
       <use xlink:href="#mb36b15effd" x="51.629688" y="97.321805" style="stroke: #000000; stroke-width: 0.8"/>
      </g>
     </g>
     <g id="text_5">
      <!-- 26000 -->
      <g transform="translate(12.817188 101.121024)scale(0.1 -0.1)">
       <defs>
        <path id="DejaVuSans-36" d="M 2113 2584 
Q 1688 2584 1439 2293 
Q 1191 2003 1191 1497 
Q 1191 994 1439 701 
Q 1688 409 2113 409 
Q 2538 409 2786 701 
Q 3034 994 3034 1497 
Q 3034 2003 2786 2293 
Q 2538 2584 2113 2584 
z
M 3366 4563 
L 3366 3988 
Q 3128 4100 2886 4159 
Q 2644 4219 2406 4219 
Q 1781 4219 1451 3797 
Q 1122 3375 1075 2522 
Q 1259 2794 1537 2939 
Q 1816 3084 2150 3084 
Q 2853 3084 3261 2657 
Q 3669 2231 3669 1497 
Q 3669 778 3244 343 
Q 2819 -91 2113 -91 
Q 1303 -91 875 529 
Q 447 1150 447 2328 
Q 447 3434 972 4092 
Q 1497 4750 2381 4750 
Q 2619 4750 2861 4703 
Q 3103 4656 3366 4563 
z
" transform="scale(0.015625)"/>
       </defs>
       <use xlink:href="#DejaVuSans-32"/>
       <use xlink:href="#DejaVuSans-36" x="63.623047"/>
       <use xlink:href="#DejaVuSans-30" x="127.246094"/>
       <use xlink:href="#DejaVuSans-30" x="190.869141"/>
       <use xlink:href="#DejaVuSans-30" x="254.492188"/>
      </g>
     </g>
    </g>
    <g id="ytick_6">
     <g id="line2d_35">
      <path d="M 51.629688 48.824847 
L 982.876106 48.824847 
" clip-path="url(#p3ae6b1c3a6)" style="fill: none; stroke-dasharray: 2.96,1.28; stroke-dashoffset: 0; stroke: #b0b0b0; stroke-width: 0.8"/>
     </g>
     <g id="line2d_36">
      <g>
       <use xlink:href="#mb36b15effd" x="51.629688" y="48.824847" style="stroke: #000000; stroke-width: 0.8"/>
      </g>
     </g>
     <g id="text_6">
      <!-- 28000 -->
      <g transform="translate(12.817188 52.624065)scale(0.1 -0.1)">
       <use xlink:href="#DejaVuSans-32"/>
       <use xlink:href="#DejaVuSans-38" x="63.623047"/>
       <use xlink:href="#DejaVuSans-30" x="127.246094"/>
       <use xlink:href="#DejaVuSans-30" x="190.869141"/>
       <use xlink:href="#DejaVuSans-30" x="254.492188"/>
      </g>
     </g>
    </g>
   </g>
   <g id="line2d_37">
    <path d="M 93.95907 67.074252 
L 96.61295 74.186331 
L 99.26683 67.86839 
L 101.92071 84.517395 
L 104.574589 71.951834 
L 112.536229 74.40578 
L 115.190108 72.138547 
L 117.843988 79.972018 
L 120.497868 76.582081 
L 123.151748 71.171033 
L 131.113387 59.849418 
L 133.767267 69.301475 
L 136.421147 87.567854 
L 139.075027 95.567427 
L 141.728906 120.668241 
L 149.690546 138.037426 
L 152.344426 133.755145 
L 157.652185 146.745055 
L 160.306065 142.794978 
L 168.267704 139.341994 
L 170.921584 109.697016 
L 173.575464 115.133525 
L 176.229344 126.398156 
L 178.883223 128.261652 
L 186.844863 124.830492 
L 189.498743 127.292925 
L 192.152622 110.266855 
L 194.806502 115.57121 
L 197.460382 123.987857 
L 205.422021 155.780038 
L 208.075901 123.772046 
L 210.729781 123.598669 
L 213.383661 128.266501 
L 216.03754 137.342707 
L 223.99918 129.369807 
L 226.65306 136.272137 
L 229.306939 131.186018 
L 231.960819 166.375411 
L 234.614699 146.220075 
L 242.576338 135.762919 
L 247.884098 147.451898 
L 250.537978 174.261017 
L 253.191858 180.970571 
L 261.153497 194.549719 
L 263.807377 180.158247 
L 266.461257 195.172905 
L 269.115136 189.524222 
L 271.769016 184.747271 
L 279.730655 185.551109 
L 282.384535 174.904814 
L 285.038415 155.628485 
L 287.692295 143.63155 
L 298.307814 160.603061 
L 300.961694 161.015285 
L 303.615574 160.047771 
L 306.269453 163.429221 
L 308.923333 163.778399 
L 316.884973 165.276955 
L 322.192732 143.657011 
L 324.846612 145.028263 
L 327.500492 130.958083 
L 335.462131 127.267464 
L 338.116011 117.740237 
L 340.769891 128.044628 
L 343.42377 127.814267 
L 346.07765 115.249918 
L 354.03929 116.632081 
L 356.693169 118.596208 
L 359.347049 112.754749 
L 372.616448 111.013709 
L 375.270328 124.943247 
L 377.924208 104.260507 
L 380.578087 95.950553 
L 383.231967 100.831772 
L 391.193607 105.818472 
L 393.847486 93.16804 
L 396.501366 107.632258 
L 399.155246 100.411061 
L 401.809126 99.22531 
L 409.770765 91.739805 
L 415.078525 116.878203 
L 417.732405 119.420656 
L 420.386284 146.45771 
L 428.347924 144.405077 
L 431.001804 138.52967 
L 433.655683 160.797049 
L 436.309563 179.102226 
L 438.963443 180.606844 
L 446.925082 194.78008 
L 449.578962 193.447626 
L 452.232842 182.159959 
L 454.886722 189.069563 
L 457.540601 194.286623 
L 465.502241 195.729408 
L 468.156121 202.865735 
L 470.81 212.409936 
L 473.46388 201.803652 
L 476.11776 196.084648 
L 484.079399 183.151722 
L 486.733279 191.495623 
L 489.387159 199.371529 
L 492.041039 203.172478 
L 494.694918 227.34215 
L 507.964317 252.906109 
L 510.618197 262.25996 
L 513.272077 262.724318 
L 521.233716 263.771852 
L 523.887596 261.996864 
L 526.541476 259.442287 
L 529.195356 274.048358 
L 531.849236 290.20027 
L 539.810875 281.270767 
L 542.464755 277.940239 
L 545.118634 279.264206 
L 547.772514 278.370649 
L 550.426394 272.064832 
L 558.388033 264.599938 
L 561.041913 261.316694 
L 563.695793 257.747318 
L 566.349673 266.825948 
L 569.003553 261.876834 
L 576.965192 259.970903 
L 579.619072 253.342582 
L 582.272952 243.034553 
L 584.926831 242.458652 
L 587.580711 244.442177 
L 595.54235 246.34932 
L 598.19623 243.731697 
L 600.85011 249.213066 
L 603.50399 253.416539 
L 606.15787 250.043576 
L 614.119509 241.462039 
L 616.773389 241.158933 
L 619.427269 237.764146 
L 622.081148 232.071816 
L 624.735028 223.898866 
L 632.696668 226.34675 
L 635.350547 226.994184 
L 638.004427 217.994361 
L 640.658307 232.738649 
L 643.312187 230.736937 
L 651.273826 219.84937 
L 653.927706 215.873832 
L 656.581586 219.620222 
L 659.235465 226.132151 
L 661.889345 212.807611 
L 669.850985 213.821198 
L 675.158744 216.020535 
L 677.812624 213.885456 
L 680.466504 214.873582 
L 691.082023 207.881533 
L 693.735903 208.356803 
L 696.389783 203.469522 
L 699.043662 208.302244 
L 707.005302 220.226434 
L 709.659181 215.493131 
L 712.313061 210.12573 
L 714.966941 201.284734 
L 717.620821 191.941795 
L 725.58246 196.842413 
L 728.23634 192.543157 
L 733.5441 204.350954 
L 736.197979 216.420635 
L 744.159619 211.443635 
L 746.813499 202.697208 
L 749.467378 165.677055 
L 752.121258 134.702048 
L 754.775138 133.558732 
L 762.736777 142.542794 
L 765.390657 147.460385 
L 768.044537 142.633725 
L 770.698417 147.93808 
L 773.352296 162.3635 
L 781.313936 160.341177 
L 783.967816 164.182136 
L 786.621695 193.73497 
L 789.275575 201.505395 
L 791.929455 213.679344 
L 799.891094 224.662693 
L 802.544974 214.605636 
L 805.198854 222.334839 
L 807.852734 211.603675 
L 810.506613 217.761576 
L 818.468253 225.376811 
L 821.122133 218.327778 
L 826.429892 210.775589 
L 829.083772 211.683694 
L 837.045411 215.105155 
L 839.699291 223.362974 
L 842.353171 218.269581 
L 845.007051 216.729803 
L 847.660931 213.993362 
L 855.62257 222.659769 
L 858.27645 219.342577 
L 860.93033 210.707693 
L 863.584209 196.844838 
L 866.238089 220.135502 
L 874.199728 217.486356 
L 876.853608 211.298144 
L 882.161368 206.144129 
L 884.815248 199.654024 
L 892.776887 176.359723 
L 895.430767 178.810031 
L 898.084647 186.381619 
L 900.738526 174.545936 
L 911.354046 160.219935 
L 916.661805 168.086141 
L 919.315685 184.627241 
L 921.969565 173.365035 
L 929.931204 169.486491 
L 932.585084 165.132677 
L 935.238964 163.914191 
L 937.892843 164.254882 
L 940.546723 166.478467 
L 940.546723 166.478467 
" clip-path="url(#p3ae6b1c3a6)" style="fill: none; stroke: #1f77b4; stroke-width: 1.5; stroke-linecap: square"/>
   </g>
   <g id="line2d_38">
    <path d="M 104.574589 73.11964 
L 112.536229 74.585946 
L 115.190108 74.176389 
L 117.843988 76.597115 
L 120.497868 75.010052 
L 123.151748 74.853892 
L 131.113387 71.942619 
L 133.767267 71.375205 
L 136.421147 72.894372 
L 139.075027 76.691441 
L 141.728906 86.590883 
L 149.690546 102.228485 
L 152.344426 115.119219 
L 157.652185 126.954659 
L 160.306065 136.400169 
L 168.267704 140.13492 
L 170.921584 134.466838 
L 173.575464 130.742514 
L 176.229344 126.673134 
L 178.883223 123.766469 
L 186.844863 120.864168 
L 189.498743 124.38335 
L 192.152622 123.410016 
L 194.806502 121.244627 
L 197.460382 120.389868 
L 205.422021 126.579777 
L 208.075901 125.875601 
L 216.03754 133.751992 
L 223.99918 128.469946 
L 226.65306 130.969964 
L 229.306939 132.487434 
L 231.960819 140.109216 
L 234.614699 141.88469 
L 242.576338 143.163312 
L 247.884098 145.399264 
L 250.537978 154.014264 
L 253.191858 156.933296 
L 261.153497 166.599225 
L 263.807377 175.47829 
L 266.461257 185.022492 
L 269.115136 188.075133 
L 271.769016 188.830473 
L 279.730655 187.030751 
L 282.384535 185.980064 
L 285.038415 178.07118 
L 287.692295 168.892646 
L 298.307814 164.063804 
L 300.961694 159.156639 
L 303.615574 156.18523 
L 306.269453 157.745378 
L 308.923333 161.774747 
L 316.884973 162.709526 
L 319.538852 161.389196 
L 322.192732 158.111045 
L 324.846612 154.430853 
L 327.500492 147.86679 
L 335.462131 140.264891 
L 338.116011 132.930211 
L 340.769891 129.807735 
L 343.42377 126.364936 
L 346.07765 123.223303 
L 354.03929 121.096226 
L 356.693169 121.26742 
L 359.347049 118.209445 
L 372.616448 114.849333 
L 375.270328 116.787999 
L 377.924208 114.313684 
L 380.578087 109.784553 
L 383.231967 107.399958 
L 391.193607 106.36091 
L 393.847486 100.005869 
L 396.501366 100.680219 
L 399.155246 101.572321 
L 401.809126 101.251028 
L 409.770765 98.435295 
L 417.732405 105.535007 
L 420.386284 114.744337 
L 428.347924 123.78029 
L 431.001804 133.138263 
L 433.655683 141.922032 
L 436.309563 153.858346 
L 438.963443 160.688173 
L 446.925082 170.763174 
L 449.578962 181.746765 
L 452.232842 186.019347 
L 454.886722 188.012814 
L 457.540601 190.74877 
L 465.502241 190.938636 
L 468.156121 192.822257 
L 470.81 198.872253 
L 473.46388 201.419071 
L 476.11776 201.778676 
L 484.079399 199.263139 
L 486.733279 196.989116 
L 489.387159 194.381435 
L 492.041039 194.6552 
L 494.694918 200.9067 
L 502.656558 212.825798 
L 505.310438 224.129954 
L 507.964317 234.83687 
L 510.618197 246.654366 
L 513.272077 253.7308 
L 521.233716 257.935729 
L 523.887596 260.731821 
L 526.541476 262.039056 
L 529.195356 264.396736 
L 531.849236 269.891926 
L 539.810875 273.391709 
L 542.464755 276.580384 
L 545.118634 280.544768 
L 547.772514 281.409226 
L 550.426394 277.782139 
L 558.388033 274.447973 
L 561.041913 271.123264 
L 563.695793 266.819886 
L 566.349673 264.510946 
L 569.003553 262.473346 
L 576.965192 261.54754 
L 579.619072 259.952717 
L 582.272952 257.010164 
L 584.926831 252.136705 
L 587.580711 248.649773 
L 595.54235 245.925457 
L 598.19623 244.00328 
L 600.85011 245.238982 
L 603.50399 247.43056 
L 606.15787 248.55084 
L 614.119509 247.573383 
L 616.773389 247.058831 
L 619.427269 244.769047 
L 622.081148 240.500102 
L 624.735028 235.27116 
L 632.696668 232.248102 
L 635.350547 229.415152 
L 638.004427 225.461195 
L 640.658307 225.594562 
L 643.312187 226.962176 
L 651.273826 225.6627 
L 653.927706 223.43863 
L 656.581586 223.763802 
L 659.235465 222.442502 
L 661.889345 218.856637 
L 669.850985 217.651003 
L 675.158744 217.680343 
L 677.812624 216.53339 
L 680.466504 214.281677 
L 691.082023 213.296461 
L 693.735903 212.203582 
L 696.389783 209.693379 
L 699.043662 208.576737 
L 707.005302 209.647307 
L 709.659181 211.169627 
L 712.313061 211.523412 
L 714.966941 211.086454 
L 717.620821 207.814365 
L 725.58246 203.137561 
L 728.23634 198.547566 
L 733.5441 197.392611 
L 736.197979 200.419791 
L 744.159619 204.320159 
L 746.813499 205.491118 
L 749.467378 200.117897 
L 752.121258 186.188116 
L 754.775138 169.615736 
L 762.736777 155.835567 
L 765.390657 144.788203 
L 768.044537 140.179537 
L 770.698417 142.826743 
L 773.352296 148.587697 
L 781.313936 152.147374 
L 783.967816 155.491724 
L 786.621695 165.711973 
L 791.929455 186.688605 
L 799.891094 199.552908 
L 802.544974 209.637608 
L 805.198854 215.357582 
L 807.852734 217.377237 
L 810.506613 218.193684 
L 818.468253 218.336507 
L 821.122133 219.080936 
L 826.429892 216.769086 
L 829.083772 216.78509 
L 837.045411 216.253805 
L 839.699291 215.851038 
L 842.353171 215.839399 
L 845.007051 217.030242 
L 847.660931 217.492175 
L 855.62257 219.003098 
L 858.27645 218.199018 
L 860.93033 216.686641 
L 863.584209 212.709648 
L 866.238089 213.938076 
L 874.199728 212.903393 
L 876.853608 211.294506 
L 882.161368 210.381794 
L 884.815248 210.943631 
L 892.776887 202.188475 
L 895.430767 194.45321 
L 898.084647 189.469905 
L 900.738526 183.150267 
L 903.392406 177.409439 
L 916.661805 172.036704 
L 919.315685 171.685828 
L 921.969565 171.449648 
L 929.931204 171.156969 
L 932.585084 172.139517 
L 935.238964 171.305127 
L 937.892843 167.230655 
L 940.546723 165.853341 
L 940.546723 165.853341 
" clip-path="url(#p3ae6b1c3a6)" style="fill: none; stroke: #ff7f0e; stroke-width: 1.5; stroke-linecap: square"/>
   </g>
   <g id="patch_3">
    <path d="M 51.629688 301.717813 
L 51.629688 48.331875 
" style="fill: none; stroke: #000000; stroke-width: 0.8; stroke-linejoin: miter; stroke-linecap: square"/>
   </g>
   <g id="patch_4">
    <path d="M 982.876106 301.717813 
L 982.876106 48.331875 
" style="fill: none; stroke: #000000; stroke-width: 0.8; stroke-linejoin: miter; stroke-linecap: square"/>
   </g>
   <g id="patch_5">
    <path d="M 51.629687 301.717812 
L 982.876106 301.717812 
" style="fill: none; stroke: #000000; stroke-width: 0.8; stroke-linejoin: miter; stroke-linecap: square"/>
   </g>
   <g id="patch_6">
    <path d="M 51.629687 48.331875 
L 982.876106 48.331875 
" style="fill: none; stroke: #000000; stroke-width: 0.8; stroke-linejoin: miter; stroke-linecap: square"/>
   </g>
   <g id="text_7">
    <!-- Closing Price -->
    <g transform="translate(478.776959 42.331875)scale(0.12 -0.12)">
     <defs>
      <path id="DejaVuSans-43" d="M 4122 4306 
L 4122 3641 
Q 3803 3938 3442 4084 
Q 3081 4231 2675 4231 
Q 1875 4231 1450 3742 
Q 1025 3253 1025 2328 
Q 1025 1406 1450 917 
Q 1875 428 2675 428 
Q 3081 428 3442 575 
Q 3803 722 4122 1019 
L 4122 359 
Q 3791 134 3420 21 
Q 3050 -91 2638 -91 
Q 1578 -91 968 557 
Q 359 1206 359 2328 
Q 359 3453 968 4101 
Q 1578 4750 2638 4750 
Q 3056 4750 3426 4639 
Q 3797 4528 4122 4306 
z
" transform="scale(0.015625)"/>
      <path id="DejaVuSans-6c" d="M 603 4863 
L 1178 4863 
L 1178 0 
L 603 0 
L 603 4863 
z
" transform="scale(0.015625)"/>
      <path id="DejaVuSans-6f" d="M 1959 3097 
Q 1497 3097 1228 2736 
Q 959 2375 959 1747 
Q 959 1119 1226 758 
Q 1494 397 1959 397 
Q 2419 397 2687 759 
Q 2956 1122 2956 1747 
Q 2956 2369 2687 2733 
Q 2419 3097 1959 3097 
z
M 1959 3584 
Q 2709 3584 3137 3096 
Q 3566 2609 3566 1747 
Q 3566 888 3137 398 
Q 2709 -91 1959 -91 
Q 1206 -91 779 398 
Q 353 888 353 1747 
Q 353 2609 779 3096 
Q 1206 3584 1959 3584 
z
" transform="scale(0.015625)"/>
      <path id="DejaVuSans-73" d="M 2834 3397 
L 2834 2853 
Q 2591 2978 2328 3040 
Q 2066 3103 1784 3103 
Q 1356 3103 1142 2972 
Q 928 2841 928 2578 
Q 928 2378 1081 2264 
Q 1234 2150 1697 2047 
L 1894 2003 
Q 2506 1872 2764 1633 
Q 3022 1394 3022 966 
Q 3022 478 2636 193 
Q 2250 -91 1575 -91 
Q 1294 -91 989 -36 
Q 684 19 347 128 
L 347 722 
Q 666 556 975 473 
Q 1284 391 1588 391 
Q 1994 391 2212 530 
Q 2431 669 2431 922 
Q 2431 1156 2273 1281 
Q 2116 1406 1581 1522 
L 1381 1569 
Q 847 1681 609 1914 
Q 372 2147 372 2553 
Q 372 3047 722 3315 
Q 1072 3584 1716 3584 
Q 2034 3584 2315 3537 
Q 2597 3491 2834 3397 
z
" transform="scale(0.015625)"/>
      <path id="DejaVuSans-69" d="M 603 3500 
L 1178 3500 
L 1178 0 
L 603 0 
L 603 3500 
z
M 603 4863 
L 1178 4863 
L 1178 4134 
L 603 4134 
L 603 4863 
z
" transform="scale(0.015625)"/>
      <path id="DejaVuSans-6e" d="M 3513 2113 
L 3513 0 
L 2938 0 
L 2938 2094 
Q 2938 2591 2744 2837 
Q 2550 3084 2163 3084 
Q 1697 3084 1428 2787 
Q 1159 2491 1159 1978 
L 1159 0 
L 581 0 
L 581 3500 
L 1159 3500 
L 1159 2956 
Q 1366 3272 1645 3428 
Q 1925 3584 2291 3584 
Q 2894 3584 3203 3211 
Q 3513 2838 3513 2113 
z
" transform="scale(0.015625)"/>
      <path id="DejaVuSans-67" d="M 2906 1791 
Q 2906 2416 2648 2759 
Q 2391 3103 1925 3103 
Q 1463 3103 1205 2759 
Q 947 2416 947 1791 
Q 947 1169 1205 825 
Q 1463 481 1925 481 
Q 2391 481 2648 825 
Q 2906 1169 2906 1791 
z
M 3481 434 
Q 3481 -459 3084 -895 
Q 2688 -1331 1869 -1331 
Q 1566 -1331 1297 -1286 
Q 1028 -1241 775 -1147 
L 775 -588 
Q 1028 -725 1275 -790 
Q 1522 -856 1778 -856 
Q 2344 -856 2625 -561 
Q 2906 -266 2906 331 
L 2906 616 
Q 2728 306 2450 153 
Q 2172 0 1784 0 
Q 1141 0 747 490 
Q 353 981 353 1791 
Q 353 2603 747 3093 
Q 1141 3584 1784 3584 
Q 2172 3584 2450 3431 
Q 2728 3278 2906 2969 
L 2906 3500 
L 3481 3500 
L 3481 434 
z
" transform="scale(0.015625)"/>
      <path id="DejaVuSans-20" transform="scale(0.015625)"/>
      <path id="DejaVuSans-50" d="M 1259 4147 
L 1259 2394 
L 2053 2394 
Q 2494 2394 2734 2622 
Q 2975 2850 2975 3272 
Q 2975 3691 2734 3919 
Q 2494 4147 2053 4147 
L 1259 4147 
z
M 628 4666 
L 2053 4666 
Q 2838 4666 3239 4311 
Q 3641 3956 3641 3272 
Q 3641 2581 3239 2228 
Q 2838 1875 2053 1875 
L 1259 1875 
L 1259 0 
L 628 0 
L 628 4666 
z
" transform="scale(0.015625)"/>
      <path id="DejaVuSans-72" d="M 2631 2963 
Q 2534 3019 2420 3045 
Q 2306 3072 2169 3072 
Q 1681 3072 1420 2755 
Q 1159 2438 1159 1844 
L 1159 0 
L 581 0 
L 581 3500 
L 1159 3500 
L 1159 2956 
Q 1341 3275 1631 3429 
Q 1922 3584 2338 3584 
Q 2397 3584 2469 3576 
Q 2541 3569 2628 3553 
L 2631 2963 
z
" transform="scale(0.015625)"/>
      <path id="DejaVuSans-63" d="M 3122 3366 
L 3122 2828 
Q 2878 2963 2633 3030 
Q 2388 3097 2138 3097 
Q 1578 3097 1268 2742 
Q 959 2388 959 1747 
Q 959 1106 1268 751 
Q 1578 397 2138 397 
Q 2388 397 2633 464 
Q 2878 531 3122 666 
L 3122 134 
Q 2881 22 2623 -34 
Q 2366 -91 2075 -91 
Q 1284 -91 818 406 
Q 353 903 353 1747 
Q 353 2603 823 3093 
Q 1294 3584 2113 3584 
Q 2378 3584 2631 3529 
Q 2884 3475 3122 3366 
z
" transform="scale(0.015625)"/>
      <path id="DejaVuSans-65" d="M 3597 1894 
L 3597 1613 
L 953 1613 
Q 991 1019 1311 708 
Q 1631 397 2203 397 
Q 2534 397 2845 478 
Q 3156 559 3463 722 
L 3463 178 
Q 3153 47 2828 -22 
Q 2503 -91 2169 -91 
Q 1331 -91 842 396 
Q 353 884 353 1716 
Q 353 2575 817 3079 
Q 1281 3584 2069 3584 
Q 2775 3584 3186 3129 
Q 3597 2675 3597 1894 
z
M 3022 2063 
Q 3016 2534 2758 2815 
Q 2500 3097 2075 3097 
Q 1594 3097 1305 2825 
Q 1016 2553 972 2059 
L 3022 2063 
z
" transform="scale(0.015625)"/>
     </defs>
     <use xlink:href="#DejaVuSans-43"/>
     <use xlink:href="#DejaVuSans-6c" x="69.824219"/>
     <use xlink:href="#DejaVuSans-6f" x="97.607422"/>
     <use xlink:href="#DejaVuSans-73" x="158.789062"/>
     <use xlink:href="#DejaVuSans-69" x="210.888672"/>
     <use xlink:href="#DejaVuSans-6e" x="238.671875"/>
     <use xlink:href="#DejaVuSans-67" x="302.050781"/>
     <use xlink:href="#DejaVuSans-20" x="365.527344"/>
     <use xlink:href="#DejaVuSans-50" x="397.314453"/>
     <use xlink:href="#DejaVuSans-72" x="455.867188"/>
     <use xlink:href="#DejaVuSans-69" x="496.980469"/>
     <use xlink:href="#DejaVuSans-63" x="524.763672"/>
     <use xlink:href="#DejaVuSans-65" x="579.744141"/>
    </g>
   </g>
   <g id="legend_1">
    <g id="patch_7">
     <path d="M 911.144856 85.688125 
L 975.876106 85.688125 
Q 977.876106 85.688125 977.876106 83.688125 
L 977.876106 55.331875 
Q 977.876106 53.331875 975.876106 53.331875 
L 911.144856 53.331875 
Q 909.144856 53.331875 909.144856 55.331875 
L 909.144856 83.688125 
Q 909.144856 85.688125 911.144856 85.688125 
z
" style="fill: #ffffff; opacity: 0.8; stroke: #cccccc; stroke-linejoin: miter"/>
    </g>
    <g id="line2d_39">
     <path d="M 913.144856 61.430312 
L 923.144856 61.430312 
L 933.144856 61.430312 
" style="fill: none; stroke: #1f77b4; stroke-width: 1.5; stroke-linecap: square"/>
    </g>
    <g id="text_8">
     <!-- CLOSE -->
     <g transform="translate(941.144856 64.930312)scale(0.1 -0.1)">
      <defs>
       <path id="DejaVuSans-4c" d="M 628 4666 
L 1259 4666 
L 1259 531 
L 3531 531 
L 3531 0 
L 628 0 
L 628 4666 
z
" transform="scale(0.015625)"/>
       <path id="DejaVuSans-4f" d="M 2522 4238 
Q 1834 4238 1429 3725 
Q 1025 3213 1025 2328 
Q 1025 1447 1429 934 
Q 1834 422 2522 422 
Q 3209 422 3611 934 
Q 4013 1447 4013 2328 
Q 4013 3213 3611 3725 
Q 3209 4238 2522 4238 
z
M 2522 4750 
Q 3503 4750 4090 4092 
Q 4678 3434 4678 2328 
Q 4678 1225 4090 567 
Q 3503 -91 2522 -91 
Q 1538 -91 948 565 
Q 359 1222 359 2328 
Q 359 3434 948 4092 
Q 1538 4750 2522 4750 
z
" transform="scale(0.015625)"/>
       <path id="DejaVuSans-53" d="M 3425 4513 
L 3425 3897 
Q 3066 4069 2747 4153 
Q 2428 4238 2131 4238 
Q 1616 4238 1336 4038 
Q 1056 3838 1056 3469 
Q 1056 3159 1242 3001 
Q 1428 2844 1947 2747 
L 2328 2669 
Q 3034 2534 3370 2195 
Q 3706 1856 3706 1288 
Q 3706 609 3251 259 
Q 2797 -91 1919 -91 
Q 1588 -91 1214 -16 
Q 841 59 441 206 
L 441 856 
Q 825 641 1194 531 
Q 1563 422 1919 422 
Q 2459 422 2753 634 
Q 3047 847 3047 1241 
Q 3047 1584 2836 1778 
Q 2625 1972 2144 2069 
L 1759 2144 
Q 1053 2284 737 2584 
Q 422 2884 422 3419 
Q 422 4038 858 4394 
Q 1294 4750 2059 4750 
Q 2388 4750 2728 4690 
Q 3069 4631 3425 4513 
z
" transform="scale(0.015625)"/>
       <path id="DejaVuSans-45" d="M 628 4666 
L 3578 4666 
L 3578 4134 
L 1259 4134 
L 1259 2753 
L 3481 2753 
L 3481 2222 
L 1259 2222 
L 1259 531 
L 3634 531 
L 3634 0 
L 628 0 
L 628 4666 
z
" transform="scale(0.015625)"/>
      </defs>
      <use xlink:href="#DejaVuSans-43"/>
      <use xlink:href="#DejaVuSans-4c" x="69.824219"/>
      <use xlink:href="#DejaVuSans-4f" x="121.912109"/>
      <use xlink:href="#DejaVuSans-53" x="200.623047"/>
      <use xlink:href="#DejaVuSans-45" x="264.099609"/>
     </g>
    </g>
    <g id="line2d_40">
     <path d="M 913.144856 76.108437 
L 923.144856 76.108437 
L 933.144856 76.108437 
" style="fill: none; stroke: #ff7f0e; stroke-width: 1.5; stroke-linecap: square"/>
    </g>
    <g id="text_9">
     <!-- SMA5 -->
     <g transform="translate(941.144856 79.608437)scale(0.1 -0.1)">
      <defs>
       <path id="DejaVuSans-4d" d="M 628 4666 
L 1569 4666 
L 2759 1491 
L 3956 4666 
L 4897 4666 
L 4897 0 
L 4281 0 
L 4281 4097 
L 3078 897 
L 2444 897 
L 1241 4097 
L 1241 0 
L 628 0 
L 628 4666 
z
" transform="scale(0.015625)"/>
       <path id="DejaVuSans-41" d="M 2188 4044 
L 1331 1722 
L 3047 1722 
L 2188 4044 
z
M 1831 4666 
L 2547 4666 
L 4325 0 
L 3669 0 
L 3244 1197 
L 1141 1197 
L 716 0 
L 50 0 
L 1831 4666 
z
" transform="scale(0.015625)"/>
       <path id="DejaVuSans-35" d="M 691 4666 
L 3169 4666 
L 3169 4134 
L 1269 4134 
L 1269 2991 
Q 1406 3038 1543 3061 
Q 1681 3084 1819 3084 
Q 2600 3084 3056 2656 
Q 3513 2228 3513 1497 
Q 3513 744 3044 326 
Q 2575 -91 1722 -91 
Q 1428 -91 1123 -41 
Q 819 9 494 109 
L 494 744 
Q 775 591 1075 516 
Q 1375 441 1709 441 
Q 2250 441 2565 725 
Q 2881 1009 2881 1497 
Q 2881 1984 2565 2268 
Q 2250 2553 1709 2553 
Q 1456 2553 1204 2497 
Q 953 2441 691 2322 
L 691 4666 
z
" transform="scale(0.015625)"/>
      </defs>
      <use xlink:href="#DejaVuSans-53"/>
      <use xlink:href="#DejaVuSans-4d" x="63.476562"/>
      <use xlink:href="#DejaVuSans-41" x="149.755859"/>
      <use xlink:href="#DejaVuSans-35" x="218.164062"/>
     </g>
    </g>
   </g>
  </g>
  <g id="axes_2">
   <g id="patch_8">
    <path d="M 51.629688 584.521875 
L 982.876106 584.521875 
L 982.876106 331.135938 
L 51.629688 331.135938 
z
" style="fill: #ffffff"/>
   </g>
   <g id="matplotlib.axis_3">
    <g id="xtick_13">
     <g id="line2d_41">
      <path d="M 88.651311 584.521875 
L 88.651311 331.135938 
" clip-path="url(#pe6ad29c6c3)" style="fill: none; stroke-dasharray: 2.96,1.28; stroke-dashoffset: 0; stroke: #b0b0b0; stroke-width: 0.8"/>
     </g>
     <g id="line2d_42">
      <g>
       <use xlink:href="#m97cfb51be1" x="88.651311" y="584.521875" style="stroke: #000000; stroke-width: 0.8"/>
      </g>
     </g>
     <g id="text_10">
      <!-- 2022-01 -->
      <g transform="translate(67.759904 599.120312)scale(0.1 -0.1)">
       <defs>
        <path id="DejaVuSans-2d" d="M 313 2009 
L 1997 2009 
L 1997 1497 
L 313 1497 
L 313 2009 
z
" transform="scale(0.015625)"/>
       </defs>
       <use xlink:href="#DejaVuSans-32"/>
       <use xlink:href="#DejaVuSans-30" x="63.623047"/>
       <use xlink:href="#DejaVuSans-32" x="127.246094"/>
       <use xlink:href="#DejaVuSans-32" x="190.869141"/>
       <use xlink:href="#DejaVuSans-2d" x="254.492188"/>
       <use xlink:href="#DejaVuSans-30" x="290.576172"/>
       <use xlink:href="#DejaVuSans-31" x="354.199219"/>
      </g>
     </g>
    </g>
    <g id="xtick_14">
     <g id="line2d_43">
      <path d="M 170.921584 584.521875 
L 170.921584 331.135938 
" clip-path="url(#pe6ad29c6c3)" style="fill: none; stroke-dasharray: 2.96,1.28; stroke-dashoffset: 0; stroke: #b0b0b0; stroke-width: 0.8"/>
     </g>
     <g id="line2d_44">
      <g>
       <use xlink:href="#m97cfb51be1" x="170.921584" y="584.521875" style="stroke: #000000; stroke-width: 0.8"/>
      </g>
     </g>
     <g id="text_11">
      <!-- 2022-02 -->
      <g transform="translate(150.030178 599.120312)scale(0.1 -0.1)">
       <use xlink:href="#DejaVuSans-32"/>
       <use xlink:href="#DejaVuSans-30" x="63.623047"/>
       <use xlink:href="#DejaVuSans-32" x="127.246094"/>
       <use xlink:href="#DejaVuSans-32" x="190.869141"/>
       <use xlink:href="#DejaVuSans-2d" x="254.492188"/>
       <use xlink:href="#DejaVuSans-30" x="290.576172"/>
       <use xlink:href="#DejaVuSans-32" x="354.199219"/>
      </g>
     </g>
    </g>
    <g id="xtick_15">
     <g id="line2d_45">
      <path d="M 245.230218 584.521875 
L 245.230218 331.135938 
" clip-path="url(#pe6ad29c6c3)" style="fill: none; stroke-dasharray: 2.96,1.28; stroke-dashoffset: 0; stroke: #b0b0b0; stroke-width: 0.8"/>
     </g>
     <g id="line2d_46">
      <g>
       <use xlink:href="#m97cfb51be1" x="245.230218" y="584.521875" style="stroke: #000000; stroke-width: 0.8"/>
      </g>
     </g>
     <g id="text_12">
      <!-- 2022-03 -->
      <g transform="translate(224.338812 599.120312)scale(0.1 -0.1)">
       <defs>
        <path id="DejaVuSans-33" d="M 2597 2516 
Q 3050 2419 3304 2112 
Q 3559 1806 3559 1356 
Q 3559 666 3084 287 
Q 2609 -91 1734 -91 
Q 1441 -91 1130 -33 
Q 819 25 488 141 
L 488 750 
Q 750 597 1062 519 
Q 1375 441 1716 441 
Q 2309 441 2620 675 
Q 2931 909 2931 1356 
Q 2931 1769 2642 2001 
Q 2353 2234 1838 2234 
L 1294 2234 
L 1294 2753 
L 1863 2753 
Q 2328 2753 2575 2939 
Q 2822 3125 2822 3475 
Q 2822 3834 2567 4026 
Q 2313 4219 1838 4219 
Q 1578 4219 1281 4162 
Q 984 4106 628 3988 
L 628 4550 
Q 988 4650 1302 4700 
Q 1616 4750 1894 4750 
Q 2613 4750 3031 4423 
Q 3450 4097 3450 3541 
Q 3450 3153 3228 2886 
Q 3006 2619 2597 2516 
z
" transform="scale(0.015625)"/>
       </defs>
       <use xlink:href="#DejaVuSans-32"/>
       <use xlink:href="#DejaVuSans-30" x="63.623047"/>
       <use xlink:href="#DejaVuSans-32" x="127.246094"/>
       <use xlink:href="#DejaVuSans-32" x="190.869141"/>
       <use xlink:href="#DejaVuSans-2d" x="254.492188"/>
       <use xlink:href="#DejaVuSans-30" x="290.576172"/>
       <use xlink:href="#DejaVuSans-33" x="354.199219"/>
      </g>
     </g>
    </g>
    <g id="xtick_16">
     <g id="line2d_47">
      <path d="M 327.500492 584.521875 
L 327.500492 331.135938 
" clip-path="url(#pe6ad29c6c3)" style="fill: none; stroke-dasharray: 2.96,1.28; stroke-dashoffset: 0; stroke: #b0b0b0; stroke-width: 0.8"/>
     </g>
     <g id="line2d_48">
      <g>
       <use xlink:href="#m97cfb51be1" x="327.500492" y="584.521875" style="stroke: #000000; stroke-width: 0.8"/>
      </g>
     </g>
     <g id="text_13">
      <!-- 2022-04 -->
      <g transform="translate(306.609085 599.120312)scale(0.1 -0.1)">
       <use xlink:href="#DejaVuSans-32"/>
       <use xlink:href="#DejaVuSans-30" x="63.623047"/>
       <use xlink:href="#DejaVuSans-32" x="127.246094"/>
       <use xlink:href="#DejaVuSans-32" x="190.869141"/>
       <use xlink:href="#DejaVuSans-2d" x="254.492188"/>
       <use xlink:href="#DejaVuSans-30" x="290.576172"/>
       <use xlink:href="#DejaVuSans-34" x="354.199219"/>
      </g>
     </g>
    </g>
    <g id="xtick_17">
     <g id="line2d_49">
      <path d="M 407.116885 584.521875 
L 407.116885 331.135938 
" clip-path="url(#pe6ad29c6c3)" style="fill: none; stroke-dasharray: 2.96,1.28; stroke-dashoffset: 0; stroke: #b0b0b0; stroke-width: 0.8"/>
     </g>
     <g id="line2d_50">
      <g>
       <use xlink:href="#m97cfb51be1" x="407.116885" y="584.521875" style="stroke: #000000; stroke-width: 0.8"/>
      </g>
     </g>
     <g id="text_14">
      <!-- 2022-05 -->
      <g transform="translate(386.225479 599.120312)scale(0.1 -0.1)">
       <use xlink:href="#DejaVuSans-32"/>
       <use xlink:href="#DejaVuSans-30" x="63.623047"/>
       <use xlink:href="#DejaVuSans-32" x="127.246094"/>
       <use xlink:href="#DejaVuSans-32" x="190.869141"/>
       <use xlink:href="#DejaVuSans-2d" x="254.492188"/>
       <use xlink:href="#DejaVuSans-30" x="290.576172"/>
       <use xlink:href="#DejaVuSans-35" x="354.199219"/>
      </g>
     </g>
    </g>
    <g id="xtick_18">
     <g id="line2d_51">
      <path d="M 489.387159 584.521875 
L 489.387159 331.135938 
" clip-path="url(#pe6ad29c6c3)" style="fill: none; stroke-dasharray: 2.96,1.28; stroke-dashoffset: 0; stroke: #b0b0b0; stroke-width: 0.8"/>
     </g>
     <g id="line2d_52">
      <g>
       <use xlink:href="#m97cfb51be1" x="489.387159" y="584.521875" style="stroke: #000000; stroke-width: 0.8"/>
      </g>
     </g>
     <g id="text_15">
      <!-- 2022-06 -->
      <g transform="translate(468.495753 599.120312)scale(0.1 -0.1)">
       <use xlink:href="#DejaVuSans-32"/>
       <use xlink:href="#DejaVuSans-30" x="63.623047"/>
       <use xlink:href="#DejaVuSans-32" x="127.246094"/>
       <use xlink:href="#DejaVuSans-32" x="190.869141"/>
       <use xlink:href="#DejaVuSans-2d" x="254.492188"/>
       <use xlink:href="#DejaVuSans-30" x="290.576172"/>
       <use xlink:href="#DejaVuSans-36" x="354.199219"/>
      </g>
     </g>
    </g>
    <g id="xtick_19">
     <g id="line2d_53">
      <path d="M 569.003553 584.521875 
L 569.003553 331.135938 
" clip-path="url(#pe6ad29c6c3)" style="fill: none; stroke-dasharray: 2.96,1.28; stroke-dashoffset: 0; stroke: #b0b0b0; stroke-width: 0.8"/>
     </g>
     <g id="line2d_54">
      <g>
       <use xlink:href="#m97cfb51be1" x="569.003553" y="584.521875" style="stroke: #000000; stroke-width: 0.8"/>
      </g>
     </g>
     <g id="text_16">
      <!-- 2022-07 -->
      <g transform="translate(548.112146 599.120312)scale(0.1 -0.1)">
       <defs>
        <path id="DejaVuSans-37" d="M 525 4666 
L 3525 4666 
L 3525 4397 
L 1831 0 
L 1172 0 
L 2766 4134 
L 525 4134 
L 525 4666 
z
" transform="scale(0.015625)"/>
       </defs>
       <use xlink:href="#DejaVuSans-32"/>
       <use xlink:href="#DejaVuSans-30" x="63.623047"/>
       <use xlink:href="#DejaVuSans-32" x="127.246094"/>
       <use xlink:href="#DejaVuSans-32" x="190.869141"/>
       <use xlink:href="#DejaVuSans-2d" x="254.492188"/>
       <use xlink:href="#DejaVuSans-30" x="290.576172"/>
       <use xlink:href="#DejaVuSans-37" x="354.199219"/>
      </g>
     </g>
    </g>
    <g id="xtick_20">
     <g id="line2d_55">
      <path d="M 651.273826 584.521875 
L 651.273826 331.135938 
" clip-path="url(#pe6ad29c6c3)" style="fill: none; stroke-dasharray: 2.96,1.28; stroke-dashoffset: 0; stroke: #b0b0b0; stroke-width: 0.8"/>
     </g>
     <g id="line2d_56">
      <g>
       <use xlink:href="#m97cfb51be1" x="651.273826" y="584.521875" style="stroke: #000000; stroke-width: 0.8"/>
      </g>
     </g>
     <g id="text_17">
      <!-- 2022-08 -->
      <g transform="translate(630.38242 599.120312)scale(0.1 -0.1)">
       <use xlink:href="#DejaVuSans-32"/>
       <use xlink:href="#DejaVuSans-30" x="63.623047"/>
       <use xlink:href="#DejaVuSans-32" x="127.246094"/>
       <use xlink:href="#DejaVuSans-32" x="190.869141"/>
       <use xlink:href="#DejaVuSans-2d" x="254.492188"/>
       <use xlink:href="#DejaVuSans-30" x="290.576172"/>
       <use xlink:href="#DejaVuSans-38" x="354.199219"/>
      </g>
     </g>
    </g>
    <g id="xtick_21">
     <g id="line2d_57">
      <path d="M 733.5441 584.521875 
L 733.5441 331.135938 
" clip-path="url(#pe6ad29c6c3)" style="fill: none; stroke-dasharray: 2.96,1.28; stroke-dashoffset: 0; stroke: #b0b0b0; stroke-width: 0.8"/>
     </g>
     <g id="line2d_58">
      <g>
       <use xlink:href="#m97cfb51be1" x="733.5441" y="584.521875" style="stroke: #000000; stroke-width: 0.8"/>
      </g>
     </g>
     <g id="text_18">
      <!-- 2022-09 -->
      <g transform="translate(712.652693 599.120312)scale(0.1 -0.1)">
       <defs>
        <path id="DejaVuSans-39" d="M 703 97 
L 703 672 
Q 941 559 1184 500 
Q 1428 441 1663 441 
Q 2288 441 2617 861 
Q 2947 1281 2994 2138 
Q 2813 1869 2534 1725 
Q 2256 1581 1919 1581 
Q 1219 1581 811 2004 
Q 403 2428 403 3163 
Q 403 3881 828 4315 
Q 1253 4750 1959 4750 
Q 2769 4750 3195 4129 
Q 3622 3509 3622 2328 
Q 3622 1225 3098 567 
Q 2575 -91 1691 -91 
Q 1453 -91 1209 -44 
Q 966 3 703 97 
z
M 1959 2075 
Q 2384 2075 2632 2365 
Q 2881 2656 2881 3163 
Q 2881 3666 2632 3958 
Q 2384 4250 1959 4250 
Q 1534 4250 1286 3958 
Q 1038 3666 1038 3163 
Q 1038 2656 1286 2365 
Q 1534 2075 1959 2075 
z
" transform="scale(0.015625)"/>
       </defs>
       <use xlink:href="#DejaVuSans-32"/>
       <use xlink:href="#DejaVuSans-30" x="63.623047"/>
       <use xlink:href="#DejaVuSans-32" x="127.246094"/>
       <use xlink:href="#DejaVuSans-32" x="190.869141"/>
       <use xlink:href="#DejaVuSans-2d" x="254.492188"/>
       <use xlink:href="#DejaVuSans-30" x="290.576172"/>
       <use xlink:href="#DejaVuSans-39" x="354.199219"/>
      </g>
     </g>
    </g>
    <g id="xtick_22">
     <g id="line2d_59">
      <path d="M 813.160493 584.521875 
L 813.160493 331.135938 
" clip-path="url(#pe6ad29c6c3)" style="fill: none; stroke-dasharray: 2.96,1.28; stroke-dashoffset: 0; stroke: #b0b0b0; stroke-width: 0.8"/>
     </g>
     <g id="line2d_60">
      <g>
       <use xlink:href="#m97cfb51be1" x="813.160493" y="584.521875" style="stroke: #000000; stroke-width: 0.8"/>
      </g>
     </g>
     <g id="text_19">
      <!-- 2022-10 -->
      <g transform="translate(792.269087 599.120312)scale(0.1 -0.1)">
       <use xlink:href="#DejaVuSans-32"/>
       <use xlink:href="#DejaVuSans-30" x="63.623047"/>
       <use xlink:href="#DejaVuSans-32" x="127.246094"/>
       <use xlink:href="#DejaVuSans-32" x="190.869141"/>
       <use xlink:href="#DejaVuSans-2d" x="254.492188"/>
       <use xlink:href="#DejaVuSans-31" x="290.576172"/>
       <use xlink:href="#DejaVuSans-30" x="354.199219"/>
      </g>
     </g>
    </g>
    <g id="xtick_23">
     <g id="line2d_61">
      <path d="M 895.430767 584.521875 
L 895.430767 331.135938 
" clip-path="url(#pe6ad29c6c3)" style="fill: none; stroke-dasharray: 2.96,1.28; stroke-dashoffset: 0; stroke: #b0b0b0; stroke-width: 0.8"/>
     </g>
     <g id="line2d_62">
      <g>
       <use xlink:href="#m97cfb51be1" x="895.430767" y="584.521875" style="stroke: #000000; stroke-width: 0.8"/>
      </g>
     </g>
     <g id="text_20">
      <!-- 2022-11 -->
      <g transform="translate(874.539361 599.120312)scale(0.1 -0.1)">
       <use xlink:href="#DejaVuSans-32"/>
       <use xlink:href="#DejaVuSans-30" x="63.623047"/>
       <use xlink:href="#DejaVuSans-32" x="127.246094"/>
       <use xlink:href="#DejaVuSans-32" x="190.869141"/>
       <use xlink:href="#DejaVuSans-2d" x="254.492188"/>
       <use xlink:href="#DejaVuSans-31" x="290.576172"/>
       <use xlink:href="#DejaVuSans-31" x="354.199219"/>
      </g>
     </g>
    </g>
    <g id="xtick_24">
     <g id="line2d_63">
      <path d="M 975.04716 584.521875 
L 975.04716 331.135938 
" clip-path="url(#pe6ad29c6c3)" style="fill: none; stroke-dasharray: 2.96,1.28; stroke-dashoffset: 0; stroke: #b0b0b0; stroke-width: 0.8"/>
     </g>
     <g id="line2d_64">
      <g>
       <use xlink:href="#m97cfb51be1" x="975.04716" y="584.521875" style="stroke: #000000; stroke-width: 0.8"/>
      </g>
     </g>
     <g id="text_21">
      <!-- 2022-12 -->
      <g transform="translate(954.155754 599.120312)scale(0.1 -0.1)">
       <use xlink:href="#DejaVuSans-32"/>
       <use xlink:href="#DejaVuSans-30" x="63.623047"/>
       <use xlink:href="#DejaVuSans-32" x="127.246094"/>
       <use xlink:href="#DejaVuSans-32" x="190.869141"/>
       <use xlink:href="#DejaVuSans-2d" x="254.492188"/>
       <use xlink:href="#DejaVuSans-31" x="290.576172"/>
       <use xlink:href="#DejaVuSans-32" x="354.199219"/>
      </g>
     </g>
    </g>
   </g>
   <g id="matplotlib.axis_4">
    <g id="ytick_7">
     <g id="line2d_65">
      <path d="M 51.629688 549.707781 
L 982.876106 549.707781 
" clip-path="url(#pe6ad29c6c3)" style="fill: none; stroke-dasharray: 2.96,1.28; stroke-dashoffset: 0; stroke: #b0b0b0; stroke-width: 0.8"/>
     </g>
     <g id="line2d_66">
      <g>
       <use xlink:href="#mb36b15effd" x="51.629688" y="549.707781" style="stroke: #000000; stroke-width: 0.8"/>
      </g>
     </g>
     <g id="text_22">
      <!-- −1000 -->
      <g transform="translate(10.8 553.507)scale(0.1 -0.1)">
       <defs>
        <path id="DejaVuSans-2212" d="M 678 2272 
L 4684 2272 
L 4684 1741 
L 678 1741 
L 678 2272 
z
" transform="scale(0.015625)"/>
       </defs>
       <use xlink:href="#DejaVuSans-2212"/>
       <use xlink:href="#DejaVuSans-31" x="83.789062"/>
       <use xlink:href="#DejaVuSans-30" x="147.412109"/>
       <use xlink:href="#DejaVuSans-30" x="211.035156"/>
       <use xlink:href="#DejaVuSans-30" x="274.658203"/>
      </g>
     </g>
    </g>
    <g id="ytick_8">
     <g id="line2d_67">
      <path d="M 51.629688 493.508124 
L 982.876106 493.508124 
" clip-path="url(#pe6ad29c6c3)" style="fill: none; stroke-dasharray: 2.96,1.28; stroke-dashoffset: 0; stroke: #b0b0b0; stroke-width: 0.8"/>
     </g>
     <g id="line2d_68">
      <g>
       <use xlink:href="#mb36b15effd" x="51.629688" y="493.508124" style="stroke: #000000; stroke-width: 0.8"/>
      </g>
     </g>
     <g id="text_23">
      <!-- −500 -->
      <g transform="translate(17.1625 497.307342)scale(0.1 -0.1)">
       <use xlink:href="#DejaVuSans-2212"/>
       <use xlink:href="#DejaVuSans-35" x="83.789062"/>
       <use xlink:href="#DejaVuSans-30" x="147.412109"/>
       <use xlink:href="#DejaVuSans-30" x="211.035156"/>
      </g>
     </g>
    </g>
    <g id="ytick_9">
     <g id="line2d_69">
      <path d="M 51.629688 437.308466 
L 982.876106 437.308466 
" clip-path="url(#pe6ad29c6c3)" style="fill: none; stroke-dasharray: 2.96,1.28; stroke-dashoffset: 0; stroke: #b0b0b0; stroke-width: 0.8"/>
     </g>
     <g id="line2d_70">
      <g>
       <use xlink:href="#mb36b15effd" x="51.629688" y="437.308466" style="stroke: #000000; stroke-width: 0.8"/>
      </g>
     </g>
     <g id="text_24">
      <!-- 0 -->
      <g transform="translate(38.267188 441.107684)scale(0.1 -0.1)">
       <use xlink:href="#DejaVuSans-30"/>
      </g>
     </g>
    </g>
    <g id="ytick_10">
     <g id="line2d_71">
      <path d="M 51.629688 381.108808 
L 982.876106 381.108808 
" clip-path="url(#pe6ad29c6c3)" style="fill: none; stroke-dasharray: 2.96,1.28; stroke-dashoffset: 0; stroke: #b0b0b0; stroke-width: 0.8"/>
     </g>
     <g id="line2d_72">
      <g>
       <use xlink:href="#mb36b15effd" x="51.629688" y="381.108808" style="stroke: #000000; stroke-width: 0.8"/>
      </g>
     </g>
     <g id="text_25">
      <!-- 500 -->
      <g transform="translate(25.542188 384.908026)scale(0.1 -0.1)">
       <use xlink:href="#DejaVuSans-35"/>
       <use xlink:href="#DejaVuSans-30" x="63.623047"/>
       <use xlink:href="#DejaVuSans-30" x="127.246094"/>
      </g>
     </g>
    </g>
   </g>
   <g id="line2d_73">
    <path d="M 93.95907 437.308466 
L 96.61295 438.048104 
L 99.26683 437.342765 
L 101.92071 439.807438 
L 104.574589 438.776379 
L 112.536229 438.615375 
L 115.190108 438.013519 
L 117.843988 439.325545 
L 120.497868 439.423808 
L 131.113387 434.457375 
L 133.767267 434.180382 
L 136.421147 438.799327 
L 139.075027 444.386353 
L 141.728906 455.413908 
L 149.690546 468.436986 
L 152.344426 476.754206 
L 157.652185 486.435985 
L 160.306065 492.104421 
L 168.267704 494.768797 
L 170.921584 487.047482 
L 173.575464 482.167217 
L 176.229344 481.397921 
L 178.883223 480.873856 
L 186.844863 478.84862 
L 189.498743 477.58672 
L 192.152622 470.538765 
L 194.806502 466.414059 
L 197.460382 465.669721 
L 205.422021 475.462724 
L 208.075901 471.81813 
L 210.729781 468.512076 
L 213.383661 467.169781 
L 216.03754 468.908466 
L 223.99918 467.137982 
L 226.65306 467.81561 
L 229.306939 466.214109 
L 231.960819 476.999084 
L 234.614699 477.871541 
L 242.576338 474.385968 
L 247.884098 475.384514 
L 253.191858 494.87819 
L 261.153497 506.596684 
L 263.807377 509.812068 
L 266.461257 516.902953 
L 269.115136 519.508498 
L 271.769016 518.883121 
L 279.730655 517.751369 
L 282.384535 512.086475 
L 285.038415 499.797575 
L 287.692295 485.097231 
L 298.307814 479.213675 
L 300.961694 474.276631 
L 303.615574 469.634233 
L 306.269453 466.863338 
L 308.923333 464.482971 
L 316.884973 462.85628 
L 319.538852 457.313276 
L 322.192732 448.801764 
L 324.846612 442.505589 
L 327.500492 432.352159 
L 335.462131 423.09982 
L 338.116011 412.51451 
L 340.769891 408.291169 
L 343.42377 405.228848 
L 346.07765 398.574642 
L 354.03929 394.311895 
L 356.693169 392.185632 
L 359.347049 388.88362 
L 372.616448 386.207661 
L 375.270328 389.825838 
L 377.924208 385.579849 
L 380.578087 379.779996 
L 383.231967 377.691727 
L 391.193607 378.574351 
L 393.847486 375.269314 
L 396.501366 378.723369 
L 401.809126 380.210838 
L 409.770765 378.708388 
L 415.078525 387.478974 
L 417.732405 395.857026 
L 420.386284 412.876384 
L 428.347924 425.73091 
L 431.001804 433.764075 
L 433.655683 448.322491 
L 436.309563 466.364443 
L 438.963443 480.724332 
L 446.925082 496.716022 
L 449.578962 508.0756 
L 452.232842 511.998334 
L 457.540601 521.536845 
L 465.502241 524.841972 
L 468.156121 529.071087 
L 470.81 534.865925 
L 473.46388 534.374216 
L 476.11776 530.768988 
L 484.079399 522.099072 
L 486.733279 517.424209 
L 489.387159 515.759739 
L 492.041039 514.966594 
L 494.694918 522.394562 
L 502.656558 532.939156 
L 505.310438 542.058571 
L 507.964317 549.817222 
L 510.618197 558.071692 
L 513.272077 563.334254 
L 521.233716 566.408366 
L 523.887596 566.689369 
L 526.541476 564.490616 
L 529.195356 566.718574 
L 531.849236 572.96094 
L 539.810875 573.004332 
L 542.464755 570.260534 
L 545.118634 567.085191 
L 547.772514 562.788054 
L 550.426394 555.6599 
L 558.388033 545.966383 
L 563.695793 525.604548 
L 566.349673 519.873532 
L 569.003553 512.612596 
L 576.965192 505.360947 
L 579.619072 496.453121 
L 582.272952 484.988656 
L 584.926831 475.250223 
L 587.580711 467.921426 
L 595.54235 462.535797 
L 598.19623 457.06092 
L 600.85011 454.573153 
L 603.50399 453.98156 
L 606.15787 452.080876 
L 614.119509 447.250297 
L 616.773389 443.240283 
L 619.427269 438.77568 
L 622.081148 433.156255 
L 624.735028 425.778855 
L 632.696668 421.035367 
L 635.350547 417.743805 
L 638.004427 412.06011 
L 640.658307 413.346695 
L 643.312187 413.887613 
L 651.273826 410.552486 
L 653.927706 406.774397 
L 656.581586 405.547604 
L 659.235465 407.356272 
L 661.889345 404.187706 
L 669.850985 402.457446 
L 675.158744 402.312232 
L 677.812624 401.807799 
L 680.466504 402.182529 
L 691.082023 400.290994 
L 693.735903 399.406614 
L 696.389783 397.3385 
L 699.043662 397.960661 
L 707.005302 403.305688 
L 709.659181 406.130664 
L 712.313061 406.714579 
L 714.966941 404.2516 
L 717.620821 399.243919 
L 725.58246 397.566395 
L 728.23634 395.115272 
L 733.5441 398.041852 
L 736.197979 405.245217 
L 744.159619 409.413938 
L 746.813499 409.763769 
L 749.467378 396.66289 
L 752.121258 375.408302 
L 754.775138 359.038501 
L 762.736777 350.427143 
L 768.044537 342.65348 
L 770.698417 342.688654 
L 773.352296 349.128561 
L 781.313936 354.431181 
L 783.967816 360.950391 
L 789.275575 394.651758 
L 791.929455 412.798553 
L 799.891094 431.356738 
L 805.198854 453.578636 
L 807.852734 458.304279 
L 810.506613 464.044434 
L 818.468253 471.052898 
L 821.122133 473.552797 
L 826.429892 472.305805 
L 829.083772 471.265776 
L 837.045411 471.329109 
L 839.699291 474.04451 
L 842.353171 473.869941 
L 845.007051 472.747153 
L 847.660931 470.451767 
L 855.62257 471.480251 
L 858.27645 470.670027 
L 860.93033 466.46214 
L 863.584209 457.707078 
L 866.238089 459.227392 
L 874.199728 459.189161 
L 876.853608 456.62165 
L 882.161368 452.484181 
L 884.815248 446.669795 
L 892.776887 433.394181 
L 895.430767 423.943713 
L 898.084647 419.491541 
L 900.738526 411.82995 
L 903.392406 404.787926 
L 911.354046 395.673676 
L 916.661805 391.916029 
L 919.315685 395.605675 
L 921.969565 394.807259 
L 929.931204 393.2319 
L 932.585084 390.890037 
L 935.238964 389.133671 
L 937.892843 388.432579 
L 940.546723 389.262492 
L 940.546723 389.262492 
" clip-path="url(#pe6ad29c6c3)" style="fill: none; stroke: #1f77b4; stroke-width: 1.5; stroke-linecap: square"/>
   </g>
   <g id="line2d_74">
    <path d="M 93.95907 437.308466 
L 96.61295 437.719376 
L 99.26683 437.565027 
L 101.92071 438.324651 
L 104.574589 438.45903 
L 112.536229 438.501408 
L 115.190108 438.377936 
L 120.497868 438.79466 
L 123.151748 438.654876 
L 131.113387 437.736486 
L 133.767267 436.972784 
L 136.421147 437.359344 
L 139.075027 438.8294 
L 141.728906 442.26726 
L 149.690546 447.652795 
L 152.344426 453.607157 
L 157.652185 460.293371 
L 160.306065 466.748611 
L 168.267704 472.418012 
L 170.921584 475.371144 
L 173.575464 476.740462 
L 176.229344 477.677485 
L 178.883223 478.319793 
L 186.844863 478.425959 
L 189.498743 478.257602 
L 192.152622 476.710093 
L 194.806502 474.646896 
L 197.460382 472.848678 
L 205.422021 473.372135 
L 208.075901 473.061026 
L 213.383661 471.153736 
L 216.03754 470.704454 
L 223.99918 469.990871 
L 226.65306 469.555677 
L 229.306939 468.88719 
L 231.960819 470.509906 
L 234.614699 471.982477 
L 242.576338 472.463239 
L 247.884098 473.047556 
L 250.537978 475.494615 
L 253.191858 479.371594 
L 261.153497 484.816909 
L 263.807377 489.816158 
L 266.461257 495.233706 
L 269.115136 500.0888 
L 271.769016 503.847748 
L 279.730655 506.628522 
L 282.384535 507.720128 
L 285.038415 506.135599 
L 287.692295 501.927887 
L 298.307814 497.385012 
L 303.615574 488.137472 
L 306.269453 483.882629 
L 308.923333 480.002686 
L 316.884973 476.573396 
L 319.538852 472.721365 
L 322.192732 467.937437 
L 324.846612 462.851061 
L 327.500492 456.751275 
L 335.462131 450.020979 
L 338.116011 442.51968 
L 340.769891 435.673975 
L 346.07765 423.382884 
L 354.03929 417.568685 
L 356.693169 412.492073 
L 359.347049 407.770382 
L 372.616448 403.457837 
L 375.270328 400.731437 
L 377.924208 397.701119 
L 380.578087 394.116894 
L 383.231967 390.83186 
L 391.193607 388.380358 
L 393.847486 385.758149 
L 396.501366 384.351193 
L 399.155246 383.367521 
L 401.809126 382.736184 
L 409.770765 381.930625 
L 415.078525 383.040295 
L 417.732405 385.603641 
L 420.386284 391.05819 
L 428.347924 397.992734 
L 431.001804 405.147002 
L 433.655683 413.7821 
L 436.309563 424.298569 
L 438.963443 435.583721 
L 446.925082 447.810181 
L 449.578962 459.863265 
L 452.232842 470.290279 
L 454.886722 479.586925 
L 457.540601 487.976909 
L 465.502241 495.349922 
L 470.81 508.648509 
L 473.46388 513.79365 
L 476.11776 517.188718 
L 484.079399 518.170789 
L 486.733279 518.021473 
L 492.041039 517.04862 
L 494.694918 518.117808 
L 502.656558 521.082078 
L 505.310438 525.277376 
L 507.964317 530.185345 
L 513.272077 541.276942 
L 521.233716 546.303227 
L 523.887596 550.380455 
L 529.195356 555.905705 
L 531.849236 559.316752 
L 539.810875 562.054268 
L 542.464755 563.695521 
L 545.118634 564.373455 
L 547.772514 564.056375 
L 550.426394 562.37708 
L 558.388033 559.09494 
L 561.041913 554.459859 
L 566.349673 542.925744 
L 569.003553 536.863114 
L 576.965192 530.562681 
L 579.619072 523.740769 
L 582.272952 515.990346 
L 587.580711 499.858142 
L 595.54235 492.393673 
L 598.19623 485.327123 
L 600.85011 479.176329 
L 603.50399 474.137375 
L 606.15787 469.726075 
L 614.119509 465.23092 
L 619.427269 456.42137 
L 622.081148 451.768347 
L 624.735028 446.570449 
L 632.696668 441.463432 
L 638.004427 431.787627 
L 640.658307 428.099441 
L 643.312187 425.257075 
L 651.273826 422.316158 
L 653.927706 419.207805 
L 656.581586 416.475765 
L 659.235465 414.651866 
L 661.889345 412.559034 
L 669.850985 410.538717 
L 675.158744 408.89342 
L 677.812624 407.476296 
L 680.466504 406.417542 
L 691.082023 405.192233 
L 693.735903 404.035109 
L 696.389783 402.695787 
L 699.043662 401.748762 
L 707.005302 402.060147 
L 712.313061 403.642316 
L 714.966941 403.764173 
L 717.620821 402.860122 
L 725.58246 401.801377 
L 728.23634 400.464156 
L 733.5441 399.979695 
L 736.197979 401.0328 
L 744.159619 402.709027 
L 746.813499 404.119976 
L 749.467378 402.628558 
L 752.121258 397.184507 
L 754.775138 389.555306 
L 762.736777 381.729673 
L 765.390657 374.681503 
L 768.044537 368.275899 
L 770.698417 363.15845 
L 773.352296 360.352472 
L 781.313936 359.168214 
L 783.967816 359.524649 
L 786.621695 363.190902 
L 789.275575 369.483073 
L 791.929455 378.146169 
L 799.891094 388.788283 
L 805.198854 410.299535 
L 807.852734 419.900484 
L 810.506613 428.729274 
L 818.468253 437.193999 
L 821.122133 444.465758 
L 826.429892 450.033768 
L 829.083772 454.280169 
L 837.045411 457.689957 
L 839.699291 460.960868 
L 842.353171 463.542682 
L 845.007051 465.383577 
L 847.660931 466.397215 
L 855.62257 467.413822 
L 858.27645 468.065063 
L 860.93033 467.744478 
L 863.584209 465.736998 
L 866.238089 464.435077 
L 874.199728 463.385894 
L 876.853608 462.033045 
L 882.161368 460.123272 
L 884.815248 457.432577 
L 892.776887 452.624897 
L 900.738526 435.493379 
L 903.392406 429.352289 
L 911.354046 422.616566 
L 916.661805 416.476459 
L 919.315685 412.302302 
L 921.969565 408.803294 
L 929.931204 405.689015 
L 932.585084 402.729219 
L 935.238964 400.01011 
L 937.892843 397.694603 
L 940.546723 396.008181 
L 940.546723 396.008181 
" clip-path="url(#pe6ad29c6c3)" style="fill: none; stroke: #ff7f0e; stroke-width: 1.5; stroke-linecap: square"/>
   </g>
   <g id="patch_9">
    <path d="M 51.629688 584.521875 
L 51.629688 331.135937 
" style="fill: none; stroke: #000000; stroke-width: 0.8; stroke-linejoin: miter; stroke-linecap: square"/>
   </g>
   <g id="patch_10">
    <path d="M 982.876106 584.521875 
L 982.876106 331.135937 
" style="fill: none; stroke: #000000; stroke-width: 0.8; stroke-linejoin: miter; stroke-linecap: square"/>
   </g>
   <g id="patch_11">
    <path d="M 51.629687 584.521875 
L 982.876106 584.521875 
" style="fill: none; stroke: #000000; stroke-width: 0.8; stroke-linejoin: miter; stroke-linecap: square"/>
   </g>
   <g id="patch_12">
    <path d="M 51.629687 331.135938 
L 982.876106 331.135938 
" style="fill: none; stroke: #000000; stroke-width: 0.8; stroke-linejoin: miter; stroke-linecap: square"/>
   </g>
   <g id="text_26">
    <!-- MACD -->
    <g transform="translate(499.266959 325.135938)scale(0.12 -0.12)">
     <defs>
      <path id="DejaVuSans-44" d="M 1259 4147 
L 1259 519 
L 2022 519 
Q 2988 519 3436 956 
Q 3884 1394 3884 2338 
Q 3884 3275 3436 3711 
Q 2988 4147 2022 4147 
L 1259 4147 
z
M 628 4666 
L 1925 4666 
Q 3281 4666 3915 4102 
Q 4550 3538 4550 2338 
Q 4550 1131 3912 565 
Q 3275 0 1925 0 
L 628 0 
L 628 4666 
z
" transform="scale(0.015625)"/>
     </defs>
     <use xlink:href="#DejaVuSans-4d"/>
     <use xlink:href="#DejaVuSans-41" x="86.279297"/>
     <use xlink:href="#DejaVuSans-43" x="152.9375"/>
     <use xlink:href="#DejaVuSans-44" x="222.761719"/>
    </g>
   </g>
   <g id="legend_2">
    <g id="patch_13">
     <path d="M 913.899543 368.492188 
L 975.876106 368.492188 
Q 977.876106 368.492188 977.876106 366.492188 
L 977.876106 338.135938 
Q 977.876106 336.135938 975.876106 336.135938 
L 913.899543 336.135938 
Q 911.899543 336.135938 911.899543 338.135938 
L 911.899543 366.492188 
Q 911.899543 368.492188 913.899543 368.492188 
z
" style="fill: #ffffff; opacity: 0.8; stroke: #cccccc; stroke-linejoin: miter"/>
    </g>
    <g id="line2d_75">
     <path d="M 915.899543 344.234375 
L 925.899543 344.234375 
L 935.899543 344.234375 
" style="fill: none; stroke: #1f77b4; stroke-width: 1.5; stroke-linecap: square"/>
    </g>
    <g id="text_27">
     <!-- MACD -->
     <g transform="translate(943.899543 347.734375)scale(0.1 -0.1)">
      <use xlink:href="#DejaVuSans-4d"/>
      <use xlink:href="#DejaVuSans-41" x="86.279297"/>
      <use xlink:href="#DejaVuSans-43" x="152.9375"/>
      <use xlink:href="#DejaVuSans-44" x="222.761719"/>
     </g>
    </g>
    <g id="line2d_76">
     <path d="M 915.899543 358.9125 
L 925.899543 358.9125 
L 935.899543 358.9125 
" style="fill: none; stroke: #ff7f0e; stroke-width: 1.5; stroke-linecap: square"/>
    </g>
    <g id="text_28">
     <!-- SIG -->
     <g transform="translate(943.899543 362.4125)scale(0.1 -0.1)">
      <defs>
       <path id="DejaVuSans-49" d="M 628 4666 
L 1259 4666 
L 1259 0 
L 628 0 
L 628 4666 
z
" transform="scale(0.015625)"/>
       <path id="DejaVuSans-47" d="M 3809 666 
L 3809 1919 
L 2778 1919 
L 2778 2438 
L 4434 2438 
L 4434 434 
Q 4069 175 3628 42 
Q 3188 -91 2688 -91 
Q 1594 -91 976 548 
Q 359 1188 359 2328 
Q 359 3472 976 4111 
Q 1594 4750 2688 4750 
Q 3144 4750 3555 4637 
Q 3966 4525 4313 4306 
L 4313 3634 
Q 3963 3931 3569 4081 
Q 3175 4231 2741 4231 
Q 1884 4231 1454 3753 
Q 1025 3275 1025 2328 
Q 1025 1384 1454 906 
Q 1884 428 2741 428 
Q 3075 428 3337 486 
Q 3600 544 3809 666 
z
" transform="scale(0.015625)"/>
      </defs>
      <use xlink:href="#DejaVuSans-53"/>
      <use xlink:href="#DejaVuSans-49" x="63.476562"/>
      <use xlink:href="#DejaVuSans-47" x="92.96875"/>
     </g>
    </g>
   </g>
  </g>
  <g id="text_29">
   <!-- SHREE CEMENT LIMITED -->
   <g transform="translate(430.875 21.358125)scale(0.12 -0.12)">
    <defs>
     <path id="DejaVuSans-48" d="M 628 4666 
L 1259 4666 
L 1259 2753 
L 3553 2753 
L 3553 4666 
L 4184 4666 
L 4184 0 
L 3553 0 
L 3553 2222 
L 1259 2222 
L 1259 0 
L 628 0 
L 628 4666 
z
" transform="scale(0.015625)"/>
     <path id="DejaVuSans-52" d="M 2841 2188 
Q 3044 2119 3236 1894 
Q 3428 1669 3622 1275 
L 4263 0 
L 3584 0 
L 2988 1197 
Q 2756 1666 2539 1819 
Q 2322 1972 1947 1972 
L 1259 1972 
L 1259 0 
L 628 0 
L 628 4666 
L 2053 4666 
Q 2853 4666 3247 4331 
Q 3641 3997 3641 3322 
Q 3641 2881 3436 2590 
Q 3231 2300 2841 2188 
z
M 1259 4147 
L 1259 2491 
L 2053 2491 
Q 2509 2491 2742 2702 
Q 2975 2913 2975 3322 
Q 2975 3731 2742 3939 
Q 2509 4147 2053 4147 
L 1259 4147 
z
" transform="scale(0.015625)"/>
     <path id="DejaVuSans-4e" d="M 628 4666 
L 1478 4666 
L 3547 763 
L 3547 4666 
L 4159 4666 
L 4159 0 
L 3309 0 
L 1241 3903 
L 1241 0 
L 628 0 
L 628 4666 
z
" transform="scale(0.015625)"/>
     <path id="DejaVuSans-54" d="M -19 4666 
L 3928 4666 
L 3928 4134 
L 2272 4134 
L 2272 0 
L 1638 0 
L 1638 4134 
L -19 4134 
L -19 4666 
z
" transform="scale(0.015625)"/>
    </defs>
    <use xlink:href="#DejaVuSans-53"/>
    <use xlink:href="#DejaVuSans-48" x="63.476562"/>
    <use xlink:href="#DejaVuSans-52" x="138.671875"/>
    <use xlink:href="#DejaVuSans-45" x="208.154297"/>
    <use xlink:href="#DejaVuSans-45" x="271.337891"/>
    <use xlink:href="#DejaVuSans-20" x="334.521484"/>
    <use xlink:href="#DejaVuSans-43" x="366.308594"/>
    <use xlink:href="#DejaVuSans-45" x="436.132812"/>
    <use xlink:href="#DejaVuSans-4d" x="499.316406"/>
    <use xlink:href="#DejaVuSans-45" x="585.595703"/>
    <use xlink:href="#DejaVuSans-4e" x="648.779297"/>
    <use xlink:href="#DejaVuSans-54" x="723.583984"/>
    <use xlink:href="#DejaVuSans-20" x="784.667969"/>
    <use xlink:href="#DejaVuSans-4c" x="816.455078"/>
    <use xlink:href="#DejaVuSans-49" x="872.167969"/>
    <use xlink:href="#DejaVuSans-4d" x="901.660156"/>
    <use xlink:href="#DejaVuSans-49" x="987.939453"/>
    <use xlink:href="#DejaVuSans-54" x="1017.431641"/>
    <use xlink:href="#DejaVuSans-45" x="1078.515625"/>
    <use xlink:href="#DejaVuSans-44" x="1141.699219"/>
   </g>
  </g>
 </g>
 <defs>
  <clipPath id="p3ae6b1c3a6">
   <rect x="51.629688" y="48.331875" width="931.246418" height="253.385938"/>
  </clipPath>
  <clipPath id="pe6ad29c6c3">
   <rect x="51.629688" y="331.135938" width="931.246418" height="253.385937"/>
  </clipPath>
 </defs>
</svg>
