<?xml version="1.0" encoding="utf-8" standalone="no"?>
<!DOCTYPE svg PUBLIC "-//W3C//DTD SVG 1.1//EN"
  "http://www.w3.org/Graphics/SVG/1.1/DTD/svg11.dtd">
<svg xmlns:xlink="http://www.w3.org/1999/xlink" width="1008pt" height="612pt" viewBox="0 0 1008 612" xmlns="http://www.w3.org/2000/svg" version="1.1">
 <metadata>
  <rdf:RDF xmlns:dc="http://purl.org/dc/elements/1.1/" xmlns:cc="http://creativecommons.org/ns#" xmlns:rdf="http://www.w3.org/1999/02/22-rdf-syntax-ns#">
   <cc:Work>
    <dc:type rdf:resource="http://purl.org/dc/dcmitype/StillImage"/>
    <dc:date>2022-11-20T19:47:14.023656</dc:date>
    <dc:format>image/svg+xml</dc:format>
    <dc:creator>
     <cc:Agent>
      <dc:title>Matplotlib v3.5.2, https://matplotlib.org/</dc:title>
     </cc:Agent>
    </dc:creator>
   </cc:Work>
  </rdf:RDF>
 </metadata>
 <defs>
  <style type="text/css">*{stroke-linejoin: round; stroke-linecap: butt}</style>
 </defs>
 <g id="figure_1">
  <g id="patch_1">
   <path d="M 0 612 
L 1008 612 
L 1008 0 
L 0 0 
z
" style="fill: #ffffff"/>
  </g>
  <g id="axes_1">
   <g id="patch_2">
    <path d="M 45.267188 301.717812 
L 982.876106 301.717812 
L 982.876106 48.331875 
L 45.267188 48.331875 
z
" style="fill: #ffffff"/>
   </g>
   <g id="matplotlib.axis_1">
    <g id="xtick_1">
     <g id="line2d_1">
      <path d="M 82.541751 301.717812 
L 82.541751 48.331875 
" clip-path="url(#peae62f2b62)" style="fill: none; stroke-dasharray: 2.96,1.28; stroke-dashoffset: 0; stroke: #b0b0b0; stroke-width: 0.8"/>
     </g>
     <g id="line2d_2">
      <defs>
       <path id="m4b6e799904" d="M 0 0 
L 0 3.5 
" style="stroke: #000000; stroke-width: 0.8"/>
      </defs>
      <g>
       <use xlink:href="#m4b6e799904" x="82.541751" y="301.717812" style="stroke: #000000; stroke-width: 0.8"/>
      </g>
     </g>
    </g>
    <g id="xtick_2">
     <g id="line2d_3">
      <path d="M 165.374115 301.717812 
L 165.374115 48.331875 
" clip-path="url(#peae62f2b62)" style="fill: none; stroke-dasharray: 2.96,1.28; stroke-dashoffset: 0; stroke: #b0b0b0; stroke-width: 0.8"/>
     </g>
     <g id="line2d_4">
      <g>
       <use xlink:href="#m4b6e799904" x="165.374115" y="301.717812" style="stroke: #000000; stroke-width: 0.8"/>
      </g>
     </g>
    </g>
    <g id="xtick_3">
     <g id="line2d_5">
      <path d="M 240.190444 301.717812 
L 240.190444 48.331875 
" clip-path="url(#peae62f2b62)" style="fill: none; stroke-dasharray: 2.96,1.28; stroke-dashoffset: 0; stroke: #b0b0b0; stroke-width: 0.8"/>
     </g>
     <g id="line2d_6">
      <g>
       <use xlink:href="#m4b6e799904" x="240.190444" y="301.717812" style="stroke: #000000; stroke-width: 0.8"/>
      </g>
     </g>
    </g>
    <g id="xtick_4">
     <g id="line2d_7">
      <path d="M 323.022808 301.717812 
L 323.022808 48.331875 
" clip-path="url(#peae62f2b62)" style="fill: none; stroke-dasharray: 2.96,1.28; stroke-dashoffset: 0; stroke: #b0b0b0; stroke-width: 0.8"/>
     </g>
     <g id="line2d_8">
      <g>
       <use xlink:href="#m4b6e799904" x="323.022808" y="301.717812" style="stroke: #000000; stroke-width: 0.8"/>
      </g>
     </g>
    </g>
    <g id="xtick_5">
     <g id="line2d_9">
      <path d="M 403.18316 301.717812 
L 403.18316 48.331875 
" clip-path="url(#peae62f2b62)" style="fill: none; stroke-dasharray: 2.96,1.28; stroke-dashoffset: 0; stroke: #b0b0b0; stroke-width: 0.8"/>
     </g>
     <g id="line2d_10">
      <g>
       <use xlink:href="#m4b6e799904" x="403.18316" y="301.717812" style="stroke: #000000; stroke-width: 0.8"/>
      </g>
     </g>
    </g>
    <g id="xtick_6">
     <g id="line2d_11">
      <path d="M 486.015523 301.717812 
L 486.015523 48.331875 
" clip-path="url(#peae62f2b62)" style="fill: none; stroke-dasharray: 2.96,1.28; stroke-dashoffset: 0; stroke: #b0b0b0; stroke-width: 0.8"/>
     </g>
     <g id="line2d_12">
      <g>
       <use xlink:href="#m4b6e799904" x="486.015523" y="301.717812" style="stroke: #000000; stroke-width: 0.8"/>
      </g>
     </g>
    </g>
    <g id="xtick_7">
     <g id="line2d_13">
      <path d="M 566.175876 301.717812 
L 566.175876 48.331875 
" clip-path="url(#peae62f2b62)" style="fill: none; stroke-dasharray: 2.96,1.28; stroke-dashoffset: 0; stroke: #b0b0b0; stroke-width: 0.8"/>
     </g>
     <g id="line2d_14">
      <g>
       <use xlink:href="#m4b6e799904" x="566.175876" y="301.717812" style="stroke: #000000; stroke-width: 0.8"/>
      </g>
     </g>
    </g>
    <g id="xtick_8">
     <g id="line2d_15">
      <path d="M 649.008239 301.717812 
L 649.008239 48.331875 
" clip-path="url(#peae62f2b62)" style="fill: none; stroke-dasharray: 2.96,1.28; stroke-dashoffset: 0; stroke: #b0b0b0; stroke-width: 0.8"/>
     </g>
     <g id="line2d_16">
      <g>
       <use xlink:href="#m4b6e799904" x="649.008239" y="301.717812" style="stroke: #000000; stroke-width: 0.8"/>
      </g>
     </g>
    </g>
    <g id="xtick_9">
     <g id="line2d_17">
      <path d="M 731.840603 301.717812 
L 731.840603 48.331875 
" clip-path="url(#peae62f2b62)" style="fill: none; stroke-dasharray: 2.96,1.28; stroke-dashoffset: 0; stroke: #b0b0b0; stroke-width: 0.8"/>
     </g>
     <g id="line2d_18">
      <g>
       <use xlink:href="#m4b6e799904" x="731.840603" y="301.717812" style="stroke: #000000; stroke-width: 0.8"/>
      </g>
     </g>
    </g>
    <g id="xtick_10">
     <g id="line2d_19">
      <path d="M 812.000955 301.717812 
L 812.000955 48.331875 
" clip-path="url(#peae62f2b62)" style="fill: none; stroke-dasharray: 2.96,1.28; stroke-dashoffset: 0; stroke: #b0b0b0; stroke-width: 0.8"/>
     </g>
     <g id="line2d_20">
      <g>
       <use xlink:href="#m4b6e799904" x="812.000955" y="301.717812" style="stroke: #000000; stroke-width: 0.8"/>
      </g>
     </g>
    </g>
    <g id="xtick_11">
     <g id="line2d_21">
      <path d="M 894.833319 301.717812 
L 894.833319 48.331875 
" clip-path="url(#peae62f2b62)" style="fill: none; stroke-dasharray: 2.96,1.28; stroke-dashoffset: 0; stroke: #b0b0b0; stroke-width: 0.8"/>
     </g>
     <g id="line2d_22">
      <g>
       <use xlink:href="#m4b6e799904" x="894.833319" y="301.717812" style="stroke: #000000; stroke-width: 0.8"/>
      </g>
     </g>
    </g>
    <g id="xtick_12">
     <g id="line2d_23">
      <path d="M 974.993671 301.717812 
L 974.993671 48.331875 
" clip-path="url(#peae62f2b62)" style="fill: none; stroke-dasharray: 2.96,1.28; stroke-dashoffset: 0; stroke: #b0b0b0; stroke-width: 0.8"/>
     </g>
     <g id="line2d_24">
      <g>
       <use xlink:href="#m4b6e799904" x="974.993671" y="301.717812" style="stroke: #000000; stroke-width: 0.8"/>
      </g>
     </g>
    </g>
   </g>
   <g id="matplotlib.axis_2">
    <g id="ytick_1">
     <g id="line2d_25">
      <path d="M 45.267188 282.374668 
L 982.876106 282.374668 
" clip-path="url(#peae62f2b62)" style="fill: none; stroke-dasharray: 2.96,1.28; stroke-dashoffset: 0; stroke: #b0b0b0; stroke-width: 0.8"/>
     </g>
     <g id="line2d_26">
      <defs>
       <path id="m543f5ba4de" d="M 0 0 
L -3.5 0 
" style="stroke: #000000; stroke-width: 0.8"/>
      </defs>
      <g>
       <use xlink:href="#m543f5ba4de" x="45.267188" y="282.374668" style="stroke: #000000; stroke-width: 0.8"/>
      </g>
     </g>
     <g id="text_1">
      <!-- 250 -->
      <g transform="translate(19.179688 286.173887)scale(0.1 -0.1)">
       <defs>
        <path id="DejaVuSans-32" d="M 1228 531 
L 3431 531 
L 3431 0 
L 469 0 
L 469 531 
Q 828 903 1448 1529 
Q 2069 2156 2228 2338 
Q 2531 2678 2651 2914 
Q 2772 3150 2772 3378 
Q 2772 3750 2511 3984 
Q 2250 4219 1831 4219 
Q 1534 4219 1204 4116 
Q 875 4013 500 3803 
L 500 4441 
Q 881 4594 1212 4672 
Q 1544 4750 1819 4750 
Q 2544 4750 2975 4387 
Q 3406 4025 3406 3419 
Q 3406 3131 3298 2873 
Q 3191 2616 2906 2266 
Q 2828 2175 2409 1742 
Q 1991 1309 1228 531 
z
" transform="scale(0.015625)"/>
        <path id="DejaVuSans-35" d="M 691 4666 
L 3169 4666 
L 3169 4134 
L 1269 4134 
L 1269 2991 
Q 1406 3038 1543 3061 
Q 1681 3084 1819 3084 
Q 2600 3084 3056 2656 
Q 3513 2228 3513 1497 
Q 3513 744 3044 326 
Q 2575 -91 1722 -91 
Q 1428 -91 1123 -41 
Q 819 9 494 109 
L 494 744 
Q 775 591 1075 516 
Q 1375 441 1709 441 
Q 2250 441 2565 725 
Q 2881 1009 2881 1497 
Q 2881 1984 2565 2268 
Q 2250 2553 1709 2553 
Q 1456 2553 1204 2497 
Q 953 2441 691 2322 
L 691 4666 
z
" transform="scale(0.015625)"/>
        <path id="DejaVuSans-30" d="M 2034 4250 
Q 1547 4250 1301 3770 
Q 1056 3291 1056 2328 
Q 1056 1369 1301 889 
Q 1547 409 2034 409 
Q 2525 409 2770 889 
Q 3016 1369 3016 2328 
Q 3016 3291 2770 3770 
Q 2525 4250 2034 4250 
z
M 2034 4750 
Q 2819 4750 3233 4129 
Q 3647 3509 3647 2328 
Q 3647 1150 3233 529 
Q 2819 -91 2034 -91 
Q 1250 -91 836 529 
Q 422 1150 422 2328 
Q 422 3509 836 4129 
Q 1250 4750 2034 4750 
z
" transform="scale(0.015625)"/>
       </defs>
       <use xlink:href="#DejaVuSans-32"/>
       <use xlink:href="#DejaVuSans-35" x="63.623047"/>
       <use xlink:href="#DejaVuSans-30" x="127.246094"/>
      </g>
     </g>
    </g>
    <g id="ytick_2">
     <g id="line2d_27">
      <path d="M 45.267188 252.528743 
L 982.876106 252.528743 
" clip-path="url(#peae62f2b62)" style="fill: none; stroke-dasharray: 2.96,1.28; stroke-dashoffset: 0; stroke: #b0b0b0; stroke-width: 0.8"/>
     </g>
     <g id="line2d_28">
      <g>
       <use xlink:href="#m543f5ba4de" x="45.267188" y="252.528743" style="stroke: #000000; stroke-width: 0.8"/>
      </g>
     </g>
     <g id="text_2">
      <!-- 500 -->
      <g transform="translate(19.179688 256.327962)scale(0.1 -0.1)">
       <use xlink:href="#DejaVuSans-35"/>
       <use xlink:href="#DejaVuSans-30" x="63.623047"/>
       <use xlink:href="#DejaVuSans-30" x="127.246094"/>
      </g>
     </g>
    </g>
    <g id="ytick_3">
     <g id="line2d_29">
      <path d="M 45.267188 222.682817 
L 982.876106 222.682817 
" clip-path="url(#peae62f2b62)" style="fill: none; stroke-dasharray: 2.96,1.28; stroke-dashoffset: 0; stroke: #b0b0b0; stroke-width: 0.8"/>
     </g>
     <g id="line2d_30">
      <g>
       <use xlink:href="#m543f5ba4de" x="45.267188" y="222.682817" style="stroke: #000000; stroke-width: 0.8"/>
      </g>
     </g>
     <g id="text_3">
      <!-- 750 -->
      <g transform="translate(19.179688 226.482036)scale(0.1 -0.1)">
       <defs>
        <path id="DejaVuSans-37" d="M 525 4666 
L 3525 4666 
L 3525 4397 
L 1831 0 
L 1172 0 
L 2766 4134 
L 525 4134 
L 525 4666 
z
" transform="scale(0.015625)"/>
       </defs>
       <use xlink:href="#DejaVuSans-37"/>
       <use xlink:href="#DejaVuSans-35" x="63.623047"/>
       <use xlink:href="#DejaVuSans-30" x="127.246094"/>
      </g>
     </g>
    </g>
    <g id="ytick_4">
     <g id="line2d_31">
      <path d="M 45.267188 192.836892 
L 982.876106 192.836892 
" clip-path="url(#peae62f2b62)" style="fill: none; stroke-dasharray: 2.96,1.28; stroke-dashoffset: 0; stroke: #b0b0b0; stroke-width: 0.8"/>
     </g>
     <g id="line2d_32">
      <g>
       <use xlink:href="#m543f5ba4de" x="45.267188" y="192.836892" style="stroke: #000000; stroke-width: 0.8"/>
      </g>
     </g>
     <g id="text_4">
      <!-- 1000 -->
      <g transform="translate(12.817188 196.636111)scale(0.1 -0.1)">
       <defs>
        <path id="DejaVuSans-31" d="M 794 531 
L 1825 531 
L 1825 4091 
L 703 3866 
L 703 4441 
L 1819 4666 
L 2450 4666 
L 2450 531 
L 3481 531 
L 3481 0 
L 794 0 
L 794 531 
z
" transform="scale(0.015625)"/>
       </defs>
       <use xlink:href="#DejaVuSans-31"/>
       <use xlink:href="#DejaVuSans-30" x="63.623047"/>
       <use xlink:href="#DejaVuSans-30" x="127.246094"/>
       <use xlink:href="#DejaVuSans-30" x="190.869141"/>
      </g>
     </g>
    </g>
    <g id="ytick_5">
     <g id="line2d_33">
      <path d="M 45.267188 162.990967 
L 982.876106 162.990967 
" clip-path="url(#peae62f2b62)" style="fill: none; stroke-dasharray: 2.96,1.28; stroke-dashoffset: 0; stroke: #b0b0b0; stroke-width: 0.8"/>
     </g>
     <g id="line2d_34">
      <g>
       <use xlink:href="#m543f5ba4de" x="45.267188" y="162.990967" style="stroke: #000000; stroke-width: 0.8"/>
      </g>
     </g>
     <g id="text_5">
      <!-- 1250 -->
      <g transform="translate(12.817188 166.790185)scale(0.1 -0.1)">
       <use xlink:href="#DejaVuSans-31"/>
       <use xlink:href="#DejaVuSans-32" x="63.623047"/>
       <use xlink:href="#DejaVuSans-35" x="127.246094"/>
       <use xlink:href="#DejaVuSans-30" x="190.869141"/>
      </g>
     </g>
    </g>
    <g id="ytick_6">
     <g id="line2d_35">
      <path d="M 45.267188 133.145041 
L 982.876106 133.145041 
" clip-path="url(#peae62f2b62)" style="fill: none; stroke-dasharray: 2.96,1.28; stroke-dashoffset: 0; stroke: #b0b0b0; stroke-width: 0.8"/>
     </g>
     <g id="line2d_36">
      <g>
       <use xlink:href="#m543f5ba4de" x="45.267188" y="133.145041" style="stroke: #000000; stroke-width: 0.8"/>
      </g>
     </g>
     <g id="text_6">
      <!-- 1500 -->
      <g transform="translate(12.817188 136.94426)scale(0.1 -0.1)">
       <use xlink:href="#DejaVuSans-31"/>
       <use xlink:href="#DejaVuSans-35" x="63.623047"/>
       <use xlink:href="#DejaVuSans-30" x="127.246094"/>
       <use xlink:href="#DejaVuSans-30" x="190.869141"/>
      </g>
     </g>
    </g>
    <g id="ytick_7">
     <g id="line2d_37">
      <path d="M 45.267188 103.299116 
L 982.876106 103.299116 
" clip-path="url(#peae62f2b62)" style="fill: none; stroke-dasharray: 2.96,1.28; stroke-dashoffset: 0; stroke: #b0b0b0; stroke-width: 0.8"/>
     </g>
     <g id="line2d_38">
      <g>
       <use xlink:href="#m543f5ba4de" x="45.267188" y="103.299116" style="stroke: #000000; stroke-width: 0.8"/>
      </g>
     </g>
     <g id="text_7">
      <!-- 1750 -->
      <g transform="translate(12.817188 107.098335)scale(0.1 -0.1)">
       <use xlink:href="#DejaVuSans-31"/>
       <use xlink:href="#DejaVuSans-37" x="63.623047"/>
       <use xlink:href="#DejaVuSans-35" x="127.246094"/>
       <use xlink:href="#DejaVuSans-30" x="190.869141"/>
      </g>
     </g>
    </g>
    <g id="ytick_8">
     <g id="line2d_39">
      <path d="M 45.267188 73.45319 
L 982.876106 73.45319 
" clip-path="url(#peae62f2b62)" style="fill: none; stroke-dasharray: 2.96,1.28; stroke-dashoffset: 0; stroke: #b0b0b0; stroke-width: 0.8"/>
     </g>
     <g id="line2d_40">
      <g>
       <use xlink:href="#m543f5ba4de" x="45.267188" y="73.45319" style="stroke: #000000; stroke-width: 0.8"/>
      </g>
     </g>
     <g id="text_8">
      <!-- 2000 -->
      <g transform="translate(12.817188 77.252409)scale(0.1 -0.1)">
       <use xlink:href="#DejaVuSans-32"/>
       <use xlink:href="#DejaVuSans-30" x="63.623047"/>
       <use xlink:href="#DejaVuSans-30" x="127.246094"/>
       <use xlink:href="#DejaVuSans-30" x="190.869141"/>
      </g>
     </g>
    </g>
   </g>
   <g id="line2d_41">
    <path d="M 87.885775 63.156346 
L 90.557786 59.849418 
L 93.229798 68.319691 
L 95.90181 73.08907 
L 98.573822 72.814488 
L 106.589857 72.802549 
L 109.261869 75.602097 
L 111.93388 72.157877 
L 114.605892 66.343891 
L 117.277904 66.57072 
L 125.293939 64.941132 
L 127.965951 66.821426 
L 130.637962 70.373091 
L 133.309974 67.382529 
L 135.981986 73.656143 
L 143.998021 104.976457 
L 146.670033 113.96605 
L 152.014056 118.604106 
L 154.686068 116.001542 
L 162.702103 115.052441 
L 165.374115 108.826581 
L 168.046127 94.649767 
L 170.718139 93.008241 
L 173.39015 87.976218 
L 181.406185 85.964602 
L 184.078197 89.94008 
L 186.750209 91.378653 
L 189.422221 107.901358 
L 192.094232 115.846343 
L 200.110268 131.372193 
L 202.782279 133.944912 
L 205.454291 132.679445 
L 208.126303 139.37687 
L 210.798315 145.083411 
L 218.81435 153.732761 
L 221.486362 153.314918 
L 224.158373 148.46197 
L 226.830385 156.478586 
L 229.502397 157.636608 
L 237.518432 158.066389 
L 242.862455 143.585146 
L 245.534467 132.619753 
L 248.206479 131.992989 
L 256.222514 151.386871 
L 258.894526 149.793098 
L 261.566538 145.047596 
L 264.238549 145.722114 
L 266.910561 146.551831 
L 274.926596 146.939828 
L 277.598608 142.361463 
L 280.27062 133.610638 
L 282.942631 127.134072 
L 293.630678 132.751075 
L 296.30269 127.325086 
L 298.974702 128.435354 
L 301.646714 123.26604 
L 304.318725 121.487223 
L 312.334761 121.254425 
L 315.006772 118.28774 
L 317.678784 109.160856 
L 320.350796 110.515861 
L 323.022808 109.948788 
L 331.038843 98.553614 
L 333.710854 97.592575 
L 336.382866 98.487953 
L 339.054878 97.891034 
L 341.72689 90.405676 
L 349.742925 88.083663 
L 352.414937 98.899826 
L 355.086948 94.864657 
L 368.447007 93.587252 
L 371.119019 93.718574 
L 373.791031 97.789558 
L 376.463042 94.966133 
L 379.135054 94.55426 
L 387.151089 110.820289 
L 389.823101 108.062526 
L 392.495113 109.584668 
L 395.167124 107.823758 
L 397.839136 109.960726 
L 405.855171 106.671705 
L 411.199195 115.613545 
L 413.871207 121.785682 
L 416.543218 128.489077 
L 424.559254 139.770837 
L 429.903277 160.448094 
L 432.575289 158.675246 
L 435.2473 155.911513 
L 443.263336 142.415186 
L 445.935347 136.857874 
L 448.607359 133.676299 
L 451.279371 137.47867 
L 453.951383 136.392278 
L 461.967418 138.039773 
L 464.63943 145.077442 
L 467.311441 148.993228 
L 469.983453 149.279748 
L 472.655465 150.87949 
L 480.6715 144.910305 
L 483.343512 133.795682 
L 486.015523 138.481493 
L 488.687535 136.469877 
L 491.359547 137.902482 
L 499.375582 141.370578 
L 502.047594 138.821736 
L 504.719606 142.206264 
L 507.391617 140.027512 
L 518.079664 138.403893 
L 520.751676 138.415832 
L 523.423688 137.645807 
L 526.095699 141.770514 
L 528.767711 147.477055 
L 536.783746 148.521662 
L 539.455758 146.020573 
L 542.12777 150.342263 
L 544.799782 141.28701 
L 547.471793 140.731875 
L 555.487829 136.45197 
L 558.15984 140.355817 
L 560.831852 141.806329 
L 563.503864 144.253695 
L 566.175876 143.40607 
L 574.191911 145.6087 
L 576.863922 147.059212 
L 579.535934 144.820767 
L 582.207946 138.72026 
L 584.879958 145.817621 
L 592.895993 143.859728 
L 595.568005 144.94612 
L 598.240016 140.815444 
L 600.912028 143.167303 
L 603.58404 143.99702 
L 611.600075 144.928213 
L 614.272087 145.584823 
L 616.944099 144.390986 
L 619.61611 143.889574 
L 622.288122 138.654599 
L 630.304157 141.036304 
L 632.976169 138.624753 
L 635.648181 140.821413 
L 638.320192 144.969997 
L 640.992204 145.429624 
L 649.008239 143.179241 
L 651.680251 140.475201 
L 654.352263 140.302094 
L 657.024275 139.782775 
L 659.696286 143.740345 
L 667.712322 143.149395 
L 673.056345 146.271279 
L 675.728357 142.916597 
L 678.400368 145.23861 
L 689.088415 145.149072 
L 691.760427 144.969997 
L 694.432439 146.575708 
L 697.104451 145.172949 
L 707.792498 149.303625 
L 710.464509 150.628784 
L 713.136521 149.327502 
L 715.808533 149.112611 
L 723.824568 151.482378 
L 726.49658 146.223526 
L 731.840603 149.017104 
L 734.512615 149.411071 
L 742.52865 149.160365 
L 745.200662 150.479555 
L 747.872674 150.503431 
L 750.544685 150.813829 
L 753.216697 151.32121 
L 761.232732 152.306125 
L 763.904744 149.667746 
L 766.576756 152.288218 
L 769.248768 152.837383 
L 771.920779 150.419863 
L 779.936814 152.515047 
L 782.608826 154.007343 
L 785.280838 155.141488 
L 787.95285 154.180449 
L 790.624861 156.126404 
L 798.640897 159.707915 
L 801.312908 158.335002 
L 803.98492 159.624346 
L 806.656932 158.836414 
L 809.328944 160.352587 
L 817.344979 156.52037 
L 820.016991 156.132373 
L 825.361014 158.890136 
L 828.033026 158.896106 
L 836.049061 158.591677 
L 838.721073 161.725499 
L 841.393084 162.60297 
L 844.065096 167.193273 
L 846.737108 168.100589 
L 857.425155 175.627731 
L 860.097167 174.648785 
L 862.769178 173.287811 
L 865.44119 176.684277 
L 873.457225 175.657577 
L 876.129237 179.549486 
L 881.47326 186.939337 
L 884.145272 194.800754 
L 892.161307 174.601032 
L 894.833319 170.703154 
L 897.505331 174.559247 
L 900.177343 177.54384 
L 902.849354 180.343388 
L 910.86539 177.066305 
L 916.209413 185.638055 
L 918.881425 289.746612 
L 921.553437 287.406691 
L 929.569472 286.959002 
L 932.241483 289.292954 
L 934.913495 290.20027 
L 937.585507 290.062979 
L 940.257519 289.251169 
L 940.257519 289.251169 
" clip-path="url(#peae62f2b62)" style="fill: none; stroke: #1f77b4; stroke-width: 1.5; stroke-linecap: square"/>
   </g>
   <g id="line2d_42">
    <path d="M 98.573822 67.445803 
L 106.589857 69.375043 
L 109.261869 72.525579 
L 111.93388 73.293216 
L 117.277904 70.695427 
L 125.293939 69.123144 
L 127.965951 67.367009 
L 130.637962 67.010052 
L 133.309974 67.21778 
L 135.981986 68.634864 
L 143.998021 76.641929 
L 146.670033 86.070854 
L 152.014056 95.717057 
L 154.686068 105.440859 
L 162.702103 113.720119 
L 165.374115 114.490144 
L 168.046127 110.626887 
L 170.718139 105.507714 
L 173.39015 99.90265 
L 181.406185 94.085082 
L 184.078197 90.307781 
L 186.750209 89.653559 
L 189.422221 92.632182 
L 192.094232 98.206207 
L 200.110268 107.287725 
L 202.782279 116.088692 
L 205.454291 124.34885 
L 208.126303 130.643953 
L 210.798315 136.491366 
L 218.81435 140.96348 
L 221.486362 144.837481 
L 224.158373 147.993986 
L 226.830385 151.414329 
L 229.502397 153.924968 
L 237.518432 154.791694 
L 242.862455 152.84574 
L 245.534467 149.677296 
L 248.206479 144.780177 
L 256.222514 143.530229 
L 258.894526 141.875571 
L 261.566538 142.168061 
L 264.238549 144.788534 
L 266.910561 147.700302 
L 274.926596 146.810894 
L 277.598608 145.324566 
L 280.27062 143.037175 
L 282.942631 139.319566 
L 293.630678 136.559415 
L 296.30269 132.636467 
L 298.974702 129.851245 
L 301.646714 127.782325 
L 304.318725 126.652956 
L 312.334761 124.353625 
L 315.006772 122.546156 
L 317.678784 118.691256 
L 320.350796 116.141221 
L 323.022808 113.833534 
L 331.038843 109.293371 
L 333.710854 105.154339 
L 336.382866 103.019758 
L 339.054878 100.494793 
L 341.72689 96.58617 
L 349.742925 94.49218 
L 352.414937 94.75363 
L 355.086948 94.028971 
L 368.447007 93.168215 
L 371.119019 93.830794 
L 373.791031 95.771973 
L 376.463042 94.985235 
L 379.135054 94.923155 
L 387.151089 98.369763 
L 389.823101 101.238553 
L 392.495113 103.597575 
L 395.167124 106.1691 
L 397.839136 109.250393 
L 405.855171 108.420677 
L 411.199195 109.93088 
L 413.871207 112.371083 
L 416.543218 116.504147 
L 424.559254 122.466169 
L 429.903277 140.146895 
L 432.575289 147.524808 
L 435.2473 153.009295 
L 443.263336 153.538165 
L 445.935347 150.861583 
L 448.607359 145.507224 
L 451.279371 141.267908 
L 453.951383 137.364061 
L 461.967418 136.488979 
L 464.63943 138.132892 
L 467.311441 141.196278 
L 469.983453 143.556494 
L 472.655465 146.453936 
L 480.6715 147.828043 
L 483.343512 145.571691 
L 486.015523 143.469344 
L 491.359547 138.311968 
L 499.375582 137.604022 
L 502.047594 138.609233 
L 507.391617 140.065714 
L 510.063629 140.404764 
L 518.079664 139.811427 
L 520.751676 139.730246 
L 523.423688 138.818155 
L 526.095699 139.166755 
L 528.767711 140.74262 
L 536.783746 142.766174 
L 539.455758 144.287122 
L 542.12777 146.826413 
L 544.799782 146.729713 
L 547.471793 145.380677 
L 555.487829 142.966738 
L 558.15984 141.833787 
L 560.831852 140.1266 
L 574.191911 143.086122 
L 576.863922 144.426801 
L 579.535934 145.029689 
L 582.207946 143.923002 
L 584.879958 144.405312 
L 592.895993 144.055518 
L 595.568005 143.632899 
L 598.240016 142.831835 
L 600.912028 143.721243 
L 603.58404 143.357123 
L 614.272087 143.69856 
L 616.944099 144.413669 
L 619.61611 144.558123 
L 622.288122 143.489639 
L 630.304157 142.711257 
L 632.976169 141.319243 
L 635.648181 140.605329 
L 638.320192 140.821413 
L 640.992204 142.176418 
L 649.008239 142.605006 
L 651.680251 142.975095 
L 654.352263 142.871231 
L 657.024275 141.833787 
L 659.696286 141.495931 
L 667.712322 141.489962 
L 675.728357 143.172078 
L 678.400368 144.263245 
L 689.088415 144.544991 
L 691.760427 144.909111 
L 694.432439 144.969997 
L 697.104451 145.421267 
L 705.120486 146.015798 
L 707.792498 146.846709 
L 710.464509 147.978466 
L 713.136521 148.528825 
L 715.808533 149.316757 
L 723.824568 149.97098 
L 726.49658 149.35496 
L 731.840603 149.032624 
L 742.52865 149.058889 
L 745.200662 148.858324 
L 747.872674 149.714305 
L 753.216697 150.455678 
L 761.232732 151.08483 
L 763.904744 150.922468 
L 769.248768 151.684136 
L 771.920779 151.503867 
L 779.936814 151.545651 
L 782.608826 152.413571 
L 785.280838 152.984225 
L 787.95285 153.252838 
L 790.624861 154.394146 
L 798.640897 155.83272 
L 809.328944 159.371253 
L 817.344979 158.733744 
L 820.016991 158.293218 
L 836.049061 157.806132 
L 838.721073 158.847158 
L 841.393084 160.141278 
L 844.065096 161.801905 
L 846.737108 163.642802 
L 854.753143 166.659628 
L 857.425155 169.440074 
L 860.097167 171.849237 
L 862.769178 173.068145 
L 865.44119 174.784883 
L 873.457225 175.181236 
L 876.129237 175.965587 
L 881.47326 178.423698 
L 884.145272 182.726286 
L 892.161307 182.309637 
L 897.505331 180.320705 
L 900.177343 178.441605 
L 902.849354 175.550132 
L 910.86539 176.043187 
L 916.209413 179.030167 
L 918.881425 202.06764 
L 921.553437 224.04021 
L 929.569472 245.363333 
L 932.241483 267.808663 
L 934.913495 288.721106 
L 937.585507 288.784379 
L 940.257519 289.153275 
L 940.257519 289.153275 
" clip-path="url(#peae62f2b62)" style="fill: none; stroke: #ff7f0e; stroke-width: 1.5; stroke-linecap: square"/>
   </g>
   <g id="patch_3">
    <path d="M 45.267188 301.717812 
L 45.267188 48.331875 
" style="fill: none; stroke: #000000; stroke-width: 0.8; stroke-linejoin: miter; stroke-linecap: square"/>
   </g>
   <g id="patch_4">
    <path d="M 982.876106 301.717812 
L 982.876106 48.331875 
" style="fill: none; stroke: #000000; stroke-width: 0.8; stroke-linejoin: miter; stroke-linecap: square"/>
   </g>
   <g id="patch_5">
    <path d="M 45.267188 301.717812 
L 982.876106 301.717812 
" style="fill: none; stroke: #000000; stroke-width: 0.8; stroke-linejoin: miter; stroke-linecap: square"/>
   </g>
   <g id="patch_6">
    <path d="M 45.267188 48.331875 
L 982.876106 48.331875 
" style="fill: none; stroke: #000000; stroke-width: 0.8; stroke-linejoin: miter; stroke-linecap: square"/>
   </g>
   <g id="text_9">
    <!-- Closing Price -->
    <g transform="translate(475.595709 42.331875)scale(0.12 -0.12)">
     <defs>
      <path id="DejaVuSans-43" d="M 4122 4306 
L 4122 3641 
Q 3803 3938 3442 4084 
Q 3081 4231 2675 4231 
Q 1875 4231 1450 3742 
Q 1025 3253 1025 2328 
Q 1025 1406 1450 917 
Q 1875 428 2675 428 
Q 3081 428 3442 575 
Q 3803 722 4122 1019 
L 4122 359 
Q 3791 134 3420 21 
Q 3050 -91 2638 -91 
Q 1578 -91 968 557 
Q 359 1206 359 2328 
Q 359 3453 968 4101 
Q 1578 4750 2638 4750 
Q 3056 4750 3426 4639 
Q 3797 4528 4122 4306 
z
" transform="scale(0.015625)"/>
      <path id="DejaVuSans-6c" d="M 603 4863 
L 1178 4863 
L 1178 0 
L 603 0 
L 603 4863 
z
" transform="scale(0.015625)"/>
      <path id="DejaVuSans-6f" d="M 1959 3097 
Q 1497 3097 1228 2736 
Q 959 2375 959 1747 
Q 959 1119 1226 758 
Q 1494 397 1959 397 
Q 2419 397 2687 759 
Q 2956 1122 2956 1747 
Q 2956 2369 2687 2733 
Q 2419 3097 1959 3097 
z
M 1959 3584 
Q 2709 3584 3137 3096 
Q 3566 2609 3566 1747 
Q 3566 888 3137 398 
Q 2709 -91 1959 -91 
Q 1206 -91 779 398 
Q 353 888 353 1747 
Q 353 2609 779 3096 
Q 1206 3584 1959 3584 
z
" transform="scale(0.015625)"/>
      <path id="DejaVuSans-73" d="M 2834 3397 
L 2834 2853 
Q 2591 2978 2328 3040 
Q 2066 3103 1784 3103 
Q 1356 3103 1142 2972 
Q 928 2841 928 2578 
Q 928 2378 1081 2264 
Q 1234 2150 1697 2047 
L 1894 2003 
Q 2506 1872 2764 1633 
Q 3022 1394 3022 966 
Q 3022 478 2636 193 
Q 2250 -91 1575 -91 
Q 1294 -91 989 -36 
Q 684 19 347 128 
L 347 722 
Q 666 556 975 473 
Q 1284 391 1588 391 
Q 1994 391 2212 530 
Q 2431 669 2431 922 
Q 2431 1156 2273 1281 
Q 2116 1406 1581 1522 
L 1381 1569 
Q 847 1681 609 1914 
Q 372 2147 372 2553 
Q 372 3047 722 3315 
Q 1072 3584 1716 3584 
Q 2034 3584 2315 3537 
Q 2597 3491 2834 3397 
z
" transform="scale(0.015625)"/>
      <path id="DejaVuSans-69" d="M 603 3500 
L 1178 3500 
L 1178 0 
L 603 0 
L 603 3500 
z
M 603 4863 
L 1178 4863 
L 1178 4134 
L 603 4134 
L 603 4863 
z
" transform="scale(0.015625)"/>
      <path id="DejaVuSans-6e" d="M 3513 2113 
L 3513 0 
L 2938 0 
L 2938 2094 
Q 2938 2591 2744 2837 
Q 2550 3084 2163 3084 
Q 1697 3084 1428 2787 
Q 1159 2491 1159 1978 
L 1159 0 
L 581 0 
L 581 3500 
L 1159 3500 
L 1159 2956 
Q 1366 3272 1645 3428 
Q 1925 3584 2291 3584 
Q 2894 3584 3203 3211 
Q 3513 2838 3513 2113 
z
" transform="scale(0.015625)"/>
      <path id="DejaVuSans-67" d="M 2906 1791 
Q 2906 2416 2648 2759 
Q 2391 3103 1925 3103 
Q 1463 3103 1205 2759 
Q 947 2416 947 1791 
Q 947 1169 1205 825 
Q 1463 481 1925 481 
Q 2391 481 2648 825 
Q 2906 1169 2906 1791 
z
M 3481 434 
Q 3481 -459 3084 -895 
Q 2688 -1331 1869 -1331 
Q 1566 -1331 1297 -1286 
Q 1028 -1241 775 -1147 
L 775 -588 
Q 1028 -725 1275 -790 
Q 1522 -856 1778 -856 
Q 2344 -856 2625 -561 
Q 2906 -266 2906 331 
L 2906 616 
Q 2728 306 2450 153 
Q 2172 0 1784 0 
Q 1141 0 747 490 
Q 353 981 353 1791 
Q 353 2603 747 3093 
Q 1141 3584 1784 3584 
Q 2172 3584 2450 3431 
Q 2728 3278 2906 2969 
L 2906 3500 
L 3481 3500 
L 3481 434 
z
" transform="scale(0.015625)"/>
      <path id="DejaVuSans-20" transform="scale(0.015625)"/>
      <path id="DejaVuSans-50" d="M 1259 4147 
L 1259 2394 
L 2053 2394 
Q 2494 2394 2734 2622 
Q 2975 2850 2975 3272 
Q 2975 3691 2734 3919 
Q 2494 4147 2053 4147 
L 1259 4147 
z
M 628 4666 
L 2053 4666 
Q 2838 4666 3239 4311 
Q 3641 3956 3641 3272 
Q 3641 2581 3239 2228 
Q 2838 1875 2053 1875 
L 1259 1875 
L 1259 0 
L 628 0 
L 628 4666 
z
" transform="scale(0.015625)"/>
      <path id="DejaVuSans-72" d="M 2631 2963 
Q 2534 3019 2420 3045 
Q 2306 3072 2169 3072 
Q 1681 3072 1420 2755 
Q 1159 2438 1159 1844 
L 1159 0 
L 581 0 
L 581 3500 
L 1159 3500 
L 1159 2956 
Q 1341 3275 1631 3429 
Q 1922 3584 2338 3584 
Q 2397 3584 2469 3576 
Q 2541 3569 2628 3553 
L 2631 2963 
z
" transform="scale(0.015625)"/>
      <path id="DejaVuSans-63" d="M 3122 3366 
L 3122 2828 
Q 2878 2963 2633 3030 
Q 2388 3097 2138 3097 
Q 1578 3097 1268 2742 
Q 959 2388 959 1747 
Q 959 1106 1268 751 
Q 1578 397 2138 397 
Q 2388 397 2633 464 
Q 2878 531 3122 666 
L 3122 134 
Q 2881 22 2623 -34 
Q 2366 -91 2075 -91 
Q 1284 -91 818 406 
Q 353 903 353 1747 
Q 353 2603 823 3093 
Q 1294 3584 2113 3584 
Q 2378 3584 2631 3529 
Q 2884 3475 3122 3366 
z
" transform="scale(0.015625)"/>
      <path id="DejaVuSans-65" d="M 3597 1894 
L 3597 1613 
L 953 1613 
Q 991 1019 1311 708 
Q 1631 397 2203 397 
Q 2534 397 2845 478 
Q 3156 559 3463 722 
L 3463 178 
Q 3153 47 2828 -22 
Q 2503 -91 2169 -91 
Q 1331 -91 842 396 
Q 353 884 353 1716 
Q 353 2575 817 3079 
Q 1281 3584 2069 3584 
Q 2775 3584 3186 3129 
Q 3597 2675 3597 1894 
z
M 3022 2063 
Q 3016 2534 2758 2815 
Q 2500 3097 2075 3097 
Q 1594 3097 1305 2825 
Q 1016 2553 972 2059 
L 3022 2063 
z
" transform="scale(0.015625)"/>
     </defs>
     <use xlink:href="#DejaVuSans-43"/>
     <use xlink:href="#DejaVuSans-6c" x="69.824219"/>
     <use xlink:href="#DejaVuSans-6f" x="97.607422"/>
     <use xlink:href="#DejaVuSans-73" x="158.789062"/>
     <use xlink:href="#DejaVuSans-69" x="210.888672"/>
     <use xlink:href="#DejaVuSans-6e" x="238.671875"/>
     <use xlink:href="#DejaVuSans-67" x="302.050781"/>
     <use xlink:href="#DejaVuSans-20" x="365.527344"/>
     <use xlink:href="#DejaVuSans-50" x="397.314453"/>
     <use xlink:href="#DejaVuSans-72" x="455.867188"/>
     <use xlink:href="#DejaVuSans-69" x="496.980469"/>
     <use xlink:href="#DejaVuSans-63" x="524.763672"/>
     <use xlink:href="#DejaVuSans-65" x="579.744141"/>
    </g>
   </g>
   <g id="legend_1">
    <g id="patch_7">
     <path d="M 911.144856 85.688125 
L 975.876106 85.688125 
Q 977.876106 85.688125 977.876106 83.688125 
L 977.876106 55.331875 
Q 977.876106 53.331875 975.876106 53.331875 
L 911.144856 53.331875 
Q 909.144856 53.331875 909.144856 55.331875 
L 909.144856 83.688125 
Q 909.144856 85.688125 911.144856 85.688125 
z
" style="fill: #ffffff; opacity: 0.8; stroke: #cccccc; stroke-linejoin: miter"/>
    </g>
    <g id="line2d_43">
     <path d="M 913.144856 61.430312 
L 923.144856 61.430312 
L 933.144856 61.430312 
" style="fill: none; stroke: #1f77b4; stroke-width: 1.5; stroke-linecap: square"/>
    </g>
    <g id="text_10">
     <!-- CLOSE -->
     <g transform="translate(941.144856 64.930312)scale(0.1 -0.1)">
      <defs>
       <path id="DejaVuSans-4c" d="M 628 4666 
L 1259 4666 
L 1259 531 
L 3531 531 
L 3531 0 
L 628 0 
L 628 4666 
z
" transform="scale(0.015625)"/>
       <path id="DejaVuSans-4f" d="M 2522 4238 
Q 1834 4238 1429 3725 
Q 1025 3213 1025 2328 
Q 1025 1447 1429 934 
Q 1834 422 2522 422 
Q 3209 422 3611 934 
Q 4013 1447 4013 2328 
Q 4013 3213 3611 3725 
Q 3209 4238 2522 4238 
z
M 2522 4750 
Q 3503 4750 4090 4092 
Q 4678 3434 4678 2328 
Q 4678 1225 4090 567 
Q 3503 -91 2522 -91 
Q 1538 -91 948 565 
Q 359 1222 359 2328 
Q 359 3434 948 4092 
Q 1538 4750 2522 4750 
z
" transform="scale(0.015625)"/>
       <path id="DejaVuSans-53" d="M 3425 4513 
L 3425 3897 
Q 3066 4069 2747 4153 
Q 2428 4238 2131 4238 
Q 1616 4238 1336 4038 
Q 1056 3838 1056 3469 
Q 1056 3159 1242 3001 
Q 1428 2844 1947 2747 
L 2328 2669 
Q 3034 2534 3370 2195 
Q 3706 1856 3706 1288 
Q 3706 609 3251 259 
Q 2797 -91 1919 -91 
Q 1588 -91 1214 -16 
Q 841 59 441 206 
L 441 856 
Q 825 641 1194 531 
Q 1563 422 1919 422 
Q 2459 422 2753 634 
Q 3047 847 3047 1241 
Q 3047 1584 2836 1778 
Q 2625 1972 2144 2069 
L 1759 2144 
Q 1053 2284 737 2584 
Q 422 2884 422 3419 
Q 422 4038 858 4394 
Q 1294 4750 2059 4750 
Q 2388 4750 2728 4690 
Q 3069 4631 3425 4513 
z
" transform="scale(0.015625)"/>
       <path id="DejaVuSans-45" d="M 628 4666 
L 3578 4666 
L 3578 4134 
L 1259 4134 
L 1259 2753 
L 3481 2753 
L 3481 2222 
L 1259 2222 
L 1259 531 
L 3634 531 
L 3634 0 
L 628 0 
L 628 4666 
z
" transform="scale(0.015625)"/>
      </defs>
      <use xlink:href="#DejaVuSans-43"/>
      <use xlink:href="#DejaVuSans-4c" x="69.824219"/>
      <use xlink:href="#DejaVuSans-4f" x="121.912109"/>
      <use xlink:href="#DejaVuSans-53" x="200.623047"/>
      <use xlink:href="#DejaVuSans-45" x="264.099609"/>
     </g>
    </g>
    <g id="line2d_44">
     <path d="M 913.144856 76.108437 
L 923.144856 76.108437 
L 933.144856 76.108437 
" style="fill: none; stroke: #ff7f0e; stroke-width: 1.5; stroke-linecap: square"/>
    </g>
    <g id="text_11">
     <!-- SMA5 -->
     <g transform="translate(941.144856 79.608437)scale(0.1 -0.1)">
      <defs>
       <path id="DejaVuSans-4d" d="M 628 4666 
L 1569 4666 
L 2759 1491 
L 3956 4666 
L 4897 4666 
L 4897 0 
L 4281 0 
L 4281 4097 
L 3078 897 
L 2444 897 
L 1241 4097 
L 1241 0 
L 628 0 
L 628 4666 
z
" transform="scale(0.015625)"/>
       <path id="DejaVuSans-41" d="M 2188 4044 
L 1331 1722 
L 3047 1722 
L 2188 4044 
z
M 1831 4666 
L 2547 4666 
L 4325 0 
L 3669 0 
L 3244 1197 
L 1141 1197 
L 716 0 
L 50 0 
L 1831 4666 
z
" transform="scale(0.015625)"/>
      </defs>
      <use xlink:href="#DejaVuSans-53"/>
      <use xlink:href="#DejaVuSans-4d" x="63.476562"/>
      <use xlink:href="#DejaVuSans-41" x="149.755859"/>
      <use xlink:href="#DejaVuSans-35" x="218.164062"/>
     </g>
    </g>
   </g>
  </g>
  <g id="axes_2">
   <g id="patch_8">
    <path d="M 45.267188 584.521875 
L 982.876106 584.521875 
L 982.876106 331.135938 
L 45.267188 331.135938 
z
" style="fill: #ffffff"/>
   </g>
   <g id="matplotlib.axis_3">
    <g id="xtick_13">
     <g id="line2d_45">
      <path d="M 82.541751 584.521875 
L 82.541751 331.135938 
" clip-path="url(#p83ffb8f169)" style="fill: none; stroke-dasharray: 2.96,1.28; stroke-dashoffset: 0; stroke: #b0b0b0; stroke-width: 0.8"/>
     </g>
     <g id="line2d_46">
      <g>
       <use xlink:href="#m4b6e799904" x="82.541751" y="584.521875" style="stroke: #000000; stroke-width: 0.8"/>
      </g>
     </g>
     <g id="text_12">
      <!-- 2022-01 -->
      <g transform="translate(61.650345 599.120312)scale(0.1 -0.1)">
       <defs>
        <path id="DejaVuSans-2d" d="M 313 2009 
L 1997 2009 
L 1997 1497 
L 313 1497 
L 313 2009 
z
" transform="scale(0.015625)"/>
       </defs>
       <use xlink:href="#DejaVuSans-32"/>
       <use xlink:href="#DejaVuSans-30" x="63.623047"/>
       <use xlink:href="#DejaVuSans-32" x="127.246094"/>
       <use xlink:href="#DejaVuSans-32" x="190.869141"/>
       <use xlink:href="#DejaVuSans-2d" x="254.492188"/>
       <use xlink:href="#DejaVuSans-30" x="290.576172"/>
       <use xlink:href="#DejaVuSans-31" x="354.199219"/>
      </g>
     </g>
    </g>
    <g id="xtick_14">
     <g id="line2d_47">
      <path d="M 165.374115 584.521875 
L 165.374115 331.135938 
" clip-path="url(#p83ffb8f169)" style="fill: none; stroke-dasharray: 2.96,1.28; stroke-dashoffset: 0; stroke: #b0b0b0; stroke-width: 0.8"/>
     </g>
     <g id="line2d_48">
      <g>
       <use xlink:href="#m4b6e799904" x="165.374115" y="584.521875" style="stroke: #000000; stroke-width: 0.8"/>
      </g>
     </g>
     <g id="text_13">
      <!-- 2022-02 -->
      <g transform="translate(144.482709 599.120312)scale(0.1 -0.1)">
       <use xlink:href="#DejaVuSans-32"/>
       <use xlink:href="#DejaVuSans-30" x="63.623047"/>
       <use xlink:href="#DejaVuSans-32" x="127.246094"/>
       <use xlink:href="#DejaVuSans-32" x="190.869141"/>
       <use xlink:href="#DejaVuSans-2d" x="254.492188"/>
       <use xlink:href="#DejaVuSans-30" x="290.576172"/>
       <use xlink:href="#DejaVuSans-32" x="354.199219"/>
      </g>
     </g>
    </g>
    <g id="xtick_15">
     <g id="line2d_49">
      <path d="M 240.190444 584.521875 
L 240.190444 331.135938 
" clip-path="url(#p83ffb8f169)" style="fill: none; stroke-dasharray: 2.96,1.28; stroke-dashoffset: 0; stroke: #b0b0b0; stroke-width: 0.8"/>
     </g>
     <g id="line2d_50">
      <g>
       <use xlink:href="#m4b6e799904" x="240.190444" y="584.521875" style="stroke: #000000; stroke-width: 0.8"/>
      </g>
     </g>
     <g id="text_14">
      <!-- 2022-03 -->
      <g transform="translate(219.299037 599.120312)scale(0.1 -0.1)">
       <defs>
        <path id="DejaVuSans-33" d="M 2597 2516 
Q 3050 2419 3304 2112 
Q 3559 1806 3559 1356 
Q 3559 666 3084 287 
Q 2609 -91 1734 -91 
Q 1441 -91 1130 -33 
Q 819 25 488 141 
L 488 750 
Q 750 597 1062 519 
Q 1375 441 1716 441 
Q 2309 441 2620 675 
Q 2931 909 2931 1356 
Q 2931 1769 2642 2001 
Q 2353 2234 1838 2234 
L 1294 2234 
L 1294 2753 
L 1863 2753 
Q 2328 2753 2575 2939 
Q 2822 3125 2822 3475 
Q 2822 3834 2567 4026 
Q 2313 4219 1838 4219 
Q 1578 4219 1281 4162 
Q 984 4106 628 3988 
L 628 4550 
Q 988 4650 1302 4700 
Q 1616 4750 1894 4750 
Q 2613 4750 3031 4423 
Q 3450 4097 3450 3541 
Q 3450 3153 3228 2886 
Q 3006 2619 2597 2516 
z
" transform="scale(0.015625)"/>
       </defs>
       <use xlink:href="#DejaVuSans-32"/>
       <use xlink:href="#DejaVuSans-30" x="63.623047"/>
       <use xlink:href="#DejaVuSans-32" x="127.246094"/>
       <use xlink:href="#DejaVuSans-32" x="190.869141"/>
       <use xlink:href="#DejaVuSans-2d" x="254.492188"/>
       <use xlink:href="#DejaVuSans-30" x="290.576172"/>
       <use xlink:href="#DejaVuSans-33" x="354.199219"/>
      </g>
     </g>
    </g>
    <g id="xtick_16">
     <g id="line2d_51">
      <path d="M 323.022808 584.521875 
L 323.022808 331.135938 
" clip-path="url(#p83ffb8f169)" style="fill: none; stroke-dasharray: 2.96,1.28; stroke-dashoffset: 0; stroke: #b0b0b0; stroke-width: 0.8"/>
     </g>
     <g id="line2d_52">
      <g>
       <use xlink:href="#m4b6e799904" x="323.022808" y="584.521875" style="stroke: #000000; stroke-width: 0.8"/>
      </g>
     </g>
     <g id="text_15">
      <!-- 2022-04 -->
      <g transform="translate(302.131401 599.120312)scale(0.1 -0.1)">
       <defs>
        <path id="DejaVuSans-34" d="M 2419 4116 
L 825 1625 
L 2419 1625 
L 2419 4116 
z
M 2253 4666 
L 3047 4666 
L 3047 1625 
L 3713 1625 
L 3713 1100 
L 3047 1100 
L 3047 0 
L 2419 0 
L 2419 1100 
L 313 1100 
L 313 1709 
L 2253 4666 
z
" transform="scale(0.015625)"/>
       </defs>
       <use xlink:href="#DejaVuSans-32"/>
       <use xlink:href="#DejaVuSans-30" x="63.623047"/>
       <use xlink:href="#DejaVuSans-32" x="127.246094"/>
       <use xlink:href="#DejaVuSans-32" x="190.869141"/>
       <use xlink:href="#DejaVuSans-2d" x="254.492188"/>
       <use xlink:href="#DejaVuSans-30" x="290.576172"/>
       <use xlink:href="#DejaVuSans-34" x="354.199219"/>
      </g>
     </g>
    </g>
    <g id="xtick_17">
     <g id="line2d_53">
      <path d="M 403.18316 584.521875 
L 403.18316 331.135938 
" clip-path="url(#p83ffb8f169)" style="fill: none; stroke-dasharray: 2.96,1.28; stroke-dashoffset: 0; stroke: #b0b0b0; stroke-width: 0.8"/>
     </g>
     <g id="line2d_54">
      <g>
       <use xlink:href="#m4b6e799904" x="403.18316" y="584.521875" style="stroke: #000000; stroke-width: 0.8"/>
      </g>
     </g>
     <g id="text_16">
      <!-- 2022-05 -->
      <g transform="translate(382.291753 599.120312)scale(0.1 -0.1)">
       <use xlink:href="#DejaVuSans-32"/>
       <use xlink:href="#DejaVuSans-30" x="63.623047"/>
       <use xlink:href="#DejaVuSans-32" x="127.246094"/>
       <use xlink:href="#DejaVuSans-32" x="190.869141"/>
       <use xlink:href="#DejaVuSans-2d" x="254.492188"/>
       <use xlink:href="#DejaVuSans-30" x="290.576172"/>
       <use xlink:href="#DejaVuSans-35" x="354.199219"/>
      </g>
     </g>
    </g>
    <g id="xtick_18">
     <g id="line2d_55">
      <path d="M 486.015523 584.521875 
L 486.015523 331.135938 
" clip-path="url(#p83ffb8f169)" style="fill: none; stroke-dasharray: 2.96,1.28; stroke-dashoffset: 0; stroke: #b0b0b0; stroke-width: 0.8"/>
     </g>
     <g id="line2d_56">
      <g>
       <use xlink:href="#m4b6e799904" x="486.015523" y="584.521875" style="stroke: #000000; stroke-width: 0.8"/>
      </g>
     </g>
     <g id="text_17">
      <!-- 2022-06 -->
      <g transform="translate(465.124117 599.120312)scale(0.1 -0.1)">
       <defs>
        <path id="DejaVuSans-36" d="M 2113 2584 
Q 1688 2584 1439 2293 
Q 1191 2003 1191 1497 
Q 1191 994 1439 701 
Q 1688 409 2113 409 
Q 2538 409 2786 701 
Q 3034 994 3034 1497 
Q 3034 2003 2786 2293 
Q 2538 2584 2113 2584 
z
M 3366 4563 
L 3366 3988 
Q 3128 4100 2886 4159 
Q 2644 4219 2406 4219 
Q 1781 4219 1451 3797 
Q 1122 3375 1075 2522 
Q 1259 2794 1537 2939 
Q 1816 3084 2150 3084 
Q 2853 3084 3261 2657 
Q 3669 2231 3669 1497 
Q 3669 778 3244 343 
Q 2819 -91 2113 -91 
Q 1303 -91 875 529 
Q 447 1150 447 2328 
Q 447 3434 972 4092 
Q 1497 4750 2381 4750 
Q 2619 4750 2861 4703 
Q 3103 4656 3366 4563 
z
" transform="scale(0.015625)"/>
       </defs>
       <use xlink:href="#DejaVuSans-32"/>
       <use xlink:href="#DejaVuSans-30" x="63.623047"/>
       <use xlink:href="#DejaVuSans-32" x="127.246094"/>
       <use xlink:href="#DejaVuSans-32" x="190.869141"/>
       <use xlink:href="#DejaVuSans-2d" x="254.492188"/>
       <use xlink:href="#DejaVuSans-30" x="290.576172"/>
       <use xlink:href="#DejaVuSans-36" x="354.199219"/>
      </g>
     </g>
    </g>
    <g id="xtick_19">
     <g id="line2d_57">
      <path d="M 566.175876 584.521875 
L 566.175876 331.135938 
" clip-path="url(#p83ffb8f169)" style="fill: none; stroke-dasharray: 2.96,1.28; stroke-dashoffset: 0; stroke: #b0b0b0; stroke-width: 0.8"/>
     </g>
     <g id="line2d_58">
      <g>
       <use xlink:href="#m4b6e799904" x="566.175876" y="584.521875" style="stroke: #000000; stroke-width: 0.8"/>
      </g>
     </g>
     <g id="text_18">
      <!-- 2022-07 -->
      <g transform="translate(545.284469 599.120312)scale(0.1 -0.1)">
       <use xlink:href="#DejaVuSans-32"/>
       <use xlink:href="#DejaVuSans-30" x="63.623047"/>
       <use xlink:href="#DejaVuSans-32" x="127.246094"/>
       <use xlink:href="#DejaVuSans-32" x="190.869141"/>
       <use xlink:href="#DejaVuSans-2d" x="254.492188"/>
       <use xlink:href="#DejaVuSans-30" x="290.576172"/>
       <use xlink:href="#DejaVuSans-37" x="354.199219"/>
      </g>
     </g>
    </g>
    <g id="xtick_20">
     <g id="line2d_59">
      <path d="M 649.008239 584.521875 
L 649.008239 331.135938 
" clip-path="url(#p83ffb8f169)" style="fill: none; stroke-dasharray: 2.96,1.28; stroke-dashoffset: 0; stroke: #b0b0b0; stroke-width: 0.8"/>
     </g>
     <g id="line2d_60">
      <g>
       <use xlink:href="#m4b6e799904" x="649.008239" y="584.521875" style="stroke: #000000; stroke-width: 0.8"/>
      </g>
     </g>
     <g id="text_19">
      <!-- 2022-08 -->
      <g transform="translate(628.116833 599.120312)scale(0.1 -0.1)">
       <defs>
        <path id="DejaVuSans-38" d="M 2034 2216 
Q 1584 2216 1326 1975 
Q 1069 1734 1069 1313 
Q 1069 891 1326 650 
Q 1584 409 2034 409 
Q 2484 409 2743 651 
Q 3003 894 3003 1313 
Q 3003 1734 2745 1975 
Q 2488 2216 2034 2216 
z
M 1403 2484 
Q 997 2584 770 2862 
Q 544 3141 544 3541 
Q 544 4100 942 4425 
Q 1341 4750 2034 4750 
Q 2731 4750 3128 4425 
Q 3525 4100 3525 3541 
Q 3525 3141 3298 2862 
Q 3072 2584 2669 2484 
Q 3125 2378 3379 2068 
Q 3634 1759 3634 1313 
Q 3634 634 3220 271 
Q 2806 -91 2034 -91 
Q 1263 -91 848 271 
Q 434 634 434 1313 
Q 434 1759 690 2068 
Q 947 2378 1403 2484 
z
M 1172 3481 
Q 1172 3119 1398 2916 
Q 1625 2713 2034 2713 
Q 2441 2713 2670 2916 
Q 2900 3119 2900 3481 
Q 2900 3844 2670 4047 
Q 2441 4250 2034 4250 
Q 1625 4250 1398 4047 
Q 1172 3844 1172 3481 
z
" transform="scale(0.015625)"/>
       </defs>
       <use xlink:href="#DejaVuSans-32"/>
       <use xlink:href="#DejaVuSans-30" x="63.623047"/>
       <use xlink:href="#DejaVuSans-32" x="127.246094"/>
       <use xlink:href="#DejaVuSans-32" x="190.869141"/>
       <use xlink:href="#DejaVuSans-2d" x="254.492188"/>
       <use xlink:href="#DejaVuSans-30" x="290.576172"/>
       <use xlink:href="#DejaVuSans-38" x="354.199219"/>
      </g>
     </g>
    </g>
    <g id="xtick_21">
     <g id="line2d_61">
      <path d="M 731.840603 584.521875 
L 731.840603 331.135938 
" clip-path="url(#p83ffb8f169)" style="fill: none; stroke-dasharray: 2.96,1.28; stroke-dashoffset: 0; stroke: #b0b0b0; stroke-width: 0.8"/>
     </g>
     <g id="line2d_62">
      <g>
       <use xlink:href="#m4b6e799904" x="731.840603" y="584.521875" style="stroke: #000000; stroke-width: 0.8"/>
      </g>
     </g>
     <g id="text_20">
      <!-- 2022-09 -->
      <g transform="translate(710.949197 599.120312)scale(0.1 -0.1)">
       <defs>
        <path id="DejaVuSans-39" d="M 703 97 
L 703 672 
Q 941 559 1184 500 
Q 1428 441 1663 441 
Q 2288 441 2617 861 
Q 2947 1281 2994 2138 
Q 2813 1869 2534 1725 
Q 2256 1581 1919 1581 
Q 1219 1581 811 2004 
Q 403 2428 403 3163 
Q 403 3881 828 4315 
Q 1253 4750 1959 4750 
Q 2769 4750 3195 4129 
Q 3622 3509 3622 2328 
Q 3622 1225 3098 567 
Q 2575 -91 1691 -91 
Q 1453 -91 1209 -44 
Q 966 3 703 97 
z
M 1959 2075 
Q 2384 2075 2632 2365 
Q 2881 2656 2881 3163 
Q 2881 3666 2632 3958 
Q 2384 4250 1959 4250 
Q 1534 4250 1286 3958 
Q 1038 3666 1038 3163 
Q 1038 2656 1286 2365 
Q 1534 2075 1959 2075 
z
" transform="scale(0.015625)"/>
       </defs>
       <use xlink:href="#DejaVuSans-32"/>
       <use xlink:href="#DejaVuSans-30" x="63.623047"/>
       <use xlink:href="#DejaVuSans-32" x="127.246094"/>
       <use xlink:href="#DejaVuSans-32" x="190.869141"/>
       <use xlink:href="#DejaVuSans-2d" x="254.492188"/>
       <use xlink:href="#DejaVuSans-30" x="290.576172"/>
       <use xlink:href="#DejaVuSans-39" x="354.199219"/>
      </g>
     </g>
    </g>
    <g id="xtick_22">
     <g id="line2d_63">
      <path d="M 812.000955 584.521875 
L 812.000955 331.135938 
" clip-path="url(#p83ffb8f169)" style="fill: none; stroke-dasharray: 2.96,1.28; stroke-dashoffset: 0; stroke: #b0b0b0; stroke-width: 0.8"/>
     </g>
     <g id="line2d_64">
      <g>
       <use xlink:href="#m4b6e799904" x="812.000955" y="584.521875" style="stroke: #000000; stroke-width: 0.8"/>
      </g>
     </g>
     <g id="text_21">
      <!-- 2022-10 -->
      <g transform="translate(791.109549 599.120312)scale(0.1 -0.1)">
       <use xlink:href="#DejaVuSans-32"/>
       <use xlink:href="#DejaVuSans-30" x="63.623047"/>
       <use xlink:href="#DejaVuSans-32" x="127.246094"/>
       <use xlink:href="#DejaVuSans-32" x="190.869141"/>
       <use xlink:href="#DejaVuSans-2d" x="254.492188"/>
       <use xlink:href="#DejaVuSans-31" x="290.576172"/>
       <use xlink:href="#DejaVuSans-30" x="354.199219"/>
      </g>
     </g>
    </g>
    <g id="xtick_23">
     <g id="line2d_65">
      <path d="M 894.833319 584.521875 
L 894.833319 331.135938 
" clip-path="url(#p83ffb8f169)" style="fill: none; stroke-dasharray: 2.96,1.28; stroke-dashoffset: 0; stroke: #b0b0b0; stroke-width: 0.8"/>
     </g>
     <g id="line2d_66">
      <g>
       <use xlink:href="#m4b6e799904" x="894.833319" y="584.521875" style="stroke: #000000; stroke-width: 0.8"/>
      </g>
     </g>
     <g id="text_22">
      <!-- 2022-11 -->
      <g transform="translate(873.941913 599.120312)scale(0.1 -0.1)">
       <use xlink:href="#DejaVuSans-32"/>
       <use xlink:href="#DejaVuSans-30" x="63.623047"/>
       <use xlink:href="#DejaVuSans-32" x="127.246094"/>
       <use xlink:href="#DejaVuSans-32" x="190.869141"/>
       <use xlink:href="#DejaVuSans-2d" x="254.492188"/>
       <use xlink:href="#DejaVuSans-31" x="290.576172"/>
       <use xlink:href="#DejaVuSans-31" x="354.199219"/>
      </g>
     </g>
    </g>
    <g id="xtick_24">
     <g id="line2d_67">
      <path d="M 974.993671 584.521875 
L 974.993671 331.135938 
" clip-path="url(#p83ffb8f169)" style="fill: none; stroke-dasharray: 2.96,1.28; stroke-dashoffset: 0; stroke: #b0b0b0; stroke-width: 0.8"/>
     </g>
     <g id="line2d_68">
      <g>
       <use xlink:href="#m4b6e799904" x="974.993671" y="584.521875" style="stroke: #000000; stroke-width: 0.8"/>
      </g>
     </g>
     <g id="text_23">
      <!-- 2022-12 -->
      <g transform="translate(954.102265 599.120312)scale(0.1 -0.1)">
       <use xlink:href="#DejaVuSans-32"/>
       <use xlink:href="#DejaVuSans-30" x="63.623047"/>
       <use xlink:href="#DejaVuSans-32" x="127.246094"/>
       <use xlink:href="#DejaVuSans-32" x="190.869141"/>
       <use xlink:href="#DejaVuSans-2d" x="254.492188"/>
       <use xlink:href="#DejaVuSans-31" x="290.576172"/>
       <use xlink:href="#DejaVuSans-32" x="354.199219"/>
      </g>
     </g>
    </g>
   </g>
   <g id="matplotlib.axis_4">
    <g id="ytick_9">
     <g id="line2d_69">
      <path d="M 45.267188 553.62455 
L 982.876106 553.62455 
" clip-path="url(#p83ffb8f169)" style="fill: none; stroke-dasharray: 2.96,1.28; stroke-dashoffset: 0; stroke: #b0b0b0; stroke-width: 0.8"/>
     </g>
     <g id="line2d_70">
      <g>
       <use xlink:href="#m543f5ba4de" x="45.267188" y="553.62455" style="stroke: #000000; stroke-width: 0.8"/>
      </g>
     </g>
     <g id="text_24">
      <!-- 250 -->
      <g transform="translate(10.8 557.423769)scale(0.1 -0.1)">
       <defs>
        <path id="DejaVuSans-2212" d="M 678 2272 
L 4684 2272 
L 4684 1741 
L 678 1741 
L 678 2272 
z
" transform="scale(0.015625)"/>
       </defs>
       <use xlink:href="#DejaVuSans-2212"/>
       <use xlink:href="#DejaVuSans-32" x="83.789062"/>
       <use xlink:href="#DejaVuSans-35" x="147.412109"/>
       <use xlink:href="#DejaVuSans-30" x="211.035156"/>
      </g>
     </g>
    </g>
    <g id="ytick_10">
     <g id="line2d_71">
      <path d="M 45.267188 522.389192 
L 982.876106 522.389192 
" clip-path="url(#p83ffb8f169)" style="fill: none; stroke-dasharray: 2.96,1.28; stroke-dashoffset: 0; stroke: #b0b0b0; stroke-width: 0.8"/>
     </g>
     <g id="line2d_72">
      <g>
       <use xlink:href="#m543f5ba4de" x="45.267188" y="522.389192" style="stroke: #000000; stroke-width: 0.8"/>
      </g>
     </g>
     <g id="text_25">
      <!-- 200 -->
      <g transform="translate(10.8 526.188411)scale(0.1 -0.1)">
       <use xlink:href="#DejaVuSans-2212"/>
       <use xlink:href="#DejaVuSans-32" x="83.789062"/>
       <use xlink:href="#DejaVuSans-30" x="147.412109"/>
       <use xlink:href="#DejaVuSans-30" x="211.035156"/>
      </g>
     </g>
    </g>
    <g id="ytick_11">
     <g id="line2d_73">
      <path d="M 45.267188 491.153834 
L 982.876106 491.153834 
" clip-path="url(#p83ffb8f169)" style="fill: none; stroke-dasharray: 2.96,1.28; stroke-dashoffset: 0; stroke: #b0b0b0; stroke-width: 0.8"/>
     </g>
     <g id="line2d_74">
      <g>
       <use xlink:href="#m543f5ba4de" x="45.267188" y="491.153834" style="stroke: #000000; stroke-width: 0.8"/>
      </g>
     </g>
     <g id="text_26">
      <!-- 150 -->
      <g transform="translate(10.8 494.953053)scale(0.1 -0.1)">
       <use xlink:href="#DejaVuSans-2212"/>
       <use xlink:href="#DejaVuSans-31" x="83.789062"/>
       <use xlink:href="#DejaVuSans-35" x="147.412109"/>
       <use xlink:href="#DejaVuSans-30" x="211.035156"/>
      </g>
     </g>
    </g>
    <g id="ytick_12">
     <g id="line2d_75">
      <path d="M 45.267188 459.918477 
L 982.876106 459.918477 
" clip-path="url(#p83ffb8f169)" style="fill: none; stroke-dasharray: 2.96,1.28; stroke-dashoffset: 0; stroke: #b0b0b0; stroke-width: 0.8"/>
     </g>
     <g id="line2d_76">
      <g>
       <use xlink:href="#m543f5ba4de" x="45.267188" y="459.918477" style="stroke: #000000; stroke-width: 0.8"/>
      </g>
     </g>
     <g id="text_27">
      <!-- 100 -->
      <g transform="translate(10.8 463.717695)scale(0.1 -0.1)">
       <use xlink:href="#DejaVuSans-2212"/>
       <use xlink:href="#DejaVuSans-31" x="83.789062"/>
       <use xlink:href="#DejaVuSans-30" x="147.412109"/>
       <use xlink:href="#DejaVuSans-30" x="211.035156"/>
      </g>
     </g>
    </g>
    <g id="ytick_13">
     <g id="line2d_77">
      <path d="M 45.267188 428.683119 
L 982.876106 428.683119 
" clip-path="url(#p83ffb8f169)" style="fill: none; stroke-dasharray: 2.96,1.28; stroke-dashoffset: 0; stroke: #b0b0b0; stroke-width: 0.8"/>
     </g>
     <g id="line2d_78">
      <g>
       <use xlink:href="#m543f5ba4de" x="45.267188" y="428.683119" style="stroke: #000000; stroke-width: 0.8"/>
      </g>
     </g>
     <g id="text_28">
      <!-- 50 -->
      <g transform="translate(17.1625 432.482337)scale(0.1 -0.1)">
       <use xlink:href="#DejaVuSans-2212"/>
       <use xlink:href="#DejaVuSans-35" x="83.789062"/>
       <use xlink:href="#DejaVuSans-30" x="147.412109"/>
      </g>
     </g>
    </g>
    <g id="ytick_14">
     <g id="line2d_79">
      <path d="M 45.267188 397.447761 
L 982.876106 397.447761 
" clip-path="url(#p83ffb8f169)" style="fill: none; stroke-dasharray: 2.96,1.28; stroke-dashoffset: 0; stroke: #b0b0b0; stroke-width: 0.8"/>
     </g>
     <g id="line2d_80">
      <g>
       <use xlink:href="#m543f5ba4de" x="45.267188" y="397.447761" style="stroke: #000000; stroke-width: 0.8"/>
      </g>
     </g>
     <g id="text_29">
      <!-- 0 -->
      <g transform="translate(31.904688 401.246979)scale(0.1 -0.1)">
       <use xlink:href="#DejaVuSans-30"/>
      </g>
     </g>
    </g>
    <g id="ytick_15">
     <g id="line2d_81">
      <path d="M 45.267188 366.212403 
L 982.876106 366.212403 
" clip-path="url(#p83ffb8f169)" style="fill: none; stroke-dasharray: 2.96,1.28; stroke-dashoffset: 0; stroke: #b0b0b0; stroke-width: 0.8"/>
     </g>
     <g id="line2d_82">
      <g>
       <use xlink:href="#m543f5ba4de" x="45.267188" y="366.212403" style="stroke: #000000; stroke-width: 0.8"/>
      </g>
     </g>
     <g id="text_30">
      <!-- 50 -->
      <g transform="translate(25.542188 370.011621)scale(0.1 -0.1)">
       <use xlink:href="#DejaVuSans-35"/>
       <use xlink:href="#DejaVuSans-30" x="63.623047"/>
      </g>
     </g>
    </g>
    <g id="ytick_16">
     <g id="line2d_83">
      <path d="M 45.267188 334.977045 
L 982.876106 334.977045 
" clip-path="url(#p83ffb8f169)" style="fill: none; stroke-dasharray: 2.96,1.28; stroke-dashoffset: 0; stroke: #b0b0b0; stroke-width: 0.8"/>
     </g>
     <g id="line2d_84">
      <g>
       <use xlink:href="#m543f5ba4de" x="45.267188" y="334.977045" style="stroke: #000000; stroke-width: 0.8"/>
      </g>
     </g>
     <g id="text_31">
      <!-- 100 -->
      <g transform="translate(19.179688 338.776264)scale(0.1 -0.1)">
       <use xlink:href="#DejaVuSans-31"/>
       <use xlink:href="#DejaVuSans-30" x="63.623047"/>
       <use xlink:href="#DejaVuSans-30" x="127.246094"/>
      </g>
     </g>
    </g>
   </g>
   <g id="line2d_85">
    <path d="M 87.885775 397.447761 
L 90.557786 397.059521 
L 93.229798 398.327519 
L 95.90181 399.783734 
L 98.573822 400.468666 
L 106.589857 400.820949 
L 109.261869 401.652412 
L 111.93388 401.285166 
L 114.605892 399.463061 
L 117.277904 398.202326 
L 127.965951 396.366606 
L 130.637962 397.08977 
L 133.309974 396.728766 
L 135.981986 398.413777 
L 143.998021 409.620202 
L 146.670033 420.926681 
L 152.014056 430.827596 
L 154.686068 437.15692 
L 162.702103 441.232314 
L 165.374115 441.70093 
L 170.718139 431.526526 
L 173.39015 425.404339 
L 181.406185 419.583148 
L 184.078197 416.252932 
L 186.750209 413.972064 
L 189.422221 418.183259 
L 192.094232 424.224776 
L 200.110268 434.53107 
L 202.782279 443.135545 
L 205.454291 448.842641 
L 210.798315 461.913305 
L 218.81435 469.725887 
L 221.486362 474.840416 
L 224.158373 476.033491 
L 226.830385 479.245137 
L 229.502397 481.280347 
L 237.518432 482.082819 
L 242.862455 475.932675 
L 245.534467 465.807445 
L 248.206479 456.843837 
L 256.222514 456.987368 
L 258.894526 455.771991 
L 261.566538 452.224934 
L 264.238549 449.094922 
L 266.910561 446.391209 
L 274.926596 443.872497 
L 277.598608 439.495699 
L 280.27062 432.001074 
L 282.942631 423.078327 
L 293.630678 418.104337 
L 296.30269 411.740255 
L 298.974702 407.049159 
L 301.646714 401.133961 
L 304.318725 395.724307 
L 312.334761 391.410178 
L 315.006772 386.873455 
L 317.678784 379.66533 
L 320.350796 374.78236 
L 323.022808 370.980867 
L 331.038843 363.582745 
L 333.710854 357.774926 
L 336.382866 354.049021 
L 339.054878 351.377399 
L 341.72689 346.702002 
L 349.742925 342.65348 
L 352.414937 344.600905 
L 355.086948 345.051998 
L 368.447007 345.471754 
L 371.119019 346.447892 
L 373.791031 349.48776 
L 379.135054 352.970411 
L 387.151089 361.603917 
L 389.823101 367.628164 
L 392.495113 373.321749 
L 395.167124 377.323954 
L 397.839136 381.579183 
L 405.855171 383.723434 
L 411.199195 389.286092 
L 413.871207 396.309646 
L 416.543218 404.61944 
L 424.559254 415.751123 
L 427.231265 428.628796 
L 429.903277 442.618512 
L 432.575289 452.324858 
L 435.2473 458.151441 
L 443.263336 456.395872 
L 445.935347 452.030753 
L 448.607359 446.661672 
L 451.279371 443.480329 
L 453.951383 440.010014 
L 461.967418 437.493324 
L 464.63943 438.001209 
L 467.311441 439.570626 
L 472.655465 441.298079 
L 480.6715 438.980191 
L 483.343512 432.053107 
L 486.015523 428.186829 
L 488.687535 423.96796 
L 491.359547 420.958176 
L 499.375582 419.779422 
L 502.047594 417.537721 
L 504.719606 416.964904 
L 510.063629 413.762383 
L 518.079664 411.807383 
L 523.423688 408.326918 
L 526.095699 408.521935 
L 528.767711 410.930253 
L 536.783746 413.09945 
L 539.455758 413.576693 
L 542.12777 415.570583 
L 547.471793 410.837017 
L 555.487829 407.088466 
L 558.15984 405.671144 
L 560.831852 405.072432 
L 563.503864 405.537991 
L 566.175876 405.456748 
L 574.191911 406.22121 
L 576.863922 407.325614 
L 579.535934 407.143976 
L 582.207946 404.344766 
L 584.879958 405.035563 
L 592.895993 404.673068 
L 595.568005 404.760196 
L 598.240016 403.020924 
L 600.912028 402.576436 
L 603.58404 402.516081 
L 611.600075 402.79973 
L 614.272087 403.235052 
L 616.944099 403.011835 
L 619.61611 402.564241 
L 622.288122 399.970072 
L 630.304157 398.903032 
L 632.976169 397.043816 
L 635.648181 396.508702 
L 640.992204 399.056015 
L 649.008239 399.057416 
L 651.680251 397.911439 
L 657.024275 395.960914 
L 659.696286 396.865849 
L 667.712322 397.334798 
L 673.056345 399.006649 
L 675.728357 398.898408 
L 678.400368 399.766341 
L 689.088415 400.382547 
L 691.760427 400.757133 
L 694.432439 401.683165 
L 697.104451 401.774874 
L 705.120486 403.065687 
L 707.792498 404.468966 
L 710.464509 406.041545 
L 713.136521 406.632497 
L 715.808533 406.901123 
L 723.824568 407.99306 
L 726.49658 406.533202 
L 742.52865 406.241623 
L 745.200662 406.52862 
L 753.216697 406.992682 
L 761.232732 407.455841 
L 763.904744 406.603329 
L 769.248768 407.298128 
L 771.920779 406.469125 
L 779.936814 406.591403 
L 782.608826 407.20593 
L 785.280838 408.049618 
L 787.95285 408.188643 
L 790.624861 408.987459 
L 798.640897 410.97683 
L 801.312908 411.808184 
L 803.98492 412.834086 
L 806.656932 413.133608 
L 809.328944 413.822414 
L 817.344979 412.575794 
L 820.016991 411.264738 
L 825.361014 411.231267 
L 828.033026 411.050459 
L 836.049061 410.626706 
L 841.393084 412.306466 
L 844.065096 414.722192 
L 846.737108 416.796735 
L 854.753143 420.528844 
L 857.425155 424.004618 
L 860.097167 426.01652 
L 862.769178 426.699116 
L 865.44119 428.318348 
L 873.457225 428.806601 
L 876.129237 430.456365 
L 881.47326 434.457484 
L 884.145272 440.452081 
L 892.161307 436.226681 
L 894.833319 430.847172 
L 897.505331 427.861481 
L 900.177343 426.421524 
L 902.849354 426.131778 
L 910.86539 424.209938 
L 916.209413 425.977335 
L 918.881425 470.494826 
L 921.553437 503.564007 
L 929.569472 528.076729 
L 932.241483 546.767462 
L 934.913495 560.08829 
L 937.585507 568.614073 
L 940.257519 573.004332 
L 940.257519 573.004332 
" clip-path="url(#p83ffb8f169)" style="fill: none; stroke: #1f77b4; stroke-width: 1.5; stroke-linecap: square"/>
   </g>
   <g id="line2d_86">
    <path d="M 87.885775 397.447761 
L 90.557786 397.232072 
L 93.229798 397.681026 
L 98.573822 399.010692 
L 106.589857 399.501373 
L 109.261869 400.045743 
L 111.93388 400.3436 
L 114.605892 400.140191 
L 117.277904 399.705997 
L 125.293939 399.075962 
L 127.965951 398.494106 
L 133.309974 397.889765 
L 135.981986 397.998389 
L 143.998021 400.390072 
L 146.670033 404.592013 
L 152.014056 409.935387 
L 154.686068 415.459302 
L 162.702103 420.674026 
L 165.374115 424.918556 
L 168.046127 427.264245 
L 170.718139 428.121763 
L 181.406185 425.971127 
L 186.750209 422.006818 
L 189.422221 421.240624 
L 192.094232 421.83838 
L 200.110268 424.380064 
L 202.782279 428.134879 
L 205.454291 432.279715 
L 208.126303 436.887667 
L 210.798315 441.895334 
L 218.81435 447.463704 
L 221.486362 452.940823 
L 224.158373 457.560556 
L 226.830385 461.898373 
L 229.502397 465.775412 
L 237.518432 469.037327 
L 242.862455 470.416543 
L 245.534467 469.494645 
L 248.206479 466.964311 
L 256.222514 464.968814 
L 258.894526 463.129369 
L 261.566538 460.948406 
L 266.910561 456.140302 
L 274.926596 453.686697 
L 277.598608 450.848457 
L 280.27062 447.078937 
L 282.942631 442.278771 
L 293.630678 437.443849 
L 304.318725 416.767728 
L 312.334761 411.696206 
L 315.006772 406.731646 
L 320.350796 396.011165 
L 323.022808 391.005101 
L 331.038843 385.520625 
L 333.710854 379.971482 
L 336.382866 374.786987 
L 341.72689 365.424453 
L 349.742925 360.870257 
L 352.414937 357.616386 
L 355.086948 355.103508 
L 368.447007 353.177157 
L 371.119019 351.831304 
L 373.791031 351.362595 
L 376.463042 351.338327 
L 379.135054 351.664744 
L 387.151089 353.652579 
L 389.823101 356.447696 
L 395.167124 363.322796 
L 397.839136 366.974074 
L 405.855171 370.323946 
L 411.199195 374.116375 
L 413.871207 378.555029 
L 416.543218 383.767911 
L 424.559254 390.164554 
L 427.231265 397.857402 
L 435.2473 424.360425 
L 443.263336 430.767515 
L 445.935347 435.020162 
L 448.607359 437.348464 
L 451.279371 438.574837 
L 453.951383 438.861873 
L 464.63943 438.470772 
L 467.311441 438.690743 
L 472.655465 439.492042 
L 480.6715 439.389672 
L 483.343512 437.922359 
L 486.015523 435.975253 
L 491.359547 431.050671 
L 499.375582 428.796421 
L 502.047594 426.544681 
L 507.391617 422.779865 
L 510.063629 420.976369 
L 518.079664 419.142572 
L 523.423688 415.535354 
L 526.095699 414.13267 
L 528.767711 413.492187 
L 539.455758 413.44625 
L 542.12777 413.871117 
L 544.799782 413.726231 
L 547.471793 413.148388 
L 555.487829 411.936404 
L 558.15984 410.683352 
L 560.831852 409.561168 
L 563.503864 408.756533 
L 566.175876 408.096576 
L 579.535934 407.542655 
L 582.207946 406.903077 
L 584.879958 406.529574 
L 592.895993 406.158273 
L 595.568005 405.878658 
L 600.912028 404.760976 
L 603.58404 404.311997 
L 614.272087 403.854645 
L 619.61611 403.461715 
L 622.288122 402.763386 
L 630.304157 401.991316 
L 635.648181 400.103193 
L 638.320192 399.648928 
L 640.992204 399.530345 
L 649.008239 399.435759 
L 651.680251 399.130895 
L 659.696286 397.889749 
L 667.712322 397.778759 
L 675.728357 398.199151 
L 678.400368 398.512589 
L 689.088415 398.886581 
L 694.432439 399.745186 
L 697.104451 400.151124 
L 705.120486 400.734036 
L 707.792498 401.481022 
L 713.136521 403.241001 
L 715.808533 403.973025 
L 726.49658 405.128266 
L 734.512615 405.604463 
L 742.52865 405.731895 
L 753.216697 406.353316 
L 769.248768 406.778637 
L 771.920779 406.716734 
L 779.936814 406.691668 
L 782.608826 406.794521 
L 798.640897 408.288822 
L 809.328944 411.112883 
L 817.344979 411.405465 
L 838.721073 411.215497 
L 841.393084 411.433691 
L 844.065096 412.091391 
L 846.737108 413.03246 
L 854.753143 414.531737 
L 860.097167 418.344354 
L 865.44119 421.675915 
L 873.457225 423.102052 
L 876.129237 424.572915 
L 881.47326 426.549828 
L 884.145272 429.330279 
L 892.161307 430.709559 
L 894.833319 430.737082 
L 897.505331 430.161962 
L 902.849354 428.757455 
L 910.86539 427.847952 
L 916.209413 427.473828 
L 918.881425 436.078028 
L 921.553437 449.575224 
L 929.569472 465.275525 
L 934.913495 497.276788 
L 937.585507 511.544245 
L 940.257519 523.836262 
L 940.257519 523.836262 
" clip-path="url(#p83ffb8f169)" style="fill: none; stroke: #ff7f0e; stroke-width: 1.5; stroke-linecap: square"/>
   </g>
   <g id="patch_9">
    <path d="M 45.267188 584.521875 
L 45.267188 331.135938 
" style="fill: none; stroke: #000000; stroke-width: 0.8; stroke-linejoin: miter; stroke-linecap: square"/>
   </g>
   <g id="patch_10">
    <path d="M 982.876106 584.521875 
L 982.876106 331.135938 
" style="fill: none; stroke: #000000; stroke-width: 0.8; stroke-linejoin: miter; stroke-linecap: square"/>
   </g>
   <g id="patch_11">
    <path d="M 45.267188 584.521875 
L 982.876106 584.521875 
" style="fill: none; stroke: #000000; stroke-width: 0.8; stroke-linejoin: miter; stroke-linecap: square"/>
   </g>
   <g id="patch_12">
    <path d="M 45.267188 331.135938 
L 982.876106 331.135938 
" style="fill: none; stroke: #000000; stroke-width: 0.8; stroke-linejoin: miter; stroke-linecap: square"/>
   </g>
   <g id="text_32">
    <!-- MACD -->
    <g transform="translate(496.085709 325.135938)scale(0.12 -0.12)">
     <defs>
      <path id="DejaVuSans-44" d="M 1259 4147 
L 1259 519 
L 2022 519 
Q 2988 519 3436 956 
Q 3884 1394 3884 2338 
Q 3884 3275 3436 3711 
Q 2988 4147 2022 4147 
L 1259 4147 
z
M 628 4666 
L 1925 4666 
Q 3281 4666 3915 4102 
Q 4550 3538 4550 2338 
Q 4550 1131 3912 565 
Q 3275 0 1925 0 
L 628 0 
L 628 4666 
z
" transform="scale(0.015625)"/>
     </defs>
     <use xlink:href="#DejaVuSans-4d"/>
     <use xlink:href="#DejaVuSans-41" x="86.279297"/>
     <use xlink:href="#DejaVuSans-43" x="152.9375"/>
     <use xlink:href="#DejaVuSans-44" x="222.761719"/>
    </g>
   </g>
   <g id="legend_2">
    <g id="patch_13">
     <path d="M 913.899543 368.492188 
L 975.876106 368.492188 
Q 977.876106 368.492188 977.876106 366.492188 
L 977.876106 338.135938 
Q 977.876106 336.135938 975.876106 336.135938 
L 913.899543 336.135938 
Q 911.899543 336.135938 911.899543 338.135938 
L 911.899543 366.492188 
Q 911.899543 368.492188 913.899543 368.492188 
z
" style="fill: #ffffff; opacity: 0.8; stroke: #cccccc; stroke-linejoin: miter"/>
    </g>
    <g id="line2d_87">
     <path d="M 915.899543 344.234375 
L 925.899543 344.234375 
L 935.899543 344.234375 
" style="fill: none; stroke: #1f77b4; stroke-width: 1.5; stroke-linecap: square"/>
    </g>
    <g id="text_33">
     <!-- MACD -->
     <g transform="translate(943.899543 347.734375)scale(0.1 -0.1)">
      <use xlink:href="#DejaVuSans-4d"/>
      <use xlink:href="#DejaVuSans-41" x="86.279297"/>
      <use xlink:href="#DejaVuSans-43" x="152.9375"/>
      <use xlink:href="#DejaVuSans-44" x="222.761719"/>
     </g>
    </g>
    <g id="line2d_88">
     <path d="M 915.899543 358.9125 
L 925.899543 358.9125 
L 935.899543 358.9125 
" style="fill: none; stroke: #ff7f0e; stroke-width: 1.5; stroke-linecap: square"/>
    </g>
    <g id="text_34">
     <!-- SIG -->
     <g transform="translate(943.899543 362.4125)scale(0.1 -0.1)">
      <defs>
       <path id="DejaVuSans-49" d="M 628 4666 
L 1259 4666 
L 1259 0 
L 628 0 
L 628 4666 
z
" transform="scale(0.015625)"/>
       <path id="DejaVuSans-47" d="M 3809 666 
L 3809 1919 
L 2778 1919 
L 2778 2438 
L 4434 2438 
L 4434 434 
Q 4069 175 3628 42 
Q 3188 -91 2688 -91 
Q 1594 -91 976 548 
Q 359 1188 359 2328 
Q 359 3472 976 4111 
Q 1594 4750 2688 4750 
Q 3144 4750 3555 4637 
Q 3966 4525 4313 4306 
L 4313 3634 
Q 3963 3931 3569 4081 
Q 3175 4231 2741 4231 
Q 1884 4231 1454 3753 
Q 1025 3275 1025 2328 
Q 1025 1384 1454 906 
Q 1884 428 2741 428 
Q 3075 428 3337 486 
Q 3600 544 3809 666 
z
" transform="scale(0.015625)"/>
      </defs>
      <use xlink:href="#DejaVuSans-53"/>
      <use xlink:href="#DejaVuSans-49" x="63.476562"/>
      <use xlink:href="#DejaVuSans-47" x="92.96875"/>
     </g>
    </g>
   </g>
  </g>
  <g id="text_35">
   <!-- FSN E-Commerce Ventures Limited -->
   <g transform="translate(399.30375 21.358125)scale(0.12 -0.12)">
    <defs>
     <path id="DejaVuSans-46" d="M 628 4666 
L 3309 4666 
L 3309 4134 
L 1259 4134 
L 1259 2759 
L 3109 2759 
L 3109 2228 
L 1259 2228 
L 1259 0 
L 628 0 
L 628 4666 
z
" transform="scale(0.015625)"/>
     <path id="DejaVuSans-4e" d="M 628 4666 
L 1478 4666 
L 3547 763 
L 3547 4666 
L 4159 4666 
L 4159 0 
L 3309 0 
L 1241 3903 
L 1241 0 
L 628 0 
L 628 4666 
z
" transform="scale(0.015625)"/>
     <path id="DejaVuSans-6d" d="M 3328 2828 
Q 3544 3216 3844 3400 
Q 4144 3584 4550 3584 
Q 5097 3584 5394 3201 
Q 5691 2819 5691 2113 
L 5691 0 
L 5113 0 
L 5113 2094 
Q 5113 2597 4934 2840 
Q 4756 3084 4391 3084 
Q 3944 3084 3684 2787 
Q 3425 2491 3425 1978 
L 3425 0 
L 2847 0 
L 2847 2094 
Q 2847 2600 2669 2842 
Q 2491 3084 2119 3084 
Q 1678 3084 1418 2786 
Q 1159 2488 1159 1978 
L 1159 0 
L 581 0 
L 581 3500 
L 1159 3500 
L 1159 2956 
Q 1356 3278 1631 3431 
Q 1906 3584 2284 3584 
Q 2666 3584 2933 3390 
Q 3200 3197 3328 2828 
z
" transform="scale(0.015625)"/>
     <path id="DejaVuSans-56" d="M 1831 0 
L 50 4666 
L 709 4666 
L 2188 738 
L 3669 4666 
L 4325 4666 
L 2547 0 
L 1831 0 
z
" transform="scale(0.015625)"/>
     <path id="DejaVuSans-74" d="M 1172 4494 
L 1172 3500 
L 2356 3500 
L 2356 3053 
L 1172 3053 
L 1172 1153 
Q 1172 725 1289 603 
Q 1406 481 1766 481 
L 2356 481 
L 2356 0 
L 1766 0 
Q 1100 0 847 248 
Q 594 497 594 1153 
L 594 3053 
L 172 3053 
L 172 3500 
L 594 3500 
L 594 4494 
L 1172 4494 
z
" transform="scale(0.015625)"/>
     <path id="DejaVuSans-75" d="M 544 1381 
L 544 3500 
L 1119 3500 
L 1119 1403 
Q 1119 906 1312 657 
Q 1506 409 1894 409 
Q 2359 409 2629 706 
Q 2900 1003 2900 1516 
L 2900 3500 
L 3475 3500 
L 3475 0 
L 2900 0 
L 2900 538 
Q 2691 219 2414 64 
Q 2138 -91 1772 -91 
Q 1169 -91 856 284 
Q 544 659 544 1381 
z
M 1991 3584 
L 1991 3584 
z
" transform="scale(0.015625)"/>
     <path id="DejaVuSans-64" d="M 2906 2969 
L 2906 4863 
L 3481 4863 
L 3481 0 
L 2906 0 
L 2906 525 
Q 2725 213 2448 61 
Q 2172 -91 1784 -91 
Q 1150 -91 751 415 
Q 353 922 353 1747 
Q 353 2572 751 3078 
Q 1150 3584 1784 3584 
Q 2172 3584 2448 3432 
Q 2725 3281 2906 2969 
z
M 947 1747 
Q 947 1113 1208 752 
Q 1469 391 1925 391 
Q 2381 391 2643 752 
Q 2906 1113 2906 1747 
Q 2906 2381 2643 2742 
Q 2381 3103 1925 3103 
Q 1469 3103 1208 2742 
Q 947 2381 947 1747 
z
" transform="scale(0.015625)"/>
    </defs>
    <use xlink:href="#DejaVuSans-46"/>
    <use xlink:href="#DejaVuSans-53" x="55.769531"/>
    <use xlink:href="#DejaVuSans-4e" x="119.246094"/>
    <use xlink:href="#DejaVuSans-20" x="194.050781"/>
    <use xlink:href="#DejaVuSans-45" x="225.837891"/>
    <use xlink:href="#DejaVuSans-2d" x="289.021484"/>
    <use xlink:href="#DejaVuSans-43" x="325.105469"/>
    <use xlink:href="#DejaVuSans-6f" x="394.929688"/>
    <use xlink:href="#DejaVuSans-6d" x="456.111328"/>
    <use xlink:href="#DejaVuSans-6d" x="553.523438"/>
    <use xlink:href="#DejaVuSans-65" x="650.935547"/>
    <use xlink:href="#DejaVuSans-72" x="712.458984"/>
    <use xlink:href="#DejaVuSans-63" x="751.322266"/>
    <use xlink:href="#DejaVuSans-65" x="806.302734"/>
    <use xlink:href="#DejaVuSans-20" x="867.826172"/>
    <use xlink:href="#DejaVuSans-56" x="899.613281"/>
    <use xlink:href="#DejaVuSans-65" x="960.271484"/>
    <use xlink:href="#DejaVuSans-6e" x="1021.794922"/>
    <use xlink:href="#DejaVuSans-74" x="1085.173828"/>
    <use xlink:href="#DejaVuSans-75" x="1124.382812"/>
    <use xlink:href="#DejaVuSans-72" x="1187.761719"/>
    <use xlink:href="#DejaVuSans-65" x="1226.625"/>
    <use xlink:href="#DejaVuSans-73" x="1288.148438"/>
    <use xlink:href="#DejaVuSans-20" x="1340.248047"/>
    <use xlink:href="#DejaVuSans-4c" x="1372.035156"/>
    <use xlink:href="#DejaVuSans-69" x="1427.748047"/>
    <use xlink:href="#DejaVuSans-6d" x="1455.53125"/>
    <use xlink:href="#DejaVuSans-69" x="1552.943359"/>
    <use xlink:href="#DejaVuSans-74" x="1580.726562"/>
    <use xlink:href="#DejaVuSans-65" x="1619.935547"/>
    <use xlink:href="#DejaVuSans-64" x="1681.458984"/>
   </g>
  </g>
 </g>
 <defs>
  <clipPath id="peae62f2b62">
   <rect x="45.267188" y="48.331875" width="937.608918" height="253.385938"/>
  </clipPath>
  <clipPath id="p83ffb8f169">
   <rect x="45.267188" y="331.135938" width="937.608918" height="253.385937"/>
  </clipPath>
 </defs>
</svg>
