<?xml version="1.0" encoding="utf-8" standalone="no"?>
<!DOCTYPE svg PUBLIC "-//W3C//DTD SVG 1.1//EN"
  "http://www.w3.org/Graphics/SVG/1.1/DTD/svg11.dtd">
<svg xmlns:xlink="http://www.w3.org/1999/xlink" width="1008pt" height="612pt" viewBox="0 0 1008 612" xmlns="http://www.w3.org/2000/svg" version="1.1">
 <metadata>
  <rdf:RDF xmlns:dc="http://purl.org/dc/elements/1.1/" xmlns:cc="http://creativecommons.org/ns#" xmlns:rdf="http://www.w3.org/1999/02/22-rdf-syntax-ns#">
   <cc:Work>
    <dc:type rdf:resource="http://purl.org/dc/dcmitype/StillImage"/>
    <dc:date>2022-11-20T19:47:14.596490</dc:date>
    <dc:format>image/svg+xml</dc:format>
    <dc:creator>
     <cc:Agent>
      <dc:title>Matplotlib v3.5.2, https://matplotlib.org/</dc:title>
     </cc:Agent>
    </dc:creator>
   </cc:Work>
  </rdf:RDF>
 </metadata>
 <defs>
  <style type="text/css">*{stroke-linejoin: round; stroke-linecap: butt}</style>
 </defs>
 <g id="figure_1">
  <g id="patch_1">
   <path d="M 0 612 
L 1008 612 
L 1008 0 
L 0 0 
z
" style="fill: #ffffff"/>
  </g>
  <g id="axes_1">
   <g id="patch_2">
    <path d="M 45.267188 301.717812 
L 982.876106 301.717812 
L 982.876106 48.331875 
L 45.267188 48.331875 
z
" style="fill: #ffffff"/>
   </g>
   <g id="matplotlib.axis_1">
    <g id="xtick_1">
     <g id="line2d_1">
      <path d="M 82.541751 301.717812 
L 82.541751 48.331875 
" clip-path="url(#pd584bb4241)" style="fill: none; stroke-dasharray: 2.96,1.28; stroke-dashoffset: 0; stroke: #b0b0b0; stroke-width: 0.8"/>
     </g>
     <g id="line2d_2">
      <defs>
       <path id="m7cdb9eb49d" d="M 0 0 
L 0 3.5 
" style="stroke: #000000; stroke-width: 0.8"/>
      </defs>
      <g>
       <use xlink:href="#m7cdb9eb49d" x="82.541751" y="301.717812" style="stroke: #000000; stroke-width: 0.8"/>
      </g>
     </g>
    </g>
    <g id="xtick_2">
     <g id="line2d_3">
      <path d="M 165.374115 301.717812 
L 165.374115 48.331875 
" clip-path="url(#pd584bb4241)" style="fill: none; stroke-dasharray: 2.96,1.28; stroke-dashoffset: 0; stroke: #b0b0b0; stroke-width: 0.8"/>
     </g>
     <g id="line2d_4">
      <g>
       <use xlink:href="#m7cdb9eb49d" x="165.374115" y="301.717812" style="stroke: #000000; stroke-width: 0.8"/>
      </g>
     </g>
    </g>
    <g id="xtick_3">
     <g id="line2d_5">
      <path d="M 240.190444 301.717812 
L 240.190444 48.331875 
" clip-path="url(#pd584bb4241)" style="fill: none; stroke-dasharray: 2.96,1.28; stroke-dashoffset: 0; stroke: #b0b0b0; stroke-width: 0.8"/>
     </g>
     <g id="line2d_6">
      <g>
       <use xlink:href="#m7cdb9eb49d" x="240.190444" y="301.717812" style="stroke: #000000; stroke-width: 0.8"/>
      </g>
     </g>
    </g>
    <g id="xtick_4">
     <g id="line2d_7">
      <path d="M 323.022808 301.717812 
L 323.022808 48.331875 
" clip-path="url(#pd584bb4241)" style="fill: none; stroke-dasharray: 2.96,1.28; stroke-dashoffset: 0; stroke: #b0b0b0; stroke-width: 0.8"/>
     </g>
     <g id="line2d_8">
      <g>
       <use xlink:href="#m7cdb9eb49d" x="323.022808" y="301.717812" style="stroke: #000000; stroke-width: 0.8"/>
      </g>
     </g>
    </g>
    <g id="xtick_5">
     <g id="line2d_9">
      <path d="M 403.18316 301.717812 
L 403.18316 48.331875 
" clip-path="url(#pd584bb4241)" style="fill: none; stroke-dasharray: 2.96,1.28; stroke-dashoffset: 0; stroke: #b0b0b0; stroke-width: 0.8"/>
     </g>
     <g id="line2d_10">
      <g>
       <use xlink:href="#m7cdb9eb49d" x="403.18316" y="301.717812" style="stroke: #000000; stroke-width: 0.8"/>
      </g>
     </g>
    </g>
    <g id="xtick_6">
     <g id="line2d_11">
      <path d="M 486.015523 301.717812 
L 486.015523 48.331875 
" clip-path="url(#pd584bb4241)" style="fill: none; stroke-dasharray: 2.96,1.28; stroke-dashoffset: 0; stroke: #b0b0b0; stroke-width: 0.8"/>
     </g>
     <g id="line2d_12">
      <g>
       <use xlink:href="#m7cdb9eb49d" x="486.015523" y="301.717812" style="stroke: #000000; stroke-width: 0.8"/>
      </g>
     </g>
    </g>
    <g id="xtick_7">
     <g id="line2d_13">
      <path d="M 566.175876 301.717812 
L 566.175876 48.331875 
" clip-path="url(#pd584bb4241)" style="fill: none; stroke-dasharray: 2.96,1.28; stroke-dashoffset: 0; stroke: #b0b0b0; stroke-width: 0.8"/>
     </g>
     <g id="line2d_14">
      <g>
       <use xlink:href="#m7cdb9eb49d" x="566.175876" y="301.717812" style="stroke: #000000; stroke-width: 0.8"/>
      </g>
     </g>
    </g>
    <g id="xtick_8">
     <g id="line2d_15">
      <path d="M 649.008239 301.717812 
L 649.008239 48.331875 
" clip-path="url(#pd584bb4241)" style="fill: none; stroke-dasharray: 2.96,1.28; stroke-dashoffset: 0; stroke: #b0b0b0; stroke-width: 0.8"/>
     </g>
     <g id="line2d_16">
      <g>
       <use xlink:href="#m7cdb9eb49d" x="649.008239" y="301.717812" style="stroke: #000000; stroke-width: 0.8"/>
      </g>
     </g>
    </g>
    <g id="xtick_9">
     <g id="line2d_17">
      <path d="M 731.840603 301.717812 
L 731.840603 48.331875 
" clip-path="url(#pd584bb4241)" style="fill: none; stroke-dasharray: 2.96,1.28; stroke-dashoffset: 0; stroke: #b0b0b0; stroke-width: 0.8"/>
     </g>
     <g id="line2d_18">
      <g>
       <use xlink:href="#m7cdb9eb49d" x="731.840603" y="301.717812" style="stroke: #000000; stroke-width: 0.8"/>
      </g>
     </g>
    </g>
    <g id="xtick_10">
     <g id="line2d_19">
      <path d="M 812.000955 301.717812 
L 812.000955 48.331875 
" clip-path="url(#pd584bb4241)" style="fill: none; stroke-dasharray: 2.96,1.28; stroke-dashoffset: 0; stroke: #b0b0b0; stroke-width: 0.8"/>
     </g>
     <g id="line2d_20">
      <g>
       <use xlink:href="#m7cdb9eb49d" x="812.000955" y="301.717812" style="stroke: #000000; stroke-width: 0.8"/>
      </g>
     </g>
    </g>
    <g id="xtick_11">
     <g id="line2d_21">
      <path d="M 894.833319 301.717812 
L 894.833319 48.331875 
" clip-path="url(#pd584bb4241)" style="fill: none; stroke-dasharray: 2.96,1.28; stroke-dashoffset: 0; stroke: #b0b0b0; stroke-width: 0.8"/>
     </g>
     <g id="line2d_22">
      <g>
       <use xlink:href="#m7cdb9eb49d" x="894.833319" y="301.717812" style="stroke: #000000; stroke-width: 0.8"/>
      </g>
     </g>
    </g>
    <g id="xtick_12">
     <g id="line2d_23">
      <path d="M 974.993671 301.717812 
L 974.993671 48.331875 
" clip-path="url(#pd584bb4241)" style="fill: none; stroke-dasharray: 2.96,1.28; stroke-dashoffset: 0; stroke: #b0b0b0; stroke-width: 0.8"/>
     </g>
     <g id="line2d_24">
      <g>
       <use xlink:href="#m7cdb9eb49d" x="974.993671" y="301.717812" style="stroke: #000000; stroke-width: 0.8"/>
      </g>
     </g>
    </g>
   </g>
   <g id="matplotlib.axis_2">
    <g id="ytick_1">
     <g id="line2d_25">
      <path d="M 45.267188 276.111442 
L 982.876106 276.111442 
" clip-path="url(#pd584bb4241)" style="fill: none; stroke-dasharray: 2.96,1.28; stroke-dashoffset: 0; stroke: #b0b0b0; stroke-width: 0.8"/>
     </g>
     <g id="line2d_26">
      <defs>
       <path id="m0554d9bb7e" d="M 0 0 
L -3.5 0 
" style="stroke: #000000; stroke-width: 0.8"/>
      </defs>
      <g>
       <use xlink:href="#m0554d9bb7e" x="45.267188" y="276.111442" style="stroke: #000000; stroke-width: 0.8"/>
      </g>
     </g>
     <g id="text_1">
      <!-- 2100 -->
      <g transform="translate(12.817188 279.91066)scale(0.1 -0.1)">
       <defs>
        <path id="DejaVuSans-32" d="M 1228 531 
L 3431 531 
L 3431 0 
L 469 0 
L 469 531 
Q 828 903 1448 1529 
Q 2069 2156 2228 2338 
Q 2531 2678 2651 2914 
Q 2772 3150 2772 3378 
Q 2772 3750 2511 3984 
Q 2250 4219 1831 4219 
Q 1534 4219 1204 4116 
Q 875 4013 500 3803 
L 500 4441 
Q 881 4594 1212 4672 
Q 1544 4750 1819 4750 
Q 2544 4750 2975 4387 
Q 3406 4025 3406 3419 
Q 3406 3131 3298 2873 
Q 3191 2616 2906 2266 
Q 2828 2175 2409 1742 
Q 1991 1309 1228 531 
z
" transform="scale(0.015625)"/>
        <path id="DejaVuSans-31" d="M 794 531 
L 1825 531 
L 1825 4091 
L 703 3866 
L 703 4441 
L 1819 4666 
L 2450 4666 
L 2450 531 
L 3481 531 
L 3481 0 
L 794 0 
L 794 531 
z
" transform="scale(0.015625)"/>
        <path id="DejaVuSans-30" d="M 2034 4250 
Q 1547 4250 1301 3770 
Q 1056 3291 1056 2328 
Q 1056 1369 1301 889 
Q 1547 409 2034 409 
Q 2525 409 2770 889 
Q 3016 1369 3016 2328 
Q 3016 3291 2770 3770 
Q 2525 4250 2034 4250 
z
M 2034 4750 
Q 2819 4750 3233 4129 
Q 3647 3509 3647 2328 
Q 3647 1150 3233 529 
Q 2819 -91 2034 -91 
Q 1250 -91 836 529 
Q 422 1150 422 2328 
Q 422 3509 836 4129 
Q 1250 4750 2034 4750 
z
" transform="scale(0.015625)"/>
       </defs>
       <use xlink:href="#DejaVuSans-32"/>
       <use xlink:href="#DejaVuSans-31" x="63.623047"/>
       <use xlink:href="#DejaVuSans-30" x="127.246094"/>
       <use xlink:href="#DejaVuSans-30" x="190.869141"/>
      </g>
     </g>
    </g>
    <g id="ytick_2">
     <g id="line2d_27">
      <path d="M 45.267188 246.325335 
L 982.876106 246.325335 
" clip-path="url(#pd584bb4241)" style="fill: none; stroke-dasharray: 2.96,1.28; stroke-dashoffset: 0; stroke: #b0b0b0; stroke-width: 0.8"/>
     </g>
     <g id="line2d_28">
      <g>
       <use xlink:href="#m0554d9bb7e" x="45.267188" y="246.325335" style="stroke: #000000; stroke-width: 0.8"/>
      </g>
     </g>
     <g id="text_2">
      <!-- 2200 -->
      <g transform="translate(12.817188 250.124554)scale(0.1 -0.1)">
       <use xlink:href="#DejaVuSans-32"/>
       <use xlink:href="#DejaVuSans-32" x="63.623047"/>
       <use xlink:href="#DejaVuSans-30" x="127.246094"/>
       <use xlink:href="#DejaVuSans-30" x="190.869141"/>
      </g>
     </g>
    </g>
    <g id="ytick_3">
     <g id="line2d_29">
      <path d="M 45.267188 216.539229 
L 982.876106 216.539229 
" clip-path="url(#pd584bb4241)" style="fill: none; stroke-dasharray: 2.96,1.28; stroke-dashoffset: 0; stroke: #b0b0b0; stroke-width: 0.8"/>
     </g>
     <g id="line2d_30">
      <g>
       <use xlink:href="#m0554d9bb7e" x="45.267188" y="216.539229" style="stroke: #000000; stroke-width: 0.8"/>
      </g>
     </g>
     <g id="text_3">
      <!-- 2300 -->
      <g transform="translate(12.817188 220.338448)scale(0.1 -0.1)">
       <defs>
        <path id="DejaVuSans-33" d="M 2597 2516 
Q 3050 2419 3304 2112 
Q 3559 1806 3559 1356 
Q 3559 666 3084 287 
Q 2609 -91 1734 -91 
Q 1441 -91 1130 -33 
Q 819 25 488 141 
L 488 750 
Q 750 597 1062 519 
Q 1375 441 1716 441 
Q 2309 441 2620 675 
Q 2931 909 2931 1356 
Q 2931 1769 2642 2001 
Q 2353 2234 1838 2234 
L 1294 2234 
L 1294 2753 
L 1863 2753 
Q 2328 2753 2575 2939 
Q 2822 3125 2822 3475 
Q 2822 3834 2567 4026 
Q 2313 4219 1838 4219 
Q 1578 4219 1281 4162 
Q 984 4106 628 3988 
L 628 4550 
Q 988 4650 1302 4700 
Q 1616 4750 1894 4750 
Q 2613 4750 3031 4423 
Q 3450 4097 3450 3541 
Q 3450 3153 3228 2886 
Q 3006 2619 2597 2516 
z
" transform="scale(0.015625)"/>
       </defs>
       <use xlink:href="#DejaVuSans-32"/>
       <use xlink:href="#DejaVuSans-33" x="63.623047"/>
       <use xlink:href="#DejaVuSans-30" x="127.246094"/>
       <use xlink:href="#DejaVuSans-30" x="190.869141"/>
      </g>
     </g>
    </g>
    <g id="ytick_4">
     <g id="line2d_31">
      <path d="M 45.267188 186.753123 
L 982.876106 186.753123 
" clip-path="url(#pd584bb4241)" style="fill: none; stroke-dasharray: 2.96,1.28; stroke-dashoffset: 0; stroke: #b0b0b0; stroke-width: 0.8"/>
     </g>
     <g id="line2d_32">
      <g>
       <use xlink:href="#m0554d9bb7e" x="45.267188" y="186.753123" style="stroke: #000000; stroke-width: 0.8"/>
      </g>
     </g>
     <g id="text_4">
      <!-- 2400 -->
      <g transform="translate(12.817188 190.552342)scale(0.1 -0.1)">
       <defs>
        <path id="DejaVuSans-34" d="M 2419 4116 
L 825 1625 
L 2419 1625 
L 2419 4116 
z
M 2253 4666 
L 3047 4666 
L 3047 1625 
L 3713 1625 
L 3713 1100 
L 3047 1100 
L 3047 0 
L 2419 0 
L 2419 1100 
L 313 1100 
L 313 1709 
L 2253 4666 
z
" transform="scale(0.015625)"/>
       </defs>
       <use xlink:href="#DejaVuSans-32"/>
       <use xlink:href="#DejaVuSans-34" x="63.623047"/>
       <use xlink:href="#DejaVuSans-30" x="127.246094"/>
       <use xlink:href="#DejaVuSans-30" x="190.869141"/>
      </g>
     </g>
    </g>
    <g id="ytick_5">
     <g id="line2d_33">
      <path d="M 45.267188 156.967017 
L 982.876106 156.967017 
" clip-path="url(#pd584bb4241)" style="fill: none; stroke-dasharray: 2.96,1.28; stroke-dashoffset: 0; stroke: #b0b0b0; stroke-width: 0.8"/>
     </g>
     <g id="line2d_34">
      <g>
       <use xlink:href="#m0554d9bb7e" x="45.267188" y="156.967017" style="stroke: #000000; stroke-width: 0.8"/>
      </g>
     </g>
     <g id="text_5">
      <!-- 2500 -->
      <g transform="translate(12.817188 160.766236)scale(0.1 -0.1)">
       <defs>
        <path id="DejaVuSans-35" d="M 691 4666 
L 3169 4666 
L 3169 4134 
L 1269 4134 
L 1269 2991 
Q 1406 3038 1543 3061 
Q 1681 3084 1819 3084 
Q 2600 3084 3056 2656 
Q 3513 2228 3513 1497 
Q 3513 744 3044 326 
Q 2575 -91 1722 -91 
Q 1428 -91 1123 -41 
Q 819 9 494 109 
L 494 744 
Q 775 591 1075 516 
Q 1375 441 1709 441 
Q 2250 441 2565 725 
Q 2881 1009 2881 1497 
Q 2881 1984 2565 2268 
Q 2250 2553 1709 2553 
Q 1456 2553 1204 2497 
Q 953 2441 691 2322 
L 691 4666 
z
" transform="scale(0.015625)"/>
       </defs>
       <use xlink:href="#DejaVuSans-32"/>
       <use xlink:href="#DejaVuSans-35" x="63.623047"/>
       <use xlink:href="#DejaVuSans-30" x="127.246094"/>
       <use xlink:href="#DejaVuSans-30" x="190.869141"/>
      </g>
     </g>
    </g>
    <g id="ytick_6">
     <g id="line2d_35">
      <path d="M 45.267188 127.180911 
L 982.876106 127.180911 
" clip-path="url(#pd584bb4241)" style="fill: none; stroke-dasharray: 2.96,1.28; stroke-dashoffset: 0; stroke: #b0b0b0; stroke-width: 0.8"/>
     </g>
     <g id="line2d_36">
      <g>
       <use xlink:href="#m0554d9bb7e" x="45.267188" y="127.180911" style="stroke: #000000; stroke-width: 0.8"/>
      </g>
     </g>
     <g id="text_6">
      <!-- 2600 -->
      <g transform="translate(12.817188 130.980129)scale(0.1 -0.1)">
       <defs>
        <path id="DejaVuSans-36" d="M 2113 2584 
Q 1688 2584 1439 2293 
Q 1191 2003 1191 1497 
Q 1191 994 1439 701 
Q 1688 409 2113 409 
Q 2538 409 2786 701 
Q 3034 994 3034 1497 
Q 3034 2003 2786 2293 
Q 2538 2584 2113 2584 
z
M 3366 4563 
L 3366 3988 
Q 3128 4100 2886 4159 
Q 2644 4219 2406 4219 
Q 1781 4219 1451 3797 
Q 1122 3375 1075 2522 
Q 1259 2794 1537 2939 
Q 1816 3084 2150 3084 
Q 2853 3084 3261 2657 
Q 3669 2231 3669 1497 
Q 3669 778 3244 343 
Q 2819 -91 2113 -91 
Q 1303 -91 875 529 
Q 447 1150 447 2328 
Q 447 3434 972 4092 
Q 1497 4750 2381 4750 
Q 2619 4750 2861 4703 
Q 3103 4656 3366 4563 
z
" transform="scale(0.015625)"/>
       </defs>
       <use xlink:href="#DejaVuSans-32"/>
       <use xlink:href="#DejaVuSans-36" x="63.623047"/>
       <use xlink:href="#DejaVuSans-30" x="127.246094"/>
       <use xlink:href="#DejaVuSans-30" x="190.869141"/>
      </g>
     </g>
    </g>
    <g id="ytick_7">
     <g id="line2d_37">
      <path d="M 45.267188 97.394804 
L 982.876106 97.394804 
" clip-path="url(#pd584bb4241)" style="fill: none; stroke-dasharray: 2.96,1.28; stroke-dashoffset: 0; stroke: #b0b0b0; stroke-width: 0.8"/>
     </g>
     <g id="line2d_38">
      <g>
       <use xlink:href="#m0554d9bb7e" x="45.267188" y="97.394804" style="stroke: #000000; stroke-width: 0.8"/>
      </g>
     </g>
     <g id="text_7">
      <!-- 2700 -->
      <g transform="translate(12.817188 101.194023)scale(0.1 -0.1)">
       <defs>
        <path id="DejaVuSans-37" d="M 525 4666 
L 3525 4666 
L 3525 4397 
L 1831 0 
L 1172 0 
L 2766 4134 
L 525 4134 
L 525 4666 
z
" transform="scale(0.015625)"/>
       </defs>
       <use xlink:href="#DejaVuSans-32"/>
       <use xlink:href="#DejaVuSans-37" x="63.623047"/>
       <use xlink:href="#DejaVuSans-30" x="127.246094"/>
       <use xlink:href="#DejaVuSans-30" x="190.869141"/>
      </g>
     </g>
    </g>
    <g id="ytick_8">
     <g id="line2d_39">
      <path d="M 45.267188 67.608698 
L 982.876106 67.608698 
" clip-path="url(#pd584bb4241)" style="fill: none; stroke-dasharray: 2.96,1.28; stroke-dashoffset: 0; stroke: #b0b0b0; stroke-width: 0.8"/>
     </g>
     <g id="line2d_40">
      <g>
       <use xlink:href="#m0554d9bb7e" x="45.267188" y="67.608698" style="stroke: #000000; stroke-width: 0.8"/>
      </g>
     </g>
     <g id="text_8">
      <!-- 2800 -->
      <g transform="translate(12.817188 71.407917)scale(0.1 -0.1)">
       <defs>
        <path id="DejaVuSans-38" d="M 2034 2216 
Q 1584 2216 1326 1975 
Q 1069 1734 1069 1313 
Q 1069 891 1326 650 
Q 1584 409 2034 409 
Q 2484 409 2743 651 
Q 3003 894 3003 1313 
Q 3003 1734 2745 1975 
Q 2488 2216 2034 2216 
z
M 1403 2484 
Q 997 2584 770 2862 
Q 544 3141 544 3541 
Q 544 4100 942 4425 
Q 1341 4750 2034 4750 
Q 2731 4750 3128 4425 
Q 3525 4100 3525 3541 
Q 3525 3141 3298 2862 
Q 3072 2584 2669 2484 
Q 3125 2378 3379 2068 
Q 3634 1759 3634 1313 
Q 3634 634 3220 271 
Q 2806 -91 2034 -91 
Q 1263 -91 848 271 
Q 434 634 434 1313 
Q 434 1759 690 2068 
Q 947 2378 1403 2484 
z
M 1172 3481 
Q 1172 3119 1398 2916 
Q 1625 2713 2034 2713 
Q 2441 2713 2670 2916 
Q 2900 3119 2900 3481 
Q 2900 3844 2670 4047 
Q 2441 4250 2034 4250 
Q 1625 4250 1398 4047 
Q 1172 3844 1172 3481 
z
" transform="scale(0.015625)"/>
       </defs>
       <use xlink:href="#DejaVuSans-32"/>
       <use xlink:href="#DejaVuSans-38" x="63.623047"/>
       <use xlink:href="#DejaVuSans-30" x="127.246094"/>
       <use xlink:href="#DejaVuSans-30" x="190.869141"/>
      </g>
     </g>
    </g>
   </g>
   <g id="line2d_41">
    <path d="M 87.885775 183.02986 
L 90.557786 178.040687 
L 93.229798 181.808629 
L 95.90181 183.625582 
L 98.573822 155.492605 
L 106.589857 147.95672 
L 109.261869 147.182281 
L 111.93388 119.406737 
L 114.605892 110.262402 
L 125.293939 115.132431 
L 127.965951 122.668316 
L 130.637962 140.018722 
L 133.309974 136.78693 
L 135.981986 163.877394 
L 143.998021 195.778313 
L 146.670033 165.753918 
L 152.014056 201.929144 
L 154.686068 186.351011 
L 162.702103 184.727668 
L 165.374115 172.694081 
L 168.046127 170.817556 
L 170.718139 174.898253 
L 173.39015 176.059911 
L 181.406185 171.621781 
L 184.078197 147.643966 
L 186.750209 132.00626 
L 189.422221 131.782864 
L 192.094232 163.951859 
L 200.110268 202.941872 
L 202.782279 158.828649 
L 208.126303 176.98328 
L 210.798315 191.831654 
L 218.81435 194.080505 
L 221.486362 194.035826 
L 224.158373 187.825423 
L 226.830385 225.058056 
L 229.502397 179.336383 
L 237.518432 191.623151 
L 242.862455 201.780214 
L 245.534467 203.507808 
L 248.206479 236.093808 
L 256.222514 260.235447 
L 258.894526 249.378411 
L 261.566538 239.236242 
L 264.238549 221.096504 
L 266.910561 231.208887 
L 274.926596 200.037726 
L 277.598608 180.795902 
L 280.27062 166.141138 
L 282.942631 130.695671 
L 293.630678 125.557568 
L 296.30269 118.111041 
L 298.974702 128.610644 
L 301.646714 124.768236 
L 304.318725 122.847032 
L 312.334761 125.46821 
L 315.006772 120.851363 
L 317.678784 95.652317 
L 320.350796 103.545635 
L 323.022808 120.672646 
L 331.038843 116.368554 
L 333.710854 94.565124 
L 336.382866 101.952079 
L 339.054878 100.790421 
L 341.72689 83.216618 
L 349.742925 97.722452 
L 352.414937 116.532378 
L 355.086948 123.889546 
L 368.447007 122.489599 
L 371.119019 148.343939 
L 373.791031 144.263243 
L 376.463042 142.848403 
L 379.135054 160.139237 
L 387.151089 176.402451 
L 389.823101 152.633138 
L 392.495113 161.851938 
L 395.167124 153.407577 
L 397.839136 153.184181 
L 405.855171 155.537284 
L 411.199195 185.85954 
L 413.871207 188.450931 
L 416.543218 216.226475 
L 424.559254 239.087312 
L 427.231265 272.194569 
L 429.903277 236.123594 
L 432.575289 248.00825 
L 435.2473 236.912926 
L 443.263336 233.398165 
L 445.935347 206.322595 
L 448.607359 202.197219 
L 451.279371 207.067247 
L 453.951383 205.309867 
L 461.967418 214.73717 
L 464.63943 204.654573 
L 467.311441 235.61723 
L 469.983453 225.266558 
L 472.655465 198.071843 
L 480.6715 171.845177 
L 483.343512 167.675122 
L 486.015523 187.512669 
L 488.687535 190.565745 
L 491.359547 194.512404 
L 499.375582 192.218874 
L 502.047594 206.977889 
L 504.719606 228.245169 
L 507.391617 216.986021 
L 510.063629 215.183961 
L 518.079664 227.485623 
L 520.751676 226.085676 
L 523.423688 218.877439 
L 526.095699 249.854989 
L 528.767711 251.731514 
L 536.783746 265.507588 
L 539.455758 238.506483 
L 542.12777 255.767531 
L 544.799782 244.240308 
L 547.471793 223.107066 
L 555.487829 215.869042 
L 558.15984 216.986021 
L 560.831852 220.515674 
L 563.503864 230.776988 
L 566.175876 257.748307 
L 574.191911 252.208091 
L 576.863922 290.20027 
L 579.535934 288.264173 
L 582.207946 284.198369 
L 584.879958 253.622931 
L 592.895993 250.435818 
L 595.568005 246.399801 
L 598.240016 239.087312 
L 600.912028 243.599907 
L 603.58404 228.021773 
L 611.600075 214.00741 
L 614.272087 207.022568 
L 616.944099 220.560354 
L 619.61611 203.582273 
L 622.288122 219.354016 
L 630.304157 191.682724 
L 632.976169 196.776148 
L 635.648181 185.189352 
L 638.320192 180.557613 
L 640.992204 178.323655 
L 649.008239 170.817556 
L 651.680251 170.683519 
L 654.352263 171.740926 
L 657.024275 170.698412 
L 659.696286 157.398915 
L 667.712322 162.656163 
L 673.056345 175.791836 
L 675.728357 177.936436 
L 678.400368 175.300365 
L 689.088415 158.798862 
L 691.760427 160.943462 
L 694.432439 151.218298 
L 697.104451 170.340979 
L 705.120486 188.704113 
L 707.792498 182.091597 
L 710.464509 192.263553 
L 713.136521 195.242163 
L 715.808533 186.291438 
L 723.824568 180.974618 
L 726.49658 144.039847 
L 731.840603 107.417829 
L 734.512615 126.168183 
L 742.52865 126.823477 
L 745.200662 120.925828 
L 747.872674 121.074759 
L 750.544685 112.749542 
L 753.216697 115.489864 
L 761.232732 89.292984 
L 763.904744 59.849418 
L 766.576756 60.93661 
L 769.248768 61.428081 
L 771.920779 96.218253 
L 779.936814 102.622266 
L 782.608826 102.637159 
L 785.280838 119.049304 
L 787.95285 120.538609 
L 790.624861 135.416769 
L 798.640897 152.752283 
L 801.312908 160.600922 
L 803.98492 162.700842 
L 806.656932 143.905809 
L 809.328944 155.939396 
L 817.344979 163.251885 
L 820.016991 143.369659 
L 825.361014 134.612544 
L 828.033026 138.976209 
L 836.049061 144.784499 
L 838.721073 156.460653 
L 841.393084 148.269474 
L 844.065096 157.905279 
L 846.737108 157.979744 
L 854.753143 141.790996 
L 857.425155 137.844337 
L 860.097167 132.959415 
L 862.769178 134.29979 
L 865.44119 144.903644 
L 873.457225 142.818616 
L 876.129237 156.862765 
L 881.47326 157.13084 
L 884.145272 158.620146 
L 892.161307 139.497466 
L 894.833319 121.089652 
L 897.505331 142.699472 
L 900.177343 140.852733 
L 902.849354 162.268944 
L 910.86539 179.038522 
L 916.209413 189.389193 
L 918.881425 205.086471 
L 921.553437 190.118953 
L 929.569472 193.231601 
L 932.241483 185.740395 
L 934.913495 195.852779 
L 937.585507 204.907755 
L 940.257519 223.911291 
L 940.257519 223.911291 
" clip-path="url(#pd584bb4241)" style="fill: none; stroke: #1f77b4; stroke-width: 1.5; stroke-linecap: square"/>
   </g>
   <g id="line2d_42">
    <path d="M 98.573822 176.399473 
L 106.589857 169.384845 
L 109.261869 163.213163 
L 111.93388 150.732785 
L 114.605892 136.060149 
L 117.277904 127.258355 
L 125.293939 120.693497 
L 127.965951 115.790704 
L 130.637962 119.913101 
L 133.309974 125.218006 
L 135.981986 135.696758 
L 143.998021 151.825935 
L 146.670033 160.443055 
L 152.014056 172.82514 
L 154.686068 182.737956 
L 162.702103 186.908011 
L 165.374115 182.291164 
L 168.046127 183.303892 
L 170.718139 177.897714 
L 173.39015 175.839494 
L 181.406185 173.218316 
L 184.078197 168.208293 
L 186.750209 160.446034 
L 189.422221 151.822956 
L 192.094232 149.401346 
L 200.110268 155.665364 
L 202.782279 157.902301 
L 205.454291 165.119474 
L 208.126303 174.159557 
L 210.798315 179.735516 
L 218.81435 177.963243 
L 221.486362 185.004679 
L 224.158373 188.951338 
L 226.830385 198.566293 
L 229.502397 196.067238 
L 237.518432 195.575768 
L 242.862455 197.124645 
L 245.534467 200.261122 
L 248.206479 202.468273 
L 256.222514 218.648086 
L 258.894526 230.199138 
L 261.566538 237.690343 
L 264.238549 241.208082 
L 266.910561 240.231098 
L 274.926596 228.191554 
L 277.598608 214.475052 
L 280.27062 199.856031 
L 282.942631 181.775865 
L 293.630678 160.645601 
L 296.30269 144.260264 
L 298.974702 133.823212 
L 301.646714 125.548632 
L 304.318725 123.978904 
L 312.334761 123.961033 
L 315.006772 124.509097 
L 317.678784 117.917432 
L 320.350796 113.672912 
L 323.022808 113.238034 
L 331.038843 111.418103 
L 333.710854 106.160856 
L 336.382866 107.420808 
L 339.054878 106.869765 
L 341.72689 99.378559 
L 349.742925 95.649339 
L 355.086948 104.430283 
L 368.447007 108.770118 
L 371.119019 121.795583 
L 373.791031 131.103741 
L 376.463042 136.366946 
L 379.135054 143.616884 
L 387.151089 154.399455 
L 389.823101 155.257294 
L 392.495113 158.775034 
L 395.167124 160.886868 
L 405.855171 155.322824 
L 411.199195 161.968104 
L 413.871207 167.287903 
L 416.543218 179.851682 
L 424.559254 197.032308 
L 427.231265 220.363765 
L 429.903277 230.416576 
L 432.575289 242.32804 
L 435.2473 246.46533 
L 443.263336 245.327501 
L 445.935347 232.153106 
L 448.607359 225.367831 
L 451.279371 217.179631 
L 453.951383 210.859019 
L 461.967418 207.12682 
L 464.63943 206.793215 
L 467.311441 213.477218 
L 469.983453 217.11708 
L 472.655465 215.669475 
L 480.6715 207.091076 
L 483.343512 199.695186 
L 486.015523 190.074274 
L 488.687535 183.134111 
L 491.359547 182.422223 
L 499.375582 186.496963 
L 504.719606 202.504016 
L 507.391617 207.788071 
L 510.063629 211.922383 
L 518.079664 218.975733 
L 520.751676 222.79729 
L 523.423688 220.923744 
L 526.095699 227.497538 
L 528.767711 234.807048 
L 539.455758 244.895602 
L 542.12777 252.273621 
L 544.799782 251.150685 
L 547.471793 245.425795 
L 555.487829 235.498086 
L 558.15984 231.193994 
L 560.831852 224.143622 
L 563.503864 221.450958 
L 566.175876 228.379206 
L 574.191911 235.647016 
L 576.863922 250.289866 
L 579.535934 263.839566 
L 582.207946 274.523842 
L 584.879958 273.698767 
L 592.895993 273.344312 
L 595.568005 264.584219 
L 598.240016 254.748846 
L 600.912028 246.629154 
L 603.58404 241.508922 
L 611.600075 234.223241 
L 614.272087 226.347794 
L 616.944099 222.642402 
L 619.61611 214.638876 
L 622.288122 212.905324 
L 630.304157 208.440387 
L 632.976169 206.391103 
L 635.648181 199.316903 
L 638.320192 194.711971 
L 640.992204 186.505898 
L 649.008239 182.332865 
L 651.680251 177.114339 
L 654.352263 174.424654 
L 657.024275 172.452813 
L 659.696286 168.267866 
L 667.712322 166.635587 
L 673.056345 167.65725 
L 675.728357 168.896352 
L 678.400368 169.816743 
L 689.088415 170.096732 
L 691.760427 169.754192 
L 694.432439 164.839485 
L 697.104451 163.320393 
L 705.120486 166.001143 
L 707.792498 170.65969 
L 710.464509 176.923708 
L 713.136521 185.728481 
L 715.808533 188.918573 
L 723.824568 187.372674 
L 726.49658 179.762324 
L 731.840603 162.793179 
L 734.512615 148.978383 
L 742.52865 137.084791 
L 745.200662 125.075033 
L 747.872674 120.482015 
L 750.544685 121.548358 
L 753.216697 119.412694 
L 761.232732 111.906595 
L 766.576756 87.663684 
L 769.248768 77.399391 
L 771.920779 73.545069 
L 779.936814 76.210926 
L 782.608826 84.768474 
L 787.95285 108.213118 
L 790.624861 116.052821 
L 798.640897 126.078825 
L 801.312908 137.671577 
L 803.98492 146.401885 
L 806.656932 151.075325 
L 809.328944 155.17985 
L 817.344979 157.279771 
L 820.016991 153.833518 
L 825.361014 148.215859 
L 828.033026 147.229939 
L 836.049061 144.998959 
L 838.721073 143.640713 
L 841.393084 144.620676 
L 844.065096 149.279223 
L 846.737108 153.07993 
L 854.753143 152.481229 
L 857.425155 148.757966 
L 860.097167 145.695954 
L 862.769178 140.974856 
L 865.44119 138.359636 
L 873.457225 138.56516 
L 876.129237 142.368846 
L 881.47326 147.203131 
L 884.145272 152.067202 
L 892.161307 150.985967 
L 894.833319 146.640174 
L 897.505331 143.807515 
L 900.177343 140.551894 
L 902.849354 141.281653 
L 910.86539 149.189865 
L 916.209413 162.849773 
L 918.881425 175.327173 
L 921.553437 185.180417 
L 929.569472 191.372948 
L 934.913495 194.00604 
L 937.585507 193.970297 
L 940.257519 200.728764 
L 940.257519 200.728764 
" clip-path="url(#pd584bb4241)" style="fill: none; stroke: #ff7f0e; stroke-width: 1.5; stroke-linecap: square"/>
   </g>
   <g id="patch_3">
    <path d="M 45.267188 301.717812 
L 45.267188 48.331875 
" style="fill: none; stroke: #000000; stroke-width: 0.8; stroke-linejoin: miter; stroke-linecap: square"/>
   </g>
   <g id="patch_4">
    <path d="M 982.876106 301.717812 
L 982.876106 48.331875 
" style="fill: none; stroke: #000000; stroke-width: 0.8; stroke-linejoin: miter; stroke-linecap: square"/>
   </g>
   <g id="patch_5">
    <path d="M 45.267188 301.717812 
L 982.876106 301.717812 
" style="fill: none; stroke: #000000; stroke-width: 0.8; stroke-linejoin: miter; stroke-linecap: square"/>
   </g>
   <g id="patch_6">
    <path d="M 45.267188 48.331875 
L 982.876106 48.331875 
" style="fill: none; stroke: #000000; stroke-width: 0.8; stroke-linejoin: miter; stroke-linecap: square"/>
   </g>
   <g id="text_9">
    <!-- Closing Price -->
    <g transform="translate(475.595709 42.331875)scale(0.12 -0.12)">
     <defs>
      <path id="DejaVuSans-43" d="M 4122 4306 
L 4122 3641 
Q 3803 3938 3442 4084 
Q 3081 4231 2675 4231 
Q 1875 4231 1450 3742 
Q 1025 3253 1025 2328 
Q 1025 1406 1450 917 
Q 1875 428 2675 428 
Q 3081 428 3442 575 
Q 3803 722 4122 1019 
L 4122 359 
Q 3791 134 3420 21 
Q 3050 -91 2638 -91 
Q 1578 -91 968 557 
Q 359 1206 359 2328 
Q 359 3453 968 4101 
Q 1578 4750 2638 4750 
Q 3056 4750 3426 4639 
Q 3797 4528 4122 4306 
z
" transform="scale(0.015625)"/>
      <path id="DejaVuSans-6c" d="M 603 4863 
L 1178 4863 
L 1178 0 
L 603 0 
L 603 4863 
z
" transform="scale(0.015625)"/>
      <path id="DejaVuSans-6f" d="M 1959 3097 
Q 1497 3097 1228 2736 
Q 959 2375 959 1747 
Q 959 1119 1226 758 
Q 1494 397 1959 397 
Q 2419 397 2687 759 
Q 2956 1122 2956 1747 
Q 2956 2369 2687 2733 
Q 2419 3097 1959 3097 
z
M 1959 3584 
Q 2709 3584 3137 3096 
Q 3566 2609 3566 1747 
Q 3566 888 3137 398 
Q 2709 -91 1959 -91 
Q 1206 -91 779 398 
Q 353 888 353 1747 
Q 353 2609 779 3096 
Q 1206 3584 1959 3584 
z
" transform="scale(0.015625)"/>
      <path id="DejaVuSans-73" d="M 2834 3397 
L 2834 2853 
Q 2591 2978 2328 3040 
Q 2066 3103 1784 3103 
Q 1356 3103 1142 2972 
Q 928 2841 928 2578 
Q 928 2378 1081 2264 
Q 1234 2150 1697 2047 
L 1894 2003 
Q 2506 1872 2764 1633 
Q 3022 1394 3022 966 
Q 3022 478 2636 193 
Q 2250 -91 1575 -91 
Q 1294 -91 989 -36 
Q 684 19 347 128 
L 347 722 
Q 666 556 975 473 
Q 1284 391 1588 391 
Q 1994 391 2212 530 
Q 2431 669 2431 922 
Q 2431 1156 2273 1281 
Q 2116 1406 1581 1522 
L 1381 1569 
Q 847 1681 609 1914 
Q 372 2147 372 2553 
Q 372 3047 722 3315 
Q 1072 3584 1716 3584 
Q 2034 3584 2315 3537 
Q 2597 3491 2834 3397 
z
" transform="scale(0.015625)"/>
      <path id="DejaVuSans-69" d="M 603 3500 
L 1178 3500 
L 1178 0 
L 603 0 
L 603 3500 
z
M 603 4863 
L 1178 4863 
L 1178 4134 
L 603 4134 
L 603 4863 
z
" transform="scale(0.015625)"/>
      <path id="DejaVuSans-6e" d="M 3513 2113 
L 3513 0 
L 2938 0 
L 2938 2094 
Q 2938 2591 2744 2837 
Q 2550 3084 2163 3084 
Q 1697 3084 1428 2787 
Q 1159 2491 1159 1978 
L 1159 0 
L 581 0 
L 581 3500 
L 1159 3500 
L 1159 2956 
Q 1366 3272 1645 3428 
Q 1925 3584 2291 3584 
Q 2894 3584 3203 3211 
Q 3513 2838 3513 2113 
z
" transform="scale(0.015625)"/>
      <path id="DejaVuSans-67" d="M 2906 1791 
Q 2906 2416 2648 2759 
Q 2391 3103 1925 3103 
Q 1463 3103 1205 2759 
Q 947 2416 947 1791 
Q 947 1169 1205 825 
Q 1463 481 1925 481 
Q 2391 481 2648 825 
Q 2906 1169 2906 1791 
z
M 3481 434 
Q 3481 -459 3084 -895 
Q 2688 -1331 1869 -1331 
Q 1566 -1331 1297 -1286 
Q 1028 -1241 775 -1147 
L 775 -588 
Q 1028 -725 1275 -790 
Q 1522 -856 1778 -856 
Q 2344 -856 2625 -561 
Q 2906 -266 2906 331 
L 2906 616 
Q 2728 306 2450 153 
Q 2172 0 1784 0 
Q 1141 0 747 490 
Q 353 981 353 1791 
Q 353 2603 747 3093 
Q 1141 3584 1784 3584 
Q 2172 3584 2450 3431 
Q 2728 3278 2906 2969 
L 2906 3500 
L 3481 3500 
L 3481 434 
z
" transform="scale(0.015625)"/>
      <path id="DejaVuSans-20" transform="scale(0.015625)"/>
      <path id="DejaVuSans-50" d="M 1259 4147 
L 1259 2394 
L 2053 2394 
Q 2494 2394 2734 2622 
Q 2975 2850 2975 3272 
Q 2975 3691 2734 3919 
Q 2494 4147 2053 4147 
L 1259 4147 
z
M 628 4666 
L 2053 4666 
Q 2838 4666 3239 4311 
Q 3641 3956 3641 3272 
Q 3641 2581 3239 2228 
Q 2838 1875 2053 1875 
L 1259 1875 
L 1259 0 
L 628 0 
L 628 4666 
z
" transform="scale(0.015625)"/>
      <path id="DejaVuSans-72" d="M 2631 2963 
Q 2534 3019 2420 3045 
Q 2306 3072 2169 3072 
Q 1681 3072 1420 2755 
Q 1159 2438 1159 1844 
L 1159 0 
L 581 0 
L 581 3500 
L 1159 3500 
L 1159 2956 
Q 1341 3275 1631 3429 
Q 1922 3584 2338 3584 
Q 2397 3584 2469 3576 
Q 2541 3569 2628 3553 
L 2631 2963 
z
" transform="scale(0.015625)"/>
      <path id="DejaVuSans-63" d="M 3122 3366 
L 3122 2828 
Q 2878 2963 2633 3030 
Q 2388 3097 2138 3097 
Q 1578 3097 1268 2742 
Q 959 2388 959 1747 
Q 959 1106 1268 751 
Q 1578 397 2138 397 
Q 2388 397 2633 464 
Q 2878 531 3122 666 
L 3122 134 
Q 2881 22 2623 -34 
Q 2366 -91 2075 -91 
Q 1284 -91 818 406 
Q 353 903 353 1747 
Q 353 2603 823 3093 
Q 1294 3584 2113 3584 
Q 2378 3584 2631 3529 
Q 2884 3475 3122 3366 
z
" transform="scale(0.015625)"/>
      <path id="DejaVuSans-65" d="M 3597 1894 
L 3597 1613 
L 953 1613 
Q 991 1019 1311 708 
Q 1631 397 2203 397 
Q 2534 397 2845 478 
Q 3156 559 3463 722 
L 3463 178 
Q 3153 47 2828 -22 
Q 2503 -91 2169 -91 
Q 1331 -91 842 396 
Q 353 884 353 1716 
Q 353 2575 817 3079 
Q 1281 3584 2069 3584 
Q 2775 3584 3186 3129 
Q 3597 2675 3597 1894 
z
M 3022 2063 
Q 3016 2534 2758 2815 
Q 2500 3097 2075 3097 
Q 1594 3097 1305 2825 
Q 1016 2553 972 2059 
L 3022 2063 
z
" transform="scale(0.015625)"/>
     </defs>
     <use xlink:href="#DejaVuSans-43"/>
     <use xlink:href="#DejaVuSans-6c" x="69.824219"/>
     <use xlink:href="#DejaVuSans-6f" x="97.607422"/>
     <use xlink:href="#DejaVuSans-73" x="158.789062"/>
     <use xlink:href="#DejaVuSans-69" x="210.888672"/>
     <use xlink:href="#DejaVuSans-6e" x="238.671875"/>
     <use xlink:href="#DejaVuSans-67" x="302.050781"/>
     <use xlink:href="#DejaVuSans-20" x="365.527344"/>
     <use xlink:href="#DejaVuSans-50" x="397.314453"/>
     <use xlink:href="#DejaVuSans-72" x="455.867188"/>
     <use xlink:href="#DejaVuSans-69" x="496.980469"/>
     <use xlink:href="#DejaVuSans-63" x="524.763672"/>
     <use xlink:href="#DejaVuSans-65" x="579.744141"/>
    </g>
   </g>
   <g id="legend_1">
    <g id="patch_7">
     <path d="M 911.144856 85.688125 
L 975.876106 85.688125 
Q 977.876106 85.688125 977.876106 83.688125 
L 977.876106 55.331875 
Q 977.876106 53.331875 975.876106 53.331875 
L 911.144856 53.331875 
Q 909.144856 53.331875 909.144856 55.331875 
L 909.144856 83.688125 
Q 909.144856 85.688125 911.144856 85.688125 
z
" style="fill: #ffffff; opacity: 0.8; stroke: #cccccc; stroke-linejoin: miter"/>
    </g>
    <g id="line2d_43">
     <path d="M 913.144856 61.430312 
L 923.144856 61.430312 
L 933.144856 61.430312 
" style="fill: none; stroke: #1f77b4; stroke-width: 1.5; stroke-linecap: square"/>
    </g>
    <g id="text_10">
     <!-- CLOSE -->
     <g transform="translate(941.144856 64.930312)scale(0.1 -0.1)">
      <defs>
       <path id="DejaVuSans-4c" d="M 628 4666 
L 1259 4666 
L 1259 531 
L 3531 531 
L 3531 0 
L 628 0 
L 628 4666 
z
" transform="scale(0.015625)"/>
       <path id="DejaVuSans-4f" d="M 2522 4238 
Q 1834 4238 1429 3725 
Q 1025 3213 1025 2328 
Q 1025 1447 1429 934 
Q 1834 422 2522 422 
Q 3209 422 3611 934 
Q 4013 1447 4013 2328 
Q 4013 3213 3611 3725 
Q 3209 4238 2522 4238 
z
M 2522 4750 
Q 3503 4750 4090 4092 
Q 4678 3434 4678 2328 
Q 4678 1225 4090 567 
Q 3503 -91 2522 -91 
Q 1538 -91 948 565 
Q 359 1222 359 2328 
Q 359 3434 948 4092 
Q 1538 4750 2522 4750 
z
" transform="scale(0.015625)"/>
       <path id="DejaVuSans-53" d="M 3425 4513 
L 3425 3897 
Q 3066 4069 2747 4153 
Q 2428 4238 2131 4238 
Q 1616 4238 1336 4038 
Q 1056 3838 1056 3469 
Q 1056 3159 1242 3001 
Q 1428 2844 1947 2747 
L 2328 2669 
Q 3034 2534 3370 2195 
Q 3706 1856 3706 1288 
Q 3706 609 3251 259 
Q 2797 -91 1919 -91 
Q 1588 -91 1214 -16 
Q 841 59 441 206 
L 441 856 
Q 825 641 1194 531 
Q 1563 422 1919 422 
Q 2459 422 2753 634 
Q 3047 847 3047 1241 
Q 3047 1584 2836 1778 
Q 2625 1972 2144 2069 
L 1759 2144 
Q 1053 2284 737 2584 
Q 422 2884 422 3419 
Q 422 4038 858 4394 
Q 1294 4750 2059 4750 
Q 2388 4750 2728 4690 
Q 3069 4631 3425 4513 
z
" transform="scale(0.015625)"/>
       <path id="DejaVuSans-45" d="M 628 4666 
L 3578 4666 
L 3578 4134 
L 1259 4134 
L 1259 2753 
L 3481 2753 
L 3481 2222 
L 1259 2222 
L 1259 531 
L 3634 531 
L 3634 0 
L 628 0 
L 628 4666 
z
" transform="scale(0.015625)"/>
      </defs>
      <use xlink:href="#DejaVuSans-43"/>
      <use xlink:href="#DejaVuSans-4c" x="69.824219"/>
      <use xlink:href="#DejaVuSans-4f" x="121.912109"/>
      <use xlink:href="#DejaVuSans-53" x="200.623047"/>
      <use xlink:href="#DejaVuSans-45" x="264.099609"/>
     </g>
    </g>
    <g id="line2d_44">
     <path d="M 913.144856 76.108437 
L 923.144856 76.108437 
L 933.144856 76.108437 
" style="fill: none; stroke: #ff7f0e; stroke-width: 1.5; stroke-linecap: square"/>
    </g>
    <g id="text_11">
     <!-- SMA5 -->
     <g transform="translate(941.144856 79.608437)scale(0.1 -0.1)">
      <defs>
       <path id="DejaVuSans-4d" d="M 628 4666 
L 1569 4666 
L 2759 1491 
L 3956 4666 
L 4897 4666 
L 4897 0 
L 4281 0 
L 4281 4097 
L 3078 897 
L 2444 897 
L 1241 4097 
L 1241 0 
L 628 0 
L 628 4666 
z
" transform="scale(0.015625)"/>
       <path id="DejaVuSans-41" d="M 2188 4044 
L 1331 1722 
L 3047 1722 
L 2188 4044 
z
M 1831 4666 
L 2547 4666 
L 4325 0 
L 3669 0 
L 3244 1197 
L 1141 1197 
L 716 0 
L 50 0 
L 1831 4666 
z
" transform="scale(0.015625)"/>
      </defs>
      <use xlink:href="#DejaVuSans-53"/>
      <use xlink:href="#DejaVuSans-4d" x="63.476562"/>
      <use xlink:href="#DejaVuSans-41" x="149.755859"/>
      <use xlink:href="#DejaVuSans-35" x="218.164062"/>
     </g>
    </g>
   </g>
  </g>
  <g id="axes_2">
   <g id="patch_8">
    <path d="M 45.267188 584.521875 
L 982.876106 584.521875 
L 982.876106 331.135938 
L 45.267188 331.135938 
z
" style="fill: #ffffff"/>
   </g>
   <g id="matplotlib.axis_3">
    <g id="xtick_13">
     <g id="line2d_45">
      <path d="M 82.541751 584.521875 
L 82.541751 331.135938 
" clip-path="url(#pac18b777d0)" style="fill: none; stroke-dasharray: 2.96,1.28; stroke-dashoffset: 0; stroke: #b0b0b0; stroke-width: 0.8"/>
     </g>
     <g id="line2d_46">
      <g>
       <use xlink:href="#m7cdb9eb49d" x="82.541751" y="584.521875" style="stroke: #000000; stroke-width: 0.8"/>
      </g>
     </g>
     <g id="text_12">
      <!-- 2022-01 -->
      <g transform="translate(61.650345 599.120312)scale(0.1 -0.1)">
       <defs>
        <path id="DejaVuSans-2d" d="M 313 2009 
L 1997 2009 
L 1997 1497 
L 313 1497 
L 313 2009 
z
" transform="scale(0.015625)"/>
       </defs>
       <use xlink:href="#DejaVuSans-32"/>
       <use xlink:href="#DejaVuSans-30" x="63.623047"/>
       <use xlink:href="#DejaVuSans-32" x="127.246094"/>
       <use xlink:href="#DejaVuSans-32" x="190.869141"/>
       <use xlink:href="#DejaVuSans-2d" x="254.492188"/>
       <use xlink:href="#DejaVuSans-30" x="290.576172"/>
       <use xlink:href="#DejaVuSans-31" x="354.199219"/>
      </g>
     </g>
    </g>
    <g id="xtick_14">
     <g id="line2d_47">
      <path d="M 165.374115 584.521875 
L 165.374115 331.135938 
" clip-path="url(#pac18b777d0)" style="fill: none; stroke-dasharray: 2.96,1.28; stroke-dashoffset: 0; stroke: #b0b0b0; stroke-width: 0.8"/>
     </g>
     <g id="line2d_48">
      <g>
       <use xlink:href="#m7cdb9eb49d" x="165.374115" y="584.521875" style="stroke: #000000; stroke-width: 0.8"/>
      </g>
     </g>
     <g id="text_13">
      <!-- 2022-02 -->
      <g transform="translate(144.482709 599.120312)scale(0.1 -0.1)">
       <use xlink:href="#DejaVuSans-32"/>
       <use xlink:href="#DejaVuSans-30" x="63.623047"/>
       <use xlink:href="#DejaVuSans-32" x="127.246094"/>
       <use xlink:href="#DejaVuSans-32" x="190.869141"/>
       <use xlink:href="#DejaVuSans-2d" x="254.492188"/>
       <use xlink:href="#DejaVuSans-30" x="290.576172"/>
       <use xlink:href="#DejaVuSans-32" x="354.199219"/>
      </g>
     </g>
    </g>
    <g id="xtick_15">
     <g id="line2d_49">
      <path d="M 240.190444 584.521875 
L 240.190444 331.135938 
" clip-path="url(#pac18b777d0)" style="fill: none; stroke-dasharray: 2.96,1.28; stroke-dashoffset: 0; stroke: #b0b0b0; stroke-width: 0.8"/>
     </g>
     <g id="line2d_50">
      <g>
       <use xlink:href="#m7cdb9eb49d" x="240.190444" y="584.521875" style="stroke: #000000; stroke-width: 0.8"/>
      </g>
     </g>
     <g id="text_14">
      <!-- 2022-03 -->
      <g transform="translate(219.299037 599.120312)scale(0.1 -0.1)">
       <use xlink:href="#DejaVuSans-32"/>
       <use xlink:href="#DejaVuSans-30" x="63.623047"/>
       <use xlink:href="#DejaVuSans-32" x="127.246094"/>
       <use xlink:href="#DejaVuSans-32" x="190.869141"/>
       <use xlink:href="#DejaVuSans-2d" x="254.492188"/>
       <use xlink:href="#DejaVuSans-30" x="290.576172"/>
       <use xlink:href="#DejaVuSans-33" x="354.199219"/>
      </g>
     </g>
    </g>
    <g id="xtick_16">
     <g id="line2d_51">
      <path d="M 323.022808 584.521875 
L 323.022808 331.135938 
" clip-path="url(#pac18b777d0)" style="fill: none; stroke-dasharray: 2.96,1.28; stroke-dashoffset: 0; stroke: #b0b0b0; stroke-width: 0.8"/>
     </g>
     <g id="line2d_52">
      <g>
       <use xlink:href="#m7cdb9eb49d" x="323.022808" y="584.521875" style="stroke: #000000; stroke-width: 0.8"/>
      </g>
     </g>
     <g id="text_15">
      <!-- 2022-04 -->
      <g transform="translate(302.131401 599.120312)scale(0.1 -0.1)">
       <use xlink:href="#DejaVuSans-32"/>
       <use xlink:href="#DejaVuSans-30" x="63.623047"/>
       <use xlink:href="#DejaVuSans-32" x="127.246094"/>
       <use xlink:href="#DejaVuSans-32" x="190.869141"/>
       <use xlink:href="#DejaVuSans-2d" x="254.492188"/>
       <use xlink:href="#DejaVuSans-30" x="290.576172"/>
       <use xlink:href="#DejaVuSans-34" x="354.199219"/>
      </g>
     </g>
    </g>
    <g id="xtick_17">
     <g id="line2d_53">
      <path d="M 403.18316 584.521875 
L 403.18316 331.135938 
" clip-path="url(#pac18b777d0)" style="fill: none; stroke-dasharray: 2.96,1.28; stroke-dashoffset: 0; stroke: #b0b0b0; stroke-width: 0.8"/>
     </g>
     <g id="line2d_54">
      <g>
       <use xlink:href="#m7cdb9eb49d" x="403.18316" y="584.521875" style="stroke: #000000; stroke-width: 0.8"/>
      </g>
     </g>
     <g id="text_16">
      <!-- 2022-05 -->
      <g transform="translate(382.291753 599.120312)scale(0.1 -0.1)">
       <use xlink:href="#DejaVuSans-32"/>
       <use xlink:href="#DejaVuSans-30" x="63.623047"/>
       <use xlink:href="#DejaVuSans-32" x="127.246094"/>
       <use xlink:href="#DejaVuSans-32" x="190.869141"/>
       <use xlink:href="#DejaVuSans-2d" x="254.492188"/>
       <use xlink:href="#DejaVuSans-30" x="290.576172"/>
       <use xlink:href="#DejaVuSans-35" x="354.199219"/>
      </g>
     </g>
    </g>
    <g id="xtick_18">
     <g id="line2d_55">
      <path d="M 486.015523 584.521875 
L 486.015523 331.135938 
" clip-path="url(#pac18b777d0)" style="fill: none; stroke-dasharray: 2.96,1.28; stroke-dashoffset: 0; stroke: #b0b0b0; stroke-width: 0.8"/>
     </g>
     <g id="line2d_56">
      <g>
       <use xlink:href="#m7cdb9eb49d" x="486.015523" y="584.521875" style="stroke: #000000; stroke-width: 0.8"/>
      </g>
     </g>
     <g id="text_17">
      <!-- 2022-06 -->
      <g transform="translate(465.124117 599.120312)scale(0.1 -0.1)">
       <use xlink:href="#DejaVuSans-32"/>
       <use xlink:href="#DejaVuSans-30" x="63.623047"/>
       <use xlink:href="#DejaVuSans-32" x="127.246094"/>
       <use xlink:href="#DejaVuSans-32" x="190.869141"/>
       <use xlink:href="#DejaVuSans-2d" x="254.492188"/>
       <use xlink:href="#DejaVuSans-30" x="290.576172"/>
       <use xlink:href="#DejaVuSans-36" x="354.199219"/>
      </g>
     </g>
    </g>
    <g id="xtick_19">
     <g id="line2d_57">
      <path d="M 566.175876 584.521875 
L 566.175876 331.135938 
" clip-path="url(#pac18b777d0)" style="fill: none; stroke-dasharray: 2.96,1.28; stroke-dashoffset: 0; stroke: #b0b0b0; stroke-width: 0.8"/>
     </g>
     <g id="line2d_58">
      <g>
       <use xlink:href="#m7cdb9eb49d" x="566.175876" y="584.521875" style="stroke: #000000; stroke-width: 0.8"/>
      </g>
     </g>
     <g id="text_18">
      <!-- 2022-07 -->
      <g transform="translate(545.284469 599.120312)scale(0.1 -0.1)">
       <use xlink:href="#DejaVuSans-32"/>
       <use xlink:href="#DejaVuSans-30" x="63.623047"/>
       <use xlink:href="#DejaVuSans-32" x="127.246094"/>
       <use xlink:href="#DejaVuSans-32" x="190.869141"/>
       <use xlink:href="#DejaVuSans-2d" x="254.492188"/>
       <use xlink:href="#DejaVuSans-30" x="290.576172"/>
       <use xlink:href="#DejaVuSans-37" x="354.199219"/>
      </g>
     </g>
    </g>
    <g id="xtick_20">
     <g id="line2d_59">
      <path d="M 649.008239 584.521875 
L 649.008239 331.135938 
" clip-path="url(#pac18b777d0)" style="fill: none; stroke-dasharray: 2.96,1.28; stroke-dashoffset: 0; stroke: #b0b0b0; stroke-width: 0.8"/>
     </g>
     <g id="line2d_60">
      <g>
       <use xlink:href="#m7cdb9eb49d" x="649.008239" y="584.521875" style="stroke: #000000; stroke-width: 0.8"/>
      </g>
     </g>
     <g id="text_19">
      <!-- 2022-08 -->
      <g transform="translate(628.116833 599.120312)scale(0.1 -0.1)">
       <use xlink:href="#DejaVuSans-32"/>
       <use xlink:href="#DejaVuSans-30" x="63.623047"/>
       <use xlink:href="#DejaVuSans-32" x="127.246094"/>
       <use xlink:href="#DejaVuSans-32" x="190.869141"/>
       <use xlink:href="#DejaVuSans-2d" x="254.492188"/>
       <use xlink:href="#DejaVuSans-30" x="290.576172"/>
       <use xlink:href="#DejaVuSans-38" x="354.199219"/>
      </g>
     </g>
    </g>
    <g id="xtick_21">
     <g id="line2d_61">
      <path d="M 731.840603 584.521875 
L 731.840603 331.135938 
" clip-path="url(#pac18b777d0)" style="fill: none; stroke-dasharray: 2.96,1.28; stroke-dashoffset: 0; stroke: #b0b0b0; stroke-width: 0.8"/>
     </g>
     <g id="line2d_62">
      <g>
       <use xlink:href="#m7cdb9eb49d" x="731.840603" y="584.521875" style="stroke: #000000; stroke-width: 0.8"/>
      </g>
     </g>
     <g id="text_20">
      <!-- 2022-09 -->
      <g transform="translate(710.949197 599.120312)scale(0.1 -0.1)">
       <defs>
        <path id="DejaVuSans-39" d="M 703 97 
L 703 672 
Q 941 559 1184 500 
Q 1428 441 1663 441 
Q 2288 441 2617 861 
Q 2947 1281 2994 2138 
Q 2813 1869 2534 1725 
Q 2256 1581 1919 1581 
Q 1219 1581 811 2004 
Q 403 2428 403 3163 
Q 403 3881 828 4315 
Q 1253 4750 1959 4750 
Q 2769 4750 3195 4129 
Q 3622 3509 3622 2328 
Q 3622 1225 3098 567 
Q 2575 -91 1691 -91 
Q 1453 -91 1209 -44 
Q 966 3 703 97 
z
M 1959 2075 
Q 2384 2075 2632 2365 
Q 2881 2656 2881 3163 
Q 2881 3666 2632 3958 
Q 2384 4250 1959 4250 
Q 1534 4250 1286 3958 
Q 1038 3666 1038 3163 
Q 1038 2656 1286 2365 
Q 1534 2075 1959 2075 
z
" transform="scale(0.015625)"/>
       </defs>
       <use xlink:href="#DejaVuSans-32"/>
       <use xlink:href="#DejaVuSans-30" x="63.623047"/>
       <use xlink:href="#DejaVuSans-32" x="127.246094"/>
       <use xlink:href="#DejaVuSans-32" x="190.869141"/>
       <use xlink:href="#DejaVuSans-2d" x="254.492188"/>
       <use xlink:href="#DejaVuSans-30" x="290.576172"/>
       <use xlink:href="#DejaVuSans-39" x="354.199219"/>
      </g>
     </g>
    </g>
    <g id="xtick_22">
     <g id="line2d_63">
      <path d="M 812.000955 584.521875 
L 812.000955 331.135938 
" clip-path="url(#pac18b777d0)" style="fill: none; stroke-dasharray: 2.96,1.28; stroke-dashoffset: 0; stroke: #b0b0b0; stroke-width: 0.8"/>
     </g>
     <g id="line2d_64">
      <g>
       <use xlink:href="#m7cdb9eb49d" x="812.000955" y="584.521875" style="stroke: #000000; stroke-width: 0.8"/>
      </g>
     </g>
     <g id="text_21">
      <!-- 2022-10 -->
      <g transform="translate(791.109549 599.120312)scale(0.1 -0.1)">
       <use xlink:href="#DejaVuSans-32"/>
       <use xlink:href="#DejaVuSans-30" x="63.623047"/>
       <use xlink:href="#DejaVuSans-32" x="127.246094"/>
       <use xlink:href="#DejaVuSans-32" x="190.869141"/>
       <use xlink:href="#DejaVuSans-2d" x="254.492188"/>
       <use xlink:href="#DejaVuSans-31" x="290.576172"/>
       <use xlink:href="#DejaVuSans-30" x="354.199219"/>
      </g>
     </g>
    </g>
    <g id="xtick_23">
     <g id="line2d_65">
      <path d="M 894.833319 584.521875 
L 894.833319 331.135938 
" clip-path="url(#pac18b777d0)" style="fill: none; stroke-dasharray: 2.96,1.28; stroke-dashoffset: 0; stroke: #b0b0b0; stroke-width: 0.8"/>
     </g>
     <g id="line2d_66">
      <g>
       <use xlink:href="#m7cdb9eb49d" x="894.833319" y="584.521875" style="stroke: #000000; stroke-width: 0.8"/>
      </g>
     </g>
     <g id="text_22">
      <!-- 2022-11 -->
      <g transform="translate(873.941913 599.120312)scale(0.1 -0.1)">
       <use xlink:href="#DejaVuSans-32"/>
       <use xlink:href="#DejaVuSans-30" x="63.623047"/>
       <use xlink:href="#DejaVuSans-32" x="127.246094"/>
       <use xlink:href="#DejaVuSans-32" x="190.869141"/>
       <use xlink:href="#DejaVuSans-2d" x="254.492188"/>
       <use xlink:href="#DejaVuSans-31" x="290.576172"/>
       <use xlink:href="#DejaVuSans-31" x="354.199219"/>
      </g>
     </g>
    </g>
    <g id="xtick_24">
     <g id="line2d_67">
      <path d="M 974.993671 584.521875 
L 974.993671 331.135938 
" clip-path="url(#pac18b777d0)" style="fill: none; stroke-dasharray: 2.96,1.28; stroke-dashoffset: 0; stroke: #b0b0b0; stroke-width: 0.8"/>
     </g>
     <g id="line2d_68">
      <g>
       <use xlink:href="#m7cdb9eb49d" x="974.993671" y="584.521875" style="stroke: #000000; stroke-width: 0.8"/>
      </g>
     </g>
     <g id="text_23">
      <!-- 2022-12 -->
      <g transform="translate(954.102265 599.120312)scale(0.1 -0.1)">
       <use xlink:href="#DejaVuSans-32"/>
       <use xlink:href="#DejaVuSans-30" x="63.623047"/>
       <use xlink:href="#DejaVuSans-32" x="127.246094"/>
       <use xlink:href="#DejaVuSans-32" x="190.869141"/>
       <use xlink:href="#DejaVuSans-2d" x="254.492188"/>
       <use xlink:href="#DejaVuSans-31" x="290.576172"/>
       <use xlink:href="#DejaVuSans-32" x="354.199219"/>
      </g>
     </g>
    </g>
   </g>
   <g id="matplotlib.axis_4">
    <g id="ytick_9">
     <g id="line2d_69">
      <path d="M 45.267188 580.608061 
L 982.876106 580.608061 
" clip-path="url(#pac18b777d0)" style="fill: none; stroke-dasharray: 2.96,1.28; stroke-dashoffset: 0; stroke: #b0b0b0; stroke-width: 0.8"/>
     </g>
     <g id="line2d_70">
      <g>
       <use xlink:href="#m0554d9bb7e" x="45.267188" y="580.608061" style="stroke: #000000; stroke-width: 0.8"/>
      </g>
     </g>
     <g id="text_24">
      <!-- 100 -->
      <g transform="translate(10.8 584.40728)scale(0.1 -0.1)">
       <defs>
        <path id="DejaVuSans-2212" d="M 678 2272 
L 4684 2272 
L 4684 1741 
L 678 1741 
L 678 2272 
z
" transform="scale(0.015625)"/>
       </defs>
       <use xlink:href="#DejaVuSans-2212"/>
       <use xlink:href="#DejaVuSans-31" x="83.789062"/>
       <use xlink:href="#DejaVuSans-30" x="147.412109"/>
       <use xlink:href="#DejaVuSans-30" x="211.035156"/>
      </g>
     </g>
    </g>
    <g id="ytick_10">
     <g id="line2d_71">
      <path d="M 45.267188 551.214465 
L 982.876106 551.214465 
" clip-path="url(#pac18b777d0)" style="fill: none; stroke-dasharray: 2.96,1.28; stroke-dashoffset: 0; stroke: #b0b0b0; stroke-width: 0.8"/>
     </g>
     <g id="line2d_72">
      <g>
       <use xlink:href="#m0554d9bb7e" x="45.267188" y="551.214465" style="stroke: #000000; stroke-width: 0.8"/>
      </g>
     </g>
     <g id="text_25">
      <!-- 75 -->
      <g transform="translate(17.1625 555.013683)scale(0.1 -0.1)">
       <use xlink:href="#DejaVuSans-2212"/>
       <use xlink:href="#DejaVuSans-37" x="83.789062"/>
       <use xlink:href="#DejaVuSans-35" x="147.412109"/>
      </g>
     </g>
    </g>
    <g id="ytick_11">
     <g id="line2d_73">
      <path d="M 45.267188 521.820868 
L 982.876106 521.820868 
" clip-path="url(#pac18b777d0)" style="fill: none; stroke-dasharray: 2.96,1.28; stroke-dashoffset: 0; stroke: #b0b0b0; stroke-width: 0.8"/>
     </g>
     <g id="line2d_74">
      <g>
       <use xlink:href="#m0554d9bb7e" x="45.267188" y="521.820868" style="stroke: #000000; stroke-width: 0.8"/>
      </g>
     </g>
     <g id="text_26">
      <!-- 50 -->
      <g transform="translate(17.1625 525.620087)scale(0.1 -0.1)">
       <use xlink:href="#DejaVuSans-2212"/>
       <use xlink:href="#DejaVuSans-35" x="83.789062"/>
       <use xlink:href="#DejaVuSans-30" x="147.412109"/>
      </g>
     </g>
    </g>
    <g id="ytick_12">
     <g id="line2d_75">
      <path d="M 45.267188 492.427272 
L 982.876106 492.427272 
" clip-path="url(#pac18b777d0)" style="fill: none; stroke-dasharray: 2.96,1.28; stroke-dashoffset: 0; stroke: #b0b0b0; stroke-width: 0.8"/>
     </g>
     <g id="line2d_76">
      <g>
       <use xlink:href="#m0554d9bb7e" x="45.267188" y="492.427272" style="stroke: #000000; stroke-width: 0.8"/>
      </g>
     </g>
     <g id="text_27">
      <!-- 25 -->
      <g transform="translate(17.1625 496.22649)scale(0.1 -0.1)">
       <use xlink:href="#DejaVuSans-2212"/>
       <use xlink:href="#DejaVuSans-32" x="83.789062"/>
       <use xlink:href="#DejaVuSans-35" x="147.412109"/>
      </g>
     </g>
    </g>
    <g id="ytick_13">
     <g id="line2d_77">
      <path d="M 45.267188 463.033675 
L 982.876106 463.033675 
" clip-path="url(#pac18b777d0)" style="fill: none; stroke-dasharray: 2.96,1.28; stroke-dashoffset: 0; stroke: #b0b0b0; stroke-width: 0.8"/>
     </g>
     <g id="line2d_78">
      <g>
       <use xlink:href="#m0554d9bb7e" x="45.267188" y="463.033675" style="stroke: #000000; stroke-width: 0.8"/>
      </g>
     </g>
     <g id="text_28">
      <!-- 0 -->
      <g transform="translate(31.904688 466.832894)scale(0.1 -0.1)">
       <use xlink:href="#DejaVuSans-30"/>
      </g>
     </g>
    </g>
    <g id="ytick_14">
     <g id="line2d_79">
      <path d="M 45.267188 433.640079 
L 982.876106 433.640079 
" clip-path="url(#pac18b777d0)" style="fill: none; stroke-dasharray: 2.96,1.28; stroke-dashoffset: 0; stroke: #b0b0b0; stroke-width: 0.8"/>
     </g>
     <g id="line2d_80">
      <g>
       <use xlink:href="#m0554d9bb7e" x="45.267188" y="433.640079" style="stroke: #000000; stroke-width: 0.8"/>
      </g>
     </g>
     <g id="text_29">
      <!-- 25 -->
      <g transform="translate(25.542188 437.439298)scale(0.1 -0.1)">
       <use xlink:href="#DejaVuSans-32"/>
       <use xlink:href="#DejaVuSans-35" x="63.623047"/>
      </g>
     </g>
    </g>
    <g id="ytick_15">
     <g id="line2d_81">
      <path d="M 45.267188 404.246482 
L 982.876106 404.246482 
" clip-path="url(#pac18b777d0)" style="fill: none; stroke-dasharray: 2.96,1.28; stroke-dashoffset: 0; stroke: #b0b0b0; stroke-width: 0.8"/>
     </g>
     <g id="line2d_82">
      <g>
       <use xlink:href="#m0554d9bb7e" x="45.267188" y="404.246482" style="stroke: #000000; stroke-width: 0.8"/>
      </g>
     </g>
     <g id="text_30">
      <!-- 50 -->
      <g transform="translate(25.542188 408.045701)scale(0.1 -0.1)">
       <use xlink:href="#DejaVuSans-35"/>
       <use xlink:href="#DejaVuSans-30" x="63.623047"/>
      </g>
     </g>
    </g>
    <g id="ytick_16">
     <g id="line2d_83">
      <path d="M 45.267188 374.852886 
L 982.876106 374.852886 
" clip-path="url(#pac18b777d0)" style="fill: none; stroke-dasharray: 2.96,1.28; stroke-dashoffset: 0; stroke: #b0b0b0; stroke-width: 0.8"/>
     </g>
     <g id="line2d_84">
      <g>
       <use xlink:href="#m0554d9bb7e" x="45.267188" y="374.852886" style="stroke: #000000; stroke-width: 0.8"/>
      </g>
     </g>
     <g id="text_31">
      <!-- 75 -->
      <g transform="translate(25.542188 378.652105)scale(0.1 -0.1)">
       <use xlink:href="#DejaVuSans-37"/>
       <use xlink:href="#DejaVuSans-35" x="63.623047"/>
      </g>
     </g>
    </g>
    <g id="ytick_17">
     <g id="line2d_85">
      <path d="M 45.267188 345.45929 
L 982.876106 345.45929 
" clip-path="url(#pac18b777d0)" style="fill: none; stroke-dasharray: 2.96,1.28; stroke-dashoffset: 0; stroke: #b0b0b0; stroke-width: 0.8"/>
     </g>
     <g id="line2d_86">
      <g>
       <use xlink:href="#m0554d9bb7e" x="45.267188" y="345.45929" style="stroke: #000000; stroke-width: 0.8"/>
      </g>
     </g>
     <g id="text_32">
      <!-- 100 -->
      <g transform="translate(19.179688 349.258508)scale(0.1 -0.1)">
       <use xlink:href="#DejaVuSans-31"/>
       <use xlink:href="#DejaVuSans-30" x="63.623047"/>
       <use xlink:href="#DejaVuSans-30" x="127.246094"/>
      </g>
     </g>
    </g>
   </g>
   <g id="line2d_87">
    <path d="M 87.885775 463.033675 
L 90.557786 462.591829 
L 95.90181 463.347997 
L 98.573822 459.148589 
L 106.589857 455.425232 
L 109.261869 453.029976 
L 111.93388 446.370361 
L 114.605892 440.221422 
L 117.277904 436.439725 
L 125.293939 434.84729 
L 127.965951 435.69726 
L 130.637962 440.55896 
L 133.309974 443.75057 
L 135.981986 452.749188 
L 143.998021 467.343687 
L 146.670033 471.086293 
L 152.014056 482.856817 
L 154.686068 487.716862 
L 162.702103 490.747182 
L 165.374115 489.613762 
L 168.046127 487.922699 
L 170.718139 487.410459 
L 173.39015 487.040122 
L 181.406185 485.252221 
L 184.078197 476.954237 
L 186.750209 465.950966 
L 189.422221 457.274328 
L 192.094232 459.725085 
L 200.110268 472.854814 
L 202.782279 470.260514 
L 205.454291 470.841478 
L 208.126303 473.80427 
L 210.798315 480.360729 
L 218.81435 485.952876 
L 221.486362 490.050014 
L 224.158373 491.093107 
L 226.830385 502.732711 
L 229.502397 497.647194 
L 237.518432 496.974301 
L 242.862455 499.130819 
L 245.534467 500.929381 
L 248.206479 511.817704 
L 256.222514 527.148363 
L 258.894526 535.099126 
L 261.566538 537.39252 
L 264.238549 532.767882 
L 266.910561 531.459215 
L 274.926596 520.046056 
L 277.598608 504.516167 
L 280.27062 487.348369 
L 282.942631 462.651782 
L 293.630678 441.719278 
L 296.30269 423.25567 
L 298.974702 412.508749 
L 301.646714 403.472505 
L 304.318725 396.476099 
L 312.334761 392.571772 
L 315.006772 388.878168 
L 317.678784 378.96907 
L 320.350796 374.630136 
L 323.022808 377.590366 
L 331.038843 379.538836 
L 333.710854 375.198586 
L 336.382866 375.111874 
L 339.054878 375.68316 
L 341.72689 371.622956 
L 349.742925 374.029646 
L 352.414937 382.825894 
L 355.086948 392.938623 
L 368.447007 401.221507 
L 371.119019 416.526889 
L 373.791031 427.767417 
L 376.463042 436.53171 
L 379.135054 449.129063 
L 387.151089 464.264259 
L 389.823101 468.641897 
L 392.495113 474.903814 
L 395.167124 477.021081 
L 397.839136 478.450208 
L 405.855171 480.133732 
L 411.199195 490.789641 
L 413.871207 499.63644 
L 416.543218 514.883743 
L 424.559254 533.427271 
L 427.231265 557.565069 
L 429.903277 564.053574 
L 432.575289 571.723969 
L 435.2473 573.004332 
L 443.263336 571.648311 
L 448.607359 549.940716 
L 453.951383 534.239855 
L 461.967418 530.353083 
L 464.63943 523.367651 
L 467.311441 526.95159 
L 469.983453 525.773383 
L 472.655465 515.575994 
L 480.6715 498.732959 
L 483.343512 483.817493 
L 486.015523 478.13903 
L 488.687535 474.479002 
L 491.359547 472.723385 
L 499.375582 470.51549 
L 502.047594 473.346532 
L 504.719606 482.142113 
L 507.391617 485.270937 
L 518.079664 491.77991 
L 520.751676 494.833638 
L 523.423688 494.594378 
L 526.095699 503.800054 
L 528.767711 511.138682 
L 536.783746 520.677373 
L 539.455758 518.992618 
L 542.12777 522.469534 
L 544.799782 520.886917 
L 547.471793 512.333812 
L 555.487829 502.791908 
L 558.15984 495.214663 
L 560.831852 490.022685 
L 563.503864 488.878215 
L 566.175876 496.179281 
L 574.191911 499.777338 
L 576.863922 514.140019 
L 579.535934 524.200798 
L 582.207946 530.105911 
L 584.879958 524.340795 
L 592.895993 518.12178 
L 595.568005 511.35072 
L 598.240016 503.192637 
L 600.912028 497.764219 
L 603.58404 488.21025 
L 611.600075 476.025269 
L 614.272087 464.131229 
L 616.944099 459.062752 
L 619.61611 449.790981 
L 622.288122 447.643847 
L 630.304157 437.423939 
L 632.976169 431.312547 
L 635.648181 423.237486 
L 638.320192 415.905955 
L 640.992204 409.995522 
L 649.008239 403.605751 
L 651.680251 399.234558 
L 654.352263 396.869848 
L 657.024275 395.442893 
L 659.696286 390.907424 
L 667.712322 389.831352 
L 673.056345 393.958664 
L 675.728357 398.654787 
L 678.400368 402.2377 
L 689.088415 400.541641 
L 691.760427 400.600275 
L 694.432439 398.29543 
L 697.104451 403.248783 
L 705.120486 413.593145 
L 707.792498 420.178963 
L 710.464509 429.030133 
L 713.136521 437.290227 
L 715.808533 441.236758 
L 723.824568 442.902993 
L 726.49658 432.807743 
L 731.840603 413.711179 
L 734.512615 405.215725 
L 742.52865 399.424978 
L 745.200662 393.755886 
L 747.872674 390.150676 
L 750.544685 385.535189 
L 753.216697 383.665121 
L 761.232732 374.855502 
L 763.904744 359.686979 
L 766.576756 349.322889 
L 769.248768 342.65348 
L 771.920779 349.754852 
L 779.936814 358.626048 
L 782.608826 366.770935 
L 785.280838 379.417177 
L 787.95285 390.747053 
L 790.624861 405.132399 
L 798.640897 422.521475 
L 801.312908 439.078478 
L 803.98492 452.984713 
L 806.656932 458.076187 
L 809.328944 465.910904 
L 817.344979 474.319008 
L 820.016991 474.517364 
L 825.361014 471.784433 
L 828.033026 470.917569 
L 836.049061 471.977492 
L 838.721073 476.382618 
L 841.393084 477.102537 
L 844.065096 480.540403 
L 846.737108 483.057828 
L 854.753143 479.704406 
L 857.425155 475.644363 
L 860.097167 470.781526 
L 862.769178 467.305378 
L 865.44119 467.872198 
L 873.457225 467.604607 
L 876.129237 471.765135 
L 881.47326 475.009717 
L 884.145272 477.884247 
L 892.161307 473.945719 
L 894.833319 464.939308 
L 897.505331 464.665861 
L 900.177343 463.851514 
L 902.849354 469.947783 
L 910.86539 479.925732 
L 916.209413 490.809967 
L 918.881425 503.963776 
L 921.553437 509.090003 
L 929.569472 513.56154 
L 932.241483 514.130208 
L 934.913495 517.177672 
L 937.585507 521.799522 
L 940.257519 530.734834 
L 940.257519 530.734834 
" clip-path="url(#pac18b777d0)" style="fill: none; stroke: #1f77b4; stroke-width: 1.5; stroke-linecap: square"/>
   </g>
   <g id="line2d_88">
    <path d="M 87.885775 463.033675 
L 90.557786 462.788205 
L 95.90181 463.016776 
L 98.573822 461.866078 
L 106.589857 460.120251 
L 109.261869 458.325891 
L 111.93388 455.452753 
L 117.277904 448.462569 
L 125.293939 445.483624 
L 127.965951 443.381923 
L 130.637962 442.784486 
L 133.309974 442.986592 
L 135.981986 445.010314 
L 143.998021 449.606356 
L 146.670033 454.001309 
L 152.014056 459.878281 
L 154.686068 465.527409 
L 162.702103 470.630195 
L 165.374115 474.462253 
L 168.046127 477.174354 
L 170.718139 479.233731 
L 173.39015 480.802417 
L 181.406185 481.695753 
L 184.078197 480.744575 
L 186.750209 477.778682 
L 189.422221 473.669864 
L 192.094232 470.876585 
L 200.110268 471.272722 
L 202.782279 471.070079 
L 205.454291 471.024323 
L 208.126303 471.580665 
L 210.798315 473.337569 
L 218.81435 475.861654 
L 221.486362 478.700247 
L 224.158373 481.179463 
L 226.830385 485.491008 
L 229.502397 487.922649 
L 237.518432 489.73322 
L 242.862455 491.61294 
L 245.534467 493.476387 
L 248.206479 497.1449 
L 256.222514 503.145919 
L 258.894526 509.536839 
L 261.566538 515.108169 
L 264.238549 518.64021 
L 266.910561 521.204069 
L 274.926596 520.972462 
L 277.598608 517.681156 
L 280.27062 511.614529 
L 282.942631 501.82189 
L 293.630678 489.80128 
L 298.974702 463.695354 
L 301.646714 451.650739 
L 304.318725 440.615778 
L 312.334761 431.006954 
L 320.350796 406.013014 
L 323.022808 400.328479 
L 331.038843 396.170547 
L 333.710854 391.976152 
L 336.382866 388.603295 
L 339.054878 386.019267 
L 341.72689 383.140004 
L 349.742925 381.317932 
L 352.414937 381.619524 
L 355.086948 383.883344 
L 368.447007 387.350977 
L 371.119019 393.18616 
L 373.791031 400.102412 
L 376.463042 407.388272 
L 379.135054 415.736431 
L 387.151089 425.441997 
L 389.823101 434.081977 
L 392.495113 442.246345 
L 395.167124 449.201292 
L 397.839136 455.051075 
L 405.855171 460.067607 
L 411.199195 466.212014 
L 413.871207 472.896899 
L 416.543218 481.294268 
L 424.559254 491.720869 
L 427.231265 504.889709 
L 429.903277 516.722482 
L 432.575289 527.722779 
L 435.2473 536.77909 
L 443.263336 543.752934 
L 445.935347 547.16825 
L 448.607359 547.722743 
L 451.279371 546.568506 
L 453.951383 544.102776 
L 461.967418 541.352838 
L 464.63943 537.7558 
L 467.311441 535.594958 
L 469.983453 533.630643 
L 472.655465 530.019713 
L 480.6715 523.762362 
L 483.343512 515.773388 
L 486.015523 508.246517 
L 488.687535 501.493014 
L 491.359547 495.739088 
L 499.375582 490.694368 
L 502.047594 487.224801 
L 504.719606 486.208263 
L 507.391617 486.020798 
L 510.063629 486.196948 
L 518.079664 487.31354 
L 520.751676 488.81756 
L 523.423688 489.972923 
L 526.095699 492.73835 
L 528.767711 496.418416 
L 536.783746 501.270207 
L 542.12777 508.345658 
L 544.799782 510.85391 
L 547.471793 511.149891 
L 555.487829 509.478294 
L 558.15984 506.625568 
L 560.831852 503.304991 
L 563.503864 500.419636 
L 566.175876 499.571565 
L 574.191911 499.61272 
L 576.863922 502.51818 
L 579.535934 506.854703 
L 582.207946 511.504945 
L 584.879958 514.072115 
L 592.895993 514.882048 
L 595.568005 514.175782 
L 598.240016 511.979153 
L 600.912028 509.136166 
L 603.58404 504.950983 
L 611.600075 499.16584 
L 614.272087 492.158918 
L 616.944099 485.539685 
L 619.61611 478.389944 
L 622.288122 472.240725 
L 630.304157 465.277368 
L 635.648181 451.43502 
L 640.992204 437.46247 
L 649.008239 430.691126 
L 651.680251 424.399813 
L 654.352263 418.89382 
L 659.696286 409.544392 
L 667.712322 405.601784 
L 673.056345 403.27316 
L 675.728357 402.349486 
L 678.400368 402.327128 
L 689.088415 401.970031 
L 691.760427 401.69608 
L 694.432439 401.01595 
L 697.104451 401.462516 
L 705.120486 403.888642 
L 707.792498 407.146706 
L 710.464509 411.523392 
L 715.808533 421.588759 
L 726.49658 427.242833 
L 731.840603 424.536502 
L 734.512615 420.672347 
L 742.52865 416.422873 
L 747.872674 407.541716 
L 750.544685 403.14041 
L 753.216697 399.245353 
L 761.232732 394.367382 
L 763.904744 387.431302 
L 769.248768 372.378391 
L 771.920779 367.853683 
L 779.936814 366.008156 
L 782.608826 366.160712 
L 785.280838 368.812005 
L 787.95285 373.199015 
L 790.624861 379.585691 
L 798.640897 388.172848 
L 801.312908 398.353974 
L 803.98492 409.280122 
L 809.328944 428.413649 
L 817.344979 437.594721 
L 820.016991 444.979249 
L 825.361014 450.340286 
L 828.033026 454.455743 
L 836.049061 457.960092 
L 838.721073 461.644598 
L 846.737108 470.929189 
L 857.425155 473.276258 
L 860.097167 472.777312 
L 862.769178 471.682925 
L 865.44119 470.92078 
L 873.457225 470.257545 
L 876.129237 470.559063 
L 881.47326 471.449194 
L 884.145272 472.736205 
L 892.161307 472.978108 
L 894.833319 471.370348 
L 900.177343 468.793863 
L 902.849354 469.024647 
L 910.86539 471.204864 
L 916.209413 475.125885 
L 921.553437 486.532771 
L 929.569472 491.938525 
L 932.241483 496.376861 
L 937.585507 504.789523 
L 940.257519 509.978585 
L 940.257519 509.978585 
" clip-path="url(#pac18b777d0)" style="fill: none; stroke: #ff7f0e; stroke-width: 1.5; stroke-linecap: square"/>
   </g>
   <g id="patch_9">
    <path d="M 45.267188 584.521875 
L 45.267188 331.135938 
" style="fill: none; stroke: #000000; stroke-width: 0.8; stroke-linejoin: miter; stroke-linecap: square"/>
   </g>
   <g id="patch_10">
    <path d="M 982.876106 584.521875 
L 982.876106 331.135938 
" style="fill: none; stroke: #000000; stroke-width: 0.8; stroke-linejoin: miter; stroke-linecap: square"/>
   </g>
   <g id="patch_11">
    <path d="M 45.267188 584.521875 
L 982.876106 584.521875 
" style="fill: none; stroke: #000000; stroke-width: 0.8; stroke-linejoin: miter; stroke-linecap: square"/>
   </g>
   <g id="patch_12">
    <path d="M 45.267188 331.135938 
L 982.876106 331.135938 
" style="fill: none; stroke: #000000; stroke-width: 0.8; stroke-linejoin: miter; stroke-linecap: square"/>
   </g>
   <g id="text_33">
    <!-- MACD -->
    <g transform="translate(496.085709 325.135938)scale(0.12 -0.12)">
     <defs>
      <path id="DejaVuSans-44" d="M 1259 4147 
L 1259 519 
L 2022 519 
Q 2988 519 3436 956 
Q 3884 1394 3884 2338 
Q 3884 3275 3436 3711 
Q 2988 4147 2022 4147 
L 1259 4147 
z
M 628 4666 
L 1925 4666 
Q 3281 4666 3915 4102 
Q 4550 3538 4550 2338 
Q 4550 1131 3912 565 
Q 3275 0 1925 0 
L 628 0 
L 628 4666 
z
" transform="scale(0.015625)"/>
     </defs>
     <use xlink:href="#DejaVuSans-4d"/>
     <use xlink:href="#DejaVuSans-41" x="86.279297"/>
     <use xlink:href="#DejaVuSans-43" x="152.9375"/>
     <use xlink:href="#DejaVuSans-44" x="222.761719"/>
    </g>
   </g>
   <g id="legend_2">
    <g id="patch_13">
     <path d="M 913.899543 368.492188 
L 975.876106 368.492188 
Q 977.876106 368.492188 977.876106 366.492188 
L 977.876106 338.135938 
Q 977.876106 336.135938 975.876106 336.135938 
L 913.899543 336.135938 
Q 911.899543 336.135938 911.899543 338.135938 
L 911.899543 366.492188 
Q 911.899543 368.492188 913.899543 368.492188 
z
" style="fill: #ffffff; opacity: 0.8; stroke: #cccccc; stroke-linejoin: miter"/>
    </g>
    <g id="line2d_89">
     <path d="M 915.899543 344.234375 
L 925.899543 344.234375 
L 935.899543 344.234375 
" style="fill: none; stroke: #1f77b4; stroke-width: 1.5; stroke-linecap: square"/>
    </g>
    <g id="text_34">
     <!-- MACD -->
     <g transform="translate(943.899543 347.734375)scale(0.1 -0.1)">
      <use xlink:href="#DejaVuSans-4d"/>
      <use xlink:href="#DejaVuSans-41" x="86.279297"/>
      <use xlink:href="#DejaVuSans-43" x="152.9375"/>
      <use xlink:href="#DejaVuSans-44" x="222.761719"/>
     </g>
    </g>
    <g id="line2d_90">
     <path d="M 915.899543 358.9125 
L 925.899543 358.9125 
L 935.899543 358.9125 
" style="fill: none; stroke: #ff7f0e; stroke-width: 1.5; stroke-linecap: square"/>
    </g>
    <g id="text_35">
     <!-- SIG -->
     <g transform="translate(943.899543 362.4125)scale(0.1 -0.1)">
      <defs>
       <path id="DejaVuSans-49" d="M 628 4666 
L 1259 4666 
L 1259 0 
L 628 0 
L 628 4666 
z
" transform="scale(0.015625)"/>
       <path id="DejaVuSans-47" d="M 3809 666 
L 3809 1919 
L 2778 1919 
L 2778 2438 
L 4434 2438 
L 4434 434 
Q 4069 175 3628 42 
Q 3188 -91 2688 -91 
Q 1594 -91 976 548 
Q 359 1188 359 2328 
Q 359 3472 976 4111 
Q 1594 4750 2688 4750 
Q 3144 4750 3555 4637 
Q 3966 4525 4313 4306 
L 4313 3634 
Q 3963 3931 3569 4081 
Q 3175 4231 2741 4231 
Q 1884 4231 1454 3753 
Q 1025 3275 1025 2328 
Q 1025 1384 1454 906 
Q 1884 428 2741 428 
Q 3075 428 3337 486 
Q 3600 544 3809 666 
z
" transform="scale(0.015625)"/>
      </defs>
      <use xlink:href="#DejaVuSans-53"/>
      <use xlink:href="#DejaVuSans-49" x="63.476562"/>
      <use xlink:href="#DejaVuSans-47" x="92.96875"/>
     </g>
    </g>
   </g>
  </g>
  <g id="text_36">
   <!-- SRF Limited -->
   <g transform="translate(468.289688 21.358125)scale(0.12 -0.12)">
    <defs>
     <path id="DejaVuSans-52" d="M 2841 2188 
Q 3044 2119 3236 1894 
Q 3428 1669 3622 1275 
L 4263 0 
L 3584 0 
L 2988 1197 
Q 2756 1666 2539 1819 
Q 2322 1972 1947 1972 
L 1259 1972 
L 1259 0 
L 628 0 
L 628 4666 
L 2053 4666 
Q 2853 4666 3247 4331 
Q 3641 3997 3641 3322 
Q 3641 2881 3436 2590 
Q 3231 2300 2841 2188 
z
M 1259 4147 
L 1259 2491 
L 2053 2491 
Q 2509 2491 2742 2702 
Q 2975 2913 2975 3322 
Q 2975 3731 2742 3939 
Q 2509 4147 2053 4147 
L 1259 4147 
z
" transform="scale(0.015625)"/>
     <path id="DejaVuSans-46" d="M 628 4666 
L 3309 4666 
L 3309 4134 
L 1259 4134 
L 1259 2759 
L 3109 2759 
L 3109 2228 
L 1259 2228 
L 1259 0 
L 628 0 
L 628 4666 
z
" transform="scale(0.015625)"/>
     <path id="DejaVuSans-6d" d="M 3328 2828 
Q 3544 3216 3844 3400 
Q 4144 3584 4550 3584 
Q 5097 3584 5394 3201 
Q 5691 2819 5691 2113 
L 5691 0 
L 5113 0 
L 5113 2094 
Q 5113 2597 4934 2840 
Q 4756 3084 4391 3084 
Q 3944 3084 3684 2787 
Q 3425 2491 3425 1978 
L 3425 0 
L 2847 0 
L 2847 2094 
Q 2847 2600 2669 2842 
Q 2491 3084 2119 3084 
Q 1678 3084 1418 2786 
Q 1159 2488 1159 1978 
L 1159 0 
L 581 0 
L 581 3500 
L 1159 3500 
L 1159 2956 
Q 1356 3278 1631 3431 
Q 1906 3584 2284 3584 
Q 2666 3584 2933 3390 
Q 3200 3197 3328 2828 
z
" transform="scale(0.015625)"/>
     <path id="DejaVuSans-74" d="M 1172 4494 
L 1172 3500 
L 2356 3500 
L 2356 3053 
L 1172 3053 
L 1172 1153 
Q 1172 725 1289 603 
Q 1406 481 1766 481 
L 2356 481 
L 2356 0 
L 1766 0 
Q 1100 0 847 248 
Q 594 497 594 1153 
L 594 3053 
L 172 3053 
L 172 3500 
L 594 3500 
L 594 4494 
L 1172 4494 
z
" transform="scale(0.015625)"/>
     <path id="DejaVuSans-64" d="M 2906 2969 
L 2906 4863 
L 3481 4863 
L 3481 0 
L 2906 0 
L 2906 525 
Q 2725 213 2448 61 
Q 2172 -91 1784 -91 
Q 1150 -91 751 415 
Q 353 922 353 1747 
Q 353 2572 751 3078 
Q 1150 3584 1784 3584 
Q 2172 3584 2448 3432 
Q 2725 3281 2906 2969 
z
M 947 1747 
Q 947 1113 1208 752 
Q 1469 391 1925 391 
Q 2381 391 2643 752 
Q 2906 1113 2906 1747 
Q 2906 2381 2643 2742 
Q 2381 3103 1925 3103 
Q 1469 3103 1208 2742 
Q 947 2381 947 1747 
z
" transform="scale(0.015625)"/>
    </defs>
    <use xlink:href="#DejaVuSans-53"/>
    <use xlink:href="#DejaVuSans-52" x="63.476562"/>
    <use xlink:href="#DejaVuSans-46" x="132.958984"/>
    <use xlink:href="#DejaVuSans-20" x="190.478516"/>
    <use xlink:href="#DejaVuSans-4c" x="222.265625"/>
    <use xlink:href="#DejaVuSans-69" x="277.978516"/>
    <use xlink:href="#DejaVuSans-6d" x="305.761719"/>
    <use xlink:href="#DejaVuSans-69" x="403.173828"/>
    <use xlink:href="#DejaVuSans-74" x="430.957031"/>
    <use xlink:href="#DejaVuSans-65" x="470.166016"/>
    <use xlink:href="#DejaVuSans-64" x="531.689453"/>
   </g>
  </g>
 </g>
 <defs>
  <clipPath id="pd584bb4241">
   <rect x="45.267188" y="48.331875" width="937.608918" height="253.385938"/>
  </clipPath>
  <clipPath id="pac18b777d0">
   <rect x="45.267188" y="331.135938" width="937.608918" height="253.385937"/>
  </clipPath>
 </defs>
</svg>
