<?xml version="1.0" encoding="utf-8" standalone="no"?>
<!DOCTYPE svg PUBLIC "-//W3C//DTD SVG 1.1//EN"
  "http://www.w3.org/Graphics/SVG/1.1/DTD/svg11.dtd">
<svg xmlns:xlink="http://www.w3.org/1999/xlink" width="1008pt" height="612pt" viewBox="0 0 1008 612" xmlns="http://www.w3.org/2000/svg" version="1.1">
 <metadata>
  <rdf:RDF xmlns:dc="http://purl.org/dc/elements/1.1/" xmlns:cc="http://creativecommons.org/ns#" xmlns:rdf="http://www.w3.org/1999/02/22-rdf-syntax-ns#">
   <cc:Work>
    <dc:type rdf:resource="http://purl.org/dc/dcmitype/StillImage"/>
    <dc:date>2022-11-20T19:47:15.364092</dc:date>
    <dc:format>image/svg+xml</dc:format>
    <dc:creator>
     <cc:Agent>
      <dc:title>Matplotlib v3.5.2, https://matplotlib.org/</dc:title>
     </cc:Agent>
    </dc:creator>
   </cc:Work>
  </rdf:RDF>
 </metadata>
 <defs>
  <style type="text/css">*{stroke-linejoin: round; stroke-linecap: butt}</style>
 </defs>
 <g id="figure_1">
  <g id="patch_1">
   <path d="M 0 612 
L 1008 612 
L 1008 0 
L 0 0 
z
" style="fill: #ffffff"/>
  </g>
  <g id="axes_1">
   <g id="patch_2">
    <path d="M 48.445313 301.717812 
L 982.876106 301.717812 
L 982.876106 48.331875 
L 48.445313 48.331875 
z
" style="fill: #ffffff"/>
   </g>
   <g id="matplotlib.axis_1">
    <g id="xtick_1">
     <g id="line2d_1">
      <path d="M 85.59353 301.717812 
L 85.59353 48.331875 
" clip-path="url(#p904ac91207)" style="fill: none; stroke-dasharray: 2.96,1.28; stroke-dashoffset: 0; stroke: #b0b0b0; stroke-width: 0.8"/>
     </g>
     <g id="line2d_2">
      <defs>
       <path id="ma340bc403a" d="M 0 0 
L 0 3.5 
" style="stroke: #000000; stroke-width: 0.8"/>
      </defs>
      <g>
       <use xlink:href="#ma340bc403a" x="85.59353" y="301.717812" style="stroke: #000000; stroke-width: 0.8"/>
      </g>
     </g>
    </g>
    <g id="xtick_2">
     <g id="line2d_3">
      <path d="M 168.145125 301.717812 
L 168.145125 48.331875 
" clip-path="url(#p904ac91207)" style="fill: none; stroke-dasharray: 2.96,1.28; stroke-dashoffset: 0; stroke: #b0b0b0; stroke-width: 0.8"/>
     </g>
     <g id="line2d_4">
      <g>
       <use xlink:href="#ma340bc403a" x="168.145125" y="301.717812" style="stroke: #000000; stroke-width: 0.8"/>
      </g>
     </g>
    </g>
    <g id="xtick_3">
     <g id="line2d_5">
      <path d="M 242.707856 301.717812 
L 242.707856 48.331875 
" clip-path="url(#p904ac91207)" style="fill: none; stroke-dasharray: 2.96,1.28; stroke-dashoffset: 0; stroke: #b0b0b0; stroke-width: 0.8"/>
     </g>
     <g id="line2d_6">
      <g>
       <use xlink:href="#ma340bc403a" x="242.707856" y="301.717812" style="stroke: #000000; stroke-width: 0.8"/>
      </g>
     </g>
    </g>
    <g id="xtick_4">
     <g id="line2d_7">
      <path d="M 325.25945 301.717812 
L 325.25945 48.331875 
" clip-path="url(#p904ac91207)" style="fill: none; stroke-dasharray: 2.96,1.28; stroke-dashoffset: 0; stroke: #b0b0b0; stroke-width: 0.8"/>
     </g>
     <g id="line2d_8">
      <g>
       <use xlink:href="#ma340bc403a" x="325.25945" y="301.717812" style="stroke: #000000; stroke-width: 0.8"/>
      </g>
     </g>
    </g>
    <g id="xtick_5">
     <g id="line2d_9">
      <path d="M 405.14809 301.717812 
L 405.14809 48.331875 
" clip-path="url(#p904ac91207)" style="fill: none; stroke-dasharray: 2.96,1.28; stroke-dashoffset: 0; stroke: #b0b0b0; stroke-width: 0.8"/>
     </g>
     <g id="line2d_10">
      <g>
       <use xlink:href="#ma340bc403a" x="405.14809" y="301.717812" style="stroke: #000000; stroke-width: 0.8"/>
      </g>
     </g>
    </g>
    <g id="xtick_6">
     <g id="line2d_11">
      <path d="M 487.699685 301.717812 
L 487.699685 48.331875 
" clip-path="url(#p904ac91207)" style="fill: none; stroke-dasharray: 2.96,1.28; stroke-dashoffset: 0; stroke: #b0b0b0; stroke-width: 0.8"/>
     </g>
     <g id="line2d_12">
      <g>
       <use xlink:href="#ma340bc403a" x="487.699685" y="301.717812" style="stroke: #000000; stroke-width: 0.8"/>
      </g>
     </g>
    </g>
    <g id="xtick_7">
     <g id="line2d_13">
      <path d="M 567.588325 301.717812 
L 567.588325 48.331875 
" clip-path="url(#p904ac91207)" style="fill: none; stroke-dasharray: 2.96,1.28; stroke-dashoffset: 0; stroke: #b0b0b0; stroke-width: 0.8"/>
     </g>
     <g id="line2d_14">
      <g>
       <use xlink:href="#ma340bc403a" x="567.588325" y="301.717812" style="stroke: #000000; stroke-width: 0.8"/>
      </g>
     </g>
    </g>
    <g id="xtick_8">
     <g id="line2d_15">
      <path d="M 650.13992 301.717812 
L 650.13992 48.331875 
" clip-path="url(#p904ac91207)" style="fill: none; stroke-dasharray: 2.96,1.28; stroke-dashoffset: 0; stroke: #b0b0b0; stroke-width: 0.8"/>
     </g>
     <g id="line2d_16">
      <g>
       <use xlink:href="#ma340bc403a" x="650.13992" y="301.717812" style="stroke: #000000; stroke-width: 0.8"/>
      </g>
     </g>
    </g>
    <g id="xtick_9">
     <g id="line2d_17">
      <path d="M 732.691515 301.717812 
L 732.691515 48.331875 
" clip-path="url(#p904ac91207)" style="fill: none; stroke-dasharray: 2.96,1.28; stroke-dashoffset: 0; stroke: #b0b0b0; stroke-width: 0.8"/>
     </g>
     <g id="line2d_18">
      <g>
       <use xlink:href="#ma340bc403a" x="732.691515" y="301.717812" style="stroke: #000000; stroke-width: 0.8"/>
      </g>
     </g>
    </g>
    <g id="xtick_10">
     <g id="line2d_19">
      <path d="M 812.580155 301.717812 
L 812.580155 48.331875 
" clip-path="url(#p904ac91207)" style="fill: none; stroke-dasharray: 2.96,1.28; stroke-dashoffset: 0; stroke: #b0b0b0; stroke-width: 0.8"/>
     </g>
     <g id="line2d_20">
      <g>
       <use xlink:href="#ma340bc403a" x="812.580155" y="301.717812" style="stroke: #000000; stroke-width: 0.8"/>
      </g>
     </g>
    </g>
    <g id="xtick_11">
     <g id="line2d_21">
      <path d="M 895.13175 301.717812 
L 895.13175 48.331875 
" clip-path="url(#p904ac91207)" style="fill: none; stroke-dasharray: 2.96,1.28; stroke-dashoffset: 0; stroke: #b0b0b0; stroke-width: 0.8"/>
     </g>
     <g id="line2d_22">
      <g>
       <use xlink:href="#ma340bc403a" x="895.13175" y="301.717812" style="stroke: #000000; stroke-width: 0.8"/>
      </g>
     </g>
    </g>
    <g id="xtick_12">
     <g id="line2d_23">
      <path d="M 975.02039 301.717812 
L 975.02039 48.331875 
" clip-path="url(#p904ac91207)" style="fill: none; stroke-dasharray: 2.96,1.28; stroke-dashoffset: 0; stroke: #b0b0b0; stroke-width: 0.8"/>
     </g>
     <g id="line2d_24">
      <g>
       <use xlink:href="#ma340bc403a" x="975.02039" y="301.717812" style="stroke: #000000; stroke-width: 0.8"/>
      </g>
     </g>
    </g>
   </g>
   <g id="matplotlib.axis_2">
    <g id="ytick_1">
     <g id="line2d_25">
      <path d="M 48.445313 273.518958 
L 982.876106 273.518958 
" clip-path="url(#p904ac91207)" style="fill: none; stroke-dasharray: 2.96,1.28; stroke-dashoffset: 0; stroke: #b0b0b0; stroke-width: 0.8"/>
     </g>
     <g id="line2d_26">
      <defs>
       <path id="m354b54e3e0" d="M 0 0 
L -3.5 0 
" style="stroke: #000000; stroke-width: 0.8"/>
      </defs>
      <g>
       <use xlink:href="#m354b54e3e0" x="48.445313" y="273.518958" style="stroke: #000000; stroke-width: 0.8"/>
      </g>
     </g>
     <g id="text_1">
      <!-- 300 -->
      <g transform="translate(22.357813 277.318177)scale(0.1 -0.1)">
       <defs>
        <path id="DejaVuSans-33" d="M 2597 2516 
Q 3050 2419 3304 2112 
Q 3559 1806 3559 1356 
Q 3559 666 3084 287 
Q 2609 -91 1734 -91 
Q 1441 -91 1130 -33 
Q 819 25 488 141 
L 488 750 
Q 750 597 1062 519 
Q 1375 441 1716 441 
Q 2309 441 2620 675 
Q 2931 909 2931 1356 
Q 2931 1769 2642 2001 
Q 2353 2234 1838 2234 
L 1294 2234 
L 1294 2753 
L 1863 2753 
Q 2328 2753 2575 2939 
Q 2822 3125 2822 3475 
Q 2822 3834 2567 4026 
Q 2313 4219 1838 4219 
Q 1578 4219 1281 4162 
Q 984 4106 628 3988 
L 628 4550 
Q 988 4650 1302 4700 
Q 1616 4750 1894 4750 
Q 2613 4750 3031 4423 
Q 3450 4097 3450 3541 
Q 3450 3153 3228 2886 
Q 3006 2619 2597 2516 
z
" transform="scale(0.015625)"/>
        <path id="DejaVuSans-30" d="M 2034 4250 
Q 1547 4250 1301 3770 
Q 1056 3291 1056 2328 
Q 1056 1369 1301 889 
Q 1547 409 2034 409 
Q 2525 409 2770 889 
Q 3016 1369 3016 2328 
Q 3016 3291 2770 3770 
Q 2525 4250 2034 4250 
z
M 2034 4750 
Q 2819 4750 3233 4129 
Q 3647 3509 3647 2328 
Q 3647 1150 3233 529 
Q 2819 -91 2034 -91 
Q 1250 -91 836 529 
Q 422 1150 422 2328 
Q 422 3509 836 4129 
Q 1250 4750 2034 4750 
z
" transform="scale(0.015625)"/>
       </defs>
       <use xlink:href="#DejaVuSans-33"/>
       <use xlink:href="#DejaVuSans-30" x="63.623047"/>
       <use xlink:href="#DejaVuSans-30" x="127.246094"/>
      </g>
     </g>
    </g>
    <g id="ytick_2">
     <g id="line2d_27">
      <path d="M 48.445313 231.018801 
L 982.876106 231.018801 
" clip-path="url(#p904ac91207)" style="fill: none; stroke-dasharray: 2.96,1.28; stroke-dashoffset: 0; stroke: #b0b0b0; stroke-width: 0.8"/>
     </g>
     <g id="line2d_28">
      <g>
       <use xlink:href="#m354b54e3e0" x="48.445313" y="231.018801" style="stroke: #000000; stroke-width: 0.8"/>
      </g>
     </g>
     <g id="text_2">
      <!-- 320 -->
      <g transform="translate(22.357813 234.81802)scale(0.1 -0.1)">
       <defs>
        <path id="DejaVuSans-32" d="M 1228 531 
L 3431 531 
L 3431 0 
L 469 0 
L 469 531 
Q 828 903 1448 1529 
Q 2069 2156 2228 2338 
Q 2531 2678 2651 2914 
Q 2772 3150 2772 3378 
Q 2772 3750 2511 3984 
Q 2250 4219 1831 4219 
Q 1534 4219 1204 4116 
Q 875 4013 500 3803 
L 500 4441 
Q 881 4594 1212 4672 
Q 1544 4750 1819 4750 
Q 2544 4750 2975 4387 
Q 3406 4025 3406 3419 
Q 3406 3131 3298 2873 
Q 3191 2616 2906 2266 
Q 2828 2175 2409 1742 
Q 1991 1309 1228 531 
z
" transform="scale(0.015625)"/>
       </defs>
       <use xlink:href="#DejaVuSans-33"/>
       <use xlink:href="#DejaVuSans-32" x="63.623047"/>
       <use xlink:href="#DejaVuSans-30" x="127.246094"/>
      </g>
     </g>
    </g>
    <g id="ytick_3">
     <g id="line2d_29">
      <path d="M 48.445313 188.518644 
L 982.876106 188.518644 
" clip-path="url(#p904ac91207)" style="fill: none; stroke-dasharray: 2.96,1.28; stroke-dashoffset: 0; stroke: #b0b0b0; stroke-width: 0.8"/>
     </g>
     <g id="line2d_30">
      <g>
       <use xlink:href="#m354b54e3e0" x="48.445313" y="188.518644" style="stroke: #000000; stroke-width: 0.8"/>
      </g>
     </g>
     <g id="text_3">
      <!-- 340 -->
      <g transform="translate(22.357813 192.317862)scale(0.1 -0.1)">
       <defs>
        <path id="DejaVuSans-34" d="M 2419 4116 
L 825 1625 
L 2419 1625 
L 2419 4116 
z
M 2253 4666 
L 3047 4666 
L 3047 1625 
L 3713 1625 
L 3713 1100 
L 3047 1100 
L 3047 0 
L 2419 0 
L 2419 1100 
L 313 1100 
L 313 1709 
L 2253 4666 
z
" transform="scale(0.015625)"/>
       </defs>
       <use xlink:href="#DejaVuSans-33"/>
       <use xlink:href="#DejaVuSans-34" x="63.623047"/>
       <use xlink:href="#DejaVuSans-30" x="127.246094"/>
      </g>
     </g>
    </g>
    <g id="ytick_4">
     <g id="line2d_31">
      <path d="M 48.445313 146.018486 
L 982.876106 146.018486 
" clip-path="url(#p904ac91207)" style="fill: none; stroke-dasharray: 2.96,1.28; stroke-dashoffset: 0; stroke: #b0b0b0; stroke-width: 0.8"/>
     </g>
     <g id="line2d_32">
      <g>
       <use xlink:href="#m354b54e3e0" x="48.445313" y="146.018486" style="stroke: #000000; stroke-width: 0.8"/>
      </g>
     </g>
     <g id="text_4">
      <!-- 360 -->
      <g transform="translate(22.357813 149.817705)scale(0.1 -0.1)">
       <defs>
        <path id="DejaVuSans-36" d="M 2113 2584 
Q 1688 2584 1439 2293 
Q 1191 2003 1191 1497 
Q 1191 994 1439 701 
Q 1688 409 2113 409 
Q 2538 409 2786 701 
Q 3034 994 3034 1497 
Q 3034 2003 2786 2293 
Q 2538 2584 2113 2584 
z
M 3366 4563 
L 3366 3988 
Q 3128 4100 2886 4159 
Q 2644 4219 2406 4219 
Q 1781 4219 1451 3797 
Q 1122 3375 1075 2522 
Q 1259 2794 1537 2939 
Q 1816 3084 2150 3084 
Q 2853 3084 3261 2657 
Q 3669 2231 3669 1497 
Q 3669 778 3244 343 
Q 2819 -91 2113 -91 
Q 1303 -91 875 529 
Q 447 1150 447 2328 
Q 447 3434 972 4092 
Q 1497 4750 2381 4750 
Q 2619 4750 2861 4703 
Q 3103 4656 3366 4563 
z
" transform="scale(0.015625)"/>
       </defs>
       <use xlink:href="#DejaVuSans-33"/>
       <use xlink:href="#DejaVuSans-36" x="63.623047"/>
       <use xlink:href="#DejaVuSans-30" x="127.246094"/>
      </g>
     </g>
    </g>
    <g id="ytick_5">
     <g id="line2d_33">
      <path d="M 48.445313 103.518329 
L 982.876106 103.518329 
" clip-path="url(#p904ac91207)" style="fill: none; stroke-dasharray: 2.96,1.28; stroke-dashoffset: 0; stroke: #b0b0b0; stroke-width: 0.8"/>
     </g>
     <g id="line2d_34">
      <g>
       <use xlink:href="#m354b54e3e0" x="48.445313" y="103.518329" style="stroke: #000000; stroke-width: 0.8"/>
      </g>
     </g>
     <g id="text_5">
      <!-- 380 -->
      <g transform="translate(22.357813 107.317548)scale(0.1 -0.1)">
       <defs>
        <path id="DejaVuSans-38" d="M 2034 2216 
Q 1584 2216 1326 1975 
Q 1069 1734 1069 1313 
Q 1069 891 1326 650 
Q 1584 409 2034 409 
Q 2484 409 2743 651 
Q 3003 894 3003 1313 
Q 3003 1734 2745 1975 
Q 2488 2216 2034 2216 
z
M 1403 2484 
Q 997 2584 770 2862 
Q 544 3141 544 3541 
Q 544 4100 942 4425 
Q 1341 4750 2034 4750 
Q 2731 4750 3128 4425 
Q 3525 4100 3525 3541 
Q 3525 3141 3298 2862 
Q 3072 2584 2669 2484 
Q 3125 2378 3379 2068 
Q 3634 1759 3634 1313 
Q 3634 634 3220 271 
Q 2806 -91 2034 -91 
Q 1263 -91 848 271 
Q 434 634 434 1313 
Q 434 1759 690 2068 
Q 947 2378 1403 2484 
z
M 1172 3481 
Q 1172 3119 1398 2916 
Q 1625 2713 2034 2713 
Q 2441 2713 2670 2916 
Q 2900 3119 2900 3481 
Q 2900 3844 2670 4047 
Q 2441 4250 2034 4250 
Q 1625 4250 1398 4047 
Q 1172 3844 1172 3481 
z
" transform="scale(0.015625)"/>
       </defs>
       <use xlink:href="#DejaVuSans-33"/>
       <use xlink:href="#DejaVuSans-38" x="63.623047"/>
       <use xlink:href="#DejaVuSans-30" x="127.246094"/>
      </g>
     </g>
    </g>
    <g id="ytick_6">
     <g id="line2d_35">
      <path d="M 48.445313 61.018172 
L 982.876106 61.018172 
" clip-path="url(#p904ac91207)" style="fill: none; stroke-dasharray: 2.96,1.28; stroke-dashoffset: 0; stroke: #b0b0b0; stroke-width: 0.8"/>
     </g>
     <g id="line2d_36">
      <g>
       <use xlink:href="#m354b54e3e0" x="48.445313" y="61.018172" style="stroke: #000000; stroke-width: 0.8"/>
      </g>
     </g>
     <g id="text_6">
      <!-- 400 -->
      <g transform="translate(22.357813 64.817391)scale(0.1 -0.1)">
       <use xlink:href="#DejaVuSans-34"/>
       <use xlink:href="#DejaVuSans-30" x="63.623047"/>
       <use xlink:href="#DejaVuSans-30" x="127.246094"/>
      </g>
     </g>
    </g>
   </g>
   <g id="line2d_37">
    <path d="M 90.919439 90.555781 
L 93.582394 90.874532 
L 96.245349 72.280714 
L 98.908303 69.943205 
L 101.571258 69.093202 
L 109.560122 66.224441 
L 112.223077 79.824492 
L 114.886031 85.030761 
L 117.548986 72.705715 
L 120.211941 64.311934 
L 128.200805 59.849418 
L 130.86376 65.055687 
L 133.526714 73.024466 
L 136.189669 75.786977 
L 138.852624 99.905816 
L 146.841488 118.180883 
L 149.504442 98.099559 
L 154.830352 98.843312 
L 157.493306 98.20581 
L 165.48217 67.286945 
L 168.145125 105.962088 
L 170.80808 99.055813 
L 173.471034 109.787102 
L 176.133989 112.762113 
L 184.122853 119.562139 
L 186.785808 109.04335 
L 189.448762 112.868364 
L 192.111717 125.512161 
L 194.774672 125.724661 
L 202.763536 142.405973 
L 205.42649 127.105916 
L 208.089445 116.055876 
L 210.7524 118.393384 
L 213.415354 118.074633 
L 221.404218 127.424668 
L 224.067173 156.006023 
L 226.730128 152.181009 
L 229.393082 203.287448 
L 232.056037 196.274922 
L 240.044901 167.693567 
L 245.37081 184.056127 
L 248.033765 174.918593 
L 250.69672 170.774828 
L 258.685584 192.768659 
L 261.348538 185.118631 
L 264.011493 182.887373 
L 266.674448 169.393573 
L 269.337402 141.768471 
L 277.326266 146.762239 
L 279.989221 166.631063 
L 282.652176 153.881016 
L 285.31513 137.093453 
L 295.966949 151.968508 
L 298.629904 128.16842 
L 301.292858 131.993435 
L 303.955813 140.493466 
L 306.618768 145.380984 
L 314.607632 146.655989 
L 317.270586 149.312249 
L 319.933541 145.912236 
L 322.596496 147.399742 
L 325.25945 115.418373 
L 333.248314 103.093328 
L 335.911269 103.518329 
L 338.574224 91.193284 
L 341.237178 101.818323 
L 343.900133 93.849543 
L 351.888997 85.774514 
L 354.551952 102.243324 
L 357.214906 105.643337 
L 370.52968 121.049644 
L 373.192634 112.337112 
L 375.855589 82.374501 
L 378.518544 65.90569 
L 381.181498 75.043224 
L 389.170362 125.40591 
L 391.833317 118.712135 
L 394.496272 132.205935 
L 397.159226 126.149663 
L 399.822181 140.493466 
L 407.811045 132.312186 
L 413.136954 138.687209 
L 415.799909 143.893479 
L 418.462864 151.756008 
L 426.451728 160.043538 
L 429.114682 159.937288 
L 431.777637 173.431088 
L 434.440592 188.624894 
L 437.103546 194.999918 
L 445.09241 196.806174 
L 447.755365 183.312374 
L 450.41832 205.731207 
L 453.081274 216.887499 
L 455.744229 203.8187 
L 463.733093 205.306206 
L 466.396048 209.556222 
L 469.059002 217.950003 
L 471.721957 221.775017 
L 474.384912 226.025032 
L 482.373776 211.574979 
L 485.03673 217.843752 
L 487.699685 218.268754 
L 490.36264 211.149977 
L 493.025594 213.699987 
L 501.014459 232.400056 
L 503.677413 230.487549 
L 506.340368 222.73127 
L 509.003323 203.71245 
L 511.666277 207.643714 
L 519.655141 235.375067 
L 522.318096 243.131346 
L 524.981051 243.768848 
L 527.644005 248.762617 
L 530.30696 271.39395 
L 538.295824 281.912739 
L 540.958779 270.968949 
L 543.621733 260.981412 
L 546.284688 256.731396 
L 548.947643 257.475149 
L 556.936507 241.64384 
L 559.599461 233.993812 
L 562.262416 238.668829 
L 564.925371 255.668892 
L 567.588325 234.525064 
L 575.577189 238.77508 
L 578.240144 245.681355 
L 583.566053 211.043727 
L 586.229008 219.756259 
L 594.217872 239.731333 
L 596.880827 255.13764 
L 599.543781 251.206376 
L 602.206736 260.45016 
L 604.869691 247.806363 
L 612.858555 239.943834 
L 615.521509 238.350078 
L 618.184464 237.181324 
L 620.847419 225.28128 
L 623.510373 230.381299 
L 631.499237 237.075073 
L 634.162192 234.312563 
L 636.825147 221.243765 
L 639.488101 218.162503 
L 642.151056 209.13122 
L 650.13992 200.94994 
L 652.802875 198.824932 
L 655.465829 201.481192 
L 658.128784 201.374941 
L 660.791739 196.168672 
L 668.780603 219.012506 
L 674.106512 213.381236 
L 676.769467 213.274985 
L 679.432421 201.481192 
L 690.08424 175.981097 
L 692.747195 160.57479 
L 695.410149 173.537338 
L 698.073104 192.237407 
L 706.061968 202.012444 
L 708.724923 201.906193 
L 711.387877 210.724976 
L 714.050832 210.193724 
L 716.713787 211.681229 
L 724.702651 217.843752 
L 727.365605 212.637483 
L 732.691515 206.899962 
L 735.354469 226.875036 
L 743.343333 220.925014 
L 746.006288 221.987518 
L 748.669243 216.462497 
L 751.332197 188.837395 
L 753.995152 191.706155 
L 761.984016 182.993623 
L 764.646971 186.287385 
L 769.97288 206.793711 
L 772.635835 228.256291 
L 780.624699 229.106294 
L 783.287653 224.856278 
L 785.950608 230.912551 
L 788.613563 239.837584 
L 791.276517 248.125114 
L 799.265381 263.10642 
L 801.928336 250.887624 
L 804.591291 260.768911 
L 807.254245 266.612683 
L 809.9172 263.31892 
L 817.906064 254.818889 
L 820.569019 249.187618 
L 825.894928 247.700113 
L 828.557883 257.7939 
L 836.546747 263.637672 
L 839.209701 274.05021 
L 841.872656 268.206439 
L 844.535611 272.881456 
L 847.198565 278.087725 
L 855.187429 280.850235 
L 857.850384 282.550242 
L 860.513339 290.20027 
L 863.176293 279.681481 
L 865.839248 277.025221 
L 873.828112 271.925202 
L 876.491067 267.993938 
L 881.816976 261.618914 
L 884.479931 266.506432 
L 892.468795 265.762679 
L 895.13175 264.275174 
L 897.794704 262.468917 
L 900.457659 262.681418 
L 903.120614 270.650198 
L 911.109478 252.800132 
L 916.435387 258.962654 
L 919.098342 261.831415 
L 921.761296 254.606388 
L 929.75016 257.262648 
L 932.413115 254.606388 
L 935.07607 259.812657 
L 937.739024 262.468917 
L 940.401979 264.806426 
L 940.401979 264.806426 
" clip-path="url(#p904ac91207)" style="fill: none; stroke: #1f77b4; stroke-width: 1.5; stroke-linecap: square"/>
   </g>
   <g id="line2d_38">
    <path d="M 101.571258 78.549487 
L 109.560122 73.683219 
L 112.223077 71.473211 
L 114.886031 74.02322 
L 117.548986 74.575722 
L 120.211941 73.619469 
L 128.200805 72.344464 
L 130.86376 69.390703 
L 133.526714 66.989444 
L 136.189669 67.605696 
L 138.852624 74.724473 
L 146.841488 86.390766 
L 149.504442 92.99954 
L 154.830352 98.163309 
L 157.493306 102.647076 
L 165.48217 96.123302 
L 168.145125 93.679543 
L 170.80808 93.870793 
L 173.471034 96.059552 
L 176.133989 98.970812 
L 184.122853 109.425851 
L 186.785808 110.042103 
L 189.448762 112.804614 
L 192.111717 115.949625 
L 194.774672 118.542135 
L 202.763536 123.110902 
L 205.42649 126.723415 
L 208.089445 127.360917 
L 213.415354 124.407156 
L 221.404218 121.410895 
L 224.067173 127.190917 
L 226.730128 134.415944 
L 229.393082 151.394756 
L 232.056037 167.034814 
L 240.044901 175.088594 
L 245.37081 180.698615 
L 248.033765 185.246132 
L 250.69672 178.743608 
L 258.685584 178.042355 
L 261.348538 181.527368 
L 264.011493 181.293617 
L 266.674448 180.188613 
L 269.337402 174.387341 
L 277.326266 165.186057 
L 279.989221 161.488544 
L 282.652176 155.687272 
L 285.31513 149.227248 
L 295.966949 151.267256 
L 298.629904 147.548492 
L 301.292858 140.620966 
L 303.955813 137.943457 
L 306.618768 139.600963 
L 314.607632 138.538459 
L 317.270586 142.767224 
L 319.933541 145.550985 
L 322.596496 146.93224 
L 325.25945 140.939718 
L 333.248314 132.227185 
L 335.911269 123.068402 
L 338.574224 112.124611 
L 341.237178 103.008327 
L 343.900133 98.694561 
L 351.888997 95.230799 
L 354.551952 94.975798 
L 357.214906 97.865808 
L 370.52968 101.712073 
L 373.192634 105.409586 
L 375.855589 104.729584 
L 378.518544 97.462057 
L 381.181498 91.342034 
L 389.170362 92.213287 
L 391.833317 93.488292 
L 394.496272 103.454579 
L 397.159226 115.503374 
L 399.822181 128.593422 
L 407.811045 129.974677 
L 413.136954 133.969692 
L 415.799909 136.3072 
L 418.462864 141.428469 
L 426.451728 145.338484 
L 429.114682 150.863504 
L 431.777637 157.81228 
L 437.103546 175.407345 
L 445.09241 182.759872 
L 447.755365 187.43489 
L 450.41832 193.894914 
L 453.081274 199.547434 
L 455.744229 201.311191 
L 463.733093 203.011197 
L 466.396048 208.259967 
L 469.059002 210.703726 
L 471.721957 211.681229 
L 474.384912 216.122496 
L 482.373776 217.37625 
L 485.03673 219.033757 
L 487.699685 219.097507 
L 490.36264 216.972499 
L 493.025594 214.50749 
L 501.014459 218.672505 
L 503.677413 221.201265 
L 506.340368 222.093768 
L 509.003323 220.606262 
L 511.666277 219.395008 
L 519.655141 219.99001 
L 522.318096 222.518769 
L 524.981051 226.726285 
L 527.644005 235.736318 
L 530.30696 248.486366 
L 538.295824 257.7939 
L 540.958779 263.361421 
L 543.621733 266.803933 
L 546.284688 268.397689 
L 548.947643 265.613929 
L 556.936507 257.560149 
L 559.599461 250.165122 
L 562.262416 245.702605 
L 564.925371 245.490104 
L 567.588325 240.900087 
L 575.577189 240.326335 
L 578.240144 242.663844 
L 580.903099 240.581336 
L 583.566053 231.656303 
L 586.229008 228.702542 
L 594.217872 228.893793 
L 596.880827 230.78505 
L 599.543781 235.375067 
L 602.206736 245.256354 
L 604.869691 250.866374 
L 612.858555 250.908875 
L 615.521509 247.551362 
L 618.184464 244.746352 
L 620.847419 237.712576 
L 623.510373 234.227563 
L 631.499237 233.653811 
L 634.162192 232.846308 
L 636.825147 229.658796 
L 639.488101 228.235041 
L 642.151056 223.985025 
L 650.13992 216.759998 
L 652.802875 209.662472 
L 655.465829 205.709957 
L 658.128784 202.352445 
L 660.791739 199.759935 
L 668.780603 203.372449 
L 674.106512 206.283709 
L 676.769467 208.642468 
L 679.432421 208.663718 
L 690.08424 204.626203 
L 692.747195 192.93866 
L 695.410149 184.969881 
L 698.073104 180.762365 
L 706.061968 180.868615 
L 708.724923 186.053635 
L 711.387877 196.083672 
L 714.050832 203.414949 
L 716.713787 207.303713 
L 724.702651 210.469975 
L 727.365605 212.616233 
L 732.691515 211.85123 
L 735.354469 215.187492 
L 743.343333 217.036249 
L 748.669243 218.630005 
L 751.332197 215.017492 
L 753.995152 207.983716 
L 761.984016 200.397438 
L 764.646971 193.257411 
L 767.309925 189.304897 
L 769.97288 192.89616 
L 772.635835 200.206187 
L 780.624699 209.428721 
L 783.287653 217.1425 
L 788.613563 230.593799 
L 791.276517 234.567564 
L 799.265381 241.367589 
L 801.928336 246.573858 
L 804.591291 252.545131 
L 807.254245 257.90015 
L 809.9172 260.938912 
L 817.906064 259.281405 
L 820.569019 258.941404 
L 825.894928 256.327645 
L 828.557883 254.563888 
L 836.546747 254.627638 
L 841.872656 262.277667 
L 844.535611 267.313935 
L 847.198565 271.3727 
L 855.187429 274.815213 
L 857.850384 276.515219 
L 860.513339 280.913986 
L 863.176293 282.273991 
L 865.839248 282.06149 
L 873.828112 280.276483 
L 881.816976 271.648951 
L 884.479931 269.013941 
L 892.468795 266.761433 
L 895.13175 265.231428 
L 897.794704 264.126423 
L 900.457659 264.338924 
L 903.120614 265.167677 
L 911.109478 262.575168 
L 916.435387 261.512664 
L 919.098342 261.385163 
L 921.761296 259.770157 
L 929.75016 257.092647 
L 932.413115 257.453899 
L 937.739024 257.7514 
L 940.401979 259.791407 
L 940.401979 259.791407 
" clip-path="url(#p904ac91207)" style="fill: none; stroke: #ff7f0e; stroke-width: 1.5; stroke-linecap: square"/>
   </g>
   <g id="patch_3">
    <path d="M 48.445313 301.717812 
L 48.445313 48.331875 
" style="fill: none; stroke: #000000; stroke-width: 0.8; stroke-linejoin: miter; stroke-linecap: square"/>
   </g>
   <g id="patch_4">
    <path d="M 982.876106 301.717812 
L 982.876106 48.331875 
" style="fill: none; stroke: #000000; stroke-width: 0.8; stroke-linejoin: miter; stroke-linecap: square"/>
   </g>
   <g id="patch_5">
    <path d="M 48.445312 301.717812 
L 982.876106 301.717812 
" style="fill: none; stroke: #000000; stroke-width: 0.8; stroke-linejoin: miter; stroke-linecap: square"/>
   </g>
   <g id="patch_6">
    <path d="M 48.445312 48.331875 
L 982.876106 48.331875 
" style="fill: none; stroke: #000000; stroke-width: 0.8; stroke-linejoin: miter; stroke-linecap: square"/>
   </g>
   <g id="text_7">
    <!-- Closing Price -->
    <g transform="translate(477.184772 42.331875)scale(0.12 -0.12)">
     <defs>
      <path id="DejaVuSans-43" d="M 4122 4306 
L 4122 3641 
Q 3803 3938 3442 4084 
Q 3081 4231 2675 4231 
Q 1875 4231 1450 3742 
Q 1025 3253 1025 2328 
Q 1025 1406 1450 917 
Q 1875 428 2675 428 
Q 3081 428 3442 575 
Q 3803 722 4122 1019 
L 4122 359 
Q 3791 134 3420 21 
Q 3050 -91 2638 -91 
Q 1578 -91 968 557 
Q 359 1206 359 2328 
Q 359 3453 968 4101 
Q 1578 4750 2638 4750 
Q 3056 4750 3426 4639 
Q 3797 4528 4122 4306 
z
" transform="scale(0.015625)"/>
      <path id="DejaVuSans-6c" d="M 603 4863 
L 1178 4863 
L 1178 0 
L 603 0 
L 603 4863 
z
" transform="scale(0.015625)"/>
      <path id="DejaVuSans-6f" d="M 1959 3097 
Q 1497 3097 1228 2736 
Q 959 2375 959 1747 
Q 959 1119 1226 758 
Q 1494 397 1959 397 
Q 2419 397 2687 759 
Q 2956 1122 2956 1747 
Q 2956 2369 2687 2733 
Q 2419 3097 1959 3097 
z
M 1959 3584 
Q 2709 3584 3137 3096 
Q 3566 2609 3566 1747 
Q 3566 888 3137 398 
Q 2709 -91 1959 -91 
Q 1206 -91 779 398 
Q 353 888 353 1747 
Q 353 2609 779 3096 
Q 1206 3584 1959 3584 
z
" transform="scale(0.015625)"/>
      <path id="DejaVuSans-73" d="M 2834 3397 
L 2834 2853 
Q 2591 2978 2328 3040 
Q 2066 3103 1784 3103 
Q 1356 3103 1142 2972 
Q 928 2841 928 2578 
Q 928 2378 1081 2264 
Q 1234 2150 1697 2047 
L 1894 2003 
Q 2506 1872 2764 1633 
Q 3022 1394 3022 966 
Q 3022 478 2636 193 
Q 2250 -91 1575 -91 
Q 1294 -91 989 -36 
Q 684 19 347 128 
L 347 722 
Q 666 556 975 473 
Q 1284 391 1588 391 
Q 1994 391 2212 530 
Q 2431 669 2431 922 
Q 2431 1156 2273 1281 
Q 2116 1406 1581 1522 
L 1381 1569 
Q 847 1681 609 1914 
Q 372 2147 372 2553 
Q 372 3047 722 3315 
Q 1072 3584 1716 3584 
Q 2034 3584 2315 3537 
Q 2597 3491 2834 3397 
z
" transform="scale(0.015625)"/>
      <path id="DejaVuSans-69" d="M 603 3500 
L 1178 3500 
L 1178 0 
L 603 0 
L 603 3500 
z
M 603 4863 
L 1178 4863 
L 1178 4134 
L 603 4134 
L 603 4863 
z
" transform="scale(0.015625)"/>
      <path id="DejaVuSans-6e" d="M 3513 2113 
L 3513 0 
L 2938 0 
L 2938 2094 
Q 2938 2591 2744 2837 
Q 2550 3084 2163 3084 
Q 1697 3084 1428 2787 
Q 1159 2491 1159 1978 
L 1159 0 
L 581 0 
L 581 3500 
L 1159 3500 
L 1159 2956 
Q 1366 3272 1645 3428 
Q 1925 3584 2291 3584 
Q 2894 3584 3203 3211 
Q 3513 2838 3513 2113 
z
" transform="scale(0.015625)"/>
      <path id="DejaVuSans-67" d="M 2906 1791 
Q 2906 2416 2648 2759 
Q 2391 3103 1925 3103 
Q 1463 3103 1205 2759 
Q 947 2416 947 1791 
Q 947 1169 1205 825 
Q 1463 481 1925 481 
Q 2391 481 2648 825 
Q 2906 1169 2906 1791 
z
M 3481 434 
Q 3481 -459 3084 -895 
Q 2688 -1331 1869 -1331 
Q 1566 -1331 1297 -1286 
Q 1028 -1241 775 -1147 
L 775 -588 
Q 1028 -725 1275 -790 
Q 1522 -856 1778 -856 
Q 2344 -856 2625 -561 
Q 2906 -266 2906 331 
L 2906 616 
Q 2728 306 2450 153 
Q 2172 0 1784 0 
Q 1141 0 747 490 
Q 353 981 353 1791 
Q 353 2603 747 3093 
Q 1141 3584 1784 3584 
Q 2172 3584 2450 3431 
Q 2728 3278 2906 2969 
L 2906 3500 
L 3481 3500 
L 3481 434 
z
" transform="scale(0.015625)"/>
      <path id="DejaVuSans-20" transform="scale(0.015625)"/>
      <path id="DejaVuSans-50" d="M 1259 4147 
L 1259 2394 
L 2053 2394 
Q 2494 2394 2734 2622 
Q 2975 2850 2975 3272 
Q 2975 3691 2734 3919 
Q 2494 4147 2053 4147 
L 1259 4147 
z
M 628 4666 
L 2053 4666 
Q 2838 4666 3239 4311 
Q 3641 3956 3641 3272 
Q 3641 2581 3239 2228 
Q 2838 1875 2053 1875 
L 1259 1875 
L 1259 0 
L 628 0 
L 628 4666 
z
" transform="scale(0.015625)"/>
      <path id="DejaVuSans-72" d="M 2631 2963 
Q 2534 3019 2420 3045 
Q 2306 3072 2169 3072 
Q 1681 3072 1420 2755 
Q 1159 2438 1159 1844 
L 1159 0 
L 581 0 
L 581 3500 
L 1159 3500 
L 1159 2956 
Q 1341 3275 1631 3429 
Q 1922 3584 2338 3584 
Q 2397 3584 2469 3576 
Q 2541 3569 2628 3553 
L 2631 2963 
z
" transform="scale(0.015625)"/>
      <path id="DejaVuSans-63" d="M 3122 3366 
L 3122 2828 
Q 2878 2963 2633 3030 
Q 2388 3097 2138 3097 
Q 1578 3097 1268 2742 
Q 959 2388 959 1747 
Q 959 1106 1268 751 
Q 1578 397 2138 397 
Q 2388 397 2633 464 
Q 2878 531 3122 666 
L 3122 134 
Q 2881 22 2623 -34 
Q 2366 -91 2075 -91 
Q 1284 -91 818 406 
Q 353 903 353 1747 
Q 353 2603 823 3093 
Q 1294 3584 2113 3584 
Q 2378 3584 2631 3529 
Q 2884 3475 3122 3366 
z
" transform="scale(0.015625)"/>
      <path id="DejaVuSans-65" d="M 3597 1894 
L 3597 1613 
L 953 1613 
Q 991 1019 1311 708 
Q 1631 397 2203 397 
Q 2534 397 2845 478 
Q 3156 559 3463 722 
L 3463 178 
Q 3153 47 2828 -22 
Q 2503 -91 2169 -91 
Q 1331 -91 842 396 
Q 353 884 353 1716 
Q 353 2575 817 3079 
Q 1281 3584 2069 3584 
Q 2775 3584 3186 3129 
Q 3597 2675 3597 1894 
z
M 3022 2063 
Q 3016 2534 2758 2815 
Q 2500 3097 2075 3097 
Q 1594 3097 1305 2825 
Q 1016 2553 972 2059 
L 3022 2063 
z
" transform="scale(0.015625)"/>
     </defs>
     <use xlink:href="#DejaVuSans-43"/>
     <use xlink:href="#DejaVuSans-6c" x="69.824219"/>
     <use xlink:href="#DejaVuSans-6f" x="97.607422"/>
     <use xlink:href="#DejaVuSans-73" x="158.789062"/>
     <use xlink:href="#DejaVuSans-69" x="210.888672"/>
     <use xlink:href="#DejaVuSans-6e" x="238.671875"/>
     <use xlink:href="#DejaVuSans-67" x="302.050781"/>
     <use xlink:href="#DejaVuSans-20" x="365.527344"/>
     <use xlink:href="#DejaVuSans-50" x="397.314453"/>
     <use xlink:href="#DejaVuSans-72" x="455.867188"/>
     <use xlink:href="#DejaVuSans-69" x="496.980469"/>
     <use xlink:href="#DejaVuSans-63" x="524.763672"/>
     <use xlink:href="#DejaVuSans-65" x="579.744141"/>
    </g>
   </g>
   <g id="legend_1">
    <g id="patch_7">
     <path d="M 911.144856 85.688125 
L 975.876106 85.688125 
Q 977.876106 85.688125 977.876106 83.688125 
L 977.876106 55.331875 
Q 977.876106 53.331875 975.876106 53.331875 
L 911.144856 53.331875 
Q 909.144856 53.331875 909.144856 55.331875 
L 909.144856 83.688125 
Q 909.144856 85.688125 911.144856 85.688125 
z
" style="fill: #ffffff; opacity: 0.8; stroke: #cccccc; stroke-linejoin: miter"/>
    </g>
    <g id="line2d_39">
     <path d="M 913.144856 61.430312 
L 923.144856 61.430312 
L 933.144856 61.430312 
" style="fill: none; stroke: #1f77b4; stroke-width: 1.5; stroke-linecap: square"/>
    </g>
    <g id="text_8">
     <!-- CLOSE -->
     <g transform="translate(941.144856 64.930312)scale(0.1 -0.1)">
      <defs>
       <path id="DejaVuSans-4c" d="M 628 4666 
L 1259 4666 
L 1259 531 
L 3531 531 
L 3531 0 
L 628 0 
L 628 4666 
z
" transform="scale(0.015625)"/>
       <path id="DejaVuSans-4f" d="M 2522 4238 
Q 1834 4238 1429 3725 
Q 1025 3213 1025 2328 
Q 1025 1447 1429 934 
Q 1834 422 2522 422 
Q 3209 422 3611 934 
Q 4013 1447 4013 2328 
Q 4013 3213 3611 3725 
Q 3209 4238 2522 4238 
z
M 2522 4750 
Q 3503 4750 4090 4092 
Q 4678 3434 4678 2328 
Q 4678 1225 4090 567 
Q 3503 -91 2522 -91 
Q 1538 -91 948 565 
Q 359 1222 359 2328 
Q 359 3434 948 4092 
Q 1538 4750 2522 4750 
z
" transform="scale(0.015625)"/>
       <path id="DejaVuSans-53" d="M 3425 4513 
L 3425 3897 
Q 3066 4069 2747 4153 
Q 2428 4238 2131 4238 
Q 1616 4238 1336 4038 
Q 1056 3838 1056 3469 
Q 1056 3159 1242 3001 
Q 1428 2844 1947 2747 
L 2328 2669 
Q 3034 2534 3370 2195 
Q 3706 1856 3706 1288 
Q 3706 609 3251 259 
Q 2797 -91 1919 -91 
Q 1588 -91 1214 -16 
Q 841 59 441 206 
L 441 856 
Q 825 641 1194 531 
Q 1563 422 1919 422 
Q 2459 422 2753 634 
Q 3047 847 3047 1241 
Q 3047 1584 2836 1778 
Q 2625 1972 2144 2069 
L 1759 2144 
Q 1053 2284 737 2584 
Q 422 2884 422 3419 
Q 422 4038 858 4394 
Q 1294 4750 2059 4750 
Q 2388 4750 2728 4690 
Q 3069 4631 3425 4513 
z
" transform="scale(0.015625)"/>
       <path id="DejaVuSans-45" d="M 628 4666 
L 3578 4666 
L 3578 4134 
L 1259 4134 
L 1259 2753 
L 3481 2753 
L 3481 2222 
L 1259 2222 
L 1259 531 
L 3634 531 
L 3634 0 
L 628 0 
L 628 4666 
z
" transform="scale(0.015625)"/>
      </defs>
      <use xlink:href="#DejaVuSans-43"/>
      <use xlink:href="#DejaVuSans-4c" x="69.824219"/>
      <use xlink:href="#DejaVuSans-4f" x="121.912109"/>
      <use xlink:href="#DejaVuSans-53" x="200.623047"/>
      <use xlink:href="#DejaVuSans-45" x="264.099609"/>
     </g>
    </g>
    <g id="line2d_40">
     <path d="M 913.144856 76.108437 
L 923.144856 76.108437 
L 933.144856 76.108437 
" style="fill: none; stroke: #ff7f0e; stroke-width: 1.5; stroke-linecap: square"/>
    </g>
    <g id="text_9">
     <!-- SMA5 -->
     <g transform="translate(941.144856 79.608437)scale(0.1 -0.1)">
      <defs>
       <path id="DejaVuSans-4d" d="M 628 4666 
L 1569 4666 
L 2759 1491 
L 3956 4666 
L 4897 4666 
L 4897 0 
L 4281 0 
L 4281 4097 
L 3078 897 
L 2444 897 
L 1241 4097 
L 1241 0 
L 628 0 
L 628 4666 
z
" transform="scale(0.015625)"/>
       <path id="DejaVuSans-41" d="M 2188 4044 
L 1331 1722 
L 3047 1722 
L 2188 4044 
z
M 1831 4666 
L 2547 4666 
L 4325 0 
L 3669 0 
L 3244 1197 
L 1141 1197 
L 716 0 
L 50 0 
L 1831 4666 
z
" transform="scale(0.015625)"/>
       <path id="DejaVuSans-35" d="M 691 4666 
L 3169 4666 
L 3169 4134 
L 1269 4134 
L 1269 2991 
Q 1406 3038 1543 3061 
Q 1681 3084 1819 3084 
Q 2600 3084 3056 2656 
Q 3513 2228 3513 1497 
Q 3513 744 3044 326 
Q 2575 -91 1722 -91 
Q 1428 -91 1123 -41 
Q 819 9 494 109 
L 494 744 
Q 775 591 1075 516 
Q 1375 441 1709 441 
Q 2250 441 2565 725 
Q 2881 1009 2881 1497 
Q 2881 1984 2565 2268 
Q 2250 2553 1709 2553 
Q 1456 2553 1204 2497 
Q 953 2441 691 2322 
L 691 4666 
z
" transform="scale(0.015625)"/>
      </defs>
      <use xlink:href="#DejaVuSans-53"/>
      <use xlink:href="#DejaVuSans-4d" x="63.476562"/>
      <use xlink:href="#DejaVuSans-41" x="149.755859"/>
      <use xlink:href="#DejaVuSans-35" x="218.164062"/>
     </g>
    </g>
   </g>
  </g>
  <g id="axes_2">
   <g id="patch_8">
    <path d="M 48.445313 584.521875 
L 982.876106 584.521875 
L 982.876106 331.135938 
L 48.445313 331.135938 
z
" style="fill: #ffffff"/>
   </g>
   <g id="matplotlib.axis_3">
    <g id="xtick_13">
     <g id="line2d_41">
      <path d="M 85.59353 584.521875 
L 85.59353 331.135938 
" clip-path="url(#p397084be74)" style="fill: none; stroke-dasharray: 2.96,1.28; stroke-dashoffset: 0; stroke: #b0b0b0; stroke-width: 0.8"/>
     </g>
     <g id="line2d_42">
      <g>
       <use xlink:href="#ma340bc403a" x="85.59353" y="584.521875" style="stroke: #000000; stroke-width: 0.8"/>
      </g>
     </g>
     <g id="text_10">
      <!-- 2022-01 -->
      <g transform="translate(64.702124 599.120312)scale(0.1 -0.1)">
       <defs>
        <path id="DejaVuSans-2d" d="M 313 2009 
L 1997 2009 
L 1997 1497 
L 313 1497 
L 313 2009 
z
" transform="scale(0.015625)"/>
        <path id="DejaVuSans-31" d="M 794 531 
L 1825 531 
L 1825 4091 
L 703 3866 
L 703 4441 
L 1819 4666 
L 2450 4666 
L 2450 531 
L 3481 531 
L 3481 0 
L 794 0 
L 794 531 
z
" transform="scale(0.015625)"/>
       </defs>
       <use xlink:href="#DejaVuSans-32"/>
       <use xlink:href="#DejaVuSans-30" x="63.623047"/>
       <use xlink:href="#DejaVuSans-32" x="127.246094"/>
       <use xlink:href="#DejaVuSans-32" x="190.869141"/>
       <use xlink:href="#DejaVuSans-2d" x="254.492188"/>
       <use xlink:href="#DejaVuSans-30" x="290.576172"/>
       <use xlink:href="#DejaVuSans-31" x="354.199219"/>
      </g>
     </g>
    </g>
    <g id="xtick_14">
     <g id="line2d_43">
      <path d="M 168.145125 584.521875 
L 168.145125 331.135938 
" clip-path="url(#p397084be74)" style="fill: none; stroke-dasharray: 2.96,1.28; stroke-dashoffset: 0; stroke: #b0b0b0; stroke-width: 0.8"/>
     </g>
     <g id="line2d_44">
      <g>
       <use xlink:href="#ma340bc403a" x="168.145125" y="584.521875" style="stroke: #000000; stroke-width: 0.8"/>
      </g>
     </g>
     <g id="text_11">
      <!-- 2022-02 -->
      <g transform="translate(147.253719 599.120312)scale(0.1 -0.1)">
       <use xlink:href="#DejaVuSans-32"/>
       <use xlink:href="#DejaVuSans-30" x="63.623047"/>
       <use xlink:href="#DejaVuSans-32" x="127.246094"/>
       <use xlink:href="#DejaVuSans-32" x="190.869141"/>
       <use xlink:href="#DejaVuSans-2d" x="254.492188"/>
       <use xlink:href="#DejaVuSans-30" x="290.576172"/>
       <use xlink:href="#DejaVuSans-32" x="354.199219"/>
      </g>
     </g>
    </g>
    <g id="xtick_15">
     <g id="line2d_45">
      <path d="M 242.707856 584.521875 
L 242.707856 331.135938 
" clip-path="url(#p397084be74)" style="fill: none; stroke-dasharray: 2.96,1.28; stroke-dashoffset: 0; stroke: #b0b0b0; stroke-width: 0.8"/>
     </g>
     <g id="line2d_46">
      <g>
       <use xlink:href="#ma340bc403a" x="242.707856" y="584.521875" style="stroke: #000000; stroke-width: 0.8"/>
      </g>
     </g>
     <g id="text_12">
      <!-- 2022-03 -->
      <g transform="translate(221.816449 599.120312)scale(0.1 -0.1)">
       <use xlink:href="#DejaVuSans-32"/>
       <use xlink:href="#DejaVuSans-30" x="63.623047"/>
       <use xlink:href="#DejaVuSans-32" x="127.246094"/>
       <use xlink:href="#DejaVuSans-32" x="190.869141"/>
       <use xlink:href="#DejaVuSans-2d" x="254.492188"/>
       <use xlink:href="#DejaVuSans-30" x="290.576172"/>
       <use xlink:href="#DejaVuSans-33" x="354.199219"/>
      </g>
     </g>
    </g>
    <g id="xtick_16">
     <g id="line2d_47">
      <path d="M 325.25945 584.521875 
L 325.25945 331.135938 
" clip-path="url(#p397084be74)" style="fill: none; stroke-dasharray: 2.96,1.28; stroke-dashoffset: 0; stroke: #b0b0b0; stroke-width: 0.8"/>
     </g>
     <g id="line2d_48">
      <g>
       <use xlink:href="#ma340bc403a" x="325.25945" y="584.521875" style="stroke: #000000; stroke-width: 0.8"/>
      </g>
     </g>
     <g id="text_13">
      <!-- 2022-04 -->
      <g transform="translate(304.368044 599.120312)scale(0.1 -0.1)">
       <use xlink:href="#DejaVuSans-32"/>
       <use xlink:href="#DejaVuSans-30" x="63.623047"/>
       <use xlink:href="#DejaVuSans-32" x="127.246094"/>
       <use xlink:href="#DejaVuSans-32" x="190.869141"/>
       <use xlink:href="#DejaVuSans-2d" x="254.492188"/>
       <use xlink:href="#DejaVuSans-30" x="290.576172"/>
       <use xlink:href="#DejaVuSans-34" x="354.199219"/>
      </g>
     </g>
    </g>
    <g id="xtick_17">
     <g id="line2d_49">
      <path d="M 405.14809 584.521875 
L 405.14809 331.135938 
" clip-path="url(#p397084be74)" style="fill: none; stroke-dasharray: 2.96,1.28; stroke-dashoffset: 0; stroke: #b0b0b0; stroke-width: 0.8"/>
     </g>
     <g id="line2d_50">
      <g>
       <use xlink:href="#ma340bc403a" x="405.14809" y="584.521875" style="stroke: #000000; stroke-width: 0.8"/>
      </g>
     </g>
     <g id="text_14">
      <!-- 2022-05 -->
      <g transform="translate(384.256684 599.120312)scale(0.1 -0.1)">
       <use xlink:href="#DejaVuSans-32"/>
       <use xlink:href="#DejaVuSans-30" x="63.623047"/>
       <use xlink:href="#DejaVuSans-32" x="127.246094"/>
       <use xlink:href="#DejaVuSans-32" x="190.869141"/>
       <use xlink:href="#DejaVuSans-2d" x="254.492188"/>
       <use xlink:href="#DejaVuSans-30" x="290.576172"/>
       <use xlink:href="#DejaVuSans-35" x="354.199219"/>
      </g>
     </g>
    </g>
    <g id="xtick_18">
     <g id="line2d_51">
      <path d="M 487.699685 584.521875 
L 487.699685 331.135938 
" clip-path="url(#p397084be74)" style="fill: none; stroke-dasharray: 2.96,1.28; stroke-dashoffset: 0; stroke: #b0b0b0; stroke-width: 0.8"/>
     </g>
     <g id="line2d_52">
      <g>
       <use xlink:href="#ma340bc403a" x="487.699685" y="584.521875" style="stroke: #000000; stroke-width: 0.8"/>
      </g>
     </g>
     <g id="text_15">
      <!-- 2022-06 -->
      <g transform="translate(466.808279 599.120312)scale(0.1 -0.1)">
       <use xlink:href="#DejaVuSans-32"/>
       <use xlink:href="#DejaVuSans-30" x="63.623047"/>
       <use xlink:href="#DejaVuSans-32" x="127.246094"/>
       <use xlink:href="#DejaVuSans-32" x="190.869141"/>
       <use xlink:href="#DejaVuSans-2d" x="254.492188"/>
       <use xlink:href="#DejaVuSans-30" x="290.576172"/>
       <use xlink:href="#DejaVuSans-36" x="354.199219"/>
      </g>
     </g>
    </g>
    <g id="xtick_19">
     <g id="line2d_53">
      <path d="M 567.588325 584.521875 
L 567.588325 331.135938 
" clip-path="url(#p397084be74)" style="fill: none; stroke-dasharray: 2.96,1.28; stroke-dashoffset: 0; stroke: #b0b0b0; stroke-width: 0.8"/>
     </g>
     <g id="line2d_54">
      <g>
       <use xlink:href="#ma340bc403a" x="567.588325" y="584.521875" style="stroke: #000000; stroke-width: 0.8"/>
      </g>
     </g>
     <g id="text_16">
      <!-- 2022-07 -->
      <g transform="translate(546.696919 599.120312)scale(0.1 -0.1)">
       <defs>
        <path id="DejaVuSans-37" d="M 525 4666 
L 3525 4666 
L 3525 4397 
L 1831 0 
L 1172 0 
L 2766 4134 
L 525 4134 
L 525 4666 
z
" transform="scale(0.015625)"/>
       </defs>
       <use xlink:href="#DejaVuSans-32"/>
       <use xlink:href="#DejaVuSans-30" x="63.623047"/>
       <use xlink:href="#DejaVuSans-32" x="127.246094"/>
       <use xlink:href="#DejaVuSans-32" x="190.869141"/>
       <use xlink:href="#DejaVuSans-2d" x="254.492188"/>
       <use xlink:href="#DejaVuSans-30" x="290.576172"/>
       <use xlink:href="#DejaVuSans-37" x="354.199219"/>
      </g>
     </g>
    </g>
    <g id="xtick_20">
     <g id="line2d_55">
      <path d="M 650.13992 584.521875 
L 650.13992 331.135938 
" clip-path="url(#p397084be74)" style="fill: none; stroke-dasharray: 2.96,1.28; stroke-dashoffset: 0; stroke: #b0b0b0; stroke-width: 0.8"/>
     </g>
     <g id="line2d_56">
      <g>
       <use xlink:href="#ma340bc403a" x="650.13992" y="584.521875" style="stroke: #000000; stroke-width: 0.8"/>
      </g>
     </g>
     <g id="text_17">
      <!-- 2022-08 -->
      <g transform="translate(629.248514 599.120312)scale(0.1 -0.1)">
       <use xlink:href="#DejaVuSans-32"/>
       <use xlink:href="#DejaVuSans-30" x="63.623047"/>
       <use xlink:href="#DejaVuSans-32" x="127.246094"/>
       <use xlink:href="#DejaVuSans-32" x="190.869141"/>
       <use xlink:href="#DejaVuSans-2d" x="254.492188"/>
       <use xlink:href="#DejaVuSans-30" x="290.576172"/>
       <use xlink:href="#DejaVuSans-38" x="354.199219"/>
      </g>
     </g>
    </g>
    <g id="xtick_21">
     <g id="line2d_57">
      <path d="M 732.691515 584.521875 
L 732.691515 331.135938 
" clip-path="url(#p397084be74)" style="fill: none; stroke-dasharray: 2.96,1.28; stroke-dashoffset: 0; stroke: #b0b0b0; stroke-width: 0.8"/>
     </g>
     <g id="line2d_58">
      <g>
       <use xlink:href="#ma340bc403a" x="732.691515" y="584.521875" style="stroke: #000000; stroke-width: 0.8"/>
      </g>
     </g>
     <g id="text_18">
      <!-- 2022-09 -->
      <g transform="translate(711.800108 599.120312)scale(0.1 -0.1)">
       <defs>
        <path id="DejaVuSans-39" d="M 703 97 
L 703 672 
Q 941 559 1184 500 
Q 1428 441 1663 441 
Q 2288 441 2617 861 
Q 2947 1281 2994 2138 
Q 2813 1869 2534 1725 
Q 2256 1581 1919 1581 
Q 1219 1581 811 2004 
Q 403 2428 403 3163 
Q 403 3881 828 4315 
Q 1253 4750 1959 4750 
Q 2769 4750 3195 4129 
Q 3622 3509 3622 2328 
Q 3622 1225 3098 567 
Q 2575 -91 1691 -91 
Q 1453 -91 1209 -44 
Q 966 3 703 97 
z
M 1959 2075 
Q 2384 2075 2632 2365 
Q 2881 2656 2881 3163 
Q 2881 3666 2632 3958 
Q 2384 4250 1959 4250 
Q 1534 4250 1286 3958 
Q 1038 3666 1038 3163 
Q 1038 2656 1286 2365 
Q 1534 2075 1959 2075 
z
" transform="scale(0.015625)"/>
       </defs>
       <use xlink:href="#DejaVuSans-32"/>
       <use xlink:href="#DejaVuSans-30" x="63.623047"/>
       <use xlink:href="#DejaVuSans-32" x="127.246094"/>
       <use xlink:href="#DejaVuSans-32" x="190.869141"/>
       <use xlink:href="#DejaVuSans-2d" x="254.492188"/>
       <use xlink:href="#DejaVuSans-30" x="290.576172"/>
       <use xlink:href="#DejaVuSans-39" x="354.199219"/>
      </g>
     </g>
    </g>
    <g id="xtick_22">
     <g id="line2d_59">
      <path d="M 812.580155 584.521875 
L 812.580155 331.135938 
" clip-path="url(#p397084be74)" style="fill: none; stroke-dasharray: 2.96,1.28; stroke-dashoffset: 0; stroke: #b0b0b0; stroke-width: 0.8"/>
     </g>
     <g id="line2d_60">
      <g>
       <use xlink:href="#ma340bc403a" x="812.580155" y="584.521875" style="stroke: #000000; stroke-width: 0.8"/>
      </g>
     </g>
     <g id="text_19">
      <!-- 2022-10 -->
      <g transform="translate(791.688749 599.120312)scale(0.1 -0.1)">
       <use xlink:href="#DejaVuSans-32"/>
       <use xlink:href="#DejaVuSans-30" x="63.623047"/>
       <use xlink:href="#DejaVuSans-32" x="127.246094"/>
       <use xlink:href="#DejaVuSans-32" x="190.869141"/>
       <use xlink:href="#DejaVuSans-2d" x="254.492188"/>
       <use xlink:href="#DejaVuSans-31" x="290.576172"/>
       <use xlink:href="#DejaVuSans-30" x="354.199219"/>
      </g>
     </g>
    </g>
    <g id="xtick_23">
     <g id="line2d_61">
      <path d="M 895.13175 584.521875 
L 895.13175 331.135938 
" clip-path="url(#p397084be74)" style="fill: none; stroke-dasharray: 2.96,1.28; stroke-dashoffset: 0; stroke: #b0b0b0; stroke-width: 0.8"/>
     </g>
     <g id="line2d_62">
      <g>
       <use xlink:href="#ma340bc403a" x="895.13175" y="584.521875" style="stroke: #000000; stroke-width: 0.8"/>
      </g>
     </g>
     <g id="text_20">
      <!-- 2022-11 -->
      <g transform="translate(874.240343 599.120312)scale(0.1 -0.1)">
       <use xlink:href="#DejaVuSans-32"/>
       <use xlink:href="#DejaVuSans-30" x="63.623047"/>
       <use xlink:href="#DejaVuSans-32" x="127.246094"/>
       <use xlink:href="#DejaVuSans-32" x="190.869141"/>
       <use xlink:href="#DejaVuSans-2d" x="254.492188"/>
       <use xlink:href="#DejaVuSans-31" x="290.576172"/>
       <use xlink:href="#DejaVuSans-31" x="354.199219"/>
      </g>
     </g>
    </g>
    <g id="xtick_24">
     <g id="line2d_63">
      <path d="M 975.02039 584.521875 
L 975.02039 331.135938 
" clip-path="url(#p397084be74)" style="fill: none; stroke-dasharray: 2.96,1.28; stroke-dashoffset: 0; stroke: #b0b0b0; stroke-width: 0.8"/>
     </g>
     <g id="line2d_64">
      <g>
       <use xlink:href="#ma340bc403a" x="975.02039" y="584.521875" style="stroke: #000000; stroke-width: 0.8"/>
      </g>
     </g>
     <g id="text_21">
      <!-- 2022-12 -->
      <g transform="translate(954.128983 599.120312)scale(0.1 -0.1)">
       <use xlink:href="#DejaVuSans-32"/>
       <use xlink:href="#DejaVuSans-30" x="63.623047"/>
       <use xlink:href="#DejaVuSans-32" x="127.246094"/>
       <use xlink:href="#DejaVuSans-32" x="190.869141"/>
       <use xlink:href="#DejaVuSans-2d" x="254.492188"/>
       <use xlink:href="#DejaVuSans-31" x="290.576172"/>
       <use xlink:href="#DejaVuSans-32" x="354.199219"/>
      </g>
     </g>
    </g>
   </g>
   <g id="matplotlib.axis_4">
    <g id="ytick_7">
     <g id="line2d_65">
      <path d="M 48.445313 556.274578 
L 982.876106 556.274578 
" clip-path="url(#p397084be74)" style="fill: none; stroke-dasharray: 2.96,1.28; stroke-dashoffset: 0; stroke: #b0b0b0; stroke-width: 0.8"/>
     </g>
     <g id="line2d_66">
      <g>
       <use xlink:href="#m354b54e3e0" x="48.445313" y="556.274578" style="stroke: #000000; stroke-width: 0.8"/>
      </g>
     </g>
     <g id="text_22">
      <!-- −10.0 -->
      <g transform="translate(10.8 560.073797)scale(0.1 -0.1)">
       <defs>
        <path id="DejaVuSans-2212" d="M 678 2272 
L 4684 2272 
L 4684 1741 
L 678 1741 
L 678 2272 
z
" transform="scale(0.015625)"/>
        <path id="DejaVuSans-2e" d="M 684 794 
L 1344 794 
L 1344 0 
L 684 0 
L 684 794 
z
" transform="scale(0.015625)"/>
       </defs>
       <use xlink:href="#DejaVuSans-2212"/>
       <use xlink:href="#DejaVuSans-31" x="83.789062"/>
       <use xlink:href="#DejaVuSans-30" x="147.412109"/>
       <use xlink:href="#DejaVuSans-2e" x="211.035156"/>
       <use xlink:href="#DejaVuSans-30" x="242.822266"/>
      </g>
     </g>
    </g>
    <g id="ytick_8">
     <g id="line2d_67">
      <path d="M 48.445313 525.461152 
L 982.876106 525.461152 
" clip-path="url(#p397084be74)" style="fill: none; stroke-dasharray: 2.96,1.28; stroke-dashoffset: 0; stroke: #b0b0b0; stroke-width: 0.8"/>
     </g>
     <g id="line2d_68">
      <g>
       <use xlink:href="#m354b54e3e0" x="48.445313" y="525.461152" style="stroke: #000000; stroke-width: 0.8"/>
      </g>
     </g>
     <g id="text_23">
      <!-- −7.5 -->
      <g transform="translate(17.1625 529.260371)scale(0.1 -0.1)">
       <use xlink:href="#DejaVuSans-2212"/>
       <use xlink:href="#DejaVuSans-37" x="83.789062"/>
       <use xlink:href="#DejaVuSans-2e" x="147.412109"/>
       <use xlink:href="#DejaVuSans-35" x="179.199219"/>
      </g>
     </g>
    </g>
    <g id="ytick_9">
     <g id="line2d_69">
      <path d="M 48.445313 494.647725 
L 982.876106 494.647725 
" clip-path="url(#p397084be74)" style="fill: none; stroke-dasharray: 2.96,1.28; stroke-dashoffset: 0; stroke: #b0b0b0; stroke-width: 0.8"/>
     </g>
     <g id="line2d_70">
      <g>
       <use xlink:href="#m354b54e3e0" x="48.445313" y="494.647725" style="stroke: #000000; stroke-width: 0.8"/>
      </g>
     </g>
     <g id="text_24">
      <!-- −5.0 -->
      <g transform="translate(17.1625 498.446944)scale(0.1 -0.1)">
       <use xlink:href="#DejaVuSans-2212"/>
       <use xlink:href="#DejaVuSans-35" x="83.789062"/>
       <use xlink:href="#DejaVuSans-2e" x="147.412109"/>
       <use xlink:href="#DejaVuSans-30" x="179.199219"/>
      </g>
     </g>
    </g>
    <g id="ytick_10">
     <g id="line2d_71">
      <path d="M 48.445313 463.834299 
L 982.876106 463.834299 
" clip-path="url(#p397084be74)" style="fill: none; stroke-dasharray: 2.96,1.28; stroke-dashoffset: 0; stroke: #b0b0b0; stroke-width: 0.8"/>
     </g>
     <g id="line2d_72">
      <g>
       <use xlink:href="#m354b54e3e0" x="48.445313" y="463.834299" style="stroke: #000000; stroke-width: 0.8"/>
      </g>
     </g>
     <g id="text_25">
      <!-- −2.5 -->
      <g transform="translate(17.1625 467.633518)scale(0.1 -0.1)">
       <use xlink:href="#DejaVuSans-2212"/>
       <use xlink:href="#DejaVuSans-32" x="83.789062"/>
       <use xlink:href="#DejaVuSans-2e" x="147.412109"/>
       <use xlink:href="#DejaVuSans-35" x="179.199219"/>
      </g>
     </g>
    </g>
    <g id="ytick_11">
     <g id="line2d_73">
      <path d="M 48.445313 433.020873 
L 982.876106 433.020873 
" clip-path="url(#p397084be74)" style="fill: none; stroke-dasharray: 2.96,1.28; stroke-dashoffset: 0; stroke: #b0b0b0; stroke-width: 0.8"/>
     </g>
     <g id="line2d_74">
      <g>
       <use xlink:href="#m354b54e3e0" x="48.445313" y="433.020873" style="stroke: #000000; stroke-width: 0.8"/>
      </g>
     </g>
     <g id="text_26">
      <!-- 0.0 -->
      <g transform="translate(25.542188 436.820091)scale(0.1 -0.1)">
       <use xlink:href="#DejaVuSans-30"/>
       <use xlink:href="#DejaVuSans-2e" x="63.623047"/>
       <use xlink:href="#DejaVuSans-30" x="95.410156"/>
      </g>
     </g>
    </g>
    <g id="ytick_12">
     <g id="line2d_75">
      <path d="M 48.445313 402.207446 
L 982.876106 402.207446 
" clip-path="url(#p397084be74)" style="fill: none; stroke-dasharray: 2.96,1.28; stroke-dashoffset: 0; stroke: #b0b0b0; stroke-width: 0.8"/>
     </g>
     <g id="line2d_76">
      <g>
       <use xlink:href="#m354b54e3e0" x="48.445313" y="402.207446" style="stroke: #000000; stroke-width: 0.8"/>
      </g>
     </g>
     <g id="text_27">
      <!-- 2.5 -->
      <g transform="translate(25.542188 406.006665)scale(0.1 -0.1)">
       <use xlink:href="#DejaVuSans-32"/>
       <use xlink:href="#DejaVuSans-2e" x="63.623047"/>
       <use xlink:href="#DejaVuSans-35" x="95.410156"/>
      </g>
     </g>
    </g>
    <g id="ytick_13">
     <g id="line2d_77">
      <path d="M 48.445313 371.39402 
L 982.876106 371.39402 
" clip-path="url(#p397084be74)" style="fill: none; stroke-dasharray: 2.96,1.28; stroke-dashoffset: 0; stroke: #b0b0b0; stroke-width: 0.8"/>
     </g>
     <g id="line2d_78">
      <g>
       <use xlink:href="#m354b54e3e0" x="48.445313" y="371.39402" style="stroke: #000000; stroke-width: 0.8"/>
      </g>
     </g>
     <g id="text_28">
      <!-- 5.0 -->
      <g transform="translate(25.542188 375.193239)scale(0.1 -0.1)">
       <use xlink:href="#DejaVuSans-35"/>
       <use xlink:href="#DejaVuSans-2e" x="63.623047"/>
       <use xlink:href="#DejaVuSans-30" x="95.410156"/>
      </g>
     </g>
    </g>
    <g id="ytick_14">
     <g id="line2d_79">
      <path d="M 48.445313 340.580594 
L 982.876106 340.580594 
" clip-path="url(#p397084be74)" style="fill: none; stroke-dasharray: 2.96,1.28; stroke-dashoffset: 0; stroke: #b0b0b0; stroke-width: 0.8"/>
     </g>
     <g id="line2d_80">
      <g>
       <use xlink:href="#m354b54e3e0" x="48.445313" y="340.580594" style="stroke: #000000; stroke-width: 0.8"/>
      </g>
     </g>
     <g id="text_29">
      <!-- 7.5 -->
      <g transform="translate(25.542188 344.379812)scale(0.1 -0.1)">
       <use xlink:href="#DejaVuSans-37"/>
       <use xlink:href="#DejaVuSans-2e" x="63.623047"/>
       <use xlink:href="#DejaVuSans-35" x="95.410156"/>
      </g>
     </g>
    </g>
   </g>
   <g id="line2d_81">
    <path d="M 90.919439 433.020873 
L 93.582394 433.062352 
L 96.245349 429.729397 
L 98.908303 427.804666 
L 101.571258 426.672429 
L 109.560122 425.399626 
L 112.223077 428.288143 
L 114.886031 431.737249 
L 117.548986 430.598484 
L 120.211941 427.318174 
L 128.200805 423.648799 
L 130.86376 422.744861 
L 133.526714 424.821683 
L 136.189669 427.411333 
L 138.852624 437.737364 
L 146.841488 451.942167 
L 149.504442 455.33251 
L 154.830352 457.927051 
L 157.493306 459.380844 
L 165.48217 448.493479 
L 168.145125 454.737123 
L 170.80808 456.625357 
L 173.471034 462.038608 
L 176.133989 467.086722 
L 184.122853 473.353144 
L 186.785808 473.474624 
L 189.448762 474.66913 
L 192.111717 480.358958 
L 194.774672 484.336686 
L 202.763536 493.873615 
L 205.42649 494.126799 
L 208.089445 488.899914 
L 213.415354 481.519647 
L 221.404218 482.162554 
L 224.067173 494.566053 
L 226.730128 501.886461 
L 229.393082 529.303705 
L 232.056037 546.558529 
L 240.044901 546.096963 
L 245.37081 551.71176 
L 248.033765 550.672631 
L 250.69672 546.658166 
L 258.685584 552.071171 
L 261.348538 551.509571 
L 264.011493 548.708872 
L 266.674448 539.103699 
L 269.337402 517.880571 
L 277.326266 502.549668 
L 279.989221 498.758683 
L 282.652176 489.24679 
L 285.31513 473.518305 
L 295.966949 467.510201 
L 298.629904 451.558264 
L 301.292858 440.597118 
L 303.955813 435.808229 
L 306.618768 434.260344 
L 314.607632 433.617274 
L 317.270586 434.323556 
L 319.933541 433.303253 
L 322.596496 433.183151 
L 325.25945 418.406173 
L 333.248314 401.335563 
L 335.911269 388.519204 
L 338.574224 373.319358 
L 341.237178 366.980255 
L 343.900133 359.100001 
L 351.888997 350.051794 
L 354.551952 351.494373 
L 357.214906 355.120711 
L 370.52968 365.950313 
L 373.192634 371.182903 
L 375.855589 362.170789 
L 378.518544 348.321975 
L 381.181498 342.65348 
L 389.170362 362.48269 
L 391.833317 375.732597 
L 394.496272 392.995477 
L 397.159226 404.180211 
L 399.822181 419.895398 
L 407.811045 428.578693 
L 413.136954 438.377014 
L 415.799909 448.397675 
L 418.462864 459.705848 
L 426.451728 472.090627 
L 429.114682 481.299214 
L 431.777637 494.199806 
L 434.440592 510.632201 
L 437.103546 525.568575 
L 445.09241 537.050868 
L 447.755365 538.622997 
L 450.41832 549.015983 
L 453.081274 560.994693 
L 455.744229 562.878337 
L 463.733093 563.561934 
L 466.396048 564.575038 
L 469.059002 567.751107 
L 471.721957 570.472879 
L 474.384912 573.004332 
L 482.373776 566.709215 
L 485.03673 563.152924 
L 487.699685 559.080168 
L 490.36264 551.159941 
L 493.025594 544.787775 
L 501.014459 547.171454 
L 503.677413 546.853422 
L 506.340368 541.719093 
L 509.003323 527.659894 
L 511.666277 517.384911 
L 519.655141 521.201806 
L 522.318096 526.775407 
L 524.981051 530.368639 
L 527.644005 534.384649 
L 530.30696 546.845712 
L 538.295824 560.177753 
L 540.958779 564.110995 
L 543.621733 561.07805 
L 548.947643 549.681471 
L 556.936507 536.644316 
L 559.599461 521.709825 
L 562.262416 511.161229 
L 564.925371 509.871366 
L 567.588325 498.2026 
L 575.577189 490.283912 
L 578.240144 486.622524 
L 580.903099 475.081086 
L 583.566053 457.595635 
L 586.229008 447.647182 
L 594.217872 448.928015 
L 596.880827 456.878308 
L 599.543781 461.016394 
L 602.206736 468.216311 
L 604.869691 467.606198 
L 612.858555 463.09624 
L 618.184464 454.037116 
L 620.847419 444.808726 
L 623.510373 439.803853 
L 631.499237 438.902443 
L 634.162192 436.851019 
L 639.488101 421.740974 
L 642.151056 411.883418 
L 650.13992 400.615797 
L 652.802875 391.173972 
L 655.465829 385.482432 
L 658.128784 381.515837 
L 660.791739 376.586193 
L 668.780603 383.936593 
L 674.106512 387.649306 
L 676.769467 391.026021 
L 679.432421 388.693335 
L 690.08424 375.572323 
L 692.747195 358.818709 
L 695.410149 352.535879 
L 698.073104 357.182938 
L 706.061968 366.210838 
L 708.724923 373.996186 
L 711.387877 384.848812 
L 714.050832 393.654747 
L 716.713787 401.690852 
L 724.702651 411.195313 
L 727.365605 416.481669 
L 732.691515 418.157195 
L 735.354469 428.881563 
L 743.343333 434.578007 
L 746.006288 439.514896 
L 748.669243 440.752455 
L 751.332197 428.852103 
L 753.995152 420.903318 
L 761.984016 410.782532 
L 764.646971 404.630559 
L 767.309925 404.951947 
L 769.97288 410.193912 
L 772.635835 424.491515 
L 780.624699 436.183829 
L 783.287653 443.34199 
L 785.950608 451.634792 
L 788.613563 462.049398 
L 791.276517 473.712738 
L 799.265381 489.318655 
L 801.928336 495.25043 
L 807.254245 512.325878 
L 809.9172 516.608786 
L 817.906064 515.078893 
L 820.569019 510.339591 
L 825.894928 505.057084 
L 828.557883 504.767737 
L 836.546747 506.427268 
L 839.209701 511.708709 
L 841.872656 512.246007 
L 844.535611 513.9272 
L 847.198565 516.731255 
L 855.187429 519.252385 
L 857.850384 521.031511 
L 860.513339 524.962035 
L 863.176293 522.126803 
L 865.839248 517.66099 
L 873.828112 510.837845 
L 876.491067 502.786315 
L 881.816976 492.733428 
L 884.479931 486.438156 
L 892.468795 480.553092 
L 897.794704 468.825425 
L 900.457659 463.903451 
L 903.120614 463.382341 
L 911.109478 454.369014 
L 919.098342 447.560823 
L 921.761296 442.207464 
L 929.75016 439.137572 
L 932.413115 435.433654 
L 935.07607 434.913119 
L 937.739024 435.712753 
L 940.401979 437.390113 
L 940.401979 437.390113 
" clip-path="url(#p397084be74)" style="fill: none; stroke: #1f77b4; stroke-width: 1.5; stroke-linecap: square"/>
   </g>
   <g id="line2d_82">
    <path d="M 90.919439 433.020873 
L 93.582394 433.043917 
L 98.908303 430.370859 
L 101.571258 429.27066 
L 109.560122 428.221395 
L 112.223077 428.238287 
L 114.886031 429.079153 
L 117.548986 429.430126 
L 120.211941 428.956926 
L 128.200805 427.795538 
L 130.86376 426.710865 
L 133.526714 426.311048 
L 136.189669 426.541228 
L 138.852624 428.862114 
L 146.841488 433.611817 
L 149.504442 438.05603 
L 154.830352 442.103141 
L 157.493306 445.609209 
L 165.48217 446.192792 
L 170.80808 449.67207 
L 173.471034 452.160064 
L 176.133989 455.159561 
L 184.122853 458.812076 
L 186.785808 461.753475 
L 189.448762 464.342867 
L 194.774672 470.914374 
L 202.763536 475.511914 
L 205.42649 479.238582 
L 208.089445 481.17238 
L 210.7524 481.973003 
L 213.415354 481.882286 
L 221.404218 481.938362 
L 224.067173 484.46472 
L 226.730128 487.949973 
L 229.393082 496.222438 
L 232.056037 506.291329 
L 240.044901 514.253514 
L 245.37081 521.74596 
L 248.033765 527.531786 
L 250.69672 531.357323 
L 258.685584 535.500318 
L 261.348538 538.702308 
L 264.011493 540.703691 
L 266.674448 540.383683 
L 269.337402 535.88296 
L 277.326266 529.216183 
L 279.989221 523.124596 
L 282.652176 516.348957 
L 285.31513 507.782749 
L 295.966949 499.72818 
L 301.292858 480.19469 
L 303.955813 471.317365 
L 306.618768 463.905938 
L 314.607632 457.848191 
L 317.270586 453.143255 
L 319.933541 449.175249 
L 322.596496 445.976825 
L 325.25945 440.462689 
L 333.248314 432.637258 
L 335.911269 423.813642 
L 338.574224 413.71478 
L 343.900133 395.314294 
L 351.888997 386.261792 
L 354.551952 379.308306 
L 357.214906 374.470787 
L 373.192634 372.449934 
L 375.855589 370.394105 
L 378.518544 365.979679 
L 381.181498 361.314439 
L 389.170362 361.548089 
L 391.833317 364.384991 
L 394.496272 370.107088 
L 397.159226 376.921713 
L 399.822181 385.51645 
L 407.811045 394.128899 
L 413.136954 402.978522 
L 415.799909 412.062353 
L 418.462864 421.591052 
L 426.451728 431.690967 
L 429.114682 441.612616 
L 431.777637 452.130054 
L 434.440592 463.830484 
L 437.103546 476.178102 
L 445.09241 488.352655 
L 450.41832 508.528576 
L 453.081274 519.021799 
L 455.744229 527.793107 
L 463.733093 534.946872 
L 466.396048 540.872505 
L 469.059002 546.248226 
L 471.721957 551.093156 
L 474.384912 555.475392 
L 482.373776 557.722156 
L 485.03673 558.80831 
L 487.699685 558.862681 
L 490.36264 557.322133 
L 493.025594 554.815262 
L 501.014459 553.2865 
L 503.677413 551.999885 
L 506.340368 549.943726 
L 509.003323 545.48696 
L 511.666277 539.86655 
L 519.655141 536.133601 
L 522.318096 534.261962 
L 524.981051 533.483298 
L 527.644005 533.663568 
L 530.30696 536.299997 
L 538.295824 541.075548 
L 540.958779 545.682638 
L 543.621733 548.76172 
L 546.284688 550.064619 
L 548.947643 549.987989 
L 556.936507 547.319254 
L 559.599461 542.197369 
L 562.262416 535.990141 
L 564.925371 530.766386 
L 567.588325 524.253628 
L 575.577189 517.459685 
L 578.240144 511.292253 
L 580.903099 504.050019 
L 586.229008 485.33675 
L 594.217872 478.055003 
L 596.880827 473.819664 
L 599.543781 471.25901 
L 604.869691 470.041616 
L 612.858555 468.652541 
L 615.521509 466.618565 
L 618.184464 464.102275 
L 620.847419 460.243566 
L 623.510373 456.155623 
L 631.499237 452.704987 
L 634.162192 449.534193 
L 636.825147 445.45804 
L 639.488101 440.714627 
L 642.151056 434.948385 
L 650.13992 428.081867 
L 652.802875 420.700288 
L 655.465829 413.656717 
L 658.128784 407.228541 
L 660.791739 401.100072 
L 668.780603 397.667376 
L 676.769467 394.736214 
L 679.432421 393.527638 
L 690.08424 389.936575 
L 695.410149 377.477577 
L 698.073104 373.418649 
L 706.061968 371.977087 
L 708.724923 372.380907 
L 711.387877 374.874488 
L 714.050832 378.63054 
L 716.713787 383.242602 
L 724.702651 388.833144 
L 727.365605 394.362849 
L 732.691515 399.121719 
L 735.354469 405.073687 
L 743.343333 410.974551 
L 746.006288 416.68262 
L 748.669243 421.496587 
L 751.332197 422.96769 
L 753.995152 422.554816 
L 761.984016 420.200359 
L 764.646971 417.086399 
L 767.309925 414.659509 
L 769.97288 413.766389 
L 772.635835 415.911415 
L 780.624699 419.965898 
L 783.287653 424.641116 
L 785.950608 430.039851 
L 788.613563 436.441761 
L 791.276517 443.895956 
L 799.265381 452.980496 
L 807.254245 478.384946 
L 809.9172 486.029714 
L 817.906064 491.83955 
L 820.569019 495.539558 
L 825.894928 497.443063 
L 828.557883 498.907998 
L 836.546747 500.411852 
L 839.209701 502.671223 
L 847.198565 508.509758 
L 855.187429 510.658284 
L 857.850384 512.732929 
L 860.513339 515.17875 
L 863.176293 516.568361 
L 865.839248 516.786887 
L 873.828112 515.597078 
L 876.491067 513.034926 
L 881.816976 508.974626 
L 884.479931 504.467332 
L 892.468795 499.684484 
L 897.794704 489.517132 
L 900.457659 484.394395 
L 903.120614 480.191985 
L 911.109478 475.027391 
L 916.435387 470.004982 
L 921.761296 460.854413 
L 929.75016 456.511044 
L 932.413115 452.295566 
L 935.07607 448.819077 
L 937.739024 446.197812 
L 940.401979 444.436272 
L 940.401979 444.436272 
" clip-path="url(#p397084be74)" style="fill: none; stroke: #ff7f0e; stroke-width: 1.5; stroke-linecap: square"/>
   </g>
   <g id="patch_9">
    <path d="M 48.445313 584.521875 
L 48.445313 331.135938 
" style="fill: none; stroke: #000000; stroke-width: 0.8; stroke-linejoin: miter; stroke-linecap: square"/>
   </g>
   <g id="patch_10">
    <path d="M 982.876106 584.521875 
L 982.876106 331.135938 
" style="fill: none; stroke: #000000; stroke-width: 0.8; stroke-linejoin: miter; stroke-linecap: square"/>
   </g>
   <g id="patch_11">
    <path d="M 48.445312 584.521875 
L 982.876106 584.521875 
" style="fill: none; stroke: #000000; stroke-width: 0.8; stroke-linejoin: miter; stroke-linecap: square"/>
   </g>
   <g id="patch_12">
    <path d="M 48.445312 331.135938 
L 982.876106 331.135938 
" style="fill: none; stroke: #000000; stroke-width: 0.8; stroke-linejoin: miter; stroke-linecap: square"/>
   </g>
   <g id="text_30">
    <!-- MACD -->
    <g transform="translate(497.674772 325.135938)scale(0.12 -0.12)">
     <defs>
      <path id="DejaVuSans-44" d="M 1259 4147 
L 1259 519 
L 2022 519 
Q 2988 519 3436 956 
Q 3884 1394 3884 2338 
Q 3884 3275 3436 3711 
Q 2988 4147 2022 4147 
L 1259 4147 
z
M 628 4666 
L 1925 4666 
Q 3281 4666 3915 4102 
Q 4550 3538 4550 2338 
Q 4550 1131 3912 565 
Q 3275 0 1925 0 
L 628 0 
L 628 4666 
z
" transform="scale(0.015625)"/>
     </defs>
     <use xlink:href="#DejaVuSans-4d"/>
     <use xlink:href="#DejaVuSans-41" x="86.279297"/>
     <use xlink:href="#DejaVuSans-43" x="152.9375"/>
     <use xlink:href="#DejaVuSans-44" x="222.761719"/>
    </g>
   </g>
   <g id="legend_2">
    <g id="patch_13">
     <path d="M 913.899543 368.492188 
L 975.876106 368.492188 
Q 977.876106 368.492188 977.876106 366.492188 
L 977.876106 338.135938 
Q 977.876106 336.135938 975.876106 336.135938 
L 913.899543 336.135938 
Q 911.899543 336.135938 911.899543 338.135938 
L 911.899543 366.492188 
Q 911.899543 368.492188 913.899543 368.492188 
z
" style="fill: #ffffff; opacity: 0.8; stroke: #cccccc; stroke-linejoin: miter"/>
    </g>
    <g id="line2d_83">
     <path d="M 915.899543 344.234375 
L 925.899543 344.234375 
L 935.899543 344.234375 
" style="fill: none; stroke: #1f77b4; stroke-width: 1.5; stroke-linecap: square"/>
    </g>
    <g id="text_31">
     <!-- MACD -->
     <g transform="translate(943.899543 347.734375)scale(0.1 -0.1)">
      <use xlink:href="#DejaVuSans-4d"/>
      <use xlink:href="#DejaVuSans-41" x="86.279297"/>
      <use xlink:href="#DejaVuSans-43" x="152.9375"/>
      <use xlink:href="#DejaVuSans-44" x="222.761719"/>
     </g>
    </g>
    <g id="line2d_84">
     <path d="M 915.899543 358.9125 
L 925.899543 358.9125 
L 935.899543 358.9125 
" style="fill: none; stroke: #ff7f0e; stroke-width: 1.5; stroke-linecap: square"/>
    </g>
    <g id="text_32">
     <!-- SIG -->
     <g transform="translate(943.899543 362.4125)scale(0.1 -0.1)">
      <defs>
       <path id="DejaVuSans-49" d="M 628 4666 
L 1259 4666 
L 1259 0 
L 628 0 
L 628 4666 
z
" transform="scale(0.015625)"/>
       <path id="DejaVuSans-47" d="M 3809 666 
L 3809 1919 
L 2778 1919 
L 2778 2438 
L 4434 2438 
L 4434 434 
Q 4069 175 3628 42 
Q 3188 -91 2688 -91 
Q 1594 -91 976 548 
Q 359 1188 359 2328 
Q 359 3472 976 4111 
Q 1594 4750 2688 4750 
Q 3144 4750 3555 4637 
Q 3966 4525 4313 4306 
L 4313 3634 
Q 3963 3931 3569 4081 
Q 3175 4231 2741 4231 
Q 1884 4231 1454 3753 
Q 1025 3275 1025 2328 
Q 1025 1384 1454 906 
Q 1884 428 2741 428 
Q 3075 428 3337 486 
Q 3600 544 3809 666 
z
" transform="scale(0.015625)"/>
      </defs>
      <use xlink:href="#DejaVuSans-53"/>
      <use xlink:href="#DejaVuSans-49" x="63.476562"/>
      <use xlink:href="#DejaVuSans-47" x="92.96875"/>
     </g>
    </g>
   </g>
  </g>
  <g id="text_33">
   <!-- Bharat Petroleum Corporation Limited -->
   <g transform="translate(389.916562 21.358125)scale(0.12 -0.12)">
    <defs>
     <path id="DejaVuSans-42" d="M 1259 2228 
L 1259 519 
L 2272 519 
Q 2781 519 3026 730 
Q 3272 941 3272 1375 
Q 3272 1813 3026 2020 
Q 2781 2228 2272 2228 
L 1259 2228 
z
M 1259 4147 
L 1259 2741 
L 2194 2741 
Q 2656 2741 2882 2914 
Q 3109 3088 3109 3444 
Q 3109 3797 2882 3972 
Q 2656 4147 2194 4147 
L 1259 4147 
z
M 628 4666 
L 2241 4666 
Q 2963 4666 3353 4366 
Q 3744 4066 3744 3513 
Q 3744 3084 3544 2831 
Q 3344 2578 2956 2516 
Q 3422 2416 3680 2098 
Q 3938 1781 3938 1306 
Q 3938 681 3513 340 
Q 3088 0 2303 0 
L 628 0 
L 628 4666 
z
" transform="scale(0.015625)"/>
     <path id="DejaVuSans-68" d="M 3513 2113 
L 3513 0 
L 2938 0 
L 2938 2094 
Q 2938 2591 2744 2837 
Q 2550 3084 2163 3084 
Q 1697 3084 1428 2787 
Q 1159 2491 1159 1978 
L 1159 0 
L 581 0 
L 581 4863 
L 1159 4863 
L 1159 2956 
Q 1366 3272 1645 3428 
Q 1925 3584 2291 3584 
Q 2894 3584 3203 3211 
Q 3513 2838 3513 2113 
z
" transform="scale(0.015625)"/>
     <path id="DejaVuSans-61" d="M 2194 1759 
Q 1497 1759 1228 1600 
Q 959 1441 959 1056 
Q 959 750 1161 570 
Q 1363 391 1709 391 
Q 2188 391 2477 730 
Q 2766 1069 2766 1631 
L 2766 1759 
L 2194 1759 
z
M 3341 1997 
L 3341 0 
L 2766 0 
L 2766 531 
Q 2569 213 2275 61 
Q 1981 -91 1556 -91 
Q 1019 -91 701 211 
Q 384 513 384 1019 
Q 384 1609 779 1909 
Q 1175 2209 1959 2209 
L 2766 2209 
L 2766 2266 
Q 2766 2663 2505 2880 
Q 2244 3097 1772 3097 
Q 1472 3097 1187 3025 
Q 903 2953 641 2809 
L 641 3341 
Q 956 3463 1253 3523 
Q 1550 3584 1831 3584 
Q 2591 3584 2966 3190 
Q 3341 2797 3341 1997 
z
" transform="scale(0.015625)"/>
     <path id="DejaVuSans-74" d="M 1172 4494 
L 1172 3500 
L 2356 3500 
L 2356 3053 
L 1172 3053 
L 1172 1153 
Q 1172 725 1289 603 
Q 1406 481 1766 481 
L 2356 481 
L 2356 0 
L 1766 0 
Q 1100 0 847 248 
Q 594 497 594 1153 
L 594 3053 
L 172 3053 
L 172 3500 
L 594 3500 
L 594 4494 
L 1172 4494 
z
" transform="scale(0.015625)"/>
     <path id="DejaVuSans-75" d="M 544 1381 
L 544 3500 
L 1119 3500 
L 1119 1403 
Q 1119 906 1312 657 
Q 1506 409 1894 409 
Q 2359 409 2629 706 
Q 2900 1003 2900 1516 
L 2900 3500 
L 3475 3500 
L 3475 0 
L 2900 0 
L 2900 538 
Q 2691 219 2414 64 
Q 2138 -91 1772 -91 
Q 1169 -91 856 284 
Q 544 659 544 1381 
z
M 1991 3584 
L 1991 3584 
z
" transform="scale(0.015625)"/>
     <path id="DejaVuSans-6d" d="M 3328 2828 
Q 3544 3216 3844 3400 
Q 4144 3584 4550 3584 
Q 5097 3584 5394 3201 
Q 5691 2819 5691 2113 
L 5691 0 
L 5113 0 
L 5113 2094 
Q 5113 2597 4934 2840 
Q 4756 3084 4391 3084 
Q 3944 3084 3684 2787 
Q 3425 2491 3425 1978 
L 3425 0 
L 2847 0 
L 2847 2094 
Q 2847 2600 2669 2842 
Q 2491 3084 2119 3084 
Q 1678 3084 1418 2786 
Q 1159 2488 1159 1978 
L 1159 0 
L 581 0 
L 581 3500 
L 1159 3500 
L 1159 2956 
Q 1356 3278 1631 3431 
Q 1906 3584 2284 3584 
Q 2666 3584 2933 3390 
Q 3200 3197 3328 2828 
z
" transform="scale(0.015625)"/>
     <path id="DejaVuSans-70" d="M 1159 525 
L 1159 -1331 
L 581 -1331 
L 581 3500 
L 1159 3500 
L 1159 2969 
Q 1341 3281 1617 3432 
Q 1894 3584 2278 3584 
Q 2916 3584 3314 3078 
Q 3713 2572 3713 1747 
Q 3713 922 3314 415 
Q 2916 -91 2278 -91 
Q 1894 -91 1617 61 
Q 1341 213 1159 525 
z
M 3116 1747 
Q 3116 2381 2855 2742 
Q 2594 3103 2138 3103 
Q 1681 3103 1420 2742 
Q 1159 2381 1159 1747 
Q 1159 1113 1420 752 
Q 1681 391 2138 391 
Q 2594 391 2855 752 
Q 3116 1113 3116 1747 
z
" transform="scale(0.015625)"/>
     <path id="DejaVuSans-64" d="M 2906 2969 
L 2906 4863 
L 3481 4863 
L 3481 0 
L 2906 0 
L 2906 525 
Q 2725 213 2448 61 
Q 2172 -91 1784 -91 
Q 1150 -91 751 415 
Q 353 922 353 1747 
Q 353 2572 751 3078 
Q 1150 3584 1784 3584 
Q 2172 3584 2448 3432 
Q 2725 3281 2906 2969 
z
M 947 1747 
Q 947 1113 1208 752 
Q 1469 391 1925 391 
Q 2381 391 2643 752 
Q 2906 1113 2906 1747 
Q 2906 2381 2643 2742 
Q 2381 3103 1925 3103 
Q 1469 3103 1208 2742 
Q 947 2381 947 1747 
z
" transform="scale(0.015625)"/>
    </defs>
    <use xlink:href="#DejaVuSans-42"/>
    <use xlink:href="#DejaVuSans-68" x="68.603516"/>
    <use xlink:href="#DejaVuSans-61" x="131.982422"/>
    <use xlink:href="#DejaVuSans-72" x="193.261719"/>
    <use xlink:href="#DejaVuSans-61" x="234.375"/>
    <use xlink:href="#DejaVuSans-74" x="295.654297"/>
    <use xlink:href="#DejaVuSans-20" x="334.863281"/>
    <use xlink:href="#DejaVuSans-50" x="366.650391"/>
    <use xlink:href="#DejaVuSans-65" x="423.328125"/>
    <use xlink:href="#DejaVuSans-74" x="484.851562"/>
    <use xlink:href="#DejaVuSans-72" x="524.060547"/>
    <use xlink:href="#DejaVuSans-6f" x="562.923828"/>
    <use xlink:href="#DejaVuSans-6c" x="624.105469"/>
    <use xlink:href="#DejaVuSans-65" x="651.888672"/>
    <use xlink:href="#DejaVuSans-75" x="713.412109"/>
    <use xlink:href="#DejaVuSans-6d" x="776.791016"/>
    <use xlink:href="#DejaVuSans-20" x="874.203125"/>
    <use xlink:href="#DejaVuSans-43" x="905.990234"/>
    <use xlink:href="#DejaVuSans-6f" x="975.814453"/>
    <use xlink:href="#DejaVuSans-72" x="1036.996094"/>
    <use xlink:href="#DejaVuSans-70" x="1078.109375"/>
    <use xlink:href="#DejaVuSans-6f" x="1141.585938"/>
    <use xlink:href="#DejaVuSans-72" x="1202.767578"/>
    <use xlink:href="#DejaVuSans-61" x="1243.880859"/>
    <use xlink:href="#DejaVuSans-74" x="1305.160156"/>
    <use xlink:href="#DejaVuSans-69" x="1344.369141"/>
    <use xlink:href="#DejaVuSans-6f" x="1372.152344"/>
    <use xlink:href="#DejaVuSans-6e" x="1433.333984"/>
    <use xlink:href="#DejaVuSans-20" x="1496.712891"/>
    <use xlink:href="#DejaVuSans-4c" x="1528.5"/>
    <use xlink:href="#DejaVuSans-69" x="1584.212891"/>
    <use xlink:href="#DejaVuSans-6d" x="1611.996094"/>
    <use xlink:href="#DejaVuSans-69" x="1709.408203"/>
    <use xlink:href="#DejaVuSans-74" x="1737.191406"/>
    <use xlink:href="#DejaVuSans-65" x="1776.400391"/>
    <use xlink:href="#DejaVuSans-64" x="1837.923828"/>
   </g>
  </g>
 </g>
 <defs>
  <clipPath id="p904ac91207">
   <rect x="48.445313" y="48.331875" width="934.430793" height="253.385938"/>
  </clipPath>
  <clipPath id="p397084be74">
   <rect x="48.445313" y="331.135938" width="934.430793" height="253.385937"/>
  </clipPath>
 </defs>
</svg>
