<?xml version="1.0" encoding="utf-8" standalone="no"?>
<!DOCTYPE svg PUBLIC "-//W3C//DTD SVG 1.1//EN"
  "http://www.w3.org/Graphics/SVG/1.1/DTD/svg11.dtd">
<svg xmlns:xlink="http://www.w3.org/1999/xlink" width="1008pt" height="612pt" viewBox="0 0 1008 612" xmlns="http://www.w3.org/2000/svg" version="1.1">
 <metadata>
  <rdf:RDF xmlns:dc="http://purl.org/dc/elements/1.1/" xmlns:cc="http://creativecommons.org/ns#" xmlns:rdf="http://www.w3.org/1999/02/22-rdf-syntax-ns#">
   <cc:Work>
    <dc:type rdf:resource="http://purl.org/dc/dcmitype/StillImage"/>
    <dc:date>2022-11-20T19:47:17.311695</dc:date>
    <dc:format>image/svg+xml</dc:format>
    <dc:creator>
     <cc:Agent>
      <dc:title>Matplotlib v3.5.2, https://matplotlib.org/</dc:title>
     </cc:Agent>
    </dc:creator>
   </cc:Work>
  </rdf:RDF>
 </metadata>
 <defs>
  <style type="text/css">*{stroke-linejoin: round; stroke-linecap: butt}</style>
 </defs>
 <g id="figure_1">
  <g id="patch_1">
   <path d="M 0 612 
L 1008 612 
L 1008 0 
L 0 0 
z
" style="fill: #ffffff"/>
  </g>
  <g id="axes_1">
   <g id="patch_2">
    <path d="M 38.904688 301.717812 
L 982.876106 301.717812 
L 982.876106 48.331875 
L 38.904688 48.331875 
z
" style="fill: #ffffff"/>
   </g>
   <g id="matplotlib.axis_1">
    <g id="xtick_1">
     <g id="line2d_1">
      <path d="M 76.432192 301.717812 
L 76.432192 48.331875 
" clip-path="url(#p2bcee0fc29)" style="fill: none; stroke-dasharray: 2.96,1.28; stroke-dashoffset: 0; stroke: #b0b0b0; stroke-width: 0.8"/>
     </g>
     <g id="line2d_2">
      <defs>
       <path id="mab2d556be9" d="M 0 0 
L 0 3.5 
" style="stroke: #000000; stroke-width: 0.8"/>
      </defs>
      <g>
       <use xlink:href="#mab2d556be9" x="76.432192" y="301.717812" style="stroke: #000000; stroke-width: 0.8"/>
      </g>
     </g>
    </g>
    <g id="xtick_2">
     <g id="line2d_3">
      <path d="M 159.826646 301.717812 
L 159.826646 48.331875 
" clip-path="url(#p2bcee0fc29)" style="fill: none; stroke-dasharray: 2.96,1.28; stroke-dashoffset: 0; stroke: #b0b0b0; stroke-width: 0.8"/>
     </g>
     <g id="line2d_4">
      <g>
       <use xlink:href="#mab2d556be9" x="159.826646" y="301.717812" style="stroke: #000000; stroke-width: 0.8"/>
      </g>
     </g>
    </g>
    <g id="xtick_3">
     <g id="line2d_5">
      <path d="M 235.150669 301.717812 
L 235.150669 48.331875 
" clip-path="url(#p2bcee0fc29)" style="fill: none; stroke-dasharray: 2.96,1.28; stroke-dashoffset: 0; stroke: #b0b0b0; stroke-width: 0.8"/>
     </g>
     <g id="line2d_6">
      <g>
       <use xlink:href="#mab2d556be9" x="235.150669" y="301.717812" style="stroke: #000000; stroke-width: 0.8"/>
      </g>
     </g>
    </g>
    <g id="xtick_4">
     <g id="line2d_7">
      <path d="M 318.545123 301.717812 
L 318.545123 48.331875 
" clip-path="url(#p2bcee0fc29)" style="fill: none; stroke-dasharray: 2.96,1.28; stroke-dashoffset: 0; stroke: #b0b0b0; stroke-width: 0.8"/>
     </g>
     <g id="line2d_8">
      <g>
       <use xlink:href="#mab2d556be9" x="318.545123" y="301.717812" style="stroke: #000000; stroke-width: 0.8"/>
      </g>
     </g>
    </g>
    <g id="xtick_5">
     <g id="line2d_9">
      <path d="M 399.249434 301.717812 
L 399.249434 48.331875 
" clip-path="url(#p2bcee0fc29)" style="fill: none; stroke-dasharray: 2.96,1.28; stroke-dashoffset: 0; stroke: #b0b0b0; stroke-width: 0.8"/>
     </g>
     <g id="line2d_10">
      <g>
       <use xlink:href="#mab2d556be9" x="399.249434" y="301.717812" style="stroke: #000000; stroke-width: 0.8"/>
      </g>
     </g>
    </g>
    <g id="xtick_6">
     <g id="line2d_11">
      <path d="M 482.643888 301.717812 
L 482.643888 48.331875 
" clip-path="url(#p2bcee0fc29)" style="fill: none; stroke-dasharray: 2.96,1.28; stroke-dashoffset: 0; stroke: #b0b0b0; stroke-width: 0.8"/>
     </g>
     <g id="line2d_12">
      <g>
       <use xlink:href="#mab2d556be9" x="482.643888" y="301.717812" style="stroke: #000000; stroke-width: 0.8"/>
      </g>
     </g>
    </g>
    <g id="xtick_7">
     <g id="line2d_13">
      <path d="M 563.348198 301.717812 
L 563.348198 48.331875 
" clip-path="url(#p2bcee0fc29)" style="fill: none; stroke-dasharray: 2.96,1.28; stroke-dashoffset: 0; stroke: #b0b0b0; stroke-width: 0.8"/>
     </g>
     <g id="line2d_14">
      <g>
       <use xlink:href="#mab2d556be9" x="563.348198" y="301.717812" style="stroke: #000000; stroke-width: 0.8"/>
      </g>
     </g>
    </g>
    <g id="xtick_8">
     <g id="line2d_15">
      <path d="M 646.742653 301.717812 
L 646.742653 48.331875 
" clip-path="url(#p2bcee0fc29)" style="fill: none; stroke-dasharray: 2.96,1.28; stroke-dashoffset: 0; stroke: #b0b0b0; stroke-width: 0.8"/>
     </g>
     <g id="line2d_16">
      <g>
       <use xlink:href="#mab2d556be9" x="646.742653" y="301.717812" style="stroke: #000000; stroke-width: 0.8"/>
      </g>
     </g>
    </g>
    <g id="xtick_9">
     <g id="line2d_17">
      <path d="M 730.137107 301.717812 
L 730.137107 48.331875 
" clip-path="url(#p2bcee0fc29)" style="fill: none; stroke-dasharray: 2.96,1.28; stroke-dashoffset: 0; stroke: #b0b0b0; stroke-width: 0.8"/>
     </g>
     <g id="line2d_18">
      <g>
       <use xlink:href="#mab2d556be9" x="730.137107" y="301.717812" style="stroke: #000000; stroke-width: 0.8"/>
      </g>
     </g>
    </g>
    <g id="xtick_10">
     <g id="line2d_19">
      <path d="M 810.841417 301.717812 
L 810.841417 48.331875 
" clip-path="url(#p2bcee0fc29)" style="fill: none; stroke-dasharray: 2.96,1.28; stroke-dashoffset: 0; stroke: #b0b0b0; stroke-width: 0.8"/>
     </g>
     <g id="line2d_20">
      <g>
       <use xlink:href="#mab2d556be9" x="810.841417" y="301.717812" style="stroke: #000000; stroke-width: 0.8"/>
      </g>
     </g>
    </g>
    <g id="xtick_11">
     <g id="line2d_21">
      <path d="M 894.235872 301.717812 
L 894.235872 48.331875 
" clip-path="url(#p2bcee0fc29)" style="fill: none; stroke-dasharray: 2.96,1.28; stroke-dashoffset: 0; stroke: #b0b0b0; stroke-width: 0.8"/>
     </g>
     <g id="line2d_22">
      <g>
       <use xlink:href="#mab2d556be9" x="894.235872" y="301.717812" style="stroke: #000000; stroke-width: 0.8"/>
      </g>
     </g>
    </g>
    <g id="xtick_12">
     <g id="line2d_23">
      <path d="M 974.940182 301.717812 
L 974.940182 48.331875 
" clip-path="url(#p2bcee0fc29)" style="fill: none; stroke-dasharray: 2.96,1.28; stroke-dashoffset: 0; stroke: #b0b0b0; stroke-width: 0.8"/>
     </g>
     <g id="line2d_24">
      <g>
       <use xlink:href="#mab2d556be9" x="974.940182" y="301.717812" style="stroke: #000000; stroke-width: 0.8"/>
      </g>
     </g>
    </g>
   </g>
   <g id="matplotlib.axis_2">
    <g id="ytick_1">
     <g id="line2d_25">
      <path d="M 38.904688 262.438627 
L 982.876106 262.438627 
" clip-path="url(#p2bcee0fc29)" style="fill: none; stroke-dasharray: 2.96,1.28; stroke-dashoffset: 0; stroke: #b0b0b0; stroke-width: 0.8"/>
     </g>
     <g id="line2d_26">
      <defs>
       <path id="m7882dae2ad" d="M 0 0 
L -3.5 0 
" style="stroke: #000000; stroke-width: 0.8"/>
      </defs>
      <g>
       <use xlink:href="#m7882dae2ad" x="38.904688" y="262.438627" style="stroke: #000000; stroke-width: 0.8"/>
      </g>
     </g>
     <g id="text_1">
      <!-- 700 -->
      <g transform="translate(12.817187 266.237846)scale(0.1 -0.1)">
       <defs>
        <path id="DejaVuSans-37" d="M 525 4666 
L 3525 4666 
L 3525 4397 
L 1831 0 
L 1172 0 
L 2766 4134 
L 525 4134 
L 525 4666 
z
" transform="scale(0.015625)"/>
        <path id="DejaVuSans-30" d="M 2034 4250 
Q 1547 4250 1301 3770 
Q 1056 3291 1056 2328 
Q 1056 1369 1301 889 
Q 1547 409 2034 409 
Q 2525 409 2770 889 
Q 3016 1369 3016 2328 
Q 3016 3291 2770 3770 
Q 2525 4250 2034 4250 
z
M 2034 4750 
Q 2819 4750 3233 4129 
Q 3647 3509 3647 2328 
Q 3647 1150 3233 529 
Q 2819 -91 2034 -91 
Q 1250 -91 836 529 
Q 422 1150 422 2328 
Q 422 3509 836 4129 
Q 1250 4750 2034 4750 
z
" transform="scale(0.015625)"/>
       </defs>
       <use xlink:href="#DejaVuSans-37"/>
       <use xlink:href="#DejaVuSans-30" x="63.623047"/>
       <use xlink:href="#DejaVuSans-30" x="127.246094"/>
      </g>
     </g>
    </g>
    <g id="ytick_2">
     <g id="line2d_27">
      <path d="M 38.904688 223.116188 
L 982.876106 223.116188 
" clip-path="url(#p2bcee0fc29)" style="fill: none; stroke-dasharray: 2.96,1.28; stroke-dashoffset: 0; stroke: #b0b0b0; stroke-width: 0.8"/>
     </g>
     <g id="line2d_28">
      <g>
       <use xlink:href="#m7882dae2ad" x="38.904688" y="223.116188" style="stroke: #000000; stroke-width: 0.8"/>
      </g>
     </g>
     <g id="text_2">
      <!-- 750 -->
      <g transform="translate(12.817187 226.915406)scale(0.1 -0.1)">
       <defs>
        <path id="DejaVuSans-35" d="M 691 4666 
L 3169 4666 
L 3169 4134 
L 1269 4134 
L 1269 2991 
Q 1406 3038 1543 3061 
Q 1681 3084 1819 3084 
Q 2600 3084 3056 2656 
Q 3513 2228 3513 1497 
Q 3513 744 3044 326 
Q 2575 -91 1722 -91 
Q 1428 -91 1123 -41 
Q 819 9 494 109 
L 494 744 
Q 775 591 1075 516 
Q 1375 441 1709 441 
Q 2250 441 2565 725 
Q 2881 1009 2881 1497 
Q 2881 1984 2565 2268 
Q 2250 2553 1709 2553 
Q 1456 2553 1204 2497 
Q 953 2441 691 2322 
L 691 4666 
z
" transform="scale(0.015625)"/>
       </defs>
       <use xlink:href="#DejaVuSans-37"/>
       <use xlink:href="#DejaVuSans-35" x="63.623047"/>
       <use xlink:href="#DejaVuSans-30" x="127.246094"/>
      </g>
     </g>
    </g>
    <g id="ytick_3">
     <g id="line2d_29">
      <path d="M 38.904688 183.793748 
L 982.876106 183.793748 
" clip-path="url(#p2bcee0fc29)" style="fill: none; stroke-dasharray: 2.96,1.28; stroke-dashoffset: 0; stroke: #b0b0b0; stroke-width: 0.8"/>
     </g>
     <g id="line2d_30">
      <g>
       <use xlink:href="#m7882dae2ad" x="38.904688" y="183.793748" style="stroke: #000000; stroke-width: 0.8"/>
      </g>
     </g>
     <g id="text_3">
      <!-- 800 -->
      <g transform="translate(12.817187 187.592967)scale(0.1 -0.1)">
       <defs>
        <path id="DejaVuSans-38" d="M 2034 2216 
Q 1584 2216 1326 1975 
Q 1069 1734 1069 1313 
Q 1069 891 1326 650 
Q 1584 409 2034 409 
Q 2484 409 2743 651 
Q 3003 894 3003 1313 
Q 3003 1734 2745 1975 
Q 2488 2216 2034 2216 
z
M 1403 2484 
Q 997 2584 770 2862 
Q 544 3141 544 3541 
Q 544 4100 942 4425 
Q 1341 4750 2034 4750 
Q 2731 4750 3128 4425 
Q 3525 4100 3525 3541 
Q 3525 3141 3298 2862 
Q 3072 2584 2669 2484 
Q 3125 2378 3379 2068 
Q 3634 1759 3634 1313 
Q 3634 634 3220 271 
Q 2806 -91 2034 -91 
Q 1263 -91 848 271 
Q 434 634 434 1313 
Q 434 1759 690 2068 
Q 947 2378 1403 2484 
z
M 1172 3481 
Q 1172 3119 1398 2916 
Q 1625 2713 2034 2713 
Q 2441 2713 2670 2916 
Q 2900 3119 2900 3481 
Q 2900 3844 2670 4047 
Q 2441 4250 2034 4250 
Q 1625 4250 1398 4047 
Q 1172 3844 1172 3481 
z
" transform="scale(0.015625)"/>
       </defs>
       <use xlink:href="#DejaVuSans-38"/>
       <use xlink:href="#DejaVuSans-30" x="63.623047"/>
       <use xlink:href="#DejaVuSans-30" x="127.246094"/>
      </g>
     </g>
    </g>
    <g id="ytick_4">
     <g id="line2d_31">
      <path d="M 38.904688 144.471308 
L 982.876106 144.471308 
" clip-path="url(#p2bcee0fc29)" style="fill: none; stroke-dasharray: 2.96,1.28; stroke-dashoffset: 0; stroke: #b0b0b0; stroke-width: 0.8"/>
     </g>
     <g id="line2d_32">
      <g>
       <use xlink:href="#m7882dae2ad" x="38.904688" y="144.471308" style="stroke: #000000; stroke-width: 0.8"/>
      </g>
     </g>
     <g id="text_4">
      <!-- 850 -->
      <g transform="translate(12.817187 148.270527)scale(0.1 -0.1)">
       <use xlink:href="#DejaVuSans-38"/>
       <use xlink:href="#DejaVuSans-35" x="63.623047"/>
       <use xlink:href="#DejaVuSans-30" x="127.246094"/>
      </g>
     </g>
    </g>
    <g id="ytick_5">
     <g id="line2d_33">
      <path d="M 38.904688 105.148868 
L 982.876106 105.148868 
" clip-path="url(#p2bcee0fc29)" style="fill: none; stroke-dasharray: 2.96,1.28; stroke-dashoffset: 0; stroke: #b0b0b0; stroke-width: 0.8"/>
     </g>
     <g id="line2d_34">
      <g>
       <use xlink:href="#m7882dae2ad" x="38.904688" y="105.148868" style="stroke: #000000; stroke-width: 0.8"/>
      </g>
     </g>
     <g id="text_5">
      <!-- 900 -->
      <g transform="translate(12.817187 108.948087)scale(0.1 -0.1)">
       <defs>
        <path id="DejaVuSans-39" d="M 703 97 
L 703 672 
Q 941 559 1184 500 
Q 1428 441 1663 441 
Q 2288 441 2617 861 
Q 2947 1281 2994 2138 
Q 2813 1869 2534 1725 
Q 2256 1581 1919 1581 
Q 1219 1581 811 2004 
Q 403 2428 403 3163 
Q 403 3881 828 4315 
Q 1253 4750 1959 4750 
Q 2769 4750 3195 4129 
Q 3622 3509 3622 2328 
Q 3622 1225 3098 567 
Q 2575 -91 1691 -91 
Q 1453 -91 1209 -44 
Q 966 3 703 97 
z
M 1959 2075 
Q 2384 2075 2632 2365 
Q 2881 2656 2881 3163 
Q 2881 3666 2632 3958 
Q 2384 4250 1959 4250 
Q 1534 4250 1286 3958 
Q 1038 3666 1038 3163 
Q 1038 2656 1286 2365 
Q 1534 2075 1959 2075 
z
" transform="scale(0.015625)"/>
       </defs>
       <use xlink:href="#DejaVuSans-39"/>
       <use xlink:href="#DejaVuSans-30" x="63.623047"/>
       <use xlink:href="#DejaVuSans-30" x="127.246094"/>
      </g>
     </g>
    </g>
    <g id="ytick_6">
     <g id="line2d_35">
      <path d="M 38.904688 65.826428 
L 982.876106 65.826428 
" clip-path="url(#p2bcee0fc29)" style="fill: none; stroke-dasharray: 2.96,1.28; stroke-dashoffset: 0; stroke: #b0b0b0; stroke-width: 0.8"/>
     </g>
     <g id="line2d_36">
      <g>
       <use xlink:href="#m7882dae2ad" x="38.904688" y="65.826428" style="stroke: #000000; stroke-width: 0.8"/>
      </g>
     </g>
     <g id="text_6">
      <!-- 950 -->
      <g transform="translate(12.817187 69.625647)scale(0.1 -0.1)">
       <use xlink:href="#DejaVuSans-39"/>
       <use xlink:href="#DejaVuSans-35" x="63.623047"/>
       <use xlink:href="#DejaVuSans-30" x="127.246094"/>
      </g>
     </g>
    </g>
   </g>
   <g id="line2d_37">
    <path d="M 81.812479 59.849418 
L 84.502623 66.062363 
L 87.192767 62.248086 
L 89.88291 66.573555 
L 92.573054 59.88874 
L 100.643485 80.729633 
L 103.333629 93.312814 
L 106.023772 85.526971 
L 108.713916 85.99884 
L 111.40406 90.402953 
L 119.474491 85.526971 
L 122.164634 82.813722 
L 124.854778 75.617716 
L 127.544922 102.986134 
L 130.235066 112.069618 
L 138.305497 135.977661 
L 140.99564 109.513659 
L 146.375928 121.349713 
L 149.066071 120.130718 
L 157.136502 114.350319 
L 159.826646 104.834289 
L 162.51679 97.048446 
L 165.206933 86.824611 
L 167.897077 95.436226 
L 175.967508 113.485225 
L 178.657652 122.490064 
L 181.347796 136.60682 
L 184.037939 142.033317 
L 186.728083 164.132528 
L 194.798514 183.99036 
L 197.488658 172.980077 
L 200.178801 160.003672 
L 202.868945 157.88026 
L 205.559089 163.817948 
L 213.62952 176.715709 
L 216.319663 198.81492 
L 219.009807 181.080499 
L 221.699951 206.482796 
L 224.390094 200.820364 
L 232.460525 208.999432 
L 237.840813 221.307355 
L 240.530957 235.856658 
L 243.2211 245.097431 
L 251.291531 290.20027 
L 253.981675 261.612856 
L 256.671819 260.86573 
L 259.361962 253.905658 
L 262.052106 255.006686 
L 270.122537 254.574139 
L 272.812681 243.091987 
L 275.502824 225.278922 
L 278.192968 225.868758 
L 288.953543 244.940142 
L 291.643687 262.989142 
L 294.33383 266.882063 
L 297.023974 266.370871 
L 299.714118 274.353327 
L 307.784549 271.286176 
L 310.474692 266.095614 
L 313.164836 240.575351 
L 315.85498 225.239599 
L 318.545123 220.756841 
L 326.615554 206.87602 
L 329.305698 206.679408 
L 331.995842 221.189388 
L 337.376129 174.631619 
L 345.44656 174.15975 
L 348.136704 178.99641 
L 350.826848 194.528774 
L 364.277566 186.664286 
L 366.96771 203.415645 
L 369.657853 183.479168 
L 372.347997 185.366645 
L 375.038141 186.113772 
L 383.108572 214.347284 
L 385.798715 188.66973 
L 388.488859 190.085338 
L 391.179003 181.434401 
L 393.869146 197.635247 
L 401.939578 205.932281 
L 407.319865 218.751397 
L 410.010009 213.63948 
L 412.700152 218.31885 
L 420.770583 217.335789 
L 423.460727 206.364828 
L 426.150871 198.932887 
L 428.841014 206.404151 
L 431.531158 185.995804 
L 439.601589 185.877837 
L 442.291733 168.379351 
L 444.981876 159.885704 
L 447.67202 187.254123 
L 450.362164 216.510018 
L 458.432595 221.110743 
L 461.122739 212.931676 
L 463.812882 219.301911 
L 466.503026 199.562046 
L 477.263601 186.546319 
L 479.953744 209.785881 
L 482.643888 210.690297 
L 485.334032 208.095016 
L 488.024175 212.617096 
L 496.094606 215.133732 
L 498.78475 223.273477 
L 501.474894 224.61044 
L 504.165037 212.931676 
L 506.855181 223.15551 
L 514.925612 232.317639 
L 517.615756 233.261377 
L 520.3059 229.565068 
L 522.996043 229.486423 
L 525.686187 242.541473 
L 533.756618 216.038148 
L 536.446762 213.678802 
L 539.136905 213.63948 
L 541.827049 203.612257 
L 544.517193 188.079894 
L 552.587624 185.956482 
L 555.277767 188.433796 
L 557.967911 209.825203 
L 560.658055 217.178499 
L 563.348198 198.343051 
L 571.41863 173.609236 
L 574.108773 158.430774 
L 576.798917 120.917167 
L 579.489061 140.381774 
L 582.179204 144.274696 
L 590.249635 137.393269 
L 592.939779 139.398713 
L 595.629923 126.77621 
L 598.320066 124.534831 
L 601.01021 125.439247 
L 609.080641 137.353946 
L 611.770785 131.966772 
L 614.460928 125.989761 
L 617.151072 123.39448 
L 619.841216 118.243241 
L 627.911647 129.764716 
L 630.601791 150.212384 
L 633.291934 147.381169 
L 635.982078 142.937733 
L 638.672222 141.522125 
L 646.742653 135.584437 
L 649.432796 132.831866 
L 652.12294 135.15189 
L 654.813084 140.971611 
L 657.503227 126.304341 
L 665.573658 129.882683 
L 670.953946 139.556003 
L 673.64409 124.731443 
L 676.334233 132.831866 
L 687.094808 113.131324 
L 689.784952 112.856066 
L 692.475095 90.756855 
L 695.165239 100.50882 
L 703.23567 115.058123 
L 705.925814 112.541487 
L 708.615957 102.828844 
L 711.306101 99.329147 
L 713.996245 106.879056 
L 722.066676 99.014568 
L 724.756819 86.077485 
L 730.137107 87.45377 
L 732.827251 92.840945 
L 740.897682 110.260785 
L 743.587825 97.480992 
L 746.277969 69.050869 
L 748.968113 74.477365 
L 751.658256 75.263814 
L 759.728687 67.399326 
L 762.418831 71.606827 
L 765.108975 82.223886 
L 767.799118 82.341853 
L 770.489262 112.895389 
L 778.559693 105.030901 
L 781.249837 86.588677 
L 783.939981 84.111363 
L 786.630124 99.879661 
L 789.320268 112.659454 
L 797.390699 127.366047 
L 800.080843 118.321886 
L 802.770986 116.906278 
L 805.46113 99.171857 
L 808.151274 96.930478 
L 816.221705 116.906278 
L 818.911848 107.822794 
L 824.292136 141.60077 
L 826.982279 160.318251 
L 835.05271 158.430774 
L 837.742854 164.17185 
L 840.432998 152.571731 
L 843.123142 150.094417 
L 845.813285 157.526358 
L 856.57386 157.408391 
L 859.264004 162.834887 
L 861.954147 161.537247 
L 864.644291 167.86816 
L 872.714722 167.828837 
L 875.404866 167.278323 
L 880.785153 155.796171 
L 883.475297 160.318251 
L 891.545728 160.750798 
L 894.235872 153.594114 
L 896.926015 157.487036 
L 899.616159 158.823999 
L 902.306303 160.868765 
L 910.376734 162.677598 
L 915.757021 172.114983 
L 918.447165 167.907482 
L 921.137308 168.851221 
L 929.207739 148.482197 
L 931.897883 145.454369 
L 934.588027 147.774393 
L 937.27817 153.240212 
L 939.968314 153.20089 
L 939.968314 153.20089 
" clip-path="url(#p2bcee0fc29)" style="fill: none; stroke: #1f77b4; stroke-width: 1.5; stroke-linecap: square"/>
   </g>
   <g id="line2d_38">
    <path d="M 92.573054 62.924432 
L 100.643485 67.100476 
L 103.333629 72.550566 
L 106.023772 77.206343 
L 108.713916 81.0914 
L 111.40406 87.194242 
L 119.474491 88.15371 
L 124.854778 84.072041 
L 127.544922 87.469499 
L 130.235066 91.802832 
L 138.305497 101.89297 
L 140.99564 107.232958 
L 146.375928 116.379357 
L 149.066071 119.808274 
L 157.136502 120.264414 
L 159.826646 114.03574 
L 162.51679 111.542697 
L 165.206933 104.637677 
L 167.897077 99.698778 
L 175.967508 99.525759 
L 178.657652 103.056914 
L 181.347796 110.968589 
L 184.037939 122.01033 
L 186.728083 135.749591 
L 194.798514 149.850618 
L 197.488658 159.94862 
L 200.178801 164.627991 
L 202.868945 167.797379 
L 205.559089 167.734463 
L 213.62952 166.279533 
L 216.319663 171.446502 
L 219.009807 175.661867 
L 221.699951 185.382374 
L 224.390094 192.782858 
L 232.460525 199.239602 
L 237.840813 203.738089 
L 240.530957 214.693321 
L 243.2211 222.416248 
L 251.291531 240.292229 
L 253.981675 250.814914 
L 256.671819 258.726589 
L 259.361962 262.336389 
L 262.052106 264.31824 
L 270.122537 257.193014 
L 272.812681 253.48884 
L 275.502824 246.371478 
L 278.192968 240.764099 
L 288.953543 238.75079 
L 291.643687 240.43379 
L 294.33383 245.191805 
L 297.023974 253.410195 
L 299.714118 263.107109 
L 307.784549 268.376316 
L 310.474692 268.99761 
L 313.164836 263.736268 
L 315.85498 255.510014 
L 318.545123 244.790716 
L 326.615554 231.908685 
L 329.305698 220.025444 
L 331.995842 216.148251 
L 334.685985 210.761077 
L 337.376129 201.536033 
L 345.44656 194.992779 
L 350.826848 184.124056 
L 364.277566 181.796168 
L 366.96771 187.552973 
L 369.657853 189.416857 
L 372.347997 190.690904 
L 375.038141 189.007903 
L 383.108572 194.544503 
L 385.798715 191.59532 
L 388.488859 192.916554 
L 391.179003 192.130105 
L 393.869146 194.4344 
L 401.939578 192.7514 
L 407.319865 198.767733 
L 410.010009 203.478561 
L 412.700152 210.855451 
L 420.770583 214.795559 
L 423.460727 214.882069 
L 426.150871 210.918367 
L 428.841014 209.471301 
L 431.531158 203.006692 
L 439.601589 196.715102 
L 444.981876 181.30857 
L 447.67202 177.478564 
L 450.362164 183.581407 
L 458.432595 190.627988 
L 461.122739 199.538453 
L 463.812882 211.421694 
L 466.503026 213.883279 
L 469.19317 209.840932 
L 477.263601 202.928047 
L 479.953744 202.298888 
L 482.643888 200.576565 
L 485.334032 202.283159 
L 488.024175 205.546922 
L 496.094606 211.264404 
L 501.474894 216.745952 
L 504.165037 217.713284 
L 506.855181 219.820967 
L 514.925612 223.257748 
L 517.615756 225.255328 
L 520.3059 226.246254 
L 522.996043 229.557203 
L 525.686187 233.434396 
L 533.756618 230.178498 
L 536.446762 226.261983 
L 539.136905 223.076865 
L 541.827049 217.902032 
L 544.517193 207.009716 
L 552.587624 200.993383 
L 555.277767 195.944382 
L 557.967911 195.181526 
L 560.658055 197.894775 
L 563.348198 199.947406 
L 571.41863 197.477957 
L 574.108773 191.477353 
L 576.798917 173.695745 
L 579.489061 158.3364 
L 582.179204 147.522729 
L 590.249635 140.279536 
L 592.939779 136.473124 
L 595.629923 137.644932 
L 598.320066 134.475544 
L 601.01021 130.708454 
L 609.080641 130.70059 
L 611.770785 129.214201 
L 617.151072 128.828841 
L 619.841216 127.38964 
L 627.911647 125.871794 
L 630.601791 129.520916 
L 633.291934 133.799198 
L 635.982078 137.707848 
L 638.672222 142.363625 
L 646.742653 143.527569 
L 649.432796 140.051466 
L 652.12294 137.60561 
L 654.813084 137.212386 
L 657.503227 134.168829 
L 665.573658 133.028478 
L 670.953946 134.373305 
L 673.64409 132.289216 
L 676.334233 130.661267 
L 687.094808 128.026664 
L 689.784952 124.62134 
L 692.475095 114.861511 
L 695.165239 110.016986 
L 703.23567 106.462238 
L 705.925814 106.34427 
L 708.615957 104.338826 
L 711.306101 106.053284 
L 713.996245 107.327331 
L 722.066676 104.11862 
L 724.756819 98.82582 
L 730.137107 95.750805 
L 732.827251 94.453165 
L 740.897682 95.129511 
L 743.587825 94.822796 
L 746.277969 91.417472 
L 748.968113 88.822191 
L 751.658256 85.306765 
L 759.728687 76.734473 
L 762.418831 71.55964 
L 765.108975 74.194244 
L 767.799118 75.767141 
L 770.489262 83.293456 
L 778.559693 90.819771 
L 781.249837 93.816141 
L 783.939981 94.193637 
L 786.630124 97.701198 
L 789.320268 97.654011 
L 797.390699 102.12104 
L 802.770986 115.026665 
L 805.46113 114.885104 
L 808.151274 111.739309 
L 816.221705 109.647355 
L 818.911848 107.547537 
L 824.292136 112.486436 
L 826.982279 124.715714 
L 835.05271 137.015773 
L 837.742854 146.468888 
L 840.432998 155.418675 
L 843.123142 157.117405 
L 845.813285 156.559026 
L 853.883716 156.346685 
L 856.57386 154.993993 
L 859.264004 157.046624 
L 861.954147 159.33519 
L 864.644291 161.403551 
L 872.714722 163.495504 
L 875.404866 165.469491 
L 880.785153 164.061748 
L 883.475297 163.817948 
L 891.545728 162.394476 
L 894.235872 159.547531 
L 896.926015 157.589274 
L 899.616159 158.19484 
L 910.376734 158.690302 
L 915.757021 162.394476 
L 921.137308 166.48401 
L 929.207739 164.006696 
L 931.897883 160.56205 
L 934.588027 155.693932 
L 937.27817 152.760478 
L 939.968314 149.630412 
L 939.968314 149.630412 
" clip-path="url(#p2bcee0fc29)" style="fill: none; stroke: #ff7f0e; stroke-width: 1.5; stroke-linecap: square"/>
   </g>
   <g id="patch_3">
    <path d="M 38.904688 301.717813 
L 38.904688 48.331875 
" style="fill: none; stroke: #000000; stroke-width: 0.8; stroke-linejoin: miter; stroke-linecap: square"/>
   </g>
   <g id="patch_4">
    <path d="M 982.876106 301.717813 
L 982.876106 48.331875 
" style="fill: none; stroke: #000000; stroke-width: 0.8; stroke-linejoin: miter; stroke-linecap: square"/>
   </g>
   <g id="patch_5">
    <path d="M 38.904687 301.717812 
L 982.876106 301.717812 
" style="fill: none; stroke: #000000; stroke-width: 0.8; stroke-linejoin: miter; stroke-linecap: square"/>
   </g>
   <g id="patch_6">
    <path d="M 38.904687 48.331875 
L 982.876106 48.331875 
" style="fill: none; stroke: #000000; stroke-width: 0.8; stroke-linejoin: miter; stroke-linecap: square"/>
   </g>
   <g id="text_7">
    <!-- Closing Price -->
    <g transform="translate(472.414459 42.331875)scale(0.12 -0.12)">
     <defs>
      <path id="DejaVuSans-43" d="M 4122 4306 
L 4122 3641 
Q 3803 3938 3442 4084 
Q 3081 4231 2675 4231 
Q 1875 4231 1450 3742 
Q 1025 3253 1025 2328 
Q 1025 1406 1450 917 
Q 1875 428 2675 428 
Q 3081 428 3442 575 
Q 3803 722 4122 1019 
L 4122 359 
Q 3791 134 3420 21 
Q 3050 -91 2638 -91 
Q 1578 -91 968 557 
Q 359 1206 359 2328 
Q 359 3453 968 4101 
Q 1578 4750 2638 4750 
Q 3056 4750 3426 4639 
Q 3797 4528 4122 4306 
z
" transform="scale(0.015625)"/>
      <path id="DejaVuSans-6c" d="M 603 4863 
L 1178 4863 
L 1178 0 
L 603 0 
L 603 4863 
z
" transform="scale(0.015625)"/>
      <path id="DejaVuSans-6f" d="M 1959 3097 
Q 1497 3097 1228 2736 
Q 959 2375 959 1747 
Q 959 1119 1226 758 
Q 1494 397 1959 397 
Q 2419 397 2687 759 
Q 2956 1122 2956 1747 
Q 2956 2369 2687 2733 
Q 2419 3097 1959 3097 
z
M 1959 3584 
Q 2709 3584 3137 3096 
Q 3566 2609 3566 1747 
Q 3566 888 3137 398 
Q 2709 -91 1959 -91 
Q 1206 -91 779 398 
Q 353 888 353 1747 
Q 353 2609 779 3096 
Q 1206 3584 1959 3584 
z
" transform="scale(0.015625)"/>
      <path id="DejaVuSans-73" d="M 2834 3397 
L 2834 2853 
Q 2591 2978 2328 3040 
Q 2066 3103 1784 3103 
Q 1356 3103 1142 2972 
Q 928 2841 928 2578 
Q 928 2378 1081 2264 
Q 1234 2150 1697 2047 
L 1894 2003 
Q 2506 1872 2764 1633 
Q 3022 1394 3022 966 
Q 3022 478 2636 193 
Q 2250 -91 1575 -91 
Q 1294 -91 989 -36 
Q 684 19 347 128 
L 347 722 
Q 666 556 975 473 
Q 1284 391 1588 391 
Q 1994 391 2212 530 
Q 2431 669 2431 922 
Q 2431 1156 2273 1281 
Q 2116 1406 1581 1522 
L 1381 1569 
Q 847 1681 609 1914 
Q 372 2147 372 2553 
Q 372 3047 722 3315 
Q 1072 3584 1716 3584 
Q 2034 3584 2315 3537 
Q 2597 3491 2834 3397 
z
" transform="scale(0.015625)"/>
      <path id="DejaVuSans-69" d="M 603 3500 
L 1178 3500 
L 1178 0 
L 603 0 
L 603 3500 
z
M 603 4863 
L 1178 4863 
L 1178 4134 
L 603 4134 
L 603 4863 
z
" transform="scale(0.015625)"/>
      <path id="DejaVuSans-6e" d="M 3513 2113 
L 3513 0 
L 2938 0 
L 2938 2094 
Q 2938 2591 2744 2837 
Q 2550 3084 2163 3084 
Q 1697 3084 1428 2787 
Q 1159 2491 1159 1978 
L 1159 0 
L 581 0 
L 581 3500 
L 1159 3500 
L 1159 2956 
Q 1366 3272 1645 3428 
Q 1925 3584 2291 3584 
Q 2894 3584 3203 3211 
Q 3513 2838 3513 2113 
z
" transform="scale(0.015625)"/>
      <path id="DejaVuSans-67" d="M 2906 1791 
Q 2906 2416 2648 2759 
Q 2391 3103 1925 3103 
Q 1463 3103 1205 2759 
Q 947 2416 947 1791 
Q 947 1169 1205 825 
Q 1463 481 1925 481 
Q 2391 481 2648 825 
Q 2906 1169 2906 1791 
z
M 3481 434 
Q 3481 -459 3084 -895 
Q 2688 -1331 1869 -1331 
Q 1566 -1331 1297 -1286 
Q 1028 -1241 775 -1147 
L 775 -588 
Q 1028 -725 1275 -790 
Q 1522 -856 1778 -856 
Q 2344 -856 2625 -561 
Q 2906 -266 2906 331 
L 2906 616 
Q 2728 306 2450 153 
Q 2172 0 1784 0 
Q 1141 0 747 490 
Q 353 981 353 1791 
Q 353 2603 747 3093 
Q 1141 3584 1784 3584 
Q 2172 3584 2450 3431 
Q 2728 3278 2906 2969 
L 2906 3500 
L 3481 3500 
L 3481 434 
z
" transform="scale(0.015625)"/>
      <path id="DejaVuSans-20" transform="scale(0.015625)"/>
      <path id="DejaVuSans-50" d="M 1259 4147 
L 1259 2394 
L 2053 2394 
Q 2494 2394 2734 2622 
Q 2975 2850 2975 3272 
Q 2975 3691 2734 3919 
Q 2494 4147 2053 4147 
L 1259 4147 
z
M 628 4666 
L 2053 4666 
Q 2838 4666 3239 4311 
Q 3641 3956 3641 3272 
Q 3641 2581 3239 2228 
Q 2838 1875 2053 1875 
L 1259 1875 
L 1259 0 
L 628 0 
L 628 4666 
z
" transform="scale(0.015625)"/>
      <path id="DejaVuSans-72" d="M 2631 2963 
Q 2534 3019 2420 3045 
Q 2306 3072 2169 3072 
Q 1681 3072 1420 2755 
Q 1159 2438 1159 1844 
L 1159 0 
L 581 0 
L 581 3500 
L 1159 3500 
L 1159 2956 
Q 1341 3275 1631 3429 
Q 1922 3584 2338 3584 
Q 2397 3584 2469 3576 
Q 2541 3569 2628 3553 
L 2631 2963 
z
" transform="scale(0.015625)"/>
      <path id="DejaVuSans-63" d="M 3122 3366 
L 3122 2828 
Q 2878 2963 2633 3030 
Q 2388 3097 2138 3097 
Q 1578 3097 1268 2742 
Q 959 2388 959 1747 
Q 959 1106 1268 751 
Q 1578 397 2138 397 
Q 2388 397 2633 464 
Q 2878 531 3122 666 
L 3122 134 
Q 2881 22 2623 -34 
Q 2366 -91 2075 -91 
Q 1284 -91 818 406 
Q 353 903 353 1747 
Q 353 2603 823 3093 
Q 1294 3584 2113 3584 
Q 2378 3584 2631 3529 
Q 2884 3475 3122 3366 
z
" transform="scale(0.015625)"/>
      <path id="DejaVuSans-65" d="M 3597 1894 
L 3597 1613 
L 953 1613 
Q 991 1019 1311 708 
Q 1631 397 2203 397 
Q 2534 397 2845 478 
Q 3156 559 3463 722 
L 3463 178 
Q 3153 47 2828 -22 
Q 2503 -91 2169 -91 
Q 1331 -91 842 396 
Q 353 884 353 1716 
Q 353 2575 817 3079 
Q 1281 3584 2069 3584 
Q 2775 3584 3186 3129 
Q 3597 2675 3597 1894 
z
M 3022 2063 
Q 3016 2534 2758 2815 
Q 2500 3097 2075 3097 
Q 1594 3097 1305 2825 
Q 1016 2553 972 2059 
L 3022 2063 
z
" transform="scale(0.015625)"/>
     </defs>
     <use xlink:href="#DejaVuSans-43"/>
     <use xlink:href="#DejaVuSans-6c" x="69.824219"/>
     <use xlink:href="#DejaVuSans-6f" x="97.607422"/>
     <use xlink:href="#DejaVuSans-73" x="158.789062"/>
     <use xlink:href="#DejaVuSans-69" x="210.888672"/>
     <use xlink:href="#DejaVuSans-6e" x="238.671875"/>
     <use xlink:href="#DejaVuSans-67" x="302.050781"/>
     <use xlink:href="#DejaVuSans-20" x="365.527344"/>
     <use xlink:href="#DejaVuSans-50" x="397.314453"/>
     <use xlink:href="#DejaVuSans-72" x="455.867188"/>
     <use xlink:href="#DejaVuSans-69" x="496.980469"/>
     <use xlink:href="#DejaVuSans-63" x="524.763672"/>
     <use xlink:href="#DejaVuSans-65" x="579.744141"/>
    </g>
   </g>
   <g id="legend_1">
    <g id="patch_7">
     <path d="M 911.144856 85.688125 
L 975.876106 85.688125 
Q 977.876106 85.688125 977.876106 83.688125 
L 977.876106 55.331875 
Q 977.876106 53.331875 975.876106 53.331875 
L 911.144856 53.331875 
Q 909.144856 53.331875 909.144856 55.331875 
L 909.144856 83.688125 
Q 909.144856 85.688125 911.144856 85.688125 
z
" style="fill: #ffffff; opacity: 0.8; stroke: #cccccc; stroke-linejoin: miter"/>
    </g>
    <g id="line2d_39">
     <path d="M 913.144856 61.430312 
L 923.144856 61.430312 
L 933.144856 61.430312 
" style="fill: none; stroke: #1f77b4; stroke-width: 1.5; stroke-linecap: square"/>
    </g>
    <g id="text_8">
     <!-- CLOSE -->
     <g transform="translate(941.144856 64.930312)scale(0.1 -0.1)">
      <defs>
       <path id="DejaVuSans-4c" d="M 628 4666 
L 1259 4666 
L 1259 531 
L 3531 531 
L 3531 0 
L 628 0 
L 628 4666 
z
" transform="scale(0.015625)"/>
       <path id="DejaVuSans-4f" d="M 2522 4238 
Q 1834 4238 1429 3725 
Q 1025 3213 1025 2328 
Q 1025 1447 1429 934 
Q 1834 422 2522 422 
Q 3209 422 3611 934 
Q 4013 1447 4013 2328 
Q 4013 3213 3611 3725 
Q 3209 4238 2522 4238 
z
M 2522 4750 
Q 3503 4750 4090 4092 
Q 4678 3434 4678 2328 
Q 4678 1225 4090 567 
Q 3503 -91 2522 -91 
Q 1538 -91 948 565 
Q 359 1222 359 2328 
Q 359 3434 948 4092 
Q 1538 4750 2522 4750 
z
" transform="scale(0.015625)"/>
       <path id="DejaVuSans-53" d="M 3425 4513 
L 3425 3897 
Q 3066 4069 2747 4153 
Q 2428 4238 2131 4238 
Q 1616 4238 1336 4038 
Q 1056 3838 1056 3469 
Q 1056 3159 1242 3001 
Q 1428 2844 1947 2747 
L 2328 2669 
Q 3034 2534 3370 2195 
Q 3706 1856 3706 1288 
Q 3706 609 3251 259 
Q 2797 -91 1919 -91 
Q 1588 -91 1214 -16 
Q 841 59 441 206 
L 441 856 
Q 825 641 1194 531 
Q 1563 422 1919 422 
Q 2459 422 2753 634 
Q 3047 847 3047 1241 
Q 3047 1584 2836 1778 
Q 2625 1972 2144 2069 
L 1759 2144 
Q 1053 2284 737 2584 
Q 422 2884 422 3419 
Q 422 4038 858 4394 
Q 1294 4750 2059 4750 
Q 2388 4750 2728 4690 
Q 3069 4631 3425 4513 
z
" transform="scale(0.015625)"/>
       <path id="DejaVuSans-45" d="M 628 4666 
L 3578 4666 
L 3578 4134 
L 1259 4134 
L 1259 2753 
L 3481 2753 
L 3481 2222 
L 1259 2222 
L 1259 531 
L 3634 531 
L 3634 0 
L 628 0 
L 628 4666 
z
" transform="scale(0.015625)"/>
      </defs>
      <use xlink:href="#DejaVuSans-43"/>
      <use xlink:href="#DejaVuSans-4c" x="69.824219"/>
      <use xlink:href="#DejaVuSans-4f" x="121.912109"/>
      <use xlink:href="#DejaVuSans-53" x="200.623047"/>
      <use xlink:href="#DejaVuSans-45" x="264.099609"/>
     </g>
    </g>
    <g id="line2d_40">
     <path d="M 913.144856 76.108437 
L 923.144856 76.108437 
L 933.144856 76.108437 
" style="fill: none; stroke: #ff7f0e; stroke-width: 1.5; stroke-linecap: square"/>
    </g>
    <g id="text_9">
     <!-- SMA5 -->
     <g transform="translate(941.144856 79.608437)scale(0.1 -0.1)">
      <defs>
       <path id="DejaVuSans-4d" d="M 628 4666 
L 1569 4666 
L 2759 1491 
L 3956 4666 
L 4897 4666 
L 4897 0 
L 4281 0 
L 4281 4097 
L 3078 897 
L 2444 897 
L 1241 4097 
L 1241 0 
L 628 0 
L 628 4666 
z
" transform="scale(0.015625)"/>
       <path id="DejaVuSans-41" d="M 2188 4044 
L 1331 1722 
L 3047 1722 
L 2188 4044 
z
M 1831 4666 
L 2547 4666 
L 4325 0 
L 3669 0 
L 3244 1197 
L 1141 1197 
L 716 0 
L 50 0 
L 1831 4666 
z
" transform="scale(0.015625)"/>
      </defs>
      <use xlink:href="#DejaVuSans-53"/>
      <use xlink:href="#DejaVuSans-4d" x="63.476562"/>
      <use xlink:href="#DejaVuSans-41" x="149.755859"/>
      <use xlink:href="#DejaVuSans-35" x="218.164062"/>
     </g>
    </g>
   </g>
  </g>
  <g id="axes_2">
   <g id="patch_8">
    <path d="M 38.904688 584.521875 
L 982.876106 584.521875 
L 982.876106 331.135938 
L 38.904688 331.135938 
z
" style="fill: #ffffff"/>
   </g>
   <g id="matplotlib.axis_3">
    <g id="xtick_13">
     <g id="line2d_41">
      <path d="M 76.432192 584.521875 
L 76.432192 331.135938 
" clip-path="url(#p7a0c1ffa5a)" style="fill: none; stroke-dasharray: 2.96,1.28; stroke-dashoffset: 0; stroke: #b0b0b0; stroke-width: 0.8"/>
     </g>
     <g id="line2d_42">
      <g>
       <use xlink:href="#mab2d556be9" x="76.432192" y="584.521875" style="stroke: #000000; stroke-width: 0.8"/>
      </g>
     </g>
     <g id="text_10">
      <!-- 2022-01 -->
      <g transform="translate(55.540786 599.120312)scale(0.1 -0.1)">
       <defs>
        <path id="DejaVuSans-32" d="M 1228 531 
L 3431 531 
L 3431 0 
L 469 0 
L 469 531 
Q 828 903 1448 1529 
Q 2069 2156 2228 2338 
Q 2531 2678 2651 2914 
Q 2772 3150 2772 3378 
Q 2772 3750 2511 3984 
Q 2250 4219 1831 4219 
Q 1534 4219 1204 4116 
Q 875 4013 500 3803 
L 500 4441 
Q 881 4594 1212 4672 
Q 1544 4750 1819 4750 
Q 2544 4750 2975 4387 
Q 3406 4025 3406 3419 
Q 3406 3131 3298 2873 
Q 3191 2616 2906 2266 
Q 2828 2175 2409 1742 
Q 1991 1309 1228 531 
z
" transform="scale(0.015625)"/>
        <path id="DejaVuSans-2d" d="M 313 2009 
L 1997 2009 
L 1997 1497 
L 313 1497 
L 313 2009 
z
" transform="scale(0.015625)"/>
        <path id="DejaVuSans-31" d="M 794 531 
L 1825 531 
L 1825 4091 
L 703 3866 
L 703 4441 
L 1819 4666 
L 2450 4666 
L 2450 531 
L 3481 531 
L 3481 0 
L 794 0 
L 794 531 
z
" transform="scale(0.015625)"/>
       </defs>
       <use xlink:href="#DejaVuSans-32"/>
       <use xlink:href="#DejaVuSans-30" x="63.623047"/>
       <use xlink:href="#DejaVuSans-32" x="127.246094"/>
       <use xlink:href="#DejaVuSans-32" x="190.869141"/>
       <use xlink:href="#DejaVuSans-2d" x="254.492188"/>
       <use xlink:href="#DejaVuSans-30" x="290.576172"/>
       <use xlink:href="#DejaVuSans-31" x="354.199219"/>
      </g>
     </g>
    </g>
    <g id="xtick_14">
     <g id="line2d_43">
      <path d="M 159.826646 584.521875 
L 159.826646 331.135938 
" clip-path="url(#p7a0c1ffa5a)" style="fill: none; stroke-dasharray: 2.96,1.28; stroke-dashoffset: 0; stroke: #b0b0b0; stroke-width: 0.8"/>
     </g>
     <g id="line2d_44">
      <g>
       <use xlink:href="#mab2d556be9" x="159.826646" y="584.521875" style="stroke: #000000; stroke-width: 0.8"/>
      </g>
     </g>
     <g id="text_11">
      <!-- 2022-02 -->
      <g transform="translate(138.93524 599.120312)scale(0.1 -0.1)">
       <use xlink:href="#DejaVuSans-32"/>
       <use xlink:href="#DejaVuSans-30" x="63.623047"/>
       <use xlink:href="#DejaVuSans-32" x="127.246094"/>
       <use xlink:href="#DejaVuSans-32" x="190.869141"/>
       <use xlink:href="#DejaVuSans-2d" x="254.492188"/>
       <use xlink:href="#DejaVuSans-30" x="290.576172"/>
       <use xlink:href="#DejaVuSans-32" x="354.199219"/>
      </g>
     </g>
    </g>
    <g id="xtick_15">
     <g id="line2d_45">
      <path d="M 235.150669 584.521875 
L 235.150669 331.135938 
" clip-path="url(#p7a0c1ffa5a)" style="fill: none; stroke-dasharray: 2.96,1.28; stroke-dashoffset: 0; stroke: #b0b0b0; stroke-width: 0.8"/>
     </g>
     <g id="line2d_46">
      <g>
       <use xlink:href="#mab2d556be9" x="235.150669" y="584.521875" style="stroke: #000000; stroke-width: 0.8"/>
      </g>
     </g>
     <g id="text_12">
      <!-- 2022-03 -->
      <g transform="translate(214.259263 599.120312)scale(0.1 -0.1)">
       <defs>
        <path id="DejaVuSans-33" d="M 2597 2516 
Q 3050 2419 3304 2112 
Q 3559 1806 3559 1356 
Q 3559 666 3084 287 
Q 2609 -91 1734 -91 
Q 1441 -91 1130 -33 
Q 819 25 488 141 
L 488 750 
Q 750 597 1062 519 
Q 1375 441 1716 441 
Q 2309 441 2620 675 
Q 2931 909 2931 1356 
Q 2931 1769 2642 2001 
Q 2353 2234 1838 2234 
L 1294 2234 
L 1294 2753 
L 1863 2753 
Q 2328 2753 2575 2939 
Q 2822 3125 2822 3475 
Q 2822 3834 2567 4026 
Q 2313 4219 1838 4219 
Q 1578 4219 1281 4162 
Q 984 4106 628 3988 
L 628 4550 
Q 988 4650 1302 4700 
Q 1616 4750 1894 4750 
Q 2613 4750 3031 4423 
Q 3450 4097 3450 3541 
Q 3450 3153 3228 2886 
Q 3006 2619 2597 2516 
z
" transform="scale(0.015625)"/>
       </defs>
       <use xlink:href="#DejaVuSans-32"/>
       <use xlink:href="#DejaVuSans-30" x="63.623047"/>
       <use xlink:href="#DejaVuSans-32" x="127.246094"/>
       <use xlink:href="#DejaVuSans-32" x="190.869141"/>
       <use xlink:href="#DejaVuSans-2d" x="254.492188"/>
       <use xlink:href="#DejaVuSans-30" x="290.576172"/>
       <use xlink:href="#DejaVuSans-33" x="354.199219"/>
      </g>
     </g>
    </g>
    <g id="xtick_16">
     <g id="line2d_47">
      <path d="M 318.545123 584.521875 
L 318.545123 331.135938 
" clip-path="url(#p7a0c1ffa5a)" style="fill: none; stroke-dasharray: 2.96,1.28; stroke-dashoffset: 0; stroke: #b0b0b0; stroke-width: 0.8"/>
     </g>
     <g id="line2d_48">
      <g>
       <use xlink:href="#mab2d556be9" x="318.545123" y="584.521875" style="stroke: #000000; stroke-width: 0.8"/>
      </g>
     </g>
     <g id="text_13">
      <!-- 2022-04 -->
      <g transform="translate(297.653717 599.120312)scale(0.1 -0.1)">
       <defs>
        <path id="DejaVuSans-34" d="M 2419 4116 
L 825 1625 
L 2419 1625 
L 2419 4116 
z
M 2253 4666 
L 3047 4666 
L 3047 1625 
L 3713 1625 
L 3713 1100 
L 3047 1100 
L 3047 0 
L 2419 0 
L 2419 1100 
L 313 1100 
L 313 1709 
L 2253 4666 
z
" transform="scale(0.015625)"/>
       </defs>
       <use xlink:href="#DejaVuSans-32"/>
       <use xlink:href="#DejaVuSans-30" x="63.623047"/>
       <use xlink:href="#DejaVuSans-32" x="127.246094"/>
       <use xlink:href="#DejaVuSans-32" x="190.869141"/>
       <use xlink:href="#DejaVuSans-2d" x="254.492188"/>
       <use xlink:href="#DejaVuSans-30" x="290.576172"/>
       <use xlink:href="#DejaVuSans-34" x="354.199219"/>
      </g>
     </g>
    </g>
    <g id="xtick_17">
     <g id="line2d_49">
      <path d="M 399.249434 584.521875 
L 399.249434 331.135938 
" clip-path="url(#p7a0c1ffa5a)" style="fill: none; stroke-dasharray: 2.96,1.28; stroke-dashoffset: 0; stroke: #b0b0b0; stroke-width: 0.8"/>
     </g>
     <g id="line2d_50">
      <g>
       <use xlink:href="#mab2d556be9" x="399.249434" y="584.521875" style="stroke: #000000; stroke-width: 0.8"/>
      </g>
     </g>
     <g id="text_14">
      <!-- 2022-05 -->
      <g transform="translate(378.358028 599.120312)scale(0.1 -0.1)">
       <use xlink:href="#DejaVuSans-32"/>
       <use xlink:href="#DejaVuSans-30" x="63.623047"/>
       <use xlink:href="#DejaVuSans-32" x="127.246094"/>
       <use xlink:href="#DejaVuSans-32" x="190.869141"/>
       <use xlink:href="#DejaVuSans-2d" x="254.492188"/>
       <use xlink:href="#DejaVuSans-30" x="290.576172"/>
       <use xlink:href="#DejaVuSans-35" x="354.199219"/>
      </g>
     </g>
    </g>
    <g id="xtick_18">
     <g id="line2d_51">
      <path d="M 482.643888 584.521875 
L 482.643888 331.135938 
" clip-path="url(#p7a0c1ffa5a)" style="fill: none; stroke-dasharray: 2.96,1.28; stroke-dashoffset: 0; stroke: #b0b0b0; stroke-width: 0.8"/>
     </g>
     <g id="line2d_52">
      <g>
       <use xlink:href="#mab2d556be9" x="482.643888" y="584.521875" style="stroke: #000000; stroke-width: 0.8"/>
      </g>
     </g>
     <g id="text_15">
      <!-- 2022-06 -->
      <g transform="translate(461.752482 599.120312)scale(0.1 -0.1)">
       <defs>
        <path id="DejaVuSans-36" d="M 2113 2584 
Q 1688 2584 1439 2293 
Q 1191 2003 1191 1497 
Q 1191 994 1439 701 
Q 1688 409 2113 409 
Q 2538 409 2786 701 
Q 3034 994 3034 1497 
Q 3034 2003 2786 2293 
Q 2538 2584 2113 2584 
z
M 3366 4563 
L 3366 3988 
Q 3128 4100 2886 4159 
Q 2644 4219 2406 4219 
Q 1781 4219 1451 3797 
Q 1122 3375 1075 2522 
Q 1259 2794 1537 2939 
Q 1816 3084 2150 3084 
Q 2853 3084 3261 2657 
Q 3669 2231 3669 1497 
Q 3669 778 3244 343 
Q 2819 -91 2113 -91 
Q 1303 -91 875 529 
Q 447 1150 447 2328 
Q 447 3434 972 4092 
Q 1497 4750 2381 4750 
Q 2619 4750 2861 4703 
Q 3103 4656 3366 4563 
z
" transform="scale(0.015625)"/>
       </defs>
       <use xlink:href="#DejaVuSans-32"/>
       <use xlink:href="#DejaVuSans-30" x="63.623047"/>
       <use xlink:href="#DejaVuSans-32" x="127.246094"/>
       <use xlink:href="#DejaVuSans-32" x="190.869141"/>
       <use xlink:href="#DejaVuSans-2d" x="254.492188"/>
       <use xlink:href="#DejaVuSans-30" x="290.576172"/>
       <use xlink:href="#DejaVuSans-36" x="354.199219"/>
      </g>
     </g>
    </g>
    <g id="xtick_19">
     <g id="line2d_53">
      <path d="M 563.348198 584.521875 
L 563.348198 331.135938 
" clip-path="url(#p7a0c1ffa5a)" style="fill: none; stroke-dasharray: 2.96,1.28; stroke-dashoffset: 0; stroke: #b0b0b0; stroke-width: 0.8"/>
     </g>
     <g id="line2d_54">
      <g>
       <use xlink:href="#mab2d556be9" x="563.348198" y="584.521875" style="stroke: #000000; stroke-width: 0.8"/>
      </g>
     </g>
     <g id="text_16">
      <!-- 2022-07 -->
      <g transform="translate(542.456792 599.120312)scale(0.1 -0.1)">
       <use xlink:href="#DejaVuSans-32"/>
       <use xlink:href="#DejaVuSans-30" x="63.623047"/>
       <use xlink:href="#DejaVuSans-32" x="127.246094"/>
       <use xlink:href="#DejaVuSans-32" x="190.869141"/>
       <use xlink:href="#DejaVuSans-2d" x="254.492188"/>
       <use xlink:href="#DejaVuSans-30" x="290.576172"/>
       <use xlink:href="#DejaVuSans-37" x="354.199219"/>
      </g>
     </g>
    </g>
    <g id="xtick_20">
     <g id="line2d_55">
      <path d="M 646.742653 584.521875 
L 646.742653 331.135938 
" clip-path="url(#p7a0c1ffa5a)" style="fill: none; stroke-dasharray: 2.96,1.28; stroke-dashoffset: 0; stroke: #b0b0b0; stroke-width: 0.8"/>
     </g>
     <g id="line2d_56">
      <g>
       <use xlink:href="#mab2d556be9" x="646.742653" y="584.521875" style="stroke: #000000; stroke-width: 0.8"/>
      </g>
     </g>
     <g id="text_17">
      <!-- 2022-08 -->
      <g transform="translate(625.851246 599.120312)scale(0.1 -0.1)">
       <use xlink:href="#DejaVuSans-32"/>
       <use xlink:href="#DejaVuSans-30" x="63.623047"/>
       <use xlink:href="#DejaVuSans-32" x="127.246094"/>
       <use xlink:href="#DejaVuSans-32" x="190.869141"/>
       <use xlink:href="#DejaVuSans-2d" x="254.492188"/>
       <use xlink:href="#DejaVuSans-30" x="290.576172"/>
       <use xlink:href="#DejaVuSans-38" x="354.199219"/>
      </g>
     </g>
    </g>
    <g id="xtick_21">
     <g id="line2d_57">
      <path d="M 730.137107 584.521875 
L 730.137107 331.135938 
" clip-path="url(#p7a0c1ffa5a)" style="fill: none; stroke-dasharray: 2.96,1.28; stroke-dashoffset: 0; stroke: #b0b0b0; stroke-width: 0.8"/>
     </g>
     <g id="line2d_58">
      <g>
       <use xlink:href="#mab2d556be9" x="730.137107" y="584.521875" style="stroke: #000000; stroke-width: 0.8"/>
      </g>
     </g>
     <g id="text_18">
      <!-- 2022-09 -->
      <g transform="translate(709.245701 599.120312)scale(0.1 -0.1)">
       <use xlink:href="#DejaVuSans-32"/>
       <use xlink:href="#DejaVuSans-30" x="63.623047"/>
       <use xlink:href="#DejaVuSans-32" x="127.246094"/>
       <use xlink:href="#DejaVuSans-32" x="190.869141"/>
       <use xlink:href="#DejaVuSans-2d" x="254.492188"/>
       <use xlink:href="#DejaVuSans-30" x="290.576172"/>
       <use xlink:href="#DejaVuSans-39" x="354.199219"/>
      </g>
     </g>
    </g>
    <g id="xtick_22">
     <g id="line2d_59">
      <path d="M 810.841417 584.521875 
L 810.841417 331.135938 
" clip-path="url(#p7a0c1ffa5a)" style="fill: none; stroke-dasharray: 2.96,1.28; stroke-dashoffset: 0; stroke: #b0b0b0; stroke-width: 0.8"/>
     </g>
     <g id="line2d_60">
      <g>
       <use xlink:href="#mab2d556be9" x="810.841417" y="584.521875" style="stroke: #000000; stroke-width: 0.8"/>
      </g>
     </g>
     <g id="text_19">
      <!-- 2022-10 -->
      <g transform="translate(789.950011 599.120312)scale(0.1 -0.1)">
       <use xlink:href="#DejaVuSans-32"/>
       <use xlink:href="#DejaVuSans-30" x="63.623047"/>
       <use xlink:href="#DejaVuSans-32" x="127.246094"/>
       <use xlink:href="#DejaVuSans-32" x="190.869141"/>
       <use xlink:href="#DejaVuSans-2d" x="254.492188"/>
       <use xlink:href="#DejaVuSans-31" x="290.576172"/>
       <use xlink:href="#DejaVuSans-30" x="354.199219"/>
      </g>
     </g>
    </g>
    <g id="xtick_23">
     <g id="line2d_61">
      <path d="M 894.235872 584.521875 
L 894.235872 331.135938 
" clip-path="url(#p7a0c1ffa5a)" style="fill: none; stroke-dasharray: 2.96,1.28; stroke-dashoffset: 0; stroke: #b0b0b0; stroke-width: 0.8"/>
     </g>
     <g id="line2d_62">
      <g>
       <use xlink:href="#mab2d556be9" x="894.235872" y="584.521875" style="stroke: #000000; stroke-width: 0.8"/>
      </g>
     </g>
     <g id="text_20">
      <!-- 2022-11 -->
      <g transform="translate(873.344465 599.120312)scale(0.1 -0.1)">
       <use xlink:href="#DejaVuSans-32"/>
       <use xlink:href="#DejaVuSans-30" x="63.623047"/>
       <use xlink:href="#DejaVuSans-32" x="127.246094"/>
       <use xlink:href="#DejaVuSans-32" x="190.869141"/>
       <use xlink:href="#DejaVuSans-2d" x="254.492188"/>
       <use xlink:href="#DejaVuSans-31" x="290.576172"/>
       <use xlink:href="#DejaVuSans-31" x="354.199219"/>
      </g>
     </g>
    </g>
    <g id="xtick_24">
     <g id="line2d_63">
      <path d="M 974.940182 584.521875 
L 974.940182 331.135938 
" clip-path="url(#p7a0c1ffa5a)" style="fill: none; stroke-dasharray: 2.96,1.28; stroke-dashoffset: 0; stroke: #b0b0b0; stroke-width: 0.8"/>
     </g>
     <g id="line2d_64">
      <g>
       <use xlink:href="#mab2d556be9" x="974.940182" y="584.521875" style="stroke: #000000; stroke-width: 0.8"/>
      </g>
     </g>
     <g id="text_21">
      <!-- 2022-12 -->
      <g transform="translate(954.048776 599.120312)scale(0.1 -0.1)">
       <use xlink:href="#DejaVuSans-32"/>
       <use xlink:href="#DejaVuSans-30" x="63.623047"/>
       <use xlink:href="#DejaVuSans-32" x="127.246094"/>
       <use xlink:href="#DejaVuSans-32" x="190.869141"/>
       <use xlink:href="#DejaVuSans-2d" x="254.492188"/>
       <use xlink:href="#DejaVuSans-31" x="290.576172"/>
       <use xlink:href="#DejaVuSans-32" x="354.199219"/>
      </g>
     </g>
    </g>
   </g>
   <g id="matplotlib.axis_4">
    <g id="ytick_7">
     <g id="line2d_65">
      <path d="M 38.904688 560.688537 
L 982.876106 560.688537 
" clip-path="url(#p7a0c1ffa5a)" style="fill: none; stroke-dasharray: 2.96,1.28; stroke-dashoffset: 0; stroke: #b0b0b0; stroke-width: 0.8"/>
     </g>
     <g id="line2d_66">
      <g>
       <use xlink:href="#m7882dae2ad" x="38.904688" y="560.688537" style="stroke: #000000; stroke-width: 0.8"/>
      </g>
     </g>
     <g id="text_22">
      <!-- −40 -->
      <g transform="translate(10.8 564.487756)scale(0.1 -0.1)">
       <defs>
        <path id="DejaVuSans-2212" d="M 678 2272 
L 4684 2272 
L 4684 1741 
L 678 1741 
L 678 2272 
z
" transform="scale(0.015625)"/>
       </defs>
       <use xlink:href="#DejaVuSans-2212"/>
       <use xlink:href="#DejaVuSans-34" x="83.789062"/>
       <use xlink:href="#DejaVuSans-30" x="147.412109"/>
      </g>
     </g>
    </g>
    <g id="ytick_8">
     <g id="line2d_67">
      <path d="M 38.904688 528.851755 
L 982.876106 528.851755 
" clip-path="url(#p7a0c1ffa5a)" style="fill: none; stroke-dasharray: 2.96,1.28; stroke-dashoffset: 0; stroke: #b0b0b0; stroke-width: 0.8"/>
     </g>
     <g id="line2d_68">
      <g>
       <use xlink:href="#m7882dae2ad" x="38.904688" y="528.851755" style="stroke: #000000; stroke-width: 0.8"/>
      </g>
     </g>
     <g id="text_23">
      <!-- −30 -->
      <g transform="translate(10.8 532.650974)scale(0.1 -0.1)">
       <use xlink:href="#DejaVuSans-2212"/>
       <use xlink:href="#DejaVuSans-33" x="83.789062"/>
       <use xlink:href="#DejaVuSans-30" x="147.412109"/>
      </g>
     </g>
    </g>
    <g id="ytick_9">
     <g id="line2d_69">
      <path d="M 38.904688 497.014972 
L 982.876106 497.014972 
" clip-path="url(#p7a0c1ffa5a)" style="fill: none; stroke-dasharray: 2.96,1.28; stroke-dashoffset: 0; stroke: #b0b0b0; stroke-width: 0.8"/>
     </g>
     <g id="line2d_70">
      <g>
       <use xlink:href="#m7882dae2ad" x="38.904688" y="497.014972" style="stroke: #000000; stroke-width: 0.8"/>
      </g>
     </g>
     <g id="text_24">
      <!-- −20 -->
      <g transform="translate(10.8 500.814191)scale(0.1 -0.1)">
       <use xlink:href="#DejaVuSans-2212"/>
       <use xlink:href="#DejaVuSans-32" x="83.789062"/>
       <use xlink:href="#DejaVuSans-30" x="147.412109"/>
      </g>
     </g>
    </g>
    <g id="ytick_10">
     <g id="line2d_71">
      <path d="M 38.904688 465.17819 
L 982.876106 465.17819 
" clip-path="url(#p7a0c1ffa5a)" style="fill: none; stroke-dasharray: 2.96,1.28; stroke-dashoffset: 0; stroke: #b0b0b0; stroke-width: 0.8"/>
     </g>
     <g id="line2d_72">
      <g>
       <use xlink:href="#m7882dae2ad" x="38.904688" y="465.17819" style="stroke: #000000; stroke-width: 0.8"/>
      </g>
     </g>
     <g id="text_25">
      <!-- −10 -->
      <g transform="translate(10.8 468.977409)scale(0.1 -0.1)">
       <use xlink:href="#DejaVuSans-2212"/>
       <use xlink:href="#DejaVuSans-31" x="83.789062"/>
       <use xlink:href="#DejaVuSans-30" x="147.412109"/>
      </g>
     </g>
    </g>
    <g id="ytick_11">
     <g id="line2d_73">
      <path d="M 38.904688 433.341408 
L 982.876106 433.341408 
" clip-path="url(#p7a0c1ffa5a)" style="fill: none; stroke-dasharray: 2.96,1.28; stroke-dashoffset: 0; stroke: #b0b0b0; stroke-width: 0.8"/>
     </g>
     <g id="line2d_74">
      <g>
       <use xlink:href="#m7882dae2ad" x="38.904688" y="433.341408" style="stroke: #000000; stroke-width: 0.8"/>
      </g>
     </g>
     <g id="text_26">
      <!-- 0 -->
      <g transform="translate(25.542188 437.140626)scale(0.1 -0.1)">
       <use xlink:href="#DejaVuSans-30"/>
      </g>
     </g>
    </g>
    <g id="ytick_12">
     <g id="line2d_75">
      <path d="M 38.904688 401.504625 
L 982.876106 401.504625 
" clip-path="url(#p7a0c1ffa5a)" style="fill: none; stroke-dasharray: 2.96,1.28; stroke-dashoffset: 0; stroke: #b0b0b0; stroke-width: 0.8"/>
     </g>
     <g id="line2d_76">
      <g>
       <use xlink:href="#m7882dae2ad" x="38.904688" y="401.504625" style="stroke: #000000; stroke-width: 0.8"/>
      </g>
     </g>
     <g id="text_27">
      <!-- 10 -->
      <g transform="translate(19.179688 405.303844)scale(0.1 -0.1)">
       <use xlink:href="#DejaVuSans-31"/>
       <use xlink:href="#DejaVuSans-30" x="63.623047"/>
      </g>
     </g>
    </g>
    <g id="ytick_13">
     <g id="line2d_77">
      <path d="M 38.904688 369.667843 
L 982.876106 369.667843 
" clip-path="url(#p7a0c1ffa5a)" style="fill: none; stroke-dasharray: 2.96,1.28; stroke-dashoffset: 0; stroke: #b0b0b0; stroke-width: 0.8"/>
     </g>
     <g id="line2d_78">
      <g>
       <use xlink:href="#m7882dae2ad" x="38.904688" y="369.667843" style="stroke: #000000; stroke-width: 0.8"/>
      </g>
     </g>
     <g id="text_28">
      <!-- 20 -->
      <g transform="translate(19.179688 373.467061)scale(0.1 -0.1)">
       <use xlink:href="#DejaVuSans-32"/>
       <use xlink:href="#DejaVuSans-30" x="63.623047"/>
      </g>
     </g>
    </g>
    <g id="ytick_14">
     <g id="line2d_79">
      <path d="M 38.904688 337.83106 
L 982.876106 337.83106 
" clip-path="url(#p7a0c1ffa5a)" style="fill: none; stroke-dasharray: 2.96,1.28; stroke-dashoffset: 0; stroke: #b0b0b0; stroke-width: 0.8"/>
     </g>
     <g id="line2d_80">
      <g>
       <use xlink:href="#m7882dae2ad" x="38.904688" y="337.83106" style="stroke: #000000; stroke-width: 0.8"/>
      </g>
     </g>
     <g id="text_29">
      <!-- 30 -->
      <g transform="translate(19.179688 341.630279)scale(0.1 -0.1)">
       <use xlink:href="#DejaVuSans-33"/>
       <use xlink:href="#DejaVuSans-30" x="63.623047"/>
      </g>
     </g>
    </g>
   </g>
   <g id="line2d_81">
    <path d="M 81.812479 433.341408 
L 84.502623 433.905694 
L 87.192767 433.581601 
L 89.88291 434.060511 
L 92.573054 433.228774 
L 100.643485 436.338508 
L 103.333629 440.588802 
L 106.023772 441.823216 
L 108.713916 442.643743 
L 111.40406 444.008804 
L 119.474491 443.79402 
L 122.164634 442.891002 
L 124.854778 440.449082 
L 127.544922 444.950039 
L 130.235066 450.378401 
L 138.305497 460.153178 
L 140.99564 460.645337 
L 146.375928 463.708056 
L 149.066071 465.375873 
L 157.136502 464.749455 
L 159.826646 461.340406 
L 162.51679 456.253328 
L 165.206933 449.22463 
L 167.897077 445.974727 
L 175.967508 448.377396 
L 178.657652 452.631152 
L 184.037939 466.600389 
L 186.728083 477.991299 
L 194.798514 492.204102 
L 197.488658 499.362895 
L 200.178801 500.325833 
L 202.868945 499.668122 
L 205.559089 500.178439 
L 213.62952 503.715012 
L 216.319663 512.39863 
L 219.009807 512.860434 
L 221.699951 520.106499 
L 224.390094 523.035761 
L 232.460525 526.828253 
L 237.840813 532.542943 
L 243.2211 548.219842 
L 251.291531 567.131063 
L 253.981675 571.44315 
L 256.671819 573.004332 
L 259.361962 570.437143 
L 262.052106 567.205771 
L 270.122537 563.00748 
L 272.812681 554.602278 
L 275.502824 540.985968 
L 278.192968 529.277993 
L 288.953543 525.073264 
L 291.643687 526.475646 
L 294.33383 527.750696 
L 297.023974 527.508412 
L 299.714118 528.791491 
L 307.784549 527.727097 
L 310.474692 524.156376 
L 313.164836 512.15706 
L 315.85498 496.947308 
L 318.545123 482.870159 
L 326.615554 466.827201 
L 329.305698 453.81403 
L 331.995842 448.042318 
L 334.685985 436.005252 
L 337.376129 418.941292 
L 345.44656 405.585604 
L 348.136704 396.993672 
L 350.826848 395.671549 
L 364.277566 392.535621 
L 366.96771 395.93393 
L 369.657853 392.606451 
L 372.347997 391.071631 
L 375.038141 390.591688 
L 383.108572 399.796115 
L 385.798715 399.11825 
L 388.488859 399.433421 
L 391.179003 397.279176 
L 393.869146 401.223972 
L 401.939578 407.355154 
L 407.319865 416.587603 
L 410.010009 422.363612 
L 412.700152 428.522949 
L 420.770583 433.086443 
L 423.460727 433.126211 
L 426.150871 430.762572 
L 428.841014 431.350275 
L 431.531158 425.249417 
L 439.601589 420.523769 
L 442.291733 411.321437 
L 444.981876 401.621961 
L 447.67202 403.215958 
L 450.362164 414.249456 
L 458.432595 424.596253 
L 461.122739 430.16257 
L 463.812882 436.615895 
L 466.503026 435.263093 
L 469.19317 433.127822 
L 477.263601 428.309451 
L 479.953744 432.09358 
L 482.643888 435.364519 
L 485.334032 437.066337 
L 488.024175 439.81708 
L 496.094606 442.710878 
L 498.78475 447.499188 
L 501.474894 451.520992 
L 504.165037 450.694213 
L 506.855181 453.149588 
L 514.925612 457.805725 
L 517.615756 461.47959 
L 520.3059 462.843844 
L 522.996043 463.55109 
L 525.686187 467.976195 
L 533.756618 462.49084 
L 536.446762 457.099199 
L 539.136905 452.591538 
L 541.827049 445.602764 
L 544.517193 434.972112 
L 552.587624 425.939028 
L 555.277767 419.746125 
L 557.967911 421.956485 
L 560.658055 426.192427 
L 563.348198 423.510509 
L 571.41863 413.534506 
L 574.108773 401.042962 
L 576.798917 379.510559 
L 579.489061 369.539332 
L 582.179204 363.711304 
L 590.249635 357.716566 
L 592.939779 354.529258 
L 595.629923 348.85418 
L 598.320066 344.646932 
L 601.01021 342.65348 
L 609.080641 345.97266 
L 611.770785 347.829176 
L 617.151072 348.849731 
L 619.841216 348.557829 
L 627.911647 353.015897 
L 630.601791 364.027143 
L 633.291934 372.529823 
L 635.982078 378.449575 
L 638.672222 383.25597 
L 646.742653 385.675 
L 649.432796 387.224581 
L 652.12294 389.713387 
L 654.813084 394.03984 
L 657.503227 393.140924 
L 665.573658 394.050318 
L 670.953946 398.334357 
L 673.64409 397.302466 
L 676.334233 399.520564 
L 687.094808 395.281941 
L 689.784952 392.30592 
L 692.475095 383.305444 
L 695.165239 379.973194 
L 703.23567 382.66904 
L 705.925814 384.545936 
L 708.615957 383.436014 
L 711.306101 382.004984 
L 713.996245 383.906927 
L 722.066676 383.420732 
L 724.756819 379.430935 
L 730.137107 377.363835 
L 732.827251 378.121914 
L 740.897682 384.970524 
L 743.587825 386.760498 
L 746.277969 379.51279 
L 748.968113 376.200198 
L 751.658256 374.510012 
L 759.728687 371.316554 
L 762.418831 370.880123 
L 767.799118 378.361182 
L 770.489262 391.739643 
L 778.559693 400.155753 
L 781.249837 401.172198 
L 783.939981 401.535158 
L 786.630124 407.274059 
L 789.320268 416.1944 
L 797.390699 428.127888 
L 800.080843 434.616264 
L 802.770986 439.228077 
L 805.46113 437.047247 
L 808.151274 434.572578 
L 816.221705 439.070504 
L 818.911848 439.595895 
L 824.292136 450.844198 
L 826.982279 465.50196 
L 835.05271 476.009934 
L 837.742854 485.610398 
L 840.432998 488.790434 
L 843.123142 489.850016 
L 845.813285 492.436204 
L 856.57386 494.082663 
L 859.264004 495.412733 
L 861.954147 495.328396 
L 864.644291 496.600363 
L 872.714722 496.86332 
L 875.404866 496.167666 
L 880.785153 491.198728 
L 883.475297 488.106662 
L 891.545728 485.19968 
L 894.235872 480.020039 
L 896.926015 476.687109 
L 899.616159 474.013619 
L 902.306303 472.115821 
L 910.376734 470.771196 
L 915.757021 472.338788 
L 921.137308 471.180233 
L 929.207739 463.714013 
L 931.897883 456.540505 
L 934.588027 451.405066 
L 937.27817 448.940802 
L 939.968314 446.819641 
L 939.968314 446.819641 
" clip-path="url(#p7a0c1ffa5a)" style="fill: none; stroke: #1f77b4; stroke-width: 1.5; stroke-linecap: square"/>
   </g>
   <g id="line2d_82">
    <path d="M 81.812479 433.341408 
L 84.502623 433.6549 
L 87.192767 433.62486 
L 89.88291 433.772438 
L 92.573054 433.61071 
L 100.643485 434.350095 
L 103.333629 435.928945 
L 106.023772 437.345449 
L 111.40406 439.788128 
L 119.474491 440.664594 
L 122.164634 441.142733 
L 124.854778 440.995933 
L 127.544922 441.823135 
L 130.235066 443.596586 
L 138.305497 447.003809 
L 140.99564 449.794966 
L 146.375928 452.628631 
L 149.066071 455.215358 
L 157.136502 457.144418 
L 159.826646 457.991428 
L 162.51679 457.641224 
L 165.206933 455.947909 
L 167.897077 453.943809 
L 175.967508 452.826304 
L 178.657652 452.787156 
L 181.347796 454.187255 
L 184.037939 456.674693 
L 186.728083 460.944622 
L 194.798514 467.204267 
L 197.488658 473.642368 
L 200.178801 478.983293 
L 202.868945 483.122882 
L 205.559089 486.535724 
L 213.62952 489.972976 
L 216.319663 494.459563 
L 219.009807 498.140693 
L 221.699951 502.534766 
L 224.390094 506.635647 
L 232.460525 510.674705 
L 237.840813 515.048818 
L 240.530957 520.120819 
L 243.2211 525.741006 
L 251.291531 534.019468 
L 253.981675 541.50453 
L 256.671819 547.80471 
L 259.361962 552.331323 
L 262.052106 555.306279 
L 270.122537 556.846547 
L 272.812681 556.397687 
L 275.502824 553.315308 
L 278.192968 548.507801 
L 288.953543 543.820859 
L 291.643687 540.351796 
L 294.33383 537.831564 
L 297.023974 535.766926 
L 299.714118 534.371835 
L 307.784549 533.042884 
L 310.474692 531.265579 
L 313.164836 527.443869 
L 315.85498 521.34455 
L 318.545123 513.649664 
L 326.615554 504.285164 
L 329.305698 494.190931 
L 331.995842 484.961204 
L 334.685985 475.170009 
L 337.376129 463.924262 
L 345.44656 452.256528 
L 348.136704 441.203954 
L 350.826848 432.097472 
L 364.277566 424.1851 
L 366.96771 418.534866 
L 369.657853 413.349182 
L 372.347997 408.893672 
L 375.038141 405.233275 
L 383.108572 404.145843 
L 385.798715 403.140324 
L 388.488859 402.398944 
L 391.179003 401.37499 
L 393.869146 401.344786 
L 401.939578 402.54686 
L 407.319865 405.355009 
L 410.010009 408.756729 
L 412.700152 412.709973 
L 420.770583 416.785267 
L 423.460727 420.053456 
L 426.150871 422.195279 
L 428.841014 424.026278 
L 431.531158 424.270906 
L 439.601589 423.521479 
L 442.291733 421.081471 
L 444.981876 417.189569 
L 447.67202 414.394847 
L 450.362164 414.365769 
L 458.432595 416.411865 
L 461.122739 419.162006 
L 463.812882 422.652784 
L 466.503026 425.174846 
L 469.19317 426.765441 
L 477.263601 427.074243 
L 479.953744 428.078111 
L 485.334032 431.041581 
L 488.024175 432.796681 
L 496.094606 434.779521 
L 498.78475 437.323454 
L 501.474894 440.162962 
L 506.855181 444.445287 
L 514.925612 447.117375 
L 517.615756 449.989818 
L 520.3059 452.560623 
L 522.996043 454.758716 
L 525.686187 457.402212 
L 533.756618 458.419938 
L 536.446762 458.15579 
L 539.136905 457.04294 
L 541.827049 454.754904 
L 544.517193 450.798346 
L 552.587624 445.826482 
L 555.277767 440.610411 
L 557.967911 436.879626 
L 563.348198 432.495851 
L 571.41863 428.703582 
L 574.108773 423.171458 
L 582.179204 397.109692 
L 590.249635 389.231067 
L 595.629923 375.6034 
L 598.320066 369.412107 
L 601.01021 364.060381 
L 609.080641 360.442837 
L 611.770785 357.920105 
L 614.460928 356.001703 
L 617.151072 354.571309 
L 619.841216 353.368613 
L 627.911647 353.29807 
L 630.601791 355.443885 
L 633.291934 358.861072 
L 638.672222 366.874212 
L 646.742653 370.63437 
L 654.813084 380.491654 
L 657.503227 383.021508 
L 665.573658 385.22727 
L 670.953946 387.848687 
L 676.334233 391.695667 
L 687.094808 392.412922 
L 689.784952 392.391522 
L 692.475095 390.574306 
L 695.165239 388.454084 
L 703.23567 387.297075 
L 708.615957 386.084681 
L 711.306101 385.268741 
L 713.996245 384.996378 
L 722.066676 384.681249 
L 724.756819 383.631186 
L 730.137107 382.377716 
L 732.827251 381.526556 
L 740.897682 382.215349 
L 743.587825 383.124379 
L 746.277969 382.402061 
L 751.658256 379.831353 
L 759.728687 378.128393 
L 762.418831 376.678739 
L 765.108975 376.278706 
L 767.799118 376.695201 
L 770.489262 379.704089 
L 778.559693 383.794422 
L 781.249837 387.269977 
L 783.939981 390.123013 
L 786.630124 393.553222 
L 789.320268 398.081458 
L 797.390699 404.090744 
L 800.080843 410.195848 
L 802.770986 416.002294 
L 805.46113 420.211284 
L 808.151274 423.083543 
L 816.221705 426.280935 
L 818.911848 428.943927 
L 824.292136 433.323981 
L 826.982279 439.759577 
L 835.05271 447.009648 
L 837.742854 454.729798 
L 840.432998 461.541925 
L 843.123142 467.203544 
L 845.813285 472.250076 
L 853.883716 476.547697 
L 856.57386 480.05469 
L 859.264004 483.126299 
L 861.954147 485.566718 
L 864.644291 487.773447 
L 872.714722 489.591422 
L 875.404866 490.906671 
L 880.785153 490.965082 
L 883.475297 490.393398 
L 891.545728 489.354655 
L 894.235872 487.487731 
L 902.306303 480.875012 
L 915.757021 477.551156 
L 921.137308 475.350997 
L 929.207739 473.0236 
L 931.897883 469.726981 
L 934.588027 466.062598 
L 937.27817 462.638239 
L 939.968314 459.474519 
L 939.968314 459.474519 
" clip-path="url(#p7a0c1ffa5a)" style="fill: none; stroke: #ff7f0e; stroke-width: 1.5; stroke-linecap: square"/>
   </g>
   <g id="patch_9">
    <path d="M 38.904688 584.521875 
L 38.904688 331.135938 
" style="fill: none; stroke: #000000; stroke-width: 0.8; stroke-linejoin: miter; stroke-linecap: square"/>
   </g>
   <g id="patch_10">
    <path d="M 982.876106 584.521875 
L 982.876106 331.135938 
" style="fill: none; stroke: #000000; stroke-width: 0.8; stroke-linejoin: miter; stroke-linecap: square"/>
   </g>
   <g id="patch_11">
    <path d="M 38.904687 584.521875 
L 982.876106 584.521875 
" style="fill: none; stroke: #000000; stroke-width: 0.8; stroke-linejoin: miter; stroke-linecap: square"/>
   </g>
   <g id="patch_12">
    <path d="M 38.904687 331.135938 
L 982.876106 331.135938 
" style="fill: none; stroke: #000000; stroke-width: 0.8; stroke-linejoin: miter; stroke-linecap: square"/>
   </g>
   <g id="text_30">
    <!-- MACD -->
    <g transform="translate(492.904459 325.135938)scale(0.12 -0.12)">
     <defs>
      <path id="DejaVuSans-44" d="M 1259 4147 
L 1259 519 
L 2022 519 
Q 2988 519 3436 956 
Q 3884 1394 3884 2338 
Q 3884 3275 3436 3711 
Q 2988 4147 2022 4147 
L 1259 4147 
z
M 628 4666 
L 1925 4666 
Q 3281 4666 3915 4102 
Q 4550 3538 4550 2338 
Q 4550 1131 3912 565 
Q 3275 0 1925 0 
L 628 0 
L 628 4666 
z
" transform="scale(0.015625)"/>
     </defs>
     <use xlink:href="#DejaVuSans-4d"/>
     <use xlink:href="#DejaVuSans-41" x="86.279297"/>
     <use xlink:href="#DejaVuSans-43" x="152.9375"/>
     <use xlink:href="#DejaVuSans-44" x="222.761719"/>
    </g>
   </g>
   <g id="legend_2">
    <g id="patch_13">
     <path d="M 913.899543 368.492188 
L 975.876106 368.492188 
Q 977.876106 368.492188 977.876106 366.492188 
L 977.876106 338.135938 
Q 977.876106 336.135938 975.876106 336.135938 
L 913.899543 336.135938 
Q 911.899543 336.135938 911.899543 338.135938 
L 911.899543 366.492188 
Q 911.899543 368.492188 913.899543 368.492188 
z
" style="fill: #ffffff; opacity: 0.8; stroke: #cccccc; stroke-linejoin: miter"/>
    </g>
    <g id="line2d_83">
     <path d="M 915.899543 344.234375 
L 925.899543 344.234375 
L 935.899543 344.234375 
" style="fill: none; stroke: #1f77b4; stroke-width: 1.5; stroke-linecap: square"/>
    </g>
    <g id="text_31">
     <!-- MACD -->
     <g transform="translate(943.899543 347.734375)scale(0.1 -0.1)">
      <use xlink:href="#DejaVuSans-4d"/>
      <use xlink:href="#DejaVuSans-41" x="86.279297"/>
      <use xlink:href="#DejaVuSans-43" x="152.9375"/>
      <use xlink:href="#DejaVuSans-44" x="222.761719"/>
     </g>
    </g>
    <g id="line2d_84">
     <path d="M 915.899543 358.9125 
L 925.899543 358.9125 
L 935.899543 358.9125 
" style="fill: none; stroke: #ff7f0e; stroke-width: 1.5; stroke-linecap: square"/>
    </g>
    <g id="text_32">
     <!-- SIG -->
     <g transform="translate(943.899543 362.4125)scale(0.1 -0.1)">
      <defs>
       <path id="DejaVuSans-49" d="M 628 4666 
L 1259 4666 
L 1259 0 
L 628 0 
L 628 4666 
z
" transform="scale(0.015625)"/>
       <path id="DejaVuSans-47" d="M 3809 666 
L 3809 1919 
L 2778 1919 
L 2778 2438 
L 4434 2438 
L 4434 434 
Q 4069 175 3628 42 
Q 3188 -91 2688 -91 
Q 1594 -91 976 548 
Q 359 1188 359 2328 
Q 359 3472 976 4111 
Q 1594 4750 2688 4750 
Q 3144 4750 3555 4637 
Q 3966 4525 4313 4306 
L 4313 3634 
Q 3963 3931 3569 4081 
Q 3175 4231 2741 4231 
Q 1884 4231 1454 3753 
Q 1025 3275 1025 2328 
Q 1025 1384 1454 906 
Q 1884 428 2741 428 
Q 3075 428 3337 486 
Q 3600 544 3809 666 
z
" transform="scale(0.015625)"/>
      </defs>
      <use xlink:href="#DejaVuSans-53"/>
      <use xlink:href="#DejaVuSans-49" x="63.476562"/>
      <use xlink:href="#DejaVuSans-47" x="92.96875"/>
     </g>
    </g>
   </g>
  </g>
  <g id="text_33">
   <!-- Godrej Consumer Products Limited -->
   <g transform="translate(399.586875 21.358125)scale(0.12 -0.12)">
    <defs>
     <path id="DejaVuSans-64" d="M 2906 2969 
L 2906 4863 
L 3481 4863 
L 3481 0 
L 2906 0 
L 2906 525 
Q 2725 213 2448 61 
Q 2172 -91 1784 -91 
Q 1150 -91 751 415 
Q 353 922 353 1747 
Q 353 2572 751 3078 
Q 1150 3584 1784 3584 
Q 2172 3584 2448 3432 
Q 2725 3281 2906 2969 
z
M 947 1747 
Q 947 1113 1208 752 
Q 1469 391 1925 391 
Q 2381 391 2643 752 
Q 2906 1113 2906 1747 
Q 2906 2381 2643 2742 
Q 2381 3103 1925 3103 
Q 1469 3103 1208 2742 
Q 947 2381 947 1747 
z
" transform="scale(0.015625)"/>
     <path id="DejaVuSans-6a" d="M 603 3500 
L 1178 3500 
L 1178 -63 
Q 1178 -731 923 -1031 
Q 669 -1331 103 -1331 
L -116 -1331 
L -116 -844 
L 38 -844 
Q 366 -844 484 -692 
Q 603 -541 603 -63 
L 603 3500 
z
M 603 4863 
L 1178 4863 
L 1178 4134 
L 603 4134 
L 603 4863 
z
" transform="scale(0.015625)"/>
     <path id="DejaVuSans-75" d="M 544 1381 
L 544 3500 
L 1119 3500 
L 1119 1403 
Q 1119 906 1312 657 
Q 1506 409 1894 409 
Q 2359 409 2629 706 
Q 2900 1003 2900 1516 
L 2900 3500 
L 3475 3500 
L 3475 0 
L 2900 0 
L 2900 538 
Q 2691 219 2414 64 
Q 2138 -91 1772 -91 
Q 1169 -91 856 284 
Q 544 659 544 1381 
z
M 1991 3584 
L 1991 3584 
z
" transform="scale(0.015625)"/>
     <path id="DejaVuSans-6d" d="M 3328 2828 
Q 3544 3216 3844 3400 
Q 4144 3584 4550 3584 
Q 5097 3584 5394 3201 
Q 5691 2819 5691 2113 
L 5691 0 
L 5113 0 
L 5113 2094 
Q 5113 2597 4934 2840 
Q 4756 3084 4391 3084 
Q 3944 3084 3684 2787 
Q 3425 2491 3425 1978 
L 3425 0 
L 2847 0 
L 2847 2094 
Q 2847 2600 2669 2842 
Q 2491 3084 2119 3084 
Q 1678 3084 1418 2786 
Q 1159 2488 1159 1978 
L 1159 0 
L 581 0 
L 581 3500 
L 1159 3500 
L 1159 2956 
Q 1356 3278 1631 3431 
Q 1906 3584 2284 3584 
Q 2666 3584 2933 3390 
Q 3200 3197 3328 2828 
z
" transform="scale(0.015625)"/>
     <path id="DejaVuSans-74" d="M 1172 4494 
L 1172 3500 
L 2356 3500 
L 2356 3053 
L 1172 3053 
L 1172 1153 
Q 1172 725 1289 603 
Q 1406 481 1766 481 
L 2356 481 
L 2356 0 
L 1766 0 
Q 1100 0 847 248 
Q 594 497 594 1153 
L 594 3053 
L 172 3053 
L 172 3500 
L 594 3500 
L 594 4494 
L 1172 4494 
z
" transform="scale(0.015625)"/>
    </defs>
    <use xlink:href="#DejaVuSans-47"/>
    <use xlink:href="#DejaVuSans-6f" x="77.490234"/>
    <use xlink:href="#DejaVuSans-64" x="138.671875"/>
    <use xlink:href="#DejaVuSans-72" x="202.148438"/>
    <use xlink:href="#DejaVuSans-65" x="241.011719"/>
    <use xlink:href="#DejaVuSans-6a" x="302.535156"/>
    <use xlink:href="#DejaVuSans-20" x="330.318359"/>
    <use xlink:href="#DejaVuSans-43" x="362.105469"/>
    <use xlink:href="#DejaVuSans-6f" x="431.929688"/>
    <use xlink:href="#DejaVuSans-6e" x="493.111328"/>
    <use xlink:href="#DejaVuSans-73" x="556.490234"/>
    <use xlink:href="#DejaVuSans-75" x="608.589844"/>
    <use xlink:href="#DejaVuSans-6d" x="671.96875"/>
    <use xlink:href="#DejaVuSans-65" x="769.380859"/>
    <use xlink:href="#DejaVuSans-72" x="830.904297"/>
    <use xlink:href="#DejaVuSans-20" x="872.017578"/>
    <use xlink:href="#DejaVuSans-50" x="903.804688"/>
    <use xlink:href="#DejaVuSans-72" x="962.357422"/>
    <use xlink:href="#DejaVuSans-6f" x="1001.220703"/>
    <use xlink:href="#DejaVuSans-64" x="1062.402344"/>
    <use xlink:href="#DejaVuSans-75" x="1125.878906"/>
    <use xlink:href="#DejaVuSans-63" x="1189.257812"/>
    <use xlink:href="#DejaVuSans-74" x="1244.238281"/>
    <use xlink:href="#DejaVuSans-73" x="1283.447266"/>
    <use xlink:href="#DejaVuSans-20" x="1335.546875"/>
    <use xlink:href="#DejaVuSans-4c" x="1367.333984"/>
    <use xlink:href="#DejaVuSans-69" x="1423.046875"/>
    <use xlink:href="#DejaVuSans-6d" x="1450.830078"/>
    <use xlink:href="#DejaVuSans-69" x="1548.242188"/>
    <use xlink:href="#DejaVuSans-74" x="1576.025391"/>
    <use xlink:href="#DejaVuSans-65" x="1615.234375"/>
    <use xlink:href="#DejaVuSans-64" x="1676.757812"/>
   </g>
  </g>
 </g>
 <defs>
  <clipPath id="p2bcee0fc29">
   <rect x="38.904688" y="48.331875" width="943.971418" height="253.385938"/>
  </clipPath>
  <clipPath id="p7a0c1ffa5a">
   <rect x="38.904688" y="331.135938" width="943.971418" height="253.385937"/>
  </clipPath>
 </defs>
</svg>
