<?xml version="1.0" encoding="utf-8" standalone="no"?>
<!DOCTYPE svg PUBLIC "-//W3C//DTD SVG 1.1//EN"
  "http://www.w3.org/Graphics/SVG/1.1/DTD/svg11.dtd">
<svg xmlns:xlink="http://www.w3.org/1999/xlink" width="1008pt" height="612pt" viewBox="0 0 1008 612" xmlns="http://www.w3.org/2000/svg" version="1.1">
 <metadata>
  <rdf:RDF xmlns:dc="http://purl.org/dc/elements/1.1/" xmlns:cc="http://creativecommons.org/ns#" xmlns:rdf="http://www.w3.org/1999/02/22-rdf-syntax-ns#">
   <cc:Work>
    <dc:type rdf:resource="http://purl.org/dc/dcmitype/StillImage"/>
    <dc:date>2022-11-20T19:47:18.930746</dc:date>
    <dc:format>image/svg+xml</dc:format>
    <dc:creator>
     <cc:Agent>
      <dc:title>Matplotlib v3.5.2, https://matplotlib.org/</dc:title>
     </cc:Agent>
    </dc:creator>
   </cc:Work>
  </rdf:RDF>
 </metadata>
 <defs>
  <style type="text/css">*{stroke-linejoin: round; stroke-linecap: butt}</style>
 </defs>
 <g id="figure_1">
  <g id="patch_1">
   <path d="M 0 612 
L 1008 612 
L 1008 0 
L 0 0 
z
" style="fill: #ffffff"/>
  </g>
  <g id="axes_1">
   <g id="patch_2">
    <path d="M 43.25 301.717812 
L 982.876106 301.717812 
L 982.876106 48.331875 
L 43.25 48.331875 
z
" style="fill: #ffffff"/>
   </g>
   <g id="matplotlib.axis_1">
    <g id="xtick_1">
     <g id="line2d_1">
      <path d="M 80.604757 301.717812 
L 80.604757 48.331875 
" clip-path="url(#p1b74485cb0)" style="fill: none; stroke-dasharray: 2.96,1.28; stroke-dashoffset: 0; stroke: #b0b0b0; stroke-width: 0.8"/>
     </g>
     <g id="line2d_2">
      <defs>
       <path id="m64024007fe" d="M 0 0 
L 0 3.5 
" style="stroke: #000000; stroke-width: 0.8"/>
      </defs>
      <g>
       <use xlink:href="#m64024007fe" x="80.604757" y="301.717812" style="stroke: #000000; stroke-width: 0.8"/>
      </g>
     </g>
    </g>
    <g id="xtick_2">
     <g id="line2d_3">
      <path d="M 163.615328 301.717812 
L 163.615328 48.331875 
" clip-path="url(#p1b74485cb0)" style="fill: none; stroke-dasharray: 2.96,1.28; stroke-dashoffset: 0; stroke: #b0b0b0; stroke-width: 0.8"/>
     </g>
     <g id="line2d_4">
      <g>
       <use xlink:href="#m64024007fe" x="163.615328" y="301.717812" style="stroke: #000000; stroke-width: 0.8"/>
      </g>
     </g>
    </g>
    <g id="xtick_3">
     <g id="line2d_5">
      <path d="M 238.592617 301.717812 
L 238.592617 48.331875 
" clip-path="url(#p1b74485cb0)" style="fill: none; stroke-dasharray: 2.96,1.28; stroke-dashoffset: 0; stroke: #b0b0b0; stroke-width: 0.8"/>
     </g>
     <g id="line2d_6">
      <g>
       <use xlink:href="#m64024007fe" x="238.592617" y="301.717812" style="stroke: #000000; stroke-width: 0.8"/>
      </g>
     </g>
    </g>
    <g id="xtick_4">
     <g id="line2d_7">
      <path d="M 321.603188 301.717812 
L 321.603188 48.331875 
" clip-path="url(#p1b74485cb0)" style="fill: none; stroke-dasharray: 2.96,1.28; stroke-dashoffset: 0; stroke: #b0b0b0; stroke-width: 0.8"/>
     </g>
     <g id="line2d_8">
      <g>
       <use xlink:href="#m64024007fe" x="321.603188" y="301.717812" style="stroke: #000000; stroke-width: 0.8"/>
      </g>
     </g>
    </g>
    <g id="xtick_5">
     <g id="line2d_9">
      <path d="M 401.935999 301.717812 
L 401.935999 48.331875 
" clip-path="url(#p1b74485cb0)" style="fill: none; stroke-dasharray: 2.96,1.28; stroke-dashoffset: 0; stroke: #b0b0b0; stroke-width: 0.8"/>
     </g>
     <g id="line2d_10">
      <g>
       <use xlink:href="#m64024007fe" x="401.935999" y="301.717812" style="stroke: #000000; stroke-width: 0.8"/>
      </g>
     </g>
    </g>
    <g id="xtick_6">
     <g id="line2d_11">
      <path d="M 484.946569 301.717812 
L 484.946569 48.331875 
" clip-path="url(#p1b74485cb0)" style="fill: none; stroke-dasharray: 2.96,1.28; stroke-dashoffset: 0; stroke: #b0b0b0; stroke-width: 0.8"/>
     </g>
     <g id="line2d_12">
      <g>
       <use xlink:href="#m64024007fe" x="484.946569" y="301.717812" style="stroke: #000000; stroke-width: 0.8"/>
      </g>
     </g>
    </g>
    <g id="xtick_7">
     <g id="line2d_13">
      <path d="M 565.27938 301.717812 
L 565.27938 48.331875 
" clip-path="url(#p1b74485cb0)" style="fill: none; stroke-dasharray: 2.96,1.28; stroke-dashoffset: 0; stroke: #b0b0b0; stroke-width: 0.8"/>
     </g>
     <g id="line2d_14">
      <g>
       <use xlink:href="#m64024007fe" x="565.27938" y="301.717812" style="stroke: #000000; stroke-width: 0.8"/>
      </g>
     </g>
    </g>
    <g id="xtick_8">
     <g id="line2d_15">
      <path d="M 648.28995 301.717812 
L 648.28995 48.331875 
" clip-path="url(#p1b74485cb0)" style="fill: none; stroke-dasharray: 2.96,1.28; stroke-dashoffset: 0; stroke: #b0b0b0; stroke-width: 0.8"/>
     </g>
     <g id="line2d_16">
      <g>
       <use xlink:href="#m64024007fe" x="648.28995" y="301.717812" style="stroke: #000000; stroke-width: 0.8"/>
      </g>
     </g>
    </g>
    <g id="xtick_9">
     <g id="line2d_17">
      <path d="M 731.300521 301.717812 
L 731.300521 48.331875 
" clip-path="url(#p1b74485cb0)" style="fill: none; stroke-dasharray: 2.96,1.28; stroke-dashoffset: 0; stroke: #b0b0b0; stroke-width: 0.8"/>
     </g>
     <g id="line2d_18">
      <g>
       <use xlink:href="#m64024007fe" x="731.300521" y="301.717812" style="stroke: #000000; stroke-width: 0.8"/>
      </g>
     </g>
    </g>
    <g id="xtick_10">
     <g id="line2d_19">
      <path d="M 811.633332 301.717812 
L 811.633332 48.331875 
" clip-path="url(#p1b74485cb0)" style="fill: none; stroke-dasharray: 2.96,1.28; stroke-dashoffset: 0; stroke: #b0b0b0; stroke-width: 0.8"/>
     </g>
     <g id="line2d_20">
      <g>
       <use xlink:href="#m64024007fe" x="811.633332" y="301.717812" style="stroke: #000000; stroke-width: 0.8"/>
      </g>
     </g>
    </g>
    <g id="xtick_11">
     <g id="line2d_21">
      <path d="M 894.643902 301.717812 
L 894.643902 48.331875 
" clip-path="url(#p1b74485cb0)" style="fill: none; stroke-dasharray: 2.96,1.28; stroke-dashoffset: 0; stroke: #b0b0b0; stroke-width: 0.8"/>
     </g>
     <g id="line2d_22">
      <g>
       <use xlink:href="#m64024007fe" x="894.643902" y="301.717812" style="stroke: #000000; stroke-width: 0.8"/>
      </g>
     </g>
    </g>
    <g id="xtick_12">
     <g id="line2d_23">
      <path d="M 974.976713 301.717812 
L 974.976713 48.331875 
" clip-path="url(#p1b74485cb0)" style="fill: none; stroke-dasharray: 2.96,1.28; stroke-dashoffset: 0; stroke: #b0b0b0; stroke-width: 0.8"/>
     </g>
     <g id="line2d_24">
      <g>
       <use xlink:href="#m64024007fe" x="974.976713" y="301.717812" style="stroke: #000000; stroke-width: 0.8"/>
      </g>
     </g>
    </g>
   </g>
   <g id="matplotlib.axis_2">
    <g id="ytick_1">
     <g id="line2d_25">
      <path d="M 43.25 269.424197 
L 982.876106 269.424197 
" clip-path="url(#p1b74485cb0)" style="fill: none; stroke-dasharray: 2.96,1.28; stroke-dashoffset: 0; stroke: #b0b0b0; stroke-width: 0.8"/>
     </g>
     <g id="line2d_26">
      <defs>
       <path id="m56f2784e0e" d="M 0 0 
L -3.5 0 
" style="stroke: #000000; stroke-width: 0.8"/>
      </defs>
      <g>
       <use xlink:href="#m56f2784e0e" x="43.25" y="269.424197" style="stroke: #000000; stroke-width: 0.8"/>
      </g>
     </g>
     <g id="text_1">
      <!-- 1100 -->
      <g transform="translate(10.8 273.223416)scale(0.1 -0.1)">
       <defs>
        <path id="DejaVuSans-31" d="M 794 531 
L 1825 531 
L 1825 4091 
L 703 3866 
L 703 4441 
L 1819 4666 
L 2450 4666 
L 2450 531 
L 3481 531 
L 3481 0 
L 794 0 
L 794 531 
z
" transform="scale(0.015625)"/>
        <path id="DejaVuSans-30" d="M 2034 4250 
Q 1547 4250 1301 3770 
Q 1056 3291 1056 2328 
Q 1056 1369 1301 889 
Q 1547 409 2034 409 
Q 2525 409 2770 889 
Q 3016 1369 3016 2328 
Q 3016 3291 2770 3770 
Q 2525 4250 2034 4250 
z
M 2034 4750 
Q 2819 4750 3233 4129 
Q 3647 3509 3647 2328 
Q 3647 1150 3233 529 
Q 2819 -91 2034 -91 
Q 1250 -91 836 529 
Q 422 1150 422 2328 
Q 422 3509 836 4129 
Q 1250 4750 2034 4750 
z
" transform="scale(0.015625)"/>
       </defs>
       <use xlink:href="#DejaVuSans-31"/>
       <use xlink:href="#DejaVuSans-31" x="63.623047"/>
       <use xlink:href="#DejaVuSans-30" x="127.246094"/>
       <use xlink:href="#DejaVuSans-30" x="190.869141"/>
      </g>
     </g>
    </g>
    <g id="ytick_2">
     <g id="line2d_27">
      <path d="M 43.25 235.196731 
L 982.876106 235.196731 
" clip-path="url(#p1b74485cb0)" style="fill: none; stroke-dasharray: 2.96,1.28; stroke-dashoffset: 0; stroke: #b0b0b0; stroke-width: 0.8"/>
     </g>
     <g id="line2d_28">
      <g>
       <use xlink:href="#m56f2784e0e" x="43.25" y="235.196731" style="stroke: #000000; stroke-width: 0.8"/>
      </g>
     </g>
     <g id="text_2">
      <!-- 1150 -->
      <g transform="translate(10.8 238.995949)scale(0.1 -0.1)">
       <defs>
        <path id="DejaVuSans-35" d="M 691 4666 
L 3169 4666 
L 3169 4134 
L 1269 4134 
L 1269 2991 
Q 1406 3038 1543 3061 
Q 1681 3084 1819 3084 
Q 2600 3084 3056 2656 
Q 3513 2228 3513 1497 
Q 3513 744 3044 326 
Q 2575 -91 1722 -91 
Q 1428 -91 1123 -41 
Q 819 9 494 109 
L 494 744 
Q 775 591 1075 516 
Q 1375 441 1709 441 
Q 2250 441 2565 725 
Q 2881 1009 2881 1497 
Q 2881 1984 2565 2268 
Q 2250 2553 1709 2553 
Q 1456 2553 1204 2497 
Q 953 2441 691 2322 
L 691 4666 
z
" transform="scale(0.015625)"/>
       </defs>
       <use xlink:href="#DejaVuSans-31"/>
       <use xlink:href="#DejaVuSans-31" x="63.623047"/>
       <use xlink:href="#DejaVuSans-35" x="127.246094"/>
       <use xlink:href="#DejaVuSans-30" x="190.869141"/>
      </g>
     </g>
    </g>
    <g id="ytick_3">
     <g id="line2d_29">
      <path d="M 43.25 200.969264 
L 982.876106 200.969264 
" clip-path="url(#p1b74485cb0)" style="fill: none; stroke-dasharray: 2.96,1.28; stroke-dashoffset: 0; stroke: #b0b0b0; stroke-width: 0.8"/>
     </g>
     <g id="line2d_30">
      <g>
       <use xlink:href="#m56f2784e0e" x="43.25" y="200.969264" style="stroke: #000000; stroke-width: 0.8"/>
      </g>
     </g>
     <g id="text_3">
      <!-- 1200 -->
      <g transform="translate(10.8 204.768482)scale(0.1 -0.1)">
       <defs>
        <path id="DejaVuSans-32" d="M 1228 531 
L 3431 531 
L 3431 0 
L 469 0 
L 469 531 
Q 828 903 1448 1529 
Q 2069 2156 2228 2338 
Q 2531 2678 2651 2914 
Q 2772 3150 2772 3378 
Q 2772 3750 2511 3984 
Q 2250 4219 1831 4219 
Q 1534 4219 1204 4116 
Q 875 4013 500 3803 
L 500 4441 
Q 881 4594 1212 4672 
Q 1544 4750 1819 4750 
Q 2544 4750 2975 4387 
Q 3406 4025 3406 3419 
Q 3406 3131 3298 2873 
Q 3191 2616 2906 2266 
Q 2828 2175 2409 1742 
Q 1991 1309 1228 531 
z
" transform="scale(0.015625)"/>
       </defs>
       <use xlink:href="#DejaVuSans-31"/>
       <use xlink:href="#DejaVuSans-32" x="63.623047"/>
       <use xlink:href="#DejaVuSans-30" x="127.246094"/>
       <use xlink:href="#DejaVuSans-30" x="190.869141"/>
      </g>
     </g>
    </g>
    <g id="ytick_4">
     <g id="line2d_31">
      <path d="M 43.25 166.741797 
L 982.876106 166.741797 
" clip-path="url(#p1b74485cb0)" style="fill: none; stroke-dasharray: 2.96,1.28; stroke-dashoffset: 0; stroke: #b0b0b0; stroke-width: 0.8"/>
     </g>
     <g id="line2d_32">
      <g>
       <use xlink:href="#m56f2784e0e" x="43.25" y="166.741797" style="stroke: #000000; stroke-width: 0.8"/>
      </g>
     </g>
     <g id="text_4">
      <!-- 1250 -->
      <g transform="translate(10.8 170.541016)scale(0.1 -0.1)">
       <use xlink:href="#DejaVuSans-31"/>
       <use xlink:href="#DejaVuSans-32" x="63.623047"/>
       <use xlink:href="#DejaVuSans-35" x="127.246094"/>
       <use xlink:href="#DejaVuSans-30" x="190.869141"/>
      </g>
     </g>
    </g>
    <g id="ytick_5">
     <g id="line2d_33">
      <path d="M 43.25 132.51433 
L 982.876106 132.51433 
" clip-path="url(#p1b74485cb0)" style="fill: none; stroke-dasharray: 2.96,1.28; stroke-dashoffset: 0; stroke: #b0b0b0; stroke-width: 0.8"/>
     </g>
     <g id="line2d_34">
      <g>
       <use xlink:href="#m56f2784e0e" x="43.25" y="132.51433" style="stroke: #000000; stroke-width: 0.8"/>
      </g>
     </g>
     <g id="text_5">
      <!-- 1300 -->
      <g transform="translate(10.8 136.313549)scale(0.1 -0.1)">
       <defs>
        <path id="DejaVuSans-33" d="M 2597 2516 
Q 3050 2419 3304 2112 
Q 3559 1806 3559 1356 
Q 3559 666 3084 287 
Q 2609 -91 1734 -91 
Q 1441 -91 1130 -33 
Q 819 25 488 141 
L 488 750 
Q 750 597 1062 519 
Q 1375 441 1716 441 
Q 2309 441 2620 675 
Q 2931 909 2931 1356 
Q 2931 1769 2642 2001 
Q 2353 2234 1838 2234 
L 1294 2234 
L 1294 2753 
L 1863 2753 
Q 2328 2753 2575 2939 
Q 2822 3125 2822 3475 
Q 2822 3834 2567 4026 
Q 2313 4219 1838 4219 
Q 1578 4219 1281 4162 
Q 984 4106 628 3988 
L 628 4550 
Q 988 4650 1302 4700 
Q 1616 4750 1894 4750 
Q 2613 4750 3031 4423 
Q 3450 4097 3450 3541 
Q 3450 3153 3228 2886 
Q 3006 2619 2597 2516 
z
" transform="scale(0.015625)"/>
       </defs>
       <use xlink:href="#DejaVuSans-31"/>
       <use xlink:href="#DejaVuSans-33" x="63.623047"/>
       <use xlink:href="#DejaVuSans-30" x="127.246094"/>
       <use xlink:href="#DejaVuSans-30" x="190.869141"/>
      </g>
     </g>
    </g>
    <g id="ytick_6">
     <g id="line2d_35">
      <path d="M 43.25 98.286863 
L 982.876106 98.286863 
" clip-path="url(#p1b74485cb0)" style="fill: none; stroke-dasharray: 2.96,1.28; stroke-dashoffset: 0; stroke: #b0b0b0; stroke-width: 0.8"/>
     </g>
     <g id="line2d_36">
      <g>
       <use xlink:href="#m56f2784e0e" x="43.25" y="98.286863" style="stroke: #000000; stroke-width: 0.8"/>
      </g>
     </g>
     <g id="text_6">
      <!-- 1350 -->
      <g transform="translate(10.8 102.086082)scale(0.1 -0.1)">
       <use xlink:href="#DejaVuSans-31"/>
       <use xlink:href="#DejaVuSans-33" x="63.623047"/>
       <use xlink:href="#DejaVuSans-35" x="127.246094"/>
       <use xlink:href="#DejaVuSans-30" x="190.869141"/>
      </g>
     </g>
    </g>
    <g id="ytick_7">
     <g id="line2d_37">
      <path d="M 43.25 64.059396 
L 982.876106 64.059396 
" clip-path="url(#p1b74485cb0)" style="fill: none; stroke-dasharray: 2.96,1.28; stroke-dashoffset: 0; stroke: #b0b0b0; stroke-width: 0.8"/>
     </g>
     <g id="line2d_38">
      <g>
       <use xlink:href="#m56f2784e0e" x="43.25" y="64.059396" style="stroke: #000000; stroke-width: 0.8"/>
      </g>
     </g>
     <g id="text_7">
      <!-- 1400 -->
      <g transform="translate(10.8 67.858615)scale(0.1 -0.1)">
       <defs>
        <path id="DejaVuSans-34" d="M 2419 4116 
L 825 1625 
L 2419 1625 
L 2419 4116 
z
M 2253 4666 
L 3047 4666 
L 3047 1625 
L 3713 1625 
L 3713 1100 
L 3047 1100 
L 3047 0 
L 2419 0 
L 2419 1100 
L 313 1100 
L 313 1709 
L 2253 4666 
z
" transform="scale(0.015625)"/>
       </defs>
       <use xlink:href="#DejaVuSans-31"/>
       <use xlink:href="#DejaVuSans-34" x="63.623047"/>
       <use xlink:href="#DejaVuSans-30" x="127.246094"/>
       <use xlink:href="#DejaVuSans-30" x="190.869141"/>
      </g>
     </g>
    </g>
   </g>
   <g id="line2d_39">
    <path d="M 85.960278 59.849418 
L 88.638038 63.169482 
L 91.315798 63.990941 
L 93.993559 73.471949 
L 96.671319 85.691155 
L 104.7046 97.191584 
L 107.38236 92.913151 
L 110.060121 94.282249 
L 112.737881 114.099953 
L 115.415641 101.812292 
L 123.448922 112.628172 
L 126.126683 121.938043 
L 128.804443 126.524523 
L 131.482203 125.463472 
L 134.159964 172.526239 
L 142.193245 214.694478 
L 144.871005 211.648233 
L 150.226526 238.44834 
L 152.904286 240.501988 
L 160.937567 211.648233 
L 163.615328 209.320766 
L 166.293088 194.157998 
L 168.970848 196.417011 
L 171.648609 194.431817 
L 179.68189 204.426238 
L 182.35965 210.005315 
L 185.03741 184.608534 
L 187.715171 187.757461 
L 190.392931 218.254134 
L 198.426212 231.055207 
L 201.103972 207.951667 
L 203.781733 196.588148 
L 206.459493 196.211646 
L 209.137254 200.07935 
L 217.170535 200.182032 
L 219.848295 198.607568 
L 222.526055 200.113577 
L 225.203816 236.976559 
L 227.881576 222.601023 
L 235.914857 210.758319 
L 241.270378 235.983962 
L 243.948138 266.446408 
L 246.625898 280.376987 
L 254.659179 288.557351 
L 257.33694 286.298339 
L 260.0147 274.455635 
L 262.69246 250.462181 
L 265.370221 274.489863 
L 273.403502 272.36776 
L 276.081262 281.711858 
L 278.759023 244.540829 
L 281.436783 237.181924 
L 292.147824 243.99319 
L 294.825585 252.344691 
L 297.503345 241.118082 
L 300.181105 237.832246 
L 302.858866 236.189327 
L 310.892147 248.85349 
L 313.569907 232.732353 
L 316.247667 234.580636 
L 318.925428 233.45113 
L 321.603188 219.383641 
L 329.636469 214.454886 
L 332.314229 160.820445 
L 334.99199 165.47538 
L 337.66975 167.289436 
L 340.347511 154.454136 
L 348.380792 149.491153 
L 351.058552 162.771411 
L 353.736312 150.517977 
L 367.125114 146.342226 
L 369.802874 142.23493 
L 372.480635 132.959287 
L 375.158395 118.309931 
L 377.836155 121.356176 
L 385.869436 131.213686 
L 388.547197 114.750275 
L 391.224957 121.56154 
L 393.902717 120.808536 
L 396.580478 124.436648 
L 404.613759 139.462506 
L 409.96928 164.688149 
L 412.64704 167.357891 
L 415.3248 174.579887 
L 423.358081 190.358749 
L 426.035842 184.334715 
L 428.713602 180.946196 
L 431.391362 201.277311 
L 434.069123 177.044264 
L 442.102404 176.325487 
L 444.780164 164.927741 
L 447.457924 171.875917 
L 450.135685 190.666796 
L 452.813445 180.877741 
L 460.846726 169.856496 
L 463.524487 188.85274 
L 466.202247 180.809286 
L 468.880007 219.623233 
L 471.557768 213.736109 
L 479.591049 188.921195 
L 482.268809 199.737075 
L 484.946569 207.027525 
L 487.62433 220.684285 
L 490.30209 230.986752 
L 498.335371 235.778598 
L 501.013131 246.936752 
L 503.690892 263.194798 
L 506.368652 247.484391 
L 509.046412 253.371515 
L 517.079693 274.52409 
L 519.757454 254.021837 
L 522.435214 260.114326 
L 525.112974 273.942223 
L 527.790735 290.20027 
L 535.824016 289.139218 
L 538.501776 265.351129 
L 543.857297 271.717438 
L 546.535057 264.735035 
L 554.568338 267.781279 
L 557.246099 264.940399 
L 559.923859 270.382567 
L 562.601619 270.656386 
L 565.27938 261.723017 
L 573.312661 246.765614 
L 575.990421 230.33643 
L 578.668181 202.886002 
L 581.345942 185.874951 
L 584.023702 188.236646 
L 592.056983 184.334715 
L 594.734744 186.662182 
L 597.412504 181.42538 
L 600.090264 172.389329 
L 602.768025 162.90832 
L 610.801306 158.32184 
L 613.479066 160.786218 
L 616.156826 185.053492 
L 618.834587 161.949951 
L 621.512347 182.862934 
L 629.545628 182.965616 
L 632.223388 193.747268 
L 634.901149 186.593728 
L 637.578909 183.684393 
L 640.256669 167.186754 
L 648.28995 140.797377 
L 650.967711 139.222913 
L 653.645471 146.581819 
L 656.323232 125.737291 
L 659.000992 139.770553 
L 667.034273 129.125811 
L 672.389794 126.353386 
L 675.067554 126.901025 
L 677.745314 134.465295 
L 688.456356 131.590188 
L 691.134116 99.313687 
L 693.811876 92.810468 
L 696.489637 98.286863 
L 704.522918 141.310789 
L 707.200678 138.230317 
L 709.878438 133.130424 
L 715.233959 116.324738 
L 723.26724 102.736434 
L 725.945001 69.878065 
L 731.300521 74.361864 
L 733.978282 76.175919 
L 742.011563 77.887293 
L 744.689323 78.879889 
L 747.367083 86.375704 
L 750.044844 99.039867 
L 752.722604 100.956605 
L 760.755885 75.320233 
L 763.433645 78.742979 
L 766.111406 85.48579 
L 768.789166 92.536649 
L 771.466926 130.905639 
L 779.500207 123.375596 
L 782.177968 119.234073 
L 784.855728 122.725274 
L 787.533489 123.341369 
L 790.211249 128.098987 
L 798.24453 137.408858 
L 800.92229 122.999094 
L 803.600051 119.302528 
L 806.277811 109.581927 
L 808.955571 99.279459 
L 816.988852 116.667013 
L 819.666613 102.873344 
L 825.022133 96.541262 
L 835.733175 101.43579 
L 838.410935 146.616046 
L 841.088695 152.9139 
L 843.766456 179.782462 
L 846.444216 164.345874 
L 854.477497 179.063685 
L 857.155258 161.915724 
L 859.833018 167.665938 
L 862.510778 194.26068 
L 865.188539 224.278169 
L 873.22182 217.432675 
L 875.89958 217.569585 
L 881.255101 210.21068 
L 883.932861 209.628813 
L 891.966142 189.811109 
L 894.643902 186.764865 
L 897.321663 187.141367 
L 899.999423 196.108963 
L 902.677183 194.842547 
L 910.710465 178.755638 
L 916.065985 198.881388 
L 918.743746 182.657569 
L 921.421506 176.01744 
L 929.454787 173.792655 
L 932.132547 174.374522 
L 934.810308 178.687183 
L 937.488068 184.813899 
L 940.165828 186.217225 
L 940.165828 186.217225 
" clip-path="url(#p1b74485cb0)" style="fill: none; stroke: #1f77b4; stroke-width: 1.5; stroke-linecap: square"/>
   </g>
   <g id="line2d_40">
    <path d="M 96.671319 69.234589 
L 104.7046 76.703022 
L 110.060121 88.710018 
L 112.737881 96.835618 
L 115.415641 100.059846 
L 123.448922 103.147163 
L 126.126683 108.952142 
L 128.804443 115.400596 
L 131.482203 117.6733 
L 134.159964 131.81609 
L 142.193245 152.229351 
L 144.871005 170.171389 
L 150.226526 192.556152 
L 152.904286 215.563856 
L 160.937567 223.388254 
L 163.615328 222.313512 
L 166.293088 218.815465 
L 168.970848 210.409199 
L 171.648609 201.195165 
L 179.68189 199.750766 
L 182.35965 199.887676 
L 185.03741 197.977783 
L 187.715171 196.245873 
L 190.392931 201.010337 
L 198.426212 206.33613 
L 201.103972 205.925401 
L 203.781733 208.321324 
L 206.459493 210.01216 
L 209.137254 206.377203 
L 217.170535 200.202568 
L 219.848295 198.333749 
L 222.526055 199.038835 
L 225.203816 207.191817 
L 227.881576 211.696152 
L 235.914857 213.811409 
L 241.270378 221.286688 
L 243.948138 234.553254 
L 246.625898 243.23334 
L 254.659179 256.424606 
L 257.33694 271.532609 
L 260.0147 279.226944 
L 262.69246 276.030099 
L 265.370221 274.852674 
L 273.403502 271.614755 
L 276.081262 270.697459 
L 278.759023 264.714498 
L 281.436783 262.058447 
L 292.147824 255.959112 
L 294.825585 251.954498 
L 297.503345 243.835743 
L 300.181105 242.494027 
L 302.858866 242.295507 
L 310.892147 243.267567 
L 313.569907 239.3451 
L 316.247667 238.03761 
L 318.925428 237.161387 
L 321.603188 233.80025 
L 329.636469 226.920529 
L 334.99199 198.717096 
L 340.347511 172.498857 
L 348.380792 159.50611 
L 351.058552 159.896303 
L 353.736312 156.904823 
L 367.125114 152.715381 
L 369.802874 150.27154 
L 372.480635 146.965166 
L 375.158395 138.07287 
L 377.836155 132.24051 
L 385.869436 129.214802 
L 388.547197 123.717871 
L 391.224957 121.438322 
L 393.902717 121.938043 
L 396.580478 122.554137 
L 404.613759 124.203901 
L 409.96928 134.191476 
L 412.64704 143.350746 
L 415.3248 154.105016 
L 423.358081 167.289436 
L 426.035842 176.263878 
L 428.713602 179.515487 
L 431.391362 186.299371 
L 434.069123 186.792247 
L 442.102404 183.985595 
L 444.780164 180.1042 
L 447.457924 178.290144 
L 450.135685 176.168041 
L 452.813445 176.934736 
L 460.846726 175.640938 
L 463.524487 180.425938 
L 466.202247 182.212612 
L 468.880007 188.003899 
L 471.557768 194.575573 
L 479.591049 198.388513 
L 482.268809 200.56538 
L 484.946569 205.809027 
L 487.62433 206.021238 
L 490.30209 209.471366 
L 498.335371 218.842847 
L 501.013131 228.282782 
L 503.690892 239.516237 
L 506.368652 244.876258 
L 509.046412 249.353211 
L 517.079693 257.102309 
L 519.757454 258.519327 
L 522.435214 257.903232 
L 525.112974 263.194798 
L 527.790735 270.560549 
L 535.824016 273.483575 
L 538.501776 275.749433 
L 541.179537 277.44027 
L 543.857297 276.995313 
L 546.535057 271.902266 
L 554.568338 267.630678 
L 557.246099 267.548532 
L 559.923859 267.911343 
L 562.601619 267.699133 
L 565.27938 267.09673 
L 573.312661 262.893597 
L 575.990421 255.972803 
L 578.668181 242.47349 
L 581.345942 225.517203 
L 584.023702 210.819929 
L 592.056983 198.333749 
L 594.734744 189.598899 
L 597.412504 185.306775 
L 600.090264 182.60965 
L 602.768025 177.543985 
L 610.801306 172.34141 
L 613.479066 167.166217 
L 616.156826 167.89184 
L 618.834587 165.803964 
L 621.512347 169.794887 
L 629.545628 174.723642 
L 632.223388 181.315852 
L 634.901149 181.623899 
L 637.578909 185.970788 
L 640.256669 182.835552 
L 648.28995 174.401904 
L 650.967711 163.497033 
L 653.645471 155.494651 
L 656.323232 143.905231 
L 659.000992 138.421991 
L 667.034273 136.087677 
L 672.389794 133.513772 
L 675.067554 129.577613 
L 677.745314 131.323214 
L 688.456356 129.687141 
L 691.134116 123.724716 
L 693.811876 117.016133 
L 696.489637 111.2933 
L 704.522918 112.662399 
L 707.200678 113.990425 
L 709.878438 120.753772 
L 712.556199 127.168 
L 715.233959 130.775575 
L 723.26724 123.060703 
L 725.945001 109.390253 
L 731.300521 97.636541 
L 733.978282 87.895404 
L 742.011563 80.207915 
L 744.689323 75.436606 
L 747.367083 78.736134 
L 752.722604 88.627872 
L 760.755885 88.11446 
L 763.433645 88.087078 
L 766.111406 87.909095 
L 768.789166 86.608451 
L 771.466926 92.598258 
L 779.500207 102.209331 
L 782.177968 110.307549 
L 784.855728 117.755446 
L 787.533489 123.91639 
L 790.211249 123.35506 
L 798.24453 126.161712 
L 800.92229 126.914716 
L 803.600051 126.230167 
L 806.277811 123.478279 
L 808.955571 117.714373 
L 816.988852 113.566004 
L 819.666613 109.540854 
L 827.699894 102.626906 
L 835.733175 103.058172 
L 838.410935 109.047979 
L 841.088695 119.05609 
L 843.766456 135.70433 
L 846.444216 149.018814 
L 854.477497 164.544393 
L 859.833018 170.554737 
L 862.510778 173.45038 
L 865.188539 185.436839 
L 873.22182 193.110637 
L 875.89958 204.24141 
L 881.255101 212.750358 
L 883.932861 215.823984 
L 891.966142 208.930572 
L 897.321663 196.711367 
L 902.677183 190.93377 
L 910.710465 188.722676 
L 916.065985 191.145981 
L 918.743746 190.249221 
L 921.421506 186.230916 
L 929.454787 182.020938 
L 932.132547 181.144715 
L 934.810308 177.105874 
L 937.488068 177.53714 
L 940.165828 179.577097 
L 940.165828 179.577097 
" clip-path="url(#p1b74485cb0)" style="fill: none; stroke: #ff7f0e; stroke-width: 1.5; stroke-linecap: square"/>
   </g>
   <g id="patch_3">
    <path d="M 43.25 301.717812 
L 43.25 48.331875 
" style="fill: none; stroke: #000000; stroke-width: 0.8; stroke-linejoin: miter; stroke-linecap: square"/>
   </g>
   <g id="patch_4">
    <path d="M 982.876106 301.717812 
L 982.876106 48.331875 
" style="fill: none; stroke: #000000; stroke-width: 0.8; stroke-linejoin: miter; stroke-linecap: square"/>
   </g>
   <g id="patch_5">
    <path d="M 43.25 301.717812 
L 982.876106 301.717812 
" style="fill: none; stroke: #000000; stroke-width: 0.8; stroke-linejoin: miter; stroke-linecap: square"/>
   </g>
   <g id="patch_6">
    <path d="M 43.25 48.331875 
L 982.876106 48.331875 
" style="fill: none; stroke: #000000; stroke-width: 0.8; stroke-linejoin: miter; stroke-linecap: square"/>
   </g>
   <g id="text_8">
    <!-- Closing Price -->
    <g transform="translate(474.587115 42.331875)scale(0.12 -0.12)">
     <defs>
      <path id="DejaVuSans-43" d="M 4122 4306 
L 4122 3641 
Q 3803 3938 3442 4084 
Q 3081 4231 2675 4231 
Q 1875 4231 1450 3742 
Q 1025 3253 1025 2328 
Q 1025 1406 1450 917 
Q 1875 428 2675 428 
Q 3081 428 3442 575 
Q 3803 722 4122 1019 
L 4122 359 
Q 3791 134 3420 21 
Q 3050 -91 2638 -91 
Q 1578 -91 968 557 
Q 359 1206 359 2328 
Q 359 3453 968 4101 
Q 1578 4750 2638 4750 
Q 3056 4750 3426 4639 
Q 3797 4528 4122 4306 
z
" transform="scale(0.015625)"/>
      <path id="DejaVuSans-6c" d="M 603 4863 
L 1178 4863 
L 1178 0 
L 603 0 
L 603 4863 
z
" transform="scale(0.015625)"/>
      <path id="DejaVuSans-6f" d="M 1959 3097 
Q 1497 3097 1228 2736 
Q 959 2375 959 1747 
Q 959 1119 1226 758 
Q 1494 397 1959 397 
Q 2419 397 2687 759 
Q 2956 1122 2956 1747 
Q 2956 2369 2687 2733 
Q 2419 3097 1959 3097 
z
M 1959 3584 
Q 2709 3584 3137 3096 
Q 3566 2609 3566 1747 
Q 3566 888 3137 398 
Q 2709 -91 1959 -91 
Q 1206 -91 779 398 
Q 353 888 353 1747 
Q 353 2609 779 3096 
Q 1206 3584 1959 3584 
z
" transform="scale(0.015625)"/>
      <path id="DejaVuSans-73" d="M 2834 3397 
L 2834 2853 
Q 2591 2978 2328 3040 
Q 2066 3103 1784 3103 
Q 1356 3103 1142 2972 
Q 928 2841 928 2578 
Q 928 2378 1081 2264 
Q 1234 2150 1697 2047 
L 1894 2003 
Q 2506 1872 2764 1633 
Q 3022 1394 3022 966 
Q 3022 478 2636 193 
Q 2250 -91 1575 -91 
Q 1294 -91 989 -36 
Q 684 19 347 128 
L 347 722 
Q 666 556 975 473 
Q 1284 391 1588 391 
Q 1994 391 2212 530 
Q 2431 669 2431 922 
Q 2431 1156 2273 1281 
Q 2116 1406 1581 1522 
L 1381 1569 
Q 847 1681 609 1914 
Q 372 2147 372 2553 
Q 372 3047 722 3315 
Q 1072 3584 1716 3584 
Q 2034 3584 2315 3537 
Q 2597 3491 2834 3397 
z
" transform="scale(0.015625)"/>
      <path id="DejaVuSans-69" d="M 603 3500 
L 1178 3500 
L 1178 0 
L 603 0 
L 603 3500 
z
M 603 4863 
L 1178 4863 
L 1178 4134 
L 603 4134 
L 603 4863 
z
" transform="scale(0.015625)"/>
      <path id="DejaVuSans-6e" d="M 3513 2113 
L 3513 0 
L 2938 0 
L 2938 2094 
Q 2938 2591 2744 2837 
Q 2550 3084 2163 3084 
Q 1697 3084 1428 2787 
Q 1159 2491 1159 1978 
L 1159 0 
L 581 0 
L 581 3500 
L 1159 3500 
L 1159 2956 
Q 1366 3272 1645 3428 
Q 1925 3584 2291 3584 
Q 2894 3584 3203 3211 
Q 3513 2838 3513 2113 
z
" transform="scale(0.015625)"/>
      <path id="DejaVuSans-67" d="M 2906 1791 
Q 2906 2416 2648 2759 
Q 2391 3103 1925 3103 
Q 1463 3103 1205 2759 
Q 947 2416 947 1791 
Q 947 1169 1205 825 
Q 1463 481 1925 481 
Q 2391 481 2648 825 
Q 2906 1169 2906 1791 
z
M 3481 434 
Q 3481 -459 3084 -895 
Q 2688 -1331 1869 -1331 
Q 1566 -1331 1297 -1286 
Q 1028 -1241 775 -1147 
L 775 -588 
Q 1028 -725 1275 -790 
Q 1522 -856 1778 -856 
Q 2344 -856 2625 -561 
Q 2906 -266 2906 331 
L 2906 616 
Q 2728 306 2450 153 
Q 2172 0 1784 0 
Q 1141 0 747 490 
Q 353 981 353 1791 
Q 353 2603 747 3093 
Q 1141 3584 1784 3584 
Q 2172 3584 2450 3431 
Q 2728 3278 2906 2969 
L 2906 3500 
L 3481 3500 
L 3481 434 
z
" transform="scale(0.015625)"/>
      <path id="DejaVuSans-20" transform="scale(0.015625)"/>
      <path id="DejaVuSans-50" d="M 1259 4147 
L 1259 2394 
L 2053 2394 
Q 2494 2394 2734 2622 
Q 2975 2850 2975 3272 
Q 2975 3691 2734 3919 
Q 2494 4147 2053 4147 
L 1259 4147 
z
M 628 4666 
L 2053 4666 
Q 2838 4666 3239 4311 
Q 3641 3956 3641 3272 
Q 3641 2581 3239 2228 
Q 2838 1875 2053 1875 
L 1259 1875 
L 1259 0 
L 628 0 
L 628 4666 
z
" transform="scale(0.015625)"/>
      <path id="DejaVuSans-72" d="M 2631 2963 
Q 2534 3019 2420 3045 
Q 2306 3072 2169 3072 
Q 1681 3072 1420 2755 
Q 1159 2438 1159 1844 
L 1159 0 
L 581 0 
L 581 3500 
L 1159 3500 
L 1159 2956 
Q 1341 3275 1631 3429 
Q 1922 3584 2338 3584 
Q 2397 3584 2469 3576 
Q 2541 3569 2628 3553 
L 2631 2963 
z
" transform="scale(0.015625)"/>
      <path id="DejaVuSans-63" d="M 3122 3366 
L 3122 2828 
Q 2878 2963 2633 3030 
Q 2388 3097 2138 3097 
Q 1578 3097 1268 2742 
Q 959 2388 959 1747 
Q 959 1106 1268 751 
Q 1578 397 2138 397 
Q 2388 397 2633 464 
Q 2878 531 3122 666 
L 3122 134 
Q 2881 22 2623 -34 
Q 2366 -91 2075 -91 
Q 1284 -91 818 406 
Q 353 903 353 1747 
Q 353 2603 823 3093 
Q 1294 3584 2113 3584 
Q 2378 3584 2631 3529 
Q 2884 3475 3122 3366 
z
" transform="scale(0.015625)"/>
      <path id="DejaVuSans-65" d="M 3597 1894 
L 3597 1613 
L 953 1613 
Q 991 1019 1311 708 
Q 1631 397 2203 397 
Q 2534 397 2845 478 
Q 3156 559 3463 722 
L 3463 178 
Q 3153 47 2828 -22 
Q 2503 -91 2169 -91 
Q 1331 -91 842 396 
Q 353 884 353 1716 
Q 353 2575 817 3079 
Q 1281 3584 2069 3584 
Q 2775 3584 3186 3129 
Q 3597 2675 3597 1894 
z
M 3022 2063 
Q 3016 2534 2758 2815 
Q 2500 3097 2075 3097 
Q 1594 3097 1305 2825 
Q 1016 2553 972 2059 
L 3022 2063 
z
" transform="scale(0.015625)"/>
     </defs>
     <use xlink:href="#DejaVuSans-43"/>
     <use xlink:href="#DejaVuSans-6c" x="69.824219"/>
     <use xlink:href="#DejaVuSans-6f" x="97.607422"/>
     <use xlink:href="#DejaVuSans-73" x="158.789062"/>
     <use xlink:href="#DejaVuSans-69" x="210.888672"/>
     <use xlink:href="#DejaVuSans-6e" x="238.671875"/>
     <use xlink:href="#DejaVuSans-67" x="302.050781"/>
     <use xlink:href="#DejaVuSans-20" x="365.527344"/>
     <use xlink:href="#DejaVuSans-50" x="397.314453"/>
     <use xlink:href="#DejaVuSans-72" x="455.867188"/>
     <use xlink:href="#DejaVuSans-69" x="496.980469"/>
     <use xlink:href="#DejaVuSans-63" x="524.763672"/>
     <use xlink:href="#DejaVuSans-65" x="579.744141"/>
    </g>
   </g>
   <g id="legend_1">
    <g id="patch_7">
     <path d="M 911.144856 85.688125 
L 975.876106 85.688125 
Q 977.876106 85.688125 977.876106 83.688125 
L 977.876106 55.331875 
Q 977.876106 53.331875 975.876106 53.331875 
L 911.144856 53.331875 
Q 909.144856 53.331875 909.144856 55.331875 
L 909.144856 83.688125 
Q 909.144856 85.688125 911.144856 85.688125 
z
" style="fill: #ffffff; opacity: 0.8; stroke: #cccccc; stroke-linejoin: miter"/>
    </g>
    <g id="line2d_41">
     <path d="M 913.144856 61.430312 
L 923.144856 61.430312 
L 933.144856 61.430312 
" style="fill: none; stroke: #1f77b4; stroke-width: 1.5; stroke-linecap: square"/>
    </g>
    <g id="text_9">
     <!-- CLOSE -->
     <g transform="translate(941.144856 64.930312)scale(0.1 -0.1)">
      <defs>
       <path id="DejaVuSans-4c" d="M 628 4666 
L 1259 4666 
L 1259 531 
L 3531 531 
L 3531 0 
L 628 0 
L 628 4666 
z
" transform="scale(0.015625)"/>
       <path id="DejaVuSans-4f" d="M 2522 4238 
Q 1834 4238 1429 3725 
Q 1025 3213 1025 2328 
Q 1025 1447 1429 934 
Q 1834 422 2522 422 
Q 3209 422 3611 934 
Q 4013 1447 4013 2328 
Q 4013 3213 3611 3725 
Q 3209 4238 2522 4238 
z
M 2522 4750 
Q 3503 4750 4090 4092 
Q 4678 3434 4678 2328 
Q 4678 1225 4090 567 
Q 3503 -91 2522 -91 
Q 1538 -91 948 565 
Q 359 1222 359 2328 
Q 359 3434 948 4092 
Q 1538 4750 2522 4750 
z
" transform="scale(0.015625)"/>
       <path id="DejaVuSans-53" d="M 3425 4513 
L 3425 3897 
Q 3066 4069 2747 4153 
Q 2428 4238 2131 4238 
Q 1616 4238 1336 4038 
Q 1056 3838 1056 3469 
Q 1056 3159 1242 3001 
Q 1428 2844 1947 2747 
L 2328 2669 
Q 3034 2534 3370 2195 
Q 3706 1856 3706 1288 
Q 3706 609 3251 259 
Q 2797 -91 1919 -91 
Q 1588 -91 1214 -16 
Q 841 59 441 206 
L 441 856 
Q 825 641 1194 531 
Q 1563 422 1919 422 
Q 2459 422 2753 634 
Q 3047 847 3047 1241 
Q 3047 1584 2836 1778 
Q 2625 1972 2144 2069 
L 1759 2144 
Q 1053 2284 737 2584 
Q 422 2884 422 3419 
Q 422 4038 858 4394 
Q 1294 4750 2059 4750 
Q 2388 4750 2728 4690 
Q 3069 4631 3425 4513 
z
" transform="scale(0.015625)"/>
       <path id="DejaVuSans-45" d="M 628 4666 
L 3578 4666 
L 3578 4134 
L 1259 4134 
L 1259 2753 
L 3481 2753 
L 3481 2222 
L 1259 2222 
L 1259 531 
L 3634 531 
L 3634 0 
L 628 0 
L 628 4666 
z
" transform="scale(0.015625)"/>
      </defs>
      <use xlink:href="#DejaVuSans-43"/>
      <use xlink:href="#DejaVuSans-4c" x="69.824219"/>
      <use xlink:href="#DejaVuSans-4f" x="121.912109"/>
      <use xlink:href="#DejaVuSans-53" x="200.623047"/>
      <use xlink:href="#DejaVuSans-45" x="264.099609"/>
     </g>
    </g>
    <g id="line2d_42">
     <path d="M 913.144856 76.108437 
L 923.144856 76.108437 
L 933.144856 76.108437 
" style="fill: none; stroke: #ff7f0e; stroke-width: 1.5; stroke-linecap: square"/>
    </g>
    <g id="text_10">
     <!-- SMA5 -->
     <g transform="translate(941.144856 79.608437)scale(0.1 -0.1)">
      <defs>
       <path id="DejaVuSans-4d" d="M 628 4666 
L 1569 4666 
L 2759 1491 
L 3956 4666 
L 4897 4666 
L 4897 0 
L 4281 0 
L 4281 4097 
L 3078 897 
L 2444 897 
L 1241 4097 
L 1241 0 
L 628 0 
L 628 4666 
z
" transform="scale(0.015625)"/>
       <path id="DejaVuSans-41" d="M 2188 4044 
L 1331 1722 
L 3047 1722 
L 2188 4044 
z
M 1831 4666 
L 2547 4666 
L 4325 0 
L 3669 0 
L 3244 1197 
L 1141 1197 
L 716 0 
L 50 0 
L 1831 4666 
z
" transform="scale(0.015625)"/>
      </defs>
      <use xlink:href="#DejaVuSans-53"/>
      <use xlink:href="#DejaVuSans-4d" x="63.476562"/>
      <use xlink:href="#DejaVuSans-41" x="149.755859"/>
      <use xlink:href="#DejaVuSans-35" x="218.164062"/>
     </g>
    </g>
   </g>
  </g>
  <g id="axes_2">
   <g id="patch_8">
    <path d="M 43.25 584.521875 
L 982.876106 584.521875 
L 982.876106 331.135938 
L 43.25 331.135938 
z
" style="fill: #ffffff"/>
   </g>
   <g id="matplotlib.axis_3">
    <g id="xtick_13">
     <g id="line2d_43">
      <path d="M 80.604757 584.521875 
L 80.604757 331.135938 
" clip-path="url(#p362676def3)" style="fill: none; stroke-dasharray: 2.96,1.28; stroke-dashoffset: 0; stroke: #b0b0b0; stroke-width: 0.8"/>
     </g>
     <g id="line2d_44">
      <g>
       <use xlink:href="#m64024007fe" x="80.604757" y="584.521875" style="stroke: #000000; stroke-width: 0.8"/>
      </g>
     </g>
     <g id="text_11">
      <!-- 2022-01 -->
      <g transform="translate(59.713351 599.120312)scale(0.1 -0.1)">
       <defs>
        <path id="DejaVuSans-2d" d="M 313 2009 
L 1997 2009 
L 1997 1497 
L 313 1497 
L 313 2009 
z
" transform="scale(0.015625)"/>
       </defs>
       <use xlink:href="#DejaVuSans-32"/>
       <use xlink:href="#DejaVuSans-30" x="63.623047"/>
       <use xlink:href="#DejaVuSans-32" x="127.246094"/>
       <use xlink:href="#DejaVuSans-32" x="190.869141"/>
       <use xlink:href="#DejaVuSans-2d" x="254.492188"/>
       <use xlink:href="#DejaVuSans-30" x="290.576172"/>
       <use xlink:href="#DejaVuSans-31" x="354.199219"/>
      </g>
     </g>
    </g>
    <g id="xtick_14">
     <g id="line2d_45">
      <path d="M 163.615328 584.521875 
L 163.615328 331.135938 
" clip-path="url(#p362676def3)" style="fill: none; stroke-dasharray: 2.96,1.28; stroke-dashoffset: 0; stroke: #b0b0b0; stroke-width: 0.8"/>
     </g>
     <g id="line2d_46">
      <g>
       <use xlink:href="#m64024007fe" x="163.615328" y="584.521875" style="stroke: #000000; stroke-width: 0.8"/>
      </g>
     </g>
     <g id="text_12">
      <!-- 2022-02 -->
      <g transform="translate(142.723921 599.120312)scale(0.1 -0.1)">
       <use xlink:href="#DejaVuSans-32"/>
       <use xlink:href="#DejaVuSans-30" x="63.623047"/>
       <use xlink:href="#DejaVuSans-32" x="127.246094"/>
       <use xlink:href="#DejaVuSans-32" x="190.869141"/>
       <use xlink:href="#DejaVuSans-2d" x="254.492188"/>
       <use xlink:href="#DejaVuSans-30" x="290.576172"/>
       <use xlink:href="#DejaVuSans-32" x="354.199219"/>
      </g>
     </g>
    </g>
    <g id="xtick_15">
     <g id="line2d_47">
      <path d="M 238.592617 584.521875 
L 238.592617 331.135938 
" clip-path="url(#p362676def3)" style="fill: none; stroke-dasharray: 2.96,1.28; stroke-dashoffset: 0; stroke: #b0b0b0; stroke-width: 0.8"/>
     </g>
     <g id="line2d_48">
      <g>
       <use xlink:href="#m64024007fe" x="238.592617" y="584.521875" style="stroke: #000000; stroke-width: 0.8"/>
      </g>
     </g>
     <g id="text_13">
      <!-- 2022-03 -->
      <g transform="translate(217.701211 599.120312)scale(0.1 -0.1)">
       <use xlink:href="#DejaVuSans-32"/>
       <use xlink:href="#DejaVuSans-30" x="63.623047"/>
       <use xlink:href="#DejaVuSans-32" x="127.246094"/>
       <use xlink:href="#DejaVuSans-32" x="190.869141"/>
       <use xlink:href="#DejaVuSans-2d" x="254.492188"/>
       <use xlink:href="#DejaVuSans-30" x="290.576172"/>
       <use xlink:href="#DejaVuSans-33" x="354.199219"/>
      </g>
     </g>
    </g>
    <g id="xtick_16">
     <g id="line2d_49">
      <path d="M 321.603188 584.521875 
L 321.603188 331.135938 
" clip-path="url(#p362676def3)" style="fill: none; stroke-dasharray: 2.96,1.28; stroke-dashoffset: 0; stroke: #b0b0b0; stroke-width: 0.8"/>
     </g>
     <g id="line2d_50">
      <g>
       <use xlink:href="#m64024007fe" x="321.603188" y="584.521875" style="stroke: #000000; stroke-width: 0.8"/>
      </g>
     </g>
     <g id="text_14">
      <!-- 2022-04 -->
      <g transform="translate(300.711782 599.120312)scale(0.1 -0.1)">
       <use xlink:href="#DejaVuSans-32"/>
       <use xlink:href="#DejaVuSans-30" x="63.623047"/>
       <use xlink:href="#DejaVuSans-32" x="127.246094"/>
       <use xlink:href="#DejaVuSans-32" x="190.869141"/>
       <use xlink:href="#DejaVuSans-2d" x="254.492188"/>
       <use xlink:href="#DejaVuSans-30" x="290.576172"/>
       <use xlink:href="#DejaVuSans-34" x="354.199219"/>
      </g>
     </g>
    </g>
    <g id="xtick_17">
     <g id="line2d_51">
      <path d="M 401.935999 584.521875 
L 401.935999 331.135938 
" clip-path="url(#p362676def3)" style="fill: none; stroke-dasharray: 2.96,1.28; stroke-dashoffset: 0; stroke: #b0b0b0; stroke-width: 0.8"/>
     </g>
     <g id="line2d_52">
      <g>
       <use xlink:href="#m64024007fe" x="401.935999" y="584.521875" style="stroke: #000000; stroke-width: 0.8"/>
      </g>
     </g>
     <g id="text_15">
      <!-- 2022-05 -->
      <g transform="translate(381.044592 599.120312)scale(0.1 -0.1)">
       <use xlink:href="#DejaVuSans-32"/>
       <use xlink:href="#DejaVuSans-30" x="63.623047"/>
       <use xlink:href="#DejaVuSans-32" x="127.246094"/>
       <use xlink:href="#DejaVuSans-32" x="190.869141"/>
       <use xlink:href="#DejaVuSans-2d" x="254.492188"/>
       <use xlink:href="#DejaVuSans-30" x="290.576172"/>
       <use xlink:href="#DejaVuSans-35" x="354.199219"/>
      </g>
     </g>
    </g>
    <g id="xtick_18">
     <g id="line2d_53">
      <path d="M 484.946569 584.521875 
L 484.946569 331.135938 
" clip-path="url(#p362676def3)" style="fill: none; stroke-dasharray: 2.96,1.28; stroke-dashoffset: 0; stroke: #b0b0b0; stroke-width: 0.8"/>
     </g>
     <g id="line2d_54">
      <g>
       <use xlink:href="#m64024007fe" x="484.946569" y="584.521875" style="stroke: #000000; stroke-width: 0.8"/>
      </g>
     </g>
     <g id="text_16">
      <!-- 2022-06 -->
      <g transform="translate(464.055163 599.120312)scale(0.1 -0.1)">
       <defs>
        <path id="DejaVuSans-36" d="M 2113 2584 
Q 1688 2584 1439 2293 
Q 1191 2003 1191 1497 
Q 1191 994 1439 701 
Q 1688 409 2113 409 
Q 2538 409 2786 701 
Q 3034 994 3034 1497 
Q 3034 2003 2786 2293 
Q 2538 2584 2113 2584 
z
M 3366 4563 
L 3366 3988 
Q 3128 4100 2886 4159 
Q 2644 4219 2406 4219 
Q 1781 4219 1451 3797 
Q 1122 3375 1075 2522 
Q 1259 2794 1537 2939 
Q 1816 3084 2150 3084 
Q 2853 3084 3261 2657 
Q 3669 2231 3669 1497 
Q 3669 778 3244 343 
Q 2819 -91 2113 -91 
Q 1303 -91 875 529 
Q 447 1150 447 2328 
Q 447 3434 972 4092 
Q 1497 4750 2381 4750 
Q 2619 4750 2861 4703 
Q 3103 4656 3366 4563 
z
" transform="scale(0.015625)"/>
       </defs>
       <use xlink:href="#DejaVuSans-32"/>
       <use xlink:href="#DejaVuSans-30" x="63.623047"/>
       <use xlink:href="#DejaVuSans-32" x="127.246094"/>
       <use xlink:href="#DejaVuSans-32" x="190.869141"/>
       <use xlink:href="#DejaVuSans-2d" x="254.492188"/>
       <use xlink:href="#DejaVuSans-30" x="290.576172"/>
       <use xlink:href="#DejaVuSans-36" x="354.199219"/>
      </g>
     </g>
    </g>
    <g id="xtick_19">
     <g id="line2d_55">
      <path d="M 565.27938 584.521875 
L 565.27938 331.135938 
" clip-path="url(#p362676def3)" style="fill: none; stroke-dasharray: 2.96,1.28; stroke-dashoffset: 0; stroke: #b0b0b0; stroke-width: 0.8"/>
     </g>
     <g id="line2d_56">
      <g>
       <use xlink:href="#m64024007fe" x="565.27938" y="584.521875" style="stroke: #000000; stroke-width: 0.8"/>
      </g>
     </g>
     <g id="text_17">
      <!-- 2022-07 -->
      <g transform="translate(544.387973 599.120312)scale(0.1 -0.1)">
       <defs>
        <path id="DejaVuSans-37" d="M 525 4666 
L 3525 4666 
L 3525 4397 
L 1831 0 
L 1172 0 
L 2766 4134 
L 525 4134 
L 525 4666 
z
" transform="scale(0.015625)"/>
       </defs>
       <use xlink:href="#DejaVuSans-32"/>
       <use xlink:href="#DejaVuSans-30" x="63.623047"/>
       <use xlink:href="#DejaVuSans-32" x="127.246094"/>
       <use xlink:href="#DejaVuSans-32" x="190.869141"/>
       <use xlink:href="#DejaVuSans-2d" x="254.492188"/>
       <use xlink:href="#DejaVuSans-30" x="290.576172"/>
       <use xlink:href="#DejaVuSans-37" x="354.199219"/>
      </g>
     </g>
    </g>
    <g id="xtick_20">
     <g id="line2d_57">
      <path d="M 648.28995 584.521875 
L 648.28995 331.135938 
" clip-path="url(#p362676def3)" style="fill: none; stroke-dasharray: 2.96,1.28; stroke-dashoffset: 0; stroke: #b0b0b0; stroke-width: 0.8"/>
     </g>
     <g id="line2d_58">
      <g>
       <use xlink:href="#m64024007fe" x="648.28995" y="584.521875" style="stroke: #000000; stroke-width: 0.8"/>
      </g>
     </g>
     <g id="text_18">
      <!-- 2022-08 -->
      <g transform="translate(627.398544 599.120312)scale(0.1 -0.1)">
       <defs>
        <path id="DejaVuSans-38" d="M 2034 2216 
Q 1584 2216 1326 1975 
Q 1069 1734 1069 1313 
Q 1069 891 1326 650 
Q 1584 409 2034 409 
Q 2484 409 2743 651 
Q 3003 894 3003 1313 
Q 3003 1734 2745 1975 
Q 2488 2216 2034 2216 
z
M 1403 2484 
Q 997 2584 770 2862 
Q 544 3141 544 3541 
Q 544 4100 942 4425 
Q 1341 4750 2034 4750 
Q 2731 4750 3128 4425 
Q 3525 4100 3525 3541 
Q 3525 3141 3298 2862 
Q 3072 2584 2669 2484 
Q 3125 2378 3379 2068 
Q 3634 1759 3634 1313 
Q 3634 634 3220 271 
Q 2806 -91 2034 -91 
Q 1263 -91 848 271 
Q 434 634 434 1313 
Q 434 1759 690 2068 
Q 947 2378 1403 2484 
z
M 1172 3481 
Q 1172 3119 1398 2916 
Q 1625 2713 2034 2713 
Q 2441 2713 2670 2916 
Q 2900 3119 2900 3481 
Q 2900 3844 2670 4047 
Q 2441 4250 2034 4250 
Q 1625 4250 1398 4047 
Q 1172 3844 1172 3481 
z
" transform="scale(0.015625)"/>
       </defs>
       <use xlink:href="#DejaVuSans-32"/>
       <use xlink:href="#DejaVuSans-30" x="63.623047"/>
       <use xlink:href="#DejaVuSans-32" x="127.246094"/>
       <use xlink:href="#DejaVuSans-32" x="190.869141"/>
       <use xlink:href="#DejaVuSans-2d" x="254.492188"/>
       <use xlink:href="#DejaVuSans-30" x="290.576172"/>
       <use xlink:href="#DejaVuSans-38" x="354.199219"/>
      </g>
     </g>
    </g>
    <g id="xtick_21">
     <g id="line2d_59">
      <path d="M 731.300521 584.521875 
L 731.300521 331.135938 
" clip-path="url(#p362676def3)" style="fill: none; stroke-dasharray: 2.96,1.28; stroke-dashoffset: 0; stroke: #b0b0b0; stroke-width: 0.8"/>
     </g>
     <g id="line2d_60">
      <g>
       <use xlink:href="#m64024007fe" x="731.300521" y="584.521875" style="stroke: #000000; stroke-width: 0.8"/>
      </g>
     </g>
     <g id="text_19">
      <!-- 2022-09 -->
      <g transform="translate(710.409115 599.120312)scale(0.1 -0.1)">
       <defs>
        <path id="DejaVuSans-39" d="M 703 97 
L 703 672 
Q 941 559 1184 500 
Q 1428 441 1663 441 
Q 2288 441 2617 861 
Q 2947 1281 2994 2138 
Q 2813 1869 2534 1725 
Q 2256 1581 1919 1581 
Q 1219 1581 811 2004 
Q 403 2428 403 3163 
Q 403 3881 828 4315 
Q 1253 4750 1959 4750 
Q 2769 4750 3195 4129 
Q 3622 3509 3622 2328 
Q 3622 1225 3098 567 
Q 2575 -91 1691 -91 
Q 1453 -91 1209 -44 
Q 966 3 703 97 
z
M 1959 2075 
Q 2384 2075 2632 2365 
Q 2881 2656 2881 3163 
Q 2881 3666 2632 3958 
Q 2384 4250 1959 4250 
Q 1534 4250 1286 3958 
Q 1038 3666 1038 3163 
Q 1038 2656 1286 2365 
Q 1534 2075 1959 2075 
z
" transform="scale(0.015625)"/>
       </defs>
       <use xlink:href="#DejaVuSans-32"/>
       <use xlink:href="#DejaVuSans-30" x="63.623047"/>
       <use xlink:href="#DejaVuSans-32" x="127.246094"/>
       <use xlink:href="#DejaVuSans-32" x="190.869141"/>
       <use xlink:href="#DejaVuSans-2d" x="254.492188"/>
       <use xlink:href="#DejaVuSans-30" x="290.576172"/>
       <use xlink:href="#DejaVuSans-39" x="354.199219"/>
      </g>
     </g>
    </g>
    <g id="xtick_22">
     <g id="line2d_61">
      <path d="M 811.633332 584.521875 
L 811.633332 331.135938 
" clip-path="url(#p362676def3)" style="fill: none; stroke-dasharray: 2.96,1.28; stroke-dashoffset: 0; stroke: #b0b0b0; stroke-width: 0.8"/>
     </g>
     <g id="line2d_62">
      <g>
       <use xlink:href="#m64024007fe" x="811.633332" y="584.521875" style="stroke: #000000; stroke-width: 0.8"/>
      </g>
     </g>
     <g id="text_20">
      <!-- 2022-10 -->
      <g transform="translate(790.741925 599.120312)scale(0.1 -0.1)">
       <use xlink:href="#DejaVuSans-32"/>
       <use xlink:href="#DejaVuSans-30" x="63.623047"/>
       <use xlink:href="#DejaVuSans-32" x="127.246094"/>
       <use xlink:href="#DejaVuSans-32" x="190.869141"/>
       <use xlink:href="#DejaVuSans-2d" x="254.492188"/>
       <use xlink:href="#DejaVuSans-31" x="290.576172"/>
       <use xlink:href="#DejaVuSans-30" x="354.199219"/>
      </g>
     </g>
    </g>
    <g id="xtick_23">
     <g id="line2d_63">
      <path d="M 894.643902 584.521875 
L 894.643902 331.135938 
" clip-path="url(#p362676def3)" style="fill: none; stroke-dasharray: 2.96,1.28; stroke-dashoffset: 0; stroke: #b0b0b0; stroke-width: 0.8"/>
     </g>
     <g id="line2d_64">
      <g>
       <use xlink:href="#m64024007fe" x="894.643902" y="584.521875" style="stroke: #000000; stroke-width: 0.8"/>
      </g>
     </g>
     <g id="text_21">
      <!-- 2022-11 -->
      <g transform="translate(873.752496 599.120312)scale(0.1 -0.1)">
       <use xlink:href="#DejaVuSans-32"/>
       <use xlink:href="#DejaVuSans-30" x="63.623047"/>
       <use xlink:href="#DejaVuSans-32" x="127.246094"/>
       <use xlink:href="#DejaVuSans-32" x="190.869141"/>
       <use xlink:href="#DejaVuSans-2d" x="254.492188"/>
       <use xlink:href="#DejaVuSans-31" x="290.576172"/>
       <use xlink:href="#DejaVuSans-31" x="354.199219"/>
      </g>
     </g>
    </g>
    <g id="xtick_24">
     <g id="line2d_65">
      <path d="M 974.976713 584.521875 
L 974.976713 331.135938 
" clip-path="url(#p362676def3)" style="fill: none; stroke-dasharray: 2.96,1.28; stroke-dashoffset: 0; stroke: #b0b0b0; stroke-width: 0.8"/>
     </g>
     <g id="line2d_66">
      <g>
       <use xlink:href="#m64024007fe" x="974.976713" y="584.521875" style="stroke: #000000; stroke-width: 0.8"/>
      </g>
     </g>
     <g id="text_22">
      <!-- 2022-12 -->
      <g transform="translate(954.085307 599.120312)scale(0.1 -0.1)">
       <use xlink:href="#DejaVuSans-32"/>
       <use xlink:href="#DejaVuSans-30" x="63.623047"/>
       <use xlink:href="#DejaVuSans-32" x="127.246094"/>
       <use xlink:href="#DejaVuSans-32" x="190.869141"/>
       <use xlink:href="#DejaVuSans-2d" x="254.492188"/>
       <use xlink:href="#DejaVuSans-31" x="290.576172"/>
       <use xlink:href="#DejaVuSans-32" x="354.199219"/>
      </g>
     </g>
    </g>
   </g>
   <g id="matplotlib.axis_4">
    <g id="ytick_8">
     <g id="line2d_67">
      <path d="M 43.25 578.100048 
L 982.876106 578.100048 
" clip-path="url(#p362676def3)" style="fill: none; stroke-dasharray: 2.96,1.28; stroke-dashoffset: 0; stroke: #b0b0b0; stroke-width: 0.8"/>
     </g>
     <g id="line2d_68">
      <g>
       <use xlink:href="#m56f2784e0e" x="43.25" y="578.100048" style="stroke: #000000; stroke-width: 0.8"/>
      </g>
     </g>
     <g id="text_23">
      <!-- 40 -->
      <g transform="translate(15.145313 581.899267)scale(0.1 -0.1)">
       <defs>
        <path id="DejaVuSans-2212" d="M 678 2272 
L 4684 2272 
L 4684 1741 
L 678 1741 
L 678 2272 
z
" transform="scale(0.015625)"/>
       </defs>
       <use xlink:href="#DejaVuSans-2212"/>
       <use xlink:href="#DejaVuSans-34" x="83.789062"/>
       <use xlink:href="#DejaVuSans-30" x="147.412109"/>
      </g>
     </g>
    </g>
    <g id="ytick_9">
     <g id="line2d_69">
      <path d="M 43.25 549.13302 
L 982.876106 549.13302 
" clip-path="url(#p362676def3)" style="fill: none; stroke-dasharray: 2.96,1.28; stroke-dashoffset: 0; stroke: #b0b0b0; stroke-width: 0.8"/>
     </g>
     <g id="line2d_70">
      <g>
       <use xlink:href="#m56f2784e0e" x="43.25" y="549.13302" style="stroke: #000000; stroke-width: 0.8"/>
      </g>
     </g>
     <g id="text_24">
      <!-- 30 -->
      <g transform="translate(15.145313 552.932239)scale(0.1 -0.1)">
       <use xlink:href="#DejaVuSans-2212"/>
       <use xlink:href="#DejaVuSans-33" x="83.789062"/>
       <use xlink:href="#DejaVuSans-30" x="147.412109"/>
      </g>
     </g>
    </g>
    <g id="ytick_10">
     <g id="line2d_71">
      <path d="M 43.25 520.165992 
L 982.876106 520.165992 
" clip-path="url(#p362676def3)" style="fill: none; stroke-dasharray: 2.96,1.28; stroke-dashoffset: 0; stroke: #b0b0b0; stroke-width: 0.8"/>
     </g>
     <g id="line2d_72">
      <g>
       <use xlink:href="#m56f2784e0e" x="43.25" y="520.165992" style="stroke: #000000; stroke-width: 0.8"/>
      </g>
     </g>
     <g id="text_25">
      <!-- 20 -->
      <g transform="translate(15.145313 523.965211)scale(0.1 -0.1)">
       <use xlink:href="#DejaVuSans-2212"/>
       <use xlink:href="#DejaVuSans-32" x="83.789062"/>
       <use xlink:href="#DejaVuSans-30" x="147.412109"/>
      </g>
     </g>
    </g>
    <g id="ytick_11">
     <g id="line2d_73">
      <path d="M 43.25 491.198964 
L 982.876106 491.198964 
" clip-path="url(#p362676def3)" style="fill: none; stroke-dasharray: 2.96,1.28; stroke-dashoffset: 0; stroke: #b0b0b0; stroke-width: 0.8"/>
     </g>
     <g id="line2d_74">
      <g>
       <use xlink:href="#m56f2784e0e" x="43.25" y="491.198964" style="stroke: #000000; stroke-width: 0.8"/>
      </g>
     </g>
     <g id="text_26">
      <!-- 10 -->
      <g transform="translate(15.145313 494.998183)scale(0.1 -0.1)">
       <use xlink:href="#DejaVuSans-2212"/>
       <use xlink:href="#DejaVuSans-31" x="83.789062"/>
       <use xlink:href="#DejaVuSans-30" x="147.412109"/>
      </g>
     </g>
    </g>
    <g id="ytick_12">
     <g id="line2d_75">
      <path d="M 43.25 462.231937 
L 982.876106 462.231937 
" clip-path="url(#p362676def3)" style="fill: none; stroke-dasharray: 2.96,1.28; stroke-dashoffset: 0; stroke: #b0b0b0; stroke-width: 0.8"/>
     </g>
     <g id="line2d_76">
      <g>
       <use xlink:href="#m56f2784e0e" x="43.25" y="462.231937" style="stroke: #000000; stroke-width: 0.8"/>
      </g>
     </g>
     <g id="text_27">
      <!-- 0 -->
      <g transform="translate(29.8875 466.031155)scale(0.1 -0.1)">
       <use xlink:href="#DejaVuSans-30"/>
      </g>
     </g>
    </g>
    <g id="ytick_13">
     <g id="line2d_77">
      <path d="M 43.25 433.264909 
L 982.876106 433.264909 
" clip-path="url(#p362676def3)" style="fill: none; stroke-dasharray: 2.96,1.28; stroke-dashoffset: 0; stroke: #b0b0b0; stroke-width: 0.8"/>
     </g>
     <g id="line2d_78">
      <g>
       <use xlink:href="#m56f2784e0e" x="43.25" y="433.264909" style="stroke: #000000; stroke-width: 0.8"/>
      </g>
     </g>
     <g id="text_28">
      <!-- 10 -->
      <g transform="translate(23.525 437.064128)scale(0.1 -0.1)">
       <use xlink:href="#DejaVuSans-31"/>
       <use xlink:href="#DejaVuSans-30" x="63.623047"/>
      </g>
     </g>
    </g>
    <g id="ytick_14">
     <g id="line2d_79">
      <path d="M 43.25 404.297881 
L 982.876106 404.297881 
" clip-path="url(#p362676def3)" style="fill: none; stroke-dasharray: 2.96,1.28; stroke-dashoffset: 0; stroke: #b0b0b0; stroke-width: 0.8"/>
     </g>
     <g id="line2d_80">
      <g>
       <use xlink:href="#m56f2784e0e" x="43.25" y="404.297881" style="stroke: #000000; stroke-width: 0.8"/>
      </g>
     </g>
     <g id="text_29">
      <!-- 20 -->
      <g transform="translate(23.525 408.0971)scale(0.1 -0.1)">
       <use xlink:href="#DejaVuSans-32"/>
       <use xlink:href="#DejaVuSans-30" x="63.623047"/>
      </g>
     </g>
    </g>
    <g id="ytick_15">
     <g id="line2d_81">
      <path d="M 43.25 375.330853 
L 982.876106 375.330853 
" clip-path="url(#p362676def3)" style="fill: none; stroke-dasharray: 2.96,1.28; stroke-dashoffset: 0; stroke: #b0b0b0; stroke-width: 0.8"/>
     </g>
     <g id="line2d_82">
      <g>
       <use xlink:href="#m56f2784e0e" x="43.25" y="375.330853" style="stroke: #000000; stroke-width: 0.8"/>
      </g>
     </g>
     <g id="text_30">
      <!-- 30 -->
      <g transform="translate(23.525 379.130072)scale(0.1 -0.1)">
       <use xlink:href="#DejaVuSans-33"/>
       <use xlink:href="#DejaVuSans-30" x="63.623047"/>
      </g>
     </g>
    </g>
    <g id="ytick_16">
     <g id="line2d_83">
      <path d="M 43.25 346.363825 
L 982.876106 346.363825 
" clip-path="url(#p362676def3)" style="fill: none; stroke-dasharray: 2.96,1.28; stroke-dashoffset: 0; stroke: #b0b0b0; stroke-width: 0.8"/>
     </g>
     <g id="line2d_84">
      <g>
       <use xlink:href="#m56f2784e0e" x="43.25" y="346.363825" style="stroke: #000000; stroke-width: 0.8"/>
      </g>
     </g>
     <g id="text_31">
      <!-- 40 -->
      <g transform="translate(23.525 350.163044)scale(0.1 -0.1)">
       <use xlink:href="#DejaVuSans-34"/>
       <use xlink:href="#DejaVuSans-30" x="63.623047"/>
      </g>
     </g>
    </g>
   </g>
   <g id="line2d_85">
    <path d="M 85.960278 462.231937 
L 88.638038 462.547139 
L 91.315798 462.741359 
L 93.993559 464.265702 
L 96.671319 467.108698 
L 104.7046 470.806985 
L 107.38236 472.21087 
L 110.060121 473.267304 
L 112.737881 477.991534 
L 115.415641 478.435221 
L 123.448922 480.96691 
L 128.804443 488.322389 
L 131.482203 490.410657 
L 134.159964 503.443774 
L 142.193245 523.637372 
L 144.871005 537.478058 
L 150.226526 554.304275 
L 152.904286 566.672948 
L 160.937567 566.987001 
L 163.615328 565.322524 
L 166.293088 558.50176 
L 168.970848 552.720069 
L 171.648609 546.584001 
L 179.68189 543.760062 
L 182.35965 542.264003 
L 185.03741 532.545641 
L 187.715171 525.101192 
L 190.392931 527.864297 
L 198.426212 533.193843 
L 201.103972 529.384036 
L 203.781733 522.090868 
L 206.459493 515.580938 
L 209.137254 511.094297 
L 217.170535 507.054895 
L 219.848295 502.878084 
L 222.526055 499.624029 
L 225.203816 508.477869 
L 227.881576 510.245042 
L 235.914857 507.248915 
L 241.270378 512.567699 
L 243.948138 526.062852 
L 246.625898 540.440818 
L 254.659179 553.47772 
L 257.33694 561.90088 
L 260.0147 563.465819 
L 262.69246 555.635276 
L 265.370221 556.358136 
L 273.403502 555.146843 
L 276.081262 556.227698 
L 278.759023 543.682309 
L 281.436783 530.483302 
L 292.147824 521.62808 
L 294.825585 516.791436 
L 300.181105 500.631506 
L 302.858866 493.370646 
L 310.892147 491.556523 
L 313.569907 484.412778 
L 316.247667 479.181599 
L 318.925428 474.512136 
L 321.603188 466.00276 
L 329.636469 457.641901 
L 332.314229 433.161681 
L 334.99199 415.876798 
L 337.66975 403.473152 
L 340.347511 390.116628 
L 348.380792 378.80831 
L 351.058552 375.36276 
L 353.736312 369.535372 
L 367.125114 364.623023 
L 369.802874 360.506107 
L 372.480635 355.320135 
L 375.158395 347.546626 
L 377.836155 343.789384 
L 385.869436 345.514718 
L 388.547197 342.65348 
L 391.224957 344.068987 
L 393.902717 346.271378 
L 396.580478 350.541053 
L 404.613759 360.222239 
L 409.96928 377.470646 
L 415.3248 408.1244 
L 423.358081 426.027182 
L 426.035842 438.435077 
L 428.713602 447.284943 
L 431.391362 461.244526 
L 434.069123 464.020599 
L 442.102404 465.932764 
L 444.780164 463.544533 
L 447.457924 464.00206 
L 450.135685 470.678789 
L 452.813445 472.511355 
L 460.846726 470.111943 
L 463.524487 474.550942 
L 466.202247 475.174668 
L 468.880007 488.611389 
L 471.557768 496.851681 
L 479.591049 494.540192 
L 482.268809 496.010571 
L 484.946569 499.237676 
L 487.62433 505.952703 
L 490.30209 514.192091 
L 498.335371 521.672329 
L 501.013131 530.621017 
L 503.690892 542.339385 
L 506.368652 545.305491 
L 509.046412 548.669451 
L 517.079693 557.458803 
L 519.757454 556.34032 
L 522.435214 556.44776 
L 525.112974 560.125235 
L 527.790735 567.378089 
L 535.824016 571.504122 
L 538.501776 565.46257 
L 541.179537 560.638661 
L 543.857297 556.800625 
L 546.535057 550.359152 
L 554.568338 545.336302 
L 557.246099 539.495069 
L 562.601619 532.291974 
L 565.27938 525.670994 
L 573.312661 514.711961 
L 575.990421 499.982255 
L 578.668181 478.74603 
L 581.345942 456.177818 
L 584.023702 439.362351 
L 592.056983 425.131393 
L 594.734744 415.190216 
L 597.412504 406.169972 
L 602.768025 386.812155 
L 610.801306 378.383163 
L 613.479066 373.566652 
L 616.156826 378.994912 
L 618.834587 376.397756 
L 621.512347 382.400342 
L 629.545628 388.047647 
L 632.223388 396.956962 
L 634.901149 402.266365 
L 637.578909 406.127465 
L 640.256669 404.22306 
L 648.28995 394.484213 
L 650.967711 387.094651 
L 653.645471 384.645415 
L 656.323232 376.574486 
L 659.000992 375.964276 
L 667.034273 372.876101 
L 672.389794 370.539042 
L 675.067554 369.937807 
L 677.745314 373.071912 
L 688.456356 375.572964 
L 691.134116 367.624878 
L 693.811876 360.28068 
L 696.489637 357.537117 
L 704.522918 371.103762 
L 707.200678 381.73156 
L 709.878438 389.254057 
L 712.556199 393.194953 
L 715.233959 394.180857 
L 723.26724 391.141956 
L 725.945001 378.479579 
L 731.300521 371.026901 
L 733.978282 366.839632 
L 742.011563 365.223789 
L 744.689323 365.398381 
L 747.367083 369.168964 
L 752.722604 385.566363 
L 760.755885 384.138523 
L 763.433645 385.065178 
L 766.111406 388.946678 
L 768.789166 395.202979 
L 771.466926 413.820296 
L 779.500207 426.41638 
L 782.177968 435.295252 
L 784.855728 443.737091 
L 790.211249 458.016362 
L 798.24453 466.884537 
L 800.92229 468.91537 
L 803.600051 469.182505 
L 806.277811 466.031312 
L 808.955571 460.041439 
L 816.988852 461.242809 
L 819.666613 457.539147 
L 825.022133 452.553444 
L 827.699894 449.173499 
L 835.733175 447.910464 
L 838.410935 462.335126 
L 841.088695 475.761222 
L 843.766456 495.195793 
L 846.444216 504.83589 
L 854.477497 516.87129 
L 857.155258 519.889611 
L 859.833018 523.538363 
L 862.510778 534.675724 
L 865.188539 552.708688 
L 873.22182 563.495244 
L 875.89958 570.838467 
L 881.255101 572.869956 
L 883.932861 573.004332 
L 891.966142 565.1576 
L 894.643902 556.808645 
L 897.321663 549.316735 
L 899.999423 545.481681 
L 902.677183 541.100804 
L 910.710465 531.339416 
L 916.065985 529.69769 
L 918.743746 522.166096 
L 921.421506 513.340827 
L 929.454787 505.093007 
L 932.132547 498.33901 
L 934.810308 494.091719 
L 937.488068 492.469125 
L 940.165828 491.326984 
L 940.165828 491.326984 
" clip-path="url(#p362676def3)" style="fill: none; stroke: #1f77b4; stroke-width: 1.5; stroke-linecap: square"/>
   </g>
   <g id="line2d_86">
    <path d="M 85.960278 462.231937 
L 91.315798 462.544061 
L 93.993559 463.127273 
L 96.671319 464.311657 
L 104.7046 466.072252 
L 107.38236 467.625772 
L 110.060121 468.981538 
L 112.737881 471.062892 
L 115.415641 472.714722 
L 123.448922 474.520253 
L 126.126683 476.713339 
L 131.482203 481.521726 
L 134.159964 486.066024 
L 142.193245 493.797927 
L 144.871005 502.735203 
L 150.226526 513.238223 
L 152.904286 524.081435 
L 160.937567 532.762636 
L 163.615328 539.335235 
L 166.293088 543.197035 
L 168.970848 545.112951 
L 171.648609 545.408557 
L 179.68189 545.077608 
L 182.35965 544.513181 
L 185.03741 542.113872 
L 187.715171 538.704742 
L 190.392931 536.533293 
L 198.426212 535.864575 
L 201.103972 534.567182 
L 203.781733 532.069941 
L 206.459493 528.770049 
L 209.137254 525.233105 
L 217.170535 521.595987 
L 222.526055 514.204812 
L 225.203816 513.059186 
L 227.881576 512.496263 
L 235.914857 511.446654 
L 241.270378 511.670887 
L 243.948138 514.549525 
L 246.625898 519.728136 
L 254.659179 526.47842 
L 257.33694 533.563221 
L 260.0147 539.543949 
L 262.69246 542.762304 
L 265.370221 545.481531 
L 273.403502 547.414628 
L 276.081262 549.177267 
L 278.759023 548.078263 
L 281.436783 544.559239 
L 292.147824 539.972973 
L 294.825585 535.336639 
L 297.503345 529.997513 
L 300.181105 524.12429 
L 302.858866 517.973542 
L 310.892147 512.690126 
L 316.247667 501.464028 
L 318.925428 496.073643 
L 321.603188 490.05946 
L 329.636469 483.575943 
L 332.314229 473.493085 
L 337.66975 450.270483 
L 340.347511 438.239708 
L 348.380792 426.353425 
L 351.058552 416.15529 
L 353.736312 406.831305 
L 367.125114 398.389648 
L 369.802874 390.812939 
L 375.158395 376.480827 
L 377.836155 369.942538 
L 385.869436 365.056974 
L 388.547197 360.576275 
L 391.224957 357.274817 
L 393.902717 355.074129 
L 396.580478 354.167514 
L 404.613759 355.378459 
L 409.96928 359.796896 
L 412.64704 366.407527 
L 415.3248 374.750902 
L 423.358081 385.006158 
L 431.391362 417.057339 
L 434.069123 426.449991 
L 442.102404 434.346546 
L 444.780164 440.186143 
L 447.457924 444.949327 
L 450.135685 450.095219 
L 452.813445 454.578446 
L 460.846726 457.685146 
L 463.524487 461.058305 
L 466.202247 463.881578 
L 468.880007 468.82754 
L 471.557768 474.432368 
L 479.591049 478.453933 
L 484.946569 485.419743 
L 487.62433 489.526335 
L 490.30209 494.459487 
L 498.335371 499.902055 
L 501.013131 506.045847 
L 503.690892 513.304555 
L 506.368652 519.704742 
L 509.046412 525.497684 
L 517.079693 531.889908 
L 519.757454 536.77999 
L 525.112974 544.595882 
L 527.790735 549.152324 
L 535.824016 553.622683 
L 538.501776 555.990661 
L 541.179537 556.920261 
L 543.857297 556.896334 
L 546.535057 555.588897 
L 554.568338 553.538378 
L 557.246099 550.729716 
L 562.601619 544.665416 
L 565.27938 540.866531 
L 573.312661 535.635617 
L 575.990421 528.504945 
L 578.668181 518.553162 
L 581.345942 506.078093 
L 584.023702 492.734945 
L 592.056983 479.214234 
L 594.734744 466.409431 
L 597.412504 454.361539 
L 602.768025 431.624475 
L 610.801306 420.976212 
L 613.479066 411.4943 
L 616.156826 404.994423 
L 618.834587 399.275089 
L 621.512347 395.90014 
L 629.545628 394.329641 
L 632.223388 394.855105 
L 634.901149 396.337357 
L 637.578909 398.295379 
L 640.256669 399.480915 
L 648.28995 398.481575 
L 653.645471 393.892435 
L 656.323232 390.428845 
L 659.000992 387.535931 
L 667.034273 384.603965 
L 672.389794 381.790981 
L 675.067554 379.420346 
L 677.745314 378.150659 
L 688.456356 377.63512 
L 691.134116 375.633072 
L 696.489637 369.557498 
L 704.522918 369.866751 
L 707.200678 372.239713 
L 712.556199 379.153056 
L 715.233959 382.158616 
L 723.26724 383.955284 
L 725.945001 382.860143 
L 731.300521 380.493495 
L 733.978282 377.762722 
L 742.011563 375.254936 
L 744.689323 373.283625 
L 747.367083 372.460692 
L 750.044844 373.460268 
L 752.722604 375.881487 
L 760.755885 377.532894 
L 763.433645 379.039351 
L 766.111406 381.020816 
L 768.789166 383.857249 
L 771.466926 389.849858 
L 779.500207 397.163162 
L 790.211249 427.777054 
L 798.24453 435.59855 
L 800.92229 442.261914 
L 803.600051 447.646032 
L 806.277811 451.323088 
L 808.955571 453.066759 
L 819.666613 455.269404 
L 825.022133 454.726212 
L 827.699894 453.615669 
L 835.733175 452.474628 
L 838.410935 454.446728 
L 841.088695 458.709627 
L 843.766456 466.00686 
L 846.444216 473.772666 
L 854.477497 482.392391 
L 857.155258 489.891835 
L 859.833018 496.621141 
L 862.510778 504.232057 
L 865.188539 513.927383 
L 873.22182 523.840956 
L 875.89958 533.240458 
L 881.255101 541.166358 
L 883.932861 547.533953 
L 894.643902 552.208674 
L 897.321663 551.630287 
L 899.999423 550.400565 
L 902.677183 548.540613 
L 910.710465 545.100374 
L 916.065985 542.019837 
L 918.743746 538.049089 
L 921.421506 533.107436 
L 929.454787 527.504551 
L 932.132547 521.671442 
L 934.810308 516.155498 
L 937.488068 511.418223 
L 940.165828 507.399975 
L 940.165828 507.399975 
" clip-path="url(#p362676def3)" style="fill: none; stroke: #ff7f0e; stroke-width: 1.5; stroke-linecap: square"/>
   </g>
   <g id="patch_9">
    <path d="M 43.25 584.521875 
L 43.25 331.135938 
" style="fill: none; stroke: #000000; stroke-width: 0.8; stroke-linejoin: miter; stroke-linecap: square"/>
   </g>
   <g id="patch_10">
    <path d="M 982.876106 584.521875 
L 982.876106 331.135938 
" style="fill: none; stroke: #000000; stroke-width: 0.8; stroke-linejoin: miter; stroke-linecap: square"/>
   </g>
   <g id="patch_11">
    <path d="M 43.25 584.521875 
L 982.876106 584.521875 
" style="fill: none; stroke: #000000; stroke-width: 0.8; stroke-linejoin: miter; stroke-linecap: square"/>
   </g>
   <g id="patch_12">
    <path d="M 43.25 331.135938 
L 982.876106 331.135938 
" style="fill: none; stroke: #000000; stroke-width: 0.8; stroke-linejoin: miter; stroke-linecap: square"/>
   </g>
   <g id="text_32">
    <!-- MACD -->
    <g transform="translate(495.077115 325.135938)scale(0.12 -0.12)">
     <defs>
      <path id="DejaVuSans-44" d="M 1259 4147 
L 1259 519 
L 2022 519 
Q 2988 519 3436 956 
Q 3884 1394 3884 2338 
Q 3884 3275 3436 3711 
Q 2988 4147 2022 4147 
L 1259 4147 
z
M 628 4666 
L 1925 4666 
Q 3281 4666 3915 4102 
Q 4550 3538 4550 2338 
Q 4550 1131 3912 565 
Q 3275 0 1925 0 
L 628 0 
L 628 4666 
z
" transform="scale(0.015625)"/>
     </defs>
     <use xlink:href="#DejaVuSans-4d"/>
     <use xlink:href="#DejaVuSans-41" x="86.279297"/>
     <use xlink:href="#DejaVuSans-43" x="152.9375"/>
     <use xlink:href="#DejaVuSans-44" x="222.761719"/>
    </g>
   </g>
   <g id="legend_2">
    <g id="patch_13">
     <path d="M 913.899543 368.492188 
L 975.876106 368.492188 
Q 977.876106 368.492188 977.876106 366.492188 
L 977.876106 338.135938 
Q 977.876106 336.135938 975.876106 336.135938 
L 913.899543 336.135938 
Q 911.899543 336.135938 911.899543 338.135938 
L 911.899543 366.492188 
Q 911.899543 368.492188 913.899543 368.492188 
z
" style="fill: #ffffff; opacity: 0.8; stroke: #cccccc; stroke-linejoin: miter"/>
    </g>
    <g id="line2d_87">
     <path d="M 915.899543 344.234375 
L 925.899543 344.234375 
L 935.899543 344.234375 
" style="fill: none; stroke: #1f77b4; stroke-width: 1.5; stroke-linecap: square"/>
    </g>
    <g id="text_33">
     <!-- MACD -->
     <g transform="translate(943.899543 347.734375)scale(0.1 -0.1)">
      <use xlink:href="#DejaVuSans-4d"/>
      <use xlink:href="#DejaVuSans-41" x="86.279297"/>
      <use xlink:href="#DejaVuSans-43" x="152.9375"/>
      <use xlink:href="#DejaVuSans-44" x="222.761719"/>
     </g>
    </g>
    <g id="line2d_88">
     <path d="M 915.899543 358.9125 
L 925.899543 358.9125 
L 935.899543 358.9125 
" style="fill: none; stroke: #ff7f0e; stroke-width: 1.5; stroke-linecap: square"/>
    </g>
    <g id="text_34">
     <!-- SIG -->
     <g transform="translate(943.899543 362.4125)scale(0.1 -0.1)">
      <defs>
       <path id="DejaVuSans-49" d="M 628 4666 
L 1259 4666 
L 1259 0 
L 628 0 
L 628 4666 
z
" transform="scale(0.015625)"/>
       <path id="DejaVuSans-47" d="M 3809 666 
L 3809 1919 
L 2778 1919 
L 2778 2438 
L 4434 2438 
L 4434 434 
Q 4069 175 3628 42 
Q 3188 -91 2688 -91 
Q 1594 -91 976 548 
Q 359 1188 359 2328 
Q 359 3472 976 4111 
Q 1594 4750 2688 4750 
Q 3144 4750 3555 4637 
Q 3966 4525 4313 4306 
L 4313 3634 
Q 3963 3931 3569 4081 
Q 3175 4231 2741 4231 
Q 1884 4231 1454 3753 
Q 1025 3275 1025 2328 
Q 1025 1384 1454 906 
Q 1884 428 2741 428 
Q 3075 428 3337 486 
Q 3600 544 3809 666 
z
" transform="scale(0.015625)"/>
      </defs>
      <use xlink:href="#DejaVuSans-53"/>
      <use xlink:href="#DejaVuSans-49" x="63.476562"/>
      <use xlink:href="#DejaVuSans-47" x="92.96875"/>
     </g>
    </g>
   </g>
  </g>
  <g id="text_35">
   <!-- Havells India Limited -->
   <g transform="translate(441.195 21.358125)scale(0.12 -0.12)">
    <defs>
     <path id="DejaVuSans-48" d="M 628 4666 
L 1259 4666 
L 1259 2753 
L 3553 2753 
L 3553 4666 
L 4184 4666 
L 4184 0 
L 3553 0 
L 3553 2222 
L 1259 2222 
L 1259 0 
L 628 0 
L 628 4666 
z
" transform="scale(0.015625)"/>
     <path id="DejaVuSans-61" d="M 2194 1759 
Q 1497 1759 1228 1600 
Q 959 1441 959 1056 
Q 959 750 1161 570 
Q 1363 391 1709 391 
Q 2188 391 2477 730 
Q 2766 1069 2766 1631 
L 2766 1759 
L 2194 1759 
z
M 3341 1997 
L 3341 0 
L 2766 0 
L 2766 531 
Q 2569 213 2275 61 
Q 1981 -91 1556 -91 
Q 1019 -91 701 211 
Q 384 513 384 1019 
Q 384 1609 779 1909 
Q 1175 2209 1959 2209 
L 2766 2209 
L 2766 2266 
Q 2766 2663 2505 2880 
Q 2244 3097 1772 3097 
Q 1472 3097 1187 3025 
Q 903 2953 641 2809 
L 641 3341 
Q 956 3463 1253 3523 
Q 1550 3584 1831 3584 
Q 2591 3584 2966 3190 
Q 3341 2797 3341 1997 
z
" transform="scale(0.015625)"/>
     <path id="DejaVuSans-76" d="M 191 3500 
L 800 3500 
L 1894 563 
L 2988 3500 
L 3597 3500 
L 2284 0 
L 1503 0 
L 191 3500 
z
" transform="scale(0.015625)"/>
     <path id="DejaVuSans-64" d="M 2906 2969 
L 2906 4863 
L 3481 4863 
L 3481 0 
L 2906 0 
L 2906 525 
Q 2725 213 2448 61 
Q 2172 -91 1784 -91 
Q 1150 -91 751 415 
Q 353 922 353 1747 
Q 353 2572 751 3078 
Q 1150 3584 1784 3584 
Q 2172 3584 2448 3432 
Q 2725 3281 2906 2969 
z
M 947 1747 
Q 947 1113 1208 752 
Q 1469 391 1925 391 
Q 2381 391 2643 752 
Q 2906 1113 2906 1747 
Q 2906 2381 2643 2742 
Q 2381 3103 1925 3103 
Q 1469 3103 1208 2742 
Q 947 2381 947 1747 
z
" transform="scale(0.015625)"/>
     <path id="DejaVuSans-6d" d="M 3328 2828 
Q 3544 3216 3844 3400 
Q 4144 3584 4550 3584 
Q 5097 3584 5394 3201 
Q 5691 2819 5691 2113 
L 5691 0 
L 5113 0 
L 5113 2094 
Q 5113 2597 4934 2840 
Q 4756 3084 4391 3084 
Q 3944 3084 3684 2787 
Q 3425 2491 3425 1978 
L 3425 0 
L 2847 0 
L 2847 2094 
Q 2847 2600 2669 2842 
Q 2491 3084 2119 3084 
Q 1678 3084 1418 2786 
Q 1159 2488 1159 1978 
L 1159 0 
L 581 0 
L 581 3500 
L 1159 3500 
L 1159 2956 
Q 1356 3278 1631 3431 
Q 1906 3584 2284 3584 
Q 2666 3584 2933 3390 
Q 3200 3197 3328 2828 
z
" transform="scale(0.015625)"/>
     <path id="DejaVuSans-74" d="M 1172 4494 
L 1172 3500 
L 2356 3500 
L 2356 3053 
L 1172 3053 
L 1172 1153 
Q 1172 725 1289 603 
Q 1406 481 1766 481 
L 2356 481 
L 2356 0 
L 1766 0 
Q 1100 0 847 248 
Q 594 497 594 1153 
L 594 3053 
L 172 3053 
L 172 3500 
L 594 3500 
L 594 4494 
L 1172 4494 
z
" transform="scale(0.015625)"/>
    </defs>
    <use xlink:href="#DejaVuSans-48"/>
    <use xlink:href="#DejaVuSans-61" x="75.195312"/>
    <use xlink:href="#DejaVuSans-76" x="136.474609"/>
    <use xlink:href="#DejaVuSans-65" x="195.654297"/>
    <use xlink:href="#DejaVuSans-6c" x="257.177734"/>
    <use xlink:href="#DejaVuSans-6c" x="284.960938"/>
    <use xlink:href="#DejaVuSans-73" x="312.744141"/>
    <use xlink:href="#DejaVuSans-20" x="364.84375"/>
    <use xlink:href="#DejaVuSans-49" x="396.630859"/>
    <use xlink:href="#DejaVuSans-6e" x="426.123047"/>
    <use xlink:href="#DejaVuSans-64" x="489.501953"/>
    <use xlink:href="#DejaVuSans-69" x="552.978516"/>
    <use xlink:href="#DejaVuSans-61" x="580.761719"/>
    <use xlink:href="#DejaVuSans-20" x="642.041016"/>
    <use xlink:href="#DejaVuSans-4c" x="673.828125"/>
    <use xlink:href="#DejaVuSans-69" x="729.541016"/>
    <use xlink:href="#DejaVuSans-6d" x="757.324219"/>
    <use xlink:href="#DejaVuSans-69" x="854.736328"/>
    <use xlink:href="#DejaVuSans-74" x="882.519531"/>
    <use xlink:href="#DejaVuSans-65" x="921.728516"/>
    <use xlink:href="#DejaVuSans-64" x="983.251953"/>
   </g>
  </g>
 </g>
 <defs>
  <clipPath id="p1b74485cb0">
   <rect x="43.25" y="48.331875" width="939.626106" height="253.385938"/>
  </clipPath>
  <clipPath id="p362676def3">
   <rect x="43.25" y="331.135938" width="939.626106" height="253.385937"/>
  </clipPath>
 </defs>
</svg>
