<?xml version="1.0" encoding="utf-8" standalone="no"?>
<!DOCTYPE svg PUBLIC "-//W3C//DTD SVG 1.1//EN"
  "http://www.w3.org/Graphics/SVG/1.1/DTD/svg11.dtd">
<svg xmlns:xlink="http://www.w3.org/1999/xlink" width="1008pt" height="612pt" viewBox="0 0 1008 612" xmlns="http://www.w3.org/2000/svg" version="1.1">
 <metadata>
  <rdf:RDF xmlns:dc="http://purl.org/dc/elements/1.1/" xmlns:cc="http://creativecommons.org/ns#" xmlns:rdf="http://www.w3.org/1999/02/22-rdf-syntax-ns#">
   <cc:Work>
    <dc:type rdf:resource="http://purl.org/dc/dcmitype/StillImage"/>
    <dc:date>2022-11-20T19:47:19.502032</dc:date>
    <dc:format>image/svg+xml</dc:format>
    <dc:creator>
     <cc:Agent>
      <dc:title>Matplotlib v3.5.2, https://matplotlib.org/</dc:title>
     </cc:Agent>
    </dc:creator>
   </cc:Work>
  </rdf:RDF>
 </metadata>
 <defs>
  <style type="text/css">*{stroke-linejoin: round; stroke-linecap: butt}</style>
 </defs>
 <g id="figure_1">
  <g id="patch_1">
   <path d="M 0 612 
L 1008 612 
L 1008 0 
L 0 0 
z
" style="fill: #ffffff"/>
  </g>
  <g id="axes_1">
   <g id="patch_2">
    <path d="M 38.904688 301.717812 
L 982.876106 301.717812 
L 982.876106 48.331875 
L 38.904688 48.331875 
z
" style="fill: #ffffff"/>
   </g>
   <g id="matplotlib.axis_1">
    <g id="xtick_1">
     <g id="line2d_1">
      <path d="M 76.432192 301.717812 
L 76.432192 48.331875 
" clip-path="url(#p474bbe55d9)" style="fill: none; stroke-dasharray: 2.96,1.28; stroke-dashoffset: 0; stroke: #b0b0b0; stroke-width: 0.8"/>
     </g>
     <g id="line2d_2">
      <defs>
       <path id="m9b78e87be9" d="M 0 0 
L 0 3.5 
" style="stroke: #000000; stroke-width: 0.8"/>
      </defs>
      <g>
       <use xlink:href="#m9b78e87be9" x="76.432192" y="301.717812" style="stroke: #000000; stroke-width: 0.8"/>
      </g>
     </g>
    </g>
    <g id="xtick_2">
     <g id="line2d_3">
      <path d="M 159.826646 301.717812 
L 159.826646 48.331875 
" clip-path="url(#p474bbe55d9)" style="fill: none; stroke-dasharray: 2.96,1.28; stroke-dashoffset: 0; stroke: #b0b0b0; stroke-width: 0.8"/>
     </g>
     <g id="line2d_4">
      <g>
       <use xlink:href="#m9b78e87be9" x="159.826646" y="301.717812" style="stroke: #000000; stroke-width: 0.8"/>
      </g>
     </g>
    </g>
    <g id="xtick_3">
     <g id="line2d_5">
      <path d="M 235.150669 301.717812 
L 235.150669 48.331875 
" clip-path="url(#p474bbe55d9)" style="fill: none; stroke-dasharray: 2.96,1.28; stroke-dashoffset: 0; stroke: #b0b0b0; stroke-width: 0.8"/>
     </g>
     <g id="line2d_6">
      <g>
       <use xlink:href="#m9b78e87be9" x="235.150669" y="301.717812" style="stroke: #000000; stroke-width: 0.8"/>
      </g>
     </g>
    </g>
    <g id="xtick_4">
     <g id="line2d_7">
      <path d="M 318.545123 301.717812 
L 318.545123 48.331875 
" clip-path="url(#p474bbe55d9)" style="fill: none; stroke-dasharray: 2.96,1.28; stroke-dashoffset: 0; stroke: #b0b0b0; stroke-width: 0.8"/>
     </g>
     <g id="line2d_8">
      <g>
       <use xlink:href="#m9b78e87be9" x="318.545123" y="301.717812" style="stroke: #000000; stroke-width: 0.8"/>
      </g>
     </g>
    </g>
    <g id="xtick_5">
     <g id="line2d_9">
      <path d="M 399.249434 301.717812 
L 399.249434 48.331875 
" clip-path="url(#p474bbe55d9)" style="fill: none; stroke-dasharray: 2.96,1.28; stroke-dashoffset: 0; stroke: #b0b0b0; stroke-width: 0.8"/>
     </g>
     <g id="line2d_10">
      <g>
       <use xlink:href="#m9b78e87be9" x="399.249434" y="301.717812" style="stroke: #000000; stroke-width: 0.8"/>
      </g>
     </g>
    </g>
    <g id="xtick_6">
     <g id="line2d_11">
      <path d="M 482.643888 301.717812 
L 482.643888 48.331875 
" clip-path="url(#p474bbe55d9)" style="fill: none; stroke-dasharray: 2.96,1.28; stroke-dashoffset: 0; stroke: #b0b0b0; stroke-width: 0.8"/>
     </g>
     <g id="line2d_12">
      <g>
       <use xlink:href="#m9b78e87be9" x="482.643888" y="301.717812" style="stroke: #000000; stroke-width: 0.8"/>
      </g>
     </g>
    </g>
    <g id="xtick_7">
     <g id="line2d_13">
      <path d="M 563.348198 301.717812 
L 563.348198 48.331875 
" clip-path="url(#p474bbe55d9)" style="fill: none; stroke-dasharray: 2.96,1.28; stroke-dashoffset: 0; stroke: #b0b0b0; stroke-width: 0.8"/>
     </g>
     <g id="line2d_14">
      <g>
       <use xlink:href="#m9b78e87be9" x="563.348198" y="301.717812" style="stroke: #000000; stroke-width: 0.8"/>
      </g>
     </g>
    </g>
    <g id="xtick_8">
     <g id="line2d_15">
      <path d="M 646.742653 301.717812 
L 646.742653 48.331875 
" clip-path="url(#p474bbe55d9)" style="fill: none; stroke-dasharray: 2.96,1.28; stroke-dashoffset: 0; stroke: #b0b0b0; stroke-width: 0.8"/>
     </g>
     <g id="line2d_16">
      <g>
       <use xlink:href="#m9b78e87be9" x="646.742653" y="301.717812" style="stroke: #000000; stroke-width: 0.8"/>
      </g>
     </g>
    </g>
    <g id="xtick_9">
     <g id="line2d_17">
      <path d="M 730.137107 301.717812 
L 730.137107 48.331875 
" clip-path="url(#p474bbe55d9)" style="fill: none; stroke-dasharray: 2.96,1.28; stroke-dashoffset: 0; stroke: #b0b0b0; stroke-width: 0.8"/>
     </g>
     <g id="line2d_18">
      <g>
       <use xlink:href="#m9b78e87be9" x="730.137107" y="301.717812" style="stroke: #000000; stroke-width: 0.8"/>
      </g>
     </g>
    </g>
    <g id="xtick_10">
     <g id="line2d_19">
      <path d="M 810.841417 301.717812 
L 810.841417 48.331875 
" clip-path="url(#p474bbe55d9)" style="fill: none; stroke-dasharray: 2.96,1.28; stroke-dashoffset: 0; stroke: #b0b0b0; stroke-width: 0.8"/>
     </g>
     <g id="line2d_20">
      <g>
       <use xlink:href="#m9b78e87be9" x="810.841417" y="301.717812" style="stroke: #000000; stroke-width: 0.8"/>
      </g>
     </g>
    </g>
    <g id="xtick_11">
     <g id="line2d_21">
      <path d="M 894.235872 301.717812 
L 894.235872 48.331875 
" clip-path="url(#p474bbe55d9)" style="fill: none; stroke-dasharray: 2.96,1.28; stroke-dashoffset: 0; stroke: #b0b0b0; stroke-width: 0.8"/>
     </g>
     <g id="line2d_22">
      <g>
       <use xlink:href="#m9b78e87be9" x="894.235872" y="301.717812" style="stroke: #000000; stroke-width: 0.8"/>
      </g>
     </g>
    </g>
    <g id="xtick_12">
     <g id="line2d_23">
      <path d="M 974.940182 301.717812 
L 974.940182 48.331875 
" clip-path="url(#p474bbe55d9)" style="fill: none; stroke-dasharray: 2.96,1.28; stroke-dashoffset: 0; stroke: #b0b0b0; stroke-width: 0.8"/>
     </g>
     <g id="line2d_24">
      <g>
       <use xlink:href="#m9b78e87be9" x="974.940182" y="301.717812" style="stroke: #000000; stroke-width: 0.8"/>
      </g>
     </g>
    </g>
   </g>
   <g id="matplotlib.axis_2">
    <g id="ytick_1">
     <g id="line2d_25">
      <path d="M 38.904688 285.834722 
L 982.876106 285.834722 
" clip-path="url(#p474bbe55d9)" style="fill: none; stroke-dasharray: 2.96,1.28; stroke-dashoffset: 0; stroke: #b0b0b0; stroke-width: 0.8"/>
     </g>
     <g id="line2d_26">
      <defs>
       <path id="mf283436710" d="M 0 0 
L -3.5 0 
" style="stroke: #000000; stroke-width: 0.8"/>
      </defs>
      <g>
       <use xlink:href="#mf283436710" x="38.904688" y="285.834722" style="stroke: #000000; stroke-width: 0.8"/>
      </g>
     </g>
     <g id="text_1">
      <!-- 450 -->
      <g transform="translate(12.817187 289.633941)scale(0.1 -0.1)">
       <defs>
        <path id="DejaVuSans-34" d="M 2419 4116 
L 825 1625 
L 2419 1625 
L 2419 4116 
z
M 2253 4666 
L 3047 4666 
L 3047 1625 
L 3713 1625 
L 3713 1100 
L 3047 1100 
L 3047 0 
L 2419 0 
L 2419 1100 
L 313 1100 
L 313 1709 
L 2253 4666 
z
" transform="scale(0.015625)"/>
        <path id="DejaVuSans-35" d="M 691 4666 
L 3169 4666 
L 3169 4134 
L 1269 4134 
L 1269 2991 
Q 1406 3038 1543 3061 
Q 1681 3084 1819 3084 
Q 2600 3084 3056 2656 
Q 3513 2228 3513 1497 
Q 3513 744 3044 326 
Q 2575 -91 1722 -91 
Q 1428 -91 1123 -41 
Q 819 9 494 109 
L 494 744 
Q 775 591 1075 516 
Q 1375 441 1709 441 
Q 2250 441 2565 725 
Q 2881 1009 2881 1497 
Q 2881 1984 2565 2268 
Q 2250 2553 1709 2553 
Q 1456 2553 1204 2497 
Q 953 2441 691 2322 
L 691 4666 
z
" transform="scale(0.015625)"/>
        <path id="DejaVuSans-30" d="M 2034 4250 
Q 1547 4250 1301 3770 
Q 1056 3291 1056 2328 
Q 1056 1369 1301 889 
Q 1547 409 2034 409 
Q 2525 409 2770 889 
Q 3016 1369 3016 2328 
Q 3016 3291 2770 3770 
Q 2525 4250 2034 4250 
z
M 2034 4750 
Q 2819 4750 3233 4129 
Q 3647 3509 3647 2328 
Q 3647 1150 3233 529 
Q 2819 -91 2034 -91 
Q 1250 -91 836 529 
Q 422 1150 422 2328 
Q 422 3509 836 4129 
Q 1250 4750 2034 4750 
z
" transform="scale(0.015625)"/>
       </defs>
       <use xlink:href="#DejaVuSans-34"/>
       <use xlink:href="#DejaVuSans-35" x="63.623047"/>
       <use xlink:href="#DejaVuSans-30" x="127.246094"/>
      </g>
     </g>
    </g>
    <g id="ytick_2">
     <g id="line2d_27">
      <path d="M 38.904688 251.728881 
L 982.876106 251.728881 
" clip-path="url(#p474bbe55d9)" style="fill: none; stroke-dasharray: 2.96,1.28; stroke-dashoffset: 0; stroke: #b0b0b0; stroke-width: 0.8"/>
     </g>
     <g id="line2d_28">
      <g>
       <use xlink:href="#mf283436710" x="38.904688" y="251.728881" style="stroke: #000000; stroke-width: 0.8"/>
      </g>
     </g>
     <g id="text_2">
      <!-- 475 -->
      <g transform="translate(12.817187 255.5281)scale(0.1 -0.1)">
       <defs>
        <path id="DejaVuSans-37" d="M 525 4666 
L 3525 4666 
L 3525 4397 
L 1831 0 
L 1172 0 
L 2766 4134 
L 525 4134 
L 525 4666 
z
" transform="scale(0.015625)"/>
       </defs>
       <use xlink:href="#DejaVuSans-34"/>
       <use xlink:href="#DejaVuSans-37" x="63.623047"/>
       <use xlink:href="#DejaVuSans-35" x="127.246094"/>
      </g>
     </g>
    </g>
    <g id="ytick_3">
     <g id="line2d_29">
      <path d="M 38.904688 217.62304 
L 982.876106 217.62304 
" clip-path="url(#p474bbe55d9)" style="fill: none; stroke-dasharray: 2.96,1.28; stroke-dashoffset: 0; stroke: #b0b0b0; stroke-width: 0.8"/>
     </g>
     <g id="line2d_30">
      <g>
       <use xlink:href="#mf283436710" x="38.904688" y="217.62304" style="stroke: #000000; stroke-width: 0.8"/>
      </g>
     </g>
     <g id="text_3">
      <!-- 500 -->
      <g transform="translate(12.817187 221.422258)scale(0.1 -0.1)">
       <use xlink:href="#DejaVuSans-35"/>
       <use xlink:href="#DejaVuSans-30" x="63.623047"/>
       <use xlink:href="#DejaVuSans-30" x="127.246094"/>
      </g>
     </g>
    </g>
    <g id="ytick_4">
     <g id="line2d_31">
      <path d="M 38.904688 183.517198 
L 982.876106 183.517198 
" clip-path="url(#p474bbe55d9)" style="fill: none; stroke-dasharray: 2.96,1.28; stroke-dashoffset: 0; stroke: #b0b0b0; stroke-width: 0.8"/>
     </g>
     <g id="line2d_32">
      <g>
       <use xlink:href="#mf283436710" x="38.904688" y="183.517198" style="stroke: #000000; stroke-width: 0.8"/>
      </g>
     </g>
     <g id="text_4">
      <!-- 525 -->
      <g transform="translate(12.817187 187.316417)scale(0.1 -0.1)">
       <defs>
        <path id="DejaVuSans-32" d="M 1228 531 
L 3431 531 
L 3431 0 
L 469 0 
L 469 531 
Q 828 903 1448 1529 
Q 2069 2156 2228 2338 
Q 2531 2678 2651 2914 
Q 2772 3150 2772 3378 
Q 2772 3750 2511 3984 
Q 2250 4219 1831 4219 
Q 1534 4219 1204 4116 
Q 875 4013 500 3803 
L 500 4441 
Q 881 4594 1212 4672 
Q 1544 4750 1819 4750 
Q 2544 4750 2975 4387 
Q 3406 4025 3406 3419 
Q 3406 3131 3298 2873 
Q 3191 2616 2906 2266 
Q 2828 2175 2409 1742 
Q 1991 1309 1228 531 
z
" transform="scale(0.015625)"/>
       </defs>
       <use xlink:href="#DejaVuSans-35"/>
       <use xlink:href="#DejaVuSans-32" x="63.623047"/>
       <use xlink:href="#DejaVuSans-35" x="127.246094"/>
      </g>
     </g>
    </g>
    <g id="ytick_5">
     <g id="line2d_33">
      <path d="M 38.904688 149.411357 
L 982.876106 149.411357 
" clip-path="url(#p474bbe55d9)" style="fill: none; stroke-dasharray: 2.96,1.28; stroke-dashoffset: 0; stroke: #b0b0b0; stroke-width: 0.8"/>
     </g>
     <g id="line2d_34">
      <g>
       <use xlink:href="#mf283436710" x="38.904688" y="149.411357" style="stroke: #000000; stroke-width: 0.8"/>
      </g>
     </g>
     <g id="text_5">
      <!-- 550 -->
      <g transform="translate(12.817187 153.210576)scale(0.1 -0.1)">
       <use xlink:href="#DejaVuSans-35"/>
       <use xlink:href="#DejaVuSans-35" x="63.623047"/>
       <use xlink:href="#DejaVuSans-30" x="127.246094"/>
      </g>
     </g>
    </g>
    <g id="ytick_6">
     <g id="line2d_35">
      <path d="M 38.904688 115.305516 
L 982.876106 115.305516 
" clip-path="url(#p474bbe55d9)" style="fill: none; stroke-dasharray: 2.96,1.28; stroke-dashoffset: 0; stroke: #b0b0b0; stroke-width: 0.8"/>
     </g>
     <g id="line2d_36">
      <g>
       <use xlink:href="#mf283436710" x="38.904688" y="115.305516" style="stroke: #000000; stroke-width: 0.8"/>
      </g>
     </g>
     <g id="text_6">
      <!-- 575 -->
      <g transform="translate(12.817187 119.104734)scale(0.1 -0.1)">
       <use xlink:href="#DejaVuSans-35"/>
       <use xlink:href="#DejaVuSans-37" x="63.623047"/>
       <use xlink:href="#DejaVuSans-35" x="127.246094"/>
      </g>
     </g>
    </g>
    <g id="ytick_7">
     <g id="line2d_37">
      <path d="M 38.904688 81.199674 
L 982.876106 81.199674 
" clip-path="url(#p474bbe55d9)" style="fill: none; stroke-dasharray: 2.96,1.28; stroke-dashoffset: 0; stroke: #b0b0b0; stroke-width: 0.8"/>
     </g>
     <g id="line2d_38">
      <g>
       <use xlink:href="#mf283436710" x="38.904688" y="81.199674" style="stroke: #000000; stroke-width: 0.8"/>
      </g>
     </g>
     <g id="text_7">
      <!-- 600 -->
      <g transform="translate(12.817187 84.998893)scale(0.1 -0.1)">
       <defs>
        <path id="DejaVuSans-36" d="M 2113 2584 
Q 1688 2584 1439 2293 
Q 1191 2003 1191 1497 
Q 1191 994 1439 701 
Q 1688 409 2113 409 
Q 2538 409 2786 701 
Q 3034 994 3034 1497 
Q 3034 2003 2786 2293 
Q 2538 2584 2113 2584 
z
M 3366 4563 
L 3366 3988 
Q 3128 4100 2886 4159 
Q 2644 4219 2406 4219 
Q 1781 4219 1451 3797 
Q 1122 3375 1075 2522 
Q 1259 2794 1537 2939 
Q 1816 3084 2150 3084 
Q 2853 3084 3261 2657 
Q 3669 2231 3669 1497 
Q 3669 778 3244 343 
Q 2819 -91 2113 -91 
Q 1303 -91 875 529 
Q 447 1150 447 2328 
Q 447 3434 972 4092 
Q 1497 4750 2381 4750 
Q 2619 4750 2861 4703 
Q 3103 4656 3366 4563 
z
" transform="scale(0.015625)"/>
       </defs>
       <use xlink:href="#DejaVuSans-36"/>
       <use xlink:href="#DejaVuSans-30" x="63.623047"/>
       <use xlink:href="#DejaVuSans-30" x="127.246094"/>
      </g>
     </g>
    </g>
   </g>
   <g id="line2d_39">
    <path d="M 81.812479 125.946538 
L 84.502623 120.830662 
L 87.192767 114.964457 
L 89.88291 115.237304 
L 92.573054 103.300259 
L 100.643485 95.251281 
L 103.333629 104.255223 
L 106.023772 97.22942 
L 108.713916 93.818836 
L 111.40406 93.341354 
L 119.474491 59.849418 
L 122.164634 70.285805 
L 124.854778 116.942596 
L 127.544922 110.598909 
L 130.235066 111.82672 
L 138.305497 124.786939 
L 140.99564 140.884897 
L 146.375928 158.483511 
L 149.066071 155.755043 
L 157.136502 135.155115 
L 159.826646 140.475626 
L 162.51679 144.295481 
L 165.206933 157.323912 
L 167.897077 168.783475 
L 175.967508 186.313877 
L 178.657652 195.931724 
L 181.347796 196.068148 
L 184.037939 179.629132 
L 186.728083 194.021797 
L 194.798514 214.076032 
L 197.488658 207.936981 
L 200.178801 213.871397 
L 202.868945 193.203257 
L 205.559089 183.244352 
L 213.62952 203.230375 
L 216.319663 210.665448 
L 219.009807 216.599864 
L 221.699951 262.438115 
L 224.390094 248.386508 
L 232.460525 246.067311 
L 237.840813 234.26669 
L 240.530957 265.507641 
L 243.2211 283.242678 
L 251.291531 290.20027 
L 253.981675 286.994321 
L 256.671819 286.857897 
L 259.361962 272.397021 
L 262.052106 268.031473 
L 270.122537 267.553991 
L 272.812681 274.920853 
L 275.502824 260.5964 
L 278.192968 228.127639 
L 288.953543 248.386508 
L 291.643687 242.520304 
L 294.33383 248.181873 
L 299.714118 233.652785 
L 307.784549 246.681216 
L 310.474692 223.693879 
L 313.164836 217.281981 
L 315.85498 216.395229 
L 318.545123 206.70917 
L 326.615554 205.140302 
L 329.305698 206.504535 
L 331.995842 195.113184 
L 334.685985 188.223804 
L 337.376129 171.511942 
L 345.44656 166.941759 
L 348.136704 169.465592 
L 350.826848 161.68946 
L 364.277566 160.120591 
L 366.96771 196.068148 
L 369.657853 181.811906 
L 372.347997 173.217234 
L 375.038141 184.745009 
L 383.108572 194.499279 
L 385.798715 185.563549 
L 388.488859 192.248294 
L 391.179003 170.898037 
L 393.869146 182.494023 
L 401.939578 191.839024 
L 407.319865 202.138988 
L 410.010009 199.956214 
L 412.700152 203.912491 
L 420.770583 211.006506 
L 423.460727 218.987273 
L 426.150871 206.572747 
L 428.841014 232.834245 
L 431.531158 232.083916 
L 439.601589 217.213769 
L 442.291733 217.213769 
L 444.981876 213.939609 
L 447.67202 220.215083 
L 450.362164 199.205885 
L 458.432595 206.845594 
L 461.122739 207.459499 
L 463.812882 189.451615 
L 466.503026 178.196687 
L 469.19317 177.650994 
L 477.263601 176.150337 
L 479.953744 188.155593 
L 482.643888 152.276248 
L 485.334032 155.755043 
L 488.024175 150.502744 
L 496.094606 128.87964 
L 498.78475 141.02132 
L 501.474894 158.210664 
L 504.165037 131.267049 
L 506.855181 137.065042 
L 514.925612 159.984168 
L 517.615756 174.581468 
L 520.3059 184.199315 
L 522.996043 190.611213 
L 525.686187 207.664134 
L 533.756618 215.917747 
L 536.446762 214.348879 
L 539.136905 235.4945 
L 541.827049 221.511105 
L 544.517193 227.37731 
L 552.587624 224.92169 
L 555.277767 230.378624 
L 557.967911 241.292493 
L 560.658055 232.62961 
L 563.348198 217.281981 
L 571.41863 202.207199 
L 574.108773 217.009134 
L 576.798917 204.867455 
L 579.489061 187.678111 
L 582.179204 192.725775 
L 590.249635 187.678111 
L 592.939779 182.3576 
L 595.629923 183.721833 
L 598.320066 199.41052 
L 601.01021 194.294644 
L 609.080641 186.177454 
L 611.770785 189.110556 
L 614.460928 186.313877 
L 617.151072 175.672855 
L 619.841216 173.626504 
L 627.911647 173.899351 
L 630.601791 180.720519 
L 633.291934 178.128475 
L 635.982078 176.69603 
L 638.672222 144.500116 
L 646.742653 136.519349 
L 649.432796 158.210664 
L 652.12294 150.36632 
L 654.813084 135.564385 
L 657.503227 105.619457 
L 665.573658 122.331319 
L 670.953946 139.657086 
L 673.64409 153.026576 
L 676.334233 137.406101 
L 687.094808 111.349238 
L 689.784952 107.802231 
L 692.475095 89.794346 
L 695.165239 113.259165 
L 703.23567 112.23599 
L 705.925814 107.734019 
L 708.615957 102.481719 
L 711.306101 95.933398 
L 713.996245 92.318179 
L 722.066676 105.687668 
L 724.756819 88.566536 
L 730.137107 90.34004 
L 732.827251 90.885733 
L 740.897682 101.594967 
L 743.587825 93.20493 
L 746.277969 89.316865 
L 748.968113 90.681098 
L 751.658256 101.594967 
L 759.728687 96.274456 
L 762.418831 101.936026 
L 765.108975 110.598909 
L 767.799118 115.032669 
L 770.489262 140.748473 
L 778.559693 139.79351 
L 781.249837 134.404787 
L 783.939981 137.678948 
L 786.630124 145.250444 
L 789.320268 155.482197 
L 797.390699 169.670227 
L 800.080843 173.285446 
L 802.770986 173.012599 
L 805.46113 176.832453 
L 808.151274 182.221176 
L 816.221705 204.117126 
L 818.911848 180.925154 
L 824.292136 188.087381 
L 826.982279 186.791359 
L 835.05271 196.340995 
L 837.742854 205.617783 
L 840.432998 201.115812 
L 843.123142 216.463441 
L 845.813285 199.41052 
L 853.883716 204.389973 
L 856.57386 199.342309 
L 859.264004 206.436324 
L 861.954147 191.975447 
L 864.644291 203.980703 
L 872.714722 201.661506 
L 875.404866 212.438952 
L 880.785153 217.077346 
L 883.475297 214.689937 
L 891.545728 207.323075 
L 894.235872 189.997308 
L 896.926015 194.090009 
L 899.616159 191.497965 
L 902.306303 197.705228 
L 910.376734 199.751579 
L 915.757021 216.804499 
L 918.447165 232.493186 
L 921.137308 233.175303 
L 929.207739 237.268004 
L 931.897883 243.407056 
L 934.588027 251.728881 
L 937.27817 249.068625 
L 939.968314 258.959319 
L 939.968314 258.959319 
" clip-path="url(#p474bbe55d9)" style="fill: none; stroke: #1f77b4; stroke-width: 1.5; stroke-linecap: square"/>
   </g>
   <g id="line2d_40">
    <path d="M 92.573054 116.055844 
L 100.643485 109.916793 
L 103.333629 106.601705 
L 106.023772 103.054697 
L 108.713916 98.771004 
L 111.40406 96.779223 
L 119.474491 89.69885 
L 122.164634 82.904966 
L 124.854778 86.847602 
L 127.544922 90.203616 
L 130.235066 93.90069 
L 138.305497 106.888194 
L 140.99564 121.008012 
L 146.375928 129.316195 
L 149.066071 138.347422 
L 157.136502 143.013101 
L 159.826646 146.150838 
L 162.51679 146.832955 
L 165.206933 146.601036 
L 167.897077 149.206722 
L 175.967508 159.438474 
L 178.657652 170.529694 
L 181.347796 180.884227 
L 184.037939 185.345271 
L 186.728083 190.392936 
L 194.798514 195.945367 
L 197.488658 198.346418 
L 200.178801 201.907068 
L 202.868945 204.621893 
L 205.559089 202.466404 
L 213.62952 200.297272 
L 219.009807 201.388659 
L 221.699951 215.235631 
L 224.390094 228.264062 
L 232.460525 236.831449 
L 237.840813 241.551698 
L 240.530957 251.333253 
L 243.2211 255.494166 
L 251.291531 263.856918 
L 253.981675 272.04232 
L 256.671819 282.560561 
L 259.361962 283.938437 
L 262.052106 280.896196 
L 270.122537 276.366941 
L 272.812681 273.952247 
L 275.502824 268.699948 
L 278.192968 259.846071 
L 288.953543 255.917078 
L 291.643687 250.910341 
L 294.33383 245.562545 
L 297.023974 241.633552 
L 299.714118 242.738581 
L 307.784549 242.397523 
L 310.474692 238.632238 
L 313.164836 232.452259 
L 315.85498 227.541018 
L 318.545123 222.152295 
L 326.615554 213.844112 
L 329.305698 210.406244 
L 331.995842 205.972484 
L 334.685985 200.338199 
L 337.376129 193.298754 
L 345.44656 185.659045 
L 348.136704 178.251256 
L 350.826848 171.566511 
L 364.277566 165.945869 
L 366.96771 170.85711 
L 369.657853 173.831139 
L 372.347997 174.581468 
L 375.038141 179.192578 
L 383.108572 186.068315 
L 385.798715 183.967395 
L 388.488859 186.054673 
L 393.869146 185.140636 
L 401.939578 184.608585 
L 410.010009 189.465257 
L 412.700152 196.068148 
L 420.770583 201.770645 
L 423.460727 207.200294 
L 426.150871 208.087046 
L 428.841014 214.662653 
L 431.531158 220.296938 
L 439.601589 221.53839 
L 442.291733 221.183689 
L 444.981876 222.657062 
L 447.67202 220.133229 
L 450.362164 213.557623 
L 458.432595 211.483988 
L 461.122739 209.533134 
L 463.812882 204.635535 
L 466.503026 196.231856 
L 469.19317 191.920878 
L 477.263601 185.781826 
L 479.953744 181.921045 
L 482.643888 174.485971 
L 485.334032 169.997643 
L 488.024175 164.567993 
L 496.094606 155.113854 
L 498.78475 145.686999 
L 501.474894 146.873882 
L 504.165037 141.976284 
L 506.855181 139.288743 
L 514.925612 145.509649 
L 517.615756 152.221678 
L 520.3059 157.419408 
L 522.996043 169.288241 
L 525.686187 183.40806 
L 533.756618 194.594775 
L 536.446762 202.548258 
L 539.136905 212.807295 
L 541.827049 218.987273 
L 544.517193 222.929908 
L 552.587624 224.730697 
L 555.277767 227.936646 
L 557.967911 229.096245 
L 560.658055 231.319945 
L 563.348198 229.30088 
L 571.41863 224.757982 
L 574.108773 222.084084 
L 576.798917 214.799076 
L 579.489061 205.808776 
L 582.179204 200.897535 
L 590.249635 197.991717 
L 592.939779 191.06141 
L 595.629923 186.832286 
L 598.320066 189.178768 
L 601.01021 189.492542 
L 609.080641 189.19241 
L 611.770785 190.543002 
L 614.460928 191.06141 
L 617.151072 186.313877 
L 619.841216 182.180249 
L 627.911647 179.724629 
L 633.291934 176.409541 
L 635.982078 176.614176 
L 638.672222 170.788898 
L 646.742653 163.312898 
L 649.432796 158.810927 
L 652.12294 153.258496 
L 654.813084 145.032167 
L 657.503227 137.256035 
L 665.573658 134.418429 
L 670.953946 130.707714 
L 673.64409 131.239765 
L 676.334233 131.608108 
L 687.094808 132.754064 
L 689.784952 129.848246 
L 692.475095 119.875698 
L 695.165239 111.922216 
L 703.23567 106.888194 
L 705.925814 106.16515 
L 708.615957 105.101048 
L 711.306101 106.328858 
L 713.996245 102.140661 
L 722.066676 100.830997 
L 724.756819 96.9975 
L 730.137107 94.569164 
L 732.827251 93.559631 
L 740.897682 95.414989 
L 743.587825 92.918441 
L 748.968113 93.136719 
L 751.658256 95.278566 
L 759.728687 94.214463 
L 762.418831 95.960682 
L 765.108975 100.217091 
L 767.799118 105.087406 
L 770.489262 112.918107 
L 778.559693 121.621917 
L 781.249837 128.11567 
L 783.939981 133.531677 
L 786.630124 139.575232 
L 789.320268 142.521977 
L 797.390699 148.49732 
L 800.080843 156.273452 
L 802.770986 163.340183 
L 805.46113 169.656584 
L 808.151274 175.00438 
L 816.221705 181.89376 
L 824.292136 186.436658 
L 826.982279 188.428439 
L 835.05271 191.252403 
L 837.742854 191.552534 
L 840.432998 195.590666 
L 843.123142 201.265878 
L 845.813285 203.78971 
L 853.883716 205.399506 
L 856.57386 204.144411 
L 859.264004 205.208513 
L 861.954147 200.310915 
L 864.644291 201.224951 
L 872.714722 200.679258 
L 875.404866 203.298586 
L 880.785153 205.426791 
L 883.475297 209.969689 
L 891.545728 210.638163 
L 894.235872 208.305324 
L 896.926015 204.635535 
L 899.616159 199.519659 
L 902.306303 196.122717 
L 910.376734 194.608418 
L 915.757021 199.969856 
L 918.447165 207.650492 
L 921.137308 215.985959 
L 929.207739 223.898514 
L 931.897883 232.62961 
L 934.588027 239.614486 
L 937.27817 242.929574 
L 939.968314 248.086377 
L 939.968314 248.086377 
" clip-path="url(#p474bbe55d9)" style="fill: none; stroke: #ff7f0e; stroke-width: 1.5; stroke-linecap: square"/>
   </g>
   <g id="patch_3">
    <path d="M 38.904688 301.717812 
L 38.904688 48.331875 
" style="fill: none; stroke: #000000; stroke-width: 0.8; stroke-linejoin: miter; stroke-linecap: square"/>
   </g>
   <g id="patch_4">
    <path d="M 982.876106 301.717812 
L 982.876106 48.331875 
" style="fill: none; stroke: #000000; stroke-width: 0.8; stroke-linejoin: miter; stroke-linecap: square"/>
   </g>
   <g id="patch_5">
    <path d="M 38.904687 301.717812 
L 982.876106 301.717812 
" style="fill: none; stroke: #000000; stroke-width: 0.8; stroke-linejoin: miter; stroke-linecap: square"/>
   </g>
   <g id="patch_6">
    <path d="M 38.904687 48.331875 
L 982.876106 48.331875 
" style="fill: none; stroke: #000000; stroke-width: 0.8; stroke-linejoin: miter; stroke-linecap: square"/>
   </g>
   <g id="text_8">
    <!-- Closing Price -->
    <g transform="translate(472.414459 42.331875)scale(0.12 -0.12)">
     <defs>
      <path id="DejaVuSans-43" d="M 4122 4306 
L 4122 3641 
Q 3803 3938 3442 4084 
Q 3081 4231 2675 4231 
Q 1875 4231 1450 3742 
Q 1025 3253 1025 2328 
Q 1025 1406 1450 917 
Q 1875 428 2675 428 
Q 3081 428 3442 575 
Q 3803 722 4122 1019 
L 4122 359 
Q 3791 134 3420 21 
Q 3050 -91 2638 -91 
Q 1578 -91 968 557 
Q 359 1206 359 2328 
Q 359 3453 968 4101 
Q 1578 4750 2638 4750 
Q 3056 4750 3426 4639 
Q 3797 4528 4122 4306 
z
" transform="scale(0.015625)"/>
      <path id="DejaVuSans-6c" d="M 603 4863 
L 1178 4863 
L 1178 0 
L 603 0 
L 603 4863 
z
" transform="scale(0.015625)"/>
      <path id="DejaVuSans-6f" d="M 1959 3097 
Q 1497 3097 1228 2736 
Q 959 2375 959 1747 
Q 959 1119 1226 758 
Q 1494 397 1959 397 
Q 2419 397 2687 759 
Q 2956 1122 2956 1747 
Q 2956 2369 2687 2733 
Q 2419 3097 1959 3097 
z
M 1959 3584 
Q 2709 3584 3137 3096 
Q 3566 2609 3566 1747 
Q 3566 888 3137 398 
Q 2709 -91 1959 -91 
Q 1206 -91 779 398 
Q 353 888 353 1747 
Q 353 2609 779 3096 
Q 1206 3584 1959 3584 
z
" transform="scale(0.015625)"/>
      <path id="DejaVuSans-73" d="M 2834 3397 
L 2834 2853 
Q 2591 2978 2328 3040 
Q 2066 3103 1784 3103 
Q 1356 3103 1142 2972 
Q 928 2841 928 2578 
Q 928 2378 1081 2264 
Q 1234 2150 1697 2047 
L 1894 2003 
Q 2506 1872 2764 1633 
Q 3022 1394 3022 966 
Q 3022 478 2636 193 
Q 2250 -91 1575 -91 
Q 1294 -91 989 -36 
Q 684 19 347 128 
L 347 722 
Q 666 556 975 473 
Q 1284 391 1588 391 
Q 1994 391 2212 530 
Q 2431 669 2431 922 
Q 2431 1156 2273 1281 
Q 2116 1406 1581 1522 
L 1381 1569 
Q 847 1681 609 1914 
Q 372 2147 372 2553 
Q 372 3047 722 3315 
Q 1072 3584 1716 3584 
Q 2034 3584 2315 3537 
Q 2597 3491 2834 3397 
z
" transform="scale(0.015625)"/>
      <path id="DejaVuSans-69" d="M 603 3500 
L 1178 3500 
L 1178 0 
L 603 0 
L 603 3500 
z
M 603 4863 
L 1178 4863 
L 1178 4134 
L 603 4134 
L 603 4863 
z
" transform="scale(0.015625)"/>
      <path id="DejaVuSans-6e" d="M 3513 2113 
L 3513 0 
L 2938 0 
L 2938 2094 
Q 2938 2591 2744 2837 
Q 2550 3084 2163 3084 
Q 1697 3084 1428 2787 
Q 1159 2491 1159 1978 
L 1159 0 
L 581 0 
L 581 3500 
L 1159 3500 
L 1159 2956 
Q 1366 3272 1645 3428 
Q 1925 3584 2291 3584 
Q 2894 3584 3203 3211 
Q 3513 2838 3513 2113 
z
" transform="scale(0.015625)"/>
      <path id="DejaVuSans-67" d="M 2906 1791 
Q 2906 2416 2648 2759 
Q 2391 3103 1925 3103 
Q 1463 3103 1205 2759 
Q 947 2416 947 1791 
Q 947 1169 1205 825 
Q 1463 481 1925 481 
Q 2391 481 2648 825 
Q 2906 1169 2906 1791 
z
M 3481 434 
Q 3481 -459 3084 -895 
Q 2688 -1331 1869 -1331 
Q 1566 -1331 1297 -1286 
Q 1028 -1241 775 -1147 
L 775 -588 
Q 1028 -725 1275 -790 
Q 1522 -856 1778 -856 
Q 2344 -856 2625 -561 
Q 2906 -266 2906 331 
L 2906 616 
Q 2728 306 2450 153 
Q 2172 0 1784 0 
Q 1141 0 747 490 
Q 353 981 353 1791 
Q 353 2603 747 3093 
Q 1141 3584 1784 3584 
Q 2172 3584 2450 3431 
Q 2728 3278 2906 2969 
L 2906 3500 
L 3481 3500 
L 3481 434 
z
" transform="scale(0.015625)"/>
      <path id="DejaVuSans-20" transform="scale(0.015625)"/>
      <path id="DejaVuSans-50" d="M 1259 4147 
L 1259 2394 
L 2053 2394 
Q 2494 2394 2734 2622 
Q 2975 2850 2975 3272 
Q 2975 3691 2734 3919 
Q 2494 4147 2053 4147 
L 1259 4147 
z
M 628 4666 
L 2053 4666 
Q 2838 4666 3239 4311 
Q 3641 3956 3641 3272 
Q 3641 2581 3239 2228 
Q 2838 1875 2053 1875 
L 1259 1875 
L 1259 0 
L 628 0 
L 628 4666 
z
" transform="scale(0.015625)"/>
      <path id="DejaVuSans-72" d="M 2631 2963 
Q 2534 3019 2420 3045 
Q 2306 3072 2169 3072 
Q 1681 3072 1420 2755 
Q 1159 2438 1159 1844 
L 1159 0 
L 581 0 
L 581 3500 
L 1159 3500 
L 1159 2956 
Q 1341 3275 1631 3429 
Q 1922 3584 2338 3584 
Q 2397 3584 2469 3576 
Q 2541 3569 2628 3553 
L 2631 2963 
z
" transform="scale(0.015625)"/>
      <path id="DejaVuSans-63" d="M 3122 3366 
L 3122 2828 
Q 2878 2963 2633 3030 
Q 2388 3097 2138 3097 
Q 1578 3097 1268 2742 
Q 959 2388 959 1747 
Q 959 1106 1268 751 
Q 1578 397 2138 397 
Q 2388 397 2633 464 
Q 2878 531 3122 666 
L 3122 134 
Q 2881 22 2623 -34 
Q 2366 -91 2075 -91 
Q 1284 -91 818 406 
Q 353 903 353 1747 
Q 353 2603 823 3093 
Q 1294 3584 2113 3584 
Q 2378 3584 2631 3529 
Q 2884 3475 3122 3366 
z
" transform="scale(0.015625)"/>
      <path id="DejaVuSans-65" d="M 3597 1894 
L 3597 1613 
L 953 1613 
Q 991 1019 1311 708 
Q 1631 397 2203 397 
Q 2534 397 2845 478 
Q 3156 559 3463 722 
L 3463 178 
Q 3153 47 2828 -22 
Q 2503 -91 2169 -91 
Q 1331 -91 842 396 
Q 353 884 353 1716 
Q 353 2575 817 3079 
Q 1281 3584 2069 3584 
Q 2775 3584 3186 3129 
Q 3597 2675 3597 1894 
z
M 3022 2063 
Q 3016 2534 2758 2815 
Q 2500 3097 2075 3097 
Q 1594 3097 1305 2825 
Q 1016 2553 972 2059 
L 3022 2063 
z
" transform="scale(0.015625)"/>
     </defs>
     <use xlink:href="#DejaVuSans-43"/>
     <use xlink:href="#DejaVuSans-6c" x="69.824219"/>
     <use xlink:href="#DejaVuSans-6f" x="97.607422"/>
     <use xlink:href="#DejaVuSans-73" x="158.789062"/>
     <use xlink:href="#DejaVuSans-69" x="210.888672"/>
     <use xlink:href="#DejaVuSans-6e" x="238.671875"/>
     <use xlink:href="#DejaVuSans-67" x="302.050781"/>
     <use xlink:href="#DejaVuSans-20" x="365.527344"/>
     <use xlink:href="#DejaVuSans-50" x="397.314453"/>
     <use xlink:href="#DejaVuSans-72" x="455.867188"/>
     <use xlink:href="#DejaVuSans-69" x="496.980469"/>
     <use xlink:href="#DejaVuSans-63" x="524.763672"/>
     <use xlink:href="#DejaVuSans-65" x="579.744141"/>
    </g>
   </g>
   <g id="legend_1">
    <g id="patch_7">
     <path d="M 911.144856 85.688125 
L 975.876106 85.688125 
Q 977.876106 85.688125 977.876106 83.688125 
L 977.876106 55.331875 
Q 977.876106 53.331875 975.876106 53.331875 
L 911.144856 53.331875 
Q 909.144856 53.331875 909.144856 55.331875 
L 909.144856 83.688125 
Q 909.144856 85.688125 911.144856 85.688125 
z
" style="fill: #ffffff; opacity: 0.8; stroke: #cccccc; stroke-linejoin: miter"/>
    </g>
    <g id="line2d_41">
     <path d="M 913.144856 61.430312 
L 923.144856 61.430312 
L 933.144856 61.430312 
" style="fill: none; stroke: #1f77b4; stroke-width: 1.5; stroke-linecap: square"/>
    </g>
    <g id="text_9">
     <!-- CLOSE -->
     <g transform="translate(941.144856 64.930312)scale(0.1 -0.1)">
      <defs>
       <path id="DejaVuSans-4c" d="M 628 4666 
L 1259 4666 
L 1259 531 
L 3531 531 
L 3531 0 
L 628 0 
L 628 4666 
z
" transform="scale(0.015625)"/>
       <path id="DejaVuSans-4f" d="M 2522 4238 
Q 1834 4238 1429 3725 
Q 1025 3213 1025 2328 
Q 1025 1447 1429 934 
Q 1834 422 2522 422 
Q 3209 422 3611 934 
Q 4013 1447 4013 2328 
Q 4013 3213 3611 3725 
Q 3209 4238 2522 4238 
z
M 2522 4750 
Q 3503 4750 4090 4092 
Q 4678 3434 4678 2328 
Q 4678 1225 4090 567 
Q 3503 -91 2522 -91 
Q 1538 -91 948 565 
Q 359 1222 359 2328 
Q 359 3434 948 4092 
Q 1538 4750 2522 4750 
z
" transform="scale(0.015625)"/>
       <path id="DejaVuSans-53" d="M 3425 4513 
L 3425 3897 
Q 3066 4069 2747 4153 
Q 2428 4238 2131 4238 
Q 1616 4238 1336 4038 
Q 1056 3838 1056 3469 
Q 1056 3159 1242 3001 
Q 1428 2844 1947 2747 
L 2328 2669 
Q 3034 2534 3370 2195 
Q 3706 1856 3706 1288 
Q 3706 609 3251 259 
Q 2797 -91 1919 -91 
Q 1588 -91 1214 -16 
Q 841 59 441 206 
L 441 856 
Q 825 641 1194 531 
Q 1563 422 1919 422 
Q 2459 422 2753 634 
Q 3047 847 3047 1241 
Q 3047 1584 2836 1778 
Q 2625 1972 2144 2069 
L 1759 2144 
Q 1053 2284 737 2584 
Q 422 2884 422 3419 
Q 422 4038 858 4394 
Q 1294 4750 2059 4750 
Q 2388 4750 2728 4690 
Q 3069 4631 3425 4513 
z
" transform="scale(0.015625)"/>
       <path id="DejaVuSans-45" d="M 628 4666 
L 3578 4666 
L 3578 4134 
L 1259 4134 
L 1259 2753 
L 3481 2753 
L 3481 2222 
L 1259 2222 
L 1259 531 
L 3634 531 
L 3634 0 
L 628 0 
L 628 4666 
z
" transform="scale(0.015625)"/>
      </defs>
      <use xlink:href="#DejaVuSans-43"/>
      <use xlink:href="#DejaVuSans-4c" x="69.824219"/>
      <use xlink:href="#DejaVuSans-4f" x="121.912109"/>
      <use xlink:href="#DejaVuSans-53" x="200.623047"/>
      <use xlink:href="#DejaVuSans-45" x="264.099609"/>
     </g>
    </g>
    <g id="line2d_42">
     <path d="M 913.144856 76.108437 
L 923.144856 76.108437 
L 933.144856 76.108437 
" style="fill: none; stroke: #ff7f0e; stroke-width: 1.5; stroke-linecap: square"/>
    </g>
    <g id="text_10">
     <!-- SMA5 -->
     <g transform="translate(941.144856 79.608437)scale(0.1 -0.1)">
      <defs>
       <path id="DejaVuSans-4d" d="M 628 4666 
L 1569 4666 
L 2759 1491 
L 3956 4666 
L 4897 4666 
L 4897 0 
L 4281 0 
L 4281 4097 
L 3078 897 
L 2444 897 
L 1241 4097 
L 1241 0 
L 628 0 
L 628 4666 
z
" transform="scale(0.015625)"/>
       <path id="DejaVuSans-41" d="M 2188 4044 
L 1331 1722 
L 3047 1722 
L 2188 4044 
z
M 1831 4666 
L 2547 4666 
L 4325 0 
L 3669 0 
L 3244 1197 
L 1141 1197 
L 716 0 
L 50 0 
L 1831 4666 
z
" transform="scale(0.015625)"/>
      </defs>
      <use xlink:href="#DejaVuSans-53"/>
      <use xlink:href="#DejaVuSans-4d" x="63.476562"/>
      <use xlink:href="#DejaVuSans-41" x="149.755859"/>
      <use xlink:href="#DejaVuSans-35" x="218.164062"/>
     </g>
    </g>
   </g>
  </g>
  <g id="axes_2">
   <g id="patch_8">
    <path d="M 38.904688 584.521875 
L 982.876106 584.521875 
L 982.876106 331.135938 
L 38.904688 331.135938 
z
" style="fill: #ffffff"/>
   </g>
   <g id="matplotlib.axis_3">
    <g id="xtick_13">
     <g id="line2d_43">
      <path d="M 76.432192 584.521875 
L 76.432192 331.135938 
" clip-path="url(#pa8d0f08211)" style="fill: none; stroke-dasharray: 2.96,1.28; stroke-dashoffset: 0; stroke: #b0b0b0; stroke-width: 0.8"/>
     </g>
     <g id="line2d_44">
      <g>
       <use xlink:href="#m9b78e87be9" x="76.432192" y="584.521875" style="stroke: #000000; stroke-width: 0.8"/>
      </g>
     </g>
     <g id="text_11">
      <!-- 2022-01 -->
      <g transform="translate(55.540786 599.120312)scale(0.1 -0.1)">
       <defs>
        <path id="DejaVuSans-2d" d="M 313 2009 
L 1997 2009 
L 1997 1497 
L 313 1497 
L 313 2009 
z
" transform="scale(0.015625)"/>
        <path id="DejaVuSans-31" d="M 794 531 
L 1825 531 
L 1825 4091 
L 703 3866 
L 703 4441 
L 1819 4666 
L 2450 4666 
L 2450 531 
L 3481 531 
L 3481 0 
L 794 0 
L 794 531 
z
" transform="scale(0.015625)"/>
       </defs>
       <use xlink:href="#DejaVuSans-32"/>
       <use xlink:href="#DejaVuSans-30" x="63.623047"/>
       <use xlink:href="#DejaVuSans-32" x="127.246094"/>
       <use xlink:href="#DejaVuSans-32" x="190.869141"/>
       <use xlink:href="#DejaVuSans-2d" x="254.492188"/>
       <use xlink:href="#DejaVuSans-30" x="290.576172"/>
       <use xlink:href="#DejaVuSans-31" x="354.199219"/>
      </g>
     </g>
    </g>
    <g id="xtick_14">
     <g id="line2d_45">
      <path d="M 159.826646 584.521875 
L 159.826646 331.135938 
" clip-path="url(#pa8d0f08211)" style="fill: none; stroke-dasharray: 2.96,1.28; stroke-dashoffset: 0; stroke: #b0b0b0; stroke-width: 0.8"/>
     </g>
     <g id="line2d_46">
      <g>
       <use xlink:href="#m9b78e87be9" x="159.826646" y="584.521875" style="stroke: #000000; stroke-width: 0.8"/>
      </g>
     </g>
     <g id="text_12">
      <!-- 2022-02 -->
      <g transform="translate(138.93524 599.120312)scale(0.1 -0.1)">
       <use xlink:href="#DejaVuSans-32"/>
       <use xlink:href="#DejaVuSans-30" x="63.623047"/>
       <use xlink:href="#DejaVuSans-32" x="127.246094"/>
       <use xlink:href="#DejaVuSans-32" x="190.869141"/>
       <use xlink:href="#DejaVuSans-2d" x="254.492188"/>
       <use xlink:href="#DejaVuSans-30" x="290.576172"/>
       <use xlink:href="#DejaVuSans-32" x="354.199219"/>
      </g>
     </g>
    </g>
    <g id="xtick_15">
     <g id="line2d_47">
      <path d="M 235.150669 584.521875 
L 235.150669 331.135938 
" clip-path="url(#pa8d0f08211)" style="fill: none; stroke-dasharray: 2.96,1.28; stroke-dashoffset: 0; stroke: #b0b0b0; stroke-width: 0.8"/>
     </g>
     <g id="line2d_48">
      <g>
       <use xlink:href="#m9b78e87be9" x="235.150669" y="584.521875" style="stroke: #000000; stroke-width: 0.8"/>
      </g>
     </g>
     <g id="text_13">
      <!-- 2022-03 -->
      <g transform="translate(214.259263 599.120312)scale(0.1 -0.1)">
       <defs>
        <path id="DejaVuSans-33" d="M 2597 2516 
Q 3050 2419 3304 2112 
Q 3559 1806 3559 1356 
Q 3559 666 3084 287 
Q 2609 -91 1734 -91 
Q 1441 -91 1130 -33 
Q 819 25 488 141 
L 488 750 
Q 750 597 1062 519 
Q 1375 441 1716 441 
Q 2309 441 2620 675 
Q 2931 909 2931 1356 
Q 2931 1769 2642 2001 
Q 2353 2234 1838 2234 
L 1294 2234 
L 1294 2753 
L 1863 2753 
Q 2328 2753 2575 2939 
Q 2822 3125 2822 3475 
Q 2822 3834 2567 4026 
Q 2313 4219 1838 4219 
Q 1578 4219 1281 4162 
Q 984 4106 628 3988 
L 628 4550 
Q 988 4650 1302 4700 
Q 1616 4750 1894 4750 
Q 2613 4750 3031 4423 
Q 3450 4097 3450 3541 
Q 3450 3153 3228 2886 
Q 3006 2619 2597 2516 
z
" transform="scale(0.015625)"/>
       </defs>
       <use xlink:href="#DejaVuSans-32"/>
       <use xlink:href="#DejaVuSans-30" x="63.623047"/>
       <use xlink:href="#DejaVuSans-32" x="127.246094"/>
       <use xlink:href="#DejaVuSans-32" x="190.869141"/>
       <use xlink:href="#DejaVuSans-2d" x="254.492188"/>
       <use xlink:href="#DejaVuSans-30" x="290.576172"/>
       <use xlink:href="#DejaVuSans-33" x="354.199219"/>
      </g>
     </g>
    </g>
    <g id="xtick_16">
     <g id="line2d_49">
      <path d="M 318.545123 584.521875 
L 318.545123 331.135938 
" clip-path="url(#pa8d0f08211)" style="fill: none; stroke-dasharray: 2.96,1.28; stroke-dashoffset: 0; stroke: #b0b0b0; stroke-width: 0.8"/>
     </g>
     <g id="line2d_50">
      <g>
       <use xlink:href="#m9b78e87be9" x="318.545123" y="584.521875" style="stroke: #000000; stroke-width: 0.8"/>
      </g>
     </g>
     <g id="text_14">
      <!-- 2022-04 -->
      <g transform="translate(297.653717 599.120312)scale(0.1 -0.1)">
       <use xlink:href="#DejaVuSans-32"/>
       <use xlink:href="#DejaVuSans-30" x="63.623047"/>
       <use xlink:href="#DejaVuSans-32" x="127.246094"/>
       <use xlink:href="#DejaVuSans-32" x="190.869141"/>
       <use xlink:href="#DejaVuSans-2d" x="254.492188"/>
       <use xlink:href="#DejaVuSans-30" x="290.576172"/>
       <use xlink:href="#DejaVuSans-34" x="354.199219"/>
      </g>
     </g>
    </g>
    <g id="xtick_17">
     <g id="line2d_51">
      <path d="M 399.249434 584.521875 
L 399.249434 331.135938 
" clip-path="url(#pa8d0f08211)" style="fill: none; stroke-dasharray: 2.96,1.28; stroke-dashoffset: 0; stroke: #b0b0b0; stroke-width: 0.8"/>
     </g>
     <g id="line2d_52">
      <g>
       <use xlink:href="#m9b78e87be9" x="399.249434" y="584.521875" style="stroke: #000000; stroke-width: 0.8"/>
      </g>
     </g>
     <g id="text_15">
      <!-- 2022-05 -->
      <g transform="translate(378.358028 599.120312)scale(0.1 -0.1)">
       <use xlink:href="#DejaVuSans-32"/>
       <use xlink:href="#DejaVuSans-30" x="63.623047"/>
       <use xlink:href="#DejaVuSans-32" x="127.246094"/>
       <use xlink:href="#DejaVuSans-32" x="190.869141"/>
       <use xlink:href="#DejaVuSans-2d" x="254.492188"/>
       <use xlink:href="#DejaVuSans-30" x="290.576172"/>
       <use xlink:href="#DejaVuSans-35" x="354.199219"/>
      </g>
     </g>
    </g>
    <g id="xtick_18">
     <g id="line2d_53">
      <path d="M 482.643888 584.521875 
L 482.643888 331.135938 
" clip-path="url(#pa8d0f08211)" style="fill: none; stroke-dasharray: 2.96,1.28; stroke-dashoffset: 0; stroke: #b0b0b0; stroke-width: 0.8"/>
     </g>
     <g id="line2d_54">
      <g>
       <use xlink:href="#m9b78e87be9" x="482.643888" y="584.521875" style="stroke: #000000; stroke-width: 0.8"/>
      </g>
     </g>
     <g id="text_16">
      <!-- 2022-06 -->
      <g transform="translate(461.752482 599.120312)scale(0.1 -0.1)">
       <use xlink:href="#DejaVuSans-32"/>
       <use xlink:href="#DejaVuSans-30" x="63.623047"/>
       <use xlink:href="#DejaVuSans-32" x="127.246094"/>
       <use xlink:href="#DejaVuSans-32" x="190.869141"/>
       <use xlink:href="#DejaVuSans-2d" x="254.492188"/>
       <use xlink:href="#DejaVuSans-30" x="290.576172"/>
       <use xlink:href="#DejaVuSans-36" x="354.199219"/>
      </g>
     </g>
    </g>
    <g id="xtick_19">
     <g id="line2d_55">
      <path d="M 563.348198 584.521875 
L 563.348198 331.135938 
" clip-path="url(#pa8d0f08211)" style="fill: none; stroke-dasharray: 2.96,1.28; stroke-dashoffset: 0; stroke: #b0b0b0; stroke-width: 0.8"/>
     </g>
     <g id="line2d_56">
      <g>
       <use xlink:href="#m9b78e87be9" x="563.348198" y="584.521875" style="stroke: #000000; stroke-width: 0.8"/>
      </g>
     </g>
     <g id="text_17">
      <!-- 2022-07 -->
      <g transform="translate(542.456792 599.120312)scale(0.1 -0.1)">
       <use xlink:href="#DejaVuSans-32"/>
       <use xlink:href="#DejaVuSans-30" x="63.623047"/>
       <use xlink:href="#DejaVuSans-32" x="127.246094"/>
       <use xlink:href="#DejaVuSans-32" x="190.869141"/>
       <use xlink:href="#DejaVuSans-2d" x="254.492188"/>
       <use xlink:href="#DejaVuSans-30" x="290.576172"/>
       <use xlink:href="#DejaVuSans-37" x="354.199219"/>
      </g>
     </g>
    </g>
    <g id="xtick_20">
     <g id="line2d_57">
      <path d="M 646.742653 584.521875 
L 646.742653 331.135938 
" clip-path="url(#pa8d0f08211)" style="fill: none; stroke-dasharray: 2.96,1.28; stroke-dashoffset: 0; stroke: #b0b0b0; stroke-width: 0.8"/>
     </g>
     <g id="line2d_58">
      <g>
       <use xlink:href="#m9b78e87be9" x="646.742653" y="584.521875" style="stroke: #000000; stroke-width: 0.8"/>
      </g>
     </g>
     <g id="text_18">
      <!-- 2022-08 -->
      <g transform="translate(625.851246 599.120312)scale(0.1 -0.1)">
       <defs>
        <path id="DejaVuSans-38" d="M 2034 2216 
Q 1584 2216 1326 1975 
Q 1069 1734 1069 1313 
Q 1069 891 1326 650 
Q 1584 409 2034 409 
Q 2484 409 2743 651 
Q 3003 894 3003 1313 
Q 3003 1734 2745 1975 
Q 2488 2216 2034 2216 
z
M 1403 2484 
Q 997 2584 770 2862 
Q 544 3141 544 3541 
Q 544 4100 942 4425 
Q 1341 4750 2034 4750 
Q 2731 4750 3128 4425 
Q 3525 4100 3525 3541 
Q 3525 3141 3298 2862 
Q 3072 2584 2669 2484 
Q 3125 2378 3379 2068 
Q 3634 1759 3634 1313 
Q 3634 634 3220 271 
Q 2806 -91 2034 -91 
Q 1263 -91 848 271 
Q 434 634 434 1313 
Q 434 1759 690 2068 
Q 947 2378 1403 2484 
z
M 1172 3481 
Q 1172 3119 1398 2916 
Q 1625 2713 2034 2713 
Q 2441 2713 2670 2916 
Q 2900 3119 2900 3481 
Q 2900 3844 2670 4047 
Q 2441 4250 2034 4250 
Q 1625 4250 1398 4047 
Q 1172 3844 1172 3481 
z
" transform="scale(0.015625)"/>
       </defs>
       <use xlink:href="#DejaVuSans-32"/>
       <use xlink:href="#DejaVuSans-30" x="63.623047"/>
       <use xlink:href="#DejaVuSans-32" x="127.246094"/>
       <use xlink:href="#DejaVuSans-32" x="190.869141"/>
       <use xlink:href="#DejaVuSans-2d" x="254.492188"/>
       <use xlink:href="#DejaVuSans-30" x="290.576172"/>
       <use xlink:href="#DejaVuSans-38" x="354.199219"/>
      </g>
     </g>
    </g>
    <g id="xtick_21">
     <g id="line2d_59">
      <path d="M 730.137107 584.521875 
L 730.137107 331.135938 
" clip-path="url(#pa8d0f08211)" style="fill: none; stroke-dasharray: 2.96,1.28; stroke-dashoffset: 0; stroke: #b0b0b0; stroke-width: 0.8"/>
     </g>
     <g id="line2d_60">
      <g>
       <use xlink:href="#m9b78e87be9" x="730.137107" y="584.521875" style="stroke: #000000; stroke-width: 0.8"/>
      </g>
     </g>
     <g id="text_19">
      <!-- 2022-09 -->
      <g transform="translate(709.245701 599.120312)scale(0.1 -0.1)">
       <defs>
        <path id="DejaVuSans-39" d="M 703 97 
L 703 672 
Q 941 559 1184 500 
Q 1428 441 1663 441 
Q 2288 441 2617 861 
Q 2947 1281 2994 2138 
Q 2813 1869 2534 1725 
Q 2256 1581 1919 1581 
Q 1219 1581 811 2004 
Q 403 2428 403 3163 
Q 403 3881 828 4315 
Q 1253 4750 1959 4750 
Q 2769 4750 3195 4129 
Q 3622 3509 3622 2328 
Q 3622 1225 3098 567 
Q 2575 -91 1691 -91 
Q 1453 -91 1209 -44 
Q 966 3 703 97 
z
M 1959 2075 
Q 2384 2075 2632 2365 
Q 2881 2656 2881 3163 
Q 2881 3666 2632 3958 
Q 2384 4250 1959 4250 
Q 1534 4250 1286 3958 
Q 1038 3666 1038 3163 
Q 1038 2656 1286 2365 
Q 1534 2075 1959 2075 
z
" transform="scale(0.015625)"/>
       </defs>
       <use xlink:href="#DejaVuSans-32"/>
       <use xlink:href="#DejaVuSans-30" x="63.623047"/>
       <use xlink:href="#DejaVuSans-32" x="127.246094"/>
       <use xlink:href="#DejaVuSans-32" x="190.869141"/>
       <use xlink:href="#DejaVuSans-2d" x="254.492188"/>
       <use xlink:href="#DejaVuSans-30" x="290.576172"/>
       <use xlink:href="#DejaVuSans-39" x="354.199219"/>
      </g>
     </g>
    </g>
    <g id="xtick_22">
     <g id="line2d_61">
      <path d="M 810.841417 584.521875 
L 810.841417 331.135938 
" clip-path="url(#pa8d0f08211)" style="fill: none; stroke-dasharray: 2.96,1.28; stroke-dashoffset: 0; stroke: #b0b0b0; stroke-width: 0.8"/>
     </g>
     <g id="line2d_62">
      <g>
       <use xlink:href="#m9b78e87be9" x="810.841417" y="584.521875" style="stroke: #000000; stroke-width: 0.8"/>
      </g>
     </g>
     <g id="text_20">
      <!-- 2022-10 -->
      <g transform="translate(789.950011 599.120312)scale(0.1 -0.1)">
       <use xlink:href="#DejaVuSans-32"/>
       <use xlink:href="#DejaVuSans-30" x="63.623047"/>
       <use xlink:href="#DejaVuSans-32" x="127.246094"/>
       <use xlink:href="#DejaVuSans-32" x="190.869141"/>
       <use xlink:href="#DejaVuSans-2d" x="254.492188"/>
       <use xlink:href="#DejaVuSans-31" x="290.576172"/>
       <use xlink:href="#DejaVuSans-30" x="354.199219"/>
      </g>
     </g>
    </g>
    <g id="xtick_23">
     <g id="line2d_63">
      <path d="M 894.235872 584.521875 
L 894.235872 331.135938 
" clip-path="url(#pa8d0f08211)" style="fill: none; stroke-dasharray: 2.96,1.28; stroke-dashoffset: 0; stroke: #b0b0b0; stroke-width: 0.8"/>
     </g>
     <g id="line2d_64">
      <g>
       <use xlink:href="#m9b78e87be9" x="894.235872" y="584.521875" style="stroke: #000000; stroke-width: 0.8"/>
      </g>
     </g>
     <g id="text_21">
      <!-- 2022-11 -->
      <g transform="translate(873.344465 599.120312)scale(0.1 -0.1)">
       <use xlink:href="#DejaVuSans-32"/>
       <use xlink:href="#DejaVuSans-30" x="63.623047"/>
       <use xlink:href="#DejaVuSans-32" x="127.246094"/>
       <use xlink:href="#DejaVuSans-32" x="190.869141"/>
       <use xlink:href="#DejaVuSans-2d" x="254.492188"/>
       <use xlink:href="#DejaVuSans-31" x="290.576172"/>
       <use xlink:href="#DejaVuSans-31" x="354.199219"/>
      </g>
     </g>
    </g>
    <g id="xtick_24">
     <g id="line2d_65">
      <path d="M 974.940182 584.521875 
L 974.940182 331.135938 
" clip-path="url(#pa8d0f08211)" style="fill: none; stroke-dasharray: 2.96,1.28; stroke-dashoffset: 0; stroke: #b0b0b0; stroke-width: 0.8"/>
     </g>
     <g id="line2d_66">
      <g>
       <use xlink:href="#m9b78e87be9" x="974.940182" y="584.521875" style="stroke: #000000; stroke-width: 0.8"/>
      </g>
     </g>
     <g id="text_22">
      <!-- 2022-12 -->
      <g transform="translate(954.048776 599.120312)scale(0.1 -0.1)">
       <use xlink:href="#DejaVuSans-32"/>
       <use xlink:href="#DejaVuSans-30" x="63.623047"/>
       <use xlink:href="#DejaVuSans-32" x="127.246094"/>
       <use xlink:href="#DejaVuSans-32" x="190.869141"/>
       <use xlink:href="#DejaVuSans-2d" x="254.492188"/>
       <use xlink:href="#DejaVuSans-31" x="290.576172"/>
       <use xlink:href="#DejaVuSans-32" x="354.199219"/>
      </g>
     </g>
    </g>
   </g>
   <g id="matplotlib.axis_4">
    <g id="ytick_8">
     <g id="line2d_67">
      <path d="M 38.904688 555.608696 
L 982.876106 555.608696 
" clip-path="url(#pa8d0f08211)" style="fill: none; stroke-dasharray: 2.96,1.28; stroke-dashoffset: 0; stroke: #b0b0b0; stroke-width: 0.8"/>
     </g>
     <g id="line2d_68">
      <g>
       <use xlink:href="#mf283436710" x="38.904688" y="555.608696" style="stroke: #000000; stroke-width: 0.8"/>
      </g>
     </g>
     <g id="text_23">
      <!-- −20 -->
      <g transform="translate(10.8 559.407915)scale(0.1 -0.1)">
       <defs>
        <path id="DejaVuSans-2212" d="M 678 2272 
L 4684 2272 
L 4684 1741 
L 678 1741 
L 678 2272 
z
" transform="scale(0.015625)"/>
       </defs>
       <use xlink:href="#DejaVuSans-2212"/>
       <use xlink:href="#DejaVuSans-32" x="83.789062"/>
       <use xlink:href="#DejaVuSans-30" x="147.412109"/>
      </g>
     </g>
    </g>
    <g id="ytick_9">
     <g id="line2d_69">
      <path d="M 38.904688 525.329523 
L 982.876106 525.329523 
" clip-path="url(#pa8d0f08211)" style="fill: none; stroke-dasharray: 2.96,1.28; stroke-dashoffset: 0; stroke: #b0b0b0; stroke-width: 0.8"/>
     </g>
     <g id="line2d_70">
      <g>
       <use xlink:href="#mf283436710" x="38.904688" y="525.329523" style="stroke: #000000; stroke-width: 0.8"/>
      </g>
     </g>
     <g id="text_24">
      <!-- −15 -->
      <g transform="translate(10.8 529.128742)scale(0.1 -0.1)">
       <use xlink:href="#DejaVuSans-2212"/>
       <use xlink:href="#DejaVuSans-31" x="83.789062"/>
       <use xlink:href="#DejaVuSans-35" x="147.412109"/>
      </g>
     </g>
    </g>
    <g id="ytick_10">
     <g id="line2d_71">
      <path d="M 38.904688 495.050351 
L 982.876106 495.050351 
" clip-path="url(#pa8d0f08211)" style="fill: none; stroke-dasharray: 2.96,1.28; stroke-dashoffset: 0; stroke: #b0b0b0; stroke-width: 0.8"/>
     </g>
     <g id="line2d_72">
      <g>
       <use xlink:href="#mf283436710" x="38.904688" y="495.050351" style="stroke: #000000; stroke-width: 0.8"/>
      </g>
     </g>
     <g id="text_25">
      <!-- −10 -->
      <g transform="translate(10.8 498.849569)scale(0.1 -0.1)">
       <use xlink:href="#DejaVuSans-2212"/>
       <use xlink:href="#DejaVuSans-31" x="83.789062"/>
       <use xlink:href="#DejaVuSans-30" x="147.412109"/>
      </g>
     </g>
    </g>
    <g id="ytick_11">
     <g id="line2d_73">
      <path d="M 38.904688 464.771178 
L 982.876106 464.771178 
" clip-path="url(#pa8d0f08211)" style="fill: none; stroke-dasharray: 2.96,1.28; stroke-dashoffset: 0; stroke: #b0b0b0; stroke-width: 0.8"/>
     </g>
     <g id="line2d_74">
      <g>
       <use xlink:href="#mf283436710" x="38.904688" y="464.771178" style="stroke: #000000; stroke-width: 0.8"/>
      </g>
     </g>
     <g id="text_26">
      <!-- −5 -->
      <g transform="translate(17.1625 468.570397)scale(0.1 -0.1)">
       <use xlink:href="#DejaVuSans-2212"/>
       <use xlink:href="#DejaVuSans-35" x="83.789062"/>
      </g>
     </g>
    </g>
    <g id="ytick_12">
     <g id="line2d_75">
      <path d="M 38.904688 434.492005 
L 982.876106 434.492005 
" clip-path="url(#pa8d0f08211)" style="fill: none; stroke-dasharray: 2.96,1.28; stroke-dashoffset: 0; stroke: #b0b0b0; stroke-width: 0.8"/>
     </g>
     <g id="line2d_76">
      <g>
       <use xlink:href="#mf283436710" x="38.904688" y="434.492005" style="stroke: #000000; stroke-width: 0.8"/>
      </g>
     </g>
     <g id="text_27">
      <!-- 0 -->
      <g transform="translate(25.542188 438.291224)scale(0.1 -0.1)">
       <use xlink:href="#DejaVuSans-30"/>
      </g>
     </g>
    </g>
    <g id="ytick_13">
     <g id="line2d_77">
      <path d="M 38.904688 404.212833 
L 982.876106 404.212833 
" clip-path="url(#pa8d0f08211)" style="fill: none; stroke-dasharray: 2.96,1.28; stroke-dashoffset: 0; stroke: #b0b0b0; stroke-width: 0.8"/>
     </g>
     <g id="line2d_78">
      <g>
       <use xlink:href="#mf283436710" x="38.904688" y="404.212833" style="stroke: #000000; stroke-width: 0.8"/>
      </g>
     </g>
     <g id="text_28">
      <!-- 5 -->
      <g transform="translate(25.542188 408.012051)scale(0.1 -0.1)">
       <use xlink:href="#DejaVuSans-35"/>
      </g>
     </g>
    </g>
    <g id="ytick_14">
     <g id="line2d_79">
      <path d="M 38.904688 373.93366 
L 982.876106 373.93366 
" clip-path="url(#pa8d0f08211)" style="fill: none; stroke-dasharray: 2.96,1.28; stroke-dashoffset: 0; stroke: #b0b0b0; stroke-width: 0.8"/>
     </g>
     <g id="line2d_80">
      <g>
       <use xlink:href="#mf283436710" x="38.904688" y="373.93366" style="stroke: #000000; stroke-width: 0.8"/>
      </g>
     </g>
     <g id="text_29">
      <!-- 10 -->
      <g transform="translate(19.179688 377.732879)scale(0.1 -0.1)">
       <use xlink:href="#DejaVuSans-31"/>
       <use xlink:href="#DejaVuSans-30" x="63.623047"/>
      </g>
     </g>
    </g>
    <g id="ytick_15">
     <g id="line2d_81">
      <path d="M 38.904688 343.654487 
L 982.876106 343.654487 
" clip-path="url(#pa8d0f08211)" style="fill: none; stroke-dasharray: 2.96,1.28; stroke-dashoffset: 0; stroke: #b0b0b0; stroke-width: 0.8"/>
     </g>
     <g id="line2d_82">
      <g>
       <use xlink:href="#mf283436710" x="38.904688" y="343.654487" style="stroke: #000000; stroke-width: 0.8"/>
      </g>
     </g>
     <g id="text_30">
      <!-- 15 -->
      <g transform="translate(19.179688 347.453706)scale(0.1 -0.1)">
       <use xlink:href="#DejaVuSans-31"/>
       <use xlink:href="#DejaVuSans-35" x="63.623047"/>
      </g>
     </g>
    </g>
   </g>
   <g id="line2d_83">
    <path d="M 81.812479 434.492005 
L 84.502623 433.9825 
L 87.192767 433.035293 
L 89.88291 432.683914 
L 92.573054 430.422508 
L 100.643485 427.611778 
L 103.333629 427.73838 
L 106.023772 426.448586 
L 108.713916 424.926682 
L 111.40406 423.877073 
L 119.474491 415.346955 
L 122.164634 411.898359 
L 124.854778 421.33974 
L 127.544922 426.945535 
L 130.235066 431.59286 
L 138.305497 438.644862 
L 140.99564 448.393658 
L 146.375928 460.614472 
L 149.066071 468.911602 
L 157.136502 468.930582 
L 159.826646 470.095019 
L 162.51679 471.709684 
L 165.206933 476.449783 
L 167.897077 483.133163 
L 175.967508 493.167215 
L 178.657652 503.288387 
L 181.347796 510.413235 
L 184.037939 509.865903 
L 186.728083 513.167851 
L 194.798514 521.297998 
L 200.178801 528.163548 
L 202.868945 523.034515 
L 205.559089 514.711004 
L 213.62952 513.917114 
L 216.319663 514.863549 
L 219.009807 516.669145 
L 221.699951 532.568864 
L 224.390094 539.137311 
L 232.460525 542.290847 
L 237.840813 539.508228 
L 240.530957 546.785481 
L 243.2211 557.264322 
L 251.291531 566.449452 
L 253.981675 571.028444 
L 256.671819 573.004332 
L 259.361962 567.973456 
L 262.052106 560.996359 
L 270.122537 553.919852 
L 272.812681 549.569132 
L 275.502824 539.866664 
L 278.192968 519.760533 
L 288.953543 510.098711 
L 291.643687 499.619936 
L 294.33383 492.645745 
L 297.023974 483.990204 
L 299.714118 474.090188 
L 307.784549 470.447051 
L 313.164836 447.722004 
L 315.85498 438.328043 
L 318.545123 427.522222 
L 326.615554 418.585006 
L 329.305698 412.244872 
L 334.685985 394.618237 
L 337.376129 382.210627 
L 345.44656 371.476181 
L 348.136704 364.674792 
L 350.826848 357.40067 
L 364.277566 352.027601 
L 366.96771 361.441393 
L 369.657853 364.618257 
L 372.347997 364.869897 
L 375.038141 369.9311 
L 383.108572 378.077161 
L 385.798715 381.945985 
L 388.488859 387.937748 
L 391.179003 385.618504 
L 393.869146 388.456771 
L 401.939578 394.508315 
L 407.319865 403.346374 
L 412.700152 416.632116 
L 420.770583 424.654825 
L 423.460727 433.874999 
L 426.150871 436.714667 
L 428.841014 448.203641 
L 431.531158 456.783138 
L 439.601589 457.989976 
L 442.291733 458.667674 
L 444.981876 457.764586 
L 447.67202 459.012389 
L 450.362164 452.275991 
L 458.432595 449.499149 
L 461.122739 447.369803 
L 463.812882 439.181405 
L 466.503026 428.729089 
L 469.19317 420.412534 
L 477.263601 413.526041 
L 479.953744 412.61911 
L 482.643888 399.457258 
L 485.334032 390.776046 
L 488.024175 382.613461 
L 496.094606 369.154812 
L 498.78475 363.653265 
L 501.474894 366.235653 
L 504.165037 359.497981 
L 506.855181 357.126539 
L 514.925612 364.264529 
L 517.615756 375.825384 
L 522.996043 402.03399 
L 525.686187 418.687257 
L 533.756618 434.837065 
L 536.446762 446.930614 
L 539.136905 463.750837 
L 544.517193 479.482662 
L 552.587624 484.241465 
L 555.277767 489.335098 
L 557.967911 496.565224 
L 560.658055 498.455073 
L 563.348198 493.772429 
L 571.41863 484.09035 
L 574.108773 481.180643 
L 576.798917 474.069647 
L 579.489061 461.960734 
L 582.179204 453.948003 
L 590.249635 445.661158 
L 592.939779 437.157371 
L 595.629923 430.947556 
L 598.320066 431.678022 
L 601.01021 430.470874 
L 609.080641 426.696645 
L 611.770785 424.867074 
L 614.460928 422.553034 
L 617.151072 417.108107 
L 619.841216 412.315633 
L 627.911647 408.910185 
L 630.601791 408.949021 
L 635.982078 407.676126 
L 638.672222 396.050973 
L 646.742653 384.555005 
L 649.432796 383.798259 
L 652.12294 381.005359 
L 654.813084 374.185291 
L 657.503227 358.925545 
L 665.573658 353.748819 
L 670.953946 356.74828 
L 673.64409 364.718465 
L 676.334233 366.226751 
L 687.094808 358.959518 
L 689.784952 352.870569 
L 692.475095 342.65348 
L 695.165239 344.004277 
L 703.23567 345.73148 
L 705.925814 346.502041 
L 708.615957 346.248616 
L 713.996245 343.295149 
L 722.066676 347.939101 
L 724.756819 346.501165 
L 730.137107 347.005334 
L 732.827251 348.590571 
L 740.897682 354.60372 
L 743.587825 357.254309 
L 746.277969 358.83439 
L 748.968113 361.417626 
L 751.658256 368.13897 
L 759.728687 372.277107 
L 762.418831 378.233044 
L 767.799118 395.285468 
L 770.489262 411.636943 
L 778.559693 424.370224 
L 781.249837 432.5536 
L 783.939981 440.146573 
L 786.630124 448.712172 
L 789.320268 458.884204 
L 797.390699 471.599866 
L 800.080843 482.419577 
L 802.770986 490.253757 
L 808.151274 503.674218 
L 816.221705 515.783175 
L 818.911848 516.131388 
L 824.292136 518.010044 
L 826.982279 518.071221 
L 835.05271 520.548286 
L 837.742854 524.793296 
L 840.432998 525.495898 
L 843.123142 530.44401 
L 845.813285 527.188686 
L 853.883716 525.345112 
L 856.57386 521.077933 
L 859.264004 519.260017 
L 861.954147 511.74899 
L 864.644291 509.235022 
L 872.714722 505.592369 
L 875.404866 505.744561 
L 880.785153 506.694299 
L 883.475297 505.770176 
L 891.545728 501.625195 
L 894.235872 491.477453 
L 899.616159 477.238648 
L 902.306303 473.396157 
L 910.376734 470.666936 
L 915.757021 474.154989 
L 918.447165 481.991288 
L 921.137308 487.83108 
L 929.207739 493.247822 
L 931.897883 498.996016 
L 934.588027 505.711325 
L 937.27817 509.218973 
L 939.968314 514.617917 
L 939.968314 514.617917 
" clip-path="url(#pa8d0f08211)" style="fill: none; stroke: #1f77b4; stroke-width: 1.5; stroke-linecap: square"/>
   </g>
   <g id="line2d_84">
    <path d="M 81.812479 434.492005 
L 84.502623 434.208947 
L 87.192767 433.727941 
L 89.88291 433.374273 
L 92.573054 432.49619 
L 100.643485 431.172243 
L 106.023772 429.376882 
L 111.40406 427.346923 
L 119.474491 424.721398 
L 122.164634 421.967547 
L 124.854778 421.834682 
L 127.544922 422.903876 
L 130.235066 424.705046 
L 138.305497 427.573756 
L 140.99564 431.833661 
L 146.375928 437.695419 
L 149.066071 444.029946 
L 157.136502 449.06816 
L 159.826646 453.31268 
L 162.51679 457.019432 
L 165.206933 460.928578 
L 167.897077 465.390566 
L 175.967508 470.966963 
L 181.347796 484.0593 
L 184.037939 489.230624 
L 186.728083 494.025489 
L 194.798514 499.486751 
L 197.488658 504.524202 
L 200.178801 509.25582 
L 202.868945 512.013307 
L 205.559089 512.55312 
L 213.62952 512.826029 
L 216.319663 513.233665 
L 219.009807 513.92094 
L 221.699951 517.651299 
L 224.390094 521.949216 
L 237.840813 528.716399 
L 240.530957 532.330523 
L 243.2211 537.317622 
L 251.291531 543.144305 
L 253.981675 548.721376 
L 256.671819 553.578136 
L 259.361962 556.457281 
L 262.052106 557.365116 
L 270.122537 556.676051 
L 272.812681 555.254647 
L 275.502824 552.177015 
L 278.192968 545.69366 
L 288.953543 538.574618 
L 299.714118 507.076276 
L 307.784549 499.750414 
L 310.474692 491.624998 
L 315.85498 473.941106 
L 318.545123 464.65732 
L 326.615554 455.44285 
L 334.685985 429.441426 
L 337.376129 419.995264 
L 345.44656 410.291445 
L 350.826848 392.414622 
L 364.277566 384.337217 
L 366.96771 379.758052 
L 369.657853 376.730093 
L 372.347997 374.358053 
L 375.038141 373.472663 
L 383.108572 374.393562 
L 385.798715 375.904047 
L 388.488859 378.310787 
L 391.179003 379.77233 
L 393.869146 381.509219 
L 401.939578 384.109038 
L 407.319865 387.956505 
L 410.010009 392.335991 
L 412.700152 397.195216 
L 420.770583 402.687138 
L 423.460727 408.92471 
L 426.150871 414.482701 
L 428.841014 421.226889 
L 431.531158 428.338139 
L 439.601589 434.268506 
L 442.291733 439.14834 
L 444.981876 442.871589 
L 447.67202 446.099749 
L 450.362164 447.334998 
L 458.432595 447.767828 
L 461.122739 447.688223 
L 463.812882 445.986859 
L 466.503026 442.535305 
L 469.19317 438.110751 
L 477.263601 433.193809 
L 479.953744 429.078869 
L 482.643888 423.154547 
L 485.334032 416.678847 
L 488.024175 409.86577 
L 496.094606 401.723578 
L 498.78475 394.109516 
L 506.855181 377.60722 
L 514.925612 374.938682 
L 517.615756 375.116022 
L 520.3059 377.884175 
L 522.996043 382.714138 
L 525.686187 389.908762 
L 533.756618 398.894423 
L 536.446762 408.501661 
L 539.136905 419.551496 
L 541.827049 429.970097 
L 544.517193 439.87261 
L 552.587624 448.746381 
L 557.967911 464.804345 
L 560.658055 471.53449 
L 563.348198 475.982078 
L 571.41863 477.603733 
L 574.108773 478.319115 
L 576.798917 477.469221 
L 579.489061 474.367524 
L 582.179204 470.28362 
L 590.249635 465.359127 
L 595.629923 453.964532 
L 598.320066 449.50723 
L 601.01021 445.699959 
L 609.080641 441.899296 
L 611.770785 438.492852 
L 614.460928 435.304888 
L 617.151072 431.665532 
L 619.841216 427.795552 
L 627.911647 424.018479 
L 630.601791 421.004587 
L 633.291934 418.474207 
L 635.982078 416.314591 
L 638.672222 412.261867 
L 646.742653 406.720495 
L 649.432796 402.136048 
L 652.12294 397.90991 
L 654.813084 393.164986 
L 657.503227 386.317098 
L 665.573658 379.803442 
L 670.953946 375.19241 
L 673.64409 373.097621 
L 676.334233 371.723447 
L 687.094808 369.170661 
L 689.784952 365.910643 
L 692.475095 361.25921 
L 695.165239 357.808223 
L 703.23567 355.392875 
L 705.925814 353.614708 
L 713.996245 349.187484 
L 722.066676 348.937807 
L 724.756819 348.450479 
L 730.137107 348.16145 
L 732.827251 348.247274 
L 740.897682 349.518563 
L 746.277969 352.619448 
L 748.968113 354.379083 
L 751.658256 357.131061 
L 759.728687 360.16027 
L 762.418831 363.774825 
L 765.108975 368.34148 
L 767.799118 373.730277 
L 770.489262 381.31161 
L 778.559693 389.923333 
L 789.320268 423.915636 
L 797.390699 433.452482 
L 802.770986 452.647472 
L 805.46113 461.539743 
L 808.151274 469.966638 
L 816.221705 479.129946 
L 818.911848 486.530234 
L 824.292136 492.826196 
L 826.982279 497.875201 
L 835.05271 502.409818 
L 837.742854 506.886514 
L 840.432998 510.60839 
L 843.123142 514.575514 
L 845.813285 517.098149 
L 856.57386 519.21362 
L 859.264004 519.222899 
L 861.954147 517.728117 
L 864.644291 516.029498 
L 872.714722 513.942072 
L 875.404866 512.30257 
L 880.785153 511.180916 
L 883.475297 510.098768 
L 891.545728 508.404053 
L 894.235872 505.018733 
L 896.926015 500.880346 
L 902.306303 491.600836 
L 910.376734 487.414056 
L 915.757021 484.762243 
L 918.447165 484.208052 
L 921.137308 484.932658 
L 929.207739 486.59569 
L 931.897883 489.075755 
L 937.27817 495.76609 
L 939.968314 499.536455 
L 939.968314 499.536455 
" clip-path="url(#pa8d0f08211)" style="fill: none; stroke: #ff7f0e; stroke-width: 1.5; stroke-linecap: square"/>
   </g>
   <g id="patch_9">
    <path d="M 38.904688 584.521875 
L 38.904688 331.135938 
" style="fill: none; stroke: #000000; stroke-width: 0.8; stroke-linejoin: miter; stroke-linecap: square"/>
   </g>
   <g id="patch_10">
    <path d="M 982.876106 584.521875 
L 982.876106 331.135938 
" style="fill: none; stroke: #000000; stroke-width: 0.8; stroke-linejoin: miter; stroke-linecap: square"/>
   </g>
   <g id="patch_11">
    <path d="M 38.904687 584.521875 
L 982.876106 584.521875 
" style="fill: none; stroke: #000000; stroke-width: 0.8; stroke-linejoin: miter; stroke-linecap: square"/>
   </g>
   <g id="patch_12">
    <path d="M 38.904687 331.135938 
L 982.876106 331.135938 
" style="fill: none; stroke: #000000; stroke-width: 0.8; stroke-linejoin: miter; stroke-linecap: square"/>
   </g>
   <g id="text_31">
    <!-- MACD -->
    <g transform="translate(492.904459 325.135938)scale(0.12 -0.12)">
     <defs>
      <path id="DejaVuSans-44" d="M 1259 4147 
L 1259 519 
L 2022 519 
Q 2988 519 3436 956 
Q 3884 1394 3884 2338 
Q 3884 3275 3436 3711 
Q 2988 4147 2022 4147 
L 1259 4147 
z
M 628 4666 
L 1925 4666 
Q 3281 4666 3915 4102 
Q 4550 3538 4550 2338 
Q 4550 1131 3912 565 
Q 3275 0 1925 0 
L 628 0 
L 628 4666 
z
" transform="scale(0.015625)"/>
     </defs>
     <use xlink:href="#DejaVuSans-4d"/>
     <use xlink:href="#DejaVuSans-41" x="86.279297"/>
     <use xlink:href="#DejaVuSans-43" x="152.9375"/>
     <use xlink:href="#DejaVuSans-44" x="222.761719"/>
    </g>
   </g>
   <g id="legend_2">
    <g id="patch_13">
     <path d="M 913.899543 368.492188 
L 975.876106 368.492188 
Q 977.876106 368.492188 977.876106 366.492188 
L 977.876106 338.135938 
Q 977.876106 336.135938 975.876106 336.135938 
L 913.899543 336.135938 
Q 911.899543 336.135938 911.899543 338.135938 
L 911.899543 366.492188 
Q 911.899543 368.492188 913.899543 368.492188 
z
" style="fill: #ffffff; opacity: 0.8; stroke: #cccccc; stroke-linejoin: miter"/>
    </g>
    <g id="line2d_85">
     <path d="M 915.899543 344.234375 
L 925.899543 344.234375 
L 935.899543 344.234375 
" style="fill: none; stroke: #1f77b4; stroke-width: 1.5; stroke-linecap: square"/>
    </g>
    <g id="text_32">
     <!-- MACD -->
     <g transform="translate(943.899543 347.734375)scale(0.1 -0.1)">
      <use xlink:href="#DejaVuSans-4d"/>
      <use xlink:href="#DejaVuSans-41" x="86.279297"/>
      <use xlink:href="#DejaVuSans-43" x="152.9375"/>
      <use xlink:href="#DejaVuSans-44" x="222.761719"/>
     </g>
    </g>
    <g id="line2d_86">
     <path d="M 915.899543 358.9125 
L 925.899543 358.9125 
L 935.899543 358.9125 
" style="fill: none; stroke: #ff7f0e; stroke-width: 1.5; stroke-linecap: square"/>
    </g>
    <g id="text_33">
     <!-- SIG -->
     <g transform="translate(943.899543 362.4125)scale(0.1 -0.1)">
      <defs>
       <path id="DejaVuSans-49" d="M 628 4666 
L 1259 4666 
L 1259 0 
L 628 0 
L 628 4666 
z
" transform="scale(0.015625)"/>
       <path id="DejaVuSans-47" d="M 3809 666 
L 3809 1919 
L 2778 1919 
L 2778 2438 
L 4434 2438 
L 4434 434 
Q 4069 175 3628 42 
Q 3188 -91 2688 -91 
Q 1594 -91 976 548 
Q 359 1188 359 2328 
Q 359 3472 976 4111 
Q 1594 4750 2688 4750 
Q 3144 4750 3555 4637 
Q 3966 4525 4313 4306 
L 4313 3634 
Q 3963 3931 3569 4081 
Q 3175 4231 2741 4231 
Q 1884 4231 1454 3753 
Q 1025 3275 1025 2328 
Q 1025 1384 1454 906 
Q 1884 428 2741 428 
Q 3075 428 3337 486 
Q 3600 544 3809 666 
z
" transform="scale(0.015625)"/>
      </defs>
      <use xlink:href="#DejaVuSans-53"/>
      <use xlink:href="#DejaVuSans-49" x="63.476562"/>
      <use xlink:href="#DejaVuSans-47" x="92.96875"/>
     </g>
    </g>
   </g>
  </g>
  <g id="text_34">
   <!-- ICICI Prudential Life Insurance Company Limited -->
   <g transform="translate(359.157187 21.358125)scale(0.12 -0.12)">
    <defs>
     <path id="DejaVuSans-75" d="M 544 1381 
L 544 3500 
L 1119 3500 
L 1119 1403 
Q 1119 906 1312 657 
Q 1506 409 1894 409 
Q 2359 409 2629 706 
Q 2900 1003 2900 1516 
L 2900 3500 
L 3475 3500 
L 3475 0 
L 2900 0 
L 2900 538 
Q 2691 219 2414 64 
Q 2138 -91 1772 -91 
Q 1169 -91 856 284 
Q 544 659 544 1381 
z
M 1991 3584 
L 1991 3584 
z
" transform="scale(0.015625)"/>
     <path id="DejaVuSans-64" d="M 2906 2969 
L 2906 4863 
L 3481 4863 
L 3481 0 
L 2906 0 
L 2906 525 
Q 2725 213 2448 61 
Q 2172 -91 1784 -91 
Q 1150 -91 751 415 
Q 353 922 353 1747 
Q 353 2572 751 3078 
Q 1150 3584 1784 3584 
Q 2172 3584 2448 3432 
Q 2725 3281 2906 2969 
z
M 947 1747 
Q 947 1113 1208 752 
Q 1469 391 1925 391 
Q 2381 391 2643 752 
Q 2906 1113 2906 1747 
Q 2906 2381 2643 2742 
Q 2381 3103 1925 3103 
Q 1469 3103 1208 2742 
Q 947 2381 947 1747 
z
" transform="scale(0.015625)"/>
     <path id="DejaVuSans-74" d="M 1172 4494 
L 1172 3500 
L 2356 3500 
L 2356 3053 
L 1172 3053 
L 1172 1153 
Q 1172 725 1289 603 
Q 1406 481 1766 481 
L 2356 481 
L 2356 0 
L 1766 0 
Q 1100 0 847 248 
Q 594 497 594 1153 
L 594 3053 
L 172 3053 
L 172 3500 
L 594 3500 
L 594 4494 
L 1172 4494 
z
" transform="scale(0.015625)"/>
     <path id="DejaVuSans-61" d="M 2194 1759 
Q 1497 1759 1228 1600 
Q 959 1441 959 1056 
Q 959 750 1161 570 
Q 1363 391 1709 391 
Q 2188 391 2477 730 
Q 2766 1069 2766 1631 
L 2766 1759 
L 2194 1759 
z
M 3341 1997 
L 3341 0 
L 2766 0 
L 2766 531 
Q 2569 213 2275 61 
Q 1981 -91 1556 -91 
Q 1019 -91 701 211 
Q 384 513 384 1019 
Q 384 1609 779 1909 
Q 1175 2209 1959 2209 
L 2766 2209 
L 2766 2266 
Q 2766 2663 2505 2880 
Q 2244 3097 1772 3097 
Q 1472 3097 1187 3025 
Q 903 2953 641 2809 
L 641 3341 
Q 956 3463 1253 3523 
Q 1550 3584 1831 3584 
Q 2591 3584 2966 3190 
Q 3341 2797 3341 1997 
z
" transform="scale(0.015625)"/>
     <path id="DejaVuSans-66" d="M 2375 4863 
L 2375 4384 
L 1825 4384 
Q 1516 4384 1395 4259 
Q 1275 4134 1275 3809 
L 1275 3500 
L 2222 3500 
L 2222 3053 
L 1275 3053 
L 1275 0 
L 697 0 
L 697 3053 
L 147 3053 
L 147 3500 
L 697 3500 
L 697 3744 
Q 697 4328 969 4595 
Q 1241 4863 1831 4863 
L 2375 4863 
z
" transform="scale(0.015625)"/>
     <path id="DejaVuSans-6d" d="M 3328 2828 
Q 3544 3216 3844 3400 
Q 4144 3584 4550 3584 
Q 5097 3584 5394 3201 
Q 5691 2819 5691 2113 
L 5691 0 
L 5113 0 
L 5113 2094 
Q 5113 2597 4934 2840 
Q 4756 3084 4391 3084 
Q 3944 3084 3684 2787 
Q 3425 2491 3425 1978 
L 3425 0 
L 2847 0 
L 2847 2094 
Q 2847 2600 2669 2842 
Q 2491 3084 2119 3084 
Q 1678 3084 1418 2786 
Q 1159 2488 1159 1978 
L 1159 0 
L 581 0 
L 581 3500 
L 1159 3500 
L 1159 2956 
Q 1356 3278 1631 3431 
Q 1906 3584 2284 3584 
Q 2666 3584 2933 3390 
Q 3200 3197 3328 2828 
z
" transform="scale(0.015625)"/>
     <path id="DejaVuSans-70" d="M 1159 525 
L 1159 -1331 
L 581 -1331 
L 581 3500 
L 1159 3500 
L 1159 2969 
Q 1341 3281 1617 3432 
Q 1894 3584 2278 3584 
Q 2916 3584 3314 3078 
Q 3713 2572 3713 1747 
Q 3713 922 3314 415 
Q 2916 -91 2278 -91 
Q 1894 -91 1617 61 
Q 1341 213 1159 525 
z
M 3116 1747 
Q 3116 2381 2855 2742 
Q 2594 3103 2138 3103 
Q 1681 3103 1420 2742 
Q 1159 2381 1159 1747 
Q 1159 1113 1420 752 
Q 1681 391 2138 391 
Q 2594 391 2855 752 
Q 3116 1113 3116 1747 
z
" transform="scale(0.015625)"/>
     <path id="DejaVuSans-79" d="M 2059 -325 
Q 1816 -950 1584 -1140 
Q 1353 -1331 966 -1331 
L 506 -1331 
L 506 -850 
L 844 -850 
Q 1081 -850 1212 -737 
Q 1344 -625 1503 -206 
L 1606 56 
L 191 3500 
L 800 3500 
L 1894 763 
L 2988 3500 
L 3597 3500 
L 2059 -325 
z
" transform="scale(0.015625)"/>
    </defs>
    <use xlink:href="#DejaVuSans-49"/>
    <use xlink:href="#DejaVuSans-43" x="29.492188"/>
    <use xlink:href="#DejaVuSans-49" x="99.316406"/>
    <use xlink:href="#DejaVuSans-43" x="128.808594"/>
    <use xlink:href="#DejaVuSans-49" x="198.632812"/>
    <use xlink:href="#DejaVuSans-20" x="228.125"/>
    <use xlink:href="#DejaVuSans-50" x="259.912109"/>
    <use xlink:href="#DejaVuSans-72" x="318.464844"/>
    <use xlink:href="#DejaVuSans-75" x="359.578125"/>
    <use xlink:href="#DejaVuSans-64" x="422.957031"/>
    <use xlink:href="#DejaVuSans-65" x="486.433594"/>
    <use xlink:href="#DejaVuSans-6e" x="547.957031"/>
    <use xlink:href="#DejaVuSans-74" x="611.335938"/>
    <use xlink:href="#DejaVuSans-69" x="650.544922"/>
    <use xlink:href="#DejaVuSans-61" x="678.328125"/>
    <use xlink:href="#DejaVuSans-6c" x="739.607422"/>
    <use xlink:href="#DejaVuSans-20" x="767.390625"/>
    <use xlink:href="#DejaVuSans-4c" x="799.177734"/>
    <use xlink:href="#DejaVuSans-69" x="854.890625"/>
    <use xlink:href="#DejaVuSans-66" x="882.673828"/>
    <use xlink:href="#DejaVuSans-65" x="917.878906"/>
    <use xlink:href="#DejaVuSans-20" x="979.402344"/>
    <use xlink:href="#DejaVuSans-49" x="1011.189453"/>
    <use xlink:href="#DejaVuSans-6e" x="1040.681641"/>
    <use xlink:href="#DejaVuSans-73" x="1104.060547"/>
    <use xlink:href="#DejaVuSans-75" x="1156.160156"/>
    <use xlink:href="#DejaVuSans-72" x="1219.539062"/>
    <use xlink:href="#DejaVuSans-61" x="1260.652344"/>
    <use xlink:href="#DejaVuSans-6e" x="1321.931641"/>
    <use xlink:href="#DejaVuSans-63" x="1385.310547"/>
    <use xlink:href="#DejaVuSans-65" x="1440.291016"/>
    <use xlink:href="#DejaVuSans-20" x="1501.814453"/>
    <use xlink:href="#DejaVuSans-43" x="1533.601562"/>
    <use xlink:href="#DejaVuSans-6f" x="1603.425781"/>
    <use xlink:href="#DejaVuSans-6d" x="1664.607422"/>
    <use xlink:href="#DejaVuSans-70" x="1762.019531"/>
    <use xlink:href="#DejaVuSans-61" x="1825.496094"/>
    <use xlink:href="#DejaVuSans-6e" x="1886.775391"/>
    <use xlink:href="#DejaVuSans-79" x="1950.154297"/>
    <use xlink:href="#DejaVuSans-20" x="2009.333984"/>
    <use xlink:href="#DejaVuSans-4c" x="2041.121094"/>
    <use xlink:href="#DejaVuSans-69" x="2096.833984"/>
    <use xlink:href="#DejaVuSans-6d" x="2124.617188"/>
    <use xlink:href="#DejaVuSans-69" x="2222.029297"/>
    <use xlink:href="#DejaVuSans-74" x="2249.8125"/>
    <use xlink:href="#DejaVuSans-65" x="2289.021484"/>
    <use xlink:href="#DejaVuSans-64" x="2350.544922"/>
   </g>
  </g>
 </g>
 <defs>
  <clipPath id="p474bbe55d9">
   <rect x="38.904688" y="48.331875" width="943.971418" height="253.385938"/>
  </clipPath>
  <clipPath id="pa8d0f08211">
   <rect x="38.904688" y="331.135938" width="943.971418" height="253.385937"/>
  </clipPath>
 </defs>
</svg>
