<?xml version="1.0" encoding="utf-8" standalone="no"?>
<!DOCTYPE svg PUBLIC "-//W3C//DTD SVG 1.1//EN"
  "http://www.w3.org/Graphics/SVG/1.1/DTD/svg11.dtd">
<svg xmlns:xlink="http://www.w3.org/1999/xlink" width="1008pt" height="612pt" viewBox="0 0 1008 612" xmlns="http://www.w3.org/2000/svg" version="1.1">
 <metadata>
  <rdf:RDF xmlns:dc="http://purl.org/dc/elements/1.1/" xmlns:cc="http://creativecommons.org/ns#" xmlns:rdf="http://www.w3.org/1999/02/22-rdf-syntax-ns#">
   <cc:Work>
    <dc:type rdf:resource="http://purl.org/dc/dcmitype/StillImage"/>
    <dc:date>2022-11-20T19:47:20.093141</dc:date>
    <dc:format>image/svg+xml</dc:format>
    <dc:creator>
     <cc:Agent>
      <dc:title>Matplotlib v3.5.2, https://matplotlib.org/</dc:title>
     </cc:Agent>
    </dc:creator>
   </cc:Work>
  </rdf:RDF>
 </metadata>
 <defs>
  <style type="text/css">*{stroke-linejoin: round; stroke-linecap: butt}</style>
 </defs>
 <g id="figure_1">
  <g id="patch_1">
   <path d="M 0 612 
L 1008 612 
L 1008 0 
L 0 0 
z
" style="fill: #ffffff"/>
  </g>
  <g id="axes_1">
   <g id="patch_2">
    <path d="M 38.904688 301.717812 
L 982.876106 301.717812 
L 982.876106 48.331875 
L 38.904688 48.331875 
z
" style="fill: #ffffff"/>
   </g>
   <g id="matplotlib.axis_1">
    <g id="xtick_1">
     <g id="line2d_1">
      <path d="M 76.432192 301.717812 
L 76.432192 48.331875 
" clip-path="url(#p74824e4d14)" style="fill: none; stroke-dasharray: 2.96,1.28; stroke-dashoffset: 0; stroke: #b0b0b0; stroke-width: 0.8"/>
     </g>
     <g id="line2d_2">
      <defs>
       <path id="mc959a30fc9" d="M 0 0 
L 0 3.5 
" style="stroke: #000000; stroke-width: 0.8"/>
      </defs>
      <g>
       <use xlink:href="#mc959a30fc9" x="76.432192" y="301.717812" style="stroke: #000000; stroke-width: 0.8"/>
      </g>
     </g>
    </g>
    <g id="xtick_2">
     <g id="line2d_3">
      <path d="M 159.826646 301.717812 
L 159.826646 48.331875 
" clip-path="url(#p74824e4d14)" style="fill: none; stroke-dasharray: 2.96,1.28; stroke-dashoffset: 0; stroke: #b0b0b0; stroke-width: 0.8"/>
     </g>
     <g id="line2d_4">
      <g>
       <use xlink:href="#mc959a30fc9" x="159.826646" y="301.717812" style="stroke: #000000; stroke-width: 0.8"/>
      </g>
     </g>
    </g>
    <g id="xtick_3">
     <g id="line2d_5">
      <path d="M 235.150669 301.717812 
L 235.150669 48.331875 
" clip-path="url(#p74824e4d14)" style="fill: none; stroke-dasharray: 2.96,1.28; stroke-dashoffset: 0; stroke: #b0b0b0; stroke-width: 0.8"/>
     </g>
     <g id="line2d_6">
      <g>
       <use xlink:href="#mc959a30fc9" x="235.150669" y="301.717812" style="stroke: #000000; stroke-width: 0.8"/>
      </g>
     </g>
    </g>
    <g id="xtick_4">
     <g id="line2d_7">
      <path d="M 318.545123 301.717812 
L 318.545123 48.331875 
" clip-path="url(#p74824e4d14)" style="fill: none; stroke-dasharray: 2.96,1.28; stroke-dashoffset: 0; stroke: #b0b0b0; stroke-width: 0.8"/>
     </g>
     <g id="line2d_8">
      <g>
       <use xlink:href="#mc959a30fc9" x="318.545123" y="301.717812" style="stroke: #000000; stroke-width: 0.8"/>
      </g>
     </g>
    </g>
    <g id="xtick_5">
     <g id="line2d_9">
      <path d="M 399.249434 301.717812 
L 399.249434 48.331875 
" clip-path="url(#p74824e4d14)" style="fill: none; stroke-dasharray: 2.96,1.28; stroke-dashoffset: 0; stroke: #b0b0b0; stroke-width: 0.8"/>
     </g>
     <g id="line2d_10">
      <g>
       <use xlink:href="#mc959a30fc9" x="399.249434" y="301.717812" style="stroke: #000000; stroke-width: 0.8"/>
      </g>
     </g>
    </g>
    <g id="xtick_6">
     <g id="line2d_11">
      <path d="M 482.643888 301.717812 
L 482.643888 48.331875 
" clip-path="url(#p74824e4d14)" style="fill: none; stroke-dasharray: 2.96,1.28; stroke-dashoffset: 0; stroke: #b0b0b0; stroke-width: 0.8"/>
     </g>
     <g id="line2d_12">
      <g>
       <use xlink:href="#mc959a30fc9" x="482.643888" y="301.717812" style="stroke: #000000; stroke-width: 0.8"/>
      </g>
     </g>
    </g>
    <g id="xtick_7">
     <g id="line2d_13">
      <path d="M 563.348198 301.717812 
L 563.348198 48.331875 
" clip-path="url(#p74824e4d14)" style="fill: none; stroke-dasharray: 2.96,1.28; stroke-dashoffset: 0; stroke: #b0b0b0; stroke-width: 0.8"/>
     </g>
     <g id="line2d_14">
      <g>
       <use xlink:href="#mc959a30fc9" x="563.348198" y="301.717812" style="stroke: #000000; stroke-width: 0.8"/>
      </g>
     </g>
    </g>
    <g id="xtick_8">
     <g id="line2d_15">
      <path d="M 646.742653 301.717812 
L 646.742653 48.331875 
" clip-path="url(#p74824e4d14)" style="fill: none; stroke-dasharray: 2.96,1.28; stroke-dashoffset: 0; stroke: #b0b0b0; stroke-width: 0.8"/>
     </g>
     <g id="line2d_16">
      <g>
       <use xlink:href="#mc959a30fc9" x="646.742653" y="301.717812" style="stroke: #000000; stroke-width: 0.8"/>
      </g>
     </g>
    </g>
    <g id="xtick_9">
     <g id="line2d_17">
      <path d="M 730.137107 301.717812 
L 730.137107 48.331875 
" clip-path="url(#p74824e4d14)" style="fill: none; stroke-dasharray: 2.96,1.28; stroke-dashoffset: 0; stroke: #b0b0b0; stroke-width: 0.8"/>
     </g>
     <g id="line2d_18">
      <g>
       <use xlink:href="#mc959a30fc9" x="730.137107" y="301.717812" style="stroke: #000000; stroke-width: 0.8"/>
      </g>
     </g>
    </g>
    <g id="xtick_10">
     <g id="line2d_19">
      <path d="M 810.841417 301.717812 
L 810.841417 48.331875 
" clip-path="url(#p74824e4d14)" style="fill: none; stroke-dasharray: 2.96,1.28; stroke-dashoffset: 0; stroke: #b0b0b0; stroke-width: 0.8"/>
     </g>
     <g id="line2d_20">
      <g>
       <use xlink:href="#mc959a30fc9" x="810.841417" y="301.717812" style="stroke: #000000; stroke-width: 0.8"/>
      </g>
     </g>
    </g>
    <g id="xtick_11">
     <g id="line2d_21">
      <path d="M 894.235872 301.717812 
L 894.235872 48.331875 
" clip-path="url(#p74824e4d14)" style="fill: none; stroke-dasharray: 2.96,1.28; stroke-dashoffset: 0; stroke: #b0b0b0; stroke-width: 0.8"/>
     </g>
     <g id="line2d_22">
      <g>
       <use xlink:href="#mc959a30fc9" x="894.235872" y="301.717812" style="stroke: #000000; stroke-width: 0.8"/>
      </g>
     </g>
    </g>
    <g id="xtick_12">
     <g id="line2d_23">
      <path d="M 974.940182 301.717812 
L 974.940182 48.331875 
" clip-path="url(#p74824e4d14)" style="fill: none; stroke-dasharray: 2.96,1.28; stroke-dashoffset: 0; stroke: #b0b0b0; stroke-width: 0.8"/>
     </g>
     <g id="line2d_24">
      <g>
       <use xlink:href="#mc959a30fc9" x="974.940182" y="301.717812" style="stroke: #000000; stroke-width: 0.8"/>
      </g>
     </g>
    </g>
   </g>
   <g id="matplotlib.axis_2">
    <g id="ytick_1">
     <g id="line2d_25">
      <path d="M 38.904688 271.750281 
L 982.876106 271.750281 
" clip-path="url(#p74824e4d14)" style="fill: none; stroke-dasharray: 2.96,1.28; stroke-dashoffset: 0; stroke: #b0b0b0; stroke-width: 0.8"/>
     </g>
     <g id="line2d_26">
      <defs>
       <path id="m132e101355" d="M 0 0 
L -3.5 0 
" style="stroke: #000000; stroke-width: 0.8"/>
      </defs>
      <g>
       <use xlink:href="#m132e101355" x="38.904688" y="271.750281" style="stroke: #000000; stroke-width: 0.8"/>
      </g>
     </g>
     <g id="text_1">
      <!-- 675 -->
      <g transform="translate(12.817187 275.5495)scale(0.1 -0.1)">
       <defs>
        <path id="DejaVuSans-36" d="M 2113 2584 
Q 1688 2584 1439 2293 
Q 1191 2003 1191 1497 
Q 1191 994 1439 701 
Q 1688 409 2113 409 
Q 2538 409 2786 701 
Q 3034 994 3034 1497 
Q 3034 2003 2786 2293 
Q 2538 2584 2113 2584 
z
M 3366 4563 
L 3366 3988 
Q 3128 4100 2886 4159 
Q 2644 4219 2406 4219 
Q 1781 4219 1451 3797 
Q 1122 3375 1075 2522 
Q 1259 2794 1537 2939 
Q 1816 3084 2150 3084 
Q 2853 3084 3261 2657 
Q 3669 2231 3669 1497 
Q 3669 778 3244 343 
Q 2819 -91 2113 -91 
Q 1303 -91 875 529 
Q 447 1150 447 2328 
Q 447 3434 972 4092 
Q 1497 4750 2381 4750 
Q 2619 4750 2861 4703 
Q 3103 4656 3366 4563 
z
" transform="scale(0.015625)"/>
        <path id="DejaVuSans-37" d="M 525 4666 
L 3525 4666 
L 3525 4397 
L 1831 0 
L 1172 0 
L 2766 4134 
L 525 4134 
L 525 4666 
z
" transform="scale(0.015625)"/>
        <path id="DejaVuSans-35" d="M 691 4666 
L 3169 4666 
L 3169 4134 
L 1269 4134 
L 1269 2991 
Q 1406 3038 1543 3061 
Q 1681 3084 1819 3084 
Q 2600 3084 3056 2656 
Q 3513 2228 3513 1497 
Q 3513 744 3044 326 
Q 2575 -91 1722 -91 
Q 1428 -91 1123 -41 
Q 819 9 494 109 
L 494 744 
Q 775 591 1075 516 
Q 1375 441 1709 441 
Q 2250 441 2565 725 
Q 2881 1009 2881 1497 
Q 2881 1984 2565 2268 
Q 2250 2553 1709 2553 
Q 1456 2553 1204 2497 
Q 953 2441 691 2322 
L 691 4666 
z
" transform="scale(0.015625)"/>
       </defs>
       <use xlink:href="#DejaVuSans-36"/>
       <use xlink:href="#DejaVuSans-37" x="63.623047"/>
       <use xlink:href="#DejaVuSans-35" x="127.246094"/>
      </g>
     </g>
    </g>
    <g id="ytick_2">
     <g id="line2d_27">
      <path d="M 38.904688 241.304755 
L 982.876106 241.304755 
" clip-path="url(#p74824e4d14)" style="fill: none; stroke-dasharray: 2.96,1.28; stroke-dashoffset: 0; stroke: #b0b0b0; stroke-width: 0.8"/>
     </g>
     <g id="line2d_28">
      <g>
       <use xlink:href="#m132e101355" x="38.904688" y="241.304755" style="stroke: #000000; stroke-width: 0.8"/>
      </g>
     </g>
     <g id="text_2">
      <!-- 700 -->
      <g transform="translate(12.817187 245.103973)scale(0.1 -0.1)">
       <defs>
        <path id="DejaVuSans-30" d="M 2034 4250 
Q 1547 4250 1301 3770 
Q 1056 3291 1056 2328 
Q 1056 1369 1301 889 
Q 1547 409 2034 409 
Q 2525 409 2770 889 
Q 3016 1369 3016 2328 
Q 3016 3291 2770 3770 
Q 2525 4250 2034 4250 
z
M 2034 4750 
Q 2819 4750 3233 4129 
Q 3647 3509 3647 2328 
Q 3647 1150 3233 529 
Q 2819 -91 2034 -91 
Q 1250 -91 836 529 
Q 422 1150 422 2328 
Q 422 3509 836 4129 
Q 1250 4750 2034 4750 
z
" transform="scale(0.015625)"/>
       </defs>
       <use xlink:href="#DejaVuSans-37"/>
       <use xlink:href="#DejaVuSans-30" x="63.623047"/>
       <use xlink:href="#DejaVuSans-30" x="127.246094"/>
      </g>
     </g>
    </g>
    <g id="ytick_3">
     <g id="line2d_29">
      <path d="M 38.904688 210.859228 
L 982.876106 210.859228 
" clip-path="url(#p74824e4d14)" style="fill: none; stroke-dasharray: 2.96,1.28; stroke-dashoffset: 0; stroke: #b0b0b0; stroke-width: 0.8"/>
     </g>
     <g id="line2d_30">
      <g>
       <use xlink:href="#m132e101355" x="38.904688" y="210.859228" style="stroke: #000000; stroke-width: 0.8"/>
      </g>
     </g>
     <g id="text_3">
      <!-- 725 -->
      <g transform="translate(12.817187 214.658447)scale(0.1 -0.1)">
       <defs>
        <path id="DejaVuSans-32" d="M 1228 531 
L 3431 531 
L 3431 0 
L 469 0 
L 469 531 
Q 828 903 1448 1529 
Q 2069 2156 2228 2338 
Q 2531 2678 2651 2914 
Q 2772 3150 2772 3378 
Q 2772 3750 2511 3984 
Q 2250 4219 1831 4219 
Q 1534 4219 1204 4116 
Q 875 4013 500 3803 
L 500 4441 
Q 881 4594 1212 4672 
Q 1544 4750 1819 4750 
Q 2544 4750 2975 4387 
Q 3406 4025 3406 3419 
Q 3406 3131 3298 2873 
Q 3191 2616 2906 2266 
Q 2828 2175 2409 1742 
Q 1991 1309 1228 531 
z
" transform="scale(0.015625)"/>
       </defs>
       <use xlink:href="#DejaVuSans-37"/>
       <use xlink:href="#DejaVuSans-32" x="63.623047"/>
       <use xlink:href="#DejaVuSans-35" x="127.246094"/>
      </g>
     </g>
    </g>
    <g id="ytick_4">
     <g id="line2d_31">
      <path d="M 38.904688 180.413702 
L 982.876106 180.413702 
" clip-path="url(#p74824e4d14)" style="fill: none; stroke-dasharray: 2.96,1.28; stroke-dashoffset: 0; stroke: #b0b0b0; stroke-width: 0.8"/>
     </g>
     <g id="line2d_32">
      <g>
       <use xlink:href="#m132e101355" x="38.904688" y="180.413702" style="stroke: #000000; stroke-width: 0.8"/>
      </g>
     </g>
     <g id="text_4">
      <!-- 750 -->
      <g transform="translate(12.817187 184.212921)scale(0.1 -0.1)">
       <use xlink:href="#DejaVuSans-37"/>
       <use xlink:href="#DejaVuSans-35" x="63.623047"/>
       <use xlink:href="#DejaVuSans-30" x="127.246094"/>
      </g>
     </g>
    </g>
    <g id="ytick_5">
     <g id="line2d_33">
      <path d="M 38.904688 149.968176 
L 982.876106 149.968176 
" clip-path="url(#p74824e4d14)" style="fill: none; stroke-dasharray: 2.96,1.28; stroke-dashoffset: 0; stroke: #b0b0b0; stroke-width: 0.8"/>
     </g>
     <g id="line2d_34">
      <g>
       <use xlink:href="#m132e101355" x="38.904688" y="149.968176" style="stroke: #000000; stroke-width: 0.8"/>
      </g>
     </g>
     <g id="text_5">
      <!-- 775 -->
      <g transform="translate(12.817187 153.767394)scale(0.1 -0.1)">
       <use xlink:href="#DejaVuSans-37"/>
       <use xlink:href="#DejaVuSans-37" x="63.623047"/>
       <use xlink:href="#DejaVuSans-35" x="127.246094"/>
      </g>
     </g>
    </g>
    <g id="ytick_6">
     <g id="line2d_35">
      <path d="M 38.904688 119.522649 
L 982.876106 119.522649 
" clip-path="url(#p74824e4d14)" style="fill: none; stroke-dasharray: 2.96,1.28; stroke-dashoffset: 0; stroke: #b0b0b0; stroke-width: 0.8"/>
     </g>
     <g id="line2d_36">
      <g>
       <use xlink:href="#m132e101355" x="38.904688" y="119.522649" style="stroke: #000000; stroke-width: 0.8"/>
      </g>
     </g>
     <g id="text_6">
      <!-- 800 -->
      <g transform="translate(12.817187 123.321868)scale(0.1 -0.1)">
       <defs>
        <path id="DejaVuSans-38" d="M 2034 2216 
Q 1584 2216 1326 1975 
Q 1069 1734 1069 1313 
Q 1069 891 1326 650 
Q 1584 409 2034 409 
Q 2484 409 2743 651 
Q 3003 894 3003 1313 
Q 3003 1734 2745 1975 
Q 2488 2216 2034 2216 
z
M 1403 2484 
Q 997 2584 770 2862 
Q 544 3141 544 3541 
Q 544 4100 942 4425 
Q 1341 4750 2034 4750 
Q 2731 4750 3128 4425 
Q 3525 4100 3525 3541 
Q 3525 3141 3298 2862 
Q 3072 2584 2669 2484 
Q 3125 2378 3379 2068 
Q 3634 1759 3634 1313 
Q 3634 634 3220 271 
Q 2806 -91 2034 -91 
Q 1263 -91 848 271 
Q 434 634 434 1313 
Q 434 1759 690 2068 
Q 947 2378 1403 2484 
z
M 1172 3481 
Q 1172 3119 1398 2916 
Q 1625 2713 2034 2713 
Q 2441 2713 2670 2916 
Q 2900 3119 2900 3481 
Q 2900 3844 2670 4047 
Q 2441 4250 2034 4250 
Q 1625 4250 1398 4047 
Q 1172 3844 1172 3481 
z
" transform="scale(0.015625)"/>
       </defs>
       <use xlink:href="#DejaVuSans-38"/>
       <use xlink:href="#DejaVuSans-30" x="63.623047"/>
       <use xlink:href="#DejaVuSans-30" x="127.246094"/>
      </g>
     </g>
    </g>
    <g id="ytick_7">
     <g id="line2d_37">
      <path d="M 38.904688 89.077123 
L 982.876106 89.077123 
" clip-path="url(#p74824e4d14)" style="fill: none; stroke-dasharray: 2.96,1.28; stroke-dashoffset: 0; stroke: #b0b0b0; stroke-width: 0.8"/>
     </g>
     <g id="line2d_38">
      <g>
       <use xlink:href="#m132e101355" x="38.904688" y="89.077123" style="stroke: #000000; stroke-width: 0.8"/>
      </g>
     </g>
     <g id="text_7">
      <!-- 825 -->
      <g transform="translate(12.817187 92.876342)scale(0.1 -0.1)">
       <use xlink:href="#DejaVuSans-38"/>
       <use xlink:href="#DejaVuSans-32" x="63.623047"/>
       <use xlink:href="#DejaVuSans-35" x="127.246094"/>
      </g>
     </g>
    </g>
    <g id="ytick_8">
     <g id="line2d_39">
      <path d="M 38.904688 58.631597 
L 982.876106 58.631597 
" clip-path="url(#p74824e4d14)" style="fill: none; stroke-dasharray: 2.96,1.28; stroke-dashoffset: 0; stroke: #b0b0b0; stroke-width: 0.8"/>
     </g>
     <g id="line2d_40">
      <g>
       <use xlink:href="#m132e101355" x="38.904688" y="58.631597" style="stroke: #000000; stroke-width: 0.8"/>
      </g>
     </g>
     <g id="text_8">
      <!-- 850 -->
      <g transform="translate(12.817187 62.430815)scale(0.1 -0.1)">
       <use xlink:href="#DejaVuSans-38"/>
       <use xlink:href="#DejaVuSans-35" x="63.623047"/>
       <use xlink:href="#DejaVuSans-30" x="127.246094"/>
      </g>
     </g>
    </g>
   </g>
   <g id="line2d_41">
    <path d="M 81.812479 182.849344 
L 84.502623 193.992407 
L 87.192767 200.385967 
L 89.88291 210.311209 
L 92.573054 197.341415 
L 100.643485 202.456263 
L 103.333629 194.235971 
L 106.023772 197.341415 
L 108.713916 204.526559 
L 111.40406 165.190939 
L 119.474491 162.024604 
L 122.164634 203.004282 
L 124.854778 219.810213 
L 127.544922 212.746851 
L 130.235066 208.971606 
L 138.305497 251.717125 
L 140.99564 231.866641 
L 146.375928 234.058719 
L 149.066071 219.505758 
L 157.136502 208.05824 
L 159.826646 197.341415 
L 162.51679 189.608251 
L 167.897077 200.142403 
L 175.967508 235.459214 
L 178.657652 244.836436 
L 181.347796 241.06119 
L 184.037939 233.145354 
L 186.728083 240.086934 
L 194.798514 248.246335 
L 197.488658 238.869112 
L 200.178801 240.086934 
L 202.868945 216.522096 
L 205.559089 219.992886 
L 213.62952 225.229517 
L 216.319663 222.793875 
L 219.009807 212.990415 
L 221.699951 268.462164 
L 224.390094 229.735455 
L 232.460525 218.653283 
L 237.840813 227.908723 
L 240.530957 257.075537 
L 243.2211 277.900277 
L 251.291531 290.20027 
L 253.981675 261.155238 
L 256.671819 242.339902 
L 259.361962 211.833485 
L 262.052106 221.271598 
L 270.122537 214.208236 
L 272.812681 182.118651 
L 275.502824 183.032017 
L 278.192968 153.256292 
L 288.953543 183.092908 
L 291.643687 176.882021 
L 294.33383 181.875087 
L 297.023974 191.983002 
L 299.714118 200.690422 
L 307.784549 191.069636 
L 310.474692 188.694885 
L 313.164836 161.111238 
L 315.85498 147.045405 
L 318.545123 131.944424 
L 326.615554 134.01472 
L 329.305698 111.424139 
L 331.995842 108.257804 
L 334.685985 113.555326 
L 337.376129 97.967217 
L 345.44656 93.339497 
L 348.136704 104.787014 
L 350.826848 98.088999 
L 364.277566 92.36524 
L 366.96771 130.056801 
L 369.657853 106.796419 
L 372.347997 95.105337 
L 375.038141 100.524641 
L 383.108572 128.351852 
L 385.798715 92.669695 
L 388.488859 121.227599 
L 391.179003 105.335034 
L 393.869146 90.599399 
L 401.939578 89.807816 
L 407.319865 115.50384 
L 410.010009 148.324117 
L 412.700152 162.207277 
L 420.770583 170.366678 
L 423.460727 185.52855 
L 426.150871 187.598846 
L 428.841014 194.966664 
L 431.531158 195.514683 
L 439.601589 198.072107 
L 442.291733 199.594384 
L 444.981876 175.177071 
L 447.67202 215.365166 
L 450.362164 193.079041 
L 458.432595 205.135469 
L 461.122739 222.854766 
L 463.812882 221.576054 
L 466.503026 214.208236 
L 469.19317 210.311209 
L 477.263601 180.231029 
L 479.953744 168.539947 
L 482.643888 166.895888 
L 485.334032 170.366678 
L 488.024175 175.6642 
L 496.094606 163.790445 
L 498.78475 172.376083 
L 501.474894 171.706281 
L 504.165037 175.055289 
L 506.855181 172.376083 
L 514.925612 197.524088 
L 517.615756 197.64587 
L 520.3059 195.33201 
L 525.686187 227.117139 
L 533.756618 220.78447 
L 536.446762 208.119131 
L 539.136905 230.405256 
L 541.827049 218.835956 
L 544.517193 205.987944 
L 552.587624 205.500816 
L 555.277767 196.428049 
L 557.967911 216.948334 
L 560.658055 233.571591 
L 563.348198 217.496353 
L 571.41863 204.58745 
L 574.108773 205.927053 
L 576.798917 180.474593 
L 579.489061 174.50727 
L 582.179204 166.530542 
L 590.249635 161.050347 
L 592.939779 172.558756 
L 595.629923 165.130048 
L 598.320066 161.111238 
L 601.01021 131.031058 
L 609.080641 126.403338 
L 611.770785 135.049868 
L 614.460928 125.611755 
L 617.151072 97.236524 
L 619.841216 114.590474 
L 627.911647 109.840972 
L 630.601791 130.665712 
L 633.291934 117.574136 
L 638.672222 105.335034 
L 646.742653 106.004836 
L 649.432796 105.395925 
L 652.12294 103.995431 
L 654.813084 132.614226 
L 657.503227 138.033529 
L 665.573658 133.284027 
L 670.953946 131.031058 
L 673.64409 151.855798 
L 676.334233 164.034009 
L 687.094808 144.487981 
L 692.475095 109.962754 
L 695.165239 135.415214 
L 703.23567 126.890467 
L 705.925814 108.136022 
L 708.615957 112.581069 
L 711.306101 117.26968 
L 713.996245 117.147898 
L 722.066676 112.03305 
L 724.756819 107.770676 
L 730.137107 72.758321 
L 732.827251 78.48208 
L 740.897682 73.915251 
L 743.587825 97.297415 
L 746.277969 88.955341 
L 748.968113 96.262267 
L 751.658256 99.672166 
L 759.728687 88.468212 
L 762.418831 59.849418 
L 765.108975 70.505352 
L 767.799118 73.976142 
L 770.489262 125.36819 
L 778.559693 128.047397 
L 781.249837 114.407801 
L 783.939981 114.407801 
L 786.630124 115.625622 
L 789.320268 141.991448 
L 797.390699 142.843922 
L 800.080843 122.140965 
L 802.770986 127.255813 
L 805.46113 128.534525 
L 808.151274 116.051859 
L 816.221705 146.375603 
L 818.911848 137.607292 
L 824.292136 126.464229 
L 826.982279 142.783031 
L 835.05271 171.706281 
L 837.742854 189.425578 
L 840.432998 171.462717 
L 843.123142 171.401826 
L 845.813285 166.713215 
L 853.883716 164.399355 
L 856.57386 150.759759 
L 859.264004 162.694406 
L 861.954147 155.204806 
L 864.644291 166.226087 
L 872.714722 154.900351 
L 875.404866 159.771635 
L 880.785153 155.99639 
L 883.475297 166.591433 
L 891.545728 155.874608 
L 894.235872 150.150849 
L 896.926015 158.432032 
L 899.616159 164.886483 
L 902.306303 162.998861 
L 910.376734 153.438966 
L 915.757021 155.874608 
L 918.447165 157.640448 
L 921.137308 152.160253 
L 929.207739 158.797378 
L 931.897883 152.708273 
L 934.588027 156.6053 
L 937.27817 136.572144 
L 939.968314 149.115701 
L 939.968314 149.115701 
" clip-path="url(#p74824e4d14)" style="fill: none; stroke: #1f77b4; stroke-width: 1.5; stroke-linecap: square"/>
   </g>
   <g id="line2d_42">
    <path d="M 92.573054 196.976068 
L 100.643485 200.897452 
L 103.333629 200.946165 
L 106.023772 200.337254 
L 108.713916 199.180324 
L 111.40406 192.750229 
L 119.474491 184.663897 
L 122.164634 186.41756 
L 124.854778 190.911319 
L 127.544922 192.555378 
L 130.235066 201.311511 
L 140.99564 225.022487 
L 149.066071 229.22397 
L 157.136502 229.041297 
L 159.826646 218.166155 
L 162.51679 209.714476 
L 165.206933 201.883887 
L 167.897077 198.011216 
L 175.967508 203.491411 
L 178.657652 212.990415 
L 181.347796 223.281003 
L 184.037939 230.928919 
L 186.728083 238.917825 
L 194.798514 241.47525 
L 197.488658 240.281785 
L 200.178801 240.086934 
L 202.868945 236.762282 
L 205.559089 232.743473 
L 213.62952 228.140109 
L 216.319663 224.925061 
L 219.009807 219.505758 
L 221.699951 229.893771 
L 224.390094 231.842285 
L 232.460525 230.527038 
L 237.840813 231.550008 
L 240.530957 240.367032 
L 243.2211 242.254655 
L 251.291531 254.347618 
L 253.981675 262.848009 
L 256.671819 265.734245 
L 259.361962 256.685834 
L 262.052106 245.360099 
L 270.122537 230.161692 
L 272.812681 214.354375 
L 278.192968 190.777359 
L 288.953543 183.141621 
L 291.643687 175.676378 
L 294.33383 175.627665 
L 297.023974 177.417862 
L 299.714118 186.904688 
L 307.784549 188.500034 
L 310.474692 190.862607 
L 313.164836 186.709837 
L 315.85498 177.722317 
L 318.545123 163.973118 
L 326.615554 152.562134 
L 329.305698 137.107985 
L 331.995842 126.537299 
L 337.376129 113.043841 
L 345.44656 104.908797 
L 348.136704 103.581372 
L 350.826848 101.54761 
L 364.277566 97.309593 
L 366.96771 103.72751 
L 369.657853 106.418895 
L 372.347997 104.482559 
L 375.038141 104.969688 
L 383.108572 112.16701 
L 385.798715 104.689589 
L 388.488859 107.575825 
L 391.179003 109.621764 
L 393.869146 107.636716 
L 401.939578 99.927908 
L 407.319865 104.494737 
L 410.010009 109.914041 
L 412.700152 121.28849 
L 420.770583 137.241946 
L 423.460727 156.386093 
L 426.150871 170.805094 
L 428.841014 180.133603 
L 431.531158 186.795084 
L 439.601589 192.33617 
L 442.291733 195.149337 
L 444.981876 192.664982 
L 447.67202 196.744682 
L 450.362164 196.257554 
L 458.432595 197.670226 
L 461.122739 202.322303 
L 463.812882 211.602099 
L 466.503026 211.370713 
L 469.19317 214.817147 
L 477.263601 209.836259 
L 482.643888 188.037262 
L 485.334032 179.26895 
L 488.024175 172.339548 
L 496.094606 169.051431 
L 498.78475 169.818659 
L 504.165037 171.71846 
L 506.855181 171.060836 
L 514.925612 177.807565 
L 517.615756 182.861522 
L 520.3059 187.586668 
L 522.996043 194.759634 
L 525.686187 205.707845 
L 533.756618 210.359922 
L 536.446762 212.454574 
L 539.136905 219.469223 
L 541.827049 221.05239 
L 544.517193 216.826551 
L 552.587624 213.769821 
L 555.277767 211.431604 
L 557.967911 208.74022 
L 560.658055 211.687347 
L 563.348198 213.989028 
L 571.41863 213.806355 
L 574.108773 215.706156 
L 576.798917 208.411408 
L 579.489061 196.598544 
L 582.179204 186.405381 
L 590.249635 177.697961 
L 592.939779 171.024302 
L 595.629923 167.955393 
L 598.320066 165.276186 
L 601.01021 158.176289 
L 609.080641 151.246888 
L 611.770785 143.74511 
L 614.460928 135.841451 
L 617.151072 123.066509 
L 619.841216 119.778392 
L 627.911647 116.465918 
L 630.601791 115.589087 
L 633.291934 113.981563 
L 635.982078 116.831265 
L 638.672222 114.980177 
L 646.742653 114.212949 
L 649.432796 109.158992 
L 652.12294 106.443251 
L 654.813084 110.66909 
L 657.503227 117.208789 
L 665.573658 122.664628 
L 670.953946 127.791654 
L 673.64409 137.363728 
L 676.334233 143.647684 
L 687.094808 144.938575 
L 689.784952 143.769466 
L 692.475095 139.555806 
L 695.165239 136.267689 
L 703.23567 128.83898 
L 705.925814 121.568589 
L 708.615957 118.597105 
L 711.306101 120.05849 
L 713.996245 116.405027 
L 722.066676 113.433544 
L 724.756819 113.360475 
L 730.137107 105.395925 
L 732.827251 97.638405 
L 743.587825 86.044748 
L 746.277969 82.281681 
L 748.968113 86.982471 
L 751.658256 91.220488 
L 759.728687 94.13108 
L 762.418831 86.641481 
L 765.108975 82.951483 
L 767.799118 78.494258 
L 770.489262 83.633463 
L 778.559693 91.5493 
L 781.249837 102.460976 
L 783.939981 111.241466 
L 786.630124 119.571362 
L 789.320268 122.896014 
L 797.390699 125.855319 
L 800.080843 127.401951 
L 805.46113 132.553335 
L 808.151274 127.365417 
L 816.221705 128.071753 
L 818.911848 131.165019 
L 824.292136 131.006702 
L 826.982279 133.856403 
L 835.05271 144.987287 
L 837.742854 153.597282 
L 840.432998 160.368367 
L 843.123142 169.355887 
L 845.813285 174.141923 
L 853.883716 172.680538 
L 856.57386 164.947375 
L 859.264004 163.193712 
L 861.954147 159.954308 
L 864.644291 159.856883 
L 872.714722 157.957082 
L 875.404866 159.759457 
L 880.785153 158.419854 
L 883.475297 160.697179 
L 891.545728 158.626883 
L 894.235872 157.676983 
L 896.926015 157.409062 
L 899.616159 159.187081 
L 902.306303 158.468567 
L 910.376734 157.981438 
L 915.757021 159.12619 
L 918.447165 158.967873 
L 921.137308 156.422627 
L 929.207739 155.582331 
L 931.897883 155.436192 
L 934.588027 155.582331 
L 937.27817 151.36867 
L 939.968314 150.759759 
L 939.968314 150.759759 
" clip-path="url(#p74824e4d14)" style="fill: none; stroke: #ff7f0e; stroke-width: 1.5; stroke-linecap: square"/>
   </g>
   <g id="patch_3">
    <path d="M 38.904688 301.717812 
L 38.904688 48.331875 
" style="fill: none; stroke: #000000; stroke-width: 0.8; stroke-linejoin: miter; stroke-linecap: square"/>
   </g>
   <g id="patch_4">
    <path d="M 982.876106 301.717812 
L 982.876106 48.331875 
" style="fill: none; stroke: #000000; stroke-width: 0.8; stroke-linejoin: miter; stroke-linecap: square"/>
   </g>
   <g id="patch_5">
    <path d="M 38.904687 301.717812 
L 982.876106 301.717812 
" style="fill: none; stroke: #000000; stroke-width: 0.8; stroke-linejoin: miter; stroke-linecap: square"/>
   </g>
   <g id="patch_6">
    <path d="M 38.904687 48.331875 
L 982.876106 48.331875 
" style="fill: none; stroke: #000000; stroke-width: 0.8; stroke-linejoin: miter; stroke-linecap: square"/>
   </g>
   <g id="text_9">
    <!-- Closing Price -->
    <g transform="translate(472.414459 42.331875)scale(0.12 -0.12)">
     <defs>
      <path id="DejaVuSans-43" d="M 4122 4306 
L 4122 3641 
Q 3803 3938 3442 4084 
Q 3081 4231 2675 4231 
Q 1875 4231 1450 3742 
Q 1025 3253 1025 2328 
Q 1025 1406 1450 917 
Q 1875 428 2675 428 
Q 3081 428 3442 575 
Q 3803 722 4122 1019 
L 4122 359 
Q 3791 134 3420 21 
Q 3050 -91 2638 -91 
Q 1578 -91 968 557 
Q 359 1206 359 2328 
Q 359 3453 968 4101 
Q 1578 4750 2638 4750 
Q 3056 4750 3426 4639 
Q 3797 4528 4122 4306 
z
" transform="scale(0.015625)"/>
      <path id="DejaVuSans-6c" d="M 603 4863 
L 1178 4863 
L 1178 0 
L 603 0 
L 603 4863 
z
" transform="scale(0.015625)"/>
      <path id="DejaVuSans-6f" d="M 1959 3097 
Q 1497 3097 1228 2736 
Q 959 2375 959 1747 
Q 959 1119 1226 758 
Q 1494 397 1959 397 
Q 2419 397 2687 759 
Q 2956 1122 2956 1747 
Q 2956 2369 2687 2733 
Q 2419 3097 1959 3097 
z
M 1959 3584 
Q 2709 3584 3137 3096 
Q 3566 2609 3566 1747 
Q 3566 888 3137 398 
Q 2709 -91 1959 -91 
Q 1206 -91 779 398 
Q 353 888 353 1747 
Q 353 2609 779 3096 
Q 1206 3584 1959 3584 
z
" transform="scale(0.015625)"/>
      <path id="DejaVuSans-73" d="M 2834 3397 
L 2834 2853 
Q 2591 2978 2328 3040 
Q 2066 3103 1784 3103 
Q 1356 3103 1142 2972 
Q 928 2841 928 2578 
Q 928 2378 1081 2264 
Q 1234 2150 1697 2047 
L 1894 2003 
Q 2506 1872 2764 1633 
Q 3022 1394 3022 966 
Q 3022 478 2636 193 
Q 2250 -91 1575 -91 
Q 1294 -91 989 -36 
Q 684 19 347 128 
L 347 722 
Q 666 556 975 473 
Q 1284 391 1588 391 
Q 1994 391 2212 530 
Q 2431 669 2431 922 
Q 2431 1156 2273 1281 
Q 2116 1406 1581 1522 
L 1381 1569 
Q 847 1681 609 1914 
Q 372 2147 372 2553 
Q 372 3047 722 3315 
Q 1072 3584 1716 3584 
Q 2034 3584 2315 3537 
Q 2597 3491 2834 3397 
z
" transform="scale(0.015625)"/>
      <path id="DejaVuSans-69" d="M 603 3500 
L 1178 3500 
L 1178 0 
L 603 0 
L 603 3500 
z
M 603 4863 
L 1178 4863 
L 1178 4134 
L 603 4134 
L 603 4863 
z
" transform="scale(0.015625)"/>
      <path id="DejaVuSans-6e" d="M 3513 2113 
L 3513 0 
L 2938 0 
L 2938 2094 
Q 2938 2591 2744 2837 
Q 2550 3084 2163 3084 
Q 1697 3084 1428 2787 
Q 1159 2491 1159 1978 
L 1159 0 
L 581 0 
L 581 3500 
L 1159 3500 
L 1159 2956 
Q 1366 3272 1645 3428 
Q 1925 3584 2291 3584 
Q 2894 3584 3203 3211 
Q 3513 2838 3513 2113 
z
" transform="scale(0.015625)"/>
      <path id="DejaVuSans-67" d="M 2906 1791 
Q 2906 2416 2648 2759 
Q 2391 3103 1925 3103 
Q 1463 3103 1205 2759 
Q 947 2416 947 1791 
Q 947 1169 1205 825 
Q 1463 481 1925 481 
Q 2391 481 2648 825 
Q 2906 1169 2906 1791 
z
M 3481 434 
Q 3481 -459 3084 -895 
Q 2688 -1331 1869 -1331 
Q 1566 -1331 1297 -1286 
Q 1028 -1241 775 -1147 
L 775 -588 
Q 1028 -725 1275 -790 
Q 1522 -856 1778 -856 
Q 2344 -856 2625 -561 
Q 2906 -266 2906 331 
L 2906 616 
Q 2728 306 2450 153 
Q 2172 0 1784 0 
Q 1141 0 747 490 
Q 353 981 353 1791 
Q 353 2603 747 3093 
Q 1141 3584 1784 3584 
Q 2172 3584 2450 3431 
Q 2728 3278 2906 2969 
L 2906 3500 
L 3481 3500 
L 3481 434 
z
" transform="scale(0.015625)"/>
      <path id="DejaVuSans-20" transform="scale(0.015625)"/>
      <path id="DejaVuSans-50" d="M 1259 4147 
L 1259 2394 
L 2053 2394 
Q 2494 2394 2734 2622 
Q 2975 2850 2975 3272 
Q 2975 3691 2734 3919 
Q 2494 4147 2053 4147 
L 1259 4147 
z
M 628 4666 
L 2053 4666 
Q 2838 4666 3239 4311 
Q 3641 3956 3641 3272 
Q 3641 2581 3239 2228 
Q 2838 1875 2053 1875 
L 1259 1875 
L 1259 0 
L 628 0 
L 628 4666 
z
" transform="scale(0.015625)"/>
      <path id="DejaVuSans-72" d="M 2631 2963 
Q 2534 3019 2420 3045 
Q 2306 3072 2169 3072 
Q 1681 3072 1420 2755 
Q 1159 2438 1159 1844 
L 1159 0 
L 581 0 
L 581 3500 
L 1159 3500 
L 1159 2956 
Q 1341 3275 1631 3429 
Q 1922 3584 2338 3584 
Q 2397 3584 2469 3576 
Q 2541 3569 2628 3553 
L 2631 2963 
z
" transform="scale(0.015625)"/>
      <path id="DejaVuSans-63" d="M 3122 3366 
L 3122 2828 
Q 2878 2963 2633 3030 
Q 2388 3097 2138 3097 
Q 1578 3097 1268 2742 
Q 959 2388 959 1747 
Q 959 1106 1268 751 
Q 1578 397 2138 397 
Q 2388 397 2633 464 
Q 2878 531 3122 666 
L 3122 134 
Q 2881 22 2623 -34 
Q 2366 -91 2075 -91 
Q 1284 -91 818 406 
Q 353 903 353 1747 
Q 353 2603 823 3093 
Q 1294 3584 2113 3584 
Q 2378 3584 2631 3529 
Q 2884 3475 3122 3366 
z
" transform="scale(0.015625)"/>
      <path id="DejaVuSans-65" d="M 3597 1894 
L 3597 1613 
L 953 1613 
Q 991 1019 1311 708 
Q 1631 397 2203 397 
Q 2534 397 2845 478 
Q 3156 559 3463 722 
L 3463 178 
Q 3153 47 2828 -22 
Q 2503 -91 2169 -91 
Q 1331 -91 842 396 
Q 353 884 353 1716 
Q 353 2575 817 3079 
Q 1281 3584 2069 3584 
Q 2775 3584 3186 3129 
Q 3597 2675 3597 1894 
z
M 3022 2063 
Q 3016 2534 2758 2815 
Q 2500 3097 2075 3097 
Q 1594 3097 1305 2825 
Q 1016 2553 972 2059 
L 3022 2063 
z
" transform="scale(0.015625)"/>
     </defs>
     <use xlink:href="#DejaVuSans-43"/>
     <use xlink:href="#DejaVuSans-6c" x="69.824219"/>
     <use xlink:href="#DejaVuSans-6f" x="97.607422"/>
     <use xlink:href="#DejaVuSans-73" x="158.789062"/>
     <use xlink:href="#DejaVuSans-69" x="210.888672"/>
     <use xlink:href="#DejaVuSans-6e" x="238.671875"/>
     <use xlink:href="#DejaVuSans-67" x="302.050781"/>
     <use xlink:href="#DejaVuSans-20" x="365.527344"/>
     <use xlink:href="#DejaVuSans-50" x="397.314453"/>
     <use xlink:href="#DejaVuSans-72" x="455.867188"/>
     <use xlink:href="#DejaVuSans-69" x="496.980469"/>
     <use xlink:href="#DejaVuSans-63" x="524.763672"/>
     <use xlink:href="#DejaVuSans-65" x="579.744141"/>
    </g>
   </g>
   <g id="legend_1">
    <g id="patch_7">
     <path d="M 911.144856 85.688125 
L 975.876106 85.688125 
Q 977.876106 85.688125 977.876106 83.688125 
L 977.876106 55.331875 
Q 977.876106 53.331875 975.876106 53.331875 
L 911.144856 53.331875 
Q 909.144856 53.331875 909.144856 55.331875 
L 909.144856 83.688125 
Q 909.144856 85.688125 911.144856 85.688125 
z
" style="fill: #ffffff; opacity: 0.8; stroke: #cccccc; stroke-linejoin: miter"/>
    </g>
    <g id="line2d_43">
     <path d="M 913.144856 61.430312 
L 923.144856 61.430312 
L 933.144856 61.430312 
" style="fill: none; stroke: #1f77b4; stroke-width: 1.5; stroke-linecap: square"/>
    </g>
    <g id="text_10">
     <!-- CLOSE -->
     <g transform="translate(941.144856 64.930312)scale(0.1 -0.1)">
      <defs>
       <path id="DejaVuSans-4c" d="M 628 4666 
L 1259 4666 
L 1259 531 
L 3531 531 
L 3531 0 
L 628 0 
L 628 4666 
z
" transform="scale(0.015625)"/>
       <path id="DejaVuSans-4f" d="M 2522 4238 
Q 1834 4238 1429 3725 
Q 1025 3213 1025 2328 
Q 1025 1447 1429 934 
Q 1834 422 2522 422 
Q 3209 422 3611 934 
Q 4013 1447 4013 2328 
Q 4013 3213 3611 3725 
Q 3209 4238 2522 4238 
z
M 2522 4750 
Q 3503 4750 4090 4092 
Q 4678 3434 4678 2328 
Q 4678 1225 4090 567 
Q 3503 -91 2522 -91 
Q 1538 -91 948 565 
Q 359 1222 359 2328 
Q 359 3434 948 4092 
Q 1538 4750 2522 4750 
z
" transform="scale(0.015625)"/>
       <path id="DejaVuSans-53" d="M 3425 4513 
L 3425 3897 
Q 3066 4069 2747 4153 
Q 2428 4238 2131 4238 
Q 1616 4238 1336 4038 
Q 1056 3838 1056 3469 
Q 1056 3159 1242 3001 
Q 1428 2844 1947 2747 
L 2328 2669 
Q 3034 2534 3370 2195 
Q 3706 1856 3706 1288 
Q 3706 609 3251 259 
Q 2797 -91 1919 -91 
Q 1588 -91 1214 -16 
Q 841 59 441 206 
L 441 856 
Q 825 641 1194 531 
Q 1563 422 1919 422 
Q 2459 422 2753 634 
Q 3047 847 3047 1241 
Q 3047 1584 2836 1778 
Q 2625 1972 2144 2069 
L 1759 2144 
Q 1053 2284 737 2584 
Q 422 2884 422 3419 
Q 422 4038 858 4394 
Q 1294 4750 2059 4750 
Q 2388 4750 2728 4690 
Q 3069 4631 3425 4513 
z
" transform="scale(0.015625)"/>
       <path id="DejaVuSans-45" d="M 628 4666 
L 3578 4666 
L 3578 4134 
L 1259 4134 
L 1259 2753 
L 3481 2753 
L 3481 2222 
L 1259 2222 
L 1259 531 
L 3634 531 
L 3634 0 
L 628 0 
L 628 4666 
z
" transform="scale(0.015625)"/>
      </defs>
      <use xlink:href="#DejaVuSans-43"/>
      <use xlink:href="#DejaVuSans-4c" x="69.824219"/>
      <use xlink:href="#DejaVuSans-4f" x="121.912109"/>
      <use xlink:href="#DejaVuSans-53" x="200.623047"/>
      <use xlink:href="#DejaVuSans-45" x="264.099609"/>
     </g>
    </g>
    <g id="line2d_44">
     <path d="M 913.144856 76.108437 
L 923.144856 76.108437 
L 933.144856 76.108437 
" style="fill: none; stroke: #ff7f0e; stroke-width: 1.5; stroke-linecap: square"/>
    </g>
    <g id="text_11">
     <!-- SMA5 -->
     <g transform="translate(941.144856 79.608437)scale(0.1 -0.1)">
      <defs>
       <path id="DejaVuSans-4d" d="M 628 4666 
L 1569 4666 
L 2759 1491 
L 3956 4666 
L 4897 4666 
L 4897 0 
L 4281 0 
L 4281 4097 
L 3078 897 
L 2444 897 
L 1241 4097 
L 1241 0 
L 628 0 
L 628 4666 
z
" transform="scale(0.015625)"/>
       <path id="DejaVuSans-41" d="M 2188 4044 
L 1331 1722 
L 3047 1722 
L 2188 4044 
z
M 1831 4666 
L 2547 4666 
L 4325 0 
L 3669 0 
L 3244 1197 
L 1141 1197 
L 716 0 
L 50 0 
L 1831 4666 
z
" transform="scale(0.015625)"/>
      </defs>
      <use xlink:href="#DejaVuSans-53"/>
      <use xlink:href="#DejaVuSans-4d" x="63.476562"/>
      <use xlink:href="#DejaVuSans-41" x="149.755859"/>
      <use xlink:href="#DejaVuSans-35" x="218.164062"/>
     </g>
    </g>
   </g>
  </g>
  <g id="axes_2">
   <g id="patch_8">
    <path d="M 38.904688 584.521875 
L 982.876106 584.521875 
L 982.876106 331.135938 
L 38.904688 331.135938 
z
" style="fill: #ffffff"/>
   </g>
   <g id="matplotlib.axis_3">
    <g id="xtick_13">
     <g id="line2d_45">
      <path d="M 76.432192 584.521875 
L 76.432192 331.135938 
" clip-path="url(#pd122c7662f)" style="fill: none; stroke-dasharray: 2.96,1.28; stroke-dashoffset: 0; stroke: #b0b0b0; stroke-width: 0.8"/>
     </g>
     <g id="line2d_46">
      <g>
       <use xlink:href="#mc959a30fc9" x="76.432192" y="584.521875" style="stroke: #000000; stroke-width: 0.8"/>
      </g>
     </g>
     <g id="text_12">
      <!-- 2022-01 -->
      <g transform="translate(55.540786 599.120312)scale(0.1 -0.1)">
       <defs>
        <path id="DejaVuSans-2d" d="M 313 2009 
L 1997 2009 
L 1997 1497 
L 313 1497 
L 313 2009 
z
" transform="scale(0.015625)"/>
        <path id="DejaVuSans-31" d="M 794 531 
L 1825 531 
L 1825 4091 
L 703 3866 
L 703 4441 
L 1819 4666 
L 2450 4666 
L 2450 531 
L 3481 531 
L 3481 0 
L 794 0 
L 794 531 
z
" transform="scale(0.015625)"/>
       </defs>
       <use xlink:href="#DejaVuSans-32"/>
       <use xlink:href="#DejaVuSans-30" x="63.623047"/>
       <use xlink:href="#DejaVuSans-32" x="127.246094"/>
       <use xlink:href="#DejaVuSans-32" x="190.869141"/>
       <use xlink:href="#DejaVuSans-2d" x="254.492188"/>
       <use xlink:href="#DejaVuSans-30" x="290.576172"/>
       <use xlink:href="#DejaVuSans-31" x="354.199219"/>
      </g>
     </g>
    </g>
    <g id="xtick_14">
     <g id="line2d_47">
      <path d="M 159.826646 584.521875 
L 159.826646 331.135938 
" clip-path="url(#pd122c7662f)" style="fill: none; stroke-dasharray: 2.96,1.28; stroke-dashoffset: 0; stroke: #b0b0b0; stroke-width: 0.8"/>
     </g>
     <g id="line2d_48">
      <g>
       <use xlink:href="#mc959a30fc9" x="159.826646" y="584.521875" style="stroke: #000000; stroke-width: 0.8"/>
      </g>
     </g>
     <g id="text_13">
      <!-- 2022-02 -->
      <g transform="translate(138.93524 599.120312)scale(0.1 -0.1)">
       <use xlink:href="#DejaVuSans-32"/>
       <use xlink:href="#DejaVuSans-30" x="63.623047"/>
       <use xlink:href="#DejaVuSans-32" x="127.246094"/>
       <use xlink:href="#DejaVuSans-32" x="190.869141"/>
       <use xlink:href="#DejaVuSans-2d" x="254.492188"/>
       <use xlink:href="#DejaVuSans-30" x="290.576172"/>
       <use xlink:href="#DejaVuSans-32" x="354.199219"/>
      </g>
     </g>
    </g>
    <g id="xtick_15">
     <g id="line2d_49">
      <path d="M 235.150669 584.521875 
L 235.150669 331.135938 
" clip-path="url(#pd122c7662f)" style="fill: none; stroke-dasharray: 2.96,1.28; stroke-dashoffset: 0; stroke: #b0b0b0; stroke-width: 0.8"/>
     </g>
     <g id="line2d_50">
      <g>
       <use xlink:href="#mc959a30fc9" x="235.150669" y="584.521875" style="stroke: #000000; stroke-width: 0.8"/>
      </g>
     </g>
     <g id="text_14">
      <!-- 2022-03 -->
      <g transform="translate(214.259263 599.120312)scale(0.1 -0.1)">
       <defs>
        <path id="DejaVuSans-33" d="M 2597 2516 
Q 3050 2419 3304 2112 
Q 3559 1806 3559 1356 
Q 3559 666 3084 287 
Q 2609 -91 1734 -91 
Q 1441 -91 1130 -33 
Q 819 25 488 141 
L 488 750 
Q 750 597 1062 519 
Q 1375 441 1716 441 
Q 2309 441 2620 675 
Q 2931 909 2931 1356 
Q 2931 1769 2642 2001 
Q 2353 2234 1838 2234 
L 1294 2234 
L 1294 2753 
L 1863 2753 
Q 2328 2753 2575 2939 
Q 2822 3125 2822 3475 
Q 2822 3834 2567 4026 
Q 2313 4219 1838 4219 
Q 1578 4219 1281 4162 
Q 984 4106 628 3988 
L 628 4550 
Q 988 4650 1302 4700 
Q 1616 4750 1894 4750 
Q 2613 4750 3031 4423 
Q 3450 4097 3450 3541 
Q 3450 3153 3228 2886 
Q 3006 2619 2597 2516 
z
" transform="scale(0.015625)"/>
       </defs>
       <use xlink:href="#DejaVuSans-32"/>
       <use xlink:href="#DejaVuSans-30" x="63.623047"/>
       <use xlink:href="#DejaVuSans-32" x="127.246094"/>
       <use xlink:href="#DejaVuSans-32" x="190.869141"/>
       <use xlink:href="#DejaVuSans-2d" x="254.492188"/>
       <use xlink:href="#DejaVuSans-30" x="290.576172"/>
       <use xlink:href="#DejaVuSans-33" x="354.199219"/>
      </g>
     </g>
    </g>
    <g id="xtick_16">
     <g id="line2d_51">
      <path d="M 318.545123 584.521875 
L 318.545123 331.135938 
" clip-path="url(#pd122c7662f)" style="fill: none; stroke-dasharray: 2.96,1.28; stroke-dashoffset: 0; stroke: #b0b0b0; stroke-width: 0.8"/>
     </g>
     <g id="line2d_52">
      <g>
       <use xlink:href="#mc959a30fc9" x="318.545123" y="584.521875" style="stroke: #000000; stroke-width: 0.8"/>
      </g>
     </g>
     <g id="text_15">
      <!-- 2022-04 -->
      <g transform="translate(297.653717 599.120312)scale(0.1 -0.1)">
       <defs>
        <path id="DejaVuSans-34" d="M 2419 4116 
L 825 1625 
L 2419 1625 
L 2419 4116 
z
M 2253 4666 
L 3047 4666 
L 3047 1625 
L 3713 1625 
L 3713 1100 
L 3047 1100 
L 3047 0 
L 2419 0 
L 2419 1100 
L 313 1100 
L 313 1709 
L 2253 4666 
z
" transform="scale(0.015625)"/>
       </defs>
       <use xlink:href="#DejaVuSans-32"/>
       <use xlink:href="#DejaVuSans-30" x="63.623047"/>
       <use xlink:href="#DejaVuSans-32" x="127.246094"/>
       <use xlink:href="#DejaVuSans-32" x="190.869141"/>
       <use xlink:href="#DejaVuSans-2d" x="254.492188"/>
       <use xlink:href="#DejaVuSans-30" x="290.576172"/>
       <use xlink:href="#DejaVuSans-34" x="354.199219"/>
      </g>
     </g>
    </g>
    <g id="xtick_17">
     <g id="line2d_53">
      <path d="M 399.249434 584.521875 
L 399.249434 331.135938 
" clip-path="url(#pd122c7662f)" style="fill: none; stroke-dasharray: 2.96,1.28; stroke-dashoffset: 0; stroke: #b0b0b0; stroke-width: 0.8"/>
     </g>
     <g id="line2d_54">
      <g>
       <use xlink:href="#mc959a30fc9" x="399.249434" y="584.521875" style="stroke: #000000; stroke-width: 0.8"/>
      </g>
     </g>
     <g id="text_16">
      <!-- 2022-05 -->
      <g transform="translate(378.358028 599.120312)scale(0.1 -0.1)">
       <use xlink:href="#DejaVuSans-32"/>
       <use xlink:href="#DejaVuSans-30" x="63.623047"/>
       <use xlink:href="#DejaVuSans-32" x="127.246094"/>
       <use xlink:href="#DejaVuSans-32" x="190.869141"/>
       <use xlink:href="#DejaVuSans-2d" x="254.492188"/>
       <use xlink:href="#DejaVuSans-30" x="290.576172"/>
       <use xlink:href="#DejaVuSans-35" x="354.199219"/>
      </g>
     </g>
    </g>
    <g id="xtick_18">
     <g id="line2d_55">
      <path d="M 482.643888 584.521875 
L 482.643888 331.135938 
" clip-path="url(#pd122c7662f)" style="fill: none; stroke-dasharray: 2.96,1.28; stroke-dashoffset: 0; stroke: #b0b0b0; stroke-width: 0.8"/>
     </g>
     <g id="line2d_56">
      <g>
       <use xlink:href="#mc959a30fc9" x="482.643888" y="584.521875" style="stroke: #000000; stroke-width: 0.8"/>
      </g>
     </g>
     <g id="text_17">
      <!-- 2022-06 -->
      <g transform="translate(461.752482 599.120312)scale(0.1 -0.1)">
       <use xlink:href="#DejaVuSans-32"/>
       <use xlink:href="#DejaVuSans-30" x="63.623047"/>
       <use xlink:href="#DejaVuSans-32" x="127.246094"/>
       <use xlink:href="#DejaVuSans-32" x="190.869141"/>
       <use xlink:href="#DejaVuSans-2d" x="254.492188"/>
       <use xlink:href="#DejaVuSans-30" x="290.576172"/>
       <use xlink:href="#DejaVuSans-36" x="354.199219"/>
      </g>
     </g>
    </g>
    <g id="xtick_19">
     <g id="line2d_57">
      <path d="M 563.348198 584.521875 
L 563.348198 331.135938 
" clip-path="url(#pd122c7662f)" style="fill: none; stroke-dasharray: 2.96,1.28; stroke-dashoffset: 0; stroke: #b0b0b0; stroke-width: 0.8"/>
     </g>
     <g id="line2d_58">
      <g>
       <use xlink:href="#mc959a30fc9" x="563.348198" y="584.521875" style="stroke: #000000; stroke-width: 0.8"/>
      </g>
     </g>
     <g id="text_18">
      <!-- 2022-07 -->
      <g transform="translate(542.456792 599.120312)scale(0.1 -0.1)">
       <use xlink:href="#DejaVuSans-32"/>
       <use xlink:href="#DejaVuSans-30" x="63.623047"/>
       <use xlink:href="#DejaVuSans-32" x="127.246094"/>
       <use xlink:href="#DejaVuSans-32" x="190.869141"/>
       <use xlink:href="#DejaVuSans-2d" x="254.492188"/>
       <use xlink:href="#DejaVuSans-30" x="290.576172"/>
       <use xlink:href="#DejaVuSans-37" x="354.199219"/>
      </g>
     </g>
    </g>
    <g id="xtick_20">
     <g id="line2d_59">
      <path d="M 646.742653 584.521875 
L 646.742653 331.135938 
" clip-path="url(#pd122c7662f)" style="fill: none; stroke-dasharray: 2.96,1.28; stroke-dashoffset: 0; stroke: #b0b0b0; stroke-width: 0.8"/>
     </g>
     <g id="line2d_60">
      <g>
       <use xlink:href="#mc959a30fc9" x="646.742653" y="584.521875" style="stroke: #000000; stroke-width: 0.8"/>
      </g>
     </g>
     <g id="text_19">
      <!-- 2022-08 -->
      <g transform="translate(625.851246 599.120312)scale(0.1 -0.1)">
       <use xlink:href="#DejaVuSans-32"/>
       <use xlink:href="#DejaVuSans-30" x="63.623047"/>
       <use xlink:href="#DejaVuSans-32" x="127.246094"/>
       <use xlink:href="#DejaVuSans-32" x="190.869141"/>
       <use xlink:href="#DejaVuSans-2d" x="254.492188"/>
       <use xlink:href="#DejaVuSans-30" x="290.576172"/>
       <use xlink:href="#DejaVuSans-38" x="354.199219"/>
      </g>
     </g>
    </g>
    <g id="xtick_21">
     <g id="line2d_61">
      <path d="M 730.137107 584.521875 
L 730.137107 331.135938 
" clip-path="url(#pd122c7662f)" style="fill: none; stroke-dasharray: 2.96,1.28; stroke-dashoffset: 0; stroke: #b0b0b0; stroke-width: 0.8"/>
     </g>
     <g id="line2d_62">
      <g>
       <use xlink:href="#mc959a30fc9" x="730.137107" y="584.521875" style="stroke: #000000; stroke-width: 0.8"/>
      </g>
     </g>
     <g id="text_20">
      <!-- 2022-09 -->
      <g transform="translate(709.245701 599.120312)scale(0.1 -0.1)">
       <defs>
        <path id="DejaVuSans-39" d="M 703 97 
L 703 672 
Q 941 559 1184 500 
Q 1428 441 1663 441 
Q 2288 441 2617 861 
Q 2947 1281 2994 2138 
Q 2813 1869 2534 1725 
Q 2256 1581 1919 1581 
Q 1219 1581 811 2004 
Q 403 2428 403 3163 
Q 403 3881 828 4315 
Q 1253 4750 1959 4750 
Q 2769 4750 3195 4129 
Q 3622 3509 3622 2328 
Q 3622 1225 3098 567 
Q 2575 -91 1691 -91 
Q 1453 -91 1209 -44 
Q 966 3 703 97 
z
M 1959 2075 
Q 2384 2075 2632 2365 
Q 2881 2656 2881 3163 
Q 2881 3666 2632 3958 
Q 2384 4250 1959 4250 
Q 1534 4250 1286 3958 
Q 1038 3666 1038 3163 
Q 1038 2656 1286 2365 
Q 1534 2075 1959 2075 
z
" transform="scale(0.015625)"/>
       </defs>
       <use xlink:href="#DejaVuSans-32"/>
       <use xlink:href="#DejaVuSans-30" x="63.623047"/>
       <use xlink:href="#DejaVuSans-32" x="127.246094"/>
       <use xlink:href="#DejaVuSans-32" x="190.869141"/>
       <use xlink:href="#DejaVuSans-2d" x="254.492188"/>
       <use xlink:href="#DejaVuSans-30" x="290.576172"/>
       <use xlink:href="#DejaVuSans-39" x="354.199219"/>
      </g>
     </g>
    </g>
    <g id="xtick_22">
     <g id="line2d_63">
      <path d="M 810.841417 584.521875 
L 810.841417 331.135938 
" clip-path="url(#pd122c7662f)" style="fill: none; stroke-dasharray: 2.96,1.28; stroke-dashoffset: 0; stroke: #b0b0b0; stroke-width: 0.8"/>
     </g>
     <g id="line2d_64">
      <g>
       <use xlink:href="#mc959a30fc9" x="810.841417" y="584.521875" style="stroke: #000000; stroke-width: 0.8"/>
      </g>
     </g>
     <g id="text_21">
      <!-- 2022-10 -->
      <g transform="translate(789.950011 599.120312)scale(0.1 -0.1)">
       <use xlink:href="#DejaVuSans-32"/>
       <use xlink:href="#DejaVuSans-30" x="63.623047"/>
       <use xlink:href="#DejaVuSans-32" x="127.246094"/>
       <use xlink:href="#DejaVuSans-32" x="190.869141"/>
       <use xlink:href="#DejaVuSans-2d" x="254.492188"/>
       <use xlink:href="#DejaVuSans-31" x="290.576172"/>
       <use xlink:href="#DejaVuSans-30" x="354.199219"/>
      </g>
     </g>
    </g>
    <g id="xtick_23">
     <g id="line2d_65">
      <path d="M 894.235872 584.521875 
L 894.235872 331.135938 
" clip-path="url(#pd122c7662f)" style="fill: none; stroke-dasharray: 2.96,1.28; stroke-dashoffset: 0; stroke: #b0b0b0; stroke-width: 0.8"/>
     </g>
     <g id="line2d_66">
      <g>
       <use xlink:href="#mc959a30fc9" x="894.235872" y="584.521875" style="stroke: #000000; stroke-width: 0.8"/>
      </g>
     </g>
     <g id="text_22">
      <!-- 2022-11 -->
      <g transform="translate(873.344465 599.120312)scale(0.1 -0.1)">
       <use xlink:href="#DejaVuSans-32"/>
       <use xlink:href="#DejaVuSans-30" x="63.623047"/>
       <use xlink:href="#DejaVuSans-32" x="127.246094"/>
       <use xlink:href="#DejaVuSans-32" x="190.869141"/>
       <use xlink:href="#DejaVuSans-2d" x="254.492188"/>
       <use xlink:href="#DejaVuSans-31" x="290.576172"/>
       <use xlink:href="#DejaVuSans-31" x="354.199219"/>
      </g>
     </g>
    </g>
    <g id="xtick_24">
     <g id="line2d_67">
      <path d="M 974.940182 584.521875 
L 974.940182 331.135938 
" clip-path="url(#pd122c7662f)" style="fill: none; stroke-dasharray: 2.96,1.28; stroke-dashoffset: 0; stroke: #b0b0b0; stroke-width: 0.8"/>
     </g>
     <g id="line2d_68">
      <g>
       <use xlink:href="#mc959a30fc9" x="974.940182" y="584.521875" style="stroke: #000000; stroke-width: 0.8"/>
      </g>
     </g>
     <g id="text_23">
      <!-- 2022-12 -->
      <g transform="translate(954.048776 599.120312)scale(0.1 -0.1)">
       <use xlink:href="#DejaVuSans-32"/>
       <use xlink:href="#DejaVuSans-30" x="63.623047"/>
       <use xlink:href="#DejaVuSans-32" x="127.246094"/>
       <use xlink:href="#DejaVuSans-32" x="190.869141"/>
       <use xlink:href="#DejaVuSans-2d" x="254.492188"/>
       <use xlink:href="#DejaVuSans-31" x="290.576172"/>
       <use xlink:href="#DejaVuSans-32" x="354.199219"/>
      </g>
     </g>
    </g>
   </g>
   <g id="matplotlib.axis_4">
    <g id="ytick_9">
     <g id="line2d_69">
      <path d="M 38.904688 534.866115 
L 982.876106 534.866115 
" clip-path="url(#pd122c7662f)" style="fill: none; stroke-dasharray: 2.96,1.28; stroke-dashoffset: 0; stroke: #b0b0b0; stroke-width: 0.8"/>
     </g>
     <g id="line2d_70">
      <g>
       <use xlink:href="#m132e101355" x="38.904688" y="534.866115" style="stroke: #000000; stroke-width: 0.8"/>
      </g>
     </g>
     <g id="text_24">
      <!-- 10 -->
      <g transform="translate(10.8 538.665334)scale(0.1 -0.1)">
       <defs>
        <path id="DejaVuSans-2212" d="M 678 2272 
L 4684 2272 
L 4684 1741 
L 678 1741 
L 678 2272 
z
" transform="scale(0.015625)"/>
       </defs>
       <use xlink:href="#DejaVuSans-2212"/>
       <use xlink:href="#DejaVuSans-31" x="83.789062"/>
       <use xlink:href="#DejaVuSans-30" x="147.412109"/>
      </g>
     </g>
    </g>
    <g id="ytick_10">
     <g id="line2d_71">
      <path d="M 38.904688 480.158856 
L 982.876106 480.158856 
" clip-path="url(#pd122c7662f)" style="fill: none; stroke-dasharray: 2.96,1.28; stroke-dashoffset: 0; stroke: #b0b0b0; stroke-width: 0.8"/>
     </g>
     <g id="line2d_72">
      <g>
       <use xlink:href="#m132e101355" x="38.904688" y="480.158856" style="stroke: #000000; stroke-width: 0.8"/>
      </g>
     </g>
     <g id="text_25">
      <!-- 0 -->
      <g transform="translate(25.542188 483.958075)scale(0.1 -0.1)">
       <use xlink:href="#DejaVuSans-30"/>
      </g>
     </g>
    </g>
    <g id="ytick_11">
     <g id="line2d_73">
      <path d="M 38.904688 425.451597 
L 982.876106 425.451597 
" clip-path="url(#pd122c7662f)" style="fill: none; stroke-dasharray: 2.96,1.28; stroke-dashoffset: 0; stroke: #b0b0b0; stroke-width: 0.8"/>
     </g>
     <g id="line2d_74">
      <g>
       <use xlink:href="#m132e101355" x="38.904688" y="425.451597" style="stroke: #000000; stroke-width: 0.8"/>
      </g>
     </g>
     <g id="text_26">
      <!-- 10 -->
      <g transform="translate(19.179688 429.250816)scale(0.1 -0.1)">
       <use xlink:href="#DejaVuSans-31"/>
       <use xlink:href="#DejaVuSans-30" x="63.623047"/>
      </g>
     </g>
    </g>
    <g id="ytick_12">
     <g id="line2d_75">
      <path d="M 38.904688 370.744339 
L 982.876106 370.744339 
" clip-path="url(#pd122c7662f)" style="fill: none; stroke-dasharray: 2.96,1.28; stroke-dashoffset: 0; stroke: #b0b0b0; stroke-width: 0.8"/>
     </g>
     <g id="line2d_76">
      <g>
       <use xlink:href="#m132e101355" x="38.904688" y="370.744339" style="stroke: #000000; stroke-width: 0.8"/>
      </g>
     </g>
     <g id="text_27">
      <!-- 20 -->
      <g transform="translate(19.179688 374.543557)scale(0.1 -0.1)">
       <use xlink:href="#DejaVuSans-32"/>
       <use xlink:href="#DejaVuSans-30" x="63.623047"/>
      </g>
     </g>
    </g>
   </g>
   <g id="line2d_77">
    <path d="M 81.812479 480.158856 
L 87.192767 482.480525 
L 89.88291 484.578546 
L 92.573054 483.307105 
L 100.643485 483.466132 
L 103.333629 481.838278 
L 106.023772 481.383225 
L 108.713916 482.650873 
L 111.40406 474.411923 
L 119.474491 467.781137 
L 122.164634 473.20041 
L 124.854778 481.576428 
L 127.544922 485.988616 
L 130.235066 488.235297 
L 140.99564 505.806062 
L 146.375928 509.421583 
L 149.066071 507.650476 
L 157.136502 502.601559 
L 159.826646 495.246577 
L 162.51679 487.042325 
L 165.206933 482.2147 
L 167.897077 480.058135 
L 175.967508 489.409433 
L 178.657652 499.538378 
L 181.347796 506.001694 
L 184.037939 508.197442 
L 186.728083 511.832451 
L 194.798514 516.964721 
L 197.488658 517.465863 
L 200.178801 517.828556 
L 202.868945 509.837918 
L 205.559089 504.409 
L 213.62952 501.644485 
L 216.319663 498.411838 
L 219.009807 492.346384 
L 221.699951 506.35854 
L 224.390094 503.780259 
L 232.460525 497.688053 
L 237.840813 495.904417 
L 240.530957 504.398921 
L 243.2211 517.982504 
L 251.291531 532.454933 
L 253.981675 533.081868 
L 256.671819 526.40554 
L 259.361962 509.987839 
L 262.052106 500.093205 
L 270.122537 489.638728 
L 272.812681 470.070196 
L 275.502824 455.179952 
L 278.192968 433.313186 
L 288.953543 427.244641 
L 291.643687 420.90227 
L 294.33383 418.376125 
L 297.023974 420.679823 
L 299.714118 426.247767 
L 307.784549 427.814106 
L 310.474692 428.796019 
L 313.164836 420.35741 
L 315.85498 409.431472 
L 318.545123 396.310324 
L 326.615554 387.724423 
L 329.305698 374.011919 
L 331.995842 363.352717 
L 334.685985 358.221925 
L 337.376129 350.037011 
L 345.44656 343.458677 
L 348.136704 343.94745 
L 350.826848 343.493642 
L 364.277566 342.65348 
L 366.96771 357.020899 
L 369.657853 361.373635 
L 372.347997 361.961659 
L 375.038141 365.706361 
L 383.108572 379.890291 
L 385.798715 379.390676 
L 388.488859 390.358375 
L 391.179003 394.291722 
L 393.869146 393.081999 
L 401.939578 392.843705 
L 407.319865 402.845062 
L 410.010009 423.304917 
L 412.700152 444.950362 
L 420.770583 465.230107 
L 423.460727 486.71528 
L 426.150871 504.214455 
L 428.841014 520.287739 
L 431.531158 532.619414 
L 439.601589 542.598567 
L 442.291733 550.250297 
L 444.981876 546.703111 
L 447.67202 557.556722 
L 450.362164 557.197093 
L 458.432595 560.355107 
L 461.122739 568.261449 
L 463.812882 572.99374 
L 466.503026 573.004332 
L 469.19317 570.558606 
L 477.263601 556.837376 
L 479.953744 541.025385 
L 482.643888 527.354514 
L 485.334032 517.349247 
L 488.024175 510.984351 
L 496.094606 501.392537 
L 498.78475 496.7115 
L 501.474894 492.615424 
L 504.165037 490.464153 
L 506.855181 487.701344 
L 514.925612 494.460928 
L 517.615756 499.637527 
L 520.3059 502.64223 
L 522.996043 510.325307 
L 525.686187 521.804449 
L 533.756618 528.054424 
L 536.446762 527.867173 
L 539.136905 535.162186 
L 541.827049 536.105346 
L 544.517193 531.603024 
L 552.587624 527.314752 
L 555.277767 520.166611 
L 557.967911 521.463244 
L 560.658055 527.964998 
L 563.348198 526.75391 
L 571.41863 520.648377 
L 574.108773 515.883445 
L 579.489061 489.838756 
L 582.179204 476.854248 
L 590.249635 464.755099 
L 592.939779 459.57518 
L 598.320066 446.876332 
L 601.01021 431.608809 
L 609.080641 418.542044 
L 611.770785 412.105179 
L 614.460928 404.455493 
L 617.151072 389.156721 
L 619.841216 384.4263 
L 627.911647 380.109133 
L 630.601791 385.329406 
L 633.291934 385.808701 
L 635.982078 385.077413 
L 638.672222 383.384174 
L 646.742653 383.400432 
L 649.432796 384.29763 
L 652.12294 385.591133 
L 657.503227 410.490141 
L 665.573658 419.416543 
L 670.953946 426.295029 
L 673.64409 439.760563 
L 676.334233 455.134942 
L 687.094808 460.461215 
L 689.784952 458.748976 
L 692.475095 451.389001 
L 695.165239 455.071447 
L 703.23567 455.187587 
L 705.925814 448.842451 
L 708.615957 445.820968 
L 711.306101 445.525201 
L 713.996245 445.644519 
L 722.066676 444.298407 
L 724.756819 442.124993 
L 730.137107 428.308824 
L 732.827251 420.126202 
L 740.897682 412.762911 
L 743.587825 416.141072 
L 746.277969 416.527917 
L 748.968113 420.174601 
L 751.658256 424.937221 
L 759.728687 425.282948 
L 762.418831 415.923537 
L 765.108975 413.141284 
L 767.799118 412.968959 
L 770.489262 432.016173 
L 778.559693 448.447943 
L 781.249837 456.795414 
L 783.939981 463.601705 
L 786.630124 469.559366 
L 789.320268 483.796135 
L 797.390699 495.214335 
L 800.080843 496.569662 
L 802.770986 499.277435 
L 805.46113 501.639266 
L 808.151274 498.7717 
L 816.221705 507.179552 
L 818.911848 510.316814 
L 824.292136 508.437941 
L 826.982279 512.491528 
L 835.05271 525.663714 
L 837.742854 541.815009 
L 840.432998 547.32946 
L 843.123142 550.862601 
L 845.813285 551.144809 
L 853.883716 549.727774 
L 856.57386 542.936949 
L 859.264004 541.177911 
L 861.954147 536.420445 
L 864.644291 536.001448 
L 872.714722 530.978169 
L 875.404866 528.209057 
L 880.785153 524.139071 
L 883.475297 524.245913 
L 891.545728 519.986786 
L 894.235872 514.144852 
L 896.926015 512.148129 
L 899.616159 512.532173 
L 902.306303 511.787699 
L 915.757021 504.556891 
L 918.447165 502.66992 
L 921.137308 498.971136 
L 929.207739 498.237285 
L 931.897883 495.274253 
L 934.588027 494.177049 
L 937.27817 485.978701 
L 939.968314 483.984206 
L 939.968314 483.984206 
" clip-path="url(#pd122c7662f)" style="fill: none; stroke: #1f77b4; stroke-width: 1.5; stroke-linecap: square"/>
   </g>
   <g id="line2d_78">
    <path d="M 81.812479 480.158856 
L 87.192767 481.478582 
L 89.88291 482.528705 
L 92.573054 482.760261 
L 100.643485 482.951592 
L 106.023772 482.360643 
L 108.713916 482.427688 
L 111.40406 480.631691 
L 122.164634 476.827955 
L 124.854778 477.832897 
L 130.235066 481.341749 
L 138.305497 485.487008 
L 140.99564 489.644436 
L 146.375928 493.672427 
L 149.066071 496.508915 
L 157.136502 497.741656 
L 159.826646 497.237995 
L 162.51679 495.183703 
L 167.897077 490.05935 
L 175.967508 489.928874 
L 178.657652 491.856601 
L 186.728083 500.289927 
L 194.798514 503.62902 
L 197.488658 506.399132 
L 200.178801 508.686829 
L 202.868945 508.917193 
L 205.559089 508.015097 
L 213.62952 506.740457 
L 216.319663 505.074193 
L 219.009807 502.52797 
L 221.699951 503.294243 
L 224.390094 503.391462 
L 232.460525 502.250629 
L 237.840813 500.981252 
L 240.530957 501.664844 
L 243.2211 504.928598 
L 251.291531 510.434164 
L 253.981675 514.963902 
L 256.671819 517.25231 
L 259.361962 515.799375 
L 262.052106 512.658071 
L 270.122537 508.05412 
L 272.812681 500.457227 
L 275.502824 491.401668 
L 278.192968 479.783866 
L 288.953543 469.275944 
L 291.643687 459.601153 
L 294.33383 451.356109 
L 297.023974 445.220829 
L 299.714118 441.426205 
L 307.784549 438.703779 
L 310.474692 436.722223 
L 313.164836 433.449255 
L 315.85498 428.645693 
L 318.545123 422.178613 
L 326.615554 415.287769 
L 329.305698 407.032594 
L 331.995842 398.296614 
L 337.376129 382.232738 
L 345.44656 374.477924 
L 348.136704 368.371828 
L 350.826848 363.39619 
L 364.277566 359.247647 
L 366.96771 358.802298 
L 372.347997 359.845584 
L 375.038141 361.01774 
L 383.108572 364.79225 
L 385.798715 367.711935 
L 391.179003 376.651323 
L 393.869146 379.937458 
L 401.939578 382.518708 
L 407.319865 386.583979 
L 410.010009 393.928166 
L 412.700152 404.132605 
L 420.770583 416.352106 
L 423.460727 430.424741 
L 431.531158 474.686839 
L 439.601589 488.269184 
L 442.291733 500.665407 
L 447.67202 519.409703 
L 450.362164 526.967181 
L 458.432595 533.644766 
L 461.122739 540.568103 
L 463.812882 547.05323 
L 466.503026 552.243451 
L 469.19317 555.906482 
L 477.263601 556.09266 
L 479.953744 553.079205 
L 482.643888 547.934267 
L 488.024175 535.650681 
L 496.094606 528.799052 
L 498.78475 522.381542 
L 501.474894 516.428318 
L 504.165037 511.235485 
L 506.855181 506.528657 
L 517.615756 503.219594 
L 520.3059 503.104121 
L 522.996043 504.548359 
L 525.686187 507.999577 
L 533.756618 512.010546 
L 536.446762 515.181872 
L 539.136905 519.177934 
L 541.827049 522.563417 
L 544.517193 524.371338 
L 552.587624 524.960021 
L 555.277767 524.001339 
L 557.967911 523.49372 
L 560.658055 524.387976 
L 563.348198 524.861162 
L 571.41863 524.018605 
L 574.108773 522.391573 
L 576.798917 518.43778 
L 579.489061 512.717975 
L 582.179204 505.545229 
L 590.249635 497.387203 
L 595.629923 482.47772 
L 598.320066 475.357442 
L 601.01021 466.607715 
L 609.080641 456.994581 
L 614.460928 439.304459 
L 617.151072 429.274912 
L 619.841216 420.305189 
L 627.911647 412.265978 
L 630.601791 406.878664 
L 633.291934 402.664671 
L 635.982078 399.14722 
L 638.672222 395.99461 
L 646.742653 393.475775 
L 649.432796 391.640146 
L 652.12294 390.430343 
L 654.813084 391.931837 
L 657.503227 395.643498 
L 665.573658 400.398107 
L 670.953946 405.577491 
L 673.64409 412.414106 
L 676.334233 420.958273 
L 687.094808 428.858861 
L 689.784952 434.836884 
L 695.165239 441.532136 
L 705.925814 445.179071 
L 711.306101 445.351 
L 713.996245 445.409704 
L 722.066676 445.187445 
L 724.756819 444.574954 
L 730.137107 441.321728 
L 732.827251 437.082623 
L 740.897682 432.218681 
L 743.587825 429.003159 
L 746.277969 426.508111 
L 748.968113 425.241409 
L 751.658256 425.180571 
L 759.728687 425.201046 
L 762.418831 423.345544 
L 765.108975 421.304692 
L 767.799118 419.637546 
L 770.489262 422.113271 
L 778.559693 427.380205 
L 783.939981 439.330939 
L 786.630124 445.376624 
L 789.320268 453.060526 
L 797.390699 461.491288 
L 800.080843 468.506963 
L 802.770986 474.661057 
L 805.46113 480.056699 
L 808.151274 483.799699 
L 816.221705 488.47567 
L 818.911848 492.843899 
L 824.292136 495.962707 
L 826.982279 499.268471 
L 835.05271 504.54752 
L 837.742854 512.001018 
L 840.432998 519.066706 
L 843.123142 525.425885 
L 845.813285 530.56967 
L 853.883716 534.401291 
L 856.57386 536.108422 
L 859.264004 537.12232 
L 864.644291 536.785846 
L 872.714722 535.62431 
L 875.404866 534.14126 
L 880.785153 532.140822 
L 883.475297 530.56184 
L 891.545728 528.446829 
L 894.235872 525.586434 
L 896.926015 522.898773 
L 899.616159 520.825453 
L 902.306303 519.017902 
L 910.376734 516.697952 
L 915.757021 514.26974 
L 918.447165 511.949776 
L 921.137308 509.354048 
L 929.207739 507.130695 
L 931.897883 504.759407 
L 934.588027 502.642935 
L 937.27817 499.310088 
L 939.968314 496.244912 
L 939.968314 496.244912 
" clip-path="url(#pd122c7662f)" style="fill: none; stroke: #ff7f0e; stroke-width: 1.5; stroke-linecap: square"/>
   </g>
   <g id="patch_9">
    <path d="M 38.904688 584.521875 
L 38.904688 331.135938 
" style="fill: none; stroke: #000000; stroke-width: 0.8; stroke-linejoin: miter; stroke-linecap: square"/>
   </g>
   <g id="patch_10">
    <path d="M 982.876106 584.521875 
L 982.876106 331.135938 
" style="fill: none; stroke: #000000; stroke-width: 0.8; stroke-linejoin: miter; stroke-linecap: square"/>
   </g>
   <g id="patch_11">
    <path d="M 38.904687 584.521875 
L 982.876106 584.521875 
" style="fill: none; stroke: #000000; stroke-width: 0.8; stroke-linejoin: miter; stroke-linecap: square"/>
   </g>
   <g id="patch_12">
    <path d="M 38.904687 331.135938 
L 982.876106 331.135938 
" style="fill: none; stroke: #000000; stroke-width: 0.8; stroke-linejoin: miter; stroke-linecap: square"/>
   </g>
   <g id="text_28">
    <!-- MACD -->
    <g transform="translate(492.904459 325.135938)scale(0.12 -0.12)">
     <defs>
      <path id="DejaVuSans-44" d="M 1259 4147 
L 1259 519 
L 2022 519 
Q 2988 519 3436 956 
Q 3884 1394 3884 2338 
Q 3884 3275 3436 3711 
Q 2988 4147 2022 4147 
L 1259 4147 
z
M 628 4666 
L 1925 4666 
Q 3281 4666 3915 4102 
Q 4550 3538 4550 2338 
Q 4550 1131 3912 565 
Q 3275 0 1925 0 
L 628 0 
L 628 4666 
z
" transform="scale(0.015625)"/>
     </defs>
     <use xlink:href="#DejaVuSans-4d"/>
     <use xlink:href="#DejaVuSans-41" x="86.279297"/>
     <use xlink:href="#DejaVuSans-43" x="152.9375"/>
     <use xlink:href="#DejaVuSans-44" x="222.761719"/>
    </g>
   </g>
   <g id="legend_2">
    <g id="patch_13">
     <path d="M 913.899543 368.492188 
L 975.876106 368.492188 
Q 977.876106 368.492188 977.876106 366.492188 
L 977.876106 338.135938 
Q 977.876106 336.135938 975.876106 336.135938 
L 913.899543 336.135938 
Q 911.899543 336.135938 911.899543 338.135938 
L 911.899543 366.492188 
Q 911.899543 368.492188 913.899543 368.492188 
z
" style="fill: #ffffff; opacity: 0.8; stroke: #cccccc; stroke-linejoin: miter"/>
    </g>
    <g id="line2d_79">
     <path d="M 915.899543 344.234375 
L 925.899543 344.234375 
L 935.899543 344.234375 
" style="fill: none; stroke: #1f77b4; stroke-width: 1.5; stroke-linecap: square"/>
    </g>
    <g id="text_29">
     <!-- MACD -->
     <g transform="translate(943.899543 347.734375)scale(0.1 -0.1)">
      <use xlink:href="#DejaVuSans-4d"/>
      <use xlink:href="#DejaVuSans-41" x="86.279297"/>
      <use xlink:href="#DejaVuSans-43" x="152.9375"/>
      <use xlink:href="#DejaVuSans-44" x="222.761719"/>
     </g>
    </g>
    <g id="line2d_80">
     <path d="M 915.899543 358.9125 
L 925.899543 358.9125 
L 935.899543 358.9125 
" style="fill: none; stroke: #ff7f0e; stroke-width: 1.5; stroke-linecap: square"/>
    </g>
    <g id="text_30">
     <!-- SIG -->
     <g transform="translate(943.899543 362.4125)scale(0.1 -0.1)">
      <defs>
       <path id="DejaVuSans-49" d="M 628 4666 
L 1259 4666 
L 1259 0 
L 628 0 
L 628 4666 
z
" transform="scale(0.015625)"/>
       <path id="DejaVuSans-47" d="M 3809 666 
L 3809 1919 
L 2778 1919 
L 2778 2438 
L 4434 2438 
L 4434 434 
Q 4069 175 3628 42 
Q 3188 -91 2688 -91 
Q 1594 -91 976 548 
Q 359 1188 359 2328 
Q 359 3472 976 4111 
Q 1594 4750 2688 4750 
Q 3144 4750 3555 4637 
Q 3966 4525 4313 4306 
L 4313 3634 
Q 3963 3931 3569 4081 
Q 3175 4231 2741 4231 
Q 1884 4231 1454 3753 
Q 1025 3275 1025 2328 
Q 1025 1384 1454 906 
Q 1884 428 2741 428 
Q 3075 428 3337 486 
Q 3600 544 3809 666 
z
" transform="scale(0.015625)"/>
      </defs>
      <use xlink:href="#DejaVuSans-53"/>
      <use xlink:href="#DejaVuSans-49" x="63.476562"/>
      <use xlink:href="#DejaVuSans-47" x="92.96875"/>
     </g>
    </g>
   </g>
  </g>
  <g id="text_31">
   <!-- TATA CONSUMER PRODUCTS LIMITED -->
   <g transform="translate(392.076563 21.358125)scale(0.12 -0.12)">
    <defs>
     <path id="DejaVuSans-54" d="M -19 4666 
L 3928 4666 
L 3928 4134 
L 2272 4134 
L 2272 0 
L 1638 0 
L 1638 4134 
L -19 4134 
L -19 4666 
z
" transform="scale(0.015625)"/>
     <path id="DejaVuSans-4e" d="M 628 4666 
L 1478 4666 
L 3547 763 
L 3547 4666 
L 4159 4666 
L 4159 0 
L 3309 0 
L 1241 3903 
L 1241 0 
L 628 0 
L 628 4666 
z
" transform="scale(0.015625)"/>
     <path id="DejaVuSans-55" d="M 556 4666 
L 1191 4666 
L 1191 1831 
Q 1191 1081 1462 751 
Q 1734 422 2344 422 
Q 2950 422 3222 751 
Q 3494 1081 3494 1831 
L 3494 4666 
L 4128 4666 
L 4128 1753 
Q 4128 841 3676 375 
Q 3225 -91 2344 -91 
Q 1459 -91 1007 375 
Q 556 841 556 1753 
L 556 4666 
z
" transform="scale(0.015625)"/>
     <path id="DejaVuSans-52" d="M 2841 2188 
Q 3044 2119 3236 1894 
Q 3428 1669 3622 1275 
L 4263 0 
L 3584 0 
L 2988 1197 
Q 2756 1666 2539 1819 
Q 2322 1972 1947 1972 
L 1259 1972 
L 1259 0 
L 628 0 
L 628 4666 
L 2053 4666 
Q 2853 4666 3247 4331 
Q 3641 3997 3641 3322 
Q 3641 2881 3436 2590 
Q 3231 2300 2841 2188 
z
M 1259 4147 
L 1259 2491 
L 2053 2491 
Q 2509 2491 2742 2702 
Q 2975 2913 2975 3322 
Q 2975 3731 2742 3939 
Q 2509 4147 2053 4147 
L 1259 4147 
z
" transform="scale(0.015625)"/>
    </defs>
    <use xlink:href="#DejaVuSans-54"/>
    <use xlink:href="#DejaVuSans-41" x="53.333984"/>
    <use xlink:href="#DejaVuSans-54" x="113.992188"/>
    <use xlink:href="#DejaVuSans-41" x="167.326172"/>
    <use xlink:href="#DejaVuSans-20" x="235.734375"/>
    <use xlink:href="#DejaVuSans-43" x="267.521484"/>
    <use xlink:href="#DejaVuSans-4f" x="337.345703"/>
    <use xlink:href="#DejaVuSans-4e" x="416.056641"/>
    <use xlink:href="#DejaVuSans-53" x="490.861328"/>
    <use xlink:href="#DejaVuSans-55" x="554.337891"/>
    <use xlink:href="#DejaVuSans-4d" x="627.53125"/>
    <use xlink:href="#DejaVuSans-45" x="713.810547"/>
    <use xlink:href="#DejaVuSans-52" x="776.994141"/>
    <use xlink:href="#DejaVuSans-20" x="846.476562"/>
    <use xlink:href="#DejaVuSans-50" x="878.263672"/>
    <use xlink:href="#DejaVuSans-52" x="938.566406"/>
    <use xlink:href="#DejaVuSans-4f" x="1008.048828"/>
    <use xlink:href="#DejaVuSans-44" x="1086.759766"/>
    <use xlink:href="#DejaVuSans-55" x="1163.761719"/>
    <use xlink:href="#DejaVuSans-43" x="1236.955078"/>
    <use xlink:href="#DejaVuSans-54" x="1306.779297"/>
    <use xlink:href="#DejaVuSans-53" x="1367.863281"/>
    <use xlink:href="#DejaVuSans-20" x="1431.339844"/>
    <use xlink:href="#DejaVuSans-4c" x="1463.126953"/>
    <use xlink:href="#DejaVuSans-49" x="1518.839844"/>
    <use xlink:href="#DejaVuSans-4d" x="1548.332031"/>
    <use xlink:href="#DejaVuSans-49" x="1634.611328"/>
    <use xlink:href="#DejaVuSans-54" x="1664.103516"/>
    <use xlink:href="#DejaVuSans-45" x="1725.1875"/>
    <use xlink:href="#DejaVuSans-44" x="1788.371094"/>
   </g>
  </g>
 </g>
 <defs>
  <clipPath id="p74824e4d14">
   <rect x="38.904688" y="48.331875" width="943.971418" height="253.385938"/>
  </clipPath>
  <clipPath id="pd122c7662f">
   <rect x="38.904688" y="331.135938" width="943.971418" height="253.385937"/>
  </clipPath>
 </defs>
</svg>
