<?xml version="1.0" encoding="utf-8" standalone="no"?>
<!DOCTYPE svg PUBLIC "-//W3C//DTD SVG 1.1//EN"
  "http://www.w3.org/Graphics/SVG/1.1/DTD/svg11.dtd">
<svg xmlns:xlink="http://www.w3.org/1999/xlink" width="1008pt" height="612pt" viewBox="0 0 1008 612" xmlns="http://www.w3.org/2000/svg" version="1.1">
 <metadata>
  <rdf:RDF xmlns:dc="http://purl.org/dc/elements/1.1/" xmlns:cc="http://creativecommons.org/ns#" xmlns:rdf="http://www.w3.org/1999/02/22-rdf-syntax-ns#">
   <cc:Work>
    <dc:type rdf:resource="http://purl.org/dc/dcmitype/StillImage"/>
    <dc:date>2022-11-20T19:47:22.029871</dc:date>
    <dc:format>image/svg+xml</dc:format>
    <dc:creator>
     <cc:Agent>
      <dc:title>Matplotlib v3.5.2, https://matplotlib.org/</dc:title>
     </cc:Agent>
    </dc:creator>
   </cc:Work>
  </rdf:RDF>
 </metadata>
 <defs>
  <style type="text/css">*{stroke-linejoin: round; stroke-linecap: butt}</style>
 </defs>
 <g id="figure_1">
  <g id="patch_1">
   <path d="M 0 612 
L 1008 612 
L 1008 0 
L 0 0 
z
" style="fill: #ffffff"/>
  </g>
  <g id="axes_1">
   <g id="patch_2">
    <path d="M 45.267188 301.717812 
L 982.876106 301.717812 
L 982.876106 48.331875 
L 45.267188 48.331875 
z
" style="fill: #ffffff"/>
   </g>
   <g id="matplotlib.axis_1">
    <g id="xtick_1">
     <g id="line2d_1">
      <path d="M 82.541751 301.717812 
L 82.541751 48.331875 
" clip-path="url(#p9ffa07ac28)" style="fill: none; stroke-dasharray: 2.96,1.28; stroke-dashoffset: 0; stroke: #b0b0b0; stroke-width: 0.8"/>
     </g>
     <g id="line2d_2">
      <defs>
       <path id="m01a431c916" d="M 0 0 
L 0 3.5 
" style="stroke: #000000; stroke-width: 0.8"/>
      </defs>
      <g>
       <use xlink:href="#m01a431c916" x="82.541751" y="301.717812" style="stroke: #000000; stroke-width: 0.8"/>
      </g>
     </g>
    </g>
    <g id="xtick_2">
     <g id="line2d_3">
      <path d="M 165.374115 301.717812 
L 165.374115 48.331875 
" clip-path="url(#p9ffa07ac28)" style="fill: none; stroke-dasharray: 2.96,1.28; stroke-dashoffset: 0; stroke: #b0b0b0; stroke-width: 0.8"/>
     </g>
     <g id="line2d_4">
      <g>
       <use xlink:href="#m01a431c916" x="165.374115" y="301.717812" style="stroke: #000000; stroke-width: 0.8"/>
      </g>
     </g>
    </g>
    <g id="xtick_3">
     <g id="line2d_5">
      <path d="M 240.190444 301.717812 
L 240.190444 48.331875 
" clip-path="url(#p9ffa07ac28)" style="fill: none; stroke-dasharray: 2.96,1.28; stroke-dashoffset: 0; stroke: #b0b0b0; stroke-width: 0.8"/>
     </g>
     <g id="line2d_6">
      <g>
       <use xlink:href="#m01a431c916" x="240.190444" y="301.717812" style="stroke: #000000; stroke-width: 0.8"/>
      </g>
     </g>
    </g>
    <g id="xtick_4">
     <g id="line2d_7">
      <path d="M 323.022808 301.717812 
L 323.022808 48.331875 
" clip-path="url(#p9ffa07ac28)" style="fill: none; stroke-dasharray: 2.96,1.28; stroke-dashoffset: 0; stroke: #b0b0b0; stroke-width: 0.8"/>
     </g>
     <g id="line2d_8">
      <g>
       <use xlink:href="#m01a431c916" x="323.022808" y="301.717812" style="stroke: #000000; stroke-width: 0.8"/>
      </g>
     </g>
    </g>
    <g id="xtick_5">
     <g id="line2d_9">
      <path d="M 403.18316 301.717812 
L 403.18316 48.331875 
" clip-path="url(#p9ffa07ac28)" style="fill: none; stroke-dasharray: 2.96,1.28; stroke-dashoffset: 0; stroke: #b0b0b0; stroke-width: 0.8"/>
     </g>
     <g id="line2d_10">
      <g>
       <use xlink:href="#m01a431c916" x="403.18316" y="301.717812" style="stroke: #000000; stroke-width: 0.8"/>
      </g>
     </g>
    </g>
    <g id="xtick_6">
     <g id="line2d_11">
      <path d="M 486.015523 301.717812 
L 486.015523 48.331875 
" clip-path="url(#p9ffa07ac28)" style="fill: none; stroke-dasharray: 2.96,1.28; stroke-dashoffset: 0; stroke: #b0b0b0; stroke-width: 0.8"/>
     </g>
     <g id="line2d_12">
      <g>
       <use xlink:href="#m01a431c916" x="486.015523" y="301.717812" style="stroke: #000000; stroke-width: 0.8"/>
      </g>
     </g>
    </g>
    <g id="xtick_7">
     <g id="line2d_13">
      <path d="M 566.175876 301.717812 
L 566.175876 48.331875 
" clip-path="url(#p9ffa07ac28)" style="fill: none; stroke-dasharray: 2.96,1.28; stroke-dashoffset: 0; stroke: #b0b0b0; stroke-width: 0.8"/>
     </g>
     <g id="line2d_14">
      <g>
       <use xlink:href="#m01a431c916" x="566.175876" y="301.717812" style="stroke: #000000; stroke-width: 0.8"/>
      </g>
     </g>
    </g>
    <g id="xtick_8">
     <g id="line2d_15">
      <path d="M 649.008239 301.717812 
L 649.008239 48.331875 
" clip-path="url(#p9ffa07ac28)" style="fill: none; stroke-dasharray: 2.96,1.28; stroke-dashoffset: 0; stroke: #b0b0b0; stroke-width: 0.8"/>
     </g>
     <g id="line2d_16">
      <g>
       <use xlink:href="#m01a431c916" x="649.008239" y="301.717812" style="stroke: #000000; stroke-width: 0.8"/>
      </g>
     </g>
    </g>
    <g id="xtick_9">
     <g id="line2d_17">
      <path d="M 731.840603 301.717812 
L 731.840603 48.331875 
" clip-path="url(#p9ffa07ac28)" style="fill: none; stroke-dasharray: 2.96,1.28; stroke-dashoffset: 0; stroke: #b0b0b0; stroke-width: 0.8"/>
     </g>
     <g id="line2d_18">
      <g>
       <use xlink:href="#m01a431c916" x="731.840603" y="301.717812" style="stroke: #000000; stroke-width: 0.8"/>
      </g>
     </g>
    </g>
    <g id="xtick_10">
     <g id="line2d_19">
      <path d="M 812.000955 301.717812 
L 812.000955 48.331875 
" clip-path="url(#p9ffa07ac28)" style="fill: none; stroke-dasharray: 2.96,1.28; stroke-dashoffset: 0; stroke: #b0b0b0; stroke-width: 0.8"/>
     </g>
     <g id="line2d_20">
      <g>
       <use xlink:href="#m01a431c916" x="812.000955" y="301.717812" style="stroke: #000000; stroke-width: 0.8"/>
      </g>
     </g>
    </g>
    <g id="xtick_11">
     <g id="line2d_21">
      <path d="M 894.833319 301.717812 
L 894.833319 48.331875 
" clip-path="url(#p9ffa07ac28)" style="fill: none; stroke-dasharray: 2.96,1.28; stroke-dashoffset: 0; stroke: #b0b0b0; stroke-width: 0.8"/>
     </g>
     <g id="line2d_22">
      <g>
       <use xlink:href="#m01a431c916" x="894.833319" y="301.717812" style="stroke: #000000; stroke-width: 0.8"/>
      </g>
     </g>
    </g>
    <g id="xtick_12">
     <g id="line2d_23">
      <path d="M 974.993671 301.717812 
L 974.993671 48.331875 
" clip-path="url(#p9ffa07ac28)" style="fill: none; stroke-dasharray: 2.96,1.28; stroke-dashoffset: 0; stroke: #b0b0b0; stroke-width: 0.8"/>
     </g>
     <g id="line2d_24">
      <g>
       <use xlink:href="#m01a431c916" x="974.993671" y="301.717812" style="stroke: #000000; stroke-width: 0.8"/>
      </g>
     </g>
    </g>
   </g>
   <g id="matplotlib.axis_2">
    <g id="ytick_1">
     <g id="line2d_25">
      <path d="M 45.267188 261.944001 
L 982.876106 261.944001 
" clip-path="url(#p9ffa07ac28)" style="fill: none; stroke-dasharray: 2.96,1.28; stroke-dashoffset: 0; stroke: #b0b0b0; stroke-width: 0.8"/>
     </g>
     <g id="line2d_26">
      <defs>
       <path id="m6d83d80223" d="M 0 0 
L -3.5 0 
" style="stroke: #000000; stroke-width: 0.8"/>
      </defs>
      <g>
       <use xlink:href="#m6d83d80223" x="45.267188" y="261.944001" style="stroke: #000000; stroke-width: 0.8"/>
      </g>
     </g>
     <g id="text_1">
      <!-- 3000 -->
      <g transform="translate(12.817188 265.74322)scale(0.1 -0.1)">
       <defs>
        <path id="DejaVuSans-33" d="M 2597 2516 
Q 3050 2419 3304 2112 
Q 3559 1806 3559 1356 
Q 3559 666 3084 287 
Q 2609 -91 1734 -91 
Q 1441 -91 1130 -33 
Q 819 25 488 141 
L 488 750 
Q 750 597 1062 519 
Q 1375 441 1716 441 
Q 2309 441 2620 675 
Q 2931 909 2931 1356 
Q 2931 1769 2642 2001 
Q 2353 2234 1838 2234 
L 1294 2234 
L 1294 2753 
L 1863 2753 
Q 2328 2753 2575 2939 
Q 2822 3125 2822 3475 
Q 2822 3834 2567 4026 
Q 2313 4219 1838 4219 
Q 1578 4219 1281 4162 
Q 984 4106 628 3988 
L 628 4550 
Q 988 4650 1302 4700 
Q 1616 4750 1894 4750 
Q 2613 4750 3031 4423 
Q 3450 4097 3450 3541 
Q 3450 3153 3228 2886 
Q 3006 2619 2597 2516 
z
" transform="scale(0.015625)"/>
        <path id="DejaVuSans-30" d="M 2034 4250 
Q 1547 4250 1301 3770 
Q 1056 3291 1056 2328 
Q 1056 1369 1301 889 
Q 1547 409 2034 409 
Q 2525 409 2770 889 
Q 3016 1369 3016 2328 
Q 3016 3291 2770 3770 
Q 2525 4250 2034 4250 
z
M 2034 4750 
Q 2819 4750 3233 4129 
Q 3647 3509 3647 2328 
Q 3647 1150 3233 529 
Q 2819 -91 2034 -91 
Q 1250 -91 836 529 
Q 422 1150 422 2328 
Q 422 3509 836 4129 
Q 1250 4750 2034 4750 
z
" transform="scale(0.015625)"/>
       </defs>
       <use xlink:href="#DejaVuSans-33"/>
       <use xlink:href="#DejaVuSans-30" x="63.623047"/>
       <use xlink:href="#DejaVuSans-30" x="127.246094"/>
       <use xlink:href="#DejaVuSans-30" x="190.869141"/>
      </g>
     </g>
    </g>
    <g id="ytick_2">
     <g id="line2d_27">
      <path d="M 45.267188 207.088111 
L 982.876106 207.088111 
" clip-path="url(#p9ffa07ac28)" style="fill: none; stroke-dasharray: 2.96,1.28; stroke-dashoffset: 0; stroke: #b0b0b0; stroke-width: 0.8"/>
     </g>
     <g id="line2d_28">
      <g>
       <use xlink:href="#m6d83d80223" x="45.267188" y="207.088111" style="stroke: #000000; stroke-width: 0.8"/>
      </g>
     </g>
     <g id="text_2">
      <!-- 3500 -->
      <g transform="translate(12.817188 210.88733)scale(0.1 -0.1)">
       <defs>
        <path id="DejaVuSans-35" d="M 691 4666 
L 3169 4666 
L 3169 4134 
L 1269 4134 
L 1269 2991 
Q 1406 3038 1543 3061 
Q 1681 3084 1819 3084 
Q 2600 3084 3056 2656 
Q 3513 2228 3513 1497 
Q 3513 744 3044 326 
Q 2575 -91 1722 -91 
Q 1428 -91 1123 -41 
Q 819 9 494 109 
L 494 744 
Q 775 591 1075 516 
Q 1375 441 1709 441 
Q 2250 441 2565 725 
Q 2881 1009 2881 1497 
Q 2881 1984 2565 2268 
Q 2250 2553 1709 2553 
Q 1456 2553 1204 2497 
Q 953 2441 691 2322 
L 691 4666 
z
" transform="scale(0.015625)"/>
       </defs>
       <use xlink:href="#DejaVuSans-33"/>
       <use xlink:href="#DejaVuSans-35" x="63.623047"/>
       <use xlink:href="#DejaVuSans-30" x="127.246094"/>
       <use xlink:href="#DejaVuSans-30" x="190.869141"/>
      </g>
     </g>
    </g>
    <g id="ytick_3">
     <g id="line2d_29">
      <path d="M 45.267188 152.232222 
L 982.876106 152.232222 
" clip-path="url(#p9ffa07ac28)" style="fill: none; stroke-dasharray: 2.96,1.28; stroke-dashoffset: 0; stroke: #b0b0b0; stroke-width: 0.8"/>
     </g>
     <g id="line2d_30">
      <g>
       <use xlink:href="#m6d83d80223" x="45.267188" y="152.232222" style="stroke: #000000; stroke-width: 0.8"/>
      </g>
     </g>
     <g id="text_3">
      <!-- 4000 -->
      <g transform="translate(12.817188 156.03144)scale(0.1 -0.1)">
       <defs>
        <path id="DejaVuSans-34" d="M 2419 4116 
L 825 1625 
L 2419 1625 
L 2419 4116 
z
M 2253 4666 
L 3047 4666 
L 3047 1625 
L 3713 1625 
L 3713 1100 
L 3047 1100 
L 3047 0 
L 2419 0 
L 2419 1100 
L 313 1100 
L 313 1709 
L 2253 4666 
z
" transform="scale(0.015625)"/>
       </defs>
       <use xlink:href="#DejaVuSans-34"/>
       <use xlink:href="#DejaVuSans-30" x="63.623047"/>
       <use xlink:href="#DejaVuSans-30" x="127.246094"/>
       <use xlink:href="#DejaVuSans-30" x="190.869141"/>
      </g>
     </g>
    </g>
    <g id="ytick_4">
     <g id="line2d_31">
      <path d="M 45.267188 97.376332 
L 982.876106 97.376332 
" clip-path="url(#p9ffa07ac28)" style="fill: none; stroke-dasharray: 2.96,1.28; stroke-dashoffset: 0; stroke: #b0b0b0; stroke-width: 0.8"/>
     </g>
     <g id="line2d_32">
      <g>
       <use xlink:href="#m6d83d80223" x="45.267188" y="97.376332" style="stroke: #000000; stroke-width: 0.8"/>
      </g>
     </g>
     <g id="text_4">
      <!-- 4500 -->
      <g transform="translate(12.817188 101.175551)scale(0.1 -0.1)">
       <use xlink:href="#DejaVuSans-34"/>
       <use xlink:href="#DejaVuSans-35" x="63.623047"/>
       <use xlink:href="#DejaVuSans-30" x="127.246094"/>
       <use xlink:href="#DejaVuSans-30" x="190.869141"/>
      </g>
     </g>
    </g>
   </g>
   <g id="line2d_33">
    <path d="M 87.885775 59.849418 
L 90.557786 66.909371 
L 93.229798 76.723089 
L 95.90181 85.132497 
L 98.573822 86.289956 
L 106.589857 91.205044 
L 109.261869 88.209913 
L 111.93388 82.461015 
L 114.605892 70.595686 
L 117.277904 92.115652 
L 125.293939 96.070762 
L 127.965951 114.524283 
L 130.637962 127.415417 
L 133.309974 124.689079 
L 135.981986 139.192977 
L 143.998021 164.415715 
L 146.670033 171.190417 
L 152.014056 197.740668 
L 154.686068 182.49073 
L 162.702103 151.541037 
L 165.374115 154.020524 
L 168.046127 144.980273 
L 170.718139 161.766175 
L 173.39015 155.978879 
L 181.406185 166.489267 
L 184.078197 164.903932 
L 186.750209 152.96729 
L 189.422221 148.990238 
L 192.094232 166.533152 
L 200.110268 176.75829 
L 202.782279 155.748484 
L 205.454291 164.059151 
L 208.126303 167.652212 
L 210.798315 174.503713 
L 218.81435 168.913898 
L 221.486362 171.832231 
L 224.158373 173.977096 
L 226.830385 199.858105 
L 229.502397 175.940937 
L 237.518432 165.265981 
L 242.862455 161.903315 
L 245.534467 157.136338 
L 248.206479 164.892961 
L 256.222514 167.718039 
L 261.566538 137.552785 
L 264.238549 142.511758 
L 266.910561 142.577585 
L 274.926596 138.512764 
L 277.598608 164.942331 
L 280.27062 157.85495 
L 282.942631 153.674931 
L 293.630678 154.87079 
L 296.30269 148.458136 
L 298.974702 140.975793 
L 301.646714 121.787203 
L 304.318725 121.364812 
L 312.334761 126.696805 
L 315.006772 124.70005 
L 317.678784 107.491758 
L 320.350796 119.000524 
L 323.022808 125.594201 
L 331.038843 117.596213 
L 333.710854 109.499483 
L 336.382866 115.089299 
L 339.054878 122.494844 
L 341.72689 118.96761 
L 349.742925 126.735204 
L 352.414937 145.600144 
L 355.086948 141.376241 
L 368.447007 156.894972 
L 371.119019 192.205708 
L 373.791031 188.618133 
L 376.463042 181.031564 
L 379.135054 166.352128 
L 387.151089 182.671755 
L 389.823101 185.211582 
L 392.495113 202.880665 
L 395.167124 195.43672 
L 397.839136 201.366642 
L 405.855171 209.282347 
L 411.199195 210.483691 
L 413.871207 205.941623 
L 416.543218 220.933738 
L 424.559254 240.539233 
L 427.231265 252.135768 
L 429.903277 257.187995 
L 432.575289 266.886517 
L 435.2473 268.641905 
L 443.263336 268.663848 
L 445.935347 254.170921 
L 448.607359 259.075038 
L 451.279371 278.867043 
L 453.951383 272.931636 
L 461.967418 265.081758 
L 464.63943 273.2498 
L 467.311441 290.20027 
L 469.983453 289.525542 
L 472.655465 276.601495 
L 480.6715 261.132134 
L 483.343512 256.716235 
L 486.015523 261.554524 
L 488.687535 255.251583 
L 491.359547 252.958606 
L 499.375582 253.978926 
L 502.047594 258.257685 
L 504.719606 255.032159 
L 507.391617 249.371031 
L 510.063629 255.114443 
L 518.079664 274.906448 
L 520.751676 270.50152 
L 523.423688 269.706109 
L 526.095699 282.262623 
L 528.767711 286.042193 
L 536.783746 288.609449 
L 539.455758 274.857078 
L 542.12777 284.270348 
L 544.799782 271.159791 
L 547.471793 280.386551 
L 555.487829 266.491554 
L 558.15984 258.976297 
L 560.831852 267.791639 
L 563.503864 274.335947 
L 566.175876 274.74188 
L 574.191911 277.122626 
L 576.863922 281.900574 
L 579.535934 277.161025 
L 582.207946 275.219126 
L 584.879958 274.039725 
L 592.895993 282.405248 
L 595.568005 277.994834 
L 598.240016 272.849352 
L 600.912028 285.367466 
L 603.58404 280.710201 
L 611.600075 265.641288 
L 614.272087 257.544559 
L 616.944099 245.580489 
L 619.61611 238.438252 
L 622.288122 241.992914 
L 630.304157 240.890311 
L 632.976169 256.836918 
L 635.648181 246.929944 
L 638.320192 226.243788 
L 640.992204 216.57818 
L 649.008239 214.740508 
L 651.680251 219.78725 
L 654.352263 214.224863 
L 657.024275 203.604762 
L 659.696286 199.885533 
L 667.712322 203.76933 
L 673.056345 207.07714 
L 675.728357 193.582591 
L 678.400368 203.270141 
L 689.088415 203.972297 
L 691.760427 200.653515 
L 694.432439 203.429223 
L 697.104451 204.817077 
L 705.120486 220.077986 
L 707.792498 225.547118 
L 710.464509 225.580032 
L 713.136521 228.838472 
L 715.808533 226.91303 
L 723.824568 242.568901 
L 726.49658 228.317341 
L 731.840603 237.033942 
L 734.512615 238.871614 
L 742.52865 239.601197 
L 745.200662 241.411442 
L 747.872674 238.794816 
L 750.544685 238.723503 
L 753.216697 227.993691 
L 761.232732 218.887613 
L 763.904744 221.158647 
L 766.576756 231.608694 
L 769.248768 232.744211 
L 771.920779 249.760508 
L 779.936814 249.639825 
L 785.280838 245.229411 
L 787.95285 243.495965 
L 790.624861 245.684715 
L 798.640897 247.023199 
L 801.312908 234.73548 
L 803.98492 240.934195 
L 806.656932 252.15771 
L 809.328944 244.483371 
L 817.344979 248.816987 
L 820.016991 234.900047 
L 825.361014 228.761673 
L 828.033026 231.553838 
L 836.049061 223.764302 
L 838.721073 227.889465 
L 841.393084 223.972754 
L 844.065096 226.435784 
L 846.737108 220.280953 
L 854.753143 225.601974 
L 857.425155 215.854082 
L 860.097167 217.571072 
L 862.769178 211.838631 
L 865.44119 214.060295 
L 873.457225 215.557861 
L 876.129237 210.889624 
L 881.47326 222.590386 
L 884.145272 230.857168 
L 892.161307 217.64787 
L 894.833319 206.133619 
L 897.505331 206.950972 
L 900.177343 207.31302 
L 902.849354 210.533061 
L 910.86539 206.495668 
L 916.209413 208.8435 
L 918.881425 209.304289 
L 921.553437 189.051495 
L 929.569472 177.822494 
L 932.241483 183.900527 
L 934.913495 192.469017 
L 937.585507 202.633813 
L 940.257519 206.413384 
L 940.257519 206.413384 
" clip-path="url(#p9ffa07ac28)" style="fill: none; stroke: #1f77b4; stroke-width: 1.5; stroke-linecap: square"/>
   </g>
   <g id="line2d_34">
    <path d="M 98.573822 74.980866 
L 106.589857 81.251992 
L 109.261869 85.5121 
L 111.93388 86.659685 
L 114.605892 83.752323 
L 117.277904 84.917462 
L 125.293939 85.890606 
L 127.965951 91.15348 
L 130.637962 100.14436 
L 133.309974 110.963039 
L 135.981986 120.378503 
L 143.998021 134.047494 
L 146.670033 145.380721 
L 152.014056 159.445771 
L 154.686068 171.006101 
L 162.702103 173.475713 
L 165.374115 171.396675 
L 168.046127 166.154646 
L 170.718139 158.959748 
L 173.39015 153.657378 
L 181.406185 156.647024 
L 184.078197 158.823705 
L 186.750209 160.421109 
L 189.422221 157.865921 
L 192.094232 159.976776 
L 200.110268 162.030581 
L 202.782279 160.199491 
L 205.454291 162.417863 
L 208.126303 166.150258 
L 210.798315 167.74437 
L 218.81435 166.175492 
L 221.486362 169.392241 
L 224.158373 171.37583 
L 226.830385 177.817009 
L 229.502397 178.104453 
L 237.518432 177.37487 
L 242.862455 175.389087 
L 245.534467 172.020935 
L 248.206479 165.027906 
L 256.222514 163.383327 
L 258.894526 160.847888 
L 261.566538 155.977782 
L 264.238549 153.052866 
L 266.910561 148.58979 
L 274.926596 142.748735 
L 277.598608 145.219445 
L 280.27062 149.279878 
L 282.942631 151.512512 
L 293.630678 153.971153 
L 296.30269 155.960228 
L 298.974702 151.16692 
L 301.646714 143.953371 
L 304.318725 137.491347 
L 312.334761 131.85655 
L 315.006772 127.104933 
L 317.678784 120.408126 
L 320.350796 119.85079 
L 323.022808 120.696668 
L 331.038843 118.876549 
L 333.710854 115.836436 
L 336.382866 117.355944 
L 339.054878 118.054808 
L 341.72689 116.72949 
L 349.742925 118.557288 
L 352.414937 125.77742 
L 355.086948 131.034809 
L 368.447007 137.914834 
L 371.119019 152.562454 
L 373.791031 164.93904 
L 376.463042 172.025324 
L 379.135054 177.020501 
L 387.151089 182.175858 
L 389.823101 180.777032 
L 395.167124 186.51057 
L 397.839136 193.513473 
L 405.855171 198.835591 
L 411.199195 203.890013 
L 413.871207 204.502205 
L 416.543218 209.601608 
L 424.559254 217.436126 
L 427.231265 226.006811 
L 429.903277 235.347671 
L 432.575289 247.53665 
L 435.2473 257.078284 
L 443.263336 262.703207 
L 448.607359 263.487646 
L 451.279371 265.883751 
L 453.951383 266.741697 
L 461.967418 266.025279 
L 464.63943 269.841055 
L 467.311441 276.066101 
L 469.983453 278.197801 
L 472.655465 278.931773 
L 480.6715 278.141848 
L 483.343512 274.835135 
L 486.015523 269.105986 
L 488.687535 262.251194 
L 491.359547 257.522616 
L 499.375582 256.091975 
L 502.047594 256.400265 
L 504.719606 255.095792 
L 507.391617 253.919682 
L 510.063629 254.350849 
L 518.079664 258.536353 
L 520.751676 260.98512 
L 523.423688 263.91991 
L 526.095699 270.498229 
L 528.767711 276.683779 
L 539.455758 280.29549 
L 542.12777 283.208338 
L 544.799782 280.987772 
L 547.471793 279.856643 
L 555.487829 275.433064 
L 560.831852 268.961166 
L 563.503864 269.596398 
L 566.175876 268.467463 
L 574.191911 270.593678 
L 576.863922 275.178533 
L 579.535934 277.05241 
L 582.207946 277.229046 
L 584.879958 277.088615 
L 592.895993 278.14514 
L 598.240016 276.501657 
L 600.912028 278.531325 
L 603.58404 279.86542 
L 611.600075 276.512628 
L 614.272087 272.422573 
L 616.944099 266.968801 
L 619.61611 257.582958 
L 622.288122 249.8395 
L 630.304157 244.889305 
L 632.976169 244.747777 
L 635.648181 245.017668 
L 638.320192 242.578775 
L 640.992204 237.495828 
L 649.008239 232.265868 
L 651.680251 224.855934 
L 654.352263 218.314918 
L 657.024275 213.787113 
L 659.696286 210.448583 
L 667.712322 208.254348 
L 673.056345 205.712326 
L 675.728357 201.583871 
L 678.400368 201.516947 
L 689.088415 202.3343 
L 694.432439 200.981554 
L 697.104451 203.228451 
L 705.120486 206.59002 
L 707.792498 210.904984 
L 713.136521 220.972137 
L 715.808533 225.391327 
L 723.824568 229.88951 
L 726.49658 230.443555 
L 731.840603 232.734337 
L 734.512615 234.740965 
L 742.52865 237.278599 
L 745.200662 237.047107 
L 747.872674 239.142602 
L 750.544685 239.480514 
L 753.216697 237.30493 
L 761.232732 233.162213 
L 763.904744 229.111654 
L 766.576756 227.67443 
L 769.248768 226.478571 
L 771.920779 230.831935 
L 779.936814 236.982377 
L 782.608826 242.230989 
L 785.280838 244.955132 
L 787.95285 247.105483 
L 790.624861 246.290324 
L 798.640897 245.766999 
L 801.312908 243.233754 
L 803.98492 242.374711 
L 806.656932 244.10706 
L 809.328944 243.866791 
L 820.016991 244.258462 
L 825.361014 241.823958 
L 828.033026 237.703183 
L 836.049061 233.559369 
L 838.721073 229.373865 
L 841.393084 227.188406 
L 844.065096 226.723228 
L 846.737108 224.468651 
L 854.753143 224.836186 
L 857.425155 222.429109 
L 860.097167 221.148773 
L 862.769178 218.229343 
L 865.44119 216.985211 
L 873.457225 214.976388 
L 876.129237 213.983497 
L 881.47326 214.987359 
L 884.145272 218.791067 
L 892.161307 219.508582 
L 894.833319 217.623734 
L 897.505331 216.836003 
L 900.177343 213.78053 
L 902.849354 209.715708 
L 910.86539 207.485268 
L 916.209413 208.027244 
L 918.881425 208.497908 
L 921.553437 204.845603 
L 929.569472 198.303489 
L 932.241483 193.784461 
L 934.913495 190.509564 
L 937.585507 189.175469 
L 940.257519 192.647847 
L 940.257519 192.647847 
" clip-path="url(#p9ffa07ac28)" style="fill: none; stroke: #ff7f0e; stroke-width: 1.5; stroke-linecap: square"/>
   </g>
   <g id="patch_3">
    <path d="M 45.267188 301.717813 
L 45.267188 48.331875 
" style="fill: none; stroke: #000000; stroke-width: 0.8; stroke-linejoin: miter; stroke-linecap: square"/>
   </g>
   <g id="patch_4">
    <path d="M 982.876106 301.717813 
L 982.876106 48.331875 
" style="fill: none; stroke: #000000; stroke-width: 0.8; stroke-linejoin: miter; stroke-linecap: square"/>
   </g>
   <g id="patch_5">
    <path d="M 45.267188 301.717812 
L 982.876106 301.717812 
" style="fill: none; stroke: #000000; stroke-width: 0.8; stroke-linejoin: miter; stroke-linecap: square"/>
   </g>
   <g id="patch_6">
    <path d="M 45.267188 48.331875 
L 982.876106 48.331875 
" style="fill: none; stroke: #000000; stroke-width: 0.8; stroke-linejoin: miter; stroke-linecap: square"/>
   </g>
   <g id="text_5">
    <!-- Closing Price -->
    <g transform="translate(475.595709 42.331875)scale(0.12 -0.12)">
     <defs>
      <path id="DejaVuSans-43" d="M 4122 4306 
L 4122 3641 
Q 3803 3938 3442 4084 
Q 3081 4231 2675 4231 
Q 1875 4231 1450 3742 
Q 1025 3253 1025 2328 
Q 1025 1406 1450 917 
Q 1875 428 2675 428 
Q 3081 428 3442 575 
Q 3803 722 4122 1019 
L 4122 359 
Q 3791 134 3420 21 
Q 3050 -91 2638 -91 
Q 1578 -91 968 557 
Q 359 1206 359 2328 
Q 359 3453 968 4101 
Q 1578 4750 2638 4750 
Q 3056 4750 3426 4639 
Q 3797 4528 4122 4306 
z
" transform="scale(0.015625)"/>
      <path id="DejaVuSans-6c" d="M 603 4863 
L 1178 4863 
L 1178 0 
L 603 0 
L 603 4863 
z
" transform="scale(0.015625)"/>
      <path id="DejaVuSans-6f" d="M 1959 3097 
Q 1497 3097 1228 2736 
Q 959 2375 959 1747 
Q 959 1119 1226 758 
Q 1494 397 1959 397 
Q 2419 397 2687 759 
Q 2956 1122 2956 1747 
Q 2956 2369 2687 2733 
Q 2419 3097 1959 3097 
z
M 1959 3584 
Q 2709 3584 3137 3096 
Q 3566 2609 3566 1747 
Q 3566 888 3137 398 
Q 2709 -91 1959 -91 
Q 1206 -91 779 398 
Q 353 888 353 1747 
Q 353 2609 779 3096 
Q 1206 3584 1959 3584 
z
" transform="scale(0.015625)"/>
      <path id="DejaVuSans-73" d="M 2834 3397 
L 2834 2853 
Q 2591 2978 2328 3040 
Q 2066 3103 1784 3103 
Q 1356 3103 1142 2972 
Q 928 2841 928 2578 
Q 928 2378 1081 2264 
Q 1234 2150 1697 2047 
L 1894 2003 
Q 2506 1872 2764 1633 
Q 3022 1394 3022 966 
Q 3022 478 2636 193 
Q 2250 -91 1575 -91 
Q 1294 -91 989 -36 
Q 684 19 347 128 
L 347 722 
Q 666 556 975 473 
Q 1284 391 1588 391 
Q 1994 391 2212 530 
Q 2431 669 2431 922 
Q 2431 1156 2273 1281 
Q 2116 1406 1581 1522 
L 1381 1569 
Q 847 1681 609 1914 
Q 372 2147 372 2553 
Q 372 3047 722 3315 
Q 1072 3584 1716 3584 
Q 2034 3584 2315 3537 
Q 2597 3491 2834 3397 
z
" transform="scale(0.015625)"/>
      <path id="DejaVuSans-69" d="M 603 3500 
L 1178 3500 
L 1178 0 
L 603 0 
L 603 3500 
z
M 603 4863 
L 1178 4863 
L 1178 4134 
L 603 4134 
L 603 4863 
z
" transform="scale(0.015625)"/>
      <path id="DejaVuSans-6e" d="M 3513 2113 
L 3513 0 
L 2938 0 
L 2938 2094 
Q 2938 2591 2744 2837 
Q 2550 3084 2163 3084 
Q 1697 3084 1428 2787 
Q 1159 2491 1159 1978 
L 1159 0 
L 581 0 
L 581 3500 
L 1159 3500 
L 1159 2956 
Q 1366 3272 1645 3428 
Q 1925 3584 2291 3584 
Q 2894 3584 3203 3211 
Q 3513 2838 3513 2113 
z
" transform="scale(0.015625)"/>
      <path id="DejaVuSans-67" d="M 2906 1791 
Q 2906 2416 2648 2759 
Q 2391 3103 1925 3103 
Q 1463 3103 1205 2759 
Q 947 2416 947 1791 
Q 947 1169 1205 825 
Q 1463 481 1925 481 
Q 2391 481 2648 825 
Q 2906 1169 2906 1791 
z
M 3481 434 
Q 3481 -459 3084 -895 
Q 2688 -1331 1869 -1331 
Q 1566 -1331 1297 -1286 
Q 1028 -1241 775 -1147 
L 775 -588 
Q 1028 -725 1275 -790 
Q 1522 -856 1778 -856 
Q 2344 -856 2625 -561 
Q 2906 -266 2906 331 
L 2906 616 
Q 2728 306 2450 153 
Q 2172 0 1784 0 
Q 1141 0 747 490 
Q 353 981 353 1791 
Q 353 2603 747 3093 
Q 1141 3584 1784 3584 
Q 2172 3584 2450 3431 
Q 2728 3278 2906 2969 
L 2906 3500 
L 3481 3500 
L 3481 434 
z
" transform="scale(0.015625)"/>
      <path id="DejaVuSans-20" transform="scale(0.015625)"/>
      <path id="DejaVuSans-50" d="M 1259 4147 
L 1259 2394 
L 2053 2394 
Q 2494 2394 2734 2622 
Q 2975 2850 2975 3272 
Q 2975 3691 2734 3919 
Q 2494 4147 2053 4147 
L 1259 4147 
z
M 628 4666 
L 2053 4666 
Q 2838 4666 3239 4311 
Q 3641 3956 3641 3272 
Q 3641 2581 3239 2228 
Q 2838 1875 2053 1875 
L 1259 1875 
L 1259 0 
L 628 0 
L 628 4666 
z
" transform="scale(0.015625)"/>
      <path id="DejaVuSans-72" d="M 2631 2963 
Q 2534 3019 2420 3045 
Q 2306 3072 2169 3072 
Q 1681 3072 1420 2755 
Q 1159 2438 1159 1844 
L 1159 0 
L 581 0 
L 581 3500 
L 1159 3500 
L 1159 2956 
Q 1341 3275 1631 3429 
Q 1922 3584 2338 3584 
Q 2397 3584 2469 3576 
Q 2541 3569 2628 3553 
L 2631 2963 
z
" transform="scale(0.015625)"/>
      <path id="DejaVuSans-63" d="M 3122 3366 
L 3122 2828 
Q 2878 2963 2633 3030 
Q 2388 3097 2138 3097 
Q 1578 3097 1268 2742 
Q 959 2388 959 1747 
Q 959 1106 1268 751 
Q 1578 397 2138 397 
Q 2388 397 2633 464 
Q 2878 531 3122 666 
L 3122 134 
Q 2881 22 2623 -34 
Q 2366 -91 2075 -91 
Q 1284 -91 818 406 
Q 353 903 353 1747 
Q 353 2603 823 3093 
Q 1294 3584 2113 3584 
Q 2378 3584 2631 3529 
Q 2884 3475 3122 3366 
z
" transform="scale(0.015625)"/>
      <path id="DejaVuSans-65" d="M 3597 1894 
L 3597 1613 
L 953 1613 
Q 991 1019 1311 708 
Q 1631 397 2203 397 
Q 2534 397 2845 478 
Q 3156 559 3463 722 
L 3463 178 
Q 3153 47 2828 -22 
Q 2503 -91 2169 -91 
Q 1331 -91 842 396 
Q 353 884 353 1716 
Q 353 2575 817 3079 
Q 1281 3584 2069 3584 
Q 2775 3584 3186 3129 
Q 3597 2675 3597 1894 
z
M 3022 2063 
Q 3016 2534 2758 2815 
Q 2500 3097 2075 3097 
Q 1594 3097 1305 2825 
Q 1016 2553 972 2059 
L 3022 2063 
z
" transform="scale(0.015625)"/>
     </defs>
     <use xlink:href="#DejaVuSans-43"/>
     <use xlink:href="#DejaVuSans-6c" x="69.824219"/>
     <use xlink:href="#DejaVuSans-6f" x="97.607422"/>
     <use xlink:href="#DejaVuSans-73" x="158.789062"/>
     <use xlink:href="#DejaVuSans-69" x="210.888672"/>
     <use xlink:href="#DejaVuSans-6e" x="238.671875"/>
     <use xlink:href="#DejaVuSans-67" x="302.050781"/>
     <use xlink:href="#DejaVuSans-20" x="365.527344"/>
     <use xlink:href="#DejaVuSans-50" x="397.314453"/>
     <use xlink:href="#DejaVuSans-72" x="455.867188"/>
     <use xlink:href="#DejaVuSans-69" x="496.980469"/>
     <use xlink:href="#DejaVuSans-63" x="524.763672"/>
     <use xlink:href="#DejaVuSans-65" x="579.744141"/>
    </g>
   </g>
   <g id="legend_1">
    <g id="patch_7">
     <path d="M 911.144856 85.688125 
L 975.876106 85.688125 
Q 977.876106 85.688125 977.876106 83.688125 
L 977.876106 55.331875 
Q 977.876106 53.331875 975.876106 53.331875 
L 911.144856 53.331875 
Q 909.144856 53.331875 909.144856 55.331875 
L 909.144856 83.688125 
Q 909.144856 85.688125 911.144856 85.688125 
z
" style="fill: #ffffff; opacity: 0.8; stroke: #cccccc; stroke-linejoin: miter"/>
    </g>
    <g id="line2d_35">
     <path d="M 913.144856 61.430312 
L 923.144856 61.430312 
L 933.144856 61.430312 
" style="fill: none; stroke: #1f77b4; stroke-width: 1.5; stroke-linecap: square"/>
    </g>
    <g id="text_6">
     <!-- CLOSE -->
     <g transform="translate(941.144856 64.930312)scale(0.1 -0.1)">
      <defs>
       <path id="DejaVuSans-4c" d="M 628 4666 
L 1259 4666 
L 1259 531 
L 3531 531 
L 3531 0 
L 628 0 
L 628 4666 
z
" transform="scale(0.015625)"/>
       <path id="DejaVuSans-4f" d="M 2522 4238 
Q 1834 4238 1429 3725 
Q 1025 3213 1025 2328 
Q 1025 1447 1429 934 
Q 1834 422 2522 422 
Q 3209 422 3611 934 
Q 4013 1447 4013 2328 
Q 4013 3213 3611 3725 
Q 3209 4238 2522 4238 
z
M 2522 4750 
Q 3503 4750 4090 4092 
Q 4678 3434 4678 2328 
Q 4678 1225 4090 567 
Q 3503 -91 2522 -91 
Q 1538 -91 948 565 
Q 359 1222 359 2328 
Q 359 3434 948 4092 
Q 1538 4750 2522 4750 
z
" transform="scale(0.015625)"/>
       <path id="DejaVuSans-53" d="M 3425 4513 
L 3425 3897 
Q 3066 4069 2747 4153 
Q 2428 4238 2131 4238 
Q 1616 4238 1336 4038 
Q 1056 3838 1056 3469 
Q 1056 3159 1242 3001 
Q 1428 2844 1947 2747 
L 2328 2669 
Q 3034 2534 3370 2195 
Q 3706 1856 3706 1288 
Q 3706 609 3251 259 
Q 2797 -91 1919 -91 
Q 1588 -91 1214 -16 
Q 841 59 441 206 
L 441 856 
Q 825 641 1194 531 
Q 1563 422 1919 422 
Q 2459 422 2753 634 
Q 3047 847 3047 1241 
Q 3047 1584 2836 1778 
Q 2625 1972 2144 2069 
L 1759 2144 
Q 1053 2284 737 2584 
Q 422 2884 422 3419 
Q 422 4038 858 4394 
Q 1294 4750 2059 4750 
Q 2388 4750 2728 4690 
Q 3069 4631 3425 4513 
z
" transform="scale(0.015625)"/>
       <path id="DejaVuSans-45" d="M 628 4666 
L 3578 4666 
L 3578 4134 
L 1259 4134 
L 1259 2753 
L 3481 2753 
L 3481 2222 
L 1259 2222 
L 1259 531 
L 3634 531 
L 3634 0 
L 628 0 
L 628 4666 
z
" transform="scale(0.015625)"/>
      </defs>
      <use xlink:href="#DejaVuSans-43"/>
      <use xlink:href="#DejaVuSans-4c" x="69.824219"/>
      <use xlink:href="#DejaVuSans-4f" x="121.912109"/>
      <use xlink:href="#DejaVuSans-53" x="200.623047"/>
      <use xlink:href="#DejaVuSans-45" x="264.099609"/>
     </g>
    </g>
    <g id="line2d_36">
     <path d="M 913.144856 76.108437 
L 923.144856 76.108437 
L 933.144856 76.108437 
" style="fill: none; stroke: #ff7f0e; stroke-width: 1.5; stroke-linecap: square"/>
    </g>
    <g id="text_7">
     <!-- SMA5 -->
     <g transform="translate(941.144856 79.608437)scale(0.1 -0.1)">
      <defs>
       <path id="DejaVuSans-4d" d="M 628 4666 
L 1569 4666 
L 2759 1491 
L 3956 4666 
L 4897 4666 
L 4897 0 
L 4281 0 
L 4281 4097 
L 3078 897 
L 2444 897 
L 1241 4097 
L 1241 0 
L 628 0 
L 628 4666 
z
" transform="scale(0.015625)"/>
       <path id="DejaVuSans-41" d="M 2188 4044 
L 1331 1722 
L 3047 1722 
L 2188 4044 
z
M 1831 4666 
L 2547 4666 
L 4325 0 
L 3669 0 
L 3244 1197 
L 1141 1197 
L 716 0 
L 50 0 
L 1831 4666 
z
" transform="scale(0.015625)"/>
      </defs>
      <use xlink:href="#DejaVuSans-53"/>
      <use xlink:href="#DejaVuSans-4d" x="63.476562"/>
      <use xlink:href="#DejaVuSans-41" x="149.755859"/>
      <use xlink:href="#DejaVuSans-35" x="218.164062"/>
     </g>
    </g>
   </g>
  </g>
  <g id="axes_2">
   <g id="patch_8">
    <path d="M 45.267188 584.521875 
L 982.876106 584.521875 
L 982.876106 331.135938 
L 45.267188 331.135938 
z
" style="fill: #ffffff"/>
   </g>
   <g id="matplotlib.axis_3">
    <g id="xtick_13">
     <g id="line2d_37">
      <path d="M 82.541751 584.521875 
L 82.541751 331.135938 
" clip-path="url(#p2813f90d8b)" style="fill: none; stroke-dasharray: 2.96,1.28; stroke-dashoffset: 0; stroke: #b0b0b0; stroke-width: 0.8"/>
     </g>
     <g id="line2d_38">
      <g>
       <use xlink:href="#m01a431c916" x="82.541751" y="584.521875" style="stroke: #000000; stroke-width: 0.8"/>
      </g>
     </g>
     <g id="text_8">
      <!-- 2022-01 -->
      <g transform="translate(61.650345 599.120312)scale(0.1 -0.1)">
       <defs>
        <path id="DejaVuSans-32" d="M 1228 531 
L 3431 531 
L 3431 0 
L 469 0 
L 469 531 
Q 828 903 1448 1529 
Q 2069 2156 2228 2338 
Q 2531 2678 2651 2914 
Q 2772 3150 2772 3378 
Q 2772 3750 2511 3984 
Q 2250 4219 1831 4219 
Q 1534 4219 1204 4116 
Q 875 4013 500 3803 
L 500 4441 
Q 881 4594 1212 4672 
Q 1544 4750 1819 4750 
Q 2544 4750 2975 4387 
Q 3406 4025 3406 3419 
Q 3406 3131 3298 2873 
Q 3191 2616 2906 2266 
Q 2828 2175 2409 1742 
Q 1991 1309 1228 531 
z
" transform="scale(0.015625)"/>
        <path id="DejaVuSans-2d" d="M 313 2009 
L 1997 2009 
L 1997 1497 
L 313 1497 
L 313 2009 
z
" transform="scale(0.015625)"/>
        <path id="DejaVuSans-31" d="M 794 531 
L 1825 531 
L 1825 4091 
L 703 3866 
L 703 4441 
L 1819 4666 
L 2450 4666 
L 2450 531 
L 3481 531 
L 3481 0 
L 794 0 
L 794 531 
z
" transform="scale(0.015625)"/>
       </defs>
       <use xlink:href="#DejaVuSans-32"/>
       <use xlink:href="#DejaVuSans-30" x="63.623047"/>
       <use xlink:href="#DejaVuSans-32" x="127.246094"/>
       <use xlink:href="#DejaVuSans-32" x="190.869141"/>
       <use xlink:href="#DejaVuSans-2d" x="254.492188"/>
       <use xlink:href="#DejaVuSans-30" x="290.576172"/>
       <use xlink:href="#DejaVuSans-31" x="354.199219"/>
      </g>
     </g>
    </g>
    <g id="xtick_14">
     <g id="line2d_39">
      <path d="M 165.374115 584.521875 
L 165.374115 331.135938 
" clip-path="url(#p2813f90d8b)" style="fill: none; stroke-dasharray: 2.96,1.28; stroke-dashoffset: 0; stroke: #b0b0b0; stroke-width: 0.8"/>
     </g>
     <g id="line2d_40">
      <g>
       <use xlink:href="#m01a431c916" x="165.374115" y="584.521875" style="stroke: #000000; stroke-width: 0.8"/>
      </g>
     </g>
     <g id="text_9">
      <!-- 2022-02 -->
      <g transform="translate(144.482709 599.120312)scale(0.1 -0.1)">
       <use xlink:href="#DejaVuSans-32"/>
       <use xlink:href="#DejaVuSans-30" x="63.623047"/>
       <use xlink:href="#DejaVuSans-32" x="127.246094"/>
       <use xlink:href="#DejaVuSans-32" x="190.869141"/>
       <use xlink:href="#DejaVuSans-2d" x="254.492188"/>
       <use xlink:href="#DejaVuSans-30" x="290.576172"/>
       <use xlink:href="#DejaVuSans-32" x="354.199219"/>
      </g>
     </g>
    </g>
    <g id="xtick_15">
     <g id="line2d_41">
      <path d="M 240.190444 584.521875 
L 240.190444 331.135938 
" clip-path="url(#p2813f90d8b)" style="fill: none; stroke-dasharray: 2.96,1.28; stroke-dashoffset: 0; stroke: #b0b0b0; stroke-width: 0.8"/>
     </g>
     <g id="line2d_42">
      <g>
       <use xlink:href="#m01a431c916" x="240.190444" y="584.521875" style="stroke: #000000; stroke-width: 0.8"/>
      </g>
     </g>
     <g id="text_10">
      <!-- 2022-03 -->
      <g transform="translate(219.299037 599.120312)scale(0.1 -0.1)">
       <use xlink:href="#DejaVuSans-32"/>
       <use xlink:href="#DejaVuSans-30" x="63.623047"/>
       <use xlink:href="#DejaVuSans-32" x="127.246094"/>
       <use xlink:href="#DejaVuSans-32" x="190.869141"/>
       <use xlink:href="#DejaVuSans-2d" x="254.492188"/>
       <use xlink:href="#DejaVuSans-30" x="290.576172"/>
       <use xlink:href="#DejaVuSans-33" x="354.199219"/>
      </g>
     </g>
    </g>
    <g id="xtick_16">
     <g id="line2d_43">
      <path d="M 323.022808 584.521875 
L 323.022808 331.135938 
" clip-path="url(#p2813f90d8b)" style="fill: none; stroke-dasharray: 2.96,1.28; stroke-dashoffset: 0; stroke: #b0b0b0; stroke-width: 0.8"/>
     </g>
     <g id="line2d_44">
      <g>
       <use xlink:href="#m01a431c916" x="323.022808" y="584.521875" style="stroke: #000000; stroke-width: 0.8"/>
      </g>
     </g>
     <g id="text_11">
      <!-- 2022-04 -->
      <g transform="translate(302.131401 599.120312)scale(0.1 -0.1)">
       <use xlink:href="#DejaVuSans-32"/>
       <use xlink:href="#DejaVuSans-30" x="63.623047"/>
       <use xlink:href="#DejaVuSans-32" x="127.246094"/>
       <use xlink:href="#DejaVuSans-32" x="190.869141"/>
       <use xlink:href="#DejaVuSans-2d" x="254.492188"/>
       <use xlink:href="#DejaVuSans-30" x="290.576172"/>
       <use xlink:href="#DejaVuSans-34" x="354.199219"/>
      </g>
     </g>
    </g>
    <g id="xtick_17">
     <g id="line2d_45">
      <path d="M 403.18316 584.521875 
L 403.18316 331.135938 
" clip-path="url(#p2813f90d8b)" style="fill: none; stroke-dasharray: 2.96,1.28; stroke-dashoffset: 0; stroke: #b0b0b0; stroke-width: 0.8"/>
     </g>
     <g id="line2d_46">
      <g>
       <use xlink:href="#m01a431c916" x="403.18316" y="584.521875" style="stroke: #000000; stroke-width: 0.8"/>
      </g>
     </g>
     <g id="text_12">
      <!-- 2022-05 -->
      <g transform="translate(382.291753 599.120312)scale(0.1 -0.1)">
       <use xlink:href="#DejaVuSans-32"/>
       <use xlink:href="#DejaVuSans-30" x="63.623047"/>
       <use xlink:href="#DejaVuSans-32" x="127.246094"/>
       <use xlink:href="#DejaVuSans-32" x="190.869141"/>
       <use xlink:href="#DejaVuSans-2d" x="254.492188"/>
       <use xlink:href="#DejaVuSans-30" x="290.576172"/>
       <use xlink:href="#DejaVuSans-35" x="354.199219"/>
      </g>
     </g>
    </g>
    <g id="xtick_18">
     <g id="line2d_47">
      <path d="M 486.015523 584.521875 
L 486.015523 331.135938 
" clip-path="url(#p2813f90d8b)" style="fill: none; stroke-dasharray: 2.96,1.28; stroke-dashoffset: 0; stroke: #b0b0b0; stroke-width: 0.8"/>
     </g>
     <g id="line2d_48">
      <g>
       <use xlink:href="#m01a431c916" x="486.015523" y="584.521875" style="stroke: #000000; stroke-width: 0.8"/>
      </g>
     </g>
     <g id="text_13">
      <!-- 2022-06 -->
      <g transform="translate(465.124117 599.120312)scale(0.1 -0.1)">
       <defs>
        <path id="DejaVuSans-36" d="M 2113 2584 
Q 1688 2584 1439 2293 
Q 1191 2003 1191 1497 
Q 1191 994 1439 701 
Q 1688 409 2113 409 
Q 2538 409 2786 701 
Q 3034 994 3034 1497 
Q 3034 2003 2786 2293 
Q 2538 2584 2113 2584 
z
M 3366 4563 
L 3366 3988 
Q 3128 4100 2886 4159 
Q 2644 4219 2406 4219 
Q 1781 4219 1451 3797 
Q 1122 3375 1075 2522 
Q 1259 2794 1537 2939 
Q 1816 3084 2150 3084 
Q 2853 3084 3261 2657 
Q 3669 2231 3669 1497 
Q 3669 778 3244 343 
Q 2819 -91 2113 -91 
Q 1303 -91 875 529 
Q 447 1150 447 2328 
Q 447 3434 972 4092 
Q 1497 4750 2381 4750 
Q 2619 4750 2861 4703 
Q 3103 4656 3366 4563 
z
" transform="scale(0.015625)"/>
       </defs>
       <use xlink:href="#DejaVuSans-32"/>
       <use xlink:href="#DejaVuSans-30" x="63.623047"/>
       <use xlink:href="#DejaVuSans-32" x="127.246094"/>
       <use xlink:href="#DejaVuSans-32" x="190.869141"/>
       <use xlink:href="#DejaVuSans-2d" x="254.492188"/>
       <use xlink:href="#DejaVuSans-30" x="290.576172"/>
       <use xlink:href="#DejaVuSans-36" x="354.199219"/>
      </g>
     </g>
    </g>
    <g id="xtick_19">
     <g id="line2d_49">
      <path d="M 566.175876 584.521875 
L 566.175876 331.135938 
" clip-path="url(#p2813f90d8b)" style="fill: none; stroke-dasharray: 2.96,1.28; stroke-dashoffset: 0; stroke: #b0b0b0; stroke-width: 0.8"/>
     </g>
     <g id="line2d_50">
      <g>
       <use xlink:href="#m01a431c916" x="566.175876" y="584.521875" style="stroke: #000000; stroke-width: 0.8"/>
      </g>
     </g>
     <g id="text_14">
      <!-- 2022-07 -->
      <g transform="translate(545.284469 599.120312)scale(0.1 -0.1)">
       <defs>
        <path id="DejaVuSans-37" d="M 525 4666 
L 3525 4666 
L 3525 4397 
L 1831 0 
L 1172 0 
L 2766 4134 
L 525 4134 
L 525 4666 
z
" transform="scale(0.015625)"/>
       </defs>
       <use xlink:href="#DejaVuSans-32"/>
       <use xlink:href="#DejaVuSans-30" x="63.623047"/>
       <use xlink:href="#DejaVuSans-32" x="127.246094"/>
       <use xlink:href="#DejaVuSans-32" x="190.869141"/>
       <use xlink:href="#DejaVuSans-2d" x="254.492188"/>
       <use xlink:href="#DejaVuSans-30" x="290.576172"/>
       <use xlink:href="#DejaVuSans-37" x="354.199219"/>
      </g>
     </g>
    </g>
    <g id="xtick_20">
     <g id="line2d_51">
      <path d="M 649.008239 584.521875 
L 649.008239 331.135938 
" clip-path="url(#p2813f90d8b)" style="fill: none; stroke-dasharray: 2.96,1.28; stroke-dashoffset: 0; stroke: #b0b0b0; stroke-width: 0.8"/>
     </g>
     <g id="line2d_52">
      <g>
       <use xlink:href="#m01a431c916" x="649.008239" y="584.521875" style="stroke: #000000; stroke-width: 0.8"/>
      </g>
     </g>
     <g id="text_15">
      <!-- 2022-08 -->
      <g transform="translate(628.116833 599.120312)scale(0.1 -0.1)">
       <defs>
        <path id="DejaVuSans-38" d="M 2034 2216 
Q 1584 2216 1326 1975 
Q 1069 1734 1069 1313 
Q 1069 891 1326 650 
Q 1584 409 2034 409 
Q 2484 409 2743 651 
Q 3003 894 3003 1313 
Q 3003 1734 2745 1975 
Q 2488 2216 2034 2216 
z
M 1403 2484 
Q 997 2584 770 2862 
Q 544 3141 544 3541 
Q 544 4100 942 4425 
Q 1341 4750 2034 4750 
Q 2731 4750 3128 4425 
Q 3525 4100 3525 3541 
Q 3525 3141 3298 2862 
Q 3072 2584 2669 2484 
Q 3125 2378 3379 2068 
Q 3634 1759 3634 1313 
Q 3634 634 3220 271 
Q 2806 -91 2034 -91 
Q 1263 -91 848 271 
Q 434 634 434 1313 
Q 434 1759 690 2068 
Q 947 2378 1403 2484 
z
M 1172 3481 
Q 1172 3119 1398 2916 
Q 1625 2713 2034 2713 
Q 2441 2713 2670 2916 
Q 2900 3119 2900 3481 
Q 2900 3844 2670 4047 
Q 2441 4250 2034 4250 
Q 1625 4250 1398 4047 
Q 1172 3844 1172 3481 
z
" transform="scale(0.015625)"/>
       </defs>
       <use xlink:href="#DejaVuSans-32"/>
       <use xlink:href="#DejaVuSans-30" x="63.623047"/>
       <use xlink:href="#DejaVuSans-32" x="127.246094"/>
       <use xlink:href="#DejaVuSans-32" x="190.869141"/>
       <use xlink:href="#DejaVuSans-2d" x="254.492188"/>
       <use xlink:href="#DejaVuSans-30" x="290.576172"/>
       <use xlink:href="#DejaVuSans-38" x="354.199219"/>
      </g>
     </g>
    </g>
    <g id="xtick_21">
     <g id="line2d_53">
      <path d="M 731.840603 584.521875 
L 731.840603 331.135938 
" clip-path="url(#p2813f90d8b)" style="fill: none; stroke-dasharray: 2.96,1.28; stroke-dashoffset: 0; stroke: #b0b0b0; stroke-width: 0.8"/>
     </g>
     <g id="line2d_54">
      <g>
       <use xlink:href="#m01a431c916" x="731.840603" y="584.521875" style="stroke: #000000; stroke-width: 0.8"/>
      </g>
     </g>
     <g id="text_16">
      <!-- 2022-09 -->
      <g transform="translate(710.949197 599.120312)scale(0.1 -0.1)">
       <defs>
        <path id="DejaVuSans-39" d="M 703 97 
L 703 672 
Q 941 559 1184 500 
Q 1428 441 1663 441 
Q 2288 441 2617 861 
Q 2947 1281 2994 2138 
Q 2813 1869 2534 1725 
Q 2256 1581 1919 1581 
Q 1219 1581 811 2004 
Q 403 2428 403 3163 
Q 403 3881 828 4315 
Q 1253 4750 1959 4750 
Q 2769 4750 3195 4129 
Q 3622 3509 3622 2328 
Q 3622 1225 3098 567 
Q 2575 -91 1691 -91 
Q 1453 -91 1209 -44 
Q 966 3 703 97 
z
M 1959 2075 
Q 2384 2075 2632 2365 
Q 2881 2656 2881 3163 
Q 2881 3666 2632 3958 
Q 2384 4250 1959 4250 
Q 1534 4250 1286 3958 
Q 1038 3666 1038 3163 
Q 1038 2656 1286 2365 
Q 1534 2075 1959 2075 
z
" transform="scale(0.015625)"/>
       </defs>
       <use xlink:href="#DejaVuSans-32"/>
       <use xlink:href="#DejaVuSans-30" x="63.623047"/>
       <use xlink:href="#DejaVuSans-32" x="127.246094"/>
       <use xlink:href="#DejaVuSans-32" x="190.869141"/>
       <use xlink:href="#DejaVuSans-2d" x="254.492188"/>
       <use xlink:href="#DejaVuSans-30" x="290.576172"/>
       <use xlink:href="#DejaVuSans-39" x="354.199219"/>
      </g>
     </g>
    </g>
    <g id="xtick_22">
     <g id="line2d_55">
      <path d="M 812.000955 584.521875 
L 812.000955 331.135938 
" clip-path="url(#p2813f90d8b)" style="fill: none; stroke-dasharray: 2.96,1.28; stroke-dashoffset: 0; stroke: #b0b0b0; stroke-width: 0.8"/>
     </g>
     <g id="line2d_56">
      <g>
       <use xlink:href="#m01a431c916" x="812.000955" y="584.521875" style="stroke: #000000; stroke-width: 0.8"/>
      </g>
     </g>
     <g id="text_17">
      <!-- 2022-10 -->
      <g transform="translate(791.109549 599.120312)scale(0.1 -0.1)">
       <use xlink:href="#DejaVuSans-32"/>
       <use xlink:href="#DejaVuSans-30" x="63.623047"/>
       <use xlink:href="#DejaVuSans-32" x="127.246094"/>
       <use xlink:href="#DejaVuSans-32" x="190.869141"/>
       <use xlink:href="#DejaVuSans-2d" x="254.492188"/>
       <use xlink:href="#DejaVuSans-31" x="290.576172"/>
       <use xlink:href="#DejaVuSans-30" x="354.199219"/>
      </g>
     </g>
    </g>
    <g id="xtick_23">
     <g id="line2d_57">
      <path d="M 894.833319 584.521875 
L 894.833319 331.135938 
" clip-path="url(#p2813f90d8b)" style="fill: none; stroke-dasharray: 2.96,1.28; stroke-dashoffset: 0; stroke: #b0b0b0; stroke-width: 0.8"/>
     </g>
     <g id="line2d_58">
      <g>
       <use xlink:href="#m01a431c916" x="894.833319" y="584.521875" style="stroke: #000000; stroke-width: 0.8"/>
      </g>
     </g>
     <g id="text_18">
      <!-- 2022-11 -->
      <g transform="translate(873.941913 599.120312)scale(0.1 -0.1)">
       <use xlink:href="#DejaVuSans-32"/>
       <use xlink:href="#DejaVuSans-30" x="63.623047"/>
       <use xlink:href="#DejaVuSans-32" x="127.246094"/>
       <use xlink:href="#DejaVuSans-32" x="190.869141"/>
       <use xlink:href="#DejaVuSans-2d" x="254.492188"/>
       <use xlink:href="#DejaVuSans-31" x="290.576172"/>
       <use xlink:href="#DejaVuSans-31" x="354.199219"/>
      </g>
     </g>
    </g>
    <g id="xtick_24">
     <g id="line2d_59">
      <path d="M 974.993671 584.521875 
L 974.993671 331.135938 
" clip-path="url(#p2813f90d8b)" style="fill: none; stroke-dasharray: 2.96,1.28; stroke-dashoffset: 0; stroke: #b0b0b0; stroke-width: 0.8"/>
     </g>
     <g id="line2d_60">
      <g>
       <use xlink:href="#m01a431c916" x="974.993671" y="584.521875" style="stroke: #000000; stroke-width: 0.8"/>
      </g>
     </g>
     <g id="text_19">
      <!-- 2022-12 -->
      <g transform="translate(954.102265 599.120312)scale(0.1 -0.1)">
       <use xlink:href="#DejaVuSans-32"/>
       <use xlink:href="#DejaVuSans-30" x="63.623047"/>
       <use xlink:href="#DejaVuSans-32" x="127.246094"/>
       <use xlink:href="#DejaVuSans-32" x="190.869141"/>
       <use xlink:href="#DejaVuSans-2d" x="254.492188"/>
       <use xlink:href="#DejaVuSans-31" x="290.576172"/>
       <use xlink:href="#DejaVuSans-32" x="354.199219"/>
      </g>
     </g>
    </g>
   </g>
   <g id="matplotlib.axis_4">
    <g id="ytick_5">
     <g id="line2d_61">
      <path d="M 45.267188 533.546738 
L 982.876106 533.546738 
" clip-path="url(#p2813f90d8b)" style="fill: none; stroke-dasharray: 2.96,1.28; stroke-dashoffset: 0; stroke: #b0b0b0; stroke-width: 0.8"/>
     </g>
     <g id="line2d_62">
      <g>
       <use xlink:href="#m6d83d80223" x="45.267188" y="533.546738" style="stroke: #000000; stroke-width: 0.8"/>
      </g>
     </g>
     <g id="text_20">
      <!-- −200 -->
      <g transform="translate(10.8 537.345957)scale(0.1 -0.1)">
       <defs>
        <path id="DejaVuSans-2212" d="M 678 2272 
L 4684 2272 
L 4684 1741 
L 678 1741 
L 678 2272 
z
" transform="scale(0.015625)"/>
       </defs>
       <use xlink:href="#DejaVuSans-2212"/>
       <use xlink:href="#DejaVuSans-32" x="83.789062"/>
       <use xlink:href="#DejaVuSans-30" x="147.412109"/>
       <use xlink:href="#DejaVuSans-30" x="211.035156"/>
      </g>
     </g>
    </g>
    <g id="ytick_6">
     <g id="line2d_63">
      <path d="M 45.267188 480.400625 
L 982.876106 480.400625 
" clip-path="url(#p2813f90d8b)" style="fill: none; stroke-dasharray: 2.96,1.28; stroke-dashoffset: 0; stroke: #b0b0b0; stroke-width: 0.8"/>
     </g>
     <g id="line2d_64">
      <g>
       <use xlink:href="#m6d83d80223" x="45.267188" y="480.400625" style="stroke: #000000; stroke-width: 0.8"/>
      </g>
     </g>
     <g id="text_21">
      <!-- −100 -->
      <g transform="translate(10.8 484.199844)scale(0.1 -0.1)">
       <use xlink:href="#DejaVuSans-2212"/>
       <use xlink:href="#DejaVuSans-31" x="83.789062"/>
       <use xlink:href="#DejaVuSans-30" x="147.412109"/>
       <use xlink:href="#DejaVuSans-30" x="211.035156"/>
      </g>
     </g>
    </g>
    <g id="ytick_7">
     <g id="line2d_65">
      <path d="M 45.267188 427.254513 
L 982.876106 427.254513 
" clip-path="url(#p2813f90d8b)" style="fill: none; stroke-dasharray: 2.96,1.28; stroke-dashoffset: 0; stroke: #b0b0b0; stroke-width: 0.8"/>
     </g>
     <g id="line2d_66">
      <g>
       <use xlink:href="#m6d83d80223" x="45.267188" y="427.254513" style="stroke: #000000; stroke-width: 0.8"/>
      </g>
     </g>
     <g id="text_22">
      <!-- 0 -->
      <g transform="translate(31.904688 431.053731)scale(0.1 -0.1)">
       <use xlink:href="#DejaVuSans-30"/>
      </g>
     </g>
    </g>
    <g id="ytick_8">
     <g id="line2d_67">
      <path d="M 45.267188 374.1084 
L 982.876106 374.1084 
" clip-path="url(#p2813f90d8b)" style="fill: none; stroke-dasharray: 2.96,1.28; stroke-dashoffset: 0; stroke: #b0b0b0; stroke-width: 0.8"/>
     </g>
     <g id="line2d_68">
      <g>
       <use xlink:href="#m6d83d80223" x="45.267188" y="374.1084" style="stroke: #000000; stroke-width: 0.8"/>
      </g>
     </g>
     <g id="text_23">
      <!-- 100 -->
      <g transform="translate(19.179688 377.907619)scale(0.1 -0.1)">
       <use xlink:href="#DejaVuSans-31"/>
       <use xlink:href="#DejaVuSans-30" x="63.623047"/>
       <use xlink:href="#DejaVuSans-30" x="127.246094"/>
      </g>
     </g>
    </g>
   </g>
   <g id="line2d_69">
    <path d="M 87.885775 427.254513 
L 90.557786 428.02181 
L 93.229798 429.706389 
L 95.90181 431.883255 
L 98.573822 433.191797 
L 106.589857 434.884913 
L 109.261869 435.182017 
L 111.93388 433.929298 
L 114.605892 430.108585 
L 117.277904 432.726399 
L 125.293939 435.56205 
L 127.965951 442.43836 
L 130.637962 450.864096 
L 133.309974 456.098817 
L 135.981986 463.847849 
L 143.998021 476.678181 
L 146.670033 487.880665 
L 152.014056 503.824766 
L 154.686068 510.407747 
L 162.702103 504.705354 
L 165.374115 500.165889 
L 168.046127 492.84519 
L 170.718139 491.914332 
L 173.39015 488.500871 
L 181.406185 488.665096 
L 184.078197 487.534018 
L 186.750209 481.849759 
L 189.422221 475.403669 
L 192.094232 475.940239 
L 200.110268 479.391577 
L 202.782279 474.039581 
L 205.454291 472.280028 
L 208.126303 471.673479 
L 210.798315 473.158118 
L 221.486362 471.223201 
L 224.158373 471.079464 
L 226.830385 479.971312 
L 229.502397 477.504906 
L 237.518432 471.047348 
L 242.862455 464.241638 
L 245.534467 456.71456 
L 248.206479 453.379945 
L 256.222514 451.527244 
L 258.894526 444.121632 
L 261.566538 432.475025 
L 264.238549 425.163168 
L 266.910561 419.485598 
L 274.926596 413.590599 
L 277.598608 419.140929 
L 280.27062 420.892306 
L 282.942631 420.74892 
L 293.630678 421.165787 
L 296.30269 419.119894 
L 298.974702 414.757792 
L 301.646714 404.161047 
L 304.318725 395.962504 
L 312.334761 391.935755 
L 315.006772 388.420525 
L 317.678784 379.521242 
L 320.350796 377.503949 
L 323.022808 379.019237 
L 331.038843 377.688506 
L 333.710854 374.103776 
L 336.382866 374.048354 
L 339.054878 377.457001 
L 341.72689 379.339654 
L 349.742925 384.347778 
L 352.414937 396.017086 
L 355.086948 403.890108 
L 368.447007 416.29781 
L 371.119019 439.738749 
L 373.791031 456.579318 
L 376.463042 466.516084 
L 379.135054 468.197224 
L 387.151089 475.337001 
L 389.823101 481.361519 
L 392.495113 492.276765 
L 395.167124 497.21667 
L 397.839136 502.576302 
L 405.855171 508.97 
L 411.199195 513.511161 
L 413.871207 514.333306 
L 416.543218 519.769839 
L 424.559254 530.540594 
L 427.231265 542.277469 
L 432.575289 562.137552 
L 435.2473 569.132577 
L 443.263336 573.004332 
L 445.935347 568.780779 
L 448.607359 565.752331 
L 451.279371 569.443789 
L 453.951383 568.423291 
L 461.967418 562.983305 
L 464.63943 560.328879 
L 467.311441 563.279228 
L 469.983453 563.779871 
L 472.655465 557.624207 
L 480.6715 545.340346 
L 483.343512 532.664731 
L 486.015523 523.401391 
L 488.687535 512.613249 
L 491.359547 502.302441 
L 499.375582 493.763082 
L 502.047594 487.967755 
L 504.719606 481.489226 
L 507.391617 473.608266 
L 510.063629 469.124424 
L 518.079664 472.780987 
L 520.751676 473.425091 
L 523.423688 473.096237 
L 528.767711 481.248916 
L 536.783746 484.823114 
L 539.455758 481.653688 
L 542.12777 482.18772 
L 544.799782 476.914331 
L 547.471793 475.781966 
L 555.487829 468.972822 
L 558.15984 460.258734 
L 560.831852 456.461577 
L 566.175876 454.904957 
L 574.191911 454.900612 
L 576.863922 456.428379 
L 579.535934 455.461479 
L 582.207946 453.632119 
L 584.879958 451.442525 
L 592.895993 452.683924 
L 595.568005 451.662491 
L 598.240016 448.595778 
L 600.912028 450.787072 
L 603.58404 450.436075 
L 611.600075 444.074007 
L 614.272087 435.769082 
L 619.61611 413.01722 
L 622.288122 405.523523 
L 630.304157 399.473972 
L 632.976169 401.212998 
L 635.648181 399.043979 
L 638.320192 389.672497 
L 640.992204 379.023442 
L 649.008239 370.519691 
L 651.680251 366.453941 
L 654.352263 361.81197 
L 657.024275 354.817017 
L 659.696286 348.72494 
L 667.712322 346.347666 
L 673.056345 346.685369 
L 675.728357 342.65348 
L 678.400368 344.202228 
L 689.088415 346.633431 
L 691.760427 348.174515 
L 694.432439 351.355721 
L 697.104451 355.249367 
L 705.120486 365.017737 
L 707.792498 375.493689 
L 713.136521 392.955153 
L 715.808533 399.380011 
L 726.49658 414.394371 
L 731.840603 420.740057 
L 734.512615 426.496113 
L 742.52865 431.296418 
L 745.200662 435.710807 
L 747.872674 438.061869 
L 750.544685 439.753152 
L 753.216697 436.789498 
L 761.232732 430.840044 
L 763.904744 427.015521 
L 766.576756 428.060014 
L 769.248768 429.307964 
L 771.920779 436.837877 
L 779.936814 442.581533 
L 782.608826 446.042009 
L 785.280838 447.699671 
L 787.95285 448.095563 
L 790.624861 449.014024 
L 798.640897 450.002873 
L 801.312908 445.77005 
L 803.98492 444.638091 
L 806.656932 447.890208 
L 809.328944 447.237417 
L 817.344979 448.172877 
L 820.016991 443.289502 
L 825.361014 436.90872 
L 828.033026 432.878483 
L 836.049061 426.646702 
L 838.721073 423.365259 
L 841.393084 419.325122 
L 844.065096 417.20192 
L 846.737108 413.274601 
L 854.753143 412.41315 
L 857.425155 408.140495 
L 860.097167 405.67429 
L 862.769178 401.772828 
L 865.44119 399.865031 
L 873.457225 399.261152 
L 876.129237 397.3031 
L 881.47326 400.631847 
L 884.145272 406.737753 
L 892.161307 406.650942 
L 894.833319 402.368292 
L 897.505331 399.612392 
L 900.177343 397.908126 
L 902.849354 398.151623 
L 910.86539 397.11389 
L 916.209413 397.551603 
L 918.881425 398.411097 
L 921.553437 391.586934 
L 929.569472 382.307629 
L 932.241483 377.898459 
L 934.913495 378.317552 
L 937.585507 383.131554 
L 940.257519 388.866567 
L 940.257519 388.866567 
" clip-path="url(#p2813f90d8b)" style="fill: none; stroke: #1f77b4; stroke-width: 1.5; stroke-linecap: square"/>
   </g>
   <g id="line2d_70">
    <path d="M 87.885775 427.254513 
L 90.557786 427.680789 
L 93.229798 428.510953 
L 98.573822 430.705945 
L 106.589857 431.838678 
L 109.261869 432.684788 
L 111.93388 432.983867 
L 114.605892 432.319663 
L 117.277904 432.410795 
L 125.293939 433.100272 
L 127.965951 435.105701 
L 130.637962 438.440725 
L 133.309974 442.134811 
L 135.981986 446.635782 
L 143.998021 452.818284 
L 146.670033 459.992305 
L 152.014056 468.919617 
L 154.686068 477.338573 
L 162.702103 482.875769 
L 165.374115 486.365985 
L 168.046127 487.671458 
L 170.718139 488.525072 
L 181.406185 488.549296 
L 184.078197 488.345625 
L 186.750209 487.043303 
L 189.422221 484.710865 
L 192.094232 482.954021 
L 200.110268 482.240649 
L 205.454291 478.933734 
L 208.126303 477.480762 
L 210.798315 476.615795 
L 218.81435 475.64494 
L 221.486362 474.760305 
L 224.158373 474.023945 
L 226.830385 475.213666 
L 229.502397 475.67199 
L 237.518432 474.746939 
L 242.862455 472.645655 
L 248.206479 466.243102 
L 256.222514 463.29977 
L 258.894526 459.463975 
L 261.566538 454.065997 
L 266.910561 442.525207 
L 274.926596 436.738182 
L 277.598608 433.218681 
L 280.27062 430.753378 
L 282.942631 428.752468 
L 293.630678 427.235121 
L 296.30269 425.612066 
L 298.974702 423.441201 
L 301.646714 419.585156 
L 304.318725 414.860611 
L 312.334761 410.275629 
L 315.006772 405.9046 
L 317.678784 400.62792 
L 320.350796 396.00312 
L 323.022808 392.60634 
L 331.038843 389.622771 
L 333.710854 386.51897 
L 336.382866 384.024846 
L 339.054878 382.711276 
L 341.72689 382.036952 
L 349.742925 382.499117 
L 352.414937 385.202711 
L 355.086948 388.940191 
L 368.447007 394.411716 
L 371.119019 403.477123 
L 376.463042 424.581268 
L 379.135054 433.30446 
L 387.151089 441.710968 
L 389.823101 449.641079 
L 392.495113 458.168216 
L 395.167124 465.977907 
L 397.839136 473.297586 
L 405.855171 480.432069 
L 411.199195 487.047888 
L 416.543218 497.957945 
L 424.559254 504.474475 
L 427.231265 512.035074 
L 429.903277 520.050444 
L 435.2473 536.600808 
L 443.263336 543.881513 
L 445.935347 548.861366 
L 451.279371 555.680405 
L 453.951383 558.228982 
L 464.63943 559.409653 
L 469.983453 560.902829 
L 472.655465 560.247104 
L 480.6715 557.265753 
L 483.343512 552.345548 
L 486.015523 546.556717 
L 488.687535 539.768023 
L 491.359547 532.274907 
L 499.375582 524.572542 
L 507.391617 502.800943 
L 510.063629 496.065639 
L 518.079664 491.408709 
L 520.751676 487.811985 
L 523.423688 484.868836 
L 526.095699 483.328589 
L 528.767711 482.912655 
L 536.783746 483.294747 
L 539.455758 482.966535 
L 542.12777 482.810772 
L 547.471793 480.46158 
L 555.487829 478.163829 
L 560.831852 470.958563 
L 563.503864 467.903346 
L 566.175876 465.303668 
L 574.191911 463.223057 
L 582.207946 459.193298 
L 584.879958 457.643143 
L 592.895993 456.6513 
L 595.568005 455.653538 
L 598.240016 454.241986 
L 603.58404 452.928017 
L 611.600075 451.157215 
L 614.272087 448.079589 
L 616.944099 443.372111 
L 619.61611 437.301133 
L 622.288122 430.945611 
L 630.304157 424.651283 
L 632.976169 419.963626 
L 635.648181 415.779697 
L 638.320192 410.558257 
L 640.992204 404.251294 
L 649.008239 397.504973 
L 651.680251 391.294767 
L 657.024275 379.281969 
L 659.696286 373.170563 
L 667.712322 367.805984 
L 673.056345 363.581861 
L 675.728357 359.396185 
L 678.400368 356.357393 
L 689.088415 354.412601 
L 691.760427 353.164984 
L 694.432439 352.803131 
L 697.104451 353.292378 
L 705.120486 355.63745 
L 707.792498 359.608698 
L 710.464509 364.547744 
L 715.808533 376.059383 
L 723.824568 383.003755 
L 726.49658 389.281878 
L 731.840603 395.573514 
L 734.512615 401.758034 
L 742.52865 407.665711 
L 745.200662 413.27473 
L 747.872674 418.232158 
L 750.544685 422.536357 
L 753.216697 425.386985 
L 761.232732 426.477597 
L 763.904744 426.585181 
L 766.576756 426.880148 
L 769.248768 427.365711 
L 771.920779 429.260144 
L 779.936814 431.924422 
L 782.608826 434.74794 
L 785.280838 437.338286 
L 787.95285 439.489741 
L 790.624861 441.394598 
L 801.312908 443.647012 
L 803.98492 443.845228 
L 806.656932 444.654224 
L 809.328944 445.170863 
L 817.344979 445.771266 
L 820.016991 445.274913 
L 825.361014 443.601674 
L 828.033026 441.457036 
L 836.049061 438.494969 
L 838.721073 435.469027 
L 841.393084 432.240246 
L 844.065096 429.232581 
L 846.737108 426.040985 
L 854.753143 423.315418 
L 862.769178 414.241929 
L 865.44119 411.36655 
L 873.457225 408.94547 
L 876.129237 406.616996 
L 881.47326 405.419966 
L 884.145272 405.683524 
L 892.161307 405.877007 
L 894.833319 405.175264 
L 902.849354 401.895746 
L 918.881425 399.891676 
L 921.553437 398.230727 
L 929.569472 395.046108 
L 932.241483 391.616578 
L 934.913495 388.956773 
L 937.585507 387.791729 
L 940.257519 388.006697 
L 940.257519 388.006697 
" clip-path="url(#p2813f90d8b)" style="fill: none; stroke: #ff7f0e; stroke-width: 1.5; stroke-linecap: square"/>
   </g>
   <g id="patch_9">
    <path d="M 45.267188 584.521875 
L 45.267188 331.135938 
" style="fill: none; stroke: #000000; stroke-width: 0.8; stroke-linejoin: miter; stroke-linecap: square"/>
   </g>
   <g id="patch_10">
    <path d="M 982.876106 584.521875 
L 982.876106 331.135938 
" style="fill: none; stroke: #000000; stroke-width: 0.8; stroke-linejoin: miter; stroke-linecap: square"/>
   </g>
   <g id="patch_11">
    <path d="M 45.267188 584.521875 
L 982.876106 584.521875 
" style="fill: none; stroke: #000000; stroke-width: 0.8; stroke-linejoin: miter; stroke-linecap: square"/>
   </g>
   <g id="patch_12">
    <path d="M 45.267188 331.135938 
L 982.876106 331.135938 
" style="fill: none; stroke: #000000; stroke-width: 0.8; stroke-linejoin: miter; stroke-linecap: square"/>
   </g>
   <g id="text_24">
    <!-- MACD -->
    <g transform="translate(496.085709 325.135938)scale(0.12 -0.12)">
     <defs>
      <path id="DejaVuSans-44" d="M 1259 4147 
L 1259 519 
L 2022 519 
Q 2988 519 3436 956 
Q 3884 1394 3884 2338 
Q 3884 3275 3436 3711 
Q 2988 4147 2022 4147 
L 1259 4147 
z
M 628 4666 
L 1925 4666 
Q 3281 4666 3915 4102 
Q 4550 3538 4550 2338 
Q 4550 1131 3912 565 
Q 3275 0 1925 0 
L 628 0 
L 628 4666 
z
" transform="scale(0.015625)"/>
     </defs>
     <use xlink:href="#DejaVuSans-4d"/>
     <use xlink:href="#DejaVuSans-41" x="86.279297"/>
     <use xlink:href="#DejaVuSans-43" x="152.9375"/>
     <use xlink:href="#DejaVuSans-44" x="222.761719"/>
    </g>
   </g>
   <g id="legend_2">
    <g id="patch_13">
     <path d="M 913.899543 368.492188 
L 975.876106 368.492188 
Q 977.876106 368.492188 977.876106 366.492188 
L 977.876106 338.135938 
Q 977.876106 336.135938 975.876106 336.135938 
L 913.899543 336.135938 
Q 911.899543 336.135938 911.899543 338.135938 
L 911.899543 366.492188 
Q 911.899543 368.492188 913.899543 368.492188 
z
" style="fill: #ffffff; opacity: 0.8; stroke: #cccccc; stroke-linejoin: miter"/>
    </g>
    <g id="line2d_71">
     <path d="M 915.899543 344.234375 
L 925.899543 344.234375 
L 935.899543 344.234375 
" style="fill: none; stroke: #1f77b4; stroke-width: 1.5; stroke-linecap: square"/>
    </g>
    <g id="text_25">
     <!-- MACD -->
     <g transform="translate(943.899543 347.734375)scale(0.1 -0.1)">
      <use xlink:href="#DejaVuSans-4d"/>
      <use xlink:href="#DejaVuSans-41" x="86.279297"/>
      <use xlink:href="#DejaVuSans-43" x="152.9375"/>
      <use xlink:href="#DejaVuSans-44" x="222.761719"/>
     </g>
    </g>
    <g id="line2d_72">
     <path d="M 915.899543 358.9125 
L 925.899543 358.9125 
L 935.899543 358.9125 
" style="fill: none; stroke: #ff7f0e; stroke-width: 1.5; stroke-linecap: square"/>
    </g>
    <g id="text_26">
     <!-- SIG -->
     <g transform="translate(943.899543 362.4125)scale(0.1 -0.1)">
      <defs>
       <path id="DejaVuSans-49" d="M 628 4666 
L 1259 4666 
L 1259 0 
L 628 0 
L 628 4666 
z
" transform="scale(0.015625)"/>
       <path id="DejaVuSans-47" d="M 3809 666 
L 3809 1919 
L 2778 1919 
L 2778 2438 
L 4434 2438 
L 4434 434 
Q 4069 175 3628 42 
Q 3188 -91 2688 -91 
Q 1594 -91 976 548 
Q 359 1188 359 2328 
Q 359 3472 976 4111 
Q 1594 4750 2688 4750 
Q 3144 4750 3555 4637 
Q 3966 4525 4313 4306 
L 4313 3634 
Q 3963 3931 3569 4081 
Q 3175 4231 2741 4231 
Q 1884 4231 1454 3753 
Q 1025 3275 1025 2328 
Q 1025 1384 1454 906 
Q 1884 428 2741 428 
Q 3075 428 3337 486 
Q 3600 544 3809 666 
z
" transform="scale(0.015625)"/>
      </defs>
      <use xlink:href="#DejaVuSans-53"/>
      <use xlink:href="#DejaVuSans-49" x="63.476562"/>
      <use xlink:href="#DejaVuSans-47" x="92.96875"/>
     </g>
    </g>
   </g>
  </g>
  <g id="text_27">
   <!-- MindTree Limited -->
   <g transform="translate(452.768438 21.358125)scale(0.12 -0.12)">
    <defs>
     <path id="DejaVuSans-64" d="M 2906 2969 
L 2906 4863 
L 3481 4863 
L 3481 0 
L 2906 0 
L 2906 525 
Q 2725 213 2448 61 
Q 2172 -91 1784 -91 
Q 1150 -91 751 415 
Q 353 922 353 1747 
Q 353 2572 751 3078 
Q 1150 3584 1784 3584 
Q 2172 3584 2448 3432 
Q 2725 3281 2906 2969 
z
M 947 1747 
Q 947 1113 1208 752 
Q 1469 391 1925 391 
Q 2381 391 2643 752 
Q 2906 1113 2906 1747 
Q 2906 2381 2643 2742 
Q 2381 3103 1925 3103 
Q 1469 3103 1208 2742 
Q 947 2381 947 1747 
z
" transform="scale(0.015625)"/>
     <path id="DejaVuSans-54" d="M -19 4666 
L 3928 4666 
L 3928 4134 
L 2272 4134 
L 2272 0 
L 1638 0 
L 1638 4134 
L -19 4134 
L -19 4666 
z
" transform="scale(0.015625)"/>
     <path id="DejaVuSans-6d" d="M 3328 2828 
Q 3544 3216 3844 3400 
Q 4144 3584 4550 3584 
Q 5097 3584 5394 3201 
Q 5691 2819 5691 2113 
L 5691 0 
L 5113 0 
L 5113 2094 
Q 5113 2597 4934 2840 
Q 4756 3084 4391 3084 
Q 3944 3084 3684 2787 
Q 3425 2491 3425 1978 
L 3425 0 
L 2847 0 
L 2847 2094 
Q 2847 2600 2669 2842 
Q 2491 3084 2119 3084 
Q 1678 3084 1418 2786 
Q 1159 2488 1159 1978 
L 1159 0 
L 581 0 
L 581 3500 
L 1159 3500 
L 1159 2956 
Q 1356 3278 1631 3431 
Q 1906 3584 2284 3584 
Q 2666 3584 2933 3390 
Q 3200 3197 3328 2828 
z
" transform="scale(0.015625)"/>
     <path id="DejaVuSans-74" d="M 1172 4494 
L 1172 3500 
L 2356 3500 
L 2356 3053 
L 1172 3053 
L 1172 1153 
Q 1172 725 1289 603 
Q 1406 481 1766 481 
L 2356 481 
L 2356 0 
L 1766 0 
Q 1100 0 847 248 
Q 594 497 594 1153 
L 594 3053 
L 172 3053 
L 172 3500 
L 594 3500 
L 594 4494 
L 1172 4494 
z
" transform="scale(0.015625)"/>
    </defs>
    <use xlink:href="#DejaVuSans-4d"/>
    <use xlink:href="#DejaVuSans-69" x="86.279297"/>
    <use xlink:href="#DejaVuSans-6e" x="114.0625"/>
    <use xlink:href="#DejaVuSans-64" x="177.441406"/>
    <use xlink:href="#DejaVuSans-54" x="240.917969"/>
    <use xlink:href="#DejaVuSans-72" x="287.251953"/>
    <use xlink:href="#DejaVuSans-65" x="326.115234"/>
    <use xlink:href="#DejaVuSans-65" x="387.638672"/>
    <use xlink:href="#DejaVuSans-20" x="449.162109"/>
    <use xlink:href="#DejaVuSans-4c" x="480.949219"/>
    <use xlink:href="#DejaVuSans-69" x="536.662109"/>
    <use xlink:href="#DejaVuSans-6d" x="564.445312"/>
    <use xlink:href="#DejaVuSans-69" x="661.857422"/>
    <use xlink:href="#DejaVuSans-74" x="689.640625"/>
    <use xlink:href="#DejaVuSans-65" x="728.849609"/>
    <use xlink:href="#DejaVuSans-64" x="790.373047"/>
   </g>
  </g>
 </g>
 <defs>
  <clipPath id="p9ffa07ac28">
   <rect x="45.267188" y="48.331875" width="937.608918" height="253.385938"/>
  </clipPath>
  <clipPath id="p2813f90d8b">
   <rect x="45.267188" y="331.135938" width="937.608918" height="253.385937"/>
  </clipPath>
 </defs>
</svg>
