<?xml version="1.0" encoding="utf-8" standalone="no"?>
<!DOCTYPE svg PUBLIC "-//W3C//DTD SVG 1.1//EN"
  "http://www.w3.org/Graphics/SVG/1.1/DTD/svg11.dtd">
<svg xmlns:xlink="http://www.w3.org/1999/xlink" width="1008pt" height="612pt" viewBox="0 0 1008 612" xmlns="http://www.w3.org/2000/svg" version="1.1">
 <metadata>
  <rdf:RDF xmlns:dc="http://purl.org/dc/elements/1.1/" xmlns:cc="http://creativecommons.org/ns#" xmlns:rdf="http://www.w3.org/1999/02/22-rdf-syntax-ns#">
   <cc:Work>
    <dc:type rdf:resource="http://purl.org/dc/dcmitype/StillImage"/>
    <dc:date>2022-11-20T19:47:22.673526</dc:date>
    <dc:format>image/svg+xml</dc:format>
    <dc:creator>
     <cc:Agent>
      <dc:title>Matplotlib v3.5.2, https://matplotlib.org/</dc:title>
     </cc:Agent>
    </dc:creator>
   </cc:Work>
  </rdf:RDF>
 </metadata>
 <defs>
  <style type="text/css">*{stroke-linejoin: round; stroke-linecap: butt}</style>
 </defs>
 <g id="figure_1">
  <g id="patch_1">
   <path d="M 0 612 
L 1008 612 
L 1008 0 
L 0 0 
z
" style="fill: #ffffff"/>
  </g>
  <g id="axes_1">
   <g id="patch_2">
    <path d="M 48.445313 301.717812 
L 982.876106 301.717812 
L 982.876106 48.331875 
L 48.445313 48.331875 
z
" style="fill: #ffffff"/>
   </g>
   <g id="matplotlib.axis_1">
    <g id="xtick_1">
     <g id="line2d_1">
      <path d="M 85.59353 301.717812 
L 85.59353 48.331875 
" clip-path="url(#p7688d17b5c)" style="fill: none; stroke-dasharray: 2.96,1.28; stroke-dashoffset: 0; stroke: #b0b0b0; stroke-width: 0.8"/>
     </g>
     <g id="line2d_2">
      <defs>
       <path id="mdb8580eb39" d="M 0 0 
L 0 3.5 
" style="stroke: #000000; stroke-width: 0.8"/>
      </defs>
      <g>
       <use xlink:href="#mdb8580eb39" x="85.59353" y="301.717812" style="stroke: #000000; stroke-width: 0.8"/>
      </g>
     </g>
    </g>
    <g id="xtick_2">
     <g id="line2d_3">
      <path d="M 168.145125 301.717812 
L 168.145125 48.331875 
" clip-path="url(#p7688d17b5c)" style="fill: none; stroke-dasharray: 2.96,1.28; stroke-dashoffset: 0; stroke: #b0b0b0; stroke-width: 0.8"/>
     </g>
     <g id="line2d_4">
      <g>
       <use xlink:href="#mdb8580eb39" x="168.145125" y="301.717812" style="stroke: #000000; stroke-width: 0.8"/>
      </g>
     </g>
    </g>
    <g id="xtick_3">
     <g id="line2d_5">
      <path d="M 242.707856 301.717812 
L 242.707856 48.331875 
" clip-path="url(#p7688d17b5c)" style="fill: none; stroke-dasharray: 2.96,1.28; stroke-dashoffset: 0; stroke: #b0b0b0; stroke-width: 0.8"/>
     </g>
     <g id="line2d_6">
      <g>
       <use xlink:href="#mdb8580eb39" x="242.707856" y="301.717812" style="stroke: #000000; stroke-width: 0.8"/>
      </g>
     </g>
    </g>
    <g id="xtick_4">
     <g id="line2d_7">
      <path d="M 325.25945 301.717812 
L 325.25945 48.331875 
" clip-path="url(#p7688d17b5c)" style="fill: none; stroke-dasharray: 2.96,1.28; stroke-dashoffset: 0; stroke: #b0b0b0; stroke-width: 0.8"/>
     </g>
     <g id="line2d_8">
      <g>
       <use xlink:href="#mdb8580eb39" x="325.25945" y="301.717812" style="stroke: #000000; stroke-width: 0.8"/>
      </g>
     </g>
    </g>
    <g id="xtick_5">
     <g id="line2d_9">
      <path d="M 405.14809 301.717812 
L 405.14809 48.331875 
" clip-path="url(#p7688d17b5c)" style="fill: none; stroke-dasharray: 2.96,1.28; stroke-dashoffset: 0; stroke: #b0b0b0; stroke-width: 0.8"/>
     </g>
     <g id="line2d_10">
      <g>
       <use xlink:href="#mdb8580eb39" x="405.14809" y="301.717812" style="stroke: #000000; stroke-width: 0.8"/>
      </g>
     </g>
    </g>
    <g id="xtick_6">
     <g id="line2d_11">
      <path d="M 487.699685 301.717812 
L 487.699685 48.331875 
" clip-path="url(#p7688d17b5c)" style="fill: none; stroke-dasharray: 2.96,1.28; stroke-dashoffset: 0; stroke: #b0b0b0; stroke-width: 0.8"/>
     </g>
     <g id="line2d_12">
      <g>
       <use xlink:href="#mdb8580eb39" x="487.699685" y="301.717812" style="stroke: #000000; stroke-width: 0.8"/>
      </g>
     </g>
    </g>
    <g id="xtick_7">
     <g id="line2d_13">
      <path d="M 567.588325 301.717812 
L 567.588325 48.331875 
" clip-path="url(#p7688d17b5c)" style="fill: none; stroke-dasharray: 2.96,1.28; stroke-dashoffset: 0; stroke: #b0b0b0; stroke-width: 0.8"/>
     </g>
     <g id="line2d_14">
      <g>
       <use xlink:href="#mdb8580eb39" x="567.588325" y="301.717812" style="stroke: #000000; stroke-width: 0.8"/>
      </g>
     </g>
    </g>
    <g id="xtick_8">
     <g id="line2d_15">
      <path d="M 650.13992 301.717812 
L 650.13992 48.331875 
" clip-path="url(#p7688d17b5c)" style="fill: none; stroke-dasharray: 2.96,1.28; stroke-dashoffset: 0; stroke: #b0b0b0; stroke-width: 0.8"/>
     </g>
     <g id="line2d_16">
      <g>
       <use xlink:href="#mdb8580eb39" x="650.13992" y="301.717812" style="stroke: #000000; stroke-width: 0.8"/>
      </g>
     </g>
    </g>
    <g id="xtick_9">
     <g id="line2d_17">
      <path d="M 732.691515 301.717812 
L 732.691515 48.331875 
" clip-path="url(#p7688d17b5c)" style="fill: none; stroke-dasharray: 2.96,1.28; stroke-dashoffset: 0; stroke: #b0b0b0; stroke-width: 0.8"/>
     </g>
     <g id="line2d_18">
      <g>
       <use xlink:href="#mdb8580eb39" x="732.691515" y="301.717812" style="stroke: #000000; stroke-width: 0.8"/>
      </g>
     </g>
    </g>
    <g id="xtick_10">
     <g id="line2d_19">
      <path d="M 812.580155 301.717812 
L 812.580155 48.331875 
" clip-path="url(#p7688d17b5c)" style="fill: none; stroke-dasharray: 2.96,1.28; stroke-dashoffset: 0; stroke: #b0b0b0; stroke-width: 0.8"/>
     </g>
     <g id="line2d_20">
      <g>
       <use xlink:href="#mdb8580eb39" x="812.580155" y="301.717812" style="stroke: #000000; stroke-width: 0.8"/>
      </g>
     </g>
    </g>
    <g id="xtick_11">
     <g id="line2d_21">
      <path d="M 895.13175 301.717812 
L 895.13175 48.331875 
" clip-path="url(#p7688d17b5c)" style="fill: none; stroke-dasharray: 2.96,1.28; stroke-dashoffset: 0; stroke: #b0b0b0; stroke-width: 0.8"/>
     </g>
     <g id="line2d_22">
      <g>
       <use xlink:href="#mdb8580eb39" x="895.13175" y="301.717812" style="stroke: #000000; stroke-width: 0.8"/>
      </g>
     </g>
    </g>
    <g id="xtick_12">
     <g id="line2d_23">
      <path d="M 975.02039 301.717812 
L 975.02039 48.331875 
" clip-path="url(#p7688d17b5c)" style="fill: none; stroke-dasharray: 2.96,1.28; stroke-dashoffset: 0; stroke: #b0b0b0; stroke-width: 0.8"/>
     </g>
     <g id="line2d_24">
      <g>
       <use xlink:href="#mdb8580eb39" x="975.02039" y="301.717812" style="stroke: #000000; stroke-width: 0.8"/>
      </g>
     </g>
    </g>
   </g>
   <g id="matplotlib.axis_2">
    <g id="ytick_1">
     <g id="line2d_25">
      <path d="M 48.445313 249.104813 
L 982.876106 249.104813 
" clip-path="url(#p7688d17b5c)" style="fill: none; stroke-dasharray: 2.96,1.28; stroke-dashoffset: 0; stroke: #b0b0b0; stroke-width: 0.8"/>
     </g>
     <g id="line2d_26">
      <defs>
       <path id="mc7648b519f" d="M 0 0 
L -3.5 0 
" style="stroke: #000000; stroke-width: 0.8"/>
      </defs>
      <g>
       <use xlink:href="#mc7648b519f" x="48.445313" y="249.104813" style="stroke: #000000; stroke-width: 0.8"/>
      </g>
     </g>
     <g id="text_1">
      <!-- 100 -->
      <g transform="translate(22.357813 252.904031)scale(0.1 -0.1)">
       <defs>
        <path id="DejaVuSans-31" d="M 794 531 
L 1825 531 
L 1825 4091 
L 703 3866 
L 703 4441 
L 1819 4666 
L 2450 4666 
L 2450 531 
L 3481 531 
L 3481 0 
L 794 0 
L 794 531 
z
" transform="scale(0.015625)"/>
        <path id="DejaVuSans-30" d="M 2034 4250 
Q 1547 4250 1301 3770 
Q 1056 3291 1056 2328 
Q 1056 1369 1301 889 
Q 1547 409 2034 409 
Q 2525 409 2770 889 
Q 3016 1369 3016 2328 
Q 3016 3291 2770 3770 
Q 2525 4250 2034 4250 
z
M 2034 4750 
Q 2819 4750 3233 4129 
Q 3647 3509 3647 2328 
Q 3647 1150 3233 529 
Q 2819 -91 2034 -91 
Q 1250 -91 836 529 
Q 422 1150 422 2328 
Q 422 3509 836 4129 
Q 1250 4750 2034 4750 
z
" transform="scale(0.015625)"/>
       </defs>
       <use xlink:href="#DejaVuSans-31"/>
       <use xlink:href="#DejaVuSans-30" x="63.623047"/>
       <use xlink:href="#DejaVuSans-30" x="127.246094"/>
      </g>
     </g>
    </g>
    <g id="ytick_2">
     <g id="line2d_27">
      <path d="M 48.445313 195.031843 
L 982.876106 195.031843 
" clip-path="url(#p7688d17b5c)" style="fill: none; stroke-dasharray: 2.96,1.28; stroke-dashoffset: 0; stroke: #b0b0b0; stroke-width: 0.8"/>
     </g>
     <g id="line2d_28">
      <g>
       <use xlink:href="#mc7648b519f" x="48.445313" y="195.031843" style="stroke: #000000; stroke-width: 0.8"/>
      </g>
     </g>
     <g id="text_2">
      <!-- 120 -->
      <g transform="translate(22.357813 198.831061)scale(0.1 -0.1)">
       <defs>
        <path id="DejaVuSans-32" d="M 1228 531 
L 3431 531 
L 3431 0 
L 469 0 
L 469 531 
Q 828 903 1448 1529 
Q 2069 2156 2228 2338 
Q 2531 2678 2651 2914 
Q 2772 3150 2772 3378 
Q 2772 3750 2511 3984 
Q 2250 4219 1831 4219 
Q 1534 4219 1204 4116 
Q 875 4013 500 3803 
L 500 4441 
Q 881 4594 1212 4672 
Q 1544 4750 1819 4750 
Q 2544 4750 2975 4387 
Q 3406 4025 3406 3419 
Q 3406 3131 3298 2873 
Q 3191 2616 2906 2266 
Q 2828 2175 2409 1742 
Q 1991 1309 1228 531 
z
" transform="scale(0.015625)"/>
       </defs>
       <use xlink:href="#DejaVuSans-31"/>
       <use xlink:href="#DejaVuSans-32" x="63.623047"/>
       <use xlink:href="#DejaVuSans-30" x="127.246094"/>
      </g>
     </g>
    </g>
    <g id="ytick_3">
     <g id="line2d_29">
      <path d="M 48.445313 140.958873 
L 982.876106 140.958873 
" clip-path="url(#p7688d17b5c)" style="fill: none; stroke-dasharray: 2.96,1.28; stroke-dashoffset: 0; stroke: #b0b0b0; stroke-width: 0.8"/>
     </g>
     <g id="line2d_30">
      <g>
       <use xlink:href="#mc7648b519f" x="48.445313" y="140.958873" style="stroke: #000000; stroke-width: 0.8"/>
      </g>
     </g>
     <g id="text_3">
      <!-- 140 -->
      <g transform="translate(22.357813 144.758091)scale(0.1 -0.1)">
       <defs>
        <path id="DejaVuSans-34" d="M 2419 4116 
L 825 1625 
L 2419 1625 
L 2419 4116 
z
M 2253 4666 
L 3047 4666 
L 3047 1625 
L 3713 1625 
L 3713 1100 
L 3047 1100 
L 3047 0 
L 2419 0 
L 2419 1100 
L 313 1100 
L 313 1709 
L 2253 4666 
z
" transform="scale(0.015625)"/>
       </defs>
       <use xlink:href="#DejaVuSans-31"/>
       <use xlink:href="#DejaVuSans-34" x="63.623047"/>
       <use xlink:href="#DejaVuSans-30" x="127.246094"/>
      </g>
     </g>
    </g>
    <g id="ytick_4">
     <g id="line2d_31">
      <path d="M 48.445313 86.885903 
L 982.876106 86.885903 
" clip-path="url(#p7688d17b5c)" style="fill: none; stroke-dasharray: 2.96,1.28; stroke-dashoffset: 0; stroke: #b0b0b0; stroke-width: 0.8"/>
     </g>
     <g id="line2d_32">
      <g>
       <use xlink:href="#mc7648b519f" x="48.445313" y="86.885903" style="stroke: #000000; stroke-width: 0.8"/>
      </g>
     </g>
     <g id="text_4">
      <!-- 160 -->
      <g transform="translate(22.357813 90.685121)scale(0.1 -0.1)">
       <defs>
        <path id="DejaVuSans-36" d="M 2113 2584 
Q 1688 2584 1439 2293 
Q 1191 2003 1191 1497 
Q 1191 994 1439 701 
Q 1688 409 2113 409 
Q 2538 409 2786 701 
Q 3034 994 3034 1497 
Q 3034 2003 2786 2293 
Q 2538 2584 2113 2584 
z
M 3366 4563 
L 3366 3988 
Q 3128 4100 2886 4159 
Q 2644 4219 2406 4219 
Q 1781 4219 1451 3797 
Q 1122 3375 1075 2522 
Q 1259 2794 1537 2939 
Q 1816 3084 2150 3084 
Q 2853 3084 3261 2657 
Q 3669 2231 3669 1497 
Q 3669 778 3244 343 
Q 2819 -91 2113 -91 
Q 1303 -91 875 529 
Q 447 1150 447 2328 
Q 447 3434 972 4092 
Q 1497 4750 2381 4750 
Q 2619 4750 2861 4703 
Q 3103 4656 3366 4563 
z
" transform="scale(0.015625)"/>
       </defs>
       <use xlink:href="#DejaVuSans-31"/>
       <use xlink:href="#DejaVuSans-36" x="63.623047"/>
       <use xlink:href="#DejaVuSans-30" x="127.246094"/>
      </g>
     </g>
    </g>
   </g>
   <g id="line2d_33">
    <path d="M 90.919439 164.075067 
L 93.582394 160.425142 
L 96.245349 151.638284 
L 98.908303 144.068068 
L 101.571258 142.175514 
L 109.560122 133.794204 
L 112.223077 136.092305 
L 114.886031 131.225738 
L 117.548986 127.575813 
L 120.211941 129.333184 
L 128.200805 128.251725 
L 130.86376 133.118292 
L 133.526714 119.464867 
L 136.189669 121.087056 
L 138.852624 131.766468 
L 146.841488 138.660771 
L 149.504442 130.820191 
L 154.830352 137.44413 
L 157.493306 136.092305 
L 165.48217 129.333184 
L 168.145125 120.681509 
L 170.80808 125.548076 
L 173.471034 120.951874 
L 176.133989 123.249975 
L 184.122853 118.653773 
L 186.785808 129.333184 
L 192.111717 136.633035 
L 194.774672 139.201501 
L 202.763536 147.582811 
L 205.42649 142.986609 
L 208.089445 142.716244 
L 210.7524 141.499602 
L 213.415354 138.660771 
L 221.404218 150.962372 
L 224.067173 155.693757 
L 226.730128 145.690258 
L 229.393082 168.67127 
L 232.056037 155.017845 
L 240.044901 127.846177 
L 245.37081 107.028084 
L 248.033765 89.589551 
L 250.69672 99.187503 
L 258.685584 82.424883 
L 261.348538 93.915389 
L 264.011493 101.755969 
L 266.674448 120.681509 
L 269.337402 107.433631 
L 277.326266 107.568814 
L 279.989221 118.113043 
L 282.652176 107.433631 
L 285.31513 110.407645 
L 295.966949 129.333184 
L 298.629904 131.631285 
L 301.292858 131.225738 
L 303.955813 121.762968 
L 306.618768 120.275962 
L 314.607632 108.244726 
L 317.270586 106.757719 
L 319.933541 104.5948 
L 322.596496 98.646774 
L 325.25945 81.343423 
L 333.248314 82.2897 
L 335.911269 84.858166 
L 338.574224 80.532329 
L 341.237178 84.993349 
L 343.900133 81.073058 
L 351.888997 74.44912 
L 354.551952 68.771458 
L 357.214906 63.499343 
L 370.52968 65.391897 
L 373.192634 59.849418 
L 375.855589 71.745471 
L 378.518544 76.071309 
L 381.181498 75.530579 
L 389.170362 92.698747 
L 391.833317 94.861666 
L 394.496272 98.646774 
L 397.159226 92.833929 
L 399.822181 89.184004 
L 407.811045 93.509841 
L 413.136954 93.509841 
L 415.799909 83.235977 
L 418.462864 86.345173 
L 426.451728 97.430132 
L 429.114682 116.896401 
L 431.777637 112.165016 
L 434.440592 113.111293 
L 437.103546 119.870414 
L 445.09241 112.029834 
L 447.755365 102.567064 
L 450.41832 104.054071 
L 453.081274 103.783706 
L 455.744229 96.889402 
L 463.733093 105.270712 
L 466.396048 108.515091 
L 469.059002 108.244726 
L 471.721957 110.678009 
L 474.384912 133.388657 
L 482.373776 130.820191 
L 485.03673 121.492603 
L 487.699685 116.626036 
L 490.36264 116.220489 
L 493.025594 120.411144 
L 501.014459 118.924137 
L 503.677413 111.218739 
L 506.340368 107.298449 
L 509.003323 109.731732 
L 511.666277 116.355671 
L 519.655141 123.925887 
L 522.318096 122.168516 
L 524.981051 120.546326 
L 527.644005 139.607048 
L 530.30696 143.797704 
L 538.295824 164.886162 
L 540.958779 150.82719 
L 543.621733 158.262223 
L 546.284688 163.399155 
L 556.936507 155.423392 
L 562.262416 142.986609 
L 564.925371 153.936385 
L 567.588325 161.641784 
L 575.577189 158.397405 
L 578.240144 157.721493 
L 580.903099 158.397405 
L 583.566053 149.610548 
L 594.217872 144.743981 
L 596.880827 143.662521 
L 599.543781 147.717994 
L 602.206736 142.851427 
L 604.869691 139.742231 
L 612.858555 129.873914 
L 615.521509 140.282961 
L 618.184464 136.768217 
L 620.847419 130.414643 
L 623.510373 136.633035 
L 631.499237 122.033333 
L 634.162192 130.279461 
L 636.825147 122.709245 
L 639.488101 124.872164 
L 642.151056 123.114793 
L 650.13992 121.222239 
L 652.802875 136.9034 
L 658.128784 140.688508 
L 660.791739 160.154777 
L 668.780603 158.938135 
L 674.106512 165.832439 
L 676.769467 171.645283 
L 679.432421 163.939885 
L 690.08424 154.20675 
L 692.747195 154.612298 
L 695.410149 152.854926 
L 698.073104 159.478865 
L 706.061968 169.752729 
L 708.724923 161.776966 
L 711.387877 162.317696 
L 714.050832 160.830689 
L 716.713787 155.693757 
L 724.702651 157.315946 
L 727.365605 151.503102 
L 732.691515 150.82719 
L 735.354469 153.666021 
L 743.343333 149.74573 
L 746.006288 267.89517 
L 751.332197 269.246994 
L 753.995152 269.652541 
L 761.984016 268.706264 
L 764.646971 269.922906 
L 767.309925 271.545095 
L 769.97288 272.896919 
L 772.635835 271.004366 
L 780.624699 276.141298 
L 783.287653 273.708014 
L 785.950608 278.844946 
L 788.613563 280.872683 
L 791.276517 286.955892 
L 799.265381 290.065087 
L 801.928336 286.27998 
L 804.591291 287.766986 
L 807.254245 287.226257 
L 809.9172 284.117061 
L 817.906064 289.253993 
L 820.569019 283.576331 
L 825.894928 282.765237 
L 828.557883 284.65779 
L 836.546747 278.304216 
L 839.209701 286.415162 
L 841.872656 286.009615 
L 844.535611 288.442898 
L 847.198565 289.389175 
L 857.850384 289.65954 
L 860.513339 290.20027 
L 863.176293 283.035601 
L 865.839248 285.73925 
L 873.828112 284.792973 
L 876.491067 285.468885 
L 881.816976 281.413412 
L 884.479931 276.006115 
L 892.468795 272.626555 
L 895.13175 272.35619 
L 897.794704 272.626555 
L 900.457659 274.654291 
L 903.120614 280.061588 
L 911.109478 274.654291 
L 916.435387 279.926406 
L 919.098342 281.007865 
L 921.761296 279.250493 
L 929.75016 281.27823 
L 932.413115 276.411663 
L 935.07607 274.789473 
L 937.739024 275.73575 
L 940.401979 275.330203 
L 940.401979 275.330203 
" clip-path="url(#p7688d17b5c)" style="fill: none; stroke: #1f77b4; stroke-width: 1.5; stroke-linecap: square"/>
   </g>
   <g id="line2d_34">
    <path d="M 101.571258 152.476415 
L 109.560122 146.420243 
L 112.223077 141.553675 
L 114.886031 137.471166 
L 117.548986 134.172715 
L 120.211941 131.604249 
L 128.200805 130.495753 
L 130.86376 129.90095 
L 133.526714 127.548776 
L 136.189669 126.251025 
L 138.852624 126.737682 
L 146.841488 128.819491 
L 149.504442 128.359871 
L 154.830352 131.955723 
L 157.493306 134.956773 
L 165.48217 134.470116 
L 168.145125 130.874264 
L 170.80808 129.819841 
L 173.471034 126.52139 
L 176.133989 123.952924 
L 184.122853 121.817041 
L 186.785808 123.547376 
L 189.448762 125.034383 
L 194.774672 131.36092 
L 202.763536 137.146728 
L 205.42649 139.877413 
L 208.089445 141.82404 
L 210.7524 142.797354 
L 213.415354 142.689208 
L 221.404218 143.36512 
L 224.067173 145.906549 
L 226.730128 146.501352 
L 229.393082 151.935686 
L 232.056037 155.2071 
L 240.044901 150.583861 
L 245.37081 140.850727 
L 248.033765 129.630585 
L 250.69672 115.733832 
L 258.685584 101.21524 
L 261.348538 94.429082 
L 264.011493 93.374659 
L 266.674448 99.593051 
L 277.326266 106.271062 
L 279.989221 111.110593 
L 282.652176 112.246126 
L 285.31513 110.191353 
L 295.966949 114.571263 
L 298.629904 119.383758 
L 301.292858 122.006297 
L 303.955813 124.872164 
L 306.618768 126.845827 
L 314.607632 122.628136 
L 317.270586 117.653423 
L 319.933541 112.327235 
L 322.596496 107.703996 
L 325.25945 99.917488 
L 333.248314 94.726483 
L 335.911269 90.346573 
L 338.574224 85.534078 
L 341.237178 82.803393 
L 343.900133 82.74932 
L 351.888997 81.181204 
L 354.551952 77.963863 
L 357.214906 74.557265 
L 370.52968 70.636975 
L 373.192634 66.392247 
L 375.855589 65.851517 
L 378.518544 67.311487 
L 381.181498 69.717735 
L 389.170362 75.179105 
L 391.833317 82.181554 
L 394.496272 87.561815 
L 397.159226 90.914339 
L 399.822181 93.645024 
L 407.811045 93.807243 
L 413.136954 93.536878 
L 415.799909 90.454719 
L 418.462864 89.156967 
L 426.451728 90.806193 
L 429.114682 95.483505 
L 431.777637 99.21454 
L 434.440592 105.189603 
L 437.103546 111.894651 
L 445.09241 114.814592 
L 447.755365 111.948724 
L 450.41832 110.326535 
L 453.081274 108.461018 
L 455.744229 103.864815 
L 463.733093 102.512991 
L 466.396048 103.702596 
L 469.059002 104.540727 
L 471.721957 105.919588 
L 474.384912 113.219439 
L 482.373776 118.329335 
L 485.03673 120.924837 
L 487.699685 122.601099 
L 490.36264 123.709595 
L 493.025594 121.114093 
L 501.014459 118.734882 
L 503.677413 116.680109 
L 506.340368 114.814592 
L 509.003323 113.51684 
L 511.666277 112.705746 
L 519.655141 113.706096 
L 522.318096 115.896051 
L 524.981051 118.545627 
L 527.644005 124.52069 
L 530.30696 130.009096 
L 538.295824 138.201151 
L 540.958779 143.932886 
L 543.621733 151.476065 
L 546.284688 156.234487 
L 548.947643 159.74923 
L 556.936507 157.856676 
L 559.599461 157.559274 
L 562.262416 154.504152 
L 564.925371 152.611598 
L 567.588325 152.665671 
L 575.577189 153.260473 
L 578.240144 154.936735 
L 580.903099 158.018895 
L 583.566053 157.153727 
L 586.229008 154.504152 
L 594.217872 151.773467 
L 596.880827 148.961672 
L 599.543781 146.82579 
L 602.206736 145.473966 
L 604.869691 143.743631 
L 612.858555 140.769617 
L 615.521509 140.093705 
L 618.184464 137.90375 
L 620.847419 135.416393 
L 623.510373 134.794554 
L 631.499237 133.226438 
L 634.162192 131.225738 
L 636.825147 128.413944 
L 639.488101 127.305448 
L 642.151056 124.601799 
L 650.13992 124.43958 
L 652.802875 125.764368 
L 658.128784 132.144979 
L 660.791739 139.552975 
L 668.780603 147.096155 
L 674.106512 152.881963 
L 676.769467 159.451828 
L 679.432421 164.102104 
L 690.08424 162.912498 
L 692.747195 162.047331 
L 695.410149 159.451828 
L 698.073104 157.018545 
L 706.061968 158.181114 
L 714.050832 162.831389 
L 716.713787 162.074367 
L 724.702651 159.587011 
L 727.365605 157.532238 
L 732.691515 155.234137 
L 735.354469 153.801203 
L 743.343333 152.611598 
L 746.006288 174.727442 
L 753.995152 245.022303 
L 761.984016 268.81441 
L 764.646971 269.219958 
L 767.309925 269.81476 
L 769.97288 270.544745 
L 772.635835 270.81511 
L 780.624699 272.302117 
L 783.287653 273.059138 
L 785.950608 274.519109 
L 788.613563 276.114261 
L 791.276517 279.304566 
L 799.265381 282.089324 
L 801.928336 284.603717 
L 804.591291 286.388126 
L 807.254245 287.65884 
L 809.9172 287.091074 
L 817.906064 286.928855 
L 828.557883 284.874082 
L 836.546747 283.711513 
L 839.209701 283.143747 
L 841.872656 283.630404 
L 844.535611 284.765936 
L 847.198565 285.712213 
L 860.513339 289.443248 
L 863.176293 288.361789 
L 865.839248 287.631804 
L 873.828112 286.685527 
L 881.816976 284.090024 
L 884.479931 282.684127 
L 892.468795 280.061588 
L 897.794704 275.005765 
L 900.457659 273.653941 
L 903.120614 274.465036 
L 911.109478 274.870583 
L 916.435387 276.384626 
L 919.098342 278.060888 
L 921.761296 278.980129 
L 929.75016 279.223457 
L 932.413115 279.574931 
L 937.739024 277.493122 
L 940.401979 276.709064 
L 940.401979 276.709064 
" clip-path="url(#p7688d17b5c)" style="fill: none; stroke: #ff7f0e; stroke-width: 1.5; stroke-linecap: square"/>
   </g>
   <g id="patch_3">
    <path d="M 48.445313 301.717813 
L 48.445313 48.331875 
" style="fill: none; stroke: #000000; stroke-width: 0.8; stroke-linejoin: miter; stroke-linecap: square"/>
   </g>
   <g id="patch_4">
    <path d="M 982.876106 301.717813 
L 982.876106 48.331875 
" style="fill: none; stroke: #000000; stroke-width: 0.8; stroke-linejoin: miter; stroke-linecap: square"/>
   </g>
   <g id="patch_5">
    <path d="M 48.445312 301.717812 
L 982.876106 301.717812 
" style="fill: none; stroke: #000000; stroke-width: 0.8; stroke-linejoin: miter; stroke-linecap: square"/>
   </g>
   <g id="patch_6">
    <path d="M 48.445312 48.331875 
L 982.876106 48.331875 
" style="fill: none; stroke: #000000; stroke-width: 0.8; stroke-linejoin: miter; stroke-linecap: square"/>
   </g>
   <g id="text_5">
    <!-- Closing Price -->
    <g transform="translate(477.184772 42.331875)scale(0.12 -0.12)">
     <defs>
      <path id="DejaVuSans-43" d="M 4122 4306 
L 4122 3641 
Q 3803 3938 3442 4084 
Q 3081 4231 2675 4231 
Q 1875 4231 1450 3742 
Q 1025 3253 1025 2328 
Q 1025 1406 1450 917 
Q 1875 428 2675 428 
Q 3081 428 3442 575 
Q 3803 722 4122 1019 
L 4122 359 
Q 3791 134 3420 21 
Q 3050 -91 2638 -91 
Q 1578 -91 968 557 
Q 359 1206 359 2328 
Q 359 3453 968 4101 
Q 1578 4750 2638 4750 
Q 3056 4750 3426 4639 
Q 3797 4528 4122 4306 
z
" transform="scale(0.015625)"/>
      <path id="DejaVuSans-6c" d="M 603 4863 
L 1178 4863 
L 1178 0 
L 603 0 
L 603 4863 
z
" transform="scale(0.015625)"/>
      <path id="DejaVuSans-6f" d="M 1959 3097 
Q 1497 3097 1228 2736 
Q 959 2375 959 1747 
Q 959 1119 1226 758 
Q 1494 397 1959 397 
Q 2419 397 2687 759 
Q 2956 1122 2956 1747 
Q 2956 2369 2687 2733 
Q 2419 3097 1959 3097 
z
M 1959 3584 
Q 2709 3584 3137 3096 
Q 3566 2609 3566 1747 
Q 3566 888 3137 398 
Q 2709 -91 1959 -91 
Q 1206 -91 779 398 
Q 353 888 353 1747 
Q 353 2609 779 3096 
Q 1206 3584 1959 3584 
z
" transform="scale(0.015625)"/>
      <path id="DejaVuSans-73" d="M 2834 3397 
L 2834 2853 
Q 2591 2978 2328 3040 
Q 2066 3103 1784 3103 
Q 1356 3103 1142 2972 
Q 928 2841 928 2578 
Q 928 2378 1081 2264 
Q 1234 2150 1697 2047 
L 1894 2003 
Q 2506 1872 2764 1633 
Q 3022 1394 3022 966 
Q 3022 478 2636 193 
Q 2250 -91 1575 -91 
Q 1294 -91 989 -36 
Q 684 19 347 128 
L 347 722 
Q 666 556 975 473 
Q 1284 391 1588 391 
Q 1994 391 2212 530 
Q 2431 669 2431 922 
Q 2431 1156 2273 1281 
Q 2116 1406 1581 1522 
L 1381 1569 
Q 847 1681 609 1914 
Q 372 2147 372 2553 
Q 372 3047 722 3315 
Q 1072 3584 1716 3584 
Q 2034 3584 2315 3537 
Q 2597 3491 2834 3397 
z
" transform="scale(0.015625)"/>
      <path id="DejaVuSans-69" d="M 603 3500 
L 1178 3500 
L 1178 0 
L 603 0 
L 603 3500 
z
M 603 4863 
L 1178 4863 
L 1178 4134 
L 603 4134 
L 603 4863 
z
" transform="scale(0.015625)"/>
      <path id="DejaVuSans-6e" d="M 3513 2113 
L 3513 0 
L 2938 0 
L 2938 2094 
Q 2938 2591 2744 2837 
Q 2550 3084 2163 3084 
Q 1697 3084 1428 2787 
Q 1159 2491 1159 1978 
L 1159 0 
L 581 0 
L 581 3500 
L 1159 3500 
L 1159 2956 
Q 1366 3272 1645 3428 
Q 1925 3584 2291 3584 
Q 2894 3584 3203 3211 
Q 3513 2838 3513 2113 
z
" transform="scale(0.015625)"/>
      <path id="DejaVuSans-67" d="M 2906 1791 
Q 2906 2416 2648 2759 
Q 2391 3103 1925 3103 
Q 1463 3103 1205 2759 
Q 947 2416 947 1791 
Q 947 1169 1205 825 
Q 1463 481 1925 481 
Q 2391 481 2648 825 
Q 2906 1169 2906 1791 
z
M 3481 434 
Q 3481 -459 3084 -895 
Q 2688 -1331 1869 -1331 
Q 1566 -1331 1297 -1286 
Q 1028 -1241 775 -1147 
L 775 -588 
Q 1028 -725 1275 -790 
Q 1522 -856 1778 -856 
Q 2344 -856 2625 -561 
Q 2906 -266 2906 331 
L 2906 616 
Q 2728 306 2450 153 
Q 2172 0 1784 0 
Q 1141 0 747 490 
Q 353 981 353 1791 
Q 353 2603 747 3093 
Q 1141 3584 1784 3584 
Q 2172 3584 2450 3431 
Q 2728 3278 2906 2969 
L 2906 3500 
L 3481 3500 
L 3481 434 
z
" transform="scale(0.015625)"/>
      <path id="DejaVuSans-20" transform="scale(0.015625)"/>
      <path id="DejaVuSans-50" d="M 1259 4147 
L 1259 2394 
L 2053 2394 
Q 2494 2394 2734 2622 
Q 2975 2850 2975 3272 
Q 2975 3691 2734 3919 
Q 2494 4147 2053 4147 
L 1259 4147 
z
M 628 4666 
L 2053 4666 
Q 2838 4666 3239 4311 
Q 3641 3956 3641 3272 
Q 3641 2581 3239 2228 
Q 2838 1875 2053 1875 
L 1259 1875 
L 1259 0 
L 628 0 
L 628 4666 
z
" transform="scale(0.015625)"/>
      <path id="DejaVuSans-72" d="M 2631 2963 
Q 2534 3019 2420 3045 
Q 2306 3072 2169 3072 
Q 1681 3072 1420 2755 
Q 1159 2438 1159 1844 
L 1159 0 
L 581 0 
L 581 3500 
L 1159 3500 
L 1159 2956 
Q 1341 3275 1631 3429 
Q 1922 3584 2338 3584 
Q 2397 3584 2469 3576 
Q 2541 3569 2628 3553 
L 2631 2963 
z
" transform="scale(0.015625)"/>
      <path id="DejaVuSans-63" d="M 3122 3366 
L 3122 2828 
Q 2878 2963 2633 3030 
Q 2388 3097 2138 3097 
Q 1578 3097 1268 2742 
Q 959 2388 959 1747 
Q 959 1106 1268 751 
Q 1578 397 2138 397 
Q 2388 397 2633 464 
Q 2878 531 3122 666 
L 3122 134 
Q 2881 22 2623 -34 
Q 2366 -91 2075 -91 
Q 1284 -91 818 406 
Q 353 903 353 1747 
Q 353 2603 823 3093 
Q 1294 3584 2113 3584 
Q 2378 3584 2631 3529 
Q 2884 3475 3122 3366 
z
" transform="scale(0.015625)"/>
      <path id="DejaVuSans-65" d="M 3597 1894 
L 3597 1613 
L 953 1613 
Q 991 1019 1311 708 
Q 1631 397 2203 397 
Q 2534 397 2845 478 
Q 3156 559 3463 722 
L 3463 178 
Q 3153 47 2828 -22 
Q 2503 -91 2169 -91 
Q 1331 -91 842 396 
Q 353 884 353 1716 
Q 353 2575 817 3079 
Q 1281 3584 2069 3584 
Q 2775 3584 3186 3129 
Q 3597 2675 3597 1894 
z
M 3022 2063 
Q 3016 2534 2758 2815 
Q 2500 3097 2075 3097 
Q 1594 3097 1305 2825 
Q 1016 2553 972 2059 
L 3022 2063 
z
" transform="scale(0.015625)"/>
     </defs>
     <use xlink:href="#DejaVuSans-43"/>
     <use xlink:href="#DejaVuSans-6c" x="69.824219"/>
     <use xlink:href="#DejaVuSans-6f" x="97.607422"/>
     <use xlink:href="#DejaVuSans-73" x="158.789062"/>
     <use xlink:href="#DejaVuSans-69" x="210.888672"/>
     <use xlink:href="#DejaVuSans-6e" x="238.671875"/>
     <use xlink:href="#DejaVuSans-67" x="302.050781"/>
     <use xlink:href="#DejaVuSans-20" x="365.527344"/>
     <use xlink:href="#DejaVuSans-50" x="397.314453"/>
     <use xlink:href="#DejaVuSans-72" x="455.867188"/>
     <use xlink:href="#DejaVuSans-69" x="496.980469"/>
     <use xlink:href="#DejaVuSans-63" x="524.763672"/>
     <use xlink:href="#DejaVuSans-65" x="579.744141"/>
    </g>
   </g>
   <g id="legend_1">
    <g id="patch_7">
     <path d="M 911.144856 85.688125 
L 975.876106 85.688125 
Q 977.876106 85.688125 977.876106 83.688125 
L 977.876106 55.331875 
Q 977.876106 53.331875 975.876106 53.331875 
L 911.144856 53.331875 
Q 909.144856 53.331875 909.144856 55.331875 
L 909.144856 83.688125 
Q 909.144856 85.688125 911.144856 85.688125 
z
" style="fill: #ffffff; opacity: 0.8; stroke: #cccccc; stroke-linejoin: miter"/>
    </g>
    <g id="line2d_35">
     <path d="M 913.144856 61.430312 
L 923.144856 61.430312 
L 933.144856 61.430312 
" style="fill: none; stroke: #1f77b4; stroke-width: 1.5; stroke-linecap: square"/>
    </g>
    <g id="text_6">
     <!-- CLOSE -->
     <g transform="translate(941.144856 64.930312)scale(0.1 -0.1)">
      <defs>
       <path id="DejaVuSans-4c" d="M 628 4666 
L 1259 4666 
L 1259 531 
L 3531 531 
L 3531 0 
L 628 0 
L 628 4666 
z
" transform="scale(0.015625)"/>
       <path id="DejaVuSans-4f" d="M 2522 4238 
Q 1834 4238 1429 3725 
Q 1025 3213 1025 2328 
Q 1025 1447 1429 934 
Q 1834 422 2522 422 
Q 3209 422 3611 934 
Q 4013 1447 4013 2328 
Q 4013 3213 3611 3725 
Q 3209 4238 2522 4238 
z
M 2522 4750 
Q 3503 4750 4090 4092 
Q 4678 3434 4678 2328 
Q 4678 1225 4090 567 
Q 3503 -91 2522 -91 
Q 1538 -91 948 565 
Q 359 1222 359 2328 
Q 359 3434 948 4092 
Q 1538 4750 2522 4750 
z
" transform="scale(0.015625)"/>
       <path id="DejaVuSans-53" d="M 3425 4513 
L 3425 3897 
Q 3066 4069 2747 4153 
Q 2428 4238 2131 4238 
Q 1616 4238 1336 4038 
Q 1056 3838 1056 3469 
Q 1056 3159 1242 3001 
Q 1428 2844 1947 2747 
L 2328 2669 
Q 3034 2534 3370 2195 
Q 3706 1856 3706 1288 
Q 3706 609 3251 259 
Q 2797 -91 1919 -91 
Q 1588 -91 1214 -16 
Q 841 59 441 206 
L 441 856 
Q 825 641 1194 531 
Q 1563 422 1919 422 
Q 2459 422 2753 634 
Q 3047 847 3047 1241 
Q 3047 1584 2836 1778 
Q 2625 1972 2144 2069 
L 1759 2144 
Q 1053 2284 737 2584 
Q 422 2884 422 3419 
Q 422 4038 858 4394 
Q 1294 4750 2059 4750 
Q 2388 4750 2728 4690 
Q 3069 4631 3425 4513 
z
" transform="scale(0.015625)"/>
       <path id="DejaVuSans-45" d="M 628 4666 
L 3578 4666 
L 3578 4134 
L 1259 4134 
L 1259 2753 
L 3481 2753 
L 3481 2222 
L 1259 2222 
L 1259 531 
L 3634 531 
L 3634 0 
L 628 0 
L 628 4666 
z
" transform="scale(0.015625)"/>
      </defs>
      <use xlink:href="#DejaVuSans-43"/>
      <use xlink:href="#DejaVuSans-4c" x="69.824219"/>
      <use xlink:href="#DejaVuSans-4f" x="121.912109"/>
      <use xlink:href="#DejaVuSans-53" x="200.623047"/>
      <use xlink:href="#DejaVuSans-45" x="264.099609"/>
     </g>
    </g>
    <g id="line2d_36">
     <path d="M 913.144856 76.108437 
L 923.144856 76.108437 
L 933.144856 76.108437 
" style="fill: none; stroke: #ff7f0e; stroke-width: 1.5; stroke-linecap: square"/>
    </g>
    <g id="text_7">
     <!-- SMA5 -->
     <g transform="translate(941.144856 79.608437)scale(0.1 -0.1)">
      <defs>
       <path id="DejaVuSans-4d" d="M 628 4666 
L 1569 4666 
L 2759 1491 
L 3956 4666 
L 4897 4666 
L 4897 0 
L 4281 0 
L 4281 4097 
L 3078 897 
L 2444 897 
L 1241 4097 
L 1241 0 
L 628 0 
L 628 4666 
z
" transform="scale(0.015625)"/>
       <path id="DejaVuSans-41" d="M 2188 4044 
L 1331 1722 
L 3047 1722 
L 2188 4044 
z
M 1831 4666 
L 2547 4666 
L 4325 0 
L 3669 0 
L 3244 1197 
L 1141 1197 
L 716 0 
L 50 0 
L 1831 4666 
z
" transform="scale(0.015625)"/>
       <path id="DejaVuSans-35" d="M 691 4666 
L 3169 4666 
L 3169 4134 
L 1269 4134 
L 1269 2991 
Q 1406 3038 1543 3061 
Q 1681 3084 1819 3084 
Q 2600 3084 3056 2656 
Q 3513 2228 3513 1497 
Q 3513 744 3044 326 
Q 2575 -91 1722 -91 
Q 1428 -91 1123 -41 
Q 819 9 494 109 
L 494 744 
Q 775 591 1075 516 
Q 1375 441 1709 441 
Q 2250 441 2565 725 
Q 2881 1009 2881 1497 
Q 2881 1984 2565 2268 
Q 2250 2553 1709 2553 
Q 1456 2553 1204 2497 
Q 953 2441 691 2322 
L 691 4666 
z
" transform="scale(0.015625)"/>
      </defs>
      <use xlink:href="#DejaVuSans-53"/>
      <use xlink:href="#DejaVuSans-4d" x="63.476562"/>
      <use xlink:href="#DejaVuSans-41" x="149.755859"/>
      <use xlink:href="#DejaVuSans-35" x="218.164062"/>
     </g>
    </g>
   </g>
  </g>
  <g id="axes_2">
   <g id="patch_8">
    <path d="M 48.445313 584.521875 
L 982.876106 584.521875 
L 982.876106 331.135938 
L 48.445313 331.135938 
z
" style="fill: #ffffff"/>
   </g>
   <g id="matplotlib.axis_3">
    <g id="xtick_13">
     <g id="line2d_37">
      <path d="M 85.59353 584.521875 
L 85.59353 331.135938 
" clip-path="url(#pd1e3d96e10)" style="fill: none; stroke-dasharray: 2.96,1.28; stroke-dashoffset: 0; stroke: #b0b0b0; stroke-width: 0.8"/>
     </g>
     <g id="line2d_38">
      <g>
       <use xlink:href="#mdb8580eb39" x="85.59353" y="584.521875" style="stroke: #000000; stroke-width: 0.8"/>
      </g>
     </g>
     <g id="text_8">
      <!-- 2022-01 -->
      <g transform="translate(64.702124 599.120312)scale(0.1 -0.1)">
       <defs>
        <path id="DejaVuSans-2d" d="M 313 2009 
L 1997 2009 
L 1997 1497 
L 313 1497 
L 313 2009 
z
" transform="scale(0.015625)"/>
       </defs>
       <use xlink:href="#DejaVuSans-32"/>
       <use xlink:href="#DejaVuSans-30" x="63.623047"/>
       <use xlink:href="#DejaVuSans-32" x="127.246094"/>
       <use xlink:href="#DejaVuSans-32" x="190.869141"/>
       <use xlink:href="#DejaVuSans-2d" x="254.492188"/>
       <use xlink:href="#DejaVuSans-30" x="290.576172"/>
       <use xlink:href="#DejaVuSans-31" x="354.199219"/>
      </g>
     </g>
    </g>
    <g id="xtick_14">
     <g id="line2d_39">
      <path d="M 168.145125 584.521875 
L 168.145125 331.135938 
" clip-path="url(#pd1e3d96e10)" style="fill: none; stroke-dasharray: 2.96,1.28; stroke-dashoffset: 0; stroke: #b0b0b0; stroke-width: 0.8"/>
     </g>
     <g id="line2d_40">
      <g>
       <use xlink:href="#mdb8580eb39" x="168.145125" y="584.521875" style="stroke: #000000; stroke-width: 0.8"/>
      </g>
     </g>
     <g id="text_9">
      <!-- 2022-02 -->
      <g transform="translate(147.253719 599.120312)scale(0.1 -0.1)">
       <use xlink:href="#DejaVuSans-32"/>
       <use xlink:href="#DejaVuSans-30" x="63.623047"/>
       <use xlink:href="#DejaVuSans-32" x="127.246094"/>
       <use xlink:href="#DejaVuSans-32" x="190.869141"/>
       <use xlink:href="#DejaVuSans-2d" x="254.492188"/>
       <use xlink:href="#DejaVuSans-30" x="290.576172"/>
       <use xlink:href="#DejaVuSans-32" x="354.199219"/>
      </g>
     </g>
    </g>
    <g id="xtick_15">
     <g id="line2d_41">
      <path d="M 242.707856 584.521875 
L 242.707856 331.135938 
" clip-path="url(#pd1e3d96e10)" style="fill: none; stroke-dasharray: 2.96,1.28; stroke-dashoffset: 0; stroke: #b0b0b0; stroke-width: 0.8"/>
     </g>
     <g id="line2d_42">
      <g>
       <use xlink:href="#mdb8580eb39" x="242.707856" y="584.521875" style="stroke: #000000; stroke-width: 0.8"/>
      </g>
     </g>
     <g id="text_10">
      <!-- 2022-03 -->
      <g transform="translate(221.816449 599.120312)scale(0.1 -0.1)">
       <defs>
        <path id="DejaVuSans-33" d="M 2597 2516 
Q 3050 2419 3304 2112 
Q 3559 1806 3559 1356 
Q 3559 666 3084 287 
Q 2609 -91 1734 -91 
Q 1441 -91 1130 -33 
Q 819 25 488 141 
L 488 750 
Q 750 597 1062 519 
Q 1375 441 1716 441 
Q 2309 441 2620 675 
Q 2931 909 2931 1356 
Q 2931 1769 2642 2001 
Q 2353 2234 1838 2234 
L 1294 2234 
L 1294 2753 
L 1863 2753 
Q 2328 2753 2575 2939 
Q 2822 3125 2822 3475 
Q 2822 3834 2567 4026 
Q 2313 4219 1838 4219 
Q 1578 4219 1281 4162 
Q 984 4106 628 3988 
L 628 4550 
Q 988 4650 1302 4700 
Q 1616 4750 1894 4750 
Q 2613 4750 3031 4423 
Q 3450 4097 3450 3541 
Q 3450 3153 3228 2886 
Q 3006 2619 2597 2516 
z
" transform="scale(0.015625)"/>
       </defs>
       <use xlink:href="#DejaVuSans-32"/>
       <use xlink:href="#DejaVuSans-30" x="63.623047"/>
       <use xlink:href="#DejaVuSans-32" x="127.246094"/>
       <use xlink:href="#DejaVuSans-32" x="190.869141"/>
       <use xlink:href="#DejaVuSans-2d" x="254.492188"/>
       <use xlink:href="#DejaVuSans-30" x="290.576172"/>
       <use xlink:href="#DejaVuSans-33" x="354.199219"/>
      </g>
     </g>
    </g>
    <g id="xtick_16">
     <g id="line2d_43">
      <path d="M 325.25945 584.521875 
L 325.25945 331.135938 
" clip-path="url(#pd1e3d96e10)" style="fill: none; stroke-dasharray: 2.96,1.28; stroke-dashoffset: 0; stroke: #b0b0b0; stroke-width: 0.8"/>
     </g>
     <g id="line2d_44">
      <g>
       <use xlink:href="#mdb8580eb39" x="325.25945" y="584.521875" style="stroke: #000000; stroke-width: 0.8"/>
      </g>
     </g>
     <g id="text_11">
      <!-- 2022-04 -->
      <g transform="translate(304.368044 599.120312)scale(0.1 -0.1)">
       <use xlink:href="#DejaVuSans-32"/>
       <use xlink:href="#DejaVuSans-30" x="63.623047"/>
       <use xlink:href="#DejaVuSans-32" x="127.246094"/>
       <use xlink:href="#DejaVuSans-32" x="190.869141"/>
       <use xlink:href="#DejaVuSans-2d" x="254.492188"/>
       <use xlink:href="#DejaVuSans-30" x="290.576172"/>
       <use xlink:href="#DejaVuSans-34" x="354.199219"/>
      </g>
     </g>
    </g>
    <g id="xtick_17">
     <g id="line2d_45">
      <path d="M 405.14809 584.521875 
L 405.14809 331.135938 
" clip-path="url(#pd1e3d96e10)" style="fill: none; stroke-dasharray: 2.96,1.28; stroke-dashoffset: 0; stroke: #b0b0b0; stroke-width: 0.8"/>
     </g>
     <g id="line2d_46">
      <g>
       <use xlink:href="#mdb8580eb39" x="405.14809" y="584.521875" style="stroke: #000000; stroke-width: 0.8"/>
      </g>
     </g>
     <g id="text_12">
      <!-- 2022-05 -->
      <g transform="translate(384.256684 599.120312)scale(0.1 -0.1)">
       <use xlink:href="#DejaVuSans-32"/>
       <use xlink:href="#DejaVuSans-30" x="63.623047"/>
       <use xlink:href="#DejaVuSans-32" x="127.246094"/>
       <use xlink:href="#DejaVuSans-32" x="190.869141"/>
       <use xlink:href="#DejaVuSans-2d" x="254.492188"/>
       <use xlink:href="#DejaVuSans-30" x="290.576172"/>
       <use xlink:href="#DejaVuSans-35" x="354.199219"/>
      </g>
     </g>
    </g>
    <g id="xtick_18">
     <g id="line2d_47">
      <path d="M 487.699685 584.521875 
L 487.699685 331.135938 
" clip-path="url(#pd1e3d96e10)" style="fill: none; stroke-dasharray: 2.96,1.28; stroke-dashoffset: 0; stroke: #b0b0b0; stroke-width: 0.8"/>
     </g>
     <g id="line2d_48">
      <g>
       <use xlink:href="#mdb8580eb39" x="487.699685" y="584.521875" style="stroke: #000000; stroke-width: 0.8"/>
      </g>
     </g>
     <g id="text_13">
      <!-- 2022-06 -->
      <g transform="translate(466.808279 599.120312)scale(0.1 -0.1)">
       <use xlink:href="#DejaVuSans-32"/>
       <use xlink:href="#DejaVuSans-30" x="63.623047"/>
       <use xlink:href="#DejaVuSans-32" x="127.246094"/>
       <use xlink:href="#DejaVuSans-32" x="190.869141"/>
       <use xlink:href="#DejaVuSans-2d" x="254.492188"/>
       <use xlink:href="#DejaVuSans-30" x="290.576172"/>
       <use xlink:href="#DejaVuSans-36" x="354.199219"/>
      </g>
     </g>
    </g>
    <g id="xtick_19">
     <g id="line2d_49">
      <path d="M 567.588325 584.521875 
L 567.588325 331.135938 
" clip-path="url(#pd1e3d96e10)" style="fill: none; stroke-dasharray: 2.96,1.28; stroke-dashoffset: 0; stroke: #b0b0b0; stroke-width: 0.8"/>
     </g>
     <g id="line2d_50">
      <g>
       <use xlink:href="#mdb8580eb39" x="567.588325" y="584.521875" style="stroke: #000000; stroke-width: 0.8"/>
      </g>
     </g>
     <g id="text_14">
      <!-- 2022-07 -->
      <g transform="translate(546.696919 599.120312)scale(0.1 -0.1)">
       <defs>
        <path id="DejaVuSans-37" d="M 525 4666 
L 3525 4666 
L 3525 4397 
L 1831 0 
L 1172 0 
L 2766 4134 
L 525 4134 
L 525 4666 
z
" transform="scale(0.015625)"/>
       </defs>
       <use xlink:href="#DejaVuSans-32"/>
       <use xlink:href="#DejaVuSans-30" x="63.623047"/>
       <use xlink:href="#DejaVuSans-32" x="127.246094"/>
       <use xlink:href="#DejaVuSans-32" x="190.869141"/>
       <use xlink:href="#DejaVuSans-2d" x="254.492188"/>
       <use xlink:href="#DejaVuSans-30" x="290.576172"/>
       <use xlink:href="#DejaVuSans-37" x="354.199219"/>
      </g>
     </g>
    </g>
    <g id="xtick_20">
     <g id="line2d_51">
      <path d="M 650.13992 584.521875 
L 650.13992 331.135938 
" clip-path="url(#pd1e3d96e10)" style="fill: none; stroke-dasharray: 2.96,1.28; stroke-dashoffset: 0; stroke: #b0b0b0; stroke-width: 0.8"/>
     </g>
     <g id="line2d_52">
      <g>
       <use xlink:href="#mdb8580eb39" x="650.13992" y="584.521875" style="stroke: #000000; stroke-width: 0.8"/>
      </g>
     </g>
     <g id="text_15">
      <!-- 2022-08 -->
      <g transform="translate(629.248514 599.120312)scale(0.1 -0.1)">
       <defs>
        <path id="DejaVuSans-38" d="M 2034 2216 
Q 1584 2216 1326 1975 
Q 1069 1734 1069 1313 
Q 1069 891 1326 650 
Q 1584 409 2034 409 
Q 2484 409 2743 651 
Q 3003 894 3003 1313 
Q 3003 1734 2745 1975 
Q 2488 2216 2034 2216 
z
M 1403 2484 
Q 997 2584 770 2862 
Q 544 3141 544 3541 
Q 544 4100 942 4425 
Q 1341 4750 2034 4750 
Q 2731 4750 3128 4425 
Q 3525 4100 3525 3541 
Q 3525 3141 3298 2862 
Q 3072 2584 2669 2484 
Q 3125 2378 3379 2068 
Q 3634 1759 3634 1313 
Q 3634 634 3220 271 
Q 2806 -91 2034 -91 
Q 1263 -91 848 271 
Q 434 634 434 1313 
Q 434 1759 690 2068 
Q 947 2378 1403 2484 
z
M 1172 3481 
Q 1172 3119 1398 2916 
Q 1625 2713 2034 2713 
Q 2441 2713 2670 2916 
Q 2900 3119 2900 3481 
Q 2900 3844 2670 4047 
Q 2441 4250 2034 4250 
Q 1625 4250 1398 4047 
Q 1172 3844 1172 3481 
z
" transform="scale(0.015625)"/>
       </defs>
       <use xlink:href="#DejaVuSans-32"/>
       <use xlink:href="#DejaVuSans-30" x="63.623047"/>
       <use xlink:href="#DejaVuSans-32" x="127.246094"/>
       <use xlink:href="#DejaVuSans-32" x="190.869141"/>
       <use xlink:href="#DejaVuSans-2d" x="254.492188"/>
       <use xlink:href="#DejaVuSans-30" x="290.576172"/>
       <use xlink:href="#DejaVuSans-38" x="354.199219"/>
      </g>
     </g>
    </g>
    <g id="xtick_21">
     <g id="line2d_53">
      <path d="M 732.691515 584.521875 
L 732.691515 331.135938 
" clip-path="url(#pd1e3d96e10)" style="fill: none; stroke-dasharray: 2.96,1.28; stroke-dashoffset: 0; stroke: #b0b0b0; stroke-width: 0.8"/>
     </g>
     <g id="line2d_54">
      <g>
       <use xlink:href="#mdb8580eb39" x="732.691515" y="584.521875" style="stroke: #000000; stroke-width: 0.8"/>
      </g>
     </g>
     <g id="text_16">
      <!-- 2022-09 -->
      <g transform="translate(711.800108 599.120312)scale(0.1 -0.1)">
       <defs>
        <path id="DejaVuSans-39" d="M 703 97 
L 703 672 
Q 941 559 1184 500 
Q 1428 441 1663 441 
Q 2288 441 2617 861 
Q 2947 1281 2994 2138 
Q 2813 1869 2534 1725 
Q 2256 1581 1919 1581 
Q 1219 1581 811 2004 
Q 403 2428 403 3163 
Q 403 3881 828 4315 
Q 1253 4750 1959 4750 
Q 2769 4750 3195 4129 
Q 3622 3509 3622 2328 
Q 3622 1225 3098 567 
Q 2575 -91 1691 -91 
Q 1453 -91 1209 -44 
Q 966 3 703 97 
z
M 1959 2075 
Q 2384 2075 2632 2365 
Q 2881 2656 2881 3163 
Q 2881 3666 2632 3958 
Q 2384 4250 1959 4250 
Q 1534 4250 1286 3958 
Q 1038 3666 1038 3163 
Q 1038 2656 1286 2365 
Q 1534 2075 1959 2075 
z
" transform="scale(0.015625)"/>
       </defs>
       <use xlink:href="#DejaVuSans-32"/>
       <use xlink:href="#DejaVuSans-30" x="63.623047"/>
       <use xlink:href="#DejaVuSans-32" x="127.246094"/>
       <use xlink:href="#DejaVuSans-32" x="190.869141"/>
       <use xlink:href="#DejaVuSans-2d" x="254.492188"/>
       <use xlink:href="#DejaVuSans-30" x="290.576172"/>
       <use xlink:href="#DejaVuSans-39" x="354.199219"/>
      </g>
     </g>
    </g>
    <g id="xtick_22">
     <g id="line2d_55">
      <path d="M 812.580155 584.521875 
L 812.580155 331.135938 
" clip-path="url(#pd1e3d96e10)" style="fill: none; stroke-dasharray: 2.96,1.28; stroke-dashoffset: 0; stroke: #b0b0b0; stroke-width: 0.8"/>
     </g>
     <g id="line2d_56">
      <g>
       <use xlink:href="#mdb8580eb39" x="812.580155" y="584.521875" style="stroke: #000000; stroke-width: 0.8"/>
      </g>
     </g>
     <g id="text_17">
      <!-- 2022-10 -->
      <g transform="translate(791.688749 599.120312)scale(0.1 -0.1)">
       <use xlink:href="#DejaVuSans-32"/>
       <use xlink:href="#DejaVuSans-30" x="63.623047"/>
       <use xlink:href="#DejaVuSans-32" x="127.246094"/>
       <use xlink:href="#DejaVuSans-32" x="190.869141"/>
       <use xlink:href="#DejaVuSans-2d" x="254.492188"/>
       <use xlink:href="#DejaVuSans-31" x="290.576172"/>
       <use xlink:href="#DejaVuSans-30" x="354.199219"/>
      </g>
     </g>
    </g>
    <g id="xtick_23">
     <g id="line2d_57">
      <path d="M 895.13175 584.521875 
L 895.13175 331.135938 
" clip-path="url(#pd1e3d96e10)" style="fill: none; stroke-dasharray: 2.96,1.28; stroke-dashoffset: 0; stroke: #b0b0b0; stroke-width: 0.8"/>
     </g>
     <g id="line2d_58">
      <g>
       <use xlink:href="#mdb8580eb39" x="895.13175" y="584.521875" style="stroke: #000000; stroke-width: 0.8"/>
      </g>
     </g>
     <g id="text_18">
      <!-- 2022-11 -->
      <g transform="translate(874.240343 599.120312)scale(0.1 -0.1)">
       <use xlink:href="#DejaVuSans-32"/>
       <use xlink:href="#DejaVuSans-30" x="63.623047"/>
       <use xlink:href="#DejaVuSans-32" x="127.246094"/>
       <use xlink:href="#DejaVuSans-32" x="190.869141"/>
       <use xlink:href="#DejaVuSans-2d" x="254.492188"/>
       <use xlink:href="#DejaVuSans-31" x="290.576172"/>
       <use xlink:href="#DejaVuSans-31" x="354.199219"/>
      </g>
     </g>
    </g>
    <g id="xtick_24">
     <g id="line2d_59">
      <path d="M 975.02039 584.521875 
L 975.02039 331.135938 
" clip-path="url(#pd1e3d96e10)" style="fill: none; stroke-dasharray: 2.96,1.28; stroke-dashoffset: 0; stroke: #b0b0b0; stroke-width: 0.8"/>
     </g>
     <g id="line2d_60">
      <g>
       <use xlink:href="#mdb8580eb39" x="975.02039" y="584.521875" style="stroke: #000000; stroke-width: 0.8"/>
      </g>
     </g>
     <g id="text_19">
      <!-- 2022-12 -->
      <g transform="translate(954.128983 599.120312)scale(0.1 -0.1)">
       <use xlink:href="#DejaVuSans-32"/>
       <use xlink:href="#DejaVuSans-30" x="63.623047"/>
       <use xlink:href="#DejaVuSans-32" x="127.246094"/>
       <use xlink:href="#DejaVuSans-32" x="190.869141"/>
       <use xlink:href="#DejaVuSans-2d" x="254.492188"/>
       <use xlink:href="#DejaVuSans-31" x="290.576172"/>
       <use xlink:href="#DejaVuSans-32" x="354.199219"/>
      </g>
     </g>
    </g>
   </g>
   <g id="matplotlib.axis_4">
    <g id="ytick_5">
     <g id="line2d_61">
      <path d="M 48.445313 573.930255 
L 982.876106 573.930255 
" clip-path="url(#pd1e3d96e10)" style="fill: none; stroke-dasharray: 2.96,1.28; stroke-dashoffset: 0; stroke: #b0b0b0; stroke-width: 0.8"/>
     </g>
     <g id="line2d_62">
      <g>
       <use xlink:href="#mc7648b519f" x="48.445313" y="573.930255" style="stroke: #000000; stroke-width: 0.8"/>
      </g>
     </g>
     <g id="text_20">
      <!-- −12.5 -->
      <g transform="translate(10.8 577.729474)scale(0.1 -0.1)">
       <defs>
        <path id="DejaVuSans-2212" d="M 678 2272 
L 4684 2272 
L 4684 1741 
L 678 1741 
L 678 2272 
z
" transform="scale(0.015625)"/>
        <path id="DejaVuSans-2e" d="M 684 794 
L 1344 794 
L 1344 0 
L 684 0 
L 684 794 
z
" transform="scale(0.015625)"/>
       </defs>
       <use xlink:href="#DejaVuSans-2212"/>
       <use xlink:href="#DejaVuSans-31" x="83.789062"/>
       <use xlink:href="#DejaVuSans-32" x="147.412109"/>
       <use xlink:href="#DejaVuSans-2e" x="211.035156"/>
       <use xlink:href="#DejaVuSans-35" x="242.822266"/>
      </g>
     </g>
    </g>
    <g id="ytick_6">
     <g id="line2d_63">
      <path d="M 48.445313 541.44821 
L 982.876106 541.44821 
" clip-path="url(#pd1e3d96e10)" style="fill: none; stroke-dasharray: 2.96,1.28; stroke-dashoffset: 0; stroke: #b0b0b0; stroke-width: 0.8"/>
     </g>
     <g id="line2d_64">
      <g>
       <use xlink:href="#mc7648b519f" x="48.445313" y="541.44821" style="stroke: #000000; stroke-width: 0.8"/>
      </g>
     </g>
     <g id="text_21">
      <!-- −10.0 -->
      <g transform="translate(10.8 545.247429)scale(0.1 -0.1)">
       <use xlink:href="#DejaVuSans-2212"/>
       <use xlink:href="#DejaVuSans-31" x="83.789062"/>
       <use xlink:href="#DejaVuSans-30" x="147.412109"/>
       <use xlink:href="#DejaVuSans-2e" x="211.035156"/>
       <use xlink:href="#DejaVuSans-30" x="242.822266"/>
      </g>
     </g>
    </g>
    <g id="ytick_7">
     <g id="line2d_65">
      <path d="M 48.445313 508.966166 
L 982.876106 508.966166 
" clip-path="url(#pd1e3d96e10)" style="fill: none; stroke-dasharray: 2.96,1.28; stroke-dashoffset: 0; stroke: #b0b0b0; stroke-width: 0.8"/>
     </g>
     <g id="line2d_66">
      <g>
       <use xlink:href="#mc7648b519f" x="48.445313" y="508.966166" style="stroke: #000000; stroke-width: 0.8"/>
      </g>
     </g>
     <g id="text_22">
      <!-- −7.5 -->
      <g transform="translate(17.1625 512.765384)scale(0.1 -0.1)">
       <use xlink:href="#DejaVuSans-2212"/>
       <use xlink:href="#DejaVuSans-37" x="83.789062"/>
       <use xlink:href="#DejaVuSans-2e" x="147.412109"/>
       <use xlink:href="#DejaVuSans-35" x="179.199219"/>
      </g>
     </g>
    </g>
    <g id="ytick_8">
     <g id="line2d_67">
      <path d="M 48.445313 476.484121 
L 982.876106 476.484121 
" clip-path="url(#pd1e3d96e10)" style="fill: none; stroke-dasharray: 2.96,1.28; stroke-dashoffset: 0; stroke: #b0b0b0; stroke-width: 0.8"/>
     </g>
     <g id="line2d_68">
      <g>
       <use xlink:href="#mc7648b519f" x="48.445313" y="476.484121" style="stroke: #000000; stroke-width: 0.8"/>
      </g>
     </g>
     <g id="text_23">
      <!-- −5.0 -->
      <g transform="translate(17.1625 480.28334)scale(0.1 -0.1)">
       <use xlink:href="#DejaVuSans-2212"/>
       <use xlink:href="#DejaVuSans-35" x="83.789062"/>
       <use xlink:href="#DejaVuSans-2e" x="147.412109"/>
       <use xlink:href="#DejaVuSans-30" x="179.199219"/>
      </g>
     </g>
    </g>
    <g id="ytick_9">
     <g id="line2d_69">
      <path d="M 48.445313 444.002076 
L 982.876106 444.002076 
" clip-path="url(#pd1e3d96e10)" style="fill: none; stroke-dasharray: 2.96,1.28; stroke-dashoffset: 0; stroke: #b0b0b0; stroke-width: 0.8"/>
     </g>
     <g id="line2d_70">
      <g>
       <use xlink:href="#mc7648b519f" x="48.445313" y="444.002076" style="stroke: #000000; stroke-width: 0.8"/>
      </g>
     </g>
     <g id="text_24">
      <!-- −2.5 -->
      <g transform="translate(17.1625 447.801295)scale(0.1 -0.1)">
       <use xlink:href="#DejaVuSans-2212"/>
       <use xlink:href="#DejaVuSans-32" x="83.789062"/>
       <use xlink:href="#DejaVuSans-2e" x="147.412109"/>
       <use xlink:href="#DejaVuSans-35" x="179.199219"/>
      </g>
     </g>
    </g>
    <g id="ytick_10">
     <g id="line2d_71">
      <path d="M 48.445313 411.520031 
L 982.876106 411.520031 
" clip-path="url(#pd1e3d96e10)" style="fill: none; stroke-dasharray: 2.96,1.28; stroke-dashoffset: 0; stroke: #b0b0b0; stroke-width: 0.8"/>
     </g>
     <g id="line2d_72">
      <g>
       <use xlink:href="#mc7648b519f" x="48.445313" y="411.520031" style="stroke: #000000; stroke-width: 0.8"/>
      </g>
     </g>
     <g id="text_25">
      <!-- 0.0 -->
      <g transform="translate(25.542188 415.31925)scale(0.1 -0.1)">
       <use xlink:href="#DejaVuSans-30"/>
       <use xlink:href="#DejaVuSans-2e" x="63.623047"/>
       <use xlink:href="#DejaVuSans-30" x="95.410156"/>
      </g>
     </g>
    </g>
    <g id="ytick_11">
     <g id="line2d_73">
      <path d="M 48.445313 379.037987 
L 982.876106 379.037987 
" clip-path="url(#pd1e3d96e10)" style="fill: none; stroke-dasharray: 2.96,1.28; stroke-dashoffset: 0; stroke: #b0b0b0; stroke-width: 0.8"/>
     </g>
     <g id="line2d_74">
      <g>
       <use xlink:href="#mc7648b519f" x="48.445313" y="379.037987" style="stroke: #000000; stroke-width: 0.8"/>
      </g>
     </g>
     <g id="text_26">
      <!-- 2.5 -->
      <g transform="translate(25.542188 382.837205)scale(0.1 -0.1)">
       <use xlink:href="#DejaVuSans-32"/>
       <use xlink:href="#DejaVuSans-2e" x="63.623047"/>
       <use xlink:href="#DejaVuSans-35" x="95.410156"/>
      </g>
     </g>
    </g>
    <g id="ytick_12">
     <g id="line2d_75">
      <path d="M 48.445313 346.555942 
L 982.876106 346.555942 
" clip-path="url(#pd1e3d96e10)" style="fill: none; stroke-dasharray: 2.96,1.28; stroke-dashoffset: 0; stroke: #b0b0b0; stroke-width: 0.8"/>
     </g>
     <g id="line2d_76">
      <g>
       <use xlink:href="#mc7648b519f" x="48.445313" y="346.555942" style="stroke: #000000; stroke-width: 0.8"/>
      </g>
     </g>
     <g id="text_27">
      <!-- 5.0 -->
      <g transform="translate(25.542188 350.355161)scale(0.1 -0.1)">
       <use xlink:href="#DejaVuSans-35"/>
       <use xlink:href="#DejaVuSans-2e" x="63.623047"/>
       <use xlink:href="#DejaVuSans-30" x="95.410156"/>
      </g>
     </g>
    </g>
   </g>
   <g id="line2d_77">
    <path d="M 90.919439 411.520031 
L 93.582394 411.126499 
L 96.245349 409.709147 
L 98.908303 407.795405 
L 101.571258 406.47201 
L 109.560122 404.049056 
L 112.223077 403.124184 
L 114.886031 401.526739 
L 117.548986 399.702352 
L 120.211941 399.015128 
L 128.200805 398.41702 
L 130.86376 399.441455 
L 133.526714 396.655032 
L 136.189669 395.214231 
L 138.852624 397.381205 
L 146.841488 401.212628 
L 149.504442 401.930777 
L 154.830352 404.605511 
L 157.493306 406.328436 
L 165.48217 405.601703 
L 168.145125 402.360437 
L 170.80808 401.528872 
L 173.471034 399.501802 
L 184.122853 396.918936 
L 186.785808 399.20717 
L 189.448762 402.377199 
L 194.774672 410.151551 
L 202.763536 416.170028 
L 205.42649 419.20132 
L 208.089445 421.385305 
L 210.7524 422.545415 
L 213.415354 422.309387 
L 221.404218 426.425053 
L 224.067173 431.182656 
L 226.730128 431.047618 
L 229.393082 439.093077 
L 232.056037 440.07798 
L 240.044901 430.546105 
L 245.37081 415.199143 
L 248.033765 396.700575 
L 250.69672 385.942516 
L 258.685584 371.586967 
L 261.348538 365.080549 
L 264.011493 363.442065 
L 266.674448 369.783813 
L 269.337402 370.266191 
L 277.326266 371.166463 
L 279.989221 376.295191 
L 282.652176 376.695785 
L 285.31513 378.528269 
L 295.966949 387.481804 
L 298.629904 395.637856 
L 301.292858 402.054621 
L 303.955813 403.606787 
L 306.618768 404.349541 
L 314.607632 400.450329 
L 319.933541 393.566438 
L 322.596496 388.853762 
L 325.25945 378.839358 
L 333.248314 371.727101 
L 335.911269 367.587314 
L 338.574224 363.197347 
L 341.237178 362.009661 
L 343.900133 360.149087 
L 351.888997 356.750617 
L 354.551952 352.546197 
L 357.214906 347.912337 
L 370.52968 345.730016 
L 373.192634 342.65348 
L 375.855589 345.573482 
L 378.518544 350.266204 
L 381.181498 354.434379 
L 389.170362 364.914675 
L 394.496272 383.850878 
L 397.159226 389.281233 
L 399.822181 392.392717 
L 407.811045 396.70379 
L 413.136954 400.250229 
L 415.799909 399.224774 
L 418.462864 399.75173 
L 426.451728 404.542531 
L 429.114682 415.828762 
L 431.777637 422.810278 
L 434.440592 428.513741 
L 437.103546 435.377126 
L 445.09241 437.479436 
L 447.755365 435.20609 
L 453.081274 432.207336 
L 455.744229 428.14158 
L 463.733093 427.977792 
L 466.396048 428.90494 
L 469.059002 429.329607 
L 471.721957 430.391704 
L 474.384912 439.711078 
L 482.373776 445.707028 
L 485.03673 446.440663 
L 487.699685 444.752506 
L 490.36264 442.895725 
L 493.025594 442.689434 
L 501.014459 441.602695 
L 503.677413 437.455291 
L 506.340368 432.407837 
L 509.003323 429.147849 
L 511.666277 428.931642 
L 519.655141 431.465352 
L 522.318096 432.549564 
L 524.981051 432.537583 
L 530.30696 446.409955 
L 540.958779 463.705378 
L 546.284688 475.004633 
L 548.947643 477.968545 
L 556.936507 477.253422 
L 559.599461 473.612183 
L 562.262416 467.616251 
L 564.925371 466.476684 
L 567.588325 467.911295 
L 575.577189 467.148954 
L 580.903099 464.133121 
L 586.229008 453.917689 
L 594.217872 448.076992 
L 596.880827 442.669775 
L 599.543781 439.633008 
L 602.206736 435.067825 
L 604.869691 430.030867 
L 612.858555 422.090598 
L 615.521509 419.739409 
L 618.184464 416.456272 
L 620.847419 411.392125 
L 623.510373 409.809764 
L 631.499237 402.992716 
L 634.162192 400.910062 
L 636.825147 396.497213 
L 642.151056 391.640722 
L 650.13992 389.26181 
L 658.128784 402.348986 
L 660.791739 413.291677 
L 668.780603 421.378415 
L 674.106512 430.244793 
L 676.769467 439.206378 
L 679.432421 442.958146 
L 690.08424 441.808049 
L 692.747195 440.717282 
L 695.410149 438.856262 
L 698.073104 439.625998 
L 706.061968 443.847315 
L 708.724923 443.728657 
L 711.387877 443.475934 
L 714.050832 442.343707 
L 716.713787 439.136094 
L 724.702651 436.93017 
L 727.365605 432.683916 
L 732.691515 428.85678 
L 735.354469 426.749027 
L 743.343333 423.421234 
L 746.006288 465.971742 
L 748.669243 498.947616 
L 751.332197 524.046204 
L 753.995152 542.583459 
L 761.984016 555.250586 
L 764.646971 564.003426 
L 767.309925 569.745239 
L 769.97288 572.958905 
L 772.635835 572.911451 
L 780.624699 573.004332 
L 783.287653 570.304009 
L 785.950608 568.348146 
L 788.613563 565.805908 
L 791.276517 564.387924 
L 799.265381 562.726816 
L 804.591291 553.642524 
L 807.254245 548.204835 
L 809.9172 541.194942 
L 817.906064 536.194365 
L 820.569019 528.679171 
L 825.894928 521.145111 
L 828.557883 514.718594 
L 836.546747 506.071832 
L 841.872656 496.434493 
L 844.535611 492.564755 
L 847.198565 488.972084 
L 855.187429 485.326493 
L 857.850384 481.680984 
L 860.513339 478.232554 
L 863.176293 472.023906 
L 865.839248 467.506542 
L 873.828112 462.966512 
L 876.491067 459.082339 
L 881.816976 453.942467 
L 884.479931 447.359128 
L 892.468795 440.497238 
L 895.13175 434.687242 
L 897.794704 429.974884 
L 900.457659 426.849902 
L 903.120614 426.299783 
L 911.109478 423.627419 
L 916.435387 423.416816 
L 919.098342 423.530824 
L 921.761296 422.809569 
L 929.75016 422.893176 
L 932.413115 420.963436 
L 935.07607 418.722036 
L 940.401979 415.869975 
L 940.401979 415.869975 
" clip-path="url(#pd1e3d96e10)" style="fill: none; stroke: #1f77b4; stroke-width: 1.5; stroke-linecap: square"/>
   </g>
   <g id="line2d_78">
    <path d="M 90.919439 411.520031 
L 93.582394 411.301402 
L 96.245349 410.648839 
L 101.571258 408.727261 
L 109.560122 407.459207 
L 114.886031 405.200093 
L 117.548986 403.930088 
L 120.211941 402.828851 
L 128.200805 401.863568 
L 130.86376 401.3434 
L 136.189669 399.276525 
L 138.852624 398.883638 
L 146.841488 399.362926 
L 154.830352 400.849071 
L 157.493306 401.960968 
L 165.48217 402.697608 
L 168.145125 402.629546 
L 170.80808 402.407775 
L 176.133989 401.221363 
L 186.785808 400.126828 
L 189.448762 400.577993 
L 192.111717 401.706526 
L 194.774672 403.398149 
L 202.763536 405.95569 
L 208.089445 411.165042 
L 210.7524 413.44256 
L 213.415354 415.216825 
L 221.404218 417.45938 
L 224.067173 420.204926 
L 226.730128 422.374028 
L 229.393082 425.718532 
L 232.056037 428.590899 
L 240.044901 428.981992 
L 245.37081 426.225129 
L 248.033765 420.319716 
L 250.69672 413.443808 
L 258.685584 405.071984 
L 261.348538 397.073349 
L 264.011493 390.346858 
L 266.674448 386.234134 
L 269.337402 383.040474 
L 282.652176 379.172374 
L 285.31513 379.043552 
L 295.966949 380.731214 
L 298.629904 383.71256 
L 301.292858 387.380989 
L 303.955813 390.626161 
L 306.618768 393.370845 
L 317.270586 395.220952 
L 319.933541 394.890049 
L 322.596496 393.68279 
L 325.25945 390.714101 
L 333.248314 386.916698 
L 338.574224 379.080122 
L 341.237178 375.666029 
L 343.900133 372.562639 
L 351.888997 369.400234 
L 354.551952 366.029426 
L 357.214906 362.406008 
L 370.52968 359.070809 
L 373.192634 355.787343 
L 375.855589 353.74457 
L 378.518544 353.048897 
L 381.181498 353.325994 
L 389.170362 355.64373 
L 391.833317 359.411765 
L 399.822181 373.915277 
L 407.811045 378.47298 
L 413.136954 382.82843 
L 415.799909 386.107699 
L 418.462864 388.836505 
L 426.451728 391.97771 
L 429.114682 396.747921 
L 434.440592 407.271062 
L 437.103546 412.892275 
L 445.09241 417.809707 
L 447.755365 421.288984 
L 450.41832 423.776116 
L 453.081274 425.46236 
L 455.744229 425.998204 
L 463.733093 426.394122 
L 471.721957 427.984701 
L 474.384912 430.329976 
L 482.373776 433.405387 
L 485.03673 436.012442 
L 487.699685 437.760455 
L 490.36264 438.787509 
L 493.025594 439.567894 
L 501.014459 439.974854 
L 503.677413 439.470941 
L 506.340368 438.058321 
L 509.003323 436.276226 
L 511.666277 434.807309 
L 522.318096 433.821047 
L 524.981051 433.564354 
L 527.644005 434.770406 
L 530.30696 437.098316 
L 538.295824 441.565719 
L 540.958779 445.993651 
L 548.947643 460.014379 
L 556.936507 463.462187 
L 559.599461 465.492186 
L 562.262416 465.916999 
L 564.925371 466.028936 
L 567.588325 466.405408 
L 575.577189 466.554117 
L 578.240144 466.375019 
L 580.903099 465.926639 
L 583.566053 464.535311 
L 586.229008 462.411787 
L 594.217872 459.544828 
L 602.206736 449.303529 
L 604.869691 445.448997 
L 612.858555 440.777317 
L 620.847419 428.316059 
L 623.510373 424.6148 
L 631.499237 420.290383 
L 639.488101 408.752761 
L 642.151056 405.330353 
L 650.13992 402.116645 
L 652.802875 400.425928 
L 655.465829 399.948813 
L 658.128784 400.428848 
L 660.791739 403.001414 
L 668.780603 406.676814 
L 674.106512 411.39041 
L 676.769467 416.953603 
L 679.432421 422.154512 
L 690.08424 426.085219 
L 692.747195 429.011632 
L 695.410149 430.980558 
L 698.073104 432.709646 
L 706.061968 434.93718 
L 708.724923 436.695475 
L 711.387877 438.051567 
L 714.050832 438.909995 
L 716.713787 438.955215 
L 724.702651 438.550206 
L 727.365605 437.376948 
L 732.691515 435.672914 
L 735.354469 433.888137 
L 743.343333 431.794756 
L 746.006288 438.630153 
L 748.669243 450.693646 
L 751.332197 465.364158 
L 753.995152 480.808018 
L 761.984016 495.696532 
L 764.646971 509.357911 
L 767.309925 521.435376 
L 769.97288 531.740082 
L 772.635835 539.974356 
L 780.624699 546.580351 
L 783.287653 551.325083 
L 785.950608 554.729695 
L 788.613563 556.944938 
L 791.276517 558.433535 
L 799.265381 559.292191 
L 801.928336 559.083988 
L 804.591291 557.995695 
L 807.254245 556.037523 
L 809.9172 553.069007 
L 817.906064 549.694079 
L 820.569019 545.491097 
L 825.894928 540.6219 
L 828.557883 535.441239 
L 836.546747 529.567357 
L 841.872656 518.422676 
L 844.535611 513.251092 
L 847.198565 508.39529 
L 855.187429 503.781531 
L 865.839248 485.911948 
L 873.828112 481.322861 
L 876.491067 476.874756 
L 881.816976 472.288299 
L 884.479931 467.302464 
L 892.468795 461.941419 
L 897.794704 451.187444 
L 900.457659 446.319935 
L 903.120614 442.315905 
L 911.109478 438.578208 
L 916.435387 435.54593 
L 919.098342 433.142908 
L 921.761296 431.07624 
L 929.75016 429.439627 
L 935.07607 425.939918 
L 940.401979 422.535005 
L 940.401979 422.535005 
" clip-path="url(#pd1e3d96e10)" style="fill: none; stroke: #ff7f0e; stroke-width: 1.5; stroke-linecap: square"/>
   </g>
   <g id="patch_9">
    <path d="M 48.445313 584.521875 
L 48.445313 331.135938 
" style="fill: none; stroke: #000000; stroke-width: 0.8; stroke-linejoin: miter; stroke-linecap: square"/>
   </g>
   <g id="patch_10">
    <path d="M 982.876106 584.521875 
L 982.876106 331.135938 
" style="fill: none; stroke: #000000; stroke-width: 0.8; stroke-linejoin: miter; stroke-linecap: square"/>
   </g>
   <g id="patch_11">
    <path d="M 48.445312 584.521875 
L 982.876106 584.521875 
" style="fill: none; stroke: #000000; stroke-width: 0.8; stroke-linejoin: miter; stroke-linecap: square"/>
   </g>
   <g id="patch_12">
    <path d="M 48.445312 331.135938 
L 982.876106 331.135938 
" style="fill: none; stroke: #000000; stroke-width: 0.8; stroke-linejoin: miter; stroke-linecap: square"/>
   </g>
   <g id="text_28">
    <!-- MACD -->
    <g transform="translate(497.674772 325.135938)scale(0.12 -0.12)">
     <defs>
      <path id="DejaVuSans-44" d="M 1259 4147 
L 1259 519 
L 2022 519 
Q 2988 519 3436 956 
Q 3884 1394 3884 2338 
Q 3884 3275 3436 3711 
Q 2988 4147 2022 4147 
L 1259 4147 
z
M 628 4666 
L 1925 4666 
Q 3281 4666 3915 4102 
Q 4550 3538 4550 2338 
Q 4550 1131 3912 565 
Q 3275 0 1925 0 
L 628 0 
L 628 4666 
z
" transform="scale(0.015625)"/>
     </defs>
     <use xlink:href="#DejaVuSans-4d"/>
     <use xlink:href="#DejaVuSans-41" x="86.279297"/>
     <use xlink:href="#DejaVuSans-43" x="152.9375"/>
     <use xlink:href="#DejaVuSans-44" x="222.761719"/>
    </g>
   </g>
   <g id="legend_2">
    <g id="patch_13">
     <path d="M 913.899543 368.492188 
L 975.876106 368.492188 
Q 977.876106 368.492188 977.876106 366.492188 
L 977.876106 338.135938 
Q 977.876106 336.135938 975.876106 336.135938 
L 913.899543 336.135938 
Q 911.899543 336.135938 911.899543 338.135938 
L 911.899543 366.492188 
Q 911.899543 368.492188 913.899543 368.492188 
z
" style="fill: #ffffff; opacity: 0.8; stroke: #cccccc; stroke-linejoin: miter"/>
    </g>
    <g id="line2d_79">
     <path d="M 915.899543 344.234375 
L 925.899543 344.234375 
L 935.899543 344.234375 
" style="fill: none; stroke: #1f77b4; stroke-width: 1.5; stroke-linecap: square"/>
    </g>
    <g id="text_29">
     <!-- MACD -->
     <g transform="translate(943.899543 347.734375)scale(0.1 -0.1)">
      <use xlink:href="#DejaVuSans-4d"/>
      <use xlink:href="#DejaVuSans-41" x="86.279297"/>
      <use xlink:href="#DejaVuSans-43" x="152.9375"/>
      <use xlink:href="#DejaVuSans-44" x="222.761719"/>
     </g>
    </g>
    <g id="line2d_80">
     <path d="M 915.899543 358.9125 
L 925.899543 358.9125 
L 935.899543 358.9125 
" style="fill: none; stroke: #ff7f0e; stroke-width: 1.5; stroke-linecap: square"/>
    </g>
    <g id="text_30">
     <!-- SIG -->
     <g transform="translate(943.899543 362.4125)scale(0.1 -0.1)">
      <defs>
       <path id="DejaVuSans-49" d="M 628 4666 
L 1259 4666 
L 1259 0 
L 628 0 
L 628 4666 
z
" transform="scale(0.015625)"/>
       <path id="DejaVuSans-47" d="M 3809 666 
L 3809 1919 
L 2778 1919 
L 2778 2438 
L 4434 2438 
L 4434 434 
Q 4069 175 3628 42 
Q 3188 -91 2688 -91 
Q 1594 -91 976 548 
Q 359 1188 359 2328 
Q 359 3472 976 4111 
Q 1594 4750 2688 4750 
Q 3144 4750 3555 4637 
Q 3966 4525 4313 4306 
L 4313 3634 
Q 3963 3931 3569 4081 
Q 3175 4231 2741 4231 
Q 1884 4231 1454 3753 
Q 1025 3275 1025 2328 
Q 1025 1384 1454 906 
Q 1884 428 2741 428 
Q 3075 428 3337 486 
Q 3600 544 3809 666 
z
" transform="scale(0.015625)"/>
      </defs>
      <use xlink:href="#DejaVuSans-53"/>
      <use xlink:href="#DejaVuSans-49" x="63.476562"/>
      <use xlink:href="#DejaVuSans-47" x="92.96875"/>
     </g>
    </g>
   </g>
  </g>
  <g id="text_31">
   <!-- GAIL (India) Limited -->
   <g transform="translate(444.538125 21.358125)scale(0.12 -0.12)">
    <defs>
     <path id="DejaVuSans-28" d="M 1984 4856 
Q 1566 4138 1362 3434 
Q 1159 2731 1159 2009 
Q 1159 1288 1364 580 
Q 1569 -128 1984 -844 
L 1484 -844 
Q 1016 -109 783 600 
Q 550 1309 550 2009 
Q 550 2706 781 3412 
Q 1013 4119 1484 4856 
L 1984 4856 
z
" transform="scale(0.015625)"/>
     <path id="DejaVuSans-64" d="M 2906 2969 
L 2906 4863 
L 3481 4863 
L 3481 0 
L 2906 0 
L 2906 525 
Q 2725 213 2448 61 
Q 2172 -91 1784 -91 
Q 1150 -91 751 415 
Q 353 922 353 1747 
Q 353 2572 751 3078 
Q 1150 3584 1784 3584 
Q 2172 3584 2448 3432 
Q 2725 3281 2906 2969 
z
M 947 1747 
Q 947 1113 1208 752 
Q 1469 391 1925 391 
Q 2381 391 2643 752 
Q 2906 1113 2906 1747 
Q 2906 2381 2643 2742 
Q 2381 3103 1925 3103 
Q 1469 3103 1208 2742 
Q 947 2381 947 1747 
z
" transform="scale(0.015625)"/>
     <path id="DejaVuSans-61" d="M 2194 1759 
Q 1497 1759 1228 1600 
Q 959 1441 959 1056 
Q 959 750 1161 570 
Q 1363 391 1709 391 
Q 2188 391 2477 730 
Q 2766 1069 2766 1631 
L 2766 1759 
L 2194 1759 
z
M 3341 1997 
L 3341 0 
L 2766 0 
L 2766 531 
Q 2569 213 2275 61 
Q 1981 -91 1556 -91 
Q 1019 -91 701 211 
Q 384 513 384 1019 
Q 384 1609 779 1909 
Q 1175 2209 1959 2209 
L 2766 2209 
L 2766 2266 
Q 2766 2663 2505 2880 
Q 2244 3097 1772 3097 
Q 1472 3097 1187 3025 
Q 903 2953 641 2809 
L 641 3341 
Q 956 3463 1253 3523 
Q 1550 3584 1831 3584 
Q 2591 3584 2966 3190 
Q 3341 2797 3341 1997 
z
" transform="scale(0.015625)"/>
     <path id="DejaVuSans-29" d="M 513 4856 
L 1013 4856 
Q 1481 4119 1714 3412 
Q 1947 2706 1947 2009 
Q 1947 1309 1714 600 
Q 1481 -109 1013 -844 
L 513 -844 
Q 928 -128 1133 580 
Q 1338 1288 1338 2009 
Q 1338 2731 1133 3434 
Q 928 4138 513 4856 
z
" transform="scale(0.015625)"/>
     <path id="DejaVuSans-6d" d="M 3328 2828 
Q 3544 3216 3844 3400 
Q 4144 3584 4550 3584 
Q 5097 3584 5394 3201 
Q 5691 2819 5691 2113 
L 5691 0 
L 5113 0 
L 5113 2094 
Q 5113 2597 4934 2840 
Q 4756 3084 4391 3084 
Q 3944 3084 3684 2787 
Q 3425 2491 3425 1978 
L 3425 0 
L 2847 0 
L 2847 2094 
Q 2847 2600 2669 2842 
Q 2491 3084 2119 3084 
Q 1678 3084 1418 2786 
Q 1159 2488 1159 1978 
L 1159 0 
L 581 0 
L 581 3500 
L 1159 3500 
L 1159 2956 
Q 1356 3278 1631 3431 
Q 1906 3584 2284 3584 
Q 2666 3584 2933 3390 
Q 3200 3197 3328 2828 
z
" transform="scale(0.015625)"/>
     <path id="DejaVuSans-74" d="M 1172 4494 
L 1172 3500 
L 2356 3500 
L 2356 3053 
L 1172 3053 
L 1172 1153 
Q 1172 725 1289 603 
Q 1406 481 1766 481 
L 2356 481 
L 2356 0 
L 1766 0 
Q 1100 0 847 248 
Q 594 497 594 1153 
L 594 3053 
L 172 3053 
L 172 3500 
L 594 3500 
L 594 4494 
L 1172 4494 
z
" transform="scale(0.015625)"/>
    </defs>
    <use xlink:href="#DejaVuSans-47"/>
    <use xlink:href="#DejaVuSans-41" x="77.490234"/>
    <use xlink:href="#DejaVuSans-49" x="145.898438"/>
    <use xlink:href="#DejaVuSans-4c" x="175.390625"/>
    <use xlink:href="#DejaVuSans-20" x="231.103516"/>
    <use xlink:href="#DejaVuSans-28" x="262.890625"/>
    <use xlink:href="#DejaVuSans-49" x="301.904297"/>
    <use xlink:href="#DejaVuSans-6e" x="331.396484"/>
    <use xlink:href="#DejaVuSans-64" x="394.775391"/>
    <use xlink:href="#DejaVuSans-69" x="458.251953"/>
    <use xlink:href="#DejaVuSans-61" x="486.035156"/>
    <use xlink:href="#DejaVuSans-29" x="547.314453"/>
    <use xlink:href="#DejaVuSans-20" x="586.328125"/>
    <use xlink:href="#DejaVuSans-4c" x="618.115234"/>
    <use xlink:href="#DejaVuSans-69" x="673.828125"/>
    <use xlink:href="#DejaVuSans-6d" x="701.611328"/>
    <use xlink:href="#DejaVuSans-69" x="799.023438"/>
    <use xlink:href="#DejaVuSans-74" x="826.806641"/>
    <use xlink:href="#DejaVuSans-65" x="866.015625"/>
    <use xlink:href="#DejaVuSans-64" x="927.539062"/>
   </g>
  </g>
 </g>
 <defs>
  <clipPath id="p7688d17b5c">
   <rect x="48.445313" y="48.331875" width="934.430793" height="253.385938"/>
  </clipPath>
  <clipPath id="pd1e3d96e10">
   <rect x="48.445313" y="331.135938" width="934.430793" height="253.385937"/>
  </clipPath>
 </defs>
</svg>
