<?xml version="1.0" encoding="utf-8" standalone="no"?>
<!DOCTYPE svg PUBLIC "-//W3C//DTD SVG 1.1//EN"
  "http://www.w3.org/Graphics/SVG/1.1/DTD/svg11.dtd">
<svg xmlns:xlink="http://www.w3.org/1999/xlink" width="1008pt" height="612pt" viewBox="0 0 1008 612" xmlns="http://www.w3.org/2000/svg" version="1.1">
 <metadata>
  <rdf:RDF xmlns:dc="http://purl.org/dc/elements/1.1/" xmlns:cc="http://creativecommons.org/ns#" xmlns:rdf="http://www.w3.org/1999/02/22-rdf-syntax-ns#">
   <cc:Work>
    <dc:type rdf:resource="http://purl.org/dc/dcmitype/StillImage"/>
    <dc:date>2022-11-20T19:47:23.337136</dc:date>
    <dc:format>image/svg+xml</dc:format>
    <dc:creator>
     <cc:Agent>
      <dc:title>Matplotlib v3.5.2, https://matplotlib.org/</dc:title>
     </cc:Agent>
    </dc:creator>
   </cc:Work>
  </rdf:RDF>
 </metadata>
 <defs>
  <style type="text/css">*{stroke-linejoin: round; stroke-linecap: butt}</style>
 </defs>
 <g id="figure_1">
  <g id="patch_1">
   <path d="M 0 612 
L 1008 612 
L 1008 0 
L 0 0 
z
" style="fill: #ffffff"/>
  </g>
  <g id="axes_1">
   <g id="patch_2">
    <path d="M 38.904688 300.845849 
L 982.876106 300.845849 
L 982.876106 48.331875 
L 38.904688 48.331875 
z
" style="fill: #ffffff"/>
   </g>
   <g id="matplotlib.axis_1">
    <g id="xtick_1">
     <g id="line2d_1">
      <path d="M 76.432192 300.845849 
L 76.432192 48.331875 
" clip-path="url(#p19cf1c336e)" style="fill: none; stroke-dasharray: 2.96,1.28; stroke-dashoffset: 0; stroke: #b0b0b0; stroke-width: 0.8"/>
     </g>
     <g id="line2d_2">
      <defs>
       <path id="m8fc609eb99" d="M 0 0 
L 0 3.5 
" style="stroke: #000000; stroke-width: 0.8"/>
      </defs>
      <g>
       <use xlink:href="#m8fc609eb99" x="76.432192" y="300.845849" style="stroke: #000000; stroke-width: 0.8"/>
      </g>
     </g>
    </g>
    <g id="xtick_2">
     <g id="line2d_3">
      <path d="M 159.826646 300.845849 
L 159.826646 48.331875 
" clip-path="url(#p19cf1c336e)" style="fill: none; stroke-dasharray: 2.96,1.28; stroke-dashoffset: 0; stroke: #b0b0b0; stroke-width: 0.8"/>
     </g>
     <g id="line2d_4">
      <g>
       <use xlink:href="#m8fc609eb99" x="159.826646" y="300.845849" style="stroke: #000000; stroke-width: 0.8"/>
      </g>
     </g>
    </g>
    <g id="xtick_3">
     <g id="line2d_5">
      <path d="M 235.150669 300.845849 
L 235.150669 48.331875 
" clip-path="url(#p19cf1c336e)" style="fill: none; stroke-dasharray: 2.96,1.28; stroke-dashoffset: 0; stroke: #b0b0b0; stroke-width: 0.8"/>
     </g>
     <g id="line2d_6">
      <g>
       <use xlink:href="#m8fc609eb99" x="235.150669" y="300.845849" style="stroke: #000000; stroke-width: 0.8"/>
      </g>
     </g>
    </g>
    <g id="xtick_4">
     <g id="line2d_7">
      <path d="M 318.545123 300.845849 
L 318.545123 48.331875 
" clip-path="url(#p19cf1c336e)" style="fill: none; stroke-dasharray: 2.96,1.28; stroke-dashoffset: 0; stroke: #b0b0b0; stroke-width: 0.8"/>
     </g>
     <g id="line2d_8">
      <g>
       <use xlink:href="#m8fc609eb99" x="318.545123" y="300.845849" style="stroke: #000000; stroke-width: 0.8"/>
      </g>
     </g>
    </g>
    <g id="xtick_5">
     <g id="line2d_9">
      <path d="M 399.249434 300.845849 
L 399.249434 48.331875 
" clip-path="url(#p19cf1c336e)" style="fill: none; stroke-dasharray: 2.96,1.28; stroke-dashoffset: 0; stroke: #b0b0b0; stroke-width: 0.8"/>
     </g>
     <g id="line2d_10">
      <g>
       <use xlink:href="#m8fc609eb99" x="399.249434" y="300.845849" style="stroke: #000000; stroke-width: 0.8"/>
      </g>
     </g>
    </g>
    <g id="xtick_6">
     <g id="line2d_11">
      <path d="M 482.643888 300.845849 
L 482.643888 48.331875 
" clip-path="url(#p19cf1c336e)" style="fill: none; stroke-dasharray: 2.96,1.28; stroke-dashoffset: 0; stroke: #b0b0b0; stroke-width: 0.8"/>
     </g>
     <g id="line2d_12">
      <g>
       <use xlink:href="#m8fc609eb99" x="482.643888" y="300.845849" style="stroke: #000000; stroke-width: 0.8"/>
      </g>
     </g>
    </g>
    <g id="xtick_7">
     <g id="line2d_13">
      <path d="M 563.348198 300.845849 
L 563.348198 48.331875 
" clip-path="url(#p19cf1c336e)" style="fill: none; stroke-dasharray: 2.96,1.28; stroke-dashoffset: 0; stroke: #b0b0b0; stroke-width: 0.8"/>
     </g>
     <g id="line2d_14">
      <g>
       <use xlink:href="#m8fc609eb99" x="563.348198" y="300.845849" style="stroke: #000000; stroke-width: 0.8"/>
      </g>
     </g>
    </g>
    <g id="xtick_8">
     <g id="line2d_15">
      <path d="M 646.742653 300.845849 
L 646.742653 48.331875 
" clip-path="url(#p19cf1c336e)" style="fill: none; stroke-dasharray: 2.96,1.28; stroke-dashoffset: 0; stroke: #b0b0b0; stroke-width: 0.8"/>
     </g>
     <g id="line2d_16">
      <g>
       <use xlink:href="#m8fc609eb99" x="646.742653" y="300.845849" style="stroke: #000000; stroke-width: 0.8"/>
      </g>
     </g>
    </g>
    <g id="xtick_9">
     <g id="line2d_17">
      <path d="M 730.137107 300.845849 
L 730.137107 48.331875 
" clip-path="url(#p19cf1c336e)" style="fill: none; stroke-dasharray: 2.96,1.28; stroke-dashoffset: 0; stroke: #b0b0b0; stroke-width: 0.8"/>
     </g>
     <g id="line2d_18">
      <g>
       <use xlink:href="#m8fc609eb99" x="730.137107" y="300.845849" style="stroke: #000000; stroke-width: 0.8"/>
      </g>
     </g>
    </g>
    <g id="xtick_10">
     <g id="line2d_19">
      <path d="M 810.841417 300.845849 
L 810.841417 48.331875 
" clip-path="url(#p19cf1c336e)" style="fill: none; stroke-dasharray: 2.96,1.28; stroke-dashoffset: 0; stroke: #b0b0b0; stroke-width: 0.8"/>
     </g>
     <g id="line2d_20">
      <g>
       <use xlink:href="#m8fc609eb99" x="810.841417" y="300.845849" style="stroke: #000000; stroke-width: 0.8"/>
      </g>
     </g>
    </g>
    <g id="xtick_11">
     <g id="line2d_21">
      <path d="M 894.235872 300.845849 
L 894.235872 48.331875 
" clip-path="url(#p19cf1c336e)" style="fill: none; stroke-dasharray: 2.96,1.28; stroke-dashoffset: 0; stroke: #b0b0b0; stroke-width: 0.8"/>
     </g>
     <g id="line2d_22">
      <g>
       <use xlink:href="#m8fc609eb99" x="894.235872" y="300.845849" style="stroke: #000000; stroke-width: 0.8"/>
      </g>
     </g>
    </g>
    <g id="xtick_12">
     <g id="line2d_23">
      <path d="M 974.940182 300.845849 
L 974.940182 48.331875 
" clip-path="url(#p19cf1c336e)" style="fill: none; stroke-dasharray: 2.96,1.28; stroke-dashoffset: 0; stroke: #b0b0b0; stroke-width: 0.8"/>
     </g>
     <g id="line2d_24">
      <g>
       <use xlink:href="#m8fc609eb99" x="974.940182" y="300.845849" style="stroke: #000000; stroke-width: 0.8"/>
      </g>
     </g>
    </g>
   </g>
   <g id="matplotlib.axis_2">
    <g id="ytick_1">
     <g id="line2d_25">
      <path d="M 38.904688 300.09729 
L 982.876106 300.09729 
" clip-path="url(#p19cf1c336e)" style="fill: none; stroke-dasharray: 2.96,1.28; stroke-dashoffset: 0; stroke: #b0b0b0; stroke-width: 0.8"/>
     </g>
     <g id="line2d_26">
      <defs>
       <path id="m775ae834e5" d="M 0 0 
L -3.5 0 
" style="stroke: #000000; stroke-width: 0.8"/>
      </defs>
      <g>
       <use xlink:href="#m775ae834e5" x="38.904688" y="300.09729" style="stroke: #000000; stroke-width: 0.8"/>
      </g>
     </g>
     <g id="text_1">
      <!-- 550 -->
      <g transform="translate(12.817187 303.896509)scale(0.1 -0.1)">
       <defs>
        <path id="DejaVuSans-35" d="M 691 4666 
L 3169 4666 
L 3169 4134 
L 1269 4134 
L 1269 2991 
Q 1406 3038 1543 3061 
Q 1681 3084 1819 3084 
Q 2600 3084 3056 2656 
Q 3513 2228 3513 1497 
Q 3513 744 3044 326 
Q 2575 -91 1722 -91 
Q 1428 -91 1123 -41 
Q 819 9 494 109 
L 494 744 
Q 775 591 1075 516 
Q 1375 441 1709 441 
Q 2250 441 2565 725 
Q 2881 1009 2881 1497 
Q 2881 1984 2565 2268 
Q 2250 2553 1709 2553 
Q 1456 2553 1204 2497 
Q 953 2441 691 2322 
L 691 4666 
z
" transform="scale(0.015625)"/>
        <path id="DejaVuSans-30" d="M 2034 4250 
Q 1547 4250 1301 3770 
Q 1056 3291 1056 2328 
Q 1056 1369 1301 889 
Q 1547 409 2034 409 
Q 2525 409 2770 889 
Q 3016 1369 3016 2328 
Q 3016 3291 2770 3770 
Q 2525 4250 2034 4250 
z
M 2034 4750 
Q 2819 4750 3233 4129 
Q 3647 3509 3647 2328 
Q 3647 1150 3233 529 
Q 2819 -91 2034 -91 
Q 1250 -91 836 529 
Q 422 1150 422 2328 
Q 422 3509 836 4129 
Q 1250 4750 2034 4750 
z
" transform="scale(0.015625)"/>
       </defs>
       <use xlink:href="#DejaVuSans-35"/>
       <use xlink:href="#DejaVuSans-35" x="63.623047"/>
       <use xlink:href="#DejaVuSans-30" x="127.246094"/>
      </g>
     </g>
    </g>
    <g id="ytick_2">
     <g id="line2d_27">
      <path d="M 38.904688 250.193343 
L 982.876106 250.193343 
" clip-path="url(#p19cf1c336e)" style="fill: none; stroke-dasharray: 2.96,1.28; stroke-dashoffset: 0; stroke: #b0b0b0; stroke-width: 0.8"/>
     </g>
     <g id="line2d_28">
      <g>
       <use xlink:href="#m775ae834e5" x="38.904688" y="250.193343" style="stroke: #000000; stroke-width: 0.8"/>
      </g>
     </g>
     <g id="text_2">
      <!-- 600 -->
      <g transform="translate(12.817187 253.992562)scale(0.1 -0.1)">
       <defs>
        <path id="DejaVuSans-36" d="M 2113 2584 
Q 1688 2584 1439 2293 
Q 1191 2003 1191 1497 
Q 1191 994 1439 701 
Q 1688 409 2113 409 
Q 2538 409 2786 701 
Q 3034 994 3034 1497 
Q 3034 2003 2786 2293 
Q 2538 2584 2113 2584 
z
M 3366 4563 
L 3366 3988 
Q 3128 4100 2886 4159 
Q 2644 4219 2406 4219 
Q 1781 4219 1451 3797 
Q 1122 3375 1075 2522 
Q 1259 2794 1537 2939 
Q 1816 3084 2150 3084 
Q 2853 3084 3261 2657 
Q 3669 2231 3669 1497 
Q 3669 778 3244 343 
Q 2819 -91 2113 -91 
Q 1303 -91 875 529 
Q 447 1150 447 2328 
Q 447 3434 972 4092 
Q 1497 4750 2381 4750 
Q 2619 4750 2861 4703 
Q 3103 4656 3366 4563 
z
" transform="scale(0.015625)"/>
       </defs>
       <use xlink:href="#DejaVuSans-36"/>
       <use xlink:href="#DejaVuSans-30" x="63.623047"/>
       <use xlink:href="#DejaVuSans-30" x="127.246094"/>
      </g>
     </g>
    </g>
    <g id="ytick_3">
     <g id="line2d_29">
      <path d="M 38.904688 200.289395 
L 982.876106 200.289395 
" clip-path="url(#p19cf1c336e)" style="fill: none; stroke-dasharray: 2.96,1.28; stroke-dashoffset: 0; stroke: #b0b0b0; stroke-width: 0.8"/>
     </g>
     <g id="line2d_30">
      <g>
       <use xlink:href="#m775ae834e5" x="38.904688" y="200.289395" style="stroke: #000000; stroke-width: 0.8"/>
      </g>
     </g>
     <g id="text_3">
      <!-- 650 -->
      <g transform="translate(12.817187 204.088614)scale(0.1 -0.1)">
       <use xlink:href="#DejaVuSans-36"/>
       <use xlink:href="#DejaVuSans-35" x="63.623047"/>
       <use xlink:href="#DejaVuSans-30" x="127.246094"/>
      </g>
     </g>
    </g>
    <g id="ytick_4">
     <g id="line2d_31">
      <path d="M 38.904688 150.385448 
L 982.876106 150.385448 
" clip-path="url(#p19cf1c336e)" style="fill: none; stroke-dasharray: 2.96,1.28; stroke-dashoffset: 0; stroke: #b0b0b0; stroke-width: 0.8"/>
     </g>
     <g id="line2d_32">
      <g>
       <use xlink:href="#m775ae834e5" x="38.904688" y="150.385448" style="stroke: #000000; stroke-width: 0.8"/>
      </g>
     </g>
     <g id="text_4">
      <!-- 700 -->
      <g transform="translate(12.817187 154.184666)scale(0.1 -0.1)">
       <defs>
        <path id="DejaVuSans-37" d="M 525 4666 
L 3525 4666 
L 3525 4397 
L 1831 0 
L 1172 0 
L 2766 4134 
L 525 4134 
L 525 4666 
z
" transform="scale(0.015625)"/>
       </defs>
       <use xlink:href="#DejaVuSans-37"/>
       <use xlink:href="#DejaVuSans-30" x="63.623047"/>
       <use xlink:href="#DejaVuSans-30" x="127.246094"/>
      </g>
     </g>
    </g>
    <g id="ytick_5">
     <g id="line2d_33">
      <path d="M 38.904688 100.4815 
L 982.876106 100.4815 
" clip-path="url(#p19cf1c336e)" style="fill: none; stroke-dasharray: 2.96,1.28; stroke-dashoffset: 0; stroke: #b0b0b0; stroke-width: 0.8"/>
     </g>
     <g id="line2d_34">
      <g>
       <use xlink:href="#m775ae834e5" x="38.904688" y="100.4815" style="stroke: #000000; stroke-width: 0.8"/>
      </g>
     </g>
     <g id="text_5">
      <!-- 750 -->
      <g transform="translate(12.817187 104.280719)scale(0.1 -0.1)">
       <use xlink:href="#DejaVuSans-37"/>
       <use xlink:href="#DejaVuSans-35" x="63.623047"/>
       <use xlink:href="#DejaVuSans-30" x="127.246094"/>
      </g>
     </g>
    </g>
    <g id="ytick_6">
     <g id="line2d_35">
      <path d="M 38.904688 50.577553 
L 982.876106 50.577553 
" clip-path="url(#p19cf1c336e)" style="fill: none; stroke-dasharray: 2.96,1.28; stroke-dashoffset: 0; stroke: #b0b0b0; stroke-width: 0.8"/>
     </g>
     <g id="line2d_36">
      <g>
       <use xlink:href="#m775ae834e5" x="38.904688" y="50.577553" style="stroke: #000000; stroke-width: 0.8"/>
      </g>
     </g>
     <g id="text_6">
      <!-- 800 -->
      <g transform="translate(12.817187 54.376771)scale(0.1 -0.1)">
       <defs>
        <path id="DejaVuSans-38" d="M 2034 2216 
Q 1584 2216 1326 1975 
Q 1069 1734 1069 1313 
Q 1069 891 1326 650 
Q 1584 409 2034 409 
Q 2484 409 2743 651 
Q 3003 894 3003 1313 
Q 3003 1734 2745 1975 
Q 2488 2216 2034 2216 
z
M 1403 2484 
Q 997 2584 770 2862 
Q 544 3141 544 3541 
Q 544 4100 942 4425 
Q 1341 4750 2034 4750 
Q 2731 4750 3128 4425 
Q 3525 4100 3525 3541 
Q 3525 3141 3298 2862 
Q 3072 2584 2669 2484 
Q 3125 2378 3379 2068 
Q 3634 1759 3634 1313 
Q 3634 634 3220 271 
Q 2806 -91 2034 -91 
Q 1263 -91 848 271 
Q 434 634 434 1313 
Q 434 1759 690 2068 
Q 947 2378 1403 2484 
z
M 1172 3481 
Q 1172 3119 1398 2916 
Q 1625 2713 2034 2713 
Q 2441 2713 2670 2916 
Q 2900 3119 2900 3481 
Q 2900 3844 2670 4047 
Q 2441 4250 2034 4250 
Q 1625 4250 1398 4047 
Q 1172 3844 1172 3481 
z
" transform="scale(0.015625)"/>
       </defs>
       <use xlink:href="#DejaVuSans-38"/>
       <use xlink:href="#DejaVuSans-30" x="63.623047"/>
       <use xlink:href="#DejaVuSans-30" x="127.246094"/>
      </g>
     </g>
    </g>
   </g>
   <g id="line2d_37">
    <path d="M 81.812479 74.132216 
L 84.502623 66.09768 
L 87.192767 60.807862 
L 89.88291 69.940284 
L 92.573054 59.809783 
L 100.643485 66.59672 
L 103.333629 64.351042 
L 106.023772 61.656229 
L 108.713916 68.592878 
L 111.40406 79.172515 
L 119.474491 74.631255 
L 122.164634 89.35292 
L 124.854778 102.028523 
L 127.544922 105.771319 
L 130.235066 105.721415 
L 138.305497 136.961286 
L 140.99564 123.387412 
L 146.375928 136.212727 
L 149.066071 124.036163 
L 157.136502 128.028479 
L 159.826646 118.696441 
L 162.51679 107.81738 
L 165.206933 113.656142 
L 167.897077 115.253069 
L 175.967508 131.32214 
L 178.657652 132.020795 
L 181.347796 128.976654 
L 184.037939 123.686836 
L 186.728083 132.469931 
L 194.798514 150.585063 
L 197.488658 127.729056 
L 200.178801 126.631169 
L 202.868945 124.834627 
L 205.559089 112.658063 
L 213.62952 123.786644 
L 216.319663 123.387412 
L 219.009807 120.193559 
L 221.699951 170.89597 
L 224.390094 164.657977 
L 232.460525 159.917102 
L 237.840813 173.091744 
L 240.530957 187.064849 
L 243.2211 197.245254 
L 251.291531 221.498573 
L 253.981675 210.71932 
L 256.671819 192.404572 
L 259.361962 173.191552 
L 262.052106 171.095586 
L 270.122537 172.991936 
L 272.812681 154.926707 
L 275.502824 144.59659 
L 278.192968 132.469931 
L 288.953543 156.823057 
L 291.643687 152.730933 
L 294.33383 167.35279 
L 297.023974 166.304807 
L 299.714118 161.763548 
L 307.784549 170.396931 
L 310.474692 163.011146 
L 315.85498 150.684871 
L 318.545123 138.807732 
L 326.615554 128.078383 
L 329.305698 126.481457 
L 331.995842 123.587028 
L 334.685985 126.581265 
L 337.376129 115.851916 
L 345.44656 118.347113 
L 348.136704 128.128287 
L 350.826848 126.281841 
L 364.277566 131.471852 
L 366.96771 147.690635 
L 369.657853 137.560133 
L 372.347997 135.364359 
L 375.038141 133.767433 
L 383.108572 134.665704 
L 385.798715 130.723292 
L 388.488859 132.569738 
L 391.179003 120.892215 
L 393.869146 132.469931 
L 401.939578 137.061094 
L 407.319865 163.210762 
L 410.010009 163.210762 
L 412.700152 183.621477 
L 420.770583 186.016866 
L 423.460727 173.740495 
L 426.150871 186.915137 
L 428.841014 190.10899 
L 431.531158 193.801882 
L 439.601589 216.558082 
L 442.291733 208.872874 
L 444.981876 209.521626 
L 447.67202 223.295115 
L 450.362164 219.901647 
L 458.432595 224.143482 
L 461.122739 240.062841 
L 463.812882 283.978315 
L 466.503026 282.081965 
L 469.19317 274.895797 
L 479.953744 235.321966 
L 482.643888 249.195264 
L 485.334032 227.78647 
L 488.024175 241.31044 
L 496.094606 260.27394 
L 498.78475 269.206747 
L 501.474894 269.256651 
L 504.165037 269.057035 
L 506.855181 269.406363 
L 514.925612 278.039745 
L 517.615756 279.836288 
L 520.3059 274.596373 
L 522.996043 281.533022 
L 525.686187 289.367942 
L 533.756618 271.452424 
L 536.446762 264.715391 
L 539.136905 265.314239 
L 541.827049 255.782585 
L 544.517193 256.082009 
L 552.587624 250.193343 
L 555.277767 267.909244 
L 557.967911 281.283502 
L 560.658055 281.832445 
L 563.348198 267.909244 
L 571.41863 266.46203 
L 574.108773 275.095413 
L 576.798917 258.078166 
L 579.489061 256.930376 
L 582.179204 264.915007 
L 590.249635 257.579127 
L 592.939779 269.855498 
L 595.629923 263.517697 
L 598.320066 270.204826 
L 601.01021 276.492723 
L 609.080641 274.396757 
L 611.770785 271.153001 
L 614.460928 271.90156 
L 617.151072 256.032105 
L 619.841216 260.77298 
L 627.911647 255.632873 
L 630.601791 264.116544 
L 633.291934 253.337291 
L 635.982078 233.026385 
L 638.672222 225.540793 
L 646.742653 221.348861 
L 649.432796 197.844102 
L 652.12294 192.953515 
L 654.813084 183.322053 
L 657.503227 176.58502 
L 665.573658 175.686749 
L 670.953946 183.9209 
L 673.64409 173.441071 
L 676.334233 173.940111 
L 687.094808 170.197315 
L 689.784952 145.395053 
L 692.475095 143.249183 
L 695.165239 153.279877 
L 703.23567 181.824935 
L 705.925814 189.011103 
L 708.615957 190.608029 
L 711.306101 194.500537 
L 713.996245 190.158894 
L 722.066676 188.162736 
L 724.756819 176.634924 
L 730.137107 175.686749 
L 732.827251 182.174262 
L 743.587825 192.454475 
L 746.277969 190.608029 
L 748.968113 185.118595 
L 751.658256 186.31629 
L 762.418831 185.567731 
L 765.108975 192.454475 
L 767.799118 195.448712 
L 770.489262 211.268264 
L 778.559693 218.654048 
L 781.249837 216.358466 
L 783.939981 227.237527 
L 786.630124 214.961156 
L 789.320268 216.558082 
L 797.390699 223.494731 
L 800.080843 221.748093 
L 802.770986 221.548477 
L 805.46113 229.93234 
L 808.151274 233.226001 
L 816.221705 244.753812 
L 818.911848 235.072447 
L 824.292136 234.773023 
L 826.982279 224.343098 
L 835.05271 227.487047 
L 837.742854 232.577249 
L 840.432998 224.542714 
L 843.123142 235.022543 
L 845.813285 237.817164 
L 853.883716 236.469757 
L 856.57386 230.830611 
L 859.264004 231.479362 
L 861.954147 231.379555 
L 864.644291 264.815199 
L 872.714722 260.174132 
L 875.404866 266.811357 
L 880.785153 276.193299 
L 883.475297 275.295028 
L 891.545728 264.366064 
L 894.235872 251.690461 
L 896.926015 254.58489 
L 899.616159 243.506214 
L 902.306303 245.951507 
L 910.376734 235.771102 
L 915.757021 261.471635 
L 918.447165 267.010973 
L 921.137308 252.089693 
L 929.207739 248.796032 
L 931.897883 240.911209 
L 934.588027 241.659768 
L 937.27817 240.412169 
L 939.968314 246.650162 
L 939.968314 246.650162 
" clip-path="url(#p19cf1c336e)" style="fill: none; stroke: #1f77b4; stroke-width: 1.5; stroke-linecap: square"/>
   </g>
   <g id="line2d_38">
    <path d="M 92.573054 66.157565 
L 100.643485 64.650466 
L 103.333629 64.301138 
L 106.023772 64.470812 
L 108.713916 64.20133 
L 111.40406 68.073877 
L 119.474491 69.680784 
L 122.164634 74.681159 
L 124.854778 82.755618 
L 127.544922 90.191306 
L 130.235066 95.501086 
L 138.305497 107.967092 
L 140.99564 114.773991 
L 146.375928 121.610832 
L 149.066071 125.263801 
L 157.136502 129.725213 
L 159.826646 126.072244 
L 162.51679 122.958238 
L 165.206933 118.446921 
L 167.897077 116.690302 
L 175.967508 117.349034 
L 178.657652 120.013905 
L 181.347796 124.24576 
L 184.037939 126.251899 
L 186.728083 129.695271 
L 194.798514 133.547856 
L 197.488658 132.689508 
L 200.178801 132.220411 
L 202.868945 132.449969 
L 205.559089 128.487596 
L 213.62952 123.127912 
L 216.319663 122.259583 
L 219.009807 120.972061 
L 221.699951 130.18433 
L 224.390094 140.584312 
L 232.460525 147.810404 
L 237.840813 157.75127 
L 240.530957 171.125528 
L 243.2211 176.395385 
L 251.291531 187.763504 
L 253.981675 197.923948 
L 256.671819 201.786514 
L 259.361962 199.011854 
L 262.052106 193.78192 
L 270.122537 184.080593 
L 272.812681 172.92207 
L 275.502824 163.360474 
L 278.192968 155.21615 
L 288.953543 152.361644 
L 291.643687 148.309443 
L 294.33383 150.79466 
L 297.023974 155.136304 
L 299.714118 160.995027 
L 307.784549 163.709802 
L 310.474692 165.765844 
L 313.164836 163.659898 
L 315.85498 160.535911 
L 318.545123 155.944747 
L 326.615554 147.481038 
L 329.305698 140.1751 
L 331.995842 133.527894 
L 334.685985 128.707173 
L 337.376129 124.11601 
L 345.44656 122.169756 
L 348.136704 122.499122 
L 350.826848 123.038084 
L 364.277566 124.016202 
L 366.96771 130.383946 
L 369.657853 134.226549 
L 375.038141 137.170882 
L 383.108572 137.809653 
L 385.798715 134.416184 
L 388.488859 133.418106 
L 391.179003 130.523677 
L 393.869146 130.264176 
L 401.939578 130.743254 
L 407.319865 137.240748 
L 410.010009 143.368953 
L 412.700152 155.914805 
L 420.770583 166.624192 
L 423.460727 173.960073 
L 426.150871 178.700948 
L 428.841014 184.080593 
L 439.601589 192.224917 
L 442.291733 199.251393 
L 444.981876 203.772691 
L 447.67202 210.409916 
L 450.362164 215.629869 
L 458.432595 217.146949 
L 461.122739 223.384942 
L 463.812882 238.27628 
L 466.503026 250.03365 
L 469.19317 261.03248 
L 477.263601 265.20445 
L 479.953744 264.256275 
L 482.643888 257.299665 
L 485.334032 246.440566 
L 488.024175 239.723495 
L 496.094606 242.777616 
L 498.78475 249.554572 
L 501.474894 253.56685 
L 504.165037 261.820963 
L 506.855181 267.440147 
L 514.925612 270.993308 
L 517.615756 273.119216 
L 520.3059 274.187161 
L 522.996043 276.682358 
L 525.686187 280.674674 
L 533.756618 279.35721 
L 536.446762 276.33303 
L 539.136905 274.476604 
L 541.827049 269.326516 
L 544.517193 262.66933 
L 552.587624 258.417513 
L 555.277767 259.056284 
L 557.967911 262.250136 
L 560.658055 267.460109 
L 563.348198 269.825556 
L 571.41863 273.079293 
L 574.108773 274.516527 
L 576.798917 269.87546 
L 579.489061 264.895046 
L 590.249635 262.519618 
L 592.939779 261.471635 
L 595.629923 262.559541 
L 598.320066 265.214431 
L 601.01021 267.529974 
L 609.080641 270.8935 
L 611.770785 271.153001 
L 614.460928 272.829773 
L 617.151072 269.995229 
L 619.841216 266.85128 
L 627.911647 263.098504 
L 630.601791 261.691212 
L 633.291934 257.978359 
L 635.982078 253.377215 
L 638.672222 246.330777 
L 646.742653 239.473975 
L 649.432796 226.219486 
L 652.12294 214.142731 
L 657.503227 194.41071 
L 665.573658 185.278288 
L 670.953946 182.493648 
L 673.64409 178.591159 
L 676.334233 176.71477 
L 687.094808 175.437229 
L 689.784952 169.37889 
L 692.475095 161.244547 
L 695.165239 157.212308 
L 703.23567 158.789272 
L 705.925814 162.55203 
L 708.615957 171.594625 
L 711.306101 181.844896 
L 713.996245 189.2207 
L 722.066676 190.48826 
L 724.756819 188.013024 
L 730.137107 185.028768 
L 732.827251 182.563513 
L 740.897682 182.493648 
L 743.587825 183.351995 
L 746.277969 186.146616 
L 748.968113 188.032986 
L 751.658256 188.861391 
L 759.728687 188.062928 
L 762.418831 186.685579 
L 765.108975 187.054868 
L 767.799118 189.120892 
L 770.489262 194.111287 
L 778.559693 200.678646 
L 781.249837 206.836793 
L 783.939981 213.793403 
L 786.630124 217.695892 
L 789.320268 218.753856 
L 797.390699 219.721992 
L 800.080843 220.799918 
L 802.770986 219.662108 
L 805.46113 222.656345 
L 808.151274 225.989928 
L 816.221705 230.241745 
L 818.911848 232.906615 
L 824.292136 235.551525 
L 826.982279 234.433676 
L 835.05271 233.285885 
L 837.742854 230.850573 
L 840.432998 228.744626 
L 843.123142 228.79453 
L 845.813285 231.489343 
L 853.883716 233.285885 
L 856.57386 232.936558 
L 859.264004 234.323887 
L 861.954147 233.59529 
L 864.644291 238.994897 
L 872.714722 243.735772 
L 875.404866 250.931921 
L 880.785153 259.874709 
L 883.475297 268.657803 
L 891.545728 268.567976 
L 894.235872 266.871242 
L 896.926015 264.425949 
L 899.616159 257.888531 
L 902.306303 252.019827 
L 910.376734 246.300835 
L 915.757021 248.25707 
L 918.447165 250.742286 
L 921.137308 252.458982 
L 929.207739 253.027887 
L 931.897883 254.055908 
L 934.588027 250.093535 
L 937.27817 244.773774 
L 939.968314 243.685868 
L 939.968314 243.685868 
" clip-path="url(#p19cf1c336e)" style="fill: none; stroke: #ff7f0e; stroke-width: 1.5; stroke-linecap: square"/>
   </g>
   <g id="patch_3">
    <path d="M 38.904688 300.845849 
L 38.904688 48.331875 
" style="fill: none; stroke: #000000; stroke-width: 0.8; stroke-linejoin: miter; stroke-linecap: square"/>
   </g>
   <g id="patch_4">
    <path d="M 982.876106 300.845849 
L 982.876106 48.331875 
" style="fill: none; stroke: #000000; stroke-width: 0.8; stroke-linejoin: miter; stroke-linecap: square"/>
   </g>
   <g id="patch_5">
    <path d="M 38.904687 300.845849 
L 982.876106 300.845849 
" style="fill: none; stroke: #000000; stroke-width: 0.8; stroke-linejoin: miter; stroke-linecap: square"/>
   </g>
   <g id="patch_6">
    <path d="M 38.904687 48.331875 
L 982.876106 48.331875 
" style="fill: none; stroke: #000000; stroke-width: 0.8; stroke-linejoin: miter; stroke-linecap: square"/>
   </g>
   <g id="text_7">
    <!-- Closing Price -->
    <g transform="translate(472.414459 42.331875)scale(0.12 -0.12)">
     <defs>
      <path id="DejaVuSans-43" d="M 4122 4306 
L 4122 3641 
Q 3803 3938 3442 4084 
Q 3081 4231 2675 4231 
Q 1875 4231 1450 3742 
Q 1025 3253 1025 2328 
Q 1025 1406 1450 917 
Q 1875 428 2675 428 
Q 3081 428 3442 575 
Q 3803 722 4122 1019 
L 4122 359 
Q 3791 134 3420 21 
Q 3050 -91 2638 -91 
Q 1578 -91 968 557 
Q 359 1206 359 2328 
Q 359 3453 968 4101 
Q 1578 4750 2638 4750 
Q 3056 4750 3426 4639 
Q 3797 4528 4122 4306 
z
" transform="scale(0.015625)"/>
      <path id="DejaVuSans-6c" d="M 603 4863 
L 1178 4863 
L 1178 0 
L 603 0 
L 603 4863 
z
" transform="scale(0.015625)"/>
      <path id="DejaVuSans-6f" d="M 1959 3097 
Q 1497 3097 1228 2736 
Q 959 2375 959 1747 
Q 959 1119 1226 758 
Q 1494 397 1959 397 
Q 2419 397 2687 759 
Q 2956 1122 2956 1747 
Q 2956 2369 2687 2733 
Q 2419 3097 1959 3097 
z
M 1959 3584 
Q 2709 3584 3137 3096 
Q 3566 2609 3566 1747 
Q 3566 888 3137 398 
Q 2709 -91 1959 -91 
Q 1206 -91 779 398 
Q 353 888 353 1747 
Q 353 2609 779 3096 
Q 1206 3584 1959 3584 
z
" transform="scale(0.015625)"/>
      <path id="DejaVuSans-73" d="M 2834 3397 
L 2834 2853 
Q 2591 2978 2328 3040 
Q 2066 3103 1784 3103 
Q 1356 3103 1142 2972 
Q 928 2841 928 2578 
Q 928 2378 1081 2264 
Q 1234 2150 1697 2047 
L 1894 2003 
Q 2506 1872 2764 1633 
Q 3022 1394 3022 966 
Q 3022 478 2636 193 
Q 2250 -91 1575 -91 
Q 1294 -91 989 -36 
Q 684 19 347 128 
L 347 722 
Q 666 556 975 473 
Q 1284 391 1588 391 
Q 1994 391 2212 530 
Q 2431 669 2431 922 
Q 2431 1156 2273 1281 
Q 2116 1406 1581 1522 
L 1381 1569 
Q 847 1681 609 1914 
Q 372 2147 372 2553 
Q 372 3047 722 3315 
Q 1072 3584 1716 3584 
Q 2034 3584 2315 3537 
Q 2597 3491 2834 3397 
z
" transform="scale(0.015625)"/>
      <path id="DejaVuSans-69" d="M 603 3500 
L 1178 3500 
L 1178 0 
L 603 0 
L 603 3500 
z
M 603 4863 
L 1178 4863 
L 1178 4134 
L 603 4134 
L 603 4863 
z
" transform="scale(0.015625)"/>
      <path id="DejaVuSans-6e" d="M 3513 2113 
L 3513 0 
L 2938 0 
L 2938 2094 
Q 2938 2591 2744 2837 
Q 2550 3084 2163 3084 
Q 1697 3084 1428 2787 
Q 1159 2491 1159 1978 
L 1159 0 
L 581 0 
L 581 3500 
L 1159 3500 
L 1159 2956 
Q 1366 3272 1645 3428 
Q 1925 3584 2291 3584 
Q 2894 3584 3203 3211 
Q 3513 2838 3513 2113 
z
" transform="scale(0.015625)"/>
      <path id="DejaVuSans-67" d="M 2906 1791 
Q 2906 2416 2648 2759 
Q 2391 3103 1925 3103 
Q 1463 3103 1205 2759 
Q 947 2416 947 1791 
Q 947 1169 1205 825 
Q 1463 481 1925 481 
Q 2391 481 2648 825 
Q 2906 1169 2906 1791 
z
M 3481 434 
Q 3481 -459 3084 -895 
Q 2688 -1331 1869 -1331 
Q 1566 -1331 1297 -1286 
Q 1028 -1241 775 -1147 
L 775 -588 
Q 1028 -725 1275 -790 
Q 1522 -856 1778 -856 
Q 2344 -856 2625 -561 
Q 2906 -266 2906 331 
L 2906 616 
Q 2728 306 2450 153 
Q 2172 0 1784 0 
Q 1141 0 747 490 
Q 353 981 353 1791 
Q 353 2603 747 3093 
Q 1141 3584 1784 3584 
Q 2172 3584 2450 3431 
Q 2728 3278 2906 2969 
L 2906 3500 
L 3481 3500 
L 3481 434 
z
" transform="scale(0.015625)"/>
      <path id="DejaVuSans-20" transform="scale(0.015625)"/>
      <path id="DejaVuSans-50" d="M 1259 4147 
L 1259 2394 
L 2053 2394 
Q 2494 2394 2734 2622 
Q 2975 2850 2975 3272 
Q 2975 3691 2734 3919 
Q 2494 4147 2053 4147 
L 1259 4147 
z
M 628 4666 
L 2053 4666 
Q 2838 4666 3239 4311 
Q 3641 3956 3641 3272 
Q 3641 2581 3239 2228 
Q 2838 1875 2053 1875 
L 1259 1875 
L 1259 0 
L 628 0 
L 628 4666 
z
" transform="scale(0.015625)"/>
      <path id="DejaVuSans-72" d="M 2631 2963 
Q 2534 3019 2420 3045 
Q 2306 3072 2169 3072 
Q 1681 3072 1420 2755 
Q 1159 2438 1159 1844 
L 1159 0 
L 581 0 
L 581 3500 
L 1159 3500 
L 1159 2956 
Q 1341 3275 1631 3429 
Q 1922 3584 2338 3584 
Q 2397 3584 2469 3576 
Q 2541 3569 2628 3553 
L 2631 2963 
z
" transform="scale(0.015625)"/>
      <path id="DejaVuSans-63" d="M 3122 3366 
L 3122 2828 
Q 2878 2963 2633 3030 
Q 2388 3097 2138 3097 
Q 1578 3097 1268 2742 
Q 959 2388 959 1747 
Q 959 1106 1268 751 
Q 1578 397 2138 397 
Q 2388 397 2633 464 
Q 2878 531 3122 666 
L 3122 134 
Q 2881 22 2623 -34 
Q 2366 -91 2075 -91 
Q 1284 -91 818 406 
Q 353 903 353 1747 
Q 353 2603 823 3093 
Q 1294 3584 2113 3584 
Q 2378 3584 2631 3529 
Q 2884 3475 3122 3366 
z
" transform="scale(0.015625)"/>
      <path id="DejaVuSans-65" d="M 3597 1894 
L 3597 1613 
L 953 1613 
Q 991 1019 1311 708 
Q 1631 397 2203 397 
Q 2534 397 2845 478 
Q 3156 559 3463 722 
L 3463 178 
Q 3153 47 2828 -22 
Q 2503 -91 2169 -91 
Q 1331 -91 842 396 
Q 353 884 353 1716 
Q 353 2575 817 3079 
Q 1281 3584 2069 3584 
Q 2775 3584 3186 3129 
Q 3597 2675 3597 1894 
z
M 3022 2063 
Q 3016 2534 2758 2815 
Q 2500 3097 2075 3097 
Q 1594 3097 1305 2825 
Q 1016 2553 972 2059 
L 3022 2063 
z
" transform="scale(0.015625)"/>
     </defs>
     <use xlink:href="#DejaVuSans-43"/>
     <use xlink:href="#DejaVuSans-6c" x="69.824219"/>
     <use xlink:href="#DejaVuSans-6f" x="97.607422"/>
     <use xlink:href="#DejaVuSans-73" x="158.789062"/>
     <use xlink:href="#DejaVuSans-69" x="210.888672"/>
     <use xlink:href="#DejaVuSans-6e" x="238.671875"/>
     <use xlink:href="#DejaVuSans-67" x="302.050781"/>
     <use xlink:href="#DejaVuSans-20" x="365.527344"/>
     <use xlink:href="#DejaVuSans-50" x="397.314453"/>
     <use xlink:href="#DejaVuSans-72" x="455.867188"/>
     <use xlink:href="#DejaVuSans-69" x="496.980469"/>
     <use xlink:href="#DejaVuSans-63" x="524.763672"/>
     <use xlink:href="#DejaVuSans-65" x="579.744141"/>
    </g>
   </g>
   <g id="legend_1">
    <g id="patch_7">
     <path d="M 911.144856 85.688125 
L 975.876106 85.688125 
Q 977.876106 85.688125 977.876106 83.688125 
L 977.876106 55.331875 
Q 977.876106 53.331875 975.876106 53.331875 
L 911.144856 53.331875 
Q 909.144856 53.331875 909.144856 55.331875 
L 909.144856 83.688125 
Q 909.144856 85.688125 911.144856 85.688125 
z
" style="fill: #ffffff; opacity: 0.8; stroke: #cccccc; stroke-linejoin: miter"/>
    </g>
    <g id="line2d_39">
     <path d="M 913.144856 61.430312 
L 923.144856 61.430312 
L 933.144856 61.430312 
" style="fill: none; stroke: #1f77b4; stroke-width: 1.5; stroke-linecap: square"/>
    </g>
    <g id="text_8">
     <!-- CLOSE -->
     <g transform="translate(941.144856 64.930312)scale(0.1 -0.1)">
      <defs>
       <path id="DejaVuSans-4c" d="M 628 4666 
L 1259 4666 
L 1259 531 
L 3531 531 
L 3531 0 
L 628 0 
L 628 4666 
z
" transform="scale(0.015625)"/>
       <path id="DejaVuSans-4f" d="M 2522 4238 
Q 1834 4238 1429 3725 
Q 1025 3213 1025 2328 
Q 1025 1447 1429 934 
Q 1834 422 2522 422 
Q 3209 422 3611 934 
Q 4013 1447 4013 2328 
Q 4013 3213 3611 3725 
Q 3209 4238 2522 4238 
z
M 2522 4750 
Q 3503 4750 4090 4092 
Q 4678 3434 4678 2328 
Q 4678 1225 4090 567 
Q 3503 -91 2522 -91 
Q 1538 -91 948 565 
Q 359 1222 359 2328 
Q 359 3434 948 4092 
Q 1538 4750 2522 4750 
z
" transform="scale(0.015625)"/>
       <path id="DejaVuSans-53" d="M 3425 4513 
L 3425 3897 
Q 3066 4069 2747 4153 
Q 2428 4238 2131 4238 
Q 1616 4238 1336 4038 
Q 1056 3838 1056 3469 
Q 1056 3159 1242 3001 
Q 1428 2844 1947 2747 
L 2328 2669 
Q 3034 2534 3370 2195 
Q 3706 1856 3706 1288 
Q 3706 609 3251 259 
Q 2797 -91 1919 -91 
Q 1588 -91 1214 -16 
Q 841 59 441 206 
L 441 856 
Q 825 641 1194 531 
Q 1563 422 1919 422 
Q 2459 422 2753 634 
Q 3047 847 3047 1241 
Q 3047 1584 2836 1778 
Q 2625 1972 2144 2069 
L 1759 2144 
Q 1053 2284 737 2584 
Q 422 2884 422 3419 
Q 422 4038 858 4394 
Q 1294 4750 2059 4750 
Q 2388 4750 2728 4690 
Q 3069 4631 3425 4513 
z
" transform="scale(0.015625)"/>
       <path id="DejaVuSans-45" d="M 628 4666 
L 3578 4666 
L 3578 4134 
L 1259 4134 
L 1259 2753 
L 3481 2753 
L 3481 2222 
L 1259 2222 
L 1259 531 
L 3634 531 
L 3634 0 
L 628 0 
L 628 4666 
z
" transform="scale(0.015625)"/>
      </defs>
      <use xlink:href="#DejaVuSans-43"/>
      <use xlink:href="#DejaVuSans-4c" x="69.824219"/>
      <use xlink:href="#DejaVuSans-4f" x="121.912109"/>
      <use xlink:href="#DejaVuSans-53" x="200.623047"/>
      <use xlink:href="#DejaVuSans-45" x="264.099609"/>
     </g>
    </g>
    <g id="line2d_40">
     <path d="M 913.144856 76.108437 
L 923.144856 76.108437 
L 933.144856 76.108437 
" style="fill: none; stroke: #ff7f0e; stroke-width: 1.5; stroke-linecap: square"/>
    </g>
    <g id="text_9">
     <!-- SMA5 -->
     <g transform="translate(941.144856 79.608437)scale(0.1 -0.1)">
      <defs>
       <path id="DejaVuSans-4d" d="M 628 4666 
L 1569 4666 
L 2759 1491 
L 3956 4666 
L 4897 4666 
L 4897 0 
L 4281 0 
L 4281 4097 
L 3078 897 
L 2444 897 
L 1241 4097 
L 1241 0 
L 628 0 
L 628 4666 
z
" transform="scale(0.015625)"/>
       <path id="DejaVuSans-41" d="M 2188 4044 
L 1331 1722 
L 3047 1722 
L 2188 4044 
z
M 1831 4666 
L 2547 4666 
L 4325 0 
L 3669 0 
L 3244 1197 
L 1141 1197 
L 716 0 
L 50 0 
L 1831 4666 
z
" transform="scale(0.015625)"/>
      </defs>
      <use xlink:href="#DejaVuSans-53"/>
      <use xlink:href="#DejaVuSans-4d" x="63.476562"/>
      <use xlink:href="#DejaVuSans-41" x="149.755859"/>
      <use xlink:href="#DejaVuSans-35" x="218.164062"/>
     </g>
    </g>
   </g>
  </g>
  <g id="axes_2">
   <g id="patch_8">
    <path d="M 38.904688 584.521875 
L 982.876106 584.521875 
L 982.876106 332.007901 
L 38.904688 332.007901 
z
" style="fill: #ffffff"/>
   </g>
   <g id="matplotlib.axis_3">
    <g id="xtick_13">
     <g id="line2d_41">
      <path d="M 76.432192 584.521875 
L 76.432192 332.007901 
" clip-path="url(#p1b7fa04105)" style="fill: none; stroke-dasharray: 2.96,1.28; stroke-dashoffset: 0; stroke: #b0b0b0; stroke-width: 0.8"/>
     </g>
     <g id="line2d_42">
      <g>
       <use xlink:href="#m8fc609eb99" x="76.432192" y="584.521875" style="stroke: #000000; stroke-width: 0.8"/>
      </g>
     </g>
     <g id="text_10">
      <!-- 2022-01 -->
      <g transform="translate(55.540786 599.120313)scale(0.1 -0.1)">
       <defs>
        <path id="DejaVuSans-32" d="M 1228 531 
L 3431 531 
L 3431 0 
L 469 0 
L 469 531 
Q 828 903 1448 1529 
Q 2069 2156 2228 2338 
Q 2531 2678 2651 2914 
Q 2772 3150 2772 3378 
Q 2772 3750 2511 3984 
Q 2250 4219 1831 4219 
Q 1534 4219 1204 4116 
Q 875 4013 500 3803 
L 500 4441 
Q 881 4594 1212 4672 
Q 1544 4750 1819 4750 
Q 2544 4750 2975 4387 
Q 3406 4025 3406 3419 
Q 3406 3131 3298 2873 
Q 3191 2616 2906 2266 
Q 2828 2175 2409 1742 
Q 1991 1309 1228 531 
z
" transform="scale(0.015625)"/>
        <path id="DejaVuSans-2d" d="M 313 2009 
L 1997 2009 
L 1997 1497 
L 313 1497 
L 313 2009 
z
" transform="scale(0.015625)"/>
        <path id="DejaVuSans-31" d="M 794 531 
L 1825 531 
L 1825 4091 
L 703 3866 
L 703 4441 
L 1819 4666 
L 2450 4666 
L 2450 531 
L 3481 531 
L 3481 0 
L 794 0 
L 794 531 
z
" transform="scale(0.015625)"/>
       </defs>
       <use xlink:href="#DejaVuSans-32"/>
       <use xlink:href="#DejaVuSans-30" x="63.623047"/>
       <use xlink:href="#DejaVuSans-32" x="127.246094"/>
       <use xlink:href="#DejaVuSans-32" x="190.869141"/>
       <use xlink:href="#DejaVuSans-2d" x="254.492188"/>
       <use xlink:href="#DejaVuSans-30" x="290.576172"/>
       <use xlink:href="#DejaVuSans-31" x="354.199219"/>
      </g>
     </g>
    </g>
    <g id="xtick_14">
     <g id="line2d_43">
      <path d="M 159.826646 584.521875 
L 159.826646 332.007901 
" clip-path="url(#p1b7fa04105)" style="fill: none; stroke-dasharray: 2.96,1.28; stroke-dashoffset: 0; stroke: #b0b0b0; stroke-width: 0.8"/>
     </g>
     <g id="line2d_44">
      <g>
       <use xlink:href="#m8fc609eb99" x="159.826646" y="584.521875" style="stroke: #000000; stroke-width: 0.8"/>
      </g>
     </g>
     <g id="text_11">
      <!-- 2022-02 -->
      <g transform="translate(138.93524 599.120313)scale(0.1 -0.1)">
       <use xlink:href="#DejaVuSans-32"/>
       <use xlink:href="#DejaVuSans-30" x="63.623047"/>
       <use xlink:href="#DejaVuSans-32" x="127.246094"/>
       <use xlink:href="#DejaVuSans-32" x="190.869141"/>
       <use xlink:href="#DejaVuSans-2d" x="254.492188"/>
       <use xlink:href="#DejaVuSans-30" x="290.576172"/>
       <use xlink:href="#DejaVuSans-32" x="354.199219"/>
      </g>
     </g>
    </g>
    <g id="xtick_15">
     <g id="line2d_45">
      <path d="M 235.150669 584.521875 
L 235.150669 332.007901 
" clip-path="url(#p1b7fa04105)" style="fill: none; stroke-dasharray: 2.96,1.28; stroke-dashoffset: 0; stroke: #b0b0b0; stroke-width: 0.8"/>
     </g>
     <g id="line2d_46">
      <g>
       <use xlink:href="#m8fc609eb99" x="235.150669" y="584.521875" style="stroke: #000000; stroke-width: 0.8"/>
      </g>
     </g>
     <g id="text_12">
      <!-- 2022-03 -->
      <g transform="translate(214.259263 599.120313)scale(0.1 -0.1)">
       <defs>
        <path id="DejaVuSans-33" d="M 2597 2516 
Q 3050 2419 3304 2112 
Q 3559 1806 3559 1356 
Q 3559 666 3084 287 
Q 2609 -91 1734 -91 
Q 1441 -91 1130 -33 
Q 819 25 488 141 
L 488 750 
Q 750 597 1062 519 
Q 1375 441 1716 441 
Q 2309 441 2620 675 
Q 2931 909 2931 1356 
Q 2931 1769 2642 2001 
Q 2353 2234 1838 2234 
L 1294 2234 
L 1294 2753 
L 1863 2753 
Q 2328 2753 2575 2939 
Q 2822 3125 2822 3475 
Q 2822 3834 2567 4026 
Q 2313 4219 1838 4219 
Q 1578 4219 1281 4162 
Q 984 4106 628 3988 
L 628 4550 
Q 988 4650 1302 4700 
Q 1616 4750 1894 4750 
Q 2613 4750 3031 4423 
Q 3450 4097 3450 3541 
Q 3450 3153 3228 2886 
Q 3006 2619 2597 2516 
z
" transform="scale(0.015625)"/>
       </defs>
       <use xlink:href="#DejaVuSans-32"/>
       <use xlink:href="#DejaVuSans-30" x="63.623047"/>
       <use xlink:href="#DejaVuSans-32" x="127.246094"/>
       <use xlink:href="#DejaVuSans-32" x="190.869141"/>
       <use xlink:href="#DejaVuSans-2d" x="254.492188"/>
       <use xlink:href="#DejaVuSans-30" x="290.576172"/>
       <use xlink:href="#DejaVuSans-33" x="354.199219"/>
      </g>
     </g>
    </g>
    <g id="xtick_16">
     <g id="line2d_47">
      <path d="M 318.545123 584.521875 
L 318.545123 332.007901 
" clip-path="url(#p1b7fa04105)" style="fill: none; stroke-dasharray: 2.96,1.28; stroke-dashoffset: 0; stroke: #b0b0b0; stroke-width: 0.8"/>
     </g>
     <g id="line2d_48">
      <g>
       <use xlink:href="#m8fc609eb99" x="318.545123" y="584.521875" style="stroke: #000000; stroke-width: 0.8"/>
      </g>
     </g>
     <g id="text_13">
      <!-- 2022-04 -->
      <g transform="translate(297.653717 599.120313)scale(0.1 -0.1)">
       <defs>
        <path id="DejaVuSans-34" d="M 2419 4116 
L 825 1625 
L 2419 1625 
L 2419 4116 
z
M 2253 4666 
L 3047 4666 
L 3047 1625 
L 3713 1625 
L 3713 1100 
L 3047 1100 
L 3047 0 
L 2419 0 
L 2419 1100 
L 313 1100 
L 313 1709 
L 2253 4666 
z
" transform="scale(0.015625)"/>
       </defs>
       <use xlink:href="#DejaVuSans-32"/>
       <use xlink:href="#DejaVuSans-30" x="63.623047"/>
       <use xlink:href="#DejaVuSans-32" x="127.246094"/>
       <use xlink:href="#DejaVuSans-32" x="190.869141"/>
       <use xlink:href="#DejaVuSans-2d" x="254.492188"/>
       <use xlink:href="#DejaVuSans-30" x="290.576172"/>
       <use xlink:href="#DejaVuSans-34" x="354.199219"/>
      </g>
     </g>
    </g>
    <g id="xtick_17">
     <g id="line2d_49">
      <path d="M 399.249434 584.521875 
L 399.249434 332.007901 
" clip-path="url(#p1b7fa04105)" style="fill: none; stroke-dasharray: 2.96,1.28; stroke-dashoffset: 0; stroke: #b0b0b0; stroke-width: 0.8"/>
     </g>
     <g id="line2d_50">
      <g>
       <use xlink:href="#m8fc609eb99" x="399.249434" y="584.521875" style="stroke: #000000; stroke-width: 0.8"/>
      </g>
     </g>
     <g id="text_14">
      <!-- 2022-05 -->
      <g transform="translate(378.358028 599.120313)scale(0.1 -0.1)">
       <use xlink:href="#DejaVuSans-32"/>
       <use xlink:href="#DejaVuSans-30" x="63.623047"/>
       <use xlink:href="#DejaVuSans-32" x="127.246094"/>
       <use xlink:href="#DejaVuSans-32" x="190.869141"/>
       <use xlink:href="#DejaVuSans-2d" x="254.492188"/>
       <use xlink:href="#DejaVuSans-30" x="290.576172"/>
       <use xlink:href="#DejaVuSans-35" x="354.199219"/>
      </g>
     </g>
    </g>
    <g id="xtick_18">
     <g id="line2d_51">
      <path d="M 482.643888 584.521875 
L 482.643888 332.007901 
" clip-path="url(#p1b7fa04105)" style="fill: none; stroke-dasharray: 2.96,1.28; stroke-dashoffset: 0; stroke: #b0b0b0; stroke-width: 0.8"/>
     </g>
     <g id="line2d_52">
      <g>
       <use xlink:href="#m8fc609eb99" x="482.643888" y="584.521875" style="stroke: #000000; stroke-width: 0.8"/>
      </g>
     </g>
     <g id="text_15">
      <!-- 2022-06 -->
      <g transform="translate(461.752482 599.120313)scale(0.1 -0.1)">
       <use xlink:href="#DejaVuSans-32"/>
       <use xlink:href="#DejaVuSans-30" x="63.623047"/>
       <use xlink:href="#DejaVuSans-32" x="127.246094"/>
       <use xlink:href="#DejaVuSans-32" x="190.869141"/>
       <use xlink:href="#DejaVuSans-2d" x="254.492188"/>
       <use xlink:href="#DejaVuSans-30" x="290.576172"/>
       <use xlink:href="#DejaVuSans-36" x="354.199219"/>
      </g>
     </g>
    </g>
    <g id="xtick_19">
     <g id="line2d_53">
      <path d="M 563.348198 584.521875 
L 563.348198 332.007901 
" clip-path="url(#p1b7fa04105)" style="fill: none; stroke-dasharray: 2.96,1.28; stroke-dashoffset: 0; stroke: #b0b0b0; stroke-width: 0.8"/>
     </g>
     <g id="line2d_54">
      <g>
       <use xlink:href="#m8fc609eb99" x="563.348198" y="584.521875" style="stroke: #000000; stroke-width: 0.8"/>
      </g>
     </g>
     <g id="text_16">
      <!-- 2022-07 -->
      <g transform="translate(542.456792 599.120313)scale(0.1 -0.1)">
       <use xlink:href="#DejaVuSans-32"/>
       <use xlink:href="#DejaVuSans-30" x="63.623047"/>
       <use xlink:href="#DejaVuSans-32" x="127.246094"/>
       <use xlink:href="#DejaVuSans-32" x="190.869141"/>
       <use xlink:href="#DejaVuSans-2d" x="254.492188"/>
       <use xlink:href="#DejaVuSans-30" x="290.576172"/>
       <use xlink:href="#DejaVuSans-37" x="354.199219"/>
      </g>
     </g>
    </g>
    <g id="xtick_20">
     <g id="line2d_55">
      <path d="M 646.742653 584.521875 
L 646.742653 332.007901 
" clip-path="url(#p1b7fa04105)" style="fill: none; stroke-dasharray: 2.96,1.28; stroke-dashoffset: 0; stroke: #b0b0b0; stroke-width: 0.8"/>
     </g>
     <g id="line2d_56">
      <g>
       <use xlink:href="#m8fc609eb99" x="646.742653" y="584.521875" style="stroke: #000000; stroke-width: 0.8"/>
      </g>
     </g>
     <g id="text_17">
      <!-- 2022-08 -->
      <g transform="translate(625.851246 599.120313)scale(0.1 -0.1)">
       <use xlink:href="#DejaVuSans-32"/>
       <use xlink:href="#DejaVuSans-30" x="63.623047"/>
       <use xlink:href="#DejaVuSans-32" x="127.246094"/>
       <use xlink:href="#DejaVuSans-32" x="190.869141"/>
       <use xlink:href="#DejaVuSans-2d" x="254.492188"/>
       <use xlink:href="#DejaVuSans-30" x="290.576172"/>
       <use xlink:href="#DejaVuSans-38" x="354.199219"/>
      </g>
     </g>
    </g>
    <g id="xtick_21">
     <g id="line2d_57">
      <path d="M 730.137107 584.521875 
L 730.137107 332.007901 
" clip-path="url(#p1b7fa04105)" style="fill: none; stroke-dasharray: 2.96,1.28; stroke-dashoffset: 0; stroke: #b0b0b0; stroke-width: 0.8"/>
     </g>
     <g id="line2d_58">
      <g>
       <use xlink:href="#m8fc609eb99" x="730.137107" y="584.521875" style="stroke: #000000; stroke-width: 0.8"/>
      </g>
     </g>
     <g id="text_18">
      <!-- 2022-09 -->
      <g transform="translate(709.245701 599.120313)scale(0.1 -0.1)">
       <defs>
        <path id="DejaVuSans-39" d="M 703 97 
L 703 672 
Q 941 559 1184 500 
Q 1428 441 1663 441 
Q 2288 441 2617 861 
Q 2947 1281 2994 2138 
Q 2813 1869 2534 1725 
Q 2256 1581 1919 1581 
Q 1219 1581 811 2004 
Q 403 2428 403 3163 
Q 403 3881 828 4315 
Q 1253 4750 1959 4750 
Q 2769 4750 3195 4129 
Q 3622 3509 3622 2328 
Q 3622 1225 3098 567 
Q 2575 -91 1691 -91 
Q 1453 -91 1209 -44 
Q 966 3 703 97 
z
M 1959 2075 
Q 2384 2075 2632 2365 
Q 2881 2656 2881 3163 
Q 2881 3666 2632 3958 
Q 2384 4250 1959 4250 
Q 1534 4250 1286 3958 
Q 1038 3666 1038 3163 
Q 1038 2656 1286 2365 
Q 1534 2075 1959 2075 
z
" transform="scale(0.015625)"/>
       </defs>
       <use xlink:href="#DejaVuSans-32"/>
       <use xlink:href="#DejaVuSans-30" x="63.623047"/>
       <use xlink:href="#DejaVuSans-32" x="127.246094"/>
       <use xlink:href="#DejaVuSans-32" x="190.869141"/>
       <use xlink:href="#DejaVuSans-2d" x="254.492188"/>
       <use xlink:href="#DejaVuSans-30" x="290.576172"/>
       <use xlink:href="#DejaVuSans-39" x="354.199219"/>
      </g>
     </g>
    </g>
    <g id="xtick_22">
     <g id="line2d_59">
      <path d="M 810.841417 584.521875 
L 810.841417 332.007901 
" clip-path="url(#p1b7fa04105)" style="fill: none; stroke-dasharray: 2.96,1.28; stroke-dashoffset: 0; stroke: #b0b0b0; stroke-width: 0.8"/>
     </g>
     <g id="line2d_60">
      <g>
       <use xlink:href="#m8fc609eb99" x="810.841417" y="584.521875" style="stroke: #000000; stroke-width: 0.8"/>
      </g>
     </g>
     <g id="text_19">
      <!-- 2022-10 -->
      <g transform="translate(789.950011 599.120313)scale(0.1 -0.1)">
       <use xlink:href="#DejaVuSans-32"/>
       <use xlink:href="#DejaVuSans-30" x="63.623047"/>
       <use xlink:href="#DejaVuSans-32" x="127.246094"/>
       <use xlink:href="#DejaVuSans-32" x="190.869141"/>
       <use xlink:href="#DejaVuSans-2d" x="254.492188"/>
       <use xlink:href="#DejaVuSans-31" x="290.576172"/>
       <use xlink:href="#DejaVuSans-30" x="354.199219"/>
      </g>
     </g>
    </g>
    <g id="xtick_23">
     <g id="line2d_61">
      <path d="M 894.235872 584.521875 
L 894.235872 332.007901 
" clip-path="url(#p1b7fa04105)" style="fill: none; stroke-dasharray: 2.96,1.28; stroke-dashoffset: 0; stroke: #b0b0b0; stroke-width: 0.8"/>
     </g>
     <g id="line2d_62">
      <g>
       <use xlink:href="#m8fc609eb99" x="894.235872" y="584.521875" style="stroke: #000000; stroke-width: 0.8"/>
      </g>
     </g>
     <g id="text_20">
      <!-- 2022-11 -->
      <g transform="translate(873.344465 599.120313)scale(0.1 -0.1)">
       <use xlink:href="#DejaVuSans-32"/>
       <use xlink:href="#DejaVuSans-30" x="63.623047"/>
       <use xlink:href="#DejaVuSans-32" x="127.246094"/>
       <use xlink:href="#DejaVuSans-32" x="190.869141"/>
       <use xlink:href="#DejaVuSans-2d" x="254.492188"/>
       <use xlink:href="#DejaVuSans-31" x="290.576172"/>
       <use xlink:href="#DejaVuSans-31" x="354.199219"/>
      </g>
     </g>
    </g>
    <g id="xtick_24">
     <g id="line2d_63">
      <path d="M 974.940182 584.521875 
L 974.940182 332.007901 
" clip-path="url(#p1b7fa04105)" style="fill: none; stroke-dasharray: 2.96,1.28; stroke-dashoffset: 0; stroke: #b0b0b0; stroke-width: 0.8"/>
     </g>
     <g id="line2d_64">
      <g>
       <use xlink:href="#m8fc609eb99" x="974.940182" y="584.521875" style="stroke: #000000; stroke-width: 0.8"/>
      </g>
     </g>
     <g id="text_21">
      <!-- 2022-12 -->
      <g transform="translate(954.048776 599.120313)scale(0.1 -0.1)">
       <use xlink:href="#DejaVuSans-32"/>
       <use xlink:href="#DejaVuSans-30" x="63.623047"/>
       <use xlink:href="#DejaVuSans-32" x="127.246094"/>
       <use xlink:href="#DejaVuSans-32" x="190.869141"/>
       <use xlink:href="#DejaVuSans-2d" x="254.492188"/>
       <use xlink:href="#DejaVuSans-31" x="290.576172"/>
       <use xlink:href="#DejaVuSans-32" x="354.199219"/>
      </g>
     </g>
    </g>
   </g>
   <g id="matplotlib.axis_4">
    <g id="ytick_7">
     <g id="line2d_65">
      <path d="M 38.904688 566.945078 
L 982.876106 566.945078 
" clip-path="url(#p1b7fa04105)" style="fill: none; stroke-dasharray: 2.96,1.28; stroke-dashoffset: 0; stroke: #b0b0b0; stroke-width: 0.8"/>
     </g>
     <g id="line2d_66">
      <g>
       <use xlink:href="#m775ae834e5" x="38.904688" y="566.945078" style="stroke: #000000; stroke-width: 0.8"/>
      </g>
     </g>
     <g id="text_22">
      <!-- −30 -->
      <g transform="translate(10.8 570.744297)scale(0.1 -0.1)">
       <defs>
        <path id="DejaVuSans-2212" d="M 678 2272 
L 4684 2272 
L 4684 1741 
L 678 1741 
L 678 2272 
z
" transform="scale(0.015625)"/>
       </defs>
       <use xlink:href="#DejaVuSans-2212"/>
       <use xlink:href="#DejaVuSans-33" x="83.789062"/>
       <use xlink:href="#DejaVuSans-30" x="147.412109"/>
      </g>
     </g>
    </g>
    <g id="ytick_8">
     <g id="line2d_67">
      <path d="M 38.904688 528.039544 
L 982.876106 528.039544 
" clip-path="url(#p1b7fa04105)" style="fill: none; stroke-dasharray: 2.96,1.28; stroke-dashoffset: 0; stroke: #b0b0b0; stroke-width: 0.8"/>
     </g>
     <g id="line2d_68">
      <g>
       <use xlink:href="#m775ae834e5" x="38.904688" y="528.039544" style="stroke: #000000; stroke-width: 0.8"/>
      </g>
     </g>
     <g id="text_23">
      <!-- −20 -->
      <g transform="translate(10.8 531.838763)scale(0.1 -0.1)">
       <use xlink:href="#DejaVuSans-2212"/>
       <use xlink:href="#DejaVuSans-32" x="83.789062"/>
       <use xlink:href="#DejaVuSans-30" x="147.412109"/>
      </g>
     </g>
    </g>
    <g id="ytick_9">
     <g id="line2d_69">
      <path d="M 38.904688 489.13401 
L 982.876106 489.13401 
" clip-path="url(#p1b7fa04105)" style="fill: none; stroke-dasharray: 2.96,1.28; stroke-dashoffset: 0; stroke: #b0b0b0; stroke-width: 0.8"/>
     </g>
     <g id="line2d_70">
      <g>
       <use xlink:href="#m775ae834e5" x="38.904688" y="489.13401" style="stroke: #000000; stroke-width: 0.8"/>
      </g>
     </g>
     <g id="text_24">
      <!-- −10 -->
      <g transform="translate(10.8 492.933229)scale(0.1 -0.1)">
       <use xlink:href="#DejaVuSans-2212"/>
       <use xlink:href="#DejaVuSans-31" x="83.789062"/>
       <use xlink:href="#DejaVuSans-30" x="147.412109"/>
      </g>
     </g>
    </g>
    <g id="ytick_10">
     <g id="line2d_71">
      <path d="M 38.904688 450.228477 
L 982.876106 450.228477 
" clip-path="url(#p1b7fa04105)" style="fill: none; stroke-dasharray: 2.96,1.28; stroke-dashoffset: 0; stroke: #b0b0b0; stroke-width: 0.8"/>
     </g>
     <g id="line2d_72">
      <g>
       <use xlink:href="#m775ae834e5" x="38.904688" y="450.228477" style="stroke: #000000; stroke-width: 0.8"/>
      </g>
     </g>
     <g id="text_25">
      <!-- 0 -->
      <g transform="translate(25.542188 454.027695)scale(0.1 -0.1)">
       <use xlink:href="#DejaVuSans-30"/>
      </g>
     </g>
    </g>
    <g id="ytick_11">
     <g id="line2d_73">
      <path d="M 38.904688 411.322943 
L 982.876106 411.322943 
" clip-path="url(#p1b7fa04105)" style="fill: none; stroke-dasharray: 2.96,1.28; stroke-dashoffset: 0; stroke: #b0b0b0; stroke-width: 0.8"/>
     </g>
     <g id="line2d_74">
      <g>
       <use xlink:href="#m775ae834e5" x="38.904688" y="411.322943" style="stroke: #000000; stroke-width: 0.8"/>
      </g>
     </g>
     <g id="text_26">
      <!-- 10 -->
      <g transform="translate(19.179688 415.122162)scale(0.1 -0.1)">
       <use xlink:href="#DejaVuSans-31"/>
       <use xlink:href="#DejaVuSans-30" x="63.623047"/>
      </g>
     </g>
    </g>
    <g id="ytick_12">
     <g id="line2d_75">
      <path d="M 38.904688 372.417409 
L 982.876106 372.417409 
" clip-path="url(#p1b7fa04105)" style="fill: none; stroke-dasharray: 2.96,1.28; stroke-dashoffset: 0; stroke: #b0b0b0; stroke-width: 0.8"/>
     </g>
     <g id="line2d_76">
      <g>
       <use xlink:href="#m775ae834e5" x="38.904688" y="372.417409" style="stroke: #000000; stroke-width: 0.8"/>
      </g>
     </g>
     <g id="text_27">
      <!-- 20 -->
      <g transform="translate(19.179688 376.216628)scale(0.1 -0.1)">
       <use xlink:href="#DejaVuSans-32"/>
       <use xlink:href="#DejaVuSans-30" x="63.623047"/>
      </g>
     </g>
    </g>
    <g id="ytick_13">
     <g id="line2d_77">
      <path d="M 38.904688 333.511875 
L 982.876106 333.511875 
" clip-path="url(#p1b7fa04105)" style="fill: none; stroke-dasharray: 2.96,1.28; stroke-dashoffset: 0; stroke: #b0b0b0; stroke-width: 0.8"/>
     </g>
     <g id="line2d_78">
      <g>
       <use xlink:href="#m775ae834e5" x="38.904688" y="333.511875" style="stroke: #000000; stroke-width: 0.8"/>
      </g>
     </g>
     <g id="text_28">
      <!-- 30 -->
      <g transform="translate(19.179688 337.311094)scale(0.1 -0.1)">
       <use xlink:href="#DejaVuSans-33"/>
       <use xlink:href="#DejaVuSans-30" x="63.623047"/>
      </g>
     </g>
    </g>
   </g>
   <g id="line2d_79">
    <path d="M 81.812479 450.228477 
L 84.502623 449.525808 
L 87.192767 448.693714 
L 89.88291 449.638147 
L 92.573054 448.592403 
L 100.643485 449.125786 
L 103.333629 449.090283 
L 106.023772 448.585187 
L 108.713916 449.601941 
L 111.40406 452.456552 
L 119.474491 453.545008 
L 122.164634 457.450138 
L 124.854778 463.041572 
L 127.544922 467.905975 
L 130.235066 471.337375 
L 138.305497 481.061356 
L 140.99564 484.820207 
L 146.375928 490.426314 
L 149.066071 491.200919 
L 157.136502 492.317931 
L 159.826646 490.26985 
L 162.51679 485.36259 
L 165.206933 482.686509 
L 167.897077 480.652887 
L 175.967508 483.067417 
L 178.657652 484.753387 
L 181.347796 484.822465 
L 184.037939 482.998699 
L 186.728083 483.662659 
L 194.798514 488.921602 
L 200.178801 483.102759 
L 202.868945 479.88937 
L 205.559089 473.500442 
L 213.62952 471.482504 
L 216.319663 469.542285 
L 219.009807 466.861785 
L 221.699951 479.561948 
L 224.390094 487.313253 
L 232.460525 491.542868 
L 237.840813 498.315575 
L 240.530957 507.253117 
L 243.2211 516.655897 
L 251.291531 530.563044 
L 253.981675 537.278315 
L 256.671819 535.99841 
L 262.052106 520.544335 
L 270.122537 514.330172 
L 272.812681 503.223904 
L 275.502824 490.765933 
L 278.192968 476.83797 
L 288.953543 473.078187 
L 291.643687 468.618197 
L 294.33383 469.400066 
L 297.023974 469.471799 
L 299.714118 467.912479 
L 307.784549 469.144971 
L 310.474692 467.620658 
L 313.164836 464.3215 
L 315.85498 459.683699 
L 318.545123 452.278414 
L 326.615554 443.14172 
L 329.305698 435.571639 
L 331.995842 428.913959 
L 334.685985 424.867057 
L 337.376129 418.667431 
L 345.44656 414.942506 
L 348.136704 415.454255 
L 350.826848 415.680012 
L 364.277566 417.85835 
L 366.96771 424.958978 
L 369.657853 427.670526 
L 372.347997 429.371417 
L 375.038141 430.446635 
L 383.108572 431.793118 
L 385.798715 431.835321 
L 388.488859 432.650915 
L 391.179003 429.866816 
L 393.869146 431.510774 
L 401.939578 434.437156 
L 407.319865 445.027507 
L 410.010009 453.383904 
L 412.700152 466.232476 
L 420.770583 476.860283 
L 423.460727 481.070556 
L 426.150871 488.109626 
L 428.841014 494.18481 
L 431.531158 499.590693 
L 439.601589 510.333106 
L 442.291733 515.676651 
L 444.981876 519.318778 
L 447.67202 525.664658 
L 450.362164 528.722183 
L 458.432595 531.541257 
L 461.122739 537.770548 
L 463.812882 555.301764 
L 466.503026 567.250058 
L 469.19317 573.043967 
L 477.263601 566.892343 
L 479.953744 557.733841 
L 482.643888 553.645614 
L 485.334032 542.609056 
L 488.024175 537.113432 
L 496.094606 537.71267 
L 498.78475 539.962103 
L 501.474894 540.717342 
L 504.165037 540.215744 
L 506.855181 538.905826 
L 514.925612 539.553007 
L 517.615756 539.600625 
L 520.3059 536.990315 
L 522.996043 536.113091 
L 525.686187 536.883 
L 533.756618 530.92849 
L 536.446762 523.248951 
L 539.136905 516.586263 
L 541.827049 507.646387 
L 544.517193 500.080972 
L 552.587624 491.754588 
L 555.277767 490.266221 
L 557.967911 492.802314 
L 560.658055 494.474787 
L 563.348198 490.951691 
L 571.41863 487.277355 
L 574.108773 486.660831 
L 576.798917 480.471295 
L 579.489061 474.920403 
L 582.179204 472.772773 
L 590.249635 468.552208 
L 592.939779 468.85393 
L 595.629923 466.907366 
L 598.320066 467.271532 
L 601.01021 469.317816 
L 609.080641 470.051754 
L 611.770785 469.392234 
L 614.460928 468.889887 
L 617.151072 463.349071 
L 619.841216 460.332622 
L 627.911647 456.25585 
L 630.601791 455.631102 
L 633.291934 451.728253 
L 638.672222 432.742699 
L 646.742653 424.121036 
L 649.432796 410.354864 
L 654.813084 386.812023 
L 657.503227 376.280174 
L 665.573658 368.592125 
L 670.953946 366.059483 
L 673.64409 361.775683 
L 676.334233 359.582618 
L 687.094808 357.733574 
L 689.784952 349.626629 
L 692.475095 343.75423 
L 695.165239 343.485808 
L 703.23567 353.36813 
L 705.925814 364.449076 
L 711.306101 384.633837 
L 713.996245 391.888778 
L 722.066676 397.616975 
L 724.756819 399.119822 
L 730.137107 400.584863 
L 732.827251 404.315745 
L 740.897682 410.136252 
L 743.587825 415.975815 
L 746.277969 420.367155 
L 748.968113 422.441 
L 751.658256 424.754903 
L 759.728687 426.702908 
L 762.418831 428.419631 
L 765.108975 432.15464 
L 767.799118 436.21797 
L 770.489262 444.480316 
L 778.559693 453.315813 
L 781.249837 459.489206 
L 783.939981 467.603268 
L 786.630124 469.945041 
L 789.320268 472.051646 
L 797.390699 475.610405 
L 800.080843 477.566229 
L 802.770986 478.724957 
L 808.151274 485.077485 
L 816.221705 490.742666 
L 818.911848 491.709031 
L 824.292136 491.900335 
L 826.982279 488.332088 
L 835.05271 486.079851 
L 837.742854 485.489537 
L 840.432998 482.126828 
L 843.123142 482.387466 
L 845.813285 483.094186 
L 853.883716 482.854364 
L 856.57386 480.541144 
L 861.954147 476.698365 
L 864.644291 485.315493 
L 872.714722 490.22379 
L 875.404866 495.677412 
L 880.785153 502.349617 
L 883.475297 506.703832 
L 891.545728 506.073247 
L 894.235872 501.00125 
L 896.926015 497.348893 
L 899.616159 490.505407 
L 902.306303 485.445081 
L 910.376734 477.913462 
L 915.757021 479.688829 
L 918.447165 482.46654 
L 921.137308 479.635579 
L 929.207739 476.058286 
L 931.897883 470.509382 
L 934.588027 466.163597 
L 937.27817 462.189236 
L 939.968314 460.87885 
L 939.968314 460.87885 
" clip-path="url(#p1b7fa04105)" style="fill: none; stroke: #1f77b4; stroke-width: 1.5; stroke-linecap: square"/>
   </g>
   <g id="line2d_80">
    <path d="M 81.812479 450.228477 
L 87.192767 449.369092 
L 89.88291 449.460236 
L 92.573054 449.202075 
L 103.333629 449.158338 
L 106.023772 449.020599 
L 108.713916 449.154892 
L 111.40406 449.894656 
L 119.474491 450.693332 
L 122.164634 452.14441 
L 124.854778 454.450628 
L 130.235066 460.182506 
L 138.305497 464.479217 
L 140.99564 468.641133 
L 146.375928 473.078099 
L 149.066071 476.755662 
L 157.136502 479.904418 
L 159.826646 481.996804 
L 162.51679 482.674965 
L 165.206933 482.677287 
L 167.897077 482.270486 
L 175.967508 482.430477 
L 181.347796 483.282601 
L 184.037939 483.22571 
L 186.728083 483.313235 
L 197.488658 484.762287 
L 200.178801 484.430118 
L 202.868945 483.521392 
L 205.559089 481.516186 
L 213.62952 479.508635 
L 219.009807 475.383578 
L 221.699951 476.219426 
L 224.390094 478.43856 
L 232.460525 481.05977 
L 237.840813 484.511298 
L 240.530957 489.060049 
L 243.2211 494.579594 
L 251.291531 501.776676 
L 253.981675 508.877313 
L 256.671819 514.301721 
L 259.361962 517.079238 
L 262.052106 517.772273 
L 270.122537 517.08384 
L 272.812681 514.311813 
L 275.502824 509.602584 
L 278.192968 503.049601 
L 288.953543 497.055274 
L 291.643687 491.367826 
L 294.33383 486.974253 
L 297.023974 483.473749 
L 299.714118 480.361486 
L 307.784549 478.118178 
L 310.474692 476.01867 
L 313.164836 473.679232 
L 315.85498 470.880122 
L 318.545123 467.159777 
L 326.615554 462.356162 
L 329.305698 456.999254 
L 331.995842 451.382192 
L 337.376129 440.596815 
L 345.44656 435.465952 
L 348.136704 431.463612 
L 350.826848 428.306891 
L 364.277566 426.217183 
L 366.96771 425.965542 
L 369.657853 426.306539 
L 375.038141 427.624939 
L 383.108572 428.458574 
L 388.488859 429.837322 
L 391.179003 429.843221 
L 393.869146 430.176732 
L 401.939578 431.028817 
L 407.319865 433.828555 
L 410.010009 437.739625 
L 412.700152 443.438195 
L 420.770583 450.122612 
L 426.150871 462.671686 
L 431.531158 475.097587 
L 439.601589 482.144691 
L 442.291733 488.851083 
L 447.67202 501.088629 
L 450.362164 506.61534 
L 458.432595 511.600524 
L 461.122739 516.834528 
L 463.812882 524.527975 
L 466.503026 533.072392 
L 469.19317 541.066707 
L 477.263601 546.231834 
L 479.953744 548.532236 
L 482.643888 549.554911 
L 485.334032 548.16574 
L 488.024175 545.955279 
L 496.094606 544.306757 
L 498.78475 543.437826 
L 504.165037 542.358132 
L 506.855181 541.667671 
L 514.925612 541.244738 
L 517.615756 540.915915 
L 522.996043 539.327255 
L 525.686187 538.838404 
L 533.756618 537.256421 
L 536.446762 534.454927 
L 539.136905 530.881194 
L 541.827049 526.234233 
L 544.517193 521.003581 
L 552.587624 515.153782 
L 555.277767 510.17627 
L 557.967911 506.701479 
L 560.658055 504.25614 
L 563.348198 501.595251 
L 571.41863 498.731672 
L 574.108773 496.317503 
L 576.798917 493.148262 
L 579.489061 489.50269 
L 582.179204 486.156707 
L 590.249635 482.635807 
L 592.939779 479.879432 
L 595.629923 477.285018 
L 598.320066 475.282321 
L 601.01021 474.08942 
L 609.080641 473.281887 
L 614.460928 471.781143 
L 617.151072 470.094728 
L 619.841216 468.142307 
L 627.911647 465.765016 
L 630.601791 463.738233 
L 633.291934 461.336237 
L 635.982078 457.536529 
L 638.672222 452.577763 
L 646.742653 446.886417 
L 649.432796 439.580107 
L 652.12294 431.364699 
L 657.503227 413.219366 
L 665.573658 404.293918 
L 670.953946 396.647031 
L 673.64409 389.672761 
L 676.334233 383.654733 
L 687.094808 378.470501 
L 692.475095 366.912227 
L 695.165239 362.226944 
L 703.23567 360.455181 
L 705.925814 361.25396 
L 708.615957 363.924136 
L 711.306101 368.066076 
L 713.996245 372.830617 
L 722.066676 377.787888 
L 724.756819 382.054275 
L 730.137107 385.760393 
L 732.827251 389.471463 
L 740.897682 393.604421 
L 746.277969 402.536391 
L 748.968113 406.517313 
L 751.658256 410.164831 
L 759.728687 413.472446 
L 765.108975 419.600435 
L 767.799118 422.923942 
L 770.489262 427.235217 
L 778.559693 432.451336 
L 781.249837 437.85891 
L 783.939981 443.807781 
L 786.630124 449.035233 
L 789.320268 453.638516 
L 797.390699 458.032894 
L 800.080843 461.939561 
L 808.151274 471.911754 
L 816.221705 475.677936 
L 818.911848 478.884155 
L 826.982279 482.856331 
L 835.05271 483.501035 
L 837.742854 483.898735 
L 840.432998 483.544354 
L 843.123142 483.312976 
L 853.883716 483.186247 
L 856.57386 482.657227 
L 859.264004 481.842797 
L 861.954147 480.813911 
L 864.644291 481.714227 
L 872.714722 483.41614 
L 875.404866 485.868394 
L 880.785153 489.164639 
L 883.475297 492.672478 
L 891.545728 495.352631 
L 894.235872 496.482355 
L 896.926015 496.655663 
L 899.616159 495.425612 
L 902.306303 493.429505 
L 915.757021 488.198803 
L 918.447165 487.052351 
L 921.137308 485.568996 
L 929.207739 483.666854 
L 931.897883 481.03536 
L 934.588027 478.061007 
L 937.27817 474.886653 
L 939.968314 472.085092 
L 939.968314 472.085092 
" clip-path="url(#p1b7fa04105)" style="fill: none; stroke: #ff7f0e; stroke-width: 1.5; stroke-linecap: square"/>
   </g>
   <g id="patch_9">
    <path d="M 38.904688 584.521875 
L 38.904688 332.007901 
" style="fill: none; stroke: #000000; stroke-width: 0.8; stroke-linejoin: miter; stroke-linecap: square"/>
   </g>
   <g id="patch_10">
    <path d="M 982.876106 584.521875 
L 982.876106 332.007901 
" style="fill: none; stroke: #000000; stroke-width: 0.8; stroke-linejoin: miter; stroke-linecap: square"/>
   </g>
   <g id="patch_11">
    <path d="M 38.904687 584.521875 
L 982.876106 584.521875 
" style="fill: none; stroke: #000000; stroke-width: 0.8; stroke-linejoin: miter; stroke-linecap: square"/>
   </g>
   <g id="patch_12">
    <path d="M 38.904687 332.007901 
L 982.876106 332.007901 
" style="fill: none; stroke: #000000; stroke-width: 0.8; stroke-linejoin: miter; stroke-linecap: square"/>
   </g>
   <g id="text_29">
    <!-- MACD -->
    <g transform="translate(492.904459 326.007901)scale(0.12 -0.12)">
     <defs>
      <path id="DejaVuSans-44" d="M 1259 4147 
L 1259 519 
L 2022 519 
Q 2988 519 3436 956 
Q 3884 1394 3884 2338 
Q 3884 3275 3436 3711 
Q 2988 4147 2022 4147 
L 1259 4147 
z
M 628 4666 
L 1925 4666 
Q 3281 4666 3915 4102 
Q 4550 3538 4550 2338 
Q 4550 1131 3912 565 
Q 3275 0 1925 0 
L 628 0 
L 628 4666 
z
" transform="scale(0.015625)"/>
     </defs>
     <use xlink:href="#DejaVuSans-4d"/>
     <use xlink:href="#DejaVuSans-41" x="86.279297"/>
     <use xlink:href="#DejaVuSans-43" x="152.9375"/>
     <use xlink:href="#DejaVuSans-44" x="222.761719"/>
    </g>
   </g>
   <g id="legend_2">
    <g id="patch_13">
     <path d="M 913.899543 369.364151 
L 975.876106 369.364151 
Q 977.876106 369.364151 977.876106 367.364151 
L 977.876106 339.007901 
Q 977.876106 337.007901 975.876106 337.007901 
L 913.899543 337.007901 
Q 911.899543 337.007901 911.899543 339.007901 
L 911.899543 367.364151 
Q 911.899543 369.364151 913.899543 369.364151 
z
" style="fill: #ffffff; opacity: 0.8; stroke: #cccccc; stroke-linejoin: miter"/>
    </g>
    <g id="line2d_81">
     <path d="M 915.899543 345.106338 
L 925.899543 345.106338 
L 935.899543 345.106338 
" style="fill: none; stroke: #1f77b4; stroke-width: 1.5; stroke-linecap: square"/>
    </g>
    <g id="text_30">
     <!-- MACD -->
     <g transform="translate(943.899543 348.606338)scale(0.1 -0.1)">
      <use xlink:href="#DejaVuSans-4d"/>
      <use xlink:href="#DejaVuSans-41" x="86.279297"/>
      <use xlink:href="#DejaVuSans-43" x="152.9375"/>
      <use xlink:href="#DejaVuSans-44" x="222.761719"/>
     </g>
    </g>
    <g id="line2d_82">
     <path d="M 915.899543 359.784463 
L 925.899543 359.784463 
L 935.899543 359.784463 
" style="fill: none; stroke: #ff7f0e; stroke-width: 1.5; stroke-linecap: square"/>
    </g>
    <g id="text_31">
     <!-- SIG -->
     <g transform="translate(943.899543 363.284463)scale(0.1 -0.1)">
      <defs>
       <path id="DejaVuSans-49" d="M 628 4666 
L 1259 4666 
L 1259 0 
L 628 0 
L 628 4666 
z
" transform="scale(0.015625)"/>
       <path id="DejaVuSans-47" d="M 3809 666 
L 3809 1919 
L 2778 1919 
L 2778 2438 
L 4434 2438 
L 4434 434 
Q 4069 175 3628 42 
Q 3188 -91 2688 -91 
Q 1594 -91 976 548 
Q 359 1188 359 2328 
Q 359 3472 976 4111 
Q 1594 4750 2688 4750 
Q 3144 4750 3555 4637 
Q 3966 4525 4313 4306 
L 4313 3634 
Q 3963 3931 3569 4081 
Q 3175 4231 2741 4231 
Q 1884 4231 1454 3753 
Q 1025 3275 1025 2328 
Q 1025 1384 1454 906 
Q 1884 428 2741 428 
Q 3075 428 3337 486 
Q 3600 544 3809 666 
z
" transform="scale(0.015625)"/>
      </defs>
      <use xlink:href="#DejaVuSans-53"/>
      <use xlink:href="#DejaVuSans-49" x="63.476562"/>
      <use xlink:href="#DejaVuSans-47" x="92.96875"/>
     </g>
    </g>
   </g>
  </g>
  <g id="text_32">
   <!-- Berger Paints (I) Limited -->
   <g transform="translate(431.34375 21.358125)scale(0.12 -0.12)">
    <defs>
     <path id="DejaVuSans-42" d="M 1259 2228 
L 1259 519 
L 2272 519 
Q 2781 519 3026 730 
Q 3272 941 3272 1375 
Q 3272 1813 3026 2020 
Q 2781 2228 2272 2228 
L 1259 2228 
z
M 1259 4147 
L 1259 2741 
L 2194 2741 
Q 2656 2741 2882 2914 
Q 3109 3088 3109 3444 
Q 3109 3797 2882 3972 
Q 2656 4147 2194 4147 
L 1259 4147 
z
M 628 4666 
L 2241 4666 
Q 2963 4666 3353 4366 
Q 3744 4066 3744 3513 
Q 3744 3084 3544 2831 
Q 3344 2578 2956 2516 
Q 3422 2416 3680 2098 
Q 3938 1781 3938 1306 
Q 3938 681 3513 340 
Q 3088 0 2303 0 
L 628 0 
L 628 4666 
z
" transform="scale(0.015625)"/>
     <path id="DejaVuSans-61" d="M 2194 1759 
Q 1497 1759 1228 1600 
Q 959 1441 959 1056 
Q 959 750 1161 570 
Q 1363 391 1709 391 
Q 2188 391 2477 730 
Q 2766 1069 2766 1631 
L 2766 1759 
L 2194 1759 
z
M 3341 1997 
L 3341 0 
L 2766 0 
L 2766 531 
Q 2569 213 2275 61 
Q 1981 -91 1556 -91 
Q 1019 -91 701 211 
Q 384 513 384 1019 
Q 384 1609 779 1909 
Q 1175 2209 1959 2209 
L 2766 2209 
L 2766 2266 
Q 2766 2663 2505 2880 
Q 2244 3097 1772 3097 
Q 1472 3097 1187 3025 
Q 903 2953 641 2809 
L 641 3341 
Q 956 3463 1253 3523 
Q 1550 3584 1831 3584 
Q 2591 3584 2966 3190 
Q 3341 2797 3341 1997 
z
" transform="scale(0.015625)"/>
     <path id="DejaVuSans-74" d="M 1172 4494 
L 1172 3500 
L 2356 3500 
L 2356 3053 
L 1172 3053 
L 1172 1153 
Q 1172 725 1289 603 
Q 1406 481 1766 481 
L 2356 481 
L 2356 0 
L 1766 0 
Q 1100 0 847 248 
Q 594 497 594 1153 
L 594 3053 
L 172 3053 
L 172 3500 
L 594 3500 
L 594 4494 
L 1172 4494 
z
" transform="scale(0.015625)"/>
     <path id="DejaVuSans-28" d="M 1984 4856 
Q 1566 4138 1362 3434 
Q 1159 2731 1159 2009 
Q 1159 1288 1364 580 
Q 1569 -128 1984 -844 
L 1484 -844 
Q 1016 -109 783 600 
Q 550 1309 550 2009 
Q 550 2706 781 3412 
Q 1013 4119 1484 4856 
L 1984 4856 
z
" transform="scale(0.015625)"/>
     <path id="DejaVuSans-29" d="M 513 4856 
L 1013 4856 
Q 1481 4119 1714 3412 
Q 1947 2706 1947 2009 
Q 1947 1309 1714 600 
Q 1481 -109 1013 -844 
L 513 -844 
Q 928 -128 1133 580 
Q 1338 1288 1338 2009 
Q 1338 2731 1133 3434 
Q 928 4138 513 4856 
z
" transform="scale(0.015625)"/>
     <path id="DejaVuSans-6d" d="M 3328 2828 
Q 3544 3216 3844 3400 
Q 4144 3584 4550 3584 
Q 5097 3584 5394 3201 
Q 5691 2819 5691 2113 
L 5691 0 
L 5113 0 
L 5113 2094 
Q 5113 2597 4934 2840 
Q 4756 3084 4391 3084 
Q 3944 3084 3684 2787 
Q 3425 2491 3425 1978 
L 3425 0 
L 2847 0 
L 2847 2094 
Q 2847 2600 2669 2842 
Q 2491 3084 2119 3084 
Q 1678 3084 1418 2786 
Q 1159 2488 1159 1978 
L 1159 0 
L 581 0 
L 581 3500 
L 1159 3500 
L 1159 2956 
Q 1356 3278 1631 3431 
Q 1906 3584 2284 3584 
Q 2666 3584 2933 3390 
Q 3200 3197 3328 2828 
z
" transform="scale(0.015625)"/>
     <path id="DejaVuSans-64" d="M 2906 2969 
L 2906 4863 
L 3481 4863 
L 3481 0 
L 2906 0 
L 2906 525 
Q 2725 213 2448 61 
Q 2172 -91 1784 -91 
Q 1150 -91 751 415 
Q 353 922 353 1747 
Q 353 2572 751 3078 
Q 1150 3584 1784 3584 
Q 2172 3584 2448 3432 
Q 2725 3281 2906 2969 
z
M 947 1747 
Q 947 1113 1208 752 
Q 1469 391 1925 391 
Q 2381 391 2643 752 
Q 2906 1113 2906 1747 
Q 2906 2381 2643 2742 
Q 2381 3103 1925 3103 
Q 1469 3103 1208 2742 
Q 947 2381 947 1747 
z
" transform="scale(0.015625)"/>
    </defs>
    <use xlink:href="#DejaVuSans-42"/>
    <use xlink:href="#DejaVuSans-65" x="68.603516"/>
    <use xlink:href="#DejaVuSans-72" x="130.126953"/>
    <use xlink:href="#DejaVuSans-67" x="169.490234"/>
    <use xlink:href="#DejaVuSans-65" x="232.966797"/>
    <use xlink:href="#DejaVuSans-72" x="294.490234"/>
    <use xlink:href="#DejaVuSans-20" x="335.603516"/>
    <use xlink:href="#DejaVuSans-50" x="367.390625"/>
    <use xlink:href="#DejaVuSans-61" x="423.193359"/>
    <use xlink:href="#DejaVuSans-69" x="484.472656"/>
    <use xlink:href="#DejaVuSans-6e" x="512.255859"/>
    <use xlink:href="#DejaVuSans-74" x="575.634766"/>
    <use xlink:href="#DejaVuSans-73" x="614.84375"/>
    <use xlink:href="#DejaVuSans-20" x="666.943359"/>
    <use xlink:href="#DejaVuSans-28" x="698.730469"/>
    <use xlink:href="#DejaVuSans-49" x="737.744141"/>
    <use xlink:href="#DejaVuSans-29" x="767.236328"/>
    <use xlink:href="#DejaVuSans-20" x="806.25"/>
    <use xlink:href="#DejaVuSans-4c" x="838.037109"/>
    <use xlink:href="#DejaVuSans-69" x="893.75"/>
    <use xlink:href="#DejaVuSans-6d" x="921.533203"/>
    <use xlink:href="#DejaVuSans-69" x="1018.945312"/>
    <use xlink:href="#DejaVuSans-74" x="1046.728516"/>
    <use xlink:href="#DejaVuSans-65" x="1085.9375"/>
    <use xlink:href="#DejaVuSans-64" x="1147.460938"/>
   </g>
  </g>
 </g>
 <defs>
  <clipPath id="p19cf1c336e">
   <rect x="38.904688" y="48.331875" width="943.971418" height="252.513974"/>
  </clipPath>
  <clipPath id="p1b7fa04105">
   <rect x="38.904688" y="332.007901" width="943.971418" height="252.513974"/>
  </clipPath>
 </defs>
</svg>
