<?xml version="1.0" encoding="utf-8" standalone="no"?>
<!DOCTYPE svg PUBLIC "-//W3C//DTD SVG 1.1//EN"
  "http://www.w3.org/Graphics/SVG/1.1/DTD/svg11.dtd">
<svg xmlns:xlink="http://www.w3.org/1999/xlink" width="1008pt" height="612pt" viewBox="0 0 1008 612" xmlns="http://www.w3.org/2000/svg" version="1.1">
 <metadata>
  <rdf:RDF xmlns:dc="http://purl.org/dc/elements/1.1/" xmlns:cc="http://creativecommons.org/ns#" xmlns:rdf="http://www.w3.org/1999/02/22-rdf-syntax-ns#">
   <cc:Work>
    <dc:type rdf:resource="http://purl.org/dc/dcmitype/StillImage"/>
    <dc:date>2022-11-20T19:47:23.968231</dc:date>
    <dc:format>image/svg+xml</dc:format>
    <dc:creator>
     <cc:Agent>
      <dc:title>Matplotlib v3.5.2, https://matplotlib.org/</dc:title>
     </cc:Agent>
    </dc:creator>
   </cc:Work>
  </rdf:RDF>
 </metadata>
 <defs>
  <style type="text/css">*{stroke-linejoin: round; stroke-linecap: butt}</style>
 </defs>
 <g id="figure_1">
  <g id="patch_1">
   <path d="M 0 612 
L 1008 612 
L 1008 0 
L 0 0 
z
" style="fill: #ffffff"/>
  </g>
  <g id="axes_1">
   <g id="patch_2">
    <path d="M 45.267188 301.717812 
L 982.876106 301.717812 
L 982.876106 48.331875 
L 45.267188 48.331875 
z
" style="fill: #ffffff"/>
   </g>
   <g id="matplotlib.axis_1">
    <g id="xtick_1">
     <g id="line2d_1">
      <path d="M 82.541751 301.717812 
L 82.541751 48.331875 
" clip-path="url(#pb83518ad42)" style="fill: none; stroke-dasharray: 2.96,1.28; stroke-dashoffset: 0; stroke: #b0b0b0; stroke-width: 0.8"/>
     </g>
     <g id="line2d_2">
      <defs>
       <path id="mbb84e5b267" d="M 0 0 
L 0 3.5 
" style="stroke: #000000; stroke-width: 0.8"/>
      </defs>
      <g>
       <use xlink:href="#mbb84e5b267" x="82.541751" y="301.717812" style="stroke: #000000; stroke-width: 0.8"/>
      </g>
     </g>
    </g>
    <g id="xtick_2">
     <g id="line2d_3">
      <path d="M 165.374115 301.717812 
L 165.374115 48.331875 
" clip-path="url(#pb83518ad42)" style="fill: none; stroke-dasharray: 2.96,1.28; stroke-dashoffset: 0; stroke: #b0b0b0; stroke-width: 0.8"/>
     </g>
     <g id="line2d_4">
      <g>
       <use xlink:href="#mbb84e5b267" x="165.374115" y="301.717812" style="stroke: #000000; stroke-width: 0.8"/>
      </g>
     </g>
    </g>
    <g id="xtick_3">
     <g id="line2d_5">
      <path d="M 240.190444 301.717812 
L 240.190444 48.331875 
" clip-path="url(#pb83518ad42)" style="fill: none; stroke-dasharray: 2.96,1.28; stroke-dashoffset: 0; stroke: #b0b0b0; stroke-width: 0.8"/>
     </g>
     <g id="line2d_6">
      <g>
       <use xlink:href="#mbb84e5b267" x="240.190444" y="301.717812" style="stroke: #000000; stroke-width: 0.8"/>
      </g>
     </g>
    </g>
    <g id="xtick_4">
     <g id="line2d_7">
      <path d="M 323.022808 301.717812 
L 323.022808 48.331875 
" clip-path="url(#pb83518ad42)" style="fill: none; stroke-dasharray: 2.96,1.28; stroke-dashoffset: 0; stroke: #b0b0b0; stroke-width: 0.8"/>
     </g>
     <g id="line2d_8">
      <g>
       <use xlink:href="#mbb84e5b267" x="323.022808" y="301.717812" style="stroke: #000000; stroke-width: 0.8"/>
      </g>
     </g>
    </g>
    <g id="xtick_5">
     <g id="line2d_9">
      <path d="M 403.18316 301.717812 
L 403.18316 48.331875 
" clip-path="url(#pb83518ad42)" style="fill: none; stroke-dasharray: 2.96,1.28; stroke-dashoffset: 0; stroke: #b0b0b0; stroke-width: 0.8"/>
     </g>
     <g id="line2d_10">
      <g>
       <use xlink:href="#mbb84e5b267" x="403.18316" y="301.717812" style="stroke: #000000; stroke-width: 0.8"/>
      </g>
     </g>
    </g>
    <g id="xtick_6">
     <g id="line2d_11">
      <path d="M 486.015523 301.717812 
L 486.015523 48.331875 
" clip-path="url(#pb83518ad42)" style="fill: none; stroke-dasharray: 2.96,1.28; stroke-dashoffset: 0; stroke: #b0b0b0; stroke-width: 0.8"/>
     </g>
     <g id="line2d_12">
      <g>
       <use xlink:href="#mbb84e5b267" x="486.015523" y="301.717812" style="stroke: #000000; stroke-width: 0.8"/>
      </g>
     </g>
    </g>
    <g id="xtick_7">
     <g id="line2d_13">
      <path d="M 566.175876 301.717812 
L 566.175876 48.331875 
" clip-path="url(#pb83518ad42)" style="fill: none; stroke-dasharray: 2.96,1.28; stroke-dashoffset: 0; stroke: #b0b0b0; stroke-width: 0.8"/>
     </g>
     <g id="line2d_14">
      <g>
       <use xlink:href="#mbb84e5b267" x="566.175876" y="301.717812" style="stroke: #000000; stroke-width: 0.8"/>
      </g>
     </g>
    </g>
    <g id="xtick_8">
     <g id="line2d_15">
      <path d="M 649.008239 301.717812 
L 649.008239 48.331875 
" clip-path="url(#pb83518ad42)" style="fill: none; stroke-dasharray: 2.96,1.28; stroke-dashoffset: 0; stroke: #b0b0b0; stroke-width: 0.8"/>
     </g>
     <g id="line2d_16">
      <g>
       <use xlink:href="#mbb84e5b267" x="649.008239" y="301.717812" style="stroke: #000000; stroke-width: 0.8"/>
      </g>
     </g>
    </g>
    <g id="xtick_9">
     <g id="line2d_17">
      <path d="M 731.840603 301.717812 
L 731.840603 48.331875 
" clip-path="url(#pb83518ad42)" style="fill: none; stroke-dasharray: 2.96,1.28; stroke-dashoffset: 0; stroke: #b0b0b0; stroke-width: 0.8"/>
     </g>
     <g id="line2d_18">
      <g>
       <use xlink:href="#mbb84e5b267" x="731.840603" y="301.717812" style="stroke: #000000; stroke-width: 0.8"/>
      </g>
     </g>
    </g>
    <g id="xtick_10">
     <g id="line2d_19">
      <path d="M 812.000955 301.717812 
L 812.000955 48.331875 
" clip-path="url(#pb83518ad42)" style="fill: none; stroke-dasharray: 2.96,1.28; stroke-dashoffset: 0; stroke: #b0b0b0; stroke-width: 0.8"/>
     </g>
     <g id="line2d_20">
      <g>
       <use xlink:href="#mbb84e5b267" x="812.000955" y="301.717812" style="stroke: #000000; stroke-width: 0.8"/>
      </g>
     </g>
    </g>
    <g id="xtick_11">
     <g id="line2d_21">
      <path d="M 894.833319 301.717812 
L 894.833319 48.331875 
" clip-path="url(#pb83518ad42)" style="fill: none; stroke-dasharray: 2.96,1.28; stroke-dashoffset: 0; stroke: #b0b0b0; stroke-width: 0.8"/>
     </g>
     <g id="line2d_22">
      <g>
       <use xlink:href="#mbb84e5b267" x="894.833319" y="301.717812" style="stroke: #000000; stroke-width: 0.8"/>
      </g>
     </g>
    </g>
    <g id="xtick_12">
     <g id="line2d_23">
      <path d="M 974.993671 301.717812 
L 974.993671 48.331875 
" clip-path="url(#pb83518ad42)" style="fill: none; stroke-dasharray: 2.96,1.28; stroke-dashoffset: 0; stroke: #b0b0b0; stroke-width: 0.8"/>
     </g>
     <g id="line2d_24">
      <g>
       <use xlink:href="#mbb84e5b267" x="974.993671" y="301.717812" style="stroke: #000000; stroke-width: 0.8"/>
      </g>
     </g>
    </g>
   </g>
   <g id="matplotlib.axis_2">
    <g id="ytick_1">
     <g id="line2d_25">
      <path d="M 45.267188 298.298091 
L 982.876106 298.298091 
" clip-path="url(#pb83518ad42)" style="fill: none; stroke-dasharray: 2.96,1.28; stroke-dashoffset: 0; stroke: #b0b0b0; stroke-width: 0.8"/>
     </g>
     <g id="line2d_26">
      <defs>
       <path id="m13b0c74abf" d="M 0 0 
L -3.5 0 
" style="stroke: #000000; stroke-width: 0.8"/>
      </defs>
      <g>
       <use xlink:href="#m13b0c74abf" x="45.267188" y="298.298091" style="stroke: #000000; stroke-width: 0.8"/>
      </g>
     </g>
     <g id="text_1">
      <!-- 2200 -->
      <g transform="translate(12.817188 302.097309)scale(0.1 -0.1)">
       <defs>
        <path id="DejaVuSans-32" d="M 1228 531 
L 3431 531 
L 3431 0 
L 469 0 
L 469 531 
Q 828 903 1448 1529 
Q 2069 2156 2228 2338 
Q 2531 2678 2651 2914 
Q 2772 3150 2772 3378 
Q 2772 3750 2511 3984 
Q 2250 4219 1831 4219 
Q 1534 4219 1204 4116 
Q 875 4013 500 3803 
L 500 4441 
Q 881 4594 1212 4672 
Q 1544 4750 1819 4750 
Q 2544 4750 2975 4387 
Q 3406 4025 3406 3419 
Q 3406 3131 3298 2873 
Q 3191 2616 2906 2266 
Q 2828 2175 2409 1742 
Q 1991 1309 1228 531 
z
" transform="scale(0.015625)"/>
        <path id="DejaVuSans-30" d="M 2034 4250 
Q 1547 4250 1301 3770 
Q 1056 3291 1056 2328 
Q 1056 1369 1301 889 
Q 1547 409 2034 409 
Q 2525 409 2770 889 
Q 3016 1369 3016 2328 
Q 3016 3291 2770 3770 
Q 2525 4250 2034 4250 
z
M 2034 4750 
Q 2819 4750 3233 4129 
Q 3647 3509 3647 2328 
Q 3647 1150 3233 529 
Q 2819 -91 2034 -91 
Q 1250 -91 836 529 
Q 422 1150 422 2328 
Q 422 3509 836 4129 
Q 1250 4750 2034 4750 
z
" transform="scale(0.015625)"/>
       </defs>
       <use xlink:href="#DejaVuSans-32"/>
       <use xlink:href="#DejaVuSans-32" x="63.623047"/>
       <use xlink:href="#DejaVuSans-30" x="127.246094"/>
       <use xlink:href="#DejaVuSans-30" x="190.869141"/>
      </g>
     </g>
    </g>
    <g id="ytick_2">
     <g id="line2d_27">
      <path d="M 45.267188 269.403102 
L 982.876106 269.403102 
" clip-path="url(#pb83518ad42)" style="fill: none; stroke-dasharray: 2.96,1.28; stroke-dashoffset: 0; stroke: #b0b0b0; stroke-width: 0.8"/>
     </g>
     <g id="line2d_28">
      <g>
       <use xlink:href="#m13b0c74abf" x="45.267188" y="269.403102" style="stroke: #000000; stroke-width: 0.8"/>
      </g>
     </g>
     <g id="text_2">
      <!-- 2400 -->
      <g transform="translate(12.817188 273.20232)scale(0.1 -0.1)">
       <defs>
        <path id="DejaVuSans-34" d="M 2419 4116 
L 825 1625 
L 2419 1625 
L 2419 4116 
z
M 2253 4666 
L 3047 4666 
L 3047 1625 
L 3713 1625 
L 3713 1100 
L 3047 1100 
L 3047 0 
L 2419 0 
L 2419 1100 
L 313 1100 
L 313 1709 
L 2253 4666 
z
" transform="scale(0.015625)"/>
       </defs>
       <use xlink:href="#DejaVuSans-32"/>
       <use xlink:href="#DejaVuSans-34" x="63.623047"/>
       <use xlink:href="#DejaVuSans-30" x="127.246094"/>
       <use xlink:href="#DejaVuSans-30" x="190.869141"/>
      </g>
     </g>
    </g>
    <g id="ytick_3">
     <g id="line2d_29">
      <path d="M 45.267188 240.508113 
L 982.876106 240.508113 
" clip-path="url(#pb83518ad42)" style="fill: none; stroke-dasharray: 2.96,1.28; stroke-dashoffset: 0; stroke: #b0b0b0; stroke-width: 0.8"/>
     </g>
     <g id="line2d_30">
      <g>
       <use xlink:href="#m13b0c74abf" x="45.267188" y="240.508113" style="stroke: #000000; stroke-width: 0.8"/>
      </g>
     </g>
     <g id="text_3">
      <!-- 2600 -->
      <g transform="translate(12.817188 244.307331)scale(0.1 -0.1)">
       <defs>
        <path id="DejaVuSans-36" d="M 2113 2584 
Q 1688 2584 1439 2293 
Q 1191 2003 1191 1497 
Q 1191 994 1439 701 
Q 1688 409 2113 409 
Q 2538 409 2786 701 
Q 3034 994 3034 1497 
Q 3034 2003 2786 2293 
Q 2538 2584 2113 2584 
z
M 3366 4563 
L 3366 3988 
Q 3128 4100 2886 4159 
Q 2644 4219 2406 4219 
Q 1781 4219 1451 3797 
Q 1122 3375 1075 2522 
Q 1259 2794 1537 2939 
Q 1816 3084 2150 3084 
Q 2853 3084 3261 2657 
Q 3669 2231 3669 1497 
Q 3669 778 3244 343 
Q 2819 -91 2113 -91 
Q 1303 -91 875 529 
Q 447 1150 447 2328 
Q 447 3434 972 4092 
Q 1497 4750 2381 4750 
Q 2619 4750 2861 4703 
Q 3103 4656 3366 4563 
z
" transform="scale(0.015625)"/>
       </defs>
       <use xlink:href="#DejaVuSans-32"/>
       <use xlink:href="#DejaVuSans-36" x="63.623047"/>
       <use xlink:href="#DejaVuSans-30" x="127.246094"/>
       <use xlink:href="#DejaVuSans-30" x="190.869141"/>
      </g>
     </g>
    </g>
    <g id="ytick_4">
     <g id="line2d_31">
      <path d="M 45.267188 211.613124 
L 982.876106 211.613124 
" clip-path="url(#pb83518ad42)" style="fill: none; stroke-dasharray: 2.96,1.28; stroke-dashoffset: 0; stroke: #b0b0b0; stroke-width: 0.8"/>
     </g>
     <g id="line2d_32">
      <g>
       <use xlink:href="#m13b0c74abf" x="45.267188" y="211.613124" style="stroke: #000000; stroke-width: 0.8"/>
      </g>
     </g>
     <g id="text_4">
      <!-- 2800 -->
      <g transform="translate(12.817188 215.412342)scale(0.1 -0.1)">
       <defs>
        <path id="DejaVuSans-38" d="M 2034 2216 
Q 1584 2216 1326 1975 
Q 1069 1734 1069 1313 
Q 1069 891 1326 650 
Q 1584 409 2034 409 
Q 2484 409 2743 651 
Q 3003 894 3003 1313 
Q 3003 1734 2745 1975 
Q 2488 2216 2034 2216 
z
M 1403 2484 
Q 997 2584 770 2862 
Q 544 3141 544 3541 
Q 544 4100 942 4425 
Q 1341 4750 2034 4750 
Q 2731 4750 3128 4425 
Q 3525 4100 3525 3541 
Q 3525 3141 3298 2862 
Q 3072 2584 2669 2484 
Q 3125 2378 3379 2068 
Q 3634 1759 3634 1313 
Q 3634 634 3220 271 
Q 2806 -91 2034 -91 
Q 1263 -91 848 271 
Q 434 634 434 1313 
Q 434 1759 690 2068 
Q 947 2378 1403 2484 
z
M 1172 3481 
Q 1172 3119 1398 2916 
Q 1625 2713 2034 2713 
Q 2441 2713 2670 2916 
Q 2900 3119 2900 3481 
Q 2900 3844 2670 4047 
Q 2441 4250 2034 4250 
Q 1625 4250 1398 4047 
Q 1172 3844 1172 3481 
z
" transform="scale(0.015625)"/>
       </defs>
       <use xlink:href="#DejaVuSans-32"/>
       <use xlink:href="#DejaVuSans-38" x="63.623047"/>
       <use xlink:href="#DejaVuSans-30" x="127.246094"/>
       <use xlink:href="#DejaVuSans-30" x="190.869141"/>
      </g>
     </g>
    </g>
    <g id="ytick_5">
     <g id="line2d_33">
      <path d="M 45.267188 182.718135 
L 982.876106 182.718135 
" clip-path="url(#pb83518ad42)" style="fill: none; stroke-dasharray: 2.96,1.28; stroke-dashoffset: 0; stroke: #b0b0b0; stroke-width: 0.8"/>
     </g>
     <g id="line2d_34">
      <g>
       <use xlink:href="#m13b0c74abf" x="45.267188" y="182.718135" style="stroke: #000000; stroke-width: 0.8"/>
      </g>
     </g>
     <g id="text_5">
      <!-- 3000 -->
      <g transform="translate(12.817188 186.517353)scale(0.1 -0.1)">
       <defs>
        <path id="DejaVuSans-33" d="M 2597 2516 
Q 3050 2419 3304 2112 
Q 3559 1806 3559 1356 
Q 3559 666 3084 287 
Q 2609 -91 1734 -91 
Q 1441 -91 1130 -33 
Q 819 25 488 141 
L 488 750 
Q 750 597 1062 519 
Q 1375 441 1716 441 
Q 2309 441 2620 675 
Q 2931 909 2931 1356 
Q 2931 1769 2642 2001 
Q 2353 2234 1838 2234 
L 1294 2234 
L 1294 2753 
L 1863 2753 
Q 2328 2753 2575 2939 
Q 2822 3125 2822 3475 
Q 2822 3834 2567 4026 
Q 2313 4219 1838 4219 
Q 1578 4219 1281 4162 
Q 984 4106 628 3988 
L 628 4550 
Q 988 4650 1302 4700 
Q 1616 4750 1894 4750 
Q 2613 4750 3031 4423 
Q 3450 4097 3450 3541 
Q 3450 3153 3228 2886 
Q 3006 2619 2597 2516 
z
" transform="scale(0.015625)"/>
       </defs>
       <use xlink:href="#DejaVuSans-33"/>
       <use xlink:href="#DejaVuSans-30" x="63.623047"/>
       <use xlink:href="#DejaVuSans-30" x="127.246094"/>
       <use xlink:href="#DejaVuSans-30" x="190.869141"/>
      </g>
     </g>
    </g>
    <g id="ytick_6">
     <g id="line2d_35">
      <path d="M 45.267188 153.823146 
L 982.876106 153.823146 
" clip-path="url(#pb83518ad42)" style="fill: none; stroke-dasharray: 2.96,1.28; stroke-dashoffset: 0; stroke: #b0b0b0; stroke-width: 0.8"/>
     </g>
     <g id="line2d_36">
      <g>
       <use xlink:href="#m13b0c74abf" x="45.267188" y="153.823146" style="stroke: #000000; stroke-width: 0.8"/>
      </g>
     </g>
     <g id="text_6">
      <!-- 3200 -->
      <g transform="translate(12.817188 157.622364)scale(0.1 -0.1)">
       <use xlink:href="#DejaVuSans-33"/>
       <use xlink:href="#DejaVuSans-32" x="63.623047"/>
       <use xlink:href="#DejaVuSans-30" x="127.246094"/>
       <use xlink:href="#DejaVuSans-30" x="190.869141"/>
      </g>
     </g>
    </g>
    <g id="ytick_7">
     <g id="line2d_37">
      <path d="M 45.267188 124.928157 
L 982.876106 124.928157 
" clip-path="url(#pb83518ad42)" style="fill: none; stroke-dasharray: 2.96,1.28; stroke-dashoffset: 0; stroke: #b0b0b0; stroke-width: 0.8"/>
     </g>
     <g id="line2d_38">
      <g>
       <use xlink:href="#m13b0c74abf" x="45.267188" y="124.928157" style="stroke: #000000; stroke-width: 0.8"/>
      </g>
     </g>
     <g id="text_7">
      <!-- 3400 -->
      <g transform="translate(12.817188 128.727375)scale(0.1 -0.1)">
       <use xlink:href="#DejaVuSans-33"/>
       <use xlink:href="#DejaVuSans-34" x="63.623047"/>
       <use xlink:href="#DejaVuSans-30" x="127.246094"/>
       <use xlink:href="#DejaVuSans-30" x="190.869141"/>
      </g>
     </g>
    </g>
    <g id="ytick_8">
     <g id="line2d_39">
      <path d="M 45.267188 96.033168 
L 982.876106 96.033168 
" clip-path="url(#pb83518ad42)" style="fill: none; stroke-dasharray: 2.96,1.28; stroke-dashoffset: 0; stroke: #b0b0b0; stroke-width: 0.8"/>
     </g>
     <g id="line2d_40">
      <g>
       <use xlink:href="#m13b0c74abf" x="45.267188" y="96.033168" style="stroke: #000000; stroke-width: 0.8"/>
      </g>
     </g>
     <g id="text_8">
      <!-- 3600 -->
      <g transform="translate(12.817188 99.832386)scale(0.1 -0.1)">
       <use xlink:href="#DejaVuSans-33"/>
       <use xlink:href="#DejaVuSans-36" x="63.623047"/>
       <use xlink:href="#DejaVuSans-30" x="127.246094"/>
       <use xlink:href="#DejaVuSans-30" x="190.869141"/>
      </g>
     </g>
    </g>
    <g id="ytick_9">
     <g id="line2d_41">
      <path d="M 45.267188 67.138179 
L 982.876106 67.138179 
" clip-path="url(#pb83518ad42)" style="fill: none; stroke-dasharray: 2.96,1.28; stroke-dashoffset: 0; stroke: #b0b0b0; stroke-width: 0.8"/>
     </g>
     <g id="line2d_42">
      <g>
       <use xlink:href="#m13b0c74abf" x="45.267188" y="67.138179" style="stroke: #000000; stroke-width: 0.8"/>
      </g>
     </g>
     <g id="text_9">
      <!-- 3800 -->
      <g transform="translate(12.817188 70.937397)scale(0.1 -0.1)">
       <use xlink:href="#DejaVuSans-33"/>
       <use xlink:href="#DejaVuSans-38" x="63.623047"/>
       <use xlink:href="#DejaVuSans-30" x="127.246094"/>
       <use xlink:href="#DejaVuSans-30" x="190.869141"/>
      </g>
     </g>
    </g>
   </g>
   <g id="line2d_43">
    <path d="M 87.885775 223.344489 
L 90.557786 225.338243 
L 93.229798 214.704887 
L 95.90181 209.135378 
L 98.573822 208.087935 
L 106.589857 209.373762 
L 109.261869 212.429407 
L 111.93388 209.315972 
L 114.605892 206.888793 
L 117.277904 208.766967 
L 125.293939 205.212884 
L 127.965951 220.823401 
L 130.637962 223.358937 
L 133.309974 221.177365 
L 135.981986 224.456946 
L 143.998021 232.359726 
L 146.670033 227.216418 
L 152.014056 234.172886 
L 154.686068 238.926112 
L 162.702103 233.934503 
L 165.374115 237.300769 
L 168.046127 230.430985 
L 170.718139 230.272063 
L 173.39015 235.971599 
L 181.406185 240.313071 
L 184.078197 242.075666 
L 186.750209 236.80233 
L 189.422221 234.678549 
L 192.094232 240.775391 
L 200.110268 244.726781 
L 202.782279 222.593219 
L 205.454291 225.128755 
L 208.126303 222.773813 
L 210.798315 226.168974 
L 218.81435 226.205093 
L 221.486362 222.376507 
L 224.158373 225.09986 
L 226.830385 238.030367 
L 229.502397 236.405024 
L 237.518432 241.981757 
L 242.862455 253.78536 
L 245.534467 268.03059 
L 248.206479 278.179954 
L 256.222514 289.68016 
L 258.894526 290.20027 
L 261.566538 284.854697 
L 264.238549 283.417171 
L 266.910561 285.186989 
L 274.926596 281.892961 
L 277.598608 283.092103 
L 280.27062 275.485497 
L 282.942631 264.064752 
L 293.630678 272.473194 
L 296.30269 272.23481 
L 298.974702 270.255504 
L 301.646714 273.787916 
L 304.318725 278.526694 
L 312.334761 272.2926 
L 315.006772 257.772868 
L 317.678784 256.898795 
L 320.350796 261.146358 
L 323.022808 257.671736 
L 331.038843 253.662556 
L 333.710854 248.678171 
L 336.382866 250.520226 
L 339.054878 249.407769 
L 341.72689 246.98059 
L 349.742925 248.36755 
L 352.414937 251.806053 
L 355.086948 256.190868 
L 368.447007 253.366383 
L 371.119019 261.478651 
L 373.791031 249.638929 
L 376.463042 233.067653 
L 379.135054 235.957152 
L 387.151089 241.353291 
L 389.823101 233.385498 
L 392.495113 232.496977 
L 395.167124 228.957341 
L 397.839136 236.123298 
L 405.855171 247.370672 
L 411.199195 257.382786 
L 413.871207 264.555967 
L 416.543218 274.828136 
L 424.559254 277.450356 
L 427.231265 267.156516 
L 429.903277 270.970655 
L 432.575289 271.620792 
L 435.2473 264.685995 
L 443.263336 237.914787 
L 445.935347 225.092636 
L 448.607359 226.638518 
L 451.279371 233.212128 
L 453.951383 224.933713 
L 461.967418 220.093803 
L 464.63943 223.272252 
L 467.311441 228.061596 
L 469.983453 222.434297 
L 472.655465 219.978223 
L 480.6715 217.616058 
L 483.343512 214.394266 
L 486.015523 215.701765 
L 488.687535 222.658233 
L 491.359547 228.191624 
L 499.375582 232.836493 
L 502.047594 233.587763 
L 504.719606 233.407169 
L 507.391617 223.749019 
L 510.063629 224.204115 
L 518.079664 225.945038 
L 520.751676 222.773813 
L 523.423688 223.156672 
L 526.095699 232.923178 
L 528.767711 239.814633 
L 536.783746 237.14907 
L 539.455758 225.656088 
L 542.12777 231.44231 
L 544.799782 208.860876 
L 547.471793 200.358525 
L 555.487829 204.634984 
L 558.15984 202.395622 
L 560.831852 199.101593 
L 563.503864 212.429407 
L 566.175876 214.098093 
L 574.191911 212.133233 
L 576.863922 210.804064 
L 579.535934 196.017053 
L 582.207946 190.779836 
L 584.879958 192.600221 
L 592.895993 175.949483 
L 595.568005 189.356758 
L 598.240016 187.428018 
L 600.912028 189.20506 
L 603.58404 177.805986 
L 611.600075 177.444799 
L 614.272087 171.492431 
L 616.944099 176.216762 
L 619.61611 170.986769 
L 622.288122 161.393633 
L 630.304157 170.192157 
L 632.976169 179.351868 
L 635.648181 174.425273 
L 638.320192 174.916488 
L 640.992204 169.216951 
L 649.008239 169.946549 
L 651.680251 165.24389 
L 654.352263 162.751697 
L 657.024275 161.653688 
L 659.696286 169.77318 
L 667.712322 165.850685 
L 673.056345 160.389532 
L 675.728357 157.225531 
L 678.400368 152.356725 
L 689.088415 133.878379 
L 691.760427 125.274896 
L 694.432439 123.281142 
L 697.104451 121.44631 
L 705.120486 130.237611 
L 707.792498 115.573404 
L 710.464509 117.603277 
L 713.136521 113.160672 
L 715.808533 131.415082 
L 723.824568 140.589241 
L 726.49658 130.887748 
L 731.840603 123.252247 
L 734.512615 121.73526 
L 742.52865 124.855919 
L 745.200662 123.432841 
L 747.872674 127.290322 
L 750.544685 121.207927 
L 753.216697 114.359814 
L 761.232732 104.853363 
L 763.904744 107.302213 
L 766.576756 104.441609 
L 769.248768 92.8186 
L 771.920779 103.40139 
L 779.936814 97.441798 
L 782.608826 79.916987 
L 785.280838 84.178998 
L 787.95285 74.54252 
L 790.624861 83.254359 
L 798.640897 108.234077 
L 801.312908 100.287955 
L 803.98492 91.944527 
L 806.656932 92.551321 
L 809.328944 85.688762 
L 817.344979 115.775669 
L 820.016991 102.53454 
L 825.361014 105.951373 
L 828.033026 110.690151 
L 836.049061 105.915254 
L 838.721073 123.772357 
L 841.393084 116.519715 
L 844.065096 114.64154 
L 846.737108 113.774691 
L 854.753143 108.35688 
L 857.425155 94.227231 
L 860.097167 94.256126 
L 862.769178 88.643274 
L 865.44119 91.771157 
L 873.457225 90.0808 
L 876.129237 80.047015 
L 881.47326 80.047015 
L 892.161307 59.849418 
L 894.833319 67.369338 
L 897.505331 77.367005 
L 900.177343 85.161428 
L 902.849354 86.367794 
L 910.86539 73.61788 
L 916.209413 76.825224 
L 918.881425 81.462869 
L 921.553437 107.641729 
L 929.569472 108.082378 
L 932.241483 109.332086 
L 934.913495 110.040013 
L 937.585507 118.88188 
L 940.257519 126.336787 
L 940.257519 126.336787 
" clip-path="url(#pb83518ad42)" style="fill: none; stroke: #1f77b4; stroke-width: 1.5; stroke-linecap: square"/>
   </g>
   <g id="line2d_44">
    <path d="M 98.573822 216.122187 
L 106.589857 213.328041 
L 109.261869 210.746274 
L 111.93388 209.668491 
L 114.605892 209.219174 
L 117.277904 209.35498 
L 125.293939 208.522804 
L 127.965951 210.201603 
L 133.309974 215.867911 
L 135.981986 219.005907 
L 143.998021 224.435275 
L 146.670033 225.713878 
L 152.014056 227.876668 
L 154.686068 231.426418 
L 162.702103 233.321929 
L 165.374115 234.310137 
L 168.046127 234.953051 
L 170.718139 234.172886 
L 173.39015 233.581984 
L 181.406185 234.857697 
L 184.078197 235.812677 
L 186.750209 237.086946 
L 192.094232 238.929001 
L 200.110268 239.811743 
L 202.782279 235.915254 
L 208.126303 231.199592 
L 210.798315 228.278308 
L 218.81435 224.573971 
L 224.158373 224.524849 
L 226.830385 227.57616 
L 229.502397 229.62337 
L 237.518432 232.778703 
L 242.862455 239.060474 
L 245.534467 247.64662 
L 248.206479 255.676537 
L 256.222514 266.331564 
L 258.894526 275.975267 
L 261.566538 282.189134 
L 264.238549 285.266451 
L 266.910561 286.667857 
L 274.926596 285.110418 
L 277.598608 283.688784 
L 280.27062 281.814944 
L 282.942631 277.94446 
L 293.630678 275.401701 
L 296.30269 273.470071 
L 298.974702 270.902751 
L 301.646714 270.563235 
L 304.318725 273.455624 
L 312.334761 273.419505 
L 315.006772 270.527117 
L 320.350796 265.327463 
L 323.022808 261.156472 
L 331.038843 257.430463 
L 333.710854 255.611523 
L 336.382866 254.33581 
L 339.054878 251.988092 
L 341.72689 249.849863 
L 349.742925 248.790861 
L 352.414937 249.416438 
L 355.086948 250.550566 
L 368.447007 251.342289 
L 371.119019 254.241901 
L 373.791031 254.496177 
L 376.463042 250.748497 
L 379.135054 246.701753 
L 387.151089 244.299135 
L 389.823101 238.680505 
L 392.495113 235.252114 
L 395.167124 234.430052 
L 397.839136 234.463281 
L 405.855171 235.666757 
L 411.199195 240.466215 
L 413.871207 246.878013 
L 416.543218 256.052172 
L 424.559254 264.317583 
L 427.231265 268.274752 
L 429.903277 270.992326 
L 432.575289 272.405291 
L 435.2473 270.376863 
L 443.263336 262.469749 
L 445.935347 254.056973 
L 448.607359 245.190546 
L 453.951383 229.558356 
L 461.967418 225.99416 
L 464.63943 225.630083 
L 467.311441 225.914698 
L 469.983453 223.759132 
L 472.655465 222.768034 
L 480.6715 222.272485 
L 483.343512 220.496888 
L 486.015523 218.024922 
L 488.687535 218.069709 
L 491.359547 219.712389 
L 499.375582 222.756476 
L 502.047594 226.595175 
L 504.719606 230.136256 
L 507.391617 230.354413 
L 510.063629 229.556912 
L 518.079664 228.178621 
L 523.423688 223.965731 
L 526.095699 225.800563 
L 528.767711 228.922667 
L 536.783746 231.163473 
L 539.455758 231.739928 
L 542.12777 233.397056 
L 544.799782 228.584595 
L 547.471793 220.693374 
L 555.487829 214.190557 
L 558.15984 209.538463 
L 560.831852 203.07032 
L 563.503864 203.784026 
L 566.175876 206.53194 
L 574.191911 208.03159 
L 576.863922 209.713278 
L 579.535934 209.09637 
L 584.879958 200.466882 
L 592.895993 193.230132 
L 595.568005 188.94067 
L 598.240016 187.222863 
L 600.912028 186.907908 
L 603.58404 183.949061 
L 611.600075 184.248124 
L 614.272087 180.675259 
L 616.944099 178.433008 
L 619.61611 174.78935 
L 622.288122 171.506879 
L 630.304157 170.05635 
L 632.976169 171.628238 
L 635.648181 171.26994 
L 638.320192 172.055884 
L 640.992204 173.620547 
L 649.008239 173.571426 
L 651.680251 170.74983 
L 654.352263 168.415115 
L 657.024275 165.762555 
L 659.696286 165.873801 
L 667.712322 165.054628 
L 673.056345 164.083756 
L 675.728357 162.978523 
L 678.400368 161.11913 
L 689.088415 153.94017 
L 691.760427 145.825013 
L 697.104451 131.247491 
L 705.120486 126.823668 
L 707.792498 123.162673 
L 710.464509 121.628349 
L 713.136521 119.604255 
L 715.808533 121.598009 
L 723.824568 123.668335 
L 726.49658 126.731204 
L 731.840603 127.860998 
L 734.512615 129.575916 
L 742.52865 128.264083 
L 745.200662 124.832803 
L 747.872674 124.113318 
L 750.544685 123.704454 
L 753.216697 122.229365 
L 761.232732 118.228853 
L 763.904744 115.002728 
L 766.576756 110.432985 
L 769.248768 104.75512 
L 771.920779 102.563435 
L 779.936814 101.081122 
L 782.608826 95.604077 
L 785.280838 91.551555 
L 787.95285 87.896339 
L 790.624861 83.866932 
L 798.640897 86.025388 
L 801.312908 90.099582 
L 803.98492 91.652687 
L 806.656932 95.254448 
L 820.016991 97.698964 
L 825.361014 100.500333 
L 828.033026 104.128099 
L 836.049061 108.173397 
L 838.721073 109.772735 
L 841.393084 112.56977 
L 844.065096 114.307803 
L 846.737108 114.924711 
L 854.753143 115.413037 
L 857.425155 109.504011 
L 860.097167 105.051294 
L 862.769178 99.85164 
L 865.44119 95.450934 
L 873.457225 91.795717 
L 876.129237 88.959674 
L 881.47326 86.117852 
L 884.145272 83.384386 
L 892.161307 77.000038 
L 894.833319 72.457746 
L 897.505331 71.921744 
L 900.177343 72.944627 
L 902.849354 75.222997 
L 918.881425 80.687039 
L 921.553437 85.183099 
L 929.569472 89.526016 
L 932.241483 96.668857 
L 934.913495 103.311815 
L 937.585507 110.795617 
L 940.257519 114.534629 
L 940.257519 114.534629 
" clip-path="url(#pb83518ad42)" style="fill: none; stroke: #ff7f0e; stroke-width: 1.5; stroke-linecap: square"/>
   </g>
   <g id="patch_3">
    <path d="M 45.267188 301.717812 
L 45.267188 48.331875 
" style="fill: none; stroke: #000000; stroke-width: 0.8; stroke-linejoin: miter; stroke-linecap: square"/>
   </g>
   <g id="patch_4">
    <path d="M 982.876106 301.717812 
L 982.876106 48.331875 
" style="fill: none; stroke: #000000; stroke-width: 0.8; stroke-linejoin: miter; stroke-linecap: square"/>
   </g>
   <g id="patch_5">
    <path d="M 45.267188 301.717812 
L 982.876106 301.717812 
" style="fill: none; stroke: #000000; stroke-width: 0.8; stroke-linejoin: miter; stroke-linecap: square"/>
   </g>
   <g id="patch_6">
    <path d="M 45.267188 48.331875 
L 982.876106 48.331875 
" style="fill: none; stroke: #000000; stroke-width: 0.8; stroke-linejoin: miter; stroke-linecap: square"/>
   </g>
   <g id="text_10">
    <!-- Closing Price -->
    <g transform="translate(475.595709 42.331875)scale(0.12 -0.12)">
     <defs>
      <path id="DejaVuSans-43" d="M 4122 4306 
L 4122 3641 
Q 3803 3938 3442 4084 
Q 3081 4231 2675 4231 
Q 1875 4231 1450 3742 
Q 1025 3253 1025 2328 
Q 1025 1406 1450 917 
Q 1875 428 2675 428 
Q 3081 428 3442 575 
Q 3803 722 4122 1019 
L 4122 359 
Q 3791 134 3420 21 
Q 3050 -91 2638 -91 
Q 1578 -91 968 557 
Q 359 1206 359 2328 
Q 359 3453 968 4101 
Q 1578 4750 2638 4750 
Q 3056 4750 3426 4639 
Q 3797 4528 4122 4306 
z
" transform="scale(0.015625)"/>
      <path id="DejaVuSans-6c" d="M 603 4863 
L 1178 4863 
L 1178 0 
L 603 0 
L 603 4863 
z
" transform="scale(0.015625)"/>
      <path id="DejaVuSans-6f" d="M 1959 3097 
Q 1497 3097 1228 2736 
Q 959 2375 959 1747 
Q 959 1119 1226 758 
Q 1494 397 1959 397 
Q 2419 397 2687 759 
Q 2956 1122 2956 1747 
Q 2956 2369 2687 2733 
Q 2419 3097 1959 3097 
z
M 1959 3584 
Q 2709 3584 3137 3096 
Q 3566 2609 3566 1747 
Q 3566 888 3137 398 
Q 2709 -91 1959 -91 
Q 1206 -91 779 398 
Q 353 888 353 1747 
Q 353 2609 779 3096 
Q 1206 3584 1959 3584 
z
" transform="scale(0.015625)"/>
      <path id="DejaVuSans-73" d="M 2834 3397 
L 2834 2853 
Q 2591 2978 2328 3040 
Q 2066 3103 1784 3103 
Q 1356 3103 1142 2972 
Q 928 2841 928 2578 
Q 928 2378 1081 2264 
Q 1234 2150 1697 2047 
L 1894 2003 
Q 2506 1872 2764 1633 
Q 3022 1394 3022 966 
Q 3022 478 2636 193 
Q 2250 -91 1575 -91 
Q 1294 -91 989 -36 
Q 684 19 347 128 
L 347 722 
Q 666 556 975 473 
Q 1284 391 1588 391 
Q 1994 391 2212 530 
Q 2431 669 2431 922 
Q 2431 1156 2273 1281 
Q 2116 1406 1581 1522 
L 1381 1569 
Q 847 1681 609 1914 
Q 372 2147 372 2553 
Q 372 3047 722 3315 
Q 1072 3584 1716 3584 
Q 2034 3584 2315 3537 
Q 2597 3491 2834 3397 
z
" transform="scale(0.015625)"/>
      <path id="DejaVuSans-69" d="M 603 3500 
L 1178 3500 
L 1178 0 
L 603 0 
L 603 3500 
z
M 603 4863 
L 1178 4863 
L 1178 4134 
L 603 4134 
L 603 4863 
z
" transform="scale(0.015625)"/>
      <path id="DejaVuSans-6e" d="M 3513 2113 
L 3513 0 
L 2938 0 
L 2938 2094 
Q 2938 2591 2744 2837 
Q 2550 3084 2163 3084 
Q 1697 3084 1428 2787 
Q 1159 2491 1159 1978 
L 1159 0 
L 581 0 
L 581 3500 
L 1159 3500 
L 1159 2956 
Q 1366 3272 1645 3428 
Q 1925 3584 2291 3584 
Q 2894 3584 3203 3211 
Q 3513 2838 3513 2113 
z
" transform="scale(0.015625)"/>
      <path id="DejaVuSans-67" d="M 2906 1791 
Q 2906 2416 2648 2759 
Q 2391 3103 1925 3103 
Q 1463 3103 1205 2759 
Q 947 2416 947 1791 
Q 947 1169 1205 825 
Q 1463 481 1925 481 
Q 2391 481 2648 825 
Q 2906 1169 2906 1791 
z
M 3481 434 
Q 3481 -459 3084 -895 
Q 2688 -1331 1869 -1331 
Q 1566 -1331 1297 -1286 
Q 1028 -1241 775 -1147 
L 775 -588 
Q 1028 -725 1275 -790 
Q 1522 -856 1778 -856 
Q 2344 -856 2625 -561 
Q 2906 -266 2906 331 
L 2906 616 
Q 2728 306 2450 153 
Q 2172 0 1784 0 
Q 1141 0 747 490 
Q 353 981 353 1791 
Q 353 2603 747 3093 
Q 1141 3584 1784 3584 
Q 2172 3584 2450 3431 
Q 2728 3278 2906 2969 
L 2906 3500 
L 3481 3500 
L 3481 434 
z
" transform="scale(0.015625)"/>
      <path id="DejaVuSans-20" transform="scale(0.015625)"/>
      <path id="DejaVuSans-50" d="M 1259 4147 
L 1259 2394 
L 2053 2394 
Q 2494 2394 2734 2622 
Q 2975 2850 2975 3272 
Q 2975 3691 2734 3919 
Q 2494 4147 2053 4147 
L 1259 4147 
z
M 628 4666 
L 2053 4666 
Q 2838 4666 3239 4311 
Q 3641 3956 3641 3272 
Q 3641 2581 3239 2228 
Q 2838 1875 2053 1875 
L 1259 1875 
L 1259 0 
L 628 0 
L 628 4666 
z
" transform="scale(0.015625)"/>
      <path id="DejaVuSans-72" d="M 2631 2963 
Q 2534 3019 2420 3045 
Q 2306 3072 2169 3072 
Q 1681 3072 1420 2755 
Q 1159 2438 1159 1844 
L 1159 0 
L 581 0 
L 581 3500 
L 1159 3500 
L 1159 2956 
Q 1341 3275 1631 3429 
Q 1922 3584 2338 3584 
Q 2397 3584 2469 3576 
Q 2541 3569 2628 3553 
L 2631 2963 
z
" transform="scale(0.015625)"/>
      <path id="DejaVuSans-63" d="M 3122 3366 
L 3122 2828 
Q 2878 2963 2633 3030 
Q 2388 3097 2138 3097 
Q 1578 3097 1268 2742 
Q 959 2388 959 1747 
Q 959 1106 1268 751 
Q 1578 397 2138 397 
Q 2388 397 2633 464 
Q 2878 531 3122 666 
L 3122 134 
Q 2881 22 2623 -34 
Q 2366 -91 2075 -91 
Q 1284 -91 818 406 
Q 353 903 353 1747 
Q 353 2603 823 3093 
Q 1294 3584 2113 3584 
Q 2378 3584 2631 3529 
Q 2884 3475 3122 3366 
z
" transform="scale(0.015625)"/>
      <path id="DejaVuSans-65" d="M 3597 1894 
L 3597 1613 
L 953 1613 
Q 991 1019 1311 708 
Q 1631 397 2203 397 
Q 2534 397 2845 478 
Q 3156 559 3463 722 
L 3463 178 
Q 3153 47 2828 -22 
Q 2503 -91 2169 -91 
Q 1331 -91 842 396 
Q 353 884 353 1716 
Q 353 2575 817 3079 
Q 1281 3584 2069 3584 
Q 2775 3584 3186 3129 
Q 3597 2675 3597 1894 
z
M 3022 2063 
Q 3016 2534 2758 2815 
Q 2500 3097 2075 3097 
Q 1594 3097 1305 2825 
Q 1016 2553 972 2059 
L 3022 2063 
z
" transform="scale(0.015625)"/>
     </defs>
     <use xlink:href="#DejaVuSans-43"/>
     <use xlink:href="#DejaVuSans-6c" x="69.824219"/>
     <use xlink:href="#DejaVuSans-6f" x="97.607422"/>
     <use xlink:href="#DejaVuSans-73" x="158.789062"/>
     <use xlink:href="#DejaVuSans-69" x="210.888672"/>
     <use xlink:href="#DejaVuSans-6e" x="238.671875"/>
     <use xlink:href="#DejaVuSans-67" x="302.050781"/>
     <use xlink:href="#DejaVuSans-20" x="365.527344"/>
     <use xlink:href="#DejaVuSans-50" x="397.314453"/>
     <use xlink:href="#DejaVuSans-72" x="455.867188"/>
     <use xlink:href="#DejaVuSans-69" x="496.980469"/>
     <use xlink:href="#DejaVuSans-63" x="524.763672"/>
     <use xlink:href="#DejaVuSans-65" x="579.744141"/>
    </g>
   </g>
   <g id="legend_1">
    <g id="patch_7">
     <path d="M 52.267188 85.688125 
L 116.998438 85.688125 
Q 118.998438 85.688125 118.998438 83.688125 
L 118.998438 55.331875 
Q 118.998438 53.331875 116.998438 53.331875 
L 52.267188 53.331875 
Q 50.267188 53.331875 50.267188 55.331875 
L 50.267188 83.688125 
Q 50.267188 85.688125 52.267188 85.688125 
z
" style="fill: #ffffff; opacity: 0.8; stroke: #cccccc; stroke-linejoin: miter"/>
    </g>
    <g id="line2d_45">
     <path d="M 54.267188 61.430312 
L 64.267188 61.430312 
L 74.267188 61.430312 
" style="fill: none; stroke: #1f77b4; stroke-width: 1.5; stroke-linecap: square"/>
    </g>
    <g id="text_11">
     <!-- CLOSE -->
     <g transform="translate(82.267188 64.930312)scale(0.1 -0.1)">
      <defs>
       <path id="DejaVuSans-4c" d="M 628 4666 
L 1259 4666 
L 1259 531 
L 3531 531 
L 3531 0 
L 628 0 
L 628 4666 
z
" transform="scale(0.015625)"/>
       <path id="DejaVuSans-4f" d="M 2522 4238 
Q 1834 4238 1429 3725 
Q 1025 3213 1025 2328 
Q 1025 1447 1429 934 
Q 1834 422 2522 422 
Q 3209 422 3611 934 
Q 4013 1447 4013 2328 
Q 4013 3213 3611 3725 
Q 3209 4238 2522 4238 
z
M 2522 4750 
Q 3503 4750 4090 4092 
Q 4678 3434 4678 2328 
Q 4678 1225 4090 567 
Q 3503 -91 2522 -91 
Q 1538 -91 948 565 
Q 359 1222 359 2328 
Q 359 3434 948 4092 
Q 1538 4750 2522 4750 
z
" transform="scale(0.015625)"/>
       <path id="DejaVuSans-53" d="M 3425 4513 
L 3425 3897 
Q 3066 4069 2747 4153 
Q 2428 4238 2131 4238 
Q 1616 4238 1336 4038 
Q 1056 3838 1056 3469 
Q 1056 3159 1242 3001 
Q 1428 2844 1947 2747 
L 2328 2669 
Q 3034 2534 3370 2195 
Q 3706 1856 3706 1288 
Q 3706 609 3251 259 
Q 2797 -91 1919 -91 
Q 1588 -91 1214 -16 
Q 841 59 441 206 
L 441 856 
Q 825 641 1194 531 
Q 1563 422 1919 422 
Q 2459 422 2753 634 
Q 3047 847 3047 1241 
Q 3047 1584 2836 1778 
Q 2625 1972 2144 2069 
L 1759 2144 
Q 1053 2284 737 2584 
Q 422 2884 422 3419 
Q 422 4038 858 4394 
Q 1294 4750 2059 4750 
Q 2388 4750 2728 4690 
Q 3069 4631 3425 4513 
z
" transform="scale(0.015625)"/>
       <path id="DejaVuSans-45" d="M 628 4666 
L 3578 4666 
L 3578 4134 
L 1259 4134 
L 1259 2753 
L 3481 2753 
L 3481 2222 
L 1259 2222 
L 1259 531 
L 3634 531 
L 3634 0 
L 628 0 
L 628 4666 
z
" transform="scale(0.015625)"/>
      </defs>
      <use xlink:href="#DejaVuSans-43"/>
      <use xlink:href="#DejaVuSans-4c" x="69.824219"/>
      <use xlink:href="#DejaVuSans-4f" x="121.912109"/>
      <use xlink:href="#DejaVuSans-53" x="200.623047"/>
      <use xlink:href="#DejaVuSans-45" x="264.099609"/>
     </g>
    </g>
    <g id="line2d_46">
     <path d="M 54.267188 76.108437 
L 64.267188 76.108437 
L 74.267188 76.108437 
" style="fill: none; stroke: #ff7f0e; stroke-width: 1.5; stroke-linecap: square"/>
    </g>
    <g id="text_12">
     <!-- SMA5 -->
     <g transform="translate(82.267188 79.608437)scale(0.1 -0.1)">
      <defs>
       <path id="DejaVuSans-4d" d="M 628 4666 
L 1569 4666 
L 2759 1491 
L 3956 4666 
L 4897 4666 
L 4897 0 
L 4281 0 
L 4281 4097 
L 3078 897 
L 2444 897 
L 1241 4097 
L 1241 0 
L 628 0 
L 628 4666 
z
" transform="scale(0.015625)"/>
       <path id="DejaVuSans-41" d="M 2188 4044 
L 1331 1722 
L 3047 1722 
L 2188 4044 
z
M 1831 4666 
L 2547 4666 
L 4325 0 
L 3669 0 
L 3244 1197 
L 1141 1197 
L 716 0 
L 50 0 
L 1831 4666 
z
" transform="scale(0.015625)"/>
       <path id="DejaVuSans-35" d="M 691 4666 
L 3169 4666 
L 3169 4134 
L 1269 4134 
L 1269 2991 
Q 1406 3038 1543 3061 
Q 1681 3084 1819 3084 
Q 2600 3084 3056 2656 
Q 3513 2228 3513 1497 
Q 3513 744 3044 326 
Q 2575 -91 1722 -91 
Q 1428 -91 1123 -41 
Q 819 9 494 109 
L 494 744 
Q 775 591 1075 516 
Q 1375 441 1709 441 
Q 2250 441 2565 725 
Q 2881 1009 2881 1497 
Q 2881 1984 2565 2268 
Q 2250 2553 1709 2553 
Q 1456 2553 1204 2497 
Q 953 2441 691 2322 
L 691 4666 
z
" transform="scale(0.015625)"/>
      </defs>
      <use xlink:href="#DejaVuSans-53"/>
      <use xlink:href="#DejaVuSans-4d" x="63.476562"/>
      <use xlink:href="#DejaVuSans-41" x="149.755859"/>
      <use xlink:href="#DejaVuSans-35" x="218.164062"/>
     </g>
    </g>
   </g>
  </g>
  <g id="axes_2">
   <g id="patch_8">
    <path d="M 45.267188 584.521875 
L 982.876106 584.521875 
L 982.876106 331.135938 
L 45.267188 331.135938 
z
" style="fill: #ffffff"/>
   </g>
   <g id="matplotlib.axis_3">
    <g id="xtick_13">
     <g id="line2d_47">
      <path d="M 82.541751 584.521875 
L 82.541751 331.135938 
" clip-path="url(#pa4f4887a8f)" style="fill: none; stroke-dasharray: 2.96,1.28; stroke-dashoffset: 0; stroke: #b0b0b0; stroke-width: 0.8"/>
     </g>
     <g id="line2d_48">
      <g>
       <use xlink:href="#mbb84e5b267" x="82.541751" y="584.521875" style="stroke: #000000; stroke-width: 0.8"/>
      </g>
     </g>
     <g id="text_13">
      <!-- 2022-01 -->
      <g transform="translate(61.650345 599.120312)scale(0.1 -0.1)">
       <defs>
        <path id="DejaVuSans-2d" d="M 313 2009 
L 1997 2009 
L 1997 1497 
L 313 1497 
L 313 2009 
z
" transform="scale(0.015625)"/>
        <path id="DejaVuSans-31" d="M 794 531 
L 1825 531 
L 1825 4091 
L 703 3866 
L 703 4441 
L 1819 4666 
L 2450 4666 
L 2450 531 
L 3481 531 
L 3481 0 
L 794 0 
L 794 531 
z
" transform="scale(0.015625)"/>
       </defs>
       <use xlink:href="#DejaVuSans-32"/>
       <use xlink:href="#DejaVuSans-30" x="63.623047"/>
       <use xlink:href="#DejaVuSans-32" x="127.246094"/>
       <use xlink:href="#DejaVuSans-32" x="190.869141"/>
       <use xlink:href="#DejaVuSans-2d" x="254.492188"/>
       <use xlink:href="#DejaVuSans-30" x="290.576172"/>
       <use xlink:href="#DejaVuSans-31" x="354.199219"/>
      </g>
     </g>
    </g>
    <g id="xtick_14">
     <g id="line2d_49">
      <path d="M 165.374115 584.521875 
L 165.374115 331.135938 
" clip-path="url(#pa4f4887a8f)" style="fill: none; stroke-dasharray: 2.96,1.28; stroke-dashoffset: 0; stroke: #b0b0b0; stroke-width: 0.8"/>
     </g>
     <g id="line2d_50">
      <g>
       <use xlink:href="#mbb84e5b267" x="165.374115" y="584.521875" style="stroke: #000000; stroke-width: 0.8"/>
      </g>
     </g>
     <g id="text_14">
      <!-- 2022-02 -->
      <g transform="translate(144.482709 599.120312)scale(0.1 -0.1)">
       <use xlink:href="#DejaVuSans-32"/>
       <use xlink:href="#DejaVuSans-30" x="63.623047"/>
       <use xlink:href="#DejaVuSans-32" x="127.246094"/>
       <use xlink:href="#DejaVuSans-32" x="190.869141"/>
       <use xlink:href="#DejaVuSans-2d" x="254.492188"/>
       <use xlink:href="#DejaVuSans-30" x="290.576172"/>
       <use xlink:href="#DejaVuSans-32" x="354.199219"/>
      </g>
     </g>
    </g>
    <g id="xtick_15">
     <g id="line2d_51">
      <path d="M 240.190444 584.521875 
L 240.190444 331.135938 
" clip-path="url(#pa4f4887a8f)" style="fill: none; stroke-dasharray: 2.96,1.28; stroke-dashoffset: 0; stroke: #b0b0b0; stroke-width: 0.8"/>
     </g>
     <g id="line2d_52">
      <g>
       <use xlink:href="#mbb84e5b267" x="240.190444" y="584.521875" style="stroke: #000000; stroke-width: 0.8"/>
      </g>
     </g>
     <g id="text_15">
      <!-- 2022-03 -->
      <g transform="translate(219.299037 599.120312)scale(0.1 -0.1)">
       <use xlink:href="#DejaVuSans-32"/>
       <use xlink:href="#DejaVuSans-30" x="63.623047"/>
       <use xlink:href="#DejaVuSans-32" x="127.246094"/>
       <use xlink:href="#DejaVuSans-32" x="190.869141"/>
       <use xlink:href="#DejaVuSans-2d" x="254.492188"/>
       <use xlink:href="#DejaVuSans-30" x="290.576172"/>
       <use xlink:href="#DejaVuSans-33" x="354.199219"/>
      </g>
     </g>
    </g>
    <g id="xtick_16">
     <g id="line2d_53">
      <path d="M 323.022808 584.521875 
L 323.022808 331.135938 
" clip-path="url(#pa4f4887a8f)" style="fill: none; stroke-dasharray: 2.96,1.28; stroke-dashoffset: 0; stroke: #b0b0b0; stroke-width: 0.8"/>
     </g>
     <g id="line2d_54">
      <g>
       <use xlink:href="#mbb84e5b267" x="323.022808" y="584.521875" style="stroke: #000000; stroke-width: 0.8"/>
      </g>
     </g>
     <g id="text_16">
      <!-- 2022-04 -->
      <g transform="translate(302.131401 599.120312)scale(0.1 -0.1)">
       <use xlink:href="#DejaVuSans-32"/>
       <use xlink:href="#DejaVuSans-30" x="63.623047"/>
       <use xlink:href="#DejaVuSans-32" x="127.246094"/>
       <use xlink:href="#DejaVuSans-32" x="190.869141"/>
       <use xlink:href="#DejaVuSans-2d" x="254.492188"/>
       <use xlink:href="#DejaVuSans-30" x="290.576172"/>
       <use xlink:href="#DejaVuSans-34" x="354.199219"/>
      </g>
     </g>
    </g>
    <g id="xtick_17">
     <g id="line2d_55">
      <path d="M 403.18316 584.521875 
L 403.18316 331.135938 
" clip-path="url(#pa4f4887a8f)" style="fill: none; stroke-dasharray: 2.96,1.28; stroke-dashoffset: 0; stroke: #b0b0b0; stroke-width: 0.8"/>
     </g>
     <g id="line2d_56">
      <g>
       <use xlink:href="#mbb84e5b267" x="403.18316" y="584.521875" style="stroke: #000000; stroke-width: 0.8"/>
      </g>
     </g>
     <g id="text_17">
      <!-- 2022-05 -->
      <g transform="translate(382.291753 599.120312)scale(0.1 -0.1)">
       <use xlink:href="#DejaVuSans-32"/>
       <use xlink:href="#DejaVuSans-30" x="63.623047"/>
       <use xlink:href="#DejaVuSans-32" x="127.246094"/>
       <use xlink:href="#DejaVuSans-32" x="190.869141"/>
       <use xlink:href="#DejaVuSans-2d" x="254.492188"/>
       <use xlink:href="#DejaVuSans-30" x="290.576172"/>
       <use xlink:href="#DejaVuSans-35" x="354.199219"/>
      </g>
     </g>
    </g>
    <g id="xtick_18">
     <g id="line2d_57">
      <path d="M 486.015523 584.521875 
L 486.015523 331.135938 
" clip-path="url(#pa4f4887a8f)" style="fill: none; stroke-dasharray: 2.96,1.28; stroke-dashoffset: 0; stroke: #b0b0b0; stroke-width: 0.8"/>
     </g>
     <g id="line2d_58">
      <g>
       <use xlink:href="#mbb84e5b267" x="486.015523" y="584.521875" style="stroke: #000000; stroke-width: 0.8"/>
      </g>
     </g>
     <g id="text_18">
      <!-- 2022-06 -->
      <g transform="translate(465.124117 599.120312)scale(0.1 -0.1)">
       <use xlink:href="#DejaVuSans-32"/>
       <use xlink:href="#DejaVuSans-30" x="63.623047"/>
       <use xlink:href="#DejaVuSans-32" x="127.246094"/>
       <use xlink:href="#DejaVuSans-32" x="190.869141"/>
       <use xlink:href="#DejaVuSans-2d" x="254.492188"/>
       <use xlink:href="#DejaVuSans-30" x="290.576172"/>
       <use xlink:href="#DejaVuSans-36" x="354.199219"/>
      </g>
     </g>
    </g>
    <g id="xtick_19">
     <g id="line2d_59">
      <path d="M 566.175876 584.521875 
L 566.175876 331.135938 
" clip-path="url(#pa4f4887a8f)" style="fill: none; stroke-dasharray: 2.96,1.28; stroke-dashoffset: 0; stroke: #b0b0b0; stroke-width: 0.8"/>
     </g>
     <g id="line2d_60">
      <g>
       <use xlink:href="#mbb84e5b267" x="566.175876" y="584.521875" style="stroke: #000000; stroke-width: 0.8"/>
      </g>
     </g>
     <g id="text_19">
      <!-- 2022-07 -->
      <g transform="translate(545.284469 599.120312)scale(0.1 -0.1)">
       <defs>
        <path id="DejaVuSans-37" d="M 525 4666 
L 3525 4666 
L 3525 4397 
L 1831 0 
L 1172 0 
L 2766 4134 
L 525 4134 
L 525 4666 
z
" transform="scale(0.015625)"/>
       </defs>
       <use xlink:href="#DejaVuSans-32"/>
       <use xlink:href="#DejaVuSans-30" x="63.623047"/>
       <use xlink:href="#DejaVuSans-32" x="127.246094"/>
       <use xlink:href="#DejaVuSans-32" x="190.869141"/>
       <use xlink:href="#DejaVuSans-2d" x="254.492188"/>
       <use xlink:href="#DejaVuSans-30" x="290.576172"/>
       <use xlink:href="#DejaVuSans-37" x="354.199219"/>
      </g>
     </g>
    </g>
    <g id="xtick_20">
     <g id="line2d_61">
      <path d="M 649.008239 584.521875 
L 649.008239 331.135938 
" clip-path="url(#pa4f4887a8f)" style="fill: none; stroke-dasharray: 2.96,1.28; stroke-dashoffset: 0; stroke: #b0b0b0; stroke-width: 0.8"/>
     </g>
     <g id="line2d_62">
      <g>
       <use xlink:href="#mbb84e5b267" x="649.008239" y="584.521875" style="stroke: #000000; stroke-width: 0.8"/>
      </g>
     </g>
     <g id="text_20">
      <!-- 2022-08 -->
      <g transform="translate(628.116833 599.120312)scale(0.1 -0.1)">
       <use xlink:href="#DejaVuSans-32"/>
       <use xlink:href="#DejaVuSans-30" x="63.623047"/>
       <use xlink:href="#DejaVuSans-32" x="127.246094"/>
       <use xlink:href="#DejaVuSans-32" x="190.869141"/>
       <use xlink:href="#DejaVuSans-2d" x="254.492188"/>
       <use xlink:href="#DejaVuSans-30" x="290.576172"/>
       <use xlink:href="#DejaVuSans-38" x="354.199219"/>
      </g>
     </g>
    </g>
    <g id="xtick_21">
     <g id="line2d_63">
      <path d="M 731.840603 584.521875 
L 731.840603 331.135938 
" clip-path="url(#pa4f4887a8f)" style="fill: none; stroke-dasharray: 2.96,1.28; stroke-dashoffset: 0; stroke: #b0b0b0; stroke-width: 0.8"/>
     </g>
     <g id="line2d_64">
      <g>
       <use xlink:href="#mbb84e5b267" x="731.840603" y="584.521875" style="stroke: #000000; stroke-width: 0.8"/>
      </g>
     </g>
     <g id="text_21">
      <!-- 2022-09 -->
      <g transform="translate(710.949197 599.120312)scale(0.1 -0.1)">
       <defs>
        <path id="DejaVuSans-39" d="M 703 97 
L 703 672 
Q 941 559 1184 500 
Q 1428 441 1663 441 
Q 2288 441 2617 861 
Q 2947 1281 2994 2138 
Q 2813 1869 2534 1725 
Q 2256 1581 1919 1581 
Q 1219 1581 811 2004 
Q 403 2428 403 3163 
Q 403 3881 828 4315 
Q 1253 4750 1959 4750 
Q 2769 4750 3195 4129 
Q 3622 3509 3622 2328 
Q 3622 1225 3098 567 
Q 2575 -91 1691 -91 
Q 1453 -91 1209 -44 
Q 966 3 703 97 
z
M 1959 2075 
Q 2384 2075 2632 2365 
Q 2881 2656 2881 3163 
Q 2881 3666 2632 3958 
Q 2384 4250 1959 4250 
Q 1534 4250 1286 3958 
Q 1038 3666 1038 3163 
Q 1038 2656 1286 2365 
Q 1534 2075 1959 2075 
z
" transform="scale(0.015625)"/>
       </defs>
       <use xlink:href="#DejaVuSans-32"/>
       <use xlink:href="#DejaVuSans-30" x="63.623047"/>
       <use xlink:href="#DejaVuSans-32" x="127.246094"/>
       <use xlink:href="#DejaVuSans-32" x="190.869141"/>
       <use xlink:href="#DejaVuSans-2d" x="254.492188"/>
       <use xlink:href="#DejaVuSans-30" x="290.576172"/>
       <use xlink:href="#DejaVuSans-39" x="354.199219"/>
      </g>
     </g>
    </g>
    <g id="xtick_22">
     <g id="line2d_65">
      <path d="M 812.000955 584.521875 
L 812.000955 331.135938 
" clip-path="url(#pa4f4887a8f)" style="fill: none; stroke-dasharray: 2.96,1.28; stroke-dashoffset: 0; stroke: #b0b0b0; stroke-width: 0.8"/>
     </g>
     <g id="line2d_66">
      <g>
       <use xlink:href="#mbb84e5b267" x="812.000955" y="584.521875" style="stroke: #000000; stroke-width: 0.8"/>
      </g>
     </g>
     <g id="text_22">
      <!-- 2022-10 -->
      <g transform="translate(791.109549 599.120312)scale(0.1 -0.1)">
       <use xlink:href="#DejaVuSans-32"/>
       <use xlink:href="#DejaVuSans-30" x="63.623047"/>
       <use xlink:href="#DejaVuSans-32" x="127.246094"/>
       <use xlink:href="#DejaVuSans-32" x="190.869141"/>
       <use xlink:href="#DejaVuSans-2d" x="254.492188"/>
       <use xlink:href="#DejaVuSans-31" x="290.576172"/>
       <use xlink:href="#DejaVuSans-30" x="354.199219"/>
      </g>
     </g>
    </g>
    <g id="xtick_23">
     <g id="line2d_67">
      <path d="M 894.833319 584.521875 
L 894.833319 331.135938 
" clip-path="url(#pa4f4887a8f)" style="fill: none; stroke-dasharray: 2.96,1.28; stroke-dashoffset: 0; stroke: #b0b0b0; stroke-width: 0.8"/>
     </g>
     <g id="line2d_68">
      <g>
       <use xlink:href="#mbb84e5b267" x="894.833319" y="584.521875" style="stroke: #000000; stroke-width: 0.8"/>
      </g>
     </g>
     <g id="text_23">
      <!-- 2022-11 -->
      <g transform="translate(873.941913 599.120312)scale(0.1 -0.1)">
       <use xlink:href="#DejaVuSans-32"/>
       <use xlink:href="#DejaVuSans-30" x="63.623047"/>
       <use xlink:href="#DejaVuSans-32" x="127.246094"/>
       <use xlink:href="#DejaVuSans-32" x="190.869141"/>
       <use xlink:href="#DejaVuSans-2d" x="254.492188"/>
       <use xlink:href="#DejaVuSans-31" x="290.576172"/>
       <use xlink:href="#DejaVuSans-31" x="354.199219"/>
      </g>
     </g>
    </g>
    <g id="xtick_24">
     <g id="line2d_69">
      <path d="M 974.993671 584.521875 
L 974.993671 331.135938 
" clip-path="url(#pa4f4887a8f)" style="fill: none; stroke-dasharray: 2.96,1.28; stroke-dashoffset: 0; stroke: #b0b0b0; stroke-width: 0.8"/>
     </g>
     <g id="line2d_70">
      <g>
       <use xlink:href="#mbb84e5b267" x="974.993671" y="584.521875" style="stroke: #000000; stroke-width: 0.8"/>
      </g>
     </g>
     <g id="text_24">
      <!-- 2022-12 -->
      <g transform="translate(954.102265 599.120312)scale(0.1 -0.1)">
       <use xlink:href="#DejaVuSans-32"/>
       <use xlink:href="#DejaVuSans-30" x="63.623047"/>
       <use xlink:href="#DejaVuSans-32" x="127.246094"/>
       <use xlink:href="#DejaVuSans-32" x="190.869141"/>
       <use xlink:href="#DejaVuSans-2d" x="254.492188"/>
       <use xlink:href="#DejaVuSans-31" x="290.576172"/>
       <use xlink:href="#DejaVuSans-32" x="354.199219"/>
      </g>
     </g>
    </g>
   </g>
   <g id="matplotlib.axis_4">
    <g id="ytick_10">
     <g id="line2d_71">
      <path d="M 45.267188 571.261267 
L 982.876106 571.261267 
" clip-path="url(#pa4f4887a8f)" style="fill: none; stroke-dasharray: 2.96,1.28; stroke-dashoffset: 0; stroke: #b0b0b0; stroke-width: 0.8"/>
     </g>
     <g id="line2d_72">
      <g>
       <use xlink:href="#m13b0c74abf" x="45.267188" y="571.261267" style="stroke: #000000; stroke-width: 0.8"/>
      </g>
     </g>
     <g id="text_25">
      <!-- 100 -->
      <g transform="translate(10.8 575.060486)scale(0.1 -0.1)">
       <defs>
        <path id="DejaVuSans-2212" d="M 678 2272 
L 4684 2272 
L 4684 1741 
L 678 1741 
L 678 2272 
z
" transform="scale(0.015625)"/>
       </defs>
       <use xlink:href="#DejaVuSans-2212"/>
       <use xlink:href="#DejaVuSans-31" x="83.789062"/>
       <use xlink:href="#DejaVuSans-30" x="147.412109"/>
       <use xlink:href="#DejaVuSans-30" x="211.035156"/>
      </g>
     </g>
    </g>
    <g id="ytick_11">
     <g id="line2d_73">
      <path d="M 45.267188 520.688363 
L 982.876106 520.688363 
" clip-path="url(#pa4f4887a8f)" style="fill: none; stroke-dasharray: 2.96,1.28; stroke-dashoffset: 0; stroke: #b0b0b0; stroke-width: 0.8"/>
     </g>
     <g id="line2d_74">
      <g>
       <use xlink:href="#m13b0c74abf" x="45.267188" y="520.688363" style="stroke: #000000; stroke-width: 0.8"/>
      </g>
     </g>
     <g id="text_26">
      <!-- 50 -->
      <g transform="translate(17.1625 524.487582)scale(0.1 -0.1)">
       <use xlink:href="#DejaVuSans-2212"/>
       <use xlink:href="#DejaVuSans-35" x="83.789062"/>
       <use xlink:href="#DejaVuSans-30" x="147.412109"/>
      </g>
     </g>
    </g>
    <g id="ytick_12">
     <g id="line2d_75">
      <path d="M 45.267188 470.115459 
L 982.876106 470.115459 
" clip-path="url(#pa4f4887a8f)" style="fill: none; stroke-dasharray: 2.96,1.28; stroke-dashoffset: 0; stroke: #b0b0b0; stroke-width: 0.8"/>
     </g>
     <g id="line2d_76">
      <g>
       <use xlink:href="#m13b0c74abf" x="45.267188" y="470.115459" style="stroke: #000000; stroke-width: 0.8"/>
      </g>
     </g>
     <g id="text_27">
      <!-- 0 -->
      <g transform="translate(31.904688 473.914678)scale(0.1 -0.1)">
       <use xlink:href="#DejaVuSans-30"/>
      </g>
     </g>
    </g>
    <g id="ytick_13">
     <g id="line2d_77">
      <path d="M 45.267188 419.542556 
L 982.876106 419.542556 
" clip-path="url(#pa4f4887a8f)" style="fill: none; stroke-dasharray: 2.96,1.28; stroke-dashoffset: 0; stroke: #b0b0b0; stroke-width: 0.8"/>
     </g>
     <g id="line2d_78">
      <g>
       <use xlink:href="#m13b0c74abf" x="45.267188" y="419.542556" style="stroke: #000000; stroke-width: 0.8"/>
      </g>
     </g>
     <g id="text_28">
      <!-- 50 -->
      <g transform="translate(25.542188 423.341774)scale(0.1 -0.1)">
       <use xlink:href="#DejaVuSans-35"/>
       <use xlink:href="#DejaVuSans-30" x="63.623047"/>
      </g>
     </g>
    </g>
    <g id="ytick_14">
     <g id="line2d_79">
      <path d="M 45.267188 368.969652 
L 982.876106 368.969652 
" clip-path="url(#pa4f4887a8f)" style="fill: none; stroke-dasharray: 2.96,1.28; stroke-dashoffset: 0; stroke: #b0b0b0; stroke-width: 0.8"/>
     </g>
     <g id="line2d_80">
      <g>
       <use xlink:href="#m13b0c74abf" x="45.267188" y="368.969652" style="stroke: #000000; stroke-width: 0.8"/>
      </g>
     </g>
     <g id="text_29">
      <!-- 100 -->
      <g transform="translate(19.179688 372.768871)scale(0.1 -0.1)">
       <use xlink:href="#DejaVuSans-31"/>
       <use xlink:href="#DejaVuSans-30" x="63.623047"/>
       <use xlink:href="#DejaVuSans-30" x="127.246094"/>
      </g>
     </g>
    </g>
   </g>
   <g id="line2d_81">
    <path d="M 87.885775 470.115459 
L 90.557786 470.428622 
L 93.229798 468.206009 
L 95.90181 465.834135 
L 98.573822 464.343628 
L 106.589857 463.941051 
L 109.261869 464.758336 
L 111.93388 464.355829 
L 114.605892 463.321676 
L 117.277904 463.364211 
L 125.293939 462.164033 
L 127.965951 467.395597 
L 130.637962 472.314274 
L 133.309974 475.082245 
L 135.981986 478.468829 
L 146.670033 486.32365 
L 152.014056 490.753442 
L 154.686068 496.041434 
L 162.702103 497.52636 
L 165.374115 499.904296 
L 170.718139 496.406832 
L 173.39015 497.474622 
L 181.406185 500.095853 
L 184.078197 502.651459 
L 186.750209 501.645607 
L 189.422221 499.430655 
L 192.094232 500.438469 
L 200.110268 502.882484 
L 202.782279 493.07868 
L 208.126303 479.87627 
L 210.798315 476.386433 
L 218.81435 473.603864 
L 221.486362 469.371474 
L 224.158373 467.508817 
L 226.830385 472.946623 
L 229.502397 476.303573 
L 237.518432 481.842531 
L 242.862455 492.376904 
L 245.534467 508.034601 
L 248.206479 525.335858 
L 256.222514 544.471748 
L 258.894526 558.886563 
L 261.566538 566.253265 
L 264.238549 570.139403 
L 266.910561 573.004332 
L 274.926596 572.271152 
L 277.598608 571.185464 
L 280.27062 565.009586 
L 282.942631 552.817842 
L 293.630678 546.94556 
L 296.30269 541.337004 
L 298.974702 535.039836 
L 301.646714 531.313877 
L 304.318725 530.312388 
L 312.334761 525.396337 
L 315.006772 512.885704 
L 317.678784 502.113418 
L 320.350796 495.661484 
L 323.022808 488.390387 
L 331.038843 480.263009 
L 333.710854 471.015344 
L 336.382866 464.782704 
L 341.72689 453.856231 
L 349.742925 450.513869 
L 352.414937 450.03043 
L 355.086948 452.319148 
L 368.447007 452.74394 
L 371.119019 457.788833 
L 373.791031 455.291843 
L 376.463042 444.278828 
L 379.135054 437.554355 
L 387.151089 435.662862 
L 389.823101 430.134948 
L 392.495113 425.7648 
L 395.167124 420.873979 
L 397.839136 421.597727 
L 405.855171 428.987788 
L 411.199195 440.828524 
L 413.871207 454.438907 
L 416.543218 471.009284 
L 424.559254 485.443848 
L 427.231265 490.836323 
L 429.903277 496.952621 
L 432.575289 501.801337 
L 435.2473 501.369869 
L 443.263336 485.738094 
L 445.935347 466.158204 
L 448.607359 451.72576 
L 451.279371 444.296552 
L 453.951383 434.150047 
L 461.967418 423.909166 
L 464.63943 418.186435 
L 467.311441 416.968002 
L 472.655465 410.018022 
L 480.6715 406.673536 
L 483.343512 402.977658 
L 486.015523 401.577135 
L 488.687535 405.144704 
L 491.359547 411.769561 
L 499.375582 420.218211 
L 502.047594 427.825611 
L 504.719606 434.166928 
L 507.391617 434.15223 
L 518.079664 436.690339 
L 520.751676 436.777893 
L 523.423688 437.440197 
L 526.095699 443.785007 
L 528.767711 452.904247 
L 536.783746 458.75662 
L 539.455758 457.053464 
L 542.12777 459.099053 
L 544.799782 448.217357 
L 547.471793 435.193465 
L 555.487829 427.775643 
L 560.831852 414.758913 
L 563.503864 417.789268 
L 566.175876 421.691655 
L 574.191911 424.203658 
L 576.863922 425.952697 
L 579.535934 419.568521 
L 582.207946 412.217988 
L 584.879958 408.13543 
L 592.895993 396.344492 
L 598.240016 394.495781 
L 600.912028 395.614364 
L 603.58404 390.973828 
L 611.600075 388.038275 
L 614.272087 383.349518 
L 616.944099 383.303153 
L 619.61611 381.335373 
L 622.288122 375.447962 
L 630.304157 376.827844 
L 632.976169 384.087465 
L 635.648181 388.004229 
L 638.320192 392.28299 
L 640.992204 393.339255 
L 649.008239 395.449216 
L 651.680251 395.326918 
L 654.352263 394.691573 
L 657.024275 394.440121 
L 659.696286 399.640028 
L 667.712322 402.326561 
L 673.056345 402.154008 
L 675.728357 401.026296 
L 678.400368 398.210999 
L 689.088415 386.505022 
L 691.760427 373.481671 
L 694.432439 363.265971 
L 697.104451 355.455168 
L 705.120486 355.551991 
L 707.792498 348.743813 
L 710.464509 345.926559 
L 713.136521 342.65348 
L 715.808533 351.736315 
L 723.824568 365.325098 
L 726.49658 371.747717 
L 731.840603 373.636434 
L 734.512615 375.368473 
L 742.52865 379.548038 
L 745.200662 383.059977 
L 747.872674 388.957896 
L 750.544685 391.106767 
L 753.216697 389.866224 
L 763.904744 382.638417 
L 766.576756 380.579474 
L 769.248768 373.495506 
L 771.920779 374.956722 
L 779.936814 373.857681 
L 782.608826 364.306349 
L 785.280838 360.409151 
L 787.95285 353.224247 
L 790.624861 353.792511 
L 798.640897 369.513968 
L 801.312908 378.540072 
L 803.98492 381.99578 
L 806.656932 386.046338 
L 809.328944 386.345316 
L 817.344979 404.337079 
L 820.016991 411.787921 
L 825.361014 420.198403 
L 828.033026 430.003171 
L 836.049061 435.475414 
L 838.721073 450.130342 
L 841.393084 457.789433 
L 844.065096 462.881693 
L 846.737108 466.469675 
L 854.753143 466.296591 
L 857.425155 458.313404 
L 860.097167 452.209403 
L 862.769178 444.49647 
L 865.44119 440.492381 
L 873.457225 436.748833 
L 876.129237 428.59245 
L 881.47326 422.675318 
L 884.145272 415.747934 
L 892.161307 402.492235 
L 894.833319 397.077063 
L 897.505331 399.250231 
L 902.849354 412.893717 
L 910.86539 411.73744 
L 916.209413 413.288034 
L 918.881425 417.740516 
L 921.553437 436.446117 
L 929.569472 451.731291 
L 932.241483 464.614295 
L 934.913495 475.165871 
L 937.585507 488.31321 
L 940.257519 502.569853 
L 940.257519 502.569853 
" clip-path="url(#pa4f4887a8f)" style="fill: none; stroke: #1f77b4; stroke-width: 1.5; stroke-linecap: square"/>
   </g>
   <g id="line2d_82">
    <path d="M 87.885775 470.115459 
L 90.557786 470.289439 
L 93.229798 469.435574 
L 98.573822 467.063758 
L 109.261869 465.848098 
L 111.93388 465.489478 
L 114.605892 464.988705 
L 117.277904 464.624724 
L 125.293939 464.086339 
L 127.965951 464.797029 
L 130.637962 466.387939 
L 133.309974 468.206794 
L 135.981986 470.334047 
L 143.998021 473.205894 
L 146.670033 475.889883 
L 152.014056 478.917129 
L 154.686068 482.392069 
L 162.702103 485.454232 
L 165.374115 488.371148 
L 168.046127 490.344349 
L 173.39015 492.75177 
L 181.406185 494.226156 
L 184.078197 495.916325 
L 186.750209 497.064959 
L 192.094232 498.119804 
L 200.110268 499.073521 
L 202.782279 497.873364 
L 205.454291 495.588792 
L 210.798315 489.231093 
L 218.81435 486.104379 
L 221.486362 482.756711 
L 224.158373 479.706341 
L 226.830385 478.354116 
L 229.502397 477.94394 
L 237.518432 478.723761 
L 242.862455 481.45468 
L 245.534467 486.771117 
L 248.206479 494.48459 
L 256.222514 504.482566 
L 258.894526 515.363839 
L 261.566538 525.542079 
L 264.238549 534.461792 
L 266.910561 542.170472 
L 274.926596 548.190716 
L 277.598608 552.789731 
L 280.27062 555.23373 
L 282.942631 554.750548 
L 293.630678 553.189539 
L 296.30269 550.819018 
L 301.646714 544.393297 
L 304.318725 541.577107 
L 312.334761 538.340945 
L 315.006772 533.249887 
L 320.350796 520.750356 
L 323.022808 514.278356 
L 331.038843 507.475281 
L 336.382866 493.103169 
L 341.72689 479.852167 
L 349.742925 473.984506 
L 352.414937 469.19369 
L 355.086948 465.818781 
L 368.447007 463.203812 
L 371.119019 462.120816 
L 373.791031 460.755022 
L 376.463042 457.459783 
L 379.135054 453.478697 
L 387.151089 449.91553 
L 392.495113 441.920491 
L 395.167124 437.711188 
L 397.839136 434.488496 
L 405.855171 433.388354 
L 411.199195 434.876388 
L 413.871207 438.788892 
L 416.543218 445.23297 
L 424.559254 453.275146 
L 429.903277 468.020429 
L 432.575289 474.776611 
L 435.2473 480.095263 
L 443.263336 481.223829 
L 445.935347 478.210704 
L 448.607359 472.913715 
L 451.279371 467.190282 
L 453.951383 460.582235 
L 461.967418 453.247621 
L 464.63943 446.235384 
L 467.311441 440.381908 
L 469.983453 435.001113 
L 472.655465 430.004495 
L 480.6715 425.338303 
L 483.343512 420.866174 
L 486.015523 417.008366 
L 488.687535 414.635634 
L 491.359547 414.062419 
L 499.375582 415.293578 
L 502.047594 417.799984 
L 504.719606 421.073373 
L 507.391617 423.689145 
L 510.063629 425.91225 
L 518.079664 428.067868 
L 520.751676 429.809873 
L 523.423688 431.335938 
L 526.095699 433.825752 
L 528.767711 437.641451 
L 536.783746 441.864485 
L 539.455758 444.902281 
L 542.12777 447.741635 
L 544.799782 447.836779 
L 547.471793 445.308116 
L 555.487829 441.801622 
L 558.15984 437.680487 
L 560.831852 433.096172 
L 563.503864 430.034791 
L 566.175876 428.366164 
L 576.863922 427.21747 
L 579.535934 425.68768 
L 582.207946 422.993741 
L 584.879958 420.022079 
L 592.895993 415.286562 
L 595.568005 411.316182 
L 598.240016 407.952102 
L 600.912028 405.484554 
L 603.58404 402.582409 
L 611.600075 399.673582 
L 614.272087 396.408769 
L 619.61611 391.297191 
L 622.288122 388.127346 
L 630.304157 385.867445 
L 632.976169 385.511449 
L 635.648181 386.010005 
L 640.992204 388.479533 
L 649.008239 389.873469 
L 651.680251 390.964159 
L 654.352263 391.709642 
L 657.024275 392.255738 
L 659.696286 393.732596 
L 667.712322 395.451389 
L 673.056345 396.791913 
L 675.728357 397.638789 
L 678.400368 397.753231 
L 689.088415 395.50359 
L 691.760427 391.099206 
L 694.432439 385.532559 
L 697.104451 379.517081 
L 705.120486 374.724063 
L 707.792498 369.528013 
L 710.464509 364.807722 
L 713.136521 360.376874 
L 715.808533 358.648762 
L 723.824568 359.984029 
L 726.49658 362.336767 
L 731.840603 364.5967 
L 734.512615 366.751055 
L 742.52865 369.310452 
L 745.200662 372.060357 
L 747.872674 375.439864 
L 750.544685 378.573245 
L 753.216697 380.831841 
L 763.904744 381.780009 
L 766.576756 381.539902 
L 769.248768 379.931023 
L 771.920779 378.936163 
L 779.936814 377.920467 
L 782.608826 375.197643 
L 785.280838 372.239945 
L 787.95285 368.436805 
L 790.624861 365.507946 
L 798.640897 366.309151 
L 801.312908 368.755335 
L 803.98492 371.403424 
L 806.656932 374.332007 
L 809.328944 376.734669 
L 817.344979 382.255151 
L 820.016991 388.161705 
L 825.361014 394.569045 
L 828.033026 401.65587 
L 836.049061 408.419779 
L 841.393084 424.9674 
L 844.065096 432.550258 
L 846.737108 439.334142 
L 854.753143 444.726631 
L 857.425155 447.443986 
L 860.097167 448.397069 
L 862.769178 447.61695 
L 865.44119 446.192036 
L 873.457225 444.303395 
L 876.129237 441.161206 
L 881.47326 437.464028 
L 884.145272 433.12081 
L 892.161307 426.995095 
L 894.833319 421.011488 
L 897.505331 416.659237 
L 900.177343 414.55008 
L 902.849354 414.218807 
L 910.86539 413.722534 
L 916.209413 413.635634 
L 918.881425 414.45661 
L 921.553437 418.854512 
L 929.569472 425.429867 
L 932.241483 433.266753 
L 934.913495 441.646577 
L 937.585507 450.979903 
L 940.257519 461.297893 
L 940.257519 461.297893 
" clip-path="url(#pa4f4887a8f)" style="fill: none; stroke: #ff7f0e; stroke-width: 1.5; stroke-linecap: square"/>
   </g>
   <g id="patch_9">
    <path d="M 45.267188 584.521875 
L 45.267188 331.135937 
" style="fill: none; stroke: #000000; stroke-width: 0.8; stroke-linejoin: miter; stroke-linecap: square"/>
   </g>
   <g id="patch_10">
    <path d="M 982.876106 584.521875 
L 982.876106 331.135937 
" style="fill: none; stroke: #000000; stroke-width: 0.8; stroke-linejoin: miter; stroke-linecap: square"/>
   </g>
   <g id="patch_11">
    <path d="M 45.267188 584.521875 
L 982.876106 584.521875 
" style="fill: none; stroke: #000000; stroke-width: 0.8; stroke-linejoin: miter; stroke-linecap: square"/>
   </g>
   <g id="patch_12">
    <path d="M 45.267188 331.135938 
L 982.876106 331.135938 
" style="fill: none; stroke: #000000; stroke-width: 0.8; stroke-linejoin: miter; stroke-linecap: square"/>
   </g>
   <g id="text_30">
    <!-- MACD -->
    <g transform="translate(496.085709 325.135938)scale(0.12 -0.12)">
     <defs>
      <path id="DejaVuSans-44" d="M 1259 4147 
L 1259 519 
L 2022 519 
Q 2988 519 3436 956 
Q 3884 1394 3884 2338 
Q 3884 3275 3436 3711 
Q 2988 4147 2022 4147 
L 1259 4147 
z
M 628 4666 
L 1925 4666 
Q 3281 4666 3915 4102 
Q 4550 3538 4550 2338 
Q 4550 1131 3912 565 
Q 3275 0 1925 0 
L 628 0 
L 628 4666 
z
" transform="scale(0.015625)"/>
     </defs>
     <use xlink:href="#DejaVuSans-4d"/>
     <use xlink:href="#DejaVuSans-41" x="86.279297"/>
     <use xlink:href="#DejaVuSans-43" x="152.9375"/>
     <use xlink:href="#DejaVuSans-44" x="222.761719"/>
    </g>
   </g>
   <g id="legend_2">
    <g id="patch_13">
     <path d="M 913.899543 368.492188 
L 975.876106 368.492188 
Q 977.876106 368.492188 977.876106 366.492188 
L 977.876106 338.135938 
Q 977.876106 336.135938 975.876106 336.135938 
L 913.899543 336.135938 
Q 911.899543 336.135938 911.899543 338.135938 
L 911.899543 366.492188 
Q 911.899543 368.492188 913.899543 368.492188 
z
" style="fill: #ffffff; opacity: 0.8; stroke: #cccccc; stroke-linejoin: miter"/>
    </g>
    <g id="line2d_83">
     <path d="M 915.899543 344.234375 
L 925.899543 344.234375 
L 935.899543 344.234375 
" style="fill: none; stroke: #1f77b4; stroke-width: 1.5; stroke-linecap: square"/>
    </g>
    <g id="text_31">
     <!-- MACD -->
     <g transform="translate(943.899543 347.734375)scale(0.1 -0.1)">
      <use xlink:href="#DejaVuSans-4d"/>
      <use xlink:href="#DejaVuSans-41" x="86.279297"/>
      <use xlink:href="#DejaVuSans-43" x="152.9375"/>
      <use xlink:href="#DejaVuSans-44" x="222.761719"/>
     </g>
    </g>
    <g id="line2d_84">
     <path d="M 915.899543 358.9125 
L 925.899543 358.9125 
L 935.899543 358.9125 
" style="fill: none; stroke: #ff7f0e; stroke-width: 1.5; stroke-linecap: square"/>
    </g>
    <g id="text_32">
     <!-- SIG -->
     <g transform="translate(943.899543 362.4125)scale(0.1 -0.1)">
      <defs>
       <path id="DejaVuSans-49" d="M 628 4666 
L 1259 4666 
L 1259 0 
L 628 0 
L 628 4666 
z
" transform="scale(0.015625)"/>
       <path id="DejaVuSans-47" d="M 3809 666 
L 3809 1919 
L 2778 1919 
L 2778 2438 
L 4434 2438 
L 4434 434 
Q 4069 175 3628 42 
Q 3188 -91 2688 -91 
Q 1594 -91 976 548 
Q 359 1188 359 2328 
Q 359 3472 976 4111 
Q 1594 4750 2688 4750 
Q 3144 4750 3555 4637 
Q 3966 4525 4313 4306 
L 4313 3634 
Q 3963 3931 3569 4081 
Q 3175 4231 2741 4231 
Q 1884 4231 1454 3753 
Q 1025 3275 1025 2328 
Q 1025 1384 1454 906 
Q 1884 428 2741 428 
Q 3075 428 3337 486 
Q 3600 544 3809 666 
z
" transform="scale(0.015625)"/>
      </defs>
      <use xlink:href="#DejaVuSans-53"/>
      <use xlink:href="#DejaVuSans-49" x="63.476562"/>
      <use xlink:href="#DejaVuSans-47" x="92.96875"/>
     </g>
    </g>
   </g>
  </g>
  <g id="text_33">
   <!-- Eicher Motors Limited -->
   <g transform="translate(438.63 21.358125)scale(0.12 -0.12)">
    <defs>
     <path id="DejaVuSans-68" d="M 3513 2113 
L 3513 0 
L 2938 0 
L 2938 2094 
Q 2938 2591 2744 2837 
Q 2550 3084 2163 3084 
Q 1697 3084 1428 2787 
Q 1159 2491 1159 1978 
L 1159 0 
L 581 0 
L 581 4863 
L 1159 4863 
L 1159 2956 
Q 1366 3272 1645 3428 
Q 1925 3584 2291 3584 
Q 2894 3584 3203 3211 
Q 3513 2838 3513 2113 
z
" transform="scale(0.015625)"/>
     <path id="DejaVuSans-74" d="M 1172 4494 
L 1172 3500 
L 2356 3500 
L 2356 3053 
L 1172 3053 
L 1172 1153 
Q 1172 725 1289 603 
Q 1406 481 1766 481 
L 2356 481 
L 2356 0 
L 1766 0 
Q 1100 0 847 248 
Q 594 497 594 1153 
L 594 3053 
L 172 3053 
L 172 3500 
L 594 3500 
L 594 4494 
L 1172 4494 
z
" transform="scale(0.015625)"/>
     <path id="DejaVuSans-6d" d="M 3328 2828 
Q 3544 3216 3844 3400 
Q 4144 3584 4550 3584 
Q 5097 3584 5394 3201 
Q 5691 2819 5691 2113 
L 5691 0 
L 5113 0 
L 5113 2094 
Q 5113 2597 4934 2840 
Q 4756 3084 4391 3084 
Q 3944 3084 3684 2787 
Q 3425 2491 3425 1978 
L 3425 0 
L 2847 0 
L 2847 2094 
Q 2847 2600 2669 2842 
Q 2491 3084 2119 3084 
Q 1678 3084 1418 2786 
Q 1159 2488 1159 1978 
L 1159 0 
L 581 0 
L 581 3500 
L 1159 3500 
L 1159 2956 
Q 1356 3278 1631 3431 
Q 1906 3584 2284 3584 
Q 2666 3584 2933 3390 
Q 3200 3197 3328 2828 
z
" transform="scale(0.015625)"/>
     <path id="DejaVuSans-64" d="M 2906 2969 
L 2906 4863 
L 3481 4863 
L 3481 0 
L 2906 0 
L 2906 525 
Q 2725 213 2448 61 
Q 2172 -91 1784 -91 
Q 1150 -91 751 415 
Q 353 922 353 1747 
Q 353 2572 751 3078 
Q 1150 3584 1784 3584 
Q 2172 3584 2448 3432 
Q 2725 3281 2906 2969 
z
M 947 1747 
Q 947 1113 1208 752 
Q 1469 391 1925 391 
Q 2381 391 2643 752 
Q 2906 1113 2906 1747 
Q 2906 2381 2643 2742 
Q 2381 3103 1925 3103 
Q 1469 3103 1208 2742 
Q 947 2381 947 1747 
z
" transform="scale(0.015625)"/>
    </defs>
    <use xlink:href="#DejaVuSans-45"/>
    <use xlink:href="#DejaVuSans-69" x="63.183594"/>
    <use xlink:href="#DejaVuSans-63" x="90.966797"/>
    <use xlink:href="#DejaVuSans-68" x="145.947266"/>
    <use xlink:href="#DejaVuSans-65" x="209.326172"/>
    <use xlink:href="#DejaVuSans-72" x="270.849609"/>
    <use xlink:href="#DejaVuSans-20" x="311.962891"/>
    <use xlink:href="#DejaVuSans-4d" x="343.75"/>
    <use xlink:href="#DejaVuSans-6f" x="430.029297"/>
    <use xlink:href="#DejaVuSans-74" x="491.210938"/>
    <use xlink:href="#DejaVuSans-6f" x="530.419922"/>
    <use xlink:href="#DejaVuSans-72" x="591.601562"/>
    <use xlink:href="#DejaVuSans-73" x="632.714844"/>
    <use xlink:href="#DejaVuSans-20" x="684.814453"/>
    <use xlink:href="#DejaVuSans-4c" x="716.601562"/>
    <use xlink:href="#DejaVuSans-69" x="772.314453"/>
    <use xlink:href="#DejaVuSans-6d" x="800.097656"/>
    <use xlink:href="#DejaVuSans-69" x="897.509766"/>
    <use xlink:href="#DejaVuSans-74" x="925.292969"/>
    <use xlink:href="#DejaVuSans-65" x="964.501953"/>
    <use xlink:href="#DejaVuSans-64" x="1026.025391"/>
   </g>
  </g>
 </g>
 <defs>
  <clipPath id="pb83518ad42">
   <rect x="45.267188" y="48.331875" width="937.608918" height="253.385938"/>
  </clipPath>
  <clipPath id="pa4f4887a8f">
   <rect x="45.267188" y="331.135938" width="937.608918" height="253.385937"/>
  </clipPath>
 </defs>
</svg>
