<?xml version="1.0" encoding="utf-8" standalone="no"?>
<!DOCTYPE svg PUBLIC "-//W3C//DTD SVG 1.1//EN"
  "http://www.w3.org/Graphics/SVG/1.1/DTD/svg11.dtd">
<svg xmlns:xlink="http://www.w3.org/1999/xlink" width="1008pt" height="612pt" viewBox="0 0 1008 612" xmlns="http://www.w3.org/2000/svg" version="1.1">
 <metadata>
  <rdf:RDF xmlns:dc="http://purl.org/dc/elements/1.1/" xmlns:cc="http://creativecommons.org/ns#" xmlns:rdf="http://www.w3.org/1999/02/22-rdf-syntax-ns#">
   <cc:Work>
    <dc:type rdf:resource="http://purl.org/dc/dcmitype/StillImage"/>
    <dc:date>2022-11-20T19:47:24.640399</dc:date>
    <dc:format>image/svg+xml</dc:format>
    <dc:creator>
     <cc:Agent>
      <dc:title>Matplotlib v3.5.2, https://matplotlib.org/</dc:title>
     </cc:Agent>
    </dc:creator>
   </cc:Work>
  </rdf:RDF>
 </metadata>
 <defs>
  <style type="text/css">*{stroke-linejoin: round; stroke-linecap: butt}</style>
 </defs>
 <g id="figure_1">
  <g id="patch_1">
   <path d="M 0 612 
L 1008 612 
L 1008 0 
L 0 0 
z
" style="fill: #ffffff"/>
  </g>
  <g id="axes_1">
   <g id="patch_2">
    <path d="M 38.904688 301.717812 
L 979.194492 301.717812 
L 979.194492 48.331875 
L 38.904688 48.331875 
z
" style="fill: #ffffff"/>
   </g>
   <g id="matplotlib.axis_1">
    <g id="xtick_1">
     <g id="line2d_1">
      <path d="M 60.50145 301.717812 
L 60.50145 48.331875 
" clip-path="url(#p9bbb4397cb)" style="fill: none; stroke-dasharray: 2.96,1.28; stroke-dashoffset: 0; stroke: #b0b0b0; stroke-width: 0.8"/>
     </g>
     <g id="line2d_2">
      <defs>
       <path id="m59b2a27b9c" d="M 0 0 
L 0 3.5 
" style="stroke: #000000; stroke-width: 0.8"/>
      </defs>
      <g>
       <use xlink:href="#m59b2a27b9c" x="60.50145" y="301.717812" style="stroke: #000000; stroke-width: 0.8"/>
      </g>
     </g>
    </g>
    <g id="xtick_2">
     <g id="line2d_3">
      <path d="M 145.076183 301.717812 
L 145.076183 48.331875 
" clip-path="url(#p9bbb4397cb)" style="fill: none; stroke-dasharray: 2.96,1.28; stroke-dashoffset: 0; stroke: #b0b0b0; stroke-width: 0.8"/>
     </g>
     <g id="line2d_4">
      <g>
       <use xlink:href="#m59b2a27b9c" x="145.076183" y="301.717812" style="stroke: #000000; stroke-width: 0.8"/>
      </g>
     </g>
    </g>
    <g id="xtick_3">
     <g id="line2d_5">
      <path d="M 238.712495 301.717812 
L 238.712495 48.331875 
" clip-path="url(#p9bbb4397cb)" style="fill: none; stroke-dasharray: 2.96,1.28; stroke-dashoffset: 0; stroke: #b0b0b0; stroke-width: 0.8"/>
     </g>
     <g id="line2d_6">
      <g>
       <use xlink:href="#m59b2a27b9c" x="238.712495" y="301.717812" style="stroke: #000000; stroke-width: 0.8"/>
      </g>
     </g>
    </g>
    <g id="xtick_4">
     <g id="line2d_7">
      <path d="M 329.328281 301.717812 
L 329.328281 48.331875 
" clip-path="url(#p9bbb4397cb)" style="fill: none; stroke-dasharray: 2.96,1.28; stroke-dashoffset: 0; stroke: #b0b0b0; stroke-width: 0.8"/>
     </g>
     <g id="line2d_8">
      <g>
       <use xlink:href="#m59b2a27b9c" x="329.328281" y="301.717812" style="stroke: #000000; stroke-width: 0.8"/>
      </g>
     </g>
    </g>
    <g id="xtick_5">
     <g id="line2d_9">
      <path d="M 422.964593 301.717812 
L 422.964593 48.331875 
" clip-path="url(#p9bbb4397cb)" style="fill: none; stroke-dasharray: 2.96,1.28; stroke-dashoffset: 0; stroke: #b0b0b0; stroke-width: 0.8"/>
     </g>
     <g id="line2d_10">
      <g>
       <use xlink:href="#m59b2a27b9c" x="422.964593" y="301.717812" style="stroke: #000000; stroke-width: 0.8"/>
      </g>
     </g>
    </g>
    <g id="xtick_6">
     <g id="line2d_11">
      <path d="M 513.580379 301.717812 
L 513.580379 48.331875 
" clip-path="url(#p9bbb4397cb)" style="fill: none; stroke-dasharray: 2.96,1.28; stroke-dashoffset: 0; stroke: #b0b0b0; stroke-width: 0.8"/>
     </g>
     <g id="line2d_12">
      <g>
       <use xlink:href="#m59b2a27b9c" x="513.580379" y="301.717812" style="stroke: #000000; stroke-width: 0.8"/>
      </g>
     </g>
    </g>
    <g id="xtick_7">
     <g id="line2d_13">
      <path d="M 607.216691 301.717812 
L 607.216691 48.331875 
" clip-path="url(#p9bbb4397cb)" style="fill: none; stroke-dasharray: 2.96,1.28; stroke-dashoffset: 0; stroke: #b0b0b0; stroke-width: 0.8"/>
     </g>
     <g id="line2d_14">
      <g>
       <use xlink:href="#m59b2a27b9c" x="607.216691" y="301.717812" style="stroke: #000000; stroke-width: 0.8"/>
      </g>
     </g>
    </g>
    <g id="xtick_8">
     <g id="line2d_15">
      <path d="M 700.853003 301.717812 
L 700.853003 48.331875 
" clip-path="url(#p9bbb4397cb)" style="fill: none; stroke-dasharray: 2.96,1.28; stroke-dashoffset: 0; stroke: #b0b0b0; stroke-width: 0.8"/>
     </g>
     <g id="line2d_16">
      <g>
       <use xlink:href="#m59b2a27b9c" x="700.853003" y="301.717812" style="stroke: #000000; stroke-width: 0.8"/>
      </g>
     </g>
    </g>
    <g id="xtick_9">
     <g id="line2d_17">
      <path d="M 791.468789 301.717812 
L 791.468789 48.331875 
" clip-path="url(#p9bbb4397cb)" style="fill: none; stroke-dasharray: 2.96,1.28; stroke-dashoffset: 0; stroke: #b0b0b0; stroke-width: 0.8"/>
     </g>
     <g id="line2d_18">
      <g>
       <use xlink:href="#m59b2a27b9c" x="791.468789" y="301.717812" style="stroke: #000000; stroke-width: 0.8"/>
      </g>
     </g>
    </g>
    <g id="xtick_10">
     <g id="line2d_19">
      <path d="M 885.105101 301.717812 
L 885.105101 48.331875 
" clip-path="url(#p9bbb4397cb)" style="fill: none; stroke-dasharray: 2.96,1.28; stroke-dashoffset: 0; stroke: #b0b0b0; stroke-width: 0.8"/>
     </g>
     <g id="line2d_20">
      <g>
       <use xlink:href="#m59b2a27b9c" x="885.105101" y="301.717812" style="stroke: #000000; stroke-width: 0.8"/>
      </g>
     </g>
    </g>
    <g id="xtick_11">
     <g id="line2d_21">
      <path d="M 975.720886 301.717812 
L 975.720886 48.331875 
" clip-path="url(#p9bbb4397cb)" style="fill: none; stroke-dasharray: 2.96,1.28; stroke-dashoffset: 0; stroke: #b0b0b0; stroke-width: 0.8"/>
     </g>
     <g id="line2d_22">
      <g>
       <use xlink:href="#m59b2a27b9c" x="975.720886" y="301.717812" style="stroke: #000000; stroke-width: 0.8"/>
      </g>
     </g>
    </g>
   </g>
   <g id="matplotlib.axis_2">
    <g id="ytick_1">
     <g id="line2d_23">
      <path d="M 38.904688 277.43093 
L 979.194492 277.43093 
" clip-path="url(#p9bbb4397cb)" style="fill: none; stroke-dasharray: 2.96,1.28; stroke-dashoffset: 0; stroke: #b0b0b0; stroke-width: 0.8"/>
     </g>
     <g id="line2d_24">
      <defs>
       <path id="mfb4cfc5f47" d="M 0 0 
L -3.5 0 
" style="stroke: #000000; stroke-width: 0.8"/>
      </defs>
      <g>
       <use xlink:href="#mfb4cfc5f47" x="38.904688" y="277.43093" style="stroke: #000000; stroke-width: 0.8"/>
      </g>
     </g>
     <g id="text_1">
      <!-- 300 -->
      <g transform="translate(12.817187 281.230149)scale(0.1 -0.1)">
       <defs>
        <path id="DejaVuSans-33" d="M 2597 2516 
Q 3050 2419 3304 2112 
Q 3559 1806 3559 1356 
Q 3559 666 3084 287 
Q 2609 -91 1734 -91 
Q 1441 -91 1130 -33 
Q 819 25 488 141 
L 488 750 
Q 750 597 1062 519 
Q 1375 441 1716 441 
Q 2309 441 2620 675 
Q 2931 909 2931 1356 
Q 2931 1769 2642 2001 
Q 2353 2234 1838 2234 
L 1294 2234 
L 1294 2753 
L 1863 2753 
Q 2328 2753 2575 2939 
Q 2822 3125 2822 3475 
Q 2822 3834 2567 4026 
Q 2313 4219 1838 4219 
Q 1578 4219 1281 4162 
Q 984 4106 628 3988 
L 628 4550 
Q 988 4650 1302 4700 
Q 1616 4750 1894 4750 
Q 2613 4750 3031 4423 
Q 3450 4097 3450 3541 
Q 3450 3153 3228 2886 
Q 3006 2619 2597 2516 
z
" transform="scale(0.015625)"/>
        <path id="DejaVuSans-30" d="M 2034 4250 
Q 1547 4250 1301 3770 
Q 1056 3291 1056 2328 
Q 1056 1369 1301 889 
Q 1547 409 2034 409 
Q 2525 409 2770 889 
Q 3016 1369 3016 2328 
Q 3016 3291 2770 3770 
Q 2525 4250 2034 4250 
z
M 2034 4750 
Q 2819 4750 3233 4129 
Q 3647 3509 3647 2328 
Q 3647 1150 3233 529 
Q 2819 -91 2034 -91 
Q 1250 -91 836 529 
Q 422 1150 422 2328 
Q 422 3509 836 4129 
Q 1250 4750 2034 4750 
z
" transform="scale(0.015625)"/>
       </defs>
       <use xlink:href="#DejaVuSans-33"/>
       <use xlink:href="#DejaVuSans-30" x="63.623047"/>
       <use xlink:href="#DejaVuSans-30" x="127.246094"/>
      </g>
     </g>
    </g>
    <g id="ytick_2">
     <g id="line2d_25">
      <path d="M 38.904688 237.212536 
L 979.194492 237.212536 
" clip-path="url(#p9bbb4397cb)" style="fill: none; stroke-dasharray: 2.96,1.28; stroke-dashoffset: 0; stroke: #b0b0b0; stroke-width: 0.8"/>
     </g>
     <g id="line2d_26">
      <g>
       <use xlink:href="#mfb4cfc5f47" x="38.904688" y="237.212536" style="stroke: #000000; stroke-width: 0.8"/>
      </g>
     </g>
     <g id="text_2">
      <!-- 400 -->
      <g transform="translate(12.817187 241.011754)scale(0.1 -0.1)">
       <defs>
        <path id="DejaVuSans-34" d="M 2419 4116 
L 825 1625 
L 2419 1625 
L 2419 4116 
z
M 2253 4666 
L 3047 4666 
L 3047 1625 
L 3713 1625 
L 3713 1100 
L 3047 1100 
L 3047 0 
L 2419 0 
L 2419 1100 
L 313 1100 
L 313 1709 
L 2253 4666 
z
" transform="scale(0.015625)"/>
       </defs>
       <use xlink:href="#DejaVuSans-34"/>
       <use xlink:href="#DejaVuSans-30" x="63.623047"/>
       <use xlink:href="#DejaVuSans-30" x="127.246094"/>
      </g>
     </g>
    </g>
    <g id="ytick_3">
     <g id="line2d_27">
      <path d="M 38.904688 196.994142 
L 979.194492 196.994142 
" clip-path="url(#p9bbb4397cb)" style="fill: none; stroke-dasharray: 2.96,1.28; stroke-dashoffset: 0; stroke: #b0b0b0; stroke-width: 0.8"/>
     </g>
     <g id="line2d_28">
      <g>
       <use xlink:href="#mfb4cfc5f47" x="38.904688" y="196.994142" style="stroke: #000000; stroke-width: 0.8"/>
      </g>
     </g>
     <g id="text_3">
      <!-- 500 -->
      <g transform="translate(12.817187 200.79336)scale(0.1 -0.1)">
       <defs>
        <path id="DejaVuSans-35" d="M 691 4666 
L 3169 4666 
L 3169 4134 
L 1269 4134 
L 1269 2991 
Q 1406 3038 1543 3061 
Q 1681 3084 1819 3084 
Q 2600 3084 3056 2656 
Q 3513 2228 3513 1497 
Q 3513 744 3044 326 
Q 2575 -91 1722 -91 
Q 1428 -91 1123 -41 
Q 819 9 494 109 
L 494 744 
Q 775 591 1075 516 
Q 1375 441 1709 441 
Q 2250 441 2565 725 
Q 2881 1009 2881 1497 
Q 2881 1984 2565 2268 
Q 2250 2553 1709 2553 
Q 1456 2553 1204 2497 
Q 953 2441 691 2322 
L 691 4666 
z
" transform="scale(0.015625)"/>
       </defs>
       <use xlink:href="#DejaVuSans-35"/>
       <use xlink:href="#DejaVuSans-30" x="63.623047"/>
       <use xlink:href="#DejaVuSans-30" x="127.246094"/>
      </g>
     </g>
    </g>
    <g id="ytick_4">
     <g id="line2d_29">
      <path d="M 38.904688 156.775747 
L 979.194492 156.775747 
" clip-path="url(#p9bbb4397cb)" style="fill: none; stroke-dasharray: 2.96,1.28; stroke-dashoffset: 0; stroke: #b0b0b0; stroke-width: 0.8"/>
     </g>
     <g id="line2d_30">
      <g>
       <use xlink:href="#mfb4cfc5f47" x="38.904688" y="156.775747" style="stroke: #000000; stroke-width: 0.8"/>
      </g>
     </g>
     <g id="text_4">
      <!-- 600 -->
      <g transform="translate(12.817187 160.574966)scale(0.1 -0.1)">
       <defs>
        <path id="DejaVuSans-36" d="M 2113 2584 
Q 1688 2584 1439 2293 
Q 1191 2003 1191 1497 
Q 1191 994 1439 701 
Q 1688 409 2113 409 
Q 2538 409 2786 701 
Q 3034 994 3034 1497 
Q 3034 2003 2786 2293 
Q 2538 2584 2113 2584 
z
M 3366 4563 
L 3366 3988 
Q 3128 4100 2886 4159 
Q 2644 4219 2406 4219 
Q 1781 4219 1451 3797 
Q 1122 3375 1075 2522 
Q 1259 2794 1537 2939 
Q 1816 3084 2150 3084 
Q 2853 3084 3261 2657 
Q 3669 2231 3669 1497 
Q 3669 778 3244 343 
Q 2819 -91 2113 -91 
Q 1303 -91 875 529 
Q 447 1150 447 2328 
Q 447 3434 972 4092 
Q 1497 4750 2381 4750 
Q 2619 4750 2861 4703 
Q 3103 4656 3366 4563 
z
" transform="scale(0.015625)"/>
       </defs>
       <use xlink:href="#DejaVuSans-36"/>
       <use xlink:href="#DejaVuSans-30" x="63.623047"/>
       <use xlink:href="#DejaVuSans-30" x="127.246094"/>
      </g>
     </g>
    </g>
    <g id="ytick_5">
     <g id="line2d_31">
      <path d="M 38.904688 116.557353 
L 979.194492 116.557353 
" clip-path="url(#p9bbb4397cb)" style="fill: none; stroke-dasharray: 2.96,1.28; stroke-dashoffset: 0; stroke: #b0b0b0; stroke-width: 0.8"/>
     </g>
     <g id="line2d_32">
      <g>
       <use xlink:href="#mfb4cfc5f47" x="38.904688" y="116.557353" style="stroke: #000000; stroke-width: 0.8"/>
      </g>
     </g>
     <g id="text_5">
      <!-- 700 -->
      <g transform="translate(12.817187 120.356572)scale(0.1 -0.1)">
       <defs>
        <path id="DejaVuSans-37" d="M 525 4666 
L 3525 4666 
L 3525 4397 
L 1831 0 
L 1172 0 
L 2766 4134 
L 525 4134 
L 525 4666 
z
" transform="scale(0.015625)"/>
       </defs>
       <use xlink:href="#DejaVuSans-37"/>
       <use xlink:href="#DejaVuSans-30" x="63.623047"/>
       <use xlink:href="#DejaVuSans-30" x="127.246094"/>
      </g>
     </g>
    </g>
    <g id="ytick_6">
     <g id="line2d_33">
      <path d="M 38.904688 76.338959 
L 979.194492 76.338959 
" clip-path="url(#p9bbb4397cb)" style="fill: none; stroke-dasharray: 2.96,1.28; stroke-dashoffset: 0; stroke: #b0b0b0; stroke-width: 0.8"/>
     </g>
     <g id="line2d_34">
      <g>
       <use xlink:href="#mfb4cfc5f47" x="38.904688" y="76.338959" style="stroke: #000000; stroke-width: 0.8"/>
      </g>
     </g>
     <g id="text_6">
      <!-- 800 -->
      <g transform="translate(12.817187 80.138178)scale(0.1 -0.1)">
       <defs>
        <path id="DejaVuSans-38" d="M 2034 2216 
Q 1584 2216 1326 1975 
Q 1069 1734 1069 1313 
Q 1069 891 1326 650 
Q 1584 409 2034 409 
Q 2484 409 2743 651 
Q 3003 894 3003 1313 
Q 3003 1734 2745 1975 
Q 2488 2216 2034 2216 
z
M 1403 2484 
Q 997 2584 770 2862 
Q 544 3141 544 3541 
Q 544 4100 942 4425 
Q 1341 4750 2034 4750 
Q 2731 4750 3128 4425 
Q 3525 4100 3525 3541 
Q 3525 3141 3298 2862 
Q 3072 2584 2669 2484 
Q 3125 2378 3379 2068 
Q 3634 1759 3634 1313 
Q 3634 634 3220 271 
Q 2806 -91 2034 -91 
Q 1263 -91 848 271 
Q 434 634 434 1313 
Q 434 1759 690 2068 
Q 947 2378 1403 2484 
z
M 1172 3481 
Q 1172 3119 1398 2916 
Q 1625 2713 2034 2713 
Q 2441 2713 2670 2916 
Q 2900 3119 2900 3481 
Q 2900 3844 2670 4047 
Q 2441 4250 2034 4250 
Q 1625 4250 1398 4047 
Q 1172 3844 1172 3481 
z
" transform="scale(0.015625)"/>
       </defs>
       <use xlink:href="#DejaVuSans-38"/>
       <use xlink:href="#DejaVuSans-30" x="63.623047"/>
       <use xlink:href="#DejaVuSans-30" x="127.246094"/>
      </g>
     </g>
    </g>
   </g>
   <g id="line2d_35">
    <path d="M 81.645133 290.20027 
L 84.665659 268.623101 
L 87.686186 242.742565 
L 90.706712 244.854031 
L 99.76829 246.744295 
L 102.788816 243.707806 
L 105.809343 246.442657 
L 108.829869 253.38033 
L 111.850395 255.592342 
L 120.911974 266.330653 
L 123.9325 271.679699 
L 126.953026 259.312543 
L 129.973552 264.178969 
L 132.994078 250.846571 
L 142.055657 245.517634 
L 148.096709 244.331191 
L 151.117236 245.155668 
L 154.137762 252.978146 
L 163.19934 261.021825 
L 166.219867 260.217457 
L 169.240393 261.182699 
L 172.260919 259.976147 
L 175.281445 259.6544 
L 187.36355 261.243026 
L 190.384076 258.829922 
L 193.404602 245.336651 
L 205.486707 240.731645 
L 208.507233 239.987605 
L 211.527759 238.318541 
L 214.548286 234.35703 
L 217.568812 229.470495 
L 226.63039 212.679315 
L 229.650917 197.014251 
L 232.671443 200.090958 
L 235.691969 190.197233 
L 238.712495 179.820887 
L 247.774074 175.939812 
L 250.7946 164.839535 
L 253.815126 153.19631 
L 256.835652 165.422702 
L 259.856179 177.045818 
L 268.917757 166.005869 
L 271.938283 154.402862 
L 274.95881 142.236798 
L 290.061441 129.447349 
L 293.081967 125.445618 
L 296.102493 129.467458 
L 299.123019 116.678008 
L 302.143545 105.075002 
L 311.205124 90.435506 
L 317.246176 59.849418 
L 320.266702 76.761252 
L 323.287229 84.221764 
L 332.348807 95.000294 
L 338.38986 110.142519 
L 341.410386 124.520595 
L 344.430912 138.194849 
L 353.492491 151.185391 
L 356.513017 163.512328 
L 359.533543 151.788667 
L 362.554069 164.095495 
L 365.574595 169.404323 
L 374.636174 165.865104 
L 377.6567 154.262098 
L 380.677226 142.075924 
L 383.697753 129.366912 
L 386.718279 115.933968 
L 395.779857 101.837421 
L 398.800383 116.63779 
L 401.82091 130.694119 
L 404.841436 117.341612 
L 407.861962 112.475186 
L 416.923541 118.005215 
L 419.944067 129.206038 
L 422.964593 138.335614 
L 425.985119 125.365182 
L 429.005645 131.538705 
L 438.067224 124.66136 
L 441.08775 131.498487 
L 444.108276 135.982838 
L 447.128803 139.401401 
L 450.149329 147.68639 
L 459.210907 160.194311 
L 462.231434 148.329885 
L 465.25196 143.543896 
L 468.272486 156.252908 
L 471.293012 162.929162 
L 480.354591 174.672933 
L 483.375117 167.212421 
L 486.395643 173.24518 
L 489.416169 173.325617 
L 492.436695 162.788397 
L 501.498274 157.419242 
L 504.5188 159.993219 
L 507.539326 163.029708 
L 510.559853 167.172202 
L 513.580379 162.406323 
L 522.641957 164.578116 
L 525.662484 163.994949 
L 528.68301 166.146633 
L 531.703536 158.424702 
L 534.724062 161.4813 
L 543.785641 149.677201 
L 546.806167 137.350263 
L 549.826693 141.090574 
L 552.847219 145.574925 
L 555.867746 147.243988 
L 564.929324 147.324425 
L 567.94985 149.838074 
L 570.970377 151.125063 
L 573.990903 150.742988 
L 577.011429 152.130523 
L 586.073007 147.807046 
L 592.11406 138.416051 
L 595.134586 138.496487 
L 598.155112 133.127332 
L 607.216691 119.89548 
L 610.237217 112.595841 
L 613.257743 117.40194 
L 616.278269 119.453078 
L 619.298796 126.813044 
L 628.360374 130.392481 
L 634.401427 129.829423 
L 637.421953 131.759906 
L 640.442479 132.282745 
L 652.524584 119.010675 
L 655.54511 112.977916 
L 658.565636 103.86845 
L 661.586162 102.963536 
L 670.647741 106.744065 
L 673.668267 120.559084 
L 676.688793 125.445618 
L 679.709319 122.167819 
L 682.729846 123.535245 
L 691.791424 123.314044 
L 694.81195 119.714497 
L 700.853003 123.273825 
L 703.873529 126.048894 
L 712.935108 128.281015 
L 715.955634 119.975917 
L 718.97616 117.220957 
L 721.996686 117.88456 
L 725.017212 115.109491 
L 734.078791 104.61249 
L 737.099317 107.769634 
L 740.119843 113.058353 
L 743.14037 104.330962 
L 746.160896 107.729416 
L 755.222474 103.285283 
L 758.243001 88.545242 
L 761.263527 83.658707 
L 764.284053 69.924125 
L 767.304579 72.337229 
L 776.366158 88.605569 
L 782.40721 102.762444 
L 785.427736 98.11722 
L 788.448262 94.236145 
L 797.509841 109.418588 
L 800.530367 112.113221 
L 806.57142 97.815582 
L 809.591946 96.066082 
L 818.653524 100.36945 
L 821.674051 108.956077 
L 824.694577 113.199117 
L 827.715103 123.072733 
L 830.735629 134.715958 
L 839.797208 132.141981 
L 842.817734 119.493296 
L 845.83826 118.085652 
L 848.858786 119.171549 
L 851.879313 123.676009 
L 860.940891 121.222687 
L 863.961417 125.244526 
L 870.00247 128.40167 
L 882.084574 127.65763 
L 885.105101 109.941427 
L 888.125627 117.060083 
L 891.146153 123.676009 
L 894.166679 122.771095 
L 903.228258 122.992296 
L 909.26931 121.102032 
L 912.289836 124.701578 
L 915.310363 126.491297 
L 924.371941 129.527785 
L 927.392467 129.40713 
L 930.412994 135.41978 
L 933.43352 137.651901 
L 936.454046 142.055815 
L 936.454046 142.055815 
" clip-path="url(#p9bbb4397cb)" style="fill: none; stroke: #1f77b4; stroke-width: 1.5; stroke-linecap: square"/>
   </g>
   <g id="line2d_36">
    <path d="M 99.76829 258.632852 
L 102.788816 249.33436 
L 105.809343 244.898271 
L 111.850395 249.173486 
L 120.911974 253.090758 
L 123.9325 258.685136 
L 126.953026 261.259113 
L 129.973552 263.418841 
L 132.994078 262.469687 
L 142.055657 258.307083 
L 151.117236 250.006007 
L 154.137762 247.765842 
L 163.19934 249.800893 
L 166.219867 252.740858 
L 169.240393 256.111159 
L 172.260919 259.075255 
L 175.281445 260.410505 
L 184.343024 260.386374 
L 187.36355 260.591488 
L 190.384076 260.120933 
L 193.404602 257.193034 
L 205.486707 253.408483 
L 208.507233 249.22577 
L 211.527759 244.640873 
L 214.548286 239.746294 
L 217.568812 236.573063 
L 226.63039 230.962597 
L 229.650917 222.367926 
L 232.671443 214.72241 
L 235.691969 205.89045 
L 238.712495 195.960529 
L 247.774074 188.612628 
L 250.7946 182.177685 
L 253.815126 172.798756 
L 256.835652 167.843849 
L 259.856179 167.288836 
L 268.917757 165.302047 
L 274.95881 161.02281 
L 290.061441 153.827739 
L 293.081967 143.507699 
L 299.123019 128.655046 
L 302.143545 121.222687 
L 311.205124 113.420319 
L 314.22565 103.345611 
L 317.246176 89.422003 
L 320.266702 81.438652 
L 323.287229 77.268004 
L 332.348807 78.180962 
L 338.38986 85.19505 
L 341.410386 98.129285 
L 344.430912 110.416005 
L 353.492491 123.80873 
L 356.513017 137.511137 
L 359.533543 145.840366 
L 362.554069 153.755346 
L 365.574595 159.997241 
L 374.636174 162.933184 
L 380.677226 159.140589 
L 383.697753 152.194872 
L 386.718279 141.500801 
L 395.779857 128.695265 
L 398.800383 121.170403 
L 404.841436 116.488982 
L 407.861962 115.797226 
L 416.923541 119.030785 
L 419.944067 121.544434 
L 425.985119 124.677447 
L 429.005645 128.490151 
L 441.08775 130.279869 
L 444.108276 129.809314 
L 447.128803 132.616558 
L 450.149329 135.846095 
L 459.210907 142.952685 
L 462.231434 146.318965 
L 465.25196 147.831177 
L 468.272486 151.201478 
L 471.293012 154.250032 
L 480.354591 157.145757 
L 483.375117 160.922264 
L 486.395643 166.862521 
L 489.416169 170.277062 
L 492.436695 170.248909 
L 501.498274 166.798171 
L 504.5188 165.354331 
L 507.539326 163.311236 
L 510.559853 162.080554 
L 513.580379 162.004139 
L 522.641957 163.435913 
L 525.662484 164.23626 
L 528.68301 164.859645 
L 531.703536 163.110144 
L 534.724062 162.92514 
L 543.785641 159.944957 
L 546.806167 154.61602 
L 549.826693 149.604808 
L 552.847219 147.034852 
L 555.867746 144.18739 
L 564.929324 143.716835 
L 567.94985 146.214397 
L 570.970377 148.221295 
L 577.011429 150.232215 
L 586.073007 150.328739 
L 589.093534 148.977401 
L 595.134586 143.986298 
L 598.155112 140.18566 
L 607.216691 134.603347 
L 610.237217 128.506238 
L 613.257743 124.303416 
L 616.278269 120.494734 
L 619.298796 119.231877 
L 628.360374 121.331277 
L 634.401427 124.777993 
L 637.421953 127.649586 
L 640.442479 130.21552 
L 652.524584 128.655046 
L 655.54511 125.172133 
L 658.565636 119.979939 
L 661.586162 114.220665 
L 670.647741 109.112929 
L 673.668267 109.42261 
L 676.688793 111.916151 
L 679.709319 115.576024 
L 682.729846 119.690366 
L 691.791424 123.004362 
L 700.853003 122.401086 
L 703.873529 123.177301 
L 712.935108 124.126455 
L 715.955634 123.45883 
L 718.97616 122.960122 
L 721.996686 121.882269 
L 725.017212 119.694388 
L 734.078791 114.960683 
L 737.099317 112.519427 
L 740.119843 111.686906 
L 743.14037 108.976186 
L 746.160896 107.500171 
L 755.222474 107.23473 
L 758.243001 103.389851 
L 761.263527 97.509922 
L 767.304579 83.550117 
L 776.366158 80.614174 
L 779.386684 82.07008 
L 782.40721 85.890828 
L 785.427736 91.529447 
L 788.448262 95.90923 
L 797.509841 100.071834 
L 800.530367 103.329523 
L 809.591946 101.929923 
L 818.653524 103.156584 
L 821.674051 103.064082 
L 824.694577 103.281261 
L 827.715103 108.332692 
L 830.735629 116.062667 
L 842.817734 124.524617 
L 845.83826 125.501924 
L 848.858786 124.721687 
L 851.879313 122.513697 
L 860.940891 120.329839 
L 863.961417 121.480085 
L 870.00247 123.543288 
L 873.022996 125.349094 
L 882.084574 126.145418 
L 885.105101 123.889167 
L 888.125627 122.252278 
L 891.146153 121.307146 
L 894.166679 120.221249 
L 903.228258 119.288182 
L 909.26931 121.520303 
L 912.289836 123.048602 
L 915.310363 123.61166 
L 924.371941 124.962998 
L 927.392467 126.245964 
L 930.412994 129.109514 
L 933.43352 131.699579 
L 936.454046 134.812482 
L 936.454046 134.812482 
" clip-path="url(#p9bbb4397cb)" style="fill: none; stroke: #ff7f0e; stroke-width: 1.5; stroke-linecap: square"/>
   </g>
   <g id="patch_3">
    <path d="M 38.904688 301.717812 
L 38.904688 48.331875 
" style="fill: none; stroke: #000000; stroke-width: 0.8; stroke-linejoin: miter; stroke-linecap: square"/>
   </g>
   <g id="patch_4">
    <path d="M 979.194492 301.717812 
L 979.194492 48.331875 
" style="fill: none; stroke: #000000; stroke-width: 0.8; stroke-linejoin: miter; stroke-linecap: square"/>
   </g>
   <g id="patch_5">
    <path d="M 38.904687 301.717812 
L 979.194492 301.717812 
" style="fill: none; stroke: #000000; stroke-width: 0.8; stroke-linejoin: miter; stroke-linecap: square"/>
   </g>
   <g id="patch_6">
    <path d="M 38.904687 48.331875 
L 979.194492 48.331875 
" style="fill: none; stroke: #000000; stroke-width: 0.8; stroke-linejoin: miter; stroke-linecap: square"/>
   </g>
   <g id="text_7">
    <!-- Closing Price -->
    <g transform="translate(470.573652 42.331875)scale(0.12 -0.12)">
     <defs>
      <path id="DejaVuSans-43" d="M 4122 4306 
L 4122 3641 
Q 3803 3938 3442 4084 
Q 3081 4231 2675 4231 
Q 1875 4231 1450 3742 
Q 1025 3253 1025 2328 
Q 1025 1406 1450 917 
Q 1875 428 2675 428 
Q 3081 428 3442 575 
Q 3803 722 4122 1019 
L 4122 359 
Q 3791 134 3420 21 
Q 3050 -91 2638 -91 
Q 1578 -91 968 557 
Q 359 1206 359 2328 
Q 359 3453 968 4101 
Q 1578 4750 2638 4750 
Q 3056 4750 3426 4639 
Q 3797 4528 4122 4306 
z
" transform="scale(0.015625)"/>
      <path id="DejaVuSans-6c" d="M 603 4863 
L 1178 4863 
L 1178 0 
L 603 0 
L 603 4863 
z
" transform="scale(0.015625)"/>
      <path id="DejaVuSans-6f" d="M 1959 3097 
Q 1497 3097 1228 2736 
Q 959 2375 959 1747 
Q 959 1119 1226 758 
Q 1494 397 1959 397 
Q 2419 397 2687 759 
Q 2956 1122 2956 1747 
Q 2956 2369 2687 2733 
Q 2419 3097 1959 3097 
z
M 1959 3584 
Q 2709 3584 3137 3096 
Q 3566 2609 3566 1747 
Q 3566 888 3137 398 
Q 2709 -91 1959 -91 
Q 1206 -91 779 398 
Q 353 888 353 1747 
Q 353 2609 779 3096 
Q 1206 3584 1959 3584 
z
" transform="scale(0.015625)"/>
      <path id="DejaVuSans-73" d="M 2834 3397 
L 2834 2853 
Q 2591 2978 2328 3040 
Q 2066 3103 1784 3103 
Q 1356 3103 1142 2972 
Q 928 2841 928 2578 
Q 928 2378 1081 2264 
Q 1234 2150 1697 2047 
L 1894 2003 
Q 2506 1872 2764 1633 
Q 3022 1394 3022 966 
Q 3022 478 2636 193 
Q 2250 -91 1575 -91 
Q 1294 -91 989 -36 
Q 684 19 347 128 
L 347 722 
Q 666 556 975 473 
Q 1284 391 1588 391 
Q 1994 391 2212 530 
Q 2431 669 2431 922 
Q 2431 1156 2273 1281 
Q 2116 1406 1581 1522 
L 1381 1569 
Q 847 1681 609 1914 
Q 372 2147 372 2553 
Q 372 3047 722 3315 
Q 1072 3584 1716 3584 
Q 2034 3584 2315 3537 
Q 2597 3491 2834 3397 
z
" transform="scale(0.015625)"/>
      <path id="DejaVuSans-69" d="M 603 3500 
L 1178 3500 
L 1178 0 
L 603 0 
L 603 3500 
z
M 603 4863 
L 1178 4863 
L 1178 4134 
L 603 4134 
L 603 4863 
z
" transform="scale(0.015625)"/>
      <path id="DejaVuSans-6e" d="M 3513 2113 
L 3513 0 
L 2938 0 
L 2938 2094 
Q 2938 2591 2744 2837 
Q 2550 3084 2163 3084 
Q 1697 3084 1428 2787 
Q 1159 2491 1159 1978 
L 1159 0 
L 581 0 
L 581 3500 
L 1159 3500 
L 1159 2956 
Q 1366 3272 1645 3428 
Q 1925 3584 2291 3584 
Q 2894 3584 3203 3211 
Q 3513 2838 3513 2113 
z
" transform="scale(0.015625)"/>
      <path id="DejaVuSans-67" d="M 2906 1791 
Q 2906 2416 2648 2759 
Q 2391 3103 1925 3103 
Q 1463 3103 1205 2759 
Q 947 2416 947 1791 
Q 947 1169 1205 825 
Q 1463 481 1925 481 
Q 2391 481 2648 825 
Q 2906 1169 2906 1791 
z
M 3481 434 
Q 3481 -459 3084 -895 
Q 2688 -1331 1869 -1331 
Q 1566 -1331 1297 -1286 
Q 1028 -1241 775 -1147 
L 775 -588 
Q 1028 -725 1275 -790 
Q 1522 -856 1778 -856 
Q 2344 -856 2625 -561 
Q 2906 -266 2906 331 
L 2906 616 
Q 2728 306 2450 153 
Q 2172 0 1784 0 
Q 1141 0 747 490 
Q 353 981 353 1791 
Q 353 2603 747 3093 
Q 1141 3584 1784 3584 
Q 2172 3584 2450 3431 
Q 2728 3278 2906 2969 
L 2906 3500 
L 3481 3500 
L 3481 434 
z
" transform="scale(0.015625)"/>
      <path id="DejaVuSans-20" transform="scale(0.015625)"/>
      <path id="DejaVuSans-50" d="M 1259 4147 
L 1259 2394 
L 2053 2394 
Q 2494 2394 2734 2622 
Q 2975 2850 2975 3272 
Q 2975 3691 2734 3919 
Q 2494 4147 2053 4147 
L 1259 4147 
z
M 628 4666 
L 2053 4666 
Q 2838 4666 3239 4311 
Q 3641 3956 3641 3272 
Q 3641 2581 3239 2228 
Q 2838 1875 2053 1875 
L 1259 1875 
L 1259 0 
L 628 0 
L 628 4666 
z
" transform="scale(0.015625)"/>
      <path id="DejaVuSans-72" d="M 2631 2963 
Q 2534 3019 2420 3045 
Q 2306 3072 2169 3072 
Q 1681 3072 1420 2755 
Q 1159 2438 1159 1844 
L 1159 0 
L 581 0 
L 581 3500 
L 1159 3500 
L 1159 2956 
Q 1341 3275 1631 3429 
Q 1922 3584 2338 3584 
Q 2397 3584 2469 3576 
Q 2541 3569 2628 3553 
L 2631 2963 
z
" transform="scale(0.015625)"/>
      <path id="DejaVuSans-63" d="M 3122 3366 
L 3122 2828 
Q 2878 2963 2633 3030 
Q 2388 3097 2138 3097 
Q 1578 3097 1268 2742 
Q 959 2388 959 1747 
Q 959 1106 1268 751 
Q 1578 397 2138 397 
Q 2388 397 2633 464 
Q 2878 531 3122 666 
L 3122 134 
Q 2881 22 2623 -34 
Q 2366 -91 2075 -91 
Q 1284 -91 818 406 
Q 353 903 353 1747 
Q 353 2603 823 3093 
Q 1294 3584 2113 3584 
Q 2378 3584 2631 3529 
Q 2884 3475 3122 3366 
z
" transform="scale(0.015625)"/>
      <path id="DejaVuSans-65" d="M 3597 1894 
L 3597 1613 
L 953 1613 
Q 991 1019 1311 708 
Q 1631 397 2203 397 
Q 2534 397 2845 478 
Q 3156 559 3463 722 
L 3463 178 
Q 3153 47 2828 -22 
Q 2503 -91 2169 -91 
Q 1331 -91 842 396 
Q 353 884 353 1716 
Q 353 2575 817 3079 
Q 1281 3584 2069 3584 
Q 2775 3584 3186 3129 
Q 3597 2675 3597 1894 
z
M 3022 2063 
Q 3016 2534 2758 2815 
Q 2500 3097 2075 3097 
Q 1594 3097 1305 2825 
Q 1016 2553 972 2059 
L 3022 2063 
z
" transform="scale(0.015625)"/>
     </defs>
     <use xlink:href="#DejaVuSans-43"/>
     <use xlink:href="#DejaVuSans-6c" x="69.824219"/>
     <use xlink:href="#DejaVuSans-6f" x="97.607422"/>
     <use xlink:href="#DejaVuSans-73" x="158.789062"/>
     <use xlink:href="#DejaVuSans-69" x="210.888672"/>
     <use xlink:href="#DejaVuSans-6e" x="238.671875"/>
     <use xlink:href="#DejaVuSans-67" x="302.050781"/>
     <use xlink:href="#DejaVuSans-20" x="365.527344"/>
     <use xlink:href="#DejaVuSans-50" x="397.314453"/>
     <use xlink:href="#DejaVuSans-72" x="455.867188"/>
     <use xlink:href="#DejaVuSans-69" x="496.980469"/>
     <use xlink:href="#DejaVuSans-63" x="524.763672"/>
     <use xlink:href="#DejaVuSans-65" x="579.744141"/>
    </g>
   </g>
   <g id="legend_1">
    <g id="patch_7">
     <path d="M 907.463242 85.688125 
L 972.194492 85.688125 
Q 974.194492 85.688125 974.194492 83.688125 
L 974.194492 55.331875 
Q 974.194492 53.331875 972.194492 53.331875 
L 907.463242 53.331875 
Q 905.463242 53.331875 905.463242 55.331875 
L 905.463242 83.688125 
Q 905.463242 85.688125 907.463242 85.688125 
z
" style="fill: #ffffff; opacity: 0.8; stroke: #cccccc; stroke-linejoin: miter"/>
    </g>
    <g id="line2d_37">
     <path d="M 909.463242 61.430312 
L 919.463242 61.430312 
L 929.463242 61.430312 
" style="fill: none; stroke: #1f77b4; stroke-width: 1.5; stroke-linecap: square"/>
    </g>
    <g id="text_8">
     <!-- CLOSE -->
     <g transform="translate(937.463242 64.930312)scale(0.1 -0.1)">
      <defs>
       <path id="DejaVuSans-4c" d="M 628 4666 
L 1259 4666 
L 1259 531 
L 3531 531 
L 3531 0 
L 628 0 
L 628 4666 
z
" transform="scale(0.015625)"/>
       <path id="DejaVuSans-4f" d="M 2522 4238 
Q 1834 4238 1429 3725 
Q 1025 3213 1025 2328 
Q 1025 1447 1429 934 
Q 1834 422 2522 422 
Q 3209 422 3611 934 
Q 4013 1447 4013 2328 
Q 4013 3213 3611 3725 
Q 3209 4238 2522 4238 
z
M 2522 4750 
Q 3503 4750 4090 4092 
Q 4678 3434 4678 2328 
Q 4678 1225 4090 567 
Q 3503 -91 2522 -91 
Q 1538 -91 948 565 
Q 359 1222 359 2328 
Q 359 3434 948 4092 
Q 1538 4750 2522 4750 
z
" transform="scale(0.015625)"/>
       <path id="DejaVuSans-53" d="M 3425 4513 
L 3425 3897 
Q 3066 4069 2747 4153 
Q 2428 4238 2131 4238 
Q 1616 4238 1336 4038 
Q 1056 3838 1056 3469 
Q 1056 3159 1242 3001 
Q 1428 2844 1947 2747 
L 2328 2669 
Q 3034 2534 3370 2195 
Q 3706 1856 3706 1288 
Q 3706 609 3251 259 
Q 2797 -91 1919 -91 
Q 1588 -91 1214 -16 
Q 841 59 441 206 
L 441 856 
Q 825 641 1194 531 
Q 1563 422 1919 422 
Q 2459 422 2753 634 
Q 3047 847 3047 1241 
Q 3047 1584 2836 1778 
Q 2625 1972 2144 2069 
L 1759 2144 
Q 1053 2284 737 2584 
Q 422 2884 422 3419 
Q 422 4038 858 4394 
Q 1294 4750 2059 4750 
Q 2388 4750 2728 4690 
Q 3069 4631 3425 4513 
z
" transform="scale(0.015625)"/>
       <path id="DejaVuSans-45" d="M 628 4666 
L 3578 4666 
L 3578 4134 
L 1259 4134 
L 1259 2753 
L 3481 2753 
L 3481 2222 
L 1259 2222 
L 1259 531 
L 3634 531 
L 3634 0 
L 628 0 
L 628 4666 
z
" transform="scale(0.015625)"/>
      </defs>
      <use xlink:href="#DejaVuSans-43"/>
      <use xlink:href="#DejaVuSans-4c" x="69.824219"/>
      <use xlink:href="#DejaVuSans-4f" x="121.912109"/>
      <use xlink:href="#DejaVuSans-53" x="200.623047"/>
      <use xlink:href="#DejaVuSans-45" x="264.099609"/>
     </g>
    </g>
    <g id="line2d_38">
     <path d="M 909.463242 76.108437 
L 919.463242 76.108437 
L 929.463242 76.108437 
" style="fill: none; stroke: #ff7f0e; stroke-width: 1.5; stroke-linecap: square"/>
    </g>
    <g id="text_9">
     <!-- SMA5 -->
     <g transform="translate(937.463242 79.608437)scale(0.1 -0.1)">
      <defs>
       <path id="DejaVuSans-4d" d="M 628 4666 
L 1569 4666 
L 2759 1491 
L 3956 4666 
L 4897 4666 
L 4897 0 
L 4281 0 
L 4281 4097 
L 3078 897 
L 2444 897 
L 1241 4097 
L 1241 0 
L 628 0 
L 628 4666 
z
" transform="scale(0.015625)"/>
       <path id="DejaVuSans-41" d="M 2188 4044 
L 1331 1722 
L 3047 1722 
L 2188 4044 
z
M 1831 4666 
L 2547 4666 
L 4325 0 
L 3669 0 
L 3244 1197 
L 1141 1197 
L 716 0 
L 50 0 
L 1831 4666 
z
" transform="scale(0.015625)"/>
      </defs>
      <use xlink:href="#DejaVuSans-53"/>
      <use xlink:href="#DejaVuSans-4d" x="63.476562"/>
      <use xlink:href="#DejaVuSans-41" x="149.755859"/>
      <use xlink:href="#DejaVuSans-35" x="218.164062"/>
     </g>
    </g>
   </g>
  </g>
  <g id="axes_2">
   <g id="patch_8">
    <path d="M 38.904688 584.521875 
L 979.194492 584.521875 
L 979.194492 331.135938 
L 38.904688 331.135938 
z
" style="fill: #ffffff"/>
   </g>
   <g id="matplotlib.axis_3">
    <g id="xtick_12">
     <g id="line2d_39">
      <path d="M 60.50145 584.521875 
L 60.50145 331.135938 
" clip-path="url(#pd2b81b86aa)" style="fill: none; stroke-dasharray: 2.96,1.28; stroke-dashoffset: 0; stroke: #b0b0b0; stroke-width: 0.8"/>
     </g>
     <g id="line2d_40">
      <g>
       <use xlink:href="#m59b2a27b9c" x="60.50145" y="584.521875" style="stroke: #000000; stroke-width: 0.8"/>
      </g>
     </g>
     <g id="text_10">
      <!-- 2022-02 -->
      <g transform="translate(39.610044 599.120312)scale(0.1 -0.1)">
       <defs>
        <path id="DejaVuSans-32" d="M 1228 531 
L 3431 531 
L 3431 0 
L 469 0 
L 469 531 
Q 828 903 1448 1529 
Q 2069 2156 2228 2338 
Q 2531 2678 2651 2914 
Q 2772 3150 2772 3378 
Q 2772 3750 2511 3984 
Q 2250 4219 1831 4219 
Q 1534 4219 1204 4116 
Q 875 4013 500 3803 
L 500 4441 
Q 881 4594 1212 4672 
Q 1544 4750 1819 4750 
Q 2544 4750 2975 4387 
Q 3406 4025 3406 3419 
Q 3406 3131 3298 2873 
Q 3191 2616 2906 2266 
Q 2828 2175 2409 1742 
Q 1991 1309 1228 531 
z
" transform="scale(0.015625)"/>
        <path id="DejaVuSans-2d" d="M 313 2009 
L 1997 2009 
L 1997 1497 
L 313 1497 
L 313 2009 
z
" transform="scale(0.015625)"/>
       </defs>
       <use xlink:href="#DejaVuSans-32"/>
       <use xlink:href="#DejaVuSans-30" x="63.623047"/>
       <use xlink:href="#DejaVuSans-32" x="127.246094"/>
       <use xlink:href="#DejaVuSans-32" x="190.869141"/>
       <use xlink:href="#DejaVuSans-2d" x="254.492188"/>
       <use xlink:href="#DejaVuSans-30" x="290.576172"/>
       <use xlink:href="#DejaVuSans-32" x="354.199219"/>
      </g>
     </g>
    </g>
    <g id="xtick_13">
     <g id="line2d_41">
      <path d="M 145.076183 584.521875 
L 145.076183 331.135938 
" clip-path="url(#pd2b81b86aa)" style="fill: none; stroke-dasharray: 2.96,1.28; stroke-dashoffset: 0; stroke: #b0b0b0; stroke-width: 0.8"/>
     </g>
     <g id="line2d_42">
      <g>
       <use xlink:href="#m59b2a27b9c" x="145.076183" y="584.521875" style="stroke: #000000; stroke-width: 0.8"/>
      </g>
     </g>
     <g id="text_11">
      <!-- 2022-03 -->
      <g transform="translate(124.184777 599.120312)scale(0.1 -0.1)">
       <use xlink:href="#DejaVuSans-32"/>
       <use xlink:href="#DejaVuSans-30" x="63.623047"/>
       <use xlink:href="#DejaVuSans-32" x="127.246094"/>
       <use xlink:href="#DejaVuSans-32" x="190.869141"/>
       <use xlink:href="#DejaVuSans-2d" x="254.492188"/>
       <use xlink:href="#DejaVuSans-30" x="290.576172"/>
       <use xlink:href="#DejaVuSans-33" x="354.199219"/>
      </g>
     </g>
    </g>
    <g id="xtick_14">
     <g id="line2d_43">
      <path d="M 238.712495 584.521875 
L 238.712495 331.135938 
" clip-path="url(#pd2b81b86aa)" style="fill: none; stroke-dasharray: 2.96,1.28; stroke-dashoffset: 0; stroke: #b0b0b0; stroke-width: 0.8"/>
     </g>
     <g id="line2d_44">
      <g>
       <use xlink:href="#m59b2a27b9c" x="238.712495" y="584.521875" style="stroke: #000000; stroke-width: 0.8"/>
      </g>
     </g>
     <g id="text_12">
      <!-- 2022-04 -->
      <g transform="translate(217.821089 599.120312)scale(0.1 -0.1)">
       <use xlink:href="#DejaVuSans-32"/>
       <use xlink:href="#DejaVuSans-30" x="63.623047"/>
       <use xlink:href="#DejaVuSans-32" x="127.246094"/>
       <use xlink:href="#DejaVuSans-32" x="190.869141"/>
       <use xlink:href="#DejaVuSans-2d" x="254.492188"/>
       <use xlink:href="#DejaVuSans-30" x="290.576172"/>
       <use xlink:href="#DejaVuSans-34" x="354.199219"/>
      </g>
     </g>
    </g>
    <g id="xtick_15">
     <g id="line2d_45">
      <path d="M 329.328281 584.521875 
L 329.328281 331.135938 
" clip-path="url(#pd2b81b86aa)" style="fill: none; stroke-dasharray: 2.96,1.28; stroke-dashoffset: 0; stroke: #b0b0b0; stroke-width: 0.8"/>
     </g>
     <g id="line2d_46">
      <g>
       <use xlink:href="#m59b2a27b9c" x="329.328281" y="584.521875" style="stroke: #000000; stroke-width: 0.8"/>
      </g>
     </g>
     <g id="text_13">
      <!-- 2022-05 -->
      <g transform="translate(308.436875 599.120312)scale(0.1 -0.1)">
       <use xlink:href="#DejaVuSans-32"/>
       <use xlink:href="#DejaVuSans-30" x="63.623047"/>
       <use xlink:href="#DejaVuSans-32" x="127.246094"/>
       <use xlink:href="#DejaVuSans-32" x="190.869141"/>
       <use xlink:href="#DejaVuSans-2d" x="254.492188"/>
       <use xlink:href="#DejaVuSans-30" x="290.576172"/>
       <use xlink:href="#DejaVuSans-35" x="354.199219"/>
      </g>
     </g>
    </g>
    <g id="xtick_16">
     <g id="line2d_47">
      <path d="M 422.964593 584.521875 
L 422.964593 331.135938 
" clip-path="url(#pd2b81b86aa)" style="fill: none; stroke-dasharray: 2.96,1.28; stroke-dashoffset: 0; stroke: #b0b0b0; stroke-width: 0.8"/>
     </g>
     <g id="line2d_48">
      <g>
       <use xlink:href="#m59b2a27b9c" x="422.964593" y="584.521875" style="stroke: #000000; stroke-width: 0.8"/>
      </g>
     </g>
     <g id="text_14">
      <!-- 2022-06 -->
      <g transform="translate(402.073187 599.120312)scale(0.1 -0.1)">
       <use xlink:href="#DejaVuSans-32"/>
       <use xlink:href="#DejaVuSans-30" x="63.623047"/>
       <use xlink:href="#DejaVuSans-32" x="127.246094"/>
       <use xlink:href="#DejaVuSans-32" x="190.869141"/>
       <use xlink:href="#DejaVuSans-2d" x="254.492188"/>
       <use xlink:href="#DejaVuSans-30" x="290.576172"/>
       <use xlink:href="#DejaVuSans-36" x="354.199219"/>
      </g>
     </g>
    </g>
    <g id="xtick_17">
     <g id="line2d_49">
      <path d="M 513.580379 584.521875 
L 513.580379 331.135938 
" clip-path="url(#pd2b81b86aa)" style="fill: none; stroke-dasharray: 2.96,1.28; stroke-dashoffset: 0; stroke: #b0b0b0; stroke-width: 0.8"/>
     </g>
     <g id="line2d_50">
      <g>
       <use xlink:href="#m59b2a27b9c" x="513.580379" y="584.521875" style="stroke: #000000; stroke-width: 0.8"/>
      </g>
     </g>
     <g id="text_15">
      <!-- 2022-07 -->
      <g transform="translate(492.688973 599.120312)scale(0.1 -0.1)">
       <use xlink:href="#DejaVuSans-32"/>
       <use xlink:href="#DejaVuSans-30" x="63.623047"/>
       <use xlink:href="#DejaVuSans-32" x="127.246094"/>
       <use xlink:href="#DejaVuSans-32" x="190.869141"/>
       <use xlink:href="#DejaVuSans-2d" x="254.492188"/>
       <use xlink:href="#DejaVuSans-30" x="290.576172"/>
       <use xlink:href="#DejaVuSans-37" x="354.199219"/>
      </g>
     </g>
    </g>
    <g id="xtick_18">
     <g id="line2d_51">
      <path d="M 607.216691 584.521875 
L 607.216691 331.135938 
" clip-path="url(#pd2b81b86aa)" style="fill: none; stroke-dasharray: 2.96,1.28; stroke-dashoffset: 0; stroke: #b0b0b0; stroke-width: 0.8"/>
     </g>
     <g id="line2d_52">
      <g>
       <use xlink:href="#m59b2a27b9c" x="607.216691" y="584.521875" style="stroke: #000000; stroke-width: 0.8"/>
      </g>
     </g>
     <g id="text_16">
      <!-- 2022-08 -->
      <g transform="translate(586.325285 599.120312)scale(0.1 -0.1)">
       <use xlink:href="#DejaVuSans-32"/>
       <use xlink:href="#DejaVuSans-30" x="63.623047"/>
       <use xlink:href="#DejaVuSans-32" x="127.246094"/>
       <use xlink:href="#DejaVuSans-32" x="190.869141"/>
       <use xlink:href="#DejaVuSans-2d" x="254.492188"/>
       <use xlink:href="#DejaVuSans-30" x="290.576172"/>
       <use xlink:href="#DejaVuSans-38" x="354.199219"/>
      </g>
     </g>
    </g>
    <g id="xtick_19">
     <g id="line2d_53">
      <path d="M 700.853003 584.521875 
L 700.853003 331.135938 
" clip-path="url(#pd2b81b86aa)" style="fill: none; stroke-dasharray: 2.96,1.28; stroke-dashoffset: 0; stroke: #b0b0b0; stroke-width: 0.8"/>
     </g>
     <g id="line2d_54">
      <g>
       <use xlink:href="#m59b2a27b9c" x="700.853003" y="584.521875" style="stroke: #000000; stroke-width: 0.8"/>
      </g>
     </g>
     <g id="text_17">
      <!-- 2022-09 -->
      <g transform="translate(679.961597 599.120312)scale(0.1 -0.1)">
       <defs>
        <path id="DejaVuSans-39" d="M 703 97 
L 703 672 
Q 941 559 1184 500 
Q 1428 441 1663 441 
Q 2288 441 2617 861 
Q 2947 1281 2994 2138 
Q 2813 1869 2534 1725 
Q 2256 1581 1919 1581 
Q 1219 1581 811 2004 
Q 403 2428 403 3163 
Q 403 3881 828 4315 
Q 1253 4750 1959 4750 
Q 2769 4750 3195 4129 
Q 3622 3509 3622 2328 
Q 3622 1225 3098 567 
Q 2575 -91 1691 -91 
Q 1453 -91 1209 -44 
Q 966 3 703 97 
z
M 1959 2075 
Q 2384 2075 2632 2365 
Q 2881 2656 2881 3163 
Q 2881 3666 2632 3958 
Q 2384 4250 1959 4250 
Q 1534 4250 1286 3958 
Q 1038 3666 1038 3163 
Q 1038 2656 1286 2365 
Q 1534 2075 1959 2075 
z
" transform="scale(0.015625)"/>
       </defs>
       <use xlink:href="#DejaVuSans-32"/>
       <use xlink:href="#DejaVuSans-30" x="63.623047"/>
       <use xlink:href="#DejaVuSans-32" x="127.246094"/>
       <use xlink:href="#DejaVuSans-32" x="190.869141"/>
       <use xlink:href="#DejaVuSans-2d" x="254.492188"/>
       <use xlink:href="#DejaVuSans-30" x="290.576172"/>
       <use xlink:href="#DejaVuSans-39" x="354.199219"/>
      </g>
     </g>
    </g>
    <g id="xtick_20">
     <g id="line2d_55">
      <path d="M 791.468789 584.521875 
L 791.468789 331.135938 
" clip-path="url(#pd2b81b86aa)" style="fill: none; stroke-dasharray: 2.96,1.28; stroke-dashoffset: 0; stroke: #b0b0b0; stroke-width: 0.8"/>
     </g>
     <g id="line2d_56">
      <g>
       <use xlink:href="#m59b2a27b9c" x="791.468789" y="584.521875" style="stroke: #000000; stroke-width: 0.8"/>
      </g>
     </g>
     <g id="text_18">
      <!-- 2022-10 -->
      <g transform="translate(770.577382 599.120312)scale(0.1 -0.1)">
       <defs>
        <path id="DejaVuSans-31" d="M 794 531 
L 1825 531 
L 1825 4091 
L 703 3866 
L 703 4441 
L 1819 4666 
L 2450 4666 
L 2450 531 
L 3481 531 
L 3481 0 
L 794 0 
L 794 531 
z
" transform="scale(0.015625)"/>
       </defs>
       <use xlink:href="#DejaVuSans-32"/>
       <use xlink:href="#DejaVuSans-30" x="63.623047"/>
       <use xlink:href="#DejaVuSans-32" x="127.246094"/>
       <use xlink:href="#DejaVuSans-32" x="190.869141"/>
       <use xlink:href="#DejaVuSans-2d" x="254.492188"/>
       <use xlink:href="#DejaVuSans-31" x="290.576172"/>
       <use xlink:href="#DejaVuSans-30" x="354.199219"/>
      </g>
     </g>
    </g>
    <g id="xtick_21">
     <g id="line2d_57">
      <path d="M 885.105101 584.521875 
L 885.105101 331.135938 
" clip-path="url(#pd2b81b86aa)" style="fill: none; stroke-dasharray: 2.96,1.28; stroke-dashoffset: 0; stroke: #b0b0b0; stroke-width: 0.8"/>
     </g>
     <g id="line2d_58">
      <g>
       <use xlink:href="#m59b2a27b9c" x="885.105101" y="584.521875" style="stroke: #000000; stroke-width: 0.8"/>
      </g>
     </g>
     <g id="text_19">
      <!-- 2022-11 -->
      <g transform="translate(864.213694 599.120312)scale(0.1 -0.1)">
       <use xlink:href="#DejaVuSans-32"/>
       <use xlink:href="#DejaVuSans-30" x="63.623047"/>
       <use xlink:href="#DejaVuSans-32" x="127.246094"/>
       <use xlink:href="#DejaVuSans-32" x="190.869141"/>
       <use xlink:href="#DejaVuSans-2d" x="254.492188"/>
       <use xlink:href="#DejaVuSans-31" x="290.576172"/>
       <use xlink:href="#DejaVuSans-31" x="354.199219"/>
      </g>
     </g>
    </g>
    <g id="xtick_22">
     <g id="line2d_59">
      <path d="M 975.720886 584.521875 
L 975.720886 331.135938 
" clip-path="url(#pd2b81b86aa)" style="fill: none; stroke-dasharray: 2.96,1.28; stroke-dashoffset: 0; stroke: #b0b0b0; stroke-width: 0.8"/>
     </g>
     <g id="line2d_60">
      <g>
       <use xlink:href="#m59b2a27b9c" x="975.720886" y="584.521875" style="stroke: #000000; stroke-width: 0.8"/>
      </g>
     </g>
     <g id="text_20">
      <!-- 2022-12 -->
      <g transform="translate(954.82948 599.120312)scale(0.1 -0.1)">
       <use xlink:href="#DejaVuSans-32"/>
       <use xlink:href="#DejaVuSans-30" x="63.623047"/>
       <use xlink:href="#DejaVuSans-32" x="127.246094"/>
       <use xlink:href="#DejaVuSans-32" x="190.869141"/>
       <use xlink:href="#DejaVuSans-2d" x="254.492188"/>
       <use xlink:href="#DejaVuSans-31" x="290.576172"/>
       <use xlink:href="#DejaVuSans-32" x="354.199219"/>
      </g>
     </g>
    </g>
   </g>
   <g id="matplotlib.axis_4">
    <g id="ytick_7">
     <g id="line2d_61">
      <path d="M 38.904688 564.480453 
L 979.194492 564.480453 
" clip-path="url(#pd2b81b86aa)" style="fill: none; stroke-dasharray: 2.96,1.28; stroke-dashoffset: 0; stroke: #b0b0b0; stroke-width: 0.8"/>
     </g>
     <g id="line2d_62">
      <g>
       <use xlink:href="#mfb4cfc5f47" x="38.904688" y="564.480453" style="stroke: #000000; stroke-width: 0.8"/>
      </g>
     </g>
     <g id="text_21">
      <!-- −20 -->
      <g transform="translate(10.8 568.279671)scale(0.1 -0.1)">
       <defs>
        <path id="DejaVuSans-2212" d="M 678 2272 
L 4684 2272 
L 4684 1741 
L 678 1741 
L 678 2272 
z
" transform="scale(0.015625)"/>
       </defs>
       <use xlink:href="#DejaVuSans-2212"/>
       <use xlink:href="#DejaVuSans-32" x="83.789062"/>
       <use xlink:href="#DejaVuSans-30" x="147.412109"/>
      </g>
     </g>
    </g>
    <g id="ytick_8">
     <g id="line2d_63">
      <path d="M 38.904688 524.490102 
L 979.194492 524.490102 
" clip-path="url(#pd2b81b86aa)" style="fill: none; stroke-dasharray: 2.96,1.28; stroke-dashoffset: 0; stroke: #b0b0b0; stroke-width: 0.8"/>
     </g>
     <g id="line2d_64">
      <g>
       <use xlink:href="#mfb4cfc5f47" x="38.904688" y="524.490102" style="stroke: #000000; stroke-width: 0.8"/>
      </g>
     </g>
     <g id="text_22">
      <!-- 0 -->
      <g transform="translate(25.542188 528.289321)scale(0.1 -0.1)">
       <use xlink:href="#DejaVuSans-30"/>
      </g>
     </g>
    </g>
    <g id="ytick_9">
     <g id="line2d_65">
      <path d="M 38.904688 484.499752 
L 979.194492 484.499752 
" clip-path="url(#pd2b81b86aa)" style="fill: none; stroke-dasharray: 2.96,1.28; stroke-dashoffset: 0; stroke: #b0b0b0; stroke-width: 0.8"/>
     </g>
     <g id="line2d_66">
      <g>
       <use xlink:href="#mfb4cfc5f47" x="38.904688" y="484.499752" style="stroke: #000000; stroke-width: 0.8"/>
      </g>
     </g>
     <g id="text_23">
      <!-- 20 -->
      <g transform="translate(19.179688 488.298971)scale(0.1 -0.1)">
       <use xlink:href="#DejaVuSans-32"/>
       <use xlink:href="#DejaVuSans-30" x="63.623047"/>
      </g>
     </g>
    </g>
    <g id="ytick_10">
     <g id="line2d_67">
      <path d="M 38.904688 444.509402 
L 979.194492 444.509402 
" clip-path="url(#pd2b81b86aa)" style="fill: none; stroke-dasharray: 2.96,1.28; stroke-dashoffset: 0; stroke: #b0b0b0; stroke-width: 0.8"/>
     </g>
     <g id="line2d_68">
      <g>
       <use xlink:href="#mfb4cfc5f47" x="38.904688" y="444.509402" style="stroke: #000000; stroke-width: 0.8"/>
      </g>
     </g>
     <g id="text_24">
      <!-- 40 -->
      <g transform="translate(19.179688 448.308621)scale(0.1 -0.1)">
       <use xlink:href="#DejaVuSans-34"/>
       <use xlink:href="#DejaVuSans-30" x="63.623047"/>
      </g>
     </g>
    </g>
    <g id="ytick_11">
     <g id="line2d_69">
      <path d="M 38.904688 404.519052 
L 979.194492 404.519052 
" clip-path="url(#pd2b81b86aa)" style="fill: none; stroke-dasharray: 2.96,1.28; stroke-dashoffset: 0; stroke: #b0b0b0; stroke-width: 0.8"/>
     </g>
     <g id="line2d_70">
      <g>
       <use xlink:href="#mfb4cfc5f47" x="38.904688" y="404.519052" style="stroke: #000000; stroke-width: 0.8"/>
      </g>
     </g>
     <g id="text_25">
      <!-- 60 -->
      <g transform="translate(19.179688 408.318271)scale(0.1 -0.1)">
       <use xlink:href="#DejaVuSans-36"/>
       <use xlink:href="#DejaVuSans-30" x="63.623047"/>
      </g>
     </g>
    </g>
    <g id="ytick_12">
     <g id="line2d_71">
      <path d="M 38.904688 364.528702 
L 979.194492 364.528702 
" clip-path="url(#pd2b81b86aa)" style="fill: none; stroke-dasharray: 2.96,1.28; stroke-dashoffset: 0; stroke: #b0b0b0; stroke-width: 0.8"/>
     </g>
     <g id="line2d_72">
      <g>
       <use xlink:href="#mfb4cfc5f47" x="38.904688" y="364.528702" style="stroke: #000000; stroke-width: 0.8"/>
      </g>
     </g>
     <g id="text_26">
      <!-- 80 -->
      <g transform="translate(19.179688 368.32792)scale(0.1 -0.1)">
       <use xlink:href="#DejaVuSans-38"/>
       <use xlink:href="#DejaVuSans-30" x="63.623047"/>
      </g>
     </g>
    </g>
   </g>
   <g id="line2d_73">
    <path d="M 81.645133 524.490102 
L 84.665659 522.083311 
L 87.686186 517.433357 
L 90.706712 515.870416 
L 99.76829 515.576561 
L 102.788816 514.92193 
L 105.809343 515.282871 
L 111.850395 519.374236 
L 120.911974 523.660538 
L 123.9325 528.18631 
L 126.953026 528.076654 
L 129.973552 529.314437 
L 132.994078 526.336709 
L 142.055657 522.49532 
L 148.096709 519.247824 
L 151.117236 517.089877 
L 154.137762 517.980133 
L 163.19934 521.308819 
L 166.219867 523.652109 
L 169.240393 525.79013 
L 172.260919 527.027559 
L 175.281445 527.848486 
L 184.343024 528.872571 
L 187.36355 529.735537 
L 190.384076 529.503444 
L 193.404602 524.50899 
L 205.486707 518.977381 
L 208.507233 514.458892 
L 211.527759 510.445222 
L 214.548286 506.032695 
L 217.568812 501.010211 
L 226.63039 491.174021 
L 229.650917 478.068833 
L 232.671443 469.499816 
L 235.691969 459.73115 
L 238.712495 448.936939 
L 247.774074 439.89559 
L 250.7946 429.590315 
L 253.815126 418.191658 
L 256.835652 415.146767 
L 259.856179 418.458575 
L 268.917757 418.03601 
L 271.938283 414.466798 
L 274.95881 408.246584 
L 290.061441 399.770111 
L 293.081967 393.011482 
L 296.102493 390.780664 
L 299.123019 385.59856 
L 302.143545 378.616997 
L 311.205124 369.116389 
L 314.22565 357.460661 
L 317.246176 344.296802 
L 320.266702 342.65348 
L 323.287229 346.361905 
L 332.348807 355.52225 
L 338.38986 370.563049 
L 341.410386 389.743773 
L 344.430912 411.676707 
L 353.492491 435.250637 
L 356.513017 459.583674 
L 359.533543 474.773502 
L 362.554069 492.085697 
L 365.574595 508.109062 
L 374.636174 519.453879 
L 377.6567 523.823885 
L 380.677226 522.447886 
L 383.697753 516.377804 
L 386.718279 506.411823 
L 395.779857 493.243422 
L 398.800383 489.129862 
L 401.82091 491.864753 
L 404.841436 489.101661 
L 407.861962 485.416437 
L 416.923541 485.161614 
L 419.944067 489.84069 
L 422.964593 497.513334 
L 425.985119 498.699778 
L 429.005645 502.366517 
L 438.067224 502.769266 
L 441.08775 506.039061 
L 444.108276 510.586621 
L 447.128803 515.661616 
L 450.149329 523.019371 
L 462.231434 537.360141 
L 465.25196 538.142292 
L 468.272486 543.634491 
L 471.293012 550.364423 
L 480.354591 559.995511 
L 483.375117 564.180144 
L 486.395643 569.397018 
L 489.416169 573.004332 
L 492.436695 571.101374 
L 501.498274 566.951148 
L 504.5188 564.235889 
L 507.539326 562.859209 
L 510.559853 562.98543 
L 513.580379 560.756314 
L 522.641957 559.457514 
L 525.662484 557.810234 
L 528.68301 556.992943 
L 531.703536 552.920713 
L 543.785641 543.836128 
L 546.806167 533.41462 
L 549.826693 526.630976 
L 552.847219 523.069856 
L 555.867746 520.957806 
L 564.929324 519.375221 
L 567.94985 519.190328 
L 570.970377 519.616199 
L 573.990903 519.853896 
L 577.011429 520.643177 
L 586.073007 519.59094 
L 589.093534 516.948411 
L 592.11406 513.113949 
L 595.134586 510.271288 
L 598.155112 506.076982 
L 607.216691 497.753427 
L 610.237217 488.642041 
L 613.257743 483.817973 
L 616.278269 481.315362 
L 619.298796 482.765413 
L 628.360374 485.796504 
L 634.401427 488.388951 
L 640.442479 494.692749 
L 652.524584 492.194263 
L 655.54511 488.212322 
L 658.565636 481.893331 
L 661.586162 477.069118 
L 670.647741 475.329182 
L 673.668267 480.005077 
L 676.688793 486.113419 
L 682.729846 494.045188 
L 691.791424 497.445075 
L 694.81195 498.989464 
L 700.853003 501.901659 
L 703.873529 505.541281 
L 712.935108 509.49402 
L 715.955634 509.468049 
L 718.97616 508.526294 
L 721.996686 508.233558 
L 725.017212 507.088891 
L 734.078791 502.227326 
L 737.099317 499.924222 
L 740.119843 500.497228 
L 743.14037 497.758346 
L 746.160896 497.264946 
L 755.222474 495.426114 
L 761.263527 481.493988 
L 764.284053 471.070719 
L 767.304579 464.470138 
L 776.366158 466.434702 
L 779.386684 471.498604 
L 782.40721 478.821401 
L 785.427736 483.236793 
L 788.448262 485.627046 
L 797.509841 493.963952 
L 800.530367 501.912277 
L 806.57142 502.726485 
L 809.591946 502.918568 
L 818.653524 505.021596 
L 821.674051 510.296569 
L 824.694577 516.273913 
L 827.715103 524.966505 
L 830.735629 536.389191 
L 839.797208 544.182153 
L 842.817734 545.046893 
L 845.83826 544.931862 
L 848.858786 545.039448 
L 851.879313 546.676019 
L 860.940891 546.732419 
L 863.961417 548.118188 
L 870.00247 550.186756 
L 873.022996 551.434838 
L 882.084574 551.890284 
L 885.105101 544.908643 
L 888.125627 542.029255 
L 891.146153 542.197315 
L 894.166679 541.768306 
L 903.228258 541.323013 
L 909.26931 540.032633 
L 912.289836 540.272104 
L 915.310363 540.989671 
L 924.371941 542.568106 
L 927.392467 543.550902 
L 933.43352 549.424229 
L 936.454046 553.186902 
L 936.454046 553.186902 
" clip-path="url(#pd2b81b86aa)" style="fill: none; stroke: #1f77b4; stroke-width: 1.5; stroke-linecap: square"/>
   </g>
   <g id="line2d_74">
    <path d="M 81.645133 524.490102 
L 84.665659 523.152996 
L 87.686186 520.808882 
L 90.706712 519.13596 
L 99.76829 518.077119 
L 102.788816 517.221887 
L 105.809343 516.731174 
L 108.829869 516.871082 
L 111.850395 517.449323 
L 120.911974 518.840996 
L 123.9325 520.885697 
L 129.973552 523.886997 
L 132.994078 524.399478 
L 142.055657 524.004759 
L 148.096709 523.025817 
L 151.117236 521.81128 
L 154.137762 521.030994 
L 163.19934 521.087372 
L 166.219867 521.606302 
L 172.260919 523.373002 
L 175.281445 524.273414 
L 184.343024 525.19761 
L 187.36355 526.108637 
L 190.384076 526.789656 
L 193.404602 526.332418 
L 205.486707 524.858559 
L 208.507233 522.775403 
L 211.527759 520.30631 
L 214.548286 517.448757 
L 217.568812 514.158441 
L 226.63039 509.558641 
L 229.650917 503.257485 
L 232.671443 496.503211 
L 235.691969 489.146412 
L 238.712495 481.102429 
L 247.774074 472.859349 
L 250.7946 464.204104 
L 253.815126 455.000392 
L 256.835652 447.028819 
L 259.856179 441.314284 
L 268.917757 436.658312 
L 271.938283 432.219768 
L 274.95881 427.424922 
L 290.061441 421.893767 
L 293.081967 416.117149 
L 299.123019 405.959412 
L 302.143545 400.490851 
L 311.205124 394.215887 
L 314.22565 386.864775 
L 317.246176 378.351118 
L 320.266702 371.211549 
L 323.287229 366.241597 
L 332.348807 364.097719 
L 338.38986 365.390789 
L 341.410386 370.261398 
L 344.430912 378.544475 
L 353.492491 389.885725 
L 359.533543 418.01498 
L 365.574595 447.88513 
L 374.636174 462.198887 
L 377.6567 474.523891 
L 380.677226 484.108693 
L 383.697753 490.562517 
L 386.718279 493.732379 
L 395.779857 493.634588 
L 398.800383 492.733642 
L 401.82091 492.559865 
L 404.841436 491.868224 
L 407.861962 490.577866 
L 416.923541 489.494616 
L 419.944067 489.563831 
L 425.985119 492.662941 
L 429.005645 494.603656 
L 438.067224 496.236778 
L 441.08775 498.197235 
L 444.108276 500.675112 
L 447.128803 503.672413 
L 450.149329 507.541804 
L 459.210907 512.784371 
L 462.231434 517.699525 
L 465.25196 521.788078 
L 468.272486 526.157361 
L 471.293012 530.998773 
L 480.354591 536.798121 
L 486.395643 547.699024 
L 489.416169 552.760086 
L 492.436695 556.428343 
L 501.498274 558.532904 
L 504.5188 559.673501 
L 510.559853 560.8456 
L 513.580379 560.827743 
L 522.641957 560.553697 
L 528.68301 559.402592 
L 531.703536 558.106217 
L 534.724062 556.608591 
L 543.785641 554.054098 
L 546.806167 549.926203 
L 549.826693 545.267157 
L 552.847219 540.827697 
L 555.867746 536.853719 
L 564.929324 533.358019 
L 567.94985 530.524481 
L 570.970377 528.342825 
L 573.990903 526.645039 
L 577.011429 525.444667 
L 586.073007 524.273921 
L 589.093534 522.808819 
L 592.11406 520.869845 
L 595.134586 518.750134 
L 598.155112 516.215503 
L 607.216691 512.523088 
L 613.257743 502.961098 
L 616.278269 498.63195 
L 619.298796 495.458643 
L 628.360374 493.526215 
L 634.401427 492.498762 
L 637.421953 492.318424 
L 640.442479 492.793289 
L 652.524584 492.673483 
L 655.54511 491.781251 
L 658.565636 489.803667 
L 661.586162 487.256757 
L 670.647741 484.871242 
L 673.668267 483.898009 
L 676.688793 484.341091 
L 679.709319 485.480185 
L 682.729846 487.193186 
L 691.791424 489.243564 
L 694.81195 491.192744 
L 700.853003 493.334527 
L 703.873529 495.775878 
L 712.935108 498.519506 
L 715.955634 500.709214 
L 718.97616 502.27263 
L 721.996686 503.464816 
L 725.017212 504.189631 
L 734.078791 503.79717 
L 737.099317 503.02258 
L 740.119843 502.51751 
L 746.160896 500.705531 
L 755.222474 499.649648 
L 758.243001 497.413879 
L 761.263527 494.229901 
L 764.284053 489.598065 
L 767.304579 484.572479 
L 776.366158 480.944924 
L 779.386684 479.05566 
L 782.40721 479.008808 
L 785.427736 479.854405 
L 788.448262 481.008933 
L 797.509841 483.599937 
L 800.530367 487.262405 
L 806.57142 490.355221 
L 809.591946 492.86789 
L 818.653524 495.298632 
L 821.674051 498.298219 
L 824.694577 501.893358 
L 827.715103 506.507987 
L 830.735629 512.484228 
L 839.797208 518.823813 
L 842.817734 524.068429 
L 845.83826 528.241116 
L 848.858786 531.600782 
L 851.879313 534.615829 
L 860.940891 537.039147 
L 863.961417 539.254955 
L 870.00247 541.441316 
L 873.022996 543.44002 
L 882.084574 545.130073 
L 885.105101 545.085787 
L 888.125627 544.474481 
L 894.166679 543.568899 
L 903.228258 543.119722 
L 909.26931 542.502304 
L 912.289836 542.056264 
L 915.310363 541.842945 
L 924.371941 541.987977 
L 927.392467 542.300562 
L 930.412994 543.138108 
L 933.43352 544.395332 
L 936.454046 546.153646 
L 936.454046 546.153646 
" clip-path="url(#pd2b81b86aa)" style="fill: none; stroke: #ff7f0e; stroke-width: 1.5; stroke-linecap: square"/>
   </g>
   <g id="patch_9">
    <path d="M 38.904688 584.521875 
L 38.904688 331.135937 
" style="fill: none; stroke: #000000; stroke-width: 0.8; stroke-linejoin: miter; stroke-linecap: square"/>
   </g>
   <g id="patch_10">
    <path d="M 979.194492 584.521875 
L 979.194492 331.135937 
" style="fill: none; stroke: #000000; stroke-width: 0.8; stroke-linejoin: miter; stroke-linecap: square"/>
   </g>
   <g id="patch_11">
    <path d="M 38.904687 584.521875 
L 979.194492 584.521875 
" style="fill: none; stroke: #000000; stroke-width: 0.8; stroke-linejoin: miter; stroke-linecap: square"/>
   </g>
   <g id="patch_12">
    <path d="M 38.904687 331.135938 
L 979.194492 331.135938 
" style="fill: none; stroke: #000000; stroke-width: 0.8; stroke-linejoin: miter; stroke-linecap: square"/>
   </g>
   <g id="text_27">
    <!-- MACD -->
    <g transform="translate(491.063652 325.135938)scale(0.12 -0.12)">
     <defs>
      <path id="DejaVuSans-44" d="M 1259 4147 
L 1259 519 
L 2022 519 
Q 2988 519 3436 956 
Q 3884 1394 3884 2338 
Q 3884 3275 3436 3711 
Q 2988 4147 2022 4147 
L 1259 4147 
z
M 628 4666 
L 1925 4666 
Q 3281 4666 3915 4102 
Q 4550 3538 4550 2338 
Q 4550 1131 3912 565 
Q 3275 0 1925 0 
L 628 0 
L 628 4666 
z
" transform="scale(0.015625)"/>
     </defs>
     <use xlink:href="#DejaVuSans-4d"/>
     <use xlink:href="#DejaVuSans-41" x="86.279297"/>
     <use xlink:href="#DejaVuSans-43" x="152.9375"/>
     <use xlink:href="#DejaVuSans-44" x="222.761719"/>
    </g>
   </g>
   <g id="legend_2">
    <g id="patch_13">
     <path d="M 910.217929 368.492188 
L 972.194492 368.492188 
Q 974.194492 368.492188 974.194492 366.492188 
L 974.194492 338.135938 
Q 974.194492 336.135938 972.194492 336.135938 
L 910.217929 336.135938 
Q 908.217929 336.135938 908.217929 338.135938 
L 908.217929 366.492188 
Q 908.217929 368.492188 910.217929 368.492188 
z
" style="fill: #ffffff; opacity: 0.8; stroke: #cccccc; stroke-linejoin: miter"/>
    </g>
    <g id="line2d_75">
     <path d="M 912.217929 344.234375 
L 922.217929 344.234375 
L 932.217929 344.234375 
" style="fill: none; stroke: #1f77b4; stroke-width: 1.5; stroke-linecap: square"/>
    </g>
    <g id="text_28">
     <!-- MACD -->
     <g transform="translate(940.217929 347.734375)scale(0.1 -0.1)">
      <use xlink:href="#DejaVuSans-4d"/>
      <use xlink:href="#DejaVuSans-41" x="86.279297"/>
      <use xlink:href="#DejaVuSans-43" x="152.9375"/>
      <use xlink:href="#DejaVuSans-44" x="222.761719"/>
     </g>
    </g>
    <g id="line2d_76">
     <path d="M 912.217929 358.9125 
L 922.217929 358.9125 
L 932.217929 358.9125 
" style="fill: none; stroke: #ff7f0e; stroke-width: 1.5; stroke-linecap: square"/>
    </g>
    <g id="text_29">
     <!-- SIG -->
     <g transform="translate(940.217929 362.4125)scale(0.1 -0.1)">
      <defs>
       <path id="DejaVuSans-49" d="M 628 4666 
L 1259 4666 
L 1259 0 
L 628 0 
L 628 4666 
z
" transform="scale(0.015625)"/>
       <path id="DejaVuSans-47" d="M 3809 666 
L 3809 1919 
L 2778 1919 
L 2778 2438 
L 4434 2438 
L 4434 434 
Q 4069 175 3628 42 
Q 3188 -91 2688 -91 
Q 1594 -91 976 548 
Q 359 1188 359 2328 
Q 359 3472 976 4111 
Q 1594 4750 2688 4750 
Q 3144 4750 3555 4637 
Q 3966 4525 4313 4306 
L 4313 3634 
Q 3963 3931 3569 4081 
Q 3175 4231 2741 4231 
Q 1884 4231 1454 3753 
Q 1025 3275 1025 2328 
Q 1025 1384 1454 906 
Q 1884 428 2741 428 
Q 3075 428 3337 486 
Q 3600 544 3809 666 
z
" transform="scale(0.015625)"/>
      </defs>
      <use xlink:href="#DejaVuSans-53"/>
      <use xlink:href="#DejaVuSans-49" x="63.476562"/>
      <use xlink:href="#DejaVuSans-47" x="92.96875"/>
     </g>
    </g>
   </g>
  </g>
  <g id="text_30">
   <!-- Adani Wilmar Limited -->
   <g transform="translate(439.738125 21.358125)scale(0.12 -0.12)">
    <defs>
     <path id="DejaVuSans-64" d="M 2906 2969 
L 2906 4863 
L 3481 4863 
L 3481 0 
L 2906 0 
L 2906 525 
Q 2725 213 2448 61 
Q 2172 -91 1784 -91 
Q 1150 -91 751 415 
Q 353 922 353 1747 
Q 353 2572 751 3078 
Q 1150 3584 1784 3584 
Q 2172 3584 2448 3432 
Q 2725 3281 2906 2969 
z
M 947 1747 
Q 947 1113 1208 752 
Q 1469 391 1925 391 
Q 2381 391 2643 752 
Q 2906 1113 2906 1747 
Q 2906 2381 2643 2742 
Q 2381 3103 1925 3103 
Q 1469 3103 1208 2742 
Q 947 2381 947 1747 
z
" transform="scale(0.015625)"/>
     <path id="DejaVuSans-61" d="M 2194 1759 
Q 1497 1759 1228 1600 
Q 959 1441 959 1056 
Q 959 750 1161 570 
Q 1363 391 1709 391 
Q 2188 391 2477 730 
Q 2766 1069 2766 1631 
L 2766 1759 
L 2194 1759 
z
M 3341 1997 
L 3341 0 
L 2766 0 
L 2766 531 
Q 2569 213 2275 61 
Q 1981 -91 1556 -91 
Q 1019 -91 701 211 
Q 384 513 384 1019 
Q 384 1609 779 1909 
Q 1175 2209 1959 2209 
L 2766 2209 
L 2766 2266 
Q 2766 2663 2505 2880 
Q 2244 3097 1772 3097 
Q 1472 3097 1187 3025 
Q 903 2953 641 2809 
L 641 3341 
Q 956 3463 1253 3523 
Q 1550 3584 1831 3584 
Q 2591 3584 2966 3190 
Q 3341 2797 3341 1997 
z
" transform="scale(0.015625)"/>
     <path id="DejaVuSans-57" d="M 213 4666 
L 850 4666 
L 1831 722 
L 2809 4666 
L 3519 4666 
L 4500 722 
L 5478 4666 
L 6119 4666 
L 4947 0 
L 4153 0 
L 3169 4050 
L 2175 0 
L 1381 0 
L 213 4666 
z
" transform="scale(0.015625)"/>
     <path id="DejaVuSans-6d" d="M 3328 2828 
Q 3544 3216 3844 3400 
Q 4144 3584 4550 3584 
Q 5097 3584 5394 3201 
Q 5691 2819 5691 2113 
L 5691 0 
L 5113 0 
L 5113 2094 
Q 5113 2597 4934 2840 
Q 4756 3084 4391 3084 
Q 3944 3084 3684 2787 
Q 3425 2491 3425 1978 
L 3425 0 
L 2847 0 
L 2847 2094 
Q 2847 2600 2669 2842 
Q 2491 3084 2119 3084 
Q 1678 3084 1418 2786 
Q 1159 2488 1159 1978 
L 1159 0 
L 581 0 
L 581 3500 
L 1159 3500 
L 1159 2956 
Q 1356 3278 1631 3431 
Q 1906 3584 2284 3584 
Q 2666 3584 2933 3390 
Q 3200 3197 3328 2828 
z
" transform="scale(0.015625)"/>
     <path id="DejaVuSans-74" d="M 1172 4494 
L 1172 3500 
L 2356 3500 
L 2356 3053 
L 1172 3053 
L 1172 1153 
Q 1172 725 1289 603 
Q 1406 481 1766 481 
L 2356 481 
L 2356 0 
L 1766 0 
Q 1100 0 847 248 
Q 594 497 594 1153 
L 594 3053 
L 172 3053 
L 172 3500 
L 594 3500 
L 594 4494 
L 1172 4494 
z
" transform="scale(0.015625)"/>
    </defs>
    <use xlink:href="#DejaVuSans-41"/>
    <use xlink:href="#DejaVuSans-64" x="66.658203"/>
    <use xlink:href="#DejaVuSans-61" x="130.134766"/>
    <use xlink:href="#DejaVuSans-6e" x="191.414062"/>
    <use xlink:href="#DejaVuSans-69" x="254.792969"/>
    <use xlink:href="#DejaVuSans-20" x="282.576172"/>
    <use xlink:href="#DejaVuSans-57" x="314.363281"/>
    <use xlink:href="#DejaVuSans-69" x="410.990234"/>
    <use xlink:href="#DejaVuSans-6c" x="438.773438"/>
    <use xlink:href="#DejaVuSans-6d" x="466.556641"/>
    <use xlink:href="#DejaVuSans-61" x="563.96875"/>
    <use xlink:href="#DejaVuSans-72" x="625.248047"/>
    <use xlink:href="#DejaVuSans-20" x="666.361328"/>
    <use xlink:href="#DejaVuSans-4c" x="698.148438"/>
    <use xlink:href="#DejaVuSans-69" x="753.861328"/>
    <use xlink:href="#DejaVuSans-6d" x="781.644531"/>
    <use xlink:href="#DejaVuSans-69" x="879.056641"/>
    <use xlink:href="#DejaVuSans-74" x="906.839844"/>
    <use xlink:href="#DejaVuSans-65" x="946.048828"/>
    <use xlink:href="#DejaVuSans-64" x="1007.572266"/>
   </g>
  </g>
 </g>
 <defs>
  <clipPath id="p9bbb4397cb">
   <rect x="38.904688" y="48.331875" width="940.289804" height="253.385938"/>
  </clipPath>
  <clipPath id="pd2b81b86aa">
   <rect x="38.904688" y="331.135938" width="940.289804" height="253.385937"/>
  </clipPath>
 </defs>
</svg>
