<?xml version="1.0" encoding="utf-8" standalone="no"?>
<!DOCTYPE svg PUBLIC "-//W3C//DTD SVG 1.1//EN"
  "http://www.w3.org/Graphics/SVG/1.1/DTD/svg11.dtd">
<svg xmlns:xlink="http://www.w3.org/1999/xlink" width="1008pt" height="612pt" viewBox="0 0 1008 612" xmlns="http://www.w3.org/2000/svg" version="1.1">
 <metadata>
  <rdf:RDF xmlns:dc="http://purl.org/dc/elements/1.1/" xmlns:cc="http://creativecommons.org/ns#" xmlns:rdf="http://www.w3.org/1999/02/22-rdf-syntax-ns#">
   <cc:Work>
    <dc:type rdf:resource="http://purl.org/dc/dcmitype/StillImage"/>
    <dc:date>2022-11-20T19:47:25.780145</dc:date>
    <dc:format>image/svg+xml</dc:format>
    <dc:creator>
     <cc:Agent>
      <dc:title>Matplotlib v3.5.2, https://matplotlib.org/</dc:title>
     </cc:Agent>
    </dc:creator>
   </cc:Work>
  </rdf:RDF>
 </metadata>
 <defs>
  <style type="text/css">*{stroke-linejoin: round; stroke-linecap: butt}</style>
 </defs>
 <g id="figure_1">
  <g id="patch_1">
   <path d="M 0 612 
L 1008 612 
L 1008 0 
L 0 0 
z
" style="fill: #ffffff"/>
  </g>
  <g id="axes_1">
   <g id="patch_2">
    <path d="M 48.445313 301.717812 
L 982.876106 301.717812 
L 982.876106 48.331875 
L 48.445313 48.331875 
z
" style="fill: #ffffff"/>
   </g>
   <g id="matplotlib.axis_1">
    <g id="xtick_1">
     <g id="line2d_1">
      <path d="M 85.59353 301.717812 
L 85.59353 48.331875 
" clip-path="url(#p4b80b4ab22)" style="fill: none; stroke-dasharray: 2.96,1.28; stroke-dashoffset: 0; stroke: #b0b0b0; stroke-width: 0.8"/>
     </g>
     <g id="line2d_2">
      <defs>
       <path id="m17d14f52df" d="M 0 0 
L 0 3.5 
" style="stroke: #000000; stroke-width: 0.8"/>
      </defs>
      <g>
       <use xlink:href="#m17d14f52df" x="85.59353" y="301.717812" style="stroke: #000000; stroke-width: 0.8"/>
      </g>
     </g>
    </g>
    <g id="xtick_2">
     <g id="line2d_3">
      <path d="M 168.145125 301.717812 
L 168.145125 48.331875 
" clip-path="url(#p4b80b4ab22)" style="fill: none; stroke-dasharray: 2.96,1.28; stroke-dashoffset: 0; stroke: #b0b0b0; stroke-width: 0.8"/>
     </g>
     <g id="line2d_4">
      <g>
       <use xlink:href="#m17d14f52df" x="168.145125" y="301.717812" style="stroke: #000000; stroke-width: 0.8"/>
      </g>
     </g>
    </g>
    <g id="xtick_3">
     <g id="line2d_5">
      <path d="M 242.707856 301.717812 
L 242.707856 48.331875 
" clip-path="url(#p4b80b4ab22)" style="fill: none; stroke-dasharray: 2.96,1.28; stroke-dashoffset: 0; stroke: #b0b0b0; stroke-width: 0.8"/>
     </g>
     <g id="line2d_6">
      <g>
       <use xlink:href="#m17d14f52df" x="242.707856" y="301.717812" style="stroke: #000000; stroke-width: 0.8"/>
      </g>
     </g>
    </g>
    <g id="xtick_4">
     <g id="line2d_7">
      <path d="M 325.25945 301.717812 
L 325.25945 48.331875 
" clip-path="url(#p4b80b4ab22)" style="fill: none; stroke-dasharray: 2.96,1.28; stroke-dashoffset: 0; stroke: #b0b0b0; stroke-width: 0.8"/>
     </g>
     <g id="line2d_8">
      <g>
       <use xlink:href="#m17d14f52df" x="325.25945" y="301.717812" style="stroke: #000000; stroke-width: 0.8"/>
      </g>
     </g>
    </g>
    <g id="xtick_5">
     <g id="line2d_9">
      <path d="M 405.14809 301.717812 
L 405.14809 48.331875 
" clip-path="url(#p4b80b4ab22)" style="fill: none; stroke-dasharray: 2.96,1.28; stroke-dashoffset: 0; stroke: #b0b0b0; stroke-width: 0.8"/>
     </g>
     <g id="line2d_10">
      <g>
       <use xlink:href="#m17d14f52df" x="405.14809" y="301.717812" style="stroke: #000000; stroke-width: 0.8"/>
      </g>
     </g>
    </g>
    <g id="xtick_6">
     <g id="line2d_11">
      <path d="M 487.699685 301.717812 
L 487.699685 48.331875 
" clip-path="url(#p4b80b4ab22)" style="fill: none; stroke-dasharray: 2.96,1.28; stroke-dashoffset: 0; stroke: #b0b0b0; stroke-width: 0.8"/>
     </g>
     <g id="line2d_12">
      <g>
       <use xlink:href="#m17d14f52df" x="487.699685" y="301.717812" style="stroke: #000000; stroke-width: 0.8"/>
      </g>
     </g>
    </g>
    <g id="xtick_7">
     <g id="line2d_13">
      <path d="M 567.588325 301.717812 
L 567.588325 48.331875 
" clip-path="url(#p4b80b4ab22)" style="fill: none; stroke-dasharray: 2.96,1.28; stroke-dashoffset: 0; stroke: #b0b0b0; stroke-width: 0.8"/>
     </g>
     <g id="line2d_14">
      <g>
       <use xlink:href="#m17d14f52df" x="567.588325" y="301.717812" style="stroke: #000000; stroke-width: 0.8"/>
      </g>
     </g>
    </g>
    <g id="xtick_8">
     <g id="line2d_15">
      <path d="M 650.13992 301.717812 
L 650.13992 48.331875 
" clip-path="url(#p4b80b4ab22)" style="fill: none; stroke-dasharray: 2.96,1.28; stroke-dashoffset: 0; stroke: #b0b0b0; stroke-width: 0.8"/>
     </g>
     <g id="line2d_16">
      <g>
       <use xlink:href="#m17d14f52df" x="650.13992" y="301.717812" style="stroke: #000000; stroke-width: 0.8"/>
      </g>
     </g>
    </g>
    <g id="xtick_9">
     <g id="line2d_17">
      <path d="M 732.691515 301.717812 
L 732.691515 48.331875 
" clip-path="url(#p4b80b4ab22)" style="fill: none; stroke-dasharray: 2.96,1.28; stroke-dashoffset: 0; stroke: #b0b0b0; stroke-width: 0.8"/>
     </g>
     <g id="line2d_18">
      <g>
       <use xlink:href="#m17d14f52df" x="732.691515" y="301.717812" style="stroke: #000000; stroke-width: 0.8"/>
      </g>
     </g>
    </g>
    <g id="xtick_10">
     <g id="line2d_19">
      <path d="M 812.580155 301.717812 
L 812.580155 48.331875 
" clip-path="url(#p4b80b4ab22)" style="fill: none; stroke-dasharray: 2.96,1.28; stroke-dashoffset: 0; stroke: #b0b0b0; stroke-width: 0.8"/>
     </g>
     <g id="line2d_20">
      <g>
       <use xlink:href="#m17d14f52df" x="812.580155" y="301.717812" style="stroke: #000000; stroke-width: 0.8"/>
      </g>
     </g>
    </g>
    <g id="xtick_11">
     <g id="line2d_21">
      <path d="M 895.13175 301.717812 
L 895.13175 48.331875 
" clip-path="url(#p4b80b4ab22)" style="fill: none; stroke-dasharray: 2.96,1.28; stroke-dashoffset: 0; stroke: #b0b0b0; stroke-width: 0.8"/>
     </g>
     <g id="line2d_22">
      <g>
       <use xlink:href="#m17d14f52df" x="895.13175" y="301.717812" style="stroke: #000000; stroke-width: 0.8"/>
      </g>
     </g>
    </g>
    <g id="xtick_12">
     <g id="line2d_23">
      <path d="M 975.02039 301.717812 
L 975.02039 48.331875 
" clip-path="url(#p4b80b4ab22)" style="fill: none; stroke-dasharray: 2.96,1.28; stroke-dashoffset: 0; stroke: #b0b0b0; stroke-width: 0.8"/>
     </g>
     <g id="line2d_24">
      <g>
       <use xlink:href="#m17d14f52df" x="975.02039" y="301.717812" style="stroke: #000000; stroke-width: 0.8"/>
      </g>
     </g>
    </g>
   </g>
   <g id="matplotlib.axis_2">
    <g id="ytick_1">
     <g id="line2d_25">
      <path d="M 48.445313 298.885192 
L 982.876106 298.885192 
" clip-path="url(#p4b80b4ab22)" style="fill: none; stroke-dasharray: 2.96,1.28; stroke-dashoffset: 0; stroke: #b0b0b0; stroke-width: 0.8"/>
     </g>
     <g id="line2d_26">
      <defs>
       <path id="m29660f9964" d="M 0 0 
L -3.5 0 
" style="stroke: #000000; stroke-width: 0.8"/>
      </defs>
      <g>
       <use xlink:href="#m29660f9964" x="48.445313" y="298.885192" style="stroke: #000000; stroke-width: 0.8"/>
      </g>
     </g>
     <g id="text_1">
      <!-- 460 -->
      <g transform="translate(22.357813 302.684411)scale(0.1 -0.1)">
       <defs>
        <path id="DejaVuSans-34" d="M 2419 4116 
L 825 1625 
L 2419 1625 
L 2419 4116 
z
M 2253 4666 
L 3047 4666 
L 3047 1625 
L 3713 1625 
L 3713 1100 
L 3047 1100 
L 3047 0 
L 2419 0 
L 2419 1100 
L 313 1100 
L 313 1709 
L 2253 4666 
z
" transform="scale(0.015625)"/>
        <path id="DejaVuSans-36" d="M 2113 2584 
Q 1688 2584 1439 2293 
Q 1191 2003 1191 1497 
Q 1191 994 1439 701 
Q 1688 409 2113 409 
Q 2538 409 2786 701 
Q 3034 994 3034 1497 
Q 3034 2003 2786 2293 
Q 2538 2584 2113 2584 
z
M 3366 4563 
L 3366 3988 
Q 3128 4100 2886 4159 
Q 2644 4219 2406 4219 
Q 1781 4219 1451 3797 
Q 1122 3375 1075 2522 
Q 1259 2794 1537 2939 
Q 1816 3084 2150 3084 
Q 2853 3084 3261 2657 
Q 3669 2231 3669 1497 
Q 3669 778 3244 343 
Q 2819 -91 2113 -91 
Q 1303 -91 875 529 
Q 447 1150 447 2328 
Q 447 3434 972 4092 
Q 1497 4750 2381 4750 
Q 2619 4750 2861 4703 
Q 3103 4656 3366 4563 
z
" transform="scale(0.015625)"/>
        <path id="DejaVuSans-30" d="M 2034 4250 
Q 1547 4250 1301 3770 
Q 1056 3291 1056 2328 
Q 1056 1369 1301 889 
Q 1547 409 2034 409 
Q 2525 409 2770 889 
Q 3016 1369 3016 2328 
Q 3016 3291 2770 3770 
Q 2525 4250 2034 4250 
z
M 2034 4750 
Q 2819 4750 3233 4129 
Q 3647 3509 3647 2328 
Q 3647 1150 3233 529 
Q 2819 -91 2034 -91 
Q 1250 -91 836 529 
Q 422 1150 422 2328 
Q 422 3509 836 4129 
Q 1250 4750 2034 4750 
z
" transform="scale(0.015625)"/>
       </defs>
       <use xlink:href="#DejaVuSans-34"/>
       <use xlink:href="#DejaVuSans-36" x="63.623047"/>
       <use xlink:href="#DejaVuSans-30" x="127.246094"/>
      </g>
     </g>
    </g>
    <g id="ytick_2">
     <g id="line2d_27">
      <path d="M 48.445313 245.439518 
L 982.876106 245.439518 
" clip-path="url(#p4b80b4ab22)" style="fill: none; stroke-dasharray: 2.96,1.28; stroke-dashoffset: 0; stroke: #b0b0b0; stroke-width: 0.8"/>
     </g>
     <g id="line2d_28">
      <g>
       <use xlink:href="#m29660f9964" x="48.445313" y="245.439518" style="stroke: #000000; stroke-width: 0.8"/>
      </g>
     </g>
     <g id="text_2">
      <!-- 480 -->
      <g transform="translate(22.357813 249.238737)scale(0.1 -0.1)">
       <defs>
        <path id="DejaVuSans-38" d="M 2034 2216 
Q 1584 2216 1326 1975 
Q 1069 1734 1069 1313 
Q 1069 891 1326 650 
Q 1584 409 2034 409 
Q 2484 409 2743 651 
Q 3003 894 3003 1313 
Q 3003 1734 2745 1975 
Q 2488 2216 2034 2216 
z
M 1403 2484 
Q 997 2584 770 2862 
Q 544 3141 544 3541 
Q 544 4100 942 4425 
Q 1341 4750 2034 4750 
Q 2731 4750 3128 4425 
Q 3525 4100 3525 3541 
Q 3525 3141 3298 2862 
Q 3072 2584 2669 2484 
Q 3125 2378 3379 2068 
Q 3634 1759 3634 1313 
Q 3634 634 3220 271 
Q 2806 -91 2034 -91 
Q 1263 -91 848 271 
Q 434 634 434 1313 
Q 434 1759 690 2068 
Q 947 2378 1403 2484 
z
M 1172 3481 
Q 1172 3119 1398 2916 
Q 1625 2713 2034 2713 
Q 2441 2713 2670 2916 
Q 2900 3119 2900 3481 
Q 2900 3844 2670 4047 
Q 2441 4250 2034 4250 
Q 1625 4250 1398 4047 
Q 1172 3844 1172 3481 
z
" transform="scale(0.015625)"/>
       </defs>
       <use xlink:href="#DejaVuSans-34"/>
       <use xlink:href="#DejaVuSans-38" x="63.623047"/>
       <use xlink:href="#DejaVuSans-30" x="127.246094"/>
      </g>
     </g>
    </g>
    <g id="ytick_3">
     <g id="line2d_29">
      <path d="M 48.445313 191.993845 
L 982.876106 191.993845 
" clip-path="url(#p4b80b4ab22)" style="fill: none; stroke-dasharray: 2.96,1.28; stroke-dashoffset: 0; stroke: #b0b0b0; stroke-width: 0.8"/>
     </g>
     <g id="line2d_30">
      <g>
       <use xlink:href="#m29660f9964" x="48.445313" y="191.993845" style="stroke: #000000; stroke-width: 0.8"/>
      </g>
     </g>
     <g id="text_3">
      <!-- 500 -->
      <g transform="translate(22.357813 195.793064)scale(0.1 -0.1)">
       <defs>
        <path id="DejaVuSans-35" d="M 691 4666 
L 3169 4666 
L 3169 4134 
L 1269 4134 
L 1269 2991 
Q 1406 3038 1543 3061 
Q 1681 3084 1819 3084 
Q 2600 3084 3056 2656 
Q 3513 2228 3513 1497 
Q 3513 744 3044 326 
Q 2575 -91 1722 -91 
Q 1428 -91 1123 -41 
Q 819 9 494 109 
L 494 744 
Q 775 591 1075 516 
Q 1375 441 1709 441 
Q 2250 441 2565 725 
Q 2881 1009 2881 1497 
Q 2881 1984 2565 2268 
Q 2250 2553 1709 2553 
Q 1456 2553 1204 2497 
Q 953 2441 691 2322 
L 691 4666 
z
" transform="scale(0.015625)"/>
       </defs>
       <use xlink:href="#DejaVuSans-35"/>
       <use xlink:href="#DejaVuSans-30" x="63.623047"/>
       <use xlink:href="#DejaVuSans-30" x="127.246094"/>
      </g>
     </g>
    </g>
    <g id="ytick_4">
     <g id="line2d_31">
      <path d="M 48.445313 138.548172 
L 982.876106 138.548172 
" clip-path="url(#p4b80b4ab22)" style="fill: none; stroke-dasharray: 2.96,1.28; stroke-dashoffset: 0; stroke: #b0b0b0; stroke-width: 0.8"/>
     </g>
     <g id="line2d_32">
      <g>
       <use xlink:href="#m29660f9964" x="48.445313" y="138.548172" style="stroke: #000000; stroke-width: 0.8"/>
      </g>
     </g>
     <g id="text_4">
      <!-- 520 -->
      <g transform="translate(22.357813 142.34739)scale(0.1 -0.1)">
       <defs>
        <path id="DejaVuSans-32" d="M 1228 531 
L 3431 531 
L 3431 0 
L 469 0 
L 469 531 
Q 828 903 1448 1529 
Q 2069 2156 2228 2338 
Q 2531 2678 2651 2914 
Q 2772 3150 2772 3378 
Q 2772 3750 2511 3984 
Q 2250 4219 1831 4219 
Q 1534 4219 1204 4116 
Q 875 4013 500 3803 
L 500 4441 
Q 881 4594 1212 4672 
Q 1544 4750 1819 4750 
Q 2544 4750 2975 4387 
Q 3406 4025 3406 3419 
Q 3406 3131 3298 2873 
Q 3191 2616 2906 2266 
Q 2828 2175 2409 1742 
Q 1991 1309 1228 531 
z
" transform="scale(0.015625)"/>
       </defs>
       <use xlink:href="#DejaVuSans-35"/>
       <use xlink:href="#DejaVuSans-32" x="63.623047"/>
       <use xlink:href="#DejaVuSans-30" x="127.246094"/>
      </g>
     </g>
    </g>
    <g id="ytick_5">
     <g id="line2d_33">
      <path d="M 48.445313 85.102498 
L 982.876106 85.102498 
" clip-path="url(#p4b80b4ab22)" style="fill: none; stroke-dasharray: 2.96,1.28; stroke-dashoffset: 0; stroke: #b0b0b0; stroke-width: 0.8"/>
     </g>
     <g id="line2d_34">
      <g>
       <use xlink:href="#m29660f9964" x="48.445313" y="85.102498" style="stroke: #000000; stroke-width: 0.8"/>
      </g>
     </g>
     <g id="text_5">
      <!-- 540 -->
      <g transform="translate(22.357813 88.901717)scale(0.1 -0.1)">
       <use xlink:href="#DejaVuSans-35"/>
       <use xlink:href="#DejaVuSans-34" x="63.623047"/>
       <use xlink:href="#DejaVuSans-30" x="127.246094"/>
      </g>
     </g>
    </g>
   </g>
   <g id="line2d_35">
    <path d="M 90.919439 154.314645 
L 93.582394 186.515664 
L 96.245349 189.054333 
L 98.908303 185.847593 
L 101.571258 180.636639 
L 109.560122 175.826529 
L 112.223077 179.968569 
L 114.886031 181.037482 
L 117.548986 189.989632 
L 120.211941 193.196373 
L 128.200805 189.187947 
L 130.86376 217.246926 
L 133.526714 206.958634 
L 136.189669 224.72932 
L 138.852624 251.184928 
L 146.841488 268.421158 
L 149.504442 278.843064 
L 154.830352 290.20027 
L 157.493306 268.15393 
L 165.48217 238.625195 
L 168.145125 198.273712 
L 170.80808 177.830742 
L 173.471034 188.519876 
L 176.133989 163.801252 
L 184.122853 161.529811 
L 186.785808 176.4946 
L 189.448762 159.391984 
L 192.111717 171.818103 
L 194.774672 193.864444 
L 202.763536 219.251138 
L 205.42649 183.576151 
L 208.089445 191.459388 
L 210.7524 175.5593 
L 213.415354 179.300498 
L 221.404218 172.619788 
L 224.067173 177.697127 
L 226.730128 189.321561 
L 229.393082 236.22014 
L 232.056037 205.756106 
L 240.044901 152.711275 
L 245.37081 158.456685 
L 248.033765 162.465111 
L 250.69672 189.187947 
L 258.685584 240.495794 
L 261.348538 216.979697 
L 264.011493 211.768744 
L 266.674448 189.856018 
L 269.337402 171.818103 
L 277.326266 173.020631 
L 279.989221 161.396197 
L 282.652176 123.984226 
L 285.31513 127.591809 
L 295.966949 180.369411 
L 298.629904 213.104886 
L 301.292858 233.147014 
L 303.955813 239.026038 
L 306.618768 250.516857 
L 314.607632 259.602622 
L 319.933541 218.716682 
L 322.596496 182.106395 
L 325.25945 143.224668 
L 333.248314 111.558107 
L 335.911269 74.680592 
L 338.574224 135.074203 
L 341.237178 159.926441 
L 343.900133 144.427196 
L 351.888997 139.750699 
L 354.551952 144.159967 
L 357.214906 139.349857 
L 370.52968 144.293582 
L 373.192634 181.037482 
L 375.855589 163.534024 
L 378.518544 143.358282 
L 381.181498 129.996864 
L 389.170362 150.439834 
L 391.833317 111.02365 
L 394.496272 112.092563 
L 397.159226 78.154561 
L 399.822181 134.005289 
L 407.811045 130.798549 
L 413.136954 139.750699 
L 415.799909 139.216243 
L 418.462864 182.24001 
L 426.451728 220.186438 
L 429.114682 186.515664 
L 431.777637 187.317349 
L 434.440592 191.593002 
L 437.103546 191.860231 
L 445.09241 203.751893 
L 447.755365 183.84338 
L 450.41832 128.527108 
L 453.081274 163.934867 
L 455.744229 115.700146 
L 463.733093 107.416067 
L 466.396048 115.299304 
L 469.059002 133.738061 
L 471.721957 111.424492 
L 474.384912 122.247241 
L 482.373776 96.192476 
L 485.03673 102.0715 
L 487.699685 137.880101 
L 490.36264 144.56081 
L 493.025594 156.05163 
L 501.014459 157.922228 
L 503.677413 194.933357 
L 506.340368 215.242713 
L 509.003323 200.945995 
L 511.666277 211.902358 
L 519.655141 191.593002 
L 522.318096 192.528302 
L 524.981051 208.562004 
L 527.644005 232.612557 
L 530.30696 263.076591 
L 538.295824 232.345328 
L 540.958779 232.345328 
L 543.621733 242.366392 
L 546.284688 255.05974 
L 548.947643 239.560494 
L 556.936507 238.224353 
L 559.599461 222.457879 
L 562.262416 256.66311 
L 564.925371 251.051314 
L 567.588325 215.509941 
L 575.577189 193.329987 
L 578.240144 212.704043 
L 580.903099 195.066971 
L 583.566053 194.666129 
L 586.229008 181.972781 
L 594.217872 171.550875 
L 596.880827 191.993845 
L 599.543781 185.981207 
L 602.206736 172.486174 
L 604.869691 174.624001 
L 612.858555 170.74919 
L 615.521509 172.085332 
L 618.184464 156.853315 
L 620.847419 123.048926 
L 623.510373 108.618595 
L 631.499237 133.604447 
L 634.162192 170.882804 
L 636.825147 151.90959 
L 639.488101 153.245732 
L 642.151056 143.892739 
L 650.13992 130.264092 
L 652.802875 132.001077 
L 655.465829 137.345644 
L 658.128784 107.683295 
L 660.791739 139.349857 
L 668.780603 129.462407 
L 674.106512 164.469323 
L 676.769467 156.185244 
L 679.432421 164.602937 
L 690.08424 160.995354 
L 692.747195 158.055842 
L 695.410149 156.452472 
L 698.073104 149.370921 
L 706.061968 152.176818 
L 708.724923 157.254157 
L 711.387877 130.130478 
L 714.050832 145.362495 
L 716.713787 150.30622 
L 727.365605 123.583383 
L 732.691515 120.911099 
L 735.354469 129.061565 
L 743.343333 136.276731 
L 746.006288 137.21203 
L 748.669243 131.199392 
L 751.332197 134.138904 
L 753.995152 134.005289 
L 761.984016 132.401919 
L 764.646971 129.596021 
L 767.309925 100.601744 
L 769.97288 128.660722 
L 772.635835 168.878591 
L 780.624699 159.525598 
L 783.287653 119.174115 
L 785.950608 97.662232 
L 788.613563 59.849418 
L 791.276517 77.219261 
L 799.265381 121.846399 
L 801.928336 94.589105 
L 804.591291 65.327599 
L 807.254245 89.378152 
L 809.9172 90.847908 
L 817.906064 113.161477 
L 820.569019 122.247241 
L 825.894928 124.919525 
L 828.557883 135.074203 
L 836.546747 152.310433 
L 839.209701 173.688702 
L 841.872656 169.546662 
L 844.535611 150.439834 
L 847.198565 161.262583 
L 855.187429 154.715488 
L 857.850384 149.638149 
L 860.513339 146.565023 
L 863.176293 128.25988 
L 865.839248 140.819613 
L 873.828112 138.949014 
L 876.491067 148.168393 
L 881.816976 140.017928 
L 884.479931 141.35407 
L 892.468795 126.389281 
L 895.13175 108.084138 
L 897.794704 112.226178 
L 900.457659 86.037798 
L 903.120614 87.240325 
L 911.109478 178.899655 
L 916.435387 185.981207 
L 919.098342 181.171096 
L 921.761296 194.265286 
L 929.75016 193.196373 
L 932.413115 197.472027 
L 935.07607 209.630917 
L 937.739024 223.259564 
L 940.401979 229.138588 
L 940.401979 229.138588 
" clip-path="url(#p4b80b4ab22)" style="fill: none; stroke: #1f77b4; stroke-width: 1.5; stroke-linecap: square"/>
   </g>
   <g id="line2d_36">
    <path d="M 101.571258 179.273775 
L 109.560122 183.576151 
L 112.223077 182.266732 
L 114.886031 180.663362 
L 117.548986 181.49177 
L 120.211941 184.003717 
L 128.200805 186.676001 
L 130.86376 194.131672 
L 133.526714 199.315902 
L 136.189669 206.26384 
L 138.852624 217.861551 
L 146.841488 233.708193 
L 149.504442 246.027421 
L 157.493306 271.36067 
L 165.48217 268.848723 
L 168.145125 254.819234 
L 176.133989 193.410155 
L 184.122853 177.991079 
L 186.785808 173.635256 
L 189.448762 169.947505 
L 192.111717 166.60715 
L 194.774672 172.619788 
L 202.763536 184.164054 
L 205.42649 185.580364 
L 208.089445 191.993845 
L 210.7524 192.742084 
L 213.415354 189.829295 
L 221.404218 180.503025 
L 224.067173 179.32722 
L 226.730128 178.899655 
L 229.393082 191.031823 
L 232.056037 196.322945 
L 240.044901 192.341242 
L 245.37081 188.493153 
L 248.033765 183.121863 
L 250.69672 173.715425 
L 258.685584 180.663362 
L 261.348538 193.517047 
L 264.011493 204.179459 
L 266.674448 209.65764 
L 269.337402 206.183671 
L 277.326266 192.688639 
L 279.989221 181.571939 
L 282.652176 164.015035 
L 285.31513 151.562193 
L 295.966949 153.272455 
L 298.629904 161.289306 
L 301.292858 175.639469 
L 303.955813 198.647831 
L 306.618768 223.232841 
L 317.270586 244.210268 
L 319.933541 241.324202 
L 322.596496 229.940273 
L 325.25945 208.481835 
L 333.248314 178.872932 
L 335.911269 146.057289 
L 338.574224 129.328793 
L 341.237178 124.892802 
L 343.900133 125.133308 
L 351.888997 130.771826 
L 354.551952 144.667701 
L 357.214906 145.522832 
L 370.52968 142.39626 
L 373.192634 149.718317 
L 375.855589 154.474982 
L 378.518544 154.314645 
L 381.181498 152.444047 
L 389.170362 153.673297 
L 391.833317 139.670531 
L 394.496272 129.382239 
L 397.159226 116.341494 
L 399.822181 117.143179 
L 407.811045 113.214922 
L 413.136954 118.960332 
L 415.799909 124.385068 
L 418.462864 145.202158 
L 426.451728 162.438388 
L 429.114682 173.581811 
L 431.777637 183.09514 
L 434.440592 193.570492 
L 437.103546 195.494537 
L 445.09241 192.207628 
L 447.755365 191.673171 
L 450.41832 179.915123 
L 453.081274 174.383496 
L 455.744229 159.151479 
L 463.733093 139.884314 
L 466.396048 126.175498 
L 469.059002 127.217689 
L 471.721957 116.715614 
L 474.384912 118.025033 
L 482.373776 115.780315 
L 485.03673 113.134754 
L 487.699685 113.963162 
L 493.025594 127.351303 
L 501.014459 139.697254 
L 503.677413 158.269625 
L 506.340368 173.742148 
L 511.666277 196.18933 
L 519.655141 202.923485 
L 522.318096 202.442474 
L 524.981051 201.106332 
L 527.644005 207.439645 
L 530.30696 217.674491 
L 538.295824 225.824956 
L 540.958779 233.788362 
L 543.621733 240.549239 
L 546.284688 245.038676 
L 548.947643 240.335457 
L 556.936507 241.511261 
L 559.599461 239.533772 
L 562.262416 242.393115 
L 564.925371 241.59143 
L 567.588325 236.781319 
L 575.577189 227.802446 
L 578.240144 225.851679 
L 580.903099 213.532451 
L 583.566053 202.255414 
L 586.229008 195.547982 
L 594.217872 191.19216 
L 596.880827 187.05012 
L 599.543781 185.232967 
L 602.206736 180.796976 
L 604.869691 179.32722 
L 612.858555 179.166883 
L 615.521509 175.185181 
L 618.184464 169.359602 
L 620.847419 159.472153 
L 623.510373 146.271071 
L 631.499237 138.842123 
L 634.162192 138.601617 
L 636.825147 137.612872 
L 639.488101 143.652233 
L 642.151056 150.707062 
L 650.13992 150.038991 
L 652.802875 142.262646 
L 655.465829 139.349857 
L 658.128784 130.237369 
L 660.791739 129.328793 
L 668.780603 129.168456 
L 674.106512 135.662105 
L 676.769467 139.430025 
L 679.432421 150.813954 
L 690.08424 155.143053 
L 692.747195 160.86174 
L 695.410149 159.25837 
L 698.073104 157.895505 
L 708.724923 154.662042 
L 711.387877 149.076969 
L 714.050832 146.858974 
L 716.713787 147.046034 
L 724.702651 142.690211 
L 727.365605 135.956057 
L 732.691515 134.112181 
L 735.354469 130.851995 
L 743.343333 128.046097 
L 746.006288 129.408962 
L 748.669243 130.932163 
L 751.332197 133.577724 
L 753.995152 134.566469 
L 761.984016 133.791507 
L 764.646971 132.268305 
L 767.309925 126.148775 
L 769.97288 125.053139 
L 772.635835 132.0278 
L 780.624699 137.452535 
L 783.287653 135.368154 
L 785.950608 134.780252 
L 788.613563 121.017991 
L 791.276517 102.686125 
L 799.265381 95.150285 
L 801.928336 90.233283 
L 804.591291 83.766356 
L 807.254245 89.672103 
L 809.9172 92.397833 
L 817.906064 90.660848 
L 820.569019 96.192476 
L 825.894928 108.110861 
L 828.557883 117.250071 
L 836.546747 129.542576 
L 839.209701 141.648021 
L 841.872656 151.107905 
L 847.198565 161.449643 
L 855.187429 161.930654 
L 860.513339 152.524215 
L 863.176293 148.088224 
L 865.839248 143.99963 
L 873.828112 140.846336 
L 876.491067 140.552384 
L 881.816976 139.242965 
L 884.479931 141.861803 
L 892.468795 138.975737 
L 895.13175 132.802762 
L 897.794704 125.614319 
L 903.120614 103.995544 
L 911.109478 114.497619 
L 916.435387 130.077032 
L 919.098342 143.866016 
L 921.761296 165.511514 
L 929.75016 186.702723 
L 932.413115 190.417198 
L 935.07607 195.14714 
L 937.739024 203.564833 
L 940.401979 210.539494 
L 940.401979 210.539494 
" clip-path="url(#p4b80b4ab22)" style="fill: none; stroke: #ff7f0e; stroke-width: 1.5; stroke-linecap: square"/>
   </g>
   <g id="patch_3">
    <path d="M 48.445313 301.717813 
L 48.445313 48.331875 
" style="fill: none; stroke: #000000; stroke-width: 0.8; stroke-linejoin: miter; stroke-linecap: square"/>
   </g>
   <g id="patch_4">
    <path d="M 982.876106 301.717813 
L 982.876106 48.331875 
" style="fill: none; stroke: #000000; stroke-width: 0.8; stroke-linejoin: miter; stroke-linecap: square"/>
   </g>
   <g id="patch_5">
    <path d="M 48.445312 301.717812 
L 982.876106 301.717812 
" style="fill: none; stroke: #000000; stroke-width: 0.8; stroke-linejoin: miter; stroke-linecap: square"/>
   </g>
   <g id="patch_6">
    <path d="M 48.445312 48.331875 
L 982.876106 48.331875 
" style="fill: none; stroke: #000000; stroke-width: 0.8; stroke-linejoin: miter; stroke-linecap: square"/>
   </g>
   <g id="text_6">
    <!-- Closing Price -->
    <g transform="translate(477.184772 42.331875)scale(0.12 -0.12)">
     <defs>
      <path id="DejaVuSans-43" d="M 4122 4306 
L 4122 3641 
Q 3803 3938 3442 4084 
Q 3081 4231 2675 4231 
Q 1875 4231 1450 3742 
Q 1025 3253 1025 2328 
Q 1025 1406 1450 917 
Q 1875 428 2675 428 
Q 3081 428 3442 575 
Q 3803 722 4122 1019 
L 4122 359 
Q 3791 134 3420 21 
Q 3050 -91 2638 -91 
Q 1578 -91 968 557 
Q 359 1206 359 2328 
Q 359 3453 968 4101 
Q 1578 4750 2638 4750 
Q 3056 4750 3426 4639 
Q 3797 4528 4122 4306 
z
" transform="scale(0.015625)"/>
      <path id="DejaVuSans-6c" d="M 603 4863 
L 1178 4863 
L 1178 0 
L 603 0 
L 603 4863 
z
" transform="scale(0.015625)"/>
      <path id="DejaVuSans-6f" d="M 1959 3097 
Q 1497 3097 1228 2736 
Q 959 2375 959 1747 
Q 959 1119 1226 758 
Q 1494 397 1959 397 
Q 2419 397 2687 759 
Q 2956 1122 2956 1747 
Q 2956 2369 2687 2733 
Q 2419 3097 1959 3097 
z
M 1959 3584 
Q 2709 3584 3137 3096 
Q 3566 2609 3566 1747 
Q 3566 888 3137 398 
Q 2709 -91 1959 -91 
Q 1206 -91 779 398 
Q 353 888 353 1747 
Q 353 2609 779 3096 
Q 1206 3584 1959 3584 
z
" transform="scale(0.015625)"/>
      <path id="DejaVuSans-73" d="M 2834 3397 
L 2834 2853 
Q 2591 2978 2328 3040 
Q 2066 3103 1784 3103 
Q 1356 3103 1142 2972 
Q 928 2841 928 2578 
Q 928 2378 1081 2264 
Q 1234 2150 1697 2047 
L 1894 2003 
Q 2506 1872 2764 1633 
Q 3022 1394 3022 966 
Q 3022 478 2636 193 
Q 2250 -91 1575 -91 
Q 1294 -91 989 -36 
Q 684 19 347 128 
L 347 722 
Q 666 556 975 473 
Q 1284 391 1588 391 
Q 1994 391 2212 530 
Q 2431 669 2431 922 
Q 2431 1156 2273 1281 
Q 2116 1406 1581 1522 
L 1381 1569 
Q 847 1681 609 1914 
Q 372 2147 372 2553 
Q 372 3047 722 3315 
Q 1072 3584 1716 3584 
Q 2034 3584 2315 3537 
Q 2597 3491 2834 3397 
z
" transform="scale(0.015625)"/>
      <path id="DejaVuSans-69" d="M 603 3500 
L 1178 3500 
L 1178 0 
L 603 0 
L 603 3500 
z
M 603 4863 
L 1178 4863 
L 1178 4134 
L 603 4134 
L 603 4863 
z
" transform="scale(0.015625)"/>
      <path id="DejaVuSans-6e" d="M 3513 2113 
L 3513 0 
L 2938 0 
L 2938 2094 
Q 2938 2591 2744 2837 
Q 2550 3084 2163 3084 
Q 1697 3084 1428 2787 
Q 1159 2491 1159 1978 
L 1159 0 
L 581 0 
L 581 3500 
L 1159 3500 
L 1159 2956 
Q 1366 3272 1645 3428 
Q 1925 3584 2291 3584 
Q 2894 3584 3203 3211 
Q 3513 2838 3513 2113 
z
" transform="scale(0.015625)"/>
      <path id="DejaVuSans-67" d="M 2906 1791 
Q 2906 2416 2648 2759 
Q 2391 3103 1925 3103 
Q 1463 3103 1205 2759 
Q 947 2416 947 1791 
Q 947 1169 1205 825 
Q 1463 481 1925 481 
Q 2391 481 2648 825 
Q 2906 1169 2906 1791 
z
M 3481 434 
Q 3481 -459 3084 -895 
Q 2688 -1331 1869 -1331 
Q 1566 -1331 1297 -1286 
Q 1028 -1241 775 -1147 
L 775 -588 
Q 1028 -725 1275 -790 
Q 1522 -856 1778 -856 
Q 2344 -856 2625 -561 
Q 2906 -266 2906 331 
L 2906 616 
Q 2728 306 2450 153 
Q 2172 0 1784 0 
Q 1141 0 747 490 
Q 353 981 353 1791 
Q 353 2603 747 3093 
Q 1141 3584 1784 3584 
Q 2172 3584 2450 3431 
Q 2728 3278 2906 2969 
L 2906 3500 
L 3481 3500 
L 3481 434 
z
" transform="scale(0.015625)"/>
      <path id="DejaVuSans-20" transform="scale(0.015625)"/>
      <path id="DejaVuSans-50" d="M 1259 4147 
L 1259 2394 
L 2053 2394 
Q 2494 2394 2734 2622 
Q 2975 2850 2975 3272 
Q 2975 3691 2734 3919 
Q 2494 4147 2053 4147 
L 1259 4147 
z
M 628 4666 
L 2053 4666 
Q 2838 4666 3239 4311 
Q 3641 3956 3641 3272 
Q 3641 2581 3239 2228 
Q 2838 1875 2053 1875 
L 1259 1875 
L 1259 0 
L 628 0 
L 628 4666 
z
" transform="scale(0.015625)"/>
      <path id="DejaVuSans-72" d="M 2631 2963 
Q 2534 3019 2420 3045 
Q 2306 3072 2169 3072 
Q 1681 3072 1420 2755 
Q 1159 2438 1159 1844 
L 1159 0 
L 581 0 
L 581 3500 
L 1159 3500 
L 1159 2956 
Q 1341 3275 1631 3429 
Q 1922 3584 2338 3584 
Q 2397 3584 2469 3576 
Q 2541 3569 2628 3553 
L 2631 2963 
z
" transform="scale(0.015625)"/>
      <path id="DejaVuSans-63" d="M 3122 3366 
L 3122 2828 
Q 2878 2963 2633 3030 
Q 2388 3097 2138 3097 
Q 1578 3097 1268 2742 
Q 959 2388 959 1747 
Q 959 1106 1268 751 
Q 1578 397 2138 397 
Q 2388 397 2633 464 
Q 2878 531 3122 666 
L 3122 134 
Q 2881 22 2623 -34 
Q 2366 -91 2075 -91 
Q 1284 -91 818 406 
Q 353 903 353 1747 
Q 353 2603 823 3093 
Q 1294 3584 2113 3584 
Q 2378 3584 2631 3529 
Q 2884 3475 3122 3366 
z
" transform="scale(0.015625)"/>
      <path id="DejaVuSans-65" d="M 3597 1894 
L 3597 1613 
L 953 1613 
Q 991 1019 1311 708 
Q 1631 397 2203 397 
Q 2534 397 2845 478 
Q 3156 559 3463 722 
L 3463 178 
Q 3153 47 2828 -22 
Q 2503 -91 2169 -91 
Q 1331 -91 842 396 
Q 353 884 353 1716 
Q 353 2575 817 3079 
Q 1281 3584 2069 3584 
Q 2775 3584 3186 3129 
Q 3597 2675 3597 1894 
z
M 3022 2063 
Q 3016 2534 2758 2815 
Q 2500 3097 2075 3097 
Q 1594 3097 1305 2825 
Q 1016 2553 972 2059 
L 3022 2063 
z
" transform="scale(0.015625)"/>
     </defs>
     <use xlink:href="#DejaVuSans-43"/>
     <use xlink:href="#DejaVuSans-6c" x="69.824219"/>
     <use xlink:href="#DejaVuSans-6f" x="97.607422"/>
     <use xlink:href="#DejaVuSans-73" x="158.789062"/>
     <use xlink:href="#DejaVuSans-69" x="210.888672"/>
     <use xlink:href="#DejaVuSans-6e" x="238.671875"/>
     <use xlink:href="#DejaVuSans-67" x="302.050781"/>
     <use xlink:href="#DejaVuSans-20" x="365.527344"/>
     <use xlink:href="#DejaVuSans-50" x="397.314453"/>
     <use xlink:href="#DejaVuSans-72" x="455.867188"/>
     <use xlink:href="#DejaVuSans-69" x="496.980469"/>
     <use xlink:href="#DejaVuSans-63" x="524.763672"/>
     <use xlink:href="#DejaVuSans-65" x="579.744141"/>
    </g>
   </g>
   <g id="legend_1">
    <g id="patch_7">
     <path d="M 911.144856 85.688125 
L 975.876106 85.688125 
Q 977.876106 85.688125 977.876106 83.688125 
L 977.876106 55.331875 
Q 977.876106 53.331875 975.876106 53.331875 
L 911.144856 53.331875 
Q 909.144856 53.331875 909.144856 55.331875 
L 909.144856 83.688125 
Q 909.144856 85.688125 911.144856 85.688125 
z
" style="fill: #ffffff; opacity: 0.8; stroke: #cccccc; stroke-linejoin: miter"/>
    </g>
    <g id="line2d_37">
     <path d="M 913.144856 61.430312 
L 923.144856 61.430312 
L 933.144856 61.430312 
" style="fill: none; stroke: #1f77b4; stroke-width: 1.5; stroke-linecap: square"/>
    </g>
    <g id="text_7">
     <!-- CLOSE -->
     <g transform="translate(941.144856 64.930312)scale(0.1 -0.1)">
      <defs>
       <path id="DejaVuSans-4c" d="M 628 4666 
L 1259 4666 
L 1259 531 
L 3531 531 
L 3531 0 
L 628 0 
L 628 4666 
z
" transform="scale(0.015625)"/>
       <path id="DejaVuSans-4f" d="M 2522 4238 
Q 1834 4238 1429 3725 
Q 1025 3213 1025 2328 
Q 1025 1447 1429 934 
Q 1834 422 2522 422 
Q 3209 422 3611 934 
Q 4013 1447 4013 2328 
Q 4013 3213 3611 3725 
Q 3209 4238 2522 4238 
z
M 2522 4750 
Q 3503 4750 4090 4092 
Q 4678 3434 4678 2328 
Q 4678 1225 4090 567 
Q 3503 -91 2522 -91 
Q 1538 -91 948 565 
Q 359 1222 359 2328 
Q 359 3434 948 4092 
Q 1538 4750 2522 4750 
z
" transform="scale(0.015625)"/>
       <path id="DejaVuSans-53" d="M 3425 4513 
L 3425 3897 
Q 3066 4069 2747 4153 
Q 2428 4238 2131 4238 
Q 1616 4238 1336 4038 
Q 1056 3838 1056 3469 
Q 1056 3159 1242 3001 
Q 1428 2844 1947 2747 
L 2328 2669 
Q 3034 2534 3370 2195 
Q 3706 1856 3706 1288 
Q 3706 609 3251 259 
Q 2797 -91 1919 -91 
Q 1588 -91 1214 -16 
Q 841 59 441 206 
L 441 856 
Q 825 641 1194 531 
Q 1563 422 1919 422 
Q 2459 422 2753 634 
Q 3047 847 3047 1241 
Q 3047 1584 2836 1778 
Q 2625 1972 2144 2069 
L 1759 2144 
Q 1053 2284 737 2584 
Q 422 2884 422 3419 
Q 422 4038 858 4394 
Q 1294 4750 2059 4750 
Q 2388 4750 2728 4690 
Q 3069 4631 3425 4513 
z
" transform="scale(0.015625)"/>
       <path id="DejaVuSans-45" d="M 628 4666 
L 3578 4666 
L 3578 4134 
L 1259 4134 
L 1259 2753 
L 3481 2753 
L 3481 2222 
L 1259 2222 
L 1259 531 
L 3634 531 
L 3634 0 
L 628 0 
L 628 4666 
z
" transform="scale(0.015625)"/>
      </defs>
      <use xlink:href="#DejaVuSans-43"/>
      <use xlink:href="#DejaVuSans-4c" x="69.824219"/>
      <use xlink:href="#DejaVuSans-4f" x="121.912109"/>
      <use xlink:href="#DejaVuSans-53" x="200.623047"/>
      <use xlink:href="#DejaVuSans-45" x="264.099609"/>
     </g>
    </g>
    <g id="line2d_38">
     <path d="M 913.144856 76.108437 
L 923.144856 76.108437 
L 933.144856 76.108437 
" style="fill: none; stroke: #ff7f0e; stroke-width: 1.5; stroke-linecap: square"/>
    </g>
    <g id="text_8">
     <!-- SMA5 -->
     <g transform="translate(941.144856 79.608437)scale(0.1 -0.1)">
      <defs>
       <path id="DejaVuSans-4d" d="M 628 4666 
L 1569 4666 
L 2759 1491 
L 3956 4666 
L 4897 4666 
L 4897 0 
L 4281 0 
L 4281 4097 
L 3078 897 
L 2444 897 
L 1241 4097 
L 1241 0 
L 628 0 
L 628 4666 
z
" transform="scale(0.015625)"/>
       <path id="DejaVuSans-41" d="M 2188 4044 
L 1331 1722 
L 3047 1722 
L 2188 4044 
z
M 1831 4666 
L 2547 4666 
L 4325 0 
L 3669 0 
L 3244 1197 
L 1141 1197 
L 716 0 
L 50 0 
L 1831 4666 
z
" transform="scale(0.015625)"/>
      </defs>
      <use xlink:href="#DejaVuSans-53"/>
      <use xlink:href="#DejaVuSans-4d" x="63.476562"/>
      <use xlink:href="#DejaVuSans-41" x="149.755859"/>
      <use xlink:href="#DejaVuSans-35" x="218.164062"/>
     </g>
    </g>
   </g>
  </g>
  <g id="axes_2">
   <g id="patch_8">
    <path d="M 48.445313 584.521875 
L 982.876106 584.521875 
L 982.876106 331.135938 
L 48.445313 331.135938 
z
" style="fill: #ffffff"/>
   </g>
   <g id="matplotlib.axis_3">
    <g id="xtick_13">
     <g id="line2d_39">
      <path d="M 85.59353 584.521875 
L 85.59353 331.135938 
" clip-path="url(#p0d3b0247c1)" style="fill: none; stroke-dasharray: 2.96,1.28; stroke-dashoffset: 0; stroke: #b0b0b0; stroke-width: 0.8"/>
     </g>
     <g id="line2d_40">
      <g>
       <use xlink:href="#m17d14f52df" x="85.59353" y="584.521875" style="stroke: #000000; stroke-width: 0.8"/>
      </g>
     </g>
     <g id="text_9">
      <!-- 2022-01 -->
      <g transform="translate(64.702124 599.120312)scale(0.1 -0.1)">
       <defs>
        <path id="DejaVuSans-2d" d="M 313 2009 
L 1997 2009 
L 1997 1497 
L 313 1497 
L 313 2009 
z
" transform="scale(0.015625)"/>
        <path id="DejaVuSans-31" d="M 794 531 
L 1825 531 
L 1825 4091 
L 703 3866 
L 703 4441 
L 1819 4666 
L 2450 4666 
L 2450 531 
L 3481 531 
L 3481 0 
L 794 0 
L 794 531 
z
" transform="scale(0.015625)"/>
       </defs>
       <use xlink:href="#DejaVuSans-32"/>
       <use xlink:href="#DejaVuSans-30" x="63.623047"/>
       <use xlink:href="#DejaVuSans-32" x="127.246094"/>
       <use xlink:href="#DejaVuSans-32" x="190.869141"/>
       <use xlink:href="#DejaVuSans-2d" x="254.492188"/>
       <use xlink:href="#DejaVuSans-30" x="290.576172"/>
       <use xlink:href="#DejaVuSans-31" x="354.199219"/>
      </g>
     </g>
    </g>
    <g id="xtick_14">
     <g id="line2d_41">
      <path d="M 168.145125 584.521875 
L 168.145125 331.135938 
" clip-path="url(#p0d3b0247c1)" style="fill: none; stroke-dasharray: 2.96,1.28; stroke-dashoffset: 0; stroke: #b0b0b0; stroke-width: 0.8"/>
     </g>
     <g id="line2d_42">
      <g>
       <use xlink:href="#m17d14f52df" x="168.145125" y="584.521875" style="stroke: #000000; stroke-width: 0.8"/>
      </g>
     </g>
     <g id="text_10">
      <!-- 2022-02 -->
      <g transform="translate(147.253719 599.120312)scale(0.1 -0.1)">
       <use xlink:href="#DejaVuSans-32"/>
       <use xlink:href="#DejaVuSans-30" x="63.623047"/>
       <use xlink:href="#DejaVuSans-32" x="127.246094"/>
       <use xlink:href="#DejaVuSans-32" x="190.869141"/>
       <use xlink:href="#DejaVuSans-2d" x="254.492188"/>
       <use xlink:href="#DejaVuSans-30" x="290.576172"/>
       <use xlink:href="#DejaVuSans-32" x="354.199219"/>
      </g>
     </g>
    </g>
    <g id="xtick_15">
     <g id="line2d_43">
      <path d="M 242.707856 584.521875 
L 242.707856 331.135938 
" clip-path="url(#p0d3b0247c1)" style="fill: none; stroke-dasharray: 2.96,1.28; stroke-dashoffset: 0; stroke: #b0b0b0; stroke-width: 0.8"/>
     </g>
     <g id="line2d_44">
      <g>
       <use xlink:href="#m17d14f52df" x="242.707856" y="584.521875" style="stroke: #000000; stroke-width: 0.8"/>
      </g>
     </g>
     <g id="text_11">
      <!-- 2022-03 -->
      <g transform="translate(221.816449 599.120312)scale(0.1 -0.1)">
       <defs>
        <path id="DejaVuSans-33" d="M 2597 2516 
Q 3050 2419 3304 2112 
Q 3559 1806 3559 1356 
Q 3559 666 3084 287 
Q 2609 -91 1734 -91 
Q 1441 -91 1130 -33 
Q 819 25 488 141 
L 488 750 
Q 750 597 1062 519 
Q 1375 441 1716 441 
Q 2309 441 2620 675 
Q 2931 909 2931 1356 
Q 2931 1769 2642 2001 
Q 2353 2234 1838 2234 
L 1294 2234 
L 1294 2753 
L 1863 2753 
Q 2328 2753 2575 2939 
Q 2822 3125 2822 3475 
Q 2822 3834 2567 4026 
Q 2313 4219 1838 4219 
Q 1578 4219 1281 4162 
Q 984 4106 628 3988 
L 628 4550 
Q 988 4650 1302 4700 
Q 1616 4750 1894 4750 
Q 2613 4750 3031 4423 
Q 3450 4097 3450 3541 
Q 3450 3153 3228 2886 
Q 3006 2619 2597 2516 
z
" transform="scale(0.015625)"/>
       </defs>
       <use xlink:href="#DejaVuSans-32"/>
       <use xlink:href="#DejaVuSans-30" x="63.623047"/>
       <use xlink:href="#DejaVuSans-32" x="127.246094"/>
       <use xlink:href="#DejaVuSans-32" x="190.869141"/>
       <use xlink:href="#DejaVuSans-2d" x="254.492188"/>
       <use xlink:href="#DejaVuSans-30" x="290.576172"/>
       <use xlink:href="#DejaVuSans-33" x="354.199219"/>
      </g>
     </g>
    </g>
    <g id="xtick_16">
     <g id="line2d_45">
      <path d="M 325.25945 584.521875 
L 325.25945 331.135938 
" clip-path="url(#p0d3b0247c1)" style="fill: none; stroke-dasharray: 2.96,1.28; stroke-dashoffset: 0; stroke: #b0b0b0; stroke-width: 0.8"/>
     </g>
     <g id="line2d_46">
      <g>
       <use xlink:href="#m17d14f52df" x="325.25945" y="584.521875" style="stroke: #000000; stroke-width: 0.8"/>
      </g>
     </g>
     <g id="text_12">
      <!-- 2022-04 -->
      <g transform="translate(304.368044 599.120312)scale(0.1 -0.1)">
       <use xlink:href="#DejaVuSans-32"/>
       <use xlink:href="#DejaVuSans-30" x="63.623047"/>
       <use xlink:href="#DejaVuSans-32" x="127.246094"/>
       <use xlink:href="#DejaVuSans-32" x="190.869141"/>
       <use xlink:href="#DejaVuSans-2d" x="254.492188"/>
       <use xlink:href="#DejaVuSans-30" x="290.576172"/>
       <use xlink:href="#DejaVuSans-34" x="354.199219"/>
      </g>
     </g>
    </g>
    <g id="xtick_17">
     <g id="line2d_47">
      <path d="M 405.14809 584.521875 
L 405.14809 331.135938 
" clip-path="url(#p0d3b0247c1)" style="fill: none; stroke-dasharray: 2.96,1.28; stroke-dashoffset: 0; stroke: #b0b0b0; stroke-width: 0.8"/>
     </g>
     <g id="line2d_48">
      <g>
       <use xlink:href="#m17d14f52df" x="405.14809" y="584.521875" style="stroke: #000000; stroke-width: 0.8"/>
      </g>
     </g>
     <g id="text_13">
      <!-- 2022-05 -->
      <g transform="translate(384.256684 599.120312)scale(0.1 -0.1)">
       <use xlink:href="#DejaVuSans-32"/>
       <use xlink:href="#DejaVuSans-30" x="63.623047"/>
       <use xlink:href="#DejaVuSans-32" x="127.246094"/>
       <use xlink:href="#DejaVuSans-32" x="190.869141"/>
       <use xlink:href="#DejaVuSans-2d" x="254.492188"/>
       <use xlink:href="#DejaVuSans-30" x="290.576172"/>
       <use xlink:href="#DejaVuSans-35" x="354.199219"/>
      </g>
     </g>
    </g>
    <g id="xtick_18">
     <g id="line2d_49">
      <path d="M 487.699685 584.521875 
L 487.699685 331.135938 
" clip-path="url(#p0d3b0247c1)" style="fill: none; stroke-dasharray: 2.96,1.28; stroke-dashoffset: 0; stroke: #b0b0b0; stroke-width: 0.8"/>
     </g>
     <g id="line2d_50">
      <g>
       <use xlink:href="#m17d14f52df" x="487.699685" y="584.521875" style="stroke: #000000; stroke-width: 0.8"/>
      </g>
     </g>
     <g id="text_14">
      <!-- 2022-06 -->
      <g transform="translate(466.808279 599.120312)scale(0.1 -0.1)">
       <use xlink:href="#DejaVuSans-32"/>
       <use xlink:href="#DejaVuSans-30" x="63.623047"/>
       <use xlink:href="#DejaVuSans-32" x="127.246094"/>
       <use xlink:href="#DejaVuSans-32" x="190.869141"/>
       <use xlink:href="#DejaVuSans-2d" x="254.492188"/>
       <use xlink:href="#DejaVuSans-30" x="290.576172"/>
       <use xlink:href="#DejaVuSans-36" x="354.199219"/>
      </g>
     </g>
    </g>
    <g id="xtick_19">
     <g id="line2d_51">
      <path d="M 567.588325 584.521875 
L 567.588325 331.135938 
" clip-path="url(#p0d3b0247c1)" style="fill: none; stroke-dasharray: 2.96,1.28; stroke-dashoffset: 0; stroke: #b0b0b0; stroke-width: 0.8"/>
     </g>
     <g id="line2d_52">
      <g>
       <use xlink:href="#m17d14f52df" x="567.588325" y="584.521875" style="stroke: #000000; stroke-width: 0.8"/>
      </g>
     </g>
     <g id="text_15">
      <!-- 2022-07 -->
      <g transform="translate(546.696919 599.120312)scale(0.1 -0.1)">
       <defs>
        <path id="DejaVuSans-37" d="M 525 4666 
L 3525 4666 
L 3525 4397 
L 1831 0 
L 1172 0 
L 2766 4134 
L 525 4134 
L 525 4666 
z
" transform="scale(0.015625)"/>
       </defs>
       <use xlink:href="#DejaVuSans-32"/>
       <use xlink:href="#DejaVuSans-30" x="63.623047"/>
       <use xlink:href="#DejaVuSans-32" x="127.246094"/>
       <use xlink:href="#DejaVuSans-32" x="190.869141"/>
       <use xlink:href="#DejaVuSans-2d" x="254.492188"/>
       <use xlink:href="#DejaVuSans-30" x="290.576172"/>
       <use xlink:href="#DejaVuSans-37" x="354.199219"/>
      </g>
     </g>
    </g>
    <g id="xtick_20">
     <g id="line2d_53">
      <path d="M 650.13992 584.521875 
L 650.13992 331.135938 
" clip-path="url(#p0d3b0247c1)" style="fill: none; stroke-dasharray: 2.96,1.28; stroke-dashoffset: 0; stroke: #b0b0b0; stroke-width: 0.8"/>
     </g>
     <g id="line2d_54">
      <g>
       <use xlink:href="#m17d14f52df" x="650.13992" y="584.521875" style="stroke: #000000; stroke-width: 0.8"/>
      </g>
     </g>
     <g id="text_16">
      <!-- 2022-08 -->
      <g transform="translate(629.248514 599.120312)scale(0.1 -0.1)">
       <use xlink:href="#DejaVuSans-32"/>
       <use xlink:href="#DejaVuSans-30" x="63.623047"/>
       <use xlink:href="#DejaVuSans-32" x="127.246094"/>
       <use xlink:href="#DejaVuSans-32" x="190.869141"/>
       <use xlink:href="#DejaVuSans-2d" x="254.492188"/>
       <use xlink:href="#DejaVuSans-30" x="290.576172"/>
       <use xlink:href="#DejaVuSans-38" x="354.199219"/>
      </g>
     </g>
    </g>
    <g id="xtick_21">
     <g id="line2d_55">
      <path d="M 732.691515 584.521875 
L 732.691515 331.135938 
" clip-path="url(#p0d3b0247c1)" style="fill: none; stroke-dasharray: 2.96,1.28; stroke-dashoffset: 0; stroke: #b0b0b0; stroke-width: 0.8"/>
     </g>
     <g id="line2d_56">
      <g>
       <use xlink:href="#m17d14f52df" x="732.691515" y="584.521875" style="stroke: #000000; stroke-width: 0.8"/>
      </g>
     </g>
     <g id="text_17">
      <!-- 2022-09 -->
      <g transform="translate(711.800108 599.120312)scale(0.1 -0.1)">
       <defs>
        <path id="DejaVuSans-39" d="M 703 97 
L 703 672 
Q 941 559 1184 500 
Q 1428 441 1663 441 
Q 2288 441 2617 861 
Q 2947 1281 2994 2138 
Q 2813 1869 2534 1725 
Q 2256 1581 1919 1581 
Q 1219 1581 811 2004 
Q 403 2428 403 3163 
Q 403 3881 828 4315 
Q 1253 4750 1959 4750 
Q 2769 4750 3195 4129 
Q 3622 3509 3622 2328 
Q 3622 1225 3098 567 
Q 2575 -91 1691 -91 
Q 1453 -91 1209 -44 
Q 966 3 703 97 
z
M 1959 2075 
Q 2384 2075 2632 2365 
Q 2881 2656 2881 3163 
Q 2881 3666 2632 3958 
Q 2384 4250 1959 4250 
Q 1534 4250 1286 3958 
Q 1038 3666 1038 3163 
Q 1038 2656 1286 2365 
Q 1534 2075 1959 2075 
z
" transform="scale(0.015625)"/>
       </defs>
       <use xlink:href="#DejaVuSans-32"/>
       <use xlink:href="#DejaVuSans-30" x="63.623047"/>
       <use xlink:href="#DejaVuSans-32" x="127.246094"/>
       <use xlink:href="#DejaVuSans-32" x="190.869141"/>
       <use xlink:href="#DejaVuSans-2d" x="254.492188"/>
       <use xlink:href="#DejaVuSans-30" x="290.576172"/>
       <use xlink:href="#DejaVuSans-39" x="354.199219"/>
      </g>
     </g>
    </g>
    <g id="xtick_22">
     <g id="line2d_57">
      <path d="M 812.580155 584.521875 
L 812.580155 331.135938 
" clip-path="url(#p0d3b0247c1)" style="fill: none; stroke-dasharray: 2.96,1.28; stroke-dashoffset: 0; stroke: #b0b0b0; stroke-width: 0.8"/>
     </g>
     <g id="line2d_58">
      <g>
       <use xlink:href="#m17d14f52df" x="812.580155" y="584.521875" style="stroke: #000000; stroke-width: 0.8"/>
      </g>
     </g>
     <g id="text_18">
      <!-- 2022-10 -->
      <g transform="translate(791.688749 599.120312)scale(0.1 -0.1)">
       <use xlink:href="#DejaVuSans-32"/>
       <use xlink:href="#DejaVuSans-30" x="63.623047"/>
       <use xlink:href="#DejaVuSans-32" x="127.246094"/>
       <use xlink:href="#DejaVuSans-32" x="190.869141"/>
       <use xlink:href="#DejaVuSans-2d" x="254.492188"/>
       <use xlink:href="#DejaVuSans-31" x="290.576172"/>
       <use xlink:href="#DejaVuSans-30" x="354.199219"/>
      </g>
     </g>
    </g>
    <g id="xtick_23">
     <g id="line2d_59">
      <path d="M 895.13175 584.521875 
L 895.13175 331.135938 
" clip-path="url(#p0d3b0247c1)" style="fill: none; stroke-dasharray: 2.96,1.28; stroke-dashoffset: 0; stroke: #b0b0b0; stroke-width: 0.8"/>
     </g>
     <g id="line2d_60">
      <g>
       <use xlink:href="#m17d14f52df" x="895.13175" y="584.521875" style="stroke: #000000; stroke-width: 0.8"/>
      </g>
     </g>
     <g id="text_19">
      <!-- 2022-11 -->
      <g transform="translate(874.240343 599.120312)scale(0.1 -0.1)">
       <use xlink:href="#DejaVuSans-32"/>
       <use xlink:href="#DejaVuSans-30" x="63.623047"/>
       <use xlink:href="#DejaVuSans-32" x="127.246094"/>
       <use xlink:href="#DejaVuSans-32" x="190.869141"/>
       <use xlink:href="#DejaVuSans-2d" x="254.492188"/>
       <use xlink:href="#DejaVuSans-31" x="290.576172"/>
       <use xlink:href="#DejaVuSans-31" x="354.199219"/>
      </g>
     </g>
    </g>
    <g id="xtick_24">
     <g id="line2d_61">
      <path d="M 975.02039 584.521875 
L 975.02039 331.135938 
" clip-path="url(#p0d3b0247c1)" style="fill: none; stroke-dasharray: 2.96,1.28; stroke-dashoffset: 0; stroke: #b0b0b0; stroke-width: 0.8"/>
     </g>
     <g id="line2d_62">
      <g>
       <use xlink:href="#m17d14f52df" x="975.02039" y="584.521875" style="stroke: #000000; stroke-width: 0.8"/>
      </g>
     </g>
     <g id="text_20">
      <!-- 2022-12 -->
      <g transform="translate(954.128983 599.120312)scale(0.1 -0.1)">
       <use xlink:href="#DejaVuSans-32"/>
       <use xlink:href="#DejaVuSans-30" x="63.623047"/>
       <use xlink:href="#DejaVuSans-32" x="127.246094"/>
       <use xlink:href="#DejaVuSans-32" x="190.869141"/>
       <use xlink:href="#DejaVuSans-2d" x="254.492188"/>
       <use xlink:href="#DejaVuSans-31" x="290.576172"/>
       <use xlink:href="#DejaVuSans-32" x="354.199219"/>
      </g>
     </g>
    </g>
   </g>
   <g id="matplotlib.axis_4">
    <g id="ytick_6">
     <g id="line2d_63">
      <path d="M 48.445313 579.086027 
L 982.876106 579.086027 
" clip-path="url(#p0d3b0247c1)" style="fill: none; stroke-dasharray: 2.96,1.28; stroke-dashoffset: 0; stroke: #b0b0b0; stroke-width: 0.8"/>
     </g>
     <g id="line2d_64">
      <g>
       <use xlink:href="#m29660f9964" x="48.445313" y="579.086027" style="stroke: #000000; stroke-width: 0.8"/>
      </g>
     </g>
     <g id="text_21">
      <!-- −10.0 -->
      <g transform="translate(10.8 582.885246)scale(0.1 -0.1)">
       <defs>
        <path id="DejaVuSans-2212" d="M 678 2272 
L 4684 2272 
L 4684 1741 
L 678 1741 
L 678 2272 
z
" transform="scale(0.015625)"/>
        <path id="DejaVuSans-2e" d="M 684 794 
L 1344 794 
L 1344 0 
L 684 0 
L 684 794 
z
" transform="scale(0.015625)"/>
       </defs>
       <use xlink:href="#DejaVuSans-2212"/>
       <use xlink:href="#DejaVuSans-31" x="83.789062"/>
       <use xlink:href="#DejaVuSans-30" x="147.412109"/>
       <use xlink:href="#DejaVuSans-2e" x="211.035156"/>
       <use xlink:href="#DejaVuSans-30" x="242.822266"/>
      </g>
     </g>
    </g>
    <g id="ytick_7">
     <g id="line2d_65">
      <path d="M 48.445313 544.228679 
L 982.876106 544.228679 
" clip-path="url(#p0d3b0247c1)" style="fill: none; stroke-dasharray: 2.96,1.28; stroke-dashoffset: 0; stroke: #b0b0b0; stroke-width: 0.8"/>
     </g>
     <g id="line2d_66">
      <g>
       <use xlink:href="#m29660f9964" x="48.445313" y="544.228679" style="stroke: #000000; stroke-width: 0.8"/>
      </g>
     </g>
     <g id="text_22">
      <!-- −7.5 -->
      <g transform="translate(17.1625 548.027897)scale(0.1 -0.1)">
       <use xlink:href="#DejaVuSans-2212"/>
       <use xlink:href="#DejaVuSans-37" x="83.789062"/>
       <use xlink:href="#DejaVuSans-2e" x="147.412109"/>
       <use xlink:href="#DejaVuSans-35" x="179.199219"/>
      </g>
     </g>
    </g>
    <g id="ytick_8">
     <g id="line2d_67">
      <path d="M 48.445313 509.37133 
L 982.876106 509.37133 
" clip-path="url(#p0d3b0247c1)" style="fill: none; stroke-dasharray: 2.96,1.28; stroke-dashoffset: 0; stroke: #b0b0b0; stroke-width: 0.8"/>
     </g>
     <g id="line2d_68">
      <g>
       <use xlink:href="#m29660f9964" x="48.445313" y="509.37133" style="stroke: #000000; stroke-width: 0.8"/>
      </g>
     </g>
     <g id="text_23">
      <!-- −5.0 -->
      <g transform="translate(17.1625 513.170548)scale(0.1 -0.1)">
       <use xlink:href="#DejaVuSans-2212"/>
       <use xlink:href="#DejaVuSans-35" x="83.789062"/>
       <use xlink:href="#DejaVuSans-2e" x="147.412109"/>
       <use xlink:href="#DejaVuSans-30" x="179.199219"/>
      </g>
     </g>
    </g>
    <g id="ytick_9">
     <g id="line2d_69">
      <path d="M 48.445313 474.513981 
L 982.876106 474.513981 
" clip-path="url(#p0d3b0247c1)" style="fill: none; stroke-dasharray: 2.96,1.28; stroke-dashoffset: 0; stroke: #b0b0b0; stroke-width: 0.8"/>
     </g>
     <g id="line2d_70">
      <g>
       <use xlink:href="#m29660f9964" x="48.445313" y="474.513981" style="stroke: #000000; stroke-width: 0.8"/>
      </g>
     </g>
     <g id="text_24">
      <!-- −2.5 -->
      <g transform="translate(17.1625 478.3132)scale(0.1 -0.1)">
       <use xlink:href="#DejaVuSans-2212"/>
       <use xlink:href="#DejaVuSans-32" x="83.789062"/>
       <use xlink:href="#DejaVuSans-2e" x="147.412109"/>
       <use xlink:href="#DejaVuSans-35" x="179.199219"/>
      </g>
     </g>
    </g>
    <g id="ytick_10">
     <g id="line2d_71">
      <path d="M 48.445313 439.656632 
L 982.876106 439.656632 
" clip-path="url(#p0d3b0247c1)" style="fill: none; stroke-dasharray: 2.96,1.28; stroke-dashoffset: 0; stroke: #b0b0b0; stroke-width: 0.8"/>
     </g>
     <g id="line2d_72">
      <g>
       <use xlink:href="#m29660f9964" x="48.445313" y="439.656632" style="stroke: #000000; stroke-width: 0.8"/>
      </g>
     </g>
     <g id="text_25">
      <!-- 0.0 -->
      <g transform="translate(25.542188 443.455851)scale(0.1 -0.1)">
       <use xlink:href="#DejaVuSans-30"/>
       <use xlink:href="#DejaVuSans-2e" x="63.623047"/>
       <use xlink:href="#DejaVuSans-30" x="95.410156"/>
      </g>
     </g>
    </g>
    <g id="ytick_11">
     <g id="line2d_73">
      <path d="M 48.445313 404.799283 
L 982.876106 404.799283 
" clip-path="url(#p0d3b0247c1)" style="fill: none; stroke-dasharray: 2.96,1.28; stroke-dashoffset: 0; stroke: #b0b0b0; stroke-width: 0.8"/>
     </g>
     <g id="line2d_74">
      <g>
       <use xlink:href="#m29660f9964" x="48.445313" y="404.799283" style="stroke: #000000; stroke-width: 0.8"/>
      </g>
     </g>
     <g id="text_26">
      <!-- 2.5 -->
      <g transform="translate(25.542188 408.598502)scale(0.1 -0.1)">
       <use xlink:href="#DejaVuSans-32"/>
       <use xlink:href="#DejaVuSans-2e" x="63.623047"/>
       <use xlink:href="#DejaVuSans-35" x="95.410156"/>
      </g>
     </g>
    </g>
    <g id="ytick_12">
     <g id="line2d_75">
      <path d="M 48.445313 369.941934 
L 982.876106 369.941934 
" clip-path="url(#p0d3b0247c1)" style="fill: none; stroke-dasharray: 2.96,1.28; stroke-dashoffset: 0; stroke: #b0b0b0; stroke-width: 0.8"/>
     </g>
     <g id="line2d_76">
      <g>
       <use xlink:href="#m29660f9964" x="48.445313" y="369.941934" style="stroke: #000000; stroke-width: 0.8"/>
      </g>
     </g>
     <g id="text_27">
      <!-- 5.0 -->
      <g transform="translate(25.542188 373.741153)scale(0.1 -0.1)">
       <use xlink:href="#DejaVuSans-35"/>
       <use xlink:href="#DejaVuSans-2e" x="63.623047"/>
       <use xlink:href="#DejaVuSans-30" x="95.410156"/>
      </g>
     </g>
    </g>
    <g id="ytick_13">
     <g id="line2d_77">
      <path d="M 48.445313 335.084585 
L 982.876106 335.084585 
" clip-path="url(#p0d3b0247c1)" style="fill: none; stroke-dasharray: 2.96,1.28; stroke-dashoffset: 0; stroke: #b0b0b0; stroke-width: 0.8"/>
     </g>
     <g id="line2d_78">
      <g>
       <use xlink:href="#m29660f9964" x="48.445313" y="335.084585" style="stroke: #000000; stroke-width: 0.8"/>
      </g>
     </g>
     <g id="text_28">
      <!-- 7.5 -->
      <g transform="translate(25.542188 338.883804)scale(0.1 -0.1)">
       <use xlink:href="#DejaVuSans-37"/>
       <use xlink:href="#DejaVuSans-2e" x="63.623047"/>
       <use xlink:href="#DejaVuSans-35" x="95.410156"/>
      </g>
     </g>
    </g>
   </g>
   <g id="line2d_79">
    <path d="M 90.919439 439.656632 
L 93.582394 443.426141 
L 96.245349 444.870486 
L 98.908303 444.795539 
L 101.571258 443.564725 
L 109.560122 441.678204 
L 112.223077 441.412579 
L 114.886031 441.471486 
L 120.211941 446.256825 
L 128.200805 446.823888 
L 130.86376 455.184061 
L 133.526714 458.145911 
L 136.189669 465.496487 
L 138.852624 478.901458 
L 146.841488 494.034147 
L 149.504442 508.265236 
L 154.830352 522.057872 
L 157.493306 524.276391 
L 165.48217 514.92226 
L 168.145125 492.863845 
L 170.80808 467.997411 
L 173.471034 452.165352 
L 176.133989 430.85486 
L 184.122853 413.562802 
L 186.785808 405.890147 
L 189.448762 393.981485 
L 192.111717 389.864286 
L 194.774672 395.523028 
L 202.763536 410.073247 
L 205.42649 408.166516 
L 208.089445 410.0687 
L 210.7524 405.753954 
L 213.415354 404.225157 
L 221.404218 400.829047 
L 224.067173 400.611776 
L 226.730128 405.472064 
L 229.393082 428.225892 
L 232.056037 434.064551 
L 240.044901 417.556213 
L 245.37081 407.18451 
L 248.033765 401.044775 
L 250.69672 407.427433 
L 258.685584 433.481577 
L 261.348538 444.449555 
L 264.011493 450.872893 
L 266.674448 446.881209 
L 269.337402 436.337737 
L 277.326266 428.607987 
L 279.989221 417.937593 
L 282.652176 394.541961 
L 285.31513 378.208657 
L 295.966949 387.739059 
L 298.629904 409.224147 
L 301.292858 434.630806 
L 306.618768 479.063453 
L 317.270586 506.472684 
L 319.933541 502.802554 
L 322.596496 484.098405 
L 325.25945 452.882675 
L 333.248314 415.193279 
L 335.911269 370.700804 
L 338.574224 361.611648 
L 341.237178 365.665476 
L 343.900133 363.268705 
L 351.888997 360.325433 
L 354.551952 360.751121 
L 357.214906 359.990889 
L 370.52968 362.353321 
L 373.192634 380.323406 
L 375.855589 387.817726 
L 378.518544 385.908849 
L 381.181498 379.480947 
L 389.170362 383.617056 
L 391.833317 371.131268 
L 394.496272 362.574339 
L 397.159226 342.65348 
L 399.822181 351.35259 
L 407.811045 357.842303 
L 413.136954 367.579108 
L 415.799909 375.807002 
L 418.462864 400.86247 
L 426.451728 436.707567 
L 429.114682 450.827431 
L 431.777637 462.095804 
L 434.440592 472.446136 
L 437.103546 480.292653 
L 445.09241 490.922011 
L 447.755365 490.386141 
L 450.41832 466.382386 
L 453.081274 461.998344 
L 455.744229 438.246157 
L 463.733093 416.207262 
L 466.396048 402.486979 
L 469.059002 399.83166 
L 471.721957 388.922403 
L 474.384912 385.456114 
L 482.373776 372.518157 
L 485.03673 365.592803 
L 487.699685 375.909915 
L 490.36264 387.499297 
L 493.025594 401.954898 
L 501.014459 414.488494 
L 503.677413 439.995723 
L 506.340368 468.427164 
L 511.666277 501.008583 
L 519.655141 504.850425 
L 522.318096 507.506656 
L 524.981051 515.486928 
L 527.644005 530.883843 
L 530.30696 554.58519 
L 538.295824 559.055577 
L 540.958779 561.197312 
L 543.621733 565.660692 
L 546.284688 573.004332 
L 548.947643 570.787772 
L 556.936507 567.000681 
L 559.599461 556.020588 
L 562.262416 560.327645 
L 564.925371 559.991361 
L 567.588325 543.564503 
L 575.577189 520.279154 
L 578.240144 509.180282 
L 580.903099 492.351781 
L 583.566053 478.399717 
L 586.229008 461.744116 
L 594.217872 444.105531 
L 596.880827 438.743872 
L 599.543781 432.051056 
L 602.206736 421.277361 
L 604.869691 413.935665 
L 612.858555 406.864017 
L 615.521509 402.253375 
L 618.184464 392.727587 
L 623.510373 350.045936 
L 631.499237 344.478054 
L 634.162192 356.716124 
L 636.825147 359.352652 
L 639.488101 362.889574 
L 642.151056 362.642663 
L 650.13992 357.65443 
L 652.802875 355.403729 
L 655.465829 356.824998 
L 658.128784 346.536554 
L 660.791739 352.717127 
L 668.780603 354.434907 
L 674.106512 371.322383 
L 676.769467 381.884079 
L 679.432421 394.320873 
L 690.08424 403.07991 
L 692.747195 409.135756 
L 695.410149 413.56083 
L 698.073104 414.377691 
L 706.061968 416.473625 
L 708.724923 420.493212 
L 711.387877 412.571483 
L 714.050832 413.013505 
L 716.713787 415.721113 
L 724.702651 409.828939 
L 727.365605 402.716232 
L 732.691515 396.452319 
L 735.354469 395.429427 
L 743.343333 398.135118 
L 746.006288 401.11743 
L 748.669243 401.390618 
L 753.995152 405.09125 
L 761.984016 406.249241 
L 764.646971 406.369342 
L 767.309925 394.774806 
L 769.97288 397.880928 
L 772.635835 417.530028 
L 780.624699 429.28388 
L 783.287653 421.815879 
L 785.950608 407.214532 
L 788.613563 380.406015 
L 791.276517 367.307078 
L 799.265381 376.443558 
L 801.928336 372.977128 
L 804.591291 358.841936 
L 807.254245 358.698631 
L 809.9172 360.120694 
L 817.906064 371.428581 
L 820.569019 384.847238 
L 825.894928 397.097296 
L 828.557883 411.406503 
L 836.546747 430.113415 
L 839.209701 453.776637 
L 841.872656 470.431289 
L 844.535611 475.176459 
L 847.198565 482.994042 
L 855.187429 485.900025 
L 857.850384 485.536514 
L 860.513339 483.449769 
L 863.176293 473.696827 
L 865.839248 470.895318 
L 873.828112 467.565828 
L 876.491067 468.476486 
L 881.816976 465.46915 
L 884.479931 463.374943 
L 892.468795 455.235249 
L 895.13175 441.0615 
L 897.794704 431.664699 
L 900.457659 413.49349 
L 903.120614 400.055458 
L 911.109478 428.128803 
L 916.435387 453.202441 
L 919.098342 470.690599 
L 921.761296 489.488543 
L 929.75016 503.20349 
L 932.413115 515.004249 
L 935.07607 528.451966 
L 937.739024 543.648526 
L 940.401979 556.816536 
L 940.401979 556.816536 
" clip-path="url(#p0d3b0247c1)" style="fill: none; stroke: #1f77b4; stroke-width: 1.5; stroke-linecap: square"/>
   </g>
   <g id="line2d_80">
    <path d="M 90.919439 439.656632 
L 93.582394 441.750804 
L 96.245349 443.029362 
L 98.908303 443.627661 
L 101.571258 443.608939 
L 109.560122 443.085602 
L 112.223077 442.662205 
L 114.886031 442.376053 
L 117.548986 442.705467 
L 120.211941 443.501178 
L 128.200805 444.228168 
L 133.526714 449.028564 
L 136.189669 452.473666 
L 138.852624 457.951975 
L 146.841488 465.377417 
L 149.504442 474.15258 
L 154.830352 483.909402 
L 157.493306 492.100851 
L 165.48217 496.718369 
L 168.145125 495.940288 
L 170.80808 490.31017 
L 173.471034 482.635905 
L 176.133989 472.230558 
L 184.122853 460.452511 
L 189.448762 438.374947 
L 192.111717 428.654012 
L 194.774672 422.017546 
L 202.763536 419.625725 
L 205.42649 417.331611 
L 208.089445 415.877877 
L 213.415354 411.925501 
L 221.404218 409.70531 
L 224.067173 407.886013 
L 226.730128 407.403098 
L 229.393082 411.568522 
L 232.056037 416.068475 
L 240.044901 416.366062 
L 245.37081 414.529557 
L 248.033765 411.832371 
L 250.69672 410.951323 
L 258.685584 415.457619 
L 264.011493 427.179792 
L 266.674448 431.120185 
L 269.337402 432.163719 
L 277.326266 431.45256 
L 279.989221 428.749528 
L 282.652176 421.907937 
L 285.31513 413.168001 
L 295.966949 408.082175 
L 298.629904 408.310571 
L 301.292858 413.574643 
L 303.955813 422.261024 
L 306.618768 433.621544 
L 314.607632 446.82392 
L 317.270586 458.753696 
L 319.933541 467.563481 
L 322.596496 470.87047 
L 325.25945 467.272907 
L 333.248314 456.856973 
L 335.911269 439.625729 
L 338.574224 424.022905 
L 341.237178 412.351414 
L 343.900133 402.534869 
L 351.888997 394.09298 
L 354.551952 387.424607 
L 357.214906 381.937862 
L 370.52968 378.020953 
L 373.192634 378.481444 
L 375.855589 380.348701 
L 378.518544 381.46073 
L 381.181498 381.064774 
L 389.170362 381.57523 
L 391.833317 379.486437 
L 394.496272 376.104018 
L 397.159226 369.41391 
L 399.822181 365.801646 
L 407.811045 364.209777 
L 413.136954 364.883643 
L 415.799909 367.068315 
L 418.462864 373.827146 
L 426.451728 386.40323 
L 431.777637 411.849617 
L 434.440592 423.968921 
L 437.103546 435.233667 
L 445.09241 446.371336 
L 447.755365 455.174297 
L 450.41832 457.415915 
L 453.081274 458.332401 
L 455.744229 454.315152 
L 463.733093 446.693574 
L 466.396048 437.852255 
L 469.059002 430.248136 
L 471.721957 421.982989 
L 474.384912 414.677614 
L 482.373776 406.245723 
L 485.03673 398.115139 
L 487.699685 393.674094 
L 490.36264 392.439135 
L 493.025594 394.342287 
L 501.014459 398.371529 
L 503.677413 406.696368 
L 506.340368 419.042527 
L 509.003323 432.11909 
L 511.666277 445.896989 
L 519.655141 457.687676 
L 527.644005 487.951619 
L 530.30696 501.278333 
L 538.295824 512.833782 
L 540.958779 522.506488 
L 546.284688 539.51073 
L 548.947643 545.766138 
L 556.936507 550.013047 
L 559.599461 551.214555 
L 562.262416 553.037173 
L 564.925371 554.428011 
L 575.577189 545.860078 
L 578.240144 538.524119 
L 580.903099 529.289651 
L 583.566053 519.111664 
L 586.229008 507.638155 
L 594.217872 494.93163 
L 596.880827 483.694078 
L 604.869691 453.145414 
L 612.858555 443.889135 
L 618.184464 426.995104 
L 620.847419 415.94197 
L 623.510373 402.762763 
L 631.499237 391.105821 
L 634.162192 384.227882 
L 636.825147 379.252836 
L 639.488101 375.980184 
L 642.151056 373.312679 
L 650.13992 370.18103 
L 652.802875 367.22557 
L 655.465829 365.145455 
L 658.128784 361.423675 
L 660.791739 359.682365 
L 668.780603 358.632874 
L 674.106512 361.170776 
L 676.769467 365.313436 
L 679.432421 371.114924 
L 690.08424 377.507921 
L 692.747195 383.833488 
L 695.410149 389.778956 
L 698.073104 394.698703 
L 706.061968 399.053688 
L 708.724923 403.341592 
L 711.387877 405.18757 
L 714.050832 406.752757 
L 716.713787 408.546429 
L 724.702651 408.802931 
L 727.365605 407.585591 
L 732.691515 405.358937 
L 735.354469 403.373035 
L 746.006288 402.083847 
L 748.669243 401.945201 
L 751.332197 402.209004 
L 753.995152 402.785453 
L 761.984016 403.478211 
L 764.646971 404.056437 
L 767.309925 402.200111 
L 769.97288 401.336274 
L 772.635835 404.575025 
L 780.624699 409.516796 
L 783.287653 411.976613 
L 785.950608 411.024197 
L 788.613563 404.90056 
L 791.276517 397.381864 
L 799.265381 393.194203 
L 801.928336 389.150788 
L 804.591291 383.089017 
L 807.254245 378.21094 
L 809.9172 374.592891 
L 817.906064 373.960029 
L 820.569019 376.137471 
L 825.894928 380.329436 
L 828.557883 386.544849 
L 836.546747 395.258562 
L 839.209701 406.962177 
L 841.872656 419.656 
L 844.535611 430.760092 
L 847.198565 441.206882 
L 855.187429 450.14551 
L 857.850384 457.223711 
L 860.513339 462.468923 
L 863.176293 464.714504 
L 865.839248 465.950667 
L 873.828112 466.273699 
L 876.491067 466.714256 
L 881.816976 466.465235 
L 884.479931 465.847177 
L 892.468795 463.724791 
L 895.13175 459.192133 
L 897.794704 453.686646 
L 900.457659 445.648015 
L 903.120614 436.529503 
L 911.109478 434.849363 
L 916.435387 438.519979 
L 919.098342 444.954103 
L 921.761296 453.860991 
L 929.75016 463.729491 
L 932.413115 473.984442 
L 935.07607 484.877947 
L 940.401979 508.668958 
L 940.401979 508.668958 
" clip-path="url(#p0d3b0247c1)" style="fill: none; stroke: #ff7f0e; stroke-width: 1.5; stroke-linecap: square"/>
   </g>
   <g id="patch_9">
    <path d="M 48.445313 584.521875 
L 48.445313 331.135937 
" style="fill: none; stroke: #000000; stroke-width: 0.8; stroke-linejoin: miter; stroke-linecap: square"/>
   </g>
   <g id="patch_10">
    <path d="M 982.876106 584.521875 
L 982.876106 331.135937 
" style="fill: none; stroke: #000000; stroke-width: 0.8; stroke-linejoin: miter; stroke-linecap: square"/>
   </g>
   <g id="patch_11">
    <path d="M 48.445312 584.521875 
L 982.876106 584.521875 
" style="fill: none; stroke: #000000; stroke-width: 0.8; stroke-linejoin: miter; stroke-linecap: square"/>
   </g>
   <g id="patch_12">
    <path d="M 48.445312 331.135938 
L 982.876106 331.135938 
" style="fill: none; stroke: #000000; stroke-width: 0.8; stroke-linejoin: miter; stroke-linecap: square"/>
   </g>
   <g id="text_29">
    <!-- MACD -->
    <g transform="translate(497.674772 325.135938)scale(0.12 -0.12)">
     <defs>
      <path id="DejaVuSans-44" d="M 1259 4147 
L 1259 519 
L 2022 519 
Q 2988 519 3436 956 
Q 3884 1394 3884 2338 
Q 3884 3275 3436 3711 
Q 2988 4147 2022 4147 
L 1259 4147 
z
M 628 4666 
L 1925 4666 
Q 3281 4666 3915 4102 
Q 4550 3538 4550 2338 
Q 4550 1131 3912 565 
Q 3275 0 1925 0 
L 628 0 
L 628 4666 
z
" transform="scale(0.015625)"/>
     </defs>
     <use xlink:href="#DejaVuSans-4d"/>
     <use xlink:href="#DejaVuSans-41" x="86.279297"/>
     <use xlink:href="#DejaVuSans-43" x="152.9375"/>
     <use xlink:href="#DejaVuSans-44" x="222.761719"/>
    </g>
   </g>
   <g id="legend_2">
    <g id="patch_13">
     <path d="M 913.899543 368.492188 
L 975.876106 368.492188 
Q 977.876106 368.492188 977.876106 366.492188 
L 977.876106 338.135938 
Q 977.876106 336.135938 975.876106 336.135938 
L 913.899543 336.135938 
Q 911.899543 336.135938 911.899543 338.135938 
L 911.899543 366.492188 
Q 911.899543 368.492188 913.899543 368.492188 
z
" style="fill: #ffffff; opacity: 0.8; stroke: #cccccc; stroke-linejoin: miter"/>
    </g>
    <g id="line2d_81">
     <path d="M 915.899543 344.234375 
L 925.899543 344.234375 
L 935.899543 344.234375 
" style="fill: none; stroke: #1f77b4; stroke-width: 1.5; stroke-linecap: square"/>
    </g>
    <g id="text_30">
     <!-- MACD -->
     <g transform="translate(943.899543 347.734375)scale(0.1 -0.1)">
      <use xlink:href="#DejaVuSans-4d"/>
      <use xlink:href="#DejaVuSans-41" x="86.279297"/>
      <use xlink:href="#DejaVuSans-43" x="152.9375"/>
      <use xlink:href="#DejaVuSans-44" x="222.761719"/>
     </g>
    </g>
    <g id="line2d_82">
     <path d="M 915.899543 358.9125 
L 925.899543 358.9125 
L 935.899543 358.9125 
" style="fill: none; stroke: #ff7f0e; stroke-width: 1.5; stroke-linecap: square"/>
    </g>
    <g id="text_31">
     <!-- SIG -->
     <g transform="translate(943.899543 362.4125)scale(0.1 -0.1)">
      <defs>
       <path id="DejaVuSans-49" d="M 628 4666 
L 1259 4666 
L 1259 0 
L 628 0 
L 628 4666 
z
" transform="scale(0.015625)"/>
       <path id="DejaVuSans-47" d="M 3809 666 
L 3809 1919 
L 2778 1919 
L 2778 2438 
L 4434 2438 
L 4434 434 
Q 4069 175 3628 42 
Q 3188 -91 2688 -91 
Q 1594 -91 976 548 
Q 359 1188 359 2328 
Q 359 3472 976 4111 
Q 1594 4750 2688 4750 
Q 3144 4750 3555 4637 
Q 3966 4525 4313 4306 
L 4313 3634 
Q 3963 3931 3569 4081 
Q 3175 4231 2741 4231 
Q 1884 4231 1454 3753 
Q 1025 3275 1025 2328 
Q 1025 1384 1454 906 
Q 1884 428 2741 428 
Q 3075 428 3337 486 
Q 3600 544 3809 666 
z
" transform="scale(0.015625)"/>
      </defs>
      <use xlink:href="#DejaVuSans-53"/>
      <use xlink:href="#DejaVuSans-49" x="63.476562"/>
      <use xlink:href="#DejaVuSans-47" x="92.96875"/>
     </g>
    </g>
   </g>
  </g>
  <g id="text_32">
   <!-- Marico Limited -->
   <g transform="translate(459.76125 21.358125)scale(0.12 -0.12)">
    <defs>
     <path id="DejaVuSans-61" d="M 2194 1759 
Q 1497 1759 1228 1600 
Q 959 1441 959 1056 
Q 959 750 1161 570 
Q 1363 391 1709 391 
Q 2188 391 2477 730 
Q 2766 1069 2766 1631 
L 2766 1759 
L 2194 1759 
z
M 3341 1997 
L 3341 0 
L 2766 0 
L 2766 531 
Q 2569 213 2275 61 
Q 1981 -91 1556 -91 
Q 1019 -91 701 211 
Q 384 513 384 1019 
Q 384 1609 779 1909 
Q 1175 2209 1959 2209 
L 2766 2209 
L 2766 2266 
Q 2766 2663 2505 2880 
Q 2244 3097 1772 3097 
Q 1472 3097 1187 3025 
Q 903 2953 641 2809 
L 641 3341 
Q 956 3463 1253 3523 
Q 1550 3584 1831 3584 
Q 2591 3584 2966 3190 
Q 3341 2797 3341 1997 
z
" transform="scale(0.015625)"/>
     <path id="DejaVuSans-6d" d="M 3328 2828 
Q 3544 3216 3844 3400 
Q 4144 3584 4550 3584 
Q 5097 3584 5394 3201 
Q 5691 2819 5691 2113 
L 5691 0 
L 5113 0 
L 5113 2094 
Q 5113 2597 4934 2840 
Q 4756 3084 4391 3084 
Q 3944 3084 3684 2787 
Q 3425 2491 3425 1978 
L 3425 0 
L 2847 0 
L 2847 2094 
Q 2847 2600 2669 2842 
Q 2491 3084 2119 3084 
Q 1678 3084 1418 2786 
Q 1159 2488 1159 1978 
L 1159 0 
L 581 0 
L 581 3500 
L 1159 3500 
L 1159 2956 
Q 1356 3278 1631 3431 
Q 1906 3584 2284 3584 
Q 2666 3584 2933 3390 
Q 3200 3197 3328 2828 
z
" transform="scale(0.015625)"/>
     <path id="DejaVuSans-74" d="M 1172 4494 
L 1172 3500 
L 2356 3500 
L 2356 3053 
L 1172 3053 
L 1172 1153 
Q 1172 725 1289 603 
Q 1406 481 1766 481 
L 2356 481 
L 2356 0 
L 1766 0 
Q 1100 0 847 248 
Q 594 497 594 1153 
L 594 3053 
L 172 3053 
L 172 3500 
L 594 3500 
L 594 4494 
L 1172 4494 
z
" transform="scale(0.015625)"/>
     <path id="DejaVuSans-64" d="M 2906 2969 
L 2906 4863 
L 3481 4863 
L 3481 0 
L 2906 0 
L 2906 525 
Q 2725 213 2448 61 
Q 2172 -91 1784 -91 
Q 1150 -91 751 415 
Q 353 922 353 1747 
Q 353 2572 751 3078 
Q 1150 3584 1784 3584 
Q 2172 3584 2448 3432 
Q 2725 3281 2906 2969 
z
M 947 1747 
Q 947 1113 1208 752 
Q 1469 391 1925 391 
Q 2381 391 2643 752 
Q 2906 1113 2906 1747 
Q 2906 2381 2643 2742 
Q 2381 3103 1925 3103 
Q 1469 3103 1208 2742 
Q 947 2381 947 1747 
z
" transform="scale(0.015625)"/>
    </defs>
    <use xlink:href="#DejaVuSans-4d"/>
    <use xlink:href="#DejaVuSans-61" x="86.279297"/>
    <use xlink:href="#DejaVuSans-72" x="147.558594"/>
    <use xlink:href="#DejaVuSans-69" x="188.671875"/>
    <use xlink:href="#DejaVuSans-63" x="216.455078"/>
    <use xlink:href="#DejaVuSans-6f" x="271.435547"/>
    <use xlink:href="#DejaVuSans-20" x="332.617188"/>
    <use xlink:href="#DejaVuSans-4c" x="364.404297"/>
    <use xlink:href="#DejaVuSans-69" x="420.117188"/>
    <use xlink:href="#DejaVuSans-6d" x="447.900391"/>
    <use xlink:href="#DejaVuSans-69" x="545.3125"/>
    <use xlink:href="#DejaVuSans-74" x="573.095703"/>
    <use xlink:href="#DejaVuSans-65" x="612.304688"/>
    <use xlink:href="#DejaVuSans-64" x="673.828125"/>
   </g>
  </g>
 </g>
 <defs>
  <clipPath id="p4b80b4ab22">
   <rect x="48.445313" y="48.331875" width="934.430793" height="253.385938"/>
  </clipPath>
  <clipPath id="p0d3b0247c1">
   <rect x="48.445313" y="331.135938" width="934.430793" height="253.385937"/>
  </clipPath>
 </defs>
</svg>
