<?xml version="1.0" encoding="utf-8" standalone="no"?>
<!DOCTYPE svg PUBLIC "-//W3C//DTD SVG 1.1//EN"
  "http://www.w3.org/Graphics/SVG/1.1/DTD/svg11.dtd">
<svg xmlns:xlink="http://www.w3.org/1999/xlink" width="1008pt" height="612pt" viewBox="0 0 1008 612" xmlns="http://www.w3.org/2000/svg" version="1.1">
 <metadata>
  <rdf:RDF xmlns:dc="http://purl.org/dc/elements/1.1/" xmlns:cc="http://creativecommons.org/ns#" xmlns:rdf="http://www.w3.org/1999/02/22-rdf-syntax-ns#">
   <cc:Work>
    <dc:type rdf:resource="http://purl.org/dc/dcmitype/StillImage"/>
    <dc:date>2022-11-20T19:47:26.910593</dc:date>
    <dc:format>image/svg+xml</dc:format>
    <dc:creator>
     <cc:Agent>
      <dc:title>Matplotlib v3.5.2, https://matplotlib.org/</dc:title>
     </cc:Agent>
    </dc:creator>
   </cc:Work>
  </rdf:RDF>
 </metadata>
 <defs>
  <style type="text/css">*{stroke-linejoin: round; stroke-linecap: butt}</style>
 </defs>
 <g id="figure_1">
  <g id="patch_1">
   <path d="M 0 612 
L 1008 612 
L 1008 0 
L 0 0 
z
" style="fill: #ffffff"/>
  </g>
  <g id="axes_1">
   <g id="patch_2">
    <path d="M 36.8875 301.717812 
L 982.876106 301.717812 
L 982.876106 48.331875 
L 36.8875 48.331875 
z
" style="fill: #ffffff"/>
   </g>
   <g id="matplotlib.axis_1">
    <g id="xtick_1">
     <g id="line2d_1">
      <path d="M 74.495197 301.717812 
L 74.495197 48.331875 
" clip-path="url(#p23d248025f)" style="fill: none; stroke-dasharray: 2.96,1.28; stroke-dashoffset: 0; stroke: #b0b0b0; stroke-width: 0.8"/>
     </g>
     <g id="line2d_2">
      <defs>
       <path id="m42fa258215" d="M 0 0 
L 0 3.5 
" style="stroke: #000000; stroke-width: 0.8"/>
      </defs>
      <g>
       <use xlink:href="#m42fa258215" x="74.495197" y="301.717812" style="stroke: #000000; stroke-width: 0.8"/>
      </g>
     </g>
    </g>
    <g id="xtick_2">
     <g id="line2d_3">
      <path d="M 158.067859 301.717812 
L 158.067859 48.331875 
" clip-path="url(#p23d248025f)" style="fill: none; stroke-dasharray: 2.96,1.28; stroke-dashoffset: 0; stroke: #b0b0b0; stroke-width: 0.8"/>
     </g>
     <g id="line2d_4">
      <g>
       <use xlink:href="#m42fa258215" x="158.067859" y="301.717812" style="stroke: #000000; stroke-width: 0.8"/>
      </g>
     </g>
    </g>
    <g id="xtick_3">
     <g id="line2d_5">
      <path d="M 233.552843 301.717812 
L 233.552843 48.331875 
" clip-path="url(#p23d248025f)" style="fill: none; stroke-dasharray: 2.96,1.28; stroke-dashoffset: 0; stroke: #b0b0b0; stroke-width: 0.8"/>
     </g>
     <g id="line2d_6">
      <g>
       <use xlink:href="#m42fa258215" x="233.552843" y="301.717812" style="stroke: #000000; stroke-width: 0.8"/>
      </g>
     </g>
    </g>
    <g id="xtick_4">
     <g id="line2d_7">
      <path d="M 317.125504 301.717812 
L 317.125504 48.331875 
" clip-path="url(#p23d248025f)" style="fill: none; stroke-dasharray: 2.96,1.28; stroke-dashoffset: 0; stroke: #b0b0b0; stroke-width: 0.8"/>
     </g>
     <g id="line2d_8">
      <g>
       <use xlink:href="#m42fa258215" x="317.125504" y="301.717812" style="stroke: #000000; stroke-width: 0.8"/>
      </g>
     </g>
    </g>
    <g id="xtick_5">
     <g id="line2d_9">
      <path d="M 398.002273 301.717812 
L 398.002273 48.331875 
" clip-path="url(#p23d248025f)" style="fill: none; stroke-dasharray: 2.96,1.28; stroke-dashoffset: 0; stroke: #b0b0b0; stroke-width: 0.8"/>
     </g>
     <g id="line2d_10">
      <g>
       <use xlink:href="#m42fa258215" x="398.002273" y="301.717812" style="stroke: #000000; stroke-width: 0.8"/>
      </g>
     </g>
    </g>
    <g id="xtick_6">
     <g id="line2d_11">
      <path d="M 481.574934 301.717812 
L 481.574934 48.331875 
" clip-path="url(#p23d248025f)" style="fill: none; stroke-dasharray: 2.96,1.28; stroke-dashoffset: 0; stroke: #b0b0b0; stroke-width: 0.8"/>
     </g>
     <g id="line2d_12">
      <g>
       <use xlink:href="#m42fa258215" x="481.574934" y="301.717812" style="stroke: #000000; stroke-width: 0.8"/>
      </g>
     </g>
    </g>
    <g id="xtick_7">
     <g id="line2d_13">
      <path d="M 562.451703 301.717812 
L 562.451703 48.331875 
" clip-path="url(#p23d248025f)" style="fill: none; stroke-dasharray: 2.96,1.28; stroke-dashoffset: 0; stroke: #b0b0b0; stroke-width: 0.8"/>
     </g>
     <g id="line2d_14">
      <g>
       <use xlink:href="#m42fa258215" x="562.451703" y="301.717812" style="stroke: #000000; stroke-width: 0.8"/>
      </g>
     </g>
    </g>
    <g id="xtick_8">
     <g id="line2d_15">
      <path d="M 646.024364 301.717812 
L 646.024364 48.331875 
" clip-path="url(#p23d248025f)" style="fill: none; stroke-dasharray: 2.96,1.28; stroke-dashoffset: 0; stroke: #b0b0b0; stroke-width: 0.8"/>
     </g>
     <g id="line2d_16">
      <g>
       <use xlink:href="#m42fa258215" x="646.024364" y="301.717812" style="stroke: #000000; stroke-width: 0.8"/>
      </g>
     </g>
    </g>
    <g id="xtick_9">
     <g id="line2d_17">
      <path d="M 729.597025 301.717812 
L 729.597025 48.331875 
" clip-path="url(#p23d248025f)" style="fill: none; stroke-dasharray: 2.96,1.28; stroke-dashoffset: 0; stroke: #b0b0b0; stroke-width: 0.8"/>
     </g>
     <g id="line2d_18">
      <g>
       <use xlink:href="#m42fa258215" x="729.597025" y="301.717812" style="stroke: #000000; stroke-width: 0.8"/>
      </g>
     </g>
    </g>
    <g id="xtick_10">
     <g id="line2d_19">
      <path d="M 810.473794 301.717812 
L 810.473794 48.331875 
" clip-path="url(#p23d248025f)" style="fill: none; stroke-dasharray: 2.96,1.28; stroke-dashoffset: 0; stroke: #b0b0b0; stroke-width: 0.8"/>
     </g>
     <g id="line2d_20">
      <g>
       <use xlink:href="#m42fa258215" x="810.473794" y="301.717812" style="stroke: #000000; stroke-width: 0.8"/>
      </g>
     </g>
    </g>
    <g id="xtick_11">
     <g id="line2d_21">
      <path d="M 894.046455 301.717812 
L 894.046455 48.331875 
" clip-path="url(#p23d248025f)" style="fill: none; stroke-dasharray: 2.96,1.28; stroke-dashoffset: 0; stroke: #b0b0b0; stroke-width: 0.8"/>
     </g>
     <g id="line2d_22">
      <g>
       <use xlink:href="#m42fa258215" x="894.046455" y="301.717812" style="stroke: #000000; stroke-width: 0.8"/>
      </g>
     </g>
    </g>
    <g id="xtick_12">
     <g id="line2d_23">
      <path d="M 974.923224 301.717812 
L 974.923224 48.331875 
" clip-path="url(#p23d248025f)" style="fill: none; stroke-dasharray: 2.96,1.28; stroke-dashoffset: 0; stroke: #b0b0b0; stroke-width: 0.8"/>
     </g>
     <g id="line2d_24">
      <g>
       <use xlink:href="#m42fa258215" x="974.923224" y="301.717812" style="stroke: #000000; stroke-width: 0.8"/>
      </g>
     </g>
    </g>
   </g>
   <g id="matplotlib.axis_2">
    <g id="ytick_1">
     <g id="line2d_25">
      <path d="M 36.8875 294.012496 
L 982.876106 294.012496 
" clip-path="url(#p23d248025f)" style="fill: none; stroke-dasharray: 2.96,1.28; stroke-dashoffset: 0; stroke: #b0b0b0; stroke-width: 0.8"/>
     </g>
     <g id="line2d_26">
      <defs>
       <path id="mb9a02b308a" d="M 0 0 
L -3.5 0 
" style="stroke: #000000; stroke-width: 0.8"/>
      </defs>
      <g>
       <use xlink:href="#mb9a02b308a" x="36.8875" y="294.012496" style="stroke: #000000; stroke-width: 0.8"/>
      </g>
     </g>
     <g id="text_1">
      <!-- 40 -->
      <g transform="translate(17.1625 297.811714)scale(0.1 -0.1)">
       <defs>
        <path id="DejaVuSans-34" d="M 2419 4116 
L 825 1625 
L 2419 1625 
L 2419 4116 
z
M 2253 4666 
L 3047 4666 
L 3047 1625 
L 3713 1625 
L 3713 1100 
L 3047 1100 
L 3047 0 
L 2419 0 
L 2419 1100 
L 313 1100 
L 313 1709 
L 2253 4666 
z
" transform="scale(0.015625)"/>
        <path id="DejaVuSans-30" d="M 2034 4250 
Q 1547 4250 1301 3770 
Q 1056 3291 1056 2328 
Q 1056 1369 1301 889 
Q 1547 409 2034 409 
Q 2525 409 2770 889 
Q 3016 1369 3016 2328 
Q 3016 3291 2770 3770 
Q 2525 4250 2034 4250 
z
M 2034 4750 
Q 2819 4750 3233 4129 
Q 3647 3509 3647 2328 
Q 3647 1150 3233 529 
Q 2819 -91 2034 -91 
Q 1250 -91 836 529 
Q 422 1150 422 2328 
Q 422 3509 836 4129 
Q 1250 4750 2034 4750 
z
" transform="scale(0.015625)"/>
       </defs>
       <use xlink:href="#DejaVuSans-34"/>
       <use xlink:href="#DejaVuSans-30" x="63.623047"/>
      </g>
     </g>
    </g>
    <g id="ytick_2">
     <g id="line2d_27">
      <path d="M 36.8875 247.803699 
L 982.876106 247.803699 
" clip-path="url(#p23d248025f)" style="fill: none; stroke-dasharray: 2.96,1.28; stroke-dashoffset: 0; stroke: #b0b0b0; stroke-width: 0.8"/>
     </g>
     <g id="line2d_28">
      <g>
       <use xlink:href="#mb9a02b308a" x="36.8875" y="247.803699" style="stroke: #000000; stroke-width: 0.8"/>
      </g>
     </g>
     <g id="text_2">
      <!-- 60 -->
      <g transform="translate(17.1625 251.602918)scale(0.1 -0.1)">
       <defs>
        <path id="DejaVuSans-36" d="M 2113 2584 
Q 1688 2584 1439 2293 
Q 1191 2003 1191 1497 
Q 1191 994 1439 701 
Q 1688 409 2113 409 
Q 2538 409 2786 701 
Q 3034 994 3034 1497 
Q 3034 2003 2786 2293 
Q 2538 2584 2113 2584 
z
M 3366 4563 
L 3366 3988 
Q 3128 4100 2886 4159 
Q 2644 4219 2406 4219 
Q 1781 4219 1451 3797 
Q 1122 3375 1075 2522 
Q 1259 2794 1537 2939 
Q 1816 3084 2150 3084 
Q 2853 3084 3261 2657 
Q 3669 2231 3669 1497 
Q 3669 778 3244 343 
Q 2819 -91 2113 -91 
Q 1303 -91 875 529 
Q 447 1150 447 2328 
Q 447 3434 972 4092 
Q 1497 4750 2381 4750 
Q 2619 4750 2861 4703 
Q 3103 4656 3366 4563 
z
" transform="scale(0.015625)"/>
       </defs>
       <use xlink:href="#DejaVuSans-36"/>
       <use xlink:href="#DejaVuSans-30" x="63.623047"/>
      </g>
     </g>
    </g>
    <g id="ytick_3">
     <g id="line2d_29">
      <path d="M 36.8875 201.594902 
L 982.876106 201.594902 
" clip-path="url(#p23d248025f)" style="fill: none; stroke-dasharray: 2.96,1.28; stroke-dashoffset: 0; stroke: #b0b0b0; stroke-width: 0.8"/>
     </g>
     <g id="line2d_30">
      <g>
       <use xlink:href="#mb9a02b308a" x="36.8875" y="201.594902" style="stroke: #000000; stroke-width: 0.8"/>
      </g>
     </g>
     <g id="text_3">
      <!-- 80 -->
      <g transform="translate(17.1625 205.394121)scale(0.1 -0.1)">
       <defs>
        <path id="DejaVuSans-38" d="M 2034 2216 
Q 1584 2216 1326 1975 
Q 1069 1734 1069 1313 
Q 1069 891 1326 650 
Q 1584 409 2034 409 
Q 2484 409 2743 651 
Q 3003 894 3003 1313 
Q 3003 1734 2745 1975 
Q 2488 2216 2034 2216 
z
M 1403 2484 
Q 997 2584 770 2862 
Q 544 3141 544 3541 
Q 544 4100 942 4425 
Q 1341 4750 2034 4750 
Q 2731 4750 3128 4425 
Q 3525 4100 3525 3541 
Q 3525 3141 3298 2862 
Q 3072 2584 2669 2484 
Q 3125 2378 3379 2068 
Q 3634 1759 3634 1313 
Q 3634 634 3220 271 
Q 2806 -91 2034 -91 
Q 1263 -91 848 271 
Q 434 634 434 1313 
Q 434 1759 690 2068 
Q 947 2378 1403 2484 
z
M 1172 3481 
Q 1172 3119 1398 2916 
Q 1625 2713 2034 2713 
Q 2441 2713 2670 2916 
Q 2900 3119 2900 3481 
Q 2900 3844 2670 4047 
Q 2441 4250 2034 4250 
Q 1625 4250 1398 4047 
Q 1172 3844 1172 3481 
z
" transform="scale(0.015625)"/>
       </defs>
       <use xlink:href="#DejaVuSans-38"/>
       <use xlink:href="#DejaVuSans-30" x="63.623047"/>
      </g>
     </g>
    </g>
    <g id="ytick_4">
     <g id="line2d_31">
      <path d="M 36.8875 155.386105 
L 982.876106 155.386105 
" clip-path="url(#p23d248025f)" style="fill: none; stroke-dasharray: 2.96,1.28; stroke-dashoffset: 0; stroke: #b0b0b0; stroke-width: 0.8"/>
     </g>
     <g id="line2d_32">
      <g>
       <use xlink:href="#mb9a02b308a" x="36.8875" y="155.386105" style="stroke: #000000; stroke-width: 0.8"/>
      </g>
     </g>
     <g id="text_4">
      <!-- 100 -->
      <g transform="translate(10.8 159.185324)scale(0.1 -0.1)">
       <defs>
        <path id="DejaVuSans-31" d="M 794 531 
L 1825 531 
L 1825 4091 
L 703 3866 
L 703 4441 
L 1819 4666 
L 2450 4666 
L 2450 531 
L 3481 531 
L 3481 0 
L 794 0 
L 794 531 
z
" transform="scale(0.015625)"/>
       </defs>
       <use xlink:href="#DejaVuSans-31"/>
       <use xlink:href="#DejaVuSans-30" x="63.623047"/>
       <use xlink:href="#DejaVuSans-30" x="127.246094"/>
      </g>
     </g>
    </g>
    <g id="ytick_5">
     <g id="line2d_33">
      <path d="M 36.8875 109.177308 
L 982.876106 109.177308 
" clip-path="url(#p23d248025f)" style="fill: none; stroke-dasharray: 2.96,1.28; stroke-dashoffset: 0; stroke: #b0b0b0; stroke-width: 0.8"/>
     </g>
     <g id="line2d_34">
      <g>
       <use xlink:href="#mb9a02b308a" x="36.8875" y="109.177308" style="stroke: #000000; stroke-width: 0.8"/>
      </g>
     </g>
     <g id="text_5">
      <!-- 120 -->
      <g transform="translate(10.8 112.976527)scale(0.1 -0.1)">
       <defs>
        <path id="DejaVuSans-32" d="M 1228 531 
L 3431 531 
L 3431 0 
L 469 0 
L 469 531 
Q 828 903 1448 1529 
Q 2069 2156 2228 2338 
Q 2531 2678 2651 2914 
Q 2772 3150 2772 3378 
Q 2772 3750 2511 3984 
Q 2250 4219 1831 4219 
Q 1534 4219 1204 4116 
Q 875 4013 500 3803 
L 500 4441 
Q 881 4594 1212 4672 
Q 1544 4750 1819 4750 
Q 2544 4750 2975 4387 
Q 3406 4025 3406 3419 
Q 3406 3131 3298 2873 
Q 3191 2616 2906 2266 
Q 2828 2175 2409 1742 
Q 1991 1309 1228 531 
z
" transform="scale(0.015625)"/>
       </defs>
       <use xlink:href="#DejaVuSans-31"/>
       <use xlink:href="#DejaVuSans-32" x="63.623047"/>
       <use xlink:href="#DejaVuSans-30" x="127.246094"/>
      </g>
     </g>
    </g>
    <g id="ytick_6">
     <g id="line2d_35">
      <path d="M 36.8875 62.968511 
L 982.876106 62.968511 
" clip-path="url(#p23d248025f)" style="fill: none; stroke-dasharray: 2.96,1.28; stroke-dashoffset: 0; stroke: #b0b0b0; stroke-width: 0.8"/>
     </g>
     <g id="line2d_36">
      <g>
       <use xlink:href="#mb9a02b308a" x="36.8875" y="62.968511" style="stroke: #000000; stroke-width: 0.8"/>
      </g>
     </g>
     <g id="text_6">
      <!-- 140 -->
      <g transform="translate(10.8 66.76773)scale(0.1 -0.1)">
       <use xlink:href="#DejaVuSans-31"/>
       <use xlink:href="#DejaVuSans-34" x="63.623047"/>
       <use xlink:href="#DejaVuSans-30" x="127.246094"/>
      </g>
     </g>
    </g>
   </g>
   <g id="line2d_37">
    <path d="M 79.886982 59.849418 
L 82.582874 66.780737 
L 85.278767 76.946672 
L 87.974659 86.07291 
L 90.670551 87.80574 
L 98.758228 85.610822 
L 101.45412 83.069338 
L 104.150013 80.87442 
L 106.845905 78.910546 
L 109.541797 77.755326 
L 117.629474 76.83115 
L 120.325366 79.026068 
L 125.717151 97.163021 
L 128.413043 123.848601 
L 136.50072 175.37141 
L 139.196613 154.346407 
L 144.588397 177.335284 
L 147.284289 179.530201 
L 155.371966 177.566328 
L 158.067859 167.978002 
L 160.763751 157.927589 
L 163.459643 162.086381 
L 166.155535 168.786656 
L 174.243212 170.288442 
L 176.939105 170.288442 
L 179.634997 168.786656 
L 182.330889 168.209046 
L 185.026782 181.494075 
L 193.114458 195.934324 
L 195.810351 195.356714 
L 198.506243 190.158225 
L 201.202135 180.454377 
L 203.898028 187.963307 
L 211.985704 198.01372 
L 214.681597 202.288034 
L 217.377489 192.006577 
L 220.073381 205.060562 
L 222.769274 204.36743 
L 230.856951 201.710424 
L 236.248735 201.941468 
L 238.944627 196.511934 
L 241.64052 201.132814 
L 249.728197 203.905342 
L 252.424089 205.869216 
L 255.119981 200.786248 
L 257.815873 196.511934 
L 260.511766 201.825946 
L 268.599443 203.21221 
L 271.295335 209.565919 
L 273.991227 210.952183 
L 276.68712 199.631028 
L 287.470689 200.670726 
L 290.166581 198.937896 
L 295.558366 200.786248 
L 298.254258 200.208638 
L 306.341935 202.403556 
L 309.037827 205.753694 
L 311.733719 189.927181 
L 314.429612 196.28089 
L 317.125504 191.660011 
L 325.213181 187.154653 
L 327.909073 192.584187 
L 330.604965 191.082401 
L 333.300858 195.818802 
L 335.99675 193.739406 
L 344.084427 191.313445 
L 346.780319 198.129242 
L 349.476211 192.584187 
L 362.955673 194.894626 
L 365.651565 200.555204 
L 368.347458 200.90177 
L 371.04335 199.74655 
L 373.739242 198.822374 
L 381.826919 204.482952 
L 384.522811 202.519078 
L 387.218704 211.183227 
L 389.914596 215.804107 
L 392.610488 220.656031 
L 400.698165 225.85452 
L 406.08995 237.522241 
L 408.785842 245.146693 
L 411.481734 246.648479 
L 419.569411 255.312628 
L 422.265303 265.24752 
L 424.961196 261.20425 
L 427.657088 266.40274 
L 430.35298 255.081584 
L 438.440657 256.121282 
L 441.136549 256.698892 
L 443.832442 250.691749 
L 446.528334 258.547244 
L 449.224226 252.309056 
L 457.311903 254.619496 
L 460.007795 236.367022 
L 462.703688 242.489687 
L 465.39958 246.764001 
L 468.095472 243.067297 
L 476.183149 222.273339 
L 478.879042 213.955755 
L 481.574934 213.840233 
L 484.270826 220.193943 
L 486.966718 219.731855 
L 495.054395 224.930344 
L 497.750288 235.327324 
L 500.44618 231.284054 
L 503.142072 227.702872 
L 505.837964 227.00974 
L 513.925641 230.4754 
L 516.621534 224.6993 
L 519.317426 224.237212 
L 522.013318 231.168532 
L 524.709211 231.515098 
L 532.796887 236.2515 
L 535.49278 233.825538 
L 538.188672 230.244356 
L 540.884564 225.738998 
L 543.580457 223.54408 
L 551.668133 234.287626 
L 554.364026 247.110567 
L 557.059918 254.041886 
L 559.75581 262.012904 
L 562.451703 256.698892 
L 570.53938 260.973206 
L 573.235272 258.3162 
L 575.931164 260.857684 
L 578.627056 260.62664 
L 581.322949 259.817986 
L 589.410626 256.814414 
L 592.106518 250.114139 
L 594.80241 251.615925 
L 597.498302 257.854112 
L 600.194195 261.897382 
L 608.281872 262.590514 
L 610.977764 261.78186 
L 613.673656 263.052602 
L 616.369549 262.821558 
L 619.065441 262.474992 
L 627.153118 276.453153 
L 629.84901 290.20027 
L 632.544902 284.886258 
L 635.240795 280.842989 
L 637.936687 278.301505 
L 646.024364 279.456725 
L 648.720256 258.085156 
L 651.416148 258.3162 
L 654.112041 252.771144 
L 656.807933 260.280074 
L 664.89561 258.3162 
L 670.287394 257.16098 
L 672.983287 252.655622 
L 675.679179 243.760429 
L 686.462748 237.984329 
L 689.15864 235.67389 
L 691.854533 231.399576 
L 694.550425 244.453561 
L 702.638102 243.182819 
L 705.333994 237.522241 
L 708.029887 242.720731 
L 710.725779 242.951775 
L 713.421671 243.529385 
L 721.509348 249.652051 
L 724.20524 252.5401 
L 729.597025 242.143121 
L 732.292917 248.381309 
L 740.380594 248.612353 
L 743.076486 248.496831 
L 745.772379 248.958919 
L 748.468271 244.684605 
L 751.164163 241.334467 
L 759.25184 241.912077 
L 761.947732 235.211802 
L 764.643625 240.179247 
L 767.339517 237.175676 
L 770.035409 240.410291 
L 778.123086 238.677461 
L 780.818978 241.218945 
L 783.514871 239.832681 
L 786.210763 240.179247 
L 788.906655 245.955347 
L 796.994332 252.886666 
L 799.690225 250.460705 
L 802.386117 252.309056 
L 805.082009 245.031171 
L 807.777901 242.374165 
L 815.865578 243.413863 
L 818.561471 238.446417 
L 823.953255 234.980758 
L 826.649147 225.738998 
L 834.736824 227.702872 
L 837.432717 234.980758 
L 840.128609 239.139549 
L 842.824501 244.915649 
L 845.520393 243.413863 
L 853.60807 241.681033 
L 856.303963 240.872379 
L 858.999855 243.067297 
L 861.695747 244.800127 
L 864.39164 243.644907 
L 872.479316 242.374165 
L 875.175209 237.175676 
L 880.566993 236.020456 
L 883.262886 241.796555 
L 891.350562 240.641335 
L 894.046455 239.717159 
L 896.742347 240.872379 
L 899.438239 242.720731 
L 902.134132 240.872379 
L 910.221809 236.020456 
L 915.613593 235.558368 
L 918.309485 238.677461 
L 921.005378 218.230069 
L 929.093055 225.623476 
L 931.788947 224.814822 
L 934.484839 227.702872 
L 937.180731 230.013312 
L 939.876624 231.284054 
L 939.876624 231.284054 
" clip-path="url(#p23d248025f)" style="fill: none; stroke: #1f77b4; stroke-width: 1.5; stroke-linecap: square"/>
   </g>
   <g id="line2d_38">
    <path d="M 90.670551 75.491095 
L 98.758228 80.643376 
L 101.45412 83.901096 
L 104.150013 84.686646 
L 106.845905 83.254173 
L 109.541797 81.244091 
L 117.629474 79.488156 
L 120.325366 78.679502 
L 123.021259 80.088871 
L 125.717151 83.739366 
L 128.413043 92.958021 
L 136.50072 112.666072 
L 139.196613 127.73014 
L 144.588397 145.612945 
L 147.284289 162.086381 
L 155.371966 172.829926 
L 158.067859 171.351244 
L 160.763751 172.067481 
L 163.459643 169.0177 
L 166.155535 166.868991 
L 174.243212 165.413414 
L 176.939105 165.875502 
L 179.634997 168.047315 
L 182.330889 169.271849 
L 185.026782 171.813332 
L 193.114458 176.942509 
L 195.810351 181.956163 
L 198.506243 186.230477 
L 201.202135 188.679543 
L 203.898028 189.97339 
L 211.985704 190.389269 
L 214.681597 191.775533 
L 217.377489 192.145203 
L 220.073381 197.06644 
L 222.769274 200.347264 
L 230.856951 201.086605 
L 236.248735 201.017292 
L 238.944627 201.918364 
L 241.64052 201.132814 
L 249.728197 201.040396 
L 252.424089 201.872155 
L 255.119981 201.641111 
L 257.815873 201.641111 
L 260.511766 201.779737 
L 268.599443 201.641111 
L 271.295335 202.380451 
L 273.991227 204.413639 
L 276.68712 205.037457 
L 287.470689 204.806413 
L 290.166581 203.951551 
L 295.558366 199.977594 
L 306.341935 200.439682 
L 309.037827 201.802842 
L 311.733719 199.815863 
L 314.429612 198.914792 
L 317.125504 197.205066 
L 325.213181 194.155286 
L 327.909073 191.521384 
L 330.604965 191.752428 
L 333.300858 191.660011 
L 335.99675 192.07589 
L 344.084427 192.907648 
L 346.780319 194.016659 
L 349.476211 194.317016 
L 362.955673 194.132181 
L 365.651565 195.495341 
L 368.347458 197.413006 
L 371.04335 197.736467 
L 373.739242 198.984105 
L 381.826919 200.90177 
L 384.522811 201.294545 
L 387.218704 203.350836 
L 389.914596 206.562348 
L 392.610488 210.929079 
L 400.698165 215.203393 
L 406.08995 222.204025 
L 408.785842 228.996718 
L 411.481734 235.165593 
L 419.569411 242.096912 
L 422.265303 249.975512 
L 424.961196 254.711914 
L 427.657088 258.963123 
L 430.35298 260.649744 
L 438.440657 260.811475 
L 441.136549 259.10175 
L 443.832442 256.999249 
L 446.528334 255.42815 
L 449.224226 254.873645 
L 457.311903 254.573288 
L 460.007795 250.506913 
L 462.703688 248.866501 
L 465.39958 246.509852 
L 468.095472 244.661501 
L 476.183149 238.192269 
L 478.879042 233.710016 
L 481.574934 227.980125 
L 484.270826 222.666113 
L 486.966718 217.999025 
L 495.054395 218.530426 
L 497.750288 222.80474 
L 500.44618 226.293504 
L 505.837964 229.250867 
L 513.925641 230.359878 
L 516.621534 228.234273 
L 519.317426 226.824905 
L 522.013318 227.518037 
L 524.709211 228.419109 
L 532.796887 229.574328 
L 535.49278 231.399576 
L 538.188672 232.601005 
L 540.884564 231.515098 
L 543.580457 229.920894 
L 551.668133 229.52812 
L 554.364026 232.185125 
L 557.059918 236.944632 
L 559.75581 244.199413 
L 562.451703 250.830375 
L 570.53938 256.167491 
L 573.235272 258.408618 
L 575.931164 259.771777 
L 578.627056 259.494524 
L 581.322949 260.118343 
L 589.410626 259.286585 
L 592.106518 257.646173 
L 594.80241 255.797821 
L 597.498302 255.243315 
L 608.281872 256.814414 
L 613.673656 261.435294 
L 616.369549 262.428783 
L 619.065441 262.544305 
L 627.153118 265.316833 
L 629.84901 271.000515 
L 632.544902 275.367246 
L 635.240795 278.971532 
L 637.936687 282.136835 
L 646.024364 282.737549 
L 648.720256 276.314526 
L 651.416148 271.000515 
L 654.112041 265.386146 
L 656.807933 261.78186 
L 664.89561 257.553755 
L 670.287394 257.36892 
L 672.983287 256.236804 
L 675.679179 254.434661 
L 686.462748 249.975512 
L 689.15864 245.44705 
L 691.854533 240.294769 
L 694.550425 238.654357 
L 705.333994 238.446417 
L 708.029887 239.855786 
L 710.725779 242.166226 
L 713.421671 241.98139 
L 721.509348 243.275237 
L 724.20524 246.278808 
L 729.597025 246.163286 
L 732.292917 247.249193 
L 740.380594 248.265787 
L 743.076486 248.034743 
L 745.772379 247.318506 
L 748.468271 247.826803 
L 751.164163 246.417435 
L 759.25184 245.07738 
L 761.947732 242.420374 
L 764.643625 240.66444 
L 767.339517 239.162654 
L 778.123086 238.330895 
L 780.818978 239.532324 
L 783.514871 239.463011 
L 786.210763 240.063725 
L 788.906655 241.172736 
L 796.994332 244.014577 
L 799.690225 245.862929 
L 802.386117 248.358204 
L 805.082009 249.328589 
L 807.777901 248.612353 
L 815.865578 246.717792 
L 818.561471 244.314935 
L 823.953255 240.849275 
L 826.649147 236.99084 
L 834.736824 234.056582 
L 837.432717 232.369961 
L 840.128609 232.508587 
L 842.824501 234.495565 
L 845.520393 238.030538 
L 853.60807 240.82617 
L 856.303963 242.004495 
L 858.999855 242.790044 
L 864.39164 242.813149 
L 872.479316 242.951775 
L 880.566993 240.803066 
L 883.262886 240.202352 
L 891.350562 239.601637 
L 894.046455 239.070236 
L 896.742347 239.809577 
L 899.438239 241.149632 
L 902.134132 240.964797 
L 910.221809 240.040621 
L 918.309485 238.769879 
L 921.005378 233.871747 
L 929.093055 230.821966 
L 931.788947 228.580839 
L 934.484839 227.00974 
L 937.180731 225.27691 
L 939.876624 227.887707 
L 939.876624 227.887707 
" clip-path="url(#p23d248025f)" style="fill: none; stroke: #ff7f0e; stroke-width: 1.5; stroke-linecap: square"/>
   </g>
   <g id="patch_3">
    <path d="M 36.8875 301.717812 
L 36.8875 48.331875 
" style="fill: none; stroke: #000000; stroke-width: 0.8; stroke-linejoin: miter; stroke-linecap: square"/>
   </g>
   <g id="patch_4">
    <path d="M 982.876106 301.717812 
L 982.876106 48.331875 
" style="fill: none; stroke: #000000; stroke-width: 0.8; stroke-linejoin: miter; stroke-linecap: square"/>
   </g>
   <g id="patch_5">
    <path d="M 36.8875 301.717812 
L 982.876106 301.717812 
" style="fill: none; stroke: #000000; stroke-width: 0.8; stroke-linejoin: miter; stroke-linecap: square"/>
   </g>
   <g id="patch_6">
    <path d="M 36.8875 48.331875 
L 982.876106 48.331875 
" style="fill: none; stroke: #000000; stroke-width: 0.8; stroke-linejoin: miter; stroke-linecap: square"/>
   </g>
   <g id="text_7">
    <!-- Closing Price -->
    <g transform="translate(471.405865 42.331875)scale(0.12 -0.12)">
     <defs>
      <path id="DejaVuSans-43" d="M 4122 4306 
L 4122 3641 
Q 3803 3938 3442 4084 
Q 3081 4231 2675 4231 
Q 1875 4231 1450 3742 
Q 1025 3253 1025 2328 
Q 1025 1406 1450 917 
Q 1875 428 2675 428 
Q 3081 428 3442 575 
Q 3803 722 4122 1019 
L 4122 359 
Q 3791 134 3420 21 
Q 3050 -91 2638 -91 
Q 1578 -91 968 557 
Q 359 1206 359 2328 
Q 359 3453 968 4101 
Q 1578 4750 2638 4750 
Q 3056 4750 3426 4639 
Q 3797 4528 4122 4306 
z
" transform="scale(0.015625)"/>
      <path id="DejaVuSans-6c" d="M 603 4863 
L 1178 4863 
L 1178 0 
L 603 0 
L 603 4863 
z
" transform="scale(0.015625)"/>
      <path id="DejaVuSans-6f" d="M 1959 3097 
Q 1497 3097 1228 2736 
Q 959 2375 959 1747 
Q 959 1119 1226 758 
Q 1494 397 1959 397 
Q 2419 397 2687 759 
Q 2956 1122 2956 1747 
Q 2956 2369 2687 2733 
Q 2419 3097 1959 3097 
z
M 1959 3584 
Q 2709 3584 3137 3096 
Q 3566 2609 3566 1747 
Q 3566 888 3137 398 
Q 2709 -91 1959 -91 
Q 1206 -91 779 398 
Q 353 888 353 1747 
Q 353 2609 779 3096 
Q 1206 3584 1959 3584 
z
" transform="scale(0.015625)"/>
      <path id="DejaVuSans-73" d="M 2834 3397 
L 2834 2853 
Q 2591 2978 2328 3040 
Q 2066 3103 1784 3103 
Q 1356 3103 1142 2972 
Q 928 2841 928 2578 
Q 928 2378 1081 2264 
Q 1234 2150 1697 2047 
L 1894 2003 
Q 2506 1872 2764 1633 
Q 3022 1394 3022 966 
Q 3022 478 2636 193 
Q 2250 -91 1575 -91 
Q 1294 -91 989 -36 
Q 684 19 347 128 
L 347 722 
Q 666 556 975 473 
Q 1284 391 1588 391 
Q 1994 391 2212 530 
Q 2431 669 2431 922 
Q 2431 1156 2273 1281 
Q 2116 1406 1581 1522 
L 1381 1569 
Q 847 1681 609 1914 
Q 372 2147 372 2553 
Q 372 3047 722 3315 
Q 1072 3584 1716 3584 
Q 2034 3584 2315 3537 
Q 2597 3491 2834 3397 
z
" transform="scale(0.015625)"/>
      <path id="DejaVuSans-69" d="M 603 3500 
L 1178 3500 
L 1178 0 
L 603 0 
L 603 3500 
z
M 603 4863 
L 1178 4863 
L 1178 4134 
L 603 4134 
L 603 4863 
z
" transform="scale(0.015625)"/>
      <path id="DejaVuSans-6e" d="M 3513 2113 
L 3513 0 
L 2938 0 
L 2938 2094 
Q 2938 2591 2744 2837 
Q 2550 3084 2163 3084 
Q 1697 3084 1428 2787 
Q 1159 2491 1159 1978 
L 1159 0 
L 581 0 
L 581 3500 
L 1159 3500 
L 1159 2956 
Q 1366 3272 1645 3428 
Q 1925 3584 2291 3584 
Q 2894 3584 3203 3211 
Q 3513 2838 3513 2113 
z
" transform="scale(0.015625)"/>
      <path id="DejaVuSans-67" d="M 2906 1791 
Q 2906 2416 2648 2759 
Q 2391 3103 1925 3103 
Q 1463 3103 1205 2759 
Q 947 2416 947 1791 
Q 947 1169 1205 825 
Q 1463 481 1925 481 
Q 2391 481 2648 825 
Q 2906 1169 2906 1791 
z
M 3481 434 
Q 3481 -459 3084 -895 
Q 2688 -1331 1869 -1331 
Q 1566 -1331 1297 -1286 
Q 1028 -1241 775 -1147 
L 775 -588 
Q 1028 -725 1275 -790 
Q 1522 -856 1778 -856 
Q 2344 -856 2625 -561 
Q 2906 -266 2906 331 
L 2906 616 
Q 2728 306 2450 153 
Q 2172 0 1784 0 
Q 1141 0 747 490 
Q 353 981 353 1791 
Q 353 2603 747 3093 
Q 1141 3584 1784 3584 
Q 2172 3584 2450 3431 
Q 2728 3278 2906 2969 
L 2906 3500 
L 3481 3500 
L 3481 434 
z
" transform="scale(0.015625)"/>
      <path id="DejaVuSans-20" transform="scale(0.015625)"/>
      <path id="DejaVuSans-50" d="M 1259 4147 
L 1259 2394 
L 2053 2394 
Q 2494 2394 2734 2622 
Q 2975 2850 2975 3272 
Q 2975 3691 2734 3919 
Q 2494 4147 2053 4147 
L 1259 4147 
z
M 628 4666 
L 2053 4666 
Q 2838 4666 3239 4311 
Q 3641 3956 3641 3272 
Q 3641 2581 3239 2228 
Q 2838 1875 2053 1875 
L 1259 1875 
L 1259 0 
L 628 0 
L 628 4666 
z
" transform="scale(0.015625)"/>
      <path id="DejaVuSans-72" d="M 2631 2963 
Q 2534 3019 2420 3045 
Q 2306 3072 2169 3072 
Q 1681 3072 1420 2755 
Q 1159 2438 1159 1844 
L 1159 0 
L 581 0 
L 581 3500 
L 1159 3500 
L 1159 2956 
Q 1341 3275 1631 3429 
Q 1922 3584 2338 3584 
Q 2397 3584 2469 3576 
Q 2541 3569 2628 3553 
L 2631 2963 
z
" transform="scale(0.015625)"/>
      <path id="DejaVuSans-63" d="M 3122 3366 
L 3122 2828 
Q 2878 2963 2633 3030 
Q 2388 3097 2138 3097 
Q 1578 3097 1268 2742 
Q 959 2388 959 1747 
Q 959 1106 1268 751 
Q 1578 397 2138 397 
Q 2388 397 2633 464 
Q 2878 531 3122 666 
L 3122 134 
Q 2881 22 2623 -34 
Q 2366 -91 2075 -91 
Q 1284 -91 818 406 
Q 353 903 353 1747 
Q 353 2603 823 3093 
Q 1294 3584 2113 3584 
Q 2378 3584 2631 3529 
Q 2884 3475 3122 3366 
z
" transform="scale(0.015625)"/>
      <path id="DejaVuSans-65" d="M 3597 1894 
L 3597 1613 
L 953 1613 
Q 991 1019 1311 708 
Q 1631 397 2203 397 
Q 2534 397 2845 478 
Q 3156 559 3463 722 
L 3463 178 
Q 3153 47 2828 -22 
Q 2503 -91 2169 -91 
Q 1331 -91 842 396 
Q 353 884 353 1716 
Q 353 2575 817 3079 
Q 1281 3584 2069 3584 
Q 2775 3584 3186 3129 
Q 3597 2675 3597 1894 
z
M 3022 2063 
Q 3016 2534 2758 2815 
Q 2500 3097 2075 3097 
Q 1594 3097 1305 2825 
Q 1016 2553 972 2059 
L 3022 2063 
z
" transform="scale(0.015625)"/>
     </defs>
     <use xlink:href="#DejaVuSans-43"/>
     <use xlink:href="#DejaVuSans-6c" x="69.824219"/>
     <use xlink:href="#DejaVuSans-6f" x="97.607422"/>
     <use xlink:href="#DejaVuSans-73" x="158.789062"/>
     <use xlink:href="#DejaVuSans-69" x="210.888672"/>
     <use xlink:href="#DejaVuSans-6e" x="238.671875"/>
     <use xlink:href="#DejaVuSans-67" x="302.050781"/>
     <use xlink:href="#DejaVuSans-20" x="365.527344"/>
     <use xlink:href="#DejaVuSans-50" x="397.314453"/>
     <use xlink:href="#DejaVuSans-72" x="455.867188"/>
     <use xlink:href="#DejaVuSans-69" x="496.980469"/>
     <use xlink:href="#DejaVuSans-63" x="524.763672"/>
     <use xlink:href="#DejaVuSans-65" x="579.744141"/>
    </g>
   </g>
   <g id="legend_1">
    <g id="patch_7">
     <path d="M 911.144856 85.688125 
L 975.876106 85.688125 
Q 977.876106 85.688125 977.876106 83.688125 
L 977.876106 55.331875 
Q 977.876106 53.331875 975.876106 53.331875 
L 911.144856 53.331875 
Q 909.144856 53.331875 909.144856 55.331875 
L 909.144856 83.688125 
Q 909.144856 85.688125 911.144856 85.688125 
z
" style="fill: #ffffff; opacity: 0.8; stroke: #cccccc; stroke-linejoin: miter"/>
    </g>
    <g id="line2d_39">
     <path d="M 913.144856 61.430312 
L 923.144856 61.430312 
L 933.144856 61.430312 
" style="fill: none; stroke: #1f77b4; stroke-width: 1.5; stroke-linecap: square"/>
    </g>
    <g id="text_8">
     <!-- CLOSE -->
     <g transform="translate(941.144856 64.930312)scale(0.1 -0.1)">
      <defs>
       <path id="DejaVuSans-4c" d="M 628 4666 
L 1259 4666 
L 1259 531 
L 3531 531 
L 3531 0 
L 628 0 
L 628 4666 
z
" transform="scale(0.015625)"/>
       <path id="DejaVuSans-4f" d="M 2522 4238 
Q 1834 4238 1429 3725 
Q 1025 3213 1025 2328 
Q 1025 1447 1429 934 
Q 1834 422 2522 422 
Q 3209 422 3611 934 
Q 4013 1447 4013 2328 
Q 4013 3213 3611 3725 
Q 3209 4238 2522 4238 
z
M 2522 4750 
Q 3503 4750 4090 4092 
Q 4678 3434 4678 2328 
Q 4678 1225 4090 567 
Q 3503 -91 2522 -91 
Q 1538 -91 948 565 
Q 359 1222 359 2328 
Q 359 3434 948 4092 
Q 1538 4750 2522 4750 
z
" transform="scale(0.015625)"/>
       <path id="DejaVuSans-53" d="M 3425 4513 
L 3425 3897 
Q 3066 4069 2747 4153 
Q 2428 4238 2131 4238 
Q 1616 4238 1336 4038 
Q 1056 3838 1056 3469 
Q 1056 3159 1242 3001 
Q 1428 2844 1947 2747 
L 2328 2669 
Q 3034 2534 3370 2195 
Q 3706 1856 3706 1288 
Q 3706 609 3251 259 
Q 2797 -91 1919 -91 
Q 1588 -91 1214 -16 
Q 841 59 441 206 
L 441 856 
Q 825 641 1194 531 
Q 1563 422 1919 422 
Q 2459 422 2753 634 
Q 3047 847 3047 1241 
Q 3047 1584 2836 1778 
Q 2625 1972 2144 2069 
L 1759 2144 
Q 1053 2284 737 2584 
Q 422 2884 422 3419 
Q 422 4038 858 4394 
Q 1294 4750 2059 4750 
Q 2388 4750 2728 4690 
Q 3069 4631 3425 4513 
z
" transform="scale(0.015625)"/>
       <path id="DejaVuSans-45" d="M 628 4666 
L 3578 4666 
L 3578 4134 
L 1259 4134 
L 1259 2753 
L 3481 2753 
L 3481 2222 
L 1259 2222 
L 1259 531 
L 3634 531 
L 3634 0 
L 628 0 
L 628 4666 
z
" transform="scale(0.015625)"/>
      </defs>
      <use xlink:href="#DejaVuSans-43"/>
      <use xlink:href="#DejaVuSans-4c" x="69.824219"/>
      <use xlink:href="#DejaVuSans-4f" x="121.912109"/>
      <use xlink:href="#DejaVuSans-53" x="200.623047"/>
      <use xlink:href="#DejaVuSans-45" x="264.099609"/>
     </g>
    </g>
    <g id="line2d_40">
     <path d="M 913.144856 76.108437 
L 923.144856 76.108437 
L 933.144856 76.108437 
" style="fill: none; stroke: #ff7f0e; stroke-width: 1.5; stroke-linecap: square"/>
    </g>
    <g id="text_9">
     <!-- SMA5 -->
     <g transform="translate(941.144856 79.608437)scale(0.1 -0.1)">
      <defs>
       <path id="DejaVuSans-4d" d="M 628 4666 
L 1569 4666 
L 2759 1491 
L 3956 4666 
L 4897 4666 
L 4897 0 
L 4281 0 
L 4281 4097 
L 3078 897 
L 2444 897 
L 1241 4097 
L 1241 0 
L 628 0 
L 628 4666 
z
" transform="scale(0.015625)"/>
       <path id="DejaVuSans-41" d="M 2188 4044 
L 1331 1722 
L 3047 1722 
L 2188 4044 
z
M 1831 4666 
L 2547 4666 
L 4325 0 
L 3669 0 
L 3244 1197 
L 1141 1197 
L 716 0 
L 50 0 
L 1831 4666 
z
" transform="scale(0.015625)"/>
       <path id="DejaVuSans-35" d="M 691 4666 
L 3169 4666 
L 3169 4134 
L 1269 4134 
L 1269 2991 
Q 1406 3038 1543 3061 
Q 1681 3084 1819 3084 
Q 2600 3084 3056 2656 
Q 3513 2228 3513 1497 
Q 3513 744 3044 326 
Q 2575 -91 1722 -91 
Q 1428 -91 1123 -41 
Q 819 9 494 109 
L 494 744 
Q 775 591 1075 516 
Q 1375 441 1709 441 
Q 2250 441 2565 725 
Q 2881 1009 2881 1497 
Q 2881 1984 2565 2268 
Q 2250 2553 1709 2553 
Q 1456 2553 1204 2497 
Q 953 2441 691 2322 
L 691 4666 
z
" transform="scale(0.015625)"/>
      </defs>
      <use xlink:href="#DejaVuSans-53"/>
      <use xlink:href="#DejaVuSans-4d" x="63.476562"/>
      <use xlink:href="#DejaVuSans-41" x="149.755859"/>
      <use xlink:href="#DejaVuSans-35" x="218.164062"/>
     </g>
    </g>
   </g>
  </g>
  <g id="axes_2">
   <g id="patch_8">
    <path d="M 36.8875 584.521875 
L 982.876106 584.521875 
L 982.876106 331.135938 
L 36.8875 331.135938 
z
" style="fill: #ffffff"/>
   </g>
   <g id="matplotlib.axis_3">
    <g id="xtick_13">
     <g id="line2d_41">
      <path d="M 74.495197 584.521875 
L 74.495197 331.135938 
" clip-path="url(#p74a31cad19)" style="fill: none; stroke-dasharray: 2.96,1.28; stroke-dashoffset: 0; stroke: #b0b0b0; stroke-width: 0.8"/>
     </g>
     <g id="line2d_42">
      <g>
       <use xlink:href="#m42fa258215" x="74.495197" y="584.521875" style="stroke: #000000; stroke-width: 0.8"/>
      </g>
     </g>
     <g id="text_10">
      <!-- 2022-01 -->
      <g transform="translate(53.603791 599.120312)scale(0.1 -0.1)">
       <defs>
        <path id="DejaVuSans-2d" d="M 313 2009 
L 1997 2009 
L 1997 1497 
L 313 1497 
L 313 2009 
z
" transform="scale(0.015625)"/>
       </defs>
       <use xlink:href="#DejaVuSans-32"/>
       <use xlink:href="#DejaVuSans-30" x="63.623047"/>
       <use xlink:href="#DejaVuSans-32" x="127.246094"/>
       <use xlink:href="#DejaVuSans-32" x="190.869141"/>
       <use xlink:href="#DejaVuSans-2d" x="254.492188"/>
       <use xlink:href="#DejaVuSans-30" x="290.576172"/>
       <use xlink:href="#DejaVuSans-31" x="354.199219"/>
      </g>
     </g>
    </g>
    <g id="xtick_14">
     <g id="line2d_43">
      <path d="M 158.067859 584.521875 
L 158.067859 331.135938 
" clip-path="url(#p74a31cad19)" style="fill: none; stroke-dasharray: 2.96,1.28; stroke-dashoffset: 0; stroke: #b0b0b0; stroke-width: 0.8"/>
     </g>
     <g id="line2d_44">
      <g>
       <use xlink:href="#m42fa258215" x="158.067859" y="584.521875" style="stroke: #000000; stroke-width: 0.8"/>
      </g>
     </g>
     <g id="text_11">
      <!-- 2022-02 -->
      <g transform="translate(137.176452 599.120312)scale(0.1 -0.1)">
       <use xlink:href="#DejaVuSans-32"/>
       <use xlink:href="#DejaVuSans-30" x="63.623047"/>
       <use xlink:href="#DejaVuSans-32" x="127.246094"/>
       <use xlink:href="#DejaVuSans-32" x="190.869141"/>
       <use xlink:href="#DejaVuSans-2d" x="254.492188"/>
       <use xlink:href="#DejaVuSans-30" x="290.576172"/>
       <use xlink:href="#DejaVuSans-32" x="354.199219"/>
      </g>
     </g>
    </g>
    <g id="xtick_15">
     <g id="line2d_45">
      <path d="M 233.552843 584.521875 
L 233.552843 331.135938 
" clip-path="url(#p74a31cad19)" style="fill: none; stroke-dasharray: 2.96,1.28; stroke-dashoffset: 0; stroke: #b0b0b0; stroke-width: 0.8"/>
     </g>
     <g id="line2d_46">
      <g>
       <use xlink:href="#m42fa258215" x="233.552843" y="584.521875" style="stroke: #000000; stroke-width: 0.8"/>
      </g>
     </g>
     <g id="text_12">
      <!-- 2022-03 -->
      <g transform="translate(212.661437 599.120312)scale(0.1 -0.1)">
       <defs>
        <path id="DejaVuSans-33" d="M 2597 2516 
Q 3050 2419 3304 2112 
Q 3559 1806 3559 1356 
Q 3559 666 3084 287 
Q 2609 -91 1734 -91 
Q 1441 -91 1130 -33 
Q 819 25 488 141 
L 488 750 
Q 750 597 1062 519 
Q 1375 441 1716 441 
Q 2309 441 2620 675 
Q 2931 909 2931 1356 
Q 2931 1769 2642 2001 
Q 2353 2234 1838 2234 
L 1294 2234 
L 1294 2753 
L 1863 2753 
Q 2328 2753 2575 2939 
Q 2822 3125 2822 3475 
Q 2822 3834 2567 4026 
Q 2313 4219 1838 4219 
Q 1578 4219 1281 4162 
Q 984 4106 628 3988 
L 628 4550 
Q 988 4650 1302 4700 
Q 1616 4750 1894 4750 
Q 2613 4750 3031 4423 
Q 3450 4097 3450 3541 
Q 3450 3153 3228 2886 
Q 3006 2619 2597 2516 
z
" transform="scale(0.015625)"/>
       </defs>
       <use xlink:href="#DejaVuSans-32"/>
       <use xlink:href="#DejaVuSans-30" x="63.623047"/>
       <use xlink:href="#DejaVuSans-32" x="127.246094"/>
       <use xlink:href="#DejaVuSans-32" x="190.869141"/>
       <use xlink:href="#DejaVuSans-2d" x="254.492188"/>
       <use xlink:href="#DejaVuSans-30" x="290.576172"/>
       <use xlink:href="#DejaVuSans-33" x="354.199219"/>
      </g>
     </g>
    </g>
    <g id="xtick_16">
     <g id="line2d_47">
      <path d="M 317.125504 584.521875 
L 317.125504 331.135938 
" clip-path="url(#p74a31cad19)" style="fill: none; stroke-dasharray: 2.96,1.28; stroke-dashoffset: 0; stroke: #b0b0b0; stroke-width: 0.8"/>
     </g>
     <g id="line2d_48">
      <g>
       <use xlink:href="#m42fa258215" x="317.125504" y="584.521875" style="stroke: #000000; stroke-width: 0.8"/>
      </g>
     </g>
     <g id="text_13">
      <!-- 2022-04 -->
      <g transform="translate(296.234098 599.120312)scale(0.1 -0.1)">
       <use xlink:href="#DejaVuSans-32"/>
       <use xlink:href="#DejaVuSans-30" x="63.623047"/>
       <use xlink:href="#DejaVuSans-32" x="127.246094"/>
       <use xlink:href="#DejaVuSans-32" x="190.869141"/>
       <use xlink:href="#DejaVuSans-2d" x="254.492188"/>
       <use xlink:href="#DejaVuSans-30" x="290.576172"/>
       <use xlink:href="#DejaVuSans-34" x="354.199219"/>
      </g>
     </g>
    </g>
    <g id="xtick_17">
     <g id="line2d_49">
      <path d="M 398.002273 584.521875 
L 398.002273 331.135938 
" clip-path="url(#p74a31cad19)" style="fill: none; stroke-dasharray: 2.96,1.28; stroke-dashoffset: 0; stroke: #b0b0b0; stroke-width: 0.8"/>
     </g>
     <g id="line2d_50">
      <g>
       <use xlink:href="#m42fa258215" x="398.002273" y="584.521875" style="stroke: #000000; stroke-width: 0.8"/>
      </g>
     </g>
     <g id="text_14">
      <!-- 2022-05 -->
      <g transform="translate(377.110866 599.120312)scale(0.1 -0.1)">
       <use xlink:href="#DejaVuSans-32"/>
       <use xlink:href="#DejaVuSans-30" x="63.623047"/>
       <use xlink:href="#DejaVuSans-32" x="127.246094"/>
       <use xlink:href="#DejaVuSans-32" x="190.869141"/>
       <use xlink:href="#DejaVuSans-2d" x="254.492188"/>
       <use xlink:href="#DejaVuSans-30" x="290.576172"/>
       <use xlink:href="#DejaVuSans-35" x="354.199219"/>
      </g>
     </g>
    </g>
    <g id="xtick_18">
     <g id="line2d_51">
      <path d="M 481.574934 584.521875 
L 481.574934 331.135938 
" clip-path="url(#p74a31cad19)" style="fill: none; stroke-dasharray: 2.96,1.28; stroke-dashoffset: 0; stroke: #b0b0b0; stroke-width: 0.8"/>
     </g>
     <g id="line2d_52">
      <g>
       <use xlink:href="#m42fa258215" x="481.574934" y="584.521875" style="stroke: #000000; stroke-width: 0.8"/>
      </g>
     </g>
     <g id="text_15">
      <!-- 2022-06 -->
      <g transform="translate(460.683528 599.120312)scale(0.1 -0.1)">
       <use xlink:href="#DejaVuSans-32"/>
       <use xlink:href="#DejaVuSans-30" x="63.623047"/>
       <use xlink:href="#DejaVuSans-32" x="127.246094"/>
       <use xlink:href="#DejaVuSans-32" x="190.869141"/>
       <use xlink:href="#DejaVuSans-2d" x="254.492188"/>
       <use xlink:href="#DejaVuSans-30" x="290.576172"/>
       <use xlink:href="#DejaVuSans-36" x="354.199219"/>
      </g>
     </g>
    </g>
    <g id="xtick_19">
     <g id="line2d_53">
      <path d="M 562.451703 584.521875 
L 562.451703 331.135938 
" clip-path="url(#p74a31cad19)" style="fill: none; stroke-dasharray: 2.96,1.28; stroke-dashoffset: 0; stroke: #b0b0b0; stroke-width: 0.8"/>
     </g>
     <g id="line2d_54">
      <g>
       <use xlink:href="#m42fa258215" x="562.451703" y="584.521875" style="stroke: #000000; stroke-width: 0.8"/>
      </g>
     </g>
     <g id="text_16">
      <!-- 2022-07 -->
      <g transform="translate(541.560296 599.120312)scale(0.1 -0.1)">
       <defs>
        <path id="DejaVuSans-37" d="M 525 4666 
L 3525 4666 
L 3525 4397 
L 1831 0 
L 1172 0 
L 2766 4134 
L 525 4134 
L 525 4666 
z
" transform="scale(0.015625)"/>
       </defs>
       <use xlink:href="#DejaVuSans-32"/>
       <use xlink:href="#DejaVuSans-30" x="63.623047"/>
       <use xlink:href="#DejaVuSans-32" x="127.246094"/>
       <use xlink:href="#DejaVuSans-32" x="190.869141"/>
       <use xlink:href="#DejaVuSans-2d" x="254.492188"/>
       <use xlink:href="#DejaVuSans-30" x="290.576172"/>
       <use xlink:href="#DejaVuSans-37" x="354.199219"/>
      </g>
     </g>
    </g>
    <g id="xtick_20">
     <g id="line2d_55">
      <path d="M 646.024364 584.521875 
L 646.024364 331.135938 
" clip-path="url(#p74a31cad19)" style="fill: none; stroke-dasharray: 2.96,1.28; stroke-dashoffset: 0; stroke: #b0b0b0; stroke-width: 0.8"/>
     </g>
     <g id="line2d_56">
      <g>
       <use xlink:href="#m42fa258215" x="646.024364" y="584.521875" style="stroke: #000000; stroke-width: 0.8"/>
      </g>
     </g>
     <g id="text_17">
      <!-- 2022-08 -->
      <g transform="translate(625.132958 599.120312)scale(0.1 -0.1)">
       <use xlink:href="#DejaVuSans-32"/>
       <use xlink:href="#DejaVuSans-30" x="63.623047"/>
       <use xlink:href="#DejaVuSans-32" x="127.246094"/>
       <use xlink:href="#DejaVuSans-32" x="190.869141"/>
       <use xlink:href="#DejaVuSans-2d" x="254.492188"/>
       <use xlink:href="#DejaVuSans-30" x="290.576172"/>
       <use xlink:href="#DejaVuSans-38" x="354.199219"/>
      </g>
     </g>
    </g>
    <g id="xtick_21">
     <g id="line2d_57">
      <path d="M 729.597025 584.521875 
L 729.597025 331.135938 
" clip-path="url(#p74a31cad19)" style="fill: none; stroke-dasharray: 2.96,1.28; stroke-dashoffset: 0; stroke: #b0b0b0; stroke-width: 0.8"/>
     </g>
     <g id="line2d_58">
      <g>
       <use xlink:href="#m42fa258215" x="729.597025" y="584.521875" style="stroke: #000000; stroke-width: 0.8"/>
      </g>
     </g>
     <g id="text_18">
      <!-- 2022-09 -->
      <g transform="translate(708.705619 599.120312)scale(0.1 -0.1)">
       <defs>
        <path id="DejaVuSans-39" d="M 703 97 
L 703 672 
Q 941 559 1184 500 
Q 1428 441 1663 441 
Q 2288 441 2617 861 
Q 2947 1281 2994 2138 
Q 2813 1869 2534 1725 
Q 2256 1581 1919 1581 
Q 1219 1581 811 2004 
Q 403 2428 403 3163 
Q 403 3881 828 4315 
Q 1253 4750 1959 4750 
Q 2769 4750 3195 4129 
Q 3622 3509 3622 2328 
Q 3622 1225 3098 567 
Q 2575 -91 1691 -91 
Q 1453 -91 1209 -44 
Q 966 3 703 97 
z
M 1959 2075 
Q 2384 2075 2632 2365 
Q 2881 2656 2881 3163 
Q 2881 3666 2632 3958 
Q 2384 4250 1959 4250 
Q 1534 4250 1286 3958 
Q 1038 3666 1038 3163 
Q 1038 2656 1286 2365 
Q 1534 2075 1959 2075 
z
" transform="scale(0.015625)"/>
       </defs>
       <use xlink:href="#DejaVuSans-32"/>
       <use xlink:href="#DejaVuSans-30" x="63.623047"/>
       <use xlink:href="#DejaVuSans-32" x="127.246094"/>
       <use xlink:href="#DejaVuSans-32" x="190.869141"/>
       <use xlink:href="#DejaVuSans-2d" x="254.492188"/>
       <use xlink:href="#DejaVuSans-30" x="290.576172"/>
       <use xlink:href="#DejaVuSans-39" x="354.199219"/>
      </g>
     </g>
    </g>
    <g id="xtick_22">
     <g id="line2d_59">
      <path d="M 810.473794 584.521875 
L 810.473794 331.135938 
" clip-path="url(#p74a31cad19)" style="fill: none; stroke-dasharray: 2.96,1.28; stroke-dashoffset: 0; stroke: #b0b0b0; stroke-width: 0.8"/>
     </g>
     <g id="line2d_60">
      <g>
       <use xlink:href="#m42fa258215" x="810.473794" y="584.521875" style="stroke: #000000; stroke-width: 0.8"/>
      </g>
     </g>
     <g id="text_19">
      <!-- 2022-10 -->
      <g transform="translate(789.582387 599.120312)scale(0.1 -0.1)">
       <use xlink:href="#DejaVuSans-32"/>
       <use xlink:href="#DejaVuSans-30" x="63.623047"/>
       <use xlink:href="#DejaVuSans-32" x="127.246094"/>
       <use xlink:href="#DejaVuSans-32" x="190.869141"/>
       <use xlink:href="#DejaVuSans-2d" x="254.492188"/>
       <use xlink:href="#DejaVuSans-31" x="290.576172"/>
       <use xlink:href="#DejaVuSans-30" x="354.199219"/>
      </g>
     </g>
    </g>
    <g id="xtick_23">
     <g id="line2d_61">
      <path d="M 894.046455 584.521875 
L 894.046455 331.135938 
" clip-path="url(#p74a31cad19)" style="fill: none; stroke-dasharray: 2.96,1.28; stroke-dashoffset: 0; stroke: #b0b0b0; stroke-width: 0.8"/>
     </g>
     <g id="line2d_62">
      <g>
       <use xlink:href="#m42fa258215" x="894.046455" y="584.521875" style="stroke: #000000; stroke-width: 0.8"/>
      </g>
     </g>
     <g id="text_20">
      <!-- 2022-11 -->
      <g transform="translate(873.155049 599.120312)scale(0.1 -0.1)">
       <use xlink:href="#DejaVuSans-32"/>
       <use xlink:href="#DejaVuSans-30" x="63.623047"/>
       <use xlink:href="#DejaVuSans-32" x="127.246094"/>
       <use xlink:href="#DejaVuSans-32" x="190.869141"/>
       <use xlink:href="#DejaVuSans-2d" x="254.492188"/>
       <use xlink:href="#DejaVuSans-31" x="290.576172"/>
       <use xlink:href="#DejaVuSans-31" x="354.199219"/>
      </g>
     </g>
    </g>
    <g id="xtick_24">
     <g id="line2d_63">
      <path d="M 974.923224 584.521875 
L 974.923224 331.135938 
" clip-path="url(#p74a31cad19)" style="fill: none; stroke-dasharray: 2.96,1.28; stroke-dashoffset: 0; stroke: #b0b0b0; stroke-width: 0.8"/>
     </g>
     <g id="line2d_64">
      <g>
       <use xlink:href="#m42fa258215" x="974.923224" y="584.521875" style="stroke: #000000; stroke-width: 0.8"/>
      </g>
     </g>
     <g id="text_21">
      <!-- 2022-12 -->
      <g transform="translate(954.031817 599.120312)scale(0.1 -0.1)">
       <use xlink:href="#DejaVuSans-32"/>
       <use xlink:href="#DejaVuSans-30" x="63.623047"/>
       <use xlink:href="#DejaVuSans-32" x="127.246094"/>
       <use xlink:href="#DejaVuSans-32" x="190.869141"/>
       <use xlink:href="#DejaVuSans-2d" x="254.492188"/>
       <use xlink:href="#DejaVuSans-31" x="290.576172"/>
       <use xlink:href="#DejaVuSans-32" x="354.199219"/>
      </g>
     </g>
    </g>
   </g>
   <g id="matplotlib.axis_4">
    <g id="ytick_7">
     <g id="line2d_65">
      <path d="M 36.8875 579.289493 
L 982.876106 579.289493 
" clip-path="url(#p74a31cad19)" style="fill: none; stroke-dasharray: 2.96,1.28; stroke-dashoffset: 0; stroke: #b0b0b0; stroke-width: 0.8"/>
     </g>
     <g id="line2d_66">
      <g>
       <use xlink:href="#mb9a02b308a" x="36.8875" y="579.289493" style="stroke: #000000; stroke-width: 0.8"/>
      </g>
     </g>
     <g id="text_22">
      <!-- −8 -->
      <g transform="translate(15.145313 583.088712)scale(0.1 -0.1)">
       <defs>
        <path id="DejaVuSans-2212" d="M 678 2272 
L 4684 2272 
L 4684 1741 
L 678 1741 
L 678 2272 
z
" transform="scale(0.015625)"/>
       </defs>
       <use xlink:href="#DejaVuSans-2212"/>
       <use xlink:href="#DejaVuSans-38" x="83.789062"/>
      </g>
     </g>
    </g>
    <g id="ytick_8">
     <g id="line2d_67">
      <path d="M 36.8875 533.636183 
L 982.876106 533.636183 
" clip-path="url(#p74a31cad19)" style="fill: none; stroke-dasharray: 2.96,1.28; stroke-dashoffset: 0; stroke: #b0b0b0; stroke-width: 0.8"/>
     </g>
     <g id="line2d_68">
      <g>
       <use xlink:href="#mb9a02b308a" x="36.8875" y="533.636183" style="stroke: #000000; stroke-width: 0.8"/>
      </g>
     </g>
     <g id="text_23">
      <!-- −6 -->
      <g transform="translate(15.145313 537.435402)scale(0.1 -0.1)">
       <use xlink:href="#DejaVuSans-2212"/>
       <use xlink:href="#DejaVuSans-36" x="83.789062"/>
      </g>
     </g>
    </g>
    <g id="ytick_9">
     <g id="line2d_69">
      <path d="M 36.8875 487.982873 
L 982.876106 487.982873 
" clip-path="url(#p74a31cad19)" style="fill: none; stroke-dasharray: 2.96,1.28; stroke-dashoffset: 0; stroke: #b0b0b0; stroke-width: 0.8"/>
     </g>
     <g id="line2d_70">
      <g>
       <use xlink:href="#mb9a02b308a" x="36.8875" y="487.982873" style="stroke: #000000; stroke-width: 0.8"/>
      </g>
     </g>
     <g id="text_24">
      <!-- −4 -->
      <g transform="translate(15.145313 491.782091)scale(0.1 -0.1)">
       <use xlink:href="#DejaVuSans-2212"/>
       <use xlink:href="#DejaVuSans-34" x="83.789062"/>
      </g>
     </g>
    </g>
    <g id="ytick_10">
     <g id="line2d_71">
      <path d="M 36.8875 442.329562 
L 982.876106 442.329562 
" clip-path="url(#p74a31cad19)" style="fill: none; stroke-dasharray: 2.96,1.28; stroke-dashoffset: 0; stroke: #b0b0b0; stroke-width: 0.8"/>
     </g>
     <g id="line2d_72">
      <g>
       <use xlink:href="#mb9a02b308a" x="36.8875" y="442.329562" style="stroke: #000000; stroke-width: 0.8"/>
      </g>
     </g>
     <g id="text_25">
      <!-- −2 -->
      <g transform="translate(15.145313 446.128781)scale(0.1 -0.1)">
       <use xlink:href="#DejaVuSans-2212"/>
       <use xlink:href="#DejaVuSans-32" x="83.789062"/>
      </g>
     </g>
    </g>
    <g id="ytick_11">
     <g id="line2d_73">
      <path d="M 36.8875 396.676252 
L 982.876106 396.676252 
" clip-path="url(#p74a31cad19)" style="fill: none; stroke-dasharray: 2.96,1.28; stroke-dashoffset: 0; stroke: #b0b0b0; stroke-width: 0.8"/>
     </g>
     <g id="line2d_74">
      <g>
       <use xlink:href="#mb9a02b308a" x="36.8875" y="396.676252" style="stroke: #000000; stroke-width: 0.8"/>
      </g>
     </g>
     <g id="text_26">
      <!-- 0 -->
      <g transform="translate(23.525 400.475471)scale(0.1 -0.1)">
       <use xlink:href="#DejaVuSans-30"/>
      </g>
     </g>
    </g>
    <g id="ytick_12">
     <g id="line2d_75">
      <path d="M 36.8875 351.022942 
L 982.876106 351.022942 
" clip-path="url(#p74a31cad19)" style="fill: none; stroke-dasharray: 2.96,1.28; stroke-dashoffset: 0; stroke: #b0b0b0; stroke-width: 0.8"/>
     </g>
     <g id="line2d_76">
      <g>
       <use xlink:href="#mb9a02b308a" x="36.8875" y="351.022942" style="stroke: #000000; stroke-width: 0.8"/>
      </g>
     </g>
     <g id="text_27">
      <!-- 2 -->
      <g transform="translate(23.525 354.82216)scale(0.1 -0.1)">
       <use xlink:href="#DejaVuSans-32"/>
      </g>
     </g>
    </g>
   </g>
   <g id="line2d_77">
    <path d="M 79.886982 396.676252 
L 82.582874 398.212661 
L 85.278767 401.748497 
L 87.974659 406.487739 
L 90.670551 409.53766 
L 98.758228 410.202048 
L 101.45412 409.257654 
L 104.150013 407.390767 
L 109.541797 402.548148 
L 117.629474 400.227613 
L 120.325366 399.669193 
L 123.021259 404.179679 
L 125.717151 412.750167 
L 128.413043 434.653804 
L 136.50072 481.669581 
L 139.196613 503.616088 
L 144.588397 533.430961 
L 147.284289 556.071685 
L 155.371966 570.333745 
L 158.067859 573.004332 
L 160.763751 566.310513 
L 163.459643 561.899532 
L 166.155535 561.074314 
L 174.243212 559.530837 
L 176.939105 556.420791 
L 179.634997 551.079282 
L 182.330889 544.70666 
L 185.026782 547.474634 
L 193.114458 558.247144 
L 195.810351 564.371448 
L 198.506243 563.436093 
L 201.202135 553.679124 
L 203.898028 549.763244 
L 211.985704 552.368206 
L 214.681597 555.78888 
L 217.377489 548.962345 
L 220.073381 551.651125 
L 222.769274 551.453993 
L 230.856951 547.51771 
L 236.248735 542.88088 
L 238.944627 533.451135 
L 241.64052 528.019719 
L 249.728197 524.379169 
L 252.424089 521.569129 
L 255.119981 514.040593 
L 257.815873 503.516968 
L 260.511766 498.144783 
L 268.599443 493.846229 
L 271.295335 494.277164 
L 273.991227 494.571679 
L 276.68712 484.912497 
L 287.470689 477.145092 
L 290.166581 468.795895 
L 292.862473 462.150746 
L 298.254258 451.679525 
L 306.341935 448.660173 
L 309.037827 448.315755 
L 311.733719 435.097688 
L 314.429612 429.269464 
L 317.125504 420.718592 
L 325.213181 410.220624 
L 327.909073 406.092291 
L 330.604965 401.574497 
L 333.300858 401.690641 
L 335.99675 400.094376 
L 344.084427 396.902346 
L 346.780319 399.746125 
L 349.476211 397.587367 
L 362.955673 397.699495 
L 365.651565 402.220692 
L 368.347458 405.971778 
L 371.04335 407.896936 
L 373.739242 408.550997 
L 381.826919 413.377364 
L 384.522811 415.424228 
L 387.218704 423.626922 
L 389.914596 433.380234 
L 392.610488 444.419531 
L 400.698165 456.613726 
L 406.08995 474.664311 
L 408.785842 493.916917 
L 411.481734 509.074058 
L 419.569411 526.487275 
L 422.265303 546.470547 
L 427.657088 567.933704 
L 430.35298 565.448957 
L 438.440657 562.397292 
L 441.136549 558.572444 
L 443.832442 548.999876 
L 446.528334 545.950667 
L 449.224226 536.947172 
L 457.311903 530.114319 
L 460.007795 508.863099 
L 462.703688 495.757703 
L 465.39958 487.727845 
L 468.095472 477.486823 
L 476.183149 452.160844 
L 478.879042 425.133527 
L 481.574934 403.543046 
L 484.270826 391.555121 
L 486.966718 381.857201 
L 495.054395 378.523945 
L 497.750288 384.311305 
L 500.44618 385.800621 
L 505.837964 382.665326 
L 513.925641 384.298948 
L 516.621534 381.168404 
L 519.317426 378.528311 
L 522.013318 382.128627 
L 524.709211 385.388272 
L 532.796887 391.80317 
L 535.49278 394.972873 
L 538.188672 394.653548 
L 540.884564 390.875978 
L 543.580457 386.252735 
L 551.668133 391.215884 
L 554.364026 405.271927 
L 557.059918 421.648893 
L 559.75581 440.477001 
L 562.451703 450.541336 
L 570.53938 461.181152 
L 575.931164 472.207762 
L 578.627056 475.48941 
L 581.322949 476.525041 
L 589.410626 474.059359 
L 592.106518 465.965202 
L 594.80241 460.017569 
L 597.498302 459.552249 
L 600.194195 461.657672 
L 608.281872 463.11295 
L 610.977764 462.858699 
L 613.673656 462.906768 
L 616.369549 462.007573 
L 619.065441 460.285423 
L 627.153118 469.227679 
L 629.84901 486.241256 
L 632.544902 494.362223 
L 635.240795 496.424992 
L 637.936687 494.901386 
L 646.024364 493.498754 
L 648.720256 474.45304 
L 651.416148 458.82693 
L 654.112041 441.505796 
L 656.807933 433.342194 
L 664.89561 424.980588 
L 670.287394 417.196459 
L 672.983287 407.313149 
L 675.679179 392.438067 
L 686.462748 376.279806 
L 691.854533 347.8948 
L 702.638102 347.038404 
L 705.333994 342.65348 
L 708.029887 343.930718 
L 710.725779 345.714584 
L 721.509348 355.433338 
L 724.20524 363.887233 
L 729.597025 362.690159 
L 732.292917 367.056084 
L 740.380594 370.996325 
L 745.772379 377.480972 
L 748.468271 376.834967 
L 751.164163 373.914606 
L 759.25184 372.341197 
L 761.947732 366.105104 
L 764.643625 365.482659 
L 767.339517 362.983265 
L 770.035409 363.958315 
L 778.123086 363.729401 
L 780.818978 365.928536 
L 783.514871 366.90935 
L 786.210763 368.290157 
L 788.906655 374.247794 
L 796.994332 384.633839 
L 802.386117 397.502631 
L 805.082009 396.85483 
L 807.777901 394.25119 
L 815.865578 393.058356 
L 818.561471 388.250031 
L 823.953255 381.847457 
L 826.649147 369.716469 
L 834.736824 362.067157 
L 837.432717 362.204439 
L 840.128609 365.982509 
L 842.824501 373.844645 
L 845.520393 379.081024 
L 853.60807 382.018418 
L 856.303963 383.849511 
L 858.999855 387.160184 
L 861.695747 391.228159 
L 864.39164 393.56694 
L 872.479316 394.433242 
L 875.175209 391.040438 
L 880.566993 387.536019 
L 883.262886 389.446878 
L 891.350562 390.115911 
L 894.046455 389.986472 
L 896.742347 390.871761 
L 899.438239 393.088255 
L 902.134132 393.40897 
L 910.221809 389.873524 
L 915.613593 386.816926 
L 918.309485 386.992768 
L 921.005378 371.125661 
L 929.093055 364.812317 
L 931.788947 359.591761 
L 934.484839 358.200359 
L 937.180731 359.369631 
L 939.876624 361.712385 
L 939.876624 361.712385 
" clip-path="url(#p74a31cad19)" style="fill: none; stroke: #1f77b4; stroke-width: 1.5; stroke-linecap: square"/>
   </g>
   <g id="line2d_78">
    <path d="M 79.886982 396.676252 
L 82.582874 397.529813 
L 85.278767 399.258782 
L 90.670551 404.036877 
L 98.758228 405.707981 
L 101.45412 406.606308 
L 104.150013 406.794829 
L 106.845905 406.37382 
L 109.541797 405.516648 
L 117.629474 404.359437 
L 120.325366 403.352169 
L 123.021259 403.527299 
L 125.717151 405.45673 
L 128.413043 411.509093 
L 136.50072 425.947599 
L 139.196613 441.839142 
L 144.588397 460.493554 
L 147.284289 479.888694 
L 155.371966 498.188688 
L 158.067859 513.291113 
L 160.763751 523.973817 
L 163.459643 531.604001 
L 166.155535 537.526029 
L 174.243212 541.94368 
L 176.939105 544.84788 
L 179.634997 546.097181 
L 182.330889 545.818538 
L 185.026782 546.15027 
L 193.114458 548.572644 
L 195.810351 551.735537 
L 198.506243 554.077504 
L 201.202135 553.997777 
L 203.898028 553.150441 
L 211.985704 552.99393 
L 214.681597 553.553102 
L 217.377489 552.634712 
L 222.769274 552.241129 
L 230.856951 551.29632 
L 236.248735 549.613053 
L 238.944627 546.380394 
L 241.64052 542.708009 
L 249.728197 539.042042 
L 252.424089 535.547307 
L 255.119981 531.245814 
L 260.511766 520.188746 
L 268.599443 514.920149 
L 271.295335 510.791493 
L 273.991227 507.547493 
L 276.68712 503.020452 
L 287.470689 497.845343 
L 298.254258 474.52001 
L 306.341935 469.34803 
L 309.037827 465.141567 
L 314.429612 453.160111 
L 317.125504 446.671801 
L 325.213181 439.38156 
L 327.909073 432.723702 
L 330.604965 426.493858 
L 333.300858 421.533212 
L 335.99675 417.245444 
L 344.084427 413.176823 
L 349.476211 407.910019 
L 362.955673 405.867914 
L 365.651565 405.13847 
L 368.347458 405.305131 
L 373.739242 406.368993 
L 381.826919 407.770668 
L 384.522811 409.30138 
L 387.218704 412.166488 
L 389.914596 416.409237 
L 392.610488 422.011296 
L 400.698165 428.931782 
L 406.08995 438.078288 
L 408.785842 449.246014 
L 411.481734 461.211623 
L 419.569411 474.266753 
L 422.265303 488.707512 
L 424.961196 502.413286 
L 427.657088 515.517369 
L 430.35298 525.503687 
L 438.440657 532.882408 
L 441.136549 538.020415 
L 443.832442 540.216307 
L 446.528334 541.363179 
L 449.224226 540.479978 
L 457.311903 538.406846 
L 460.007795 532.498097 
L 465.39958 517.665583 
L 468.095472 509.629831 
L 476.183149 498.136034 
L 478.879042 483.535532 
L 481.574934 467.537035 
L 484.270826 452.340652 
L 486.966718 438.243962 
L 495.054395 426.299959 
L 497.750288 417.902228 
L 500.44618 411.481906 
L 503.142072 406.039447 
L 505.837964 401.364623 
L 513.925641 397.951488 
L 519.317426 391.381559 
L 522.013318 389.530973 
L 524.709211 388.702432 
L 532.796887 389.32258 
L 535.49278 390.452639 
L 538.188672 391.29282 
L 540.884564 391.209452 
L 543.580457 390.218109 
L 551.668133 390.417664 
L 554.364026 393.388516 
L 557.059918 399.040592 
L 562.451703 415.970566 
L 570.53938 425.012683 
L 573.235272 433.347772 
L 575.931164 441.11977 
L 578.627056 447.993698 
L 581.322949 453.699967 
L 589.410626 457.771845 
L 592.106518 459.410517 
L 594.80241 459.531927 
L 597.498302 459.535991 
L 600.194195 459.960328 
L 608.281872 460.590852 
L 613.673656 461.416891 
L 616.369549 461.535027 
L 619.065441 461.285106 
L 627.153118 462.873621 
L 629.84901 467.547148 
L 632.544902 472.910163 
L 635.240795 477.613129 
L 637.936687 481.07078 
L 646.024364 483.556375 
L 648.720256 481.735708 
L 651.416148 477.153952 
L 656.807933 462.687896 
L 664.89561 455.146434 
L 670.287394 447.556439 
L 672.983287 439.507781 
L 675.679179 430.093838 
L 686.462748 419.331032 
L 689.15864 407.87117 
L 691.854533 395.875896 
L 694.550425 386.233313 
L 702.638102 378.394331 
L 705.333994 371.246161 
L 708.029887 365.783072 
L 710.725779 361.769375 
L 713.421671 359.045138 
L 721.509348 358.322778 
L 724.20524 359.435669 
L 729.597025 360.086567 
L 732.292917 361.48047 
L 740.380594 363.383641 
L 743.076486 365.563915 
L 745.772379 367.947327 
L 748.468271 369.724855 
L 751.164163 370.562805 
L 759.25184 370.918483 
L 764.643625 369.061178 
L 767.339517 367.845595 
L 770.035409 367.068139 
L 778.123086 366.400392 
L 780.818978 366.306021 
L 783.514871 366.426686 
L 786.210763 366.79938 
L 788.906655 368.289063 
L 796.994332 371.558018 
L 799.690225 375.445678 
L 802.386117 379.857068 
L 805.082009 383.256621 
L 807.777901 385.455535 
L 815.865578 386.976099 
L 818.561471 387.230885 
L 823.953255 386.1542 
L 826.649147 382.866654 
L 834.736824 378.706754 
L 837.432717 375.406291 
L 840.128609 373.521535 
L 842.824501 373.586157 
L 845.520393 374.68513 
L 853.60807 376.151788 
L 856.303963 377.691332 
L 858.999855 379.585103 
L 864.39164 384.244359 
L 872.479316 386.282136 
L 875.175209 387.233796 
L 880.566993 387.294241 
L 883.262886 387.724768 
L 891.350562 388.202997 
L 896.742347 389.022106 
L 902.134132 390.550062 
L 910.221809 390.414755 
L 915.613593 389.695189 
L 918.309485 389.154705 
L 921.005378 385.548896 
L 929.093055 381.40158 
L 931.788947 377.039616 
L 934.484839 373.271765 
L 937.180731 370.491338 
L 939.876624 368.735547 
L 939.876624 368.735547 
" clip-path="url(#p74a31cad19)" style="fill: none; stroke: #ff7f0e; stroke-width: 1.5; stroke-linecap: square"/>
   </g>
   <g id="patch_9">
    <path d="M 36.8875 584.521875 
L 36.8875 331.135937 
" style="fill: none; stroke: #000000; stroke-width: 0.8; stroke-linejoin: miter; stroke-linecap: square"/>
   </g>
   <g id="patch_10">
    <path d="M 982.876106 584.521875 
L 982.876106 331.135937 
" style="fill: none; stroke: #000000; stroke-width: 0.8; stroke-linejoin: miter; stroke-linecap: square"/>
   </g>
   <g id="patch_11">
    <path d="M 36.8875 584.521875 
L 982.876106 584.521875 
" style="fill: none; stroke: #000000; stroke-width: 0.8; stroke-linejoin: miter; stroke-linecap: square"/>
   </g>
   <g id="patch_12">
    <path d="M 36.8875 331.135938 
L 982.876106 331.135938 
" style="fill: none; stroke: #000000; stroke-width: 0.8; stroke-linejoin: miter; stroke-linecap: square"/>
   </g>
   <g id="text_28">
    <!-- MACD -->
    <g transform="translate(491.895865 325.135938)scale(0.12 -0.12)">
     <defs>
      <path id="DejaVuSans-44" d="M 1259 4147 
L 1259 519 
L 2022 519 
Q 2988 519 3436 956 
Q 3884 1394 3884 2338 
Q 3884 3275 3436 3711 
Q 2988 4147 2022 4147 
L 1259 4147 
z
M 628 4666 
L 1925 4666 
Q 3281 4666 3915 4102 
Q 4550 3538 4550 2338 
Q 4550 1131 3912 565 
Q 3275 0 1925 0 
L 628 0 
L 628 4666 
z
" transform="scale(0.015625)"/>
     </defs>
     <use xlink:href="#DejaVuSans-4d"/>
     <use xlink:href="#DejaVuSans-41" x="86.279297"/>
     <use xlink:href="#DejaVuSans-43" x="152.9375"/>
     <use xlink:href="#DejaVuSans-44" x="222.761719"/>
    </g>
   </g>
   <g id="legend_2">
    <g id="patch_13">
     <path d="M 43.8875 368.492188 
L 105.864063 368.492188 
Q 107.864063 368.492188 107.864063 366.492188 
L 107.864063 338.135938 
Q 107.864063 336.135938 105.864063 336.135938 
L 43.8875 336.135938 
Q 41.8875 336.135938 41.8875 338.135938 
L 41.8875 366.492188 
Q 41.8875 368.492188 43.8875 368.492188 
z
" style="fill: #ffffff; opacity: 0.8; stroke: #cccccc; stroke-linejoin: miter"/>
    </g>
    <g id="line2d_79">
     <path d="M 45.8875 344.234375 
L 55.8875 344.234375 
L 65.8875 344.234375 
" style="fill: none; stroke: #1f77b4; stroke-width: 1.5; stroke-linecap: square"/>
    </g>
    <g id="text_29">
     <!-- MACD -->
     <g transform="translate(73.8875 347.734375)scale(0.1 -0.1)">
      <use xlink:href="#DejaVuSans-4d"/>
      <use xlink:href="#DejaVuSans-41" x="86.279297"/>
      <use xlink:href="#DejaVuSans-43" x="152.9375"/>
      <use xlink:href="#DejaVuSans-44" x="222.761719"/>
     </g>
    </g>
    <g id="line2d_80">
     <path d="M 45.8875 358.9125 
L 55.8875 358.9125 
L 65.8875 358.9125 
" style="fill: none; stroke: #ff7f0e; stroke-width: 1.5; stroke-linecap: square"/>
    </g>
    <g id="text_30">
     <!-- SIG -->
     <g transform="translate(73.8875 362.4125)scale(0.1 -0.1)">
      <defs>
       <path id="DejaVuSans-49" d="M 628 4666 
L 1259 4666 
L 1259 0 
L 628 0 
L 628 4666 
z
" transform="scale(0.015625)"/>
       <path id="DejaVuSans-47" d="M 3809 666 
L 3809 1919 
L 2778 1919 
L 2778 2438 
L 4434 2438 
L 4434 434 
Q 4069 175 3628 42 
Q 3188 -91 2688 -91 
Q 1594 -91 976 548 
Q 359 1188 359 2328 
Q 359 3472 976 4111 
Q 1594 4750 2688 4750 
Q 3144 4750 3555 4637 
Q 3966 4525 4313 4306 
L 4313 3634 
Q 3963 3931 3569 4081 
Q 3175 4231 2741 4231 
Q 1884 4231 1454 3753 
Q 1025 3275 1025 2328 
Q 1025 1384 1454 906 
Q 1884 428 2741 428 
Q 3075 428 3337 486 
Q 3600 544 3809 666 
z
" transform="scale(0.015625)"/>
      </defs>
      <use xlink:href="#DejaVuSans-53"/>
      <use xlink:href="#DejaVuSans-49" x="63.476562"/>
      <use xlink:href="#DejaVuSans-47" x="92.96875"/>
     </g>
    </g>
   </g>
  </g>
  <g id="text_31">
   <!-- Zomato Limited -->
   <g transform="translate(456.392812 21.358125)scale(0.12 -0.12)">
    <defs>
     <path id="DejaVuSans-5a" d="M 359 4666 
L 4025 4666 
L 4025 4184 
L 1075 531 
L 4097 531 
L 4097 0 
L 288 0 
L 288 481 
L 3238 4134 
L 359 4134 
L 359 4666 
z
" transform="scale(0.015625)"/>
     <path id="DejaVuSans-6d" d="M 3328 2828 
Q 3544 3216 3844 3400 
Q 4144 3584 4550 3584 
Q 5097 3584 5394 3201 
Q 5691 2819 5691 2113 
L 5691 0 
L 5113 0 
L 5113 2094 
Q 5113 2597 4934 2840 
Q 4756 3084 4391 3084 
Q 3944 3084 3684 2787 
Q 3425 2491 3425 1978 
L 3425 0 
L 2847 0 
L 2847 2094 
Q 2847 2600 2669 2842 
Q 2491 3084 2119 3084 
Q 1678 3084 1418 2786 
Q 1159 2488 1159 1978 
L 1159 0 
L 581 0 
L 581 3500 
L 1159 3500 
L 1159 2956 
Q 1356 3278 1631 3431 
Q 1906 3584 2284 3584 
Q 2666 3584 2933 3390 
Q 3200 3197 3328 2828 
z
" transform="scale(0.015625)"/>
     <path id="DejaVuSans-61" d="M 2194 1759 
Q 1497 1759 1228 1600 
Q 959 1441 959 1056 
Q 959 750 1161 570 
Q 1363 391 1709 391 
Q 2188 391 2477 730 
Q 2766 1069 2766 1631 
L 2766 1759 
L 2194 1759 
z
M 3341 1997 
L 3341 0 
L 2766 0 
L 2766 531 
Q 2569 213 2275 61 
Q 1981 -91 1556 -91 
Q 1019 -91 701 211 
Q 384 513 384 1019 
Q 384 1609 779 1909 
Q 1175 2209 1959 2209 
L 2766 2209 
L 2766 2266 
Q 2766 2663 2505 2880 
Q 2244 3097 1772 3097 
Q 1472 3097 1187 3025 
Q 903 2953 641 2809 
L 641 3341 
Q 956 3463 1253 3523 
Q 1550 3584 1831 3584 
Q 2591 3584 2966 3190 
Q 3341 2797 3341 1997 
z
" transform="scale(0.015625)"/>
     <path id="DejaVuSans-74" d="M 1172 4494 
L 1172 3500 
L 2356 3500 
L 2356 3053 
L 1172 3053 
L 1172 1153 
Q 1172 725 1289 603 
Q 1406 481 1766 481 
L 2356 481 
L 2356 0 
L 1766 0 
Q 1100 0 847 248 
Q 594 497 594 1153 
L 594 3053 
L 172 3053 
L 172 3500 
L 594 3500 
L 594 4494 
L 1172 4494 
z
" transform="scale(0.015625)"/>
     <path id="DejaVuSans-64" d="M 2906 2969 
L 2906 4863 
L 3481 4863 
L 3481 0 
L 2906 0 
L 2906 525 
Q 2725 213 2448 61 
Q 2172 -91 1784 -91 
Q 1150 -91 751 415 
Q 353 922 353 1747 
Q 353 2572 751 3078 
Q 1150 3584 1784 3584 
Q 2172 3584 2448 3432 
Q 2725 3281 2906 2969 
z
M 947 1747 
Q 947 1113 1208 752 
Q 1469 391 1925 391 
Q 2381 391 2643 752 
Q 2906 1113 2906 1747 
Q 2906 2381 2643 2742 
Q 2381 3103 1925 3103 
Q 1469 3103 1208 2742 
Q 947 2381 947 1747 
z
" transform="scale(0.015625)"/>
    </defs>
    <use xlink:href="#DejaVuSans-5a"/>
    <use xlink:href="#DejaVuSans-6f" x="68.505859"/>
    <use xlink:href="#DejaVuSans-6d" x="129.6875"/>
    <use xlink:href="#DejaVuSans-61" x="227.099609"/>
    <use xlink:href="#DejaVuSans-74" x="288.378906"/>
    <use xlink:href="#DejaVuSans-6f" x="327.587891"/>
    <use xlink:href="#DejaVuSans-20" x="388.769531"/>
    <use xlink:href="#DejaVuSans-4c" x="420.556641"/>
    <use xlink:href="#DejaVuSans-69" x="476.269531"/>
    <use xlink:href="#DejaVuSans-6d" x="504.052734"/>
    <use xlink:href="#DejaVuSans-69" x="601.464844"/>
    <use xlink:href="#DejaVuSans-74" x="629.248047"/>
    <use xlink:href="#DejaVuSans-65" x="668.457031"/>
    <use xlink:href="#DejaVuSans-64" x="729.980469"/>
   </g>
  </g>
 </g>
 <defs>
  <clipPath id="p23d248025f">
   <rect x="36.8875" y="48.331875" width="945.988606" height="253.385938"/>
  </clipPath>
  <clipPath id="p74a31cad19">
   <rect x="36.8875" y="331.135938" width="945.988606" height="253.385937"/>
  </clipPath>
 </defs>
</svg>
