<?xml version="1.0" encoding="utf-8" standalone="no"?>
<!DOCTYPE svg PUBLIC "-//W3C//DTD SVG 1.1//EN"
  "http://www.w3.org/Graphics/SVG/1.1/DTD/svg11.dtd">
<svg xmlns:xlink="http://www.w3.org/1999/xlink" width="1008pt" height="612pt" viewBox="0 0 1008 612" xmlns="http://www.w3.org/2000/svg" version="1.1">
 <metadata>
  <rdf:RDF xmlns:dc="http://purl.org/dc/elements/1.1/" xmlns:cc="http://creativecommons.org/ns#" xmlns:rdf="http://www.w3.org/1999/02/22-rdf-syntax-ns#">
   <cc:Work>
    <dc:type rdf:resource="http://purl.org/dc/dcmitype/StillImage"/>
    <dc:date>2022-11-20T19:47:27.548579</dc:date>
    <dc:format>image/svg+xml</dc:format>
    <dc:creator>
     <cc:Agent>
      <dc:title>Matplotlib v3.5.2, https://matplotlib.org/</dc:title>
     </cc:Agent>
    </dc:creator>
   </cc:Work>
  </rdf:RDF>
 </metadata>
 <defs>
  <style type="text/css">*{stroke-linejoin: round; stroke-linecap: butt}</style>
 </defs>
 <g id="figure_1">
  <g id="patch_1">
   <path d="M 0 612 
L 1008 612 
L 1008 0 
L 0 0 
z
" style="fill: #ffffff"/>
  </g>
  <g id="axes_1">
   <g id="patch_2">
    <path d="M 38.904688 301.717812 
L 982.876106 301.717812 
L 982.876106 48.331875 
L 38.904688 48.331875 
z
" style="fill: #ffffff"/>
   </g>
   <g id="matplotlib.axis_1">
    <g id="xtick_1">
     <g id="line2d_1">
      <path d="M 76.432192 301.717812 
L 76.432192 48.331875 
" clip-path="url(#p826eb998da)" style="fill: none; stroke-dasharray: 2.96,1.28; stroke-dashoffset: 0; stroke: #b0b0b0; stroke-width: 0.8"/>
     </g>
     <g id="line2d_2">
      <defs>
       <path id="m65c657dbc7" d="M 0 0 
L 0 3.5 
" style="stroke: #000000; stroke-width: 0.8"/>
      </defs>
      <g>
       <use xlink:href="#m65c657dbc7" x="76.432192" y="301.717812" style="stroke: #000000; stroke-width: 0.8"/>
      </g>
     </g>
    </g>
    <g id="xtick_2">
     <g id="line2d_3">
      <path d="M 159.826646 301.717812 
L 159.826646 48.331875 
" clip-path="url(#p826eb998da)" style="fill: none; stroke-dasharray: 2.96,1.28; stroke-dashoffset: 0; stroke: #b0b0b0; stroke-width: 0.8"/>
     </g>
     <g id="line2d_4">
      <g>
       <use xlink:href="#m65c657dbc7" x="159.826646" y="301.717812" style="stroke: #000000; stroke-width: 0.8"/>
      </g>
     </g>
    </g>
    <g id="xtick_3">
     <g id="line2d_5">
      <path d="M 235.150669 301.717812 
L 235.150669 48.331875 
" clip-path="url(#p826eb998da)" style="fill: none; stroke-dasharray: 2.96,1.28; stroke-dashoffset: 0; stroke: #b0b0b0; stroke-width: 0.8"/>
     </g>
     <g id="line2d_6">
      <g>
       <use xlink:href="#m65c657dbc7" x="235.150669" y="301.717812" style="stroke: #000000; stroke-width: 0.8"/>
      </g>
     </g>
    </g>
    <g id="xtick_4">
     <g id="line2d_7">
      <path d="M 318.545123 301.717812 
L 318.545123 48.331875 
" clip-path="url(#p826eb998da)" style="fill: none; stroke-dasharray: 2.96,1.28; stroke-dashoffset: 0; stroke: #b0b0b0; stroke-width: 0.8"/>
     </g>
     <g id="line2d_8">
      <g>
       <use xlink:href="#m65c657dbc7" x="318.545123" y="301.717812" style="stroke: #000000; stroke-width: 0.8"/>
      </g>
     </g>
    </g>
    <g id="xtick_5">
     <g id="line2d_9">
      <path d="M 399.249434 301.717812 
L 399.249434 48.331875 
" clip-path="url(#p826eb998da)" style="fill: none; stroke-dasharray: 2.96,1.28; stroke-dashoffset: 0; stroke: #b0b0b0; stroke-width: 0.8"/>
     </g>
     <g id="line2d_10">
      <g>
       <use xlink:href="#m65c657dbc7" x="399.249434" y="301.717812" style="stroke: #000000; stroke-width: 0.8"/>
      </g>
     </g>
    </g>
    <g id="xtick_6">
     <g id="line2d_11">
      <path d="M 482.643888 301.717812 
L 482.643888 48.331875 
" clip-path="url(#p826eb998da)" style="fill: none; stroke-dasharray: 2.96,1.28; stroke-dashoffset: 0; stroke: #b0b0b0; stroke-width: 0.8"/>
     </g>
     <g id="line2d_12">
      <g>
       <use xlink:href="#m65c657dbc7" x="482.643888" y="301.717812" style="stroke: #000000; stroke-width: 0.8"/>
      </g>
     </g>
    </g>
    <g id="xtick_7">
     <g id="line2d_13">
      <path d="M 563.348198 301.717812 
L 563.348198 48.331875 
" clip-path="url(#p826eb998da)" style="fill: none; stroke-dasharray: 2.96,1.28; stroke-dashoffset: 0; stroke: #b0b0b0; stroke-width: 0.8"/>
     </g>
     <g id="line2d_14">
      <g>
       <use xlink:href="#m65c657dbc7" x="563.348198" y="301.717812" style="stroke: #000000; stroke-width: 0.8"/>
      </g>
     </g>
    </g>
    <g id="xtick_8">
     <g id="line2d_15">
      <path d="M 646.742653 301.717812 
L 646.742653 48.331875 
" clip-path="url(#p826eb998da)" style="fill: none; stroke-dasharray: 2.96,1.28; stroke-dashoffset: 0; stroke: #b0b0b0; stroke-width: 0.8"/>
     </g>
     <g id="line2d_16">
      <g>
       <use xlink:href="#m65c657dbc7" x="646.742653" y="301.717812" style="stroke: #000000; stroke-width: 0.8"/>
      </g>
     </g>
    </g>
    <g id="xtick_9">
     <g id="line2d_17">
      <path d="M 730.137107 301.717812 
L 730.137107 48.331875 
" clip-path="url(#p826eb998da)" style="fill: none; stroke-dasharray: 2.96,1.28; stroke-dashoffset: 0; stroke: #b0b0b0; stroke-width: 0.8"/>
     </g>
     <g id="line2d_18">
      <g>
       <use xlink:href="#m65c657dbc7" x="730.137107" y="301.717812" style="stroke: #000000; stroke-width: 0.8"/>
      </g>
     </g>
    </g>
    <g id="xtick_10">
     <g id="line2d_19">
      <path d="M 810.841417 301.717812 
L 810.841417 48.331875 
" clip-path="url(#p826eb998da)" style="fill: none; stroke-dasharray: 2.96,1.28; stroke-dashoffset: 0; stroke: #b0b0b0; stroke-width: 0.8"/>
     </g>
     <g id="line2d_20">
      <g>
       <use xlink:href="#m65c657dbc7" x="810.841417" y="301.717812" style="stroke: #000000; stroke-width: 0.8"/>
      </g>
     </g>
    </g>
    <g id="xtick_11">
     <g id="line2d_21">
      <path d="M 894.235872 301.717812 
L 894.235872 48.331875 
" clip-path="url(#p826eb998da)" style="fill: none; stroke-dasharray: 2.96,1.28; stroke-dashoffset: 0; stroke: #b0b0b0; stroke-width: 0.8"/>
     </g>
     <g id="line2d_22">
      <g>
       <use xlink:href="#m65c657dbc7" x="894.235872" y="301.717812" style="stroke: #000000; stroke-width: 0.8"/>
      </g>
     </g>
    </g>
    <g id="xtick_12">
     <g id="line2d_23">
      <path d="M 974.940182 301.717812 
L 974.940182 48.331875 
" clip-path="url(#p826eb998da)" style="fill: none; stroke-dasharray: 2.96,1.28; stroke-dashoffset: 0; stroke: #b0b0b0; stroke-width: 0.8"/>
     </g>
     <g id="line2d_24">
      <g>
       <use xlink:href="#m65c657dbc7" x="974.940182" y="301.717812" style="stroke: #000000; stroke-width: 0.8"/>
      </g>
     </g>
    </g>
   </g>
   <g id="matplotlib.axis_2">
    <g id="ytick_1">
     <g id="line2d_25">
      <path d="M 38.904688 271.120813 
L 982.876106 271.120813 
" clip-path="url(#p826eb998da)" style="fill: none; stroke-dasharray: 2.96,1.28; stroke-dashoffset: 0; stroke: #b0b0b0; stroke-width: 0.8"/>
     </g>
     <g id="line2d_26">
      <defs>
       <path id="m1b9871736b" d="M 0 0 
L -3.5 0 
" style="stroke: #000000; stroke-width: 0.8"/>
      </defs>
      <g>
       <use xlink:href="#m1b9871736b" x="38.904688" y="271.120813" style="stroke: #000000; stroke-width: 0.8"/>
      </g>
     </g>
     <g id="text_1">
      <!-- 750 -->
      <g transform="translate(12.817187 274.920032)scale(0.1 -0.1)">
       <defs>
        <path id="DejaVuSans-37" d="M 525 4666 
L 3525 4666 
L 3525 4397 
L 1831 0 
L 1172 0 
L 2766 4134 
L 525 4134 
L 525 4666 
z
" transform="scale(0.015625)"/>
        <path id="DejaVuSans-35" d="M 691 4666 
L 3169 4666 
L 3169 4134 
L 1269 4134 
L 1269 2991 
Q 1406 3038 1543 3061 
Q 1681 3084 1819 3084 
Q 2600 3084 3056 2656 
Q 3513 2228 3513 1497 
Q 3513 744 3044 326 
Q 2575 -91 1722 -91 
Q 1428 -91 1123 -41 
Q 819 9 494 109 
L 494 744 
Q 775 591 1075 516 
Q 1375 441 1709 441 
Q 2250 441 2565 725 
Q 2881 1009 2881 1497 
Q 2881 1984 2565 2268 
Q 2250 2553 1709 2553 
Q 1456 2553 1204 2497 
Q 953 2441 691 2322 
L 691 4666 
z
" transform="scale(0.015625)"/>
        <path id="DejaVuSans-30" d="M 2034 4250 
Q 1547 4250 1301 3770 
Q 1056 3291 1056 2328 
Q 1056 1369 1301 889 
Q 1547 409 2034 409 
Q 2525 409 2770 889 
Q 3016 1369 3016 2328 
Q 3016 3291 2770 3770 
Q 2525 4250 2034 4250 
z
M 2034 4750 
Q 2819 4750 3233 4129 
Q 3647 3509 3647 2328 
Q 3647 1150 3233 529 
Q 2819 -91 2034 -91 
Q 1250 -91 836 529 
Q 422 1150 422 2328 
Q 422 3509 836 4129 
Q 1250 4750 2034 4750 
z
" transform="scale(0.015625)"/>
       </defs>
       <use xlink:href="#DejaVuSans-37"/>
       <use xlink:href="#DejaVuSans-35" x="63.623047"/>
       <use xlink:href="#DejaVuSans-30" x="127.246094"/>
      </g>
     </g>
    </g>
    <g id="ytick_2">
     <g id="line2d_27">
      <path d="M 38.904688 217.375864 
L 982.876106 217.375864 
" clip-path="url(#p826eb998da)" style="fill: none; stroke-dasharray: 2.96,1.28; stroke-dashoffset: 0; stroke: #b0b0b0; stroke-width: 0.8"/>
     </g>
     <g id="line2d_28">
      <g>
       <use xlink:href="#m1b9871736b" x="38.904688" y="217.375864" style="stroke: #000000; stroke-width: 0.8"/>
      </g>
     </g>
     <g id="text_2">
      <!-- 800 -->
      <g transform="translate(12.817187 221.175082)scale(0.1 -0.1)">
       <defs>
        <path id="DejaVuSans-38" d="M 2034 2216 
Q 1584 2216 1326 1975 
Q 1069 1734 1069 1313 
Q 1069 891 1326 650 
Q 1584 409 2034 409 
Q 2484 409 2743 651 
Q 3003 894 3003 1313 
Q 3003 1734 2745 1975 
Q 2488 2216 2034 2216 
z
M 1403 2484 
Q 997 2584 770 2862 
Q 544 3141 544 3541 
Q 544 4100 942 4425 
Q 1341 4750 2034 4750 
Q 2731 4750 3128 4425 
Q 3525 4100 3525 3541 
Q 3525 3141 3298 2862 
Q 3072 2584 2669 2484 
Q 3125 2378 3379 2068 
Q 3634 1759 3634 1313 
Q 3634 634 3220 271 
Q 2806 -91 2034 -91 
Q 1263 -91 848 271 
Q 434 634 434 1313 
Q 434 1759 690 2068 
Q 947 2378 1403 2484 
z
M 1172 3481 
Q 1172 3119 1398 2916 
Q 1625 2713 2034 2713 
Q 2441 2713 2670 2916 
Q 2900 3119 2900 3481 
Q 2900 3844 2670 4047 
Q 2441 4250 2034 4250 
Q 1625 4250 1398 4047 
Q 1172 3844 1172 3481 
z
" transform="scale(0.015625)"/>
       </defs>
       <use xlink:href="#DejaVuSans-38"/>
       <use xlink:href="#DejaVuSans-30" x="63.623047"/>
       <use xlink:href="#DejaVuSans-30" x="127.246094"/>
      </g>
     </g>
    </g>
    <g id="ytick_3">
     <g id="line2d_29">
      <path d="M 38.904688 163.630915 
L 982.876106 163.630915 
" clip-path="url(#p826eb998da)" style="fill: none; stroke-dasharray: 2.96,1.28; stroke-dashoffset: 0; stroke: #b0b0b0; stroke-width: 0.8"/>
     </g>
     <g id="line2d_30">
      <g>
       <use xlink:href="#m1b9871736b" x="38.904688" y="163.630915" style="stroke: #000000; stroke-width: 0.8"/>
      </g>
     </g>
     <g id="text_3">
      <!-- 850 -->
      <g transform="translate(12.817187 167.430133)scale(0.1 -0.1)">
       <use xlink:href="#DejaVuSans-38"/>
       <use xlink:href="#DejaVuSans-35" x="63.623047"/>
       <use xlink:href="#DejaVuSans-30" x="127.246094"/>
      </g>
     </g>
    </g>
    <g id="ytick_4">
     <g id="line2d_31">
      <path d="M 38.904688 109.885965 
L 982.876106 109.885965 
" clip-path="url(#p826eb998da)" style="fill: none; stroke-dasharray: 2.96,1.28; stroke-dashoffset: 0; stroke: #b0b0b0; stroke-width: 0.8"/>
     </g>
     <g id="line2d_32">
      <g>
       <use xlink:href="#m1b9871736b" x="38.904688" y="109.885965" style="stroke: #000000; stroke-width: 0.8"/>
      </g>
     </g>
     <g id="text_4">
      <!-- 900 -->
      <g transform="translate(12.817187 113.685184)scale(0.1 -0.1)">
       <defs>
        <path id="DejaVuSans-39" d="M 703 97 
L 703 672 
Q 941 559 1184 500 
Q 1428 441 1663 441 
Q 2288 441 2617 861 
Q 2947 1281 2994 2138 
Q 2813 1869 2534 1725 
Q 2256 1581 1919 1581 
Q 1219 1581 811 2004 
Q 403 2428 403 3163 
Q 403 3881 828 4315 
Q 1253 4750 1959 4750 
Q 2769 4750 3195 4129 
Q 3622 3509 3622 2328 
Q 3622 1225 3098 567 
Q 2575 -91 1691 -91 
Q 1453 -91 1209 -44 
Q 966 3 703 97 
z
M 1959 2075 
Q 2384 2075 2632 2365 
Q 2881 2656 2881 3163 
Q 2881 3666 2632 3958 
Q 2384 4250 1959 4250 
Q 1534 4250 1286 3958 
Q 1038 3666 1038 3163 
Q 1038 2656 1286 2365 
Q 1534 2075 1959 2075 
z
" transform="scale(0.015625)"/>
       </defs>
       <use xlink:href="#DejaVuSans-39"/>
       <use xlink:href="#DejaVuSans-30" x="63.623047"/>
       <use xlink:href="#DejaVuSans-30" x="127.246094"/>
      </g>
     </g>
    </g>
    <g id="ytick_5">
     <g id="line2d_33">
      <path d="M 38.904688 56.141016 
L 982.876106 56.141016 
" clip-path="url(#p826eb998da)" style="fill: none; stroke-dasharray: 2.96,1.28; stroke-dashoffset: 0; stroke: #b0b0b0; stroke-width: 0.8"/>
     </g>
     <g id="line2d_34">
      <g>
       <use xlink:href="#m1b9871736b" x="38.904688" y="56.141016" style="stroke: #000000; stroke-width: 0.8"/>
      </g>
     </g>
     <g id="text_5">
      <!-- 950 -->
      <g transform="translate(12.817187 59.940235)scale(0.1 -0.1)">
       <use xlink:href="#DejaVuSans-39"/>
       <use xlink:href="#DejaVuSans-35" x="63.623047"/>
       <use xlink:href="#DejaVuSans-30" x="127.246094"/>
      </g>
     </g>
    </g>
   </g>
   <g id="line2d_35">
    <path d="M 81.812479 109.241026 
L 84.502623 98.760761 
L 87.192767 110.745885 
L 89.88291 113.218152 
L 92.573054 125.472001 
L 100.643485 113.325642 
L 103.333629 129.879086 
L 106.023772 94.08495 
L 108.713916 64.363993 
L 111.40406 62.37543 
L 119.474491 59.849418 
L 122.164634 91.021488 
L 124.854778 84.572094 
L 127.544922 98.653271 
L 130.235066 110.638395 
L 138.305497 157.880205 
L 140.99564 136.812185 
L 146.375928 172.122616 
L 149.066071 158.310165 
L 157.136502 146.002571 
L 159.826646 130.470281 
L 162.51679 123.805907 
L 165.206933 123.107223 
L 167.897077 125.848215 
L 175.967508 157.289011 
L 178.657652 165.995692 
L 184.037939 151.430811 
L 186.728083 169.757839 
L 194.798514 202.757238 
L 197.488658 161.857331 
L 200.178801 163.899639 
L 202.868945 162.394781 
L 205.559089 178.733245 
L 213.62952 175.616038 
L 216.319663 175.562293 
L 219.009807 156.429091 
L 221.699951 169.489114 
L 224.390094 131.3302 
L 232.460525 125.848215 
L 237.840813 127.514309 
L 240.530957 134.877367 
L 243.2211 189.64347 
L 251.291531 244.248338 
L 253.981675 229.092263 
L 256.671819 198.995091 
L 259.361962 167.339316 
L 262.052106 161.642351 
L 270.122537 158.363909 
L 272.812681 154.762998 
L 275.502824 134.339917 
L 278.192968 88.87169 
L 288.953543 104.565215 
L 291.643687 92.526347 
L 294.33383 105.478879 
L 297.023974 103.759041 
L 299.714118 123.644672 
L 307.784549 139.875647 
L 310.474692 153.311884 
L 313.164836 131.11522 
L 315.85498 122.408538 
L 318.545123 110.530905 
L 326.615554 100.104385 
L 329.305698 79.466324 
L 331.995842 79.305089 
L 334.685985 107.037483 
L 337.376129 106.553778 
L 345.44656 98.707016 
L 348.136704 109.402261 
L 350.826848 116.389104 
L 364.277566 123.967142 
L 366.96771 153.956824 
L 369.657853 149.549738 
L 372.347997 140.896801 
L 375.038141 139.768157 
L 383.108572 169.757839 
L 385.798715 141.75672 
L 388.488859 147.238705 
L 391.179003 149.603483 
L 393.869146 149.818463 
L 401.939578 167.823021 
L 407.319865 189.75096 
L 410.010009 198.618876 
L 412.700152 198.672621 
L 420.770583 216.623434 
L 423.460727 209.959061 
L 426.150871 206.089424 
L 428.841014 226.297525 
L 431.531158 193.136892 
L 439.601589 205.659465 
L 442.291733 181.151768 
L 444.981876 176.959662 
L 447.67202 221.890439 
L 450.362164 218.665743 
L 458.432595 234.789227 
L 461.122739 246.129412 
L 463.812882 275.312919 
L 466.503026 263.16656 
L 469.19317 241.238621 
L 477.263601 193.029402 
L 479.953744 207.271813 
L 482.643888 215.763515 
L 485.334032 191.363308 
L 488.024175 210.174041 
L 496.094606 214.581126 
L 498.78475 228.017364 
L 501.474894 247.95674 
L 504.165037 232.31696 
L 506.855181 232.048235 
L 514.925612 238.658864 
L 517.615756 251.826376 
L 520.3059 251.557651 
L 522.996043 273.861805 
L 525.686187 290.20027 
L 533.756618 284.073346 
L 536.446762 267.089942 
L 539.136905 272.679416 
L 541.827049 267.036197 
L 544.517193 258.920709 
L 552.587624 249.354108 
L 555.277767 247.096821 
L 557.967911 275.689134 
L 560.658055 260.640548 
L 563.348198 229.414732 
L 571.41863 219.418172 
L 574.108773 224.846412 
L 576.798917 206.949344 
L 579.489061 201.252379 
L 582.179204 202.273533 
L 590.249635 198.995091 
L 592.939779 205.06827 
L 595.629923 210.120296 
L 598.320066 190.610879 
L 601.01021 191.632033 
L 609.080641 183.89276 
L 611.770785 194.265536 
L 614.460928 199.263816 
L 617.151072 170.725248 
L 619.841216 170.134053 
L 627.911647 147.238705 
L 630.601791 163.2547 
L 633.291934 225.007647 
L 635.982078 238.175159 
L 638.672222 239.948742 
L 646.742653 224.362707 
L 649.432796 233.015644 
L 652.12294 244.248338 
L 654.813084 232.20947 
L 657.503227 231.887 
L 665.573658 237.691455 
L 670.953946 242.85097 
L 673.64409 233.553093 
L 676.334233 230.005927 
L 687.094808 205.17576 
L 689.784952 210.120296 
L 692.475095 208.400457 
L 695.165239 225.975056 
L 705.925814 252.095101 
L 708.615957 243.388419 
L 711.306101 200.28497 
L 713.996245 205.92819 
L 722.066676 215.064831 
L 724.756819 204.638311 
L 730.137107 206.626874 
L 732.827251 191.255818 
L 740.897682 197.436488 
L 743.587825 198.887601 
L 746.277969 210.765235 
L 748.968113 215.81726 
L 751.658256 208.615437 
L 759.728687 176.099743 
L 762.418831 177.013407 
L 765.108975 160.621197 
L 767.799118 159.707533 
L 770.489262 176.422212 
L 778.559693 162.179801 
L 781.249837 141.43425 
L 783.939981 138.747003 
L 786.630124 136.597205 
L 789.320268 140.735566 
L 797.390699 168.199235 
L 800.080843 153.849334 
L 805.46113 175.132334 
L 808.151274 171.907637 
L 816.221705 188.031121 
L 818.911848 151.162086 
L 824.292136 147.72241 
L 826.982279 137.349634 
L 835.05271 155.085468 
L 837.742854 200.60744 
L 840.432998 177.067152 
L 843.123142 188.192356 
L 845.813285 192.115738 
L 853.883716 189.697215 
L 856.57386 180.668063 
L 859.264004 186.687498 
L 861.954147 184.10774 
L 864.644291 195.232945 
L 872.714722 179.270695 
L 875.404866 149.119778 
L 880.785153 138.209554 
L 883.475297 138.639513 
L 891.545728 113.809347 
L 894.235872 115.744165 
L 896.926015 116.335359 
L 899.616159 117.141533 
L 902.306303 126.600645 
L 910.376734 116.066634 
L 915.757021 134.931112 
L 918.447165 132.136374 
L 921.137308 126.11694 
L 929.207739 129.879086 
L 931.897883 103.866531 
L 934.588027 122.032324 
L 937.27817 128.589208 
L 939.968314 137.779594 
L 939.968314 137.779594 
" clip-path="url(#p826eb998da)" style="fill: none; stroke: #1f77b4; stroke-width: 1.5; stroke-linecap: square"/>
   </g>
   <g id="line2d_36">
    <path d="M 92.573054 111.487565 
L 100.643485 112.304488 
L 103.333629 118.528153 
L 106.023772 115.195966 
L 108.713916 105.425135 
L 111.40406 92.80582 
L 119.474491 82.110576 
L 122.164634 74.339056 
L 124.854778 72.436485 
L 127.544922 79.29434 
L 130.235066 88.946933 
L 138.305497 108.553091 
L 140.99564 117.71123 
L 146.375928 135.221334 
L 149.066071 147.152713 
L 157.136502 154.225548 
L 159.826646 148.743564 
L 162.51679 146.142308 
L 165.206933 136.339229 
L 167.897077 129.846839 
L 175.967508 132.104127 
L 181.347796 146.185304 
L 184.037939 151.850022 
L 186.728083 160.631946 
L 194.798514 169.725592 
L 197.488658 168.89792 
L 200.178801 169.940572 
L 202.868945 172.133365 
L 205.559089 173.928447 
L 213.62952 168.500207 
L 216.319663 171.241199 
L 219.009807 169.74709 
L 221.699951 171.165956 
L 224.390094 161.685347 
L 232.460525 151.731783 
L 237.840813 142.122186 
L 240.530957 137.811841 
L 243.2211 141.842712 
L 251.291531 164.42634 
L 253.981675 185.075149 
L 256.671819 199.371306 
L 259.361962 205.863696 
L 262.052106 200.263472 
L 270.122537 183.086586 
L 272.812681 168.220733 
L 275.502824 155.289698 
L 278.192968 139.596173 
L 288.953543 128.180746 
L 291.643687 115.013233 
L 294.33383 105.15641 
L 297.023974 99.040235 
L 299.714118 105.994831 
L 307.784549 113.056917 
L 310.474692 125.214025 
L 313.164836 130.341293 
L 315.85498 134.071192 
L 326.615554 123.494186 
L 329.305698 108.725074 
L 331.995842 98.363048 
L 334.685985 95.288837 
L 337.376129 94.493412 
L 345.44656 94.213938 
L 348.136704 100.201125 
L 350.826848 107.617928 
L 364.277566 111.00386 
L 366.96771 120.484469 
L 369.657853 130.653014 
L 372.347997 136.951922 
L 375.038141 141.627732 
L 383.108572 150.785872 
L 385.798715 148.345851 
L 388.488859 147.883644 
L 391.179003 149.624981 
L 393.869146 151.635042 
L 401.939578 151.248078 
L 407.319865 160.846926 
L 410.010009 171.12296 
L 412.700152 180.936788 
L 420.770583 194.297783 
L 423.460727 202.724991 
L 426.150871 205.992683 
L 428.841014 211.528413 
L 431.531158 210.421267 
L 439.601589 208.228473 
L 444.981876 196.641062 
L 447.67202 195.759645 
L 450.362164 200.865415 
L 458.432595 206.691368 
L 461.122739 219.686897 
L 463.812882 239.357548 
L 466.503026 247.612772 
L 469.19317 252.127348 
L 477.263601 243.775383 
L 479.953744 236.003863 
L 482.643888 224.093982 
L 485.334032 209.733332 
L 488.024175 203.520416 
L 496.094606 207.830761 
L 498.78475 211.979871 
L 501.474894 218.418516 
L 504.165037 226.609246 
L 506.855181 230.984085 
L 514.925612 235.799632 
L 517.615756 240.561435 
L 520.3059 241.281617 
L 522.996043 249.590586 
L 525.686187 261.220993 
L 536.446762 273.356603 
L 539.136905 277.580956 
L 541.827049 276.215834 
L 544.517193 269.959922 
L 552.587624 263.016075 
L 555.277767 259.01745 
L 557.967911 259.619394 
L 560.658055 258.340264 
L 563.348198 252.439069 
L 571.41863 246.451881 
L 574.108773 242.001799 
L 576.798917 228.253841 
L 579.489061 216.376208 
L 582.179204 210.947968 
L 590.249635 206.863352 
L 592.939779 202.907723 
L 595.629923 203.541914 
L 601.01021 199.285314 
L 609.080641 196.264848 
L 614.460928 191.933005 
L 617.151072 187.955879 
L 619.841216 183.656283 
L 627.911647 176.325472 
L 630.601791 170.123304 
L 633.291934 175.272071 
L 638.672222 202.724991 
L 646.742653 218.149791 
L 649.432796 232.10198 
L 652.12294 235.950118 
L 654.813084 234.75698 
L 657.503227 233.144632 
L 665.573658 235.810381 
L 670.953946 237.777446 
L 673.64409 235.638397 
L 676.334233 235.197689 
L 687.094808 229.855441 
L 689.784952 224.341209 
L 692.475095 217.451107 
L 695.165239 215.935499 
L 703.23567 219.041957 
L 705.925814 228.425825 
L 708.615957 235.07945 
L 711.306101 233.456353 
L 713.996245 229.446979 
L 722.066676 223.352302 
L 724.756819 213.860944 
L 730.137107 206.508635 
L 732.827251 204.702805 
L 740.897682 203.004464 
L 743.587825 199.769018 
L 746.277969 200.994403 
L 748.968113 202.83248 
L 751.658256 206.304404 
L 759.728687 202.037055 
L 762.418831 197.662216 
L 765.108975 187.633409 
L 767.799118 176.411463 
L 770.489262 169.972819 
L 778.559693 167.18883 
L 781.249837 160.072999 
L 783.939981 155.69816 
L 786.630124 151.076094 
L 789.320268 143.938765 
L 797.390699 145.142652 
L 800.080843 147.625669 
L 802.770986 152.752937 
L 805.46113 160.459963 
L 808.151274 166.694377 
L 816.221705 170.660754 
L 818.911848 170.123304 
L 824.292136 166.791118 
L 826.982279 159.234578 
L 835.05271 155.870144 
L 837.742854 158.385407 
L 840.432998 163.566421 
L 843.123142 171.66041 
L 845.813285 182.613631 
L 853.883716 189.53598 
L 856.57386 185.548105 
L 859.264004 187.472174 
L 861.954147 186.655251 
L 864.644291 187.278692 
L 872.714722 185.193388 
L 875.404866 178.883731 
L 880.785153 169.188142 
L 883.475297 160.094497 
L 891.545728 143.809777 
L 894.235872 131.104471 
L 896.926015 124.547587 
L 899.616159 120.333983 
L 902.306303 117.92621 
L 910.376734 118.377667 
L 915.757021 122.215057 
L 918.447165 125.37526 
L 921.137308 127.170341 
L 929.207739 127.826029 
L 934.588027 122.806251 
L 937.27817 122.096818 
L 939.968314 124.429349 
L 939.968314 124.429349 
" clip-path="url(#p826eb998da)" style="fill: none; stroke: #ff7f0e; stroke-width: 1.5; stroke-linecap: square"/>
   </g>
   <g id="patch_3">
    <path d="M 38.904688 301.717813 
L 38.904688 48.331875 
" style="fill: none; stroke: #000000; stroke-width: 0.8; stroke-linejoin: miter; stroke-linecap: square"/>
   </g>
   <g id="patch_4">
    <path d="M 982.876106 301.717813 
L 982.876106 48.331875 
" style="fill: none; stroke: #000000; stroke-width: 0.8; stroke-linejoin: miter; stroke-linecap: square"/>
   </g>
   <g id="patch_5">
    <path d="M 38.904687 301.717812 
L 982.876106 301.717812 
" style="fill: none; stroke: #000000; stroke-width: 0.8; stroke-linejoin: miter; stroke-linecap: square"/>
   </g>
   <g id="patch_6">
    <path d="M 38.904687 48.331875 
L 982.876106 48.331875 
" style="fill: none; stroke: #000000; stroke-width: 0.8; stroke-linejoin: miter; stroke-linecap: square"/>
   </g>
   <g id="text_6">
    <!-- Closing Price -->
    <g transform="translate(472.414459 42.331875)scale(0.12 -0.12)">
     <defs>
      <path id="DejaVuSans-43" d="M 4122 4306 
L 4122 3641 
Q 3803 3938 3442 4084 
Q 3081 4231 2675 4231 
Q 1875 4231 1450 3742 
Q 1025 3253 1025 2328 
Q 1025 1406 1450 917 
Q 1875 428 2675 428 
Q 3081 428 3442 575 
Q 3803 722 4122 1019 
L 4122 359 
Q 3791 134 3420 21 
Q 3050 -91 2638 -91 
Q 1578 -91 968 557 
Q 359 1206 359 2328 
Q 359 3453 968 4101 
Q 1578 4750 2638 4750 
Q 3056 4750 3426 4639 
Q 3797 4528 4122 4306 
z
" transform="scale(0.015625)"/>
      <path id="DejaVuSans-6c" d="M 603 4863 
L 1178 4863 
L 1178 0 
L 603 0 
L 603 4863 
z
" transform="scale(0.015625)"/>
      <path id="DejaVuSans-6f" d="M 1959 3097 
Q 1497 3097 1228 2736 
Q 959 2375 959 1747 
Q 959 1119 1226 758 
Q 1494 397 1959 397 
Q 2419 397 2687 759 
Q 2956 1122 2956 1747 
Q 2956 2369 2687 2733 
Q 2419 3097 1959 3097 
z
M 1959 3584 
Q 2709 3584 3137 3096 
Q 3566 2609 3566 1747 
Q 3566 888 3137 398 
Q 2709 -91 1959 -91 
Q 1206 -91 779 398 
Q 353 888 353 1747 
Q 353 2609 779 3096 
Q 1206 3584 1959 3584 
z
" transform="scale(0.015625)"/>
      <path id="DejaVuSans-73" d="M 2834 3397 
L 2834 2853 
Q 2591 2978 2328 3040 
Q 2066 3103 1784 3103 
Q 1356 3103 1142 2972 
Q 928 2841 928 2578 
Q 928 2378 1081 2264 
Q 1234 2150 1697 2047 
L 1894 2003 
Q 2506 1872 2764 1633 
Q 3022 1394 3022 966 
Q 3022 478 2636 193 
Q 2250 -91 1575 -91 
Q 1294 -91 989 -36 
Q 684 19 347 128 
L 347 722 
Q 666 556 975 473 
Q 1284 391 1588 391 
Q 1994 391 2212 530 
Q 2431 669 2431 922 
Q 2431 1156 2273 1281 
Q 2116 1406 1581 1522 
L 1381 1569 
Q 847 1681 609 1914 
Q 372 2147 372 2553 
Q 372 3047 722 3315 
Q 1072 3584 1716 3584 
Q 2034 3584 2315 3537 
Q 2597 3491 2834 3397 
z
" transform="scale(0.015625)"/>
      <path id="DejaVuSans-69" d="M 603 3500 
L 1178 3500 
L 1178 0 
L 603 0 
L 603 3500 
z
M 603 4863 
L 1178 4863 
L 1178 4134 
L 603 4134 
L 603 4863 
z
" transform="scale(0.015625)"/>
      <path id="DejaVuSans-6e" d="M 3513 2113 
L 3513 0 
L 2938 0 
L 2938 2094 
Q 2938 2591 2744 2837 
Q 2550 3084 2163 3084 
Q 1697 3084 1428 2787 
Q 1159 2491 1159 1978 
L 1159 0 
L 581 0 
L 581 3500 
L 1159 3500 
L 1159 2956 
Q 1366 3272 1645 3428 
Q 1925 3584 2291 3584 
Q 2894 3584 3203 3211 
Q 3513 2838 3513 2113 
z
" transform="scale(0.015625)"/>
      <path id="DejaVuSans-67" d="M 2906 1791 
Q 2906 2416 2648 2759 
Q 2391 3103 1925 3103 
Q 1463 3103 1205 2759 
Q 947 2416 947 1791 
Q 947 1169 1205 825 
Q 1463 481 1925 481 
Q 2391 481 2648 825 
Q 2906 1169 2906 1791 
z
M 3481 434 
Q 3481 -459 3084 -895 
Q 2688 -1331 1869 -1331 
Q 1566 -1331 1297 -1286 
Q 1028 -1241 775 -1147 
L 775 -588 
Q 1028 -725 1275 -790 
Q 1522 -856 1778 -856 
Q 2344 -856 2625 -561 
Q 2906 -266 2906 331 
L 2906 616 
Q 2728 306 2450 153 
Q 2172 0 1784 0 
Q 1141 0 747 490 
Q 353 981 353 1791 
Q 353 2603 747 3093 
Q 1141 3584 1784 3584 
Q 2172 3584 2450 3431 
Q 2728 3278 2906 2969 
L 2906 3500 
L 3481 3500 
L 3481 434 
z
" transform="scale(0.015625)"/>
      <path id="DejaVuSans-20" transform="scale(0.015625)"/>
      <path id="DejaVuSans-50" d="M 1259 4147 
L 1259 2394 
L 2053 2394 
Q 2494 2394 2734 2622 
Q 2975 2850 2975 3272 
Q 2975 3691 2734 3919 
Q 2494 4147 2053 4147 
L 1259 4147 
z
M 628 4666 
L 2053 4666 
Q 2838 4666 3239 4311 
Q 3641 3956 3641 3272 
Q 3641 2581 3239 2228 
Q 2838 1875 2053 1875 
L 1259 1875 
L 1259 0 
L 628 0 
L 628 4666 
z
" transform="scale(0.015625)"/>
      <path id="DejaVuSans-72" d="M 2631 2963 
Q 2534 3019 2420 3045 
Q 2306 3072 2169 3072 
Q 1681 3072 1420 2755 
Q 1159 2438 1159 1844 
L 1159 0 
L 581 0 
L 581 3500 
L 1159 3500 
L 1159 2956 
Q 1341 3275 1631 3429 
Q 1922 3584 2338 3584 
Q 2397 3584 2469 3576 
Q 2541 3569 2628 3553 
L 2631 2963 
z
" transform="scale(0.015625)"/>
      <path id="DejaVuSans-63" d="M 3122 3366 
L 3122 2828 
Q 2878 2963 2633 3030 
Q 2388 3097 2138 3097 
Q 1578 3097 1268 2742 
Q 959 2388 959 1747 
Q 959 1106 1268 751 
Q 1578 397 2138 397 
Q 2388 397 2633 464 
Q 2878 531 3122 666 
L 3122 134 
Q 2881 22 2623 -34 
Q 2366 -91 2075 -91 
Q 1284 -91 818 406 
Q 353 903 353 1747 
Q 353 2603 823 3093 
Q 1294 3584 2113 3584 
Q 2378 3584 2631 3529 
Q 2884 3475 3122 3366 
z
" transform="scale(0.015625)"/>
      <path id="DejaVuSans-65" d="M 3597 1894 
L 3597 1613 
L 953 1613 
Q 991 1019 1311 708 
Q 1631 397 2203 397 
Q 2534 397 2845 478 
Q 3156 559 3463 722 
L 3463 178 
Q 3153 47 2828 -22 
Q 2503 -91 2169 -91 
Q 1331 -91 842 396 
Q 353 884 353 1716 
Q 353 2575 817 3079 
Q 1281 3584 2069 3584 
Q 2775 3584 3186 3129 
Q 3597 2675 3597 1894 
z
M 3022 2063 
Q 3016 2534 2758 2815 
Q 2500 3097 2075 3097 
Q 1594 3097 1305 2825 
Q 1016 2553 972 2059 
L 3022 2063 
z
" transform="scale(0.015625)"/>
     </defs>
     <use xlink:href="#DejaVuSans-43"/>
     <use xlink:href="#DejaVuSans-6c" x="69.824219"/>
     <use xlink:href="#DejaVuSans-6f" x="97.607422"/>
     <use xlink:href="#DejaVuSans-73" x="158.789062"/>
     <use xlink:href="#DejaVuSans-69" x="210.888672"/>
     <use xlink:href="#DejaVuSans-6e" x="238.671875"/>
     <use xlink:href="#DejaVuSans-67" x="302.050781"/>
     <use xlink:href="#DejaVuSans-20" x="365.527344"/>
     <use xlink:href="#DejaVuSans-50" x="397.314453"/>
     <use xlink:href="#DejaVuSans-72" x="455.867188"/>
     <use xlink:href="#DejaVuSans-69" x="496.980469"/>
     <use xlink:href="#DejaVuSans-63" x="524.763672"/>
     <use xlink:href="#DejaVuSans-65" x="579.744141"/>
    </g>
   </g>
   <g id="legend_1">
    <g id="patch_7">
     <path d="M 911.144856 85.688125 
L 975.876106 85.688125 
Q 977.876106 85.688125 977.876106 83.688125 
L 977.876106 55.331875 
Q 977.876106 53.331875 975.876106 53.331875 
L 911.144856 53.331875 
Q 909.144856 53.331875 909.144856 55.331875 
L 909.144856 83.688125 
Q 909.144856 85.688125 911.144856 85.688125 
z
" style="fill: #ffffff; opacity: 0.8; stroke: #cccccc; stroke-linejoin: miter"/>
    </g>
    <g id="line2d_37">
     <path d="M 913.144856 61.430312 
L 923.144856 61.430312 
L 933.144856 61.430312 
" style="fill: none; stroke: #1f77b4; stroke-width: 1.5; stroke-linecap: square"/>
    </g>
    <g id="text_7">
     <!-- CLOSE -->
     <g transform="translate(941.144856 64.930312)scale(0.1 -0.1)">
      <defs>
       <path id="DejaVuSans-4c" d="M 628 4666 
L 1259 4666 
L 1259 531 
L 3531 531 
L 3531 0 
L 628 0 
L 628 4666 
z
" transform="scale(0.015625)"/>
       <path id="DejaVuSans-4f" d="M 2522 4238 
Q 1834 4238 1429 3725 
Q 1025 3213 1025 2328 
Q 1025 1447 1429 934 
Q 1834 422 2522 422 
Q 3209 422 3611 934 
Q 4013 1447 4013 2328 
Q 4013 3213 3611 3725 
Q 3209 4238 2522 4238 
z
M 2522 4750 
Q 3503 4750 4090 4092 
Q 4678 3434 4678 2328 
Q 4678 1225 4090 567 
Q 3503 -91 2522 -91 
Q 1538 -91 948 565 
Q 359 1222 359 2328 
Q 359 3434 948 4092 
Q 1538 4750 2522 4750 
z
" transform="scale(0.015625)"/>
       <path id="DejaVuSans-53" d="M 3425 4513 
L 3425 3897 
Q 3066 4069 2747 4153 
Q 2428 4238 2131 4238 
Q 1616 4238 1336 4038 
Q 1056 3838 1056 3469 
Q 1056 3159 1242 3001 
Q 1428 2844 1947 2747 
L 2328 2669 
Q 3034 2534 3370 2195 
Q 3706 1856 3706 1288 
Q 3706 609 3251 259 
Q 2797 -91 1919 -91 
Q 1588 -91 1214 -16 
Q 841 59 441 206 
L 441 856 
Q 825 641 1194 531 
Q 1563 422 1919 422 
Q 2459 422 2753 634 
Q 3047 847 3047 1241 
Q 3047 1584 2836 1778 
Q 2625 1972 2144 2069 
L 1759 2144 
Q 1053 2284 737 2584 
Q 422 2884 422 3419 
Q 422 4038 858 4394 
Q 1294 4750 2059 4750 
Q 2388 4750 2728 4690 
Q 3069 4631 3425 4513 
z
" transform="scale(0.015625)"/>
       <path id="DejaVuSans-45" d="M 628 4666 
L 3578 4666 
L 3578 4134 
L 1259 4134 
L 1259 2753 
L 3481 2753 
L 3481 2222 
L 1259 2222 
L 1259 531 
L 3634 531 
L 3634 0 
L 628 0 
L 628 4666 
z
" transform="scale(0.015625)"/>
      </defs>
      <use xlink:href="#DejaVuSans-43"/>
      <use xlink:href="#DejaVuSans-4c" x="69.824219"/>
      <use xlink:href="#DejaVuSans-4f" x="121.912109"/>
      <use xlink:href="#DejaVuSans-53" x="200.623047"/>
      <use xlink:href="#DejaVuSans-45" x="264.099609"/>
     </g>
    </g>
    <g id="line2d_38">
     <path d="M 913.144856 76.108437 
L 923.144856 76.108437 
L 933.144856 76.108437 
" style="fill: none; stroke: #ff7f0e; stroke-width: 1.5; stroke-linecap: square"/>
    </g>
    <g id="text_8">
     <!-- SMA5 -->
     <g transform="translate(941.144856 79.608437)scale(0.1 -0.1)">
      <defs>
       <path id="DejaVuSans-4d" d="M 628 4666 
L 1569 4666 
L 2759 1491 
L 3956 4666 
L 4897 4666 
L 4897 0 
L 4281 0 
L 4281 4097 
L 3078 897 
L 2444 897 
L 1241 4097 
L 1241 0 
L 628 0 
L 628 4666 
z
" transform="scale(0.015625)"/>
       <path id="DejaVuSans-41" d="M 2188 4044 
L 1331 1722 
L 3047 1722 
L 2188 4044 
z
M 1831 4666 
L 2547 4666 
L 4325 0 
L 3669 0 
L 3244 1197 
L 1141 1197 
L 716 0 
L 50 0 
L 1831 4666 
z
" transform="scale(0.015625)"/>
      </defs>
      <use xlink:href="#DejaVuSans-53"/>
      <use xlink:href="#DejaVuSans-4d" x="63.476562"/>
      <use xlink:href="#DejaVuSans-41" x="149.755859"/>
      <use xlink:href="#DejaVuSans-35" x="218.164062"/>
     </g>
    </g>
   </g>
  </g>
  <g id="axes_2">
   <g id="patch_8">
    <path d="M 38.904688 584.521875 
L 982.876106 584.521875 
L 982.876106 331.135938 
L 38.904688 331.135938 
z
" style="fill: #ffffff"/>
   </g>
   <g id="matplotlib.axis_3">
    <g id="xtick_13">
     <g id="line2d_39">
      <path d="M 76.432192 584.521875 
L 76.432192 331.135938 
" clip-path="url(#pa89d8ed5d5)" style="fill: none; stroke-dasharray: 2.96,1.28; stroke-dashoffset: 0; stroke: #b0b0b0; stroke-width: 0.8"/>
     </g>
     <g id="line2d_40">
      <g>
       <use xlink:href="#m65c657dbc7" x="76.432192" y="584.521875" style="stroke: #000000; stroke-width: 0.8"/>
      </g>
     </g>
     <g id="text_9">
      <!-- 2022-01 -->
      <g transform="translate(55.540786 599.120312)scale(0.1 -0.1)">
       <defs>
        <path id="DejaVuSans-32" d="M 1228 531 
L 3431 531 
L 3431 0 
L 469 0 
L 469 531 
Q 828 903 1448 1529 
Q 2069 2156 2228 2338 
Q 2531 2678 2651 2914 
Q 2772 3150 2772 3378 
Q 2772 3750 2511 3984 
Q 2250 4219 1831 4219 
Q 1534 4219 1204 4116 
Q 875 4013 500 3803 
L 500 4441 
Q 881 4594 1212 4672 
Q 1544 4750 1819 4750 
Q 2544 4750 2975 4387 
Q 3406 4025 3406 3419 
Q 3406 3131 3298 2873 
Q 3191 2616 2906 2266 
Q 2828 2175 2409 1742 
Q 1991 1309 1228 531 
z
" transform="scale(0.015625)"/>
        <path id="DejaVuSans-2d" d="M 313 2009 
L 1997 2009 
L 1997 1497 
L 313 1497 
L 313 2009 
z
" transform="scale(0.015625)"/>
        <path id="DejaVuSans-31" d="M 794 531 
L 1825 531 
L 1825 4091 
L 703 3866 
L 703 4441 
L 1819 4666 
L 2450 4666 
L 2450 531 
L 3481 531 
L 3481 0 
L 794 0 
L 794 531 
z
" transform="scale(0.015625)"/>
       </defs>
       <use xlink:href="#DejaVuSans-32"/>
       <use xlink:href="#DejaVuSans-30" x="63.623047"/>
       <use xlink:href="#DejaVuSans-32" x="127.246094"/>
       <use xlink:href="#DejaVuSans-32" x="190.869141"/>
       <use xlink:href="#DejaVuSans-2d" x="254.492188"/>
       <use xlink:href="#DejaVuSans-30" x="290.576172"/>
       <use xlink:href="#DejaVuSans-31" x="354.199219"/>
      </g>
     </g>
    </g>
    <g id="xtick_14">
     <g id="line2d_41">
      <path d="M 159.826646 584.521875 
L 159.826646 331.135938 
" clip-path="url(#pa89d8ed5d5)" style="fill: none; stroke-dasharray: 2.96,1.28; stroke-dashoffset: 0; stroke: #b0b0b0; stroke-width: 0.8"/>
     </g>
     <g id="line2d_42">
      <g>
       <use xlink:href="#m65c657dbc7" x="159.826646" y="584.521875" style="stroke: #000000; stroke-width: 0.8"/>
      </g>
     </g>
     <g id="text_10">
      <!-- 2022-02 -->
      <g transform="translate(138.93524 599.120312)scale(0.1 -0.1)">
       <use xlink:href="#DejaVuSans-32"/>
       <use xlink:href="#DejaVuSans-30" x="63.623047"/>
       <use xlink:href="#DejaVuSans-32" x="127.246094"/>
       <use xlink:href="#DejaVuSans-32" x="190.869141"/>
       <use xlink:href="#DejaVuSans-2d" x="254.492188"/>
       <use xlink:href="#DejaVuSans-30" x="290.576172"/>
       <use xlink:href="#DejaVuSans-32" x="354.199219"/>
      </g>
     </g>
    </g>
    <g id="xtick_15">
     <g id="line2d_43">
      <path d="M 235.150669 584.521875 
L 235.150669 331.135938 
" clip-path="url(#pa89d8ed5d5)" style="fill: none; stroke-dasharray: 2.96,1.28; stroke-dashoffset: 0; stroke: #b0b0b0; stroke-width: 0.8"/>
     </g>
     <g id="line2d_44">
      <g>
       <use xlink:href="#m65c657dbc7" x="235.150669" y="584.521875" style="stroke: #000000; stroke-width: 0.8"/>
      </g>
     </g>
     <g id="text_11">
      <!-- 2022-03 -->
      <g transform="translate(214.259263 599.120312)scale(0.1 -0.1)">
       <defs>
        <path id="DejaVuSans-33" d="M 2597 2516 
Q 3050 2419 3304 2112 
Q 3559 1806 3559 1356 
Q 3559 666 3084 287 
Q 2609 -91 1734 -91 
Q 1441 -91 1130 -33 
Q 819 25 488 141 
L 488 750 
Q 750 597 1062 519 
Q 1375 441 1716 441 
Q 2309 441 2620 675 
Q 2931 909 2931 1356 
Q 2931 1769 2642 2001 
Q 2353 2234 1838 2234 
L 1294 2234 
L 1294 2753 
L 1863 2753 
Q 2328 2753 2575 2939 
Q 2822 3125 2822 3475 
Q 2822 3834 2567 4026 
Q 2313 4219 1838 4219 
Q 1578 4219 1281 4162 
Q 984 4106 628 3988 
L 628 4550 
Q 988 4650 1302 4700 
Q 1616 4750 1894 4750 
Q 2613 4750 3031 4423 
Q 3450 4097 3450 3541 
Q 3450 3153 3228 2886 
Q 3006 2619 2597 2516 
z
" transform="scale(0.015625)"/>
       </defs>
       <use xlink:href="#DejaVuSans-32"/>
       <use xlink:href="#DejaVuSans-30" x="63.623047"/>
       <use xlink:href="#DejaVuSans-32" x="127.246094"/>
       <use xlink:href="#DejaVuSans-32" x="190.869141"/>
       <use xlink:href="#DejaVuSans-2d" x="254.492188"/>
       <use xlink:href="#DejaVuSans-30" x="290.576172"/>
       <use xlink:href="#DejaVuSans-33" x="354.199219"/>
      </g>
     </g>
    </g>
    <g id="xtick_16">
     <g id="line2d_45">
      <path d="M 318.545123 584.521875 
L 318.545123 331.135938 
" clip-path="url(#pa89d8ed5d5)" style="fill: none; stroke-dasharray: 2.96,1.28; stroke-dashoffset: 0; stroke: #b0b0b0; stroke-width: 0.8"/>
     </g>
     <g id="line2d_46">
      <g>
       <use xlink:href="#m65c657dbc7" x="318.545123" y="584.521875" style="stroke: #000000; stroke-width: 0.8"/>
      </g>
     </g>
     <g id="text_12">
      <!-- 2022-04 -->
      <g transform="translate(297.653717 599.120312)scale(0.1 -0.1)">
       <defs>
        <path id="DejaVuSans-34" d="M 2419 4116 
L 825 1625 
L 2419 1625 
L 2419 4116 
z
M 2253 4666 
L 3047 4666 
L 3047 1625 
L 3713 1625 
L 3713 1100 
L 3047 1100 
L 3047 0 
L 2419 0 
L 2419 1100 
L 313 1100 
L 313 1709 
L 2253 4666 
z
" transform="scale(0.015625)"/>
       </defs>
       <use xlink:href="#DejaVuSans-32"/>
       <use xlink:href="#DejaVuSans-30" x="63.623047"/>
       <use xlink:href="#DejaVuSans-32" x="127.246094"/>
       <use xlink:href="#DejaVuSans-32" x="190.869141"/>
       <use xlink:href="#DejaVuSans-2d" x="254.492188"/>
       <use xlink:href="#DejaVuSans-30" x="290.576172"/>
       <use xlink:href="#DejaVuSans-34" x="354.199219"/>
      </g>
     </g>
    </g>
    <g id="xtick_17">
     <g id="line2d_47">
      <path d="M 399.249434 584.521875 
L 399.249434 331.135938 
" clip-path="url(#pa89d8ed5d5)" style="fill: none; stroke-dasharray: 2.96,1.28; stroke-dashoffset: 0; stroke: #b0b0b0; stroke-width: 0.8"/>
     </g>
     <g id="line2d_48">
      <g>
       <use xlink:href="#m65c657dbc7" x="399.249434" y="584.521875" style="stroke: #000000; stroke-width: 0.8"/>
      </g>
     </g>
     <g id="text_13">
      <!-- 2022-05 -->
      <g transform="translate(378.358028 599.120312)scale(0.1 -0.1)">
       <use xlink:href="#DejaVuSans-32"/>
       <use xlink:href="#DejaVuSans-30" x="63.623047"/>
       <use xlink:href="#DejaVuSans-32" x="127.246094"/>
       <use xlink:href="#DejaVuSans-32" x="190.869141"/>
       <use xlink:href="#DejaVuSans-2d" x="254.492188"/>
       <use xlink:href="#DejaVuSans-30" x="290.576172"/>
       <use xlink:href="#DejaVuSans-35" x="354.199219"/>
      </g>
     </g>
    </g>
    <g id="xtick_18">
     <g id="line2d_49">
      <path d="M 482.643888 584.521875 
L 482.643888 331.135938 
" clip-path="url(#pa89d8ed5d5)" style="fill: none; stroke-dasharray: 2.96,1.28; stroke-dashoffset: 0; stroke: #b0b0b0; stroke-width: 0.8"/>
     </g>
     <g id="line2d_50">
      <g>
       <use xlink:href="#m65c657dbc7" x="482.643888" y="584.521875" style="stroke: #000000; stroke-width: 0.8"/>
      </g>
     </g>
     <g id="text_14">
      <!-- 2022-06 -->
      <g transform="translate(461.752482 599.120312)scale(0.1 -0.1)">
       <defs>
        <path id="DejaVuSans-36" d="M 2113 2584 
Q 1688 2584 1439 2293 
Q 1191 2003 1191 1497 
Q 1191 994 1439 701 
Q 1688 409 2113 409 
Q 2538 409 2786 701 
Q 3034 994 3034 1497 
Q 3034 2003 2786 2293 
Q 2538 2584 2113 2584 
z
M 3366 4563 
L 3366 3988 
Q 3128 4100 2886 4159 
Q 2644 4219 2406 4219 
Q 1781 4219 1451 3797 
Q 1122 3375 1075 2522 
Q 1259 2794 1537 2939 
Q 1816 3084 2150 3084 
Q 2853 3084 3261 2657 
Q 3669 2231 3669 1497 
Q 3669 778 3244 343 
Q 2819 -91 2113 -91 
Q 1303 -91 875 529 
Q 447 1150 447 2328 
Q 447 3434 972 4092 
Q 1497 4750 2381 4750 
Q 2619 4750 2861 4703 
Q 3103 4656 3366 4563 
z
" transform="scale(0.015625)"/>
       </defs>
       <use xlink:href="#DejaVuSans-32"/>
       <use xlink:href="#DejaVuSans-30" x="63.623047"/>
       <use xlink:href="#DejaVuSans-32" x="127.246094"/>
       <use xlink:href="#DejaVuSans-32" x="190.869141"/>
       <use xlink:href="#DejaVuSans-2d" x="254.492188"/>
       <use xlink:href="#DejaVuSans-30" x="290.576172"/>
       <use xlink:href="#DejaVuSans-36" x="354.199219"/>
      </g>
     </g>
    </g>
    <g id="xtick_19">
     <g id="line2d_51">
      <path d="M 563.348198 584.521875 
L 563.348198 331.135938 
" clip-path="url(#pa89d8ed5d5)" style="fill: none; stroke-dasharray: 2.96,1.28; stroke-dashoffset: 0; stroke: #b0b0b0; stroke-width: 0.8"/>
     </g>
     <g id="line2d_52">
      <g>
       <use xlink:href="#m65c657dbc7" x="563.348198" y="584.521875" style="stroke: #000000; stroke-width: 0.8"/>
      </g>
     </g>
     <g id="text_15">
      <!-- 2022-07 -->
      <g transform="translate(542.456792 599.120312)scale(0.1 -0.1)">
       <use xlink:href="#DejaVuSans-32"/>
       <use xlink:href="#DejaVuSans-30" x="63.623047"/>
       <use xlink:href="#DejaVuSans-32" x="127.246094"/>
       <use xlink:href="#DejaVuSans-32" x="190.869141"/>
       <use xlink:href="#DejaVuSans-2d" x="254.492188"/>
       <use xlink:href="#DejaVuSans-30" x="290.576172"/>
       <use xlink:href="#DejaVuSans-37" x="354.199219"/>
      </g>
     </g>
    </g>
    <g id="xtick_20">
     <g id="line2d_53">
      <path d="M 646.742653 584.521875 
L 646.742653 331.135938 
" clip-path="url(#pa89d8ed5d5)" style="fill: none; stroke-dasharray: 2.96,1.28; stroke-dashoffset: 0; stroke: #b0b0b0; stroke-width: 0.8"/>
     </g>
     <g id="line2d_54">
      <g>
       <use xlink:href="#m65c657dbc7" x="646.742653" y="584.521875" style="stroke: #000000; stroke-width: 0.8"/>
      </g>
     </g>
     <g id="text_16">
      <!-- 2022-08 -->
      <g transform="translate(625.851246 599.120312)scale(0.1 -0.1)">
       <use xlink:href="#DejaVuSans-32"/>
       <use xlink:href="#DejaVuSans-30" x="63.623047"/>
       <use xlink:href="#DejaVuSans-32" x="127.246094"/>
       <use xlink:href="#DejaVuSans-32" x="190.869141"/>
       <use xlink:href="#DejaVuSans-2d" x="254.492188"/>
       <use xlink:href="#DejaVuSans-30" x="290.576172"/>
       <use xlink:href="#DejaVuSans-38" x="354.199219"/>
      </g>
     </g>
    </g>
    <g id="xtick_21">
     <g id="line2d_55">
      <path d="M 730.137107 584.521875 
L 730.137107 331.135938 
" clip-path="url(#pa89d8ed5d5)" style="fill: none; stroke-dasharray: 2.96,1.28; stroke-dashoffset: 0; stroke: #b0b0b0; stroke-width: 0.8"/>
     </g>
     <g id="line2d_56">
      <g>
       <use xlink:href="#m65c657dbc7" x="730.137107" y="584.521875" style="stroke: #000000; stroke-width: 0.8"/>
      </g>
     </g>
     <g id="text_17">
      <!-- 2022-09 -->
      <g transform="translate(709.245701 599.120312)scale(0.1 -0.1)">
       <use xlink:href="#DejaVuSans-32"/>
       <use xlink:href="#DejaVuSans-30" x="63.623047"/>
       <use xlink:href="#DejaVuSans-32" x="127.246094"/>
       <use xlink:href="#DejaVuSans-32" x="190.869141"/>
       <use xlink:href="#DejaVuSans-2d" x="254.492188"/>
       <use xlink:href="#DejaVuSans-30" x="290.576172"/>
       <use xlink:href="#DejaVuSans-39" x="354.199219"/>
      </g>
     </g>
    </g>
    <g id="xtick_22">
     <g id="line2d_57">
      <path d="M 810.841417 584.521875 
L 810.841417 331.135938 
" clip-path="url(#pa89d8ed5d5)" style="fill: none; stroke-dasharray: 2.96,1.28; stroke-dashoffset: 0; stroke: #b0b0b0; stroke-width: 0.8"/>
     </g>
     <g id="line2d_58">
      <g>
       <use xlink:href="#m65c657dbc7" x="810.841417" y="584.521875" style="stroke: #000000; stroke-width: 0.8"/>
      </g>
     </g>
     <g id="text_18">
      <!-- 2022-10 -->
      <g transform="translate(789.950011 599.120312)scale(0.1 -0.1)">
       <use xlink:href="#DejaVuSans-32"/>
       <use xlink:href="#DejaVuSans-30" x="63.623047"/>
       <use xlink:href="#DejaVuSans-32" x="127.246094"/>
       <use xlink:href="#DejaVuSans-32" x="190.869141"/>
       <use xlink:href="#DejaVuSans-2d" x="254.492188"/>
       <use xlink:href="#DejaVuSans-31" x="290.576172"/>
       <use xlink:href="#DejaVuSans-30" x="354.199219"/>
      </g>
     </g>
    </g>
    <g id="xtick_23">
     <g id="line2d_59">
      <path d="M 894.235872 584.521875 
L 894.235872 331.135938 
" clip-path="url(#pa89d8ed5d5)" style="fill: none; stroke-dasharray: 2.96,1.28; stroke-dashoffset: 0; stroke: #b0b0b0; stroke-width: 0.8"/>
     </g>
     <g id="line2d_60">
      <g>
       <use xlink:href="#m65c657dbc7" x="894.235872" y="584.521875" style="stroke: #000000; stroke-width: 0.8"/>
      </g>
     </g>
     <g id="text_19">
      <!-- 2022-11 -->
      <g transform="translate(873.344465 599.120312)scale(0.1 -0.1)">
       <use xlink:href="#DejaVuSans-32"/>
       <use xlink:href="#DejaVuSans-30" x="63.623047"/>
       <use xlink:href="#DejaVuSans-32" x="127.246094"/>
       <use xlink:href="#DejaVuSans-32" x="190.869141"/>
       <use xlink:href="#DejaVuSans-2d" x="254.492188"/>
       <use xlink:href="#DejaVuSans-31" x="290.576172"/>
       <use xlink:href="#DejaVuSans-31" x="354.199219"/>
      </g>
     </g>
    </g>
    <g id="xtick_24">
     <g id="line2d_61">
      <path d="M 974.940182 584.521875 
L 974.940182 331.135938 
" clip-path="url(#pa89d8ed5d5)" style="fill: none; stroke-dasharray: 2.96,1.28; stroke-dashoffset: 0; stroke: #b0b0b0; stroke-width: 0.8"/>
     </g>
     <g id="line2d_62">
      <g>
       <use xlink:href="#m65c657dbc7" x="974.940182" y="584.521875" style="stroke: #000000; stroke-width: 0.8"/>
      </g>
     </g>
     <g id="text_20">
      <!-- 2022-12 -->
      <g transform="translate(954.048776 599.120312)scale(0.1 -0.1)">
       <use xlink:href="#DejaVuSans-32"/>
       <use xlink:href="#DejaVuSans-30" x="63.623047"/>
       <use xlink:href="#DejaVuSans-32" x="127.246094"/>
       <use xlink:href="#DejaVuSans-32" x="190.869141"/>
       <use xlink:href="#DejaVuSans-2d" x="254.492188"/>
       <use xlink:href="#DejaVuSans-31" x="290.576172"/>
       <use xlink:href="#DejaVuSans-32" x="354.199219"/>
      </g>
     </g>
    </g>
   </g>
   <g id="matplotlib.axis_4">
    <g id="ytick_6">
     <g id="line2d_63">
      <path d="M 38.904688 546.297871 
L 982.876106 546.297871 
" clip-path="url(#pa89d8ed5d5)" style="fill: none; stroke-dasharray: 2.96,1.28; stroke-dashoffset: 0; stroke: #b0b0b0; stroke-width: 0.8"/>
     </g>
     <g id="line2d_64">
      <g>
       <use xlink:href="#m1b9871736b" x="38.904688" y="546.297871" style="stroke: #000000; stroke-width: 0.8"/>
      </g>
     </g>
     <g id="text_21">
      <!-- −20 -->
      <g transform="translate(10.8 550.09709)scale(0.1 -0.1)">
       <defs>
        <path id="DejaVuSans-2212" d="M 678 2272 
L 4684 2272 
L 4684 1741 
L 678 1741 
L 678 2272 
z
" transform="scale(0.015625)"/>
       </defs>
       <use xlink:href="#DejaVuSans-2212"/>
       <use xlink:href="#DejaVuSans-32" x="83.789062"/>
       <use xlink:href="#DejaVuSans-30" x="147.412109"/>
      </g>
     </g>
    </g>
    <g id="ytick_7">
     <g id="line2d_65">
      <path d="M 38.904688 493.366268 
L 982.876106 493.366268 
" clip-path="url(#pa89d8ed5d5)" style="fill: none; stroke-dasharray: 2.96,1.28; stroke-dashoffset: 0; stroke: #b0b0b0; stroke-width: 0.8"/>
     </g>
     <g id="line2d_66">
      <g>
       <use xlink:href="#m1b9871736b" x="38.904688" y="493.366268" style="stroke: #000000; stroke-width: 0.8"/>
      </g>
     </g>
     <g id="text_22">
      <!-- −10 -->
      <g transform="translate(10.8 497.165487)scale(0.1 -0.1)">
       <use xlink:href="#DejaVuSans-2212"/>
       <use xlink:href="#DejaVuSans-31" x="83.789062"/>
       <use xlink:href="#DejaVuSans-30" x="147.412109"/>
      </g>
     </g>
    </g>
    <g id="ytick_8">
     <g id="line2d_67">
      <path d="M 38.904688 440.434665 
L 982.876106 440.434665 
" clip-path="url(#pa89d8ed5d5)" style="fill: none; stroke-dasharray: 2.96,1.28; stroke-dashoffset: 0; stroke: #b0b0b0; stroke-width: 0.8"/>
     </g>
     <g id="line2d_68">
      <g>
       <use xlink:href="#m1b9871736b" x="38.904688" y="440.434665" style="stroke: #000000; stroke-width: 0.8"/>
      </g>
     </g>
     <g id="text_23">
      <!-- 0 -->
      <g transform="translate(25.542188 444.233884)scale(0.1 -0.1)">
       <use xlink:href="#DejaVuSans-30"/>
      </g>
     </g>
    </g>
    <g id="ytick_9">
     <g id="line2d_69">
      <path d="M 38.904688 387.503062 
L 982.876106 387.503062 
" clip-path="url(#pa89d8ed5d5)" style="fill: none; stroke-dasharray: 2.96,1.28; stroke-dashoffset: 0; stroke: #b0b0b0; stroke-width: 0.8"/>
     </g>
     <g id="line2d_70">
      <g>
       <use xlink:href="#m1b9871736b" x="38.904688" y="387.503062" style="stroke: #000000; stroke-width: 0.8"/>
      </g>
     </g>
     <g id="text_24">
      <!-- 10 -->
      <g transform="translate(19.179688 391.302281)scale(0.1 -0.1)">
       <use xlink:href="#DejaVuSans-31"/>
       <use xlink:href="#DejaVuSans-30" x="63.623047"/>
      </g>
     </g>
    </g>
    <g id="ytick_10">
     <g id="line2d_71">
      <path d="M 38.904688 334.571459 
L 982.876106 334.571459 
" clip-path="url(#pa89d8ed5d5)" style="fill: none; stroke-dasharray: 2.96,1.28; stroke-dashoffset: 0; stroke: #b0b0b0; stroke-width: 0.8"/>
     </g>
     <g id="line2d_72">
      <g>
       <use xlink:href="#m1b9871736b" x="38.904688" y="334.571459" style="stroke: #000000; stroke-width: 0.8"/>
      </g>
     </g>
     <g id="text_25">
      <!-- 20 -->
      <g transform="translate(19.179688 338.370678)scale(0.1 -0.1)">
       <use xlink:href="#DejaVuSans-32"/>
       <use xlink:href="#DejaVuSans-30" x="63.623047"/>
      </g>
     </g>
    </g>
   </g>
   <g id="line2d_73">
    <path d="M 81.812479 440.434665 
L 84.502623 439.276786 
L 87.192767 440.789465 
L 89.88291 441.908313 
L 92.573054 444.886403 
L 100.643485 444.035334 
L 103.333629 447.120267 
L 106.023772 440.698315 
L 108.713916 428.985975 
L 111.40406 420.339723 
L 119.474491 413.710928 
L 122.164634 417.646592 
L 124.854778 419.073675 
L 127.544922 424.438004 
L 130.235066 432.189883 
L 138.305497 452.284789 
L 149.066071 487.019435 
L 157.136502 489.103951 
L 159.826646 485.070912 
L 162.51679 479.215351 
L 165.206933 473.980591 
L 167.897077 470.446835 
L 175.967508 478.107167 
L 178.657652 486.639362 
L 181.347796 490.195941 
L 184.037939 489.834345 
L 186.728083 495.483427 
L 194.798514 511.056917 
L 197.488658 507.671848 
L 200.178801 504.989433 
L 202.868945 501.598316 
L 205.559089 504.232189 
L 213.62952 504.40784 
L 216.319663 503.788749 
L 219.009807 495.459149 
L 221.699951 493.18611 
L 224.390094 476.496823 
L 232.460525 460.957828 
L 237.840813 449.187311 
L 240.530957 442.659234 
L 243.2211 458.310009 
L 251.291531 491.138856 
L 253.981675 510.483471 
L 256.671819 513.324726 
L 259.361962 502.589943 
L 262.052106 491.285591 
L 270.122537 480.590278 
L 272.812681 470.367899 
L 275.502824 454.14345 
L 278.192968 423.720775 
L 288.953543 406.150147 
L 291.643687 388.118369 
L 294.33383 379.61081 
L 297.023974 372.973972 
L 299.714118 376.266558 
L 307.784549 385.886021 
L 310.474692 399.269954 
L 313.164836 401.584987 
L 315.85498 400.450741 
L 318.545123 395.389307 
L 326.615554 387.872188 
L 329.305698 374.530472 
L 331.995842 364.767322 
L 334.685985 368.812795 
L 337.376129 372.610007 
L 345.44656 373.291262 
L 348.136704 378.772771 
L 350.826848 386.503268 
L 364.277566 396.139717 
L 366.96771 415.932095 
L 369.657853 429.992259 
L 372.347997 437.738196 
L 375.038141 443.395384 
L 383.108572 459.54286 
L 385.798715 461.003517 
L 391.179003 467.115609 
L 393.869146 469.288188 
L 401.939578 477.721134 
L 407.319865 492.502252 
L 410.010009 506.967238 
L 412.700152 517.562688 
L 420.770583 532.026745 
L 423.460727 539.700125 
L 426.150871 543.062159 
L 428.841014 552.45624 
L 431.531158 545.525901 
L 439.601589 543.813101 
L 444.981876 519.477723 
L 447.67202 526.658709 
L 450.362164 530.036181 
L 458.432595 537.990891 
L 461.122739 547.563451 
L 463.812882 565.300215 
L 466.503026 573.004332 
L 469.19317 568.91951 
L 477.263601 545.325096 
L 479.953744 531.236709 
L 482.643888 522.498547 
L 485.334032 505.135406 
L 488.024175 498.181513 
L 496.094606 493.805924 
L 498.78475 495.046198 
L 501.474894 503.226282 
L 504.165037 502.777277 
L 506.855181 501.609472 
L 514.925612 502.593664 
L 517.615756 507.827949 
L 520.3059 511.055297 
L 522.996043 521.539279 
L 525.686187 535.246142 
L 533.756618 542.498138 
L 536.446762 540.346082 
L 539.136905 539.716818 
L 541.827049 535.875806 
L 544.517193 528.591156 
L 552.587624 518.121516 
L 555.277767 508.14684 
L 557.967911 510.791155 
L 560.658055 506.150092 
L 563.348198 489.499592 
L 571.41863 471.968539 
L 574.108773 460.006252 
L 576.798917 443.381026 
L 579.489061 428.084198 
L 582.179204 416.641375 
L 590.249635 406.659557 
L 592.939779 401.609552 
L 595.629923 400.079938 
L 598.320066 391.677892 
L 601.01021 386.051852 
L 609.080641 379.22365 
L 611.770785 378.646056 
L 614.460928 380.861069 
L 617.151072 372.064993 
L 619.841216 365.720397 
L 627.911647 352.607334 
L 630.601791 349.625811 
L 633.291934 372.582375 
L 635.982078 396.513969 
L 638.672222 416.461008 
L 646.742653 426.239741 
L 649.432796 437.461947 
L 652.12294 450.700575 
L 654.813084 456.226617 
L 657.503227 460.249499 
L 665.573658 465.455628 
L 670.953946 471.276131 
L 673.64409 471.832479 
L 676.334233 470.517152 
L 687.094808 459.389976 
L 689.784952 452.398411 
L 692.475095 446.108759 
L 695.165239 448.02 
L 703.23567 457.115816 
L 705.925814 466.62776 
L 708.615957 470.361458 
L 711.306101 456.013659 
L 713.996245 446.811753 
L 722.066676 443.118692 
L 724.756819 436.098903 
L 730.137107 431.429633 
L 732.827251 421.835887 
L 740.897682 416.959283 
L 743.587825 413.976138 
L 746.277969 416.606252 
L 748.968113 420.922985 
L 751.658256 421.698351 
L 759.728687 409.746418 
L 762.418831 401.091 
L 765.108975 388.318803 
L 767.799118 378.5471 
L 770.489262 378.162402 
L 778.559693 372.975898 
L 781.249837 361.531812 
L 783.939981 352.40921 
L 786.630124 345.42052 
L 789.320268 342.65348 
L 797.390699 352.388275 
L 800.080843 355.381643 
L 802.770986 362.834151 
L 805.46113 373.779809 
L 808.151274 381.848328 
L 816.221705 395.171161 
L 818.911848 391.642056 
L 824.292136 388.081941 
L 826.982279 381.814614 
L 835.05271 384.539412 
L 837.742854 405.193338 
L 840.432998 412.529605 
L 843.123142 422.965649 
L 845.813285 432.882312 
L 853.883716 439.787791 
L 856.57386 441.658568 
L 859.264004 445.474909 
L 861.954147 447.39409 
L 864.644291 453.188661 
L 872.714722 451.312865 
L 875.404866 437.875246 
L 880.785153 423.090564 
L 883.475297 411.873675 
L 891.545728 393.657106 
L 894.235872 380.677986 
L 896.926015 371.422383 
L 899.616159 365.273991 
L 902.306303 365.029176 
L 910.376734 361.558676 
L 915.757021 367.148919 
L 918.447165 371.266063 
L 921.137308 372.915413 
L 929.207739 376.454951 
L 931.897883 369.738844 
L 934.588027 372.418552 
L 937.27817 377.868853 
L 939.968314 386.462239 
L 939.968314 386.462239 
" clip-path="url(#pa89d8ed5d5)" style="fill: none; stroke: #1f77b4; stroke-width: 1.5; stroke-linecap: square"/>
   </g>
   <g id="line2d_74">
    <path d="M 81.812479 440.434665 
L 84.502623 439.791399 
L 87.192767 440.200443 
L 89.88291 440.77899 
L 92.573054 442.000852 
L 100.643485 442.55231 
L 103.333629 443.708338 
L 106.023772 442.984973 
L 108.713916 439.751135 
L 111.40406 435.401852 
L 119.474491 430.656001 
L 122.164634 427.862126 
L 124.854778 426.002184 
L 127.544922 425.674957 
L 130.235066 427.025458 
L 138.305497 432.22364 
L 140.99564 438.120216 
L 146.375928 446.336149 
L 149.066071 454.591783 
L 157.136502 461.574724 
L 159.826646 466.317708 
L 162.51679 468.916412 
L 165.206933 469.935262 
L 167.897077 470.038062 
L 175.967508 471.658003 
L 181.347796 477.777404 
L 184.037939 480.193465 
L 186.728083 483.256197 
L 194.798514 488.823233 
L 197.488658 492.596693 
L 200.178801 495.077206 
L 202.868945 496.382255 
L 205.559089 497.953039 
L 213.62952 499.244523 
L 216.319663 500.153663 
L 219.009807 499.214516 
L 221.699951 498.008585 
L 224.390094 493.705517 
L 232.460525 487.155109 
L 237.840813 479.560742 
L 240.530957 472.179812 
L 243.2211 469.405663 
L 251.291531 473.752538 
L 253.981675 481.099045 
L 256.671819 487.544406 
L 259.361962 490.553597 
L 262.052106 490.699999 
L 270.122537 488.678019 
L 272.812681 485.015943 
L 275.502824 478.841374 
L 278.192968 467.817153 
L 288.953543 455.483662 
L 291.643687 442.010525 
L 294.33383 429.530523 
L 297.023974 418.219171 
L 299.714118 409.828623 
L 307.784549 405.040091 
L 310.474692 403.886062 
L 313.164836 403.425846 
L 315.85498 402.830824 
L 318.545123 401.342519 
L 326.615554 398.648451 
L 329.305698 393.824852 
L 331.995842 388.013343 
L 334.685985 384.173232 
L 337.376129 381.860586 
L 345.44656 380.146721 
L 348.136704 379.871931 
L 350.826848 381.198199 
L 364.277566 384.186503 
L 366.96771 390.535622 
L 372.347997 406.2892 
L 375.038141 413.710437 
L 383.108572 422.876922 
L 385.798715 430.502241 
L 388.488859 437.214172 
L 391.179003 443.194459 
L 393.869146 448.413205 
L 401.939578 454.274791 
L 407.319865 461.920283 
L 412.700152 480.256277 
L 420.770583 490.610371 
L 423.460727 500.428322 
L 428.841014 517.655319 
L 431.531158 523.229436 
L 439.601589 527.346169 
L 442.291733 528.2117 
L 444.981876 526.464904 
L 447.67202 526.503665 
L 458.432595 529.366313 
L 461.122739 533.005741 
L 466.503026 546.172575 
L 469.19317 550.721962 
L 477.263601 549.642589 
L 479.953744 545.961413 
L 482.643888 541.26884 
L 488.024175 526.870025 
L 496.094606 520.257205 
L 498.78475 515.215003 
L 501.474894 512.817259 
L 504.165037 510.809263 
L 506.855181 508.969305 
L 514.925612 507.694177 
L 517.615756 507.720931 
L 520.3059 508.387804 
L 522.996043 511.018099 
L 525.686187 515.863708 
L 533.756618 521.190594 
L 536.446762 525.021692 
L 539.136905 527.960717 
L 541.827049 529.543735 
L 544.517193 529.353219 
L 552.587624 527.106878 
L 555.277767 523.314871 
L 557.967911 520.810128 
L 560.658055 517.878121 
L 563.348198 512.202415 
L 571.41863 504.15564 
L 574.108773 495.325762 
L 576.798917 484.936815 
L 582.179204 462.181308 
L 590.249635 451.076958 
L 592.939779 441.183477 
L 598.320066 424.705794 
L 601.01021 416.975005 
L 609.080641 409.424734 
L 611.770785 403.268999 
L 614.460928 398.787413 
L 619.841216 387.898422 
L 627.911647 380.840205 
L 630.601791 374.597326 
L 633.291934 374.194336 
L 635.982078 378.658262 
L 638.672222 386.218812 
L 646.742653 394.222997 
L 649.432796 402.870787 
L 652.12294 412.436745 
L 654.813084 421.194719 
L 657.503227 429.005675 
L 665.573658 436.295666 
L 670.953946 443.291759 
L 673.64409 448.999903 
L 676.334233 453.303353 
L 687.094808 454.520677 
L 689.784952 454.096224 
L 692.475095 452.498731 
L 695.165239 451.602985 
L 703.23567 452.705551 
L 705.925814 455.489993 
L 708.615957 458.464286 
L 711.306101 457.97416 
L 713.996245 455.741679 
L 722.066676 453.217082 
L 724.756819 449.793446 
L 730.137107 446.120683 
L 732.827251 441.263724 
L 740.897682 436.402836 
L 743.587825 431.917496 
L 746.277969 428.855247 
L 748.968113 427.268795 
L 759.728687 422.873049 
L 762.418831 418.516639 
L 765.108975 412.477072 
L 767.799118 405.691077 
L 770.489262 400.185342 
L 778.559693 394.743453 
L 781.249837 388.101125 
L 786.630124 373.854298 
L 789.320268 367.614134 
L 797.390699 364.568962 
L 800.080843 362.731498 
L 802.770986 362.752029 
L 805.46113 364.957585 
L 808.151274 368.335734 
L 816.221705 373.702819 
L 818.911848 377.290666 
L 824.292136 379.448921 
L 826.982279 379.92206 
L 835.05271 380.84553 
L 837.742854 385.715092 
L 840.432998 391.077994 
L 843.123142 397.455525 
L 845.813285 404.540883 
L 853.883716 411.590264 
L 856.57386 417.603925 
L 859.264004 423.178122 
L 864.644291 433.054785 
L 872.714722 436.706401 
L 875.404866 436.94017 
L 880.785153 434.170248 
L 883.475297 429.710934 
L 891.545728 422.500168 
L 899.616159 397.529248 
L 902.306303 391.029233 
L 910.376734 385.135122 
L 915.757021 381.537881 
L 918.447165 379.483518 
L 921.137308 378.169897 
L 929.207739 377.826908 
L 931.897883 376.209295 
L 934.588027 375.451146 
L 937.27817 375.934688 
L 939.968314 378.040198 
L 939.968314 378.040198 
" clip-path="url(#pa89d8ed5d5)" style="fill: none; stroke: #ff7f0e; stroke-width: 1.5; stroke-linecap: square"/>
   </g>
   <g id="patch_9">
    <path d="M 38.904688 584.521875 
L 38.904688 331.135938 
" style="fill: none; stroke: #000000; stroke-width: 0.8; stroke-linejoin: miter; stroke-linecap: square"/>
   </g>
   <g id="patch_10">
    <path d="M 982.876106 584.521875 
L 982.876106 331.135938 
" style="fill: none; stroke: #000000; stroke-width: 0.8; stroke-linejoin: miter; stroke-linecap: square"/>
   </g>
   <g id="patch_11">
    <path d="M 38.904687 584.521875 
L 982.876106 584.521875 
" style="fill: none; stroke: #000000; stroke-width: 0.8; stroke-linejoin: miter; stroke-linecap: square"/>
   </g>
   <g id="patch_12">
    <path d="M 38.904687 331.135938 
L 982.876106 331.135938 
" style="fill: none; stroke: #000000; stroke-width: 0.8; stroke-linejoin: miter; stroke-linecap: square"/>
   </g>
   <g id="text_26">
    <!-- MACD -->
    <g transform="translate(492.904459 325.135938)scale(0.12 -0.12)">
     <defs>
      <path id="DejaVuSans-44" d="M 1259 4147 
L 1259 519 
L 2022 519 
Q 2988 519 3436 956 
Q 3884 1394 3884 2338 
Q 3884 3275 3436 3711 
Q 2988 4147 2022 4147 
L 1259 4147 
z
M 628 4666 
L 1925 4666 
Q 3281 4666 3915 4102 
Q 4550 3538 4550 2338 
Q 4550 1131 3912 565 
Q 3275 0 1925 0 
L 628 0 
L 628 4666 
z
" transform="scale(0.015625)"/>
     </defs>
     <use xlink:href="#DejaVuSans-4d"/>
     <use xlink:href="#DejaVuSans-41" x="86.279297"/>
     <use xlink:href="#DejaVuSans-43" x="152.9375"/>
     <use xlink:href="#DejaVuSans-44" x="222.761719"/>
    </g>
   </g>
   <g id="legend_2">
    <g id="patch_13">
     <path d="M 45.904688 368.492188 
L 107.88125 368.492188 
Q 109.88125 368.492188 109.88125 366.492188 
L 109.88125 338.135938 
Q 109.88125 336.135938 107.88125 336.135938 
L 45.904688 336.135938 
Q 43.904688 336.135938 43.904688 338.135938 
L 43.904688 366.492188 
Q 43.904688 368.492188 45.904688 368.492188 
z
" style="fill: #ffffff; opacity: 0.8; stroke: #cccccc; stroke-linejoin: miter"/>
    </g>
    <g id="line2d_75">
     <path d="M 47.904688 344.234375 
L 57.904688 344.234375 
L 67.904687 344.234375 
" style="fill: none; stroke: #1f77b4; stroke-width: 1.5; stroke-linecap: square"/>
    </g>
    <g id="text_27">
     <!-- MACD -->
     <g transform="translate(75.904687 347.734375)scale(0.1 -0.1)">
      <use xlink:href="#DejaVuSans-4d"/>
      <use xlink:href="#DejaVuSans-41" x="86.279297"/>
      <use xlink:href="#DejaVuSans-43" x="152.9375"/>
      <use xlink:href="#DejaVuSans-44" x="222.761719"/>
     </g>
    </g>
    <g id="line2d_76">
     <path d="M 47.904688 358.9125 
L 57.904688 358.9125 
L 67.904687 358.9125 
" style="fill: none; stroke: #ff7f0e; stroke-width: 1.5; stroke-linecap: square"/>
    </g>
    <g id="text_28">
     <!-- SIG -->
     <g transform="translate(75.904687 362.4125)scale(0.1 -0.1)">
      <defs>
       <path id="DejaVuSans-49" d="M 628 4666 
L 1259 4666 
L 1259 0 
L 628 0 
L 628 4666 
z
" transform="scale(0.015625)"/>
       <path id="DejaVuSans-47" d="M 3809 666 
L 3809 1919 
L 2778 1919 
L 2778 2438 
L 4434 2438 
L 4434 434 
Q 4069 175 3628 42 
Q 3188 -91 2688 -91 
Q 1594 -91 976 548 
Q 359 1188 359 2328 
Q 359 3472 976 4111 
Q 1594 4750 2688 4750 
Q 3144 4750 3555 4637 
Q 3966 4525 4313 4306 
L 4313 3634 
Q 3963 3931 3569 4081 
Q 3175 4231 2741 4231 
Q 1884 4231 1454 3753 
Q 1025 3275 1025 2328 
Q 1025 1384 1454 906 
Q 1884 428 2741 428 
Q 3075 428 3337 486 
Q 3600 544 3809 666 
z
" transform="scale(0.015625)"/>
      </defs>
      <use xlink:href="#DejaVuSans-53"/>
      <use xlink:href="#DejaVuSans-49" x="63.476562"/>
      <use xlink:href="#DejaVuSans-47" x="92.96875"/>
     </g>
    </g>
   </g>
  </g>
  <g id="text_29">
   <!-- United Spirits Limited -->
   <g transform="translate(439.201875 21.358125)scale(0.12 -0.12)">
    <defs>
     <path id="DejaVuSans-55" d="M 556 4666 
L 1191 4666 
L 1191 1831 
Q 1191 1081 1462 751 
Q 1734 422 2344 422 
Q 2950 422 3222 751 
Q 3494 1081 3494 1831 
L 3494 4666 
L 4128 4666 
L 4128 1753 
Q 4128 841 3676 375 
Q 3225 -91 2344 -91 
Q 1459 -91 1007 375 
Q 556 841 556 1753 
L 556 4666 
z
" transform="scale(0.015625)"/>
     <path id="DejaVuSans-74" d="M 1172 4494 
L 1172 3500 
L 2356 3500 
L 2356 3053 
L 1172 3053 
L 1172 1153 
Q 1172 725 1289 603 
Q 1406 481 1766 481 
L 2356 481 
L 2356 0 
L 1766 0 
Q 1100 0 847 248 
Q 594 497 594 1153 
L 594 3053 
L 172 3053 
L 172 3500 
L 594 3500 
L 594 4494 
L 1172 4494 
z
" transform="scale(0.015625)"/>
     <path id="DejaVuSans-64" d="M 2906 2969 
L 2906 4863 
L 3481 4863 
L 3481 0 
L 2906 0 
L 2906 525 
Q 2725 213 2448 61 
Q 2172 -91 1784 -91 
Q 1150 -91 751 415 
Q 353 922 353 1747 
Q 353 2572 751 3078 
Q 1150 3584 1784 3584 
Q 2172 3584 2448 3432 
Q 2725 3281 2906 2969 
z
M 947 1747 
Q 947 1113 1208 752 
Q 1469 391 1925 391 
Q 2381 391 2643 752 
Q 2906 1113 2906 1747 
Q 2906 2381 2643 2742 
Q 2381 3103 1925 3103 
Q 1469 3103 1208 2742 
Q 947 2381 947 1747 
z
" transform="scale(0.015625)"/>
     <path id="DejaVuSans-70" d="M 1159 525 
L 1159 -1331 
L 581 -1331 
L 581 3500 
L 1159 3500 
L 1159 2969 
Q 1341 3281 1617 3432 
Q 1894 3584 2278 3584 
Q 2916 3584 3314 3078 
Q 3713 2572 3713 1747 
Q 3713 922 3314 415 
Q 2916 -91 2278 -91 
Q 1894 -91 1617 61 
Q 1341 213 1159 525 
z
M 3116 1747 
Q 3116 2381 2855 2742 
Q 2594 3103 2138 3103 
Q 1681 3103 1420 2742 
Q 1159 2381 1159 1747 
Q 1159 1113 1420 752 
Q 1681 391 2138 391 
Q 2594 391 2855 752 
Q 3116 1113 3116 1747 
z
" transform="scale(0.015625)"/>
     <path id="DejaVuSans-6d" d="M 3328 2828 
Q 3544 3216 3844 3400 
Q 4144 3584 4550 3584 
Q 5097 3584 5394 3201 
Q 5691 2819 5691 2113 
L 5691 0 
L 5113 0 
L 5113 2094 
Q 5113 2597 4934 2840 
Q 4756 3084 4391 3084 
Q 3944 3084 3684 2787 
Q 3425 2491 3425 1978 
L 3425 0 
L 2847 0 
L 2847 2094 
Q 2847 2600 2669 2842 
Q 2491 3084 2119 3084 
Q 1678 3084 1418 2786 
Q 1159 2488 1159 1978 
L 1159 0 
L 581 0 
L 581 3500 
L 1159 3500 
L 1159 2956 
Q 1356 3278 1631 3431 
Q 1906 3584 2284 3584 
Q 2666 3584 2933 3390 
Q 3200 3197 3328 2828 
z
" transform="scale(0.015625)"/>
    </defs>
    <use xlink:href="#DejaVuSans-55"/>
    <use xlink:href="#DejaVuSans-6e" x="73.193359"/>
    <use xlink:href="#DejaVuSans-69" x="136.572266"/>
    <use xlink:href="#DejaVuSans-74" x="164.355469"/>
    <use xlink:href="#DejaVuSans-65" x="203.564453"/>
    <use xlink:href="#DejaVuSans-64" x="265.087891"/>
    <use xlink:href="#DejaVuSans-20" x="328.564453"/>
    <use xlink:href="#DejaVuSans-53" x="360.351562"/>
    <use xlink:href="#DejaVuSans-70" x="423.828125"/>
    <use xlink:href="#DejaVuSans-69" x="487.304688"/>
    <use xlink:href="#DejaVuSans-72" x="515.087891"/>
    <use xlink:href="#DejaVuSans-69" x="556.201172"/>
    <use xlink:href="#DejaVuSans-74" x="583.984375"/>
    <use xlink:href="#DejaVuSans-73" x="623.193359"/>
    <use xlink:href="#DejaVuSans-20" x="675.292969"/>
    <use xlink:href="#DejaVuSans-4c" x="707.080078"/>
    <use xlink:href="#DejaVuSans-69" x="762.792969"/>
    <use xlink:href="#DejaVuSans-6d" x="790.576172"/>
    <use xlink:href="#DejaVuSans-69" x="887.988281"/>
    <use xlink:href="#DejaVuSans-74" x="915.771484"/>
    <use xlink:href="#DejaVuSans-65" x="954.980469"/>
    <use xlink:href="#DejaVuSans-64" x="1016.503906"/>
   </g>
  </g>
 </g>
 <defs>
  <clipPath id="p826eb998da">
   <rect x="38.904688" y="48.331875" width="943.971418" height="253.385938"/>
  </clipPath>
  <clipPath id="pa89d8ed5d5">
   <rect x="38.904688" y="331.135938" width="943.971418" height="253.385937"/>
  </clipPath>
 </defs>
</svg>
