<?xml version="1.0" encoding="utf-8" standalone="no"?>
<!DOCTYPE svg PUBLIC "-//W3C//DTD SVG 1.1//EN"
  "http://www.w3.org/Graphics/SVG/1.1/DTD/svg11.dtd">
<svg xmlns:xlink="http://www.w3.org/1999/xlink" width="1008pt" height="612pt" viewBox="0 0 1008 612" xmlns="http://www.w3.org/2000/svg" version="1.1">
 <metadata>
  <rdf:RDF xmlns:dc="http://purl.org/dc/elements/1.1/" xmlns:cc="http://creativecommons.org/ns#" xmlns:rdf="http://www.w3.org/1999/02/22-rdf-syntax-ns#">
   <cc:Work>
    <dc:type rdf:resource="http://purl.org/dc/dcmitype/StillImage"/>
    <dc:date>2022-11-20T19:47:28.092197</dc:date>
    <dc:format>image/svg+xml</dc:format>
    <dc:creator>
     <cc:Agent>
      <dc:title>Matplotlib v3.5.2, https://matplotlib.org/</dc:title>
     </cc:Agent>
    </dc:creator>
   </cc:Work>
  </rdf:RDF>
 </metadata>
 <defs>
  <style type="text/css">*{stroke-linejoin: round; stroke-linecap: butt}</style>
 </defs>
 <g id="figure_1">
  <g id="patch_1">
   <path d="M 0 612 
L 1008 612 
L 1008 0 
L 0 0 
z
" style="fill: #ffffff"/>
  </g>
  <g id="axes_1">
   <g id="patch_2">
    <path d="M 45.267188 301.717812 
L 982.876106 301.717812 
L 982.876106 48.331875 
L 45.267188 48.331875 
z
" style="fill: #ffffff"/>
   </g>
   <g id="matplotlib.axis_1">
    <g id="xtick_1">
     <g id="line2d_1">
      <path d="M 82.541751 301.717812 
L 82.541751 48.331875 
" clip-path="url(#pe752c73de1)" style="fill: none; stroke-dasharray: 2.96,1.28; stroke-dashoffset: 0; stroke: #b0b0b0; stroke-width: 0.8"/>
     </g>
     <g id="line2d_2">
      <defs>
       <path id="m16f05649e7" d="M 0 0 
L 0 3.5 
" style="stroke: #000000; stroke-width: 0.8"/>
      </defs>
      <g>
       <use xlink:href="#m16f05649e7" x="82.541751" y="301.717812" style="stroke: #000000; stroke-width: 0.8"/>
      </g>
     </g>
    </g>
    <g id="xtick_2">
     <g id="line2d_3">
      <path d="M 165.374115 301.717812 
L 165.374115 48.331875 
" clip-path="url(#pe752c73de1)" style="fill: none; stroke-dasharray: 2.96,1.28; stroke-dashoffset: 0; stroke: #b0b0b0; stroke-width: 0.8"/>
     </g>
     <g id="line2d_4">
      <g>
       <use xlink:href="#m16f05649e7" x="165.374115" y="301.717812" style="stroke: #000000; stroke-width: 0.8"/>
      </g>
     </g>
    </g>
    <g id="xtick_3">
     <g id="line2d_5">
      <path d="M 240.190444 301.717812 
L 240.190444 48.331875 
" clip-path="url(#pe752c73de1)" style="fill: none; stroke-dasharray: 2.96,1.28; stroke-dashoffset: 0; stroke: #b0b0b0; stroke-width: 0.8"/>
     </g>
     <g id="line2d_6">
      <g>
       <use xlink:href="#m16f05649e7" x="240.190444" y="301.717812" style="stroke: #000000; stroke-width: 0.8"/>
      </g>
     </g>
    </g>
    <g id="xtick_4">
     <g id="line2d_7">
      <path d="M 323.022808 301.717812 
L 323.022808 48.331875 
" clip-path="url(#pe752c73de1)" style="fill: none; stroke-dasharray: 2.96,1.28; stroke-dashoffset: 0; stroke: #b0b0b0; stroke-width: 0.8"/>
     </g>
     <g id="line2d_8">
      <g>
       <use xlink:href="#m16f05649e7" x="323.022808" y="301.717812" style="stroke: #000000; stroke-width: 0.8"/>
      </g>
     </g>
    </g>
    <g id="xtick_5">
     <g id="line2d_9">
      <path d="M 403.18316 301.717812 
L 403.18316 48.331875 
" clip-path="url(#pe752c73de1)" style="fill: none; stroke-dasharray: 2.96,1.28; stroke-dashoffset: 0; stroke: #b0b0b0; stroke-width: 0.8"/>
     </g>
     <g id="line2d_10">
      <g>
       <use xlink:href="#m16f05649e7" x="403.18316" y="301.717812" style="stroke: #000000; stroke-width: 0.8"/>
      </g>
     </g>
    </g>
    <g id="xtick_6">
     <g id="line2d_11">
      <path d="M 486.015523 301.717812 
L 486.015523 48.331875 
" clip-path="url(#pe752c73de1)" style="fill: none; stroke-dasharray: 2.96,1.28; stroke-dashoffset: 0; stroke: #b0b0b0; stroke-width: 0.8"/>
     </g>
     <g id="line2d_12">
      <g>
       <use xlink:href="#m16f05649e7" x="486.015523" y="301.717812" style="stroke: #000000; stroke-width: 0.8"/>
      </g>
     </g>
    </g>
    <g id="xtick_7">
     <g id="line2d_13">
      <path d="M 566.175876 301.717812 
L 566.175876 48.331875 
" clip-path="url(#pe752c73de1)" style="fill: none; stroke-dasharray: 2.96,1.28; stroke-dashoffset: 0; stroke: #b0b0b0; stroke-width: 0.8"/>
     </g>
     <g id="line2d_14">
      <g>
       <use xlink:href="#m16f05649e7" x="566.175876" y="301.717812" style="stroke: #000000; stroke-width: 0.8"/>
      </g>
     </g>
    </g>
    <g id="xtick_8">
     <g id="line2d_15">
      <path d="M 649.008239 301.717812 
L 649.008239 48.331875 
" clip-path="url(#pe752c73de1)" style="fill: none; stroke-dasharray: 2.96,1.28; stroke-dashoffset: 0; stroke: #b0b0b0; stroke-width: 0.8"/>
     </g>
     <g id="line2d_16">
      <g>
       <use xlink:href="#m16f05649e7" x="649.008239" y="301.717812" style="stroke: #000000; stroke-width: 0.8"/>
      </g>
     </g>
    </g>
    <g id="xtick_9">
     <g id="line2d_17">
      <path d="M 731.840603 301.717812 
L 731.840603 48.331875 
" clip-path="url(#pe752c73de1)" style="fill: none; stroke-dasharray: 2.96,1.28; stroke-dashoffset: 0; stroke: #b0b0b0; stroke-width: 0.8"/>
     </g>
     <g id="line2d_18">
      <g>
       <use xlink:href="#m16f05649e7" x="731.840603" y="301.717812" style="stroke: #000000; stroke-width: 0.8"/>
      </g>
     </g>
    </g>
    <g id="xtick_10">
     <g id="line2d_19">
      <path d="M 812.000955 301.717812 
L 812.000955 48.331875 
" clip-path="url(#pe752c73de1)" style="fill: none; stroke-dasharray: 2.96,1.28; stroke-dashoffset: 0; stroke: #b0b0b0; stroke-width: 0.8"/>
     </g>
     <g id="line2d_20">
      <g>
       <use xlink:href="#m16f05649e7" x="812.000955" y="301.717812" style="stroke: #000000; stroke-width: 0.8"/>
      </g>
     </g>
    </g>
    <g id="xtick_11">
     <g id="line2d_21">
      <path d="M 894.833319 301.717812 
L 894.833319 48.331875 
" clip-path="url(#pe752c73de1)" style="fill: none; stroke-dasharray: 2.96,1.28; stroke-dashoffset: 0; stroke: #b0b0b0; stroke-width: 0.8"/>
     </g>
     <g id="line2d_22">
      <g>
       <use xlink:href="#m16f05649e7" x="894.833319" y="301.717812" style="stroke: #000000; stroke-width: 0.8"/>
      </g>
     </g>
    </g>
    <g id="xtick_12">
     <g id="line2d_23">
      <path d="M 974.993671 301.717812 
L 974.993671 48.331875 
" clip-path="url(#pe752c73de1)" style="fill: none; stroke-dasharray: 2.96,1.28; stroke-dashoffset: 0; stroke: #b0b0b0; stroke-width: 0.8"/>
     </g>
     <g id="line2d_24">
      <g>
       <use xlink:href="#m16f05649e7" x="974.993671" y="301.717812" style="stroke: #000000; stroke-width: 0.8"/>
      </g>
     </g>
    </g>
   </g>
   <g id="matplotlib.axis_2">
    <g id="ytick_1">
     <g id="line2d_25">
      <path d="M 45.267188 279.172713 
L 982.876106 279.172713 
" clip-path="url(#pe752c73de1)" style="fill: none; stroke-dasharray: 2.96,1.28; stroke-dashoffset: 0; stroke: #b0b0b0; stroke-width: 0.8"/>
     </g>
     <g id="line2d_26">
      <defs>
       <path id="m7782628000" d="M 0 0 
L -3.5 0 
" style="stroke: #000000; stroke-width: 0.8"/>
      </defs>
      <g>
       <use xlink:href="#m7782628000" x="45.267188" y="279.172713" style="stroke: #000000; stroke-width: 0.8"/>
      </g>
     </g>
     <g id="text_1">
      <!-- 2000 -->
      <g transform="translate(12.817188 282.971932)scale(0.1 -0.1)">
       <defs>
        <path id="DejaVuSans-32" d="M 1228 531 
L 3431 531 
L 3431 0 
L 469 0 
L 469 531 
Q 828 903 1448 1529 
Q 2069 2156 2228 2338 
Q 2531 2678 2651 2914 
Q 2772 3150 2772 3378 
Q 2772 3750 2511 3984 
Q 2250 4219 1831 4219 
Q 1534 4219 1204 4116 
Q 875 4013 500 3803 
L 500 4441 
Q 881 4594 1212 4672 
Q 1544 4750 1819 4750 
Q 2544 4750 2975 4387 
Q 3406 4025 3406 3419 
Q 3406 3131 3298 2873 
Q 3191 2616 2906 2266 
Q 2828 2175 2409 1742 
Q 1991 1309 1228 531 
z
" transform="scale(0.015625)"/>
        <path id="DejaVuSans-30" d="M 2034 4250 
Q 1547 4250 1301 3770 
Q 1056 3291 1056 2328 
Q 1056 1369 1301 889 
Q 1547 409 2034 409 
Q 2525 409 2770 889 
Q 3016 1369 3016 2328 
Q 3016 3291 2770 3770 
Q 2525 4250 2034 4250 
z
M 2034 4750 
Q 2819 4750 3233 4129 
Q 3647 3509 3647 2328 
Q 3647 1150 3233 529 
Q 2819 -91 2034 -91 
Q 1250 -91 836 529 
Q 422 1150 422 2328 
Q 422 3509 836 4129 
Q 1250 4750 2034 4750 
z
" transform="scale(0.015625)"/>
       </defs>
       <use xlink:href="#DejaVuSans-32"/>
       <use xlink:href="#DejaVuSans-30" x="63.623047"/>
       <use xlink:href="#DejaVuSans-30" x="127.246094"/>
       <use xlink:href="#DejaVuSans-30" x="190.869141"/>
      </g>
     </g>
    </g>
    <g id="ytick_2">
     <g id="line2d_27">
      <path d="M 45.267188 248.47666 
L 982.876106 248.47666 
" clip-path="url(#pe752c73de1)" style="fill: none; stroke-dasharray: 2.96,1.28; stroke-dashoffset: 0; stroke: #b0b0b0; stroke-width: 0.8"/>
     </g>
     <g id="line2d_28">
      <g>
       <use xlink:href="#m7782628000" x="45.267188" y="248.47666" style="stroke: #000000; stroke-width: 0.8"/>
      </g>
     </g>
     <g id="text_2">
      <!-- 2200 -->
      <g transform="translate(12.817188 252.275879)scale(0.1 -0.1)">
       <use xlink:href="#DejaVuSans-32"/>
       <use xlink:href="#DejaVuSans-32" x="63.623047"/>
       <use xlink:href="#DejaVuSans-30" x="127.246094"/>
       <use xlink:href="#DejaVuSans-30" x="190.869141"/>
      </g>
     </g>
    </g>
    <g id="ytick_3">
     <g id="line2d_29">
      <path d="M 45.267188 217.780608 
L 982.876106 217.780608 
" clip-path="url(#pe752c73de1)" style="fill: none; stroke-dasharray: 2.96,1.28; stroke-dashoffset: 0; stroke: #b0b0b0; stroke-width: 0.8"/>
     </g>
     <g id="line2d_30">
      <g>
       <use xlink:href="#m7782628000" x="45.267188" y="217.780608" style="stroke: #000000; stroke-width: 0.8"/>
      </g>
     </g>
     <g id="text_3">
      <!-- 2400 -->
      <g transform="translate(12.817188 221.579827)scale(0.1 -0.1)">
       <defs>
        <path id="DejaVuSans-34" d="M 2419 4116 
L 825 1625 
L 2419 1625 
L 2419 4116 
z
M 2253 4666 
L 3047 4666 
L 3047 1625 
L 3713 1625 
L 3713 1100 
L 3047 1100 
L 3047 0 
L 2419 0 
L 2419 1100 
L 313 1100 
L 313 1709 
L 2253 4666 
z
" transform="scale(0.015625)"/>
       </defs>
       <use xlink:href="#DejaVuSans-32"/>
       <use xlink:href="#DejaVuSans-34" x="63.623047"/>
       <use xlink:href="#DejaVuSans-30" x="127.246094"/>
       <use xlink:href="#DejaVuSans-30" x="190.869141"/>
      </g>
     </g>
    </g>
    <g id="ytick_4">
     <g id="line2d_31">
      <path d="M 45.267188 187.084555 
L 982.876106 187.084555 
" clip-path="url(#pe752c73de1)" style="fill: none; stroke-dasharray: 2.96,1.28; stroke-dashoffset: 0; stroke: #b0b0b0; stroke-width: 0.8"/>
     </g>
     <g id="line2d_32">
      <g>
       <use xlink:href="#m7782628000" x="45.267188" y="187.084555" style="stroke: #000000; stroke-width: 0.8"/>
      </g>
     </g>
     <g id="text_4">
      <!-- 2600 -->
      <g transform="translate(12.817188 190.883774)scale(0.1 -0.1)">
       <defs>
        <path id="DejaVuSans-36" d="M 2113 2584 
Q 1688 2584 1439 2293 
Q 1191 2003 1191 1497 
Q 1191 994 1439 701 
Q 1688 409 2113 409 
Q 2538 409 2786 701 
Q 3034 994 3034 1497 
Q 3034 2003 2786 2293 
Q 2538 2584 2113 2584 
z
M 3366 4563 
L 3366 3988 
Q 3128 4100 2886 4159 
Q 2644 4219 2406 4219 
Q 1781 4219 1451 3797 
Q 1122 3375 1075 2522 
Q 1259 2794 1537 2939 
Q 1816 3084 2150 3084 
Q 2853 3084 3261 2657 
Q 3669 2231 3669 1497 
Q 3669 778 3244 343 
Q 2819 -91 2113 -91 
Q 1303 -91 875 529 
Q 447 1150 447 2328 
Q 447 3434 972 4092 
Q 1497 4750 2381 4750 
Q 2619 4750 2861 4703 
Q 3103 4656 3366 4563 
z
" transform="scale(0.015625)"/>
       </defs>
       <use xlink:href="#DejaVuSans-32"/>
       <use xlink:href="#DejaVuSans-36" x="63.623047"/>
       <use xlink:href="#DejaVuSans-30" x="127.246094"/>
       <use xlink:href="#DejaVuSans-30" x="190.869141"/>
      </g>
     </g>
    </g>
    <g id="ytick_5">
     <g id="line2d_33">
      <path d="M 45.267188 156.388503 
L 982.876106 156.388503 
" clip-path="url(#pe752c73de1)" style="fill: none; stroke-dasharray: 2.96,1.28; stroke-dashoffset: 0; stroke: #b0b0b0; stroke-width: 0.8"/>
     </g>
     <g id="line2d_34">
      <g>
       <use xlink:href="#m7782628000" x="45.267188" y="156.388503" style="stroke: #000000; stroke-width: 0.8"/>
      </g>
     </g>
     <g id="text_5">
      <!-- 2800 -->
      <g transform="translate(12.817188 160.187722)scale(0.1 -0.1)">
       <defs>
        <path id="DejaVuSans-38" d="M 2034 2216 
Q 1584 2216 1326 1975 
Q 1069 1734 1069 1313 
Q 1069 891 1326 650 
Q 1584 409 2034 409 
Q 2484 409 2743 651 
Q 3003 894 3003 1313 
Q 3003 1734 2745 1975 
Q 2488 2216 2034 2216 
z
M 1403 2484 
Q 997 2584 770 2862 
Q 544 3141 544 3541 
Q 544 4100 942 4425 
Q 1341 4750 2034 4750 
Q 2731 4750 3128 4425 
Q 3525 4100 3525 3541 
Q 3525 3141 3298 2862 
Q 3072 2584 2669 2484 
Q 3125 2378 3379 2068 
Q 3634 1759 3634 1313 
Q 3634 634 3220 271 
Q 2806 -91 2034 -91 
Q 1263 -91 848 271 
Q 434 634 434 1313 
Q 434 1759 690 2068 
Q 947 2378 1403 2484 
z
M 1172 3481 
Q 1172 3119 1398 2916 
Q 1625 2713 2034 2713 
Q 2441 2713 2670 2916 
Q 2900 3119 2900 3481 
Q 2900 3844 2670 4047 
Q 2441 4250 2034 4250 
Q 1625 4250 1398 4047 
Q 1172 3844 1172 3481 
z
" transform="scale(0.015625)"/>
       </defs>
       <use xlink:href="#DejaVuSans-32"/>
       <use xlink:href="#DejaVuSans-38" x="63.623047"/>
       <use xlink:href="#DejaVuSans-30" x="127.246094"/>
       <use xlink:href="#DejaVuSans-30" x="190.869141"/>
      </g>
     </g>
    </g>
    <g id="ytick_6">
     <g id="line2d_35">
      <path d="M 45.267188 125.69245 
L 982.876106 125.69245 
" clip-path="url(#pe752c73de1)" style="fill: none; stroke-dasharray: 2.96,1.28; stroke-dashoffset: 0; stroke: #b0b0b0; stroke-width: 0.8"/>
     </g>
     <g id="line2d_36">
      <g>
       <use xlink:href="#m7782628000" x="45.267188" y="125.69245" style="stroke: #000000; stroke-width: 0.8"/>
      </g>
     </g>
     <g id="text_6">
      <!-- 3000 -->
      <g transform="translate(12.817188 129.491669)scale(0.1 -0.1)">
       <defs>
        <path id="DejaVuSans-33" d="M 2597 2516 
Q 3050 2419 3304 2112 
Q 3559 1806 3559 1356 
Q 3559 666 3084 287 
Q 2609 -91 1734 -91 
Q 1441 -91 1130 -33 
Q 819 25 488 141 
L 488 750 
Q 750 597 1062 519 
Q 1375 441 1716 441 
Q 2309 441 2620 675 
Q 2931 909 2931 1356 
Q 2931 1769 2642 2001 
Q 2353 2234 1838 2234 
L 1294 2234 
L 1294 2753 
L 1863 2753 
Q 2328 2753 2575 2939 
Q 2822 3125 2822 3475 
Q 2822 3834 2567 4026 
Q 2313 4219 1838 4219 
Q 1578 4219 1281 4162 
Q 984 4106 628 3988 
L 628 4550 
Q 988 4650 1302 4700 
Q 1616 4750 1894 4750 
Q 2613 4750 3031 4423 
Q 3450 4097 3450 3541 
Q 3450 3153 3228 2886 
Q 3006 2619 2597 2516 
z
" transform="scale(0.015625)"/>
       </defs>
       <use xlink:href="#DejaVuSans-33"/>
       <use xlink:href="#DejaVuSans-30" x="63.623047"/>
       <use xlink:href="#DejaVuSans-30" x="127.246094"/>
       <use xlink:href="#DejaVuSans-30" x="190.869141"/>
      </g>
     </g>
    </g>
    <g id="ytick_7">
     <g id="line2d_37">
      <path d="M 45.267188 94.996398 
L 982.876106 94.996398 
" clip-path="url(#pe752c73de1)" style="fill: none; stroke-dasharray: 2.96,1.28; stroke-dashoffset: 0; stroke: #b0b0b0; stroke-width: 0.8"/>
     </g>
     <g id="line2d_38">
      <g>
       <use xlink:href="#m7782628000" x="45.267188" y="94.996398" style="stroke: #000000; stroke-width: 0.8"/>
      </g>
     </g>
     <g id="text_7">
      <!-- 3200 -->
      <g transform="translate(12.817188 98.795617)scale(0.1 -0.1)">
       <use xlink:href="#DejaVuSans-33"/>
       <use xlink:href="#DejaVuSans-32" x="63.623047"/>
       <use xlink:href="#DejaVuSans-30" x="127.246094"/>
       <use xlink:href="#DejaVuSans-30" x="190.869141"/>
      </g>
     </g>
    </g>
    <g id="ytick_8">
     <g id="line2d_39">
      <path d="M 45.267188 64.300345 
L 982.876106 64.300345 
" clip-path="url(#pe752c73de1)" style="fill: none; stroke-dasharray: 2.96,1.28; stroke-dashoffset: 0; stroke: #b0b0b0; stroke-width: 0.8"/>
     </g>
     <g id="line2d_40">
      <g>
       <use xlink:href="#m7782628000" x="45.267188" y="64.300345" style="stroke: #000000; stroke-width: 0.8"/>
      </g>
     </g>
     <g id="text_8">
      <!-- 3400 -->
      <g transform="translate(12.817188 68.099564)scale(0.1 -0.1)">
       <use xlink:href="#DejaVuSans-33"/>
       <use xlink:href="#DejaVuSans-34" x="63.623047"/>
       <use xlink:href="#DejaVuSans-30" x="127.246094"/>
       <use xlink:href="#DejaVuSans-30" x="190.869141"/>
      </g>
     </g>
    </g>
   </g>
   <g id="line2d_41">
    <path d="M 87.885775 60.824017 
L 90.557786 64.929614 
L 93.229798 77.568714 
L 95.90181 86.225001 
L 98.573822 88.826491 
L 106.589857 94.850592 
L 109.261869 93.85297 
L 111.93388 92.318167 
L 114.605892 78.742838 
L 117.277904 85.219705 
L 125.293939 82.004294 
L 127.965951 94.766177 
L 130.637962 112.147817 
L 133.309974 117.857283 
L 135.981986 121.916836 
L 143.998021 133.773186 
L 146.670033 116.138304 
L 152.014056 135.822148 
L 154.686068 119.660676 
L 162.702103 109.346802 
L 165.374115 103.138526 
L 168.046127 106.093021 
L 170.718139 123.582097 
L 173.39015 117.734499 
L 181.406185 122.254492 
L 184.078197 128.516487 
L 186.750209 121.049672 
L 189.422221 108.786599 
L 192.094232 125.454556 
L 200.110268 141.048151 
L 202.782279 126.62868 
L 205.454291 127.388407 
L 208.126303 124.226714 
L 210.798315 122.323559 
L 218.81435 115.731581 
L 221.486362 106.91414 
L 224.158373 109.05519 
L 226.830385 133.067177 
L 229.502397 117.957045 
L 237.518432 109.009146 
L 242.862455 102.724129 
L 245.534467 103.330376 
L 248.206479 96.968619 
L 256.222514 106.292545 
L 258.894526 98.78736 
L 261.566538 92.778608 
L 264.238549 94.704785 
L 266.910561 81.812443 
L 274.926596 77.630106 
L 277.598608 96.960945 
L 280.27062 110.651385 
L 282.942631 109.28541 
L 293.630678 109.745851 
L 296.30269 97.045359 
L 298.974702 88.719055 
L 301.646714 74.545153 
L 304.318725 82.848435 
L 312.334761 73.793099 
L 315.006772 67.669237 
L 317.678784 59.849418 
L 320.350796 67.853413 
L 323.022808 72.887566 
L 331.038843 77.737542 
L 333.710854 76.847357 
L 336.382866 95.341728 
L 339.054878 100.368207 
L 341.72689 100.959106 
L 349.742925 105.8628 
L 352.414937 116.898031 
L 355.086948 117.895653 
L 368.447007 144.12543 
L 371.119019 147.632454 
L 373.791031 143.181526 
L 376.463042 140.925366 
L 379.135054 141.67742 
L 387.151089 157.178926 
L 389.823101 161.376611 
L 392.495113 156.741507 
L 395.167124 156.687789 
L 397.839136 149.758156 
L 405.855171 165.581971 
L 411.199195 174.222909 
L 413.871207 172.787869 
L 416.543218 172.649737 
L 424.559254 180.70745 
L 427.231265 179.333802 
L 429.903277 182.871522 
L 432.575289 200.491056 
L 435.2473 211.07352 
L 443.263336 205.824495 
L 445.935347 190.967606 
L 448.607359 180.461882 
L 451.279371 208.932471 
L 453.951383 208.717598 
L 461.967418 199.347628 
L 464.63943 204.174583 
L 467.311441 226.27574 
L 469.983453 217.926414 
L 472.655465 204.865244 
L 480.6715 189.125843 
L 483.343512 188.074503 
L 486.015523 197.912588 
L 488.687535 189.463499 
L 491.359547 191.98825 
L 499.375582 196.584984 
L 502.047594 201.43496 
L 504.719606 198.994624 
L 507.391617 188.181939 
L 510.063629 201.227762 
L 518.079664 223.137069 
L 520.751676 232.154035 
L 523.423688 227.181274 
L 526.095699 231.770334 
L 528.767711 249.528 
L 536.783746 251.692072 
L 539.455758 235.407816 
L 542.12777 235.116204 
L 544.799782 231.455699 
L 547.471793 239.168083 
L 555.487829 227.181274 
L 558.15984 222.23921 
L 560.831852 230.880148 
L 563.503864 234.041842 
L 566.175876 242.160948 
L 574.191911 244.064103 
L 576.863922 253.088742 
L 579.535934 247.816695 
L 582.207946 246.96488 
L 584.879958 243.442508 
L 592.895993 248.269462 
L 595.568005 253.856144 
L 598.240016 256.60344 
L 600.912028 262.105708 
L 603.58404 257.447582 
L 611.600075 254.769351 
L 614.272087 256.64181 
L 616.944099 239.828048 
L 619.61611 239.321563 
L 622.288122 236.743094 
L 630.304157 229.69835 
L 632.976169 251.922292 
L 635.648181 245.72169 
L 638.320192 242.920675 
L 640.992204 233.15933 
L 649.008239 232.215427 
L 651.680251 235.768495 
L 654.352263 230.059029 
L 657.024275 222.162469 
L 659.696286 218.571031 
L 667.712322 219.138908 
L 673.056345 223.244505 
L 675.728357 213.981971 
L 678.400368 221.778769 
L 689.088415 224.87907 
L 691.760427 217.105295 
L 694.432439 216.061629 
L 697.104451 218.678467 
L 705.120486 226.022498 
L 707.792498 238.508117 
L 710.464509 245.345663 
L 715.808533 253.687315 
L 723.824568 265.773886 
L 726.49658 259.074473 
L 731.840603 264.65348 
L 734.512615 267.991676 
L 742.52865 264.991137 
L 745.200662 269.802743 
L 747.872674 266.288045 
L 750.544685 264.34652 
L 753.216697 256.941097 
L 761.232732 254.523783 
L 763.904744 255.828365 
L 766.576756 265.413207 
L 769.248768 264.338846 
L 771.920779 276.663311 
L 779.936814 274.852244 
L 782.608826 267.991676 
L 785.280838 267.646345 
L 787.95285 270.163422 
L 790.624861 276.187522 
L 798.640897 272.603758 
L 801.312908 271.076629 
L 803.98492 266.510591 
L 806.656932 267.515887 
L 809.328944 265.720168 
L 817.344979 278.205787 
L 820.016991 268.736055 
L 825.361014 260.440447 
L 828.033026 260.992976 
L 836.049061 259.75746 
L 838.721073 264.776264 
L 841.393084 265.727842 
L 844.065096 265.881322 
L 846.737108 262.949849 
L 854.753143 263.67888 
L 857.425155 261.522483 
L 860.097167 262.374298 
L 862.769178 256.549722 
L 865.44119 272.580736 
L 873.457225 273.340463 
L 876.129237 273.892992 
L 881.47326 283.784795 
L 884.145272 287.176709 
L 892.161307 282.472539 
L 894.833319 277.438386 
L 897.505331 273.624402 
L 900.177343 280.75356 
L 902.849354 283.807817 
L 910.86539 282.081164 
L 916.209413 286.900444 
L 918.881425 290.20027 
L 921.553437 275.082464 
L 929.569472 273.739512 
L 932.241483 277.077707 
L 934.913495 273.578357 
L 937.585507 283.385746 
L 940.257519 287.061599 
L 940.257519 287.061599 
" clip-path="url(#pe752c73de1)" style="fill: none; stroke: #1f77b4; stroke-width: 1.5; stroke-linecap: square"/>
   </g>
   <g id="line2d_42">
    <path d="M 98.573822 75.674768 
L 106.589857 82.480082 
L 109.261869 88.264753 
L 111.93388 91.214644 
L 114.605892 89.718212 
L 117.277904 88.996854 
L 125.293939 86.427595 
L 127.965951 86.610236 
L 130.637962 90.576166 
L 133.309974 98.399055 
L 135.981986 105.738481 
L 143.998021 116.09226 
L 146.670033 120.366685 
L 152.014056 125.101551 
L 154.686068 125.46223 
L 162.702103 122.948223 
L 165.374115 116.821291 
L 168.046127 114.812234 
L 170.718139 112.364224 
L 173.39015 111.978989 
L 181.406185 114.560527 
L 184.078197 119.636119 
L 186.750209 122.627449 
L 189.422221 119.66835 
L 192.094232 121.212361 
L 200.110268 124.971093 
L 202.782279 124.593532 
L 205.454291 125.861279 
L 208.126303 128.949301 
L 210.798315 128.323102 
L 218.81435 123.259788 
L 221.486362 119.31688 
L 224.158373 115.650237 
L 226.830385 117.418329 
L 229.502397 116.545027 
L 242.862455 114.362537 
L 245.534467 113.217575 
L 248.206479 105.997863 
L 256.222514 103.664963 
L 261.566538 99.631502 
L 264.238549 97.906384 
L 266.910561 94.875148 
L 274.926596 89.142661 
L 277.598608 88.777378 
L 280.27062 92.351933 
L 282.942631 95.268058 
L 293.630678 100.854739 
L 296.30269 104.73779 
L 298.974702 103.089412 
L 301.646714 95.868166 
L 304.318725 90.580771 
L 312.334761 83.39022 
L 317.678784 71.741068 
L 320.350796 70.40272 
L 323.022808 68.410547 
L 331.038843 69.199435 
L 333.710854 71.035059 
L 336.382866 78.133521 
L 339.054878 84.63648 
L 341.72689 90.250788 
L 349.742925 95.87584 
L 352.414937 103.885975 
L 355.086948 108.39676 
L 368.447007 117.148204 
L 371.119019 126.482874 
L 373.791031 133.946619 
L 379.135054 143.508439 
L 387.151089 146.119138 
L 392.495113 151.579966 
L 395.167124 154.732451 
L 397.839136 156.348598 
L 405.855171 158.029207 
L 411.199195 160.598466 
L 416.543218 167.000128 
L 424.559254 173.189987 
L 427.231265 175.940354 
L 429.903277 177.670076 
L 432.575289 183.210714 
L 435.2473 190.89547 
L 443.263336 195.918879 
L 445.935347 198.24564 
L 448.607359 197.763712 
L 451.279371 199.451995 
L 453.951383 198.980811 
L 461.967418 197.685437 
L 464.63943 200.326832 
L 467.311441 209.489604 
L 469.983453 211.288393 
L 472.655465 210.517922 
L 480.6715 208.473565 
L 483.343512 205.253549 
L 488.687535 193.888335 
L 491.359547 191.312937 
L 499.375582 192.804765 
L 502.047594 195.476856 
L 504.719606 195.693263 
L 507.391617 195.436951 
L 510.063629 197.284854 
L 518.079664 202.595271 
L 520.751676 208.739086 
L 523.423688 214.376416 
L 526.095699 223.094095 
L 528.767711 232.754142 
L 536.783746 238.465143 
L 539.455758 239.115899 
L 542.12777 240.702885 
L 544.799782 240.639958 
L 547.471793 238.567975 
L 555.487829 233.665815 
L 558.15984 231.032094 
L 560.831852 230.184883 
L 566.175876 231.300684 
L 574.191911 234.67725 
L 576.863922 240.847157 
L 579.535934 244.234466 
L 582.207946 246.819074 
L 595.568005 248.069938 
L 598.240016 249.827287 
L 600.912028 252.855452 
L 603.58404 255.656467 
L 611.600075 256.956445 
L 614.272087 257.513578 
L 616.944099 254.1585 
L 619.61611 249.601671 
L 622.288122 245.460773 
L 630.304157 240.446573 
L 632.976169 239.50267 
L 635.648181 240.681398 
L 638.320192 241.40122 
L 640.992204 240.684468 
L 649.008239 241.187883 
L 654.352263 234.824591 
L 657.024275 230.67295 
L 659.696286 227.75529 
L 667.712322 225.139987 
L 673.056345 222.635189 
L 675.728357 219.419777 
L 678.400368 219.343037 
L 689.088415 220.604645 
L 691.760427 220.197922 
L 694.432439 218.761347 
L 697.104451 219.700646 
L 705.120486 220.549392 
L 707.792498 223.275201 
L 710.464509 228.923275 
L 713.136521 235.622688 
L 715.808533 242.624458 
L 723.824568 250.574736 
L 726.49658 254.688007 
L 731.840603 258.54957 
L 734.512615 262.236166 
L 745.200662 265.302702 
L 747.872674 266.745416 
L 750.544685 266.684024 
L 753.216697 264.473908 
L 761.232732 262.380437 
L 763.904744 259.585562 
L 766.576756 259.410594 
L 769.248768 259.40906 
L 771.920779 263.353502 
L 779.936814 267.419194 
L 782.608826 269.851857 
L 785.280838 270.298484 
L 787.95285 271.463399 
L 790.624861 271.368242 
L 798.640897 270.918544 
L 801.312908 271.535535 
L 803.98492 271.308384 
L 806.656932 270.778877 
L 809.328944 268.685407 
L 817.344979 269.805813 
L 820.016991 269.337698 
L 825.361014 268.123669 
L 828.033026 266.819087 
L 836.049061 265.626545 
L 838.721073 262.94064 
L 841.393084 262.338998 
L 844.065096 263.427173 
L 846.737108 263.818548 
L 854.753143 264.602832 
L 860.097167 263.281367 
L 862.769178 261.415047 
L 865.44119 263.341224 
L 873.457225 265.27354 
L 876.129237 267.747642 
L 881.47326 272.029742 
L 884.145272 278.155139 
L 892.161307 280.133499 
L 894.833319 280.953084 
L 897.505331 280.899366 
L 902.849354 279.619341 
L 910.86539 279.541066 
L 916.209413 281.433477 
L 918.881425 284.748651 
L 921.553437 283.614432 
L 929.569472 281.600771 
L 932.241483 280.600079 
L 934.913495 277.935662 
L 937.585507 276.572757 
L 940.257519 278.968584 
L 940.257519 278.968584 
" clip-path="url(#pe752c73de1)" style="fill: none; stroke: #ff7f0e; stroke-width: 1.5; stroke-linecap: square"/>
   </g>
   <g id="patch_3">
    <path d="M 45.267188 301.717812 
L 45.267188 48.331875 
" style="fill: none; stroke: #000000; stroke-width: 0.8; stroke-linejoin: miter; stroke-linecap: square"/>
   </g>
   <g id="patch_4">
    <path d="M 982.876106 301.717812 
L 982.876106 48.331875 
" style="fill: none; stroke: #000000; stroke-width: 0.8; stroke-linejoin: miter; stroke-linecap: square"/>
   </g>
   <g id="patch_5">
    <path d="M 45.267188 301.717812 
L 982.876106 301.717812 
" style="fill: none; stroke: #000000; stroke-width: 0.8; stroke-linejoin: miter; stroke-linecap: square"/>
   </g>
   <g id="patch_6">
    <path d="M 45.267188 48.331875 
L 982.876106 48.331875 
" style="fill: none; stroke: #000000; stroke-width: 0.8; stroke-linejoin: miter; stroke-linecap: square"/>
   </g>
   <g id="text_9">
    <!-- Closing Price -->
    <g transform="translate(475.595709 42.331875)scale(0.12 -0.12)">
     <defs>
      <path id="DejaVuSans-43" d="M 4122 4306 
L 4122 3641 
Q 3803 3938 3442 4084 
Q 3081 4231 2675 4231 
Q 1875 4231 1450 3742 
Q 1025 3253 1025 2328 
Q 1025 1406 1450 917 
Q 1875 428 2675 428 
Q 3081 428 3442 575 
Q 3803 722 4122 1019 
L 4122 359 
Q 3791 134 3420 21 
Q 3050 -91 2638 -91 
Q 1578 -91 968 557 
Q 359 1206 359 2328 
Q 359 3453 968 4101 
Q 1578 4750 2638 4750 
Q 3056 4750 3426 4639 
Q 3797 4528 4122 4306 
z
" transform="scale(0.015625)"/>
      <path id="DejaVuSans-6c" d="M 603 4863 
L 1178 4863 
L 1178 0 
L 603 0 
L 603 4863 
z
" transform="scale(0.015625)"/>
      <path id="DejaVuSans-6f" d="M 1959 3097 
Q 1497 3097 1228 2736 
Q 959 2375 959 1747 
Q 959 1119 1226 758 
Q 1494 397 1959 397 
Q 2419 397 2687 759 
Q 2956 1122 2956 1747 
Q 2956 2369 2687 2733 
Q 2419 3097 1959 3097 
z
M 1959 3584 
Q 2709 3584 3137 3096 
Q 3566 2609 3566 1747 
Q 3566 888 3137 398 
Q 2709 -91 1959 -91 
Q 1206 -91 779 398 
Q 353 888 353 1747 
Q 353 2609 779 3096 
Q 1206 3584 1959 3584 
z
" transform="scale(0.015625)"/>
      <path id="DejaVuSans-73" d="M 2834 3397 
L 2834 2853 
Q 2591 2978 2328 3040 
Q 2066 3103 1784 3103 
Q 1356 3103 1142 2972 
Q 928 2841 928 2578 
Q 928 2378 1081 2264 
Q 1234 2150 1697 2047 
L 1894 2003 
Q 2506 1872 2764 1633 
Q 3022 1394 3022 966 
Q 3022 478 2636 193 
Q 2250 -91 1575 -91 
Q 1294 -91 989 -36 
Q 684 19 347 128 
L 347 722 
Q 666 556 975 473 
Q 1284 391 1588 391 
Q 1994 391 2212 530 
Q 2431 669 2431 922 
Q 2431 1156 2273 1281 
Q 2116 1406 1581 1522 
L 1381 1569 
Q 847 1681 609 1914 
Q 372 2147 372 2553 
Q 372 3047 722 3315 
Q 1072 3584 1716 3584 
Q 2034 3584 2315 3537 
Q 2597 3491 2834 3397 
z
" transform="scale(0.015625)"/>
      <path id="DejaVuSans-69" d="M 603 3500 
L 1178 3500 
L 1178 0 
L 603 0 
L 603 3500 
z
M 603 4863 
L 1178 4863 
L 1178 4134 
L 603 4134 
L 603 4863 
z
" transform="scale(0.015625)"/>
      <path id="DejaVuSans-6e" d="M 3513 2113 
L 3513 0 
L 2938 0 
L 2938 2094 
Q 2938 2591 2744 2837 
Q 2550 3084 2163 3084 
Q 1697 3084 1428 2787 
Q 1159 2491 1159 1978 
L 1159 0 
L 581 0 
L 581 3500 
L 1159 3500 
L 1159 2956 
Q 1366 3272 1645 3428 
Q 1925 3584 2291 3584 
Q 2894 3584 3203 3211 
Q 3513 2838 3513 2113 
z
" transform="scale(0.015625)"/>
      <path id="DejaVuSans-67" d="M 2906 1791 
Q 2906 2416 2648 2759 
Q 2391 3103 1925 3103 
Q 1463 3103 1205 2759 
Q 947 2416 947 1791 
Q 947 1169 1205 825 
Q 1463 481 1925 481 
Q 2391 481 2648 825 
Q 2906 1169 2906 1791 
z
M 3481 434 
Q 3481 -459 3084 -895 
Q 2688 -1331 1869 -1331 
Q 1566 -1331 1297 -1286 
Q 1028 -1241 775 -1147 
L 775 -588 
Q 1028 -725 1275 -790 
Q 1522 -856 1778 -856 
Q 2344 -856 2625 -561 
Q 2906 -266 2906 331 
L 2906 616 
Q 2728 306 2450 153 
Q 2172 0 1784 0 
Q 1141 0 747 490 
Q 353 981 353 1791 
Q 353 2603 747 3093 
Q 1141 3584 1784 3584 
Q 2172 3584 2450 3431 
Q 2728 3278 2906 2969 
L 2906 3500 
L 3481 3500 
L 3481 434 
z
" transform="scale(0.015625)"/>
      <path id="DejaVuSans-20" transform="scale(0.015625)"/>
      <path id="DejaVuSans-50" d="M 1259 4147 
L 1259 2394 
L 2053 2394 
Q 2494 2394 2734 2622 
Q 2975 2850 2975 3272 
Q 2975 3691 2734 3919 
Q 2494 4147 2053 4147 
L 1259 4147 
z
M 628 4666 
L 2053 4666 
Q 2838 4666 3239 4311 
Q 3641 3956 3641 3272 
Q 3641 2581 3239 2228 
Q 2838 1875 2053 1875 
L 1259 1875 
L 1259 0 
L 628 0 
L 628 4666 
z
" transform="scale(0.015625)"/>
      <path id="DejaVuSans-72" d="M 2631 2963 
Q 2534 3019 2420 3045 
Q 2306 3072 2169 3072 
Q 1681 3072 1420 2755 
Q 1159 2438 1159 1844 
L 1159 0 
L 581 0 
L 581 3500 
L 1159 3500 
L 1159 2956 
Q 1341 3275 1631 3429 
Q 1922 3584 2338 3584 
Q 2397 3584 2469 3576 
Q 2541 3569 2628 3553 
L 2631 2963 
z
" transform="scale(0.015625)"/>
      <path id="DejaVuSans-63" d="M 3122 3366 
L 3122 2828 
Q 2878 2963 2633 3030 
Q 2388 3097 2138 3097 
Q 1578 3097 1268 2742 
Q 959 2388 959 1747 
Q 959 1106 1268 751 
Q 1578 397 2138 397 
Q 2388 397 2633 464 
Q 2878 531 3122 666 
L 3122 134 
Q 2881 22 2623 -34 
Q 2366 -91 2075 -91 
Q 1284 -91 818 406 
Q 353 903 353 1747 
Q 353 2603 823 3093 
Q 1294 3584 2113 3584 
Q 2378 3584 2631 3529 
Q 2884 3475 3122 3366 
z
" transform="scale(0.015625)"/>
      <path id="DejaVuSans-65" d="M 3597 1894 
L 3597 1613 
L 953 1613 
Q 991 1019 1311 708 
Q 1631 397 2203 397 
Q 2534 397 2845 478 
Q 3156 559 3463 722 
L 3463 178 
Q 3153 47 2828 -22 
Q 2503 -91 2169 -91 
Q 1331 -91 842 396 
Q 353 884 353 1716 
Q 353 2575 817 3079 
Q 1281 3584 2069 3584 
Q 2775 3584 3186 3129 
Q 3597 2675 3597 1894 
z
M 3022 2063 
Q 3016 2534 2758 2815 
Q 2500 3097 2075 3097 
Q 1594 3097 1305 2825 
Q 1016 2553 972 2059 
L 3022 2063 
z
" transform="scale(0.015625)"/>
     </defs>
     <use xlink:href="#DejaVuSans-43"/>
     <use xlink:href="#DejaVuSans-6c" x="69.824219"/>
     <use xlink:href="#DejaVuSans-6f" x="97.607422"/>
     <use xlink:href="#DejaVuSans-73" x="158.789062"/>
     <use xlink:href="#DejaVuSans-69" x="210.888672"/>
     <use xlink:href="#DejaVuSans-6e" x="238.671875"/>
     <use xlink:href="#DejaVuSans-67" x="302.050781"/>
     <use xlink:href="#DejaVuSans-20" x="365.527344"/>
     <use xlink:href="#DejaVuSans-50" x="397.314453"/>
     <use xlink:href="#DejaVuSans-72" x="455.867188"/>
     <use xlink:href="#DejaVuSans-69" x="496.980469"/>
     <use xlink:href="#DejaVuSans-63" x="524.763672"/>
     <use xlink:href="#DejaVuSans-65" x="579.744141"/>
    </g>
   </g>
   <g id="legend_1">
    <g id="patch_7">
     <path d="M 911.144856 85.688125 
L 975.876106 85.688125 
Q 977.876106 85.688125 977.876106 83.688125 
L 977.876106 55.331875 
Q 977.876106 53.331875 975.876106 53.331875 
L 911.144856 53.331875 
Q 909.144856 53.331875 909.144856 55.331875 
L 909.144856 83.688125 
Q 909.144856 85.688125 911.144856 85.688125 
z
" style="fill: #ffffff; opacity: 0.8; stroke: #cccccc; stroke-linejoin: miter"/>
    </g>
    <g id="line2d_43">
     <path d="M 913.144856 61.430312 
L 923.144856 61.430312 
L 933.144856 61.430312 
" style="fill: none; stroke: #1f77b4; stroke-width: 1.5; stroke-linecap: square"/>
    </g>
    <g id="text_10">
     <!-- CLOSE -->
     <g transform="translate(941.144856 64.930312)scale(0.1 -0.1)">
      <defs>
       <path id="DejaVuSans-4c" d="M 628 4666 
L 1259 4666 
L 1259 531 
L 3531 531 
L 3531 0 
L 628 0 
L 628 4666 
z
" transform="scale(0.015625)"/>
       <path id="DejaVuSans-4f" d="M 2522 4238 
Q 1834 4238 1429 3725 
Q 1025 3213 1025 2328 
Q 1025 1447 1429 934 
Q 1834 422 2522 422 
Q 3209 422 3611 934 
Q 4013 1447 4013 2328 
Q 4013 3213 3611 3725 
Q 3209 4238 2522 4238 
z
M 2522 4750 
Q 3503 4750 4090 4092 
Q 4678 3434 4678 2328 
Q 4678 1225 4090 567 
Q 3503 -91 2522 -91 
Q 1538 -91 948 565 
Q 359 1222 359 2328 
Q 359 3434 948 4092 
Q 1538 4750 2522 4750 
z
" transform="scale(0.015625)"/>
       <path id="DejaVuSans-53" d="M 3425 4513 
L 3425 3897 
Q 3066 4069 2747 4153 
Q 2428 4238 2131 4238 
Q 1616 4238 1336 4038 
Q 1056 3838 1056 3469 
Q 1056 3159 1242 3001 
Q 1428 2844 1947 2747 
L 2328 2669 
Q 3034 2534 3370 2195 
Q 3706 1856 3706 1288 
Q 3706 609 3251 259 
Q 2797 -91 1919 -91 
Q 1588 -91 1214 -16 
Q 841 59 441 206 
L 441 856 
Q 825 641 1194 531 
Q 1563 422 1919 422 
Q 2459 422 2753 634 
Q 3047 847 3047 1241 
Q 3047 1584 2836 1778 
Q 2625 1972 2144 2069 
L 1759 2144 
Q 1053 2284 737 2584 
Q 422 2884 422 3419 
Q 422 4038 858 4394 
Q 1294 4750 2059 4750 
Q 2388 4750 2728 4690 
Q 3069 4631 3425 4513 
z
" transform="scale(0.015625)"/>
       <path id="DejaVuSans-45" d="M 628 4666 
L 3578 4666 
L 3578 4134 
L 1259 4134 
L 1259 2753 
L 3481 2753 
L 3481 2222 
L 1259 2222 
L 1259 531 
L 3634 531 
L 3634 0 
L 628 0 
L 628 4666 
z
" transform="scale(0.015625)"/>
      </defs>
      <use xlink:href="#DejaVuSans-43"/>
      <use xlink:href="#DejaVuSans-4c" x="69.824219"/>
      <use xlink:href="#DejaVuSans-4f" x="121.912109"/>
      <use xlink:href="#DejaVuSans-53" x="200.623047"/>
      <use xlink:href="#DejaVuSans-45" x="264.099609"/>
     </g>
    </g>
    <g id="line2d_44">
     <path d="M 913.144856 76.108437 
L 923.144856 76.108437 
L 933.144856 76.108437 
" style="fill: none; stroke: #ff7f0e; stroke-width: 1.5; stroke-linecap: square"/>
    </g>
    <g id="text_11">
     <!-- SMA5 -->
     <g transform="translate(941.144856 79.608437)scale(0.1 -0.1)">
      <defs>
       <path id="DejaVuSans-4d" d="M 628 4666 
L 1569 4666 
L 2759 1491 
L 3956 4666 
L 4897 4666 
L 4897 0 
L 4281 0 
L 4281 4097 
L 3078 897 
L 2444 897 
L 1241 4097 
L 1241 0 
L 628 0 
L 628 4666 
z
" transform="scale(0.015625)"/>
       <path id="DejaVuSans-41" d="M 2188 4044 
L 1331 1722 
L 3047 1722 
L 2188 4044 
z
M 1831 4666 
L 2547 4666 
L 4325 0 
L 3669 0 
L 3244 1197 
L 1141 1197 
L 716 0 
L 50 0 
L 1831 4666 
z
" transform="scale(0.015625)"/>
       <path id="DejaVuSans-35" d="M 691 4666 
L 3169 4666 
L 3169 4134 
L 1269 4134 
L 1269 2991 
Q 1406 3038 1543 3061 
Q 1681 3084 1819 3084 
Q 2600 3084 3056 2656 
Q 3513 2228 3513 1497 
Q 3513 744 3044 326 
Q 2575 -91 1722 -91 
Q 1428 -91 1123 -41 
Q 819 9 494 109 
L 494 744 
Q 775 591 1075 516 
Q 1375 441 1709 441 
Q 2250 441 2565 725 
Q 2881 1009 2881 1497 
Q 2881 1984 2565 2268 
Q 2250 2553 1709 2553 
Q 1456 2553 1204 2497 
Q 953 2441 691 2322 
L 691 4666 
z
" transform="scale(0.015625)"/>
      </defs>
      <use xlink:href="#DejaVuSans-53"/>
      <use xlink:href="#DejaVuSans-4d" x="63.476562"/>
      <use xlink:href="#DejaVuSans-41" x="149.755859"/>
      <use xlink:href="#DejaVuSans-35" x="218.164062"/>
     </g>
    </g>
   </g>
  </g>
  <g id="axes_2">
   <g id="patch_8">
    <path d="M 45.267188 584.521875 
L 982.876106 584.521875 
L 982.876106 331.135938 
L 45.267188 331.135938 
z
" style="fill: #ffffff"/>
   </g>
   <g id="matplotlib.axis_3">
    <g id="xtick_13">
     <g id="line2d_45">
      <path d="M 82.541751 584.521875 
L 82.541751 331.135938 
" clip-path="url(#pcde4642051)" style="fill: none; stroke-dasharray: 2.96,1.28; stroke-dashoffset: 0; stroke: #b0b0b0; stroke-width: 0.8"/>
     </g>
     <g id="line2d_46">
      <g>
       <use xlink:href="#m16f05649e7" x="82.541751" y="584.521875" style="stroke: #000000; stroke-width: 0.8"/>
      </g>
     </g>
     <g id="text_12">
      <!-- 2022-01 -->
      <g transform="translate(61.650345 599.120312)scale(0.1 -0.1)">
       <defs>
        <path id="DejaVuSans-2d" d="M 313 2009 
L 1997 2009 
L 1997 1497 
L 313 1497 
L 313 2009 
z
" transform="scale(0.015625)"/>
        <path id="DejaVuSans-31" d="M 794 531 
L 1825 531 
L 1825 4091 
L 703 3866 
L 703 4441 
L 1819 4666 
L 2450 4666 
L 2450 531 
L 3481 531 
L 3481 0 
L 794 0 
L 794 531 
z
" transform="scale(0.015625)"/>
       </defs>
       <use xlink:href="#DejaVuSans-32"/>
       <use xlink:href="#DejaVuSans-30" x="63.623047"/>
       <use xlink:href="#DejaVuSans-32" x="127.246094"/>
       <use xlink:href="#DejaVuSans-32" x="190.869141"/>
       <use xlink:href="#DejaVuSans-2d" x="254.492188"/>
       <use xlink:href="#DejaVuSans-30" x="290.576172"/>
       <use xlink:href="#DejaVuSans-31" x="354.199219"/>
      </g>
     </g>
    </g>
    <g id="xtick_14">
     <g id="line2d_47">
      <path d="M 165.374115 584.521875 
L 165.374115 331.135938 
" clip-path="url(#pcde4642051)" style="fill: none; stroke-dasharray: 2.96,1.28; stroke-dashoffset: 0; stroke: #b0b0b0; stroke-width: 0.8"/>
     </g>
     <g id="line2d_48">
      <g>
       <use xlink:href="#m16f05649e7" x="165.374115" y="584.521875" style="stroke: #000000; stroke-width: 0.8"/>
      </g>
     </g>
     <g id="text_13">
      <!-- 2022-02 -->
      <g transform="translate(144.482709 599.120312)scale(0.1 -0.1)">
       <use xlink:href="#DejaVuSans-32"/>
       <use xlink:href="#DejaVuSans-30" x="63.623047"/>
       <use xlink:href="#DejaVuSans-32" x="127.246094"/>
       <use xlink:href="#DejaVuSans-32" x="190.869141"/>
       <use xlink:href="#DejaVuSans-2d" x="254.492188"/>
       <use xlink:href="#DejaVuSans-30" x="290.576172"/>
       <use xlink:href="#DejaVuSans-32" x="354.199219"/>
      </g>
     </g>
    </g>
    <g id="xtick_15">
     <g id="line2d_49">
      <path d="M 240.190444 584.521875 
L 240.190444 331.135938 
" clip-path="url(#pcde4642051)" style="fill: none; stroke-dasharray: 2.96,1.28; stroke-dashoffset: 0; stroke: #b0b0b0; stroke-width: 0.8"/>
     </g>
     <g id="line2d_50">
      <g>
       <use xlink:href="#m16f05649e7" x="240.190444" y="584.521875" style="stroke: #000000; stroke-width: 0.8"/>
      </g>
     </g>
     <g id="text_14">
      <!-- 2022-03 -->
      <g transform="translate(219.299037 599.120312)scale(0.1 -0.1)">
       <use xlink:href="#DejaVuSans-32"/>
       <use xlink:href="#DejaVuSans-30" x="63.623047"/>
       <use xlink:href="#DejaVuSans-32" x="127.246094"/>
       <use xlink:href="#DejaVuSans-32" x="190.869141"/>
       <use xlink:href="#DejaVuSans-2d" x="254.492188"/>
       <use xlink:href="#DejaVuSans-30" x="290.576172"/>
       <use xlink:href="#DejaVuSans-33" x="354.199219"/>
      </g>
     </g>
    </g>
    <g id="xtick_16">
     <g id="line2d_51">
      <path d="M 323.022808 584.521875 
L 323.022808 331.135938 
" clip-path="url(#pcde4642051)" style="fill: none; stroke-dasharray: 2.96,1.28; stroke-dashoffset: 0; stroke: #b0b0b0; stroke-width: 0.8"/>
     </g>
     <g id="line2d_52">
      <g>
       <use xlink:href="#m16f05649e7" x="323.022808" y="584.521875" style="stroke: #000000; stroke-width: 0.8"/>
      </g>
     </g>
     <g id="text_15">
      <!-- 2022-04 -->
      <g transform="translate(302.131401 599.120312)scale(0.1 -0.1)">
       <use xlink:href="#DejaVuSans-32"/>
       <use xlink:href="#DejaVuSans-30" x="63.623047"/>
       <use xlink:href="#DejaVuSans-32" x="127.246094"/>
       <use xlink:href="#DejaVuSans-32" x="190.869141"/>
       <use xlink:href="#DejaVuSans-2d" x="254.492188"/>
       <use xlink:href="#DejaVuSans-30" x="290.576172"/>
       <use xlink:href="#DejaVuSans-34" x="354.199219"/>
      </g>
     </g>
    </g>
    <g id="xtick_17">
     <g id="line2d_53">
      <path d="M 403.18316 584.521875 
L 403.18316 331.135938 
" clip-path="url(#pcde4642051)" style="fill: none; stroke-dasharray: 2.96,1.28; stroke-dashoffset: 0; stroke: #b0b0b0; stroke-width: 0.8"/>
     </g>
     <g id="line2d_54">
      <g>
       <use xlink:href="#m16f05649e7" x="403.18316" y="584.521875" style="stroke: #000000; stroke-width: 0.8"/>
      </g>
     </g>
     <g id="text_16">
      <!-- 2022-05 -->
      <g transform="translate(382.291753 599.120312)scale(0.1 -0.1)">
       <use xlink:href="#DejaVuSans-32"/>
       <use xlink:href="#DejaVuSans-30" x="63.623047"/>
       <use xlink:href="#DejaVuSans-32" x="127.246094"/>
       <use xlink:href="#DejaVuSans-32" x="190.869141"/>
       <use xlink:href="#DejaVuSans-2d" x="254.492188"/>
       <use xlink:href="#DejaVuSans-30" x="290.576172"/>
       <use xlink:href="#DejaVuSans-35" x="354.199219"/>
      </g>
     </g>
    </g>
    <g id="xtick_18">
     <g id="line2d_55">
      <path d="M 486.015523 584.521875 
L 486.015523 331.135938 
" clip-path="url(#pcde4642051)" style="fill: none; stroke-dasharray: 2.96,1.28; stroke-dashoffset: 0; stroke: #b0b0b0; stroke-width: 0.8"/>
     </g>
     <g id="line2d_56">
      <g>
       <use xlink:href="#m16f05649e7" x="486.015523" y="584.521875" style="stroke: #000000; stroke-width: 0.8"/>
      </g>
     </g>
     <g id="text_17">
      <!-- 2022-06 -->
      <g transform="translate(465.124117 599.120312)scale(0.1 -0.1)">
       <use xlink:href="#DejaVuSans-32"/>
       <use xlink:href="#DejaVuSans-30" x="63.623047"/>
       <use xlink:href="#DejaVuSans-32" x="127.246094"/>
       <use xlink:href="#DejaVuSans-32" x="190.869141"/>
       <use xlink:href="#DejaVuSans-2d" x="254.492188"/>
       <use xlink:href="#DejaVuSans-30" x="290.576172"/>
       <use xlink:href="#DejaVuSans-36" x="354.199219"/>
      </g>
     </g>
    </g>
    <g id="xtick_19">
     <g id="line2d_57">
      <path d="M 566.175876 584.521875 
L 566.175876 331.135938 
" clip-path="url(#pcde4642051)" style="fill: none; stroke-dasharray: 2.96,1.28; stroke-dashoffset: 0; stroke: #b0b0b0; stroke-width: 0.8"/>
     </g>
     <g id="line2d_58">
      <g>
       <use xlink:href="#m16f05649e7" x="566.175876" y="584.521875" style="stroke: #000000; stroke-width: 0.8"/>
      </g>
     </g>
     <g id="text_18">
      <!-- 2022-07 -->
      <g transform="translate(545.284469 599.120312)scale(0.1 -0.1)">
       <defs>
        <path id="DejaVuSans-37" d="M 525 4666 
L 3525 4666 
L 3525 4397 
L 1831 0 
L 1172 0 
L 2766 4134 
L 525 4134 
L 525 4666 
z
" transform="scale(0.015625)"/>
       </defs>
       <use xlink:href="#DejaVuSans-32"/>
       <use xlink:href="#DejaVuSans-30" x="63.623047"/>
       <use xlink:href="#DejaVuSans-32" x="127.246094"/>
       <use xlink:href="#DejaVuSans-32" x="190.869141"/>
       <use xlink:href="#DejaVuSans-2d" x="254.492188"/>
       <use xlink:href="#DejaVuSans-30" x="290.576172"/>
       <use xlink:href="#DejaVuSans-37" x="354.199219"/>
      </g>
     </g>
    </g>
    <g id="xtick_20">
     <g id="line2d_59">
      <path d="M 649.008239 584.521875 
L 649.008239 331.135938 
" clip-path="url(#pcde4642051)" style="fill: none; stroke-dasharray: 2.96,1.28; stroke-dashoffset: 0; stroke: #b0b0b0; stroke-width: 0.8"/>
     </g>
     <g id="line2d_60">
      <g>
       <use xlink:href="#m16f05649e7" x="649.008239" y="584.521875" style="stroke: #000000; stroke-width: 0.8"/>
      </g>
     </g>
     <g id="text_19">
      <!-- 2022-08 -->
      <g transform="translate(628.116833 599.120312)scale(0.1 -0.1)">
       <use xlink:href="#DejaVuSans-32"/>
       <use xlink:href="#DejaVuSans-30" x="63.623047"/>
       <use xlink:href="#DejaVuSans-32" x="127.246094"/>
       <use xlink:href="#DejaVuSans-32" x="190.869141"/>
       <use xlink:href="#DejaVuSans-2d" x="254.492188"/>
       <use xlink:href="#DejaVuSans-30" x="290.576172"/>
       <use xlink:href="#DejaVuSans-38" x="354.199219"/>
      </g>
     </g>
    </g>
    <g id="xtick_21">
     <g id="line2d_61">
      <path d="M 731.840603 584.521875 
L 731.840603 331.135938 
" clip-path="url(#pcde4642051)" style="fill: none; stroke-dasharray: 2.96,1.28; stroke-dashoffset: 0; stroke: #b0b0b0; stroke-width: 0.8"/>
     </g>
     <g id="line2d_62">
      <g>
       <use xlink:href="#m16f05649e7" x="731.840603" y="584.521875" style="stroke: #000000; stroke-width: 0.8"/>
      </g>
     </g>
     <g id="text_20">
      <!-- 2022-09 -->
      <g transform="translate(710.949197 599.120312)scale(0.1 -0.1)">
       <defs>
        <path id="DejaVuSans-39" d="M 703 97 
L 703 672 
Q 941 559 1184 500 
Q 1428 441 1663 441 
Q 2288 441 2617 861 
Q 2947 1281 2994 2138 
Q 2813 1869 2534 1725 
Q 2256 1581 1919 1581 
Q 1219 1581 811 2004 
Q 403 2428 403 3163 
Q 403 3881 828 4315 
Q 1253 4750 1959 4750 
Q 2769 4750 3195 4129 
Q 3622 3509 3622 2328 
Q 3622 1225 3098 567 
Q 2575 -91 1691 -91 
Q 1453 -91 1209 -44 
Q 966 3 703 97 
z
M 1959 2075 
Q 2384 2075 2632 2365 
Q 2881 2656 2881 3163 
Q 2881 3666 2632 3958 
Q 2384 4250 1959 4250 
Q 1534 4250 1286 3958 
Q 1038 3666 1038 3163 
Q 1038 2656 1286 2365 
Q 1534 2075 1959 2075 
z
" transform="scale(0.015625)"/>
       </defs>
       <use xlink:href="#DejaVuSans-32"/>
       <use xlink:href="#DejaVuSans-30" x="63.623047"/>
       <use xlink:href="#DejaVuSans-32" x="127.246094"/>
       <use xlink:href="#DejaVuSans-32" x="190.869141"/>
       <use xlink:href="#DejaVuSans-2d" x="254.492188"/>
       <use xlink:href="#DejaVuSans-30" x="290.576172"/>
       <use xlink:href="#DejaVuSans-39" x="354.199219"/>
      </g>
     </g>
    </g>
    <g id="xtick_22">
     <g id="line2d_63">
      <path d="M 812.000955 584.521875 
L 812.000955 331.135938 
" clip-path="url(#pcde4642051)" style="fill: none; stroke-dasharray: 2.96,1.28; stroke-dashoffset: 0; stroke: #b0b0b0; stroke-width: 0.8"/>
     </g>
     <g id="line2d_64">
      <g>
       <use xlink:href="#m16f05649e7" x="812.000955" y="584.521875" style="stroke: #000000; stroke-width: 0.8"/>
      </g>
     </g>
     <g id="text_21">
      <!-- 2022-10 -->
      <g transform="translate(791.109549 599.120312)scale(0.1 -0.1)">
       <use xlink:href="#DejaVuSans-32"/>
       <use xlink:href="#DejaVuSans-30" x="63.623047"/>
       <use xlink:href="#DejaVuSans-32" x="127.246094"/>
       <use xlink:href="#DejaVuSans-32" x="190.869141"/>
       <use xlink:href="#DejaVuSans-2d" x="254.492188"/>
       <use xlink:href="#DejaVuSans-31" x="290.576172"/>
       <use xlink:href="#DejaVuSans-30" x="354.199219"/>
      </g>
     </g>
    </g>
    <g id="xtick_23">
     <g id="line2d_65">
      <path d="M 894.833319 584.521875 
L 894.833319 331.135938 
" clip-path="url(#pcde4642051)" style="fill: none; stroke-dasharray: 2.96,1.28; stroke-dashoffset: 0; stroke: #b0b0b0; stroke-width: 0.8"/>
     </g>
     <g id="line2d_66">
      <g>
       <use xlink:href="#m16f05649e7" x="894.833319" y="584.521875" style="stroke: #000000; stroke-width: 0.8"/>
      </g>
     </g>
     <g id="text_22">
      <!-- 2022-11 -->
      <g transform="translate(873.941913 599.120312)scale(0.1 -0.1)">
       <use xlink:href="#DejaVuSans-32"/>
       <use xlink:href="#DejaVuSans-30" x="63.623047"/>
       <use xlink:href="#DejaVuSans-32" x="127.246094"/>
       <use xlink:href="#DejaVuSans-32" x="190.869141"/>
       <use xlink:href="#DejaVuSans-2d" x="254.492188"/>
       <use xlink:href="#DejaVuSans-31" x="290.576172"/>
       <use xlink:href="#DejaVuSans-31" x="354.199219"/>
      </g>
     </g>
    </g>
    <g id="xtick_24">
     <g id="line2d_67">
      <path d="M 974.993671 584.521875 
L 974.993671 331.135938 
" clip-path="url(#pcde4642051)" style="fill: none; stroke-dasharray: 2.96,1.28; stroke-dashoffset: 0; stroke: #b0b0b0; stroke-width: 0.8"/>
     </g>
     <g id="line2d_68">
      <g>
       <use xlink:href="#m16f05649e7" x="974.993671" y="584.521875" style="stroke: #000000; stroke-width: 0.8"/>
      </g>
     </g>
     <g id="text_23">
      <!-- 2022-12 -->
      <g transform="translate(954.102265 599.120312)scale(0.1 -0.1)">
       <use xlink:href="#DejaVuSans-32"/>
       <use xlink:href="#DejaVuSans-30" x="63.623047"/>
       <use xlink:href="#DejaVuSans-32" x="127.246094"/>
       <use xlink:href="#DejaVuSans-32" x="190.869141"/>
       <use xlink:href="#DejaVuSans-2d" x="254.492188"/>
       <use xlink:href="#DejaVuSans-31" x="290.576172"/>
       <use xlink:href="#DejaVuSans-32" x="354.199219"/>
      </g>
     </g>
    </g>
   </g>
   <g id="matplotlib.axis_4">
    <g id="ytick_9">
     <g id="line2d_69">
      <path d="M 45.267188 572.383107 
L 982.876106 572.383107 
" clip-path="url(#pcde4642051)" style="fill: none; stroke-dasharray: 2.96,1.28; stroke-dashoffset: 0; stroke: #b0b0b0; stroke-width: 0.8"/>
     </g>
     <g id="line2d_70">
      <g>
       <use xlink:href="#m7782628000" x="45.267188" y="572.383107" style="stroke: #000000; stroke-width: 0.8"/>
      </g>
     </g>
     <g id="text_24">
      <!-- 150 -->
      <g transform="translate(10.8 576.182326)scale(0.1 -0.1)">
       <defs>
        <path id="DejaVuSans-2212" d="M 678 2272 
L 4684 2272 
L 4684 1741 
L 678 1741 
L 678 2272 
z
" transform="scale(0.015625)"/>
       </defs>
       <use xlink:href="#DejaVuSans-2212"/>
       <use xlink:href="#DejaVuSans-31" x="83.789062"/>
       <use xlink:href="#DejaVuSans-35" x="147.412109"/>
       <use xlink:href="#DejaVuSans-30" x="211.035156"/>
      </g>
     </g>
    </g>
    <g id="ytick_10">
     <g id="line2d_71">
      <path d="M 45.267188 520.004403 
L 982.876106 520.004403 
" clip-path="url(#pcde4642051)" style="fill: none; stroke-dasharray: 2.96,1.28; stroke-dashoffset: 0; stroke: #b0b0b0; stroke-width: 0.8"/>
     </g>
     <g id="line2d_72">
      <g>
       <use xlink:href="#m7782628000" x="45.267188" y="520.004403" style="stroke: #000000; stroke-width: 0.8"/>
      </g>
     </g>
     <g id="text_25">
      <!-- 100 -->
      <g transform="translate(10.8 523.803622)scale(0.1 -0.1)">
       <use xlink:href="#DejaVuSans-2212"/>
       <use xlink:href="#DejaVuSans-31" x="83.789062"/>
       <use xlink:href="#DejaVuSans-30" x="147.412109"/>
       <use xlink:href="#DejaVuSans-30" x="211.035156"/>
      </g>
     </g>
    </g>
    <g id="ytick_11">
     <g id="line2d_73">
      <path d="M 45.267188 467.625699 
L 982.876106 467.625699 
" clip-path="url(#pcde4642051)" style="fill: none; stroke-dasharray: 2.96,1.28; stroke-dashoffset: 0; stroke: #b0b0b0; stroke-width: 0.8"/>
     </g>
     <g id="line2d_74">
      <g>
       <use xlink:href="#m7782628000" x="45.267188" y="467.625699" style="stroke: #000000; stroke-width: 0.8"/>
      </g>
     </g>
     <g id="text_26">
      <!-- 50 -->
      <g transform="translate(17.1625 471.424918)scale(0.1 -0.1)">
       <use xlink:href="#DejaVuSans-2212"/>
       <use xlink:href="#DejaVuSans-35" x="83.789062"/>
       <use xlink:href="#DejaVuSans-30" x="147.412109"/>
      </g>
     </g>
    </g>
    <g id="ytick_12">
     <g id="line2d_75">
      <path d="M 45.267188 415.246994 
L 982.876106 415.246994 
" clip-path="url(#pcde4642051)" style="fill: none; stroke-dasharray: 2.96,1.28; stroke-dashoffset: 0; stroke: #b0b0b0; stroke-width: 0.8"/>
     </g>
     <g id="line2d_76">
      <g>
       <use xlink:href="#m7782628000" x="45.267188" y="415.246994" style="stroke: #000000; stroke-width: 0.8"/>
      </g>
     </g>
     <g id="text_27">
      <!-- 0 -->
      <g transform="translate(31.904688 419.046213)scale(0.1 -0.1)">
       <use xlink:href="#DejaVuSans-30"/>
      </g>
     </g>
    </g>
    <g id="ytick_13">
     <g id="line2d_77">
      <path d="M 45.267188 362.86829 
L 982.876106 362.86829 
" clip-path="url(#pcde4642051)" style="fill: none; stroke-dasharray: 2.96,1.28; stroke-dashoffset: 0; stroke: #b0b0b0; stroke-width: 0.8"/>
     </g>
     <g id="line2d_78">
      <g>
       <use xlink:href="#m7782628000" x="45.267188" y="362.86829" style="stroke: #000000; stroke-width: 0.8"/>
      </g>
     </g>
     <g id="text_28">
      <!-- 50 -->
      <g transform="translate(25.542188 366.667509)scale(0.1 -0.1)">
       <use xlink:href="#DejaVuSans-35"/>
       <use xlink:href="#DejaVuSans-30" x="63.623047"/>
      </g>
     </g>
    </g>
   </g>
   <g id="line2d_79">
    <path d="M 87.885775 415.246994 
L 90.557786 415.875707 
L 93.229798 418.723256 
L 95.90181 422.066358 
L 98.573822 424.445953 
L 106.589857 427.461701 
L 109.261869 428.876866 
L 111.93388 429.108403 
L 114.605892 424.460733 
L 117.277904 423.306858 
L 125.293939 421.190795 
L 127.965951 424.343343 
L 133.309974 441.962853 
L 135.981986 449.827748 
L 143.998021 460.269021 
L 146.670033 460.224414 
L 152.014056 468.108937 
L 154.686068 466.449069 
L 162.702103 459.963081 
L 165.374115 451.61243 
L 168.046127 446.066607 
L 170.718139 449.510015 
L 173.39015 449.036155 
L 181.406185 450.414683 
L 184.078197 454.076786 
L 186.750209 452.863879 
L 189.422221 445.494674 
L 192.094232 447.594258 
L 200.110268 456.58816 
L 205.454291 455.33664 
L 208.126303 452.807376 
L 210.798315 449.429249 
L 218.81435 443.025934 
L 221.486362 433.171493 
L 224.158373 426.359263 
L 226.830385 433.330458 
L 229.502397 430.727421 
L 237.518432 423.846837 
L 242.862455 415.074481 
L 245.534467 408.526923 
L 248.206479 400.130689 
L 256.222514 398.647592 
L 258.894526 393.708338 
L 261.566538 386.903219 
L 264.238549 382.920965 
L 266.910561 373.314137 
L 274.926596 364.041109 
L 277.598608 367.680885 
L 280.27062 378.393034 
L 282.942631 386.473465 
L 293.630678 393.378214 
L 296.30269 392.221936 
L 298.974702 387.106743 
L 301.646714 375.800077 
L 304.318725 371.862208 
L 312.334761 364.395033 
L 315.006772 355.824668 
L 317.678784 345.570379 
L 320.350796 342.65348 
L 323.022808 343.916173 
L 331.038843 348.340683 
L 333.710854 352.088725 
L 339.054878 379.74225 
L 341.72689 391.427135 
L 349.742925 403.509741 
L 352.414937 419.09033 
L 355.086948 431.793693 
L 368.447007 455.78267 
L 371.119019 476.016868 
L 373.791031 488.760975 
L 376.463042 496.682472 
L 379.135054 502.368354 
L 387.151089 514.247357 
L 389.823101 524.705195 
L 392.495113 529.132625 
L 395.167124 531.273838 
L 397.839136 527.863089 
L 405.855171 532.507231 
L 411.199195 539.505949 
L 413.871207 542.792617 
L 416.543218 543.838638 
L 424.559254 547.573805 
L 427.231265 548.24487 
L 429.903277 549.178709 
L 432.575289 557.967097 
L 435.2473 568.98208 
L 443.263336 573.004332 
L 445.935347 566.275111 
L 448.607359 553.565944 
L 451.279371 557.522735 
L 453.951383 558.88429 
L 461.967418 553.215359 
L 464.63943 549.828164 
L 467.311441 557.667847 
L 469.983453 557.643035 
L 472.655465 548.892406 
L 480.6715 531.947213 
L 483.343512 516.76892 
L 486.015523 509.074855 
L 488.687535 497.378615 
L 491.359547 488.653164 
L 499.375582 483.482551 
L 502.047594 481.293888 
L 504.719606 477.498037 
L 507.391617 467.928685 
L 510.063629 466.932677 
L 518.079664 477.490181 
L 520.751676 489.961048 
L 526.095699 502.616025 
L 528.767711 516.335572 
L 536.783746 527.110594 
L 539.455758 525.412342 
L 542.12777 522.667575 
L 544.799782 517.300067 
L 547.471793 516.130582 
L 555.487829 507.538629 
L 558.15984 497.064641 
L 560.831852 492.630592 
L 563.503864 489.996111 
L 566.175876 491.500618 
L 574.191911 492.846535 
L 576.863922 497.930163 
L 579.535934 498.100413 
L 582.207946 496.825818 
L 584.879958 492.979745 
L 592.895993 491.70867 
L 595.568005 492.883176 
L 598.240016 494.414423 
L 600.912028 497.707703 
L 603.58404 496.811994 
L 611.600075 493.722503 
L 614.272087 491.427143 
L 616.944099 479.606072 
L 622.288122 459.268193 
L 630.304157 447.043498 
L 632.976169 449.2037 
L 635.648181 447.133137 
L 638.320192 443.622448 
L 640.992204 435.233746 
L 649.008239 427.9197 
L 651.680251 423.979462 
L 654.352263 417.684202 
L 659.696286 399.292504 
L 667.712322 392.628618 
L 673.056345 389.900788 
L 675.728357 383.009206 
L 678.400368 382.222383 
L 689.088415 383.670321 
L 691.760427 380.931943 
L 694.432439 378.609292 
L 697.104451 378.631888 
L 705.120486 383.065527 
L 707.792498 393.704075 
L 713.136521 418.046181 
L 715.808533 429.694225 
L 723.824568 445.236437 
L 726.49658 453.423928 
L 731.840603 462.441221 
L 734.512615 470.785807 
L 742.52865 475.056932 
L 745.200662 480.341484 
L 747.872674 481.826302 
L 750.544685 481.173758 
L 753.216697 475.879096 
L 761.232732 469.723711 
L 763.904744 464.990619 
L 766.576756 465.934238 
L 769.248768 465.51094 
L 771.920779 471.316922 
L 779.936814 474.240703 
L 782.608826 472.123673 
L 785.280838 469.628839 
L 787.95285 468.42496 
L 790.624861 470.155742 
L 798.640897 468.934735 
L 801.312908 466.534787 
L 803.98492 461.583888 
L 806.656932 457.724288 
L 809.328944 453.238577 
L 817.344979 456.089364 
L 820.016991 452.701355 
L 825.361014 445.103298 
L 828.033026 439.111004 
L 838.721073 431.578073 
L 841.393084 430.426613 
L 844.065096 429.435052 
L 846.737108 426.900368 
L 854.753143 425.178647 
L 857.425155 422.54242 
L 860.097167 420.857659 
L 862.769178 416.302378 
L 865.44119 421.449986 
L 873.457225 425.825981 
L 876.129237 429.43475 
L 881.47326 437.486353 
L 884.145272 445.387982 
L 892.161307 448.673897 
L 894.833319 448.126396 
L 897.505331 445.246105 
L 900.177343 446.52929 
L 902.849354 448.841128 
L 910.86539 449.329427 
L 916.209413 451.947602 
L 918.881425 455.377333 
L 921.553437 449.375753 
L 929.569472 443.553516 
L 932.241483 440.486938 
L 934.913495 435.891383 
L 937.585507 437.395555 
L 940.257519 440.323065 
L 940.257519 440.323065 
" clip-path="url(#pcde4642051)" style="fill: none; stroke: #1f77b4; stroke-width: 1.5; stroke-linecap: square"/>
   </g>
   <g id="line2d_80">
    <path d="M 87.885775 415.246994 
L 90.557786 415.596279 
L 93.229798 416.877827 
L 98.573822 420.36395 
L 106.589857 422.287835 
L 109.261869 423.955343 
L 111.93388 425.19372 
L 114.605892 425.024396 
L 117.277904 424.639568 
L 125.293939 423.884996 
L 127.965951 423.98343 
L 130.637962 425.947166 
L 133.309974 429.297659 
L 135.981986 433.553413 
L 143.998021 439.051286 
L 146.670033 443.383464 
L 152.014056 448.419275 
L 154.686068 452.077961 
L 162.702103 453.673379 
L 165.374115 453.257352 
L 168.046127 451.808513 
L 173.39015 450.881906 
L 181.406185 450.788107 
L 184.078197 451.447837 
L 186.750209 451.731731 
L 189.422221 450.481902 
L 192.094232 449.903479 
L 200.110268 451.242072 
L 202.782279 452.181697 
L 205.454291 452.813186 
L 208.126303 452.812023 
L 210.798315 452.135125 
L 218.81435 450.312547 
L 221.486362 446.883224 
L 224.158373 442.777365 
L 226.830385 440.887592 
L 229.502397 438.85522 
L 237.518432 435.853144 
L 242.862455 431.696969 
L 245.534467 427.062566 
L 248.206479 421.675824 
L 256.222514 417.069927 
L 258.894526 412.397405 
L 264.238549 402.422769 
L 266.910561 396.600913 
L 274.926596 390.088836 
L 277.598608 385.607182 
L 280.27062 384.164336 
L 293.630678 386.376588 
L 296.30269 387.545665 
L 298.974702 387.45788 
L 301.646714 385.126311 
L 304.318725 382.473482 
L 312.334761 378.857784 
L 315.006772 374.251152 
L 317.678784 368.514988 
L 320.350796 363.34268 
L 323.022808 359.457375 
L 331.038843 357.234035 
L 333.710854 356.204972 
L 336.382866 358.114457 
L 339.054878 362.440017 
L 341.72689 368.237442 
L 349.742925 375.291904 
L 352.414937 384.051591 
L 355.086948 393.600013 
L 368.447007 406.036546 
L 373.791031 433.778286 
L 376.463042 446.359124 
L 379.135054 457.56097 
L 387.151089 468.898248 
L 389.823101 480.059638 
L 392.495113 489.874236 
L 395.167124 498.154156 
L 397.839136 504.095943 
L 405.855171 509.778201 
L 411.199195 515.723751 
L 413.871207 521.137524 
L 416.543218 525.677747 
L 424.559254 530.056958 
L 427.231265 533.694541 
L 429.903277 536.791374 
L 432.575289 541.026519 
L 435.2473 546.617631 
L 443.263336 551.894971 
L 445.935347 554.770999 
L 448.607359 554.529988 
L 451.279371 555.128538 
L 453.951383 555.879688 
L 461.967418 555.346822 
L 464.63943 554.243091 
L 467.311441 554.928042 
L 469.983453 555.471041 
L 472.655465 554.155314 
L 480.6715 549.713694 
L 486.015523 536.314762 
L 491.359547 520.552659 
L 499.375582 513.138637 
L 502.047594 506.769687 
L 504.719606 500.915357 
L 507.391617 494.318023 
L 510.063629 488.840954 
L 518.079664 486.570799 
L 520.751676 487.248849 
L 523.423688 489.033691 
L 526.095699 491.750158 
L 528.767711 496.667241 
L 536.783746 502.755911 
L 539.455758 507.287197 
L 542.12777 510.363273 
L 544.799782 511.750632 
L 547.471793 512.626622 
L 555.487829 511.609023 
L 558.15984 508.700147 
L 563.503864 502.388211 
L 566.175876 500.210692 
L 574.191911 498.737861 
L 582.207946 498.150075 
L 584.879958 497.116009 
L 592.895993 496.034541 
L 595.568005 495.404268 
L 598.240016 495.206299 
L 600.912028 495.70658 
L 603.58404 495.927663 
L 611.600075 495.486631 
L 614.272087 494.674733 
L 616.944099 491.661001 
L 619.61611 487.19587 
L 622.288122 481.610335 
L 630.304157 474.696967 
L 632.976169 469.598314 
L 638.320192 460.808713 
L 640.992204 455.693719 
L 649.008239 450.138915 
L 654.352263 439.46246 
L 657.024275 433.25492 
L 659.696286 426.462437 
L 667.712322 419.695673 
L 673.056345 413.736696 
L 675.728357 407.591198 
L 678.400368 402.517435 
L 689.088415 398.748012 
L 691.760427 395.184798 
L 694.432439 391.869697 
L 697.104451 389.222135 
L 705.120486 387.990814 
L 707.792498 389.133466 
L 710.464509 392.508278 
L 713.136521 397.615858 
L 715.808533 404.031532 
L 723.824568 412.272513 
L 726.49658 420.502796 
L 731.840603 428.890481 
L 734.512615 437.269546 
L 742.52865 444.827023 
L 745.200662 451.929915 
L 747.872674 457.909193 
L 750.544685 462.562106 
L 753.216697 465.225504 
L 761.232732 466.125145 
L 763.904744 465.89824 
L 769.248768 465.82654 
L 771.920779 466.924616 
L 779.936814 468.387833 
L 782.608826 469.135001 
L 785.280838 469.233769 
L 787.95285 469.072007 
L 790.624861 469.288754 
L 798.640897 469.21795 
L 801.312908 468.681318 
L 803.98492 467.261832 
L 806.656932 465.354323 
L 809.328944 462.931174 
L 817.344979 461.562812 
L 820.016991 459.79052 
L 825.361014 456.853076 
L 828.033026 453.304662 
L 836.049061 449.338033 
L 838.721073 445.786041 
L 841.393084 442.714155 
L 846.737108 437.426741 
L 854.753143 434.977122 
L 857.425155 432.490182 
L 860.097167 430.163677 
L 862.769178 427.391417 
L 865.44119 426.203131 
L 873.457225 426.127701 
L 876.129237 426.789111 
L 881.47326 428.928559 
L 884.145272 432.220444 
L 892.161307 435.511135 
L 894.833319 438.034187 
L 902.849354 442.477917 
L 910.86539 443.848219 
L 916.209413 445.468096 
L 918.881425 447.449943 
L 921.553437 447.835105 
L 929.569472 446.978787 
L 932.241483 445.680417 
L 934.913495 443.72261 
L 937.585507 442.457199 
L 940.257519 442.030372 
L 940.257519 442.030372 
" clip-path="url(#pcde4642051)" style="fill: none; stroke: #ff7f0e; stroke-width: 1.5; stroke-linecap: square"/>
   </g>
   <g id="patch_9">
    <path d="M 45.267188 584.521875 
L 45.267188 331.135938 
" style="fill: none; stroke: #000000; stroke-width: 0.8; stroke-linejoin: miter; stroke-linecap: square"/>
   </g>
   <g id="patch_10">
    <path d="M 982.876106 584.521875 
L 982.876106 331.135938 
" style="fill: none; stroke: #000000; stroke-width: 0.8; stroke-linejoin: miter; stroke-linecap: square"/>
   </g>
   <g id="patch_11">
    <path d="M 45.267188 584.521875 
L 982.876106 584.521875 
" style="fill: none; stroke: #000000; stroke-width: 0.8; stroke-linejoin: miter; stroke-linecap: square"/>
   </g>
   <g id="patch_12">
    <path d="M 45.267188 331.135938 
L 982.876106 331.135938 
" style="fill: none; stroke: #000000; stroke-width: 0.8; stroke-linejoin: miter; stroke-linecap: square"/>
   </g>
   <g id="text_29">
    <!-- MACD -->
    <g transform="translate(496.085709 325.135938)scale(0.12 -0.12)">
     <defs>
      <path id="DejaVuSans-44" d="M 1259 4147 
L 1259 519 
L 2022 519 
Q 2988 519 3436 956 
Q 3884 1394 3884 2338 
Q 3884 3275 3436 3711 
Q 2988 4147 2022 4147 
L 1259 4147 
z
M 628 4666 
L 1925 4666 
Q 3281 4666 3915 4102 
Q 4550 3538 4550 2338 
Q 4550 1131 3912 565 
Q 3275 0 1925 0 
L 628 0 
L 628 4666 
z
" transform="scale(0.015625)"/>
     </defs>
     <use xlink:href="#DejaVuSans-4d"/>
     <use xlink:href="#DejaVuSans-41" x="86.279297"/>
     <use xlink:href="#DejaVuSans-43" x="152.9375"/>
     <use xlink:href="#DejaVuSans-44" x="222.761719"/>
    </g>
   </g>
   <g id="legend_2">
    <g id="patch_13">
     <path d="M 913.899543 368.492188 
L 975.876106 368.492188 
Q 977.876106 368.492188 977.876106 366.492188 
L 977.876106 338.135938 
Q 977.876106 336.135938 975.876106 336.135938 
L 913.899543 336.135938 
Q 911.899543 336.135938 911.899543 338.135938 
L 911.899543 366.492188 
Q 911.899543 368.492188 913.899543 368.492188 
z
" style="fill: #ffffff; opacity: 0.8; stroke: #cccccc; stroke-linejoin: miter"/>
    </g>
    <g id="line2d_81">
     <path d="M 915.899543 344.234375 
L 925.899543 344.234375 
L 935.899543 344.234375 
" style="fill: none; stroke: #1f77b4; stroke-width: 1.5; stroke-linecap: square"/>
    </g>
    <g id="text_30">
     <!-- MACD -->
     <g transform="translate(943.899543 347.734375)scale(0.1 -0.1)">
      <use xlink:href="#DejaVuSans-4d"/>
      <use xlink:href="#DejaVuSans-41" x="86.279297"/>
      <use xlink:href="#DejaVuSans-43" x="152.9375"/>
      <use xlink:href="#DejaVuSans-44" x="222.761719"/>
     </g>
    </g>
    <g id="line2d_82">
     <path d="M 915.899543 358.9125 
L 925.899543 358.9125 
L 935.899543 358.9125 
" style="fill: none; stroke: #ff7f0e; stroke-width: 1.5; stroke-linecap: square"/>
    </g>
    <g id="text_31">
     <!-- SIG -->
     <g transform="translate(943.899543 362.4125)scale(0.1 -0.1)">
      <defs>
       <path id="DejaVuSans-49" d="M 628 4666 
L 1259 4666 
L 1259 0 
L 628 0 
L 628 4666 
z
" transform="scale(0.015625)"/>
       <path id="DejaVuSans-47" d="M 3809 666 
L 3809 1919 
L 2778 1919 
L 2778 2438 
L 4434 2438 
L 4434 434 
Q 4069 175 3628 42 
Q 3188 -91 2688 -91 
Q 1594 -91 976 548 
Q 359 1188 359 2328 
Q 359 3472 976 4111 
Q 1594 4750 2688 4750 
Q 3144 4750 3555 4637 
Q 3966 4525 4313 4306 
L 4313 3634 
Q 3963 3931 3569 4081 
Q 3175 4231 2741 4231 
Q 1884 4231 1454 3753 
Q 1025 3275 1025 2328 
Q 1025 1384 1454 906 
Q 1884 428 2741 428 
Q 3075 428 3337 486 
Q 3600 544 3809 666 
z
" transform="scale(0.015625)"/>
      </defs>
      <use xlink:href="#DejaVuSans-53"/>
      <use xlink:href="#DejaVuSans-49" x="63.476562"/>
      <use xlink:href="#DejaVuSans-47" x="92.96875"/>
     </g>
    </g>
   </g>
  </g>
  <g id="text_32">
   <!-- MphasiS Limited -->
   <g transform="translate(454.651875 21.358125)scale(0.12 -0.12)">
    <defs>
     <path id="DejaVuSans-70" d="M 1159 525 
L 1159 -1331 
L 581 -1331 
L 581 3500 
L 1159 3500 
L 1159 2969 
Q 1341 3281 1617 3432 
Q 1894 3584 2278 3584 
Q 2916 3584 3314 3078 
Q 3713 2572 3713 1747 
Q 3713 922 3314 415 
Q 2916 -91 2278 -91 
Q 1894 -91 1617 61 
Q 1341 213 1159 525 
z
M 3116 1747 
Q 3116 2381 2855 2742 
Q 2594 3103 2138 3103 
Q 1681 3103 1420 2742 
Q 1159 2381 1159 1747 
Q 1159 1113 1420 752 
Q 1681 391 2138 391 
Q 2594 391 2855 752 
Q 3116 1113 3116 1747 
z
" transform="scale(0.015625)"/>
     <path id="DejaVuSans-68" d="M 3513 2113 
L 3513 0 
L 2938 0 
L 2938 2094 
Q 2938 2591 2744 2837 
Q 2550 3084 2163 3084 
Q 1697 3084 1428 2787 
Q 1159 2491 1159 1978 
L 1159 0 
L 581 0 
L 581 4863 
L 1159 4863 
L 1159 2956 
Q 1366 3272 1645 3428 
Q 1925 3584 2291 3584 
Q 2894 3584 3203 3211 
Q 3513 2838 3513 2113 
z
" transform="scale(0.015625)"/>
     <path id="DejaVuSans-61" d="M 2194 1759 
Q 1497 1759 1228 1600 
Q 959 1441 959 1056 
Q 959 750 1161 570 
Q 1363 391 1709 391 
Q 2188 391 2477 730 
Q 2766 1069 2766 1631 
L 2766 1759 
L 2194 1759 
z
M 3341 1997 
L 3341 0 
L 2766 0 
L 2766 531 
Q 2569 213 2275 61 
Q 1981 -91 1556 -91 
Q 1019 -91 701 211 
Q 384 513 384 1019 
Q 384 1609 779 1909 
Q 1175 2209 1959 2209 
L 2766 2209 
L 2766 2266 
Q 2766 2663 2505 2880 
Q 2244 3097 1772 3097 
Q 1472 3097 1187 3025 
Q 903 2953 641 2809 
L 641 3341 
Q 956 3463 1253 3523 
Q 1550 3584 1831 3584 
Q 2591 3584 2966 3190 
Q 3341 2797 3341 1997 
z
" transform="scale(0.015625)"/>
     <path id="DejaVuSans-6d" d="M 3328 2828 
Q 3544 3216 3844 3400 
Q 4144 3584 4550 3584 
Q 5097 3584 5394 3201 
Q 5691 2819 5691 2113 
L 5691 0 
L 5113 0 
L 5113 2094 
Q 5113 2597 4934 2840 
Q 4756 3084 4391 3084 
Q 3944 3084 3684 2787 
Q 3425 2491 3425 1978 
L 3425 0 
L 2847 0 
L 2847 2094 
Q 2847 2600 2669 2842 
Q 2491 3084 2119 3084 
Q 1678 3084 1418 2786 
Q 1159 2488 1159 1978 
L 1159 0 
L 581 0 
L 581 3500 
L 1159 3500 
L 1159 2956 
Q 1356 3278 1631 3431 
Q 1906 3584 2284 3584 
Q 2666 3584 2933 3390 
Q 3200 3197 3328 2828 
z
" transform="scale(0.015625)"/>
     <path id="DejaVuSans-74" d="M 1172 4494 
L 1172 3500 
L 2356 3500 
L 2356 3053 
L 1172 3053 
L 1172 1153 
Q 1172 725 1289 603 
Q 1406 481 1766 481 
L 2356 481 
L 2356 0 
L 1766 0 
Q 1100 0 847 248 
Q 594 497 594 1153 
L 594 3053 
L 172 3053 
L 172 3500 
L 594 3500 
L 594 4494 
L 1172 4494 
z
" transform="scale(0.015625)"/>
     <path id="DejaVuSans-64" d="M 2906 2969 
L 2906 4863 
L 3481 4863 
L 3481 0 
L 2906 0 
L 2906 525 
Q 2725 213 2448 61 
Q 2172 -91 1784 -91 
Q 1150 -91 751 415 
Q 353 922 353 1747 
Q 353 2572 751 3078 
Q 1150 3584 1784 3584 
Q 2172 3584 2448 3432 
Q 2725 3281 2906 2969 
z
M 947 1747 
Q 947 1113 1208 752 
Q 1469 391 1925 391 
Q 2381 391 2643 752 
Q 2906 1113 2906 1747 
Q 2906 2381 2643 2742 
Q 2381 3103 1925 3103 
Q 1469 3103 1208 2742 
Q 947 2381 947 1747 
z
" transform="scale(0.015625)"/>
    </defs>
    <use xlink:href="#DejaVuSans-4d"/>
    <use xlink:href="#DejaVuSans-70" x="86.279297"/>
    <use xlink:href="#DejaVuSans-68" x="149.755859"/>
    <use xlink:href="#DejaVuSans-61" x="213.134766"/>
    <use xlink:href="#DejaVuSans-73" x="274.414062"/>
    <use xlink:href="#DejaVuSans-69" x="326.513672"/>
    <use xlink:href="#DejaVuSans-53" x="354.296875"/>
    <use xlink:href="#DejaVuSans-20" x="417.773438"/>
    <use xlink:href="#DejaVuSans-4c" x="449.560547"/>
    <use xlink:href="#DejaVuSans-69" x="505.273438"/>
    <use xlink:href="#DejaVuSans-6d" x="533.056641"/>
    <use xlink:href="#DejaVuSans-69" x="630.46875"/>
    <use xlink:href="#DejaVuSans-74" x="658.251953"/>
    <use xlink:href="#DejaVuSans-65" x="697.460938"/>
    <use xlink:href="#DejaVuSans-64" x="758.984375"/>
   </g>
  </g>
 </g>
 <defs>
  <clipPath id="pe752c73de1">
   <rect x="45.267188" y="48.331875" width="937.608918" height="253.385938"/>
  </clipPath>
  <clipPath id="pcde4642051">
   <rect x="45.267188" y="331.135938" width="937.608918" height="253.385937"/>
  </clipPath>
 </defs>
</svg>
