<?xml version="1.0" encoding="utf-8" standalone="no"?>
<!DOCTYPE svg PUBLIC "-//W3C//DTD SVG 1.1//EN"
  "http://www.w3.org/Graphics/SVG/1.1/DTD/svg11.dtd">
<svg xmlns:xlink="http://www.w3.org/1999/xlink" width="1008pt" height="612pt" viewBox="0 0 1008 612" xmlns="http://www.w3.org/2000/svg" version="1.1">
 <metadata>
  <rdf:RDF xmlns:dc="http://purl.org/dc/elements/1.1/" xmlns:cc="http://creativecommons.org/ns#" xmlns:rdf="http://www.w3.org/1999/02/22-rdf-syntax-ns#">
   <cc:Work>
    <dc:type rdf:resource="http://purl.org/dc/dcmitype/StillImage"/>
    <dc:date>2022-11-20T19:47:28.675236</dc:date>
    <dc:format>image/svg+xml</dc:format>
    <dc:creator>
     <cc:Agent>
      <dc:title>Matplotlib v3.5.2, https://matplotlib.org/</dc:title>
     </cc:Agent>
    </dc:creator>
   </cc:Work>
  </rdf:RDF>
 </metadata>
 <defs>
  <style type="text/css">*{stroke-linejoin: round; stroke-linecap: butt}</style>
 </defs>
 <g id="figure_1">
  <g id="patch_1">
   <path d="M 0 612 
L 1008 612 
L 1008 0 
L 0 0 
z
" style="fill: #ffffff"/>
  </g>
  <g id="axes_1">
   <g id="patch_2">
    <path d="M 38.904688 301.717812 
L 982.876106 301.717812 
L 982.876106 48.331875 
L 38.904688 48.331875 
z
" style="fill: #ffffff"/>
   </g>
   <g id="matplotlib.axis_1">
    <g id="xtick_1">
     <g id="line2d_1">
      <path d="M 76.432192 301.717812 
L 76.432192 48.331875 
" clip-path="url(#p54b3047083)" style="fill: none; stroke-dasharray: 2.96,1.28; stroke-dashoffset: 0; stroke: #b0b0b0; stroke-width: 0.8"/>
     </g>
     <g id="line2d_2">
      <defs>
       <path id="m192a0c67b7" d="M 0 0 
L 0 3.5 
" style="stroke: #000000; stroke-width: 0.8"/>
      </defs>
      <g>
       <use xlink:href="#m192a0c67b7" x="76.432192" y="301.717812" style="stroke: #000000; stroke-width: 0.8"/>
      </g>
     </g>
    </g>
    <g id="xtick_2">
     <g id="line2d_3">
      <path d="M 159.826646 301.717812 
L 159.826646 48.331875 
" clip-path="url(#p54b3047083)" style="fill: none; stroke-dasharray: 2.96,1.28; stroke-dashoffset: 0; stroke: #b0b0b0; stroke-width: 0.8"/>
     </g>
     <g id="line2d_4">
      <g>
       <use xlink:href="#m192a0c67b7" x="159.826646" y="301.717812" style="stroke: #000000; stroke-width: 0.8"/>
      </g>
     </g>
    </g>
    <g id="xtick_3">
     <g id="line2d_5">
      <path d="M 235.150669 301.717812 
L 235.150669 48.331875 
" clip-path="url(#p54b3047083)" style="fill: none; stroke-dasharray: 2.96,1.28; stroke-dashoffset: 0; stroke: #b0b0b0; stroke-width: 0.8"/>
     </g>
     <g id="line2d_6">
      <g>
       <use xlink:href="#m192a0c67b7" x="235.150669" y="301.717812" style="stroke: #000000; stroke-width: 0.8"/>
      </g>
     </g>
    </g>
    <g id="xtick_4">
     <g id="line2d_7">
      <path d="M 318.545123 301.717812 
L 318.545123 48.331875 
" clip-path="url(#p54b3047083)" style="fill: none; stroke-dasharray: 2.96,1.28; stroke-dashoffset: 0; stroke: #b0b0b0; stroke-width: 0.8"/>
     </g>
     <g id="line2d_8">
      <g>
       <use xlink:href="#m192a0c67b7" x="318.545123" y="301.717812" style="stroke: #000000; stroke-width: 0.8"/>
      </g>
     </g>
    </g>
    <g id="xtick_5">
     <g id="line2d_9">
      <path d="M 399.249434 301.717812 
L 399.249434 48.331875 
" clip-path="url(#p54b3047083)" style="fill: none; stroke-dasharray: 2.96,1.28; stroke-dashoffset: 0; stroke: #b0b0b0; stroke-width: 0.8"/>
     </g>
     <g id="line2d_10">
      <g>
       <use xlink:href="#m192a0c67b7" x="399.249434" y="301.717812" style="stroke: #000000; stroke-width: 0.8"/>
      </g>
     </g>
    </g>
    <g id="xtick_6">
     <g id="line2d_11">
      <path d="M 482.643888 301.717812 
L 482.643888 48.331875 
" clip-path="url(#p54b3047083)" style="fill: none; stroke-dasharray: 2.96,1.28; stroke-dashoffset: 0; stroke: #b0b0b0; stroke-width: 0.8"/>
     </g>
     <g id="line2d_12">
      <g>
       <use xlink:href="#m192a0c67b7" x="482.643888" y="301.717812" style="stroke: #000000; stroke-width: 0.8"/>
      </g>
     </g>
    </g>
    <g id="xtick_7">
     <g id="line2d_13">
      <path d="M 563.348198 301.717812 
L 563.348198 48.331875 
" clip-path="url(#p54b3047083)" style="fill: none; stroke-dasharray: 2.96,1.28; stroke-dashoffset: 0; stroke: #b0b0b0; stroke-width: 0.8"/>
     </g>
     <g id="line2d_14">
      <g>
       <use xlink:href="#m192a0c67b7" x="563.348198" y="301.717812" style="stroke: #000000; stroke-width: 0.8"/>
      </g>
     </g>
    </g>
    <g id="xtick_8">
     <g id="line2d_15">
      <path d="M 646.742653 301.717812 
L 646.742653 48.331875 
" clip-path="url(#p54b3047083)" style="fill: none; stroke-dasharray: 2.96,1.28; stroke-dashoffset: 0; stroke: #b0b0b0; stroke-width: 0.8"/>
     </g>
     <g id="line2d_16">
      <g>
       <use xlink:href="#m192a0c67b7" x="646.742653" y="301.717812" style="stroke: #000000; stroke-width: 0.8"/>
      </g>
     </g>
    </g>
    <g id="xtick_9">
     <g id="line2d_17">
      <path d="M 730.137107 301.717812 
L 730.137107 48.331875 
" clip-path="url(#p54b3047083)" style="fill: none; stroke-dasharray: 2.96,1.28; stroke-dashoffset: 0; stroke: #b0b0b0; stroke-width: 0.8"/>
     </g>
     <g id="line2d_18">
      <g>
       <use xlink:href="#m192a0c67b7" x="730.137107" y="301.717812" style="stroke: #000000; stroke-width: 0.8"/>
      </g>
     </g>
    </g>
    <g id="xtick_10">
     <g id="line2d_19">
      <path d="M 810.841417 301.717812 
L 810.841417 48.331875 
" clip-path="url(#p54b3047083)" style="fill: none; stroke-dasharray: 2.96,1.28; stroke-dashoffset: 0; stroke: #b0b0b0; stroke-width: 0.8"/>
     </g>
     <g id="line2d_20">
      <g>
       <use xlink:href="#m192a0c67b7" x="810.841417" y="301.717812" style="stroke: #000000; stroke-width: 0.8"/>
      </g>
     </g>
    </g>
    <g id="xtick_11">
     <g id="line2d_21">
      <path d="M 894.235872 301.717812 
L 894.235872 48.331875 
" clip-path="url(#p54b3047083)" style="fill: none; stroke-dasharray: 2.96,1.28; stroke-dashoffset: 0; stroke: #b0b0b0; stroke-width: 0.8"/>
     </g>
     <g id="line2d_22">
      <g>
       <use xlink:href="#m192a0c67b7" x="894.235872" y="301.717812" style="stroke: #000000; stroke-width: 0.8"/>
      </g>
     </g>
    </g>
    <g id="xtick_12">
     <g id="line2d_23">
      <path d="M 974.940182 301.717812 
L 974.940182 48.331875 
" clip-path="url(#p54b3047083)" style="fill: none; stroke-dasharray: 2.96,1.28; stroke-dashoffset: 0; stroke: #b0b0b0; stroke-width: 0.8"/>
     </g>
     <g id="line2d_24">
      <g>
       <use xlink:href="#m192a0c67b7" x="974.940182" y="301.717812" style="stroke: #000000; stroke-width: 0.8"/>
      </g>
     </g>
    </g>
   </g>
   <g id="matplotlib.axis_2">
    <g id="ytick_1">
     <g id="line2d_25">
      <path d="M 38.904688 269.966046 
L 982.876106 269.966046 
" clip-path="url(#p54b3047083)" style="fill: none; stroke-dasharray: 2.96,1.28; stroke-dashoffset: 0; stroke: #b0b0b0; stroke-width: 0.8"/>
     </g>
     <g id="line2d_26">
      <defs>
       <path id="m7235a8cf4e" d="M 0 0 
L -3.5 0 
" style="stroke: #000000; stroke-width: 0.8"/>
      </defs>
      <g>
       <use xlink:href="#m7235a8cf4e" x="38.904688" y="269.966046" style="stroke: #000000; stroke-width: 0.8"/>
      </g>
     </g>
     <g id="text_1">
      <!-- 600 -->
      <g transform="translate(12.817187 273.765264)scale(0.1 -0.1)">
       <defs>
        <path id="DejaVuSans-36" d="M 2113 2584 
Q 1688 2584 1439 2293 
Q 1191 2003 1191 1497 
Q 1191 994 1439 701 
Q 1688 409 2113 409 
Q 2538 409 2786 701 
Q 3034 994 3034 1497 
Q 3034 2003 2786 2293 
Q 2538 2584 2113 2584 
z
M 3366 4563 
L 3366 3988 
Q 3128 4100 2886 4159 
Q 2644 4219 2406 4219 
Q 1781 4219 1451 3797 
Q 1122 3375 1075 2522 
Q 1259 2794 1537 2939 
Q 1816 3084 2150 3084 
Q 2853 3084 3261 2657 
Q 3669 2231 3669 1497 
Q 3669 778 3244 343 
Q 2819 -91 2113 -91 
Q 1303 -91 875 529 
Q 447 1150 447 2328 
Q 447 3434 972 4092 
Q 1497 4750 2381 4750 
Q 2619 4750 2861 4703 
Q 3103 4656 3366 4563 
z
" transform="scale(0.015625)"/>
        <path id="DejaVuSans-30" d="M 2034 4250 
Q 1547 4250 1301 3770 
Q 1056 3291 1056 2328 
Q 1056 1369 1301 889 
Q 1547 409 2034 409 
Q 2525 409 2770 889 
Q 3016 1369 3016 2328 
Q 3016 3291 2770 3770 
Q 2525 4250 2034 4250 
z
M 2034 4750 
Q 2819 4750 3233 4129 
Q 3647 3509 3647 2328 
Q 3647 1150 3233 529 
Q 2819 -91 2034 -91 
Q 1250 -91 836 529 
Q 422 1150 422 2328 
Q 422 3509 836 4129 
Q 1250 4750 2034 4750 
z
" transform="scale(0.015625)"/>
       </defs>
       <use xlink:href="#DejaVuSans-36"/>
       <use xlink:href="#DejaVuSans-30" x="63.623047"/>
       <use xlink:href="#DejaVuSans-30" x="127.246094"/>
      </g>
     </g>
    </g>
    <g id="ytick_2">
     <g id="line2d_27">
      <path d="M 38.904688 235.258971 
L 982.876106 235.258971 
" clip-path="url(#p54b3047083)" style="fill: none; stroke-dasharray: 2.96,1.28; stroke-dashoffset: 0; stroke: #b0b0b0; stroke-width: 0.8"/>
     </g>
     <g id="line2d_28">
      <g>
       <use xlink:href="#m7235a8cf4e" x="38.904688" y="235.258971" style="stroke: #000000; stroke-width: 0.8"/>
      </g>
     </g>
     <g id="text_2">
      <!-- 650 -->
      <g transform="translate(12.817187 239.05819)scale(0.1 -0.1)">
       <defs>
        <path id="DejaVuSans-35" d="M 691 4666 
L 3169 4666 
L 3169 4134 
L 1269 4134 
L 1269 2991 
Q 1406 3038 1543 3061 
Q 1681 3084 1819 3084 
Q 2600 3084 3056 2656 
Q 3513 2228 3513 1497 
Q 3513 744 3044 326 
Q 2575 -91 1722 -91 
Q 1428 -91 1123 -41 
Q 819 9 494 109 
L 494 744 
Q 775 591 1075 516 
Q 1375 441 1709 441 
Q 2250 441 2565 725 
Q 2881 1009 2881 1497 
Q 2881 1984 2565 2268 
Q 2250 2553 1709 2553 
Q 1456 2553 1204 2497 
Q 953 2441 691 2322 
L 691 4666 
z
" transform="scale(0.015625)"/>
       </defs>
       <use xlink:href="#DejaVuSans-36"/>
       <use xlink:href="#DejaVuSans-35" x="63.623047"/>
       <use xlink:href="#DejaVuSans-30" x="127.246094"/>
      </g>
     </g>
    </g>
    <g id="ytick_3">
     <g id="line2d_29">
      <path d="M 38.904688 200.551897 
L 982.876106 200.551897 
" clip-path="url(#p54b3047083)" style="fill: none; stroke-dasharray: 2.96,1.28; stroke-dashoffset: 0; stroke: #b0b0b0; stroke-width: 0.8"/>
     </g>
     <g id="line2d_30">
      <g>
       <use xlink:href="#m7235a8cf4e" x="38.904688" y="200.551897" style="stroke: #000000; stroke-width: 0.8"/>
      </g>
     </g>
     <g id="text_3">
      <!-- 700 -->
      <g transform="translate(12.817187 204.351116)scale(0.1 -0.1)">
       <defs>
        <path id="DejaVuSans-37" d="M 525 4666 
L 3525 4666 
L 3525 4397 
L 1831 0 
L 1172 0 
L 2766 4134 
L 525 4134 
L 525 4666 
z
" transform="scale(0.015625)"/>
       </defs>
       <use xlink:href="#DejaVuSans-37"/>
       <use xlink:href="#DejaVuSans-30" x="63.623047"/>
       <use xlink:href="#DejaVuSans-30" x="127.246094"/>
      </g>
     </g>
    </g>
    <g id="ytick_4">
     <g id="line2d_31">
      <path d="M 38.904688 165.844823 
L 982.876106 165.844823 
" clip-path="url(#p54b3047083)" style="fill: none; stroke-dasharray: 2.96,1.28; stroke-dashoffset: 0; stroke: #b0b0b0; stroke-width: 0.8"/>
     </g>
     <g id="line2d_32">
      <g>
       <use xlink:href="#m7235a8cf4e" x="38.904688" y="165.844823" style="stroke: #000000; stroke-width: 0.8"/>
      </g>
     </g>
     <g id="text_4">
      <!-- 750 -->
      <g transform="translate(12.817187 169.644041)scale(0.1 -0.1)">
       <use xlink:href="#DejaVuSans-37"/>
       <use xlink:href="#DejaVuSans-35" x="63.623047"/>
       <use xlink:href="#DejaVuSans-30" x="127.246094"/>
      </g>
     </g>
    </g>
    <g id="ytick_5">
     <g id="line2d_33">
      <path d="M 38.904688 131.137748 
L 982.876106 131.137748 
" clip-path="url(#p54b3047083)" style="fill: none; stroke-dasharray: 2.96,1.28; stroke-dashoffset: 0; stroke: #b0b0b0; stroke-width: 0.8"/>
     </g>
     <g id="line2d_34">
      <g>
       <use xlink:href="#m7235a8cf4e" x="38.904688" y="131.137748" style="stroke: #000000; stroke-width: 0.8"/>
      </g>
     </g>
     <g id="text_5">
      <!-- 800 -->
      <g transform="translate(12.817187 134.936967)scale(0.1 -0.1)">
       <defs>
        <path id="DejaVuSans-38" d="M 2034 2216 
Q 1584 2216 1326 1975 
Q 1069 1734 1069 1313 
Q 1069 891 1326 650 
Q 1584 409 2034 409 
Q 2484 409 2743 651 
Q 3003 894 3003 1313 
Q 3003 1734 2745 1975 
Q 2488 2216 2034 2216 
z
M 1403 2484 
Q 997 2584 770 2862 
Q 544 3141 544 3541 
Q 544 4100 942 4425 
Q 1341 4750 2034 4750 
Q 2731 4750 3128 4425 
Q 3525 4100 3525 3541 
Q 3525 3141 3298 2862 
Q 3072 2584 2669 2484 
Q 3125 2378 3379 2068 
Q 3634 1759 3634 1313 
Q 3634 634 3220 271 
Q 2806 -91 2034 -91 
Q 1263 -91 848 271 
Q 434 634 434 1313 
Q 434 1759 690 2068 
Q 947 2378 1403 2484 
z
M 1172 3481 
Q 1172 3119 1398 2916 
Q 1625 2713 2034 2713 
Q 2441 2713 2670 2916 
Q 2900 3119 2900 3481 
Q 2900 3844 2670 4047 
Q 2441 4250 2034 4250 
Q 1625 4250 1398 4047 
Q 1172 3844 1172 3481 
z
" transform="scale(0.015625)"/>
       </defs>
       <use xlink:href="#DejaVuSans-38"/>
       <use xlink:href="#DejaVuSans-30" x="63.623047"/>
       <use xlink:href="#DejaVuSans-30" x="127.246094"/>
      </g>
     </g>
    </g>
    <g id="ytick_6">
     <g id="line2d_35">
      <path d="M 38.904688 96.430674 
L 982.876106 96.430674 
" clip-path="url(#p54b3047083)" style="fill: none; stroke-dasharray: 2.96,1.28; stroke-dashoffset: 0; stroke: #b0b0b0; stroke-width: 0.8"/>
     </g>
     <g id="line2d_36">
      <g>
       <use xlink:href="#m7235a8cf4e" x="38.904688" y="96.430674" style="stroke: #000000; stroke-width: 0.8"/>
      </g>
     </g>
     <g id="text_6">
      <!-- 850 -->
      <g transform="translate(12.817187 100.229893)scale(0.1 -0.1)">
       <use xlink:href="#DejaVuSans-38"/>
       <use xlink:href="#DejaVuSans-35" x="63.623047"/>
       <use xlink:href="#DejaVuSans-30" x="127.246094"/>
      </g>
     </g>
    </g>
    <g id="ytick_7">
     <g id="line2d_37">
      <path d="M 38.904688 61.7236 
L 982.876106 61.7236 
" clip-path="url(#p54b3047083)" style="fill: none; stroke-dasharray: 2.96,1.28; stroke-dashoffset: 0; stroke: #b0b0b0; stroke-width: 0.8"/>
     </g>
     <g id="line2d_38">
      <g>
       <use xlink:href="#m7235a8cf4e" x="38.904688" y="61.7236" style="stroke: #000000; stroke-width: 0.8"/>
      </g>
     </g>
     <g id="text_7">
      <!-- 900 -->
      <g transform="translate(12.817187 65.522818)scale(0.1 -0.1)">
       <defs>
        <path id="DejaVuSans-39" d="M 703 97 
L 703 672 
Q 941 559 1184 500 
Q 1428 441 1663 441 
Q 2288 441 2617 861 
Q 2947 1281 2994 2138 
Q 2813 1869 2534 1725 
Q 2256 1581 1919 1581 
Q 1219 1581 811 2004 
Q 403 2428 403 3163 
Q 403 3881 828 4315 
Q 1253 4750 1959 4750 
Q 2769 4750 3195 4129 
Q 3622 3509 3622 2328 
Q 3622 1225 3098 567 
Q 2575 -91 1691 -91 
Q 1453 -91 1209 -44 
Q 966 3 703 97 
z
M 1959 2075 
Q 2384 2075 2632 2365 
Q 2881 2656 2881 3163 
Q 2881 3666 2632 3958 
Q 2384 4250 1959 4250 
Q 1534 4250 1286 3958 
Q 1038 3666 1038 3163 
Q 1038 2656 1286 2365 
Q 1534 2075 1959 2075 
z
" transform="scale(0.015625)"/>
       </defs>
       <use xlink:href="#DejaVuSans-39"/>
       <use xlink:href="#DejaVuSans-30" x="63.623047"/>
       <use xlink:href="#DejaVuSans-30" x="127.246094"/>
      </g>
     </g>
    </g>
   </g>
   <g id="line2d_39">
    <path d="M 81.812479 99.450189 
L 84.502623 97.78425 
L 87.192767 102.955604 
L 89.88291 101.116129 
L 92.573054 88.829825 
L 100.643485 80.153056 
L 103.333629 87.82332 
L 106.023772 88.621582 
L 108.713916 83.832006 
L 111.40406 59.849418 
L 119.474491 63.563075 
L 122.164634 88.725703 
L 124.854778 78.417702 
L 127.544922 75.328773 
L 130.235066 88.309219 
L 138.305497 124.335162 
L 140.99564 110.382918 
L 146.375928 121.558596 
L 149.066071 100.179038 
L 157.136502 83.936127 
L 159.826646 91.641098 
L 162.51679 88.864532 
L 165.206933 89.038067 
L 167.897077 92.43936 
L 175.967508 106.426311 
L 178.657652 104.725665 
L 181.347796 96.465381 
L 184.037939 99.276654 
L 186.728083 109.792898 
L 194.798514 132.283082 
L 197.488658 116.907848 
L 200.178801 113.784211 
L 202.868945 115.970757 
L 205.559089 119.788535 
L 213.62952 128.777667 
L 216.319663 138.35682 
L 219.009807 121.176818 
L 221.699951 174.139813 
L 224.390094 131.137748 
L 232.460525 124.647525 
L 237.840813 125.029303 
L 240.530957 131.380698 
L 243.2211 167.753712 
L 251.291531 188.05735 
L 253.981675 188.022643 
L 256.671819 176.222238 
L 259.361962 160.222277 
L 262.052106 160.465226 
L 270.122537 163.866519 
L 272.812681 161.402317 
L 275.502824 153.17674 
L 278.192968 151.649629 
L 288.953543 151.441387 
L 291.643687 154.877387 
L 294.33383 154.426195 
L 297.023974 150.226639 
L 299.714118 151.927286 
L 307.784549 154.565023 
L 310.474692 153.627932 
L 313.164836 138.391527 
L 315.85498 148.699528 
L 318.545123 132.387203 
L 326.615554 108.439322 
L 329.305698 115.623686 
L 331.995842 136.725587 
L 334.685985 139.640981 
L 337.376129 137.836214 
L 345.44656 130.16595 
L 348.136704 142.521669 
L 350.826848 144.812336 
L 364.277566 153.905589 
L 366.96771 163.935934 
L 369.657853 167.510762 
L 372.347997 159.146357 
L 375.038141 162.235287 
L 383.108572 168.899045 
L 385.798715 158.174559 
L 388.488859 166.886035 
L 391.179003 160.708176 
L 393.869146 168.656096 
L 401.939578 174.521591 
L 407.319865 185.523734 
L 410.010009 188.612663 
L 412.700152 197.393553 
L 420.770583 206.972706 
L 423.460727 215.302404 
L 426.150871 230.330567 
L 428.841014 255.632024 
L 431.531158 234.009517 
L 439.601589 232.655941 
L 442.291733 212.248181 
L 444.981876 220.161394 
L 447.67202 231.892385 
L 450.362164 226.755738 
L 458.432595 233.003011 
L 461.122739 234.460709 
L 463.812882 237.029032 
L 466.503026 242.616871 
L 469.19317 233.558325 
L 477.263601 203.95319 
L 479.953744 205.653837 
L 482.643888 209.020423 
L 485.334032 219.224303 
L 488.024175 224.569192 
L 496.094606 229.775253 
L 498.78475 231.996506 
L 501.474894 236.924911 
L 504.165037 235.606042 
L 506.855181 238.972628 
L 514.925612 251.467175 
L 517.615756 253.861963 
L 520.3059 253.757842 
L 522.996043 269.896631 
L 525.686187 273.887945 
L 533.756618 287.840189 
L 536.446762 270.070167 
L 539.136905 277.046289 
L 541.827049 277.254531 
L 544.517193 272.395541 
L 552.587624 260.942206 
L 555.277767 256.048509 
L 557.967911 269.167783 
L 560.658055 286.486613 
L 563.348198 284.404188 
L 571.41863 287.041926 
L 574.108773 290.20027 
L 576.798917 285.723057 
L 579.489061 282.0094 
L 582.179204 277.601602 
L 590.249635 274.89445 
L 592.939779 276.733925 
L 595.629923 274.963864 
L 598.320066 279.892269 
L 601.01021 276.039784 
L 609.080641 267.18948 
L 611.770785 264.586449 
L 614.460928 264.308792 
L 617.151072 264.517035 
L 619.841216 263.198166 
L 627.911647 270.451945 
L 630.601791 272.707904 
L 633.291934 269.306611 
L 635.982078 268.230692 
L 638.672222 244.213396 
L 646.742653 240.881517 
L 649.432796 236.681961 
L 652.12294 240.707982 
L 654.813084 242.894528 
L 657.503227 240.569154 
L 665.573658 229.358769 
L 670.953946 219.189596 
L 673.64409 221.306727 
L 676.334233 223.840344 
L 687.094808 222.660303 
L 689.784952 220.230808 
L 692.475095 190.729795 
L 695.165239 176.152824 
L 703.23567 191.875128 
L 705.925814 190.174482 
L 708.615957 183.684259 
L 711.306101 188.751492 
L 713.996245 187.606158 
L 722.066676 206.243857 
L 724.756819 193.089876 
L 730.137107 195.658199 
L 732.827251 191.771007 
L 740.897682 192.985755 
L 743.587825 194.790523 
L 746.277969 196.074684 
L 748.968113 190.278603 
L 751.658256 192.361027 
L 759.728687 185.766683 
L 762.418831 186.703774 
L 765.108975 191.632179 
L 767.799118 183.649552 
L 770.489262 198.469472 
L 778.559693 206.105029 
L 781.249837 196.282927 
L 783.939981 200.308947 
L 786.630124 199.92717 
L 789.320268 210.408706 
L 797.390699 225.19392 
L 800.080843 216.760101 
L 802.770986 214.365312 
L 805.46113 195.692907 
L 808.151274 196.387048 
L 816.221705 196.282927 
L 818.911848 187.189673 
L 824.292136 178.859975 
L 826.982279 176.08341 
L 835.05271 178.894683 
L 837.742854 182.781875 
L 840.432998 185.072542 
L 843.123142 183.823087 
L 845.813285 184.690764 
L 853.883716 181.115935 
L 856.57386 178.92939 
L 859.264004 170.842641 
L 861.954147 170.946763 
L 864.644291 170.322035 
L 872.714722 170.1485 
L 875.404866 172.508581 
L 880.785153 171.918561 
L 883.475297 173.202722 
L 891.545728 171.953268 
L 894.235872 171.224419 
L 896.926015 162.061751 
L 899.616159 164.873025 
L 902.306303 159.94462 
L 910.376734 156.196256 
L 915.757021 158.035731 
L 918.447165 169.697308 
L 921.137308 167.371934 
L 929.207739 159.736378 
L 931.897883 172.335045 
L 934.588027 181.011814 
L 937.27817 182.191855 
L 939.968314 187.987936 
L 939.968314 187.987936 
" clip-path="url(#p54b3047083)" style="fill: none; stroke: #1f77b4; stroke-width: 1.5; stroke-linecap: square"/>
   </g>
   <g id="line2d_40">
    <path d="M 92.573054 98.027199 
L 100.643485 94.167773 
L 103.333629 92.175587 
L 106.023772 89.308782 
L 108.713916 85.851958 
L 111.40406 80.055876 
L 119.474491 76.73788 
L 122.164634 76.918357 
L 124.854778 74.877581 
L 127.544922 73.176934 
L 130.235066 78.868894 
L 138.305497 91.023312 
L 146.375928 103.982933 
L 149.066071 108.952986 
L 157.136502 108.078368 
L 159.826646 101.539555 
L 162.51679 97.235878 
L 165.206933 90.731772 
L 167.897077 89.183837 
L 175.967508 93.681874 
L 178.657652 96.298787 
L 181.347796 97.818957 
L 184.037939 99.866674 
L 186.728083 103.337382 
L 194.798514 108.508736 
L 197.488658 110.945172 
L 202.868945 117.747759 
L 205.559089 119.746886 
L 213.62952 119.045804 
L 216.319663 123.335598 
L 219.009807 124.814119 
L 221.699951 136.447931 
L 224.390094 138.717773 
L 232.460525 137.891745 
L 237.840813 135.226242 
L 240.530957 137.267018 
L 243.2211 135.989797 
L 251.291531 147.373718 
L 253.981675 160.048741 
L 256.671819 170.287328 
L 259.361962 176.055644 
L 262.052106 174.597947 
L 270.122537 169.759781 
L 272.812681 164.435715 
L 275.502824 159.826616 
L 278.192968 158.112086 
L 288.953543 156.307319 
L 291.643687 154.509492 
L 294.33383 153.114268 
L 297.023974 152.524247 
L 299.714118 152.579779 
L 307.784549 153.204506 
L 310.474692 152.954615 
L 313.164836 149.747682 
L 315.85498 149.442259 
L 318.545123 145.534243 
L 326.615554 136.309102 
L 329.305698 128.708253 
L 331.995842 128.375065 
L 334.685985 126.563356 
L 337.376129 127.653158 
L 345.44656 131.998484 
L 348.136704 137.37808 
L 350.826848 138.99543 
L 364.277566 141.848351 
L 366.96771 147.068295 
L 369.657853 154.537258 
L 375.038141 161.346786 
L 383.108572 164.345477 
L 385.798715 163.193202 
L 388.488859 163.068257 
L 391.179003 163.38062 
L 393.869146 164.664782 
L 401.939578 165.789291 
L 407.319865 171.259126 
L 410.010009 175.604452 
L 412.700152 182.941527 
L 420.770583 190.604849 
L 423.460727 198.761012 
L 426.150871 207.722378 
L 428.841014 221.126251 
L 431.531158 228.449443 
L 439.601589 233.58609 
L 442.291733 232.975246 
L 444.981876 230.941411 
L 447.67202 226.193483 
L 450.362164 224.742728 
L 458.432595 224.812142 
L 461.122739 229.254647 
L 463.812882 232.628175 
L 466.503026 234.773072 
L 469.19317 236.13359 
L 477.263601 230.323625 
L 482.643888 218.960529 
L 485.334032 214.282016 
L 488.024175 212.484189 
L 496.094606 217.648602 
L 498.78475 222.917136 
L 501.474894 228.498033 
L 504.165037 231.774381 
L 506.855181 234.655068 
L 514.925612 238.993452 
L 517.615756 243.366544 
L 520.3059 246.73313 
L 525.686187 260.574311 
L 533.756618 267.848914 
L 536.446762 271.090555 
L 539.136905 275.748244 
L 541.827049 277.219824 
L 544.517193 276.921343 
L 552.587624 271.541747 
L 555.277767 268.737415 
L 557.967911 267.161714 
L 560.658055 269.00813 
L 563.348198 271.40986 
L 571.41863 276.629804 
L 574.108773 283.460156 
L 576.798917 286.771211 
L 579.489061 285.875768 
L 582.179204 284.515251 
L 590.249635 282.085756 
L 592.939779 279.392487 
L 595.629923 277.240648 
L 601.01021 276.504858 
L 609.080641 274.963864 
L 611.770785 272.534369 
L 614.460928 270.403355 
L 617.151072 267.328308 
L 619.841216 264.759984 
L 627.911647 265.412477 
L 630.601791 267.036768 
L 633.291934 268.036332 
L 635.982078 268.779064 
L 638.672222 264.98211 
L 646.742653 259.068024 
L 649.432796 251.862836 
L 652.12294 246.14311 
L 654.813084 241.075877 
L 657.503227 240.347028 
L 665.573658 238.042479 
L 670.953946 234.544006 
L 676.334233 226.852918 
L 687.094808 223.271148 
L 689.784952 221.445556 
L 692.475095 215.753595 
L 695.165239 206.722815 
L 703.23567 200.329772 
L 705.925814 193.832607 
L 708.615957 186.523297 
L 711.306101 186.127637 
L 713.996245 188.418304 
L 722.066676 191.292049 
L 724.756819 191.875128 
L 730.137107 194.269916 
L 732.827251 194.87382 
L 740.897682 195.949739 
L 743.587825 193.659072 
L 746.277969 194.256034 
L 748.968113 193.180114 
L 751.658256 193.298118 
L 759.728687 191.854304 
L 762.418831 190.236954 
L 765.108975 189.348453 
L 767.799118 188.022643 
L 770.489262 189.244332 
L 778.559693 193.312001 
L 781.249837 195.227832 
L 783.939981 196.963185 
L 786.630124 200.218709 
L 789.320268 202.606556 
L 797.390699 206.424334 
L 800.080843 210.519769 
L 802.770986 213.331042 
L 805.46113 212.484189 
L 808.151274 209.679857 
L 816.221705 203.897659 
L 818.911848 197.983573 
L 824.292136 190.882506 
L 826.982279 186.960607 
L 835.05271 183.462134 
L 837.742854 180.761923 
L 840.432998 180.338497 
L 843.123142 181.331119 
L 845.813285 183.05259 
L 853.883716 183.496841 
L 856.57386 182.726344 
L 859.264004 179.880363 
L 861.954147 177.305099 
L 864.644291 174.431353 
L 872.714722 172.237866 
L 875.404866 170.953704 
L 880.785153 171.168888 
L 883.475297 171.62008 
L 894.235872 172.16151 
L 896.926015 170.072144 
L 899.616159 168.663037 
L 902.306303 166.011417 
L 910.376734 162.860014 
L 915.757021 160.222277 
L 918.447165 161.749388 
L 921.137308 162.24917 
L 929.207739 162.207521 
L 931.897883 165.435279 
L 934.588027 170.030496 
L 937.27817 172.529405 
L 939.968314 176.652606 
L 939.968314 176.652606 
" clip-path="url(#p54b3047083)" style="fill: none; stroke: #ff7f0e; stroke-width: 1.5; stroke-linecap: square"/>
   </g>
   <g id="patch_3">
    <path d="M 38.904688 301.717812 
L 38.904688 48.331875 
" style="fill: none; stroke: #000000; stroke-width: 0.8; stroke-linejoin: miter; stroke-linecap: square"/>
   </g>
   <g id="patch_4">
    <path d="M 982.876106 301.717812 
L 982.876106 48.331875 
" style="fill: none; stroke: #000000; stroke-width: 0.8; stroke-linejoin: miter; stroke-linecap: square"/>
   </g>
   <g id="patch_5">
    <path d="M 38.904687 301.717812 
L 982.876106 301.717812 
" style="fill: none; stroke: #000000; stroke-width: 0.8; stroke-linejoin: miter; stroke-linecap: square"/>
   </g>
   <g id="patch_6">
    <path d="M 38.904687 48.331875 
L 982.876106 48.331875 
" style="fill: none; stroke: #000000; stroke-width: 0.8; stroke-linejoin: miter; stroke-linecap: square"/>
   </g>
   <g id="text_8">
    <!-- Closing Price -->
    <g transform="translate(472.414459 42.331875)scale(0.12 -0.12)">
     <defs>
      <path id="DejaVuSans-43" d="M 4122 4306 
L 4122 3641 
Q 3803 3938 3442 4084 
Q 3081 4231 2675 4231 
Q 1875 4231 1450 3742 
Q 1025 3253 1025 2328 
Q 1025 1406 1450 917 
Q 1875 428 2675 428 
Q 3081 428 3442 575 
Q 3803 722 4122 1019 
L 4122 359 
Q 3791 134 3420 21 
Q 3050 -91 2638 -91 
Q 1578 -91 968 557 
Q 359 1206 359 2328 
Q 359 3453 968 4101 
Q 1578 4750 2638 4750 
Q 3056 4750 3426 4639 
Q 3797 4528 4122 4306 
z
" transform="scale(0.015625)"/>
      <path id="DejaVuSans-6c" d="M 603 4863 
L 1178 4863 
L 1178 0 
L 603 0 
L 603 4863 
z
" transform="scale(0.015625)"/>
      <path id="DejaVuSans-6f" d="M 1959 3097 
Q 1497 3097 1228 2736 
Q 959 2375 959 1747 
Q 959 1119 1226 758 
Q 1494 397 1959 397 
Q 2419 397 2687 759 
Q 2956 1122 2956 1747 
Q 2956 2369 2687 2733 
Q 2419 3097 1959 3097 
z
M 1959 3584 
Q 2709 3584 3137 3096 
Q 3566 2609 3566 1747 
Q 3566 888 3137 398 
Q 2709 -91 1959 -91 
Q 1206 -91 779 398 
Q 353 888 353 1747 
Q 353 2609 779 3096 
Q 1206 3584 1959 3584 
z
" transform="scale(0.015625)"/>
      <path id="DejaVuSans-73" d="M 2834 3397 
L 2834 2853 
Q 2591 2978 2328 3040 
Q 2066 3103 1784 3103 
Q 1356 3103 1142 2972 
Q 928 2841 928 2578 
Q 928 2378 1081 2264 
Q 1234 2150 1697 2047 
L 1894 2003 
Q 2506 1872 2764 1633 
Q 3022 1394 3022 966 
Q 3022 478 2636 193 
Q 2250 -91 1575 -91 
Q 1294 -91 989 -36 
Q 684 19 347 128 
L 347 722 
Q 666 556 975 473 
Q 1284 391 1588 391 
Q 1994 391 2212 530 
Q 2431 669 2431 922 
Q 2431 1156 2273 1281 
Q 2116 1406 1581 1522 
L 1381 1569 
Q 847 1681 609 1914 
Q 372 2147 372 2553 
Q 372 3047 722 3315 
Q 1072 3584 1716 3584 
Q 2034 3584 2315 3537 
Q 2597 3491 2834 3397 
z
" transform="scale(0.015625)"/>
      <path id="DejaVuSans-69" d="M 603 3500 
L 1178 3500 
L 1178 0 
L 603 0 
L 603 3500 
z
M 603 4863 
L 1178 4863 
L 1178 4134 
L 603 4134 
L 603 4863 
z
" transform="scale(0.015625)"/>
      <path id="DejaVuSans-6e" d="M 3513 2113 
L 3513 0 
L 2938 0 
L 2938 2094 
Q 2938 2591 2744 2837 
Q 2550 3084 2163 3084 
Q 1697 3084 1428 2787 
Q 1159 2491 1159 1978 
L 1159 0 
L 581 0 
L 581 3500 
L 1159 3500 
L 1159 2956 
Q 1366 3272 1645 3428 
Q 1925 3584 2291 3584 
Q 2894 3584 3203 3211 
Q 3513 2838 3513 2113 
z
" transform="scale(0.015625)"/>
      <path id="DejaVuSans-67" d="M 2906 1791 
Q 2906 2416 2648 2759 
Q 2391 3103 1925 3103 
Q 1463 3103 1205 2759 
Q 947 2416 947 1791 
Q 947 1169 1205 825 
Q 1463 481 1925 481 
Q 2391 481 2648 825 
Q 2906 1169 2906 1791 
z
M 3481 434 
Q 3481 -459 3084 -895 
Q 2688 -1331 1869 -1331 
Q 1566 -1331 1297 -1286 
Q 1028 -1241 775 -1147 
L 775 -588 
Q 1028 -725 1275 -790 
Q 1522 -856 1778 -856 
Q 2344 -856 2625 -561 
Q 2906 -266 2906 331 
L 2906 616 
Q 2728 306 2450 153 
Q 2172 0 1784 0 
Q 1141 0 747 490 
Q 353 981 353 1791 
Q 353 2603 747 3093 
Q 1141 3584 1784 3584 
Q 2172 3584 2450 3431 
Q 2728 3278 2906 2969 
L 2906 3500 
L 3481 3500 
L 3481 434 
z
" transform="scale(0.015625)"/>
      <path id="DejaVuSans-20" transform="scale(0.015625)"/>
      <path id="DejaVuSans-50" d="M 1259 4147 
L 1259 2394 
L 2053 2394 
Q 2494 2394 2734 2622 
Q 2975 2850 2975 3272 
Q 2975 3691 2734 3919 
Q 2494 4147 2053 4147 
L 1259 4147 
z
M 628 4666 
L 2053 4666 
Q 2838 4666 3239 4311 
Q 3641 3956 3641 3272 
Q 3641 2581 3239 2228 
Q 2838 1875 2053 1875 
L 1259 1875 
L 1259 0 
L 628 0 
L 628 4666 
z
" transform="scale(0.015625)"/>
      <path id="DejaVuSans-72" d="M 2631 2963 
Q 2534 3019 2420 3045 
Q 2306 3072 2169 3072 
Q 1681 3072 1420 2755 
Q 1159 2438 1159 1844 
L 1159 0 
L 581 0 
L 581 3500 
L 1159 3500 
L 1159 2956 
Q 1341 3275 1631 3429 
Q 1922 3584 2338 3584 
Q 2397 3584 2469 3576 
Q 2541 3569 2628 3553 
L 2631 2963 
z
" transform="scale(0.015625)"/>
      <path id="DejaVuSans-63" d="M 3122 3366 
L 3122 2828 
Q 2878 2963 2633 3030 
Q 2388 3097 2138 3097 
Q 1578 3097 1268 2742 
Q 959 2388 959 1747 
Q 959 1106 1268 751 
Q 1578 397 2138 397 
Q 2388 397 2633 464 
Q 2878 531 3122 666 
L 3122 134 
Q 2881 22 2623 -34 
Q 2366 -91 2075 -91 
Q 1284 -91 818 406 
Q 353 903 353 1747 
Q 353 2603 823 3093 
Q 1294 3584 2113 3584 
Q 2378 3584 2631 3529 
Q 2884 3475 3122 3366 
z
" transform="scale(0.015625)"/>
      <path id="DejaVuSans-65" d="M 3597 1894 
L 3597 1613 
L 953 1613 
Q 991 1019 1311 708 
Q 1631 397 2203 397 
Q 2534 397 2845 478 
Q 3156 559 3463 722 
L 3463 178 
Q 3153 47 2828 -22 
Q 2503 -91 2169 -91 
Q 1331 -91 842 396 
Q 353 884 353 1716 
Q 353 2575 817 3079 
Q 1281 3584 2069 3584 
Q 2775 3584 3186 3129 
Q 3597 2675 3597 1894 
z
M 3022 2063 
Q 3016 2534 2758 2815 
Q 2500 3097 2075 3097 
Q 1594 3097 1305 2825 
Q 1016 2553 972 2059 
L 3022 2063 
z
" transform="scale(0.015625)"/>
     </defs>
     <use xlink:href="#DejaVuSans-43"/>
     <use xlink:href="#DejaVuSans-6c" x="69.824219"/>
     <use xlink:href="#DejaVuSans-6f" x="97.607422"/>
     <use xlink:href="#DejaVuSans-73" x="158.789062"/>
     <use xlink:href="#DejaVuSans-69" x="210.888672"/>
     <use xlink:href="#DejaVuSans-6e" x="238.671875"/>
     <use xlink:href="#DejaVuSans-67" x="302.050781"/>
     <use xlink:href="#DejaVuSans-20" x="365.527344"/>
     <use xlink:href="#DejaVuSans-50" x="397.314453"/>
     <use xlink:href="#DejaVuSans-72" x="455.867188"/>
     <use xlink:href="#DejaVuSans-69" x="496.980469"/>
     <use xlink:href="#DejaVuSans-63" x="524.763672"/>
     <use xlink:href="#DejaVuSans-65" x="579.744141"/>
    </g>
   </g>
   <g id="legend_1">
    <g id="patch_7">
     <path d="M 911.144856 85.688125 
L 975.876106 85.688125 
Q 977.876106 85.688125 977.876106 83.688125 
L 977.876106 55.331875 
Q 977.876106 53.331875 975.876106 53.331875 
L 911.144856 53.331875 
Q 909.144856 53.331875 909.144856 55.331875 
L 909.144856 83.688125 
Q 909.144856 85.688125 911.144856 85.688125 
z
" style="fill: #ffffff; opacity: 0.8; stroke: #cccccc; stroke-linejoin: miter"/>
    </g>
    <g id="line2d_41">
     <path d="M 913.144856 61.430312 
L 923.144856 61.430312 
L 933.144856 61.430312 
" style="fill: none; stroke: #1f77b4; stroke-width: 1.5; stroke-linecap: square"/>
    </g>
    <g id="text_9">
     <!-- CLOSE -->
     <g transform="translate(941.144856 64.930312)scale(0.1 -0.1)">
      <defs>
       <path id="DejaVuSans-4c" d="M 628 4666 
L 1259 4666 
L 1259 531 
L 3531 531 
L 3531 0 
L 628 0 
L 628 4666 
z
" transform="scale(0.015625)"/>
       <path id="DejaVuSans-4f" d="M 2522 4238 
Q 1834 4238 1429 3725 
Q 1025 3213 1025 2328 
Q 1025 1447 1429 934 
Q 1834 422 2522 422 
Q 3209 422 3611 934 
Q 4013 1447 4013 2328 
Q 4013 3213 3611 3725 
Q 3209 4238 2522 4238 
z
M 2522 4750 
Q 3503 4750 4090 4092 
Q 4678 3434 4678 2328 
Q 4678 1225 4090 567 
Q 3503 -91 2522 -91 
Q 1538 -91 948 565 
Q 359 1222 359 2328 
Q 359 3434 948 4092 
Q 1538 4750 2522 4750 
z
" transform="scale(0.015625)"/>
       <path id="DejaVuSans-53" d="M 3425 4513 
L 3425 3897 
Q 3066 4069 2747 4153 
Q 2428 4238 2131 4238 
Q 1616 4238 1336 4038 
Q 1056 3838 1056 3469 
Q 1056 3159 1242 3001 
Q 1428 2844 1947 2747 
L 2328 2669 
Q 3034 2534 3370 2195 
Q 3706 1856 3706 1288 
Q 3706 609 3251 259 
Q 2797 -91 1919 -91 
Q 1588 -91 1214 -16 
Q 841 59 441 206 
L 441 856 
Q 825 641 1194 531 
Q 1563 422 1919 422 
Q 2459 422 2753 634 
Q 3047 847 3047 1241 
Q 3047 1584 2836 1778 
Q 2625 1972 2144 2069 
L 1759 2144 
Q 1053 2284 737 2584 
Q 422 2884 422 3419 
Q 422 4038 858 4394 
Q 1294 4750 2059 4750 
Q 2388 4750 2728 4690 
Q 3069 4631 3425 4513 
z
" transform="scale(0.015625)"/>
       <path id="DejaVuSans-45" d="M 628 4666 
L 3578 4666 
L 3578 4134 
L 1259 4134 
L 1259 2753 
L 3481 2753 
L 3481 2222 
L 1259 2222 
L 1259 531 
L 3634 531 
L 3634 0 
L 628 0 
L 628 4666 
z
" transform="scale(0.015625)"/>
      </defs>
      <use xlink:href="#DejaVuSans-43"/>
      <use xlink:href="#DejaVuSans-4c" x="69.824219"/>
      <use xlink:href="#DejaVuSans-4f" x="121.912109"/>
      <use xlink:href="#DejaVuSans-53" x="200.623047"/>
      <use xlink:href="#DejaVuSans-45" x="264.099609"/>
     </g>
    </g>
    <g id="line2d_42">
     <path d="M 913.144856 76.108437 
L 923.144856 76.108437 
L 933.144856 76.108437 
" style="fill: none; stroke: #ff7f0e; stroke-width: 1.5; stroke-linecap: square"/>
    </g>
    <g id="text_10">
     <!-- SMA5 -->
     <g transform="translate(941.144856 79.608437)scale(0.1 -0.1)">
      <defs>
       <path id="DejaVuSans-4d" d="M 628 4666 
L 1569 4666 
L 2759 1491 
L 3956 4666 
L 4897 4666 
L 4897 0 
L 4281 0 
L 4281 4097 
L 3078 897 
L 2444 897 
L 1241 4097 
L 1241 0 
L 628 0 
L 628 4666 
z
" transform="scale(0.015625)"/>
       <path id="DejaVuSans-41" d="M 2188 4044 
L 1331 1722 
L 3047 1722 
L 2188 4044 
z
M 1831 4666 
L 2547 4666 
L 4325 0 
L 3669 0 
L 3244 1197 
L 1141 1197 
L 716 0 
L 50 0 
L 1831 4666 
z
" transform="scale(0.015625)"/>
      </defs>
      <use xlink:href="#DejaVuSans-53"/>
      <use xlink:href="#DejaVuSans-4d" x="63.476562"/>
      <use xlink:href="#DejaVuSans-41" x="149.755859"/>
      <use xlink:href="#DejaVuSans-35" x="218.164062"/>
     </g>
    </g>
   </g>
  </g>
  <g id="axes_2">
   <g id="patch_8">
    <path d="M 38.904688 584.521875 
L 982.876106 584.521875 
L 982.876106 331.135938 
L 38.904688 331.135938 
z
" style="fill: #ffffff"/>
   </g>
   <g id="matplotlib.axis_3">
    <g id="xtick_13">
     <g id="line2d_43">
      <path d="M 76.432192 584.521875 
L 76.432192 331.135938 
" clip-path="url(#p5902240ee6)" style="fill: none; stroke-dasharray: 2.96,1.28; stroke-dashoffset: 0; stroke: #b0b0b0; stroke-width: 0.8"/>
     </g>
     <g id="line2d_44">
      <g>
       <use xlink:href="#m192a0c67b7" x="76.432192" y="584.521875" style="stroke: #000000; stroke-width: 0.8"/>
      </g>
     </g>
     <g id="text_11">
      <!-- 2022-01 -->
      <g transform="translate(55.540786 599.120312)scale(0.1 -0.1)">
       <defs>
        <path id="DejaVuSans-32" d="M 1228 531 
L 3431 531 
L 3431 0 
L 469 0 
L 469 531 
Q 828 903 1448 1529 
Q 2069 2156 2228 2338 
Q 2531 2678 2651 2914 
Q 2772 3150 2772 3378 
Q 2772 3750 2511 3984 
Q 2250 4219 1831 4219 
Q 1534 4219 1204 4116 
Q 875 4013 500 3803 
L 500 4441 
Q 881 4594 1212 4672 
Q 1544 4750 1819 4750 
Q 2544 4750 2975 4387 
Q 3406 4025 3406 3419 
Q 3406 3131 3298 2873 
Q 3191 2616 2906 2266 
Q 2828 2175 2409 1742 
Q 1991 1309 1228 531 
z
" transform="scale(0.015625)"/>
        <path id="DejaVuSans-2d" d="M 313 2009 
L 1997 2009 
L 1997 1497 
L 313 1497 
L 313 2009 
z
" transform="scale(0.015625)"/>
        <path id="DejaVuSans-31" d="M 794 531 
L 1825 531 
L 1825 4091 
L 703 3866 
L 703 4441 
L 1819 4666 
L 2450 4666 
L 2450 531 
L 3481 531 
L 3481 0 
L 794 0 
L 794 531 
z
" transform="scale(0.015625)"/>
       </defs>
       <use xlink:href="#DejaVuSans-32"/>
       <use xlink:href="#DejaVuSans-30" x="63.623047"/>
       <use xlink:href="#DejaVuSans-32" x="127.246094"/>
       <use xlink:href="#DejaVuSans-32" x="190.869141"/>
       <use xlink:href="#DejaVuSans-2d" x="254.492188"/>
       <use xlink:href="#DejaVuSans-30" x="290.576172"/>
       <use xlink:href="#DejaVuSans-31" x="354.199219"/>
      </g>
     </g>
    </g>
    <g id="xtick_14">
     <g id="line2d_45">
      <path d="M 159.826646 584.521875 
L 159.826646 331.135938 
" clip-path="url(#p5902240ee6)" style="fill: none; stroke-dasharray: 2.96,1.28; stroke-dashoffset: 0; stroke: #b0b0b0; stroke-width: 0.8"/>
     </g>
     <g id="line2d_46">
      <g>
       <use xlink:href="#m192a0c67b7" x="159.826646" y="584.521875" style="stroke: #000000; stroke-width: 0.8"/>
      </g>
     </g>
     <g id="text_12">
      <!-- 2022-02 -->
      <g transform="translate(138.93524 599.120312)scale(0.1 -0.1)">
       <use xlink:href="#DejaVuSans-32"/>
       <use xlink:href="#DejaVuSans-30" x="63.623047"/>
       <use xlink:href="#DejaVuSans-32" x="127.246094"/>
       <use xlink:href="#DejaVuSans-32" x="190.869141"/>
       <use xlink:href="#DejaVuSans-2d" x="254.492188"/>
       <use xlink:href="#DejaVuSans-30" x="290.576172"/>
       <use xlink:href="#DejaVuSans-32" x="354.199219"/>
      </g>
     </g>
    </g>
    <g id="xtick_15">
     <g id="line2d_47">
      <path d="M 235.150669 584.521875 
L 235.150669 331.135938 
" clip-path="url(#p5902240ee6)" style="fill: none; stroke-dasharray: 2.96,1.28; stroke-dashoffset: 0; stroke: #b0b0b0; stroke-width: 0.8"/>
     </g>
     <g id="line2d_48">
      <g>
       <use xlink:href="#m192a0c67b7" x="235.150669" y="584.521875" style="stroke: #000000; stroke-width: 0.8"/>
      </g>
     </g>
     <g id="text_13">
      <!-- 2022-03 -->
      <g transform="translate(214.259263 599.120312)scale(0.1 -0.1)">
       <defs>
        <path id="DejaVuSans-33" d="M 2597 2516 
Q 3050 2419 3304 2112 
Q 3559 1806 3559 1356 
Q 3559 666 3084 287 
Q 2609 -91 1734 -91 
Q 1441 -91 1130 -33 
Q 819 25 488 141 
L 488 750 
Q 750 597 1062 519 
Q 1375 441 1716 441 
Q 2309 441 2620 675 
Q 2931 909 2931 1356 
Q 2931 1769 2642 2001 
Q 2353 2234 1838 2234 
L 1294 2234 
L 1294 2753 
L 1863 2753 
Q 2328 2753 2575 2939 
Q 2822 3125 2822 3475 
Q 2822 3834 2567 4026 
Q 2313 4219 1838 4219 
Q 1578 4219 1281 4162 
Q 984 4106 628 3988 
L 628 4550 
Q 988 4650 1302 4700 
Q 1616 4750 1894 4750 
Q 2613 4750 3031 4423 
Q 3450 4097 3450 3541 
Q 3450 3153 3228 2886 
Q 3006 2619 2597 2516 
z
" transform="scale(0.015625)"/>
       </defs>
       <use xlink:href="#DejaVuSans-32"/>
       <use xlink:href="#DejaVuSans-30" x="63.623047"/>
       <use xlink:href="#DejaVuSans-32" x="127.246094"/>
       <use xlink:href="#DejaVuSans-32" x="190.869141"/>
       <use xlink:href="#DejaVuSans-2d" x="254.492188"/>
       <use xlink:href="#DejaVuSans-30" x="290.576172"/>
       <use xlink:href="#DejaVuSans-33" x="354.199219"/>
      </g>
     </g>
    </g>
    <g id="xtick_16">
     <g id="line2d_49">
      <path d="M 318.545123 584.521875 
L 318.545123 331.135938 
" clip-path="url(#p5902240ee6)" style="fill: none; stroke-dasharray: 2.96,1.28; stroke-dashoffset: 0; stroke: #b0b0b0; stroke-width: 0.8"/>
     </g>
     <g id="line2d_50">
      <g>
       <use xlink:href="#m192a0c67b7" x="318.545123" y="584.521875" style="stroke: #000000; stroke-width: 0.8"/>
      </g>
     </g>
     <g id="text_14">
      <!-- 2022-04 -->
      <g transform="translate(297.653717 599.120312)scale(0.1 -0.1)">
       <defs>
        <path id="DejaVuSans-34" d="M 2419 4116 
L 825 1625 
L 2419 1625 
L 2419 4116 
z
M 2253 4666 
L 3047 4666 
L 3047 1625 
L 3713 1625 
L 3713 1100 
L 3047 1100 
L 3047 0 
L 2419 0 
L 2419 1100 
L 313 1100 
L 313 1709 
L 2253 4666 
z
" transform="scale(0.015625)"/>
       </defs>
       <use xlink:href="#DejaVuSans-32"/>
       <use xlink:href="#DejaVuSans-30" x="63.623047"/>
       <use xlink:href="#DejaVuSans-32" x="127.246094"/>
       <use xlink:href="#DejaVuSans-32" x="190.869141"/>
       <use xlink:href="#DejaVuSans-2d" x="254.492188"/>
       <use xlink:href="#DejaVuSans-30" x="290.576172"/>
       <use xlink:href="#DejaVuSans-34" x="354.199219"/>
      </g>
     </g>
    </g>
    <g id="xtick_17">
     <g id="line2d_51">
      <path d="M 399.249434 584.521875 
L 399.249434 331.135938 
" clip-path="url(#p5902240ee6)" style="fill: none; stroke-dasharray: 2.96,1.28; stroke-dashoffset: 0; stroke: #b0b0b0; stroke-width: 0.8"/>
     </g>
     <g id="line2d_52">
      <g>
       <use xlink:href="#m192a0c67b7" x="399.249434" y="584.521875" style="stroke: #000000; stroke-width: 0.8"/>
      </g>
     </g>
     <g id="text_15">
      <!-- 2022-05 -->
      <g transform="translate(378.358028 599.120312)scale(0.1 -0.1)">
       <use xlink:href="#DejaVuSans-32"/>
       <use xlink:href="#DejaVuSans-30" x="63.623047"/>
       <use xlink:href="#DejaVuSans-32" x="127.246094"/>
       <use xlink:href="#DejaVuSans-32" x="190.869141"/>
       <use xlink:href="#DejaVuSans-2d" x="254.492188"/>
       <use xlink:href="#DejaVuSans-30" x="290.576172"/>
       <use xlink:href="#DejaVuSans-35" x="354.199219"/>
      </g>
     </g>
    </g>
    <g id="xtick_18">
     <g id="line2d_53">
      <path d="M 482.643888 584.521875 
L 482.643888 331.135938 
" clip-path="url(#p5902240ee6)" style="fill: none; stroke-dasharray: 2.96,1.28; stroke-dashoffset: 0; stroke: #b0b0b0; stroke-width: 0.8"/>
     </g>
     <g id="line2d_54">
      <g>
       <use xlink:href="#m192a0c67b7" x="482.643888" y="584.521875" style="stroke: #000000; stroke-width: 0.8"/>
      </g>
     </g>
     <g id="text_16">
      <!-- 2022-06 -->
      <g transform="translate(461.752482 599.120312)scale(0.1 -0.1)">
       <use xlink:href="#DejaVuSans-32"/>
       <use xlink:href="#DejaVuSans-30" x="63.623047"/>
       <use xlink:href="#DejaVuSans-32" x="127.246094"/>
       <use xlink:href="#DejaVuSans-32" x="190.869141"/>
       <use xlink:href="#DejaVuSans-2d" x="254.492188"/>
       <use xlink:href="#DejaVuSans-30" x="290.576172"/>
       <use xlink:href="#DejaVuSans-36" x="354.199219"/>
      </g>
     </g>
    </g>
    <g id="xtick_19">
     <g id="line2d_55">
      <path d="M 563.348198 584.521875 
L 563.348198 331.135938 
" clip-path="url(#p5902240ee6)" style="fill: none; stroke-dasharray: 2.96,1.28; stroke-dashoffset: 0; stroke: #b0b0b0; stroke-width: 0.8"/>
     </g>
     <g id="line2d_56">
      <g>
       <use xlink:href="#m192a0c67b7" x="563.348198" y="584.521875" style="stroke: #000000; stroke-width: 0.8"/>
      </g>
     </g>
     <g id="text_17">
      <!-- 2022-07 -->
      <g transform="translate(542.456792 599.120312)scale(0.1 -0.1)">
       <use xlink:href="#DejaVuSans-32"/>
       <use xlink:href="#DejaVuSans-30" x="63.623047"/>
       <use xlink:href="#DejaVuSans-32" x="127.246094"/>
       <use xlink:href="#DejaVuSans-32" x="190.869141"/>
       <use xlink:href="#DejaVuSans-2d" x="254.492188"/>
       <use xlink:href="#DejaVuSans-30" x="290.576172"/>
       <use xlink:href="#DejaVuSans-37" x="354.199219"/>
      </g>
     </g>
    </g>
    <g id="xtick_20">
     <g id="line2d_57">
      <path d="M 646.742653 584.521875 
L 646.742653 331.135938 
" clip-path="url(#p5902240ee6)" style="fill: none; stroke-dasharray: 2.96,1.28; stroke-dashoffset: 0; stroke: #b0b0b0; stroke-width: 0.8"/>
     </g>
     <g id="line2d_58">
      <g>
       <use xlink:href="#m192a0c67b7" x="646.742653" y="584.521875" style="stroke: #000000; stroke-width: 0.8"/>
      </g>
     </g>
     <g id="text_18">
      <!-- 2022-08 -->
      <g transform="translate(625.851246 599.120312)scale(0.1 -0.1)">
       <use xlink:href="#DejaVuSans-32"/>
       <use xlink:href="#DejaVuSans-30" x="63.623047"/>
       <use xlink:href="#DejaVuSans-32" x="127.246094"/>
       <use xlink:href="#DejaVuSans-32" x="190.869141"/>
       <use xlink:href="#DejaVuSans-2d" x="254.492188"/>
       <use xlink:href="#DejaVuSans-30" x="290.576172"/>
       <use xlink:href="#DejaVuSans-38" x="354.199219"/>
      </g>
     </g>
    </g>
    <g id="xtick_21">
     <g id="line2d_59">
      <path d="M 730.137107 584.521875 
L 730.137107 331.135938 
" clip-path="url(#p5902240ee6)" style="fill: none; stroke-dasharray: 2.96,1.28; stroke-dashoffset: 0; stroke: #b0b0b0; stroke-width: 0.8"/>
     </g>
     <g id="line2d_60">
      <g>
       <use xlink:href="#m192a0c67b7" x="730.137107" y="584.521875" style="stroke: #000000; stroke-width: 0.8"/>
      </g>
     </g>
     <g id="text_19">
      <!-- 2022-09 -->
      <g transform="translate(709.245701 599.120312)scale(0.1 -0.1)">
       <use xlink:href="#DejaVuSans-32"/>
       <use xlink:href="#DejaVuSans-30" x="63.623047"/>
       <use xlink:href="#DejaVuSans-32" x="127.246094"/>
       <use xlink:href="#DejaVuSans-32" x="190.869141"/>
       <use xlink:href="#DejaVuSans-2d" x="254.492188"/>
       <use xlink:href="#DejaVuSans-30" x="290.576172"/>
       <use xlink:href="#DejaVuSans-39" x="354.199219"/>
      </g>
     </g>
    </g>
    <g id="xtick_22">
     <g id="line2d_61">
      <path d="M 810.841417 584.521875 
L 810.841417 331.135938 
" clip-path="url(#p5902240ee6)" style="fill: none; stroke-dasharray: 2.96,1.28; stroke-dashoffset: 0; stroke: #b0b0b0; stroke-width: 0.8"/>
     </g>
     <g id="line2d_62">
      <g>
       <use xlink:href="#m192a0c67b7" x="810.841417" y="584.521875" style="stroke: #000000; stroke-width: 0.8"/>
      </g>
     </g>
     <g id="text_20">
      <!-- 2022-10 -->
      <g transform="translate(789.950011 599.120312)scale(0.1 -0.1)">
       <use xlink:href="#DejaVuSans-32"/>
       <use xlink:href="#DejaVuSans-30" x="63.623047"/>
       <use xlink:href="#DejaVuSans-32" x="127.246094"/>
       <use xlink:href="#DejaVuSans-32" x="190.869141"/>
       <use xlink:href="#DejaVuSans-2d" x="254.492188"/>
       <use xlink:href="#DejaVuSans-31" x="290.576172"/>
       <use xlink:href="#DejaVuSans-30" x="354.199219"/>
      </g>
     </g>
    </g>
    <g id="xtick_23">
     <g id="line2d_63">
      <path d="M 894.235872 584.521875 
L 894.235872 331.135938 
" clip-path="url(#p5902240ee6)" style="fill: none; stroke-dasharray: 2.96,1.28; stroke-dashoffset: 0; stroke: #b0b0b0; stroke-width: 0.8"/>
     </g>
     <g id="line2d_64">
      <g>
       <use xlink:href="#m192a0c67b7" x="894.235872" y="584.521875" style="stroke: #000000; stroke-width: 0.8"/>
      </g>
     </g>
     <g id="text_21">
      <!-- 2022-11 -->
      <g transform="translate(873.344465 599.120312)scale(0.1 -0.1)">
       <use xlink:href="#DejaVuSans-32"/>
       <use xlink:href="#DejaVuSans-30" x="63.623047"/>
       <use xlink:href="#DejaVuSans-32" x="127.246094"/>
       <use xlink:href="#DejaVuSans-32" x="190.869141"/>
       <use xlink:href="#DejaVuSans-2d" x="254.492188"/>
       <use xlink:href="#DejaVuSans-31" x="290.576172"/>
       <use xlink:href="#DejaVuSans-31" x="354.199219"/>
      </g>
     </g>
    </g>
    <g id="xtick_24">
     <g id="line2d_65">
      <path d="M 974.940182 584.521875 
L 974.940182 331.135938 
" clip-path="url(#p5902240ee6)" style="fill: none; stroke-dasharray: 2.96,1.28; stroke-dashoffset: 0; stroke: #b0b0b0; stroke-width: 0.8"/>
     </g>
     <g id="line2d_66">
      <g>
       <use xlink:href="#m192a0c67b7" x="974.940182" y="584.521875" style="stroke: #000000; stroke-width: 0.8"/>
      </g>
     </g>
     <g id="text_22">
      <!-- 2022-12 -->
      <g transform="translate(954.048776 599.120312)scale(0.1 -0.1)">
       <use xlink:href="#DejaVuSans-32"/>
       <use xlink:href="#DejaVuSans-30" x="63.623047"/>
       <use xlink:href="#DejaVuSans-32" x="127.246094"/>
       <use xlink:href="#DejaVuSans-32" x="190.869141"/>
       <use xlink:href="#DejaVuSans-2d" x="254.492188"/>
       <use xlink:href="#DejaVuSans-31" x="290.576172"/>
       <use xlink:href="#DejaVuSans-32" x="354.199219"/>
      </g>
     </g>
    </g>
   </g>
   <g id="matplotlib.axis_4">
    <g id="ytick_8">
     <g id="line2d_67">
      <path d="M 38.904688 561.310786 
L 982.876106 561.310786 
" clip-path="url(#p5902240ee6)" style="fill: none; stroke-dasharray: 2.96,1.28; stroke-dashoffset: 0; stroke: #b0b0b0; stroke-width: 0.8"/>
     </g>
     <g id="line2d_68">
      <g>
       <use xlink:href="#m7235a8cf4e" x="38.904688" y="561.310786" style="stroke: #000000; stroke-width: 0.8"/>
      </g>
     </g>
     <g id="text_23">
      <!-- −30 -->
      <g transform="translate(10.8 565.110005)scale(0.1 -0.1)">
       <defs>
        <path id="DejaVuSans-2212" d="M 678 2272 
L 4684 2272 
L 4684 1741 
L 678 1741 
L 678 2272 
z
" transform="scale(0.015625)"/>
       </defs>
       <use xlink:href="#DejaVuSans-2212"/>
       <use xlink:href="#DejaVuSans-33" x="83.789062"/>
       <use xlink:href="#DejaVuSans-30" x="147.412109"/>
      </g>
     </g>
    </g>
    <g id="ytick_9">
     <g id="line2d_69">
      <path d="M 38.904688 523.6592 
L 982.876106 523.6592 
" clip-path="url(#p5902240ee6)" style="fill: none; stroke-dasharray: 2.96,1.28; stroke-dashoffset: 0; stroke: #b0b0b0; stroke-width: 0.8"/>
     </g>
     <g id="line2d_70">
      <g>
       <use xlink:href="#m7235a8cf4e" x="38.904688" y="523.6592" style="stroke: #000000; stroke-width: 0.8"/>
      </g>
     </g>
     <g id="text_24">
      <!-- −20 -->
      <g transform="translate(10.8 527.458418)scale(0.1 -0.1)">
       <use xlink:href="#DejaVuSans-2212"/>
       <use xlink:href="#DejaVuSans-32" x="83.789062"/>
       <use xlink:href="#DejaVuSans-30" x="147.412109"/>
      </g>
     </g>
    </g>
    <g id="ytick_10">
     <g id="line2d_71">
      <path d="M 38.904688 486.007613 
L 982.876106 486.007613 
" clip-path="url(#p5902240ee6)" style="fill: none; stroke-dasharray: 2.96,1.28; stroke-dashoffset: 0; stroke: #b0b0b0; stroke-width: 0.8"/>
     </g>
     <g id="line2d_72">
      <g>
       <use xlink:href="#m7235a8cf4e" x="38.904688" y="486.007613" style="stroke: #000000; stroke-width: 0.8"/>
      </g>
     </g>
     <g id="text_25">
      <!-- −10 -->
      <g transform="translate(10.8 489.806832)scale(0.1 -0.1)">
       <use xlink:href="#DejaVuSans-2212"/>
       <use xlink:href="#DejaVuSans-31" x="83.789062"/>
       <use xlink:href="#DejaVuSans-30" x="147.412109"/>
      </g>
     </g>
    </g>
    <g id="ytick_11">
     <g id="line2d_73">
      <path d="M 38.904688 448.356026 
L 982.876106 448.356026 
" clip-path="url(#p5902240ee6)" style="fill: none; stroke-dasharray: 2.96,1.28; stroke-dashoffset: 0; stroke: #b0b0b0; stroke-width: 0.8"/>
     </g>
     <g id="line2d_74">
      <g>
       <use xlink:href="#m7235a8cf4e" x="38.904688" y="448.356026" style="stroke: #000000; stroke-width: 0.8"/>
      </g>
     </g>
     <g id="text_26">
      <!-- 0 -->
      <g transform="translate(25.542188 452.155245)scale(0.1 -0.1)">
       <use xlink:href="#DejaVuSans-30"/>
      </g>
     </g>
    </g>
    <g id="ytick_12">
     <g id="line2d_75">
      <path d="M 38.904688 410.70444 
L 982.876106 410.70444 
" clip-path="url(#p5902240ee6)" style="fill: none; stroke-dasharray: 2.96,1.28; stroke-dashoffset: 0; stroke: #b0b0b0; stroke-width: 0.8"/>
     </g>
     <g id="line2d_76">
      <g>
       <use xlink:href="#m7235a8cf4e" x="38.904688" y="410.70444" style="stroke: #000000; stroke-width: 0.8"/>
      </g>
     </g>
     <g id="text_27">
      <!-- 10 -->
      <g transform="translate(19.179688 414.503658)scale(0.1 -0.1)">
       <use xlink:href="#DejaVuSans-31"/>
       <use xlink:href="#DejaVuSans-30" x="63.623047"/>
      </g>
     </g>
    </g>
    <g id="ytick_13">
     <g id="line2d_77">
      <path d="M 38.904688 373.052853 
L 982.876106 373.052853 
" clip-path="url(#p5902240ee6)" style="fill: none; stroke-dasharray: 2.96,1.28; stroke-dashoffset: 0; stroke: #b0b0b0; stroke-width: 0.8"/>
     </g>
     <g id="line2d_78">
      <g>
       <use xlink:href="#m7235a8cf4e" x="38.904688" y="373.052853" style="stroke: #000000; stroke-width: 0.8"/>
      </g>
     </g>
     <g id="text_28">
      <!-- 20 -->
      <g transform="translate(19.179688 376.852072)scale(0.1 -0.1)">
       <use xlink:href="#DejaVuSans-32"/>
       <use xlink:href="#DejaVuSans-30" x="63.623047"/>
      </g>
     </g>
    </g>
    <g id="ytick_14">
     <g id="line2d_79">
      <path d="M 38.904688 335.401267 
L 982.876106 335.401267 
" clip-path="url(#p5902240ee6)" style="fill: none; stroke-dasharray: 2.96,1.28; stroke-dashoffset: 0; stroke: #b0b0b0; stroke-width: 0.8"/>
     </g>
     <g id="line2d_80">
      <g>
       <use xlink:href="#m7235a8cf4e" x="38.904688" y="335.401267" style="stroke: #000000; stroke-width: 0.8"/>
      </g>
     </g>
     <g id="text_29">
      <!-- 30 -->
      <g transform="translate(19.179688 339.200485)scale(0.1 -0.1)">
       <use xlink:href="#DejaVuSans-33"/>
       <use xlink:href="#DejaVuSans-30" x="63.623047"/>
      </g>
     </g>
    </g>
   </g>
   <g id="line2d_81">
    <path d="M 81.812479 448.356026 
L 84.502623 448.153287 
L 87.192767 448.967538 
L 89.88291 448.962649 
L 92.573054 446.295331 
L 100.643485 442.718141 
L 103.333629 442.405941 
L 106.023772 442.498201 
L 108.713916 441.362277 
L 111.40406 433.957578 
L 119.474491 429.881912 
L 122.164634 434.642538 
L 124.854778 435.196661 
L 127.544922 434.811289 
L 130.235066 438.87163 
L 138.305497 453.923458 
L 140.99564 460.65008 
L 146.375928 469.472684 
L 149.066071 468.556954 
L 157.136502 461.86434 
L 159.826646 459.296553 
L 162.51679 456.167973 
L 165.206933 453.712949 
L 167.897077 453.011287 
L 175.967508 457.68416 
L 178.657652 460.564714 
L 181.347796 459.490512 
L 184.037939 459.613514 
L 186.728083 463.69054 
L 194.798514 475.555561 
L 197.488658 478.407838 
L 200.178801 479.041611 
L 202.868945 480.060756 
L 205.559089 482.033749 
L 213.62952 486.8379 
L 216.319663 494.060072 
L 219.009807 492.146124 
L 221.699951 511.932285 
L 224.390094 508.930599 
L 232.460525 503.196541 
L 237.840813 498.23752 
L 240.530957 496.431475 
L 243.2211 509.673861 
L 251.291531 527.850699 
L 253.981675 541.159064 
L 256.671819 545.549476 
L 262.052106 536.700836 
L 270.122537 533.666201 
L 272.812681 529.268939 
L 278.192968 513.762923 
L 288.953543 506.940287 
L 294.33383 498.019626 
L 297.023974 492.233008 
L 299.714118 487.926525 
L 307.784549 485.230442 
L 310.474692 482.29608 
L 313.164836 473.077746 
L 315.85498 469.996531 
L 318.545123 460.333018 
L 326.615554 442.339276 
L 329.305698 431.399278 
L 331.995842 432.095972 
L 334.685985 434.081437 
L 337.376129 435.02296 
L 345.44656 432.610176 
L 348.136704 436.221272 
L 350.826848 440.175655 
L 364.277566 447.286094 
L 366.96771 457.193184 
L 369.657853 466.395642 
L 372.347997 469.791597 
L 375.038141 473.54046 
L 383.108572 479.066053 
L 385.798715 478.415998 
L 388.488859 481.324814 
L 391.179003 480.560423 
L 393.869146 483.026727 
L 401.939578 487.097116 
L 407.319865 494.597066 
L 410.010009 501.280367 
L 412.700152 509.707192 
L 420.770583 519.749319 
L 423.460727 530.402975 
L 426.150871 544.309756 
L 428.841014 565.047833 
L 431.531158 570.61854 
L 439.601589 573.004332 
L 442.291733 564.629865 
L 444.981876 560.164879 
L 447.67202 560.464697 
L 450.362164 557.200731 
L 458.432595 556.104506 
L 461.122739 554.648011 
L 463.812882 553.406202 
L 466.503026 553.652695 
L 469.19317 548.727925 
L 477.263601 530.920878 
L 479.953744 516.76417 
L 482.643888 506.349351 
L 485.334032 501.942432 
L 488.024175 500.191041 
L 496.094606 500.480146 
L 498.78475 501.073498 
L 501.474894 503.069572 
L 504.165037 503.43936 
L 506.855181 504.557739 
L 514.925612 510.198789 
L 517.615756 514.949658 
L 520.3059 517.867873 
L 522.996043 526.3442 
L 525.686187 533.8232 
L 533.756618 544.745122 
L 536.446762 544.515568 
L 539.136905 546.258081 
L 541.827049 546.59768 
L 544.517193 543.641891 
L 552.587624 535.284809 
L 555.277767 525.629268 
L 557.967911 522.860034 
L 560.658055 527.334658 
L 563.348198 529.039359 
L 571.41863 530.59675 
L 574.108773 532.246237 
L 576.798917 530.645363 
L 579.489061 526.846522 
L 582.179204 521.068573 
L 590.249635 514.541721 
L 592.939779 509.469743 
L 595.629923 504.033641 
L 598.320066 501.272528 
L 601.01021 496.839307 
L 609.080641 488.984058 
L 611.770785 481.240363 
L 614.460928 474.678477 
L 617.151072 469.327532 
L 619.841216 464.325543 
L 627.911647 463.363262 
L 630.601791 463.414449 
L 633.291934 461.811234 
L 635.982078 459.936276 
L 638.672222 447.943205 
L 646.742653 437.109947 
L 649.432796 426.933391 
L 652.12294 420.946477 
L 657.503227 414.170643 
L 665.573658 407.089831 
L 670.953946 397.612301 
L 673.64409 391.681237 
L 676.334233 388.776546 
L 687.094808 386.669161 
L 689.784952 384.669827 
L 692.475095 371.064171 
L 695.165239 354.977877 
L 703.23567 350.241792 
L 705.925814 346.913432 
L 708.615957 342.65348 
L 711.306101 342.713079 
L 713.996245 343.4681 
L 724.756819 356.429059 
L 730.137107 361.024281 
L 732.827251 363.93778 
L 740.897682 367.708087 
L 743.587825 372.362016 
L 746.277969 377.42994 
L 748.968113 379.700855 
L 751.658256 383.163519 
L 759.728687 383.766004 
L 762.418831 385.379583 
L 765.108975 389.493978 
L 767.799118 389.934226 
L 770.489262 397.357488 
L 778.559693 407.058509 
L 781.249837 410.87964 
L 783.939981 416.042539 
L 786.630124 420.290595 
L 789.320268 428.474028 
L 797.390699 441.509672 
L 800.080843 448.151499 
L 802.770986 452.321318 
L 805.46113 447.46355 
L 808.151274 443.968131 
L 816.221705 441.234506 
L 818.911848 435.239292 
L 824.292136 427.087412 
L 826.982279 419.741572 
L 835.05271 415.52881 
L 837.742854 414.284297 
L 840.432998 414.688703 
L 843.123142 414.84858 
L 845.813285 415.731135 
L 853.883716 415.247563 
L 856.57386 414.299884 
L 859.264004 410.446375 
L 861.954147 407.904316 
L 864.644291 406.103344 
L 872.714722 405.098749 
L 875.404866 405.825839 
L 880.785153 406.62487 
L 883.475297 408.282115 
L 891.545728 409.496572 
L 894.235872 410.57554 
L 896.926015 407.886752 
L 899.616159 407.457776 
L 902.306303 405.455244 
L 910.376734 402.753292 
L 915.757021 401.952007 
L 918.447165 406.898996 
L 921.137308 410.241099 
L 929.207739 409.990015 
L 931.897883 415.68195 
L 934.588027 424.268229 
L 937.27817 431.780478 
L 939.968314 440.362999 
L 939.968314 440.362999 
" clip-path="url(#p5902240ee6)" style="fill: none; stroke: #1f77b4; stroke-width: 1.5; stroke-linecap: square"/>
   </g>
   <g id="line2d_82">
    <path d="M 81.812479 448.356026 
L 84.502623 448.243393 
L 87.192767 448.540174 
L 89.88291 448.683289 
L 92.573054 447.972926 
L 100.643485 446.548587 
L 103.333629 445.500193 
L 108.713916 443.989534 
L 111.40406 441.741794 
L 122.164634 438.179567 
L 127.544922 436.9757 
L 130.235066 437.368714 
L 138.305497 440.775557 
L 140.99564 444.84203 
L 146.375928 449.85853 
L 149.066071 453.652898 
L 157.136502 455.314341 
L 159.826646 456.118198 
L 162.51679 456.128227 
L 167.897077 455.113603 
L 175.967508 455.629664 
L 178.657652 456.619666 
L 184.037939 457.679822 
L 186.728083 458.883828 
L 194.798514 462.222308 
L 197.488658 465.462623 
L 200.178801 468.180574 
L 205.559089 472.854408 
L 213.62952 475.652241 
L 216.319663 479.335003 
L 219.009807 481.897892 
L 221.699951 487.906019 
L 224.390094 492.111634 
L 232.460525 494.32891 
L 237.840813 495.110715 
L 240.530957 495.374889 
L 243.2211 498.234878 
L 251.291531 504.158365 
L 253.981675 511.558827 
L 256.671819 518.357194 
L 259.361962 522.910811 
L 262.052106 525.668877 
L 270.122537 527.268371 
L 272.812681 527.66849 
L 275.502824 526.415977 
L 278.192968 523.885343 
L 288.953543 520.496307 
L 294.33383 513.104256 
L 299.714118 504.729285 
L 307.784549 500.829507 
L 310.474692 497.122814 
L 313.164836 492.313793 
L 315.85498 487.850335 
L 318.545123 482.346867 
L 326.615554 474.345342 
L 329.305698 465.756124 
L 331.995842 459.02409 
L 334.685985 454.035558 
L 337.376129 450.233037 
L 345.44656 446.708464 
L 348.136704 444.611025 
L 350.826848 443.723951 
L 364.277566 444.43638 
L 366.96771 446.987741 
L 372.347997 454.653777 
L 375.038141 458.431114 
L 383.108572 462.558102 
L 388.488859 468.848707 
L 393.869146 473.558186 
L 401.939578 476.265972 
L 407.319865 479.932191 
L 410.010009 484.201826 
L 412.700152 489.302899 
L 420.770583 495.392183 
L 423.460727 502.394342 
L 426.150871 510.777425 
L 428.841014 521.631506 
L 431.531158 531.428913 
L 439.601589 539.743997 
L 442.291733 544.721171 
L 444.981876 547.809912 
L 447.67202 550.340869 
L 450.362164 551.712842 
L 458.432595 552.591174 
L 461.122739 553.002542 
L 466.503026 553.197158 
L 469.19317 552.303311 
L 477.263601 548.026825 
L 479.953744 541.774294 
L 482.643888 534.689305 
L 485.334032 528.139931 
L 488.024175 522.550153 
L 496.094606 518.136151 
L 498.78475 514.723621 
L 501.474894 512.392811 
L 504.165037 510.602121 
L 506.855181 509.393244 
L 514.925612 509.554353 
L 517.615756 510.633414 
L 520.3059 512.080306 
L 522.996043 514.933085 
L 525.686187 518.711108 
L 533.756618 523.917911 
L 536.446762 528.037442 
L 539.136905 531.68157 
L 541.827049 534.664792 
L 544.517193 536.460212 
L 552.587624 536.225131 
L 557.967911 531.856774 
L 560.658055 530.952351 
L 563.348198 530.569752 
L 571.41863 530.575152 
L 574.108773 530.909369 
L 576.798917 530.856568 
L 579.489061 530.054558 
L 582.179204 528.257361 
L 590.249635 525.514233 
L 592.939779 522.305335 
L 601.01021 511.508104 
L 609.080641 507.003294 
L 611.770785 501.850708 
L 619.841216 485.663921 
L 627.911647 481.20379 
L 630.601791 477.645922 
L 633.291934 474.478984 
L 635.982078 471.570443 
L 638.672222 466.844995 
L 646.742653 460.897985 
L 652.12294 447.473349 
L 654.813084 441.481547 
L 657.503227 436.019366 
L 665.573658 430.233459 
L 670.953946 423.709228 
L 673.64409 417.303629 
L 676.334233 411.598213 
L 687.094808 406.612402 
L 689.784952 402.223887 
L 692.475095 395.991944 
L 695.165239 387.78913 
L 703.23567 380.279663 
L 705.925814 373.606417 
L 708.615957 367.415829 
L 711.306101 362.475279 
L 713.996245 358.673843 
L 722.066676 357.602962 
L 724.756819 357.368181 
L 730.137107 358.099401 
L 732.827251 359.267077 
L 740.897682 360.955279 
L 743.587825 363.236626 
L 751.658256 371.673026 
L 759.728687 374.091621 
L 762.418831 376.349214 
L 765.108975 378.978166 
L 767.799118 381.169378 
L 770.489262 384.407 
L 778.559693 388.937302 
L 783.939981 397.869123 
L 786.630124 402.353418 
L 789.320268 407.57754 
L 797.390699 414.363966 
L 800.080843 421.121473 
L 802.770986 427.361442 
L 805.46113 431.381863 
L 808.151274 433.899117 
L 816.221705 435.366195 
L 818.911848 435.340814 
L 824.292136 433.690134 
L 826.982279 430.900421 
L 835.05271 427.826099 
L 837.742854 425.117739 
L 840.432998 423.031932 
L 843.123142 421.395261 
L 845.813285 420.262436 
L 853.883716 419.259461 
L 856.57386 418.267546 
L 859.264004 416.703312 
L 864.644291 413.175479 
L 872.714722 411.560133 
L 875.404866 410.413274 
L 883.475297 409.380898 
L 891.545728 409.404032 
L 894.235872 409.638334 
L 899.616159 408.921969 
L 902.306303 408.228624 
L 910.376734 407.133558 
L 915.757021 406.097248 
L 918.447165 406.257597 
L 921.137308 407.054298 
L 929.207739 407.641441 
L 931.897883 409.249543 
L 934.588027 412.25328 
L 937.27817 416.15872 
L 939.968314 420.999576 
L 939.968314 420.999576 
" clip-path="url(#p5902240ee6)" style="fill: none; stroke: #ff7f0e; stroke-width: 1.5; stroke-linecap: square"/>
   </g>
   <g id="patch_9">
    <path d="M 38.904688 584.521875 
L 38.904688 331.135938 
" style="fill: none; stroke: #000000; stroke-width: 0.8; stroke-linejoin: miter; stroke-linecap: square"/>
   </g>
   <g id="patch_10">
    <path d="M 982.876106 584.521875 
L 982.876106 331.135938 
" style="fill: none; stroke: #000000; stroke-width: 0.8; stroke-linejoin: miter; stroke-linecap: square"/>
   </g>
   <g id="patch_11">
    <path d="M 38.904687 584.521875 
L 982.876106 584.521875 
" style="fill: none; stroke: #000000; stroke-width: 0.8; stroke-linejoin: miter; stroke-linecap: square"/>
   </g>
   <g id="patch_12">
    <path d="M 38.904687 331.135938 
L 982.876106 331.135938 
" style="fill: none; stroke: #000000; stroke-width: 0.8; stroke-linejoin: miter; stroke-linecap: square"/>
   </g>
   <g id="text_30">
    <!-- MACD -->
    <g transform="translate(492.904459 325.135938)scale(0.12 -0.12)">
     <defs>
      <path id="DejaVuSans-44" d="M 1259 4147 
L 1259 519 
L 2022 519 
Q 2988 519 3436 956 
Q 3884 1394 3884 2338 
Q 3884 3275 3436 3711 
Q 2988 4147 2022 4147 
L 1259 4147 
z
M 628 4666 
L 1925 4666 
Q 3281 4666 3915 4102 
Q 4550 3538 4550 2338 
Q 4550 1131 3912 565 
Q 3275 0 1925 0 
L 628 0 
L 628 4666 
z
" transform="scale(0.015625)"/>
     </defs>
     <use xlink:href="#DejaVuSans-4d"/>
     <use xlink:href="#DejaVuSans-41" x="86.279297"/>
     <use xlink:href="#DejaVuSans-43" x="152.9375"/>
     <use xlink:href="#DejaVuSans-44" x="222.761719"/>
    </g>
   </g>
   <g id="legend_2">
    <g id="patch_13">
     <path d="M 913.899543 368.492188 
L 975.876106 368.492188 
Q 977.876106 368.492188 977.876106 366.492188 
L 977.876106 338.135938 
Q 977.876106 336.135938 975.876106 336.135938 
L 913.899543 336.135938 
Q 911.899543 336.135938 911.899543 338.135938 
L 911.899543 366.492188 
Q 911.899543 368.492188 913.899543 368.492188 
z
" style="fill: #ffffff; opacity: 0.8; stroke: #cccccc; stroke-linejoin: miter"/>
    </g>
    <g id="line2d_83">
     <path d="M 915.899543 344.234375 
L 925.899543 344.234375 
L 935.899543 344.234375 
" style="fill: none; stroke: #1f77b4; stroke-width: 1.5; stroke-linecap: square"/>
    </g>
    <g id="text_31">
     <!-- MACD -->
     <g transform="translate(943.899543 347.734375)scale(0.1 -0.1)">
      <use xlink:href="#DejaVuSans-4d"/>
      <use xlink:href="#DejaVuSans-41" x="86.279297"/>
      <use xlink:href="#DejaVuSans-43" x="152.9375"/>
      <use xlink:href="#DejaVuSans-44" x="222.761719"/>
     </g>
    </g>
    <g id="line2d_84">
     <path d="M 915.899543 358.9125 
L 925.899543 358.9125 
L 935.899543 358.9125 
" style="fill: none; stroke: #ff7f0e; stroke-width: 1.5; stroke-linecap: square"/>
    </g>
    <g id="text_32">
     <!-- SIG -->
     <g transform="translate(943.899543 362.4125)scale(0.1 -0.1)">
      <defs>
       <path id="DejaVuSans-49" d="M 628 4666 
L 1259 4666 
L 1259 0 
L 628 0 
L 628 4666 
z
" transform="scale(0.015625)"/>
       <path id="DejaVuSans-47" d="M 3809 666 
L 3809 1919 
L 2778 1919 
L 2778 2438 
L 4434 2438 
L 4434 434 
Q 4069 175 3628 42 
Q 3188 -91 2688 -91 
Q 1594 -91 976 548 
Q 359 1188 359 2328 
Q 359 3472 976 4111 
Q 1594 4750 2688 4750 
Q 3144 4750 3555 4637 
Q 3966 4525 4313 4306 
L 4313 3634 
Q 3963 3931 3569 4081 
Q 3175 4231 2741 4231 
Q 1884 4231 1454 3753 
Q 1025 3275 1025 2328 
Q 1025 1384 1454 906 
Q 1884 428 2741 428 
Q 3075 428 3337 486 
Q 3600 544 3809 666 
z
" transform="scale(0.015625)"/>
      </defs>
      <use xlink:href="#DejaVuSans-53"/>
      <use xlink:href="#DejaVuSans-49" x="63.476562"/>
      <use xlink:href="#DejaVuSans-47" x="92.96875"/>
     </g>
    </g>
   </g>
  </g>
  <g id="text_33">
   <!-- Indian Railway Catering And Tourism Corporation Limited -->
   <g transform="translate(332.439375 21.358125)scale(0.12 -0.12)">
    <defs>
     <path id="DejaVuSans-64" d="M 2906 2969 
L 2906 4863 
L 3481 4863 
L 3481 0 
L 2906 0 
L 2906 525 
Q 2725 213 2448 61 
Q 2172 -91 1784 -91 
Q 1150 -91 751 415 
Q 353 922 353 1747 
Q 353 2572 751 3078 
Q 1150 3584 1784 3584 
Q 2172 3584 2448 3432 
Q 2725 3281 2906 2969 
z
M 947 1747 
Q 947 1113 1208 752 
Q 1469 391 1925 391 
Q 2381 391 2643 752 
Q 2906 1113 2906 1747 
Q 2906 2381 2643 2742 
Q 2381 3103 1925 3103 
Q 1469 3103 1208 2742 
Q 947 2381 947 1747 
z
" transform="scale(0.015625)"/>
     <path id="DejaVuSans-61" d="M 2194 1759 
Q 1497 1759 1228 1600 
Q 959 1441 959 1056 
Q 959 750 1161 570 
Q 1363 391 1709 391 
Q 2188 391 2477 730 
Q 2766 1069 2766 1631 
L 2766 1759 
L 2194 1759 
z
M 3341 1997 
L 3341 0 
L 2766 0 
L 2766 531 
Q 2569 213 2275 61 
Q 1981 -91 1556 -91 
Q 1019 -91 701 211 
Q 384 513 384 1019 
Q 384 1609 779 1909 
Q 1175 2209 1959 2209 
L 2766 2209 
L 2766 2266 
Q 2766 2663 2505 2880 
Q 2244 3097 1772 3097 
Q 1472 3097 1187 3025 
Q 903 2953 641 2809 
L 641 3341 
Q 956 3463 1253 3523 
Q 1550 3584 1831 3584 
Q 2591 3584 2966 3190 
Q 3341 2797 3341 1997 
z
" transform="scale(0.015625)"/>
     <path id="DejaVuSans-52" d="M 2841 2188 
Q 3044 2119 3236 1894 
Q 3428 1669 3622 1275 
L 4263 0 
L 3584 0 
L 2988 1197 
Q 2756 1666 2539 1819 
Q 2322 1972 1947 1972 
L 1259 1972 
L 1259 0 
L 628 0 
L 628 4666 
L 2053 4666 
Q 2853 4666 3247 4331 
Q 3641 3997 3641 3322 
Q 3641 2881 3436 2590 
Q 3231 2300 2841 2188 
z
M 1259 4147 
L 1259 2491 
L 2053 2491 
Q 2509 2491 2742 2702 
Q 2975 2913 2975 3322 
Q 2975 3731 2742 3939 
Q 2509 4147 2053 4147 
L 1259 4147 
z
" transform="scale(0.015625)"/>
     <path id="DejaVuSans-77" d="M 269 3500 
L 844 3500 
L 1563 769 
L 2278 3500 
L 2956 3500 
L 3675 769 
L 4391 3500 
L 4966 3500 
L 4050 0 
L 3372 0 
L 2619 2869 
L 1863 0 
L 1184 0 
L 269 3500 
z
" transform="scale(0.015625)"/>
     <path id="DejaVuSans-79" d="M 2059 -325 
Q 1816 -950 1584 -1140 
Q 1353 -1331 966 -1331 
L 506 -1331 
L 506 -850 
L 844 -850 
Q 1081 -850 1212 -737 
Q 1344 -625 1503 -206 
L 1606 56 
L 191 3500 
L 800 3500 
L 1894 763 
L 2988 3500 
L 3597 3500 
L 2059 -325 
z
" transform="scale(0.015625)"/>
     <path id="DejaVuSans-74" d="M 1172 4494 
L 1172 3500 
L 2356 3500 
L 2356 3053 
L 1172 3053 
L 1172 1153 
Q 1172 725 1289 603 
Q 1406 481 1766 481 
L 2356 481 
L 2356 0 
L 1766 0 
Q 1100 0 847 248 
Q 594 497 594 1153 
L 594 3053 
L 172 3053 
L 172 3500 
L 594 3500 
L 594 4494 
L 1172 4494 
z
" transform="scale(0.015625)"/>
     <path id="DejaVuSans-54" d="M -19 4666 
L 3928 4666 
L 3928 4134 
L 2272 4134 
L 2272 0 
L 1638 0 
L 1638 4134 
L -19 4134 
L -19 4666 
z
" transform="scale(0.015625)"/>
     <path id="DejaVuSans-75" d="M 544 1381 
L 544 3500 
L 1119 3500 
L 1119 1403 
Q 1119 906 1312 657 
Q 1506 409 1894 409 
Q 2359 409 2629 706 
Q 2900 1003 2900 1516 
L 2900 3500 
L 3475 3500 
L 3475 0 
L 2900 0 
L 2900 538 
Q 2691 219 2414 64 
Q 2138 -91 1772 -91 
Q 1169 -91 856 284 
Q 544 659 544 1381 
z
M 1991 3584 
L 1991 3584 
z
" transform="scale(0.015625)"/>
     <path id="DejaVuSans-6d" d="M 3328 2828 
Q 3544 3216 3844 3400 
Q 4144 3584 4550 3584 
Q 5097 3584 5394 3201 
Q 5691 2819 5691 2113 
L 5691 0 
L 5113 0 
L 5113 2094 
Q 5113 2597 4934 2840 
Q 4756 3084 4391 3084 
Q 3944 3084 3684 2787 
Q 3425 2491 3425 1978 
L 3425 0 
L 2847 0 
L 2847 2094 
Q 2847 2600 2669 2842 
Q 2491 3084 2119 3084 
Q 1678 3084 1418 2786 
Q 1159 2488 1159 1978 
L 1159 0 
L 581 0 
L 581 3500 
L 1159 3500 
L 1159 2956 
Q 1356 3278 1631 3431 
Q 1906 3584 2284 3584 
Q 2666 3584 2933 3390 
Q 3200 3197 3328 2828 
z
" transform="scale(0.015625)"/>
     <path id="DejaVuSans-70" d="M 1159 525 
L 1159 -1331 
L 581 -1331 
L 581 3500 
L 1159 3500 
L 1159 2969 
Q 1341 3281 1617 3432 
Q 1894 3584 2278 3584 
Q 2916 3584 3314 3078 
Q 3713 2572 3713 1747 
Q 3713 922 3314 415 
Q 2916 -91 2278 -91 
Q 1894 -91 1617 61 
Q 1341 213 1159 525 
z
M 3116 1747 
Q 3116 2381 2855 2742 
Q 2594 3103 2138 3103 
Q 1681 3103 1420 2742 
Q 1159 2381 1159 1747 
Q 1159 1113 1420 752 
Q 1681 391 2138 391 
Q 2594 391 2855 752 
Q 3116 1113 3116 1747 
z
" transform="scale(0.015625)"/>
    </defs>
    <use xlink:href="#DejaVuSans-49"/>
    <use xlink:href="#DejaVuSans-6e" x="29.492188"/>
    <use xlink:href="#DejaVuSans-64" x="92.871094"/>
    <use xlink:href="#DejaVuSans-69" x="156.347656"/>
    <use xlink:href="#DejaVuSans-61" x="184.130859"/>
    <use xlink:href="#DejaVuSans-6e" x="245.410156"/>
    <use xlink:href="#DejaVuSans-20" x="308.789062"/>
    <use xlink:href="#DejaVuSans-52" x="340.576172"/>
    <use xlink:href="#DejaVuSans-61" x="407.808594"/>
    <use xlink:href="#DejaVuSans-69" x="469.087891"/>
    <use xlink:href="#DejaVuSans-6c" x="496.871094"/>
    <use xlink:href="#DejaVuSans-77" x="524.654297"/>
    <use xlink:href="#DejaVuSans-61" x="606.441406"/>
    <use xlink:href="#DejaVuSans-79" x="667.720703"/>
    <use xlink:href="#DejaVuSans-20" x="726.900391"/>
    <use xlink:href="#DejaVuSans-43" x="758.6875"/>
    <use xlink:href="#DejaVuSans-61" x="828.511719"/>
    <use xlink:href="#DejaVuSans-74" x="889.791016"/>
    <use xlink:href="#DejaVuSans-65" x="929"/>
    <use xlink:href="#DejaVuSans-72" x="990.523438"/>
    <use xlink:href="#DejaVuSans-69" x="1031.636719"/>
    <use xlink:href="#DejaVuSans-6e" x="1059.419922"/>
    <use xlink:href="#DejaVuSans-67" x="1122.798828"/>
    <use xlink:href="#DejaVuSans-20" x="1186.275391"/>
    <use xlink:href="#DejaVuSans-41" x="1218.0625"/>
    <use xlink:href="#DejaVuSans-6e" x="1286.470703"/>
    <use xlink:href="#DejaVuSans-64" x="1349.849609"/>
    <use xlink:href="#DejaVuSans-20" x="1413.326172"/>
    <use xlink:href="#DejaVuSans-54" x="1445.113281"/>
    <use xlink:href="#DejaVuSans-6f" x="1489.197266"/>
    <use xlink:href="#DejaVuSans-75" x="1550.378906"/>
    <use xlink:href="#DejaVuSans-72" x="1613.757812"/>
    <use xlink:href="#DejaVuSans-69" x="1654.871094"/>
    <use xlink:href="#DejaVuSans-73" x="1682.654297"/>
    <use xlink:href="#DejaVuSans-6d" x="1734.753906"/>
    <use xlink:href="#DejaVuSans-20" x="1832.166016"/>
    <use xlink:href="#DejaVuSans-43" x="1863.953125"/>
    <use xlink:href="#DejaVuSans-6f" x="1933.777344"/>
    <use xlink:href="#DejaVuSans-72" x="1994.958984"/>
    <use xlink:href="#DejaVuSans-70" x="2036.072266"/>
    <use xlink:href="#DejaVuSans-6f" x="2099.548828"/>
    <use xlink:href="#DejaVuSans-72" x="2160.730469"/>
    <use xlink:href="#DejaVuSans-61" x="2201.84375"/>
    <use xlink:href="#DejaVuSans-74" x="2263.123047"/>
    <use xlink:href="#DejaVuSans-69" x="2302.332031"/>
    <use xlink:href="#DejaVuSans-6f" x="2330.115234"/>
    <use xlink:href="#DejaVuSans-6e" x="2391.296875"/>
    <use xlink:href="#DejaVuSans-20" x="2454.675781"/>
    <use xlink:href="#DejaVuSans-4c" x="2486.462891"/>
    <use xlink:href="#DejaVuSans-69" x="2542.175781"/>
    <use xlink:href="#DejaVuSans-6d" x="2569.958984"/>
    <use xlink:href="#DejaVuSans-69" x="2667.371094"/>
    <use xlink:href="#DejaVuSans-74" x="2695.154297"/>
    <use xlink:href="#DejaVuSans-65" x="2734.363281"/>
    <use xlink:href="#DejaVuSans-64" x="2795.886719"/>
   </g>
  </g>
 </g>
 <defs>
  <clipPath id="p54b3047083">
   <rect x="38.904688" y="48.331875" width="943.971418" height="253.385938"/>
  </clipPath>
  <clipPath id="p5902240ee6">
   <rect x="38.904688" y="331.135938" width="943.971418" height="253.385937"/>
  </clipPath>
 </defs>
</svg>
