<?xml version="1.0" encoding="utf-8" standalone="no"?>
<!DOCTYPE svg PUBLIC "-//W3C//DTD SVG 1.1//EN"
  "http://www.w3.org/Graphics/SVG/1.1/DTD/svg11.dtd">
<svg xmlns:xlink="http://www.w3.org/1999/xlink" width="1008pt" height="612pt" viewBox="0 0 1008 612" xmlns="http://www.w3.org/2000/svg" version="1.1">
 <metadata>
  <rdf:RDF xmlns:dc="http://purl.org/dc/elements/1.1/" xmlns:cc="http://creativecommons.org/ns#" xmlns:rdf="http://www.w3.org/1999/02/22-rdf-syntax-ns#">
   <cc:Work>
    <dc:type rdf:resource="http://purl.org/dc/dcmitype/StillImage"/>
    <dc:date>2022-11-20T19:47:29.266240</dc:date>
    <dc:format>image/svg+xml</dc:format>
    <dc:creator>
     <cc:Agent>
      <dc:title>Matplotlib v3.5.2, https://matplotlib.org/</dc:title>
     </cc:Agent>
    </dc:creator>
   </cc:Work>
  </rdf:RDF>
 </metadata>
 <defs>
  <style type="text/css">*{stroke-linejoin: round; stroke-linecap: butt}</style>
 </defs>
 <g id="figure_1">
  <g id="patch_1">
   <path d="M 0 612 
L 1008 612 
L 1008 0 
L 0 0 
z
" style="fill: #ffffff"/>
  </g>
  <g id="axes_1">
   <g id="patch_2">
    <path d="M 48.445313 301.717812 
L 982.876106 301.717812 
L 982.876106 48.331875 
L 48.445313 48.331875 
z
" style="fill: #ffffff"/>
   </g>
   <g id="matplotlib.axis_1">
    <g id="xtick_1">
     <g id="line2d_1">
      <path d="M 85.59353 301.717812 
L 85.59353 48.331875 
" clip-path="url(#p4ba887f5b3)" style="fill: none; stroke-dasharray: 2.96,1.28; stroke-dashoffset: 0; stroke: #b0b0b0; stroke-width: 0.8"/>
     </g>
     <g id="line2d_2">
      <defs>
       <path id="m162b25df72" d="M 0 0 
L 0 3.5 
" style="stroke: #000000; stroke-width: 0.8"/>
      </defs>
      <g>
       <use xlink:href="#m162b25df72" x="85.59353" y="301.717812" style="stroke: #000000; stroke-width: 0.8"/>
      </g>
     </g>
    </g>
    <g id="xtick_2">
     <g id="line2d_3">
      <path d="M 168.145125 301.717812 
L 168.145125 48.331875 
" clip-path="url(#p4ba887f5b3)" style="fill: none; stroke-dasharray: 2.96,1.28; stroke-dashoffset: 0; stroke: #b0b0b0; stroke-width: 0.8"/>
     </g>
     <g id="line2d_4">
      <g>
       <use xlink:href="#m162b25df72" x="168.145125" y="301.717812" style="stroke: #000000; stroke-width: 0.8"/>
      </g>
     </g>
    </g>
    <g id="xtick_3">
     <g id="line2d_5">
      <path d="M 242.707856 301.717812 
L 242.707856 48.331875 
" clip-path="url(#p4ba887f5b3)" style="fill: none; stroke-dasharray: 2.96,1.28; stroke-dashoffset: 0; stroke: #b0b0b0; stroke-width: 0.8"/>
     </g>
     <g id="line2d_6">
      <g>
       <use xlink:href="#m162b25df72" x="242.707856" y="301.717812" style="stroke: #000000; stroke-width: 0.8"/>
      </g>
     </g>
    </g>
    <g id="xtick_4">
     <g id="line2d_7">
      <path d="M 325.25945 301.717812 
L 325.25945 48.331875 
" clip-path="url(#p4ba887f5b3)" style="fill: none; stroke-dasharray: 2.96,1.28; stroke-dashoffset: 0; stroke: #b0b0b0; stroke-width: 0.8"/>
     </g>
     <g id="line2d_8">
      <g>
       <use xlink:href="#m162b25df72" x="325.25945" y="301.717812" style="stroke: #000000; stroke-width: 0.8"/>
      </g>
     </g>
    </g>
    <g id="xtick_5">
     <g id="line2d_9">
      <path d="M 405.14809 301.717812 
L 405.14809 48.331875 
" clip-path="url(#p4ba887f5b3)" style="fill: none; stroke-dasharray: 2.96,1.28; stroke-dashoffset: 0; stroke: #b0b0b0; stroke-width: 0.8"/>
     </g>
     <g id="line2d_10">
      <g>
       <use xlink:href="#m162b25df72" x="405.14809" y="301.717812" style="stroke: #000000; stroke-width: 0.8"/>
      </g>
     </g>
    </g>
    <g id="xtick_6">
     <g id="line2d_11">
      <path d="M 487.699685 301.717812 
L 487.699685 48.331875 
" clip-path="url(#p4ba887f5b3)" style="fill: none; stroke-dasharray: 2.96,1.28; stroke-dashoffset: 0; stroke: #b0b0b0; stroke-width: 0.8"/>
     </g>
     <g id="line2d_12">
      <g>
       <use xlink:href="#m162b25df72" x="487.699685" y="301.717812" style="stroke: #000000; stroke-width: 0.8"/>
      </g>
     </g>
    </g>
    <g id="xtick_7">
     <g id="line2d_13">
      <path d="M 567.588325 301.717812 
L 567.588325 48.331875 
" clip-path="url(#p4ba887f5b3)" style="fill: none; stroke-dasharray: 2.96,1.28; stroke-dashoffset: 0; stroke: #b0b0b0; stroke-width: 0.8"/>
     </g>
     <g id="line2d_14">
      <g>
       <use xlink:href="#m162b25df72" x="567.588325" y="301.717812" style="stroke: #000000; stroke-width: 0.8"/>
      </g>
     </g>
    </g>
    <g id="xtick_8">
     <g id="line2d_15">
      <path d="M 650.13992 301.717812 
L 650.13992 48.331875 
" clip-path="url(#p4ba887f5b3)" style="fill: none; stroke-dasharray: 2.96,1.28; stroke-dashoffset: 0; stroke: #b0b0b0; stroke-width: 0.8"/>
     </g>
     <g id="line2d_16">
      <g>
       <use xlink:href="#m162b25df72" x="650.13992" y="301.717812" style="stroke: #000000; stroke-width: 0.8"/>
      </g>
     </g>
    </g>
    <g id="xtick_9">
     <g id="line2d_17">
      <path d="M 732.691515 301.717812 
L 732.691515 48.331875 
" clip-path="url(#p4ba887f5b3)" style="fill: none; stroke-dasharray: 2.96,1.28; stroke-dashoffset: 0; stroke: #b0b0b0; stroke-width: 0.8"/>
     </g>
     <g id="line2d_18">
      <g>
       <use xlink:href="#m162b25df72" x="732.691515" y="301.717812" style="stroke: #000000; stroke-width: 0.8"/>
      </g>
     </g>
    </g>
    <g id="xtick_10">
     <g id="line2d_19">
      <path d="M 812.580155 301.717812 
L 812.580155 48.331875 
" clip-path="url(#p4ba887f5b3)" style="fill: none; stroke-dasharray: 2.96,1.28; stroke-dashoffset: 0; stroke: #b0b0b0; stroke-width: 0.8"/>
     </g>
     <g id="line2d_20">
      <g>
       <use xlink:href="#m162b25df72" x="812.580155" y="301.717812" style="stroke: #000000; stroke-width: 0.8"/>
      </g>
     </g>
    </g>
    <g id="xtick_11">
     <g id="line2d_21">
      <path d="M 895.13175 301.717812 
L 895.13175 48.331875 
" clip-path="url(#p4ba887f5b3)" style="fill: none; stroke-dasharray: 2.96,1.28; stroke-dashoffset: 0; stroke: #b0b0b0; stroke-width: 0.8"/>
     </g>
     <g id="line2d_22">
      <g>
       <use xlink:href="#m162b25df72" x="895.13175" y="301.717812" style="stroke: #000000; stroke-width: 0.8"/>
      </g>
     </g>
    </g>
    <g id="xtick_12">
     <g id="line2d_23">
      <path d="M 975.02039 301.717812 
L 975.02039 48.331875 
" clip-path="url(#p4ba887f5b3)" style="fill: none; stroke-dasharray: 2.96,1.28; stroke-dashoffset: 0; stroke: #b0b0b0; stroke-width: 0.8"/>
     </g>
     <g id="line2d_24">
      <g>
       <use xlink:href="#m162b25df72" x="975.02039" y="301.717812" style="stroke: #000000; stroke-width: 0.8"/>
      </g>
     </g>
    </g>
   </g>
   <g id="matplotlib.axis_2">
    <g id="ytick_1">
     <g id="line2d_25">
      <path d="M 48.445313 297.251827 
L 982.876106 297.251827 
" clip-path="url(#p4ba887f5b3)" style="fill: none; stroke-dasharray: 2.96,1.28; stroke-dashoffset: 0; stroke: #b0b0b0; stroke-width: 0.8"/>
     </g>
     <g id="line2d_26">
      <defs>
       <path id="m5b98e1b386" d="M 0 0 
L -3.5 0 
" style="stroke: #000000; stroke-width: 0.8"/>
      </defs>
      <g>
       <use xlink:href="#m5b98e1b386" x="48.445313" y="297.251827" style="stroke: #000000; stroke-width: 0.8"/>
      </g>
     </g>
     <g id="text_1">
      <!-- 180 -->
      <g transform="translate(22.357813 301.051045)scale(0.1 -0.1)">
       <defs>
        <path id="DejaVuSans-31" d="M 794 531 
L 1825 531 
L 1825 4091 
L 703 3866 
L 703 4441 
L 1819 4666 
L 2450 4666 
L 2450 531 
L 3481 531 
L 3481 0 
L 794 0 
L 794 531 
z
" transform="scale(0.015625)"/>
        <path id="DejaVuSans-38" d="M 2034 2216 
Q 1584 2216 1326 1975 
Q 1069 1734 1069 1313 
Q 1069 891 1326 650 
Q 1584 409 2034 409 
Q 2484 409 2743 651 
Q 3003 894 3003 1313 
Q 3003 1734 2745 1975 
Q 2488 2216 2034 2216 
z
M 1403 2484 
Q 997 2584 770 2862 
Q 544 3141 544 3541 
Q 544 4100 942 4425 
Q 1341 4750 2034 4750 
Q 2731 4750 3128 4425 
Q 3525 4100 3525 3541 
Q 3525 3141 3298 2862 
Q 3072 2584 2669 2484 
Q 3125 2378 3379 2068 
Q 3634 1759 3634 1313 
Q 3634 634 3220 271 
Q 2806 -91 2034 -91 
Q 1263 -91 848 271 
Q 434 634 434 1313 
Q 434 1759 690 2068 
Q 947 2378 1403 2484 
z
M 1172 3481 
Q 1172 3119 1398 2916 
Q 1625 2713 2034 2713 
Q 2441 2713 2670 2916 
Q 2900 3119 2900 3481 
Q 2900 3844 2670 4047 
Q 2441 4250 2034 4250 
Q 1625 4250 1398 4047 
Q 1172 3844 1172 3481 
z
" transform="scale(0.015625)"/>
        <path id="DejaVuSans-30" d="M 2034 4250 
Q 1547 4250 1301 3770 
Q 1056 3291 1056 2328 
Q 1056 1369 1301 889 
Q 1547 409 2034 409 
Q 2525 409 2770 889 
Q 3016 1369 3016 2328 
Q 3016 3291 2770 3770 
Q 2525 4250 2034 4250 
z
M 2034 4750 
Q 2819 4750 3233 4129 
Q 3647 3509 3647 2328 
Q 3647 1150 3233 529 
Q 2819 -91 2034 -91 
Q 1250 -91 836 529 
Q 422 1150 422 2328 
Q 422 3509 836 4129 
Q 1250 4750 2034 4750 
z
" transform="scale(0.015625)"/>
       </defs>
       <use xlink:href="#DejaVuSans-31"/>
       <use xlink:href="#DejaVuSans-38" x="63.623047"/>
       <use xlink:href="#DejaVuSans-30" x="127.246094"/>
      </g>
     </g>
    </g>
    <g id="ytick_2">
     <g id="line2d_27">
      <path d="M 48.445313 247.767218 
L 982.876106 247.767218 
" clip-path="url(#p4ba887f5b3)" style="fill: none; stroke-dasharray: 2.96,1.28; stroke-dashoffset: 0; stroke: #b0b0b0; stroke-width: 0.8"/>
     </g>
     <g id="line2d_28">
      <g>
       <use xlink:href="#m5b98e1b386" x="48.445313" y="247.767218" style="stroke: #000000; stroke-width: 0.8"/>
      </g>
     </g>
     <g id="text_2">
      <!-- 200 -->
      <g transform="translate(22.357813 251.566437)scale(0.1 -0.1)">
       <defs>
        <path id="DejaVuSans-32" d="M 1228 531 
L 3431 531 
L 3431 0 
L 469 0 
L 469 531 
Q 828 903 1448 1529 
Q 2069 2156 2228 2338 
Q 2531 2678 2651 2914 
Q 2772 3150 2772 3378 
Q 2772 3750 2511 3984 
Q 2250 4219 1831 4219 
Q 1534 4219 1204 4116 
Q 875 4013 500 3803 
L 500 4441 
Q 881 4594 1212 4672 
Q 1544 4750 1819 4750 
Q 2544 4750 2975 4387 
Q 3406 4025 3406 3419 
Q 3406 3131 3298 2873 
Q 3191 2616 2906 2266 
Q 2828 2175 2409 1742 
Q 1991 1309 1228 531 
z
" transform="scale(0.015625)"/>
       </defs>
       <use xlink:href="#DejaVuSans-32"/>
       <use xlink:href="#DejaVuSans-30" x="63.623047"/>
       <use xlink:href="#DejaVuSans-30" x="127.246094"/>
      </g>
     </g>
    </g>
    <g id="ytick_3">
     <g id="line2d_29">
      <path d="M 48.445313 198.28261 
L 982.876106 198.28261 
" clip-path="url(#p4ba887f5b3)" style="fill: none; stroke-dasharray: 2.96,1.28; stroke-dashoffset: 0; stroke: #b0b0b0; stroke-width: 0.8"/>
     </g>
     <g id="line2d_30">
      <g>
       <use xlink:href="#m5b98e1b386" x="48.445313" y="198.28261" style="stroke: #000000; stroke-width: 0.8"/>
      </g>
     </g>
     <g id="text_3">
      <!-- 220 -->
      <g transform="translate(22.357813 202.081828)scale(0.1 -0.1)">
       <use xlink:href="#DejaVuSans-32"/>
       <use xlink:href="#DejaVuSans-32" x="63.623047"/>
       <use xlink:href="#DejaVuSans-30" x="127.246094"/>
      </g>
     </g>
    </g>
    <g id="ytick_4">
     <g id="line2d_31">
      <path d="M 48.445313 148.798001 
L 982.876106 148.798001 
" clip-path="url(#p4ba887f5b3)" style="fill: none; stroke-dasharray: 2.96,1.28; stroke-dashoffset: 0; stroke: #b0b0b0; stroke-width: 0.8"/>
     </g>
     <g id="line2d_32">
      <g>
       <use xlink:href="#m5b98e1b386" x="48.445313" y="148.798001" style="stroke: #000000; stroke-width: 0.8"/>
      </g>
     </g>
     <g id="text_4">
      <!-- 240 -->
      <g transform="translate(22.357813 152.59722)scale(0.1 -0.1)">
       <defs>
        <path id="DejaVuSans-34" d="M 2419 4116 
L 825 1625 
L 2419 1625 
L 2419 4116 
z
M 2253 4666 
L 3047 4666 
L 3047 1625 
L 3713 1625 
L 3713 1100 
L 3047 1100 
L 3047 0 
L 2419 0 
L 2419 1100 
L 313 1100 
L 313 1709 
L 2253 4666 
z
" transform="scale(0.015625)"/>
       </defs>
       <use xlink:href="#DejaVuSans-32"/>
       <use xlink:href="#DejaVuSans-34" x="63.623047"/>
       <use xlink:href="#DejaVuSans-30" x="127.246094"/>
      </g>
     </g>
    </g>
    <g id="ytick_5">
     <g id="line2d_33">
      <path d="M 48.445313 99.313393 
L 982.876106 99.313393 
" clip-path="url(#p4ba887f5b3)" style="fill: none; stroke-dasharray: 2.96,1.28; stroke-dashoffset: 0; stroke: #b0b0b0; stroke-width: 0.8"/>
     </g>
     <g id="line2d_34">
      <g>
       <use xlink:href="#m5b98e1b386" x="48.445313" y="99.313393" style="stroke: #000000; stroke-width: 0.8"/>
      </g>
     </g>
     <g id="text_5">
      <!-- 260 -->
      <g transform="translate(22.357813 103.112612)scale(0.1 -0.1)">
       <defs>
        <path id="DejaVuSans-36" d="M 2113 2584 
Q 1688 2584 1439 2293 
Q 1191 2003 1191 1497 
Q 1191 994 1439 701 
Q 1688 409 2113 409 
Q 2538 409 2786 701 
Q 3034 994 3034 1497 
Q 3034 2003 2786 2293 
Q 2538 2584 2113 2584 
z
M 3366 4563 
L 3366 3988 
Q 3128 4100 2886 4159 
Q 2644 4219 2406 4219 
Q 1781 4219 1451 3797 
Q 1122 3375 1075 2522 
Q 1259 2794 1537 2939 
Q 1816 3084 2150 3084 
Q 2853 3084 3261 2657 
Q 3669 2231 3669 1497 
Q 3669 778 3244 343 
Q 2819 -91 2113 -91 
Q 1303 -91 875 529 
Q 447 1150 447 2328 
Q 447 3434 972 4092 
Q 1497 4750 2381 4750 
Q 2619 4750 2861 4703 
Q 3103 4656 3366 4563 
z
" transform="scale(0.015625)"/>
       </defs>
       <use xlink:href="#DejaVuSans-32"/>
       <use xlink:href="#DejaVuSans-36" x="63.623047"/>
       <use xlink:href="#DejaVuSans-30" x="127.246094"/>
      </g>
     </g>
    </g>
    <g id="ytick_6">
     <g id="line2d_35">
      <path d="M 48.445313 49.828784 
L 982.876106 49.828784 
" clip-path="url(#p4ba887f5b3)" style="fill: none; stroke-dasharray: 2.96,1.28; stroke-dashoffset: 0; stroke: #b0b0b0; stroke-width: 0.8"/>
     </g>
     <g id="line2d_36">
      <g>
       <use xlink:href="#m5b98e1b386" x="48.445313" y="49.828784" style="stroke: #000000; stroke-width: 0.8"/>
      </g>
     </g>
     <g id="text_6">
      <!-- 280 -->
      <g transform="translate(22.357813 53.628003)scale(0.1 -0.1)">
       <use xlink:href="#DejaVuSans-32"/>
       <use xlink:href="#DejaVuSans-38" x="63.623047"/>
       <use xlink:href="#DejaVuSans-30" x="127.246094"/>
      </g>
     </g>
    </g>
   </g>
   <g id="line2d_37">
    <path d="M 90.919439 126.901062 
L 93.582394 111.31341 
L 96.245349 108.220622 
L 98.908303 94.612355 
L 101.571258 96.344316 
L 109.560122 96.344316 
L 112.223077 80.632953 
L 114.886031 60.220552 
L 117.548986 59.849418 
L 120.211941 69.375205 
L 128.200805 70.736031 
L 130.86376 95.230913 
L 133.526714 72.839127 
L 136.189669 83.478318 
L 138.852624 102.529892 
L 146.841488 127.643331 
L 149.504442 115.272179 
L 154.830352 125.045389 
L 157.493306 116.385583 
L 165.48217 117.746409 
L 168.145125 107.23093 
L 170.80808 99.93195 
L 173.471034 105.870103 
L 176.133989 111.189699 
L 184.122853 116.633006 
L 186.785808 117.00414 
L 189.448762 119.230948 
L 192.111717 116.880429 
L 194.774672 117.622698 
L 202.763536 130.983542 
L 205.42649 107.107219 
L 208.089445 101.292777 
L 213.415354 116.880429 
L 221.404218 119.849505 
L 224.067173 118.983525 
L 226.730128 119.973217 
L 229.393082 232.921836 
L 232.056037 211.643454 
L 240.044901 210.406339 
L 245.37081 230.076471 
L 248.033765 218.571299 
L 250.69672 227.973375 
L 258.685584 250.612583 
L 261.348538 237.870296 
L 264.011493 217.457895 
L 266.674448 217.210472 
L 269.337402 212.633146 
L 277.326266 212.509435 
L 279.989221 224.014606 
L 282.652176 212.014589 
L 285.31513 211.396031 
L 295.966949 223.148625 
L 298.629904 218.447588 
L 301.292858 213.375415 
L 303.955813 213.622838 
L 306.618768 240.097104 
L 314.607632 223.51976 
L 317.270586 210.406339 
L 319.933541 195.684668 
L 322.596496 193.210437 
L 325.25945 194.942399 
L 333.248314 196.426937 
L 335.911269 197.292918 
L 338.574224 205.581589 
L 341.237178 201.993955 
L 343.900133 198.901167 
L 351.888997 201.993955 
L 354.551952 205.705301 
L 357.214906 206.44757 
L 370.52968 206.076436 
L 373.192634 213.993973 
L 375.855589 205.829013 
L 378.518544 207.066128 
L 381.181498 210.653762 
L 389.170362 220.30326 
L 391.833317 215.3548 
L 394.496272 229.334202 
L 397.159226 222.035222 
L 399.822181 225.499144 
L 407.811045 237.37545 
L 413.136954 246.653814 
L 415.799909 242.571334 
L 418.462864 250.488872 
L 426.451728 233.169259 
L 429.114682 227.973375 
L 431.777637 227.354817 
L 434.440592 243.932161 
L 437.103546 290.20027 
L 445.09241 271.396119 
L 447.755365 253.086814 
L 450.41832 245.540411 
L 453.081274 263.107447 
L 455.744229 243.189892 
L 463.733093 249.746602 
L 466.396048 249.994026 
L 469.059002 248.138353 
L 471.721957 239.725969 
L 474.384912 246.653814 
L 482.373776 246.653814 
L 485.03673 243.313603 
L 487.699685 244.798142 
L 490.36264 242.818757 
L 493.025594 243.932161 
L 501.014459 244.67443 
L 503.677413 232.798124 
L 506.340368 234.653797 
L 509.003323 229.21049 
L 511.666277 230.942451 
L 519.655141 241.334219 
L 522.318096 244.303296 
L 524.981051 232.550701 
L 527.644005 231.68472 
L 530.30696 227.973375 
L 538.295824 224.509452 
L 540.958779 227.478529 
L 543.621733 225.499144 
L 546.284688 219.932126 
L 548.947643 207.932108 
L 556.936507 218.447588 
L 559.599461 228.344509 
L 562.262416 240.59195 
L 564.925371 225.251721 
L 567.588325 227.973375 
L 575.577189 223.024914 
L 578.240144 227.478529 
L 580.903099 216.097069 
L 583.566053 220.550684 
L 586.229008 224.509452 
L 594.217872 214.859954 
L 596.880827 194.20013 
L 599.543781 191.725899 
L 602.206736 184.550631 
L 604.869691 175.643401 
L 612.858555 183.189804 
L 615.521509 194.694976 
L 618.184464 193.210437 
L 620.847419 187.272284 
L 623.510373 190.117649 
L 631.499237 191.725899 
L 634.162192 192.963014 
L 636.825147 190.98363 
L 639.488101 190.736207 
L 642.151056 191.973322 
L 650.13992 179.231035 
L 652.802875 199.890859 
L 655.465829 231.808432 
L 660.791739 247.272372 
L 668.780603 248.385776 
L 674.106512 262.983735 
L 676.769467 259.890947 
L 679.432421 256.550736 
L 690.08424 258.158986 
L 692.747195 249.004333 
L 695.410149 249.870314 
L 698.073104 255.932179 
L 706.061968 257.787851 
L 708.724923 249.994026 
L 711.387877 253.210525 
L 714.050832 251.231141 
L 716.713787 245.787834 
L 724.702651 252.839391 
L 727.365605 248.262064 
L 732.691515 248.75691 
L 735.354469 249.499179 
L 743.343333 248.75691 
L 746.006288 245.664122 
L 748.669243 240.715661 
L 751.332197 240.220815 
L 753.995152 238.612566 
L 761.984016 235.890912 
L 764.646971 238.9837 
L 767.309925 238.9837 
L 769.97288 238.365143 
L 772.635835 237.251739 
L 780.624699 252.715679 
L 783.287653 248.014641 
L 785.950608 254.076506 
L 788.613563 259.27239 
L 791.276517 264.839408 
L 799.265381 282.406444 
L 801.928336 274.860041 
L 804.591291 289.210578 
L 807.254245 282.653867 
L 809.9172 254.076506 
L 817.906064 254.695063 
L 820.569019 244.303296 
L 825.894928 245.416699 
L 828.557883 247.148661 
L 836.546747 254.942486 
L 839.209701 271.51983 
L 841.872656 268.427042 
L 844.535611 276.220868 
L 847.198565 274.73633 
L 855.187429 276.097156 
L 857.850384 273.12808 
L 860.513339 269.787869 
L 863.176293 262.983735 
L 865.839248 261.499197 
L 873.828112 262.241466 
L 876.491067 279.808502 
L 881.816976 270.159003 
L 884.479931 278.81881 
L 892.468795 283.643559 
L 895.13175 281.169329 
L 897.794704 284.880674 
L 900.457659 277.952829 
L 903.120614 275.231176 
L 911.109478 268.550754 
L 916.435387 265.457966 
L 919.098342 281.29304 
L 921.761296 268.674465 
L 932.413115 260.385793 
L 935.07607 264.96312 
L 937.739024 256.303313 
L 940.401979 255.561044 
L 940.401979 255.561044 
" clip-path="url(#p4ba887f5b3)" style="fill: none; stroke: #1f77b4; stroke-width: 1.5; stroke-linecap: square"/>
   </g>
   <g id="line2d_38">
    <path d="M 101.571258 107.478353 
L 109.560122 101.367004 
L 112.223077 95.230913 
L 114.886031 85.630899 
L 117.548986 78.678311 
L 120.211941 73.284489 
L 128.200805 68.162832 
L 130.86376 71.082424 
L 133.526714 73.606139 
L 136.189669 78.331919 
L 138.852624 84.962856 
L 146.841488 96.344316 
L 149.504442 100.35257 
L 154.830352 110.793822 
L 157.493306 117.375275 
L 165.48217 120.418578 
L 168.145125 116.336098 
L 170.80808 113.268052 
L 173.471034 109.432995 
L 176.133989 108.393818 
L 184.122853 108.171138 
L 186.785808 110.12578 
L 189.448762 113.985579 
L 192.111717 116.187644 
L 194.774672 117.474244 
L 202.763536 120.344351 
L 205.42649 118.364967 
L 208.089445 114.777333 
L 210.7524 113.193826 
L 213.415354 113.045372 
L 221.404218 110.818564 
L 224.067173 113.193826 
L 226.730128 116.929913 
L 229.393082 141.721702 
L 232.056037 160.674307 
L 240.044901 178.785674 
L 245.37081 201.004263 
L 248.033765 220.72388 
L 250.69672 219.734187 
L 258.685584 227.528013 
L 261.348538 233.020805 
L 264.011493 230.49709 
L 266.674448 230.224924 
L 269.337402 227.156879 
L 277.326266 219.536249 
L 279.989221 216.765111 
L 285.31513 214.513561 
L 295.966949 216.616657 
L 298.629904 217.804288 
L 301.292858 215.67645 
L 303.955813 215.9981 
L 306.618768 221.738314 
L 314.607632 221.812541 
L 317.270586 220.204291 
L 319.933541 216.666142 
L 322.596496 212.583662 
L 325.25945 203.552721 
L 333.248314 198.134156 
L 335.911269 195.511472 
L 338.574224 197.490856 
L 341.237178 199.24756 
L 343.900133 200.039313 
L 351.888997 201.152717 
L 354.551952 202.835194 
L 370.52968 203.824886 
L 373.192634 206.843447 
L 375.855589 207.610458 
L 378.518544 207.882624 
L 381.181498 208.723862 
L 389.170362 211.569227 
L 391.833317 211.841392 
L 394.496272 216.54243 
L 399.822181 222.505326 
L 407.811045 225.919764 
L 413.136954 232.179566 
L 415.799909 234.826993 
L 418.462864 240.517723 
L 426.451728 242.051746 
L 429.114682 240.171331 
L 431.777637 236.311531 
L 434.440592 236.583697 
L 437.103546 244.525976 
L 445.09241 252.171348 
L 447.755365 257.194036 
L 450.41832 260.831155 
L 453.081274 264.666212 
L 455.744229 255.264136 
L 463.733093 250.934233 
L 466.396048 250.315675 
L 469.059002 250.835264 
L 471.721957 246.158968 
L 474.384912 246.851753 
L 482.373776 246.233195 
L 485.03673 244.897111 
L 487.699685 244.229069 
L 490.36264 244.847626 
L 493.025594 244.303296 
L 501.014459 243.907419 
L 506.340368 239.775454 
L 511.666277 234.455858 
L 519.655141 233.787816 
L 522.318096 236.088851 
L 524.981051 235.668231 
L 527.644005 236.163077 
L 530.30696 235.569262 
L 538.295824 232.204309 
L 540.958779 228.839355 
L 543.621733 227.429044 
L 546.284688 225.078525 
L 548.947643 221.070272 
L 556.936507 219.857899 
L 559.599461 220.031095 
L 562.262416 223.049656 
L 564.925371 224.113575 
L 567.588325 228.121829 
L 575.577189 229.037294 
L 578.240144 228.864098 
L 580.903099 223.965121 
L 583.566053 223.024914 
L 586.229008 222.332129 
L 594.217872 220.699137 
L 596.880827 214.043458 
L 599.543781 209.169224 
L 602.206736 201.969213 
L 604.869691 192.196003 
L 612.858555 185.861973 
L 615.521509 185.960942 
L 618.184464 186.25785 
L 620.847419 186.802181 
L 623.510373 189.69703 
L 631.499237 191.404249 
L 636.825147 190.612495 
L 639.488101 191.30528 
L 642.151056 191.676414 
L 650.13992 189.177442 
L 652.802875 190.563011 
L 655.465829 198.727971 
L 658.128784 208.501181 
L 660.791739 219.560991 
L 668.780603 233.391939 
L 674.106512 246.010515 
L 676.769467 251.627018 
L 679.432421 255.016713 
L 690.08424 257.194036 
L 692.747195 257.317748 
L 695.410149 254.695063 
L 698.073104 253.90331 
L 706.061968 254.150733 
L 708.724923 252.517741 
L 711.387877 253.358979 
L 714.050832 253.631144 
L 716.713787 251.602275 
L 727.365605 250.266191 
L 735.354469 249.029076 
L 743.343333 249.622891 
L 748.669243 246.678557 
L 751.332197 244.971338 
L 753.995152 242.794015 
L 761.984016 240.220815 
L 764.646971 238.884731 
L 772.635835 237.895039 
L 780.624699 241.259992 
L 783.287653 243.06618 
L 785.950608 246.084741 
L 788.613563 250.266191 
L 791.276517 255.783725 
L 799.265381 261.721878 
L 801.928336 267.090958 
L 804.591291 274.117772 
L 807.254245 278.794068 
L 809.9172 276.641487 
L 817.906064 271.099211 
L 820.569019 264.987862 
L 825.894928 256.229086 
L 828.557883 249.128045 
L 836.546747 249.301241 
L 839.209701 252.666194 
L 841.872656 257.490944 
L 844.535611 263.651777 
L 847.198565 269.169311 
L 855.187429 273.400245 
L 860.513339 273.994061 
L 865.839248 268.699208 
L 873.828112 265.928069 
L 876.491067 267.264154 
L 881.816976 267.338381 
L 884.479931 270.505396 
L 892.468795 274.934268 
L 895.13175 278.719841 
L 897.794704 279.734275 
L 900.457659 281.29304 
L 903.120614 280.575514 
L 911.109478 277.556952 
L 916.435387 274.41468 
L 919.098342 273.697153 
L 921.761296 271.84148 
L 929.75016 269.268281 
L 932.413115 267.635288 
L 935.07607 267.536319 
L 937.739024 262.538374 
L 940.401979 259.91569 
L 940.401979 259.91569 
" clip-path="url(#p4ba887f5b3)" style="fill: none; stroke: #ff7f0e; stroke-width: 1.5; stroke-linecap: square"/>
   </g>
   <g id="patch_3">
    <path d="M 48.445313 301.717812 
L 48.445313 48.331875 
" style="fill: none; stroke: #000000; stroke-width: 0.8; stroke-linejoin: miter; stroke-linecap: square"/>
   </g>
   <g id="patch_4">
    <path d="M 982.876106 301.717812 
L 982.876106 48.331875 
" style="fill: none; stroke: #000000; stroke-width: 0.8; stroke-linejoin: miter; stroke-linecap: square"/>
   </g>
   <g id="patch_5">
    <path d="M 48.445312 301.717812 
L 982.876106 301.717812 
" style="fill: none; stroke: #000000; stroke-width: 0.8; stroke-linejoin: miter; stroke-linecap: square"/>
   </g>
   <g id="patch_6">
    <path d="M 48.445312 48.331875 
L 982.876106 48.331875 
" style="fill: none; stroke: #000000; stroke-width: 0.8; stroke-linejoin: miter; stroke-linecap: square"/>
   </g>
   <g id="text_7">
    <!-- Closing Price -->
    <g transform="translate(477.184772 42.331875)scale(0.12 -0.12)">
     <defs>
      <path id="DejaVuSans-43" d="M 4122 4306 
L 4122 3641 
Q 3803 3938 3442 4084 
Q 3081 4231 2675 4231 
Q 1875 4231 1450 3742 
Q 1025 3253 1025 2328 
Q 1025 1406 1450 917 
Q 1875 428 2675 428 
Q 3081 428 3442 575 
Q 3803 722 4122 1019 
L 4122 359 
Q 3791 134 3420 21 
Q 3050 -91 2638 -91 
Q 1578 -91 968 557 
Q 359 1206 359 2328 
Q 359 3453 968 4101 
Q 1578 4750 2638 4750 
Q 3056 4750 3426 4639 
Q 3797 4528 4122 4306 
z
" transform="scale(0.015625)"/>
      <path id="DejaVuSans-6c" d="M 603 4863 
L 1178 4863 
L 1178 0 
L 603 0 
L 603 4863 
z
" transform="scale(0.015625)"/>
      <path id="DejaVuSans-6f" d="M 1959 3097 
Q 1497 3097 1228 2736 
Q 959 2375 959 1747 
Q 959 1119 1226 758 
Q 1494 397 1959 397 
Q 2419 397 2687 759 
Q 2956 1122 2956 1747 
Q 2956 2369 2687 2733 
Q 2419 3097 1959 3097 
z
M 1959 3584 
Q 2709 3584 3137 3096 
Q 3566 2609 3566 1747 
Q 3566 888 3137 398 
Q 2709 -91 1959 -91 
Q 1206 -91 779 398 
Q 353 888 353 1747 
Q 353 2609 779 3096 
Q 1206 3584 1959 3584 
z
" transform="scale(0.015625)"/>
      <path id="DejaVuSans-73" d="M 2834 3397 
L 2834 2853 
Q 2591 2978 2328 3040 
Q 2066 3103 1784 3103 
Q 1356 3103 1142 2972 
Q 928 2841 928 2578 
Q 928 2378 1081 2264 
Q 1234 2150 1697 2047 
L 1894 2003 
Q 2506 1872 2764 1633 
Q 3022 1394 3022 966 
Q 3022 478 2636 193 
Q 2250 -91 1575 -91 
Q 1294 -91 989 -36 
Q 684 19 347 128 
L 347 722 
Q 666 556 975 473 
Q 1284 391 1588 391 
Q 1994 391 2212 530 
Q 2431 669 2431 922 
Q 2431 1156 2273 1281 
Q 2116 1406 1581 1522 
L 1381 1569 
Q 847 1681 609 1914 
Q 372 2147 372 2553 
Q 372 3047 722 3315 
Q 1072 3584 1716 3584 
Q 2034 3584 2315 3537 
Q 2597 3491 2834 3397 
z
" transform="scale(0.015625)"/>
      <path id="DejaVuSans-69" d="M 603 3500 
L 1178 3500 
L 1178 0 
L 603 0 
L 603 3500 
z
M 603 4863 
L 1178 4863 
L 1178 4134 
L 603 4134 
L 603 4863 
z
" transform="scale(0.015625)"/>
      <path id="DejaVuSans-6e" d="M 3513 2113 
L 3513 0 
L 2938 0 
L 2938 2094 
Q 2938 2591 2744 2837 
Q 2550 3084 2163 3084 
Q 1697 3084 1428 2787 
Q 1159 2491 1159 1978 
L 1159 0 
L 581 0 
L 581 3500 
L 1159 3500 
L 1159 2956 
Q 1366 3272 1645 3428 
Q 1925 3584 2291 3584 
Q 2894 3584 3203 3211 
Q 3513 2838 3513 2113 
z
" transform="scale(0.015625)"/>
      <path id="DejaVuSans-67" d="M 2906 1791 
Q 2906 2416 2648 2759 
Q 2391 3103 1925 3103 
Q 1463 3103 1205 2759 
Q 947 2416 947 1791 
Q 947 1169 1205 825 
Q 1463 481 1925 481 
Q 2391 481 2648 825 
Q 2906 1169 2906 1791 
z
M 3481 434 
Q 3481 -459 3084 -895 
Q 2688 -1331 1869 -1331 
Q 1566 -1331 1297 -1286 
Q 1028 -1241 775 -1147 
L 775 -588 
Q 1028 -725 1275 -790 
Q 1522 -856 1778 -856 
Q 2344 -856 2625 -561 
Q 2906 -266 2906 331 
L 2906 616 
Q 2728 306 2450 153 
Q 2172 0 1784 0 
Q 1141 0 747 490 
Q 353 981 353 1791 
Q 353 2603 747 3093 
Q 1141 3584 1784 3584 
Q 2172 3584 2450 3431 
Q 2728 3278 2906 2969 
L 2906 3500 
L 3481 3500 
L 3481 434 
z
" transform="scale(0.015625)"/>
      <path id="DejaVuSans-20" transform="scale(0.015625)"/>
      <path id="DejaVuSans-50" d="M 1259 4147 
L 1259 2394 
L 2053 2394 
Q 2494 2394 2734 2622 
Q 2975 2850 2975 3272 
Q 2975 3691 2734 3919 
Q 2494 4147 2053 4147 
L 1259 4147 
z
M 628 4666 
L 2053 4666 
Q 2838 4666 3239 4311 
Q 3641 3956 3641 3272 
Q 3641 2581 3239 2228 
Q 2838 1875 2053 1875 
L 1259 1875 
L 1259 0 
L 628 0 
L 628 4666 
z
" transform="scale(0.015625)"/>
      <path id="DejaVuSans-72" d="M 2631 2963 
Q 2534 3019 2420 3045 
Q 2306 3072 2169 3072 
Q 1681 3072 1420 2755 
Q 1159 2438 1159 1844 
L 1159 0 
L 581 0 
L 581 3500 
L 1159 3500 
L 1159 2956 
Q 1341 3275 1631 3429 
Q 1922 3584 2338 3584 
Q 2397 3584 2469 3576 
Q 2541 3569 2628 3553 
L 2631 2963 
z
" transform="scale(0.015625)"/>
      <path id="DejaVuSans-63" d="M 3122 3366 
L 3122 2828 
Q 2878 2963 2633 3030 
Q 2388 3097 2138 3097 
Q 1578 3097 1268 2742 
Q 959 2388 959 1747 
Q 959 1106 1268 751 
Q 1578 397 2138 397 
Q 2388 397 2633 464 
Q 2878 531 3122 666 
L 3122 134 
Q 2881 22 2623 -34 
Q 2366 -91 2075 -91 
Q 1284 -91 818 406 
Q 353 903 353 1747 
Q 353 2603 823 3093 
Q 1294 3584 2113 3584 
Q 2378 3584 2631 3529 
Q 2884 3475 3122 3366 
z
" transform="scale(0.015625)"/>
      <path id="DejaVuSans-65" d="M 3597 1894 
L 3597 1613 
L 953 1613 
Q 991 1019 1311 708 
Q 1631 397 2203 397 
Q 2534 397 2845 478 
Q 3156 559 3463 722 
L 3463 178 
Q 3153 47 2828 -22 
Q 2503 -91 2169 -91 
Q 1331 -91 842 396 
Q 353 884 353 1716 
Q 353 2575 817 3079 
Q 1281 3584 2069 3584 
Q 2775 3584 3186 3129 
Q 3597 2675 3597 1894 
z
M 3022 2063 
Q 3016 2534 2758 2815 
Q 2500 3097 2075 3097 
Q 1594 3097 1305 2825 
Q 1016 2553 972 2059 
L 3022 2063 
z
" transform="scale(0.015625)"/>
     </defs>
     <use xlink:href="#DejaVuSans-43"/>
     <use xlink:href="#DejaVuSans-6c" x="69.824219"/>
     <use xlink:href="#DejaVuSans-6f" x="97.607422"/>
     <use xlink:href="#DejaVuSans-73" x="158.789062"/>
     <use xlink:href="#DejaVuSans-69" x="210.888672"/>
     <use xlink:href="#DejaVuSans-6e" x="238.671875"/>
     <use xlink:href="#DejaVuSans-67" x="302.050781"/>
     <use xlink:href="#DejaVuSans-20" x="365.527344"/>
     <use xlink:href="#DejaVuSans-50" x="397.314453"/>
     <use xlink:href="#DejaVuSans-72" x="455.867188"/>
     <use xlink:href="#DejaVuSans-69" x="496.980469"/>
     <use xlink:href="#DejaVuSans-63" x="524.763672"/>
     <use xlink:href="#DejaVuSans-65" x="579.744141"/>
    </g>
   </g>
   <g id="legend_1">
    <g id="patch_7">
     <path d="M 911.144856 85.688125 
L 975.876106 85.688125 
Q 977.876106 85.688125 977.876106 83.688125 
L 977.876106 55.331875 
Q 977.876106 53.331875 975.876106 53.331875 
L 911.144856 53.331875 
Q 909.144856 53.331875 909.144856 55.331875 
L 909.144856 83.688125 
Q 909.144856 85.688125 911.144856 85.688125 
z
" style="fill: #ffffff; opacity: 0.8; stroke: #cccccc; stroke-linejoin: miter"/>
    </g>
    <g id="line2d_39">
     <path d="M 913.144856 61.430312 
L 923.144856 61.430312 
L 933.144856 61.430312 
" style="fill: none; stroke: #1f77b4; stroke-width: 1.5; stroke-linecap: square"/>
    </g>
    <g id="text_8">
     <!-- CLOSE -->
     <g transform="translate(941.144856 64.930312)scale(0.1 -0.1)">
      <defs>
       <path id="DejaVuSans-4c" d="M 628 4666 
L 1259 4666 
L 1259 531 
L 3531 531 
L 3531 0 
L 628 0 
L 628 4666 
z
" transform="scale(0.015625)"/>
       <path id="DejaVuSans-4f" d="M 2522 4238 
Q 1834 4238 1429 3725 
Q 1025 3213 1025 2328 
Q 1025 1447 1429 934 
Q 1834 422 2522 422 
Q 3209 422 3611 934 
Q 4013 1447 4013 2328 
Q 4013 3213 3611 3725 
Q 3209 4238 2522 4238 
z
M 2522 4750 
Q 3503 4750 4090 4092 
Q 4678 3434 4678 2328 
Q 4678 1225 4090 567 
Q 3503 -91 2522 -91 
Q 1538 -91 948 565 
Q 359 1222 359 2328 
Q 359 3434 948 4092 
Q 1538 4750 2522 4750 
z
" transform="scale(0.015625)"/>
       <path id="DejaVuSans-53" d="M 3425 4513 
L 3425 3897 
Q 3066 4069 2747 4153 
Q 2428 4238 2131 4238 
Q 1616 4238 1336 4038 
Q 1056 3838 1056 3469 
Q 1056 3159 1242 3001 
Q 1428 2844 1947 2747 
L 2328 2669 
Q 3034 2534 3370 2195 
Q 3706 1856 3706 1288 
Q 3706 609 3251 259 
Q 2797 -91 1919 -91 
Q 1588 -91 1214 -16 
Q 841 59 441 206 
L 441 856 
Q 825 641 1194 531 
Q 1563 422 1919 422 
Q 2459 422 2753 634 
Q 3047 847 3047 1241 
Q 3047 1584 2836 1778 
Q 2625 1972 2144 2069 
L 1759 2144 
Q 1053 2284 737 2584 
Q 422 2884 422 3419 
Q 422 4038 858 4394 
Q 1294 4750 2059 4750 
Q 2388 4750 2728 4690 
Q 3069 4631 3425 4513 
z
" transform="scale(0.015625)"/>
       <path id="DejaVuSans-45" d="M 628 4666 
L 3578 4666 
L 3578 4134 
L 1259 4134 
L 1259 2753 
L 3481 2753 
L 3481 2222 
L 1259 2222 
L 1259 531 
L 3634 531 
L 3634 0 
L 628 0 
L 628 4666 
z
" transform="scale(0.015625)"/>
      </defs>
      <use xlink:href="#DejaVuSans-43"/>
      <use xlink:href="#DejaVuSans-4c" x="69.824219"/>
      <use xlink:href="#DejaVuSans-4f" x="121.912109"/>
      <use xlink:href="#DejaVuSans-53" x="200.623047"/>
      <use xlink:href="#DejaVuSans-45" x="264.099609"/>
     </g>
    </g>
    <g id="line2d_40">
     <path d="M 913.144856 76.108437 
L 923.144856 76.108437 
L 933.144856 76.108437 
" style="fill: none; stroke: #ff7f0e; stroke-width: 1.5; stroke-linecap: square"/>
    </g>
    <g id="text_9">
     <!-- SMA5 -->
     <g transform="translate(941.144856 79.608437)scale(0.1 -0.1)">
      <defs>
       <path id="DejaVuSans-4d" d="M 628 4666 
L 1569 4666 
L 2759 1491 
L 3956 4666 
L 4897 4666 
L 4897 0 
L 4281 0 
L 4281 4097 
L 3078 897 
L 2444 897 
L 1241 4097 
L 1241 0 
L 628 0 
L 628 4666 
z
" transform="scale(0.015625)"/>
       <path id="DejaVuSans-41" d="M 2188 4044 
L 1331 1722 
L 3047 1722 
L 2188 4044 
z
M 1831 4666 
L 2547 4666 
L 4325 0 
L 3669 0 
L 3244 1197 
L 1141 1197 
L 716 0 
L 50 0 
L 1831 4666 
z
" transform="scale(0.015625)"/>
       <path id="DejaVuSans-35" d="M 691 4666 
L 3169 4666 
L 3169 4134 
L 1269 4134 
L 1269 2991 
Q 1406 3038 1543 3061 
Q 1681 3084 1819 3084 
Q 2600 3084 3056 2656 
Q 3513 2228 3513 1497 
Q 3513 744 3044 326 
Q 2575 -91 1722 -91 
Q 1428 -91 1123 -41 
Q 819 9 494 109 
L 494 744 
Q 775 591 1075 516 
Q 1375 441 1709 441 
Q 2250 441 2565 725 
Q 2881 1009 2881 1497 
Q 2881 1984 2565 2268 
Q 2250 2553 1709 2553 
Q 1456 2553 1204 2497 
Q 953 2441 691 2322 
L 691 4666 
z
" transform="scale(0.015625)"/>
      </defs>
      <use xlink:href="#DejaVuSans-53"/>
      <use xlink:href="#DejaVuSans-4d" x="63.476562"/>
      <use xlink:href="#DejaVuSans-41" x="149.755859"/>
      <use xlink:href="#DejaVuSans-35" x="218.164062"/>
     </g>
    </g>
   </g>
  </g>
  <g id="axes_2">
   <g id="patch_8">
    <path d="M 48.445313 584.521875 
L 982.876106 584.521875 
L 982.876106 331.135938 
L 48.445313 331.135938 
z
" style="fill: #ffffff"/>
   </g>
   <g id="matplotlib.axis_3">
    <g id="xtick_13">
     <g id="line2d_41">
      <path d="M 85.59353 584.521875 
L 85.59353 331.135938 
" clip-path="url(#p687c180fa7)" style="fill: none; stroke-dasharray: 2.96,1.28; stroke-dashoffset: 0; stroke: #b0b0b0; stroke-width: 0.8"/>
     </g>
     <g id="line2d_42">
      <g>
       <use xlink:href="#m162b25df72" x="85.59353" y="584.521875" style="stroke: #000000; stroke-width: 0.8"/>
      </g>
     </g>
     <g id="text_10">
      <!-- 2022-01 -->
      <g transform="translate(64.702124 599.120312)scale(0.1 -0.1)">
       <defs>
        <path id="DejaVuSans-2d" d="M 313 2009 
L 1997 2009 
L 1997 1497 
L 313 1497 
L 313 2009 
z
" transform="scale(0.015625)"/>
       </defs>
       <use xlink:href="#DejaVuSans-32"/>
       <use xlink:href="#DejaVuSans-30" x="63.623047"/>
       <use xlink:href="#DejaVuSans-32" x="127.246094"/>
       <use xlink:href="#DejaVuSans-32" x="190.869141"/>
       <use xlink:href="#DejaVuSans-2d" x="254.492188"/>
       <use xlink:href="#DejaVuSans-30" x="290.576172"/>
       <use xlink:href="#DejaVuSans-31" x="354.199219"/>
      </g>
     </g>
    </g>
    <g id="xtick_14">
     <g id="line2d_43">
      <path d="M 168.145125 584.521875 
L 168.145125 331.135938 
" clip-path="url(#p687c180fa7)" style="fill: none; stroke-dasharray: 2.96,1.28; stroke-dashoffset: 0; stroke: #b0b0b0; stroke-width: 0.8"/>
     </g>
     <g id="line2d_44">
      <g>
       <use xlink:href="#m162b25df72" x="168.145125" y="584.521875" style="stroke: #000000; stroke-width: 0.8"/>
      </g>
     </g>
     <g id="text_11">
      <!-- 2022-02 -->
      <g transform="translate(147.253719 599.120312)scale(0.1 -0.1)">
       <use xlink:href="#DejaVuSans-32"/>
       <use xlink:href="#DejaVuSans-30" x="63.623047"/>
       <use xlink:href="#DejaVuSans-32" x="127.246094"/>
       <use xlink:href="#DejaVuSans-32" x="190.869141"/>
       <use xlink:href="#DejaVuSans-2d" x="254.492188"/>
       <use xlink:href="#DejaVuSans-30" x="290.576172"/>
       <use xlink:href="#DejaVuSans-32" x="354.199219"/>
      </g>
     </g>
    </g>
    <g id="xtick_15">
     <g id="line2d_45">
      <path d="M 242.707856 584.521875 
L 242.707856 331.135938 
" clip-path="url(#p687c180fa7)" style="fill: none; stroke-dasharray: 2.96,1.28; stroke-dashoffset: 0; stroke: #b0b0b0; stroke-width: 0.8"/>
     </g>
     <g id="line2d_46">
      <g>
       <use xlink:href="#m162b25df72" x="242.707856" y="584.521875" style="stroke: #000000; stroke-width: 0.8"/>
      </g>
     </g>
     <g id="text_12">
      <!-- 2022-03 -->
      <g transform="translate(221.816449 599.120312)scale(0.1 -0.1)">
       <defs>
        <path id="DejaVuSans-33" d="M 2597 2516 
Q 3050 2419 3304 2112 
Q 3559 1806 3559 1356 
Q 3559 666 3084 287 
Q 2609 -91 1734 -91 
Q 1441 -91 1130 -33 
Q 819 25 488 141 
L 488 750 
Q 750 597 1062 519 
Q 1375 441 1716 441 
Q 2309 441 2620 675 
Q 2931 909 2931 1356 
Q 2931 1769 2642 2001 
Q 2353 2234 1838 2234 
L 1294 2234 
L 1294 2753 
L 1863 2753 
Q 2328 2753 2575 2939 
Q 2822 3125 2822 3475 
Q 2822 3834 2567 4026 
Q 2313 4219 1838 4219 
Q 1578 4219 1281 4162 
Q 984 4106 628 3988 
L 628 4550 
Q 988 4650 1302 4700 
Q 1616 4750 1894 4750 
Q 2613 4750 3031 4423 
Q 3450 4097 3450 3541 
Q 3450 3153 3228 2886 
Q 3006 2619 2597 2516 
z
" transform="scale(0.015625)"/>
       </defs>
       <use xlink:href="#DejaVuSans-32"/>
       <use xlink:href="#DejaVuSans-30" x="63.623047"/>
       <use xlink:href="#DejaVuSans-32" x="127.246094"/>
       <use xlink:href="#DejaVuSans-32" x="190.869141"/>
       <use xlink:href="#DejaVuSans-2d" x="254.492188"/>
       <use xlink:href="#DejaVuSans-30" x="290.576172"/>
       <use xlink:href="#DejaVuSans-33" x="354.199219"/>
      </g>
     </g>
    </g>
    <g id="xtick_16">
     <g id="line2d_47">
      <path d="M 325.25945 584.521875 
L 325.25945 331.135938 
" clip-path="url(#p687c180fa7)" style="fill: none; stroke-dasharray: 2.96,1.28; stroke-dashoffset: 0; stroke: #b0b0b0; stroke-width: 0.8"/>
     </g>
     <g id="line2d_48">
      <g>
       <use xlink:href="#m162b25df72" x="325.25945" y="584.521875" style="stroke: #000000; stroke-width: 0.8"/>
      </g>
     </g>
     <g id="text_13">
      <!-- 2022-04 -->
      <g transform="translate(304.368044 599.120312)scale(0.1 -0.1)">
       <use xlink:href="#DejaVuSans-32"/>
       <use xlink:href="#DejaVuSans-30" x="63.623047"/>
       <use xlink:href="#DejaVuSans-32" x="127.246094"/>
       <use xlink:href="#DejaVuSans-32" x="190.869141"/>
       <use xlink:href="#DejaVuSans-2d" x="254.492188"/>
       <use xlink:href="#DejaVuSans-30" x="290.576172"/>
       <use xlink:href="#DejaVuSans-34" x="354.199219"/>
      </g>
     </g>
    </g>
    <g id="xtick_17">
     <g id="line2d_49">
      <path d="M 405.14809 584.521875 
L 405.14809 331.135938 
" clip-path="url(#p687c180fa7)" style="fill: none; stroke-dasharray: 2.96,1.28; stroke-dashoffset: 0; stroke: #b0b0b0; stroke-width: 0.8"/>
     </g>
     <g id="line2d_50">
      <g>
       <use xlink:href="#m162b25df72" x="405.14809" y="584.521875" style="stroke: #000000; stroke-width: 0.8"/>
      </g>
     </g>
     <g id="text_14">
      <!-- 2022-05 -->
      <g transform="translate(384.256684 599.120312)scale(0.1 -0.1)">
       <use xlink:href="#DejaVuSans-32"/>
       <use xlink:href="#DejaVuSans-30" x="63.623047"/>
       <use xlink:href="#DejaVuSans-32" x="127.246094"/>
       <use xlink:href="#DejaVuSans-32" x="190.869141"/>
       <use xlink:href="#DejaVuSans-2d" x="254.492188"/>
       <use xlink:href="#DejaVuSans-30" x="290.576172"/>
       <use xlink:href="#DejaVuSans-35" x="354.199219"/>
      </g>
     </g>
    </g>
    <g id="xtick_18">
     <g id="line2d_51">
      <path d="M 487.699685 584.521875 
L 487.699685 331.135938 
" clip-path="url(#p687c180fa7)" style="fill: none; stroke-dasharray: 2.96,1.28; stroke-dashoffset: 0; stroke: #b0b0b0; stroke-width: 0.8"/>
     </g>
     <g id="line2d_52">
      <g>
       <use xlink:href="#m162b25df72" x="487.699685" y="584.521875" style="stroke: #000000; stroke-width: 0.8"/>
      </g>
     </g>
     <g id="text_15">
      <!-- 2022-06 -->
      <g transform="translate(466.808279 599.120312)scale(0.1 -0.1)">
       <use xlink:href="#DejaVuSans-32"/>
       <use xlink:href="#DejaVuSans-30" x="63.623047"/>
       <use xlink:href="#DejaVuSans-32" x="127.246094"/>
       <use xlink:href="#DejaVuSans-32" x="190.869141"/>
       <use xlink:href="#DejaVuSans-2d" x="254.492188"/>
       <use xlink:href="#DejaVuSans-30" x="290.576172"/>
       <use xlink:href="#DejaVuSans-36" x="354.199219"/>
      </g>
     </g>
    </g>
    <g id="xtick_19">
     <g id="line2d_53">
      <path d="M 567.588325 584.521875 
L 567.588325 331.135938 
" clip-path="url(#p687c180fa7)" style="fill: none; stroke-dasharray: 2.96,1.28; stroke-dashoffset: 0; stroke: #b0b0b0; stroke-width: 0.8"/>
     </g>
     <g id="line2d_54">
      <g>
       <use xlink:href="#m162b25df72" x="567.588325" y="584.521875" style="stroke: #000000; stroke-width: 0.8"/>
      </g>
     </g>
     <g id="text_16">
      <!-- 2022-07 -->
      <g transform="translate(546.696919 599.120312)scale(0.1 -0.1)">
       <defs>
        <path id="DejaVuSans-37" d="M 525 4666 
L 3525 4666 
L 3525 4397 
L 1831 0 
L 1172 0 
L 2766 4134 
L 525 4134 
L 525 4666 
z
" transform="scale(0.015625)"/>
       </defs>
       <use xlink:href="#DejaVuSans-32"/>
       <use xlink:href="#DejaVuSans-30" x="63.623047"/>
       <use xlink:href="#DejaVuSans-32" x="127.246094"/>
       <use xlink:href="#DejaVuSans-32" x="190.869141"/>
       <use xlink:href="#DejaVuSans-2d" x="254.492188"/>
       <use xlink:href="#DejaVuSans-30" x="290.576172"/>
       <use xlink:href="#DejaVuSans-37" x="354.199219"/>
      </g>
     </g>
    </g>
    <g id="xtick_20">
     <g id="line2d_55">
      <path d="M 650.13992 584.521875 
L 650.13992 331.135938 
" clip-path="url(#p687c180fa7)" style="fill: none; stroke-dasharray: 2.96,1.28; stroke-dashoffset: 0; stroke: #b0b0b0; stroke-width: 0.8"/>
     </g>
     <g id="line2d_56">
      <g>
       <use xlink:href="#m162b25df72" x="650.13992" y="584.521875" style="stroke: #000000; stroke-width: 0.8"/>
      </g>
     </g>
     <g id="text_17">
      <!-- 2022-08 -->
      <g transform="translate(629.248514 599.120312)scale(0.1 -0.1)">
       <use xlink:href="#DejaVuSans-32"/>
       <use xlink:href="#DejaVuSans-30" x="63.623047"/>
       <use xlink:href="#DejaVuSans-32" x="127.246094"/>
       <use xlink:href="#DejaVuSans-32" x="190.869141"/>
       <use xlink:href="#DejaVuSans-2d" x="254.492188"/>
       <use xlink:href="#DejaVuSans-30" x="290.576172"/>
       <use xlink:href="#DejaVuSans-38" x="354.199219"/>
      </g>
     </g>
    </g>
    <g id="xtick_21">
     <g id="line2d_57">
      <path d="M 732.691515 584.521875 
L 732.691515 331.135938 
" clip-path="url(#p687c180fa7)" style="fill: none; stroke-dasharray: 2.96,1.28; stroke-dashoffset: 0; stroke: #b0b0b0; stroke-width: 0.8"/>
     </g>
     <g id="line2d_58">
      <g>
       <use xlink:href="#m162b25df72" x="732.691515" y="584.521875" style="stroke: #000000; stroke-width: 0.8"/>
      </g>
     </g>
     <g id="text_18">
      <!-- 2022-09 -->
      <g transform="translate(711.800108 599.120312)scale(0.1 -0.1)">
       <defs>
        <path id="DejaVuSans-39" d="M 703 97 
L 703 672 
Q 941 559 1184 500 
Q 1428 441 1663 441 
Q 2288 441 2617 861 
Q 2947 1281 2994 2138 
Q 2813 1869 2534 1725 
Q 2256 1581 1919 1581 
Q 1219 1581 811 2004 
Q 403 2428 403 3163 
Q 403 3881 828 4315 
Q 1253 4750 1959 4750 
Q 2769 4750 3195 4129 
Q 3622 3509 3622 2328 
Q 3622 1225 3098 567 
Q 2575 -91 1691 -91 
Q 1453 -91 1209 -44 
Q 966 3 703 97 
z
M 1959 2075 
Q 2384 2075 2632 2365 
Q 2881 2656 2881 3163 
Q 2881 3666 2632 3958 
Q 2384 4250 1959 4250 
Q 1534 4250 1286 3958 
Q 1038 3666 1038 3163 
Q 1038 2656 1286 2365 
Q 1534 2075 1959 2075 
z
" transform="scale(0.015625)"/>
       </defs>
       <use xlink:href="#DejaVuSans-32"/>
       <use xlink:href="#DejaVuSans-30" x="63.623047"/>
       <use xlink:href="#DejaVuSans-32" x="127.246094"/>
       <use xlink:href="#DejaVuSans-32" x="190.869141"/>
       <use xlink:href="#DejaVuSans-2d" x="254.492188"/>
       <use xlink:href="#DejaVuSans-30" x="290.576172"/>
       <use xlink:href="#DejaVuSans-39" x="354.199219"/>
      </g>
     </g>
    </g>
    <g id="xtick_22">
     <g id="line2d_59">
      <path d="M 812.580155 584.521875 
L 812.580155 331.135938 
" clip-path="url(#p687c180fa7)" style="fill: none; stroke-dasharray: 2.96,1.28; stroke-dashoffset: 0; stroke: #b0b0b0; stroke-width: 0.8"/>
     </g>
     <g id="line2d_60">
      <g>
       <use xlink:href="#m162b25df72" x="812.580155" y="584.521875" style="stroke: #000000; stroke-width: 0.8"/>
      </g>
     </g>
     <g id="text_19">
      <!-- 2022-10 -->
      <g transform="translate(791.688749 599.120312)scale(0.1 -0.1)">
       <use xlink:href="#DejaVuSans-32"/>
       <use xlink:href="#DejaVuSans-30" x="63.623047"/>
       <use xlink:href="#DejaVuSans-32" x="127.246094"/>
       <use xlink:href="#DejaVuSans-32" x="190.869141"/>
       <use xlink:href="#DejaVuSans-2d" x="254.492188"/>
       <use xlink:href="#DejaVuSans-31" x="290.576172"/>
       <use xlink:href="#DejaVuSans-30" x="354.199219"/>
      </g>
     </g>
    </g>
    <g id="xtick_23">
     <g id="line2d_61">
      <path d="M 895.13175 584.521875 
L 895.13175 331.135938 
" clip-path="url(#p687c180fa7)" style="fill: none; stroke-dasharray: 2.96,1.28; stroke-dashoffset: 0; stroke: #b0b0b0; stroke-width: 0.8"/>
     </g>
     <g id="line2d_62">
      <g>
       <use xlink:href="#m162b25df72" x="895.13175" y="584.521875" style="stroke: #000000; stroke-width: 0.8"/>
      </g>
     </g>
     <g id="text_20">
      <!-- 2022-11 -->
      <g transform="translate(874.240343 599.120312)scale(0.1 -0.1)">
       <use xlink:href="#DejaVuSans-32"/>
       <use xlink:href="#DejaVuSans-30" x="63.623047"/>
       <use xlink:href="#DejaVuSans-32" x="127.246094"/>
       <use xlink:href="#DejaVuSans-32" x="190.869141"/>
       <use xlink:href="#DejaVuSans-2d" x="254.492188"/>
       <use xlink:href="#DejaVuSans-31" x="290.576172"/>
       <use xlink:href="#DejaVuSans-31" x="354.199219"/>
      </g>
     </g>
    </g>
    <g id="xtick_24">
     <g id="line2d_63">
      <path d="M 975.02039 584.521875 
L 975.02039 331.135938 
" clip-path="url(#p687c180fa7)" style="fill: none; stroke-dasharray: 2.96,1.28; stroke-dashoffset: 0; stroke: #b0b0b0; stroke-width: 0.8"/>
     </g>
     <g id="line2d_64">
      <g>
       <use xlink:href="#m162b25df72" x="975.02039" y="584.521875" style="stroke: #000000; stroke-width: 0.8"/>
      </g>
     </g>
     <g id="text_21">
      <!-- 2022-12 -->
      <g transform="translate(954.128983 599.120312)scale(0.1 -0.1)">
       <use xlink:href="#DejaVuSans-32"/>
       <use xlink:href="#DejaVuSans-30" x="63.623047"/>
       <use xlink:href="#DejaVuSans-32" x="127.246094"/>
       <use xlink:href="#DejaVuSans-32" x="190.869141"/>
       <use xlink:href="#DejaVuSans-2d" x="254.492188"/>
       <use xlink:href="#DejaVuSans-31" x="290.576172"/>
       <use xlink:href="#DejaVuSans-32" x="354.199219"/>
      </g>
     </g>
    </g>
   </g>
   <g id="matplotlib.axis_4">
    <g id="ytick_7">
     <g id="line2d_65">
      <path d="M 48.445313 562.050952 
L 982.876106 562.050952 
" clip-path="url(#p687c180fa7)" style="fill: none; stroke-dasharray: 2.96,1.28; stroke-dashoffset: 0; stroke: #b0b0b0; stroke-width: 0.8"/>
     </g>
     <g id="line2d_66">
      <g>
       <use xlink:href="#m5b98e1b386" x="48.445313" y="562.050952" style="stroke: #000000; stroke-width: 0.8"/>
      </g>
     </g>
     <g id="text_22">
      <!-- −12.5 -->
      <g transform="translate(10.8 565.850171)scale(0.1 -0.1)">
       <defs>
        <path id="DejaVuSans-2212" d="M 678 2272 
L 4684 2272 
L 4684 1741 
L 678 1741 
L 678 2272 
z
" transform="scale(0.015625)"/>
        <path id="DejaVuSans-2e" d="M 684 794 
L 1344 794 
L 1344 0 
L 684 0 
L 684 794 
z
" transform="scale(0.015625)"/>
       </defs>
       <use xlink:href="#DejaVuSans-2212"/>
       <use xlink:href="#DejaVuSans-31" x="83.789062"/>
       <use xlink:href="#DejaVuSans-32" x="147.412109"/>
       <use xlink:href="#DejaVuSans-2e" x="211.035156"/>
       <use xlink:href="#DejaVuSans-35" x="242.822266"/>
      </g>
     </g>
    </g>
    <g id="ytick_8">
     <g id="line2d_67">
      <path d="M 48.445313 530.756124 
L 982.876106 530.756124 
" clip-path="url(#p687c180fa7)" style="fill: none; stroke-dasharray: 2.96,1.28; stroke-dashoffset: 0; stroke: #b0b0b0; stroke-width: 0.8"/>
     </g>
     <g id="line2d_68">
      <g>
       <use xlink:href="#m5b98e1b386" x="48.445313" y="530.756124" style="stroke: #000000; stroke-width: 0.8"/>
      </g>
     </g>
     <g id="text_23">
      <!-- −10.0 -->
      <g transform="translate(10.8 534.555342)scale(0.1 -0.1)">
       <use xlink:href="#DejaVuSans-2212"/>
       <use xlink:href="#DejaVuSans-31" x="83.789062"/>
       <use xlink:href="#DejaVuSans-30" x="147.412109"/>
       <use xlink:href="#DejaVuSans-2e" x="211.035156"/>
       <use xlink:href="#DejaVuSans-30" x="242.822266"/>
      </g>
     </g>
    </g>
    <g id="ytick_9">
     <g id="line2d_69">
      <path d="M 48.445313 499.461295 
L 982.876106 499.461295 
" clip-path="url(#p687c180fa7)" style="fill: none; stroke-dasharray: 2.96,1.28; stroke-dashoffset: 0; stroke: #b0b0b0; stroke-width: 0.8"/>
     </g>
     <g id="line2d_70">
      <g>
       <use xlink:href="#m5b98e1b386" x="48.445313" y="499.461295" style="stroke: #000000; stroke-width: 0.8"/>
      </g>
     </g>
     <g id="text_24">
      <!-- −7.5 -->
      <g transform="translate(17.1625 503.260514)scale(0.1 -0.1)">
       <use xlink:href="#DejaVuSans-2212"/>
       <use xlink:href="#DejaVuSans-37" x="83.789062"/>
       <use xlink:href="#DejaVuSans-2e" x="147.412109"/>
       <use xlink:href="#DejaVuSans-35" x="179.199219"/>
      </g>
     </g>
    </g>
    <g id="ytick_10">
     <g id="line2d_71">
      <path d="M 48.445313 468.166467 
L 982.876106 468.166467 
" clip-path="url(#p687c180fa7)" style="fill: none; stroke-dasharray: 2.96,1.28; stroke-dashoffset: 0; stroke: #b0b0b0; stroke-width: 0.8"/>
     </g>
     <g id="line2d_72">
      <g>
       <use xlink:href="#m5b98e1b386" x="48.445313" y="468.166467" style="stroke: #000000; stroke-width: 0.8"/>
      </g>
     </g>
     <g id="text_25">
      <!-- −5.0 -->
      <g transform="translate(17.1625 471.965686)scale(0.1 -0.1)">
       <use xlink:href="#DejaVuSans-2212"/>
       <use xlink:href="#DejaVuSans-35" x="83.789062"/>
       <use xlink:href="#DejaVuSans-2e" x="147.412109"/>
       <use xlink:href="#DejaVuSans-30" x="179.199219"/>
      </g>
     </g>
    </g>
    <g id="ytick_11">
     <g id="line2d_73">
      <path d="M 48.445313 436.871639 
L 982.876106 436.871639 
" clip-path="url(#p687c180fa7)" style="fill: none; stroke-dasharray: 2.96,1.28; stroke-dashoffset: 0; stroke: #b0b0b0; stroke-width: 0.8"/>
     </g>
     <g id="line2d_74">
      <g>
       <use xlink:href="#m5b98e1b386" x="48.445313" y="436.871639" style="stroke: #000000; stroke-width: 0.8"/>
      </g>
     </g>
     <g id="text_26">
      <!-- −2.5 -->
      <g transform="translate(17.1625 440.670857)scale(0.1 -0.1)">
       <use xlink:href="#DejaVuSans-2212"/>
       <use xlink:href="#DejaVuSans-32" x="83.789062"/>
       <use xlink:href="#DejaVuSans-2e" x="147.412109"/>
       <use xlink:href="#DejaVuSans-35" x="179.199219"/>
      </g>
     </g>
    </g>
    <g id="ytick_12">
     <g id="line2d_75">
      <path d="M 48.445313 405.57681 
L 982.876106 405.57681 
" clip-path="url(#p687c180fa7)" style="fill: none; stroke-dasharray: 2.96,1.28; stroke-dashoffset: 0; stroke: #b0b0b0; stroke-width: 0.8"/>
     </g>
     <g id="line2d_76">
      <g>
       <use xlink:href="#m5b98e1b386" x="48.445313" y="405.57681" style="stroke: #000000; stroke-width: 0.8"/>
      </g>
     </g>
     <g id="text_27">
      <!-- 0.0 -->
      <g transform="translate(25.542188 409.376029)scale(0.1 -0.1)">
       <use xlink:href="#DejaVuSans-30"/>
       <use xlink:href="#DejaVuSans-2e" x="63.623047"/>
       <use xlink:href="#DejaVuSans-30" x="95.410156"/>
      </g>
     </g>
    </g>
    <g id="ytick_13">
     <g id="line2d_77">
      <path d="M 48.445313 374.281982 
L 982.876106 374.281982 
" clip-path="url(#p687c180fa7)" style="fill: none; stroke-dasharray: 2.96,1.28; stroke-dashoffset: 0; stroke: #b0b0b0; stroke-width: 0.8"/>
     </g>
     <g id="line2d_78">
      <g>
       <use xlink:href="#m5b98e1b386" x="48.445313" y="374.281982" style="stroke: #000000; stroke-width: 0.8"/>
      </g>
     </g>
     <g id="text_28">
      <!-- 2.5 -->
      <g transform="translate(25.542188 378.081201)scale(0.1 -0.1)">
       <use xlink:href="#DejaVuSans-32"/>
       <use xlink:href="#DejaVuSans-2e" x="63.623047"/>
       <use xlink:href="#DejaVuSans-35" x="95.410156"/>
      </g>
     </g>
    </g>
    <g id="ytick_14">
     <g id="line2d_79">
      <path d="M 48.445313 342.987153 
L 982.876106 342.987153 
" clip-path="url(#p687c180fa7)" style="fill: none; stroke-dasharray: 2.96,1.28; stroke-dashoffset: 0; stroke: #b0b0b0; stroke-width: 0.8"/>
     </g>
     <g id="line2d_80">
      <g>
       <use xlink:href="#m5b98e1b386" x="48.445313" y="342.987153" style="stroke: #000000; stroke-width: 0.8"/>
      </g>
     </g>
     <g id="text_29">
      <!-- 5.0 -->
      <g transform="translate(25.542188 346.786372)scale(0.1 -0.1)">
       <use xlink:href="#DejaVuSans-35"/>
       <use xlink:href="#DejaVuSans-2e" x="63.623047"/>
       <use xlink:href="#DejaVuSans-30" x="95.410156"/>
      </g>
     </g>
    </g>
   </g>
   <g id="line2d_81">
    <path d="M 90.919439 405.57681 
L 93.582394 403.807449 
L 96.245349 402.837067 
L 98.908303 399.977109 
L 101.571258 398.889621 
L 109.560122 398.36159 
L 112.223077 394.546259 
L 114.886031 387.253678 
L 117.548986 382.389338 
L 120.211941 381.7585 
L 128.200805 382.003474 
L 130.86376 389.311245 
L 133.526714 388.547264 
L 136.189669 391.316205 
L 138.852624 399.306179 
L 146.841488 413.153701 
L 149.504442 419.747006 
L 154.830352 427.740009 
L 157.493306 430.802594 
L 165.48217 433.307453 
L 168.145125 431.390658 
L 170.80808 427.122087 
L 173.471034 425.597249 
L 176.133989 426.026859 
L 184.122853 428.034628 
L 186.785808 429.466231 
L 189.448762 431.101067 
L 194.774672 431.299383 
L 202.763536 435.96615 
L 205.42649 430.424104 
L 208.089445 423.641015 
L 210.7524 421.004172 
L 213.415354 421.747313 
L 221.404218 423.266392 
L 226.730128 424.601193 
L 229.393082 468.252136 
L 232.056037 493.498772 
L 240.044901 511.772177 
L 250.69672 552.918524 
L 261.348538 573.004332 
L 264.011493 566.968247 
L 266.674448 560.297161 
L 269.337402 551.49802 
L 277.326266 542.889073 
L 279.989221 539.128157 
L 285.31513 521.00865 
L 295.966949 517.392926 
L 298.629904 511.413792 
L 301.292858 503.502008 
L 303.955813 496.284899 
L 306.618768 500.157152 
L 314.607632 495.491904 
L 317.270586 485.570982 
L 319.933541 470.999211 
L 322.596496 457.847295 
L 325.25945 447.641311 
L 333.248314 439.760842 
L 335.911269 433.544427 
L 338.574224 431.679751 
L 341.237178 428.481623 
L 343.900133 424.473361 
L 351.888997 422.359716 
L 354.551952 422.003426 
L 357.214906 421.835272 
L 370.52968 421.368937 
L 373.192634 424.007335 
L 375.855589 422.580015 
L 378.518544 421.765655 
L 381.181498 422.386829 
L 389.170362 426.565871 
L 391.833317 427.608445 
L 394.496272 433.803115 
L 397.159226 435.395023 
L 399.822181 437.697557 
L 407.811045 443.91979 
L 415.799909 456.326264 
L 418.462864 462.252921 
L 426.451728 459.269505 
L 429.114682 454.225683 
L 431.777637 449.470165 
L 434.440592 451.927469 
L 437.103546 471.979472 
L 445.09241 479.350405 
L 447.755365 476.901185 
L 450.41832 471.12609 
L 453.081274 472.939195 
L 455.744229 465.558766 
L 463.733093 461.737401 
L 466.396048 458.20321 
L 469.059002 454.085956 
L 471.721957 446.913848 
L 474.384912 443.61835 
L 482.373776 440.602869 
L 485.03673 436.493584 
L 487.699685 433.520658 
L 490.36264 430.074389 
L 493.025594 427.544365 
L 501.014459 425.611294 
L 503.677413 419.076546 
L 506.340368 414.551648 
L 509.003323 408.707852 
L 511.666277 404.792568 
L 519.655141 405.927205 
L 522.318096 408.010251 
L 524.981051 404.872065 
L 527.644005 402.07196 
L 530.30696 398.420434 
L 538.295824 394.243285 
L 540.958779 392.297905 
L 543.621733 390.126305 
L 546.284688 386.354417 
L 548.947643 378.775654 
L 556.936507 377.386901 
L 559.599461 380.614096 
L 562.262416 388.369595 
L 564.925371 388.451172 
L 567.588325 389.808618 
L 575.577189 389.054799 
L 578.240144 390.449832 
L 580.903099 387.121963 
L 583.566053 386.522331 
L 586.229008 387.867339 
L 594.217872 385.228634 
L 596.880827 375.055332 
L 599.543781 366.43408 
L 602.206736 357.229825 
L 604.869691 346.9747 
L 612.858555 342.65348 
L 615.521509 344.628269 
L 618.184464 346.270907 
L 620.847419 345.837186 
L 623.510373 347.326517 
L 631.499237 349.806259 
L 634.162192 352.883922 
L 639.488101 357.306013 
L 642.151056 360.08623 
L 650.13992 357.640248 
L 652.802875 364.60822 
L 658.128784 401.549287 
L 660.791739 418.897833 
L 668.780603 432.787548 
L 674.106512 449.251289 
L 676.769467 460.404297 
L 679.432421 467.169518 
L 690.08424 472.417066 
L 692.747195 472.07195 
L 695.410149 471.393282 
L 698.073104 472.558028 
L 706.061968 473.456191 
L 708.724923 470.240808 
L 711.387877 468.282871 
L 714.050832 465.235414 
L 716.713787 459.971064 
L 724.702651 458.072642 
L 727.365605 454.139662 
L 732.691515 450.70456 
L 735.354469 447.798538 
L 743.343333 444.741007 
L 746.006288 440.650965 
L 748.669243 435.049653 
L 753.995152 425.338838 
L 761.984016 420.264903 
L 764.646971 417.370436 
L 767.309925 414.968291 
L 772.635835 410.444763 
L 783.287653 416.281229 
L 785.950608 419.734696 
L 788.613563 424.376079 
L 791.276517 430.04506 
L 799.265381 441.297651 
L 801.928336 446.661037 
L 804.591291 456.186693 
L 807.254245 460.426823 
L 809.9172 451.590182 
L 817.906064 444.392164 
L 820.569019 434.116311 
L 825.894928 426.189554 
L 828.557883 420.443236 
L 836.546747 418.917247 
L 839.209701 424.260137 
L 841.872656 426.98502 
L 844.535611 432.021462 
L 847.198565 435.06688 
L 855.187429 437.666042 
L 857.850384 438.138436 
L 860.513339 436.789388 
L 865.839248 428.464914 
L 873.828112 425.239907 
L 876.491067 429.579038 
L 881.816976 428.810646 
L 884.479931 431.43889 
L 892.468795 435.150565 
L 895.13175 436.722968 
L 897.794704 439.097838 
L 900.457659 437.780458 
L 903.120614 435.282889 
L 911.109478 430.291404 
L 916.435387 424.850822 
L 919.098342 426.759532 
L 921.761296 422.920796 
L 929.75016 417.169205 
L 932.413115 411.732 
L 935.07607 409.249313 
L 937.739024 403.767301 
L 940.401979 399.193324 
L 940.401979 399.193324 
" clip-path="url(#p687c180fa7)" style="fill: none; stroke: #1f77b4; stroke-width: 1.5; stroke-linecap: square"/>
   </g>
   <g id="line2d_82">
    <path d="M 90.919439 405.57681 
L 93.582394 404.593832 
L 96.245349 403.873846 
L 98.908303 402.553813 
L 101.571258 401.463799 
L 109.560122 400.622928 
L 112.223077 399.085085 
L 114.886031 396.241775 
L 117.548986 393.041794 
L 120.211941 390.513681 
L 128.200805 388.651696 
L 130.86376 388.793339 
L 133.526714 388.741261 
L 136.189669 389.279941 
L 138.852624 391.358315 
L 146.841488 395.843643 
L 149.504442 400.734447 
L 154.830352 406.234642 
L 157.493306 411.22008 
L 165.48217 415.689079 
L 168.145125 418.858629 
L 170.80808 420.523606 
L 173.471034 421.54436 
L 176.133989 422.445113 
L 184.122853 423.567256 
L 192.111717 427.066645 
L 194.774672 427.914505 
L 202.763536 429.52683 
L 205.42649 429.706462 
L 208.089445 428.492411 
L 210.7524 426.993813 
L 213.415354 425.943981 
L 221.404218 425.408246 
L 224.067173 425.110799 
L 226.730128 425.008852 
L 229.393082 433.659305 
L 232.056037 445.629187 
L 240.044901 458.859544 
L 245.37081 473.586203 
L 248.033765 487.424343 
L 250.69672 500.524071 
L 258.685584 514.025457 
L 261.348538 525.821746 
L 264.011493 534.051333 
L 266.674448 539.300645 
L 269.337402 541.740174 
L 277.326266 541.969958 
L 279.989221 541.40159 
L 282.652176 539.101561 
L 285.31513 535.482946 
L 295.966949 531.864916 
L 298.629904 527.774667 
L 301.292858 522.920112 
L 303.955813 517.59305 
L 306.618768 514.10586 
L 314.607632 510.38306 
L 317.270586 505.420635 
L 319.933541 498.536339 
L 322.596496 490.39852 
L 325.25945 481.84707 
L 333.248314 473.429818 
L 335.911269 465.452735 
L 338.574224 458.698135 
L 341.237178 452.65483 
L 343.900133 447.018534 
L 351.888997 442.086769 
L 354.551952 438.0701 
L 357.214906 434.823134 
L 370.52968 432.132294 
L 375.855589 428.921845 
L 378.518544 427.490607 
L 381.181498 426.469851 
L 389.170362 426.489055 
L 391.833317 426.712933 
L 397.159226 429.58378 
L 399.822181 431.206536 
L 407.811045 433.749187 
L 413.136954 437.418536 
L 415.799909 441.200082 
L 418.462864 445.41065 
L 426.451728 448.182421 
L 429.114682 449.391073 
L 431.777637 449.406891 
L 434.440592 449.911007 
L 437.103546 454.3247 
L 445.09241 459.329841 
L 447.755365 462.84411 
L 453.081274 466.188244 
L 455.744229 466.062348 
L 463.733093 465.197359 
L 466.396048 463.798529 
L 469.059002 461.856014 
L 474.384912 455.817735 
L 482.373776 452.774762 
L 490.36264 443.07004 
L 493.025594 439.964905 
L 501.014459 437.094183 
L 506.340368 429.702854 
L 511.666277 421.361596 
L 519.655141 418.274718 
L 522.318096 416.221825 
L 527.644005 411.57589 
L 530.30696 408.944799 
L 538.295824 406.004496 
L 546.284688 397.779526 
L 548.947643 393.978752 
L 556.936507 390.660382 
L 559.599461 388.651125 
L 564.925371 388.566089 
L 567.588325 388.814595 
L 575.577189 388.862636 
L 578.240144 389.180075 
L 583.566053 388.319228 
L 586.229008 388.22885 
L 594.217872 387.628807 
L 596.880827 385.114112 
L 599.543781 381.378106 
L 602.206736 376.54845 
L 604.869691 370.6337 
L 612.858555 365.037656 
L 615.521509 360.955778 
L 618.184464 358.018804 
L 620.847419 355.582481 
L 623.510373 353.931288 
L 631.499237 353.106282 
L 634.162192 353.06181 
L 636.825147 353.468815 
L 639.488101 354.236255 
L 642.151056 355.40625 
L 650.13992 355.853049 
L 652.802875 357.604083 
L 655.465829 362.766445 
L 658.128784 370.523013 
L 660.791739 380.197977 
L 668.780603 390.715891 
L 674.106512 402.422971 
L 676.769467 414.019236 
L 679.432421 424.649293 
L 690.08424 434.202847 
L 692.747195 441.776668 
L 695.410149 447.699991 
L 698.073104 452.671598 
L 706.061968 456.828517 
L 708.724923 459.510975 
L 711.387877 461.265354 
L 714.050832 462.059366 
L 716.713787 461.641706 
L 724.702651 460.927893 
L 727.365605 459.570247 
L 732.691515 457.797109 
L 735.354469 455.797395 
L 743.343333 453.586117 
L 746.006288 450.999087 
L 748.669243 447.8092 
L 751.332197 444.272474 
L 753.995152 440.485747 
L 761.984016 436.441578 
L 764.646971 432.62735 
L 767.309925 429.095538 
L 769.97288 425.82235 
L 772.635835 422.746833 
L 780.624699 421.165527 
L 783.287653 420.188667 
L 785.950608 420.097873 
L 788.613563 420.953514 
L 791.276517 422.771823 
L 799.265381 426.476989 
L 801.928336 430.513798 
L 807.254245 440.604066 
L 809.9172 442.80129 
L 817.906064 443.119464 
L 820.569019 441.318834 
L 825.894928 438.292978 
L 828.557883 434.72303 
L 836.546747 431.561873 
L 839.209701 430.101526 
L 841.872656 429.478225 
L 844.535611 429.986872 
L 847.198565 431.002874 
L 855.187429 432.335507 
L 857.850384 433.496093 
L 860.513339 434.154752 
L 863.176293 433.84993 
L 865.839248 432.772927 
L 873.828112 431.266323 
L 876.491067 430.928866 
L 881.816976 430.505222 
L 884.479931 430.691956 
L 892.468795 431.583678 
L 895.13175 432.611536 
L 897.794704 433.908796 
L 900.457659 434.683129 
L 903.120614 434.803081 
L 911.109478 433.900745 
L 916.435387 432.090761 
L 919.098342 431.024515 
L 921.761296 429.403771 
L 929.75016 426.956858 
L 935.07607 420.979372 
L 937.739024 417.536958 
L 940.401979 413.868231 
L 940.401979 413.868231 
" clip-path="url(#p687c180fa7)" style="fill: none; stroke: #ff7f0e; stroke-width: 1.5; stroke-linecap: square"/>
   </g>
   <g id="patch_9">
    <path d="M 48.445313 584.521875 
L 48.445313 331.135938 
" style="fill: none; stroke: #000000; stroke-width: 0.8; stroke-linejoin: miter; stroke-linecap: square"/>
   </g>
   <g id="patch_10">
    <path d="M 982.876106 584.521875 
L 982.876106 331.135938 
" style="fill: none; stroke: #000000; stroke-width: 0.8; stroke-linejoin: miter; stroke-linecap: square"/>
   </g>
   <g id="patch_11">
    <path d="M 48.445312 584.521875 
L 982.876106 584.521875 
" style="fill: none; stroke: #000000; stroke-width: 0.8; stroke-linejoin: miter; stroke-linecap: square"/>
   </g>
   <g id="patch_12">
    <path d="M 48.445312 331.135938 
L 982.876106 331.135938 
" style="fill: none; stroke: #000000; stroke-width: 0.8; stroke-linejoin: miter; stroke-linecap: square"/>
   </g>
   <g id="text_30">
    <!-- MACD -->
    <g transform="translate(497.674772 325.135938)scale(0.12 -0.12)">
     <defs>
      <path id="DejaVuSans-44" d="M 1259 4147 
L 1259 519 
L 2022 519 
Q 2988 519 3436 956 
Q 3884 1394 3884 2338 
Q 3884 3275 3436 3711 
Q 2988 4147 2022 4147 
L 1259 4147 
z
M 628 4666 
L 1925 4666 
Q 3281 4666 3915 4102 
Q 4550 3538 4550 2338 
Q 4550 1131 3912 565 
Q 3275 0 1925 0 
L 628 0 
L 628 4666 
z
" transform="scale(0.015625)"/>
     </defs>
     <use xlink:href="#DejaVuSans-4d"/>
     <use xlink:href="#DejaVuSans-41" x="86.279297"/>
     <use xlink:href="#DejaVuSans-43" x="152.9375"/>
     <use xlink:href="#DejaVuSans-44" x="222.761719"/>
    </g>
   </g>
   <g id="legend_2">
    <g id="patch_13">
     <path d="M 913.899543 368.492188 
L 975.876106 368.492188 
Q 977.876106 368.492188 977.876106 366.492188 
L 977.876106 338.135938 
Q 977.876106 336.135938 975.876106 336.135938 
L 913.899543 336.135938 
Q 911.899543 336.135938 911.899543 338.135938 
L 911.899543 366.492188 
Q 911.899543 368.492188 913.899543 368.492188 
z
" style="fill: #ffffff; opacity: 0.8; stroke: #cccccc; stroke-linejoin: miter"/>
    </g>
    <g id="line2d_83">
     <path d="M 915.899543 344.234375 
L 925.899543 344.234375 
L 935.899543 344.234375 
" style="fill: none; stroke: #1f77b4; stroke-width: 1.5; stroke-linecap: square"/>
    </g>
    <g id="text_31">
     <!-- MACD -->
     <g transform="translate(943.899543 347.734375)scale(0.1 -0.1)">
      <use xlink:href="#DejaVuSans-4d"/>
      <use xlink:href="#DejaVuSans-41" x="86.279297"/>
      <use xlink:href="#DejaVuSans-43" x="152.9375"/>
      <use xlink:href="#DejaVuSans-44" x="222.761719"/>
     </g>
    </g>
    <g id="line2d_84">
     <path d="M 915.899543 358.9125 
L 925.899543 358.9125 
L 935.899543 358.9125 
" style="fill: none; stroke: #ff7f0e; stroke-width: 1.5; stroke-linecap: square"/>
    </g>
    <g id="text_32">
     <!-- SIG -->
     <g transform="translate(943.899543 362.4125)scale(0.1 -0.1)">
      <defs>
       <path id="DejaVuSans-49" d="M 628 4666 
L 1259 4666 
L 1259 0 
L 628 0 
L 628 4666 
z
" transform="scale(0.015625)"/>
       <path id="DejaVuSans-47" d="M 3809 666 
L 3809 1919 
L 2778 1919 
L 2778 2438 
L 4434 2438 
L 4434 434 
Q 4069 175 3628 42 
Q 3188 -91 2688 -91 
Q 1594 -91 976 548 
Q 359 1188 359 2328 
Q 359 3472 976 4111 
Q 1594 4750 2688 4750 
Q 3144 4750 3555 4637 
Q 3966 4525 4313 4306 
L 4313 3634 
Q 3963 3931 3569 4081 
Q 3175 4231 2741 4231 
Q 1884 4231 1454 3753 
Q 1025 3275 1025 2328 
Q 1025 1384 1454 906 
Q 1884 428 2741 428 
Q 3075 428 3337 486 
Q 3600 544 3809 666 
z
" transform="scale(0.015625)"/>
      </defs>
      <use xlink:href="#DejaVuSans-53"/>
      <use xlink:href="#DejaVuSans-49" x="63.476562"/>
      <use xlink:href="#DejaVuSans-47" x="92.96875"/>
     </g>
    </g>
   </g>
  </g>
  <g id="text_33">
   <!-- Indus Towers Limited -->
   <g transform="translate(440.995313 21.358125)scale(0.12 -0.12)">
    <defs>
     <path id="DejaVuSans-64" d="M 2906 2969 
L 2906 4863 
L 3481 4863 
L 3481 0 
L 2906 0 
L 2906 525 
Q 2725 213 2448 61 
Q 2172 -91 1784 -91 
Q 1150 -91 751 415 
Q 353 922 353 1747 
Q 353 2572 751 3078 
Q 1150 3584 1784 3584 
Q 2172 3584 2448 3432 
Q 2725 3281 2906 2969 
z
M 947 1747 
Q 947 1113 1208 752 
Q 1469 391 1925 391 
Q 2381 391 2643 752 
Q 2906 1113 2906 1747 
Q 2906 2381 2643 2742 
Q 2381 3103 1925 3103 
Q 1469 3103 1208 2742 
Q 947 2381 947 1747 
z
" transform="scale(0.015625)"/>
     <path id="DejaVuSans-75" d="M 544 1381 
L 544 3500 
L 1119 3500 
L 1119 1403 
Q 1119 906 1312 657 
Q 1506 409 1894 409 
Q 2359 409 2629 706 
Q 2900 1003 2900 1516 
L 2900 3500 
L 3475 3500 
L 3475 0 
L 2900 0 
L 2900 538 
Q 2691 219 2414 64 
Q 2138 -91 1772 -91 
Q 1169 -91 856 284 
Q 544 659 544 1381 
z
M 1991 3584 
L 1991 3584 
z
" transform="scale(0.015625)"/>
     <path id="DejaVuSans-54" d="M -19 4666 
L 3928 4666 
L 3928 4134 
L 2272 4134 
L 2272 0 
L 1638 0 
L 1638 4134 
L -19 4134 
L -19 4666 
z
" transform="scale(0.015625)"/>
     <path id="DejaVuSans-77" d="M 269 3500 
L 844 3500 
L 1563 769 
L 2278 3500 
L 2956 3500 
L 3675 769 
L 4391 3500 
L 4966 3500 
L 4050 0 
L 3372 0 
L 2619 2869 
L 1863 0 
L 1184 0 
L 269 3500 
z
" transform="scale(0.015625)"/>
     <path id="DejaVuSans-6d" d="M 3328 2828 
Q 3544 3216 3844 3400 
Q 4144 3584 4550 3584 
Q 5097 3584 5394 3201 
Q 5691 2819 5691 2113 
L 5691 0 
L 5113 0 
L 5113 2094 
Q 5113 2597 4934 2840 
Q 4756 3084 4391 3084 
Q 3944 3084 3684 2787 
Q 3425 2491 3425 1978 
L 3425 0 
L 2847 0 
L 2847 2094 
Q 2847 2600 2669 2842 
Q 2491 3084 2119 3084 
Q 1678 3084 1418 2786 
Q 1159 2488 1159 1978 
L 1159 0 
L 581 0 
L 581 3500 
L 1159 3500 
L 1159 2956 
Q 1356 3278 1631 3431 
Q 1906 3584 2284 3584 
Q 2666 3584 2933 3390 
Q 3200 3197 3328 2828 
z
" transform="scale(0.015625)"/>
     <path id="DejaVuSans-74" d="M 1172 4494 
L 1172 3500 
L 2356 3500 
L 2356 3053 
L 1172 3053 
L 1172 1153 
Q 1172 725 1289 603 
Q 1406 481 1766 481 
L 2356 481 
L 2356 0 
L 1766 0 
Q 1100 0 847 248 
Q 594 497 594 1153 
L 594 3053 
L 172 3053 
L 172 3500 
L 594 3500 
L 594 4494 
L 1172 4494 
z
" transform="scale(0.015625)"/>
    </defs>
    <use xlink:href="#DejaVuSans-49"/>
    <use xlink:href="#DejaVuSans-6e" x="29.492188"/>
    <use xlink:href="#DejaVuSans-64" x="92.871094"/>
    <use xlink:href="#DejaVuSans-75" x="156.347656"/>
    <use xlink:href="#DejaVuSans-73" x="219.726562"/>
    <use xlink:href="#DejaVuSans-20" x="271.826172"/>
    <use xlink:href="#DejaVuSans-54" x="303.613281"/>
    <use xlink:href="#DejaVuSans-6f" x="347.697266"/>
    <use xlink:href="#DejaVuSans-77" x="408.878906"/>
    <use xlink:href="#DejaVuSans-65" x="490.666016"/>
    <use xlink:href="#DejaVuSans-72" x="552.189453"/>
    <use xlink:href="#DejaVuSans-73" x="593.302734"/>
    <use xlink:href="#DejaVuSans-20" x="645.402344"/>
    <use xlink:href="#DejaVuSans-4c" x="677.189453"/>
    <use xlink:href="#DejaVuSans-69" x="732.902344"/>
    <use xlink:href="#DejaVuSans-6d" x="760.685547"/>
    <use xlink:href="#DejaVuSans-69" x="858.097656"/>
    <use xlink:href="#DejaVuSans-74" x="885.880859"/>
    <use xlink:href="#DejaVuSans-65" x="925.089844"/>
    <use xlink:href="#DejaVuSans-64" x="986.613281"/>
   </g>
  </g>
 </g>
 <defs>
  <clipPath id="p4ba887f5b3">
   <rect x="48.445313" y="48.331875" width="934.430793" height="253.385938"/>
  </clipPath>
  <clipPath id="p687c180fa7">
   <rect x="48.445313" y="331.135938" width="934.430793" height="253.385937"/>
  </clipPath>
 </defs>
</svg>
