<?xml version="1.0" encoding="utf-8" standalone="no"?>
<!DOCTYPE svg PUBLIC "-//W3C//DTD SVG 1.1//EN"
  "http://www.w3.org/Graphics/SVG/1.1/DTD/svg11.dtd">
<svg xmlns:xlink="http://www.w3.org/1999/xlink" width="1008pt" height="612pt" viewBox="0 0 1008 612" xmlns="http://www.w3.org/2000/svg" version="1.1">
 <metadata>
  <rdf:RDF xmlns:dc="http://purl.org/dc/elements/1.1/" xmlns:cc="http://creativecommons.org/ns#" xmlns:rdf="http://www.w3.org/1999/02/22-rdf-syntax-ns#">
   <cc:Work>
    <dc:type rdf:resource="http://purl.org/dc/dcmitype/StillImage"/>
    <dc:date>2022-11-20T19:47:31.877867</dc:date>
    <dc:format>image/svg+xml</dc:format>
    <dc:creator>
     <cc:Agent>
      <dc:title>Matplotlib v3.5.2, https://matplotlib.org/</dc:title>
     </cc:Agent>
    </dc:creator>
   </cc:Work>
  </rdf:RDF>
 </metadata>
 <defs>
  <style type="text/css">*{stroke-linejoin: round; stroke-linecap: butt}</style>
 </defs>
 <g id="figure_1">
  <g id="patch_1">
   <path d="M 0 612 
L 1008 612 
L 1008 0 
L 0 0 
z
" style="fill: #ffffff"/>
  </g>
  <g id="axes_1">
   <g id="patch_2">
    <path d="M 45.267188 301.717812 
L 982.876106 301.717812 
L 982.876106 48.331875 
L 45.267188 48.331875 
z
" style="fill: #ffffff"/>
   </g>
   <g id="matplotlib.axis_1">
    <g id="xtick_1">
     <g id="line2d_1">
      <path d="M 82.541751 301.717812 
L 82.541751 48.331875 
" clip-path="url(#peb843b52da)" style="fill: none; stroke-dasharray: 2.96,1.28; stroke-dashoffset: 0; stroke: #b0b0b0; stroke-width: 0.8"/>
     </g>
     <g id="line2d_2">
      <defs>
       <path id="m587b74ad3b" d="M 0 0 
L 0 3.5 
" style="stroke: #000000; stroke-width: 0.8"/>
      </defs>
      <g>
       <use xlink:href="#m587b74ad3b" x="82.541751" y="301.717812" style="stroke: #000000; stroke-width: 0.8"/>
      </g>
     </g>
    </g>
    <g id="xtick_2">
     <g id="line2d_3">
      <path d="M 165.374115 301.717812 
L 165.374115 48.331875 
" clip-path="url(#peb843b52da)" style="fill: none; stroke-dasharray: 2.96,1.28; stroke-dashoffset: 0; stroke: #b0b0b0; stroke-width: 0.8"/>
     </g>
     <g id="line2d_4">
      <g>
       <use xlink:href="#m587b74ad3b" x="165.374115" y="301.717812" style="stroke: #000000; stroke-width: 0.8"/>
      </g>
     </g>
    </g>
    <g id="xtick_3">
     <g id="line2d_5">
      <path d="M 240.190444 301.717812 
L 240.190444 48.331875 
" clip-path="url(#peb843b52da)" style="fill: none; stroke-dasharray: 2.96,1.28; stroke-dashoffset: 0; stroke: #b0b0b0; stroke-width: 0.8"/>
     </g>
     <g id="line2d_6">
      <g>
       <use xlink:href="#m587b74ad3b" x="240.190444" y="301.717812" style="stroke: #000000; stroke-width: 0.8"/>
      </g>
     </g>
    </g>
    <g id="xtick_4">
     <g id="line2d_7">
      <path d="M 323.022808 301.717812 
L 323.022808 48.331875 
" clip-path="url(#peb843b52da)" style="fill: none; stroke-dasharray: 2.96,1.28; stroke-dashoffset: 0; stroke: #b0b0b0; stroke-width: 0.8"/>
     </g>
     <g id="line2d_8">
      <g>
       <use xlink:href="#m587b74ad3b" x="323.022808" y="301.717812" style="stroke: #000000; stroke-width: 0.8"/>
      </g>
     </g>
    </g>
    <g id="xtick_5">
     <g id="line2d_9">
      <path d="M 403.18316 301.717812 
L 403.18316 48.331875 
" clip-path="url(#peb843b52da)" style="fill: none; stroke-dasharray: 2.96,1.28; stroke-dashoffset: 0; stroke: #b0b0b0; stroke-width: 0.8"/>
     </g>
     <g id="line2d_10">
      <g>
       <use xlink:href="#m587b74ad3b" x="403.18316" y="301.717812" style="stroke: #000000; stroke-width: 0.8"/>
      </g>
     </g>
    </g>
    <g id="xtick_6">
     <g id="line2d_11">
      <path d="M 486.015523 301.717812 
L 486.015523 48.331875 
" clip-path="url(#peb843b52da)" style="fill: none; stroke-dasharray: 2.96,1.28; stroke-dashoffset: 0; stroke: #b0b0b0; stroke-width: 0.8"/>
     </g>
     <g id="line2d_12">
      <g>
       <use xlink:href="#m587b74ad3b" x="486.015523" y="301.717812" style="stroke: #000000; stroke-width: 0.8"/>
      </g>
     </g>
    </g>
    <g id="xtick_7">
     <g id="line2d_13">
      <path d="M 566.175876 301.717812 
L 566.175876 48.331875 
" clip-path="url(#peb843b52da)" style="fill: none; stroke-dasharray: 2.96,1.28; stroke-dashoffset: 0; stroke: #b0b0b0; stroke-width: 0.8"/>
     </g>
     <g id="line2d_14">
      <g>
       <use xlink:href="#m587b74ad3b" x="566.175876" y="301.717812" style="stroke: #000000; stroke-width: 0.8"/>
      </g>
     </g>
    </g>
    <g id="xtick_8">
     <g id="line2d_15">
      <path d="M 649.008239 301.717812 
L 649.008239 48.331875 
" clip-path="url(#peb843b52da)" style="fill: none; stroke-dasharray: 2.96,1.28; stroke-dashoffset: 0; stroke: #b0b0b0; stroke-width: 0.8"/>
     </g>
     <g id="line2d_16">
      <g>
       <use xlink:href="#m587b74ad3b" x="649.008239" y="301.717812" style="stroke: #000000; stroke-width: 0.8"/>
      </g>
     </g>
    </g>
    <g id="xtick_9">
     <g id="line2d_17">
      <path d="M 731.840603 301.717812 
L 731.840603 48.331875 
" clip-path="url(#peb843b52da)" style="fill: none; stroke-dasharray: 2.96,1.28; stroke-dashoffset: 0; stroke: #b0b0b0; stroke-width: 0.8"/>
     </g>
     <g id="line2d_18">
      <g>
       <use xlink:href="#m587b74ad3b" x="731.840603" y="301.717812" style="stroke: #000000; stroke-width: 0.8"/>
      </g>
     </g>
    </g>
    <g id="xtick_10">
     <g id="line2d_19">
      <path d="M 812.000955 301.717812 
L 812.000955 48.331875 
" clip-path="url(#peb843b52da)" style="fill: none; stroke-dasharray: 2.96,1.28; stroke-dashoffset: 0; stroke: #b0b0b0; stroke-width: 0.8"/>
     </g>
     <g id="line2d_20">
      <g>
       <use xlink:href="#m587b74ad3b" x="812.000955" y="301.717812" style="stroke: #000000; stroke-width: 0.8"/>
      </g>
     </g>
    </g>
    <g id="xtick_11">
     <g id="line2d_21">
      <path d="M 894.833319 301.717812 
L 894.833319 48.331875 
" clip-path="url(#peb843b52da)" style="fill: none; stroke-dasharray: 2.96,1.28; stroke-dashoffset: 0; stroke: #b0b0b0; stroke-width: 0.8"/>
     </g>
     <g id="line2d_22">
      <g>
       <use xlink:href="#m587b74ad3b" x="894.833319" y="301.717812" style="stroke: #000000; stroke-width: 0.8"/>
      </g>
     </g>
    </g>
    <g id="xtick_12">
     <g id="line2d_23">
      <path d="M 974.993671 301.717812 
L 974.993671 48.331875 
" clip-path="url(#peb843b52da)" style="fill: none; stroke-dasharray: 2.96,1.28; stroke-dashoffset: 0; stroke: #b0b0b0; stroke-width: 0.8"/>
     </g>
     <g id="line2d_24">
      <g>
       <use xlink:href="#m587b74ad3b" x="974.993671" y="301.717812" style="stroke: #000000; stroke-width: 0.8"/>
      </g>
     </g>
    </g>
   </g>
   <g id="matplotlib.axis_2">
    <g id="ytick_1">
     <g id="line2d_25">
      <path d="M 45.267188 277.819284 
L 982.876106 277.819284 
" clip-path="url(#peb843b52da)" style="fill: none; stroke-dasharray: 2.96,1.28; stroke-dashoffset: 0; stroke: #b0b0b0; stroke-width: 0.8"/>
     </g>
     <g id="line2d_26">
      <defs>
       <path id="mc83c8e4a02" d="M 0 0 
L -3.5 0 
" style="stroke: #000000; stroke-width: 0.8"/>
      </defs>
      <g>
       <use xlink:href="#mc83c8e4a02" x="45.267188" y="277.819284" style="stroke: #000000; stroke-width: 0.8"/>
      </g>
     </g>
     <g id="text_1">
      <!-- 3500 -->
      <g transform="translate(12.817188 281.618503)scale(0.1 -0.1)">
       <defs>
        <path id="DejaVuSans-33" d="M 2597 2516 
Q 3050 2419 3304 2112 
Q 3559 1806 3559 1356 
Q 3559 666 3084 287 
Q 2609 -91 1734 -91 
Q 1441 -91 1130 -33 
Q 819 25 488 141 
L 488 750 
Q 750 597 1062 519 
Q 1375 441 1716 441 
Q 2309 441 2620 675 
Q 2931 909 2931 1356 
Q 2931 1769 2642 2001 
Q 2353 2234 1838 2234 
L 1294 2234 
L 1294 2753 
L 1863 2753 
Q 2328 2753 2575 2939 
Q 2822 3125 2822 3475 
Q 2822 3834 2567 4026 
Q 2313 4219 1838 4219 
Q 1578 4219 1281 4162 
Q 984 4106 628 3988 
L 628 4550 
Q 988 4650 1302 4700 
Q 1616 4750 1894 4750 
Q 2613 4750 3031 4423 
Q 3450 4097 3450 3541 
Q 3450 3153 3228 2886 
Q 3006 2619 2597 2516 
z
" transform="scale(0.015625)"/>
        <path id="DejaVuSans-35" d="M 691 4666 
L 3169 4666 
L 3169 4134 
L 1269 4134 
L 1269 2991 
Q 1406 3038 1543 3061 
Q 1681 3084 1819 3084 
Q 2600 3084 3056 2656 
Q 3513 2228 3513 1497 
Q 3513 744 3044 326 
Q 2575 -91 1722 -91 
Q 1428 -91 1123 -41 
Q 819 9 494 109 
L 494 744 
Q 775 591 1075 516 
Q 1375 441 1709 441 
Q 2250 441 2565 725 
Q 2881 1009 2881 1497 
Q 2881 1984 2565 2268 
Q 2250 2553 1709 2553 
Q 1456 2553 1204 2497 
Q 953 2441 691 2322 
L 691 4666 
z
" transform="scale(0.015625)"/>
        <path id="DejaVuSans-30" d="M 2034 4250 
Q 1547 4250 1301 3770 
Q 1056 3291 1056 2328 
Q 1056 1369 1301 889 
Q 1547 409 2034 409 
Q 2525 409 2770 889 
Q 3016 1369 3016 2328 
Q 3016 3291 2770 3770 
Q 2525 4250 2034 4250 
z
M 2034 4750 
Q 2819 4750 3233 4129 
Q 3647 3509 3647 2328 
Q 3647 1150 3233 529 
Q 2819 -91 2034 -91 
Q 1250 -91 836 529 
Q 422 1150 422 2328 
Q 422 3509 836 4129 
Q 1250 4750 2034 4750 
z
" transform="scale(0.015625)"/>
       </defs>
       <use xlink:href="#DejaVuSans-33"/>
       <use xlink:href="#DejaVuSans-35" x="63.623047"/>
       <use xlink:href="#DejaVuSans-30" x="127.246094"/>
       <use xlink:href="#DejaVuSans-30" x="190.869141"/>
      </g>
     </g>
    </g>
    <g id="ytick_2">
     <g id="line2d_27">
      <path d="M 45.267188 228.196093 
L 982.876106 228.196093 
" clip-path="url(#peb843b52da)" style="fill: none; stroke-dasharray: 2.96,1.28; stroke-dashoffset: 0; stroke: #b0b0b0; stroke-width: 0.8"/>
     </g>
     <g id="line2d_28">
      <g>
       <use xlink:href="#mc83c8e4a02" x="45.267188" y="228.196093" style="stroke: #000000; stroke-width: 0.8"/>
      </g>
     </g>
     <g id="text_2">
      <!-- 4000 -->
      <g transform="translate(12.817188 231.995312)scale(0.1 -0.1)">
       <defs>
        <path id="DejaVuSans-34" d="M 2419 4116 
L 825 1625 
L 2419 1625 
L 2419 4116 
z
M 2253 4666 
L 3047 4666 
L 3047 1625 
L 3713 1625 
L 3713 1100 
L 3047 1100 
L 3047 0 
L 2419 0 
L 2419 1100 
L 313 1100 
L 313 1709 
L 2253 4666 
z
" transform="scale(0.015625)"/>
       </defs>
       <use xlink:href="#DejaVuSans-34"/>
       <use xlink:href="#DejaVuSans-30" x="63.623047"/>
       <use xlink:href="#DejaVuSans-30" x="127.246094"/>
       <use xlink:href="#DejaVuSans-30" x="190.869141"/>
      </g>
     </g>
    </g>
    <g id="ytick_3">
     <g id="line2d_29">
      <path d="M 45.267188 178.572902 
L 982.876106 178.572902 
" clip-path="url(#peb843b52da)" style="fill: none; stroke-dasharray: 2.96,1.28; stroke-dashoffset: 0; stroke: #b0b0b0; stroke-width: 0.8"/>
     </g>
     <g id="line2d_30">
      <g>
       <use xlink:href="#mc83c8e4a02" x="45.267188" y="178.572902" style="stroke: #000000; stroke-width: 0.8"/>
      </g>
     </g>
     <g id="text_3">
      <!-- 4500 -->
      <g transform="translate(12.817188 182.372121)scale(0.1 -0.1)">
       <use xlink:href="#DejaVuSans-34"/>
       <use xlink:href="#DejaVuSans-35" x="63.623047"/>
       <use xlink:href="#DejaVuSans-30" x="127.246094"/>
       <use xlink:href="#DejaVuSans-30" x="190.869141"/>
      </g>
     </g>
    </g>
    <g id="ytick_4">
     <g id="line2d_31">
      <path d="M 45.267188 128.949711 
L 982.876106 128.949711 
" clip-path="url(#peb843b52da)" style="fill: none; stroke-dasharray: 2.96,1.28; stroke-dashoffset: 0; stroke: #b0b0b0; stroke-width: 0.8"/>
     </g>
     <g id="line2d_32">
      <g>
       <use xlink:href="#mc83c8e4a02" x="45.267188" y="128.949711" style="stroke: #000000; stroke-width: 0.8"/>
      </g>
     </g>
     <g id="text_4">
      <!-- 5000 -->
      <g transform="translate(12.817188 132.74893)scale(0.1 -0.1)">
       <use xlink:href="#DejaVuSans-35"/>
       <use xlink:href="#DejaVuSans-30" x="63.623047"/>
       <use xlink:href="#DejaVuSans-30" x="127.246094"/>
       <use xlink:href="#DejaVuSans-30" x="190.869141"/>
      </g>
     </g>
    </g>
    <g id="ytick_5">
     <g id="line2d_33">
      <path d="M 45.267188 79.32652 
L 982.876106 79.32652 
" clip-path="url(#peb843b52da)" style="fill: none; stroke-dasharray: 2.96,1.28; stroke-dashoffset: 0; stroke: #b0b0b0; stroke-width: 0.8"/>
     </g>
     <g id="line2d_34">
      <g>
       <use xlink:href="#mc83c8e4a02" x="45.267188" y="79.32652" style="stroke: #000000; stroke-width: 0.8"/>
      </g>
     </g>
     <g id="text_5">
      <!-- 5500 -->
      <g transform="translate(12.817188 83.125739)scale(0.1 -0.1)">
       <use xlink:href="#DejaVuSans-35"/>
       <use xlink:href="#DejaVuSans-35" x="63.623047"/>
       <use xlink:href="#DejaVuSans-30" x="127.246094"/>
       <use xlink:href="#DejaVuSans-30" x="190.869141"/>
      </g>
     </g>
    </g>
   </g>
   <g id="line2d_35">
    <path d="M 87.885775 66.131714 
L 90.557786 68.493777 
L 93.229798 67.620409 
L 95.90181 72.245291 
L 98.573822 65.962995 
L 106.589857 73.654589 
L 109.261869 65.61067 
L 111.93388 66.121789 
L 114.605892 70.314949 
L 117.277904 59.849418 
L 125.293939 64.206334 
L 127.965951 94.665048 
L 130.637962 127.292296 
L 133.309974 128.324459 
L 135.981986 152.510802 
L 143.998021 177.719383 
L 146.670033 176.726919 
L 152.014056 189.078131 
L 154.686068 187.892137 
L 162.702103 138.794952 
L 165.374115 128.924899 
L 168.046127 117.526452 
L 170.718139 129.39632 
L 173.39015 144.342825 
L 181.406185 149.141387 
L 184.078197 151.260298 
L 186.750209 137.574222 
L 189.422221 140.015683 
L 192.094232 169.079985 
L 200.110268 177.441493 
L 202.782279 160.455475 
L 205.454291 170.618304 
L 208.126303 173.819 
L 210.798315 185.753378 
L 218.81435 184.264682 
L 221.486362 182.46336 
L 224.158373 187.326433 
L 226.830385 200.37237 
L 229.502397 183.470711 
L 237.518432 183.108462 
L 242.862455 171.769562 
L 245.534467 169.7102 
L 248.206479 194.46721 
L 256.222514 199.623059 
L 258.894526 189.877065 
L 261.566538 172.250907 
L 264.238549 167.025585 
L 266.910561 167.159568 
L 274.926596 175.923024 
L 277.598608 184.299418 
L 280.27062 181.103685 
L 282.942631 170.767174 
L 293.630678 164.370745 
L 296.30269 152.724182 
L 298.974702 166.043046 
L 301.646714 175.600473 
L 312.334761 189.231963 
L 315.006772 179.198154 
L 317.678784 166.727846 
L 320.350796 177.635024 
L 323.022808 168.772322 
L 331.038843 160.197434 
L 333.710854 154.202953 
L 336.382866 155.860367 
L 339.054878 147.00759 
L 341.72689 143.821781 
L 349.742925 140.551613 
L 352.414937 150.099115 
L 355.086948 153.379208 
L 368.447007 162.043417 
L 371.119019 167.462269 
L 373.791031 164.375707 
L 376.463042 165.467417 
L 379.135054 163.085504 
L 387.151089 178.329748 
L 389.823101 174.692368 
L 392.495113 180.518131 
L 395.167124 162.37093 
L 397.839136 163.561887 
L 405.855171 175.590548 
L 411.199195 205.825958 
L 413.871207 215.502481 
L 416.543218 238.314261 
L 424.559254 245.990969 
L 427.231265 257.56806 
L 429.903277 260.92755 
L 432.575289 273.899052 
L 435.2473 281.243284 
L 443.263336 273.134855 
L 445.935347 263.800732 
L 448.607359 267.492698 
L 451.279371 287.540467 
L 453.951383 278.821672 
L 461.967418 275.794658 
L 464.63943 277.57613 
L 467.311441 290.20027 
L 469.983453 272.886739 
L 472.655465 258.634958 
L 480.6715 247.53425 
L 483.343512 211.879988 
L 486.015523 220.226608 
L 488.687535 235.833102 
L 491.359547 245.147375 
L 499.375582 256.793938 
L 502.047594 265.631828 
L 504.719606 258.242935 
L 507.391617 249.965787 
L 510.063629 259.865613 
L 518.079664 266.500234 
L 520.751676 267.140373 
L 523.423688 263.552616 
L 526.095699 266.778124 
L 528.767711 268.068327 
L 536.783746 268.321405 
L 539.455758 260.451167 
L 542.12777 263.264802 
L 544.799782 252.327851 
L 547.471793 236.175502 
L 555.487829 235.565137 
L 558.15984 236.91985 
L 560.831852 250.055108 
L 563.503864 252.13432 
L 566.175876 255.339978 
L 574.191911 245.445114 
L 576.863922 245.554285 
L 579.535934 237.421044 
L 582.207946 235.436116 
L 584.879958 230.315003 
L 592.895993 236.061369 
L 595.568005 245.236697 
L 598.240016 239.902204 
L 600.912028 244.070552 
L 603.58404 247.68312 
L 611.600075 230.845971 
L 614.272087 215.353611 
L 616.944099 215.194817 
L 619.61611 213.080869 
L 622.288122 217.819884 
L 630.304157 225.759594 
L 632.976169 241.24203 
L 635.648181 236.453392 
L 638.320192 219.646017 
L 640.992204 194.80961 
L 649.008239 194.353077 
L 651.680251 188.02612 
L 654.352263 198.268346 
L 657.024275 202.585564 
L 659.696286 197.424752 
L 667.712322 201.717158 
L 673.056345 204.371999 
L 675.728357 188.338746 
L 678.400368 185.197598 
L 689.088415 185.644207 
L 691.760427 180.379186 
L 694.432439 181.833146 
L 697.104451 183.093575 
L 705.120486 203.975013 
L 707.792498 202.138955 
L 710.464509 186.393517 
L 713.136521 178.2702 
L 715.808533 184.880009 
L 723.824568 212.554863 
L 726.49658 194.025564 
L 731.840603 202.625263 
L 734.512615 203.151268 
L 742.52865 202.843605 
L 745.200662 209.751153 
L 747.872674 208.86786 
L 750.544685 208.163211 
L 753.216697 199.975384 
L 761.232732 197.861436 
L 763.904744 191.817332 
L 766.576756 204.873193 
L 769.248768 208.555234 
L 771.920779 216.12277 
L 779.936814 226.657774 
L 782.608826 221.650794 
L 785.280838 221.025542 
L 787.95285 224.394956 
L 790.624861 238.254714 
L 798.640897 257.389416 
L 801.312908 240.388511 
L 803.98492 240.180093 
L 806.656932 237.510366 
L 809.328944 242.031038 
L 817.344979 247.588836 
L 820.016991 233.41149 
L 825.361014 227.263177 
L 828.033026 236.115954 
L 836.049061 246.482239 
L 838.721073 251.648013 
L 841.393084 249.93105 
L 844.065096 250.412395 
L 846.737108 251.712523 
L 854.753143 249.087456 
L 857.425155 242.060812 
L 860.097167 241.569543 
L 862.769178 230.692139 
L 865.44119 245.847062 
L 873.457225 242.368476 
L 876.129237 247.449891 
L 881.47326 235.431154 
L 884.145272 245.931421 
L 892.161307 235.967085 
L 894.833319 228.121658 
L 897.505331 229.411861 
L 900.177343 234.969658 
L 902.849354 238.949438 
L 910.86539 233.887873 
L 916.209413 239.827769 
L 918.881425 246.541787 
L 921.553437 218.251605 
L 929.569472 192.383036 
L 932.241483 212.842678 
L 934.913495 213.527478 
L 937.585507 237.371421 
L 940.257519 238.641775 
L 940.257519 238.641775 
" clip-path="url(#peb843b52da)" style="fill: none; stroke: #1f77b4; stroke-width: 1.5; stroke-linecap: square"/>
   </g>
   <g id="line2d_36">
    <path d="M 98.573822 68.090837 
L 106.589857 69.595412 
L 109.261869 69.018791 
L 114.605892 68.332998 
L 117.277904 67.110283 
L 125.293939 65.220632 
L 127.965951 71.031507 
L 130.637962 83.265609 
L 133.309974 94.867511 
L 135.981986 113.399788 
L 143.998021 136.102398 
L 146.670033 152.514772 
L 152.014056 164.871939 
L 154.686068 176.785475 
L 162.702103 174.042305 
L 165.374115 164.283408 
L 170.718139 140.506952 
L 173.39015 131.79709 
L 181.406185 133.866377 
L 184.078197 138.333456 
L 186.750209 142.34301 
L 189.422221 144.466883 
L 192.094232 149.414315 
L 202.782279 156.913372 
L 208.126303 170.282852 
L 210.798315 173.61753 
L 218.81435 174.982168 
L 221.486362 179.383745 
L 224.158373 182.725371 
L 226.830385 188.036044 
L 229.502397 187.579511 
L 237.518432 187.348267 
L 242.862455 185.209507 
L 245.534467 181.686261 
L 248.206479 180.505229 
L 256.222514 183.735699 
L 258.894526 185.089419 
L 261.566538 185.185688 
L 264.238549 184.648765 
L 266.910561 179.187237 
L 274.926596 174.44723 
L 277.598608 173.3317 
L 280.27062 175.102256 
L 282.942631 175.850574 
L 293.630678 175.292809 
L 296.30269 170.653041 
L 298.974702 167.001766 
L 301.646714 165.901124 
L 312.334761 172.527805 
L 315.006772 177.822599 
L 317.678784 177.959559 
L 320.350796 178.366469 
L 323.022808 176.313062 
L 331.038843 170.506156 
L 333.710854 165.507116 
L 336.382866 163.33362 
L 339.054878 157.208133 
L 341.72689 152.218025 
L 349.742925 148.288861 
L 352.414937 147.468093 
L 355.086948 146.971861 
L 368.447007 149.979027 
L 373.791031 159.471943 
L 376.463042 162.545604 
L 379.135054 164.486863 
L 387.151089 167.744129 
L 389.823101 169.190149 
L 392.495113 172.418634 
L 395.167124 171.799336 
L 397.839136 171.894613 
L 405.855171 171.346773 
L 411.199195 177.573491 
L 413.871207 184.570361 
L 416.543218 199.759027 
L 424.559254 216.244844 
L 427.231265 232.640346 
L 429.903277 243.660664 
L 432.575289 255.339978 
L 435.2473 263.925783 
L 443.263336 269.35456 
L 448.607359 271.914124 
L 451.279371 274.642407 
L 453.951383 274.158085 
L 461.967418 274.690045 
L 464.63943 277.445125 
L 467.311441 281.986639 
L 469.983453 279.055894 
L 472.655465 275.018551 
L 480.6715 269.366469 
L 483.343512 256.227241 
L 486.015523 242.232509 
L 488.687535 234.821781 
L 491.359547 232.124265 
L 499.375582 233.976202 
L 502.047594 244.72657 
L 504.719606 252.329836 
L 510.063629 258.10002 
L 518.079664 260.041279 
L 520.751676 260.342988 
L 523.423688 261.404925 
L 526.095699 264.767392 
L 528.767711 266.407935 
L 536.783746 266.772169 
L 539.455758 265.434328 
L 542.12777 265.376765 
L 544.799782 262.48671 
L 547.471793 256.108145 
L 555.487829 249.556892 
L 558.15984 244.850628 
L 560.831852 242.208689 
L 563.503864 242.169983 
L 566.175876 246.002879 
L 574.191911 247.978874 
L 576.863922 249.705761 
L 579.535934 247.178948 
L 582.207946 243.839308 
L 584.879958 238.834312 
L 592.895993 236.957563 
L 595.568005 236.894046 
L 598.240016 237.390278 
L 600.912028 239.117165 
L 603.58404 242.590788 
L 611.600075 241.547709 
L 614.272087 235.571091 
L 616.944099 230.629614 
L 622.288122 218.45903 
L 630.304157 217.441755 
L 632.976169 222.619439 
L 635.648181 226.871154 
L 638.320192 228.184183 
L 640.992204 223.582129 
L 649.008239 217.300825 
L 651.680251 206.657643 
L 654.352263 199.020634 
L 657.024275 195.608543 
L 667.712322 197.604388 
L 673.056345 200.873564 
L 675.728357 198.887644 
L 678.400368 195.410051 
L 689.088415 193.053941 
L 691.760427 188.786347 
L 694.432439 184.278576 
L 697.104451 183.229542 
L 705.120486 186.985025 
L 707.792498 190.283975 
L 710.464509 191.486841 
L 713.136521 190.774252 
L 715.808533 191.131539 
L 723.824568 192.847509 
L 726.49658 191.224831 
L 731.840603 194.47118 
L 734.512615 199.447393 
L 742.52865 203.040112 
L 745.200662 202.47937 
L 747.872674 205.44783 
L 750.544685 206.555419 
L 753.216697 205.920242 
L 761.232732 204.923809 
L 763.904744 201.337045 
L 766.576756 200.538111 
L 769.248768 200.616516 
L 771.920779 203.845993 
L 779.936814 209.605261 
L 782.608826 215.571953 
L 787.95285 221.970367 
L 790.624861 226.396756 
L 798.640897 232.543084 
L 803.98492 240.121538 
L 806.656932 242.74462 
L 809.328944 243.499885 
L 817.344979 241.539769 
L 820.016991 240.144365 
L 825.361014 237.560981 
L 828.033026 237.282099 
L 836.049061 238.172339 
L 838.721073 238.984175 
L 841.393084 242.288087 
L 844.065096 246.91793 
L 846.737108 250.037244 
L 854.753143 250.558288 
L 857.425155 248.640847 
L 860.097167 246.968546 
L 862.769178 243.024495 
L 865.44119 241.851403 
L 873.457225 240.507606 
L 876.129237 241.585422 
L 881.47326 240.357744 
L 884.145272 243.405601 
L 892.161307 241.429605 
L 894.833319 238.580242 
L 897.505331 234.972636 
L 900.177343 234.880337 
L 902.849354 233.48394 
L 910.86539 233.068098 
L 916.209413 235.40932 
L 918.881425 238.835305 
L 921.553437 235.491694 
L 929.569472 226.178414 
L 932.241483 221.969375 
L 934.913495 216.709317 
L 937.585507 214.875243 
L 940.257519 218.953277 
L 940.257519 218.953277 
" clip-path="url(#peb843b52da)" style="fill: none; stroke: #ff7f0e; stroke-width: 1.5; stroke-linecap: square"/>
   </g>
   <g id="patch_3">
    <path d="M 45.267188 301.717812 
L 45.267188 48.331875 
" style="fill: none; stroke: #000000; stroke-width: 0.8; stroke-linejoin: miter; stroke-linecap: square"/>
   </g>
   <g id="patch_4">
    <path d="M 982.876106 301.717812 
L 982.876106 48.331875 
" style="fill: none; stroke: #000000; stroke-width: 0.8; stroke-linejoin: miter; stroke-linecap: square"/>
   </g>
   <g id="patch_5">
    <path d="M 45.267188 301.717812 
L 982.876106 301.717812 
" style="fill: none; stroke: #000000; stroke-width: 0.8; stroke-linejoin: miter; stroke-linecap: square"/>
   </g>
   <g id="patch_6">
    <path d="M 45.267188 48.331875 
L 982.876106 48.331875 
" style="fill: none; stroke: #000000; stroke-width: 0.8; stroke-linejoin: miter; stroke-linecap: square"/>
   </g>
   <g id="text_6">
    <!-- Closing Price -->
    <g transform="translate(475.595709 42.331875)scale(0.12 -0.12)">
     <defs>
      <path id="DejaVuSans-43" d="M 4122 4306 
L 4122 3641 
Q 3803 3938 3442 4084 
Q 3081 4231 2675 4231 
Q 1875 4231 1450 3742 
Q 1025 3253 1025 2328 
Q 1025 1406 1450 917 
Q 1875 428 2675 428 
Q 3081 428 3442 575 
Q 3803 722 4122 1019 
L 4122 359 
Q 3791 134 3420 21 
Q 3050 -91 2638 -91 
Q 1578 -91 968 557 
Q 359 1206 359 2328 
Q 359 3453 968 4101 
Q 1578 4750 2638 4750 
Q 3056 4750 3426 4639 
Q 3797 4528 4122 4306 
z
" transform="scale(0.015625)"/>
      <path id="DejaVuSans-6c" d="M 603 4863 
L 1178 4863 
L 1178 0 
L 603 0 
L 603 4863 
z
" transform="scale(0.015625)"/>
      <path id="DejaVuSans-6f" d="M 1959 3097 
Q 1497 3097 1228 2736 
Q 959 2375 959 1747 
Q 959 1119 1226 758 
Q 1494 397 1959 397 
Q 2419 397 2687 759 
Q 2956 1122 2956 1747 
Q 2956 2369 2687 2733 
Q 2419 3097 1959 3097 
z
M 1959 3584 
Q 2709 3584 3137 3096 
Q 3566 2609 3566 1747 
Q 3566 888 3137 398 
Q 2709 -91 1959 -91 
Q 1206 -91 779 398 
Q 353 888 353 1747 
Q 353 2609 779 3096 
Q 1206 3584 1959 3584 
z
" transform="scale(0.015625)"/>
      <path id="DejaVuSans-73" d="M 2834 3397 
L 2834 2853 
Q 2591 2978 2328 3040 
Q 2066 3103 1784 3103 
Q 1356 3103 1142 2972 
Q 928 2841 928 2578 
Q 928 2378 1081 2264 
Q 1234 2150 1697 2047 
L 1894 2003 
Q 2506 1872 2764 1633 
Q 3022 1394 3022 966 
Q 3022 478 2636 193 
Q 2250 -91 1575 -91 
Q 1294 -91 989 -36 
Q 684 19 347 128 
L 347 722 
Q 666 556 975 473 
Q 1284 391 1588 391 
Q 1994 391 2212 530 
Q 2431 669 2431 922 
Q 2431 1156 2273 1281 
Q 2116 1406 1581 1522 
L 1381 1569 
Q 847 1681 609 1914 
Q 372 2147 372 2553 
Q 372 3047 722 3315 
Q 1072 3584 1716 3584 
Q 2034 3584 2315 3537 
Q 2597 3491 2834 3397 
z
" transform="scale(0.015625)"/>
      <path id="DejaVuSans-69" d="M 603 3500 
L 1178 3500 
L 1178 0 
L 603 0 
L 603 3500 
z
M 603 4863 
L 1178 4863 
L 1178 4134 
L 603 4134 
L 603 4863 
z
" transform="scale(0.015625)"/>
      <path id="DejaVuSans-6e" d="M 3513 2113 
L 3513 0 
L 2938 0 
L 2938 2094 
Q 2938 2591 2744 2837 
Q 2550 3084 2163 3084 
Q 1697 3084 1428 2787 
Q 1159 2491 1159 1978 
L 1159 0 
L 581 0 
L 581 3500 
L 1159 3500 
L 1159 2956 
Q 1366 3272 1645 3428 
Q 1925 3584 2291 3584 
Q 2894 3584 3203 3211 
Q 3513 2838 3513 2113 
z
" transform="scale(0.015625)"/>
      <path id="DejaVuSans-67" d="M 2906 1791 
Q 2906 2416 2648 2759 
Q 2391 3103 1925 3103 
Q 1463 3103 1205 2759 
Q 947 2416 947 1791 
Q 947 1169 1205 825 
Q 1463 481 1925 481 
Q 2391 481 2648 825 
Q 2906 1169 2906 1791 
z
M 3481 434 
Q 3481 -459 3084 -895 
Q 2688 -1331 1869 -1331 
Q 1566 -1331 1297 -1286 
Q 1028 -1241 775 -1147 
L 775 -588 
Q 1028 -725 1275 -790 
Q 1522 -856 1778 -856 
Q 2344 -856 2625 -561 
Q 2906 -266 2906 331 
L 2906 616 
Q 2728 306 2450 153 
Q 2172 0 1784 0 
Q 1141 0 747 490 
Q 353 981 353 1791 
Q 353 2603 747 3093 
Q 1141 3584 1784 3584 
Q 2172 3584 2450 3431 
Q 2728 3278 2906 2969 
L 2906 3500 
L 3481 3500 
L 3481 434 
z
" transform="scale(0.015625)"/>
      <path id="DejaVuSans-20" transform="scale(0.015625)"/>
      <path id="DejaVuSans-50" d="M 1259 4147 
L 1259 2394 
L 2053 2394 
Q 2494 2394 2734 2622 
Q 2975 2850 2975 3272 
Q 2975 3691 2734 3919 
Q 2494 4147 2053 4147 
L 1259 4147 
z
M 628 4666 
L 2053 4666 
Q 2838 4666 3239 4311 
Q 3641 3956 3641 3272 
Q 3641 2581 3239 2228 
Q 2838 1875 2053 1875 
L 1259 1875 
L 1259 0 
L 628 0 
L 628 4666 
z
" transform="scale(0.015625)"/>
      <path id="DejaVuSans-72" d="M 2631 2963 
Q 2534 3019 2420 3045 
Q 2306 3072 2169 3072 
Q 1681 3072 1420 2755 
Q 1159 2438 1159 1844 
L 1159 0 
L 581 0 
L 581 3500 
L 1159 3500 
L 1159 2956 
Q 1341 3275 1631 3429 
Q 1922 3584 2338 3584 
Q 2397 3584 2469 3576 
Q 2541 3569 2628 3553 
L 2631 2963 
z
" transform="scale(0.015625)"/>
      <path id="DejaVuSans-63" d="M 3122 3366 
L 3122 2828 
Q 2878 2963 2633 3030 
Q 2388 3097 2138 3097 
Q 1578 3097 1268 2742 
Q 959 2388 959 1747 
Q 959 1106 1268 751 
Q 1578 397 2138 397 
Q 2388 397 2633 464 
Q 2878 531 3122 666 
L 3122 134 
Q 2881 22 2623 -34 
Q 2366 -91 2075 -91 
Q 1284 -91 818 406 
Q 353 903 353 1747 
Q 353 2603 823 3093 
Q 1294 3584 2113 3584 
Q 2378 3584 2631 3529 
Q 2884 3475 3122 3366 
z
" transform="scale(0.015625)"/>
      <path id="DejaVuSans-65" d="M 3597 1894 
L 3597 1613 
L 953 1613 
Q 991 1019 1311 708 
Q 1631 397 2203 397 
Q 2534 397 2845 478 
Q 3156 559 3463 722 
L 3463 178 
Q 3153 47 2828 -22 
Q 2503 -91 2169 -91 
Q 1331 -91 842 396 
Q 353 884 353 1716 
Q 353 2575 817 3079 
Q 1281 3584 2069 3584 
Q 2775 3584 3186 3129 
Q 3597 2675 3597 1894 
z
M 3022 2063 
Q 3016 2534 2758 2815 
Q 2500 3097 2075 3097 
Q 1594 3097 1305 2825 
Q 1016 2553 972 2059 
L 3022 2063 
z
" transform="scale(0.015625)"/>
     </defs>
     <use xlink:href="#DejaVuSans-43"/>
     <use xlink:href="#DejaVuSans-6c" x="69.824219"/>
     <use xlink:href="#DejaVuSans-6f" x="97.607422"/>
     <use xlink:href="#DejaVuSans-73" x="158.789062"/>
     <use xlink:href="#DejaVuSans-69" x="210.888672"/>
     <use xlink:href="#DejaVuSans-6e" x="238.671875"/>
     <use xlink:href="#DejaVuSans-67" x="302.050781"/>
     <use xlink:href="#DejaVuSans-20" x="365.527344"/>
     <use xlink:href="#DejaVuSans-50" x="397.314453"/>
     <use xlink:href="#DejaVuSans-72" x="455.867188"/>
     <use xlink:href="#DejaVuSans-69" x="496.980469"/>
     <use xlink:href="#DejaVuSans-63" x="524.763672"/>
     <use xlink:href="#DejaVuSans-65" x="579.744141"/>
    </g>
   </g>
   <g id="legend_1">
    <g id="patch_7">
     <path d="M 911.144856 85.688125 
L 975.876106 85.688125 
Q 977.876106 85.688125 977.876106 83.688125 
L 977.876106 55.331875 
Q 977.876106 53.331875 975.876106 53.331875 
L 911.144856 53.331875 
Q 909.144856 53.331875 909.144856 55.331875 
L 909.144856 83.688125 
Q 909.144856 85.688125 911.144856 85.688125 
z
" style="fill: #ffffff; opacity: 0.8; stroke: #cccccc; stroke-linejoin: miter"/>
    </g>
    <g id="line2d_37">
     <path d="M 913.144856 61.430312 
L 923.144856 61.430312 
L 933.144856 61.430312 
" style="fill: none; stroke: #1f77b4; stroke-width: 1.5; stroke-linecap: square"/>
    </g>
    <g id="text_7">
     <!-- CLOSE -->
     <g transform="translate(941.144856 64.930312)scale(0.1 -0.1)">
      <defs>
       <path id="DejaVuSans-4c" d="M 628 4666 
L 1259 4666 
L 1259 531 
L 3531 531 
L 3531 0 
L 628 0 
L 628 4666 
z
" transform="scale(0.015625)"/>
       <path id="DejaVuSans-4f" d="M 2522 4238 
Q 1834 4238 1429 3725 
Q 1025 3213 1025 2328 
Q 1025 1447 1429 934 
Q 1834 422 2522 422 
Q 3209 422 3611 934 
Q 4013 1447 4013 2328 
Q 4013 3213 3611 3725 
Q 3209 4238 2522 4238 
z
M 2522 4750 
Q 3503 4750 4090 4092 
Q 4678 3434 4678 2328 
Q 4678 1225 4090 567 
Q 3503 -91 2522 -91 
Q 1538 -91 948 565 
Q 359 1222 359 2328 
Q 359 3434 948 4092 
Q 1538 4750 2522 4750 
z
" transform="scale(0.015625)"/>
       <path id="DejaVuSans-53" d="M 3425 4513 
L 3425 3897 
Q 3066 4069 2747 4153 
Q 2428 4238 2131 4238 
Q 1616 4238 1336 4038 
Q 1056 3838 1056 3469 
Q 1056 3159 1242 3001 
Q 1428 2844 1947 2747 
L 2328 2669 
Q 3034 2534 3370 2195 
Q 3706 1856 3706 1288 
Q 3706 609 3251 259 
Q 2797 -91 1919 -91 
Q 1588 -91 1214 -16 
Q 841 59 441 206 
L 441 856 
Q 825 641 1194 531 
Q 1563 422 1919 422 
Q 2459 422 2753 634 
Q 3047 847 3047 1241 
Q 3047 1584 2836 1778 
Q 2625 1972 2144 2069 
L 1759 2144 
Q 1053 2284 737 2584 
Q 422 2884 422 3419 
Q 422 4038 858 4394 
Q 1294 4750 2059 4750 
Q 2388 4750 2728 4690 
Q 3069 4631 3425 4513 
z
" transform="scale(0.015625)"/>
       <path id="DejaVuSans-45" d="M 628 4666 
L 3578 4666 
L 3578 4134 
L 1259 4134 
L 1259 2753 
L 3481 2753 
L 3481 2222 
L 1259 2222 
L 1259 531 
L 3634 531 
L 3634 0 
L 628 0 
L 628 4666 
z
" transform="scale(0.015625)"/>
      </defs>
      <use xlink:href="#DejaVuSans-43"/>
      <use xlink:href="#DejaVuSans-4c" x="69.824219"/>
      <use xlink:href="#DejaVuSans-4f" x="121.912109"/>
      <use xlink:href="#DejaVuSans-53" x="200.623047"/>
      <use xlink:href="#DejaVuSans-45" x="264.099609"/>
     </g>
    </g>
    <g id="line2d_38">
     <path d="M 913.144856 76.108437 
L 923.144856 76.108437 
L 933.144856 76.108437 
" style="fill: none; stroke: #ff7f0e; stroke-width: 1.5; stroke-linecap: square"/>
    </g>
    <g id="text_8">
     <!-- SMA5 -->
     <g transform="translate(941.144856 79.608437)scale(0.1 -0.1)">
      <defs>
       <path id="DejaVuSans-4d" d="M 628 4666 
L 1569 4666 
L 2759 1491 
L 3956 4666 
L 4897 4666 
L 4897 0 
L 4281 0 
L 4281 4097 
L 3078 897 
L 2444 897 
L 1241 4097 
L 1241 0 
L 628 0 
L 628 4666 
z
" transform="scale(0.015625)"/>
       <path id="DejaVuSans-41" d="M 2188 4044 
L 1331 1722 
L 3047 1722 
L 2188 4044 
z
M 1831 4666 
L 2547 4666 
L 4325 0 
L 3669 0 
L 3244 1197 
L 1141 1197 
L 716 0 
L 50 0 
L 1831 4666 
z
" transform="scale(0.015625)"/>
      </defs>
      <use xlink:href="#DejaVuSans-53"/>
      <use xlink:href="#DejaVuSans-4d" x="63.476562"/>
      <use xlink:href="#DejaVuSans-41" x="149.755859"/>
      <use xlink:href="#DejaVuSans-35" x="218.164062"/>
     </g>
    </g>
   </g>
  </g>
  <g id="axes_2">
   <g id="patch_8">
    <path d="M 45.267188 584.521875 
L 982.876106 584.521875 
L 982.876106 331.135938 
L 45.267188 331.135938 
z
" style="fill: #ffffff"/>
   </g>
   <g id="matplotlib.axis_3">
    <g id="xtick_13">
     <g id="line2d_39">
      <path d="M 82.541751 584.521875 
L 82.541751 331.135938 
" clip-path="url(#pcf8ea754a3)" style="fill: none; stroke-dasharray: 2.96,1.28; stroke-dashoffset: 0; stroke: #b0b0b0; stroke-width: 0.8"/>
     </g>
     <g id="line2d_40">
      <g>
       <use xlink:href="#m587b74ad3b" x="82.541751" y="584.521875" style="stroke: #000000; stroke-width: 0.8"/>
      </g>
     </g>
     <g id="text_9">
      <!-- 2022-01 -->
      <g transform="translate(61.650345 599.120312)scale(0.1 -0.1)">
       <defs>
        <path id="DejaVuSans-32" d="M 1228 531 
L 3431 531 
L 3431 0 
L 469 0 
L 469 531 
Q 828 903 1448 1529 
Q 2069 2156 2228 2338 
Q 2531 2678 2651 2914 
Q 2772 3150 2772 3378 
Q 2772 3750 2511 3984 
Q 2250 4219 1831 4219 
Q 1534 4219 1204 4116 
Q 875 4013 500 3803 
L 500 4441 
Q 881 4594 1212 4672 
Q 1544 4750 1819 4750 
Q 2544 4750 2975 4387 
Q 3406 4025 3406 3419 
Q 3406 3131 3298 2873 
Q 3191 2616 2906 2266 
Q 2828 2175 2409 1742 
Q 1991 1309 1228 531 
z
" transform="scale(0.015625)"/>
        <path id="DejaVuSans-2d" d="M 313 2009 
L 1997 2009 
L 1997 1497 
L 313 1497 
L 313 2009 
z
" transform="scale(0.015625)"/>
        <path id="DejaVuSans-31" d="M 794 531 
L 1825 531 
L 1825 4091 
L 703 3866 
L 703 4441 
L 1819 4666 
L 2450 4666 
L 2450 531 
L 3481 531 
L 3481 0 
L 794 0 
L 794 531 
z
" transform="scale(0.015625)"/>
       </defs>
       <use xlink:href="#DejaVuSans-32"/>
       <use xlink:href="#DejaVuSans-30" x="63.623047"/>
       <use xlink:href="#DejaVuSans-32" x="127.246094"/>
       <use xlink:href="#DejaVuSans-32" x="190.869141"/>
       <use xlink:href="#DejaVuSans-2d" x="254.492188"/>
       <use xlink:href="#DejaVuSans-30" x="290.576172"/>
       <use xlink:href="#DejaVuSans-31" x="354.199219"/>
      </g>
     </g>
    </g>
    <g id="xtick_14">
     <g id="line2d_41">
      <path d="M 165.374115 584.521875 
L 165.374115 331.135938 
" clip-path="url(#pcf8ea754a3)" style="fill: none; stroke-dasharray: 2.96,1.28; stroke-dashoffset: 0; stroke: #b0b0b0; stroke-width: 0.8"/>
     </g>
     <g id="line2d_42">
      <g>
       <use xlink:href="#m587b74ad3b" x="165.374115" y="584.521875" style="stroke: #000000; stroke-width: 0.8"/>
      </g>
     </g>
     <g id="text_10">
      <!-- 2022-02 -->
      <g transform="translate(144.482709 599.120312)scale(0.1 -0.1)">
       <use xlink:href="#DejaVuSans-32"/>
       <use xlink:href="#DejaVuSans-30" x="63.623047"/>
       <use xlink:href="#DejaVuSans-32" x="127.246094"/>
       <use xlink:href="#DejaVuSans-32" x="190.869141"/>
       <use xlink:href="#DejaVuSans-2d" x="254.492188"/>
       <use xlink:href="#DejaVuSans-30" x="290.576172"/>
       <use xlink:href="#DejaVuSans-32" x="354.199219"/>
      </g>
     </g>
    </g>
    <g id="xtick_15">
     <g id="line2d_43">
      <path d="M 240.190444 584.521875 
L 240.190444 331.135938 
" clip-path="url(#pcf8ea754a3)" style="fill: none; stroke-dasharray: 2.96,1.28; stroke-dashoffset: 0; stroke: #b0b0b0; stroke-width: 0.8"/>
     </g>
     <g id="line2d_44">
      <g>
       <use xlink:href="#m587b74ad3b" x="240.190444" y="584.521875" style="stroke: #000000; stroke-width: 0.8"/>
      </g>
     </g>
     <g id="text_11">
      <!-- 2022-03 -->
      <g transform="translate(219.299037 599.120312)scale(0.1 -0.1)">
       <use xlink:href="#DejaVuSans-32"/>
       <use xlink:href="#DejaVuSans-30" x="63.623047"/>
       <use xlink:href="#DejaVuSans-32" x="127.246094"/>
       <use xlink:href="#DejaVuSans-32" x="190.869141"/>
       <use xlink:href="#DejaVuSans-2d" x="254.492188"/>
       <use xlink:href="#DejaVuSans-30" x="290.576172"/>
       <use xlink:href="#DejaVuSans-33" x="354.199219"/>
      </g>
     </g>
    </g>
    <g id="xtick_16">
     <g id="line2d_45">
      <path d="M 323.022808 584.521875 
L 323.022808 331.135938 
" clip-path="url(#pcf8ea754a3)" style="fill: none; stroke-dasharray: 2.96,1.28; stroke-dashoffset: 0; stroke: #b0b0b0; stroke-width: 0.8"/>
     </g>
     <g id="line2d_46">
      <g>
       <use xlink:href="#m587b74ad3b" x="323.022808" y="584.521875" style="stroke: #000000; stroke-width: 0.8"/>
      </g>
     </g>
     <g id="text_12">
      <!-- 2022-04 -->
      <g transform="translate(302.131401 599.120312)scale(0.1 -0.1)">
       <use xlink:href="#DejaVuSans-32"/>
       <use xlink:href="#DejaVuSans-30" x="63.623047"/>
       <use xlink:href="#DejaVuSans-32" x="127.246094"/>
       <use xlink:href="#DejaVuSans-32" x="190.869141"/>
       <use xlink:href="#DejaVuSans-2d" x="254.492188"/>
       <use xlink:href="#DejaVuSans-30" x="290.576172"/>
       <use xlink:href="#DejaVuSans-34" x="354.199219"/>
      </g>
     </g>
    </g>
    <g id="xtick_17">
     <g id="line2d_47">
      <path d="M 403.18316 584.521875 
L 403.18316 331.135938 
" clip-path="url(#pcf8ea754a3)" style="fill: none; stroke-dasharray: 2.96,1.28; stroke-dashoffset: 0; stroke: #b0b0b0; stroke-width: 0.8"/>
     </g>
     <g id="line2d_48">
      <g>
       <use xlink:href="#m587b74ad3b" x="403.18316" y="584.521875" style="stroke: #000000; stroke-width: 0.8"/>
      </g>
     </g>
     <g id="text_13">
      <!-- 2022-05 -->
      <g transform="translate(382.291753 599.120312)scale(0.1 -0.1)">
       <use xlink:href="#DejaVuSans-32"/>
       <use xlink:href="#DejaVuSans-30" x="63.623047"/>
       <use xlink:href="#DejaVuSans-32" x="127.246094"/>
       <use xlink:href="#DejaVuSans-32" x="190.869141"/>
       <use xlink:href="#DejaVuSans-2d" x="254.492188"/>
       <use xlink:href="#DejaVuSans-30" x="290.576172"/>
       <use xlink:href="#DejaVuSans-35" x="354.199219"/>
      </g>
     </g>
    </g>
    <g id="xtick_18">
     <g id="line2d_49">
      <path d="M 486.015523 584.521875 
L 486.015523 331.135938 
" clip-path="url(#pcf8ea754a3)" style="fill: none; stroke-dasharray: 2.96,1.28; stroke-dashoffset: 0; stroke: #b0b0b0; stroke-width: 0.8"/>
     </g>
     <g id="line2d_50">
      <g>
       <use xlink:href="#m587b74ad3b" x="486.015523" y="584.521875" style="stroke: #000000; stroke-width: 0.8"/>
      </g>
     </g>
     <g id="text_14">
      <!-- 2022-06 -->
      <g transform="translate(465.124117 599.120312)scale(0.1 -0.1)">
       <defs>
        <path id="DejaVuSans-36" d="M 2113 2584 
Q 1688 2584 1439 2293 
Q 1191 2003 1191 1497 
Q 1191 994 1439 701 
Q 1688 409 2113 409 
Q 2538 409 2786 701 
Q 3034 994 3034 1497 
Q 3034 2003 2786 2293 
Q 2538 2584 2113 2584 
z
M 3366 4563 
L 3366 3988 
Q 3128 4100 2886 4159 
Q 2644 4219 2406 4219 
Q 1781 4219 1451 3797 
Q 1122 3375 1075 2522 
Q 1259 2794 1537 2939 
Q 1816 3084 2150 3084 
Q 2853 3084 3261 2657 
Q 3669 2231 3669 1497 
Q 3669 778 3244 343 
Q 2819 -91 2113 -91 
Q 1303 -91 875 529 
Q 447 1150 447 2328 
Q 447 3434 972 4092 
Q 1497 4750 2381 4750 
Q 2619 4750 2861 4703 
Q 3103 4656 3366 4563 
z
" transform="scale(0.015625)"/>
       </defs>
       <use xlink:href="#DejaVuSans-32"/>
       <use xlink:href="#DejaVuSans-30" x="63.623047"/>
       <use xlink:href="#DejaVuSans-32" x="127.246094"/>
       <use xlink:href="#DejaVuSans-32" x="190.869141"/>
       <use xlink:href="#DejaVuSans-2d" x="254.492188"/>
       <use xlink:href="#DejaVuSans-30" x="290.576172"/>
       <use xlink:href="#DejaVuSans-36" x="354.199219"/>
      </g>
     </g>
    </g>
    <g id="xtick_19">
     <g id="line2d_51">
      <path d="M 566.175876 584.521875 
L 566.175876 331.135938 
" clip-path="url(#pcf8ea754a3)" style="fill: none; stroke-dasharray: 2.96,1.28; stroke-dashoffset: 0; stroke: #b0b0b0; stroke-width: 0.8"/>
     </g>
     <g id="line2d_52">
      <g>
       <use xlink:href="#m587b74ad3b" x="566.175876" y="584.521875" style="stroke: #000000; stroke-width: 0.8"/>
      </g>
     </g>
     <g id="text_15">
      <!-- 2022-07 -->
      <g transform="translate(545.284469 599.120312)scale(0.1 -0.1)">
       <defs>
        <path id="DejaVuSans-37" d="M 525 4666 
L 3525 4666 
L 3525 4397 
L 1831 0 
L 1172 0 
L 2766 4134 
L 525 4134 
L 525 4666 
z
" transform="scale(0.015625)"/>
       </defs>
       <use xlink:href="#DejaVuSans-32"/>
       <use xlink:href="#DejaVuSans-30" x="63.623047"/>
       <use xlink:href="#DejaVuSans-32" x="127.246094"/>
       <use xlink:href="#DejaVuSans-32" x="190.869141"/>
       <use xlink:href="#DejaVuSans-2d" x="254.492188"/>
       <use xlink:href="#DejaVuSans-30" x="290.576172"/>
       <use xlink:href="#DejaVuSans-37" x="354.199219"/>
      </g>
     </g>
    </g>
    <g id="xtick_20">
     <g id="line2d_53">
      <path d="M 649.008239 584.521875 
L 649.008239 331.135938 
" clip-path="url(#pcf8ea754a3)" style="fill: none; stroke-dasharray: 2.96,1.28; stroke-dashoffset: 0; stroke: #b0b0b0; stroke-width: 0.8"/>
     </g>
     <g id="line2d_54">
      <g>
       <use xlink:href="#m587b74ad3b" x="649.008239" y="584.521875" style="stroke: #000000; stroke-width: 0.8"/>
      </g>
     </g>
     <g id="text_16">
      <!-- 2022-08 -->
      <g transform="translate(628.116833 599.120312)scale(0.1 -0.1)">
       <defs>
        <path id="DejaVuSans-38" d="M 2034 2216 
Q 1584 2216 1326 1975 
Q 1069 1734 1069 1313 
Q 1069 891 1326 650 
Q 1584 409 2034 409 
Q 2484 409 2743 651 
Q 3003 894 3003 1313 
Q 3003 1734 2745 1975 
Q 2488 2216 2034 2216 
z
M 1403 2484 
Q 997 2584 770 2862 
Q 544 3141 544 3541 
Q 544 4100 942 4425 
Q 1341 4750 2034 4750 
Q 2731 4750 3128 4425 
Q 3525 4100 3525 3541 
Q 3525 3141 3298 2862 
Q 3072 2584 2669 2484 
Q 3125 2378 3379 2068 
Q 3634 1759 3634 1313 
Q 3634 634 3220 271 
Q 2806 -91 2034 -91 
Q 1263 -91 848 271 
Q 434 634 434 1313 
Q 434 1759 690 2068 
Q 947 2378 1403 2484 
z
M 1172 3481 
Q 1172 3119 1398 2916 
Q 1625 2713 2034 2713 
Q 2441 2713 2670 2916 
Q 2900 3119 2900 3481 
Q 2900 3844 2670 4047 
Q 2441 4250 2034 4250 
Q 1625 4250 1398 4047 
Q 1172 3844 1172 3481 
z
" transform="scale(0.015625)"/>
       </defs>
       <use xlink:href="#DejaVuSans-32"/>
       <use xlink:href="#DejaVuSans-30" x="63.623047"/>
       <use xlink:href="#DejaVuSans-32" x="127.246094"/>
       <use xlink:href="#DejaVuSans-32" x="190.869141"/>
       <use xlink:href="#DejaVuSans-2d" x="254.492188"/>
       <use xlink:href="#DejaVuSans-30" x="290.576172"/>
       <use xlink:href="#DejaVuSans-38" x="354.199219"/>
      </g>
     </g>
    </g>
    <g id="xtick_21">
     <g id="line2d_55">
      <path d="M 731.840603 584.521875 
L 731.840603 331.135938 
" clip-path="url(#pcf8ea754a3)" style="fill: none; stroke-dasharray: 2.96,1.28; stroke-dashoffset: 0; stroke: #b0b0b0; stroke-width: 0.8"/>
     </g>
     <g id="line2d_56">
      <g>
       <use xlink:href="#m587b74ad3b" x="731.840603" y="584.521875" style="stroke: #000000; stroke-width: 0.8"/>
      </g>
     </g>
     <g id="text_17">
      <!-- 2022-09 -->
      <g transform="translate(710.949197 599.120312)scale(0.1 -0.1)">
       <defs>
        <path id="DejaVuSans-39" d="M 703 97 
L 703 672 
Q 941 559 1184 500 
Q 1428 441 1663 441 
Q 2288 441 2617 861 
Q 2947 1281 2994 2138 
Q 2813 1869 2534 1725 
Q 2256 1581 1919 1581 
Q 1219 1581 811 2004 
Q 403 2428 403 3163 
Q 403 3881 828 4315 
Q 1253 4750 1959 4750 
Q 2769 4750 3195 4129 
Q 3622 3509 3622 2328 
Q 3622 1225 3098 567 
Q 2575 -91 1691 -91 
Q 1453 -91 1209 -44 
Q 966 3 703 97 
z
M 1959 2075 
Q 2384 2075 2632 2365 
Q 2881 2656 2881 3163 
Q 2881 3666 2632 3958 
Q 2384 4250 1959 4250 
Q 1534 4250 1286 3958 
Q 1038 3666 1038 3163 
Q 1038 2656 1286 2365 
Q 1534 2075 1959 2075 
z
" transform="scale(0.015625)"/>
       </defs>
       <use xlink:href="#DejaVuSans-32"/>
       <use xlink:href="#DejaVuSans-30" x="63.623047"/>
       <use xlink:href="#DejaVuSans-32" x="127.246094"/>
       <use xlink:href="#DejaVuSans-32" x="190.869141"/>
       <use xlink:href="#DejaVuSans-2d" x="254.492188"/>
       <use xlink:href="#DejaVuSans-30" x="290.576172"/>
       <use xlink:href="#DejaVuSans-39" x="354.199219"/>
      </g>
     </g>
    </g>
    <g id="xtick_22">
     <g id="line2d_57">
      <path d="M 812.000955 584.521875 
L 812.000955 331.135938 
" clip-path="url(#pcf8ea754a3)" style="fill: none; stroke-dasharray: 2.96,1.28; stroke-dashoffset: 0; stroke: #b0b0b0; stroke-width: 0.8"/>
     </g>
     <g id="line2d_58">
      <g>
       <use xlink:href="#m587b74ad3b" x="812.000955" y="584.521875" style="stroke: #000000; stroke-width: 0.8"/>
      </g>
     </g>
     <g id="text_18">
      <!-- 2022-10 -->
      <g transform="translate(791.109549 599.120312)scale(0.1 -0.1)">
       <use xlink:href="#DejaVuSans-32"/>
       <use xlink:href="#DejaVuSans-30" x="63.623047"/>
       <use xlink:href="#DejaVuSans-32" x="127.246094"/>
       <use xlink:href="#DejaVuSans-32" x="190.869141"/>
       <use xlink:href="#DejaVuSans-2d" x="254.492188"/>
       <use xlink:href="#DejaVuSans-31" x="290.576172"/>
       <use xlink:href="#DejaVuSans-30" x="354.199219"/>
      </g>
     </g>
    </g>
    <g id="xtick_23">
     <g id="line2d_59">
      <path d="M 894.833319 584.521875 
L 894.833319 331.135938 
" clip-path="url(#pcf8ea754a3)" style="fill: none; stroke-dasharray: 2.96,1.28; stroke-dashoffset: 0; stroke: #b0b0b0; stroke-width: 0.8"/>
     </g>
     <g id="line2d_60">
      <g>
       <use xlink:href="#m587b74ad3b" x="894.833319" y="584.521875" style="stroke: #000000; stroke-width: 0.8"/>
      </g>
     </g>
     <g id="text_19">
      <!-- 2022-11 -->
      <g transform="translate(873.941913 599.120312)scale(0.1 -0.1)">
       <use xlink:href="#DejaVuSans-32"/>
       <use xlink:href="#DejaVuSans-30" x="63.623047"/>
       <use xlink:href="#DejaVuSans-32" x="127.246094"/>
       <use xlink:href="#DejaVuSans-32" x="190.869141"/>
       <use xlink:href="#DejaVuSans-2d" x="254.492188"/>
       <use xlink:href="#DejaVuSans-31" x="290.576172"/>
       <use xlink:href="#DejaVuSans-31" x="354.199219"/>
      </g>
     </g>
    </g>
    <g id="xtick_24">
     <g id="line2d_61">
      <path d="M 974.993671 584.521875 
L 974.993671 331.135938 
" clip-path="url(#pcf8ea754a3)" style="fill: none; stroke-dasharray: 2.96,1.28; stroke-dashoffset: 0; stroke: #b0b0b0; stroke-width: 0.8"/>
     </g>
     <g id="line2d_62">
      <g>
       <use xlink:href="#m587b74ad3b" x="974.993671" y="584.521875" style="stroke: #000000; stroke-width: 0.8"/>
      </g>
     </g>
     <g id="text_20">
      <!-- 2022-12 -->
      <g transform="translate(954.102265 599.120312)scale(0.1 -0.1)">
       <use xlink:href="#DejaVuSans-32"/>
       <use xlink:href="#DejaVuSans-30" x="63.623047"/>
       <use xlink:href="#DejaVuSans-32" x="127.246094"/>
       <use xlink:href="#DejaVuSans-32" x="190.869141"/>
       <use xlink:href="#DejaVuSans-2d" x="254.492188"/>
       <use xlink:href="#DejaVuSans-31" x="290.576172"/>
       <use xlink:href="#DejaVuSans-32" x="354.199219"/>
      </g>
     </g>
    </g>
   </g>
   <g id="matplotlib.axis_4">
    <g id="ytick_6">
     <g id="line2d_63">
      <path d="M 45.267188 574.784025 
L 982.876106 574.784025 
" clip-path="url(#pcf8ea754a3)" style="fill: none; stroke-dasharray: 2.96,1.28; stroke-dashoffset: 0; stroke: #b0b0b0; stroke-width: 0.8"/>
     </g>
     <g id="line2d_64">
      <g>
       <use xlink:href="#mc83c8e4a02" x="45.267188" y="574.784025" style="stroke: #000000; stroke-width: 0.8"/>
      </g>
     </g>
     <g id="text_21">
      <!-- −300 -->
      <g transform="translate(10.8 578.583244)scale(0.1 -0.1)">
       <defs>
        <path id="DejaVuSans-2212" d="M 678 2272 
L 4684 2272 
L 4684 1741 
L 678 1741 
L 678 2272 
z
" transform="scale(0.015625)"/>
       </defs>
       <use xlink:href="#DejaVuSans-2212"/>
       <use xlink:href="#DejaVuSans-33" x="83.789062"/>
       <use xlink:href="#DejaVuSans-30" x="147.412109"/>
       <use xlink:href="#DejaVuSans-30" x="211.035156"/>
      </g>
     </g>
    </g>
    <g id="ytick_7">
     <g id="line2d_65">
      <path d="M 45.267188 521.493042 
L 982.876106 521.493042 
" clip-path="url(#pcf8ea754a3)" style="fill: none; stroke-dasharray: 2.96,1.28; stroke-dashoffset: 0; stroke: #b0b0b0; stroke-width: 0.8"/>
     </g>
     <g id="line2d_66">
      <g>
       <use xlink:href="#mc83c8e4a02" x="45.267188" y="521.493042" style="stroke: #000000; stroke-width: 0.8"/>
      </g>
     </g>
     <g id="text_22">
      <!-- −200 -->
      <g transform="translate(10.8 525.292261)scale(0.1 -0.1)">
       <use xlink:href="#DejaVuSans-2212"/>
       <use xlink:href="#DejaVuSans-32" x="83.789062"/>
       <use xlink:href="#DejaVuSans-30" x="147.412109"/>
       <use xlink:href="#DejaVuSans-30" x="211.035156"/>
      </g>
     </g>
    </g>
    <g id="ytick_8">
     <g id="line2d_67">
      <path d="M 45.267188 468.202058 
L 982.876106 468.202058 
" clip-path="url(#pcf8ea754a3)" style="fill: none; stroke-dasharray: 2.96,1.28; stroke-dashoffset: 0; stroke: #b0b0b0; stroke-width: 0.8"/>
     </g>
     <g id="line2d_68">
      <g>
       <use xlink:href="#mc83c8e4a02" x="45.267188" y="468.202058" style="stroke: #000000; stroke-width: 0.8"/>
      </g>
     </g>
     <g id="text_23">
      <!-- −100 -->
      <g transform="translate(10.8 472.001277)scale(0.1 -0.1)">
       <use xlink:href="#DejaVuSans-2212"/>
       <use xlink:href="#DejaVuSans-31" x="83.789062"/>
       <use xlink:href="#DejaVuSans-30" x="147.412109"/>
       <use xlink:href="#DejaVuSans-30" x="211.035156"/>
      </g>
     </g>
    </g>
    <g id="ytick_9">
     <g id="line2d_69">
      <path d="M 45.267188 414.911075 
L 982.876106 414.911075 
" clip-path="url(#pcf8ea754a3)" style="fill: none; stroke-dasharray: 2.96,1.28; stroke-dashoffset: 0; stroke: #b0b0b0; stroke-width: 0.8"/>
     </g>
     <g id="line2d_70">
      <g>
       <use xlink:href="#mc83c8e4a02" x="45.267188" y="414.911075" style="stroke: #000000; stroke-width: 0.8"/>
      </g>
     </g>
     <g id="text_24">
      <!-- 0 -->
      <g transform="translate(31.904688 418.710294)scale(0.1 -0.1)">
       <use xlink:href="#DejaVuSans-30"/>
      </g>
     </g>
    </g>
    <g id="ytick_10">
     <g id="line2d_71">
      <path d="M 45.267188 361.620091 
L 982.876106 361.620091 
" clip-path="url(#pcf8ea754a3)" style="fill: none; stroke-dasharray: 2.96,1.28; stroke-dashoffset: 0; stroke: #b0b0b0; stroke-width: 0.8"/>
     </g>
     <g id="line2d_72">
      <g>
       <use xlink:href="#mc83c8e4a02" x="45.267188" y="361.620091" style="stroke: #000000; stroke-width: 0.8"/>
      </g>
     </g>
     <g id="text_25">
      <!-- 100 -->
      <g transform="translate(19.179688 365.41931)scale(0.1 -0.1)">
       <use xlink:href="#DejaVuSans-31"/>
       <use xlink:href="#DejaVuSans-30" x="63.623047"/>
       <use xlink:href="#DejaVuSans-30" x="127.246094"/>
      </g>
     </g>
    </g>
   </g>
   <g id="line2d_73">
    <path d="M 87.885775 414.911075 
L 90.557786 415.195635 
L 93.229798 415.128237 
L 95.90181 415.988868 
L 98.573822 415.091511 
L 106.589857 416.31472 
L 109.261869 415.118312 
L 111.93388 414.44328 
L 114.605892 415.100023 
L 117.277904 412.668565 
L 125.293939 412.189372 
L 127.965951 420.85904 
L 130.637962 437.106193 
L 133.309974 449.300344 
L 135.981986 465.764494 
L 143.998021 485.827702 
L 146.670033 499.918837 
L 152.014056 513.8483 
L 154.686068 522.941314 
L 162.702103 511.461517 
L 165.374115 497.928414 
L 168.046127 482.356375 
L 170.718139 473.810044 
L 173.39015 471.994467 
L 184.078197 471.608215 
L 186.750209 465.66339 
L 189.422221 461.373887 
L 192.094232 468.736765 
L 200.110268 477.120882 
L 202.782279 476.27769 
L 208.126303 481.528902 
L 210.798315 487.567134 
L 218.81435 490.853653 
L 221.486362 491.822672 
L 224.158373 493.668345 
L 226.830385 499.519901 
L 229.502397 496.218847 
L 237.518432 492.55317 
L 242.862455 484.126898 
L 245.534467 475.886624 
L 248.206479 478.982758 
L 256.222514 482.812433 
L 258.894526 480.980092 
L 261.566538 471.441693 
L 264.238549 461.142556 
L 266.910561 452.603931 
L 274.926596 449.159147 
L 277.598608 449.586597 
L 280.27062 448.181267 
L 282.942631 442.347895 
L 293.630678 434.768453 
L 296.30269 423.688544 
L 298.974702 420.537387 
L 301.646714 422.047502 
L 304.318725 424.604955 
L 312.334761 430.816871 
L 315.006772 431.246202 
L 317.678784 426.103567 
L 320.350796 426.579496 
L 323.022808 423.0528 
L 331.038843 416.550891 
L 333.710854 408.88821 
L 336.382866 403.659414 
L 339.054878 395.92137 
L 341.72689 388.718532 
L 349.742925 381.98059 
L 352.414937 381.148271 
L 355.086948 382.280257 
L 368.447007 387.235822 
L 371.119019 393.746429 
L 373.791031 397.770785 
L 376.463042 401.585232 
L 379.135054 403.708255 
L 387.151089 412.011506 
L 389.823101 416.995568 
L 392.495113 423.366263 
L 395.167124 420.50435 
L 397.839136 418.707539 
L 405.855171 422.399519 
L 411.199195 438.135888 
L 413.871207 454.338338 
L 416.543218 476.339996 
L 424.559254 496.161108 
L 427.231265 515.7169 
L 429.903277 531.326515 
L 432.575289 547.779522 
L 435.2473 562.298216 
L 443.263336 568.523243 
L 448.607359 566.813567 
L 451.279371 573.004332 
L 453.951383 572.320659 
L 461.967418 568.695208 
L 464.63943 564.864727 
L 467.311441 565.559202 
L 469.983453 556.973929 
L 472.655465 542.526703 
L 480.6715 525.00042 
L 483.343512 494.74819 
L 486.015523 473.710442 
L 488.687535 463.240498 
L 491.359547 458.475244 
L 499.375582 459.232586 
L 502.047594 463.105459 
L 504.719606 462.426318 
L 507.391617 457.808088 
L 510.063629 457.940564 
L 518.079664 460.395302 
L 520.751676 462.07432 
L 523.423688 461.315772 
L 528.767711 461.797155 
L 536.783746 461.54603 
L 539.455758 457.447084 
L 542.12777 454.955973 
L 544.799782 447.863637 
L 547.471793 435.013395 
L 555.487829 424.455043 
L 558.15984 416.654306 
L 560.831852 416.148694 
L 563.503864 416.629004 
L 566.175876 418.358761 
L 574.191911 415.436575 
L 576.863922 413.187886 
L 579.535934 407.962112 
L 582.207946 403.096853 
L 584.879958 397.226194 
L 592.895993 395.289519 
L 595.568005 397.92581 
L 598.240016 397.899942 
L 600.912028 399.858952 
L 603.58404 403.112688 
L 611.600075 398.584525 
L 614.272087 388.587036 
L 616.944099 380.986222 
L 619.61611 374.512308 
L 622.288122 371.930415 
L 630.304157 373.798214 
L 632.976169 382.361761 
L 635.648181 387.390887 
L 638.320192 384.445523 
L 640.992204 371.846782 
L 649.008239 362.271188 
L 651.680251 352.658765 
L 654.352263 350.224214 
L 657.024275 350.9032 
L 659.696286 349.954036 
L 667.712322 351.78924 
L 673.056345 355.083585 
L 678.400368 348.031883 
L 689.088415 346.284789 
L 691.760427 343.442839 
L 694.432439 342.65348 
L 697.104451 343.398377 
L 705.120486 353.741285 
L 707.792498 361.755339 
L 710.464509 361.895526 
L 713.136521 359.129986 
L 715.808533 360.43018 
L 723.824568 373.923959 
L 726.49658 377.026257 
L 731.840603 383.572165 
L 734.512615 389.283173 
L 742.52865 393.917881 
L 745.200662 400.747082 
L 747.872674 405.880659 
L 750.544685 409.703773 
L 753.216697 409.251254 
L 761.232732 408.055727 
L 763.904744 404.608248 
L 766.576756 407.617 
L 769.248768 411.634575 
L 771.920779 418.061072 
L 779.936814 427.572751 
L 782.608826 432.735935 
L 785.280838 436.310211 
L 787.95285 440.309963 
L 790.624861 449.090927 
L 798.640897 463.777263 
L 801.312908 467.444587 
L 803.98492 469.6299 
L 806.656932 469.57491 
L 809.328944 470.845266 
L 817.344979 473.583766 
L 820.016991 468.98794 
L 825.361014 462.137385 
L 828.033026 460.023958 
L 836.049061 462.294339 
L 838.721073 465.745861 
L 841.393084 467.135285 
L 844.065096 467.834897 
L 846.737108 468.336804 
L 854.753143 466.996772 
L 857.425155 462.343518 
L 860.097167 457.946835 
L 862.769178 449.352464 
L 865.44119 448.717966 
L 873.457225 446.345567 
L 876.129237 446.305202 
L 881.47326 440.767688 
L 884.145272 440.632215 
L 892.161307 435.96482 
L 894.833319 428.707581 
L 897.505331 423.417132 
L 900.177343 421.555892 
L 902.849354 421.726635 
L 910.86539 419.614661 
L 916.209413 420.45068 
L 918.881425 423.918443 
L 921.553437 414.41485 
L 929.569472 395.894094 
L 932.241483 390.363958 
L 934.913495 386.604297 
L 937.585507 394.194623 
L 940.257519 400.92169 
L 940.257519 400.92169 
" clip-path="url(#pcf8ea754a3)" style="fill: none; stroke: #1f77b4; stroke-width: 1.5; stroke-linecap: square"/>
   </g>
   <g id="line2d_74">
    <path d="M 87.885775 414.911075 
L 90.557786 415.069164 
L 93.229798 415.093374 
L 95.90181 415.396726 
L 98.573822 415.305931 
L 106.589857 415.579369 
L 109.261869 415.462688 
L 111.93388 415.217705 
L 114.605892 415.19052 
L 117.277904 414.625455 
L 125.293939 414.092454 
L 127.965951 415.545633 
L 130.637962 420.108597 
L 133.309974 426.215532 
L 135.981986 434.413775 
L 143.998021 444.994378 
L 146.670033 456.232325 
L 152.014056 467.966912 
L 154.686068 479.122562 
L 162.702103 485.665792 
L 165.374115 488.141147 
L 168.046127 486.975592 
L 170.718139 484.326847 
L 173.39015 481.848668 
L 181.406185 479.8117 
L 184.078197 478.166029 
L 186.750209 475.659441 
L 189.422221 472.796793 
L 192.094232 471.983529 
L 200.110268 473.012273 
L 202.782279 473.666004 
L 205.454291 474.718813 
L 208.126303 476.081695 
L 210.798315 478.379948 
L 218.81435 480.875701 
L 224.158373 485.186865 
L 226.830385 488.054067 
L 229.502397 489.687295 
L 237.518432 490.260546 
L 242.862455 489.033686 
L 245.534467 486.40405 
L 248.206479 484.91969 
L 256.222514 484.498216 
L 258.894526 483.794561 
L 261.566538 481.323901 
L 264.238549 477.287519 
L 266.910561 472.350692 
L 274.926596 467.7123 
L 277.598608 464.087108 
L 280.27062 460.905903 
L 282.942631 457.194268 
L 293.630678 452.709072 
L 296.30269 446.904932 
L 298.974702 441.631399 
L 301.646714 437.714605 
L 304.318725 435.092667 
L 312.334761 434.237506 
L 315.006772 433.639244 
L 317.678784 432.132106 
L 320.350796 431.021583 
L 323.022808 429.427825 
L 331.038843 426.852436 
L 333.710854 423.259588 
L 336.382866 419.339552 
L 339.054878 414.655914 
L 341.72689 409.468436 
L 349.742925 403.970865 
L 352.414937 399.406345 
L 355.086948 395.981127 
L 368.447007 394.232066 
L 371.119019 394.134938 
L 373.791031 394.862108 
L 376.463042 396.206733 
L 379.135054 397.707037 
L 387.151089 400.567931 
L 389.823101 403.853459 
L 392.495113 407.75602 
L 395.167124 410.305686 
L 397.839136 411.986056 
L 405.855171 414.068749 
L 411.199195 418.882177 
L 413.871207 425.973409 
L 416.543218 436.046727 
L 424.559254 448.069603 
L 429.903277 475.544553 
L 435.2473 504.452881 
L 443.263336 517.266953 
L 445.935347 527.344508 
L 451.279371 542.791522 
L 453.951383 548.697349 
L 461.967418 552.696921 
L 464.63943 555.130482 
L 467.311441 557.216226 
L 469.983453 557.167767 
L 472.655465 554.239554 
L 480.6715 548.391727 
L 483.343512 537.66302 
L 488.687535 512.546103 
L 491.359547 501.731931 
L 499.375582 493.232062 
L 502.047594 487.206742 
L 507.391617 477.362143 
L 510.063629 473.477827 
L 518.079664 470.861322 
L 520.751676 469.103922 
L 523.423688 467.546292 
L 526.095699 466.35184 
L 528.767711 465.440903 
L 536.783746 464.661928 
L 539.455758 463.21896 
L 542.12777 461.566362 
L 544.799782 458.825817 
L 547.471793 454.063333 
L 555.487829 448.141675 
L 558.15984 441.844201 
L 560.831852 436.7051 
L 563.503864 432.68988 
L 566.175876 429.823656 
L 574.191911 426.94624 
L 576.863922 424.194569 
L 579.535934 420.948078 
L 582.207946 417.377833 
L 584.879958 413.347505 
L 592.895993 409.735908 
L 595.568005 407.373888 
L 598.240016 405.479099 
L 600.912028 404.35507 
L 603.58404 404.106593 
L 611.600075 403.00218 
L 614.272087 400.119151 
L 616.944099 396.292565 
L 619.61611 391.936514 
L 622.288122 387.935294 
L 630.304157 385.107878 
L 632.976169 384.558654 
L 635.648181 385.125101 
L 638.320192 384.989185 
L 640.992204 382.360705 
L 649.008239 378.342801 
L 651.680251 373.205994 
L 654.352263 368.609638 
L 657.024275 365.068351 
L 659.696286 362.045488 
L 667.712322 359.994238 
L 673.056345 359.012108 
L 675.728357 357.50544 
L 678.400368 355.610728 
L 689.088415 353.745541 
L 691.760427 351.685 
L 694.432439 349.878696 
L 697.104451 348.582632 
L 705.120486 349.614363 
L 707.792498 352.042558 
L 710.464509 354.013152 
L 715.808533 356.115251 
L 723.824568 359.676992 
L 726.49658 363.146845 
L 731.840603 367.231909 
L 734.512615 371.642162 
L 742.52865 376.097306 
L 750.544685 390.739107 
L 753.216697 394.441537 
L 761.232732 397.164375 
L 763.904744 398.653149 
L 766.576756 400.445919 
L 769.248768 402.68365 
L 771.920779 405.759135 
L 779.936814 410.121858 
L 785.280838 418.977781 
L 787.95285 423.244217 
L 790.624861 428.413559 
L 798.640897 435.4863 
L 801.312908 441.877957 
L 803.98492 447.428346 
L 806.656932 451.857659 
L 809.328944 455.65518 
L 817.344979 459.240898 
L 820.016991 461.190306 
L 825.361014 461.379722 
L 828.033026 461.108569 
L 836.049061 461.345723 
L 841.393084 463.207657 
L 846.737108 464.973845 
L 854.753143 465.378431 
L 857.425155 464.771448 
L 860.097167 463.406526 
L 862.769178 460.595713 
L 865.44119 458.220164 
L 873.457225 455.845245 
L 876.129237 453.937236 
L 881.47326 451.303326 
L 884.145272 449.169104 
L 892.161307 446.528247 
L 894.833319 442.964114 
L 897.505331 439.054718 
L 900.177343 435.554952 
L 902.849354 432.789289 
L 910.86539 430.154363 
L 918.881425 427.35459 
L 921.553437 424.766642 
L 929.569472 418.992133 
L 932.241483 413.266498 
L 934.913495 407.934057 
L 937.585507 405.186171 
L 940.257519 404.333275 
L 940.257519 404.333275 
" clip-path="url(#pcf8ea754a3)" style="fill: none; stroke: #ff7f0e; stroke-width: 1.5; stroke-linecap: square"/>
   </g>
   <g id="patch_9">
    <path d="M 45.267188 584.521875 
L 45.267188 331.135937 
" style="fill: none; stroke: #000000; stroke-width: 0.8; stroke-linejoin: miter; stroke-linecap: square"/>
   </g>
   <g id="patch_10">
    <path d="M 982.876106 584.521875 
L 982.876106 331.135937 
" style="fill: none; stroke: #000000; stroke-width: 0.8; stroke-linejoin: miter; stroke-linecap: square"/>
   </g>
   <g id="patch_11">
    <path d="M 45.267188 584.521875 
L 982.876106 584.521875 
" style="fill: none; stroke: #000000; stroke-width: 0.8; stroke-linejoin: miter; stroke-linecap: square"/>
   </g>
   <g id="patch_12">
    <path d="M 45.267188 331.135938 
L 982.876106 331.135938 
" style="fill: none; stroke: #000000; stroke-width: 0.8; stroke-linejoin: miter; stroke-linecap: square"/>
   </g>
   <g id="text_26">
    <!-- MACD -->
    <g transform="translate(496.085709 325.135938)scale(0.12 -0.12)">
     <defs>
      <path id="DejaVuSans-44" d="M 1259 4147 
L 1259 519 
L 2022 519 
Q 2988 519 3436 956 
Q 3884 1394 3884 2338 
Q 3884 3275 3436 3711 
Q 2988 4147 2022 4147 
L 1259 4147 
z
M 628 4666 
L 1925 4666 
Q 3281 4666 3915 4102 
Q 4550 3538 4550 2338 
Q 4550 1131 3912 565 
Q 3275 0 1925 0 
L 628 0 
L 628 4666 
z
" transform="scale(0.015625)"/>
     </defs>
     <use xlink:href="#DejaVuSans-4d"/>
     <use xlink:href="#DejaVuSans-41" x="86.279297"/>
     <use xlink:href="#DejaVuSans-43" x="152.9375"/>
     <use xlink:href="#DejaVuSans-44" x="222.761719"/>
    </g>
   </g>
   <g id="legend_2">
    <g id="patch_13">
     <path d="M 913.899543 368.492188 
L 975.876106 368.492188 
Q 977.876106 368.492188 977.876106 366.492188 
L 977.876106 338.135938 
Q 977.876106 336.135938 975.876106 336.135938 
L 913.899543 336.135938 
Q 911.899543 336.135938 911.899543 338.135938 
L 911.899543 366.492188 
Q 911.899543 368.492188 913.899543 368.492188 
z
" style="fill: #ffffff; opacity: 0.8; stroke: #cccccc; stroke-linejoin: miter"/>
    </g>
    <g id="line2d_75">
     <path d="M 915.899543 344.234375 
L 925.899543 344.234375 
L 935.899543 344.234375 
" style="fill: none; stroke: #1f77b4; stroke-width: 1.5; stroke-linecap: square"/>
    </g>
    <g id="text_27">
     <!-- MACD -->
     <g transform="translate(943.899543 347.734375)scale(0.1 -0.1)">
      <use xlink:href="#DejaVuSans-4d"/>
      <use xlink:href="#DejaVuSans-41" x="86.279297"/>
      <use xlink:href="#DejaVuSans-43" x="152.9375"/>
      <use xlink:href="#DejaVuSans-44" x="222.761719"/>
     </g>
    </g>
    <g id="line2d_76">
     <path d="M 915.899543 358.9125 
L 925.899543 358.9125 
L 935.899543 358.9125 
" style="fill: none; stroke: #ff7f0e; stroke-width: 1.5; stroke-linecap: square"/>
    </g>
    <g id="text_28">
     <!-- SIG -->
     <g transform="translate(943.899543 362.4125)scale(0.1 -0.1)">
      <defs>
       <path id="DejaVuSans-49" d="M 628 4666 
L 1259 4666 
L 1259 0 
L 628 0 
L 628 4666 
z
" transform="scale(0.015625)"/>
       <path id="DejaVuSans-47" d="M 3809 666 
L 3809 1919 
L 2778 1919 
L 2778 2438 
L 4434 2438 
L 4434 434 
Q 4069 175 3628 42 
Q 3188 -91 2688 -91 
Q 1594 -91 976 548 
Q 359 1188 359 2328 
Q 359 3472 976 4111 
Q 1594 4750 2688 4750 
Q 3144 4750 3555 4637 
Q 3966 4525 4313 4306 
L 4313 3634 
Q 3963 3931 3569 4081 
Q 3175 4231 2741 4231 
Q 1884 4231 1454 3753 
Q 1025 3275 1025 2328 
Q 1025 1384 1454 906 
Q 1884 428 2741 428 
Q 3075 428 3337 486 
Q 3600 544 3809 666 
z
" transform="scale(0.015625)"/>
      </defs>
      <use xlink:href="#DejaVuSans-53"/>
      <use xlink:href="#DejaVuSans-49" x="63.476562"/>
      <use xlink:href="#DejaVuSans-47" x="92.96875"/>
     </g>
    </g>
   </g>
  </g>
  <g id="text_29">
   <!-- Info Edge (India) Limited -->
   <g transform="translate(430.040625 21.358125)scale(0.12 -0.12)">
    <defs>
     <path id="DejaVuSans-66" d="M 2375 4863 
L 2375 4384 
L 1825 4384 
Q 1516 4384 1395 4259 
Q 1275 4134 1275 3809 
L 1275 3500 
L 2222 3500 
L 2222 3053 
L 1275 3053 
L 1275 0 
L 697 0 
L 697 3053 
L 147 3053 
L 147 3500 
L 697 3500 
L 697 3744 
Q 697 4328 969 4595 
Q 1241 4863 1831 4863 
L 2375 4863 
z
" transform="scale(0.015625)"/>
     <path id="DejaVuSans-64" d="M 2906 2969 
L 2906 4863 
L 3481 4863 
L 3481 0 
L 2906 0 
L 2906 525 
Q 2725 213 2448 61 
Q 2172 -91 1784 -91 
Q 1150 -91 751 415 
Q 353 922 353 1747 
Q 353 2572 751 3078 
Q 1150 3584 1784 3584 
Q 2172 3584 2448 3432 
Q 2725 3281 2906 2969 
z
M 947 1747 
Q 947 1113 1208 752 
Q 1469 391 1925 391 
Q 2381 391 2643 752 
Q 2906 1113 2906 1747 
Q 2906 2381 2643 2742 
Q 2381 3103 1925 3103 
Q 1469 3103 1208 2742 
Q 947 2381 947 1747 
z
" transform="scale(0.015625)"/>
     <path id="DejaVuSans-28" d="M 1984 4856 
Q 1566 4138 1362 3434 
Q 1159 2731 1159 2009 
Q 1159 1288 1364 580 
Q 1569 -128 1984 -844 
L 1484 -844 
Q 1016 -109 783 600 
Q 550 1309 550 2009 
Q 550 2706 781 3412 
Q 1013 4119 1484 4856 
L 1984 4856 
z
" transform="scale(0.015625)"/>
     <path id="DejaVuSans-61" d="M 2194 1759 
Q 1497 1759 1228 1600 
Q 959 1441 959 1056 
Q 959 750 1161 570 
Q 1363 391 1709 391 
Q 2188 391 2477 730 
Q 2766 1069 2766 1631 
L 2766 1759 
L 2194 1759 
z
M 3341 1997 
L 3341 0 
L 2766 0 
L 2766 531 
Q 2569 213 2275 61 
Q 1981 -91 1556 -91 
Q 1019 -91 701 211 
Q 384 513 384 1019 
Q 384 1609 779 1909 
Q 1175 2209 1959 2209 
L 2766 2209 
L 2766 2266 
Q 2766 2663 2505 2880 
Q 2244 3097 1772 3097 
Q 1472 3097 1187 3025 
Q 903 2953 641 2809 
L 641 3341 
Q 956 3463 1253 3523 
Q 1550 3584 1831 3584 
Q 2591 3584 2966 3190 
Q 3341 2797 3341 1997 
z
" transform="scale(0.015625)"/>
     <path id="DejaVuSans-29" d="M 513 4856 
L 1013 4856 
Q 1481 4119 1714 3412 
Q 1947 2706 1947 2009 
Q 1947 1309 1714 600 
Q 1481 -109 1013 -844 
L 513 -844 
Q 928 -128 1133 580 
Q 1338 1288 1338 2009 
Q 1338 2731 1133 3434 
Q 928 4138 513 4856 
z
" transform="scale(0.015625)"/>
     <path id="DejaVuSans-6d" d="M 3328 2828 
Q 3544 3216 3844 3400 
Q 4144 3584 4550 3584 
Q 5097 3584 5394 3201 
Q 5691 2819 5691 2113 
L 5691 0 
L 5113 0 
L 5113 2094 
Q 5113 2597 4934 2840 
Q 4756 3084 4391 3084 
Q 3944 3084 3684 2787 
Q 3425 2491 3425 1978 
L 3425 0 
L 2847 0 
L 2847 2094 
Q 2847 2600 2669 2842 
Q 2491 3084 2119 3084 
Q 1678 3084 1418 2786 
Q 1159 2488 1159 1978 
L 1159 0 
L 581 0 
L 581 3500 
L 1159 3500 
L 1159 2956 
Q 1356 3278 1631 3431 
Q 1906 3584 2284 3584 
Q 2666 3584 2933 3390 
Q 3200 3197 3328 2828 
z
" transform="scale(0.015625)"/>
     <path id="DejaVuSans-74" d="M 1172 4494 
L 1172 3500 
L 2356 3500 
L 2356 3053 
L 1172 3053 
L 1172 1153 
Q 1172 725 1289 603 
Q 1406 481 1766 481 
L 2356 481 
L 2356 0 
L 1766 0 
Q 1100 0 847 248 
Q 594 497 594 1153 
L 594 3053 
L 172 3053 
L 172 3500 
L 594 3500 
L 594 4494 
L 1172 4494 
z
" transform="scale(0.015625)"/>
    </defs>
    <use xlink:href="#DejaVuSans-49"/>
    <use xlink:href="#DejaVuSans-6e" x="29.492188"/>
    <use xlink:href="#DejaVuSans-66" x="92.871094"/>
    <use xlink:href="#DejaVuSans-6f" x="128.076172"/>
    <use xlink:href="#DejaVuSans-20" x="189.257812"/>
    <use xlink:href="#DejaVuSans-45" x="221.044922"/>
    <use xlink:href="#DejaVuSans-64" x="284.228516"/>
    <use xlink:href="#DejaVuSans-67" x="347.705078"/>
    <use xlink:href="#DejaVuSans-65" x="411.181641"/>
    <use xlink:href="#DejaVuSans-20" x="472.705078"/>
    <use xlink:href="#DejaVuSans-28" x="504.492188"/>
    <use xlink:href="#DejaVuSans-49" x="543.505859"/>
    <use xlink:href="#DejaVuSans-6e" x="572.998047"/>
    <use xlink:href="#DejaVuSans-64" x="636.376953"/>
    <use xlink:href="#DejaVuSans-69" x="699.853516"/>
    <use xlink:href="#DejaVuSans-61" x="727.636719"/>
    <use xlink:href="#DejaVuSans-29" x="788.916016"/>
    <use xlink:href="#DejaVuSans-20" x="827.929688"/>
    <use xlink:href="#DejaVuSans-4c" x="859.716797"/>
    <use xlink:href="#DejaVuSans-69" x="915.429688"/>
    <use xlink:href="#DejaVuSans-6d" x="943.212891"/>
    <use xlink:href="#DejaVuSans-69" x="1040.625"/>
    <use xlink:href="#DejaVuSans-74" x="1068.408203"/>
    <use xlink:href="#DejaVuSans-65" x="1107.617188"/>
    <use xlink:href="#DejaVuSans-64" x="1169.140625"/>
   </g>
  </g>
 </g>
 <defs>
  <clipPath id="peb843b52da">
   <rect x="45.267188" y="48.331875" width="937.608918" height="253.385938"/>
  </clipPath>
  <clipPath id="pcf8ea754a3">
   <rect x="45.267188" y="331.135938" width="937.608918" height="253.385937"/>
  </clipPath>
 </defs>
</svg>
