<?xml version="1.0" encoding="utf-8" standalone="no"?>
<!DOCTYPE svg PUBLIC "-//W3C//DTD SVG 1.1//EN"
  "http://www.w3.org/Graphics/SVG/1.1/DTD/svg11.dtd">
<svg xmlns:xlink="http://www.w3.org/1999/xlink" width="1008pt" height="612pt" viewBox="0 0 1008 612" xmlns="http://www.w3.org/2000/svg" version="1.1">
 <metadata>
  <rdf:RDF xmlns:dc="http://purl.org/dc/elements/1.1/" xmlns:cc="http://creativecommons.org/ns#" xmlns:rdf="http://www.w3.org/1999/02/22-rdf-syntax-ns#">
   <cc:Work>
    <dc:type rdf:resource="http://purl.org/dc/dcmitype/StillImage"/>
    <dc:date>2022-11-20T19:47:32.625420</dc:date>
    <dc:format>image/svg+xml</dc:format>
    <dc:creator>
     <cc:Agent>
      <dc:title>Matplotlib v3.5.2, https://matplotlib.org/</dc:title>
     </cc:Agent>
    </dc:creator>
   </cc:Work>
  </rdf:RDF>
 </metadata>
 <defs>
  <style type="text/css">*{stroke-linejoin: round; stroke-linecap: butt}</style>
 </defs>
 <g id="figure_1">
  <g id="patch_1">
   <path d="M 0 612 
L 1008 612 
L 1008 0 
L 0 0 
z
" style="fill: #ffffff"/>
  </g>
  <g id="axes_1">
   <g id="patch_2">
    <path d="M 36.8875 300.911913 
L 982.876106 300.911913 
L 982.876106 48.331875 
L 36.8875 48.331875 
z
" style="fill: #ffffff"/>
   </g>
   <g id="matplotlib.axis_1">
    <g id="xtick_1">
     <g id="line2d_1">
      <path d="M 74.495197 300.911913 
L 74.495197 48.331875 
" clip-path="url(#pa550df894c)" style="fill: none; stroke-dasharray: 2.96,1.28; stroke-dashoffset: 0; stroke: #b0b0b0; stroke-width: 0.8"/>
     </g>
     <g id="line2d_2">
      <defs>
       <path id="m567d7e8de7" d="M 0 0 
L 0 3.5 
" style="stroke: #000000; stroke-width: 0.8"/>
      </defs>
      <g>
       <use xlink:href="#m567d7e8de7" x="74.495197" y="300.911913" style="stroke: #000000; stroke-width: 0.8"/>
      </g>
     </g>
    </g>
    <g id="xtick_2">
     <g id="line2d_3">
      <path d="M 158.067859 300.911913 
L 158.067859 48.331875 
" clip-path="url(#pa550df894c)" style="fill: none; stroke-dasharray: 2.96,1.28; stroke-dashoffset: 0; stroke: #b0b0b0; stroke-width: 0.8"/>
     </g>
     <g id="line2d_4">
      <g>
       <use xlink:href="#m567d7e8de7" x="158.067859" y="300.911913" style="stroke: #000000; stroke-width: 0.8"/>
      </g>
     </g>
    </g>
    <g id="xtick_3">
     <g id="line2d_5">
      <path d="M 233.552843 300.911913 
L 233.552843 48.331875 
" clip-path="url(#pa550df894c)" style="fill: none; stroke-dasharray: 2.96,1.28; stroke-dashoffset: 0; stroke: #b0b0b0; stroke-width: 0.8"/>
     </g>
     <g id="line2d_6">
      <g>
       <use xlink:href="#m567d7e8de7" x="233.552843" y="300.911913" style="stroke: #000000; stroke-width: 0.8"/>
      </g>
     </g>
    </g>
    <g id="xtick_4">
     <g id="line2d_7">
      <path d="M 317.125504 300.911913 
L 317.125504 48.331875 
" clip-path="url(#pa550df894c)" style="fill: none; stroke-dasharray: 2.96,1.28; stroke-dashoffset: 0; stroke: #b0b0b0; stroke-width: 0.8"/>
     </g>
     <g id="line2d_8">
      <g>
       <use xlink:href="#m567d7e8de7" x="317.125504" y="300.911913" style="stroke: #000000; stroke-width: 0.8"/>
      </g>
     </g>
    </g>
    <g id="xtick_5">
     <g id="line2d_9">
      <path d="M 398.002273 300.911913 
L 398.002273 48.331875 
" clip-path="url(#pa550df894c)" style="fill: none; stroke-dasharray: 2.96,1.28; stroke-dashoffset: 0; stroke: #b0b0b0; stroke-width: 0.8"/>
     </g>
     <g id="line2d_10">
      <g>
       <use xlink:href="#m567d7e8de7" x="398.002273" y="300.911913" style="stroke: #000000; stroke-width: 0.8"/>
      </g>
     </g>
    </g>
    <g id="xtick_6">
     <g id="line2d_11">
      <path d="M 481.574934 300.911913 
L 481.574934 48.331875 
" clip-path="url(#pa550df894c)" style="fill: none; stroke-dasharray: 2.96,1.28; stroke-dashoffset: 0; stroke: #b0b0b0; stroke-width: 0.8"/>
     </g>
     <g id="line2d_12">
      <g>
       <use xlink:href="#m567d7e8de7" x="481.574934" y="300.911913" style="stroke: #000000; stroke-width: 0.8"/>
      </g>
     </g>
    </g>
    <g id="xtick_7">
     <g id="line2d_13">
      <path d="M 562.451703 300.911913 
L 562.451703 48.331875 
" clip-path="url(#pa550df894c)" style="fill: none; stroke-dasharray: 2.96,1.28; stroke-dashoffset: 0; stroke: #b0b0b0; stroke-width: 0.8"/>
     </g>
     <g id="line2d_14">
      <g>
       <use xlink:href="#m567d7e8de7" x="562.451703" y="300.911913" style="stroke: #000000; stroke-width: 0.8"/>
      </g>
     </g>
    </g>
    <g id="xtick_8">
     <g id="line2d_15">
      <path d="M 646.024364 300.911913 
L 646.024364 48.331875 
" clip-path="url(#pa550df894c)" style="fill: none; stroke-dasharray: 2.96,1.28; stroke-dashoffset: 0; stroke: #b0b0b0; stroke-width: 0.8"/>
     </g>
     <g id="line2d_16">
      <g>
       <use xlink:href="#m567d7e8de7" x="646.024364" y="300.911913" style="stroke: #000000; stroke-width: 0.8"/>
      </g>
     </g>
    </g>
    <g id="xtick_9">
     <g id="line2d_17">
      <path d="M 729.597025 300.911913 
L 729.597025 48.331875 
" clip-path="url(#pa550df894c)" style="fill: none; stroke-dasharray: 2.96,1.28; stroke-dashoffset: 0; stroke: #b0b0b0; stroke-width: 0.8"/>
     </g>
     <g id="line2d_18">
      <g>
       <use xlink:href="#m567d7e8de7" x="729.597025" y="300.911913" style="stroke: #000000; stroke-width: 0.8"/>
      </g>
     </g>
    </g>
    <g id="xtick_10">
     <g id="line2d_19">
      <path d="M 810.473794 300.911913 
L 810.473794 48.331875 
" clip-path="url(#pa550df894c)" style="fill: none; stroke-dasharray: 2.96,1.28; stroke-dashoffset: 0; stroke: #b0b0b0; stroke-width: 0.8"/>
     </g>
     <g id="line2d_20">
      <g>
       <use xlink:href="#m567d7e8de7" x="810.473794" y="300.911913" style="stroke: #000000; stroke-width: 0.8"/>
      </g>
     </g>
    </g>
    <g id="xtick_11">
     <g id="line2d_21">
      <path d="M 894.046455 300.911913 
L 894.046455 48.331875 
" clip-path="url(#pa550df894c)" style="fill: none; stroke-dasharray: 2.96,1.28; stroke-dashoffset: 0; stroke: #b0b0b0; stroke-width: 0.8"/>
     </g>
     <g id="line2d_22">
      <g>
       <use xlink:href="#m567d7e8de7" x="894.046455" y="300.911913" style="stroke: #000000; stroke-width: 0.8"/>
      </g>
     </g>
    </g>
    <g id="xtick_12">
     <g id="line2d_23">
      <path d="M 974.923224 300.911913 
L 974.923224 48.331875 
" clip-path="url(#pa550df894c)" style="fill: none; stroke-dasharray: 2.96,1.28; stroke-dashoffset: 0; stroke: #b0b0b0; stroke-width: 0.8"/>
     </g>
     <g id="line2d_24">
      <g>
       <use xlink:href="#m567d7e8de7" x="974.923224" y="300.911913" style="stroke: #000000; stroke-width: 0.8"/>
      </g>
     </g>
    </g>
   </g>
   <g id="matplotlib.axis_2">
    <g id="ytick_1">
     <g id="line2d_25">
      <path d="M 36.8875 300.007356 
L 982.876106 300.007356 
" clip-path="url(#pa550df894c)" style="fill: none; stroke-dasharray: 2.96,1.28; stroke-dashoffset: 0; stroke: #b0b0b0; stroke-width: 0.8"/>
     </g>
     <g id="line2d_26">
      <defs>
       <path id="m6f0c01813c" d="M 0 0 
L -3.5 0 
" style="stroke: #000000; stroke-width: 0.8"/>
      </defs>
      <g>
       <use xlink:href="#m6f0c01813c" x="36.8875" y="300.007356" style="stroke: #000000; stroke-width: 0.8"/>
      </g>
     </g>
     <g id="text_1">
      <!-- 80 -->
      <g transform="translate(17.1625 303.806575)scale(0.1 -0.1)">
       <defs>
        <path id="DejaVuSans-38" d="M 2034 2216 
Q 1584 2216 1326 1975 
Q 1069 1734 1069 1313 
Q 1069 891 1326 650 
Q 1584 409 2034 409 
Q 2484 409 2743 651 
Q 3003 894 3003 1313 
Q 3003 1734 2745 1975 
Q 2488 2216 2034 2216 
z
M 1403 2484 
Q 997 2584 770 2862 
Q 544 3141 544 3541 
Q 544 4100 942 4425 
Q 1341 4750 2034 4750 
Q 2731 4750 3128 4425 
Q 3525 4100 3525 3541 
Q 3525 3141 3298 2862 
Q 3072 2584 2669 2484 
Q 3125 2378 3379 2068 
Q 3634 1759 3634 1313 
Q 3634 634 3220 271 
Q 2806 -91 2034 -91 
Q 1263 -91 848 271 
Q 434 634 434 1313 
Q 434 1759 690 2068 
Q 947 2378 1403 2484 
z
M 1172 3481 
Q 1172 3119 1398 2916 
Q 1625 2713 2034 2713 
Q 2441 2713 2670 2916 
Q 2900 3119 2900 3481 
Q 2900 3844 2670 4047 
Q 2441 4250 2034 4250 
Q 1625 4250 1398 4047 
Q 1172 3844 1172 3481 
z
" transform="scale(0.015625)"/>
        <path id="DejaVuSans-30" d="M 2034 4250 
Q 1547 4250 1301 3770 
Q 1056 3291 1056 2328 
Q 1056 1369 1301 889 
Q 1547 409 2034 409 
Q 2525 409 2770 889 
Q 3016 1369 3016 2328 
Q 3016 3291 2770 3770 
Q 2525 4250 2034 4250 
z
M 2034 4750 
Q 2819 4750 3233 4129 
Q 3647 3509 3647 2328 
Q 3647 1150 3233 529 
Q 2819 -91 2034 -91 
Q 1250 -91 836 529 
Q 422 1150 422 2328 
Q 422 3509 836 4129 
Q 1250 4750 2034 4750 
z
" transform="scale(0.015625)"/>
       </defs>
       <use xlink:href="#DejaVuSans-38"/>
       <use xlink:href="#DejaVuSans-30" x="63.623047"/>
      </g>
     </g>
    </g>
    <g id="ytick_2">
     <g id="line2d_27">
      <path d="M 36.8875 244.342334 
L 982.876106 244.342334 
" clip-path="url(#pa550df894c)" style="fill: none; stroke-dasharray: 2.96,1.28; stroke-dashoffset: 0; stroke: #b0b0b0; stroke-width: 0.8"/>
     </g>
     <g id="line2d_28">
      <g>
       <use xlink:href="#m6f0c01813c" x="36.8875" y="244.342334" style="stroke: #000000; stroke-width: 0.8"/>
      </g>
     </g>
     <g id="text_2">
      <!-- 100 -->
      <g transform="translate(10.8 248.141553)scale(0.1 -0.1)">
       <defs>
        <path id="DejaVuSans-31" d="M 794 531 
L 1825 531 
L 1825 4091 
L 703 3866 
L 703 4441 
L 1819 4666 
L 2450 4666 
L 2450 531 
L 3481 531 
L 3481 0 
L 794 0 
L 794 531 
z
" transform="scale(0.015625)"/>
       </defs>
       <use xlink:href="#DejaVuSans-31"/>
       <use xlink:href="#DejaVuSans-30" x="63.623047"/>
       <use xlink:href="#DejaVuSans-30" x="127.246094"/>
      </g>
     </g>
    </g>
    <g id="ytick_3">
     <g id="line2d_29">
      <path d="M 36.8875 188.677312 
L 982.876106 188.677312 
" clip-path="url(#pa550df894c)" style="fill: none; stroke-dasharray: 2.96,1.28; stroke-dashoffset: 0; stroke: #b0b0b0; stroke-width: 0.8"/>
     </g>
     <g id="line2d_30">
      <g>
       <use xlink:href="#m6f0c01813c" x="36.8875" y="188.677312" style="stroke: #000000; stroke-width: 0.8"/>
      </g>
     </g>
     <g id="text_3">
      <!-- 120 -->
      <g transform="translate(10.8 192.476531)scale(0.1 -0.1)">
       <defs>
        <path id="DejaVuSans-32" d="M 1228 531 
L 3431 531 
L 3431 0 
L 469 0 
L 469 531 
Q 828 903 1448 1529 
Q 2069 2156 2228 2338 
Q 2531 2678 2651 2914 
Q 2772 3150 2772 3378 
Q 2772 3750 2511 3984 
Q 2250 4219 1831 4219 
Q 1534 4219 1204 4116 
Q 875 4013 500 3803 
L 500 4441 
Q 881 4594 1212 4672 
Q 1544 4750 1819 4750 
Q 2544 4750 2975 4387 
Q 3406 4025 3406 3419 
Q 3406 3131 3298 2873 
Q 3191 2616 2906 2266 
Q 2828 2175 2409 1742 
Q 1991 1309 1228 531 
z
" transform="scale(0.015625)"/>
       </defs>
       <use xlink:href="#DejaVuSans-31"/>
       <use xlink:href="#DejaVuSans-32" x="63.623047"/>
       <use xlink:href="#DejaVuSans-30" x="127.246094"/>
      </g>
     </g>
    </g>
    <g id="ytick_4">
     <g id="line2d_31">
      <path d="M 36.8875 133.01229 
L 982.876106 133.01229 
" clip-path="url(#pa550df894c)" style="fill: none; stroke-dasharray: 2.96,1.28; stroke-dashoffset: 0; stroke: #b0b0b0; stroke-width: 0.8"/>
     </g>
     <g id="line2d_32">
      <g>
       <use xlink:href="#m6f0c01813c" x="36.8875" y="133.01229" style="stroke: #000000; stroke-width: 0.8"/>
      </g>
     </g>
     <g id="text_4">
      <!-- 140 -->
      <g transform="translate(10.8 136.811509)scale(0.1 -0.1)">
       <defs>
        <path id="DejaVuSans-34" d="M 2419 4116 
L 825 1625 
L 2419 1625 
L 2419 4116 
z
M 2253 4666 
L 3047 4666 
L 3047 1625 
L 3713 1625 
L 3713 1100 
L 3047 1100 
L 3047 0 
L 2419 0 
L 2419 1100 
L 313 1100 
L 313 1709 
L 2253 4666 
z
" transform="scale(0.015625)"/>
       </defs>
       <use xlink:href="#DejaVuSans-31"/>
       <use xlink:href="#DejaVuSans-34" x="63.623047"/>
       <use xlink:href="#DejaVuSans-30" x="127.246094"/>
      </g>
     </g>
    </g>
    <g id="ytick_5">
     <g id="line2d_33">
      <path d="M 36.8875 77.347268 
L 982.876106 77.347268 
" clip-path="url(#pa550df894c)" style="fill: none; stroke-dasharray: 2.96,1.28; stroke-dashoffset: 0; stroke: #b0b0b0; stroke-width: 0.8"/>
     </g>
     <g id="line2d_34">
      <g>
       <use xlink:href="#m6f0c01813c" x="36.8875" y="77.347268" style="stroke: #000000; stroke-width: 0.8"/>
      </g>
     </g>
     <g id="text_5">
      <!-- 160 -->
      <g transform="translate(10.8 81.146487)scale(0.1 -0.1)">
       <defs>
        <path id="DejaVuSans-36" d="M 2113 2584 
Q 1688 2584 1439 2293 
Q 1191 2003 1191 1497 
Q 1191 994 1439 701 
Q 1688 409 2113 409 
Q 2538 409 2786 701 
Q 3034 994 3034 1497 
Q 3034 2003 2786 2293 
Q 2538 2584 2113 2584 
z
M 3366 4563 
L 3366 3988 
Q 3128 4100 2886 4159 
Q 2644 4219 2406 4219 
Q 1781 4219 1451 3797 
Q 1122 3375 1075 2522 
Q 1259 2794 1537 2939 
Q 1816 3084 2150 3084 
Q 2853 3084 3261 2657 
Q 3669 2231 3669 1497 
Q 3669 778 3244 343 
Q 2819 -91 2113 -91 
Q 1303 -91 875 529 
Q 447 1150 447 2328 
Q 447 3434 972 4092 
Q 1497 4750 2381 4750 
Q 2619 4750 2861 4703 
Q 3103 4656 3366 4563 
z
" transform="scale(0.015625)"/>
       </defs>
       <use xlink:href="#DejaVuSans-31"/>
       <use xlink:href="#DejaVuSans-36" x="63.623047"/>
       <use xlink:href="#DejaVuSans-30" x="127.246094"/>
      </g>
     </g>
    </g>
   </g>
   <g id="line2d_35">
    <path d="M 79.886982 289.431002 
L 82.582874 289.152677 
L 85.278767 286.369426 
L 87.974659 281.637899 
L 90.670551 278.854648 
L 98.758228 266.190856 
L 101.45412 266.051693 
L 104.150013 264.520905 
L 106.845905 261.320166 
L 109.541797 262.155141 
L 117.629474 261.737654 
L 120.325366 265.91253 
L 123.021259 255.892826 
L 125.717151 253.527063 
L 128.413043 264.660067 
L 136.50072 264.938393 
L 139.196613 248.517211 
L 144.588397 234.600955 
L 147.284289 235.157606 
L 155.371966 223.328788 
L 158.067859 227.22534 
L 160.763751 218.179774 
L 163.459643 217.762286 
L 166.155535 226.11204 
L 174.243212 208.299232 
L 176.939105 194.382977 
L 179.634997 203.011055 
L 182.330889 203.428543 
L 185.026782 206.629282 
L 193.114458 227.364503 
L 195.810351 216.092336 
L 198.506243 224.859577 
L 201.202135 228.477803 
L 203.898028 229.451941 
L 211.985704 233.905143 
L 214.681597 230.843566 
L 217.377489 222.772138 
L 220.073381 242.950709 
L 222.769274 225.416227 
L 230.856951 226.11204 
L 236.248735 235.714256 
L 238.944627 237.105881 
L 241.64052 242.811546 
L 249.728197 264.381742 
L 252.424089 251.439625 
L 255.119981 247.543073 
L 257.815873 239.19332 
L 260.511766 232.096029 
L 268.599443 225.137902 
L 271.295335 227.921153 
L 273.991227 222.911301 
L 276.68712 222.215488 
L 287.470689 226.251202 
L 290.166581 225.416227 
L 292.862473 226.947015 
L 295.558366 227.22534 
L 298.254258 220.6847 
L 306.341935 211.082484 
L 309.037827 212.195784 
L 311.733719 205.376819 
L 314.429612 212.056621 
L 317.125504 199.810317 
L 325.213181 199.531991 
L 327.909073 199.810317 
L 330.604965 188.955637 
L 333.300858 190.903913 
L 335.99675 187.842337 
L 344.084427 187.842337 
L 346.780319 188.259824 
L 349.476211 190.2081 
L 362.955673 205.655144 
L 365.651565 208.020907 
L 368.347458 209.27337 
L 371.04335 205.655144 
L 373.739242 212.474109 
L 381.826919 213.309084 
L 384.522811 201.201942 
L 387.218704 199.531991 
L 389.914596 200.645292 
L 392.610488 208.438395 
L 400.698165 208.855883 
L 408.785842 228.060315 
L 411.481734 230.565241 
L 419.569411 235.296768 
L 422.265303 241.559083 
L 424.961196 240.86327 
L 427.657088 255.336176 
L 430.35298 258.25859 
L 438.440657 244.759822 
L 441.136549 238.358344 
L 443.832442 245.873122 
L 446.528334 254.640363 
L 449.224226 245.873122 
L 457.311903 252.2746 
L 460.007795 256.031989 
L 462.703688 261.320166 
L 465.39958 248.934699 
L 468.095472 248.099723 
L 476.183149 240.028295 
L 478.879042 243.646522 
L 481.574934 239.19332 
L 484.270826 234.183468 
L 486.966718 238.358344 
L 495.054395 238.63667 
L 497.750288 239.054157 
L 500.44618 234.461793 
L 503.142072 230.286916 
L 505.837964 230.147754 
L 513.925641 244.481497 
L 516.621534 242.811546 
L 519.317426 244.064009 
L 522.013318 251.300462 
L 524.709211 258.119427 
L 532.796887 268.974107 
L 535.49278 255.336176 
L 538.188672 257.006127 
L 540.884564 254.222876 
L 543.580457 244.481497 
L 551.668133 244.342334 
L 554.364026 240.028295 
L 557.059918 241.141596 
L 559.75581 251.578787 
L 562.451703 252.83125 
L 570.53938 248.656374 
L 573.235272 248.099723 
L 575.931164 245.873122 
L 578.627056 230.426079 
L 581.322949 228.756128 
L 589.410626 217.762286 
L 592.106518 218.597262 
L 594.80241 220.823862 
L 597.498302 229.869429 
L 600.194195 233.070167 
L 608.281872 222.076325 
L 610.977764 208.995045 
L 613.673656 210.804158 
L 616.369549 205.515981 
L 619.065441 199.531991 
L 627.153118 202.036917 
L 629.84901 198.418691 
L 632.544902 193.548002 
L 635.240795 196.609578 
L 637.936687 199.114504 
L 646.024364 198.975341 
L 648.720256 183.806623 
L 651.416148 185.754898 
L 654.112041 192.573864 
L 656.807933 194.522139 
L 664.89561 193.548002 
L 670.287394 192.434701 
L 672.983287 179.770909 
L 675.679179 179.910071 
L 686.462748 184.363273 
L 689.15864 170.307855 
L 691.854533 177.822633 
L 694.550425 187.703174 
L 702.638102 193.548002 
L 705.333994 179.075096 
L 708.029887 178.796771 
L 713.421671 165.576328 
L 721.509348 171.14283 
L 724.20524 158.479038 
L 729.597025 151.242585 
L 732.292917 157.644062 
L 740.380594 150.129284 
L 743.076486 151.242585 
L 745.772379 149.155146 
L 748.468271 137.604654 
L 751.164163 138.43963 
L 759.25184 136.213029 
L 761.947732 136.769679 
L 764.643625 131.759827 
L 767.339517 132.873127 
L 770.035409 140.666231 
L 778.123086 130.089876 
L 780.818978 128.559088 
L 783.514871 129.254901 
L 786.210763 137.326329 
L 788.906655 153.886673 
L 796.994332 165.993816 
L 799.690225 167.107116 
L 802.386117 170.725342 
L 805.082009 167.942091 
L 807.777901 154.164998 
L 815.865578 166.272141 
L 818.561471 150.268447 
L 823.953255 147.206871 
L 826.649147 146.09357 
L 834.736824 154.721649 
L 837.432717 161.958102 
L 840.128609 152.63421 
L 842.824501 160.844801 
L 845.520393 159.592338 
L 853.60807 143.727807 
L 856.303963 131.203177 
L 858.999855 139.135442 
L 864.39164 123.131749 
L 872.479316 120.626823 
L 875.175209 109.772143 
L 880.566993 106.014754 
L 883.262886 113.529532 
L 891.350562 111.581256 
L 894.046455 111.581256 
L 896.742347 113.39037 
L 899.438239 110.328793 
L 902.134132 120.348497 
L 910.221809 81.939632 
L 915.613593 59.812786 
L 918.309485 62.178549 
L 921.005378 72.476578 
L 929.093055 66.492588 
L 931.788947 69.136677 
L 934.484839 68.162539 
L 937.180731 67.049239 
L 939.876624 68.719189 
L 939.876624 68.719189 
" clip-path="url(#pa550df894c)" style="fill: none; stroke: #1f77b4; stroke-width: 1.5; stroke-linecap: square"/>
   </g>
   <g id="line2d_36">
    <path d="M 90.670551 285.089131 
L 98.758228 280.441101 
L 101.45412 275.820904 
L 104.150013 271.4512 
L 106.845905 267.387653 
L 109.541797 264.047752 
L 117.629474 263.157112 
L 120.325366 263.129279 
L 123.021259 261.403664 
L 125.717151 259.845043 
L 128.413043 260.346028 
L 136.50072 260.986176 
L 139.196613 257.507112 
L 144.588397 253.248738 
L 147.284289 249.574846 
L 155.371966 241.308591 
L 158.067859 233.76598 
L 160.763751 227.698493 
L 163.459643 224.330759 
L 166.155535 222.521646 
L 174.243212 219.515734 
L 176.939105 212.947262 
L 182.330889 207.046769 
L 185.026782 203.150218 
L 193.114458 206.963272 
L 198.506243 215.674848 
L 201.202135 220.6847 
L 203.898028 225.249232 
L 211.985704 226.55736 
L 214.681597 229.507606 
L 217.377489 229.090118 
L 220.073381 231.984699 
L 222.769274 231.177557 
L 230.856951 229.618936 
L 236.248735 230.593074 
L 238.944627 233.459822 
L 241.64052 233.43199 
L 249.728197 241.225093 
L 252.424089 246.29061 
L 255.119981 248.656374 
L 257.815873 249.073861 
L 260.511766 246.930758 
L 268.599443 239.08199 
L 273.991227 229.451941 
L 276.68712 226.056375 
L 287.470689 224.887409 
L 290.166581 224.943074 
L 292.862473 224.748247 
L 295.558366 225.611054 
L 298.254258 225.304897 
L 306.341935 222.271153 
L 309.037827 219.627064 
L 311.733719 215.313025 
L 314.429612 212.279282 
L 317.125504 208.104405 
L 325.213181 205.794306 
L 327.909073 203.317213 
L 330.604965 200.032977 
L 333.300858 195.802435 
L 335.99675 193.408839 
L 344.084427 191.070908 
L 346.780319 188.76081 
L 349.476211 189.011302 
L 362.955673 191.961548 
L 365.651565 195.997263 
L 368.347458 200.283469 
L 371.04335 203.762533 
L 373.739242 208.215735 
L 381.826919 209.746523 
L 384.522811 208.38273 
L 387.218704 206.434454 
L 389.914596 205.432484 
L 392.610488 204.625341 
L 400.698165 203.734701 
L 406.08995 207.82608 
L 408.785842 213.531745 
L 411.481734 219.515734 
L 419.569411 224.887409 
L 422.265303 231.428049 
L 424.961196 235.268936 
L 430.35298 246.262778 
L 438.440657 248.155388 
L 441.136549 247.515241 
L 443.832442 248.517211 
L 446.528334 248.378048 
L 449.224226 245.900955 
L 457.311903 247.403911 
L 460.007795 250.938639 
L 462.703688 254.028048 
L 465.39958 252.886915 
L 468.095472 253.332235 
L 476.183149 250.882974 
L 478.879042 248.405881 
L 481.574934 243.980512 
L 484.270826 241.030265 
L 486.966718 239.08199 
L 495.054395 238.803665 
L 503.142072 236.159576 
L 505.837964 234.517458 
L 513.925641 235.686423 
L 516.621534 236.437901 
L 519.317426 238.358344 
L 522.013318 242.561054 
L 524.709211 248.155388 
L 532.796887 253.05391 
L 538.188672 258.14726 
L 540.884564 258.731743 
L 543.580457 256.004156 
L 551.668133 251.077802 
L 557.059918 244.84332 
L 559.75581 244.314502 
L 562.451703 245.984452 
L 570.53938 246.84726 
L 573.235272 248.461546 
L 575.931164 249.407851 
L 578.627056 245.17731 
L 581.322949 240.362285 
L 589.410626 234.183468 
L 592.106518 228.282975 
L 594.80241 223.273123 
L 597.498302 223.161793 
L 600.194195 224.024601 
L 608.281872 224.887409 
L 613.673656 220.963025 
L 616.369549 216.092336 
L 619.065441 209.3847 
L 627.153118 205.376819 
L 629.84901 203.261548 
L 632.544902 199.810317 
L 635.240795 198.029036 
L 637.936687 197.945538 
L 646.024364 197.333223 
L 648.720256 194.410809 
L 651.416148 192.852189 
L 656.807933 191.126573 
L 664.89561 190.041105 
L 670.287394 191.766721 
L 672.983287 190.569923 
L 675.679179 188.037164 
L 686.462748 186.005391 
L 689.15864 181.357362 
L 691.854533 178.434948 
L 694.550425 180.021401 
L 702.638102 182.748987 
L 705.333994 181.691352 
L 708.029887 183.389135 
L 710.725779 182.275835 
L 713.421671 177.850465 
L 721.509348 173.369431 
L 724.20524 169.250219 
L 729.597025 163.739382 
L 732.292917 160.816969 
L 740.380594 157.72756 
L 743.076486 153.747511 
L 745.772379 151.882732 
L 748.468271 149.155146 
L 751.164163 145.31426 
L 759.25184 142.531009 
L 761.947732 139.636428 
L 764.643625 136.157364 
L 767.339517 135.211058 
L 770.035409 135.656379 
L 778.123086 134.431748 
L 780.818978 132.78963 
L 783.514871 132.288645 
L 786.210763 133.179285 
L 788.906655 135.823374 
L 796.994332 143.004161 
L 799.690225 150.713767 
L 802.386117 159.007855 
L 805.082009 165.131008 
L 807.777901 165.186673 
L 815.865578 165.242338 
L 818.561471 161.874604 
L 823.953255 157.17091 
L 826.649147 152.801205 
L 834.736824 152.912535 
L 837.432717 152.049728 
L 840.128609 152.52288 
L 845.520393 157.95022 
L 853.60807 155.751452 
L 856.303963 149.600467 
L 858.999855 146.900713 
L 861.695747 140.944556 
L 864.39164 133.652438 
L 872.479316 129.032241 
L 875.175209 124.746034 
L 880.566993 118.121897 
L 883.262886 114.615 
L 891.350562 112.304902 
L 894.046455 110.495789 
L 896.742347 111.219434 
L 899.438239 112.082242 
L 902.134132 113.446035 
L 910.221809 107.51771 
L 915.613593 97.164016 
L 918.309485 86.921652 
L 921.005378 79.351209 
L 929.093055 68.580027 
L 931.788947 66.019436 
L 934.484839 67.689386 
L 937.180731 68.663524 
L 939.876624 67.912047 
L 939.876624 67.912047 
" clip-path="url(#pa550df894c)" style="fill: none; stroke: #ff7f0e; stroke-width: 1.5; stroke-linecap: square"/>
   </g>
   <g id="patch_3">
    <path d="M 36.8875 300.911913 
L 36.8875 48.331875 
" style="fill: none; stroke: #000000; stroke-width: 0.8; stroke-linejoin: miter; stroke-linecap: square"/>
   </g>
   <g id="patch_4">
    <path d="M 982.876106 300.911913 
L 982.876106 48.331875 
" style="fill: none; stroke: #000000; stroke-width: 0.8; stroke-linejoin: miter; stroke-linecap: square"/>
   </g>
   <g id="patch_5">
    <path d="M 36.8875 300.911913 
L 982.876106 300.911913 
" style="fill: none; stroke: #000000; stroke-width: 0.8; stroke-linejoin: miter; stroke-linecap: square"/>
   </g>
   <g id="patch_6">
    <path d="M 36.8875 48.331875 
L 982.876106 48.331875 
" style="fill: none; stroke: #000000; stroke-width: 0.8; stroke-linejoin: miter; stroke-linecap: square"/>
   </g>
   <g id="text_6">
    <!-- Closing Price -->
    <g transform="translate(471.405865 42.331875)scale(0.12 -0.12)">
     <defs>
      <path id="DejaVuSans-43" d="M 4122 4306 
L 4122 3641 
Q 3803 3938 3442 4084 
Q 3081 4231 2675 4231 
Q 1875 4231 1450 3742 
Q 1025 3253 1025 2328 
Q 1025 1406 1450 917 
Q 1875 428 2675 428 
Q 3081 428 3442 575 
Q 3803 722 4122 1019 
L 4122 359 
Q 3791 134 3420 21 
Q 3050 -91 2638 -91 
Q 1578 -91 968 557 
Q 359 1206 359 2328 
Q 359 3453 968 4101 
Q 1578 4750 2638 4750 
Q 3056 4750 3426 4639 
Q 3797 4528 4122 4306 
z
" transform="scale(0.015625)"/>
      <path id="DejaVuSans-6c" d="M 603 4863 
L 1178 4863 
L 1178 0 
L 603 0 
L 603 4863 
z
" transform="scale(0.015625)"/>
      <path id="DejaVuSans-6f" d="M 1959 3097 
Q 1497 3097 1228 2736 
Q 959 2375 959 1747 
Q 959 1119 1226 758 
Q 1494 397 1959 397 
Q 2419 397 2687 759 
Q 2956 1122 2956 1747 
Q 2956 2369 2687 2733 
Q 2419 3097 1959 3097 
z
M 1959 3584 
Q 2709 3584 3137 3096 
Q 3566 2609 3566 1747 
Q 3566 888 3137 398 
Q 2709 -91 1959 -91 
Q 1206 -91 779 398 
Q 353 888 353 1747 
Q 353 2609 779 3096 
Q 1206 3584 1959 3584 
z
" transform="scale(0.015625)"/>
      <path id="DejaVuSans-73" d="M 2834 3397 
L 2834 2853 
Q 2591 2978 2328 3040 
Q 2066 3103 1784 3103 
Q 1356 3103 1142 2972 
Q 928 2841 928 2578 
Q 928 2378 1081 2264 
Q 1234 2150 1697 2047 
L 1894 2003 
Q 2506 1872 2764 1633 
Q 3022 1394 3022 966 
Q 3022 478 2636 193 
Q 2250 -91 1575 -91 
Q 1294 -91 989 -36 
Q 684 19 347 128 
L 347 722 
Q 666 556 975 473 
Q 1284 391 1588 391 
Q 1994 391 2212 530 
Q 2431 669 2431 922 
Q 2431 1156 2273 1281 
Q 2116 1406 1581 1522 
L 1381 1569 
Q 847 1681 609 1914 
Q 372 2147 372 2553 
Q 372 3047 722 3315 
Q 1072 3584 1716 3584 
Q 2034 3584 2315 3537 
Q 2597 3491 2834 3397 
z
" transform="scale(0.015625)"/>
      <path id="DejaVuSans-69" d="M 603 3500 
L 1178 3500 
L 1178 0 
L 603 0 
L 603 3500 
z
M 603 4863 
L 1178 4863 
L 1178 4134 
L 603 4134 
L 603 4863 
z
" transform="scale(0.015625)"/>
      <path id="DejaVuSans-6e" d="M 3513 2113 
L 3513 0 
L 2938 0 
L 2938 2094 
Q 2938 2591 2744 2837 
Q 2550 3084 2163 3084 
Q 1697 3084 1428 2787 
Q 1159 2491 1159 1978 
L 1159 0 
L 581 0 
L 581 3500 
L 1159 3500 
L 1159 2956 
Q 1366 3272 1645 3428 
Q 1925 3584 2291 3584 
Q 2894 3584 3203 3211 
Q 3513 2838 3513 2113 
z
" transform="scale(0.015625)"/>
      <path id="DejaVuSans-67" d="M 2906 1791 
Q 2906 2416 2648 2759 
Q 2391 3103 1925 3103 
Q 1463 3103 1205 2759 
Q 947 2416 947 1791 
Q 947 1169 1205 825 
Q 1463 481 1925 481 
Q 2391 481 2648 825 
Q 2906 1169 2906 1791 
z
M 3481 434 
Q 3481 -459 3084 -895 
Q 2688 -1331 1869 -1331 
Q 1566 -1331 1297 -1286 
Q 1028 -1241 775 -1147 
L 775 -588 
Q 1028 -725 1275 -790 
Q 1522 -856 1778 -856 
Q 2344 -856 2625 -561 
Q 2906 -266 2906 331 
L 2906 616 
Q 2728 306 2450 153 
Q 2172 0 1784 0 
Q 1141 0 747 490 
Q 353 981 353 1791 
Q 353 2603 747 3093 
Q 1141 3584 1784 3584 
Q 2172 3584 2450 3431 
Q 2728 3278 2906 2969 
L 2906 3500 
L 3481 3500 
L 3481 434 
z
" transform="scale(0.015625)"/>
      <path id="DejaVuSans-20" transform="scale(0.015625)"/>
      <path id="DejaVuSans-50" d="M 1259 4147 
L 1259 2394 
L 2053 2394 
Q 2494 2394 2734 2622 
Q 2975 2850 2975 3272 
Q 2975 3691 2734 3919 
Q 2494 4147 2053 4147 
L 1259 4147 
z
M 628 4666 
L 2053 4666 
Q 2838 4666 3239 4311 
Q 3641 3956 3641 3272 
Q 3641 2581 3239 2228 
Q 2838 1875 2053 1875 
L 1259 1875 
L 1259 0 
L 628 0 
L 628 4666 
z
" transform="scale(0.015625)"/>
      <path id="DejaVuSans-72" d="M 2631 2963 
Q 2534 3019 2420 3045 
Q 2306 3072 2169 3072 
Q 1681 3072 1420 2755 
Q 1159 2438 1159 1844 
L 1159 0 
L 581 0 
L 581 3500 
L 1159 3500 
L 1159 2956 
Q 1341 3275 1631 3429 
Q 1922 3584 2338 3584 
Q 2397 3584 2469 3576 
Q 2541 3569 2628 3553 
L 2631 2963 
z
" transform="scale(0.015625)"/>
      <path id="DejaVuSans-63" d="M 3122 3366 
L 3122 2828 
Q 2878 2963 2633 3030 
Q 2388 3097 2138 3097 
Q 1578 3097 1268 2742 
Q 959 2388 959 1747 
Q 959 1106 1268 751 
Q 1578 397 2138 397 
Q 2388 397 2633 464 
Q 2878 531 3122 666 
L 3122 134 
Q 2881 22 2623 -34 
Q 2366 -91 2075 -91 
Q 1284 -91 818 406 
Q 353 903 353 1747 
Q 353 2603 823 3093 
Q 1294 3584 2113 3584 
Q 2378 3584 2631 3529 
Q 2884 3475 3122 3366 
z
" transform="scale(0.015625)"/>
      <path id="DejaVuSans-65" d="M 3597 1894 
L 3597 1613 
L 953 1613 
Q 991 1019 1311 708 
Q 1631 397 2203 397 
Q 2534 397 2845 478 
Q 3156 559 3463 722 
L 3463 178 
Q 3153 47 2828 -22 
Q 2503 -91 2169 -91 
Q 1331 -91 842 396 
Q 353 884 353 1716 
Q 353 2575 817 3079 
Q 1281 3584 2069 3584 
Q 2775 3584 3186 3129 
Q 3597 2675 3597 1894 
z
M 3022 2063 
Q 3016 2534 2758 2815 
Q 2500 3097 2075 3097 
Q 1594 3097 1305 2825 
Q 1016 2553 972 2059 
L 3022 2063 
z
" transform="scale(0.015625)"/>
     </defs>
     <use xlink:href="#DejaVuSans-43"/>
     <use xlink:href="#DejaVuSans-6c" x="69.824219"/>
     <use xlink:href="#DejaVuSans-6f" x="97.607422"/>
     <use xlink:href="#DejaVuSans-73" x="158.789062"/>
     <use xlink:href="#DejaVuSans-69" x="210.888672"/>
     <use xlink:href="#DejaVuSans-6e" x="238.671875"/>
     <use xlink:href="#DejaVuSans-67" x="302.050781"/>
     <use xlink:href="#DejaVuSans-20" x="365.527344"/>
     <use xlink:href="#DejaVuSans-50" x="397.314453"/>
     <use xlink:href="#DejaVuSans-72" x="455.867188"/>
     <use xlink:href="#DejaVuSans-69" x="496.980469"/>
     <use xlink:href="#DejaVuSans-63" x="524.763672"/>
     <use xlink:href="#DejaVuSans-65" x="579.744141"/>
    </g>
   </g>
   <g id="legend_1">
    <g id="patch_7">
     <path d="M 43.8875 85.688125 
L 108.61875 85.688125 
Q 110.61875 85.688125 110.61875 83.688125 
L 110.61875 55.331875 
Q 110.61875 53.331875 108.61875 53.331875 
L 43.8875 53.331875 
Q 41.8875 53.331875 41.8875 55.331875 
L 41.8875 83.688125 
Q 41.8875 85.688125 43.8875 85.688125 
z
" style="fill: #ffffff; opacity: 0.8; stroke: #cccccc; stroke-linejoin: miter"/>
    </g>
    <g id="line2d_37">
     <path d="M 45.8875 61.430312 
L 55.8875 61.430312 
L 65.8875 61.430312 
" style="fill: none; stroke: #1f77b4; stroke-width: 1.5; stroke-linecap: square"/>
    </g>
    <g id="text_7">
     <!-- CLOSE -->
     <g transform="translate(73.8875 64.930312)scale(0.1 -0.1)">
      <defs>
       <path id="DejaVuSans-4c" d="M 628 4666 
L 1259 4666 
L 1259 531 
L 3531 531 
L 3531 0 
L 628 0 
L 628 4666 
z
" transform="scale(0.015625)"/>
       <path id="DejaVuSans-4f" d="M 2522 4238 
Q 1834 4238 1429 3725 
Q 1025 3213 1025 2328 
Q 1025 1447 1429 934 
Q 1834 422 2522 422 
Q 3209 422 3611 934 
Q 4013 1447 4013 2328 
Q 4013 3213 3611 3725 
Q 3209 4238 2522 4238 
z
M 2522 4750 
Q 3503 4750 4090 4092 
Q 4678 3434 4678 2328 
Q 4678 1225 4090 567 
Q 3503 -91 2522 -91 
Q 1538 -91 948 565 
Q 359 1222 359 2328 
Q 359 3434 948 4092 
Q 1538 4750 2522 4750 
z
" transform="scale(0.015625)"/>
       <path id="DejaVuSans-53" d="M 3425 4513 
L 3425 3897 
Q 3066 4069 2747 4153 
Q 2428 4238 2131 4238 
Q 1616 4238 1336 4038 
Q 1056 3838 1056 3469 
Q 1056 3159 1242 3001 
Q 1428 2844 1947 2747 
L 2328 2669 
Q 3034 2534 3370 2195 
Q 3706 1856 3706 1288 
Q 3706 609 3251 259 
Q 2797 -91 1919 -91 
Q 1588 -91 1214 -16 
Q 841 59 441 206 
L 441 856 
Q 825 641 1194 531 
Q 1563 422 1919 422 
Q 2459 422 2753 634 
Q 3047 847 3047 1241 
Q 3047 1584 2836 1778 
Q 2625 1972 2144 2069 
L 1759 2144 
Q 1053 2284 737 2584 
Q 422 2884 422 3419 
Q 422 4038 858 4394 
Q 1294 4750 2059 4750 
Q 2388 4750 2728 4690 
Q 3069 4631 3425 4513 
z
" transform="scale(0.015625)"/>
       <path id="DejaVuSans-45" d="M 628 4666 
L 3578 4666 
L 3578 4134 
L 1259 4134 
L 1259 2753 
L 3481 2753 
L 3481 2222 
L 1259 2222 
L 1259 531 
L 3634 531 
L 3634 0 
L 628 0 
L 628 4666 
z
" transform="scale(0.015625)"/>
      </defs>
      <use xlink:href="#DejaVuSans-43"/>
      <use xlink:href="#DejaVuSans-4c" x="69.824219"/>
      <use xlink:href="#DejaVuSans-4f" x="121.912109"/>
      <use xlink:href="#DejaVuSans-53" x="200.623047"/>
      <use xlink:href="#DejaVuSans-45" x="264.099609"/>
     </g>
    </g>
    <g id="line2d_38">
     <path d="M 45.8875 76.108437 
L 55.8875 76.108437 
L 65.8875 76.108437 
" style="fill: none; stroke: #ff7f0e; stroke-width: 1.5; stroke-linecap: square"/>
    </g>
    <g id="text_8">
     <!-- SMA5 -->
     <g transform="translate(73.8875 79.608437)scale(0.1 -0.1)">
      <defs>
       <path id="DejaVuSans-4d" d="M 628 4666 
L 1569 4666 
L 2759 1491 
L 3956 4666 
L 4897 4666 
L 4897 0 
L 4281 0 
L 4281 4097 
L 3078 897 
L 2444 897 
L 1241 4097 
L 1241 0 
L 628 0 
L 628 4666 
z
" transform="scale(0.015625)"/>
       <path id="DejaVuSans-41" d="M 2188 4044 
L 1331 1722 
L 3047 1722 
L 2188 4044 
z
M 1831 4666 
L 2547 4666 
L 4325 0 
L 3669 0 
L 3244 1197 
L 1141 1197 
L 716 0 
L 50 0 
L 1831 4666 
z
" transform="scale(0.015625)"/>
       <path id="DejaVuSans-35" d="M 691 4666 
L 3169 4666 
L 3169 4134 
L 1269 4134 
L 1269 2991 
Q 1406 3038 1543 3061 
Q 1681 3084 1819 3084 
Q 2600 3084 3056 2656 
Q 3513 2228 3513 1497 
Q 3513 744 3044 326 
Q 2575 -91 1722 -91 
Q 1428 -91 1123 -41 
Q 819 9 494 109 
L 494 744 
Q 775 591 1075 516 
Q 1375 441 1709 441 
Q 2250 441 2565 725 
Q 2881 1009 2881 1497 
Q 2881 1984 2565 2268 
Q 2250 2553 1709 2553 
Q 1456 2553 1204 2497 
Q 953 2441 691 2322 
L 691 4666 
z
" transform="scale(0.015625)"/>
      </defs>
      <use xlink:href="#DejaVuSans-53"/>
      <use xlink:href="#DejaVuSans-4d" x="63.476562"/>
      <use xlink:href="#DejaVuSans-41" x="149.755859"/>
      <use xlink:href="#DejaVuSans-35" x="218.164062"/>
     </g>
    </g>
   </g>
  </g>
  <g id="axes_2">
   <g id="patch_8">
    <path d="M 36.8875 584.521875 
L 982.876106 584.521875 
L 982.876106 331.941837 
L 36.8875 331.941837 
z
" style="fill: #ffffff"/>
   </g>
   <g id="matplotlib.axis_3">
    <g id="xtick_13">
     <g id="line2d_39">
      <path d="M 74.495197 584.521875 
L 74.495197 331.941837 
" clip-path="url(#p62607f206f)" style="fill: none; stroke-dasharray: 2.96,1.28; stroke-dashoffset: 0; stroke: #b0b0b0; stroke-width: 0.8"/>
     </g>
     <g id="line2d_40">
      <g>
       <use xlink:href="#m567d7e8de7" x="74.495197" y="584.521875" style="stroke: #000000; stroke-width: 0.8"/>
      </g>
     </g>
     <g id="text_9">
      <!-- 2022-01 -->
      <g transform="translate(53.603791 599.120313)scale(0.1 -0.1)">
       <defs>
        <path id="DejaVuSans-2d" d="M 313 2009 
L 1997 2009 
L 1997 1497 
L 313 1497 
L 313 2009 
z
" transform="scale(0.015625)"/>
       </defs>
       <use xlink:href="#DejaVuSans-32"/>
       <use xlink:href="#DejaVuSans-30" x="63.623047"/>
       <use xlink:href="#DejaVuSans-32" x="127.246094"/>
       <use xlink:href="#DejaVuSans-32" x="190.869141"/>
       <use xlink:href="#DejaVuSans-2d" x="254.492188"/>
       <use xlink:href="#DejaVuSans-30" x="290.576172"/>
       <use xlink:href="#DejaVuSans-31" x="354.199219"/>
      </g>
     </g>
    </g>
    <g id="xtick_14">
     <g id="line2d_41">
      <path d="M 158.067859 584.521875 
L 158.067859 331.941837 
" clip-path="url(#p62607f206f)" style="fill: none; stroke-dasharray: 2.96,1.28; stroke-dashoffset: 0; stroke: #b0b0b0; stroke-width: 0.8"/>
     </g>
     <g id="line2d_42">
      <g>
       <use xlink:href="#m567d7e8de7" x="158.067859" y="584.521875" style="stroke: #000000; stroke-width: 0.8"/>
      </g>
     </g>
     <g id="text_10">
      <!-- 2022-02 -->
      <g transform="translate(137.176452 599.120313)scale(0.1 -0.1)">
       <use xlink:href="#DejaVuSans-32"/>
       <use xlink:href="#DejaVuSans-30" x="63.623047"/>
       <use xlink:href="#DejaVuSans-32" x="127.246094"/>
       <use xlink:href="#DejaVuSans-32" x="190.869141"/>
       <use xlink:href="#DejaVuSans-2d" x="254.492188"/>
       <use xlink:href="#DejaVuSans-30" x="290.576172"/>
       <use xlink:href="#DejaVuSans-32" x="354.199219"/>
      </g>
     </g>
    </g>
    <g id="xtick_15">
     <g id="line2d_43">
      <path d="M 233.552843 584.521875 
L 233.552843 331.941837 
" clip-path="url(#p62607f206f)" style="fill: none; stroke-dasharray: 2.96,1.28; stroke-dashoffset: 0; stroke: #b0b0b0; stroke-width: 0.8"/>
     </g>
     <g id="line2d_44">
      <g>
       <use xlink:href="#m567d7e8de7" x="233.552843" y="584.521875" style="stroke: #000000; stroke-width: 0.8"/>
      </g>
     </g>
     <g id="text_11">
      <!-- 2022-03 -->
      <g transform="translate(212.661437 599.120313)scale(0.1 -0.1)">
       <defs>
        <path id="DejaVuSans-33" d="M 2597 2516 
Q 3050 2419 3304 2112 
Q 3559 1806 3559 1356 
Q 3559 666 3084 287 
Q 2609 -91 1734 -91 
Q 1441 -91 1130 -33 
Q 819 25 488 141 
L 488 750 
Q 750 597 1062 519 
Q 1375 441 1716 441 
Q 2309 441 2620 675 
Q 2931 909 2931 1356 
Q 2931 1769 2642 2001 
Q 2353 2234 1838 2234 
L 1294 2234 
L 1294 2753 
L 1863 2753 
Q 2328 2753 2575 2939 
Q 2822 3125 2822 3475 
Q 2822 3834 2567 4026 
Q 2313 4219 1838 4219 
Q 1578 4219 1281 4162 
Q 984 4106 628 3988 
L 628 4550 
Q 988 4650 1302 4700 
Q 1616 4750 1894 4750 
Q 2613 4750 3031 4423 
Q 3450 4097 3450 3541 
Q 3450 3153 3228 2886 
Q 3006 2619 2597 2516 
z
" transform="scale(0.015625)"/>
       </defs>
       <use xlink:href="#DejaVuSans-32"/>
       <use xlink:href="#DejaVuSans-30" x="63.623047"/>
       <use xlink:href="#DejaVuSans-32" x="127.246094"/>
       <use xlink:href="#DejaVuSans-32" x="190.869141"/>
       <use xlink:href="#DejaVuSans-2d" x="254.492188"/>
       <use xlink:href="#DejaVuSans-30" x="290.576172"/>
       <use xlink:href="#DejaVuSans-33" x="354.199219"/>
      </g>
     </g>
    </g>
    <g id="xtick_16">
     <g id="line2d_45">
      <path d="M 317.125504 584.521875 
L 317.125504 331.941837 
" clip-path="url(#p62607f206f)" style="fill: none; stroke-dasharray: 2.96,1.28; stroke-dashoffset: 0; stroke: #b0b0b0; stroke-width: 0.8"/>
     </g>
     <g id="line2d_46">
      <g>
       <use xlink:href="#m567d7e8de7" x="317.125504" y="584.521875" style="stroke: #000000; stroke-width: 0.8"/>
      </g>
     </g>
     <g id="text_12">
      <!-- 2022-04 -->
      <g transform="translate(296.234098 599.120313)scale(0.1 -0.1)">
       <use xlink:href="#DejaVuSans-32"/>
       <use xlink:href="#DejaVuSans-30" x="63.623047"/>
       <use xlink:href="#DejaVuSans-32" x="127.246094"/>
       <use xlink:href="#DejaVuSans-32" x="190.869141"/>
       <use xlink:href="#DejaVuSans-2d" x="254.492188"/>
       <use xlink:href="#DejaVuSans-30" x="290.576172"/>
       <use xlink:href="#DejaVuSans-34" x="354.199219"/>
      </g>
     </g>
    </g>
    <g id="xtick_17">
     <g id="line2d_47">
      <path d="M 398.002273 584.521875 
L 398.002273 331.941837 
" clip-path="url(#p62607f206f)" style="fill: none; stroke-dasharray: 2.96,1.28; stroke-dashoffset: 0; stroke: #b0b0b0; stroke-width: 0.8"/>
     </g>
     <g id="line2d_48">
      <g>
       <use xlink:href="#m567d7e8de7" x="398.002273" y="584.521875" style="stroke: #000000; stroke-width: 0.8"/>
      </g>
     </g>
     <g id="text_13">
      <!-- 2022-05 -->
      <g transform="translate(377.110866 599.120313)scale(0.1 -0.1)">
       <use xlink:href="#DejaVuSans-32"/>
       <use xlink:href="#DejaVuSans-30" x="63.623047"/>
       <use xlink:href="#DejaVuSans-32" x="127.246094"/>
       <use xlink:href="#DejaVuSans-32" x="190.869141"/>
       <use xlink:href="#DejaVuSans-2d" x="254.492188"/>
       <use xlink:href="#DejaVuSans-30" x="290.576172"/>
       <use xlink:href="#DejaVuSans-35" x="354.199219"/>
      </g>
     </g>
    </g>
    <g id="xtick_18">
     <g id="line2d_49">
      <path d="M 481.574934 584.521875 
L 481.574934 331.941837 
" clip-path="url(#p62607f206f)" style="fill: none; stroke-dasharray: 2.96,1.28; stroke-dashoffset: 0; stroke: #b0b0b0; stroke-width: 0.8"/>
     </g>
     <g id="line2d_50">
      <g>
       <use xlink:href="#m567d7e8de7" x="481.574934" y="584.521875" style="stroke: #000000; stroke-width: 0.8"/>
      </g>
     </g>
     <g id="text_14">
      <!-- 2022-06 -->
      <g transform="translate(460.683528 599.120313)scale(0.1 -0.1)">
       <use xlink:href="#DejaVuSans-32"/>
       <use xlink:href="#DejaVuSans-30" x="63.623047"/>
       <use xlink:href="#DejaVuSans-32" x="127.246094"/>
       <use xlink:href="#DejaVuSans-32" x="190.869141"/>
       <use xlink:href="#DejaVuSans-2d" x="254.492188"/>
       <use xlink:href="#DejaVuSans-30" x="290.576172"/>
       <use xlink:href="#DejaVuSans-36" x="354.199219"/>
      </g>
     </g>
    </g>
    <g id="xtick_19">
     <g id="line2d_51">
      <path d="M 562.451703 584.521875 
L 562.451703 331.941837 
" clip-path="url(#p62607f206f)" style="fill: none; stroke-dasharray: 2.96,1.28; stroke-dashoffset: 0; stroke: #b0b0b0; stroke-width: 0.8"/>
     </g>
     <g id="line2d_52">
      <g>
       <use xlink:href="#m567d7e8de7" x="562.451703" y="584.521875" style="stroke: #000000; stroke-width: 0.8"/>
      </g>
     </g>
     <g id="text_15">
      <!-- 2022-07 -->
      <g transform="translate(541.560296 599.120313)scale(0.1 -0.1)">
       <defs>
        <path id="DejaVuSans-37" d="M 525 4666 
L 3525 4666 
L 3525 4397 
L 1831 0 
L 1172 0 
L 2766 4134 
L 525 4134 
L 525 4666 
z
" transform="scale(0.015625)"/>
       </defs>
       <use xlink:href="#DejaVuSans-32"/>
       <use xlink:href="#DejaVuSans-30" x="63.623047"/>
       <use xlink:href="#DejaVuSans-32" x="127.246094"/>
       <use xlink:href="#DejaVuSans-32" x="190.869141"/>
       <use xlink:href="#DejaVuSans-2d" x="254.492188"/>
       <use xlink:href="#DejaVuSans-30" x="290.576172"/>
       <use xlink:href="#DejaVuSans-37" x="354.199219"/>
      </g>
     </g>
    </g>
    <g id="xtick_20">
     <g id="line2d_53">
      <path d="M 646.024364 584.521875 
L 646.024364 331.941837 
" clip-path="url(#p62607f206f)" style="fill: none; stroke-dasharray: 2.96,1.28; stroke-dashoffset: 0; stroke: #b0b0b0; stroke-width: 0.8"/>
     </g>
     <g id="line2d_54">
      <g>
       <use xlink:href="#m567d7e8de7" x="646.024364" y="584.521875" style="stroke: #000000; stroke-width: 0.8"/>
      </g>
     </g>
     <g id="text_16">
      <!-- 2022-08 -->
      <g transform="translate(625.132958 599.120313)scale(0.1 -0.1)">
       <use xlink:href="#DejaVuSans-32"/>
       <use xlink:href="#DejaVuSans-30" x="63.623047"/>
       <use xlink:href="#DejaVuSans-32" x="127.246094"/>
       <use xlink:href="#DejaVuSans-32" x="190.869141"/>
       <use xlink:href="#DejaVuSans-2d" x="254.492188"/>
       <use xlink:href="#DejaVuSans-30" x="290.576172"/>
       <use xlink:href="#DejaVuSans-38" x="354.199219"/>
      </g>
     </g>
    </g>
    <g id="xtick_21">
     <g id="line2d_55">
      <path d="M 729.597025 584.521875 
L 729.597025 331.941837 
" clip-path="url(#p62607f206f)" style="fill: none; stroke-dasharray: 2.96,1.28; stroke-dashoffset: 0; stroke: #b0b0b0; stroke-width: 0.8"/>
     </g>
     <g id="line2d_56">
      <g>
       <use xlink:href="#m567d7e8de7" x="729.597025" y="584.521875" style="stroke: #000000; stroke-width: 0.8"/>
      </g>
     </g>
     <g id="text_17">
      <!-- 2022-09 -->
      <g transform="translate(708.705619 599.120313)scale(0.1 -0.1)">
       <defs>
        <path id="DejaVuSans-39" d="M 703 97 
L 703 672 
Q 941 559 1184 500 
Q 1428 441 1663 441 
Q 2288 441 2617 861 
Q 2947 1281 2994 2138 
Q 2813 1869 2534 1725 
Q 2256 1581 1919 1581 
Q 1219 1581 811 2004 
Q 403 2428 403 3163 
Q 403 3881 828 4315 
Q 1253 4750 1959 4750 
Q 2769 4750 3195 4129 
Q 3622 3509 3622 2328 
Q 3622 1225 3098 567 
Q 2575 -91 1691 -91 
Q 1453 -91 1209 -44 
Q 966 3 703 97 
z
M 1959 2075 
Q 2384 2075 2632 2365 
Q 2881 2656 2881 3163 
Q 2881 3666 2632 3958 
Q 2384 4250 1959 4250 
Q 1534 4250 1286 3958 
Q 1038 3666 1038 3163 
Q 1038 2656 1286 2365 
Q 1534 2075 1959 2075 
z
" transform="scale(0.015625)"/>
       </defs>
       <use xlink:href="#DejaVuSans-32"/>
       <use xlink:href="#DejaVuSans-30" x="63.623047"/>
       <use xlink:href="#DejaVuSans-32" x="127.246094"/>
       <use xlink:href="#DejaVuSans-32" x="190.869141"/>
       <use xlink:href="#DejaVuSans-2d" x="254.492188"/>
       <use xlink:href="#DejaVuSans-30" x="290.576172"/>
       <use xlink:href="#DejaVuSans-39" x="354.199219"/>
      </g>
     </g>
    </g>
    <g id="xtick_22">
     <g id="line2d_57">
      <path d="M 810.473794 584.521875 
L 810.473794 331.941837 
" clip-path="url(#p62607f206f)" style="fill: none; stroke-dasharray: 2.96,1.28; stroke-dashoffset: 0; stroke: #b0b0b0; stroke-width: 0.8"/>
     </g>
     <g id="line2d_58">
      <g>
       <use xlink:href="#m567d7e8de7" x="810.473794" y="584.521875" style="stroke: #000000; stroke-width: 0.8"/>
      </g>
     </g>
     <g id="text_18">
      <!-- 2022-10 -->
      <g transform="translate(789.582387 599.120313)scale(0.1 -0.1)">
       <use xlink:href="#DejaVuSans-32"/>
       <use xlink:href="#DejaVuSans-30" x="63.623047"/>
       <use xlink:href="#DejaVuSans-32" x="127.246094"/>
       <use xlink:href="#DejaVuSans-32" x="190.869141"/>
       <use xlink:href="#DejaVuSans-2d" x="254.492188"/>
       <use xlink:href="#DejaVuSans-31" x="290.576172"/>
       <use xlink:href="#DejaVuSans-30" x="354.199219"/>
      </g>
     </g>
    </g>
    <g id="xtick_23">
     <g id="line2d_59">
      <path d="M 894.046455 584.521875 
L 894.046455 331.941837 
" clip-path="url(#p62607f206f)" style="fill: none; stroke-dasharray: 2.96,1.28; stroke-dashoffset: 0; stroke: #b0b0b0; stroke-width: 0.8"/>
     </g>
     <g id="line2d_60">
      <g>
       <use xlink:href="#m567d7e8de7" x="894.046455" y="584.521875" style="stroke: #000000; stroke-width: 0.8"/>
      </g>
     </g>
     <g id="text_19">
      <!-- 2022-11 -->
      <g transform="translate(873.155049 599.120313)scale(0.1 -0.1)">
       <use xlink:href="#DejaVuSans-32"/>
       <use xlink:href="#DejaVuSans-30" x="63.623047"/>
       <use xlink:href="#DejaVuSans-32" x="127.246094"/>
       <use xlink:href="#DejaVuSans-32" x="190.869141"/>
       <use xlink:href="#DejaVuSans-2d" x="254.492188"/>
       <use xlink:href="#DejaVuSans-31" x="290.576172"/>
       <use xlink:href="#DejaVuSans-31" x="354.199219"/>
      </g>
     </g>
    </g>
    <g id="xtick_24">
     <g id="line2d_61">
      <path d="M 974.923224 584.521875 
L 974.923224 331.941837 
" clip-path="url(#p62607f206f)" style="fill: none; stroke-dasharray: 2.96,1.28; stroke-dashoffset: 0; stroke: #b0b0b0; stroke-width: 0.8"/>
     </g>
     <g id="line2d_62">
      <g>
       <use xlink:href="#m567d7e8de7" x="974.923224" y="584.521875" style="stroke: #000000; stroke-width: 0.8"/>
      </g>
     </g>
     <g id="text_20">
      <!-- 2022-12 -->
      <g transform="translate(954.031817 599.120313)scale(0.1 -0.1)">
       <use xlink:href="#DejaVuSans-32"/>
       <use xlink:href="#DejaVuSans-30" x="63.623047"/>
       <use xlink:href="#DejaVuSans-32" x="127.246094"/>
       <use xlink:href="#DejaVuSans-32" x="190.869141"/>
       <use xlink:href="#DejaVuSans-2d" x="254.492188"/>
       <use xlink:href="#DejaVuSans-31" x="290.576172"/>
       <use xlink:href="#DejaVuSans-32" x="354.199219"/>
      </g>
     </g>
    </g>
   </g>
   <g id="matplotlib.axis_4">
    <g id="ytick_6">
     <g id="line2d_63">
      <path d="M 36.8875 570.816833 
L 982.876106 570.816833 
" clip-path="url(#p62607f206f)" style="fill: none; stroke-dasharray: 2.96,1.28; stroke-dashoffset: 0; stroke: #b0b0b0; stroke-width: 0.8"/>
     </g>
     <g id="line2d_64">
      <g>
       <use xlink:href="#m6f0c01813c" x="36.8875" y="570.816833" style="stroke: #000000; stroke-width: 0.8"/>
      </g>
     </g>
     <g id="text_21">
      <!-- −4 -->
      <g transform="translate(15.145313 574.616051)scale(0.1 -0.1)">
       <defs>
        <path id="DejaVuSans-2212" d="M 678 2272 
L 4684 2272 
L 4684 1741 
L 678 1741 
L 678 2272 
z
" transform="scale(0.015625)"/>
       </defs>
       <use xlink:href="#DejaVuSans-2212"/>
       <use xlink:href="#DejaVuSans-34" x="83.789062"/>
      </g>
     </g>
    </g>
    <g id="ytick_7">
     <g id="line2d_65">
      <path d="M 36.8875 530.881956 
L 982.876106 530.881956 
" clip-path="url(#p62607f206f)" style="fill: none; stroke-dasharray: 2.96,1.28; stroke-dashoffset: 0; stroke: #b0b0b0; stroke-width: 0.8"/>
     </g>
     <g id="line2d_66">
      <g>
       <use xlink:href="#m6f0c01813c" x="36.8875" y="530.881956" style="stroke: #000000; stroke-width: 0.8"/>
      </g>
     </g>
     <g id="text_22">
      <!-- −2 -->
      <g transform="translate(15.145313 534.681174)scale(0.1 -0.1)">
       <use xlink:href="#DejaVuSans-2212"/>
       <use xlink:href="#DejaVuSans-32" x="83.789062"/>
      </g>
     </g>
    </g>
    <g id="ytick_8">
     <g id="line2d_67">
      <path d="M 36.8875 490.947079 
L 982.876106 490.947079 
" clip-path="url(#p62607f206f)" style="fill: none; stroke-dasharray: 2.96,1.28; stroke-dashoffset: 0; stroke: #b0b0b0; stroke-width: 0.8"/>
     </g>
     <g id="line2d_68">
      <g>
       <use xlink:href="#m6f0c01813c" x="36.8875" y="490.947079" style="stroke: #000000; stroke-width: 0.8"/>
      </g>
     </g>
     <g id="text_23">
      <!-- 0 -->
      <g transform="translate(23.525 494.746297)scale(0.1 -0.1)">
       <use xlink:href="#DejaVuSans-30"/>
      </g>
     </g>
    </g>
    <g id="ytick_9">
     <g id="line2d_69">
      <path d="M 36.8875 451.012202 
L 982.876106 451.012202 
" clip-path="url(#p62607f206f)" style="fill: none; stroke-dasharray: 2.96,1.28; stroke-dashoffset: 0; stroke: #b0b0b0; stroke-width: 0.8"/>
     </g>
     <g id="line2d_70">
      <g>
       <use xlink:href="#m6f0c01813c" x="36.8875" y="451.012202" style="stroke: #000000; stroke-width: 0.8"/>
      </g>
     </g>
     <g id="text_24">
      <!-- 2 -->
      <g transform="translate(23.525 454.81142)scale(0.1 -0.1)">
       <use xlink:href="#DejaVuSans-32"/>
      </g>
     </g>
    </g>
    <g id="ytick_10">
     <g id="line2d_71">
      <path d="M 36.8875 411.077325 
L 982.876106 411.077325 
" clip-path="url(#p62607f206f)" style="fill: none; stroke-dasharray: 2.96,1.28; stroke-dashoffset: 0; stroke: #b0b0b0; stroke-width: 0.8"/>
     </g>
     <g id="line2d_72">
      <g>
       <use xlink:href="#m6f0c01813c" x="36.8875" y="411.077325" style="stroke: #000000; stroke-width: 0.8"/>
      </g>
     </g>
     <g id="text_25">
      <!-- 4 -->
      <g transform="translate(23.525 414.876543)scale(0.1 -0.1)">
       <use xlink:href="#DejaVuSans-34"/>
      </g>
     </g>
    </g>
    <g id="ytick_11">
     <g id="line2d_73">
      <path d="M 36.8875 371.142448 
L 982.876106 371.142448 
" clip-path="url(#p62607f206f)" style="fill: none; stroke-dasharray: 2.96,1.28; stroke-dashoffset: 0; stroke: #b0b0b0; stroke-width: 0.8"/>
     </g>
     <g id="line2d_74">
      <g>
       <use xlink:href="#m6f0c01813c" x="36.8875" y="371.142448" style="stroke: #000000; stroke-width: 0.8"/>
      </g>
     </g>
     <g id="text_26">
      <!-- 6 -->
      <g transform="translate(23.525 374.941667)scale(0.1 -0.1)">
       <use xlink:href="#DejaVuSans-36"/>
      </g>
     </g>
    </g>
   </g>
   <g id="line2d_75">
    <path d="M 79.886982 490.947079 
L 82.582874 490.90228 
L 85.278767 490.270807 
L 90.670551 487.212794 
L 98.758228 482.459241 
L 101.45412 479.511713 
L 104.150013 477.196865 
L 106.845905 474.663835 
L 109.541797 473.412427 
L 117.629474 472.594483 
L 120.325366 473.889736 
L 125.717151 468.140317 
L 128.413043 471.002154 
L 136.50072 473.545486 
L 139.196613 468.410596 
L 144.588397 458.460041 
L 147.284289 451.46427 
L 155.371966 441.017098 
L 158.067859 435.393205 
L 160.763751 427.348212 
L 163.459643 421.659432 
L 166.155535 422.176998 
L 174.243212 414.50586 
L 176.939105 402.419879 
L 179.634997 398.425186 
L 182.330889 396.60295 
L 185.026782 397.933632 
L 193.114458 410.856249 
L 195.810351 415.962663 
L 198.506243 425.449861 
L 201.202135 435.544032 
L 203.898028 444.59576 
L 211.985704 454.59998 
L 214.681597 461.192274 
L 217.377489 462.318497 
L 220.073381 474.507604 
L 222.769274 474.659622 
L 230.856951 475.346903 
L 236.248735 481.34326 
L 238.944627 486.915155 
L 241.64052 494.478905 
L 249.728197 512.319222 
L 252.424089 518.852136 
L 255.119981 521.478451 
L 257.815873 518.526176 
L 260.511766 511.93046 
L 268.599443 502.627712 
L 271.295335 496.769454 
L 273.991227 489.299875 
L 276.68712 483.076604 
L 287.470689 480.565285 
L 290.166581 478.24586 
L 292.862473 477.438337 
L 295.558366 477.117332 
L 298.254258 473.323846 
L 306.341935 465.116885 
L 309.037827 459.613509 
L 311.733719 451.793261 
L 314.429612 449.904178 
L 317.125504 441.939236 
L 325.213181 436.100559 
L 327.909073 432.310444 
L 330.604965 423.836844 
L 335.99675 414.417163 
L 346.780319 410.611638 
L 349.476211 411.830131 
L 362.955673 422.492418 
L 365.651565 432.975205 
L 368.347458 442.563212 
L 371.04335 448.562304 
L 373.739242 457.636688 
L 381.826919 465.602338 
L 384.522811 465.220284 
L 387.218704 464.260743 
L 389.914596 464.448992 
L 392.610488 469.349729 
L 400.698165 473.673933 
L 406.08995 484.573382 
L 408.785842 496.843131 
L 411.481734 507.820277 
L 419.569411 518.932333 
L 422.265303 530.898687 
L 424.961196 539.420767 
L 427.657088 553.818997 
L 430.35298 566.053752 
L 438.440657 567.064978 
L 441.136549 563.329231 
L 443.832442 563.87474 
L 446.528334 568.484774 
L 449.224226 566.198779 
L 457.311903 567.211385 
L 460.007795 569.284645 
L 462.703688 573.040964 
L 465.39958 567.963647 
L 468.095472 562.630334 
L 476.183149 553.017578 
L 478.879042 546.848742 
L 481.574934 538.830909 
L 484.270826 529.137286 
L 486.966718 523.495884 
L 495.054395 518.864294 
L 497.750288 515.156273 
L 500.44618 509.347692 
L 503.142072 502.198401 
L 505.837964 496.38927 
L 513.925641 499.97749 
L 516.621534 501.730319 
L 519.317426 503.697386 
L 522.013318 509.233978 
L 524.709211 517.26526 
L 532.796887 529.4689 
L 535.49278 530.787163 
L 538.188672 532.32156 
L 540.884564 531.459533 
L 543.580457 524.748059 
L 551.668133 519.024952 
L 554.364026 511.752359 
L 557.059918 506.454453 
L 559.75581 508.099687 
L 562.451703 509.909945 
L 570.53938 508.723016 
L 573.235272 507.271959 
L 575.931164 504.674843 
L 578.627056 493.643772 
L 581.322949 484.014806 
L 589.410626 470.258278 
L 592.106518 460.193983 
L 594.80241 453.93355 
L 597.498302 454.627034 
L 600.194195 457.415982 
L 608.281872 453.691622 
L 610.977764 443.712073 
L 613.673656 437.466957 
L 616.369549 430.157188 
L 619.065441 421.698385 
L 627.153118 417.293812 
L 629.84901 412.611633 
L 632.544902 407.048543 
L 635.240795 405.39821 
L 637.936687 406.513671 
L 646.024364 408.270174 
L 648.720256 401.907645 
L 651.416148 399.052433 
L 654.112041 401.765106 
L 656.807933 406.021719 
L 664.89561 409.766993 
L 670.287394 412.989323 
L 672.983287 409.154963 
L 675.679179 407.162583 
L 686.462748 409.104945 
L 689.15864 403.515599 
L 691.854533 404.433509 
L 694.550425 411.793146 
L 702.638102 421.806239 
L 705.333994 422.156433 
L 708.029887 423.055457 
L 710.725779 420.790346 
L 713.421671 415.992382 
L 721.509348 416.273155 
L 724.20524 410.096702 
L 729.597025 402.037589 
L 732.292917 400.400216 
L 740.380594 395.848579 
L 743.076486 394.003361 
L 745.772379 392.46782 
L 748.468271 385.776741 
L 751.164163 382.210818 
L 759.25184 379.38189 
L 761.947732 378.755461 
L 764.643625 376.676091 
L 767.339517 376.986325 
L 770.035409 382.988043 
L 778.123086 382.867745 
L 780.818978 383.129105 
L 783.514871 384.960779 
L 786.210763 392.222917 
L 788.906655 408.515102 
L 796.994332 429.147897 
L 799.690225 446.654594 
L 802.386117 462.94612 
L 805.082009 474.436392 
L 807.777901 475.742325 
L 815.865578 483.867633 
L 818.561471 481.155443 
L 823.953255 477.389966 
L 826.649147 473.957166 
L 834.736824 476.399082 
L 837.432717 482.619446 
L 840.128609 482.251827 
L 842.824501 486.761786 
L 845.520393 489.626146 
L 853.60807 482.806147 
L 856.303963 470.38782 
L 858.999855 465.43226 
L 861.695747 457.221219 
L 864.39164 446.632803 
L 872.479316 437.408481 
L 875.175209 424.579485 
L 880.566993 413.134263 
L 883.262886 409.354644 
L 891.350562 406.208241 
L 894.046455 404.708795 
L 896.742347 405.552137 
L 899.438239 405.433908 
L 902.134132 412.050026 
L 910.221809 396.151459 
L 915.613593 372.112499 
L 918.309485 355.986714 
L 921.005378 350.784085 
L 929.093055 344.880635 
L 931.788947 343.433202 
L 934.484839 343.422748 
L 937.180731 344.458608 
L 939.876624 347.895271 
L 939.876624 347.895271 
" clip-path="url(#p62607f206f)" style="fill: none; stroke: #1f77b4; stroke-width: 1.5; stroke-linecap: square"/>
   </g>
   <g id="line2d_76">
    <path d="M 79.886982 490.947079 
L 82.582874 490.922191 
L 85.278767 490.65523 
L 87.974659 490.018166 
L 90.670551 489.183631 
L 98.758228 487.360947 
L 106.845905 481.389033 
L 109.541797 479.60181 
L 117.629474 478.068647 
L 120.325366 477.171192 
L 123.021259 475.868556 
L 125.717151 474.251803 
L 128.413043 473.578172 
L 136.50072 473.571445 
L 139.196613 472.515498 
L 144.588397 469.652837 
L 147.284289 465.961932 
L 155.371966 460.914776 
L 158.067859 455.762944 
L 163.459643 444.328387 
L 166.155535 439.877088 
L 174.243212 434.7836 
L 176.939105 428.291234 
L 179.634997 422.303547 
L 182.330889 417.153466 
L 185.026782 413.303542 
L 193.114458 412.813476 
L 195.810351 413.443938 
L 198.506243 415.847026 
L 201.202135 419.788926 
L 203.898028 424.75281 
L 211.985704 430.724666 
L 214.681597 436.820166 
L 217.377489 441.921156 
L 220.073381 448.4398 
L 222.769274 453.684636 
L 230.856951 458.017665 
L 236.248735 462.68328 
L 238.944627 467.530068 
L 241.64052 472.920202 
L 249.728197 480.800435 
L 252.424089 488.411107 
L 255.119981 495.024806 
L 257.815873 499.725211 
L 260.511766 502.166315 
L 268.599443 502.258596 
L 271.295335 501.160752 
L 273.991227 498.78855 
L 276.68712 495.646132 
L 287.470689 492.62994 
L 290.166581 489.753107 
L 292.862473 487.290142 
L 295.558366 485.255572 
L 298.254258 482.86922 
L 306.341935 479.318744 
L 309.037827 475.37769 
L 311.733719 470.660797 
L 314.429612 466.509468 
L 317.125504 461.595417 
L 325.213181 456.496441 
L 327.909073 451.659239 
L 333.300858 440.690314 
L 335.99675 435.435682 
L 344.084427 430.677116 
L 346.780319 426.664019 
L 349.476211 423.697241 
L 362.955673 423.456277 
L 365.651565 425.360062 
L 368.347458 428.800693 
L 371.04335 432.753015 
L 373.739242 437.72975 
L 381.826919 443.304268 
L 384.522811 447.687471 
L 387.218704 451.002126 
L 389.914596 453.691499 
L 392.610488 456.823145 
L 400.698165 460.193303 
L 406.08995 465.069319 
L 408.785842 471.424081 
L 411.481734 478.70332 
L 419.569411 486.749123 
L 424.961196 504.347382 
L 427.657088 514.241705 
L 430.35298 524.604115 
L 438.440657 533.096287 
L 441.136549 539.142876 
L 446.528334 548.968354 
L 449.224226 552.414439 
L 457.311903 555.373828 
L 460.007795 558.155992 
L 462.703688 561.132986 
L 465.39958 562.499118 
L 468.095472 562.525361 
L 476.183149 560.623805 
L 478.879042 557.868792 
L 481.574934 554.061215 
L 486.966718 543.96032 
L 495.054395 538.941115 
L 500.44618 529.216856 
L 505.837964 518.328386 
L 513.925641 514.658207 
L 516.621534 512.072629 
L 519.317426 510.39758 
L 522.013318 510.16486 
L 524.709211 511.58494 
L 532.796887 515.161732 
L 535.49278 518.286818 
L 538.188672 521.093766 
L 540.884564 523.16692 
L 543.580457 523.483148 
L 551.668133 522.591508 
L 554.364026 520.423679 
L 557.059918 517.629833 
L 559.75581 515.723804 
L 562.451703 514.561032 
L 570.53938 513.393429 
L 573.235272 512.169135 
L 575.931164 510.670277 
L 578.627056 507.264976 
L 581.322949 502.614942 
L 589.410626 496.143609 
L 594.80241 481.949657 
L 597.498302 476.485132 
L 600.194195 472.671302 
L 608.281872 468.875366 
L 610.977764 463.842707 
L 613.673656 458.567557 
L 616.369549 452.885484 
L 619.065441 446.648064 
L 627.153118 440.777213 
L 632.544902 429.524986 
L 635.240795 424.699631 
L 637.936687 421.062439 
L 646.024364 418.503986 
L 651.416148 411.958261 
L 654.112041 409.91963 
L 656.807933 409.140048 
L 664.89561 409.265437 
L 670.287394 410.010214 
L 672.983287 409.839164 
L 675.679179 409.303848 
L 686.462748 409.264067 
L 689.15864 408.114373 
L 691.854533 407.378201 
L 702.638102 410.9702 
L 705.333994 413.207446 
L 708.029887 415.177048 
L 710.725779 416.299708 
L 713.421671 416.238243 
L 721.509348 416.245225 
L 724.20524 415.015521 
L 729.597025 412.419934 
L 732.292917 410.015991 
L 740.380594 407.182508 
L 743.076486 404.546679 
L 745.772379 402.130907 
L 751.164163 395.530223 
L 759.25184 392.300556 
L 764.643625 387.008448 
L 767.339517 385.004023 
L 770.035409 384.600827 
L 780.818978 384.02919 
L 783.514871 384.215508 
L 786.210763 385.81699 
L 788.906655 390.356612 
L 796.994332 398.114869 
L 799.690225 407.822814 
L 805.082009 429.965259 
L 807.777901 439.120672 
L 815.865578 448.070064 
L 818.561471 454.68714 
L 823.953255 459.227705 
L 826.649147 462.173597 
L 834.736824 465.018694 
L 837.432717 468.538845 
L 840.128609 471.281441 
L 845.520393 477.427237 
L 853.60807 478.503019 
L 856.303963 476.879979 
L 858.999855 474.590435 
L 861.695747 471.116592 
L 864.39164 466.219834 
L 872.479316 460.457564 
L 875.175209 453.281948 
L 880.566993 445.252411 
L 883.262886 438.072857 
L 891.350562 431.699934 
L 894.046455 426.301706 
L 896.742347 422.151792 
L 899.438239 418.808215 
L 902.134132 417.456577 
L 910.221809 413.195554 
L 915.613593 404.978943 
L 918.309485 395.180497 
L 921.005378 386.301215 
L 929.093055 378.017099 
L 931.788947 371.10032 
L 934.484839 365.564805 
L 937.180731 361.343566 
L 939.876624 358.653907 
L 939.876624 358.653907 
" clip-path="url(#p62607f206f)" style="fill: none; stroke: #ff7f0e; stroke-width: 1.5; stroke-linecap: square"/>
   </g>
   <g id="patch_9">
    <path d="M 36.8875 584.521875 
L 36.8875 331.941837 
" style="fill: none; stroke: #000000; stroke-width: 0.8; stroke-linejoin: miter; stroke-linecap: square"/>
   </g>
   <g id="patch_10">
    <path d="M 982.876106 584.521875 
L 982.876106 331.941837 
" style="fill: none; stroke: #000000; stroke-width: 0.8; stroke-linejoin: miter; stroke-linecap: square"/>
   </g>
   <g id="patch_11">
    <path d="M 36.8875 584.521875 
L 982.876106 584.521875 
" style="fill: none; stroke: #000000; stroke-width: 0.8; stroke-linejoin: miter; stroke-linecap: square"/>
   </g>
   <g id="patch_12">
    <path d="M 36.8875 331.941837 
L 982.876106 331.941837 
" style="fill: none; stroke: #000000; stroke-width: 0.8; stroke-linejoin: miter; stroke-linecap: square"/>
   </g>
   <g id="text_27">
    <!-- MACD -->
    <g transform="translate(491.895865 325.941837)scale(0.12 -0.12)">
     <defs>
      <path id="DejaVuSans-44" d="M 1259 4147 
L 1259 519 
L 2022 519 
Q 2988 519 3436 956 
Q 3884 1394 3884 2338 
Q 3884 3275 3436 3711 
Q 2988 4147 2022 4147 
L 1259 4147 
z
M 628 4666 
L 1925 4666 
Q 3281 4666 3915 4102 
Q 4550 3538 4550 2338 
Q 4550 1131 3912 565 
Q 3275 0 1925 0 
L 628 0 
L 628 4666 
z
" transform="scale(0.015625)"/>
     </defs>
     <use xlink:href="#DejaVuSans-4d"/>
     <use xlink:href="#DejaVuSans-41" x="86.279297"/>
     <use xlink:href="#DejaVuSans-43" x="152.9375"/>
     <use xlink:href="#DejaVuSans-44" x="222.761719"/>
    </g>
   </g>
   <g id="legend_2">
    <g id="patch_13">
     <path d="M 43.8875 369.298087 
L 105.864063 369.298087 
Q 107.864063 369.298087 107.864063 367.298087 
L 107.864063 338.941837 
Q 107.864063 336.941837 105.864063 336.941837 
L 43.8875 336.941837 
Q 41.8875 336.941837 41.8875 338.941837 
L 41.8875 367.298087 
Q 41.8875 369.298087 43.8875 369.298087 
z
" style="fill: #ffffff; opacity: 0.8; stroke: #cccccc; stroke-linejoin: miter"/>
    </g>
    <g id="line2d_77">
     <path d="M 45.8875 345.040274 
L 55.8875 345.040274 
L 65.8875 345.040274 
" style="fill: none; stroke: #1f77b4; stroke-width: 1.5; stroke-linecap: square"/>
    </g>
    <g id="text_28">
     <!-- MACD -->
     <g transform="translate(73.8875 348.540274)scale(0.1 -0.1)">
      <use xlink:href="#DejaVuSans-4d"/>
      <use xlink:href="#DejaVuSans-41" x="86.279297"/>
      <use xlink:href="#DejaVuSans-43" x="152.9375"/>
      <use xlink:href="#DejaVuSans-44" x="222.761719"/>
     </g>
    </g>
    <g id="line2d_78">
     <path d="M 45.8875 359.718399 
L 55.8875 359.718399 
L 65.8875 359.718399 
" style="fill: none; stroke: #ff7f0e; stroke-width: 1.5; stroke-linecap: square"/>
    </g>
    <g id="text_29">
     <!-- SIG -->
     <g transform="translate(73.8875 363.218399)scale(0.1 -0.1)">
      <defs>
       <path id="DejaVuSans-49" d="M 628 4666 
L 1259 4666 
L 1259 0 
L 628 0 
L 628 4666 
z
" transform="scale(0.015625)"/>
       <path id="DejaVuSans-47" d="M 3809 666 
L 3809 1919 
L 2778 1919 
L 2778 2438 
L 4434 2438 
L 4434 434 
Q 4069 175 3628 42 
Q 3188 -91 2688 -91 
Q 1594 -91 976 548 
Q 359 1188 359 2328 
Q 359 3472 976 4111 
Q 1594 4750 2688 4750 
Q 3144 4750 3555 4637 
Q 3966 4525 4313 4306 
L 4313 3634 
Q 3963 3931 3569 4081 
Q 3175 4231 2741 4231 
Q 1884 4231 1454 3753 
Q 1025 3275 1025 2328 
Q 1025 1384 1454 906 
Q 1884 428 2741 428 
Q 3075 428 3337 486 
Q 3600 544 3809 666 
z
" transform="scale(0.015625)"/>
      </defs>
      <use xlink:href="#DejaVuSans-53"/>
      <use xlink:href="#DejaVuSans-49" x="63.476562"/>
      <use xlink:href="#DejaVuSans-47" x="92.96875"/>
     </g>
    </g>
   </g>
  </g>
  <g id="text_30">
   <!-- Bank of Baroda -->
   <g transform="translate(458.050313 21.358125)scale(0.12 -0.12)">
    <defs>
     <path id="DejaVuSans-42" d="M 1259 2228 
L 1259 519 
L 2272 519 
Q 2781 519 3026 730 
Q 3272 941 3272 1375 
Q 3272 1813 3026 2020 
Q 2781 2228 2272 2228 
L 1259 2228 
z
M 1259 4147 
L 1259 2741 
L 2194 2741 
Q 2656 2741 2882 2914 
Q 3109 3088 3109 3444 
Q 3109 3797 2882 3972 
Q 2656 4147 2194 4147 
L 1259 4147 
z
M 628 4666 
L 2241 4666 
Q 2963 4666 3353 4366 
Q 3744 4066 3744 3513 
Q 3744 3084 3544 2831 
Q 3344 2578 2956 2516 
Q 3422 2416 3680 2098 
Q 3938 1781 3938 1306 
Q 3938 681 3513 340 
Q 3088 0 2303 0 
L 628 0 
L 628 4666 
z
" transform="scale(0.015625)"/>
     <path id="DejaVuSans-61" d="M 2194 1759 
Q 1497 1759 1228 1600 
Q 959 1441 959 1056 
Q 959 750 1161 570 
Q 1363 391 1709 391 
Q 2188 391 2477 730 
Q 2766 1069 2766 1631 
L 2766 1759 
L 2194 1759 
z
M 3341 1997 
L 3341 0 
L 2766 0 
L 2766 531 
Q 2569 213 2275 61 
Q 1981 -91 1556 -91 
Q 1019 -91 701 211 
Q 384 513 384 1019 
Q 384 1609 779 1909 
Q 1175 2209 1959 2209 
L 2766 2209 
L 2766 2266 
Q 2766 2663 2505 2880 
Q 2244 3097 1772 3097 
Q 1472 3097 1187 3025 
Q 903 2953 641 2809 
L 641 3341 
Q 956 3463 1253 3523 
Q 1550 3584 1831 3584 
Q 2591 3584 2966 3190 
Q 3341 2797 3341 1997 
z
" transform="scale(0.015625)"/>
     <path id="DejaVuSans-6b" d="M 581 4863 
L 1159 4863 
L 1159 1991 
L 2875 3500 
L 3609 3500 
L 1753 1863 
L 3688 0 
L 2938 0 
L 1159 1709 
L 1159 0 
L 581 0 
L 581 4863 
z
" transform="scale(0.015625)"/>
     <path id="DejaVuSans-66" d="M 2375 4863 
L 2375 4384 
L 1825 4384 
Q 1516 4384 1395 4259 
Q 1275 4134 1275 3809 
L 1275 3500 
L 2222 3500 
L 2222 3053 
L 1275 3053 
L 1275 0 
L 697 0 
L 697 3053 
L 147 3053 
L 147 3500 
L 697 3500 
L 697 3744 
Q 697 4328 969 4595 
Q 1241 4863 1831 4863 
L 2375 4863 
z
" transform="scale(0.015625)"/>
     <path id="DejaVuSans-64" d="M 2906 2969 
L 2906 4863 
L 3481 4863 
L 3481 0 
L 2906 0 
L 2906 525 
Q 2725 213 2448 61 
Q 2172 -91 1784 -91 
Q 1150 -91 751 415 
Q 353 922 353 1747 
Q 353 2572 751 3078 
Q 1150 3584 1784 3584 
Q 2172 3584 2448 3432 
Q 2725 3281 2906 2969 
z
M 947 1747 
Q 947 1113 1208 752 
Q 1469 391 1925 391 
Q 2381 391 2643 752 
Q 2906 1113 2906 1747 
Q 2906 2381 2643 2742 
Q 2381 3103 1925 3103 
Q 1469 3103 1208 2742 
Q 947 2381 947 1747 
z
" transform="scale(0.015625)"/>
    </defs>
    <use xlink:href="#DejaVuSans-42"/>
    <use xlink:href="#DejaVuSans-61" x="68.603516"/>
    <use xlink:href="#DejaVuSans-6e" x="129.882812"/>
    <use xlink:href="#DejaVuSans-6b" x="193.261719"/>
    <use xlink:href="#DejaVuSans-20" x="251.171875"/>
    <use xlink:href="#DejaVuSans-6f" x="282.958984"/>
    <use xlink:href="#DejaVuSans-66" x="344.140625"/>
    <use xlink:href="#DejaVuSans-20" x="379.345703"/>
    <use xlink:href="#DejaVuSans-42" x="411.132812"/>
    <use xlink:href="#DejaVuSans-61" x="479.736328"/>
    <use xlink:href="#DejaVuSans-72" x="541.015625"/>
    <use xlink:href="#DejaVuSans-6f" x="579.878906"/>
    <use xlink:href="#DejaVuSans-64" x="641.060547"/>
    <use xlink:href="#DejaVuSans-61" x="704.537109"/>
   </g>
  </g>
 </g>
 <defs>
  <clipPath id="pa550df894c">
   <rect x="36.8875" y="48.331875" width="945.988606" height="252.580038"/>
  </clipPath>
  <clipPath id="p62607f206f">
   <rect x="36.8875" y="331.941837" width="945.988606" height="252.580038"/>
  </clipPath>
 </defs>
</svg>
