<?xml version="1.0" encoding="utf-8" standalone="no"?>
<!DOCTYPE svg PUBLIC "-//W3C//DTD SVG 1.1//EN"
  "http://www.w3.org/Graphics/SVG/1.1/DTD/svg11.dtd">
<svg xmlns:xlink="http://www.w3.org/1999/xlink" width="1008pt" height="612pt" viewBox="0 0 1008 612" xmlns="http://www.w3.org/2000/svg" version="1.1">
 <metadata>
  <rdf:RDF xmlns:dc="http://purl.org/dc/elements/1.1/" xmlns:cc="http://creativecommons.org/ns#" xmlns:rdf="http://www.w3.org/1999/02/22-rdf-syntax-ns#">
   <cc:Work>
    <dc:type rdf:resource="http://purl.org/dc/dcmitype/StillImage"/>
    <dc:date>2022-11-20T19:47:33.258139</dc:date>
    <dc:format>image/svg+xml</dc:format>
    <dc:creator>
     <cc:Agent>
      <dc:title>Matplotlib v3.5.2, https://matplotlib.org/</dc:title>
     </cc:Agent>
    </dc:creator>
   </cc:Work>
  </rdf:RDF>
 </metadata>
 <defs>
  <style type="text/css">*{stroke-linejoin: round; stroke-linecap: butt}</style>
 </defs>
 <g id="figure_1">
  <g id="patch_1">
   <path d="M 0 612 
L 1008 612 
L 1008 0 
L 0 0 
z
" style="fill: #ffffff"/>
  </g>
  <g id="axes_1">
   <g id="patch_2">
    <path d="M 45.267188 301.717812 
L 982.876106 301.717812 
L 982.876106 48.331875 
L 45.267188 48.331875 
z
" style="fill: #ffffff"/>
   </g>
   <g id="matplotlib.axis_1">
    <g id="xtick_1">
     <g id="line2d_1">
      <path d="M 82.541751 301.717812 
L 82.541751 48.331875 
" clip-path="url(#pf07ad1dbdd)" style="fill: none; stroke-dasharray: 2.96,1.28; stroke-dashoffset: 0; stroke: #b0b0b0; stroke-width: 0.8"/>
     </g>
     <g id="line2d_2">
      <defs>
       <path id="m5330ff12a3" d="M 0 0 
L 0 3.5 
" style="stroke: #000000; stroke-width: 0.8"/>
      </defs>
      <g>
       <use xlink:href="#m5330ff12a3" x="82.541751" y="301.717812" style="stroke: #000000; stroke-width: 0.8"/>
      </g>
     </g>
    </g>
    <g id="xtick_2">
     <g id="line2d_3">
      <path d="M 165.374115 301.717812 
L 165.374115 48.331875 
" clip-path="url(#pf07ad1dbdd)" style="fill: none; stroke-dasharray: 2.96,1.28; stroke-dashoffset: 0; stroke: #b0b0b0; stroke-width: 0.8"/>
     </g>
     <g id="line2d_4">
      <g>
       <use xlink:href="#m5330ff12a3" x="165.374115" y="301.717812" style="stroke: #000000; stroke-width: 0.8"/>
      </g>
     </g>
    </g>
    <g id="xtick_3">
     <g id="line2d_5">
      <path d="M 240.190444 301.717812 
L 240.190444 48.331875 
" clip-path="url(#pf07ad1dbdd)" style="fill: none; stroke-dasharray: 2.96,1.28; stroke-dashoffset: 0; stroke: #b0b0b0; stroke-width: 0.8"/>
     </g>
     <g id="line2d_6">
      <g>
       <use xlink:href="#m5330ff12a3" x="240.190444" y="301.717812" style="stroke: #000000; stroke-width: 0.8"/>
      </g>
     </g>
    </g>
    <g id="xtick_4">
     <g id="line2d_7">
      <path d="M 323.022808 301.717812 
L 323.022808 48.331875 
" clip-path="url(#pf07ad1dbdd)" style="fill: none; stroke-dasharray: 2.96,1.28; stroke-dashoffset: 0; stroke: #b0b0b0; stroke-width: 0.8"/>
     </g>
     <g id="line2d_8">
      <g>
       <use xlink:href="#m5330ff12a3" x="323.022808" y="301.717812" style="stroke: #000000; stroke-width: 0.8"/>
      </g>
     </g>
    </g>
    <g id="xtick_5">
     <g id="line2d_9">
      <path d="M 403.18316 301.717812 
L 403.18316 48.331875 
" clip-path="url(#pf07ad1dbdd)" style="fill: none; stroke-dasharray: 2.96,1.28; stroke-dashoffset: 0; stroke: #b0b0b0; stroke-width: 0.8"/>
     </g>
     <g id="line2d_10">
      <g>
       <use xlink:href="#m5330ff12a3" x="403.18316" y="301.717812" style="stroke: #000000; stroke-width: 0.8"/>
      </g>
     </g>
    </g>
    <g id="xtick_6">
     <g id="line2d_11">
      <path d="M 486.015523 301.717812 
L 486.015523 48.331875 
" clip-path="url(#pf07ad1dbdd)" style="fill: none; stroke-dasharray: 2.96,1.28; stroke-dashoffset: 0; stroke: #b0b0b0; stroke-width: 0.8"/>
     </g>
     <g id="line2d_12">
      <g>
       <use xlink:href="#m5330ff12a3" x="486.015523" y="301.717812" style="stroke: #000000; stroke-width: 0.8"/>
      </g>
     </g>
    </g>
    <g id="xtick_7">
     <g id="line2d_13">
      <path d="M 566.175876 301.717812 
L 566.175876 48.331875 
" clip-path="url(#pf07ad1dbdd)" style="fill: none; stroke-dasharray: 2.96,1.28; stroke-dashoffset: 0; stroke: #b0b0b0; stroke-width: 0.8"/>
     </g>
     <g id="line2d_14">
      <g>
       <use xlink:href="#m5330ff12a3" x="566.175876" y="301.717812" style="stroke: #000000; stroke-width: 0.8"/>
      </g>
     </g>
    </g>
    <g id="xtick_8">
     <g id="line2d_15">
      <path d="M 649.008239 301.717812 
L 649.008239 48.331875 
" clip-path="url(#pf07ad1dbdd)" style="fill: none; stroke-dasharray: 2.96,1.28; stroke-dashoffset: 0; stroke: #b0b0b0; stroke-width: 0.8"/>
     </g>
     <g id="line2d_16">
      <g>
       <use xlink:href="#m5330ff12a3" x="649.008239" y="301.717812" style="stroke: #000000; stroke-width: 0.8"/>
      </g>
     </g>
    </g>
    <g id="xtick_9">
     <g id="line2d_17">
      <path d="M 731.840603 301.717812 
L 731.840603 48.331875 
" clip-path="url(#pf07ad1dbdd)" style="fill: none; stroke-dasharray: 2.96,1.28; stroke-dashoffset: 0; stroke: #b0b0b0; stroke-width: 0.8"/>
     </g>
     <g id="line2d_18">
      <g>
       <use xlink:href="#m5330ff12a3" x="731.840603" y="301.717812" style="stroke: #000000; stroke-width: 0.8"/>
      </g>
     </g>
    </g>
    <g id="xtick_10">
     <g id="line2d_19">
      <path d="M 812.000955 301.717812 
L 812.000955 48.331875 
" clip-path="url(#pf07ad1dbdd)" style="fill: none; stroke-dasharray: 2.96,1.28; stroke-dashoffset: 0; stroke: #b0b0b0; stroke-width: 0.8"/>
     </g>
     <g id="line2d_20">
      <g>
       <use xlink:href="#m5330ff12a3" x="812.000955" y="301.717812" style="stroke: #000000; stroke-width: 0.8"/>
      </g>
     </g>
    </g>
    <g id="xtick_11">
     <g id="line2d_21">
      <path d="M 894.833319 301.717812 
L 894.833319 48.331875 
" clip-path="url(#pf07ad1dbdd)" style="fill: none; stroke-dasharray: 2.96,1.28; stroke-dashoffset: 0; stroke: #b0b0b0; stroke-width: 0.8"/>
     </g>
     <g id="line2d_22">
      <g>
       <use xlink:href="#m5330ff12a3" x="894.833319" y="301.717812" style="stroke: #000000; stroke-width: 0.8"/>
      </g>
     </g>
    </g>
    <g id="xtick_12">
     <g id="line2d_23">
      <path d="M 974.993671 301.717812 
L 974.993671 48.331875 
" clip-path="url(#pf07ad1dbdd)" style="fill: none; stroke-dasharray: 2.96,1.28; stroke-dashoffset: 0; stroke: #b0b0b0; stroke-width: 0.8"/>
     </g>
     <g id="line2d_24">
      <g>
       <use xlink:href="#m5330ff12a3" x="974.993671" y="301.717812" style="stroke: #000000; stroke-width: 0.8"/>
      </g>
     </g>
    </g>
   </g>
   <g id="matplotlib.axis_2">
    <g id="ytick_1">
     <g id="line2d_25">
      <path d="M 45.267188 287.761144 
L 982.876106 287.761144 
" clip-path="url(#pf07ad1dbdd)" style="fill: none; stroke-dasharray: 2.96,1.28; stroke-dashoffset: 0; stroke: #b0b0b0; stroke-width: 0.8"/>
     </g>
     <g id="line2d_26">
      <defs>
       <path id="m871de02854" d="M 0 0 
L -3.5 0 
" style="stroke: #000000; stroke-width: 0.8"/>
      </defs>
      <g>
       <use xlink:href="#m871de02854" x="45.267188" y="287.761144" style="stroke: #000000; stroke-width: 0.8"/>
      </g>
     </g>
     <g id="text_1">
      <!-- 4500 -->
      <g transform="translate(12.817188 291.560363)scale(0.1 -0.1)">
       <defs>
        <path id="DejaVuSans-34" d="M 2419 4116 
L 825 1625 
L 2419 1625 
L 2419 4116 
z
M 2253 4666 
L 3047 4666 
L 3047 1625 
L 3713 1625 
L 3713 1100 
L 3047 1100 
L 3047 0 
L 2419 0 
L 2419 1100 
L 313 1100 
L 313 1709 
L 2253 4666 
z
" transform="scale(0.015625)"/>
        <path id="DejaVuSans-35" d="M 691 4666 
L 3169 4666 
L 3169 4134 
L 1269 4134 
L 1269 2991 
Q 1406 3038 1543 3061 
Q 1681 3084 1819 3084 
Q 2600 3084 3056 2656 
Q 3513 2228 3513 1497 
Q 3513 744 3044 326 
Q 2575 -91 1722 -91 
Q 1428 -91 1123 -41 
Q 819 9 494 109 
L 494 744 
Q 775 591 1075 516 
Q 1375 441 1709 441 
Q 2250 441 2565 725 
Q 2881 1009 2881 1497 
Q 2881 1984 2565 2268 
Q 2250 2553 1709 2553 
Q 1456 2553 1204 2497 
Q 953 2441 691 2322 
L 691 4666 
z
" transform="scale(0.015625)"/>
        <path id="DejaVuSans-30" d="M 2034 4250 
Q 1547 4250 1301 3770 
Q 1056 3291 1056 2328 
Q 1056 1369 1301 889 
Q 1547 409 2034 409 
Q 2525 409 2770 889 
Q 3016 1369 3016 2328 
Q 3016 3291 2770 3770 
Q 2525 4250 2034 4250 
z
M 2034 4750 
Q 2819 4750 3233 4129 
Q 3647 3509 3647 2328 
Q 3647 1150 3233 529 
Q 2819 -91 2034 -91 
Q 1250 -91 836 529 
Q 422 1150 422 2328 
Q 422 3509 836 4129 
Q 1250 4750 2034 4750 
z
" transform="scale(0.015625)"/>
       </defs>
       <use xlink:href="#DejaVuSans-34"/>
       <use xlink:href="#DejaVuSans-35" x="63.623047"/>
       <use xlink:href="#DejaVuSans-30" x="127.246094"/>
       <use xlink:href="#DejaVuSans-30" x="190.869141"/>
      </g>
     </g>
    </g>
    <g id="ytick_2">
     <g id="line2d_27">
      <path d="M 45.267188 244.667052 
L 982.876106 244.667052 
" clip-path="url(#pf07ad1dbdd)" style="fill: none; stroke-dasharray: 2.96,1.28; stroke-dashoffset: 0; stroke: #b0b0b0; stroke-width: 0.8"/>
     </g>
     <g id="line2d_28">
      <g>
       <use xlink:href="#m871de02854" x="45.267188" y="244.667052" style="stroke: #000000; stroke-width: 0.8"/>
      </g>
     </g>
     <g id="text_2">
      <!-- 5000 -->
      <g transform="translate(12.817188 248.466271)scale(0.1 -0.1)">
       <use xlink:href="#DejaVuSans-35"/>
       <use xlink:href="#DejaVuSans-30" x="63.623047"/>
       <use xlink:href="#DejaVuSans-30" x="127.246094"/>
       <use xlink:href="#DejaVuSans-30" x="190.869141"/>
      </g>
     </g>
    </g>
    <g id="ytick_3">
     <g id="line2d_29">
      <path d="M 45.267188 201.572959 
L 982.876106 201.572959 
" clip-path="url(#pf07ad1dbdd)" style="fill: none; stroke-dasharray: 2.96,1.28; stroke-dashoffset: 0; stroke: #b0b0b0; stroke-width: 0.8"/>
     </g>
     <g id="line2d_30">
      <g>
       <use xlink:href="#m871de02854" x="45.267188" y="201.572959" style="stroke: #000000; stroke-width: 0.8"/>
      </g>
     </g>
     <g id="text_3">
      <!-- 5500 -->
      <g transform="translate(12.817188 205.372178)scale(0.1 -0.1)">
       <use xlink:href="#DejaVuSans-35"/>
       <use xlink:href="#DejaVuSans-35" x="63.623047"/>
       <use xlink:href="#DejaVuSans-30" x="127.246094"/>
       <use xlink:href="#DejaVuSans-30" x="190.869141"/>
      </g>
     </g>
    </g>
    <g id="ytick_4">
     <g id="line2d_31">
      <path d="M 45.267188 158.478867 
L 982.876106 158.478867 
" clip-path="url(#pf07ad1dbdd)" style="fill: none; stroke-dasharray: 2.96,1.28; stroke-dashoffset: 0; stroke: #b0b0b0; stroke-width: 0.8"/>
     </g>
     <g id="line2d_32">
      <g>
       <use xlink:href="#m871de02854" x="45.267188" y="158.478867" style="stroke: #000000; stroke-width: 0.8"/>
      </g>
     </g>
     <g id="text_4">
      <!-- 6000 -->
      <g transform="translate(12.817188 162.278086)scale(0.1 -0.1)">
       <defs>
        <path id="DejaVuSans-36" d="M 2113 2584 
Q 1688 2584 1439 2293 
Q 1191 2003 1191 1497 
Q 1191 994 1439 701 
Q 1688 409 2113 409 
Q 2538 409 2786 701 
Q 3034 994 3034 1497 
Q 3034 2003 2786 2293 
Q 2538 2584 2113 2584 
z
M 3366 4563 
L 3366 3988 
Q 3128 4100 2886 4159 
Q 2644 4219 2406 4219 
Q 1781 4219 1451 3797 
Q 1122 3375 1075 2522 
Q 1259 2794 1537 2939 
Q 1816 3084 2150 3084 
Q 2853 3084 3261 2657 
Q 3669 2231 3669 1497 
Q 3669 778 3244 343 
Q 2819 -91 2113 -91 
Q 1303 -91 875 529 
Q 447 1150 447 2328 
Q 447 3434 972 4092 
Q 1497 4750 2381 4750 
Q 2619 4750 2861 4703 
Q 3103 4656 3366 4563 
z
" transform="scale(0.015625)"/>
       </defs>
       <use xlink:href="#DejaVuSans-36"/>
       <use xlink:href="#DejaVuSans-30" x="63.623047"/>
       <use xlink:href="#DejaVuSans-30" x="127.246094"/>
       <use xlink:href="#DejaVuSans-30" x="190.869141"/>
      </g>
     </g>
    </g>
    <g id="ytick_5">
     <g id="line2d_33">
      <path d="M 45.267188 115.384775 
L 982.876106 115.384775 
" clip-path="url(#pf07ad1dbdd)" style="fill: none; stroke-dasharray: 2.96,1.28; stroke-dashoffset: 0; stroke: #b0b0b0; stroke-width: 0.8"/>
     </g>
     <g id="line2d_34">
      <g>
       <use xlink:href="#m871de02854" x="45.267188" y="115.384775" style="stroke: #000000; stroke-width: 0.8"/>
      </g>
     </g>
     <g id="text_5">
      <!-- 6500 -->
      <g transform="translate(12.817188 119.183993)scale(0.1 -0.1)">
       <use xlink:href="#DejaVuSans-36"/>
       <use xlink:href="#DejaVuSans-35" x="63.623047"/>
       <use xlink:href="#DejaVuSans-30" x="127.246094"/>
       <use xlink:href="#DejaVuSans-30" x="190.869141"/>
      </g>
     </g>
    </g>
    <g id="ytick_6">
     <g id="line2d_35">
      <path d="M 45.267188 72.290682 
L 982.876106 72.290682 
" clip-path="url(#pf07ad1dbdd)" style="fill: none; stroke-dasharray: 2.96,1.28; stroke-dashoffset: 0; stroke: #b0b0b0; stroke-width: 0.8"/>
     </g>
     <g id="line2d_36">
      <g>
       <use xlink:href="#m871de02854" x="45.267188" y="72.290682" style="stroke: #000000; stroke-width: 0.8"/>
      </g>
     </g>
     <g id="text_6">
      <!-- 7000 -->
      <g transform="translate(12.817188 76.089901)scale(0.1 -0.1)">
       <defs>
        <path id="DejaVuSans-37" d="M 525 4666 
L 3525 4666 
L 3525 4397 
L 1831 0 
L 1172 0 
L 2766 4134 
L 525 4134 
L 525 4666 
z
" transform="scale(0.015625)"/>
       </defs>
       <use xlink:href="#DejaVuSans-37"/>
       <use xlink:href="#DejaVuSans-30" x="63.623047"/>
       <use xlink:href="#DejaVuSans-30" x="127.246094"/>
       <use xlink:href="#DejaVuSans-30" x="190.869141"/>
      </g>
     </g>
    </g>
   </g>
   <g id="line2d_37">
    <path d="M 87.885775 214.514115 
L 90.557786 219.392367 
L 93.229798 213.3161 
L 95.90181 223.499234 
L 98.573822 229.696164 
L 106.589857 226.722672 
L 109.261869 225.550512 
L 111.93388 217.082523 
L 114.605892 214.242623 
L 117.277904 207.507016 
L 125.293939 201.913403 
L 127.965951 204.318053 
L 130.637962 206.998506 
L 133.309974 202.249537 
L 135.981986 214.488259 
L 143.998021 237.927136 
L 146.670033 231.949985 
L 152.014056 235.005356 
L 154.686068 234.389111 
L 162.702103 230.846776 
L 165.374115 225.322114 
L 168.046127 222.279671 
L 170.718139 224.490398 
L 173.39015 230.497714 
L 181.406185 235.85431 
L 184.078197 229.743568 
L 186.750209 226.270184 
L 189.422221 226.106426 
L 192.094232 228.006876 
L 200.110268 231.932748 
L 202.782279 229.295389 
L 205.454291 217.500536 
L 208.126303 213.535879 
L 210.798315 213.354884 
L 218.81435 214.251241 
L 221.486362 227.541459 
L 224.158373 225.046312 
L 226.830385 235.673315 
L 229.502397 227.127756 
L 237.518432 227.222563 
L 242.862455 235.901713 
L 245.534467 237.233321 
L 248.206479 250.558014 
L 256.222514 257.871082 
L 258.894526 250.527848 
L 261.566538 245.378104 
L 264.238549 244.39125 
L 266.910561 251.859456 
L 274.926596 244.727384 
L 277.598608 248.274027 
L 280.27062 238.750233 
L 282.942631 243.917215 
L 293.630678 243.943071 
L 296.30269 243.581081 
L 298.974702 240.685158 
L 301.646714 239.698303 
L 304.318725 244.740312 
L 312.334761 242.607154 
L 315.006772 240.564494 
L 317.678784 246.472694 
L 320.350796 243.714672 
L 323.022808 210.290894 
L 331.038843 173.26445 
L 333.710854 146.119481 
L 336.382866 139.556251 
L 339.054878 137.539447 
L 341.72689 139.944098 
L 349.742925 145.516164 
L 352.414937 184.438748 
L 355.086948 200.103451 
L 368.447007 227.050187 
L 371.119019 228.179252 
L 373.791031 222.508069 
L 376.463042 215.035554 
L 379.135054 219.301869 
L 387.151089 215.608705 
L 389.823101 204.012085 
L 392.495113 212.936872 
L 395.167124 199.969859 
L 397.839136 230.062464 
L 405.855171 216.621416 
L 411.199195 221.92199 
L 413.871207 237.371222 
L 416.543218 242.921741 
L 427.231265 244.378321 
L 429.903277 235.151876 
L 432.575289 256.879918 
L 435.2473 249.838343 
L 443.263336 252.648078 
L 445.935347 248.898892 
L 448.607359 253.104875 
L 451.279371 261.02126 
L 453.951383 251.32078 
L 461.967418 251.312161 
L 464.63943 250.575252 
L 467.311441 253.660789 
L 469.983453 252.92388 
L 472.655465 243.749148 
L 480.6715 241.447923 
L 483.343512 234.876074 
L 486.015523 240.258526 
L 488.687535 242.41754 
L 491.359547 245.231584 
L 499.375582 242.973454 
L 504.719606 249.963316 
L 507.391617 249.235026 
L 510.063629 244.498985 
L 518.079664 250.88122 
L 520.751676 252.217137 
L 523.423688 247.59745 
L 526.095699 264.003371 
L 528.767711 290.20027 
L 536.783746 288.123135 
L 539.455758 279.482769 
L 542.12777 288.881591 
L 544.799782 288.778165 
L 547.471793 274.083079 
L 555.487829 265.520283 
L 560.831852 284.87384 
L 563.503864 280.417911 
L 566.175876 281.788303 
L 574.191911 280.749735 
L 576.863922 270.053782 
L 579.535934 263.296628 
L 582.207946 257.29793 
L 584.879958 258.845008 
L 592.895993 252.889405 
L 595.568005 249.618563 
L 598.240016 261.874523 
L 600.912028 266.532994 
L 603.58404 265.916749 
L 614.272087 264.494644 
L 616.944099 261.413416 
L 619.61611 261.335847 
L 622.288122 259.685343 
L 630.304157 256.987653 
L 632.976169 254.841567 
L 635.648181 253.962448 
L 638.320192 228.506767 
L 649.008239 222.589948 
L 651.680251 218.439987 
L 654.352263 220.4611 
L 657.024275 214.940747 
L 659.696286 222.456357 
L 667.712322 217.224734 
L 673.056345 213.376431 
L 675.728357 216.156 
L 678.400368 217.530702 
L 689.088415 215.686275 
L 694.432439 198.901126 
L 697.104451 201.508318 
L 705.120486 210.200397 
L 707.792498 212.049133 
L 710.464509 209.769456 
L 713.136521 209.605698 
L 715.808533 209.049784 
L 723.824568 210.812333 
L 726.49658 204.563689 
L 731.840603 181.452328 
L 734.512615 188.649041 
L 742.52865 186.68395 
L 745.200662 173.99705 
L 747.872674 177.690213 
L 750.544685 126.309127 
L 753.216697 101.538643 
L 761.232732 104.029481 
L 763.904744 104.981861 
L 766.576756 59.849418 
L 769.248768 62.758269 
L 771.920779 92.648331 
L 779.936814 82.542767 
L 782.608826 75.333125 
L 785.280838 77.367166 
L 787.95285 80.745743 
L 790.624861 85.348192 
L 798.640897 92.902587 
L 801.312908 103.23224 
L 803.98492 103.576993 
L 806.656932 132.41125 
L 809.328944 124.800834 
L 817.344979 114.75991 
L 820.016991 112.191502 
L 825.361014 106.162639 
L 828.033026 90.609981 
L 836.049061 96.651773 
L 838.721073 100.745711 
L 841.393084 101.366266 
L 844.065096 102.297099 
L 846.737108 107.119328 
L 854.753143 105.761864 
L 857.425155 96.371661 
L 860.097167 95.216739 
L 862.769178 118.1902 
L 865.44119 121.142145 
L 873.457225 117.905779 
L 876.129237 115.604554 
L 881.47326 108.48541 
L 884.145272 107.080543 
L 892.161307 101.542952 
L 894.833319 96.983597 
L 897.505331 97.410229 
L 900.177343 94.656516 
L 902.849354 96.242379 
L 910.86539 92.631094 
L 916.209413 83.133156 
L 918.881425 89.532628 
L 921.553437 98.185922 
L 929.569472 101.465383 
L 932.241483 102.697874 
L 934.913495 101.004276 
L 937.585507 102.314336 
L 940.257519 108.606074 
L 940.257519 108.606074 
" clip-path="url(#pf07ad1dbdd)" style="fill: none; stroke: #1f77b4; stroke-width: 1.5; stroke-linecap: square"/>
   </g>
   <g id="line2d_38">
    <path d="M 98.573822 220.083596 
L 106.589857 222.525307 
L 109.261869 223.756936 
L 111.93388 224.510221 
L 114.605892 222.658899 
L 117.277904 218.221069 
L 125.293939 213.259215 
L 127.965951 209.012724 
L 130.637962 206.99592 
L 133.309974 204.597303 
L 135.981986 205.993551 
L 143.998021 213.196298 
L 146.670033 218.722684 
L 152.014056 224.324055 
L 154.686068 230.751969 
L 162.702103 234.023673 
L 165.374115 231.502668 
L 168.046127 229.568606 
L 170.718139 227.465614 
L 173.39015 226.687335 
L 181.406185 227.688841 
L 186.750209 229.371235 
L 189.422221 229.69444 
L 192.094232 229.196273 
L 200.110268 228.41196 
L 202.782279 228.322324 
L 205.454291 226.568395 
L 208.126303 224.054286 
L 210.798315 221.123887 
L 218.81435 217.587586 
L 221.486362 217.2368 
L 224.158373 218.745955 
L 226.830385 223.173442 
L 229.502397 225.928017 
L 242.862455 230.194332 
L 245.534467 232.631734 
L 248.206479 235.608674 
L 256.222514 241.757339 
L 258.894526 246.418396 
L 261.566538 248.313674 
L 264.238549 249.74526 
L 266.910561 250.005548 
L 274.926596 247.376808 
L 277.598608 246.926044 
L 280.27062 245.60047 
L 282.942631 245.505663 
L 293.630678 243.922386 
L 296.30269 243.693125 
L 298.974702 242.175351 
L 304.318725 242.529585 
L 312.334761 242.262401 
L 315.006772 241.659084 
L 317.678784 242.816591 
L 320.350796 243.619865 
L 323.022808 236.729982 
L 331.038843 222.861441 
L 333.710854 203.972438 
L 339.054878 161.354105 
L 341.72689 147.284746 
L 349.742925 141.735088 
L 352.414937 149.398942 
L 355.086948 161.508382 
L 368.447007 179.41053 
L 371.119019 197.05756 
L 373.791031 212.455941 
L 376.463042 218.575303 
L 379.135054 222.414986 
L 387.151089 220.12669 
L 389.823101 215.293257 
L 392.495113 213.379017 
L 395.167124 210.365878 
L 397.839136 212.517997 
L 405.855171 212.720539 
L 411.199195 216.30252 
L 413.871207 221.18939 
L 416.543218 229.779767 
L 424.559254 232.586054 
L 427.231265 238.137435 
L 429.903277 240.783412 
L 432.575289 244.685151 
L 435.2473 246.068472 
L 443.263336 247.779307 
L 445.935347 248.683421 
L 448.607359 252.274021 
L 451.279371 253.102289 
L 453.951383 253.398777 
L 461.967418 253.131593 
L 464.63943 253.466865 
L 467.311441 253.578048 
L 472.655465 250.444246 
L 480.6715 248.471398 
L 483.343512 245.331563 
L 486.015523 242.65111 
L 488.687535 240.549842 
L 491.359547 240.84633 
L 499.375582 241.151436 
L 502.047594 243.45697 
L 504.719606 245.397928 
L 507.391617 246.761425 
L 510.063629 246.614905 
L 518.079664 248.196458 
L 520.751676 249.359137 
L 523.423688 248.885963 
L 526.095699 251.839633 
L 528.767711 260.97989 
L 536.783746 268.428273 
L 539.455758 273.881399 
L 542.12777 282.138227 
L 544.799782 287.093186 
L 547.471793 283.869748 
L 555.487829 279.349177 
L 560.831852 277.709016 
L 563.503864 276.036965 
L 566.175876 277.57801 
L 574.191911 280.623901 
L 576.863922 279.576714 
L 579.535934 275.261272 
L 584.879958 266.048617 
L 592.895993 260.476551 
L 595.568005 256.389507 
L 598.240016 256.105086 
L 600.912028 257.952099 
L 603.58404 259.366447 
L 611.600075 261.766788 
L 614.272087 264.742004 
L 616.944099 264.649782 
L 619.61611 263.610353 
L 622.288122 262.364072 
L 630.304157 260.783381 
L 632.976169 258.852765 
L 635.648181 257.362571 
L 640.992204 244.261105 
L 649.008239 237.381565 
L 651.680251 230.101249 
L 654.352263 223.400979 
L 657.024275 220.687775 
L 659.696286 219.777628 
L 667.712322 218.704585 
L 673.056345 217.691874 
L 675.728357 216.830854 
L 678.400368 217.348845 
L 689.088415 215.994828 
L 691.760427 214.042666 
L 697.104451 208.218068 
L 705.120486 206.752007 
L 707.792498 206.024579 
L 710.464509 206.485686 
L 713.136521 208.6266 
L 715.808533 210.134894 
L 723.824568 210.257281 
L 726.49658 208.760192 
L 731.840603 203.096767 
L 734.512615 198.905435 
L 742.52865 194.432268 
L 745.200662 187.069212 
L 747.872674 181.694516 
L 750.544685 170.665876 
L 753.216697 153.243797 
L 761.232732 136.712903 
L 763.904744 122.909865 
L 766.576756 99.341706 
L 769.248768 86.631534 
L 771.920779 84.853472 
L 779.936814 80.556129 
L 782.608826 74.626382 
L 787.95285 81.727426 
L 790.624861 80.267399 
L 798.640897 82.339363 
L 801.312908 87.919186 
L 803.98492 93.161151 
L 806.656932 103.494253 
L 809.328944 111.384781 
L 817.344979 115.756246 
L 820.016991 117.548098 
L 825.361014 118.065227 
L 828.033026 109.704973 
L 836.049061 104.075161 
L 838.721073 101.272321 
L 841.393084 99.107274 
L 844.065096 98.334166 
L 846.737108 101.636035 
L 854.753143 103.458054 
L 857.425155 102.583243 
L 860.097167 101.353338 
L 862.769178 104.531958 
L 865.44119 107.336522 
L 873.457225 109.765305 
L 876.129237 113.611884 
L 881.47326 116.265618 
L 884.145272 114.043686 
L 892.161307 110.123848 
L 894.833319 105.939411 
L 897.505331 102.300546 
L 900.177343 99.534767 
L 902.849354 97.367134 
L 910.86539 95.584763 
L 916.209413 92.814675 
L 918.881425 91.239155 
L 921.553437 91.945036 
L 929.569472 92.989637 
L 932.241483 95.002993 
L 934.913495 98.577217 
L 937.585507 101.133558 
L 940.257519 103.217588 
L 940.257519 103.217588 
" clip-path="url(#pf07ad1dbdd)" style="fill: none; stroke: #ff7f0e; stroke-width: 1.5; stroke-linecap: square"/>
   </g>
   <g id="patch_3">
    <path d="M 45.267188 301.717812 
L 45.267188 48.331875 
" style="fill: none; stroke: #000000; stroke-width: 0.8; stroke-linejoin: miter; stroke-linecap: square"/>
   </g>
   <g id="patch_4">
    <path d="M 982.876106 301.717812 
L 982.876106 48.331875 
" style="fill: none; stroke: #000000; stroke-width: 0.8; stroke-linejoin: miter; stroke-linecap: square"/>
   </g>
   <g id="patch_5">
    <path d="M 45.267188 301.717812 
L 982.876106 301.717812 
" style="fill: none; stroke: #000000; stroke-width: 0.8; stroke-linejoin: miter; stroke-linecap: square"/>
   </g>
   <g id="patch_6">
    <path d="M 45.267188 48.331875 
L 982.876106 48.331875 
" style="fill: none; stroke: #000000; stroke-width: 0.8; stroke-linejoin: miter; stroke-linecap: square"/>
   </g>
   <g id="text_7">
    <!-- Closing Price -->
    <g transform="translate(475.595709 42.331875)scale(0.12 -0.12)">
     <defs>
      <path id="DejaVuSans-43" d="M 4122 4306 
L 4122 3641 
Q 3803 3938 3442 4084 
Q 3081 4231 2675 4231 
Q 1875 4231 1450 3742 
Q 1025 3253 1025 2328 
Q 1025 1406 1450 917 
Q 1875 428 2675 428 
Q 3081 428 3442 575 
Q 3803 722 4122 1019 
L 4122 359 
Q 3791 134 3420 21 
Q 3050 -91 2638 -91 
Q 1578 -91 968 557 
Q 359 1206 359 2328 
Q 359 3453 968 4101 
Q 1578 4750 2638 4750 
Q 3056 4750 3426 4639 
Q 3797 4528 4122 4306 
z
" transform="scale(0.015625)"/>
      <path id="DejaVuSans-6c" d="M 603 4863 
L 1178 4863 
L 1178 0 
L 603 0 
L 603 4863 
z
" transform="scale(0.015625)"/>
      <path id="DejaVuSans-6f" d="M 1959 3097 
Q 1497 3097 1228 2736 
Q 959 2375 959 1747 
Q 959 1119 1226 758 
Q 1494 397 1959 397 
Q 2419 397 2687 759 
Q 2956 1122 2956 1747 
Q 2956 2369 2687 2733 
Q 2419 3097 1959 3097 
z
M 1959 3584 
Q 2709 3584 3137 3096 
Q 3566 2609 3566 1747 
Q 3566 888 3137 398 
Q 2709 -91 1959 -91 
Q 1206 -91 779 398 
Q 353 888 353 1747 
Q 353 2609 779 3096 
Q 1206 3584 1959 3584 
z
" transform="scale(0.015625)"/>
      <path id="DejaVuSans-73" d="M 2834 3397 
L 2834 2853 
Q 2591 2978 2328 3040 
Q 2066 3103 1784 3103 
Q 1356 3103 1142 2972 
Q 928 2841 928 2578 
Q 928 2378 1081 2264 
Q 1234 2150 1697 2047 
L 1894 2003 
Q 2506 1872 2764 1633 
Q 3022 1394 3022 966 
Q 3022 478 2636 193 
Q 2250 -91 1575 -91 
Q 1294 -91 989 -36 
Q 684 19 347 128 
L 347 722 
Q 666 556 975 473 
Q 1284 391 1588 391 
Q 1994 391 2212 530 
Q 2431 669 2431 922 
Q 2431 1156 2273 1281 
Q 2116 1406 1581 1522 
L 1381 1569 
Q 847 1681 609 1914 
Q 372 2147 372 2553 
Q 372 3047 722 3315 
Q 1072 3584 1716 3584 
Q 2034 3584 2315 3537 
Q 2597 3491 2834 3397 
z
" transform="scale(0.015625)"/>
      <path id="DejaVuSans-69" d="M 603 3500 
L 1178 3500 
L 1178 0 
L 603 0 
L 603 3500 
z
M 603 4863 
L 1178 4863 
L 1178 4134 
L 603 4134 
L 603 4863 
z
" transform="scale(0.015625)"/>
      <path id="DejaVuSans-6e" d="M 3513 2113 
L 3513 0 
L 2938 0 
L 2938 2094 
Q 2938 2591 2744 2837 
Q 2550 3084 2163 3084 
Q 1697 3084 1428 2787 
Q 1159 2491 1159 1978 
L 1159 0 
L 581 0 
L 581 3500 
L 1159 3500 
L 1159 2956 
Q 1366 3272 1645 3428 
Q 1925 3584 2291 3584 
Q 2894 3584 3203 3211 
Q 3513 2838 3513 2113 
z
" transform="scale(0.015625)"/>
      <path id="DejaVuSans-67" d="M 2906 1791 
Q 2906 2416 2648 2759 
Q 2391 3103 1925 3103 
Q 1463 3103 1205 2759 
Q 947 2416 947 1791 
Q 947 1169 1205 825 
Q 1463 481 1925 481 
Q 2391 481 2648 825 
Q 2906 1169 2906 1791 
z
M 3481 434 
Q 3481 -459 3084 -895 
Q 2688 -1331 1869 -1331 
Q 1566 -1331 1297 -1286 
Q 1028 -1241 775 -1147 
L 775 -588 
Q 1028 -725 1275 -790 
Q 1522 -856 1778 -856 
Q 2344 -856 2625 -561 
Q 2906 -266 2906 331 
L 2906 616 
Q 2728 306 2450 153 
Q 2172 0 1784 0 
Q 1141 0 747 490 
Q 353 981 353 1791 
Q 353 2603 747 3093 
Q 1141 3584 1784 3584 
Q 2172 3584 2450 3431 
Q 2728 3278 2906 2969 
L 2906 3500 
L 3481 3500 
L 3481 434 
z
" transform="scale(0.015625)"/>
      <path id="DejaVuSans-20" transform="scale(0.015625)"/>
      <path id="DejaVuSans-50" d="M 1259 4147 
L 1259 2394 
L 2053 2394 
Q 2494 2394 2734 2622 
Q 2975 2850 2975 3272 
Q 2975 3691 2734 3919 
Q 2494 4147 2053 4147 
L 1259 4147 
z
M 628 4666 
L 2053 4666 
Q 2838 4666 3239 4311 
Q 3641 3956 3641 3272 
Q 3641 2581 3239 2228 
Q 2838 1875 2053 1875 
L 1259 1875 
L 1259 0 
L 628 0 
L 628 4666 
z
" transform="scale(0.015625)"/>
      <path id="DejaVuSans-72" d="M 2631 2963 
Q 2534 3019 2420 3045 
Q 2306 3072 2169 3072 
Q 1681 3072 1420 2755 
Q 1159 2438 1159 1844 
L 1159 0 
L 581 0 
L 581 3500 
L 1159 3500 
L 1159 2956 
Q 1341 3275 1631 3429 
Q 1922 3584 2338 3584 
Q 2397 3584 2469 3576 
Q 2541 3569 2628 3553 
L 2631 2963 
z
" transform="scale(0.015625)"/>
      <path id="DejaVuSans-63" d="M 3122 3366 
L 3122 2828 
Q 2878 2963 2633 3030 
Q 2388 3097 2138 3097 
Q 1578 3097 1268 2742 
Q 959 2388 959 1747 
Q 959 1106 1268 751 
Q 1578 397 2138 397 
Q 2388 397 2633 464 
Q 2878 531 3122 666 
L 3122 134 
Q 2881 22 2623 -34 
Q 2366 -91 2075 -91 
Q 1284 -91 818 406 
Q 353 903 353 1747 
Q 353 2603 823 3093 
Q 1294 3584 2113 3584 
Q 2378 3584 2631 3529 
Q 2884 3475 3122 3366 
z
" transform="scale(0.015625)"/>
      <path id="DejaVuSans-65" d="M 3597 1894 
L 3597 1613 
L 953 1613 
Q 991 1019 1311 708 
Q 1631 397 2203 397 
Q 2534 397 2845 478 
Q 3156 559 3463 722 
L 3463 178 
Q 3153 47 2828 -22 
Q 2503 -91 2169 -91 
Q 1331 -91 842 396 
Q 353 884 353 1716 
Q 353 2575 817 3079 
Q 1281 3584 2069 3584 
Q 2775 3584 3186 3129 
Q 3597 2675 3597 1894 
z
M 3022 2063 
Q 3016 2534 2758 2815 
Q 2500 3097 2075 3097 
Q 1594 3097 1305 2825 
Q 1016 2553 972 2059 
L 3022 2063 
z
" transform="scale(0.015625)"/>
     </defs>
     <use xlink:href="#DejaVuSans-43"/>
     <use xlink:href="#DejaVuSans-6c" x="69.824219"/>
     <use xlink:href="#DejaVuSans-6f" x="97.607422"/>
     <use xlink:href="#DejaVuSans-73" x="158.789062"/>
     <use xlink:href="#DejaVuSans-69" x="210.888672"/>
     <use xlink:href="#DejaVuSans-6e" x="238.671875"/>
     <use xlink:href="#DejaVuSans-67" x="302.050781"/>
     <use xlink:href="#DejaVuSans-20" x="365.527344"/>
     <use xlink:href="#DejaVuSans-50" x="397.314453"/>
     <use xlink:href="#DejaVuSans-72" x="455.867188"/>
     <use xlink:href="#DejaVuSans-69" x="496.980469"/>
     <use xlink:href="#DejaVuSans-63" x="524.763672"/>
     <use xlink:href="#DejaVuSans-65" x="579.744141"/>
    </g>
   </g>
   <g id="legend_1">
    <g id="patch_7">
     <path d="M 52.267188 85.688125 
L 116.998438 85.688125 
Q 118.998438 85.688125 118.998438 83.688125 
L 118.998438 55.331875 
Q 118.998438 53.331875 116.998438 53.331875 
L 52.267188 53.331875 
Q 50.267188 53.331875 50.267188 55.331875 
L 50.267188 83.688125 
Q 50.267188 85.688125 52.267188 85.688125 
z
" style="fill: #ffffff; opacity: 0.8; stroke: #cccccc; stroke-linejoin: miter"/>
    </g>
    <g id="line2d_39">
     <path d="M 54.267188 61.430312 
L 64.267188 61.430312 
L 74.267188 61.430312 
" style="fill: none; stroke: #1f77b4; stroke-width: 1.5; stroke-linecap: square"/>
    </g>
    <g id="text_8">
     <!-- CLOSE -->
     <g transform="translate(82.267188 64.930312)scale(0.1 -0.1)">
      <defs>
       <path id="DejaVuSans-4c" d="M 628 4666 
L 1259 4666 
L 1259 531 
L 3531 531 
L 3531 0 
L 628 0 
L 628 4666 
z
" transform="scale(0.015625)"/>
       <path id="DejaVuSans-4f" d="M 2522 4238 
Q 1834 4238 1429 3725 
Q 1025 3213 1025 2328 
Q 1025 1447 1429 934 
Q 1834 422 2522 422 
Q 3209 422 3611 934 
Q 4013 1447 4013 2328 
Q 4013 3213 3611 3725 
Q 3209 4238 2522 4238 
z
M 2522 4750 
Q 3503 4750 4090 4092 
Q 4678 3434 4678 2328 
Q 4678 1225 4090 567 
Q 3503 -91 2522 -91 
Q 1538 -91 948 565 
Q 359 1222 359 2328 
Q 359 3434 948 4092 
Q 1538 4750 2522 4750 
z
" transform="scale(0.015625)"/>
       <path id="DejaVuSans-53" d="M 3425 4513 
L 3425 3897 
Q 3066 4069 2747 4153 
Q 2428 4238 2131 4238 
Q 1616 4238 1336 4038 
Q 1056 3838 1056 3469 
Q 1056 3159 1242 3001 
Q 1428 2844 1947 2747 
L 2328 2669 
Q 3034 2534 3370 2195 
Q 3706 1856 3706 1288 
Q 3706 609 3251 259 
Q 2797 -91 1919 -91 
Q 1588 -91 1214 -16 
Q 841 59 441 206 
L 441 856 
Q 825 641 1194 531 
Q 1563 422 1919 422 
Q 2459 422 2753 634 
Q 3047 847 3047 1241 
Q 3047 1584 2836 1778 
Q 2625 1972 2144 2069 
L 1759 2144 
Q 1053 2284 737 2584 
Q 422 2884 422 3419 
Q 422 4038 858 4394 
Q 1294 4750 2059 4750 
Q 2388 4750 2728 4690 
Q 3069 4631 3425 4513 
z
" transform="scale(0.015625)"/>
       <path id="DejaVuSans-45" d="M 628 4666 
L 3578 4666 
L 3578 4134 
L 1259 4134 
L 1259 2753 
L 3481 2753 
L 3481 2222 
L 1259 2222 
L 1259 531 
L 3634 531 
L 3634 0 
L 628 0 
L 628 4666 
z
" transform="scale(0.015625)"/>
      </defs>
      <use xlink:href="#DejaVuSans-43"/>
      <use xlink:href="#DejaVuSans-4c" x="69.824219"/>
      <use xlink:href="#DejaVuSans-4f" x="121.912109"/>
      <use xlink:href="#DejaVuSans-53" x="200.623047"/>
      <use xlink:href="#DejaVuSans-45" x="264.099609"/>
     </g>
    </g>
    <g id="line2d_40">
     <path d="M 54.267188 76.108437 
L 64.267188 76.108437 
L 74.267188 76.108437 
" style="fill: none; stroke: #ff7f0e; stroke-width: 1.5; stroke-linecap: square"/>
    </g>
    <g id="text_9">
     <!-- SMA5 -->
     <g transform="translate(82.267188 79.608437)scale(0.1 -0.1)">
      <defs>
       <path id="DejaVuSans-4d" d="M 628 4666 
L 1569 4666 
L 2759 1491 
L 3956 4666 
L 4897 4666 
L 4897 0 
L 4281 0 
L 4281 4097 
L 3078 897 
L 2444 897 
L 1241 4097 
L 1241 0 
L 628 0 
L 628 4666 
z
" transform="scale(0.015625)"/>
       <path id="DejaVuSans-41" d="M 2188 4044 
L 1331 1722 
L 3047 1722 
L 2188 4044 
z
M 1831 4666 
L 2547 4666 
L 4325 0 
L 3669 0 
L 3244 1197 
L 1141 1197 
L 716 0 
L 50 0 
L 1831 4666 
z
" transform="scale(0.015625)"/>
      </defs>
      <use xlink:href="#DejaVuSans-53"/>
      <use xlink:href="#DejaVuSans-4d" x="63.476562"/>
      <use xlink:href="#DejaVuSans-41" x="149.755859"/>
      <use xlink:href="#DejaVuSans-35" x="218.164062"/>
     </g>
    </g>
   </g>
  </g>
  <g id="axes_2">
   <g id="patch_8">
    <path d="M 45.267188 584.521875 
L 982.876106 584.521875 
L 982.876106 331.135938 
L 45.267188 331.135938 
z
" style="fill: #ffffff"/>
   </g>
   <g id="matplotlib.axis_3">
    <g id="xtick_13">
     <g id="line2d_41">
      <path d="M 82.541751 584.521875 
L 82.541751 331.135938 
" clip-path="url(#p3a5fcecf9a)" style="fill: none; stroke-dasharray: 2.96,1.28; stroke-dashoffset: 0; stroke: #b0b0b0; stroke-width: 0.8"/>
     </g>
     <g id="line2d_42">
      <g>
       <use xlink:href="#m5330ff12a3" x="82.541751" y="584.521875" style="stroke: #000000; stroke-width: 0.8"/>
      </g>
     </g>
     <g id="text_10">
      <!-- 2022-01 -->
      <g transform="translate(61.650345 599.120312)scale(0.1 -0.1)">
       <defs>
        <path id="DejaVuSans-32" d="M 1228 531 
L 3431 531 
L 3431 0 
L 469 0 
L 469 531 
Q 828 903 1448 1529 
Q 2069 2156 2228 2338 
Q 2531 2678 2651 2914 
Q 2772 3150 2772 3378 
Q 2772 3750 2511 3984 
Q 2250 4219 1831 4219 
Q 1534 4219 1204 4116 
Q 875 4013 500 3803 
L 500 4441 
Q 881 4594 1212 4672 
Q 1544 4750 1819 4750 
Q 2544 4750 2975 4387 
Q 3406 4025 3406 3419 
Q 3406 3131 3298 2873 
Q 3191 2616 2906 2266 
Q 2828 2175 2409 1742 
Q 1991 1309 1228 531 
z
" transform="scale(0.015625)"/>
        <path id="DejaVuSans-2d" d="M 313 2009 
L 1997 2009 
L 1997 1497 
L 313 1497 
L 313 2009 
z
" transform="scale(0.015625)"/>
        <path id="DejaVuSans-31" d="M 794 531 
L 1825 531 
L 1825 4091 
L 703 3866 
L 703 4441 
L 1819 4666 
L 2450 4666 
L 2450 531 
L 3481 531 
L 3481 0 
L 794 0 
L 794 531 
z
" transform="scale(0.015625)"/>
       </defs>
       <use xlink:href="#DejaVuSans-32"/>
       <use xlink:href="#DejaVuSans-30" x="63.623047"/>
       <use xlink:href="#DejaVuSans-32" x="127.246094"/>
       <use xlink:href="#DejaVuSans-32" x="190.869141"/>
       <use xlink:href="#DejaVuSans-2d" x="254.492188"/>
       <use xlink:href="#DejaVuSans-30" x="290.576172"/>
       <use xlink:href="#DejaVuSans-31" x="354.199219"/>
      </g>
     </g>
    </g>
    <g id="xtick_14">
     <g id="line2d_43">
      <path d="M 165.374115 584.521875 
L 165.374115 331.135938 
" clip-path="url(#p3a5fcecf9a)" style="fill: none; stroke-dasharray: 2.96,1.28; stroke-dashoffset: 0; stroke: #b0b0b0; stroke-width: 0.8"/>
     </g>
     <g id="line2d_44">
      <g>
       <use xlink:href="#m5330ff12a3" x="165.374115" y="584.521875" style="stroke: #000000; stroke-width: 0.8"/>
      </g>
     </g>
     <g id="text_11">
      <!-- 2022-02 -->
      <g transform="translate(144.482709 599.120312)scale(0.1 -0.1)">
       <use xlink:href="#DejaVuSans-32"/>
       <use xlink:href="#DejaVuSans-30" x="63.623047"/>
       <use xlink:href="#DejaVuSans-32" x="127.246094"/>
       <use xlink:href="#DejaVuSans-32" x="190.869141"/>
       <use xlink:href="#DejaVuSans-2d" x="254.492188"/>
       <use xlink:href="#DejaVuSans-30" x="290.576172"/>
       <use xlink:href="#DejaVuSans-32" x="354.199219"/>
      </g>
     </g>
    </g>
    <g id="xtick_15">
     <g id="line2d_45">
      <path d="M 240.190444 584.521875 
L 240.190444 331.135938 
" clip-path="url(#p3a5fcecf9a)" style="fill: none; stroke-dasharray: 2.96,1.28; stroke-dashoffset: 0; stroke: #b0b0b0; stroke-width: 0.8"/>
     </g>
     <g id="line2d_46">
      <g>
       <use xlink:href="#m5330ff12a3" x="240.190444" y="584.521875" style="stroke: #000000; stroke-width: 0.8"/>
      </g>
     </g>
     <g id="text_12">
      <!-- 2022-03 -->
      <g transform="translate(219.299037 599.120312)scale(0.1 -0.1)">
       <defs>
        <path id="DejaVuSans-33" d="M 2597 2516 
Q 3050 2419 3304 2112 
Q 3559 1806 3559 1356 
Q 3559 666 3084 287 
Q 2609 -91 1734 -91 
Q 1441 -91 1130 -33 
Q 819 25 488 141 
L 488 750 
Q 750 597 1062 519 
Q 1375 441 1716 441 
Q 2309 441 2620 675 
Q 2931 909 2931 1356 
Q 2931 1769 2642 2001 
Q 2353 2234 1838 2234 
L 1294 2234 
L 1294 2753 
L 1863 2753 
Q 2328 2753 2575 2939 
Q 2822 3125 2822 3475 
Q 2822 3834 2567 4026 
Q 2313 4219 1838 4219 
Q 1578 4219 1281 4162 
Q 984 4106 628 3988 
L 628 4550 
Q 988 4650 1302 4700 
Q 1616 4750 1894 4750 
Q 2613 4750 3031 4423 
Q 3450 4097 3450 3541 
Q 3450 3153 3228 2886 
Q 3006 2619 2597 2516 
z
" transform="scale(0.015625)"/>
       </defs>
       <use xlink:href="#DejaVuSans-32"/>
       <use xlink:href="#DejaVuSans-30" x="63.623047"/>
       <use xlink:href="#DejaVuSans-32" x="127.246094"/>
       <use xlink:href="#DejaVuSans-32" x="190.869141"/>
       <use xlink:href="#DejaVuSans-2d" x="254.492188"/>
       <use xlink:href="#DejaVuSans-30" x="290.576172"/>
       <use xlink:href="#DejaVuSans-33" x="354.199219"/>
      </g>
     </g>
    </g>
    <g id="xtick_16">
     <g id="line2d_47">
      <path d="M 323.022808 584.521875 
L 323.022808 331.135938 
" clip-path="url(#p3a5fcecf9a)" style="fill: none; stroke-dasharray: 2.96,1.28; stroke-dashoffset: 0; stroke: #b0b0b0; stroke-width: 0.8"/>
     </g>
     <g id="line2d_48">
      <g>
       <use xlink:href="#m5330ff12a3" x="323.022808" y="584.521875" style="stroke: #000000; stroke-width: 0.8"/>
      </g>
     </g>
     <g id="text_13">
      <!-- 2022-04 -->
      <g transform="translate(302.131401 599.120312)scale(0.1 -0.1)">
       <use xlink:href="#DejaVuSans-32"/>
       <use xlink:href="#DejaVuSans-30" x="63.623047"/>
       <use xlink:href="#DejaVuSans-32" x="127.246094"/>
       <use xlink:href="#DejaVuSans-32" x="190.869141"/>
       <use xlink:href="#DejaVuSans-2d" x="254.492188"/>
       <use xlink:href="#DejaVuSans-30" x="290.576172"/>
       <use xlink:href="#DejaVuSans-34" x="354.199219"/>
      </g>
     </g>
    </g>
    <g id="xtick_17">
     <g id="line2d_49">
      <path d="M 403.18316 584.521875 
L 403.18316 331.135938 
" clip-path="url(#p3a5fcecf9a)" style="fill: none; stroke-dasharray: 2.96,1.28; stroke-dashoffset: 0; stroke: #b0b0b0; stroke-width: 0.8"/>
     </g>
     <g id="line2d_50">
      <g>
       <use xlink:href="#m5330ff12a3" x="403.18316" y="584.521875" style="stroke: #000000; stroke-width: 0.8"/>
      </g>
     </g>
     <g id="text_14">
      <!-- 2022-05 -->
      <g transform="translate(382.291753 599.120312)scale(0.1 -0.1)">
       <use xlink:href="#DejaVuSans-32"/>
       <use xlink:href="#DejaVuSans-30" x="63.623047"/>
       <use xlink:href="#DejaVuSans-32" x="127.246094"/>
       <use xlink:href="#DejaVuSans-32" x="190.869141"/>
       <use xlink:href="#DejaVuSans-2d" x="254.492188"/>
       <use xlink:href="#DejaVuSans-30" x="290.576172"/>
       <use xlink:href="#DejaVuSans-35" x="354.199219"/>
      </g>
     </g>
    </g>
    <g id="xtick_18">
     <g id="line2d_51">
      <path d="M 486.015523 584.521875 
L 486.015523 331.135938 
" clip-path="url(#p3a5fcecf9a)" style="fill: none; stroke-dasharray: 2.96,1.28; stroke-dashoffset: 0; stroke: #b0b0b0; stroke-width: 0.8"/>
     </g>
     <g id="line2d_52">
      <g>
       <use xlink:href="#m5330ff12a3" x="486.015523" y="584.521875" style="stroke: #000000; stroke-width: 0.8"/>
      </g>
     </g>
     <g id="text_15">
      <!-- 2022-06 -->
      <g transform="translate(465.124117 599.120312)scale(0.1 -0.1)">
       <use xlink:href="#DejaVuSans-32"/>
       <use xlink:href="#DejaVuSans-30" x="63.623047"/>
       <use xlink:href="#DejaVuSans-32" x="127.246094"/>
       <use xlink:href="#DejaVuSans-32" x="190.869141"/>
       <use xlink:href="#DejaVuSans-2d" x="254.492188"/>
       <use xlink:href="#DejaVuSans-30" x="290.576172"/>
       <use xlink:href="#DejaVuSans-36" x="354.199219"/>
      </g>
     </g>
    </g>
    <g id="xtick_19">
     <g id="line2d_53">
      <path d="M 566.175876 584.521875 
L 566.175876 331.135938 
" clip-path="url(#p3a5fcecf9a)" style="fill: none; stroke-dasharray: 2.96,1.28; stroke-dashoffset: 0; stroke: #b0b0b0; stroke-width: 0.8"/>
     </g>
     <g id="line2d_54">
      <g>
       <use xlink:href="#m5330ff12a3" x="566.175876" y="584.521875" style="stroke: #000000; stroke-width: 0.8"/>
      </g>
     </g>
     <g id="text_16">
      <!-- 2022-07 -->
      <g transform="translate(545.284469 599.120312)scale(0.1 -0.1)">
       <use xlink:href="#DejaVuSans-32"/>
       <use xlink:href="#DejaVuSans-30" x="63.623047"/>
       <use xlink:href="#DejaVuSans-32" x="127.246094"/>
       <use xlink:href="#DejaVuSans-32" x="190.869141"/>
       <use xlink:href="#DejaVuSans-2d" x="254.492188"/>
       <use xlink:href="#DejaVuSans-30" x="290.576172"/>
       <use xlink:href="#DejaVuSans-37" x="354.199219"/>
      </g>
     </g>
    </g>
    <g id="xtick_20">
     <g id="line2d_55">
      <path d="M 649.008239 584.521875 
L 649.008239 331.135938 
" clip-path="url(#p3a5fcecf9a)" style="fill: none; stroke-dasharray: 2.96,1.28; stroke-dashoffset: 0; stroke: #b0b0b0; stroke-width: 0.8"/>
     </g>
     <g id="line2d_56">
      <g>
       <use xlink:href="#m5330ff12a3" x="649.008239" y="584.521875" style="stroke: #000000; stroke-width: 0.8"/>
      </g>
     </g>
     <g id="text_17">
      <!-- 2022-08 -->
      <g transform="translate(628.116833 599.120312)scale(0.1 -0.1)">
       <defs>
        <path id="DejaVuSans-38" d="M 2034 2216 
Q 1584 2216 1326 1975 
Q 1069 1734 1069 1313 
Q 1069 891 1326 650 
Q 1584 409 2034 409 
Q 2484 409 2743 651 
Q 3003 894 3003 1313 
Q 3003 1734 2745 1975 
Q 2488 2216 2034 2216 
z
M 1403 2484 
Q 997 2584 770 2862 
Q 544 3141 544 3541 
Q 544 4100 942 4425 
Q 1341 4750 2034 4750 
Q 2731 4750 3128 4425 
Q 3525 4100 3525 3541 
Q 3525 3141 3298 2862 
Q 3072 2584 2669 2484 
Q 3125 2378 3379 2068 
Q 3634 1759 3634 1313 
Q 3634 634 3220 271 
Q 2806 -91 2034 -91 
Q 1263 -91 848 271 
Q 434 634 434 1313 
Q 434 1759 690 2068 
Q 947 2378 1403 2484 
z
M 1172 3481 
Q 1172 3119 1398 2916 
Q 1625 2713 2034 2713 
Q 2441 2713 2670 2916 
Q 2900 3119 2900 3481 
Q 2900 3844 2670 4047 
Q 2441 4250 2034 4250 
Q 1625 4250 1398 4047 
Q 1172 3844 1172 3481 
z
" transform="scale(0.015625)"/>
       </defs>
       <use xlink:href="#DejaVuSans-32"/>
       <use xlink:href="#DejaVuSans-30" x="63.623047"/>
       <use xlink:href="#DejaVuSans-32" x="127.246094"/>
       <use xlink:href="#DejaVuSans-32" x="190.869141"/>
       <use xlink:href="#DejaVuSans-2d" x="254.492188"/>
       <use xlink:href="#DejaVuSans-30" x="290.576172"/>
       <use xlink:href="#DejaVuSans-38" x="354.199219"/>
      </g>
     </g>
    </g>
    <g id="xtick_21">
     <g id="line2d_57">
      <path d="M 731.840603 584.521875 
L 731.840603 331.135938 
" clip-path="url(#p3a5fcecf9a)" style="fill: none; stroke-dasharray: 2.96,1.28; stroke-dashoffset: 0; stroke: #b0b0b0; stroke-width: 0.8"/>
     </g>
     <g id="line2d_58">
      <g>
       <use xlink:href="#m5330ff12a3" x="731.840603" y="584.521875" style="stroke: #000000; stroke-width: 0.8"/>
      </g>
     </g>
     <g id="text_18">
      <!-- 2022-09 -->
      <g transform="translate(710.949197 599.120312)scale(0.1 -0.1)">
       <defs>
        <path id="DejaVuSans-39" d="M 703 97 
L 703 672 
Q 941 559 1184 500 
Q 1428 441 1663 441 
Q 2288 441 2617 861 
Q 2947 1281 2994 2138 
Q 2813 1869 2534 1725 
Q 2256 1581 1919 1581 
Q 1219 1581 811 2004 
Q 403 2428 403 3163 
Q 403 3881 828 4315 
Q 1253 4750 1959 4750 
Q 2769 4750 3195 4129 
Q 3622 3509 3622 2328 
Q 3622 1225 3098 567 
Q 2575 -91 1691 -91 
Q 1453 -91 1209 -44 
Q 966 3 703 97 
z
M 1959 2075 
Q 2384 2075 2632 2365 
Q 2881 2656 2881 3163 
Q 2881 3666 2632 3958 
Q 2384 4250 1959 4250 
Q 1534 4250 1286 3958 
Q 1038 3666 1038 3163 
Q 1038 2656 1286 2365 
Q 1534 2075 1959 2075 
z
" transform="scale(0.015625)"/>
       </defs>
       <use xlink:href="#DejaVuSans-32"/>
       <use xlink:href="#DejaVuSans-30" x="63.623047"/>
       <use xlink:href="#DejaVuSans-32" x="127.246094"/>
       <use xlink:href="#DejaVuSans-32" x="190.869141"/>
       <use xlink:href="#DejaVuSans-2d" x="254.492188"/>
       <use xlink:href="#DejaVuSans-30" x="290.576172"/>
       <use xlink:href="#DejaVuSans-39" x="354.199219"/>
      </g>
     </g>
    </g>
    <g id="xtick_22">
     <g id="line2d_59">
      <path d="M 812.000955 584.521875 
L 812.000955 331.135938 
" clip-path="url(#p3a5fcecf9a)" style="fill: none; stroke-dasharray: 2.96,1.28; stroke-dashoffset: 0; stroke: #b0b0b0; stroke-width: 0.8"/>
     </g>
     <g id="line2d_60">
      <g>
       <use xlink:href="#m5330ff12a3" x="812.000955" y="584.521875" style="stroke: #000000; stroke-width: 0.8"/>
      </g>
     </g>
     <g id="text_19">
      <!-- 2022-10 -->
      <g transform="translate(791.109549 599.120312)scale(0.1 -0.1)">
       <use xlink:href="#DejaVuSans-32"/>
       <use xlink:href="#DejaVuSans-30" x="63.623047"/>
       <use xlink:href="#DejaVuSans-32" x="127.246094"/>
       <use xlink:href="#DejaVuSans-32" x="190.869141"/>
       <use xlink:href="#DejaVuSans-2d" x="254.492188"/>
       <use xlink:href="#DejaVuSans-31" x="290.576172"/>
       <use xlink:href="#DejaVuSans-30" x="354.199219"/>
      </g>
     </g>
    </g>
    <g id="xtick_23">
     <g id="line2d_61">
      <path d="M 894.833319 584.521875 
L 894.833319 331.135938 
" clip-path="url(#p3a5fcecf9a)" style="fill: none; stroke-dasharray: 2.96,1.28; stroke-dashoffset: 0; stroke: #b0b0b0; stroke-width: 0.8"/>
     </g>
     <g id="line2d_62">
      <g>
       <use xlink:href="#m5330ff12a3" x="894.833319" y="584.521875" style="stroke: #000000; stroke-width: 0.8"/>
      </g>
     </g>
     <g id="text_20">
      <!-- 2022-11 -->
      <g transform="translate(873.941913 599.120312)scale(0.1 -0.1)">
       <use xlink:href="#DejaVuSans-32"/>
       <use xlink:href="#DejaVuSans-30" x="63.623047"/>
       <use xlink:href="#DejaVuSans-32" x="127.246094"/>
       <use xlink:href="#DejaVuSans-32" x="190.869141"/>
       <use xlink:href="#DejaVuSans-2d" x="254.492188"/>
       <use xlink:href="#DejaVuSans-31" x="290.576172"/>
       <use xlink:href="#DejaVuSans-31" x="354.199219"/>
      </g>
     </g>
    </g>
    <g id="xtick_24">
     <g id="line2d_63">
      <path d="M 974.993671 584.521875 
L 974.993671 331.135938 
" clip-path="url(#p3a5fcecf9a)" style="fill: none; stroke-dasharray: 2.96,1.28; stroke-dashoffset: 0; stroke: #b0b0b0; stroke-width: 0.8"/>
     </g>
     <g id="line2d_64">
      <g>
       <use xlink:href="#m5330ff12a3" x="974.993671" y="584.521875" style="stroke: #000000; stroke-width: 0.8"/>
      </g>
     </g>
     <g id="text_21">
      <!-- 2022-12 -->
      <g transform="translate(954.102265 599.120312)scale(0.1 -0.1)">
       <use xlink:href="#DejaVuSans-32"/>
       <use xlink:href="#DejaVuSans-30" x="63.623047"/>
       <use xlink:href="#DejaVuSans-32" x="127.246094"/>
       <use xlink:href="#DejaVuSans-32" x="190.869141"/>
       <use xlink:href="#DejaVuSans-2d" x="254.492188"/>
       <use xlink:href="#DejaVuSans-31" x="290.576172"/>
       <use xlink:href="#DejaVuSans-32" x="354.199219"/>
      </g>
     </g>
    </g>
   </g>
   <g id="matplotlib.axis_4">
    <g id="ytick_7">
     <g id="line2d_65">
      <path d="M 45.267188 556.138414 
L 982.876106 556.138414 
" clip-path="url(#p3a5fcecf9a)" style="fill: none; stroke-dasharray: 2.96,1.28; stroke-dashoffset: 0; stroke: #b0b0b0; stroke-width: 0.8"/>
     </g>
     <g id="line2d_66">
      <g>
       <use xlink:href="#m871de02854" x="45.267188" y="556.138414" style="stroke: #000000; stroke-width: 0.8"/>
      </g>
     </g>
     <g id="text_22">
      <!-- −100 -->
      <g transform="translate(10.8 559.937633)scale(0.1 -0.1)">
       <defs>
        <path id="DejaVuSans-2212" d="M 678 2272 
L 4684 2272 
L 4684 1741 
L 678 1741 
L 678 2272 
z
" transform="scale(0.015625)"/>
       </defs>
       <use xlink:href="#DejaVuSans-2212"/>
       <use xlink:href="#DejaVuSans-31" x="83.789062"/>
       <use xlink:href="#DejaVuSans-30" x="147.412109"/>
       <use xlink:href="#DejaVuSans-30" x="211.035156"/>
      </g>
     </g>
    </g>
    <g id="ytick_8">
     <g id="line2d_67">
      <path d="M 45.267188 517.26058 
L 982.876106 517.26058 
" clip-path="url(#p3a5fcecf9a)" style="fill: none; stroke-dasharray: 2.96,1.28; stroke-dashoffset: 0; stroke: #b0b0b0; stroke-width: 0.8"/>
     </g>
     <g id="line2d_68">
      <g>
       <use xlink:href="#m871de02854" x="45.267188" y="517.26058" style="stroke: #000000; stroke-width: 0.8"/>
      </g>
     </g>
     <g id="text_23">
      <!-- 0 -->
      <g transform="translate(31.904688 521.059799)scale(0.1 -0.1)">
       <use xlink:href="#DejaVuSans-30"/>
      </g>
     </g>
    </g>
    <g id="ytick_9">
     <g id="line2d_69">
      <path d="M 45.267188 478.382747 
L 982.876106 478.382747 
" clip-path="url(#p3a5fcecf9a)" style="fill: none; stroke-dasharray: 2.96,1.28; stroke-dashoffset: 0; stroke: #b0b0b0; stroke-width: 0.8"/>
     </g>
     <g id="line2d_70">
      <g>
       <use xlink:href="#m871de02854" x="45.267188" y="478.382747" style="stroke: #000000; stroke-width: 0.8"/>
      </g>
     </g>
     <g id="text_24">
      <!-- 100 -->
      <g transform="translate(19.179688 482.181966)scale(0.1 -0.1)">
       <use xlink:href="#DejaVuSans-31"/>
       <use xlink:href="#DejaVuSans-30" x="63.623047"/>
       <use xlink:href="#DejaVuSans-30" x="127.246094"/>
      </g>
     </g>
    </g>
    <g id="ytick_10">
     <g id="line2d_71">
      <path d="M 45.267188 439.504913 
L 982.876106 439.504913 
" clip-path="url(#p3a5fcecf9a)" style="fill: none; stroke-dasharray: 2.96,1.28; stroke-dashoffset: 0; stroke: #b0b0b0; stroke-width: 0.8"/>
     </g>
     <g id="line2d_72">
      <g>
       <use xlink:href="#m871de02854" x="45.267188" y="439.504913" style="stroke: #000000; stroke-width: 0.8"/>
      </g>
     </g>
     <g id="text_25">
      <!-- 200 -->
      <g transform="translate(19.179688 443.304132)scale(0.1 -0.1)">
       <use xlink:href="#DejaVuSans-32"/>
       <use xlink:href="#DejaVuSans-30" x="63.623047"/>
       <use xlink:href="#DejaVuSans-30" x="127.246094"/>
      </g>
     </g>
    </g>
    <g id="ytick_11">
     <g id="line2d_73">
      <path d="M 45.267188 400.62708 
L 982.876106 400.62708 
" clip-path="url(#p3a5fcecf9a)" style="fill: none; stroke-dasharray: 2.96,1.28; stroke-dashoffset: 0; stroke: #b0b0b0; stroke-width: 0.8"/>
     </g>
     <g id="line2d_74">
      <g>
       <use xlink:href="#m871de02854" x="45.267188" y="400.62708" style="stroke: #000000; stroke-width: 0.8"/>
      </g>
     </g>
     <g id="text_26">
      <!-- 300 -->
      <g transform="translate(19.179688 404.426299)scale(0.1 -0.1)">
       <use xlink:href="#DejaVuSans-33"/>
       <use xlink:href="#DejaVuSans-30" x="63.623047"/>
       <use xlink:href="#DejaVuSans-30" x="127.246094"/>
      </g>
     </g>
    </g>
    <g id="ytick_12">
     <g id="line2d_75">
      <path d="M 45.267188 361.749247 
L 982.876106 361.749247 
" clip-path="url(#p3a5fcecf9a)" style="fill: none; stroke-dasharray: 2.96,1.28; stroke-dashoffset: 0; stroke: #b0b0b0; stroke-width: 0.8"/>
     </g>
     <g id="line2d_76">
      <g>
       <use xlink:href="#m871de02854" x="45.267188" y="361.749247" style="stroke: #000000; stroke-width: 0.8"/>
      </g>
     </g>
     <g id="text_27">
      <!-- 400 -->
      <g transform="translate(19.179688 365.548465)scale(0.1 -0.1)">
       <use xlink:href="#DejaVuSans-34"/>
       <use xlink:href="#DejaVuSans-30" x="63.623047"/>
       <use xlink:href="#DejaVuSans-30" x="127.246094"/>
      </g>
     </g>
    </g>
   </g>
   <g id="line2d_77">
    <path d="M 87.885775 517.26058 
L 90.557786 517.754279 
L 93.229798 517.039703 
L 95.90181 518.378548 
L 98.573822 520.194841 
L 106.589857 520.657984 
L 109.261869 520.656955 
L 114.605892 516.829935 
L 117.277904 513.884326 
L 125.293939 510.458897 
L 127.965951 508.635911 
L 130.637962 508.081344 
L 133.309974 506.543944 
L 135.981986 508.797291 
L 143.998021 517.025876 
L 146.670033 521.635714 
L 152.014056 525.98136 
L 154.686068 529.036639 
L 162.702103 530.207815 
L 165.374115 529.308785 
L 168.046127 527.54864 
L 170.718139 526.739087 
L 173.39015 527.861341 
L 181.406185 530.288834 
L 184.078197 530.090359 
L 186.750209 528.675236 
L 189.422221 527.385961 
L 192.094232 526.880241 
L 200.110268 527.65999 
L 202.782279 527.278423 
L 205.454291 522.948014 
L 208.126303 518.173281 
L 210.798315 514.368845 
L 218.81435 511.72954 
L 221.486362 514.236935 
L 224.158373 515.383315 
L 226.830385 519.937384 
L 229.502397 520.536282 
L 237.518432 521.000113 
L 242.862455 524.320661 
L 245.534467 527.300974 
L 248.206479 534.152173 
L 256.222514 541.872302 
L 258.894526 545.069879 
L 261.566538 545.452233 
L 264.238549 545.08281 
L 266.910561 547.10064 
L 274.926596 545.828153 
L 277.598608 545.755894 
L 280.27062 542.009364 
L 282.942631 540.619766 
L 293.630678 539.273602 
L 296.30269 537.839342 
L 301.646714 533.024987 
L 304.318725 532.73651 
L 312.334761 531.574489 
L 315.006772 529.773084 
L 317.678784 530.325588 
L 320.350796 529.625313 
L 323.022808 517.003172 
L 331.038843 493.891579 
L 333.710854 466.350649 
L 336.382866 443.008677 
L 339.054878 424.847702 
L 341.72689 412.534752 
L 349.742925 406.078005 
L 352.414937 416.229052 
L 355.086948 430.94661 
L 368.447007 453.119361 
L 371.119019 471.626507 
L 373.791031 484.61227 
L 379.135054 500.453027 
L 387.151089 505.567572 
L 389.823101 505.545332 
L 392.495113 508.865553 
L 395.167124 506.906412 
L 397.839136 516.296647 
L 405.855171 518.836717 
L 411.199195 522.71291 
L 416.543218 539.752337 
L 424.559254 546.587758 
L 427.231265 551.710996 
L 429.903277 552.015999 
L 432.575289 559.669045 
L 435.2473 562.650259 
L 443.263336 565.478725 
L 445.935347 565.797211 
L 448.607359 567.005823 
L 451.279371 570.232312 
L 453.951383 568.668185 
L 461.967418 566.853739 
L 464.63943 564.601944 
L 467.311441 563.407878 
L 469.983453 561.681389 
L 472.655465 556.522579 
L 480.6715 551.205623 
L 483.343512 544.289208 
L 486.015523 540.498455 
L 488.687535 538.040303 
L 491.359547 536.889872 
L 499.375582 534.95251 
L 502.047594 534.467029 
L 504.719606 535.171122 
L 507.391617 535.256639 
L 510.063629 533.414708 
L 518.079664 534.083618 
L 520.751676 534.896594 
L 523.423688 533.670501 
L 526.095699 538.425409 
L 528.767711 551.334804 
L 536.783746 560.313336 
L 539.455758 563.748411 
L 542.12777 569.291573 
L 544.799782 573.004332 
L 547.471793 569.990608 
L 555.487829 563.947582 
L 558.15984 562.196072 
L 560.831852 563.760168 
L 563.503864 562.852391 
L 566.175876 562.114684 
L 574.191911 560.651854 
L 576.863922 555.162696 
L 579.535934 547.998798 
L 582.207946 539.87732 
L 584.879958 533.81327 
L 592.895993 526.730647 
L 595.568005 519.896741 
L 598.240016 518.922486 
L 600.912028 519.816474 
L 603.58404 520.266024 
L 611.600075 520.214933 
L 614.272087 519.998577 
L 616.944099 518.689154 
L 619.61611 517.619062 
L 622.288122 516.182686 
L 630.304157 514.098896 
L 632.976169 511.730102 
L 635.648181 509.620901 
L 638.320192 498.895713 
L 640.992204 490.162447 
L 649.008239 482.039528 
L 651.680251 474.58351 
L 654.352263 469.955512 
L 657.024275 464.882275 
L 659.696286 464.208786 
L 667.712322 462.403191 
L 673.056345 460.22896 
L 675.728357 460.175619 
L 678.400368 461.279034 
L 689.088415 462.117812 
L 691.760427 460.444697 
L 694.432439 456.700138 
L 697.104451 455.394674 
L 705.120486 458.204611 
L 707.792498 461.744372 
L 713.136521 466.900127 
L 715.808533 469.287597 
L 723.824568 472.339049 
L 726.49658 472.993231 
L 731.840603 465.693951 
L 734.512615 463.152429 
L 742.52865 461.070715 
L 745.200662 455.514884 
L 747.872674 453.194613 
L 750.544685 433.618077 
L 753.216697 410.320218 
L 761.232732 394.181898 
L 763.904744 383.283221 
L 766.576756 360.030902 
L 769.248768 344.651775 
L 771.920779 345.325176 
L 779.936814 344.175801 
L 782.608826 342.65348 
L 785.280838 344.182525 
L 787.95285 348.568629 
L 790.624861 355.583578 
L 798.640897 365.640439 
L 801.312908 378.964596 
L 803.98492 391.103826 
L 806.656932 412.427916 
L 809.328944 427.590994 
L 817.344979 436.879685 
L 820.016991 444.148964 
L 825.361014 448.508045 
L 828.033026 447.110372 
L 836.049061 448.988819 
L 841.393084 456.587403 
L 844.065096 460.650294 
L 846.737108 466.213816 
L 854.753143 470.665965 
L 860.097167 471.915873 
L 862.769178 481.176996 
L 865.44119 489.906288 
L 873.457225 495.892644 
L 876.129237 499.998254 
L 884.145272 501.198627 
L 892.161307 499.662266 
L 894.833319 497.018492 
L 897.505331 495.331357 
L 900.177343 493.268546 
L 902.849354 492.496449 
L 910.86539 490.874269 
L 916.209413 486.486325 
L 918.881425 485.701945 
L 921.553437 488.560815 
L 929.569472 492.307803 
L 932.241483 495.971335 
L 937.585507 501.121726 
L 940.257519 505.64343 
L 940.257519 505.64343 
" clip-path="url(#p3a5fcecf9a)" style="fill: none; stroke: #1f77b4; stroke-width: 1.5; stroke-linecap: square"/>
   </g>
   <g id="line2d_78">
    <path d="M 87.885775 517.26058 
L 90.557786 517.534857 
L 93.229798 517.331925 
L 95.90181 517.686472 
L 98.573822 518.432655 
L 106.589857 519.035843 
L 109.261869 519.446103 
L 111.93388 519.287226 
L 114.605892 518.71958 
L 117.277904 517.636202 
L 125.293939 516.065849 
L 127.965951 514.47021 
L 133.309974 511.742785 
L 135.981986 511.132203 
L 143.998021 512.345077 
L 146.670033 514.24601 
L 152.014056 516.636136 
L 154.686068 519.152502 
L 162.702103 521.389354 
L 165.374115 522.987985 
L 168.046127 523.906896 
L 173.39015 525.156838 
L 181.406185 526.18713 
L 184.078197 526.970142 
L 186.750209 527.311988 
L 202.782279 527.313268 
L 205.454291 526.439525 
L 208.126303 524.785227 
L 210.798315 522.700894 
L 218.81435 520.505733 
L 221.486362 519.251566 
L 224.158373 518.477715 
L 229.502397 519.123083 
L 237.518432 519.498539 
L 242.862455 520.463066 
L 245.534467 521.830764 
L 248.206479 524.295213 
L 256.222514 527.810823 
L 258.894526 531.262784 
L 261.566538 534.100773 
L 266.910561 538.457969 
L 274.926596 539.932032 
L 277.598608 541.096821 
L 280.27062 541.279332 
L 282.942631 541.147418 
L 293.630678 540.772652 
L 296.30269 540.185986 
L 298.974702 539.239349 
L 301.646714 537.996472 
L 304.318725 536.944477 
L 312.334761 535.870477 
L 315.006772 534.650996 
L 320.350796 532.953792 
L 323.022808 529.763665 
L 331.038843 522.589242 
L 333.710854 511.341516 
L 336.382866 497.674942 
L 341.72689 468.994536 
L 349.742925 456.411227 
L 352.414937 448.37479 
L 355.086948 444.889154 
L 368.447007 446.535195 
L 371.119019 451.553458 
L 376.463042 465.027706 
L 379.135054 472.11277 
L 387.151089 478.803731 
L 389.823101 484.152051 
L 392.495113 489.094752 
L 395.167124 492.657084 
L 397.839136 497.384997 
L 405.855171 501.675341 
L 411.199195 505.882855 
L 413.871207 510.953906 
L 416.543218 516.713592 
L 424.559254 522.688425 
L 427.231265 528.49294 
L 429.903277 533.197551 
L 432.575289 538.49185 
L 435.2473 543.323532 
L 443.263336 547.754571 
L 445.935347 551.363099 
L 451.279371 557.639777 
L 453.951383 559.845459 
L 461.967418 561.247115 
L 464.63943 561.918081 
L 467.311441 562.21604 
L 469.983453 562.10911 
L 472.655465 560.991804 
L 480.6715 559.034568 
L 483.343512 556.085496 
L 488.687535 549.982531 
L 491.359547 547.363999 
L 499.375582 544.881701 
L 502.047594 542.798767 
L 504.719606 541.273238 
L 507.391617 540.069918 
L 510.063629 538.738876 
L 518.079664 537.807824 
L 520.751676 537.225578 
L 523.423688 536.514563 
L 526.095699 536.896732 
L 528.767711 539.784346 
L 536.783746 543.890144 
L 539.455758 547.861798 
L 544.799782 556.319069 
L 547.471793 559.053377 
L 558.15984 560.464989 
L 560.831852 561.124024 
L 563.503864 561.469698 
L 566.175876 561.598695 
L 574.191911 561.409327 
L 576.863922 560.160001 
L 579.535934 557.72776 
L 582.207946 554.157672 
L 584.879958 550.088792 
L 592.895993 545.417163 
L 595.568005 540.313078 
L 598.240016 536.03496 
L 600.912028 532.791263 
L 603.58404 530.286215 
L 611.600075 528.271958 
L 616.944099 525.031657 
L 622.288122 522.075847 
L 630.304157 520.480457 
L 635.648181 516.908489 
L 638.320192 513.305934 
L 640.992204 508.677236 
L 649.008239 503.349695 
L 654.352263 492.068269 
L 657.024275 486.63107 
L 659.696286 482.146613 
L 667.712322 478.197929 
L 673.056345 474.604135 
L 675.728357 471.718432 
L 678.400368 469.630552 
L 689.088415 468.128004 
L 691.760427 466.591343 
L 697.104451 462.769416 
L 705.120486 461.856455 
L 707.792498 461.834038 
L 710.464509 462.33324 
L 713.136521 463.246617 
L 715.808533 464.454813 
L 723.824568 466.03166 
L 726.49658 467.423975 
L 731.840603 467.07797 
L 734.512615 466.292861 
L 742.52865 465.248432 
L 747.872674 461.280301 
L 750.544685 455.747856 
L 753.216697 446.662328 
L 761.232732 436.166242 
L 763.904744 425.589638 
L 769.248768 398.912668 
L 771.920779 388.195169 
L 779.936814 379.391296 
L 782.608826 372.043733 
L 785.280838 366.471491 
L 787.95285 362.890919 
L 790.624861 361.429451 
L 798.640897 362.271648 
L 801.312908 365.610238 
L 803.98492 370.708955 
L 806.656932 379.052748 
L 809.328944 388.760397 
L 817.344979 398.384255 
L 820.016991 407.537196 
L 825.361014 415.731366 
L 828.033026 422.007167 
L 836.049061 427.403498 
L 841.393084 437.289593 
L 846.737108 446.81215 
L 854.753143 451.582913 
L 857.425155 455.527565 
L 860.097167 458.805226 
L 862.769178 463.27958 
L 865.44119 468.604922 
L 873.457225 474.062466 
L 876.129237 479.249624 
L 881.47326 483.569678 
L 884.145272 487.095467 
L 892.161307 489.608827 
L 894.833319 491.09076 
L 897.505331 491.938879 
L 900.177343 492.204813 
L 902.849354 492.26314 
L 910.86539 491.985366 
L 916.209413 490.885558 
L 918.881425 489.848835 
L 921.553437 489.591231 
L 929.569472 490.134546 
L 932.241483 491.301904 
L 934.913495 492.736486 
L 937.585507 494.413534 
L 940.257519 496.659514 
L 940.257519 496.659514 
" clip-path="url(#p3a5fcecf9a)" style="fill: none; stroke: #ff7f0e; stroke-width: 1.5; stroke-linecap: square"/>
   </g>
   <g id="patch_9">
    <path d="M 45.267188 584.521875 
L 45.267188 331.135938 
" style="fill: none; stroke: #000000; stroke-width: 0.8; stroke-linejoin: miter; stroke-linecap: square"/>
   </g>
   <g id="patch_10">
    <path d="M 982.876106 584.521875 
L 982.876106 331.135938 
" style="fill: none; stroke: #000000; stroke-width: 0.8; stroke-linejoin: miter; stroke-linecap: square"/>
   </g>
   <g id="patch_11">
    <path d="M 45.267188 584.521875 
L 982.876106 584.521875 
" style="fill: none; stroke: #000000; stroke-width: 0.8; stroke-linejoin: miter; stroke-linecap: square"/>
   </g>
   <g id="patch_12">
    <path d="M 45.267188 331.135938 
L 982.876106 331.135938 
" style="fill: none; stroke: #000000; stroke-width: 0.8; stroke-linejoin: miter; stroke-linecap: square"/>
   </g>
   <g id="text_28">
    <!-- MACD -->
    <g transform="translate(496.085709 325.135938)scale(0.12 -0.12)">
     <defs>
      <path id="DejaVuSans-44" d="M 1259 4147 
L 1259 519 
L 2022 519 
Q 2988 519 3436 956 
Q 3884 1394 3884 2338 
Q 3884 3275 3436 3711 
Q 2988 4147 2022 4147 
L 1259 4147 
z
M 628 4666 
L 1925 4666 
Q 3281 4666 3915 4102 
Q 4550 3538 4550 2338 
Q 4550 1131 3912 565 
Q 3275 0 1925 0 
L 628 0 
L 628 4666 
z
" transform="scale(0.015625)"/>
     </defs>
     <use xlink:href="#DejaVuSans-4d"/>
     <use xlink:href="#DejaVuSans-41" x="86.279297"/>
     <use xlink:href="#DejaVuSans-43" x="152.9375"/>
     <use xlink:href="#DejaVuSans-44" x="222.761719"/>
    </g>
   </g>
   <g id="legend_2">
    <g id="patch_13">
     <path d="M 913.899543 368.492188 
L 975.876106 368.492188 
Q 977.876106 368.492188 977.876106 366.492188 
L 977.876106 338.135938 
Q 977.876106 336.135938 975.876106 336.135938 
L 913.899543 336.135938 
Q 911.899543 336.135938 911.899543 338.135938 
L 911.899543 366.492188 
Q 911.899543 368.492188 913.899543 368.492188 
z
" style="fill: #ffffff; opacity: 0.8; stroke: #cccccc; stroke-linejoin: miter"/>
    </g>
    <g id="line2d_79">
     <path d="M 915.899543 344.234375 
L 925.899543 344.234375 
L 935.899543 344.234375 
" style="fill: none; stroke: #1f77b4; stroke-width: 1.5; stroke-linecap: square"/>
    </g>
    <g id="text_29">
     <!-- MACD -->
     <g transform="translate(943.899543 347.734375)scale(0.1 -0.1)">
      <use xlink:href="#DejaVuSans-4d"/>
      <use xlink:href="#DejaVuSans-41" x="86.279297"/>
      <use xlink:href="#DejaVuSans-43" x="152.9375"/>
      <use xlink:href="#DejaVuSans-44" x="222.761719"/>
     </g>
    </g>
    <g id="line2d_80">
     <path d="M 915.899543 358.9125 
L 925.899543 358.9125 
L 935.899543 358.9125 
" style="fill: none; stroke: #ff7f0e; stroke-width: 1.5; stroke-linecap: square"/>
    </g>
    <g id="text_30">
     <!-- SIG -->
     <g transform="translate(943.899543 362.4125)scale(0.1 -0.1)">
      <defs>
       <path id="DejaVuSans-49" d="M 628 4666 
L 1259 4666 
L 1259 0 
L 628 0 
L 628 4666 
z
" transform="scale(0.015625)"/>
       <path id="DejaVuSans-47" d="M 3809 666 
L 3809 1919 
L 2778 1919 
L 2778 2438 
L 4434 2438 
L 4434 434 
Q 4069 175 3628 42 
Q 3188 -91 2688 -91 
Q 1594 -91 976 548 
Q 359 1188 359 2328 
Q 359 3472 976 4111 
Q 1594 4750 2688 4750 
Q 3144 4750 3555 4637 
Q 3966 4525 4313 4306 
L 4313 3634 
Q 3963 3931 3569 4081 
Q 3175 4231 2741 4231 
Q 1884 4231 1454 3753 
Q 1025 3275 1025 2328 
Q 1025 1384 1454 906 
Q 1884 428 2741 428 
Q 3075 428 3337 486 
Q 3600 544 3809 666 
z
" transform="scale(0.015625)"/>
      </defs>
      <use xlink:href="#DejaVuSans-53"/>
      <use xlink:href="#DejaVuSans-49" x="63.476562"/>
      <use xlink:href="#DejaVuSans-47" x="92.96875"/>
     </g>
    </g>
   </g>
  </g>
  <g id="text_31">
   <!-- Bajaj Holdings &amp; Investment Limited -->
   <g transform="translate(394.467188 21.358125)scale(0.12 -0.12)">
    <defs>
     <path id="DejaVuSans-42" d="M 1259 2228 
L 1259 519 
L 2272 519 
Q 2781 519 3026 730 
Q 3272 941 3272 1375 
Q 3272 1813 3026 2020 
Q 2781 2228 2272 2228 
L 1259 2228 
z
M 1259 4147 
L 1259 2741 
L 2194 2741 
Q 2656 2741 2882 2914 
Q 3109 3088 3109 3444 
Q 3109 3797 2882 3972 
Q 2656 4147 2194 4147 
L 1259 4147 
z
M 628 4666 
L 2241 4666 
Q 2963 4666 3353 4366 
Q 3744 4066 3744 3513 
Q 3744 3084 3544 2831 
Q 3344 2578 2956 2516 
Q 3422 2416 3680 2098 
Q 3938 1781 3938 1306 
Q 3938 681 3513 340 
Q 3088 0 2303 0 
L 628 0 
L 628 4666 
z
" transform="scale(0.015625)"/>
     <path id="DejaVuSans-61" d="M 2194 1759 
Q 1497 1759 1228 1600 
Q 959 1441 959 1056 
Q 959 750 1161 570 
Q 1363 391 1709 391 
Q 2188 391 2477 730 
Q 2766 1069 2766 1631 
L 2766 1759 
L 2194 1759 
z
M 3341 1997 
L 3341 0 
L 2766 0 
L 2766 531 
Q 2569 213 2275 61 
Q 1981 -91 1556 -91 
Q 1019 -91 701 211 
Q 384 513 384 1019 
Q 384 1609 779 1909 
Q 1175 2209 1959 2209 
L 2766 2209 
L 2766 2266 
Q 2766 2663 2505 2880 
Q 2244 3097 1772 3097 
Q 1472 3097 1187 3025 
Q 903 2953 641 2809 
L 641 3341 
Q 956 3463 1253 3523 
Q 1550 3584 1831 3584 
Q 2591 3584 2966 3190 
Q 3341 2797 3341 1997 
z
" transform="scale(0.015625)"/>
     <path id="DejaVuSans-6a" d="M 603 3500 
L 1178 3500 
L 1178 -63 
Q 1178 -731 923 -1031 
Q 669 -1331 103 -1331 
L -116 -1331 
L -116 -844 
L 38 -844 
Q 366 -844 484 -692 
Q 603 -541 603 -63 
L 603 3500 
z
M 603 4863 
L 1178 4863 
L 1178 4134 
L 603 4134 
L 603 4863 
z
" transform="scale(0.015625)"/>
     <path id="DejaVuSans-48" d="M 628 4666 
L 1259 4666 
L 1259 2753 
L 3553 2753 
L 3553 4666 
L 4184 4666 
L 4184 0 
L 3553 0 
L 3553 2222 
L 1259 2222 
L 1259 0 
L 628 0 
L 628 4666 
z
" transform="scale(0.015625)"/>
     <path id="DejaVuSans-64" d="M 2906 2969 
L 2906 4863 
L 3481 4863 
L 3481 0 
L 2906 0 
L 2906 525 
Q 2725 213 2448 61 
Q 2172 -91 1784 -91 
Q 1150 -91 751 415 
Q 353 922 353 1747 
Q 353 2572 751 3078 
Q 1150 3584 1784 3584 
Q 2172 3584 2448 3432 
Q 2725 3281 2906 2969 
z
M 947 1747 
Q 947 1113 1208 752 
Q 1469 391 1925 391 
Q 2381 391 2643 752 
Q 2906 1113 2906 1747 
Q 2906 2381 2643 2742 
Q 2381 3103 1925 3103 
Q 1469 3103 1208 2742 
Q 947 2381 947 1747 
z
" transform="scale(0.015625)"/>
     <path id="DejaVuSans-26" d="M 1556 2509 
Q 1272 2256 1139 2004 
Q 1006 1753 1006 1478 
Q 1006 1022 1337 719 
Q 1669 416 2169 416 
Q 2466 416 2725 514 
Q 2984 613 3213 813 
L 1556 2509 
z
M 1997 2859 
L 3584 1234 
Q 3769 1513 3872 1830 
Q 3975 2147 3994 2503 
L 4575 2503 
Q 4538 2091 4375 1687 
Q 4213 1284 3922 891 
L 4794 0 
L 4006 0 
L 3559 459 
Q 3234 181 2878 45 
Q 2522 -91 2113 -91 
Q 1359 -91 881 339 
Q 403 769 403 1441 
Q 403 1841 612 2192 
Q 822 2544 1241 2853 
Q 1091 3050 1012 3245 
Q 934 3441 934 3628 
Q 934 4134 1281 4442 
Q 1628 4750 2203 4750 
Q 2463 4750 2720 4694 
Q 2978 4638 3244 4525 
L 3244 3956 
Q 2972 4103 2725 4179 
Q 2478 4256 2266 4256 
Q 1938 4256 1733 4082 
Q 1528 3909 1528 3634 
Q 1528 3475 1620 3314 
Q 1713 3153 1997 2859 
z
" transform="scale(0.015625)"/>
     <path id="DejaVuSans-76" d="M 191 3500 
L 800 3500 
L 1894 563 
L 2988 3500 
L 3597 3500 
L 2284 0 
L 1503 0 
L 191 3500 
z
" transform="scale(0.015625)"/>
     <path id="DejaVuSans-74" d="M 1172 4494 
L 1172 3500 
L 2356 3500 
L 2356 3053 
L 1172 3053 
L 1172 1153 
Q 1172 725 1289 603 
Q 1406 481 1766 481 
L 2356 481 
L 2356 0 
L 1766 0 
Q 1100 0 847 248 
Q 594 497 594 1153 
L 594 3053 
L 172 3053 
L 172 3500 
L 594 3500 
L 594 4494 
L 1172 4494 
z
" transform="scale(0.015625)"/>
     <path id="DejaVuSans-6d" d="M 3328 2828 
Q 3544 3216 3844 3400 
Q 4144 3584 4550 3584 
Q 5097 3584 5394 3201 
Q 5691 2819 5691 2113 
L 5691 0 
L 5113 0 
L 5113 2094 
Q 5113 2597 4934 2840 
Q 4756 3084 4391 3084 
Q 3944 3084 3684 2787 
Q 3425 2491 3425 1978 
L 3425 0 
L 2847 0 
L 2847 2094 
Q 2847 2600 2669 2842 
Q 2491 3084 2119 3084 
Q 1678 3084 1418 2786 
Q 1159 2488 1159 1978 
L 1159 0 
L 581 0 
L 581 3500 
L 1159 3500 
L 1159 2956 
Q 1356 3278 1631 3431 
Q 1906 3584 2284 3584 
Q 2666 3584 2933 3390 
Q 3200 3197 3328 2828 
z
" transform="scale(0.015625)"/>
    </defs>
    <use xlink:href="#DejaVuSans-42"/>
    <use xlink:href="#DejaVuSans-61" x="68.603516"/>
    <use xlink:href="#DejaVuSans-6a" x="129.882812"/>
    <use xlink:href="#DejaVuSans-61" x="157.666016"/>
    <use xlink:href="#DejaVuSans-6a" x="218.945312"/>
    <use xlink:href="#DejaVuSans-20" x="246.728516"/>
    <use xlink:href="#DejaVuSans-48" x="278.515625"/>
    <use xlink:href="#DejaVuSans-6f" x="353.710938"/>
    <use xlink:href="#DejaVuSans-6c" x="414.892578"/>
    <use xlink:href="#DejaVuSans-64" x="442.675781"/>
    <use xlink:href="#DejaVuSans-69" x="506.152344"/>
    <use xlink:href="#DejaVuSans-6e" x="533.935547"/>
    <use xlink:href="#DejaVuSans-67" x="597.314453"/>
    <use xlink:href="#DejaVuSans-73" x="660.791016"/>
    <use xlink:href="#DejaVuSans-20" x="712.890625"/>
    <use xlink:href="#DejaVuSans-26" x="744.677734"/>
    <use xlink:href="#DejaVuSans-20" x="822.65625"/>
    <use xlink:href="#DejaVuSans-49" x="854.443359"/>
    <use xlink:href="#DejaVuSans-6e" x="883.935547"/>
    <use xlink:href="#DejaVuSans-76" x="947.314453"/>
    <use xlink:href="#DejaVuSans-65" x="1006.494141"/>
    <use xlink:href="#DejaVuSans-73" x="1068.017578"/>
    <use xlink:href="#DejaVuSans-74" x="1120.117188"/>
    <use xlink:href="#DejaVuSans-6d" x="1159.326172"/>
    <use xlink:href="#DejaVuSans-65" x="1256.738281"/>
    <use xlink:href="#DejaVuSans-6e" x="1318.261719"/>
    <use xlink:href="#DejaVuSans-74" x="1381.640625"/>
    <use xlink:href="#DejaVuSans-20" x="1420.849609"/>
    <use xlink:href="#DejaVuSans-4c" x="1452.636719"/>
    <use xlink:href="#DejaVuSans-69" x="1508.349609"/>
    <use xlink:href="#DejaVuSans-6d" x="1536.132812"/>
    <use xlink:href="#DejaVuSans-69" x="1633.544922"/>
    <use xlink:href="#DejaVuSans-74" x="1661.328125"/>
    <use xlink:href="#DejaVuSans-65" x="1700.537109"/>
    <use xlink:href="#DejaVuSans-64" x="1762.060547"/>
   </g>
  </g>
 </g>
 <defs>
  <clipPath id="pf07ad1dbdd">
   <rect x="45.267188" y="48.331875" width="937.608918" height="253.385938"/>
  </clipPath>
  <clipPath id="p3a5fcecf9a">
   <rect x="45.267188" y="331.135938" width="937.608918" height="253.385937"/>
  </clipPath>
 </defs>
</svg>
