<?xml version="1.0" encoding="utf-8" standalone="no"?>
<!DOCTYPE svg PUBLIC "-//W3C//DTD SVG 1.1//EN"
  "http://www.w3.org/Graphics/SVG/1.1/DTD/svg11.dtd">
<svg xmlns:xlink="http://www.w3.org/1999/xlink" width="1008pt" height="612pt" viewBox="0 0 1008 612" xmlns="http://www.w3.org/2000/svg" version="1.1">
 <metadata>
  <rdf:RDF xmlns:dc="http://purl.org/dc/elements/1.1/" xmlns:cc="http://creativecommons.org/ns#" xmlns:rdf="http://www.w3.org/1999/02/22-rdf-syntax-ns#">
   <cc:Work>
    <dc:type rdf:resource="http://purl.org/dc/dcmitype/StillImage"/>
    <dc:date>2022-11-20T19:47:34.021629</dc:date>
    <dc:format>image/svg+xml</dc:format>
    <dc:creator>
     <cc:Agent>
      <dc:title>Matplotlib v3.5.2, https://matplotlib.org/</dc:title>
     </cc:Agent>
    </dc:creator>
   </cc:Work>
  </rdf:RDF>
 </metadata>
 <defs>
  <style type="text/css">*{stroke-linejoin: round; stroke-linecap: butt}</style>
 </defs>
 <g id="figure_1">
  <g id="patch_1">
   <path d="M 0 612 
L 1008 612 
L 1008 0 
L 0 0 
z
" style="fill: #ffffff"/>
  </g>
  <g id="axes_1">
   <g id="patch_2">
    <path d="M 49.6125 301.717812 
L 982.876106 301.717812 
L 982.876106 48.331875 
L 49.6125 48.331875 
z
" style="fill: #ffffff"/>
   </g>
   <g id="matplotlib.axis_1">
    <g id="xtick_1">
     <g id="line2d_1">
      <path d="M 86.714316 301.717812 
L 86.714316 48.331875 
" clip-path="url(#p0f50aa5c38)" style="fill: none; stroke-dasharray: 2.96,1.28; stroke-dashoffset: 0; stroke: #b0b0b0; stroke-width: 0.8"/>
     </g>
     <g id="line2d_2">
      <defs>
       <path id="mf91a6c2440" d="M 0 0 
L 0 3.5 
" style="stroke: #000000; stroke-width: 0.8"/>
      </defs>
      <g>
       <use xlink:href="#mf91a6c2440" x="86.714316" y="301.717812" style="stroke: #000000; stroke-width: 0.8"/>
      </g>
     </g>
    </g>
    <g id="xtick_2">
     <g id="line2d_3">
      <path d="M 169.162797 301.717812 
L 169.162797 48.331875 
" clip-path="url(#p0f50aa5c38)" style="fill: none; stroke-dasharray: 2.96,1.28; stroke-dashoffset: 0; stroke: #b0b0b0; stroke-width: 0.8"/>
     </g>
     <g id="line2d_4">
      <g>
       <use xlink:href="#mf91a6c2440" x="169.162797" y="301.717812" style="stroke: #000000; stroke-width: 0.8"/>
      </g>
     </g>
    </g>
    <g id="xtick_3">
     <g id="line2d_5">
      <path d="M 243.632392 301.717812 
L 243.632392 48.331875 
" clip-path="url(#p0f50aa5c38)" style="fill: none; stroke-dasharray: 2.96,1.28; stroke-dashoffset: 0; stroke: #b0b0b0; stroke-width: 0.8"/>
     </g>
     <g id="line2d_6">
      <g>
       <use xlink:href="#mf91a6c2440" x="243.632392" y="301.717812" style="stroke: #000000; stroke-width: 0.8"/>
      </g>
     </g>
    </g>
    <g id="xtick_4">
     <g id="line2d_7">
      <path d="M 326.080872 301.717812 
L 326.080872 48.331875 
" clip-path="url(#p0f50aa5c38)" style="fill: none; stroke-dasharray: 2.96,1.28; stroke-dashoffset: 0; stroke: #b0b0b0; stroke-width: 0.8"/>
     </g>
     <g id="line2d_8">
      <g>
       <use xlink:href="#mf91a6c2440" x="326.080872" y="301.717812" style="stroke: #000000; stroke-width: 0.8"/>
      </g>
     </g>
    </g>
    <g id="xtick_5">
     <g id="line2d_9">
      <path d="M 405.869724 301.717812 
L 405.869724 48.331875 
" clip-path="url(#p0f50aa5c38)" style="fill: none; stroke-dasharray: 2.96,1.28; stroke-dashoffset: 0; stroke: #b0b0b0; stroke-width: 0.8"/>
     </g>
     <g id="line2d_10">
      <g>
       <use xlink:href="#mf91a6c2440" x="405.869724" y="301.717812" style="stroke: #000000; stroke-width: 0.8"/>
      </g>
     </g>
    </g>
    <g id="xtick_6">
     <g id="line2d_11">
      <path d="M 488.318205 301.717812 
L 488.318205 48.331875 
" clip-path="url(#p0f50aa5c38)" style="fill: none; stroke-dasharray: 2.96,1.28; stroke-dashoffset: 0; stroke: #b0b0b0; stroke-width: 0.8"/>
     </g>
     <g id="line2d_12">
      <g>
       <use xlink:href="#mf91a6c2440" x="488.318205" y="301.717812" style="stroke: #000000; stroke-width: 0.8"/>
      </g>
     </g>
    </g>
    <g id="xtick_7">
     <g id="line2d_13">
      <path d="M 568.107057 301.717812 
L 568.107057 48.331875 
" clip-path="url(#p0f50aa5c38)" style="fill: none; stroke-dasharray: 2.96,1.28; stroke-dashoffset: 0; stroke: #b0b0b0; stroke-width: 0.8"/>
     </g>
     <g id="line2d_14">
      <g>
       <use xlink:href="#mf91a6c2440" x="568.107057" y="301.717812" style="stroke: #000000; stroke-width: 0.8"/>
      </g>
     </g>
    </g>
    <g id="xtick_8">
     <g id="line2d_15">
      <path d="M 650.555537 301.717812 
L 650.555537 48.331875 
" clip-path="url(#p0f50aa5c38)" style="fill: none; stroke-dasharray: 2.96,1.28; stroke-dashoffset: 0; stroke: #b0b0b0; stroke-width: 0.8"/>
     </g>
     <g id="line2d_16">
      <g>
       <use xlink:href="#mf91a6c2440" x="650.555537" y="301.717812" style="stroke: #000000; stroke-width: 0.8"/>
      </g>
     </g>
    </g>
    <g id="xtick_9">
     <g id="line2d_17">
      <path d="M 733.004018 301.717812 
L 733.004018 48.331875 
" clip-path="url(#p0f50aa5c38)" style="fill: none; stroke-dasharray: 2.96,1.28; stroke-dashoffset: 0; stroke: #b0b0b0; stroke-width: 0.8"/>
     </g>
     <g id="line2d_18">
      <g>
       <use xlink:href="#mf91a6c2440" x="733.004018" y="301.717812" style="stroke: #000000; stroke-width: 0.8"/>
      </g>
     </g>
    </g>
    <g id="xtick_10">
     <g id="line2d_19">
      <path d="M 812.79287 301.717812 
L 812.79287 48.331875 
" clip-path="url(#p0f50aa5c38)" style="fill: none; stroke-dasharray: 2.96,1.28; stroke-dashoffset: 0; stroke: #b0b0b0; stroke-width: 0.8"/>
     </g>
     <g id="line2d_20">
      <g>
       <use xlink:href="#mf91a6c2440" x="812.79287" y="301.717812" style="stroke: #000000; stroke-width: 0.8"/>
      </g>
     </g>
    </g>
    <g id="xtick_11">
     <g id="line2d_21">
      <path d="M 895.24135 301.717812 
L 895.24135 48.331875 
" clip-path="url(#p0f50aa5c38)" style="fill: none; stroke-dasharray: 2.96,1.28; stroke-dashoffset: 0; stroke: #b0b0b0; stroke-width: 0.8"/>
     </g>
     <g id="line2d_22">
      <g>
       <use xlink:href="#mf91a6c2440" x="895.24135" y="301.717812" style="stroke: #000000; stroke-width: 0.8"/>
      </g>
     </g>
    </g>
    <g id="xtick_12">
     <g id="line2d_23">
      <path d="M 975.030202 301.717812 
L 975.030202 48.331875 
" clip-path="url(#p0f50aa5c38)" style="fill: none; stroke-dasharray: 2.96,1.28; stroke-dashoffset: 0; stroke: #b0b0b0; stroke-width: 0.8"/>
     </g>
     <g id="line2d_24">
      <g>
       <use xlink:href="#mf91a6c2440" x="975.030202" y="301.717812" style="stroke: #000000; stroke-width: 0.8"/>
      </g>
     </g>
    </g>
   </g>
   <g id="matplotlib.axis_2">
    <g id="ytick_1">
     <g id="line2d_25">
      <path d="M 49.6125 280.748782 
L 982.876106 280.748782 
" clip-path="url(#p0f50aa5c38)" style="fill: none; stroke-dasharray: 2.96,1.28; stroke-dashoffset: 0; stroke: #b0b0b0; stroke-width: 0.8"/>
     </g>
     <g id="line2d_26">
      <defs>
       <path id="m19264e76dd" d="M 0 0 
L -3.5 0 
" style="stroke: #000000; stroke-width: 0.8"/>
      </defs>
      <g>
       <use xlink:href="#m19264e76dd" x="49.6125" y="280.748782" style="stroke: #000000; stroke-width: 0.8"/>
      </g>
     </g>
     <g id="text_1">
      <!-- 6000 -->
      <g transform="translate(17.1625 284.548)scale(0.1 -0.1)">
       <defs>
        <path id="DejaVuSans-36" d="M 2113 2584 
Q 1688 2584 1439 2293 
Q 1191 2003 1191 1497 
Q 1191 994 1439 701 
Q 1688 409 2113 409 
Q 2538 409 2786 701 
Q 3034 994 3034 1497 
Q 3034 2003 2786 2293 
Q 2538 2584 2113 2584 
z
M 3366 4563 
L 3366 3988 
Q 3128 4100 2886 4159 
Q 2644 4219 2406 4219 
Q 1781 4219 1451 3797 
Q 1122 3375 1075 2522 
Q 1259 2794 1537 2939 
Q 1816 3084 2150 3084 
Q 2853 3084 3261 2657 
Q 3669 2231 3669 1497 
Q 3669 778 3244 343 
Q 2819 -91 2113 -91 
Q 1303 -91 875 529 
Q 447 1150 447 2328 
Q 447 3434 972 4092 
Q 1497 4750 2381 4750 
Q 2619 4750 2861 4703 
Q 3103 4656 3366 4563 
z
" transform="scale(0.015625)"/>
        <path id="DejaVuSans-30" d="M 2034 4250 
Q 1547 4250 1301 3770 
Q 1056 3291 1056 2328 
Q 1056 1369 1301 889 
Q 1547 409 2034 409 
Q 2525 409 2770 889 
Q 3016 1369 3016 2328 
Q 3016 3291 2770 3770 
Q 2525 4250 2034 4250 
z
M 2034 4750 
Q 2819 4750 3233 4129 
Q 3647 3509 3647 2328 
Q 3647 1150 3233 529 
Q 2819 -91 2034 -91 
Q 1250 -91 836 529 
Q 422 1150 422 2328 
Q 422 3509 836 4129 
Q 1250 4750 2034 4750 
z
" transform="scale(0.015625)"/>
       </defs>
       <use xlink:href="#DejaVuSans-36"/>
       <use xlink:href="#DejaVuSans-30" x="63.623047"/>
       <use xlink:href="#DejaVuSans-30" x="127.246094"/>
       <use xlink:href="#DejaVuSans-30" x="190.869141"/>
      </g>
     </g>
    </g>
    <g id="ytick_2">
     <g id="line2d_27">
      <path d="M 49.6125 233.597431 
L 982.876106 233.597431 
" clip-path="url(#p0f50aa5c38)" style="fill: none; stroke-dasharray: 2.96,1.28; stroke-dashoffset: 0; stroke: #b0b0b0; stroke-width: 0.8"/>
     </g>
     <g id="line2d_28">
      <g>
       <use xlink:href="#m19264e76dd" x="49.6125" y="233.597431" style="stroke: #000000; stroke-width: 0.8"/>
      </g>
     </g>
     <g id="text_2">
      <!-- 7000 -->
      <g transform="translate(17.1625 237.396649)scale(0.1 -0.1)">
       <defs>
        <path id="DejaVuSans-37" d="M 525 4666 
L 3525 4666 
L 3525 4397 
L 1831 0 
L 1172 0 
L 2766 4134 
L 525 4134 
L 525 4666 
z
" transform="scale(0.015625)"/>
       </defs>
       <use xlink:href="#DejaVuSans-37"/>
       <use xlink:href="#DejaVuSans-30" x="63.623047"/>
       <use xlink:href="#DejaVuSans-30" x="127.246094"/>
       <use xlink:href="#DejaVuSans-30" x="190.869141"/>
      </g>
     </g>
    </g>
    <g id="ytick_3">
     <g id="line2d_29">
      <path d="M 49.6125 186.44608 
L 982.876106 186.44608 
" clip-path="url(#p0f50aa5c38)" style="fill: none; stroke-dasharray: 2.96,1.28; stroke-dashoffset: 0; stroke: #b0b0b0; stroke-width: 0.8"/>
     </g>
     <g id="line2d_30">
      <g>
       <use xlink:href="#m19264e76dd" x="49.6125" y="186.44608" style="stroke: #000000; stroke-width: 0.8"/>
      </g>
     </g>
     <g id="text_3">
      <!-- 8000 -->
      <g transform="translate(17.1625 190.245298)scale(0.1 -0.1)">
       <defs>
        <path id="DejaVuSans-38" d="M 2034 2216 
Q 1584 2216 1326 1975 
Q 1069 1734 1069 1313 
Q 1069 891 1326 650 
Q 1584 409 2034 409 
Q 2484 409 2743 651 
Q 3003 894 3003 1313 
Q 3003 1734 2745 1975 
Q 2488 2216 2034 2216 
z
M 1403 2484 
Q 997 2584 770 2862 
Q 544 3141 544 3541 
Q 544 4100 942 4425 
Q 1341 4750 2034 4750 
Q 2731 4750 3128 4425 
Q 3525 4100 3525 3541 
Q 3525 3141 3298 2862 
Q 3072 2584 2669 2484 
Q 3125 2378 3379 2068 
Q 3634 1759 3634 1313 
Q 3634 634 3220 271 
Q 2806 -91 2034 -91 
Q 1263 -91 848 271 
Q 434 634 434 1313 
Q 434 1759 690 2068 
Q 947 2378 1403 2484 
z
M 1172 3481 
Q 1172 3119 1398 2916 
Q 1625 2713 2034 2713 
Q 2441 2713 2670 2916 
Q 2900 3119 2900 3481 
Q 2900 3844 2670 4047 
Q 2441 4250 2034 4250 
Q 1625 4250 1398 4047 
Q 1172 3844 1172 3481 
z
" transform="scale(0.015625)"/>
       </defs>
       <use xlink:href="#DejaVuSans-38"/>
       <use xlink:href="#DejaVuSans-30" x="63.623047"/>
       <use xlink:href="#DejaVuSans-30" x="127.246094"/>
       <use xlink:href="#DejaVuSans-30" x="190.869141"/>
      </g>
     </g>
    </g>
    <g id="ytick_4">
     <g id="line2d_31">
      <path d="M 49.6125 139.294729 
L 982.876106 139.294729 
" clip-path="url(#p0f50aa5c38)" style="fill: none; stroke-dasharray: 2.96,1.28; stroke-dashoffset: 0; stroke: #b0b0b0; stroke-width: 0.8"/>
     </g>
     <g id="line2d_32">
      <g>
       <use xlink:href="#m19264e76dd" x="49.6125" y="139.294729" style="stroke: #000000; stroke-width: 0.8"/>
      </g>
     </g>
     <g id="text_4">
      <!-- 9000 -->
      <g transform="translate(17.1625 143.093948)scale(0.1 -0.1)">
       <defs>
        <path id="DejaVuSans-39" d="M 703 97 
L 703 672 
Q 941 559 1184 500 
Q 1428 441 1663 441 
Q 2288 441 2617 861 
Q 2947 1281 2994 2138 
Q 2813 1869 2534 1725 
Q 2256 1581 1919 1581 
Q 1219 1581 811 2004 
Q 403 2428 403 3163 
Q 403 3881 828 4315 
Q 1253 4750 1959 4750 
Q 2769 4750 3195 4129 
Q 3622 3509 3622 2328 
Q 3622 1225 3098 567 
Q 2575 -91 1691 -91 
Q 1453 -91 1209 -44 
Q 966 3 703 97 
z
M 1959 2075 
Q 2384 2075 2632 2365 
Q 2881 2656 2881 3163 
Q 2881 3666 2632 3958 
Q 2384 4250 1959 4250 
Q 1534 4250 1286 3958 
Q 1038 3666 1038 3163 
Q 1038 2656 1286 2365 
Q 1534 2075 1959 2075 
z
" transform="scale(0.015625)"/>
       </defs>
       <use xlink:href="#DejaVuSans-39"/>
       <use xlink:href="#DejaVuSans-30" x="63.623047"/>
       <use xlink:href="#DejaVuSans-30" x="127.246094"/>
       <use xlink:href="#DejaVuSans-30" x="190.869141"/>
      </g>
     </g>
    </g>
    <g id="ytick_5">
     <g id="line2d_33">
      <path d="M 49.6125 92.143378 
L 982.876106 92.143378 
" clip-path="url(#p0f50aa5c38)" style="fill: none; stroke-dasharray: 2.96,1.28; stroke-dashoffset: 0; stroke: #b0b0b0; stroke-width: 0.8"/>
     </g>
     <g id="line2d_34">
      <g>
       <use xlink:href="#m19264e76dd" x="49.6125" y="92.143378" style="stroke: #000000; stroke-width: 0.8"/>
      </g>
     </g>
     <g id="text_5">
      <!-- 10000 -->
      <g transform="translate(10.8 95.942597)scale(0.1 -0.1)">
       <defs>
        <path id="DejaVuSans-31" d="M 794 531 
L 1825 531 
L 1825 4091 
L 703 3866 
L 703 4441 
L 1819 4666 
L 2450 4666 
L 2450 531 
L 3481 531 
L 3481 0 
L 794 0 
L 794 531 
z
" transform="scale(0.015625)"/>
       </defs>
       <use xlink:href="#DejaVuSans-31"/>
       <use xlink:href="#DejaVuSans-30" x="63.623047"/>
       <use xlink:href="#DejaVuSans-30" x="127.246094"/>
       <use xlink:href="#DejaVuSans-30" x="190.869141"/>
       <use xlink:href="#DejaVuSans-30" x="254.492188"/>
      </g>
     </g>
    </g>
   </g>
   <g id="line2d_35">
    <path d="M 92.033573 285.763328 
L 94.693201 281.797899 
L 97.35283 282.45566 
L 100.012458 286.71107 
L 102.672087 290.20027 
L 110.650972 281.081199 
L 113.3106 283.636802 
L 115.970229 275.368812 
L 118.629857 261.805726 
L 121.289485 266.03756 
L 129.268371 261.977829 
L 131.927999 263.005728 
L 134.587627 234.670124 
L 137.247256 213.301132 
L 139.906884 224.134155 
L 147.885769 231.678371 
L 150.545398 225.147909 
L 155.864655 234.816293 
L 158.524283 224.961661 
L 166.503168 204.960058 
L 169.162797 211.679125 
L 171.822425 210.846904 
L 174.482053 219.742006 
L 177.141682 213.567537 
L 185.120567 203.418208 
L 187.780195 204.571059 
L 190.439824 202.114474 
L 193.099452 205.136875 
L 195.759081 214.850054 
L 203.737966 237.777398 
L 206.397594 228.361273 
L 209.057223 233.668158 
L 211.716851 236.367573 
L 214.376479 234.281125 
L 222.355365 246.186841 
L 225.014993 254.303946 
L 227.674621 252.281153 
L 230.33425 277.254866 
L 232.993878 257.184894 
L 240.972763 260.386471 
L 246.29202 254.117699 
L 248.951649 249.650108 
L 251.611277 248.987632 
L 259.590162 254.59157 
L 262.249791 253.745203 
L 264.909419 233.92749 
L 267.569047 233.12356 
L 270.228676 227.882687 
L 278.207561 225.598204 
L 280.867189 233.717667 
L 286.186446 213.239835 
L 296.82496 214.560073 
L 299.484588 209.427648 
L 302.144217 200.968696 
L 304.803845 204.981276 
L 307.463473 165.784358 
L 315.442359 137.620856 
L 318.101987 160.378455 
L 320.761615 139.445613 
L 323.421244 146.831872 
L 326.080872 143.406327 
L 334.059757 138.837361 
L 336.719386 145.030691 
L 339.379014 144.309275 
L 342.038643 151.1863 
L 344.698271 154.137974 
L 352.677156 152.914397 
L 355.336785 167.149389 
L 357.996413 168.349391 
L 371.294555 195.124286 
L 373.954183 200.914472 
L 376.613812 195.513285 
L 379.27344 190.979682 
L 381.933069 169.565896 
L 389.911954 186.002857 
L 392.571582 193.87949 
L 395.231211 187.349028 
L 397.890839 193.825266 
L 400.550467 198.422523 
L 408.529353 201.899935 
L 416.508238 194.640985 
L 419.167866 209.644544 
L 427.146752 222.879929 
L 429.80638 242.287425 
L 432.466008 239.609228 
L 435.125637 239.043412 
L 437.785265 191.790685 
L 448.423779 177.13133 
L 451.083407 165.807933 
L 453.743036 174.116001 
L 456.402664 167.000863 
L 464.381549 160.901835 
L 467.041178 164.879052 
L 469.700806 180.731336 
L 472.360434 174.269243 
L 475.020063 170.56079 
L 482.998948 182.829571 
L 485.658576 168.4767 
L 488.318205 157.872361 
L 490.977833 156.780807 
L 493.637462 166.015399 
L 501.616347 153.616952 
L 504.275975 157.290042 
L 506.935604 157.733265 
L 509.595232 153.741903 
L 512.25486 158.01853 
L 520.233746 164.662156 
L 522.893374 168.210295 
L 525.553002 178.918367 
L 528.212631 186.828006 
L 530.872259 195.270455 
L 538.851144 221.580909 
L 541.510773 207.588745 
L 544.170401 210.384821 
L 546.83003 196.439809 
L 549.489658 196.142755 
L 557.468543 186.842151 
L 560.128172 184.715625 
L 562.7878 177.659425 
L 565.447428 178.404417 
L 568.107057 179.276717 
L 576.085942 182.60796 
L 578.74557 186.295195 
L 581.405199 187.679088 
L 584.064827 182.537233 
L 586.724456 186.769066 
L 594.703341 184.277118 
L 597.362969 188.426436 
L 600.022598 200.05396 
L 602.682226 195.897568 
L 605.341854 183.588708 
L 613.32074 181.539982 
L 615.980368 182.702262 
L 618.639996 181.080256 
L 621.299625 177.19027 
L 623.959253 168.231513 
L 631.938138 161.484155 
L 634.597767 169.410297 
L 637.257395 163.747419 
L 639.917024 160.041323 
L 642.576652 153.90929 
L 650.555537 152.468816 
L 653.215166 156.1867 
L 655.874794 146.8248 
L 658.534422 141.336382 
L 661.194051 124.743822 
L 669.172936 113.116299 
L 674.492193 117.53438 
L 677.151821 115.782708 
L 679.81145 80.918999 
L 690.449963 64.838031 
L 693.109592 59.849418 
L 695.76922 63.185376 
L 698.428848 85.601128 
L 706.407734 102.106458 
L 709.067362 110.11983 
L 711.72699 98.697416 
L 714.386619 108.335152 
L 717.046247 122.838907 
L 725.025132 145.384326 
L 727.684761 138.387065 
L 733.004018 138.337556 
L 735.663646 153.098287 
L 743.642531 145.290023 
L 746.30216 146.534819 
L 748.961788 148.102601 
L 751.621416 150.309284 
L 754.281045 147.932856 
L 762.25993 144.698274 
L 764.919558 135.088828 
L 767.579187 143.316739 
L 770.238815 144.705346 
L 772.898444 152.011448 
L 780.877329 153.609879 
L 783.536957 143.936779 
L 786.196586 147.89985 
L 788.856214 139.735594 
L 791.515842 146.032657 
L 799.494728 161.229537 
L 802.154356 170.582008 
L 804.813984 166.526992 
L 807.473613 166.237011 
L 810.133241 160.208711 
L 818.112126 171.711283 
L 820.771755 163.374924 
L 826.091012 159.289259 
L 828.75064 160.510479 
L 836.729525 158.900261 
L 839.389154 162.403606 
L 842.048782 169.440945 
L 844.70841 171.69478 
L 847.368039 164.494768 
L 855.346924 196.687353 
L 858.006552 223.947907 
L 860.666181 218.782476 
L 863.325809 215.927462 
L 865.985438 221.276783 
L 873.964323 219.013518 
L 876.623951 224.808419 
L 881.943208 232.508234 
L 884.602836 239.463059 
L 892.581722 233.793109 
L 895.24135 235.68152 
L 897.900978 236.275627 
L 900.560607 238.659128 
L 903.220235 237.932997 
L 911.19912 234.707845 
L 916.518377 233.621006 
L 919.178006 237.100776 
L 921.837634 235.365606 
L 929.816519 234.764427 
L 932.476148 233.566782 
L 935.135776 236.127101 
L 937.795404 240.990762 
L 940.455033 238.567183 
L 940.455033 238.567183 
" clip-path="url(#p0f50aa5c38)" style="fill: none; stroke: #1f77b4; stroke-width: 1.5; stroke-linecap: square"/>
   </g>
   <g id="line2d_36">
    <path d="M 102.672087 285.385645 
L 110.650972 284.44922 
L 113.3106 284.817 
L 115.970229 283.399631 
L 121.289485 273.58602 
L 129.268371 269.765346 
L 131.927999 265.639131 
L 134.587627 257.499393 
L 137.247256 247.798475 
L 139.906884 239.417793 
L 147.885769 233.357902 
L 150.545398 225.786338 
L 155.864655 225.815572 
L 158.524283 228.147678 
L 166.503168 224.312858 
L 169.162797 220.313009 
L 174.482053 214.437951 
L 177.141682 212.159126 
L 185.120567 211.850756 
L 187.780195 210.429143 
L 190.439824 208.682657 
L 193.099452 205.761631 
L 195.759081 206.018134 
L 203.737966 212.889972 
L 206.397594 217.648015 
L 211.716851 230.204891 
L 214.376479 234.091105 
L 222.355365 235.772994 
L 225.014993 240.961529 
L 227.674621 244.684128 
L 230.33425 252.861587 
L 232.993878 257.44234 
L 240.972763 260.282266 
L 246.29202 260.245017 
L 248.951649 259.718808 
L 251.611277 254.065361 
L 259.590162 253.546696 
L 262.249791 252.218442 
L 264.909419 248.1804 
L 267.569047 244.875091 
L 270.228676 240.654102 
L 278.207561 234.855429 
L 280.867189 230.849921 
L 283.526818 228.77149 
L 286.186446 224.794745 
L 296.82496 222.130222 
L 299.484588 218.896111 
L 302.144217 212.346317 
L 304.803845 208.635505 
L 307.463473 199.14441 
L 315.442359 183.756567 
L 318.101987 173.946728 
L 320.761615 161.642112 
L 323.421244 150.012231 
L 326.080872 145.536625 
L 334.059757 145.779926 
L 336.719386 142.710373 
L 342.038643 144.55399 
L 344.698271 146.70032 
L 352.677156 149.515727 
L 355.336785 153.939467 
L 357.996413 158.74749 
L 371.294555 167.535087 
L 373.954183 176.890387 
L 376.613812 185.410165 
L 379.27344 190.176223 
L 381.933069 190.419524 
L 389.911954 188.595238 
L 392.571582 187.188242 
L 395.231211 185.555391 
L 397.890839 186.124508 
L 400.550467 191.895833 
L 408.529353 195.075248 
L 413.848609 195.696232 
L 416.508238 197.154623 
L 419.167866 200.318479 
L 427.146752 205.20996 
L 429.80638 213.287458 
L 435.125637 230.692907 
L 437.785265 227.122136 
L 445.76415 218.692889 
L 448.423779 205.66167 
L 451.083407 190.901411 
L 453.743036 177.915929 
L 456.402664 172.957964 
L 464.381549 168.991593 
L 467.041178 166.541137 
L 469.700806 169.525817 
L 472.360434 169.556466 
L 475.020063 170.268451 
L 482.998948 174.653998 
L 485.658576 175.373528 
L 488.318205 170.801733 
L 490.977833 167.304046 
L 493.637462 166.394968 
L 501.616347 160.552444 
L 504.275975 158.315112 
L 506.935604 158.287293 
L 509.595232 157.679512 
L 512.25486 156.080138 
L 520.233746 158.289179 
L 522.893374 160.47323 
L 525.553002 164.71025 
L 528.212631 171.327471 
L 530.872259 178.777856 
L 538.851144 190.161606 
L 541.510773 198.037296 
L 544.170401 204.330587 
L 546.83003 206.252948 
L 549.489658 206.427408 
L 557.468543 199.479656 
L 560.128172 194.905032 
L 562.7878 188.359953 
L 565.447428 184.752875 
L 568.107057 181.379667 
L 576.085942 180.532829 
L 578.74557 180.848743 
L 581.405199 182.852675 
L 584.064827 183.679238 
L 586.724456 185.177708 
L 594.703341 185.51154 
L 597.362969 185.937788 
L 600.022598 188.412763 
L 602.682226 191.08483 
L 605.341854 190.448758 
L 613.32074 189.901331 
L 615.980368 188.756496 
L 621.299625 181.220296 
L 623.959253 178.148857 
L 631.938138 174.137691 
L 634.597767 171.479298 
L 639.917024 164.582941 
L 642.576652 161.718497 
L 650.555537 159.915429 
L 653.215166 157.27071 
L 655.874794 153.886186 
L 658.534422 150.145198 
L 661.194051 144.312104 
L 669.172936 136.441601 
L 674.492193 128.711137 
L 677.151821 122.502718 
L 679.81145 110.419241 
L 690.449963 98.438083 
L 695.76922 76.914906 
L 698.428848 70.87859 
L 706.407734 75.116082 
L 709.067362 84.172442 
L 711.72699 91.942042 
L 714.386619 100.971997 
L 717.046247 108.419553 
L 725.025132 117.075126 
L 727.684761 122.728573 
L 733.004018 130.656601 
L 735.663646 139.609228 
L 743.642531 144.099451 
L 746.30216 144.32955 
L 748.961788 146.272657 
L 751.621416 148.667003 
L 754.281045 147.633917 
L 762.25993 147.515567 
L 764.919558 145.226369 
L 767.579187 144.269196 
L 770.238815 143.148409 
L 772.898444 143.964127 
L 780.877329 145.746448 
L 783.536957 147.516038 
L 786.196586 148.432661 
L 788.856214 147.43871 
L 791.515842 146.242952 
L 799.494728 147.766884 
L 802.154356 153.095929 
L 804.813984 156.821357 
L 807.473613 162.121641 
L 810.133241 164.956852 
L 818.112126 167.053201 
L 820.771755 165.611784 
L 826.091012 164.164237 
L 828.75064 163.018931 
L 836.729525 162.757241 
L 839.389154 160.895706 
L 842.048782 162.10891 
L 844.70841 164.590014 
L 847.368039 165.386872 
L 855.346924 172.94429 
L 858.006552 185.253151 
L 860.666181 195.121457 
L 863.325809 203.967993 
L 865.985438 215.324396 
L 873.964323 219.789629 
L 876.623951 219.961731 
L 881.943208 222.706883 
L 884.602836 227.414002 
L 892.581722 229.917268 
L 895.24135 233.250868 
L 897.900978 235.54431 
L 900.560607 236.774489 
L 903.220235 236.468476 
L 911.19912 236.651424 
L 916.518377 236.239321 
L 919.178006 236.404351 
L 921.837634 235.745646 
L 932.476148 234.88372 
L 935.135776 235.384938 
L 937.795404 236.162936 
L 940.455033 236.803251 
L 940.455033 236.803251 
" clip-path="url(#p0f50aa5c38)" style="fill: none; stroke: #ff7f0e; stroke-width: 1.5; stroke-linecap: square"/>
   </g>
   <g id="patch_3">
    <path d="M 49.6125 301.717812 
L 49.6125 48.331875 
" style="fill: none; stroke: #000000; stroke-width: 0.8; stroke-linejoin: miter; stroke-linecap: square"/>
   </g>
   <g id="patch_4">
    <path d="M 982.876106 301.717812 
L 982.876106 48.331875 
" style="fill: none; stroke: #000000; stroke-width: 0.8; stroke-linejoin: miter; stroke-linecap: square"/>
   </g>
   <g id="patch_5">
    <path d="M 49.6125 301.717812 
L 982.876106 301.717812 
" style="fill: none; stroke: #000000; stroke-width: 0.8; stroke-linejoin: miter; stroke-linecap: square"/>
   </g>
   <g id="patch_6">
    <path d="M 49.6125 48.331875 
L 982.876106 48.331875 
" style="fill: none; stroke: #000000; stroke-width: 0.8; stroke-linejoin: miter; stroke-linecap: square"/>
   </g>
   <g id="text_6">
    <!-- Closing Price -->
    <g transform="translate(477.768365 42.331875)scale(0.12 -0.12)">
     <defs>
      <path id="DejaVuSans-43" d="M 4122 4306 
L 4122 3641 
Q 3803 3938 3442 4084 
Q 3081 4231 2675 4231 
Q 1875 4231 1450 3742 
Q 1025 3253 1025 2328 
Q 1025 1406 1450 917 
Q 1875 428 2675 428 
Q 3081 428 3442 575 
Q 3803 722 4122 1019 
L 4122 359 
Q 3791 134 3420 21 
Q 3050 -91 2638 -91 
Q 1578 -91 968 557 
Q 359 1206 359 2328 
Q 359 3453 968 4101 
Q 1578 4750 2638 4750 
Q 3056 4750 3426 4639 
Q 3797 4528 4122 4306 
z
" transform="scale(0.015625)"/>
      <path id="DejaVuSans-6c" d="M 603 4863 
L 1178 4863 
L 1178 0 
L 603 0 
L 603 4863 
z
" transform="scale(0.015625)"/>
      <path id="DejaVuSans-6f" d="M 1959 3097 
Q 1497 3097 1228 2736 
Q 959 2375 959 1747 
Q 959 1119 1226 758 
Q 1494 397 1959 397 
Q 2419 397 2687 759 
Q 2956 1122 2956 1747 
Q 2956 2369 2687 2733 
Q 2419 3097 1959 3097 
z
M 1959 3584 
Q 2709 3584 3137 3096 
Q 3566 2609 3566 1747 
Q 3566 888 3137 398 
Q 2709 -91 1959 -91 
Q 1206 -91 779 398 
Q 353 888 353 1747 
Q 353 2609 779 3096 
Q 1206 3584 1959 3584 
z
" transform="scale(0.015625)"/>
      <path id="DejaVuSans-73" d="M 2834 3397 
L 2834 2853 
Q 2591 2978 2328 3040 
Q 2066 3103 1784 3103 
Q 1356 3103 1142 2972 
Q 928 2841 928 2578 
Q 928 2378 1081 2264 
Q 1234 2150 1697 2047 
L 1894 2003 
Q 2506 1872 2764 1633 
Q 3022 1394 3022 966 
Q 3022 478 2636 193 
Q 2250 -91 1575 -91 
Q 1294 -91 989 -36 
Q 684 19 347 128 
L 347 722 
Q 666 556 975 473 
Q 1284 391 1588 391 
Q 1994 391 2212 530 
Q 2431 669 2431 922 
Q 2431 1156 2273 1281 
Q 2116 1406 1581 1522 
L 1381 1569 
Q 847 1681 609 1914 
Q 372 2147 372 2553 
Q 372 3047 722 3315 
Q 1072 3584 1716 3584 
Q 2034 3584 2315 3537 
Q 2597 3491 2834 3397 
z
" transform="scale(0.015625)"/>
      <path id="DejaVuSans-69" d="M 603 3500 
L 1178 3500 
L 1178 0 
L 603 0 
L 603 3500 
z
M 603 4863 
L 1178 4863 
L 1178 4134 
L 603 4134 
L 603 4863 
z
" transform="scale(0.015625)"/>
      <path id="DejaVuSans-6e" d="M 3513 2113 
L 3513 0 
L 2938 0 
L 2938 2094 
Q 2938 2591 2744 2837 
Q 2550 3084 2163 3084 
Q 1697 3084 1428 2787 
Q 1159 2491 1159 1978 
L 1159 0 
L 581 0 
L 581 3500 
L 1159 3500 
L 1159 2956 
Q 1366 3272 1645 3428 
Q 1925 3584 2291 3584 
Q 2894 3584 3203 3211 
Q 3513 2838 3513 2113 
z
" transform="scale(0.015625)"/>
      <path id="DejaVuSans-67" d="M 2906 1791 
Q 2906 2416 2648 2759 
Q 2391 3103 1925 3103 
Q 1463 3103 1205 2759 
Q 947 2416 947 1791 
Q 947 1169 1205 825 
Q 1463 481 1925 481 
Q 2391 481 2648 825 
Q 2906 1169 2906 1791 
z
M 3481 434 
Q 3481 -459 3084 -895 
Q 2688 -1331 1869 -1331 
Q 1566 -1331 1297 -1286 
Q 1028 -1241 775 -1147 
L 775 -588 
Q 1028 -725 1275 -790 
Q 1522 -856 1778 -856 
Q 2344 -856 2625 -561 
Q 2906 -266 2906 331 
L 2906 616 
Q 2728 306 2450 153 
Q 2172 0 1784 0 
Q 1141 0 747 490 
Q 353 981 353 1791 
Q 353 2603 747 3093 
Q 1141 3584 1784 3584 
Q 2172 3584 2450 3431 
Q 2728 3278 2906 2969 
L 2906 3500 
L 3481 3500 
L 3481 434 
z
" transform="scale(0.015625)"/>
      <path id="DejaVuSans-20" transform="scale(0.015625)"/>
      <path id="DejaVuSans-50" d="M 1259 4147 
L 1259 2394 
L 2053 2394 
Q 2494 2394 2734 2622 
Q 2975 2850 2975 3272 
Q 2975 3691 2734 3919 
Q 2494 4147 2053 4147 
L 1259 4147 
z
M 628 4666 
L 2053 4666 
Q 2838 4666 3239 4311 
Q 3641 3956 3641 3272 
Q 3641 2581 3239 2228 
Q 2838 1875 2053 1875 
L 1259 1875 
L 1259 0 
L 628 0 
L 628 4666 
z
" transform="scale(0.015625)"/>
      <path id="DejaVuSans-72" d="M 2631 2963 
Q 2534 3019 2420 3045 
Q 2306 3072 2169 3072 
Q 1681 3072 1420 2755 
Q 1159 2438 1159 1844 
L 1159 0 
L 581 0 
L 581 3500 
L 1159 3500 
L 1159 2956 
Q 1341 3275 1631 3429 
Q 1922 3584 2338 3584 
Q 2397 3584 2469 3576 
Q 2541 3569 2628 3553 
L 2631 2963 
z
" transform="scale(0.015625)"/>
      <path id="DejaVuSans-63" d="M 3122 3366 
L 3122 2828 
Q 2878 2963 2633 3030 
Q 2388 3097 2138 3097 
Q 1578 3097 1268 2742 
Q 959 2388 959 1747 
Q 959 1106 1268 751 
Q 1578 397 2138 397 
Q 2388 397 2633 464 
Q 2878 531 3122 666 
L 3122 134 
Q 2881 22 2623 -34 
Q 2366 -91 2075 -91 
Q 1284 -91 818 406 
Q 353 903 353 1747 
Q 353 2603 823 3093 
Q 1294 3584 2113 3584 
Q 2378 3584 2631 3529 
Q 2884 3475 3122 3366 
z
" transform="scale(0.015625)"/>
      <path id="DejaVuSans-65" d="M 3597 1894 
L 3597 1613 
L 953 1613 
Q 991 1019 1311 708 
Q 1631 397 2203 397 
Q 2534 397 2845 478 
Q 3156 559 3463 722 
L 3463 178 
Q 3153 47 2828 -22 
Q 2503 -91 2169 -91 
Q 1331 -91 842 396 
Q 353 884 353 1716 
Q 353 2575 817 3079 
Q 1281 3584 2069 3584 
Q 2775 3584 3186 3129 
Q 3597 2675 3597 1894 
z
M 3022 2063 
Q 3016 2534 2758 2815 
Q 2500 3097 2075 3097 
Q 1594 3097 1305 2825 
Q 1016 2553 972 2059 
L 3022 2063 
z
" transform="scale(0.015625)"/>
     </defs>
     <use xlink:href="#DejaVuSans-43"/>
     <use xlink:href="#DejaVuSans-6c" x="69.824219"/>
     <use xlink:href="#DejaVuSans-6f" x="97.607422"/>
     <use xlink:href="#DejaVuSans-73" x="158.789062"/>
     <use xlink:href="#DejaVuSans-69" x="210.888672"/>
     <use xlink:href="#DejaVuSans-6e" x="238.671875"/>
     <use xlink:href="#DejaVuSans-67" x="302.050781"/>
     <use xlink:href="#DejaVuSans-20" x="365.527344"/>
     <use xlink:href="#DejaVuSans-50" x="397.314453"/>
     <use xlink:href="#DejaVuSans-72" x="455.867188"/>
     <use xlink:href="#DejaVuSans-69" x="496.980469"/>
     <use xlink:href="#DejaVuSans-63" x="524.763672"/>
     <use xlink:href="#DejaVuSans-65" x="579.744141"/>
    </g>
   </g>
   <g id="legend_1">
    <g id="patch_7">
     <path d="M 911.144856 85.688125 
L 975.876106 85.688125 
Q 977.876106 85.688125 977.876106 83.688125 
L 977.876106 55.331875 
Q 977.876106 53.331875 975.876106 53.331875 
L 911.144856 53.331875 
Q 909.144856 53.331875 909.144856 55.331875 
L 909.144856 83.688125 
Q 909.144856 85.688125 911.144856 85.688125 
z
" style="fill: #ffffff; opacity: 0.8; stroke: #cccccc; stroke-linejoin: miter"/>
    </g>
    <g id="line2d_37">
     <path d="M 913.144856 61.430312 
L 923.144856 61.430312 
L 933.144856 61.430312 
" style="fill: none; stroke: #1f77b4; stroke-width: 1.5; stroke-linecap: square"/>
    </g>
    <g id="text_7">
     <!-- CLOSE -->
     <g transform="translate(941.144856 64.930312)scale(0.1 -0.1)">
      <defs>
       <path id="DejaVuSans-4c" d="M 628 4666 
L 1259 4666 
L 1259 531 
L 3531 531 
L 3531 0 
L 628 0 
L 628 4666 
z
" transform="scale(0.015625)"/>
       <path id="DejaVuSans-4f" d="M 2522 4238 
Q 1834 4238 1429 3725 
Q 1025 3213 1025 2328 
Q 1025 1447 1429 934 
Q 1834 422 2522 422 
Q 3209 422 3611 934 
Q 4013 1447 4013 2328 
Q 4013 3213 3611 3725 
Q 3209 4238 2522 4238 
z
M 2522 4750 
Q 3503 4750 4090 4092 
Q 4678 3434 4678 2328 
Q 4678 1225 4090 567 
Q 3503 -91 2522 -91 
Q 1538 -91 948 565 
Q 359 1222 359 2328 
Q 359 3434 948 4092 
Q 1538 4750 2522 4750 
z
" transform="scale(0.015625)"/>
       <path id="DejaVuSans-53" d="M 3425 4513 
L 3425 3897 
Q 3066 4069 2747 4153 
Q 2428 4238 2131 4238 
Q 1616 4238 1336 4038 
Q 1056 3838 1056 3469 
Q 1056 3159 1242 3001 
Q 1428 2844 1947 2747 
L 2328 2669 
Q 3034 2534 3370 2195 
Q 3706 1856 3706 1288 
Q 3706 609 3251 259 
Q 2797 -91 1919 -91 
Q 1588 -91 1214 -16 
Q 841 59 441 206 
L 441 856 
Q 825 641 1194 531 
Q 1563 422 1919 422 
Q 2459 422 2753 634 
Q 3047 847 3047 1241 
Q 3047 1584 2836 1778 
Q 2625 1972 2144 2069 
L 1759 2144 
Q 1053 2284 737 2584 
Q 422 2884 422 3419 
Q 422 4038 858 4394 
Q 1294 4750 2059 4750 
Q 2388 4750 2728 4690 
Q 3069 4631 3425 4513 
z
" transform="scale(0.015625)"/>
       <path id="DejaVuSans-45" d="M 628 4666 
L 3578 4666 
L 3578 4134 
L 1259 4134 
L 1259 2753 
L 3481 2753 
L 3481 2222 
L 1259 2222 
L 1259 531 
L 3634 531 
L 3634 0 
L 628 0 
L 628 4666 
z
" transform="scale(0.015625)"/>
      </defs>
      <use xlink:href="#DejaVuSans-43"/>
      <use xlink:href="#DejaVuSans-4c" x="69.824219"/>
      <use xlink:href="#DejaVuSans-4f" x="121.912109"/>
      <use xlink:href="#DejaVuSans-53" x="200.623047"/>
      <use xlink:href="#DejaVuSans-45" x="264.099609"/>
     </g>
    </g>
    <g id="line2d_38">
     <path d="M 913.144856 76.108437 
L 923.144856 76.108437 
L 933.144856 76.108437 
" style="fill: none; stroke: #ff7f0e; stroke-width: 1.5; stroke-linecap: square"/>
    </g>
    <g id="text_8">
     <!-- SMA5 -->
     <g transform="translate(941.144856 79.608437)scale(0.1 -0.1)">
      <defs>
       <path id="DejaVuSans-4d" d="M 628 4666 
L 1569 4666 
L 2759 1491 
L 3956 4666 
L 4897 4666 
L 4897 0 
L 4281 0 
L 4281 4097 
L 3078 897 
L 2444 897 
L 1241 4097 
L 1241 0 
L 628 0 
L 628 4666 
z
" transform="scale(0.015625)"/>
       <path id="DejaVuSans-41" d="M 2188 4044 
L 1331 1722 
L 3047 1722 
L 2188 4044 
z
M 1831 4666 
L 2547 4666 
L 4325 0 
L 3669 0 
L 3244 1197 
L 1141 1197 
L 716 0 
L 50 0 
L 1831 4666 
z
" transform="scale(0.015625)"/>
       <path id="DejaVuSans-35" d="M 691 4666 
L 3169 4666 
L 3169 4134 
L 1269 4134 
L 1269 2991 
Q 1406 3038 1543 3061 
Q 1681 3084 1819 3084 
Q 2600 3084 3056 2656 
Q 3513 2228 3513 1497 
Q 3513 744 3044 326 
Q 2575 -91 1722 -91 
Q 1428 -91 1123 -41 
Q 819 9 494 109 
L 494 744 
Q 775 591 1075 516 
Q 1375 441 1709 441 
Q 2250 441 2565 725 
Q 2881 1009 2881 1497 
Q 2881 1984 2565 2268 
Q 2250 2553 1709 2553 
Q 1456 2553 1204 2497 
Q 953 2441 691 2322 
L 691 4666 
z
" transform="scale(0.015625)"/>
      </defs>
      <use xlink:href="#DejaVuSans-53"/>
      <use xlink:href="#DejaVuSans-4d" x="63.476562"/>
      <use xlink:href="#DejaVuSans-41" x="149.755859"/>
      <use xlink:href="#DejaVuSans-35" x="218.164062"/>
     </g>
    </g>
   </g>
  </g>
  <g id="axes_2">
   <g id="patch_8">
    <path d="M 49.6125 584.521875 
L 982.876106 584.521875 
L 982.876106 331.135938 
L 49.6125 331.135938 
z
" style="fill: #ffffff"/>
   </g>
   <g id="matplotlib.axis_3">
    <g id="xtick_13">
     <g id="line2d_39">
      <path d="M 86.714316 584.521875 
L 86.714316 331.135938 
" clip-path="url(#p337e71c42d)" style="fill: none; stroke-dasharray: 2.96,1.28; stroke-dashoffset: 0; stroke: #b0b0b0; stroke-width: 0.8"/>
     </g>
     <g id="line2d_40">
      <g>
       <use xlink:href="#mf91a6c2440" x="86.714316" y="584.521875" style="stroke: #000000; stroke-width: 0.8"/>
      </g>
     </g>
     <g id="text_9">
      <!-- 2022-01 -->
      <g transform="translate(65.82291 599.120312)scale(0.1 -0.1)">
       <defs>
        <path id="DejaVuSans-32" d="M 1228 531 
L 3431 531 
L 3431 0 
L 469 0 
L 469 531 
Q 828 903 1448 1529 
Q 2069 2156 2228 2338 
Q 2531 2678 2651 2914 
Q 2772 3150 2772 3378 
Q 2772 3750 2511 3984 
Q 2250 4219 1831 4219 
Q 1534 4219 1204 4116 
Q 875 4013 500 3803 
L 500 4441 
Q 881 4594 1212 4672 
Q 1544 4750 1819 4750 
Q 2544 4750 2975 4387 
Q 3406 4025 3406 3419 
Q 3406 3131 3298 2873 
Q 3191 2616 2906 2266 
Q 2828 2175 2409 1742 
Q 1991 1309 1228 531 
z
" transform="scale(0.015625)"/>
        <path id="DejaVuSans-2d" d="M 313 2009 
L 1997 2009 
L 1997 1497 
L 313 1497 
L 313 2009 
z
" transform="scale(0.015625)"/>
       </defs>
       <use xlink:href="#DejaVuSans-32"/>
       <use xlink:href="#DejaVuSans-30" x="63.623047"/>
       <use xlink:href="#DejaVuSans-32" x="127.246094"/>
       <use xlink:href="#DejaVuSans-32" x="190.869141"/>
       <use xlink:href="#DejaVuSans-2d" x="254.492188"/>
       <use xlink:href="#DejaVuSans-30" x="290.576172"/>
       <use xlink:href="#DejaVuSans-31" x="354.199219"/>
      </g>
     </g>
    </g>
    <g id="xtick_14">
     <g id="line2d_41">
      <path d="M 169.162797 584.521875 
L 169.162797 331.135938 
" clip-path="url(#p337e71c42d)" style="fill: none; stroke-dasharray: 2.96,1.28; stroke-dashoffset: 0; stroke: #b0b0b0; stroke-width: 0.8"/>
     </g>
     <g id="line2d_42">
      <g>
       <use xlink:href="#mf91a6c2440" x="169.162797" y="584.521875" style="stroke: #000000; stroke-width: 0.8"/>
      </g>
     </g>
     <g id="text_10">
      <!-- 2022-02 -->
      <g transform="translate(148.27139 599.120312)scale(0.1 -0.1)">
       <use xlink:href="#DejaVuSans-32"/>
       <use xlink:href="#DejaVuSans-30" x="63.623047"/>
       <use xlink:href="#DejaVuSans-32" x="127.246094"/>
       <use xlink:href="#DejaVuSans-32" x="190.869141"/>
       <use xlink:href="#DejaVuSans-2d" x="254.492188"/>
       <use xlink:href="#DejaVuSans-30" x="290.576172"/>
       <use xlink:href="#DejaVuSans-32" x="354.199219"/>
      </g>
     </g>
    </g>
    <g id="xtick_15">
     <g id="line2d_43">
      <path d="M 243.632392 584.521875 
L 243.632392 331.135938 
" clip-path="url(#p337e71c42d)" style="fill: none; stroke-dasharray: 2.96,1.28; stroke-dashoffset: 0; stroke: #b0b0b0; stroke-width: 0.8"/>
     </g>
     <g id="line2d_44">
      <g>
       <use xlink:href="#mf91a6c2440" x="243.632392" y="584.521875" style="stroke: #000000; stroke-width: 0.8"/>
      </g>
     </g>
     <g id="text_11">
      <!-- 2022-03 -->
      <g transform="translate(222.740986 599.120312)scale(0.1 -0.1)">
       <defs>
        <path id="DejaVuSans-33" d="M 2597 2516 
Q 3050 2419 3304 2112 
Q 3559 1806 3559 1356 
Q 3559 666 3084 287 
Q 2609 -91 1734 -91 
Q 1441 -91 1130 -33 
Q 819 25 488 141 
L 488 750 
Q 750 597 1062 519 
Q 1375 441 1716 441 
Q 2309 441 2620 675 
Q 2931 909 2931 1356 
Q 2931 1769 2642 2001 
Q 2353 2234 1838 2234 
L 1294 2234 
L 1294 2753 
L 1863 2753 
Q 2328 2753 2575 2939 
Q 2822 3125 2822 3475 
Q 2822 3834 2567 4026 
Q 2313 4219 1838 4219 
Q 1578 4219 1281 4162 
Q 984 4106 628 3988 
L 628 4550 
Q 988 4650 1302 4700 
Q 1616 4750 1894 4750 
Q 2613 4750 3031 4423 
Q 3450 4097 3450 3541 
Q 3450 3153 3228 2886 
Q 3006 2619 2597 2516 
z
" transform="scale(0.015625)"/>
       </defs>
       <use xlink:href="#DejaVuSans-32"/>
       <use xlink:href="#DejaVuSans-30" x="63.623047"/>
       <use xlink:href="#DejaVuSans-32" x="127.246094"/>
       <use xlink:href="#DejaVuSans-32" x="190.869141"/>
       <use xlink:href="#DejaVuSans-2d" x="254.492188"/>
       <use xlink:href="#DejaVuSans-30" x="290.576172"/>
       <use xlink:href="#DejaVuSans-33" x="354.199219"/>
      </g>
     </g>
    </g>
    <g id="xtick_16">
     <g id="line2d_45">
      <path d="M 326.080872 584.521875 
L 326.080872 331.135938 
" clip-path="url(#p337e71c42d)" style="fill: none; stroke-dasharray: 2.96,1.28; stroke-dashoffset: 0; stroke: #b0b0b0; stroke-width: 0.8"/>
     </g>
     <g id="line2d_46">
      <g>
       <use xlink:href="#mf91a6c2440" x="326.080872" y="584.521875" style="stroke: #000000; stroke-width: 0.8"/>
      </g>
     </g>
     <g id="text_12">
      <!-- 2022-04 -->
      <g transform="translate(305.189466 599.120312)scale(0.1 -0.1)">
       <defs>
        <path id="DejaVuSans-34" d="M 2419 4116 
L 825 1625 
L 2419 1625 
L 2419 4116 
z
M 2253 4666 
L 3047 4666 
L 3047 1625 
L 3713 1625 
L 3713 1100 
L 3047 1100 
L 3047 0 
L 2419 0 
L 2419 1100 
L 313 1100 
L 313 1709 
L 2253 4666 
z
" transform="scale(0.015625)"/>
       </defs>
       <use xlink:href="#DejaVuSans-32"/>
       <use xlink:href="#DejaVuSans-30" x="63.623047"/>
       <use xlink:href="#DejaVuSans-32" x="127.246094"/>
       <use xlink:href="#DejaVuSans-32" x="190.869141"/>
       <use xlink:href="#DejaVuSans-2d" x="254.492188"/>
       <use xlink:href="#DejaVuSans-30" x="290.576172"/>
       <use xlink:href="#DejaVuSans-34" x="354.199219"/>
      </g>
     </g>
    </g>
    <g id="xtick_17">
     <g id="line2d_47">
      <path d="M 405.869724 584.521875 
L 405.869724 331.135938 
" clip-path="url(#p337e71c42d)" style="fill: none; stroke-dasharray: 2.96,1.28; stroke-dashoffset: 0; stroke: #b0b0b0; stroke-width: 0.8"/>
     </g>
     <g id="line2d_48">
      <g>
       <use xlink:href="#mf91a6c2440" x="405.869724" y="584.521875" style="stroke: #000000; stroke-width: 0.8"/>
      </g>
     </g>
     <g id="text_13">
      <!-- 2022-05 -->
      <g transform="translate(384.978318 599.120312)scale(0.1 -0.1)">
       <use xlink:href="#DejaVuSans-32"/>
       <use xlink:href="#DejaVuSans-30" x="63.623047"/>
       <use xlink:href="#DejaVuSans-32" x="127.246094"/>
       <use xlink:href="#DejaVuSans-32" x="190.869141"/>
       <use xlink:href="#DejaVuSans-2d" x="254.492188"/>
       <use xlink:href="#DejaVuSans-30" x="290.576172"/>
       <use xlink:href="#DejaVuSans-35" x="354.199219"/>
      </g>
     </g>
    </g>
    <g id="xtick_18">
     <g id="line2d_49">
      <path d="M 488.318205 584.521875 
L 488.318205 331.135938 
" clip-path="url(#p337e71c42d)" style="fill: none; stroke-dasharray: 2.96,1.28; stroke-dashoffset: 0; stroke: #b0b0b0; stroke-width: 0.8"/>
     </g>
     <g id="line2d_50">
      <g>
       <use xlink:href="#mf91a6c2440" x="488.318205" y="584.521875" style="stroke: #000000; stroke-width: 0.8"/>
      </g>
     </g>
     <g id="text_14">
      <!-- 2022-06 -->
      <g transform="translate(467.426798 599.120312)scale(0.1 -0.1)">
       <use xlink:href="#DejaVuSans-32"/>
       <use xlink:href="#DejaVuSans-30" x="63.623047"/>
       <use xlink:href="#DejaVuSans-32" x="127.246094"/>
       <use xlink:href="#DejaVuSans-32" x="190.869141"/>
       <use xlink:href="#DejaVuSans-2d" x="254.492188"/>
       <use xlink:href="#DejaVuSans-30" x="290.576172"/>
       <use xlink:href="#DejaVuSans-36" x="354.199219"/>
      </g>
     </g>
    </g>
    <g id="xtick_19">
     <g id="line2d_51">
      <path d="M 568.107057 584.521875 
L 568.107057 331.135938 
" clip-path="url(#p337e71c42d)" style="fill: none; stroke-dasharray: 2.96,1.28; stroke-dashoffset: 0; stroke: #b0b0b0; stroke-width: 0.8"/>
     </g>
     <g id="line2d_52">
      <g>
       <use xlink:href="#mf91a6c2440" x="568.107057" y="584.521875" style="stroke: #000000; stroke-width: 0.8"/>
      </g>
     </g>
     <g id="text_15">
      <!-- 2022-07 -->
      <g transform="translate(547.21565 599.120312)scale(0.1 -0.1)">
       <use xlink:href="#DejaVuSans-32"/>
       <use xlink:href="#DejaVuSans-30" x="63.623047"/>
       <use xlink:href="#DejaVuSans-32" x="127.246094"/>
       <use xlink:href="#DejaVuSans-32" x="190.869141"/>
       <use xlink:href="#DejaVuSans-2d" x="254.492188"/>
       <use xlink:href="#DejaVuSans-30" x="290.576172"/>
       <use xlink:href="#DejaVuSans-37" x="354.199219"/>
      </g>
     </g>
    </g>
    <g id="xtick_20">
     <g id="line2d_53">
      <path d="M 650.555537 584.521875 
L 650.555537 331.135938 
" clip-path="url(#p337e71c42d)" style="fill: none; stroke-dasharray: 2.96,1.28; stroke-dashoffset: 0; stroke: #b0b0b0; stroke-width: 0.8"/>
     </g>
     <g id="line2d_54">
      <g>
       <use xlink:href="#mf91a6c2440" x="650.555537" y="584.521875" style="stroke: #000000; stroke-width: 0.8"/>
      </g>
     </g>
     <g id="text_16">
      <!-- 2022-08 -->
      <g transform="translate(629.664131 599.120312)scale(0.1 -0.1)">
       <use xlink:href="#DejaVuSans-32"/>
       <use xlink:href="#DejaVuSans-30" x="63.623047"/>
       <use xlink:href="#DejaVuSans-32" x="127.246094"/>
       <use xlink:href="#DejaVuSans-32" x="190.869141"/>
       <use xlink:href="#DejaVuSans-2d" x="254.492188"/>
       <use xlink:href="#DejaVuSans-30" x="290.576172"/>
       <use xlink:href="#DejaVuSans-38" x="354.199219"/>
      </g>
     </g>
    </g>
    <g id="xtick_21">
     <g id="line2d_55">
      <path d="M 733.004018 584.521875 
L 733.004018 331.135938 
" clip-path="url(#p337e71c42d)" style="fill: none; stroke-dasharray: 2.96,1.28; stroke-dashoffset: 0; stroke: #b0b0b0; stroke-width: 0.8"/>
     </g>
     <g id="line2d_56">
      <g>
       <use xlink:href="#mf91a6c2440" x="733.004018" y="584.521875" style="stroke: #000000; stroke-width: 0.8"/>
      </g>
     </g>
     <g id="text_17">
      <!-- 2022-09 -->
      <g transform="translate(712.112611 599.120312)scale(0.1 -0.1)">
       <use xlink:href="#DejaVuSans-32"/>
       <use xlink:href="#DejaVuSans-30" x="63.623047"/>
       <use xlink:href="#DejaVuSans-32" x="127.246094"/>
       <use xlink:href="#DejaVuSans-32" x="190.869141"/>
       <use xlink:href="#DejaVuSans-2d" x="254.492188"/>
       <use xlink:href="#DejaVuSans-30" x="290.576172"/>
       <use xlink:href="#DejaVuSans-39" x="354.199219"/>
      </g>
     </g>
    </g>
    <g id="xtick_22">
     <g id="line2d_57">
      <path d="M 812.79287 584.521875 
L 812.79287 331.135938 
" clip-path="url(#p337e71c42d)" style="fill: none; stroke-dasharray: 2.96,1.28; stroke-dashoffset: 0; stroke: #b0b0b0; stroke-width: 0.8"/>
     </g>
     <g id="line2d_58">
      <g>
       <use xlink:href="#mf91a6c2440" x="812.79287" y="584.521875" style="stroke: #000000; stroke-width: 0.8"/>
      </g>
     </g>
     <g id="text_18">
      <!-- 2022-10 -->
      <g transform="translate(791.901463 599.120312)scale(0.1 -0.1)">
       <use xlink:href="#DejaVuSans-32"/>
       <use xlink:href="#DejaVuSans-30" x="63.623047"/>
       <use xlink:href="#DejaVuSans-32" x="127.246094"/>
       <use xlink:href="#DejaVuSans-32" x="190.869141"/>
       <use xlink:href="#DejaVuSans-2d" x="254.492188"/>
       <use xlink:href="#DejaVuSans-31" x="290.576172"/>
       <use xlink:href="#DejaVuSans-30" x="354.199219"/>
      </g>
     </g>
    </g>
    <g id="xtick_23">
     <g id="line2d_59">
      <path d="M 895.24135 584.521875 
L 895.24135 331.135938 
" clip-path="url(#p337e71c42d)" style="fill: none; stroke-dasharray: 2.96,1.28; stroke-dashoffset: 0; stroke: #b0b0b0; stroke-width: 0.8"/>
     </g>
     <g id="line2d_60">
      <g>
       <use xlink:href="#mf91a6c2440" x="895.24135" y="584.521875" style="stroke: #000000; stroke-width: 0.8"/>
      </g>
     </g>
     <g id="text_19">
      <!-- 2022-11 -->
      <g transform="translate(874.349944 599.120312)scale(0.1 -0.1)">
       <use xlink:href="#DejaVuSans-32"/>
       <use xlink:href="#DejaVuSans-30" x="63.623047"/>
       <use xlink:href="#DejaVuSans-32" x="127.246094"/>
       <use xlink:href="#DejaVuSans-32" x="190.869141"/>
       <use xlink:href="#DejaVuSans-2d" x="254.492188"/>
       <use xlink:href="#DejaVuSans-31" x="290.576172"/>
       <use xlink:href="#DejaVuSans-31" x="354.199219"/>
      </g>
     </g>
    </g>
    <g id="xtick_24">
     <g id="line2d_61">
      <path d="M 975.030202 584.521875 
L 975.030202 331.135938 
" clip-path="url(#p337e71c42d)" style="fill: none; stroke-dasharray: 2.96,1.28; stroke-dashoffset: 0; stroke: #b0b0b0; stroke-width: 0.8"/>
     </g>
     <g id="line2d_62">
      <g>
       <use xlink:href="#mf91a6c2440" x="975.030202" y="584.521875" style="stroke: #000000; stroke-width: 0.8"/>
      </g>
     </g>
     <g id="text_20">
      <!-- 2022-12 -->
      <g transform="translate(954.138796 599.120312)scale(0.1 -0.1)">
       <use xlink:href="#DejaVuSans-32"/>
       <use xlink:href="#DejaVuSans-30" x="63.623047"/>
       <use xlink:href="#DejaVuSans-32" x="127.246094"/>
       <use xlink:href="#DejaVuSans-32" x="190.869141"/>
       <use xlink:href="#DejaVuSans-2d" x="254.492188"/>
       <use xlink:href="#DejaVuSans-31" x="290.576172"/>
       <use xlink:href="#DejaVuSans-32" x="354.199219"/>
      </g>
     </g>
    </g>
   </g>
   <g id="matplotlib.axis_4">
    <g id="ytick_6">
     <g id="line2d_63">
      <path d="M 49.6125 559.395014 
L 982.876106 559.395014 
" clip-path="url(#p337e71c42d)" style="fill: none; stroke-dasharray: 2.96,1.28; stroke-dashoffset: 0; stroke: #b0b0b0; stroke-width: 0.8"/>
     </g>
     <g id="line2d_64">
      <g>
       <use xlink:href="#m19264e76dd" x="49.6125" y="559.395014" style="stroke: #000000; stroke-width: 0.8"/>
      </g>
     </g>
     <g id="text_21">
      <!-- −400 -->
      <g transform="translate(15.145313 563.194233)scale(0.1 -0.1)">
       <defs>
        <path id="DejaVuSans-2212" d="M 678 2272 
L 4684 2272 
L 4684 1741 
L 678 1741 
L 678 2272 
z
" transform="scale(0.015625)"/>
       </defs>
       <use xlink:href="#DejaVuSans-2212"/>
       <use xlink:href="#DejaVuSans-34" x="83.789062"/>
       <use xlink:href="#DejaVuSans-30" x="147.412109"/>
       <use xlink:href="#DejaVuSans-30" x="211.035156"/>
      </g>
     </g>
    </g>
    <g id="ytick_7">
     <g id="line2d_65">
      <path d="M 49.6125 516.210238 
L 982.876106 516.210238 
" clip-path="url(#p337e71c42d)" style="fill: none; stroke-dasharray: 2.96,1.28; stroke-dashoffset: 0; stroke: #b0b0b0; stroke-width: 0.8"/>
     </g>
     <g id="line2d_66">
      <g>
       <use xlink:href="#m19264e76dd" x="49.6125" y="516.210238" style="stroke: #000000; stroke-width: 0.8"/>
      </g>
     </g>
     <g id="text_22">
      <!-- −200 -->
      <g transform="translate(15.145313 520.009456)scale(0.1 -0.1)">
       <use xlink:href="#DejaVuSans-2212"/>
       <use xlink:href="#DejaVuSans-32" x="83.789062"/>
       <use xlink:href="#DejaVuSans-30" x="147.412109"/>
       <use xlink:href="#DejaVuSans-30" x="211.035156"/>
      </g>
     </g>
    </g>
    <g id="ytick_8">
     <g id="line2d_67">
      <path d="M 49.6125 473.025461 
L 982.876106 473.025461 
" clip-path="url(#p337e71c42d)" style="fill: none; stroke-dasharray: 2.96,1.28; stroke-dashoffset: 0; stroke: #b0b0b0; stroke-width: 0.8"/>
     </g>
     <g id="line2d_68">
      <g>
       <use xlink:href="#m19264e76dd" x="49.6125" y="473.025461" style="stroke: #000000; stroke-width: 0.8"/>
      </g>
     </g>
     <g id="text_23">
      <!-- 0 -->
      <g transform="translate(36.25 476.82468)scale(0.1 -0.1)">
       <use xlink:href="#DejaVuSans-30"/>
      </g>
     </g>
    </g>
    <g id="ytick_9">
     <g id="line2d_69">
      <path d="M 49.6125 429.840685 
L 982.876106 429.840685 
" clip-path="url(#p337e71c42d)" style="fill: none; stroke-dasharray: 2.96,1.28; stroke-dashoffset: 0; stroke: #b0b0b0; stroke-width: 0.8"/>
     </g>
     <g id="line2d_70">
      <g>
       <use xlink:href="#m19264e76dd" x="49.6125" y="429.840685" style="stroke: #000000; stroke-width: 0.8"/>
      </g>
     </g>
     <g id="text_24">
      <!-- 200 -->
      <g transform="translate(23.525 433.639904)scale(0.1 -0.1)">
       <use xlink:href="#DejaVuSans-32"/>
       <use xlink:href="#DejaVuSans-30" x="63.623047"/>
       <use xlink:href="#DejaVuSans-30" x="127.246094"/>
      </g>
     </g>
    </g>
    <g id="ytick_10">
     <g id="line2d_71">
      <path d="M 49.6125 386.655909 
L 982.876106 386.655909 
" clip-path="url(#p337e71c42d)" style="fill: none; stroke-dasharray: 2.96,1.28; stroke-dashoffset: 0; stroke: #b0b0b0; stroke-width: 0.8"/>
     </g>
     <g id="line2d_72">
      <g>
       <use xlink:href="#m19264e76dd" x="49.6125" y="386.655909" style="stroke: #000000; stroke-width: 0.8"/>
      </g>
     </g>
     <g id="text_25">
      <!-- 400 -->
      <g transform="translate(23.525 390.455127)scale(0.1 -0.1)">
       <use xlink:href="#DejaVuSans-34"/>
       <use xlink:href="#DejaVuSans-30" x="63.623047"/>
       <use xlink:href="#DejaVuSans-30" x="127.246094"/>
      </g>
     </g>
    </g>
    <g id="ytick_11">
     <g id="line2d_73">
      <path d="M 49.6125 343.471132 
L 982.876106 343.471132 
" clip-path="url(#p337e71c42d)" style="fill: none; stroke-dasharray: 2.96,1.28; stroke-dashoffset: 0; stroke: #b0b0b0; stroke-width: 0.8"/>
     </g>
     <g id="line2d_74">
      <g>
       <use xlink:href="#m19264e76dd" x="49.6125" y="343.471132" style="stroke: #000000; stroke-width: 0.8"/>
      </g>
     </g>
     <g id="text_26">
      <!-- 600 -->
      <g transform="translate(23.525 347.270351)scale(0.1 -0.1)">
       <use xlink:href="#DejaVuSans-36"/>
       <use xlink:href="#DejaVuSans-30" x="63.623047"/>
       <use xlink:href="#DejaVuSans-30" x="127.246094"/>
      </g>
     </g>
    </g>
   </g>
   <g id="line2d_75">
    <path d="M 92.033573 473.025461 
L 94.693201 472.618043 
L 97.35283 472.599736 
L 100.012458 473.305419 
L 102.672087 474.318798 
L 110.650972 473.117998 
L 113.3106 472.876488 
L 115.970229 470.916222 
L 118.629857 466.50934 
L 121.289485 464.476226 
L 129.268371 462.136513 
L 131.927999 460.827862 
L 134.587627 452.689264 
L 137.247256 441.190139 
L 139.906884 435.868109 
L 147.885769 434.392127 
L 150.545398 431.895236 
L 155.864655 433.279489 
L 158.524283 431.931826 
L 166.503168 425.418451 
L 169.162797 422.992296 
L 171.822425 421.454472 
L 174.482053 423.640588 
L 177.141682 423.977561 
L 187.780195 420.697582 
L 190.439824 419.819547 
L 193.099452 420.744729 
L 195.759081 425.281011 
L 203.737966 437.002096 
L 206.397594 443.420303 
L 209.057223 450.566505 
L 211.716851 457.326929 
L 214.376479 462.082222 
L 222.355365 470.007788 
L 225.014993 479.037367 
L 227.674621 485.333022 
L 230.33425 498.791164 
L 232.993878 502.031201 
L 240.972763 505.35424 
L 246.29202 505.384572 
L 248.951649 503.464688 
L 251.611277 501.378864 
L 259.590162 501.404011 
L 262.249791 500.79853 
L 264.909419 492.961347 
L 267.569047 486.309371 
L 270.228676 479.077464 
L 280.867189 470.310743 
L 283.526818 464.953908 
L 286.186446 457.153128 
L 296.82496 451.698973 
L 299.484588 445.82272 
L 302.144217 438.48197 
L 304.803845 434.573728 
L 307.463473 417.797836 
L 315.442359 395.108641 
L 318.101987 386.455234 
L 320.761615 373.087669 
L 323.421244 366.431541 
L 326.080872 361.191957 
L 334.059757 356.706323 
L 336.719386 356.76648 
L 339.379014 357.877935 
L 342.038643 362.559798 
L 344.698271 368.560099 
L 352.677156 374.007546 
L 355.336785 384.580727 
L 357.996413 394.309196 
L 371.294555 412.570976 
L 373.954183 429.674768 
L 376.613812 441.602433 
L 379.27344 449.654377 
L 381.933069 448.429134 
L 389.911954 453.738087 
L 392.571582 460.987522 
L 395.231211 464.4242 
L 397.890839 469.575514 
L 400.550467 475.326769 
L 408.529353 481.074402 
L 413.848609 483.693038 
L 416.508238 484.768306 
L 419.167866 490.949851 
L 427.146752 500.417042 
L 429.80638 514.602909 
L 432.466008 524.265881 
L 435.125637 531.045967 
L 437.785265 518.451889 
L 445.76415 504.031585 
L 448.423779 491.065501 
L 451.083407 476.568104 
L 453.743036 468.20227 
L 456.402664 459.105405 
L 464.381549 449.910306 
L 467.041178 444.421736 
L 469.700806 446.235464 
L 472.360434 445.602309 
L 475.020063 444.064683 
L 482.998948 447.670031 
L 485.658576 445.54254 
L 488.318205 440.316492 
L 490.977833 436.196183 
L 493.637462 436.760171 
L 501.616347 433.087407 
L 504.275975 432.006496 
L 506.935604 431.788975 
L 509.595232 430.630764 
L 512.25486 431.768433 
L 520.233746 435.556433 
L 522.893374 440.247166 
L 525.553002 448.206859 
L 528.212631 457.614907 
L 530.872259 468.245133 
L 538.851144 486.238223 
L 541.510773 495.073976 
L 544.170401 502.766602 
L 546.83003 503.360978 
L 549.489658 503.372442 
L 557.468543 499.63832 
L 560.128172 495.632676 
L 562.7878 489.659244 
L 565.447428 485.061778 
L 568.107057 481.641246 
L 576.085942 480.080007 
L 578.74557 480.123315 
L 581.405199 480.581877 
L 584.064827 478.976773 
L 586.724456 479.197239 
L 594.703341 478.389347 
L 597.362969 479.210971 
L 600.022598 484.03166 
L 602.682226 486.164818 
L 605.341854 483.189989 
L 613.32074 479.995056 
L 615.980368 477.837056 
L 618.639996 475.498967 
L 621.299625 472.217939 
L 623.959253 466.383912 
L 634.597767 457.021457 
L 637.257395 453.252874 
L 639.917024 449.171769 
L 642.576652 444.006121 
L 650.555537 439.76346 
L 653.215166 438.176643 
L 655.874794 433.910624 
L 658.534422 429.009123 
L 661.194051 419.609215 
L 669.172936 408.605777 
L 674.492193 402.332919 
L 677.151821 397.584009 
L 679.81145 381.987236 
L 690.449963 364.930573 
L 693.109592 350.976582 
L 695.76922 342.65348 
L 698.428848 345.806832 
L 706.407734 355.756669 
L 709.067362 367.815846 
L 711.72699 374.290224 
L 714.386619 384.008645 
L 717.046247 397.935528 
L 725.025132 417.93859 
L 727.684761 431.682139 
L 733.004018 442.902939 
L 735.663646 457.429618 
L 743.642531 466.136246 
L 746.30216 473.490919 
L 748.961788 479.820542 
L 751.621416 485.508326 
L 754.281045 488.954189 
L 762.25993 490.290803 
L 764.919558 487.630863 
L 767.579187 488.386127 
L 770.238815 489.310075 
L 772.898444 492.517349 
L 780.877329 495.391957 
L 783.536957 493.855611 
L 786.196586 493.862275 
L 788.856214 490.647586 
L 791.515842 490.22849 
L 799.494728 495.255607 
L 802.154356 502.357413 
L 804.813984 506.105916 
L 807.473613 508.55986 
L 810.133241 507.875339 
L 818.112126 511.143847 
L 820.771755 510.22492 
L 826.091012 507.588519 
L 828.75064 505.575201 
L 836.729525 503.038655 
L 839.389154 501.989096 
L 842.048782 503.407507 
L 844.70841 504.995904 
L 847.368039 503.245829 
L 855.346924 513.290454 
L 858.006552 530.659771 
L 860.666181 541.724444 
L 863.325809 548.567497 
L 865.985438 555.022127 
L 873.964323 558.317953 
L 876.623951 562.045074 
L 881.943208 566.763507 
L 884.602836 571.932687 
L 895.24135 573.004332 
L 900.560607 571.406871 
L 903.220235 569.356378 
L 911.19912 565.47391 
L 916.518377 560.981517 
L 919.178006 557.73067 
L 921.837634 553.58454 
L 929.816519 549.198481 
L 932.476148 544.456534 
L 935.135776 540.862604 
L 937.795404 539.050503 
L 940.455033 535.992993 
L 940.455033 535.992993 
" clip-path="url(#p337e71c42d)" style="fill: none; stroke: #1f77b4; stroke-width: 1.5; stroke-linecap: square"/>
   </g>
   <g id="line2d_76">
    <path d="M 92.033573 473.025461 
L 94.693201 472.799118 
L 97.35283 472.717404 
L 100.012458 472.916596 
L 102.672087 473.333719 
L 113.3106 473.174332 
L 115.970229 472.631665 
L 121.289485 469.706968 
L 129.268371 468.050596 
L 131.927999 466.499456 
L 134.587627 463.576739 
L 139.906884 454.120443 
L 147.885769 450.060503 
L 150.545398 446.343756 
L 155.864655 443.68297 
L 158.524283 441.298376 
L 166.503168 438.085347 
L 169.162797 435.038636 
L 171.822425 432.301607 
L 174.482053 430.559118 
L 177.141682 429.236561 
L 185.120567 427.700619 
L 190.439824 424.997383 
L 193.099452 424.145204 
L 195.759081 424.372717 
L 203.737966 426.901724 
L 206.397594 430.208715 
L 209.057223 434.283501 
L 214.376479 443.534885 
L 222.355365 448.831614 
L 227.674621 460.967967 
L 230.33425 468.534178 
L 232.993878 475.234696 
L 240.972763 481.259405 
L 246.29202 486.084952 
L 248.951649 489.561195 
L 251.611277 491.92489 
L 259.590162 493.820817 
L 262.249791 495.21642 
L 264.909419 494.76539 
L 267.569047 493.074139 
L 270.228676 490.274742 
L 278.207561 486.725247 
L 280.867189 483.442299 
L 283.526818 479.744579 
L 286.186446 475.226247 
L 296.82496 470.520758 
L 299.484588 465.581122 
L 302.144217 460.161266 
L 304.803845 455.043739 
L 307.463473 447.594536 
L 315.442359 437.097332 
L 318.101987 426.968893 
L 320.761615 416.192632 
L 323.421244 406.240401 
L 326.080872 397.230704 
L 334.059757 389.125821 
L 336.719386 382.653949 
L 339.379014 377.698744 
L 342.038643 374.670953 
L 344.698271 373.448782 
L 352.677156 373.560535 
L 355.336785 375.764574 
L 357.996413 379.473499 
L 371.294555 386.092995 
L 373.954183 394.809351 
L 379.27344 413.26525 
L 381.933069 420.298027 
L 389.911954 426.98604 
L 392.571582 433.786336 
L 397.890839 445.84623 
L 400.550467 451.742338 
L 408.529353 457.608751 
L 413.848609 462.825608 
L 416.508238 467.214148 
L 419.167866 471.961289 
L 427.146752 477.652439 
L 429.80638 485.042533 
L 435.125637 500.518956 
L 437.785265 504.105542 
L 445.76415 504.090751 
L 448.423779 501.485701 
L 451.083407 496.502182 
L 453.743036 490.842199 
L 456.402664 484.49484 
L 464.381549 477.577933 
L 467.041178 470.946694 
L 469.700806 466.004448 
L 472.360434 461.92402 
L 475.020063 458.352153 
L 482.998948 456.215728 
L 485.658576 454.081091 
L 488.318205 451.328171 
L 490.977833 448.301773 
L 493.637462 445.993453 
L 501.616347 443.412244 
L 504.275975 441.131094 
L 506.935604 439.26267 
L 509.595232 437.536289 
L 512.25486 436.382718 
L 520.233746 436.217461 
L 522.893374 437.023402 
L 525.553002 439.260093 
L 528.212631 442.931056 
L 530.872259 447.993871 
L 538.851144 455.642742 
L 544.170401 471.376511 
L 546.83003 477.773405 
L 549.489658 482.893212 
L 557.468543 486.242234 
L 560.128172 488.120322 
L 562.7878 488.428107 
L 565.447428 487.754841 
L 568.107057 486.532122 
L 576.085942 485.241699 
L 578.74557 484.218022 
L 581.405199 483.490793 
L 584.064827 482.587989 
L 586.724456 481.909839 
L 594.703341 481.205741 
L 597.362969 480.806787 
L 600.022598 481.451761 
L 602.682226 482.394373 
L 605.341854 482.553496 
L 613.32074 482.041808 
L 615.980368 481.200857 
L 618.639996 480.060479 
L 621.299625 478.491971 
L 623.959253 476.070359 
L 631.938138 472.741083 
L 637.257395 466.328301 
L 639.917024 462.896995 
L 642.576652 459.11882 
L 650.555537 455.247748 
L 655.874794 448.248946 
L 658.534422 444.400982 
L 661.194051 439.442628 
L 669.172936 433.275258 
L 674.492193 427.08679 
L 677.151821 421.186234 
L 679.81145 413.346434 
L 690.449963 403.663262 
L 695.76922 383.031437 
L 698.428848 375.586516 
L 706.407734 371.620546 
L 709.067362 370.859606 
L 711.72699 371.54573 
L 714.386619 374.038313 
L 717.046247 378.817756 
L 725.025132 386.641923 
L 727.684761 395.649966 
L 733.004018 405.10056 
L 735.663646 415.566372 
L 743.642531 425.680347 
L 746.30216 435.242461 
L 748.961788 444.158077 
L 751.621416 452.428127 
L 754.281045 459.73334 
L 762.25993 465.844832 
L 764.919558 470.202038 
L 767.579187 473.838856 
L 772.898444 480.04995 
L 780.877329 483.118351 
L 783.536957 485.265803 
L 786.196586 486.985098 
L 788.856214 487.717595 
L 799.494728 489.626941 
L 802.154356 492.173035 
L 807.473613 497.679661 
L 810.133241 499.718797 
L 818.112126 502.003807 
L 820.771755 503.648029 
L 826.091012 504.436127 
L 828.75064 504.663942 
L 836.729525 504.338885 
L 839.389154 503.868927 
L 842.048782 503.776643 
L 844.70841 504.020495 
L 847.368039 503.865562 
L 855.346924 505.75054 
L 858.006552 510.732387 
L 863.325809 523.258138 
L 865.985438 529.610936 
L 873.964323 535.352339 
L 876.623951 540.690886 
L 881.943208 545.90541 
L 884.602836 551.110866 
L 892.581722 555.445532 
L 895.24135 558.957292 
L 897.900978 561.616728 
L 900.560607 563.574757 
L 903.220235 564.731081 
L 911.19912 564.879647 
L 916.518377 564.100021 
L 919.178006 562.826151 
L 921.837634 560.977829 
L 929.816519 558.621959 
L 940.455033 547.240996 
L 940.455033 547.240996 
" clip-path="url(#p337e71c42d)" style="fill: none; stroke: #ff7f0e; stroke-width: 1.5; stroke-linecap: square"/>
   </g>
   <g id="patch_9">
    <path d="M 49.6125 584.521875 
L 49.6125 331.135938 
" style="fill: none; stroke: #000000; stroke-width: 0.8; stroke-linejoin: miter; stroke-linecap: square"/>
   </g>
   <g id="patch_10">
    <path d="M 982.876106 584.521875 
L 982.876106 331.135938 
" style="fill: none; stroke: #000000; stroke-width: 0.8; stroke-linejoin: miter; stroke-linecap: square"/>
   </g>
   <g id="patch_11">
    <path d="M 49.6125 584.521875 
L 982.876106 584.521875 
" style="fill: none; stroke: #000000; stroke-width: 0.8; stroke-linejoin: miter; stroke-linecap: square"/>
   </g>
   <g id="patch_12">
    <path d="M 49.6125 331.135938 
L 982.876106 331.135938 
" style="fill: none; stroke: #000000; stroke-width: 0.8; stroke-linejoin: miter; stroke-linecap: square"/>
   </g>
   <g id="text_27">
    <!-- MACD -->
    <g transform="translate(498.258365 325.135938)scale(0.12 -0.12)">
     <defs>
      <path id="DejaVuSans-44" d="M 1259 4147 
L 1259 519 
L 2022 519 
Q 2988 519 3436 956 
Q 3884 1394 3884 2338 
Q 3884 3275 3436 3711 
Q 2988 4147 2022 4147 
L 1259 4147 
z
M 628 4666 
L 1925 4666 
Q 3281 4666 3915 4102 
Q 4550 3538 4550 2338 
Q 4550 1131 3912 565 
Q 3275 0 1925 0 
L 628 0 
L 628 4666 
z
" transform="scale(0.015625)"/>
     </defs>
     <use xlink:href="#DejaVuSans-4d"/>
     <use xlink:href="#DejaVuSans-41" x="86.279297"/>
     <use xlink:href="#DejaVuSans-43" x="152.9375"/>
     <use xlink:href="#DejaVuSans-44" x="222.761719"/>
    </g>
   </g>
   <g id="legend_2">
    <g id="patch_13">
     <path d="M 913.899543 368.492188 
L 975.876106 368.492188 
Q 977.876106 368.492188 977.876106 366.492188 
L 977.876106 338.135938 
Q 977.876106 336.135938 975.876106 336.135938 
L 913.899543 336.135938 
Q 911.899543 336.135938 911.899543 338.135938 
L 911.899543 366.492188 
Q 911.899543 368.492188 913.899543 368.492188 
z
" style="fill: #ffffff; opacity: 0.8; stroke: #cccccc; stroke-linejoin: miter"/>
    </g>
    <g id="line2d_77">
     <path d="M 915.899543 344.234375 
L 925.899543 344.234375 
L 935.899543 344.234375 
" style="fill: none; stroke: #1f77b4; stroke-width: 1.5; stroke-linecap: square"/>
    </g>
    <g id="text_28">
     <!-- MACD -->
     <g transform="translate(943.899543 347.734375)scale(0.1 -0.1)">
      <use xlink:href="#DejaVuSans-4d"/>
      <use xlink:href="#DejaVuSans-41" x="86.279297"/>
      <use xlink:href="#DejaVuSans-43" x="152.9375"/>
      <use xlink:href="#DejaVuSans-44" x="222.761719"/>
     </g>
    </g>
    <g id="line2d_78">
     <path d="M 915.899543 358.9125 
L 925.899543 358.9125 
L 935.899543 358.9125 
" style="fill: none; stroke: #ff7f0e; stroke-width: 1.5; stroke-linecap: square"/>
    </g>
    <g id="text_29">
     <!-- SIG -->
     <g transform="translate(943.899543 362.4125)scale(0.1 -0.1)">
      <defs>
       <path id="DejaVuSans-49" d="M 628 4666 
L 1259 4666 
L 1259 0 
L 628 0 
L 628 4666 
z
" transform="scale(0.015625)"/>
       <path id="DejaVuSans-47" d="M 3809 666 
L 3809 1919 
L 2778 1919 
L 2778 2438 
L 4434 2438 
L 4434 434 
Q 4069 175 3628 42 
Q 3188 -91 2688 -91 
Q 1594 -91 976 548 
Q 359 1188 359 2328 
Q 359 3472 976 4111 
Q 1594 4750 2688 4750 
Q 3144 4750 3555 4637 
Q 3966 4525 4313 4306 
L 4313 3634 
Q 3963 3931 3569 4081 
Q 3175 4231 2741 4231 
Q 1884 4231 1454 3753 
Q 1025 3275 1025 2328 
Q 1025 1384 1454 906 
Q 1884 428 2741 428 
Q 3075 428 3337 486 
Q 3600 544 3809 666 
z
" transform="scale(0.015625)"/>
      </defs>
      <use xlink:href="#DejaVuSans-53"/>
      <use xlink:href="#DejaVuSans-49" x="63.476562"/>
      <use xlink:href="#DejaVuSans-47" x="92.96875"/>
     </g>
    </g>
   </g>
  </g>
  <g id="text_30">
   <!-- Tata Elxsi Limited -->
   <g transform="translate(451.629375 21.358125)scale(0.12 -0.12)">
    <defs>
     <path id="DejaVuSans-54" d="M -19 4666 
L 3928 4666 
L 3928 4134 
L 2272 4134 
L 2272 0 
L 1638 0 
L 1638 4134 
L -19 4134 
L -19 4666 
z
" transform="scale(0.015625)"/>
     <path id="DejaVuSans-61" d="M 2194 1759 
Q 1497 1759 1228 1600 
Q 959 1441 959 1056 
Q 959 750 1161 570 
Q 1363 391 1709 391 
Q 2188 391 2477 730 
Q 2766 1069 2766 1631 
L 2766 1759 
L 2194 1759 
z
M 3341 1997 
L 3341 0 
L 2766 0 
L 2766 531 
Q 2569 213 2275 61 
Q 1981 -91 1556 -91 
Q 1019 -91 701 211 
Q 384 513 384 1019 
Q 384 1609 779 1909 
Q 1175 2209 1959 2209 
L 2766 2209 
L 2766 2266 
Q 2766 2663 2505 2880 
Q 2244 3097 1772 3097 
Q 1472 3097 1187 3025 
Q 903 2953 641 2809 
L 641 3341 
Q 956 3463 1253 3523 
Q 1550 3584 1831 3584 
Q 2591 3584 2966 3190 
Q 3341 2797 3341 1997 
z
" transform="scale(0.015625)"/>
     <path id="DejaVuSans-74" d="M 1172 4494 
L 1172 3500 
L 2356 3500 
L 2356 3053 
L 1172 3053 
L 1172 1153 
Q 1172 725 1289 603 
Q 1406 481 1766 481 
L 2356 481 
L 2356 0 
L 1766 0 
Q 1100 0 847 248 
Q 594 497 594 1153 
L 594 3053 
L 172 3053 
L 172 3500 
L 594 3500 
L 594 4494 
L 1172 4494 
z
" transform="scale(0.015625)"/>
     <path id="DejaVuSans-78" d="M 3513 3500 
L 2247 1797 
L 3578 0 
L 2900 0 
L 1881 1375 
L 863 0 
L 184 0 
L 1544 1831 
L 300 3500 
L 978 3500 
L 1906 2253 
L 2834 3500 
L 3513 3500 
z
" transform="scale(0.015625)"/>
     <path id="DejaVuSans-6d" d="M 3328 2828 
Q 3544 3216 3844 3400 
Q 4144 3584 4550 3584 
Q 5097 3584 5394 3201 
Q 5691 2819 5691 2113 
L 5691 0 
L 5113 0 
L 5113 2094 
Q 5113 2597 4934 2840 
Q 4756 3084 4391 3084 
Q 3944 3084 3684 2787 
Q 3425 2491 3425 1978 
L 3425 0 
L 2847 0 
L 2847 2094 
Q 2847 2600 2669 2842 
Q 2491 3084 2119 3084 
Q 1678 3084 1418 2786 
Q 1159 2488 1159 1978 
L 1159 0 
L 581 0 
L 581 3500 
L 1159 3500 
L 1159 2956 
Q 1356 3278 1631 3431 
Q 1906 3584 2284 3584 
Q 2666 3584 2933 3390 
Q 3200 3197 3328 2828 
z
" transform="scale(0.015625)"/>
     <path id="DejaVuSans-64" d="M 2906 2969 
L 2906 4863 
L 3481 4863 
L 3481 0 
L 2906 0 
L 2906 525 
Q 2725 213 2448 61 
Q 2172 -91 1784 -91 
Q 1150 -91 751 415 
Q 353 922 353 1747 
Q 353 2572 751 3078 
Q 1150 3584 1784 3584 
Q 2172 3584 2448 3432 
Q 2725 3281 2906 2969 
z
M 947 1747 
Q 947 1113 1208 752 
Q 1469 391 1925 391 
Q 2381 391 2643 752 
Q 2906 1113 2906 1747 
Q 2906 2381 2643 2742 
Q 2381 3103 1925 3103 
Q 1469 3103 1208 2742 
Q 947 2381 947 1747 
z
" transform="scale(0.015625)"/>
    </defs>
    <use xlink:href="#DejaVuSans-54"/>
    <use xlink:href="#DejaVuSans-61" x="44.583984"/>
    <use xlink:href="#DejaVuSans-74" x="105.863281"/>
    <use xlink:href="#DejaVuSans-61" x="145.072266"/>
    <use xlink:href="#DejaVuSans-20" x="206.351562"/>
    <use xlink:href="#DejaVuSans-45" x="238.138672"/>
    <use xlink:href="#DejaVuSans-6c" x="301.322266"/>
    <use xlink:href="#DejaVuSans-78" x="329.105469"/>
    <use xlink:href="#DejaVuSans-73" x="388.285156"/>
    <use xlink:href="#DejaVuSans-69" x="440.384766"/>
    <use xlink:href="#DejaVuSans-20" x="468.167969"/>
    <use xlink:href="#DejaVuSans-4c" x="499.955078"/>
    <use xlink:href="#DejaVuSans-69" x="555.667969"/>
    <use xlink:href="#DejaVuSans-6d" x="583.451172"/>
    <use xlink:href="#DejaVuSans-69" x="680.863281"/>
    <use xlink:href="#DejaVuSans-74" x="708.646484"/>
    <use xlink:href="#DejaVuSans-65" x="747.855469"/>
    <use xlink:href="#DejaVuSans-64" x="809.378906"/>
   </g>
  </g>
 </g>
 <defs>
  <clipPath id="p0f50aa5c38">
   <rect x="49.6125" y="48.331875" width="933.263606" height="253.385938"/>
  </clipPath>
  <clipPath id="p337e71c42d">
   <rect x="49.6125" y="331.135938" width="933.263606" height="253.385937"/>
  </clipPath>
 </defs>
</svg>
