<?xml version="1.0" encoding="utf-8" standalone="no"?>
<!DOCTYPE svg PUBLIC "-//W3C//DTD SVG 1.1//EN"
  "http://www.w3.org/Graphics/SVG/1.1/DTD/svg11.dtd">
<svg xmlns:xlink="http://www.w3.org/1999/xlink" width="1008pt" height="612pt" viewBox="0 0 1008 612" xmlns="http://www.w3.org/2000/svg" version="1.1">
 <metadata>
  <rdf:RDF xmlns:dc="http://purl.org/dc/elements/1.1/" xmlns:cc="http://creativecommons.org/ns#" xmlns:rdf="http://www.w3.org/1999/02/22-rdf-syntax-ns#">
   <cc:Work>
    <dc:type rdf:resource="http://purl.org/dc/dcmitype/StillImage"/>
    <dc:date>2022-11-20T19:47:35.292403</dc:date>
    <dc:format>image/svg+xml</dc:format>
    <dc:creator>
     <cc:Agent>
      <dc:title>Matplotlib v3.5.2, https://matplotlib.org/</dc:title>
     </cc:Agent>
    </dc:creator>
   </cc:Work>
  </rdf:RDF>
 </metadata>
 <defs>
  <style type="text/css">*{stroke-linejoin: round; stroke-linecap: butt}</style>
 </defs>
 <g id="figure_1">
  <g id="patch_1">
   <path d="M 0 612 
L 1008 612 
L 1008 0 
L 0 0 
z
" style="fill: #ffffff"/>
  </g>
  <g id="axes_1">
   <g id="patch_2">
    <path d="M 43.25 301.717812 
L 982.876106 301.717812 
L 982.876106 48.331875 
L 43.25 48.331875 
z
" style="fill: #ffffff"/>
   </g>
   <g id="matplotlib.axis_1">
    <g id="xtick_1">
     <g id="line2d_1">
      <path d="M 80.604757 301.717812 
L 80.604757 48.331875 
" clip-path="url(#p55d037913b)" style="fill: none; stroke-dasharray: 2.96,1.28; stroke-dashoffset: 0; stroke: #b0b0b0; stroke-width: 0.8"/>
     </g>
     <g id="line2d_2">
      <defs>
       <path id="mc7bd3ee0a8" d="M 0 0 
L 0 3.5 
" style="stroke: #000000; stroke-width: 0.8"/>
      </defs>
      <g>
       <use xlink:href="#mc7bd3ee0a8" x="80.604757" y="301.717812" style="stroke: #000000; stroke-width: 0.8"/>
      </g>
     </g>
    </g>
    <g id="xtick_2">
     <g id="line2d_3">
      <path d="M 163.615328 301.717812 
L 163.615328 48.331875 
" clip-path="url(#p55d037913b)" style="fill: none; stroke-dasharray: 2.96,1.28; stroke-dashoffset: 0; stroke: #b0b0b0; stroke-width: 0.8"/>
     </g>
     <g id="line2d_4">
      <g>
       <use xlink:href="#mc7bd3ee0a8" x="163.615328" y="301.717812" style="stroke: #000000; stroke-width: 0.8"/>
      </g>
     </g>
    </g>
    <g id="xtick_3">
     <g id="line2d_5">
      <path d="M 238.592617 301.717812 
L 238.592617 48.331875 
" clip-path="url(#p55d037913b)" style="fill: none; stroke-dasharray: 2.96,1.28; stroke-dashoffset: 0; stroke: #b0b0b0; stroke-width: 0.8"/>
     </g>
     <g id="line2d_6">
      <g>
       <use xlink:href="#mc7bd3ee0a8" x="238.592617" y="301.717812" style="stroke: #000000; stroke-width: 0.8"/>
      </g>
     </g>
    </g>
    <g id="xtick_4">
     <g id="line2d_7">
      <path d="M 321.603188 301.717812 
L 321.603188 48.331875 
" clip-path="url(#p55d037913b)" style="fill: none; stroke-dasharray: 2.96,1.28; stroke-dashoffset: 0; stroke: #b0b0b0; stroke-width: 0.8"/>
     </g>
     <g id="line2d_8">
      <g>
       <use xlink:href="#mc7bd3ee0a8" x="321.603188" y="301.717812" style="stroke: #000000; stroke-width: 0.8"/>
      </g>
     </g>
    </g>
    <g id="xtick_5">
     <g id="line2d_9">
      <path d="M 401.935999 301.717812 
L 401.935999 48.331875 
" clip-path="url(#p55d037913b)" style="fill: none; stroke-dasharray: 2.96,1.28; stroke-dashoffset: 0; stroke: #b0b0b0; stroke-width: 0.8"/>
     </g>
     <g id="line2d_10">
      <g>
       <use xlink:href="#mc7bd3ee0a8" x="401.935999" y="301.717812" style="stroke: #000000; stroke-width: 0.8"/>
      </g>
     </g>
    </g>
    <g id="xtick_6">
     <g id="line2d_11">
      <path d="M 484.946569 301.717812 
L 484.946569 48.331875 
" clip-path="url(#p55d037913b)" style="fill: none; stroke-dasharray: 2.96,1.28; stroke-dashoffset: 0; stroke: #b0b0b0; stroke-width: 0.8"/>
     </g>
     <g id="line2d_12">
      <g>
       <use xlink:href="#mc7bd3ee0a8" x="484.946569" y="301.717812" style="stroke: #000000; stroke-width: 0.8"/>
      </g>
     </g>
    </g>
    <g id="xtick_7">
     <g id="line2d_13">
      <path d="M 565.27938 301.717812 
L 565.27938 48.331875 
" clip-path="url(#p55d037913b)" style="fill: none; stroke-dasharray: 2.96,1.28; stroke-dashoffset: 0; stroke: #b0b0b0; stroke-width: 0.8"/>
     </g>
     <g id="line2d_14">
      <g>
       <use xlink:href="#mc7bd3ee0a8" x="565.27938" y="301.717812" style="stroke: #000000; stroke-width: 0.8"/>
      </g>
     </g>
    </g>
    <g id="xtick_8">
     <g id="line2d_15">
      <path d="M 648.28995 301.717812 
L 648.28995 48.331875 
" clip-path="url(#p55d037913b)" style="fill: none; stroke-dasharray: 2.96,1.28; stroke-dashoffset: 0; stroke: #b0b0b0; stroke-width: 0.8"/>
     </g>
     <g id="line2d_16">
      <g>
       <use xlink:href="#mc7bd3ee0a8" x="648.28995" y="301.717812" style="stroke: #000000; stroke-width: 0.8"/>
      </g>
     </g>
    </g>
    <g id="xtick_9">
     <g id="line2d_17">
      <path d="M 731.300521 301.717812 
L 731.300521 48.331875 
" clip-path="url(#p55d037913b)" style="fill: none; stroke-dasharray: 2.96,1.28; stroke-dashoffset: 0; stroke: #b0b0b0; stroke-width: 0.8"/>
     </g>
     <g id="line2d_18">
      <g>
       <use xlink:href="#mc7bd3ee0a8" x="731.300521" y="301.717812" style="stroke: #000000; stroke-width: 0.8"/>
      </g>
     </g>
    </g>
    <g id="xtick_10">
     <g id="line2d_19">
      <path d="M 811.633332 301.717812 
L 811.633332 48.331875 
" clip-path="url(#p55d037913b)" style="fill: none; stroke-dasharray: 2.96,1.28; stroke-dashoffset: 0; stroke: #b0b0b0; stroke-width: 0.8"/>
     </g>
     <g id="line2d_20">
      <g>
       <use xlink:href="#mc7bd3ee0a8" x="811.633332" y="301.717812" style="stroke: #000000; stroke-width: 0.8"/>
      </g>
     </g>
    </g>
    <g id="xtick_11">
     <g id="line2d_21">
      <path d="M 894.643902 301.717812 
L 894.643902 48.331875 
" clip-path="url(#p55d037913b)" style="fill: none; stroke-dasharray: 2.96,1.28; stroke-dashoffset: 0; stroke: #b0b0b0; stroke-width: 0.8"/>
     </g>
     <g id="line2d_22">
      <g>
       <use xlink:href="#mc7bd3ee0a8" x="894.643902" y="301.717812" style="stroke: #000000; stroke-width: 0.8"/>
      </g>
     </g>
    </g>
    <g id="xtick_12">
     <g id="line2d_23">
      <path d="M 974.976713 301.717812 
L 974.976713 48.331875 
" clip-path="url(#p55d037913b)" style="fill: none; stroke-dasharray: 2.96,1.28; stroke-dashoffset: 0; stroke: #b0b0b0; stroke-width: 0.8"/>
     </g>
     <g id="line2d_24">
      <g>
       <use xlink:href="#mc7bd3ee0a8" x="974.976713" y="301.717812" style="stroke: #000000; stroke-width: 0.8"/>
      </g>
     </g>
    </g>
   </g>
   <g id="matplotlib.axis_2">
    <g id="ytick_1">
     <g id="line2d_25">
      <path d="M 43.25 268.668434 
L 982.876106 268.668434 
" clip-path="url(#p55d037913b)" style="fill: none; stroke-dasharray: 2.96,1.28; stroke-dashoffset: 0; stroke: #b0b0b0; stroke-width: 0.8"/>
     </g>
     <g id="line2d_26">
      <defs>
       <path id="m335bd5f5be" d="M 0 0 
L -3.5 0 
" style="stroke: #000000; stroke-width: 0.8"/>
      </defs>
      <g>
       <use xlink:href="#m335bd5f5be" x="43.25" y="268.668434" style="stroke: #000000; stroke-width: 0.8"/>
      </g>
     </g>
     <g id="text_1">
      <!-- 900 -->
      <g transform="translate(17.1625 272.467653)scale(0.1 -0.1)">
       <defs>
        <path id="DejaVuSans-39" d="M 703 97 
L 703 672 
Q 941 559 1184 500 
Q 1428 441 1663 441 
Q 2288 441 2617 861 
Q 2947 1281 2994 2138 
Q 2813 1869 2534 1725 
Q 2256 1581 1919 1581 
Q 1219 1581 811 2004 
Q 403 2428 403 3163 
Q 403 3881 828 4315 
Q 1253 4750 1959 4750 
Q 2769 4750 3195 4129 
Q 3622 3509 3622 2328 
Q 3622 1225 3098 567 
Q 2575 -91 1691 -91 
Q 1453 -91 1209 -44 
Q 966 3 703 97 
z
M 1959 2075 
Q 2384 2075 2632 2365 
Q 2881 2656 2881 3163 
Q 2881 3666 2632 3958 
Q 2384 4250 1959 4250 
Q 1534 4250 1286 3958 
Q 1038 3666 1038 3163 
Q 1038 2656 1286 2365 
Q 1534 2075 1959 2075 
z
" transform="scale(0.015625)"/>
        <path id="DejaVuSans-30" d="M 2034 4250 
Q 1547 4250 1301 3770 
Q 1056 3291 1056 2328 
Q 1056 1369 1301 889 
Q 1547 409 2034 409 
Q 2525 409 2770 889 
Q 3016 1369 3016 2328 
Q 3016 3291 2770 3770 
Q 2525 4250 2034 4250 
z
M 2034 4750 
Q 2819 4750 3233 4129 
Q 3647 3509 3647 2328 
Q 3647 1150 3233 529 
Q 2819 -91 2034 -91 
Q 1250 -91 836 529 
Q 422 1150 422 2328 
Q 422 3509 836 4129 
Q 1250 4750 2034 4750 
z
" transform="scale(0.015625)"/>
       </defs>
       <use xlink:href="#DejaVuSans-39"/>
       <use xlink:href="#DejaVuSans-30" x="63.623047"/>
       <use xlink:href="#DejaVuSans-30" x="127.246094"/>
      </g>
     </g>
    </g>
    <g id="ytick_2">
     <g id="line2d_27">
      <path d="M 43.25 224.455219 
L 982.876106 224.455219 
" clip-path="url(#p55d037913b)" style="fill: none; stroke-dasharray: 2.96,1.28; stroke-dashoffset: 0; stroke: #b0b0b0; stroke-width: 0.8"/>
     </g>
     <g id="line2d_28">
      <g>
       <use xlink:href="#m335bd5f5be" x="43.25" y="224.455219" style="stroke: #000000; stroke-width: 0.8"/>
      </g>
     </g>
     <g id="text_2">
      <!-- 1000 -->
      <g transform="translate(10.8 228.254437)scale(0.1 -0.1)">
       <defs>
        <path id="DejaVuSans-31" d="M 794 531 
L 1825 531 
L 1825 4091 
L 703 3866 
L 703 4441 
L 1819 4666 
L 2450 4666 
L 2450 531 
L 3481 531 
L 3481 0 
L 794 0 
L 794 531 
z
" transform="scale(0.015625)"/>
       </defs>
       <use xlink:href="#DejaVuSans-31"/>
       <use xlink:href="#DejaVuSans-30" x="63.623047"/>
       <use xlink:href="#DejaVuSans-30" x="127.246094"/>
       <use xlink:href="#DejaVuSans-30" x="190.869141"/>
      </g>
     </g>
    </g>
    <g id="ytick_3">
     <g id="line2d_29">
      <path d="M 43.25 180.242003 
L 982.876106 180.242003 
" clip-path="url(#p55d037913b)" style="fill: none; stroke-dasharray: 2.96,1.28; stroke-dashoffset: 0; stroke: #b0b0b0; stroke-width: 0.8"/>
     </g>
     <g id="line2d_30">
      <g>
       <use xlink:href="#m335bd5f5be" x="43.25" y="180.242003" style="stroke: #000000; stroke-width: 0.8"/>
      </g>
     </g>
     <g id="text_3">
      <!-- 1100 -->
      <g transform="translate(10.8 184.041222)scale(0.1 -0.1)">
       <use xlink:href="#DejaVuSans-31"/>
       <use xlink:href="#DejaVuSans-31" x="63.623047"/>
       <use xlink:href="#DejaVuSans-30" x="127.246094"/>
       <use xlink:href="#DejaVuSans-30" x="190.869141"/>
      </g>
     </g>
    </g>
    <g id="ytick_4">
     <g id="line2d_31">
      <path d="M 43.25 136.028788 
L 982.876106 136.028788 
" clip-path="url(#p55d037913b)" style="fill: none; stroke-dasharray: 2.96,1.28; stroke-dashoffset: 0; stroke: #b0b0b0; stroke-width: 0.8"/>
     </g>
     <g id="line2d_32">
      <g>
       <use xlink:href="#m335bd5f5be" x="43.25" y="136.028788" style="stroke: #000000; stroke-width: 0.8"/>
      </g>
     </g>
     <g id="text_4">
      <!-- 1200 -->
      <g transform="translate(10.8 139.828007)scale(0.1 -0.1)">
       <defs>
        <path id="DejaVuSans-32" d="M 1228 531 
L 3431 531 
L 3431 0 
L 469 0 
L 469 531 
Q 828 903 1448 1529 
Q 2069 2156 2228 2338 
Q 2531 2678 2651 2914 
Q 2772 3150 2772 3378 
Q 2772 3750 2511 3984 
Q 2250 4219 1831 4219 
Q 1534 4219 1204 4116 
Q 875 4013 500 3803 
L 500 4441 
Q 881 4594 1212 4672 
Q 1544 4750 1819 4750 
Q 2544 4750 2975 4387 
Q 3406 4025 3406 3419 
Q 3406 3131 3298 2873 
Q 3191 2616 2906 2266 
Q 2828 2175 2409 1742 
Q 1991 1309 1228 531 
z
" transform="scale(0.015625)"/>
       </defs>
       <use xlink:href="#DejaVuSans-31"/>
       <use xlink:href="#DejaVuSans-32" x="63.623047"/>
       <use xlink:href="#DejaVuSans-30" x="127.246094"/>
       <use xlink:href="#DejaVuSans-30" x="190.869141"/>
      </g>
     </g>
    </g>
    <g id="ytick_5">
     <g id="line2d_33">
      <path d="M 43.25 91.815572 
L 982.876106 91.815572 
" clip-path="url(#p55d037913b)" style="fill: none; stroke-dasharray: 2.96,1.28; stroke-dashoffset: 0; stroke: #b0b0b0; stroke-width: 0.8"/>
     </g>
     <g id="line2d_34">
      <g>
       <use xlink:href="#m335bd5f5be" x="43.25" y="91.815572" style="stroke: #000000; stroke-width: 0.8"/>
      </g>
     </g>
     <g id="text_5">
      <!-- 1300 -->
      <g transform="translate(10.8 95.614791)scale(0.1 -0.1)">
       <defs>
        <path id="DejaVuSans-33" d="M 2597 2516 
Q 3050 2419 3304 2112 
Q 3559 1806 3559 1356 
Q 3559 666 3084 287 
Q 2609 -91 1734 -91 
Q 1441 -91 1130 -33 
Q 819 25 488 141 
L 488 750 
Q 750 597 1062 519 
Q 1375 441 1716 441 
Q 2309 441 2620 675 
Q 2931 909 2931 1356 
Q 2931 1769 2642 2001 
Q 2353 2234 1838 2234 
L 1294 2234 
L 1294 2753 
L 1863 2753 
Q 2328 2753 2575 2939 
Q 2822 3125 2822 3475 
Q 2822 3834 2567 4026 
Q 2313 4219 1838 4219 
Q 1578 4219 1281 4162 
Q 984 4106 628 3988 
L 628 4550 
Q 988 4650 1302 4700 
Q 1616 4750 1894 4750 
Q 2613 4750 3031 4423 
Q 3450 4097 3450 3541 
Q 3450 3153 3228 2886 
Q 3006 2619 2597 2516 
z
" transform="scale(0.015625)"/>
       </defs>
       <use xlink:href="#DejaVuSans-31"/>
       <use xlink:href="#DejaVuSans-33" x="63.623047"/>
       <use xlink:href="#DejaVuSans-30" x="127.246094"/>
       <use xlink:href="#DejaVuSans-30" x="190.869141"/>
      </g>
     </g>
    </g>
   </g>
   <g id="line2d_35">
    <path d="M 85.960278 117.658197 
L 88.638038 121.48264 
L 91.315798 118.542461 
L 93.993559 136.006681 
L 96.671319 133.530741 
L 104.7046 125.06391 
L 107.38236 115.182257 
L 110.060121 117.63609 
L 112.737881 127.628277 
L 115.415641 134.392899 
L 123.448922 117.216065 
L 126.126683 118.365608 
L 128.804443 119.028806 
L 131.482203 102.603597 
L 134.159964 102.271998 
L 142.193245 130.789522 
L 144.871005 98.845474 
L 150.226526 106.339614 
L 152.904286 99.331819 
L 160.937567 94.402045 
L 163.615328 93.053542 
L 166.293088 59.849418 
L 168.970848 77.512597 
L 171.648609 87.814276 
L 179.68189 83.348742 
L 182.35965 95.043137 
L 185.03741 93.517781 
L 187.715171 92.54509 
L 190.392931 97.474864 
L 198.426212 125.837642 
L 201.103972 121.924772 
L 203.781733 97.62961 
L 206.459493 107.489157 
L 209.137254 104.902684 
L 217.170535 105.941695 
L 219.848295 142.59445 
L 222.526055 139.411099 
L 225.203816 200.535869 
L 227.881576 147.170518 
L 235.914857 168.083369 
L 241.270378 180.573602 
L 243.948138 187.846676 
L 246.625898 205.465643 
L 254.659179 226.997478 
L 257.33694 210.992294 
L 260.0147 189.769951 
L 262.69246 184.663325 
L 265.370221 181.656826 
L 273.403502 194.788151 
L 276.081262 208.538461 
L 278.759023 199.320006 
L 281.436783 175.555402 
L 292.147824 176.5502 
L 294.825585 195.981908 
L 297.503345 192.71013 
L 300.181105 185.613909 
L 302.858866 190.23419 
L 310.892147 190.145763 
L 313.569907 192.51117 
L 316.247667 172.482584 
L 318.925428 168.658141 
L 321.603188 144.650365 
L 329.636469 135.387696 
L 332.314229 143.125009 
L 334.99199 152.785596 
L 337.66975 152.166611 
L 340.347511 149.779098 
L 348.380792 152.918236 
L 351.058552 163.463088 
L 353.736312 163.949433 
L 367.125114 182.983223 
L 369.802874 205.819348 
L 372.480635 222.443517 
L 375.158395 214.507245 
L 377.836155 213.88826 
L 385.869436 230.711389 
L 388.547197 219.149633 
L 391.224957 218.818034 
L 393.902717 206.902572 
L 396.580478 220.431816 
L 404.613759 211.964985 
L 409.96928 215.104124 
L 412.64704 211.213361 
L 415.3248 229.163926 
L 423.358081 250.828402 
L 426.035842 273.97402 
L 428.713602 270.149577 
L 431.391362 277.710037 
L 434.069123 286.000014 
L 442.102404 259.494192 
L 444.780164 258.698354 
L 447.457924 264.247112 
L 450.135685 267.961023 
L 452.813445 229.362885 
L 460.846726 253.105382 
L 463.524487 266.678839 
L 466.202247 290.20027 
L 468.880007 277.908996 
L 471.557768 276.31732 
L 479.591049 252.552717 
L 484.946569 224.366792 
L 487.62433 209.0027 
L 490.30209 184.154873 
L 498.335371 192.64381 
L 501.013131 203.896073 
L 503.690892 180.418856 
L 506.368652 177.743956 
L 509.046412 181.236801 
L 517.079693 178.053449 
L 519.757454 181.524186 
L 522.435214 199.585285 
L 525.112974 207.808943 
L 527.790735 203.277088 
L 535.824016 218.132729 
L 538.501776 210.351203 
L 541.179537 219.834938 
L 543.857297 214.595672 
L 546.535057 219.834938 
L 554.568338 212.318691 
L 557.246099 211.964985 
L 559.923859 201.066428 
L 562.601619 193.9481 
L 565.27938 194.876577 
L 573.312661 198.435741 
L 575.990421 206.681506 
L 578.668181 182.80637 
L 581.345942 178.95982 
L 584.023702 185.392843 
L 592.056983 184.685431 
L 594.734744 181.877892 
L 597.412504 179.512485 
L 600.090264 174.07426 
L 602.768025 180.374643 
L 610.801306 175.002737 
L 613.479066 168.812887 
L 616.156826 166.049561 
L 618.834587 172.305731 
L 621.512347 167.773876 
L 629.545628 155.349963 
L 632.223388 165.695855 
L 634.901149 160.368163 
L 637.578909 148.806407 
L 640.256669 160.567122 
L 648.28995 166.779079 
L 650.967711 179.954617 
L 653.645471 178.097662 
L 656.323232 207.985796 
L 659.000992 195.075537 
L 667.034273 193.74914 
L 672.389794 200.027417 
L 675.067554 189.924697 
L 677.745314 181.30312 
L 688.456356 175.621722 
L 691.134116 162.291438 
L 693.811876 172.482584 
L 696.489637 181.922105 
L 704.522918 199.253686 
L 707.200678 199.651605 
L 709.878438 185.260203 
L 712.556199 193.483861 
L 715.233959 199.054726 
L 723.26724 205.310896 
L 725.945001 181.5684 
L 731.300521 187.161371 
L 733.978282 185.238097 
L 742.011563 178.606114 
L 744.689323 180.728349 
L 747.367083 176.815479 
L 752.722604 178.318728 
L 760.755885 178.539794 
L 763.433645 179.534592 
L 766.111406 197.308304 
L 768.789166 206.52676 
L 771.466926 208.383715 
L 779.500207 210.903868 
L 782.177968 198.89998 
L 784.855728 190.985815 
L 787.533489 187.205585 
L 790.211249 208.648994 
L 798.24453 223.106716 
L 800.92229 231.109307 
L 803.600051 240.836215 
L 806.277811 248.042969 
L 808.955571 257.968836 
L 816.988852 257.106678 
L 819.666613 236.724386 
L 825.022133 226.26796 
L 827.699894 221.647679 
L 835.733175 220.254963 
L 838.410935 233.297862 
L 841.088695 227.063798 
L 843.766456 228.964967 
L 846.444216 233.408395 
L 854.477497 219.746511 
L 857.155258 220.232857 
L 859.833018 211.346 
L 862.510778 220.520242 
L 865.188539 222.045598 
L 873.22182 210.218563 
L 875.89958 220.851842 
L 881.255101 217.977983 
L 883.932861 229.031286 
L 891.966142 228.81022 
L 894.643902 223.504634 
L 897.321663 230.888241 
L 899.999423 243.599541 
L 902.677183 247.291344 
L 910.710465 255.647642 
L 916.065985 244.329059 
L 918.743746 241.985758 
L 921.421506 244.107993 
L 929.454787 248.529314 
L 932.132547 231.35248 
L 934.810308 230.534536 
L 937.488068 218.641181 
L 940.165828 209.334299 
L 940.165828 209.334299 
" clip-path="url(#p55d037913b)" style="fill: none; stroke: #1f77b4; stroke-width: 1.5; stroke-linecap: square"/>
   </g>
   <g id="line2d_36">
    <path d="M 96.671319 125.444144 
L 104.7046 126.925287 
L 107.38236 125.66521 
L 110.060121 125.483936 
L 112.737881 123.808255 
L 115.415641 123.980687 
L 123.448922 122.411117 
L 126.126683 123.047788 
L 128.804443 123.326331 
L 131.482203 118.321395 
L 134.159964 111.897215 
L 142.193245 114.611906 
L 144.871005 110.707879 
L 150.226526 108.170041 
L 152.904286 107.515685 
L 160.937567 105.941695 
L 166.293088 90.595288 
L 168.970848 84.829884 
L 171.648609 82.526376 
L 179.68189 80.315715 
L 182.35965 80.713634 
L 185.03741 87.447307 
L 187.715171 90.453805 
L 190.392931 92.385923 
L 198.426212 100.883703 
L 201.103972 106.26003 
L 203.781733 107.082396 
L 206.459493 110.071209 
L 209.137254 111.556773 
L 217.170535 107.577584 
L 219.848295 111.711519 
L 222.526055 120.067817 
L 225.203816 138.677159 
L 227.881576 147.130726 
L 235.914857 159.559061 
L 241.270378 167.154891 
L 243.948138 176.842007 
L 246.625898 177.827962 
L 254.659179 193.793354 
L 257.33694 202.375139 
L 260.0147 204.214409 
L 262.69246 203.577738 
L 265.370221 198.815975 
L 273.403502 192.374109 
L 276.081262 191.883343 
L 278.759023 193.793354 
L 281.436783 191.971769 
L 292.147824 190.950444 
L 294.825585 191.189195 
L 297.503345 188.023529 
L 300.181105 185.28231 
L 302.858866 188.218067 
L 310.892147 190.93718 
L 313.569907 190.243032 
L 316.247667 186.197523 
L 318.925428 182.80637 
L 321.603188 173.689605 
L 329.636469 162.737991 
L 332.314229 152.860759 
L 334.99199 148.921361 
L 337.66975 145.623056 
L 340.347511 146.648802 
L 348.380792 150.15491 
L 351.058552 154.222526 
L 353.736312 156.455293 
L 367.125114 162.618616 
L 369.802874 173.826666 
L 372.480635 187.731722 
L 377.836155 207.928319 
L 385.869436 217.473952 
L 388.547197 220.140009 
L 391.224957 219.414912 
L 393.902717 217.893977 
L 396.580478 219.202689 
L 404.613759 215.453408 
L 409.96928 214.644306 
L 412.64704 213.123371 
L 415.3248 217.575642 
L 423.358081 223.654959 
L 426.035842 236.056766 
L 428.713602 247.065857 
L 431.391362 260.365192 
L 434.069123 271.73241 
L 442.102404 273.465568 
L 444.780164 270.410435 
L 447.457924 269.229942 
L 450.135685 267.280139 
L 452.813445 255.952713 
L 460.846726 254.674951 
L 463.524487 256.271048 
L 466.202247 261.46168 
L 468.880007 263.451275 
L 471.557768 272.842162 
L 479.591049 272.731628 
L 482.268809 267.094444 
L 484.946569 253.927748 
L 487.62433 240.146489 
L 490.30209 221.713999 
L 498.335371 209.732218 
L 501.013131 202.81285 
L 503.690892 194.023262 
L 506.368652 187.771514 
L 509.046412 187.187899 
L 517.079693 184.269827 
L 519.757454 179.79545 
L 522.435214 183.628735 
L 525.112974 189.641733 
L 527.790735 194.04979 
L 535.824016 202.065646 
L 538.501776 207.83105 
L 541.179537 211.88098 
L 543.857297 213.238326 
L 546.535057 216.549896 
L 554.568338 215.387088 
L 557.246099 215.709845 
L 559.923859 211.956143 
L 562.601619 207.826628 
L 565.27938 202.834956 
L 573.312661 200.058366 
L 575.990421 199.00167 
L 578.668181 195.349659 
L 581.345942 192.352003 
L 584.023702 190.455256 
L 592.056983 187.705194 
L 594.734744 182.744471 
L 597.412504 182.085694 
L 602.768025 180.104942 
L 610.801306 178.168403 
L 616.156826 172.862818 
L 618.834587 172.509112 
L 621.512347 169.988959 
L 629.545628 166.058404 
L 632.223388 165.434997 
L 634.901149 164.298718 
L 637.578909 159.598853 
L 640.256669 158.157502 
L 648.28995 160.443325 
L 650.967711 163.295078 
L 653.645471 166.840978 
L 656.323232 178.676855 
L 659.000992 185.578538 
L 667.034273 190.972551 
L 672.389794 194.987111 
L 675.067554 197.352518 
L 677.745314 192.015982 
L 688.456356 188.125219 
L 691.134116 181.833679 
L 693.811876 176.324712 
L 696.489637 174.724194 
L 704.522918 178.314307 
L 709.878438 187.714037 
L 712.556199 191.914292 
L 715.233959 195.340816 
L 723.26724 196.552258 
L 725.945001 192.935617 
L 731.300521 193.315851 
L 733.978282 191.666698 
L 742.011563 187.576976 
L 744.689323 182.660466 
L 747.367083 181.709882 
L 750.044844 179.791028 
L 752.722604 178.407155 
L 760.755885 178.393891 
L 763.433645 178.155139 
L 766.111406 182.253704 
L 771.466926 194.058633 
L 779.500207 200.531448 
L 782.177968 204.404525 
L 784.855728 203.140027 
L 787.533489 199.275792 
L 790.211249 199.328848 
L 798.24453 201.769418 
L 800.92229 208.211283 
L 803.600051 218.181363 
L 806.277811 230.34884 
L 808.955571 240.212809 
L 816.988852 247.012801 
L 819.666613 248.135817 
L 825.022133 245.222166 
L 827.699894 239.943108 
L 835.733175 232.400333 
L 838.410935 227.63857 
L 841.088695 225.706453 
L 843.766456 226.245854 
L 846.444216 228.597997 
L 854.477497 228.496306 
L 857.155258 225.883305 
L 859.833018 222.739746 
L 862.510778 221.050801 
L 865.188539 218.778242 
L 873.22182 216.872652 
L 875.89958 216.996449 
L 881.255101 218.322846 
L 883.932861 220.025054 
L 891.966142 221.377979 
L 894.643902 224.035193 
L 897.321663 226.042473 
L 899.999423 231.166785 
L 902.677183 234.818796 
L 910.710465 240.186281 
L 918.743746 246.570669 
L 929.454787 246.919953 
L 932.132547 242.060921 
L 934.810308 239.302016 
L 937.488068 234.633101 
L 940.165828 227.678362 
L 940.165828 227.678362 
" clip-path="url(#p55d037913b)" style="fill: none; stroke: #ff7f0e; stroke-width: 1.5; stroke-linecap: square"/>
   </g>
   <g id="patch_3">
    <path d="M 43.25 301.717812 
L 43.25 48.331875 
" style="fill: none; stroke: #000000; stroke-width: 0.8; stroke-linejoin: miter; stroke-linecap: square"/>
   </g>
   <g id="patch_4">
    <path d="M 982.876106 301.717812 
L 982.876106 48.331875 
" style="fill: none; stroke: #000000; stroke-width: 0.8; stroke-linejoin: miter; stroke-linecap: square"/>
   </g>
   <g id="patch_5">
    <path d="M 43.25 301.717812 
L 982.876106 301.717812 
" style="fill: none; stroke: #000000; stroke-width: 0.8; stroke-linejoin: miter; stroke-linecap: square"/>
   </g>
   <g id="patch_6">
    <path d="M 43.25 48.331875 
L 982.876106 48.331875 
" style="fill: none; stroke: #000000; stroke-width: 0.8; stroke-linejoin: miter; stroke-linecap: square"/>
   </g>
   <g id="text_6">
    <!-- Closing Price -->
    <g transform="translate(474.587115 42.331875)scale(0.12 -0.12)">
     <defs>
      <path id="DejaVuSans-43" d="M 4122 4306 
L 4122 3641 
Q 3803 3938 3442 4084 
Q 3081 4231 2675 4231 
Q 1875 4231 1450 3742 
Q 1025 3253 1025 2328 
Q 1025 1406 1450 917 
Q 1875 428 2675 428 
Q 3081 428 3442 575 
Q 3803 722 4122 1019 
L 4122 359 
Q 3791 134 3420 21 
Q 3050 -91 2638 -91 
Q 1578 -91 968 557 
Q 359 1206 359 2328 
Q 359 3453 968 4101 
Q 1578 4750 2638 4750 
Q 3056 4750 3426 4639 
Q 3797 4528 4122 4306 
z
" transform="scale(0.015625)"/>
      <path id="DejaVuSans-6c" d="M 603 4863 
L 1178 4863 
L 1178 0 
L 603 0 
L 603 4863 
z
" transform="scale(0.015625)"/>
      <path id="DejaVuSans-6f" d="M 1959 3097 
Q 1497 3097 1228 2736 
Q 959 2375 959 1747 
Q 959 1119 1226 758 
Q 1494 397 1959 397 
Q 2419 397 2687 759 
Q 2956 1122 2956 1747 
Q 2956 2369 2687 2733 
Q 2419 3097 1959 3097 
z
M 1959 3584 
Q 2709 3584 3137 3096 
Q 3566 2609 3566 1747 
Q 3566 888 3137 398 
Q 2709 -91 1959 -91 
Q 1206 -91 779 398 
Q 353 888 353 1747 
Q 353 2609 779 3096 
Q 1206 3584 1959 3584 
z
" transform="scale(0.015625)"/>
      <path id="DejaVuSans-73" d="M 2834 3397 
L 2834 2853 
Q 2591 2978 2328 3040 
Q 2066 3103 1784 3103 
Q 1356 3103 1142 2972 
Q 928 2841 928 2578 
Q 928 2378 1081 2264 
Q 1234 2150 1697 2047 
L 1894 2003 
Q 2506 1872 2764 1633 
Q 3022 1394 3022 966 
Q 3022 478 2636 193 
Q 2250 -91 1575 -91 
Q 1294 -91 989 -36 
Q 684 19 347 128 
L 347 722 
Q 666 556 975 473 
Q 1284 391 1588 391 
Q 1994 391 2212 530 
Q 2431 669 2431 922 
Q 2431 1156 2273 1281 
Q 2116 1406 1581 1522 
L 1381 1569 
Q 847 1681 609 1914 
Q 372 2147 372 2553 
Q 372 3047 722 3315 
Q 1072 3584 1716 3584 
Q 2034 3584 2315 3537 
Q 2597 3491 2834 3397 
z
" transform="scale(0.015625)"/>
      <path id="DejaVuSans-69" d="M 603 3500 
L 1178 3500 
L 1178 0 
L 603 0 
L 603 3500 
z
M 603 4863 
L 1178 4863 
L 1178 4134 
L 603 4134 
L 603 4863 
z
" transform="scale(0.015625)"/>
      <path id="DejaVuSans-6e" d="M 3513 2113 
L 3513 0 
L 2938 0 
L 2938 2094 
Q 2938 2591 2744 2837 
Q 2550 3084 2163 3084 
Q 1697 3084 1428 2787 
Q 1159 2491 1159 1978 
L 1159 0 
L 581 0 
L 581 3500 
L 1159 3500 
L 1159 2956 
Q 1366 3272 1645 3428 
Q 1925 3584 2291 3584 
Q 2894 3584 3203 3211 
Q 3513 2838 3513 2113 
z
" transform="scale(0.015625)"/>
      <path id="DejaVuSans-67" d="M 2906 1791 
Q 2906 2416 2648 2759 
Q 2391 3103 1925 3103 
Q 1463 3103 1205 2759 
Q 947 2416 947 1791 
Q 947 1169 1205 825 
Q 1463 481 1925 481 
Q 2391 481 2648 825 
Q 2906 1169 2906 1791 
z
M 3481 434 
Q 3481 -459 3084 -895 
Q 2688 -1331 1869 -1331 
Q 1566 -1331 1297 -1286 
Q 1028 -1241 775 -1147 
L 775 -588 
Q 1028 -725 1275 -790 
Q 1522 -856 1778 -856 
Q 2344 -856 2625 -561 
Q 2906 -266 2906 331 
L 2906 616 
Q 2728 306 2450 153 
Q 2172 0 1784 0 
Q 1141 0 747 490 
Q 353 981 353 1791 
Q 353 2603 747 3093 
Q 1141 3584 1784 3584 
Q 2172 3584 2450 3431 
Q 2728 3278 2906 2969 
L 2906 3500 
L 3481 3500 
L 3481 434 
z
" transform="scale(0.015625)"/>
      <path id="DejaVuSans-20" transform="scale(0.015625)"/>
      <path id="DejaVuSans-50" d="M 1259 4147 
L 1259 2394 
L 2053 2394 
Q 2494 2394 2734 2622 
Q 2975 2850 2975 3272 
Q 2975 3691 2734 3919 
Q 2494 4147 2053 4147 
L 1259 4147 
z
M 628 4666 
L 2053 4666 
Q 2838 4666 3239 4311 
Q 3641 3956 3641 3272 
Q 3641 2581 3239 2228 
Q 2838 1875 2053 1875 
L 1259 1875 
L 1259 0 
L 628 0 
L 628 4666 
z
" transform="scale(0.015625)"/>
      <path id="DejaVuSans-72" d="M 2631 2963 
Q 2534 3019 2420 3045 
Q 2306 3072 2169 3072 
Q 1681 3072 1420 2755 
Q 1159 2438 1159 1844 
L 1159 0 
L 581 0 
L 581 3500 
L 1159 3500 
L 1159 2956 
Q 1341 3275 1631 3429 
Q 1922 3584 2338 3584 
Q 2397 3584 2469 3576 
Q 2541 3569 2628 3553 
L 2631 2963 
z
" transform="scale(0.015625)"/>
      <path id="DejaVuSans-63" d="M 3122 3366 
L 3122 2828 
Q 2878 2963 2633 3030 
Q 2388 3097 2138 3097 
Q 1578 3097 1268 2742 
Q 959 2388 959 1747 
Q 959 1106 1268 751 
Q 1578 397 2138 397 
Q 2388 397 2633 464 
Q 2878 531 3122 666 
L 3122 134 
Q 2881 22 2623 -34 
Q 2366 -91 2075 -91 
Q 1284 -91 818 406 
Q 353 903 353 1747 
Q 353 2603 823 3093 
Q 1294 3584 2113 3584 
Q 2378 3584 2631 3529 
Q 2884 3475 3122 3366 
z
" transform="scale(0.015625)"/>
      <path id="DejaVuSans-65" d="M 3597 1894 
L 3597 1613 
L 953 1613 
Q 991 1019 1311 708 
Q 1631 397 2203 397 
Q 2534 397 2845 478 
Q 3156 559 3463 722 
L 3463 178 
Q 3153 47 2828 -22 
Q 2503 -91 2169 -91 
Q 1331 -91 842 396 
Q 353 884 353 1716 
Q 353 2575 817 3079 
Q 1281 3584 2069 3584 
Q 2775 3584 3186 3129 
Q 3597 2675 3597 1894 
z
M 3022 2063 
Q 3016 2534 2758 2815 
Q 2500 3097 2075 3097 
Q 1594 3097 1305 2825 
Q 1016 2553 972 2059 
L 3022 2063 
z
" transform="scale(0.015625)"/>
     </defs>
     <use xlink:href="#DejaVuSans-43"/>
     <use xlink:href="#DejaVuSans-6c" x="69.824219"/>
     <use xlink:href="#DejaVuSans-6f" x="97.607422"/>
     <use xlink:href="#DejaVuSans-73" x="158.789062"/>
     <use xlink:href="#DejaVuSans-69" x="210.888672"/>
     <use xlink:href="#DejaVuSans-6e" x="238.671875"/>
     <use xlink:href="#DejaVuSans-67" x="302.050781"/>
     <use xlink:href="#DejaVuSans-20" x="365.527344"/>
     <use xlink:href="#DejaVuSans-50" x="397.314453"/>
     <use xlink:href="#DejaVuSans-72" x="455.867188"/>
     <use xlink:href="#DejaVuSans-69" x="496.980469"/>
     <use xlink:href="#DejaVuSans-63" x="524.763672"/>
     <use xlink:href="#DejaVuSans-65" x="579.744141"/>
    </g>
   </g>
   <g id="legend_1">
    <g id="patch_7">
     <path d="M 911.144856 85.688125 
L 975.876106 85.688125 
Q 977.876106 85.688125 977.876106 83.688125 
L 977.876106 55.331875 
Q 977.876106 53.331875 975.876106 53.331875 
L 911.144856 53.331875 
Q 909.144856 53.331875 909.144856 55.331875 
L 909.144856 83.688125 
Q 909.144856 85.688125 911.144856 85.688125 
z
" style="fill: #ffffff; opacity: 0.8; stroke: #cccccc; stroke-linejoin: miter"/>
    </g>
    <g id="line2d_37">
     <path d="M 913.144856 61.430312 
L 923.144856 61.430312 
L 933.144856 61.430312 
" style="fill: none; stroke: #1f77b4; stroke-width: 1.5; stroke-linecap: square"/>
    </g>
    <g id="text_7">
     <!-- CLOSE -->
     <g transform="translate(941.144856 64.930312)scale(0.1 -0.1)">
      <defs>
       <path id="DejaVuSans-4c" d="M 628 4666 
L 1259 4666 
L 1259 531 
L 3531 531 
L 3531 0 
L 628 0 
L 628 4666 
z
" transform="scale(0.015625)"/>
       <path id="DejaVuSans-4f" d="M 2522 4238 
Q 1834 4238 1429 3725 
Q 1025 3213 1025 2328 
Q 1025 1447 1429 934 
Q 1834 422 2522 422 
Q 3209 422 3611 934 
Q 4013 1447 4013 2328 
Q 4013 3213 3611 3725 
Q 3209 4238 2522 4238 
z
M 2522 4750 
Q 3503 4750 4090 4092 
Q 4678 3434 4678 2328 
Q 4678 1225 4090 567 
Q 3503 -91 2522 -91 
Q 1538 -91 948 565 
Q 359 1222 359 2328 
Q 359 3434 948 4092 
Q 1538 4750 2522 4750 
z
" transform="scale(0.015625)"/>
       <path id="DejaVuSans-53" d="M 3425 4513 
L 3425 3897 
Q 3066 4069 2747 4153 
Q 2428 4238 2131 4238 
Q 1616 4238 1336 4038 
Q 1056 3838 1056 3469 
Q 1056 3159 1242 3001 
Q 1428 2844 1947 2747 
L 2328 2669 
Q 3034 2534 3370 2195 
Q 3706 1856 3706 1288 
Q 3706 609 3251 259 
Q 2797 -91 1919 -91 
Q 1588 -91 1214 -16 
Q 841 59 441 206 
L 441 856 
Q 825 641 1194 531 
Q 1563 422 1919 422 
Q 2459 422 2753 634 
Q 3047 847 3047 1241 
Q 3047 1584 2836 1778 
Q 2625 1972 2144 2069 
L 1759 2144 
Q 1053 2284 737 2584 
Q 422 2884 422 3419 
Q 422 4038 858 4394 
Q 1294 4750 2059 4750 
Q 2388 4750 2728 4690 
Q 3069 4631 3425 4513 
z
" transform="scale(0.015625)"/>
       <path id="DejaVuSans-45" d="M 628 4666 
L 3578 4666 
L 3578 4134 
L 1259 4134 
L 1259 2753 
L 3481 2753 
L 3481 2222 
L 1259 2222 
L 1259 531 
L 3634 531 
L 3634 0 
L 628 0 
L 628 4666 
z
" transform="scale(0.015625)"/>
      </defs>
      <use xlink:href="#DejaVuSans-43"/>
      <use xlink:href="#DejaVuSans-4c" x="69.824219"/>
      <use xlink:href="#DejaVuSans-4f" x="121.912109"/>
      <use xlink:href="#DejaVuSans-53" x="200.623047"/>
      <use xlink:href="#DejaVuSans-45" x="264.099609"/>
     </g>
    </g>
    <g id="line2d_38">
     <path d="M 913.144856 76.108437 
L 923.144856 76.108437 
L 933.144856 76.108437 
" style="fill: none; stroke: #ff7f0e; stroke-width: 1.5; stroke-linecap: square"/>
    </g>
    <g id="text_8">
     <!-- SMA5 -->
     <g transform="translate(941.144856 79.608437)scale(0.1 -0.1)">
      <defs>
       <path id="DejaVuSans-4d" d="M 628 4666 
L 1569 4666 
L 2759 1491 
L 3956 4666 
L 4897 4666 
L 4897 0 
L 4281 0 
L 4281 4097 
L 3078 897 
L 2444 897 
L 1241 4097 
L 1241 0 
L 628 0 
L 628 4666 
z
" transform="scale(0.015625)"/>
       <path id="DejaVuSans-41" d="M 2188 4044 
L 1331 1722 
L 3047 1722 
L 2188 4044 
z
M 1831 4666 
L 2547 4666 
L 4325 0 
L 3669 0 
L 3244 1197 
L 1141 1197 
L 716 0 
L 50 0 
L 1831 4666 
z
" transform="scale(0.015625)"/>
       <path id="DejaVuSans-35" d="M 691 4666 
L 3169 4666 
L 3169 4134 
L 1269 4134 
L 1269 2991 
Q 1406 3038 1543 3061 
Q 1681 3084 1819 3084 
Q 2600 3084 3056 2656 
Q 3513 2228 3513 1497 
Q 3513 744 3044 326 
Q 2575 -91 1722 -91 
Q 1428 -91 1123 -41 
Q 819 9 494 109 
L 494 744 
Q 775 591 1075 516 
Q 1375 441 1709 441 
Q 2250 441 2565 725 
Q 2881 1009 2881 1497 
Q 2881 1984 2565 2268 
Q 2250 2553 1709 2553 
Q 1456 2553 1204 2497 
Q 953 2441 691 2322 
L 691 4666 
z
" transform="scale(0.015625)"/>
      </defs>
      <use xlink:href="#DejaVuSans-53"/>
      <use xlink:href="#DejaVuSans-4d" x="63.476562"/>
      <use xlink:href="#DejaVuSans-41" x="149.755859"/>
      <use xlink:href="#DejaVuSans-35" x="218.164062"/>
     </g>
    </g>
   </g>
  </g>
  <g id="axes_2">
   <g id="patch_8">
    <path d="M 43.25 584.521875 
L 982.876106 584.521875 
L 982.876106 331.135938 
L 43.25 331.135938 
z
" style="fill: #ffffff"/>
   </g>
   <g id="matplotlib.axis_3">
    <g id="xtick_13">
     <g id="line2d_39">
      <path d="M 80.604757 584.521875 
L 80.604757 331.135938 
" clip-path="url(#p039589df94)" style="fill: none; stroke-dasharray: 2.96,1.28; stroke-dashoffset: 0; stroke: #b0b0b0; stroke-width: 0.8"/>
     </g>
     <g id="line2d_40">
      <g>
       <use xlink:href="#mc7bd3ee0a8" x="80.604757" y="584.521875" style="stroke: #000000; stroke-width: 0.8"/>
      </g>
     </g>
     <g id="text_9">
      <!-- 2022-01 -->
      <g transform="translate(59.713351 599.120312)scale(0.1 -0.1)">
       <defs>
        <path id="DejaVuSans-2d" d="M 313 2009 
L 1997 2009 
L 1997 1497 
L 313 1497 
L 313 2009 
z
" transform="scale(0.015625)"/>
       </defs>
       <use xlink:href="#DejaVuSans-32"/>
       <use xlink:href="#DejaVuSans-30" x="63.623047"/>
       <use xlink:href="#DejaVuSans-32" x="127.246094"/>
       <use xlink:href="#DejaVuSans-32" x="190.869141"/>
       <use xlink:href="#DejaVuSans-2d" x="254.492188"/>
       <use xlink:href="#DejaVuSans-30" x="290.576172"/>
       <use xlink:href="#DejaVuSans-31" x="354.199219"/>
      </g>
     </g>
    </g>
    <g id="xtick_14">
     <g id="line2d_41">
      <path d="M 163.615328 584.521875 
L 163.615328 331.135938 
" clip-path="url(#p039589df94)" style="fill: none; stroke-dasharray: 2.96,1.28; stroke-dashoffset: 0; stroke: #b0b0b0; stroke-width: 0.8"/>
     </g>
     <g id="line2d_42">
      <g>
       <use xlink:href="#mc7bd3ee0a8" x="163.615328" y="584.521875" style="stroke: #000000; stroke-width: 0.8"/>
      </g>
     </g>
     <g id="text_10">
      <!-- 2022-02 -->
      <g transform="translate(142.723921 599.120312)scale(0.1 -0.1)">
       <use xlink:href="#DejaVuSans-32"/>
       <use xlink:href="#DejaVuSans-30" x="63.623047"/>
       <use xlink:href="#DejaVuSans-32" x="127.246094"/>
       <use xlink:href="#DejaVuSans-32" x="190.869141"/>
       <use xlink:href="#DejaVuSans-2d" x="254.492188"/>
       <use xlink:href="#DejaVuSans-30" x="290.576172"/>
       <use xlink:href="#DejaVuSans-32" x="354.199219"/>
      </g>
     </g>
    </g>
    <g id="xtick_15">
     <g id="line2d_43">
      <path d="M 238.592617 584.521875 
L 238.592617 331.135938 
" clip-path="url(#p039589df94)" style="fill: none; stroke-dasharray: 2.96,1.28; stroke-dashoffset: 0; stroke: #b0b0b0; stroke-width: 0.8"/>
     </g>
     <g id="line2d_44">
      <g>
       <use xlink:href="#mc7bd3ee0a8" x="238.592617" y="584.521875" style="stroke: #000000; stroke-width: 0.8"/>
      </g>
     </g>
     <g id="text_11">
      <!-- 2022-03 -->
      <g transform="translate(217.701211 599.120312)scale(0.1 -0.1)">
       <use xlink:href="#DejaVuSans-32"/>
       <use xlink:href="#DejaVuSans-30" x="63.623047"/>
       <use xlink:href="#DejaVuSans-32" x="127.246094"/>
       <use xlink:href="#DejaVuSans-32" x="190.869141"/>
       <use xlink:href="#DejaVuSans-2d" x="254.492188"/>
       <use xlink:href="#DejaVuSans-30" x="290.576172"/>
       <use xlink:href="#DejaVuSans-33" x="354.199219"/>
      </g>
     </g>
    </g>
    <g id="xtick_16">
     <g id="line2d_45">
      <path d="M 321.603188 584.521875 
L 321.603188 331.135938 
" clip-path="url(#p039589df94)" style="fill: none; stroke-dasharray: 2.96,1.28; stroke-dashoffset: 0; stroke: #b0b0b0; stroke-width: 0.8"/>
     </g>
     <g id="line2d_46">
      <g>
       <use xlink:href="#mc7bd3ee0a8" x="321.603188" y="584.521875" style="stroke: #000000; stroke-width: 0.8"/>
      </g>
     </g>
     <g id="text_12">
      <!-- 2022-04 -->
      <g transform="translate(300.711782 599.120312)scale(0.1 -0.1)">
       <defs>
        <path id="DejaVuSans-34" d="M 2419 4116 
L 825 1625 
L 2419 1625 
L 2419 4116 
z
M 2253 4666 
L 3047 4666 
L 3047 1625 
L 3713 1625 
L 3713 1100 
L 3047 1100 
L 3047 0 
L 2419 0 
L 2419 1100 
L 313 1100 
L 313 1709 
L 2253 4666 
z
" transform="scale(0.015625)"/>
       </defs>
       <use xlink:href="#DejaVuSans-32"/>
       <use xlink:href="#DejaVuSans-30" x="63.623047"/>
       <use xlink:href="#DejaVuSans-32" x="127.246094"/>
       <use xlink:href="#DejaVuSans-32" x="190.869141"/>
       <use xlink:href="#DejaVuSans-2d" x="254.492188"/>
       <use xlink:href="#DejaVuSans-30" x="290.576172"/>
       <use xlink:href="#DejaVuSans-34" x="354.199219"/>
      </g>
     </g>
    </g>
    <g id="xtick_17">
     <g id="line2d_47">
      <path d="M 401.935999 584.521875 
L 401.935999 331.135938 
" clip-path="url(#p039589df94)" style="fill: none; stroke-dasharray: 2.96,1.28; stroke-dashoffset: 0; stroke: #b0b0b0; stroke-width: 0.8"/>
     </g>
     <g id="line2d_48">
      <g>
       <use xlink:href="#mc7bd3ee0a8" x="401.935999" y="584.521875" style="stroke: #000000; stroke-width: 0.8"/>
      </g>
     </g>
     <g id="text_13">
      <!-- 2022-05 -->
      <g transform="translate(381.044592 599.120312)scale(0.1 -0.1)">
       <use xlink:href="#DejaVuSans-32"/>
       <use xlink:href="#DejaVuSans-30" x="63.623047"/>
       <use xlink:href="#DejaVuSans-32" x="127.246094"/>
       <use xlink:href="#DejaVuSans-32" x="190.869141"/>
       <use xlink:href="#DejaVuSans-2d" x="254.492188"/>
       <use xlink:href="#DejaVuSans-30" x="290.576172"/>
       <use xlink:href="#DejaVuSans-35" x="354.199219"/>
      </g>
     </g>
    </g>
    <g id="xtick_18">
     <g id="line2d_49">
      <path d="M 484.946569 584.521875 
L 484.946569 331.135938 
" clip-path="url(#p039589df94)" style="fill: none; stroke-dasharray: 2.96,1.28; stroke-dashoffset: 0; stroke: #b0b0b0; stroke-width: 0.8"/>
     </g>
     <g id="line2d_50">
      <g>
       <use xlink:href="#mc7bd3ee0a8" x="484.946569" y="584.521875" style="stroke: #000000; stroke-width: 0.8"/>
      </g>
     </g>
     <g id="text_14">
      <!-- 2022-06 -->
      <g transform="translate(464.055163 599.120312)scale(0.1 -0.1)">
       <defs>
        <path id="DejaVuSans-36" d="M 2113 2584 
Q 1688 2584 1439 2293 
Q 1191 2003 1191 1497 
Q 1191 994 1439 701 
Q 1688 409 2113 409 
Q 2538 409 2786 701 
Q 3034 994 3034 1497 
Q 3034 2003 2786 2293 
Q 2538 2584 2113 2584 
z
M 3366 4563 
L 3366 3988 
Q 3128 4100 2886 4159 
Q 2644 4219 2406 4219 
Q 1781 4219 1451 3797 
Q 1122 3375 1075 2522 
Q 1259 2794 1537 2939 
Q 1816 3084 2150 3084 
Q 2853 3084 3261 2657 
Q 3669 2231 3669 1497 
Q 3669 778 3244 343 
Q 2819 -91 2113 -91 
Q 1303 -91 875 529 
Q 447 1150 447 2328 
Q 447 3434 972 4092 
Q 1497 4750 2381 4750 
Q 2619 4750 2861 4703 
Q 3103 4656 3366 4563 
z
" transform="scale(0.015625)"/>
       </defs>
       <use xlink:href="#DejaVuSans-32"/>
       <use xlink:href="#DejaVuSans-30" x="63.623047"/>
       <use xlink:href="#DejaVuSans-32" x="127.246094"/>
       <use xlink:href="#DejaVuSans-32" x="190.869141"/>
       <use xlink:href="#DejaVuSans-2d" x="254.492188"/>
       <use xlink:href="#DejaVuSans-30" x="290.576172"/>
       <use xlink:href="#DejaVuSans-36" x="354.199219"/>
      </g>
     </g>
    </g>
    <g id="xtick_19">
     <g id="line2d_51">
      <path d="M 565.27938 584.521875 
L 565.27938 331.135938 
" clip-path="url(#p039589df94)" style="fill: none; stroke-dasharray: 2.96,1.28; stroke-dashoffset: 0; stroke: #b0b0b0; stroke-width: 0.8"/>
     </g>
     <g id="line2d_52">
      <g>
       <use xlink:href="#mc7bd3ee0a8" x="565.27938" y="584.521875" style="stroke: #000000; stroke-width: 0.8"/>
      </g>
     </g>
     <g id="text_15">
      <!-- 2022-07 -->
      <g transform="translate(544.387973 599.120312)scale(0.1 -0.1)">
       <defs>
        <path id="DejaVuSans-37" d="M 525 4666 
L 3525 4666 
L 3525 4397 
L 1831 0 
L 1172 0 
L 2766 4134 
L 525 4134 
L 525 4666 
z
" transform="scale(0.015625)"/>
       </defs>
       <use xlink:href="#DejaVuSans-32"/>
       <use xlink:href="#DejaVuSans-30" x="63.623047"/>
       <use xlink:href="#DejaVuSans-32" x="127.246094"/>
       <use xlink:href="#DejaVuSans-32" x="190.869141"/>
       <use xlink:href="#DejaVuSans-2d" x="254.492188"/>
       <use xlink:href="#DejaVuSans-30" x="290.576172"/>
       <use xlink:href="#DejaVuSans-37" x="354.199219"/>
      </g>
     </g>
    </g>
    <g id="xtick_20">
     <g id="line2d_53">
      <path d="M 648.28995 584.521875 
L 648.28995 331.135938 
" clip-path="url(#p039589df94)" style="fill: none; stroke-dasharray: 2.96,1.28; stroke-dashoffset: 0; stroke: #b0b0b0; stroke-width: 0.8"/>
     </g>
     <g id="line2d_54">
      <g>
       <use xlink:href="#mc7bd3ee0a8" x="648.28995" y="584.521875" style="stroke: #000000; stroke-width: 0.8"/>
      </g>
     </g>
     <g id="text_16">
      <!-- 2022-08 -->
      <g transform="translate(627.398544 599.120312)scale(0.1 -0.1)">
       <defs>
        <path id="DejaVuSans-38" d="M 2034 2216 
Q 1584 2216 1326 1975 
Q 1069 1734 1069 1313 
Q 1069 891 1326 650 
Q 1584 409 2034 409 
Q 2484 409 2743 651 
Q 3003 894 3003 1313 
Q 3003 1734 2745 1975 
Q 2488 2216 2034 2216 
z
M 1403 2484 
Q 997 2584 770 2862 
Q 544 3141 544 3541 
Q 544 4100 942 4425 
Q 1341 4750 2034 4750 
Q 2731 4750 3128 4425 
Q 3525 4100 3525 3541 
Q 3525 3141 3298 2862 
Q 3072 2584 2669 2484 
Q 3125 2378 3379 2068 
Q 3634 1759 3634 1313 
Q 3634 634 3220 271 
Q 2806 -91 2034 -91 
Q 1263 -91 848 271 
Q 434 634 434 1313 
Q 434 1759 690 2068 
Q 947 2378 1403 2484 
z
M 1172 3481 
Q 1172 3119 1398 2916 
Q 1625 2713 2034 2713 
Q 2441 2713 2670 2916 
Q 2900 3119 2900 3481 
Q 2900 3844 2670 4047 
Q 2441 4250 2034 4250 
Q 1625 4250 1398 4047 
Q 1172 3844 1172 3481 
z
" transform="scale(0.015625)"/>
       </defs>
       <use xlink:href="#DejaVuSans-32"/>
       <use xlink:href="#DejaVuSans-30" x="63.623047"/>
       <use xlink:href="#DejaVuSans-32" x="127.246094"/>
       <use xlink:href="#DejaVuSans-32" x="190.869141"/>
       <use xlink:href="#DejaVuSans-2d" x="254.492188"/>
       <use xlink:href="#DejaVuSans-30" x="290.576172"/>
       <use xlink:href="#DejaVuSans-38" x="354.199219"/>
      </g>
     </g>
    </g>
    <g id="xtick_21">
     <g id="line2d_55">
      <path d="M 731.300521 584.521875 
L 731.300521 331.135938 
" clip-path="url(#p039589df94)" style="fill: none; stroke-dasharray: 2.96,1.28; stroke-dashoffset: 0; stroke: #b0b0b0; stroke-width: 0.8"/>
     </g>
     <g id="line2d_56">
      <g>
       <use xlink:href="#mc7bd3ee0a8" x="731.300521" y="584.521875" style="stroke: #000000; stroke-width: 0.8"/>
      </g>
     </g>
     <g id="text_17">
      <!-- 2022-09 -->
      <g transform="translate(710.409115 599.120312)scale(0.1 -0.1)">
       <use xlink:href="#DejaVuSans-32"/>
       <use xlink:href="#DejaVuSans-30" x="63.623047"/>
       <use xlink:href="#DejaVuSans-32" x="127.246094"/>
       <use xlink:href="#DejaVuSans-32" x="190.869141"/>
       <use xlink:href="#DejaVuSans-2d" x="254.492188"/>
       <use xlink:href="#DejaVuSans-30" x="290.576172"/>
       <use xlink:href="#DejaVuSans-39" x="354.199219"/>
      </g>
     </g>
    </g>
    <g id="xtick_22">
     <g id="line2d_57">
      <path d="M 811.633332 584.521875 
L 811.633332 331.135938 
" clip-path="url(#p039589df94)" style="fill: none; stroke-dasharray: 2.96,1.28; stroke-dashoffset: 0; stroke: #b0b0b0; stroke-width: 0.8"/>
     </g>
     <g id="line2d_58">
      <g>
       <use xlink:href="#mc7bd3ee0a8" x="811.633332" y="584.521875" style="stroke: #000000; stroke-width: 0.8"/>
      </g>
     </g>
     <g id="text_18">
      <!-- 2022-10 -->
      <g transform="translate(790.741925 599.120312)scale(0.1 -0.1)">
       <use xlink:href="#DejaVuSans-32"/>
       <use xlink:href="#DejaVuSans-30" x="63.623047"/>
       <use xlink:href="#DejaVuSans-32" x="127.246094"/>
       <use xlink:href="#DejaVuSans-32" x="190.869141"/>
       <use xlink:href="#DejaVuSans-2d" x="254.492188"/>
       <use xlink:href="#DejaVuSans-31" x="290.576172"/>
       <use xlink:href="#DejaVuSans-30" x="354.199219"/>
      </g>
     </g>
    </g>
    <g id="xtick_23">
     <g id="line2d_59">
      <path d="M 894.643902 584.521875 
L 894.643902 331.135938 
" clip-path="url(#p039589df94)" style="fill: none; stroke-dasharray: 2.96,1.28; stroke-dashoffset: 0; stroke: #b0b0b0; stroke-width: 0.8"/>
     </g>
     <g id="line2d_60">
      <g>
       <use xlink:href="#mc7bd3ee0a8" x="894.643902" y="584.521875" style="stroke: #000000; stroke-width: 0.8"/>
      </g>
     </g>
     <g id="text_19">
      <!-- 2022-11 -->
      <g transform="translate(873.752496 599.120312)scale(0.1 -0.1)">
       <use xlink:href="#DejaVuSans-32"/>
       <use xlink:href="#DejaVuSans-30" x="63.623047"/>
       <use xlink:href="#DejaVuSans-32" x="127.246094"/>
       <use xlink:href="#DejaVuSans-32" x="190.869141"/>
       <use xlink:href="#DejaVuSans-2d" x="254.492188"/>
       <use xlink:href="#DejaVuSans-31" x="290.576172"/>
       <use xlink:href="#DejaVuSans-31" x="354.199219"/>
      </g>
     </g>
    </g>
    <g id="xtick_24">
     <g id="line2d_61">
      <path d="M 974.976713 584.521875 
L 974.976713 331.135938 
" clip-path="url(#p039589df94)" style="fill: none; stroke-dasharray: 2.96,1.28; stroke-dashoffset: 0; stroke: #b0b0b0; stroke-width: 0.8"/>
     </g>
     <g id="line2d_62">
      <g>
       <use xlink:href="#mc7bd3ee0a8" x="974.976713" y="584.521875" style="stroke: #000000; stroke-width: 0.8"/>
      </g>
     </g>
     <g id="text_20">
      <!-- 2022-12 -->
      <g transform="translate(954.085307 599.120312)scale(0.1 -0.1)">
       <use xlink:href="#DejaVuSans-32"/>
       <use xlink:href="#DejaVuSans-30" x="63.623047"/>
       <use xlink:href="#DejaVuSans-32" x="127.246094"/>
       <use xlink:href="#DejaVuSans-32" x="190.869141"/>
       <use xlink:href="#DejaVuSans-2d" x="254.492188"/>
       <use xlink:href="#DejaVuSans-31" x="290.576172"/>
       <use xlink:href="#DejaVuSans-32" x="354.199219"/>
      </g>
     </g>
    </g>
   </g>
   <g id="matplotlib.axis_4">
    <g id="ytick_6">
     <g id="line2d_63">
      <path d="M 43.25 574.756948 
L 982.876106 574.756948 
" clip-path="url(#p039589df94)" style="fill: none; stroke-dasharray: 2.96,1.28; stroke-dashoffset: 0; stroke: #b0b0b0; stroke-width: 0.8"/>
     </g>
     <g id="line2d_64">
      <g>
       <use xlink:href="#m335bd5f5be" x="43.25" y="574.756948" style="stroke: #000000; stroke-width: 0.8"/>
      </g>
     </g>
     <g id="text_21">
      <!-- −60 -->
      <g transform="translate(15.145313 578.556166)scale(0.1 -0.1)">
       <defs>
        <path id="DejaVuSans-2212" d="M 678 2272 
L 4684 2272 
L 4684 1741 
L 678 1741 
L 678 2272 
z
" transform="scale(0.015625)"/>
       </defs>
       <use xlink:href="#DejaVuSans-2212"/>
       <use xlink:href="#DejaVuSans-36" x="83.789062"/>
       <use xlink:href="#DejaVuSans-30" x="147.412109"/>
      </g>
     </g>
    </g>
    <g id="ytick_7">
     <g id="line2d_65">
      <path d="M 43.25 525.545159 
L 982.876106 525.545159 
" clip-path="url(#p039589df94)" style="fill: none; stroke-dasharray: 2.96,1.28; stroke-dashoffset: 0; stroke: #b0b0b0; stroke-width: 0.8"/>
     </g>
     <g id="line2d_66">
      <g>
       <use xlink:href="#m335bd5f5be" x="43.25" y="525.545159" style="stroke: #000000; stroke-width: 0.8"/>
      </g>
     </g>
     <g id="text_22">
      <!-- −40 -->
      <g transform="translate(15.145313 529.344378)scale(0.1 -0.1)">
       <use xlink:href="#DejaVuSans-2212"/>
       <use xlink:href="#DejaVuSans-34" x="83.789062"/>
       <use xlink:href="#DejaVuSans-30" x="147.412109"/>
      </g>
     </g>
    </g>
    <g id="ytick_8">
     <g id="line2d_67">
      <path d="M 43.25 476.333371 
L 982.876106 476.333371 
" clip-path="url(#p039589df94)" style="fill: none; stroke-dasharray: 2.96,1.28; stroke-dashoffset: 0; stroke: #b0b0b0; stroke-width: 0.8"/>
     </g>
     <g id="line2d_68">
      <g>
       <use xlink:href="#m335bd5f5be" x="43.25" y="476.333371" style="stroke: #000000; stroke-width: 0.8"/>
      </g>
     </g>
     <g id="text_23">
      <!-- −20 -->
      <g transform="translate(15.145313 480.13259)scale(0.1 -0.1)">
       <use xlink:href="#DejaVuSans-2212"/>
       <use xlink:href="#DejaVuSans-32" x="83.789062"/>
       <use xlink:href="#DejaVuSans-30" x="147.412109"/>
      </g>
     </g>
    </g>
    <g id="ytick_9">
     <g id="line2d_69">
      <path d="M 43.25 427.121583 
L 982.876106 427.121583 
" clip-path="url(#p039589df94)" style="fill: none; stroke-dasharray: 2.96,1.28; stroke-dashoffset: 0; stroke: #b0b0b0; stroke-width: 0.8"/>
     </g>
     <g id="line2d_70">
      <g>
       <use xlink:href="#m335bd5f5be" x="43.25" y="427.121583" style="stroke: #000000; stroke-width: 0.8"/>
      </g>
     </g>
     <g id="text_24">
      <!-- 0 -->
      <g transform="translate(29.8875 430.920802)scale(0.1 -0.1)">
       <use xlink:href="#DejaVuSans-30"/>
      </g>
     </g>
    </g>
    <g id="ytick_10">
     <g id="line2d_71">
      <path d="M 43.25 377.909795 
L 982.876106 377.909795 
" clip-path="url(#p039589df94)" style="fill: none; stroke-dasharray: 2.96,1.28; stroke-dashoffset: 0; stroke: #b0b0b0; stroke-width: 0.8"/>
     </g>
     <g id="line2d_72">
      <g>
       <use xlink:href="#m335bd5f5be" x="43.25" y="377.909795" style="stroke: #000000; stroke-width: 0.8"/>
      </g>
     </g>
     <g id="text_25">
      <!-- 20 -->
      <g transform="translate(23.525 381.709014)scale(0.1 -0.1)">
       <use xlink:href="#DejaVuSans-32"/>
       <use xlink:href="#DejaVuSans-30" x="63.623047"/>
      </g>
     </g>
    </g>
   </g>
   <g id="line2d_73">
    <path d="M 85.960278 427.121583 
L 88.638038 427.599111 
L 91.315798 427.222635 
L 93.993559 430.558057 
L 96.671319 431.749818 
L 104.7046 430.364342 
L 107.38236 426.928639 
L 110.060121 425.277486 
L 112.737881 426.921133 
L 115.415641 430.029182 
L 123.448922 427.141511 
L 126.126683 425.375567 
L 128.804443 424.297548 
L 131.482203 418.229489 
L 134.159964 413.657204 
L 142.193245 419.982604 
L 144.871005 413.893511 
L 150.226526 412.022261 
L 152.904286 408.266019 
L 160.937567 403.81007 
L 163.615328 400.150169 
L 166.293088 385.242965 
L 168.970848 380.856541 
L 171.648609 381.937158 
L 179.68189 381.581425 
L 182.35965 386.408072 
L 185.03741 390.042736 
L 187.715171 392.921886 
L 190.392931 397.543749 
L 198.426212 412.959572 
L 201.103972 423.571215 
L 203.781733 421.950831 
L 206.459493 424.807325 
L 209.137254 425.99553 
L 217.170535 427.37052 
L 219.848295 443.782771 
L 222.526055 455.093424 
L 225.203816 489.421151 
L 227.881576 492.962196 
L 235.914857 503.868847 
L 241.270378 516.853274 
L 243.948138 529.100833 
L 246.625898 545.079142 
L 254.659179 565.498933 
L 257.33694 573.004332 
L 260.0147 568.043133 
L 262.69246 560.334707 
L 265.370221 551.469997 
L 273.403502 548.810506 
L 276.081262 551.320123 
L 278.759023 547.848585 
L 281.436783 533.378474 
L 292.147824 521.265036 
L 294.825585 519.202475 
L 297.503345 515.102266 
L 300.181105 507.774734 
L 302.858866 503.141433 
L 310.892147 498.605274 
L 313.569907 495.275615 
L 318.925428 471.20283 
L 321.603188 450.821507 
L 329.636469 430.502224 
L 332.314229 417.957324 
L 334.99199 412.496155 
L 340.347511 403.838889 
L 348.380792 402.143957 
L 351.058552 405.760893 
L 353.736312 409.053102 
L 367.125114 420.255236 
L 369.802874 439.210944 
L 372.480635 461.279227 
L 375.158395 474.666683 
L 377.836155 484.338944 
L 385.869436 498.713014 
L 388.547197 504.038038 
L 391.224957 507.186197 
L 393.902717 503.461233 
L 396.580478 505.667182 
L 404.613759 502.748047 
L 409.96928 500.990231 
L 412.64704 497.046411 
L 415.3248 501.117227 
L 423.358081 513.068263 
L 426.035842 531.714656 
L 428.713602 543.435341 
L 434.069123 565.651118 
L 442.102404 560.938274 
L 444.780164 555.367712 
L 447.457924 552.003146 
L 450.135685 549.591407 
L 452.813445 529.18175 
L 460.846726 522.562249 
L 463.524487 522.310853 
L 466.202247 531.465898 
L 468.880007 531.995332 
L 471.557768 530.508588 
L 479.591049 517.619551 
L 482.268809 500.250506 
L 484.946569 479.53984 
L 487.62433 455.897549 
L 490.30209 426.018646 
L 498.335371 406.38952 
L 501.013131 396.241061 
L 503.690892 378.221706 
L 506.368652 363.474043 
L 509.046412 354.195325 
L 517.079693 346.343803 
L 519.757454 342.65348 
L 522.435214 348.741786 
L 525.112974 358.055416 
L 527.790735 364.127857 
L 535.824016 376.197695 
L 538.501776 382.780233 
L 541.179537 392.652669 
L 543.857297 398.454541 
L 546.535057 405.652622 
L 554.568338 408.200237 
L 557.246099 410.254843 
L 559.923859 407.21871 
L 562.601619 401.906808 
L 565.27938 398.444591 
L 573.312661 397.638843 
L 575.990421 401.00408 
L 578.668181 393.339396 
L 581.345942 386.011683 
L 584.023702 383.59493 
L 592.056983 381.883452 
L 597.412504 377.67762 
L 600.090264 374.154831 
L 602.768025 374.795419 
L 610.801306 373.508806 
L 616.156826 367.319846 
L 618.834587 368.393863 
L 621.512347 367.892701 
L 629.545628 362.659489 
L 632.223388 363.887025 
L 634.901149 363.204183 
L 637.578909 358.264789 
L 640.256669 360.400731 
L 648.28995 365.59233 
L 650.967711 376.210271 
L 653.645471 384.284964 
L 656.323232 404.368273 
L 659.000992 414.63085 
L 667.034273 422.224821 
L 672.389794 431.017558 
L 675.067554 433.376948 
L 677.745314 431.32663 
L 688.456356 427.150072 
L 691.134116 417.959519 
L 693.811876 415.387729 
L 696.489637 417.697205 
L 704.522918 427.30841 
L 707.200678 435.013084 
L 709.878438 434.570484 
L 712.556199 437.789742 
L 715.233959 442.663576 
L 723.26724 449.082433 
L 725.945001 443.320642 
L 731.300521 441.104828 
L 733.978282 438.355596 
L 742.011563 433.129327 
L 744.689323 429.908381 
L 747.367083 425.615959 
L 750.044844 422.603794 
L 752.722604 420.629007 
L 763.433645 418.707915 
L 766.111406 426.266698 
L 768.789166 436.291128 
L 771.466926 444.864932 
L 779.500207 452.498926 
L 782.177968 452.861607 
L 784.855728 449.338903 
L 787.533489 444.647515 
L 790.211249 450.292079 
L 798.24453 460.868965 
L 800.92229 472.323894 
L 808.955571 511.086929 
L 816.988852 520.273583 
L 819.666613 517.360746 
L 825.022133 509.408073 
L 827.699894 500.188416 
L 835.733175 491.514067 
L 838.410935 489.774552 
L 841.088695 484.930053 
L 843.766456 481.319751 
L 846.444216 479.8462 
L 854.477497 472.025613 
L 857.155258 465.60256 
L 859.833018 456.18637 
L 862.510778 452.55073 
L 873.22182 442.649125 
L 875.89958 441.363354 
L 881.255101 438.917823 
L 883.932861 441.774537 
L 891.966142 443.747574 
L 894.643902 442.748496 
L 897.321663 445.065639 
L 902.677183 459.3551 
L 910.710465 468.209561 
L 916.065985 469.653648 
L 918.743746 469.260042 
L 921.421506 469.413625 
L 929.454787 471.014857 
L 932.132547 464.143451 
L 934.810308 457.974839 
L 937.488068 447.510175 
L 940.165828 434.947189 
L 940.165828 434.947189 
" clip-path="url(#p039589df94)" style="fill: none; stroke: #1f77b4; stroke-width: 1.5; stroke-linecap: square"/>
   </g>
   <g id="line2d_74">
    <path d="M 85.960278 427.121583 
L 88.638038 427.386876 
L 91.315798 427.319565 
L 96.671319 429.408167 
L 104.7046 429.667344 
L 107.38236 428.974251 
L 110.060121 428.085849 
L 112.737881 427.816794 
L 115.415641 428.312497 
L 123.448922 428.056292 
L 128.804443 426.806944 
L 131.482203 425.012534 
L 134.159964 422.658648 
L 142.193245 422.107938 
L 144.871005 420.427206 
L 150.226526 418.71538 
L 152.904286 416.594949 
L 160.937567 414.008149 
L 163.615328 411.210752 
L 168.970848 400.924344 
L 171.648609 397.108888 
L 179.68189 393.991619 
L 182.35965 392.470312 
L 185.03741 391.98362 
L 187.715171 392.171637 
L 190.392931 393.247724 
L 198.426212 397.19498 
L 201.103972 402.475457 
L 203.781733 406.37362 
L 206.459493 410.062699 
L 209.137254 413.250882 
L 217.170535 416.075956 
L 219.848295 421.619118 
L 222.526055 428.315717 
L 225.203816 440.539343 
L 227.881576 451.025656 
L 235.914857 461.595699 
L 241.270378 472.648389 
L 243.948138 483.939839 
L 246.625898 496.168532 
L 254.659179 510.035367 
L 257.33694 522.629709 
L 260.0147 531.71271 
L 262.69246 537.437269 
L 265.370221 540.243877 
L 273.403502 541.957234 
L 276.081262 543.829838 
L 278.759023 544.633597 
L 281.436783 542.382552 
L 292.147824 538.159018 
L 297.503345 530.514585 
L 302.858866 521.401551 
L 310.892147 516.842285 
L 313.569907 512.528943 
L 316.247667 506.638994 
L 318.925428 499.551753 
L 321.603188 489.805694 
L 329.636469 477.944991 
L 332.314229 465.94745 
L 334.99199 455.257186 
L 337.66975 445.828028 
L 340.347511 437.430198 
L 348.380792 430.372948 
L 351.058552 425.450536 
L 353.736312 422.171049 
L 367.125114 421.787886 
L 369.802874 425.272498 
L 372.480635 432.473844 
L 377.836155 449.597719 
L 385.869436 459.420779 
L 388.547197 468.344231 
L 391.224957 476.112624 
L 393.902717 481.582346 
L 396.580478 486.399313 
L 412.64704 492.955918 
L 415.3248 494.58818 
L 423.358081 498.284196 
L 426.035842 504.970288 
L 428.713602 512.663299 
L 431.391362 521.059693 
L 434.069123 529.977978 
L 442.102404 536.170037 
L 444.780164 540.009572 
L 447.457924 542.408287 
L 450.135685 543.844911 
L 452.813445 540.912279 
L 460.846726 537.242273 
L 463.524487 534.255989 
L 466.202247 533.697971 
L 468.880007 533.357443 
L 471.557768 532.787672 
L 479.591049 529.754048 
L 482.268809 523.853339 
L 484.946569 514.99064 
L 487.62433 503.172021 
L 490.30209 487.741346 
L 498.335371 471.470981 
L 503.690892 440.784339 
L 506.368652 425.32228 
L 509.046412 411.096889 
L 517.079693 398.146272 
L 519.757454 387.047713 
L 522.435214 379.386528 
L 525.112974 375.120305 
L 527.790735 372.921816 
L 535.824016 373.576992 
L 538.501776 375.41764 
L 541.179537 378.864646 
L 543.857297 382.782625 
L 546.535057 387.356624 
L 554.568338 391.525347 
L 557.246099 395.271246 
L 559.923859 397.660739 
L 562.601619 398.509953 
L 565.27938 398.49688 
L 573.312661 398.325273 
L 575.990421 398.861034 
L 578.668181 397.756707 
L 584.023702 393.045148 
L 592.056983 390.812808 
L 597.412504 386.425596 
L 600.090264 383.971443 
L 602.768025 382.136239 
L 610.801306 380.410752 
L 613.479066 378.401365 
L 616.156826 376.185061 
L 618.834587 374.626821 
L 621.512347 373.279997 
L 629.545628 371.155895 
L 632.223388 369.702121 
L 634.901149 368.402534 
L 637.578909 366.374985 
L 640.256669 365.180134 
L 648.28995 365.262573 
L 650.967711 367.452113 
L 653.645471 370.818683 
L 656.323232 377.528601 
L 659.000992 384.949051 
L 667.034273 392.404205 
L 672.389794 400.126876 
L 675.067554 406.77689 
L 677.745314 411.686838 
L 688.456356 414.779485 
L 691.134116 415.415492 
L 693.811876 415.409939 
L 696.489637 415.867392 
L 704.522918 418.155596 
L 707.200678 421.527094 
L 712.556199 426.866566 
L 715.233959 430.025968 
L 723.26724 433.837261 
L 725.945001 435.733937 
L 731.300521 436.808115 
L 733.978282 437.117611 
L 742.011563 436.319955 
L 744.689323 435.03764 
L 747.367083 433.153304 
L 752.722604 428.960523 
L 760.755885 427.019207 
L 763.433645 425.356948 
L 766.111406 425.538898 
L 768.789166 427.689344 
L 771.466926 431.124462 
L 779.500207 435.399355 
L 782.177968 438.891805 
L 784.855728 440.981225 
L 787.533489 441.714483 
L 790.211249 443.430002 
L 798.24453 446.917795 
L 800.92229 451.999014 
L 803.600051 458.619556 
L 806.277811 466.425958 
L 808.955571 475.358152 
L 816.988852 484.341238 
L 819.666613 490.94514 
L 825.022133 494.637726 
L 827.699894 495.747864 
L 835.733175 494.901105 
L 838.410935 493.875794 
L 841.088695 492.086646 
L 846.444216 487.915854 
L 854.477497 484.737805 
L 857.155258 480.910756 
L 859.833018 475.965879 
L 862.510778 471.282849 
L 865.188539 467.044218 
L 873.22182 462.165199 
L 875.89958 458.00483 
L 881.255101 454.187429 
L 883.932861 451.70485 
L 891.966142 450.113395 
L 894.643902 448.640415 
L 897.321663 447.92546 
L 899.999423 448.804329 
L 902.677183 450.914483 
L 910.710465 454.373499 
L 916.065985 457.429529 
L 918.743746 459.795631 
L 921.421506 461.71923 
L 929.454787 463.578356 
L 932.132547 463.691375 
L 934.810308 462.548068 
L 937.488068 459.540489 
L 940.165828 454.621829 
L 940.165828 454.621829 
" clip-path="url(#p039589df94)" style="fill: none; stroke: #ff7f0e; stroke-width: 1.5; stroke-linecap: square"/>
   </g>
   <g id="patch_9">
    <path d="M 43.25 584.521875 
L 43.25 331.135937 
" style="fill: none; stroke: #000000; stroke-width: 0.8; stroke-linejoin: miter; stroke-linecap: square"/>
   </g>
   <g id="patch_10">
    <path d="M 982.876106 584.521875 
L 982.876106 331.135937 
" style="fill: none; stroke: #000000; stroke-width: 0.8; stroke-linejoin: miter; stroke-linecap: square"/>
   </g>
   <g id="patch_11">
    <path d="M 43.25 584.521875 
L 982.876106 584.521875 
" style="fill: none; stroke: #000000; stroke-width: 0.8; stroke-linejoin: miter; stroke-linecap: square"/>
   </g>
   <g id="patch_12">
    <path d="M 43.25 331.135938 
L 982.876106 331.135938 
" style="fill: none; stroke: #000000; stroke-width: 0.8; stroke-linejoin: miter; stroke-linecap: square"/>
   </g>
   <g id="text_26">
    <!-- MACD -->
    <g transform="translate(495.077115 325.135938)scale(0.12 -0.12)">
     <defs>
      <path id="DejaVuSans-44" d="M 1259 4147 
L 1259 519 
L 2022 519 
Q 2988 519 3436 956 
Q 3884 1394 3884 2338 
Q 3884 3275 3436 3711 
Q 2988 4147 2022 4147 
L 1259 4147 
z
M 628 4666 
L 1925 4666 
Q 3281 4666 3915 4102 
Q 4550 3538 4550 2338 
Q 4550 1131 3912 565 
Q 3275 0 1925 0 
L 628 0 
L 628 4666 
z
" transform="scale(0.015625)"/>
     </defs>
     <use xlink:href="#DejaVuSans-4d"/>
     <use xlink:href="#DejaVuSans-41" x="86.279297"/>
     <use xlink:href="#DejaVuSans-43" x="152.9375"/>
     <use xlink:href="#DejaVuSans-44" x="222.761719"/>
    </g>
   </g>
   <g id="legend_2">
    <g id="patch_13">
     <path d="M 913.899543 368.492188 
L 975.876106 368.492188 
Q 977.876106 368.492188 977.876106 366.492188 
L 977.876106 338.135938 
Q 977.876106 336.135938 975.876106 336.135938 
L 913.899543 336.135938 
Q 911.899543 336.135938 911.899543 338.135938 
L 911.899543 366.492188 
Q 911.899543 368.492188 913.899543 368.492188 
z
" style="fill: #ffffff; opacity: 0.8; stroke: #cccccc; stroke-linejoin: miter"/>
    </g>
    <g id="line2d_75">
     <path d="M 915.899543 344.234375 
L 925.899543 344.234375 
L 935.899543 344.234375 
" style="fill: none; stroke: #1f77b4; stroke-width: 1.5; stroke-linecap: square"/>
    </g>
    <g id="text_27">
     <!-- MACD -->
     <g transform="translate(943.899543 347.734375)scale(0.1 -0.1)">
      <use xlink:href="#DejaVuSans-4d"/>
      <use xlink:href="#DejaVuSans-41" x="86.279297"/>
      <use xlink:href="#DejaVuSans-43" x="152.9375"/>
      <use xlink:href="#DejaVuSans-44" x="222.761719"/>
     </g>
    </g>
    <g id="line2d_76">
     <path d="M 915.899543 358.9125 
L 925.899543 358.9125 
L 935.899543 358.9125 
" style="fill: none; stroke: #ff7f0e; stroke-width: 1.5; stroke-linecap: square"/>
    </g>
    <g id="text_28">
     <!-- SIG -->
     <g transform="translate(943.899543 362.4125)scale(0.1 -0.1)">
      <defs>
       <path id="DejaVuSans-49" d="M 628 4666 
L 1259 4666 
L 1259 0 
L 628 0 
L 628 4666 
z
" transform="scale(0.015625)"/>
       <path id="DejaVuSans-47" d="M 3809 666 
L 3809 1919 
L 2778 1919 
L 2778 2438 
L 4434 2438 
L 4434 434 
Q 4069 175 3628 42 
Q 3188 -91 2688 -91 
Q 1594 -91 976 548 
Q 359 1188 359 2328 
Q 359 3472 976 4111 
Q 1594 4750 2688 4750 
Q 3144 4750 3555 4637 
Q 3966 4525 4313 4306 
L 4313 3634 
Q 3963 3931 3569 4081 
Q 3175 4231 2741 4231 
Q 1884 4231 1454 3753 
Q 1025 3275 1025 2328 
Q 1025 1384 1454 906 
Q 1884 428 2741 428 
Q 3075 428 3337 486 
Q 3600 544 3809 666 
z
" transform="scale(0.015625)"/>
      </defs>
      <use xlink:href="#DejaVuSans-53"/>
      <use xlink:href="#DejaVuSans-49" x="63.476562"/>
      <use xlink:href="#DejaVuSans-47" x="92.96875"/>
     </g>
    </g>
   </g>
  </g>
  <g id="text_29">
   <!-- Macrotech Developers Limited -->
   <g transform="translate(412.524375 21.358125)scale(0.12 -0.12)">
    <defs>
     <path id="DejaVuSans-61" d="M 2194 1759 
Q 1497 1759 1228 1600 
Q 959 1441 959 1056 
Q 959 750 1161 570 
Q 1363 391 1709 391 
Q 2188 391 2477 730 
Q 2766 1069 2766 1631 
L 2766 1759 
L 2194 1759 
z
M 3341 1997 
L 3341 0 
L 2766 0 
L 2766 531 
Q 2569 213 2275 61 
Q 1981 -91 1556 -91 
Q 1019 -91 701 211 
Q 384 513 384 1019 
Q 384 1609 779 1909 
Q 1175 2209 1959 2209 
L 2766 2209 
L 2766 2266 
Q 2766 2663 2505 2880 
Q 2244 3097 1772 3097 
Q 1472 3097 1187 3025 
Q 903 2953 641 2809 
L 641 3341 
Q 956 3463 1253 3523 
Q 1550 3584 1831 3584 
Q 2591 3584 2966 3190 
Q 3341 2797 3341 1997 
z
" transform="scale(0.015625)"/>
     <path id="DejaVuSans-74" d="M 1172 4494 
L 1172 3500 
L 2356 3500 
L 2356 3053 
L 1172 3053 
L 1172 1153 
Q 1172 725 1289 603 
Q 1406 481 1766 481 
L 2356 481 
L 2356 0 
L 1766 0 
Q 1100 0 847 248 
Q 594 497 594 1153 
L 594 3053 
L 172 3053 
L 172 3500 
L 594 3500 
L 594 4494 
L 1172 4494 
z
" transform="scale(0.015625)"/>
     <path id="DejaVuSans-68" d="M 3513 2113 
L 3513 0 
L 2938 0 
L 2938 2094 
Q 2938 2591 2744 2837 
Q 2550 3084 2163 3084 
Q 1697 3084 1428 2787 
Q 1159 2491 1159 1978 
L 1159 0 
L 581 0 
L 581 4863 
L 1159 4863 
L 1159 2956 
Q 1366 3272 1645 3428 
Q 1925 3584 2291 3584 
Q 2894 3584 3203 3211 
Q 3513 2838 3513 2113 
z
" transform="scale(0.015625)"/>
     <path id="DejaVuSans-76" d="M 191 3500 
L 800 3500 
L 1894 563 
L 2988 3500 
L 3597 3500 
L 2284 0 
L 1503 0 
L 191 3500 
z
" transform="scale(0.015625)"/>
     <path id="DejaVuSans-70" d="M 1159 525 
L 1159 -1331 
L 581 -1331 
L 581 3500 
L 1159 3500 
L 1159 2969 
Q 1341 3281 1617 3432 
Q 1894 3584 2278 3584 
Q 2916 3584 3314 3078 
Q 3713 2572 3713 1747 
Q 3713 922 3314 415 
Q 2916 -91 2278 -91 
Q 1894 -91 1617 61 
Q 1341 213 1159 525 
z
M 3116 1747 
Q 3116 2381 2855 2742 
Q 2594 3103 2138 3103 
Q 1681 3103 1420 2742 
Q 1159 2381 1159 1747 
Q 1159 1113 1420 752 
Q 1681 391 2138 391 
Q 2594 391 2855 752 
Q 3116 1113 3116 1747 
z
" transform="scale(0.015625)"/>
     <path id="DejaVuSans-6d" d="M 3328 2828 
Q 3544 3216 3844 3400 
Q 4144 3584 4550 3584 
Q 5097 3584 5394 3201 
Q 5691 2819 5691 2113 
L 5691 0 
L 5113 0 
L 5113 2094 
Q 5113 2597 4934 2840 
Q 4756 3084 4391 3084 
Q 3944 3084 3684 2787 
Q 3425 2491 3425 1978 
L 3425 0 
L 2847 0 
L 2847 2094 
Q 2847 2600 2669 2842 
Q 2491 3084 2119 3084 
Q 1678 3084 1418 2786 
Q 1159 2488 1159 1978 
L 1159 0 
L 581 0 
L 581 3500 
L 1159 3500 
L 1159 2956 
Q 1356 3278 1631 3431 
Q 1906 3584 2284 3584 
Q 2666 3584 2933 3390 
Q 3200 3197 3328 2828 
z
" transform="scale(0.015625)"/>
     <path id="DejaVuSans-64" d="M 2906 2969 
L 2906 4863 
L 3481 4863 
L 3481 0 
L 2906 0 
L 2906 525 
Q 2725 213 2448 61 
Q 2172 -91 1784 -91 
Q 1150 -91 751 415 
Q 353 922 353 1747 
Q 353 2572 751 3078 
Q 1150 3584 1784 3584 
Q 2172 3584 2448 3432 
Q 2725 3281 2906 2969 
z
M 947 1747 
Q 947 1113 1208 752 
Q 1469 391 1925 391 
Q 2381 391 2643 752 
Q 2906 1113 2906 1747 
Q 2906 2381 2643 2742 
Q 2381 3103 1925 3103 
Q 1469 3103 1208 2742 
Q 947 2381 947 1747 
z
" transform="scale(0.015625)"/>
    </defs>
    <use xlink:href="#DejaVuSans-4d"/>
    <use xlink:href="#DejaVuSans-61" x="86.279297"/>
    <use xlink:href="#DejaVuSans-63" x="147.558594"/>
    <use xlink:href="#DejaVuSans-72" x="202.539062"/>
    <use xlink:href="#DejaVuSans-6f" x="241.402344"/>
    <use xlink:href="#DejaVuSans-74" x="302.583984"/>
    <use xlink:href="#DejaVuSans-65" x="341.792969"/>
    <use xlink:href="#DejaVuSans-63" x="403.316406"/>
    <use xlink:href="#DejaVuSans-68" x="458.296875"/>
    <use xlink:href="#DejaVuSans-20" x="521.675781"/>
    <use xlink:href="#DejaVuSans-44" x="553.462891"/>
    <use xlink:href="#DejaVuSans-65" x="630.464844"/>
    <use xlink:href="#DejaVuSans-76" x="691.988281"/>
    <use xlink:href="#DejaVuSans-65" x="751.167969"/>
    <use xlink:href="#DejaVuSans-6c" x="812.691406"/>
    <use xlink:href="#DejaVuSans-6f" x="840.474609"/>
    <use xlink:href="#DejaVuSans-70" x="901.65625"/>
    <use xlink:href="#DejaVuSans-65" x="965.132812"/>
    <use xlink:href="#DejaVuSans-72" x="1026.65625"/>
    <use xlink:href="#DejaVuSans-73" x="1067.769531"/>
    <use xlink:href="#DejaVuSans-20" x="1119.869141"/>
    <use xlink:href="#DejaVuSans-4c" x="1151.65625"/>
    <use xlink:href="#DejaVuSans-69" x="1207.369141"/>
    <use xlink:href="#DejaVuSans-6d" x="1235.152344"/>
    <use xlink:href="#DejaVuSans-69" x="1332.564453"/>
    <use xlink:href="#DejaVuSans-74" x="1360.347656"/>
    <use xlink:href="#DejaVuSans-65" x="1399.556641"/>
    <use xlink:href="#DejaVuSans-64" x="1461.080078"/>
   </g>
  </g>
 </g>
 <defs>
  <clipPath id="p55d037913b">
   <rect x="43.25" y="48.331875" width="939.626106" height="253.385938"/>
  </clipPath>
  <clipPath id="p039589df94">
   <rect x="43.25" y="331.135938" width="939.626106" height="253.385937"/>
  </clipPath>
 </defs>
</svg>
