<?xml version="1.0" encoding="utf-8" standalone="no"?>
<!DOCTYPE svg PUBLIC "-//W3C//DTD SVG 1.1//EN"
  "http://www.w3.org/Graphics/SVG/1.1/DTD/svg11.dtd">
<svg xmlns:xlink="http://www.w3.org/1999/xlink" width="1008pt" height="612pt" viewBox="0 0 1008 612" xmlns="http://www.w3.org/2000/svg" version="1.1">
 <metadata>
  <rdf:RDF xmlns:dc="http://purl.org/dc/elements/1.1/" xmlns:cc="http://creativecommons.org/ns#" xmlns:rdf="http://www.w3.org/1999/02/22-rdf-syntax-ns#">
   <cc:Work>
    <dc:type rdf:resource="http://purl.org/dc/dcmitype/StillImage"/>
    <dc:date>2022-11-20T19:47:36.485831</dc:date>
    <dc:format>image/svg+xml</dc:format>
    <dc:creator>
     <cc:Agent>
      <dc:title>Matplotlib v3.5.2, https://matplotlib.org/</dc:title>
     </cc:Agent>
    </dc:creator>
   </cc:Work>
  </rdf:RDF>
 </metadata>
 <defs>
  <style type="text/css">*{stroke-linejoin: round; stroke-linecap: butt}</style>
 </defs>
 <g id="figure_1">
  <g id="patch_1">
   <path d="M 0 612 
L 1008 612 
L 1008 0 
L 0 0 
z
" style="fill: #ffffff"/>
  </g>
  <g id="axes_1">
   <g id="patch_2">
    <path d="M 45.267188 301.717812 
L 982.876106 301.717812 
L 982.876106 48.331875 
L 45.267188 48.331875 
z
" style="fill: #ffffff"/>
   </g>
   <g id="matplotlib.axis_1">
    <g id="xtick_1">
     <g id="line2d_1">
      <path d="M 82.541751 301.717812 
L 82.541751 48.331875 
" clip-path="url(#p98f1710a24)" style="fill: none; stroke-dasharray: 2.96,1.28; stroke-dashoffset: 0; stroke: #b0b0b0; stroke-width: 0.8"/>
     </g>
     <g id="line2d_2">
      <defs>
       <path id="m24ebb66000" d="M 0 0 
L 0 3.5 
" style="stroke: #000000; stroke-width: 0.8"/>
      </defs>
      <g>
       <use xlink:href="#m24ebb66000" x="82.541751" y="301.717812" style="stroke: #000000; stroke-width: 0.8"/>
      </g>
     </g>
    </g>
    <g id="xtick_2">
     <g id="line2d_3">
      <path d="M 165.374115 301.717812 
L 165.374115 48.331875 
" clip-path="url(#p98f1710a24)" style="fill: none; stroke-dasharray: 2.96,1.28; stroke-dashoffset: 0; stroke: #b0b0b0; stroke-width: 0.8"/>
     </g>
     <g id="line2d_4">
      <g>
       <use xlink:href="#m24ebb66000" x="165.374115" y="301.717812" style="stroke: #000000; stroke-width: 0.8"/>
      </g>
     </g>
    </g>
    <g id="xtick_3">
     <g id="line2d_5">
      <path d="M 240.190444 301.717812 
L 240.190444 48.331875 
" clip-path="url(#p98f1710a24)" style="fill: none; stroke-dasharray: 2.96,1.28; stroke-dashoffset: 0; stroke: #b0b0b0; stroke-width: 0.8"/>
     </g>
     <g id="line2d_6">
      <g>
       <use xlink:href="#m24ebb66000" x="240.190444" y="301.717812" style="stroke: #000000; stroke-width: 0.8"/>
      </g>
     </g>
    </g>
    <g id="xtick_4">
     <g id="line2d_7">
      <path d="M 323.022808 301.717812 
L 323.022808 48.331875 
" clip-path="url(#p98f1710a24)" style="fill: none; stroke-dasharray: 2.96,1.28; stroke-dashoffset: 0; stroke: #b0b0b0; stroke-width: 0.8"/>
     </g>
     <g id="line2d_8">
      <g>
       <use xlink:href="#m24ebb66000" x="323.022808" y="301.717812" style="stroke: #000000; stroke-width: 0.8"/>
      </g>
     </g>
    </g>
    <g id="xtick_5">
     <g id="line2d_9">
      <path d="M 403.18316 301.717812 
L 403.18316 48.331875 
" clip-path="url(#p98f1710a24)" style="fill: none; stroke-dasharray: 2.96,1.28; stroke-dashoffset: 0; stroke: #b0b0b0; stroke-width: 0.8"/>
     </g>
     <g id="line2d_10">
      <g>
       <use xlink:href="#m24ebb66000" x="403.18316" y="301.717812" style="stroke: #000000; stroke-width: 0.8"/>
      </g>
     </g>
    </g>
    <g id="xtick_6">
     <g id="line2d_11">
      <path d="M 486.015523 301.717812 
L 486.015523 48.331875 
" clip-path="url(#p98f1710a24)" style="fill: none; stroke-dasharray: 2.96,1.28; stroke-dashoffset: 0; stroke: #b0b0b0; stroke-width: 0.8"/>
     </g>
     <g id="line2d_12">
      <g>
       <use xlink:href="#m24ebb66000" x="486.015523" y="301.717812" style="stroke: #000000; stroke-width: 0.8"/>
      </g>
     </g>
    </g>
    <g id="xtick_7">
     <g id="line2d_13">
      <path d="M 566.175876 301.717812 
L 566.175876 48.331875 
" clip-path="url(#p98f1710a24)" style="fill: none; stroke-dasharray: 2.96,1.28; stroke-dashoffset: 0; stroke: #b0b0b0; stroke-width: 0.8"/>
     </g>
     <g id="line2d_14">
      <g>
       <use xlink:href="#m24ebb66000" x="566.175876" y="301.717812" style="stroke: #000000; stroke-width: 0.8"/>
      </g>
     </g>
    </g>
    <g id="xtick_8">
     <g id="line2d_15">
      <path d="M 649.008239 301.717812 
L 649.008239 48.331875 
" clip-path="url(#p98f1710a24)" style="fill: none; stroke-dasharray: 2.96,1.28; stroke-dashoffset: 0; stroke: #b0b0b0; stroke-width: 0.8"/>
     </g>
     <g id="line2d_16">
      <g>
       <use xlink:href="#m24ebb66000" x="649.008239" y="301.717812" style="stroke: #000000; stroke-width: 0.8"/>
      </g>
     </g>
    </g>
    <g id="xtick_9">
     <g id="line2d_17">
      <path d="M 731.840603 301.717812 
L 731.840603 48.331875 
" clip-path="url(#p98f1710a24)" style="fill: none; stroke-dasharray: 2.96,1.28; stroke-dashoffset: 0; stroke: #b0b0b0; stroke-width: 0.8"/>
     </g>
     <g id="line2d_18">
      <g>
       <use xlink:href="#m24ebb66000" x="731.840603" y="301.717812" style="stroke: #000000; stroke-width: 0.8"/>
      </g>
     </g>
    </g>
    <g id="xtick_10">
     <g id="line2d_19">
      <path d="M 812.000955 301.717812 
L 812.000955 48.331875 
" clip-path="url(#p98f1710a24)" style="fill: none; stroke-dasharray: 2.96,1.28; stroke-dashoffset: 0; stroke: #b0b0b0; stroke-width: 0.8"/>
     </g>
     <g id="line2d_20">
      <g>
       <use xlink:href="#m24ebb66000" x="812.000955" y="301.717812" style="stroke: #000000; stroke-width: 0.8"/>
      </g>
     </g>
    </g>
    <g id="xtick_11">
     <g id="line2d_21">
      <path d="M 894.833319 301.717812 
L 894.833319 48.331875 
" clip-path="url(#p98f1710a24)" style="fill: none; stroke-dasharray: 2.96,1.28; stroke-dashoffset: 0; stroke: #b0b0b0; stroke-width: 0.8"/>
     </g>
     <g id="line2d_22">
      <g>
       <use xlink:href="#m24ebb66000" x="894.833319" y="301.717812" style="stroke: #000000; stroke-width: 0.8"/>
      </g>
     </g>
    </g>
    <g id="xtick_12">
     <g id="line2d_23">
      <path d="M 974.993671 301.717812 
L 974.993671 48.331875 
" clip-path="url(#p98f1710a24)" style="fill: none; stroke-dasharray: 2.96,1.28; stroke-dashoffset: 0; stroke: #b0b0b0; stroke-width: 0.8"/>
     </g>
     <g id="line2d_24">
      <g>
       <use xlink:href="#m24ebb66000" x="974.993671" y="301.717812" style="stroke: #000000; stroke-width: 0.8"/>
      </g>
     </g>
    </g>
   </g>
   <g id="matplotlib.axis_2">
    <g id="ytick_1">
     <g id="line2d_25">
      <path d="M 45.267188 259.384422 
L 982.876106 259.384422 
" clip-path="url(#p98f1710a24)" style="fill: none; stroke-dasharray: 2.96,1.28; stroke-dashoffset: 0; stroke: #b0b0b0; stroke-width: 0.8"/>
     </g>
     <g id="line2d_26">
      <defs>
       <path id="md56f78707a" d="M 0 0 
L -3.5 0 
" style="stroke: #000000; stroke-width: 0.8"/>
      </defs>
      <g>
       <use xlink:href="#md56f78707a" x="45.267188" y="259.384422" style="stroke: #000000; stroke-width: 0.8"/>
      </g>
     </g>
     <g id="text_1">
      <!-- 2000 -->
      <g transform="translate(12.817188 263.183641)scale(0.1 -0.1)">
       <defs>
        <path id="DejaVuSans-32" d="M 1228 531 
L 3431 531 
L 3431 0 
L 469 0 
L 469 531 
Q 828 903 1448 1529 
Q 2069 2156 2228 2338 
Q 2531 2678 2651 2914 
Q 2772 3150 2772 3378 
Q 2772 3750 2511 3984 
Q 2250 4219 1831 4219 
Q 1534 4219 1204 4116 
Q 875 4013 500 3803 
L 500 4441 
Q 881 4594 1212 4672 
Q 1544 4750 1819 4750 
Q 2544 4750 2975 4387 
Q 3406 4025 3406 3419 
Q 3406 3131 3298 2873 
Q 3191 2616 2906 2266 
Q 2828 2175 2409 1742 
Q 1991 1309 1228 531 
z
" transform="scale(0.015625)"/>
        <path id="DejaVuSans-30" d="M 2034 4250 
Q 1547 4250 1301 3770 
Q 1056 3291 1056 2328 
Q 1056 1369 1301 889 
Q 1547 409 2034 409 
Q 2525 409 2770 889 
Q 3016 1369 3016 2328 
Q 3016 3291 2770 3770 
Q 2525 4250 2034 4250 
z
M 2034 4750 
Q 2819 4750 3233 4129 
Q 3647 3509 3647 2328 
Q 3647 1150 3233 529 
Q 2819 -91 2034 -91 
Q 1250 -91 836 529 
Q 422 1150 422 2328 
Q 422 3509 836 4129 
Q 1250 4750 2034 4750 
z
" transform="scale(0.015625)"/>
       </defs>
       <use xlink:href="#DejaVuSans-32"/>
       <use xlink:href="#DejaVuSans-30" x="63.623047"/>
       <use xlink:href="#DejaVuSans-30" x="127.246094"/>
       <use xlink:href="#DejaVuSans-30" x="190.869141"/>
      </g>
     </g>
    </g>
    <g id="ytick_2">
     <g id="line2d_27">
      <path d="M 45.267188 209.023501 
L 982.876106 209.023501 
" clip-path="url(#p98f1710a24)" style="fill: none; stroke-dasharray: 2.96,1.28; stroke-dashoffset: 0; stroke: #b0b0b0; stroke-width: 0.8"/>
     </g>
     <g id="line2d_28">
      <g>
       <use xlink:href="#md56f78707a" x="45.267188" y="209.023501" style="stroke: #000000; stroke-width: 0.8"/>
      </g>
     </g>
     <g id="text_2">
      <!-- 2500 -->
      <g transform="translate(12.817188 212.82272)scale(0.1 -0.1)">
       <defs>
        <path id="DejaVuSans-35" d="M 691 4666 
L 3169 4666 
L 3169 4134 
L 1269 4134 
L 1269 2991 
Q 1406 3038 1543 3061 
Q 1681 3084 1819 3084 
Q 2600 3084 3056 2656 
Q 3513 2228 3513 1497 
Q 3513 744 3044 326 
Q 2575 -91 1722 -91 
Q 1428 -91 1123 -41 
Q 819 9 494 109 
L 494 744 
Q 775 591 1075 516 
Q 1375 441 1709 441 
Q 2250 441 2565 725 
Q 2881 1009 2881 1497 
Q 2881 1984 2565 2268 
Q 2250 2553 1709 2553 
Q 1456 2553 1204 2497 
Q 953 2441 691 2322 
L 691 4666 
z
" transform="scale(0.015625)"/>
       </defs>
       <use xlink:href="#DejaVuSans-32"/>
       <use xlink:href="#DejaVuSans-35" x="63.623047"/>
       <use xlink:href="#DejaVuSans-30" x="127.246094"/>
       <use xlink:href="#DejaVuSans-30" x="190.869141"/>
      </g>
     </g>
    </g>
    <g id="ytick_3">
     <g id="line2d_29">
      <path d="M 45.267188 158.662581 
L 982.876106 158.662581 
" clip-path="url(#p98f1710a24)" style="fill: none; stroke-dasharray: 2.96,1.28; stroke-dashoffset: 0; stroke: #b0b0b0; stroke-width: 0.8"/>
     </g>
     <g id="line2d_30">
      <g>
       <use xlink:href="#md56f78707a" x="45.267188" y="158.662581" style="stroke: #000000; stroke-width: 0.8"/>
      </g>
     </g>
     <g id="text_3">
      <!-- 3000 -->
      <g transform="translate(12.817188 162.461799)scale(0.1 -0.1)">
       <defs>
        <path id="DejaVuSans-33" d="M 2597 2516 
Q 3050 2419 3304 2112 
Q 3559 1806 3559 1356 
Q 3559 666 3084 287 
Q 2609 -91 1734 -91 
Q 1441 -91 1130 -33 
Q 819 25 488 141 
L 488 750 
Q 750 597 1062 519 
Q 1375 441 1716 441 
Q 2309 441 2620 675 
Q 2931 909 2931 1356 
Q 2931 1769 2642 2001 
Q 2353 2234 1838 2234 
L 1294 2234 
L 1294 2753 
L 1863 2753 
Q 2328 2753 2575 2939 
Q 2822 3125 2822 3475 
Q 2822 3834 2567 4026 
Q 2313 4219 1838 4219 
Q 1578 4219 1281 4162 
Q 984 4106 628 3988 
L 628 4550 
Q 988 4650 1302 4700 
Q 1616 4750 1894 4750 
Q 2613 4750 3031 4423 
Q 3450 4097 3450 3541 
Q 3450 3153 3228 2886 
Q 3006 2619 2597 2516 
z
" transform="scale(0.015625)"/>
       </defs>
       <use xlink:href="#DejaVuSans-33"/>
       <use xlink:href="#DejaVuSans-30" x="63.623047"/>
       <use xlink:href="#DejaVuSans-30" x="127.246094"/>
       <use xlink:href="#DejaVuSans-30" x="190.869141"/>
      </g>
     </g>
    </g>
    <g id="ytick_4">
     <g id="line2d_31">
      <path d="M 45.267188 108.30166 
L 982.876106 108.30166 
" clip-path="url(#p98f1710a24)" style="fill: none; stroke-dasharray: 2.96,1.28; stroke-dashoffset: 0; stroke: #b0b0b0; stroke-width: 0.8"/>
     </g>
     <g id="line2d_32">
      <g>
       <use xlink:href="#md56f78707a" x="45.267188" y="108.30166" style="stroke: #000000; stroke-width: 0.8"/>
      </g>
     </g>
     <g id="text_4">
      <!-- 3500 -->
      <g transform="translate(12.817188 112.100878)scale(0.1 -0.1)">
       <use xlink:href="#DejaVuSans-33"/>
       <use xlink:href="#DejaVuSans-35" x="63.623047"/>
       <use xlink:href="#DejaVuSans-30" x="127.246094"/>
       <use xlink:href="#DejaVuSans-30" x="190.869141"/>
      </g>
     </g>
    </g>
    <g id="ytick_5">
     <g id="line2d_33">
      <path d="M 45.267188 57.940739 
L 982.876106 57.940739 
" clip-path="url(#p98f1710a24)" style="fill: none; stroke-dasharray: 2.96,1.28; stroke-dashoffset: 0; stroke: #b0b0b0; stroke-width: 0.8"/>
     </g>
     <g id="line2d_34">
      <g>
       <use xlink:href="#md56f78707a" x="45.267188" y="57.940739" style="stroke: #000000; stroke-width: 0.8"/>
      </g>
     </g>
     <g id="text_5">
      <!-- 4000 -->
      <g transform="translate(12.817188 61.739957)scale(0.1 -0.1)">
       <defs>
        <path id="DejaVuSans-34" d="M 2419 4116 
L 825 1625 
L 2419 1625 
L 2419 4116 
z
M 2253 4666 
L 3047 4666 
L 3047 1625 
L 3713 1625 
L 3713 1100 
L 3047 1100 
L 3047 0 
L 2419 0 
L 2419 1100 
L 313 1100 
L 313 1709 
L 2253 4666 
z
" transform="scale(0.015625)"/>
       </defs>
       <use xlink:href="#DejaVuSans-34"/>
       <use xlink:href="#DejaVuSans-30" x="63.623047"/>
       <use xlink:href="#DejaVuSans-30" x="127.246094"/>
       <use xlink:href="#DejaVuSans-30" x="190.869141"/>
      </g>
     </g>
    </g>
   </g>
   <g id="line2d_35">
    <path d="M 87.885775 72.918077 
L 90.557786 69.468354 
L 93.229798 63.80275 
L 95.90181 59.849418 
L 98.573822 66.517204 
L 106.589857 71.800064 
L 109.261869 81.504614 
L 111.93388 86.716969 
L 114.605892 83.141344 
L 117.277904 85.755075 
L 125.293939 88.424204 
L 127.965951 90.624976 
L 130.637962 90.176764 
L 133.309974 94.784788 
L 135.981986 101.442502 
L 143.998021 128.043141 
L 146.670033 118.665937 
L 152.014056 120.463822 
L 154.686068 126.235184 
L 162.702103 115.538524 
L 165.374115 106.997312 
L 168.046127 110.885175 
L 170.718139 100.294273 
L 173.39015 106.89659 
L 181.406185 109.998823 
L 184.078197 111.590228 
L 186.750209 104.897261 
L 189.422221 112.869395 
L 192.094232 103.955512 
L 200.110268 107.546246 
L 202.782279 117.230651 
L 205.454291 117.08964 
L 208.126303 120.065971 
L 210.798315 136.75558 
L 218.81435 133.190027 
L 221.486362 133.874935 
L 224.158373 122.795533 
L 226.830385 128.833807 
L 229.502397 126.829442 
L 237.518432 132.152592 
L 242.862455 135.390799 
L 245.534467 133.421687 
L 248.206479 133.628167 
L 256.222514 138.543393 
L 258.894526 139.570755 
L 261.566538 128.486317 
L 264.238549 122.719991 
L 266.910561 125.484806 
L 274.926596 125.459625 
L 277.598608 131.336745 
L 280.27062 128.118682 
L 282.942631 128.43092 
L 293.630678 130.193552 
L 296.30269 138.53332 
L 298.974702 130.73745 
L 301.646714 135.184319 
L 304.318725 138.523248 
L 312.334761 133.900116 
L 315.006772 130.168371 
L 317.678784 134.066307 
L 320.350796 131.20077 
L 323.022808 124.135133 
L 331.038843 119.557325 
L 333.710854 120.22209 
L 339.054878 129.619437 
L 341.72689 131.870571 
L 349.742925 132.852609 
L 352.414937 135.496557 
L 355.086948 138.870739 
L 371.119019 138.407418 
L 373.791031 130.203624 
L 376.463042 113.46869 
L 379.135054 124.48766 
L 387.151089 129.090648 
L 389.823101 144.264393 
L 392.495113 143.952156 
L 395.167124 137.42538 
L 397.839136 138.331877 
L 405.855171 138.009567 
L 411.199195 145.971628 
L 413.871207 141.756419 
L 416.543218 153.037266 
L 424.559254 155.525095 
L 427.231265 163.230316 
L 429.903277 168.649151 
L 432.575289 173.59963 
L 435.2473 159.005035 
L 443.263336 147.6839 
L 445.935347 148.132112 
L 448.607359 147.699008 
L 451.279371 148.640757 
L 453.951383 152.045156 
L 461.967418 160.314419 
L 464.63943 171.288063 
L 467.311441 184.522913 
L 469.983453 173.569413 
L 472.655465 168.145542 
L 480.6715 166.725364 
L 486.015523 178.726371 
L 488.687535 174.647137 
L 491.359547 174.783111 
L 499.375582 174.425549 
L 502.047594 177.316266 
L 504.719606 178.529964 
L 507.391617 178.796877 
L 510.063629 180.529292 
L 518.079664 186.210004 
L 520.751676 189.951821 
L 523.423688 192.303676 
L 526.095699 193.713782 
L 528.767711 202.26003 
L 536.783746 201.726204 
L 539.455758 193.255497 
L 542.12777 201.655699 
L 544.799782 198.221084 
L 547.471793 194.554809 
L 555.487829 193.003693 
L 558.15984 193.61306 
L 560.831852 193.386436 
L 563.503864 188.707906 
L 566.175876 193.623132 
L 574.191911 199.505287 
L 576.863922 206.394661 
L 579.535934 200.487325 
L 582.207946 202.073694 
L 584.879958 206.883162 
L 592.895993 209.406244 
L 595.568005 210.403391 
L 598.240016 214.497734 
L 600.912028 215.912875 
L 603.58404 212.417828 
L 611.600075 212.795534 
L 614.272087 214.099882 
L 616.944099 211.707739 
L 619.61611 226.176431 
L 622.288122 231.142018 
L 630.304157 236.450059 
L 632.976169 238.499748 
L 635.648181 238.474568 
L 638.320192 231.257848 
L 640.992204 233.141346 
L 649.008239 233.181635 
L 651.680251 232.204633 
L 654.352263 232.547088 
L 657.024275 227.490851 
L 659.696286 232.78882 
L 667.712322 226.302333 
L 673.056345 228.397348 
L 675.728357 224.323149 
L 678.400368 222.631022 
L 689.088415 225.325332 
L 691.760427 222.112305 
L 694.432439 219.196407 
L 697.104451 217.927312 
L 705.120486 222.127413 
L 707.792498 223.769179 
L 710.464509 219.201444 
L 713.136521 219.11583 
L 715.808533 220.329528 
L 723.824568 224.967769 
L 726.49658 222.313748 
L 734.512615 202.365788 
L 742.52865 211.763136 
L 745.200662 213.581165 
L 747.872674 210.196911 
L 750.544685 214.976162 
L 753.216697 220.027363 
L 761.232732 222.983549 
L 763.904744 215.303508 
L 766.576756 221.442505 
L 769.248768 226.871412 
L 771.920779 229.817526 
L 782.608826 236.027027 
L 785.280838 242.659561 
L 787.95285 241.753064 
L 790.624861 244.935874 
L 798.640897 252.943261 
L 801.312908 253.295787 
L 803.98492 254.242572 
L 806.656932 250.536009 
L 809.328944 250.032399 
L 817.344979 246.02367 
L 820.016991 246.099211 
L 825.361014 251.850429 
L 828.033026 251.669129 
L 836.049061 254.237536 
L 838.721073 250.964076 
L 841.393084 246.013598 
L 844.065096 244.291254 
L 846.737108 243.273964 
L 854.753143 243.571093 
L 857.425155 243.535841 
L 860.097167 240.4185 
L 862.769178 239.204801 
L 865.44119 240.222092 
L 873.457225 239.859493 
L 876.129237 236.691791 
L 881.47326 269.315596 
L 892.161307 281.105088 
L 894.833319 280.913716 
L 897.505331 271.476079 
L 902.849354 278.400706 
L 910.86539 279.020145 
L 916.209413 282.384255 
L 918.881425 290.20027 
L 921.553437 286.508814 
L 929.569472 285.95988 
L 932.241483 287.012424 
L 934.913495 285.123889 
L 937.585507 286.070674 
L 940.257519 286.332551 
L 940.257519 286.332551 
" clip-path="url(#p98f1710a24)" style="fill: none; stroke: #1f77b4; stroke-width: 1.5; stroke-linecap: square"/>
   </g>
   <g id="line2d_36">
    <path d="M 98.573822 66.51116 
L 106.589857 66.287558 
L 109.261869 68.69481 
L 114.605892 77.936039 
L 117.277904 81.783613 
L 125.293939 85.108441 
L 127.965951 86.932514 
L 130.637962 87.624473 
L 133.309974 89.953162 
L 135.981986 93.090647 
L 143.998021 101.014434 
L 146.670033 106.622627 
L 152.014056 112.680038 
L 154.686068 118.970117 
L 162.702103 121.789321 
L 165.374115 117.580156 
L 168.046127 116.024003 
L 173.39015 108.122375 
L 181.406185 107.014434 
L 184.078197 107.933018 
L 186.750209 106.735435 
L 189.422221 109.250459 
L 192.094232 108.662244 
L 200.110268 108.171728 
L 202.782279 109.299813 
L 205.454291 111.738289 
L 208.126303 113.177604 
L 210.798315 119.737618 
L 218.81435 124.866374 
L 221.486362 128.195231 
L 224.158373 129.336409 
L 226.830385 131.089976 
L 229.502397 129.104749 
L 237.518432 128.897262 
L 242.862455 129.200435 
L 245.534467 131.325665 
L 248.206479 132.284537 
L 256.222514 134.627327 
L 258.894526 136.11096 
L 261.566538 134.730064 
L 264.238549 132.589725 
L 266.910561 130.961052 
L 274.926596 128.344299 
L 277.598608 126.697497 
L 280.27062 126.62397 
L 282.942631 127.766156 
L 293.630678 128.707905 
L 296.30269 131.322644 
L 298.974702 131.202785 
L 301.646714 132.615912 
L 304.318725 134.634378 
L 312.334761 135.375691 
L 315.006772 133.702701 
L 317.678784 134.368472 
L 320.350796 133.571763 
L 323.022808 130.69414 
L 331.038843 127.825581 
L 333.710854 125.836325 
L 336.382866 123.99513 
L 339.054878 123.678863 
L 341.72689 125.225951 
L 349.742925 127.885007 
L 352.414937 130.939901 
L 355.086948 133.741982 
L 368.447007 135.52073 
L 371.119019 136.8281 
L 373.791031 136.298303 
L 376.463042 131.892729 
L 379.135054 129.016114 
L 387.151089 127.131608 
L 389.823101 128.303003 
L 392.495113 131.052709 
L 395.167124 135.844047 
L 397.839136 138.612891 
L 405.855171 140.396675 
L 411.199195 140.738122 
L 413.871207 140.298974 
L 416.543218 143.421351 
L 424.559254 146.859995 
L 427.231265 151.904145 
L 429.903277 156.439649 
L 432.575289 162.808292 
L 435.2473 164.001845 
L 443.263336 162.433606 
L 445.935347 159.413965 
L 448.607359 155.223937 
L 451.279371 150.232162 
L 453.951383 148.840187 
L 461.967418 151.36629 
L 464.63943 155.997481 
L 467.311441 163.362262 
L 469.983453 168.347993 
L 472.655465 171.56807 
L 480.6715 172.850259 
L 483.343512 173.126237 
L 486.015523 171.966929 
L 488.687535 172.182473 
L 491.359547 173.509987 
L 499.375582 175.050024 
L 502.047594 175.979687 
L 504.719606 175.940405 
L 507.391617 176.770353 
L 510.063629 177.919589 
L 518.079664 180.276481 
L 520.751676 182.803592 
L 523.423688 185.558334 
L 526.095699 188.541715 
L 528.767711 192.887862 
L 536.783746 195.991102 
L 539.455758 196.651838 
L 542.12777 198.522242 
L 544.799782 199.423703 
L 547.471793 197.882659 
L 555.487829 196.138156 
L 558.15984 196.209669 
L 560.831852 194.555816 
L 563.503864 192.653181 
L 566.175876 192.466845 
L 574.191911 193.767164 
L 576.863922 196.323484 
L 579.535934 197.743662 
L 584.879958 203.068826 
L 592.895993 205.049018 
L 595.568005 205.850763 
L 600.912028 211.420681 
L 603.58404 212.527614 
L 611.600075 213.205472 
L 614.272087 213.944771 
L 616.944099 213.386772 
L 619.61611 215.439483 
L 622.288122 219.184321 
L 630.304157 223.915226 
L 632.976169 228.795199 
L 635.648181 234.148565 
L 638.320192 235.164848 
L 640.992204 235.564714 
L 649.008239 234.911029 
L 654.352263 232.46651 
L 657.024275 231.713111 
L 659.696286 231.642605 
L 667.712322 230.266745 
L 673.056345 229.505288 
L 675.728357 227.8605 
L 678.400368 226.888535 
L 689.088415 225.395837 
L 691.760427 224.557831 
L 694.432439 222.717643 
L 697.104451 221.438476 
L 705.120486 221.337754 
L 707.792498 221.026523 
L 710.464509 220.444351 
L 713.136521 220.428236 
L 715.808533 220.908679 
L 723.824568 221.47675 
L 726.49658 221.185664 
L 731.840603 219.122881 
L 734.512615 215.772872 
L 742.52865 214.059594 
L 745.200662 211.782273 
L 747.872674 209.358905 
L 750.544685 210.576632 
L 753.216697 214.108947 
L 761.232732 216.35303 
L 763.904744 216.697499 
L 769.248768 221.325667 
L 771.920779 223.2837 
L 779.936814 225.591237 
L 785.280838 233.979352 
L 790.624861 239.979352 
L 798.640897 243.663757 
L 801.312908 247.117509 
L 803.98492 249.434112 
L 806.656932 251.190701 
L 809.328944 252.210006 
L 817.344979 250.826087 
L 820.016991 249.386772 
L 825.361014 248.908344 
L 828.033026 249.134968 
L 836.049061 249.975995 
L 838.721073 250.964076 
L 841.393084 250.946954 
L 844.065096 249.435119 
L 846.737108 247.756086 
L 854.753143 245.622797 
L 857.425155 244.13715 
L 862.769178 242.00084 
L 865.44119 241.390465 
L 873.457225 240.648145 
L 876.129237 239.279336 
L 881.47326 245.058755 
L 884.145272 251.678194 
L 892.161307 259.854793 
L 894.833319 268.065638 
L 897.505331 275.022496 
L 902.849354 277.371329 
L 910.86539 276.95434 
L 916.209413 277.248448 
L 918.881425 280.993286 
L 921.553437 283.302838 
L 929.569472 284.814673 
L 932.241483 286.413129 
L 934.913495 286.961055 
L 937.585507 286.135136 
L 940.257519 286.099884 
L 940.257519 286.099884 
" clip-path="url(#p98f1710a24)" style="fill: none; stroke: #ff7f0e; stroke-width: 1.5; stroke-linecap: square"/>
   </g>
   <g id="patch_3">
    <path d="M 45.267188 301.717812 
L 45.267188 48.331875 
" style="fill: none; stroke: #000000; stroke-width: 0.8; stroke-linejoin: miter; stroke-linecap: square"/>
   </g>
   <g id="patch_4">
    <path d="M 982.876106 301.717812 
L 982.876106 48.331875 
" style="fill: none; stroke: #000000; stroke-width: 0.8; stroke-linejoin: miter; stroke-linecap: square"/>
   </g>
   <g id="patch_5">
    <path d="M 45.267188 301.717812 
L 982.876106 301.717812 
" style="fill: none; stroke: #000000; stroke-width: 0.8; stroke-linejoin: miter; stroke-linecap: square"/>
   </g>
   <g id="patch_6">
    <path d="M 45.267188 48.331875 
L 982.876106 48.331875 
" style="fill: none; stroke: #000000; stroke-width: 0.8; stroke-linejoin: miter; stroke-linecap: square"/>
   </g>
   <g id="text_6">
    <!-- Closing Price -->
    <g transform="translate(475.595709 42.331875)scale(0.12 -0.12)">
     <defs>
      <path id="DejaVuSans-43" d="M 4122 4306 
L 4122 3641 
Q 3803 3938 3442 4084 
Q 3081 4231 2675 4231 
Q 1875 4231 1450 3742 
Q 1025 3253 1025 2328 
Q 1025 1406 1450 917 
Q 1875 428 2675 428 
Q 3081 428 3442 575 
Q 3803 722 4122 1019 
L 4122 359 
Q 3791 134 3420 21 
Q 3050 -91 2638 -91 
Q 1578 -91 968 557 
Q 359 1206 359 2328 
Q 359 3453 968 4101 
Q 1578 4750 2638 4750 
Q 3056 4750 3426 4639 
Q 3797 4528 4122 4306 
z
" transform="scale(0.015625)"/>
      <path id="DejaVuSans-6c" d="M 603 4863 
L 1178 4863 
L 1178 0 
L 603 0 
L 603 4863 
z
" transform="scale(0.015625)"/>
      <path id="DejaVuSans-6f" d="M 1959 3097 
Q 1497 3097 1228 2736 
Q 959 2375 959 1747 
Q 959 1119 1226 758 
Q 1494 397 1959 397 
Q 2419 397 2687 759 
Q 2956 1122 2956 1747 
Q 2956 2369 2687 2733 
Q 2419 3097 1959 3097 
z
M 1959 3584 
Q 2709 3584 3137 3096 
Q 3566 2609 3566 1747 
Q 3566 888 3137 398 
Q 2709 -91 1959 -91 
Q 1206 -91 779 398 
Q 353 888 353 1747 
Q 353 2609 779 3096 
Q 1206 3584 1959 3584 
z
" transform="scale(0.015625)"/>
      <path id="DejaVuSans-73" d="M 2834 3397 
L 2834 2853 
Q 2591 2978 2328 3040 
Q 2066 3103 1784 3103 
Q 1356 3103 1142 2972 
Q 928 2841 928 2578 
Q 928 2378 1081 2264 
Q 1234 2150 1697 2047 
L 1894 2003 
Q 2506 1872 2764 1633 
Q 3022 1394 3022 966 
Q 3022 478 2636 193 
Q 2250 -91 1575 -91 
Q 1294 -91 989 -36 
Q 684 19 347 128 
L 347 722 
Q 666 556 975 473 
Q 1284 391 1588 391 
Q 1994 391 2212 530 
Q 2431 669 2431 922 
Q 2431 1156 2273 1281 
Q 2116 1406 1581 1522 
L 1381 1569 
Q 847 1681 609 1914 
Q 372 2147 372 2553 
Q 372 3047 722 3315 
Q 1072 3584 1716 3584 
Q 2034 3584 2315 3537 
Q 2597 3491 2834 3397 
z
" transform="scale(0.015625)"/>
      <path id="DejaVuSans-69" d="M 603 3500 
L 1178 3500 
L 1178 0 
L 603 0 
L 603 3500 
z
M 603 4863 
L 1178 4863 
L 1178 4134 
L 603 4134 
L 603 4863 
z
" transform="scale(0.015625)"/>
      <path id="DejaVuSans-6e" d="M 3513 2113 
L 3513 0 
L 2938 0 
L 2938 2094 
Q 2938 2591 2744 2837 
Q 2550 3084 2163 3084 
Q 1697 3084 1428 2787 
Q 1159 2491 1159 1978 
L 1159 0 
L 581 0 
L 581 3500 
L 1159 3500 
L 1159 2956 
Q 1366 3272 1645 3428 
Q 1925 3584 2291 3584 
Q 2894 3584 3203 3211 
Q 3513 2838 3513 2113 
z
" transform="scale(0.015625)"/>
      <path id="DejaVuSans-67" d="M 2906 1791 
Q 2906 2416 2648 2759 
Q 2391 3103 1925 3103 
Q 1463 3103 1205 2759 
Q 947 2416 947 1791 
Q 947 1169 1205 825 
Q 1463 481 1925 481 
Q 2391 481 2648 825 
Q 2906 1169 2906 1791 
z
M 3481 434 
Q 3481 -459 3084 -895 
Q 2688 -1331 1869 -1331 
Q 1566 -1331 1297 -1286 
Q 1028 -1241 775 -1147 
L 775 -588 
Q 1028 -725 1275 -790 
Q 1522 -856 1778 -856 
Q 2344 -856 2625 -561 
Q 2906 -266 2906 331 
L 2906 616 
Q 2728 306 2450 153 
Q 2172 0 1784 0 
Q 1141 0 747 490 
Q 353 981 353 1791 
Q 353 2603 747 3093 
Q 1141 3584 1784 3584 
Q 2172 3584 2450 3431 
Q 2728 3278 2906 2969 
L 2906 3500 
L 3481 3500 
L 3481 434 
z
" transform="scale(0.015625)"/>
      <path id="DejaVuSans-20" transform="scale(0.015625)"/>
      <path id="DejaVuSans-50" d="M 1259 4147 
L 1259 2394 
L 2053 2394 
Q 2494 2394 2734 2622 
Q 2975 2850 2975 3272 
Q 2975 3691 2734 3919 
Q 2494 4147 2053 4147 
L 1259 4147 
z
M 628 4666 
L 2053 4666 
Q 2838 4666 3239 4311 
Q 3641 3956 3641 3272 
Q 3641 2581 3239 2228 
Q 2838 1875 2053 1875 
L 1259 1875 
L 1259 0 
L 628 0 
L 628 4666 
z
" transform="scale(0.015625)"/>
      <path id="DejaVuSans-72" d="M 2631 2963 
Q 2534 3019 2420 3045 
Q 2306 3072 2169 3072 
Q 1681 3072 1420 2755 
Q 1159 2438 1159 1844 
L 1159 0 
L 581 0 
L 581 3500 
L 1159 3500 
L 1159 2956 
Q 1341 3275 1631 3429 
Q 1922 3584 2338 3584 
Q 2397 3584 2469 3576 
Q 2541 3569 2628 3553 
L 2631 2963 
z
" transform="scale(0.015625)"/>
      <path id="DejaVuSans-63" d="M 3122 3366 
L 3122 2828 
Q 2878 2963 2633 3030 
Q 2388 3097 2138 3097 
Q 1578 3097 1268 2742 
Q 959 2388 959 1747 
Q 959 1106 1268 751 
Q 1578 397 2138 397 
Q 2388 397 2633 464 
Q 2878 531 3122 666 
L 3122 134 
Q 2881 22 2623 -34 
Q 2366 -91 2075 -91 
Q 1284 -91 818 406 
Q 353 903 353 1747 
Q 353 2603 823 3093 
Q 1294 3584 2113 3584 
Q 2378 3584 2631 3529 
Q 2884 3475 3122 3366 
z
" transform="scale(0.015625)"/>
      <path id="DejaVuSans-65" d="M 3597 1894 
L 3597 1613 
L 953 1613 
Q 991 1019 1311 708 
Q 1631 397 2203 397 
Q 2534 397 2845 478 
Q 3156 559 3463 722 
L 3463 178 
Q 3153 47 2828 -22 
Q 2503 -91 2169 -91 
Q 1331 -91 842 396 
Q 353 884 353 1716 
Q 353 2575 817 3079 
Q 1281 3584 2069 3584 
Q 2775 3584 3186 3129 
Q 3597 2675 3597 1894 
z
M 3022 2063 
Q 3016 2534 2758 2815 
Q 2500 3097 2075 3097 
Q 1594 3097 1305 2825 
Q 1016 2553 972 2059 
L 3022 2063 
z
" transform="scale(0.015625)"/>
     </defs>
     <use xlink:href="#DejaVuSans-43"/>
     <use xlink:href="#DejaVuSans-6c" x="69.824219"/>
     <use xlink:href="#DejaVuSans-6f" x="97.607422"/>
     <use xlink:href="#DejaVuSans-73" x="158.789062"/>
     <use xlink:href="#DejaVuSans-69" x="210.888672"/>
     <use xlink:href="#DejaVuSans-6e" x="238.671875"/>
     <use xlink:href="#DejaVuSans-67" x="302.050781"/>
     <use xlink:href="#DejaVuSans-20" x="365.527344"/>
     <use xlink:href="#DejaVuSans-50" x="397.314453"/>
     <use xlink:href="#DejaVuSans-72" x="455.867188"/>
     <use xlink:href="#DejaVuSans-69" x="496.980469"/>
     <use xlink:href="#DejaVuSans-63" x="524.763672"/>
     <use xlink:href="#DejaVuSans-65" x="579.744141"/>
    </g>
   </g>
   <g id="legend_1">
    <g id="patch_7">
     <path d="M 911.144856 85.688125 
L 975.876106 85.688125 
Q 977.876106 85.688125 977.876106 83.688125 
L 977.876106 55.331875 
Q 977.876106 53.331875 975.876106 53.331875 
L 911.144856 53.331875 
Q 909.144856 53.331875 909.144856 55.331875 
L 909.144856 83.688125 
Q 909.144856 85.688125 911.144856 85.688125 
z
" style="fill: #ffffff; opacity: 0.8; stroke: #cccccc; stroke-linejoin: miter"/>
    </g>
    <g id="line2d_37">
     <path d="M 913.144856 61.430312 
L 923.144856 61.430312 
L 933.144856 61.430312 
" style="fill: none; stroke: #1f77b4; stroke-width: 1.5; stroke-linecap: square"/>
    </g>
    <g id="text_7">
     <!-- CLOSE -->
     <g transform="translate(941.144856 64.930312)scale(0.1 -0.1)">
      <defs>
       <path id="DejaVuSans-4c" d="M 628 4666 
L 1259 4666 
L 1259 531 
L 3531 531 
L 3531 0 
L 628 0 
L 628 4666 
z
" transform="scale(0.015625)"/>
       <path id="DejaVuSans-4f" d="M 2522 4238 
Q 1834 4238 1429 3725 
Q 1025 3213 1025 2328 
Q 1025 1447 1429 934 
Q 1834 422 2522 422 
Q 3209 422 3611 934 
Q 4013 1447 4013 2328 
Q 4013 3213 3611 3725 
Q 3209 4238 2522 4238 
z
M 2522 4750 
Q 3503 4750 4090 4092 
Q 4678 3434 4678 2328 
Q 4678 1225 4090 567 
Q 3503 -91 2522 -91 
Q 1538 -91 948 565 
Q 359 1222 359 2328 
Q 359 3434 948 4092 
Q 1538 4750 2522 4750 
z
" transform="scale(0.015625)"/>
       <path id="DejaVuSans-53" d="M 3425 4513 
L 3425 3897 
Q 3066 4069 2747 4153 
Q 2428 4238 2131 4238 
Q 1616 4238 1336 4038 
Q 1056 3838 1056 3469 
Q 1056 3159 1242 3001 
Q 1428 2844 1947 2747 
L 2328 2669 
Q 3034 2534 3370 2195 
Q 3706 1856 3706 1288 
Q 3706 609 3251 259 
Q 2797 -91 1919 -91 
Q 1588 -91 1214 -16 
Q 841 59 441 206 
L 441 856 
Q 825 641 1194 531 
Q 1563 422 1919 422 
Q 2459 422 2753 634 
Q 3047 847 3047 1241 
Q 3047 1584 2836 1778 
Q 2625 1972 2144 2069 
L 1759 2144 
Q 1053 2284 737 2584 
Q 422 2884 422 3419 
Q 422 4038 858 4394 
Q 1294 4750 2059 4750 
Q 2388 4750 2728 4690 
Q 3069 4631 3425 4513 
z
" transform="scale(0.015625)"/>
       <path id="DejaVuSans-45" d="M 628 4666 
L 3578 4666 
L 3578 4134 
L 1259 4134 
L 1259 2753 
L 3481 2753 
L 3481 2222 
L 1259 2222 
L 1259 531 
L 3634 531 
L 3634 0 
L 628 0 
L 628 4666 
z
" transform="scale(0.015625)"/>
      </defs>
      <use xlink:href="#DejaVuSans-43"/>
      <use xlink:href="#DejaVuSans-4c" x="69.824219"/>
      <use xlink:href="#DejaVuSans-4f" x="121.912109"/>
      <use xlink:href="#DejaVuSans-53" x="200.623047"/>
      <use xlink:href="#DejaVuSans-45" x="264.099609"/>
     </g>
    </g>
    <g id="line2d_38">
     <path d="M 913.144856 76.108437 
L 923.144856 76.108437 
L 933.144856 76.108437 
" style="fill: none; stroke: #ff7f0e; stroke-width: 1.5; stroke-linecap: square"/>
    </g>
    <g id="text_8">
     <!-- SMA5 -->
     <g transform="translate(941.144856 79.608437)scale(0.1 -0.1)">
      <defs>
       <path id="DejaVuSans-4d" d="M 628 4666 
L 1569 4666 
L 2759 1491 
L 3956 4666 
L 4897 4666 
L 4897 0 
L 4281 0 
L 4281 4097 
L 3078 897 
L 2444 897 
L 1241 4097 
L 1241 0 
L 628 0 
L 628 4666 
z
" transform="scale(0.015625)"/>
       <path id="DejaVuSans-41" d="M 2188 4044 
L 1331 1722 
L 3047 1722 
L 2188 4044 
z
M 1831 4666 
L 2547 4666 
L 4325 0 
L 3669 0 
L 3244 1197 
L 1141 1197 
L 716 0 
L 50 0 
L 1831 4666 
z
" transform="scale(0.015625)"/>
      </defs>
      <use xlink:href="#DejaVuSans-53"/>
      <use xlink:href="#DejaVuSans-4d" x="63.476562"/>
      <use xlink:href="#DejaVuSans-41" x="149.755859"/>
      <use xlink:href="#DejaVuSans-35" x="218.164062"/>
     </g>
    </g>
   </g>
  </g>
  <g id="axes_2">
   <g id="patch_8">
    <path d="M 45.267188 584.521875 
L 982.876106 584.521875 
L 982.876106 331.135938 
L 45.267188 331.135938 
z
" style="fill: #ffffff"/>
   </g>
   <g id="matplotlib.axis_3">
    <g id="xtick_13">
     <g id="line2d_39">
      <path d="M 82.541751 584.521875 
L 82.541751 331.135938 
" clip-path="url(#p8915355bca)" style="fill: none; stroke-dasharray: 2.96,1.28; stroke-dashoffset: 0; stroke: #b0b0b0; stroke-width: 0.8"/>
     </g>
     <g id="line2d_40">
      <g>
       <use xlink:href="#m24ebb66000" x="82.541751" y="584.521875" style="stroke: #000000; stroke-width: 0.8"/>
      </g>
     </g>
     <g id="text_9">
      <!-- 2022-01 -->
      <g transform="translate(61.650345 599.120312)scale(0.1 -0.1)">
       <defs>
        <path id="DejaVuSans-2d" d="M 313 2009 
L 1997 2009 
L 1997 1497 
L 313 1497 
L 313 2009 
z
" transform="scale(0.015625)"/>
        <path id="DejaVuSans-31" d="M 794 531 
L 1825 531 
L 1825 4091 
L 703 3866 
L 703 4441 
L 1819 4666 
L 2450 4666 
L 2450 531 
L 3481 531 
L 3481 0 
L 794 0 
L 794 531 
z
" transform="scale(0.015625)"/>
       </defs>
       <use xlink:href="#DejaVuSans-32"/>
       <use xlink:href="#DejaVuSans-30" x="63.623047"/>
       <use xlink:href="#DejaVuSans-32" x="127.246094"/>
       <use xlink:href="#DejaVuSans-32" x="190.869141"/>
       <use xlink:href="#DejaVuSans-2d" x="254.492188"/>
       <use xlink:href="#DejaVuSans-30" x="290.576172"/>
       <use xlink:href="#DejaVuSans-31" x="354.199219"/>
      </g>
     </g>
    </g>
    <g id="xtick_14">
     <g id="line2d_41">
      <path d="M 165.374115 584.521875 
L 165.374115 331.135938 
" clip-path="url(#p8915355bca)" style="fill: none; stroke-dasharray: 2.96,1.28; stroke-dashoffset: 0; stroke: #b0b0b0; stroke-width: 0.8"/>
     </g>
     <g id="line2d_42">
      <g>
       <use xlink:href="#m24ebb66000" x="165.374115" y="584.521875" style="stroke: #000000; stroke-width: 0.8"/>
      </g>
     </g>
     <g id="text_10">
      <!-- 2022-02 -->
      <g transform="translate(144.482709 599.120312)scale(0.1 -0.1)">
       <use xlink:href="#DejaVuSans-32"/>
       <use xlink:href="#DejaVuSans-30" x="63.623047"/>
       <use xlink:href="#DejaVuSans-32" x="127.246094"/>
       <use xlink:href="#DejaVuSans-32" x="190.869141"/>
       <use xlink:href="#DejaVuSans-2d" x="254.492188"/>
       <use xlink:href="#DejaVuSans-30" x="290.576172"/>
       <use xlink:href="#DejaVuSans-32" x="354.199219"/>
      </g>
     </g>
    </g>
    <g id="xtick_15">
     <g id="line2d_43">
      <path d="M 240.190444 584.521875 
L 240.190444 331.135938 
" clip-path="url(#p8915355bca)" style="fill: none; stroke-dasharray: 2.96,1.28; stroke-dashoffset: 0; stroke: #b0b0b0; stroke-width: 0.8"/>
     </g>
     <g id="line2d_44">
      <g>
       <use xlink:href="#m24ebb66000" x="240.190444" y="584.521875" style="stroke: #000000; stroke-width: 0.8"/>
      </g>
     </g>
     <g id="text_11">
      <!-- 2022-03 -->
      <g transform="translate(219.299037 599.120312)scale(0.1 -0.1)">
       <use xlink:href="#DejaVuSans-32"/>
       <use xlink:href="#DejaVuSans-30" x="63.623047"/>
       <use xlink:href="#DejaVuSans-32" x="127.246094"/>
       <use xlink:href="#DejaVuSans-32" x="190.869141"/>
       <use xlink:href="#DejaVuSans-2d" x="254.492188"/>
       <use xlink:href="#DejaVuSans-30" x="290.576172"/>
       <use xlink:href="#DejaVuSans-33" x="354.199219"/>
      </g>
     </g>
    </g>
    <g id="xtick_16">
     <g id="line2d_45">
      <path d="M 323.022808 584.521875 
L 323.022808 331.135938 
" clip-path="url(#p8915355bca)" style="fill: none; stroke-dasharray: 2.96,1.28; stroke-dashoffset: 0; stroke: #b0b0b0; stroke-width: 0.8"/>
     </g>
     <g id="line2d_46">
      <g>
       <use xlink:href="#m24ebb66000" x="323.022808" y="584.521875" style="stroke: #000000; stroke-width: 0.8"/>
      </g>
     </g>
     <g id="text_12">
      <!-- 2022-04 -->
      <g transform="translate(302.131401 599.120312)scale(0.1 -0.1)">
       <use xlink:href="#DejaVuSans-32"/>
       <use xlink:href="#DejaVuSans-30" x="63.623047"/>
       <use xlink:href="#DejaVuSans-32" x="127.246094"/>
       <use xlink:href="#DejaVuSans-32" x="190.869141"/>
       <use xlink:href="#DejaVuSans-2d" x="254.492188"/>
       <use xlink:href="#DejaVuSans-30" x="290.576172"/>
       <use xlink:href="#DejaVuSans-34" x="354.199219"/>
      </g>
     </g>
    </g>
    <g id="xtick_17">
     <g id="line2d_47">
      <path d="M 403.18316 584.521875 
L 403.18316 331.135938 
" clip-path="url(#p8915355bca)" style="fill: none; stroke-dasharray: 2.96,1.28; stroke-dashoffset: 0; stroke: #b0b0b0; stroke-width: 0.8"/>
     </g>
     <g id="line2d_48">
      <g>
       <use xlink:href="#m24ebb66000" x="403.18316" y="584.521875" style="stroke: #000000; stroke-width: 0.8"/>
      </g>
     </g>
     <g id="text_13">
      <!-- 2022-05 -->
      <g transform="translate(382.291753 599.120312)scale(0.1 -0.1)">
       <use xlink:href="#DejaVuSans-32"/>
       <use xlink:href="#DejaVuSans-30" x="63.623047"/>
       <use xlink:href="#DejaVuSans-32" x="127.246094"/>
       <use xlink:href="#DejaVuSans-32" x="190.869141"/>
       <use xlink:href="#DejaVuSans-2d" x="254.492188"/>
       <use xlink:href="#DejaVuSans-30" x="290.576172"/>
       <use xlink:href="#DejaVuSans-35" x="354.199219"/>
      </g>
     </g>
    </g>
    <g id="xtick_18">
     <g id="line2d_49">
      <path d="M 486.015523 584.521875 
L 486.015523 331.135938 
" clip-path="url(#p8915355bca)" style="fill: none; stroke-dasharray: 2.96,1.28; stroke-dashoffset: 0; stroke: #b0b0b0; stroke-width: 0.8"/>
     </g>
     <g id="line2d_50">
      <g>
       <use xlink:href="#m24ebb66000" x="486.015523" y="584.521875" style="stroke: #000000; stroke-width: 0.8"/>
      </g>
     </g>
     <g id="text_14">
      <!-- 2022-06 -->
      <g transform="translate(465.124117 599.120312)scale(0.1 -0.1)">
       <defs>
        <path id="DejaVuSans-36" d="M 2113 2584 
Q 1688 2584 1439 2293 
Q 1191 2003 1191 1497 
Q 1191 994 1439 701 
Q 1688 409 2113 409 
Q 2538 409 2786 701 
Q 3034 994 3034 1497 
Q 3034 2003 2786 2293 
Q 2538 2584 2113 2584 
z
M 3366 4563 
L 3366 3988 
Q 3128 4100 2886 4159 
Q 2644 4219 2406 4219 
Q 1781 4219 1451 3797 
Q 1122 3375 1075 2522 
Q 1259 2794 1537 2939 
Q 1816 3084 2150 3084 
Q 2853 3084 3261 2657 
Q 3669 2231 3669 1497 
Q 3669 778 3244 343 
Q 2819 -91 2113 -91 
Q 1303 -91 875 529 
Q 447 1150 447 2328 
Q 447 3434 972 4092 
Q 1497 4750 2381 4750 
Q 2619 4750 2861 4703 
Q 3103 4656 3366 4563 
z
" transform="scale(0.015625)"/>
       </defs>
       <use xlink:href="#DejaVuSans-32"/>
       <use xlink:href="#DejaVuSans-30" x="63.623047"/>
       <use xlink:href="#DejaVuSans-32" x="127.246094"/>
       <use xlink:href="#DejaVuSans-32" x="190.869141"/>
       <use xlink:href="#DejaVuSans-2d" x="254.492188"/>
       <use xlink:href="#DejaVuSans-30" x="290.576172"/>
       <use xlink:href="#DejaVuSans-36" x="354.199219"/>
      </g>
     </g>
    </g>
    <g id="xtick_19">
     <g id="line2d_51">
      <path d="M 566.175876 584.521875 
L 566.175876 331.135938 
" clip-path="url(#p8915355bca)" style="fill: none; stroke-dasharray: 2.96,1.28; stroke-dashoffset: 0; stroke: #b0b0b0; stroke-width: 0.8"/>
     </g>
     <g id="line2d_52">
      <g>
       <use xlink:href="#m24ebb66000" x="566.175876" y="584.521875" style="stroke: #000000; stroke-width: 0.8"/>
      </g>
     </g>
     <g id="text_15">
      <!-- 2022-07 -->
      <g transform="translate(545.284469 599.120312)scale(0.1 -0.1)">
       <defs>
        <path id="DejaVuSans-37" d="M 525 4666 
L 3525 4666 
L 3525 4397 
L 1831 0 
L 1172 0 
L 2766 4134 
L 525 4134 
L 525 4666 
z
" transform="scale(0.015625)"/>
       </defs>
       <use xlink:href="#DejaVuSans-32"/>
       <use xlink:href="#DejaVuSans-30" x="63.623047"/>
       <use xlink:href="#DejaVuSans-32" x="127.246094"/>
       <use xlink:href="#DejaVuSans-32" x="190.869141"/>
       <use xlink:href="#DejaVuSans-2d" x="254.492188"/>
       <use xlink:href="#DejaVuSans-30" x="290.576172"/>
       <use xlink:href="#DejaVuSans-37" x="354.199219"/>
      </g>
     </g>
    </g>
    <g id="xtick_20">
     <g id="line2d_53">
      <path d="M 649.008239 584.521875 
L 649.008239 331.135938 
" clip-path="url(#p8915355bca)" style="fill: none; stroke-dasharray: 2.96,1.28; stroke-dashoffset: 0; stroke: #b0b0b0; stroke-width: 0.8"/>
     </g>
     <g id="line2d_54">
      <g>
       <use xlink:href="#m24ebb66000" x="649.008239" y="584.521875" style="stroke: #000000; stroke-width: 0.8"/>
      </g>
     </g>
     <g id="text_16">
      <!-- 2022-08 -->
      <g transform="translate(628.116833 599.120312)scale(0.1 -0.1)">
       <defs>
        <path id="DejaVuSans-38" d="M 2034 2216 
Q 1584 2216 1326 1975 
Q 1069 1734 1069 1313 
Q 1069 891 1326 650 
Q 1584 409 2034 409 
Q 2484 409 2743 651 
Q 3003 894 3003 1313 
Q 3003 1734 2745 1975 
Q 2488 2216 2034 2216 
z
M 1403 2484 
Q 997 2584 770 2862 
Q 544 3141 544 3541 
Q 544 4100 942 4425 
Q 1341 4750 2034 4750 
Q 2731 4750 3128 4425 
Q 3525 4100 3525 3541 
Q 3525 3141 3298 2862 
Q 3072 2584 2669 2484 
Q 3125 2378 3379 2068 
Q 3634 1759 3634 1313 
Q 3634 634 3220 271 
Q 2806 -91 2034 -91 
Q 1263 -91 848 271 
Q 434 634 434 1313 
Q 434 1759 690 2068 
Q 947 2378 1403 2484 
z
M 1172 3481 
Q 1172 3119 1398 2916 
Q 1625 2713 2034 2713 
Q 2441 2713 2670 2916 
Q 2900 3119 2900 3481 
Q 2900 3844 2670 4047 
Q 2441 4250 2034 4250 
Q 1625 4250 1398 4047 
Q 1172 3844 1172 3481 
z
" transform="scale(0.015625)"/>
       </defs>
       <use xlink:href="#DejaVuSans-32"/>
       <use xlink:href="#DejaVuSans-30" x="63.623047"/>
       <use xlink:href="#DejaVuSans-32" x="127.246094"/>
       <use xlink:href="#DejaVuSans-32" x="190.869141"/>
       <use xlink:href="#DejaVuSans-2d" x="254.492188"/>
       <use xlink:href="#DejaVuSans-30" x="290.576172"/>
       <use xlink:href="#DejaVuSans-38" x="354.199219"/>
      </g>
     </g>
    </g>
    <g id="xtick_21">
     <g id="line2d_55">
      <path d="M 731.840603 584.521875 
L 731.840603 331.135938 
" clip-path="url(#p8915355bca)" style="fill: none; stroke-dasharray: 2.96,1.28; stroke-dashoffset: 0; stroke: #b0b0b0; stroke-width: 0.8"/>
     </g>
     <g id="line2d_56">
      <g>
       <use xlink:href="#m24ebb66000" x="731.840603" y="584.521875" style="stroke: #000000; stroke-width: 0.8"/>
      </g>
     </g>
     <g id="text_17">
      <!-- 2022-09 -->
      <g transform="translate(710.949197 599.120312)scale(0.1 -0.1)">
       <defs>
        <path id="DejaVuSans-39" d="M 703 97 
L 703 672 
Q 941 559 1184 500 
Q 1428 441 1663 441 
Q 2288 441 2617 861 
Q 2947 1281 2994 2138 
Q 2813 1869 2534 1725 
Q 2256 1581 1919 1581 
Q 1219 1581 811 2004 
Q 403 2428 403 3163 
Q 403 3881 828 4315 
Q 1253 4750 1959 4750 
Q 2769 4750 3195 4129 
Q 3622 3509 3622 2328 
Q 3622 1225 3098 567 
Q 2575 -91 1691 -91 
Q 1453 -91 1209 -44 
Q 966 3 703 97 
z
M 1959 2075 
Q 2384 2075 2632 2365 
Q 2881 2656 2881 3163 
Q 2881 3666 2632 3958 
Q 2384 4250 1959 4250 
Q 1534 4250 1286 3958 
Q 1038 3666 1038 3163 
Q 1038 2656 1286 2365 
Q 1534 2075 1959 2075 
z
" transform="scale(0.015625)"/>
       </defs>
       <use xlink:href="#DejaVuSans-32"/>
       <use xlink:href="#DejaVuSans-30" x="63.623047"/>
       <use xlink:href="#DejaVuSans-32" x="127.246094"/>
       <use xlink:href="#DejaVuSans-32" x="190.869141"/>
       <use xlink:href="#DejaVuSans-2d" x="254.492188"/>
       <use xlink:href="#DejaVuSans-30" x="290.576172"/>
       <use xlink:href="#DejaVuSans-39" x="354.199219"/>
      </g>
     </g>
    </g>
    <g id="xtick_22">
     <g id="line2d_57">
      <path d="M 812.000955 584.521875 
L 812.000955 331.135938 
" clip-path="url(#p8915355bca)" style="fill: none; stroke-dasharray: 2.96,1.28; stroke-dashoffset: 0; stroke: #b0b0b0; stroke-width: 0.8"/>
     </g>
     <g id="line2d_58">
      <g>
       <use xlink:href="#m24ebb66000" x="812.000955" y="584.521875" style="stroke: #000000; stroke-width: 0.8"/>
      </g>
     </g>
     <g id="text_18">
      <!-- 2022-10 -->
      <g transform="translate(791.109549 599.120312)scale(0.1 -0.1)">
       <use xlink:href="#DejaVuSans-32"/>
       <use xlink:href="#DejaVuSans-30" x="63.623047"/>
       <use xlink:href="#DejaVuSans-32" x="127.246094"/>
       <use xlink:href="#DejaVuSans-32" x="190.869141"/>
       <use xlink:href="#DejaVuSans-2d" x="254.492188"/>
       <use xlink:href="#DejaVuSans-31" x="290.576172"/>
       <use xlink:href="#DejaVuSans-30" x="354.199219"/>
      </g>
     </g>
    </g>
    <g id="xtick_23">
     <g id="line2d_59">
      <path d="M 894.833319 584.521875 
L 894.833319 331.135938 
" clip-path="url(#p8915355bca)" style="fill: none; stroke-dasharray: 2.96,1.28; stroke-dashoffset: 0; stroke: #b0b0b0; stroke-width: 0.8"/>
     </g>
     <g id="line2d_60">
      <g>
       <use xlink:href="#m24ebb66000" x="894.833319" y="584.521875" style="stroke: #000000; stroke-width: 0.8"/>
      </g>
     </g>
     <g id="text_19">
      <!-- 2022-11 -->
      <g transform="translate(873.941913 599.120312)scale(0.1 -0.1)">
       <use xlink:href="#DejaVuSans-32"/>
       <use xlink:href="#DejaVuSans-30" x="63.623047"/>
       <use xlink:href="#DejaVuSans-32" x="127.246094"/>
       <use xlink:href="#DejaVuSans-32" x="190.869141"/>
       <use xlink:href="#DejaVuSans-2d" x="254.492188"/>
       <use xlink:href="#DejaVuSans-31" x="290.576172"/>
       <use xlink:href="#DejaVuSans-31" x="354.199219"/>
      </g>
     </g>
    </g>
    <g id="xtick_24">
     <g id="line2d_61">
      <path d="M 974.993671 584.521875 
L 974.993671 331.135938 
" clip-path="url(#p8915355bca)" style="fill: none; stroke-dasharray: 2.96,1.28; stroke-dashoffset: 0; stroke: #b0b0b0; stroke-width: 0.8"/>
     </g>
     <g id="line2d_62">
      <g>
       <use xlink:href="#m24ebb66000" x="974.993671" y="584.521875" style="stroke: #000000; stroke-width: 0.8"/>
      </g>
     </g>
     <g id="text_20">
      <!-- 2022-12 -->
      <g transform="translate(954.102265 599.120312)scale(0.1 -0.1)">
       <use xlink:href="#DejaVuSans-32"/>
       <use xlink:href="#DejaVuSans-30" x="63.623047"/>
       <use xlink:href="#DejaVuSans-32" x="127.246094"/>
       <use xlink:href="#DejaVuSans-32" x="190.869141"/>
       <use xlink:href="#DejaVuSans-2d" x="254.492188"/>
       <use xlink:href="#DejaVuSans-31" x="290.576172"/>
       <use xlink:href="#DejaVuSans-32" x="354.199219"/>
      </g>
     </g>
    </g>
   </g>
   <g id="matplotlib.axis_4">
    <g id="ytick_6">
     <g id="line2d_63">
      <path d="M 45.267188 573.310774 
L 982.876106 573.310774 
" clip-path="url(#p8915355bca)" style="fill: none; stroke-dasharray: 2.96,1.28; stroke-dashoffset: 0; stroke: #b0b0b0; stroke-width: 0.8"/>
     </g>
     <g id="line2d_64">
      <g>
       <use xlink:href="#md56f78707a" x="45.267188" y="573.310774" style="stroke: #000000; stroke-width: 0.8"/>
      </g>
     </g>
     <g id="text_21">
      <!-- −120 -->
      <g transform="translate(10.8 577.109993)scale(0.1 -0.1)">
       <defs>
        <path id="DejaVuSans-2212" d="M 678 2272 
L 4684 2272 
L 4684 1741 
L 678 1741 
L 678 2272 
z
" transform="scale(0.015625)"/>
       </defs>
       <use xlink:href="#DejaVuSans-2212"/>
       <use xlink:href="#DejaVuSans-31" x="83.789062"/>
       <use xlink:href="#DejaVuSans-32" x="147.412109"/>
       <use xlink:href="#DejaVuSans-30" x="211.035156"/>
      </g>
     </g>
    </g>
    <g id="ytick_7">
     <g id="line2d_65">
      <path d="M 45.267188 541.167629 
L 982.876106 541.167629 
" clip-path="url(#p8915355bca)" style="fill: none; stroke-dasharray: 2.96,1.28; stroke-dashoffset: 0; stroke: #b0b0b0; stroke-width: 0.8"/>
     </g>
     <g id="line2d_66">
      <g>
       <use xlink:href="#md56f78707a" x="45.267188" y="541.167629" style="stroke: #000000; stroke-width: 0.8"/>
      </g>
     </g>
     <g id="text_22">
      <!-- −100 -->
      <g transform="translate(10.8 544.966848)scale(0.1 -0.1)">
       <use xlink:href="#DejaVuSans-2212"/>
       <use xlink:href="#DejaVuSans-31" x="83.789062"/>
       <use xlink:href="#DejaVuSans-30" x="147.412109"/>
       <use xlink:href="#DejaVuSans-30" x="211.035156"/>
      </g>
     </g>
    </g>
    <g id="ytick_8">
     <g id="line2d_67">
      <path d="M 45.267188 509.024485 
L 982.876106 509.024485 
" clip-path="url(#p8915355bca)" style="fill: none; stroke-dasharray: 2.96,1.28; stroke-dashoffset: 0; stroke: #b0b0b0; stroke-width: 0.8"/>
     </g>
     <g id="line2d_68">
      <g>
       <use xlink:href="#md56f78707a" x="45.267188" y="509.024485" style="stroke: #000000; stroke-width: 0.8"/>
      </g>
     </g>
     <g id="text_23">
      <!-- −80 -->
      <g transform="translate(17.1625 512.823703)scale(0.1 -0.1)">
       <use xlink:href="#DejaVuSans-2212"/>
       <use xlink:href="#DejaVuSans-38" x="83.789062"/>
       <use xlink:href="#DejaVuSans-30" x="147.412109"/>
      </g>
     </g>
    </g>
    <g id="ytick_9">
     <g id="line2d_69">
      <path d="M 45.267188 476.88134 
L 982.876106 476.88134 
" clip-path="url(#p8915355bca)" style="fill: none; stroke-dasharray: 2.96,1.28; stroke-dashoffset: 0; stroke: #b0b0b0; stroke-width: 0.8"/>
     </g>
     <g id="line2d_70">
      <g>
       <use xlink:href="#md56f78707a" x="45.267188" y="476.88134" style="stroke: #000000; stroke-width: 0.8"/>
      </g>
     </g>
     <g id="text_24">
      <!-- −60 -->
      <g transform="translate(17.1625 480.680559)scale(0.1 -0.1)">
       <use xlink:href="#DejaVuSans-2212"/>
       <use xlink:href="#DejaVuSans-36" x="83.789062"/>
       <use xlink:href="#DejaVuSans-30" x="147.412109"/>
      </g>
     </g>
    </g>
    <g id="ytick_10">
     <g id="line2d_71">
      <path d="M 45.267188 444.738195 
L 982.876106 444.738195 
" clip-path="url(#p8915355bca)" style="fill: none; stroke-dasharray: 2.96,1.28; stroke-dashoffset: 0; stroke: #b0b0b0; stroke-width: 0.8"/>
     </g>
     <g id="line2d_72">
      <g>
       <use xlink:href="#md56f78707a" x="45.267188" y="444.738195" style="stroke: #000000; stroke-width: 0.8"/>
      </g>
     </g>
     <g id="text_25">
      <!-- −40 -->
      <g transform="translate(17.1625 448.537414)scale(0.1 -0.1)">
       <use xlink:href="#DejaVuSans-2212"/>
       <use xlink:href="#DejaVuSans-34" x="83.789062"/>
       <use xlink:href="#DejaVuSans-30" x="147.412109"/>
      </g>
     </g>
    </g>
    <g id="ytick_11">
     <g id="line2d_73">
      <path d="M 45.267188 412.59505 
L 982.876106 412.59505 
" clip-path="url(#p8915355bca)" style="fill: none; stroke-dasharray: 2.96,1.28; stroke-dashoffset: 0; stroke: #b0b0b0; stroke-width: 0.8"/>
     </g>
     <g id="line2d_74">
      <g>
       <use xlink:href="#md56f78707a" x="45.267188" y="412.59505" style="stroke: #000000; stroke-width: 0.8"/>
      </g>
     </g>
     <g id="text_26">
      <!-- −20 -->
      <g transform="translate(17.1625 416.394269)scale(0.1 -0.1)">
       <use xlink:href="#DejaVuSans-2212"/>
       <use xlink:href="#DejaVuSans-32" x="83.789062"/>
       <use xlink:href="#DejaVuSans-30" x="147.412109"/>
      </g>
     </g>
    </g>
    <g id="ytick_12">
     <g id="line2d_75">
      <path d="M 45.267188 380.451906 
L 982.876106 380.451906 
" clip-path="url(#p8915355bca)" style="fill: none; stroke-dasharray: 2.96,1.28; stroke-dashoffset: 0; stroke: #b0b0b0; stroke-width: 0.8"/>
     </g>
     <g id="line2d_76">
      <g>
       <use xlink:href="#md56f78707a" x="45.267188" y="380.451906" style="stroke: #000000; stroke-width: 0.8"/>
      </g>
     </g>
     <g id="text_27">
      <!-- 0 -->
      <g transform="translate(31.904688 384.251124)scale(0.1 -0.1)">
       <use xlink:href="#DejaVuSans-30"/>
      </g>
     </g>
    </g>
    <g id="ytick_13">
     <g id="line2d_77">
      <path d="M 45.267188 348.308761 
L 982.876106 348.308761 
" clip-path="url(#p8915355bca)" style="fill: none; stroke-dasharray: 2.96,1.28; stroke-dashoffset: 0; stroke: #b0b0b0; stroke-width: 0.8"/>
     </g>
     <g id="line2d_78">
      <g>
       <use xlink:href="#md56f78707a" x="45.267188" y="348.308761" style="stroke: #000000; stroke-width: 0.8"/>
      </g>
     </g>
     <g id="text_28">
      <!-- 20 -->
      <g transform="translate(25.542188 352.10798)scale(0.1 -0.1)">
       <use xlink:href="#DejaVuSans-32"/>
       <use xlink:href="#DejaVuSans-30" x="63.623047"/>
      </g>
     </g>
    </g>
   </g>
   <g id="line2d_79">
    <path d="M 87.885775 380.451906 
L 90.557786 379.216919 
L 93.229798 376.074908 
L 95.90181 372.475616 
L 98.573822 374.921391 
L 106.589857 380.100109 
L 111.93388 401.171956 
L 114.605892 405.456131 
L 117.277904 410.279662 
L 125.293939 415.615901 
L 127.965951 420.978741 
L 130.637962 424.014369 
L 133.309974 429.982161 
L 135.981986 440.154856 
L 143.998021 472.866199 
L 146.670033 487.406746 
L 152.014056 499.038212 
L 154.686068 512.442185 
L 162.702103 510.054828 
L 165.374115 497.640299 
L 168.046127 490.793658 
L 170.718139 472.694632 
L 173.39015 464.791187 
L 181.406185 461.094058 
L 184.078197 459.053981 
L 186.750209 448.9761 
L 189.422221 449.415251 
L 192.094232 438.702775 
L 200.110268 433.82522 
L 202.782279 440.699081 
L 205.454291 445.207361 
L 208.126303 451.499835 
L 210.798315 475.429508 
L 218.81435 488.790854 
L 221.486362 498.816797 
L 224.158373 491.94617 
L 226.830385 492.595348 
L 229.502397 489.380616 
L 237.518432 492.102543 
L 242.862455 496.912263 
L 245.534467 496.927164 
L 248.206479 495.857935 
L 256.222514 499.759512 
L 258.894526 502.718269 
L 261.566538 489.905493 
L 264.238549 471.461874 
L 266.910561 459.414703 
L 274.926596 449.045137 
L 277.598608 447.472232 
L 280.27062 441.453077 
L 282.942631 436.432123 
L 293.630678 434.068094 
L 296.30269 442.064925 
L 298.974702 437.835848 
L 301.646714 439.457501 
L 304.318725 444.255055 
L 312.334761 441.463187 
L 315.006772 433.876779 
L 317.678784 432.240122 
L 320.350796 426.750536 
L 323.022808 412.998863 
L 331.038843 396.069997 
L 333.710854 383.470163 
L 336.382866 379.431941 
L 339.054878 382.302689 
L 341.72689 387.38064 
L 349.742925 392.523614 
L 352.414937 399.76505 
L 355.086948 409.494624 
L 368.447007 416.332583 
L 371.119019 421.146434 
L 373.791031 414.046628 
L 376.463042 386.866378 
L 379.135054 379.484188 
L 387.151089 379.554992 
L 389.823101 398.887062 
L 392.495113 413.426119 
L 397.839136 419.030081 
L 405.855171 420.436602 
L 411.199195 431.200363 
L 413.871207 433.697811 
L 416.543218 449.385858 
L 424.559254 464.053557 
L 427.231265 484.387854 
L 432.575289 527.83843 
L 435.2473 524.690647 
L 443.263336 506.183227 
L 445.935347 490.820276 
L 448.607359 476.975124 
L 451.279371 466.225637 
L 453.951383 461.156632 
L 461.967418 466.784622 
L 464.63943 484.170092 
L 467.311441 513.446361 
L 469.983453 520.932167 
L 472.655465 518.295287 
L 480.6715 512.851448 
L 483.343512 514.638645 
L 486.015523 522.218397 
L 488.687535 521.350647 
L 491.359547 519.23805 
L 499.375582 515.546203 
L 502.047594 514.792679 
L 504.719606 514.215808 
L 507.391617 512.579082 
L 510.063629 511.995658 
L 518.079664 517.268859 
L 523.423688 531.69954 
L 526.095699 537.330395 
L 528.767711 550.830932 
L 536.783746 558.787172 
L 539.455758 552.207512 
L 542.12777 555.786334 
L 544.799782 552.220731 
L 547.471793 542.803408 
L 555.487829 531.600788 
L 560.831852 512.3583 
L 563.503864 497.442752 
L 566.175876 490.679597 
L 574.191911 491.61145 
L 576.863922 499.843555 
L 579.535934 497.413704 
L 582.207946 496.196218 
L 584.879958 500.044887 
L 592.895993 504.908764 
L 595.568005 508.570364 
L 598.240016 515.190487 
L 600.912028 520.642939 
L 603.58404 518.868553 
L 611.600075 516.381721 
L 614.272087 514.544511 
L 616.944099 508.532151 
L 619.61611 520.778419 
L 622.288122 535.094339 
L 630.304157 551.30454 
L 632.976169 564.666743 
L 635.648181 573.004332 
L 638.320192 568.156457 
L 640.992204 564.6166 
L 649.008239 559.795743 
L 654.352263 545.669118 
L 657.024275 531.817344 
L 659.696286 525.983436 
L 667.712322 511.497819 
L 673.056345 501.321955 
L 678.400368 472.031923 
L 689.088415 462.858253 
L 691.760427 450.642046 
L 694.432439 436.559505 
L 697.104451 423.271382 
L 705.120486 417.718664 
L 707.792498 415.033304 
L 710.464509 406.721169 
L 713.136521 399.800473 
L 715.808533 395.70266 
L 723.824568 398.222203 
L 726.49658 396.615469 
L 731.840603 378.082584 
L 734.512615 355.288183 
L 742.52865 349.677706 
L 745.200662 347.946854 
L 747.872674 342.65348 
L 750.544685 345.020377 
L 753.216697 353.708095 
L 761.232732 364.582332 
L 763.904744 363.50717 
L 766.576756 370.67207 
L 769.248768 383.307356 
L 771.920779 396.924285 
L 779.936814 413.392326 
L 782.608826 427.835929 
L 785.280838 447.054528 
L 790.624861 473.639848 
L 798.640897 493.300866 
L 801.312908 507.86749 
L 803.98492 519.033196 
L 806.656932 521.483995 
L 809.328944 521.155901 
L 817.344979 514.192776 
L 820.016991 507.309379 
L 825.361014 507.791309 
L 828.033026 506.486957 
L 836.049061 507.297991 
L 838.721073 502.321174 
L 841.393084 490.731799 
L 846.737108 465.977649 
L 854.753143 455.803153 
L 857.425155 446.928106 
L 862.769178 423.929659 
L 865.44119 415.860503 
L 873.457225 408.673455 
L 876.129237 398.688878 
L 881.47326 432.18438 
L 884.145272 461.639067 
L 892.161307 494.996118 
L 894.833319 519.581621 
L 897.505331 525.245316 
L 900.177343 532.468554 
L 902.849354 540.773646 
L 910.86539 546.241924 
L 916.209413 552.918932 
L 918.881425 566.133576 
L 921.553437 569.67214 
L 929.569472 569.589439 
L 932.241483 568.708986 
L 934.913495 563.469926 
L 937.585507 558.484712 
L 940.257519 552.88339 
L 940.257519 552.88339 
" clip-path="url(#p8915355bca)" style="fill: none; stroke: #1f77b4; stroke-width: 1.5; stroke-linecap: square"/>
   </g>
   <g id="line2d_80">
    <path d="M 87.885775 380.451906 
L 90.557786 379.765802 
L 93.229798 378.25314 
L 95.90181 376.295985 
L 98.573822 375.887074 
L 106.589857 377.029041 
L 109.261869 380.423573 
L 111.93388 385.4098 
L 117.277904 394.575326 
L 125.293939 399.178884 
L 127.965951 403.860579 
L 130.637962 408.125821 
L 133.309974 412.698184 
L 135.981986 418.389773 
L 143.998021 429.600616 
L 146.670033 441.428175 
L 152.014056 453.161552 
L 154.686068 465.191042 
L 162.702103 474.268455 
L 165.374115 478.986338 
L 168.046127 481.365356 
L 170.718139 479.620914 
L 173.39015 476.640896 
L 181.406185 473.519737 
L 184.078197 470.617815 
L 186.750209 466.278982 
L 189.422221 462.899699 
L 192.094232 458.052814 
L 200.110268 453.201289 
L 202.782279 450.698369 
L 205.454291 449.599296 
L 208.126303 449.979645 
L 210.798315 455.0722 
L 218.81435 461.818668 
L 221.486362 469.220696 
L 224.158373 473.766971 
L 226.830385 477.533429 
L 229.502397 479.90326 
L 237.518432 482.343441 
L 242.862455 485.257515 
L 245.534467 487.591644 
L 248.206479 489.245014 
L 256.222514 491.348029 
L 258.894526 493.622176 
L 261.566538 492.878813 
L 264.238549 488.595306 
L 266.910561 482.759055 
L 274.926596 476.016151 
L 282.942631 458.915476 
L 293.630678 453.945963 
L 296.30269 451.569742 
L 298.974702 448.82295 
L 301.646714 446.949853 
L 304.318725 446.410892 
L 312.334761 445.421349 
L 317.678784 440.937965 
L 320.350796 438.100476 
L 323.022808 433.080148 
L 331.038843 425.678112 
L 333.710854 417.236517 
L 336.382866 409.675598 
L 339.054878 404.201014 
L 341.72689 400.836938 
L 349.742925 399.174273 
L 352.414937 399.292428 
L 355.086948 401.332868 
L 368.447007 404.332811 
L 371.119019 407.695536 
L 373.791031 408.965755 
L 376.463042 404.545879 
L 379.135054 399.53354 
L 387.151089 395.53783 
L 389.823101 396.207677 
L 395.167124 402.951251 
L 397.839136 406.167017 
L 405.855171 409.020934 
L 411.199195 413.45682 
L 413.871207 417.505018 
L 416.543218 423.881186 
L 424.559254 431.91566 
L 427.231265 442.410099 
L 429.903277 455.132868 
L 432.575289 469.673981 
L 435.2473 480.677314 
L 443.263336 485.778496 
L 445.935347 486.786852 
L 448.607359 484.824507 
L 451.279371 481.104733 
L 453.951383 477.115113 
L 461.967418 475.049014 
L 464.63943 476.87323 
L 469.983453 491.536718 
L 472.655465 496.888432 
L 480.6715 500.081035 
L 483.343512 502.992557 
L 486.015523 506.837725 
L 488.687535 509.74031 
L 491.359547 511.639858 
L 499.375582 512.421127 
L 502.047594 512.895437 
L 504.719606 513.159511 
L 510.063629 512.833872 
L 518.079664 513.720869 
L 520.751676 515.897308 
L 523.423688 519.057754 
L 526.095699 522.712282 
L 528.767711 528.336012 
L 536.783746 534.426244 
L 542.12777 541.543265 
L 544.799782 543.678758 
L 547.471793 543.503688 
L 555.487829 541.123108 
L 558.15984 537.273863 
L 560.831852 532.29075 
L 566.175876 518.39284 
L 574.191911 513.036562 
L 579.535934 507.801109 
L 582.207946 505.480131 
L 584.879958 504.393082 
L 592.895993 504.496218 
L 595.568005 505.311048 
L 598.240016 507.286935 
L 600.912028 509.958136 
L 603.58404 511.74022 
L 614.272087 513.043718 
L 616.944099 512.141405 
L 619.61611 513.868808 
L 622.288122 518.113914 
L 630.304157 524.752039 
L 635.648181 540.78885 
L 638.320192 546.262372 
L 640.992204 549.933217 
L 649.008239 551.905722 
L 651.680251 552.070843 
L 654.352263 550.790498 
L 657.024275 546.995867 
L 659.696286 542.793381 
L 667.712322 536.534268 
L 673.056345 529.491806 
L 675.728357 520.950659 
L 678.400368 511.166912 
L 689.088415 501.50518 
L 691.760427 491.332553 
L 697.104451 468.956631 
L 705.120486 458.709038 
L 710.464509 441.323347 
L 713.136521 433.018772 
L 715.808533 425.555549 
L 723.824568 420.08888 
L 726.49658 415.394198 
L 731.840603 407.931875 
L 734.512615 397.403137 
L 742.52865 387.858051 
L 745.200662 379.875811 
L 747.872674 372.431345 
L 750.544685 366.949152 
L 753.216697 364.30094 
L 761.232732 364.357219 
L 763.904744 364.187209 
L 766.576756 365.484181 
L 769.248768 369.048816 
L 771.920779 374.62391 
L 779.936814 382.377593 
L 782.608826 391.46926 
L 787.95285 414.108846 
L 790.624861 426.015046 
L 798.640897 439.47221 
L 803.98492 466.327652 
L 806.656932 477.358921 
L 809.328944 486.118317 
L 817.344979 491.733209 
L 820.016991 494.848443 
L 825.361014 497.437016 
L 828.033026 499.247004 
L 836.049061 500.857202 
L 838.721073 501.149996 
L 841.393084 499.066357 
L 844.065096 494.893631 
L 846.737108 489.110434 
L 854.753143 482.448978 
L 857.425155 475.344804 
L 860.097167 467.325678 
L 865.44119 450.08928 
L 873.457225 441.806115 
L 876.129237 433.182668 
L 881.47326 432.98301 
L 884.145272 438.714222 
L 892.161307 449.970601 
L 894.833319 463.892805 
L 897.505331 476.163307 
L 900.177343 487.424356 
L 902.849354 498.094214 
L 910.86539 507.723756 
L 916.209413 516.762791 
L 918.881425 526.636948 
L 921.553437 535.243987 
L 929.569472 542.113077 
L 932.241483 547.432259 
L 934.913495 550.639792 
L 937.585507 552.208776 
L 940.257519 552.343699 
L 940.257519 552.343699 
" clip-path="url(#p8915355bca)" style="fill: none; stroke: #ff7f0e; stroke-width: 1.5; stroke-linecap: square"/>
   </g>
   <g id="patch_9">
    <path d="M 45.267188 584.521875 
L 45.267188 331.135938 
" style="fill: none; stroke: #000000; stroke-width: 0.8; stroke-linejoin: miter; stroke-linecap: square"/>
   </g>
   <g id="patch_10">
    <path d="M 982.876106 584.521875 
L 982.876106 331.135938 
" style="fill: none; stroke: #000000; stroke-width: 0.8; stroke-linejoin: miter; stroke-linecap: square"/>
   </g>
   <g id="patch_11">
    <path d="M 45.267188 584.521875 
L 982.876106 584.521875 
" style="fill: none; stroke: #000000; stroke-width: 0.8; stroke-linejoin: miter; stroke-linecap: square"/>
   </g>
   <g id="patch_12">
    <path d="M 45.267188 331.135938 
L 982.876106 331.135938 
" style="fill: none; stroke: #000000; stroke-width: 0.8; stroke-linejoin: miter; stroke-linecap: square"/>
   </g>
   <g id="text_29">
    <!-- MACD -->
    <g transform="translate(496.085709 325.135938)scale(0.12 -0.12)">
     <defs>
      <path id="DejaVuSans-44" d="M 1259 4147 
L 1259 519 
L 2022 519 
Q 2988 519 3436 956 
Q 3884 1394 3884 2338 
Q 3884 3275 3436 3711 
Q 2988 4147 2022 4147 
L 1259 4147 
z
M 628 4666 
L 1925 4666 
Q 3281 4666 3915 4102 
Q 4550 3538 4550 2338 
Q 4550 1131 3912 565 
Q 3275 0 1925 0 
L 628 0 
L 628 4666 
z
" transform="scale(0.015625)"/>
     </defs>
     <use xlink:href="#DejaVuSans-4d"/>
     <use xlink:href="#DejaVuSans-41" x="86.279297"/>
     <use xlink:href="#DejaVuSans-43" x="152.9375"/>
     <use xlink:href="#DejaVuSans-44" x="222.761719"/>
    </g>
   </g>
   <g id="legend_2">
    <g id="patch_13">
     <path d="M 913.899543 368.492188 
L 975.876106 368.492188 
Q 977.876106 368.492188 977.876106 366.492188 
L 977.876106 338.135938 
Q 977.876106 336.135938 975.876106 336.135938 
L 913.899543 336.135938 
Q 911.899543 336.135938 911.899543 338.135938 
L 911.899543 366.492188 
Q 911.899543 368.492188 913.899543 368.492188 
z
" style="fill: #ffffff; opacity: 0.8; stroke: #cccccc; stroke-linejoin: miter"/>
    </g>
    <g id="line2d_81">
     <path d="M 915.899543 344.234375 
L 925.899543 344.234375 
L 935.899543 344.234375 
" style="fill: none; stroke: #1f77b4; stroke-width: 1.5; stroke-linecap: square"/>
    </g>
    <g id="text_30">
     <!-- MACD -->
     <g transform="translate(943.899543 347.734375)scale(0.1 -0.1)">
      <use xlink:href="#DejaVuSans-4d"/>
      <use xlink:href="#DejaVuSans-41" x="86.279297"/>
      <use xlink:href="#DejaVuSans-43" x="152.9375"/>
      <use xlink:href="#DejaVuSans-44" x="222.761719"/>
     </g>
    </g>
    <g id="line2d_82">
     <path d="M 915.899543 358.9125 
L 925.899543 358.9125 
L 935.899543 358.9125 
" style="fill: none; stroke: #ff7f0e; stroke-width: 1.5; stroke-linecap: square"/>
    </g>
    <g id="text_31">
     <!-- SIG -->
     <g transform="translate(943.899543 362.4125)scale(0.1 -0.1)">
      <defs>
       <path id="DejaVuSans-49" d="M 628 4666 
L 1259 4666 
L 1259 0 
L 628 0 
L 628 4666 
z
" transform="scale(0.015625)"/>
       <path id="DejaVuSans-47" d="M 3809 666 
L 3809 1919 
L 2778 1919 
L 2778 2438 
L 4434 2438 
L 4434 434 
Q 4069 175 3628 42 
Q 3188 -91 2688 -91 
Q 1594 -91 976 548 
Q 359 1188 359 2328 
Q 359 3472 976 4111 
Q 1594 4750 2688 4750 
Q 3144 4750 3555 4637 
Q 3966 4525 4313 4306 
L 4313 3634 
Q 3963 3931 3569 4081 
Q 3175 4231 2741 4231 
Q 1884 4231 1454 3753 
Q 1025 3275 1025 2328 
Q 1025 1384 1454 906 
Q 1884 428 2741 428 
Q 3075 428 3337 486 
Q 3600 544 3809 666 
z
" transform="scale(0.015625)"/>
      </defs>
      <use xlink:href="#DejaVuSans-53"/>
      <use xlink:href="#DejaVuSans-49" x="63.476562"/>
      <use xlink:href="#DejaVuSans-47" x="92.96875"/>
     </g>
    </g>
   </g>
  </g>
  <g id="text_32">
   <!-- Gland Pharma Limited -->
   <g transform="translate(437.2275 21.358125)scale(0.12 -0.12)">
    <defs>
     <path id="DejaVuSans-61" d="M 2194 1759 
Q 1497 1759 1228 1600 
Q 959 1441 959 1056 
Q 959 750 1161 570 
Q 1363 391 1709 391 
Q 2188 391 2477 730 
Q 2766 1069 2766 1631 
L 2766 1759 
L 2194 1759 
z
M 3341 1997 
L 3341 0 
L 2766 0 
L 2766 531 
Q 2569 213 2275 61 
Q 1981 -91 1556 -91 
Q 1019 -91 701 211 
Q 384 513 384 1019 
Q 384 1609 779 1909 
Q 1175 2209 1959 2209 
L 2766 2209 
L 2766 2266 
Q 2766 2663 2505 2880 
Q 2244 3097 1772 3097 
Q 1472 3097 1187 3025 
Q 903 2953 641 2809 
L 641 3341 
Q 956 3463 1253 3523 
Q 1550 3584 1831 3584 
Q 2591 3584 2966 3190 
Q 3341 2797 3341 1997 
z
" transform="scale(0.015625)"/>
     <path id="DejaVuSans-64" d="M 2906 2969 
L 2906 4863 
L 3481 4863 
L 3481 0 
L 2906 0 
L 2906 525 
Q 2725 213 2448 61 
Q 2172 -91 1784 -91 
Q 1150 -91 751 415 
Q 353 922 353 1747 
Q 353 2572 751 3078 
Q 1150 3584 1784 3584 
Q 2172 3584 2448 3432 
Q 2725 3281 2906 2969 
z
M 947 1747 
Q 947 1113 1208 752 
Q 1469 391 1925 391 
Q 2381 391 2643 752 
Q 2906 1113 2906 1747 
Q 2906 2381 2643 2742 
Q 2381 3103 1925 3103 
Q 1469 3103 1208 2742 
Q 947 2381 947 1747 
z
" transform="scale(0.015625)"/>
     <path id="DejaVuSans-68" d="M 3513 2113 
L 3513 0 
L 2938 0 
L 2938 2094 
Q 2938 2591 2744 2837 
Q 2550 3084 2163 3084 
Q 1697 3084 1428 2787 
Q 1159 2491 1159 1978 
L 1159 0 
L 581 0 
L 581 4863 
L 1159 4863 
L 1159 2956 
Q 1366 3272 1645 3428 
Q 1925 3584 2291 3584 
Q 2894 3584 3203 3211 
Q 3513 2838 3513 2113 
z
" transform="scale(0.015625)"/>
     <path id="DejaVuSans-6d" d="M 3328 2828 
Q 3544 3216 3844 3400 
Q 4144 3584 4550 3584 
Q 5097 3584 5394 3201 
Q 5691 2819 5691 2113 
L 5691 0 
L 5113 0 
L 5113 2094 
Q 5113 2597 4934 2840 
Q 4756 3084 4391 3084 
Q 3944 3084 3684 2787 
Q 3425 2491 3425 1978 
L 3425 0 
L 2847 0 
L 2847 2094 
Q 2847 2600 2669 2842 
Q 2491 3084 2119 3084 
Q 1678 3084 1418 2786 
Q 1159 2488 1159 1978 
L 1159 0 
L 581 0 
L 581 3500 
L 1159 3500 
L 1159 2956 
Q 1356 3278 1631 3431 
Q 1906 3584 2284 3584 
Q 2666 3584 2933 3390 
Q 3200 3197 3328 2828 
z
" transform="scale(0.015625)"/>
     <path id="DejaVuSans-74" d="M 1172 4494 
L 1172 3500 
L 2356 3500 
L 2356 3053 
L 1172 3053 
L 1172 1153 
Q 1172 725 1289 603 
Q 1406 481 1766 481 
L 2356 481 
L 2356 0 
L 1766 0 
Q 1100 0 847 248 
Q 594 497 594 1153 
L 594 3053 
L 172 3053 
L 172 3500 
L 594 3500 
L 594 4494 
L 1172 4494 
z
" transform="scale(0.015625)"/>
    </defs>
    <use xlink:href="#DejaVuSans-47"/>
    <use xlink:href="#DejaVuSans-6c" x="77.490234"/>
    <use xlink:href="#DejaVuSans-61" x="105.273438"/>
    <use xlink:href="#DejaVuSans-6e" x="166.552734"/>
    <use xlink:href="#DejaVuSans-64" x="229.931641"/>
    <use xlink:href="#DejaVuSans-20" x="293.408203"/>
    <use xlink:href="#DejaVuSans-50" x="325.195312"/>
    <use xlink:href="#DejaVuSans-68" x="385.498047"/>
    <use xlink:href="#DejaVuSans-61" x="448.876953"/>
    <use xlink:href="#DejaVuSans-72" x="510.15625"/>
    <use xlink:href="#DejaVuSans-6d" x="549.519531"/>
    <use xlink:href="#DejaVuSans-61" x="646.931641"/>
    <use xlink:href="#DejaVuSans-20" x="708.210938"/>
    <use xlink:href="#DejaVuSans-4c" x="739.998047"/>
    <use xlink:href="#DejaVuSans-69" x="795.710938"/>
    <use xlink:href="#DejaVuSans-6d" x="823.494141"/>
    <use xlink:href="#DejaVuSans-69" x="920.90625"/>
    <use xlink:href="#DejaVuSans-74" x="948.689453"/>
    <use xlink:href="#DejaVuSans-65" x="987.898438"/>
    <use xlink:href="#DejaVuSans-64" x="1049.421875"/>
   </g>
  </g>
 </g>
 <defs>
  <clipPath id="p98f1710a24">
   <rect x="45.267188" y="48.331875" width="937.608918" height="253.385938"/>
  </clipPath>
  <clipPath id="p8915355bca">
   <rect x="45.267188" y="331.135938" width="937.608918" height="253.385937"/>
  </clipPath>
 </defs>
</svg>
