<?xml version="1.0" encoding="utf-8" standalone="no"?>
<!DOCTYPE svg PUBLIC "-//W3C//DTD SVG 1.1//EN"
  "http://www.w3.org/Graphics/SVG/1.1/DTD/svg11.dtd">
<svg xmlns:xlink="http://www.w3.org/1999/xlink" width="1008pt" height="612pt" viewBox="0 0 1008 612" xmlns="http://www.w3.org/2000/svg" version="1.1">
 <metadata>
  <rdf:RDF xmlns:dc="http://purl.org/dc/elements/1.1/" xmlns:cc="http://creativecommons.org/ns#" xmlns:rdf="http://www.w3.org/1999/02/22-rdf-syntax-ns#">
   <cc:Work>
    <dc:type rdf:resource="http://purl.org/dc/dcmitype/StillImage"/>
    <dc:date>2022-11-20T19:47:37.811454</dc:date>
    <dc:format>image/svg+xml</dc:format>
    <dc:creator>
     <cc:Agent>
      <dc:title>Matplotlib v3.5.2, https://matplotlib.org/</dc:title>
     </cc:Agent>
    </dc:creator>
   </cc:Work>
  </rdf:RDF>
 </metadata>
 <defs>
  <style type="text/css">*{stroke-linejoin: round; stroke-linecap: butt}</style>
 </defs>
 <g id="figure_1">
  <g id="patch_1">
   <path d="M 0 612 
L 1008 612 
L 1008 0 
L 0 0 
z
" style="fill: #ffffff"/>
  </g>
  <g id="axes_1">
   <g id="patch_2">
    <path d="M 45.267188 301.717812 
L 982.876106 301.717812 
L 982.876106 48.331875 
L 45.267188 48.331875 
z
" style="fill: #ffffff"/>
   </g>
   <g id="matplotlib.axis_1">
    <g id="xtick_1">
     <g id="line2d_1">
      <path d="M 82.541751 301.717812 
L 82.541751 48.331875 
" clip-path="url(#p06a3726d35)" style="fill: none; stroke-dasharray: 2.96,1.28; stroke-dashoffset: 0; stroke: #b0b0b0; stroke-width: 0.8"/>
     </g>
     <g id="line2d_2">
      <defs>
       <path id="m942b69504b" d="M 0 0 
L 0 3.5 
" style="stroke: #000000; stroke-width: 0.8"/>
      </defs>
      <g>
       <use xlink:href="#m942b69504b" x="82.541751" y="301.717812" style="stroke: #000000; stroke-width: 0.8"/>
      </g>
     </g>
    </g>
    <g id="xtick_2">
     <g id="line2d_3">
      <path d="M 165.374115 301.717812 
L 165.374115 48.331875 
" clip-path="url(#p06a3726d35)" style="fill: none; stroke-dasharray: 2.96,1.28; stroke-dashoffset: 0; stroke: #b0b0b0; stroke-width: 0.8"/>
     </g>
     <g id="line2d_4">
      <g>
       <use xlink:href="#m942b69504b" x="165.374115" y="301.717812" style="stroke: #000000; stroke-width: 0.8"/>
      </g>
     </g>
    </g>
    <g id="xtick_3">
     <g id="line2d_5">
      <path d="M 240.190444 301.717812 
L 240.190444 48.331875 
" clip-path="url(#p06a3726d35)" style="fill: none; stroke-dasharray: 2.96,1.28; stroke-dashoffset: 0; stroke: #b0b0b0; stroke-width: 0.8"/>
     </g>
     <g id="line2d_6">
      <g>
       <use xlink:href="#m942b69504b" x="240.190444" y="301.717812" style="stroke: #000000; stroke-width: 0.8"/>
      </g>
     </g>
    </g>
    <g id="xtick_4">
     <g id="line2d_7">
      <path d="M 323.022808 301.717812 
L 323.022808 48.331875 
" clip-path="url(#p06a3726d35)" style="fill: none; stroke-dasharray: 2.96,1.28; stroke-dashoffset: 0; stroke: #b0b0b0; stroke-width: 0.8"/>
     </g>
     <g id="line2d_8">
      <g>
       <use xlink:href="#m942b69504b" x="323.022808" y="301.717812" style="stroke: #000000; stroke-width: 0.8"/>
      </g>
     </g>
    </g>
    <g id="xtick_5">
     <g id="line2d_9">
      <path d="M 403.18316 301.717812 
L 403.18316 48.331875 
" clip-path="url(#p06a3726d35)" style="fill: none; stroke-dasharray: 2.96,1.28; stroke-dashoffset: 0; stroke: #b0b0b0; stroke-width: 0.8"/>
     </g>
     <g id="line2d_10">
      <g>
       <use xlink:href="#m942b69504b" x="403.18316" y="301.717812" style="stroke: #000000; stroke-width: 0.8"/>
      </g>
     </g>
    </g>
    <g id="xtick_6">
     <g id="line2d_11">
      <path d="M 486.015523 301.717812 
L 486.015523 48.331875 
" clip-path="url(#p06a3726d35)" style="fill: none; stroke-dasharray: 2.96,1.28; stroke-dashoffset: 0; stroke: #b0b0b0; stroke-width: 0.8"/>
     </g>
     <g id="line2d_12">
      <g>
       <use xlink:href="#m942b69504b" x="486.015523" y="301.717812" style="stroke: #000000; stroke-width: 0.8"/>
      </g>
     </g>
    </g>
    <g id="xtick_7">
     <g id="line2d_13">
      <path d="M 566.175876 301.717812 
L 566.175876 48.331875 
" clip-path="url(#p06a3726d35)" style="fill: none; stroke-dasharray: 2.96,1.28; stroke-dashoffset: 0; stroke: #b0b0b0; stroke-width: 0.8"/>
     </g>
     <g id="line2d_14">
      <g>
       <use xlink:href="#m942b69504b" x="566.175876" y="301.717812" style="stroke: #000000; stroke-width: 0.8"/>
      </g>
     </g>
    </g>
    <g id="xtick_8">
     <g id="line2d_15">
      <path d="M 649.008239 301.717812 
L 649.008239 48.331875 
" clip-path="url(#p06a3726d35)" style="fill: none; stroke-dasharray: 2.96,1.28; stroke-dashoffset: 0; stroke: #b0b0b0; stroke-width: 0.8"/>
     </g>
     <g id="line2d_16">
      <g>
       <use xlink:href="#m942b69504b" x="649.008239" y="301.717812" style="stroke: #000000; stroke-width: 0.8"/>
      </g>
     </g>
    </g>
    <g id="xtick_9">
     <g id="line2d_17">
      <path d="M 731.840603 301.717812 
L 731.840603 48.331875 
" clip-path="url(#p06a3726d35)" style="fill: none; stroke-dasharray: 2.96,1.28; stroke-dashoffset: 0; stroke: #b0b0b0; stroke-width: 0.8"/>
     </g>
     <g id="line2d_18">
      <g>
       <use xlink:href="#m942b69504b" x="731.840603" y="301.717812" style="stroke: #000000; stroke-width: 0.8"/>
      </g>
     </g>
    </g>
    <g id="xtick_10">
     <g id="line2d_19">
      <path d="M 812.000955 301.717812 
L 812.000955 48.331875 
" clip-path="url(#p06a3726d35)" style="fill: none; stroke-dasharray: 2.96,1.28; stroke-dashoffset: 0; stroke: #b0b0b0; stroke-width: 0.8"/>
     </g>
     <g id="line2d_20">
      <g>
       <use xlink:href="#m942b69504b" x="812.000955" y="301.717812" style="stroke: #000000; stroke-width: 0.8"/>
      </g>
     </g>
    </g>
    <g id="xtick_11">
     <g id="line2d_21">
      <path d="M 894.833319 301.717812 
L 894.833319 48.331875 
" clip-path="url(#p06a3726d35)" style="fill: none; stroke-dasharray: 2.96,1.28; stroke-dashoffset: 0; stroke: #b0b0b0; stroke-width: 0.8"/>
     </g>
     <g id="line2d_22">
      <g>
       <use xlink:href="#m942b69504b" x="894.833319" y="301.717812" style="stroke: #000000; stroke-width: 0.8"/>
      </g>
     </g>
    </g>
    <g id="xtick_12">
     <g id="line2d_23">
      <path d="M 974.993671 301.717812 
L 974.993671 48.331875 
" clip-path="url(#p06a3726d35)" style="fill: none; stroke-dasharray: 2.96,1.28; stroke-dashoffset: 0; stroke: #b0b0b0; stroke-width: 0.8"/>
     </g>
     <g id="line2d_24">
      <g>
       <use xlink:href="#m942b69504b" x="974.993671" y="301.717812" style="stroke: #000000; stroke-width: 0.8"/>
      </g>
     </g>
    </g>
   </g>
   <g id="matplotlib.axis_2">
    <g id="ytick_1">
     <g id="line2d_25">
      <path d="M 45.267188 294.956849 
L 982.876106 294.956849 
" clip-path="url(#p06a3726d35)" style="fill: none; stroke-dasharray: 2.96,1.28; stroke-dashoffset: 0; stroke: #b0b0b0; stroke-width: 0.8"/>
     </g>
     <g id="line2d_26">
      <defs>
       <path id="mbd8afa5f53" d="M 0 0 
L -3.5 0 
" style="stroke: #000000; stroke-width: 0.8"/>
      </defs>
      <g>
       <use xlink:href="#mbd8afa5f53" x="45.267188" y="294.956849" style="stroke: #000000; stroke-width: 0.8"/>
      </g>
     </g>
     <g id="text_1">
      <!-- 750 -->
      <g transform="translate(19.179688 298.756068)scale(0.1 -0.1)">
       <defs>
        <path id="DejaVuSans-37" d="M 525 4666 
L 3525 4666 
L 3525 4397 
L 1831 0 
L 1172 0 
L 2766 4134 
L 525 4134 
L 525 4666 
z
" transform="scale(0.015625)"/>
        <path id="DejaVuSans-35" d="M 691 4666 
L 3169 4666 
L 3169 4134 
L 1269 4134 
L 1269 2991 
Q 1406 3038 1543 3061 
Q 1681 3084 1819 3084 
Q 2600 3084 3056 2656 
Q 3513 2228 3513 1497 
Q 3513 744 3044 326 
Q 2575 -91 1722 -91 
Q 1428 -91 1123 -41 
Q 819 9 494 109 
L 494 744 
Q 775 591 1075 516 
Q 1375 441 1709 441 
Q 2250 441 2565 725 
Q 2881 1009 2881 1497 
Q 2881 1984 2565 2268 
Q 2250 2553 1709 2553 
Q 1456 2553 1204 2497 
Q 953 2441 691 2322 
L 691 4666 
z
" transform="scale(0.015625)"/>
        <path id="DejaVuSans-30" d="M 2034 4250 
Q 1547 4250 1301 3770 
Q 1056 3291 1056 2328 
Q 1056 1369 1301 889 
Q 1547 409 2034 409 
Q 2525 409 2770 889 
Q 3016 1369 3016 2328 
Q 3016 3291 2770 3770 
Q 2525 4250 2034 4250 
z
M 2034 4750 
Q 2819 4750 3233 4129 
Q 3647 3509 3647 2328 
Q 3647 1150 3233 529 
Q 2819 -91 2034 -91 
Q 1250 -91 836 529 
Q 422 1150 422 2328 
Q 422 3509 836 4129 
Q 1250 4750 2034 4750 
z
" transform="scale(0.015625)"/>
       </defs>
       <use xlink:href="#DejaVuSans-37"/>
       <use xlink:href="#DejaVuSans-35" x="63.623047"/>
       <use xlink:href="#DejaVuSans-30" x="127.246094"/>
      </g>
     </g>
    </g>
    <g id="ytick_2">
     <g id="line2d_27">
      <path d="M 45.267188 264.582781 
L 982.876106 264.582781 
" clip-path="url(#p06a3726d35)" style="fill: none; stroke-dasharray: 2.96,1.28; stroke-dashoffset: 0; stroke: #b0b0b0; stroke-width: 0.8"/>
     </g>
     <g id="line2d_28">
      <g>
       <use xlink:href="#mbd8afa5f53" x="45.267188" y="264.582781" style="stroke: #000000; stroke-width: 0.8"/>
      </g>
     </g>
     <g id="text_2">
      <!-- 1000 -->
      <g transform="translate(12.817188 268.382)scale(0.1 -0.1)">
       <defs>
        <path id="DejaVuSans-31" d="M 794 531 
L 1825 531 
L 1825 4091 
L 703 3866 
L 703 4441 
L 1819 4666 
L 2450 4666 
L 2450 531 
L 3481 531 
L 3481 0 
L 794 0 
L 794 531 
z
" transform="scale(0.015625)"/>
       </defs>
       <use xlink:href="#DejaVuSans-31"/>
       <use xlink:href="#DejaVuSans-30" x="63.623047"/>
       <use xlink:href="#DejaVuSans-30" x="127.246094"/>
       <use xlink:href="#DejaVuSans-30" x="190.869141"/>
      </g>
     </g>
    </g>
    <g id="ytick_3">
     <g id="line2d_29">
      <path d="M 45.267188 234.208714 
L 982.876106 234.208714 
" clip-path="url(#p06a3726d35)" style="fill: none; stroke-dasharray: 2.96,1.28; stroke-dashoffset: 0; stroke: #b0b0b0; stroke-width: 0.8"/>
     </g>
     <g id="line2d_30">
      <g>
       <use xlink:href="#mbd8afa5f53" x="45.267188" y="234.208714" style="stroke: #000000; stroke-width: 0.8"/>
      </g>
     </g>
     <g id="text_3">
      <!-- 1250 -->
      <g transform="translate(12.817188 238.007933)scale(0.1 -0.1)">
       <defs>
        <path id="DejaVuSans-32" d="M 1228 531 
L 3431 531 
L 3431 0 
L 469 0 
L 469 531 
Q 828 903 1448 1529 
Q 2069 2156 2228 2338 
Q 2531 2678 2651 2914 
Q 2772 3150 2772 3378 
Q 2772 3750 2511 3984 
Q 2250 4219 1831 4219 
Q 1534 4219 1204 4116 
Q 875 4013 500 3803 
L 500 4441 
Q 881 4594 1212 4672 
Q 1544 4750 1819 4750 
Q 2544 4750 2975 4387 
Q 3406 4025 3406 3419 
Q 3406 3131 3298 2873 
Q 3191 2616 2906 2266 
Q 2828 2175 2409 1742 
Q 1991 1309 1228 531 
z
" transform="scale(0.015625)"/>
       </defs>
       <use xlink:href="#DejaVuSans-31"/>
       <use xlink:href="#DejaVuSans-32" x="63.623047"/>
       <use xlink:href="#DejaVuSans-35" x="127.246094"/>
       <use xlink:href="#DejaVuSans-30" x="190.869141"/>
      </g>
     </g>
    </g>
    <g id="ytick_4">
     <g id="line2d_31">
      <path d="M 45.267188 203.834647 
L 982.876106 203.834647 
" clip-path="url(#p06a3726d35)" style="fill: none; stroke-dasharray: 2.96,1.28; stroke-dashoffset: 0; stroke: #b0b0b0; stroke-width: 0.8"/>
     </g>
     <g id="line2d_32">
      <g>
       <use xlink:href="#mbd8afa5f53" x="45.267188" y="203.834647" style="stroke: #000000; stroke-width: 0.8"/>
      </g>
     </g>
     <g id="text_4">
      <!-- 1500 -->
      <g transform="translate(12.817188 207.633865)scale(0.1 -0.1)">
       <use xlink:href="#DejaVuSans-31"/>
       <use xlink:href="#DejaVuSans-35" x="63.623047"/>
       <use xlink:href="#DejaVuSans-30" x="127.246094"/>
       <use xlink:href="#DejaVuSans-30" x="190.869141"/>
      </g>
     </g>
    </g>
    <g id="ytick_5">
     <g id="line2d_33">
      <path d="M 45.267188 173.460579 
L 982.876106 173.460579 
" clip-path="url(#p06a3726d35)" style="fill: none; stroke-dasharray: 2.96,1.28; stroke-dashoffset: 0; stroke: #b0b0b0; stroke-width: 0.8"/>
     </g>
     <g id="line2d_34">
      <g>
       <use xlink:href="#mbd8afa5f53" x="45.267188" y="173.460579" style="stroke: #000000; stroke-width: 0.8"/>
      </g>
     </g>
     <g id="text_5">
      <!-- 1750 -->
      <g transform="translate(12.817188 177.259798)scale(0.1 -0.1)">
       <use xlink:href="#DejaVuSans-31"/>
       <use xlink:href="#DejaVuSans-37" x="63.623047"/>
       <use xlink:href="#DejaVuSans-35" x="127.246094"/>
       <use xlink:href="#DejaVuSans-30" x="190.869141"/>
      </g>
     </g>
    </g>
    <g id="ytick_6">
     <g id="line2d_35">
      <path d="M 45.267188 143.086512 
L 982.876106 143.086512 
" clip-path="url(#p06a3726d35)" style="fill: none; stroke-dasharray: 2.96,1.28; stroke-dashoffset: 0; stroke: #b0b0b0; stroke-width: 0.8"/>
     </g>
     <g id="line2d_36">
      <g>
       <use xlink:href="#mbd8afa5f53" x="45.267188" y="143.086512" style="stroke: #000000; stroke-width: 0.8"/>
      </g>
     </g>
     <g id="text_6">
      <!-- 2000 -->
      <g transform="translate(12.817188 146.885731)scale(0.1 -0.1)">
       <use xlink:href="#DejaVuSans-32"/>
       <use xlink:href="#DejaVuSans-30" x="63.623047"/>
       <use xlink:href="#DejaVuSans-30" x="127.246094"/>
       <use xlink:href="#DejaVuSans-30" x="190.869141"/>
      </g>
     </g>
    </g>
    <g id="ytick_7">
     <g id="line2d_37">
      <path d="M 45.267188 112.712444 
L 982.876106 112.712444 
" clip-path="url(#p06a3726d35)" style="fill: none; stroke-dasharray: 2.96,1.28; stroke-dashoffset: 0; stroke: #b0b0b0; stroke-width: 0.8"/>
     </g>
     <g id="line2d_38">
      <g>
       <use xlink:href="#mbd8afa5f53" x="45.267188" y="112.712444" style="stroke: #000000; stroke-width: 0.8"/>
      </g>
     </g>
     <g id="text_7">
      <!-- 2250 -->
      <g transform="translate(12.817188 116.511663)scale(0.1 -0.1)">
       <use xlink:href="#DejaVuSans-32"/>
       <use xlink:href="#DejaVuSans-32" x="63.623047"/>
       <use xlink:href="#DejaVuSans-35" x="127.246094"/>
       <use xlink:href="#DejaVuSans-30" x="190.869141"/>
      </g>
     </g>
    </g>
    <g id="ytick_8">
     <g id="line2d_39">
      <path d="M 45.267188 82.338377 
L 982.876106 82.338377 
" clip-path="url(#p06a3726d35)" style="fill: none; stroke-dasharray: 2.96,1.28; stroke-dashoffset: 0; stroke: #b0b0b0; stroke-width: 0.8"/>
     </g>
     <g id="line2d_40">
      <g>
       <use xlink:href="#mbd8afa5f53" x="45.267188" y="82.338377" style="stroke: #000000; stroke-width: 0.8"/>
      </g>
     </g>
     <g id="text_8">
      <!-- 2500 -->
      <g transform="translate(12.817188 86.137596)scale(0.1 -0.1)">
       <use xlink:href="#DejaVuSans-32"/>
       <use xlink:href="#DejaVuSans-35" x="63.623047"/>
       <use xlink:href="#DejaVuSans-30" x="127.246094"/>
       <use xlink:href="#DejaVuSans-30" x="190.869141"/>
      </g>
     </g>
    </g>
    <g id="ytick_9">
     <g id="line2d_41">
      <path d="M 45.267188 51.96431 
L 982.876106 51.96431 
" clip-path="url(#p06a3726d35)" style="fill: none; stroke-dasharray: 2.96,1.28; stroke-dashoffset: 0; stroke: #b0b0b0; stroke-width: 0.8"/>
     </g>
     <g id="line2d_42">
      <g>
       <use xlink:href="#mbd8afa5f53" x="45.267188" y="51.96431" style="stroke: #000000; stroke-width: 0.8"/>
      </g>
     </g>
     <g id="text_9">
      <!-- 2750 -->
      <g transform="translate(12.817188 55.763528)scale(0.1 -0.1)">
       <use xlink:href="#DejaVuSans-32"/>
       <use xlink:href="#DejaVuSans-37" x="63.623047"/>
       <use xlink:href="#DejaVuSans-35" x="127.246094"/>
       <use xlink:href="#DejaVuSans-30" x="190.869141"/>
      </g>
     </g>
    </g>
   </g>
   <g id="line2d_43">
    <path d="M 87.885775 59.849418 
L 90.557786 60.657368 
L 93.229798 63.190565 
L 95.90181 63.002246 
L 98.573822 72.728022 
L 106.589857 72.709798 
L 109.261869 73.900461 
L 111.93388 65.407872 
L 114.605892 65.577967 
L 117.277904 64.970485 
L 125.293939 61.459243 
L 127.965951 73.651394 
L 130.637962 73.76074 
L 133.309974 72.539703 
L 135.981986 78.954706 
L 143.998021 98.582428 
L 146.670033 99.524024 
L 152.014056 105.981551 
L 154.686068 98.454857 
L 162.702103 95.514648 
L 165.374115 79.422467 
L 168.046127 80.218267 
L 170.718139 82.295853 
L 173.39015 86.536073 
L 181.406185 89.300113 
L 184.078197 89.950118 
L 189.422221 82.793988 
L 192.094232 91.766488 
L 200.110268 112.056365 
L 202.782279 107.603526 
L 205.454291 110.24607 
L 208.126303 113.775537 
L 210.798315 123.349443 
L 218.81435 131.313523 
L 221.486362 137.521983 
L 224.158373 130.949035 
L 226.830385 149.313196 
L 229.502397 135.511219 
L 237.518432 134.551399 
L 242.862455 133.263538 
L 245.534467 135.924307 
L 248.206479 137.297215 
L 256.222514 156.864189 
L 258.894526 150.011799 
L 261.566538 141.227619 
L 264.238549 143.858013 
L 266.910561 139.848636 
L 274.926596 138.700497 
L 277.598608 134.429903 
L 280.27062 123.477014 
L 282.942631 108.332504 
L 293.630678 114.583487 
L 296.30269 118.526041 
L 301.646714 113.113382 
L 304.318725 118.489592 
L 312.334761 119.388665 
L 315.006772 120.433532 
L 317.678784 114.771806 
L 320.350796 120.378859 
L 323.022808 115.051248 
L 331.038843 111.412434 
L 333.710854 113.058709 
L 336.382866 110.318968 
L 339.054878 100.046458 
L 341.72689 101.717032 
L 349.742925 104.086209 
L 352.414937 109.675038 
L 355.086948 108.648394 
L 368.447007 115.549382 
L 371.119019 115.215268 
L 373.791031 115.762001 
L 376.463042 114.00638 
L 379.135054 122.025134 
L 387.151089 129.357433 
L 389.823101 118.57464 
L 392.495113 123.555987 
L 395.167124 125.317682 
L 397.839136 123.647109 
L 405.855171 127.316296 
L 411.199195 139.90331 
L 413.871207 140.316397 
L 416.543218 146.057096 
L 424.559254 147.284208 
L 427.231265 153.553416 
L 429.903277 158.401117 
L 432.575289 165.551172 
L 435.2473 166.000708 
L 443.263336 158.30392 
L 445.935347 145.170173 
L 448.607359 145.291669 
L 451.279371 155.959042 
L 453.951383 153.249675 
L 461.967418 156.961386 
L 464.63943 166.346973 
L 467.311441 166.018933 
L 469.983453 159.93197 
L 472.655465 186.181239 
L 480.6715 170.137656 
L 483.343512 155.849695 
L 486.015523 162.811431 
L 488.687535 165.557247 
L 491.359547 169.858215 
L 499.375582 167.914275 
L 504.719606 173.405906 
L 507.391617 175.495642 
L 510.063629 179.334924 
L 518.079664 189.698556 
L 520.751676 191.855114 
L 523.423688 184.17655 
L 526.095699 185.677029 
L 528.767711 185.932171 
L 536.783746 193.1369 
L 539.455758 186.181239 
L 542.12777 189.795753 
L 544.799782 188.289199 
L 547.471793 185.531234 
L 555.487829 183.727014 
L 558.15984 180.981198 
L 560.831852 183.84851 
L 563.503864 184.917677 
L 566.175876 182.840091 
L 574.191911 181.91672 
L 579.535934 177.980241 
L 582.207946 177.160141 
L 584.879958 178.356879 
L 592.895993 172.039073 
L 595.568005 178.271832 
L 598.240016 179.991004 
L 600.912028 183.824211 
L 603.58404 184.389169 
L 611.600075 179.553617 
L 614.272087 178.958285 
L 616.944099 169.37223 
L 619.61611 165.344628 
L 622.288122 162.404419 
L 630.304157 167.914275 
L 632.976169 171.777856 
L 635.648181 166.74791 
L 638.320192 162.629187 
L 640.992204 171.024579 
L 649.008239 173.472729 
L 651.680251 175.781158 
L 654.352263 173.28441 
L 657.024275 175.665737 
L 659.696286 176.36434 
L 667.712322 168.649327 
L 673.056345 164.81612 
L 675.728357 154.561835 
L 678.400368 152.642193 
L 689.088415 151.992188 
L 691.760427 146.202891 
L 694.432439 147.770193 
L 697.104451 149.65946 
L 705.120486 155.758573 
L 707.792498 155.394084 
L 710.464509 145.905225 
L 713.136521 139.222931 
L 715.808533 145.534662 
L 723.824568 152.016488 
L 726.49658 256.861694 
L 731.840603 261.357055 
L 734.512615 260.579479 
L 742.52865 262.110332 
L 745.200662 263.440717 
L 747.872674 261.095839 
L 750.544685 263.106602 
L 753.216697 262.772487 
L 761.232732 262.256128 
L 763.904744 262.213604 
L 766.576756 265.749146 
L 769.248768 266.27158 
L 771.920779 268.889824 
L 779.936814 271.580967 
L 782.608826 268.221595 
L 785.280838 269.952917 
L 787.95285 267.419719 
L 790.624861 269.952917 
L 798.640897 277.935221 
L 801.312908 279.587571 
L 803.98492 282.418434 
L 806.656932 283.627322 
L 809.328944 281.0759 
L 817.344979 285.328269 
L 820.016991 280.687112 
L 825.361014 281.865626 
L 828.033026 283.402554 
L 836.049061 286.105846 
L 838.721073 288.122684 
L 841.393084 285.78388 
L 844.065096 288.511472 
L 846.737108 288.171282 
L 854.753143 288.487172 
L 857.425155 286.46426 
L 860.097167 285.789955 
L 862.769178 283.85209 
L 865.44119 283.062364 
L 873.457225 283.712369 
L 876.129237 285.115651 
L 881.47326 282.88012 
L 884.145272 283.068439 
L 892.161307 282.88012 
L 894.833319 282.53993 
L 897.505331 284.356299 
L 900.177343 277.230543 
L 902.849354 278.384758 
L 910.86539 276.137077 
L 916.209413 278.087092 
L 918.881425 287.472679 
L 921.553437 286.446035 
L 929.569472 285.595561 
L 932.241483 286.184818 
L 934.913495 288.019412 
L 937.585507 288.839512 
L 940.257519 290.20027 
L 940.257519 290.20027 
" clip-path="url(#p06a3726d35)" style="fill: none; stroke: #1f77b4; stroke-width: 1.5; stroke-linecap: square"/>
   </g>
   <g id="line2d_44">
    <path d="M 98.573822 63.885524 
L 106.589857 66.4576 
L 109.261869 69.106218 
L 114.605892 70.064824 
L 117.277904 68.513317 
L 125.293939 66.263206 
L 127.965951 66.213392 
L 130.637962 67.883966 
L 133.309974 69.276313 
L 135.981986 72.073157 
L 143.998021 79.497794 
L 146.670033 84.67232 
L 152.014056 91.116483 
L 154.686068 96.299513 
L 162.702103 99.611502 
L 168.046127 91.918358 
L 170.718139 87.181218 
L 173.39015 84.797462 
L 181.406185 83.554555 
L 184.078197 85.660085 
L 186.750209 86.905422 
L 189.422221 87.005049 
L 192.094232 88.051132 
L 200.110268 92.602382 
L 202.782279 96.133064 
L 205.454291 100.893287 
L 210.798315 113.406188 
L 218.81435 117.25762 
L 221.486362 123.241311 
L 224.158373 127.381904 
L 226.830385 134.489436 
L 229.502397 136.921791 
L 237.518432 137.569366 
L 242.862455 136.717677 
L 245.534467 137.712732 
L 248.206479 135.309536 
L 256.222514 139.58013 
L 258.894526 142.67221 
L 264.238549 145.851767 
L 266.910561 146.362051 
L 274.926596 142.729313 
L 277.598608 139.612934 
L 280.27062 136.062813 
L 282.942631 128.957711 
L 293.630678 123.904681 
L 296.30269 119.86979 
L 298.974702 116.149574 
L 301.646714 114.076848 
L 304.318725 116.108265 
L 315.006772 117.450799 
L 317.678784 117.239396 
L 320.350796 118.692491 
L 323.022808 118.004822 
L 331.038843 116.409576 
L 333.710854 114.934611 
L 336.382866 114.044044 
L 339.054878 109.977563 
L 341.72689 107.31072 
L 349.742925 105.845475 
L 352.414937 105.168741 
L 355.086948 104.834626 
L 368.447007 107.935211 
L 371.119019 110.634858 
L 373.791031 112.970017 
L 376.463042 113.836285 
L 379.135054 116.511633 
L 387.151089 119.273243 
L 389.823101 119.945117 
L 392.495113 121.503915 
L 395.167124 123.766175 
L 397.839136 124.09057 
L 405.855171 123.682343 
L 411.199195 127.948077 
L 413.871207 131.300159 
L 416.543218 135.448041 
L 424.559254 140.175461 
L 427.231265 145.422885 
L 429.903277 149.122447 
L 432.575289 154.169402 
L 435.2473 158.158124 
L 443.263336 160.362066 
L 445.935347 158.685418 
L 448.607359 156.063528 
L 451.279371 154.145102 
L 453.951383 151.594896 
L 461.967418 151.326389 
L 467.311441 159.707202 
L 469.983453 160.501787 
L 472.655465 167.0881 
L 480.6715 169.723354 
L 483.343512 167.623898 
L 486.015523 166.982398 
L 488.687535 168.107454 
L 491.359547 164.842849 
L 499.375582 164.398173 
L 502.047594 167.351747 
L 507.391617 171.458321 
L 510.063629 173.353663 
L 518.079664 177.710519 
L 520.751676 181.958028 
L 526.095699 186.148435 
L 528.767711 187.467884 
L 536.783746 188.155553 
L 539.455758 187.020778 
L 542.12777 188.144618 
L 544.799782 188.667052 
L 547.471793 188.586865 
L 555.487829 186.704888 
L 558.15984 185.66488 
L 560.831852 184.475431 
L 563.503864 183.801127 
L 566.175876 183.262898 
L 576.863922 182.690651 
L 579.535934 181.516997 
L 582.207946 179.96549 
L 584.879958 179.068847 
L 592.895993 177.093318 
L 595.568005 176.761633 
L 598.240016 177.163786 
L 600.912028 178.4966 
L 603.58404 179.703058 
L 611.600075 181.205966 
L 614.272087 181.343257 
L 616.944099 179.219502 
L 619.61611 175.523586 
L 622.288122 171.126636 
L 630.304157 168.798767 
L 632.976169 167.362682 
L 638.320192 166.294729 
L 640.992204 168.018761 
L 649.008239 169.130452 
L 651.680251 169.931113 
L 654.352263 171.238413 
L 657.024275 173.845722 
L 659.696286 174.913675 
L 667.712322 173.948994 
L 673.056345 171.755987 
L 675.728357 168.011472 
L 678.400368 163.406763 
L 689.088415 158.532333 
L 691.760427 154.043045 
L 694.432439 150.63386 
L 697.104451 149.653385 
L 705.120486 150.276661 
L 707.792498 150.95704 
L 710.464509 150.897507 
L 713.136521 149.188055 
L 715.808533 148.363095 
L 723.824568 147.614678 
L 726.49658 167.9082 
L 731.840603 190.998566 
L 734.512615 215.269876 
L 742.52865 238.58501 
L 745.200662 260.869855 
L 747.872674 261.716684 
L 753.216697 262.505195 
L 761.232732 262.534354 
L 763.904744 262.288932 
L 766.576756 263.219593 
L 769.248768 263.852589 
L 771.920779 265.076056 
L 779.936814 266.941024 
L 782.608826 268.142622 
L 785.280838 268.983376 
L 790.624861 269.425623 
L 798.640897 270.696474 
L 801.312908 272.969669 
L 803.98492 275.462772 
L 806.656932 278.704293 
L 809.328944 280.92889 
L 817.344979 282.407499 
L 820.016991 282.627407 
L 828.033026 282.471892 
L 836.049061 283.477881 
L 838.721073 284.036764 
L 841.393084 285.056118 
L 844.065096 286.385287 
L 846.737108 287.339033 
L 854.753143 287.815298 
L 857.425155 287.483613 
L 860.097167 287.484828 
L 865.44119 285.531168 
L 881.47326 283.724519 
L 884.145272 283.567789 
L 892.161307 283.53134 
L 897.505331 283.144982 
L 900.177343 282.015066 
L 902.849354 281.07833 
L 916.209413 278.839154 
L 918.881425 279.46243 
L 921.553437 281.305528 
L 929.569472 282.747689 
L 934.913495 286.743701 
L 937.585507 287.017068 
L 940.257519 287.767915 
L 940.257519 287.767915 
" clip-path="url(#p06a3726d35)" style="fill: none; stroke: #ff7f0e; stroke-width: 1.5; stroke-linecap: square"/>
   </g>
   <g id="patch_3">
    <path d="M 45.267188 301.717812 
L 45.267188 48.331875 
" style="fill: none; stroke: #000000; stroke-width: 0.8; stroke-linejoin: miter; stroke-linecap: square"/>
   </g>
   <g id="patch_4">
    <path d="M 982.876106 301.717812 
L 982.876106 48.331875 
" style="fill: none; stroke: #000000; stroke-width: 0.8; stroke-linejoin: miter; stroke-linecap: square"/>
   </g>
   <g id="patch_5">
    <path d="M 45.267188 301.717812 
L 982.876106 301.717812 
" style="fill: none; stroke: #000000; stroke-width: 0.8; stroke-linejoin: miter; stroke-linecap: square"/>
   </g>
   <g id="patch_6">
    <path d="M 45.267188 48.331875 
L 982.876106 48.331875 
" style="fill: none; stroke: #000000; stroke-width: 0.8; stroke-linejoin: miter; stroke-linecap: square"/>
   </g>
   <g id="text_10">
    <!-- Closing Price -->
    <g transform="translate(475.595709 42.331875)scale(0.12 -0.12)">
     <defs>
      <path id="DejaVuSans-43" d="M 4122 4306 
L 4122 3641 
Q 3803 3938 3442 4084 
Q 3081 4231 2675 4231 
Q 1875 4231 1450 3742 
Q 1025 3253 1025 2328 
Q 1025 1406 1450 917 
Q 1875 428 2675 428 
Q 3081 428 3442 575 
Q 3803 722 4122 1019 
L 4122 359 
Q 3791 134 3420 21 
Q 3050 -91 2638 -91 
Q 1578 -91 968 557 
Q 359 1206 359 2328 
Q 359 3453 968 4101 
Q 1578 4750 2638 4750 
Q 3056 4750 3426 4639 
Q 3797 4528 4122 4306 
z
" transform="scale(0.015625)"/>
      <path id="DejaVuSans-6c" d="M 603 4863 
L 1178 4863 
L 1178 0 
L 603 0 
L 603 4863 
z
" transform="scale(0.015625)"/>
      <path id="DejaVuSans-6f" d="M 1959 3097 
Q 1497 3097 1228 2736 
Q 959 2375 959 1747 
Q 959 1119 1226 758 
Q 1494 397 1959 397 
Q 2419 397 2687 759 
Q 2956 1122 2956 1747 
Q 2956 2369 2687 2733 
Q 2419 3097 1959 3097 
z
M 1959 3584 
Q 2709 3584 3137 3096 
Q 3566 2609 3566 1747 
Q 3566 888 3137 398 
Q 2709 -91 1959 -91 
Q 1206 -91 779 398 
Q 353 888 353 1747 
Q 353 2609 779 3096 
Q 1206 3584 1959 3584 
z
" transform="scale(0.015625)"/>
      <path id="DejaVuSans-73" d="M 2834 3397 
L 2834 2853 
Q 2591 2978 2328 3040 
Q 2066 3103 1784 3103 
Q 1356 3103 1142 2972 
Q 928 2841 928 2578 
Q 928 2378 1081 2264 
Q 1234 2150 1697 2047 
L 1894 2003 
Q 2506 1872 2764 1633 
Q 3022 1394 3022 966 
Q 3022 478 2636 193 
Q 2250 -91 1575 -91 
Q 1294 -91 989 -36 
Q 684 19 347 128 
L 347 722 
Q 666 556 975 473 
Q 1284 391 1588 391 
Q 1994 391 2212 530 
Q 2431 669 2431 922 
Q 2431 1156 2273 1281 
Q 2116 1406 1581 1522 
L 1381 1569 
Q 847 1681 609 1914 
Q 372 2147 372 2553 
Q 372 3047 722 3315 
Q 1072 3584 1716 3584 
Q 2034 3584 2315 3537 
Q 2597 3491 2834 3397 
z
" transform="scale(0.015625)"/>
      <path id="DejaVuSans-69" d="M 603 3500 
L 1178 3500 
L 1178 0 
L 603 0 
L 603 3500 
z
M 603 4863 
L 1178 4863 
L 1178 4134 
L 603 4134 
L 603 4863 
z
" transform="scale(0.015625)"/>
      <path id="DejaVuSans-6e" d="M 3513 2113 
L 3513 0 
L 2938 0 
L 2938 2094 
Q 2938 2591 2744 2837 
Q 2550 3084 2163 3084 
Q 1697 3084 1428 2787 
Q 1159 2491 1159 1978 
L 1159 0 
L 581 0 
L 581 3500 
L 1159 3500 
L 1159 2956 
Q 1366 3272 1645 3428 
Q 1925 3584 2291 3584 
Q 2894 3584 3203 3211 
Q 3513 2838 3513 2113 
z
" transform="scale(0.015625)"/>
      <path id="DejaVuSans-67" d="M 2906 1791 
Q 2906 2416 2648 2759 
Q 2391 3103 1925 3103 
Q 1463 3103 1205 2759 
Q 947 2416 947 1791 
Q 947 1169 1205 825 
Q 1463 481 1925 481 
Q 2391 481 2648 825 
Q 2906 1169 2906 1791 
z
M 3481 434 
Q 3481 -459 3084 -895 
Q 2688 -1331 1869 -1331 
Q 1566 -1331 1297 -1286 
Q 1028 -1241 775 -1147 
L 775 -588 
Q 1028 -725 1275 -790 
Q 1522 -856 1778 -856 
Q 2344 -856 2625 -561 
Q 2906 -266 2906 331 
L 2906 616 
Q 2728 306 2450 153 
Q 2172 0 1784 0 
Q 1141 0 747 490 
Q 353 981 353 1791 
Q 353 2603 747 3093 
Q 1141 3584 1784 3584 
Q 2172 3584 2450 3431 
Q 2728 3278 2906 2969 
L 2906 3500 
L 3481 3500 
L 3481 434 
z
" transform="scale(0.015625)"/>
      <path id="DejaVuSans-20" transform="scale(0.015625)"/>
      <path id="DejaVuSans-50" d="M 1259 4147 
L 1259 2394 
L 2053 2394 
Q 2494 2394 2734 2622 
Q 2975 2850 2975 3272 
Q 2975 3691 2734 3919 
Q 2494 4147 2053 4147 
L 1259 4147 
z
M 628 4666 
L 2053 4666 
Q 2838 4666 3239 4311 
Q 3641 3956 3641 3272 
Q 3641 2581 3239 2228 
Q 2838 1875 2053 1875 
L 1259 1875 
L 1259 0 
L 628 0 
L 628 4666 
z
" transform="scale(0.015625)"/>
      <path id="DejaVuSans-72" d="M 2631 2963 
Q 2534 3019 2420 3045 
Q 2306 3072 2169 3072 
Q 1681 3072 1420 2755 
Q 1159 2438 1159 1844 
L 1159 0 
L 581 0 
L 581 3500 
L 1159 3500 
L 1159 2956 
Q 1341 3275 1631 3429 
Q 1922 3584 2338 3584 
Q 2397 3584 2469 3576 
Q 2541 3569 2628 3553 
L 2631 2963 
z
" transform="scale(0.015625)"/>
      <path id="DejaVuSans-63" d="M 3122 3366 
L 3122 2828 
Q 2878 2963 2633 3030 
Q 2388 3097 2138 3097 
Q 1578 3097 1268 2742 
Q 959 2388 959 1747 
Q 959 1106 1268 751 
Q 1578 397 2138 397 
Q 2388 397 2633 464 
Q 2878 531 3122 666 
L 3122 134 
Q 2881 22 2623 -34 
Q 2366 -91 2075 -91 
Q 1284 -91 818 406 
Q 353 903 353 1747 
Q 353 2603 823 3093 
Q 1294 3584 2113 3584 
Q 2378 3584 2631 3529 
Q 2884 3475 3122 3366 
z
" transform="scale(0.015625)"/>
      <path id="DejaVuSans-65" d="M 3597 1894 
L 3597 1613 
L 953 1613 
Q 991 1019 1311 708 
Q 1631 397 2203 397 
Q 2534 397 2845 478 
Q 3156 559 3463 722 
L 3463 178 
Q 3153 47 2828 -22 
Q 2503 -91 2169 -91 
Q 1331 -91 842 396 
Q 353 884 353 1716 
Q 353 2575 817 3079 
Q 1281 3584 2069 3584 
Q 2775 3584 3186 3129 
Q 3597 2675 3597 1894 
z
M 3022 2063 
Q 3016 2534 2758 2815 
Q 2500 3097 2075 3097 
Q 1594 3097 1305 2825 
Q 1016 2553 972 2059 
L 3022 2063 
z
" transform="scale(0.015625)"/>
     </defs>
     <use xlink:href="#DejaVuSans-43"/>
     <use xlink:href="#DejaVuSans-6c" x="69.824219"/>
     <use xlink:href="#DejaVuSans-6f" x="97.607422"/>
     <use xlink:href="#DejaVuSans-73" x="158.789062"/>
     <use xlink:href="#DejaVuSans-69" x="210.888672"/>
     <use xlink:href="#DejaVuSans-6e" x="238.671875"/>
     <use xlink:href="#DejaVuSans-67" x="302.050781"/>
     <use xlink:href="#DejaVuSans-20" x="365.527344"/>
     <use xlink:href="#DejaVuSans-50" x="397.314453"/>
     <use xlink:href="#DejaVuSans-72" x="455.867188"/>
     <use xlink:href="#DejaVuSans-69" x="496.980469"/>
     <use xlink:href="#DejaVuSans-63" x="524.763672"/>
     <use xlink:href="#DejaVuSans-65" x="579.744141"/>
    </g>
   </g>
   <g id="legend_1">
    <g id="patch_7">
     <path d="M 911.144856 85.688125 
L 975.876106 85.688125 
Q 977.876106 85.688125 977.876106 83.688125 
L 977.876106 55.331875 
Q 977.876106 53.331875 975.876106 53.331875 
L 911.144856 53.331875 
Q 909.144856 53.331875 909.144856 55.331875 
L 909.144856 83.688125 
Q 909.144856 85.688125 911.144856 85.688125 
z
" style="fill: #ffffff; opacity: 0.8; stroke: #cccccc; stroke-linejoin: miter"/>
    </g>
    <g id="line2d_45">
     <path d="M 913.144856 61.430312 
L 923.144856 61.430312 
L 933.144856 61.430312 
" style="fill: none; stroke: #1f77b4; stroke-width: 1.5; stroke-linecap: square"/>
    </g>
    <g id="text_11">
     <!-- CLOSE -->
     <g transform="translate(941.144856 64.930312)scale(0.1 -0.1)">
      <defs>
       <path id="DejaVuSans-4c" d="M 628 4666 
L 1259 4666 
L 1259 531 
L 3531 531 
L 3531 0 
L 628 0 
L 628 4666 
z
" transform="scale(0.015625)"/>
       <path id="DejaVuSans-4f" d="M 2522 4238 
Q 1834 4238 1429 3725 
Q 1025 3213 1025 2328 
Q 1025 1447 1429 934 
Q 1834 422 2522 422 
Q 3209 422 3611 934 
Q 4013 1447 4013 2328 
Q 4013 3213 3611 3725 
Q 3209 4238 2522 4238 
z
M 2522 4750 
Q 3503 4750 4090 4092 
Q 4678 3434 4678 2328 
Q 4678 1225 4090 567 
Q 3503 -91 2522 -91 
Q 1538 -91 948 565 
Q 359 1222 359 2328 
Q 359 3434 948 4092 
Q 1538 4750 2522 4750 
z
" transform="scale(0.015625)"/>
       <path id="DejaVuSans-53" d="M 3425 4513 
L 3425 3897 
Q 3066 4069 2747 4153 
Q 2428 4238 2131 4238 
Q 1616 4238 1336 4038 
Q 1056 3838 1056 3469 
Q 1056 3159 1242 3001 
Q 1428 2844 1947 2747 
L 2328 2669 
Q 3034 2534 3370 2195 
Q 3706 1856 3706 1288 
Q 3706 609 3251 259 
Q 2797 -91 1919 -91 
Q 1588 -91 1214 -16 
Q 841 59 441 206 
L 441 856 
Q 825 641 1194 531 
Q 1563 422 1919 422 
Q 2459 422 2753 634 
Q 3047 847 3047 1241 
Q 3047 1584 2836 1778 
Q 2625 1972 2144 2069 
L 1759 2144 
Q 1053 2284 737 2584 
Q 422 2884 422 3419 
Q 422 4038 858 4394 
Q 1294 4750 2059 4750 
Q 2388 4750 2728 4690 
Q 3069 4631 3425 4513 
z
" transform="scale(0.015625)"/>
       <path id="DejaVuSans-45" d="M 628 4666 
L 3578 4666 
L 3578 4134 
L 1259 4134 
L 1259 2753 
L 3481 2753 
L 3481 2222 
L 1259 2222 
L 1259 531 
L 3634 531 
L 3634 0 
L 628 0 
L 628 4666 
z
" transform="scale(0.015625)"/>
      </defs>
      <use xlink:href="#DejaVuSans-43"/>
      <use xlink:href="#DejaVuSans-4c" x="69.824219"/>
      <use xlink:href="#DejaVuSans-4f" x="121.912109"/>
      <use xlink:href="#DejaVuSans-53" x="200.623047"/>
      <use xlink:href="#DejaVuSans-45" x="264.099609"/>
     </g>
    </g>
    <g id="line2d_46">
     <path d="M 913.144856 76.108437 
L 923.144856 76.108437 
L 933.144856 76.108437 
" style="fill: none; stroke: #ff7f0e; stroke-width: 1.5; stroke-linecap: square"/>
    </g>
    <g id="text_12">
     <!-- SMA5 -->
     <g transform="translate(941.144856 79.608437)scale(0.1 -0.1)">
      <defs>
       <path id="DejaVuSans-4d" d="M 628 4666 
L 1569 4666 
L 2759 1491 
L 3956 4666 
L 4897 4666 
L 4897 0 
L 4281 0 
L 4281 4097 
L 3078 897 
L 2444 897 
L 1241 4097 
L 1241 0 
L 628 0 
L 628 4666 
z
" transform="scale(0.015625)"/>
       <path id="DejaVuSans-41" d="M 2188 4044 
L 1331 1722 
L 3047 1722 
L 2188 4044 
z
M 1831 4666 
L 2547 4666 
L 4325 0 
L 3669 0 
L 3244 1197 
L 1141 1197 
L 716 0 
L 50 0 
L 1831 4666 
z
" transform="scale(0.015625)"/>
      </defs>
      <use xlink:href="#DejaVuSans-53"/>
      <use xlink:href="#DejaVuSans-4d" x="63.476562"/>
      <use xlink:href="#DejaVuSans-41" x="149.755859"/>
      <use xlink:href="#DejaVuSans-35" x="218.164062"/>
     </g>
    </g>
   </g>
  </g>
  <g id="axes_2">
   <g id="patch_8">
    <path d="M 45.267188 584.521875 
L 982.876106 584.521875 
L 982.876106 331.135938 
L 45.267188 331.135938 
z
" style="fill: #ffffff"/>
   </g>
   <g id="matplotlib.axis_3">
    <g id="xtick_13">
     <g id="line2d_47">
      <path d="M 82.541751 584.521875 
L 82.541751 331.135938 
" clip-path="url(#p9046d89b78)" style="fill: none; stroke-dasharray: 2.96,1.28; stroke-dashoffset: 0; stroke: #b0b0b0; stroke-width: 0.8"/>
     </g>
     <g id="line2d_48">
      <g>
       <use xlink:href="#m942b69504b" x="82.541751" y="584.521875" style="stroke: #000000; stroke-width: 0.8"/>
      </g>
     </g>
     <g id="text_13">
      <!-- 2022-01 -->
      <g transform="translate(61.650345 599.120312)scale(0.1 -0.1)">
       <defs>
        <path id="DejaVuSans-2d" d="M 313 2009 
L 1997 2009 
L 1997 1497 
L 313 1497 
L 313 2009 
z
" transform="scale(0.015625)"/>
       </defs>
       <use xlink:href="#DejaVuSans-32"/>
       <use xlink:href="#DejaVuSans-30" x="63.623047"/>
       <use xlink:href="#DejaVuSans-32" x="127.246094"/>
       <use xlink:href="#DejaVuSans-32" x="190.869141"/>
       <use xlink:href="#DejaVuSans-2d" x="254.492188"/>
       <use xlink:href="#DejaVuSans-30" x="290.576172"/>
       <use xlink:href="#DejaVuSans-31" x="354.199219"/>
      </g>
     </g>
    </g>
    <g id="xtick_14">
     <g id="line2d_49">
      <path d="M 165.374115 584.521875 
L 165.374115 331.135938 
" clip-path="url(#p9046d89b78)" style="fill: none; stroke-dasharray: 2.96,1.28; stroke-dashoffset: 0; stroke: #b0b0b0; stroke-width: 0.8"/>
     </g>
     <g id="line2d_50">
      <g>
       <use xlink:href="#m942b69504b" x="165.374115" y="584.521875" style="stroke: #000000; stroke-width: 0.8"/>
      </g>
     </g>
     <g id="text_14">
      <!-- 2022-02 -->
      <g transform="translate(144.482709 599.120312)scale(0.1 -0.1)">
       <use xlink:href="#DejaVuSans-32"/>
       <use xlink:href="#DejaVuSans-30" x="63.623047"/>
       <use xlink:href="#DejaVuSans-32" x="127.246094"/>
       <use xlink:href="#DejaVuSans-32" x="190.869141"/>
       <use xlink:href="#DejaVuSans-2d" x="254.492188"/>
       <use xlink:href="#DejaVuSans-30" x="290.576172"/>
       <use xlink:href="#DejaVuSans-32" x="354.199219"/>
      </g>
     </g>
    </g>
    <g id="xtick_15">
     <g id="line2d_51">
      <path d="M 240.190444 584.521875 
L 240.190444 331.135938 
" clip-path="url(#p9046d89b78)" style="fill: none; stroke-dasharray: 2.96,1.28; stroke-dashoffset: 0; stroke: #b0b0b0; stroke-width: 0.8"/>
     </g>
     <g id="line2d_52">
      <g>
       <use xlink:href="#m942b69504b" x="240.190444" y="584.521875" style="stroke: #000000; stroke-width: 0.8"/>
      </g>
     </g>
     <g id="text_15">
      <!-- 2022-03 -->
      <g transform="translate(219.299037 599.120312)scale(0.1 -0.1)">
       <defs>
        <path id="DejaVuSans-33" d="M 2597 2516 
Q 3050 2419 3304 2112 
Q 3559 1806 3559 1356 
Q 3559 666 3084 287 
Q 2609 -91 1734 -91 
Q 1441 -91 1130 -33 
Q 819 25 488 141 
L 488 750 
Q 750 597 1062 519 
Q 1375 441 1716 441 
Q 2309 441 2620 675 
Q 2931 909 2931 1356 
Q 2931 1769 2642 2001 
Q 2353 2234 1838 2234 
L 1294 2234 
L 1294 2753 
L 1863 2753 
Q 2328 2753 2575 2939 
Q 2822 3125 2822 3475 
Q 2822 3834 2567 4026 
Q 2313 4219 1838 4219 
Q 1578 4219 1281 4162 
Q 984 4106 628 3988 
L 628 4550 
Q 988 4650 1302 4700 
Q 1616 4750 1894 4750 
Q 2613 4750 3031 4423 
Q 3450 4097 3450 3541 
Q 3450 3153 3228 2886 
Q 3006 2619 2597 2516 
z
" transform="scale(0.015625)"/>
       </defs>
       <use xlink:href="#DejaVuSans-32"/>
       <use xlink:href="#DejaVuSans-30" x="63.623047"/>
       <use xlink:href="#DejaVuSans-32" x="127.246094"/>
       <use xlink:href="#DejaVuSans-32" x="190.869141"/>
       <use xlink:href="#DejaVuSans-2d" x="254.492188"/>
       <use xlink:href="#DejaVuSans-30" x="290.576172"/>
       <use xlink:href="#DejaVuSans-33" x="354.199219"/>
      </g>
     </g>
    </g>
    <g id="xtick_16">
     <g id="line2d_53">
      <path d="M 323.022808 584.521875 
L 323.022808 331.135938 
" clip-path="url(#p9046d89b78)" style="fill: none; stroke-dasharray: 2.96,1.28; stroke-dashoffset: 0; stroke: #b0b0b0; stroke-width: 0.8"/>
     </g>
     <g id="line2d_54">
      <g>
       <use xlink:href="#m942b69504b" x="323.022808" y="584.521875" style="stroke: #000000; stroke-width: 0.8"/>
      </g>
     </g>
     <g id="text_16">
      <!-- 2022-04 -->
      <g transform="translate(302.131401 599.120312)scale(0.1 -0.1)">
       <defs>
        <path id="DejaVuSans-34" d="M 2419 4116 
L 825 1625 
L 2419 1625 
L 2419 4116 
z
M 2253 4666 
L 3047 4666 
L 3047 1625 
L 3713 1625 
L 3713 1100 
L 3047 1100 
L 3047 0 
L 2419 0 
L 2419 1100 
L 313 1100 
L 313 1709 
L 2253 4666 
z
" transform="scale(0.015625)"/>
       </defs>
       <use xlink:href="#DejaVuSans-32"/>
       <use xlink:href="#DejaVuSans-30" x="63.623047"/>
       <use xlink:href="#DejaVuSans-32" x="127.246094"/>
       <use xlink:href="#DejaVuSans-32" x="190.869141"/>
       <use xlink:href="#DejaVuSans-2d" x="254.492188"/>
       <use xlink:href="#DejaVuSans-30" x="290.576172"/>
       <use xlink:href="#DejaVuSans-34" x="354.199219"/>
      </g>
     </g>
    </g>
    <g id="xtick_17">
     <g id="line2d_55">
      <path d="M 403.18316 584.521875 
L 403.18316 331.135938 
" clip-path="url(#p9046d89b78)" style="fill: none; stroke-dasharray: 2.96,1.28; stroke-dashoffset: 0; stroke: #b0b0b0; stroke-width: 0.8"/>
     </g>
     <g id="line2d_56">
      <g>
       <use xlink:href="#m942b69504b" x="403.18316" y="584.521875" style="stroke: #000000; stroke-width: 0.8"/>
      </g>
     </g>
     <g id="text_17">
      <!-- 2022-05 -->
      <g transform="translate(382.291753 599.120312)scale(0.1 -0.1)">
       <use xlink:href="#DejaVuSans-32"/>
       <use xlink:href="#DejaVuSans-30" x="63.623047"/>
       <use xlink:href="#DejaVuSans-32" x="127.246094"/>
       <use xlink:href="#DejaVuSans-32" x="190.869141"/>
       <use xlink:href="#DejaVuSans-2d" x="254.492188"/>
       <use xlink:href="#DejaVuSans-30" x="290.576172"/>
       <use xlink:href="#DejaVuSans-35" x="354.199219"/>
      </g>
     </g>
    </g>
    <g id="xtick_18">
     <g id="line2d_57">
      <path d="M 486.015523 584.521875 
L 486.015523 331.135938 
" clip-path="url(#p9046d89b78)" style="fill: none; stroke-dasharray: 2.96,1.28; stroke-dashoffset: 0; stroke: #b0b0b0; stroke-width: 0.8"/>
     </g>
     <g id="line2d_58">
      <g>
       <use xlink:href="#m942b69504b" x="486.015523" y="584.521875" style="stroke: #000000; stroke-width: 0.8"/>
      </g>
     </g>
     <g id="text_18">
      <!-- 2022-06 -->
      <g transform="translate(465.124117 599.120312)scale(0.1 -0.1)">
       <defs>
        <path id="DejaVuSans-36" d="M 2113 2584 
Q 1688 2584 1439 2293 
Q 1191 2003 1191 1497 
Q 1191 994 1439 701 
Q 1688 409 2113 409 
Q 2538 409 2786 701 
Q 3034 994 3034 1497 
Q 3034 2003 2786 2293 
Q 2538 2584 2113 2584 
z
M 3366 4563 
L 3366 3988 
Q 3128 4100 2886 4159 
Q 2644 4219 2406 4219 
Q 1781 4219 1451 3797 
Q 1122 3375 1075 2522 
Q 1259 2794 1537 2939 
Q 1816 3084 2150 3084 
Q 2853 3084 3261 2657 
Q 3669 2231 3669 1497 
Q 3669 778 3244 343 
Q 2819 -91 2113 -91 
Q 1303 -91 875 529 
Q 447 1150 447 2328 
Q 447 3434 972 4092 
Q 1497 4750 2381 4750 
Q 2619 4750 2861 4703 
Q 3103 4656 3366 4563 
z
" transform="scale(0.015625)"/>
       </defs>
       <use xlink:href="#DejaVuSans-32"/>
       <use xlink:href="#DejaVuSans-30" x="63.623047"/>
       <use xlink:href="#DejaVuSans-32" x="127.246094"/>
       <use xlink:href="#DejaVuSans-32" x="190.869141"/>
       <use xlink:href="#DejaVuSans-2d" x="254.492188"/>
       <use xlink:href="#DejaVuSans-30" x="290.576172"/>
       <use xlink:href="#DejaVuSans-36" x="354.199219"/>
      </g>
     </g>
    </g>
    <g id="xtick_19">
     <g id="line2d_59">
      <path d="M 566.175876 584.521875 
L 566.175876 331.135938 
" clip-path="url(#p9046d89b78)" style="fill: none; stroke-dasharray: 2.96,1.28; stroke-dashoffset: 0; stroke: #b0b0b0; stroke-width: 0.8"/>
     </g>
     <g id="line2d_60">
      <g>
       <use xlink:href="#m942b69504b" x="566.175876" y="584.521875" style="stroke: #000000; stroke-width: 0.8"/>
      </g>
     </g>
     <g id="text_19">
      <!-- 2022-07 -->
      <g transform="translate(545.284469 599.120312)scale(0.1 -0.1)">
       <use xlink:href="#DejaVuSans-32"/>
       <use xlink:href="#DejaVuSans-30" x="63.623047"/>
       <use xlink:href="#DejaVuSans-32" x="127.246094"/>
       <use xlink:href="#DejaVuSans-32" x="190.869141"/>
       <use xlink:href="#DejaVuSans-2d" x="254.492188"/>
       <use xlink:href="#DejaVuSans-30" x="290.576172"/>
       <use xlink:href="#DejaVuSans-37" x="354.199219"/>
      </g>
     </g>
    </g>
    <g id="xtick_20">
     <g id="line2d_61">
      <path d="M 649.008239 584.521875 
L 649.008239 331.135938 
" clip-path="url(#p9046d89b78)" style="fill: none; stroke-dasharray: 2.96,1.28; stroke-dashoffset: 0; stroke: #b0b0b0; stroke-width: 0.8"/>
     </g>
     <g id="line2d_62">
      <g>
       <use xlink:href="#m942b69504b" x="649.008239" y="584.521875" style="stroke: #000000; stroke-width: 0.8"/>
      </g>
     </g>
     <g id="text_20">
      <!-- 2022-08 -->
      <g transform="translate(628.116833 599.120312)scale(0.1 -0.1)">
       <defs>
        <path id="DejaVuSans-38" d="M 2034 2216 
Q 1584 2216 1326 1975 
Q 1069 1734 1069 1313 
Q 1069 891 1326 650 
Q 1584 409 2034 409 
Q 2484 409 2743 651 
Q 3003 894 3003 1313 
Q 3003 1734 2745 1975 
Q 2488 2216 2034 2216 
z
M 1403 2484 
Q 997 2584 770 2862 
Q 544 3141 544 3541 
Q 544 4100 942 4425 
Q 1341 4750 2034 4750 
Q 2731 4750 3128 4425 
Q 3525 4100 3525 3541 
Q 3525 3141 3298 2862 
Q 3072 2584 2669 2484 
Q 3125 2378 3379 2068 
Q 3634 1759 3634 1313 
Q 3634 634 3220 271 
Q 2806 -91 2034 -91 
Q 1263 -91 848 271 
Q 434 634 434 1313 
Q 434 1759 690 2068 
Q 947 2378 1403 2484 
z
M 1172 3481 
Q 1172 3119 1398 2916 
Q 1625 2713 2034 2713 
Q 2441 2713 2670 2916 
Q 2900 3119 2900 3481 
Q 2900 3844 2670 4047 
Q 2441 4250 2034 4250 
Q 1625 4250 1398 4047 
Q 1172 3844 1172 3481 
z
" transform="scale(0.015625)"/>
       </defs>
       <use xlink:href="#DejaVuSans-32"/>
       <use xlink:href="#DejaVuSans-30" x="63.623047"/>
       <use xlink:href="#DejaVuSans-32" x="127.246094"/>
       <use xlink:href="#DejaVuSans-32" x="190.869141"/>
       <use xlink:href="#DejaVuSans-2d" x="254.492188"/>
       <use xlink:href="#DejaVuSans-30" x="290.576172"/>
       <use xlink:href="#DejaVuSans-38" x="354.199219"/>
      </g>
     </g>
    </g>
    <g id="xtick_21">
     <g id="line2d_63">
      <path d="M 731.840603 584.521875 
L 731.840603 331.135938 
" clip-path="url(#p9046d89b78)" style="fill: none; stroke-dasharray: 2.96,1.28; stroke-dashoffset: 0; stroke: #b0b0b0; stroke-width: 0.8"/>
     </g>
     <g id="line2d_64">
      <g>
       <use xlink:href="#m942b69504b" x="731.840603" y="584.521875" style="stroke: #000000; stroke-width: 0.8"/>
      </g>
     </g>
     <g id="text_21">
      <!-- 2022-09 -->
      <g transform="translate(710.949197 599.120312)scale(0.1 -0.1)">
       <defs>
        <path id="DejaVuSans-39" d="M 703 97 
L 703 672 
Q 941 559 1184 500 
Q 1428 441 1663 441 
Q 2288 441 2617 861 
Q 2947 1281 2994 2138 
Q 2813 1869 2534 1725 
Q 2256 1581 1919 1581 
Q 1219 1581 811 2004 
Q 403 2428 403 3163 
Q 403 3881 828 4315 
Q 1253 4750 1959 4750 
Q 2769 4750 3195 4129 
Q 3622 3509 3622 2328 
Q 3622 1225 3098 567 
Q 2575 -91 1691 -91 
Q 1453 -91 1209 -44 
Q 966 3 703 97 
z
M 1959 2075 
Q 2384 2075 2632 2365 
Q 2881 2656 2881 3163 
Q 2881 3666 2632 3958 
Q 2384 4250 1959 4250 
Q 1534 4250 1286 3958 
Q 1038 3666 1038 3163 
Q 1038 2656 1286 2365 
Q 1534 2075 1959 2075 
z
" transform="scale(0.015625)"/>
       </defs>
       <use xlink:href="#DejaVuSans-32"/>
       <use xlink:href="#DejaVuSans-30" x="63.623047"/>
       <use xlink:href="#DejaVuSans-32" x="127.246094"/>
       <use xlink:href="#DejaVuSans-32" x="190.869141"/>
       <use xlink:href="#DejaVuSans-2d" x="254.492188"/>
       <use xlink:href="#DejaVuSans-30" x="290.576172"/>
       <use xlink:href="#DejaVuSans-39" x="354.199219"/>
      </g>
     </g>
    </g>
    <g id="xtick_22">
     <g id="line2d_65">
      <path d="M 812.000955 584.521875 
L 812.000955 331.135938 
" clip-path="url(#p9046d89b78)" style="fill: none; stroke-dasharray: 2.96,1.28; stroke-dashoffset: 0; stroke: #b0b0b0; stroke-width: 0.8"/>
     </g>
     <g id="line2d_66">
      <g>
       <use xlink:href="#m942b69504b" x="812.000955" y="584.521875" style="stroke: #000000; stroke-width: 0.8"/>
      </g>
     </g>
     <g id="text_22">
      <!-- 2022-10 -->
      <g transform="translate(791.109549 599.120312)scale(0.1 -0.1)">
       <use xlink:href="#DejaVuSans-32"/>
       <use xlink:href="#DejaVuSans-30" x="63.623047"/>
       <use xlink:href="#DejaVuSans-32" x="127.246094"/>
       <use xlink:href="#DejaVuSans-32" x="190.869141"/>
       <use xlink:href="#DejaVuSans-2d" x="254.492188"/>
       <use xlink:href="#DejaVuSans-31" x="290.576172"/>
       <use xlink:href="#DejaVuSans-30" x="354.199219"/>
      </g>
     </g>
    </g>
    <g id="xtick_23">
     <g id="line2d_67">
      <path d="M 894.833319 584.521875 
L 894.833319 331.135938 
" clip-path="url(#p9046d89b78)" style="fill: none; stroke-dasharray: 2.96,1.28; stroke-dashoffset: 0; stroke: #b0b0b0; stroke-width: 0.8"/>
     </g>
     <g id="line2d_68">
      <g>
       <use xlink:href="#m942b69504b" x="894.833319" y="584.521875" style="stroke: #000000; stroke-width: 0.8"/>
      </g>
     </g>
     <g id="text_23">
      <!-- 2022-11 -->
      <g transform="translate(873.941913 599.120312)scale(0.1 -0.1)">
       <use xlink:href="#DejaVuSans-32"/>
       <use xlink:href="#DejaVuSans-30" x="63.623047"/>
       <use xlink:href="#DejaVuSans-32" x="127.246094"/>
       <use xlink:href="#DejaVuSans-32" x="190.869141"/>
       <use xlink:href="#DejaVuSans-2d" x="254.492188"/>
       <use xlink:href="#DejaVuSans-31" x="290.576172"/>
       <use xlink:href="#DejaVuSans-31" x="354.199219"/>
      </g>
     </g>
    </g>
    <g id="xtick_24">
     <g id="line2d_69">
      <path d="M 974.993671 584.521875 
L 974.993671 331.135938 
" clip-path="url(#p9046d89b78)" style="fill: none; stroke-dasharray: 2.96,1.28; stroke-dashoffset: 0; stroke: #b0b0b0; stroke-width: 0.8"/>
     </g>
     <g id="line2d_70">
      <g>
       <use xlink:href="#m942b69504b" x="974.993671" y="584.521875" style="stroke: #000000; stroke-width: 0.8"/>
      </g>
     </g>
     <g id="text_24">
      <!-- 2022-12 -->
      <g transform="translate(954.102265 599.120312)scale(0.1 -0.1)">
       <use xlink:href="#DejaVuSans-32"/>
       <use xlink:href="#DejaVuSans-30" x="63.623047"/>
       <use xlink:href="#DejaVuSans-32" x="127.246094"/>
       <use xlink:href="#DejaVuSans-32" x="190.869141"/>
       <use xlink:href="#DejaVuSans-2d" x="254.492188"/>
       <use xlink:href="#DejaVuSans-31" x="290.576172"/>
       <use xlink:href="#DejaVuSans-32" x="354.199219"/>
      </g>
     </g>
    </g>
   </g>
   <g id="matplotlib.axis_4">
    <g id="ytick_10">
     <g id="line2d_71">
      <path d="M 45.267188 553.058728 
L 982.876106 553.058728 
" clip-path="url(#p9046d89b78)" style="fill: none; stroke-dasharray: 2.96,1.28; stroke-dashoffset: 0; stroke: #b0b0b0; stroke-width: 0.8"/>
     </g>
     <g id="line2d_72">
      <g>
       <use xlink:href="#mbd8afa5f53" x="45.267188" y="553.058728" style="stroke: #000000; stroke-width: 0.8"/>
      </g>
     </g>
     <g id="text_25">
      <!-- 200 -->
      <g transform="translate(10.8 556.857947)scale(0.1 -0.1)">
       <defs>
        <path id="DejaVuSans-2212" d="M 678 2272 
L 4684 2272 
L 4684 1741 
L 678 1741 
L 678 2272 
z
" transform="scale(0.015625)"/>
       </defs>
       <use xlink:href="#DejaVuSans-2212"/>
       <use xlink:href="#DejaVuSans-32" x="83.789062"/>
       <use xlink:href="#DejaVuSans-30" x="147.412109"/>
       <use xlink:href="#DejaVuSans-30" x="211.035156"/>
      </g>
     </g>
    </g>
    <g id="ytick_11">
     <g id="line2d_73">
      <path d="M 45.267188 512.741897 
L 982.876106 512.741897 
" clip-path="url(#p9046d89b78)" style="fill: none; stroke-dasharray: 2.96,1.28; stroke-dashoffset: 0; stroke: #b0b0b0; stroke-width: 0.8"/>
     </g>
     <g id="line2d_74">
      <g>
       <use xlink:href="#mbd8afa5f53" x="45.267188" y="512.741897" style="stroke: #000000; stroke-width: 0.8"/>
      </g>
     </g>
     <g id="text_26">
      <!-- 150 -->
      <g transform="translate(10.8 516.541116)scale(0.1 -0.1)">
       <use xlink:href="#DejaVuSans-2212"/>
       <use xlink:href="#DejaVuSans-31" x="83.789062"/>
       <use xlink:href="#DejaVuSans-35" x="147.412109"/>
       <use xlink:href="#DejaVuSans-30" x="211.035156"/>
      </g>
     </g>
    </g>
    <g id="ytick_12">
     <g id="line2d_75">
      <path d="M 45.267188 472.425066 
L 982.876106 472.425066 
" clip-path="url(#p9046d89b78)" style="fill: none; stroke-dasharray: 2.96,1.28; stroke-dashoffset: 0; stroke: #b0b0b0; stroke-width: 0.8"/>
     </g>
     <g id="line2d_76">
      <g>
       <use xlink:href="#mbd8afa5f53" x="45.267188" y="472.425066" style="stroke: #000000; stroke-width: 0.8"/>
      </g>
     </g>
     <g id="text_27">
      <!-- 100 -->
      <g transform="translate(10.8 476.224285)scale(0.1 -0.1)">
       <use xlink:href="#DejaVuSans-2212"/>
       <use xlink:href="#DejaVuSans-31" x="83.789062"/>
       <use xlink:href="#DejaVuSans-30" x="147.412109"/>
       <use xlink:href="#DejaVuSans-30" x="211.035156"/>
      </g>
     </g>
    </g>
    <g id="ytick_13">
     <g id="line2d_77">
      <path d="M 45.267188 432.108236 
L 982.876106 432.108236 
" clip-path="url(#p9046d89b78)" style="fill: none; stroke-dasharray: 2.96,1.28; stroke-dashoffset: 0; stroke: #b0b0b0; stroke-width: 0.8"/>
     </g>
     <g id="line2d_78">
      <g>
       <use xlink:href="#mbd8afa5f53" x="45.267188" y="432.108236" style="stroke: #000000; stroke-width: 0.8"/>
      </g>
     </g>
     <g id="text_28">
      <!-- 50 -->
      <g transform="translate(17.1625 435.907454)scale(0.1 -0.1)">
       <use xlink:href="#DejaVuSans-2212"/>
       <use xlink:href="#DejaVuSans-35" x="83.789062"/>
       <use xlink:href="#DejaVuSans-30" x="147.412109"/>
      </g>
     </g>
    </g>
    <g id="ytick_14">
     <g id="line2d_79">
      <path d="M 45.267188 391.791405 
L 982.876106 391.791405 
" clip-path="url(#p9046d89b78)" style="fill: none; stroke-dasharray: 2.96,1.28; stroke-dashoffset: 0; stroke: #b0b0b0; stroke-width: 0.8"/>
     </g>
     <g id="line2d_80">
      <g>
       <use xlink:href="#mbd8afa5f53" x="45.267188" y="391.791405" style="stroke: #000000; stroke-width: 0.8"/>
      </g>
     </g>
     <g id="text_29">
      <!-- 0 -->
      <g transform="translate(31.904688 395.590623)scale(0.1 -0.1)">
       <use xlink:href="#DejaVuSans-30"/>
      </g>
     </g>
    </g>
    <g id="ytick_15">
     <g id="line2d_81">
      <path d="M 45.267188 351.474574 
L 982.876106 351.474574 
" clip-path="url(#p9046d89b78)" style="fill: none; stroke-dasharray: 2.96,1.28; stroke-dashoffset: 0; stroke: #b0b0b0; stroke-width: 0.8"/>
     </g>
     <g id="line2d_82">
      <g>
       <use xlink:href="#mbd8afa5f53" x="45.267188" y="351.474574" style="stroke: #000000; stroke-width: 0.8"/>
      </g>
     </g>
     <g id="text_30">
      <!-- 50 -->
      <g transform="translate(25.542188 355.273792)scale(0.1 -0.1)">
       <use xlink:href="#DejaVuSans-35"/>
       <use xlink:href="#DejaVuSans-30" x="63.623047"/>
      </g>
     </g>
    </g>
   </g>
   <g id="line2d_83">
    <path d="M 87.885775 391.791405 
L 90.557786 391.911709 
L 93.229798 392.466039 
L 95.90181 392.656501 
L 98.573822 395.310267 
L 106.589857 396.834225 
L 109.261869 398.082671 
L 111.93388 396.138028 
L 114.605892 394.781271 
L 117.277904 393.567655 
L 125.293939 391.424279 
L 127.965951 394.302645 
L 130.637962 396.445 
L 133.309974 397.518482 
L 135.981986 400.781421 
L 143.998021 411.044773 
L 146.670033 419.019801 
L 152.014056 427.495236 
L 154.686068 430.370017 
L 162.702103 430.848245 
L 165.374115 423.68386 
L 168.046127 418.11137 
L 170.718139 414.414366 
L 173.39015 413.210578 
L 184.078197 413.416281 
L 186.750209 411.607114 
L 189.422221 408.232903 
L 192.094232 409.701638 
L 200.110268 420.420581 
L 202.782279 426.299322 
L 208.126303 437.344222 
L 210.798315 445.896817 
L 218.81435 455.917699 
L 221.486362 466.116427 
L 224.158373 469.945696 
L 226.830385 481.286841 
L 229.502397 482.161527 
L 237.518432 481.32219 
L 242.862455 478.98302 
L 248.206479 476.075608 
L 256.222514 484.022696 
L 258.894526 485.666806 
L 261.566538 481.354072 
L 264.238549 478.309804 
L 266.910561 472.862245 
L 274.926596 467.073807 
L 277.598608 459.46329 
L 280.27062 447.036427 
L 282.942631 428.789775 
L 293.630678 417.332235 
L 301.646714 395.620085 
L 304.318725 392.72055 
L 312.334761 390.909483 
L 315.006772 390.048524 
L 317.678784 386.42401 
L 320.350796 386.589175 
L 323.022808 383.979545 
L 331.038843 380.111857 
L 333.710854 378.080845 
L 336.382866 375.20471 
L 339.054878 367.733638 
L 341.72689 363.034768 
L 349.742925 360.92962 
L 352.414937 362.577631 
L 355.086948 363.660662 
L 368.447007 368.469102 
L 371.119019 372.325906 
L 373.791031 375.85791 
L 376.463042 377.880139 
L 379.135054 383.856099 
L 387.151089 392.499926 
L 389.823101 393.569333 
L 395.167124 400.591145 
L 397.839136 402.407461 
L 405.855171 405.648468 
L 411.199195 414.682335 
L 413.871207 421.717431 
L 416.543218 429.922908 
L 424.559254 436.56574 
L 429.903277 452.811451 
L 432.575289 462.350497 
L 435.2473 469.257552 
L 443.263336 469.714906 
L 445.935347 462.237626 
L 448.607359 455.640783 
L 451.279371 455.388137 
L 453.951383 453.031924 
L 461.967418 452.451788 
L 464.63943 456.272027 
L 467.311441 458.356605 
L 469.983453 456.010169 
L 472.655465 467.330593 
L 480.6715 466.848631 
L 483.343512 458.054175 
L 486.015523 454.093171 
L 488.687535 451.733019 
L 491.359547 451.477108 
L 502.047594 448.843778 
L 504.719606 449.102401 
L 507.391617 449.757989 
L 510.063629 451.643197 
L 518.079664 457.923806 
L 520.751676 463.232361 
L 523.423688 462.512771 
L 526.095699 461.937296 
L 528.767711 460.822083 
L 536.783746 462.975506 
L 539.455758 460.169381 
L 542.12777 459.104997 
L 544.799782 456.706437 
L 547.471793 452.627449 
L 555.487829 447.783254 
L 558.15984 441.896274 
L 560.831852 438.230879 
L 563.503864 435.395905 
L 566.175876 431.577998 
L 574.191911 427.644524 
L 576.863922 423.102535 
L 579.535934 418.154842 
L 582.207946 413.543846 
L 584.879958 410.316906 
L 592.895993 404.232897 
L 595.568005 402.62409 
L 598.240016 402.150319 
L 600.912028 403.690408 
L 603.58404 405.060522 
L 611.600075 403.422768 
L 614.272087 401.691901 
L 616.944099 395.148011 
L 622.288122 380.621431 
L 630.304157 378.001911 
L 632.976169 378.152165 
L 635.648181 375.762386 
L 638.320192 371.892198 
L 640.992204 373.531438 
L 649.008239 376.319928 
L 651.680251 379.903081 
L 654.352263 381.524048 
L 659.696286 386.702873 
L 667.712322 384.659441 
L 673.056345 381.11036 
L 675.728357 373.02263 
L 678.400368 365.883681 
L 689.088415 360.241607 
L 691.760427 353.115741 
L 694.432439 348.803311 
L 697.104451 346.91474 
L 705.120486 349.175512 
L 707.792498 351.239455 
L 710.464509 348.295018 
L 713.136521 342.946049 
L 715.808533 342.65348 
L 723.824568 346.415865 
L 726.49658 405.388193 
L 731.840603 453.816584 
L 734.512615 490.640547 
L 742.52865 519.175212 
L 745.200662 540.7841 
L 747.872674 554.774782 
L 750.544685 564.943328 
L 753.216697 570.760007 
L 761.232732 573.004332 
L 763.904744 572.675089 
L 766.576756 572.227582 
L 769.248768 570.097308 
L 771.920779 567.782475 
L 779.936814 565.388019 
L 785.280838 554.344471 
L 787.95285 546.911719 
L 790.624861 540.661722 
L 798.640897 538.2945 
L 801.312908 535.645082 
L 803.98492 533.428697 
L 806.656932 530.718128 
L 809.328944 525.660466 
L 817.344979 522.423647 
L 820.016991 515.941847 
L 825.361014 510.072629 
L 828.033026 504.939991 
L 836.049061 501.060441 
L 838.721073 497.84344 
L 841.393084 492.876207 
L 844.065096 489.276591 
L 846.737108 485.165332 
L 854.753143 481.04741 
L 860.097167 470.255652 
L 865.44119 457.936127 
L 873.457225 452.740967 
L 876.129237 448.719036 
L 881.47326 443.735657 
L 884.145272 439.339043 
L 892.161307 435.252849 
L 894.833319 431.376022 
L 897.505331 428.849147 
L 900.177343 422.674538 
L 902.849354 418.096008 
L 910.86539 413.019094 
L 916.209413 409.83193 
L 918.881425 412.098238 
L 921.553437 413.098887 
L 932.241483 413.32912 
L 937.585507 414.99754 
L 940.257519 416.106468 
L 940.257519 416.106468 
" clip-path="url(#p9046d89b78)" style="fill: none; stroke: #1f77b4; stroke-width: 1.5; stroke-linecap: square"/>
   </g>
   <g id="line2d_84">
    <path d="M 87.885775 391.791405 
L 90.557786 391.85824 
L 95.90181 392.293369 
L 98.573822 393.190828 
L 106.589857 394.178391 
L 109.261869 395.16646 
L 111.93388 395.399946 
L 114.605892 395.257029 
L 117.277904 394.878511 
L 125.293939 394.122745 
L 127.965951 394.16138 
L 130.637962 394.644673 
L 133.309974 395.245876 
L 135.981986 396.393359 
L 143.998021 399.40851 
L 146.670033 403.421125 
L 152.014056 408.324274 
L 154.686068 412.797894 
L 162.702103 416.450071 
L 165.374115 417.910297 
L 168.046127 417.950811 
L 173.39015 416.42975 
L 181.406185 415.800952 
L 184.078197 415.322572 
L 186.750209 414.577679 
L 189.422221 413.306265 
L 192.094232 412.584222 
L 200.110268 414.153437 
L 202.782279 416.585022 
L 205.454291 419.627311 
L 208.126303 423.172941 
L 210.798315 427.720022 
L 218.81435 433.361846 
L 221.486362 439.914888 
L 224.158373 445.92261 
L 226.830385 452.996925 
L 229.502397 458.830815 
L 237.518432 463.329688 
L 242.862455 466.460687 
L 245.534467 468.670617 
L 248.206479 470.151716 
L 256.222514 472.926063 
L 258.894526 475.474323 
L 261.566538 476.650314 
L 264.238549 476.982221 
L 266.910561 476.158207 
L 274.926596 474.341295 
L 277.598608 471.365652 
L 280.27062 466.499751 
L 282.942631 458.957687 
L 293.630678 450.632536 
L 298.974702 434.595849 
L 301.646714 426.800667 
L 304.318725 419.984623 
L 312.334761 414.169581 
L 315.006772 409.34536 
L 317.678784 404.761083 
L 320.350796 401.126697 
L 323.022808 397.697263 
L 331.038843 394.180179 
L 336.382866 387.809189 
L 341.72689 379.642214 
L 349.742925 375.899694 
L 352.414937 373.235281 
L 355.086948 371.320357 
L 368.447007 370.750106 
L 371.119019 371.065266 
L 373.791031 372.023795 
L 376.463042 373.195064 
L 379.135054 375.327271 
L 387.151089 378.761802 
L 392.495113 384.782264 
L 395.167124 387.94404 
L 397.839136 390.836724 
L 405.855171 393.799073 
L 411.199195 397.975725 
L 413.871207 402.724067 
L 416.543218 408.163835 
L 424.559254 413.844216 
L 427.231265 419.990325 
L 429.903277 426.55455 
L 435.2473 440.822502 
L 443.263336 446.600983 
L 445.935347 449.728311 
L 448.607359 450.910806 
L 451.279371 451.806272 
L 453.951383 452.051403 
L 461.967418 452.13148 
L 464.63943 452.959589 
L 467.311441 454.038992 
L 469.983453 454.433228 
L 472.655465 457.012701 
L 480.6715 458.979887 
L 483.343512 458.794744 
L 486.015523 457.85443 
L 488.687535 456.630147 
L 491.359547 455.59954 
L 499.375582 454.393136 
L 502.047594 453.283265 
L 504.719606 452.447092 
L 507.391617 451.909271 
L 510.063629 451.856056 
L 518.079664 453.069606 
L 520.751676 455.102157 
L 523.423688 456.58428 
L 526.095699 457.654883 
L 528.767711 458.288323 
L 536.783746 459.22576 
L 539.455758 459.414484 
L 542.12777 459.352587 
L 544.799782 458.823357 
L 547.471793 457.584175 
L 555.487829 455.623991 
L 558.15984 452.878448 
L 566.175876 443.946262 
L 574.191911 440.685915 
L 576.863922 437.169239 
L 584.879958 425.584866 
L 592.895993 421.314472 
L 595.568005 417.576396 
L 598.240016 414.491181 
L 600.912028 412.331026 
L 603.58404 410.876925 
L 611.600075 409.386094 
L 614.272087 407.847255 
L 616.944099 405.307406 
L 619.61611 401.816028 
L 622.288122 397.577109 
L 630.304157 393.662069 
L 638.320192 384.458878 
L 640.992204 382.27339 
L 649.008239 381.082698 
L 651.680251 380.846774 
L 654.352263 380.982229 
L 657.024275 381.620136 
L 659.696286 382.636683 
L 667.712322 383.041235 
L 673.056345 382.65506 
L 675.728357 380.728574 
L 678.400368 377.759595 
L 689.088415 374.255998 
L 694.432439 365.783019 
L 697.104451 362.009364 
L 705.120486 359.442593 
L 707.792498 357.801966 
L 710.464509 355.900576 
L 713.136521 353.309671 
L 715.808533 351.178433 
L 723.824568 350.225919 
L 726.49658 361.258374 
L 731.840603 379.770016 
L 734.512615 401.944122 
L 742.52865 425.39034 
L 745.200662 448.469092 
L 747.872674 469.73023 
L 750.544685 488.77285 
L 753.216697 505.170281 
L 761.232732 518.737091 
L 763.904744 529.524691 
L 766.576756 538.065269 
L 769.248768 544.471677 
L 771.920779 549.133836 
L 779.936814 552.384673 
L 782.608826 553.858774 
L 785.280838 553.955913 
L 787.95285 552.547075 
L 790.624861 550.170004 
L 798.640897 547.794903 
L 806.656932 540.525778 
L 809.328944 537.552716 
L 817.344979 534.526902 
L 820.016991 530.809891 
L 825.361014 526.662439 
L 828.033026 522.317949 
L 836.049061 518.066448 
L 841.393084 509.792718 
L 846.737108 501.584661 
L 854.753143 497.477211 
L 857.425155 493.128364 
L 860.097167 488.553821 
L 862.769178 483.65189 
L 865.44119 478.508738 
L 873.457225 473.355184 
L 876.129237 468.427954 
L 881.47326 463.489495 
L 884.145272 458.659404 
L 892.161307 453.978093 
L 894.833319 449.457679 
L 897.505331 445.335973 
L 902.849354 436.26215 
L 910.86539 431.613539 
L 916.209413 427.257217 
L 918.881425 424.225421 
L 921.553437 422.000114 
L 929.569472 420.238049 
L 932.241483 418.856264 
L 934.913495 417.917835 
L 937.585507 417.333776 
L 940.257519 417.088314 
L 940.257519 417.088314 
" clip-path="url(#p9046d89b78)" style="fill: none; stroke: #ff7f0e; stroke-width: 1.5; stroke-linecap: square"/>
   </g>
   <g id="patch_9">
    <path d="M 45.267188 584.521875 
L 45.267188 331.135938 
" style="fill: none; stroke: #000000; stroke-width: 0.8; stroke-linejoin: miter; stroke-linecap: square"/>
   </g>
   <g id="patch_10">
    <path d="M 982.876106 584.521875 
L 982.876106 331.135938 
" style="fill: none; stroke: #000000; stroke-width: 0.8; stroke-linejoin: miter; stroke-linecap: square"/>
   </g>
   <g id="patch_11">
    <path d="M 45.267188 584.521875 
L 982.876106 584.521875 
" style="fill: none; stroke: #000000; stroke-width: 0.8; stroke-linejoin: miter; stroke-linecap: square"/>
   </g>
   <g id="patch_12">
    <path d="M 45.267188 331.135938 
L 982.876106 331.135938 
" style="fill: none; stroke: #000000; stroke-width: 0.8; stroke-linejoin: miter; stroke-linecap: square"/>
   </g>
   <g id="text_31">
    <!-- MACD -->
    <g transform="translate(496.085709 325.135938)scale(0.12 -0.12)">
     <defs>
      <path id="DejaVuSans-44" d="M 1259 4147 
L 1259 519 
L 2022 519 
Q 2988 519 3436 956 
Q 3884 1394 3884 2338 
Q 3884 3275 3436 3711 
Q 2988 4147 2022 4147 
L 1259 4147 
z
M 628 4666 
L 1925 4666 
Q 3281 4666 3915 4102 
Q 4550 3538 4550 2338 
Q 4550 1131 3912 565 
Q 3275 0 1925 0 
L 628 0 
L 628 4666 
z
" transform="scale(0.015625)"/>
     </defs>
     <use xlink:href="#DejaVuSans-4d"/>
     <use xlink:href="#DejaVuSans-41" x="86.279297"/>
     <use xlink:href="#DejaVuSans-43" x="152.9375"/>
     <use xlink:href="#DejaVuSans-44" x="222.761719"/>
    </g>
   </g>
   <g id="legend_2">
    <g id="patch_13">
     <path d="M 913.899543 368.492188 
L 975.876106 368.492188 
Q 977.876106 368.492188 977.876106 366.492188 
L 977.876106 338.135938 
Q 977.876106 336.135938 975.876106 336.135938 
L 913.899543 336.135938 
Q 911.899543 336.135938 911.899543 338.135938 
L 911.899543 366.492188 
Q 911.899543 368.492188 913.899543 368.492188 
z
" style="fill: #ffffff; opacity: 0.8; stroke: #cccccc; stroke-linejoin: miter"/>
    </g>
    <g id="line2d_85">
     <path d="M 915.899543 344.234375 
L 925.899543 344.234375 
L 935.899543 344.234375 
" style="fill: none; stroke: #1f77b4; stroke-width: 1.5; stroke-linecap: square"/>
    </g>
    <g id="text_32">
     <!-- MACD -->
     <g transform="translate(943.899543 347.734375)scale(0.1 -0.1)">
      <use xlink:href="#DejaVuSans-4d"/>
      <use xlink:href="#DejaVuSans-41" x="86.279297"/>
      <use xlink:href="#DejaVuSans-43" x="152.9375"/>
      <use xlink:href="#DejaVuSans-44" x="222.761719"/>
     </g>
    </g>
    <g id="line2d_86">
     <path d="M 915.899543 358.9125 
L 925.899543 358.9125 
L 935.899543 358.9125 
" style="fill: none; stroke: #ff7f0e; stroke-width: 1.5; stroke-linecap: square"/>
    </g>
    <g id="text_33">
     <!-- SIG -->
     <g transform="translate(943.899543 362.4125)scale(0.1 -0.1)">
      <defs>
       <path id="DejaVuSans-49" d="M 628 4666 
L 1259 4666 
L 1259 0 
L 628 0 
L 628 4666 
z
" transform="scale(0.015625)"/>
       <path id="DejaVuSans-47" d="M 3809 666 
L 3809 1919 
L 2778 1919 
L 2778 2438 
L 4434 2438 
L 4434 434 
Q 4069 175 3628 42 
Q 3188 -91 2688 -91 
Q 1594 -91 976 548 
Q 359 1188 359 2328 
Q 359 3472 976 4111 
Q 1594 4750 2688 4750 
Q 3144 4750 3555 4637 
Q 3966 4525 4313 4306 
L 4313 3634 
Q 3963 3931 3569 4081 
Q 3175 4231 2741 4231 
Q 1884 4231 1454 3753 
Q 1025 3275 1025 2328 
Q 1025 1384 1454 906 
Q 1884 428 2741 428 
Q 3075 428 3337 486 
Q 3600 544 3809 666 
z
" transform="scale(0.015625)"/>
      </defs>
      <use xlink:href="#DejaVuSans-53"/>
      <use xlink:href="#DejaVuSans-49" x="63.476562"/>
      <use xlink:href="#DejaVuSans-47" x="92.96875"/>
     </g>
    </g>
   </g>
  </g>
  <g id="text_34">
   <!-- Piramal Enterprises Limited -->
   <g transform="translate(421.340625 21.358125)scale(0.12 -0.12)">
    <defs>
     <path id="DejaVuSans-61" d="M 2194 1759 
Q 1497 1759 1228 1600 
Q 959 1441 959 1056 
Q 959 750 1161 570 
Q 1363 391 1709 391 
Q 2188 391 2477 730 
Q 2766 1069 2766 1631 
L 2766 1759 
L 2194 1759 
z
M 3341 1997 
L 3341 0 
L 2766 0 
L 2766 531 
Q 2569 213 2275 61 
Q 1981 -91 1556 -91 
Q 1019 -91 701 211 
Q 384 513 384 1019 
Q 384 1609 779 1909 
Q 1175 2209 1959 2209 
L 2766 2209 
L 2766 2266 
Q 2766 2663 2505 2880 
Q 2244 3097 1772 3097 
Q 1472 3097 1187 3025 
Q 903 2953 641 2809 
L 641 3341 
Q 956 3463 1253 3523 
Q 1550 3584 1831 3584 
Q 2591 3584 2966 3190 
Q 3341 2797 3341 1997 
z
" transform="scale(0.015625)"/>
     <path id="DejaVuSans-6d" d="M 3328 2828 
Q 3544 3216 3844 3400 
Q 4144 3584 4550 3584 
Q 5097 3584 5394 3201 
Q 5691 2819 5691 2113 
L 5691 0 
L 5113 0 
L 5113 2094 
Q 5113 2597 4934 2840 
Q 4756 3084 4391 3084 
Q 3944 3084 3684 2787 
Q 3425 2491 3425 1978 
L 3425 0 
L 2847 0 
L 2847 2094 
Q 2847 2600 2669 2842 
Q 2491 3084 2119 3084 
Q 1678 3084 1418 2786 
Q 1159 2488 1159 1978 
L 1159 0 
L 581 0 
L 581 3500 
L 1159 3500 
L 1159 2956 
Q 1356 3278 1631 3431 
Q 1906 3584 2284 3584 
Q 2666 3584 2933 3390 
Q 3200 3197 3328 2828 
z
" transform="scale(0.015625)"/>
     <path id="DejaVuSans-74" d="M 1172 4494 
L 1172 3500 
L 2356 3500 
L 2356 3053 
L 1172 3053 
L 1172 1153 
Q 1172 725 1289 603 
Q 1406 481 1766 481 
L 2356 481 
L 2356 0 
L 1766 0 
Q 1100 0 847 248 
Q 594 497 594 1153 
L 594 3053 
L 172 3053 
L 172 3500 
L 594 3500 
L 594 4494 
L 1172 4494 
z
" transform="scale(0.015625)"/>
     <path id="DejaVuSans-70" d="M 1159 525 
L 1159 -1331 
L 581 -1331 
L 581 3500 
L 1159 3500 
L 1159 2969 
Q 1341 3281 1617 3432 
Q 1894 3584 2278 3584 
Q 2916 3584 3314 3078 
Q 3713 2572 3713 1747 
Q 3713 922 3314 415 
Q 2916 -91 2278 -91 
Q 1894 -91 1617 61 
Q 1341 213 1159 525 
z
M 3116 1747 
Q 3116 2381 2855 2742 
Q 2594 3103 2138 3103 
Q 1681 3103 1420 2742 
Q 1159 2381 1159 1747 
Q 1159 1113 1420 752 
Q 1681 391 2138 391 
Q 2594 391 2855 752 
Q 3116 1113 3116 1747 
z
" transform="scale(0.015625)"/>
     <path id="DejaVuSans-64" d="M 2906 2969 
L 2906 4863 
L 3481 4863 
L 3481 0 
L 2906 0 
L 2906 525 
Q 2725 213 2448 61 
Q 2172 -91 1784 -91 
Q 1150 -91 751 415 
Q 353 922 353 1747 
Q 353 2572 751 3078 
Q 1150 3584 1784 3584 
Q 2172 3584 2448 3432 
Q 2725 3281 2906 2969 
z
M 947 1747 
Q 947 1113 1208 752 
Q 1469 391 1925 391 
Q 2381 391 2643 752 
Q 2906 1113 2906 1747 
Q 2906 2381 2643 2742 
Q 2381 3103 1925 3103 
Q 1469 3103 1208 2742 
Q 947 2381 947 1747 
z
" transform="scale(0.015625)"/>
    </defs>
    <use xlink:href="#DejaVuSans-50"/>
    <use xlink:href="#DejaVuSans-69" x="58.052734"/>
    <use xlink:href="#DejaVuSans-72" x="85.835938"/>
    <use xlink:href="#DejaVuSans-61" x="126.949219"/>
    <use xlink:href="#DejaVuSans-6d" x="188.228516"/>
    <use xlink:href="#DejaVuSans-61" x="285.640625"/>
    <use xlink:href="#DejaVuSans-6c" x="346.919922"/>
    <use xlink:href="#DejaVuSans-20" x="374.703125"/>
    <use xlink:href="#DejaVuSans-45" x="406.490234"/>
    <use xlink:href="#DejaVuSans-6e" x="469.673828"/>
    <use xlink:href="#DejaVuSans-74" x="533.052734"/>
    <use xlink:href="#DejaVuSans-65" x="572.261719"/>
    <use xlink:href="#DejaVuSans-72" x="633.785156"/>
    <use xlink:href="#DejaVuSans-70" x="674.898438"/>
    <use xlink:href="#DejaVuSans-72" x="738.375"/>
    <use xlink:href="#DejaVuSans-69" x="779.488281"/>
    <use xlink:href="#DejaVuSans-73" x="807.271484"/>
    <use xlink:href="#DejaVuSans-65" x="859.371094"/>
    <use xlink:href="#DejaVuSans-73" x="920.894531"/>
    <use xlink:href="#DejaVuSans-20" x="972.994141"/>
    <use xlink:href="#DejaVuSans-4c" x="1004.78125"/>
    <use xlink:href="#DejaVuSans-69" x="1060.494141"/>
    <use xlink:href="#DejaVuSans-6d" x="1088.277344"/>
    <use xlink:href="#DejaVuSans-69" x="1185.689453"/>
    <use xlink:href="#DejaVuSans-74" x="1213.472656"/>
    <use xlink:href="#DejaVuSans-65" x="1252.681641"/>
    <use xlink:href="#DejaVuSans-64" x="1314.205078"/>
   </g>
  </g>
 </g>
 <defs>
  <clipPath id="p06a3726d35">
   <rect x="45.267188" y="48.331875" width="937.608918" height="253.385938"/>
  </clipPath>
  <clipPath id="p9046d89b78">
   <rect x="45.267188" y="331.135938" width="937.608918" height="253.385937"/>
  </clipPath>
 </defs>
</svg>
