<?xml version="1.0" encoding="utf-8" standalone="no"?>
<!DOCTYPE svg PUBLIC "-//W3C//DTD SVG 1.1//EN"
  "http://www.w3.org/Graphics/SVG/1.1/DTD/svg11.dtd">
<svg xmlns:xlink="http://www.w3.org/1999/xlink" width="1008pt" height="612pt" viewBox="0 0 1008 612" xmlns="http://www.w3.org/2000/svg" version="1.1">
 <metadata>
  <rdf:RDF xmlns:dc="http://purl.org/dc/elements/1.1/" xmlns:cc="http://creativecommons.org/ns#" xmlns:rdf="http://www.w3.org/1999/02/22-rdf-syntax-ns#">
   <cc:Work>
    <dc:type rdf:resource="http://purl.org/dc/dcmitype/StillImage"/>
    <dc:date>2022-11-20T19:47:38.412601</dc:date>
    <dc:format>image/svg+xml</dc:format>
    <dc:creator>
     <cc:Agent>
      <dc:title>Matplotlib v3.5.2, https://matplotlib.org/</dc:title>
     </cc:Agent>
    </dc:creator>
   </cc:Work>
  </rdf:RDF>
 </metadata>
 <defs>
  <style type="text/css">*{stroke-linejoin: round; stroke-linecap: butt}</style>
 </defs>
 <g id="figure_1">
  <g id="patch_1">
   <path d="M 0 612 
L 1008 612 
L 1008 0 
L 0 0 
z
" style="fill: #ffffff"/>
  </g>
  <g id="axes_1">
   <g id="patch_2">
    <path d="M 38.904688 301.717812 
L 982.876106 301.717812 
L 982.876106 48.331875 
L 38.904688 48.331875 
z
" style="fill: #ffffff"/>
   </g>
   <g id="matplotlib.axis_1">
    <g id="xtick_1">
     <g id="line2d_1">
      <path d="M 76.432192 301.717812 
L 76.432192 48.331875 
" clip-path="url(#p107f2604fe)" style="fill: none; stroke-dasharray: 2.96,1.28; stroke-dashoffset: 0; stroke: #b0b0b0; stroke-width: 0.8"/>
     </g>
     <g id="line2d_2">
      <defs>
       <path id="m07788b80a3" d="M 0 0 
L 0 3.5 
" style="stroke: #000000; stroke-width: 0.8"/>
      </defs>
      <g>
       <use xlink:href="#m07788b80a3" x="76.432192" y="301.717812" style="stroke: #000000; stroke-width: 0.8"/>
      </g>
     </g>
    </g>
    <g id="xtick_2">
     <g id="line2d_3">
      <path d="M 159.826646 301.717812 
L 159.826646 48.331875 
" clip-path="url(#p107f2604fe)" style="fill: none; stroke-dasharray: 2.96,1.28; stroke-dashoffset: 0; stroke: #b0b0b0; stroke-width: 0.8"/>
     </g>
     <g id="line2d_4">
      <g>
       <use xlink:href="#m07788b80a3" x="159.826646" y="301.717812" style="stroke: #000000; stroke-width: 0.8"/>
      </g>
     </g>
    </g>
    <g id="xtick_3">
     <g id="line2d_5">
      <path d="M 235.150669 301.717812 
L 235.150669 48.331875 
" clip-path="url(#p107f2604fe)" style="fill: none; stroke-dasharray: 2.96,1.28; stroke-dashoffset: 0; stroke: #b0b0b0; stroke-width: 0.8"/>
     </g>
     <g id="line2d_6">
      <g>
       <use xlink:href="#m07788b80a3" x="235.150669" y="301.717812" style="stroke: #000000; stroke-width: 0.8"/>
      </g>
     </g>
    </g>
    <g id="xtick_4">
     <g id="line2d_7">
      <path d="M 318.545123 301.717812 
L 318.545123 48.331875 
" clip-path="url(#p107f2604fe)" style="fill: none; stroke-dasharray: 2.96,1.28; stroke-dashoffset: 0; stroke: #b0b0b0; stroke-width: 0.8"/>
     </g>
     <g id="line2d_8">
      <g>
       <use xlink:href="#m07788b80a3" x="318.545123" y="301.717812" style="stroke: #000000; stroke-width: 0.8"/>
      </g>
     </g>
    </g>
    <g id="xtick_5">
     <g id="line2d_9">
      <path d="M 399.249434 301.717812 
L 399.249434 48.331875 
" clip-path="url(#p107f2604fe)" style="fill: none; stroke-dasharray: 2.96,1.28; stroke-dashoffset: 0; stroke: #b0b0b0; stroke-width: 0.8"/>
     </g>
     <g id="line2d_10">
      <g>
       <use xlink:href="#m07788b80a3" x="399.249434" y="301.717812" style="stroke: #000000; stroke-width: 0.8"/>
      </g>
     </g>
    </g>
    <g id="xtick_6">
     <g id="line2d_11">
      <path d="M 482.643888 301.717812 
L 482.643888 48.331875 
" clip-path="url(#p107f2604fe)" style="fill: none; stroke-dasharray: 2.96,1.28; stroke-dashoffset: 0; stroke: #b0b0b0; stroke-width: 0.8"/>
     </g>
     <g id="line2d_12">
      <g>
       <use xlink:href="#m07788b80a3" x="482.643888" y="301.717812" style="stroke: #000000; stroke-width: 0.8"/>
      </g>
     </g>
    </g>
    <g id="xtick_7">
     <g id="line2d_13">
      <path d="M 563.348198 301.717812 
L 563.348198 48.331875 
" clip-path="url(#p107f2604fe)" style="fill: none; stroke-dasharray: 2.96,1.28; stroke-dashoffset: 0; stroke: #b0b0b0; stroke-width: 0.8"/>
     </g>
     <g id="line2d_14">
      <g>
       <use xlink:href="#m07788b80a3" x="563.348198" y="301.717812" style="stroke: #000000; stroke-width: 0.8"/>
      </g>
     </g>
    </g>
    <g id="xtick_8">
     <g id="line2d_15">
      <path d="M 646.742653 301.717812 
L 646.742653 48.331875 
" clip-path="url(#p107f2604fe)" style="fill: none; stroke-dasharray: 2.96,1.28; stroke-dashoffset: 0; stroke: #b0b0b0; stroke-width: 0.8"/>
     </g>
     <g id="line2d_16">
      <g>
       <use xlink:href="#m07788b80a3" x="646.742653" y="301.717812" style="stroke: #000000; stroke-width: 0.8"/>
      </g>
     </g>
    </g>
    <g id="xtick_9">
     <g id="line2d_17">
      <path d="M 730.137107 301.717812 
L 730.137107 48.331875 
" clip-path="url(#p107f2604fe)" style="fill: none; stroke-dasharray: 2.96,1.28; stroke-dashoffset: 0; stroke: #b0b0b0; stroke-width: 0.8"/>
     </g>
     <g id="line2d_18">
      <g>
       <use xlink:href="#m07788b80a3" x="730.137107" y="301.717812" style="stroke: #000000; stroke-width: 0.8"/>
      </g>
     </g>
    </g>
    <g id="xtick_10">
     <g id="line2d_19">
      <path d="M 810.841417 301.717812 
L 810.841417 48.331875 
" clip-path="url(#p107f2604fe)" style="fill: none; stroke-dasharray: 2.96,1.28; stroke-dashoffset: 0; stroke: #b0b0b0; stroke-width: 0.8"/>
     </g>
     <g id="line2d_20">
      <g>
       <use xlink:href="#m07788b80a3" x="810.841417" y="301.717812" style="stroke: #000000; stroke-width: 0.8"/>
      </g>
     </g>
    </g>
    <g id="xtick_11">
     <g id="line2d_21">
      <path d="M 894.235872 301.717812 
L 894.235872 48.331875 
" clip-path="url(#p107f2604fe)" style="fill: none; stroke-dasharray: 2.96,1.28; stroke-dashoffset: 0; stroke: #b0b0b0; stroke-width: 0.8"/>
     </g>
     <g id="line2d_22">
      <g>
       <use xlink:href="#m07788b80a3" x="894.235872" y="301.717812" style="stroke: #000000; stroke-width: 0.8"/>
      </g>
     </g>
    </g>
    <g id="xtick_12">
     <g id="line2d_23">
      <path d="M 974.940182 301.717812 
L 974.940182 48.331875 
" clip-path="url(#p107f2604fe)" style="fill: none; stroke-dasharray: 2.96,1.28; stroke-dashoffset: 0; stroke: #b0b0b0; stroke-width: 0.8"/>
     </g>
     <g id="line2d_24">
      <g>
       <use xlink:href="#m07788b80a3" x="974.940182" y="301.717812" style="stroke: #000000; stroke-width: 0.8"/>
      </g>
     </g>
    </g>
   </g>
   <g id="matplotlib.axis_2">
    <g id="ytick_1">
     <g id="line2d_25">
      <path d="M 38.904688 288.713207 
L 982.876106 288.713207 
" clip-path="url(#p107f2604fe)" style="fill: none; stroke-dasharray: 2.96,1.28; stroke-dashoffset: 0; stroke: #b0b0b0; stroke-width: 0.8"/>
     </g>
     <g id="line2d_26">
      <defs>
       <path id="mf04159d3df" d="M 0 0 
L -3.5 0 
" style="stroke: #000000; stroke-width: 0.8"/>
      </defs>
      <g>
       <use xlink:href="#mf04159d3df" x="38.904688" y="288.713207" style="stroke: #000000; stroke-width: 0.8"/>
      </g>
     </g>
     <g id="text_1">
      <!-- 100 -->
      <g transform="translate(12.817187 292.512426)scale(0.1 -0.1)">
       <defs>
        <path id="DejaVuSans-31" d="M 794 531 
L 1825 531 
L 1825 4091 
L 703 3866 
L 703 4441 
L 1819 4666 
L 2450 4666 
L 2450 531 
L 3481 531 
L 3481 0 
L 794 0 
L 794 531 
z
" transform="scale(0.015625)"/>
        <path id="DejaVuSans-30" d="M 2034 4250 
Q 1547 4250 1301 3770 
Q 1056 3291 1056 2328 
Q 1056 1369 1301 889 
Q 1547 409 2034 409 
Q 2525 409 2770 889 
Q 3016 1369 3016 2328 
Q 3016 3291 2770 3770 
Q 2525 4250 2034 4250 
z
M 2034 4750 
Q 2819 4750 3233 4129 
Q 3647 3509 3647 2328 
Q 3647 1150 3233 529 
Q 2819 -91 2034 -91 
Q 1250 -91 836 529 
Q 422 1150 422 2328 
Q 422 3509 836 4129 
Q 1250 4750 2034 4750 
z
" transform="scale(0.015625)"/>
       </defs>
       <use xlink:href="#DejaVuSans-31"/>
       <use xlink:href="#DejaVuSans-30" x="63.623047"/>
       <use xlink:href="#DejaVuSans-30" x="127.246094"/>
      </g>
     </g>
    </g>
    <g id="ytick_2">
     <g id="line2d_27">
      <path d="M 38.904688 240.743433 
L 982.876106 240.743433 
" clip-path="url(#p107f2604fe)" style="fill: none; stroke-dasharray: 2.96,1.28; stroke-dashoffset: 0; stroke: #b0b0b0; stroke-width: 0.8"/>
     </g>
     <g id="line2d_28">
      <g>
       <use xlink:href="#mf04159d3df" x="38.904688" y="240.743433" style="stroke: #000000; stroke-width: 0.8"/>
      </g>
     </g>
     <g id="text_2">
      <!-- 150 -->
      <g transform="translate(12.817187 244.542652)scale(0.1 -0.1)">
       <defs>
        <path id="DejaVuSans-35" d="M 691 4666 
L 3169 4666 
L 3169 4134 
L 1269 4134 
L 1269 2991 
Q 1406 3038 1543 3061 
Q 1681 3084 1819 3084 
Q 2600 3084 3056 2656 
Q 3513 2228 3513 1497 
Q 3513 744 3044 326 
Q 2575 -91 1722 -91 
Q 1428 -91 1123 -41 
Q 819 9 494 109 
L 494 744 
Q 775 591 1075 516 
Q 1375 441 1709 441 
Q 2250 441 2565 725 
Q 2881 1009 2881 1497 
Q 2881 1984 2565 2268 
Q 2250 2553 1709 2553 
Q 1456 2553 1204 2497 
Q 953 2441 691 2322 
L 691 4666 
z
" transform="scale(0.015625)"/>
       </defs>
       <use xlink:href="#DejaVuSans-31"/>
       <use xlink:href="#DejaVuSans-35" x="63.623047"/>
       <use xlink:href="#DejaVuSans-30" x="127.246094"/>
      </g>
     </g>
    </g>
    <g id="ytick_3">
     <g id="line2d_29">
      <path d="M 38.904688 192.77366 
L 982.876106 192.77366 
" clip-path="url(#p107f2604fe)" style="fill: none; stroke-dasharray: 2.96,1.28; stroke-dashoffset: 0; stroke: #b0b0b0; stroke-width: 0.8"/>
     </g>
     <g id="line2d_30">
      <g>
       <use xlink:href="#mf04159d3df" x="38.904688" y="192.77366" style="stroke: #000000; stroke-width: 0.8"/>
      </g>
     </g>
     <g id="text_3">
      <!-- 200 -->
      <g transform="translate(12.817187 196.572879)scale(0.1 -0.1)">
       <defs>
        <path id="DejaVuSans-32" d="M 1228 531 
L 3431 531 
L 3431 0 
L 469 0 
L 469 531 
Q 828 903 1448 1529 
Q 2069 2156 2228 2338 
Q 2531 2678 2651 2914 
Q 2772 3150 2772 3378 
Q 2772 3750 2511 3984 
Q 2250 4219 1831 4219 
Q 1534 4219 1204 4116 
Q 875 4013 500 3803 
L 500 4441 
Q 881 4594 1212 4672 
Q 1544 4750 1819 4750 
Q 2544 4750 2975 4387 
Q 3406 4025 3406 3419 
Q 3406 3131 3298 2873 
Q 3191 2616 2906 2266 
Q 2828 2175 2409 1742 
Q 1991 1309 1228 531 
z
" transform="scale(0.015625)"/>
       </defs>
       <use xlink:href="#DejaVuSans-32"/>
       <use xlink:href="#DejaVuSans-30" x="63.623047"/>
       <use xlink:href="#DejaVuSans-30" x="127.246094"/>
      </g>
     </g>
    </g>
    <g id="ytick_4">
     <g id="line2d_31">
      <path d="M 38.904688 144.803886 
L 982.876106 144.803886 
" clip-path="url(#p107f2604fe)" style="fill: none; stroke-dasharray: 2.96,1.28; stroke-dashoffset: 0; stroke: #b0b0b0; stroke-width: 0.8"/>
     </g>
     <g id="line2d_32">
      <g>
       <use xlink:href="#mf04159d3df" x="38.904688" y="144.803886" style="stroke: #000000; stroke-width: 0.8"/>
      </g>
     </g>
     <g id="text_4">
      <!-- 250 -->
      <g transform="translate(12.817187 148.603105)scale(0.1 -0.1)">
       <use xlink:href="#DejaVuSans-32"/>
       <use xlink:href="#DejaVuSans-35" x="63.623047"/>
       <use xlink:href="#DejaVuSans-30" x="127.246094"/>
      </g>
     </g>
    </g>
    <g id="ytick_5">
     <g id="line2d_33">
      <path d="M 38.904688 96.834113 
L 982.876106 96.834113 
" clip-path="url(#p107f2604fe)" style="fill: none; stroke-dasharray: 2.96,1.28; stroke-dashoffset: 0; stroke: #b0b0b0; stroke-width: 0.8"/>
     </g>
     <g id="line2d_34">
      <g>
       <use xlink:href="#mf04159d3df" x="38.904688" y="96.834113" style="stroke: #000000; stroke-width: 0.8"/>
      </g>
     </g>
     <g id="text_5">
      <!-- 300 -->
      <g transform="translate(12.817187 100.633332)scale(0.1 -0.1)">
       <defs>
        <path id="DejaVuSans-33" d="M 2597 2516 
Q 3050 2419 3304 2112 
Q 3559 1806 3559 1356 
Q 3559 666 3084 287 
Q 2609 -91 1734 -91 
Q 1441 -91 1130 -33 
Q 819 25 488 141 
L 488 750 
Q 750 597 1062 519 
Q 1375 441 1716 441 
Q 2309 441 2620 675 
Q 2931 909 2931 1356 
Q 2931 1769 2642 2001 
Q 2353 2234 1838 2234 
L 1294 2234 
L 1294 2753 
L 1863 2753 
Q 2328 2753 2575 2939 
Q 2822 3125 2822 3475 
Q 2822 3834 2567 4026 
Q 2313 4219 1838 4219 
Q 1578 4219 1281 4162 
Q 984 4106 628 3988 
L 628 4550 
Q 988 4650 1302 4700 
Q 1616 4750 1894 4750 
Q 2613 4750 3031 4423 
Q 3450 4097 3450 3541 
Q 3450 3153 3228 2886 
Q 3006 2619 2597 2516 
z
" transform="scale(0.015625)"/>
       </defs>
       <use xlink:href="#DejaVuSans-33"/>
       <use xlink:href="#DejaVuSans-30" x="63.623047"/>
       <use xlink:href="#DejaVuSans-30" x="127.246094"/>
      </g>
     </g>
    </g>
    <g id="ytick_6">
     <g id="line2d_35">
      <path d="M 38.904688 48.864339 
L 982.876106 48.864339 
" clip-path="url(#p107f2604fe)" style="fill: none; stroke-dasharray: 2.96,1.28; stroke-dashoffset: 0; stroke: #b0b0b0; stroke-width: 0.8"/>
     </g>
     <g id="line2d_36">
      <g>
       <use xlink:href="#mf04159d3df" x="38.904688" y="48.864339" style="stroke: #000000; stroke-width: 0.8"/>
      </g>
     </g>
     <g id="text_6">
      <!-- 350 -->
      <g transform="translate(12.817187 52.663558)scale(0.1 -0.1)">
       <use xlink:href="#DejaVuSans-33"/>
       <use xlink:href="#DejaVuSans-35" x="63.623047"/>
       <use xlink:href="#DejaVuSans-30" x="127.246094"/>
      </g>
     </g>
    </g>
   </g>
   <g id="line2d_37">
    <path d="M 81.812479 181.980461 
L 84.502623 177.279423 
L 87.192767 180.0137 
L 89.88291 181.356854 
L 92.573054 185.050526 
L 100.643485 182.364219 
L 103.333629 182.747977 
L 106.023772 182.604068 
L 108.713916 183.611433 
L 111.40406 173.489811 
L 119.474491 176.943635 
L 122.164634 184.762708 
L 124.854778 184.954587 
L 127.544922 180.925126 
L 130.235066 186.105861 
L 138.305497 195.364028 
L 140.99564 188.744199 
L 146.375928 188.072622 
L 149.066071 185.961952 
L 157.136502 183.467524 
L 159.826646 185.674133 
L 162.51679 182.460159 
L 165.206933 185.146466 
L 167.897077 188.168562 
L 175.967508 190.758929 
L 178.657652 193.253358 
L 181.347796 190.279232 
L 184.037939 190.087353 
L 186.728083 192.437872 
L 194.798514 196.707181 
L 197.488658 193.781025 
L 200.178801 193.733055 
L 202.868945 191.814264 
L 205.559089 192.77366 
L 213.62952 194.548542 
L 216.319663 195.316058 
L 219.009807 193.733055 
L 221.699951 204.430315 
L 224.390094 192.629751 
L 232.460525 182.747977 
L 237.840813 177.423332 
L 240.530957 178.334758 
L 243.2211 178.478667 
L 251.291531 179.102274 
L 253.981675 180.301519 
L 256.671819 171.235232 
L 259.361962 176.703786 
L 262.052106 178.574607 
L 270.122537 183.371584 
L 272.812681 187.449015 
L 275.502824 184.139101 
L 278.192968 183.755343 
L 288.953543 184.23504 
L 291.643687 183.371584 
L 294.33383 185.674133 
L 297.023974 185.578194 
L 299.714118 187.017287 
L 307.784549 187.928713 
L 310.474692 185.674133 
L 313.164836 184.666768 
L 315.85498 182.412189 
L 318.545123 178.286788 
L 326.615554 174.113418 
L 329.305698 174.928904 
L 331.995842 173.585751 
L 334.685985 159.818426 
L 337.376129 154.781599 
L 345.44656 150.608229 
L 348.136704 152.095292 
L 350.826848 147.586133 
L 364.277566 140.054879 
L 366.96771 144.516068 
L 369.657853 141.637881 
L 372.347997 142.02164 
L 375.038141 143.220884 
L 383.108572 148.833347 
L 385.798715 144.324189 
L 388.488859 148.161771 
L 391.179003 148.017861 
L 393.869146 155.788965 
L 401.939578 156.172723 
L 407.319865 162.840521 
L 410.010009 159.290758 
L 412.700152 165.766677 
L 420.770583 168.309075 
L 423.460727 170.803504 
L 426.150871 174.545146 
L 428.841014 175.216723 
L 431.531158 174.784995 
L 439.601589 167.013892 
L 442.291733 161.353458 
L 444.981876 161.01767 
L 447.67202 166.390285 
L 450.362164 159.242788 
L 458.432595 162.648642 
L 461.122739 162.408793 
L 463.812882 167.493589 
L 466.503026 167.829378 
L 469.19317 163.12834 
L 477.263601 163.368189 
L 479.953744 159.434667 
L 482.643888 148.545529 
L 485.334032 148.881317 
L 488.024175 152.239201 
L 496.094606 151.135897 
L 498.78475 148.833347 
L 501.474894 149.313045 
L 504.165037 149.073196 
L 506.855181 147.969892 
L 514.925612 158.715121 
L 517.615756 153.102657 
L 520.3059 154.253932 
L 522.996043 161.689247 
L 525.686187 159.482637 
L 533.756618 166.726073 
L 536.446762 163.751947 
L 539.136905 167.973287 
L 541.827049 166.965922 
L 544.517193 160.633912 
L 552.587624 154.349871 
L 555.277767 157.803695 
L 557.967911 158.139483 
L 560.658055 160.058274 
L 563.348198 164.183675 
L 571.41863 164.279614 
L 574.108773 164.759312 
L 576.798917 162.984431 
L 579.489061 157.611816 
L 582.179204 158.235423 
L 590.249635 159.434667 
L 592.939779 161.833156 
L 595.629923 160.681881 
L 598.320066 156.892269 
L 601.01021 149.121166 
L 609.080641 140.534577 
L 611.770785 139.863 
L 614.460928 140.102849 
L 617.151072 126.863191 
L 619.841216 128.686043 
L 627.911647 125.568007 
L 630.601791 128.590103 
L 633.291934 122.593881 
L 635.982078 123.361398 
L 638.672222 120.627121 
L 646.742653 111.992561 
L 649.432796 114.103231 
L 652.12294 119.044118 
L 654.813084 112.040531 
L 657.503227 119.715695 
L 665.573658 114.247141 
L 670.953946 108.922496 
L 673.64409 108.874526 
L 676.334233 105.372733 
L 687.094808 102.830335 
L 689.784952 105.132884 
L 692.475095 107.627312 
L 695.165239 111.129105 
L 703.23567 107.291524 
L 705.925814 98.321176 
L 708.615957 102.542516 
L 711.306101 100.000118 
L 713.996245 91.701347 
L 722.066676 88.343463 
L 724.756819 90.598042 
L 730.137107 77.838083 
L 732.827251 73.280954 
L 740.897682 70.066979 
L 743.587825 72.225619 
L 746.277969 68.771795 
L 748.968113 69.82713 
L 751.658256 69.82713 
L 759.728687 59.849418 
L 762.418831 62.487755 
L 765.108975 62.391816 
L 767.799118 278.063917 
L 770.489262 278.159857 
L 778.559693 278.639554 
L 781.249837 278.927373 
L 783.939981 280.606315 
L 786.630124 279.119252 
L 789.320268 282.333227 
L 797.390699 288.04163 
L 800.080843 288.953056 
L 802.770986 289.528693 
L 805.46113 289.672602 
L 808.151274 287.801781 
L 816.221705 290.20027 
L 818.911848 286.746446 
L 824.292136 284.252018 
L 826.982279 282.716985 
L 835.05271 284.443897 
L 837.742854 285.787051 
L 840.432998 285.595172 
L 843.123142 287.370053 
L 845.813285 287.945691 
L 853.883716 286.986295 
L 856.57386 283.004804 
L 859.264004 283.052774 
L 861.954147 281.038043 
L 864.644291 285.307353 
L 872.714722 284.108109 
L 875.404866 283.86826 
L 880.785153 281.181952 
L 883.475297 283.580441 
L 891.545728 282.141348 
L 894.235872 280.558345 
L 896.926015 281.901499 
L 899.616159 279.167222 
L 902.306303 280.126617 
L 910.376734 279.455041 
L 915.757021 280.990073 
L 918.447165 282.285257 
L 921.137308 281.70962 
L 929.207739 282.381197 
L 931.897883 281.949469 
L 934.588027 280.750225 
L 937.27817 278.543615 
L 939.968314 281.66165 
L 939.968314 281.66165 
" clip-path="url(#p107f2604fe)" style="fill: none; stroke: #1f77b4; stroke-width: 1.5; stroke-linecap: square"/>
   </g>
   <g id="line2d_38">
    <path d="M 92.573054 181.136193 
L 100.643485 181.212945 
L 103.333629 182.306655 
L 108.713916 183.275645 
L 111.40406 180.963502 
L 119.474491 179.879385 
L 124.854778 180.752435 
L 127.544922 180.215173 
L 130.235066 182.738383 
L 138.305497 186.422462 
L 140.99564 187.21876 
L 146.375928 187.842367 
L 149.066071 188.849732 
L 157.136502 188.322065 
L 159.826646 186.384086 
L 162.51679 185.127278 
L 165.206933 184.542047 
L 167.897077 184.983369 
L 175.967508 186.44165 
L 181.347796 189.521309 
L 184.037939 190.509487 
L 186.728083 191.363349 
L 194.798514 192.552999 
L 197.488658 192.658532 
L 200.178801 193.349297 
L 202.868945 193.69468 
L 205.559089 193.761837 
L 213.62952 193.330109 
L 216.319663 193.637116 
L 219.009807 193.637116 
L 221.699951 196.160326 
L 224.390094 196.131544 
L 232.460525 193.771431 
L 237.840813 190.192886 
L 240.530957 187.113227 
L 243.2211 181.922897 
L 251.291531 179.217402 
L 253.981675 178.72811 
L 256.671819 177.49049 
L 259.361962 177.164296 
L 262.052106 177.183484 
L 270.122537 178.037346 
L 272.812681 179.466845 
L 275.502824 182.047619 
L 278.192968 183.45793 
L 288.953543 184.590017 
L 291.643687 184.590017 
L 294.33383 184.23504 
L 297.023974 184.522859 
L 299.714118 185.175248 
L 307.784549 185.913982 
L 310.474692 186.374492 
L 313.164836 186.173019 
L 315.85498 185.539818 
L 318.545123 183.793718 
L 326.615554 181.030659 
L 331.995842 176.66541 
L 337.376129 167.44562 
L 345.44656 162.744582 
L 348.136704 158.177859 
L 350.826848 152.977936 
L 364.277566 149.025227 
L 366.96771 146.97212 
L 369.657853 145.178051 
L 372.347997 143.16332 
L 375.038141 142.29027 
L 383.108572 144.045964 
L 385.798715 144.007588 
L 391.179003 146.51161 
L 393.869146 149.025227 
L 401.939578 150.493102 
L 407.319865 154.196368 
L 410.010009 156.422166 
L 412.700152 159.971929 
L 420.770583 162.475951 
L 423.460727 165.402107 
L 426.150871 167.743032 
L 428.841014 170.928225 
L 431.531158 172.731889 
L 439.601589 172.472852 
L 442.291733 170.582843 
L 444.981876 167.877348 
L 447.67202 166.11206 
L 450.362164 163.003619 
L 458.432595 162.130569 
L 461.122739 162.341636 
L 463.812882 163.63682 
L 466.503026 163.924638 
L 469.19317 164.701748 
L 477.263601 164.845658 
L 479.953744 164.250833 
L 485.334032 156.671608 
L 488.024175 154.493781 
L 496.094606 152.047322 
L 498.78475 149.927058 
L 501.474894 150.080562 
L 504.165037 150.118937 
L 506.855181 149.265075 
L 514.925612 150.78092 
L 517.615756 151.634782 
L 520.3059 152.62296 
L 522.996043 155.14617 
L 525.686187 157.448719 
L 533.756618 159.050909 
L 536.446762 161.180767 
L 539.136905 163.924638 
L 541.827049 164.979973 
L 544.517193 165.210228 
L 552.587624 162.734988 
L 555.277767 161.545337 
L 557.967911 159.578577 
L 560.658055 158.197047 
L 563.348198 158.907 
L 571.41863 160.892948 
L 574.108773 162.284072 
L 576.798917 163.253061 
L 579.489061 162.76377 
L 582.179204 161.574119 
L 590.249635 160.60513 
L 592.939779 160.019899 
L 595.629923 159.559389 
L 598.320066 159.415479 
L 601.01021 157.592628 
L 609.080641 153.81261 
L 611.770785 149.418579 
L 614.460928 145.302772 
L 617.151072 139.296956 
L 619.841216 135.209932 
L 627.911647 132.216618 
L 630.601791 129.962039 
L 633.291934 126.460245 
L 635.982078 125.759886 
L 638.672222 124.148102 
L 646.742653 121.433013 
L 649.432796 118.535638 
L 652.12294 117.825686 
L 654.813084 115.561513 
L 657.503227 115.379227 
L 665.573658 115.830143 
L 670.953946 114.793996 
L 673.64409 112.760078 
L 676.334233 111.426518 
L 687.094808 108.049446 
L 689.784952 106.226595 
L 692.475095 105.967558 
L 695.165239 106.418474 
L 703.23567 106.802232 
L 705.925814 105.9004 
L 708.615957 105.382327 
L 711.306101 103.856888 
L 713.996245 99.971336 
L 722.066676 96.181724 
L 724.756819 94.637097 
L 730.137107 89.696211 
L 732.827251 84.352378 
L 740.897682 80.025504 
L 743.587825 76.801936 
L 746.277969 72.436686 
L 748.968113 70.834496 
L 759.728687 68.100219 
L 762.418831 66.152646 
L 765.108975 64.87665 
L 770.489262 148.190552 
L 778.559693 191.94858 
L 783.939981 278.879403 
L 786.630124 279.09047 
L 789.320268 279.925144 
L 797.390699 281.80556 
L 800.080843 283.810696 
L 802.770986 285.595172 
L 805.46113 287.705842 
L 808.151274 288.799553 
L 816.221705 289.23128 
L 818.911848 288.789959 
L 824.292136 287.734624 
L 826.982279 286.3435 
L 835.05271 285.671923 
L 837.742854 284.789279 
L 840.432998 284.559025 
L 843.123142 285.182632 
L 845.813285 286.228373 
L 853.883716 286.736852 
L 859.264004 285.671923 
L 861.954147 284.405521 
L 864.644291 283.877854 
L 872.714722 283.302216 
L 875.404866 283.474908 
L 880.785153 283.100743 
L 883.475297 283.609223 
L 891.545728 282.976022 
L 894.235872 282.266069 
L 899.616159 281.469771 
L 902.306303 280.779006 
L 910.376734 280.241745 
L 918.447165 280.404842 
L 921.137308 280.913322 
L 929.207739 281.364238 
L 931.897883 281.863123 
L 934.588027 281.815153 
L 937.27817 281.066825 
L 939.968314 281.057231 
L 939.968314 281.057231 
" clip-path="url(#p107f2604fe)" style="fill: none; stroke: #ff7f0e; stroke-width: 1.5; stroke-linecap: square"/>
   </g>
   <g id="patch_3">
    <path d="M 38.904688 301.717812 
L 38.904688 48.331875 
" style="fill: none; stroke: #000000; stroke-width: 0.8; stroke-linejoin: miter; stroke-linecap: square"/>
   </g>
   <g id="patch_4">
    <path d="M 982.876106 301.717812 
L 982.876106 48.331875 
" style="fill: none; stroke: #000000; stroke-width: 0.8; stroke-linejoin: miter; stroke-linecap: square"/>
   </g>
   <g id="patch_5">
    <path d="M 38.904687 301.717812 
L 982.876106 301.717812 
" style="fill: none; stroke: #000000; stroke-width: 0.8; stroke-linejoin: miter; stroke-linecap: square"/>
   </g>
   <g id="patch_6">
    <path d="M 38.904687 48.331875 
L 982.876106 48.331875 
" style="fill: none; stroke: #000000; stroke-width: 0.8; stroke-linejoin: miter; stroke-linecap: square"/>
   </g>
   <g id="text_7">
    <!-- Closing Price -->
    <g transform="translate(472.414459 42.331875)scale(0.12 -0.12)">
     <defs>
      <path id="DejaVuSans-43" d="M 4122 4306 
L 4122 3641 
Q 3803 3938 3442 4084 
Q 3081 4231 2675 4231 
Q 1875 4231 1450 3742 
Q 1025 3253 1025 2328 
Q 1025 1406 1450 917 
Q 1875 428 2675 428 
Q 3081 428 3442 575 
Q 3803 722 4122 1019 
L 4122 359 
Q 3791 134 3420 21 
Q 3050 -91 2638 -91 
Q 1578 -91 968 557 
Q 359 1206 359 2328 
Q 359 3453 968 4101 
Q 1578 4750 2638 4750 
Q 3056 4750 3426 4639 
Q 3797 4528 4122 4306 
z
" transform="scale(0.015625)"/>
      <path id="DejaVuSans-6c" d="M 603 4863 
L 1178 4863 
L 1178 0 
L 603 0 
L 603 4863 
z
" transform="scale(0.015625)"/>
      <path id="DejaVuSans-6f" d="M 1959 3097 
Q 1497 3097 1228 2736 
Q 959 2375 959 1747 
Q 959 1119 1226 758 
Q 1494 397 1959 397 
Q 2419 397 2687 759 
Q 2956 1122 2956 1747 
Q 2956 2369 2687 2733 
Q 2419 3097 1959 3097 
z
M 1959 3584 
Q 2709 3584 3137 3096 
Q 3566 2609 3566 1747 
Q 3566 888 3137 398 
Q 2709 -91 1959 -91 
Q 1206 -91 779 398 
Q 353 888 353 1747 
Q 353 2609 779 3096 
Q 1206 3584 1959 3584 
z
" transform="scale(0.015625)"/>
      <path id="DejaVuSans-73" d="M 2834 3397 
L 2834 2853 
Q 2591 2978 2328 3040 
Q 2066 3103 1784 3103 
Q 1356 3103 1142 2972 
Q 928 2841 928 2578 
Q 928 2378 1081 2264 
Q 1234 2150 1697 2047 
L 1894 2003 
Q 2506 1872 2764 1633 
Q 3022 1394 3022 966 
Q 3022 478 2636 193 
Q 2250 -91 1575 -91 
Q 1294 -91 989 -36 
Q 684 19 347 128 
L 347 722 
Q 666 556 975 473 
Q 1284 391 1588 391 
Q 1994 391 2212 530 
Q 2431 669 2431 922 
Q 2431 1156 2273 1281 
Q 2116 1406 1581 1522 
L 1381 1569 
Q 847 1681 609 1914 
Q 372 2147 372 2553 
Q 372 3047 722 3315 
Q 1072 3584 1716 3584 
Q 2034 3584 2315 3537 
Q 2597 3491 2834 3397 
z
" transform="scale(0.015625)"/>
      <path id="DejaVuSans-69" d="M 603 3500 
L 1178 3500 
L 1178 0 
L 603 0 
L 603 3500 
z
M 603 4863 
L 1178 4863 
L 1178 4134 
L 603 4134 
L 603 4863 
z
" transform="scale(0.015625)"/>
      <path id="DejaVuSans-6e" d="M 3513 2113 
L 3513 0 
L 2938 0 
L 2938 2094 
Q 2938 2591 2744 2837 
Q 2550 3084 2163 3084 
Q 1697 3084 1428 2787 
Q 1159 2491 1159 1978 
L 1159 0 
L 581 0 
L 581 3500 
L 1159 3500 
L 1159 2956 
Q 1366 3272 1645 3428 
Q 1925 3584 2291 3584 
Q 2894 3584 3203 3211 
Q 3513 2838 3513 2113 
z
" transform="scale(0.015625)"/>
      <path id="DejaVuSans-67" d="M 2906 1791 
Q 2906 2416 2648 2759 
Q 2391 3103 1925 3103 
Q 1463 3103 1205 2759 
Q 947 2416 947 1791 
Q 947 1169 1205 825 
Q 1463 481 1925 481 
Q 2391 481 2648 825 
Q 2906 1169 2906 1791 
z
M 3481 434 
Q 3481 -459 3084 -895 
Q 2688 -1331 1869 -1331 
Q 1566 -1331 1297 -1286 
Q 1028 -1241 775 -1147 
L 775 -588 
Q 1028 -725 1275 -790 
Q 1522 -856 1778 -856 
Q 2344 -856 2625 -561 
Q 2906 -266 2906 331 
L 2906 616 
Q 2728 306 2450 153 
Q 2172 0 1784 0 
Q 1141 0 747 490 
Q 353 981 353 1791 
Q 353 2603 747 3093 
Q 1141 3584 1784 3584 
Q 2172 3584 2450 3431 
Q 2728 3278 2906 2969 
L 2906 3500 
L 3481 3500 
L 3481 434 
z
" transform="scale(0.015625)"/>
      <path id="DejaVuSans-20" transform="scale(0.015625)"/>
      <path id="DejaVuSans-50" d="M 1259 4147 
L 1259 2394 
L 2053 2394 
Q 2494 2394 2734 2622 
Q 2975 2850 2975 3272 
Q 2975 3691 2734 3919 
Q 2494 4147 2053 4147 
L 1259 4147 
z
M 628 4666 
L 2053 4666 
Q 2838 4666 3239 4311 
Q 3641 3956 3641 3272 
Q 3641 2581 3239 2228 
Q 2838 1875 2053 1875 
L 1259 1875 
L 1259 0 
L 628 0 
L 628 4666 
z
" transform="scale(0.015625)"/>
      <path id="DejaVuSans-72" d="M 2631 2963 
Q 2534 3019 2420 3045 
Q 2306 3072 2169 3072 
Q 1681 3072 1420 2755 
Q 1159 2438 1159 1844 
L 1159 0 
L 581 0 
L 581 3500 
L 1159 3500 
L 1159 2956 
Q 1341 3275 1631 3429 
Q 1922 3584 2338 3584 
Q 2397 3584 2469 3576 
Q 2541 3569 2628 3553 
L 2631 2963 
z
" transform="scale(0.015625)"/>
      <path id="DejaVuSans-63" d="M 3122 3366 
L 3122 2828 
Q 2878 2963 2633 3030 
Q 2388 3097 2138 3097 
Q 1578 3097 1268 2742 
Q 959 2388 959 1747 
Q 959 1106 1268 751 
Q 1578 397 2138 397 
Q 2388 397 2633 464 
Q 2878 531 3122 666 
L 3122 134 
Q 2881 22 2623 -34 
Q 2366 -91 2075 -91 
Q 1284 -91 818 406 
Q 353 903 353 1747 
Q 353 2603 823 3093 
Q 1294 3584 2113 3584 
Q 2378 3584 2631 3529 
Q 2884 3475 3122 3366 
z
" transform="scale(0.015625)"/>
      <path id="DejaVuSans-65" d="M 3597 1894 
L 3597 1613 
L 953 1613 
Q 991 1019 1311 708 
Q 1631 397 2203 397 
Q 2534 397 2845 478 
Q 3156 559 3463 722 
L 3463 178 
Q 3153 47 2828 -22 
Q 2503 -91 2169 -91 
Q 1331 -91 842 396 
Q 353 884 353 1716 
Q 353 2575 817 3079 
Q 1281 3584 2069 3584 
Q 2775 3584 3186 3129 
Q 3597 2675 3597 1894 
z
M 3022 2063 
Q 3016 2534 2758 2815 
Q 2500 3097 2075 3097 
Q 1594 3097 1305 2825 
Q 1016 2553 972 2059 
L 3022 2063 
z
" transform="scale(0.015625)"/>
     </defs>
     <use xlink:href="#DejaVuSans-43"/>
     <use xlink:href="#DejaVuSans-6c" x="69.824219"/>
     <use xlink:href="#DejaVuSans-6f" x="97.607422"/>
     <use xlink:href="#DejaVuSans-73" x="158.789062"/>
     <use xlink:href="#DejaVuSans-69" x="210.888672"/>
     <use xlink:href="#DejaVuSans-6e" x="238.671875"/>
     <use xlink:href="#DejaVuSans-67" x="302.050781"/>
     <use xlink:href="#DejaVuSans-20" x="365.527344"/>
     <use xlink:href="#DejaVuSans-50" x="397.314453"/>
     <use xlink:href="#DejaVuSans-72" x="455.867188"/>
     <use xlink:href="#DejaVuSans-69" x="496.980469"/>
     <use xlink:href="#DejaVuSans-63" x="524.763672"/>
     <use xlink:href="#DejaVuSans-65" x="579.744141"/>
    </g>
   </g>
   <g id="legend_1">
    <g id="patch_7">
     <path d="M 911.144856 85.688125 
L 975.876106 85.688125 
Q 977.876106 85.688125 977.876106 83.688125 
L 977.876106 55.331875 
Q 977.876106 53.331875 975.876106 53.331875 
L 911.144856 53.331875 
Q 909.144856 53.331875 909.144856 55.331875 
L 909.144856 83.688125 
Q 909.144856 85.688125 911.144856 85.688125 
z
" style="fill: #ffffff; opacity: 0.8; stroke: #cccccc; stroke-linejoin: miter"/>
    </g>
    <g id="line2d_39">
     <path d="M 913.144856 61.430312 
L 923.144856 61.430312 
L 933.144856 61.430312 
" style="fill: none; stroke: #1f77b4; stroke-width: 1.5; stroke-linecap: square"/>
    </g>
    <g id="text_8">
     <!-- CLOSE -->
     <g transform="translate(941.144856 64.930312)scale(0.1 -0.1)">
      <defs>
       <path id="DejaVuSans-4c" d="M 628 4666 
L 1259 4666 
L 1259 531 
L 3531 531 
L 3531 0 
L 628 0 
L 628 4666 
z
" transform="scale(0.015625)"/>
       <path id="DejaVuSans-4f" d="M 2522 4238 
Q 1834 4238 1429 3725 
Q 1025 3213 1025 2328 
Q 1025 1447 1429 934 
Q 1834 422 2522 422 
Q 3209 422 3611 934 
Q 4013 1447 4013 2328 
Q 4013 3213 3611 3725 
Q 3209 4238 2522 4238 
z
M 2522 4750 
Q 3503 4750 4090 4092 
Q 4678 3434 4678 2328 
Q 4678 1225 4090 567 
Q 3503 -91 2522 -91 
Q 1538 -91 948 565 
Q 359 1222 359 2328 
Q 359 3434 948 4092 
Q 1538 4750 2522 4750 
z
" transform="scale(0.015625)"/>
       <path id="DejaVuSans-53" d="M 3425 4513 
L 3425 3897 
Q 3066 4069 2747 4153 
Q 2428 4238 2131 4238 
Q 1616 4238 1336 4038 
Q 1056 3838 1056 3469 
Q 1056 3159 1242 3001 
Q 1428 2844 1947 2747 
L 2328 2669 
Q 3034 2534 3370 2195 
Q 3706 1856 3706 1288 
Q 3706 609 3251 259 
Q 2797 -91 1919 -91 
Q 1588 -91 1214 -16 
Q 841 59 441 206 
L 441 856 
Q 825 641 1194 531 
Q 1563 422 1919 422 
Q 2459 422 2753 634 
Q 3047 847 3047 1241 
Q 3047 1584 2836 1778 
Q 2625 1972 2144 2069 
L 1759 2144 
Q 1053 2284 737 2584 
Q 422 2884 422 3419 
Q 422 4038 858 4394 
Q 1294 4750 2059 4750 
Q 2388 4750 2728 4690 
Q 3069 4631 3425 4513 
z
" transform="scale(0.015625)"/>
       <path id="DejaVuSans-45" d="M 628 4666 
L 3578 4666 
L 3578 4134 
L 1259 4134 
L 1259 2753 
L 3481 2753 
L 3481 2222 
L 1259 2222 
L 1259 531 
L 3634 531 
L 3634 0 
L 628 0 
L 628 4666 
z
" transform="scale(0.015625)"/>
      </defs>
      <use xlink:href="#DejaVuSans-43"/>
      <use xlink:href="#DejaVuSans-4c" x="69.824219"/>
      <use xlink:href="#DejaVuSans-4f" x="121.912109"/>
      <use xlink:href="#DejaVuSans-53" x="200.623047"/>
      <use xlink:href="#DejaVuSans-45" x="264.099609"/>
     </g>
    </g>
    <g id="line2d_40">
     <path d="M 913.144856 76.108437 
L 923.144856 76.108437 
L 933.144856 76.108437 
" style="fill: none; stroke: #ff7f0e; stroke-width: 1.5; stroke-linecap: square"/>
    </g>
    <g id="text_9">
     <!-- SMA5 -->
     <g transform="translate(941.144856 79.608437)scale(0.1 -0.1)">
      <defs>
       <path id="DejaVuSans-4d" d="M 628 4666 
L 1569 4666 
L 2759 1491 
L 3956 4666 
L 4897 4666 
L 4897 0 
L 4281 0 
L 4281 4097 
L 3078 897 
L 2444 897 
L 1241 4097 
L 1241 0 
L 628 0 
L 628 4666 
z
" transform="scale(0.015625)"/>
       <path id="DejaVuSans-41" d="M 2188 4044 
L 1331 1722 
L 3047 1722 
L 2188 4044 
z
M 1831 4666 
L 2547 4666 
L 4325 0 
L 3669 0 
L 3244 1197 
L 1141 1197 
L 716 0 
L 50 0 
L 1831 4666 
z
" transform="scale(0.015625)"/>
      </defs>
      <use xlink:href="#DejaVuSans-53"/>
      <use xlink:href="#DejaVuSans-4d" x="63.476562"/>
      <use xlink:href="#DejaVuSans-41" x="149.755859"/>
      <use xlink:href="#DejaVuSans-35" x="218.164062"/>
     </g>
    </g>
   </g>
  </g>
  <g id="axes_2">
   <g id="patch_8">
    <path d="M 38.904688 584.521875 
L 982.876106 584.521875 
L 982.876106 331.135938 
L 38.904688 331.135938 
z
" style="fill: #ffffff"/>
   </g>
   <g id="matplotlib.axis_3">
    <g id="xtick_13">
     <g id="line2d_41">
      <path d="M 76.432192 584.521875 
L 76.432192 331.135938 
" clip-path="url(#pef3b9d922d)" style="fill: none; stroke-dasharray: 2.96,1.28; stroke-dashoffset: 0; stroke: #b0b0b0; stroke-width: 0.8"/>
     </g>
     <g id="line2d_42">
      <g>
       <use xlink:href="#m07788b80a3" x="76.432192" y="584.521875" style="stroke: #000000; stroke-width: 0.8"/>
      </g>
     </g>
     <g id="text_10">
      <!-- 2022-01 -->
      <g transform="translate(55.540786 599.120312)scale(0.1 -0.1)">
       <defs>
        <path id="DejaVuSans-2d" d="M 313 2009 
L 1997 2009 
L 1997 1497 
L 313 1497 
L 313 2009 
z
" transform="scale(0.015625)"/>
       </defs>
       <use xlink:href="#DejaVuSans-32"/>
       <use xlink:href="#DejaVuSans-30" x="63.623047"/>
       <use xlink:href="#DejaVuSans-32" x="127.246094"/>
       <use xlink:href="#DejaVuSans-32" x="190.869141"/>
       <use xlink:href="#DejaVuSans-2d" x="254.492188"/>
       <use xlink:href="#DejaVuSans-30" x="290.576172"/>
       <use xlink:href="#DejaVuSans-31" x="354.199219"/>
      </g>
     </g>
    </g>
    <g id="xtick_14">
     <g id="line2d_43">
      <path d="M 159.826646 584.521875 
L 159.826646 331.135938 
" clip-path="url(#pef3b9d922d)" style="fill: none; stroke-dasharray: 2.96,1.28; stroke-dashoffset: 0; stroke: #b0b0b0; stroke-width: 0.8"/>
     </g>
     <g id="line2d_44">
      <g>
       <use xlink:href="#m07788b80a3" x="159.826646" y="584.521875" style="stroke: #000000; stroke-width: 0.8"/>
      </g>
     </g>
     <g id="text_11">
      <!-- 2022-02 -->
      <g transform="translate(138.93524 599.120312)scale(0.1 -0.1)">
       <use xlink:href="#DejaVuSans-32"/>
       <use xlink:href="#DejaVuSans-30" x="63.623047"/>
       <use xlink:href="#DejaVuSans-32" x="127.246094"/>
       <use xlink:href="#DejaVuSans-32" x="190.869141"/>
       <use xlink:href="#DejaVuSans-2d" x="254.492188"/>
       <use xlink:href="#DejaVuSans-30" x="290.576172"/>
       <use xlink:href="#DejaVuSans-32" x="354.199219"/>
      </g>
     </g>
    </g>
    <g id="xtick_15">
     <g id="line2d_45">
      <path d="M 235.150669 584.521875 
L 235.150669 331.135938 
" clip-path="url(#pef3b9d922d)" style="fill: none; stroke-dasharray: 2.96,1.28; stroke-dashoffset: 0; stroke: #b0b0b0; stroke-width: 0.8"/>
     </g>
     <g id="line2d_46">
      <g>
       <use xlink:href="#m07788b80a3" x="235.150669" y="584.521875" style="stroke: #000000; stroke-width: 0.8"/>
      </g>
     </g>
     <g id="text_12">
      <!-- 2022-03 -->
      <g transform="translate(214.259263 599.120312)scale(0.1 -0.1)">
       <use xlink:href="#DejaVuSans-32"/>
       <use xlink:href="#DejaVuSans-30" x="63.623047"/>
       <use xlink:href="#DejaVuSans-32" x="127.246094"/>
       <use xlink:href="#DejaVuSans-32" x="190.869141"/>
       <use xlink:href="#DejaVuSans-2d" x="254.492188"/>
       <use xlink:href="#DejaVuSans-30" x="290.576172"/>
       <use xlink:href="#DejaVuSans-33" x="354.199219"/>
      </g>
     </g>
    </g>
    <g id="xtick_16">
     <g id="line2d_47">
      <path d="M 318.545123 584.521875 
L 318.545123 331.135938 
" clip-path="url(#pef3b9d922d)" style="fill: none; stroke-dasharray: 2.96,1.28; stroke-dashoffset: 0; stroke: #b0b0b0; stroke-width: 0.8"/>
     </g>
     <g id="line2d_48">
      <g>
       <use xlink:href="#m07788b80a3" x="318.545123" y="584.521875" style="stroke: #000000; stroke-width: 0.8"/>
      </g>
     </g>
     <g id="text_13">
      <!-- 2022-04 -->
      <g transform="translate(297.653717 599.120312)scale(0.1 -0.1)">
       <defs>
        <path id="DejaVuSans-34" d="M 2419 4116 
L 825 1625 
L 2419 1625 
L 2419 4116 
z
M 2253 4666 
L 3047 4666 
L 3047 1625 
L 3713 1625 
L 3713 1100 
L 3047 1100 
L 3047 0 
L 2419 0 
L 2419 1100 
L 313 1100 
L 313 1709 
L 2253 4666 
z
" transform="scale(0.015625)"/>
       </defs>
       <use xlink:href="#DejaVuSans-32"/>
       <use xlink:href="#DejaVuSans-30" x="63.623047"/>
       <use xlink:href="#DejaVuSans-32" x="127.246094"/>
       <use xlink:href="#DejaVuSans-32" x="190.869141"/>
       <use xlink:href="#DejaVuSans-2d" x="254.492188"/>
       <use xlink:href="#DejaVuSans-30" x="290.576172"/>
       <use xlink:href="#DejaVuSans-34" x="354.199219"/>
      </g>
     </g>
    </g>
    <g id="xtick_17">
     <g id="line2d_49">
      <path d="M 399.249434 584.521875 
L 399.249434 331.135938 
" clip-path="url(#pef3b9d922d)" style="fill: none; stroke-dasharray: 2.96,1.28; stroke-dashoffset: 0; stroke: #b0b0b0; stroke-width: 0.8"/>
     </g>
     <g id="line2d_50">
      <g>
       <use xlink:href="#m07788b80a3" x="399.249434" y="584.521875" style="stroke: #000000; stroke-width: 0.8"/>
      </g>
     </g>
     <g id="text_14">
      <!-- 2022-05 -->
      <g transform="translate(378.358028 599.120312)scale(0.1 -0.1)">
       <use xlink:href="#DejaVuSans-32"/>
       <use xlink:href="#DejaVuSans-30" x="63.623047"/>
       <use xlink:href="#DejaVuSans-32" x="127.246094"/>
       <use xlink:href="#DejaVuSans-32" x="190.869141"/>
       <use xlink:href="#DejaVuSans-2d" x="254.492188"/>
       <use xlink:href="#DejaVuSans-30" x="290.576172"/>
       <use xlink:href="#DejaVuSans-35" x="354.199219"/>
      </g>
     </g>
    </g>
    <g id="xtick_18">
     <g id="line2d_51">
      <path d="M 482.643888 584.521875 
L 482.643888 331.135938 
" clip-path="url(#pef3b9d922d)" style="fill: none; stroke-dasharray: 2.96,1.28; stroke-dashoffset: 0; stroke: #b0b0b0; stroke-width: 0.8"/>
     </g>
     <g id="line2d_52">
      <g>
       <use xlink:href="#m07788b80a3" x="482.643888" y="584.521875" style="stroke: #000000; stroke-width: 0.8"/>
      </g>
     </g>
     <g id="text_15">
      <!-- 2022-06 -->
      <g transform="translate(461.752482 599.120312)scale(0.1 -0.1)">
       <defs>
        <path id="DejaVuSans-36" d="M 2113 2584 
Q 1688 2584 1439 2293 
Q 1191 2003 1191 1497 
Q 1191 994 1439 701 
Q 1688 409 2113 409 
Q 2538 409 2786 701 
Q 3034 994 3034 1497 
Q 3034 2003 2786 2293 
Q 2538 2584 2113 2584 
z
M 3366 4563 
L 3366 3988 
Q 3128 4100 2886 4159 
Q 2644 4219 2406 4219 
Q 1781 4219 1451 3797 
Q 1122 3375 1075 2522 
Q 1259 2794 1537 2939 
Q 1816 3084 2150 3084 
Q 2853 3084 3261 2657 
Q 3669 2231 3669 1497 
Q 3669 778 3244 343 
Q 2819 -91 2113 -91 
Q 1303 -91 875 529 
Q 447 1150 447 2328 
Q 447 3434 972 4092 
Q 1497 4750 2381 4750 
Q 2619 4750 2861 4703 
Q 3103 4656 3366 4563 
z
" transform="scale(0.015625)"/>
       </defs>
       <use xlink:href="#DejaVuSans-32"/>
       <use xlink:href="#DejaVuSans-30" x="63.623047"/>
       <use xlink:href="#DejaVuSans-32" x="127.246094"/>
       <use xlink:href="#DejaVuSans-32" x="190.869141"/>
       <use xlink:href="#DejaVuSans-2d" x="254.492188"/>
       <use xlink:href="#DejaVuSans-30" x="290.576172"/>
       <use xlink:href="#DejaVuSans-36" x="354.199219"/>
      </g>
     </g>
    </g>
    <g id="xtick_19">
     <g id="line2d_53">
      <path d="M 563.348198 584.521875 
L 563.348198 331.135938 
" clip-path="url(#pef3b9d922d)" style="fill: none; stroke-dasharray: 2.96,1.28; stroke-dashoffset: 0; stroke: #b0b0b0; stroke-width: 0.8"/>
     </g>
     <g id="line2d_54">
      <g>
       <use xlink:href="#m07788b80a3" x="563.348198" y="584.521875" style="stroke: #000000; stroke-width: 0.8"/>
      </g>
     </g>
     <g id="text_16">
      <!-- 2022-07 -->
      <g transform="translate(542.456792 599.120312)scale(0.1 -0.1)">
       <defs>
        <path id="DejaVuSans-37" d="M 525 4666 
L 3525 4666 
L 3525 4397 
L 1831 0 
L 1172 0 
L 2766 4134 
L 525 4134 
L 525 4666 
z
" transform="scale(0.015625)"/>
       </defs>
       <use xlink:href="#DejaVuSans-32"/>
       <use xlink:href="#DejaVuSans-30" x="63.623047"/>
       <use xlink:href="#DejaVuSans-32" x="127.246094"/>
       <use xlink:href="#DejaVuSans-32" x="190.869141"/>
       <use xlink:href="#DejaVuSans-2d" x="254.492188"/>
       <use xlink:href="#DejaVuSans-30" x="290.576172"/>
       <use xlink:href="#DejaVuSans-37" x="354.199219"/>
      </g>
     </g>
    </g>
    <g id="xtick_20">
     <g id="line2d_55">
      <path d="M 646.742653 584.521875 
L 646.742653 331.135938 
" clip-path="url(#pef3b9d922d)" style="fill: none; stroke-dasharray: 2.96,1.28; stroke-dashoffset: 0; stroke: #b0b0b0; stroke-width: 0.8"/>
     </g>
     <g id="line2d_56">
      <g>
       <use xlink:href="#m07788b80a3" x="646.742653" y="584.521875" style="stroke: #000000; stroke-width: 0.8"/>
      </g>
     </g>
     <g id="text_17">
      <!-- 2022-08 -->
      <g transform="translate(625.851246 599.120312)scale(0.1 -0.1)">
       <defs>
        <path id="DejaVuSans-38" d="M 2034 2216 
Q 1584 2216 1326 1975 
Q 1069 1734 1069 1313 
Q 1069 891 1326 650 
Q 1584 409 2034 409 
Q 2484 409 2743 651 
Q 3003 894 3003 1313 
Q 3003 1734 2745 1975 
Q 2488 2216 2034 2216 
z
M 1403 2484 
Q 997 2584 770 2862 
Q 544 3141 544 3541 
Q 544 4100 942 4425 
Q 1341 4750 2034 4750 
Q 2731 4750 3128 4425 
Q 3525 4100 3525 3541 
Q 3525 3141 3298 2862 
Q 3072 2584 2669 2484 
Q 3125 2378 3379 2068 
Q 3634 1759 3634 1313 
Q 3634 634 3220 271 
Q 2806 -91 2034 -91 
Q 1263 -91 848 271 
Q 434 634 434 1313 
Q 434 1759 690 2068 
Q 947 2378 1403 2484 
z
M 1172 3481 
Q 1172 3119 1398 2916 
Q 1625 2713 2034 2713 
Q 2441 2713 2670 2916 
Q 2900 3119 2900 3481 
Q 2900 3844 2670 4047 
Q 2441 4250 2034 4250 
Q 1625 4250 1398 4047 
Q 1172 3844 1172 3481 
z
" transform="scale(0.015625)"/>
       </defs>
       <use xlink:href="#DejaVuSans-32"/>
       <use xlink:href="#DejaVuSans-30" x="63.623047"/>
       <use xlink:href="#DejaVuSans-32" x="127.246094"/>
       <use xlink:href="#DejaVuSans-32" x="190.869141"/>
       <use xlink:href="#DejaVuSans-2d" x="254.492188"/>
       <use xlink:href="#DejaVuSans-30" x="290.576172"/>
       <use xlink:href="#DejaVuSans-38" x="354.199219"/>
      </g>
     </g>
    </g>
    <g id="xtick_21">
     <g id="line2d_57">
      <path d="M 730.137107 584.521875 
L 730.137107 331.135938 
" clip-path="url(#pef3b9d922d)" style="fill: none; stroke-dasharray: 2.96,1.28; stroke-dashoffset: 0; stroke: #b0b0b0; stroke-width: 0.8"/>
     </g>
     <g id="line2d_58">
      <g>
       <use xlink:href="#m07788b80a3" x="730.137107" y="584.521875" style="stroke: #000000; stroke-width: 0.8"/>
      </g>
     </g>
     <g id="text_18">
      <!-- 2022-09 -->
      <g transform="translate(709.245701 599.120312)scale(0.1 -0.1)">
       <defs>
        <path id="DejaVuSans-39" d="M 703 97 
L 703 672 
Q 941 559 1184 500 
Q 1428 441 1663 441 
Q 2288 441 2617 861 
Q 2947 1281 2994 2138 
Q 2813 1869 2534 1725 
Q 2256 1581 1919 1581 
Q 1219 1581 811 2004 
Q 403 2428 403 3163 
Q 403 3881 828 4315 
Q 1253 4750 1959 4750 
Q 2769 4750 3195 4129 
Q 3622 3509 3622 2328 
Q 3622 1225 3098 567 
Q 2575 -91 1691 -91 
Q 1453 -91 1209 -44 
Q 966 3 703 97 
z
M 1959 2075 
Q 2384 2075 2632 2365 
Q 2881 2656 2881 3163 
Q 2881 3666 2632 3958 
Q 2384 4250 1959 4250 
Q 1534 4250 1286 3958 
Q 1038 3666 1038 3163 
Q 1038 2656 1286 2365 
Q 1534 2075 1959 2075 
z
" transform="scale(0.015625)"/>
       </defs>
       <use xlink:href="#DejaVuSans-32"/>
       <use xlink:href="#DejaVuSans-30" x="63.623047"/>
       <use xlink:href="#DejaVuSans-32" x="127.246094"/>
       <use xlink:href="#DejaVuSans-32" x="190.869141"/>
       <use xlink:href="#DejaVuSans-2d" x="254.492188"/>
       <use xlink:href="#DejaVuSans-30" x="290.576172"/>
       <use xlink:href="#DejaVuSans-39" x="354.199219"/>
      </g>
     </g>
    </g>
    <g id="xtick_22">
     <g id="line2d_59">
      <path d="M 810.841417 584.521875 
L 810.841417 331.135938 
" clip-path="url(#pef3b9d922d)" style="fill: none; stroke-dasharray: 2.96,1.28; stroke-dashoffset: 0; stroke: #b0b0b0; stroke-width: 0.8"/>
     </g>
     <g id="line2d_60">
      <g>
       <use xlink:href="#m07788b80a3" x="810.841417" y="584.521875" style="stroke: #000000; stroke-width: 0.8"/>
      </g>
     </g>
     <g id="text_19">
      <!-- 2022-10 -->
      <g transform="translate(789.950011 599.120312)scale(0.1 -0.1)">
       <use xlink:href="#DejaVuSans-32"/>
       <use xlink:href="#DejaVuSans-30" x="63.623047"/>
       <use xlink:href="#DejaVuSans-32" x="127.246094"/>
       <use xlink:href="#DejaVuSans-32" x="190.869141"/>
       <use xlink:href="#DejaVuSans-2d" x="254.492188"/>
       <use xlink:href="#DejaVuSans-31" x="290.576172"/>
       <use xlink:href="#DejaVuSans-30" x="354.199219"/>
      </g>
     </g>
    </g>
    <g id="xtick_23">
     <g id="line2d_61">
      <path d="M 894.235872 584.521875 
L 894.235872 331.135938 
" clip-path="url(#pef3b9d922d)" style="fill: none; stroke-dasharray: 2.96,1.28; stroke-dashoffset: 0; stroke: #b0b0b0; stroke-width: 0.8"/>
     </g>
     <g id="line2d_62">
      <g>
       <use xlink:href="#m07788b80a3" x="894.235872" y="584.521875" style="stroke: #000000; stroke-width: 0.8"/>
      </g>
     </g>
     <g id="text_20">
      <!-- 2022-11 -->
      <g transform="translate(873.344465 599.120312)scale(0.1 -0.1)">
       <use xlink:href="#DejaVuSans-32"/>
       <use xlink:href="#DejaVuSans-30" x="63.623047"/>
       <use xlink:href="#DejaVuSans-32" x="127.246094"/>
       <use xlink:href="#DejaVuSans-32" x="190.869141"/>
       <use xlink:href="#DejaVuSans-2d" x="254.492188"/>
       <use xlink:href="#DejaVuSans-31" x="290.576172"/>
       <use xlink:href="#DejaVuSans-31" x="354.199219"/>
      </g>
     </g>
    </g>
    <g id="xtick_24">
     <g id="line2d_63">
      <path d="M 974.940182 584.521875 
L 974.940182 331.135938 
" clip-path="url(#pef3b9d922d)" style="fill: none; stroke-dasharray: 2.96,1.28; stroke-dashoffset: 0; stroke: #b0b0b0; stroke-width: 0.8"/>
     </g>
     <g id="line2d_64">
      <g>
       <use xlink:href="#m07788b80a3" x="974.940182" y="584.521875" style="stroke: #000000; stroke-width: 0.8"/>
      </g>
     </g>
     <g id="text_21">
      <!-- 2022-12 -->
      <g transform="translate(954.048776 599.120312)scale(0.1 -0.1)">
       <use xlink:href="#DejaVuSans-32"/>
       <use xlink:href="#DejaVuSans-30" x="63.623047"/>
       <use xlink:href="#DejaVuSans-32" x="127.246094"/>
       <use xlink:href="#DejaVuSans-32" x="190.869141"/>
       <use xlink:href="#DejaVuSans-2d" x="254.492188"/>
       <use xlink:href="#DejaVuSans-31" x="290.576172"/>
       <use xlink:href="#DejaVuSans-32" x="354.199219"/>
      </g>
     </g>
    </g>
   </g>
   <g id="matplotlib.axis_4">
    <g id="ytick_7">
     <g id="line2d_65">
      <path d="M 38.904688 559.827763 
L 982.876106 559.827763 
" clip-path="url(#pef3b9d922d)" style="fill: none; stroke-dasharray: 2.96,1.28; stroke-dashoffset: 0; stroke: #b0b0b0; stroke-width: 0.8"/>
     </g>
     <g id="line2d_66">
      <g>
       <use xlink:href="#mf04159d3df" x="38.904688" y="559.827763" style="stroke: #000000; stroke-width: 0.8"/>
      </g>
     </g>
     <g id="text_22">
      <!-- −50 -->
      <g transform="translate(10.8 563.626982)scale(0.1 -0.1)">
       <defs>
        <path id="DejaVuSans-2212" d="M 678 2272 
L 4684 2272 
L 4684 1741 
L 678 1741 
L 678 2272 
z
" transform="scale(0.015625)"/>
       </defs>
       <use xlink:href="#DejaVuSans-2212"/>
       <use xlink:href="#DejaVuSans-35" x="83.789062"/>
       <use xlink:href="#DejaVuSans-30" x="147.412109"/>
      </g>
     </g>
    </g>
    <g id="ytick_8">
     <g id="line2d_67">
      <path d="M 38.904688 526.78132 
L 982.876106 526.78132 
" clip-path="url(#pef3b9d922d)" style="fill: none; stroke-dasharray: 2.96,1.28; stroke-dashoffset: 0; stroke: #b0b0b0; stroke-width: 0.8"/>
     </g>
     <g id="line2d_68">
      <g>
       <use xlink:href="#mf04159d3df" x="38.904688" y="526.78132" style="stroke: #000000; stroke-width: 0.8"/>
      </g>
     </g>
     <g id="text_23">
      <!-- −40 -->
      <g transform="translate(10.8 530.580538)scale(0.1 -0.1)">
       <use xlink:href="#DejaVuSans-2212"/>
       <use xlink:href="#DejaVuSans-34" x="83.789062"/>
       <use xlink:href="#DejaVuSans-30" x="147.412109"/>
      </g>
     </g>
    </g>
    <g id="ytick_9">
     <g id="line2d_69">
      <path d="M 38.904688 493.734876 
L 982.876106 493.734876 
" clip-path="url(#pef3b9d922d)" style="fill: none; stroke-dasharray: 2.96,1.28; stroke-dashoffset: 0; stroke: #b0b0b0; stroke-width: 0.8"/>
     </g>
     <g id="line2d_70">
      <g>
       <use xlink:href="#mf04159d3df" x="38.904688" y="493.734876" style="stroke: #000000; stroke-width: 0.8"/>
      </g>
     </g>
     <g id="text_24">
      <!-- −30 -->
      <g transform="translate(10.8 497.534095)scale(0.1 -0.1)">
       <use xlink:href="#DejaVuSans-2212"/>
       <use xlink:href="#DejaVuSans-33" x="83.789062"/>
       <use xlink:href="#DejaVuSans-30" x="147.412109"/>
      </g>
     </g>
    </g>
    <g id="ytick_10">
     <g id="line2d_71">
      <path d="M 38.904688 460.688432 
L 982.876106 460.688432 
" clip-path="url(#pef3b9d922d)" style="fill: none; stroke-dasharray: 2.96,1.28; stroke-dashoffset: 0; stroke: #b0b0b0; stroke-width: 0.8"/>
     </g>
     <g id="line2d_72">
      <g>
       <use xlink:href="#mf04159d3df" x="38.904688" y="460.688432" style="stroke: #000000; stroke-width: 0.8"/>
      </g>
     </g>
     <g id="text_25">
      <!-- −20 -->
      <g transform="translate(10.8 464.487651)scale(0.1 -0.1)">
       <use xlink:href="#DejaVuSans-2212"/>
       <use xlink:href="#DejaVuSans-32" x="83.789062"/>
       <use xlink:href="#DejaVuSans-30" x="147.412109"/>
      </g>
     </g>
    </g>
    <g id="ytick_11">
     <g id="line2d_73">
      <path d="M 38.904688 427.641988 
L 982.876106 427.641988 
" clip-path="url(#pef3b9d922d)" style="fill: none; stroke-dasharray: 2.96,1.28; stroke-dashoffset: 0; stroke: #b0b0b0; stroke-width: 0.8"/>
     </g>
     <g id="line2d_74">
      <g>
       <use xlink:href="#mf04159d3df" x="38.904688" y="427.641988" style="stroke: #000000; stroke-width: 0.8"/>
      </g>
     </g>
     <g id="text_26">
      <!-- −10 -->
      <g transform="translate(10.8 431.441207)scale(0.1 -0.1)">
       <use xlink:href="#DejaVuSans-2212"/>
       <use xlink:href="#DejaVuSans-31" x="83.789062"/>
       <use xlink:href="#DejaVuSans-30" x="147.412109"/>
      </g>
     </g>
    </g>
    <g id="ytick_12">
     <g id="line2d_75">
      <path d="M 38.904688 394.595544 
L 982.876106 394.595544 
" clip-path="url(#pef3b9d922d)" style="fill: none; stroke-dasharray: 2.96,1.28; stroke-dashoffset: 0; stroke: #b0b0b0; stroke-width: 0.8"/>
     </g>
     <g id="line2d_76">
      <g>
       <use xlink:href="#mf04159d3df" x="38.904688" y="394.595544" style="stroke: #000000; stroke-width: 0.8"/>
      </g>
     </g>
     <g id="text_27">
      <!-- 0 -->
      <g transform="translate(25.542188 398.394763)scale(0.1 -0.1)">
       <use xlink:href="#DejaVuSans-30"/>
      </g>
     </g>
    </g>
    <g id="ytick_13">
     <g id="line2d_77">
      <path d="M 38.904688 361.549101 
L 982.876106 361.549101 
" clip-path="url(#pef3b9d922d)" style="fill: none; stroke-dasharray: 2.96,1.28; stroke-dashoffset: 0; stroke: #b0b0b0; stroke-width: 0.8"/>
     </g>
     <g id="line2d_78">
      <g>
       <use xlink:href="#mf04159d3df" x="38.904688" y="361.549101" style="stroke: #000000; stroke-width: 0.8"/>
      </g>
     </g>
     <g id="text_28">
      <!-- 10 -->
      <g transform="translate(19.179688 365.348319)scale(0.1 -0.1)">
       <use xlink:href="#DejaVuSans-31"/>
       <use xlink:href="#DejaVuSans-30" x="63.623047"/>
      </g>
     </g>
    </g>
   </g>
   <g id="line2d_79">
    <path d="M 81.812479 394.595544 
L 84.502623 394.232245 
L 89.88291 394.68344 
L 92.573054 395.328465 
L 106.023772 395.327548 
L 108.713916 395.479601 
L 111.40406 393.778779 
L 119.474491 393.194998 
L 122.164634 394.2655 
L 124.854778 395.101126 
L 127.544922 394.915634 
L 130.235066 395.830617 
L 138.305497 398.443484 
L 140.99564 398.977312 
L 146.375928 399.186496 
L 149.066071 398.82504 
L 159.826646 397.710762 
L 162.51679 396.7572 
L 165.206933 396.620671 
L 167.897077 397.206359 
L 175.967508 398.251279 
L 178.657652 399.625159 
L 181.347796 399.910689 
L 184.037939 400.024116 
L 186.728083 400.633125 
L 194.798514 402.106554 
L 197.488658 402.43316 
L 200.178801 402.585522 
L 202.868945 402.122883 
L 205.559089 401.920389 
L 213.62952 402.135176 
L 216.319663 402.415184 
L 219.009807 402.132451 
L 221.699951 404.619005 
L 232.460525 399.666005 
L 237.840813 395.314037 
L 240.530957 392.140097 
L 243.2211 389.72146 
L 251.291531 388.049516 
L 253.981675 387.135244 
L 256.671819 384.080385 
L 259.361962 383.273614 
L 262.052106 383.273503 
L 270.122537 384.692842 
L 272.812681 387.015927 
L 275.502824 388.02927 
L 278.192968 388.794359 
L 288.953543 389.589656 
L 291.643687 390.035987 
L 294.33383 391.061837 
L 297.023974 391.879732 
L 299.714118 392.942288 
L 307.784549 394.041274 
L 310.474692 394.295142 
L 313.164836 394.223184 
L 315.85498 393.556824 
L 318.545123 391.922017 
L 326.615554 389.533434 
L 331.995842 386.405332 
L 337.376129 376.489128 
L 345.44656 371.602743 
L 348.136704 368.443569 
L 350.826848 365.033068 
L 364.277566 360.637014 
L 369.657853 356.98353 
L 372.347997 356.093171 
L 375.038141 356.163171 
L 385.798715 358.964497 
L 391.179003 362.984734 
L 393.869146 367.010591 
L 401.939578 370.584383 
L 407.319865 375.487061 
L 410.010009 378.572064 
L 412.700152 382.948539 
L 420.770583 387.207752 
L 426.150871 395.594464 
L 428.841014 399.121436 
L 431.531158 401.7146 
L 439.601589 401.531755 
L 442.291733 399.75541 
L 444.981876 398.212698 
L 447.67202 398.438 
L 450.362164 396.608083 
L 458.432595 396.086726 
L 461.122739 395.595397 
L 463.812882 396.595494 
L 466.503026 397.448468 
L 469.19317 396.793094 
L 477.263601 396.320458 
L 479.953744 394.850091 
L 482.643888 390.704212 
L 485.334032 387.592615 
L 488.024175 386.156951 
L 496.094606 384.825244 
L 498.78475 383.260719 
L 501.474894 382.295909 
L 506.855181 380.9251 
L 514.925612 383.49288 
L 517.615756 384.08931 
L 520.3059 384.99262 
L 522.996043 387.852502 
L 525.686187 389.563757 
L 533.756618 392.951879 
L 536.446762 394.808001 
L 539.136905 397.419593 
L 541.827049 399.156756 
L 544.517193 398.726088 
L 555.277767 395.887044 
L 557.967911 395.394207 
L 560.658055 395.526179 
L 563.348198 396.752453 
L 571.41863 397.714989 
L 574.108773 398.565363 
L 576.798917 398.698702 
L 579.489061 397.280219 
L 582.179204 396.309622 
L 590.249635 395.859159 
L 592.939779 396.150852 
L 595.629923 396.045331 
L 598.320066 394.904879 
L 601.01021 391.872594 
L 609.080641 387.168587 
L 611.770785 383.383223 
L 614.460928 380.611162 
L 617.151072 374.960836 
L 619.841216 371.258566 
L 627.911647 367.767135 
L 630.601791 366.167804 
L 633.291934 363.591143 
L 638.672222 360.615623 
L 646.742653 357.438668 
L 649.432796 355.952996 
L 652.12294 356.586998 
L 654.813084 355.592477 
L 657.503227 357.3667 
L 665.573658 357.67841 
L 670.953946 356.880267 
L 673.64409 356.671564 
L 676.334233 355.978033 
L 687.094808 355.176171 
L 689.784952 355.629835 
L 692.475095 357.114728 
L 695.165239 359.66744 
L 703.23567 361.011 
L 705.925814 359.981557 
L 708.615957 360.729391 
L 711.306101 361.002654 
L 713.996245 359.319284 
L 722.066676 357.479752 
L 724.756819 357.080996 
L 730.137107 353.689983 
L 732.827251 350.247183 
L 740.897682 347.172108 
L 746.277969 344.502936 
L 748.968113 344.271995 
L 751.658256 344.664547 
L 759.728687 342.799489 
L 762.418831 342.65348 
L 765.108975 343.104656 
L 767.799118 403.306261 
L 770.489262 450.399854 
L 778.559693 486.792405 
L 781.249837 514.333496 
L 783.939981 535.00807 
L 786.630124 549.197347 
L 789.320268 559.435579 
L 797.390699 567.146994 
L 800.080843 571.472739 
L 802.770986 573.004332 
L 805.46113 572.210692 
L 808.151274 569.050735 
L 816.221705 565.245937 
L 818.911848 559.37121 
L 824.292136 552.205311 
L 826.982279 544.37309 
L 835.05271 537.004381 
L 840.432998 522.876303 
L 845.813285 509.987272 
L 853.883716 503.432529 
L 856.57386 495.962723 
L 861.954147 481.859285 
L 864.644291 476.468179 
L 872.714722 470.981834 
L 875.404866 465.747011 
L 880.785153 460.096681 
L 883.475297 455.582378 
L 891.545728 450.955096 
L 894.235872 446.252489 
L 896.926015 442.348493 
L 899.616159 437.994301 
L 902.306303 434.351942 
L 910.376734 430.860645 
L 915.757021 428.133811 
L 921.137308 423.760913 
L 929.207739 421.881462 
L 931.897883 419.979378 
L 934.588027 417.870344 
L 937.27817 415.346405 
L 939.968314 413.989243 
L 939.968314 413.989243 
" clip-path="url(#pef3b9d922d)" style="fill: none; stroke: #1f77b4; stroke-width: 1.5; stroke-linecap: square"/>
   </g>
   <g id="line2d_80">
    <path d="M 81.812479 394.595544 
L 84.502623 394.393712 
L 89.88291 394.500253 
L 92.573054 394.746627 
L 106.023772 395.086559 
L 108.713916 395.177354 
L 111.40406 394.863992 
L 122.164634 394.448717 
L 130.235066 394.899161 
L 138.305497 395.628556 
L 140.99564 396.313736 
L 149.066071 397.289703 
L 159.826646 397.478963 
L 165.206933 397.190117 
L 167.897077 397.193381 
L 175.967508 397.405763 
L 181.347796 398.263927 
L 186.728083 399.020567 
L 194.798514 399.63853 
L 200.178801 400.675891 
L 205.559089 401.156553 
L 213.62952 401.352357 
L 219.009807 401.678513 
L 221.699951 402.266733 
L 224.390094 402.484545 
L 232.460525 401.920762 
L 237.840813 400.599277 
L 240.530957 398.907297 
L 243.2211 397.070004 
L 251.291531 395.265808 
L 253.981675 393.639625 
L 256.671819 391.72771 
L 259.361962 390.036844 
L 262.052106 388.684145 
L 272.812681 387.711879 
L 275.502824 387.775358 
L 278.192968 387.97916 
L 288.953543 388.301262 
L 291.643687 388.648209 
L 297.023974 389.680698 
L 299.714118 390.333018 
L 307.784549 391.074671 
L 310.474692 391.718766 
L 313.164836 392.219651 
L 315.85498 392.487086 
L 318.545123 392.374072 
L 326.615554 391.805944 
L 329.305698 391.03326 
L 331.995842 390.107674 
L 334.685985 388.392829 
L 337.376129 386.012088 
L 345.44656 383.130218 
L 350.826848 377.160923 
L 364.277566 373.856141 
L 366.96771 370.845224 
L 369.657853 368.072885 
L 372.347997 365.676942 
L 375.038141 363.774188 
L 383.108572 362.658193 
L 385.798715 361.919453 
L 388.488859 361.740809 
L 391.179003 361.989594 
L 393.869146 362.993793 
L 401.939578 364.511911 
L 407.319865 366.706941 
L 410.010009 369.079966 
L 412.700152 371.853681 
L 420.770583 374.924495 
L 423.460727 378.202287 
L 431.531158 388.478012 
L 439.601589 391.088761 
L 442.291733 392.82209 
L 444.981876 393.900212 
L 447.67202 394.807769 
L 450.362164 395.167832 
L 461.122739 395.400368 
L 463.812882 395.639393 
L 466.503026 396.001208 
L 469.19317 396.159585 
L 477.263601 396.19176 
L 479.953744 395.923426 
L 482.643888 394.879583 
L 488.024175 391.969142 
L 496.094606 390.540362 
L 501.474894 387.726729 
L 506.855181 385.388413 
L 520.3059 384.858769 
L 522.996043 385.457516 
L 525.686187 386.278764 
L 533.756618 387.613387 
L 536.446762 389.05231 
L 541.827049 392.411964 
L 544.517193 393.674789 
L 552.587624 394.262842 
L 555.277767 394.587682 
L 560.658055 394.904426 
L 563.348198 395.274031 
L 571.41863 395.762223 
L 576.798917 396.798021 
L 579.489061 396.894461 
L 582.179204 396.777493 
L 595.629923 396.413251 
L 598.320066 396.111577 
L 601.01021 395.26378 
L 609.080641 393.644742 
L 611.770785 391.592438 
L 614.460928 389.396183 
L 617.151072 386.509114 
L 619.841216 383.459004 
L 627.911647 380.32063 
L 633.291934 374.710281 
L 635.982078 372.195547 
L 638.672222 369.879562 
L 646.742653 367.391383 
L 649.432796 365.103706 
L 652.12294 363.400364 
L 654.813084 361.838787 
L 657.503227 360.944369 
L 665.573658 360.291178 
L 670.953946 359.608995 
L 676.334233 358.412814 
L 687.094808 357.765485 
L 689.784952 357.338355 
L 692.475095 357.29363 
L 695.165239 357.768392 
L 705.925814 358.729842 
L 711.306101 359.504333 
L 713.996245 359.467323 
L 722.066676 359.069809 
L 724.756819 358.672046 
L 730.137107 357.675633 
L 732.827251 356.189943 
L 740.897682 354.386376 
L 746.277969 351.051298 
L 748.968113 349.695438 
L 751.658256 348.68926 
L 759.728687 347.511306 
L 762.418831 346.539741 
L 765.108975 345.852724 
L 767.799118 357.343431 
L 770.489262 375.954716 
L 778.559693 398.122253 
L 783.939981 444.093216 
L 786.630124 465.114042 
L 789.320268 483.978349 
L 797.390699 500.612078 
L 800.080843 514.78421 
L 802.770986 526.428235 
L 805.46113 535.584726 
L 808.151274 542.277928 
L 816.221705 546.87153 
L 818.911848 549.371466 
L 824.292136 549.938235 
L 826.982279 548.825206 
L 835.05271 546.461041 
L 837.742854 543.164303 
L 840.432998 539.106703 
L 843.123142 534.553084 
L 845.813285 529.639922 
L 853.883716 524.398443 
L 856.57386 518.711299 
L 861.954147 506.582018 
L 864.644291 500.55925 
L 872.714722 494.643767 
L 875.404866 488.864416 
L 880.785153 483.110869 
L 883.475297 477.605171 
L 891.545728 472.275156 
L 894.235872 467.070622 
L 899.616159 457.299817 
L 902.306303 452.710242 
L 910.376734 448.340323 
L 915.757021 444.29902 
L 918.447165 440.633433 
L 921.137308 437.258929 
L 929.207739 434.183436 
L 934.588027 428.648168 
L 937.27817 425.987816 
L 939.968314 423.588101 
L 939.968314 423.588101 
" clip-path="url(#pef3b9d922d)" style="fill: none; stroke: #ff7f0e; stroke-width: 1.5; stroke-linecap: square"/>
   </g>
   <g id="patch_9">
    <path d="M 38.904688 584.521875 
L 38.904688 331.135938 
" style="fill: none; stroke: #000000; stroke-width: 0.8; stroke-linejoin: miter; stroke-linecap: square"/>
   </g>
   <g id="patch_10">
    <path d="M 982.876106 584.521875 
L 982.876106 331.135938 
" style="fill: none; stroke: #000000; stroke-width: 0.8; stroke-linejoin: miter; stroke-linecap: square"/>
   </g>
   <g id="patch_11">
    <path d="M 38.904687 584.521875 
L 982.876106 584.521875 
" style="fill: none; stroke: #000000; stroke-width: 0.8; stroke-linejoin: miter; stroke-linecap: square"/>
   </g>
   <g id="patch_12">
    <path d="M 38.904687 331.135938 
L 982.876106 331.135938 
" style="fill: none; stroke: #000000; stroke-width: 0.8; stroke-linejoin: miter; stroke-linecap: square"/>
   </g>
   <g id="text_29">
    <!-- MACD -->
    <g transform="translate(492.904459 325.135938)scale(0.12 -0.12)">
     <defs>
      <path id="DejaVuSans-44" d="M 1259 4147 
L 1259 519 
L 2022 519 
Q 2988 519 3436 956 
Q 3884 1394 3884 2338 
Q 3884 3275 3436 3711 
Q 2988 4147 2022 4147 
L 1259 4147 
z
M 628 4666 
L 1925 4666 
Q 3281 4666 3915 4102 
Q 4550 3538 4550 2338 
Q 4550 1131 3912 565 
Q 3275 0 1925 0 
L 628 0 
L 628 4666 
z
" transform="scale(0.015625)"/>
     </defs>
     <use xlink:href="#DejaVuSans-4d"/>
     <use xlink:href="#DejaVuSans-41" x="86.279297"/>
     <use xlink:href="#DejaVuSans-43" x="152.9375"/>
     <use xlink:href="#DejaVuSans-44" x="222.761719"/>
    </g>
   </g>
   <g id="legend_2">
    <g id="patch_13">
     <path d="M 913.899543 368.492188 
L 975.876106 368.492188 
Q 977.876106 368.492188 977.876106 366.492188 
L 977.876106 338.135938 
Q 977.876106 336.135938 975.876106 336.135938 
L 913.899543 336.135938 
Q 911.899543 336.135938 911.899543 338.135938 
L 911.899543 366.492188 
Q 911.899543 368.492188 913.899543 368.492188 
z
" style="fill: #ffffff; opacity: 0.8; stroke: #cccccc; stroke-linejoin: miter"/>
    </g>
    <g id="line2d_81">
     <path d="M 915.899543 344.234375 
L 925.899543 344.234375 
L 935.899543 344.234375 
" style="fill: none; stroke: #1f77b4; stroke-width: 1.5; stroke-linecap: square"/>
    </g>
    <g id="text_30">
     <!-- MACD -->
     <g transform="translate(943.899543 347.734375)scale(0.1 -0.1)">
      <use xlink:href="#DejaVuSans-4d"/>
      <use xlink:href="#DejaVuSans-41" x="86.279297"/>
      <use xlink:href="#DejaVuSans-43" x="152.9375"/>
      <use xlink:href="#DejaVuSans-44" x="222.761719"/>
     </g>
    </g>
    <g id="line2d_82">
     <path d="M 915.899543 358.9125 
L 925.899543 358.9125 
L 935.899543 358.9125 
" style="fill: none; stroke: #ff7f0e; stroke-width: 1.5; stroke-linecap: square"/>
    </g>
    <g id="text_31">
     <!-- SIG -->
     <g transform="translate(943.899543 362.4125)scale(0.1 -0.1)">
      <defs>
       <path id="DejaVuSans-49" d="M 628 4666 
L 1259 4666 
L 1259 0 
L 628 0 
L 628 4666 
z
" transform="scale(0.015625)"/>
       <path id="DejaVuSans-47" d="M 3809 666 
L 3809 1919 
L 2778 1919 
L 2778 2438 
L 4434 2438 
L 4434 434 
Q 4069 175 3628 42 
Q 3188 -91 2688 -91 
Q 1594 -91 976 548 
Q 359 1188 359 2328 
Q 359 3472 976 4111 
Q 1594 4750 2688 4750 
Q 3144 4750 3555 4637 
Q 3966 4525 4313 4306 
L 4313 3634 
Q 3963 3931 3569 4081 
Q 3175 4231 2741 4231 
Q 1884 4231 1454 3753 
Q 1025 3275 1025 2328 
Q 1025 1384 1454 906 
Q 1884 428 2741 428 
Q 3075 428 3337 486 
Q 3600 544 3809 666 
z
" transform="scale(0.015625)"/>
      </defs>
      <use xlink:href="#DejaVuSans-53"/>
      <use xlink:href="#DejaVuSans-49" x="63.476562"/>
      <use xlink:href="#DejaVuSans-47" x="92.96875"/>
     </g>
    </g>
   </g>
  </g>
  <g id="text_32">
   <!-- Bharat Electronics Limited -->
   <g transform="translate(425.022187 21.358125)scale(0.12 -0.12)">
    <defs>
     <path id="DejaVuSans-42" d="M 1259 2228 
L 1259 519 
L 2272 519 
Q 2781 519 3026 730 
Q 3272 941 3272 1375 
Q 3272 1813 3026 2020 
Q 2781 2228 2272 2228 
L 1259 2228 
z
M 1259 4147 
L 1259 2741 
L 2194 2741 
Q 2656 2741 2882 2914 
Q 3109 3088 3109 3444 
Q 3109 3797 2882 3972 
Q 2656 4147 2194 4147 
L 1259 4147 
z
M 628 4666 
L 2241 4666 
Q 2963 4666 3353 4366 
Q 3744 4066 3744 3513 
Q 3744 3084 3544 2831 
Q 3344 2578 2956 2516 
Q 3422 2416 3680 2098 
Q 3938 1781 3938 1306 
Q 3938 681 3513 340 
Q 3088 0 2303 0 
L 628 0 
L 628 4666 
z
" transform="scale(0.015625)"/>
     <path id="DejaVuSans-68" d="M 3513 2113 
L 3513 0 
L 2938 0 
L 2938 2094 
Q 2938 2591 2744 2837 
Q 2550 3084 2163 3084 
Q 1697 3084 1428 2787 
Q 1159 2491 1159 1978 
L 1159 0 
L 581 0 
L 581 4863 
L 1159 4863 
L 1159 2956 
Q 1366 3272 1645 3428 
Q 1925 3584 2291 3584 
Q 2894 3584 3203 3211 
Q 3513 2838 3513 2113 
z
" transform="scale(0.015625)"/>
     <path id="DejaVuSans-61" d="M 2194 1759 
Q 1497 1759 1228 1600 
Q 959 1441 959 1056 
Q 959 750 1161 570 
Q 1363 391 1709 391 
Q 2188 391 2477 730 
Q 2766 1069 2766 1631 
L 2766 1759 
L 2194 1759 
z
M 3341 1997 
L 3341 0 
L 2766 0 
L 2766 531 
Q 2569 213 2275 61 
Q 1981 -91 1556 -91 
Q 1019 -91 701 211 
Q 384 513 384 1019 
Q 384 1609 779 1909 
Q 1175 2209 1959 2209 
L 2766 2209 
L 2766 2266 
Q 2766 2663 2505 2880 
Q 2244 3097 1772 3097 
Q 1472 3097 1187 3025 
Q 903 2953 641 2809 
L 641 3341 
Q 956 3463 1253 3523 
Q 1550 3584 1831 3584 
Q 2591 3584 2966 3190 
Q 3341 2797 3341 1997 
z
" transform="scale(0.015625)"/>
     <path id="DejaVuSans-74" d="M 1172 4494 
L 1172 3500 
L 2356 3500 
L 2356 3053 
L 1172 3053 
L 1172 1153 
Q 1172 725 1289 603 
Q 1406 481 1766 481 
L 2356 481 
L 2356 0 
L 1766 0 
Q 1100 0 847 248 
Q 594 497 594 1153 
L 594 3053 
L 172 3053 
L 172 3500 
L 594 3500 
L 594 4494 
L 1172 4494 
z
" transform="scale(0.015625)"/>
     <path id="DejaVuSans-6d" d="M 3328 2828 
Q 3544 3216 3844 3400 
Q 4144 3584 4550 3584 
Q 5097 3584 5394 3201 
Q 5691 2819 5691 2113 
L 5691 0 
L 5113 0 
L 5113 2094 
Q 5113 2597 4934 2840 
Q 4756 3084 4391 3084 
Q 3944 3084 3684 2787 
Q 3425 2491 3425 1978 
L 3425 0 
L 2847 0 
L 2847 2094 
Q 2847 2600 2669 2842 
Q 2491 3084 2119 3084 
Q 1678 3084 1418 2786 
Q 1159 2488 1159 1978 
L 1159 0 
L 581 0 
L 581 3500 
L 1159 3500 
L 1159 2956 
Q 1356 3278 1631 3431 
Q 1906 3584 2284 3584 
Q 2666 3584 2933 3390 
Q 3200 3197 3328 2828 
z
" transform="scale(0.015625)"/>
     <path id="DejaVuSans-64" d="M 2906 2969 
L 2906 4863 
L 3481 4863 
L 3481 0 
L 2906 0 
L 2906 525 
Q 2725 213 2448 61 
Q 2172 -91 1784 -91 
Q 1150 -91 751 415 
Q 353 922 353 1747 
Q 353 2572 751 3078 
Q 1150 3584 1784 3584 
Q 2172 3584 2448 3432 
Q 2725 3281 2906 2969 
z
M 947 1747 
Q 947 1113 1208 752 
Q 1469 391 1925 391 
Q 2381 391 2643 752 
Q 2906 1113 2906 1747 
Q 2906 2381 2643 2742 
Q 2381 3103 1925 3103 
Q 1469 3103 1208 2742 
Q 947 2381 947 1747 
z
" transform="scale(0.015625)"/>
    </defs>
    <use xlink:href="#DejaVuSans-42"/>
    <use xlink:href="#DejaVuSans-68" x="68.603516"/>
    <use xlink:href="#DejaVuSans-61" x="131.982422"/>
    <use xlink:href="#DejaVuSans-72" x="193.261719"/>
    <use xlink:href="#DejaVuSans-61" x="234.375"/>
    <use xlink:href="#DejaVuSans-74" x="295.654297"/>
    <use xlink:href="#DejaVuSans-20" x="334.863281"/>
    <use xlink:href="#DejaVuSans-45" x="366.650391"/>
    <use xlink:href="#DejaVuSans-6c" x="429.833984"/>
    <use xlink:href="#DejaVuSans-65" x="457.617188"/>
    <use xlink:href="#DejaVuSans-63" x="519.140625"/>
    <use xlink:href="#DejaVuSans-74" x="574.121094"/>
    <use xlink:href="#DejaVuSans-72" x="613.330078"/>
    <use xlink:href="#DejaVuSans-6f" x="652.193359"/>
    <use xlink:href="#DejaVuSans-6e" x="713.375"/>
    <use xlink:href="#DejaVuSans-69" x="776.753906"/>
    <use xlink:href="#DejaVuSans-63" x="804.537109"/>
    <use xlink:href="#DejaVuSans-73" x="859.517578"/>
    <use xlink:href="#DejaVuSans-20" x="911.617188"/>
    <use xlink:href="#DejaVuSans-4c" x="943.404297"/>
    <use xlink:href="#DejaVuSans-69" x="999.117188"/>
    <use xlink:href="#DejaVuSans-6d" x="1026.900391"/>
    <use xlink:href="#DejaVuSans-69" x="1124.3125"/>
    <use xlink:href="#DejaVuSans-74" x="1152.095703"/>
    <use xlink:href="#DejaVuSans-65" x="1191.304688"/>
    <use xlink:href="#DejaVuSans-64" x="1252.828125"/>
   </g>
  </g>
 </g>
 <defs>
  <clipPath id="p107f2604fe">
   <rect x="38.904688" y="48.331875" width="943.971418" height="253.385938"/>
  </clipPath>
  <clipPath id="pef3b9d922d">
   <rect x="38.904688" y="331.135938" width="943.971418" height="253.385937"/>
  </clipPath>
 </defs>
</svg>
