<?xml version="1.0" encoding="utf-8" standalone="no"?>
<!DOCTYPE svg PUBLIC "-//W3C//DTD SVG 1.1//EN"
  "http://www.w3.org/Graphics/SVG/1.1/DTD/svg11.dtd">
<svg xmlns:xlink="http://www.w3.org/1999/xlink" width="1008pt" height="612pt" viewBox="0 0 1008 612" xmlns="http://www.w3.org/2000/svg" version="1.1">
 <metadata>
  <rdf:RDF xmlns:dc="http://purl.org/dc/elements/1.1/" xmlns:cc="http://creativecommons.org/ns#" xmlns:rdf="http://www.w3.org/1999/02/22-rdf-syntax-ns#">
   <cc:Work>
    <dc:type rdf:resource="http://purl.org/dc/dcmitype/StillImage"/>
    <dc:date>2022-11-20T19:47:41.436217</dc:date>
    <dc:format>image/svg+xml</dc:format>
    <dc:creator>
     <cc:Agent>
      <dc:title>Matplotlib v3.5.2, https://matplotlib.org/</dc:title>
     </cc:Agent>
    </dc:creator>
   </cc:Work>
  </rdf:RDF>
 </metadata>
 <defs>
  <style type="text/css">*{stroke-linejoin: round; stroke-linecap: butt}</style>
 </defs>
 <g id="figure_1">
  <g id="patch_1">
   <path d="M 0 612 
L 1008 612 
L 1008 0 
L 0 0 
z
" style="fill: #ffffff"/>
  </g>
  <g id="axes_1">
   <g id="patch_2">
    <path d="M 36.8875 301.717812 
L 982.876106 301.717812 
L 982.876106 48.331875 
L 36.8875 48.331875 
z
" style="fill: #ffffff"/>
   </g>
   <g id="matplotlib.axis_1">
    <g id="xtick_1">
     <g id="line2d_1">
      <path d="M 74.495197 301.717812 
L 74.495197 48.331875 
" clip-path="url(#pf7628f195c)" style="fill: none; stroke-dasharray: 2.96,1.28; stroke-dashoffset: 0; stroke: #b0b0b0; stroke-width: 0.8"/>
     </g>
     <g id="line2d_2">
      <defs>
       <path id="m35f16bfc1d" d="M 0 0 
L 0 3.5 
" style="stroke: #000000; stroke-width: 0.8"/>
      </defs>
      <g>
       <use xlink:href="#m35f16bfc1d" x="74.495197" y="301.717812" style="stroke: #000000; stroke-width: 0.8"/>
      </g>
     </g>
    </g>
    <g id="xtick_2">
     <g id="line2d_3">
      <path d="M 158.067859 301.717812 
L 158.067859 48.331875 
" clip-path="url(#pf7628f195c)" style="fill: none; stroke-dasharray: 2.96,1.28; stroke-dashoffset: 0; stroke: #b0b0b0; stroke-width: 0.8"/>
     </g>
     <g id="line2d_4">
      <g>
       <use xlink:href="#m35f16bfc1d" x="158.067859" y="301.717812" style="stroke: #000000; stroke-width: 0.8"/>
      </g>
     </g>
    </g>
    <g id="xtick_3">
     <g id="line2d_5">
      <path d="M 233.552843 301.717812 
L 233.552843 48.331875 
" clip-path="url(#pf7628f195c)" style="fill: none; stroke-dasharray: 2.96,1.28; stroke-dashoffset: 0; stroke: #b0b0b0; stroke-width: 0.8"/>
     </g>
     <g id="line2d_6">
      <g>
       <use xlink:href="#m35f16bfc1d" x="233.552843" y="301.717812" style="stroke: #000000; stroke-width: 0.8"/>
      </g>
     </g>
    </g>
    <g id="xtick_4">
     <g id="line2d_7">
      <path d="M 317.125504 301.717812 
L 317.125504 48.331875 
" clip-path="url(#pf7628f195c)" style="fill: none; stroke-dasharray: 2.96,1.28; stroke-dashoffset: 0; stroke: #b0b0b0; stroke-width: 0.8"/>
     </g>
     <g id="line2d_8">
      <g>
       <use xlink:href="#m35f16bfc1d" x="317.125504" y="301.717812" style="stroke: #000000; stroke-width: 0.8"/>
      </g>
     </g>
    </g>
    <g id="xtick_5">
     <g id="line2d_9">
      <path d="M 398.002273 301.717812 
L 398.002273 48.331875 
" clip-path="url(#pf7628f195c)" style="fill: none; stroke-dasharray: 2.96,1.28; stroke-dashoffset: 0; stroke: #b0b0b0; stroke-width: 0.8"/>
     </g>
     <g id="line2d_10">
      <g>
       <use xlink:href="#m35f16bfc1d" x="398.002273" y="301.717812" style="stroke: #000000; stroke-width: 0.8"/>
      </g>
     </g>
    </g>
    <g id="xtick_6">
     <g id="line2d_11">
      <path d="M 481.574934 301.717812 
L 481.574934 48.331875 
" clip-path="url(#pf7628f195c)" style="fill: none; stroke-dasharray: 2.96,1.28; stroke-dashoffset: 0; stroke: #b0b0b0; stroke-width: 0.8"/>
     </g>
     <g id="line2d_12">
      <g>
       <use xlink:href="#m35f16bfc1d" x="481.574934" y="301.717812" style="stroke: #000000; stroke-width: 0.8"/>
      </g>
     </g>
    </g>
    <g id="xtick_7">
     <g id="line2d_13">
      <path d="M 562.451703 301.717812 
L 562.451703 48.331875 
" clip-path="url(#pf7628f195c)" style="fill: none; stroke-dasharray: 2.96,1.28; stroke-dashoffset: 0; stroke: #b0b0b0; stroke-width: 0.8"/>
     </g>
     <g id="line2d_14">
      <g>
       <use xlink:href="#m35f16bfc1d" x="562.451703" y="301.717812" style="stroke: #000000; stroke-width: 0.8"/>
      </g>
     </g>
    </g>
    <g id="xtick_8">
     <g id="line2d_15">
      <path d="M 646.024364 301.717812 
L 646.024364 48.331875 
" clip-path="url(#pf7628f195c)" style="fill: none; stroke-dasharray: 2.96,1.28; stroke-dashoffset: 0; stroke: #b0b0b0; stroke-width: 0.8"/>
     </g>
     <g id="line2d_16">
      <g>
       <use xlink:href="#m35f16bfc1d" x="646.024364" y="301.717812" style="stroke: #000000; stroke-width: 0.8"/>
      </g>
     </g>
    </g>
    <g id="xtick_9">
     <g id="line2d_17">
      <path d="M 729.597025 301.717812 
L 729.597025 48.331875 
" clip-path="url(#pf7628f195c)" style="fill: none; stroke-dasharray: 2.96,1.28; stroke-dashoffset: 0; stroke: #b0b0b0; stroke-width: 0.8"/>
     </g>
     <g id="line2d_18">
      <g>
       <use xlink:href="#m35f16bfc1d" x="729.597025" y="301.717812" style="stroke: #000000; stroke-width: 0.8"/>
      </g>
     </g>
    </g>
    <g id="xtick_10">
     <g id="line2d_19">
      <path d="M 810.473794 301.717812 
L 810.473794 48.331875 
" clip-path="url(#pf7628f195c)" style="fill: none; stroke-dasharray: 2.96,1.28; stroke-dashoffset: 0; stroke: #b0b0b0; stroke-width: 0.8"/>
     </g>
     <g id="line2d_20">
      <g>
       <use xlink:href="#m35f16bfc1d" x="810.473794" y="301.717812" style="stroke: #000000; stroke-width: 0.8"/>
      </g>
     </g>
    </g>
    <g id="xtick_11">
     <g id="line2d_21">
      <path d="M 894.046455 301.717812 
L 894.046455 48.331875 
" clip-path="url(#pf7628f195c)" style="fill: none; stroke-dasharray: 2.96,1.28; stroke-dashoffset: 0; stroke: #b0b0b0; stroke-width: 0.8"/>
     </g>
     <g id="line2d_22">
      <g>
       <use xlink:href="#m35f16bfc1d" x="894.046455" y="301.717812" style="stroke: #000000; stroke-width: 0.8"/>
      </g>
     </g>
    </g>
    <g id="xtick_12">
     <g id="line2d_23">
      <path d="M 974.923224 301.717812 
L 974.923224 48.331875 
" clip-path="url(#pf7628f195c)" style="fill: none; stroke-dasharray: 2.96,1.28; stroke-dashoffset: 0; stroke: #b0b0b0; stroke-width: 0.8"/>
     </g>
     <g id="line2d_24">
      <g>
       <use xlink:href="#m35f16bfc1d" x="974.923224" y="301.717812" style="stroke: #000000; stroke-width: 0.8"/>
      </g>
     </g>
    </g>
   </g>
   <g id="matplotlib.axis_2">
    <g id="ytick_1">
     <g id="line2d_25">
      <path d="M 36.8875 289.42935 
L 982.876106 289.42935 
" clip-path="url(#pf7628f195c)" style="fill: none; stroke-dasharray: 2.96,1.28; stroke-dashoffset: 0; stroke: #b0b0b0; stroke-width: 0.8"/>
     </g>
     <g id="line2d_26">
      <defs>
       <path id="meaf3bd8e57" d="M 0 0 
L -3.5 0 
" style="stroke: #000000; stroke-width: 0.8"/>
      </defs>
      <g>
       <use xlink:href="#meaf3bd8e57" x="36.8875" y="289.42935" style="stroke: #000000; stroke-width: 0.8"/>
      </g>
     </g>
     <g id="text_1">
      <!-- 100 -->
      <g transform="translate(10.8 293.228569)scale(0.1 -0.1)">
       <defs>
        <path id="DejaVuSans-31" d="M 794 531 
L 1825 531 
L 1825 4091 
L 703 3866 
L 703 4441 
L 1819 4666 
L 2450 4666 
L 2450 531 
L 3481 531 
L 3481 0 
L 794 0 
L 794 531 
z
" transform="scale(0.015625)"/>
        <path id="DejaVuSans-30" d="M 2034 4250 
Q 1547 4250 1301 3770 
Q 1056 3291 1056 2328 
Q 1056 1369 1301 889 
Q 1547 409 2034 409 
Q 2525 409 2770 889 
Q 3016 1369 3016 2328 
Q 3016 3291 2770 3770 
Q 2525 4250 2034 4250 
z
M 2034 4750 
Q 2819 4750 3233 4129 
Q 3647 3509 3647 2328 
Q 3647 1150 3233 529 
Q 2819 -91 2034 -91 
Q 1250 -91 836 529 
Q 422 1150 422 2328 
Q 422 3509 836 4129 
Q 1250 4750 2034 4750 
z
" transform="scale(0.015625)"/>
       </defs>
       <use xlink:href="#DejaVuSans-31"/>
       <use xlink:href="#DejaVuSans-30" x="63.623047"/>
       <use xlink:href="#DejaVuSans-30" x="127.246094"/>
      </g>
     </g>
    </g>
    <g id="ytick_2">
     <g id="line2d_27">
      <path d="M 36.8875 258.592556 
L 982.876106 258.592556 
" clip-path="url(#pf7628f195c)" style="fill: none; stroke-dasharray: 2.96,1.28; stroke-dashoffset: 0; stroke: #b0b0b0; stroke-width: 0.8"/>
     </g>
     <g id="line2d_28">
      <g>
       <use xlink:href="#meaf3bd8e57" x="36.8875" y="258.592556" style="stroke: #000000; stroke-width: 0.8"/>
      </g>
     </g>
     <g id="text_2">
      <!-- 110 -->
      <g transform="translate(10.8 262.391775)scale(0.1 -0.1)">
       <use xlink:href="#DejaVuSans-31"/>
       <use xlink:href="#DejaVuSans-31" x="63.623047"/>
       <use xlink:href="#DejaVuSans-30" x="127.246094"/>
      </g>
     </g>
    </g>
    <g id="ytick_3">
     <g id="line2d_29">
      <path d="M 36.8875 227.755762 
L 982.876106 227.755762 
" clip-path="url(#pf7628f195c)" style="fill: none; stroke-dasharray: 2.96,1.28; stroke-dashoffset: 0; stroke: #b0b0b0; stroke-width: 0.8"/>
     </g>
     <g id="line2d_30">
      <g>
       <use xlink:href="#meaf3bd8e57" x="36.8875" y="227.755762" style="stroke: #000000; stroke-width: 0.8"/>
      </g>
     </g>
     <g id="text_3">
      <!-- 120 -->
      <g transform="translate(10.8 231.55498)scale(0.1 -0.1)">
       <defs>
        <path id="DejaVuSans-32" d="M 1228 531 
L 3431 531 
L 3431 0 
L 469 0 
L 469 531 
Q 828 903 1448 1529 
Q 2069 2156 2228 2338 
Q 2531 2678 2651 2914 
Q 2772 3150 2772 3378 
Q 2772 3750 2511 3984 
Q 2250 4219 1831 4219 
Q 1534 4219 1204 4116 
Q 875 4013 500 3803 
L 500 4441 
Q 881 4594 1212 4672 
Q 1544 4750 1819 4750 
Q 2544 4750 2975 4387 
Q 3406 4025 3406 3419 
Q 3406 3131 3298 2873 
Q 3191 2616 2906 2266 
Q 2828 2175 2409 1742 
Q 1991 1309 1228 531 
z
" transform="scale(0.015625)"/>
       </defs>
       <use xlink:href="#DejaVuSans-31"/>
       <use xlink:href="#DejaVuSans-32" x="63.623047"/>
       <use xlink:href="#DejaVuSans-30" x="127.246094"/>
      </g>
     </g>
    </g>
    <g id="ytick_4">
     <g id="line2d_31">
      <path d="M 36.8875 196.918968 
L 982.876106 196.918968 
" clip-path="url(#pf7628f195c)" style="fill: none; stroke-dasharray: 2.96,1.28; stroke-dashoffset: 0; stroke: #b0b0b0; stroke-width: 0.8"/>
     </g>
     <g id="line2d_32">
      <g>
       <use xlink:href="#meaf3bd8e57" x="36.8875" y="196.918968" style="stroke: #000000; stroke-width: 0.8"/>
      </g>
     </g>
     <g id="text_4">
      <!-- 130 -->
      <g transform="translate(10.8 200.718186)scale(0.1 -0.1)">
       <defs>
        <path id="DejaVuSans-33" d="M 2597 2516 
Q 3050 2419 3304 2112 
Q 3559 1806 3559 1356 
Q 3559 666 3084 287 
Q 2609 -91 1734 -91 
Q 1441 -91 1130 -33 
Q 819 25 488 141 
L 488 750 
Q 750 597 1062 519 
Q 1375 441 1716 441 
Q 2309 441 2620 675 
Q 2931 909 2931 1356 
Q 2931 1769 2642 2001 
Q 2353 2234 1838 2234 
L 1294 2234 
L 1294 2753 
L 1863 2753 
Q 2328 2753 2575 2939 
Q 2822 3125 2822 3475 
Q 2822 3834 2567 4026 
Q 2313 4219 1838 4219 
Q 1578 4219 1281 4162 
Q 984 4106 628 3988 
L 628 4550 
Q 988 4650 1302 4700 
Q 1616 4750 1894 4750 
Q 2613 4750 3031 4423 
Q 3450 4097 3450 3541 
Q 3450 3153 3228 2886 
Q 3006 2619 2597 2516 
z
" transform="scale(0.015625)"/>
       </defs>
       <use xlink:href="#DejaVuSans-31"/>
       <use xlink:href="#DejaVuSans-33" x="63.623047"/>
       <use xlink:href="#DejaVuSans-30" x="127.246094"/>
      </g>
     </g>
    </g>
    <g id="ytick_5">
     <g id="line2d_33">
      <path d="M 36.8875 166.082173 
L 982.876106 166.082173 
" clip-path="url(#pf7628f195c)" style="fill: none; stroke-dasharray: 2.96,1.28; stroke-dashoffset: 0; stroke: #b0b0b0; stroke-width: 0.8"/>
     </g>
     <g id="line2d_34">
      <g>
       <use xlink:href="#meaf3bd8e57" x="36.8875" y="166.082173" style="stroke: #000000; stroke-width: 0.8"/>
      </g>
     </g>
     <g id="text_5">
      <!-- 140 -->
      <g transform="translate(10.8 169.881392)scale(0.1 -0.1)">
       <defs>
        <path id="DejaVuSans-34" d="M 2419 4116 
L 825 1625 
L 2419 1625 
L 2419 4116 
z
M 2253 4666 
L 3047 4666 
L 3047 1625 
L 3713 1625 
L 3713 1100 
L 3047 1100 
L 3047 0 
L 2419 0 
L 2419 1100 
L 313 1100 
L 313 1709 
L 2253 4666 
z
" transform="scale(0.015625)"/>
       </defs>
       <use xlink:href="#DejaVuSans-31"/>
       <use xlink:href="#DejaVuSans-34" x="63.623047"/>
       <use xlink:href="#DejaVuSans-30" x="127.246094"/>
      </g>
     </g>
    </g>
    <g id="ytick_6">
     <g id="line2d_35">
      <path d="M 36.8875 135.245379 
L 982.876106 135.245379 
" clip-path="url(#pf7628f195c)" style="fill: none; stroke-dasharray: 2.96,1.28; stroke-dashoffset: 0; stroke: #b0b0b0; stroke-width: 0.8"/>
     </g>
     <g id="line2d_36">
      <g>
       <use xlink:href="#meaf3bd8e57" x="36.8875" y="135.245379" style="stroke: #000000; stroke-width: 0.8"/>
      </g>
     </g>
     <g id="text_6">
      <!-- 150 -->
      <g transform="translate(10.8 139.044598)scale(0.1 -0.1)">
       <defs>
        <path id="DejaVuSans-35" d="M 691 4666 
L 3169 4666 
L 3169 4134 
L 1269 4134 
L 1269 2991 
Q 1406 3038 1543 3061 
Q 1681 3084 1819 3084 
Q 2600 3084 3056 2656 
Q 3513 2228 3513 1497 
Q 3513 744 3044 326 
Q 2575 -91 1722 -91 
Q 1428 -91 1123 -41 
Q 819 9 494 109 
L 494 744 
Q 775 591 1075 516 
Q 1375 441 1709 441 
Q 2250 441 2565 725 
Q 2881 1009 2881 1497 
Q 2881 1984 2565 2268 
Q 2250 2553 1709 2553 
Q 1456 2553 1204 2497 
Q 953 2441 691 2322 
L 691 4666 
z
" transform="scale(0.015625)"/>
       </defs>
       <use xlink:href="#DejaVuSans-31"/>
       <use xlink:href="#DejaVuSans-35" x="63.623047"/>
       <use xlink:href="#DejaVuSans-30" x="127.246094"/>
      </g>
     </g>
    </g>
    <g id="ytick_7">
     <g id="line2d_37">
      <path d="M 36.8875 104.408585 
L 982.876106 104.408585 
" clip-path="url(#pf7628f195c)" style="fill: none; stroke-dasharray: 2.96,1.28; stroke-dashoffset: 0; stroke: #b0b0b0; stroke-width: 0.8"/>
     </g>
     <g id="line2d_38">
      <g>
       <use xlink:href="#meaf3bd8e57" x="36.8875" y="104.408585" style="stroke: #000000; stroke-width: 0.8"/>
      </g>
     </g>
     <g id="text_7">
      <!-- 160 -->
      <g transform="translate(10.8 108.207804)scale(0.1 -0.1)">
       <defs>
        <path id="DejaVuSans-36" d="M 2113 2584 
Q 1688 2584 1439 2293 
Q 1191 2003 1191 1497 
Q 1191 994 1439 701 
Q 1688 409 2113 409 
Q 2538 409 2786 701 
Q 3034 994 3034 1497 
Q 3034 2003 2786 2293 
Q 2538 2584 2113 2584 
z
M 3366 4563 
L 3366 3988 
Q 3128 4100 2886 4159 
Q 2644 4219 2406 4219 
Q 1781 4219 1451 3797 
Q 1122 3375 1075 2522 
Q 1259 2794 1537 2939 
Q 1816 3084 2150 3084 
Q 2853 3084 3261 2657 
Q 3669 2231 3669 1497 
Q 3669 778 3244 343 
Q 2819 -91 2113 -91 
Q 1303 -91 875 529 
Q 447 1150 447 2328 
Q 447 3434 972 4092 
Q 1497 4750 2381 4750 
Q 2619 4750 2861 4703 
Q 3103 4656 3366 4563 
z
" transform="scale(0.015625)"/>
       </defs>
       <use xlink:href="#DejaVuSans-31"/>
       <use xlink:href="#DejaVuSans-36" x="63.623047"/>
       <use xlink:href="#DejaVuSans-30" x="127.246094"/>
      </g>
     </g>
    </g>
    <g id="ytick_8">
     <g id="line2d_39">
      <path d="M 36.8875 73.571791 
L 982.876106 73.571791 
" clip-path="url(#pf7628f195c)" style="fill: none; stroke-dasharray: 2.96,1.28; stroke-dashoffset: 0; stroke: #b0b0b0; stroke-width: 0.8"/>
     </g>
     <g id="line2d_40">
      <g>
       <use xlink:href="#meaf3bd8e57" x="36.8875" y="73.571791" style="stroke: #000000; stroke-width: 0.8"/>
      </g>
     </g>
     <g id="text_8">
      <!-- 170 -->
      <g transform="translate(10.8 77.37101)scale(0.1 -0.1)">
       <defs>
        <path id="DejaVuSans-37" d="M 525 4666 
L 3525 4666 
L 3525 4397 
L 1831 0 
L 1172 0 
L 2766 4134 
L 525 4134 
L 525 4666 
z
" transform="scale(0.015625)"/>
       </defs>
       <use xlink:href="#DejaVuSans-31"/>
       <use xlink:href="#DejaVuSans-37" x="63.623047"/>
       <use xlink:href="#DejaVuSans-30" x="127.246094"/>
      </g>
     </g>
    </g>
   </g>
   <g id="line2d_41">
    <path d="M 79.886982 180.575467 
L 82.582874 179.033627 
L 85.278767 170.399325 
L 87.974659 170.245141 
L 90.670551 170.245141 
L 98.758228 166.236357 
L 101.45412 177.029235 
L 106.845905 147.425913 
L 109.541797 147.734281 
L 117.629474 151.280512 
L 120.325366 165.927989 
L 123.021259 161.148286 
L 125.717151 156.060215 
L 128.413043 166.853093 
L 136.50072 184.738434 
L 139.196613 179.496179 
L 144.588397 183.967514 
L 147.284289 171.941164 
L 155.371966 169.320037 
L 158.067859 149.121937 
L 160.763751 133.70354 
L 163.459643 123.064846 
L 166.155535 124.760869 
L 174.243212 123.064846 
L 176.939105 124.760869 
L 179.634997 117.668407 
L 182.330889 106.567161 
L 185.026782 110.113392 
L 193.114458 126.765261 
L 195.810351 137.403955 
L 198.506243 126.919445 
L 201.202135 151.743064 
L 203.898028 159.452263 
L 211.985704 165.927989 
L 214.681597 165.927989 
L 217.377489 157.602055 
L 220.073381 183.196594 
L 222.769274 162.998494 
L 230.856951 156.368583 
L 236.248735 131.853332 
L 238.944627 127.227813 
L 241.64052 141.10437 
L 249.728197 125.840157 
L 252.424089 125.223421 
L 255.119981 126.611077 
L 257.815873 125.223421 
L 260.511766 112.73452 
L 268.599443 115.972383 
L 271.295335 142.800394 
L 273.991227 133.549356 
L 276.68712 131.236596 
L 287.470689 130.465676 
L 290.166581 130.157308 
L 292.862473 131.853332 
L 295.558366 113.351255 
L 298.254258 113.197071 
L 306.341935 100.091434 
L 309.037827 107.800633 
L 311.733719 106.875529 
L 314.429612 96.545203 
L 317.125504 84.210485 
L 325.213181 72.800871 
L 327.909073 77.888942 
L 330.604965 66.94188 
L 333.300858 71.721583 
L 335.99675 59.849418 
L 344.084427 61.545441 
L 346.780319 74.651079 
L 349.476211 80.972622 
L 362.955673 78.96823 
L 365.651565 76.038735 
L 368.347458 73.571791 
L 371.04335 73.725975 
L 373.739242 83.131197 
L 381.826919 107.800633 
L 384.522811 102.866745 
L 387.218704 104.254401 
L 389.914596 95.928467 
L 392.610488 102.404194 
L 400.698165 103.329297 
L 406.08995 114.738911 
L 408.785842 113.659623 
L 411.481734 127.690365 
L 419.569411 140.796002 
L 422.265303 163.461046 
L 424.961196 157.756239 
L 427.657088 173.483004 
L 430.35298 178.108523 
L 438.440657 172.712084 
L 441.136549 154.364192 
L 443.832442 158.218791 
L 446.528334 165.773806 
L 449.224226 146.192441 
L 457.311903 202.623775 
L 460.007795 208.020213 
L 462.703688 224.517898 
L 465.39958 209.562053 
L 468.095472 212.491549 
L 476.183149 215.729412 
L 478.879042 208.945317 
L 481.574934 207.86603 
L 484.270826 203.703062 
L 486.966718 206.632558 
L 495.054395 213.570836 
L 497.750288 219.429827 
L 500.44618 216.500332 
L 503.142072 221.588403 
L 505.837964 229.297601 
L 513.925641 246.257838 
L 516.621534 247.028758 
L 519.317426 246.103654 
L 522.013318 264.759915 
L 524.709211 262.909707 
L 532.796887 275.244425 
L 535.49278 263.063891 
L 538.188672 280.640864 
L 540.884564 274.010953 
L 543.580457 266.14757 
L 551.668133 254.737957 
L 554.364026 254.737957 
L 557.059918 260.134396 
L 559.75581 264.143179 
L 562.451703 259.671844 
L 570.53938 262.601339 
L 573.235272 262.909707 
L 575.931164 270.156354 
L 578.627056 259.51766 
L 581.322949 261.830419 
L 589.410626 261.676235 
L 592.106518 279.561576 
L 594.80241 272.314929 
L 597.498302 284.341279 
L 600.194195 289.737718 
L 608.281872 279.253208 
L 610.977764 277.557184 
L 613.673656 277.248816 
L 616.369549 275.861161 
L 619.065441 276.940448 
L 627.153118 272.006561 
L 629.84901 276.63208 
L 632.544902 275.552793 
L 635.240795 272.160745 
L 637.936687 265.376651 
L 646.024364 265.685019 
L 648.720256 266.455938 
L 651.416148 270.927274 
L 654.112041 266.610122 
L 656.807933 255.817244 
L 664.89561 249.03315 
L 670.287394 240.090479 
L 672.983287 240.707215 
L 675.679179 237.315168 
L 686.462748 237.160984 
L 689.15864 239.936295 
L 691.854533 237.315168 
L 694.550425 240.090479 
L 702.638102 250.266621 
L 705.333994 230.222705 
L 710.725779 221.434219 
L 713.421671 218.658907 
L 721.509348 215.883596 
L 724.20524 220.817483 
L 729.597025 221.125851 
L 732.292917 221.588403 
L 740.380594 220.046563 
L 743.076486 221.588403 
L 745.772379 215.729412 
L 748.468271 220.509115 
L 751.164163 215.575228 
L 759.25184 207.711846 
L 761.947732 210.795525 
L 764.643625 205.861638 
L 767.339517 210.332973 
L 770.035409 211.874813 
L 778.123086 208.945317 
L 780.818978 205.244902 
L 783.514871 200.773567 
L 786.210763 192.756 
L 788.906655 203.394694 
L 796.994332 219.275643 
L 799.690225 214.650124 
L 802.386117 220.971667 
L 805.082009 211.874813 
L 807.777901 203.857246 
L 815.865578 210.024605 
L 818.561471 197.844071 
L 823.953255 187.976297 
L 826.649147 181.963122 
L 834.736824 177.645971 
L 837.432717 194.29784 
L 840.128609 195.06876 
L 842.824501 200.002647 
L 845.520393 189.672321 
L 853.60807 186.434458 
L 856.303963 191.368345 
L 858.999855 192.910184 
L 861.695747 188.901401 
L 864.39164 195.83968 
L 872.479316 193.989472 
L 875.175209 194.606208 
L 880.566993 276.169529 
L 883.262886 286.499855 
L 891.350562 290.20027 
L 896.742347 260.905315 
L 899.438239 256.742348 
L 902.134132 253.350301 
L 910.221809 245.17855 
L 915.613593 247.028758 
L 918.309485 250.266621 
L 921.005378 247.182942 
L 929.093055 247.645494 
L 931.788947 261.676235 
L 934.484839 266.455938 
L 937.180731 272.006561 
L 939.876624 255.200509 
L 939.876624 255.200509 
" clip-path="url(#pf7628f195c)" style="fill: none; stroke: #1f77b4; stroke-width: 1.5; stroke-linecap: square"/>
   </g>
   <g id="line2d_42">
    <path d="M 90.670551 174.09974 
L 98.758228 171.231918 
L 101.45412 170.83104 
L 104.150013 169.165853 
L 109.541797 160.099835 
L 117.629474 157.108666 
L 120.325366 154.888417 
L 123.021259 154.703396 
L 125.717151 156.430257 
L 128.413043 160.254019 
L 136.50072 166.945604 
L 139.196613 169.659242 
L 144.588397 174.223087 
L 147.284289 177.399277 
L 155.371966 177.892666 
L 158.067859 170.769366 
L 160.763751 161.610838 
L 163.459643 149.430305 
L 166.155535 139.994246 
L 174.243212 130.743207 
L 176.939105 125.870994 
L 182.330889 119.36443 
L 185.026782 116.434935 
L 193.114458 117.175018 
L 195.810351 119.703635 
L 198.506243 121.553843 
L 201.202135 130.589023 
L 203.898028 140.456798 
L 211.985704 148.289343 
L 214.681597 153.99415 
L 220.073381 166.421378 
L 222.769274 167.130624 
L 230.856951 165.218743 
L 236.248735 158.403812 
L 238.944627 152.328963 
L 241.64052 143.910518 
L 249.728197 136.478851 
L 252.424089 130.249819 
L 255.119981 129.201368 
L 257.815873 128.800489 
L 260.511766 123.126519 
L 268.599443 121.152964 
L 271.295335 124.668359 
L 273.991227 126.056015 
L 276.68712 127.25865 
L 287.470689 130.804881 
L 290.166581 133.641866 
L 292.862473 131.452454 
L 295.558366 127.412834 
L 298.254258 123.804929 
L 306.341935 117.73008 
L 309.037827 113.258745 
L 311.733719 108.263184 
L 314.429612 104.901974 
L 317.125504 99.104657 
L 325.213181 93.646544 
L 327.909073 87.664206 
L 330.604965 79.677476 
L 335.99675 69.840539 
L 346.780319 66.94188 
L 349.476211 69.748029 
L 362.955673 71.197358 
L 365.651565 74.435221 
L 368.347458 76.840491 
L 371.04335 76.65547 
L 373.739242 77.087186 
L 381.826919 82.853666 
L 384.522811 88.219268 
L 387.218704 94.35579 
L 389.914596 98.796289 
L 392.610488 102.650888 
L 400.698165 101.756621 
L 406.08995 104.131054 
L 408.785842 106.012098 
L 411.481734 112.364478 
L 419.569411 120.04284 
L 422.265303 132.06919 
L 424.961196 140.672655 
L 427.657088 152.637331 
L 430.35298 162.720963 
L 438.440657 169.104179 
L 441.136549 167.284808 
L 443.832442 167.377319 
L 446.528334 165.835479 
L 449.224226 159.452263 
L 457.311903 165.434601 
L 460.007795 176.165805 
L 462.703688 189.425627 
L 465.39958 198.183276 
L 468.095472 211.443098 
L 476.183149 214.064225 
L 478.879042 214.249246 
L 481.574934 210.918872 
L 486.966718 208.575276 
L 495.054395 208.143561 
L 497.750288 210.240463 
L 500.44618 211.967323 
L 503.142072 215.544391 
L 505.837964 220.0774 
L 513.925641 226.6148 
L 516.621534 232.134587 
L 519.317426 238.055251 
L 522.013318 246.689553 
L 524.709211 253.411974 
L 532.796887 259.209292 
L 535.49278 262.416318 
L 538.188672 269.32376 
L 540.884564 271.173968 
L 543.580457 271.821541 
L 551.668133 267.720247 
L 554.364026 266.05506 
L 557.059918 261.953766 
L 559.75581 259.980212 
L 562.451703 258.685066 
L 570.53938 260.257743 
L 573.235272 261.892093 
L 575.931164 263.896484 
L 578.627056 262.971381 
L 581.322949 263.403096 
L 589.410626 263.218075 
L 592.106518 266.548449 
L 594.80241 266.980164 
L 597.498302 271.944888 
L 600.194195 277.526347 
L 608.281872 281.041742 
L 610.977764 280.640864 
L 613.673656 281.627641 
L 616.369549 279.931617 
L 619.065441 277.372164 
L 627.153118 275.922834 
L 629.84901 275.737813 
L 632.544902 275.398609 
L 635.240795 274.658526 
L 637.936687 272.345766 
L 646.024364 271.081458 
L 648.720256 269.046229 
L 651.416148 268.121125 
L 654.112041 267.011001 
L 656.807933 265.099119 
L 664.89561 261.768746 
L 670.287394 256.495654 
L 675.679179 244.592651 
L 686.462748 240.861399 
L 689.15864 239.042028 
L 691.854533 238.486966 
L 694.550425 238.363619 
L 702.638102 240.95391 
L 705.333994 239.566254 
L 708.029887 236.729269 
L 710.725779 233.553079 
L 713.421671 229.266765 
L 721.509348 222.39016 
L 724.20524 220.509115 
L 729.597025 219.584011 
L 732.292917 219.614848 
L 740.380594 219.892379 
L 743.076486 221.033341 
L 745.772379 220.015726 
L 748.468271 219.892379 
L 751.164163 218.689744 
L 759.25184 216.222801 
L 761.947732 214.064225 
L 767.339517 210.055442 
L 770.035409 209.315359 
L 778.123086 209.562053 
L 783.514871 207.434314 
L 786.210763 203.91892 
L 788.906655 202.222896 
L 796.994332 204.288961 
L 799.690225 206.170006 
L 802.386117 210.209626 
L 805.082009 214.033388 
L 807.777901 214.125899 
L 815.865578 212.275691 
L 823.953255 202.315407 
L 826.649147 196.333069 
L 834.736824 191.090814 
L 837.432717 187.94546 
L 840.128609 187.390398 
L 842.824501 189.795668 
L 845.520393 191.337508 
L 853.60807 193.095205 
L 856.303963 192.509306 
L 858.999855 192.077591 
L 861.695747 189.857342 
L 864.39164 191.090814 
L 872.479316 192.601816 
L 875.175209 193.249389 
L 880.566993 209.901258 
L 883.262886 229.420949 
L 891.350562 248.293067 
L 894.046455 264.544057 
L 896.742347 277.803879 
L 899.438239 273.918443 
L 902.134132 267.288532 
L 910.221809 258.284188 
L 915.613593 252.641055 
L 918.309485 250.513316 
L 921.005378 248.601435 
L 929.093055 247.460473 
L 931.788947 250.76001 
L 934.484839 254.645446 
L 937.180731 258.993434 
L 939.876624 260.596948 
L 939.876624 260.596948 
" clip-path="url(#pf7628f195c)" style="fill: none; stroke: #ff7f0e; stroke-width: 1.5; stroke-linecap: square"/>
   </g>
   <g id="patch_3">
    <path d="M 36.8875 301.717813 
L 36.8875 48.331875 
" style="fill: none; stroke: #000000; stroke-width: 0.8; stroke-linejoin: miter; stroke-linecap: square"/>
   </g>
   <g id="patch_4">
    <path d="M 982.876106 301.717813 
L 982.876106 48.331875 
" style="fill: none; stroke: #000000; stroke-width: 0.8; stroke-linejoin: miter; stroke-linecap: square"/>
   </g>
   <g id="patch_5">
    <path d="M 36.8875 301.717812 
L 982.876106 301.717812 
" style="fill: none; stroke: #000000; stroke-width: 0.8; stroke-linejoin: miter; stroke-linecap: square"/>
   </g>
   <g id="patch_6">
    <path d="M 36.8875 48.331875 
L 982.876106 48.331875 
" style="fill: none; stroke: #000000; stroke-width: 0.8; stroke-linejoin: miter; stroke-linecap: square"/>
   </g>
   <g id="text_9">
    <!-- Closing Price -->
    <g transform="translate(471.405865 42.331875)scale(0.12 -0.12)">
     <defs>
      <path id="DejaVuSans-43" d="M 4122 4306 
L 4122 3641 
Q 3803 3938 3442 4084 
Q 3081 4231 2675 4231 
Q 1875 4231 1450 3742 
Q 1025 3253 1025 2328 
Q 1025 1406 1450 917 
Q 1875 428 2675 428 
Q 3081 428 3442 575 
Q 3803 722 4122 1019 
L 4122 359 
Q 3791 134 3420 21 
Q 3050 -91 2638 -91 
Q 1578 -91 968 557 
Q 359 1206 359 2328 
Q 359 3453 968 4101 
Q 1578 4750 2638 4750 
Q 3056 4750 3426 4639 
Q 3797 4528 4122 4306 
z
" transform="scale(0.015625)"/>
      <path id="DejaVuSans-6c" d="M 603 4863 
L 1178 4863 
L 1178 0 
L 603 0 
L 603 4863 
z
" transform="scale(0.015625)"/>
      <path id="DejaVuSans-6f" d="M 1959 3097 
Q 1497 3097 1228 2736 
Q 959 2375 959 1747 
Q 959 1119 1226 758 
Q 1494 397 1959 397 
Q 2419 397 2687 759 
Q 2956 1122 2956 1747 
Q 2956 2369 2687 2733 
Q 2419 3097 1959 3097 
z
M 1959 3584 
Q 2709 3584 3137 3096 
Q 3566 2609 3566 1747 
Q 3566 888 3137 398 
Q 2709 -91 1959 -91 
Q 1206 -91 779 398 
Q 353 888 353 1747 
Q 353 2609 779 3096 
Q 1206 3584 1959 3584 
z
" transform="scale(0.015625)"/>
      <path id="DejaVuSans-73" d="M 2834 3397 
L 2834 2853 
Q 2591 2978 2328 3040 
Q 2066 3103 1784 3103 
Q 1356 3103 1142 2972 
Q 928 2841 928 2578 
Q 928 2378 1081 2264 
Q 1234 2150 1697 2047 
L 1894 2003 
Q 2506 1872 2764 1633 
Q 3022 1394 3022 966 
Q 3022 478 2636 193 
Q 2250 -91 1575 -91 
Q 1294 -91 989 -36 
Q 684 19 347 128 
L 347 722 
Q 666 556 975 473 
Q 1284 391 1588 391 
Q 1994 391 2212 530 
Q 2431 669 2431 922 
Q 2431 1156 2273 1281 
Q 2116 1406 1581 1522 
L 1381 1569 
Q 847 1681 609 1914 
Q 372 2147 372 2553 
Q 372 3047 722 3315 
Q 1072 3584 1716 3584 
Q 2034 3584 2315 3537 
Q 2597 3491 2834 3397 
z
" transform="scale(0.015625)"/>
      <path id="DejaVuSans-69" d="M 603 3500 
L 1178 3500 
L 1178 0 
L 603 0 
L 603 3500 
z
M 603 4863 
L 1178 4863 
L 1178 4134 
L 603 4134 
L 603 4863 
z
" transform="scale(0.015625)"/>
      <path id="DejaVuSans-6e" d="M 3513 2113 
L 3513 0 
L 2938 0 
L 2938 2094 
Q 2938 2591 2744 2837 
Q 2550 3084 2163 3084 
Q 1697 3084 1428 2787 
Q 1159 2491 1159 1978 
L 1159 0 
L 581 0 
L 581 3500 
L 1159 3500 
L 1159 2956 
Q 1366 3272 1645 3428 
Q 1925 3584 2291 3584 
Q 2894 3584 3203 3211 
Q 3513 2838 3513 2113 
z
" transform="scale(0.015625)"/>
      <path id="DejaVuSans-67" d="M 2906 1791 
Q 2906 2416 2648 2759 
Q 2391 3103 1925 3103 
Q 1463 3103 1205 2759 
Q 947 2416 947 1791 
Q 947 1169 1205 825 
Q 1463 481 1925 481 
Q 2391 481 2648 825 
Q 2906 1169 2906 1791 
z
M 3481 434 
Q 3481 -459 3084 -895 
Q 2688 -1331 1869 -1331 
Q 1566 -1331 1297 -1286 
Q 1028 -1241 775 -1147 
L 775 -588 
Q 1028 -725 1275 -790 
Q 1522 -856 1778 -856 
Q 2344 -856 2625 -561 
Q 2906 -266 2906 331 
L 2906 616 
Q 2728 306 2450 153 
Q 2172 0 1784 0 
Q 1141 0 747 490 
Q 353 981 353 1791 
Q 353 2603 747 3093 
Q 1141 3584 1784 3584 
Q 2172 3584 2450 3431 
Q 2728 3278 2906 2969 
L 2906 3500 
L 3481 3500 
L 3481 434 
z
" transform="scale(0.015625)"/>
      <path id="DejaVuSans-20" transform="scale(0.015625)"/>
      <path id="DejaVuSans-50" d="M 1259 4147 
L 1259 2394 
L 2053 2394 
Q 2494 2394 2734 2622 
Q 2975 2850 2975 3272 
Q 2975 3691 2734 3919 
Q 2494 4147 2053 4147 
L 1259 4147 
z
M 628 4666 
L 2053 4666 
Q 2838 4666 3239 4311 
Q 3641 3956 3641 3272 
Q 3641 2581 3239 2228 
Q 2838 1875 2053 1875 
L 1259 1875 
L 1259 0 
L 628 0 
L 628 4666 
z
" transform="scale(0.015625)"/>
      <path id="DejaVuSans-72" d="M 2631 2963 
Q 2534 3019 2420 3045 
Q 2306 3072 2169 3072 
Q 1681 3072 1420 2755 
Q 1159 2438 1159 1844 
L 1159 0 
L 581 0 
L 581 3500 
L 1159 3500 
L 1159 2956 
Q 1341 3275 1631 3429 
Q 1922 3584 2338 3584 
Q 2397 3584 2469 3576 
Q 2541 3569 2628 3553 
L 2631 2963 
z
" transform="scale(0.015625)"/>
      <path id="DejaVuSans-63" d="M 3122 3366 
L 3122 2828 
Q 2878 2963 2633 3030 
Q 2388 3097 2138 3097 
Q 1578 3097 1268 2742 
Q 959 2388 959 1747 
Q 959 1106 1268 751 
Q 1578 397 2138 397 
Q 2388 397 2633 464 
Q 2878 531 3122 666 
L 3122 134 
Q 2881 22 2623 -34 
Q 2366 -91 2075 -91 
Q 1284 -91 818 406 
Q 353 903 353 1747 
Q 353 2603 823 3093 
Q 1294 3584 2113 3584 
Q 2378 3584 2631 3529 
Q 2884 3475 3122 3366 
z
" transform="scale(0.015625)"/>
      <path id="DejaVuSans-65" d="M 3597 1894 
L 3597 1613 
L 953 1613 
Q 991 1019 1311 708 
Q 1631 397 2203 397 
Q 2534 397 2845 478 
Q 3156 559 3463 722 
L 3463 178 
Q 3153 47 2828 -22 
Q 2503 -91 2169 -91 
Q 1331 -91 842 396 
Q 353 884 353 1716 
Q 353 2575 817 3079 
Q 1281 3584 2069 3584 
Q 2775 3584 3186 3129 
Q 3597 2675 3597 1894 
z
M 3022 2063 
Q 3016 2534 2758 2815 
Q 2500 3097 2075 3097 
Q 1594 3097 1305 2825 
Q 1016 2553 972 2059 
L 3022 2063 
z
" transform="scale(0.015625)"/>
     </defs>
     <use xlink:href="#DejaVuSans-43"/>
     <use xlink:href="#DejaVuSans-6c" x="69.824219"/>
     <use xlink:href="#DejaVuSans-6f" x="97.607422"/>
     <use xlink:href="#DejaVuSans-73" x="158.789062"/>
     <use xlink:href="#DejaVuSans-69" x="210.888672"/>
     <use xlink:href="#DejaVuSans-6e" x="238.671875"/>
     <use xlink:href="#DejaVuSans-67" x="302.050781"/>
     <use xlink:href="#DejaVuSans-20" x="365.527344"/>
     <use xlink:href="#DejaVuSans-50" x="397.314453"/>
     <use xlink:href="#DejaVuSans-72" x="455.867188"/>
     <use xlink:href="#DejaVuSans-69" x="496.980469"/>
     <use xlink:href="#DejaVuSans-63" x="524.763672"/>
     <use xlink:href="#DejaVuSans-65" x="579.744141"/>
    </g>
   </g>
   <g id="legend_1">
    <g id="patch_7">
     <path d="M 911.144856 85.688125 
L 975.876106 85.688125 
Q 977.876106 85.688125 977.876106 83.688125 
L 977.876106 55.331875 
Q 977.876106 53.331875 975.876106 53.331875 
L 911.144856 53.331875 
Q 909.144856 53.331875 909.144856 55.331875 
L 909.144856 83.688125 
Q 909.144856 85.688125 911.144856 85.688125 
z
" style="fill: #ffffff; opacity: 0.8; stroke: #cccccc; stroke-linejoin: miter"/>
    </g>
    <g id="line2d_43">
     <path d="M 913.144856 61.430312 
L 923.144856 61.430312 
L 933.144856 61.430312 
" style="fill: none; stroke: #1f77b4; stroke-width: 1.5; stroke-linecap: square"/>
    </g>
    <g id="text_10">
     <!-- CLOSE -->
     <g transform="translate(941.144856 64.930312)scale(0.1 -0.1)">
      <defs>
       <path id="DejaVuSans-4c" d="M 628 4666 
L 1259 4666 
L 1259 531 
L 3531 531 
L 3531 0 
L 628 0 
L 628 4666 
z
" transform="scale(0.015625)"/>
       <path id="DejaVuSans-4f" d="M 2522 4238 
Q 1834 4238 1429 3725 
Q 1025 3213 1025 2328 
Q 1025 1447 1429 934 
Q 1834 422 2522 422 
Q 3209 422 3611 934 
Q 4013 1447 4013 2328 
Q 4013 3213 3611 3725 
Q 3209 4238 2522 4238 
z
M 2522 4750 
Q 3503 4750 4090 4092 
Q 4678 3434 4678 2328 
Q 4678 1225 4090 567 
Q 3503 -91 2522 -91 
Q 1538 -91 948 565 
Q 359 1222 359 2328 
Q 359 3434 948 4092 
Q 1538 4750 2522 4750 
z
" transform="scale(0.015625)"/>
       <path id="DejaVuSans-53" d="M 3425 4513 
L 3425 3897 
Q 3066 4069 2747 4153 
Q 2428 4238 2131 4238 
Q 1616 4238 1336 4038 
Q 1056 3838 1056 3469 
Q 1056 3159 1242 3001 
Q 1428 2844 1947 2747 
L 2328 2669 
Q 3034 2534 3370 2195 
Q 3706 1856 3706 1288 
Q 3706 609 3251 259 
Q 2797 -91 1919 -91 
Q 1588 -91 1214 -16 
Q 841 59 441 206 
L 441 856 
Q 825 641 1194 531 
Q 1563 422 1919 422 
Q 2459 422 2753 634 
Q 3047 847 3047 1241 
Q 3047 1584 2836 1778 
Q 2625 1972 2144 2069 
L 1759 2144 
Q 1053 2284 737 2584 
Q 422 2884 422 3419 
Q 422 4038 858 4394 
Q 1294 4750 2059 4750 
Q 2388 4750 2728 4690 
Q 3069 4631 3425 4513 
z
" transform="scale(0.015625)"/>
       <path id="DejaVuSans-45" d="M 628 4666 
L 3578 4666 
L 3578 4134 
L 1259 4134 
L 1259 2753 
L 3481 2753 
L 3481 2222 
L 1259 2222 
L 1259 531 
L 3634 531 
L 3634 0 
L 628 0 
L 628 4666 
z
" transform="scale(0.015625)"/>
      </defs>
      <use xlink:href="#DejaVuSans-43"/>
      <use xlink:href="#DejaVuSans-4c" x="69.824219"/>
      <use xlink:href="#DejaVuSans-4f" x="121.912109"/>
      <use xlink:href="#DejaVuSans-53" x="200.623047"/>
      <use xlink:href="#DejaVuSans-45" x="264.099609"/>
     </g>
    </g>
    <g id="line2d_44">
     <path d="M 913.144856 76.108437 
L 923.144856 76.108437 
L 933.144856 76.108437 
" style="fill: none; stroke: #ff7f0e; stroke-width: 1.5; stroke-linecap: square"/>
    </g>
    <g id="text_11">
     <!-- SMA5 -->
     <g transform="translate(941.144856 79.608437)scale(0.1 -0.1)">
      <defs>
       <path id="DejaVuSans-4d" d="M 628 4666 
L 1569 4666 
L 2759 1491 
L 3956 4666 
L 4897 4666 
L 4897 0 
L 4281 0 
L 4281 4097 
L 3078 897 
L 2444 897 
L 1241 4097 
L 1241 0 
L 628 0 
L 628 4666 
z
" transform="scale(0.015625)"/>
       <path id="DejaVuSans-41" d="M 2188 4044 
L 1331 1722 
L 3047 1722 
L 2188 4044 
z
M 1831 4666 
L 2547 4666 
L 4325 0 
L 3669 0 
L 3244 1197 
L 1141 1197 
L 716 0 
L 50 0 
L 1831 4666 
z
" transform="scale(0.015625)"/>
      </defs>
      <use xlink:href="#DejaVuSans-53"/>
      <use xlink:href="#DejaVuSans-4d" x="63.476562"/>
      <use xlink:href="#DejaVuSans-41" x="149.755859"/>
      <use xlink:href="#DejaVuSans-35" x="218.164062"/>
     </g>
    </g>
   </g>
  </g>
  <g id="axes_2">
   <g id="patch_8">
    <path d="M 36.8875 584.521875 
L 982.876106 584.521875 
L 982.876106 331.135938 
L 36.8875 331.135938 
z
" style="fill: #ffffff"/>
   </g>
   <g id="matplotlib.axis_3">
    <g id="xtick_13">
     <g id="line2d_45">
      <path d="M 74.495197 584.521875 
L 74.495197 331.135938 
" clip-path="url(#pe490828b67)" style="fill: none; stroke-dasharray: 2.96,1.28; stroke-dashoffset: 0; stroke: #b0b0b0; stroke-width: 0.8"/>
     </g>
     <g id="line2d_46">
      <g>
       <use xlink:href="#m35f16bfc1d" x="74.495197" y="584.521875" style="stroke: #000000; stroke-width: 0.8"/>
      </g>
     </g>
     <g id="text_12">
      <!-- 2022-01 -->
      <g transform="translate(53.603791 599.120312)scale(0.1 -0.1)">
       <defs>
        <path id="DejaVuSans-2d" d="M 313 2009 
L 1997 2009 
L 1997 1497 
L 313 1497 
L 313 2009 
z
" transform="scale(0.015625)"/>
       </defs>
       <use xlink:href="#DejaVuSans-32"/>
       <use xlink:href="#DejaVuSans-30" x="63.623047"/>
       <use xlink:href="#DejaVuSans-32" x="127.246094"/>
       <use xlink:href="#DejaVuSans-32" x="190.869141"/>
       <use xlink:href="#DejaVuSans-2d" x="254.492188"/>
       <use xlink:href="#DejaVuSans-30" x="290.576172"/>
       <use xlink:href="#DejaVuSans-31" x="354.199219"/>
      </g>
     </g>
    </g>
    <g id="xtick_14">
     <g id="line2d_47">
      <path d="M 158.067859 584.521875 
L 158.067859 331.135938 
" clip-path="url(#pe490828b67)" style="fill: none; stroke-dasharray: 2.96,1.28; stroke-dashoffset: 0; stroke: #b0b0b0; stroke-width: 0.8"/>
     </g>
     <g id="line2d_48">
      <g>
       <use xlink:href="#m35f16bfc1d" x="158.067859" y="584.521875" style="stroke: #000000; stroke-width: 0.8"/>
      </g>
     </g>
     <g id="text_13">
      <!-- 2022-02 -->
      <g transform="translate(137.176452 599.120312)scale(0.1 -0.1)">
       <use xlink:href="#DejaVuSans-32"/>
       <use xlink:href="#DejaVuSans-30" x="63.623047"/>
       <use xlink:href="#DejaVuSans-32" x="127.246094"/>
       <use xlink:href="#DejaVuSans-32" x="190.869141"/>
       <use xlink:href="#DejaVuSans-2d" x="254.492188"/>
       <use xlink:href="#DejaVuSans-30" x="290.576172"/>
       <use xlink:href="#DejaVuSans-32" x="354.199219"/>
      </g>
     </g>
    </g>
    <g id="xtick_15">
     <g id="line2d_49">
      <path d="M 233.552843 584.521875 
L 233.552843 331.135938 
" clip-path="url(#pe490828b67)" style="fill: none; stroke-dasharray: 2.96,1.28; stroke-dashoffset: 0; stroke: #b0b0b0; stroke-width: 0.8"/>
     </g>
     <g id="line2d_50">
      <g>
       <use xlink:href="#m35f16bfc1d" x="233.552843" y="584.521875" style="stroke: #000000; stroke-width: 0.8"/>
      </g>
     </g>
     <g id="text_14">
      <!-- 2022-03 -->
      <g transform="translate(212.661437 599.120312)scale(0.1 -0.1)">
       <use xlink:href="#DejaVuSans-32"/>
       <use xlink:href="#DejaVuSans-30" x="63.623047"/>
       <use xlink:href="#DejaVuSans-32" x="127.246094"/>
       <use xlink:href="#DejaVuSans-32" x="190.869141"/>
       <use xlink:href="#DejaVuSans-2d" x="254.492188"/>
       <use xlink:href="#DejaVuSans-30" x="290.576172"/>
       <use xlink:href="#DejaVuSans-33" x="354.199219"/>
      </g>
     </g>
    </g>
    <g id="xtick_16">
     <g id="line2d_51">
      <path d="M 317.125504 584.521875 
L 317.125504 331.135938 
" clip-path="url(#pe490828b67)" style="fill: none; stroke-dasharray: 2.96,1.28; stroke-dashoffset: 0; stroke: #b0b0b0; stroke-width: 0.8"/>
     </g>
     <g id="line2d_52">
      <g>
       <use xlink:href="#m35f16bfc1d" x="317.125504" y="584.521875" style="stroke: #000000; stroke-width: 0.8"/>
      </g>
     </g>
     <g id="text_15">
      <!-- 2022-04 -->
      <g transform="translate(296.234098 599.120312)scale(0.1 -0.1)">
       <use xlink:href="#DejaVuSans-32"/>
       <use xlink:href="#DejaVuSans-30" x="63.623047"/>
       <use xlink:href="#DejaVuSans-32" x="127.246094"/>
       <use xlink:href="#DejaVuSans-32" x="190.869141"/>
       <use xlink:href="#DejaVuSans-2d" x="254.492188"/>
       <use xlink:href="#DejaVuSans-30" x="290.576172"/>
       <use xlink:href="#DejaVuSans-34" x="354.199219"/>
      </g>
     </g>
    </g>
    <g id="xtick_17">
     <g id="line2d_53">
      <path d="M 398.002273 584.521875 
L 398.002273 331.135938 
" clip-path="url(#pe490828b67)" style="fill: none; stroke-dasharray: 2.96,1.28; stroke-dashoffset: 0; stroke: #b0b0b0; stroke-width: 0.8"/>
     </g>
     <g id="line2d_54">
      <g>
       <use xlink:href="#m35f16bfc1d" x="398.002273" y="584.521875" style="stroke: #000000; stroke-width: 0.8"/>
      </g>
     </g>
     <g id="text_16">
      <!-- 2022-05 -->
      <g transform="translate(377.110866 599.120312)scale(0.1 -0.1)">
       <use xlink:href="#DejaVuSans-32"/>
       <use xlink:href="#DejaVuSans-30" x="63.623047"/>
       <use xlink:href="#DejaVuSans-32" x="127.246094"/>
       <use xlink:href="#DejaVuSans-32" x="190.869141"/>
       <use xlink:href="#DejaVuSans-2d" x="254.492188"/>
       <use xlink:href="#DejaVuSans-30" x="290.576172"/>
       <use xlink:href="#DejaVuSans-35" x="354.199219"/>
      </g>
     </g>
    </g>
    <g id="xtick_18">
     <g id="line2d_55">
      <path d="M 481.574934 584.521875 
L 481.574934 331.135938 
" clip-path="url(#pe490828b67)" style="fill: none; stroke-dasharray: 2.96,1.28; stroke-dashoffset: 0; stroke: #b0b0b0; stroke-width: 0.8"/>
     </g>
     <g id="line2d_56">
      <g>
       <use xlink:href="#m35f16bfc1d" x="481.574934" y="584.521875" style="stroke: #000000; stroke-width: 0.8"/>
      </g>
     </g>
     <g id="text_17">
      <!-- 2022-06 -->
      <g transform="translate(460.683528 599.120312)scale(0.1 -0.1)">
       <use xlink:href="#DejaVuSans-32"/>
       <use xlink:href="#DejaVuSans-30" x="63.623047"/>
       <use xlink:href="#DejaVuSans-32" x="127.246094"/>
       <use xlink:href="#DejaVuSans-32" x="190.869141"/>
       <use xlink:href="#DejaVuSans-2d" x="254.492188"/>
       <use xlink:href="#DejaVuSans-30" x="290.576172"/>
       <use xlink:href="#DejaVuSans-36" x="354.199219"/>
      </g>
     </g>
    </g>
    <g id="xtick_19">
     <g id="line2d_57">
      <path d="M 562.451703 584.521875 
L 562.451703 331.135938 
" clip-path="url(#pe490828b67)" style="fill: none; stroke-dasharray: 2.96,1.28; stroke-dashoffset: 0; stroke: #b0b0b0; stroke-width: 0.8"/>
     </g>
     <g id="line2d_58">
      <g>
       <use xlink:href="#m35f16bfc1d" x="562.451703" y="584.521875" style="stroke: #000000; stroke-width: 0.8"/>
      </g>
     </g>
     <g id="text_18">
      <!-- 2022-07 -->
      <g transform="translate(541.560296 599.120312)scale(0.1 -0.1)">
       <use xlink:href="#DejaVuSans-32"/>
       <use xlink:href="#DejaVuSans-30" x="63.623047"/>
       <use xlink:href="#DejaVuSans-32" x="127.246094"/>
       <use xlink:href="#DejaVuSans-32" x="190.869141"/>
       <use xlink:href="#DejaVuSans-2d" x="254.492188"/>
       <use xlink:href="#DejaVuSans-30" x="290.576172"/>
       <use xlink:href="#DejaVuSans-37" x="354.199219"/>
      </g>
     </g>
    </g>
    <g id="xtick_20">
     <g id="line2d_59">
      <path d="M 646.024364 584.521875 
L 646.024364 331.135938 
" clip-path="url(#pe490828b67)" style="fill: none; stroke-dasharray: 2.96,1.28; stroke-dashoffset: 0; stroke: #b0b0b0; stroke-width: 0.8"/>
     </g>
     <g id="line2d_60">
      <g>
       <use xlink:href="#m35f16bfc1d" x="646.024364" y="584.521875" style="stroke: #000000; stroke-width: 0.8"/>
      </g>
     </g>
     <g id="text_19">
      <!-- 2022-08 -->
      <g transform="translate(625.132958 599.120312)scale(0.1 -0.1)">
       <defs>
        <path id="DejaVuSans-38" d="M 2034 2216 
Q 1584 2216 1326 1975 
Q 1069 1734 1069 1313 
Q 1069 891 1326 650 
Q 1584 409 2034 409 
Q 2484 409 2743 651 
Q 3003 894 3003 1313 
Q 3003 1734 2745 1975 
Q 2488 2216 2034 2216 
z
M 1403 2484 
Q 997 2584 770 2862 
Q 544 3141 544 3541 
Q 544 4100 942 4425 
Q 1341 4750 2034 4750 
Q 2731 4750 3128 4425 
Q 3525 4100 3525 3541 
Q 3525 3141 3298 2862 
Q 3072 2584 2669 2484 
Q 3125 2378 3379 2068 
Q 3634 1759 3634 1313 
Q 3634 634 3220 271 
Q 2806 -91 2034 -91 
Q 1263 -91 848 271 
Q 434 634 434 1313 
Q 434 1759 690 2068 
Q 947 2378 1403 2484 
z
M 1172 3481 
Q 1172 3119 1398 2916 
Q 1625 2713 2034 2713 
Q 2441 2713 2670 2916 
Q 2900 3119 2900 3481 
Q 2900 3844 2670 4047 
Q 2441 4250 2034 4250 
Q 1625 4250 1398 4047 
Q 1172 3844 1172 3481 
z
" transform="scale(0.015625)"/>
       </defs>
       <use xlink:href="#DejaVuSans-32"/>
       <use xlink:href="#DejaVuSans-30" x="63.623047"/>
       <use xlink:href="#DejaVuSans-32" x="127.246094"/>
       <use xlink:href="#DejaVuSans-32" x="190.869141"/>
       <use xlink:href="#DejaVuSans-2d" x="254.492188"/>
       <use xlink:href="#DejaVuSans-30" x="290.576172"/>
       <use xlink:href="#DejaVuSans-38" x="354.199219"/>
      </g>
     </g>
    </g>
    <g id="xtick_21">
     <g id="line2d_61">
      <path d="M 729.597025 584.521875 
L 729.597025 331.135938 
" clip-path="url(#pe490828b67)" style="fill: none; stroke-dasharray: 2.96,1.28; stroke-dashoffset: 0; stroke: #b0b0b0; stroke-width: 0.8"/>
     </g>
     <g id="line2d_62">
      <g>
       <use xlink:href="#m35f16bfc1d" x="729.597025" y="584.521875" style="stroke: #000000; stroke-width: 0.8"/>
      </g>
     </g>
     <g id="text_20">
      <!-- 2022-09 -->
      <g transform="translate(708.705619 599.120312)scale(0.1 -0.1)">
       <defs>
        <path id="DejaVuSans-39" d="M 703 97 
L 703 672 
Q 941 559 1184 500 
Q 1428 441 1663 441 
Q 2288 441 2617 861 
Q 2947 1281 2994 2138 
Q 2813 1869 2534 1725 
Q 2256 1581 1919 1581 
Q 1219 1581 811 2004 
Q 403 2428 403 3163 
Q 403 3881 828 4315 
Q 1253 4750 1959 4750 
Q 2769 4750 3195 4129 
Q 3622 3509 3622 2328 
Q 3622 1225 3098 567 
Q 2575 -91 1691 -91 
Q 1453 -91 1209 -44 
Q 966 3 703 97 
z
M 1959 2075 
Q 2384 2075 2632 2365 
Q 2881 2656 2881 3163 
Q 2881 3666 2632 3958 
Q 2384 4250 1959 4250 
Q 1534 4250 1286 3958 
Q 1038 3666 1038 3163 
Q 1038 2656 1286 2365 
Q 1534 2075 1959 2075 
z
" transform="scale(0.015625)"/>
       </defs>
       <use xlink:href="#DejaVuSans-32"/>
       <use xlink:href="#DejaVuSans-30" x="63.623047"/>
       <use xlink:href="#DejaVuSans-32" x="127.246094"/>
       <use xlink:href="#DejaVuSans-32" x="190.869141"/>
       <use xlink:href="#DejaVuSans-2d" x="254.492188"/>
       <use xlink:href="#DejaVuSans-30" x="290.576172"/>
       <use xlink:href="#DejaVuSans-39" x="354.199219"/>
      </g>
     </g>
    </g>
    <g id="xtick_22">
     <g id="line2d_63">
      <path d="M 810.473794 584.521875 
L 810.473794 331.135938 
" clip-path="url(#pe490828b67)" style="fill: none; stroke-dasharray: 2.96,1.28; stroke-dashoffset: 0; stroke: #b0b0b0; stroke-width: 0.8"/>
     </g>
     <g id="line2d_64">
      <g>
       <use xlink:href="#m35f16bfc1d" x="810.473794" y="584.521875" style="stroke: #000000; stroke-width: 0.8"/>
      </g>
     </g>
     <g id="text_21">
      <!-- 2022-10 -->
      <g transform="translate(789.582387 599.120312)scale(0.1 -0.1)">
       <use xlink:href="#DejaVuSans-32"/>
       <use xlink:href="#DejaVuSans-30" x="63.623047"/>
       <use xlink:href="#DejaVuSans-32" x="127.246094"/>
       <use xlink:href="#DejaVuSans-32" x="190.869141"/>
       <use xlink:href="#DejaVuSans-2d" x="254.492188"/>
       <use xlink:href="#DejaVuSans-31" x="290.576172"/>
       <use xlink:href="#DejaVuSans-30" x="354.199219"/>
      </g>
     </g>
    </g>
    <g id="xtick_23">
     <g id="line2d_65">
      <path d="M 894.046455 584.521875 
L 894.046455 331.135938 
" clip-path="url(#pe490828b67)" style="fill: none; stroke-dasharray: 2.96,1.28; stroke-dashoffset: 0; stroke: #b0b0b0; stroke-width: 0.8"/>
     </g>
     <g id="line2d_66">
      <g>
       <use xlink:href="#m35f16bfc1d" x="894.046455" y="584.521875" style="stroke: #000000; stroke-width: 0.8"/>
      </g>
     </g>
     <g id="text_22">
      <!-- 2022-11 -->
      <g transform="translate(873.155049 599.120312)scale(0.1 -0.1)">
       <use xlink:href="#DejaVuSans-32"/>
       <use xlink:href="#DejaVuSans-30" x="63.623047"/>
       <use xlink:href="#DejaVuSans-32" x="127.246094"/>
       <use xlink:href="#DejaVuSans-32" x="190.869141"/>
       <use xlink:href="#DejaVuSans-2d" x="254.492188"/>
       <use xlink:href="#DejaVuSans-31" x="290.576172"/>
       <use xlink:href="#DejaVuSans-31" x="354.199219"/>
      </g>
     </g>
    </g>
    <g id="xtick_24">
     <g id="line2d_67">
      <path d="M 974.923224 584.521875 
L 974.923224 331.135938 
" clip-path="url(#pe490828b67)" style="fill: none; stroke-dasharray: 2.96,1.28; stroke-dashoffset: 0; stroke: #b0b0b0; stroke-width: 0.8"/>
     </g>
     <g id="line2d_68">
      <g>
       <use xlink:href="#m35f16bfc1d" x="974.923224" y="584.521875" style="stroke: #000000; stroke-width: 0.8"/>
      </g>
     </g>
     <g id="text_23">
      <!-- 2022-12 -->
      <g transform="translate(954.031817 599.120312)scale(0.1 -0.1)">
       <use xlink:href="#DejaVuSans-32"/>
       <use xlink:href="#DejaVuSans-30" x="63.623047"/>
       <use xlink:href="#DejaVuSans-32" x="127.246094"/>
       <use xlink:href="#DejaVuSans-32" x="190.869141"/>
       <use xlink:href="#DejaVuSans-2d" x="254.492188"/>
       <use xlink:href="#DejaVuSans-31" x="290.576172"/>
       <use xlink:href="#DejaVuSans-32" x="354.199219"/>
      </g>
     </g>
    </g>
   </g>
   <g id="matplotlib.axis_4">
    <g id="ytick_9">
     <g id="line2d_69">
      <path d="M 36.8875 557.178403 
L 982.876106 557.178403 
" clip-path="url(#pe490828b67)" style="fill: none; stroke-dasharray: 2.96,1.28; stroke-dashoffset: 0; stroke: #b0b0b0; stroke-width: 0.8"/>
     </g>
     <g id="line2d_70">
      <g>
       <use xlink:href="#meaf3bd8e57" x="36.8875" y="557.178403" style="stroke: #000000; stroke-width: 0.8"/>
      </g>
     </g>
     <g id="text_24">
      <!-- 8 -->
      <g transform="translate(15.145313 560.977622)scale(0.1 -0.1)">
       <defs>
        <path id="DejaVuSans-2212" d="M 678 2272 
L 4684 2272 
L 4684 1741 
L 678 1741 
L 678 2272 
z
" transform="scale(0.015625)"/>
       </defs>
       <use xlink:href="#DejaVuSans-2212"/>
       <use xlink:href="#DejaVuSans-38" x="83.789062"/>
      </g>
     </g>
    </g>
    <g id="ytick_10">
     <g id="line2d_71">
      <path d="M 36.8875 526.705295 
L 982.876106 526.705295 
" clip-path="url(#pe490828b67)" style="fill: none; stroke-dasharray: 2.96,1.28; stroke-dashoffset: 0; stroke: #b0b0b0; stroke-width: 0.8"/>
     </g>
     <g id="line2d_72">
      <g>
       <use xlink:href="#meaf3bd8e57" x="36.8875" y="526.705295" style="stroke: #000000; stroke-width: 0.8"/>
      </g>
     </g>
     <g id="text_25">
      <!-- 6 -->
      <g transform="translate(15.145313 530.504513)scale(0.1 -0.1)">
       <use xlink:href="#DejaVuSans-2212"/>
       <use xlink:href="#DejaVuSans-36" x="83.789062"/>
      </g>
     </g>
    </g>
    <g id="ytick_11">
     <g id="line2d_73">
      <path d="M 36.8875 496.232186 
L 982.876106 496.232186 
" clip-path="url(#pe490828b67)" style="fill: none; stroke-dasharray: 2.96,1.28; stroke-dashoffset: 0; stroke: #b0b0b0; stroke-width: 0.8"/>
     </g>
     <g id="line2d_74">
      <g>
       <use xlink:href="#meaf3bd8e57" x="36.8875" y="496.232186" style="stroke: #000000; stroke-width: 0.8"/>
      </g>
     </g>
     <g id="text_26">
      <!-- 4 -->
      <g transform="translate(15.145313 500.031404)scale(0.1 -0.1)">
       <use xlink:href="#DejaVuSans-2212"/>
       <use xlink:href="#DejaVuSans-34" x="83.789062"/>
      </g>
     </g>
    </g>
    <g id="ytick_12">
     <g id="line2d_75">
      <path d="M 36.8875 465.759077 
L 982.876106 465.759077 
" clip-path="url(#pe490828b67)" style="fill: none; stroke-dasharray: 2.96,1.28; stroke-dashoffset: 0; stroke: #b0b0b0; stroke-width: 0.8"/>
     </g>
     <g id="line2d_76">
      <g>
       <use xlink:href="#meaf3bd8e57" x="36.8875" y="465.759077" style="stroke: #000000; stroke-width: 0.8"/>
      </g>
     </g>
     <g id="text_27">
      <!-- 2 -->
      <g transform="translate(15.145313 469.558296)scale(0.1 -0.1)">
       <use xlink:href="#DejaVuSans-2212"/>
       <use xlink:href="#DejaVuSans-32" x="83.789062"/>
      </g>
     </g>
    </g>
    <g id="ytick_13">
     <g id="line2d_77">
      <path d="M 36.8875 435.285968 
L 982.876106 435.285968 
" clip-path="url(#pe490828b67)" style="fill: none; stroke-dasharray: 2.96,1.28; stroke-dashoffset: 0; stroke: #b0b0b0; stroke-width: 0.8"/>
     </g>
     <g id="line2d_78">
      <g>
       <use xlink:href="#meaf3bd8e57" x="36.8875" y="435.285968" style="stroke: #000000; stroke-width: 0.8"/>
      </g>
     </g>
     <g id="text_28">
      <!-- 0 -->
      <g transform="translate(23.525 439.085187)scale(0.1 -0.1)">
       <use xlink:href="#DejaVuSans-30"/>
      </g>
     </g>
    </g>
    <g id="ytick_14">
     <g id="line2d_79">
      <path d="M 36.8875 404.812859 
L 982.876106 404.812859 
" clip-path="url(#pe490828b67)" style="fill: none; stroke-dasharray: 2.96,1.28; stroke-dashoffset: 0; stroke: #b0b0b0; stroke-width: 0.8"/>
     </g>
     <g id="line2d_80">
      <g>
       <use xlink:href="#meaf3bd8e57" x="36.8875" y="404.812859" style="stroke: #000000; stroke-width: 0.8"/>
      </g>
     </g>
     <g id="text_29">
      <!-- 2 -->
      <g transform="translate(23.525 408.612078)scale(0.1 -0.1)">
       <use xlink:href="#DejaVuSans-32"/>
      </g>
     </g>
    </g>
    <g id="ytick_15">
     <g id="line2d_81">
      <path d="M 36.8875 374.33975 
L 982.876106 374.33975 
" clip-path="url(#pe490828b67)" style="fill: none; stroke-dasharray: 2.96,1.28; stroke-dashoffset: 0; stroke: #b0b0b0; stroke-width: 0.8"/>
     </g>
     <g id="line2d_82">
      <g>
       <use xlink:href="#meaf3bd8e57" x="36.8875" y="374.33975" style="stroke: #000000; stroke-width: 0.8"/>
      </g>
     </g>
     <g id="text_30">
      <!-- 4 -->
      <g transform="translate(23.525 378.138969)scale(0.1 -0.1)">
       <use xlink:href="#DejaVuSans-34"/>
      </g>
     </g>
    </g>
    <g id="ytick_16">
     <g id="line2d_83">
      <path d="M 36.8875 343.866641 
L 982.876106 343.866641 
" clip-path="url(#pe490828b67)" style="fill: none; stroke-dasharray: 2.96,1.28; stroke-dashoffset: 0; stroke: #b0b0b0; stroke-width: 0.8"/>
     </g>
     <g id="line2d_84">
      <g>
       <use xlink:href="#meaf3bd8e57" x="36.8875" y="343.866641" style="stroke: #000000; stroke-width: 0.8"/>
      </g>
     </g>
     <g id="text_31">
      <!-- 6 -->
      <g transform="translate(23.525 347.66586)scale(0.1 -0.1)">
       <use xlink:href="#DejaVuSans-36"/>
      </g>
     </g>
    </g>
   </g>
   <g id="line2d_85">
    <path d="M 79.886982 435.285968 
L 82.582874 435.115045 
L 85.278767 433.745221 
L 87.974659 433.132453 
L 98.758228 431.870819 
L 101.45412 433.720852 
L 104.150013 431.471981 
L 106.845905 426.381991 
L 109.541797 422.979315 
L 117.629474 421.626574 
L 120.325366 424.796199 
L 123.021259 425.951968 
L 125.717151 425.481269 
L 128.413043 428.415956 
L 136.50072 436.08886 
L 139.196613 440.327614 
L 144.588397 444.904882 
L 155.371966 443.221414 
L 158.067859 435.540665 
L 160.763751 424.481056 
L 163.459643 412.460664 
L 166.155535 403.970211 
L 174.243212 397.153483 
L 176.939105 392.88231 
L 179.634997 387.565961 
L 182.330889 380.054696 
L 185.026782 376.099567 
L 193.114458 379.674696 
L 195.810351 386.955836 
L 198.506243 389.390675 
L 201.202135 400.906674 
L 203.898028 413.143458 
L 211.985704 425.363185 
L 214.681597 435.035958 
L 217.377489 439.499261 
L 220.073381 452.534232 
L 222.769274 454.940188 
L 230.856951 454.095286 
L 236.248735 443.934949 
L 238.944627 434.12479 
L 241.64052 431.742316 
L 249.728197 424.089151 
L 252.424089 417.988575 
L 255.119981 413.941563 
L 257.815873 410.483135 
L 260.511766 403.249223 
L 268.599443 399.199038 
L 271.295335 406.804755 
L 273.991227 409.507827 
L 276.68712 411.02349 
L 287.470689 412.188788 
L 290.166581 413.24562 
L 292.862473 414.984659 
L 295.558366 409.377014 
L 298.254258 405.220052 
L 306.341935 397.196516 
L 309.037827 394.35445 
L 311.733719 392.233907 
L 314.429612 387.026841 
L 317.125504 378.674787 
L 325.213181 368.313313 
L 327.909073 362.952126 
L 330.604965 355.289372 
L 333.300858 352.071811 
L 335.99675 345.845812 
L 344.084427 342.65348 
L 346.780319 346.350894 
L 349.476211 352.742845 
L 362.955673 357.904843 
L 365.651565 361.68083 
L 368.347458 364.509271 
L 371.04335 367.592756 
L 373.739242 374.476694 
L 381.826919 390.260751 
L 384.522811 401.200186 
L 387.218704 410.70499 
L 389.914596 415.157045 
L 392.610488 421.421918 
L 400.698165 426.852188 
L 406.08995 435.692298 
L 408.785842 442.188792 
L 411.481734 452.722162 
L 419.569411 465.934659 
L 422.265303 484.859308 
L 424.961196 496.875042 
L 427.657088 511.779169 
L 430.35298 524.405566 
L 438.440657 531.157065 
L 441.136549 528.128112 
L 443.832442 526.214987 
L 446.528334 526.655466 
L 449.224226 518.246261 
L 457.311903 532.941358 
L 460.007795 545.467358 
L 462.703688 560.524578 
L 465.39958 565.002097 
L 468.095472 568.1859 
L 476.183149 570.441371 
L 478.879042 567.995191 
L 481.574934 564.140977 
L 484.270826 558.012485 
L 486.966718 552.966636 
L 495.054395 550.406178 
L 497.750288 549.396904 
L 500.44618 546.151308 
L 503.142072 544.350038 
L 505.837964 544.73384 
L 513.925641 550.470906 
L 516.621534 553.956869 
L 519.317426 554.971044 
L 522.013318 561.753997 
L 524.709211 564.897837 
L 532.796887 570.745023 
L 535.49278 568.981979 
L 538.188672 573.004332 
L 540.884564 571.973333 
L 543.580457 566.508756 
L 551.668133 556.235196 
L 554.364026 546.807761 
L 557.059918 540.277558 
L 559.75581 535.54478 
L 562.451703 528.931916 
L 570.53938 523.838309 
L 573.235272 518.959979 
L 575.931164 517.04053 
L 578.627056 510.411903 
L 581.322949 505.273943 
L 589.410626 500.390118 
L 592.106518 502.871175 
L 594.80241 501.188607 
L 597.498302 503.859429 
L 600.194195 507.297459 
L 608.281872 505.038006 
L 610.977764 501.804401 
L 613.673656 498.391361 
L 616.369549 494.451234 
L 619.065441 491.115389 
L 627.153118 485.920917 
L 629.84901 483.097281 
L 632.544902 479.914771 
L 635.240795 475.575783 
L 637.936687 469.043193 
L 646.024364 463.661912 
L 648.720256 459.426296 
L 651.416148 457.595075 
L 654.112041 454.204507 
L 656.807933 447.078445 
L 664.89561 438.686991 
L 670.287394 428.548953 
L 672.983287 420.925909 
L 675.679179 413.780101 
L 686.462748 408.365842 
L 691.854533 402.604561 
L 694.550425 401.783132 
L 702.638102 405.532333 
L 705.333994 400.908413 
L 713.421671 386.116802 
L 721.509348 381.953292 
L 724.20524 381.24378 
L 729.597025 381.425305 
L 732.292917 382.36364 
L 740.380594 383.094182 
L 743.076486 384.869046 
L 745.772379 384.524809 
L 748.468271 386.717528 
L 751.164163 387.044238 
L 759.25184 384.750574 
L 761.947732 384.744896 
L 764.643625 383.371694 
L 767.339517 384.649842 
L 770.035409 386.836015 
L 778.123086 387.946288 
L 780.818978 387.897102 
L 783.514871 386.636207 
L 786.210763 383.042569 
L 788.906655 385.015711 
L 796.994332 393.394072 
L 799.690225 398.612539 
L 802.386117 405.610687 
L 805.082009 407.846166 
L 807.777901 406.750142 
L 815.865578 408.64753 
L 823.953255 399.726099 
L 826.649147 393.130455 
L 834.736824 386.7417 
L 837.432717 388.852913 
L 840.128609 391.340011 
L 842.824501 395.734124 
L 845.520393 395.555776 
L 853.60807 394.592586 
L 856.303963 396.246415 
L 858.999855 398.594771 
L 861.695747 399.272697 
L 864.39164 402.949009 
L 872.479316 405.468552 
L 875.175209 408.025443 
L 880.566993 442.488057 
L 883.262886 473.478368 
L 891.350562 498.781827 
L 894.046455 511.987935 
L 896.742347 515.808655 
L 899.438239 516.243599 
L 910.221809 508.699752 
L 915.613593 504.185328 
L 918.309485 501.139433 
L 921.005378 496.787129 
L 929.093055 492.858654 
L 931.788947 494.654995 
L 934.484839 497.269764 
L 937.180731 500.799817 
L 939.876624 496.19472 
L 939.876624 496.19472 
" clip-path="url(#pe490828b67)" style="fill: none; stroke: #1f77b4; stroke-width: 1.5; stroke-linecap: square"/>
   </g>
   <g id="line2d_86">
    <path d="M 79.886982 435.285968 
L 82.582874 435.191011 
L 87.974659 434.101854 
L 90.670551 433.727915 
L 98.758228 433.224539 
L 101.45412 433.350143 
L 104.150013 432.898785 
L 106.845905 431.393373 
L 109.541797 429.508136 
L 120.325366 427.142106 
L 125.717151 426.595475 
L 128.413043 426.972849 
L 136.50072 428.848856 
L 139.196613 431.197494 
L 144.588397 433.989264 
L 147.284289 436.120865 
L 155.371966 437.557539 
L 158.067859 437.150409 
L 160.763751 434.597703 
L 163.459643 430.144005 
L 166.155535 424.884408 
L 174.243212 419.317191 
L 179.634997 408.711721 
L 182.330889 402.969209 
L 185.026782 397.586952 
L 193.114458 394.00006 
L 195.810351 392.589819 
L 198.506243 391.949483 
L 201.202135 393.742057 
L 203.898028 397.624306 
L 211.985704 403.174333 
L 214.681597 409.548727 
L 217.377489 415.540389 
L 220.073381 422.940695 
L 222.769274 429.341657 
L 230.856951 434.293041 
L 236.248735 436.221627 
L 238.944627 435.802224 
L 241.64052 434.990187 
L 249.728197 432.809861 
L 252.424089 429.845475 
L 257.815873 423.428202 
L 260.511766 419.392316 
L 268.599443 415.353589 
L 271.295335 413.643797 
L 273.991227 412.816594 
L 276.68712 412.45797 
L 287.470689 412.404133 
L 290.166581 412.572431 
L 292.862473 413.054879 
L 295.558366 412.319303 
L 298.254258 410.899449 
L 306.341935 408.158856 
L 311.733719 402.765153 
L 314.429612 399.617487 
L 317.125504 395.428943 
L 325.213181 390.005813 
L 327.909073 384.595072 
L 330.604965 378.733929 
L 335.99675 367.890363 
L 344.084427 362.842985 
L 346.780319 359.544567 
L 349.476211 358.184222 
L 362.955673 358.128346 
L 365.651565 358.838843 
L 368.347458 359.972929 
L 371.04335 361.496894 
L 373.739242 364.092854 
L 381.826919 369.326434 
L 384.522811 375.701185 
L 387.218704 382.701946 
L 392.610488 395.638756 
L 400.698165 401.881443 
L 406.08995 408.643614 
L 408.785842 415.352649 
L 411.481734 422.826552 
L 419.569411 431.448173 
L 424.961196 453.079329 
L 430.35298 476.736551 
L 438.440657 487.620654 
L 441.136549 495.722145 
L 443.832442 501.820714 
L 446.528334 506.787664 
L 449.224226 509.079383 
L 457.311903 513.851778 
L 460.007795 520.174894 
L 462.703688 528.244831 
L 465.39958 535.596284 
L 468.095472 542.114207 
L 476.183149 547.77964 
L 478.879042 551.82275 
L 481.574934 554.286396 
L 484.270826 555.031613 
L 486.966718 554.618618 
L 495.054395 553.77613 
L 497.750288 552.900285 
L 503.142072 550.110399 
L 505.837964 549.035087 
L 513.925641 549.322251 
L 519.317426 551.193548 
L 522.013318 553.305638 
L 524.709211 555.624078 
L 532.796887 558.648267 
L 535.49278 560.715009 
L 538.188672 563.172874 
L 540.884564 564.932966 
L 543.580457 565.248124 
L 551.668133 563.445538 
L 554.364026 560.117983 
L 559.75581 552.028874 
L 562.451703 547.409483 
L 570.53938 542.695248 
L 573.235272 537.948194 
L 575.931164 533.766661 
L 581.322949 524.331356 
L 589.410626 519.543109 
L 592.106518 516.208722 
L 594.80241 513.204699 
L 597.498302 511.335645 
L 600.194195 510.528008 
L 608.281872 509.430008 
L 610.977764 507.904886 
L 613.673656 506.002181 
L 616.369549 503.691992 
L 619.065441 501.176671 
L 627.153118 498.12552 
L 632.544902 492.078852 
L 635.240795 488.778238 
L 637.936687 484.831229 
L 646.024364 480.597366 
L 648.720256 476.363152 
L 654.112041 468.928531 
L 656.807933 464.558514 
L 664.89561 459.384209 
L 670.287394 453.217158 
L 675.679179 440.163147 
L 686.462748 433.803686 
L 689.15864 428.147865 
L 691.854533 423.039204 
L 694.550425 418.78799 
L 702.638102 416.136858 
L 705.333994 413.091169 
L 708.029887 409.655946 
L 713.421671 401.923154 
L 721.509348 397.929182 
L 724.20524 394.592101 
L 729.597025 391.958742 
L 732.292917 390.039722 
L 740.380594 388.650614 
L 745.772379 387.220402 
L 759.25184 386.633882 
L 761.947732 386.256085 
L 764.643625 385.679207 
L 767.339517 385.473334 
L 770.035409 385.74587 
L 778.123086 386.185954 
L 780.818978 386.528183 
L 783.514871 386.549788 
L 786.210763 385.848344 
L 788.906655 385.681818 
L 796.994332 387.224269 
L 799.690225 389.501923 
L 802.386117 392.723676 
L 805.082009 395.748174 
L 807.777901 397.948567 
L 815.865578 400.08836 
L 818.561471 401.198013 
L 823.953255 400.90363 
L 826.649147 399.348995 
L 834.736824 396.827536 
L 837.432717 395.232612 
L 840.128609 394.454092 
L 845.520393 394.879234 
L 853.60807 394.821904 
L 856.303963 395.106806 
L 861.695747 396.498059 
L 864.39164 397.788249 
L 872.479316 399.324309 
L 875.175209 401.064536 
L 880.566993 409.34924 
L 883.262886 422.175066 
L 891.350562 437.496418 
L 894.046455 452.394722 
L 896.742347 465.077508 
L 899.438239 475.310726 
L 902.134132 483.113536 
L 910.221809 488.23078 
L 915.613593 491.421689 
L 918.309485 493.365238 
L 921.005378 494.049616 
L 929.093055 493.811424 
L 931.788947 493.980138 
L 934.484839 494.638063 
L 937.180731 495.870414 
L 939.876624 495.935275 
L 939.876624 495.935275 
" clip-path="url(#pe490828b67)" style="fill: none; stroke: #ff7f0e; stroke-width: 1.5; stroke-linecap: square"/>
   </g>
   <g id="patch_9">
    <path d="M 36.8875 584.521875 
L 36.8875 331.135938 
" style="fill: none; stroke: #000000; stroke-width: 0.8; stroke-linejoin: miter; stroke-linecap: square"/>
   </g>
   <g id="patch_10">
    <path d="M 982.876106 584.521875 
L 982.876106 331.135938 
" style="fill: none; stroke: #000000; stroke-width: 0.8; stroke-linejoin: miter; stroke-linecap: square"/>
   </g>
   <g id="patch_11">
    <path d="M 36.8875 584.521875 
L 982.876106 584.521875 
" style="fill: none; stroke: #000000; stroke-width: 0.8; stroke-linejoin: miter; stroke-linecap: square"/>
   </g>
   <g id="patch_12">
    <path d="M 36.8875 331.135938 
L 982.876106 331.135938 
" style="fill: none; stroke: #000000; stroke-width: 0.8; stroke-linejoin: miter; stroke-linecap: square"/>
   </g>
   <g id="text_32">
    <!-- MACD -->
    <g transform="translate(491.895865 325.135938)scale(0.12 -0.12)">
     <defs>
      <path id="DejaVuSans-44" d="M 1259 4147 
L 1259 519 
L 2022 519 
Q 2988 519 3436 956 
Q 3884 1394 3884 2338 
Q 3884 3275 3436 3711 
Q 2988 4147 2022 4147 
L 1259 4147 
z
M 628 4666 
L 1925 4666 
Q 3281 4666 3915 4102 
Q 4550 3538 4550 2338 
Q 4550 1131 3912 565 
Q 3275 0 1925 0 
L 628 0 
L 628 4666 
z
" transform="scale(0.015625)"/>
     </defs>
     <use xlink:href="#DejaVuSans-4d"/>
     <use xlink:href="#DejaVuSans-41" x="86.279297"/>
     <use xlink:href="#DejaVuSans-43" x="152.9375"/>
     <use xlink:href="#DejaVuSans-44" x="222.761719"/>
    </g>
   </g>
   <g id="legend_2">
    <g id="patch_13">
     <path d="M 913.899543 368.492188 
L 975.876106 368.492188 
Q 977.876106 368.492188 977.876106 366.492188 
L 977.876106 338.135938 
Q 977.876106 336.135938 975.876106 336.135938 
L 913.899543 336.135938 
Q 911.899543 336.135938 911.899543 338.135938 
L 911.899543 366.492188 
Q 911.899543 368.492188 913.899543 368.492188 
z
" style="fill: #ffffff; opacity: 0.8; stroke: #cccccc; stroke-linejoin: miter"/>
    </g>
    <g id="line2d_87">
     <path d="M 915.899543 344.234375 
L 925.899543 344.234375 
L 935.899543 344.234375 
" style="fill: none; stroke: #1f77b4; stroke-width: 1.5; stroke-linecap: square"/>
    </g>
    <g id="text_33">
     <!-- MACD -->
     <g transform="translate(943.899543 347.734375)scale(0.1 -0.1)">
      <use xlink:href="#DejaVuSans-4d"/>
      <use xlink:href="#DejaVuSans-41" x="86.279297"/>
      <use xlink:href="#DejaVuSans-43" x="152.9375"/>
      <use xlink:href="#DejaVuSans-44" x="222.761719"/>
     </g>
    </g>
    <g id="line2d_88">
     <path d="M 915.899543 358.9125 
L 925.899543 358.9125 
L 935.899543 358.9125 
" style="fill: none; stroke: #ff7f0e; stroke-width: 1.5; stroke-linecap: square"/>
    </g>
    <g id="text_34">
     <!-- SIG -->
     <g transform="translate(943.899543 362.4125)scale(0.1 -0.1)">
      <defs>
       <path id="DejaVuSans-49" d="M 628 4666 
L 1259 4666 
L 1259 0 
L 628 0 
L 628 4666 
z
" transform="scale(0.015625)"/>
       <path id="DejaVuSans-47" d="M 3809 666 
L 3809 1919 
L 2778 1919 
L 2778 2438 
L 4434 2438 
L 4434 434 
Q 4069 175 3628 42 
Q 3188 -91 2688 -91 
Q 1594 -91 976 548 
Q 359 1188 359 2328 
Q 359 3472 976 4111 
Q 1594 4750 2688 4750 
Q 3144 4750 3555 4637 
Q 3966 4525 4313 4306 
L 4313 3634 
Q 3963 3931 3569 4081 
Q 3175 4231 2741 4231 
Q 1884 4231 1454 3753 
Q 1025 3275 1025 2328 
Q 1025 1384 1454 906 
Q 1884 428 2741 428 
Q 3075 428 3337 486 
Q 3600 544 3809 666 
z
" transform="scale(0.015625)"/>
      </defs>
      <use xlink:href="#DejaVuSans-53"/>
      <use xlink:href="#DejaVuSans-49" x="63.476562"/>
      <use xlink:href="#DejaVuSans-47" x="92.96875"/>
     </g>
    </g>
   </g>
  </g>
  <g id="text_35">
   <!-- NMDC Limited -->
   <g transform="translate(461.243438 21.358125)scale(0.12 -0.12)">
    <defs>
     <path id="DejaVuSans-4e" d="M 628 4666 
L 1478 4666 
L 3547 763 
L 3547 4666 
L 4159 4666 
L 4159 0 
L 3309 0 
L 1241 3903 
L 1241 0 
L 628 0 
L 628 4666 
z
" transform="scale(0.015625)"/>
     <path id="DejaVuSans-6d" d="M 3328 2828 
Q 3544 3216 3844 3400 
Q 4144 3584 4550 3584 
Q 5097 3584 5394 3201 
Q 5691 2819 5691 2113 
L 5691 0 
L 5113 0 
L 5113 2094 
Q 5113 2597 4934 2840 
Q 4756 3084 4391 3084 
Q 3944 3084 3684 2787 
Q 3425 2491 3425 1978 
L 3425 0 
L 2847 0 
L 2847 2094 
Q 2847 2600 2669 2842 
Q 2491 3084 2119 3084 
Q 1678 3084 1418 2786 
Q 1159 2488 1159 1978 
L 1159 0 
L 581 0 
L 581 3500 
L 1159 3500 
L 1159 2956 
Q 1356 3278 1631 3431 
Q 1906 3584 2284 3584 
Q 2666 3584 2933 3390 
Q 3200 3197 3328 2828 
z
" transform="scale(0.015625)"/>
     <path id="DejaVuSans-74" d="M 1172 4494 
L 1172 3500 
L 2356 3500 
L 2356 3053 
L 1172 3053 
L 1172 1153 
Q 1172 725 1289 603 
Q 1406 481 1766 481 
L 2356 481 
L 2356 0 
L 1766 0 
Q 1100 0 847 248 
Q 594 497 594 1153 
L 594 3053 
L 172 3053 
L 172 3500 
L 594 3500 
L 594 4494 
L 1172 4494 
z
" transform="scale(0.015625)"/>
     <path id="DejaVuSans-64" d="M 2906 2969 
L 2906 4863 
L 3481 4863 
L 3481 0 
L 2906 0 
L 2906 525 
Q 2725 213 2448 61 
Q 2172 -91 1784 -91 
Q 1150 -91 751 415 
Q 353 922 353 1747 
Q 353 2572 751 3078 
Q 1150 3584 1784 3584 
Q 2172 3584 2448 3432 
Q 2725 3281 2906 2969 
z
M 947 1747 
Q 947 1113 1208 752 
Q 1469 391 1925 391 
Q 2381 391 2643 752 
Q 2906 1113 2906 1747 
Q 2906 2381 2643 2742 
Q 2381 3103 1925 3103 
Q 1469 3103 1208 2742 
Q 947 2381 947 1747 
z
" transform="scale(0.015625)"/>
    </defs>
    <use xlink:href="#DejaVuSans-4e"/>
    <use xlink:href="#DejaVuSans-4d" x="74.804688"/>
    <use xlink:href="#DejaVuSans-44" x="161.083984"/>
    <use xlink:href="#DejaVuSans-43" x="238.085938"/>
    <use xlink:href="#DejaVuSans-20" x="307.910156"/>
    <use xlink:href="#DejaVuSans-4c" x="339.697266"/>
    <use xlink:href="#DejaVuSans-69" x="395.410156"/>
    <use xlink:href="#DejaVuSans-6d" x="423.193359"/>
    <use xlink:href="#DejaVuSans-69" x="520.605469"/>
    <use xlink:href="#DejaVuSans-74" x="548.388672"/>
    <use xlink:href="#DejaVuSans-65" x="587.597656"/>
    <use xlink:href="#DejaVuSans-64" x="649.121094"/>
   </g>
  </g>
 </g>
 <defs>
  <clipPath id="pf7628f195c">
   <rect x="36.8875" y="48.331875" width="945.988606" height="253.385938"/>
  </clipPath>
  <clipPath id="pe490828b67">
   <rect x="36.8875" y="331.135938" width="945.988606" height="253.385937"/>
  </clipPath>
 </defs>
</svg>
